<?xml version="1.0" encoding="UTF-8" standalone="no"?>
<!DOCTYPE svg PUBLIC "-//W3C//DTD SVG 1.1//EN" "http://www.w3.org/Graphics/SVG/1.1/DTD/svg11.dtd">
<svg xmlns="http://www.w3.org/2000/svg" version="1.1" viewBox="0.00 0.00 32.00 32.00">
<path stroke="#1c5840" stroke-width="2.00" fill="none" stroke-linecap="butt" vector-effect="non-scaling-stroke" d="
  M 26.99 9.33
  Q 30.66 26.00 13.66 29.24"
/>
<path fill="#98c453" d="
  M 0.00 17.01
  L 0.00 13.09
  C 2.38 1.62 14.81 -2.98 23.61 5.15
  A 0.22 0.22 0.0 0 1 23.43 5.52
  C 14.40 4.29 7.43 9.11 6.30 18.05
  Q 5.83 21.78 9.00 27.61
  A 0.19 0.19 0.0 0 1 8.76 27.88
  Q 1.77 25.01 0.00 17.01
  Z"
/>
<path fill="#000000" d="
  M 26.99 9.33
  Q 30.66 26.00 13.66 29.24
  Q 9.80 26.16 8.76 22.24
  C 7.34 16.92 9.45 11.86 14.10 8.98
  Q 20.01 5.33 26.99 9.33
  Z
  M 16.39 19.39
  A 1.24 1.24 0.0 0 0 15.15 18.15
  A 1.24 1.24 0.0 0 0 13.91 19.39
  A 1.24 1.24 0.0 0 0 15.15 20.63
  A 1.24 1.24 0.0 0 0 16.39 19.39
  Z
  M 21.41 19.37
  A 1.24 1.24 0.0 0 0 20.17 18.13
  A 1.24 1.24 0.0 0 0 18.93 19.37
  A 1.24 1.24 0.0 0 0 20.17 20.61
  A 1.24 1.24 0.0 0 0 21.41 19.37
  Z
  M 26.47 19.39
  A 1.25 1.25 0.0 0 0 25.22 18.14
  A 1.25 1.25 0.0 0 0 23.97 19.39
  A 1.25 1.25 0.0 0 0 25.22 20.64
  A 1.25 1.25 0.0 0 0 26.47 19.39
  Z"
/>
<path fill="#38b07f" d="
  M 32.00 16.79
  L 32.00 29.74
  Q 31.63 30.84 30.68 30.95
  Q 21.52 32.00 13.66 29.24
  Q 30.66 26.00 26.99 9.33
  Q 30.45 12.00 32.00 16.79
  Z"
/>
</svg>
