<?xml version="1.0" encoding="UTF-8" standalone="no"?>
<!DOCTYPE svg PUBLIC "-//W3C//DTD SVG 1.1//EN" "http://www.w3.org/Graphics/SVG/1.1/DTD/svg11.dtd">
<svg xmlns="http://www.w3.org/2000/svg" version="1.1" viewBox="0.00 0.00 32.00 32.00">
<g stroke-width="2.00" fill="none" stroke-linecap="butt">
<path stroke="#1f2937" stroke-opacity="0.506" vector-effect="non-scaling-stroke" d="
  M 3.96 0.00
  Q 1.00 1.12 0.00 4.05"
/>
<path stroke="#1f2937" stroke-opacity="0.506" vector-effect="non-scaling-stroke" d="
  M 27.98 0.00
  Q 30.89 1.04 32.00 3.96"
/>
<path stroke="#1f2937" stroke-opacity="0.506" vector-effect="non-scaling-stroke" d="
  M 32.00 27.99
  Q 31.01 30.81 28.14 32.00"
/>
<path stroke="#1f2937" stroke-opacity="0.506" vector-effect="non-scaling-stroke" d="
  M 3.92 32.00
  Q 1.08 30.90 0.00 28.07"
/>
<path stroke="#8f949b" vector-effect="non-scaling-stroke" d="
  M 18.11 5.89
  A 0.35 0.35 0.0 0 0 17.80 5.37
  L 4.25 5.37
  A 0.35 0.35 0.0 0 0 3.94 5.90
  L 8.26 13.36
  A 0.35 0.35 0.0 0 0 8.86 13.36
  L 10.93 9.78
  A 0.35 0.35 0.0 0 1 11.23 9.60
  L 15.77 9.60
  A 0.35 0.35 0.0 0 0 16.07 9.42
  L 18.11 5.89"
/>
<path stroke="#1b6741" vector-effect="non-scaling-stroke" d="
  M 11.28 17.99
  A 0.33 0.33 0.0 0 0 11.28 18.33
  L 15.78 26.13
  A 0.33 0.33 0.0 0 0 16.36 26.13
  L 28.06 5.85
  A 0.33 0.33 0.0 0 0 27.78 5.36
  L 23.58 5.36
  A 0.33 0.33 0.0 0 0 23.29 5.53
  L 16.32 17.62
  A 0.33 0.33 0.0 0 1 15.74 17.63
  L 13.91 14.44
  A 0.33 0.33 0.0 0 0 13.33 14.44
  L 11.28 17.99"
/>
</g>
<path fill="#05032f" fill-opacity="0.012" d="
  M 3.96 0.00
  Q 1.00 1.12 0.00 4.05
  L 0.00 0.00
  L 3.96 0.00
  Z"
/>
<path fill="#1f2937" d="
  M 27.98 0.00
  Q 30.89 1.04 32.00 3.96
  L 32.00 27.99
  Q 31.01 30.81 28.14 32.00
  L 3.92 32.00
  Q 1.08 30.90 0.00 28.07
  L 0.00 4.05
  Q 1.00 1.12 3.96 0.00
  L 27.98 0.00
  Z
  M 18.11 5.89
  A 0.35 0.35 0.0 0 0 17.80 5.37
  L 4.25 5.37
  A 0.35 0.35 0.0 0 0 3.94 5.90
  L 8.26 13.36
  A 0.35 0.35 0.0 0 0 8.86 13.36
  L 10.93 9.78
  A 0.35 0.35 0.0 0 1 11.23 9.60
  L 15.77 9.60
  A 0.35 0.35 0.0 0 0 16.07 9.42
  L 18.11 5.89
  Z
  M 11.28 17.99
  A 0.33 0.33 0.0 0 0 11.28 18.33
  L 15.78 26.13
  A 0.33 0.33 0.0 0 0 16.36 26.13
  L 28.06 5.85
  A 0.33 0.33 0.0 0 0 27.78 5.36
  L 23.58 5.36
  A 0.33 0.33 0.0 0 0 23.29 5.53
  L 16.32 17.62
  A 0.33 0.33 0.0 0 1 15.74 17.63
  L 13.91 14.44
  A 0.33 0.33 0.0 0 0 13.33 14.44
  L 11.28 17.99
  Z"
/>
<path fill="#05032f" fill-opacity="0.012" d="
  M 32.00 0.00
  L 32.00 3.96
  Q 30.89 1.04 27.98 0.00
  L 32.00 0.00
  Z"
/>
<path fill="#ffffff" d="
  M 18.11 5.89
  L 16.07 9.42
  A 0.35 0.35 0.0 0 1 15.77 9.60
  L 11.23 9.60
  A 0.35 0.35 0.0 0 0 10.93 9.78
  L 8.86 13.36
  A 0.35 0.35 0.0 0 1 8.26 13.36
  L 3.94 5.90
  A 0.35 0.35 0.0 0 1 4.25 5.37
  L 17.80 5.37
  A 0.35 0.35 0.0 0 1 18.11 5.89
  Z"
/>
<path fill="#16a44a" d="
  M 11.28 17.99
  L 13.33 14.44
  A 0.33 0.33 0.0 0 1 13.91 14.44
  L 15.74 17.63
  A 0.33 0.33 0.0 0 0 16.32 17.62
  L 23.29 5.53
  A 0.33 0.33 0.0 0 1 23.58 5.36
  L 27.78 5.36
  A 0.33 0.33 0.0 0 1 28.06 5.85
  L 16.36 26.13
  A 0.33 0.33 0.0 0 1 15.78 26.13
  L 11.28 18.33
  A 0.33 0.33 0.0 0 1 11.28 17.99
  Z"
/>
<path fill="#05032f" fill-opacity="0.012" d="
  M 3.92 32.00
  L 0.00 32.00
  L 0.00 28.07
  Q 1.08 30.90 3.92 32.00
  Z"
/>
<path fill="#05032f" fill-opacity="0.012" d="
  M 32.00 27.99
  L 32.00 32.00
  L 28.14 32.00
  Q 31.01 30.81 32.00 27.99
  Z"
/>
</svg>
