<svg width="616" height="160" viewBox="0 0 616 160" fill="none" xmlns="http://www.w3.org/2000/svg">
<path d="M580.817 159.77C591.015 159.77 603.705 156.824 615.036 152.745V123.512L605.971 126.684C601.439 128.497 597.133 129.63 592.828 129.63C585.576 129.63 582.177 126.004 582.177 112.634V78.6421H605.594L615.036 53.4881H581.95V1.93359L549.998 21.6489V53.4881H549.994V78.6421H549.998V125.324C549.998 148.666 561.102 159.77 580.817 159.77Z" fill="#222222"/>
<path fill-rule="evenodd" clip-rule="evenodd" d="M430.326 100.539C438.286 49.2596 486.585 40.2297 534.325 60.8282V157.871H505.226L505.226 136.465C467.967 182.635 422.907 153.459 430.326 100.539ZM458.088 106.587C458.088 83.5674 481.404 72.9144 504.313 82.4062C504.854 119.736 458.088 144.516 458.088 106.587Z" fill="#222222"/>
<path d="M314.561 157.279H346.514V100.852L356.485 90.2015C363.283 83.1764 368.948 79.324 374.161 79.324C380.959 79.324 383.905 85.4426 383.905 97.4531V157.279H416.084V92.241C416.084 64.5942 405.66 51.224 387.078 51.224C370.082 51.224 359.657 61.4216 346.514 76.6047V0L314.561 19.7248V157.279Z" fill="#222222"/>
<path d="M233.892 159.997C253.834 159.997 277.402 152.519 297.344 140.735V103.344L275.816 116.034C262.899 123.739 246.583 129.404 234.119 129.404C211.005 129.404 194.462 111.955 194.462 80.229C194.462 48.2765 211.458 31.0539 234.572 31.0539C247.036 31.0539 262.899 36.7193 275.816 44.4241L297.344 57.1144V19.7233C277.402 7.93941 253.834 0.461182 233.892 0.461182C191.969 0.461182 160.017 29.4677 160.017 80.229C160.017 130.99 191.969 159.997 233.892 159.997Z" fill="#222222"/>
<path d="M135.383 104.616V160H4.21262e-06L0 111.802C2.91029e-06 78.5676 43.0765 64.6163 43.0765 64.6163V104.616H135.383Z" fill="#2244FF"/>
<path d="M0 55.384V0H89.2298C129.229 0 143.654 29.3123 132.107 55.0602C120.56 80.808 92.3067 95.3836 92.3067 95.3836V55.384H0Z" fill="#2244FF"/>
</svg>
