<svg xmlns="http://www.w3.org/2000/svg" viewBox="0 0 203.42 93.59" xmlns:xlink="http://www.w3.org/1999/xlink">
 <title>
  8x8 Alternate Logo - White
 </title>
 <path d="M172.88,131.62h-22l-5.06,9.56a25.17,25.17,0,0,1-1.81,3.17h-.21s-1-1.68-1.82-3.17L137,131.55h-21.9l17.25,26.61-17.18,26.62H136.7l5.8-11.12a24.3,24.3,0,0,0,1.34-3h.21s.8,2,1.34,3l5.93,11.12h21.56L155.7,158.16l17.18-26.54M75.66,171.3a10.7,10.7,0,0,1-10.92-10.51,16.44,16.44,0,0,1,4.78-11c8.9,4,17,7.08,17,12.27C86.57,168,82.39,171.3,75.66,171.3Zm.6-54.64c5.93,0,9.5,3.3,9.5,8.35a22.66,22.66,0,0,1-3.16,11.12c-8-3.44-14.56-6.47-14.56-12.4C68,119.83,70.6,116.66,76.26,116.66ZM98.56,144c.88-1.07,8.9-10.84,8.9-20.61,0-16.85-13.81-26.21-30.66-26.21-21.16,0-30.39,12.93-30.39,26.07,0,7.75,3.44,13.14,8.22,17.32C51.87,142.8,42.1,151,42.1,162.68c0,14.42,11.52,28.1,33.56,28.1,22.43,0,33.55-13.82,33.55-27.63C109.21,154.05,104.63,148.19,98.56,144ZM212,171.3a10.7,10.7,0,0,1-10.91-10.51,16.44,16.44,0,0,1,4.78-11c8.9,4,17,7.08,17,12.27,0,6-4.18,9.29-10.85,9.29Zm.61-54.64c5.93,0,9.5,3.3,9.5,8.35a22.53,22.53,0,0,1-3.17,11.12c-8-3.44-14.55-6.47-14.55-12.4,0-3.9,2.56-7.07,8.22-7.07ZM234.87,144c.88-1.14,8.9-10.91,8.9-20.61,0-16.85-13.82-26.21-30.66-26.21-21.16,0-30.39,12.93-30.39,26.07,0,7.75,3.44,13.14,8.22,17.32-2.76,2.15-12.53,10.37-12.53,22,0,14.42,11.52,28.1,33.55,28.1,22.44,0,33.56-13.81,33.56-27.63C245.52,154.05,240.94,148.19,234.87,144Z" transform="translate(-42.1 -97.19)" style="fill: #000000;fill-rule: evenodd">
 </path>
</svg>