<svg width="128" height="128" viewBox="0 0 128 128" fill="none" xmlns="http://www.w3.org/2000/svg">
<g clip-path="url(#clip0_240_6927)">
<path d="M31.5122 7.72803H96.4876C97.538 7.72803 98.4384 8.1782 98.8885 9.22861L107.442 24.9848C108.042 25.8851 108.042 26.7855 107.442 27.8359L98.8885 44.0422C98.2883 45.8429 96.9378 45.5428 96.0374 44.0422L87.4841 28.7362C87.334 27.8359 86.4337 27.3857 85.2332 27.3857H43.817C42.9167 27.3857 42.0163 27.8359 41.4161 28.8863L22.8088 62.7995C22.3586 63.3998 22.3586 64.7503 22.8088 65.6507L41.4161 99.1137C41.5662 100.014 42.7666 100.464 43.667 100.464H84.9331C85.8334 100.464 86.7338 100.014 87.184 99.1137L96.1875 82.3072C97.6881 79.456 98.4384 79.7562 99.9389 82.3072L108.642 98.2134C109.093 98.8136 109.243 99.714 108.642 100.764L99.3387 118.771C99.1887 119.672 97.9882 120.272 96.9378 120.272H31.9624C31.3622 120.272 30.1617 119.822 29.7115 118.921L0.300034 65.6507C-0.150142 65.0504 -0.150142 63.6999 0.300034 62.7995L29.4114 9.07855C29.5615 8.1782 30.7619 7.72803 31.5122 7.72803ZM54.021 43.1419H75.9296C76.98 43.1419 77.7303 43.592 78.3305 44.6424L87.9343 62.3494C88.3844 62.9496 88.5345 63.8499 88.0843 64.7503L78.1805 83.3576C78.0304 84.2579 76.8299 84.8582 75.7795 84.8582H54.3211C53.4208 84.8582 52.5204 84.408 51.9202 83.3576L41.8663 65.2005C41.266 64.3001 41.266 63.3998 41.8663 62.3494L51.7701 44.6424C52.0703 43.592 52.9706 43.1419 54.021 43.1419ZM106.692 60.9988L115.695 44.6424C116.595 43.1419 117.196 42.6917 118.096 44.6424L127.7 61.8992C128.15 62.4994 127.85 63.8499 127.55 64.4502L118.996 80.6565C118.396 82.4572 117.496 82.4572 116.595 80.6565L106.992 64C106.241 63.2497 106.091 62.3494 106.692 60.9988Z" fill="#391BB2"/>
</g>
<defs>
<clipPath id="clip0_240_6927">
<rect width="128" height="112.544" fill="white" transform="translate(0 7.72803)"/>
</clipPath>
</defs>
</svg>
