<svg xmlns="http://www.w3.org/2000/svg" width="100%" height="100%" viewBox="0 0 136 32" fill="none" preserveAspectRatio="xMidYMid meet" aria-hidden="true" role="img" style="fill: none !important;">
<path d="M50.4051 7.41225C47.4361 15.0531 46.4247 17.9918 46.0659 20.0816C45.707 17.9918 44.6303 14.9878 41.5635 7.41225H36.5391L43.6842 24.6531L40.8457 32H45.6743L55.3316 7.41225H50.4051Z" fill="currentColor" style="fill: #000000 !important;"/>
<path d="M62.0007 24.8163C66.2747 24.8163 69.3741 22.8898 69.3741 19.4286C69.3741 12.8653 59.3253 14.8245 59.3253 12.0163C59.3253 11.0694 60.402 10.5469 61.6092 10.5469C63.2731 10.5469 64.2519 11.4612 64.415 12.6367L68.8195 12.5061C68.7543 9.53469 65.8832 7.05306 61.6744 7.05306C57.9224 7.05306 54.823 9.01225 54.823 12.3429C54.823 18.6449 64.7086 16.8163 64.7086 19.6571C64.7086 20.6367 63.632 21.1918 62.1312 21.1918C60.1736 21.1918 58.7707 20.2449 58.6402 18.8082L54.1378 18.9714C54.2683 23.0857 57.955 24.8163 62.0007 24.8163Z" fill="currentColor" style="fill: #000000 !important;"/>
<path d="M77.763 24.8163C82.037 24.8163 85.1365 22.8898 85.1365 19.4286C85.1365 12.8653 75.0877 14.8245 75.0877 12.0163C75.0877 11.0694 76.1644 10.5469 77.3715 10.5469C79.0355 10.5469 80.0142 11.4612 80.1774 12.6367L84.5819 12.5061C84.5166 9.53469 81.6455 7.05306 77.4368 7.05306C73.6848 7.05306 70.5853 9.01225 70.5853 12.3429C70.5853 18.6449 80.4057 16.8163 80.471 19.6571C80.471 20.6367 79.3944 21.1918 77.8936 21.1918C75.936 21.1918 74.5331 20.2449 74.4026 18.8082L69.9002 18.9714C70.0307 23.0857 73.7174 24.8163 77.763 24.8163Z" fill="currentColor" style="fill: #000000 !important;"/>
<path d="M99.3177 10.0245V9.92653C98.0453 8.03265 95.8268 7.05306 93.6408 7.05306C88.388 7.05306 85.8002 10.8408 85.8002 15.902C85.8002 20.7673 88.2249 24.8163 93.4124 24.8163C96.2509 24.8163 98.5021 23.5755 99.3177 21.551V24.4898H104.016V7.41225H100.101L99.3177 10.0245ZM94.6196 20.6694C91.8138 20.6694 90.3367 18.6776 90.3367 15.902C90.3367 13.1592 91.8138 11.2653 94.6196 11.2653C97.3276 11.2653 98.7389 13.1918 98.7389 15.902C98.7389 18.6449 97.3276 20.6694 94.6196 20.6694Z" fill="currentColor" style="fill: #000000 !important;"/>
<path d="M105.674 0V24.4898H110.307V0H105.674Z" fill="currentColor" style="fill: #000000 !important;"/>
<path d="M120.077 7.05306C115.379 7.05306 111.66 10.8735 111.66 16C111.66 21.2898 115.542 24.8163 120.371 24.8163C123.628 24.8163 126.23 23.1766 127.64 20.8095L123.703 19.5932C122.917 20.4466 121.919 20.9959 120.403 20.9959C118.022 20.9959 116.554 19.4939 116.325 17.4041H128.429C128.625 10.5469 125.265 7.05306 120.077 7.05306ZM120.077 10.7755C122.426 10.7755 123.862 12.1796 123.992 14.1714H116.293C116.456 12.1796 117.793 10.7755 120.077 10.7755Z" fill="currentColor" style="fill: #000000 !important;"/>
<path d="M134.763 5.9984C134.763 7.54043 133.514 8.79006 131.974 8.79006C130.434 8.79006 129.185 7.54043 129.185 5.9984C129.185 4.45637 130.434 3.20674 131.974 3.20674C133.514 3.20674 134.763 4.45637 134.763 5.9984Z" stroke="currentColor" stroke-width="0.6" style="fill: none !important; stroke: #000000 !important; stroke-width: 0.6px !important;"/>
<path d="M130.971 7.59334V4.45654H132.03C132.275 4.45654 132.476 4.49841 132.633 4.58214C132.79 4.66485 132.907 4.7787 132.982 4.92369C133.058 5.06869 133.095 5.23359 133.095 5.41841C133.095 5.60323 133.058 5.76711 132.982 5.91007C132.907 6.05302 132.791 6.16534 132.635 6.24703C132.479 6.32769 132.279 6.36803 132.036 6.36803H131.179V6.02494H132.024C132.191 6.02494 132.326 6.00043 132.428 5.95142C132.531 5.90241 132.606 5.83297 132.652 5.74312C132.698 5.65224 132.722 5.54401 132.722 5.41841C132.722 5.29282 132.698 5.18305 132.652 5.08911C132.605 4.99517 132.53 4.92267 132.426 4.87162C132.323 4.81954 132.187 4.7935 132.018 4.7935H131.35V7.59334H130.971ZM132.446 6.18423L133.218 7.59334H132.777L132.018 6.18423H132.446Z" fill="currentColor" style="fill: #000000 !important;"/>
<path fill-rule="evenodd" clip-rule="evenodd" d="M0.954283 22.3409L0 24.3973H3.50236C4.31504 24.3973 5.08601 24.063 5.69921 23.5293C9.76113 19.9935 13.6621 20.1029 17.5972 23.529C18.2104 24.0628 18.9816 24.3973 19.7943 24.3973L23.4089 24.3973L22.5107 22.3409L13.7014 1.03613L9.76296 1.03613L0.954283 22.3409ZM11.7325 6.96496L7.47566 17.9699L9.49025 17.1222C10.9237 16.5191 12.5413 16.5191 13.9747 17.1222L15.9893 17.9699L11.7325 6.96496Z" fill="currentColor" style="fill: #000000 !important;"/>
<path d="M29.6012 7.05892C26.7734 7.05892 24.5308 8.32758 23.6857 10.3444V0H19.0703L19.2221 9.38729C19.2408 10.5422 19.4764 11.6834 19.9167 12.7513L23.3323 21.0353C23.5673 21.6053 23.8417 22.1664 24.2608 22.6185C25.5679 24.029 27.4908 24.755 29.3411 24.755C34.6066 24.755 37.9494 20.8615 37.9494 15.8194C37.9494 11.005 34.7691 7.05892 29.6012 7.05892ZM29.3411 20.5037C26.6109 20.5037 25.128 18.5194 25.128 15.8194C25.128 13.0869 26.6109 11.1352 29.3411 11.1352C32.1039 11.1352 33.6353 13.0544 33.6353 15.8194C33.6353 18.5519 32.1039 20.5037 29.3411 20.5037Z" fill="currentColor" style="fill: #000000 !important;"/>
</svg>