<?xml version="1.0" encoding="UTF-8" standalone="no"?>
<!DOCTYPE svg PUBLIC "-//W3C//DTD SVG 1.1//EN" "http://www.w3.org/Graphics/SVG/1.1/DTD/svg11.dtd">
<svg xmlns="http://www.w3.org/2000/svg" version="1.1" viewBox="0.00 0.00 400.00 400.00">
<g stroke-width="2.00" fill="none" stroke-linecap="butt">
<path stroke="#ada6fe" vector-effect="non-scaling-stroke" d="
  M 200.25 303.04
  Q 236.84 303.05 253.41 303.02
  Q 269.77 302.98 276.97 301.42
  C 304.16 295.55 325.53 275.00 331.43 247.71
  Q 332.98 240.55 332.96 225.20
  Q 332.88 159.58 332.92 97.52
  A 0.60 0.59 -89.5 0 0 332.34 96.92
  Q 326.64 96.87 320.75 96.87
  Q 251.61 96.87 199.73 96.85
  Q 163.15 96.84 146.57 96.87
  Q 130.21 96.91 123.01 98.47
  C 95.82 104.34 74.45 124.89 68.55 152.18
  Q 67.00 159.34 67.02 174.69
  Q 67.10 240.31 67.06 302.37
  A 0.60 0.59 -89.5 0 0 67.64 302.97
  Q 73.34 303.02 79.23 303.02
  Q 148.37 303.02 200.25 303.04"
/>
<path stroke="#ada6fe" vector-effect="non-scaling-stroke" d="
  M 275.21 167.72
  A 0.76 0.76 0.0 0 0 274.45 166.96
  L 135.03 166.96
  A 0.76 0.76 0.0 0 0 134.27 167.72
  L 134.27 184.36
  A 0.76 0.76 0.0 0 0 135.03 185.12
  L 274.45 185.12
  A 0.76 0.76 0.0 0 0 275.21 184.36
  L 275.21 167.72"
/>
<path stroke="#ada6fe" vector-effect="non-scaling-stroke" d="
  M 275.07 237.55
  A 18.26 18.26 0.0 0 0 256.81 219.29
  A 18.26 18.26 0.0 0 0 238.55 237.55
  A 18.26 18.26 0.0 0 0 256.81 255.81
  A 18.26 18.26 0.0 0 0 275.07 237.55"
/>
</g>
<path fill="#5b4dfc" d="
  M 400.00 0.00
  L 400.00 400.00
  L 0.00 400.00
  L 0.00 0.00
  L 400.00 0.00
  Z
  M 200.25 303.04
  Q 236.84 303.05 253.41 303.02
  Q 269.77 302.98 276.97 301.42
  C 304.16 295.55 325.53 275.00 331.43 247.71
  Q 332.98 240.55 332.96 225.20
  Q 332.88 159.58 332.92 97.52
  A 0.60 0.59 -89.5 0 0 332.34 96.92
  Q 326.64 96.87 320.75 96.87
  Q 251.61 96.87 199.73 96.85
  Q 163.15 96.84 146.57 96.87
  Q 130.21 96.91 123.01 98.47
  C 95.82 104.34 74.45 124.89 68.55 152.18
  Q 67.00 159.34 67.02 174.69
  Q 67.10 240.31 67.06 302.37
  A 0.60 0.59 -89.5 0 0 67.64 302.97
  Q 73.34 303.02 79.23 303.02
  Q 148.37 303.02 200.25 303.04
  Z"
/>
<path fill="#ffffff" d="
  M 200.25 303.04
  Q 148.37 303.02 79.23 303.02
  Q 73.34 303.02 67.64 302.97
  A 0.60 0.59 -89.5 0 1 67.06 302.37
  Q 67.10 240.31 67.02 174.69
  Q 67.00 159.34 68.55 152.18
  C 74.45 124.89 95.82 104.34 123.01 98.47
  Q 130.21 96.91 146.57 96.87
  Q 163.15 96.84 199.73 96.85
  Q 251.61 96.87 320.75 96.87
  Q 326.64 96.87 332.34 96.92
  A 0.60 0.59 -89.5 0 1 332.92 97.52
  Q 332.88 159.58 332.96 225.20
  Q 332.98 240.55 331.43 247.71
  C 325.53 275.00 304.16 295.55 276.97 301.42
  Q 269.77 302.98 253.41 303.02
  Q 236.84 303.05 200.25 303.04
  Z
  M 275.21 167.72
  A 0.76 0.76 0.0 0 0 274.45 166.96
  L 135.03 166.96
  A 0.76 0.76 0.0 0 0 134.27 167.72
  L 134.27 184.36
  A 0.76 0.76 0.0 0 0 135.03 185.12
  L 274.45 185.12
  A 0.76 0.76 0.0 0 0 275.21 184.36
  L 275.21 167.72
  Z
  M 275.07 237.55
  A 18.26 18.26 0.0 0 0 256.81 219.29
  A 18.26 18.26 0.0 0 0 238.55 237.55
  A 18.26 18.26 0.0 0 0 256.81 255.81
  A 18.26 18.26 0.0 0 0 275.07 237.55
  Z"
/>
<rect fill="#5b4dfc" x="134.27" y="166.96" width="140.94" height="18.16" rx="0.76"/>
<circle fill="#5b4dfc" cx="256.81" cy="237.55" r="18.26"/>
</svg>
