<svg width="128" height="128" viewBox="0 0 128 128" fill="none" xmlns="http://www.w3.org/2000/svg">
<path d="M87.6518 47.7711L87.8444 46.519L66.7519 56.4392L72.4343 56.8245L67.9076 67.6115H59.721L55.1943 56.8245L60.8768 56.4392L39.7842 46.519L39.9768 47.7711C41.8068 58.0765 46.4298 63.2774 53.7496 63.3738L54.2311 66.2632L52.016 67.2263C47.2003 69.1525 43.9257 73.0051 42.2883 78.5912L42.192 79.0728L53.9422 86.9704L54.3275 86.4889C57.1205 83.2142 60.3952 81.288 63.8624 80.6138C67.3297 81.288 70.6044 83.2142 73.3975 86.4889L73.7827 86.9704L85.5329 79.0728L85.4366 78.5912C84.8347 76.0603 83.6383 73.7092 81.9466 71.7328C80.255 69.7564 78.1167 68.2116 75.709 67.2263L73.4937 66.2632L73.9753 63.3738C81.1988 63.2774 85.8218 57.9802 87.6518 47.7711ZM63.2846 77.2428C59.721 77.6281 56.5427 79.3617 53.7496 82.4437L48.645 75.8945C48.5487 73.1014 49.8971 70.5972 52.7865 68.2857L54.5201 66.9373L54.9053 68.8636L63.3809 76.5686L63.2846 77.2428ZM74.9384 68.2857C77.8278 70.5972 79.1762 73.1014 79.0799 75.8945L73.9753 82.4437C71.1823 79.3617 67.9076 77.6281 64.4404 77.2428V76.5686L72.9159 68.8636L73.3011 66.9373L74.9384 68.2857Z" fill="#9B9A9B"/>
<path d="M83.4122 86.2963L85.5311 83.4069L82.4491 85.4294C78.5965 87.9336 75.4182 92.7492 73.0104 99.4911H54.6146C53.0727 93.9061 49.7607 88.972 45.176 85.4294L42.094 83.4069L44.2128 86.2963C49.2211 93.1345 51.34 99.4911 50.4731 105.174L50.3769 106.04H77.3445L77.2481 105.174C76.3813 99.4911 78.404 93.1345 83.4122 86.2963ZM36.7004 89.4746L36.7967 86.4889L35.4483 89.1856C31.8847 96.3128 30.6327 105.366 31.5958 116.25V116.442L31.6921 116.635C35.1594 120.68 39.6861 124.051 45.2722 126.651L47.969 128L46.0427 125.688C39.3971 117.694 36.2188 105.559 36.7004 89.4746Z" fill="#9B9A9B"/>
<path d="M118.471 61.1588C112.211 65.3002 105.854 65.8781 99.5937 63.085C102.328 56.7323 103.705 49.8788 103.639 42.9631C103.573 36.0474 102.064 29.2216 99.2084 22.9225C103.35 17.0474 102.387 9.34236 101.231 6.06772L99.1121 0L99.9789 6.35666C99.9789 6.45297 100.942 14.4469 97.2821 19.1663C96.0048 16.9508 94.6227 14.7974 93.1407 12.7133L92.0812 13.3875C93.4296 15.8916 94.6817 18.3958 95.6448 20.7073L94.8743 21.1889C92.7554 22.4409 90.2513 23.4041 87.9398 24.4635C82.8352 26.5824 78.0196 28.7013 76.0933 32.7464H51.7261C49.7999 28.7013 44.9842 26.5824 39.8796 24.4635C37.5681 23.5004 35.1602 22.4409 32.945 21.1889L32.1746 20.7073C33.234 18.2995 34.3897 15.8916 35.7381 13.3875L34.5824 12.7133C33.0414 14.8322 31.5967 16.9511 30.4409 19.1663C26.7811 14.4469 27.7441 6.45297 27.7441 6.35666L28.611 0L26.4921 6.06772C25.3363 9.34236 24.3732 17.0474 28.5146 22.9225C25.6594 29.2216 24.1504 36.0474 24.084 42.9631C24.0177 49.8788 25.3955 56.7323 28.1294 63.085C21.869 65.9744 15.5124 65.3002 9.25204 61.1588L8 60.2919L8.28893 61.7366C12.2378 84.8518 19.076 102.092 28.8036 112.879L30.2483 114.42L29.9594 112.301C28.2257 98.8171 29.1889 88.608 32.7524 81.7697L35.3529 76.9541L31.693 80.9992C28.1274 84.6715 25.6013 89.2251 24.3732 94.1941C21.624 88.2427 19.6495 81.9632 18.4981 75.5094C22.6905 75.0816 26.6962 73.5566 30.1117 71.0879C33.5272 68.6193 36.2319 65.2943 37.9534 61.4477C42.0948 51.6238 39.8796 39.0068 32.0783 28.5087L31.0188 29.2792C37.1828 39.7773 37.9534 49.5049 33.1377 58.3657C26.9737 49.2159 26.1069 38.0436 30.7299 25.1377C32.5598 26.8713 34.8713 28.1234 37.5681 28.9902C41.8059 30.3386 45.4658 38.2363 45.4658 38.2363L45.7547 38.9105L46.3325 38.6215C48.2588 37.851 55.0007 37.3694 63.38 37.3694H64.921C73.3002 37.3694 80.0421 37.851 81.9684 38.6215L82.5462 38.9105L82.8352 38.2363C82.8352 38.1399 86.4951 30.3386 90.7328 28.9902C93.4296 28.1234 95.7411 26.775 97.5711 25.1377C102.098 38.0436 101.327 49.2159 95.1632 58.3657C90.3476 49.5049 91.0218 39.681 97.2821 29.2792L96.2227 28.5087C88.4213 39.0068 86.1098 51.7201 90.3476 61.4477C93.6222 69.1527 100.557 74.161 109.803 75.5094C108.84 81.2882 106.913 87.6448 103.928 94.1941C102.658 89.2417 100.137 84.6983 96.6079 80.9992L92.9481 76.9541L95.5485 81.7697C99.2084 88.608 100.172 98.8171 98.3416 112.301L98.0527 114.42L99.4974 112.879C109.129 102.092 116.063 84.8518 120.012 61.7366L119.723 60.2919L118.471 61.1588Z" fill="#9B9A9B"/>
<path d="M90.831 86.3929L90.9274 89.3786C91.4089 105.463 88.2306 117.598 81.585 125.4L79.6587 127.711L82.3555 126.363C87.5884 124.106 92.2342 120.679 95.9356 116.346L96.0319 116.154V115.961C97.2224 106.757 95.8908 97.403 92.1794 88.8971L90.831 86.3929Z" fill="#9B9A9B"/>
</svg>
