<svg version="1.1" id="Layer_1" xmlns:x="ns_extend;" xmlns:i="ns_ai;" xmlns:graph="ns_graphs;" xmlns="http://www.w3.org/2000/svg" xmlns:xlink="http://www.w3.org/1999/xlink" x="0px" y="0px" viewBox="0 0 205 72" style="enable-background:new 0 0 205 72;" xml:space="preserve">
 <style type="text/css">
  .st0{fill:#242B3B;}
	.st1{fill:#000000;}
	.st2{fill:#3B8AC9;}
	.st3{fill:#E84061;}
 </style>
 <metadata>
  <sfw xmlns="ns_sfw;">
   <slices>
   </slices>
   <sliceSourceBounds bottomLeftOrigin="true" height="72" width="205" x="0" y="0">
   </sliceSourceBounds>
  </sfw>
 </metadata>
 <g id="Layer_2_1_">
  <g id="Layer_1-2">
   <rect x="0.2" y="0.2" class="st0" width="69.8" height="69.8">
   </rect>
   <path class="st1" d="M70.1,70.1H0V0h70.1V70.1z M0.3,69.8h69.4V0.3H0.3V69.8z">
   </path>
   <path class="st1" d="M19.7,44.5l-1.2,7h-7.9L18.1,16H28l6.5,35.5h-7.9l-1.2-7L19.7,44.5z M24.8,38.2l-0.9-6.7
			c-0.3-2-0.7-5.9-1-8.1h-0.1c-0.4,2.2-0.9,6.2-1.2,8.1l-1,6.7H24.8z">
   </path>
   <path class="st1" d="M38.5,23.5h-6.2V16h20.5v7.6h-6.2v27.9h-8.2V23.5z">
   </path>
   <path class="st2" d="M54.8,51.9c-2.4,0-4.5-2-4.5-5.2c-0.2-2.7,1.9-5.1,4.6-5.3c2.5,0,4.6,2,4.6,5.3
			C59.5,49.8,57.6,51.9,54.8,51.9L54.8,51.9z">
   </path>
   <path class="st0" d="M82.7,47.3l-0.7,4.2h-4.7l4.5-21.2h5.9l3.9,21.2h-4.7l-0.7-4.2H82.7z M85.7,43.6l-0.5-4
			c-0.2-1.2-0.4-3.5-0.6-4.8h-0.1c-0.2,1.3-0.5,3.7-0.7,4.8l-0.6,4H85.7z">
   </path>
   <path class="st0" d="M103.7,51.2c-1,0.4-2.1,0.5-3.2,0.5c-6,0-8.4-4.9-8.4-10.4c0-7.8,4.6-11.1,9-11.1c1-0.1,2.1,0.1,3,0.6
			l-0.8,4.1c-0.6-0.3-1.2-0.4-1.8-0.4c-2.4,0-4.2,2-4.2,6.7c0,4.4,1.7,6.3,4.2,6.3c0.6,0,1.3-0.1,1.9-0.2L103.7,51.2z">
   </path>
   <path class="st0" d="M109.3,34.8h-3.7v-4.5h12.2v4.5h-3.7v16.7h-4.9L109.3,34.8z">
   </path>
   <path class="st0" d="M124.9,30.3v21.2H120V30.3H124.9z">
   </path>
   <path class="st0" d="M131.2,51.5l-4.7-21.2h5.4l1.3,8.8c0.3,2.2,0.7,4.6,0.9,7h0.1c0.2-2.4,0.5-4.8,0.8-7.1l1.2-8.7h5.4l-4.8,21.2
			H131.2z">
   </path>
   <path class="st0" d="M152.6,42.5h-4.6v4.8h5.2v4.2h-10V30.3h9.7v4.2h-4.8v4h4.6L152.6,42.5z">
   </path>
   <path class="st0" d="M158.8,31.5h-4v-1.2h9.3v1.2h-4v20h-1.4L158.8,31.5z">
   </path>
   <path class="st0" d="M166.5,30.6c0.9-0.3,1.9-0.4,2.9-0.4c1.6-0.1,3.1,0.4,4.2,1.5c1,1.1,1.4,2.5,1.4,4c0.2,2.4-1.2,4.7-3.5,5.6
			v0.1c1.6,0.4,2.5,2,3,5.1c0.2,1.7,0.6,3.5,1.1,5.1h-1.3c-0.5-1.7-0.9-3.5-1.2-5.3c-0.5-3.1-1.6-4.4-4.1-4.4h-1.2v9.7h-1.4V30.6z
			 M167.9,40.7h1.2c2.6,0,4.5-1.8,4.5-4.8s-1.2-4.5-4.2-4.5c-0.5,0-1,0-1.4,0.1L167.9,40.7z">
   </path>
   <path class="st0" d="M180.8,44.2l-1.7,7.3h-1.3l5-21.2h1.3l5.1,21.2h-1.4l-1.7-7.3H180.8z M185.8,43l-1.4-6
			c-0.4-1.6-0.7-3.1-0.9-4.8h-0.1c-0.2,1.7-0.6,3.3-0.9,4.9l-1.3,6H185.8z">
   </path>
   <path class="st0" d="M193.4,30.3v21.2h-1.4V30.3H193.4z">
   </path>
   <path class="st0" d="M197.4,30.3h1.4v20h6.3v1.2h-7.6V30.3z">
   </path>
   <path class="st0" d="M77.3,63c0-0.9,0-1.2-0.1-1.8h0.6v1l0,0c0.3-0.7,0.9-1.1,1.7-1.1c0.7,0,1.4,0.5,1.6,1.2l0,0
			c0.2-0.4,0.4-0.7,0.7-0.9c0.3-0.2,0.6-0.3,1-0.3c0.8,0,1.8,0.5,1.8,2.6v5.2H84v-5c0-1.1-0.2-2.2-1.3-2.2c-0.6,0-1.1,0.5-1.3,1.4
			c0,0.3,0,0.5,0,0.8v5h-0.7v-5.2c0-1-0.2-2-1.3-2c-0.6,0-1.2,0.6-1.4,1.6c0,0.2,0,0.5,0,0.7v4.9h-0.7L77.3,63z">
   </path>
   <path class="st0" d="M89.8,67.1c0,0.6,0,1.1,0.1,1.7h-0.6L89.2,68l0,0c-0.2,0.6-0.8,1-1.4,1c-0.9,0-1.7-0.8-1.7-2.1
			c0-1.8,1.4-2.7,3.1-2.7v-0.3c0-1.3-0.2-2.2-1.3-2.2c-0.4,0-0.8,0.1-1.1,0.4l-0.2-0.5c0.4-0.3,0.9-0.5,1.4-0.5c1,0,1.9,0.6,1.9,2.4
			L89.8,67.1z M89.2,64.7c-1.1-0.2-2.2,0.6-2.4,1.7c0,0.1,0,0.3,0,0.4c0,1.1,0.6,1.5,1.1,1.5s1.2-0.5,1.3-1.4c0-0.2,0-0.3,0-0.5
			L89.2,64.7z">
   </path>
   <path class="st0" d="M91.7,63c0-0.6,0-1.3-0.1-1.8h0.7v1.2l0,0c0.2-0.8,0.9-1.4,1.7-1.4h0.1v0.8H94c-1,0-1.6,1-1.6,1.9
			c0,0.2,0,0.4,0,0.6v4.4h-0.7L91.7,63z">
   </path>
   <path class="st0" d="M95.9,64.9L95.9,64.9c0.1-0.2,0.3-0.5,0.4-0.7l1.8-2.9h0.8l-2.1,3.2l2.3,4.4h-0.8l-2-3.9l-0.5,0.8v3.1h-0.7
			v-11h0.7L95.9,64.9z">
   </path>
   <path class="st0" d="M100.6,64.7c0,3.1,1.1,3.6,1.9,3.6c0.4,0,0.8-0.1,1.1-0.3l0.2,0.5c-0.4,0.3-0.9,0.4-1.4,0.4
			c-1.7,0-2.5-1.6-2.5-3.9s0.9-4,2.3-4s1.9,1.9,1.9,3.2v0.4L100.6,64.7z M103.3,64.2c0-1.9-0.8-2.5-1.3-2.5c-0.9,0-1.4,1.3-1.4,2.5
			H103.3z">
   </path>
   <path class="st0" d="M106.4,59.5v1.7h1.4v0.6h-1.4V67c0,1.1,0.3,1.3,0.8,1.3c0.2,0,0.3,0,0.5,0l0.1,0.5c-0.2,0.1-0.4,0.1-0.7,0.1
			c-0.4,0-0.8-0.1-1-0.4c-0.3-0.5-0.4-1.1-0.3-1.8v-5h-1v-0.6h1v-1.3L106.4,59.5z">
   </path>
   <path class="st0" d="M109.3,59.8c-0.3,0-0.5-0.2-0.5-0.6c0-0.3,0.2-0.5,0.4-0.6c0,0,0,0,0.1,0c0.3,0,0.5,0.2,0.5,0.6
			S109.6,59.8,109.3,59.8L109.3,59.8z M108.9,68.8v-7.6h0.7v7.6L108.9,68.8z">
   </path>
   <path class="st0" d="M111.5,63c0-0.9,0-1.2-0.1-1.8h0.6v0.9l0,0c0.3-0.7,1-1.1,1.7-1.1c0.8,0,1.7,0.5,1.7,2.5v5.3h-0.7v-5
			c0-1.1-0.2-2.2-1.2-2.2c-0.6,0-1.2,0.5-1.4,1.6c0,0.2,0,0.4,0,0.7v4.9h-0.7L111.5,63z">
   </path>
   <path class="st0" d="M121.4,67.8c0,2.2-0.2,2.9-0.7,3.4c-0.4,0.5-1.1,0.8-1.8,0.8c-0.5,0-1.1-0.1-1.5-0.4l0.2-0.6
			c0.4,0.2,0.9,0.3,1.4,0.3c0.9,0,1.6-0.6,1.6-2.6v-1l0,0c-0.2,0.6-0.8,1-1.5,1c-1.1,0-2.2-1.3-2.2-3.8c0-3,1.3-3.9,2.3-3.9
			c0.6,0,1.2,0.4,1.4,1l0,0v-0.9h0.7c0,0.4-0.1,1-0.1,2.3L121.4,67.8z M120.7,63.8c0-0.2,0-0.4,0-0.6c-0.2-0.6-0.5-1.5-1.4-1.5
			s-1.6,1.3-1.6,3.3c0,2.3,0.8,3.3,1.6,3.3c0.4,0,1-0.2,1.3-1.4c0-0.2,0.1-0.5,0.1-0.8L120.7,63.8z">
   </path>
   <path class="st0" d="M129.1,67.1c0,0.6,0,1.1,0.1,1.7h-0.6l-0.1-0.8l0,0c-0.2,0.6-0.8,1-1.4,1c-0.9,0-1.7-0.8-1.7-2.1
			c0-1.8,1.4-2.7,3.1-2.7v-0.3c0-1.3-0.2-2.2-1.3-2.2c-0.4,0-0.8,0.1-1.1,0.3l-0.2-0.5c0.4-0.3,0.9-0.4,1.4-0.4c1,0,1.9,0.6,1.9,2.4
			L129.1,67.1z M128.4,64.7c-1.1-0.2-2.2,0.6-2.4,1.7c0,0.1,0,0.3,0,0.4c0,1.1,0.6,1.5,1.1,1.5s1.2-0.5,1.3-1.4c0-0.2,0-0.3,0-0.5
			L128.4,64.7z">
   </path>
   <path class="st0" d="M134.9,66.9c0,0.9,0,1.4,0.1,1.9h-0.6l-0.1-0.8l0,0c-0.3,0.6-0.9,0.9-1.6,0.9c-1.2,0-1.8-1-1.8-2.8v-4.9h0.7
			V66c0,1.3,0.2,2.4,1.2,2.4c0.7-0.1,1.3-0.6,1.3-1.4c0-0.2,0-0.5,0-0.7v-5.1h0.7L134.9,66.9z">
   </path>
   <path class="st0" d="M137.6,59.5v1.7h1.4v0.6h-1.4V67c0,1.1,0.4,1.3,0.8,1.3c0.2,0,0.3,0,0.5,0l0.1,0.5c-0.2,0.1-0.4,0.1-0.7,0.1
			c-0.4,0-0.8-0.1-1-0.4c-0.3-0.5-0.4-1.1-0.3-1.8v-5h-1v-0.6h1v-1.3L137.6,59.5z">
   </path>
   <path class="st0" d="M142,69c-1.1,0-2.2-1.1-2.2-3.9s1.1-3.9,2.3-3.9s2.2,1.1,2.2,3.9S143.2,69,142,69L142,69z M142.1,68.4
			c1.3,0,1.5-2.1,1.5-3.3s-0.2-3.3-1.6-3.3s-1.5,2.1-1.5,3.3S140.7,68.4,142.1,68.4L142.1,68.4z">
   </path>
   <path class="st0" d="M145.8,63c0-0.9,0-1.2-0.1-1.8h0.6v1l0,0c0.3-0.7,0.9-1.1,1.6-1.1c0.7,0,1.4,0.5,1.6,1.2l0,0
			c0.2-0.4,0.4-0.7,0.7-0.9c0.3-0.2,0.6-0.3,1-0.3c0.8,0,1.8,0.5,1.8,2.6v5.2h-0.7v-5c0-1.1-0.2-2.2-1.3-2.2c-0.6,0-1.1,0.5-1.3,1.4
			c0,0.3,0,0.5,0,0.8v5h-0.7v-5.2c0-1-0.2-2-1.3-2c-0.6,0-1.2,0.6-1.4,1.6c0,0.2,0,0.5,0,0.7v4.9h-0.7L145.8,63z">
   </path>
   <path class="st0" d="M158.4,67.1c0,0.6,0,1.1,0.1,1.7h-0.6l-0.1-0.8l0,0c-0.2,0.6-0.8,1-1.4,1c-0.9,0-1.7-0.8-1.7-2.1
			c0-1.8,1.4-2.7,3.1-2.7v-0.3c0-1.3-0.2-2.2-1.3-2.2c-0.4,0-0.8,0.1-1.1,0.4l-0.2-0.5c0.4-0.3,0.9-0.4,1.4-0.4c1,0,1.9,0.6,1.9,2.4
			L158.4,67.1z M157.8,64.7c-1.1-0.2-2.2,0.6-2.4,1.7c0,0.1,0,0.3,0,0.4c0,1.1,0.6,1.5,1.1,1.5s1.2-0.5,1.3-1.4c0-0.2,0-0.3,0-0.5
			L157.8,64.7z">
   </path>
   <path class="st0" d="M161.2,59.5v1.7h1.4v0.6h-1.4V67c0,1.1,0.4,1.3,0.8,1.3c0.2,0,0.3,0,0.5,0l0.1,0.5c-0.2,0.1-0.4,0.1-0.7,0.1
			c-0.4,0-0.8-0.1-1-0.4c-0.3-0.5-0.4-1.1-0.3-1.8v-5h-1v-0.6h1v-1.3L161.2,59.5z">
   </path>
   <path class="st0" d="M164.1,59.8c-0.3,0-0.5-0.2-0.5-0.6c0-0.3,0.2-0.5,0.4-0.6c0,0,0,0,0.1,0c0.4,0,0.5,0.2,0.5,0.6
			S164.5,59.8,164.1,59.8L164.1,59.8z M163.8,68.8v-7.6h0.7v7.6L163.8,68.8z">
   </path>
   <path class="st0" d="M168.2,69c-1.1,0-2.2-1.2-2.2-4s1.1-3.9,2.3-3.9s2.2,1.1,2.2,3.9S169.4,69,168.2,69L168.2,69z M168.2,68.4
			c1.3,0,1.5-2.1,1.5-3.3s-0.2-3.3-1.6-3.3s-1.5,2.1-1.5,3.3S166.9,68.4,168.2,68.4L168.2,68.4z">
   </path>
   <path class="st0" d="M172,63c0-0.9,0-1.2-0.1-1.8h0.6v0.9l0,0c0.3-0.7,1-1.1,1.7-1.1c0.8,0,1.7,0.5,1.7,2.5v5.3h-0.7v-5
			c0-1.1-0.2-2.2-1.2-2.2c-0.6,0-1.2,0.5-1.4,1.6c0,0.2,0,0.4,0,0.7v4.9H172V63z">
   </path>
   <rect x="24.9" y="68" class="st3" width="20.3" height="2.1">
   </rect>
  </g>
 </g>
</svg>