<svg width="128" height="128" viewBox="0 0 128 128" fill="none" xmlns="http://www.w3.org/2000/svg">
<g clip-path="url(#clip0_240_6522)">
<path d="M96.3318 63.7426L29.4929 108.13C26.3963 110.194 24.847 113.548 24.847 116.903V128L105.88 74.8392C109.493 72.2587 111.816 68.1289 111.816 63.7426C111.816 59.3553 109.751 55.2255 105.88 52.645L24.847 0V10.3222C24.847 13.9359 26.6538 17.29 29.4929 19.0968L96.3318 63.7426Z" fill="#004CFF"/>
<path d="M56.0733 67.3554C59.6859 69.6773 64.3318 69.6773 67.9445 67.3554L73.6215 63.4842L31.2987 34.8394C28.7182 33.0326 24.847 34.8394 24.847 38.1935V46.7096L46.7825 61.4198L56.0733 67.3554Z" fill="#004CFF"/>
</g>
<defs>
<clipPath id="clip0_240_6522">
<rect width="128" height="128" fill="white"/>
</clipPath>
</defs>
</svg>
