<?xml version="1.0" encoding="UTF-8" standalone="no"?>
<!DOCTYPE svg PUBLIC "-//W3C//DTD SVG 1.1//EN" "http://www.w3.org/Graphics/SVG/1.1/DTD/svg11.dtd">
<svg xmlns="http://www.w3.org/2000/svg" version="1.1" viewBox="0.00 0.00 400.00 400.00">
<g stroke-width="2.00" fill="none" stroke-linecap="butt">
<path stroke="#b3aade" vector-effect="non-scaling-stroke" d="
  M 200.00 317.29
  Q 215.87 317.29 359.01 317.29
  Q 359.51 317.29 359.65 317.03
  A 0.22 0.22 0.0 0 0 359.65 316.85
  L 305.57 223.19
  A 0.43 0.43 0.0 0 1 305.77 222.58
  C 312.10 219.95 320.22 213.79 311.66 207.00
  Q 308.32 204.35 304.48 203.07
  C 289.64 198.14 270.27 197.88 255.73 203.69
  C 250.80 205.66 244.16 210.08 246.97 215.81
  C 249.50 220.97 258.81 224.09 264.49 225.10
  A 3.79 3.77 80.0 0 1 267.10 226.94
  L 298.79 281.83
  A 0.58 0.57 -15.0 0 1 298.29 282.69
  L 201.39 282.69
  A 0.53 0.53 0.0 0 1 200.93 281.90
  Q 221.06 245.91 251.35 192.14
  Q 261.09 174.85 263.29 167.72
  C 275.68 127.53 247.85 86.70 206.24 82.66
  Q 204.31 82.47 199.99 82.47
  Q 195.68 82.47 193.74 82.66
  C 152.14 86.70 124.31 127.54 136.71 167.73
  Q 138.91 174.86 148.65 192.14
  Q 178.94 245.91 199.08 281.90
  A 0.53 0.53 0.0 0 1 198.62 282.69
  L 101.72 282.70
  A 0.58 0.57 15.0 0 1 101.22 281.84
  L 132.90 226.95
  A 3.79 3.77 -80.0 0 1 135.51 225.11
  C 141.19 224.10 150.50 220.97 153.03 215.81
  C 155.84 210.08 149.20 205.66 144.27 203.69
  C 129.73 197.89 110.36 198.15 95.52 203.08
  Q 91.68 204.36 88.34 207.01
  C 79.78 213.80 87.90 219.96 94.23 222.59
  A 0.43 0.43 0.0 0 1 94.43 223.20
  L 40.36 316.86
  A 0.22 0.22 0.0 0 0 40.36 317.04
  Q 40.50 317.30 40.99 317.31
  Q 184.14 317.29 200.00 317.29"
/>
<path stroke="#b3aade" vector-effect="non-scaling-stroke" d="
  M 238.24 146.81
  A 38.21 38.21 0.0 0 0 200.03 108.60
  A 38.21 38.21 0.0 0 0 161.82 146.81
  A 38.21 38.21 0.0 0 0 200.03 185.02
  A 38.21 38.21 0.0 0 0 238.24 146.81"
/>
<path stroke="#b3aade" vector-effect="non-scaling-stroke" d="
  M 129.16 211.17
  A 10.85 3.48 0.0 0 0 118.31 207.69
  A 10.85 3.48 0.0 0 0 107.46 211.17
  A 10.85 3.48 0.0 0 0 118.31 214.65
  A 10.85 3.48 0.0 0 0 129.16 211.17"
/>
<path stroke="#b3aade" vector-effect="non-scaling-stroke" d="
  M 269.6600 211.1800
  A 10.86 3.49 -180.0 0 0 280.5200 214.6700
  A 10.86 3.49 -180.0 0 0 291.3800 211.1800
  A 10.86 3.49 -180.0 0 0 280.5200 207.6900
  A 10.86 3.49 -180.0 0 0 269.6600 211.1800"
/>
<path stroke="#b3aade" vector-effect="non-scaling-stroke" d="
  M 215.09 147.10
  A 15.05 15.05 0.0 0 0 200.04 132.05
  A 15.05 15.05 0.0 0 0 184.99 147.10
  A 15.05 15.05 0.0 0 0 200.04 162.15
  A 15.05 15.05 0.0 0 0 215.09 147.10"
/>
</g>
<path fill="#6655bd" d="
  M 400.00 0.00
  L 400.00 400.00
  L 0.00 400.00
  L 0.00 0.00
  L 400.00 0.00
  Z
  M 200.00 317.29
  Q 215.87 317.29 359.01 317.29
  Q 359.51 317.29 359.65 317.03
  A 0.22 0.22 0.0 0 0 359.65 316.85
  L 305.57 223.19
  A 0.43 0.43 0.0 0 1 305.77 222.58
  C 312.10 219.95 320.22 213.79 311.66 207.00
  Q 308.32 204.35 304.48 203.07
  C 289.64 198.14 270.27 197.88 255.73 203.69
  C 250.80 205.66 244.16 210.08 246.97 215.81
  C 249.50 220.97 258.81 224.09 264.49 225.10
  A 3.79 3.77 80.0 0 1 267.10 226.94
  L 298.79 281.83
  A 0.58 0.57 -15.0 0 1 298.29 282.69
  L 201.39 282.69
  A 0.53 0.53 0.0 0 1 200.93 281.90
  Q 221.06 245.91 251.35 192.14
  Q 261.09 174.85 263.29 167.72
  C 275.68 127.53 247.85 86.70 206.24 82.66
  Q 204.31 82.47 199.99 82.47
  Q 195.68 82.47 193.74 82.66
  C 152.14 86.70 124.31 127.54 136.71 167.73
  Q 138.91 174.86 148.65 192.14
  Q 178.94 245.91 199.08 281.90
  A 0.53 0.53 0.0 0 1 198.62 282.69
  L 101.72 282.70
  A 0.58 0.57 15.0 0 1 101.22 281.84
  L 132.90 226.95
  A 3.79 3.77 -80.0 0 1 135.51 225.11
  C 141.19 224.10 150.50 220.97 153.03 215.81
  C 155.84 210.08 149.20 205.66 144.27 203.69
  C 129.73 197.89 110.36 198.15 95.52 203.08
  Q 91.68 204.36 88.34 207.01
  C 79.78 213.80 87.90 219.96 94.23 222.59
  A 0.43 0.43 0.0 0 1 94.43 223.20
  L 40.36 316.86
  A 0.22 0.22 0.0 0 0 40.36 317.04
  Q 40.50 317.30 40.99 317.31
  Q 184.14 317.29 200.00 317.29
  Z"
/>
<path fill="#ffffff" d="
  M 199.99 82.47
  Q 204.31 82.47 206.24 82.66
  C 247.85 86.70 275.68 127.53 263.29 167.72
  Q 261.09 174.85 251.35 192.14
  Q 221.06 245.91 200.93 281.90
  A 0.53 0.53 0.0 0 0 201.39 282.69
  L 298.29 282.69
  A 0.58 0.57 -15.0 0 0 298.79 281.83
  L 267.10 226.94
  A 3.79 3.77 80.0 0 0 264.49 225.10
  C 258.81 224.09 249.50 220.97 246.97 215.81
  C 244.16 210.08 250.80 205.66 255.73 203.69
  C 270.27 197.88 289.64 198.14 304.48 203.07
  Q 308.32 204.35 311.66 207.00
  C 320.22 213.79 312.10 219.95 305.77 222.58
  A 0.43 0.43 0.0 0 0 305.57 223.19
  L 359.65 316.85
  A 0.22 0.22 0.0 0 1 359.65 317.03
  Q 359.51 317.29 359.01 317.29
  Q 215.87 317.29 200.00 317.29
  Q 184.14 317.29 40.99 317.31
  Q 40.50 317.30 40.36 317.04
  A 0.22 0.22 0.0 0 1 40.36 316.86
  L 94.43 223.20
  A 0.43 0.43 0.0 0 0 94.23 222.59
  C 87.90 219.96 79.78 213.80 88.34 207.01
  Q 91.68 204.36 95.52 203.08
  C 110.36 198.15 129.73 197.89 144.27 203.69
  C 149.20 205.66 155.84 210.08 153.03 215.81
  C 150.50 220.97 141.19 224.10 135.51 225.11
  A 3.79 3.77 -80.0 0 0 132.90 226.95
  L 101.22 281.84
  A 0.58 0.57 15.0 0 0 101.72 282.70
  L 198.62 282.69
  A 0.53 0.53 0.0 0 0 199.08 281.90
  Q 178.94 245.91 148.65 192.14
  Q 138.91 174.86 136.71 167.73
  C 124.31 127.54 152.14 86.70 193.74 82.66
  Q 195.68 82.47 199.99 82.47
  Z
  M 238.24 146.81
  A 38.21 38.21 0.0 0 0 200.03 108.60
  A 38.21 38.21 0.0 0 0 161.82 146.81
  A 38.21 38.21 0.0 0 0 200.03 185.02
  A 38.21 38.21 0.0 0 0 238.24 146.81
  Z
  M 129.16 211.17
  A 10.85 3.48 0.0 0 0 118.31 207.69
  A 10.85 3.48 0.0 0 0 107.46 211.17
  A 10.85 3.48 0.0 0 0 118.31 214.65
  A 10.85 3.48 0.0 0 0 129.16 211.17
  Z
  M 269.6600 211.1800
  A 10.86 3.49 -180.0 0 0 280.5200 214.6700
  A 10.86 3.49 -180.0 0 0 291.3800 211.1800
  A 10.86 3.49 -180.0 0 0 280.5200 207.6900
  A 10.86 3.49 -180.0 0 0 269.6600 211.1800
  Z"
/>
<path fill="#6655bd" d="
  M 238.24 146.81
  A 38.21 38.21 0.0 0 1 200.03 185.02
  A 38.21 38.21 0.0 0 1 161.82 146.81
  A 38.21 38.21 0.0 0 1 200.03 108.60
  A 38.21 38.21 0.0 0 1 238.24 146.81
  Z
  M 215.09 147.10
  A 15.05 15.05 0.0 0 0 200.04 132.05
  A 15.05 15.05 0.0 0 0 184.99 147.10
  A 15.05 15.05 0.0 0 0 200.04 162.15
  A 15.05 15.05 0.0 0 0 215.09 147.10
  Z"
/>
<circle fill="#ffffff" cx="200.04" cy="147.10" r="15.05"/>
<ellipse fill="#6655bd" cx="118.31" cy="211.17" rx="10.85" ry="3.48"/>
<ellipse fill="#6655bd" cx="0.00" cy="0.00" transform="translate(280.52,211.18) rotate(-180.0)" rx="10.86" ry="3.49"/>
</svg>
