<svg xmlns="http://www.w3.org/2000/svg" class="h-6 max-w-48 object-contain fill-foreground" style="fill: rgb(24, 24, 27) !important;"><path transform="translate(28.1071 4.08)" d="M55.275414 4.479455C56.032612 4.479455 56.708679 4.5604091 57.303623 4.7762861C57.898563 4.9921637 58.412376 5.2620101 58.818016 5.6128111C59.22366 5.9636116 59.548172 6.3683815 59.764515 6.7731514C59.980854 7.2049065 60.089027 7.6636457 60.089027 8.1493692C60.089027 8.6890631 60.007896 9.1478024 59.8186 9.5525723C59.629299 9.9573421 59.304787 10.308143 58.845058 10.604975C58.358288 10.874821 57.736305 11.090698 56.925022 11.252606C56.113739 11.414515 55.086113 11.495468 53.842148 11.495468L53.111992 11.495468C53.139034 11.657376 53.220165 11.819284 53.328335 11.981193C53.463551 12.143101 53.625805 12.305009 53.842148 12.439932C54.058491 12.574855 54.355961 12.682794 54.680473 12.763748C55.004986 12.844702 55.410629 12.898671 55.897396 12.898671C56.248955 12.898671 56.60051 12.871687 56.925022 12.817718C57.249535 12.763748 57.519962 12.709779 57.763348 12.628824C58.006733 12.547871 58.196033 12.493901 58.358288 12.412948C58.520546 12.358978 58.601673 12.305009 58.628716 12.278024L59.8186 14.62569C59.683384 14.706644 59.52113 14.787598 59.250702 14.922522C59.007317 15.057445 58.655762 15.165383 58.277161 15.300306C57.871521 15.43523 57.411793 15.543169 56.89798 15.624123C56.384167 15.705076 55.789227 15.759046 55.167244 15.759046C54.383003 15.759046 53.625805 15.624123 52.949738 15.381261C52.273666 15.111414 51.678726 14.760613 51.164913 14.274889C50.6511 13.789165 50.245461 13.195502 49.94799 12.493901C49.65052 11.7923 49.515305 10.982759 49.515305 10.092266C49.515305 9.2557411 49.65052 8.5001707 49.94799 7.7985692C50.245461 7.0969677 50.6511 6.503305 51.164913 6.017581C51.705769 5.531857 52.300709 5.1540713 53.003822 4.8842249C53.706932 4.614378 54.46413 4.479455 55.275414 4.479455ZM46.216087 4.479455C47.054413 4.479455 47.730484 4.5604091 48.190208 4.7493014C48.676979 4.9381943 49.001492 5.1270871 49.217834 5.3429642C49.35305 5.4778876 49.434177 5.6128111 49.515305 5.7747188C49.596432 5.9096422 49.623478 6.0985351 49.623478 6.3144121C49.623478 6.5302896 49.596432 6.7191825 49.542347 6.9350595C49.46122 7.1239524 49.380093 7.2858605 49.298962 7.4207835C49.190792 7.555707 49.109665 7.6636457 49.028534 7.7715845C48.947407 7.8795228 48.893322 7.9334922 48.839237 7.9874616C48.595852 7.8795228 48.298382 7.7715845 47.973866 7.6636457C47.649353 7.5826917 47.270756 7.5287223 46.865112 7.5287223C46.324257 7.5287223 45.891575 7.6906304 45.512974 7.9874616C45.134377 8.3112774 44.945076 8.8239861 44.945076 9.525588L44.945076 15.4892L41.564732 15.4892L41.564732 8.7700167C41.564732 8.0684156 41.672901 7.4747529 41.916286 6.9350595C42.132629 6.3953662 42.457142 5.9366269 42.862785 5.5858264C43.268425 5.2080407 43.755196 4.9381943 44.323093 4.7493014C44.890991 4.5604091 45.54002 4.479455 46.216087 4.479455ZM55.248371 7.069983C54.869774 7.069983 54.518215 7.1239524 54.247787 7.2588758C53.97736 7.3937988 53.733978 7.555707 53.544678 7.7715845C53.355377 7.9874616 53.220165 8.2303238 53.111992 8.5001707C53.030865 8.7700167 52.97678 9.0668488 52.949738 9.3366947C53.896233 9.3366947 54.626389 9.3097105 55.140202 9.228756C55.654015 9.1747875 56.059654 9.0668488 56.30304 8.95891C56.546425 8.8509712 56.708679 8.7160473 56.762768 8.5811243C56.816853 8.4462013 56.843895 8.3112774 56.843895 8.1493692C56.843895 7.8525381 56.708679 7.6096764 56.438251 7.3937988C56.167824 7.1779218 55.789227 7.069983 55.248371 7.069983ZM25.906971 0C26.285568 0 26.637125 0.053969335 26.934595 0.161908C27.232065 0.26984668 27.421366 0.323816 27.502493 0.35080069L27.502493 9.660511C27.502493 10.551005 27.421366 11.333561 27.232065 11.981193C27.042767 12.628824 26.772339 13.168518 26.447824 13.627257C25.934013 14.328858 25.257944 14.868552 24.419619 15.219353C23.581291 15.570153 22.661839 15.759046 21.661255 15.759046C20.849974 15.759046 20.065733 15.624123 19.362621 15.354276C18.659508 15.08443 18.037525 14.706644 17.523712 14.22092C17.009899 13.735196 16.604258 13.141533 16.306787 12.439932C16.009317 11.765315 15.874104 10.982759 15.874104 10.146235C15.874104 9.2827253 16.009317 8.5271549 16.279745 7.8255539C16.550173 7.1239524 16.928772 6.5302896 17.388498 6.0445657C17.848227 5.5588417 18.416124 5.181056 19.038107 4.9112096C19.687134 4.6413627 20.363203 4.5064397 21.066315 4.5064397C21.850555 4.5064397 22.499582 4.614378 23.013393 4.8842249C23.527206 5.1270871 23.905806 5.3969336 24.149191 5.6397958L24.149191 1.4841567C24.149191 0.94446337 24.311447 0.53969336 24.63596 0.323816C24.960474 0.10793867 25.366116 0 25.906971 0ZM7.9776158 0.72858602C8.2210007 0.72858602 8.4373426 0.75557071 8.680728 0.80954003C8.9241133 0.86350936 9.1134119 0.91747868 9.3027115 0.9984327C9.4649677 1.0793867 9.6272249 1.1333561 9.7353954 1.2143101C9.8435669 1.295264 9.924695 1.3222487 9.9517384 1.3492334C10.16808 1.700034 10.438508 2.2397275 10.790064 2.9952981C11.14162 3.7508688 11.520219 4.5873938 11.925859 5.531857C12.331501 6.4763203 12.764186 7.4747529 13.19687 8.5001707C13.629554 9.525588 14.035195 10.52402 14.413795 11.441499C14.76535 12.385962 15.089864 13.195502 15.360291 13.951074C15.657762 14.679659 15.847061 15.192368 15.955232 15.4892L12.088117 15.4892C11.925859 15.08443 11.763603 14.62569 11.574304 14.139966C11.385005 13.654242 11.168662 13.060579 10.898234 12.385962L4.7865696 12.385962C4.5702276 12.979625 4.3538852 13.519319 4.1916289 14.005043C4.0023293 14.490767 3.81303 14.976491 3.6237307 15.4892L0 15.4892C0.29747042 14.706644 0.64902639 13.81615 1.0817107 12.763748C1.4873521 11.711346 1.9470792 10.604975 2.4338489 9.4446335C2.9206188 8.2842932 3.4344313 7.0969677 3.9482439 5.8826575C4.4620566 4.6413627 4.9758692 3.4810221 5.4896817 2.347666C5.7601094 1.7270187 6.0846224 1.3222487 6.4632211 1.0793867C6.8418198 0.83652472 7.3556323 0.72858602 7.9776158 0.72858602ZM21.742384 7.5287223C21.039272 7.5287223 20.471375 7.7715845 20.011646 8.257308C19.55192 8.7430325 19.335577 9.3636799 19.335577 10.11925C19.335577 10.874821 19.55192 11.495468 20.011646 11.954207C20.471375 12.412948 21.039272 12.655809 21.742384 12.655809C22.445496 12.655809 23.013393 12.439932 23.473122 11.981193C23.932848 11.549438 24.176233 10.92879 24.176233 10.092266C24.176233 9.7144804 24.095104 9.3906641 23.986933 9.0668488C23.851719 8.7700167 23.689463 8.5001707 23.473122 8.257308C23.256779 8.0414314 23.013393 7.8525381 22.715923 7.7176151C22.418453 7.5826917 22.093941 7.5287223 21.742384 7.5287223ZM7.8964877 4.5334244C7.8153596 4.7493014 7.7071886 5.0191483 7.5719748 5.3699489C7.4367609 5.7207494 7.2745042 6.1255198 7.1122475 6.5572743C6.9499907 6.9890289 6.7877345 7.4477682 6.5984349 7.9065075C6.4091358 8.3652468 6.2468791 8.7970018 6.0846224 9.2017717L6.0846224 9.228756L9.708353 9.228756C9.5731392 8.8509712 9.4108829 8.4192162 9.2215834 7.9604769C9.0593271 7.4747529 8.8700275 7.0160136 8.7077703 6.584259C8.5455141 6.1525044 8.3832579 5.7477341 8.248044 5.3699489C8.0857868 4.9921637 7.9776158 4.7223167 7.8964877 4.5334244ZM38.562984 0C38.022129 0 37.616489 0.10793867 37.291973 0.323816C36.967461 0.53969336 36.805206 0.94446337 36.805206 1.4841567L36.805206 5.6397958C36.561821 5.3969336 36.18322 5.1270871 35.669407 4.8842249C35.155598 4.614378 34.506569 4.5064397 33.722328 4.5064397C33.019218 4.5064397 32.343147 4.6413627 31.694122 4.9112096C31.072138 5.181056 30.50424 5.5588417 30.044514 6.0445657C29.584785 6.5302896 29.206188 7.1239524 28.93576 7.8255539C28.665333 8.5271549 28.530119 9.2827253 28.530119 10.146235C28.530119 10.982759 28.665333 11.765315 28.962803 12.439932C29.260273 13.141533 29.665915 13.735196 30.179728 14.22092C30.693541 14.706644 31.315523 15.08443 32.018635 15.354276C32.721748 15.624123 33.505989 15.759046 34.317272 15.759046C35.317852 15.759046 36.237309 15.570153 37.075634 15.219353C37.91396 14.868552 38.590027 14.328858 39.10384 13.627257C39.428352 13.168518 39.69878 12.628824 39.888081 11.981193C40.077381 11.333561 40.158508 10.551005 40.158508 9.660511L40.158508 0.35080069C40.077381 0.323816 39.888081 0.26984668 39.590611 0.161908C39.266098 0.053969335 38.941582 0 38.562984 0ZM36.129135 11.981193C35.669407 12.439932 35.101509 12.655809 34.398399 12.655809C33.695286 12.655809 33.127388 12.412948 32.66766 11.954207C32.207935 11.495468 31.991592 10.874821 31.991592 10.11925C31.991592 9.3636799 32.207935 8.7430325 32.66766 8.257308C33.127388 7.7715845 33.695286 7.5287223 34.398399 7.5287223C34.749954 7.5287223 35.074467 7.5826917 35.371937 7.7176151C35.669407 7.8525381 35.912792 8.0414314 36.129135 8.257308C36.345478 8.5001707 36.507736 8.7700167 36.642948 9.0668488C36.751118 9.3906641 36.832249 9.7144804 36.832249 10.092266C36.805206 10.92879 36.588863 11.549438 36.129135 11.981193ZM69.986679 9.6335268C69.635124 9.3906641 69.256523 9.2017717 68.796799 9.0668488C68.364113 8.9319248 67.904388 8.8239861 67.417618 8.7700167L65.497581 8.5001707C65.037849 8.4192162 64.713341 8.3382626 64.496994 8.257308C64.280655 8.1493692 64.172485 7.9874616 64.172485 7.7445998C64.172485 7.5017376 64.307701 7.3128448 64.551086 7.1779218C64.794464 7.0429983 65.22715 6.9620442 65.876175 6.9620442C66.444077 6.9620442 66.930847 7.0160136 67.390572 7.0969677C67.823257 7.1779218 68.201859 7.2858605 68.526367 7.3668141C68.850883 7.4747529 69.094269 7.5826917 69.283569 7.6906304C69.47287 7.7985692 69.581039 7.8795228 69.635124 7.9334922C69.662163 7.9065075 69.716248 7.8795228 69.824425 7.7985692C69.932594 7.7176151 70.040764 7.6366611 70.148933 7.5017376C70.257103 7.3668141 70.36528 7.2318912 70.47345 7.0429983C70.554581 6.8810902 70.608665 6.6652131 70.608665 6.4493356C70.608665 6.1525044 70.527534 5.9096422 70.36528 5.6937647C70.203018 5.4778876 69.986679 5.3159795 69.716248 5.181056C69.256523 4.9381943 68.715668 4.7762861 68.066643 4.6683474C67.417618 4.5604091 66.660416 4.5064397 65.795052 4.5064397C64.92968 4.5064397 64.172485 4.5873938 63.550499 4.7762861C62.928516 4.965179 62.414703 5.2350254 61.982021 5.5588417C61.576378 5.8826575 61.278908 6.2604427 61.089607 6.7191825C60.900311 7.1509371 60.81918 7.6366611 60.81918 8.1493692C60.81918 8.7700167 60.927353 9.2827253 61.143696 9.6874962C61.360035 10.092266 61.684551 10.416081 62.063148 10.685928C62.441746 10.955775 62.901474 11.144668 63.388245 11.279592C63.902058 11.414515 64.415871 11.522453 64.956726 11.576423L66.038437 11.711346C66.552246 11.7923 66.930847 11.873254 67.174232 11.981193C67.417618 12.089131 67.552834 12.278024 67.552834 12.547871C67.552834 12.817718 67.417618 13.00661 67.120148 13.114549C66.822678 13.222487 66.389992 13.276457 65.82209 13.276457C65.308281 13.276457 64.848557 13.249472 64.388824 13.168518C63.9291 13.087564 63.523457 13.00661 63.171902 12.898671C62.820347 12.790732 62.495834 12.682794 62.252449 12.574855C61.982021 12.466916 61.819763 12.358978 61.684551 12.278024L60.494667 14.463782C60.60284 14.544736 60.81918 14.679659 61.089607 14.841567C61.387081 15.003475 61.738636 15.165383 62.225407 15.300306C62.685131 15.43523 63.225986 15.570153 63.875015 15.678092C64.52404 15.786031 65.254196 15.84 66.065475 15.84C67.661003 15.84 68.877922 15.516184 69.797379 14.841567C70.689789 14.193935 71.149521 13.276457 71.149521 12.089131C71.149521 11.522453 71.041344 11.063714 70.852051 10.658944C70.608665 10.200205 70.311195 9.8763885 69.986679 9.6335268ZM137.07979 5.0191483C136.53893 4.7762861 135.80878 4.6413627 134.91637 4.6413627C133.51013 4.6413627 132.42842 4.9921637 131.61714 5.6937647C130.8329 6.3953662 130.42726 7.3937988 130.42726 8.6890631L130.42726 15.462214L132.83406 15.462214L132.83406 9.3906641C132.83406 7.6636457 133.64536 6.8001361 135.29495 6.8001361C135.75468 6.8001361 136.13329 6.8541055 136.48485 6.9350595C136.8364 7.0429983 137.13387 7.1509371 137.37726 7.2588758C137.45837 7.2049065 137.56656 7.069983 137.70177 6.8271208C137.83698 6.6112437 137.89107 6.3683815 137.89107 6.1255198C137.91811 5.6397958 137.64767 5.2620101 137.07979 5.0191483ZM116.82475 0C116.41911 0 116.0946 0.080954 115.87825 0.26984668C115.66191 0.45873934 115.55374 0.72858602 115.55374 1.1063714L115.55374 6.233458C115.20219 5.7747188 114.71542 5.3969336 114.09343 5.1001024C113.47145 4.7762861 112.76833 4.6413627 111.95705 4.6413627C111.19985 4.6413627 110.4697 4.7762861 109.82067 5.046133C109.17165 5.3159795 108.60375 5.6937647 108.11698 6.2064738C107.63021 6.6921978 107.25161 7.2858605 106.98119 7.9604769C106.71075 8.6350937 106.57554 9.3906641 106.57554 10.200205C106.57554 11.009745 106.71075 11.738331 107.00822 12.412948C107.30569 13.087564 107.6843 13.681227 108.1981 14.16695C108.71192 14.652675 109.30686 15.03046 109.98293 15.327291C110.68604 15.597138 111.44324 15.759046 112.25452 15.759046C113.0658 15.759046 113.82301 15.624123 114.49907 15.381261C115.17514 15.138398 115.77008 14.760613 116.2839 14.247905C116.79771 13.735196 117.17631 13.114549 117.47378 12.358978C117.77125 11.603407 117.90646 10.712914 117.90646 9.6874962L117.90646 0.24286202C117.82533 0.21587734 117.69012 0.161908 117.47378 0.10793867C117.31152 0.053969335 117.06814 0 116.82475 0ZM115.31036 11.576423C115.1481 12.008177 114.93176 12.358978 114.66133 12.655809C114.3909 12.952641 114.03934 13.168518 113.63371 13.35741C113.22807 13.519319 112.79538 13.600272 112.30861 13.600272C111.82184 13.600272 111.38915 13.519319 110.98351 13.330426C110.57787 13.168518 110.25336 12.925656 109.95589 12.628824C109.65842 12.331993 109.44208 11.981193 109.30686 11.549438C109.14461 11.144668 109.06348 10.685928 109.06348 10.200205C109.06348 9.7144804 109.14461 9.2557411 109.30686 8.8509712C109.46912 8.4192162 109.68546 8.0684156 109.95589 7.7715845C110.25336 7.4747529 110.57787 7.2318912 110.98351 7.069983C111.36211 6.9080749 111.82184 6.8001361 112.30861 6.8001361C112.79538 6.8001361 113.22807 6.8810902 113.63371 7.069983C114.03934 7.2318912 114.36386 7.4747529 114.66133 7.7985692C114.93176 8.0954008 115.17514 8.4731855 115.31036 8.8779554C115.47261 9.3097105 115.55374 9.7414646 115.55374 10.227189C115.55374 10.712914 115.47261 11.171653 115.31036 11.576423ZM128.12863 5.6937647C127.75003 5.3699489 127.26326 5.1270871 126.7224 4.9381943C126.1545 4.7493014 125.50548 4.6683474 124.80237 4.6683474C123.96404 4.6683474 123.20684 4.8032708 122.53078 5.0731177C121.82766 5.3429642 121.23272 5.7207494 120.71891 6.233458C120.20509 6.7191825 119.79945 7.3128448 119.52903 8.0144463C119.23156 8.7160473 119.09634 9.4716187 119.09634 10.308143C119.09634 11.198637 119.23156 11.981193 119.52903 12.655809C119.8265 13.330426 120.23214 13.897104 120.74595 14.382828C121.25977 14.841567 121.85471 15.192368 122.53078 15.43523C123.20684 15.678092 123.937 15.786031 124.72124 15.786031C125.28914 15.786031 125.80295 15.732061 126.26267 15.651108C126.7224 15.570153 127.15509 15.462214 127.50665 15.354276C127.8582 15.246337 128.15567 15.111414 128.39905 15.003475C128.64244 14.868552 128.8047 14.787598 128.91287 14.706644L128.02046 13.033594C127.93932 13.087564 127.80412 13.141533 127.64185 13.222487C127.4796 13.303441 127.26326 13.384396 127.01987 13.465349C126.77649 13.546303 126.50606 13.627257 126.18155 13.681227C125.88408 13.735196 125.53252 13.76218 125.18096 13.76218C124.09925 13.76218 123.26093 13.546303 122.69303 13.114549C122.09809 12.682794 121.77357 12.089131 121.66541 11.387529C121.93583 11.414515 122.20626 11.414515 122.44965 11.414515C122.69303 11.414515 122.96346 11.414515 123.23389 11.414515C124.45081 11.414515 125.42435 11.333561 126.20859 11.171653C126.99283 11.009745 127.61481 10.793867 128.07454 10.497036C128.53427 10.200205 128.85878 9.8763885 129.04808 9.4716187C129.23738 9.0668488 129.31851 8.6350937 129.31851 8.1493692C129.31851 7.6636457 129.21034 7.2318912 129.02104 6.8001361C128.8047 6.3683815 128.53427 5.9905963 128.12863 5.6937647ZM126.85761 8.6890631C126.77649 8.8779554 126.58719 9.0668488 126.3438 9.2017717C126.07338 9.3636799 125.69478 9.4716187 125.23505 9.5795574C124.74828 9.6874962 124.1263 9.7144804 123.3691 9.7144804L122.47668 9.7144804C122.17921 9.7144804 121.88174 9.7144804 121.55724 9.6874962C121.58427 9.2827253 121.66541 8.8779554 121.80062 8.5001707C121.93583 8.122385 122.15218 7.7715845 122.4226 7.4747529C122.69303 7.1779218 123.01754 6.9350595 123.42319 6.7461672C123.82883 6.5572743 124.26151 6.4763203 124.80237 6.4763203C125.42435 6.4763203 125.9652 6.6112437 126.39789 6.8810902C126.83057 7.1509371 127.04691 7.555707 127.04691 8.0684156C126.96579 8.2842932 126.93874 8.5001707 126.85761 8.6890631ZM80.884911 9.6335268C80.533356 9.3906641 80.154762 9.2017717 79.69503 9.0668488C79.262344 8.9319248 78.80262 8.8239861 78.315849 8.7700167L76.395813 8.5001707C75.936089 8.4192162 75.611572 8.3382626 75.395233 8.257308C75.178886 8.1493692 75.070717 7.9874616 75.070717 7.7445998C75.070717 7.5017376 75.205933 7.3128448 75.449318 7.1779218C75.692703 7.0429983 76.125389 6.9620442 76.774414 6.9620442C77.342308 6.9620442 77.829079 7.0160136 78.288811 7.0969677C78.721489 7.1779218 79.10009 7.2858605 79.424606 7.3668141C79.749115 7.4747529 79.9925 7.5826917 80.181801 7.6906304C80.371101 7.7985692 80.479271 7.8795228 80.533356 7.9334922C80.560402 7.9065075 80.614487 7.8795228 80.722656 7.7985692C80.830826 7.7176151 80.939003 7.6366611 81.047173 7.5017376C81.155342 7.3668141 81.263512 7.2318912 81.371681 7.0429983C81.452812 6.8810902 81.506897 6.6652131 81.506897 6.4493356C81.506897 6.1525044 81.425766 5.9096422 81.263512 5.6937647C81.101257 5.4778876 80.884911 5.3159795 80.614487 5.181056C80.154762 4.9381943 79.613907 4.7762861 78.964874 4.6683474C78.315849 4.5604091 77.558655 4.5064397 76.693283 4.5064397C75.827919 4.5064397 75.070717 4.5873938 74.448738 4.7762861C73.826752 4.965179 73.312943 5.2350254 72.880257 5.5588417C72.474617 5.8826575 72.177139 6.2604427 71.987846 6.7191825C71.798546 7.1509371 71.717415 7.6366611 71.717415 8.1493692C71.717415 8.7700167 71.825584 9.2827253 72.041931 9.6874962C72.25827 10.092266 72.582787 10.416081 72.96138 10.685928C73.339981 10.955775 73.799706 11.144668 74.286476 11.279592C74.800293 11.414515 75.314102 11.522453 75.854958 11.576423L76.936668 11.711346C77.450485 11.7923 77.829079 11.873254 78.072464 11.981193C78.315849 12.089131 78.451065 12.278024 78.451065 12.547871C78.451065 12.817718 78.315849 13.00661 78.018379 13.114549C77.720909 13.222487 77.288223 13.276457 76.720329 13.276457C76.206512 13.276457 75.746788 13.249472 75.287064 13.168518C74.827332 13.087564 74.421692 13.00661 74.070137 12.898671C73.718582 12.790732 73.394066 12.682794 73.150681 12.574855C72.880257 12.466916 72.717995 12.358978 72.582787 12.278024L71.392906 14.463782C71.501076 14.544736 71.717415 14.679659 71.987846 14.841567C72.285316 15.003475 72.636871 15.165383 73.123642 15.300306C73.583366 15.43523 74.124222 15.570153 74.773247 15.678092C75.422272 15.786031 76.152428 15.84 76.963715 15.84C78.559235 15.84 79.776161 15.516184 80.695618 14.841567C81.588028 14.193935 82.047752 13.276457 82.047752 12.089131C82.047752 11.522453 81.939583 11.063714 81.750282 10.658944C81.506897 10.200205 81.236473 9.8763885 80.884911 9.6335268ZM91.810188 4.9381943L85.725571 4.9381943L85.725571 4.4254856C85.725571 3.5619762 85.968956 2.9143441 86.42868 2.5095742C86.915451 2.104804 87.564476 1.8889267 88.402802 1.8889267C88.619148 1.8889267 88.862534 1.9159114 89.132957 1.9428961C89.403381 1.9698807 89.646767 2.0238502 89.890152 2.0778193C90.133537 2.1317887 90.349884 2.2127428 90.539185 2.2667122C90.755524 2.347666 90.890739 2.4286201 90.998909 2.5095742C91.161163 2.4016354 91.296379 2.2667122 91.431595 2.0778193C91.566803 1.8889267 91.620895 1.6730494 91.620895 1.4301873C91.620895 0.97144806 91.323425 0.62064737 90.728477 0.37778535C90.133537 0.10793867 89.241127 0 87.997162 0C87.348137 0 86.726151 0.080954 86.158257 0.24286202C85.590355 0.40477002 85.103584 0.647632 84.670898 0.97144806C84.23822 1.295264 83.913704 1.7540034 83.670319 2.2936969C83.426933 2.8333902 83.291718 3.5080068 83.291718 4.2905622L83.291718 15.462214L85.671486 15.462214L85.671486 7.1509371L90.593269 7.1509371L90.593269 15.462214L92.97303 15.462214L92.97303 6.2604427C92.97303 5.8017035 92.891899 5.4778876 92.729645 5.2620101C92.621475 5.046133 92.296959 4.9381943 91.810188 4.9381943ZM103.76309 5.8286881C103.30337 5.4509029 102.76251 5.1540713 102.14053 4.9381943C101.51855 4.7223167 100.81543 4.6413627 100.08528 4.6413627C99.355125 4.6413627 98.652008 4.7493014 98.030029 4.9381943C97.408043 5.1540713 96.867188 5.4239182 96.407463 5.8286881C95.947731 6.2064738 95.596176 6.6921978 95.325752 7.2318912C95.055321 7.7715845 94.947151 8.4192162 94.947151 9.1208181L94.947151 15.462214L97.353958 15.462214L97.353958 9.7144804C97.353958 8.7700167 97.570297 8.0414314 98.030029 7.555707C98.489754 7.069983 99.165825 6.8001361 100.08528 6.8001361C100.97769 6.8001361 101.65376 7.0429983 102.11349 7.555707C102.57321 8.0414314 102.8166 8.7700167 102.8166 9.7144804L102.8166 15.462214L105.2234 15.462214L105.2234 9.1208181C105.2234 8.4192162 105.08819 7.7985692 104.8448 7.2318912C104.57438 6.6921978 104.22282 6.2064738 103.76309 5.8286881Z" style="fill: rgb(24, 24, 27) !important;"/><path d="M11.834335 0C18.569544 0 24.023155 5.4324327 24.023155 12.081081C24.023155 15.297297 22.768824 18.297297 20.45104 20.540541C18.160524 22.756756 15.079233 24 11.834335 24C8.5894365 24 5.589951 22.783783 3.3812387 20.540541C1.1997943 18.324324 0 15.324325 0 12.081081C0 9.2702703 1.6906193 5.5135136 4.499229 4.1621623C6.6261368 3.1351352 8.6167049 3.108108 10.116447 4.0270271C12.18882 5.2972975 13.225006 7.3243241 13.225006 11.918919L13.225006 13.594595L15.706399 11.135135C15.870007 10.945946 16.115419 10.837838 16.3881 10.810811C16.66078 10.783784 16.906193 10.864865 17.124338 11.054054C17.560627 11.432432 17.587894 12.054054 17.23341 12.486486C17.22805 12.491798 17.226032 12.493798 17.223259 12.496548L17.212461 12.50725C17.201229 12.518383 17.183981 12.535479 17.157501 12.561723L17.099174 12.619534C17.075947 12.642558 17.0487 12.669563 17.016741 12.701241L16.946331 12.771027C16.522259 13.191351 15.471893 14.232432 12.870522 16.81081C12.679645 17 12.406964 17.108109 12.134284 17.108109C11.861603 17.108109 11.616191 17 11.425314 16.81081L7.1442299 12.567568C6.9533534 12.378378 6.8442812 12.135135 6.8442812 11.864865C6.8442812 11.594595 6.9533534 11.324325 7.1442299 11.135135C7.3351064 10.945946 7.5805187 10.837838 7.8531995 10.837838C8.1258802 10.837838 8.3712921 10.945946 8.5621691 11.135135L11.070829 13.621622L11.070829 11.918919C11.070829 8.2162161 10.334592 6.6486487 8.9711895 5.810811C7.8531995 5.108108 6.4079924 5.5675673 5.3990746 6.0540543C3.8175275 6.8378377 2.0996401 9.3513517 2.0996401 12.108109C2.0996401 14.810811 3.08129 17.270269 4.8809814 19.108109C6.6806731 20.945946 9.134798 21.945946 11.807067 21.945946C14.533873 21.945946 17.069801 20.918919 18.951298 19.081081C20.86006 17.243244 21.896246 14.756757 21.896246 12.108109C21.896246 6.5945945 17.369749 2.108108 11.807067 2.108108C10.989025 2.108108 10.143716 2.2162163 9.3529425 2.4054055C9.3529425 2.4054055 9.1893339 2.4324324 9.1075296 2.4324324C8.5076323 2.4324324 8.044076 1.945946 8.044076 1.3783784C8.044076 0.8918919 8.3712921 0.51351351 8.8075809 0.37837839C8.8075809 0.37837839 8.9166536 0.35135135 8.9166536 0.35135135C9.8710356 0.10810811 10.852685 0 11.834335 0ZM12.161551 18.054054C13.415882 18.054054 14.861089 18.351351 14.861089 19.162163C14.861089 19.972973 13.415882 20.270269 12.161551 20.270269C10.907221 20.270269 9.4620142 19.972973 9.4620142 19.162163C9.4620142 18.351351 10.907221 18.081081 12.161551 18.054054Z" style="fill: rgb(24, 24, 27) !important;"/></svg>