<?xml version="1.0" encoding="UTF-8" standalone="no"?>
<!DOCTYPE svg PUBLIC "-//W3C//DTD SVG 1.1//EN" "http://www.w3.org/Graphics/SVG/1.1/DTD/svg11.dtd">
<svg xmlns="http://www.w3.org/2000/svg" version="1.1" viewBox="0.00 0.00 230.00 230.00">
<g stroke-width="2.00" fill="none" stroke-linecap="butt">
<path stroke="#bdc5ed" vector-effect="non-scaling-stroke" d="
  M 92.05 12.46
  A 107.18 106.98 24.9 0 0 65.43 22.15"
/>
<path stroke="#c1d5f4" vector-effect="non-scaling-stroke" d="
  M 65.43 22.15
  A 107.06 107.01 -0.7 0 0 18.98 69.72
  A 107.12 107.02 -33.3 0 0 8.11 122.24
  A 107.04 107.02 18.2 0 0 47.51 200.05"
/>
<path stroke="#bdc5ed" vector-effect="non-scaling-stroke" d="
  M 47.51 200.05
  A 107.08 107.06 -20.0 0 0 94.74 222.08"
/>
<path stroke="#b7b3e4" vector-effect="non-scaling-stroke" d="
  M 94.74 222.08
  A 107.22 107.13 45.7 0 0 132.56 222.56
  A 37.38 14.28 -10.7 0 0 137.75 221.56"
/>
<path stroke="#b2a1dc" vector-effect="non-scaling-stroke" d="
  M 137.75 221.56
  A 106.86 106.70 25.1 0 0 164.27 211.99"
/>
<path stroke="#af94d6" vector-effect="non-scaling-stroke" d="
  M 164.27 211.99
  A 107.04 107.03 1.6 0 0 207.06 171.55
  A 107.03 107.01 59.9 0 0 222.00 115.50
  A 106.98 106.97 -62.4 0 0 203.77 57.23
  A 107.04 107.03 -10.5 0 0 139.10 12.72"
/>
<path stroke="#b7b3e4" vector-effect="non-scaling-stroke" d="
  M 139.10 12.72
  A 107.08 107.00 45.3 0 0 92.05 12.46"
/>
<path stroke="#6f50c3" vector-effect="non-scaling-stroke" d="
  M 139.10 12.72
  Q 138.26 41.47 141.07 70.02"
/>
<path stroke="#b7b3e4" vector-effect="non-scaling-stroke" d="
  M 141.07 70.02
  L 112.22 70.02
  A 0.43 0.43 0.0 0 0 111.79 70.45
  L 111.79 117.43
  A 0.25 0.25 0.0 0 1 111.33 117.57
  Q 111.05 117.17 110.80 116.44
  Q 102.81 93.33 94.80 70.75
  A 0.86 0.84 83.2 0 0 94.10 70.19
  L 92.53 70.00"
/>
<path stroke="#7d81da" vector-effect="non-scaling-stroke" d="
  M 92.53 70.00
  L 92.05 12.46"
/>
<path stroke="#bdc5ed" vector-effect="non-scaling-stroke" d="
  M 92.53 70.00
  L 73.33 69.96
  A 1.69 1.69 0.0 0 0 71.73 71.10
  L 64.70 91.44"
/>
<path stroke="#87a3ea" vector-effect="non-scaling-stroke" d="
  M 64.70 91.44
  Q 62.07 56.93 65.43 22.15"
/>
<path stroke="#b2a1dc" vector-effect="non-scaling-stroke" d="
  M 164.19 149.76
  Q 152.44 155.95 138.72 155.95"
/>
<path stroke="#b7b3e4" vector-effect="non-scaling-stroke" d="
  M 138.72 155.95
  Q 122.86 155.96 107.00 156.06
  Q 104.99 156.07 104.31 153.67
  Q 101.73 144.59 99.10 135.52
  A 0.68 0.68 0.0 0 0 98.45 135.03
  L 95.98 135.03"
/>
<path stroke="#bdc5ed" vector-effect="non-scaling-stroke" d="
  M 95.98 135.03
  L 68.50 135.10
  A 0.95 0.94 -81.7 0 0 67.60 135.78
  L 61.82 155.37
  A 0.87 0.86 8.0 0 1 60.99 155.99
  L 47.77 156.01"
/>
<path stroke="#6a3dbb" vector-effect="non-scaling-stroke" d="
  M 164.27 211.99
  Q 166.24 180.87 164.19 149.76"
/>
<path stroke="#af94d6" vector-effect="non-scaling-stroke" d="
  M 164.19 149.76
  C 176.58 142.32 182.00 130.59 182.73 116.25
  C 183.85 94.59 175.73 77.73 154.03 71.67
  Q 148.46 70.11 141.07 70.02"
/>
<path stroke="#c1d5f4" vector-effect="non-scaling-stroke" d="
  M 64.70 91.44
  L 42.32 155.05
  A 0.42 0.42 0.0 0 0 42.68 155.60
  L 47.77 156.01"
/>
<path stroke="#87a3ea" vector-effect="non-scaling-stroke" d="
  M 47.77 156.01
  Q 49.01 178.01 47.51 200.05"
/>
<path stroke="#725dc9" vector-effect="non-scaling-stroke" d="
  M 138.72 155.95
  Q 137.36 188.74 137.75 221.56"
/>
<path stroke="#7d81da" vector-effect="non-scaling-stroke" d="
  M 95.98 135.03
  Q 99.32 162.65 98.55 191.60
  Q 98.13 207.36 94.74 222.08"
/>
<path stroke="#bdc5ed" vector-effect="non-scaling-stroke" d="
  M 72.64 119.64
  A 0.32 0.32 0.0 0 0 72.95 120.06
  L 94.18 119.94
  A 0.32 0.32 0.0 0 0 94.48 119.53
  L 83.69 85.05
  A 0.32 0.32 0.0 0 0 83.07 85.06
  L 72.64 119.64"
/>
<path stroke="#b2a1dc" vector-effect="non-scaling-stroke" d="
  M 130.05 85.25
  L 129.95 140.41
  A 0.41 0.41 0.0 0 0 130.36 140.82
  L 140.74 140.84
  A 23.48 23.01 -89.9 0 0 163.79 117.40
  L 163.81 108.38
  A 23.48 23.01 -89.9 0 0 140.84 84.86
  L 130.46 84.84
  A 0.41 0.41 0.0 0 0 130.05 85.25"
/>
</g>
<path fill="#f7f7f7" d="
  M 230.00 0.00
  L 230.00 230.00
  L 0.00 230.00
  L 0.00 0.00
  L 230.00 0.00
  Z
  M 92.05 12.46
  A 107.18 106.98 24.9 0 0 65.43 22.15
  A 107.06 107.01 -0.7 0 0 18.98 69.72
  A 107.12 107.02 -33.3 0 0 8.11 122.24
  A 107.04 107.02 18.2 0 0 47.51 200.05
  A 107.08 107.06 -20.0 0 0 94.74 222.08
  A 107.22 107.13 45.7 0 0 132.56 222.56
  A 37.38 14.28 -10.7 0 0 137.75 221.56
  A 106.86 106.70 25.1 0 0 164.27 211.99
  A 107.04 107.03 1.6 0 0 207.06 171.55
  A 107.03 107.01 59.9 0 0 222.00 115.50
  A 106.98 106.97 -62.4 0 0 203.77 57.23
  A 107.04 107.03 -10.5 0 0 139.10 12.72
  A 107.08 107.00 45.3 0 0 92.05 12.46
  Z"
/>
<path fill="#776fd1" d="
  M 139.10 12.72
  Q 138.26 41.47 141.07 70.02
  L 112.22 70.02
  A 0.43 0.43 0.0 0 0 111.79 70.45
  L 111.79 117.43
  A 0.25 0.25 0.0 0 1 111.33 117.57
  Q 111.05 117.17 110.80 116.44
  Q 102.81 93.33 94.80 70.75
  A 0.86 0.84 83.2 0 0 94.10 70.19
  L 92.53 70.00
  L 92.05 12.46
  A 107.08 107.00 45.3 0 1 139.10 12.72
  Z"
/>
<path fill="#8292e2" d="
  M 92.05 12.46
  L 92.53 70.00
  L 73.33 69.96
  A 1.69 1.69 0.0 0 0 71.73 71.10
  L 64.70 91.44
  Q 62.07 56.93 65.43 22.15
  A 107.18 106.98 24.9 0 1 92.05 12.46
  Z"
/>
<path fill="#6630b5" d="
  M 164.27 211.99
  Q 166.24 180.87 164.19 149.76
  C 176.58 142.32 182.00 130.59 182.73 116.25
  C 183.85 94.59 175.73 77.73 154.03 71.67
  Q 148.46 70.11 141.07 70.02
  Q 138.26 41.47 139.10 12.72
  A 107.04 107.03 -10.5 0 1 203.77 57.23
  A 106.98 106.97 -62.4 0 1 222.00 115.50
  A 107.03 107.01 59.9 0 1 207.06 171.55
  A 107.04 107.03 1.6 0 1 164.27 211.99
  Z"
/>
<path fill="#8bb3f1" d="
  M 65.43 22.15
  Q 62.07 56.93 64.70 91.44
  L 42.32 155.05
  A 0.42 0.42 0.0 0 0 42.68 155.60
  L 47.77 156.01
  Q 49.01 178.01 47.51 200.05
  A 107.04 107.02 18.2 0 1 8.11 122.24
  A 107.12 107.02 -33.3 0 1 18.98 69.72
  A 107.06 107.01 -0.7 0 1 65.43 22.15
  Z"
/>
<path fill="#f7f7f7" d="
  M 92.53 70.00
  L 94.10 70.19
  A 0.86 0.84 83.2 0 1 94.80 70.75
  Q 102.81 93.33 110.80 116.44
  Q 111.05 117.17 111.33 117.57
  A 0.25 0.25 0.0 0 0 111.79 117.43
  L 111.79 70.45
  A 0.43 0.43 0.0 0 1 112.22 70.02
  L 141.07 70.02
  Q 148.46 70.11 154.03 71.67
  C 175.73 77.73 183.85 94.59 182.73 116.25
  C 182.00 130.59 176.58 142.32 164.19 149.76
  Q 152.44 155.95 138.72 155.95
  Q 122.86 155.96 107.00 156.06
  Q 104.99 156.07 104.31 153.67
  Q 101.73 144.59 99.10 135.52
  A 0.68 0.68 0.0 0 0 98.45 135.03
  L 95.98 135.03
  L 68.50 135.10
  A 0.95 0.94 -81.7 0 0 67.60 135.78
  L 61.82 155.37
  A 0.87 0.86 8.0 0 1 60.99 155.99
  L 47.77 156.01
  L 42.68 155.60
  A 0.42 0.42 0.0 0 1 42.32 155.05
  L 64.70 91.44
  L 71.73 71.10
  A 1.69 1.69 0.0 0 1 73.33 69.96
  L 92.53 70.00
  Z
  M 72.64 119.64
  A 0.32 0.32 0.0 0 0 72.95 120.06
  L 94.18 119.94
  A 0.32 0.32 0.0 0 0 94.48 119.53
  L 83.69 85.05
  A 0.32 0.32 0.0 0 0 83.07 85.06
  L 72.64 119.64
  Z
  M 130.05 85.25
  L 129.95 140.41
  A 0.41 0.41 0.0 0 0 130.36 140.82
  L 140.74 140.84
  A 23.48 23.01 -89.9 0 0 163.79 117.40
  L 163.81 108.38
  A 23.48 23.01 -89.9 0 0 140.84 84.86
  L 130.46 84.84
  A 0.41 0.41 0.0 0 0 130.05 85.25
  Z"
/>
<path fill="#8292e2" d="
  M 72.64 119.64
  L 83.07 85.06
  A 0.32 0.32 0.0 0 1 83.69 85.05
  L 94.48 119.53
  A 0.32 0.32 0.0 0 1 94.18 119.94
  L 72.95 120.06
  A 0.32 0.32 0.0 0 1 72.64 119.64
  Z"
/>
<path fill="#6d4ac0" d="
  M 130.05 85.25
  A 0.41 0.41 0.0 0 1 130.46 84.84
  L 140.84 84.86
  A 23.48 23.01 -89.9 0 1 163.81 108.38
  L 163.79 117.40
  A 23.48 23.01 -89.9 0 1 140.74 140.84
  L 130.36 140.82
  A 0.41 0.41 0.0 0 1 129.95 140.41
  L 130.05 85.25
  Z"
/>
<path fill="#8292e2" d="
  M 95.98 135.03
  Q 99.32 162.65 98.55 191.60
  Q 98.13 207.36 94.74 222.08
  A 107.08 107.06 -20.0 0 1 47.51 200.05
  Q 49.01 178.01 47.77 156.01
  L 60.99 155.99
  A 0.87 0.86 8.0 0 0 61.82 155.37
  L 67.60 135.78
  A 0.95 0.94 -81.7 0 1 68.50 135.10
  L 95.98 135.03
  Z"
/>
<path fill="#776fd1" d="
  M 138.72 155.95
  Q 137.36 188.74 137.75 221.56
  A 37.38 14.28 -10.7 0 1 132.56 222.56
  A 107.22 107.13 45.7 0 1 94.74 222.08
  Q 98.13 207.36 98.55 191.60
  Q 99.32 162.65 95.98 135.03
  L 98.45 135.03
  A 0.68 0.68 0.0 0 1 99.10 135.52
  Q 101.73 144.59 104.31 153.67
  Q 104.99 156.07 107.00 156.06
  Q 122.86 155.96 138.72 155.95
  Z"
/>
<path fill="#6d4ac0" d="
  M 164.19 149.76
  Q 166.24 180.87 164.27 211.99
  A 106.86 106.70 25.1 0 1 137.75 221.56
  Q 137.36 188.74 138.72 155.95
  Q 152.44 155.95 164.19 149.76
  Z"
/>
</svg>
