<?xml version="1.0" encoding="UTF-8" standalone="no"?>
<!DOCTYPE svg PUBLIC "-//W3C//DTD SVG 1.1//EN" "http://www.w3.org/Graphics/SVG/1.1/DTD/svg11.dtd">
<svg xmlns="http://www.w3.org/2000/svg" version="1.1" viewBox="0.00 0.00 64.00 64.00">
<g stroke-width="2.00" fill="none" stroke-linecap="butt">
<path stroke="#e24747" stroke-opacity="0.992" vector-effect="non-scaling-stroke" d="
  M 62.6912 2.7137
  A 1.24 1.24 0.0 0 0 61.4534 1.4716
  L 2.4135 1.3685
  A 1.24 1.24 0.0 0 0 1.1713 2.6064
  L 1.0688 61.3263
  A 1.24 1.24 0.0 0 0 2.3066 62.5684
  L 61.3465 62.6715
  A 1.24 1.24 0.0 0 0 62.5887 61.4336
  L 62.6912 2.7137"
/>
<path stroke="#ee9b9c" vector-effect="non-scaling-stroke" d="
  M 17.98 23.69
  Q 14.89 23.28 13.48 25.71
  Q 9.27 32.97 7.84 35.60
  A 1.58 1.57 36.6 0 0 8.12 37.46
  L 9.63 38.98
  A 0.96 0.95 58.2 0 0 10.58 39.21
  L 18.30 36.76
  A 1.12 1.12 0.0 0 1 19.42 37.03
  L 26.89 44.50
  A 1.48 1.47 31.4 0 1 27.25 45.97
  L 25.03 53.06
  A 1.38 1.36 42.8 0 0 25.07 53.97
  Q 25.87 55.86 27.97 56.45"
/>
<path stroke="#dd2829" vector-effect="non-scaling-stroke" d="
  M 27.97 56.45
  Q 27.37 56.66 26.94 56.50
  A 0.48 0.48 0.0 0 0 26.47 57.32
  Q 27.65 58.29 29.09 57.60
  Q 30.33 57.01 39.26 51.70
  C 40.69 50.85 41.97 49.62 42.07 47.98
  Q 42.17 46.24 41.88 39.55
  A 2.04 2.02 -24.4 0 1 42.44 38.08
  C 45.80 34.56 50.55 30.65 53.10 26.65
  Q 58.22 18.63 57.89 9.09
  Q 57.79 6.03 55.05 5.93
  Q 42.37 5.44 33.25 14.30
  Q 30.26 17.21 26.61 21.19
  A 2.18 2.16 9.4 0 1 25.82 21.75
  Q 24.79 22.17 22.30 22.13
  Q 20.15 22.09 17.98 23.69"
/>
<path stroke="#ee8c8c" vector-effect="non-scaling-stroke" d="
  M 27.97 56.45
  L 39.55 49.68
  A 1.90 1.89 -15.2 0 0 40.50 48.04
  L 40.50 38.57
  A 1.81 1.80 -20.9 0 1 41.11 37.22
  C 50.54 29.02 57.16 21.24 56.50 7.86
  A 0.55 0.55 0.0 0 0 55.97 7.34
  C 42.93 6.70 34.96 13.22 27.04 22.52
  A 2.13 2.12 18.6 0 1 25.54 23.26
  L 17.98 23.69"
/>
<path stroke="#ee8c8c" vector-effect="non-scaling-stroke" d="
  M 49.82 16.97
  A 2.89 2.89 0.0 0 0 46.93 14.08
  A 2.89 2.89 0.0 0 0 44.04 16.97
  A 2.89 2.89 0.0 0 0 46.93 19.86
  A 2.89 2.89 0.0 0 0 49.82 16.97"
/>
</g>
<path fill="#e85756" fill-opacity="0.980" d="
  M 64.00 0.00
  L 64.00 64.00
  L 0.00 64.00
  L 0.00 0.00
  L 64.00 0.00
  Z
  M 62.6912 2.7137
  A 1.24 1.24 0.0 0 0 61.4534 1.4716
  L 2.4135 1.3685
  A 1.24 1.24 0.0 0 0 1.1713 2.6064
  L 1.0688 61.3263
  A 1.24 1.24 0.0 0 0 2.3066 62.5684
  L 61.3465 62.6715
  A 1.24 1.24 0.0 0 0 62.5887 61.4336
  L 62.6912 2.7137
  Z"
/>
<path fill="#dd3739" d="
  M 62.5887 61.4336
  A 1.24 1.24 0.0 0 1 61.3465 62.6715
  L 2.3066 62.5684
  A 1.24 1.24 0.0 0 1 1.0688 61.3263
  L 1.1713 2.6064
  A 1.24 1.24 0.0 0 1 2.4135 1.3685
  L 61.4534 1.4716
  A 1.24 1.24 0.0 0 1 62.6912 2.7137
  L 62.5887 61.4336
  Z
  M 17.98 23.69
  Q 14.89 23.28 13.48 25.71
  Q 9.27 32.97 7.84 35.60
  A 1.58 1.57 36.6 0 0 8.12 37.46
  L 9.63 38.98
  A 0.96 0.95 58.2 0 0 10.58 39.21
  L 18.30 36.76
  A 1.12 1.12 0.0 0 1 19.42 37.03
  L 26.89 44.50
  A 1.48 1.47 31.4 0 1 27.25 45.97
  L 25.03 53.06
  A 1.38 1.36 42.8 0 0 25.07 53.97
  Q 25.87 55.86 27.97 56.45
  Q 27.37 56.66 26.94 56.50
  A 0.48 0.48 0.0 0 0 26.47 57.32
  Q 27.65 58.29 29.09 57.60
  Q 30.33 57.01 39.26 51.70
  C 40.69 50.85 41.97 49.62 42.07 47.98
  Q 42.17 46.24 41.88 39.55
  A 2.04 2.02 -24.4 0 1 42.44 38.08
  C 45.80 34.56 50.55 30.65 53.10 26.65
  Q 58.22 18.63 57.89 9.09
  Q 57.79 6.03 55.05 5.93
  Q 42.37 5.44 33.25 14.30
  Q 30.26 17.21 26.61 21.19
  A 2.18 2.16 9.4 0 1 25.82 21.75
  Q 24.79 22.17 22.30 22.13
  Q 20.15 22.09 17.98 23.69
  Z"
/>
<path fill="#dc1819" d="
  M 27.97 56.45
  L 39.55 49.68
  A 1.90 1.89 -15.2 0 0 40.50 48.04
  L 40.50 38.57
  A 1.81 1.80 -20.9 0 1 41.11 37.22
  C 50.54 29.02 57.16 21.24 56.50 7.86
  A 0.55 0.55 0.0 0 0 55.97 7.34
  C 42.93 6.70 34.96 13.22 27.04 22.52
  A 2.13 2.12 18.6 0 1 25.54 23.26
  L 17.98 23.69
  Q 20.15 22.09 22.30 22.13
  Q 24.79 22.17 25.82 21.75
  A 2.18 2.16 9.4 0 0 26.61 21.19
  Q 30.26 17.21 33.25 14.30
  Q 42.37 5.44 55.05 5.93
  Q 57.79 6.03 57.89 9.09
  Q 58.22 18.63 53.10 26.65
  C 50.55 30.65 45.80 34.56 42.44 38.08
  A 2.04 2.02 -24.4 0 0 41.88 39.55
  Q 42.17 46.24 42.07 47.98
  C 41.97 49.62 40.69 50.85 39.26 51.70
  Q 30.33 57.01 29.09 57.60
  Q 27.65 58.29 26.47 57.32
  A 0.48 0.48 0.0 0 1 26.94 56.50
  Q 27.37 56.66 27.97 56.45
  Z"
/>
<path fill="#ffffff" d="
  M 27.97 56.45
  Q 25.87 55.86 25.07 53.97
  A 1.38 1.36 42.8 0 1 25.03 53.06
  L 27.25 45.97
  A 1.48 1.47 31.4 0 0 26.89 44.50
  L 19.42 37.03
  A 1.12 1.12 0.0 0 0 18.30 36.76
  L 10.58 39.21
  A 0.96 0.95 58.2 0 1 9.63 38.98
  L 8.12 37.46
  A 1.58 1.57 36.6 0 1 7.84 35.60
  Q 9.27 32.97 13.48 25.71
  Q 14.89 23.28 17.98 23.69
  L 25.54 23.26
  A 2.13 2.12 18.6 0 0 27.04 22.52
  C 34.96 13.22 42.93 6.70 55.97 7.34
  A 0.55 0.55 0.0 0 1 56.50 7.86
  C 57.16 21.24 50.54 29.02 41.11 37.22
  A 1.81 1.80 -20.9 0 0 40.50 38.57
  L 40.50 48.04
  A 1.90 1.89 -15.2 0 1 39.55 49.68
  L 27.97 56.45
  Z
  M 49.82 16.97
  A 2.89 2.89 0.0 0 0 46.93 14.08
  A 2.89 2.89 0.0 0 0 44.04 16.97
  A 2.89 2.89 0.0 0 0 46.93 19.86
  A 2.89 2.89 0.0 0 0 49.82 16.97
  Z"
/>
<circle fill="#dc1819" cx="46.93" cy="16.97" r="2.89"/>
</svg>
