<?xml version="1.0" encoding="UTF-8" standalone="no"?>
<!DOCTYPE svg PUBLIC "-//W3C//DTD SVG 1.1//EN" "http://www.w3.org/Graphics/SVG/1.1/DTD/svg11.dtd">
<svg xmlns="http://www.w3.org/2000/svg" version="1.1" viewBox="0.00 0.00 240.00 240.00">
<g stroke-width="2.00" fill="none" stroke-linecap="butt">
<path stroke="#9bd4eb" vector-effect="non-scaling-stroke" d="
  M 10.26 0.00
  Q 2.07 1.90 0.00 10.14"
/>
<path stroke="#9bd4eb" vector-effect="non-scaling-stroke" d="
  M 228.73 0.00
  C 234.47 0.19 239.06 5.11 240.00 10.49"
/>
<path stroke="#9bd4eb" vector-effect="non-scaling-stroke" d="
  M 240.00 229.16
  C 239.22 234.70 234.88 239.19 229.27 240.00"
/>
<path stroke="#9bd4eb" vector-effect="non-scaling-stroke" d="
  M 10.77 240.00
  Q 2.02 238.33 0.00 229.58"
/>
<path stroke="#75aec5" vector-effect="non-scaling-stroke" d="
  M 62.82 93.04
  L 64.72 126.01
  A 0.81 0.81 0.0 0 0 65.98 126.64
  L 85.12 113.96"
/>
<path stroke="#9bd4eb" vector-effect="non-scaling-stroke" d="
  M 85.12 113.96
  Q 107.49 136.72 130.33 160.41
  Q 132.53 162.69 132.95 162.84
  C 136.41 164.03 137.91 161.61 139.66 158.49
  Q 184.36 78.61 223.43 9.18
  A 0.44 0.44 0.0 0 0 222.95 8.54
  Q 140.17 26.66 22.36 52.09
  C 19.60 52.69 14.39 54.60 13.31 57.46
  A 1.30 1.28 -48.3 0 0 13.36 58.49
  Q 14.20 60.16 17.71 62.54
  Q 40.20 77.86 62.82 93.04"
/>
<path stroke="#d9d9d9" vector-effect="non-scaling-stroke" d="
  M 85.12 113.96
  Q 82.05 109.91 78.96 107.89
  A 0.95 0.95 0.0 0 1 78.95 106.31
  L 219.24 11.70
  A 0.44 0.44 0.0 0 0 219.39 11.13
  Q 218.81 10.01 217.42 11.01
  Q 216.29 11.83 215.14 12.67
  Q 214.12 13.41 204.34 18.56
  Q 133.51 55.85 62.82 93.04"
/>
<path stroke="#9bd4eb" vector-effect="non-scaling-stroke" d="
  M 20.14 177.25
  L 24.56 186.16
  A 0.57 0.56 62.8 0 0 25.33 186.41
  C 32.00 182.92 49.49 177.65 48.08 192.27
  A 0.78 0.77 -86.8 0 1 47.30 192.97
  C 31.97 192.76 10.54 193.86 15.54 216.26
  C 17.38 224.49 27.04 229.22 34.83 227.89
  Q 43.51 226.42 48.81 219.90
  A 0.83 0.83 0.0 0 1 50.24 220.16
  L 52.19 225.82
  A 1.17 1.17 0.0 0 0 53.30 226.61
  L 62.07 226.61
  A 0.79 0.78 -88.9 0 0 62.85 225.85
  Q 62.97 222.88 62.89 191.14
  Q 62.85 173.82 45.45 171.88
  Q 32.22 170.42 20.57 176.00
  A 0.93 0.93 0.0 0 0 20.14 177.25"
/>
<path stroke="#9bd4eb" vector-effect="non-scaling-stroke" d="
  M 120.41 212.50
  Q 119.60 212.68 116.73 213.86
  C 112.07 215.80 105.92 216.55 101.96 216.35
  Q 90.81 215.80 89.49 204.19
  A 0.77 0.77 0.0 0 1 90.26 203.33
  L 123.45 203.33
  A 0.65 0.64 90.0 0 0 124.09 202.68
  Q 124.12 197.81 123.97 193.95
  C 123.44 180.32 114.25 171.68 100.63 171.73
  Q 95.26 171.75 93.69 172.13
  Q 78.27 175.89 75.28 191.52
  C 73.18 202.49 74.72 215.44 83.99 222.11
  C 94.86 229.92 107.74 229.34 120.28 224.11
  A 1.16 1.15 -11.6 0 0 120.99 223.05
  L 120.99 212.97
  A 0.48 0.48 0.0 0 0 120.41 212.50"
/>
<path stroke="#9bd4eb" vector-effect="non-scaling-stroke" d="
  M 150.46 226.17
  Q 150.67 215.01 150.68 199.00
  C 150.69 188.50 159.44 184.11 168.85 185.81
  A 0.95 0.94 -83.0 0 0 169.96 184.94
  L 170.78 172.98
  A 1.03 1.02 6.0 0 0 169.89 171.89
  Q 157.15 170.11 150.10 181.12
  A 0.60 0.60 0.0 0 1 149.01 180.93
  L 147.26 173.21
  A 0.81 0.80 83.1 0 0 146.48 172.59
  L 136.45 172.59
  A 0.74 0.74 0.0 0 0 135.71 173.33
  L 135.71 225.84
  A 0.83 0.82 -90.0 0 0 136.53 226.67
  L 149.95 226.67
  A 0.51 0.51 0.0 0 0 150.46 226.17"
/>
<path stroke="#9bd4eb" vector-effect="non-scaling-stroke" d="
  M 204.56 228.09
  Q 208.12 227.93 212.49 226.25
  C 219.70 223.49 225.03 218.87 227.56 211.53
  Q 232.23 197.96 226.21 185.02
  C 221.72 175.36 212.67 171.23 202.00 171.72
  C 191.33 172.20 182.69 177.13 179.09 187.16
  Q 174.27 200.59 180.15 213.68
  C 183.34 220.76 189.06 224.88 196.49 226.98
  Q 200.99 228.25 204.56 228.09"
/>
<path stroke="#9bd4eb" vector-effect="non-scaling-stroke" d="
  M 47.51 201.56
  C 41.14 201.85 29.85 201.28 30.03 210.83
  C 30.11 215.53 34.68 217.16 38.72 216.52
  Q 49.69 214.78 47.96 201.94
  A 0.44 0.44 0.0 0 0 47.51 201.56"
/>
<path stroke="#9bd4eb" vector-effect="non-scaling-stroke" d="
  M 90.53 193.32
  L 109.61 193.32
  A 0.52 0.52 0.0 0 0 110.13 192.80
  L 110.13 192.34
  A 10.16 9.99 90.0 0 0 100.14 182.18
  L 100.00 182.18
  A 10.16 9.99 -90.0 0 0 90.01 192.34
  L 90.01 192.80
  A 0.52 0.52 0.0 0 0 90.53 193.32"
/>
<path stroke="#9bd4eb" vector-effect="non-scaling-stroke" d="
  M 192.29 199.58
  C 192.31 207.02 193.77 215.54 203.25 215.52
  C 212.74 215.49 214.16 206.96 214.14 199.52
  C 214.12 192.09 212.66 183.56 203.17 183.59
  C 193.69 183.61 192.27 192.14 192.29 199.58"
/>
</g>
<path fill="#ffffff" d="
  M 10.26 0.00
  Q 2.07 1.90 0.00 10.14
  L 0.00 0.00
  L 10.26 0.00
  Z"
/>
<path fill="#36a8d6" d="
  M 228.73 0.00
  C 234.47 0.19 239.06 5.11 240.00 10.49
  L 240.00 229.16
  C 239.22 234.70 234.88 239.19 229.27 240.00
  L 10.77 240.00
  Q 2.02 238.33 0.00 229.58
  L 0.00 10.14
  Q 2.07 1.90 10.26 0.00
  L 228.73 0.00
  Z
  M 62.82 93.04
  L 64.72 126.01
  A 0.81 0.81 0.0 0 0 65.98 126.64
  L 85.12 113.96
  Q 107.49 136.72 130.33 160.41
  Q 132.53 162.69 132.95 162.84
  C 136.41 164.03 137.91 161.61 139.66 158.49
  Q 184.36 78.61 223.43 9.18
  A 0.44 0.44 0.0 0 0 222.95 8.54
  Q 140.17 26.66 22.36 52.09
  C 19.60 52.69 14.39 54.60 13.31 57.46
  A 1.30 1.28 -48.3 0 0 13.36 58.49
  Q 14.20 60.16 17.71 62.54
  Q 40.20 77.86 62.82 93.04
  Z
  M 20.14 177.25
  L 24.56 186.16
  A 0.57 0.56 62.8 0 0 25.33 186.41
  C 32.00 182.92 49.49 177.65 48.08 192.27
  A 0.78 0.77 -86.8 0 1 47.30 192.97
  C 31.97 192.76 10.54 193.86 15.54 216.26
  C 17.38 224.49 27.04 229.22 34.83 227.89
  Q 43.51 226.42 48.81 219.90
  A 0.83 0.83 0.0 0 1 50.24 220.16
  L 52.19 225.82
  A 1.17 1.17 0.0 0 0 53.30 226.61
  L 62.07 226.61
  A 0.79 0.78 -88.9 0 0 62.85 225.85
  Q 62.97 222.88 62.89 191.14
  Q 62.85 173.82 45.45 171.88
  Q 32.22 170.42 20.57 176.00
  A 0.93 0.93 0.0 0 0 20.14 177.25
  Z
  M 120.41 212.50
  Q 119.60 212.68 116.73 213.86
  C 112.07 215.80 105.92 216.55 101.96 216.35
  Q 90.81 215.80 89.49 204.19
  A 0.77 0.77 0.0 0 1 90.26 203.33
  L 123.45 203.33
  A 0.65 0.64 90.0 0 0 124.09 202.68
  Q 124.12 197.81 123.97 193.95
  C 123.44 180.32 114.25 171.68 100.63 171.73
  Q 95.26 171.75 93.69 172.13
  Q 78.27 175.89 75.28 191.52
  C 73.18 202.49 74.72 215.44 83.99 222.11
  C 94.86 229.92 107.74 229.34 120.28 224.11
  A 1.16 1.15 -11.6 0 0 120.99 223.05
  L 120.99 212.97
  A 0.48 0.48 0.0 0 0 120.41 212.50
  Z
  M 150.46 226.17
  Q 150.67 215.01 150.68 199.00
  C 150.69 188.50 159.44 184.11 168.85 185.81
  A 0.95 0.94 -83.0 0 0 169.96 184.94
  L 170.78 172.98
  A 1.03 1.02 6.0 0 0 169.89 171.89
  Q 157.15 170.11 150.10 181.12
  A 0.60 0.60 0.0 0 1 149.01 180.93
  L 147.26 173.21
  A 0.81 0.80 83.1 0 0 146.48 172.59
  L 136.45 172.59
  A 0.74 0.74 0.0 0 0 135.71 173.33
  L 135.71 225.84
  A 0.83 0.82 -90.0 0 0 136.53 226.67
  L 149.95 226.67
  A 0.51 0.51 0.0 0 0 150.46 226.17
  Z
  M 204.56 228.09
  Q 208.12 227.93 212.49 226.25
  C 219.70 223.49 225.03 218.87 227.56 211.53
  Q 232.23 197.96 226.21 185.02
  C 221.72 175.36 212.67 171.23 202.00 171.72
  C 191.33 172.20 182.69 177.13 179.09 187.16
  Q 174.27 200.59 180.15 213.68
  C 183.34 220.76 189.06 224.88 196.49 226.98
  Q 200.99 228.25 204.56 228.09
  Z"
/>
<path fill="#ffffff" d="
  M 240.00 0.00
  L 240.00 10.49
  C 239.06 5.11 234.47 0.19 228.73 0.00
  L 240.00 0.00
  Z"
/>
<path fill="#ffffff" d="
  M 85.12 113.96
  Q 82.05 109.91 78.96 107.89
  A 0.95 0.95 0.0 0 1 78.95 106.31
  L 219.24 11.70
  A 0.44 0.44 0.0 0 0 219.39 11.13
  Q 218.81 10.01 217.42 11.01
  Q 216.29 11.83 215.14 12.67
  Q 214.12 13.41 204.34 18.56
  Q 133.51 55.85 62.82 93.04
  Q 40.20 77.86 17.71 62.54
  Q 14.20 60.16 13.36 58.49
  A 1.30 1.28 -48.3 0 1 13.31 57.46
  C 14.39 54.60 19.60 52.69 22.36 52.09
  Q 140.17 26.66 222.95 8.54
  A 0.44 0.44 0.0 0 1 223.43 9.18
  Q 184.36 78.61 139.66 158.49
  C 137.91 161.61 136.41 164.03 132.95 162.84
  Q 132.53 162.69 130.33 160.41
  Q 107.49 136.72 85.12 113.96
  Z"
/>
<path fill="#b3b3b3" d="
  M 85.12 113.96
  L 65.98 126.64
  A 0.81 0.81 0.0 0 1 64.72 126.01
  L 62.82 93.04
  Q 133.51 55.85 204.34 18.56
  Q 214.12 13.41 215.14 12.67
  Q 216.29 11.83 217.42 11.01
  Q 218.81 10.01 219.39 11.13
  A 0.44 0.44 0.0 0 1 219.24 11.70
  L 78.95 106.31
  A 0.95 0.95 0.0 0 0 78.96 107.89
  Q 82.05 109.91 85.12 113.96
  Z"
/>
<path fill="#ffffff" d="
  M 20.14 177.25
  A 0.93 0.93 0.0 0 1 20.57 176.00
  Q 32.22 170.42 45.45 171.88
  Q 62.85 173.82 62.89 191.14
  Q 62.97 222.88 62.85 225.85
  A 0.79 0.78 -88.9 0 1 62.07 226.61
  L 53.30 226.61
  A 1.17 1.17 0.0 0 1 52.19 225.82
  L 50.24 220.16
  A 0.83 0.83 0.0 0 0 48.81 219.90
  Q 43.51 226.42 34.83 227.89
  C 27.04 229.22 17.38 224.49 15.54 216.26
  C 10.54 193.86 31.97 192.76 47.30 192.97
  A 0.78 0.77 -86.8 0 0 48.08 192.27
  C 49.49 177.65 32.00 182.92 25.33 186.41
  A 0.57 0.56 62.8 0 1 24.56 186.16
  L 20.14 177.25
  Z
  M 47.51 201.56
  C 41.14 201.85 29.85 201.28 30.03 210.83
  C 30.11 215.53 34.68 217.16 38.72 216.52
  Q 49.69 214.78 47.96 201.94
  A 0.44 0.44 0.0 0 0 47.51 201.56
  Z"
/>
<path fill="#ffffff" d="
  M 120.41 212.50
  A 0.48 0.48 0.0 0 1 120.99 212.97
  L 120.99 223.05
  A 1.16 1.15 -11.6 0 1 120.28 224.11
  C 107.74 229.34 94.86 229.92 83.99 222.11
  C 74.72 215.44 73.18 202.49 75.28 191.52
  Q 78.27 175.89 93.69 172.13
  Q 95.26 171.75 100.63 171.73
  C 114.25 171.68 123.44 180.32 123.97 193.95
  Q 124.12 197.81 124.09 202.68
  A 0.65 0.64 -90.0 0 1 123.45 203.33
  L 90.26 203.33
  A 0.77 0.77 0.0 0 0 89.49 204.19
  Q 90.81 215.80 101.96 216.35
  C 105.92 216.55 112.07 215.80 116.73 213.86
  Q 119.60 212.68 120.41 212.50
  Z
  M 90.53 193.32
  L 109.61 193.32
  A 0.52 0.52 0.0 0 0 110.13 192.80
  L 110.13 192.34
  A 10.16 9.99 90.0 0 0 100.14 182.18
  L 100.00 182.18
  A 10.16 9.99 -90.0 0 0 90.01 192.34
  L 90.01 192.80
  A 0.52 0.52 0.0 0 0 90.53 193.32
  Z"
/>
<path fill="#ffffff" d="
  M 150.46 226.17
  A 0.51 0.51 0.0 0 1 149.95 226.67
  L 136.53 226.67
  A 0.83 0.82 -90.0 0 1 135.71 225.84
  L 135.71 173.33
  A 0.74 0.74 0.0 0 1 136.45 172.59
  L 146.48 172.59
  A 0.81 0.80 83.1 0 1 147.26 173.21
  L 149.01 180.93
  A 0.60 0.60 0.0 0 0 150.10 181.12
  Q 157.15 170.11 169.89 171.89
  A 1.03 1.02 6.0 0 1 170.78 172.98
  L 169.96 184.94
  A 0.95 0.94 -83.0 0 1 168.85 185.81
  C 159.44 184.11 150.69 188.50 150.68 199.00
  Q 150.67 215.01 150.46 226.17
  Z"
/>
<path fill="#ffffff" d="
  M 202.00 171.72
  C 212.67 171.23 221.72 175.36 226.21 185.02
  Q 232.23 197.96 227.56 211.53
  C 225.03 218.87 219.70 223.49 212.49 226.25
  Q 208.12 227.93 204.56 228.09
  Q 200.99 228.25 196.49 226.98
  C 189.06 224.88 183.34 220.76 180.15 213.68
  Q 174.27 200.59 179.09 187.16
  C 182.69 177.13 191.33 172.20 202.00 171.72
  Z
  M 192.29 199.58
  C 192.31 207.02 193.77 215.54 203.25 215.52
  C 212.74 215.49 214.16 206.96 214.14 199.52
  C 214.12 192.09 212.66 183.56 203.17 183.59
  C 193.69 183.61 192.27 192.14 192.29 199.58
  Z"
/>
<path fill="#36a8d6" d="
  M 90.53 193.32
  A 0.52 0.52 0.0 0 1 90.01 192.80
  L 90.01 192.34
  A 10.16 9.99 90.0 0 1 100.00 182.18
  L 100.14 182.18
  A 10.16 9.99 90.0 0 1 110.13 192.34
  L 110.13 192.80
  A 0.52 0.52 0.0 0 1 109.61 193.32
  L 90.53 193.32
  Z"
/>
<path fill="#36a8d6" d="
  M 203.17 183.59
  C 212.66 183.56 214.12 192.09 214.14 199.52
  C 214.16 206.96 212.74 215.49 203.25 215.52
  C 193.77 215.54 192.31 207.02 192.29 199.58
  C 192.27 192.14 193.69 183.61 203.17 183.59
  Z"
/>
<path fill="#36a8d6" d="
  M 47.51 201.56
  A 0.44 0.44 0.0 0 1 47.96 201.94
  Q 49.69 214.78 38.72 216.52
  C 34.68 217.16 30.11 215.53 30.03 210.83
  C 29.85 201.28 41.14 201.85 47.51 201.56
  Z"
/>
<path fill="#ffffff" d="
  M 240.00 229.16
  L 240.00 240.00
  L 229.27 240.00
  C 234.88 239.19 239.22 234.70 240.00 229.16
  Z"
/>
<path fill="#ffffff" d="
  M 10.77 240.00
  L 0.00 240.00
  L 0.00 229.58
  Q 2.02 238.33 10.77 240.00
  Z"
/>
</svg>
