<svg width="128" height="128" viewBox="0 0 128 128" fill="none" xmlns="http://www.w3.org/2000/svg">
<g clip-path="url(#clip0_0_1027)">
<path fill-rule="evenodd" clip-rule="evenodd" d="M112.353 63.5884C112.351 64.6213 112.221 65.6498 111.966 66.6507L118.343 73.0693C130.645 85.5757 130.558 105.652 118.148 118.051C105.738 130.45 85.6447 130.537 73.128 118.246L66.804 111.928C64.7276 112.478 62.5433 112.478 60.4669 111.928L54.1831 118.213C41.6972 130.69 21.4524 130.691 8.96472 118.216C-3.52291 105.741 -3.5244 85.5128 8.96139 73.036L16.0265 65.9703C15.7104 64.3845 15.7104 62.7521 16.0265 61.1664L8.96805 54.1072C0.891171 46.036 -2.26258 34.2726 0.694803 23.2482C3.65219 12.2238 12.2714 3.6132 23.3057 0.659974C34.34 -2.29326 46.1128 0.85954 54.1899 8.93074L59.7255 14.4619C62.2689 13.633 65.0123 13.6494 67.5454 14.5086L73.1345 8.92408C85.6515 -3.36716 105.745 -3.28012 118.154 9.11908C130.564 21.5183 130.651 41.5943 118.35 54.1007L111.952 60.4925C112.218 61.503 112.353 62.5434 112.353 63.5884ZM81.7738 17.6035L75.764 23.6084C75.9659 24.5017 76.0689 25.4146 76.0711 26.3306C76.072 27.6361 75.8645 28.9334 75.4566 30.1736L96.8121 51.4908C97.811 51.2329 98.839 51.1028 99.8706 51.1041C101.101 51.1025 102.325 51.2823 103.503 51.6376L109.667 45.4726C117.15 37.7405 117.047 25.441 109.435 17.8351C101.823 10.2293 89.5127 10.1262 81.7738 17.6035ZM75.6716 96.7474L96.7533 75.677C98.978 76.2582 101.321 76.205 103.518 75.5236L109.688 81.6886C117.172 89.421 117.069 101.72 109.456 109.326C101.844 116.932 89.5339 117.035 81.795 109.558L75.5715 103.333C75.9019 102.197 76.0705 101.02 76.072 99.8368C76.0723 98.7939 75.9376 97.7557 75.6716 96.7474ZM67.1957 87.9003L87.8968 67.2169L87.9033 67.2303C87.1778 64.8559 87.1778 62.3191 87.9033 59.9446L66.4344 38.4937C64.5988 38.9352 62.6858 38.9467 60.8449 38.527L40.0306 59.3106C41.0367 62.0664 41.0367 65.0886 40.0306 67.8441L60.0637 87.8605C62.3943 87.1801 64.8729 87.1938 67.1957 87.9003ZM51.7352 30.309L51.7253 30.3189C50.9795 28.1175 50.8719 25.7502 51.4148 23.4901L45.5183 17.5986C37.7793 10.1213 25.4695 10.2244 17.8571 17.8303C10.2447 25.4362 10.1416 37.7356 17.6253 45.4679L24.0426 51.8731C26.1771 51.0854 28.4876 50.9006 30.7205 51.3393L51.7253 30.3189L51.7287 30.3289L51.7352 30.309ZM30.7202 75.8391C28.4886 76.2775 26.1793 76.0973 24.0426 75.3186L17.6253 81.6905C10.1416 89.4229 10.2447 101.722 17.8571 109.328C25.4695 116.934 37.7793 117.037 45.5183 109.56L51.6083 103.468C51.2524 102.291 51.0723 101.068 51.0741 99.8383C51.0732 98.7479 51.2169 97.6621 51.5016 96.6093L30.7202 75.8391Z" fill="#2665F1"/>
</g>
<defs>
<clipPath id="clip0_0_1027">
<rect width="128" height="128" fill="white"/>
</clipPath>
</defs>
</svg>
