<svg width="105" height="29" viewBox="0 0 105 29" fill="none" xmlns="http://www.w3.org/2000/svg">
<path fill-rule="evenodd" clip-rule="evenodd" d="M7.70192 2.88891C10.2003 0.0270284 14.338 -0.812521 17.7395 0.839409C22.2587 3.03446 23.9076 8.62608 21.447 12.9393L15.9117 22.6318C15.6024 23.1733 15.0934 23.5685 14.4965 23.7304C13.8996 23.8923 13.2637 23.8078 12.7282 23.4957L19.4296 11.759C21.2147 8.62853 20.0206 4.57079 16.7442 2.97315C14.2856 1.77446 11.2803 2.37328 9.46421 4.43474C8.46231 5.56645 7.89988 7.02755 7.88113 8.54712C7.86237 10.0667 8.38846 11.5416 9.36214 12.6984C9.53712 12.9058 9.72527 13.1015 9.92565 13.2841L6.01353 20.1481C5.86054 20.4164 5.65684 20.6514 5.41406 20.8403C5.1713 21.0288 4.8942 21.1672 4.59861 21.2474C4.303 21.3277 3.99472 21.3482 3.6913 21.3077C3.38789 21.2672 3.09531 21.1667 2.83025 21.0119L7.0774 13.5601C6.46735 12.6695 6.02924 11.6703 5.7862 10.6149L3.1836 15.1904C2.87423 15.7321 2.36522 16.1271 1.76833 16.289C1.17143 16.4512 0.535429 16.3667 0 16.0543L6.73031 4.25182C7.01044 3.76715 7.3358 3.31074 7.70192 2.88891ZM15.47 6.64565C17.0909 7.5934 17.6506 9.70104 16.7127 11.3413L10.2589 22.6304C9.94964 23.1718 9.44045 23.5671 8.84355 23.729C8.24664 23.8909 7.61074 23.8064 7.07531 23.4942L13.068 12.9841C12.587 12.8817 12.1341 12.6748 11.7399 12.3776C11.3457 12.0807 11.02 11.7006 10.785 11.2636C10.5501 10.8267 10.4115 10.3434 10.3791 9.847C10.3466 9.35062 10.421 8.85302 10.5971 8.38856C10.773 7.92411 11.0466 7.50387 11.3986 7.15685C11.7507 6.80983 12.1729 6.54429 12.6362 6.37856C13.0995 6.21286 13.5929 6.15093 14.0821 6.19703C14.5713 6.24315 15.045 6.39621 15.47 6.64565ZM13.1226 8.76723C13.0116 8.85342 12.9184 8.96093 12.8486 9.08355C12.7432 9.26823 12.694 9.48036 12.7079 9.69314C12.7218 9.90589 12.7975 10.1098 12.9257 10.2789C13.0541 10.448 13.2289 10.5749 13.4283 10.6434C13.6277 10.712 13.8429 10.7191 14.0464 10.6639C14.2498 10.6087 14.4323 10.4936 14.5713 10.3333C14.7101 10.173 14.799 9.97461 14.8265 9.76319C14.8538 9.5518 14.8187 9.33688 14.7256 9.14565C14.6325 8.9544 14.4855 8.79542 14.303 8.68879C14.1821 8.618 14.0483 8.57205 13.9097 8.55357C13.771 8.53509 13.6301 8.54445 13.4951 8.58112C13.3601 8.61779 13.2333 8.68101 13.1226 8.76723Z" fill="#5F5CFF"/>
<path d="M98.5967 22.5536C97.4022 22.5536 96.3404 22.2774 95.4113 21.7249C94.497 21.1576 93.7818 20.3962 93.2656 19.4406C92.7495 18.4702 92.4914 17.3878 92.4914 16.1933C92.4914 14.9691 92.7495 13.8866 93.2656 12.946C93.7965 12.0055 94.5044 11.2664 95.3892 10.7289C96.274 10.1765 97.2768 9.90031 98.3976 9.90031C99.2971 9.90031 100.101 10.0571 100.809 10.3706C101.517 10.6841 102.114 11.1171 102.6 11.6695C103.087 12.207 103.456 12.8266 103.706 13.5283C103.972 14.23 104.105 14.9765 104.105 15.7678C104.105 15.9619 104.097 16.1635 104.083 16.3725C104.068 16.5815 104.038 16.7756 103.994 16.9548H94.4601V14.9392H102.578L101.384 15.8574C101.531 15.1258 101.48 14.4764 101.229 13.909C100.993 13.3268 100.624 12.8714 100.123 12.5429C99.6363 12.1995 99.0612 12.0278 98.3976 12.0278C97.734 12.0278 97.1441 12.1995 96.6279 12.5429C96.1118 12.8714 95.7136 13.3492 95.4334 13.9762C95.1532 14.5884 95.0426 15.3349 95.1016 16.2157C95.0279 17.0369 95.1385 17.7535 95.4334 18.3657C95.7431 18.9778 96.1708 19.4556 96.7164 19.799C97.2768 20.1424 97.9109 20.314 98.6188 20.314C99.3414 20.314 99.9534 20.1498 100.455 19.8214C100.971 19.4929 101.376 19.0674 101.671 18.5448L103.706 19.5526C103.471 20.12 103.102 20.635 102.6 21.0979C102.114 21.5458 101.524 21.9041 100.831 22.1728C100.152 22.4267 99.4077 22.5536 98.5967 22.5536Z" fill="#0D0D37"/>
<path d="M90.5959 22.4191C89.3424 22.4191 88.3691 22.0607 87.676 21.3441C86.9829 20.6275 86.6363 19.6197 86.6363 18.3208V12.4532H84.5349V10.1689H84.8667C85.4271 10.1689 85.8621 10.0047 86.1718 9.67622C86.4815 9.34776 86.6363 8.89986 86.6363 8.33251V7.39192H89.136V10.1689H91.8568V12.4532H89.136V18.2088C89.136 18.6268 89.2023 18.9851 89.335 19.2837C89.4678 19.5674 89.6816 19.7914 89.9765 19.9556C90.2715 20.1049 90.6549 20.1795 91.1268 20.1795C91.2448 20.1795 91.3775 20.1721 91.525 20.1572C91.6724 20.1422 91.8125 20.1273 91.9452 20.1124V22.2847C91.7388 22.3146 91.5102 22.3444 91.2595 22.3743C91.0088 22.4041 90.7876 22.4191 90.5959 22.4191Z" fill="#0D0D37"/>
<path d="M65.3885 22.5535C64.4595 22.5535 63.6115 22.3594 62.8447 21.9712C62.0926 21.583 61.5101 21.0232 61.0972 20.2916L61.3847 19.8213V22.2847H58.9957V5.33162H61.4953V12.6772L61.0972 12.095C61.5396 11.4082 62.1295 10.8707 62.8668 10.4825C63.6042 10.0943 64.4447 9.90023 65.3885 9.90023C66.5241 9.90023 67.5416 10.1764 68.4412 10.7289C69.3555 11.2813 70.0707 12.0352 70.5868 12.9908C71.1177 13.9463 71.3832 15.0213 71.3832 16.2157C71.3832 17.4101 71.1177 18.485 70.5868 19.4406C70.0707 20.3961 69.3628 21.1575 68.4633 21.7249C67.5637 22.2773 66.5388 22.5535 65.3885 22.5535ZM65.1452 20.202C65.8531 20.202 66.4798 20.0303 67.0254 19.6869C67.5711 19.3435 67.9987 18.8732 68.3084 18.276C68.6329 17.6639 68.7951 16.9771 68.7951 16.2157C68.7951 15.4542 68.6329 14.7749 68.3084 14.1777C67.9987 13.5805 67.5711 13.1102 67.0254 12.7668C66.4798 12.4234 65.8531 12.2517 65.1452 12.2517C64.4521 12.2517 63.8254 12.4234 63.265 12.7668C62.7193 13.1102 62.2843 13.5805 61.9599 14.1777C61.6502 14.7749 61.4953 15.4542 61.4953 16.2157C61.4953 16.9771 61.6502 17.6639 61.9599 18.276C62.2843 18.8732 62.7193 19.3435 63.265 19.6869C63.8254 20.0303 64.4521 20.202 65.1452 20.202Z" fill="#0D0D37"/>
<path d="M50.9691 22.2847V10.1689H53.3581V12.61L53.1369 12.2517C53.4023 11.4604 53.83 10.893 54.4198 10.5496C55.0097 10.1913 55.7176 10.0121 56.5434 10.0121H57.2734V12.3188H56.2337C55.4079 12.3188 54.7369 12.5801 54.2208 13.1027C53.7194 13.6103 53.4687 14.3419 53.4687 15.2974V22.2847H50.9691Z" fill="#0D0D37"/>
<path d="M45.6435 22.2848V10.169H48.1431V22.2848H45.6435ZM45.6435 8.51174V5.60037H48.1431V8.51174H45.6435Z" fill="#0D0D37"/>
<path d="M29.0974 22.2848L34.8929 5.6004H38.1225L43.9181 22.2848H41.1309L39.87 18.5448H33.1675L31.8846 22.2848H29.0974ZM33.9196 16.1933H39.0737L36.1538 7.4592H36.8838L33.9196 16.1933Z" fill="#0D0D37"/>
<path d="M77.3863 18.9479L78.8308 15.3592L80.7853 10.1711H83.5284L81.7077 14.6678L76.5665 27.4411C76.0849 28.6131 74.6694 29.1354 73.4826 28.6458L76.0951 22.1559L71.3843 10.1711H74.0608L77.3863 18.9479Z" fill="#0D0D37"/>
</svg>
