<?xml version="1.0" encoding="UTF-8" standalone="no"?>
<!DOCTYPE svg PUBLIC "-//W3C//DTD SVG 1.1//EN" "http://www.w3.org/Graphics/SVG/1.1/DTD/svg11.dtd">
<svg xmlns="http://www.w3.org/2000/svg" version="1.1" viewBox="0.00 0.00 400.00 400.00">
<g stroke-width="2.00" fill="none" stroke-linecap="butt">
<path stroke="#f9cc8f" vector-effect="non-scaling-stroke" d="
  M 192.08 0.00
  C 87.23 4.59 4.61 87.43 0.00 192.10"
/>
<path stroke="#f9cc8f" vector-effect="non-scaling-stroke" d="
  M 207.75 0.00
  C 312.98 4.52 396.08 88.06 400.00 193.24"
/>
<path stroke="#f9cc8f" vector-effect="non-scaling-stroke" d="
  M 400.00 207.15
  C 395.97 312.07 312.92 395.12 208.25 400.00"
/>
<path stroke="#f9cc8f" vector-effect="non-scaling-stroke" d="
  M 192.11 400.00
  Q 132.82 397.36 85.98 364.53
  C 34.47 328.42 3.27 272.03 0.00 209.12"
/>
<path stroke="#f7b861" vector-effect="non-scaling-stroke" d="
  M 67.95 322.74
  L 131.00 322.74
  A 1.62 1.61 9.3 0 0 132.53 321.65
  L 151.06 267.68
  A 1.65 1.64 13.6 0 1 152.87 266.58
  Q 180.83 271.02 209.50 270.02
  Q 219.50 269.67 231.52 268.61
  A 0.69 0.69 0.0 0 0 232.12 267.73
  L 219.80 227.02
  A 1.04 1.03 -10.7 0 0 218.72 226.29
  Q 194.40 228.54 170.27 225.18
  Q 166.09 224.60 165.29 224.33
  A 1.15 1.14 -89.1 0 1 164.56 223.57
  Q 164.54 223.50 166.02 219.00
  Q 172.63 198.78 190.47 144.21
  C 191.72 140.37 190.48 137.63 189.05 133.20
  Q 188.25 130.75 171.13 78.40
  A 1.83 1.82 -9.0 0 0 169.39 77.14
  L 159.13 77.14
  A 2.27 2.26 -79.7 0 0 157.01 78.62
  L 67.07 321.47
  A 0.94 0.94 0.0 0 0 67.95 322.74"
/>
<path stroke="#f9cc8f" vector-effect="non-scaling-stroke" d="
  M 186.46 77.12
  A 0.92 0.92 0.0 0 0 185.59 78.33
  L 265.57 322.20
  A 0.92 0.92 0.0 0 0 266.45 322.83
  L 332.14 322.83
  A 0.92 0.92 0.0 0 0 333.00 321.59
  L 242.67 77.72
  A 0.92 0.92 0.0 0 0 241.81 77.12
  L 186.46 77.12"
/>
</g>
<path fill="#ffffff" d="
  M 192.08 0.00
  C 87.23 4.59 4.61 87.43 0.00 192.10
  L 0.00 0.00
  L 192.08 0.00
  Z"
/>
<path fill="#f3991e" d="
  M 207.75 0.00
  C 312.98 4.52 396.08 88.06 400.00 193.24
  L 400.00 207.15
  C 395.97 312.07 312.92 395.12 208.25 400.00
  L 192.11 400.00
  Q 132.82 397.36 85.98 364.53
  C 34.47 328.42 3.27 272.03 0.00 209.12
  L 0.00 192.10
  C 4.61 87.43 87.23 4.59 192.08 0.00
  L 207.75 0.00
  Z
  M 67.95 322.74
  L 131.00 322.74
  A 1.62 1.61 9.3 0 0 132.53 321.65
  L 151.06 267.68
  A 1.65 1.64 13.6 0 1 152.87 266.58
  Q 180.83 271.02 209.50 270.02
  Q 219.50 269.67 231.52 268.61
  A 0.69 0.69 0.0 0 0 232.12 267.73
  L 219.80 227.02
  A 1.04 1.03 -10.7 0 0 218.72 226.29
  Q 194.40 228.54 170.27 225.18
  Q 166.09 224.60 165.29 224.33
  A 1.15 1.14 -89.1 0 1 164.56 223.57
  Q 164.54 223.50 166.02 219.00
  Q 172.63 198.78 190.47 144.21
  C 191.72 140.37 190.48 137.63 189.05 133.20
  Q 188.25 130.75 171.13 78.40
  A 1.83 1.82 -9.0 0 0 169.39 77.14
  L 159.13 77.14
  A 2.27 2.26 -79.7 0 0 157.01 78.62
  L 67.07 321.47
  A 0.94 0.94 0.0 0 0 67.95 322.74
  Z
  M 186.46 77.12
  A 0.92 0.92 0.0 0 0 185.59 78.33
  L 265.57 322.20
  A 0.92 0.92 0.0 0 0 266.45 322.83
  L 332.14 322.83
  A 0.92 0.92 0.0 0 0 333.00 321.59
  L 242.67 77.72
  A 0.92 0.92 0.0 0 0 241.81 77.12
  L 186.46 77.12
  Z"
/>
<path fill="#ffffff" d="
  M 400.00 0.00
  L 400.00 193.24
  C 396.08 88.06 312.98 4.52 207.75 0.00
  L 400.00 0.00
  Z"
/>
<path fill="#fad6a4" d="
  M 67.95 322.74
  A 0.94 0.94 0.0 0 1 67.07 321.47
  L 157.01 78.62
  A 2.27 2.26 -79.7 0 1 159.13 77.14
  L 169.39 77.14
  A 1.83 1.82 -9.0 0 1 171.13 78.40
  Q 188.25 130.75 189.05 133.20
  C 190.48 137.63 191.72 140.37 190.47 144.21
  Q 172.63 198.78 166.02 219.00
  Q 164.54 223.50 164.56 223.57
  A 1.15 1.14 -89.1 0 0 165.29 224.33
  Q 166.09 224.60 170.27 225.18
  Q 194.40 228.54 218.72 226.29
  A 1.04 1.03 -10.7 0 1 219.80 227.02
  L 232.12 267.73
  A 0.69 0.69 0.0 0 1 231.52 268.61
  Q 219.50 269.67 209.50 270.02
  Q 180.83 271.02 152.87 266.58
  A 1.65 1.64 13.6 0 0 151.06 267.68
  L 132.53 321.65
  A 1.62 1.61 9.3 0 1 131.00 322.74
  L 67.95 322.74
  Z"
/>
<path fill="#ffffff" d="
  M 186.46 77.12
  L 241.81 77.12
  A 0.92 0.92 0.0 0 1 242.67 77.72
  L 333.00 321.59
  A 0.92 0.92 0.0 0 1 332.14 322.83
  L 266.45 322.83
  A 0.92 0.92 0.0 0 1 265.57 322.20
  L 185.59 78.33
  A 0.92 0.92 0.0 0 1 186.46 77.12
  Z"
/>
<path fill="#ffffff" d="
  M 400.00 207.15
  L 400.00 400.00
  L 208.25 400.00
  C 312.92 395.12 395.97 312.07 400.00 207.15
  Z"
/>
<path fill="#ffffff" d="
  M 192.11 400.00
  L 0.00 400.00
  L 0.00 209.12
  C 3.27 272.03 34.47 328.42 85.98 364.53
  Q 132.82 397.36 192.11 400.00
  Z"
/>
</svg>
