<svg width="128" height="128" viewBox="0 0 128 128" fill="none" xmlns="http://www.w3.org/2000/svg">
<rect width="128" height="128" fill="#1859D9"/>
<path d="M66.21 22.4394C66.5853 22.4063 67.071 22.3924 67.4384 22.4898C69.1348 22.9397 72.4546 33.2304 73.2207 35.2453L88.2611 74.7475C90.2959 80.083 92.4735 86.6603 95.0989 91.781C97.419 96.3063 104.768 96.2546 105.653 97.5965C105.767 98.262 105.495 98.98 105.306 99.6414C102.266 99.9986 96.2357 99.8755 92.9477 99.8618C87.708 99.84 81.4486 100.043 76.3091 99.6216C76.2424 98.737 76.2139 97.7619 76.1702 96.8683C80.1617 96.6135 84.4875 96.0918 82.9527 90.6546C81.2197 84.5143 78.4658 78.5683 76.3937 72.5095L57.49 72.5623C54.6789 72.5324 48.1938 71.9538 45.9313 74.056C43.7237 76.1073 37.8392 89.2859 37.7291 92.2791C37.6937 93.2429 37.8347 93.9074 38.5168 94.6157C40.5583 96.7352 44.4559 96.688 47.1857 96.7513C47.3638 97.8255 47.3634 98.549 47.3821 99.6339C42.8755 99.9581 37.694 99.8548 33.1456 99.8626C29.4756 99.8689 24.424 100.013 20.8919 99.5569L20.7545 96.9323C27.3619 96.143 29.4576 94.3134 32.174 88.1825C33.4912 85.2094 34.9701 81.986 36.3406 79.0266L52.1927 44.3938L56.5905 34.6292C58.6483 30.0388 60.7585 23.6841 66.21 22.4394Z" fill="#FEFEFE"/>
<path d="M62.4092 40.217C62.7039 40.4629 62.9074 41.1744 63.0239 41.5513C65.3124 48.9544 68.3885 56.0822 70.8964 63.4088C71.1855 64.2534 71.2944 65.0183 71.3895 65.9012C68.9533 66.2494 63.3621 66.0857 60.7544 66.0733C58.0715 66.0905 54.015 66.228 51.455 65.9703C51.8456 64.7187 53.0991 62.2637 53.7122 60.9208L58.4874 50.3595C59.9471 47.116 61.7351 43.6654 62.4092 40.217Z" fill="#1859D9"/>
<path d="M17.2795 60.0249C21.8837 59.7632 22.9953 63.1049 21.5555 66.8908C20.3011 68.0507 19.8158 68.2386 18.2189 68.6073C14.0624 68.603 11.741 66.4007 13.7972 61.938C14.3516 60.7348 16.035 60.2752 17.2795 60.0249Z" fill="#FEFEFE"/>
<path d="M107.879 60.0035C109.396 59.8494 110.469 60.0805 111.831 60.713C113.244 62.4714 113.465 64.7977 112.223 66.7899C111.549 67.8724 110.644 68.0634 109.466 68.2959C109.345 68.3153 109.223 68.3329 109.102 68.3488C107.199 68.5939 105.948 68.2058 104.468 67.0668C104.451 67.0136 104.436 66.9599 104.421 66.9061C103.448 63.305 104.024 60.9439 107.879 60.0035Z" fill="#FEFEFE"/>
</svg>
