<?xml version="1.0" encoding="UTF-8" standalone="no"?>
<!DOCTYPE svg PUBLIC "-//W3C//DTD SVG 1.1//EN" "http://www.w3.org/Graphics/SVG/1.1/DTD/svg11.dtd">
<svg xmlns="http://www.w3.org/2000/svg" version="1.1" viewBox="0.00 0.00 32.00 32.00">
<g stroke-width="2.00" fill="none" stroke-linecap="butt">
<path stroke="#91a4e7" vector-effect="non-scaling-stroke" d="
  M 0.81 23.29
  L 2.68 22.43"
/>
<path stroke="#91a4e7" vector-effect="non-scaling-stroke" d="
  M 10.47 20.61
  Q 14.86 19.56 19.73 20.10"
/>
<path stroke="#91a4e7" vector-effect="non-scaling-stroke" d="
  M 26.41 20.49
  L 26.55 19.83"
/>
<path stroke="#91a4e7" vector-effect="non-scaling-stroke" d="
  M 19.25 18.63
  Q 9.49 17.93 0.80 21.98"
/>
</g>
<path fill="#436dfd" d="
  M 0.81 23.29
  L 2.68 22.43
  Q 3.16 22.82 3.91 22.41
  A 1.02 1.00 -42.8 0 1 4.94 22.44
  Q 5.30 22.68 5.58 23.10
  Q 5.78 23.39 6.38 23.49
  Q 11.25 24.32 10.47 20.61
  Q 14.86 19.56 19.73 20.10
  Q 20.09 23.48 24.63 22.96
  A 2.39 2.38 -1.2 0 0 26.75 20.76
  Q 26.76 20.69 26.41 20.49
  L 26.55 19.83
  Q 26.99 19.83 27.03 19.56
  C 27.78 13.77 20.16 12.69 19.25 18.63
  Q 9.49 17.93 0.80 21.98
  C 1.03 17.20 6.71 17.36 10.11 17.58
  A 0.68 0.68 0.0 0 0 10.76 16.59
  C 9.34 13.77 5.66 14.29 3.31 15.67
  A 0.43 0.43 0.0 0 1 2.73 15.51
  L 1.48 13.36
  A 0.53 0.52 61.5 0 1 1.69 12.63
  C 6.01 10.35 13.92 9.79 15.09 16.18
  A 0.04 0.04 0.0 0 0 15.17 16.18
  C 16.49 11.34 22.53 9.72 26.41 12.36
  A 0.35 0.35 0.0 0 0 26.96 12.07
  L 26.96 5.94
  A 0.42 0.41 0.0 0 1 27.38 5.53
  L 30.93 5.53
  A 0.44 0.43 0.0 0 1 31.37 5.96
  L 31.37 25.95
  A 0.56 0.56 0.0 0 1 30.82 26.51
  L 28.01 26.57
  A 0.78 0.76 82.7 0 1 27.24 25.96
  Q 27.23 25.93 27.22 25.76
  A 0.42 0.42 0.0 0 0 26.60 25.42
  Q 19.88 29.06 15.65 22.85
  A 0.24 0.24 0.0 0 0 15.21 22.98
  L 15.21 26.11
  A 0.44 0.43 -0.0 0 1 14.77 26.54
  L 11.57 26.54
  A 0.44 0.43 -90.0 0 1 11.14 26.10
  L 11.14 25.53
  A 0.36 0.36 0.0 0 0 10.55 25.26
  C 7.69 27.70 2.30 27.25 0.81 23.29
  Z"
/>
<path fill="#e0dcd1" fill-opacity="0.996" d="
  M 19.25 18.63
  L 26.55 19.83
  L 26.41 20.49
  L 19.73 20.10
  Q 14.86 19.56 10.47 20.61
  L 2.68 22.43
  L 0.81 23.29
  Q 0.50 22.70 0.80 21.98
  Q 9.49 17.93 19.25 18.63
  Z"
/>
</svg>
