<svg xmlns="http://www.w3.org/2000/svg" width="120" height="19" viewBox="0 0 120 19" fill="currentcolor" style="fill: rgb(0, 0, 0) !important;">
								<path d="M37.5282 14.6924C38.8792 13.486 39.5653 11.743 39.5653 9.51455C39.5653 7.28614 38.9002 5.58041 37.5282 4.3507C36.1631 3.13032 34.3617 2.51196 32.173 2.51196H28.1665V16.5125H32.173C34.4131 16.5125 36.1655 15.9175 37.5282 14.6947V14.6924ZM30.1756 4.32036H32.2127C35.5798 4.32036 37.5118 6.21276 37.5118 9.51455C37.5118 12.8163 35.6148 14.6737 32.3013 14.7087V14.7134H30.1756V4.32036Z" fill="#0B0B0B" style="fill: rgb(11, 11, 11) !important;"/>
								<path d="M54.6185 16.804C55.1436 16.804 55.6149 16.7317 56.0209 16.5893L55.8576 15.0189C55.6126 15.0843 55.3979 15.1146 55.1856 15.1146C54.2102 15.1146 53.7178 14.5873 53.7178 13.5489V8.13068H55.9649V6.64896H53.7178V3.93286H51.8301V6.64896H50.2061V8.13535H51.8301V13.9176C51.8301 15.859 52.7425 16.804 54.6209 16.804H54.6185Z" fill="#0B0B0B" style="fill: rgb(11, 11, 11) !important;"/>
								<path d="M73.0383 10.5833L76.3191 16.5172H78.6455L75.1361 10.3873L75.2481 10.3569C77.3131 9.82026 78.5452 8.35254 78.5452 6.4298C78.5452 5.25842 78.1322 4.33206 77.2805 3.59936C76.4241 2.86434 75.2947 2.50732 73.8317 2.50732H68.0635V16.5148H70.0772V10.5343H73.015L73.0407 10.581H73.0383V10.5833ZM70.0772 4.23639H73.694C75.5841 4.23639 76.5408 5.00875 76.5408 6.53247C76.5408 8.05619 75.5841 8.81222 73.694 8.81222H70.0772V4.23639Z" fill="#0B0B0B" style="fill: rgb(11, 11, 11) !important;"/>
								<path d="M88.196 7.81337C87.1926 6.84267 85.8275 6.30832 84.4555 6.35265C83.0344 6.35265 81.7861 6.824 80.7407 7.75037C79.6813 8.68607 79.168 9.93678 79.168 11.5772C79.168 13.2176 79.6347 14.3446 80.5937 15.2663V15.2616L80.7407 15.3923C81.7861 16.321 83.0344 16.79 84.4508 16.79C85.8345 16.832 87.1926 16.3023 88.1936 15.3293C88.896 14.648 89.7337 13.4439 89.7337 11.5702C89.7337 9.69644 88.896 8.49006 88.1936 7.81104L88.196 7.81337ZM86.8286 14.0926C86.1776 14.7413 85.3702 15.0703 84.4322 15.0703C83.4941 15.0703 82.7101 14.7413 82.0591 14.0926C81.4244 13.4579 81.1024 12.6109 81.1024 11.5795C81.1024 10.5481 81.4244 9.69877 82.0591 9.06642C82.7101 8.41773 83.5105 8.08872 84.4322 8.08872C85.3539 8.08872 86.1752 8.41773 86.8286 9.06642C87.4773 9.71511 87.8063 10.5621 87.8063 11.5795C87.8063 12.5969 87.4773 13.4439 86.8286 14.0926Z" fill="#0B0B0B" style="fill: rgb(11, 11, 11) !important;"/>
								<path d="M96.4518 16.7947C97.7935 16.7947 98.9252 16.314 99.8119 15.3643C100.713 14.3843 101.168 13.1102 101.168 11.5749C101.168 10.0395 100.72 8.75142 99.8329 7.80405C98.9579 6.82868 97.8845 6.355 96.5568 6.355C95.1311 6.355 93.8477 7.01535 93.1243 8.12139L92.961 8.37107V2.50952H91.0732V16.5077H92.961V14.8136L93.1243 15.0726C93.7963 16.1344 95.0727 16.7947 96.4541 16.7947H96.4518ZM92.828 11.5795C92.828 10.5668 93.143 9.72678 93.7637 9.08743C94.3914 8.4154 95.1334 8.08639 96.0341 8.08639C96.9348 8.08639 97.7095 8.42474 98.3115 9.08976C98.9299 9.72445 99.2449 10.5621 99.2449 11.5795C99.2449 12.5969 98.9392 13.4206 98.3115 14.0903C97.7118 14.732 96.9231 15.0703 96.0341 15.0703C95.1451 15.0703 94.3937 14.7413 93.7637 14.0903C93.143 13.4299 92.828 12.5852 92.828 11.5772V11.5795Z" fill="#0B0B0B" style="fill: rgb(11, 11, 11) !important;"/>
								<path d="M111.53 7.81337C110.527 6.84267 109.162 6.30832 107.79 6.35265C106.369 6.35265 105.121 6.824 104.075 7.75037C103.016 8.68607 102.502 9.93678 102.502 11.5772C102.502 13.2176 102.969 14.3446 103.928 15.2663V15.2616L104.075 15.3923C105.121 16.321 106.369 16.79 107.785 16.79C109.167 16.832 110.527 16.3023 111.528 15.3293C112.23 14.648 113.068 13.4439 113.068 11.5702C113.068 9.69644 112.23 8.49006 111.528 7.81104L111.53 7.81337ZM110.161 14.0926C109.51 14.7413 108.702 15.0703 107.764 15.0703C106.826 15.0703 106.042 14.7413 105.391 14.0926C104.757 13.4579 104.435 12.6109 104.435 11.5795C104.435 10.5481 104.757 9.69877 105.391 9.06642C106.042 8.41773 106.843 8.08872 107.764 8.08872C108.686 8.08872 109.507 8.41773 110.161 9.06642C110.809 9.71511 111.138 10.5621 111.138 11.5795C111.138 12.5969 110.809 13.4462 110.161 14.0926Z" fill="#0B0B0B" style="fill: rgb(11, 11, 11) !important;"/>
								<path d="M117.793 16.804C118.318 16.804 118.79 16.7317 119.196 16.5893L119.032 15.0189C118.787 15.0843 118.573 15.1146 118.36 15.1146C117.385 15.1146 116.893 14.5873 116.893 13.5489V8.13068H119.14V6.64896H116.893V3.93286H115.005V6.64896H113.381V8.13535H115.005V13.9176C115.005 15.859 115.917 16.804 117.796 16.804H117.793Z" fill="#0B0B0B" style="fill: rgb(11, 11, 11) !important;"/>
								<path d="M14.0003 2.50952H9.3335V4.50926H14.0003V2.50952Z" fill="#0B0B0B" style="fill: rgb(11, 11, 11) !important;"/>
								<path d="M9.33367 0.509766H0V2.50951H9.33367V0.509766Z" fill="#0B0B0B" style="fill: rgb(11, 11, 11) !important;"/>
								<path d="M9.33367 4.50928H0V6.50902H9.33367V4.50928Z" fill="#0B0B0B" style="fill: rgb(11, 11, 11) !important;"/>
								<path d="M18.6673 6.51123H14.0005V8.51097H18.6673V6.51123Z" fill="#0B0B0B" style="fill: rgb(11, 11, 11) !important;"/>
								<path d="M14.0005 8.51123H0V10.511H14.0005V8.51123Z" fill="#0B0B0B" style="fill: rgb(11, 11, 11) !important;"/>
								<path d="M18.6673 10.511H14.0005V12.5107H18.6673V10.511Z" fill="#0B0B0B" style="fill: rgb(11, 11, 11) !important;"/>
								<path d="M9.33367 12.5105H0V14.5102H9.33367V12.5105Z" fill="#0B0B0B" style="fill: rgb(11, 11, 11) !important;"/>
								<path d="M9.33367 16.51H0V18.5097H9.33367V16.51Z" fill="#0B0B0B" style="fill: rgb(11, 11, 11) !important;"/>
								<path d="M14.0003 14.5103H9.3335V16.51H14.0003V14.5103Z" fill="#0B0B0B" style="fill: rgb(11, 11, 11) !important;"/>
								<path d="M45.1283 6.3667H44.9183C43.8076 6.39703 42.9302 6.67238 42.2442 7.20906C41.6212 7.69908 41.2735 8.25677 41.1848 8.91479C41.1848 8.91479 41.1358 9.30914 41.1288 9.51915H42.8975C42.8999 9.29981 42.9792 8.91713 42.9792 8.91713C43.1122 8.17743 43.9266 7.72008 45.1283 7.72008C46.5657 7.72008 47.324 8.35477 47.324 9.55182V10.0558L44.0689 10.5739C41.8638 10.9169 40.5991 12.0882 40.5991 13.7893C40.5991 15.5907 41.9408 16.8017 43.9359 16.8017C45.4503 16.8017 46.547 16.1297 47.198 14.8067L47.366 14.4637V16.5194H49.2141V16.5264L49.2164 9.68249C49.2164 7.51474 47.8047 6.3667 45.1306 6.3667H45.1283ZM47.3264 11.8222C47.31 13.8453 46.0547 15.2547 44.2603 15.2547C43.2032 15.2547 42.4915 14.6177 42.4915 13.668C42.4915 12.7183 43.1705 12.1116 44.5123 11.8782L47.3334 11.3929L47.3264 11.8222Z" fill="#0B0B0B" style="fill: rgb(11, 11, 11) !important;"/>
								<path d="M61.5975 6.3667H61.3875C60.2768 6.39703 59.3994 6.67238 58.7134 7.20906C58.0904 7.69908 57.7427 8.25677 57.654 8.91479C57.654 8.91479 57.605 9.30914 57.598 9.51915H59.3668C59.3691 9.29981 59.4484 8.91713 59.4484 8.91713C59.5815 8.17743 60.3958 7.72008 61.5975 7.72008C63.0349 7.72008 63.7933 8.35477 63.7933 9.55182V10.0558L60.5382 10.5739C58.3331 10.9169 57.0684 12.0882 57.0684 13.7893C57.0684 15.5907 58.4101 16.8017 60.4051 16.8017C61.9195 16.8017 63.0162 16.1297 63.6673 14.8067L63.8353 14.4637V16.5194H65.6833V16.5264L65.6857 9.68249C65.6857 7.51474 64.274 6.3667 61.5999 6.3667H61.5975ZM63.7956 11.8222C63.7793 13.8453 62.5239 15.2547 60.7295 15.2547C59.6725 15.2547 58.9608 14.6177 58.9608 13.668C58.9608 12.7183 59.6398 12.1116 60.9815 11.8782L63.8026 11.3929L63.7956 11.8222Z" fill="#0B0B0B" style="fill: rgb(11, 11, 11) !important;"/>
							</svg>