<svg width="128" height="128" viewBox="0 0 128 128" fill="none" xmlns="http://www.w3.org/2000/svg">
<g clip-path="url(#clip0_240_6455)">
<g clip-path="url(#clip1_240_6455)">
<path d="M63.9999 0C28.9279 0 0.511916 28.16 -8.38116e-05 62.976C-0.512084 98.304 28.1599 127.744 63.4879 128C74.4959 128 84.9919 125.44 94.2079 120.32C95.2319 119.808 95.2319 118.528 94.4639 117.76L88.5759 112.384C87.2959 111.36 85.5039 111.104 84.2239 111.616C77.8239 114.432 70.6559 115.712 63.2319 115.712C34.5599 115.456 11.5199 91.648 12.0319 62.976C12.5439 34.816 35.5839 12.032 63.9999 12.032H115.968V104.192L86.2719 78.08C85.2479 77.312 83.9679 77.312 83.1999 78.336C78.5919 84.48 70.6559 88.576 62.2079 87.808C50.4319 87.04 40.7039 77.568 39.9359 65.536C38.9119 51.456 50.1759 39.424 63.9999 39.424C76.5439 39.424 87.0399 49.152 88.0639 61.44C88.0639 62.464 88.5759 63.488 89.5999 64.256L97.2799 71.168C98.0479 71.936 99.5839 71.424 99.8399 70.4C100.352 67.328 100.608 64.256 100.352 61.184C99.0719 43.264 84.4799 28.672 66.5599 27.648C45.8239 26.368 28.6719 42.496 28.1599 62.72C27.6479 82.432 43.7759 99.584 63.4879 99.84C71.6799 100.096 79.3599 97.536 85.5039 92.928L123.904 126.976C125.44 128.512 128.256 127.232 128.256 125.184V2.304C128 1.024 126.72 0 125.44 0H63.9999Z" fill="#003DFF"/>
</g>
</g>
<defs>
<clipPath id="clip0_240_6455">
<rect width="128" height="128" fill="white"/>
</clipPath>
<clipPath id="clip1_240_6455">
<rect width="128" height="128" fill="white"/>
</clipPath>
</defs>
</svg>
