<?xml version="1.0" encoding="UTF-8" standalone="no"?>
<!DOCTYPE svg PUBLIC "-//W3C//DTD SVG 1.1//EN" "http://www.w3.org/Graphics/SVG/1.1/DTD/svg11.dtd">
<svg xmlns="http://www.w3.org/2000/svg" version="1.1" viewBox="0.00 0.00 400.00 400.00">
<g stroke-width="2.00" fill="none" stroke-linecap="butt">
<path stroke="#808080" vector-effect="non-scaling-stroke" d="
  M 400.00 193.89
  Q 397.62 131.81 361.25 81.97
  Q 339.35 51.97 308.96 32.29
  C 243.70 -9.94 160.19 -10.65 94.20 30.44
  C 40.28 64.02 5.36 121.87 0.78 184.95
  Q -1.92 222.00 8.41 256.81
  Q 20.67 298.15 48.75 330.49
  Q 92.84 381.26 159.24 395.79
  Q 177.10 399.70 200.01 400.00"
/>
<path stroke="#808080" vector-effect="non-scaling-stroke" d="
  M 400.00 205.49
  Q 397.82 268.21 362.03 317.27
  Q 337.18 351.33 301.22 372.47
  Q 262.71 395.11 217.67 398.94
  Q 210.15 399.58 202.61 400.00"
/>
<path stroke="#7a797d" vector-effect="non-scaling-stroke" d="
  M 398.93 199.99
  A 198.83 198.83 0.0 0 0 200.10 1.16
  A 198.83 198.83 0.0 0 0 1.27 199.99
  A 198.83 198.83 0.0 0 0 200.10 398.82
  A 198.83 198.83 0.0 0 0 398.93 199.99"
/>
<path stroke="#a09aef" vector-effect="non-scaling-stroke" d="
  M 176.36 37.55
  C 87.40 50.25 25.52 133.46 38.25 222.64
  C 50.98 311.83 133.68 374.40 222.63 361.70
  C 311.59 349.00 373.47 265.79 360.74 176.61
  C 348.01 87.43 265.32 24.85 176.36 37.55"
/>
<path stroke="#a39ae8" vector-effect="non-scaling-stroke" d="
  M 302.52 200.98
  A 104.43 104.43 0.0 0 0 198.09 96.55
  A 104.43 104.43 0.0 0 0 93.66 200.98
  A 104.43 104.43 0.0 0 0 198.09 305.41
  A 104.43 104.43 0.0 0 0 302.52 200.98"
/>
<path stroke="#a39ae8" vector-effect="non-scaling-stroke" d="
  M 334.8577 193.3351
  A 8.21 8.21 0.0 0 0 326.6334 185.1394
  L 325.9134 185.1407
  A 8.21 8.21 0.0 0 0 317.7177 193.3650
  L 317.7623 218.9049
  A 8.21 8.21 0.0 0 0 325.9866 227.1006
  L 326.7066 227.0993
  A 8.21 8.21 0.0 0 0 334.9023 218.8750
  L 334.8577 193.3351"
/>
<path stroke="#7d7a76" vector-effect="non-scaling-stroke" d="
  M 203.7085 113.9322
  A 87.25 87.03 -86.4 0 0 111.3717 195.5453
  A 87.25 87.03 -86.4 0 0 192.7515 288.0878
  A 87.25 87.03 -86.4 0 0 285.0883 206.4747
  A 87.25 87.03 -86.4 0 0 203.7085 113.9322"
/>
<path stroke="#7f2511" vector-effect="non-scaling-stroke" d="
  M 274.11 201.13
  A 76.01 76.01 0.0 0 0 198.10 125.12
  A 76.01 76.01 0.0 0 0 122.09 201.13
  A 76.01 76.01 0.0 0 0 198.10 277.14
  A 76.01 76.01 0.0 0 0 274.11 201.13"
/>
<path stroke="#7f2511" vector-effect="non-scaling-stroke" d="
  M 148.4546 195.9735
  A 49.74 49.63 -174.2 0 0 192.9246 250.3759
  A 49.74 49.63 -174.2 0 0 247.4254 206.0265
  A 49.74 49.63 -174.2 0 0 202.9554 151.6241
  A 49.74 49.63 -174.2 0 0 148.4546 195.9735"
/>
<path stroke="#7d7a76" vector-effect="non-scaling-stroke" d="
  M 222.3146 186.7570
  A 12.30 12.30 0.0 0 0 209.9932 174.4785
  L 185.3132 174.5216
  A 12.30 12.30 0.0 0 0 173.0347 186.8430
  L 173.0854 215.8630
  A 12.30 12.30 0.0 0 0 185.4068 228.1415
  L 210.0868 228.0984
  A 12.30 12.30 0.0 0 0 222.3653 215.7770
  L 222.3146 186.7570"
/>
<path stroke="#91969b" vector-effect="non-scaling-stroke" d="
  M 214.1843 186.4812
  A 4.17 4.17 0.0 0 0 210.0070 182.3185
  L 185.2870 182.3616
  A 4.17 4.17 0.0 0 0 181.1243 186.5389
  L 181.1757 215.9988
  A 4.17 4.17 0.0 0 0 185.3530 220.1615
  L 210.0730 220.1184
  A 4.17 4.17 0.0 0 0 214.2357 215.9411
  L 214.1843 186.4812"
/>
<path stroke="#8e96a3" vector-effect="non-scaling-stroke" d="
  M 191.7924 188.6355
  A 4.12 3.98 -62.5 0 0 186.3597 190.4522
  A 4.12 3.98 -62.5 0 0 187.9876 195.9445
  A 4.12 3.98 -62.5 0 0 193.4203 194.1278
  A 4.12 3.98 -62.5 0 0 191.7924 188.6355"
/>
<path stroke="#8e96a3" vector-effect="non-scaling-stroke" d="
  M 209.44 192.32
  A 3.98 3.98 0.0 0 0 205.46 188.34
  A 3.98 3.98 0.0 0 0 201.48 192.32
  A 3.98 3.98 0.0 0 0 205.46 196.30
  A 3.98 3.98 0.0 0 0 209.44 192.32"
/>
</g>
<path fill="#ffffff" d="
  M 400.00 0.00
  L 400.00 193.89
  Q 397.62 131.81 361.25 81.97
  Q 339.35 51.97 308.96 32.29
  C 243.70 -9.94 160.19 -10.65 94.20 30.44
  C 40.28 64.02 5.36 121.87 0.78 184.95
  Q -1.92 222.00 8.41 256.81
  Q 20.67 298.15 48.75 330.49
  Q 92.84 381.26 159.24 395.79
  Q 177.10 399.70 200.01 400.00
  L 0.00 400.00
  L 0.00 0.00
  L 400.00 0.00
  Z"
/>
<path fill="#000000" d="
  M 400.00 193.89
  L 400.00 205.49
  Q 397.82 268.21 362.03 317.27
  Q 337.18 351.33 301.22 372.47
  Q 262.71 395.11 217.67 398.94
  Q 210.15 399.58 202.61 400.00
  L 200.01 400.00
  Q 177.10 399.70 159.24 395.79
  Q 92.84 381.26 48.75 330.49
  Q 20.67 298.15 8.41 256.81
  Q -1.92 222.00 0.78 184.95
  C 5.36 121.87 40.28 64.02 94.20 30.44
  C 160.19 -10.65 243.70 -9.94 308.96 32.29
  Q 339.35 51.97 361.25 81.97
  Q 397.62 131.81 400.00 193.89
  Z
  M 398.93 199.99
  A 198.83 198.83 0.0 0 0 200.10 1.16
  A 198.83 198.83 0.0 0 0 1.27 199.99
  A 198.83 198.83 0.0 0 0 200.10 398.82
  A 198.83 198.83 0.0 0 0 398.93 199.99
  Z"
/>
<path fill="#f3f2fa" d="
  M 398.93 199.99
  A 198.83 198.83 0.0 0 1 200.10 398.82
  A 198.83 198.83 0.0 0 1 1.27 199.99
  A 198.83 198.83 0.0 0 1 200.10 1.16
  A 198.83 198.83 0.0 0 1 398.93 199.99
  Z
  M 176.36 37.55
  C 87.40 50.25 25.52 133.46 38.25 222.64
  C 50.98 311.83 133.68 374.40 222.63 361.70
  C 311.59 349.00 373.47 265.79 360.74 176.61
  C 348.01 87.43 265.32 24.85 176.36 37.55
  Z"
/>
<path fill="#4c41e4" d="
  M 360.74 176.61
  C 373.47 265.79 311.59 349.00 222.63 361.70
  C 133.68 374.40 50.98 311.83 38.25 222.64
  C 25.52 133.46 87.40 50.25 176.36 37.55
  C 265.32 24.85 348.01 87.43 360.74 176.61
  Z
  M 302.52 200.98
  A 104.43 104.43 0.0 0 0 198.09 96.55
  A 104.43 104.43 0.0 0 0 93.66 200.98
  A 104.43 104.43 0.0 0 0 198.09 305.41
  A 104.43 104.43 0.0 0 0 302.52 200.98
  Z
  M 334.8577 193.3351
  A 8.21 8.21 0.0 0 0 326.6334 185.1394
  L 325.9134 185.1407
  A 8.21 8.21 0.0 0 0 317.7177 193.3650
  L 317.7623 218.9049
  A 8.21 8.21 0.0 0 0 325.9866 227.1006
  L 326.7066 227.0993
  A 8.21 8.21 0.0 0 0 334.9023 218.8750
  L 334.8577 193.3351
  Z"
/>
<path fill="#faf3eb" d="
  M 302.52 200.98
  A 104.43 104.43 0.0 0 1 198.09 305.41
  A 104.43 104.43 0.0 0 1 93.66 200.98
  A 104.43 104.43 0.0 0 1 198.09 96.55
  A 104.43 104.43 0.0 0 1 302.52 200.98
  Z
  M 203.7085 113.9322
  A 87.25 87.03 -86.4 0 0 111.3717 195.5453
  A 87.25 87.03 -86.4 0 0 192.7515 288.0878
  A 87.25 87.03 -86.4 0 0 285.0883 206.4747
  A 87.25 87.03 -86.4 0 0 203.7085 113.9322
  Z"
/>
<path fill="#000000" d="
  M 203.7085 113.9322
  A 87.25 87.03 -86.4 0 1 285.0883 206.4747
  A 87.25 87.03 -86.4 0 1 192.7515 288.0878
  A 87.25 87.03 -86.4 0 1 111.3717 195.5453
  A 87.25 87.03 -86.4 0 1 203.7085 113.9322
  Z
  M 274.11 201.13
  A 76.01 76.01 0.0 0 0 198.10 125.12
  A 76.01 76.01 0.0 0 0 122.09 201.13
  A 76.01 76.01 0.0 0 0 198.10 277.14
  A 76.01 76.01 0.0 0 0 274.11 201.13
  Z"
/>
<path fill="#fd4921" d="
  M 274.11 201.13
  A 76.01 76.01 0.0 0 1 198.10 277.14
  A 76.01 76.01 0.0 0 1 122.09 201.13
  A 76.01 76.01 0.0 0 1 198.10 125.12
  A 76.01 76.01 0.0 0 1 274.11 201.13
  Z
  M 148.4546 195.9735
  A 49.74 49.63 -174.2 0 0 192.9246 250.3759
  A 49.74 49.63 -174.2 0 0 247.4254 206.0265
  A 49.74 49.63 -174.2 0 0 202.9554 151.6241
  A 49.74 49.63 -174.2 0 0 148.4546 195.9735
  Z"
/>
<path fill="#000000" d="
  M 148.4546 195.9735
  A 49.74 49.63 -174.2 0 1 202.9554 151.6241
  A 49.74 49.63 -174.2 0 1 247.4254 206.0265
  A 49.74 49.63 -174.2 0 1 192.9246 250.3759
  A 49.74 49.63 -174.2 0 1 148.4546 195.9735
  Z
  M 222.3146 186.7570
  A 12.30 12.30 0.0 0 0 209.9932 174.4785
  L 185.3132 174.5216
  A 12.30 12.30 0.0 0 0 173.0347 186.8430
  L 173.0854 215.8630
  A 12.30 12.30 0.0 0 0 185.4068 228.1415
  L 210.0868 228.0984
  A 12.30 12.30 0.0 0 0 222.3653 215.7770
  L 222.3146 186.7570
  Z"
/>
<path fill="#faf3eb" d="
  M 222.3653 215.7770
  A 12.30 12.30 0.0 0 1 210.0868 228.0984
  L 185.4068 228.1415
  A 12.30 12.30 0.0 0 1 173.0854 215.8630
  L 173.0347 186.8430
  A 12.30 12.30 0.0 0 1 185.3132 174.5216
  L 209.9932 174.4785
  A 12.30 12.30 0.0 0 1 222.3146 186.7570
  L 222.3653 215.7770
  Z
  M 214.1843 186.4812
  A 4.17 4.17 0.0 0 0 210.0070 182.3185
  L 185.2870 182.3616
  A 4.17 4.17 0.0 0 0 181.1243 186.5389
  L 181.1757 215.9988
  A 4.17 4.17 0.0 0 0 185.3530 220.1615
  L 210.0730 220.1184
  A 4.17 4.17 0.0 0 0 214.2357 215.9411
  L 214.1843 186.4812
  Z"
/>
<path fill="#28394b" d="
  M 214.2357 215.9411
  A 4.17 4.17 0.0 0 1 210.0730 220.1184
  L 185.3530 220.1615
  A 4.17 4.17 0.0 0 1 181.1757 215.9988
  L 181.1243 186.5389
  A 4.17 4.17 0.0 0 1 185.2870 182.3616
  L 210.0070 182.3185
  A 4.17 4.17 0.0 0 1 214.1843 186.4812
  L 214.2357 215.9411
  Z
  M 191.7924 188.6355
  A 4.12 3.98 -62.5 0 0 186.3597 190.4522
  A 4.12 3.98 -62.5 0 0 187.9876 195.9445
  A 4.12 3.98 -62.5 0 0 193.4203 194.1278
  A 4.12 3.98 -62.5 0 0 191.7924 188.6355
  Z
  M 209.44 192.32
  A 3.98 3.98 0.0 0 0 205.46 188.34
  A 3.98 3.98 0.0 0 0 201.48 192.32
  A 3.98 3.98 0.0 0 0 205.46 196.30
  A 3.98 3.98 0.0 0 0 209.44 192.32
  Z"
/>
<rect fill="#faf3eb" x="-8.57" y="-20.98" transform="translate(326.31,206.12) rotate(-0.1)" width="17.14" height="41.96" rx="8.21"/>
<ellipse fill="#f3f2fa" cx="0.00" cy="0.00" transform="translate(189.89,192.29) rotate(-62.5)" rx="4.12" ry="3.98"/>
<circle fill="#f3f2fa" cx="205.46" cy="192.32" r="3.98"/>
<path fill="#ffffff" d="
  M 400.00 205.49
  L 400.00 400.00
  L 202.61 400.00
  Q 210.15 399.58 217.67 398.94
  Q 262.71 395.11 301.22 372.47
  Q 337.18 351.33 362.03 317.27
  Q 397.82 268.21 400.00 205.49
  Z"
/>
</svg>
