<svg class="w-36 h-auto" viewBox="0 0 140 40" fill="none" xmlns="http://www.w3.org/2000/svg" style="fill: none !important;">
  <title style="fill: none !important;">AltText.ai</title>
  <path d="M35.7574 4.12579L35.7571 4.12681L31.9059 17.6344L31.6724 18.4534L32.5174 18.3472L40.4371 17.3522C41.1538 17.2621 41.8487 17.6283 42.1857 18.2672C42.5203 18.9013 42.4248 19.6883 41.9459 20.2332C41.9458 20.2333 41.9457 20.2335 41.9455 20.2336L25.7751 38.515C25.7749 38.5152 25.7747 38.5154 25.7745 38.5156C25.2328 39.1221 24.3554 39.2734 23.6502 38.8822C22.9412 38.4889 22.5959 37.6539 22.8198 36.8744L22.82 36.8735L26.6722 23.3731L26.9059 22.5539L26.0607 22.6601L18.141 23.6552C17.4332 23.7441 16.7294 23.3736 16.3915 22.733C16.057 22.0989 16.1524 21.312 16.6312 20.7672C16.6313 20.767 16.6315 20.7668 16.6317 20.7666L32.8021 2.48522C32.8024 2.48494 32.8026 2.48465 32.8029 2.48437C33.3447 1.87806 34.2218 1.72685 34.927 2.11801C35.636 2.51135 35.9813 3.34632 35.7574 4.12579Z" stroke-width="1.12581" style="fill: none !important; stroke: rgb(37, 99, 235) !important; stroke-width: 1.12581px !important;"/>
  <path d="M41.6441 6.65332H39.0518L52.7521 20.3537C52.8333 20.4349 52.8333 20.5665 52.7521 20.6477L39.0518 34.3481H41.6441C43.6839 34.3481 45.6401 33.5378 47.0824 32.0954L56.9134 22.2645C57.8875 21.2904 57.8875 19.711 56.9134 18.7369L47.0824 8.90594C45.6401 7.46361 43.6839 6.65332 41.6441 6.65332Z" style="fill: rgb(209, 213, 219) !important;"/>
  <path d="M17.0331 6.65332H19.6255L5.9251 20.3537C5.84393 20.4349 5.84393 20.5665 5.9251 20.6477L19.6255 34.3481H17.0331C14.9934 34.3481 13.0372 33.5378 11.5948 32.0954L1.76386 22.2645C0.789751 21.2904 0.789753 19.711 1.76386 18.7369L11.5948 8.90594C13.0372 7.46361 14.9934 6.65332 17.0331 6.65332Z" style="fill: rgb(209, 213, 219) !important;"/>
  <path d="M138.478 15.3369C138.787 15.3369 139.022 15.6141 138.972 15.9188L137.447 25.1006C137.407 25.3419 137.199 25.5187 136.954 25.5187H135.507C135.198 25.5187 134.963 25.2415 135.014 24.9368L136.538 15.755C136.578 15.5138 136.787 15.3369 137.031 15.3369H138.478Z" style="fill: rgb(107, 114, 128) !important;"/>
  <path d="M127.295 25.2352C127.212 25.4085 127.036 25.5187 126.844 25.5187H125.325C124.953 25.5187 124.711 25.1264 124.879 24.7939L129.501 15.6121C129.586 15.4434 129.759 15.3369 129.947 15.3369H132.494C132.738 15.3369 132.946 15.5124 132.987 15.7525L134.561 24.9343C134.613 25.2397 134.378 25.5187 134.068 25.5187H132.448C132.2 25.5187 131.989 25.3368 131.953 25.0914L130.904 17.9478C130.9 17.9216 130.878 17.9023 130.851 17.9023C130.831 17.9023 130.812 17.914 130.803 17.9325L127.295 25.2352ZM127.406 21.9277C127.447 21.6874 127.655 21.5116 127.899 21.5116H132.413C132.723 21.5116 132.958 21.7903 132.906 22.0955L132.758 22.9648C132.717 23.2052 132.509 23.3809 132.265 23.3809H127.751C127.441 23.3809 127.206 23.1023 127.258 22.797L127.406 21.9277Z" style="fill: rgb(107, 114, 128) !important;"/>
  <path d="M122.973 25.663C122.611 25.663 122.316 25.5371 122.088 25.2852C121.859 25.0333 121.76 24.7283 121.789 24.3704C121.822 24.0191 121.978 23.7191 122.257 23.4705C122.535 23.2219 122.853 23.0977 123.211 23.0977C123.553 23.0977 123.839 23.2219 124.071 23.4705C124.307 23.7191 124.408 24.0191 124.375 24.3704C124.355 24.609 124.273 24.8261 124.131 25.0217C123.992 25.2172 123.819 25.373 123.614 25.489C123.408 25.605 123.195 25.663 122.973 25.663Z" style="fill: rgb(107, 114, 128) !important;"/>
  <path d="M113.699 17.3355C113.423 17.3355 113.199 17.1116 113.199 16.8355V15.8369C113.199 15.5608 113.423 15.3369 113.699 15.3369H121.305C121.581 15.3369 121.805 15.5608 121.805 15.8369V16.8355C121.805 17.1116 121.581 17.3355 121.305 17.3355H119.218C118.942 17.3355 118.718 17.5594 118.718 17.8355V25.0187C118.718 25.2949 118.494 25.5187 118.218 25.5187H116.792C116.515 25.5187 116.292 25.2949 116.292 25.0187V17.8355C116.292 17.5594 116.068 17.3355 115.792 17.3355H113.699Z" style="fill: rgb(55, 65, 81) !important;"/>
  <path d="M106.239 15.3369C106.417 15.3369 106.582 15.4321 106.671 15.5867L108.366 18.519C108.379 18.5404 108.402 18.5535 108.426 18.5535C108.451 18.5535 108.474 18.5405 108.486 18.5193L110.2 15.5847C110.29 15.4312 110.454 15.3369 110.632 15.3369H112.214C112.603 15.3369 112.843 15.762 112.642 16.0953L110.185 20.1653C110.088 20.3264 110.09 20.5284 110.189 20.6881L112.723 24.7543C112.93 25.0874 112.691 25.5187 112.298 25.5187H110.661C110.484 25.5187 110.32 25.4248 110.23 25.2719L108.486 22.3016C108.474 22.2804 108.451 22.2673 108.426 22.2673C108.402 22.2673 108.379 22.2804 108.366 22.3016L106.622 25.2719C106.532 25.4248 106.368 25.5187 106.191 25.5187H104.572C104.18 25.5187 103.94 25.0883 104.147 24.7552L106.669 20.688C106.768 20.5283 106.769 20.3266 106.672 20.1658L104.211 16.0956C104.01 15.7623 104.25 15.3369 104.639 15.3369H106.239Z" style="fill: rgb(55, 65, 81) !important;"/>
  <path d="M96.7358 25.5187C96.4597 25.5187 96.2358 25.2949 96.2358 25.0187V15.8369C96.2358 15.5608 96.4597 15.3369 96.7358 15.3369H102.835C103.111 15.3369 103.335 15.5608 103.335 15.8369V16.8355C103.335 17.1116 103.111 17.3355 102.835 17.3355H99.1968C98.9206 17.3355 98.6968 17.5594 98.6968 17.8355V18.9236C98.6968 19.1997 98.9206 19.4236 99.1968 19.4236H102.472C102.748 19.4236 102.972 19.6474 102.972 19.9236V20.9271C102.972 21.2033 102.748 21.4271 102.472 21.4271H99.1968C98.9206 21.4271 98.6968 21.651 98.6968 21.9271V23.0202C98.6968 23.2963 98.9206 23.5202 99.1968 23.5202H102.835C103.111 23.5202 103.335 23.744 103.335 24.0202V25.0187C103.335 25.2949 103.111 25.5187 102.835 25.5187H96.7358Z" style="fill: rgb(55, 65, 81) !important;"/>
  <path d="M87.7681 17.3355C87.4919 17.3355 87.2681 17.1116 87.2681 16.8355V15.8369C87.2681 15.5608 87.4919 15.3369 87.7681 15.3369H95.3739C95.65 15.3369 95.8739 15.5608 95.8739 15.8369V16.8355C95.8739 17.1116 95.65 17.3355 95.3739 17.3355H93.2865C93.0104 17.3355 92.7865 17.5594 92.7865 17.8355V25.0187C92.7865 25.2949 92.5627 25.5187 92.2865 25.5187H90.8604C90.5843 25.5187 90.3604 25.2949 90.3604 25.0187V17.8355C90.3604 17.5594 90.1365 17.3355 89.8604 17.3355H87.7681Z" style="fill: rgb(55, 65, 81) !important;"/>
  <path d="M79.1333 17.3355C78.8572 17.3355 78.6333 17.1116 78.6333 16.8355V15.8369C78.6333 15.5608 78.8572 15.3369 79.1333 15.3369H86.7391C87.0153 15.3369 87.2391 15.5608 87.2391 15.8369V16.8355C87.2391 17.1116 87.0153 17.3355 86.7391 17.3355H84.6518C84.3756 17.3355 84.1518 17.5594 84.1518 17.8355V25.0187C84.1518 25.2949 83.9279 25.5187 83.6518 25.5187H82.2256C81.9495 25.5187 81.7256 25.2949 81.7256 25.0187V17.8355C81.7256 17.5594 81.5018 17.3355 81.2256 17.3355H79.1333Z" style="fill: rgb(55, 65, 81) !important;"/>
  <path d="M73.5801 25.5187C73.3039 25.5187 73.0801 25.2949 73.0801 25.0187V15.8369C73.0801 15.5608 73.3039 15.3369 73.5801 15.3369H75.041C75.3172 15.3369 75.541 15.5608 75.541 15.8369V23.0202C75.541 23.2963 75.7649 23.5202 76.041 23.5202H79.2768C79.553 23.5202 79.7768 23.744 79.7768 24.0202V25.0187C79.7768 25.2949 79.553 25.5187 79.2768 25.5187H73.5801Z" style="fill: rgb(55, 65, 81) !important;"/>
  <path d="M65.4315 25.1682C65.3661 25.3768 65.1729 25.5187 64.9543 25.5187H63.3732C63.0311 25.5187 62.79 25.183 62.8994 24.8589L65.9974 15.6771C66.0659 15.4738 66.2566 15.3369 66.4711 15.3369H69.0294C69.244 15.3369 69.4346 15.4738 69.5032 15.6771L72.6011 24.8589C72.7105 25.183 72.4694 25.5187 72.1274 25.5187H70.546C70.3275 25.5187 70.1344 25.3769 70.0689 25.1685L67.7995 17.9402C67.7924 17.9176 67.7715 17.9023 67.7478 17.9023C67.7241 17.9023 67.7032 17.9176 67.6961 17.9402L65.4315 25.1682ZM64.9687 22.0116C64.9687 21.7355 65.1925 21.5116 65.4687 21.5116H69.9971C70.2732 21.5116 70.4971 21.7355 70.4971 22.0116V22.8809C70.4971 23.1571 70.2732 23.3809 69.9971 23.3809H65.4687C65.1925 23.3809 64.9687 23.1571 64.9687 22.8809V22.0116Z" style="fill: rgb(55, 65, 81) !important;"/>
</svg>