<svg width="128" height="128" viewBox="0 0 128 128" fill="none" xmlns="http://www.w3.org/2000/svg">
<rect width="128" height="128" fill="#7B4EFF"/>
<path d="M83.5037 20.1743L108.948 20.1677L108.927 107.584C102.67 107.454 96.3333 107.664 90.0701 107.577C87.9404 107.547 85.6954 107.576 83.5731 107.709C83.568 106.211 83.5715 104.823 83.6397 103.321C81.1387 104.39 76.6423 105.704 73.979 106.371C71.4786 106.965 68.9304 107.335 66.3643 107.476C42.3811 109.022 20.535 90.829 19.0332 66.4968C18.3154 55.1899 22.1419 44.0644 29.6626 35.591C37.8394 26.4538 49.31 20.9375 61.5529 20.255C70.0291 19.8846 75.7965 21.3534 83.5524 24.5027C83.5116 23.0602 83.4955 21.6172 83.5037 20.1743Z" fill="#FEFEFE"/>
<path d="M63.404 42.3307C67.7765 42.0755 72.0888 43.4483 75.5092 46.1842C80.3237 49.9938 82.7386 54.9771 83.4307 61.0334C84.127 66.91 82.4618 72.8227 78.8007 77.472C75.0998 82.1215 70.7337 84.0725 64.9167 84.7453C46.1454 85.2021 38.099 62.3435 49.4437 48.8889C53.2685 44.3529 57.6298 42.7571 63.404 42.3307Z" fill="#7B4EFF"/>
</svg>
