<svg width="128" height="128" viewBox="0 0 128 128" fill="none" xmlns="http://www.w3.org/2000/svg">
<rect width="128" height="128" fill="#E51937"/>
<path fill-rule="evenodd" clip-rule="evenodd" d="M67.5009 55.1361C72.2805 51.0891 77.2929 51.1717 81.5548 53.273C85.5182 55.3626 86.9388 58.368 87.0023 62.758L87.0002 73.5239C87.0002 73.5239 86.96 76.562 83.8456 76.562C80.8868 76.562 80.7471 73.5429 80.7471 73.5429L80.7048 62.9062C80.7048 62.9062 80.5248 57.9646 75.5833 57.9646C70.6164 57.9646 70.2215 62.8808 70.2215 62.8808V73.3608C70.2215 73.3608 70.2215 76.5334 67.0775 76.5334C64.0076 76.5334 63.9419 73.3608 63.9419 73.3608L63.9398 62.9199C63.9398 62.9199 63.834 57.9742 58.596 57.9742C53.3708 57.9742 53.5148 62.994 53.5148 62.994V73.7112C53.5148 73.7112 53.1506 76.5356 50.3951 76.5356C47.539 76.5356 47.2511 73.6848 47.2511 73.6848L47.232 62.849C47.232 58.8539 48.0048 54.8884 53.6873 52.6442C56.2587 51.6343 59.2862 51.6565 62.0068 52.2747C63.808 52.908 65.4716 53.8796 66.9081 55.1371L67.1971 55.3891L67.5147 55.1371L67.5009 55.1361ZM37.1828 73.4572C37.1828 70.3428 34.0949 70.3311 34.0949 70.3311H22.9638C22.3043 70.3311 22.227 69.8294 22.3858 69.2408C23.745 65.8533 26.7599 62.0847 29.9844 60.4333C32.652 59.0709 35.7092 57.6534 38.8797 57.8609C39.5435 57.9138 39.5435 58.2208 39.5445 59.2625V73.3069C39.5445 73.3069 39.7033 76.4964 42.7944 76.4964C45.9734 76.4964 45.7214 73.4127 45.7214 73.4127L45.7087 55.7765C45.7511 54.7052 45.5552 53.6752 44.9169 52.8516C44.4426 52.4197 43.8054 51.9667 43.0823 51.865C39.2926 51.5549 35.6552 51.8968 32.1788 52.9236C25.7023 54.7942 19.5255 60.0469 16.3539 66.2958C15.2741 68.4246 14.2748 71.2172 14.2325 73.7917C14.2748 75.0271 14.7882 76.4678 16.1983 76.4678L34.1436 76.5588C34.1436 76.5588 37.1828 76.6732 37.1828 73.4572ZM111.393 65.8109C114.534 66.1285 114.143 69.0852 114.143 69.0852C112.447 74.4184 107.45 77.6788 101.545 77.6788C98.0433 77.6772 94.6852 76.2851 92.2091 73.8086C89.733 71.3321 88.3415 67.9738 88.3404 64.4718C88.3426 60.9687 89.7361 57.6099 92.2144 55.134C94.6926 52.6582 98.0528 51.2679 101.556 51.269C107.477 51.269 112.487 54.159 114.153 59.5261C114.153 59.5261 114.952 62.759 111.477 63.1602C108.905 63.1602 108.508 61.0642 108.508 61.0642C107.513 58.1848 104.777 57.1241 101.558 57.1241C100.593 57.1238 99.6371 57.3137 98.7454 57.683C97.8537 58.0522 97.0435 58.5935 96.361 59.2759C95.6786 59.9584 95.1373 60.7686 94.7681 61.6603C94.3989 62.552 94.209 63.5078 94.2093 64.4729C94.2093 68.5326 97.4983 71.8248 101.558 71.8248C104.739 71.8248 107.444 70.4127 108.471 67.5862C108.471 67.5862 109.1 65.7601 111.384 65.812L111.393 65.8109Z" fill="white"/>
</svg>
