<svg width="128" height="128" viewBox="0 0 128 128" fill="none" xmlns="http://www.w3.org/2000/svg">
<g clip-path="url(#clip0_240_7028)">
<g clip-path="url(#clip1_240_7028)">
<path d="M51.8792 126.124L51.0655 125.565V109.91V94.2933H33.0166C19.48 94.2933 14.8568 94.1815 14.5239 93.846C14.191 93.5106 14.0801 88.2925 14.0801 72.6755C14.0801 53.2568 14.1171 51.7286 14.8198 49.045C16.891 40.8825 23.1785 34.2108 31.4632 31.4526C33.3495 30.819 35.5316 30.7445 59.3133 30.6326C81.5785 30.5581 85.0921 30.4463 85.0921 29.999C85.0921 29.7008 85.351 29.4399 85.6469 29.4399C86.0907 29.4399 86.2017 30.1108 86.2017 33.1671C86.2017 36.2235 86.0907 36.8943 85.6469 36.8943C85.351 36.8943 85.0921 36.6334 85.0921 36.3353C85.0921 35.8507 83.0209 35.7762 68.7815 35.7762H52.471L54.6901 38.1989C57.2791 40.957 59.1283 44.1624 60.3489 47.8896C61.1995 50.4614 61.1995 50.8341 61.3475 69.8055L61.4584 89.0752H85.1291H108.8L108.689 71.6692L108.578 54.2258L107.616 51.7286C105.064 45.1315 100.219 39.9879 94.3755 37.6398C92.7851 37.0434 92.4892 37.0062 92.4892 37.4534C92.4892 37.7516 92.2303 38.0125 91.9344 38.0125C91.4906 38.0125 91.3796 37.3416 91.3796 34.2853C91.3796 31.229 91.4906 30.5581 91.9344 30.5581C92.2303 30.5581 92.4892 30.7817 92.4892 31.0799C92.4892 31.4154 93.3029 31.8626 94.4494 32.2353C97.2233 33.1671 100.811 35.1798 103.622 37.4534C107.69 40.7706 110.908 45.6905 112.868 51.6168C113.719 54.1886 113.719 54.4495 113.867 73.4955C113.978 92.5415 113.978 92.7651 113.238 93.5106C112.461 94.2933 112.128 94.2933 94.7083 94.2933H76.9553V109.761C76.9553 124.745 76.9183 125.266 76.2156 125.975C75.5129 126.683 74.9951 126.72 64.0844 126.72C54.3942 126.72 52.5819 126.645 51.8792 126.124ZM71.6801 108.16V94.7199H63.3601H55.0401V108.16V121.6H63.3601H71.6801V108.16ZM56.2088 69.8161C56.0605 51.902 56.0234 51.2016 55.2447 48.8426C51.2397 36.8998 38.0382 32.1448 27.7291 39.0009C23.7984 41.5811 20.5721 46.078 19.608 50.3538C19.3484 51.3859 19.2001 58.9791 19.2001 70.1847V88.3199H37.7786H56.3201L56.2088 69.8161Z" fill="#003153"/>
<path d="M28.6074 64.9415C27.022 64.1233 26.7639 62.3008 28.0175 60.813C28.5337 60.2179 29.4555 60.1436 37.5304 60.1436H46.4902L47.2276 61.1106C48.1863 62.338 48.1863 63.1562 47.3014 64.272C46.6008 65.1647 46.527 65.1647 37.9728 65.2391C32.5158 65.2763 29.0868 65.1647 28.6074 64.9415Z" fill="#003153"/>
<path d="M85.5961 68.0674C84.3196 67.1162 82.8928 64.643 82.8928 63.2732C82.8928 62.1317 83.7564 60.0771 84.5073 59.4302C85.108 58.9736 85.1456 56.5385 85.1456 31.3879V3.84013H101.441C119.275 3.84013 118.862 3.80212 118.374 6.04703C118.261 6.65582 117.923 9.12902 117.698 11.5642C117.248 15.8257 117.548 22.0658 118.374 25.9849C118.862 28.1917 118.937 28.1917 105.195 28.1917H92.6548V43.4115C92.6548 58.4029 92.6548 58.6692 93.4433 59.7727C94.5697 61.2946 94.7574 64.1483 93.8938 65.8606C92.392 68.8284 88.2619 69.8938 85.5961 68.0674Z" fill="#F28500"/>
</g>
</g>
<defs>
<clipPath id="clip0_240_7028">
<rect width="128" height="128" fill="white"/>
</clipPath>
<clipPath id="clip1_240_7028">
<rect width="128" height="128" fill="white"/>
</clipPath>
</defs>
</svg>
