<svg width="128" height="128" viewBox="0 0 128 128" fill="none" xmlns="http://www.w3.org/2000/svg">
<g clip-path="url(#clip0_411_6112)">
<path fill-rule="evenodd" clip-rule="evenodd" d="M63.689 0H64.1407C69.086 0.0188454 74.0606 0.615616 78.9892 1.80078C95.6088 5.80438 109.675 16.05 118.598 30.6489C124.896 40.9364 128.148 52.7713 127.995 64.8679C127.472 99.6817 98.0428 128 62.3967 128H7.57376C5.04569 128 2.98392 125.937 2.98392 123.404C2.98392 122.6 3.20557 121.794 3.6196 121.077L9.42433 111.236C11.9838 107.004 11.9838 101.767 9.4327 97.5521C3.24321 87.4238 0.0439119 76.0391 0 64.4575V63.9696C0.0188194 59.0217 0.614767 54.0402 1.7983 49.109C5.79846 32.4664 16.0278 18.3826 30.6108 9.44782C40.7335 3.2435 52.1151 0.0397847 63.689 0Z" fill="#3778FF"/>
<path d="M84.8019 58.2878H66.2596C61.6604 58.2878 57.9195 61.6765 57.9195 65.8396C57.9195 70.0027 61.6604 73.3889 66.2596 73.3889H84.8019C89.3983 73.3889 93.142 70.0027 93.142 65.8396C93.142 61.6765 89.3983 58.2878 84.8019 58.2878Z" fill="white"/>
<path d="M56.7935 28.9493L43.6821 42.0607C40.4299 45.3128 40.1809 50.3542 43.1247 53.298C46.0684 56.2418 51.108 55.9909 54.3602 52.7388L67.4715 39.6274C70.7217 36.3772 70.9745 31.3357 68.0307 28.3919C65.087 25.4481 60.0436 25.6992 56.7935 28.9493Z" fill="white"/>
<path d="M67.4715 92.3976L54.3602 79.2863C51.108 76.0341 46.0666 75.7851 43.1229 78.7288C40.1791 81.6726 40.4299 86.7122 43.6821 89.9643L56.7935 103.076C60.0436 106.326 65.0852 106.579 68.029 103.635C70.9727 100.691 70.7217 95.6478 67.4715 92.3976Z" fill="white"/>
</g>
<defs>
<clipPath id="clip0_411_6112">
<rect width="128" height="128" fill="white"/>
</clipPath>
</defs>
</svg>
