<?xml version="1.0" encoding="UTF-8" standalone="no"?>
<!DOCTYPE svg PUBLIC "-//W3C//DTD SVG 1.1//EN" "http://www.w3.org/Graphics/SVG/1.1/DTD/svg11.dtd">
<svg xmlns="http://www.w3.org/2000/svg" version="1.1" viewBox="0.00 0.00 180.00 180.00">
<g stroke-width="2.00" fill="none" stroke-linecap="butt">
<path stroke="#85d4cf" vector-effect="non-scaling-stroke" d="
  M 99.71 35.28
  C 112.37 40.37 117.42 53.98 112.65 66.66
  A 1.75 1.72 54.5 0 0 112.54 67.37
  Q 112.68 70.70 115.89 71.44
  A 3.57 3.56 23.1 0 0 119.67 69.93
  Q 120.88 68.09 121.53 65.26
  C 125.12 49.55 117.97 33.87 102.74 27.75
  C 87.51 21.63 71.50 28.00 63.22 41.82
  Q 61.72 44.31 61.32 46.48
  A 3.57 3.56 20.7 0 0 63.01 50.18
  Q 65.84 51.87 68.24 49.56
  A 1.75 1.72 -10.7 0 0 68.66 48.97
  C 73.99 36.53 87.06 30.19 99.71 35.28"
/>
<path stroke="#d1eeec" vector-effect="non-scaling-stroke" d="
  M 43.46 97.55
  Q 43.33 98.01 43.72 98.18
  Q 62.87 106.48 85.96 114.85"
/>
<path stroke="#85c4a0" vector-effect="non-scaling-stroke" d="
  M 85.96 114.85
  Q 90.40 116.19 94.74 118.05
  Q 100.12 120.36 102.15 120.21
  Q 105.91 119.93 107.80 115.49
  Q 110.67 108.76 119.47 86.52
  Q 121.61 81.11 116.87 77.79
  A 2.87 2.76 72.7 0 0 116.25 77.45
  Q 84.65 64.89 62.18 55.69
  Q 57.75 53.87 55.67 54.16
  Q 52.12 54.65 50.61 58.30
  Q 43.91 74.46 38.38 88.58
  A 3.00 2.83 60.4 0 0 38.17 89.44
  Q 37.61 95.60 43.46 97.55"
/>
<path stroke="#56b38d" vector-effect="non-scaling-stroke" d="
  M 85.96 114.85
  L 43.46 97.55"
/>
<path stroke="#85d4cf" vector-effect="non-scaling-stroke" d="
  M 106.14 152.41
  Q 112.53 153.40 119.25 153.41
  Q 129.76 153.41 153.49 153.34
  A 0.57 0.56 90.0 0 0 154.05 152.77
  L 154.05 145.83
  A 0.58 0.57 -90.0 0 0 153.48 145.25
  Q 121.71 145.32 115.58 145.11
  C 106.87 144.81 93.24 141.78 98.47 129.75
  C 99.68 126.96 99.30 123.98 96.23 123.26
  C 91.54 122.15 90.59 127.36 89.82 130.62
  Q 87.92 138.72 93.21 145.30"
/>
<path stroke="#d1eeec" vector-effect="non-scaling-stroke" d="
  M 93.21 145.30
  Q 80.74 145.15 68.25 145.11
  C 50.52 145.05 36.75 134.67 43.34 115.30
  Q 43.38 115.19 45.72 108.86
  A 3.77 3.76 20.5 0 0 43.51 104.03
  L 43.35 103.97
  A 4.07 4.06 22.5 0 0 38.22 106.09
  Q 32.89 117.83 33.68 127.06
  C 35.13 143.79 48.99 151.71 64.46 153.17
  Q 65.53 153.27 79.06 153.32
  Q 89.96 153.36 100.50 153.25
  Q 101.81 153.24 106.14 152.41"
/>
<path stroke="#56c3bc" vector-effect="non-scaling-stroke" d="
  M 93.21 145.30
  Q 98.54 150.28 106.14 152.41"
/>
<path stroke="#85c4a0" vector-effect="non-scaling-stroke" d="
  M 84.6024 84.2954
  A 4.75 4.75 0.0 0 0 81.9454 78.1258
  L 81.5551 77.9705
  A 4.75 4.75 0.0 0 0 75.3854 80.6276
  L 71.7176 89.8446
  A 4.75 4.75 0.0 0 0 74.3746 96.0142
  L 74.7649 96.1695
  A 4.75 4.75 0.0 0 0 80.9346 93.5124
  L 84.6024 84.2954"
/>
</g>
<path fill="#ffffff" d="
  M 180.00 0.00
  L 180.00 180.00
  L 0.00 180.00
  L 0.00 0.00
  L 180.00 0.00
  Z
  M 99.71 35.28
  C 112.37 40.37 117.42 53.98 112.65 66.66
  A 1.75 1.72 54.5 0 0 112.54 67.37
  Q 112.68 70.70 115.89 71.44
  A 3.57 3.56 23.1 0 0 119.67 69.93
  Q 120.88 68.09 121.53 65.26
  C 125.12 49.55 117.97 33.87 102.74 27.75
  C 87.51 21.63 71.50 28.00 63.22 41.82
  Q 61.72 44.31 61.32 46.48
  A 3.57 3.56 20.7 0 0 63.01 50.18
  Q 65.84 51.87 68.24 49.56
  A 1.75 1.72 -10.7 0 0 68.66 48.97
  C 73.99 36.53 87.06 30.19 99.71 35.28
  Z
  M 43.46 97.55
  Q 43.33 98.01 43.72 98.18
  Q 62.87 106.48 85.96 114.85
  Q 90.40 116.19 94.74 118.05
  Q 100.12 120.36 102.15 120.21
  Q 105.91 119.93 107.80 115.49
  Q 110.67 108.76 119.47 86.52
  Q 121.61 81.11 116.87 77.79
  A 2.87 2.76 72.7 0 0 116.25 77.45
  Q 84.65 64.89 62.18 55.69
  Q 57.75 53.87 55.67 54.16
  Q 52.12 54.65 50.61 58.30
  Q 43.91 74.46 38.38 88.58
  A 3.00 2.83 60.4 0 0 38.17 89.44
  Q 37.61 95.60 43.46 97.55
  Z
  M 106.14 152.41
  Q 112.53 153.40 119.25 153.41
  Q 129.76 153.41 153.49 153.34
  A 0.57 0.56 90.0 0 0 154.05 152.77
  L 154.05 145.83
  A 0.58 0.57 -90.0 0 0 153.48 145.25
  Q 121.71 145.32 115.58 145.11
  C 106.87 144.81 93.24 141.78 98.47 129.75
  C 99.68 126.96 99.30 123.98 96.23 123.26
  C 91.54 122.15 90.59 127.36 89.82 130.62
  Q 87.92 138.72 93.21 145.30
  Q 80.74 145.15 68.25 145.11
  C 50.52 145.05 36.75 134.67 43.34 115.30
  Q 43.38 115.19 45.72 108.86
  A 3.77 3.76 20.5 0 0 43.51 104.03
  L 43.35 103.97
  A 4.07 4.06 22.5 0 0 38.22 106.09
  Q 32.89 117.83 33.68 127.06
  C 35.13 143.79 48.99 151.71 64.46 153.17
  Q 65.53 153.27 79.06 153.32
  Q 89.96 153.36 100.50 153.25
  Q 101.81 153.24 106.14 152.41
  Z"
/>
<path fill="#0aa99f" d="
  M 102.74 27.75
  C 117.97 33.87 125.12 49.55 121.53 65.26
  Q 120.88 68.09 119.67 69.93
  A 3.57 3.56 23.1 0 1 115.89 71.44
  Q 112.68 70.70 112.54 67.37
  A 1.75 1.72 54.5 0 1 112.65 66.66
  C 117.42 53.98 112.37 40.37 99.71 35.28
  C 87.06 30.19 73.99 36.53 68.66 48.97
  A 1.75 1.72 -10.7 0 1 68.24 49.56
  Q 65.84 51.87 63.01 50.18
  A 3.57 3.56 20.7 0 1 61.32 46.48
  Q 61.72 44.31 63.22 41.82
  C 71.50 28.00 87.51 21.63 102.74 27.75
  Z"
/>
<path fill="#0a8941" d="
  M 85.96 114.85
  L 43.46 97.55
  Q 37.61 95.60 38.17 89.44
  A 3.00 2.83 60.4 0 1 38.38 88.58
  Q 43.91 74.46 50.61 58.30
  Q 52.12 54.65 55.67 54.16
  Q 57.75 53.87 62.18 55.69
  Q 84.65 64.89 116.25 77.45
  A 2.87 2.76 72.7 0 1 116.87 77.79
  Q 121.61 81.11 119.47 86.52
  Q 110.67 108.76 107.80 115.49
  Q 105.91 119.93 102.15 120.21
  Q 100.12 120.36 94.74 118.05
  Q 90.40 116.19 85.96 114.85
  Z
  M 84.6024 84.2954
  A 4.75 4.75 0.0 0 0 81.9454 78.1258
  L 81.5551 77.9705
  A 4.75 4.75 0.0 0 0 75.3854 80.6276
  L 71.7176 89.8446
  A 4.75 4.75 0.0 0 0 74.3746 96.0142
  L 74.7649 96.1695
  A 4.75 4.75 0.0 0 0 80.9346 93.5124
  L 84.6024 84.2954
  Z"
/>
<rect fill="#ffffff" x="-4.96" y="-9.71" transform="translate(78.16,87.07) rotate(21.7)" width="9.92" height="19.42" rx="4.75"/>
<path fill="#a2ddd9" d="
  M 85.96 114.85
  Q 62.87 106.48 43.72 98.18
  Q 43.33 98.01 43.46 97.55
  L 85.96 114.85
  Z"
/>
<path fill="#a2ddd9" d="
  M 93.21 145.30
  Q 98.54 150.28 106.14 152.41
  Q 101.81 153.24 100.50 153.25
  Q 89.96 153.36 79.06 153.32
  Q 65.53 153.27 64.46 153.17
  C 48.99 151.71 35.13 143.79 33.68 127.06
  Q 32.89 117.83 38.22 106.09
  A 4.07 4.06 22.5 0 1 43.35 103.97
  L 43.51 104.03
  A 3.77 3.76 20.5 0 1 45.72 108.86
  Q 43.38 115.19 43.34 115.30
  C 36.75 134.67 50.52 145.05 68.25 145.11
  Q 80.74 145.15 93.21 145.30
  Z"
/>
<path fill="#0aa99f" d="
  M 106.14 152.41
  Q 98.54 150.28 93.21 145.30
  Q 87.92 138.72 89.82 130.62
  C 90.59 127.36 91.54 122.15 96.23 123.26
  C 99.30 123.98 99.68 126.96 98.47 129.75
  C 93.24 141.78 106.87 144.81 115.58 145.11
  Q 121.71 145.32 153.48 145.25
  A 0.58 0.57 -90.0 0 1 154.05 145.83
  L 154.05 152.77
  A 0.57 0.56 -90.0 0 1 153.49 153.34
  Q 129.76 153.41 119.25 153.41
  Q 112.53 153.40 106.14 152.41
  Z"
/>
</svg>
