<?xml version="1.0" encoding="UTF-8" standalone="no"?>
<!DOCTYPE svg PUBLIC "-//W3C//DTD SVG 1.1//EN" "http://www.w3.org/Graphics/SVG/1.1/DTD/svg11.dtd">
<svg xmlns="http://www.w3.org/2000/svg" version="1.1" viewBox="0.00 0.00 256.00 256.00">
<g stroke-width="2.00" fill="none" stroke-linecap="butt">
<path stroke="#1e8796" vector-effect="non-scaling-stroke" d="
  M 79.10 161.63
  A 0.64 0.64 0.0 0 1 78.61 160.58
  Q 86.08 151.66 96.42 144.93
  C 109.54 136.41 124.81 126.40 127.17 110.01
  C 128.89 98.04 126.14 85.12 117.28 76.71
  C 107.75 67.67 94.04 65.07 80.80 65.25
  C 55.17 65.60 37.00 77.72 34.21 105.28
  A 0.63 0.62 -87.5 0 0 34.83 105.96
  L 66.69 105.96
  A 0.65 0.64 -87.6 0 0 67.33 105.36
  C 68.18 95.62 72.32 88.06 83.44 90.16
  Q 89.33 91.28 90.92 97.55
  Q 93.61 108.14 85.65 115.40
  Q 80.43 120.17 76.73 122.74
  C 65.70 130.38 55.68 137.81 48.03 147.53
  Q 34.31 164.95 35.61 187.79
  A 0.61 0.60 -1.5 0 0 36.22 188.36
  L 126.55 188.36
  A 0.67 0.65 4.0 0 0 127.21 187.80
  L 131.28 162.01
  A 0.33 0.32 -85.5 0 0 130.96 161.63
  L 79.10 161.63"
/>
<path stroke="#1e8796" vector-effect="non-scaling-stroke" d="
  M 186.16 95.08
  Q 181.89 100.10 178.25 105.50
  C 161.88 129.78 148.95 158.79 144.34 187.56
  A 0.69 0.69 0.0 0 0 145.02 188.36
  L 181.49 188.36
  A 0.71 0.70 4.2 0 0 182.19 187.76
  C 187.36 154.02 202.37 120.08 222.04 92.21
  A 2.83 2.83 0.0 0 0 222.55 90.59
  L 222.55 67.85
  A 0.38 0.38 0.0 0 0 222.17 67.47
  L 132.69 67.47
  A 0.40 0.40 0.0 0 0 132.29 67.87
  L 132.29 94.17
  A 0.38 0.38 0.0 0 0 132.67 94.55
  L 185.91 94.55
  A 0.32 0.32 0.0 0 1 186.16 95.08"
/>
</g>
<path fill="#3cdcd2" d="
  M 256.00 39.24
  L 256.00 215.78
  Q 254.68 222.90 247.67 225.45
  A 6.75 6.59 34.4 0 1 245.39 225.85
  L 10.21 225.85
  A 2.60 2.30 48.4 0 1 9.63 225.78
  Q 1.83 223.83 0.00 215.97
  L 0.00 39.33
  Q 1.24 33.12 6.24 30.53
  Q 8.93 29.14 14.51 29.14
  Q 130.24 29.16 245.95 29.14
  A 2.09 1.95 -34.5 0 1 246.55 29.23
  Q 254.39 31.48 256.00 39.24
  Z
  M 79.10 161.63
  A 0.64 0.64 0.0 0 1 78.61 160.58
  Q 86.08 151.66 96.42 144.93
  C 109.54 136.41 124.81 126.40 127.17 110.01
  C 128.89 98.04 126.14 85.12 117.28 76.71
  C 107.75 67.67 94.04 65.07 80.80 65.25
  C 55.17 65.60 37.00 77.72 34.21 105.28
  A 0.63 0.62 -87.5 0 0 34.83 105.96
  L 66.69 105.96
  A 0.65 0.64 -87.6 0 0 67.33 105.36
  C 68.18 95.62 72.32 88.06 83.44 90.16
  Q 89.33 91.28 90.92 97.55
  Q 93.61 108.14 85.65 115.40
  Q 80.43 120.17 76.73 122.74
  C 65.70 130.38 55.68 137.81 48.03 147.53
  Q 34.31 164.95 35.61 187.79
  A 0.61 0.60 -1.5 0 0 36.22 188.36
  L 126.55 188.36
  A 0.67 0.65 4.0 0 0 127.21 187.80
  L 131.28 162.01
  A 0.33 0.32 -85.5 0 0 130.96 161.63
  L 79.10 161.63
  Z
  M 186.16 95.08
  Q 181.89 100.10 178.25 105.50
  C 161.88 129.78 148.95 158.79 144.34 187.56
  A 0.69 0.69 0.0 0 0 145.02 188.36
  L 181.49 188.36
  A 0.71 0.70 4.2 0 0 182.19 187.76
  C 187.36 154.02 202.37 120.08 222.04 92.21
  A 2.83 2.83 0.0 0 0 222.55 90.59
  L 222.55 67.85
  A 0.38 0.38 0.0 0 0 222.17 67.47
  L 132.69 67.47
  A 0.40 0.40 0.0 0 0 132.29 67.87
  L 132.29 94.17
  A 0.38 0.38 0.0 0 0 132.67 94.55
  L 185.91 94.55
  A 0.32 0.32 0.0 0 1 186.16 95.08
  Z"
/>
<path fill="#00325a" d="
  M 79.10 161.63
  L 130.96 161.63
  A 0.33 0.32 -85.5 0 1 131.28 162.01
  L 127.21 187.80
  A 0.67 0.65 4.0 0 1 126.55 188.36
  L 36.22 188.36
  A 0.61 0.60 -1.5 0 1 35.61 187.79
  Q 34.31 164.95 48.03 147.53
  C 55.68 137.81 65.70 130.38 76.73 122.74
  Q 80.43 120.17 85.65 115.40
  Q 93.61 108.14 90.92 97.55
  Q 89.33 91.28 83.44 90.16
  C 72.32 88.06 68.18 95.62 67.33 105.36
  A 0.65 0.64 -87.6 0 1 66.69 105.96
  L 34.83 105.96
  A 0.63 0.62 -87.5 0 1 34.21 105.28
  C 37.00 77.72 55.17 65.60 80.80 65.25
  C 94.04 65.07 107.75 67.67 117.28 76.71
  C 126.14 85.12 128.89 98.04 127.17 110.01
  C 124.81 126.40 109.54 136.41 96.42 144.93
  Q 86.08 151.66 78.61 160.58
  A 0.64 0.64 0.0 0 0 79.10 161.63
  Z"
/>
<path fill="#00325a" d="
  M 186.16 95.08
  A 0.32 0.32 0.0 0 0 185.91 94.55
  L 132.67 94.55
  A 0.38 0.38 0.0 0 1 132.29 94.17
  L 132.29 67.87
  A 0.40 0.40 0.0 0 1 132.69 67.47
  L 222.17 67.47
  A 0.38 0.38 0.0 0 1 222.55 67.85
  L 222.55 90.59
  A 2.83 2.83 0.0 0 1 222.04 92.21
  C 202.37 120.08 187.36 154.02 182.19 187.76
  A 0.71 0.70 4.2 0 1 181.49 188.36
  L 145.02 188.36
  A 0.69 0.69 0.0 0 1 144.34 187.56
  C 148.95 158.79 161.88 129.78 178.25 105.50
  Q 181.89 100.10 186.16 95.08
  Z"
/>
</svg>
