<?xml version="1.0" encoding="UTF-8" standalone="no"?>
<!DOCTYPE svg PUBLIC "-//W3C//DTD SVG 1.1//EN" "http://www.w3.org/Graphics/SVG/1.1/DTD/svg11.dtd">
<svg xmlns="http://www.w3.org/2000/svg" version="1.1" viewBox="0.00 0.00 400.00 400.00">
<g stroke-width="2.00" fill="none" stroke-linecap="butt">
<path stroke="#8fd3eb" vector-effect="non-scaling-stroke" d="
  M 400.00 120.14
  L 0.00 120.16"
/>
<path stroke="#8fd3eb" vector-effect="non-scaling-stroke" d="
  M 400.00 281.57
  L 0.00 281.59"
/>
<path stroke="#8fd3eb" vector-effect="non-scaling-stroke" d="
  M 170.87 255.70
  C 170.64 245.32 175.90 237.90 183.33 231.56
  C 192.57 223.67 208.47 213.75 219.84 202.85
  Q 235.22 188.10 235.71 166.79
  C 236.00 154.33 231.69 142.06 221.41 134.83
  C 210.43 127.11 197.00 125.97 183.89 128.00
  C 175.43 129.31 166.91 133.79 160.69 139.32
  A 4.01 3.99 69.3 0 0 159.35 142.31
  L 159.35 156.82
  A 0.40 0.40 0.0 0 0 160.04 157.09
  C 169.41 147.15 182.57 139.44 196.49 140.79
  C 212.29 142.32 219.71 153.40 219.12 168.77
  C 218.58 182.82 210.47 194.04 199.51 202.53
  C 189.98 209.92 179.02 217.40 169.34 226.57
  C 161.74 233.78 155.91 242.97 154.68 252.98
  Q 153.67 261.28 153.84 269.79
  A 0.65 0.64 89.5 0 0 154.48 270.43
  L 240.39 270.43
  A 0.72 0.71 -90.0 0 0 241.10 269.71
  L 241.10 257.01
  A 0.87 0.87 0.0 0 0 240.23 256.14
  L 171.32 256.14
  A 0.45 0.45 0.0 0 1 170.87 255.70"
/>
<path stroke="#999999" vector-effect="non-scaling-stroke" d="
  M 381.5738 156.2971
  A 28.18 28.18 0.0 0 0 353.3447 128.1663
  L 268.7848 128.3139
  A 28.18 28.18 0.0 0 0 240.6540 156.5430
  L 240.8062 243.7229
  A 28.18 28.18 0.0 0 0 269.0353 271.8537
  L 353.5952 271.7061
  A 28.18 28.18 0.0 0 0 381.7260 243.4770
  L 381.5738 156.2971"
/>
<path stroke="#999999" vector-effect="non-scaling-stroke" d="
  M 137.59 242.63
  L 137.59 270.07
  A 0.36 0.36 0.0 0 0 137.95 270.43
  L 150.52 270.43
  A 0.76 0.76 0.0 0 0 151.28 269.67
  L 151.28 135.26
  A 0.55 0.54 -90.0 0 0 150.74 134.71
  L 138.02 134.71
  A 0.44 0.44 0.0 0 0 137.58 135.15
  L 137.58 163.30
  A 0.21 0.20 -60.5 0 1 137.20 163.41
  Q 125.21 142.65 101.69 135.76
  C 81.57 129.87 58.64 133.39 41.41 145.53
  C 23.25 158.33 13.64 178.46 13.12 200.74
  C 12.11 244.20 46.30 277.29 90.05 272.39
  Q 119.82 269.06 137.30 242.54
  A 0.16 0.16 0.0 0 1 137.59 242.63"
/>
<path stroke="#999999" vector-effect="non-scaling-stroke" d="
  M 302.31 265.96
  L 302.31 218.19
  A 0.42 0.42 0.0 0 1 302.74 217.77
  C 314.37 217.99 325.60 218.28 335.32 215.64
  C 352.54 210.95 359.85 196.08 360.49 179.25
  C 360.82 170.24 359.75 161.22 355.44 153.10
  C 349.87 142.59 342.07 137.50 330.19 135.91
  Q 322.31 134.85 316.74 134.79
  Q 300.81 134.62 273.75 134.71
  A 0.30 0.30 0.0 0 0 273.45 135.01
  L 273.45 266.18
  A 0.45 0.44 0.0 0 0 273.90 266.62
  L 301.65 266.62
  A 0.66 0.66 0.0 0 0 302.31 265.96"
/>
<path stroke="#999999" vector-effect="non-scaling-stroke" d="
  M 26.58 204.59
  C 27.65 237.12 51.56 260.64 84.57 259.56
  C 117.57 258.48 139.89 233.44 138.82 200.92
  C 137.76 168.39 113.85 144.87 80.84 145.95
  C 47.83 147.03 25.52 172.07 26.58 204.59"
/>
<path stroke="#999999" vector-effect="non-scaling-stroke" d="
  M 302.38 156.46
  L 302.24 194.82
  A 0.42 0.42 0.0 0 0 302.66 195.24
  L 314.46 195.28
  A 15.46 15.24 -89.8 0 0 329.76 179.88
  L 329.78 171.60
  A 15.46 15.24 -89.8 0 0 314.60 156.08
  L 302.80 156.04
  A 0.42 0.42 0.0 0 0 302.38 156.46"
/>
<path stroke="#8fd3eb" vector-effect="non-scaling-stroke" d="
  M 400.00 399.50
  Q 399.99 399.94 399.68 400.00"
/>
</g>
<path fill="#1ea6d6" d="
  M 400.00 0.00
  L 400.00 120.14
  L 0.00 120.16
  L 0.00 0.00
  L 400.00 0.00
  Z"
/>
<path fill="#ffffff" d="
  M 400.00 120.14
  L 400.00 281.57
  L 0.00 281.59
  L 0.00 120.16
  L 400.00 120.14
  Z
  M 170.87 255.70
  C 170.64 245.32 175.90 237.90 183.33 231.56
  C 192.57 223.67 208.47 213.75 219.84 202.85
  Q 235.22 188.10 235.71 166.79
  C 236.00 154.33 231.69 142.06 221.41 134.83
  C 210.43 127.11 197.00 125.97 183.89 128.00
  C 175.43 129.31 166.91 133.79 160.69 139.32
  A 4.01 3.99 69.3 0 0 159.35 142.31
  L 159.35 156.82
  A 0.40 0.40 0.0 0 0 160.04 157.09
  C 169.41 147.15 182.57 139.44 196.49 140.79
  C 212.29 142.32 219.71 153.40 219.12 168.77
  C 218.58 182.82 210.47 194.04 199.51 202.53
  C 189.98 209.92 179.02 217.40 169.34 226.57
  C 161.74 233.78 155.91 242.97 154.68 252.98
  Q 153.67 261.28 153.84 269.79
  A 0.65 0.64 89.5 0 0 154.48 270.43
  L 240.39 270.43
  A 0.72 0.71 -90.0 0 0 241.10 269.71
  L 241.10 257.01
  A 0.87 0.87 0.0 0 0 240.23 256.14
  L 171.32 256.14
  A 0.45 0.45 0.0 0 1 170.87 255.70
  Z
  M 381.5738 156.2971
  A 28.18 28.18 0.0 0 0 353.3447 128.1663
  L 268.7848 128.3139
  A 28.18 28.18 0.0 0 0 240.6540 156.5430
  L 240.8062 243.7229
  A 28.18 28.18 0.0 0 0 269.0353 271.8537
  L 353.5952 271.7061
  A 28.18 28.18 0.0 0 0 381.7260 243.4770
  L 381.5738 156.2971
  Z
  M 137.59 242.63
  L 137.59 270.07
  A 0.36 0.36 0.0 0 0 137.95 270.43
  L 150.52 270.43
  A 0.76 0.76 0.0 0 0 151.28 269.67
  L 151.28 135.26
  A 0.55 0.54 -90.0 0 0 150.74 134.71
  L 138.02 134.71
  A 0.44 0.44 0.0 0 0 137.58 135.15
  L 137.58 163.30
  A 0.21 0.20 -60.5 0 1 137.20 163.41
  Q 125.21 142.65 101.69 135.76
  C 81.57 129.87 58.64 133.39 41.41 145.53
  C 23.25 158.33 13.64 178.46 13.12 200.74
  C 12.11 244.20 46.30 277.29 90.05 272.39
  Q 119.82 269.06 137.30 242.54
  A 0.16 0.16 0.0 0 1 137.59 242.63
  Z"
/>
<path fill="#1ea6d6" d="
  M 170.87 255.70
  A 0.45 0.45 0.0 0 0 171.32 256.14
  L 240.23 256.14
  A 0.87 0.87 0.0 0 1 241.10 257.01
  L 241.10 269.71
  A 0.72 0.71 -90.0 0 1 240.39 270.43
  L 154.48 270.43
  A 0.65 0.64 89.5 0 1 153.84 269.79
  Q 153.67 261.28 154.68 252.98
  C 155.91 242.97 161.74 233.78 169.34 226.57
  C 179.02 217.40 189.98 209.92 199.51 202.53
  C 210.47 194.04 218.58 182.82 219.12 168.77
  C 219.71 153.40 212.29 142.32 196.49 140.79
  C 182.57 139.44 169.41 147.15 160.04 157.09
  A 0.40 0.40 0.0 0 1 159.35 156.82
  L 159.35 142.31
  A 4.01 3.99 69.3 0 1 160.69 139.32
  C 166.91 133.79 175.43 129.31 183.89 128.00
  C 197.00 125.97 210.43 127.11 221.41 134.83
  C 231.69 142.06 236.00 154.33 235.71 166.79
  Q 235.22 188.10 219.84 202.85
  C 208.47 213.75 192.57 223.67 183.33 231.56
  C 175.90 237.90 170.64 245.32 170.87 255.70
  Z"
/>
<path fill="#333333" d="
  M 381.7260 243.4770
  A 28.18 28.18 0.0 0 1 353.5952 271.7061
  L 269.0353 271.8537
  A 28.18 28.18 0.0 0 1 240.8062 243.7229
  L 240.6540 156.5430
  A 28.18 28.18 0.0 0 1 268.7848 128.3139
  L 353.3447 128.1663
  A 28.18 28.18 0.0 0 1 381.5738 156.2971
  L 381.7260 243.4770
  Z
  M 302.31 265.96
  L 302.31 218.19
  A 0.42 0.42 0.0 0 1 302.74 217.77
  C 314.37 217.99 325.60 218.28 335.32 215.64
  C 352.54 210.95 359.85 196.08 360.49 179.25
  C 360.82 170.24 359.75 161.22 355.44 153.10
  C 349.87 142.59 342.07 137.50 330.19 135.91
  Q 322.31 134.85 316.74 134.79
  Q 300.81 134.62 273.75 134.71
  A 0.30 0.30 0.0 0 0 273.45 135.01
  L 273.45 266.18
  A 0.45 0.44 0.0 0 0 273.90 266.62
  L 301.65 266.62
  A 0.66 0.66 0.0 0 0 302.31 265.96
  Z"
/>
<path fill="#333333" d="
  M 137.59 242.63
  A 0.16 0.16 0.0 0 0 137.30 242.54
  Q 119.82 269.06 90.05 272.39
  C 46.30 277.29 12.11 244.20 13.12 200.74
  C 13.64 178.46 23.25 158.33 41.41 145.53
  C 58.64 133.39 81.57 129.87 101.69 135.76
  Q 125.21 142.65 137.20 163.41
  A 0.21 0.20 -60.5 0 0 137.58 163.30
  L 137.58 135.15
  A 0.44 0.44 0.0 0 1 138.02 134.71
  L 150.74 134.71
  A 0.55 0.54 -90.0 0 1 151.28 135.26
  L 151.28 269.67
  A 0.76 0.76 0.0 0 1 150.52 270.43
  L 137.95 270.43
  A 0.36 0.36 0.0 0 1 137.59 270.07
  L 137.59 242.63
  Z
  M 26.58 204.59
  C 27.65 237.12 51.56 260.64 84.57 259.56
  C 117.57 258.48 139.89 233.44 138.82 200.92
  C 137.76 168.39 113.85 144.87 80.84 145.95
  C 47.83 147.03 25.52 172.07 26.58 204.59
  Z"
/>
<path fill="#ffffff" d="
  M 301.65 266.62
  L 273.90 266.62
  A 0.45 0.44 -0.0 0 1 273.45 266.18
  L 273.45 135.01
  A 0.30 0.30 0.0 0 1 273.75 134.71
  Q 300.81 134.62 316.74 134.79
  Q 322.31 134.85 330.19 135.91
  C 342.07 137.50 349.87 142.59 355.44 153.10
  C 359.75 161.22 360.82 170.24 360.49 179.25
  C 359.85 196.08 352.54 210.95 335.32 215.64
  C 325.60 218.28 314.37 217.99 302.74 217.77
  A 0.42 0.42 0.0 0 0 302.31 218.19
  L 302.31 265.96
  A 0.66 0.66 0.0 0 1 301.65 266.62
  Z
  M 302.38 156.46
  L 302.24 194.82
  A 0.42 0.42 0.0 0 0 302.66 195.24
  L 314.46 195.28
  A 15.46 15.24 -89.8 0 0 329.76 179.88
  L 329.78 171.60
  A 15.46 15.24 -89.8 0 0 314.60 156.08
  L 302.80 156.04
  A 0.42 0.42 0.0 0 0 302.38 156.46
  Z"
/>
<path fill="#ffffff" d="
  M 80.84 145.95
  C 113.85 144.87 137.76 168.39 138.82 200.92
  C 139.89 233.44 117.57 258.48 84.57 259.56
  C 51.56 260.64 27.65 237.12 26.58 204.59
  C 25.52 172.07 47.83 147.03 80.84 145.95
  Z"
/>
<path fill="#333333" d="
  M 302.38 156.46
  A 0.42 0.42 0.0 0 1 302.80 156.04
  L 314.60 156.08
  A 15.46 15.24 -89.8 0 1 329.78 171.60
  L 329.76 179.88
  A 15.46 15.24 -89.8 0 1 314.46 195.28
  L 302.66 195.24
  A 0.42 0.42 0.0 0 1 302.24 194.82
  L 302.38 156.46
  Z"
/>
<path fill="#1ea6d6" d="
  M 400.00 281.57
  L 400.00 399.50
  Q 399.99 399.94 399.68 400.00
  L 0.00 400.00
  L 0.00 281.59
  L 400.00 281.57
  Z"
/>
<path fill="#ffffff" d="
  M 400.00 399.50
  L 400.00 400.00
  L 399.68 400.00
  Q 399.99 399.94 400.00 399.50
  Z"
/>
</svg>
