<?xml version="1.0" encoding="UTF-8" standalone="no"?>
<!DOCTYPE svg PUBLIC "-//W3C//DTD SVG 1.1//EN" "http://www.w3.org/Graphics/SVG/1.1/DTD/svg11.dtd">
<svg xmlns="http://www.w3.org/2000/svg" version="1.1" viewBox="0.00 0.00 321.00 321.00">
<g stroke-width="2.00" fill="none" stroke-linecap="butt">
<path stroke="#f8b985" vector-effect="non-scaling-stroke" d="
  M 244.46 100.89
  A 0.53 0.52 65.7 0 0 245.38 101.24
  Q 254.97 90.39 268.37 86.90
  A 1.82 1.82 0.0 0 0 269.74 85.14
  L 269.74 74.02
  A 0.84 0.84 0.0 0 0 268.90 73.18
  L 245.19 73.18
  A 0.74 0.73 -90.0 0 0 244.46 73.92
  L 244.46 100.89"
/>
<path stroke="#e6e6e6" vector-effect="non-scaling-stroke" d="
  M 165.25 73.89
  L 165.25 174.44
  A 0.36 0.35 0.0 0 0 165.61 174.79
  L 189.43 174.79
  A 0.77 0.77 0.0 0 0 190.20 174.02
  L 190.20 98.59
  A 0.47 0.46 88.0 0 1 190.63 98.12
  C 195.28 97.72 204.17 97.63 203.77 104.47
  C 203.51 108.91 200.29 109.61 196.71 110.10
  A 0.90 0.89 86.4 0 0 195.93 110.99
  L 195.93 133.77
  A 0.86 0.86 0.0 0 0 196.83 134.63
  C 208.23 134.14 218.21 130.38 224.38 120.30
  C 228.65 113.33 229.26 102.29 227.15 94.83
  Q 223.36 81.43 211.67 76.40
  Q 205.92 73.93 192.29 73.68
  Q 174.02 73.36 165.60 73.53
  A 0.36 0.36 0.0 0 0 165.25 73.89"
/>
<path stroke="#e6e6e6" vector-effect="non-scaling-stroke" d="
  M 98.21 114.68
  A 0.65 0.65 0.0 0 1 99.43 114.68
  L 122.87 176.00
  A 0.74 0.73 -10.3 0 0 123.56 176.47
  L 148.06 176.47
  A 0.85 0.85 0.0 0 0 148.86 175.32
  L 110.87 75.97
  A 1.56 1.56 0.0 0 0 109.41 74.96
  L 88.36 74.96
  A 1.94 1.94 0.0 0 0 86.55 76.20
  L 48.17 175.48
  A 0.77 0.77 0.0 0 0 48.89 176.53
  L 72.98 176.53
  A 2.05 2.05 0.0 0 0 74.89 175.23
  Q 78.94 164.90 88.71 160.65
  C 94.98 157.92 103.72 158.12 109.79 161.25
  A 0.96 0.96 0.0 0 0 111.13 160.05
  L 101.04 133.66
  A 1.92 1.91 -10.4 0 0 99.25 132.43
  L 92.47 132.43
  A 0.77 0.76 -79.3 0 1 91.76 131.38
  L 98.21 114.68"
/>
<path stroke="#c4c6c8" vector-effect="non-scaling-stroke" d="
  M 268.12 92.36
  Q 255.57 96.14 247.24 107.70
  Q 244.51 111.49 244.54 116.24
  Q 244.60 124.29 244.64 174.37
  A 0.58 0.58 0.0 0 0 245.22 174.95
  L 268.80 174.95
  A 0.64 0.63 90.0 0 0 269.43 174.31
  L 269.43 93.33
  A 1.01 1.01 0.0 0 0 268.12 92.36"
/>
<path stroke="#c4c6c8" vector-effect="non-scaling-stroke" d="
  M 269.41 199.44
  A 0.29 0.29 0.0 0 0 269.12 199.15
  L 48.46 199.15
  A 0.29 0.29 0.0 0 0 48.17 199.44
  L 48.17 199.48
  A 0.29 0.29 0.0 0 0 48.46 199.77
  L 269.12 199.77
  A 0.29 0.29 0.0 0 0 269.41 199.48
  L 269.41 199.44"
/>
<path stroke="#abacad" vector-effect="non-scaling-stroke" d="
  M 69.00 235.90
  A 1.20 1.10 85.3 0 0 67.63 237.67
  C 70.12 241.38 78.76 241.75 81.03 237.64
  C 82.53 234.94 81.17 231.45 78.28 230.19
  C 76.69 229.50 71.42 228.62 70.63 226.06
  A 2.57 2.52 -20.4 0 1 72.07 222.99
  Q 75.43 221.52 79.14 224.33
  A 0.86 0.86 0.0 0 0 80.47 223.96
  L 80.59 223.63
  A 1.61 1.61 0.0 0 0 79.88 221.65
  Q 74.80 218.77 70.96 220.76
  Q 66.82 222.91 68.43 227.28
  C 69.70 230.70 74.41 231.46 76.70 232.35
  C 79.70 233.51 79.98 236.82 76.72 237.78
  Q 73.43 238.75 70.49 236.86
  Q 69.11 235.96 69.00 235.90"
/>
<path stroke="#abacad" vector-effect="non-scaling-stroke" d="
  M 151.74 230.32
  A 10.34 10.34 0.0 0 0 141.40 219.98
  A 10.34 10.34 0.0 0 0 131.06 230.32
  A 10.34 10.34 0.0 0 0 141.40 240.66
  A 10.34 10.34 0.0 0 0 151.74 230.32"
/>
<path stroke="#abacad" vector-effect="non-scaling-stroke" d="
  M 180.15 233.69
  A 0.71 0.71 0.0 0 1 180.38 232.66
  Q 183.60 230.80 183.78 228.02
  Q 184.24 220.66 177.27 220.26
  Q 173.36 220.03 169.52 220.29
  A 0.64 0.64 0.0 0 0 168.92 220.93
  L 168.92 239.22
  A 0.94 0.94 0.0 0 0 169.86 240.16
  L 170.31 240.16
  A 1.28 1.28 0.0 0 0 171.59 238.88
  L 171.59 223.38
  A 0.61 0.61 0.0 0 1 172.20 222.77
  Q 176.63 222.81 177.89 222.91
  A 3.54 3.09 -4.5 0 1 180.90 225.14
  Q 181.89 228.46 179.60 230.02
  C 178.42 230.82 176.04 230.84 175.00 231.12
  A 1.16 1.16 0.0 0 0 174.89 233.32
  Q 177.65 234.37 180.30 238.21
  C 181.36 239.73 183.01 240.76 184.65 239.84
  A 1.15 1.15 0.0 0 0 184.38 237.72
  Q 182.67 237.26 180.15 233.69"
/>
<path stroke="#abacad" vector-effect="non-scaling-stroke" d="
  M 237.50 235.89
  A 1.20 1.10 85.2 0 0 236.13 237.67
  C 238.63 241.37 247.27 241.73 249.53 237.61
  C 251.02 234.91 249.66 231.42 246.77 230.17
  C 245.18 229.48 239.90 228.61 239.11 226.05
  A 2.57 2.52 -20.5 0 1 240.54 222.98
  Q 243.90 221.50 247.62 224.31
  A 0.86 0.86 0.0 0 0 248.94 223.93
  L 249.06 223.60
  A 1.61 1.60 -64.9 0 0 248.35 221.62
  Q 243.27 218.75 239.43 220.75
  Q 235.29 222.91 236.91 227.28
  C 238.19 230.69 242.90 231.44 245.19 232.33
  C 248.19 233.48 248.48 236.79 245.22 237.76
  Q 241.93 238.74 238.99 236.85
  Q 237.61 235.95 237.50 235.89"
/>
<path stroke="#abacad" vector-effect="non-scaling-stroke" d="
  M 102.93 222.78
  L 108.34 222.78
  A 2.74 2.73 84.8 0 1 111.03 225.03
  C 111.95 230.12 109.21 230.93 105.34 231.07
  A 1.13 1.13 0.0 0 0 104.25 232.25
  L 104.25 232.28
  A 1.25 1.24 1.0 0 0 105.41 233.47
  C 110.19 233.82 114.59 231.09 113.78 225.75
  C 112.74 218.87 104.94 220.11 99.61 220.35
  A 0.65 0.64 88.6 0 0 99.00 221.00
  L 99.00 239.13
  A 1.00 1.00 0.0 0 0 100.00 240.13
  L 100.37 240.13
  A 1.12 1.11 0.0 0 0 101.49 239.02
  L 101.49 224.23
  A 1.45 1.44 90.0 0 1 102.93 222.78"
/>
<path stroke="#abacad" vector-effect="non-scaling-stroke" d="
  M 210.50 240.21
  Q 211.76 240.21 211.74 237.26
  Q 211.66 227.15 211.75 223.34
  A 0.57 0.57 0.0 0 1 212.32 222.78
  L 217.59 222.78
  A 0.95 0.95 0.0 0 0 218.54 221.83
  L 218.54 221.40
  A 1.15 1.15 0.0 0 0 217.38 220.25
  Q 214.16 220.29 210.50 220.24
  Q 206.85 220.29 203.63 220.25
  A 1.15 1.15 0.0 0 0 202.47 221.40
  L 202.47 221.83
  A 0.95 0.95 0.0 0 0 203.42 222.78
  L 208.69 222.78
  A 0.57 0.57 0.0 0 1 209.26 223.34
  Q 209.35 227.15 209.27 237.25
  Q 209.24 240.21 210.50 240.21"
/>
<path stroke="#abacad" vector-effect="non-scaling-stroke" d="
  M 149.16 230.29
  A 7.74 7.74 0.0 0 0 141.42 222.55
  A 7.74 7.74 0.0 0 0 133.68 230.29
  A 7.74 7.74 0.0 0 0 141.42 238.03
  A 7.74 7.74 0.0 0 0 149.16 230.29"
/>
</g>
<path fill="#ffffff" d="
  M 321.00 0.00
  L 321.00 321.00
  L 0.00 321.00
  L 0.00 0.00
  L 321.00 0.00
  Z
  M 244.46 100.89
  A 0.53 0.52 65.7 0 0 245.38 101.24
  Q 254.97 90.39 268.37 86.90
  A 1.82 1.82 0.0 0 0 269.74 85.14
  L 269.74 74.02
  A 0.84 0.84 0.0 0 0 268.90 73.18
  L 245.19 73.18
  A 0.74 0.73 -90.0 0 0 244.46 73.92
  L 244.46 100.89
  Z
  M 165.25 73.89
  L 165.25 174.44
  A 0.36 0.35 0.0 0 0 165.61 174.79
  L 189.43 174.79
  A 0.77 0.77 0.0 0 0 190.20 174.02
  L 190.20 98.59
  A 0.47 0.46 88.0 0 1 190.63 98.12
  C 195.28 97.72 204.17 97.63 203.77 104.47
  C 203.51 108.91 200.29 109.61 196.71 110.10
  A 0.90 0.89 86.4 0 0 195.93 110.99
  L 195.93 133.77
  A 0.86 0.86 0.0 0 0 196.83 134.63
  C 208.23 134.14 218.21 130.38 224.38 120.30
  C 228.65 113.33 229.26 102.29 227.15 94.83
  Q 223.36 81.43 211.67 76.40
  Q 205.92 73.93 192.29 73.68
  Q 174.02 73.36 165.60 73.53
  A 0.36 0.36 0.0 0 0 165.25 73.89
  Z
  M 98.21 114.68
  A 0.65 0.65 0.0 0 1 99.43 114.68
  L 122.87 176.00
  A 0.74 0.73 -10.3 0 0 123.56 176.47
  L 148.06 176.47
  A 0.85 0.85 0.0 0 0 148.86 175.32
  L 110.87 75.97
  A 1.56 1.56 0.0 0 0 109.41 74.96
  L 88.36 74.96
  A 1.94 1.94 0.0 0 0 86.55 76.20
  L 48.17 175.48
  A 0.77 0.77 0.0 0 0 48.89 176.53
  L 72.98 176.53
  A 2.05 2.05 0.0 0 0 74.89 175.23
  Q 78.94 164.90 88.71 160.65
  C 94.98 157.92 103.72 158.12 109.79 161.25
  A 0.96 0.96 0.0 0 0 111.13 160.05
  L 101.04 133.66
  A 1.92 1.91 -10.4 0 0 99.25 132.43
  L 92.47 132.43
  A 0.77 0.76 -79.3 0 1 91.76 131.38
  L 98.21 114.68
  Z
  M 268.12 92.36
  Q 255.57 96.14 247.24 107.70
  Q 244.51 111.49 244.54 116.24
  Q 244.60 124.29 244.64 174.37
  A 0.58 0.58 0.0 0 0 245.22 174.95
  L 268.80 174.95
  A 0.64 0.63 90.0 0 0 269.43 174.31
  L 269.43 93.33
  A 1.01 1.01 0.0 0 0 268.12 92.36
  Z
  M 269.41 199.44
  A 0.29 0.29 0.0 0 0 269.12 199.15
  L 48.46 199.15
  A 0.29 0.29 0.0 0 0 48.17 199.44
  L 48.17 199.48
  A 0.29 0.29 0.0 0 0 48.46 199.77
  L 269.12 199.77
  A 0.29 0.29 0.0 0 0 269.41 199.48
  L 269.41 199.44
  Z
  M 69.00 235.90
  A 1.20 1.10 85.3 0 0 67.63 237.67
  C 70.12 241.38 78.76 241.75 81.03 237.64
  C 82.53 234.94 81.17 231.45 78.28 230.19
  C 76.69 229.50 71.42 228.62 70.63 226.06
  A 2.57 2.52 -20.4 0 1 72.07 222.99
  Q 75.43 221.52 79.14 224.33
  A 0.86 0.86 0.0 0 0 80.47 223.96
  L 80.59 223.63
  A 1.61 1.61 0.0 0 0 79.88 221.65
  Q 74.80 218.77 70.96 220.76
  Q 66.82 222.91 68.43 227.28
  C 69.70 230.70 74.41 231.46 76.70 232.35
  C 79.70 233.51 79.98 236.82 76.72 237.78
  Q 73.43 238.75 70.49 236.86
  Q 69.11 235.96 69.00 235.90
  Z
  M 151.74 230.32
  A 10.34 10.34 0.0 0 0 141.40 219.98
  A 10.34 10.34 0.0 0 0 131.06 230.32
  A 10.34 10.34 0.0 0 0 141.40 240.66
  A 10.34 10.34 0.0 0 0 151.74 230.32
  Z
  M 180.15 233.69
  A 0.71 0.71 0.0 0 1 180.38 232.66
  Q 183.60 230.80 183.78 228.02
  Q 184.24 220.66 177.27 220.26
  Q 173.36 220.03 169.52 220.29
  A 0.64 0.64 0.0 0 0 168.92 220.93
  L 168.92 239.22
  A 0.94 0.94 0.0 0 0 169.86 240.16
  L 170.31 240.16
  A 1.28 1.28 0.0 0 0 171.59 238.88
  L 171.59 223.38
  A 0.61 0.61 0.0 0 1 172.20 222.77
  Q 176.63 222.81 177.89 222.91
  A 3.54 3.09 -4.5 0 1 180.90 225.14
  Q 181.89 228.46 179.60 230.02
  C 178.42 230.82 176.04 230.84 175.00 231.12
  A 1.16 1.16 0.0 0 0 174.89 233.32
  Q 177.65 234.37 180.30 238.21
  C 181.36 239.73 183.01 240.76 184.65 239.84
  A 1.15 1.15 0.0 0 0 184.38 237.72
  Q 182.67 237.26 180.15 233.69
  Z
  M 237.50 235.89
  A 1.20 1.10 85.2 0 0 236.13 237.67
  C 238.63 241.37 247.27 241.73 249.53 237.61
  C 251.02 234.91 249.66 231.42 246.77 230.17
  C 245.18 229.48 239.90 228.61 239.11 226.05
  A 2.57 2.52 -20.5 0 1 240.54 222.98
  Q 243.90 221.50 247.62 224.31
  A 0.86 0.86 0.0 0 0 248.94 223.93
  L 249.06 223.60
  A 1.61 1.60 -64.9 0 0 248.35 221.62
  Q 243.27 218.75 239.43 220.75
  Q 235.29 222.91 236.91 227.28
  C 238.19 230.69 242.90 231.44 245.19 232.33
  C 248.19 233.48 248.48 236.79 245.22 237.76
  Q 241.93 238.74 238.99 236.85
  Q 237.61 235.95 237.50 235.89
  Z
  M 102.93 222.78
  L 108.34 222.78
  A 2.74 2.73 84.8 0 1 111.03 225.03
  C 111.95 230.12 109.21 230.93 105.34 231.07
  A 1.13 1.13 0.0 0 0 104.25 232.25
  L 104.25 232.28
  A 1.25 1.24 1.0 0 0 105.41 233.47
  C 110.19 233.82 114.59 231.09 113.78 225.75
  C 112.74 218.87 104.94 220.11 99.61 220.35
  A 0.65 0.64 88.6 0 0 99.00 221.00
  L 99.00 239.13
  A 1.00 1.00 0.0 0 0 100.00 240.13
  L 100.37 240.13
  A 1.12 1.11 0.0 0 0 101.49 239.02
  L 101.49 224.23
  A 1.45 1.44 90.0 0 1 102.93 222.78
  Z
  M 210.50 240.21
  Q 211.76 240.21 211.74 237.26
  Q 211.66 227.15 211.75 223.34
  A 0.57 0.57 0.0 0 1 212.32 222.78
  L 217.59 222.78
  A 0.95 0.95 0.0 0 0 218.54 221.83
  L 218.54 221.40
  A 1.15 1.15 0.0 0 0 217.38 220.25
  Q 214.16 220.29 210.50 220.24
  Q 206.85 220.29 203.63 220.25
  A 1.15 1.15 0.0 0 0 202.47 221.40
  L 202.47 221.83
  A 0.95 0.95 0.0 0 0 203.42 222.78
  L 208.69 222.78
  A 0.57 0.57 0.0 0 1 209.26 223.34
  Q 209.35 227.15 209.27 237.25
  Q 209.24 240.21 210.50 240.21
  Z"
/>
<path fill="#f1720b" d="
  M 244.46 100.89
  L 244.46 73.92
  A 0.74 0.73 -90.0 0 1 245.19 73.18
  L 268.90 73.18
  A 0.84 0.84 0.0 0 1 269.74 74.02
  L 269.74 85.14
  A 1.82 1.82 0.0 0 1 268.37 86.90
  Q 254.97 90.39 245.38 101.24
  A 0.53 0.52 65.7 0 1 244.46 100.89
  Z"
/>
<path fill="#cccccc" d="
  M 165.25 73.89
  A 0.36 0.36 0.0 0 1 165.60 73.53
  Q 174.02 73.36 192.29 73.68
  Q 205.92 73.93 211.67 76.40
  Q 223.36 81.43 227.15 94.83
  C 229.26 102.29 228.65 113.33 224.38 120.30
  C 218.21 130.38 208.23 134.14 196.83 134.63
  A 0.86 0.86 0.0 0 1 195.93 133.77
  L 195.93 110.99
  A 0.90 0.89 86.4 0 1 196.71 110.10
  C 200.29 109.61 203.51 108.91 203.77 104.47
  C 204.17 97.63 195.28 97.72 190.63 98.12
  A 0.47 0.46 88.0 0 0 190.20 98.59
  L 190.20 174.02
  A 0.77 0.77 0.0 0 1 189.43 174.79
  L 165.61 174.79
  A 0.36 0.35 0.0 0 1 165.25 174.44
  L 165.25 73.89
  Z"
/>
<path fill="#cccccc" d="
  M 98.21 114.68
  L 91.76 131.38
  A 0.77 0.76 -79.3 0 0 92.47 132.43
  L 99.25 132.43
  A 1.92 1.91 -10.4 0 1 101.04 133.66
  L 111.13 160.05
  A 0.96 0.96 0.0 0 1 109.79 161.25
  C 103.72 158.12 94.98 157.92 88.71 160.65
  Q 78.94 164.90 74.89 175.23
  A 2.05 2.05 0.0 0 1 72.98 176.53
  L 48.89 176.53
  A 0.77 0.77 0.0 0 1 48.17 175.48
  L 86.55 76.20
  A 1.94 1.94 0.0 0 1 88.36 74.96
  L 109.41 74.96
  A 1.56 1.56 0.0 0 1 110.87 75.97
  L 148.86 175.32
  A 0.85 0.85 0.0 0 1 148.06 176.47
  L 123.56 176.47
  A 0.74 0.73 -10.3 0 1 122.87 176.00
  L 99.43 114.68
  A 0.65 0.65 0.0 0 0 98.21 114.68
  Z"
/>
<path fill="#898d90" d="
  M 268.12 92.36
  A 1.01 1.01 0.0 0 1 269.43 93.33
  L 269.43 174.31
  A 0.64 0.63 90.0 0 1 268.80 174.95
  L 245.22 174.95
  A 0.58 0.58 0.0 0 1 244.64 174.37
  Q 244.60 124.29 244.54 116.24
  Q 244.51 111.49 247.24 107.70
  Q 255.57 96.14 268.12 92.36
  Z"
/>
<rect fill="#898d90" x="48.17" y="199.15" width="221.24" height="0.62" rx="0.29"/>
<path fill="#57585a" d="
  M 69.00 235.90
  Q 69.11 235.96 70.49 236.86
  Q 73.43 238.75 76.72 237.78
  C 79.98 236.82 79.70 233.51 76.70 232.35
  C 74.41 231.46 69.70 230.70 68.43 227.28
  Q 66.82 222.91 70.96 220.76
  Q 74.80 218.77 79.88 221.65
  A 1.61 1.61 0.0 0 1 80.59 223.63
  L 80.47 223.96
  A 0.86 0.86 0.0 0 1 79.14 224.33
  Q 75.43 221.52 72.07 222.99
  A 2.57 2.52 -20.4 0 0 70.63 226.06
  C 71.42 228.62 76.69 229.50 78.28 230.19
  C 81.17 231.45 82.53 234.94 81.03 237.64
  C 78.76 241.75 70.12 241.38 67.63 237.67
  A 1.20 1.10 85.3 0 1 69.00 235.90
  Z"
/>
<path fill="#57585a" d="
  M 151.74 230.32
  A 10.34 10.34 0.0 0 1 141.40 240.66
  A 10.34 10.34 0.0 0 1 131.06 230.32
  A 10.34 10.34 0.0 0 1 141.40 219.98
  A 10.34 10.34 0.0 0 1 151.74 230.32
  Z
  M 149.16 230.29
  A 7.74 7.74 0.0 0 0 141.42 222.55
  A 7.74 7.74 0.0 0 0 133.68 230.29
  A 7.74 7.74 0.0 0 0 141.42 238.03
  A 7.74 7.74 0.0 0 0 149.16 230.29
  Z"
/>
<path fill="#57585a" d="
  M 180.15 233.69
  Q 182.67 237.26 184.38 237.72
  A 1.15 1.15 0.0 0 1 184.65 239.84
  C 183.01 240.76 181.36 239.73 180.30 238.21
  Q 177.65 234.37 174.89 233.32
  A 1.16 1.16 0.0 0 1 175.00 231.12
  C 176.04 230.84 178.42 230.82 179.60 230.02
  Q 181.89 228.46 180.90 225.14
  A 3.54 3.09 -4.5 0 0 177.89 222.91
  Q 176.63 222.81 172.20 222.77
  A 0.61 0.61 0.0 0 0 171.59 223.38
  L 171.59 238.88
  A 1.28 1.28 0.0 0 1 170.31 240.16
  L 169.86 240.16
  A 0.94 0.94 0.0 0 1 168.92 239.22
  L 168.92 220.93
  A 0.64 0.64 0.0 0 1 169.52 220.29
  Q 173.36 220.03 177.27 220.26
  Q 184.24 220.66 183.78 228.02
  Q 183.60 230.80 180.38 232.66
  A 0.71 0.71 0.0 0 0 180.15 233.69
  Z"
/>
<path fill="#57585a" d="
  M 237.50 235.89
  Q 237.61 235.95 238.99 236.85
  Q 241.93 238.74 245.22 237.76
  C 248.48 236.79 248.19 233.48 245.19 232.33
  C 242.90 231.44 238.19 230.69 236.91 227.28
  Q 235.29 222.91 239.43 220.75
  Q 243.27 218.75 248.35 221.62
  A 1.61 1.60 -64.9 0 1 249.06 223.60
  L 248.94 223.93
  A 0.86 0.86 0.0 0 1 247.62 224.31
  Q 243.90 221.50 240.54 222.98
  A 2.57 2.52 -20.5 0 0 239.11 226.05
  C 239.90 228.61 245.18 229.48 246.77 230.17
  C 249.66 231.42 251.02 234.91 249.53 237.61
  C 247.27 241.73 238.63 241.37 236.13 237.67
  A 1.20 1.10 85.2 0 1 237.50 235.89
  Z"
/>
<path fill="#57585a" d="
  M 102.93 222.78
  A 1.45 1.44 90.0 0 0 101.49 224.23
  L 101.49 239.02
  A 1.12 1.11 -0.0 0 1 100.37 240.13
  L 100.00 240.13
  A 1.00 1.00 0.0 0 1 99.00 239.13
  L 99.00 221.00
  A 0.65 0.64 88.6 0 1 99.61 220.35
  C 104.94 220.11 112.74 218.87 113.78 225.75
  C 114.59 231.09 110.19 233.82 105.41 233.47
  A 1.25 1.24 1.0 0 1 104.25 232.28
  L 104.25 232.25
  A 1.13 1.13 0.0 0 1 105.34 231.07
  C 109.21 230.93 111.95 230.12 111.03 225.03
  A 2.74 2.73 84.8 0 0 108.34 222.78
  L 102.93 222.78
  Z"
/>
<path fill="#57585a" d="
  M 210.50 220.24
  Q 214.16 220.29 217.38 220.25
  A 1.15 1.15 0.0 0 1 218.54 221.40
  L 218.54 221.83
  A 0.95 0.95 0.0 0 1 217.59 222.78
  L 212.32 222.78
  A 0.57 0.57 0.0 0 0 211.75 223.34
  Q 211.66 227.15 211.74 237.26
  Q 211.76 240.21 210.50 240.21
  Q 209.24 240.21 209.27 237.25
  Q 209.35 227.15 209.26 223.34
  A 0.57 0.57 0.0 0 0 208.69 222.78
  L 203.42 222.78
  A 0.95 0.95 0.0 0 1 202.47 221.83
  L 202.47 221.40
  A 1.15 1.15 0.0 0 1 203.63 220.25
  Q 206.85 220.29 210.50 220.24
  Z"
/>
<circle fill="#ffffff" cx="141.42" cy="230.29" r="7.74"/>
</svg>
