<?xml version="1.0" encoding="UTF-8" standalone="no"?>
<!DOCTYPE svg PUBLIC "-//W3C//DTD SVG 1.1//EN" "http://www.w3.org/Graphics/SVG/1.1/DTD/svg11.dtd">
<svg xmlns="http://www.w3.org/2000/svg" version="1.1" viewBox="0.00 0.00 400.00 400.00">
<g stroke-width="2.00" fill="none" stroke-linecap="butt">
<path stroke="#88a8dc" vector-effect="non-scaling-stroke" d="
  M 340.01 130.80
  L 326.39 117.18
  A 0.47 0.47 0.0 0 1 326.39 116.51
  Q 331.58 111.24 337.49 105.52
  Q 345.60 97.66 347.27 93.54
  C 354.79 75.02 334.61 56.96 317.32 67.36
  Q 314.55 69.03 311.41 72.16
  Q 299.68 83.92 296.58 86.92
  A 0.31 0.31 0.0 0 1 296.14 86.92
  L 281.61 72.39
  A 0.86 0.86 0.0 0 0 280.39 72.39
  L 269.26 83.52
  A 0.61 0.61 0.0 0 0 269.26 84.38
  L 283.60 98.73
  A 0.88 0.88 0.0 0 1 283.60 99.97
  L 271.20 112.37
  A 0.66 0.65 -47.3 0 1 270.31 112.41
  Q 242.14 88.24 208.89 80.66
  C 126.35 61.86 47.28 116.12 34.98 199.66
  Q 34.07 205.91 33.86 214.45
  Q 33.62 224.62 33.99 229.25
  C 38.10 280.42 67.82 324.68 113.58 347.07
  C 184.60 381.84 270.41 351.86 304.54 280.57
  C 325.34 237.14 322.52 187.20 298.04 145.65
  A 0.75 0.75 0.0 0 1 298.16 144.74
  L 313.55 129.35
  A 0.44 0.44 0.0 0 1 314.17 129.35
  L 327.58 142.75
  A 0.81 0.81 0.0 0 0 328.74 142.75
  L 340.01 131.49
  A 0.50 0.49 -45.4 0 0 340.01 130.80"
/>
<path stroke="#88a8dc" vector-effect="non-scaling-stroke" d="
  M 287.5083 195.0856
  A 30.53 30.53 0.0 0 0 256.9250 164.6089
  L 95.1653 164.8912
  A 30.53 30.53 0.0 0 0 64.6886 195.4744
  L 64.6917 197.2744
  A 30.53 30.53 0.0 0 0 95.2750 227.7511
  L 257.0347 227.4688
  A 30.53 30.53 0.0 0 0 287.5114 196.8856
  L 287.5083 195.0856"
/>
<path stroke="#88a8dc" vector-effect="non-scaling-stroke" d="
  M 122.07 196.05
  A 17.48 17.48 0.0 0 0 104.59 178.57
  A 17.48 17.48 0.0 0 0 87.11 196.05
  A 17.48 17.48 0.0 0 0 104.59 213.53
  A 17.48 17.48 0.0 0 0 122.07 196.05"
/>
<path stroke="#88a8dc" vector-effect="non-scaling-stroke" d="
  M 265.17 196.14
  A 17.48 17.48 0.0 0 0 247.69 178.66
  A 17.48 17.48 0.0 0 0 230.21 196.14
  A 17.48 17.48 0.0 0 0 247.69 213.62
  A 17.48 17.48 0.0 0 0 265.17 196.14"
/>
</g>
<path fill="#ffffff" d="
  M 400.00 0.00
  L 400.00 400.00
  L 0.00 400.00
  L 0.00 0.00
  L 400.00 0.00
  Z
  M 340.01 130.80
  L 326.39 117.18
  A 0.47 0.47 0.0 0 1 326.39 116.51
  Q 331.58 111.24 337.49 105.52
  Q 345.60 97.66 347.27 93.54
  C 354.79 75.02 334.61 56.96 317.32 67.36
  Q 314.55 69.03 311.41 72.16
  Q 299.68 83.92 296.58 86.92
  A 0.31 0.31 0.0 0 1 296.14 86.92
  L 281.61 72.39
  A 0.86 0.86 0.0 0 0 280.39 72.39
  L 269.26 83.52
  A 0.61 0.61 0.0 0 0 269.26 84.38
  L 283.60 98.73
  A 0.88 0.88 0.0 0 1 283.60 99.97
  L 271.20 112.37
  A 0.66 0.65 -47.3 0 1 270.31 112.41
  Q 242.14 88.24 208.89 80.66
  C 126.35 61.86 47.28 116.12 34.98 199.66
  Q 34.07 205.91 33.86 214.45
  Q 33.62 224.62 33.99 229.25
  C 38.10 280.42 67.82 324.68 113.58 347.07
  C 184.60 381.84 270.41 351.86 304.54 280.57
  C 325.34 237.14 322.52 187.20 298.04 145.65
  A 0.75 0.75 0.0 0 1 298.16 144.74
  L 313.55 129.35
  A 0.44 0.44 0.0 0 1 314.17 129.35
  L 327.58 142.75
  A 0.81 0.81 0.0 0 0 328.74 142.75
  L 340.01 131.49
  A 0.50 0.49 -45.4 0 0 340.01 130.80
  Z"
/>
<path fill="#1050b9" d="
  M 340.01 130.80
  A 0.50 0.49 -45.4 0 1 340.01 131.49
  L 328.74 142.75
  A 0.81 0.81 0.0 0 1 327.58 142.75
  L 314.17 129.35
  A 0.44 0.44 0.0 0 0 313.55 129.35
  L 298.16 144.74
  A 0.75 0.75 0.0 0 0 298.04 145.65
  C 322.52 187.20 325.34 237.14 304.54 280.57
  C 270.41 351.86 184.60 381.84 113.58 347.07
  C 67.82 324.68 38.10 280.42 33.99 229.25
  Q 33.62 224.62 33.86 214.45
  Q 34.07 205.91 34.98 199.66
  C 47.28 116.12 126.35 61.86 208.89 80.66
  Q 242.14 88.24 270.31 112.41
  A 0.66 0.65 -47.3 0 0 271.20 112.37
  L 283.60 99.97
  A 0.88 0.88 0.0 0 0 283.60 98.73
  L 269.26 84.38
  A 0.61 0.61 0.0 0 1 269.26 83.52
  L 280.39 72.39
  A 0.86 0.86 0.0 0 1 281.61 72.39
  L 296.14 86.92
  A 0.31 0.31 0.0 0 0 296.58 86.92
  Q 299.68 83.92 311.41 72.16
  Q 314.55 69.03 317.32 67.36
  C 334.61 56.96 354.79 75.02 347.27 93.54
  Q 345.60 97.66 337.49 105.52
  Q 331.58 111.24 326.39 116.51
  A 0.47 0.47 0.0 0 0 326.39 117.18
  L 340.01 130.80
  Z
  M 287.5083 195.0856
  A 30.53 30.53 0.0 0 0 256.9250 164.6089
  L 95.1653 164.8912
  A 30.53 30.53 0.0 0 0 64.6886 195.4744
  L 64.6917 197.2744
  A 30.53 30.53 0.0 0 0 95.2750 227.7511
  L 257.0347 227.4688
  A 30.53 30.53 0.0 0 0 287.5114 196.8856
  L 287.5083 195.0856
  Z"
/>
<path fill="#ffffff" d="
  M 287.5114 196.8856
  A 30.53 30.53 0.0 0 1 257.0347 227.4688
  L 95.2750 227.7511
  A 30.53 30.53 0.0 0 1 64.6917 197.2744
  L 64.6886 195.4744
  A 30.53 30.53 0.0 0 1 95.1653 164.8912
  L 256.9250 164.6089
  A 30.53 30.53 0.0 0 1 287.5083 195.0856
  L 287.5114 196.8856
  Z
  M 122.07 196.05
  A 17.48 17.48 0.0 0 0 104.59 178.57
  A 17.48 17.48 0.0 0 0 87.11 196.05
  A 17.48 17.48 0.0 0 0 104.59 213.53
  A 17.48 17.48 0.0 0 0 122.07 196.05
  Z
  M 265.17 196.14
  A 17.48 17.48 0.0 0 0 247.69 178.66
  A 17.48 17.48 0.0 0 0 230.21 196.14
  A 17.48 17.48 0.0 0 0 247.69 213.62
  A 17.48 17.48 0.0 0 0 265.17 196.14
  Z"
/>
<circle fill="#1050b9" cx="104.59" cy="196.05" r="17.48"/>
<circle fill="#1050b9" cx="247.69" cy="196.14" r="17.48"/>
</svg>
