<svg xmlns="http://www.w3.org/2000/svg" width="1248" height="267" fill="none"><path d="m41.7 138.8 180.5-120h.1c2.5-1.6 5.7.5 5.2 3.4l-26 169.7a15.1 15.1 0 0 1-20.6 11.7L110.3 174a10 10 0 0 0-1.9-.6l-62.7-13a12 12 0 0 1-4-21.7Z" fill="#8EC7F5"></path><path d="m153.3 191.7-34.6-16.2 1.3 52.4 33.3-36.2Z" fill="#D9D9D9"></path><path d="m153.3 191.7-34.6-16.2 1.3 52.4 33.3-36.2Z" fill="#91BCE5"></path><path d="m153.3 191.7-34.6-16.2 1.3 52.4 33.3-36.2Z" fill="#3A84C1"></path><path d="m120 227.9-1.3-52.4L219.2 28 87.5 168.9l32.5 59Z" fill="#D9D9D9"></path><path d="m120 227.9-1.3-52.4L219.2 28 87.5 168.9l32.5 59Z" fill="#91BCE5"></path><path d="m120 227.9-1.3-52.4L219.2 28 87.5 168.9l32.5 59Z" fill="#3A84C1"></path><path d="m153.3 191.7-34.6-16.2 1.4 53 33.2-36.8Z" fill="#D9D9D9"></path><path d="m153.3 191.7-34.6-16.2 1.4 53 33.2-36.8Z" fill="#91BCE5"></path><path d="m153.3 191.7-34.6-16.2 1.4 53 33.2-36.8Z" fill="#044D89"></path><path d="M115.8 228.6c-44.5 24-63.5-8-44.5-20.8s48 23.3-11.4 54.7" stroke="#3A84C1" stroke-width="5" stroke-linecap="round" stroke-linejoin="round"></path><path d="M334.7 183.8c-1 0-1.6-.5-1.9-1.5l-4.5-14.7c-.2-.4-.5-.6-.8-.6h-36.9c-.3 0-.5.2-.7.6l-4.4 14.7c-.3 1-.9 1.5-1.9 1.5h-19c-.7 0-1.1-.2-1.4-.5-.3-.4-.4-1-.2-1.6l32.4-101.4c.3-1 1-1.5 2-1.5h23.5c1 0 1.7.5 2 1.5l32.4 101.4.1.7c0 1-.5 1.4-1.6 1.4h-19Zm-39.4-34c-.1.5.1.8.6.8h26.4c.6 0 .8-.3.6-.9l-13.5-44.5c-.1-.4-.3-.6-.5-.5-.2 0-.3.2-.4.5l-13.2 44.5Zm115.2-71.2a36 36 0 0 1 17.4 4 28 28 0 0 1 11.5 11.6 33.6 33.6 0 0 1 4.2 17c0 6.3-1.4 11.8-4.3 16.6a29 29 0 0 1-12 11.3c-5.1 2.6-11 3.9-17.7 3.9h-21.3c-.5 0-.8.2-.8.7V182c0 .5-.2 1-.6 1.3-.3.3-.7.5-1.2.5h-17.5c-.5 0-1-.2-1.4-.5a2 2 0 0 1-.4-1.3V80.4c0-.5.1-.9.4-1.2a2 2 0 0 1 1.4-.6h42.3Zm-3.2 47.4c4.6 0 8.3-1.3 11.1-3.9a14 14 0 0 0 4.2-10.5c0-4.4-1.4-8-4.2-10.6-2.8-2.7-6.5-4-11-4h-19.1c-.5 0-.8.2-.8.7v27.6c0 .5.3.7.8.7h19Zm49.6 57.8c-.5 0-1-.2-1.3-.5-.3-.4-.5-.8-.5-1.3V80.6c0-.5.2-1 .5-1.2.4-.4.8-.6 1.3-.6h17.6c.5 0 .9.2 1.2.6.4.3.6.7.6 1.2V182c0 .5-.2 1-.6 1.3-.3.3-.7.5-1.2.5h-17.6Zm108.6-105c.5 0 .9.2 1.2.6.4.3.6.7.6 1.2v14.7c0 .5-.2 1-.6 1.3-.3.3-.7.5-1.2.5h-26.9c-.5 0-.7.2-.7.7V182c0 .5-.2 1-.6 1.3-.3.3-.7.5-1.2.5h-17.6c-.5 0-1-.2-1.3-.5-.3-.4-.5-.8-.5-1.3V97.8c0-.5-.2-.7-.7-.7h-26.1c-.5 0-1-.2-1.4-.5a2 2 0 0 1-.4-1.3V80.6c0-.5.1-1 .4-1.2a2 2 0 0 1 1.4-.6h75.6Zm68 58.5c.7 3.8.9 8 .7 12.7-.1 1.2-.8 1.8-2 1.8H586c-.6 0-.8.3-.6.8.3 2 .8 4 1.6 6 2.6 5.6 8 8.4 16 8.4 6.3-.1 11.4-2.7 15-7.8.5-.6 1-1 1.4-1 .3 0 .7.3 1 .7l10.9 10.6c.5.5.7 1 .7 1.4l-.6 1.2a33.4 33.4 0 0 1-12.7 9.6 43.4 43.4 0 0 1-17.1 3.3c-8.6 0-16-2-22-5.9a32.6 32.6 0 0 1-12.7-16.3c-2-5-3.1-11.6-3.1-19.7a43 43 0 0 1 2.2-14.5 33.1 33.1 0 0 1 12-17 34.1 34.1 0 0 1 20.6-6.3c10 0 18 3 24 8.7a37.9 37.9 0 0 1 11 23.3Zm-34.9-13.7c-6.3 0-10.4 3-12.4 8.9a25 25 0 0 0-1 4.8c0 .5.2.7.7.7h26c.5 0 .7-.2.5-.7l-.7-4.2c-1-3-2.5-5.3-4.8-7a13 13 0 0 0-8.3-2.5Zm132.6-18.1c7.8 0 14 2.3 18.3 7a27.9 27.9 0 0 1 6.6 19.8V182c0 .5-.2 1-.6 1.3-.3.3-.7.5-1.2.5h-17.5c-.5 0-1-.2-1.4-.5a2 2 0 0 1-.4-1.3v-45c0-4.1-1-7.4-3.2-9.8a10.6 10.6 0 0 0-8.4-3.6 11 11 0 0 0-8.5 3.6 13.7 13.7 0 0 0-3.3 9.6V182c0 .5-.2 1-.6 1.3-.3.3-.7.5-1.2.5h-17.4c-.5 0-1-.2-1.4-.5a2 2 0 0 1-.4-1.3v-45c0-4-1.1-7.2-3.3-9.6-2.2-2.5-5-3.8-8.6-3.8a12 12 0 0 0-8 2.9 12.2 12.2 0 0 0-3.8 8V182c0 .5-.2 1-.6 1.3-.3.3-.7.5-1.2.5h-17.6c-.5 0-1-.2-1.3-.5-.3-.4-.5-.8-.5-1.3v-73.5c0-.5.2-1 .5-1.2.4-.4.8-.6 1.3-.6h17.6c.5 0 .9.2 1.2.6.4.3.6.7.6 1.2v5.8c0 .3 0 .5.3.6.2.1.4 0 .6-.3 4-6 10.4-9.1 19-9.1 5 0 9.4 1 13 3.1a21 21 0 0 1 8.8 9c.3.6.6.6 1 0 2.2-4 5.2-7.1 8.9-9.1 3.8-2 8-3 12.7-3Zm107.1 21.9a54.1 54.1 0 0 1 2.7 18c0 6.9-1 13.1-2.8 18.7a29.5 29.5 0 0 1-29.3 20.9c-7.2 0-12.8-2.5-16.8-7.5-.2-.3-.4-.4-.6-.3-.2 0-.3.3-.3.6v32c0 .6-.2 1-.6 1.3-.3.4-.7.6-1.2.6H772a2 2 0 0 1-1.4-.6c-.3-.3-.4-.7-.4-1.2V108.5c0-.5.1-1 .4-1.2a2 2 0 0 1 1.4-.6h17.5c.5 0 1 .2 1.2.6.4.3.6.7.6 1.2v5c0 .2.1.4.3.5.2 0 .4 0 .6-.3 4.2-5.5 10-8.2 17.4-8.2 7 0 12.9 2 17.9 5.8 5 3.8 8.7 9.2 11 16Zm-23 33.6c2.6-4 3.8-9.2 3.8-16a31 31 0 0 0-3.1-15c-2.3-4.2-6-6.4-11.1-6.4-4.6 0-8 2.2-10.4 6.5a30.3 30.3 0 0 0-3.1 15.1c0 6.7 1 12 3.3 15.6 2.3 4 5.7 6 10.2 6 4.5 0 8-2 10.5-5.8Zm39.7 22.8c-.5 0-1-.2-1.3-.5-.3-.4-.5-.8-.5-1.3V80.6c0-.5.2-1 .5-1.2.4-.4.8-.6 1.3-.6h17.6c.5 0 .9.2 1.2.6.4.3.6.7.6 1.2V182c0 .5-.2 1-.6 1.3-.3.3-.7.5-1.2.5H855Zm64-78.3a42 42 0 0 1 17.5 3.4c5 2.2 9 5.3 11.8 9.2 3 3.9 4.4 8.2 4.4 13V182c0 .5-.2 1-.6 1.3-.3.3-.7.5-1.2.5h-17.6c-.5 0-1-.2-1.3-.5-.3-.4-.5-.8-.5-1.3v-5c0-.3 0-.5-.3-.6-.2 0-.4 0-.6.3-4.2 5.5-11 8.3-20.2 8.3-7.8 0-14.1-2-19-5.7-4.7-3.8-7.1-9.4-7.1-16.8 0-7.7 2.7-13.7 8-17.9a36.3 36.3 0 0 1 23.2-6.4h15.3c.5 0 .7-.3.7-.8v-3.3c0-3.3-1-5.8-3-7.6-2-2-5-2.9-9-2.9-3 0-5.7.6-7.8 1.7a7.7 7.7 0 0 0-3.9 4.6c-.3 1.1-1 1.6-2 1.5l-18-2.4c-1.3-.2-1.8-.6-1.7-1.3.4-4.2 2-8 5-11.4 3-3.4 6.8-6 11.6-8a44.9 44.9 0 0 1 16.4-2.8Zm-3 63.7c4.4 0 8-1.1 11-3.4s4.5-5.3 4.5-8.9v-5.4c0-.5-.2-.7-.7-.7H920c-4.5 0-8 .8-10.7 2.5a8.2 8.2 0 0 0-3.7 7.2 8 8 0 0 0 2.8 6.5 12 12 0 0 0 7.7 2.2Zm92.7-47.4c0 .5-.2 1-.6 1.4-.3.3-.7.4-1.2.4h-14.4c-.5 0-.7.3-.7.8v31.8c0 3.3.6 5.7 2 7.3 1.3 1.6 3.5 2.4 6.5 2.4h5c.5 0 .9.2 1.2.6.4.3.6.7.6 1.2V182c0 1-.6 1.7-1.8 2l-9 .2c-8.3 0-14.5-1.3-18.6-4-4.1-2.8-6.2-8-6.3-15.6v-40.2c0-.5-.3-.8-.8-.8h-8.5c-.5 0-1-.1-1.4-.4-.3-.4-.4-.9-.4-1.4v-13.3c0-.5.1-1 .4-1.2a2 2 0 0 1 1.4-.6h8.5c.5 0 .8-.3.8-.8V88.1c0-.5.1-1 .4-1.2a2 2 0 0 1 1.4-.6H990c.5 0 .9.2 1.2.6.4.3.6.7.6 1.2v17.8c0 .5.2.8.7.8h14.4c.5 0 1 .2 1.2.6.4.3.6.7.6 1.2v13.3Zm78.5 15.5c.6 3.8.8 8 .6 12.7-.1 1.2-.8 1.8-2 1.8h-46.3c-.6 0-.8.3-.6.8.3 2 .8 4 1.6 6 2.6 5.6 8 8.4 16 8.4 6.3-.1 11.4-2.7 15-7.8.5-.6 1-1 1.4-1 .3 0 .7.3 1 .7l10.9 10.6c.5.5.7 1 .7 1.4l-.6 1.2a33.4 33.4 0 0 1-12.7 9.6 43.4 43.4 0 0 1-17.1 3.3c-8.6 0-16-2-22-5.9a32.6 32.6 0 0 1-12.7-16.3c-2-5-3.1-11.6-3.1-19.7a43 43 0 0 1 2.2-14.5 33.1 33.1 0 0 1 12-17 34.1 34.1 0 0 1 20.6-6.3c10 0 18 3 24 8.7a37.9 37.9 0 0 1 11 23.3Zm-35-13.7c-6.3 0-10.4 3-12.4 8.9a25 25 0 0 0-1 4.8c0 .5.2.7.7.7h26c.5 0 .7-.2.5-.7l-.7-4.2c-1-3-2.5-5.3-4.8-7a13 13 0 0 0-8.3-2.5Zm55.9 60.8a12 12 0 0 1-8.6-3.3 11.9 11.9 0 0 1-3.3-8.6c0-3.5 1.1-6.3 3.3-8.5 2.2-2.2 5-3.3 8.6-3.3 3.5 0 6.3 1 8.5 3.3 2.2 2.2 3.3 5 3.3 8.5a11.6 11.6 0 0 1-11.8 11.9Zm38.6-86.4c-3.4 0-6.2-1.1-8.5-3.3a11.9 11.9 0 0 1-3.3-8.6c0-3.5 1-6.3 3.3-8.5 2.2-2.2 5-3.3 8.5-3.3a11.3 11.3 0 0 1 11.9 11.8 11.6 11.6 0 0 1-11.9 11.9Zm-9 85.8c-.5 0-1-.2-1.3-.5-.3-.4-.5-.8-.5-1.3v-73.7c0-.5.2-.9.5-1.2.4-.4.8-.6 1.3-.6h17.6c.5 0 .9.2 1.2.6.4.3.6.7.6 1.2V182c0 .5-.2 1-.6 1.3-.3.3-.7.5-1.2.5h-17.6Zm68.4 1.2c-8.4 0-15.6-2.2-21.6-6.6a33 33 0 0 1-12.3-18 55.7 55.7 0 0 1 0-31.2 32.2 32.2 0 0 1 12.5-17.4c6-4.2 13.1-6.3 21.5-6.3 8.3 0 15.3 2 21 6.3 5.8 4 10 9.8 12.3 17.2a51.4 51.4 0 0 1 .3 31 33.5 33.5 0 0 1-12.3 18.4c-5.8 4.4-13 6.6-21.4 6.6Zm0-18.2c3.3 0 6.1-1 8.4-3 2.3-2 4-4.7 5-8.2a43.2 43.2 0 0 0-.1-21.2c-1-3.4-2.8-6-5-8a12.8 12.8 0 0 0-8.5-2.8 13 13 0 0 0-8.5 2.9 16.2 16.2 0 0 0-4.8 8c-.8 2.3-1.2 5.9-1.2 10.6 0 4.5.3 8 1 10.5 1 3.5 2.7 6.2 5 8.2 2.4 2 5.3 3 8.7 3Z" fill="#414141"></path></svg>