<svg width="128" height="128" viewBox="0 0 128 128" fill="none" xmlns="http://www.w3.org/2000/svg">
<g clip-path="url(#clip0_240_6591)">
<path d="M5.91999 40.6399L25.44 76.7999C26.72 79.3599 29.92 81.2799 32.8 81.2799H72.48C75.04 81.2799 76.32 79.3599 75.04 76.7999L55.52 40.6399C54.24 38.0799 51.04 36.1599 48.16 36.1599H8.15999H7.83999C5.59999 36.1599 4.63999 38.0799 5.91999 40.6399Z" fill="#7AD143"/>
<path d="M81.12 82.5599L92.96 104C93.6 105.6 95.52 106.56 97.44 106.56L120.8 106.24C122.4 106.24 123.04 104.96 122.4 103.68L110.56 82.2399C109.92 80.6399 108 79.6799 106.08 79.6799L82.4 79.9999C81.12 79.9999 80.16 81.2799 81.12 82.5599Z" fill="#7AD143"/>
<path d="M81.1199 1.28L57.7599 30.72C56.1599 32.64 56.1599 36.48 57.4399 38.72L76.9599 74.56C78.2399 77.12 80.4799 77.44 82.3999 75.2L106.08 45.76C107.68 43.84 107.68 40 106.4 37.76L86.5599 2.24C85.9199 0.96 84.6399 0 83.3599 0C82.7199 0 82.0799 0.32 81.1199 1.28Z" fill="#00C2FF"/>
<path d="M75.68 82.8799L61.6 100.48C60.64 101.76 60.32 103.68 61.28 105.28L73.12 126.72C73.76 128.32 75.36 128.32 76.32 127.04L90.4 109.44C91.36 108.16 91.68 106.24 90.72 104.64L79.2 83.1999C78.88 82.5599 77.92 81.9199 77.6 81.9199C76.64 82.2399 76.32 82.2399 75.68 82.8799Z" fill="#00C2FF"/>
</g>
<defs>
<clipPath id="clip0_240_6591">
<rect width="117.44" height="128" fill="white" transform="translate(5.28003)"/>
</clipPath>
</defs>
</svg>
