<svg width="128" height="128" viewBox="0 0 128 128" fill="none" xmlns="http://www.w3.org/2000/svg">
<g clip-path="url(#clip0_410_5911)">
<rect width="128" height="128" fill="#0A152F"/>
<path d="M101.178 44.4292C93.7574 44.4292 88.4434 50.9799 82.98 58.2645C79.5959 42.7983 75.8177 27.3322 63.8172 27.3322C51.8166 27.3322 48.0384 42.7983 44.6951 58.2645C39.2588 50.9799 33.9177 44.4292 26.4972 44.4292C21.7812 44.4292 13.79 47.6502 13.79 59.6779V81.5724C13.79 93.3827 20.096 96.2775 23.8742 97.2561C30.3977 98.9549 46.1085 100.518 63.79 100.518C81.4714 100.518 97.1822 98.9549 103.692 97.2561C107.484 96.2775 113.79 93.3827 113.79 81.5724V59.6779C113.79 47.6502 105.799 44.4292 101.069 44.4292M63.8172 34.1275C71.0066 34.1275 73.7383 48.3161 77.5709 65.386C73.3714 70.5368 68.9272 74.7092 63.8172 74.7092C58.7071 74.7092 54.2086 70.5232 50.1314 65.386C53.7057 49.4577 56.451 34.1275 63.8851 34.1275M20.6125 81.5724V59.6779C20.6125 52.0807 24.6896 51.2517 26.4972 51.2517C31.7296 51.2517 37.3697 59.9905 42.7244 67.0033C38.8783 82.9179 34.869 92.5673 25.3964 90.6102C22.9229 89.9307 20.6125 88.3678 20.6125 81.5724ZM39.2588 92.6352C43.336 88.0824 46.0542 80.9745 48.0928 73.4452C52.4826 78.0389 57.5383 81.5045 63.8172 81.5045C70.096 81.5045 75.1382 78.0389 79.528 73.4452C81.5666 80.9745 84.2439 88.0824 88.4298 92.6352C81.1045 93.3148 72.2841 93.7089 63.8172 93.7089C55.3502 93.7089 46.5163 93.3148 39.1909 92.6352M107.022 81.5724C107.022 88.3678 104.698 89.9307 102.238 90.6102C92.7245 92.6217 88.7424 82.9179 84.9506 67.0033C90.3189 59.9905 95.9455 51.2517 101.178 51.2517C102.945 51.2517 107.076 52.0807 107.076 59.6779L107.022 81.5724Z" fill="white"/>
</g>
<defs>
<clipPath id="clip0_410_5911">
<rect width="128" height="128" fill="white"/>
</clipPath>
</defs>
</svg>
