<?xml version="1.0" encoding="UTF-8" standalone="no"?>
<!DOCTYPE svg PUBLIC "-//W3C//DTD SVG 1.1//EN" "http://www.w3.org/Graphics/SVG/1.1/DTD/svg11.dtd">
<svg xmlns="http://www.w3.org/2000/svg" version="1.1" viewBox="0.00 0.00 931.00 931.00">
<g stroke-width="2.00" fill="none" stroke-linecap="butt">
<path stroke="#94badd" vector-effect="non-scaling-stroke" d="
  M 692.22 455.92
  L 690.64 439.51
  A 0.99 0.98 -85.3 0 0 689.93 438.66
  Q 672.82 433.87 656.60 431.37
  A 0.85 0.84 -1.5 0 1 655.90 430.71
  Q 653.38 418.50 648.73 405.77
  A 0.82 0.82 0.0 0 1 648.99 404.84
  Q 662.18 394.49 674.10 382.99
  A 0.98 0.97 -35.3 0 0 674.30 381.85
  L 666.94 366.89
  A 1.02 1.02 0.0 0 0 665.94 366.33
  Q 649.52 367.84 632.45 371.50
  A 1.12 1.12 0.0 0 1 631.28 371.02
  Q 624.56 360.68 615.62 350.41
  A 0.79 0.78 39.6 0 1 615.53 349.49
  Q 625.20 333.13 631.16 319.70
  A 0.54 0.54 0.0 0 0 631.03 319.09
  L 618.16 307.30
  A 0.47 0.45 -35.9 0 0 617.66 307.23
  C 607.58 312.15 598.71 317.62 587.76 324.47
  A 0.86 0.85 -42.8 0 1 586.79 324.44
  Q 576.35 316.83 564.77 310.93
  A 0.82 0.82 0.0 0 1 564.34 310.08
  Q 567.14 293.25 568.17 276.77
  A 0.78 0.77 12.7 0 0 567.68 276.01
  L 551.79 269.83
  A 0.82 0.82 0.0 0 0 550.88 270.04
  C 543.40 278.14 536.24 287.15 529.48 296.53
  A 1.01 1.01 0.0 0 1 528.41 296.92
  Q 516.05 293.74 503.08 292.36
  A 0.83 0.83 0.0 0 1 502.35 291.70
  Q 498.73 274.32 493.86 259.36
  A 0.98 0.97 -9.0 0 0 492.93 258.69
  L 476.15 258.69
  A 1.04 1.04 0.0 0 0 475.18 259.35
  Q 469.17 274.90 464.94 291.77
  A 0.88 0.88 0.0 0 1 464.19 292.43
  Q 451.27 293.90 438.85 297.24
  A 0.92 0.91 -24.0 0 1 437.85 296.86
  Q 428.78 282.88 418.19 269.68
  A 0.61 0.60 59.8 0 0 417.50 269.49
  L 401.45 275.66
  A 0.85 0.83 -10.8 0 0 400.91 276.44
  Q 400.88 292.71 403.01 310.49
  A 0.89 0.88 73.1 0 1 402.54 311.38
  Q 391.39 317.19 380.66 324.99
  A 1.08 1.08 0.0 0 1 379.38 324.99
  Q 364.82 314.46 351.37 306.78
  A 0.59 0.58 38.6 0 0 350.69 306.85
  L 337.92 318.43
  A 0.83 0.82 58.7 0 0 337.70 319.35
  Q 344.11 335.55 352.15 350.49
  A 0.66 0.64 52.1 0 1 352.07 351.22
  Q 343.64 360.79 336.40 372.08
  A 0.85 0.84 23.6 0 1 335.47 372.44
  Q 318.56 367.99 302.77 365.52
  A 0.80 0.80 0.0 0 0 301.93 365.95
  L 294.30 381.21
  A 0.82 0.82 0.0 0 0 294.43 382.14
  Q 305.78 394.60 318.99 405.89
  A 0.86 0.86 0.0 0 1 319.24 406.82
  Q 314.62 419.51 312.17 431.76
  A 0.80 0.79 -88.4 0 1 311.51 432.39
  C 301.18 433.91 291.04 435.14 278.52 437.84
  A 1.02 1.02 0.0 0 0 277.72 438.74
  L 276.10 455.83
  A 0.70 0.70 0.0 0 0 276.80 456.60
  L 346.76 456.60
  A 0.35 0.35 0.0 0 0 347.11 456.28
  C 349.83 423.54 363.28 393.72 386.25 370.32
  C 414.75 341.28 456.16 325.87 496.91 329.91
  C 563.41 336.51 615.95 388.85 621.13 456.16
  A 0.48 0.47 -1.9 0 0 621.61 456.60
  L 691.60 456.60
  A 0.62 0.62 0.0 0 0 692.22 455.92"
/>
<path stroke="#94badd" vector-effect="non-scaling-stroke" d="
  M 133.71 539.98
  Q 161.35 539.98 161.50 540.00
  A 0.39 0.39 0.0 0 1 161.83 540.39
  L 161.83 567.88
  A 0.31 0.30 -0.0 0 0 162.14 568.18
  L 217.52 568.18
  A 0.57 0.57 0.0 0 0 218.09 567.62
  Q 218.10 566.57 218.15 506.47
  Q 218.17 491.32 216.64 486.17
  Q 212.97 473.74 202.31 464.91
  Q 191.03 455.57 174.00 455.60
  Q 152.85 455.63 133.70 455.63
  Q 114.55 455.63 93.40 455.61
  Q 76.37 455.58 65.09 464.93
  Q 54.43 473.76 50.77 486.19
  Q 49.24 491.34 49.26 506.49
  Q 49.33 566.59 49.34 567.64
  A 0.57 0.57 0.0 0 0 49.91 568.20
  L 105.29 568.19
  A 0.31 0.30 -0.0 0 0 105.60 567.89
  L 105.59 540.40
  A 0.39 0.39 0.0 0 1 105.92 540.01
  Q 106.07 539.99 133.71 539.98"
/>
<path stroke="#94badd" vector-effect="non-scaling-stroke" d="
  M 894.13 493.34
  A 12.66 12.66 0.0 0 0 881.47 480.68
  A 12.66 12.66 0.0 0 0 868.81 493.34
  A 12.66 12.66 0.0 0 0 881.47 506.00
  A 12.66 12.66 0.0 0 0 894.13 493.34"
/>
<path stroke="#94badd" vector-effect="non-scaling-stroke" d="
  M 616.39 568.18
  L 655.14 568.19
  A 0.40 0.39 -90.0 0 0 655.53 567.79
  L 655.53 509.59
  A 0.39 0.38 -0.0 0 1 655.92 509.21
  Q 682.81 509.17 682.94 509.17
  Q 687.13 509.06 688.95 509.94
  C 696.58 513.66 696.89 524.00 689.32 527.84
  Q 687.33 528.85 682.48 528.84
  Q 661.94 528.79 661.07 528.80
  A 0.67 0.66 -0.4 0 0 660.41 529.46
  L 660.41 547.73
  A 0.64 0.63 -89.5 0 0 661.03 548.37
  Q 669.04 548.49 680.58 548.36
  Q 687.03 548.29 689.21 549.46
  C 696.67 553.45 694.58 560.35 694.92 567.56
  A 0.66 0.66 0.0 0 0 695.58 568.19
  L 733.67 568.19
  A 0.61 0.60 -89.0 0 0 734.27 567.60
  Q 734.37 561.95 734.29 553.19
  C 734.24 547.92 732.90 543.46 729.24 540.54
  Q 727.75 539.34 727.32 538.90
  A 0.62 0.61 43.2 0 1 727.29 538.08
  C 741.07 521.34 733.63 496.34 712.49 490.47
  Q 708.37 489.32 696.94 489.36
  Q 680.77 489.42 616.57 489.38
  A 0.46 0.46 0.0 0 0 616.11 489.84
  L 616.11 567.91
  A 0.28 0.27 -0.0 0 0 616.39 568.18"
/>
<path stroke="#94badd" vector-effect="non-scaling-stroke" d="
  M 291.25 538.60
  Q 309.69 538.60 310.25 538.62
  A 0.77 0.77 0.0 0 1 310.97 539.55
  Q 309.80 544.84 306.11 547.12
  Q 303.82 548.53 298.07 548.46
  Q 289.02 548.35 232.49 548.42
  A 0.37 0.37 0.0 0 0 232.12 548.79
  L 232.12 567.87
  A 0.32 0.32 0.0 0 0 232.44 568.19
  Q 298.91 568.18 317.34 568.20
  Q 320.74 568.21 324.11 567.87
  C 336.10 566.67 345.53 558.30 349.00 547.43
  Q 350.57 542.49 350.37 533.98
  Q 350.13 523.45 350.31 519.40
  A 0.36 0.35 -87.9 0 0 349.96 519.02
  Q 348.91 518.99 291.17 519.00
  Q 272.73 519.00 272.17 518.97
  A 0.77 0.77 0.0 0 1 271.45 518.05
  Q 272.62 512.76 276.31 510.48
  Q 278.60 509.07 284.35 509.14
  Q 293.40 509.25 349.93 509.18
  A 0.37 0.37 0.0 0 0 350.30 508.81
  L 350.30 489.73
  A 0.32 0.32 0.0 0 0 349.98 489.41
  Q 283.51 489.42 265.08 489.40
  Q 261.68 489.39 258.31 489.73
  C 246.32 490.93 236.89 499.30 233.42 510.17
  Q 231.85 515.11 232.05 523.62
  Q 232.29 534.15 232.11 538.20
  A 0.36 0.35 -87.9 0 0 232.46 538.57
  Q 233.51 538.61 291.25 538.60"
/>
<path stroke="#94badd" vector-effect="non-scaling-stroke" d="
  M 477.58 548.41
  Q 453.38 548.35 411.65 548.45
  C 406.26 548.46 403.84 547.64 400.86 543.70
  Q 399.43 541.82 399.50 536.20
  Q 399.60 528.29 399.49 519.97
  Q 399.41 513.50 404.40 510.49
  Q 406.78 509.05 411.37 509.13
  Q 421.44 509.30 425.60 509.14
  Q 431.69 508.90 434.25 510.63
  Q 438.37 513.41 438.86 518.42
  A 0.66 0.65 87.1 0 0 439.51 519.01
  L 477.82 519.01
  A 0.54 0.54 0.0 0 0 478.36 518.44
  Q 477.49 502.34 464.50 493.99
  C 460.01 491.10 454.13 489.45 449.00 489.45
  Q 428.51 489.41 398.81 489.35
  Q 384.75 489.32 380.35 490.89
  C 369.07 494.92 360.73 504.84 360.23 517.02
  Q 359.99 522.93 360.15 539.07
  C 360.32 555.56 373.65 568.02 389.82 568.14
  Q 398.03 568.19 455.01 568.20
  C 462.74 568.20 467.74 567.26 472.73 562.03
  Q 478.17 556.34 478.24 549.08
  A 0.66 0.66 0.0 0 0 477.58 548.41"
/>
<path stroke="#94badd" vector-effect="non-scaling-stroke" d="
  M 488.11 538.71
  A 29.48 29.48 0.0 0 0 517.59 568.19
  L 576.83 568.19
  A 29.48 29.48 0.0 0 0 606.31 538.71
  L 606.31 518.88
  A 29.48 29.48 0.0 0 0 576.83 489.40
  L 517.59 489.40
  A 29.48 29.48 0.0 0 0 488.11 518.88
  L 488.11 538.71"
/>
<path stroke="#94badd" vector-effect="non-scaling-stroke" d="
  M 803.21 548.40
  Q 822.05 548.40 822.30 548.43
  A 0.67 0.66 3.8 0 1 822.88 549.09
  L 822.88 567.70
  A 0.49 0.49 0.0 0 0 823.37 568.19
  L 861.69 568.19
  A 0.64 0.63 -90.0 0 0 862.32 567.55
  Q 862.24 558.30 862.34 530.44
  Q 862.40 515.67 861.71 512.61
  C 858.62 498.86 846.78 489.78 832.75 489.46
  Q 830.14 489.40 803.21 489.40
  Q 776.28 489.40 773.67 489.46
  C 759.64 489.78 747.80 498.86 744.71 512.61
  Q 744.02 515.67 744.08 530.44
  Q 744.18 558.30 744.10 567.55
  A 0.64 0.63 -90.0 0 0 744.73 568.19
  L 783.05 568.19
  A 0.49 0.49 0.0 0 0 783.54 567.70
  L 783.54 549.09
  A 0.67 0.66 -3.8 0 1 784.11 548.43
  Q 784.37 548.40 803.21 548.40"
/>
<path stroke="#b0bec5" vector-effect="non-scaling-stroke" d="
  M 80.07 638.89
  C 80.07 647.96 79.60 666.83 92.99 668.25
  Q 93.02 668.26 95.93 668.26
  Q 98.84 668.26 98.87 668.25
  C 112.26 666.83 111.79 647.96 111.79 638.89
  C 111.79 629.82 112.26 610.95 98.87 609.53
  Q 98.84 609.52 95.93 609.52
  Q 93.02 609.52 93.00 609.53
  C 79.60 610.95 80.07 629.82 80.07 638.89"
/>
<path stroke="#b0bec5" vector-effect="non-scaling-stroke" d="
  M 352.02 664.79
  Q 352.36 665.34 352.13 666.04
  A 0.73 0.72 9.4 0 0 352.82 667.00
  L 356.83 667.00
  A 0.90 0.90 0.0 0 0 357.73 666.10
  L 357.73 638.81
  A 0.28 0.27 0.0 0 0 357.45 638.54
  L 340.80 638.54
  A 0.27 0.26 -0.0 0 0 340.53 638.80
  L 340.53 643.45
  A 0.27 0.27 0.0 0 0 340.80 643.72
  L 350.69 643.72
  A 0.60 0.60 0.0 0 1 351.29 644.32
  C 351.29 649.55 350.64 657.05 346.85 660.77
  Q 342.93 664.60 338.68 661.75
  C 334.58 659.00 333.28 652.27 332.86 647.68
  Q 332.09 639.38 332.84 630.04
  Q 333.24 624.94 334.97 620.72
  C 336.81 616.21 341.50 612.73 346.12 616.11
  C 349.16 618.33 350.44 622.89 350.71 626.38
  A 0.38 0.37 87.5 0 0 351.08 626.73
  L 356.63 626.73
  A 0.30 0.30 0.0 0 0 356.93 626.45
  Q 357.45 617.87 351.58 612.52
  C 347.72 608.99 344.12 609.51 338.53 609.57
  A 3.93 3.91 36.4 0 0 337.53 609.72
  C 326.20 613.04 326.38 626.91 326.12 636.23
  Q 326.00 640.75 326.50 648.75
  C 327.06 657.55 329.96 668.26 340.61 668.33
  C 345.15 668.35 348.29 667.98 351.21 664.72
  A 0.50 0.50 0.0 0 1 352.02 664.79"
/>
<path stroke="#b0bec5" vector-effect="non-scaling-stroke" d="
  M 825.98 624.75
  C 825.97 617.61 823.29 611.39 815.78 609.61
  A 2.77 2.47 48.3 0 0 815.18 609.54
  L 808.63 609.54
  A 3.12 2.98 -51.5 0 0 807.82 609.65
  Q 801.93 611.27 799.51 616.32
  C 797.16 621.21 796.59 630.39 800.61 634.91
  C 804.47 639.26 810.83 641.36 815.02 643.24
  Q 821.36 646.11 820.76 653.42
  Q 820.26 659.40 815.67 661.85
  Q 810.59 664.57 806.45 660.79
  Q 803.42 658.01 802.96 650.57
  A 0.33 0.33 0.0 0 0 802.63 650.26
  L 797.13 650.26
  A 0.34 0.33 1.8 0 0 796.79 650.57
  C 796.27 657.83 799.72 667.44 808.29 668.14
  C 815.96 668.76 822.21 667.77 825.70 660.54
  Q 828.32 655.09 826.70 646.91
  C 825.20 639.30 814.79 636.27 808.49 633.07
  C 803.32 630.44 803.28 622.99 805.68 618.70
  C 807.78 614.96 812.32 613.43 815.93 616.18
  Q 819.67 619.03 819.61 624.71
  A 0.27 0.27 0.0 0 0 819.88 624.98
  L 825.74 624.98
  A 0.24 0.23 -0.0 0 0 825.98 624.75"
/>
<path stroke="#b0bec5" vector-effect="non-scaling-stroke" d="
  M 65.30 610.73
  A 0.29 0.29 0.0 0 0 65.01 611.02
  Q 65.01 655.60 65.00 655.75
  Q 64.81 659.90 63.45 661.35
  Q 60.46 664.53 57.44 661.51
  Q 54.77 658.85 55.35 650.19
  A 0.44 0.43 1.8 0 0 54.91 649.73
  L 49.25 649.73
  A 0.46 0.45 2.0 0 0 48.79 650.15
  C 48.24 657.47 49.25 668.53 59.45 668.32
  Q 63.66 668.24 64.67 667.92
  C 69.48 666.40 71.39 661.43 71.43 656.50
  Q 71.48 649.34 71.45 611.01
  A 0.28 0.28 0.0 0 0 71.17 610.73
  L 65.30 610.73"
/>
<path stroke="#b0bec5" vector-effect="non-scaling-stroke" d="
  M 140.25 636.89
  Q 144.69 633.62 145.26 627.75
  C 146.12 618.79 143.34 610.98 132.97 610.78
  Q 125.82 610.63 118.55 610.76
  A 0.29 0.29 0.0 0 0 118.27 611.05
  L 118.27 666.36
  A 0.58 0.58 0.0 0 0 118.83 666.94
  C 134.13 667.35 148.33 668.30 146.65 647.81
  Q 146.06 640.57 140.29 637.50
  A 0.36 0.36 0.0 0 1 140.25 636.89"
/>
<path stroke="#b0bec5" vector-effect="non-scaling-stroke" d="
  M 190.52 667.00
  Q 193.32 667.00 193.63 666.93
  A 0.44 0.42 -87.7 0 0 193.96 666.62
  L 204.49 624.77
  A 0.14 0.14 0.0 0 1 204.76 624.81
  L 204.76 666.69
  A 0.31 0.31 0.0 0 0 205.07 667.00
  L 210.72 667.00
  A 0.31 0.31 0.0 0 0 211.03 666.69
  L 211.03 611.34
  A 0.61 0.61 0.0 0 0 210.42 610.73
  L 202.44 610.73
  A 0.82 0.82 0.0 0 0 201.64 611.36
  Q 197.18 629.20 190.72 654.46
  Q 190.70 654.56 190.53 654.56
  Q 190.35 654.56 190.32 654.46
  Q 183.88 629.20 179.42 611.36
  A 0.82 0.82 0.0 0 0 178.62 610.73
  L 170.64 610.72
  A 0.61 0.61 0.0 0 0 170.03 611.33
  L 170.01 666.68
  A 0.31 0.31 0.0 0 0 170.32 666.99
  L 175.97 667.00
  A 0.31 0.31 0.0 0 0 176.28 666.69
  L 176.30 624.81
  A 0.14 0.14 0.0 0 1 176.57 624.77
  L 187.08 666.62
  A 0.44 0.42 87.8 0 0 187.41 666.93
  Q 187.72 667.00 190.52 667.00"
/>
<path stroke="#b0bec5" vector-effect="non-scaling-stroke" d="
  M 232.98 649.99
  Q 238.15 649.99 239.03 650.03
  A 0.87 0.87 0.0 0 1 239.84 650.68
  L 243.71 666.44
  A 0.74 0.74 0.0 0 0 244.43 667.00
  L 249.76 667.00
  A 0.49 0.49 0.0 0 0 250.24 666.39
  L 236.68 611.19
  A 0.55 0.54 -5.8 0 0 236.17 610.78
  Q 234.63 610.73 233.01 610.73
  Q 231.39 610.73 229.85 610.78
  A 0.55 0.54 5.9 0 0 229.34 611.18
  L 215.69 666.36
  A 0.49 0.49 0.0 0 0 216.17 666.97
  L 221.50 666.98
  A 0.74 0.74 0.0 0 0 222.22 666.42
  L 226.11 650.67
  A 0.87 0.87 0.0 0 1 226.92 650.02
  Q 227.81 649.99 232.98 649.99"
/>
<path stroke="#b0bec5" vector-effect="non-scaling-stroke" d="
  M 266.19 640.07
  Q 267.96 644.43 276.58 666.32
  A 1.07 1.07 0.0 0 0 277.58 667.00
  L 283.69 667.00
  A 0.57 0.56 -0.0 0 0 284.26 666.44
  L 284.26 611.01
  A 0.27 0.27 0.0 0 0 283.99 610.74
  L 278.03 610.74
  A 0.28 0.27 90.0 0 0 277.76 611.02
  L 277.76 652.25
  A 0.17 0.17 0.0 0 1 277.43 652.31
  Q 274.55 644.91 271.59 637.65
  Q 269.82 633.29 261.20 611.40
  A 1.07 1.07 0.0 0 0 260.20 610.72
  L 254.09 610.72
  A 0.57 0.56 0.0 0 0 253.52 611.28
  L 253.52 666.71
  A 0.27 0.27 0.0 0 0 253.79 666.98
  L 259.75 666.98
  A 0.28 0.27 90.0 0 0 260.02 666.70
  L 260.02 625.47
  A 0.17 0.17 0.0 0 1 260.35 625.41
  Q 263.23 632.81 266.19 640.07"
/>
<path stroke="#b0bec5" vector-effect="non-scaling-stroke" d="
  M 305.97 649.99
  Q 311.14 649.99 312.03 650.03
  A 0.87 0.87 0.0 0 1 312.83 650.68
  L 316.70 666.44
  A 0.74 0.74 0.0 0 0 317.42 667.00
  L 322.75 667.00
  A 0.49 0.49 0.0 0 0 323.23 666.39
  L 309.68 611.19
  A 0.55 0.54 -5.8 0 0 309.17 610.78
  Q 307.63 610.73 306.01 610.72
  Q 304.39 610.72 302.85 610.77
  A 0.55 0.54 5.9 0 0 302.34 611.18
  L 288.68 666.36
  A 0.49 0.49 0.0 0 0 289.16 666.97
  L 294.49 666.98
  A 0.74 0.74 0.0 0 0 295.21 666.42
  L 299.11 650.67
  A 0.87 0.87 0.0 0 1 299.92 650.01
  Q 300.80 649.98 305.97 649.99"
/>
<path stroke="#b0bec5" vector-effect="non-scaling-stroke" d="
  M 389.97 615.98
  A 0.50 0.50 0.0 0 0 390.47 615.48
  L 390.47 611.23
  A 0.50 0.50 0.0 0 0 389.97 610.73
  L 366.04 610.73
  A 0.50 0.50 0.0 0 0 365.54 611.23
  L 365.54 666.49
  A 0.50 0.50 0.0 0 0 366.04 666.99
  L 390.48 666.99
  A 0.50 0.50 0.0 0 0 390.98 666.49
  L 390.98 662.26
  A 0.50 0.50 0.0 0 0 390.48 661.76
  L 372.49 661.76
  A 0.50 0.50 0.0 0 1 371.99 661.26
  L 371.99 640.78
  A 0.50 0.50 0.0 0 1 372.49 640.28
  L 388.47 640.28
  A 0.50 0.50 0.0 0 0 388.97 639.78
  L 388.97 635.53
  A 0.50 0.50 0.0 0 0 388.47 635.03
  L 372.49 635.03
  A 0.50 0.50 0.0 0 1 371.99 634.53
  L 371.99 616.48
  A 0.50 0.50 0.0 0 1 372.49 615.98
  L 389.97 615.98"
/>
<path stroke="#b0bec5" vector-effect="non-scaling-stroke" d="
  M 417.51 667.00
  Q 420.31 667.00 420.62 666.93
  A 0.44 0.42 -87.8 0 0 420.95 666.62
  L 431.48 624.77
  A 0.14 0.14 0.0 0 1 431.75 624.81
  L 431.75 666.69
  A 0.31 0.31 0.0 0 0 432.06 667.00
  L 437.71 667.00
  A 0.31 0.31 0.0 0 0 438.02 666.69
  L 438.01 611.34
  A 0.61 0.61 0.0 0 0 437.40 610.73
  L 429.42 610.73
  A 0.82 0.82 0.0 0 0 428.62 611.36
  Q 424.17 629.20 417.71 654.46
  Q 417.69 654.56 417.52 654.56
  Q 417.34 654.56 417.31 654.46
  Q 410.86 629.20 406.41 611.36
  A 0.82 0.82 0.0 0 0 405.61 610.73
  L 397.63 610.72
  A 0.61 0.61 0.0 0 0 397.02 611.33
  L 397.00 666.68
  A 0.31 0.31 0.0 0 0 397.31 666.99
  L 402.96 666.99
  A 0.31 0.31 0.0 0 0 403.27 666.68
  L 403.28 624.80
  A 0.14 0.14 0.0 0 1 403.55 624.76
  L 414.07 666.62
  A 0.44 0.42 87.8 0 0 414.40 666.93
  Q 414.71 667.00 417.51 667.00"
/>
<path stroke="#b0bec5" vector-effect="non-scaling-stroke" d="
  M 471.06 610.76
  L 447.16 610.72
  A 0.61 0.61 0.0 0 0 446.54 611.33
  L 446.52 666.34
  A 0.63 0.62 -90.0 0 0 447.14 666.97
  L 471.40 666.97
  A 0.60 0.60 0.0 0 0 472.00 666.35
  L 471.91 662.32
  A 0.60 0.59 89.5 0 0 471.32 661.73
  L 453.57 661.75
  A 0.59 0.58 89.5 0 1 452.98 661.16
  L 452.97 640.82
  A 0.56 0.56 0.0 0 1 453.53 640.26
  L 469.37 640.30
  A 0.60 0.60 0.0 0 0 469.97 639.70
  L 469.95 635.68
  A 0.66 0.65 0.0 0 0 469.29 635.03
  L 453.69 635.02
  A 0.70 0.69 89.6 0 1 453.00 634.33
  L 452.97 616.57
  A 0.58 0.58 0.0 0 1 453.55 615.99
  L 471.09 615.99
  A 0.38 0.37 -90.0 0 0 471.46 615.61
  L 471.45 611.14
  A 0.39 0.38 0.0 0 0 471.06 610.76"
/>
<path stroke="#b0bec5" vector-effect="non-scaling-stroke" d="
  M 490.18 640.05
  Q 491.96 644.41 500.58 666.30
  A 1.07 1.07 0.0 0 0 501.58 666.98
  L 507.69 666.98
  A 0.57 0.56 -0.0 0 0 508.26 666.42
  L 508.25 610.98
  A 0.27 0.27 0.0 0 0 507.98 610.71
  L 502.02 610.72
  A 0.28 0.27 90.0 0 0 501.75 611.00
  L 501.76 652.23
  A 0.17 0.17 0.0 0 1 501.43 652.29
  Q 498.55 644.89 495.59 637.63
  Q 493.82 633.27 485.19 611.38
  A 1.07 1.07 0.0 0 0 484.19 610.70
  L 478.08 610.70
  A 0.57 0.56 -0.0 0 0 477.51 611.26
  L 477.52 666.70
  A 0.27 0.27 0.0 0 0 477.79 666.96
  L 483.75 666.96
  A 0.28 0.27 90.0 0 0 484.02 666.68
  L 484.02 625.45
  A 0.17 0.17 0.0 0 1 484.34 625.39
  Q 487.23 632.79 490.18 640.05"
/>
<path stroke="#b0bec5" vector-effect="non-scaling-stroke" d="
  M 527.16 666.99
  Q 529.50 666.99 529.88 666.95
  A 0.41 0.41 0.0 0 0 530.26 666.54
  L 530.26 616.67
  A 0.70 0.69 -0.0 0 1 530.96 615.98
  L 541.35 615.98
  A 0.47 0.46 90.0 0 0 541.81 615.51
  L 541.81 611.21
  A 0.51 0.50 89.8 0 0 541.30 610.70
  Q 534.20 610.72 527.08 610.73
  Q 519.97 610.74 512.87 610.74
  A 0.51 0.50 -89.9 0 0 512.36 611.25
  L 512.37 615.55
  A 0.47 0.46 89.8 0 0 512.83 616.02
  L 523.22 615.99
  A 0.70 0.69 -0.2 0 1 523.93 616.68
  L 524.06 666.55
  A 0.41 0.41 0.0 0 0 524.44 666.96
  Q 524.82 666.99 527.16 666.99"
/>
<path stroke="#b0bec5" vector-effect="non-scaling-stroke" d="
  M 583.52 667.00
  Q 586.31 667.00 586.63 666.94
  A 0.44 0.42 -87.8 0 0 586.95 666.62
  L 597.47 624.77
  A 0.14 0.14 0.0 0 1 597.74 624.81
  L 597.75 666.69
  A 0.31 0.31 0.0 0 0 598.06 667.00
  L 603.72 667.00
  A 0.31 0.31 0.0 0 0 604.03 666.69
  L 604.01 611.33
  A 0.61 0.61 0.0 0 0 603.40 610.72
  L 595.42 610.73
  A 0.82 0.82 0.0 0 0 594.62 611.36
  Q 590.16 629.20 583.71 654.47
  Q 583.69 654.57 583.52 654.57
  Q 583.34 654.57 583.31 654.47
  Q 576.86 629.20 572.40 611.36
  A 0.82 0.82 0.0 0 0 571.60 610.73
  L 563.62 610.73
  A 0.61 0.61 0.0 0 0 563.01 611.34
  L 563.01 666.69
  A 0.31 0.31 0.0 0 0 563.32 667.00
  L 568.97 667.00
  A 0.31 0.31 0.0 0 0 569.28 666.69
  L 569.28 624.81
  A 0.14 0.14 0.0 0 1 569.55 624.77
  L 580.08 666.63
  A 0.44 0.42 87.8 0 0 580.40 666.94
  Q 580.72 667.00 583.52 667.00"
/>
<path stroke="#b0bec5" vector-effect="non-scaling-stroke" d="
  M 625.97 649.98
  Q 631.14 649.99 632.02 650.02
  A 0.87 0.87 0.0 0 1 632.83 650.67
  L 636.70 666.43
  A 0.74 0.74 0.0 0 0 637.41 666.99
  L 642.74 666.99
  A 0.49 0.49 0.0 0 0 643.22 666.38
  L 629.68 611.20
  A 0.55 0.54 -5.8 0 0 629.17 610.79
  Q 627.63 610.73 626.01 610.73
  Q 624.39 610.73 622.85 610.78
  A 0.55 0.54 5.9 0 0 622.34 611.19
  L 608.68 666.34
  A 0.49 0.49 0.0 0 0 609.16 666.95
  L 614.49 666.96
  A 0.74 0.74 0.0 0 0 615.21 666.40
  L 619.11 650.66
  A 0.87 0.87 0.0 0 1 619.92 650.01
  Q 620.80 649.98 625.97 649.98"
/>
<path stroke="#b0bec5" vector-effect="non-scaling-stroke" d="
  M 648.01 611.33
  L 648.01 666.39
  A 0.67 0.67 0.0 0 0 648.68 667.06
  L 662.53 667.06
  A 19.81 16.24 90.0 0 0 678.77 647.25
  L 678.77 630.47
  A 19.81 16.24 -90.0 0 0 662.53 610.66
  L 648.68 610.66
  A 0.67 0.67 0.0 0 0 648.01 611.33"
/>
<path stroke="#b0bec5" vector-effect="non-scaling-stroke" d="
  M 710.06 610.76
  L 686.16 610.73
  A 0.61 0.61 0.0 0 0 685.54 611.34
  L 685.54 666.35
  A 0.63 0.62 -90.0 0 0 686.16 666.98
  L 710.42 666.97
  A 0.60 0.60 0.0 0 0 711.02 666.35
  L 710.93 662.31
  A 0.60 0.59 89.5 0 0 710.34 661.72
  L 692.59 661.75
  A 0.59 0.58 89.5 0 1 692.00 661.16
  L 691.98 640.82
  A 0.56 0.56 0.0 0 1 692.54 640.26
  L 708.38 640.29
  A 0.60 0.60 0.0 0 0 708.98 639.69
  L 708.96 635.68
  A 0.66 0.65 0.0 0 0 708.30 635.03
  L 692.70 635.03
  A 0.70 0.69 89.6 0 1 692.01 634.34
  L 691.97 616.57
  A 0.58 0.58 0.0 0 1 692.55 615.99
  L 710.09 615.99
  A 0.38 0.37 -90.0 0 0 710.46 615.61
  L 710.45 611.14
  A 0.39 0.38 0.0 0 0 710.06 610.76"
/>
<path stroke="#b0bec5" vector-effect="non-scaling-stroke" d="
  M 757.07 610.73
  L 733.16 610.71
  A 0.61 0.61 0.0 0 0 732.54 611.32
  L 732.56 666.38
  A 0.63 0.62 90.0 0 0 733.18 667.01
  L 757.45 666.99
  A 0.60 0.60 0.0 0 0 758.05 666.37
  L 757.96 662.33
  A 0.60 0.59 89.5 0 0 757.37 661.74
  L 739.61 661.77
  A 0.59 0.58 89.5 0 1 739.02 661.18
  L 738.99 640.83
  A 0.56 0.56 0.0 0 1 739.55 640.27
  L 755.40 640.29
  A 0.60 0.60 0.0 0 0 756.00 639.69
  L 755.98 635.67
  A 0.66 0.65 -0.0 0 0 755.32 635.02
  L 739.71 635.02
  A 0.70 0.69 89.6 0 1 739.02 634.33
  L 738.97 616.56
  A 0.58 0.58 0.0 0 1 739.55 615.98
  L 757.11 615.96
  A 0.38 0.37 90.0 0 0 757.48 615.58
  L 757.46 611.11
  A 0.39 0.38 -0.0 0 0 757.07 610.73"
/>
<path stroke="#b0bec5" vector-effect="non-scaling-stroke" d="
  M 776.97 649.99
  Q 782.14 649.99 783.02 650.03
  A 0.87 0.87 0.0 0 1 783.83 650.68
  L 787.70 666.44
  A 0.74 0.74 0.0 0 0 788.42 667.00
  L 793.75 667.00
  A 0.49 0.49 0.0 0 0 794.23 666.39
  L 780.68 611.19
  A 0.55 0.54 -5.8 0 0 780.17 610.78
  Q 778.63 610.73 777.01 610.72
  Q 775.39 610.72 773.85 610.77
  A 0.55 0.54 5.9 0 0 773.34 611.18
  L 759.68 666.36
  A 0.49 0.49 0.0 0 0 760.16 666.97
  L 765.49 666.98
  A 0.74 0.74 0.0 0 0 766.21 666.42
  L 770.11 650.67
  A 0.87 0.87 0.0 0 1 770.92 650.01
  Q 771.80 649.98 776.97 649.99"
/>
<path stroke="#b0bec5" vector-effect="non-scaling-stroke" d="
  M 846.96 667.00
  Q 849.66 667.00 849.70 666.99
  A 0.66 0.65 -5.4 0 0 850.24 666.35
  L 850.25 643.98
  A 3.19 3.06 -34.7 0 1 850.50 642.76
  L 864.01 611.01
  A 0.18 0.18 0.0 0 0 863.85 610.76
  L 857.19 610.76
  A 0.31 0.30 11.8 0 0 856.91 610.94
  L 847.06 634.35
  A 0.05 0.04 9.0 0 1 847.02 634.37
  Q 847.01 634.37 846.99 634.37
  Q 846.97 634.37 846.96 634.37
  A 0.05 0.04 -8.9 0 1 846.92 634.35
  L 837.11 610.92
  A 0.31 0.30 -11.7 0 0 836.83 610.74
  L 830.17 610.73
  A 0.18 0.18 0.0 0 0 830.01 610.98
  L 843.47 642.75
  A 3.19 3.06 34.8 0 1 843.72 643.97
  L 843.69 666.34
  A 0.66 0.65 5.5 0 0 844.23 666.99
  Q 844.27 667.00 846.96 667.00"
/>
<path stroke="#94badd" vector-effect="non-scaling-stroke" d="
  M 106.08 512.00
  L 161.32 512.00
  A 0.55 0.55 0.0 0 0 161.87 511.45
  L 161.87 498.26
  A 14.75 14.52 0.0 0 0 147.12 483.74
  L 120.28 483.74
  A 14.75 14.52 -0.0 0 0 105.53 498.26
  L 105.53 511.45
  A 0.55 0.55 0.0 0 0 106.08 512.00"
/>
<path stroke="#94badd" vector-effect="non-scaling-stroke" d="
  M 892.04 493.36
  A 10.56 10.56 0.0 0 0 881.48 482.80
  A 10.56 10.56 0.0 0 0 870.92 493.36
  A 10.56 10.56 0.0 0 0 881.48 503.92
  A 10.56 10.56 0.0 0 0 892.04 493.36"
/>
<path stroke="#94badd" vector-effect="non-scaling-stroke" d="
  M 883.51 494.06
  Q 886.81 492.83 886.32 489.70
  A 3.15 3.14 -0.2 0 0 883.67 487.08
  Q 880.85 486.66 876.47 486.85
  A 0.63 0.62 88.6 0 0 875.88 487.48
  L 875.88 499.66
  A 0.79 0.79 0.0 0 0 876.67 500.45
  L 877.40 500.45
  A 0.73 0.72 -90.0 0 0 878.12 499.72
  L 878.12 495.21
  A 0.65 0.65 0.0 0 1 878.73 494.56
  C 881.73 494.35 883.22 497.46 884.32 499.79
  A 1.07 1.06 77.2 0 0 885.28 500.40
  L 886.76 500.40
  A 0.47 0.47 0.0 0 0 887.14 499.65
  L 883.34 494.64
  A 0.38 0.38 0.0 0 1 883.51 494.06"
/>
<path stroke="#94badd" vector-effect="non-scaling-stroke" d="
  M 878.14 489.01
  L 878.12 492.17
  A 0.43 0.43 0.0 0 0 878.55 492.61
  L 881.44 492.62
  A 2.64 1.87 0.3 0 0 884.09 490.77
  L 884.09 490.49
  A 2.64 1.87 0.3 0 0 881.46 488.60
  L 878.57 488.59
  A 0.43 0.43 0.0 0 0 878.14 489.01"
/>
<path stroke="#94badd" vector-effect="non-scaling-stroke" d="
  M 566.84 518.97
  A 9.81 9.81 0.0 0 0 557.03 509.16
  L 537.37 509.16
  A 9.81 9.81 0.0 0 0 527.56 518.97
  L 527.56 538.63
  A 9.81 9.81 0.0 0 0 537.37 548.44
  L 557.03 548.44
  A 9.81 9.81 0.0 0 0 566.84 538.63
  L 566.84 518.97"
/>
<path stroke="#94badd" vector-effect="non-scaling-stroke" d="
  M 784.02 528.81
  L 822.38 528.81
  A 0.52 0.52 0.0 0 0 822.90 528.29
  L 822.90 519.31
  A 10.16 10.01 90.0 0 0 812.89 509.15
  L 793.51 509.15
  A 10.16 10.01 -90.0 0 0 783.50 519.31
  L 783.50 528.29
  A 0.52 0.52 0.0 0 0 784.02 528.81"
/>
<path stroke="#b0bec5" vector-effect="non-scaling-stroke" d="
  M 86.26 638.92
  C 86.28 644.84 86.53 663.06 95.99 663.02
  C 105.45 662.99 105.57 644.77 105.54 638.85
  C 105.52 632.92 105.28 614.71 95.81 614.74
  C 86.35 614.78 86.24 632.99 86.26 638.92"
/>
<path stroke="#b0bec5" vector-effect="non-scaling-stroke" d="
  M 124.44 616.34
  L 124.48 634.48
  A 0.36 0.36 0.0 0 0 124.84 634.84
  L 130.16 634.83
  A 8.84 8.41 -0.1 0 0 138.98 626.41
  L 138.98 624.37
  A 8.84 8.41 -0.1 0 0 130.12 615.97
  L 124.80 615.98
  A 0.36 0.36 0.0 0 0 124.44 616.34"
/>
<path stroke="#b0bec5" vector-effect="non-scaling-stroke" d="
  M 124.42 640.55
  L 124.50 661.29
  A 0.33 0.33 0.0 0 0 124.83 661.62
  L 131.07 661.59
  A 9.35 9.24 -0.2 0 0 140.39 652.32
  L 140.37 649.40
  A 9.35 9.24 -0.2 0 0 130.99 640.19
  L 124.75 640.22
  A 0.33 0.33 0.0 0 0 124.42 640.55"
/>
<path stroke="#b0bec5" vector-effect="non-scaling-stroke" d="
  M 232.97 644.73
  Q 235.58 644.73 238.23 644.67
  A 0.24 0.24 0.0 0 0 238.46 644.37
  Q 233.59 624.32 233.17 622.47
  Q 233.13 622.31 232.95 622.31
  Q 232.77 622.31 232.74 622.47
  Q 232.32 624.32 227.48 644.38
  A 0.24 0.24 0.0 0 0 227.71 644.68
  Q 230.37 644.74 232.97 644.73"
/>
<path stroke="#b0bec5" vector-effect="non-scaling-stroke" d="
  M 305.97 644.73
  Q 308.56 644.73 311.21 644.66
  A 0.24 0.24 0.0 0 0 311.44 644.37
  Q 306.59 624.36 306.17 622.51
  Q 306.14 622.36 305.95 622.36
  Q 305.78 622.36 305.74 622.51
  Q 305.33 624.36 300.49 644.37
  A 0.24 0.24 0.0 0 0 300.72 644.67
  Q 303.37 644.73 305.97 644.73"
/>
<path stroke="#b0bec5" vector-effect="non-scaling-stroke" d="
  M 625.97 644.73
  Q 628.58 644.73 631.23 644.66
  A 0.24 0.24 0.0 0 0 631.46 644.37
  Q 626.59 624.31 626.17 622.46
  Q 626.13 622.31 625.94 622.31
  Q 625.77 622.31 625.74 622.46
  Q 625.32 624.32 620.48 644.38
  A 0.24 0.24 0.0 0 0 620.71 644.67
  Q 623.37 644.73 625.97 644.73"
/>
<path stroke="#b0bec5" vector-effect="non-scaling-stroke" d="
  M 654.39 616.57
  L 654.15 660.97
  A 0.79 0.79 0.0 0 0 654.94 661.77
  L 660.59 661.80
  A 16.09 11.70 -89.7 0 0 672.37 645.77
  L 672.45 631.97
  A 16.09 11.70 -89.7 0 0 660.83 615.82
  L 655.18 615.79
  A 0.79 0.79 0.0 0 0 654.39 616.57"
/>
<path stroke="#b0bec5" vector-effect="non-scaling-stroke" d="
  M 776.97 644.73
  Q 779.57 644.73 782.22 644.66
  A 0.24 0.24 0.0 0 0 782.45 644.37
  Q 777.59 624.35 777.17 622.50
  Q 777.14 622.35 776.95 622.35
  Q 776.78 622.35 776.74 622.50
  Q 776.32 624.35 771.49 644.37
  A 0.24 0.24 0.0 0 0 771.72 644.67
  Q 774.37 644.73 776.97 644.73"
/>
</g>
<path fill="#ffffff" d="
  M 931.00 0.00
  L 931.00 931.00
  L 0.00 931.00
  L 0.00 0.00
  L 931.00 0.00
  Z
  M 692.22 455.92
  L 690.64 439.51
  A 0.99 0.98 -85.3 0 0 689.93 438.66
  Q 672.82 433.87 656.60 431.37
  A 0.85 0.84 -1.5 0 1 655.90 430.71
  Q 653.38 418.50 648.73 405.77
  A 0.82 0.82 0.0 0 1 648.99 404.84
  Q 662.18 394.49 674.10 382.99
  A 0.98 0.97 -35.3 0 0 674.30 381.85
  L 666.94 366.89
  A 1.02 1.02 0.0 0 0 665.94 366.33
  Q 649.52 367.84 632.45 371.50
  A 1.12 1.12 0.0 0 1 631.28 371.02
  Q 624.56 360.68 615.62 350.41
  A 0.79 0.78 39.6 0 1 615.53 349.49
  Q 625.20 333.13 631.16 319.70
  A 0.54 0.54 0.0 0 0 631.03 319.09
  L 618.16 307.30
  A 0.47 0.45 -35.9 0 0 617.66 307.23
  C 607.58 312.15 598.71 317.62 587.76 324.47
  A 0.86 0.85 -42.8 0 1 586.79 324.44
  Q 576.35 316.83 564.77 310.93
  A 0.82 0.82 0.0 0 1 564.34 310.08
  Q 567.14 293.25 568.17 276.77
  A 0.78 0.77 12.7 0 0 567.68 276.01
  L 551.79 269.83
  A 0.82 0.82 0.0 0 0 550.88 270.04
  C 543.40 278.14 536.24 287.15 529.48 296.53
  A 1.01 1.01 0.0 0 1 528.41 296.92
  Q 516.05 293.74 503.08 292.36
  A 0.83 0.83 0.0 0 1 502.35 291.70
  Q 498.73 274.32 493.86 259.36
  A 0.98 0.97 -9.0 0 0 492.93 258.69
  L 476.15 258.69
  A 1.04 1.04 0.0 0 0 475.18 259.35
  Q 469.17 274.90 464.94 291.77
  A 0.88 0.88 0.0 0 1 464.19 292.43
  Q 451.27 293.90 438.85 297.24
  A 0.92 0.91 -24.0 0 1 437.85 296.86
  Q 428.78 282.88 418.19 269.68
  A 0.61 0.60 59.8 0 0 417.50 269.49
  L 401.45 275.66
  A 0.85 0.83 -10.8 0 0 400.91 276.44
  Q 400.88 292.71 403.01 310.49
  A 0.89 0.88 73.1 0 1 402.54 311.38
  Q 391.39 317.19 380.66 324.99
  A 1.08 1.08 0.0 0 1 379.38 324.99
  Q 364.82 314.46 351.37 306.78
  A 0.59 0.58 38.6 0 0 350.69 306.85
  L 337.92 318.43
  A 0.83 0.82 58.7 0 0 337.70 319.35
  Q 344.11 335.55 352.15 350.49
  A 0.66 0.64 52.1 0 1 352.07 351.22
  Q 343.64 360.79 336.40 372.08
  A 0.85 0.84 23.6 0 1 335.47 372.44
  Q 318.56 367.99 302.77 365.52
  A 0.80 0.80 0.0 0 0 301.93 365.95
  L 294.30 381.21
  A 0.82 0.82 0.0 0 0 294.43 382.14
  Q 305.78 394.60 318.99 405.89
  A 0.86 0.86 0.0 0 1 319.24 406.82
  Q 314.62 419.51 312.17 431.76
  A 0.80 0.79 -88.4 0 1 311.51 432.39
  C 301.18 433.91 291.04 435.14 278.52 437.84
  A 1.02 1.02 0.0 0 0 277.72 438.74
  L 276.10 455.83
  A 0.70 0.70 0.0 0 0 276.80 456.60
  L 346.76 456.60
  A 0.35 0.35 0.0 0 0 347.11 456.28
  C 349.83 423.54 363.28 393.72 386.25 370.32
  C 414.75 341.28 456.16 325.87 496.91 329.91
  C 563.41 336.51 615.95 388.85 621.13 456.16
  A 0.48 0.47 -1.9 0 0 621.61 456.60
  L 691.60 456.60
  A 0.62 0.62 0.0 0 0 692.22 455.92
  Z
  M 133.71 539.98
  Q 161.35 539.98 161.50 540.00
  A 0.39 0.39 0.0 0 1 161.83 540.39
  L 161.83 567.88
  A 0.31 0.30 -0.0 0 0 162.14 568.18
  L 217.52 568.18
  A 0.57 0.57 0.0 0 0 218.09 567.62
  Q 218.10 566.57 218.15 506.47
  Q 218.17 491.32 216.64 486.17
  Q 212.97 473.74 202.31 464.91
  Q 191.03 455.57 174.00 455.60
  Q 152.85 455.63 133.70 455.63
  Q 114.55 455.63 93.40 455.61
  Q 76.37 455.58 65.09 464.93
  Q 54.43 473.76 50.77 486.19
  Q 49.24 491.34 49.26 506.49
  Q 49.33 566.59 49.34 567.64
  A 0.57 0.57 0.0 0 0 49.91 568.20
  L 105.29 568.19
  A 0.31 0.30 -0.0 0 0 105.60 567.89
  L 105.59 540.40
  A 0.39 0.39 0.0 0 1 105.92 540.01
  Q 106.07 539.99 133.71 539.98
  Z
  M 894.13 493.34
  A 12.66 12.66 0.0 0 0 881.47 480.68
  A 12.66 12.66 0.0 0 0 868.81 493.34
  A 12.66 12.66 0.0 0 0 881.47 506.00
  A 12.66 12.66 0.0 0 0 894.13 493.34
  Z
  M 616.39 568.18
  L 655.14 568.19
  A 0.40 0.39 -90.0 0 0 655.53 567.79
  L 655.53 509.59
  A 0.39 0.38 -0.0 0 1 655.92 509.21
  Q 682.81 509.17 682.94 509.17
  Q 687.13 509.06 688.95 509.94
  C 696.58 513.66 696.89 524.00 689.32 527.84
  Q 687.33 528.85 682.48 528.84
  Q 661.94 528.79 661.07 528.80
  A 0.67 0.66 -0.4 0 0 660.41 529.46
  L 660.41 547.73
  A 0.64 0.63 -89.5 0 0 661.03 548.37
  Q 669.04 548.49 680.58 548.36
  Q 687.03 548.29 689.21 549.46
  C 696.67 553.45 694.58 560.35 694.92 567.56
  A 0.66 0.66 0.0 0 0 695.58 568.19
  L 733.67 568.19
  A 0.61 0.60 -89.0 0 0 734.27 567.60
  Q 734.37 561.95 734.29 553.19
  C 734.24 547.92 732.90 543.46 729.24 540.54
  Q 727.75 539.34 727.32 538.90
  A 0.62 0.61 43.2 0 1 727.29 538.08
  C 741.07 521.34 733.63 496.34 712.49 490.47
  Q 708.37 489.32 696.94 489.36
  Q 680.77 489.42 616.57 489.38
  A 0.46 0.46 0.0 0 0 616.11 489.84
  L 616.11 567.91
  A 0.28 0.27 -0.0 0 0 616.39 568.18
  Z
  M 291.25 538.60
  Q 309.69 538.60 310.25 538.62
  A 0.77 0.77 0.0 0 1 310.97 539.55
  Q 309.80 544.84 306.11 547.12
  Q 303.82 548.53 298.07 548.46
  Q 289.02 548.35 232.49 548.42
  A 0.37 0.37 0.0 0 0 232.12 548.79
  L 232.12 567.87
  A 0.32 0.32 0.0 0 0 232.44 568.19
  Q 298.91 568.18 317.34 568.20
  Q 320.74 568.21 324.11 567.87
  C 336.10 566.67 345.53 558.30 349.00 547.43
  Q 350.57 542.49 350.37 533.98
  Q 350.13 523.45 350.31 519.40
  A 0.36 0.35 -87.9 0 0 349.96 519.02
  Q 348.91 518.99 291.17 519.00
  Q 272.73 519.00 272.17 518.97
  A 0.77 0.77 0.0 0 1 271.45 518.05
  Q 272.62 512.76 276.31 510.48
  Q 278.60 509.07 284.35 509.14
  Q 293.40 509.25 349.93 509.18
  A 0.37 0.37 0.0 0 0 350.30 508.81
  L 350.30 489.73
  A 0.32 0.32 0.0 0 0 349.98 489.41
  Q 283.51 489.42 265.08 489.40
  Q 261.68 489.39 258.31 489.73
  C 246.32 490.93 236.89 499.30 233.42 510.17
  Q 231.85 515.11 232.05 523.62
  Q 232.29 534.15 232.11 538.20
  A 0.36 0.35 -87.9 0 0 232.46 538.57
  Q 233.51 538.61 291.25 538.60
  Z
  M 477.58 548.41
  Q 453.38 548.35 411.65 548.45
  C 406.26 548.46 403.84 547.64 400.86 543.70
  Q 399.43 541.82 399.50 536.20
  Q 399.60 528.29 399.49 519.97
  Q 399.41 513.50 404.40 510.49
  Q 406.78 509.05 411.37 509.13
  Q 421.44 509.30 425.60 509.14
  Q 431.69 508.90 434.25 510.63
  Q 438.37 513.41 438.86 518.42
  A 0.66 0.65 87.1 0 0 439.51 519.01
  L 477.82 519.01
  A 0.54 0.54 0.0 0 0 478.36 518.44
  Q 477.49 502.34 464.50 493.99
  C 460.01 491.10 454.13 489.45 449.00 489.45
  Q 428.51 489.41 398.81 489.35
  Q 384.75 489.32 380.35 490.89
  C 369.07 494.92 360.73 504.84 360.23 517.02
  Q 359.99 522.93 360.15 539.07
  C 360.32 555.56 373.65 568.02 389.82 568.14
  Q 398.03 568.19 455.01 568.20
  C 462.74 568.20 467.74 567.26 472.73 562.03
  Q 478.17 556.34 478.24 549.08
  A 0.66 0.66 0.0 0 0 477.58 548.41
  Z
  M 488.11 538.71
  A 29.48 29.48 0.0 0 0 517.59 568.19
  L 576.83 568.19
  A 29.48 29.48 0.0 0 0 606.31 538.71
  L 606.31 518.88
  A 29.48 29.48 0.0 0 0 576.83 489.40
  L 517.59 489.40
  A 29.48 29.48 0.0 0 0 488.11 518.88
  L 488.11 538.71
  Z
  M 803.21 548.40
  Q 822.05 548.40 822.30 548.43
  A 0.67 0.66 3.8 0 1 822.88 549.09
  L 822.88 567.70
  A 0.49 0.49 0.0 0 0 823.37 568.19
  L 861.69 568.19
  A 0.64 0.63 -90.0 0 0 862.32 567.55
  Q 862.24 558.30 862.34 530.44
  Q 862.40 515.67 861.71 512.61
  C 858.62 498.86 846.78 489.78 832.75 489.46
  Q 830.14 489.40 803.21 489.40
  Q 776.28 489.40 773.67 489.46
  C 759.64 489.78 747.80 498.86 744.71 512.61
  Q 744.02 515.67 744.08 530.44
  Q 744.18 558.30 744.10 567.55
  A 0.64 0.63 -90.0 0 0 744.73 568.19
  L 783.05 568.19
  A 0.49 0.49 0.0 0 0 783.54 567.70
  L 783.54 549.09
  A 0.67 0.66 -3.8 0 1 784.11 548.43
  Q 784.37 548.40 803.21 548.40
  Z
  M 80.07 638.89
  C 80.07 647.96 79.60 666.83 92.99 668.25
  Q 93.02 668.26 95.93 668.26
  Q 98.84 668.26 98.87 668.25
  C 112.26 666.83 111.79 647.96 111.79 638.89
  C 111.79 629.82 112.26 610.95 98.87 609.53
  Q 98.84 609.52 95.93 609.52
  Q 93.02 609.52 93.00 609.53
  C 79.60 610.95 80.07 629.82 80.07 638.89
  Z
  M 352.02 664.79
  Q 352.36 665.34 352.13 666.04
  A 0.73 0.72 9.4 0 0 352.82 667.00
  L 356.83 667.00
  A 0.90 0.90 0.0 0 0 357.73 666.10
  L 357.73 638.81
  A 0.28 0.27 0.0 0 0 357.45 638.54
  L 340.80 638.54
  A 0.27 0.26 -0.0 0 0 340.53 638.80
  L 340.53 643.45
  A 0.27 0.27 0.0 0 0 340.80 643.72
  L 350.69 643.72
  A 0.60 0.60 0.0 0 1 351.29 644.32
  C 351.29 649.55 350.64 657.05 346.85 660.77
  Q 342.93 664.60 338.68 661.75
  C 334.58 659.00 333.28 652.27 332.86 647.68
  Q 332.09 639.38 332.84 630.04
  Q 333.24 624.94 334.97 620.72
  C 336.81 616.21 341.50 612.73 346.12 616.11
  C 349.16 618.33 350.44 622.89 350.71 626.38
  A 0.38 0.37 87.5 0 0 351.08 626.73
  L 356.63 626.73
  A 0.30 0.30 0.0 0 0 356.93 626.45
  Q 357.45 617.87 351.58 612.52
  C 347.72 608.99 344.12 609.51 338.53 609.57
  A 3.93 3.91 36.4 0 0 337.53 609.72
  C 326.20 613.04 326.38 626.91 326.12 636.23
  Q 326.00 640.75 326.50 648.75
  C 327.06 657.55 329.96 668.26 340.61 668.33
  C 345.15 668.35 348.29 667.98 351.21 664.72
  A 0.50 0.50 0.0 0 1 352.02 664.79
  Z
  M 825.98 624.75
  C 825.97 617.61 823.29 611.39 815.78 609.61
  A 2.77 2.47 48.3 0 0 815.18 609.54
  L 808.63 609.54
  A 3.12 2.98 -51.5 0 0 807.82 609.65
  Q 801.93 611.27 799.51 616.32
  C 797.16 621.21 796.59 630.39 800.61 634.91
  C 804.47 639.26 810.83 641.36 815.02 643.24
  Q 821.36 646.11 820.76 653.42
  Q 820.26 659.40 815.67 661.85
  Q 810.59 664.57 806.45 660.79
  Q 803.42 658.01 802.96 650.57
  A 0.33 0.33 0.0 0 0 802.63 650.26
  L 797.13 650.26
  A 0.34 0.33 1.8 0 0 796.79 650.57
  C 796.27 657.83 799.72 667.44 808.29 668.14
  C 815.96 668.76 822.21 667.77 825.70 660.54
  Q 828.32 655.09 826.70 646.91
  C 825.20 639.30 814.79 636.27 808.49 633.07
  C 803.32 630.44 803.28 622.99 805.68 618.70
  C 807.78 614.96 812.32 613.43 815.93 616.18
  Q 819.67 619.03 819.61 624.71
  A 0.27 0.27 0.0 0 0 819.88 624.98
  L 825.74 624.98
  A 0.24 0.23 -0.0 0 0 825.98 624.75
  Z
  M 65.30 610.73
  A 0.29 0.29 0.0 0 0 65.01 611.02
  Q 65.01 655.60 65.00 655.75
  Q 64.81 659.90 63.45 661.35
  Q 60.46 664.53 57.44 661.51
  Q 54.77 658.85 55.35 650.19
  A 0.44 0.43 1.8 0 0 54.91 649.73
  L 49.25 649.73
  A 0.46 0.45 2.0 0 0 48.79 650.15
  C 48.24 657.47 49.25 668.53 59.45 668.32
  Q 63.66 668.24 64.67 667.92
  C 69.48 666.40 71.39 661.43 71.43 656.50
  Q 71.48 649.34 71.45 611.01
  A 0.28 0.28 0.0 0 0 71.17 610.73
  L 65.30 610.73
  Z
  M 140.25 636.89
  Q 144.69 633.62 145.26 627.75
  C 146.12 618.79 143.34 610.98 132.97 610.78
  Q 125.82 610.63 118.55 610.76
  A 0.29 0.29 0.0 0 0 118.27 611.05
  L 118.27 666.36
  A 0.58 0.58 0.0 0 0 118.83 666.94
  C 134.13 667.35 148.33 668.30 146.65 647.81
  Q 146.06 640.57 140.29 637.50
  A 0.36 0.36 0.0 0 1 140.25 636.89
  Z
  M 190.52 667.00
  Q 193.32 667.00 193.63 666.93
  A 0.44 0.42 -87.7 0 0 193.96 666.62
  L 204.49 624.77
  A 0.14 0.14 0.0 0 1 204.76 624.81
  L 204.76 666.69
  A 0.31 0.31 0.0 0 0 205.07 667.00
  L 210.72 667.00
  A 0.31 0.31 0.0 0 0 211.03 666.69
  L 211.03 611.34
  A 0.61 0.61 0.0 0 0 210.42 610.73
  L 202.44 610.73
  A 0.82 0.82 0.0 0 0 201.64 611.36
  Q 197.18 629.20 190.72 654.46
  Q 190.70 654.56 190.53 654.56
  Q 190.35 654.56 190.32 654.46
  Q 183.88 629.20 179.42 611.36
  A 0.82 0.82 0.0 0 0 178.62 610.73
  L 170.64 610.72
  A 0.61 0.61 0.0 0 0 170.03 611.33
  L 170.01 666.68
  A 0.31 0.31 0.0 0 0 170.32 666.99
  L 175.97 667.00
  A 0.31 0.31 0.0 0 0 176.28 666.69
  L 176.30 624.81
  A 0.14 0.14 0.0 0 1 176.57 624.77
  L 187.08 666.62
  A 0.44 0.42 87.8 0 0 187.41 666.93
  Q 187.72 667.00 190.52 667.00
  Z
  M 232.98 649.99
  Q 238.15 649.99 239.03 650.03
  A 0.87 0.87 0.0 0 1 239.84 650.68
  L 243.71 666.44
  A 0.74 0.74 0.0 0 0 244.43 667.00
  L 249.76 667.00
  A 0.49 0.49 0.0 0 0 250.24 666.39
  L 236.68 611.19
  A 0.55 0.54 -5.8 0 0 236.17 610.78
  Q 234.63 610.73 233.01 610.73
  Q 231.39 610.73 229.85 610.78
  A 0.55 0.54 5.9 0 0 229.34 611.18
  L 215.69 666.36
  A 0.49 0.49 0.0 0 0 216.17 666.97
  L 221.50 666.98
  A 0.74 0.74 0.0 0 0 222.22 666.42
  L 226.11 650.67
  A 0.87 0.87 0.0 0 1 226.92 650.02
  Q 227.81 649.99 232.98 649.99
  Z
  M 266.19 640.07
  Q 267.96 644.43 276.58 666.32
  A 1.07 1.07 0.0 0 0 277.58 667.00
  L 283.69 667.00
  A 0.57 0.56 -0.0 0 0 284.26 666.44
  L 284.26 611.01
  A 0.27 0.27 0.0 0 0 283.99 610.74
  L 278.03 610.74
  A 0.28 0.27 90.0 0 0 277.76 611.02
  L 277.76 652.25
  A 0.17 0.17 0.0 0 1 277.43 652.31
  Q 274.55 644.91 271.59 637.65
  Q 269.82 633.29 261.20 611.40
  A 1.07 1.07 0.0 0 0 260.20 610.72
  L 254.09 610.72
  A 0.57 0.56 0.0 0 0 253.52 611.28
  L 253.52 666.71
  A 0.27 0.27 0.0 0 0 253.79 666.98
  L 259.75 666.98
  A 0.28 0.27 90.0 0 0 260.02 666.70
  L 260.02 625.47
  A 0.17 0.17 0.0 0 1 260.35 625.41
  Q 263.23 632.81 266.19 640.07
  Z
  M 305.97 649.99
  Q 311.14 649.99 312.03 650.03
  A 0.87 0.87 0.0 0 1 312.83 650.68
  L 316.70 666.44
  A 0.74 0.74 0.0 0 0 317.42 667.00
  L 322.75 667.00
  A 0.49 0.49 0.0 0 0 323.23 666.39
  L 309.68 611.19
  A 0.55 0.54 -5.8 0 0 309.17 610.78
  Q 307.63 610.73 306.01 610.72
  Q 304.39 610.72 302.85 610.77
  A 0.55 0.54 5.9 0 0 302.34 611.18
  L 288.68 666.36
  A 0.49 0.49 0.0 0 0 289.16 666.97
  L 294.49 666.98
  A 0.74 0.74 0.0 0 0 295.21 666.42
  L 299.11 650.67
  A 0.87 0.87 0.0 0 1 299.92 650.01
  Q 300.80 649.98 305.97 649.99
  Z
  M 389.97 615.98
  A 0.50 0.50 0.0 0 0 390.47 615.48
  L 390.47 611.23
  A 0.50 0.50 0.0 0 0 389.97 610.73
  L 366.04 610.73
  A 0.50 0.50 0.0 0 0 365.54 611.23
  L 365.54 666.49
  A 0.50 0.50 0.0 0 0 366.04 666.99
  L 390.48 666.99
  A 0.50 0.50 0.0 0 0 390.98 666.49
  L 390.98 662.26
  A 0.50 0.50 0.0 0 0 390.48 661.76
  L 372.49 661.76
  A 0.50 0.50 0.0 0 1 371.99 661.26
  L 371.99 640.78
  A 0.50 0.50 0.0 0 1 372.49 640.28
  L 388.47 640.28
  A 0.50 0.50 0.0 0 0 388.97 639.78
  L 388.97 635.53
  A 0.50 0.50 0.0 0 0 388.47 635.03
  L 372.49 635.03
  A 0.50 0.50 0.0 0 1 371.99 634.53
  L 371.99 616.48
  A 0.50 0.50 0.0 0 1 372.49 615.98
  L 389.97 615.98
  Z
  M 417.51 667.00
  Q 420.31 667.00 420.62 666.93
  A 0.44 0.42 -87.8 0 0 420.95 666.62
  L 431.48 624.77
  A 0.14 0.14 0.0 0 1 431.75 624.81
  L 431.75 666.69
  A 0.31 0.31 0.0 0 0 432.06 667.00
  L 437.71 667.00
  A 0.31 0.31 0.0 0 0 438.02 666.69
  L 438.01 611.34
  A 0.61 0.61 0.0 0 0 437.40 610.73
  L 429.42 610.73
  A 0.82 0.82 0.0 0 0 428.62 611.36
  Q 424.17 629.20 417.71 654.46
  Q 417.69 654.56 417.52 654.56
  Q 417.34 654.56 417.31 654.46
  Q 410.86 629.20 406.41 611.36
  A 0.82 0.82 0.0 0 0 405.61 610.73
  L 397.63 610.72
  A 0.61 0.61 0.0 0 0 397.02 611.33
  L 397.00 666.68
  A 0.31 0.31 0.0 0 0 397.31 666.99
  L 402.96 666.99
  A 0.31 0.31 0.0 0 0 403.27 666.68
  L 403.28 624.80
  A 0.14 0.14 0.0 0 1 403.55 624.76
  L 414.07 666.62
  A 0.44 0.42 87.8 0 0 414.40 666.93
  Q 414.71 667.00 417.51 667.00
  Z
  M 471.06 610.76
  L 447.16 610.72
  A 0.61 0.61 0.0 0 0 446.54 611.33
  L 446.52 666.34
  A 0.63 0.62 -90.0 0 0 447.14 666.97
  L 471.40 666.97
  A 0.60 0.60 0.0 0 0 472.00 666.35
  L 471.91 662.32
  A 0.60 0.59 89.5 0 0 471.32 661.73
  L 453.57 661.75
  A 0.59 0.58 89.5 0 1 452.98 661.16
  L 452.97 640.82
  A 0.56 0.56 0.0 0 1 453.53 640.26
  L 469.37 640.30
  A 0.60 0.60 0.0 0 0 469.97 639.70
  L 469.95 635.68
  A 0.66 0.65 0.0 0 0 469.29 635.03
  L 453.69 635.02
  A 0.70 0.69 89.6 0 1 453.00 634.33
  L 452.97 616.57
  A 0.58 0.58 0.0 0 1 453.55 615.99
  L 471.09 615.99
  A 0.38 0.37 -90.0 0 0 471.46 615.61
  L 471.45 611.14
  A 0.39 0.38 0.0 0 0 471.06 610.76
  Z
  M 490.18 640.05
  Q 491.96 644.41 500.58 666.30
  A 1.07 1.07 0.0 0 0 501.58 666.98
  L 507.69 666.98
  A 0.57 0.56 -0.0 0 0 508.26 666.42
  L 508.25 610.98
  A 0.27 0.27 0.0 0 0 507.98 610.71
  L 502.02 610.72
  A 0.28 0.27 90.0 0 0 501.75 611.00
  L 501.76 652.23
  A 0.17 0.17 0.0 0 1 501.43 652.29
  Q 498.55 644.89 495.59 637.63
  Q 493.82 633.27 485.19 611.38
  A 1.07 1.07 0.0 0 0 484.19 610.70
  L 478.08 610.70
  A 0.57 0.56 -0.0 0 0 477.51 611.26
  L 477.52 666.70
  A 0.27 0.27 0.0 0 0 477.79 666.96
  L 483.75 666.96
  A 0.28 0.27 90.0 0 0 484.02 666.68
  L 484.02 625.45
  A 0.17 0.17 0.0 0 1 484.34 625.39
  Q 487.23 632.79 490.18 640.05
  Z
  M 527.16 666.99
  Q 529.50 666.99 529.88 666.95
  A 0.41 0.41 0.0 0 0 530.26 666.54
  L 530.26 616.67
  A 0.70 0.69 -0.0 0 1 530.96 615.98
  L 541.35 615.98
  A 0.47 0.46 90.0 0 0 541.81 615.51
  L 541.81 611.21
  A 0.51 0.50 89.8 0 0 541.30 610.70
  Q 534.20 610.72 527.08 610.73
  Q 519.97 610.74 512.87 610.74
  A 0.51 0.50 -89.9 0 0 512.36 611.25
  L 512.37 615.55
  A 0.47 0.46 89.8 0 0 512.83 616.02
  L 523.22 615.99
  A 0.70 0.69 -0.2 0 1 523.93 616.68
  L 524.06 666.55
  A 0.41 0.41 0.0 0 0 524.44 666.96
  Q 524.82 666.99 527.16 666.99
  Z
  M 583.52 667.00
  Q 586.31 667.00 586.63 666.94
  A 0.44 0.42 -87.8 0 0 586.95 666.62
  L 597.47 624.77
  A 0.14 0.14 0.0 0 1 597.74 624.81
  L 597.75 666.69
  A 0.31 0.31 0.0 0 0 598.06 667.00
  L 603.72 667.00
  A 0.31 0.31 0.0 0 0 604.03 666.69
  L 604.01 611.33
  A 0.61 0.61 0.0 0 0 603.40 610.72
  L 595.42 610.73
  A 0.82 0.82 0.0 0 0 594.62 611.36
  Q 590.16 629.20 583.71 654.47
  Q 583.69 654.57 583.52 654.57
  Q 583.34 654.57 583.31 654.47
  Q 576.86 629.20 572.40 611.36
  A 0.82 0.82 0.0 0 0 571.60 610.73
  L 563.62 610.73
  A 0.61 0.61 0.0 0 0 563.01 611.34
  L 563.01 666.69
  A 0.31 0.31 0.0 0 0 563.32 667.00
  L 568.97 667.00
  A 0.31 0.31 0.0 0 0 569.28 666.69
  L 569.28 624.81
  A 0.14 0.14 0.0 0 1 569.55 624.77
  L 580.08 666.63
  A 0.44 0.42 87.8 0 0 580.40 666.94
  Q 580.72 667.00 583.52 667.00
  Z
  M 625.97 649.98
  Q 631.14 649.99 632.02 650.02
  A 0.87 0.87 0.0 0 1 632.83 650.67
  L 636.70 666.43
  A 0.74 0.74 0.0 0 0 637.41 666.99
  L 642.74 666.99
  A 0.49 0.49 0.0 0 0 643.22 666.38
  L 629.68 611.20
  A 0.55 0.54 -5.8 0 0 629.17 610.79
  Q 627.63 610.73 626.01 610.73
  Q 624.39 610.73 622.85 610.78
  A 0.55 0.54 5.9 0 0 622.34 611.19
  L 608.68 666.34
  A 0.49 0.49 0.0 0 0 609.16 666.95
  L 614.49 666.96
  A 0.74 0.74 0.0 0 0 615.21 666.40
  L 619.11 650.66
  A 0.87 0.87 0.0 0 1 619.92 650.01
  Q 620.80 649.98 625.97 649.98
  Z
  M 648.01 611.33
  L 648.01 666.39
  A 0.67 0.67 0.0 0 0 648.68 667.06
  L 662.53 667.06
  A 19.81 16.24 90.0 0 0 678.77 647.25
  L 678.77 630.47
  A 19.81 16.24 -90.0 0 0 662.53 610.66
  L 648.68 610.66
  A 0.67 0.67 0.0 0 0 648.01 611.33
  Z
  M 710.06 610.76
  L 686.16 610.73
  A 0.61 0.61 0.0 0 0 685.54 611.34
  L 685.54 666.35
  A 0.63 0.62 -90.0 0 0 686.16 666.98
  L 710.42 666.97
  A 0.60 0.60 0.0 0 0 711.02 666.35
  L 710.93 662.31
  A 0.60 0.59 89.5 0 0 710.34 661.72
  L 692.59 661.75
  A 0.59 0.58 89.5 0 1 692.00 661.16
  L 691.98 640.82
  A 0.56 0.56 0.0 0 1 692.54 640.26
  L 708.38 640.29
  A 0.60 0.60 0.0 0 0 708.98 639.69
  L 708.96 635.68
  A 0.66 0.65 0.0 0 0 708.30 635.03
  L 692.70 635.03
  A 0.70 0.69 89.6 0 1 692.01 634.34
  L 691.97 616.57
  A 0.58 0.58 0.0 0 1 692.55 615.99
  L 710.09 615.99
  A 0.38 0.37 -90.0 0 0 710.46 615.61
  L 710.45 611.14
  A 0.39 0.38 0.0 0 0 710.06 610.76
  Z
  M 757.07 610.73
  L 733.16 610.71
  A 0.61 0.61 0.0 0 0 732.54 611.32
  L 732.56 666.38
  A 0.63 0.62 90.0 0 0 733.18 667.01
  L 757.45 666.99
  A 0.60 0.60 0.0 0 0 758.05 666.37
  L 757.96 662.33
  A 0.60 0.59 89.5 0 0 757.37 661.74
  L 739.61 661.77
  A 0.59 0.58 89.5 0 1 739.02 661.18
  L 738.99 640.83
  A 0.56 0.56 0.0 0 1 739.55 640.27
  L 755.40 640.29
  A 0.60 0.60 0.0 0 0 756.00 639.69
  L 755.98 635.67
  A 0.66 0.65 -0.0 0 0 755.32 635.02
  L 739.71 635.02
  A 0.70 0.69 89.6 0 1 739.02 634.33
  L 738.97 616.56
  A 0.58 0.58 0.0 0 1 739.55 615.98
  L 757.11 615.96
  A 0.38 0.37 90.0 0 0 757.48 615.58
  L 757.46 611.11
  A 0.39 0.38 -0.0 0 0 757.07 610.73
  Z
  M 776.97 649.99
  Q 782.14 649.99 783.02 650.03
  A 0.87 0.87 0.0 0 1 783.83 650.68
  L 787.70 666.44
  A 0.74 0.74 0.0 0 0 788.42 667.00
  L 793.75 667.00
  A 0.49 0.49 0.0 0 0 794.23 666.39
  L 780.68 611.19
  A 0.55 0.54 -5.8 0 0 780.17 610.78
  Q 778.63 610.73 777.01 610.72
  Q 775.39 610.72 773.85 610.77
  A 0.55 0.54 5.9 0 0 773.34 611.18
  L 759.68 666.36
  A 0.49 0.49 0.0 0 0 760.16 666.97
  L 765.49 666.98
  A 0.74 0.74 0.0 0 0 766.21 666.42
  L 770.11 650.67
  A 0.87 0.87 0.0 0 1 770.92 650.01
  Q 771.80 649.98 776.97 649.99
  Z
  M 846.96 667.00
  Q 849.66 667.00 849.70 666.99
  A 0.66 0.65 -5.4 0 0 850.24 666.35
  L 850.25 643.98
  A 3.19 3.06 -34.7 0 1 850.50 642.76
  L 864.01 611.01
  A 0.18 0.18 0.0 0 0 863.85 610.76
  L 857.19 610.76
  A 0.31 0.30 11.8 0 0 856.91 610.94
  L 847.06 634.35
  A 0.05 0.04 9.0 0 1 847.02 634.37
  Q 847.01 634.37 846.99 634.37
  Q 846.97 634.37 846.96 634.37
  A 0.05 0.04 -8.9 0 1 846.92 634.35
  L 837.11 610.92
  A 0.31 0.30 -11.7 0 0 836.83 610.74
  L 830.17 610.73
  A 0.18 0.18 0.0 0 0 830.01 610.98
  L 843.47 642.75
  A 3.19 3.06 34.8 0 1 843.72 643.97
  L 843.69 666.34
  A 0.66 0.65 5.5 0 0 844.23 666.99
  Q 844.27 667.00 846.96 667.00
  Z"
/>
<path fill="#2974ba" d="
  M 691.60 456.60
  L 621.61 456.60
  A 0.48 0.47 -1.9 0 1 621.13 456.16
  C 615.95 388.85 563.41 336.51 496.91 329.91
  C 456.16 325.87 414.75 341.28 386.25 370.32
  C 363.28 393.72 349.83 423.54 347.11 456.28
  A 0.35 0.35 0.0 0 1 346.76 456.60
  L 276.80 456.60
  A 0.70 0.70 0.0 0 1 276.10 455.83
  L 277.72 438.74
  A 1.02 1.02 0.0 0 1 278.52 437.84
  C 291.04 435.14 301.18 433.91 311.51 432.39
  A 0.80 0.79 -88.4 0 0 312.17 431.76
  Q 314.62 419.51 319.24 406.82
  A 0.86 0.86 0.0 0 0 318.99 405.89
  Q 305.78 394.60 294.43 382.14
  A 0.82 0.82 0.0 0 1 294.30 381.21
  L 301.93 365.95
  A 0.80 0.80 0.0 0 1 302.77 365.52
  Q 318.56 367.99 335.47 372.44
  A 0.85 0.84 23.6 0 0 336.40 372.08
  Q 343.64 360.79 352.07 351.22
  A 0.66 0.64 52.1 0 0 352.15 350.49
  Q 344.11 335.55 337.70 319.35
  A 0.83 0.82 58.7 0 1 337.92 318.43
  L 350.69 306.85
  A 0.59 0.58 38.6 0 1 351.37 306.78
  Q 364.82 314.46 379.38 324.99
  A 1.08 1.08 0.0 0 0 380.66 324.99
  Q 391.39 317.19 402.54 311.38
  A 0.89 0.88 73.1 0 0 403.01 310.49
  Q 400.88 292.71 400.91 276.44
  A 0.85 0.83 -10.8 0 1 401.45 275.66
  L 417.50 269.49
  A 0.61 0.60 59.8 0 1 418.19 269.68
  Q 428.78 282.88 437.85 296.86
  A 0.92 0.91 -24.0 0 0 438.85 297.24
  Q 451.27 293.90 464.19 292.43
  A 0.88 0.88 0.0 0 0 464.94 291.77
  Q 469.17 274.90 475.18 259.35
  A 1.04 1.04 0.0 0 1 476.15 258.69
  L 492.93 258.69
  A 0.98 0.97 -9.0 0 1 493.86 259.36
  Q 498.73 274.32 502.35 291.70
  A 0.83 0.83 0.0 0 0 503.08 292.36
  Q 516.05 293.74 528.41 296.92
  A 1.01 1.01 0.0 0 0 529.48 296.53
  C 536.24 287.15 543.40 278.14 550.88 270.04
  A 0.82 0.82 0.0 0 1 551.79 269.83
  L 567.68 276.01
  A 0.78 0.77 12.7 0 1 568.17 276.77
  Q 567.14 293.25 564.34 310.08
  A 0.82 0.82 0.0 0 0 564.77 310.93
  Q 576.35 316.83 586.79 324.44
  A 0.86 0.85 -42.8 0 0 587.76 324.47
  C 598.71 317.62 607.58 312.15 617.66 307.23
  A 0.47 0.45 -35.9 0 1 618.16 307.30
  L 631.03 319.09
  A 0.54 0.54 0.0 0 1 631.16 319.70
  Q 625.20 333.13 615.53 349.49
  A 0.79 0.78 39.6 0 0 615.62 350.41
  Q 624.56 360.68 631.28 371.02
  A 1.12 1.12 0.0 0 0 632.45 371.50
  Q 649.52 367.84 665.94 366.33
  A 1.02 1.02 0.0 0 1 666.94 366.89
  L 674.30 381.85
  A 0.98 0.97 -35.3 0 1 674.10 382.99
  Q 662.18 394.49 648.99 404.84
  A 0.82 0.82 0.0 0 0 648.73 405.77
  Q 653.38 418.50 655.90 430.71
  A 0.85 0.84 -1.5 0 0 656.60 431.37
  Q 672.82 433.87 689.93 438.66
  A 0.99 0.98 -85.3 0 1 690.64 439.51
  L 692.22 455.92
  A 0.62 0.62 0.0 0 1 691.60 456.60
  Z"
/>
<path fill="#2974ba" d="
  M 133.70 455.63
  Q 152.85 455.63 174.00 455.60
  Q 191.03 455.57 202.31 464.91
  Q 212.97 473.74 216.64 486.17
  Q 218.17 491.32 218.15 506.47
  Q 218.10 566.57 218.09 567.62
  A 0.57 0.57 0.0 0 1 217.52 568.18
  L 162.14 568.18
  A 0.31 0.30 0.0 0 1 161.83 567.88
  L 161.83 540.39
  A 0.39 0.39 0.0 0 0 161.50 540.00
  Q 161.35 539.98 133.71 539.98
  Q 106.07 539.99 105.92 540.01
  A 0.39 0.39 0.0 0 0 105.59 540.40
  L 105.60 567.89
  A 0.31 0.30 -0.0 0 1 105.29 568.19
  L 49.91 568.20
  A 0.57 0.57 0.0 0 1 49.34 567.64
  Q 49.33 566.59 49.26 506.49
  Q 49.24 491.34 50.77 486.19
  Q 54.43 473.76 65.09 464.93
  Q 76.37 455.58 93.40 455.61
  Q 114.55 455.63 133.70 455.63
  Z
  M 106.08 512.00
  L 161.32 512.00
  A 0.55 0.55 0.0 0 0 161.87 511.45
  L 161.87 498.26
  A 14.75 14.52 0.0 0 0 147.12 483.74
  L 120.28 483.74
  A 14.75 14.52 -0.0 0 0 105.53 498.26
  L 105.53 511.45
  A 0.55 0.55 0.0 0 0 106.08 512.00
  Z"
/>
<path fill="#2974ba" d="
  M 894.13 493.34
  A 12.66 12.66 0.0 0 1 881.47 506.00
  A 12.66 12.66 0.0 0 1 868.81 493.34
  A 12.66 12.66 0.0 0 1 881.47 480.68
  A 12.66 12.66 0.0 0 1 894.13 493.34
  Z
  M 892.04 493.36
  A 10.56 10.56 0.0 0 0 881.48 482.80
  A 10.56 10.56 0.0 0 0 870.92 493.36
  A 10.56 10.56 0.0 0 0 881.48 503.92
  A 10.56 10.56 0.0 0 0 892.04 493.36
  Z"
/>
<path fill="#ffffff" d="
  M 892.04 493.36
  A 10.56 10.56 0.0 0 1 881.48 503.92
  A 10.56 10.56 0.0 0 1 870.92 493.36
  A 10.56 10.56 0.0 0 1 881.48 482.80
  A 10.56 10.56 0.0 0 1 892.04 493.36
  Z
  M 883.51 494.06
  Q 886.81 492.83 886.32 489.70
  A 3.15 3.14 -0.2 0 0 883.67 487.08
  Q 880.85 486.66 876.47 486.85
  A 0.63 0.62 88.6 0 0 875.88 487.48
  L 875.88 499.66
  A 0.79 0.79 0.0 0 0 876.67 500.45
  L 877.40 500.45
  A 0.73 0.72 -90.0 0 0 878.12 499.72
  L 878.12 495.21
  A 0.65 0.65 0.0 0 1 878.73 494.56
  C 881.73 494.35 883.22 497.46 884.32 499.79
  A 1.07 1.06 77.2 0 0 885.28 500.40
  L 886.76 500.40
  A 0.47 0.47 0.0 0 0 887.14 499.65
  L 883.34 494.64
  A 0.38 0.38 0.0 0 1 883.51 494.06
  Z"
/>
<path fill="#ffffff" d="
  M 106.08 512.00
  A 0.55 0.55 0.0 0 1 105.53 511.45
  L 105.53 498.26
  A 14.75 14.52 -0.0 0 1 120.28 483.74
  L 147.12 483.74
  A 14.75 14.52 0.0 0 1 161.87 498.26
  L 161.87 511.45
  A 0.55 0.55 0.0 0 1 161.32 512.00
  L 106.08 512.00
  Z"
/>
<path fill="#2974ba" d="
  M 883.34 494.64
  L 887.14 499.65
  A 0.47 0.47 0.0 0 1 886.76 500.40
  L 885.28 500.40
  A 1.07 1.06 77.2 0 1 884.32 499.79
  C 883.22 497.46 881.73 494.35 878.73 494.56
  A 0.65 0.65 0.0 0 0 878.12 495.21
  L 878.12 499.72
  A 0.73 0.72 90.0 0 1 877.40 500.45
  L 876.67 500.45
  A 0.79 0.79 0.0 0 1 875.88 499.66
  L 875.88 487.48
  A 0.63 0.62 88.6 0 1 876.47 486.85
  Q 880.85 486.66 883.67 487.08
  A 3.15 3.14 -0.2 0 1 886.32 489.70
  Q 886.81 492.83 883.51 494.06
  A 0.38 0.38 0.0 0 0 883.34 494.64
  Z
  M 878.14 489.01
  L 878.12 492.17
  A 0.43 0.43 0.0 0 0 878.55 492.61
  L 881.44 492.62
  A 2.64 1.87 0.3 0 0 884.09 490.77
  L 884.09 490.49
  A 2.64 1.87 0.3 0 0 881.46 488.60
  L 878.57 488.59
  A 0.43 0.43 0.0 0 0 878.14 489.01
  Z"
/>
<path fill="#ffffff" d="
  M 878.14 489.01
  A 0.43 0.43 0.0 0 1 878.57 488.59
  L 881.46 488.60
  A 2.64 1.87 0.3 0 1 884.09 490.49
  L 884.09 490.77
  A 2.64 1.87 0.3 0 1 881.44 492.62
  L 878.55 492.61
  A 0.43 0.43 0.0 0 1 878.12 492.17
  L 878.14 489.01
  Z"
/>
<path fill="#2974ba" d="
  M 616.39 568.18
  A 0.28 0.27 0.0 0 1 616.11 567.91
  L 616.11 489.84
  A 0.46 0.46 0.0 0 1 616.57 489.38
  Q 680.77 489.42 696.94 489.36
  Q 708.37 489.32 712.49 490.47
  C 733.63 496.34 741.07 521.34 727.29 538.08
  A 0.62 0.61 43.2 0 0 727.32 538.90
  Q 727.75 539.34 729.24 540.54
  C 732.90 543.46 734.24 547.92 734.29 553.19
  Q 734.37 561.95 734.27 567.60
  A 0.61 0.60 -89.0 0 1 733.67 568.19
  L 695.58 568.19
  A 0.66 0.66 0.0 0 1 694.92 567.56
  C 694.58 560.35 696.67 553.45 689.21 549.46
  Q 687.03 548.29 680.58 548.36
  Q 669.04 548.49 661.03 548.37
  A 0.64 0.63 -89.5 0 1 660.41 547.73
  L 660.41 529.46
  A 0.67 0.66 -0.4 0 1 661.07 528.80
  Q 661.94 528.79 682.48 528.84
  Q 687.33 528.85 689.32 527.84
  C 696.89 524.00 696.58 513.66 688.95 509.94
  Q 687.13 509.06 682.94 509.17
  Q 682.81 509.17 655.92 509.21
  A 0.39 0.38 -0.0 0 0 655.53 509.59
  L 655.53 567.79
  A 0.40 0.39 -90.0 0 1 655.14 568.19
  L 616.39 568.18
  Z"
/>
<path fill="#2974ba" d="
  M 291.25 538.60
  Q 233.51 538.61 232.46 538.57
  A 0.36 0.35 -87.9 0 1 232.11 538.20
  Q 232.29 534.15 232.05 523.62
  Q 231.85 515.11 233.42 510.17
  C 236.89 499.30 246.32 490.93 258.31 489.73
  Q 261.68 489.39 265.08 489.40
  Q 283.51 489.42 349.98 489.41
  A 0.32 0.32 0.0 0 1 350.30 489.73
  L 350.30 508.81
  A 0.37 0.37 0.0 0 1 349.93 509.18
  Q 293.40 509.25 284.35 509.14
  Q 278.60 509.07 276.31 510.48
  Q 272.62 512.76 271.45 518.05
  A 0.77 0.77 0.0 0 0 272.17 518.97
  Q 272.73 519.00 291.17 519.00
  Q 348.91 518.99 349.96 519.02
  A 0.36 0.35 -87.9 0 1 350.31 519.40
  Q 350.13 523.45 350.37 533.98
  Q 350.57 542.49 349.00 547.43
  C 345.53 558.30 336.10 566.67 324.11 567.87
  Q 320.74 568.21 317.34 568.20
  Q 298.91 568.18 232.44 568.19
  A 0.32 0.32 0.0 0 1 232.12 567.87
  L 232.12 548.79
  A 0.37 0.37 0.0 0 1 232.49 548.42
  Q 289.02 548.35 298.07 548.46
  Q 303.82 548.53 306.11 547.12
  Q 309.80 544.84 310.97 539.55
  A 0.77 0.77 0.0 0 0 310.25 538.62
  Q 309.69 538.60 291.25 538.60
  Z"
/>
<path fill="#2974ba" d="
  M 478.24 549.08
  Q 478.17 556.34 472.73 562.03
  C 467.74 567.26 462.74 568.20 455.01 568.20
  Q 398.03 568.19 389.82 568.14
  C 373.65 568.02 360.32 555.56 360.15 539.07
  Q 359.99 522.93 360.23 517.02
  C 360.73 504.84 369.07 494.92 380.35 490.89
  Q 384.75 489.32 398.81 489.35
  Q 428.51 489.41 449.00 489.45
  C 454.13 489.45 460.01 491.10 464.50 493.99
  Q 477.49 502.34 478.36 518.44
  A 0.54 0.54 0.0 0 1 477.82 519.01
  L 439.51 519.01
  A 0.66 0.65 87.1 0 1 438.86 518.42
  Q 438.37 513.41 434.25 510.63
  Q 431.69 508.90 425.60 509.14
  Q 421.44 509.30 411.37 509.13
  Q 406.78 509.05 404.40 510.49
  Q 399.41 513.50 399.49 519.97
  Q 399.60 528.29 399.50 536.20
  Q 399.43 541.82 400.86 543.70
  C 403.84 547.64 406.26 548.46 411.65 548.45
  Q 453.38 548.35 477.58 548.41
  A 0.66 0.66 0.0 0 1 478.24 549.08
  Z"
/>
<path fill="#2974ba" d="
  M 488.11 538.71
  L 488.11 518.88
  A 29.48 29.48 0.0 0 1 517.59 489.40
  L 576.83 489.40
  A 29.48 29.48 0.0 0 1 606.31 518.88
  L 606.31 538.71
  A 29.48 29.48 0.0 0 1 576.83 568.19
  L 517.59 568.19
  A 29.48 29.48 0.0 0 1 488.11 538.71
  Z
  M 566.84 518.97
  A 9.81 9.81 0.0 0 0 557.03 509.16
  L 537.37 509.16
  A 9.81 9.81 0.0 0 0 527.56 518.97
  L 527.56 538.63
  A 9.81 9.81 0.0 0 0 537.37 548.44
  L 557.03 548.44
  A 9.81 9.81 0.0 0 0 566.84 538.63
  L 566.84 518.97
  Z"
/>
<path fill="#2974ba" d="
  M 803.21 489.40
  Q 830.14 489.40 832.75 489.46
  C 846.78 489.78 858.62 498.86 861.71 512.61
  Q 862.40 515.67 862.34 530.44
  Q 862.24 558.30 862.32 567.55
  A 0.64 0.63 -90.0 0 1 861.69 568.19
  L 823.37 568.19
  A 0.49 0.49 0.0 0 1 822.88 567.70
  L 822.88 549.09
  A 0.67 0.66 3.8 0 0 822.30 548.43
  Q 822.05 548.40 803.21 548.40
  Q 784.37 548.40 784.11 548.43
  A 0.67 0.66 -3.8 0 0 783.54 549.09
  L 783.54 567.70
  A 0.49 0.49 0.0 0 1 783.05 568.19
  L 744.73 568.19
  A 0.64 0.63 -90.0 0 1 744.10 567.55
  Q 744.18 558.30 744.08 530.44
  Q 744.02 515.67 744.71 512.61
  C 747.80 498.86 759.64 489.78 773.67 489.46
  Q 776.28 489.40 803.21 489.40
  Z
  M 784.02 528.81
  L 822.38 528.81
  A 0.52 0.52 0.0 0 0 822.90 528.29
  L 822.90 519.31
  A 10.16 10.01 90.0 0 0 812.89 509.15
  L 793.51 509.15
  A 10.16 10.01 -90.0 0 0 783.50 519.31
  L 783.50 528.29
  A 0.52 0.52 0.0 0 0 784.02 528.81
  Z"
/>
<rect fill="#ffffff" x="527.56" y="509.16" width="39.28" height="39.28" rx="9.81"/>
<path fill="#ffffff" d="
  M 784.02 528.81
  A 0.52 0.52 0.0 0 1 783.50 528.29
  L 783.50 519.31
  A 10.16 10.01 90.0 0 1 793.51 509.15
  L 812.89 509.15
  A 10.16 10.01 90.0 0 1 822.90 519.31
  L 822.90 528.29
  A 0.52 0.52 0.0 0 1 822.38 528.81
  L 784.02 528.81
  Z"
/>
<path fill="#607d8b" d="
  M 95.93 609.52
  Q 98.84 609.52 98.87 609.53
  C 112.26 610.95 111.79 629.82 111.79 638.89
  C 111.79 647.96 112.26 666.83 98.87 668.25
  Q 98.84 668.26 95.93 668.26
  Q 93.02 668.26 92.99 668.25
  C 79.60 666.83 80.07 647.96 80.07 638.89
  C 80.07 629.82 79.60 610.95 93.00 609.53
  Q 93.02 609.52 95.93 609.52
  Z
  M 86.26 638.92
  C 86.28 644.84 86.53 663.06 95.99 663.02
  C 105.45 662.99 105.57 644.77 105.54 638.85
  C 105.52 632.92 105.28 614.71 95.81 614.74
  C 86.35 614.78 86.24 632.99 86.26 638.92
  Z"
/>
<path fill="#607d8b" d="
  M 351.21 664.72
  C 348.29 667.98 345.15 668.35 340.61 668.33
  C 329.96 668.26 327.06 657.55 326.50 648.75
  Q 326.00 640.75 326.12 636.23
  C 326.38 626.91 326.20 613.04 337.53 609.72
  A 3.93 3.91 36.4 0 1 338.53 609.57
  C 344.12 609.51 347.72 608.99 351.58 612.52
  Q 357.45 617.87 356.93 626.45
  A 0.30 0.30 0.0 0 1 356.63 626.73
  L 351.08 626.73
  A 0.38 0.37 87.5 0 1 350.71 626.38
  C 350.44 622.89 349.16 618.33 346.12 616.11
  C 341.50 612.73 336.81 616.21 334.97 620.72
  Q 333.24 624.94 332.84 630.04
  Q 332.09 639.38 332.86 647.68
  C 333.28 652.27 334.58 659.00 338.68 661.75
  Q 342.93 664.60 346.85 660.77
  C 350.64 657.05 351.29 649.55 351.29 644.32
  A 0.60 0.60 0.0 0 0 350.69 643.72
  L 340.80 643.72
  A 0.27 0.27 0.0 0 1 340.53 643.45
  L 340.53 638.80
  A 0.27 0.26 -0.0 0 1 340.80 638.54
  L 357.45 638.54
  A 0.28 0.27 -0.0 0 1 357.73 638.81
  L 357.73 666.10
  A 0.90 0.90 0.0 0 1 356.83 667.00
  L 352.82 667.00
  A 0.73 0.72 9.4 0 1 352.13 666.04
  Q 352.36 665.34 352.02 664.79
  A 0.50 0.50 0.0 0 0 351.21 664.72
  Z"
/>
<path fill="#607d8b" d="
  M 825.98 624.75
  A 0.24 0.23 0.0 0 1 825.74 624.98
  L 819.88 624.98
  A 0.27 0.27 0.0 0 1 819.61 624.71
  Q 819.67 619.03 815.93 616.18
  C 812.32 613.43 807.78 614.96 805.68 618.70
  C 803.28 622.99 803.32 630.44 808.49 633.07
  C 814.79 636.27 825.20 639.30 826.70 646.91
  Q 828.32 655.09 825.70 660.54
  C 822.21 667.77 815.96 668.76 808.29 668.14
  C 799.72 667.44 796.27 657.83 796.79 650.57
  A 0.34 0.33 1.8 0 1 797.13 650.26
  L 802.63 650.26
  A 0.33 0.33 0.0 0 1 802.96 650.57
  Q 803.42 658.01 806.45 660.79
  Q 810.59 664.57 815.67 661.85
  Q 820.26 659.40 820.76 653.42
  Q 821.36 646.11 815.02 643.24
  C 810.83 641.36 804.47 639.26 800.61 634.91
  C 796.59 630.39 797.16 621.21 799.51 616.32
  Q 801.93 611.27 807.82 609.65
  A 3.12 2.98 -51.5 0 1 808.63 609.54
  L 815.18 609.54
  A 2.77 2.47 48.3 0 1 815.78 609.61
  C 823.29 611.39 825.97 617.61 825.98 624.75
  Z"
/>
<path fill="#607d8b" d="
  M 71.45 611.01
  Q 71.48 649.34 71.43 656.50
  C 71.39 661.43 69.48 666.40 64.67 667.92
  Q 63.66 668.24 59.45 668.32
  C 49.25 668.53 48.24 657.47 48.79 650.15
  A 0.46 0.45 2.0 0 1 49.25 649.73
  L 54.91 649.73
  A 0.44 0.43 1.8 0 1 55.35 650.19
  Q 54.77 658.85 57.44 661.51
  Q 60.46 664.53 63.45 661.35
  Q 64.81 659.90 65.00 655.75
  Q 65.01 655.60 65.01 611.02
  A 0.29 0.29 0.0 0 1 65.30 610.73
  L 71.17 610.73
  A 0.28 0.28 0.0 0 1 71.45 611.01
  Z"
/>
<path fill="#607d8b" d="
  M 140.29 637.50
  Q 146.06 640.57 146.65 647.81
  C 148.33 668.30 134.13 667.35 118.83 666.94
  A 0.58 0.58 0.0 0 1 118.27 666.36
  L 118.27 611.05
  A 0.29 0.29 0.0 0 1 118.55 610.76
  Q 125.82 610.63 132.97 610.78
  C 143.34 610.98 146.12 618.79 145.26 627.75
  Q 144.69 633.62 140.25 636.89
  A 0.36 0.36 0.0 0 0 140.29 637.50
  Z
  M 124.44 616.34
  L 124.48 634.48
  A 0.36 0.36 0.0 0 0 124.84 634.84
  L 130.16 634.83
  A 8.84 8.41 -0.1 0 0 138.98 626.41
  L 138.98 624.37
  A 8.84 8.41 -0.1 0 0 130.12 615.97
  L 124.80 615.98
  A 0.36 0.36 0.0 0 0 124.44 616.34
  Z
  M 124.42 640.55
  L 124.50 661.29
  A 0.33 0.33 0.0 0 0 124.83 661.62
  L 131.07 661.59
  A 9.35 9.24 -0.2 0 0 140.39 652.32
  L 140.37 649.40
  A 9.35 9.24 -0.2 0 0 130.99 640.19
  L 124.75 640.22
  A 0.33 0.33 0.0 0 0 124.42 640.55
  Z"
/>
<path fill="#607d8b" d="
  M 190.53 654.56
  Q 190.70 654.56 190.72 654.46
  Q 197.18 629.20 201.64 611.36
  A 0.82 0.82 0.0 0 1 202.44 610.73
  L 210.42 610.73
  A 0.61 0.61 0.0 0 1 211.03 611.34
  L 211.03 666.69
  A 0.31 0.31 0.0 0 1 210.72 667.00
  L 205.07 667.00
  A 0.31 0.31 0.0 0 1 204.76 666.69
  L 204.76 624.81
  A 0.14 0.14 0.0 0 0 204.49 624.77
  L 193.96 666.62
  A 0.44 0.42 -87.7 0 1 193.63 666.93
  Q 193.32 667.00 190.52 667.00
  Q 187.72 667.00 187.41 666.93
  A 0.44 0.42 87.8 0 1 187.08 666.62
  L 176.57 624.77
  A 0.14 0.14 0.0 0 0 176.30 624.81
  L 176.28 666.69
  A 0.31 0.31 0.0 0 1 175.97 667.00
  L 170.32 666.99
  A 0.31 0.31 0.0 0 1 170.01 666.68
  L 170.03 611.33
  A 0.61 0.61 0.0 0 1 170.64 610.72
  L 178.62 610.73
  A 0.82 0.82 0.0 0 1 179.42 611.36
  Q 183.88 629.20 190.32 654.46
  Q 190.35 654.56 190.53 654.56
  Z"
/>
<path fill="#607d8b" d="
  M 233.01 610.73
  Q 234.63 610.73 236.17 610.78
  A 0.55 0.54 -5.8 0 1 236.68 611.19
  L 250.24 666.39
  A 0.49 0.49 0.0 0 1 249.76 667.00
  L 244.43 667.00
  A 0.74 0.74 0.0 0 1 243.71 666.44
  L 239.84 650.68
  A 0.87 0.87 0.0 0 0 239.03 650.03
  Q 238.15 649.99 232.98 649.99
  Q 227.81 649.99 226.92 650.02
  A 0.87 0.87 0.0 0 0 226.11 650.67
  L 222.22 666.42
  A 0.74 0.74 0.0 0 1 221.50 666.98
  L 216.17 666.97
  A 0.49 0.49 0.0 0 1 215.69 666.36
  L 229.34 611.18
  A 0.55 0.54 5.9 0 1 229.85 610.78
  Q 231.39 610.73 233.01 610.73
  Z
  M 232.97 644.73
  Q 235.58 644.73 238.23 644.67
  A 0.24 0.24 0.0 0 0 238.46 644.37
  Q 233.59 624.32 233.17 622.47
  Q 233.13 622.31 232.95 622.31
  Q 232.77 622.31 232.74 622.47
  Q 232.32 624.32 227.48 644.38
  A 0.24 0.24 0.0 0 0 227.71 644.68
  Q 230.37 644.74 232.97 644.73
  Z"
/>
<path fill="#607d8b" d="
  M 271.59 637.65
  Q 274.55 644.91 277.43 652.31
  A 0.17 0.17 0.0 0 0 277.76 652.25
  L 277.76 611.02
  A 0.28 0.27 -90.0 0 1 278.03 610.74
  L 283.99 610.74
  A 0.27 0.27 0.0 0 1 284.26 611.01
  L 284.26 666.44
  A 0.57 0.56 -0.0 0 1 283.69 667.00
  L 277.58 667.00
  A 1.07 1.07 0.0 0 1 276.58 666.32
  Q 267.96 644.43 266.19 640.07
  Q 263.23 632.81 260.35 625.41
  A 0.17 0.17 0.0 0 0 260.02 625.47
  L 260.02 666.70
  A 0.28 0.27 -90.0 0 1 259.75 666.98
  L 253.79 666.98
  A 0.27 0.27 0.0 0 1 253.52 666.71
  L 253.52 611.28
  A 0.57 0.56 -0.0 0 1 254.09 610.72
  L 260.20 610.72
  A 1.07 1.07 0.0 0 1 261.20 611.40
  Q 269.82 633.29 271.59 637.65
  Z"
/>
<path fill="#607d8b" d="
  M 305.97 649.99
  Q 300.80 649.98 299.92 650.01
  A 0.87 0.87 0.0 0 0 299.11 650.67
  L 295.21 666.42
  A 0.74 0.74 0.0 0 1 294.49 666.98
  L 289.16 666.97
  A 0.49 0.49 0.0 0 1 288.68 666.36
  L 302.34 611.18
  A 0.55 0.54 5.9 0 1 302.85 610.77
  Q 304.39 610.72 306.01 610.72
  Q 307.63 610.73 309.17 610.78
  A 0.55 0.54 -5.8 0 1 309.68 611.19
  L 323.23 666.39
  A 0.49 0.49 0.0 0 1 322.75 667.00
  L 317.42 667.00
  A 0.74 0.74 0.0 0 1 316.70 666.44
  L 312.83 650.68
  A 0.87 0.87 0.0 0 0 312.03 650.03
  Q 311.14 649.99 305.97 649.99
  Z
  M 305.97 644.73
  Q 308.56 644.73 311.21 644.66
  A 0.24 0.24 0.0 0 0 311.44 644.37
  Q 306.59 624.36 306.17 622.51
  Q 306.14 622.36 305.95 622.36
  Q 305.78 622.36 305.74 622.51
  Q 305.33 624.36 300.49 644.37
  A 0.24 0.24 0.0 0 0 300.72 644.67
  Q 303.37 644.73 305.97 644.73
  Z"
/>
<path fill="#607d8b" d="
  M 389.97 615.98
  L 372.49 615.98
  A 0.50 0.50 0.0 0 0 371.99 616.48
  L 371.99 634.53
  A 0.50 0.50 0.0 0 0 372.49 635.03
  L 388.47 635.03
  A 0.50 0.50 0.0 0 1 388.97 635.53
  L 388.97 639.78
  A 0.50 0.50 0.0 0 1 388.47 640.28
  L 372.49 640.28
  A 0.50 0.50 0.0 0 0 371.99 640.78
  L 371.99 661.26
  A 0.50 0.50 0.0 0 0 372.49 661.76
  L 390.48 661.76
  A 0.50 0.50 0.0 0 1 390.98 662.26
  L 390.98 666.49
  A 0.50 0.50 0.0 0 1 390.48 666.99
  L 366.04 666.99
  A 0.50 0.50 0.0 0 1 365.54 666.49
  L 365.54 611.23
  A 0.50 0.50 0.0 0 1 366.04 610.73
  L 389.97 610.73
  A 0.50 0.50 0.0 0 1 390.47 611.23
  L 390.47 615.48
  A 0.50 0.50 0.0 0 1 389.97 615.98
  Z"
/>
<path fill="#607d8b" d="
  M 417.51 667.00
  Q 414.71 667.00 414.40 666.93
  A 0.44 0.42 87.8 0 1 414.07 666.62
  L 403.55 624.76
  A 0.14 0.14 0.0 0 0 403.28 624.80
  L 403.27 666.68
  A 0.31 0.31 0.0 0 1 402.96 666.99
  L 397.31 666.99
  A 0.31 0.31 0.0 0 1 397.00 666.68
  L 397.02 611.33
  A 0.61 0.61 0.0 0 1 397.63 610.72
  L 405.61 610.73
  A 0.82 0.82 0.0 0 1 406.41 611.36
  Q 410.86 629.20 417.31 654.46
  Q 417.34 654.56 417.52 654.56
  Q 417.69 654.56 417.71 654.46
  Q 424.17 629.20 428.62 611.36
  A 0.82 0.82 0.0 0 1 429.42 610.73
  L 437.40 610.73
  A 0.61 0.61 0.0 0 1 438.01 611.34
  L 438.02 666.69
  A 0.31 0.31 0.0 0 1 437.71 667.00
  L 432.06 667.00
  A 0.31 0.31 0.0 0 1 431.75 666.69
  L 431.75 624.81
  A 0.14 0.14 0.0 0 0 431.48 624.77
  L 420.95 666.62
  A 0.44 0.42 -87.8 0 1 420.62 666.93
  Q 420.31 667.00 417.51 667.00
  Z"
/>
<path fill="#607d8b" d="
  M 471.06 610.76
  A 0.39 0.38 0.0 0 1 471.45 611.14
  L 471.46 615.61
  A 0.38 0.37 -90.0 0 1 471.09 615.99
  L 453.55 615.99
  A 0.58 0.58 0.0 0 0 452.97 616.57
  L 453.00 634.33
  A 0.70 0.69 89.6 0 0 453.69 635.02
  L 469.29 635.03
  A 0.66 0.65 0.0 0 1 469.95 635.68
  L 469.97 639.70
  A 0.60 0.60 0.0 0 1 469.37 640.30
  L 453.53 640.26
  A 0.56 0.56 0.0 0 0 452.97 640.82
  L 452.98 661.16
  A 0.59 0.58 89.5 0 0 453.57 661.75
  L 471.32 661.73
  A 0.60 0.59 89.5 0 1 471.91 662.32
  L 472.00 666.35
  A 0.60 0.60 0.0 0 1 471.40 666.97
  L 447.14 666.97
  A 0.63 0.62 -90.0 0 1 446.52 666.34
  L 446.54 611.33
  A 0.61 0.61 0.0 0 1 447.16 610.72
  L 471.06 610.76
  Z"
/>
<path fill="#607d8b" d="
  M 490.18 640.05
  Q 487.23 632.79 484.34 625.39
  A 0.17 0.17 0.0 0 0 484.02 625.45
  L 484.02 666.68
  A 0.28 0.27 90.0 0 1 483.75 666.96
  L 477.79 666.96
  A 0.27 0.27 0.0 0 1 477.52 666.70
  L 477.51 611.26
  A 0.57 0.56 -0.0 0 1 478.08 610.70
  L 484.19 610.70
  A 1.07 1.07 0.0 0 1 485.19 611.38
  Q 493.82 633.27 495.59 637.63
  Q 498.55 644.89 501.43 652.29
  A 0.17 0.17 0.0 0 0 501.76 652.23
  L 501.75 611.00
  A 0.28 0.27 90.0 0 1 502.02 610.72
  L 507.98 610.71
  A 0.27 0.27 0.0 0 1 508.25 610.98
  L 508.26 666.42
  A 0.57 0.56 -0.0 0 1 507.69 666.98
  L 501.58 666.98
  A 1.07 1.07 0.0 0 1 500.58 666.30
  Q 491.96 644.41 490.18 640.05
  Z"
/>
<path fill="#607d8b" d="
  M 527.08 610.73
  Q 534.20 610.72 541.30 610.70
  A 0.51 0.50 89.8 0 1 541.81 611.21
  L 541.81 615.51
  A 0.47 0.46 90.0 0 1 541.35 615.98
  L 530.96 615.98
  A 0.70 0.69 0.0 0 0 530.26 616.67
  L 530.26 666.54
  A 0.41 0.41 0.0 0 1 529.88 666.95
  Q 529.50 666.99 527.16 666.99
  Q 524.82 666.99 524.44 666.96
  A 0.41 0.41 0.0 0 1 524.06 666.55
  L 523.93 616.68
  A 0.70 0.69 -0.2 0 0 523.22 615.99
  L 512.83 616.02
  A 0.47 0.46 89.8 0 1 512.37 615.55
  L 512.36 611.25
  A 0.51 0.50 -89.9 0 1 512.87 610.74
  Q 519.97 610.74 527.08 610.73
  Z"
/>
<path fill="#607d8b" d="
  M 583.52 667.00
  Q 580.72 667.00 580.40 666.94
  A 0.44 0.42 87.8 0 1 580.08 666.63
  L 569.55 624.77
  A 0.14 0.14 0.0 0 0 569.28 624.81
  L 569.28 666.69
  A 0.31 0.31 0.0 0 1 568.97 667.00
  L 563.32 667.00
  A 0.31 0.31 0.0 0 1 563.01 666.69
  L 563.01 611.34
  A 0.61 0.61 0.0 0 1 563.62 610.73
  L 571.60 610.73
  A 0.82 0.82 0.0 0 1 572.40 611.36
  Q 576.86 629.20 583.31 654.47
  Q 583.34 654.57 583.52 654.57
  Q 583.69 654.57 583.71 654.47
  Q 590.16 629.20 594.62 611.36
  A 0.82 0.82 0.0 0 1 595.42 610.73
  L 603.40 610.72
  A 0.61 0.61 0.0 0 1 604.01 611.33
  L 604.03 666.69
  A 0.31 0.31 0.0 0 1 603.72 667.00
  L 598.06 667.00
  A 0.31 0.31 0.0 0 1 597.75 666.69
  L 597.74 624.81
  A 0.14 0.14 0.0 0 0 597.47 624.77
  L 586.95 666.62
  A 0.44 0.42 -87.8 0 1 586.63 666.94
  Q 586.31 667.00 583.52 667.00
  Z"
/>
<path fill="#607d8b" d="
  M 625.97 649.98
  Q 620.80 649.98 619.92 650.01
  A 0.87 0.87 0.0 0 0 619.11 650.66
  L 615.21 666.40
  A 0.74 0.74 0.0 0 1 614.49 666.96
  L 609.16 666.95
  A 0.49 0.49 0.0 0 1 608.68 666.34
  L 622.34 611.19
  A 0.55 0.54 5.9 0 1 622.85 610.78
  Q 624.39 610.73 626.01 610.73
  Q 627.63 610.73 629.17 610.79
  A 0.55 0.54 -5.8 0 1 629.68 611.20
  L 643.22 666.38
  A 0.49 0.49 0.0 0 1 642.74 666.99
  L 637.41 666.99
  A 0.74 0.74 0.0 0 1 636.70 666.43
  L 632.83 650.67
  A 0.87 0.87 0.0 0 0 632.02 650.02
  Q 631.14 649.99 625.97 649.98
  Z
  M 625.97 644.73
  Q 628.58 644.73 631.23 644.66
  A 0.24 0.24 0.0 0 0 631.46 644.37
  Q 626.59 624.31 626.17 622.46
  Q 626.13 622.31 625.94 622.31
  Q 625.77 622.31 625.74 622.46
  Q 625.32 624.32 620.48 644.38
  A 0.24 0.24 0.0 0 0 620.71 644.67
  Q 623.37 644.73 625.97 644.73
  Z"
/>
<path fill="#607d8b" d="
  M 648.01 611.33
  A 0.67 0.67 0.0 0 1 648.68 610.66
  L 662.53 610.66
  A 19.81 16.24 -90.0 0 1 678.77 630.47
  L 678.77 647.25
  A 19.81 16.24 -90.0 0 1 662.53 667.06
  L 648.68 667.06
  A 0.67 0.67 0.0 0 1 648.01 666.39
  L 648.01 611.33
  Z
  M 654.39 616.57
  L 654.15 660.97
  A 0.79 0.79 0.0 0 0 654.94 661.77
  L 660.59 661.80
  A 16.09 11.70 -89.7 0 0 672.37 645.77
  L 672.45 631.97
  A 16.09 11.70 -89.7 0 0 660.83 615.82
  L 655.18 615.79
  A 0.79 0.79 0.0 0 0 654.39 616.57
  Z"
/>
<path fill="#607d8b" d="
  M 710.06 610.76
  A 0.39 0.38 0.0 0 1 710.45 611.14
  L 710.46 615.61
  A 0.38 0.37 -90.0 0 1 710.09 615.99
  L 692.55 615.99
  A 0.58 0.58 0.0 0 0 691.97 616.57
  L 692.01 634.34
  A 0.70 0.69 89.6 0 0 692.70 635.03
  L 708.30 635.03
  A 0.66 0.65 0.0 0 1 708.96 635.68
  L 708.98 639.69
  A 0.60 0.60 0.0 0 1 708.38 640.29
  L 692.54 640.26
  A 0.56 0.56 0.0 0 0 691.98 640.82
  L 692.00 661.16
  A 0.59 0.58 89.5 0 0 692.59 661.75
  L 710.34 661.72
  A 0.60 0.59 89.5 0 1 710.93 662.31
  L 711.02 666.35
  A 0.60 0.60 0.0 0 1 710.42 666.97
  L 686.16 666.98
  A 0.63 0.62 -90.0 0 1 685.54 666.35
  L 685.54 611.34
  A 0.61 0.61 0.0 0 1 686.16 610.73
  L 710.06 610.76
  Z"
/>
<path fill="#607d8b" d="
  M 757.07 610.73
  A 0.39 0.38 -0.0 0 1 757.46 611.11
  L 757.48 615.58
  A 0.38 0.37 90.0 0 1 757.11 615.96
  L 739.55 615.98
  A 0.58 0.58 0.0 0 0 738.97 616.56
  L 739.02 634.33
  A 0.70 0.69 89.6 0 0 739.71 635.02
  L 755.32 635.02
  A 0.66 0.65 -0.0 0 1 755.98 635.67
  L 756.00 639.69
  A 0.60 0.60 0.0 0 1 755.40 640.29
  L 739.55 640.27
  A 0.56 0.56 0.0 0 0 738.99 640.83
  L 739.02 661.18
  A 0.59 0.58 89.5 0 0 739.61 661.77
  L 757.37 661.74
  A 0.60 0.59 89.5 0 1 757.96 662.33
  L 758.05 666.37
  A 0.60 0.60 0.0 0 1 757.45 666.99
  L 733.18 667.01
  A 0.63 0.62 90.0 0 1 732.56 666.38
  L 732.54 611.32
  A 0.61 0.61 0.0 0 1 733.16 610.71
  L 757.07 610.73
  Z"
/>
<path fill="#607d8b" d="
  M 776.97 649.99
  Q 771.80 649.98 770.92 650.01
  A 0.87 0.87 0.0 0 0 770.11 650.67
  L 766.21 666.42
  A 0.74 0.74 0.0 0 1 765.49 666.98
  L 760.16 666.97
  A 0.49 0.49 0.0 0 1 759.68 666.36
  L 773.34 611.18
  A 0.55 0.54 5.9 0 1 773.85 610.77
  Q 775.39 610.72 777.01 610.72
  Q 778.63 610.73 780.17 610.78
  A 0.55 0.54 -5.8 0 1 780.68 611.19
  L 794.23 666.39
  A 0.49 0.49 0.0 0 1 793.75 667.00
  L 788.42 667.00
  A 0.74 0.74 0.0 0 1 787.70 666.44
  L 783.83 650.68
  A 0.87 0.87 0.0 0 0 783.02 650.03
  Q 782.14 649.99 776.97 649.99
  Z
  M 776.97 644.73
  Q 779.57 644.73 782.22 644.66
  A 0.24 0.24 0.0 0 0 782.45 644.37
  Q 777.59 624.35 777.17 622.50
  Q 777.14 622.35 776.95 622.35
  Q 776.78 622.35 776.74 622.50
  Q 776.32 624.35 771.49 644.37
  A 0.24 0.24 0.0 0 0 771.72 644.67
  Q 774.37 644.73 776.97 644.73
  Z"
/>
<path fill="#607d8b" d="
  M 846.99 634.37
  Q 847.01 634.37 847.02 634.37
  A 0.05 0.04 9.0 0 0 847.06 634.35
  L 856.91 610.94
  A 0.31 0.30 11.8 0 1 857.19 610.76
  L 863.85 610.76
  A 0.18 0.18 0.0 0 1 864.01 611.01
  L 850.50 642.76
  A 3.19 3.06 -34.7 0 0 850.25 643.98
  L 850.24 666.35
  A 0.66 0.65 -5.4 0 1 849.70 666.99
  Q 849.66 667.00 846.96 667.00
  Q 844.27 667.00 844.23 666.99
  A 0.66 0.65 5.5 0 1 843.69 666.34
  L 843.72 643.97
  A 3.19 3.06 34.8 0 0 843.47 642.75
  L 830.01 610.98
  A 0.18 0.18 0.0 0 1 830.17 610.73
  L 836.83 610.74
  A 0.31 0.30 -11.7 0 1 837.11 610.92
  L 846.92 634.35
  A 0.05 0.04 -8.9 0 0 846.96 634.37
  Q 846.97 634.37 846.99 634.37
  Z"
/>
<path fill="#ffffff" d="
  M 95.81 614.74
  C 105.28 614.71 105.52 632.92 105.54 638.85
  C 105.57 644.77 105.45 662.99 95.99 663.02
  C 86.53 663.06 86.28 644.84 86.26 638.92
  C 86.24 632.99 86.35 614.78 95.81 614.74
  Z"
/>
<path fill="#ffffff" d="
  M 124.44 616.34
  A 0.36 0.36 0.0 0 1 124.80 615.98
  L 130.12 615.97
  A 8.84 8.41 -0.1 0 1 138.98 624.37
  L 138.98 626.41
  A 8.84 8.41 -0.1 0 1 130.16 634.83
  L 124.84 634.84
  A 0.36 0.36 0.0 0 1 124.48 634.48
  L 124.44 616.34
  Z"
/>
<path fill="#ffffff" d="
  M 654.39 616.57
  A 0.79 0.79 0.0 0 1 655.18 615.79
  L 660.83 615.82
  A 16.09 11.70 -89.7 0 1 672.45 631.97
  L 672.37 645.77
  A 16.09 11.70 -89.7 0 1 660.59 661.80
  L 654.94 661.77
  A 0.79 0.79 0.0 0 1 654.15 660.97
  L 654.39 616.57
  Z"
/>
<path fill="#ffffff" d="
  M 232.95 622.31
  Q 233.13 622.31 233.17 622.47
  Q 233.59 624.32 238.46 644.37
  A 0.24 0.24 0.0 0 1 238.23 644.67
  Q 235.58 644.73 232.97 644.73
  Q 230.37 644.74 227.71 644.68
  A 0.24 0.24 0.0 0 1 227.48 644.38
  Q 232.32 624.32 232.74 622.47
  Q 232.77 622.31 232.95 622.31
  Z"
/>
<path fill="#ffffff" d="
  M 305.97 644.73
  Q 303.37 644.73 300.72 644.67
  A 0.24 0.24 0.0 0 1 300.49 644.37
  Q 305.33 624.36 305.74 622.51
  Q 305.78 622.36 305.95 622.36
  Q 306.14 622.36 306.17 622.51
  Q 306.59 624.36 311.44 644.37
  A 0.24 0.24 0.0 0 1 311.21 644.66
  Q 308.56 644.73 305.97 644.73
  Z"
/>
<path fill="#ffffff" d="
  M 625.97 644.73
  Q 623.37 644.73 620.71 644.67
  A 0.24 0.24 0.0 0 1 620.48 644.38
  Q 625.32 624.32 625.74 622.46
  Q 625.77 622.31 625.94 622.31
  Q 626.13 622.31 626.17 622.46
  Q 626.59 624.31 631.46 644.37
  A 0.24 0.24 0.0 0 1 631.23 644.66
  Q 628.58 644.73 625.97 644.73
  Z"
/>
<path fill="#ffffff" d="
  M 776.97 644.73
  Q 774.37 644.73 771.72 644.67
  A 0.24 0.24 0.0 0 1 771.49 644.37
  Q 776.32 624.35 776.74 622.50
  Q 776.78 622.35 776.95 622.35
  Q 777.14 622.35 777.17 622.50
  Q 777.59 624.35 782.45 644.37
  A 0.24 0.24 0.0 0 1 782.22 644.66
  Q 779.57 644.73 776.97 644.73
  Z"
/>
<path fill="#ffffff" d="
  M 124.42 640.55
  A 0.33 0.33 0.0 0 1 124.75 640.22
  L 130.99 640.19
  A 9.35 9.24 -0.2 0 1 140.37 649.40
  L 140.39 652.32
  A 9.35 9.24 -0.2 0 1 131.07 661.59
  L 124.83 661.62
  A 0.33 0.33 0.0 0 1 124.50 661.29
  L 124.42 640.55
  Z"
/>
</svg>
