<?xml version="1.0" encoding="UTF-8" standalone="no"?>
<!DOCTYPE svg PUBLIC "-//W3C//DTD SVG 1.1//EN" "http://www.w3.org/Graphics/SVG/1.1/DTD/svg11.dtd">
<svg xmlns="http://www.w3.org/2000/svg" version="1.1" viewBox="0.00 0.00 400.00 400.00">
<path stroke="#b8d1c3" stroke-width="2.00" fill="none" stroke-linecap="butt" vector-effect="non-scaling-stroke" d="
  M 92.60 84.39
  A 0.64 0.64 0.0 0 0 91.96 85.03
  L 91.96 127.70
  A 0.64 0.64 0.0 0 0 92.60 128.34
  L 267.93 128.34
  A 0.64 0.64 0.0 0 1 268.57 128.98
  L 268.57 311.78
  A 0.64 0.64 0.0 0 0 269.21 312.42
  L 307.41 312.42
  A 0.64 0.64 0.0 0 0 308.05 311.78
  L 308.05 85.03
  A 0.64 0.64 0.0 0 0 307.41 84.39
  L 92.60 84.39"
/>
<path fill="#ffffff" d="
  M 400.00 0.00
  L 400.00 400.00
  L 0.00 400.00
  L 0.00 0.00
  L 400.00 0.00
  Z
  M 92.60 84.39
  A 0.64 0.64 0.0 0 0 91.96 85.03
  L 91.96 127.70
  A 0.64 0.64 0.0 0 0 92.60 128.34
  L 267.93 128.34
  A 0.64 0.64 0.0 0 1 268.57 128.98
  L 268.57 311.78
  A 0.64 0.64 0.0 0 0 269.21 312.42
  L 307.41 312.42
  A 0.64 0.64 0.0 0 0 308.05 311.78
  L 308.05 85.03
  A 0.64 0.64 0.0 0 0 307.41 84.39
  L 92.60 84.39
  Z"
/>
<path fill="#70a287" d="
  M 92.60 84.39
  L 307.41 84.39
  A 0.64 0.64 0.0 0 1 308.05 85.03
  L 308.05 311.78
  A 0.64 0.64 0.0 0 1 307.41 312.42
  L 269.21 312.42
  A 0.64 0.64 0.0 0 1 268.57 311.78
  L 268.57 128.98
  A 0.64 0.64 0.0 0 0 267.93 128.34
  L 92.60 128.34
  A 0.64 0.64 0.0 0 1 91.96 127.70
  L 91.96 85.03
  A 0.64 0.64 0.0 0 1 92.60 84.39
  Z"
/>
</svg>
