<?xml version="1.0" encoding="UTF-8" standalone="no"?>
<!DOCTYPE svg PUBLIC "-//W3C//DTD SVG 1.1//EN" "http://www.w3.org/Graphics/SVG/1.1/DTD/svg11.dtd">
<svg xmlns="http://www.w3.org/2000/svg" version="1.1" viewBox="0.00 0.00 248.00 244.00">
<g stroke-width="2.00" fill="none" stroke-linecap="butt">
<path stroke="#c95844" stroke-opacity="0.584" vector-effect="non-scaling-stroke" d="
  M 170.57 30.74
  L 173.62 31.98
  A 0.26 0.26 0.0 0 0 173.86 31.51
  Q 172.62 30.73 171.78 29.49"
/>
<path stroke="#b65056" stroke-opacity="0.647" vector-effect="non-scaling-stroke" d="
  M 171.78 29.49
  L 159.22 21.86"
/>
<path stroke="#a54964" stroke-opacity="0.725" vector-effect="non-scaling-stroke" d="
  M 159.22 21.86
  Q 122.20 2.17 81.60 13.44
  Q 46.30 23.25 25.65 53.40
  C -1.95 93.69 5.36 147.04 41.51 179.69"
/>
<path stroke="#b65056" stroke-opacity="0.647" vector-effect="non-scaling-stroke" d="
  M 170.57 30.74
  L 165.24 27.96"
/>
<path stroke="#a54964" stroke-opacity="0.725" vector-effect="non-scaling-stroke" d="
  M 165.24 27.96
  Q 141.90 16.49 115.39 18.42
  Q 84.76 20.65 61.26 39.24
  Q 32.84 61.71 25.18 97.09
  C 18.95 125.84 25.97 155.74 44.27 178.91"
/>
<path stroke="#b65056" stroke-opacity="0.647" vector-effect="non-scaling-stroke" d="
  M 44.27 178.91
  L 45.85 180.69"
/>
<path stroke="#c95844" stroke-opacity="0.584" vector-effect="non-scaling-stroke" d="
  M 45.85 180.69
  L 46.62 182.58
  A 0.40 0.40 0.0 0 1 46.03 183.06
  L 42.56 180.72"
/>
<path stroke="#b65056" stroke-opacity="0.647" vector-effect="non-scaling-stroke" d="
  M 42.56 180.72
  Q 42.16 180.13 41.51 179.69"
/>
<path stroke="#45a09a" stroke-opacity="0.584" vector-effect="non-scaling-stroke" d="
  M 45.74 204.33
  Q 44.73 203.56 43.51 203.05
  A 0.35 0.34 -10.9 0 0 43.13 203.61
  L 44.96 205.46"
/>
<path stroke="#45a09a" stroke-opacity="0.584" vector-effect="non-scaling-stroke" d="
  M 196.48 27.89
  L 194.63 26.60
  A 0.15 0.15 0.0 0 0 194.42 26.80
  L 195.30 28.24"
/>
<path stroke="#3f91a4" stroke-opacity="0.647" vector-effect="non-scaling-stroke" d="
  M 196.48 27.89
  L 202.54 33.07"
/>
<path stroke="#3a83a9" stroke-opacity="0.725" vector-effect="non-scaling-stroke" d="
  M 202.54 33.07
  Q 240.99 70.27 238.80 124.75
  Q 237.90 147.15 228.40 166.89
  C 216.60 191.42 197.66 211.46 172.45 223.52"
/>
<path stroke="#3f91a4" stroke-opacity="0.647" vector-effect="non-scaling-stroke" d="
  M 172.45 223.52
  Q 169.62 224.44 167.96 225.80"
/>
<path stroke="#3a83a9" stroke-opacity="0.725" vector-effect="non-scaling-stroke" d="
  M 167.96 225.80
  Q 137.01 237.74 106.52 233.67
  Q 76.22 229.61 51.03 210.22"
/>
<path stroke="#3f91a4" stroke-opacity="0.647" vector-effect="non-scaling-stroke" d="
  M 51.03 210.22
  L 44.96 205.46"
/>
<path stroke="#3f91a4" stroke-opacity="0.647" vector-effect="non-scaling-stroke" d="
  M 45.74 204.33
  L 50.49 207.10"
/>
<path stroke="#3a83a9" stroke-opacity="0.725" vector-effect="non-scaling-stroke" d="
  M 50.49 207.10
  Q 83.70 225.77 121.87 222.07
  Q 155.36 218.82 182.02 198.72"
/>
<path stroke="#3f91a4" stroke-opacity="0.647" vector-effect="non-scaling-stroke" d="
  M 182.02 198.72
  L 187.05 194.56"
/>
<path stroke="#3a83a9" stroke-opacity="0.725" vector-effect="non-scaling-stroke" d="
  M 187.05 194.56
  C 205.02 179.54 217.94 160.18 223.99 137.48"
/>
<path stroke="#3f91a4" stroke-opacity="0.647" vector-effect="non-scaling-stroke" d="
  M 223.99 137.48
  L 225.76 129.27"
/>
<path stroke="#3a83a9" stroke-opacity="0.725" vector-effect="non-scaling-stroke" d="
  M 225.76 129.27
  Q 227.90 119.62 227.88 109.71"
/>
<path stroke="#3f91a4" stroke-opacity="0.647" vector-effect="non-scaling-stroke" d="
  M 227.88 109.71
  L 227.90 102.55"
/>
<path stroke="#3a83a9" stroke-opacity="0.725" vector-effect="non-scaling-stroke" d="
  M 227.90 102.55
  C 227.60 77.59 216.53 52.62 200.48 33.86"
/>
<path stroke="#3f91a4" stroke-opacity="0.647" vector-effect="non-scaling-stroke" d="
  M 200.48 33.86
  L 195.30 28.24"
/>
<path stroke="#3f91a4" stroke-opacity="0.647" vector-effect="non-scaling-stroke" d="
  M 113.75 55.54
  Q 114.48 54.34 115.05 54.11"
/>
<path stroke="#3f91a4" stroke-opacity="0.647" vector-effect="non-scaling-stroke" d="
  M 108.93 34.84
  Q 108.54 34.74 108.48 34.58"
/>
<path stroke="#3f91a4" stroke-opacity="0.647" vector-effect="non-scaling-stroke" d="
  M 100.50 34.92
  L 99.38 35.37"
/>
<path stroke="#3f91a4" stroke-opacity="0.647" vector-effect="non-scaling-stroke" d="
  M 56.81 91.76
  Q 59.54 96.05 65.23 97.21"
/>
<path stroke="#b65056" stroke-opacity="0.647" vector-effect="non-scaling-stroke" d="
  M 101.24 140.16
  C 95.38 143.56 93.79 150.58 95.99 156.69"
/>
<path stroke="#c95844" stroke-opacity="0.584" vector-effect="non-scaling-stroke" d="
  M 116.22 142.26
  L 115.36 141.30"
/>
<path stroke="#3a83a9" stroke-opacity="0.725" vector-effect="non-scaling-stroke" d="
  M 108.48 34.58
  Q 104.21 33.78 100.50 34.92"
/>
<path stroke="#a54964" stroke-opacity="0.725" vector-effect="non-scaling-stroke" d="
  M 116.22 142.26
  C 121.86 147.78 120.71 156.62 114.78 161.36
  A 3.97 3.79 -74.9 0 1 113.94 161.87
  Q 102.68 166.98 95.99 156.69"
/>
<path stroke="#3a83a9" stroke-opacity="0.725" vector-effect="non-scaling-stroke" d="
  M 113.75 55.54
  Q 110.11 58.66 107.55 58.94
  C 104.68 59.25 101.26 59.37 98.56 60.09
  Q 84.51 63.87 80.34 78.55
  Q 78.35 85.56 81.02 92.75
  C 84.86 103.09 92.60 108.67 103.39 109.68
  Q 105.97 109.92 108.41 110.30"
/>
<path stroke="#3f91a4" stroke-opacity="0.647" vector-effect="non-scaling-stroke" d="
  M 108.41 110.30
  Q 112.19 111.82 114.39 114.29"
/>
<path stroke="#3a83a9" stroke-opacity="0.725" vector-effect="non-scaling-stroke" d="
  M 114.39 114.29
  Q 117.85 118.86 117.19 124.28"
/>
<path stroke="#3f91a4" stroke-opacity="0.647" vector-effect="non-scaling-stroke" d="
  M 117.19 124.28
  L 116.68 126.47"
/>
<path stroke="#3a83a9" stroke-opacity="0.725" vector-effect="non-scaling-stroke" d="
  M 116.68 126.47
  Q 113.70 133.49 107.23 134.59
  C 99.06 135.98 92.77 130.45 92.50 122.22
  C 92.01 107.48 80.15 96.20 65.23 97.21"
/>
<path stroke="#3a83a9" stroke-opacity="0.725" vector-effect="non-scaling-stroke" d="
  M 99.38 35.37
  Q 95.18 37.70 93.50 41.72
  Q 92.79 43.43 92.27 48.97
  C 91.00 62.63 79.62 72.41 65.58 71.90
  A 2.80 2.76 -50.2 0 0 64.77 71.98
  Q 56.84 73.84 55.03 81.50
  Q 53.76 86.85 56.81 91.76"
/>
<path stroke="#a54964" stroke-opacity="0.725" vector-effect="non-scaling-stroke" d="
  M 115.36 141.30
  Q 108.28 136.52 101.24 140.16"
/>
<path stroke="#3a83a9" stroke-opacity="0.725" vector-effect="non-scaling-stroke" d="
  M 115.05 54.11
  Q 118.58 48.21 116.61 42.51
  Q 114.69 36.98 108.93 34.84"
/>
<path stroke="#3a83a9" stroke-opacity="0.725" vector-effect="non-scaling-stroke" d="
  M 153.08 84.53
  Q 152.63 77.12 147.11 73.81
  C 133.55 65.69 120.86 84.99 133.23 94.53
  Q 136.62 97.15 141.28 96.92
  Q 149.74 96.52 152.85 87.22"
/>
<path stroke="#a54964" stroke-opacity="0.725" vector-effect="non-scaling-stroke" d="
  M 153.12 196.75
  Q 155.23 193.58 155.37 191.54
  C 155.57 188.69 155.69 185.17 156.49 182.52
  Q 161.06 167.39 176.92 164.06
  A 6.90 6.72 -50.5 0 1 178.19 163.92
  Q 183.46 163.88 185.75 162.99
  C 197.15 158.55 195.37 139.24 182.48 138.69
  C 178.30 138.51 174.15 138.07 170.12 136.10
  Q 159.31 130.81 156.30 118.92
  C 155.75 116.72 155.60 113.77 155.43 111.05
  A 3.51 3.26 37.2 0 0 155.29 110.24
  C 153.33 103.24 146.94 99.42 139.81 101.31
  Q 132.28 103.30 130.70 112.30"
/>
<path stroke="#3a83a9" stroke-opacity="0.725" vector-effect="non-scaling-stroke" d="
  M 130.70 112.30
  Q 130.58 112.63 130.64 113.25"
/>
<path stroke="#a54964" stroke-opacity="0.725" vector-effect="non-scaling-stroke" d="
  M 130.64 113.25
  Q 131.41 122.13 138.80 124.95
  Q 140.47 125.59 145.90 126.18
  C 167.93 128.58 176.31 156.13 159.35 170.49
  Q 152.75 176.08 142.25 176.46
  Q 138.72 176.59 135.29 179.30"
/>
<path stroke="#3f91a4" stroke-opacity="0.647" vector-effect="non-scaling-stroke" d="
  M 152.85 87.22
  L 153.08 84.53"
/>
<path stroke="#b65056" stroke-opacity="0.647" vector-effect="non-scaling-stroke" d="
  M 153.12 196.75
  Q 152.84 196.94 152.69 197.18"
/>
<path stroke="#a54964" stroke-opacity="0.725" vector-effect="non-scaling-stroke" d="
  M 152.69 197.18
  C 142.68 208.21 125.99 196.78 131.96 183.33"
/>
<path stroke="#b65056" stroke-opacity="0.647" vector-effect="non-scaling-stroke" d="
  M 131.96 183.33
  L 135.29 179.30"
/>
<path stroke="#9e9157" vector-effect="non-scaling-stroke" d="
  M 130.64 113.25
  Q 130.80 112.73 130.70 112.30"
/>
<path stroke="#3f91a4" stroke-opacity="0.647" vector-effect="non-scaling-stroke" d="
  M 167.06 81.00
  L 167.13 87.95"
/>
<path stroke="#3a83a9" stroke-opacity="0.725" vector-effect="non-scaling-stroke" d="
  M 167.13 87.95
  Q 170.42 96.06 177.97 96.93
  C 187.86 98.06 194.25 88.06 190.64 79.40
  C 188.63 74.56 183.50 71.49 178.12 72.06
  Q 170.69 72.84 167.06 81.00"
/>
<path stroke="#3f91a4" stroke-opacity="0.647" vector-effect="non-scaling-stroke" d="
  M 115.21 77.27
  Q 113.79 75.15 111.75 73.87"
/>
<path stroke="#3a83a9" stroke-opacity="0.725" vector-effect="non-scaling-stroke" d="
  M 111.75 73.87
  C 105.68 70.18 98.62 71.98 94.73 77.58
  Q 91.81 81.77 93.04 87.37
  C 95.77 99.83 113.17 100.26 116.89 88.13
  Q 118.59 82.56 115.21 77.27"
/>
<path stroke="#b65056" stroke-opacity="0.647" vector-effect="non-scaling-stroke" d="
  M 60.01 142.00
  L 57.85 144.93"
/>
<path stroke="#b65056" stroke-opacity="0.647" vector-effect="non-scaling-stroke" d="
  M 78.52 159.03
  Q 80.53 156.24 81.10 153.03"
/>
<path stroke="#a54964" stroke-opacity="0.725" vector-effect="non-scaling-stroke" d="
  M 81.10 153.03
  Q 81.99 145.32 76.48 141.28
  Q 68.30 135.29 60.01 142.00"
/>
<path stroke="#a54964" stroke-opacity="0.725" vector-effect="non-scaling-stroke" d="
  M 78.52 159.03
  C 68.13 170.32 51.39 159.16 57.85 144.93"
/>
<path stroke="#a54964" stroke-opacity="0.725" vector-effect="non-scaling-stroke" d="
  M 155.50 151.13
  A 12.48 12.48 0.0 0 0 143.02 138.65
  A 12.48 12.48 0.0 0 0 130.54 151.13
  A 12.48 12.48 0.0 0 0 143.02 163.61
  A 12.48 12.48 0.0 0 0 155.50 151.13"
/>
</g>
<path fill="#0001fc" fill-opacity="0.059" d="
  M 37.81 161.94
  C 35.65 158.99 34.80 155.13 33.69 152.85
  Q 30.96 147.23 30.01 142.78
  C 28.26 134.61 26.66 124.52 26.85 116.30
  Q 27.24 98.56 33.96 81.77
  C 41.50 62.96 56.34 48.17 72.11 35.99
  Q 74.39 34.24 76.91 32.93
  Q 77.06 32.85 77.12 32.93
  A 0.04 0.03 -40.3 0 1 77.11 32.99
  Q 76.68 33.30 72.62 36.09
  Q 72.80 36.24 72.86 35.93
  Q 82.16 31.19 92.61 27.12
  C 102.65 23.20 113.34 22.04 124.09 22.11
  Q 134.25 22.17 144.42 24.39
  L 148.31 25.43
  Q 155.25 27.71 161.95 30.69
  C 166.19 32.57 168.99 33.32 173.22 32.91
  A 1.16 1.15 -10.7 0 0 174.22 31.45
  Q 172.55 25.43 167.33 21.89
  Q 158.76 16.09 148.04 11.93
  C 142.97 9.95 138.49 9.56 132.87 8.11
  C 123.22 5.62 111.99 5.34 102.16 6.00
  Q 88.03 6.94 75.14 11.32
  Q 41.62 22.71 21.91 51.08
  A 0.05 0.05 0.0 0 0 21.99 51.15
  L 22.51 50.62
  A 0.41 0.41 0.0 0 1 23.16 51.09
  Q 22.39 52.67 22.27 54.33
  L 20.73 57.76
  Q 20.20 58.16 19.94 58.72
  L 20.59 57.16
  A 0.98 0.45 54.0 0 0 20.45 56.45
  Q 20.15 55.92 20.67 54.45
  Q 21.04 53.98 21.03 53.57
  A 0.42 0.42 0.0 0 0 20.40 53.22
  L 19.47 53.79
  C 24.55 44.75 31.18 36.55 39.30 30.11
  C 42.59 27.50 45.58 24.73 49.22 22.29
  Q 68.34 9.52 92.57 5.37
  Q 118.08 1.00 142.74 9.02
  Q 158.78 14.23 170.89 22.84
  Q 171.81 23.49 174.05 26.07
  Q 175.69 27.95 176.04 30.11
  Q 176.46 32.74 174.27 35.00
  A 1.12 1.11 24.2 0 1 173.36 35.34
  C 167.05 34.73 163.23 32.88 156.36 29.96
  C 127.92 17.84 94.52 22.39 69.68 39.99
  Q 50.48 53.59 38.59 74.06
  Q 36.01 78.51 34.35 83.04
  Q 24.19 110.81 30.89 139.73
  C 32.65 147.33 35.74 154.39 37.81 161.94
  Z"
/>
<path fill="#0001fe" fill-opacity="0.169" d="
  M 148.31 25.43
  Q 156.72 27.00 164.75 30.34
  Q 166.83 31.20 170.57 30.74
  L 173.62 31.98
  A 0.26 0.26 0.0 0 0 173.86 31.51
  Q 172.62 30.73 171.78 29.49
  Q 168.60 24.84 161.91 21.11
  C 155.05 17.29 146.74 12.59 137.52 10.25
  C 122.88 6.56 107.66 5.18 94.15 8.42
  C 86.81 10.18 80.31 10.89 73.19 13.40
  C 52.06 20.85 33.58 34.94 22.27 54.33
  Q 22.39 52.67 23.16 51.09
  A 0.41 0.41 0.0 0 0 22.51 50.62
  L 21.99 51.15
  A 0.05 0.05 0.0 0 1 21.91 51.08
  Q 41.62 22.71 75.14 11.32
  Q 88.03 6.94 102.16 6.00
  C 111.99 5.34 123.22 5.62 132.87 8.11
  C 138.49 9.56 142.97 9.95 148.04 11.93
  Q 158.76 16.09 167.33 21.89
  Q 172.55 25.43 174.22 31.45
  A 1.16 1.15 -10.7 0 1 173.22 32.91
  C 168.99 33.32 166.19 32.57 161.95 30.69
  Q 155.25 27.71 148.31 25.43
  Z"
/>
<path fill="#0102fe" fill-opacity="0.294" d="
  M 171.78 29.49
  L 159.22 21.86
  Q 150.31 15.20 138.03 12.02
  Q 116.17 6.37 97.82 9.06
  Q 83.30 11.19 79.30 12.33
  Q 73.84 13.87 72.78 14.42
  Q 68.01 16.87 67.17 17.05
  C 63.63 17.80 59.44 20.91 56.09 22.60
  C 47.47 26.96 39.76 33.60 33.14 40.87
  Q 31.10 43.10 30.36 45.35
  A 1.94 1.88 74.9 0 1 30.04 45.93
  L 20.73 57.76
  L 22.27 54.33
  C 33.58 34.94 52.06 20.85 73.19 13.40
  C 80.31 10.89 86.81 10.18 94.15 8.42
  C 107.66 5.18 122.88 6.56 137.52 10.25
  C 146.74 12.59 155.05 17.29 161.91 21.11
  Q 168.60 24.84 171.78 29.49
  Z"
/>
<path fill="#0807f2" fill-opacity="0.447" d="
  M 159.22 21.86
  Q 122.20 2.17 81.60 13.44
  Q 46.30 23.25 25.65 53.40
  C -1.95 93.69 5.36 147.04 41.51 179.69
  C 35.45 177.00 32.04 172.32 26.46 166.32
  L 23.54 162.15
  Q 17.76 151.83 14.01 142.02
  Q 6.29 121.80 8.14 99.66
  Q 9.20 87.01 10.44 82.22
  Q 12.82 73.03 19.94 58.72
  Q 20.20 58.16 20.73 57.76
  L 30.04 45.93
  A 1.94 1.88 74.9 0 0 30.36 45.35
  Q 31.10 43.10 33.14 40.87
  C 39.76 33.60 47.47 26.96 56.09 22.60
  C 59.44 20.91 63.63 17.80 67.17 17.05
  Q 68.01 16.87 72.78 14.42
  Q 73.84 13.87 79.30 12.33
  Q 83.30 11.19 97.82 9.06
  Q 116.17 6.37 138.03 12.02
  Q 150.31 15.20 159.22 21.86
  Z"
/>
<path fill="#eb6725" d="
  M 159.22 21.86
  L 171.78 29.49
  Q 172.62 30.73 173.86 31.51
  A 0.26 0.26 0.0 0 1 173.62 31.98
  L 170.57 30.74
  L 165.24 27.96
  Q 141.90 16.49 115.39 18.42
  Q 84.76 20.65 61.26 39.24
  Q 32.84 61.71 25.18 97.09
  C 18.95 125.84 25.97 155.74 44.27 178.91
  L 45.85 180.69
  L 46.62 182.58
  A 0.40 0.40 0.0 0 1 46.03 183.06
  L 42.56 180.72
  Q 42.16 180.13 41.51 179.69
  C 5.36 147.04 -1.95 93.69 25.65 53.40
  Q 46.30 23.25 81.60 13.44
  Q 122.20 2.17 159.22 21.86
  Z"
/>
<path fill="#0807f2" fill-opacity="0.447" d="
  M 165.24 27.96
  C 160.58 27.23 155.40 25.40 151.68 24.43
  C 143.77 22.36 137.26 20.38 128.39 20.63
  Q 130.13 20.62 133.42 20.62
  A 0.21 0.11 8.6 0 0 133.57 20.57
  Q 133.60 20.54 133.67 20.54
  A 0.12 0.06 27.9 0 0 133.56 20.39
  Q 114.63 19.18 102.25 21.61
  Q 90.55 23.91 76.45 31.04
  L 62.74 40.98
  Q 55.10 46.33 51.75 49.76
  C 45.22 56.46 36.91 67.72 32.96 77.86
  Q 29.01 88.01 28.69 89.09
  Q 22.80 109.07 24.66 129.67
  A 0.15 0.14 86.1 0 0 24.81 129.81
  L 24.82 129.81
  A 0.19 0.19 0.0 0 0 24.98 129.61
  L 24.73 125.64
  A 0.21 0.20 -4.0 0 1 24.93 125.42
  L 24.94 125.42
  A 0.21 0.20 87.2 0 1 25.15 125.62
  Q 25.24 131.52 26.65 137.27
  Q 29.87 150.41 35.40 162.44
  Q 36.17 164.12 38.20 166.79
  Q 42.01 172.60 44.27 178.91
  C 25.97 155.74 18.95 125.84 25.18 97.09
  Q 32.84 61.71 61.26 39.24
  Q 84.76 20.65 115.39 18.42
  Q 141.90 16.49 165.24 27.96
  Z"
/>
<path fill="#0102fe" fill-opacity="0.294" d="
  M 165.24 27.96
  L 170.57 30.74
  Q 166.83 31.20 164.75 30.34
  Q 156.72 27.00 148.31 25.43
  L 144.42 24.39
  Q 138.48 21.49 129.92 21.01
  Q 103.47 19.53 80.58 30.16
  Q 79.02 30.89 76.45 31.04
  Q 90.55 23.91 102.25 21.61
  Q 114.63 19.18 133.56 20.39
  A 0.12 0.06 27.9 0 1 133.67 20.54
  Q 133.60 20.54 133.57 20.57
  A 0.21 0.11 8.6 0 1 133.42 20.62
  Q 130.13 20.62 128.39 20.63
  C 137.26 20.38 143.77 22.36 151.68 24.43
  C 155.40 25.40 160.58 27.23 165.24 27.96
  Z"
/>
<path fill="#0001fe" fill-opacity="0.169" d="
  M 144.42 24.39
  Q 134.25 22.17 124.09 22.11
  C 113.34 22.04 102.65 23.20 92.61 27.12
  Q 82.16 31.19 72.86 35.93
  Q 72.80 36.24 72.62 36.09
  Q 76.68 33.30 77.11 32.99
  A 0.04 0.03 -40.3 0 0 77.12 32.93
  Q 77.06 32.85 76.91 32.93
  Q 74.39 34.24 72.11 35.99
  C 56.34 48.17 41.50 62.96 33.96 81.77
  Q 27.24 98.56 26.85 116.30
  C 26.66 124.52 28.26 134.61 30.01 142.78
  Q 30.96 147.23 33.69 152.85
  C 34.80 155.13 35.65 158.99 37.81 161.94
  L 39.18 164.50
  Q 44.15 171.40 46.39 176.48
  Q 47.94 180.00 46.22 184.16
  A 0.54 0.54 0.0 0 1 45.51 184.45
  L 38.93 181.77
  Q 39.12 181.10 40.32 181.12
  Q 41.28 180.66 42.56 180.72
  L 46.03 183.06
  A 0.40 0.40 0.0 0 0 46.62 182.58
  L 45.85 180.69
  Q 44.17 172.89 38.20 166.79
  C 35.94 161.03 32.89 154.81 31.09 149.75
  C 26.43 136.62 23.75 120.61 26.17 106.83
  C 28.13 95.71 31.08 82.74 36.75 72.78
  Q 41.70 64.07 47.17 56.74
  C 51.10 51.46 57.50 46.05 62.74 40.98
  L 76.45 31.04
  Q 79.02 30.89 80.58 30.16
  Q 103.47 19.53 129.92 21.01
  Q 138.48 21.49 144.42 24.39
  Z"
/>
<path fill="#0001fc" fill-opacity="0.059" d="
  M 56.21 219.20
  Q 67.13 225.76 74.51 228.96
  Q 108.16 243.53 143.33 237.22
  C 174.62 231.61 204.21 212.56 221.83 186.32
  C 225.73 180.51 230.57 173.08 233.41 165.66
  C 238.84 151.50 242.50 138.69 242.41 123.01
  C 242.35 113.36 242.66 104.88 240.56 95.41
  C 237.58 81.92 233.60 68.14 226.15 56.89
  Q 224.26 54.04 221.56 49.50
  C 218.23 43.90 213.08 37.99 209.00 33.50
  C 205.25 29.36 199.81 24.16 193.78 25.83
  A 0.56 0.56 0.0 0 0 193.37 26.42
  C 193.98 34.23 200.34 40.75 204.10 45.89
  Q 208.71 52.17 214.39 64.16
  C 216.46 68.54 217.54 72.69 219.22 76.81
  Q 221.11 81.41 222.18 86.50
  Q 225.35 101.58 223.90 115.48
  C 222.86 125.46 221.17 135.81 217.33 145.40
  Q 214.12 153.40 209.53 162.09
  C 204.52 171.58 196.40 180.77 189.05 187.49
  Q 187.72 188.70 185.98 189.92
  A 7.42 6.88 -82.7 0 0 185.13 190.63
  Q 179.85 195.97 173.65 200.50
  Q 173.34 200.78 172.80 200.97
  L 177.65 196.47
  A 0.08 0.07 -39.3 0 0 177.67 196.37
  Q 177.65 196.35 177.62 196.33
  A 0.23 0.21 -47.4 0 0 177.38 196.35
  Q 170.24 201.86 162.04 206.35
  A 0.14 0.14 0.0 0 0 162.14 206.61
  L 163.71 206.30
  L 145.30 213.47
  L 141.80 215.28
  L 137.72 216.16
  Q 116.87 220.34 96.79 218.38
  Q 82.04 216.94 67.64 210.56
  L 64.34 208.90
  A 0.73 0.73 0.0 0 0 63.73 208.88
  Q 63.41 209.02 63.29 208.89
  A 0.22 0.21 -15.7 0 1 63.49 208.54
  Q 65.45 208.87 65.96 209.07
  Q 96.80 221.26 129.68 215.92
  Q 149.87 212.64 166.54 203.02
  C 182.06 194.06 196.05 181.25 206.08 165.02
  C 228.54 128.69 228.24 82.40 203.71 47.05
  Q 200.72 42.74 195.75 36.40
  C 192.43 32.16 190.92 29.23 191.81 24.20
  A 0.63 0.63 0.0 0 1 192.48 23.67
  C 198.76 24.01 203.12 26.10 207.75 30.63
  Q 213.94 36.68 218.07 42.21
  Q 219.92 44.67 225.38 53.10
  C 230.45 60.94 233.96 69.28 238.14 78.62
  C 241.26 85.60 242.38 93.59 243.68 101.93
  Q 244.28 105.78 244.33 113.86
  C 244.41 125.62 244.58 134.55 242.19 144.70
  Q 235.87 171.49 218.46 193.73
  Q 194.31 224.59 155.96 235.66
  Q 143.14 239.36 129.86 239.98
  C 121.75 240.36 111.43 240.56 102.13 238.63
  Q 81.17 234.29 62.69 224.36
  Q 60.31 223.09 56.21 219.20
  Z
  M 225.2689 54.8315
  A 0.31 0.06 -123.5 0 0 225.3900 55.1231
  A 0.31 0.06 -123.5 0 0 225.6111 55.3485
  A 0.31 0.06 -123.5 0 0 225.4900 55.0569
  A 0.31 0.06 -123.5 0 0 225.2689 54.8315
  Z"
/>
<path fill="#0001fe" fill-opacity="0.169" d="
  M 56.21 219.20
  Q 54.35 218.36 53.52 217.29
  Q 50.69 214.58 47.79 212.19
  Q 43.67 208.82 42.30 204.07
  A 1.72 1.63 74.9 0 1 43.45 201.95
  Q 43.73 201.87 44.27 201.45
  A 1.02 0.99 35.2 0 1 45.23 201.30
  L 56.78 205.57
  L 67.64 210.56
  Q 82.04 216.94 96.79 218.38
  Q 116.87 220.34 137.72 216.16
  Q 136.57 216.86 136.77 217.41
  Q 132.80 218.96 128.32 219.00
  L 96.53 219.68
  L 91.80 219.13
  C 88.00 218.42 84.02 216.99 80.69 216.25
  C 70.75 214.04 61.83 210.25 52.53 206.21
  C 50.51 205.33 47.99 204.79 45.74 204.33
  Q 44.73 203.56 43.51 203.05
  A 0.35 0.34 -10.9 0 0 43.13 203.61
  L 44.96 205.46
  C 47.98 211.77 51.87 213.90 58.99 218.88
  Q 68.01 225.19 77.33 228.38
  Q 90.71 232.97 97.68 234.62
  Q 116.62 239.11 135.86 236.50
  Q 147.88 234.87 156.67 232.24
  Q 159.28 231.45 162.10 229.96
  C 165.62 228.09 170.19 227.47 173.86 225.86
  C 181.09 222.66 191.58 216.42 197.02 209.63
  L 200.96 207.20
  C 207.35 203.02 211.40 197.52 217.73 189.75
  Q 221.20 185.50 223.37 180.19
  A 0.01 0.01 0.0 0 0 223.35 180.18
  Q 223.30 180.26 223.27 180.32
  Q 222.92 181.21 222.15 181.14
  L 226.59 174.00
  L 226.68 174.40
  A 0.41 0.41 0.0 0 0 227.44 174.50
  C 233.02 163.25 236.14 153.50 239.37 141.65
  Q 240.95 135.83 241.21 129.66
  Q 241.62 119.46 241.10 108.24
  Q 240.33 92.03 232.59 72.04
  A 0.26 0.26 0.0 0 0 232.22 71.91
  L 231.95 72.06
  A 0.06 0.05 -20.8 0 0 231.92 72.12
  L 233.47 76.58
  C 233.57 77.27 233.79 77.84 234.00 78.50
  Q 233.97 78.43 233.95 78.35
  Q 232.20 73.50 230.49 68.63
  Q 227.61 60.44 222.38 53.44
  Q 215.76 43.38 207.29 34.71
  Q 202.67 29.99 196.48 27.89
  L 194.63 26.60
  A 0.15 0.15 0.0 0 0 194.42 26.80
  L 195.30 28.24
  Q 196.99 32.86 200.30 36.56
  L 208.20 47.79
  L 217.51 65.75
  L 220.44 74.88
  C 223.89 83.50 224.22 92.83 225.26 101.77
  Q 225.98 107.87 224.21 122.60
  A 0.18 0.18 0.0 0 1 224.00 122.76
  L 223.97 122.76
  A 0.17 0.15 15.7 0 1 223.87 122.60
  L 224.76 113.03
  A 0.10 0.10 0.0 0 0 224.58 112.95
  Q 224.48 113.07 224.59 113.24
  Q 223.57 123.35 221.88 133.38
  C 222.55 130.06 223.21 126.73 223.82 123.39
  A 0.05 0.03 76.7 0 1 223.83 123.36
  L 223.84 123.36
  A 0.01 0.01 0.0 0 1 223.85 123.37
  C 222.27 141.20 214.83 156.64 204.64 171.86
  Q 201.35 176.76 196.90 181.33
  C 189.35 189.08 182.83 195.09 173.65 200.50
  Q 179.85 195.97 185.13 190.63
  A 7.42 6.88 -82.7 0 1 185.98 189.92
  Q 187.72 188.70 189.05 187.49
  C 196.40 180.77 204.52 171.58 209.53 162.09
  Q 214.12 153.40 217.33 145.40
  C 221.17 135.81 222.86 125.46 223.90 115.48
  Q 225.35 101.58 222.18 86.50
  Q 221.11 81.41 219.22 76.81
  C 217.54 72.69 216.46 68.54 214.39 64.16
  Q 208.71 52.17 204.10 45.89
  C 200.34 40.75 193.98 34.23 193.37 26.42
  A 0.56 0.56 0.0 0 1 193.78 25.83
  C 199.81 24.16 205.25 29.36 209.00 33.50
  C 213.08 37.99 218.23 43.90 221.56 49.50
  Q 224.26 54.04 226.15 56.89
  C 233.60 68.14 237.58 81.92 240.56 95.41
  C 242.66 104.88 242.35 113.36 242.41 123.01
  C 242.50 138.69 238.84 151.50 233.41 165.66
  C 230.57 173.08 225.73 180.51 221.83 186.32
  C 204.21 212.56 174.62 231.61 143.33 237.22
  Q 108.16 243.53 74.51 228.96
  Q 67.13 225.76 56.21 219.20
  Z"
/>
<path fill="#51bb89" d="
  M 196.48 27.89
  L 202.54 33.07
  Q 240.99 70.27 238.80 124.75
  Q 237.90 147.15 228.40 166.89
  C 216.60 191.42 197.66 211.46 172.45 223.52
  Q 169.62 224.44 167.96 225.80
  Q 137.01 237.74 106.52 233.67
  Q 76.22 229.61 51.03 210.22
  L 44.96 205.46
  L 43.13 203.61
  A 0.35 0.34 -10.9 0 1 43.51 203.05
  Q 44.73 203.56 45.74 204.33
  L 50.49 207.10
  Q 83.70 225.77 121.87 222.07
  Q 155.36 218.82 182.02 198.72
  L 187.05 194.56
  C 205.02 179.54 217.94 160.18 223.99 137.48
  L 225.76 129.27
  Q 227.90 119.62 227.88 109.71
  L 227.90 102.55
  C 227.60 77.59 216.53 52.62 200.48 33.86
  L 195.30 28.24
  L 194.42 26.80
  A 0.15 0.15 0.0 0 1 194.63 26.60
  L 196.48 27.89
  Z"
/>
<path fill="#0102fe" fill-opacity="0.294" d="
  M 222.38 53.44
  Q 222.81 54.68 223.56 55.70
  A 0.26 0.05 51.6 0 1 223.67 55.91
  Q 223.66 55.95 223.65 55.97
  A 0.18 0.09 48.2 0 1 223.42 55.88
  Q 216.19 45.42 208.10 37.40
  Q 205.54 34.86 202.54 33.07
  L 196.48 27.89
  Q 202.67 29.99 207.29 34.71
  Q 215.76 43.38 222.38 53.44
  Z"
/>
<path fill="#0001fc" fill-opacity="0.059" d="
  M 114.79 71.71
  C 107.44 67.66 96.48 68.00 91.67 75.67
  Q 86.13 84.49 91.49 93.28
  C 96.72 101.85 110.05 103.08 116.41 95.41
  C 122.62 87.91 121.02 80.20 116.20 72.50
  L 117.36 73.48
  A 0.07 0.07 0.0 0 0 117.46 73.46
  L 117.66 73.11
  A 0.25 0.25 0.0 0 1 118.09 73.11
  L 122.34 80.47
  A 0.75 0.75 0.0 0 0 123.71 80.28
  Q 126.39 69.65 136.77 67.53
  C 150.53 64.73 160.39 75.18 157.26 88.72
  C 156.06 93.90 154.77 96.82 156.80 100.69
  C 158.68 104.28 160.18 106.96 161.11 111.45
  C 163.01 120.63 165.12 127.83 174.84 131.22
  C 178.66 132.55 185.18 133.11 189.12 135.24
  Q 194.36 138.08 196.73 142.89
  C 201.16 151.89 197.43 163.98 187.75 167.69
  Q 185.21 168.66 176.78 170.70
  Q 168.14 172.80 163.30 182.14
  C 161.56 185.51 161.21 192.28 159.39 196.07
  Q 156.65 201.75 150.49 205.58
  A 2.18 2.17 25.9 0 1 149.53 205.91
  C 137.91 207.12 132.56 205.64 126.48 195.90
  A 2.80 2.64 -67.3 0 1 126.12 194.94
  Q 125.10 188.98 126.04 183.53
  A 3.13 2.89 -29.7 0 1 126.31 182.68
  Q 130.75 173.41 140.42 171.12
  A 0.57 0.57 0.0 0 0 140.52 170.05
  Q 131.66 166.20 125.84 158.27
  A 1.04 1.03 42.1 0 0 124.12 158.35
  Q 115.37 173.10 98.89 166.64
  Q 95.79 165.43 93.09 161.79
  C 89.85 157.41 89.33 150.45 90.88 145.48
  C 91.97 141.96 93.36 138.70 91.80 135.70
  Q 90.72 133.62 89.31 131.07
  C 86.64 126.27 87.09 120.33 84.88 115.40
  Q 80.68 106.10 70.59 103.85
  C 61.39 101.80 55.68 100.43 50.45 91.75
  A 2.57 2.54 -64.7 0 1 50.09 90.73
  Q 49.57 86.90 49.56 85.18
  Q 49.46 70.70 63.31 67.18
  Q 67.64 66.08 71.91 64.97
  C 78.62 63.23 82.59 58.32 86.52 51.68
  Q 83.08 62.20 74.15 65.70
  C 70.47 67.14 63.27 67.92 59.30 70.06
  C 51.56 74.25 48.60 83.88 52.46 91.73
  Q 55.50 97.92 62.92 100.63
  C 66.38 101.89 72.55 102.34 76.39 104.46
  C 85.17 109.32 86.89 116.76 89.28 126.25
  Q 89.51 127.14 89.99 126.71
  L 93.01 132.70
  C 96.49 137.23 94.75 140.04 92.93 144.63
  Q 90.50 150.76 93.06 157.73
  C 96.16 166.16 106.24 168.84 113.94 165.67
  C 121.77 162.45 123.95 154.86 122.59 147.06
  C 121.83 142.69 119.79 140.11 116.00 138.06
  A 1.78 1.77 28.5 0 1 115.28 135.66
  C 118.48 129.76 121.19 124.39 119.31 117.43
  Q 116.76 107.94 106.68 105.99
  C 97.95 104.30 90.61 102.64 86.71 95.04
  Q 81.37 84.66 86.15 75.23
  C 88.47 70.64 93.07 66.69 98.08 65.09
  C 102.86 63.58 108.05 63.21 112.13 60.83
  C 126.30 52.52 121.97 31.19 104.91 31.00
  Q 94.59 30.88 90.27 39.84
  Q 88.82 42.84 87.88 50.63
  A 0.06 0.02 50.0 0 1 87.81 50.59
  Q 87.80 50.57 87.79 50.56
  A 0.18 0.05 52.3 0 1 87.74 50.43
  L 88.74 41.66
  A 0.21 0.19 -82.6 0 0 88.58 41.43
  L 88.57 41.43
  A 0.20 0.19 -80.2 0 0 88.36 41.59
  L 86.52 51.68
  C 86.93 40.16 90.81 29.86 103.88 29.23
  C 115.26 28.68 122.78 36.46 122.27 47.70
  C 121.78 58.24 114.70 61.54 106.30 66.22
  A 0.40 0.40 0.0 0 0 106.47 66.97
  C 108.88 67.10 114.65 68.44 114.79 71.71
  Z
  M 128.98 107.02
  L 127.78 116.67
  C 130.99 129.13 141.27 128.15 150.36 131.59
  C 157.39 134.25 163.90 142.29 164.06 150.36
  C 164.24 159.83 159.47 167.25 150.71 170.66
  Q 147.55 171.89 146.28 171.95
  C 137.73 172.33 128.85 177.40 127.96 186.49
  Q 126.88 197.50 134.56 202.34
  C 142.55 207.37 152.87 204.68 157.32 196.10
  C 159.70 191.50 159.57 185.42 161.96 180.72
  Q 165.92 172.92 174.84 169.75
  C 178.16 168.57 184.03 168.14 187.73 166.30
  C 196.48 161.96 199.17 151.45 194.69 143.12
  Q 192.15 138.38 186.07 135.92
  C 182.52 134.50 175.92 134.14 171.91 132.12
  Q 163.58 127.92 160.81 118.72
  C 159.71 115.07 159.22 109.08 157.16 105.35
  Q 155.43 102.24 152.42 99.23
  A 1.51 1.51 0.0 0 1 152.21 97.36
  C 156.32 90.71 158.95 80.84 153.40 74.06
  C 146.74 65.91 131.86 66.48 126.84 75.88
  C 123.62 81.89 123.81 90.28 128.55 95.95
  Q 130.31 98.05 131.67 99.37
  A 0.93 0.92 -47.6 0 1 131.72 100.63
  Q 128.98 103.84 128.98 107.02
  Z
  M 140.22 132.25
  Q 132.85 127.97 131.15 126.35
  Q 124.04 119.52 125.72 109.68
  C 126.22 106.74 129.68 101.33 127.70 97.71
  Q 124.78 92.35 123.70 88.52
  A 0.99 0.98 -45.2 0 0 121.80 88.53
  C 119.46 96.98 114.51 100.38 106.56 102.98
  A 0.56 0.56 0.0 0 0 106.57 104.04
  C 115.95 106.88 122.79 112.43 122.58 123.05
  C 122.51 126.56 121.15 129.58 120.46 133.05
  C 119.69 136.95 122.24 140.69 124.47 143.61
  A 0.90 0.90 0.0 0 0 125.94 143.55
  Q 131.14 135.52 140.14 132.89
  A 0.35 0.35 0.0 0 0 140.22 132.25
  Z
  M 128.80 146.34
  Q 127.09 154.18 131.32 161.12
  Q 129.06 158.12 128.14 154.51
  Q 127.71 152.82 127.21 151.16
  A 0.23 0.22 -15.0 0 0 126.94 151.01
  A 0.21 0.20 -9.5 0 0 126.78 151.23
  C 127.67 158.29 130.59 164.11 137.74 166.39
  C 154.72 171.79 165.56 152.26 154.21 139.99
  C 146.02 131.15 130.97 134.19 128.03 146.12
  A 0.32 0.32 0.0 0 0 128.47 146.49
  L 128.80 146.34
  Z"
/>
<path fill="#0102fe" fill-opacity="0.294" d="
  M 200.48 33.86
  Q 200.69 35.38 200.30 36.56
  Q 196.99 32.86 195.30 28.24
  L 200.48 33.86
  Z"
/>
<path fill="#0001fe" fill-opacity="0.169" d="
  M 93.01 132.70
  L 98.00 136.46
  A 0.64 0.63 32.7 0 1 98.18 137.27
  Q 96.68 140.06 95.20 142.91
  C 91.85 149.35 92.62 158.73 99.43 162.95
  Q 108.36 167.74 116.67 162.48
  Q 120.57 158.65 121.25 153.28
  Q 122.27 151.19 121.50 149.31
  A 0.15 0.15 0.0 0 0 121.21 149.37
  L 121.25 153.28
  C 120.33 148.83 120.28 145.32 116.22 142.26
  L 115.36 141.30
  Q 119.29 143.67 121.19 148.41
  A 0.16 0.08 60.3 0 0 121.37 148.53
  Q 121.38 148.51 121.40 148.48
  A 0.41 0.05 74.2 0 0 121.34 148.11
  C 120.44 144.74 118.42 140.42 114.47 140.10
  L 112.10 137.96
  L 116.35 139.93
  A 0.08 0.07 24.7 0 0 116.45 139.90
  L 116.60 139.64
  A 0.21 0.21 0.0 0 0 116.55 139.37
  L 113.74 137.25
  A 1.59 1.59 0.0 0 1 113.52 134.91
  Q 124.95 122.32 112.77 110.19
  Q 108.29 108.19 106.69 107.93
  Q 98.17 106.56 90.56 102.80
  Q 90.39 102.14 89.82 101.75
  A 0.03 0.03 0.0 0 1 89.83 101.69
  Q 89.96 101.68 90.10 101.57
  A 0.18 0.18 0.0 0 0 90.13 101.30
  Q 78.74 89.29 85.24 73.36
  C 89.03 68.04 94.28 63.75 100.73 62.45
  C 108.51 60.88 116.45 59.02 118.80 50.17
  Q 119.98 45.73 118.62 42.35
  Q 114.08 31.05 103.29 32.10
  Q 98.13 32.61 94.84 35.83
  C 89.67 40.89 89.91 48.53 88.16 53.61
  Q 85.00 62.81 77.03 66.70
  C 69.29 70.47 59.23 68.06 54.42 77.62
  Q 52.39 81.66 52.61 87.66
  A 0.01 0.01 0.0 0 1 52.60 87.67
  Q 52.59 87.68 52.58 87.68
  A 0.04 0.03 -14.2 0 1 52.53 87.66
  L 52.41 81.45
  A 0.07 0.07 0.0 0 0 52.31 81.40
  Q 52.13 81.50 52.13 81.66
  Q 52.15 83.72 52.05 85.64
  Q 51.97 87.14 52.95 89.40
  Q 55.57 95.49 60.80 98.19
  C 64.64 100.18 70.66 100.58 74.15 101.83
  Q 82.52 104.84 85.90 110.85
  Q 89.65 117.53 89.99 126.71
  Q 89.51 127.14 89.28 126.25
  C 86.89 116.76 85.17 109.32 76.39 104.46
  C 72.55 102.34 66.38 101.89 62.92 100.63
  Q 55.50 97.92 52.46 91.73
  C 48.60 83.88 51.56 74.25 59.30 70.06
  C 63.27 67.92 70.47 67.14 74.15 65.70
  Q 83.08 62.20 86.52 51.68
  L 88.36 41.59
  A 0.20 0.19 -80.2 0 1 88.57 41.43
  L 88.58 41.43
  A 0.21 0.19 -82.6 0 1 88.74 41.66
  L 87.74 50.43
  A 0.18 0.05 52.3 0 0 87.79 50.56
  Q 87.80 50.57 87.81 50.59
  A 0.06 0.02 50.0 0 0 87.88 50.63
  Q 88.82 42.84 90.27 39.84
  Q 94.59 30.88 104.91 31.00
  C 121.97 31.19 126.30 52.52 112.13 60.83
  C 108.05 63.21 102.86 63.58 98.08 65.09
  C 93.07 66.69 88.47 70.64 86.15 75.23
  Q 81.37 84.66 86.71 95.04
  C 90.61 102.64 97.95 104.30 106.68 105.99
  Q 116.76 107.94 119.31 117.43
  C 121.19 124.39 118.48 129.76 115.28 135.66
  A 1.78 1.77 28.5 0 0 116.00 138.06
  C 119.79 140.11 121.83 142.69 122.59 147.06
  C 123.95 154.86 121.77 162.45 113.94 165.67
  C 106.24 168.84 96.16 166.16 93.06 157.73
  Q 90.50 150.76 92.93 144.63
  C 94.75 140.04 96.49 137.23 93.01 132.70
  Z"
/>
<path fill="#0102fe" fill-opacity="0.294" d="
  M 85.24 73.36
  C 85.36 65.05 99.49 61.16 105.77 60.07
  Q 109.97 59.34 113.75 55.54
  Q 114.48 54.34 115.05 54.11
  Q 120.99 48.80 116.63 40.30
  Q 113.88 34.95 108.28 33.79
  Q 105.68 33.25 101.34 33.33
  A 0.06 0.05 -22.4 0 0 101.30 33.42
  Q 101.45 33.58 101.50 33.58
  Q 106.49 33.80 107.94 33.88
  A 0.84 0.83 69.9 0 1 108.54 34.16
  Q 108.82 34.46 108.93 34.84
  Q 108.54 34.74 108.48 34.58
  Q 104.55 32.95 100.50 34.92
  L 99.38 35.37
  Q 98.98 34.70 98.02 35.22
  C 91.54 38.79 91.41 44.96 89.82 52.36
  Q 87.05 65.18 74.36 68.82
  C 67.88 70.68 59.52 69.98 55.39 78.10
  Q 51.89 84.98 56.81 91.76
  Q 59.54 96.05 65.23 97.21
  Q 69.75 99.01 74.47 100.37
  Q 86.29 103.77 89.04 115.44
  Q 90.08 119.83 90.72 122.86
  C 92.10 129.31 95.42 132.33 100.15 136.38
  A 1.03 1.03 0.0 0 1 100.38 137.67
  L 98.23 141.38
  A 0.19 0.19 0.0 0 0 98.53 141.61
  L 100.87 139.27
  A 0.24 0.24 0.0 0 1 101.25 139.54
  Q 101.09 139.86 101.24 140.16
  C 95.38 143.56 93.79 150.58 95.99 156.69
  L 99.43 162.95
  C 92.62 158.73 91.85 149.35 95.20 142.91
  Q 96.68 140.06 98.18 137.27
  A 0.64 0.63 32.7 0 0 98.00 136.46
  L 93.01 132.70
  L 89.99 126.71
  Q 89.65 117.53 85.90 110.85
  Q 82.52 104.84 74.15 101.83
  C 70.66 100.58 64.64 100.18 60.80 98.19
  Q 55.57 95.49 52.95 89.40
  Q 51.97 87.14 52.05 85.64
  Q 52.15 83.72 52.13 81.66
  Q 52.13 81.50 52.31 81.40
  A 0.07 0.07 0.0 0 1 52.41 81.45
  L 52.53 87.66
  A 0.04 0.03 -14.2 0 0 52.58 87.68
  Q 52.59 87.68 52.60 87.67
  A 0.01 0.01 0.0 0 0 52.61 87.66
  Q 52.39 81.66 54.42 77.62
  C 59.23 68.06 69.29 70.47 77.03 66.70
  Q 85.00 62.81 88.16 53.61
  C 89.91 48.53 89.67 40.89 94.84 35.83
  Q 98.13 32.61 103.29 32.10
  Q 114.08 31.05 118.62 42.35
  Q 119.98 45.73 118.80 50.17
  C 116.45 59.02 108.51 60.88 100.73 62.45
  C 94.28 63.75 89.03 68.04 85.24 73.36
  Z"
/>
<path fill="#0807f2" fill-opacity="0.447" d="
  M 115.05 54.11
  Q 118.58 48.21 116.61 42.51
  Q 114.69 36.98 108.93 34.84
  Q 108.82 34.46 108.54 34.16
  A 0.84 0.83 69.9 0 0 107.94 33.88
  Q 106.49 33.80 101.50 33.58
  Q 101.45 33.58 101.30 33.42
  A 0.06 0.05 -22.4 0 1 101.34 33.33
  Q 105.68 33.25 108.28 33.79
  Q 113.88 34.95 116.63 40.30
  Q 120.99 48.80 115.05 54.11
  Z"
/>
<path fill="#0807f2" fill-opacity="0.447" d="
  M 222.38 53.44
  Q 227.61 60.44 230.49 68.63
  Q 232.20 73.50 233.95 78.35
  Q 233.97 78.43 234.00 78.50
  C 233.79 77.84 233.57 77.27 233.47 76.58
  Q 237.93 88.76 239.64 101.46
  C 240.78 109.88 240.39 119.30 240.33 128.16
  Q 240.29 132.62 238.75 139.61
  Q 234.60 158.46 226.59 174.00
  L 222.15 181.14
  C 215.79 191.12 209.75 197.83 200.96 207.20
  L 197.02 209.63
  Q 185.40 219.05 171.70 224.69
  A 0.20 0.20 0.0 0 1 171.46 224.40
  Q 171.77 223.94 172.45 223.52
  C 197.66 211.46 216.60 191.42 228.40 166.89
  Q 237.90 147.15 238.80 124.75
  Q 240.99 70.27 202.54 33.07
  Q 205.54 34.86 208.10 37.40
  Q 216.19 45.42 223.42 55.88
  A 0.18 0.09 48.2 0 0 223.65 55.97
  Q 223.66 55.95 223.67 55.91
  A 0.26 0.05 51.6 0 0 223.56 55.70
  Q 222.81 54.68 222.38 53.44
  Z
  M 226.0554 59.1895
  A 0.26 0.26 0.0 0 0 225.7090 59.0662
  L 225.6006 59.1176
  A 0.26 0.26 0.0 0 0 225.4773 59.4640
  L 230.6846 70.4305
  A 0.26 0.26 0.0 0 0 231.0310 70.5538
  L 231.1394 70.5024
  A 0.26 0.26 0.0 0 0 231.2627 70.1560
  L 226.0554 59.1895
  Z"
/>
<path fill="#0807f2" fill-opacity="0.447" d="
  M 99.38 35.37
  Q 95.18 37.70 93.50 41.72
  Q 92.79 43.43 92.27 48.97
  C 91.00 62.63 79.62 72.41 65.58 71.90
  A 2.80 2.76 -50.2 0 0 64.77 71.98
  Q 56.84 73.84 55.03 81.50
  Q 53.76 86.85 56.81 91.76
  Q 51.89 84.98 55.39 78.10
  C 59.52 69.98 67.88 70.68 74.36 68.82
  Q 87.05 65.18 89.82 52.36
  C 91.41 44.96 91.54 38.79 98.02 35.22
  Q 98.98 34.70 99.38 35.37
  Z"
/>
<path fill="#0807f2" fill-opacity="0.447" d="
  M 108.48 34.58
  Q 104.21 33.78 100.50 34.92
  Q 104.55 32.95 108.48 34.58
  Z"
/>
<path fill="#0807f2" fill-opacity="0.447" d="
  M 200.48 33.86
  C 216.53 52.62 227.60 77.59 227.90 102.55
  L 223.44 81.35
  A 0.20 0.20 0.0 0 1 223.62 81.11
  L 223.63 81.10
  A 0.22 0.22 0.0 0 1 223.87 81.30
  Q 224.10 84.03 224.88 86.67
  A 0.01 0.00 -38.0 0 0 224.89 86.67
  Q 224.89 86.66 224.90 86.66
  A 0.14 0.09 58.3 0 0 224.90 86.59
  Q 224.23 81.91 222.51 75.54
  Q 222.46 75.37 222.41 75.37
  A 0.32 0.11 79.5 0 0 222.36 75.73
  Q 222.59 76.79 222.42 77.77
  L 219.59 69.65
  A 0.12 0.11 -61.5 0 0 219.37 69.72
  L 220.44 74.88
  L 217.51 65.75
  L 217.54 65.48
  A 0.10 0.09 -65.0 0 1 217.70 65.42
  Q 217.89 65.60 218.08 65.69
  Q 217.91 66.96 218.48 67.68
  A 0.13 0.13 0.0 0 0 218.71 67.56
  L 218.08 65.69
  Q 214.88 55.98 208.20 47.79
  L 200.30 36.56
  Q 200.69 35.38 200.48 33.86
  Z"
/>
<path fill="#51bb89" d="
  M 108.48 34.58
  Q 108.54 34.74 108.93 34.84
  Q 114.69 36.98 116.61 42.51
  Q 118.58 48.21 115.05 54.11
  Q 114.48 54.34 113.75 55.54
  Q 110.11 58.66 107.55 58.94
  C 104.68 59.25 101.26 59.37 98.56 60.09
  Q 84.51 63.87 80.34 78.55
  Q 78.35 85.56 81.02 92.75
  C 84.86 103.09 92.60 108.67 103.39 109.68
  Q 105.97 109.92 108.41 110.30
  Q 112.19 111.82 114.39 114.29
  Q 117.85 118.86 117.19 124.28
  L 116.68 126.47
  Q 113.70 133.49 107.23 134.59
  C 99.06 135.98 92.77 130.45 92.50 122.22
  C 92.01 107.48 80.15 96.20 65.23 97.21
  Q 59.54 96.05 56.81 91.76
  Q 53.76 86.85 55.03 81.50
  Q 56.84 73.84 64.77 71.98
  A 2.80 2.76 -50.2 0 1 65.58 71.90
  C 79.62 72.41 91.00 62.63 92.27 48.97
  Q 92.79 43.43 93.50 41.72
  Q 95.18 37.70 99.38 35.37
  L 100.50 34.92
  Q 104.21 33.78 108.48 34.58
  Z"
/>
<path fill="#0102fe" fill-opacity="0.294" d="
  M 62.74 40.98
  C 57.50 46.05 51.10 51.46 47.17 56.74
  Q 41.70 64.07 36.75 72.78
  C 31.08 82.74 28.13 95.71 26.17 106.83
  C 23.75 120.61 26.43 136.62 31.09 149.75
  C 32.89 154.81 35.94 161.03 38.20 166.79
  Q 36.17 164.12 35.40 162.44
  Q 29.87 150.41 26.65 137.27
  Q 25.24 131.52 25.15 125.62
  A 0.21 0.20 87.2 0 0 24.94 125.42
  L 24.93 125.42
  A 0.21 0.20 -4.0 0 0 24.73 125.64
  L 24.98 129.61
  A 0.19 0.19 0.0 0 1 24.82 129.81
  L 24.81 129.81
  A 0.15 0.14 86.1 0 1 24.66 129.67
  Q 22.80 109.07 28.69 89.09
  Q 29.01 88.01 32.96 77.86
  C 36.91 67.72 45.22 56.46 51.75 49.76
  Q 55.10 46.33 62.74 40.98
  Z"
/>
<path fill="#0102fe" fill-opacity="0.294" d="
  M 218.08 65.69
  Q 217.89 65.60 217.70 65.42
  A 0.10 0.09 -65.0 0 0 217.54 65.48
  L 217.51 65.75
  L 208.20 47.79
  Q 214.88 55.98 218.08 65.69
  Z"
/>
<path fill="#0001fe" fill-opacity="0.169" d="
  M 20.67 54.45
  C 15.13 65.65 9.84 77.90 7.69 89.90
  C 5.45 102.35 6.11 113.10 7.55 126.80
  Q 5.41 117.03 5.15 110.24
  Q 4.04 81.77 18.72 56.53
  Q 19.22 55.67 18.82 54.79
  Q 19.26 54.28 19.47 53.79
  L 20.40 53.22
  A 0.42 0.42 0.0 0 1 21.03 53.57
  Q 21.04 53.98 20.67 54.45
  Z"
/>
<ellipse fill="#0001fe" fill-opacity="0.169" cx="0.00" cy="0.00" transform="translate(225.44,55.09) rotate(-123.5)" rx="0.31" ry="0.06"/>
<path fill="#0001fc" fill-opacity="0.059" d="
  M 7.55 126.80
  L 8.45 130.48
  Q 9.62 137.92 12.79 144.70
  L 17.70 154.50
  L 19.44 158.74
  A 0.04 0.03 75.1 0 0 19.47 158.76
  Q 19.81 158.76 19.86 158.55
  A 0.15 0.12 -57.4 0 0 19.85 158.46
  L 17.70 154.50
  L 17.16 151.93
  A 0.22 0.21 77.0 0 1 17.31 151.68
  L 17.32 151.68
  A 0.23 0.20 69.9 0 1 17.57 151.82
  L 23.75 165.70
  L 29.33 173.18
  L 38.71 183.19
  Q 35.58 181.25 34.89 180.59
  Q 26.75 172.72 20.55 163.19
  C 20.11 162.51 20.16 162.17 20.16 161.52
  A 2.34 2.34 0.0 0 0 19.88 160.41
  Q 19.56 159.81 13.92 149.90
  A 0.03 0.02 34.9 0 0 13.87 149.90
  Q 13.88 149.93 13.87 149.95
  A 0.25 0.12 52.0 0 0 13.89 150.04
  L 18.38 159.63
  A 0.13 0.13 0.0 0 1 18.21 159.80
  L 18.19 159.80
  A 0.17 0.16 65.1 0 1 17.98 159.72
  C 13.58 150.88 10.52 146.05 8.00 138.20
  Q 1.00 116.32 4.26 92.69
  Q 6.18 78.82 13.00 64.25
  Q 15.57 58.76 18.82 54.79
  Q 19.22 55.67 18.72 56.53
  Q 4.04 81.77 5.15 110.24
  Q 5.41 117.03 7.55 126.80
  Z"
/>
<path fill="#0102fe" fill-opacity="0.294" d="
  M 20.67 54.45
  Q 20.15 55.92 20.45 56.45
  A 0.98 0.45 54.0 0 1 20.59 57.16
  L 19.94 58.72
  Q 12.82 73.03 10.44 82.22
  Q 9.20 87.01 8.14 99.66
  Q 6.29 121.80 14.01 142.02
  Q 17.76 151.83 23.54 162.15
  L 23.75 165.70
  L 17.57 151.82
  A 0.23 0.20 69.9 0 0 17.32 151.68
  L 17.31 151.68
  A 0.22 0.21 77.0 0 0 17.16 151.93
  L 17.70 154.50
  L 12.79 144.70
  Q 11.52 137.33 8.45 130.48
  L 7.55 126.80
  C 6.11 113.10 5.45 102.35 7.69 89.90
  C 9.84 77.90 15.13 65.65 20.67 54.45
  Z"
/>
<path fill="#0807f2" fill-opacity="0.447" d="
  M 113.75 55.54
  Q 109.97 59.34 105.77 60.07
  C 99.49 61.16 85.36 65.05 85.24 73.36
  Q 77.30 85.17 85.42 97.14
  Q 87.56 100.30 90.56 102.80
  Q 98.17 106.56 106.69 107.93
  Q 108.29 108.19 112.77 110.19
  L 105.95 107.81
  A 0.03 0.03 0.0 0 0 105.91 107.83
  L 105.84 108.07
  A 0.27 0.27 0.0 0 0 106.03 108.41
  Q 108.56 109.12 110.69 110.33
  A 0.11 0.11 0.0 0 1 110.61 110.53
  Q 107.93 109.72 108.41 110.30
  Q 105.97 109.92 103.39 109.68
  C 92.60 108.67 84.86 103.09 81.02 92.75
  Q 78.35 85.56 80.34 78.55
  Q 84.51 63.87 98.56 60.09
  C 101.26 59.37 104.68 59.25 107.55 58.94
  Q 110.11 58.66 113.75 55.54
  Z"
/>
<rect fill="#0102fe" fill-opacity="0.294" x="-0.32" y="-6.33" transform="translate(228.37,64.81) rotate(-25.4)" width="0.64" height="12.66" rx="0.26"/>
<path fill="#0102fe" fill-opacity="0.294" d="
  M 218.08 65.69
  L 218.71 67.56
  A 0.13 0.13 0.0 0 1 218.48 67.68
  Q 217.91 66.96 218.08 65.69
  Z"
/>
<path fill="#0001fc" fill-opacity="0.059" d="
  M 196.4370 86.1998
  A 15.59 15.59 0.0 0 1 180.8198 101.7626
  L 177.8198 101.7574
  A 15.59 15.59 0.0 0 1 162.2570 86.1402
  L 162.2630 82.6802
  A 15.59 15.59 0.0 0 1 177.8802 67.1174
  L 180.8802 67.1226
  A 15.59 15.59 0.0 0 1 196.4430 82.7398
  L 196.4370 86.1998
  Z
  M 193.24 74.30
  A 0.20 0.19 -45.9 0 0 193.24 74.01
  Q 185.80 66.99 175.39 67.89
  Q 175.38 67.89 175.39 67.92
  A 0.03 0.02 58.3 0 0 175.41 67.93
  Q 182.90 67.65 188.83 70.92
  A 0.17 0.17 0.0 0 1 188.90 71.14
  L 188.89 71.15
  A 0.17 0.17 0.0 0 1 188.67 71.23
  C 174.56 64.84 160.48 73.42 164.24 89.79
  C 166.36 99.01 176.41 101.65 184.59 99.27
  C 195.99 95.94 197.37 82.22 191.25 73.40
  A 0.25 0.25 0.0 0 1 191.53 73.02
  Q 191.82 73.11 192.85 74.30
  A 0.27 0.27 0.0 0 0 193.24 74.31
  L 193.24 74.30
  Z"
/>
<path fill="#0001fe" fill-opacity="0.169" d="
  M 192.85 74.30
  Q 191.82 73.11 191.53 73.02
  A 0.25 0.25 0.0 0 0 191.25 73.40
  C 197.37 82.22 195.99 95.94 184.59 99.27
  C 176.41 101.65 166.36 99.01 164.24 89.79
  C 160.48 73.42 174.56 64.84 188.67 71.23
  A 0.17 0.17 0.0 0 0 188.89 71.15
  L 188.90 71.14
  A 0.17 0.17 0.0 0 0 188.83 70.92
  Q 182.90 67.65 175.41 67.93
  A 0.03 0.02 58.3 0 1 175.39 67.92
  Q 175.38 67.89 175.39 67.89
  Q 185.80 66.99 193.24 74.01
  A 0.20 0.19 -45.9 0 1 193.24 74.30
  L 193.24 74.31
  A 0.27 0.27 0.0 0 1 192.85 74.30
  Z
  M 165.72 81.87
  L 165.73 87.25
  Q 166.75 92.02 170.00 95.48
  C 176.63 100.35 186.87 99.54 191.47 92.23
  C 196.01 85.03 193.58 74.62 185.30 71.30
  C 176.44 67.76 166.90 71.66 165.72 81.87
  Z"
/>
<path fill="#0001fe" fill-opacity="0.169" d="
  M 127.78 116.67
  C 132.03 122.85 136.38 128.33 144.52 128.04
  Q 145.82 128.05 147.21 128.60
  Q 154.63 130.59 160.26 135.95
  L 162.57 138.86
  C 163.26 142.07 164.80 145.52 165.11 148.32
  C 166.18 157.94 161.69 168.25 152.23 171.49
  C 143.81 174.37 131.83 173.55 129.18 185.31
  Q 127.26 193.81 134.34 200.27
  Q 143.14 204.68 151.51 200.07
  L 148.35 202.27
  A 0.21 0.20 17.3 0 0 148.54 202.63
  C 156.53 199.65 157.40 193.80 159.04 186.38
  Q 162.15 172.22 174.98 167.68
  A 0.15 0.04 -22.7 0 0 175.13 167.57
  Q 175.03 167.54 175.02 167.55
  C 165.13 169.78 160.38 176.99 157.48 186.93
  C 159.68 176.48 166.07 168.75 176.26 166.54
  C 183.43 164.98 189.44 164.19 193.64 156.89
  L 190.11 162.44
  A 0.25 0.22 -54.6 0 0 190.14 162.74
  L 190.15 162.75
  A 0.18 0.18 0.0 0 0 190.40 162.73
  C 197.81 155.04 197.03 143.28 187.41 137.97
  C 183.93 136.05 177.22 135.30 173.54 133.98
  Q 167.55 131.84 161.97 126.05
  C 159.03 121.13 158.38 116.98 157.44 112.20
  C 156.37 106.75 154.46 103.00 150.56 99.83
  A 2.08 2.08 0.0 0 1 150.30 96.86
  Q 152.88 93.86 154.26 89.81
  C 155.06 82.61 154.27 75.46 147.26 71.81
  C 142.71 69.44 134.98 69.73 131.05 73.38
  C 124.85 79.12 125.76 89.32 130.84 95.32
  C 132.86 97.70 133.69 99.43 132.33 102.14
  Q 131.01 104.78 128.98 107.02
  Q 128.98 103.84 131.72 100.63
  A 0.93 0.92 -47.6 0 0 131.67 99.37
  Q 130.31 98.05 128.55 95.95
  C 123.81 90.28 123.62 81.89 126.84 75.88
  C 131.86 66.48 146.74 65.91 153.40 74.06
  C 158.95 80.84 156.32 90.71 152.21 97.36
  A 1.51 1.51 0.0 0 0 152.42 99.23
  Q 155.43 102.24 157.16 105.35
  C 159.22 109.08 159.71 115.07 160.81 118.72
  Q 163.58 127.92 171.91 132.12
  C 175.92 134.14 182.52 134.50 186.07 135.92
  Q 192.15 138.38 194.69 143.12
  C 199.17 151.45 196.48 161.96 187.73 166.30
  C 184.03 168.14 178.16 168.57 174.84 169.75
  Q 165.92 172.92 161.96 180.72
  C 159.57 185.42 159.70 191.50 157.32 196.10
  C 152.87 204.68 142.55 207.37 134.56 202.34
  Q 126.88 197.50 127.96 186.49
  C 128.85 177.40 137.73 172.33 146.28 171.95
  Q 147.55 171.89 150.71 170.66
  C 159.47 167.25 164.24 159.83 164.06 150.36
  C 163.90 142.29 157.39 134.25 150.36 131.59
  C 141.27 128.15 130.99 129.13 127.78 116.67
  Z
  M 138.79 202.94
  L 147.70 203.03
  A 0.07 0.07 0.0 0 0 147.75 203.01
  L 147.92 202.81
  A 0.28 0.28 0.0 0 0 147.68 202.35
  L 138.79 202.94
  Q 137.63 201.96 136.36 201.71
  A 0.15 0.15 0.0 0 0 136.24 201.97
  Q 137.32 202.80 138.79 202.94
  Z"
/>
<path fill="#0001fe" fill-opacity="0.169" d="
  M 114.79 71.71
  L 116.20 72.50
  C 121.02 80.20 122.62 87.91 116.41 95.41
  C 110.05 103.08 96.72 101.85 91.49 93.28
  Q 86.13 84.49 91.67 75.67
  C 96.48 68.00 107.44 67.66 114.79 71.71
  Z
  M 118.1282 78.2228
  A 14.46 14.39 -26.7 0 0 98.7443 71.8644
  A 14.46 14.39 -26.7 0 0 92.2918 91.2172
  A 14.46 14.39 -26.7 0 0 111.6757 97.5756
  A 14.46 14.39 -26.7 0 0 118.1282 78.2228
  Z"
/>
<path fill="#0102fe" fill-opacity="0.294" d="
  M 222.42 77.77
  Q 222.55 78.02 222.66 78.32
  Q 222.55 78.02 222.42 77.77
  Q 222.59 76.79 222.36 75.73
  A 0.32 0.11 79.5 0 1 222.41 75.37
  Q 222.46 75.37 222.51 75.54
  Q 224.23 81.91 224.90 86.59
  A 0.14 0.09 58.3 0 1 224.90 86.66
  Q 224.89 86.66 224.89 86.67
  A 0.01 0.00 -38.0 0 1 224.88 86.67
  Q 224.10 84.03 223.87 81.30
  A 0.22 0.22 0.0 0 0 223.63 81.10
  L 223.62 81.11
  A 0.20 0.20 0.0 0 0 223.44 81.35
  L 227.90 102.55
  L 227.88 109.71
  L 227.13 103.33
  A 0.18 0.17 84.8 0 0 226.95 103.17
  A 0.17 0.17 0.0 0 0 226.78 103.34
  Q 226.74 115.58 224.43 128.43
  Q 223.72 132.43 222.02 139.30
  A 0.21 0.21 0.0 0 0 222.23 139.56
  L 222.56 139.56
  A 0.30 0.29 -85.4 0 0 222.85 139.31
  Q 223.68 133.90 225.35 128.81
  Q 225.36 128.78 225.38 128.75
  Q 225.35 128.80 225.17 129.19
  A 0.24 0.23 28.6 0 0 225.26 129.48
  Q 225.46 129.60 225.76 129.27
  L 223.99 137.48
  Q 222.46 139.69 221.88 141.21
  C 215.09 158.95 206.89 175.33 191.53 188.41
  Q 187.99 191.42 184.37 195.22
  A 0.21 0.21 0.0 0 0 184.60 195.56
  L 187.05 194.56
  L 182.02 198.72
  L 182.43 197.70
  A 0.21 0.20 -58.8 0 0 182.37 197.45
  Q 182.17 197.30 181.85 197.41
  Q 181.66 197.49 181.46 197.89
  Q 181.03 198.77 180.38 198.51
  A 0.42 0.42 0.0 0 0 180.01 198.53
  Q 173.74 202.02 168.18 205.53
  C 158.60 211.58 147.79 215.24 136.77 217.41
  Q 136.57 216.86 137.72 216.16
  L 141.80 215.28
  Q 145.19 214.41 148.35 213.02
  A 0.06 0.06 0.0 0 0 148.32 212.91
  L 145.30 213.47
  L 163.71 206.30
  L 172.80 200.97
  Q 173.34 200.78 173.65 200.50
  C 182.83 195.09 189.35 189.08 196.90 181.33
  Q 201.35 176.76 204.64 171.86
  C 214.83 156.64 222.27 141.20 223.85 123.37
  A 0.01 0.01 0.0 0 0 223.84 123.36
  L 223.83 123.36
  A 0.05 0.03 76.7 0 0 223.82 123.39
  C 223.21 126.73 222.55 130.06 221.88 133.38
  Q 223.57 123.35 224.59 113.24
  Q 224.48 113.07 224.58 112.95
  A 0.10 0.10 0.0 0 1 224.76 113.03
  L 223.87 122.60
  A 0.17 0.15 15.7 0 0 223.97 122.76
  L 224.00 122.76
  A 0.18 0.18 0.0 0 0 224.21 122.60
  Q 225.98 107.87 225.26 101.77
  C 224.22 92.83 223.89 83.50 220.44 74.88
  L 219.37 69.72
  A 0.12 0.11 -61.5 0 1 219.59 69.65
  L 222.42 77.77
  Z"
/>
<path fill="#0102fe" fill-opacity="0.294" d="
  M 170.00 95.48
  C 177.91 99.24 188.69 98.42 191.82 89.13
  C 194.73 80.50 190.13 72.31 180.75 71.55
  Q 168.17 70.53 167.06 81.00
  L 167.13 87.95
  Q 166.07 84.44 166.12 80.14
  Q 166.03 81.60 165.81 82.97
  A 0.04 0.04 0.0 0 1 165.73 82.97
  Q 165.63 82.28 165.72 81.87
  C 166.90 71.66 176.44 67.76 185.30 71.30
  C 193.58 74.62 196.01 85.03 191.47 92.23
  C 186.87 99.54 176.63 100.35 170.00 95.48
  Z"
/>
<path fill="#0102fe" fill-opacity="0.294" d="
  M 154.26 89.81
  Q 153.61 91.74 152.27 92.37
  A 0.24 0.24 0.0 0 1 151.93 92.11
  L 152.85 87.22
  L 153.08 84.53
  C 155.34 69.77 133.54 66.30 128.96 78.42
  C 126.86 83.99 127.51 90.94 132.31 94.94
  Q 133.73 96.12 137.12 98.50
  A 0.68 0.67 35.7 0 1 137.28 99.46
  Q 134.95 102.60 131.94 106.78
  C 127.98 112.28 130.04 121.10 136.02 124.49
  Q 139.21 126.29 144.52 128.04
  C 136.38 128.33 132.03 122.85 127.78 116.67
  L 128.98 107.02
  Q 131.01 104.78 132.33 102.14
  C 133.69 99.43 132.86 97.70 130.84 95.32
  C 125.76 89.32 124.85 79.12 131.05 73.38
  C 134.98 69.73 142.71 69.44 147.26 71.81
  C 154.27 75.46 155.06 82.61 154.26 89.81
  Z"
/>
<path fill="#0102fe" fill-opacity="0.294" d="
  M 118.1282 78.2228
  A 14.46 14.39 -26.7 0 1 111.6757 97.5756
  A 14.46 14.39 -26.7 0 1 92.2918 91.2172
  A 14.46 14.39 -26.7 0 1 98.7443 71.8644
  A 14.46 14.39 -26.7 0 1 118.1282 78.2228
  Z
  M 115.21 77.27
  Q 113.79 75.15 111.75 73.87
  Q 112.00 73.18 112.40 73.23
  A 0.26 0.26 0.0 0 0 112.52 72.72
  C 105.75 70.50 98.57 70.65 94.32 76.95
  C 86.92 87.92 96.71 100.23 109.16 96.86
  C 117.44 94.62 121.03 83.83 115.21 77.27
  Z"
/>
<path fill="#0807f2" fill-opacity="0.447" d="
  M 153.08 84.53
  Q 152.63 77.12 147.11 73.81
  C 133.55 65.69 120.86 84.99 133.23 94.53
  Q 136.62 97.15 141.28 96.92
  Q 149.74 96.52 152.85 87.22
  L 151.93 92.11
  A 0.24 0.24 0.0 0 0 152.27 92.37
  Q 153.61 91.74 154.26 89.81
  Q 152.88 93.86 150.30 96.86
  A 2.08 2.08 0.0 0 0 150.56 99.83
  C 154.46 103.00 156.37 106.75 157.44 112.20
  C 158.38 116.98 159.03 121.13 161.97 126.05
  Q 166.40 132.92 173.40 135.62
  C 177.42 137.17 182.54 137.03 186.12 138.65
  Q 196.68 143.45 193.64 156.89
  C 189.44 164.19 183.43 164.98 176.26 166.54
  C 166.07 168.75 159.68 176.48 157.48 186.93
  Q 156.71 192.82 153.12 196.75
  Q 155.23 193.58 155.37 191.54
  C 155.57 188.69 155.69 185.17 156.49 182.52
  Q 161.06 167.39 176.92 164.06
  A 6.90 6.72 -50.5 0 1 178.19 163.92
  Q 183.46 163.88 185.75 162.99
  C 197.15 158.55 195.37 139.24 182.48 138.69
  C 178.30 138.51 174.15 138.07 170.12 136.10
  Q 159.31 130.81 156.30 118.92
  C 155.75 116.72 155.60 113.77 155.43 111.05
  A 3.51 3.26 37.2 0 0 155.29 110.24
  C 153.33 103.24 146.94 99.42 139.81 101.31
  Q 132.28 103.30 130.70 112.30
  Q 130.58 112.63 130.64 113.25
  Q 131.41 122.13 138.80 124.95
  Q 140.47 125.59 145.90 126.18
  C 167.93 128.58 176.31 156.13 159.35 170.49
  Q 152.75 176.08 142.25 176.46
  Q 138.72 176.59 135.29 179.30
  L 140.15 175.94
  A 0.19 0.16 -29.4 0 0 140.23 175.72
  L 140.23 175.71
  A 0.16 0.16 0.0 0 0 140.03 175.62
  L 136.83 176.85
  A 0.39 0.12 -28.2 0 1 136.68 176.88
  L 136.60 176.88
  A 0.03 0.02 30.2 0 1 136.58 176.83
  Q 136.90 176.68 137.15 176.39
  A 1.11 1.10 15.4 0 1 137.77 176.04
  C 150.88 173.75 162.01 171.45 165.65 156.74
  Q 168.27 146.12 162.57 138.86
  L 160.26 135.95
  Q 155.50 129.32 147.21 128.60
  Q 145.82 128.05 144.52 128.04
  Q 139.21 126.29 136.02 124.49
  C 130.04 121.10 127.98 112.28 131.94 106.78
  Q 134.95 102.60 137.28 99.46
  A 0.68 0.67 35.7 0 0 137.12 98.50
  Q 133.73 96.12 132.31 94.94
  C 127.51 90.94 126.86 83.99 128.96 78.42
  C 133.54 66.30 155.34 69.77 153.08 84.53
  Z
  M 151.03 100.95
  L 154.73 105.64
  A 0.21 0.20 -47.4 0 0 155.06 105.62
  Q 155.19 105.41 154.96 105.30
  Q 154.95 105.30 154.82 105.14
  Q 153.08 102.96 151.03 100.95
  Q 148.72 99.46 149.42 96.67
  A 0.31 0.31 0.0 0 0 148.92 96.36
  C 146.91 98.09 148.77 100.53 151.03 100.95
  Z"
/>
<path fill="#0807f2" fill-opacity="0.447" d="
  M 111.75 73.87
  C 105.68 70.18 98.62 71.98 94.73 77.58
  Q 91.81 81.77 93.04 87.37
  C 95.77 99.83 113.17 100.26 116.89 88.13
  Q 118.59 82.56 115.21 77.27
  C 121.03 83.83 117.44 94.62 109.16 96.86
  C 96.71 100.23 86.92 87.92 94.32 76.95
  C 98.57 70.65 105.75 70.50 112.52 72.72
  A 0.26 0.26 0.0 0 1 112.40 73.23
  Q 112.00 73.18 111.75 73.87
  Z"
/>
<path fill="#0807f2" fill-opacity="0.447" d="
  M 170.00 95.48
  L 165.73 87.25
  L 165.72 81.87
  Q 165.63 82.28 165.73 82.97
  A 0.04 0.04 0.0 0 0 165.81 82.97
  Q 166.03 81.60 166.12 80.14
  Q 166.07 84.44 167.13 87.95
  Q 170.42 96.06 177.97 96.93
  C 187.86 98.06 194.25 88.06 190.64 79.40
  C 188.63 74.56 183.50 71.49 178.12 72.06
  Q 170.69 72.84 167.06 81.00
  Q 168.17 70.53 180.75 71.55
  C 190.13 72.31 194.73 80.50 191.82 89.13
  C 188.69 98.42 177.91 99.24 170.00 95.48
  Z"
/>
<path fill="#0102fe" fill-opacity="0.294" d="
  M 226.59 174.00
  Q 234.60 158.46 238.75 139.61
  Q 240.29 132.62 240.33 128.16
  C 240.39 119.30 240.78 109.88 239.64 101.46
  Q 237.93 88.76 233.47 76.58
  L 231.92 72.12
  A 0.06 0.05 -20.8 0 1 231.95 72.06
  L 232.22 71.91
  A 0.26 0.26 0.0 0 1 232.59 72.04
  Q 240.33 92.03 241.10 108.24
  Q 241.62 119.46 241.21 129.66
  Q 240.95 135.83 239.37 141.65
  C 236.14 153.50 233.02 163.25 227.44 174.50
  A 0.41 0.41 0.0 0 1 226.68 174.40
  L 226.59 174.00
  Z"
/>
<path fill="#51bb89" d="
  M 111.75 73.87
  Q 113.79 75.15 115.21 77.27
  Q 118.59 82.56 116.89 88.13
  C 113.17 100.26 95.77 99.83 93.04 87.37
  Q 91.81 81.77 94.73 77.58
  C 98.62 71.98 105.68 70.18 111.75 73.87
  Z"
/>
<path fill="#51bb89" d="
  M 153.08 84.53
  L 152.85 87.22
  Q 149.74 96.52 141.28 96.92
  Q 136.62 97.15 133.23 94.53
  C 120.86 84.99 133.55 65.69 147.11 73.81
  Q 152.63 77.12 153.08 84.53
  Z"
/>
<path fill="#51bb89" d="
  M 167.13 87.95
  L 167.06 81.00
  Q 170.69 72.84 178.12 72.06
  C 183.50 71.49 188.63 74.56 190.64 79.40
  C 194.25 88.06 187.86 98.06 177.97 96.93
  Q 170.42 96.06 167.13 87.95
  Z"
/>
<path fill="#0102fe" fill-opacity="0.294" d="
  M 85.24 73.36
  Q 78.74 89.29 90.13 101.30
  A 0.18 0.18 0.0 0 1 90.10 101.57
  Q 89.96 101.68 89.83 101.69
  A 0.03 0.03 0.0 0 0 89.82 101.75
  Q 90.39 102.14 90.56 102.80
  Q 87.56 100.30 85.42 97.14
  Q 77.30 85.17 85.24 73.36
  Z"
/>
<path fill="#0807f2" fill-opacity="0.447" d="
  M 222.42 77.77
  Q 222.55 78.02 222.66 78.32
  Q 222.55 78.02 222.42 77.77
  Z"
/>
<path fill="#0102fe" fill-opacity="0.294" d="
  M 170.00 95.48
  Q 166.75 92.02 165.73 87.25
  L 170.00 95.48
  Z"
/>
<path fill="#0102fe" fill-opacity="0.294" d="
  M 151.03 100.95
  C 148.77 100.53 146.91 98.09 148.92 96.36
  A 0.31 0.31 0.0 0 1 149.42 96.67
  Q 148.72 99.46 151.03 100.95
  Z"
/>
<path fill="#0807f2" fill-opacity="0.447" d="
  M 116.68 126.47
  Q 115.62 129.64 113.11 133.81
  Q 112.13 135.44 112.10 137.96
  L 114.47 140.10
  L 115.36 141.30
  Q 108.28 136.52 101.24 140.16
  Q 101.09 139.86 101.25 139.54
  A 0.24 0.24 0.0 0 0 100.87 139.27
  L 98.53 141.61
  A 0.19 0.19 0.0 0 1 98.23 141.38
  L 100.38 137.67
  A 1.03 1.03 0.0 0 0 100.15 136.38
  C 95.42 132.33 92.10 129.31 90.72 122.86
  Q 90.08 119.83 89.04 115.44
  Q 86.29 103.77 74.47 100.37
  Q 69.75 99.01 65.23 97.21
  C 80.15 96.20 92.01 107.48 92.50 122.22
  C 92.77 130.45 99.06 135.98 107.23 134.59
  Q 113.70 133.49 116.68 126.47
  Z"
/>
<path fill="#eb6725" d="
  M 153.12 196.75
  Q 152.84 196.94 152.69 197.18
  C 142.68 208.21 125.99 196.78 131.96 183.33
  L 135.29 179.30
  Q 138.72 176.59 142.25 176.46
  Q 152.75 176.08 159.35 170.49
  C 176.31 156.13 167.93 128.58 145.90 126.18
  Q 140.47 125.59 138.80 124.95
  Q 131.41 122.13 130.64 113.25
  Q 130.80 112.73 130.70 112.30
  Q 132.28 103.30 139.81 101.31
  C 146.94 99.42 153.33 103.24 155.29 110.24
  A 3.51 3.26 37.2 0 1 155.43 111.05
  C 155.60 113.77 155.75 116.72 156.30 118.92
  Q 159.31 130.81 170.12 136.10
  C 174.15 138.07 178.30 138.51 182.48 138.69
  C 195.37 139.24 197.15 158.55 185.75 162.99
  Q 183.46 163.88 178.19 163.92
  A 6.90 6.72 -50.5 0 0 176.92 164.06
  Q 161.06 167.39 156.49 182.52
  C 155.69 185.17 155.57 188.69 155.37 191.54
  Q 155.23 193.58 153.12 196.75
  Z"
/>
<path fill="#0102fe" fill-opacity="0.294" d="
  M 151.03 100.95
  Q 153.08 102.96 154.82 105.14
  Q 154.95 105.30 154.96 105.30
  Q 155.19 105.41 155.06 105.62
  A 0.21 0.20 -47.4 0 1 154.73 105.64
  L 151.03 100.95
  Z"
/>
<path fill="#0807f2" fill-opacity="0.447" d="
  M 227.88 109.71
  Q 227.90 119.62 225.76 129.27
  Q 225.46 129.60 225.26 129.48
  A 0.24 0.23 28.6 0 1 225.17 129.19
  Q 225.35 128.80 225.38 128.75
  Q 225.36 128.78 225.35 128.81
  Q 223.68 133.90 222.85 139.31
  A 0.30 0.29 -85.4 0 1 222.56 139.56
  L 222.23 139.56
  A 0.21 0.21 0.0 0 1 222.02 139.30
  Q 223.72 132.43 224.43 128.43
  Q 226.74 115.58 226.78 103.34
  A 0.17 0.17 0.0 0 1 226.95 103.17
  A 0.18 0.17 84.8 0 1 227.13 103.33
  L 227.88 109.71
  Z"
/>
<path fill="#0102fe" fill-opacity="0.294" d="
  M 112.77 110.19
  Q 124.95 122.32 113.52 134.91
  A 1.59 1.59 0.0 0 0 113.74 137.25
  L 116.55 139.37
  A 0.21 0.21 0.0 0 1 116.60 139.64
  L 116.45 139.90
  A 0.08 0.07 24.7 0 1 116.35 139.93
  L 112.10 137.96
  Q 112.13 135.44 113.11 133.81
  Q 115.62 129.64 116.68 126.47
  L 117.19 124.28
  Q 118.13 118.53 114.39 114.29
  Q 112.19 111.82 108.41 110.30
  Q 107.93 109.72 110.61 110.53
  A 0.11 0.11 0.0 0 0 110.69 110.33
  Q 108.56 109.12 106.03 108.41
  A 0.27 0.27 0.0 0 1 105.84 108.07
  L 105.91 107.83
  A 0.03 0.03 0.0 0 1 105.95 107.81
  L 112.77 110.19
  Z"
/>
<path fill="#51bb89" d="
  M 130.70 112.30
  Q 130.80 112.73 130.64 113.25
  Q 130.58 112.63 130.70 112.30
  Z"
/>
<path fill="#0807f2" fill-opacity="0.447" d="
  M 117.19 124.28
  Q 117.85 118.86 114.39 114.29
  Q 118.13 118.53 117.19 124.28
  Z"
/>
<path fill="#0102fe" fill-opacity="0.294" d="
  M 193.64 156.89
  Q 196.68 143.45 186.12 138.65
  C 182.54 137.03 177.42 137.17 173.40 135.62
  Q 166.40 132.92 161.97 126.05
  Q 167.55 131.84 173.54 133.98
  C 177.22 135.30 183.93 136.05 187.41 137.97
  C 197.03 143.28 197.81 155.04 190.40 162.73
  A 0.18 0.18 0.0 0 1 190.15 162.75
  L 190.14 162.74
  A 0.25 0.22 -54.6 0 1 190.11 162.44
  L 193.64 156.89
  Z"
/>
<path fill="#0102fe" fill-opacity="0.294" d="
  M 160.26 135.95
  Q 154.63 130.59 147.21 128.60
  Q 155.50 129.32 160.26 135.95
  Z"
/>
<path fill="#0001fe" fill-opacity="0.169" d="
  M 12.79 144.70
  Q 9.62 137.92 8.45 130.48
  Q 11.52 137.33 12.79 144.70
  Z"
/>
<path fill="#0001fc" fill-opacity="0.059" d="
  M 85.33 157.66
  Q 83.56 160.30 83.46 160.46
  C 78.91 168.01 69.35 169.36 61.52 166.71
  C 54.56 164.36 51.77 158.19 51.71 150.94
  C 51.61 137.16 65.50 129.52 77.04 136.15
  C 84.73 140.57 86.99 148.10 85.66 156.80
  A 2.24 2.11 -25.7 0 1 85.33 157.66
  Z
  M 53.41 153.03
  C 54.08 158.53 55.44 162.19 60.34 165.14
  C 66.02 168.57 74.34 167.68 78.99 163.35
  Q 83.92 158.76 84.22 151.72
  C 84.77 138.68 69.75 130.10 59.24 138.47
  C 54.89 141.92 52.73 147.55 53.41 153.03
  Z"
/>
<path fill="#0001fe" fill-opacity="0.169" d="
  M 131.32 161.12
  L 136.29 164.03
  L 138.33 165.19
  L 145.07 165.84
  A 4.47 4.46 35.7 0 0 147.35 165.47
  Q 159.55 159.94 157.27 146.56
  A 0.22 0.21 81.0 0 0 157.04 146.39
  L 157.03 146.39
  A 0.19 0.19 0.0 0 0 156.87 146.59
  Q 157.22 150.84 156.88 155.11
  Q 157.37 150.09 155.97 145.34
  L 150.80 139.32
  C 142.56 133.76 132.47 137.29 128.80 146.34
  L 128.47 146.49
  A 0.32 0.32 0.0 0 1 128.03 146.12
  C 130.97 134.19 146.02 131.15 154.21 139.99
  C 165.56 152.26 154.72 171.79 137.74 166.39
  C 130.59 164.11 127.67 158.29 126.78 151.23
  A 0.21 0.20 -9.5 0 1 126.94 151.01
  A 0.23 0.22 -15.0 0 1 127.21 151.16
  Q 127.71 152.82 128.14 154.51
  Q 129.06 158.12 131.32 161.12
  Z
  M 154.99 143.13
  Q 155.88 144.37 156.80 145.80
  A 0.15 0.15 0.0 0 0 157.06 145.79
  Q 157.14 145.63 157.05 145.44
  Q 156.41 144.00 155.52 142.76
  Q 154.63 141.52 153.47 140.44
  Q 153.32 140.30 153.14 140.32
  A 0.15 0.15 0.0 0 0 153.05 140.56
  Q 154.11 141.90 154.99 143.13
  Z"
/>
<path fill="#0001fe" fill-opacity="0.169" d="
  M 60.34 165.14
  C 55.44 162.19 54.08 158.53 53.41 153.03
  C 52.73 147.55 54.89 141.92 59.24 138.47
  C 69.75 130.10 84.77 138.68 84.22 151.72
  Q 83.92 158.76 78.99 163.35
  C 74.34 167.68 66.02 168.57 60.34 165.14
  Z
  M 83.49 151.33
  A 14.62 14.62 0.0 0 0 68.87 136.71
  A 14.62 14.62 0.0 0 0 54.25 151.33
  A 14.62 14.62 0.0 0 0 68.87 165.95
  A 14.62 14.62 0.0 0 0 83.49 151.33
  Z"
/>
<path fill="#0102fe" fill-opacity="0.294" d="
  M 83.49 151.33
  A 14.62 14.62 0.0 0 1 68.87 165.95
  A 14.62 14.62 0.0 0 1 54.25 151.33
  A 14.62 14.62 0.0 0 1 68.87 136.71
  A 14.62 14.62 0.0 0 1 83.49 151.33
  Z
  M 60.01 142.00
  L 57.85 144.93
  Q 58.20 144.20 57.92 143.36
  A 0.24 0.24 0.0 0 0 57.45 143.39
  C 57.16 145.15 55.88 146.15 55.65 147.88
  C 54.41 157.11 59.01 164.61 68.92 164.49
  Q 76.34 164.41 78.52 159.03
  Q 80.53 156.24 81.10 153.03
  C 81.76 150.49 81.99 145.67 80.13 143.35
  C 75.48 137.55 64.83 134.89 60.01 142.00
  Z"
/>
<path fill="#0102fe" fill-opacity="0.294" d="
  M 150.80 139.32
  Q 143.01 136.83 135.33 138.79
  A 0.87 0.81 -71.4 0 0 134.94 139.00
  L 131.08 142.56
  A 0.04 0.04 0.0 0 0 131.08 142.62
  L 131.27 142.81
  A 0.14 0.14 0.0 0 0 131.47 142.81
  L 134.84 139.45
  A 0.22 0.21 22.4 0 1 135.02 139.38
  L 135.35 139.41
  A 0.20 0.20 0.0 0 1 135.48 139.75
  C 130.74 144.87 128.12 151.43 131.75 157.95
  C 134.98 163.74 140.16 164.65 146.27 164.62
  A 0.30 0.30 0.0 0 1 146.57 164.90
  L 146.57 164.98
  A 0.30 0.30 0.0 0 1 146.28 165.30
  Q 141.16 165.42 136.29 164.03
  L 131.32 161.12
  Q 127.09 154.18 128.80 146.34
  C 132.47 137.29 142.56 133.76 150.80 139.32
  Z"
/>
<path fill="#0807f2" fill-opacity="0.447" d="
  M 81.10 153.03
  Q 81.99 145.32 76.48 141.28
  Q 68.30 135.29 60.01 142.00
  C 64.83 134.89 75.48 137.55 80.13 143.35
  C 81.99 145.67 81.76 150.49 81.10 153.03
  Z"
/>
<path fill="#0807f2" fill-opacity="0.447" d="
  M 150.80 139.32
  L 155.97 145.34
  C 157.19 152.26 156.23 158.19 150.32 162.67
  Q 148.64 163.95 146.90 165.18
  A 1.35 1.34 28.1 0 1 146.10 165.42
  L 138.33 165.19
  L 136.29 164.03
  Q 141.16 165.42 146.28 165.30
  A 0.30 0.30 0.0 0 0 146.57 164.98
  L 146.57 164.90
  A 0.30 0.30 0.0 0 0 146.27 164.62
  C 140.16 164.65 134.98 163.74 131.75 157.95
  C 128.12 151.43 130.74 144.87 135.48 139.75
  A 0.20 0.20 0.0 0 0 135.35 139.41
  L 135.02 139.38
  A 0.22 0.21 22.4 0 0 134.84 139.45
  L 131.47 142.81
  A 0.14 0.14 0.0 0 1 131.27 142.81
  L 131.08 142.62
  A 0.04 0.04 0.0 0 1 131.08 142.56
  L 134.94 139.00
  A 0.87 0.81 -71.4 0 1 135.33 138.79
  Q 143.01 136.83 150.80 139.32
  Z
  M 155.50 151.13
  A 12.48 12.48 0.0 0 0 143.02 138.65
  A 12.48 12.48 0.0 0 0 130.54 151.13
  A 12.48 12.48 0.0 0 0 143.02 163.61
  A 12.48 12.48 0.0 0 0 155.50 151.13
  Z"
/>
<path fill="#0807f2" fill-opacity="0.447" d="
  M 223.99 137.48
  C 217.94 160.18 205.02 179.54 187.05 194.56
  L 184.60 195.56
  A 0.21 0.21 0.0 0 1 184.37 195.22
  Q 187.99 191.42 191.53 188.41
  C 206.89 175.33 215.09 158.95 221.88 141.21
  Q 222.46 139.69 223.99 137.48
  Z"
/>
<path fill="#0102fe" fill-opacity="0.294" d="
  M 162.57 138.86
  Q 168.27 146.12 165.65 156.74
  C 162.01 171.45 150.88 173.75 137.77 176.04
  A 1.11 1.10 15.4 0 0 137.15 176.39
  Q 136.90 176.68 136.58 176.83
  A 0.03 0.02 30.2 0 0 136.60 176.88
  L 136.68 176.88
  A 0.39 0.12 -28.2 0 0 136.83 176.85
  L 140.03 175.62
  A 0.16 0.16 0.0 0 1 140.23 175.71
  L 140.23 175.72
  A 0.19 0.16 -29.4 0 1 140.15 175.94
  L 135.29 179.30
  L 131.96 183.33
  Q 127.71 191.96 134.34 200.27
  Q 127.26 193.81 129.18 185.31
  C 131.83 173.55 143.81 174.37 152.23 171.49
  C 161.69 168.25 166.18 157.94 165.11 148.32
  C 164.80 145.52 163.26 142.07 162.57 138.86
  Z"
/>
<path fill="#eb6725" d="
  M 115.36 141.30
  L 116.22 142.26
  C 121.86 147.78 120.71 156.62 114.78 161.36
  A 3.97 3.79 -74.9 0 1 113.94 161.87
  Q 102.68 166.98 95.99 156.69
  C 93.79 150.58 95.38 143.56 101.24 140.16
  Q 108.28 136.52 115.36 141.30
  Z"
/>
<circle fill="#eb6725" cx="143.02" cy="151.13" r="12.48"/>
<path fill="#eb6725" d="
  M 81.10 153.03
  Q 80.53 156.24 78.52 159.03
  C 68.13 170.32 51.39 159.16 57.85 144.93
  L 60.01 142.00
  Q 68.30 135.29 76.48 141.28
  Q 81.99 145.32 81.10 153.03
  Z"
/>
<path fill="#0102fe" fill-opacity="0.294" d="
  M 115.36 141.30
  L 114.47 140.10
  C 118.42 140.42 120.44 144.74 121.34 148.11
  A 0.41 0.05 74.2 0 1 121.40 148.48
  Q 121.38 148.51 121.37 148.53
  A 0.16 0.08 60.3 0 1 121.19 148.41
  Q 119.29 143.67 115.36 141.30
  Z"
/>
<path fill="#0102fe" fill-opacity="0.294" d="
  M 155.52 142.76
  Q 156.41 144.00 157.05 145.44
  Q 157.14 145.63 157.06 145.79
  A 0.15 0.15 0.0 0 1 156.80 145.80
  Q 155.88 144.37 154.99 143.13
  Q 154.11 141.90 153.05 140.56
  A 0.15 0.15 0.0 0 1 153.14 140.32
  Q 153.32 140.30 153.47 140.44
  Q 154.63 141.52 155.52 142.76
  Z"
/>
<path fill="#0807f2" fill-opacity="0.447" d="
  M 121.25 153.28
  Q 120.57 158.65 116.67 162.48
  Q 108.40 166.21 99.43 162.95
  L 95.99 156.69
  Q 102.68 166.98 113.94 161.87
  A 3.97 3.79 -74.9 0 0 114.78 161.36
  C 120.71 156.62 121.86 147.78 116.22 142.26
  C 120.28 145.32 120.33 148.83 121.25 153.28
  Z
  M 120.0671 157.1111
  A 3.26 0.40 -52.0 0 0 117.7448 159.4337
  A 3.26 0.40 -52.0 0 0 116.0529 162.2489
  A 3.26 0.40 -52.0 0 0 118.3752 159.9263
  A 3.26 0.40 -52.0 0 0 120.0671 157.1111
  Z"
/>
<path fill="#0807f2" fill-opacity="0.447" d="
  M 57.85 144.93
  C 51.39 159.16 68.13 170.32 78.52 159.03
  Q 76.34 164.41 68.92 164.49
  C 59.01 164.61 54.41 157.11 55.65 147.88
  C 55.88 146.15 57.16 145.15 57.45 143.39
  A 0.24 0.24 0.0 0 1 57.92 143.36
  Q 58.20 144.20 57.85 144.93
  Z"
/>
<path fill="#0102fe" fill-opacity="0.294" d="
  M 138.33 165.19
  L 146.10 165.42
  A 1.35 1.34 28.1 0 0 146.90 165.18
  Q 148.64 163.95 150.32 162.67
  C 156.23 158.19 157.19 152.26 155.97 145.34
  Q 157.37 150.09 156.88 155.11
  Q 157.22 150.84 156.87 146.59
  A 0.19 0.19 0.0 0 1 157.03 146.39
  L 157.04 146.39
  A 0.22 0.21 81.0 0 1 157.27 146.56
  Q 159.55 159.94 147.35 165.47
  A 4.47 4.46 35.7 0 1 145.07 165.84
  L 138.33 165.19
  Z"
/>
<path fill="#0102fe" fill-opacity="0.294" d="
  M 121.25 153.28
  L 121.21 149.37
  A 0.15 0.15 0.0 0 1 121.50 149.31
  Q 122.27 151.19 121.25 153.28
  Z"
/>
<path fill="#0001fe" fill-opacity="0.169" d="
  M 17.70 154.50
  L 19.85 158.46
  A 0.15 0.12 -57.4 0 1 19.86 158.55
  Q 19.81 158.76 19.47 158.76
  A 0.04 0.03 75.1 0 1 19.44 158.74
  L 17.70 154.50
  Z"
/>
<ellipse fill="#0102fe" fill-opacity="0.294" cx="0.00" cy="0.00" transform="translate(118.06,159.68) rotate(-52.0)" rx="3.26" ry="0.40"/>
<path fill="#0001fc" fill-opacity="0.059" d="
  M 38.71 183.19
  L 29.33 173.18
  L 38.93 181.77
  L 45.51 184.45
  A 0.54 0.54 0.0 0 0 46.22 184.16
  Q 47.94 180.00 46.39 176.48
  Q 44.15 171.40 39.18 164.50
  Q 39.25 163.99 39.29 163.95
  A 0.56 0.56 0.0 0 1 40.10 164.06
  Q 44.78 170.46 47.64 175.37
  Q 49.69 178.88 49.43 182.97
  A 1.06 1.05 75.4 0 1 48.95 183.80
  Q 43.84 187.23 38.71 183.19
  Z"
/>
<path fill="#0001fe" fill-opacity="0.169" d="
  M 23.54 162.15
  L 26.46 166.32
  Q 31.91 175.07 40.32 181.12
  Q 39.12 181.10 38.93 181.77
  L 29.33 173.18
  L 23.75 165.70
  L 23.54 162.15
  Z"
/>
<path fill="#0102fe" fill-opacity="0.294" d="
  M 116.67 162.48
  Q 108.36 167.74 99.43 162.95
  Q 108.40 166.21 116.67 162.48
  Z"
/>
<path fill="#0102fe" fill-opacity="0.294" d="
  M 41.51 179.69
  Q 42.16 180.13 42.56 180.72
  Q 41.28 180.66 40.32 181.12
  Q 31.91 175.07 26.46 166.32
  C 32.04 172.32 35.45 177.00 41.51 179.69
  Z"
/>
<path fill="#0102fe" fill-opacity="0.294" d="
  M 45.85 180.69
  L 44.27 178.91
  Q 42.01 172.60 38.20 166.79
  Q 44.17 172.89 45.85 180.69
  Z"
/>
<path fill="#0102fe" fill-opacity="0.294" d="
  M 151.51 200.07
  Q 152.39 198.69 152.69 197.18
  Q 152.84 196.94 153.12 196.75
  Q 156.71 192.82 157.48 186.93
  C 160.38 176.99 165.13 169.78 175.02 167.55
  Q 175.03 167.54 175.13 167.57
  A 0.15 0.04 -22.7 0 1 174.98 167.68
  Q 162.15 172.22 159.04 186.38
  C 157.40 193.80 156.53 199.65 148.54 202.63
  A 0.21 0.20 17.3 0 1 148.35 202.27
  L 151.51 200.07
  Z"
/>
<path fill="#0102fe" fill-opacity="0.294" d="
  M 200.96 207.20
  C 209.75 197.83 215.79 191.12 222.15 181.14
  Q 222.92 181.21 223.27 180.32
  Q 223.30 180.26 223.35 180.18
  A 0.01 0.01 0.0 0 1 223.37 180.19
  Q 221.20 185.50 217.73 189.75
  C 211.40 197.52 207.35 203.02 200.96 207.20
  Z"
/>
<path fill="#0807f2" fill-opacity="0.447" d="
  M 131.96 183.33
  C 125.99 196.78 142.68 208.21 152.69 197.18
  Q 152.39 198.69 151.51 200.07
  Q 143.14 204.68 134.34 200.27
  Q 127.71 191.96 131.96 183.33
  Z"
/>
<path fill="#0001fe" fill-opacity="0.169" d="
  M 172.80 200.97
  L 163.71 206.30
  L 162.14 206.61
  A 0.14 0.14 0.0 0 1 162.04 206.35
  Q 170.24 201.86 177.38 196.35
  A 0.23 0.21 -47.4 0 1 177.62 196.33
  Q 177.65 196.35 177.67 196.37
  A 0.08 0.07 -39.3 0 1 177.65 196.47
  L 172.80 200.97
  Z"
/>
<path fill="#0807f2" fill-opacity="0.447" d="
  M 182.02 198.72
  Q 155.36 218.82 121.87 222.07
  Q 83.70 225.77 50.49 207.10
  L 53.44 207.64
  A 3.56 3.40 -25.3 0 1 54.37 207.95
  Q 72.16 216.89 91.89 219.56
  Q 91.90 219.56 91.91 219.56
  Q 91.94 219.56 91.92 219.56
  Q 91.88 219.54 91.84 219.53
  A 0.45 0.26 -26.4 0 0 91.68 219.52
  Q 91.03 219.56 90.42 219.42
  A 0.03 0.02 46.2 0 1 90.42 219.37
  L 91.80 219.13
  L 96.53 219.68
  Q 113.10 222.05 128.32 219.00
  Q 132.80 218.96 136.77 217.41
  C 147.79 215.24 158.60 211.58 168.18 205.53
  Q 173.74 202.02 180.01 198.53
  A 0.42 0.42 0.0 0 1 180.38 198.51
  Q 181.03 198.77 181.46 197.89
  Q 181.66 197.49 181.85 197.41
  Q 182.17 197.30 182.37 197.45
  A 0.21 0.20 -58.8 0 1 182.43 197.70
  L 182.02 198.72
  Z"
/>
<path fill="#0001fc" fill-opacity="0.059" d="
  M 58.55 206.06
  L 56.78 205.57
  L 45.23 201.30
  A 1.02 0.99 35.2 0 0 44.27 201.45
  Q 43.73 201.87 43.45 201.95
  A 1.72 1.63 74.9 0 0 42.30 204.07
  Q 43.67 208.82 47.79 212.19
  Q 50.69 214.58 53.52 217.29
  C 47.24 213.97 39.34 208.71 40.94 200.47
  A 0.84 0.84 0.0 0 1 41.86 199.80
  Q 50.88 200.84 58.55 206.06
  Z"
/>
<path fill="#0102fe" fill-opacity="0.294" d="
  M 138.79 202.94
  Q 137.32 202.80 136.24 201.97
  A 0.15 0.15 0.0 0 1 136.36 201.71
  Q 137.63 201.96 138.79 202.94
  Z"
/>
<path fill="#0102fe" fill-opacity="0.294" d="
  M 138.79 202.94
  L 147.68 202.35
  A 0.28 0.28 0.0 0 1 147.92 202.81
  L 147.75 203.01
  A 0.07 0.07 0.0 0 1 147.70 203.03
  L 138.79 202.94
  Z"
/>
<path fill="#0102fe" fill-opacity="0.294" d="
  M 91.80 219.13
  L 90.42 219.37
  A 0.03 0.02 46.2 0 0 90.42 219.42
  Q 91.03 219.56 91.68 219.52
  A 0.45 0.26 -26.4 0 1 91.84 219.53
  Q 91.88 219.54 91.92 219.56
  Q 91.94 219.56 91.91 219.56
  Q 91.90 219.56 91.89 219.56
  Q 72.16 216.89 54.37 207.95
  A 3.56 3.40 -25.3 0 0 53.44 207.64
  L 50.49 207.10
  L 45.74 204.33
  C 47.99 204.79 50.51 205.33 52.53 206.21
  C 61.83 210.25 70.75 214.04 80.69 216.25
  C 84.02 216.99 88.00 218.42 91.80 219.13
  Z"
/>
<path fill="#0102fe" fill-opacity="0.294" d="
  M 44.96 205.46
  L 51.03 210.22
  Q 54.00 214.08 57.57 216.44
  Q 66.20 222.17 77.74 227.88
  A 0.17 0.17 0.0 0 0 77.98 227.80
  L 77.98 227.79
  A 0.22 0.18 24.0 0 0 77.85 227.53
  L 72.25 225.03
  A 0.01 0.00 -58.3 0 1 72.25 225.02
  L 72.36 224.76
  A 0.14 0.14 0.0 0 1 72.55 224.69
  Q 98.38 236.94 128.38 235.64
  Q 150.30 234.68 167.96 225.80
  Q 169.62 224.44 172.45 223.52
  Q 171.77 223.94 171.46 224.40
  A 0.20 0.20 0.0 0 0 171.70 224.69
  Q 185.40 219.05 197.02 209.63
  C 191.58 216.42 181.09 222.66 173.86 225.86
  C 170.19 227.47 165.62 228.09 162.10 229.96
  Q 159.28 231.45 156.67 232.24
  Q 147.88 234.87 135.86 236.50
  Q 116.62 239.11 97.68 234.62
  Q 90.71 232.97 77.33 228.38
  Q 68.01 225.19 58.99 218.88
  C 51.87 213.90 47.98 211.77 44.96 205.46
  Z"
/>
<path fill="#0001fc" fill-opacity="0.059" d="
  M 58.55 206.06
  Q 59.36 206.06 60.02 206.62
  A 0.15 0.15 0.0 0 1 59.87 206.88
  Q 59.20 206.67 58.55 206.06
  Z"
/>
<path fill="#0807f2" fill-opacity="0.447" d="
  M 167.96 225.80
  Q 150.30 234.68 128.38 235.64
  Q 98.38 236.94 72.55 224.69
  A 0.14 0.14 0.0 0 0 72.36 224.76
  L 72.25 225.02
  A 0.01 0.00 -58.3 0 0 72.25 225.03
  L 77.85 227.53
  A 0.22 0.18 24.0 0 1 77.98 227.79
  L 77.98 227.80
  A 0.17 0.17 0.0 0 1 77.74 227.88
  Q 66.20 222.17 57.57 216.44
  Q 54.00 214.08 51.03 210.22
  Q 76.22 229.61 106.52 233.67
  Q 137.01 237.74 167.96 225.80
  Z"
/>
<path fill="#0001fe" fill-opacity="0.169" d="
  M 141.80 215.28
  L 145.30 213.47
  L 148.32 212.91
  A 0.06 0.06 0.0 0 1 148.35 213.02
  Q 145.19 214.41 141.80 215.28
  Z"
/>
<path fill="#0102fe" fill-opacity="0.294" d="
  M 128.32 219.00
  Q 113.10 222.05 96.53 219.68
  L 128.32 219.00
  Z"
/>
</svg>
