<svg width="128" height="128" viewBox="0 0 128 128" fill="none" xmlns="http://www.w3.org/2000/svg">
<g clip-path="url(#clip0_0_829)">
<path d="M126.739 84.5977L116.02 67.5731L114.969 66.1018C113.287 63.5796 110.555 62.1084 107.613 62.1084L90.3777 61.8982L89.3268 64L68.7291 96.9984L67.6782 98.89L76.2956 112.762C77.9771 115.284 80.7094 116.755 83.6519 116.755H107.823C110.765 116.755 113.708 115.284 115.179 112.762L116.02 111.501L126.739 94.266C128.42 91.1133 128.42 87.5402 126.739 84.5977ZM123.376 91.954L112.657 109.189C112.657 109.189 112.657 109.399 112.447 109.399C112.026 109.819 111.606 109.819 111.396 109.819C111.186 109.819 110.555 109.819 110.135 109.189L99.4155 91.954C99.2053 91.7438 99.2053 91.5337 98.9951 91.3235C98.9951 91.1133 98.785 90.9031 98.785 90.6929C98.5748 89.8522 98.5748 89.0115 98.785 87.9606C98.9951 87.5402 98.9951 87.1199 99.4155 86.6995L110.135 69.6749C110.345 69.2545 110.765 69.0443 110.975 69.0443C111.186 69.0443 111.186 69.0443 111.186 69.0443C111.186 69.0443 111.186 69.0443 111.396 69.0443C111.606 69.0443 112.237 69.0443 112.657 69.6749L123.376 86.6995C124.427 88.3809 124.427 90.2726 123.376 91.954Z" fill="black"/>
<path d="M95.0016 43.1921C96.6831 40.4598 96.6831 36.6765 95.0016 33.9442L84.2824 16.9195L83.4417 15.4483C81.7603 12.9261 79.0279 11.4548 76.0854 11.4548H51.9146C48.9721 11.4548 46.2397 12.9261 44.5583 15.4483L1.26108 84.8079C0.420361 86.069 0 87.7504 0 89.2217C0 90.9031 0.420361 92.3744 1.26108 93.8456L12.821 112.342C14.5025 115.074 17.2348 116.545 20.3875 116.545H44.5583C47.5008 116.545 50.4433 115.074 51.9146 112.552L52.7553 111.08L61.3727 97.2085L86.8046 56.4335L95.0016 43.1921ZM92.4795 38.7783C92.4795 39.619 92.2693 40.4598 91.6387 41.3005L49.3924 108.979C48.9721 109.609 48.3415 109.609 48.1314 109.609C47.9212 109.609 47.2906 109.609 46.8703 108.979L36.1511 91.7438C35.1002 90.2726 35.1002 88.1708 36.1511 86.6995L78.6076 19.0213C79.0279 18.3908 79.6585 18.3908 79.8686 18.3908C80.0788 18.3908 80.7094 18.3908 81.1297 19.0213L91.8489 36.046C92.2693 36.8867 92.4795 37.7274 92.4795 38.7783Z" fill="black"/>
</g>
<defs>
<clipPath id="clip0_0_829">
<rect width="128" height="105.09" fill="white" transform="translate(0 11.4548)"/>
</clipPath>
</defs>
</svg>
