<svg width="128" height="128" viewBox="0 0 128 128" fill="none" xmlns="http://www.w3.org/2000/svg">
<g clip-path="url(#clip0_240_6966)">
<path d="M18.1999 55.6C39.1999 52.2 55.5999 34.8 58.9999 13.8L60.1999 3.80001C60.3999 2.00002 59.3999 -0.199985 57.1999 1.4999e-05C41.3999 1.20002 26.5999 6.40002 18.1999 9.80002C13.9999 11.6 11.3999 15.6 11.3999 20V53C11.3999 55 13.1999 56.4 14.9999 56.2L18.1999 55.6Z" fill="black"/>
<path d="M68.9997 13.8C72.3997 34.8 88.7997 52.2 109.8 55.6L112.8 56.2C114.8 56.6 116.4 55 116.4 53V20C116.4 15.6 113.8 11.6 109.6 9.80003C101.4 6.40003 86.5997 1.20003 70.7997 3.06498e-05C68.7997 -0.199969 67.7997 2.00003 67.9997 3.60003L68.9997 13.8Z" fill="black"/>
<path d="M109.8 64.8C81.1998 70.4 67.7998 89.6 67.7998 125.6C67.7998 127.4 69.5998 128.6 71.1998 127.6C84.3998 118.8 113.4 95.4 116.4 66.4C116.4 62.8 112 64.6 109.8 64.8Z" fill="black"/>
<path d="M18.2001 64.8C46.8001 70.4 60.2001 89.6 60.2001 125.6C60.2001 127.4 58.4001 128.6 56.8001 127.6C43.6001 118.8 14.6001 95.6 11.6001 66.4C11.6001 62.8 16.0001 64.6 18.2001 64.8Z" fill="black"/>
</g>
<defs>
<clipPath id="clip0_240_6966">
<rect width="105.2" height="128" fill="white" transform="translate(11.3999)"/>
</clipPath>
</defs>
</svg>
