<svg width="174" height="35" viewBox="0 0 174 35" fill="none" xmlns="http://www.w3.org/2000/svg">
<path fill-rule="evenodd" clip-rule="evenodd" d="M14.533 6.61152C14.533 6.61152 21.5916 5.37887 24.3746 20.7996C25.3218 26.0479 25.8298 30.1549 27.6889 32.1953C31.4121 36.2815 36.8646 33.7997 36.2908 27.642C35.4307 18.4097 25.5131 4.54872 25.5131 4.54872C25.5131 4.54872 22.4057 3.01217 20.6302 3.39154C18.8548 3.77091 14.533 6.61152 14.533 6.61152Z" fill="url(#paint0_linear_192_1069)"/>
<path fill-rule="evenodd" clip-rule="evenodd" d="M0 34.1995C0 34.1995 8.14571 18.0133 13.789 11.2732C19.4322 4.53317 25.433 4.48306 25.433 4.48306C25.433 4.48306 18.8194 -3.6351 12.2058 1.97746C8.78725 4.87856 3.90292 11.6333 0.893729 22.9494C0.0218119 26.2282 0 34.1995 0 34.1995Z" fill="url(#paint1_linear_192_1069)"/>
<path d="M53.9001 10.9994V25.2464H50.7176V23.4322C50.1827 24.0725 49.5141 24.5705 48.7117 24.9262C47.9094 25.2642 47.0447 25.4332 46.1175 25.4332C44.2098 25.4332 42.7032 24.9085 41.5977 23.8591C40.5101 22.7919 39.9663 21.2177 39.9663 19.1367V10.9994H43.3094V18.6832C43.3094 19.9638 43.5946 20.9243 44.1652 21.5646C44.7536 22.1871 45.5826 22.4984 46.6524 22.4984C47.847 22.4984 48.792 22.1338 49.4873 21.4045C50.2005 20.6575 50.5571 19.5903 50.5571 18.2029V10.9994H53.9001Z" fill="url(#paint2_linear_192_1069)"/>
<path d="M66.8622 24.4727C66.4699 24.7929 65.9885 25.033 65.418 25.193C64.8653 25.3531 64.2769 25.4332 63.6529 25.4332C62.0839 25.4332 60.8714 25.0241 60.0156 24.2059C59.1598 23.3877 58.7319 22.196 58.7319 20.6308V13.7741H56.3784V11.1061H58.7319V7.85114H62.0749V11.1061H65.8994V13.7741H62.0749V20.5508C62.0749 21.2444 62.2443 21.778 62.5831 22.1515C62.9219 22.5073 63.4122 22.6851 64.054 22.6851C64.8029 22.6851 65.4269 22.4895 65.9261 22.0982L66.8622 24.4727Z" fill="url(#paint3_linear_192_1069)"/>
<path d="M75.6897 25.4332C74.2455 25.4332 72.9439 25.1219 71.785 24.4994C70.6261 23.8768 69.7168 23.0142 69.0571 21.9114C68.4152 20.7909 68.0943 19.528 68.0943 18.1229C68.0943 16.7177 68.4152 15.4638 69.0571 14.361C69.7168 13.2583 70.6261 12.3956 71.785 11.7731C72.9439 11.1505 74.2455 10.8393 75.6897 10.8393C77.1517 10.8393 78.4622 11.1505 79.6211 11.7731C80.7801 12.3956 81.6804 13.2583 82.3223 14.361C82.982 15.4638 83.3119 16.7177 83.3119 18.1229C83.3119 19.528 82.982 20.7909 82.3223 21.9114C81.6804 23.0142 80.7801 23.8768 79.6211 24.4994C78.4622 25.1219 77.1517 25.4332 75.6897 25.4332ZM75.6897 22.5784C76.9199 22.5784 77.9362 22.1693 78.7386 21.3511C79.5409 20.533 79.9421 19.4569 79.9421 18.1229C79.9421 16.7889 79.5409 15.7128 78.7386 14.8946C77.9362 14.0764 76.9199 13.6673 75.6897 13.6673C74.4595 13.6673 73.4432 14.0764 72.6408 14.8946C71.8563 15.7128 71.4641 16.7889 71.4641 18.1229C71.4641 19.4569 71.8563 20.533 72.6408 21.3511C73.4432 22.1693 74.4595 22.5784 75.6897 22.5784Z" fill="url(#paint4_linear_192_1069)"/>
<path d="M94.8117 10.8393C96.2024 10.8393 97.4415 11.1417 98.5291 11.7464C99.6346 12.3511 100.499 13.2049 101.123 14.3077C101.747 15.4104 102.059 16.6822 102.059 18.1229C102.059 19.5636 101.747 20.8442 101.123 21.9648C100.499 23.0676 99.6346 23.9213 98.5291 24.5261C97.4415 25.1308 96.2024 25.4332 94.8117 25.4332C93.831 25.4332 92.9306 25.2642 92.1105 24.9262C91.3081 24.5883 90.6306 24.0814 90.0779 23.4055V25.2464H86.8953V5.44995H90.2384V12.7336C90.8089 12.111 91.4775 11.6397 92.2442 11.3195C93.0287 10.9994 93.8845 10.8393 94.8117 10.8393ZM94.4372 22.5784C95.6675 22.5784 96.6748 22.1693 97.4594 21.3511C98.2617 20.533 98.6628 19.4569 98.6628 18.1229C98.6628 16.7889 98.2617 15.7128 97.4594 14.8946C96.6748 14.0764 95.6675 13.6673 94.4372 13.6673C93.6349 13.6673 92.9128 13.8541 92.2709 14.2276C91.6291 14.5834 91.1209 15.0992 90.7465 15.7751C90.3721 16.4509 90.1849 17.2336 90.1849 18.1229C90.1849 19.0122 90.3721 19.7948 90.7465 20.4707C91.1209 21.1466 91.6291 21.6713 92.2709 22.0448C92.9128 22.4006 93.6349 22.5784 94.4372 22.5784Z" fill="url(#paint5_linear_192_1069)"/>
<path d="M111.777 25.4332C110.333 25.4332 109.032 25.1219 107.873 24.4994C106.714 23.8768 105.804 23.0142 105.145 21.9114C104.503 20.7909 104.182 19.528 104.182 18.1229C104.182 16.7177 104.503 15.4638 105.145 14.361C105.804 13.2583 106.714 12.3956 107.873 11.7731C109.032 11.1505 110.333 10.8393 111.777 10.8393C113.239 10.8393 114.55 11.1505 115.709 11.7731C116.868 12.3956 117.768 13.2583 118.41 14.361C119.07 15.4638 119.4 16.7177 119.4 18.1229C119.4 19.528 119.07 20.7909 118.41 21.9114C117.768 23.0142 116.868 23.8768 115.709 24.4994C114.55 25.1219 113.239 25.4332 111.777 25.4332ZM111.777 22.5784C113.008 22.5784 114.024 22.1693 114.826 21.3511C115.629 20.533 116.03 19.4569 116.03 18.1229C116.03 16.7889 115.629 15.7128 114.826 14.8946C114.024 14.0764 113.008 13.6673 111.777 13.6673C110.547 13.6673 109.531 14.0764 108.729 14.8946C107.944 15.7128 107.552 16.7889 107.552 18.1229C107.552 19.4569 107.944 20.533 108.729 21.3511C109.531 22.1693 110.547 22.5784 111.777 22.5784Z" fill="url(#paint6_linear_192_1069)"/>
<path d="M136.681 10.9994V25.2464H133.498V23.4322C132.964 24.0725 132.295 24.5705 131.493 24.9262C130.69 25.2642 129.826 25.4332 128.898 25.4332C126.991 25.4332 125.484 24.9085 124.379 23.8591C123.291 22.7919 122.747 21.2177 122.747 19.1367V10.9994H126.09V18.6832C126.09 19.9638 126.375 20.9243 126.946 21.5646C127.534 22.1871 128.363 22.4984 129.433 22.4984C130.628 22.4984 131.573 22.1338 132.268 21.4045C132.981 20.6575 133.338 19.5903 133.338 18.2029V10.9994H136.681Z" fill="url(#paint7_linear_192_1069)"/>
<path d="M149.419 10.8393C151.22 10.8393 152.664 11.364 153.752 12.4134C154.84 13.4628 155.383 15.0191 155.383 17.0824V25.2464H152.04V17.5092C152.04 16.2642 151.746 15.3304 151.158 14.7079C150.569 14.0675 149.731 13.7474 148.644 13.7474C147.414 13.7474 146.442 14.1209 145.729 14.8679C145.015 15.5972 144.659 16.6555 144.659 18.0428V25.2464H141.316V10.9994H144.498V12.8403C145.051 12.1822 145.747 11.6841 146.585 11.3462C147.422 11.0083 148.367 10.8393 149.419 10.8393Z" fill="url(#paint8_linear_192_1069)"/>
<path d="M174 5.44995V25.2464H170.791V23.4055C170.238 24.0814 169.551 24.5883 168.731 24.9262C167.929 25.2642 167.038 25.4332 166.057 25.4332C164.684 25.4332 163.445 25.1308 162.339 24.5261C161.252 23.9213 160.396 23.0676 159.772 21.9648C159.148 20.8442 158.836 19.5636 158.836 18.1229C158.836 16.6822 159.148 15.4104 159.772 14.3077C160.396 13.2049 161.252 12.3511 162.339 11.7464C163.445 11.1417 164.684 10.8393 166.057 10.8393C167.002 10.8393 167.867 10.9994 168.651 11.3195C169.436 11.6397 170.104 12.1199 170.657 12.7602V5.44995H174ZM166.458 22.5784C167.26 22.5784 167.982 22.4006 168.624 22.0448C169.266 21.6713 169.774 21.1466 170.149 20.4707C170.523 19.7948 170.71 19.0122 170.71 18.1229C170.71 17.2336 170.523 16.4509 170.149 15.7751C169.774 15.0992 169.266 14.5834 168.624 14.2276C167.982 13.8541 167.26 13.6673 166.458 13.6673C165.656 13.6673 164.934 13.8541 164.292 14.2276C163.65 14.5834 163.142 15.0992 162.767 15.7751C162.393 16.4509 162.206 17.2336 162.206 18.1229C162.206 19.0122 162.393 19.7948 162.767 20.4707C163.142 21.1466 163.65 21.6713 164.292 22.0448C164.934 22.4006 165.656 22.5784 166.458 22.5784Z" fill="url(#paint9_linear_192_1069)"/>
<defs>
<linearGradient id="paint0_linear_192_1069" x1="20.4668" y1="-0.226656" x2="9.66237" y2="28.2063" gradientUnits="userSpaceOnUse">
<stop stop-color="#5594C7"/>
<stop offset="1" stop-color="#6FC6EB"/>
</linearGradient>
<linearGradient id="paint1_linear_192_1069" x1="6.92278" y1="-4.27622" x2="-4.7667" y2="27.8352" gradientUnits="userSpaceOnUse">
<stop stop-color="#70C6EB"/>
<stop offset="1" stop-color="#548DC3"/>
</linearGradient>
<linearGradient id="paint2_linear_192_1069" x1="177.189" y1="17.6893" x2="139.434" y2="78.9305" gradientUnits="userSpaceOnUse">
<stop stop-color="#5892CA"/>
<stop offset="1" stop-color="#70C6EB"/>
</linearGradient>
<linearGradient id="paint3_linear_192_1069" x1="177.189" y1="17.6893" x2="139.434" y2="78.9305" gradientUnits="userSpaceOnUse">
<stop stop-color="#5892CA"/>
<stop offset="1" stop-color="#70C6EB"/>
</linearGradient>
<linearGradient id="paint4_linear_192_1069" x1="177.189" y1="17.6893" x2="139.434" y2="78.9305" gradientUnits="userSpaceOnUse">
<stop stop-color="#5892CA"/>
<stop offset="1" stop-color="#70C6EB"/>
</linearGradient>
<linearGradient id="paint5_linear_192_1069" x1="177.189" y1="17.6893" x2="139.434" y2="78.9305" gradientUnits="userSpaceOnUse">
<stop stop-color="#5892CA"/>
<stop offset="1" stop-color="#70C6EB"/>
</linearGradient>
<linearGradient id="paint6_linear_192_1069" x1="177.189" y1="17.6893" x2="139.434" y2="78.9305" gradientUnits="userSpaceOnUse">
<stop stop-color="#5892CA"/>
<stop offset="1" stop-color="#70C6EB"/>
</linearGradient>
<linearGradient id="paint7_linear_192_1069" x1="177.189" y1="17.6893" x2="139.434" y2="78.9305" gradientUnits="userSpaceOnUse">
<stop stop-color="#5892CA"/>
<stop offset="1" stop-color="#70C6EB"/>
</linearGradient>
<linearGradient id="paint8_linear_192_1069" x1="177.189" y1="17.6893" x2="139.434" y2="78.9305" gradientUnits="userSpaceOnUse">
<stop stop-color="#5892CA"/>
<stop offset="1" stop-color="#70C6EB"/>
</linearGradient>
<linearGradient id="paint9_linear_192_1069" x1="177.189" y1="17.6893" x2="139.434" y2="78.9305" gradientUnits="userSpaceOnUse">
<stop stop-color="#5892CA"/>
<stop offset="1" stop-color="#70C6EB"/>
</linearGradient>
</defs>
</svg>
