<svg xmlns="http://www.w3.org/2000/svg" width="108" height="24" viewBox="0 0 108 24" fill="none" class="h-6" style="fill: none !important;"><path d="M10 2V8.1802C10 9.54349 8.32847 10.1999 7.40081 9.20087L3.5 5M20 12H13.8198C12.4565 12 11.8001 10.3285 12.7991 9.40081L17 5.5M10 22V15.8198C10 14.4565 11.6715 13.8001 12.5992 14.7991L16.5 19M0 12L6.1802 12C7.54349 12 8.19989 13.6715 7.20087 14.5992L3 18.5" stroke="#3E73ED" stroke-width="1.75" style="fill: none !important; stroke: rgb(62, 115, 237) !important; stroke-width: 1.75px !important;"/><path d="M31.064 18.788C28.592 18.788 27.128 17.396 27.128 15.356C27.128 13.22 28.76 11.876 31.472 11.66L35.312 11.348V10.964C35.312 8.684 33.944 7.964 32.24 7.964C30.224 7.964 29.024 8.876 29.024 10.436H27.512C27.512 8.084 29.432 6.572 32.288 6.572C34.976 6.572 36.944 7.916 36.944 10.988V18.5H35.552L35.336 16.46C34.616 17.924 33.032 18.788 31.064 18.788ZM31.448 17.444C33.896 17.444 35.312 15.74 35.312 13.22V12.596L31.88 12.86C29.696 13.052 28.808 14.012 28.808 15.308C28.808 16.724 29.864 17.444 31.448 17.444ZM50.8271 6.884H52.4831V18.5H51.0431L50.8271 16.532C50.1791 17.876 48.5711 18.788 46.7471 18.788C44.0111 18.788 42.5231 16.916 42.5231 14.084V6.86H44.2031V13.556C44.2031 16.316 45.4271 17.3 47.2751 17.3C49.5071 17.3 50.8271 15.812 50.8271 13.052V6.884ZM60.9967 18.5H59.3647V8.276H57.0367V6.884H59.3647V3.212H60.9967V6.884H63.3247V8.276H60.9967V18.5ZM66.9479 12.692C66.9479 9.14 69.4439 6.572 72.8519 6.572C76.2599 6.572 78.7559 9.14 78.7559 12.692C78.7559 16.22 76.2599 18.788 72.8519 18.788C69.4439 18.788 66.9479 16.22 66.9479 12.692ZM68.6279 12.668C68.6279 15.404 70.3559 17.3 72.8519 17.3C75.3239 17.3 77.0759 15.404 77.0759 12.668C77.0759 9.98 75.3239 8.06 72.8519 8.06C70.3559 8.06 68.6279 9.98 68.6279 12.668ZM85.4606 18.5H83.8046V6.884H85.2446L85.4366 8.54C86.0126 7.316 87.3086 6.572 88.9406 6.572C90.7646 6.572 92.1326 7.532 92.6846 9.044C93.2126 7.532 94.6286 6.572 96.5006 6.572C99.0206 6.572 100.677 8.204 100.677 10.892V18.5H99.0686V11.228C99.0686 9.236 97.9646 8.06 96.1886 8.06C94.2446 8.06 93.0926 9.524 93.0926 11.324V18.5H91.4606V11.204C91.4606 9.236 90.3326 8.084 88.5806 8.084C86.6366 8.084 85.4606 9.524 85.4606 11.3V18.5Z" fill="#020617" class="fill-mauve-12" style="fill: rgb(33, 31, 38) !important;"/></svg>

