<?xml version="1.0" encoding="UTF-8" standalone="no"?>
<!DOCTYPE svg PUBLIC "-//W3C//DTD SVG 1.1//EN" "http://www.w3.org/Graphics/SVG/1.1/DTD/svg11.dtd">
<svg xmlns="http://www.w3.org/2000/svg" version="1.1" viewBox="0.00 0.00 400.00 400.00">
<g stroke-width="2.00" fill="none" stroke-linecap="butt">
<path stroke="#345a99" vector-effect="non-scaling-stroke" d="
  M 138.40 0.00
  C 134.96 4.26 131.88 8.20 135.60 13.51
  Q 138.19 17.20 140.77 19.25
  Q 169.05 41.65 202.63 70.33
  Q 206.29 73.45 224.47 87.03
  Q 228.68 90.18 241.70 101.06
  C 254.47 111.73 268.11 121.81 280.84 132.45
  Q 283.62 134.78 303.14 147.89
  Q 305.65 149.58 315.84 158.47
  Q 322.88 164.61 328.06 168.77
  C 333.17 172.87 342.99 180.10 349.97 186.10
  C 359.60 194.39 368.95 203.62 377.39 211.58
  Q 386.60 220.28 400.00 227.12"
/>
<path stroke="#30548f" vector-effect="non-scaling-stroke" d="
  M 400.00 309.07
  C 391.49 313.19 386.07 310.77 379.36 304.56
  C 368.27 294.30 358.45 284.89 346.33 275.16
  Q 339.80 269.92 332.36 266.13
  C 323.63 261.68 316.70 262.83 309.44 269.08"
/>
<path stroke="#99abca" vector-effect="non-scaling-stroke" d="
  M 309.44 269.08
  C 315.15 250.30 307.45 232.15 290.09 223.59
  C 283.28 220.24 273.70 219.68 267.20 217.37
  C 238.15 207.04 218.17 182.36 216.13 151.98
  C 215.75 146.32 216.22 140.00 214.83 134.75
  Q 210.49 118.34 197.13 110.93
  C 178.26 100.45 154.65 107.48 145.13 127.22"
/>
<path stroke="#30548f" vector-effect="non-scaling-stroke" d="
  M 145.13 127.22
  Q 131.52 119.06 117.66 111.23
  Q 112.47 108.29 107.86 105.30
  Q 100.28 100.39 98.40 98.85
  Q 81.44 85.05 60.29 70.14
  C 47.35 61.01 35.17 51.90 27.42 44.80
  Q 14.01 32.52 0.00 20.77"
/>
<path stroke="#97a8c4" vector-effect="non-scaling-stroke" d="
  M 145.13 127.22
  C 136.48 147.38 144.80 169.12 164.96 177.59
  Q 167.90 178.82 176.25 180.39
  C 192.68 183.49 207.13 191.49 218.20 203.80
  C 227.58 214.23 230.86 228.80 220.86 239.76
  C 206.87 255.10 177.58 246.80 162.43 238.08
  Q 159.15 236.19 148.37 227.61
  Q 135.02 216.98 116.98 220.83"
/>
<path stroke="#2c4d84" vector-effect="non-scaling-stroke" d="
  M 116.98 220.83
  Q 110.79 210.38 100.46 203.00
  Q 83.14 190.62 76.90 186.89
  Q 63.95 179.15 57.33 175.40
  C 51.24 171.95 44.16 167.40 39.84 164.07
  C 32.25 158.22 27.14 153.76 19.53 149.74
  Q 10.05 144.74 0.00 140.91"
/>
<path stroke="#97a8c4" vector-effect="non-scaling-stroke" d="
  M 309.44 269.08
  Q 302.86 286.75 285.76 292.32
  C 274.18 296.09 260.73 293.66 250.88 285.67
  Q 248.01 283.34 243.35 279.92
  C 219.04 262.07 186.00 261.15 160.14 277.37"
/>
<path stroke="#94a5bf" vector-effect="non-scaling-stroke" d="
  M 160.14 277.37
  Q 156.81 279.56 147.71 286.73
  Q 140.82 292.16 130.91 293.53
  C 97.33 298.17 75.92 260.19 96.68 233.66
  Q 104.27 223.97 116.98 220.83"
/>
<path stroke="#99abca" vector-effect="non-scaling-stroke" d="
  M 197.27 143.07
  A 18.54 18.54 0.0 0 0 178.73 124.53
  A 18.54 18.54 0.0 0 0 160.19 143.07
  A 18.54 18.54 0.0 0 0 178.73 161.61
  A 18.54 18.54 0.0 0 0 197.27 143.07"
/>
<path stroke="#94a5bf" vector-effect="non-scaling-stroke" d="
  M 144.21 256.96
  A 18.56 18.56 0.0 0 0 125.65 238.40
  A 18.56 18.56 0.0 0 0 107.09 256.96
  A 18.56 18.56 0.0 0 0 125.65 275.52
  A 18.56 18.56 0.0 0 0 144.21 256.96"
/>
<path stroke="#97a8c4" vector-effect="non-scaling-stroke" d="
  M 292.85 256.96
  A 18.57 18.57 0.0 0 0 274.28 238.39
  A 18.57 18.57 0.0 0 0 255.71 256.96
  A 18.57 18.57 0.0 0 0 274.28 275.53
  A 18.57 18.57 0.0 0 0 292.85 256.96"
/>
<path stroke="#2c4d84" vector-effect="non-scaling-stroke" d="
  M 160.14 277.37
  Q 162.60 282.89 165.16 285.77
  Q 176.08 298.01 193.30 312.34
  C 201.70 319.33 210.92 325.25 220.88 332.52
  Q 228.68 338.21 239.73 347.82
  Q 256.81 362.67 278.39 382.10
  Q 286.16 389.11 302.43 400.00"
/>
</g>
<path fill="#325794" d="
  M 138.40 0.00
  C 134.96 4.26 131.88 8.20 135.60 13.51
  Q 138.19 17.20 140.77 19.25
  Q 169.05 41.65 202.63 70.33
  Q 206.29 73.45 224.47 87.03
  Q 228.68 90.18 241.70 101.06
  C 254.47 111.73 268.11 121.81 280.84 132.45
  Q 283.62 134.78 303.14 147.89
  Q 305.65 149.58 315.84 158.47
  Q 322.88 164.61 328.06 168.77
  C 333.17 172.87 342.99 180.10 349.97 186.10
  C 359.60 194.39 368.95 203.62 377.39 211.58
  Q 386.60 220.28 400.00 227.12
  L 400.00 309.07
  C 391.49 313.19 386.07 310.77 379.36 304.56
  C 368.27 294.30 358.45 284.89 346.33 275.16
  Q 339.80 269.92 332.36 266.13
  C 323.63 261.68 316.70 262.83 309.44 269.08
  C 315.15 250.30 307.45 232.15 290.09 223.59
  C 283.28 220.24 273.70 219.68 267.20 217.37
  C 238.15 207.04 218.17 182.36 216.13 151.98
  C 215.75 146.32 216.22 140.00 214.83 134.75
  Q 210.49 118.34 197.13 110.93
  C 178.26 100.45 154.65 107.48 145.13 127.22
  Q 131.52 119.06 117.66 111.23
  Q 112.47 108.29 107.86 105.30
  Q 100.28 100.39 98.40 98.85
  Q 81.44 85.05 60.29 70.14
  C 47.35 61.01 35.17 51.90 27.42 44.80
  Q 14.01 32.52 0.00 20.77
  L 0.00 0.00
  L 138.40 0.00
  Z"
/>
<path fill="#365c9e" d="
  M 400.00 0.00
  L 400.00 227.12
  Q 386.60 220.28 377.39 211.58
  C 368.95 203.62 359.60 194.39 349.97 186.10
  C 342.99 180.10 333.17 172.87 328.06 168.77
  Q 322.88 164.61 315.84 158.47
  Q 305.65 149.58 303.14 147.89
  Q 283.62 134.78 280.84 132.45
  C 268.11 121.81 254.47 111.73 241.70 101.06
  Q 228.68 90.18 224.47 87.03
  Q 206.29 73.45 202.63 70.33
  Q 169.05 41.65 140.77 19.25
  Q 138.19 17.20 135.60 13.51
  C 131.88 8.20 134.96 4.26 138.40 0.00
  L 400.00 0.00
  Z"
/>
<path fill="#2e5089" d="
  M 145.13 127.22
  C 136.48 147.38 144.80 169.12 164.96 177.59
  Q 167.90 178.82 176.25 180.39
  C 192.68 183.49 207.13 191.49 218.20 203.80
  C 227.58 214.23 230.86 228.80 220.86 239.76
  C 206.87 255.10 177.58 246.80 162.43 238.08
  Q 159.15 236.19 148.37 227.61
  Q 135.02 216.98 116.98 220.83
  Q 110.79 210.38 100.46 203.00
  Q 83.14 190.62 76.90 186.89
  Q 63.95 179.15 57.33 175.40
  C 51.24 171.95 44.16 167.40 39.84 164.07
  C 32.25 158.22 27.14 153.76 19.53 149.74
  Q 10.05 144.74 0.00 140.91
  L 0.00 20.77
  Q 14.01 32.52 27.42 44.80
  C 35.17 51.90 47.35 61.01 60.29 70.14
  Q 81.44 85.05 98.40 98.85
  Q 100.28 100.39 107.86 105.30
  Q 112.47 108.29 117.66 111.23
  Q 131.52 119.06 145.13 127.22
  Z"
/>
<path fill="#ffffff" d="
  M 309.44 269.08
  Q 302.86 286.75 285.76 292.32
  C 274.18 296.09 260.73 293.66 250.88 285.67
  Q 248.01 283.34 243.35 279.92
  C 219.04 262.07 186.00 261.15 160.14 277.37
  Q 156.81 279.56 147.71 286.73
  Q 140.82 292.16 130.91 293.53
  C 97.33 298.17 75.92 260.19 96.68 233.66
  Q 104.27 223.97 116.98 220.83
  Q 135.02 216.98 148.37 227.61
  Q 159.15 236.19 162.43 238.08
  C 177.58 246.80 206.87 255.10 220.86 239.76
  C 230.86 228.80 227.58 214.23 218.20 203.80
  C 207.13 191.49 192.68 183.49 176.25 180.39
  Q 167.90 178.82 164.96 177.59
  C 144.80 169.12 136.48 147.38 145.13 127.22
  C 154.65 107.48 178.26 100.45 197.13 110.93
  Q 210.49 118.34 214.83 134.75
  C 216.22 140.00 215.75 146.32 216.13 151.98
  C 218.17 182.36 238.15 207.04 267.20 217.37
  C 273.70 219.68 283.28 220.24 290.09 223.59
  C 307.45 232.15 315.15 250.30 309.44 269.08
  Z
  M 197.27 143.07
  A 18.54 18.54 0.0 0 0 178.73 124.53
  A 18.54 18.54 0.0 0 0 160.19 143.07
  A 18.54 18.54 0.0 0 0 178.73 161.61
  A 18.54 18.54 0.0 0 0 197.27 143.07
  Z
  M 144.21 256.96
  A 18.56 18.56 0.0 0 0 125.65 238.40
  A 18.56 18.56 0.0 0 0 107.09 256.96
  A 18.56 18.56 0.0 0 0 125.65 275.52
  A 18.56 18.56 0.0 0 0 144.21 256.96
  Z
  M 292.85 256.96
  A 18.57 18.57 0.0 0 0 274.28 238.39
  A 18.57 18.57 0.0 0 0 255.71 256.96
  A 18.57 18.57 0.0 0 0 274.28 275.53
  A 18.57 18.57 0.0 0 0 292.85 256.96
  Z"
/>
<circle fill="#325794" cx="178.73" cy="143.07" r="18.54"/>
<path fill="#294a7e" d="
  M 116.98 220.83
  Q 104.27 223.97 96.68 233.66
  C 75.92 260.19 97.33 298.17 130.91 293.53
  Q 140.82 292.16 147.71 286.73
  Q 156.81 279.56 160.14 277.37
  Q 162.60 282.89 165.16 285.77
  Q 176.08 298.01 193.30 312.34
  C 201.70 319.33 210.92 325.25 220.88 332.52
  Q 228.68 338.21 239.73 347.82
  Q 256.81 362.67 278.39 382.10
  Q 286.16 389.11 302.43 400.00
  L 0.00 400.00
  L 0.00 140.91
  Q 10.05 144.74 19.53 149.74
  C 27.14 153.76 32.25 158.22 39.84 164.07
  C 44.16 167.40 51.24 171.95 57.33 175.40
  Q 63.95 179.15 76.90 186.89
  Q 83.14 190.62 100.46 203.00
  Q 110.79 210.38 116.98 220.83
  Z"
/>
<circle fill="#294a7e" cx="125.65" cy="256.96" r="18.56"/>
<circle fill="#2e5089" cx="274.28" cy="256.96" r="18.57"/>
<path fill="#2e5089" d="
  M 400.00 309.07
  L 400.00 400.00
  L 302.43 400.00
  Q 286.16 389.11 278.39 382.10
  Q 256.81 362.67 239.73 347.82
  Q 228.68 338.21 220.88 332.52
  C 210.92 325.25 201.70 319.33 193.30 312.34
  Q 176.08 298.01 165.16 285.77
  Q 162.60 282.89 160.14 277.37
  C 186.00 261.15 219.04 262.07 243.35 279.92
  Q 248.01 283.34 250.88 285.67
  C 260.73 293.66 274.18 296.09 285.76 292.32
  Q 302.86 286.75 309.44 269.08
  C 316.70 262.83 323.63 261.68 332.36 266.13
  Q 339.80 269.92 346.33 275.16
  C 358.45 284.89 368.27 294.30 379.36 304.56
  C 386.07 310.77 391.49 313.19 400.00 309.07
  Z"
/>
</svg>
