<?xml version="1.0" encoding="UTF-8" standalone="no"?>
<!DOCTYPE svg PUBLIC "-//W3C//DTD SVG 1.1//EN" "http://www.w3.org/Graphics/SVG/1.1/DTD/svg11.dtd">
<svg xmlns="http://www.w3.org/2000/svg" version="1.1" viewBox="0.00 0.00 400.00 400.00">
<g stroke-width="2.00" fill="none" stroke-linecap="butt">
<path stroke="#a247a2" vector-effect="non-scaling-stroke" d="
  M 92.20 0.00
  C 90.12 8.03 95.13 13.57 100.61 18.11
  C 106.04 22.61 114.03 28.22 120.02 34.00
  Q 125.93 39.70 126.77 40.68
  Q 134.34 49.60 149.00 64.78
  Q 162.20 78.47 178.28 85.52"
/>
<path stroke="#d4a4cf" vector-effect="non-scaling-stroke" d="
  M 178.28 85.52
  C 172.42 90.70 168.02 96.82 166.43 104.39
  Q 165.37 109.45 165.67 115.72
  C 166.49 132.56 180.61 146.28 197.24 147.73
  Q 212.63 149.08 223.79 139.29"
/>
<path stroke="#a247a2" vector-effect="non-scaling-stroke" d="
  M 223.79 139.29
  Q 228.01 141.83 229.22 145.49"
/>
<path stroke="#d4a4cf" vector-effect="non-scaling-stroke" d="
  M 229.22 145.49
  Q 219.87 147.11 213.42 151.64
  Q 210.70 153.55 210.37 158.49
  A 2.99 2.90 40.7 0 0 210.46 159.48
  Q 211.02 161.55 213.07 165.98
  Q 223.94 189.48 247.64 240.63
  C 248.67 242.86 250.45 247.24 251.99 248.51
  C 257.54 253.10 261.96 249.64 268.57 246.64
  Q 273.00 244.62 274.08 242.01
  Q 275.69 238.14 274.21 234.84
  Q 263.78 211.54 233.90 148.13"
/>
<path stroke="#a247a2" vector-effect="non-scaling-stroke" d="
  M 233.90 148.13
  Q 242.51 155.20 251.04 163.69
  Q 264.38 176.97 290.47 203.94
  Q 305.94 219.93 324.07 230.91
  Q 332.06 235.75 344.67 243.03
  C 356.36 249.79 369.46 258.70 381.00 265.49
  Q 388.59 269.95 400.00 275.41"
/>
<path stroke="#af4a9a" vector-effect="non-scaling-stroke" d="
  M 391.47 400.00
  C 394.12 388.11 392.00 381.33 380.16 376.23
  Q 376.88 374.81 359.05 367.81
  Q 351.20 364.73 338.00 356.97
  C 325.44 349.58 315.64 342.99 299.03 331.95
  Q 292.23 327.43 279.23 321.87"
/>
<path stroke="#d4a4cf" vector-effect="non-scaling-stroke" d="
  M 279.23 321.87
  Q 294.82 323.22 305.65 314.32
  C 321.36 301.43 323.66 278.04 309.48 263.02
  Q 296.51 249.27 277.16 252.22
  C 261.41 254.63 249.80 268.72 248.44 284.33"
/>
<path stroke="#af4a9a" vector-effect="non-scaling-stroke" d="
  M 248.44 284.33
  C 239.89 270.66 232.95 259.99 223.83 250.42
  Q 211.30 237.26 191.31 218.19
  Q 185.35 212.51 173.99 197.95"
/>
<path stroke="#d4a4cf" vector-effect="non-scaling-stroke" d="
  M 173.99 197.95
  Q 181.65 181.26 189.48 164.48
  Q 191.92 159.25 191.82 157.38
  Q 191.60 153.38 188.08 150.98
  C 185.56 149.26 177.00 144.98 173.51 145.36
  Q 168.87 145.87 166.82 150.28
  Q 151.86 182.60 136.82 215.05"
/>
<path stroke="#af4a9a" vector-effect="non-scaling-stroke" d="
  M 136.82 215.05
  C 130.36 195.94 116.68 179.44 101.98 166.31
  C 96.62 161.51 86.99 156.39 80.99 152.07
  Q 68.71 143.25 43.80 126.13
  Q 29.25 116.14 14.98 107.64
  Q 8.63 103.86 0.00 100.99"
/>
<path stroke="#9744aa" vector-effect="non-scaling-stroke" d="
  M 226.19 0.00
  C 223.17 8.40 224.70 14.28 225.63 21.87
  Q 225.69 22.32 224.80 24.32
  A 3.11 3.08 58.7 0 0 224.54 25.41
  Q 224.40 27.89 225.03 30.42
  Q 230.23 51.45 243.93 66.66
  C 250.86 74.36 257.00 80.67 263.44 88.73
  C 274.58 102.65 286.23 117.30 293.37 125.59
  Q 309.96 144.86 331.51 160.28
  Q 339.96 166.33 372.75 189.09
  Q 386.83 198.86 400.00 204.11"
/>
<path stroke="#cea2d3" vector-effect="non-scaling-stroke" d="
  M 233.90 148.13
  L 229.22 145.49"
/>
<path stroke="#cea2d3" vector-effect="non-scaling-stroke" d="
  M 223.79 139.29
  Q 225.97 136.97 227.82 134.84
  Q 233.91 127.80 235.27 118.83
  C 239.04 93.87 218.84 74.24 194.03 78.07
  Q 185.81 79.33 178.28 85.52"
/>
<path stroke="#cea2d3" vector-effect="non-scaling-stroke" d="
  M 212.58 112.77
  A 11.95 11.95 0.0 0 0 200.63 100.82
  A 11.95 11.95 0.0 0 0 188.68 112.77
  A 11.95 11.95 0.0 0 0 200.63 124.72
  A 11.95 11.95 0.0 0 0 212.58 112.77"
/>
<path stroke="#daa5ca" vector-effect="non-scaling-stroke" d="
  M 136.82 215.05
  Q 133.09 223.25 129.21 231.49
  Q 126.87 236.46 127.05 238.51
  Q 127.39 242.39 130.85 244.64
  Q 133.96 246.65 141.53 249.68
  Q 145.92 251.43 149.72 248.45
  Q 151.08 247.38 152.90 243.45
  Q 163.38 220.77 173.99 197.95"
/>
<path stroke="#daa5ca" vector-effect="non-scaling-stroke" d="
  M 248.44 284.33
  Q 248.51 291.41 248.88 293.33
  C 251.83 308.54 263.93 319.67 279.23 321.87"
/>
<path stroke="#bb4b92" vector-effect="non-scaling-stroke" d="
  M 184.60 400.00
  Q 186.78 398.93 188.86 397.84
  C 193.91 395.20 192.26 390.27 189.68 386.81
  C 182.68 377.42 179.31 372.96 174.21 364.89
  Q 167.92 354.93 161.63 346.05
  Q 149.32 328.66 129.70 320.05"
/>
<path stroke="#daa5ca" vector-effect="non-scaling-stroke" d="
  M 129.70 320.05
  C 142.29 315.14 151.42 304.08 152.53 290.48
  Q 154.20 270.11 138.06 258.15
  C 125.64 248.94 107.74 249.74 95.64 259.26"
/>
<path stroke="#bb4b92" vector-effect="non-scaling-stroke" d="
  M 95.64 259.26
  C 87.07 246.90 78.78 239.32 65.44 227.00
  C 51.19 213.82 35.77 200.10 20.87 189.31
  Q 11.61 182.61 0.00 177.75"
/>
<path stroke="#e0a6c7" vector-effect="non-scaling-stroke" d="
  M 95.64 259.26
  Q 91.72 263.02 90.67 264.18
  C 86.18 269.06 83.15 276.52 82.95 283.60
  C 82.71 291.89 83.20 298.47 87.86 305.66
  C 96.93 319.67 113.79 325.46 129.70 320.05"
/>
<path stroke="#c54c8c" vector-effect="non-scaling-stroke" d="
  M 101.89 400.00
  C 98.00 389.19 91.06 376.21 88.28 369.67
  Q 81.88 354.62 76.80 343.18
  C 69.15 325.98 56.64 311.35 44.08 297.75
  C 37.06 290.14 28.31 281.75 21.35 272.82
  C 15.21 264.92 8.58 254.65 0.00 246.04"
/>
<path stroke="#e0a6c7" vector-effect="non-scaling-stroke" d="
  M 129.63 286.86
  A 11.96 11.96 0.0 0 0 117.67 274.90
  A 11.96 11.96 0.0 0 0 105.71 286.86
  A 11.96 11.96 0.0 0 0 117.67 298.82
  A 11.96 11.96 0.0 0 0 129.63 286.86"
/>
<path stroke="#d4a4cf" vector-effect="non-scaling-stroke" d="
  M 295.56 286.84
  A 11.94 11.94 0.0 0 0 283.62 274.90
  A 11.94 11.94 0.0 0 0 271.68 286.84
  A 11.94 11.94 0.0 0 0 283.62 298.78
  A 11.94 11.94 0.0 0 0 295.56 286.84"
/>
</g>
<path fill="#a8499e" d="
  M 92.20 0.00
  C 90.12 8.03 95.13 13.57 100.61 18.11
  C 106.04 22.61 114.03 28.22 120.02 34.00
  Q 125.93 39.70 126.77 40.68
  Q 134.34 49.60 149.00 64.78
  Q 162.20 78.47 178.28 85.52
  C 172.42 90.70 168.02 96.82 166.43 104.39
  Q 165.37 109.45 165.67 115.72
  C 166.49 132.56 180.61 146.28 197.24 147.73
  Q 212.63 149.08 223.79 139.29
  Q 228.01 141.83 229.22 145.49
  Q 219.87 147.11 213.42 151.64
  Q 210.70 153.55 210.37 158.49
  A 2.99 2.90 40.7 0 0 210.46 159.48
  Q 211.02 161.55 213.07 165.98
  Q 223.94 189.48 247.64 240.63
  C 248.67 242.86 250.45 247.24 251.99 248.51
  C 257.54 253.10 261.96 249.64 268.57 246.64
  Q 273.00 244.62 274.08 242.01
  Q 275.69 238.14 274.21 234.84
  Q 263.78 211.54 233.90 148.13
  Q 242.51 155.20 251.04 163.69
  Q 264.38 176.97 290.47 203.94
  Q 305.94 219.93 324.07 230.91
  Q 332.06 235.75 344.67 243.03
  C 356.36 249.79 369.46 258.70 381.00 265.49
  Q 388.59 269.95 400.00 275.41
  L 400.00 400.00
  L 391.47 400.00
  C 394.12 388.11 392.00 381.33 380.16 376.23
  Q 376.88 374.81 359.05 367.81
  Q 351.20 364.73 338.00 356.97
  C 325.44 349.58 315.64 342.99 299.03 331.95
  Q 292.23 327.43 279.23 321.87
  Q 294.82 323.22 305.65 314.32
  C 321.36 301.43 323.66 278.04 309.48 263.02
  Q 296.51 249.27 277.16 252.22
  C 261.41 254.63 249.80 268.72 248.44 284.33
  C 239.89 270.66 232.95 259.99 223.83 250.42
  Q 211.30 237.26 191.31 218.19
  Q 185.35 212.51 173.99 197.95
  Q 181.65 181.26 189.48 164.48
  Q 191.92 159.25 191.82 157.38
  Q 191.60 153.38 188.08 150.98
  C 185.56 149.26 177.00 144.98 173.51 145.36
  Q 168.87 145.87 166.82 150.28
  Q 151.86 182.60 136.82 215.05
  C 130.36 195.94 116.68 179.44 101.98 166.31
  C 96.62 161.51 86.99 156.39 80.99 152.07
  Q 68.71 143.25 43.80 126.13
  Q 29.25 116.14 14.98 107.64
  Q 8.63 103.86 0.00 100.99
  L 0.00 0.00
  L 92.20 0.00
  Z"
/>
<path fill="#9c45a6" d="
  M 226.19 0.00
  C 223.17 8.40 224.70 14.28 225.63 21.87
  Q 225.69 22.32 224.80 24.32
  A 3.11 3.08 58.7 0 0 224.54 25.41
  Q 224.40 27.89 225.03 30.42
  Q 230.23 51.45 243.93 66.66
  C 250.86 74.36 257.00 80.67 263.44 88.73
  C 274.58 102.65 286.23 117.30 293.37 125.59
  Q 309.96 144.86 331.51 160.28
  Q 339.96 166.33 372.75 189.09
  Q 386.83 198.86 400.00 204.11
  L 400.00 275.41
  Q 388.59 269.95 381.00 265.49
  C 369.46 258.70 356.36 249.79 344.67 243.03
  Q 332.06 235.75 324.07 230.91
  Q 305.94 219.93 290.47 203.94
  Q 264.38 176.97 251.04 163.69
  Q 242.51 155.20 233.90 148.13
  L 229.22 145.49
  Q 228.01 141.83 223.79 139.29
  Q 225.97 136.97 227.82 134.84
  Q 233.91 127.80 235.27 118.83
  C 239.04 93.87 218.84 74.24 194.03 78.07
  Q 185.81 79.33 178.28 85.52
  Q 162.20 78.47 149.00 64.78
  Q 134.34 49.60 126.77 40.68
  Q 125.93 39.70 120.02 34.00
  C 114.03 28.22 106.04 22.61 100.61 18.11
  C 95.13 13.57 90.12 8.03 92.20 0.00
  L 226.19 0.00
  Z"
/>
<path fill="#9243ad" d="
  M 400.00 0.00
  L 400.00 204.11
  Q 386.83 198.86 372.75 189.09
  Q 339.96 166.33 331.51 160.28
  Q 309.96 144.86 293.37 125.59
  C 286.23 117.30 274.58 102.65 263.44 88.73
  C 257.00 80.67 250.86 74.36 243.93 66.66
  Q 230.23 51.45 225.03 30.42
  Q 224.40 27.89 224.54 25.41
  A 3.11 3.08 58.7 0 1 224.80 24.32
  Q 225.69 22.32 225.63 21.87
  C 224.70 14.28 223.17 8.40 226.19 0.00
  L 400.00 0.00
  Z"
/>
<path fill="#ffffff" d="
  M 223.79 139.29
  Q 212.63 149.08 197.24 147.73
  C 180.61 146.28 166.49 132.56 165.67 115.72
  Q 165.37 109.45 166.43 104.39
  C 168.02 96.82 172.42 90.70 178.28 85.52
  Q 185.81 79.33 194.03 78.07
  C 218.84 74.24 239.04 93.87 235.27 118.83
  Q 233.91 127.80 227.82 134.84
  Q 225.97 136.97 223.79 139.29
  Z
  M 212.58 112.77
  A 11.95 11.95 0.0 0 0 200.63 100.82
  A 11.95 11.95 0.0 0 0 188.68 112.77
  A 11.95 11.95 0.0 0 0 200.63 124.72
  A 11.95 11.95 0.0 0 0 212.58 112.77
  Z"
/>
<path fill="#b54a95" d="
  M 136.82 215.05
  Q 133.09 223.25 129.21 231.49
  Q 126.87 236.46 127.05 238.51
  Q 127.39 242.39 130.85 244.64
  Q 133.96 246.65 141.53 249.68
  Q 145.92 251.43 149.72 248.45
  Q 151.08 247.38 152.90 243.45
  Q 163.38 220.77 173.99 197.95
  Q 185.35 212.51 191.31 218.19
  Q 211.30 237.26 223.83 250.42
  C 232.95 259.99 239.89 270.66 248.44 284.33
  Q 248.51 291.41 248.88 293.33
  C 251.83 308.54 263.93 319.67 279.23 321.87
  Q 292.23 327.43 299.03 331.95
  C 315.64 342.99 325.44 349.58 338.00 356.97
  Q 351.20 364.73 359.05 367.81
  Q 376.88 374.81 380.16 376.23
  C 392.00 381.33 394.12 388.11 391.47 400.00
  L 184.60 400.00
  Q 186.78 398.93 188.86 397.84
  C 193.91 395.20 192.26 390.27 189.68 386.81
  C 182.68 377.42 179.31 372.96 174.21 364.89
  Q 167.92 354.93 161.63 346.05
  Q 149.32 328.66 129.70 320.05
  C 142.29 315.14 151.42 304.08 152.53 290.48
  Q 154.20 270.11 138.06 258.15
  C 125.64 248.94 107.74 249.74 95.64 259.26
  C 87.07 246.90 78.78 239.32 65.44 227.00
  C 51.19 213.82 35.77 200.10 20.87 189.31
  Q 11.61 182.61 0.00 177.75
  L 0.00 100.99
  Q 8.63 103.86 14.98 107.64
  Q 29.25 116.14 43.80 126.13
  Q 68.71 143.25 80.99 152.07
  C 86.99 156.39 96.62 161.51 101.98 166.31
  C 116.68 179.44 130.36 195.94 136.82 215.05
  Z"
/>
<circle fill="#9c45a6" cx="200.63" cy="112.77" r="11.95"/>
<path fill="#ffffff" d="
  M 173.99 197.95
  Q 163.38 220.77 152.90 243.45
  Q 151.08 247.38 149.72 248.45
  Q 145.92 251.43 141.53 249.68
  Q 133.96 246.65 130.85 244.64
  Q 127.39 242.39 127.05 238.51
  Q 126.87 236.46 129.21 231.49
  Q 133.09 223.25 136.82 215.05
  Q 151.86 182.60 166.82 150.28
  Q 168.87 145.87 173.51 145.36
  C 177.00 144.98 185.56 149.26 188.08 150.98
  Q 191.60 153.38 191.82 157.38
  Q 191.92 159.25 189.48 164.48
  Q 181.65 181.26 173.99 197.95
  Z"
/>
<path fill="#ffffff" d="
  M 229.22 145.49
  L 233.90 148.13
  Q 263.78 211.54 274.21 234.84
  Q 275.69 238.14 274.08 242.01
  Q 273.00 244.62 268.57 246.64
  C 261.96 249.64 257.54 253.10 251.99 248.51
  C 250.45 247.24 248.67 242.86 247.64 240.63
  Q 223.94 189.48 213.07 165.98
  Q 211.02 161.55 210.46 159.48
  A 2.99 2.90 40.7 0 1 210.37 158.49
  Q 210.70 153.55 213.42 151.64
  Q 219.87 147.11 229.22 145.49
  Z"
/>
<path fill="#c14c8e" d="
  M 95.64 259.26
  Q 91.72 263.02 90.67 264.18
  C 86.18 269.06 83.15 276.52 82.95 283.60
  C 82.71 291.89 83.20 298.47 87.86 305.66
  C 96.93 319.67 113.79 325.46 129.70 320.05
  Q 149.32 328.66 161.63 346.05
  Q 167.92 354.93 174.21 364.89
  C 179.31 372.96 182.68 377.42 189.68 386.81
  C 192.26 390.27 193.91 395.20 188.86 397.84
  Q 186.78 398.93 184.60 400.00
  L 101.89 400.00
  C 98.00 389.19 91.06 376.21 88.28 369.67
  Q 81.88 354.62 76.80 343.18
  C 69.15 325.98 56.64 311.35 44.08 297.75
  C 37.06 290.14 28.31 281.75 21.35 272.82
  C 15.21 264.92 8.58 254.65 0.00 246.04
  L 0.00 177.75
  Q 11.61 182.61 20.87 189.31
  C 35.77 200.10 51.19 213.82 65.44 227.00
  C 78.78 239.32 87.07 246.90 95.64 259.26
  Z"
/>
<path fill="#c94c89" d="
  M 101.89 400.00
  L 0.00 400.00
  L 0.00 246.04
  C 8.58 254.65 15.21 264.92 21.35 272.82
  C 28.31 281.75 37.06 290.14 44.08 297.75
  C 56.64 311.35 69.15 325.98 76.80 343.18
  Q 81.88 354.62 88.28 369.67
  C 91.06 376.21 98.00 389.19 101.89 400.00
  Z"
/>
<path fill="#ffffff" d="
  M 129.70 320.05
  C 113.79 325.46 96.93 319.67 87.86 305.66
  C 83.20 298.47 82.71 291.89 82.95 283.60
  C 83.15 276.52 86.18 269.06 90.67 264.18
  Q 91.72 263.02 95.64 259.26
  C 107.74 249.74 125.64 248.94 138.06 258.15
  Q 154.20 270.11 152.53 290.48
  C 151.42 304.08 142.29 315.14 129.70 320.05
  Z
  M 129.63 286.86
  A 11.96 11.96 0.0 0 0 117.67 274.90
  A 11.96 11.96 0.0 0 0 105.71 286.86
  A 11.96 11.96 0.0 0 0 117.67 298.82
  A 11.96 11.96 0.0 0 0 129.63 286.86
  Z"
/>
<path fill="#ffffff" d="
  M 279.23 321.87
  C 263.93 319.67 251.83 308.54 248.88 293.33
  Q 248.51 291.41 248.44 284.33
  C 249.80 268.72 261.41 254.63 277.16 252.22
  Q 296.51 249.27 309.48 263.02
  C 323.66 278.04 321.36 301.43 305.65 314.32
  Q 294.82 323.22 279.23 321.87
  Z
  M 295.56 286.84
  A 11.94 11.94 0.0 0 0 283.62 274.90
  A 11.94 11.94 0.0 0 0 271.68 286.84
  A 11.94 11.94 0.0 0 0 283.62 298.78
  A 11.94 11.94 0.0 0 0 295.56 286.84
  Z"
/>
<circle fill="#c14c8e" cx="117.67" cy="286.86" r="11.96"/>
<circle fill="#a8499e" cx="283.62" cy="286.84" r="11.94"/>
</svg>
