<svg class="home-page__reviews__item__stars-item" viewBox="0 0 20 19" fill="none" xmlns="http://www.w3.org/2000/svg" style="fill: rgb(80, 86, 229) !important;">
                                    <path fill-rule="evenodd" clip-rule="evenodd" d="M5.13526 17.8784C4.73104 18.0952 4.23861 18.0628 3.86636 17.7947C3.49411 17.5267 3.30712 17.07 3.38453 16.6179L4.2529 11.5928L0.575364 8.03232C0.250344 7.71269 0.134394 7.23656 0.276064 6.80328C0.417733 6.37 0.792576 6.05434 1.24364 5.98847L6.32776 5.25516L8.59871 0.679257C8.80386 0.26944 9.22286 0.0106201 9.68116 0.0106201C10.1395 0.0106201 10.5585 0.26944 10.7636 0.679257L13.0346 5.25516L18.1187 5.98847C18.5697 6.05434 18.9446 6.37 19.0863 6.80328C19.2279 7.23656 19.112 7.71269 18.7869 8.03232L15.1074 11.5908L15.9758 16.6159C16.0541 17.0683 15.8675 17.5258 15.4951 17.7944C15.1226 18.063 14.6296 18.0956 14.225 17.8784L9.67916 15.5084L5.13526 17.8784Z" style="fill: rgb(80, 86, 229) !important;"/>
                                </svg>