<svg width="128" height="128" viewBox="0 0 128 128" fill="none" xmlns="http://www.w3.org/2000/svg">
<g clip-path="url(#clip0_240_6914)">
<path d="M93.4831 44.6322C111.988 44.6322 128 60.5483 128 78.9573C128 98.9004 112.659 114.337 92.3326 114.337C73.9236 114.337 57.9116 101.489 57.9116 80.779V13.6629H68.5543V54.6996L69.8008 53.3573C74.4989 48.8509 81.1146 44.6322 93.4831 44.6322ZM92.4285 104.653C107.578 104.653 117.166 94.0105 117.166 79.9161C117.166 66.9723 108.057 54.6037 92.7161 54.6037C77.2794 54.6037 67.7873 66.1093 67.7873 80.2037C67.6914 94.2022 79.0052 104.653 92.4285 104.653ZM36.6262 21.8127C44.5843 30.1543 45.4472 34.7565 48.2277 42.9063L52.9258 58.2472C52.9258 58.2472 48.2277 57.3843 44.3925 56.809C39.982 56.1378 37.9685 55.4666 32.3116 53.1655C26.6547 50.8644 21.573 45.3034 16.5873 39.0711C11.6974 32.9348 0 23.155 0 23.155C0 23.155 3.64345 23.3468 7.28689 24.3056C10.2592 25.0726 18.1213 27.5655 26.1753 31.6884C27.997 32.6472 28.9558 33.2225 30.6816 34.2771C33.3663 35.9071 36.1468 38.4 38.8315 41.0846C41.9955 44.2487 44.776 46.8374 47.173 49.7138C44.5843 45.0157 37.8727 28.0449 24.833 14.0464C23.5865 12.6082 33.8457 18.9363 36.6262 21.8127Z" fill="#73C41D"/>
</g>
<defs>
<clipPath id="clip0_240_6914">
<rect width="128" height="100.674" fill="white" transform="translate(0 13.6629)"/>
</clipPath>
</defs>
</svg>
