<?xml version="1.0" encoding="UTF-8" standalone="no"?>
<!DOCTYPE svg PUBLIC "-//W3C//DTD SVG 1.1//EN" "http://www.w3.org/Graphics/SVG/1.1/DTD/svg11.dtd">
<svg xmlns="http://www.w3.org/2000/svg" version="1.1" viewBox="0.00 0.00 400.00 400.00">
<g stroke-width="2.00" fill="none" stroke-linecap="butt">
<path stroke="#7f6c00" vector-effect="non-scaling-stroke" d="
  M 200.00 332.74
  C 245.89 332.74 283.79 299.47 291.54 254.67
  C 294.06 240.12 292.39 224.43 289.56 209.01
  Q 280.64 160.41 257.93 117.06
  Q 250.25 102.40 239.93 90.12
  C 229.80 78.06 216.15 67.27 200.01 67.27
  C 183.88 67.26 170.23 78.06 160.10 90.11
  Q 149.77 102.39 142.09 117.05
  Q 119.38 160.40 110.45 209.00
  C 107.62 224.42 105.95 240.11 108.46 254.65
  C 116.21 299.46 154.10 332.74 200.00 332.74"
/>
<path stroke="#7f6c00" vector-effect="non-scaling-stroke" d="
  M 118.62 105.76
  A 9.93 9.93 0.0 0 0 108.69 95.83
  A 9.93 9.93 0.0 0 0 98.76 105.76
  A 9.93 9.93 0.0 0 0 108.69 115.69
  A 9.93 9.93 0.0 0 0 118.62 105.76"
/>
<path stroke="#7f6c00" vector-effect="non-scaling-stroke" d="
  M 300.89 105.77
  A 9.92 9.92 0.0 0 0 290.97 95.85
  A 9.92 9.92 0.0 0 0 281.05 105.77
  A 9.92 9.92 0.0 0 0 290.97 115.69
  A 9.92 9.92 0.0 0 0 300.89 105.77"
/>
<path stroke="#7f6c00" vector-effect="non-scaling-stroke" d="
  M 199.72 319.22
  C 226.95 319.22 251.56 305.42 266.39 282.64
  Q 282.04 258.60 278.64 228.04
  Q 276.23 206.38 268.90 181.55
  Q 261.05 154.91 250.44 132.55
  C 242.03 114.81 222.70 80.18 199.68 80.18
  C 176.66 80.19 157.33 114.83 148.93 132.57
  Q 138.33 154.93 130.49 181.57
  Q 123.17 206.41 120.76 228.07
  Q 117.37 258.63 133.03 282.67
  C 147.88 305.44 172.48 319.22 199.72 319.22"
/>
<path stroke="#7f6c00" vector-effect="non-scaling-stroke" d="
  M 199.70 245.82
  Q 199.78 245.82 199.87 245.84
  Q 199.96 245.86 200.01 245.90
  C 212.96 259.65 235.05 251.55 237.34 233.36
  C 237.81 229.63 236.62 226.08 232.76 225.55
  C 229.51 225.10 226.88 227.09 226.42 230.38
  C 225.78 234.89 224.82 238.14 220.48 240.44
  C 215.42 243.13 209.48 240.94 206.64 236.20
  Q 205.07 233.58 205.27 227.90
  Q 205.34 226.04 205.28 205.21
  A 0.40 0.39 84.8 0 1 205.60 204.82
  C 222.60 201.53 237.60 188.81 243.96 173.41
  C 251.79 154.48 223.61 146.67 211.00 145.40
  Q 204.17 144.72 199.69 144.72
  Q 195.21 144.72 188.38 145.41
  C 175.77 146.67 147.60 154.49 155.43 173.42
  C 161.79 188.81 176.79 201.53 193.79 204.82
  A 0.40 0.39 -84.8 0 1 194.11 205.21
  Q 194.05 226.04 194.12 227.90
  Q 194.32 233.58 192.75 236.20
  C 189.92 240.94 183.98 243.13 178.91 240.44
  C 174.57 238.14 173.61 234.89 172.97 230.38
  C 172.51 227.09 169.88 225.10 166.63 225.55
  C 162.77 226.08 161.58 229.63 162.05 233.36
  C 164.35 251.55 186.44 259.65 199.39 245.90
  Q 199.44 245.86 199.53 245.84
  Q 199.62 245.82 199.70 245.82"
/>
</g>
<path fill="#fed700" d="
  M 400.00 0.00
  L 400.00 400.00
  L 0.00 400.00
  L 0.00 0.00
  L 400.00 0.00
  Z
  M 200.00 332.74
  C 245.89 332.74 283.79 299.47 291.54 254.67
  C 294.06 240.12 292.39 224.43 289.56 209.01
  Q 280.64 160.41 257.93 117.06
  Q 250.25 102.40 239.93 90.12
  C 229.80 78.06 216.15 67.27 200.01 67.27
  C 183.88 67.26 170.23 78.06 160.10 90.11
  Q 149.77 102.39 142.09 117.05
  Q 119.38 160.40 110.45 209.00
  C 107.62 224.42 105.95 240.11 108.46 254.65
  C 116.21 299.46 154.10 332.74 200.00 332.74
  Z
  M 118.62 105.76
  A 9.93 9.93 0.0 0 0 108.69 95.83
  A 9.93 9.93 0.0 0 0 98.76 105.76
  A 9.93 9.93 0.0 0 0 108.69 115.69
  A 9.93 9.93 0.0 0 0 118.62 105.76
  Z
  M 300.89 105.77
  A 9.92 9.92 0.0 0 0 290.97 95.85
  A 9.92 9.92 0.0 0 0 281.05 105.77
  A 9.92 9.92 0.0 0 0 290.97 115.69
  A 9.92 9.92 0.0 0 0 300.89 105.77
  Z"
/>
<path fill="#000000" d="
  M 200.01 67.27
  C 216.15 67.27 229.80 78.06 239.93 90.12
  Q 250.25 102.40 257.93 117.06
  Q 280.64 160.41 289.56 209.01
  C 292.39 224.43 294.06 240.12 291.54 254.67
  C 283.79 299.47 245.89 332.74 200.00 332.74
  C 154.10 332.74 116.21 299.46 108.46 254.65
  C 105.95 240.11 107.62 224.42 110.45 209.00
  Q 119.38 160.40 142.09 117.05
  Q 149.77 102.39 160.10 90.11
  C 170.23 78.06 183.88 67.26 200.01 67.27
  Z
  M 199.72 319.22
  C 226.95 319.22 251.56 305.42 266.39 282.64
  Q 282.04 258.60 278.64 228.04
  Q 276.23 206.38 268.90 181.55
  Q 261.05 154.91 250.44 132.55
  C 242.03 114.81 222.70 80.18 199.68 80.18
  C 176.66 80.19 157.33 114.83 148.93 132.57
  Q 138.33 154.93 130.49 181.57
  Q 123.17 206.41 120.76 228.07
  Q 117.37 258.63 133.03 282.67
  C 147.88 305.44 172.48 319.22 199.72 319.22
  Z"
/>
<path fill="#fed700" d="
  M 199.68 80.18
  C 222.70 80.18 242.03 114.81 250.44 132.55
  Q 261.05 154.91 268.90 181.55
  Q 276.23 206.38 278.64 228.04
  Q 282.04 258.60 266.39 282.64
  C 251.56 305.42 226.95 319.22 199.72 319.22
  C 172.48 319.22 147.88 305.44 133.03 282.67
  Q 117.37 258.63 120.76 228.07
  Q 123.17 206.41 130.49 181.57
  Q 138.33 154.93 148.93 132.57
  C 157.33 114.83 176.66 80.19 199.68 80.18
  Z
  M 199.70 245.82
  Q 199.78 245.82 199.87 245.84
  Q 199.96 245.86 200.01 245.90
  C 212.96 259.65 235.05 251.55 237.34 233.36
  C 237.81 229.63 236.62 226.08 232.76 225.55
  C 229.51 225.10 226.88 227.09 226.42 230.38
  C 225.78 234.89 224.82 238.14 220.48 240.44
  C 215.42 243.13 209.48 240.94 206.64 236.20
  Q 205.07 233.58 205.27 227.90
  Q 205.34 226.04 205.28 205.21
  A 0.40 0.39 84.8 0 1 205.60 204.82
  C 222.60 201.53 237.60 188.81 243.96 173.41
  C 251.79 154.48 223.61 146.67 211.00 145.40
  Q 204.17 144.72 199.69 144.72
  Q 195.21 144.72 188.38 145.41
  C 175.77 146.67 147.60 154.49 155.43 173.42
  C 161.79 188.81 176.79 201.53 193.79 204.82
  A 0.40 0.39 -84.8 0 1 194.11 205.21
  Q 194.05 226.04 194.12 227.90
  Q 194.32 233.58 192.75 236.20
  C 189.92 240.94 183.98 243.13 178.91 240.44
  C 174.57 238.14 173.61 234.89 172.97 230.38
  C 172.51 227.09 169.88 225.10 166.63 225.55
  C 162.77 226.08 161.58 229.63 162.05 233.36
  C 164.35 251.55 186.44 259.65 199.39 245.90
  Q 199.44 245.86 199.53 245.84
  Q 199.62 245.82 199.70 245.82
  Z"
/>
<circle fill="#000000" cx="108.69" cy="105.76" r="9.93"/>
<circle fill="#000000" cx="290.97" cy="105.77" r="9.92"/>
<path fill="#000000" d="
  M 199.69 144.72
  Q 204.17 144.72 211.00 145.40
  C 223.61 146.67 251.79 154.48 243.96 173.41
  C 237.60 188.81 222.60 201.53 205.60 204.82
  A 0.40 0.39 84.8 0 0 205.28 205.21
  Q 205.34 226.04 205.27 227.90
  Q 205.07 233.58 206.64 236.20
  C 209.48 240.94 215.42 243.13 220.48 240.44
  C 224.82 238.14 225.78 234.89 226.42 230.38
  C 226.88 227.09 229.51 225.10 232.76 225.55
  C 236.62 226.08 237.81 229.63 237.34 233.36
  C 235.05 251.55 212.96 259.65 200.01 245.90
  Q 199.96 245.86 199.87 245.84
  Q 199.78 245.82 199.70 245.82
  Q 199.62 245.82 199.53 245.84
  Q 199.44 245.86 199.39 245.90
  C 186.44 259.65 164.35 251.55 162.05 233.36
  C 161.58 229.63 162.77 226.08 166.63 225.55
  C 169.88 225.10 172.51 227.09 172.97 230.38
  C 173.61 234.89 174.57 238.14 178.91 240.44
  C 183.98 243.13 189.92 240.94 192.75 236.20
  Q 194.32 233.58 194.12 227.90
  Q 194.05 226.04 194.11 205.21
  A 0.40 0.39 -84.8 0 0 193.79 204.82
  C 176.79 201.53 161.79 188.81 155.43 173.42
  C 147.60 154.49 175.77 146.67 188.38 145.41
  Q 195.21 144.72 199.69 144.72
  Z"
/>
</svg>
