<?xml version="1.0" encoding="UTF-8" standalone="no"?>
<!DOCTYPE svg PUBLIC "-//W3C//DTD SVG 1.1//EN" "http://www.w3.org/Graphics/SVG/1.1/DTD/svg11.dtd">
<svg xmlns="http://www.w3.org/2000/svg" version="1.1" viewBox="0.00 0.00 352.00 352.00">
<g stroke-width="2.00" fill="none" stroke-linecap="butt">
<path stroke="#868188" vector-effect="non-scaling-stroke" d="
  M 53.78 161.79
  L 53.78 136.52
  A 0.52 0.52 0.0 0 0 53.26 136.00
  L 38.64 136.00
  A 0.62 0.62 0.0 0 0 38.02 136.62
  L 38.02 214.19
  A 0.32 0.32 0.0 0 0 38.34 214.51
  L 53.14 214.51
  A 0.62 0.61 90.0 0 0 53.75 213.89
  L 53.75 209.27
  A 0.52 0.52 0.0 0 1 54.63 208.89
  C 63.32 217.25 75.64 217.89 85.71 211.52
  C 100.62 202.09 101.71 178.88 91.92 165.86
  C 84.45 155.94 70.55 153.09 59.11 158.86
  C 57.25 159.80 55.97 161.17 54.47 162.16
  A 0.44 0.44 0.0 0 1 53.78 161.79"
/>
<path stroke="#868188" vector-effect="non-scaling-stroke" d="
  M 220.68 174.08
  C 219.77 164.72 211.88 158.28 202.95 156.53
  C 191.80 154.34 172.90 156.35 171.12 171.05
  C 169.06 188.09 188.47 189.90 200.13 193.13
  C 202.79 193.87 207.23 195.75 205.84 199.02
  C 203.61 204.27 195.73 203.82 191.31 202.47
  Q 186.33 200.95 186.01 195.87
  A 0.55 0.54 -1.7 0 0 185.46 195.36
  L 170.32 195.36
  A 0.22 0.22 0.0 0 0 170.10 195.60
  C 171.24 210.68 183.11 215.37 196.44 215.76
  C 207.25 216.08 220.50 213.59 222.10 200.40
  C 225.20 174.87 187.23 181.15 187.35 172.65
  Q 187.38 170.16 188.89 169.35
  C 194.12 166.51 202.94 167.13 204.84 173.97
  A 0.90 0.90 0.0 0 0 205.71 174.64
  L 220.17 174.64
  A 0.51 0.51 0.0 0 0 220.68 174.08"
/>
<path stroke="#868188" vector-effect="non-scaling-stroke" d="
  M 286.17 197.30
  L 272.48 197.30
  A 2.22 2.20 19.9 0 0 270.79 198.08
  Q 267.45 202.03 262.01 202.85
  C 253.26 204.17 245.44 201.62 242.90 192.22
  A 0.38 0.37 82.3 0 1 243.26 191.74
  L 287.50 191.74
  A 0.61 0.60 -86.2 0 0 288.10 191.21
  C 290.37 173.37 280.44 157.49 261.78 156.06
  Q 242.82 154.60 232.93 170.36
  C 227.88 178.42 227.70 188.34 230.11 197.07
  C 232.67 206.37 240.09 213.04 249.58 214.88
  C 264.96 217.87 281.13 214.09 286.64 197.95
  A 0.50 0.49 9.6 0 0 286.17 197.30"
/>
<path stroke="#868188" vector-effect="non-scaling-stroke" d="
  M 148.50 208.99
  L 148.50 214.10
  A 0.54 0.54 0.0 0 0 149.04 214.64
  L 162.78 214.64
  A 0.68 0.68 0.0 0 0 163.46 213.96
  L 163.46 157.64
  A 0.15 0.15 0.0 0 0 163.31 157.49
  L 149.15 157.49
  A 0.67 0.66 -0.0 0 0 148.48 158.15
  L 148.48 162.32
  A 0.31 0.31 0.0 0 1 147.97 162.55
  Q 138.41 154.25 126.18 156.49
  C 106.55 160.07 100.12 181.47 106.03 198.15
  C 108.46 205.00 113.51 210.99 120.08 213.67
  Q 135.91 220.11 147.98 208.76
  A 0.31 0.31 0.0 0 1 148.50 208.99"
/>
<path stroke="#98befc" vector-effect="non-scaling-stroke" d="
  M 314.38 204.79
  A 11.05 11.05 0.0 0 0 303.33 193.74
  A 11.05 11.05 0.0 0 0 292.28 204.79
  A 11.05 11.05 0.0 0 0 303.33 215.84
  A 11.05 11.05 0.0 0 0 314.38 204.79"
/>
<path stroke="#868188" vector-effect="non-scaling-stroke" d="
  M 68.5661 171.1406
  A 15.34 14.91 -90.5 0 0 53.7906 186.6101
  A 15.34 14.91 -90.5 0 0 68.8339 201.8194
  A 15.34 14.91 -90.5 0 0 83.6094 186.3499
  A 15.34 14.91 -90.5 0 0 68.5661 171.1406"
/>
<path stroke="#868188" vector-effect="non-scaling-stroke" d="
  M 258.34 179.13
  Q 264.65 179.12 272.41 179.10
  A 0.52 0.52 0.0 0 0 272.89 178.39
  C 270.47 172.30 265.03 168.62 258.33 168.63
  C 251.62 168.64 246.19 172.33 243.79 178.43
  A 0.52 0.52 0.0 0 0 244.27 179.14
  Q 252.04 179.14 258.34 179.13"
/>
<path stroke="#868188" vector-effect="non-scaling-stroke" d="
  M 135.2623 171.4312
  A 15.34 15.09 -82.5 0 0 118.2991 184.6704
  A 15.34 15.09 -82.5 0 0 131.2577 201.8488
  A 15.34 15.09 -82.5 0 0 148.2209 188.6096
  A 15.34 15.09 -82.5 0 0 135.2623 171.4312"
/>
</g>
<path fill="#ffffff" d="
  M 352.00 0.00
  L 352.00 352.00
  L 0.00 352.00
  L 0.00 0.00
  L 352.00 0.00
  Z
  M 53.78 161.79
  L 53.78 136.52
  A 0.52 0.52 0.0 0 0 53.26 136.00
  L 38.64 136.00
  A 0.62 0.62 0.0 0 0 38.02 136.62
  L 38.02 214.19
  A 0.32 0.32 0.0 0 0 38.34 214.51
  L 53.14 214.51
  A 0.62 0.61 90.0 0 0 53.75 213.89
  L 53.75 209.27
  A 0.52 0.52 0.0 0 1 54.63 208.89
  C 63.32 217.25 75.64 217.89 85.71 211.52
  C 100.62 202.09 101.71 178.88 91.92 165.86
  C 84.45 155.94 70.55 153.09 59.11 158.86
  C 57.25 159.80 55.97 161.17 54.47 162.16
  A 0.44 0.44 0.0 0 1 53.78 161.79
  Z
  M 220.68 174.08
  C 219.77 164.72 211.88 158.28 202.95 156.53
  C 191.80 154.34 172.90 156.35 171.12 171.05
  C 169.06 188.09 188.47 189.90 200.13 193.13
  C 202.79 193.87 207.23 195.75 205.84 199.02
  C 203.61 204.27 195.73 203.82 191.31 202.47
  Q 186.33 200.95 186.01 195.87
  A 0.55 0.54 -1.7 0 0 185.46 195.36
  L 170.32 195.36
  A 0.22 0.22 0.0 0 0 170.10 195.60
  C 171.24 210.68 183.11 215.37 196.44 215.76
  C 207.25 216.08 220.50 213.59 222.10 200.40
  C 225.20 174.87 187.23 181.15 187.35 172.65
  Q 187.38 170.16 188.89 169.35
  C 194.12 166.51 202.94 167.13 204.84 173.97
  A 0.90 0.90 0.0 0 0 205.71 174.64
  L 220.17 174.64
  A 0.51 0.51 0.0 0 0 220.68 174.08
  Z
  M 286.17 197.30
  L 272.48 197.30
  A 2.22 2.20 19.9 0 0 270.79 198.08
  Q 267.45 202.03 262.01 202.85
  C 253.26 204.17 245.44 201.62 242.90 192.22
  A 0.38 0.37 82.3 0 1 243.26 191.74
  L 287.50 191.74
  A 0.61 0.60 -86.2 0 0 288.10 191.21
  C 290.37 173.37 280.44 157.49 261.78 156.06
  Q 242.82 154.60 232.93 170.36
  C 227.88 178.42 227.70 188.34 230.11 197.07
  C 232.67 206.37 240.09 213.04 249.58 214.88
  C 264.96 217.87 281.13 214.09 286.64 197.95
  A 0.50 0.49 9.6 0 0 286.17 197.30
  Z
  M 148.50 208.99
  L 148.50 214.10
  A 0.54 0.54 0.0 0 0 149.04 214.64
  L 162.78 214.64
  A 0.68 0.68 0.0 0 0 163.46 213.96
  L 163.46 157.64
  A 0.15 0.15 0.0 0 0 163.31 157.49
  L 149.15 157.49
  A 0.67 0.66 -0.0 0 0 148.48 158.15
  L 148.48 162.32
  A 0.31 0.31 0.0 0 1 147.97 162.55
  Q 138.41 154.25 126.18 156.49
  C 106.55 160.07 100.12 181.47 106.03 198.15
  C 108.46 205.00 113.51 210.99 120.08 213.67
  Q 135.91 220.11 147.98 208.76
  A 0.31 0.31 0.0 0 1 148.50 208.99
  Z
  M 314.38 204.79
  A 11.05 11.05 0.0 0 0 303.33 193.74
  A 11.05 11.05 0.0 0 0 292.28 204.79
  A 11.05 11.05 0.0 0 0 303.33 215.84
  A 11.05 11.05 0.0 0 0 314.38 204.79
  Z"
/>
<path fill="#0d0311" d="
  M 54.47 162.16
  C 55.97 161.17 57.25 159.80 59.11 158.86
  C 70.55 153.09 84.45 155.94 91.92 165.86
  C 101.71 178.88 100.62 202.09 85.71 211.52
  C 75.64 217.89 63.32 217.25 54.63 208.89
  A 0.52 0.52 0.0 0 0 53.75 209.27
  L 53.75 213.89
  A 0.62 0.61 -90.0 0 1 53.14 214.51
  L 38.34 214.51
  A 0.32 0.32 0.0 0 1 38.02 214.19
  L 38.02 136.62
  A 0.62 0.62 0.0 0 1 38.64 136.00
  L 53.26 136.00
  A 0.52 0.52 0.0 0 1 53.78 136.52
  L 53.78 161.79
  A 0.44 0.44 0.0 0 0 54.47 162.16
  Z
  M 68.5661 171.1406
  A 15.34 14.91 -90.5 0 0 53.7906 186.6101
  A 15.34 14.91 -90.5 0 0 68.8339 201.8194
  A 15.34 14.91 -90.5 0 0 83.6094 186.3499
  A 15.34 14.91 -90.5 0 0 68.5661 171.1406
  Z"
/>
<path fill="#0d0311" d="
  M 220.68 174.08
  A 0.51 0.51 0.0 0 1 220.17 174.64
  L 205.71 174.64
  A 0.90 0.90 0.0 0 1 204.84 173.97
  C 202.94 167.13 194.12 166.51 188.89 169.35
  Q 187.38 170.16 187.35 172.65
  C 187.23 181.15 225.20 174.87 222.10 200.40
  C 220.50 213.59 207.25 216.08 196.44 215.76
  C 183.11 215.37 171.24 210.68 170.10 195.60
  A 0.22 0.22 0.0 0 1 170.32 195.36
  L 185.46 195.36
  A 0.55 0.54 -1.7 0 1 186.01 195.87
  Q 186.33 200.95 191.31 202.47
  C 195.73 203.82 203.61 204.27 205.84 199.02
  C 207.23 195.75 202.79 193.87 200.13 193.13
  C 188.47 189.90 169.06 188.09 171.12 171.05
  C 172.90 156.35 191.80 154.34 202.95 156.53
  C 211.88 158.28 219.77 164.72 220.68 174.08
  Z"
/>
<path fill="#0d0311" d="
  M 286.64 197.95
  C 281.13 214.09 264.96 217.87 249.58 214.88
  C 240.09 213.04 232.67 206.37 230.11 197.07
  C 227.70 188.34 227.88 178.42 232.93 170.36
  Q 242.82 154.60 261.78 156.06
  C 280.44 157.49 290.37 173.37 288.10 191.21
  A 0.61 0.60 -86.2 0 1 287.50 191.74
  L 243.26 191.74
  A 0.38 0.37 82.3 0 0 242.90 192.22
  C 245.44 201.62 253.26 204.17 262.01 202.85
  Q 267.45 202.03 270.79 198.08
  A 2.22 2.20 19.9 0 1 272.48 197.30
  L 286.17 197.30
  A 0.50 0.49 9.6 0 1 286.64 197.95
  Z
  M 258.34 179.13
  Q 264.65 179.12 272.41 179.10
  A 0.52 0.52 0.0 0 0 272.89 178.39
  C 270.47 172.30 265.03 168.62 258.33 168.63
  C 251.62 168.64 246.19 172.33 243.79 178.43
  A 0.52 0.52 0.0 0 0 244.27 179.14
  Q 252.04 179.14 258.34 179.13
  Z"
/>
<path fill="#0d0311" d="
  M 148.50 208.99
  A 0.31 0.31 0.0 0 0 147.98 208.76
  Q 135.91 220.11 120.08 213.67
  C 113.51 210.99 108.46 205.00 106.03 198.15
  C 100.12 181.47 106.55 160.07 126.18 156.49
  Q 138.41 154.25 147.97 162.55
  A 0.31 0.31 0.0 0 0 148.48 162.32
  L 148.48 158.15
  A 0.67 0.66 0.0 0 1 149.15 157.49
  L 163.31 157.49
  A 0.15 0.15 0.0 0 1 163.46 157.64
  L 163.46 213.96
  A 0.68 0.68 0.0 0 1 162.78 214.64
  L 149.04 214.64
  A 0.54 0.54 0.0 0 1 148.50 214.10
  L 148.50 208.99
  Z
  M 135.2623 171.4312
  A 15.34 15.09 -82.5 0 0 118.2991 184.6704
  A 15.34 15.09 -82.5 0 0 131.2577 201.8488
  A 15.34 15.09 -82.5 0 0 148.2209 188.6096
  A 15.34 15.09 -82.5 0 0 135.2623 171.4312
  Z"
/>
<path fill="#ffffff" d="
  M 258.33 168.63
  C 265.03 168.62 270.47 172.30 272.89 178.39
  A 0.52 0.52 0.0 0 1 272.41 179.10
  Q 264.65 179.12 258.34 179.13
  Q 252.04 179.14 244.27 179.14
  A 0.52 0.52 0.0 0 1 243.79 178.43
  C 246.19 172.33 251.62 168.64 258.33 168.63
  Z"
/>
<ellipse fill="#ffffff" cx="0.00" cy="0.00" transform="translate(68.70,186.48) rotate(-90.5)" rx="15.34" ry="14.91"/>
<ellipse fill="#ffffff" cx="0.00" cy="0.00" transform="translate(133.26,186.64) rotate(-82.5)" rx="15.34" ry="15.09"/>
<circle fill="#307cf8" cx="303.33" cy="204.79" r="11.05"/>
</svg>
