<?xml version="1.0" encoding="UTF-8" standalone="no"?>
<!DOCTYPE svg PUBLIC "-//W3C//DTD SVG 1.1//EN" "http://www.w3.org/Graphics/SVG/1.1/DTD/svg11.dtd">
<svg xmlns="http://www.w3.org/2000/svg" version="1.1" viewBox="0.00 0.00 320.00 180.00">
<path fill="#148eff" d="
  M 179.39 93.83
  A 0.28 0.28 0.0 0 1 179.19 93.37
  L 186.86 84.34
  A 1.02 1.00 13.8 0 1 187.45 83.99
  Q 188.92 83.71 192.96 82.46
  C 200.43 80.16 209.70 73.36 203.51 64.46
  Q 201.25 61.20 198.14 58.70
  A 0.38 0.37 33.0 0 0 197.57 58.82
  Q 183.37 87.44 158.15 106.41
  A 0.31 0.30 -36.1 0 0 158.08 106.83
  Q 167.10 119.27 179.19 125.61
  A 0.59 0.58 -24.0 0 1 178.77 126.69
  Q 170.57 124.70 163.90 119.84
  Q 158.22 115.69 153.32 110.23
  A 0.63 0.61 53.9 0 0 152.55 110.10
  C 147.11 113.26 141.35 116.13 135.66 117.41
  C 119.90 120.96 110.67 112.52 112.39 96.03
  C 113.44 85.91 118.34 75.25 123.79 66.57
  A 0.32 0.32 0.0 0 1 124.37 66.63
  L 128.26 77.58
  A 2.12 2.12 0.0 0 1 128.26 79.02
  Q 125.36 87.28 126.59 93.49
  C 128.52 103.25 136.81 103.62 144.68 100.40
  A 0.53 0.52 62.0 0 0 144.91 99.62
  Q 127.47 73.36 123.58 42.11
  A 0.54 0.54 0.0 0 0 122.99 41.64
  Q 107.99 43.17 96.21 50.59
  A 0.46 0.45 0.9 0 1 95.59 49.95
  Q 96.39 48.79 97.51 47.75
  C 104.76 41.08 112.94 38.17 122.71 35.66
  A 0.70 0.69 81.7 0 0 123.23 34.96
  C 122.86 22.56 126.30 -1.19 144.79 2.31
  C 158.21 4.86 169.53 21.16 175.53 32.43
  A 0.05 0.05 0.0 0 1 175.48 32.51
  L 163.00 30.24
  A 0.87 0.83 -13.2 0 1 162.51 29.95
  Q 157.40 23.73 151.38 21.25
  C 141.09 17.02 137.02 24.81 135.56 33.19
  A 0.47 0.47 0.0 0 0 136.05 33.74
  Q 167.75 31.77 196.63 44.04
  A 0.51 0.51 0.0 0 0 197.30 43.78
  Q 203.42 30.04 202.83 16.31
  A 0.64 0.64 0.0 0 1 204.09 16.12
  Q 207.31 27.97 204.11 40.63
  Q 203.47 43.15 202.56 46.55
  A 0.65 0.65 0.0 0 0 202.89 47.30
  C 209.34 50.57 216.67 55.98 220.80 62.24
  C 230.34 76.69 218.63 87.11 205.52 90.88
  Q 193.50 94.34 179.39 93.83
  Z
  M 134.98 40.65
  Q 134.92 40.71 134.92 40.80
  Q 135.05 55.88 139.21 70.09
  Q 143.36 84.30 151.36 97.08
  Q 151.41 97.15 151.49 97.17
  Q 151.57 97.19 151.65 97.15
  Q 164.64 89.49 174.87 78.79
  Q 185.10 68.09 192.17 54.77
  Q 192.21 54.69 192.18 54.61
  Q 192.16 54.53 192.08 54.48
  Q 178.96 47.06 164.57 43.55
  Q 150.19 40.04 135.12 40.58
  Q 135.04 40.59 134.98 40.65
  Z"
/>
<path fill="#1a1c23" d="
  M 223.64 162.86
  Q 221.09 160.75 215.80 156.17
  A 0.25 0.24 -69.6 0 0 215.39 156.36
  L 215.39 173.63
  A 0.99 0.98 -0.0 0 1 214.40 174.61
  L 208.84 174.62
  A 0.93 0.93 0.0 0 1 207.91 173.69
  L 207.91 148.19
  A 1.91 1.89 58.6 0 1 208.11 147.34
  Q 209.88 143.89 213.13 145.39
  A 3.25 3.05 -10.3 0 1 213.88 145.87
  Q 221.87 152.75 227.69 157.58
  Q 230.24 159.69 235.53 164.27
  A 0.25 0.24 -69.6 0 0 235.94 164.08
  L 235.94 146.81
  A 0.99 0.98 0.0 0 1 236.93 145.83
  L 242.49 145.82
  A 0.93 0.93 0.0 0 1 243.42 146.75
  L 243.42 172.25
  A 1.91 1.89 58.6 0 1 243.22 173.10
  Q 241.45 176.55 238.20 175.05
  A 3.25 3.05 -10.3 0 1 237.46 174.57
  Q 229.46 167.69 223.64 162.86
  Z"
/>
<path fill="#1a1c23" d="
  M 29.94 160.22
  C 36.02 162.90 35.10 170.64 30.43 173.29
  Q 28.01 174.66 21.82 174.60
  Q 8.04 174.49 1.46 174.52
  A 0.61 0.61 0.0 0 1 0.85 173.91
  L 0.85 146.42
  A 0.60 0.59 -90.0 0 1 1.44 145.82
  Q 10.98 145.82 22.04 145.81
  C 27.67 145.81 32.27 147.34 33.14 153.22
  Q 33.76 157.39 29.91 159.55
  A 0.38 0.37 -47.8 0 0 29.94 160.22
  Z
  M 8.30 152.05
  L 8.32 156.89
  A 0.46 0.46 0.0 0 0 8.78 157.35
  L 22.64 157.30
  A 3.60 2.66 -0.2 0 0 26.23 154.63
  L 26.23 154.19
  A 3.60 2.66 -0.2 0 0 22.62 151.54
  L 8.76 151.59
  A 0.46 0.46 0.0 0 0 8.30 152.05
  Z
  M 8.30 163.58
  L 8.30 168.18
  A 0.48 0.48 0.0 0 0 8.78 168.66
  L 24.46 168.69
  A 2.86 2.62 0.1 0 0 27.32 166.08
  L 27.32 165.76
  A 2.86 2.62 0.1 0 0 24.46 163.13
  L 8.78 163.10
  A 0.48 0.48 0.0 0 0 8.30 163.58
  Z"
/>
<path fill="#1a1c23" d="
  M 56.35 145.82
  Q 58.98 145.82 60.17 145.89
  A 3.33 3.32 -11.6 0 1 62.95 147.72
  L 75.85 173.60
  A 0.62 0.62 0.0 0 1 75.29 174.50
  L 69.62 174.50
  A 1.24 1.22 76.7 0 1 68.52 173.81
  L 66.15 169.07
  A 1.18 1.16 77.0 0 0 65.12 168.42
  Q 64.07 168.39 56.36 168.39
  Q 48.64 168.39 47.59 168.42
  A 1.18 1.16 -77.1 0 0 46.56 169.07
  L 44.20 173.81
  A 1.24 1.22 -76.7 0 1 43.10 174.50
  L 37.43 174.51
  A 0.62 0.62 0.0 0 1 36.87 173.61
  L 49.76 147.72
  A 3.33 3.32 11.6 0 1 52.54 145.89
  Q 53.73 145.82 56.35 145.82
  Z
  M 56.34 162.66
  Q 61.25 162.66 62.43 162.64
  A 0.34 0.34 0.0 0 0 62.73 162.13
  Q 60.61 158.18 57.87 152.42
  Q 57.48 151.59 56.35 151.59
  Q 55.21 151.59 54.82 152.42
  Q 52.08 158.17 49.95 162.12
  A 0.34 0.34 0.0 0 0 50.25 162.63
  Q 51.43 162.65 56.34 162.66
  Z"
/>
<path fill="#1a1c23" d="
  M 81.95 172.14
  L 81.95 152.07
  A 0.53 0.53 0.0 0 0 81.42 151.54
  L 72.32 151.54
  A 0.53 0.53 0.0 0 1 71.84 151.25
  L 69.52 146.59
  A 0.53 0.53 0.0 0 1 70.00 145.82
  L 97.95 145.82
  A 0.53 0.53 0.0 0 1 98.48 146.35
  L 98.48 151.03
  A 0.53 0.53 0.0 0 1 97.95 151.56
  L 89.90 151.56
  A 0.53 0.53 0.0 0 0 89.37 152.09
  L 89.37 177.54
  A 0.53 0.53 0.0 0 1 88.50 177.95
  L 82.14 172.55
  A 0.53 0.53 0.0 0 1 81.95 172.14
  Z"
/>
<path fill="#1a1c23" d="
  M 104.48 151.32
  L 101.84 146.03
  A 0.15 0.15 0.0 0 1 101.97 145.82
  L 130.67 145.82
  A 0.64 0.64 0.0 0 1 131.31 146.46
  L 131.31 150.95
  A 0.65 0.64 -0.0 0 1 130.66 151.59
  L 120.42 151.59
  A 0.60 0.59 -90.0 0 0 119.83 152.19
  Q 119.84 169.67 119.86 177.24
  Q 119.86 177.67 119.60 177.93
  Q 119.27 178.27 118.92 177.97
  Q 115.05 174.65 113.25 173.17
  A 2.04 2.03 -70.5 0 1 112.50 171.59
  L 112.50 152.12
  A 0.56 0.56 0.0 0 0 111.94 151.56
  L 104.87 151.56
  A 0.44 0.43 -13.2 0 1 104.48 151.32
  Z"
/>
<path fill="#1a1c23" d="
  M 163.85 173.59
  A 0.91 0.91 0.0 0 1 162.94 174.50
  Q 145.69 174.47 143.23 174.53
  C 136.65 174.69 134.84 169.95 135.10 163.85
  Q 135.11 163.39 135.14 146.64
  A 0.84 0.84 0.0 0 1 135.98 145.80
  L 141.84 145.80
  A 0.77 0.77 0.0 0 1 142.61 146.57
  L 142.61 167.08
  A 1.62 1.61 -90.0 0 0 144.22 168.70
  L 162.94 168.70
  A 0.91 0.91 0.0 0 1 163.85 169.61
  L 163.85 173.59
  Z"
/>
<path fill="#1a1c23" d="
  M 199.85 145.82
  A 0.73 0.72 90.0 0 1 200.57 146.55
  L 200.57 150.90
  A 0.74 0.73 90.0 0 1 199.84 151.64
  L 174.77 151.64
  A 0.44 0.44 0.0 0 0 174.33 152.08
  L 174.33 156.91
  A 0.44 0.44 0.0 0 0 174.77 157.35
  L 189.07 157.35
  A 2.66 2.65 1.1 0 1 191.73 160.11
  L 191.71 160.40
  A 2.73 2.73 0.0 0 1 188.98 163.14
  L 175.20 163.11
  A 0.86 0.86 0.0 0 0 174.34 163.97
  L 174.34 167.32
  A 1.49 1.48 0.0 0 0 175.83 168.80
  L 199.86 168.80
  A 0.72 0.72 0.0 0 1 200.58 169.52
  L 200.58 173.84
  A 0.75 0.75 0.0 0 1 199.83 174.59
  Q 177.15 174.57 176.75 174.59
  C 171.40 174.79 168.07 173.45 166.88 168.31
  A 1.43 1.26 -55.5 0 1 166.84 167.98
  L 166.84 149.22
  A 0.60 0.43 62.1 0 1 166.86 149.07
  Q 167.64 145.86 170.53 145.85
  Q 185.45 145.79 199.85 145.82
  Z"
/>
<path fill="#1a1c23" d="
  M 257.04 156.97
  A 0.38 0.38 0.0 0 0 257.42 157.35
  L 278.24 157.35
  A 2.62 2.61 -88.4 0 1 280.85 160.11
  L 280.85 160.36
  A 2.82 2.81 0.3 0 1 278.03 163.14
  L 257.80 163.12
  A 0.76 0.76 0.0 0 0 257.04 163.88
  L 257.04 167.32
  A 1.49 1.49 0.0 0 0 258.53 168.81
  L 282.62 168.81
  A 0.68 0.67 -0.0 0 1 283.30 169.48
  L 283.30 173.90
  A 0.68 0.68 0.0 0 1 282.61 174.58
  Q 275.83 174.56 259.09 174.61
  C 254.57 174.63 252.31 174.03 250.31 170.51
  Q 249.52 169.13 249.53 166.49
  Q 249.61 154.55 249.52 150.22
  Q 249.44 145.90 253.49 145.83
  Q 253.87 145.83 282.55 145.81
  A 0.75 0.74 -0.0 0 1 283.30 146.55
  L 283.30 150.90
  A 0.74 0.73 -0.0 0 1 282.56 151.63
  L 257.47 151.63
  A 0.44 0.43 -90.0 0 0 257.04 152.07
  L 257.04 156.97
  Z"
/>
<path fill="#1a1c23" d="
  M 289.23 151.31
  L 286.88 146.60
  A 0.53 0.53 0.0 0 1 287.36 145.83
  L 318.52 145.83
  A 0.53 0.53 0.0 0 1 319.05 146.36
  L 319.05 151.06
  A 0.53 0.53 0.0 0 1 318.52 151.59
  L 307.24 151.59
  A 0.53 0.53 0.0 0 0 306.71 152.12
  L 306.71 177.54
  A 0.53 0.53 0.0 0 1 305.84 177.95
  L 299.65 172.69
  A 0.53 0.53 0.0 0 1 299.46 172.28
  L 299.46 152.13
  A 0.53 0.53 0.0 0 0 298.93 151.60
  L 289.71 151.60
  A 0.53 0.53 0.0 0 1 289.23 151.31
  Z"
/>
<circle fill="#148eff" cx="199.60" cy="160.18" r="3.62"/>
</svg>
