<?xml version="1.0" encoding="UTF-8" standalone="no"?>
<!DOCTYPE svg PUBLIC "-//W3C//DTD SVG 1.1//EN" "http://www.w3.org/Graphics/SVG/1.1/DTD/svg11.dtd">
<svg xmlns="http://www.w3.org/2000/svg" version="1.1" viewBox="0.00 0.00 1200.00 1200.00">
<g stroke-width="2.00" fill="none" stroke-linecap="butt">
<path stroke="#9c9c9c" vector-effect="non-scaling-stroke" d="
  M 288.88 749.23
  C 288.75 754.65 289.43 759.76 290.02 765.11
  C 299.46 850.54 336.38 930.67 398.89 989.76
  C 406.99 997.41 416.96 1005.44 427.44 1014.56
  Q 485.77 1065.31 541.96 1114.28
  Q 565.85 1135.10 597.72 1135.73
  C 618.39 1136.14 639.07 1129.03 654.40 1115.88
  Q 656.74 1113.87 762.42 1022.02
  Q 798.94 990.28 801.45 987.86
  C 862.85 928.80 899.31 849.06 908.54 764.77
  Q 909.34 757.44 910.07 749.00
  A 0.72 0.72 0.0 0 1 910.94 748.36
  Q 959.95 759.01 1008.37 744.85
  C 1053.46 731.66 1090.69 701.14 1113.22 660.22
  C 1138.38 614.53 1145.06 562.79 1143.72 511.26
  C 1142.42 461.17 1130.56 410.77 1101.55 369.85
  C 1071.04 326.83 1024.40 301.83 971.02 296.48
  Q 966.26 296.00 959.46 296.02
  C 948.56 296.05 940.49 295.78 930.55 296.89
  Q 886.31 301.86 846.81 322.62
  A 0.43 0.42 69.4 0 1 846.20 322.34
  Q 841.09 299.76 831.78 278.30
  A 1.49 1.48 43.5 0 1 831.75 277.21
  Q 832.23 275.86 833.19 274.43
  C 838.62 266.29 847.01 256.06 851.78 247.79
  C 872.46 211.98 874.06 169.05 856.34 132.03
  C 841.39 100.80 812.62 76.87 779.25 67.72
  C 734.15 55.35 687.84 69.03 655.64 103.27
  C 649.96 109.30 643.11 119.06 638.21 126.08
  A 0.50 0.50 0.0 0 1 637.72 126.29
  Q 623.22 123.91 609.22 123.53
  C 597.77 123.22 584.57 123.35 571.28 124.73
  A 3.00 2.98 -19.1 0 1 568.45 123.37
  C 552.86 98.93 531.44 80.47 503.94 70.58
  C 460.80 55.06 413.35 64.57 379.60 95.60
  C 337.39 134.41 328.38 196.90 356.36 246.64
  C 360.34 253.72 364.80 259.30 370.89 267.60
  A 1.65 1.65 0.0 0 1 371.04 269.29
  Q 358.73 294.84 352.46 322.02
  A 0.34 0.34 0.0 0 1 351.98 322.25
  C 324.09 308.02 293.98 298.96 262.86 296.39
  C 255.59 295.79 247.62 296.14 240.43 296.00
  Q 231.97 295.85 223.66 296.81
  C 173.04 302.65 128.05 327.30 98.20 368.21
  C 70.49 406.20 58.20 452.79 55.36 499.17
  C 54.95 505.95 55.06 512.23 54.53 518.50
  C 53.98 525.04 54.82 533.32 55.00 539.56
  C 56.87 602.87 76.57 668.77 126.40 710.60
  C 167.38 745.01 219.91 757.89 273.01 751.03
  Q 279.51 750.19 288.13 748.59
  A 0.64 0.63 -4.4 0 1 288.88 749.23"
/>
<path stroke="#9c8221" vector-effect="non-scaling-stroke" d="
  M 675.76 228.98
  Q 671.62 226.64 665.24 223.82
  Q 611.01 199.80 553.27 216.26
  Q 541.55 219.60 531.44 224.58
  A 1.48 1.47 63.9 0 1 529.45 223.89
  Q 527.04 218.80 523.68 213.07
  Q 510.21 190.07 494.83 168.91
  C 487.24 158.47 480.30 152.07 467.26 149.94
  C 458.41 148.49 448.45 151.32 441.62 156.35
  Q 428.20 166.21 426.60 183.04
  C 425.85 191.00 428.80 200.57 433.40 206.62
  Q 455.97 236.26 471.64 268.08
  A 3.27 3.26 51.6 0 1 471.24 271.58
  Q 446.00 302.40 436.40 342.09
  A 2.04 2.03 -66.1 0 0 437.23 344.25
  L 598.63 454.35
  A 1.16 1.15 -44.7 0 0 599.94 454.35
  L 761.92 343.87
  A 1.07 1.06 66.5 0 0 762.36 342.74
  C 757.02 320.24 747.21 297.70 733.23 279.28
  A 2.23 2.21 38.9 0 1 732.98 277.02
  Q 748.61 242.90 770.71 213.09
  Q 777.83 203.49 779.59 199.11
  Q 784.00 188.16 781.30 177.21
  C 776.43 157.41 755.67 145.17 736.12 151.11
  Q 724.58 154.61 716.90 164.90
  Q 695.83 193.14 679.45 223.20
  Q 678.04 225.79 677.24 228.39
  A 1.03 1.02 23.1 0 1 675.76 228.98"
/>
<path stroke="#9c8221" vector-effect="non-scaling-stroke" d="
  M 496.35 524.24
  Q 496.35 523.58 495.72 523.15
  Q 372.61 439.09 326.53 407.80
  C 296.49 387.40 256.89 376.75 220.78 384.53
  C 155.54 398.60 140.96 468.31 140.96 524.25
  C 140.96 580.19 155.54 649.90 220.77 663.97
  C 256.88 671.76 296.48 661.12 326.52 640.72
  Q 372.61 609.43 495.72 525.38
  Q 496.35 524.95 496.35 524.24"
/>
<path stroke="#9c8221" vector-effect="non-scaling-stroke" d="
  M 702.25 524.26
  Q 702.25 524.92 702.88 525.35
  Q 825.95 609.41 872.02 640.70
  C 902.05 661.10 941.64 671.75 977.75 663.97
  C 1042.97 649.92 1057.56 580.22 1057.57 524.30
  C 1057.58 468.37 1043.01 398.66 977.79 384.59
  C 941.69 376.80 902.09 387.43 872.06 407.82
  Q 825.98 439.10 702.88 523.12
  Q 702.25 523.55 702.25 524.26"
/>
<path stroke="#9c8221" vector-effect="non-scaling-stroke" d="
  M 599.24 1048.96
  Q 599.70 1048.96 599.97 1048.73
  Q 718.42 945.64 718.44 945.60
  Q 718.68 945.19 730.20 935.57
  C 786.06 888.93 817.68 818.48 823.51 746.86
  A 2.01 2.00 -73.6 0 0 822.47 744.94
  C 817.53 742.25 812.57 739.23 807.99 736.10
  Q 636.25 618.98 599.98 594.28
  Q 599.74 594.12 599.22 594.12
  Q 598.70 594.12 598.46 594.28
  Q 562.19 618.98 390.46 736.12
  C 385.88 739.25 380.92 742.27 375.98 744.96
  A 2.01 2.00 73.6 0 0 374.94 746.88
  C 380.78 818.50 412.41 888.95 468.27 935.58
  Q 479.79 945.20 480.03 945.61
  Q 480.05 945.65 598.51 1048.73
  Q 598.78 1048.96 599.24 1048.96"
/>
<path stroke="#9c8221" vector-effect="non-scaling-stroke" d="
  M 463.66 689.32
  Q 463.95 690.90 463.76 692.01
  Q 461.07 707.58 461.44 723.75
  Q 461.65 732.92 461.56 733.97
  A 0.67 0.66 -88.0 0 0 462.22 734.69
  L 735.82 734.69
  A 0.52 0.52 0.0 0 0 736.34 734.21
  Q 737.51 721.21 737.00 714.00
  Q 736.15 702.01 734.99 689.62
  A 0.81 0.80 87.2 0 0 734.19 688.89
  L 464.02 688.89
  A 0.37 0.36 -5.2 0 0 463.66 689.32"
/>
<path stroke="#9c8221" vector-effect="non-scaling-stroke" d="
  M 599.15 876.97
  Q 648.58 876.97 661.50 877.11
  Q 663.55 877.13 665.08 875.83
  C 674.30 867.96 679.33 864.12 685.52 857.59
  Q 694.43 848.17 703.07 836.06
  A 0.47 0.47 0.0 0 0 702.74 835.32
  C 701.09 835.14 699.46 835.58 697.41 835.57
  Q 693.70 835.55 599.15 835.55
  Q 504.60 835.55 500.89 835.56
  C 498.84 835.57 497.21 835.13 495.56 835.31
  A 0.47 0.47 0.0 0 0 495.23 836.05
  Q 503.87 848.17 512.78 857.59
  C 518.97 864.12 524.00 867.96 533.22 875.83
  Q 534.75 877.13 536.80 877.11
  Q 549.72 876.97 599.15 876.97"
/>
</g>
<path fill="#ffffff" d="
  M 1200.00 0.00
  L 1200.00 1200.00
  L 0.00 1200.00
  L 0.00 0.00
  L 1200.00 0.00
  Z
  M 288.88 749.23
  C 288.75 754.65 289.43 759.76 290.02 765.11
  C 299.46 850.54 336.38 930.67 398.89 989.76
  C 406.99 997.41 416.96 1005.44 427.44 1014.56
  Q 485.77 1065.31 541.96 1114.28
  Q 565.85 1135.10 597.72 1135.73
  C 618.39 1136.14 639.07 1129.03 654.40 1115.88
  Q 656.74 1113.87 762.42 1022.02
  Q 798.94 990.28 801.45 987.86
  C 862.85 928.80 899.31 849.06 908.54 764.77
  Q 909.34 757.44 910.07 749.00
  A 0.72 0.72 0.0 0 1 910.94 748.36
  Q 959.95 759.01 1008.37 744.85
  C 1053.46 731.66 1090.69 701.14 1113.22 660.22
  C 1138.38 614.53 1145.06 562.79 1143.72 511.26
  C 1142.42 461.17 1130.56 410.77 1101.55 369.85
  C 1071.04 326.83 1024.40 301.83 971.02 296.48
  Q 966.26 296.00 959.46 296.02
  C 948.56 296.05 940.49 295.78 930.55 296.89
  Q 886.31 301.86 846.81 322.62
  A 0.43 0.42 69.4 0 1 846.20 322.34
  Q 841.09 299.76 831.78 278.30
  A 1.49 1.48 43.5 0 1 831.75 277.21
  Q 832.23 275.86 833.19 274.43
  C 838.62 266.29 847.01 256.06 851.78 247.79
  C 872.46 211.98 874.06 169.05 856.34 132.03
  C 841.39 100.80 812.62 76.87 779.25 67.72
  C 734.15 55.35 687.84 69.03 655.64 103.27
  C 649.96 109.30 643.11 119.06 638.21 126.08
  A 0.50 0.50 0.0 0 1 637.72 126.29
  Q 623.22 123.91 609.22 123.53
  C 597.77 123.22 584.57 123.35 571.28 124.73
  A 3.00 2.98 -19.1 0 1 568.45 123.37
  C 552.86 98.93 531.44 80.47 503.94 70.58
  C 460.80 55.06 413.35 64.57 379.60 95.60
  C 337.39 134.41 328.38 196.90 356.36 246.64
  C 360.34 253.72 364.80 259.30 370.89 267.60
  A 1.65 1.65 0.0 0 1 371.04 269.29
  Q 358.73 294.84 352.46 322.02
  A 0.34 0.34 0.0 0 1 351.98 322.25
  C 324.09 308.02 293.98 298.96 262.86 296.39
  C 255.59 295.79 247.62 296.14 240.43 296.00
  Q 231.97 295.85 223.66 296.81
  C 173.04 302.65 128.05 327.30 98.20 368.21
  C 70.49 406.20 58.20 452.79 55.36 499.17
  C 54.95 505.95 55.06 512.23 54.53 518.50
  C 53.98 525.04 54.82 533.32 55.00 539.56
  C 56.87 602.87 76.57 668.77 126.40 710.60
  C 167.38 745.01 219.91 757.89 273.01 751.03
  Q 279.51 750.19 288.13 748.59
  A 0.64 0.63 -4.4 0 1 288.88 749.23
  Z"
/>
<path fill="#383839" d="
  M 288.88 749.23
  A 0.64 0.63 -4.4 0 0 288.13 748.59
  Q 279.51 750.19 273.01 751.03
  C 219.91 757.89 167.38 745.01 126.40 710.60
  C 76.57 668.77 56.87 602.87 55.00 539.56
  C 54.82 533.32 53.98 525.04 54.53 518.50
  C 55.06 512.23 54.95 505.95 55.36 499.17
  C 58.20 452.79 70.49 406.20 98.20 368.21
  C 128.05 327.30 173.04 302.65 223.66 296.81
  Q 231.97 295.85 240.43 296.00
  C 247.62 296.14 255.59 295.79 262.86 296.39
  C 293.98 298.96 324.09 308.02 351.98 322.25
  A 0.34 0.34 0.0 0 0 352.46 322.02
  Q 358.73 294.84 371.04 269.29
  A 1.65 1.65 0.0 0 0 370.89 267.60
  C 364.80 259.30 360.34 253.72 356.36 246.64
  C 328.38 196.90 337.39 134.41 379.60 95.60
  C 413.35 64.57 460.80 55.06 503.94 70.58
  C 531.44 80.47 552.86 98.93 568.45 123.37
  A 3.00 2.98 -19.1 0 0 571.28 124.73
  C 584.57 123.35 597.77 123.22 609.22 123.53
  Q 623.22 123.91 637.72 126.29
  A 0.50 0.50 0.0 0 0 638.21 126.08
  C 643.11 119.06 649.96 109.30 655.64 103.27
  C 687.84 69.03 734.15 55.35 779.25 67.72
  C 812.62 76.87 841.39 100.80 856.34 132.03
  C 874.06 169.05 872.46 211.98 851.78 247.79
  C 847.01 256.06 838.62 266.29 833.19 274.43
  Q 832.23 275.86 831.75 277.21
  A 1.49 1.48 43.5 0 0 831.78 278.30
  Q 841.09 299.76 846.20 322.34
  A 0.43 0.42 69.4 0 0 846.81 322.62
  Q 886.31 301.86 930.55 296.89
  C 940.49 295.78 948.56 296.05 959.46 296.02
  Q 966.26 296.00 971.02 296.48
  C 1024.40 301.83 1071.04 326.83 1101.55 369.85
  C 1130.56 410.77 1142.42 461.17 1143.72 511.26
  C 1145.06 562.79 1138.38 614.53 1113.22 660.22
  C 1090.69 701.14 1053.46 731.66 1008.37 744.85
  Q 959.95 759.01 910.94 748.36
  A 0.72 0.72 0.0 0 0 910.07 749.00
  Q 909.34 757.44 908.54 764.77
  C 899.31 849.06 862.85 928.80 801.45 987.86
  Q 798.94 990.28 762.42 1022.02
  Q 656.74 1113.87 654.40 1115.88
  C 639.07 1129.03 618.39 1136.14 597.72 1135.73
  Q 565.85 1135.10 541.96 1114.28
  Q 485.77 1065.31 427.44 1014.56
  C 416.96 1005.44 406.99 997.41 398.89 989.76
  C 336.38 930.67 299.46 850.54 290.02 765.11
  C 289.43 759.76 288.75 754.65 288.88 749.23
  Z
  M 675.76 228.98
  Q 671.62 226.64 665.24 223.82
  Q 611.01 199.80 553.27 216.26
  Q 541.55 219.60 531.44 224.58
  A 1.48 1.47 63.9 0 1 529.45 223.89
  Q 527.04 218.80 523.68 213.07
  Q 510.21 190.07 494.83 168.91
  C 487.24 158.47 480.30 152.07 467.26 149.94
  C 458.41 148.49 448.45 151.32 441.62 156.35
  Q 428.20 166.21 426.60 183.04
  C 425.85 191.00 428.80 200.57 433.40 206.62
  Q 455.97 236.26 471.64 268.08
  A 3.27 3.26 51.6 0 1 471.24 271.58
  Q 446.00 302.40 436.40 342.09
  A 2.04 2.03 -66.1 0 0 437.23 344.25
  L 598.63 454.35
  A 1.16 1.15 -44.7 0 0 599.94 454.35
  L 761.92 343.87
  A 1.07 1.06 66.5 0 0 762.36 342.74
  C 757.02 320.24 747.21 297.70 733.23 279.28
  A 2.23 2.21 38.9 0 1 732.98 277.02
  Q 748.61 242.90 770.71 213.09
  Q 777.83 203.49 779.59 199.11
  Q 784.00 188.16 781.30 177.21
  C 776.43 157.41 755.67 145.17 736.12 151.11
  Q 724.58 154.61 716.90 164.90
  Q 695.83 193.14 679.45 223.20
  Q 678.04 225.79 677.24 228.39
  A 1.03 1.02 23.1 0 1 675.76 228.98
  Z
  M 496.35 524.24
  Q 496.35 523.58 495.72 523.15
  Q 372.61 439.09 326.53 407.80
  C 296.49 387.40 256.89 376.75 220.78 384.53
  C 155.54 398.60 140.96 468.31 140.96 524.25
  C 140.96 580.19 155.54 649.90 220.77 663.97
  C 256.88 671.76 296.48 661.12 326.52 640.72
  Q 372.61 609.43 495.72 525.38
  Q 496.35 524.95 496.35 524.24
  Z
  M 702.25 524.26
  Q 702.25 524.92 702.88 525.35
  Q 825.95 609.41 872.02 640.70
  C 902.05 661.10 941.64 671.75 977.75 663.97
  C 1042.97 649.92 1057.56 580.22 1057.57 524.30
  C 1057.58 468.37 1043.01 398.66 977.79 384.59
  C 941.69 376.80 902.09 387.43 872.06 407.82
  Q 825.98 439.10 702.88 523.12
  Q 702.25 523.55 702.25 524.26
  Z
  M 599.24 1048.96
  Q 599.70 1048.96 599.97 1048.73
  Q 718.42 945.64 718.44 945.60
  Q 718.68 945.19 730.20 935.57
  C 786.06 888.93 817.68 818.48 823.51 746.86
  A 2.01 2.00 -73.6 0 0 822.47 744.94
  C 817.53 742.25 812.57 739.23 807.99 736.10
  Q 636.25 618.98 599.98 594.28
  Q 599.74 594.12 599.22 594.12
  Q 598.70 594.12 598.46 594.28
  Q 562.19 618.98 390.46 736.12
  C 385.88 739.25 380.92 742.27 375.98 744.96
  A 2.01 2.00 73.6 0 0 374.94 746.88
  C 380.78 818.50 412.41 888.95 468.27 935.58
  Q 479.79 945.20 480.03 945.61
  Q 480.05 945.65 598.51 1048.73
  Q 598.78 1048.96 599.24 1048.96
  Z"
/>
<path fill="#ffcb08" d="
  M 675.76 228.98
  A 1.03 1.02 23.1 0 0 677.24 228.39
  Q 678.04 225.79 679.45 223.20
  Q 695.83 193.14 716.90 164.90
  Q 724.58 154.61 736.12 151.11
  C 755.67 145.17 776.43 157.41 781.30 177.21
  Q 784.00 188.16 779.59 199.11
  Q 777.83 203.49 770.71 213.09
  Q 748.61 242.90 732.98 277.02
  A 2.23 2.21 38.9 0 0 733.23 279.28
  C 747.21 297.70 757.02 320.24 762.36 342.74
  A 1.07 1.06 66.5 0 1 761.92 343.87
  L 599.94 454.35
  A 1.16 1.15 -44.7 0 1 598.63 454.35
  L 437.23 344.25
  A 2.04 2.03 -66.1 0 1 436.40 342.09
  Q 446.00 302.40 471.24 271.58
  A 3.27 3.26 51.6 0 0 471.64 268.08
  Q 455.97 236.26 433.40 206.62
  C 428.80 200.57 425.85 191.00 426.60 183.04
  Q 428.20 166.21 441.62 156.35
  C 448.45 151.32 458.41 148.49 467.26 149.94
  C 480.30 152.07 487.24 158.47 494.83 168.91
  Q 510.21 190.07 523.68 213.07
  Q 527.04 218.80 529.45 223.89
  A 1.48 1.47 63.9 0 0 531.44 224.58
  Q 541.55 219.60 553.27 216.26
  Q 611.01 199.80 665.24 223.82
  Q 671.62 226.64 675.76 228.98
  Z"
/>
<path fill="#ffcb08" d="
  M 496.35 524.24
  Q 496.35 524.95 495.72 525.38
  Q 372.61 609.43 326.52 640.72
  C 296.48 661.12 256.88 671.76 220.77 663.97
  C 155.54 649.90 140.96 580.19 140.96 524.25
  C 140.96 468.31 155.54 398.60 220.78 384.53
  C 256.89 376.75 296.49 387.40 326.53 407.80
  Q 372.61 439.09 495.72 523.15
  Q 496.35 523.58 496.35 524.24
  Z"
/>
<path fill="#ffcb08" d="
  M 1057.57 524.30
  C 1057.56 580.22 1042.97 649.92 977.75 663.97
  C 941.64 671.75 902.05 661.10 872.02 640.70
  Q 825.95 609.41 702.88 525.35
  Q 702.25 524.92 702.25 524.26
  Q 702.25 523.55 702.88 523.12
  Q 825.98 439.10 872.06 407.82
  C 902.09 387.43 941.69 376.80 977.79 384.59
  C 1043.01 398.66 1057.58 468.37 1057.57 524.30
  Z"
/>
<path fill="#ffcb08" d="
  M 599.24 1048.96
  Q 598.78 1048.96 598.51 1048.73
  Q 480.05 945.65 480.03 945.61
  Q 479.79 945.20 468.27 935.58
  C 412.41 888.95 380.78 818.50 374.94 746.88
  A 2.01 2.00 73.6 0 1 375.98 744.96
  C 380.92 742.27 385.88 739.25 390.46 736.12
  Q 562.19 618.98 598.46 594.28
  Q 598.70 594.12 599.22 594.12
  Q 599.74 594.12 599.98 594.28
  Q 636.25 618.98 807.99 736.10
  C 812.57 739.23 817.53 742.25 822.47 744.94
  A 2.01 2.00 -73.6 0 1 823.51 746.86
  C 817.68 818.48 786.06 888.93 730.20 935.57
  Q 718.68 945.19 718.44 945.60
  Q 718.42 945.64 599.97 1048.73
  Q 599.70 1048.96 599.24 1048.96
  Z
  M 463.66 689.32
  Q 463.95 690.90 463.76 692.01
  Q 461.07 707.58 461.44 723.75
  Q 461.65 732.92 461.56 733.97
  A 0.67 0.66 -88.0 0 0 462.22 734.69
  L 735.82 734.69
  A 0.52 0.52 0.0 0 0 736.34 734.21
  Q 737.51 721.21 737.00 714.00
  Q 736.15 702.01 734.99 689.62
  A 0.81 0.80 87.2 0 0 734.19 688.89
  L 464.02 688.89
  A 0.37 0.36 -5.2 0 0 463.66 689.32
  Z
  M 599.15 876.97
  Q 648.58 876.97 661.50 877.11
  Q 663.55 877.13 665.08 875.83
  C 674.30 867.96 679.33 864.12 685.52 857.59
  Q 694.43 848.17 703.07 836.06
  A 0.47 0.47 0.0 0 0 702.74 835.32
  C 701.09 835.14 699.46 835.58 697.41 835.57
  Q 693.70 835.55 599.15 835.55
  Q 504.60 835.55 500.89 835.56
  C 498.84 835.57 497.21 835.13 495.56 835.31
  A 0.47 0.47 0.0 0 0 495.23 836.05
  Q 503.87 848.17 512.78 857.59
  C 518.97 864.12 524.00 867.96 533.22 875.83
  Q 534.75 877.13 536.80 877.11
  Q 549.72 876.97 599.15 876.97
  Z"
/>
<path fill="#383839" d="
  M 463.66 689.32
  A 0.37 0.36 -5.2 0 1 464.02 688.89
  L 734.19 688.89
  A 0.81 0.80 87.2 0 1 734.99 689.62
  Q 736.15 702.01 737.00 714.00
  Q 737.51 721.21 736.34 734.21
  A 0.52 0.52 0.0 0 1 735.82 734.69
  L 462.22 734.69
  A 0.67 0.66 -88.0 0 1 461.56 733.97
  Q 461.65 732.92 461.44 723.75
  Q 461.07 707.58 463.76 692.01
  Q 463.95 690.90 463.66 689.32
  Z"
/>
<path fill="#383839" d="
  M 599.15 835.55
  Q 693.70 835.55 697.41 835.57
  C 699.46 835.58 701.09 835.14 702.74 835.32
  A 0.47 0.47 0.0 0 1 703.07 836.06
  Q 694.43 848.17 685.52 857.59
  C 679.33 864.12 674.30 867.96 665.08 875.83
  Q 663.55 877.13 661.50 877.11
  Q 648.58 876.97 599.15 876.97
  Q 549.72 876.97 536.80 877.11
  Q 534.75 877.13 533.22 875.83
  C 524.00 867.96 518.97 864.12 512.78 857.59
  Q 503.87 848.17 495.23 836.05
  A 0.47 0.47 0.0 0 1 495.56 835.31
  C 497.21 835.13 498.84 835.57 500.89 835.56
  Q 504.60 835.55 599.15 835.55
  Z"
/>
</svg>
