<?xml version="1.0" encoding="UTF-8" standalone="no"?>
<!DOCTYPE svg PUBLIC "-//W3C//DTD SVG 1.1//EN" "http://www.w3.org/Graphics/SVG/1.1/DTD/svg11.dtd">
<svg xmlns="http://www.w3.org/2000/svg" version="1.1" viewBox="0.00 0.00 32.00 32.00">
<path fill="#008ed8" d="
  M 2.86 24.77
  A 0.43 0.42 0.7 0 1 2.44 24.35
  L 2.44 10.07
  A 1.50 1.49 -66.6 0 0 2.04 9.05
  L 1.05 8.02
  A 0.42 0.42 0.0 0 1 1.35 7.32
  Q 8.03 7.28 12.17 7.40
  C 15.94 7.52 17.81 13.25 14.49 15.17
  Q 14.13 15.37 14.08 15.43
  A 0.46 0.46 0.0 0 0 14.19 16.15
  C 18.51 18.57 16.76 24.60 11.72 24.70
  Q 7.26 24.78 2.86 24.77
  Z
  M 5.84 10.82
  L 5.86 13.84
  A 0.36 0.36 0.0 0 0 6.22 14.20
  L 10.51 14.17
  A 1.95 1.66 -0.3 0 0 12.45 12.50
  L 12.45 12.08
  A 1.95 1.66 -0.3 0 0 10.49 10.43
  L 6.20 10.46
  A 0.36 0.36 0.0 0 0 5.84 10.82
  Z
  M 5.84 17.75
  L 5.84 21.19
  A 0.40 0.40 0.0 0 0 6.24 21.59
  L 10.79 21.60
  A 1.95 1.92 0.1 0 0 12.74 19.69
  L 12.74 19.29
  A 1.95 1.92 0.1 0 0 10.79 17.36
  L 6.24 17.35
  A 0.40 0.40 0.0 0 0 5.84 17.75
  Z"
/>
<path fill="#008ed8" d="
  M 26.61 17.11
  Q 24.77 19.70 23.69 21.08
  A 0.32 0.32 0.0 0 0 23.94 21.59
  L 31.07 21.59
  A 0.37 0.37 0.0 0 1 31.44 21.96
  L 31.44 24.34
  A 0.39 0.39 0.0 0 1 31.05 24.73
  L 19.21 24.73
  A 0.59 0.58 -4.6 0 1 18.63 24.24
  Q 18.28 21.97 18.90 21.14
  Q 20.18 19.43 23.38 14.93
  Q 25.22 12.34 26.30 10.97
  A 0.32 0.32 0.0 0 0 26.05 10.45
  L 18.92 10.45
  A 0.37 0.37 0.0 0 1 18.55 10.08
  L 18.55 7.70
  A 0.39 0.39 0.0 0 1 18.94 7.31
  L 30.78 7.31
  A 0.59 0.58 -4.6 0 1 31.36 7.80
  Q 31.71 10.07 31.09 10.90
  Q 29.80 12.62 26.61 17.11
  Z"
/>
</svg>
