<?xml version="1.0" encoding="UTF-8" standalone="no"?>
<!DOCTYPE svg PUBLIC "-//W3C//DTD SVG 1.1//EN" "http://www.w3.org/Graphics/SVG/1.1/DTD/svg11.dtd">
<svg xmlns="http://www.w3.org/2000/svg" version="1.1" viewBox="0.00 0.00 1024.00 1024.00">
<g stroke-width="2.00" fill="none" stroke-linecap="butt">
<path stroke="#14151c" vector-effect="non-scaling-stroke" d="
  M 537.69 471.59
  A 2.07 1.41 39.1 0 1 540.19 471.80
  Q 542.38 473.58 543.97 476.09
  Q 549.28 484.46 555.48 498.37
  C 566.54 523.15 573.21 536.95 581.67 557.92
  Q 586.79 570.63 599.28 600.15
  C 607.52 619.63 616.43 640.23 627.09 659.49
  C 637.69 678.62 652.29 695.25 670.75 706.70
  C 684.63 715.31 701.41 720.41 717.63 723.73
  Q 743.15 728.95 769.01 730.39
  C 792.11 731.68 813.31 727.32 832.10 713.20
  C 849.56 700.07 862.93 678.60 864.44 656.33
  Q 865.11 646.56 862.46 635.66
  C 858.37 618.77 851.18 602.82 843.38 587.77
  C 830.46 562.84 815.58 536.22 803.59 513.17
  Q 784.35 476.20 761.28 433.46
  C 743.74 400.95 731.08 376.72 708.67 334.63
  Q 701.49 321.14 695.74 309.07
  C 684.80 286.11 673.15 263.74 661.80 243.71
  C 644.29 212.81 618.74 185.88 580.28 186.51
  C 542.22 187.14 513.55 216.09 500.97 250.73
  Q 495.25 266.48 491.49 275.30
  C 486.21 287.68 476.44 300.50 462.58 288.98
  C 457.77 284.98 450.65 277.64 444.94 273.65
  C 420.74 256.75 388.63 257.49 364.93 275.39
  Q 345.18 290.30 335.40 312.41
  C 328.63 327.74 325.06 341.42 320.07 360.13
  C 318.01 367.90 315.21 376.79 310.43 383.88
  C 299.67 399.84 287.15 386.39 273.08 382.77
  Q 253.78 377.80 237.29 385.62
  C 215.36 396.03 202.94 418.46 198.50 442.28
  C 194.41 464.23 193.53 481.31 191.47 507.28
  Q 190.54 519.05 184.99 564.18
  Q 181.74 590.61 184.11 611.75
  C 186.80 635.68 196.79 655.20 212.31 671.95
  Q 231.10 692.22 254.80 709.90
  Q 266.43 718.58 279.27 723.43
  C 308.49 734.48 336.23 716.73 347.64 689.69
  Q 350.73 682.36 354.40 672.58
  C 356.20 667.80 360.13 660.69 366.57 664.33
  Q 369.60 666.04 371.50 668.23
  Q 377.83 675.52 384.84 683.16
  Q 403.06 702.99 428.53 713.67
  Q 463.99 728.53 493.68 736.14
  C 515.76 741.80 538.58 740.90 558.19 728.44
  C 573.05 718.99 585.48 704.46 590.78 687.58
  C 595.95 671.10 594.53 655.21 589.75 638.78
  C 584.05 619.19 575.73 596.65 569.63 577.77
  C 560.99 551.06 557.65 539.06 548.90 515.14
  Q 542.42 497.43 538.02 482.32
  C 537.30 479.88 535.77 473.97 537.69 471.59"
/>
<path stroke="#7c7d81" vector-effect="non-scaling-stroke" d="
  M 500.71 336.88
  C 493.49 353.71 502.52 368.02 521.06 367.72
  A 1.95 1.79 28.1 0 0 521.91 367.50
  L 528.78 363.83
  A 0.53 0.53 0.0 0 1 529.52 364.09
  Q 640.72 622.16 650.17 644.30
  Q 655.18 656.02 659.19 661.82
  Q 673.45 682.41 697.66 690.68
  Q 704.63 693.06 717.31 694.51
  Q 727.23 695.64 771.22 701.44
  Q 787.45 703.58 793.84 702.86
  C 820.84 699.79 841.84 674.25 838.34 646.49"
/>
<path stroke="#86878a" vector-effect="non-scaling-stroke" d="
  M 838.34 646.49
  Q 837.19 636.88 833.24 629.49
  Q 644.76 276.01 626.79 242.03
  Q 616.88 223.28 597.10 216.96
  Q 574.85 209.85 553.95 222.44
  Q 546.59 226.88 539.95 236.02
  Q 536.42 240.89 533.03 250.47
  Q 530.17 258.54 502.70 332.00
  C 502.12 333.54 501.24 335.21 500.71 336.88"
/>
<path stroke="#e6e6e7" vector-effect="non-scaling-stroke" d="
  M 838.34 646.49
  C 837.48 652.83 836.98 657.72 833.94 662.02
  A 0.07 0.07 0.0 0 1 833.81 661.96
  C 836.83 647.52 832.93 636.66 826.15 624.38
  C 821.07 615.18 814.59 602.22 808.76 591.82
  Q 804.49 584.21 802.36 579.86
  A 0.90 0.90 0.0 0 1 802.46 578.92
  Q 802.87 578.40 804.02 578.38
  A 0.51 0.51 0.0 0 0 804.27 577.43
  Q 803.43 576.93 801.73 577.32
  A 0.97 0.97 0.0 0 1 800.65 576.81
  Q 798.54 572.67 789.84 556.44
  Q 789.24 555.31 789.39 554.97
  Q 789.64 554.44 790.63 554.09
  Q 790.70 554.06 790.76 553.88
  Q 790.90 553.49 790.45 553.31
  A 0.24 0.24 0.0 0 0 790.18 553.36
  L 789.51 554.02
  A 0.63 0.62 53.4 0 1 788.52 553.87
  Q 761.51 503.30 725.51 435.71
  Q 725.32 435.37 725.53 434.04
  A 0.16 0.15 -8.6 0 0 725.31 433.88
  Q 725.08 433.99 725.07 433.99
  A 0.64 0.64 0.0 0 1 724.40 433.67
  L 714.36 414.86
  A 0.62 0.60 50.8 0 1 714.42 414.19
  Q 714.59 413.99 714.62 413.94
  A 0.44 0.44 0.0 0 0 714.39 413.26
  Q 713.22 412.91 712.42 411.39
  Q 705.30 397.82 693.84 376.47
  A 0.19 0.19 0.0 0 0 693.49 376.61
  C 696.74 388.57 699.61 401.18 689.38 410.69
  C 681.01 418.47 675.39 423.12 670.19 430.52
  Q 653.67 454.05 637.76 482.02
  A 0.39 0.37 41.4 0 0 637.80 482.45
  Q 637.86 482.52 637.90 482.57
  A 0.82 0.81 42.8 0 1 637.94 483.47
  Q 629.72 497.40 624.01 513.00
  Q 623.53 514.29 623.00 514.81
  C 618.64 519.13 615.32 516.18 611.93 512.94
  A 0.69 0.69 0.0 0 1 611.77 512.19
  Q 612.00 511.65 611.59 511.30
  Q 611.49 511.21 611.38 511.21
  Q 611.27 511.21 611.13 511.26
  A 0.29 0.29 0.0 0 1 610.79 511.13
  Q 602.35 498.10 600.90 495.36
  C 580.69 457.19 560.97 415.25 547.66 387.39
  C 542.97 377.59 538.20 367.70 529.75 360.93
  C 525.07 357.18 516.61 353.36 512.06 350.17
  Q 505.60 345.64 500.71 336.88"
/>
<path stroke="#7c7d81" vector-effect="non-scaling-stroke" d="
  M 325.69 456.72
  Q 321.05 473.98 328.76 489.95
  A 0.77 0.75 76.7 0 0 329.44 490.38
  L 341.52 490.38
  A 0.74 0.74 0.0 0 1 342.23 490.90
  Q 346.72 505.09 387.92 636.97
  Q 391.27 647.67 394.09 652.68
  Q 404.03 670.32 421.93 680.94
  Q 428.52 684.85 447.47 691.00
  Q 469.40 698.12 502.79 709.44
  Q 514.06 713.27 520.14 713.64
  C 539.00 714.82 556.44 704.53 564.29 687.19"
/>
<path stroke="#86878a" vector-effect="non-scaling-stroke" d="
  M 564.29 687.19
  Q 571.04 671.51 564.85 653.67
  Q 454.13 334.56 448.99 319.76
  Q 442.53 301.13 425.66 293.37
  C 404.81 283.78 379.45 291.23 367.87 310.47
  Q 364.85 315.48 361.06 329.21
  Q 357.84 340.86 327.01 451.01
  Q 326.20 453.87 325.69 456.72"
/>
<path stroke="#e6e6e7" vector-effect="non-scaling-stroke" d="
  M 564.29 687.19
  L 557.83 692.20
  A 0.26 0.26 0.0 0 1 557.44 691.86
  Q 560.15 687.02 560.51 686.24
  Q 565.61 675.36 563.55 663.91
  A 2.03 1.94 -43.7 0 1 563.59 663.03
  L 563.83 662.17
  A 0.71 0.70 20.0 0 0 563.43 661.32
  Q 562.68 660.99 562.69 660.06
  Q 562.70 659.43 562.43 658.67
  Q 544.45 607.00 526.56 555.27
  A 1.43 1.42 51.1 0 1 526.68 554.09
  Q 527.32 552.98 526.13 552.37
  A 2.03 2.02 3.8 0 1 525.12 551.22
  L 471.01 395.29
  A 0.25 0.24 -16.1 0 0 470.71 395.13
  L 470.70 395.13
  A 0.26 0.25 77.5 0 0 470.52 395.42
  Q 472.31 404.21 473.86 414.90
  C 475.26 424.55 475.30 434.75 466.82 441.15
  C 457.85 447.90 449.94 453.36 442.14 462.07
  Q 430.12 475.48 419.38 488.13
  A 2.39 2.37 -82.5 0 1 418.59 488.74
  Q 418.50 488.78 418.07 488.86
  Q 417.66 488.94 417.29 489.55
  Q 416.96 490.09 417.45 490.57
  A 0.52 0.51 46.1 0 1 417.44 491.33
  Q 410.28 497.65 409.23 499.22
  Q 402.72 508.99 394.95 517.43
  C 391.11 521.60 388.53 528.63 386.09 532.43
  Q 382.22 538.45 379.77 540.23
  C 374.91 543.76 370.85 534.97 369.27 531.67
  Q 360.62 513.64 356.85 502.28
  C 354.18 494.23 349.86 487.40 344.79 482.03
  C 336.51 473.29 326.80 470.47 325.69 456.72"
/>
<path stroke="#7c7d81" vector-effect="non-scaling-stroke" d="
  M 212.56 593.28
  C 211.96 598.35 211.04 603.99 211.03 608.61
  Q 211.02 628.00 222.02 643.44
  Q 225.97 648.99 237.02 658.57
  Q 249.61 669.49 279.06 695.56
  Q 290.22 705.43 303.11 702.56
  C 318.49 699.13 327.62 686.47 325.34 670.54"
/>
<path stroke="#86878a" vector-effect="non-scaling-stroke" d="
  M 325.34 670.54
  Q 306.28 553.58 287.18 436.65
  Q 285.18 424.39 283.12 420.71
  Q 278.93 413.18 270.98 409.41
  C 264.35 406.26 255.21 405.85 248.57 408.59
  Q 232.86 415.06 230.93 432.10
  Q 221.81 512.71 212.56 593.28"
/>
<path stroke="#e6e6e7" vector-effect="non-scaling-stroke" d="
  M 325.34 670.54
  L 322.49 675.19
  A 0.20 0.20 0.0 0 1 322.12 675.12
  L 316.90 643.29
  A 0.62 0.62 0.0 0 1 317.41 642.58
  L 318.44 642.41
  A 0.54 0.53 -22.7 0 0 318.79 641.57
  Q 318.27 640.86 317.15 641.30
  A 0.47 0.47 0.0 0 1 316.51 640.94
  L 310.30 603.09
  A 1.33 0.60 -69.2 0 1 310.29 602.92
  L 310.70 598.23
  A 0.62 0.62 0.0 0 0 310.34 597.61
  L 310.03 597.47
  A 1.22 1.20 -85.0 0 1 309.26 596.54
  Q 304.55 568.02 298.23 528.96
  C 298.02 527.64 298.52 525.65 297.84 524.89
  A 1.95 1.93 19.7 0 1 297.36 523.89
  C 294.08 504.34 292.08 488.25 288.19 469.54
  A 0.67 0.66 -9.2 0 0 287.45 469.01
  L 287.42 469.02
  A 0.56 0.56 0.0 0 0 286.93 469.60
  Q 287.50 488.78 284.77 502.82
  C 281.56 519.29 272.58 531.52 263.43 546.25
  C 255.88 558.39 246.76 578.69 241.13 588.50
  C 238.20 593.62 230.70 609.05 222.91 600.59
  Q 217.77 594.99 216.86 594.03
  A 0.42 0.42 0.0 0 0 216.14 594.28
  L 214.57 612.32
  A 0.39 0.39 0.0 0 1 213.80 612.35
  Q 212.24 602.84 212.56 593.28"
/>
<path stroke="#e6e6e7" vector-effect="non-scaling-stroke" d="
  M 607.41 240.57
  Q 607.15 240.85 607.27 241.36
  A 0.32 0.32 0.0 0 0 607.88 241.42
  Q 607.92 241.33 607.95 240.80
  A 0.31 0.31 0.0 0 0 607.41 240.57"
/>
<path stroke="#e6e6e7" vector-effect="non-scaling-stroke" d="
  M 546.66 251.26
  Q 546.88 251.03 546.83 250.51
  A 0.29 0.29 0.0 0 0 546.33 250.33
  Q 546.14 250.53 546.13 250.64
  A 0.53 0.32 80.3 0 0 546.66 251.26"
/>
<path stroke="#e6e6e7" vector-effect="non-scaling-stroke" d="
  M 565.21 253.41
  Q 564.96 254.06 565.53 254.58
  A 0.30 0.30 0.0 0 0 566.03 254.38
  Q 566.05 253.94 565.78 253.38
  A 0.31 0.31 0.0 0 0 565.21 253.41"
/>
<path stroke="#e6e6e7" vector-effect="non-scaling-stroke" d="
  M 557.09 258.12
  Q 556.15 257.42 555.45 257.35
  A 0.19 0.19 0.0 0 0 555.31 257.69
  Q 556.63 258.67 556.91 258.67
  A 0.31 0.30 63.3 0 0 557.09 258.12"
/>
<path stroke="#e6e6e7" vector-effect="non-scaling-stroke" d="
  M 573.84 258.26
  A 0.30 0.30 0.0 0 0 573.96 258.78
  Q 574.69 258.95 575.06 258.67
  Q 575.65 258.22 574.94 257.88
  Q 574.55 257.70 573.84 258.26"
/>
<path stroke="#e6e6e7" vector-effect="non-scaling-stroke" d="
  M 602.61 262.79
  Q 602.29 262.82 602.22 263.23
  Q 602.08 264.00 602.79 263.93
  A 0.76 0.63 -21.1 0 0 603.40 262.85
  Q 603.27 262.71 602.61 262.79"
/>
<path stroke="#e6e6e7" vector-effect="non-scaling-stroke" d="
  M 634.98 302.01
  L 635.31 304.00
  A 0.30 0.29 -35.1 0 0 635.86 304.09
  Q 636.43 303.09 635.46 301.81
  A 0.27 0.27 0.0 0 0 634.98 302.01"
/>
<path stroke="#e6e6e7" vector-effect="non-scaling-stroke" d="
  M 651.28 339.09
  Q 651.20 338.24 650.38 338.12
  A 0.34 0.34 0.0 0 0 650.04 338.61
  L 650.43 339.34
  A 0.45 0.45 0.0 0 0 651.28 339.09"
/>
<path stroke="#e6e6e7" vector-effect="non-scaling-stroke" d="
  M 619.69 346.32
  A 0.57 0.55 -37.1 0 0 619.53 347.32
  Q 620.08 347.66 620.93 347.19
  A 0.45 0.44 -46.4 0 0 620.92 346.39
  Q 620.33 346.12 619.69 346.32"
/>
<path stroke="#e6e6e7" vector-effect="non-scaling-stroke" d="
  M 613.6788 353.3888
  A 0.97 0.68 -141.7 0 0 614.0186 354.5236
  A 0.97 0.68 -141.7 0 0 615.2012 354.5912
  A 0.97 0.68 -141.7 0 0 614.8614 353.4564
  A 0.97 0.68 -141.7 0 0 613.6788 353.3888"
/>
<path stroke="#e6e6e7" vector-effect="non-scaling-stroke" d="
  M 613.8071 361.0341
  A 0.83 0.75 -114.4 0 0 613.4670 362.0998
  A 0.83 0.75 -114.4 0 0 614.4929 362.5459
  A 0.83 0.75 -114.4 0 0 614.8330 361.4802
  A 0.83 0.75 -114.4 0 0 613.8071 361.0341"
/>
<path stroke="#e6e6e7" vector-effect="non-scaling-stroke" d="
  M 668.03 363.88
  A 0.51 0.48 -10.9 0 0 667.23 363.37
  Q 666.71 363.77 667.11 364.55
  A 0.31 0.30 -42.4 0 0 667.64 364.57
  Q 667.98 364.01 668.03 363.88"
/>
<path stroke="#e6e6e7" vector-effect="non-scaling-stroke" d="
  M 600.83 366.68
  A 0.53 0.53 0.0 0 0 600.30 366.15
  A 0.53 0.53 0.0 0 0 599.77 366.68
  A 0.53 0.53 0.0 0 0 600.30 367.21
  A 0.53 0.53 0.0 0 0 600.83 366.68"
/>
<path stroke="#e6e6e7" vector-effect="non-scaling-stroke" d="
  M 647.36 403.54
  L 646.62 401.41
  A 0.64 0.64 0.0 0 0 645.38 401.59
  Q 645.32 402.89 646.95 403.87
  A 0.28 0.28 0.0 0 0 647.36 403.54"
/>
<path stroke="#e6e6e7" vector-effect="non-scaling-stroke" d="
  M 622.87 405.66
  A 0.91 0.78 -19.4 0 0 624.44 406.27
  Q 624.64 406.02 624.53 405.68
  Q 624.42 405.32 624.03 405.28
  Q 623.08 405.16 622.87 405.66"
/>
<path stroke="#e6e6e7" vector-effect="non-scaling-stroke" d="
  M 645.64 418.21
  Q 646.00 418.15 646.35 417.65
  A 0.36 0.33 13.4 0 0 646.00 417.13
  Q 645.57 417.17 645.29 417.50
  A 0.43 0.40 -73.4 0 0 645.64 418.21"
/>
<path stroke="#e6e6e7" vector-effect="non-scaling-stroke" d="
  M 638.64 431.63
  Q 639.37 431.91 639.56 431.25
  Q 640.24 428.88 639.73 428.69
  Q 639.21 428.50 638.19 430.74
  Q 637.90 431.36 638.64 431.63"
/>
<path stroke="#e6e6e7" vector-effect="non-scaling-stroke" d="
  M 647.55 431.71
  Q 648.03 431.79 648.22 430.99
  Q 648.75 428.77 648.01 428.66
  Q 647.27 428.55 647.13 430.83
  Q 647.07 431.64 647.55 431.71"
/>
<path stroke="#e6e6e7" vector-effect="non-scaling-stroke" d="
  M 611.16 445.75
  A 0.87 0.81 -50.8 0 0 609.50 445.98
  Q 609.48 446.51 610.26 447.53
  A 0.34 0.34 0.0 0 0 610.86 447.42
  Q 611.24 446.16 611.16 445.75"
/>
<path stroke="#e6e6e7" vector-effect="non-scaling-stroke" d="
  M 613.4983 454.5059
  A 0.93 0.62 -163.5 0 0 614.2139 455.3645
  A 0.93 0.62 -163.5 0 0 615.2817 455.0341
  A 0.93 0.62 -163.5 0 0 614.5661 454.1755
  A 0.93 0.62 -163.5 0 0 613.4983 454.5059"
/>
<path stroke="#e6e6e7" vector-effect="non-scaling-stroke" d="
  M 630.81 462.26
  Q 630.82 461.00 630.81 460.97
  A 0.42 0.42 0.0 0 0 630.02 460.99
  Q 629.78 461.76 630.32 462.43
  A 0.28 0.27 -64.0 0 0 630.81 462.26"
/>
<path stroke="#e6e6e7" vector-effect="non-scaling-stroke" d="
  M 620.7937 513.7077
  A 2.17 0.46 -14.2 0 0 618.5772 513.7941
  A 2.17 0.46 -14.2 0 0 616.5863 514.7723
  A 2.17 0.46 -14.2 0 0 618.8028 514.6859
  A 2.17 0.46 -14.2 0 0 620.7937 513.7077"
/>
<path stroke="#e6e6e7" vector-effect="non-scaling-stroke" d="
  M 822.43 613.35
  Q 822.08 613.19 821.69 613.24
  A 0.46 0.46 0.0 0 0 821.36 613.93
  Q 821.97 614.96 822.30 615.02
  A 1.31 1.15 85.9 0 0 823.54 613.38
  Q 823.44 613.01 823.03 613.18
  Q 822.52 613.39 822.43 613.35"
/>
<path stroke="#e6e6e7" vector-effect="non-scaling-stroke" d="
  M 444.22 328.99
  Q 444.25 328.72 443.96 328.48
  A 0.37 0.33 28.3 0 0 443.37 328.62
  Q 443.29 328.97 443.58 329.22
  A 0.39 0.37 23.7 0 0 444.22 328.99"
/>
<path stroke="#e6e6e7" vector-effect="non-scaling-stroke" d="
  M 422.94 330.73
  Q 423.11 330.62 423.08 330.17
  Q 423.06 329.74 422.65 329.63
  Q 422.38 329.55 422.18 329.88
  A 0.61 0.56 -88.9 0 0 422.94 330.73"
/>
<path stroke="#e6e6e7" vector-effect="non-scaling-stroke" d="
  M 366.60 334.96
  Q 366.94 333.77 366.88 333.72
  A 0.43 0.43 0.0 0 0 366.14 334.00
  Q 366.10 334.81 366.20 335.00
  A 0.22 0.22 0.0 0 0 366.60 334.96"
/>
<path stroke="#e6e6e7" vector-effect="non-scaling-stroke" d="
  M 373.80 337.23
  Q 373.19 337.90 373.17 338.02
  Q 373.09 338.59 373.57 338.83
  Q 374.42 339.25 375.14 338.46
  Q 375.86 337.68 375.37 336.87
  Q 375.09 336.41 374.53 336.54
  Q 374.41 336.57 373.80 337.23"
/>
<path stroke="#e6e6e7" vector-effect="non-scaling-stroke" d="
  M 443.6979 373.0385
  A 0.55 0.44 -53.4 0 0 443.0168 373.2177
  A 0.55 0.44 -53.4 0 0 443.0421 373.9215
  A 0.55 0.44 -53.4 0 0 443.7232 373.7423
  A 0.55 0.44 -53.4 0 0 443.6979 373.0385"
/>
<path stroke="#e6e6e7" vector-effect="non-scaling-stroke" d="
  M 424.69 393.95
  Q 426.17 393.84 426.34 395.62
  A 0.38 0.37 -2.5 0 0 426.72 395.96
  L 427.00 395.96
  A 0.50 0.49 83.5 0 0 427.48 395.35
  Q 426.95 393.11 424.35 393.14
  A 0.05 0.05 0.0 0 0 424.30 393.19
  L 424.30 393.59
  A 0.36 0.36 0.0 0 0 424.69 393.95"
/>
<path stroke="#e6e6e7" vector-effect="non-scaling-stroke" d="
  M 429.74 406.01
  Q 430.08 407.05 430.35 407.29
  A 0.67 0.66 -72.7 0 0 431.45 406.70
  Q 431.37 405.99 430.18 405.58
  A 0.35 0.34 0.5 0 0 429.74 406.01"
/>
<path stroke="#e6e6e7" vector-effect="non-scaling-stroke" d="
  M 392.15 422.84
  A 0.37 0.37 0.0 0 0 392.73 422.38
  Q 392.46 421.99 391.35 420.68
  A 0.13 0.13 0.0 0 0 391.19 420.65
  L 390.95 420.78
  A 0.35 0.34 55.9 0 0 390.85 421.31
  L 392.15 422.84"
/>
<path stroke="#e6e6e7" vector-effect="non-scaling-stroke" d="
  M 486.09 432.79
  L 485.37 433.56
  A 0.32 0.31 -66.7 0 0 485.58 434.09
  Q 486.48 434.16 486.90 433.38
  A 0.51 0.50 81.0 0 0 486.09 432.79"
/>
<path stroke="#e6e6e7" vector-effect="non-scaling-stroke" d="
  M 387.8995 433.7723
  A 1.35 0.93 -1.6 0 0 386.5240 432.8804
  A 1.35 0.93 -1.6 0 0 385.2005 433.8477
  A 1.35 0.93 -1.6 0 0 386.5760 434.7396
  A 1.35 0.93 -1.6 0 0 387.8995 433.7723"
/>
<path stroke="#e6e6e7" vector-effect="non-scaling-stroke" d="
  M 356.4045 473.6168
  A 1.30 0.72 -43.4 0 0 354.9653 473.9869
  A 1.30 0.72 -43.4 0 0 354.5155 475.4032
  A 1.30 0.72 -43.4 0 0 355.9547 475.0331
  A 1.30 0.72 -43.4 0 0 356.4045 473.6168"
/>
<path stroke="#e6e6e7" vector-effect="non-scaling-stroke" d="
  M 375.89 538.39
  Q 375.89 538.42 375.47 539.46
  A 0.29 0.29 0.0 0 0 375.57 539.80
  Q 375.82 539.98 376.06 539.73
  Q 376.64 539.12 376.55 538.32
  Q 376.46 537.51 375.75 537.05
  Q 375.46 536.86 375.26 537.09
  A 0.29 0.29 0.0 0 0 375.24 537.44
  Q 375.89 538.36 375.89 538.39"
/>
<path stroke="#e6e6e7" vector-effect="non-scaling-stroke" d="
  M 264.21 421.72
  Q 263.63 421.99 263.52 422.60
  A 0.32 0.32 0.0 0 0 263.99 422.94
  L 264.65 422.59
  A 0.49 0.49 0.0 0 0 264.21 421.72"
/>
<path stroke="#e6e6e7" vector-effect="non-scaling-stroke" d="
  M 267.69 422.61
  Q 269.08 422.19 269.32 421.88
  A 0.31 0.31 0.0 0 0 269.03 421.39
  Q 267.62 421.56 267.33 422.20
  A 0.30 0.30 0.0 0 0 267.69 422.61"
/>
<path stroke="#e6e6e7" vector-effect="non-scaling-stroke" d="
  M 316.40 622.41
  Q 316.22 622.16 315.73 622.10
  A 0.46 0.45 -0.4 0 0 315.22 622.61
  Q 315.29 623.04 316.22 622.86
  A 0.29 0.29 0.0 0 0 316.40 622.41"
/>
</g>
<path fill="#0b0c14" d="
  M 1024.00 0.00
  L 1024.00 1024.00
  L 0.00 1024.00
  L 0.00 0.00
  L 1024.00 0.00
  Z
  M 537.69 471.59
  A 2.07 1.41 39.1 0 1 540.19 471.80
  Q 542.38 473.58 543.97 476.09
  Q 549.28 484.46 555.48 498.37
  C 566.54 523.15 573.21 536.95 581.67 557.92
  Q 586.79 570.63 599.28 600.15
  C 607.52 619.63 616.43 640.23 627.09 659.49
  C 637.69 678.62 652.29 695.25 670.75 706.70
  C 684.63 715.31 701.41 720.41 717.63 723.73
  Q 743.15 728.95 769.01 730.39
  C 792.11 731.68 813.31 727.32 832.10 713.20
  C 849.56 700.07 862.93 678.60 864.44 656.33
  Q 865.11 646.56 862.46 635.66
  C 858.37 618.77 851.18 602.82 843.38 587.77
  C 830.46 562.84 815.58 536.22 803.59 513.17
  Q 784.35 476.20 761.28 433.46
  C 743.74 400.95 731.08 376.72 708.67 334.63
  Q 701.49 321.14 695.74 309.07
  C 684.80 286.11 673.15 263.74 661.80 243.71
  C 644.29 212.81 618.74 185.88 580.28 186.51
  C 542.22 187.14 513.55 216.09 500.97 250.73
  Q 495.25 266.48 491.49 275.30
  C 486.21 287.68 476.44 300.50 462.58 288.98
  C 457.77 284.98 450.65 277.64 444.94 273.65
  C 420.74 256.75 388.63 257.49 364.93 275.39
  Q 345.18 290.30 335.40 312.41
  C 328.63 327.74 325.06 341.42 320.07 360.13
  C 318.01 367.90 315.21 376.79 310.43 383.88
  C 299.67 399.84 287.15 386.39 273.08 382.77
  Q 253.78 377.80 237.29 385.62
  C 215.36 396.03 202.94 418.46 198.50 442.28
  C 194.41 464.23 193.53 481.31 191.47 507.28
  Q 190.54 519.05 184.99 564.18
  Q 181.74 590.61 184.11 611.75
  C 186.80 635.68 196.79 655.20 212.31 671.95
  Q 231.10 692.22 254.80 709.90
  Q 266.43 718.58 279.27 723.43
  C 308.49 734.48 336.23 716.73 347.64 689.69
  Q 350.73 682.36 354.40 672.58
  C 356.20 667.80 360.13 660.69 366.57 664.33
  Q 369.60 666.04 371.50 668.23
  Q 377.83 675.52 384.84 683.16
  Q 403.06 702.99 428.53 713.67
  Q 463.99 728.53 493.68 736.14
  C 515.76 741.80 538.58 740.90 558.19 728.44
  C 573.05 718.99 585.48 704.46 590.78 687.58
  C 595.95 671.10 594.53 655.21 589.75 638.78
  C 584.05 619.19 575.73 596.65 569.63 577.77
  C 560.99 551.06 557.65 539.06 548.90 515.14
  Q 542.42 497.43 538.02 482.32
  C 537.30 479.88 535.77 473.97 537.69 471.59
  Z"
/>
<path fill="#1c1d24" d="
  M 537.69 471.59
  C 535.77 473.97 537.30 479.88 538.02 482.32
  Q 542.42 497.43 548.90 515.14
  C 557.65 539.06 560.99 551.06 569.63 577.77
  C 575.73 596.65 584.05 619.19 589.75 638.78
  C 594.53 655.21 595.95 671.10 590.78 687.58
  C 585.48 704.46 573.05 718.99 558.19 728.44
  C 538.58 740.90 515.76 741.80 493.68 736.14
  Q 463.99 728.53 428.53 713.67
  Q 403.06 702.99 384.84 683.16
  Q 377.83 675.52 371.50 668.23
  Q 369.60 666.04 366.57 664.33
  C 360.13 660.69 356.20 667.80 354.40 672.58
  Q 350.73 682.36 347.64 689.69
  C 336.23 716.73 308.49 734.48 279.27 723.43
  Q 266.43 718.58 254.80 709.90
  Q 231.10 692.22 212.31 671.95
  C 196.79 655.20 186.80 635.68 184.11 611.75
  Q 181.74 590.61 184.99 564.18
  Q 190.54 519.05 191.47 507.28
  C 193.53 481.31 194.41 464.23 198.50 442.28
  C 202.94 418.46 215.36 396.03 237.29 385.62
  Q 253.78 377.80 273.08 382.77
  C 287.15 386.39 299.67 399.84 310.43 383.88
  C 315.21 376.79 318.01 367.90 320.07 360.13
  C 325.06 341.42 328.63 327.74 335.40 312.41
  Q 345.18 290.30 364.93 275.39
  C 388.63 257.49 420.74 256.75 444.94 273.65
  C 450.65 277.64 457.77 284.98 462.58 288.98
  C 476.44 300.50 486.21 287.68 491.49 275.30
  Q 495.25 266.48 500.97 250.73
  C 513.55 216.09 542.22 187.14 580.28 186.51
  C 618.74 185.88 644.29 212.81 661.80 243.71
  C 673.15 263.74 684.80 286.11 695.74 309.07
  Q 701.49 321.14 708.67 334.63
  C 731.08 376.72 743.74 400.95 761.28 433.46
  Q 784.35 476.20 803.59 513.17
  C 815.58 536.22 830.46 562.84 843.38 587.77
  C 851.18 602.82 858.37 618.77 862.46 635.66
  Q 865.11 646.56 864.44 656.33
  C 862.93 678.60 849.56 700.07 832.10 713.20
  C 813.31 727.32 792.11 731.68 769.01 730.39
  Q 743.15 728.95 717.63 723.73
  C 701.41 720.41 684.63 715.31 670.75 706.70
  C 652.29 695.25 637.69 678.62 627.09 659.49
  C 616.43 640.23 607.52 619.63 599.28 600.15
  Q 586.79 570.63 581.67 557.92
  C 573.21 536.95 566.54 523.15 555.48 498.37
  Q 549.28 484.46 543.97 476.09
  Q 542.38 473.58 540.19 471.80
  A 2.07 1.41 39.1 0 0 537.69 471.59
  Z
  M 500.71 336.88
  C 493.49 353.71 502.52 368.02 521.06 367.72
  A 1.95 1.79 28.1 0 0 521.91 367.50
  L 528.78 363.83
  A 0.53 0.53 0.0 0 1 529.52 364.09
  Q 640.72 622.16 650.17 644.30
  Q 655.18 656.02 659.19 661.82
  Q 673.45 682.41 697.66 690.68
  Q 704.63 693.06 717.31 694.51
  Q 727.23 695.64 771.22 701.44
  Q 787.45 703.58 793.84 702.86
  C 820.84 699.79 841.84 674.25 838.34 646.49
  Q 837.19 636.88 833.24 629.49
  Q 644.76 276.01 626.79 242.03
  Q 616.88 223.28 597.10 216.96
  Q 574.85 209.85 553.95 222.44
  Q 546.59 226.88 539.95 236.02
  Q 536.42 240.89 533.03 250.47
  Q 530.17 258.54 502.70 332.00
  C 502.12 333.54 501.24 335.21 500.71 336.88
  Z
  M 325.69 456.72
  Q 321.05 473.98 328.76 489.95
  A 0.77 0.75 76.7 0 0 329.44 490.38
  L 341.52 490.38
  A 0.74 0.74 0.0 0 1 342.23 490.90
  Q 346.72 505.09 387.92 636.97
  Q 391.27 647.67 394.09 652.68
  Q 404.03 670.32 421.93 680.94
  Q 428.52 684.85 447.47 691.00
  Q 469.40 698.12 502.79 709.44
  Q 514.06 713.27 520.14 713.64
  C 539.00 714.82 556.44 704.53 564.29 687.19
  Q 571.04 671.51 564.85 653.67
  Q 454.13 334.56 448.99 319.76
  Q 442.53 301.13 425.66 293.37
  C 404.81 283.78 379.45 291.23 367.87 310.47
  Q 364.85 315.48 361.06 329.21
  Q 357.84 340.86 327.01 451.01
  Q 326.20 453.87 325.69 456.72
  Z
  M 212.56 593.28
  C 211.96 598.35 211.04 603.99 211.03 608.61
  Q 211.02 628.00 222.02 643.44
  Q 225.97 648.99 237.02 658.57
  Q 249.61 669.49 279.06 695.56
  Q 290.22 705.43 303.11 702.56
  C 318.49 699.13 327.62 686.47 325.34 670.54
  Q 306.28 553.58 287.18 436.65
  Q 285.18 424.39 283.12 420.71
  Q 278.93 413.18 270.98 409.41
  C 264.35 406.26 255.21 405.85 248.57 408.59
  Q 232.86 415.06 230.93 432.10
  Q 221.81 512.71 212.56 593.28
  Z"
/>
<path fill="#f0f0f0" d="
  M 838.34 646.49
  C 837.48 652.83 836.98 657.72 833.94 662.02
  A 0.07 0.07 0.0 0 1 833.81 661.96
  C 836.83 647.52 832.93 636.66 826.15 624.38
  C 821.07 615.18 814.59 602.22 808.76 591.82
  Q 804.49 584.21 802.36 579.86
  A 0.90 0.90 0.0 0 1 802.46 578.92
  Q 802.87 578.40 804.02 578.38
  A 0.51 0.51 0.0 0 0 804.27 577.43
  Q 803.43 576.93 801.73 577.32
  A 0.97 0.97 0.0 0 1 800.65 576.81
  Q 798.54 572.67 789.84 556.44
  Q 789.24 555.31 789.39 554.97
  Q 789.64 554.44 790.63 554.09
  Q 790.70 554.06 790.76 553.88
  Q 790.90 553.49 790.45 553.31
  A 0.24 0.24 0.0 0 0 790.18 553.36
  L 789.51 554.02
  A 0.63 0.62 53.4 0 1 788.52 553.87
  Q 761.51 503.30 725.51 435.71
  Q 725.32 435.37 725.53 434.04
  A 0.16 0.15 -8.6 0 0 725.31 433.88
  Q 725.08 433.99 725.07 433.99
  A 0.64 0.64 0.0 0 1 724.40 433.67
  L 714.36 414.86
  A 0.62 0.60 50.8 0 1 714.42 414.19
  Q 714.59 413.99 714.62 413.94
  A 0.44 0.44 0.0 0 0 714.39 413.26
  Q 713.22 412.91 712.42 411.39
  Q 705.30 397.82 693.84 376.47
  A 0.19 0.19 0.0 0 0 693.49 376.61
  C 696.74 388.57 699.61 401.18 689.38 410.69
  C 681.01 418.47 675.39 423.12 670.19 430.52
  Q 653.67 454.05 637.76 482.02
  A 0.39 0.37 41.4 0 0 637.80 482.45
  Q 637.86 482.52 637.90 482.57
  A 0.82 0.81 42.8 0 1 637.94 483.47
  Q 629.72 497.40 624.01 513.00
  Q 623.53 514.29 623.00 514.81
  C 618.64 519.13 615.32 516.18 611.93 512.94
  A 0.69 0.69 0.0 0 1 611.77 512.19
  Q 612.00 511.65 611.59 511.30
  Q 611.49 511.21 611.38 511.21
  Q 611.27 511.21 611.13 511.26
  A 0.29 0.29 0.0 0 1 610.79 511.13
  Q 602.35 498.10 600.90 495.36
  C 580.69 457.19 560.97 415.25 547.66 387.39
  C 542.97 377.59 538.20 367.70 529.75 360.93
  C 525.07 357.18 516.61 353.36 512.06 350.17
  Q 505.60 345.64 500.71 336.88
  C 501.24 335.21 502.12 333.54 502.70 332.00
  Q 530.17 258.54 533.03 250.47
  Q 536.42 240.89 539.95 236.02
  Q 546.59 226.88 553.95 222.44
  Q 574.85 209.85 597.10 216.96
  Q 616.88 223.28 626.79 242.03
  Q 644.76 276.01 833.24 629.49
  Q 837.19 636.88 838.34 646.49
  Z
  M 607.41 240.57
  Q 607.15 240.85 607.27 241.36
  A 0.32 0.32 0.0 0 0 607.88 241.42
  Q 607.92 241.33 607.95 240.80
  A 0.31 0.31 0.0 0 0 607.41 240.57
  Z
  M 546.66 251.26
  Q 546.88 251.03 546.83 250.51
  A 0.29 0.29 0.0 0 0 546.33 250.33
  Q 546.14 250.53 546.13 250.64
  A 0.53 0.32 80.3 0 0 546.66 251.26
  Z
  M 565.21 253.41
  Q 564.96 254.06 565.53 254.58
  A 0.30 0.30 0.0 0 0 566.03 254.38
  Q 566.05 253.94 565.78 253.38
  A 0.31 0.31 0.0 0 0 565.21 253.41
  Z
  M 557.09 258.12
  Q 556.15 257.42 555.45 257.35
  A 0.19 0.19 0.0 0 0 555.31 257.69
  Q 556.63 258.67 556.91 258.67
  A 0.31 0.30 63.3 0 0 557.09 258.12
  Z
  M 573.84 258.26
  A 0.30 0.30 0.0 0 0 573.96 258.78
  Q 574.69 258.95 575.06 258.67
  Q 575.65 258.22 574.94 257.88
  Q 574.55 257.70 573.84 258.26
  Z
  M 602.61 262.79
  Q 602.29 262.82 602.22 263.23
  Q 602.08 264.00 602.79 263.93
  A 0.76 0.63 -21.1 0 0 603.40 262.85
  Q 603.27 262.71 602.61 262.79
  Z
  M 634.98 302.01
  L 635.31 304.00
  A 0.30 0.29 -35.1 0 0 635.86 304.09
  Q 636.43 303.09 635.46 301.81
  A 0.27 0.27 0.0 0 0 634.98 302.01
  Z
  M 651.28 339.09
  Q 651.20 338.24 650.38 338.12
  A 0.34 0.34 0.0 0 0 650.04 338.61
  L 650.43 339.34
  A 0.45 0.45 0.0 0 0 651.28 339.09
  Z
  M 619.69 346.32
  A 0.57 0.55 -37.1 0 0 619.53 347.32
  Q 620.08 347.66 620.93 347.19
  A 0.45 0.44 -46.4 0 0 620.92 346.39
  Q 620.33 346.12 619.69 346.32
  Z
  M 613.6788 353.3888
  A 0.97 0.68 -141.7 0 0 614.0186 354.5236
  A 0.97 0.68 -141.7 0 0 615.2012 354.5912
  A 0.97 0.68 -141.7 0 0 614.8614 353.4564
  A 0.97 0.68 -141.7 0 0 613.6788 353.3888
  Z
  M 613.8071 361.0341
  A 0.83 0.75 -114.4 0 0 613.4670 362.0998
  A 0.83 0.75 -114.4 0 0 614.4929 362.5459
  A 0.83 0.75 -114.4 0 0 614.8330 361.4802
  A 0.83 0.75 -114.4 0 0 613.8071 361.0341
  Z
  M 668.03 363.88
  A 0.51 0.48 -10.9 0 0 667.23 363.37
  Q 666.71 363.77 667.11 364.55
  A 0.31 0.30 -42.4 0 0 667.64 364.57
  Q 667.98 364.01 668.03 363.88
  Z
  M 600.83 366.68
  A 0.53 0.53 0.0 0 0 600.30 366.15
  A 0.53 0.53 0.0 0 0 599.77 366.68
  A 0.53 0.53 0.0 0 0 600.30 367.21
  A 0.53 0.53 0.0 0 0 600.83 366.68
  Z
  M 647.36 403.54
  L 646.62 401.41
  A 0.64 0.64 0.0 0 0 645.38 401.59
  Q 645.32 402.89 646.95 403.87
  A 0.28 0.28 0.0 0 0 647.36 403.54
  Z
  M 622.87 405.66
  A 0.91 0.78 -19.4 0 0 624.44 406.27
  Q 624.64 406.02 624.53 405.68
  Q 624.42 405.32 624.03 405.28
  Q 623.08 405.16 622.87 405.66
  Z
  M 645.64 418.21
  Q 646.00 418.15 646.35 417.65
  A 0.36 0.33 13.4 0 0 646.00 417.13
  Q 645.57 417.17 645.29 417.50
  A 0.43 0.40 -73.4 0 0 645.64 418.21
  Z
  M 638.64 431.63
  Q 639.37 431.91 639.56 431.25
  Q 640.24 428.88 639.73 428.69
  Q 639.21 428.50 638.19 430.74
  Q 637.90 431.36 638.64 431.63
  Z
  M 647.55 431.71
  Q 648.03 431.79 648.22 430.99
  Q 648.75 428.77 648.01 428.66
  Q 647.27 428.55 647.13 430.83
  Q 647.07 431.64 647.55 431.71
  Z
  M 611.16 445.75
  A 0.87 0.81 -50.8 0 0 609.50 445.98
  Q 609.48 446.51 610.26 447.53
  A 0.34 0.34 0.0 0 0 610.86 447.42
  Q 611.24 446.16 611.16 445.75
  Z
  M 613.4983 454.5059
  A 0.93 0.62 -163.5 0 0 614.2139 455.3645
  A 0.93 0.62 -163.5 0 0 615.2817 455.0341
  A 0.93 0.62 -163.5 0 0 614.5661 454.1755
  A 0.93 0.62 -163.5 0 0 613.4983 454.5059
  Z
  M 630.81 462.26
  Q 630.82 461.00 630.81 460.97
  A 0.42 0.42 0.0 0 0 630.02 460.99
  Q 629.78 461.76 630.32 462.43
  A 0.28 0.27 -64.0 0 0 630.81 462.26
  Z
  M 620.7937 513.7077
  A 2.17 0.46 -14.2 0 0 618.5772 513.7941
  A 2.17 0.46 -14.2 0 0 616.5863 514.7723
  A 2.17 0.46 -14.2 0 0 618.8028 514.6859
  A 2.17 0.46 -14.2 0 0 620.7937 513.7077
  Z
  M 822.43 613.35
  Q 822.08 613.19 821.69 613.24
  A 0.46 0.46 0.0 0 0 821.36 613.93
  Q 821.97 614.96 822.30 615.02
  A 1.31 1.15 85.9 0 0 823.54 613.38
  Q 823.44 613.01 823.03 613.18
  Q 822.52 613.39 822.43 613.35
  Z"
/>
<path fill="#dcdcdd" d="
  M 607.41 240.57
  A 0.31 0.31 0.0 0 1 607.95 240.80
  Q 607.92 241.33 607.88 241.42
  A 0.32 0.32 0.0 0 1 607.27 241.36
  Q 607.15 240.85 607.41 240.57
  Z"
/>
<path fill="#dcdcdd" d="
  M 546.66 251.26
  A 0.53 0.32 80.3 0 1 546.13 250.64
  Q 546.14 250.53 546.33 250.33
  A 0.29 0.29 0.0 0 1 546.83 250.51
  Q 546.88 251.03 546.66 251.26
  Z"
/>
<path fill="#dcdcdd" d="
  M 565.78 253.38
  Q 566.05 253.94 566.03 254.38
  A 0.30 0.30 0.0 0 1 565.53 254.58
  Q 564.96 254.06 565.21 253.41
  A 0.31 0.31 0.0 0 1 565.78 253.38
  Z"
/>
<path fill="#dcdcdd" d="
  M 556.91 258.67
  Q 556.63 258.67 555.31 257.69
  A 0.19 0.19 0.0 0 1 555.45 257.35
  Q 556.15 257.42 557.09 258.12
  A 0.31 0.30 63.3 0 1 556.91 258.67
  Z"
/>
<path fill="#dcdcdd" d="
  M 573.84 258.26
  Q 574.55 257.70 574.94 257.88
  Q 575.65 258.22 575.06 258.67
  Q 574.69 258.95 573.96 258.78
  A 0.30 0.30 0.0 0 1 573.84 258.26
  Z"
/>
<path fill="#dcdcdd" d="
  M 602.61 262.79
  Q 603.27 262.71 603.40 262.85
  A 0.76 0.63 -21.1 0 1 602.79 263.93
  Q 602.08 264.00 602.22 263.23
  Q 602.29 262.82 602.61 262.79
  Z"
/>
<path fill="#f0f0f0" d="
  M 564.29 687.19
  L 557.83 692.20
  A 0.26 0.26 0.0 0 1 557.44 691.86
  Q 560.15 687.02 560.51 686.24
  Q 565.61 675.36 563.55 663.91
  A 2.03 1.94 -43.7 0 1 563.59 663.03
  L 563.83 662.17
  A 0.71 0.70 20.0 0 0 563.43 661.32
  Q 562.68 660.99 562.69 660.06
  Q 562.70 659.43 562.43 658.67
  Q 544.45 607.00 526.56 555.27
  A 1.43 1.42 51.1 0 1 526.68 554.09
  Q 527.32 552.98 526.13 552.37
  A 2.03 2.02 3.8 0 1 525.12 551.22
  L 471.01 395.29
  A 0.25 0.24 -16.1 0 0 470.71 395.13
  L 470.70 395.13
  A 0.26 0.25 77.5 0 0 470.52 395.42
  Q 472.31 404.21 473.86 414.90
  C 475.26 424.55 475.30 434.75 466.82 441.15
  C 457.85 447.90 449.94 453.36 442.14 462.07
  Q 430.12 475.48 419.38 488.13
  A 2.39 2.37 -82.5 0 1 418.59 488.74
  Q 418.50 488.78 418.07 488.86
  Q 417.66 488.94 417.29 489.55
  Q 416.96 490.09 417.45 490.57
  A 0.52 0.51 46.1 0 1 417.44 491.33
  Q 410.28 497.65 409.23 499.22
  Q 402.72 508.99 394.95 517.43
  C 391.11 521.60 388.53 528.63 386.09 532.43
  Q 382.22 538.45 379.77 540.23
  C 374.91 543.76 370.85 534.97 369.27 531.67
  Q 360.62 513.64 356.85 502.28
  C 354.18 494.23 349.86 487.40 344.79 482.03
  C 336.51 473.29 326.80 470.47 325.69 456.72
  Q 326.20 453.87 327.01 451.01
  Q 357.84 340.86 361.06 329.21
  Q 364.85 315.48 367.87 310.47
  C 379.45 291.23 404.81 283.78 425.66 293.37
  Q 442.53 301.13 448.99 319.76
  Q 454.13 334.56 564.85 653.67
  Q 571.04 671.51 564.29 687.19
  Z
  M 444.22 328.99
  Q 444.25 328.72 443.96 328.48
  A 0.37 0.33 28.3 0 0 443.37 328.62
  Q 443.29 328.97 443.58 329.22
  A 0.39 0.37 23.7 0 0 444.22 328.99
  Z
  M 422.94 330.73
  Q 423.11 330.62 423.08 330.17
  Q 423.06 329.74 422.65 329.63
  Q 422.38 329.55 422.18 329.88
  A 0.61 0.56 -88.9 0 0 422.94 330.73
  Z
  M 366.60 334.96
  Q 366.94 333.77 366.88 333.72
  A 0.43 0.43 0.0 0 0 366.14 334.00
  Q 366.10 334.81 366.20 335.00
  A 0.22 0.22 0.0 0 0 366.60 334.96
  Z
  M 373.80 337.23
  Q 373.19 337.90 373.17 338.02
  Q 373.09 338.59 373.57 338.83
  Q 374.42 339.25 375.14 338.46
  Q 375.86 337.68 375.37 336.87
  Q 375.09 336.41 374.53 336.54
  Q 374.41 336.57 373.80 337.23
  Z
  M 443.6979 373.0385
  A 0.55 0.44 -53.4 0 0 443.0168 373.2177
  A 0.55 0.44 -53.4 0 0 443.0421 373.9215
  A 0.55 0.44 -53.4 0 0 443.7232 373.7423
  A 0.55 0.44 -53.4 0 0 443.6979 373.0385
  Z
  M 424.69 393.95
  Q 426.17 393.84 426.34 395.62
  A 0.38 0.37 -2.5 0 0 426.72 395.96
  L 427.00 395.96
  A 0.50 0.49 83.5 0 0 427.48 395.35
  Q 426.95 393.11 424.35 393.14
  A 0.05 0.05 0.0 0 0 424.30 393.19
  L 424.30 393.59
  A 0.36 0.36 0.0 0 0 424.69 393.95
  Z
  M 429.74 406.01
  Q 430.08 407.05 430.35 407.29
  A 0.67 0.66 -72.7 0 0 431.45 406.70
  Q 431.37 405.99 430.18 405.58
  A 0.35 0.34 0.5 0 0 429.74 406.01
  Z
  M 392.15 422.84
  A 0.37 0.37 0.0 0 0 392.73 422.38
  Q 392.46 421.99 391.35 420.68
  A 0.13 0.13 0.0 0 0 391.19 420.65
  L 390.95 420.78
  A 0.35 0.34 55.9 0 0 390.85 421.31
  L 392.15 422.84
  Z
  M 486.09 432.79
  L 485.37 433.56
  A 0.32 0.31 -66.7 0 0 485.58 434.09
  Q 486.48 434.16 486.90 433.38
  A 0.51 0.50 81.0 0 0 486.09 432.79
  Z
  M 387.8995 433.7723
  A 1.35 0.93 -1.6 0 0 386.5240 432.8804
  A 1.35 0.93 -1.6 0 0 385.2005 433.8477
  A 1.35 0.93 -1.6 0 0 386.5760 434.7396
  A 1.35 0.93 -1.6 0 0 387.8995 433.7723
  Z
  M 356.4045 473.6168
  A 1.30 0.72 -43.4 0 0 354.9653 473.9869
  A 1.30 0.72 -43.4 0 0 354.5155 475.4032
  A 1.30 0.72 -43.4 0 0 355.9547 475.0331
  A 1.30 0.72 -43.4 0 0 356.4045 473.6168
  Z
  M 375.89 538.39
  Q 375.89 538.42 375.47 539.46
  A 0.29 0.29 0.0 0 0 375.57 539.80
  Q 375.82 539.98 376.06 539.73
  Q 376.64 539.12 376.55 538.32
  Q 376.46 537.51 375.75 537.05
  Q 375.46 536.86 375.26 537.09
  A 0.29 0.29 0.0 0 0 375.24 537.44
  Q 375.89 538.36 375.89 538.39
  Z"
/>
<path fill="#dcdcdd" d="
  M 635.46 301.81
  Q 636.43 303.09 635.86 304.09
  A 0.30 0.29 -35.1 0 1 635.31 304.00
  L 634.98 302.01
  A 0.27 0.27 0.0 0 1 635.46 301.81
  Z"
/>
<path fill="#dcdcdd" d="
  M 444.22 328.99
  A 0.39 0.37 23.7 0 1 443.58 329.22
  Q 443.29 328.97 443.37 328.62
  A 0.37 0.33 28.3 0 1 443.96 328.48
  Q 444.25 328.72 444.22 328.99
  Z"
/>
<path fill="#dcdcdd" d="
  M 422.94 330.73
  A 0.61 0.56 -88.9 0 1 422.18 329.88
  Q 422.38 329.55 422.65 329.63
  Q 423.06 329.74 423.08 330.17
  Q 423.11 330.62 422.94 330.73
  Z"
/>
<path fill="#dcdcdd" d="
  M 366.20 335.00
  Q 366.10 334.81 366.14 334.00
  A 0.43 0.43 0.0 0 1 366.88 333.72
  Q 366.94 333.77 366.60 334.96
  A 0.22 0.22 0.0 0 1 366.20 335.00
  Z"
/>
<path fill="#dcdcdd" d="
  M 375.14 338.46
  Q 374.42 339.25 373.57 338.83
  Q 373.09 338.59 373.17 338.02
  Q 373.19 337.90 373.80 337.23
  Q 374.41 336.57 374.53 336.54
  Q 375.09 336.41 375.37 336.87
  Q 375.86 337.68 375.14 338.46
  Z"
/>
<path fill="#dcdcdd" d="
  M 500.71 336.88
  Q 505.60 345.64 512.06 350.17
  C 516.61 353.36 525.07 357.18 529.75 360.93
  C 538.20 367.70 542.97 377.59 547.66 387.39
  C 560.97 415.25 580.69 457.19 600.90 495.36
  Q 602.35 498.10 610.79 511.13
  A 0.29 0.29 0.0 0 0 611.13 511.26
  Q 611.27 511.21 611.38 511.21
  Q 611.49 511.21 611.59 511.30
  Q 612.00 511.65 611.77 512.19
  A 0.69 0.69 0.0 0 0 611.93 512.94
  C 615.32 516.18 618.64 519.13 623.00 514.81
  Q 623.53 514.29 624.01 513.00
  Q 629.72 497.40 637.94 483.47
  A 0.82 0.81 42.8 0 0 637.90 482.57
  Q 637.86 482.52 637.80 482.45
  A 0.39 0.37 41.4 0 1 637.76 482.02
  Q 653.67 454.05 670.19 430.52
  C 675.39 423.12 681.01 418.47 689.38 410.69
  C 699.61 401.18 696.74 388.57 693.49 376.61
  A 0.19 0.19 0.0 0 1 693.84 376.47
  Q 705.30 397.82 712.42 411.39
  Q 713.22 412.91 714.39 413.26
  A 0.44 0.44 0.0 0 1 714.62 413.94
  Q 714.59 413.99 714.42 414.19
  A 0.62 0.60 50.8 0 0 714.36 414.86
  L 724.40 433.67
  A 0.64 0.64 0.0 0 0 725.07 433.99
  Q 725.08 433.99 725.31 433.88
  A 0.16 0.15 -8.6 0 1 725.53 434.04
  Q 725.32 435.37 725.51 435.71
  Q 761.51 503.30 788.52 553.87
  A 0.63 0.62 53.4 0 0 789.51 554.02
  L 790.18 553.36
  A 0.24 0.24 0.0 0 1 790.45 553.31
  Q 790.90 553.49 790.76 553.88
  Q 790.70 554.06 790.63 554.09
  Q 789.64 554.44 789.39 554.97
  Q 789.24 555.31 789.84 556.44
  Q 798.54 572.67 800.65 576.81
  A 0.97 0.97 0.0 0 0 801.73 577.32
  Q 803.43 576.93 804.27 577.43
  A 0.51 0.51 0.0 0 1 804.02 578.38
  Q 802.87 578.40 802.46 578.92
  A 0.90 0.90 0.0 0 0 802.36 579.86
  Q 804.49 584.21 808.76 591.82
  C 814.59 602.22 821.07 615.18 826.15 624.38
  C 832.93 636.66 836.83 647.52 833.81 661.96
  A 0.07 0.07 0.0 0 0 833.94 662.02
  C 836.98 657.72 837.48 652.83 838.34 646.49
  C 841.84 674.25 820.84 699.79 793.84 702.86
  Q 787.45 703.58 771.22 701.44
  Q 727.23 695.64 717.31 694.51
  Q 704.63 693.06 697.66 690.68
  Q 673.45 682.41 659.19 661.82
  Q 655.18 656.02 650.17 644.30
  Q 640.72 622.16 529.52 364.09
  A 0.53 0.53 0.0 0 0 528.78 363.83
  L 521.91 367.50
  A 1.95 1.79 28.1 0 1 521.06 367.72
  C 502.52 368.02 493.49 353.71 500.71 336.88
  Z"
/>
<path fill="#dcdcdd" d="
  M 651.28 339.09
  A 0.45 0.45 0.0 0 1 650.43 339.34
  L 650.04 338.61
  A 0.34 0.34 0.0 0 1 650.38 338.12
  Q 651.20 338.24 651.28 339.09
  Z"
/>
<path fill="#dcdcdd" d="
  M 619.69 346.32
  Q 620.33 346.12 620.92 346.39
  A 0.45 0.44 -46.4 0 1 620.93 347.19
  Q 620.08 347.66 619.53 347.32
  A 0.57 0.55 -37.1 0 1 619.69 346.32
  Z"
/>
<ellipse fill="#dcdcdd" cx="0.00" cy="0.00" transform="translate(614.44,353.99) rotate(-141.7)" rx="0.97" ry="0.68"/>
<ellipse fill="#dcdcdd" cx="0.00" cy="0.00" transform="translate(614.15,361.79) rotate(-114.4)" rx="0.83" ry="0.75"/>
<path fill="#dcdcdd" d="
  M 668.03 363.88
  Q 667.98 364.01 667.64 364.57
  A 0.31 0.30 -42.4 0 1 667.11 364.55
  Q 666.71 363.77 667.23 363.37
  A 0.51 0.48 -10.9 0 1 668.03 363.88
  Z"
/>
<circle fill="#dcdcdd" cx="600.30" cy="366.68" r="0.53"/>
<ellipse fill="#dcdcdd" cx="0.00" cy="0.00" transform="translate(443.37,373.48) rotate(-53.4)" rx="0.55" ry="0.44"/>
<path fill="#dcdcdd" d="
  M 424.69 393.95
  A 0.36 0.36 0.0 0 1 424.30 393.59
  L 424.30 393.19
  A 0.05 0.05 0.0 0 1 424.35 393.14
  Q 426.95 393.11 427.48 395.35
  A 0.50 0.49 83.5 0 1 427.00 395.96
  L 426.72 395.96
  A 0.38 0.37 -2.5 0 1 426.34 395.62
  Q 426.17 393.84 424.69 393.95
  Z"
/>
<path fill="#dcdcdd" d="
  M 564.29 687.19
  C 556.44 704.53 539.00 714.82 520.14 713.64
  Q 514.06 713.27 502.79 709.44
  Q 469.40 698.12 447.47 691.00
  Q 428.52 684.85 421.93 680.94
  Q 404.03 670.32 394.09 652.68
  Q 391.27 647.67 387.92 636.97
  Q 346.72 505.09 342.23 490.90
  A 0.74 0.74 0.0 0 0 341.52 490.38
  L 329.44 490.38
  A 0.77 0.75 76.7 0 1 328.76 489.95
  Q 321.05 473.98 325.69 456.72
  C 326.80 470.47 336.51 473.29 344.79 482.03
  C 349.86 487.40 354.18 494.23 356.85 502.28
  Q 360.62 513.64 369.27 531.67
  C 370.85 534.97 374.91 543.76 379.77 540.23
  Q 382.22 538.45 386.09 532.43
  C 388.53 528.63 391.11 521.60 394.95 517.43
  Q 402.72 508.99 409.23 499.22
  Q 410.28 497.65 417.44 491.33
  A 0.52 0.51 46.1 0 0 417.45 490.57
  Q 416.96 490.09 417.29 489.55
  Q 417.66 488.94 418.07 488.86
  Q 418.50 488.78 418.59 488.74
  A 2.39 2.37 -82.5 0 0 419.38 488.13
  Q 430.12 475.48 442.14 462.07
  C 449.94 453.36 457.85 447.90 466.82 441.15
  C 475.30 434.75 475.26 424.55 473.86 414.90
  Q 472.31 404.21 470.52 395.42
  A 0.26 0.25 77.5 0 1 470.70 395.13
  L 470.71 395.13
  A 0.25 0.24 -16.1 0 1 471.01 395.29
  L 525.12 551.22
  A 2.03 2.02 3.8 0 0 526.13 552.37
  Q 527.32 552.98 526.68 554.09
  A 1.43 1.42 51.1 0 0 526.56 555.27
  Q 544.45 607.00 562.43 658.67
  Q 562.70 659.43 562.69 660.06
  Q 562.68 660.99 563.43 661.32
  A 0.71 0.70 20.0 0 1 563.83 662.17
  L 563.59 663.03
  A 2.03 1.94 -43.7 0 0 563.55 663.91
  Q 565.61 675.36 560.51 686.24
  Q 560.15 687.02 557.44 691.86
  A 0.26 0.26 0.0 0 0 557.83 692.20
  L 564.29 687.19
  Z"
/>
<path fill="#dcdcdd" d="
  M 646.95 403.87
  Q 645.32 402.89 645.38 401.59
  A 0.64 0.64 0.0 0 1 646.62 401.41
  L 647.36 403.54
  A 0.28 0.28 0.0 0 1 646.95 403.87
  Z"
/>
<path fill="#dcdcdd" d="
  M 622.87 405.66
  Q 623.08 405.16 624.03 405.28
  Q 624.42 405.32 624.53 405.68
  Q 624.64 406.02 624.44 406.27
  A 0.91 0.78 -19.4 0 1 622.87 405.66
  Z"
/>
<path fill="#dcdcdd" d="
  M 430.18 405.58
  Q 431.37 405.99 431.45 406.70
  A 0.67 0.66 -72.7 0 1 430.35 407.29
  Q 430.08 407.05 429.74 406.01
  A 0.35 0.34 0.5 0 1 430.18 405.58
  Z"
/>
<path fill="#f0f0f0" d="
  M 325.34 670.54
  L 322.49 675.19
  A 0.20 0.20 0.0 0 1 322.12 675.12
  L 316.90 643.29
  A 0.62 0.62 0.0 0 1 317.41 642.58
  L 318.44 642.41
  A 0.54 0.53 -22.7 0 0 318.79 641.57
  Q 318.27 640.86 317.15 641.30
  A 0.47 0.47 0.0 0 1 316.51 640.94
  L 310.30 603.09
  A 1.33 0.60 -69.2 0 1 310.29 602.92
  L 310.70 598.23
  A 0.62 0.62 0.0 0 0 310.34 597.61
  L 310.03 597.47
  A 1.22 1.20 -85.0 0 1 309.26 596.54
  Q 304.55 568.02 298.23 528.96
  C 298.02 527.64 298.52 525.65 297.84 524.89
  A 1.95 1.93 19.7 0 1 297.36 523.89
  C 294.08 504.34 292.08 488.25 288.19 469.54
  A 0.67 0.66 -9.2 0 0 287.45 469.01
  L 287.42 469.02
  A 0.56 0.56 0.0 0 0 286.93 469.60
  Q 287.50 488.78 284.77 502.82
  C 281.56 519.29 272.58 531.52 263.43 546.25
  C 255.88 558.39 246.76 578.69 241.13 588.50
  C 238.20 593.62 230.70 609.05 222.91 600.59
  Q 217.77 594.99 216.86 594.03
  A 0.42 0.42 0.0 0 0 216.14 594.28
  L 214.57 612.32
  A 0.39 0.39 0.0 0 1 213.80 612.35
  Q 212.24 602.84 212.56 593.28
  Q 221.81 512.71 230.93 432.10
  Q 232.86 415.06 248.57 408.59
  C 255.21 405.85 264.35 406.26 270.98 409.41
  Q 278.93 413.18 283.12 420.71
  Q 285.18 424.39 287.18 436.65
  Q 306.28 553.58 325.34 670.54
  Z
  M 264.21 421.72
  Q 263.63 421.99 263.52 422.60
  A 0.32 0.32 0.0 0 0 263.99 422.94
  L 264.65 422.59
  A 0.49 0.49 0.0 0 0 264.21 421.72
  Z
  M 267.69 422.61
  Q 269.08 422.19 269.32 421.88
  A 0.31 0.31 0.0 0 0 269.03 421.39
  Q 267.62 421.56 267.33 422.20
  A 0.30 0.30 0.0 0 0 267.69 422.61
  Z
  M 316.40 622.41
  Q 316.22 622.16 315.73 622.10
  A 0.46 0.45 -0.4 0 0 315.22 622.61
  Q 315.29 623.04 316.22 622.86
  A 0.29 0.29 0.0 0 0 316.40 622.41
  Z"
/>
<path fill="#dcdcdd" d="
  M 645.64 418.21
  A 0.43 0.40 -73.4 0 1 645.29 417.50
  Q 645.57 417.17 646.00 417.13
  A 0.36 0.33 13.4 0 1 646.35 417.65
  Q 646.00 418.15 645.64 418.21
  Z"
/>
<path fill="#dcdcdd" d="
  M 392.15 422.84
  L 390.85 421.31
  A 0.35 0.34 55.9 0 1 390.95 420.78
  L 391.19 420.65
  A 0.13 0.13 0.0 0 1 391.35 420.68
  Q 392.46 421.99 392.73 422.38
  A 0.37 0.37 0.0 0 1 392.15 422.84
  Z"
/>
<path fill="#dcdcdd" d="
  M 264.65 422.59
  L 263.99 422.94
  A 0.32 0.32 0.0 0 1 263.52 422.60
  Q 263.63 421.99 264.21 421.72
  A 0.49 0.49 0.0 0 1 264.65 422.59
  Z"
/>
<path fill="#dcdcdd" d="
  M 267.33 422.20
  Q 267.62 421.56 269.03 421.39
  A 0.31 0.31 0.0 0 1 269.32 421.88
  Q 269.08 422.19 267.69 422.61
  A 0.30 0.30 0.0 0 1 267.33 422.20
  Z"
/>
<path fill="#dcdcdd" d="
  M 639.73 428.69
  Q 640.24 428.88 639.56 431.25
  Q 639.37 431.91 638.64 431.63
  Q 637.90 431.36 638.19 430.74
  Q 639.21 428.50 639.73 428.69
  Z"
/>
<path fill="#dcdcdd" d="
  M 648.01 428.66
  Q 648.75 428.77 648.22 430.99
  Q 648.03 431.79 647.55 431.71
  Q 647.07 431.64 647.13 430.83
  Q 647.27 428.55 648.01 428.66
  Z"
/>
<path fill="#dcdcdd" d="
  M 486.09 432.79
  A 0.51 0.50 81.0 0 1 486.90 433.38
  Q 486.48 434.16 485.58 434.09
  A 0.32 0.31 -66.7 0 1 485.37 433.56
  L 486.09 432.79
  Z"
/>
<ellipse fill="#dcdcdd" cx="0.00" cy="0.00" transform="translate(386.55,433.81) rotate(-1.6)" rx="1.35" ry="0.93"/>
<path fill="#dcdcdd" d="
  M 611.16 445.75
  Q 611.24 446.16 610.86 447.42
  A 0.34 0.34 0.0 0 1 610.26 447.53
  Q 609.48 446.51 609.50 445.98
  A 0.87 0.81 -50.8 0 1 611.16 445.75
  Z"
/>
<ellipse fill="#dcdcdd" cx="0.00" cy="0.00" transform="translate(614.39,454.77) rotate(-163.5)" rx="0.93" ry="0.62"/>
<path fill="#dcdcdd" d="
  M 630.32 462.43
  Q 629.78 461.76 630.02 460.99
  A 0.42 0.42 0.0 0 1 630.81 460.97
  Q 630.82 461.00 630.81 462.26
  A 0.28 0.27 -64.0 0 1 630.32 462.43
  Z"
/>
<path fill="#dcdcdd" d="
  M 325.34 670.54
  C 327.62 686.47 318.49 699.13 303.11 702.56
  Q 290.22 705.43 279.06 695.56
  Q 249.61 669.49 237.02 658.57
  Q 225.97 648.99 222.02 643.44
  Q 211.02 628.00 211.03 608.61
  C 211.04 603.99 211.96 598.35 212.56 593.28
  Q 212.24 602.84 213.80 612.35
  A 0.39 0.39 0.0 0 0 214.57 612.32
  L 216.14 594.28
  A 0.42 0.42 0.0 0 1 216.86 594.03
  Q 217.77 594.99 222.91 600.59
  C 230.70 609.05 238.20 593.62 241.13 588.50
  C 246.76 578.69 255.88 558.39 263.43 546.25
  C 272.58 531.52 281.56 519.29 284.77 502.82
  Q 287.50 488.78 286.93 469.60
  A 0.56 0.56 0.0 0 1 287.42 469.02
  L 287.45 469.01
  A 0.67 0.66 -9.2 0 1 288.19 469.54
  C 292.08 488.25 294.08 504.34 297.36 523.89
  A 1.95 1.93 19.7 0 0 297.84 524.89
  C 298.52 525.65 298.02 527.64 298.23 528.96
  Q 304.55 568.02 309.26 596.54
  A 1.22 1.20 -85.0 0 0 310.03 597.47
  L 310.34 597.61
  A 0.62 0.62 0.0 0 1 310.70 598.23
  L 310.29 602.92
  A 1.33 0.60 -69.2 0 0 310.30 603.09
  L 316.51 640.94
  A 0.47 0.47 0.0 0 0 317.15 641.30
  Q 318.27 640.86 318.79 641.57
  A 0.54 0.53 -22.7 0 1 318.44 642.41
  L 317.41 642.58
  A 0.62 0.62 0.0 0 0 316.90 643.29
  L 322.12 675.12
  A 0.20 0.20 0.0 0 0 322.49 675.19
  L 325.34 670.54
  Z"
/>
<ellipse fill="#dcdcdd" cx="0.00" cy="0.00" transform="translate(355.46,474.51) rotate(-43.4)" rx="1.30" ry="0.72"/>
<ellipse fill="#dcdcdd" cx="0.00" cy="0.00" transform="translate(618.69,514.24) rotate(-14.2)" rx="2.17" ry="0.46"/>
<path fill="#dcdcdd" d="
  M 376.55 538.32
  Q 376.64 539.12 376.06 539.73
  Q 375.82 539.98 375.57 539.80
  A 0.29 0.29 0.0 0 1 375.47 539.46
  Q 375.89 538.42 375.89 538.39
  Q 375.89 538.36 375.24 537.44
  A 0.29 0.29 0.0 0 1 375.26 537.09
  Q 375.46 536.86 375.75 537.05
  Q 376.46 537.51 376.55 538.32
  Z"
/>
<path fill="#dcdcdd" d="
  M 823.03 613.18
  Q 823.44 613.01 823.54 613.38
  A 1.31 1.15 85.9 0 1 822.30 615.02
  Q 821.97 614.96 821.36 613.93
  A 0.46 0.46 0.0 0 1 821.69 613.24
  Q 822.08 613.19 822.43 613.35
  Q 822.52 613.39 823.03 613.18
  Z"
/>
<path fill="#dcdcdd" d="
  M 316.40 622.41
  A 0.29 0.29 0.0 0 1 316.22 622.86
  Q 315.29 623.04 315.22 622.61
  A 0.46 0.45 -0.4 0 1 315.73 622.10
  Q 316.22 622.16 316.40 622.41
  Z"
/>
</svg>
