<?xml version="1.0" encoding="UTF-8" standalone="no"?>
<!DOCTYPE svg PUBLIC "-//W3C//DTD SVG 1.1//EN" "http://www.w3.org/Graphics/SVG/1.1/DTD/svg11.dtd">
<svg xmlns="http://www.w3.org/2000/svg" version="1.1" viewBox="0.00 0.00 400.00 400.00">
<g stroke-width="2.00" fill="none" stroke-linecap="butt">
<path stroke="#89b1b6" vector-effect="non-scaling-stroke" d="
  M 272.47 196.47
  Q 272.45 196.18 272.59 196.02
  C 296.68 169.79 303.75 136.14 285.29 104.12
  Q 269.72 77.12 242.12 65.28
  Q 215.91 54.03 186.52 56.60
  C 163.30 58.63 139.63 65.68 120.89 79.33
  C 110.63 86.79 102.58 96.46 100.70 109.21
  A 1.43 1.39 33.1 0 0 100.93 110.23
  C 102.77 112.94 105.64 112.60 108.18 113.35
  C 119.04 116.54 122.68 127.86 123.33 138.35
  C 124.42 155.74 120.97 169.47 116.93 190.85
  Q 111.49 219.67 110.63 243.50
  C 109.97 261.81 110.83 280.40 116.68 298.08
  C 129.74 337.63 162.71 351.75 201.75 350.85
  C 241.41 349.93 280.18 332.91 295.63 294.05
  C 308.93 260.60 300.77 220.48 272.71 197.02
  Q 272.50 196.85 272.47 196.47"
/>
<path stroke="#89b1b6" vector-effect="non-scaling-stroke" d="
  M 139.36 101.34
  Q 147.59 109.90 150.11 122.27
  C 153.48 138.76 151.61 157.47 148.31 173.83
  Q 143.36 198.31 140.96 214.73
  Q 137.50 238.50 138.24 260.49
  C 139.18 288.12 149.10 315.33 179.66 321.31
  C 214.42 328.11 261.17 317.81 271.88 278.43
  C 278.35 254.62 270.29 231.09 250.86 215.66
  A 0.76 0.75 46.8 0 0 249.96 215.63
  Q 237.41 224.28 223.46 229.71
  Q 206.72 236.22 189.55 233.36
  C 177.67 231.39 166.22 224.02 162.17 212.32
  C 156.08 194.73 163.54 174.89 181.22 167.97
  C 202.85 159.49 228.80 170.50 247.89 180.72
  A 1.64 1.64 0.0 0 0 249.85 180.41
  C 261.05 168.68 270.37 153.33 267.57 136.47
  Q 265.76 125.64 259.77 116.47
  Q 242.63 90.28 212.52 85.28
  C 204.81 84.00 195.03 84.06 186.25 84.33
  C 169.74 84.86 152.67 89.84 139.42 100.35
  A 0.67 0.67 0.0 0 0 139.36 101.34"
/>
<path stroke="#89b1b6" vector-effect="non-scaling-stroke" d="
  M 228.19 198.31
  C 220.31 194.64 212.32 191.44 203.64 189.64
  C 194.13 187.67 183.72 189.29 184.43 201.76
  C 185.20 215.15 206.32 209.92 213.44 207.22
  Q 221.26 204.26 228.27 199.20
  A 0.52 0.52 0.0 0 0 228.19 198.31"
/>
</g>
<path fill="#ffffff" d="
  M 400.00 0.00
  L 400.00 400.00
  L 0.00 400.00
  L 0.00 0.00
  L 400.00 0.00
  Z
  M 272.47 196.47
  Q 272.45 196.18 272.59 196.02
  C 296.68 169.79 303.75 136.14 285.29 104.12
  Q 269.72 77.12 242.12 65.28
  Q 215.91 54.03 186.52 56.60
  C 163.30 58.63 139.63 65.68 120.89 79.33
  C 110.63 86.79 102.58 96.46 100.70 109.21
  A 1.43 1.39 33.1 0 0 100.93 110.23
  C 102.77 112.94 105.64 112.60 108.18 113.35
  C 119.04 116.54 122.68 127.86 123.33 138.35
  C 124.42 155.74 120.97 169.47 116.93 190.85
  Q 111.49 219.67 110.63 243.50
  C 109.97 261.81 110.83 280.40 116.68 298.08
  C 129.74 337.63 162.71 351.75 201.75 350.85
  C 241.41 349.93 280.18 332.91 295.63 294.05
  C 308.93 260.60 300.77 220.48 272.71 197.02
  Q 272.50 196.85 272.47 196.47
  Z"
/>
<path fill="#13636d" d="
  M 272.47 196.47
  Q 272.50 196.85 272.71 197.02
  C 300.77 220.48 308.93 260.60 295.63 294.05
  C 280.18 332.91 241.41 349.93 201.75 350.85
  C 162.71 351.75 129.74 337.63 116.68 298.08
  C 110.83 280.40 109.97 261.81 110.63 243.50
  Q 111.49 219.67 116.93 190.85
  C 120.97 169.47 124.42 155.74 123.33 138.35
  C 122.68 127.86 119.04 116.54 108.18 113.35
  C 105.64 112.60 102.77 112.94 100.93 110.23
  A 1.43 1.39 33.1 0 1 100.70 109.21
  C 102.58 96.46 110.63 86.79 120.89 79.33
  C 139.63 65.68 163.30 58.63 186.52 56.60
  Q 215.91 54.03 242.12 65.28
  Q 269.72 77.12 285.29 104.12
  C 303.75 136.14 296.68 169.79 272.59 196.02
  Q 272.45 196.18 272.47 196.47
  Z
  M 139.36 101.34
  Q 147.59 109.90 150.11 122.27
  C 153.48 138.76 151.61 157.47 148.31 173.83
  Q 143.36 198.31 140.96 214.73
  Q 137.50 238.50 138.24 260.49
  C 139.18 288.12 149.10 315.33 179.66 321.31
  C 214.42 328.11 261.17 317.81 271.88 278.43
  C 278.35 254.62 270.29 231.09 250.86 215.66
  A 0.76 0.75 46.8 0 0 249.96 215.63
  Q 237.41 224.28 223.46 229.71
  Q 206.72 236.22 189.55 233.36
  C 177.67 231.39 166.22 224.02 162.17 212.32
  C 156.08 194.73 163.54 174.89 181.22 167.97
  C 202.85 159.49 228.80 170.50 247.89 180.72
  A 1.64 1.64 0.0 0 0 249.85 180.41
  C 261.05 168.68 270.37 153.33 267.57 136.47
  Q 265.76 125.64 259.77 116.47
  Q 242.63 90.28 212.52 85.28
  C 204.81 84.00 195.03 84.06 186.25 84.33
  C 169.74 84.86 152.67 89.84 139.42 100.35
  A 0.67 0.67 0.0 0 0 139.36 101.34
  Z
  M 228.19 198.31
  C 220.31 194.64 212.32 191.44 203.64 189.64
  C 194.13 187.67 183.72 189.29 184.43 201.76
  C 185.20 215.15 206.32 209.92 213.44 207.22
  Q 221.26 204.26 228.27 199.20
  A 0.52 0.52 0.0 0 0 228.19 198.31
  Z"
/>
<path fill="#ffffff" d="
  M 139.36 101.34
  A 0.67 0.67 0.0 0 1 139.42 100.35
  C 152.67 89.84 169.74 84.86 186.25 84.33
  C 195.03 84.06 204.81 84.00 212.52 85.28
  Q 242.63 90.28 259.77 116.47
  Q 265.76 125.64 267.57 136.47
  C 270.37 153.33 261.05 168.68 249.85 180.41
  A 1.64 1.64 0.0 0 1 247.89 180.72
  C 228.80 170.50 202.85 159.49 181.22 167.97
  C 163.54 174.89 156.08 194.73 162.17 212.32
  C 166.22 224.02 177.67 231.39 189.55 233.36
  Q 206.72 236.22 223.46 229.71
  Q 237.41 224.28 249.96 215.63
  A 0.76 0.75 46.8 0 1 250.86 215.66
  C 270.29 231.09 278.35 254.62 271.88 278.43
  C 261.17 317.81 214.42 328.11 179.66 321.31
  C 149.10 315.33 139.18 288.12 138.24 260.49
  Q 137.50 238.50 140.96 214.73
  Q 143.36 198.31 148.31 173.83
  C 151.61 157.47 153.48 138.76 150.11 122.27
  Q 147.59 109.90 139.36 101.34
  Z"
/>
<path fill="#ffffff" d="
  M 228.19 198.31
  A 0.52 0.52 0.0 0 1 228.27 199.20
  Q 221.26 204.26 213.44 207.22
  C 206.32 209.92 185.20 215.15 184.43 201.76
  C 183.72 189.29 194.13 187.67 203.64 189.64
  C 212.32 191.44 220.31 194.64 228.19 198.31
  Z"
/>
</svg>
