<?xml version="1.0" encoding="utf-8"?>
<!-- Generator: Adobe Illustrator 25.1.0, SVG Export Plug-In . SVG Version: 6.00 Build 0)  -->
<svg version="1.1" id="Layer_1" xmlns="http://www.w3.org/2000/svg" xmlns:xlink="http://www.w3.org/1999/xlink" x="0px" y="0px"
	 viewBox="0 0 342 98" style="enable-background:new 0 0 342 98;" xml:space="preserve">
<style type="text/css">
	.st0{fill:#0073D9;}
	.st1{fill:#5E5E5D;}
</style>
<g>
	<path class="st0" d="M149.9,51.8c-0.7-0.5-1.3-0.8-1.9-1.2c0.4-0.4,0.8-0.7,1.2-1.1c0.8-0.6,1.5-1.5,2-2.5c0.6-1,0.8-2.4,0.8-4.2
		c0-2-0.4-3.9-1.2-5.6c-0.8-1.7-2.3-3.1-4.2-4.1c-2-1-4.8-1.5-8.3-1.5h-13.7v40.9h14.9c3,0,5.7-0.4,7.9-1.2c2.3-0.8,4-2.1,5.2-3.8
		c1.2-1.7,1.8-4,1.8-6.8c0-2.2-0.4-4.1-1.3-5.6C152.2,53.8,151.2,52.6,149.9,51.8z M139.8,67.7h-10.1V53.9h9.9
		c1.1,0,2.3,0.1,3.5,0.2c1.1,0.1,2.2,0.4,3.1,0.9c0.9,0.4,1.6,1.1,2.2,1.9s0.8,2.1,0.8,3.6c0,2-0.4,3.6-1.3,4.6
		c-0.9,1-2,1.7-3.4,2.1C143.1,67.5,141.5,67.7,139.8,67.7z M145.7,47c-0.7,0.8-1.7,1.4-2.8,1.6c-1.2,0.2-2.4,0.4-3.7,0.4h-9.5V36.6
		h8.9c2.6,0,4.6,0.5,6.1,1.4c1.4,0.9,2.1,2.6,2.1,5.1C146.8,44.9,146.5,46.2,145.7,47z"/>
	<rect x="158.2" y="41.7" class="st0" width="5.2" height="30.8"/>
	<rect x="157.9" y="31.6" class="st0" width="5.7" height="5.6"/>
	<path class="st0" d="M191.9,44.5c-1.1-1.1-2.6-2-4.4-2.5c-3.2-1-6.9-1-10.7-0.1c-1.8,0.4-3.5,1.2-5,2.4c-1.5,1.2-2.8,2.9-3.7,5.1
		c-0.9,2.2-1.4,5.1-1.4,8.6c0,3.1,0.5,5.9,1.5,8.2c1,2.3,2.6,4.2,4.7,5.4s4.7,1.9,7.9,1.9c0.9,0,2-0.1,3.2-0.4
		c1.2-0.2,2.4-0.6,3.6-0.9c0.3-0.1,0.6-0.2,0.8-0.3v1.6c0,0.9-0.2,1.9-0.6,2.8c-0.4,0.9-1.1,1.6-2.4,2.3c-1.2,0.6-3.2,0.9-5.8,0.9
		c-1.1,0-2.1-0.1-3.1-0.2c-1-0.2-1.9-0.3-2.7-0.6c-0.8-0.2-1.6-0.4-2.2-0.6l-0.5-0.1V83l0.3,0.1c1.1,0.3,2.4,0.6,3.8,0.9
		c1.5,0.3,3.1,0.5,4.8,0.5c2.7,0,5-0.3,6.7-1c1.8-0.7,3.2-1.6,4.1-2.7c1-1.1,1.7-2.3,2-3.6c0.4-1.3,0.6-2.5,0.6-3.8V49.1
		C193.7,47.2,193.1,45.7,191.9,44.5z M188.5,49.7v17c-1.1,0.6-2.4,1.1-3.7,1.4c-1.4,0.3-2.7,0.5-4,0.5c-3.1,0-5.4-1-6.7-2.9
		c-1.4-2-2-4.6-2-7.8c0-2.1,0.3-4.1,0.8-6c0.5-1.8,1.5-3.2,2.9-4.3c1.4-1.1,3.5-1.6,6.4-1.6c1.2,0,2.3,0.1,3.3,0.3
		c1,0.2,1.7,0.6,2.3,1.1C188.3,48,188.5,48.7,188.5,49.7z"/>
	<g>
		<polygon class="st1" points="217.7,52.2 204.3,31.6 199,31.6 199,72.6 204.2,72.6 204.2,40.6 217.4,60.3 231.6,40.4 231.6,72.6 
			236.8,72.6 236.8,31.6 231.5,31.6 		"/>
		<path class="st1" d="M264.3,44.8c-0.6-0.8-1.5-1.5-2.4-2c-0.9-0.5-2-0.9-3.1-1.2c-2.8-0.7-6.4-0.5-9.9,0.2
			c-2.1,0.4-3.9,1.1-5.1,1.9l-0.2,0.1v5.4l0.7-0.5c1.2-1,2.7-1.7,4.5-2.1c1.7-0.5,3.4-0.7,5-0.7c2.4,0,4.3,0.5,5.6,1.5
			c1.2,1,1.9,2.6,1.9,4.8v2.8c-0.4-0.2-0.9-0.4-1.4-0.6c-1-0.4-2.1-0.7-3.3-0.9c-1.2-0.2-2.7-0.3-4.3-0.3c-2.2,0-4.2,0.3-5.9,1
			c-1.7,0.7-3.1,1.8-4.1,3.4c-1,1.6-1.5,3.6-1.5,6.2c0,1.9,0.4,3.5,1.1,4.7c0.7,1.2,1.7,2.2,2.9,2.9c1.2,0.7,2.5,1.2,3.9,1.5
			c1.4,0.3,2.8,0.4,4.1,0.4c2.3,0,4.5-0.2,6.6-0.5c2.1-0.3,3.8-1.1,5.1-2.1c1.4-1.1,2-2.8,2-5.1V51.2c0-1.3-0.2-2.5-0.5-3.6
			C265.4,46.6,264.9,45.6,264.3,44.8z M258.9,58.8c0.9,0.2,1.6,0.5,2.3,0.8V66c0,1.2-0.5,1.9-1.7,2.2c-1.3,0.4-3.2,0.6-5.8,0.6
			c-1.3,0-2.5-0.2-3.8-0.5c-1.2-0.3-2.2-0.9-2.9-1.7c-0.7-0.8-1.1-1.9-1.1-3.3c0-1.7,0.6-3,1.9-3.9c1.3-0.9,3.2-1.4,5.6-1.4
			C255.3,58,257.2,58.3,258.9,58.8z"/>
		<rect x="271.1" y="41.7" class="st1" width="5.2" height="30.8"/>
		<rect x="270.8" y="31.6" class="st1" width="5.7" height="5.6"/>
		<rect x="281.1" y="30.3" class="st1" width="5.2" height="42.3"/>
		<path class="st1" d="M311.4,43.4c-2-1.5-4.7-2.3-8-2.3c-4.2,0-7.5,1.4-10,4c-2.4,2.7-3.6,6.7-3.6,11.9c0,3.6,0.6,6.6,1.7,9
			c1.1,2.4,2.8,4.3,5,5.5c2.1,1.2,4.7,1.8,7.6,1.8c2.1,0,4.1-0.2,5.8-0.6c1.8-0.4,3.4-0.9,4.9-1.6l0.2-0.1v-5.5l-0.6,0.4
			c-0.8,0.5-1.7,0.9-2.7,1.3c-1,0.4-2.1,0.7-3.3,0.9c-1.2,0.2-2.6,0.3-4,0.3c-2.9,0-5.3-0.9-6.9-2.7c-1.6-1.7-2.4-4.3-2.4-7.6H317
			v-0.4c0-3.1-0.4-6-1.2-8.4C314.9,47,313.4,44.9,311.4,43.4z M296,50.6c0.6-1.7,1.5-2.9,2.7-3.5c1.2-0.7,2.8-1,4.7-1
			c2.7,0,4.7,0.7,6,2.1c1.1,1.2,1.8,3.1,2.1,5.4h-16.2C295.5,52.4,295.7,51.4,296,50.6z"/>
		<path class="st1" d="M335.5,41.3c-0.4-0.1-0.7-0.1-1.1-0.1c-2.1,0-4.2,0.2-6.1,0.6c-1.9,0.4-3.6,0.9-5,1.3c-1.4,0.5-2.3,0.8-2.8,1
			l-0.3,0.1v28.3h5.2V47l2.4-0.4c0.9-0.2,1.8-0.3,2.7-0.4c1.8-0.2,3.8-0.2,5.8,0l0.5,0.1v-4.6L335.5,41.3z"/>
	</g>
	<path class="st0" d="M92.7,29.6C86.9,17.3,74.8,9.5,61.3,9.5S35.7,17.3,30,29.6C16.3,29.9,5.2,41.1,5.2,54.9
		c0,13.9,11.4,25.3,25.3,25.3h6.7h24.1h24.1h6.7c13.9,0,25.3-11.4,25.3-25.3C117.4,41.1,106.4,29.9,92.7,29.6z M61.3,75H42.4V54.3
		l18.9,17.5l18.9-17.5V75L61.3,75L61.3,75z M46.7,51.2H76L61.3,64.7L46.7,51.2z M92.1,75h-6.7V46H37.2v29h-6.7
		c-11.1,0-20.1-9-20.1-20.1s9-20.1,20.1-20.1c0.3,0,0.7,0,1,0l1.8,0.1l0.7-1.7c4.6-11.2,15.3-18.5,27.3-18.5S84,21.9,88.6,33.2
		l0.7,1.7l1.8-0.1c0.3,0,0.6,0,1,0c11.1,0,20.1,9,20.1,20.1S103.2,75,92.1,75z"/>
</g>
</svg>
