<?xml version="1.0" encoding="UTF-8" standalone="no"?>
<!DOCTYPE svg PUBLIC "-//W3C//DTD SVG 1.1//EN" "http://www.w3.org/Graphics/SVG/1.1/DTD/svg11.dtd">
<svg xmlns="http://www.w3.org/2000/svg" version="1.1" viewBox="0.00 0.00 400.00 400.00">
<g stroke-width="2.00" fill="none" stroke-linecap="butt">
<path stroke="#c1d18e" vector-effect="non-scaling-stroke" d="
  M 325.47 64.64
  L 290.42 64.64
  A 0.54 0.53 -0.0 0 0 289.88 65.17
  Q 289.87 138.78 289.87 219.61
  C 289.88 233.04 292.15 246.60 300.75 257.49
  Q 307.34 265.84 318.11 272.69
  Q 329.32 279.82 343.80 286.53
  A 0.54 0.53 -62.2 0 0 344.50 286.31
  L 360.18 259.17
  A 0.74 0.73 -60.5 0 0 359.91 258.17
  Q 348.48 251.67 347.63 251.19
  Q 338.39 246.02 335.74 243.82
  C 326.89 236.49 326.00 225.02 326.01 214.00
  Q 326.04 92.50 325.95 65.12
  A 0.48 0.48 0.0 0 0 325.47 64.64"
/>
<path stroke="#c1d18e" vector-effect="non-scaling-stroke" d="
  M 148.12 282.37
  Q 162.56 282.37 165.23 282.37
  A 0.87 0.87 0.0 0 0 166.10 281.50
  Q 166.22 233.52 166.10 186.26
  Q 166.08 178.38 166.95 172.25
  C 168.57 160.75 175.15 150.26 186.98 147.28
  Q 201.23 143.69 211.82 150.95
  C 221.31 157.46 224.11 168.65 224.11 179.50
  Q 224.12 225.17 224.12 281.64
  A 0.72 0.72 0.0 0 0 224.84 282.36
  L 259.32 282.36
  A 0.85 0.84 -0.0 0 0 260.17 281.52
  Q 260.16 235.47 260.19 189.69
  Q 260.20 176.10 259.90 171.32
  C 257.85 139.30 237.66 113.73 205.13 110.44
  Q 192.47 109.15 180.07 112.58
  Q 157.70 118.76 148.49 139.35
  Q 148.40 139.55 148.36 139.57
  Q 148.25 139.63 148.12 139.63
  Q 147.99 139.63 147.88 139.57
  Q 147.84 139.55 147.75 139.35
  Q 138.53 118.76 116.16 112.58
  Q 103.76 109.15 91.10 110.44
  C 58.57 113.73 38.39 139.30 36.34 171.32
  Q 36.04 176.10 36.05 189.69
  Q 36.08 235.47 36.07 281.52
  A 0.85 0.84 -0.0 0 0 36.92 282.36
  L 71.40 282.36
  A 0.72 0.72 0.0 0 0 72.12 281.64
  Q 72.12 225.17 72.13 179.50
  C 72.13 168.65 74.93 157.46 84.42 150.95
  Q 95.01 143.69 109.26 147.28
  C 121.09 150.26 127.67 160.75 129.29 172.25
  Q 130.16 178.38 130.14 186.26
  Q 130.02 233.52 130.14 281.50
  A 0.87 0.87 0.0 0 0 131.01 282.37
  Q 133.68 282.37 148.12 282.37"
/>
</g>
<path fill="#82a21d" d="
  M 400.00 0.00
  L 400.00 400.00
  L 0.00 400.00
  L 0.00 0.00
  L 400.00 0.00
  Z
  M 325.47 64.64
  L 290.42 64.64
  A 0.54 0.53 -0.0 0 0 289.88 65.17
  Q 289.87 138.78 289.87 219.61
  C 289.88 233.04 292.15 246.60 300.75 257.49
  Q 307.34 265.84 318.11 272.69
  Q 329.32 279.82 343.80 286.53
  A 0.54 0.53 -62.2 0 0 344.50 286.31
  L 360.18 259.17
  A 0.74 0.73 -60.5 0 0 359.91 258.17
  Q 348.48 251.67 347.63 251.19
  Q 338.39 246.02 335.74 243.82
  C 326.89 236.49 326.00 225.02 326.01 214.00
  Q 326.04 92.50 325.95 65.12
  A 0.48 0.48 0.0 0 0 325.47 64.64
  Z
  M 148.12 282.37
  Q 162.56 282.37 165.23 282.37
  A 0.87 0.87 0.0 0 0 166.10 281.50
  Q 166.22 233.52 166.10 186.26
  Q 166.08 178.38 166.95 172.25
  C 168.57 160.75 175.15 150.26 186.98 147.28
  Q 201.23 143.69 211.82 150.95
  C 221.31 157.46 224.11 168.65 224.11 179.50
  Q 224.12 225.17 224.12 281.64
  A 0.72 0.72 0.0 0 0 224.84 282.36
  L 259.32 282.36
  A 0.85 0.84 -0.0 0 0 260.17 281.52
  Q 260.16 235.47 260.19 189.69
  Q 260.20 176.10 259.90 171.32
  C 257.85 139.30 237.66 113.73 205.13 110.44
  Q 192.47 109.15 180.07 112.58
  Q 157.70 118.76 148.49 139.35
  Q 148.40 139.55 148.36 139.57
  Q 148.25 139.63 148.12 139.63
  Q 147.99 139.63 147.88 139.57
  Q 147.84 139.55 147.75 139.35
  Q 138.53 118.76 116.16 112.58
  Q 103.76 109.15 91.10 110.44
  C 58.57 113.73 38.39 139.30 36.34 171.32
  Q 36.04 176.10 36.05 189.69
  Q 36.08 235.47 36.07 281.52
  A 0.85 0.84 -0.0 0 0 36.92 282.36
  L 71.40 282.36
  A 0.72 0.72 0.0 0 0 72.12 281.64
  Q 72.12 225.17 72.13 179.50
  C 72.13 168.65 74.93 157.46 84.42 150.95
  Q 95.01 143.69 109.26 147.28
  C 121.09 150.26 127.67 160.75 129.29 172.25
  Q 130.16 178.38 130.14 186.26
  Q 130.02 233.52 130.14 281.50
  A 0.87 0.87 0.0 0 0 131.01 282.37
  Q 133.68 282.37 148.12 282.37
  Z"
/>
<path fill="#ffffff" d="
  M 325.47 64.64
  A 0.48 0.48 0.0 0 1 325.95 65.12
  Q 326.04 92.50 326.01 214.00
  C 326.00 225.02 326.89 236.49 335.74 243.82
  Q 338.39 246.02 347.63 251.19
  Q 348.48 251.67 359.91 258.17
  A 0.74 0.73 -60.5 0 1 360.18 259.17
  L 344.50 286.31
  A 0.54 0.53 -62.2 0 1 343.80 286.53
  Q 329.32 279.82 318.11 272.69
  Q 307.34 265.84 300.75 257.49
  C 292.15 246.60 289.88 233.04 289.87 219.61
  Q 289.87 138.78 289.88 65.17
  A 0.54 0.53 -0.0 0 1 290.42 64.64
  L 325.47 64.64
  Z"
/>
<path fill="#ffffff" d="
  M 148.12 139.63
  Q 148.25 139.63 148.36 139.57
  Q 148.40 139.55 148.49 139.35
  Q 157.70 118.76 180.07 112.58
  Q 192.47 109.15 205.13 110.44
  C 237.66 113.73 257.85 139.30 259.90 171.32
  Q 260.20 176.10 260.19 189.69
  Q 260.16 235.47 260.17 281.52
  A 0.85 0.84 -0.0 0 1 259.32 282.36
  L 224.84 282.36
  A 0.72 0.72 0.0 0 1 224.12 281.64
  Q 224.12 225.17 224.11 179.50
  C 224.11 168.65 221.31 157.46 211.82 150.95
  Q 201.23 143.69 186.98 147.28
  C 175.15 150.26 168.57 160.75 166.95 172.25
  Q 166.08 178.38 166.10 186.26
  Q 166.22 233.52 166.10 281.50
  A 0.87 0.87 0.0 0 1 165.23 282.37
  Q 162.56 282.37 148.12 282.37
  Q 133.68 282.37 131.01 282.37
  A 0.87 0.87 0.0 0 1 130.14 281.50
  Q 130.02 233.52 130.14 186.26
  Q 130.16 178.38 129.29 172.25
  C 127.67 160.75 121.09 150.26 109.26 147.28
  Q 95.01 143.69 84.42 150.95
  C 74.93 157.46 72.13 168.65 72.13 179.50
  Q 72.12 225.17 72.12 281.64
  A 0.72 0.72 0.0 0 1 71.40 282.36
  L 36.92 282.36
  A 0.85 0.84 -0.0 0 1 36.07 281.52
  Q 36.08 235.47 36.05 189.69
  Q 36.04 176.10 36.34 171.32
  C 38.39 139.30 58.57 113.73 91.10 110.44
  Q 103.76 109.15 116.16 112.58
  Q 138.53 118.76 147.75 139.35
  Q 147.84 139.55 147.88 139.57
  Q 147.99 139.63 148.12 139.63
  Z"
/>
</svg>
