<?xml version="1.0" encoding="UTF-8" standalone="no"?>
<!DOCTYPE svg PUBLIC "-//W3C//DTD SVG 1.1//EN" "http://www.w3.org/Graphics/SVG/1.1/DTD/svg11.dtd">
<svg xmlns="http://www.w3.org/2000/svg" version="1.1" viewBox="0.00 0.00 400.00 400.00">
<g stroke-width="2.00" fill="none" stroke-linecap="butt">
<path stroke="#00b0a4" vector-effect="non-scaling-stroke" d="
  M 257.18 1.01
  C 253.59 13.62 245.79 22.27 236.36 30.88
  Q 206.11 58.50 174.92 85.43"
/>
<path stroke="#80dad3" vector-effect="non-scaling-stroke" d="
  M 174.92 85.43
  L 106.38 85.47
  A 0.49 0.48 90.0 0 0 105.90 85.96
  L 105.88 153.71"
/>
<path stroke="#00b0a4" vector-effect="non-scaling-stroke" d="
  M 105.88 153.71
  Q 93.76 172.41 78.42 188.44
  Q 75.71 191.27 56.66 209.56
  Q 45.72 220.06 34.77 230.54
  Q 22.04 242.73 1.01 256.17"
/>
<path stroke="#80d6d0" vector-effect="non-scaling-stroke" d="
  M 135.03 273.58
  L 106.67 273.60
  A 0.79 0.79 0.0 0 1 105.87 272.81
  L 105.88 153.71"
/>
<path stroke="#80d6d0" vector-effect="non-scaling-stroke" d="
  M 138.07 281.46
  L 106.39 281.46
  A 0.58 0.58 0.0 0 0 105.81 282.04
  L 105.80 289.15"
/>
<path stroke="#01a89c" vector-effect="non-scaling-stroke" d="
  M 105.80 289.15
  C 94.80 298.29 87.84 306.62 77.12 318.99
  Q 65.75 332.12 47.52 346.93
  Q 27.80 362.95 24.20 366.09
  Q 16.93 372.43 8.81 382.50"
/>
<path stroke="#01a89c" vector-effect="non-scaling-stroke" d="
  M 382.05 8.57
  Q 366.56 18.83 353.17 31.44
  C 345.54 38.63 338.40 47.21 331.47 54.66
  Q 318.48 68.61 305.80 80.49
  C 294.99 90.61 286.25 98.49 271.91 100.33"
/>
<path stroke="#80d6d0" vector-effect="non-scaling-stroke" d="
  M 271.91 100.33
  Q 259.12 90.54 245.25 88.18
  Q 236.99 86.78 223.95 85.97
  C 208.46 85.00 191.28 85.49 174.92 85.43"
/>
<path stroke="#01a095" vector-effect="non-scaling-stroke" d="
  M 398.81 114.86
  Q 383.47 133.27 367.06 150.21
  Q 346.82 171.11 326.42 191.85
  Q 318.25 200.15 313.43 206.44
  Q 305.51 216.76 297.48 227.19"
/>
<path stroke="#80d2cc" vector-effect="non-scaling-stroke" d="
  M 297.48 227.19
  Q 290.26 210.68 274.29 200.40
  A 1.96 1.96 0.0 0 0 271.99 200.53
  Q 255.97 213.64 234.91 219.80
  A 0.59 0.58 47.2 0 0 234.87 220.91
  Q 237.06 221.73 237.91 222.14
  Q 239.22 222.77 240.71 223.84
  Q 252.47 232.24 253.16 248.24
  C 253.68 260.30 248.81 271.64 237.95 277.05
  Q 232.19 279.91 226.73 280.39
  Q 214.83 281.42 210.25 281.42
  Q 174.13 281.45 138.07 281.46"
/>
<path stroke="#01a89c" vector-effect="non-scaling-stroke" d="
  M 138.07 281.46
  L 132.60 278.24
  A 1.69 1.69 0.0 0 1 131.99 275.94
  Q 132.78 274.57 135.03 273.58"
/>
<path stroke="#80d2cc" vector-effect="non-scaling-stroke" d="
  M 135.03 273.58
  L 153.89 273.58
  A 0.66 0.65 90.0 0 0 154.54 272.92
  L 154.54 221.87
  A 0.55 0.55 0.0 0 1 155.20 221.33
  Q 156.47 221.56 159.25 221.57
  Q 185.75 221.67 192.75 221.48
  Q 204.33 221.16 211.00 220.51
  Q 221.97 219.43 234.30 216.26
  Q 234.82 216.13 235.03 215.92
  Q 235.35 215.60 235.79 215.60
  Q 236.21 215.60 236.70 215.45
  Q 251.07 211.15 262.91 202.62
  C 269.46 197.91 277.27 191.34 281.99 184.75
  Q 285.92 179.26 288.19 172.96
  Q 291.16 164.71 291.44 163.71
  Q 295.38 149.48 293.19 135.96
  C 290.92 122.03 282.82 109.42 271.91 100.33"
/>
<path stroke="#80d2cc" vector-effect="non-scaling-stroke" d="
  M 139.19 322.76
  L 106.77 322.83
  A 0.97 0.97 0.0 0 1 105.80 321.86
  L 105.80 289.15"
/>
<path stroke="#00998e" vector-effect="non-scaling-stroke" d="
  M 398.81 215.12
  Q 387.98 232.69 373.71 246.92
  C 355.36 265.22 343.04 276.38 331.55 291.93
  Q 318.20 310.00 315.55 313.40
  Q 303.57 328.77 287.17 340.70
  Q 267.14 355.26 251.65 371.16
  Q 238.57 384.57 226.25 398.74"
/>
<path stroke="#01a095" vector-effect="non-scaling-stroke" d="
  M 118.74 398.74
  C 119.00 390.01 124.02 384.09 129.68 377.18
  Q 142.35 361.71 162.58 338.34
  C 165.23 335.29 171.11 328.59 165.14 326.30
  Q 160.23 324.43 153.36 324.04
  Q 149.68 323.84 139.19 322.76"
/>
<path stroke="#80cec8" vector-effect="non-scaling-stroke" d="
  M 139.19 322.76
  Q 188.76 323.20 238.24 321.16
  Q 247.42 320.78 254.49 318.80
  Q 278.39 312.08 291.36 290.62
  Q 301.82 273.30 302.07 251.83
  Q 302.22 238.41 297.48 227.19"
/>
<path stroke="#80d6d0" vector-effect="non-scaling-stroke" d="
  M 155.19 181.16
  Q 202.27 181.22 212.75 180.70
  Q 219.50 180.36 221.31 180.14
  Q 232.43 178.80 240.16 171.19
  Q 242.98 168.41 245.55 162.18
  C 246.95 158.81 246.92 152.86 246.73 149.98
  Q 246.18 141.59 240.51 134.99
  Q 237.24 131.19 230.56 128.47
  Q 226.98 127.02 218.71 126.61
  Q 203.64 125.87 203.00 125.87
  Q 180.54 125.89 155.02 125.87
  A 0.47 0.46 90.0 0 0 154.56 126.34
  L 154.56 180.53
  A 0.63 0.63 0.0 0 0 155.19 181.16"
/>
</g>
<path fill="#00b4a7" d="
  M 257.18 1.01
  C 253.59 13.62 245.79 22.27 236.36 30.88
  Q 206.11 58.50 174.92 85.43
  L 106.38 85.47
  A 0.49 0.48 90.0 0 0 105.90 85.96
  L 105.88 153.71
  Q 93.76 172.41 78.42 188.44
  Q 75.71 191.27 56.66 209.56
  Q 45.72 220.06 34.77 230.54
  Q 22.04 242.73 1.01 256.17
  Q 0.98 146.78 1.03 37.29
  Q 1.03 35.96 2.65 30.04
  Q 3.80 25.83 5.27 23.09
  Q 12.77 9.12 27.53 3.29
  Q 29.10 2.67 34.00 1.65
  Q 37.03 1.03 40.63 1.02
  Q 148.94 0.98 257.18 1.01
  Z"
/>
<path fill="#00aca0" d="
  M 382.05 8.57
  Q 366.56 18.83 353.17 31.44
  C 345.54 38.63 338.40 47.21 331.47 54.66
  Q 318.48 68.61 305.80 80.49
  C 294.99 90.61 286.25 98.49 271.91 100.33
  Q 259.12 90.54 245.25 88.18
  Q 236.99 86.78 223.95 85.97
  C 208.46 85.00 191.28 85.49 174.92 85.43
  Q 206.11 58.50 236.36 30.88
  C 245.79 22.27 253.59 13.62 257.18 1.01
  Q 305.51 0.98 353.78 1.01
  Q 363.99 1.02 368.62 2.21
  Q 375.81 4.08 382.05 8.57
  Z"
/>
<path fill="#01a498" d="
  M 382.05 8.57
  Q 395.39 18.28 398.51 34.80
  Q 399.01 37.47 399.00 40.25
  Q 398.91 77.68 398.81 114.86
  Q 383.47 133.27 367.06 150.21
  Q 346.82 171.11 326.42 191.85
  Q 318.25 200.15 313.43 206.44
  Q 305.51 216.76 297.48 227.19
  Q 290.26 210.68 274.29 200.40
  A 1.96 1.96 0.0 0 0 271.99 200.53
  Q 255.97 213.64 234.91 219.80
  A 0.59 0.58 47.2 0 0 234.87 220.91
  Q 237.06 221.73 237.91 222.14
  Q 239.22 222.77 240.71 223.84
  Q 252.47 232.24 253.16 248.24
  C 253.68 260.30 248.81 271.64 237.95 277.05
  Q 232.19 279.91 226.73 280.39
  Q 214.83 281.42 210.25 281.42
  Q 174.13 281.45 138.07 281.46
  L 132.60 278.24
  A 1.69 1.69 0.0 0 1 131.99 275.94
  Q 132.78 274.57 135.03 273.58
  L 153.89 273.58
  A 0.66 0.65 90.0 0 0 154.54 272.92
  L 154.54 221.87
  A 0.55 0.55 0.0 0 1 155.20 221.33
  Q 156.47 221.56 159.25 221.57
  Q 185.75 221.67 192.75 221.48
  Q 204.33 221.16 211.00 220.51
  Q 221.97 219.43 234.30 216.26
  Q 234.82 216.13 235.03 215.92
  Q 235.35 215.60 235.79 215.60
  Q 236.21 215.60 236.70 215.45
  Q 251.07 211.15 262.91 202.62
  C 269.46 197.91 277.27 191.34 281.99 184.75
  Q 285.92 179.26 288.19 172.96
  Q 291.16 164.71 291.44 163.71
  Q 295.38 149.48 293.19 135.96
  C 290.92 122.03 282.82 109.42 271.91 100.33
  C 286.25 98.49 294.99 90.61 305.80 80.49
  Q 318.48 68.61 331.47 54.66
  C 338.40 47.21 345.54 38.63 353.17 31.44
  Q 366.56 18.83 382.05 8.57
  Z"
/>
<path fill="#ffffff" d="
  M 174.92 85.43
  C 191.28 85.49 208.46 85.00 223.95 85.97
  Q 236.99 86.78 245.25 88.18
  Q 259.12 90.54 271.91 100.33
  C 282.82 109.42 290.92 122.03 293.19 135.96
  Q 295.38 149.48 291.44 163.71
  Q 291.16 164.71 288.19 172.96
  Q 285.92 179.26 281.99 184.75
  C 277.27 191.34 269.46 197.91 262.91 202.62
  Q 251.07 211.15 236.70 215.45
  Q 236.21 215.60 235.79 215.60
  Q 235.35 215.60 235.03 215.92
  Q 234.82 216.13 234.30 216.26
  Q 221.97 219.43 211.00 220.51
  Q 204.33 221.16 192.75 221.48
  Q 185.75 221.67 159.25 221.57
  Q 156.47 221.56 155.20 221.33
  A 0.55 0.55 0.0 0 0 154.54 221.87
  L 154.54 272.92
  A 0.66 0.65 90.0 0 1 153.89 273.58
  L 135.03 273.58
  L 106.67 273.60
  A 0.79 0.79 0.0 0 1 105.87 272.81
  L 105.88 153.71
  L 105.90 85.96
  A 0.49 0.48 -90.0 0 1 106.38 85.47
  L 174.92 85.43
  Z
  M 155.19 181.16
  Q 202.27 181.22 212.75 180.70
  Q 219.50 180.36 221.31 180.14
  Q 232.43 178.80 240.16 171.19
  Q 242.98 168.41 245.55 162.18
  C 246.95 158.81 246.92 152.86 246.73 149.98
  Q 246.18 141.59 240.51 134.99
  Q 237.24 131.19 230.56 128.47
  Q 226.98 127.02 218.71 126.61
  Q 203.64 125.87 203.00 125.87
  Q 180.54 125.89 155.02 125.87
  A 0.47 0.46 90.0 0 0 154.56 126.34
  L 154.56 180.53
  A 0.63 0.63 0.0 0 0 155.19 181.16
  Z"
/>
<path fill="#009c91" d="
  M 398.81 114.86
  L 398.81 215.12
  Q 387.98 232.69 373.71 246.92
  C 355.36 265.22 343.04 276.38 331.55 291.93
  Q 318.20 310.00 315.55 313.40
  Q 303.57 328.77 287.17 340.70
  Q 267.14 355.26 251.65 371.16
  Q 238.57 384.57 226.25 398.74
  L 118.74 398.74
  C 119.00 390.01 124.02 384.09 129.68 377.18
  Q 142.35 361.71 162.58 338.34
  C 165.23 335.29 171.11 328.59 165.14 326.30
  Q 160.23 324.43 153.36 324.04
  Q 149.68 323.84 139.19 322.76
  Q 188.76 323.20 238.24 321.16
  Q 247.42 320.78 254.49 318.80
  Q 278.39 312.08 291.36 290.62
  Q 301.82 273.30 302.07 251.83
  Q 302.22 238.41 297.48 227.19
  Q 305.51 216.76 313.43 206.44
  Q 318.25 200.15 326.42 191.85
  Q 346.82 171.11 367.06 150.21
  Q 383.47 133.27 398.81 114.86
  Z"
/>
<path fill="#00aca0" d="
  M 154.56 180.53
  L 154.56 126.34
  A 0.47 0.46 90.0 0 1 155.02 125.87
  Q 180.54 125.89 203.00 125.87
  Q 203.64 125.87 218.71 126.61
  Q 226.98 127.02 230.56 128.47
  Q 237.24 131.19 240.51 134.99
  Q 246.18 141.59 246.73 149.98
  C 246.92 152.86 246.95 158.81 245.55 162.18
  Q 242.98 168.41 240.16 171.19
  Q 232.43 178.80 221.31 180.14
  Q 219.50 180.36 212.75 180.70
  Q 202.27 181.22 155.19 181.16
  A 0.63 0.63 0.0 0 1 154.56 180.53
  Z"
/>
<path fill="#00aca0" d="
  M 105.88 153.71
  L 105.87 272.81
  A 0.79 0.79 0.0 0 0 106.67 273.60
  L 135.03 273.58
  Q 132.78 274.57 131.99 275.94
  A 1.69 1.69 0.0 0 0 132.60 278.24
  L 138.07 281.46
  L 106.39 281.46
  A 0.58 0.58 0.0 0 0 105.81 282.04
  L 105.80 289.15
  C 94.80 298.29 87.84 306.62 77.12 318.99
  Q 65.75 332.12 47.52 346.93
  Q 27.80 362.95 24.20 366.09
  Q 16.93 372.43 8.81 382.50
  Q 4.99 376.93 3.56 373.20
  Q 2.48 370.37 1.64 365.91
  Q 1.03 362.63 1.02 358.41
  Q 0.98 307.33 1.01 256.17
  Q 22.04 242.73 34.77 230.54
  Q 45.72 220.06 56.66 209.56
  Q 75.71 191.27 78.42 188.44
  Q 93.76 172.41 105.88 153.71
  Z"
/>
<path fill="#ffffff" d="
  M 297.48 227.19
  Q 302.22 238.41 302.07 251.83
  Q 301.82 273.30 291.36 290.62
  Q 278.39 312.08 254.49 318.80
  Q 247.42 320.78 238.24 321.16
  Q 188.76 323.20 139.19 322.76
  L 106.77 322.83
  A 0.97 0.97 0.0 0 1 105.80 321.86
  L 105.80 289.15
  L 105.81 282.04
  A 0.58 0.58 0.0 0 1 106.39 281.46
  L 138.07 281.46
  Q 174.13 281.45 210.25 281.42
  Q 214.83 281.42 226.73 280.39
  Q 232.19 279.91 237.95 277.05
  C 248.81 271.64 253.68 260.30 253.16 248.24
  Q 252.47 232.24 240.71 223.84
  Q 239.22 222.77 237.91 222.14
  Q 237.06 221.73 234.87 220.91
  A 0.59 0.58 47.2 0 1 234.91 219.80
  Q 255.97 213.64 271.99 200.53
  A 1.96 1.96 0.0 0 1 274.29 200.40
  Q 290.26 210.68 297.48 227.19
  Z"
/>
<path fill="#00958a" d="
  M 398.81 215.12
  Q 398.91 287.01 398.82 358.59
  Q 398.81 365.05 397.60 369.17
  Q 392.48 386.67 375.93 395.02
  Q 372.13 396.94 367.90 397.93
  Q 364.56 398.71 359.48 398.71
  Q 292.81 398.78 226.25 398.74
  Q 238.57 384.57 251.65 371.16
  Q 267.14 355.26 287.17 340.70
  Q 303.57 328.77 315.55 313.40
  Q 318.20 310.00 331.55 291.93
  C 343.04 276.38 355.36 265.22 373.71 246.92
  Q 387.98 232.69 398.81 215.12
  Z"
/>
<path fill="#01a498" d="
  M 105.80 289.15
  L 105.80 321.86
  A 0.97 0.97 0.0 0 0 106.77 322.83
  L 139.19 322.76
  Q 149.68 323.84 153.36 324.04
  Q 160.23 324.43 165.14 326.30
  C 171.11 328.59 165.23 335.29 162.58 338.34
  Q 142.35 361.71 129.68 377.18
  C 124.02 384.09 119.00 390.01 118.74 398.74
  L 36.78 398.72
  A 4.46 4.42 -38.9 0 1 35.89 398.63
  Q 34.21 398.29 32.43 398.04
  Q 30.99 397.84 29.17 397.14
  Q 23.62 394.99 21.30 393.69
  Q 14.25 389.75 8.81 382.50
  Q 16.93 372.43 24.20 366.09
  Q 27.80 362.95 47.52 346.93
  Q 65.75 332.12 77.12 318.99
  C 87.84 306.62 94.80 298.29 105.80 289.15
  Z"
/>
</svg>
