<svg title="Bilflo logo" width="129" height="37" viewBox="0 0 129 37" fill="none" xmlns="http://www.w3.org/2000/svg" style="fill: none !important;">
                        <path d="M42.8569 4.72847C42.8569 4.61324 42.9494 4.52026 43.064 4.52026H53.4373C54.5962 4.52026 55.6795 4.70359 56.6872 5.07156C57.695 5.43952 58.57 5.94629 59.3135 6.59187C60.0556 7.23745 60.6415 7.99171 61.0699 8.85335C61.4983 9.71499 61.7118 10.6395 61.7118 11.6268C61.7118 13.0712 61.3655 14.2812 60.6728 15.2554C59.9801 16.231 59.1169 17.128 58.0843 17.6348C59.4697 18.1415 60.5843 19.0804 61.428 20.1568C62.2717 21.2332 62.6936 22.5702 62.6936 24.1665C62.6936 25.3319 62.4605 26.3769 61.9944 27.3014C61.5282 28.2259 60.8915 29.0181 60.0869 29.6768C59.2809 30.3355 58.3421 30.8422 57.2719 31.1971C56.2016 31.552 55.0493 31.7288 53.8149 31.7288H43.064C42.9494 31.7288 42.8569 31.6358 42.8569 31.5206V4.72847ZM53.0584 15.6168C54.242 15.6168 55.156 15.2934 55.7979 14.6478C56.4399 14.0022 56.7615 13.2362 56.7615 12.3484C56.7615 11.4605 56.4464 10.7023 55.8162 10.0686C55.186 9.43607 54.3175 9.11918 53.2095 9.11918H47.957V15.6182H53.0584V15.6168ZM53.6248 27.0172C54.91 27.0172 55.8917 26.6938 56.5727 26.0482C57.2523 25.4026 57.5935 24.5724 57.5935 23.5589C57.5935 22.5453 57.2471 21.7033 56.5544 21.0316C55.8617 20.3611 54.8357 20.0246 53.4751 20.0246H47.9583V27.0172H53.6261H53.6248Z" fill="#232F33" style="fill: rgb(35, 47, 51) !important;"/>
                        <path d="M70.7726 13.1079H66.2363C66.122 13.1079 66.0293 13.2011 66.0293 13.3161V31.5206C66.0293 31.6356 66.122 31.7288 66.2363 31.7288H70.7726C70.887 31.7288 70.9797 31.6356 70.9797 31.5206V13.3161C70.9797 13.2011 70.887 13.1079 70.7726 13.1079Z" fill="#232F33" style="fill: rgb(35, 47, 51) !important;"/>
                        <path d="M75.8911 31.5219V4.72847C75.8911 4.61324 75.9836 4.52026 76.0981 4.52026H80.6345C80.749 4.52026 80.8415 4.61324 80.8415 4.72847V31.5219C80.8415 31.6371 80.749 31.7301 80.6345 31.7301H76.0981C75.9836 31.7301 75.8911 31.6371 75.8911 31.5219Z" fill="#232F33" style="fill: rgb(35, 47, 51) !important;"/>
                        <path d="M118.176 12.5003C119.612 12.5003 120.928 12.7478 122.125 13.2415C123.322 13.7352 124.354 14.4187 125.224 15.2934C126.093 16.1682 126.774 17.2131 127.265 18.4283C127.755 19.6449 128.002 20.974 128.002 22.4183C128.002 23.8627 127.755 25.1918 127.265 26.4084C126.774 27.6249 126.093 28.6698 125.224 29.5433C124.354 30.418 123.322 31.1015 122.125 31.5952C120.929 32.0889 119.612 32.3364 118.176 32.3364C116.74 32.3364 115.424 32.0889 114.227 31.5952C113.031 31.1015 111.998 30.418 111.128 29.5433C110.259 28.6685 109.579 27.6249 109.088 26.4084C108.597 25.1918 108.351 23.8627 108.351 22.4183C108.351 20.974 108.597 19.6449 109.088 18.4283C109.579 17.2131 110.259 16.1669 111.128 15.2934C111.998 14.4187 113.029 13.7352 114.227 13.2415C115.424 12.7478 116.74 12.5003 118.176 12.5003ZM118.176 27.7388C118.805 27.7388 119.417 27.6196 120.008 27.3774C120.599 27.1364 121.123 26.7881 121.576 26.3324C122.029 25.8767 122.388 25.3189 122.653 24.6602C122.917 24.0015 123.05 23.2538 123.05 22.4183C123.05 21.5829 122.917 20.8352 122.653 20.1765C122.388 19.5178 122.029 18.96 121.576 18.5043C121.123 18.0486 120.599 17.7003 120.008 17.4593C119.416 17.2184 118.805 17.0979 118.176 17.0979C117.547 17.0979 116.904 17.2184 116.325 17.4593C115.745 17.7003 115.228 18.0486 114.775 18.5043C114.322 18.96 113.963 19.5178 113.699 20.1765C113.434 20.8352 113.301 21.5829 113.301 22.4183C113.301 23.2538 113.434 24.0015 113.699 24.6602C113.963 25.3189 114.322 25.8767 114.775 26.3324C115.228 26.7881 115.745 27.1377 116.325 27.3774C116.904 27.6183 117.521 27.7388 118.176 27.7388Z" fill="#232F33" style="fill: rgb(35, 47, 51) !important;"/>
                        <path d="M104.809 4.52026H100.273C100.159 4.52026 100.066 4.61348 100.066 4.72847V31.5219C100.066 31.6368 100.159 31.7301 100.273 31.7301H104.809C104.924 31.7301 105.016 31.6368 105.016 31.5219V4.72847C105.016 4.61348 104.924 4.52026 104.809 4.52026Z" fill="#232F33" style="fill: rgb(35, 47, 51) !important;"/>
                        <path d="M92.8786 9.83285C93.3448 9.3575 93.9802 9.11918 94.7874 9.11918H96.5244C96.6389 9.11918 96.7314 9.0262 96.7314 8.91097V4.72847C96.7314 4.61324 96.6389 4.52026 96.5244 4.52026H94.7497C92.3057 4.52026 90.4425 5.15536 89.1574 6.42426C87.8723 7.69315 87.2304 9.5369 87.2304 11.9503V16.3921C86.4387 16.5977 85.5143 16.7247 84.3763 16.7247C84.2643 16.7247 84.1758 16.8163 84.1758 16.9289V20.7265C84.1758 20.8443 84.2721 20.9373 84.388 20.9373C85.5208 20.9373 86.4413 20.8116 87.2291 20.606V31.5206C87.2291 31.6358 87.3215 31.7288 87.4361 31.7288H91.9737C92.0883 31.7288 92.1807 31.6358 92.1807 31.5206V18.1887C93.2758 17.6885 94.5947 17.3205 96.5309 17.3205C96.6429 17.3205 96.7314 17.2288 96.7314 17.1162V13.3187C96.7314 13.2022 96.635 13.1079 96.5192 13.1079C94.5895 13.1079 93.2745 13.4745 92.182 13.9748V11.9005C92.182 10.997 92.4151 10.3082 92.8812 9.83154L92.8786 9.83285Z" fill="#232F33" style="fill: rgb(35, 47, 51) !important;"/>
                        <path d="M120.763 9.11787C122.026 9.11787 123.05 8.08866 123.05 6.81906C123.05 5.54947 122.026 4.52026 120.763 4.52026L115.588 4.52026C114.325 4.52026 113.301 5.54947 113.301 6.81906C113.301 8.08866 114.325 9.11787 115.588 9.11787H120.763Z" fill="#28B56F" style="fill: rgb(40, 181, 111) !important;"/>
                        <path d="M68.5046 9.48847C69.9702 9.48847 71.1582 8.29363 71.1582 6.81973C71.1582 5.34583 69.9702 4.151 68.5046 4.151C67.0391 4.151 65.8511 5.34583 65.8511 6.81973C65.8511 8.29363 67.0391 9.48847 68.5046 9.48847Z" fill="#232F33" style="fill: rgb(35, 47, 51) !important;"/>
                        <path d="M17.9096 0.116455C8.01799 0.116455 0 8.18027 0 18.1284C0 28.0766 8.01799 36.1404 17.9096 36.1404C27.8012 36.1404 35.8192 28.0766 35.8192 18.1284C35.8192 8.18027 27.8012 0.116455 17.9096 0.116455ZM15.4448 26.6741C18.2104 26.6741 20.5046 27.7545 22.2194 29.5039C22.304 29.5904 22.4381 29.5995 22.5319 29.5236C25.8417 26.8234 27.964 22.7116 27.964 18.0931C27.964 17.932 27.9601 17.7723 27.9536 17.6125C28.6476 16.2952 29.0603 14.8036 29.1046 13.2126C29.128 12.3601 29.0395 11.5312 28.8585 10.7364C28.8299 10.6094 28.6476 10.6172 28.6306 10.7469C28.4783 11.9608 28.0577 13.1118 27.4197 14.1214C27.296 13.6801 27.1554 13.2454 26.9927 12.8224C26.9067 12.5919 26.7336 12.1978 26.6177 11.9385C26.5422 11.7696 26.4627 11.6033 26.369 11.4448C25.1164 9.32869 22.8209 7.91051 20.1986 7.91051C18.476 7.91051 16.9031 8.51681 15.6701 9.53428C15.6701 9.53428 15.6701 9.53428 15.6701 9.53297C14.7652 7.34744 13.1324 5.54165 11.0804 4.4155C13.135 3.37838 15.454 2.79304 17.9096 2.79304C26.3299 2.79304 33.1552 9.65737 33.1552 18.1258C33.1552 26.5943 26.3299 33.4586 17.9096 33.4586C14.2274 33.4586 10.8499 32.1452 8.21459 29.9596C10.4606 27.3236 12.8251 26.6754 15.4448 26.6754V26.6741ZM9.51403 8.23003C9.54138 8.1017 9.72366 8.10956 9.74319 8.23919C10.139 10.9655 12.1962 13.2676 15.0373 13.8228C15.1701 13.849 15.8237 13.9878 16.0243 14.0271C16.8966 14.2013 17.5476 14.9346 17.5724 15.829C17.6075 17.0795 16.437 18.0433 15.2391 17.7081C11.9202 16.7784 9.44242 13.7613 9.34216 10.1157C9.32393 9.46749 9.38643 8.83763 9.51403 8.23134V8.23003ZM18.9747 18.516C19.2885 17.97 20.2377 17.932 21.0944 18.4296C21.9525 18.9272 22.2506 20.0233 22.0801 20.3192C21.9095 20.6165 20.8171 20.9032 19.9603 20.4056C19.1023 19.908 18.6609 19.0621 18.9747 18.516Z" fill="#28B56F" style="fill: rgb(40, 181, 111) !important;"/>
                      </svg>