<svg width="128" height="128" viewBox="0 0 128 128" fill="none" xmlns="http://www.w3.org/2000/svg">
<g clip-path="url(#clip0_240_6666)">
<path d="M77.693 97.9349C77.693 101.805 74.4186 105.079 70.5488 105.079H50.0093V63.7023H70.5488C74.4186 63.7023 77.693 66.9767 77.693 70.8465V97.9349ZM50.0093 41.0791V0H26.1953V128H76.2046C90.1953 128 101.805 116.093 101.805 101.209V67.8698C101.805 52.986 90.493 41.0791 76.2046 41.0791H50.0093Z" fill="#FF5A0A"/>
<path d="M56.5581 33.9349V1.19067L88.7069 25.8977C99.7209 34.5302 101.805 47.3302 101.805 47.0325C94.6604 38.1023 84.8372 33.9349 78.2883 33.9349H56.5581Z" fill="#FF9C6C"/>
</g>
<defs>
<clipPath id="clip0_240_6666">
<rect width="75.6093" height="128" fill="white" transform="translate(26.1953)"/>
</clipPath>
</defs>
</svg>
