<svg width="128" height="128" viewBox="0 0 128 128" fill="none" xmlns="http://www.w3.org/2000/svg">
<path d="M39.1512 53.7859L64.012 28.9352L88.8829 53.8061L103.34 39.3385L64.012 0L24.6836 39.3284L39.1512 53.7859Z" fill="#F3BA2F"/>
<path d="M0 64.0049L14.4623 49.5426L28.9246 64.0049L14.4623 78.4672L0 64.0049Z" fill="#F3BA2F"/>
<path d="M39.1519 74.2191L64.0127 99.0799L88.8836 74.209L103.351 88.6564L103.341 88.6665L64.0127 128.005L24.6843 88.6867L24.6641 88.6665L39.1519 74.2191Z" fill="#F3BA2F"/>
<path d="M99.0752 64.0078L113.538 49.5455L128 64.0078L113.538 78.4701L99.0752 64.0078Z" fill="#F3BA2F"/>
<path d="M78.6821 63.9973L64.0123 49.3174L53.1641 60.1656L51.9105 61.4091L49.3425 63.9771L49.3223 63.9973L49.3425 64.0276L64.0123 78.6873L78.6821 64.0074L78.6922 63.9973H78.6821Z" fill="#F3BA2F"/>
</svg>
