<svg width="128" height="128" viewBox="0 0 128 128" fill="none" xmlns="http://www.w3.org/2000/svg">
<g clip-path="url(#clip0_60_24298)">
<path d="M101.405 69.3657L101.249 16.0194L63.9222 16.175L64.2333 110.892C70.7655 107.315 76.6756 103.582 81.9635 99.3827C94.8724 89.1179 101.405 79.164 101.405 69.3657ZM117.269 5.28797L117.424 69.2102C117.424 74.0316 116.491 78.6974 114.625 83.3633C112.758 88.0292 110.425 92.2284 107.781 95.8056C104.982 99.3827 101.716 102.96 97.983 106.382C94.2503 109.803 90.6731 112.758 87.407 114.936C84.1409 117.269 80.7193 119.446 77.2977 121.468C73.876 123.49 71.3876 124.889 69.8323 125.667C68.5881 126.289 67.4994 126.756 66.2551 127.378C65.633 127.689 64.8554 127.844 64.0778 127.844C63.3001 127.844 62.5225 127.689 61.9003 127.378C60.6561 126.911 59.5674 126.289 58.3232 125.667C56.9234 124.889 54.435 123.645 50.8578 121.623C47.4362 119.601 44.0146 117.424 40.7485 115.247C37.4824 112.914 34.0607 110.114 30.1725 106.693C26.2843 103.271 23.0182 99.6938 20.3742 96.1166C17.5747 92.5395 15.2418 88.3402 13.3754 83.6744C11.5091 79.0085 10.5759 74.1871 10.5759 69.5213L10.5759 5.59903C10.5759 4.19927 11.0425 2.95504 12.1312 1.86634C13.2199 0.777643 14.4641 0.311057 15.8639 0.311057L111.825 0C113.225 0 114.469 0.466586 115.558 1.55529C116.646 2.64399 117.269 3.88821 117.269 5.28797Z" fill="#175DDC"/>
</g>
<defs>
<clipPath id="clip0_60_24298">
<rect width="106.848" height="128" fill="white" transform="translate(10.5759)"/>
</clipPath>
</defs>
</svg>
