<svg fill="currentColor" version="1.1" id="Layer_1" xmlns="http://www.w3.org/2000/svg" xmlns:xlink="http://www.w3.org/1999/xlink" x="0px" y="0px" viewBox="0 0 478.6 113.1" style="enable-background:new 0 0 478.6 113.1;" xml:space="preserve">
 <g>
  <path d="M49.3,18.9c0,7.8-4.3,11.8-9,14.2c7.4,2.5,12.6,6.8,12.6,15.5c0,11.4-9.3,17.5-23.4,17.5H0V2.7h28.4
		C41.2,2.7,49.3,9,49.3,18.9z M38.1,20.7c0-5.2-4-8.2-11.1-8.2H11v16.8h15.2C33.3,29.4,38.1,26.6,38.1,20.7z M41.7,47.4
		c0-5.4-4.3-8.6-13-8.6H11v17.4h18.5C37,56.2,41.7,53.2,41.7,47.4L41.7,47.4z">
  </path>
  <path d="M60.2,66.1V0h11v66.1L60.2,66.1z">
  </path>
  <path d="M110.2,66.1v-5.9c-3.3,3.9-8.2,6.9-15.5,6.9c-9.1,0-17-5.2-17-14.8v-0.2c0-10.3,8.2-15.4,19.4-15.4c4.5-0.1,9,0.6,13.2,2
		v-1.2c0-6.6-4.2-10.2-11.8-10.2c-4.7,0-9.4,1-13.7,3l-3-8.8c5.7-2.7,11.9-4.1,18.2-4c14.1,0,21,7.4,21,20.2v28.3L110.2,66.1z
		 M110.5,45.8c-3.5-1.3-7.2-1.9-11-1.9c-6.9,0-11,2.8-11,7.7v0.2c0,4.5,4.1,7,9.2,7c7.2,0,12.7-4.1,12.7-10.1L110.5,45.8z">
  </path>
  <path d="M151.7,67.2c-13.5,0.2-24.6-10.6-24.7-24.1c0-0.2,0-0.4,0-0.7c0-13.7,10.5-25.1,24.8-25.1c9.1,0,14.7,3.3,19.1,8.2
		l-6.8,7.3c-3.3-3.5-6.9-6-12.4-6c-8,0-13.8,6.9-13.8,15.3c0,8.6,5.9,15.5,14.3,15.5c5.2,0,9-2.5,12.4-6l6.6,6.5
		C166.5,63.5,161,67.2,151.7,67.2z">
  </path>
  <path d="M221.4,66.1h-12.7l-14.4-20.7l-6.7,7v13.7h-11V0h11v39.5l19.8-21.2h13.3l-19,19.5L221.4,66.1z">
  </path>
  <path d="M254.5,67.1c-7.9,0-12.9-4-16.2-8.4v7.4h-10.9V0h11v26.2c3.5-5,8.5-9,16.2-9c11.3,0,22.3,9,22.3,24.9
		S265.9,67.1,254.5,67.1z M252,26.8c-7.4,0-14,6.1-14,15.4s6.5,15.4,14,15.4c7.5,0,13.7-5.9,13.7-15.4S259.4,26.8,252,26.8L252,26.8
		z">
  </path>
  <path d="M306.2,67.2c-14.6,0-25.3-11.1-25.3-24.8s10.9-25.1,25.5-25.1s25.4,11.1,25.4,24.9S320.9,67.2,306.2,67.2z M306.2,26.9
		c-8.8,0-14.4,6.9-14.4,15.3s6,15.5,14.6,15.5c8.9,0,14.5-6.9,14.5-15.3S314.8,26.9,306.2,26.9L306.2,26.9z">
  </path>
  <path d="M367.7,66.1v-5.9c-3.2,3.9-8.2,6.9-15.5,6.9c-9,0-17-5.2-17-14.8v-0.2c0-10.3,8.2-15.4,19.4-15.4c4.5-0.1,9,0.6,13.2,2
		v-1.2c0-6.6-4.2-10.2-11.8-10.2c-4.7,0-9.4,1-13.7,3l-3-8.8c5.7-2.7,11.9-4.1,18.2-4c14.1,0,21,7.4,21,20.2v28.3L367.7,66.1z
		 M367.9,45.8c-3.5-1.3-7.2-1.9-11-1.9c-6.9,0-11,2.8-11,7.7v0.2c0,4.5,4.1,7,9.2,7c7.2,0,12.7-4.1,12.7-10.1L367.9,45.8z">
  </path>
  <path d="M398,66.1H387V18.3H398V29c3-7.2,8.5-12,16.9-11.7V29h-0.6c-9.6,0-16.3,6.2-16.3,18.9V66.1z">
  </path>
  <path d="M454.6,66.1v-8c-3.5,5-8.5,9-16.3,9c-11.2,0-22.2-9-22.2-24.9s10.8-24.9,22.2-24.9c7.9,0,12.8,4,16.3,8.4V0h11v66.1
		L454.6,66.1z M440.9,26.8c-7.5,0-13.8,5.8-13.8,15.4c0,9.4,6.3,15.4,13.8,15.4s13.8-6.1,13.8-15.4S448.2,26.8,440.9,26.8z">
  </path>
  <path d="M478.6,3.9c0,2.1-1.7,3.9-3.9,3.9c-2.1,0-3.9-1.7-3.9-3.9c0-2.1,1.7-3.9,3.9-3.9l0,0C476.9,0,478.6,1.7,478.6,3.9z
		 M471.6,3.9c0,1.7,1.4,3.1,3.1,3.1c1.7,0,3.1-1.4,3.1-3.1c0-1.7-1.4-3.1-3.1-3.1C473,0.8,471.7,2.2,471.6,3.9L471.6,3.9z M475,1.9
		c1,0,1.5,0.4,1.5,1.2c0,0.4-0.1,0.7-0.5,0.9c0.3,0.2,0.3,0.3,0.4,1s0,0.8,0.3,0.9h-1.1c-0.1-0.2-0.2-0.5-0.1-0.7
		c0-0.8,0-0.9-0.6-0.9h-0.7v1.6h-1V1.8L475,1.9z M474.1,3.6h0.7c0.5,0,0.7-0.1,0.7-0.4s-0.1-0.5-0.7-0.5h-0.7L474.1,3.6z">
  </path>
  <path d="M19.6,90c0.3,0.3,0.5,0.8,0.5,1.2v20c0,0.5-0.2,0.9-0.5,1.2c-0.3,0.3-0.8,0.5-1.2,0.5c-0.5,0-1.1-0.2-1.4-0.7L3.4,95.4
		v15.9c0,0.5-0.1,0.9-0.5,1.2c-0.7,0.6-1.7,0.6-2.4,0c-0.3-0.3-0.5-0.8-0.5-1.2v-20c0-0.5,0.2-0.9,0.5-1.2c0.3-0.3,0.8-0.5,1.2-0.5
		c0.5,0,1.1,0.2,1.4,0.7l13.6,17V91.2c0-0.5,0.1-0.9,0.5-1.2c0.3-0.3,0.8-0.5,1.2-0.5C18.8,89.5,19.2,89.7,19.6,90z M30.1,111.6
		c-1.7-0.9-3.1-2.4-3.9-4.1c-1-1.9-1.4-4.1-1.4-6.2c-0.1-2.2,0.4-4.3,1.4-6.3c0.9-1.7,2.2-3.2,3.9-4.1c3.8-1.9,8.3-1.9,12.1,0
		c1.7,0.9,3.1,2.4,3.9,4.1c1.8,4,1.8,8.6,0,12.5c-0.9,1.7-2.2,3.2-3.9,4.1c-1.8,1-3.9,1.5-6,1.4C34,113.1,32,112.6,30.1,111.6
		L30.1,111.6z M41.8,107.9c1.3-1.6,2-3.8,2-6.7s-0.7-5.1-2-6.7c-1.5-1.6-3.6-2.5-5.7-2.3c-2.1-0.1-4.2,0.7-5.7,2.3
		c-1.3,1.6-2,3.8-2,6.7c-0.2,2.4,0.6,4.8,2,6.7C33.5,111.1,38.6,111.1,41.8,107.9C41.7,108,41.8,108,41.8,107.9L41.8,107.9z
		 M82.7,89.8c0.3-0.2,0.6-0.3,0.9-0.3c0.4,0,0.8,0.1,1.2,0.4c0.3,0.3,0.5,0.7,0.5,1.1c0,0.2,0,0.4-0.1,0.7l-7.6,20.2
		c-0.2,0.4-0.4,0.7-0.8,0.8c-0.3,0.2-0.7,0.3-1.1,0.3c-0.4,0-0.8-0.1-1.1-0.3c-0.3-0.2-0.6-0.5-0.7-0.8L67.5,95L61,111.9
		c-0.1,0.4-0.4,0.7-0.7,0.8c-0.7,0.4-1.5,0.4-2.2,0c-0.3-0.2-0.6-0.5-0.7-0.8l-7.6-20.2c-0.1-0.2-0.1-0.4-0.1-0.7
		c0-0.4,0.2-0.8,0.5-1.1c0.4-0.3,0.8-0.4,1.2-0.4c0.3,0,0.7,0.1,1,0.3c0.3,0.2,0.5,0.5,0.6,0.8l6.4,17.4l6.5-17.2
		c0.1-0.4,0.4-0.7,0.7-0.9c0.3-0.2,0.6-0.3,1-0.3c0.4,0,0.7,0.1,1,0.3c0.3,0.2,0.5,0.5,0.7,0.9l6.4,17.4L82,90.6
		C82.2,90.3,82.4,90,82.7,89.8L82.7,89.8z M99,112.5c-0.3-0.3-0.5-0.8-0.5-1.2V91.4c0-0.4,0.1-0.9,0.5-1.2c0.4-0.3,0.8-0.5,1.3-0.4
		h8.3c2.2-0.1,4.3,0.5,6,1.8c2.8,2.8,2.9,7.3,0.1,10.1c0,0-0.1,0.1-0.1,0.1c-1.7,1.3-3.8,2-6,1.8h-6.5v7.7c0,0.5-0.1,0.9-0.5,1.2
		c-0.4,0.3-0.8,0.5-1.3,0.5C99.8,113,99.3,112.8,99,112.5z M108.2,100.9c3.4,0,5.1-1.4,5.1-4.2c0-2.8-1.7-4.2-5.1-4.2h-6.2v8.4
		H108.2z M140.3,111.5c0,0.4-0.2,0.8-0.5,1c-0.3,0.3-0.8,0.4-1.2,0.4c-0.3,0-0.6-0.1-0.8-0.2c-0.3-0.2-0.5-0.4-0.6-0.7l-2.3-4.9
		h-12.7l-2.3,4.9c-0.1,0.3-0.3,0.5-0.6,0.7c-0.3,0.2-0.6,0.2-0.9,0.2c-0.4,0-0.9-0.1-1.2-0.4c-0.3-0.2-0.5-0.6-0.5-1
		c0-0.2,0.1-0.5,0.2-0.7l9.8-20.2c0.2-0.4,0.4-0.6,0.8-0.8c0.7-0.4,1.5-0.4,2.2,0c0.3,0.2,0.6,0.5,0.8,0.8l9.8,20.2
		C140.2,111.1,140.3,111.3,140.3,111.5L140.3,111.5z M123.5,104.4h10.1l-5.1-10.8L123.5,104.4z M163.2,111.6c0,0.4-0.2,0.8-0.5,1
		c-0.3,0.3-0.7,0.4-1.2,0.4c-0.6,0-1.2-0.3-1.5-0.8l-4.6-6.8c-0.4-0.7-1-1.3-1.7-1.7c-0.7-0.3-1.5-0.5-2.3-0.5h-3.9v8
		c0,0.5-0.1,0.9-0.5,1.2c-0.4,0.3-0.8,0.5-1.3,0.5c-0.5,0-0.9-0.1-1.3-0.5c-0.3-0.3-0.5-0.8-0.5-1.2V91.4c0-0.4,0.2-0.9,0.5-1.2
		c0.4-0.3,0.8-0.5,1.3-0.4h8.6c2.2-0.1,4.4,0.5,6.2,1.7c1.5,1.2,2.3,3.1,2.1,5c0.1,1.6-0.5,3.2-1.6,4.4c-1.3,1.2-2.9,2-4.6,2.1
		c0.6,0.2,1.1,0.4,1.6,0.8c0.6,0.5,1,1,1.4,1.6l3.6,5.3C163.1,111,163.2,111.3,163.2,111.6L163.2,111.6z M153.9,100.6
		c1.4,0.1,2.8-0.2,4-1c0.9-0.8,1.4-1.9,1.3-3.1c0.1-1.2-0.4-2.3-1.3-3c-1.2-0.7-2.6-1.1-4-1h-6.5v8.1L153.9,100.6z M174,112.5
		c-0.3-0.3-0.5-0.8-0.5-1.2V92.6h-6.9c-1.1,0-1.7-0.5-1.7-1.4c0-0.4,0.1-0.7,0.4-1c0.4-0.3,0.8-0.4,1.2-0.4H184
		c0.4,0,0.9,0.1,1.2,0.4c0.3,0.3,0.4,0.6,0.4,1c0,0.9-0.5,1.4-1.7,1.4h-6.9v18.7c0,0.5-0.2,0.9-0.5,1.2
		C175.9,113.1,174.7,113.1,174,112.5L174,112.5z M202.2,111.6c-1.7-1-3-2.4-3.9-4.1c-1-1.9-1.4-4.1-1.4-6.2
		c-0.1-2.2,0.4-4.3,1.4-6.3c0.9-1.7,2.2-3.2,3.9-4.1c1.8-1,3.9-1.5,6-1.4c2.1-0.1,4.2,0.4,6.1,1.4c1.7,0.9,3.1,2.4,3.9,4.1
		c1.8,4,1.8,8.6,0,12.5c-0.9,1.7-2.2,3.2-3.9,4.1c-1.9,1-3.9,1.5-6.1,1.4C206.1,113.1,204,112.6,202.2,111.6L202.2,111.6z
		 M213.9,108c1.3-1.6,2-3.8,2-6.7s-0.7-5.1-2-6.7c-1.5-1.6-3.6-2.5-5.7-2.3c-2.1-0.1-4.2,0.7-5.7,2.3c-1.3,1.6-2,3.8-2,6.7
		c0,2.9,0.7,5.1,2,6.7c1.4,1.6,3.5,2.5,5.7,2.4C210.3,110.5,212.4,109.6,213.9,108z M224.7,112.5c-0.3-0.3-0.5-0.8-0.5-1.2V91.4
		c0-0.4,0.1-0.9,0.5-1.2c0.4-0.3,0.8-0.5,1.3-0.4h12.4c1.1,0,1.7,0.5,1.7,1.4s-0.5,1.4-1.7,1.4h-10.6v7.2h9.9c1.1,0,1.7,0.5,1.7,1.4
		s-0.5,1.4-1.7,1.4h-9.9v8.8c0,0.5-0.1,0.9-0.5,1.2c-0.4,0.3-0.8,0.5-1.3,0.5C225.5,113,225.1,112.8,224.7,112.5L224.7,112.5z
		 M274.4,111.5c0,0.4-0.2,0.8-0.5,1c-0.3,0.3-0.8,0.4-1.2,0.4c-0.3,0-0.6-0.1-0.8-0.2c-0.3-0.2-0.5-0.4-0.6-0.7l-2.3-4.9h-12.6
		l-2.3,4.9c-0.1,0.3-0.3,0.5-0.6,0.7c-0.3,0.2-0.6,0.3-0.9,0.2c-0.4,0-0.9-0.1-1.2-0.4c-0.3-0.2-0.5-0.6-0.5-1
		c0-0.2,0.1-0.5,0.2-0.7l9.8-20.2c0.2-0.4,0.4-0.6,0.8-0.8c0.7-0.4,1.5-0.4,2.2,0c0.3,0.2,0.6,0.5,0.8,0.8l9.8,20.2
		C274.4,111.1,274.5,111.3,274.4,111.5L274.4,111.5z M257.6,104.5h10.1l-5.1-10.8L257.6,104.5z M297.6,90.1c0.3,0.3,0.5,0.8,0.5,1.2
		v20c0,0.5-0.2,0.9-0.5,1.2c-0.3,0.3-0.8,0.5-1.2,0.5c-0.5,0-1.1-0.2-1.4-0.7l-13.5-16.9v15.9c0,0.5-0.2,0.9-0.5,1.2
		c-0.3,0.3-0.8,0.5-1.2,0.5c-0.4,0-0.9-0.1-1.2-0.5c-0.3-0.3-0.5-0.8-0.5-1.2v-20c0-0.5,0.2-0.9,0.5-1.2c0.3-0.3,0.8-0.5,1.2-0.5
		c0.5,0,1.1,0.2,1.4,0.7l13.5,17V91.3c0-0.5,0.1-0.9,0.5-1.2c0.3-0.3,0.8-0.5,1.2-0.5C296.8,89.6,297.3,89.7,297.6,90.1L297.6,90.1z
		 M310.3,112.5c-0.3-0.3-0.5-0.8-0.5-1.2V92.6h-6.9c-1.1,0-1.7-0.5-1.7-1.4c0-0.4,0.1-0.7,0.4-1c0.4-0.3,0.8-0.4,1.2-0.4h17.5
		c0.4,0,0.9,0.1,1.2,0.4c0.3,0.3,0.4,0.6,0.4,1c0,0.9-0.6,1.4-1.7,1.4h-6.9v18.7c0,0.5-0.2,0.9-0.5,1.2
		C312.2,113.2,311.1,113.2,310.3,112.5L310.3,112.5z M345.5,90c0.3,0.3,0.5,0.8,0.5,1.2v20c0,0.5-0.2,0.9-0.5,1.2
		c-0.3,0.3-0.8,0.5-1.3,0.5c-0.5,0-0.9-0.1-1.3-0.5c-0.3-0.3-0.5-0.8-0.5-1.2v-8.8h-13.6v8.8c0,0.5-0.2,0.9-0.5,1.2
		c-0.3,0.3-0.8,0.5-1.3,0.5c-0.5,0-0.9-0.1-1.3-0.5c-0.3-0.3-0.5-0.8-0.5-1.2v-20c0-0.5,0.2-0.9,0.5-1.2c0.7-0.6,1.8-0.6,2.5,0
		c0.3,0.3,0.5,0.8,0.5,1.2v8.4h13.6v-8.4c0-0.5,0.1-0.9,0.5-1.2C343.6,89.4,344.7,89.4,345.5,90L345.5,90z M356,111.6
		c-1.7-0.9-3.1-2.4-3.9-4.1c-1-1.9-1.4-4.1-1.4-6.2c-0.1-2.2,0.4-4.3,1.4-6.3c0.9-1.7,2.2-3.2,3.9-4.1c3.8-1.9,8.3-1.9,12.1,0
		c1.7,1,3.1,2.4,3.9,4.1c1.8,4,1.8,8.6,0,12.5c-0.9,1.7-2.2,3.2-3.9,4.1c-1.8,1-3.9,1.5-6,1.4C359.9,113.2,357.9,112.7,356,111.6
		L356,111.6z M367.7,107.9c1.3-1.6,2-3.8,2-6.7s-0.7-5.1-2-6.7c-1.5-1.6-3.6-2.5-5.7-2.3c-2.1-0.1-4.2,0.7-5.7,2.3
		c-1.3,1.6-2,3.8-2,6.7c0,2.9,0.7,5.1,2,6.7C359.4,111.1,364.5,111.1,367.7,107.9C367.7,108,367.7,108,367.7,107.9L367.7,107.9z
		 M378.5,112.4c-0.3-0.3-0.5-0.7-0.5-1.2v-20c0-0.5,0.2-0.9,0.5-1.2c0.3-0.3,0.8-0.5,1.3-0.5c0.5,0,1,0.1,1.3,0.5
		c0.3,0.3,0.5,0.8,0.5,1.2V110h10.5c0.4,0,0.9,0.1,1.2,0.4c0.3,0.3,0.4,0.6,0.4,1c0,0.4-0.1,0.7-0.4,1c-0.4,0.3-0.8,0.4-1.2,0.4
		h-12.3C379.3,112.8,378.9,112.7,378.5,112.4L378.5,112.4z M400.3,111.6c-1.7-0.9-3.1-2.4-3.9-4.1c-1-1.9-1.4-4.1-1.4-6.2
		c-0.1-2.2,0.4-4.3,1.4-6.3c0.9-1.7,2.2-3.2,3.9-4.1c3.8-1.9,8.3-1.9,12.1,0c1.7,0.9,3.1,2.4,3.9,4.1c1.8,4,1.8,8.6,0,12.5
		c-0.9,1.7-2.2,3.2-3.9,4.1c-1.8,1-3.9,1.5-6,1.4C404.3,113.1,402.2,112.6,400.3,111.6L400.3,111.6z M412,107.9c1.3-1.6,2-3.8,2-6.7
		c0-2.9-0.7-5.1-2-6.7c-1.5-1.6-3.6-2.5-5.7-2.3c-2.1-0.1-4.2,0.7-5.7,2.3c-1.3,1.6-2,3.8-2,6.7c0,2.9,0.7,5.1,2,6.7
		C403.8,111.1,408.8,111.1,412,107.9C412,108,412,108,412,107.9L412,107.9z M441.6,100.9c0.3,0.3,0.4,0.6,0.4,1v7.7
		c0,0.6-0.1,1.1-0.3,1.6c-0.3,0.4-0.8,0.7-1.3,0.8c-1.1,0.4-2.2,0.7-3.3,0.8c-1.2,0.2-2.5,0.3-3.8,0.3c-2.2,0.1-4.4-0.4-6.4-1.4
		c-1.8-0.9-3.2-2.3-4.1-4.1c-1-2-1.5-4.1-1.4-6.3c0-2.2,0.5-4.3,1.4-6.3c0.9-1.7,2.3-3.2,4.1-4.1c1.9-1,4.1-1.5,6.2-1.4
		c1.5,0,3,0.2,4.5,0.7c1.3,0.4,2.5,1.1,3.5,2c0.4,0.3,0.7,0.8,0.7,1.3c0,0.4-0.1,0.7-0.3,1c-0.2,0.3-0.5,0.4-0.8,0.4
		c-0.2,0-0.4,0-0.6-0.1c-0.2-0.1-0.4-0.2-0.6-0.3c-0.9-0.7-2-1.2-3.1-1.7c-1-0.3-2.1-0.5-3.2-0.5c-2.2-0.1-4.4,0.7-6,2.3
		c-1.4,1.5-2.1,3.8-2.1,6.7c0,2.9,0.7,5.2,2.1,6.8c1.4,1.5,3.5,2.3,6.2,2.3c1.8,0,3.6-0.3,5.3-0.8v-6.4h-4.5c-0.4,0-0.8-0.1-1.1-0.3
		c-0.5-0.5-0.5-1.3,0-1.8c0,0,0,0,0,0c0.3-0.2,0.7-0.4,1.1-0.3h6.3C441,100.6,441.3,100.7,441.6,100.9L441.6,100.9z M463.9,89.6
		c0.4,0,0.8,0.2,1.1,0.5c0.3,0.3,0.5,0.7,0.5,1.1c0,0.4-0.1,0.7-0.4,1l-8.2,9.6v9.5c0,0.5-0.2,0.9-0.5,1.3c-0.4,0.3-0.8,0.5-1.3,0.4
		c-0.5,0-0.9-0.1-1.3-0.4c-0.3-0.3-0.5-0.8-0.5-1.3v-9.5l-8.2-9.6c-0.6-0.6-0.6-1.5,0-2.1c0,0,0,0,0.1-0.1c0.3-0.3,0.7-0.5,1.1-0.5
		c0.5,0,0.9,0.2,1.2,0.6l7.5,9l7.5-9C463,89.8,463.4,89.6,463.9,89.6z">
  </path>
 </g>
</svg>