<svg width="128" height="128" viewBox="0 0 128 128" fill="none" xmlns="http://www.w3.org/2000/svg">
<path d="M1.93945 50.8296V77.171" stroke="#575757" stroke-width="1.93939"/>
<path d="M4.76123 47.0303V80.9697" stroke="#575757" stroke-width="1.93939"/>
<path d="M7.5835 50.8296V77.171" stroke="#575757" stroke-width="1.93939"/>
<path d="M10.4014 50.1155V77.8831" stroke="#575757" stroke-width="1.93939"/>
<path d="M13.2236 40.6136V87.3874" stroke="#575757" stroke-width="1.93939"/>
<path d="M16.0454 41.1742V86.8241" stroke="#575757" stroke-width="1.93939"/>
<path d="M18.8672 42.2784V85.7209" stroke="#575757" stroke-width="1.93939"/>
<path d="M21.6895 33.1515V94.847" stroke="#575757" stroke-width="1.93939"/>
<path d="M24.5078 39.928V88.0734" stroke="#575757" stroke-width="1.93939"/>
<path d="M27.3296 42.2784V85.7209" stroke="#575757" stroke-width="1.93939"/>
<path d="M30.1479 42.2784V85.7209" stroke="#575757" stroke-width="1.93939"/>
<path d="M32.9697 46.3182V81.6837" stroke="#575757" stroke-width="1.93939"/>
<path d="M35.7915 45.2595V82.7412" stroke="#575757" stroke-width="1.93939"/>
<path d="M38.6099 44.5378V83.4655" stroke="#575757" stroke-width="1.93939"/>
<path d="M41.4316 36.5625V91.436" stroke="#575757" stroke-width="1.93939"/>
<path d="M44.2539 40.0416V87.9561" stroke="#575757" stroke-width="1.93939"/>
<path d="M47.0718 39.928V88.0734" stroke="#575757" stroke-width="1.93939"/>
<path d="M49.894 42.2784V85.7209" stroke="#575757" stroke-width="1.93939"/>
<path d="M52.7158 42.3239V85.6751" stroke="#575757" stroke-width="1.93939"/>
<path d="M55.5381 47.7311V80.2673" stroke="#575757" stroke-width="1.93939"/>
<path d="M58.3599 45.2595V82.7412" stroke="#575757" stroke-width="1.93939"/>
<path d="M61.1782 47.3693V80.6299" stroke="#575757" stroke-width="1.93939"/>
<path d="M64 47.7311V80.2673" stroke="#575757" stroke-width="1.93939"/>
<path d="M66.8218 46.9395V81.0613" stroke="#575757" stroke-width="1.93939"/>
<path d="M69.644 51.3087V76.6919" stroke="#575757" stroke-width="1.93939"/>
<path d="M72.4619 48.3087V79.6926" stroke="#575757" stroke-width="1.93939"/>
<path d="M75.2842 50.7916V77.2071" stroke="#575757" stroke-width="1.93939"/>
<path d="M78.106 46.9395V81.0613" stroke="#575757" stroke-width="1.93939"/>
<path d="M80.9282 46.3182V81.6837" stroke="#575757" stroke-width="1.93939"/>
<path d="M83.7461 32V96" stroke="#575757" stroke-width="1.93939"/>
<path d="M86.5684 25.2122V102.788" stroke="#575757" stroke-width="1.93939"/>
<path d="M89.3862 29.0739V98.9263" stroke="#575757" stroke-width="1.93939"/>
<path d="M92.2085 42.3239V85.6751" stroke="#575757" stroke-width="1.93939"/>
<path d="M95.0303 32V96" stroke="#575757" stroke-width="1.93939"/>
<path d="M97.8521 39.0133V88.987" stroke="#575757" stroke-width="1.93939"/>
<path d="M100.67 35.7008V92.297" stroke="#575757" stroke-width="1.93939"/>
<path d="M103.492 39.4413V88.5593" stroke="#575757" stroke-width="1.93939"/>
<path d="M106.314 37.3334V90.6667" stroke="#575757" stroke-width="1.93939"/>
<path d="M109.133 38.2197V89.779" stroke="#575757" stroke-width="1.93939"/>
<path d="M111.955 46.6023V81.3974" stroke="#575757" stroke-width="1.93939"/>
<path d="M114.776 47.589V80.4103" stroke="#575757" stroke-width="1.93939"/>
<path d="M117.599 51.8788V76.1212" stroke="#575757" stroke-width="1.93939"/>
<path d="M120.417 51.8788V76.1212" stroke="#575757" stroke-width="1.93939"/>
<path d="M123.239 53.6383V74.3613" stroke="#575757" stroke-width="1.93939"/>
<path d="M126.061 53.6383V74.3613" stroke="#575757" stroke-width="1.93939"/>
<path d="M16.1766 74.2527C16.019 74.2527 15.8901 74.1243 15.8901 73.9674V54.0031C15.8901 53.8462 16.019 53.7178 16.1766 53.7178H22.9655C24.3722 53.7178 25.6211 53.9375 26.6837 54.3653C27.7638 54.8044 28.6173 55.4776 29.2189 56.3674C29.8205 57.2572 30.1269 58.3723 30.1269 59.6787C30.1269 60.5056 29.9149 61.2787 29.4997 61.9775C29.1588 62.5478 28.7032 63.0554 28.139 63.4946C28.9268 63.9624 29.554 64.5584 30.0123 65.2715C30.5452 66.1043 30.8173 67.111 30.8173 68.2632C30.8173 69.5297 30.5224 70.6277 29.9407 71.5261C29.3593 72.4244 28.5343 73.1146 27.4944 73.571C26.469 74.0217 25.2544 74.2527 23.8852 74.2527H16.1795H16.1766ZM23.5099 70.2313C24.3692 70.2313 25.048 70.0201 25.5265 69.6037C25.9991 69.1903 26.2313 68.6511 26.2313 67.9496C26.2313 67.248 25.9762 66.6605 25.452 66.2468C24.9134 65.8248 24.1544 65.6109 23.1947 65.6109H20.3016V70.2313H23.5099ZM23.0516 61.8462C23.8365 61.8462 24.4552 61.6493 24.8964 61.2614C25.3318 60.8765 25.5437 60.3402 25.5437 59.6217C25.5437 58.9029 25.3089 58.3752 24.8219 57.9903C24.3235 57.5966 23.6216 57.397 22.7365 57.397H20.3016V61.8462H23.0516Z" fill="black"/>
<path d="M42.8726 74.5961C40.8071 74.5961 38.9538 74.1368 37.3583 73.2327C35.7628 72.3258 34.4994 71.0623 33.597 69.4737C32.6978 67.8881 32.2422 66.0428 32.2422 63.9864C32.2422 61.9301 32.6978 60.0847 33.597 58.4991C34.4965 56.9105 35.7513 55.6526 37.3296 54.7543C38.9052 53.8587 40.7385 53.4053 42.7867 53.4053C44.8349 53.4053 46.6738 53.8645 48.2579 54.7687C49.842 55.6755 51.1024 56.939 52.0019 58.5276C52.9014 60.1133 53.3568 61.9615 53.3568 64.0149C53.3568 66.0684 52.907 67.8881 52.0162 69.4737C51.1253 71.0623 49.8792 72.3258 48.3153 73.2327C46.7512 74.1397 44.9179 74.599 42.8726 74.599V74.5961ZM42.7867 57.5408C41.6436 57.5408 40.6095 57.8203 39.7129 58.3678C38.8163 58.9184 38.103 59.6827 37.5961 60.641C37.0862 61.6021 36.8283 62.7372 36.8283 64.0149C36.8283 65.2926 37.0862 66.3992 37.5961 67.3604C38.103 68.3186 38.8193 69.0829 39.7273 69.6306C40.6324 70.181 41.6896 70.4578 42.8726 70.4578C44.0556 70.4578 45.0439 70.1781 45.9291 69.6306C46.8142 69.0802 47.5188 68.313 48.0172 67.346C48.5186 66.3736 48.7736 65.2441 48.7736 63.9835C48.7736 62.7229 48.5158 61.5992 48.0058 60.6381C47.4988 59.6798 46.7913 58.9155 45.9033 58.3651C45.0181 57.8174 43.9697 57.5379 42.7896 57.5379L42.7867 57.5408Z" fill="black"/>
<path d="M56.2523 74.2546C56.0948 74.2546 55.9658 74.1262 55.9658 73.9693V54.005C55.9658 53.8481 56.0948 53.7197 56.2523 53.7197H60.1768C60.3343 53.7197 60.4633 53.8481 60.4633 54.005V70.119H68.9995C69.1572 70.119 69.286 70.2474 69.286 70.4043V73.9693C69.286 74.1262 69.1572 74.2546 68.9995 74.2546H56.2523Z" fill="black"/>
<path d="M85.5281 74.2535C85.4364 74.2535 85.3505 74.2107 85.2962 74.1366L75.8459 61.1853V73.9683C75.8459 74.1252 75.7169 74.2535 75.5594 74.2535H71.6351C71.4774 74.2535 71.3486 74.1252 71.3486 73.9683V54.0039C71.3486 53.847 71.4774 53.7187 71.6351 53.7187H75.7313C75.823 53.7187 75.9089 53.7615 75.9634 53.8356L85.2417 66.5301V54.001C85.2417 53.8441 85.3706 53.7159 85.5281 53.7159H89.424C89.5815 53.7159 89.7104 53.8441 89.7104 54.001V73.9653C89.7104 74.1222 89.5815 74.2506 89.424 74.2506H85.5281V74.2535Z" fill="black"/>
<path d="M107.67 74.2546C107.553 74.2546 107.444 74.1803 107.404 74.0719L105.786 69.8623H97.8707L96.2523 74.0719C96.2094 74.1832 96.1033 74.2546 95.9858 74.2546H91.8322C91.7378 74.2546 91.6489 74.2088 91.5944 74.1289C91.5401 74.0519 91.5314 73.9523 91.5659 73.8638L99.4721 53.8995C99.5151 53.7911 99.621 53.7197 99.7383 53.7197H103.921C104.038 53.7197 104.144 53.7911 104.187 53.8995L112.093 73.8638C112.128 73.9523 112.116 74.0519 112.065 74.1289C112.01 74.2061 111.921 74.2546 111.827 74.2546H107.673H107.67ZM104.239 65.8409L101.827 59.5693L99.4147 65.8409H104.236H104.239Z" fill="black"/>
</svg>
