<?xml version="1.0" encoding="UTF-8" standalone="no"?>
<!DOCTYPE svg PUBLIC "-//W3C//DTD SVG 1.1//EN" "http://www.w3.org/Graphics/SVG/1.1/DTD/svg11.dtd">
<svg xmlns="http://www.w3.org/2000/svg" version="1.1" viewBox="0.00 0.00 428.00 428.00">
<g stroke-width="2.00" fill="none" stroke-linecap="butt">
<path stroke="#c7e99b" vector-effect="non-scaling-stroke" d="
  M 225.3243 139.7754
  A 8.31 8.31 0.0 0 0 216.9998 131.4799
  L 216.7198 131.4804
  A 8.31 8.31 0.0 0 0 208.4243 139.8049
  L 208.7157 306.8046
  A 8.31 8.31 0.0 0 0 217.0402 315.1001
  L 217.3202 315.0996
  A 8.31 8.31 0.0 0 0 225.6157 306.7751
  L 225.3243 139.7754"
/>
<path stroke="#c7e99b" vector-effect="non-scaling-stroke" d="
  M 259.33 223.08
  Q 259.40 247.49 266.73 271.01
  Q 268.78 277.58 270.36 279.99
  C 274.50 286.29 283.64 283.89 285.44 277.21
  Q 286.11 274.73 284.06 268.99
  Q 276.33 247.28 276.26 223.04
  Q 276.20 198.80 283.82 177.05
  Q 285.84 171.30 285.16 168.82
  C 283.33 162.15 274.17 159.80 270.07 166.12
  Q 268.50 168.54 266.49 175.12
  Q 259.27 198.68 259.33 223.08"
/>
<path stroke="#c7e99b" vector-effect="non-scaling-stroke" d="
  M 174.21 223.10
  Q 174.31 198.71 167.12 175.16
  Q 165.12 168.58 163.56 166.16
  C 159.46 159.84 150.31 162.18 148.47 168.84
  Q 147.79 171.32 149.80 177.07
  Q 157.39 198.81 157.29 223.04
  Q 157.20 247.26 149.45 268.94
  Q 147.39 274.68 148.06 277.16
  C 149.85 283.83 158.98 286.24 163.12 279.95
  Q 164.71 277.55 166.76 270.98
  Q 174.12 247.49 174.21 223.10"
/>
<path stroke="#c7e99b" vector-effect="non-scaling-stroke" d="
  M 106.98 222.93
  Q 106.96 235.55 103.30 248.79
  C 100.06 260.48 116.53 264.74 119.86 252.51
  Q 123.83 237.93 123.85 222.96
  Q 123.87 207.98 119.95 193.39
  C 116.66 181.15 100.18 185.36 103.38 197.05
  Q 107.00 210.30 106.98 222.93"
/>
<path stroke="#c7e99b" vector-effect="non-scaling-stroke" d="
  M 326.57 222.91
  Q 326.55 210.30 330.17 197.06
  C 333.37 185.37 316.90 181.16 313.61 193.39
  Q 309.69 207.97 309.71 222.94
  Q 309.74 237.91 313.70 252.47
  C 317.03 264.70 333.49 260.44 330.25 248.76
  Q 326.59 235.53 326.57 222.91"
/>
<path stroke="#c7e99b" vector-effect="non-scaling-stroke" d="
  M 73.14 222.63
  A 16.57 16.57 0.0 0 0 56.57 206.06
  A 16.57 16.57 0.0 0 0 40.00 222.63
  A 16.57 16.57 0.0 0 0 56.57 239.20
  A 16.57 16.57 0.0 0 0 73.14 222.63"
/>
<path stroke="#c7e99b" vector-effect="non-scaling-stroke" d="
  M 393.60 222.62
  A 16.60 16.60 0.0 0 0 377.00 206.02
  A 16.60 16.60 0.0 0 0 360.40 222.62
  A 16.60 16.60 0.0 0 0 377.00 239.22
  A 16.60 16.60 0.0 0 0 393.60 222.62"
/>
</g>
<path fill="#9cde46" d="
  M 428.00 0.00
  L 428.00 428.00
  L 0.00 428.00
  L 0.00 0.00
  L 428.00 0.00
  Z
  M 225.3243 139.7754
  A 8.31 8.31 0.0 0 0 216.9998 131.4799
  L 216.7198 131.4804
  A 8.31 8.31 0.0 0 0 208.4243 139.8049
  L 208.7157 306.8046
  A 8.31 8.31 0.0 0 0 217.0402 315.1001
  L 217.3202 315.0996
  A 8.31 8.31 0.0 0 0 225.6157 306.7751
  L 225.3243 139.7754
  Z
  M 259.33 223.08
  Q 259.40 247.49 266.73 271.01
  Q 268.78 277.58 270.36 279.99
  C 274.50 286.29 283.64 283.89 285.44 277.21
  Q 286.11 274.73 284.06 268.99
  Q 276.33 247.28 276.26 223.04
  Q 276.20 198.80 283.82 177.05
  Q 285.84 171.30 285.16 168.82
  C 283.33 162.15 274.17 159.80 270.07 166.12
  Q 268.50 168.54 266.49 175.12
  Q 259.27 198.68 259.33 223.08
  Z
  M 174.21 223.10
  Q 174.31 198.71 167.12 175.16
  Q 165.12 168.58 163.56 166.16
  C 159.46 159.84 150.31 162.18 148.47 168.84
  Q 147.79 171.32 149.80 177.07
  Q 157.39 198.81 157.29 223.04
  Q 157.20 247.26 149.45 268.94
  Q 147.39 274.68 148.06 277.16
  C 149.85 283.83 158.98 286.24 163.12 279.95
  Q 164.71 277.55 166.76 270.98
  Q 174.12 247.49 174.21 223.10
  Z
  M 106.98 222.93
  Q 106.96 235.55 103.30 248.79
  C 100.06 260.48 116.53 264.74 119.86 252.51
  Q 123.83 237.93 123.85 222.96
  Q 123.87 207.98 119.95 193.39
  C 116.66 181.15 100.18 185.36 103.38 197.05
  Q 107.00 210.30 106.98 222.93
  Z
  M 326.57 222.91
  Q 326.55 210.30 330.17 197.06
  C 333.37 185.37 316.90 181.16 313.61 193.39
  Q 309.69 207.97 309.71 222.94
  Q 309.74 237.91 313.70 252.47
  C 317.03 264.70 333.49 260.44 330.25 248.76
  Q 326.59 235.53 326.57 222.91
  Z
  M 73.14 222.63
  A 16.57 16.57 0.0 0 0 56.57 206.06
  A 16.57 16.57 0.0 0 0 40.00 222.63
  A 16.57 16.57 0.0 0 0 56.57 239.20
  A 16.57 16.57 0.0 0 0 73.14 222.63
  Z
  M 393.60 222.62
  A 16.60 16.60 0.0 0 0 377.00 206.02
  A 16.60 16.60 0.0 0 0 360.40 222.62
  A 16.60 16.60 0.0 0 0 377.00 239.22
  A 16.60 16.60 0.0 0 0 393.60 222.62
  Z"
/>
<rect fill="#f2f3ef" x="-8.45" y="-91.81" transform="translate(217.02,223.29) rotate(-0.1)" width="16.90" height="183.62" rx="8.31"/>
<path fill="#f2f3ef" d="
  M 276.26 223.04
  Q 276.33 247.28 284.06 268.99
  Q 286.11 274.73 285.44 277.21
  C 283.64 283.89 274.50 286.29 270.36 279.99
  Q 268.78 277.58 266.73 271.01
  Q 259.40 247.49 259.33 223.08
  Q 259.27 198.68 266.49 175.12
  Q 268.50 168.54 270.07 166.12
  C 274.17 159.80 283.33 162.15 285.16 168.82
  Q 285.84 171.30 283.82 177.05
  Q 276.20 198.80 276.26 223.04
  Z"
/>
<path fill="#f2f3ef" d="
  M 174.21 223.10
  Q 174.12 247.49 166.76 270.98
  Q 164.71 277.55 163.12 279.95
  C 158.98 286.24 149.85 283.83 148.06 277.16
  Q 147.39 274.68 149.45 268.94
  Q 157.20 247.26 157.29 223.04
  Q 157.39 198.81 149.80 177.07
  Q 147.79 171.32 148.47 168.84
  C 150.31 162.18 159.46 159.84 163.56 166.16
  Q 165.12 168.58 167.12 175.16
  Q 174.31 198.71 174.21 223.10
  Z"
/>
<path fill="#f2f3ef" d="
  M 123.85 222.96
  Q 123.83 237.93 119.86 252.51
  C 116.53 264.74 100.06 260.48 103.30 248.79
  Q 106.96 235.55 106.98 222.93
  Q 107.00 210.30 103.38 197.05
  C 100.18 185.36 116.66 181.15 119.95 193.39
  Q 123.87 207.98 123.85 222.96
  Z"
/>
<path fill="#f2f3ef" d="
  M 326.57 222.91
  Q 326.59 235.53 330.25 248.76
  C 333.49 260.44 317.03 264.70 313.70 252.47
  Q 309.74 237.91 309.71 222.94
  Q 309.69 207.97 313.61 193.39
  C 316.90 181.16 333.37 185.37 330.17 197.06
  Q 326.55 210.30 326.57 222.91
  Z"
/>
<circle fill="#f2f3ef" cx="56.57" cy="222.63" r="16.57"/>
<circle fill="#f2f3ef" cx="377.00" cy="222.62" r="16.60"/>
</svg>
