<?xml version="1.0" encoding="UTF-8" standalone="no"?>
<!DOCTYPE svg PUBLIC "-//W3C//DTD SVG 1.1//EN" "http://www.w3.org/Graphics/SVG/1.1/DTD/svg11.dtd">
<svg xmlns="http://www.w3.org/2000/svg" version="1.1" viewBox="0.00 0.00 400.00 400.00">
<g stroke-width="2.00" fill="none" stroke-linecap="butt">
<path stroke="#aecea1" vector-effect="non-scaling-stroke" d="
  M 200.44 27.15
  C 193.41 26.65 188.46 27.55 178.68 28.39
  C 173.29 28.85 168.53 30.03 162.22 31.21
  Q 152.62 33.01 136.26 38.72
  A 1.01 1.01 0.0 0 0 135.59 39.56
  Q 135.33 41.72 135.69 44.56
  Q 136.89 53.98 138.08 59.71
  C 140.99 73.78 151.31 85.32 165.52 89.23
  Q 169.07 90.21 172.10 89.61
  C 175.82 88.87 182.21 86.88 184.03 83.51
  Q 189.35 73.66 194.39 65.13
  C 197.03 60.66 201.09 58.64 205.64 56.15
  Q 211.04 53.18 209.82 47.10
  Q 208.99 42.94 207.00 39.28
  Q 204.78 35.20 201.29 27.74
  A 1.04 1.02 -9.8 0 0 200.44 27.15"
/>
<path stroke="#aecea1" vector-effect="non-scaling-stroke" d="
  M 271.05 42.25
  A 0.48 0.47 -47.4 0 0 271.02 41.45
  C 267.65 39.49 262.98 38.10 258.74 36.66
  Q 245.15 32.01 231.98 30.00
  C 229.79 29.66 227.03 28.66 225.29 28.61
  Q 218.28 28.40 213.56 27.63
  A 0.47 0.47 0.0 0 0 213.12 28.39
  Q 220.35 37.30 224.19 48.26
  Q 225.29 51.41 228.73 51.25
  C 237.31 50.85 244.87 49.65 252.55 48.78
  Q 258.35 48.11 262.43 46.66
  Q 263.75 46.19 268.63 43.02
  C 269.38 42.53 270.58 42.57 271.05 42.25"
/>
<path stroke="#aecea1" vector-effect="non-scaling-stroke" d="
  M 120.73 46.15
  A 0.51 0.50 -14.2 0 0 120.00 45.72
  Q 92.72 59.17 71.14 80.54
  A 0.50 0.50 0.0 0 0 71.11 81.22
  Q 76.97 88.20 82.00 93.26
  Q 86.28 97.55 90.39 98.61
  C 95.78 100.01 100.23 101.08 105.95 99.71
  Q 120.04 96.32 126.46 84.23
  A 5.26 5.05 -25.4 0 0 126.91 83.04
  Q 128.82 75.35 126.52 68.94
  C 123.16 59.59 121.02 54.17 120.73 46.15"
/>
<path stroke="#aecea1" vector-effect="non-scaling-stroke" d="
  M 306.17 61.29
  A 0.58 0.58 0.0 0 0 306.06 60.39
  L 286.16 48.09
  A 0.71 0.71 0.0 0 0 285.17 48.35
  Q 282.21 53.66 276.57 61.08
  C 273.44 65.21 269.25 66.38 264.22 67.42
  Q 243.33 71.75 234.17 74.22
  Q 225.99 76.43 223.30 77.50
  Q 212.82 81.67 206.56 91.02
  C 202.14 97.62 201.60 107.91 201.80 116.22
  Q 201.90 120.91 203.72 128.00
  Q 207.08 141.09 208.68 155.41
  C 209.08 158.92 209.94 170.07 214.43 170.74
  Q 216.55 171.06 218.38 170.38
  Q 228.80 166.50 238.31 165.31
  Q 241.44 164.92 244.78 165.10
  C 247.83 165.27 251.30 166.63 254.77 165.97
  C 259.41 165.08 267.00 163.06 267.78 157.76
  C 268.38 153.63 269.28 149.22 269.36 145.23
  Q 269.66 129.79 271.96 118.68
  C 274.49 106.41 282.00 95.35 292.85 87.70
  Q 296.39 85.21 297.12 84.13
  Q 300.00 79.89 300.19 78.18
  Q 300.84 72.38 302.79 66.49
  Q 303.62 63.97 306.17 61.29"
/>
<path stroke="#aecea1" vector-effect="non-scaling-stroke" d="
  M 331.59 83.48
  A 0.76 0.76 0.0 0 0 331.69 82.29
  L 317.59 69.17
  A 0.72 0.71 -56.6 0 0 316.45 69.41
  Q 315.05 72.58 314.13 77.42
  C 313.22 82.22 315.35 89.63 321.50 87.87
  Q 327.65 86.10 331.59 83.48"
/>
<path stroke="#aecea1" vector-effect="non-scaling-stroke" d="
  M 65.97 86.89
  A 0.50 0.49 -33.4 0 0 65.13 86.72
  Q 55.39 97.72 47.66 109.19
  A 2.08 2.06 53.1 0 0 47.41 111.00
  Q 50.42 120.02 53.51 128.95
  Q 55.54 134.82 60.19 137.58
  C 62.62 139.02 67.35 140.38 69.95 141.90
  C 84.34 150.30 91.38 163.01 96.73 178.28
  C 99.32 185.65 105.41 187.83 113.48 189.32
  C 121.10 190.72 127.80 192.38 133.36 196.39
  Q 141.25 202.08 156.27 215.44
  Q 157.02 216.10 157.81 216.63
  A 2.34 2.34 0.0 0 0 161.27 215.56
  C 162.98 211.28 163.46 209.62 165.34 205.83
  Q 169.16 198.17 170.05 192.54
  Q 172.59 176.60 175.47 164.22
  C 176.96 157.83 177.01 153.85 177.11 146.75
  C 177.26 135.75 173.44 123.39 162.14 119.15
  Q 148.44 114.01 131.55 117.44
  Q 128.68 118.02 118.40 121.04
  C 109.57 123.64 103.18 124.13 95.55 122.75
  C 81.49 120.21 72.42 106.33 68.26 93.76
  Q 67.68 92.00 65.97 86.89"
/>
<path stroke="#aecea1" vector-effect="non-scaling-stroke" d="
  M 360.79 121.26
  Q 352.22 106.48 342.44 94.41
  A 0.87 0.87 0.0 0 0 341.07 94.44
  C 335.39 101.96 327.28 100.47 318.25 104.33
  Q 308.31 108.56 301.90 118.43
  Q 298.77 123.24 297.24 130.44
  Q 294.77 142.04 294.47 144.49
  Q 294.06 147.71 294.26 163.88
  C 294.33 169.38 295.89 172.90 300.92 174.37
  C 305.36 175.66 313.00 177.13 317.67 176.51
  C 325.04 175.53 330.19 173.93 332.99 166.74
  C 335.43 160.48 335.86 152.33 337.61 146.67
  C 341.03 135.61 348.16 124.72 360.43 122.08
  A 0.56 0.55 68.9 0 0 360.79 121.26"
/>
<path stroke="#aecea1" vector-effect="non-scaling-stroke" d="
  M 40.07 121.87
  Q 34.43 131.87 30.14 143.15
  A 0.79 0.79 0.0 0 0 30.98 144.21
  Q 41.06 142.88 44.60 133.27
  A 2.69 2.67 -46.2 0 0 44.57 131.31
  L 40.80 121.92
  A 0.41 0.40 -41.0 0 0 40.07 121.87"
/>
<path stroke="#aecea1" vector-effect="non-scaling-stroke" d="
  M 377.81 164.16
  Q 374.00 149.02 367.06 133.89
  A 1.10 1.10 0.0 0 0 365.47 133.42
  Q 362.99 135.01 361.47 137.22
  Q 357.56 142.87 354.70 147.97
  A 4.03 4.01 52.4 0 0 354.32 150.95
  C 355.91 157.13 359.71 158.97 366.17 160.65
  Q 371.81 162.12 377.00 164.80
  A 0.57 0.57 0.0 0 0 377.81 164.16"
/>
<path stroke="#aecea1" vector-effect="non-scaling-stroke" d="
  M 18.37 208.10
  L 29.70 212.01
  A 9.91 9.87 56.1 0 0 32.33 212.53
  Q 44.35 213.22 51.55 211.21
  Q 58.82 209.19 67.11 202.18
  C 68.80 200.75 71.76 197.97 72.11 196.06
  C 74.42 183.59 67.10 171.49 57.04 164.47
  Q 53.00 161.64 48.66 161.34
  Q 41.99 160.88 25.22 160.74
  A 0.90 0.90 0.0 0 0 24.44 161.19
  Q 23.63 162.60 23.07 164.77
  Q 17.55 185.95 17.58 207.01
  A 1.17 1.17 0.0 0 0 18.37 208.10"
/>
<path stroke="#aecea1" vector-effect="non-scaling-stroke" d="
  M 380.41 179.06
  Q 373.70 178.88 370.79 178.44
  C 364.55 177.50 359.04 178.65 354.91 182.92
  Q 350.71 187.26 346.09 191.59
  Q 342.55 194.91 338.54 196.36
  Q 310.96 206.27 280.75 206.52
  Q 272.92 206.59 262.27 204.57
  Q 257.96 203.76 255.68 203.63
  C 250.20 203.34 245.78 202.21 240.72 202.78
  Q 233.65 203.57 232.44 203.93
  Q 218.97 207.93 212.58 219.62
  Q 207.96 228.06 204.65 240.32
  C 202.41 248.60 204.17 254.14 206.21 263.54
  C 207.32 268.63 211.82 274.32 217.51 274.30
  C 224.70 274.28 231.99 270.15 238.05 266.54
  C 247.30 261.02 257.28 256.66 267.56 254.94
  Q 272.85 254.05 274.99 253.76
  Q 280.53 252.99 287.83 254.18
  Q 298.24 255.88 300.03 255.97
  Q 308.25 256.39 315.13 251.38
  Q 327.57 242.33 332.01 239.52
  Q 336.41 236.74 340.12 236.63
  Q 350.84 236.31 366.03 236.95
  C 371.37 237.17 377.48 233.30 381.91 230.32
  A 2.44 2.43 74.6 0 0 382.99 228.41
  Q 383.70 213.63 383.17 196.83
  C 382.97 190.72 381.86 185.51 381.08 179.66
  A 0.70 0.70 0.0 0 0 380.41 179.06"
/>
<path stroke="#aecea1" vector-effect="non-scaling-stroke" d="
  M 33.81 285.87
  Q 60.39 342.60 115.79 372.16
  A 0.87 0.86 -44.0 0 0 116.60 372.17
  Q 126.38 367.16 132.41 364.89
  C 140.74 361.74 154.51 358.67 163.31 351.33
  C 168.65 346.88 173.77 337.36 172.10 329.63
  Q 169.18 316.14 163.78 294.74
  Q 160.03 279.89 158.27 266.51
  Q 157.66 261.90 156.79 260.14
  Q 155.25 257.04 153.04 254.64
  Q 146.03 247.06 139.39 241.13
  Q 134.46 236.74 125.63 231.94
  C 111.52 224.29 96.70 223.32 81.57 230.01
  Q 68.03 235.99 64.02 249.50
  Q 60.16 262.46 56.04 270.83
  C 54.67 273.60 53.21 274.62 50.67 276.39
  Q 41.97 282.44 34.09 285.20
  A 0.49 0.49 0.0 0 0 33.81 285.87"
/>
<path stroke="#aecea1" vector-effect="non-scaling-stroke" d="
  M 18.21 228.37
  Q 20.46 248.57 26.55 267.20
  A 0.68 0.67 64.1 0 0 27.57 267.56
  Q 30.93 265.28 33.24 263.45
  C 38.50 259.29 40.62 252.26 42.74 245.93
  Q 43.55 243.51 43.01 241.75
  C 41.44 236.65 26.75 231.82 21.95 229.94
  C 20.68 229.44 19.79 228.46 18.78 227.97
  A 0.40 0.40 0.0 0 0 18.21 228.37"
/>
<path stroke="#aecea1" vector-effect="non-scaling-stroke" d="
  M 377.91 251.13
  L 369.56 254.94
  A 1.54 1.39 26.0 0 1 369.18 255.05
  Q 363.19 256.10 361.87 255.94
  C 348.37 254.34 335.25 256.90 332.47 272.35
  A 2.64 2.61 44.7 0 0 332.48 273.39
  Q 333.60 278.73 338.34 281.41
  C 345.57 285.49 352.62 284.89 360.30 281.31
  Q 363.37 279.88 368.88 278.10
  A 4.65 4.64 -0.3 0 0 371.87 275.09
  L 379.11 252.20
  A 0.88 0.88 0.0 0 0 377.91 251.13"
/>
<path stroke="#aecea1" vector-effect="non-scaling-stroke" d="
  M 357.01 304.06
  C 351.44 305.49 346.07 305.90 340.46 303.44
  C 332.78 300.08 327.06 296.93 320.75 291.50
  C 313.89 285.58 310.62 281.46 301.51 282.03
  Q 274.46 283.73 271.00 284.24
  C 254.57 286.70 242.54 298.15 234.89 312.36
  Q 231.89 317.95 230.97 324.75
  C 229.29 337.16 233.61 349.19 245.21 355.09
  C 250.59 357.83 261.86 360.46 267.64 363.61
  Q 275.33 367.80 282.34 372.31
  A 2.36 2.33 47.4 0 0 284.71 372.42
  Q 330.33 348.46 357.34 304.50
  A 0.30 0.30 0.0 0 0 357.01 304.06"
/>
</g>
<path fill="#ffffff" d="
  M 400.00 0.00
  L 400.00 400.00
  L 0.00 400.00
  L 0.00 0.00
  L 400.00 0.00
  Z
  M 200.44 27.15
  C 193.41 26.65 188.46 27.55 178.68 28.39
  C 173.29 28.85 168.53 30.03 162.22 31.21
  Q 152.62 33.01 136.26 38.72
  A 1.01 1.01 0.0 0 0 135.59 39.56
  Q 135.33 41.72 135.69 44.56
  Q 136.89 53.98 138.08 59.71
  C 140.99 73.78 151.31 85.32 165.52 89.23
  Q 169.07 90.21 172.10 89.61
  C 175.82 88.87 182.21 86.88 184.03 83.51
  Q 189.35 73.66 194.39 65.13
  C 197.03 60.66 201.09 58.64 205.64 56.15
  Q 211.04 53.18 209.82 47.10
  Q 208.99 42.94 207.00 39.28
  Q 204.78 35.20 201.29 27.74
  A 1.04 1.02 -9.8 0 0 200.44 27.15
  Z
  M 271.05 42.25
  A 0.48 0.47 -47.4 0 0 271.02 41.45
  C 267.65 39.49 262.98 38.10 258.74 36.66
  Q 245.15 32.01 231.98 30.00
  C 229.79 29.66 227.03 28.66 225.29 28.61
  Q 218.28 28.40 213.56 27.63
  A 0.47 0.47 0.0 0 0 213.12 28.39
  Q 220.35 37.30 224.19 48.26
  Q 225.29 51.41 228.73 51.25
  C 237.31 50.85 244.87 49.65 252.55 48.78
  Q 258.35 48.11 262.43 46.66
  Q 263.75 46.19 268.63 43.02
  C 269.38 42.53 270.58 42.57 271.05 42.25
  Z
  M 120.73 46.15
  A 0.51 0.50 -14.2 0 0 120.00 45.72
  Q 92.72 59.17 71.14 80.54
  A 0.50 0.50 0.0 0 0 71.11 81.22
  Q 76.97 88.20 82.00 93.26
  Q 86.28 97.55 90.39 98.61
  C 95.78 100.01 100.23 101.08 105.95 99.71
  Q 120.04 96.32 126.46 84.23
  A 5.26 5.05 -25.4 0 0 126.91 83.04
  Q 128.82 75.35 126.52 68.94
  C 123.16 59.59 121.02 54.17 120.73 46.15
  Z
  M 306.17 61.29
  A 0.58 0.58 0.0 0 0 306.06 60.39
  L 286.16 48.09
  A 0.71 0.71 0.0 0 0 285.17 48.35
  Q 282.21 53.66 276.57 61.08
  C 273.44 65.21 269.25 66.38 264.22 67.42
  Q 243.33 71.75 234.17 74.22
  Q 225.99 76.43 223.30 77.50
  Q 212.82 81.67 206.56 91.02
  C 202.14 97.62 201.60 107.91 201.80 116.22
  Q 201.90 120.91 203.72 128.00
  Q 207.08 141.09 208.68 155.41
  C 209.08 158.92 209.94 170.07 214.43 170.74
  Q 216.55 171.06 218.38 170.38
  Q 228.80 166.50 238.31 165.31
  Q 241.44 164.92 244.78 165.10
  C 247.83 165.27 251.30 166.63 254.77 165.97
  C 259.41 165.08 267.00 163.06 267.78 157.76
  C 268.38 153.63 269.28 149.22 269.36 145.23
  Q 269.66 129.79 271.96 118.68
  C 274.49 106.41 282.00 95.35 292.85 87.70
  Q 296.39 85.21 297.12 84.13
  Q 300.00 79.89 300.19 78.18
  Q 300.84 72.38 302.79 66.49
  Q 303.62 63.97 306.17 61.29
  Z
  M 331.59 83.48
  A 0.76 0.76 0.0 0 0 331.69 82.29
  L 317.59 69.17
  A 0.72 0.71 -56.6 0 0 316.45 69.41
  Q 315.05 72.58 314.13 77.42
  C 313.22 82.22 315.35 89.63 321.50 87.87
  Q 327.65 86.10 331.59 83.48
  Z
  M 65.97 86.89
  A 0.50 0.49 -33.4 0 0 65.13 86.72
  Q 55.39 97.72 47.66 109.19
  A 2.08 2.06 53.1 0 0 47.41 111.00
  Q 50.42 120.02 53.51 128.95
  Q 55.54 134.82 60.19 137.58
  C 62.62 139.02 67.35 140.38 69.95 141.90
  C 84.34 150.30 91.38 163.01 96.73 178.28
  C 99.32 185.65 105.41 187.83 113.48 189.32
  C 121.10 190.72 127.80 192.38 133.36 196.39
  Q 141.25 202.08 156.27 215.44
  Q 157.02 216.10 157.81 216.63
  A 2.34 2.34 0.0 0 0 161.27 215.56
  C 162.98 211.28 163.46 209.62 165.34 205.83
  Q 169.16 198.17 170.05 192.54
  Q 172.59 176.60 175.47 164.22
  C 176.96 157.83 177.01 153.85 177.11 146.75
  C 177.26 135.75 173.44 123.39 162.14 119.15
  Q 148.44 114.01 131.55 117.44
  Q 128.68 118.02 118.40 121.04
  C 109.57 123.64 103.18 124.13 95.55 122.75
  C 81.49 120.21 72.42 106.33 68.26 93.76
  Q 67.68 92.00 65.97 86.89
  Z
  M 360.79 121.26
  Q 352.22 106.48 342.44 94.41
  A 0.87 0.87 0.0 0 0 341.07 94.44
  C 335.39 101.96 327.28 100.47 318.25 104.33
  Q 308.31 108.56 301.90 118.43
  Q 298.77 123.24 297.24 130.44
  Q 294.77 142.04 294.47 144.49
  Q 294.06 147.71 294.26 163.88
  C 294.33 169.38 295.89 172.90 300.92 174.37
  C 305.36 175.66 313.00 177.13 317.67 176.51
  C 325.04 175.53 330.19 173.93 332.99 166.74
  C 335.43 160.48 335.86 152.33 337.61 146.67
  C 341.03 135.61 348.16 124.72 360.43 122.08
  A 0.56 0.55 68.9 0 0 360.79 121.26
  Z
  M 40.07 121.87
  Q 34.43 131.87 30.14 143.15
  A 0.79 0.79 0.0 0 0 30.98 144.21
  Q 41.06 142.88 44.60 133.27
  A 2.69 2.67 -46.2 0 0 44.57 131.31
  L 40.80 121.92
  A 0.41 0.40 -41.0 0 0 40.07 121.87
  Z
  M 377.81 164.16
  Q 374.00 149.02 367.06 133.89
  A 1.10 1.10 0.0 0 0 365.47 133.42
  Q 362.99 135.01 361.47 137.22
  Q 357.56 142.87 354.70 147.97
  A 4.03 4.01 52.4 0 0 354.32 150.95
  C 355.91 157.13 359.71 158.97 366.17 160.65
  Q 371.81 162.12 377.00 164.80
  A 0.57 0.57 0.0 0 0 377.81 164.16
  Z
  M 18.37 208.10
  L 29.70 212.01
  A 9.91 9.87 56.1 0 0 32.33 212.53
  Q 44.35 213.22 51.55 211.21
  Q 58.82 209.19 67.11 202.18
  C 68.80 200.75 71.76 197.97 72.11 196.06
  C 74.42 183.59 67.10 171.49 57.04 164.47
  Q 53.00 161.64 48.66 161.34
  Q 41.99 160.88 25.22 160.74
  A 0.90 0.90 0.0 0 0 24.44 161.19
  Q 23.63 162.60 23.07 164.77
  Q 17.55 185.95 17.58 207.01
  A 1.17 1.17 0.0 0 0 18.37 208.10
  Z
  M 380.41 179.06
  Q 373.70 178.88 370.79 178.44
  C 364.55 177.50 359.04 178.65 354.91 182.92
  Q 350.71 187.26 346.09 191.59
  Q 342.55 194.91 338.54 196.36
  Q 310.96 206.27 280.75 206.52
  Q 272.92 206.59 262.27 204.57
  Q 257.96 203.76 255.68 203.63
  C 250.20 203.34 245.78 202.21 240.72 202.78
  Q 233.65 203.57 232.44 203.93
  Q 218.97 207.93 212.58 219.62
  Q 207.96 228.06 204.65 240.32
  C 202.41 248.60 204.17 254.14 206.21 263.54
  C 207.32 268.63 211.82 274.32 217.51 274.30
  C 224.70 274.28 231.99 270.15 238.05 266.54
  C 247.30 261.02 257.28 256.66 267.56 254.94
  Q 272.85 254.05 274.99 253.76
  Q 280.53 252.99 287.83 254.18
  Q 298.24 255.88 300.03 255.97
  Q 308.25 256.39 315.13 251.38
  Q 327.57 242.33 332.01 239.52
  Q 336.41 236.74 340.12 236.63
  Q 350.84 236.31 366.03 236.95
  C 371.37 237.17 377.48 233.30 381.91 230.32
  A 2.44 2.43 74.6 0 0 382.99 228.41
  Q 383.70 213.63 383.17 196.83
  C 382.97 190.72 381.86 185.51 381.08 179.66
  A 0.70 0.70 0.0 0 0 380.41 179.06
  Z
  M 33.81 285.87
  Q 60.39 342.60 115.79 372.16
  A 0.87 0.86 -44.0 0 0 116.60 372.17
  Q 126.38 367.16 132.41 364.89
  C 140.74 361.74 154.51 358.67 163.31 351.33
  C 168.65 346.88 173.77 337.36 172.10 329.63
  Q 169.18 316.14 163.78 294.74
  Q 160.03 279.89 158.27 266.51
  Q 157.66 261.90 156.79 260.14
  Q 155.25 257.04 153.04 254.64
  Q 146.03 247.06 139.39 241.13
  Q 134.46 236.74 125.63 231.94
  C 111.52 224.29 96.70 223.32 81.57 230.01
  Q 68.03 235.99 64.02 249.50
  Q 60.16 262.46 56.04 270.83
  C 54.67 273.60 53.21 274.62 50.67 276.39
  Q 41.97 282.44 34.09 285.20
  A 0.49 0.49 0.0 0 0 33.81 285.87
  Z
  M 18.21 228.37
  Q 20.46 248.57 26.55 267.20
  A 0.68 0.67 64.1 0 0 27.57 267.56
  Q 30.93 265.28 33.24 263.45
  C 38.50 259.29 40.62 252.26 42.74 245.93
  Q 43.55 243.51 43.01 241.75
  C 41.44 236.65 26.75 231.82 21.95 229.94
  C 20.68 229.44 19.79 228.46 18.78 227.97
  A 0.40 0.40 0.0 0 0 18.21 228.37
  Z
  M 377.91 251.13
  L 369.56 254.94
  A 1.54 1.39 26.0 0 1 369.18 255.05
  Q 363.19 256.10 361.87 255.94
  C 348.37 254.34 335.25 256.90 332.47 272.35
  A 2.64 2.61 44.7 0 0 332.48 273.39
  Q 333.60 278.73 338.34 281.41
  C 345.57 285.49 352.62 284.89 360.30 281.31
  Q 363.37 279.88 368.88 278.10
  A 4.65 4.64 -0.3 0 0 371.87 275.09
  L 379.11 252.20
  A 0.88 0.88 0.0 0 0 377.91 251.13
  Z
  M 357.01 304.06
  C 351.44 305.49 346.07 305.90 340.46 303.44
  C 332.78 300.08 327.06 296.93 320.75 291.50
  C 313.89 285.58 310.62 281.46 301.51 282.03
  Q 274.46 283.73 271.00 284.24
  C 254.57 286.70 242.54 298.15 234.89 312.36
  Q 231.89 317.95 230.97 324.75
  C 229.29 337.16 233.61 349.19 245.21 355.09
  C 250.59 357.83 261.86 360.46 267.64 363.61
  Q 275.33 367.80 282.34 372.31
  A 2.36 2.33 47.4 0 0 284.71 372.42
  Q 330.33 348.46 357.34 304.50
  A 0.30 0.30 0.0 0 0 357.01 304.06
  Z"
/>
<path fill="#5d9c42" d="
  M 201.29 27.74
  Q 204.78 35.20 207.00 39.28
  Q 208.99 42.94 209.82 47.10
  Q 211.04 53.18 205.64 56.15
  C 201.09 58.64 197.03 60.66 194.39 65.13
  Q 189.35 73.66 184.03 83.51
  C 182.21 86.88 175.82 88.87 172.10 89.61
  Q 169.07 90.21 165.52 89.23
  C 151.31 85.32 140.99 73.78 138.08 59.71
  Q 136.89 53.98 135.69 44.56
  Q 135.33 41.72 135.59 39.56
  A 1.01 1.01 0.0 0 1 136.26 38.72
  Q 152.62 33.01 162.22 31.21
  C 168.53 30.03 173.29 28.85 178.68 28.39
  C 188.46 27.55 193.41 26.65 200.44 27.15
  A 1.04 1.02 -9.8 0 1 201.29 27.74
  Z"
/>
<path fill="#5d9c42" d="
  M 271.05 42.25
  C 270.58 42.57 269.38 42.53 268.63 43.02
  Q 263.75 46.19 262.43 46.66
  Q 258.35 48.11 252.55 48.78
  C 244.87 49.65 237.31 50.85 228.73 51.25
  Q 225.29 51.41 224.19 48.26
  Q 220.35 37.30 213.12 28.39
  A 0.47 0.47 0.0 0 1 213.56 27.63
  Q 218.28 28.40 225.29 28.61
  C 227.03 28.66 229.79 29.66 231.98 30.00
  Q 245.15 32.01 258.74 36.66
  C 262.98 38.10 267.65 39.49 271.02 41.45
  A 0.48 0.47 -47.4 0 1 271.05 42.25
  Z"
/>
<path fill="#5d9c42" d="
  M 120.73 46.15
  C 121.02 54.17 123.16 59.59 126.52 68.94
  Q 128.82 75.35 126.91 83.04
  A 5.26 5.05 -25.4 0 1 126.46 84.23
  Q 120.04 96.32 105.95 99.71
  C 100.23 101.08 95.78 100.01 90.39 98.61
  Q 86.28 97.55 82.00 93.26
  Q 76.97 88.20 71.11 81.22
  A 0.50 0.50 0.0 0 1 71.14 80.54
  Q 92.72 59.17 120.00 45.72
  A 0.51 0.50 -14.2 0 1 120.73 46.15
  Z"
/>
<path fill="#5d9c42" d="
  M 306.17 61.29
  Q 303.62 63.97 302.79 66.49
  Q 300.84 72.38 300.19 78.18
  Q 300.00 79.89 297.12 84.13
  Q 296.39 85.21 292.85 87.70
  C 282.00 95.35 274.49 106.41 271.96 118.68
  Q 269.66 129.79 269.36 145.23
  C 269.28 149.22 268.38 153.63 267.78 157.76
  C 267.00 163.06 259.41 165.08 254.77 165.97
  C 251.30 166.63 247.83 165.27 244.78 165.10
  Q 241.44 164.92 238.31 165.31
  Q 228.80 166.50 218.38 170.38
  Q 216.55 171.06 214.43 170.74
  C 209.94 170.07 209.08 158.92 208.68 155.41
  Q 207.08 141.09 203.72 128.00
  Q 201.90 120.91 201.80 116.22
  C 201.60 107.91 202.14 97.62 206.56 91.02
  Q 212.82 81.67 223.30 77.50
  Q 225.99 76.43 234.17 74.22
  Q 243.33 71.75 264.22 67.42
  C 269.25 66.38 273.44 65.21 276.57 61.08
  Q 282.21 53.66 285.17 48.35
  A 0.71 0.71 0.0 0 1 286.16 48.09
  L 306.06 60.39
  A 0.58 0.58 0.0 0 1 306.17 61.29
  Z"
/>
<path fill="#5d9c42" d="
  M 331.59 83.48
  Q 327.65 86.10 321.50 87.87
  C 315.35 89.63 313.22 82.22 314.13 77.42
  Q 315.05 72.58 316.45 69.41
  A 0.72 0.71 -56.6 0 1 317.59 69.17
  L 331.69 82.29
  A 0.76 0.76 0.0 0 1 331.59 83.48
  Z"
/>
<path fill="#5d9c42" d="
  M 65.97 86.89
  Q 67.68 92.00 68.26 93.76
  C 72.42 106.33 81.49 120.21 95.55 122.75
  C 103.18 124.13 109.57 123.64 118.40 121.04
  Q 128.68 118.02 131.55 117.44
  Q 148.44 114.01 162.14 119.15
  C 173.44 123.39 177.26 135.75 177.11 146.75
  C 177.01 153.85 176.96 157.83 175.47 164.22
  Q 172.59 176.60 170.05 192.54
  Q 169.16 198.17 165.34 205.83
  C 163.46 209.62 162.98 211.28 161.27 215.56
  A 2.34 2.34 0.0 0 1 157.81 216.63
  Q 157.02 216.10 156.27 215.44
  Q 141.25 202.08 133.36 196.39
  C 127.80 192.38 121.10 190.72 113.48 189.32
  C 105.41 187.83 99.32 185.65 96.73 178.28
  C 91.38 163.01 84.34 150.30 69.95 141.90
  C 67.35 140.38 62.62 139.02 60.19 137.58
  Q 55.54 134.82 53.51 128.95
  Q 50.42 120.02 47.41 111.00
  A 2.08 2.06 53.1 0 1 47.66 109.19
  Q 55.39 97.72 65.13 86.72
  A 0.50 0.49 -33.4 0 1 65.97 86.89
  Z"
/>
<path fill="#5d9c42" d="
  M 360.43 122.08
  C 348.16 124.72 341.03 135.61 337.61 146.67
  C 335.86 152.33 335.43 160.48 332.99 166.74
  C 330.19 173.93 325.04 175.53 317.67 176.51
  C 313.00 177.13 305.36 175.66 300.92 174.37
  C 295.89 172.90 294.33 169.38 294.26 163.88
  Q 294.06 147.71 294.47 144.49
  Q 294.77 142.04 297.24 130.44
  Q 298.77 123.24 301.90 118.43
  Q 308.31 108.56 318.25 104.33
  C 327.28 100.47 335.39 101.96 341.07 94.44
  A 0.87 0.87 0.0 0 1 342.44 94.41
  Q 352.22 106.48 360.79 121.26
  A 0.56 0.55 68.9 0 1 360.43 122.08
  Z"
/>
<path fill="#5d9c42" d="
  M 40.07 121.87
  A 0.41 0.40 -41.0 0 1 40.80 121.92
  L 44.57 131.31
  A 2.69 2.67 -46.2 0 1 44.60 133.27
  Q 41.06 142.88 30.98 144.21
  A 0.79 0.79 0.0 0 1 30.14 143.15
  Q 34.43 131.87 40.07 121.87
  Z"
/>
<path fill="#5d9c42" d="
  M 377.81 164.16
  A 0.57 0.57 0.0 0 1 377.00 164.80
  Q 371.81 162.12 366.17 160.65
  C 359.71 158.97 355.91 157.13 354.32 150.95
  A 4.03 4.01 52.4 0 1 354.70 147.97
  Q 357.56 142.87 361.47 137.22
  Q 362.99 135.01 365.47 133.42
  A 1.10 1.10 0.0 0 1 367.06 133.89
  Q 374.00 149.02 377.81 164.16
  Z"
/>
<path fill="#5d9c42" d="
  M 18.37 208.10
  A 1.17 1.17 0.0 0 1 17.58 207.01
  Q 17.55 185.95 23.07 164.77
  Q 23.63 162.60 24.44 161.19
  A 0.90 0.90 0.0 0 1 25.22 160.74
  Q 41.99 160.88 48.66 161.34
  Q 53.00 161.64 57.04 164.47
  C 67.10 171.49 74.42 183.59 72.11 196.06
  C 71.76 197.97 68.80 200.75 67.11 202.18
  Q 58.82 209.19 51.55 211.21
  Q 44.35 213.22 32.33 212.53
  A 9.91 9.87 56.1 0 1 29.70 212.01
  L 18.37 208.10
  Z"
/>
<path fill="#5d9c42" d="
  M 380.41 179.06
  A 0.70 0.70 0.0 0 1 381.08 179.66
  C 381.86 185.51 382.97 190.72 383.17 196.83
  Q 383.70 213.63 382.99 228.41
  A 2.44 2.43 74.6 0 1 381.91 230.32
  C 377.48 233.30 371.37 237.17 366.03 236.95
  Q 350.84 236.31 340.12 236.63
  Q 336.41 236.74 332.01 239.52
  Q 327.57 242.33 315.13 251.38
  Q 308.25 256.39 300.03 255.97
  Q 298.24 255.88 287.83 254.18
  Q 280.53 252.99 274.99 253.76
  Q 272.85 254.05 267.56 254.94
  C 257.28 256.66 247.30 261.02 238.05 266.54
  C 231.99 270.15 224.70 274.28 217.51 274.30
  C 211.82 274.32 207.32 268.63 206.21 263.54
  C 204.17 254.14 202.41 248.60 204.65 240.32
  Q 207.96 228.06 212.58 219.62
  Q 218.97 207.93 232.44 203.93
  Q 233.65 203.57 240.72 202.78
  C 245.78 202.21 250.20 203.34 255.68 203.63
  Q 257.96 203.76 262.27 204.57
  Q 272.92 206.59 280.75 206.52
  Q 310.96 206.27 338.54 196.36
  Q 342.55 194.91 346.09 191.59
  Q 350.71 187.26 354.91 182.92
  C 359.04 178.65 364.55 177.50 370.79 178.44
  Q 373.70 178.88 380.41 179.06
  Z"
/>
<path fill="#5d9c42" d="
  M 34.09 285.20
  Q 41.97 282.44 50.67 276.39
  C 53.21 274.62 54.67 273.60 56.04 270.83
  Q 60.16 262.46 64.02 249.50
  Q 68.03 235.99 81.57 230.01
  C 96.70 223.32 111.52 224.29 125.63 231.94
  Q 134.46 236.74 139.39 241.13
  Q 146.03 247.06 153.04 254.64
  Q 155.25 257.04 156.79 260.14
  Q 157.66 261.90 158.27 266.51
  Q 160.03 279.89 163.78 294.74
  Q 169.18 316.14 172.10 329.63
  C 173.77 337.36 168.65 346.88 163.31 351.33
  C 154.51 358.67 140.74 361.74 132.41 364.89
  Q 126.38 367.16 116.60 372.17
  A 0.87 0.86 -44.0 0 1 115.79 372.16
  Q 60.39 342.60 33.81 285.87
  A 0.49 0.49 0.0 0 1 34.09 285.20
  Z"
/>
<path fill="#5d9c42" d="
  M 18.78 227.97
  C 19.79 228.46 20.68 229.44 21.95 229.94
  C 26.75 231.82 41.44 236.65 43.01 241.75
  Q 43.55 243.51 42.74 245.93
  C 40.62 252.26 38.50 259.29 33.24 263.45
  Q 30.93 265.28 27.57 267.56
  A 0.68 0.67 64.1 0 1 26.55 267.20
  Q 20.46 248.57 18.21 228.37
  A 0.40 0.40 0.0 0 1 18.78 227.97
  Z"
/>
<path fill="#5d9c42" d="
  M 377.91 251.13
  A 0.88 0.88 0.0 0 1 379.11 252.20
  L 371.87 275.09
  A 4.65 4.64 -0.3 0 1 368.88 278.10
  Q 363.37 279.88 360.30 281.31
  C 352.62 284.89 345.57 285.49 338.34 281.41
  Q 333.60 278.73 332.48 273.39
  A 2.64 2.61 44.7 0 1 332.47 272.35
  C 335.25 256.90 348.37 254.34 361.87 255.94
  Q 363.19 256.10 369.18 255.05
  A 1.54 1.39 26.0 0 0 369.56 254.94
  L 377.91 251.13
  Z"
/>
<path fill="#5d9c42" d="
  M 357.01 304.06
  A 0.30 0.30 0.0 0 1 357.34 304.50
  Q 330.33 348.46 284.71 372.42
  A 2.36 2.33 47.4 0 1 282.34 372.31
  Q 275.33 367.80 267.64 363.61
  C 261.86 360.46 250.59 357.83 245.21 355.09
  C 233.61 349.19 229.29 337.16 230.97 324.75
  Q 231.89 317.95 234.89 312.36
  C 242.54 298.15 254.57 286.70 271.00 284.24
  Q 274.46 283.73 301.51 282.03
  C 310.62 281.46 313.89 285.58 320.75 291.50
  C 327.06 296.93 332.78 300.08 340.46 303.44
  C 346.07 305.90 351.44 305.49 357.01 304.06
  Z"
/>
</svg>
