<svg xmlns="http://www.w3.org/2000/svg" viewBox="0 0 150 25" class="mt-1 h-5 sm:h-7"><title>Bookingmood</title><path class="fill-current" d="M79.752,5.52 C80.552,5.52 81.27,5.67 81.906,5.97 C82.2384545,6.12681818 82.5370269,6.31533264 82.8017169,6.53554339 L82.8,5.76 L86.412,5.76 L86.412,16.728 C86.412,17.928 86.132,18.97 85.572,19.854 C85.012,20.738 84.244,21.426 83.268,21.918 C82.292,22.41 81.176,22.656 79.92,22.656 C78.648,22.656 77.528,22.436 76.56,21.996 C75.592,21.556 74.828,20.936 74.268,20.136 L76.524,17.892 C76.94,18.38 77.408,18.754 77.928,19.014 C78.448,19.274 79.076,19.404 79.812,19.404 C80.716,19.404 81.43,19.178 81.954,18.726 C82.478,18.274 82.74,17.64 82.74,16.824 L82.7408869,16.0881305 C82.4878714,16.2917405 82.2055758,16.4670303 81.894,16.614 C81.258,16.914 80.544,17.064 79.752,17.064 C78.688,17.064 77.738,16.81 76.902,16.302 C76.066,15.794 75.41,15.1 74.934,14.22 C74.458,13.34 74.22,12.36 74.22,11.28 C74.22,10.192 74.458,9.214 74.934,8.346 C75.41,7.478 76.066,6.79 76.902,6.282 C77.738,5.774 78.688,5.52 79.752,5.52 Z M19.884,5.496 C21.1,5.496 22.188,5.762 23.148,6.294 C24.108,6.826 24.868,7.55 25.428,8.466 C25.988,9.382 26.268,10.416 26.268,11.568 C26.268,12.72 25.99,13.76 25.434,14.688 C24.878,15.616 24.12,16.348 23.16,16.884 C22.2,17.42 21.112,17.688 19.896,17.688 C18.688,17.688 17.602,17.42 16.638,16.884 C15.674,16.348 14.912,15.616 14.352,14.688 C13.792,13.76 13.512,12.72 13.512,11.568 C13.512,10.416 13.79,9.384 14.346,8.472 C14.902,7.56 15.662,6.836 16.626,6.3 C17.59,5.764 18.676,5.496 19.884,5.496 Z M33.696,5.496 C34.912,5.496 36,5.762 36.96,6.294 C37.92,6.826 38.68,7.55 39.24,8.466 C39.8,9.382 40.08,10.416 40.08,11.568 C40.08,12.72 39.802,13.76 39.246,14.688 C38.69,15.616 37.932,16.348 36.972,16.884 C36.012,17.42 34.924,17.688 33.708,17.688 C32.5,17.688 31.414,17.42 30.45,16.884 C29.486,16.348 28.724,15.616 28.164,14.688 C27.604,13.76 27.324,12.72 27.324,11.568 C27.324,10.416 27.602,9.384 28.158,8.472 C28.714,7.56 29.474,6.836 30.438,6.3 C31.402,5.764 32.488,5.496 33.696,5.496 Z M115.548,5.496 C116.764,5.496 117.852,5.762 118.812,6.294 C119.772,6.826 120.532,7.55 121.092,8.466 C121.652,9.382 121.932,10.416 121.932,11.568 C121.932,12.72 121.654,13.76 121.098,14.688 C120.542,15.616 119.784,16.348 118.824,16.884 C117.864,17.42 116.776,17.688 115.56,17.688 C114.352,17.688 113.266,17.42 112.302,16.884 C111.338,16.348 110.576,15.616 110.016,14.688 C109.456,13.76 109.176,12.72 109.176,11.568 C109.176,10.416 109.454,9.384 110.01,8.472 C110.566,7.56 111.326,6.836 112.29,6.3 C113.254,5.764 114.34,5.496 115.548,5.496 Z M149.256,0 L149.256,17.424 L145.644,17.424 L145.644013,16.5700673 C145.365245,16.8048404 145.053241,17.0074846 144.708,17.178 C144.052,17.502 143.328,17.664 142.536,17.664 C141.432,17.664 140.452187,17.400125 139.596562,16.872375 C138.740937,16.344625 138.068937,15.624625 137.580562,14.712375 C137.092187,13.800125 136.848,12.763125 136.848,11.601375 C136.848,10.431375 137.092,9.3893125 137.58,8.4751875 C138.068,7.5610625 138.73925,6.84 139.59375,6.312 C140.44825,5.784 141.429,5.52 142.536,5.52 C143.328,5.52 144.05,5.672 144.702,5.976 C145.024457,6.12634783 145.31854,6.30506864 145.584251,6.51216245 L145.584,0 L149.256,0 Z M3.672,0 L3.67183081,6.51443935 C3.93832042,6.30637833 4.23437681,6.12689855 4.56,5.976 C5.216,5.672 5.936,5.52 6.72,5.52 C7.824,5.52 8.804,5.784 9.66,6.312 C10.516,6.84 11.188,7.562 11.676,8.478 C12.164,9.394 12.408,10.436 12.408,11.604 C12.408,12.764 12.164,13.8 11.676,14.712 C11.188,15.624 10.516,16.344 9.66,16.872 C8.804,17.4 7.824,17.664 6.72,17.664 C5.928,17.664 5.204,17.502 4.548,17.178 C4.20191795,17.0070692 3.88979141,16.8038529 3.61162039,16.568351 L3.612,17.424 L0,17.424 L0,0 L3.672,0 Z M45.576,0 L45.575,10.978 L49.344,5.76 L53.448,5.76 L49.187629,11.2629792 L53.688,17.424 L49.368,17.424 L45.575,11.801 L45.576,17.424 L41.904,17.424 L41.904,0 L45.576,0 Z M58.668,5.76 L58.668,17.424 L54.996,17.424 L54.996,5.76 L58.668,5.76 Z M68.200875,5.52 C69.053625,5.52 69.814,5.724 70.482,6.132 C71.15,6.54 71.676,7.08 72.06,7.752 C72.444,8.424 72.636,9.16 72.636,9.96 L72.636,17.424 L68.964,17.424 L68.964,10.788 C68.964,10.172 68.776,9.678 68.4,9.306 C68.024,8.934 67.545,8.748 66.963,8.748 C66.567,8.748 66.2155,8.832 65.9085,9 C65.6015,9.168 65.362,9.406 65.19,9.714 C65.018,10.022 64.932,10.38 64.932,10.788 L64.932,17.424 L61.26,17.424 L61.26,5.76 L64.932,5.76 L64.9323341,6.6806467 C65.1859884,6.45427084 65.4694395,6.25738861 65.7826875,6.09 C66.4938125,5.71 67.299875,5.52 68.200875,5.52 Z M102.936,5.52 C103.824,5.52 104.618,5.708 105.318,6.084 C106.018,6.46 106.572,6.996 106.98,7.692 C107.388,8.388 107.592,9.224 107.592,10.2 L107.592,17.424 L103.92,17.424 L103.92,10.608 C103.92,10.024 103.74,9.568 103.38,9.24 C103.02,8.912 102.572,8.748 102.036,8.748 C101.676,8.748 101.35,8.822 101.058,8.97 C100.766,9.118 100.538,9.33 100.374,9.606 C100.21,9.882 100.128,10.216 100.128,10.608 L100.128,17.424 L96.456,17.424 L96.456,10.608 C96.456,10.024 96.276,9.568 95.916,9.24 C95.556,8.912 95.108,8.748 94.572,8.748 C94.204,8.748 93.876,8.822 93.588,8.97 C93.3,9.118 93.074,9.33 92.91,9.606 C92.746,9.882 92.664,10.216 92.664,10.608 L92.664,17.424 L88.992,17.424 L88.992,5.76 L92.664,5.76 L92.66335,6.62566314 C92.908739,6.41076969 93.1809557,6.22421531 93.48,6.066 C94.168,5.702 94.944,5.52 95.808,5.52 C96.616,5.52 97.346,5.704 97.998,6.072 C98.4717041,6.33936672 98.8746749,6.68380107 99.2069124,7.10530302 C99.5612068,6.70153884 99.9828257,6.36889114 100.47,6.108 C101.202,5.716 102.024,5.52 102.936,5.52 Z M6.06,8.832 C5.548,8.832 5.094,8.95 4.698,9.186 C4.302,9.422 3.996,9.746 3.78,10.158 C3.564,10.57 3.456,11.048 3.456,11.592 C3.456,12.136 3.566,12.616 3.786,13.032 C4.006,13.448 4.314,13.772 4.71,14.004 C5.106,14.236 5.56,14.352 6.072,14.352 C6.584,14.352 7.036,14.234 7.428,13.998 C7.82,13.762 8.128,13.436 8.352,13.02 C8.576,12.604 8.688,12.128 8.688,11.592 C8.688,11.056 8.576,10.58 8.352,10.164 C8.128,9.748 7.818,9.422 7.422,9.186 C7.026,8.95 6.572,8.832 6.06,8.832 Z M143.202,8.832 C142.686,8.832 142.232312,8.95075 141.840937,9.18825 C141.449562,9.42575 141.139562,9.7519375 140.910937,10.1668125 C140.682312,10.5816875 140.568,11.05675 140.568,11.592 C140.568,12.128 140.679687,12.6038125 140.903062,13.0194375 C141.126437,13.4350625 141.437375,13.7610625 141.835875,13.9974375 C142.234375,14.2338125 142.68375,14.352 143.184,14.352 C143.712,14.352 144.169562,14.2353125 144.556687,14.0019375 C144.943812,13.7685625 145.247812,13.4445625 145.468687,13.0299375 C145.689562,12.6153125 145.8,12.136 145.8,11.592 C145.8,11.045 145.691187,10.566625 145.473562,10.156875 C145.255937,9.747125 144.951937,9.423875 144.561562,9.187125 C144.171187,8.950375 143.718,8.832 143.202,8.832 Z M19.884,8.832 C19.372,8.832 18.916,8.95 18.516,9.186 C18.116,9.422 17.804,9.746 17.58,10.158 C17.356,10.57 17.244,11.048 17.244,11.592 C17.244,12.128 17.356,12.606 17.58,13.026 C17.804,13.446 18.116,13.772 18.516,14.004 C18.916,14.236 19.372,14.352 19.884,14.352 C20.412,14.352 20.876,14.236 21.276,14.004 C21.676,13.772 21.986,13.446 22.206,13.026 C22.426,12.606 22.536,12.124 22.536,11.58 C22.536,11.036 22.422,10.558 22.194,10.146 C21.966,9.734 21.656,9.412 21.264,9.18 C20.872,8.948 20.412,8.832 19.884,8.832 Z M33.696,8.832 C33.184,8.832 32.728,8.95 32.328,9.186 C31.928,9.422 31.616,9.746 31.392,10.158 C31.168,10.57 31.056,11.048 31.056,11.592 C31.056,12.128 31.168,12.606 31.392,13.026 C31.616,13.446 31.928,13.772 32.328,14.004 C32.728,14.236 33.184,14.352 33.696,14.352 C34.224,14.352 34.688,14.236 35.088,14.004 C35.488,13.772 35.798,13.446 36.018,13.026 C36.238,12.606 36.348,12.124 36.348,11.58 C36.348,11.036 36.234,10.558 36.006,10.146 C35.778,9.734 35.468,9.412 35.076,9.18 C34.684,8.948 34.224,8.832 33.696,8.832 Z M115.548,8.832 C115.036,8.832 114.58,8.95 114.18,9.186 C113.78,9.422 113.468,9.746 113.244,10.158 C113.02,10.57 112.908,11.048 112.908,11.592 C112.908,12.128 113.02,12.606 113.244,13.026 C113.468,13.446 113.78,13.772 114.18,14.004 C114.58,14.236 115.036,14.352 115.548,14.352 C116.076,14.352 116.54,14.236 116.94,14.004 C117.34,13.772 117.65,13.446 117.87,13.026 C118.09,12.606 118.2,12.124 118.2,11.58 C118.2,11.036 118.086,10.558 117.858,10.146 C117.63,9.734 117.32,9.412 116.928,9.18 C116.536,8.948 116.076,8.832 115.548,8.832 Z M80.46,8.748 C79.956,8.748 79.514,8.86 79.134,9.084 C78.754,9.308 78.46,9.612 78.252,9.996 C78.044,10.38 77.94,10.808 77.94,11.28 C77.94,11.736 78.044,12.158 78.252,12.546 C78.46,12.934 78.752,13.242 79.128,13.47 C79.504,13.698 79.944,13.812 80.448,13.812 C80.96,13.812 81.404,13.7 81.78,13.476 C82.156,13.252 82.446,12.95 82.65,12.57 C82.854,12.19 82.956,11.76 82.956,11.28 C82.956,10.8 82.854,10.37 82.65,9.99 C82.446,9.61 82.158,9.308 81.786,9.084 C81.414,8.86 80.972,8.748 80.46,8.748 Z M56.832,0.12 C57.416,0.12 57.892,0.314 58.26,0.702 C58.628,1.09 58.812,1.568 58.812,2.136 C58.812,2.704 58.628,3.182 58.26,3.57 C57.892,3.958 57.416,4.152 56.832,4.152 C56.264,4.152 55.792,3.958 55.416,3.57 C55.04,3.182 54.852,2.704 54.852,2.136 C54.852,1.568 55.04,1.09 55.416,0.702 C55.792,0.314 56.264,0.12 56.832,0.12 Z" stroke="none" style="fill: rgb(10, 10, 10) !important; stroke: none !important;"/><path class="fill-current" d="M129.36,5.496 C130.576,5.496 131.664,5.762 132.624,6.294 C133.584,6.826 134.344,7.55 134.904,8.466 C135.464,9.382 135.744,10.416 135.744,11.568 C135.744,12.72 135.466,13.76 134.91,14.688 C134.354,15.616 133.596,16.348 132.636,16.884 C131.676,17.42 130.588,17.688 129.372,17.688 C128.164,17.688 127.078,17.42 126.114,16.884 C125.15,16.348 124.388,15.616 123.828,14.688 C123.268,13.76 122.988,12.72 122.988,11.568 C122.988,10.416 123.266,9.384 123.822,8.472 C124.378,7.56 125.138,6.836 126.102,6.3 C127.066,5.764 128.152,5.496 129.36,5.496 Z M129.36,8.832 C128.848,8.832 128.392,8.95 127.992,9.186 C127.592,9.422 127.28,9.746 127.056,10.158 C126.832,10.57 126.72,11.048 126.72,11.592 C126.72,12.128 126.832,12.606 127.056,13.026 C127.28,13.446 127.592,13.772 127.992,14.004 C128.392,14.236 128.848,14.352 129.36,14.352 C129.888,14.352 130.352,14.236 130.752,14.004 C131.152,13.772 131.462,13.446 131.682,13.026 C131.902,12.606 132.012,12.124 132.012,11.58 C132.012,11.036 131.898,10.558 131.67,10.146 C131.442,9.734 131.132,9.412 130.74,9.18 C130.348,8.948 129.888,8.832 129.36,8.832 Z" stroke="none" style="fill: rgb(10, 10, 10) !important; stroke: none !important;"/><path class="fill-current opacity-0" d="M134.075413,7.06206092 L135.332587,9.78593908 C134.068052,10.3695706 132.840927,10.8723924 131.650958,11.2939012 L131.274,11.424 L131.650958,11.5540988 C132.670931,11.9153921 133.718203,12.3364255 134.792933,12.8168821 L135.332587,13.0620609 L134.075413,15.7859391 C130.097878,13.9501539 126.600526,13.0045442 123.593447,12.9289305 L123.204,12.924 L123.204,9.924 C126.168428,9.924 129.623567,9.05488129 133.559328,7.29646456 L134.075413,7.06206092 Z" stroke="none" style="fill: rgb(10, 10, 10) !important; stroke: none !important; opacity: 0 !important;"/><path class="fill-current text-primary" d="M132.03318,19.0823592 L133.37482,21.7656408 C129.83889,23.533606 126.277314,24.424 122.704,24.424 C119.300844,24.424 115.908334,23.6163864 112.538485,22.012236 L112.03318,21.7656408 L113.37482,19.0823592 C116.505557,20.6477273 119.610647,21.424 122.704,21.424 C125.634545,21.424 128.575624,20.7272899 131.539064,19.3229669 L132.03318,19.0823592 Z" stroke="none" style="fill: rgb(6, 127, 84) !important; stroke: none !important;"/></svg>