<svg width="128" height="128" viewBox="0 0 128 128" fill="none" xmlns="http://www.w3.org/2000/svg">
<g clip-path="url(#clip0_240_7050)">
<path fill-rule="evenodd" clip-rule="evenodd" d="M0 64C0 99.2899 28.7108 128 64 128C99.2899 128 128 99.2899 128 64C128.007 57.0235 126.871 50.0929 124.639 43.4838C122.864 38.2427 117.181 35.4355 111.938 37.204C106.698 38.9775 103.888 44.6622 105.659 49.9034C107.19 54.4254 107.965 59.1682 107.965 64C107.965 88.2418 88.2428 107.965 64 107.965C39.7574 107.965 20.036 88.2418 20.036 64C20.036 39.7582 39.7579 20.0351 64 20.0351C69.5333 20.0351 74.0172 15.551 74.0172 10.0183C74.0172 4.48459 69.5323 0 64 0C28.7108 0 0 28.7101 0 64ZM102.894 13.4224C108.678 13.4224 113.366 18.1102 113.366 23.894C113.366 29.6784 108.678 34.3675 102.894 34.3675C97.11 34.3675 92.4218 29.6784 92.4218 23.894C92.4218 18.1102 97.11 13.4224 102.894 13.4224ZM104.836 25.8374C105.352 25.3225 105.641 24.6239 105.642 23.895C105.641 23.1665 105.352 22.4669 104.836 21.9516C104.321 21.4363 103.622 21.1464 102.893 21.1455C102.164 21.1464 101.466 21.4363 100.951 21.9516C100.436 22.4669 100.146 23.1656 100.145 23.894C100.146 24.6229 100.435 25.3225 100.951 25.8374C101.466 26.3533 102.164 26.6426 102.893 26.6435C103.622 26.6426 104.321 26.3533 104.836 25.8374Z" fill="black"/>
</g>
<defs>
<clipPath id="clip0_240_7050">
<rect width="128" height="128" fill="white"/>
</clipPath>
</defs>
</svg>
