<?xml version="1.0" encoding="UTF-8"?>
<svg width="92px" height="24px" viewBox="0 0 92 24" version="1.1" xmlns="http://www.w3.org/2000/svg" xmlns:xlink="http://www.w3.org/1999/xlink">
    <!-- Generator: Sketch 53.2 (72643) - https://sketchapp.com -->
    <title>botstar-logo-horizontal-wordmark</title>
    <desc>Created with Sketch.</desc>
    <g id="botstar-logo-horizontal-wordmark" stroke="none" stroke-width="1" fill="none" fill-rule="evenodd">
        <g id="Combined-Shape-3" transform="translate(0.000000, 2.000000)" fill="#000000">
            <path d="M6.94826029,17.7881555 L4.13629577,19.9322697 C4.07503084,19.978984 4.00011989,20.0042856 3.92307692,20.0042856 C3.7288669,20.0042856 3.57142857,19.8468473 3.57142857,19.6526373 L3.57142857,16.1052367 C1.39017262,14.4376704 0,11.9149607 0,9.09168384 C0,4.07048551 4.39720335,6.71933917e-14 9.82142857,6.57252031e-14 L15.1785714,6.57252031e-14 C20.6027967,6.42570144e-14 25,4.07048551 25,9.09168384 C25,14.1128822 20.6027967,18.1833677 15.1785714,18.1833677 L9.82142857,18.1833677 C8.82179353,18.1833677 7.85703934,18.0451213 6.94826029,17.7881555 Z M7.08791209,5.4550103 C5.14581187,5.4550103 3.57142857,7.0293936 3.57142857,8.97149382 L3.57142857,9.21187386 C3.57142857,11.1539741 5.14581187,12.7283574 7.08791209,12.7283574 L17.9120879,12.7283574 C19.8541881,12.7283574 21.4285714,11.1539741 21.4285714,9.21187386 L21.4285714,8.97149382 C21.4285714,7.0293936 19.8541881,5.4550103 17.9120879,5.4550103 L7.08791209,5.4550103 Z M17.2458112,10.9182268 C16.2275362,10.9182268 15.4020612,10.1041297 15.4020612,9.09989007 C15.4020612,8.09565041 16.2275362,7.28155331 17.2458112,7.28155331 C18.2640862,7.28155331 19.0895612,8.09565041 19.0895612,9.09989007 C19.0895612,10.1041297 18.2640862,10.9182268 17.2458112,10.9182268 Z M7.75627162,10.9134982 C6.73799661,10.9134982 5.91252162,10.0994011 5.91252162,9.09516141 C5.91252162,8.09092174 6.73799661,7.27682464 7.75627162,7.27682464 C8.77454663,7.27682464 9.60002162,8.09092174 9.60002162,9.09516141 C9.60002162,10.0994011 8.77454663,10.9134982 7.75627162,10.9134982 Z" id="Combined-Shape"></path>
        </g>
        <path d="M32.4157868,16.7386838 L36.0388814,16.7386838 C36.674738,16.7386838 37.2625834,16.5678177 37.6232534,16.2319775 C37.9827525,15.8961373 38.1513774,15.3576146 38.1513774,14.7637077 C38.1513774,14.2240067 37.9839235,13.8481013 37.6279374,13.4886934 C37.2707804,13.1292855 36.680593,12.7887317 36.0388814,12.7887317 L32.4157868,12.7887317 L32.4157868,16.7386838 Z M32.4157868,10.966946 L36.0388814,10.966946 C36.6220427,10.966946 37.0740513,10.6770629 37.4089592,10.3506498 C37.7426961,10.0242367 37.8504287,9.66365037 37.8504287,9.14398187 C37.8504287,8.61724304 37.7426961,8.1270342 37.4089592,7.79826432 C37.0740513,7.46713768 36.6150167,7.30334194 36.0306843,7.30334194 L32.4157868,7.32101773 L32.4157868,10.966946 Z M30,18.8656716 L30,5.19402985 L36.5143101,5.19402985 C37.6970268,5.19402985 38.6232931,5.52397811 39.2954509,6.18387463 C39.9687798,6.84377115 40.2650445,7.68867437 40.2650445,8.68794624 C40.2650445,9.51399527 40.0811964,10.1903892 39.6350429,10.7501229 C39.1888893,11.3110349 38.6396872,11.6598373 37.9874365,11.8000654 C38.7017506,11.9131905 39.308332,12.2938094 39.8083519,12.9383868 C40.3072007,13.5853211 40.5671642,14.2346121 40.5671642,15.0677315 C40.5671642,16.1530256 40.2170332,17.1299081 39.5355073,17.8157291 C38.8539814,18.5027286 37.906637,18.8456391 36.6934741,18.8456391 L30,18.8656716 Z M51.4925373,10.4603819 L51.4925373,8.59240554 L53.1080345,8.59240554 L53.1080345,5.79104478 L55.2604399,5.79104478 L55.2604399,8.59240554 L56.875249,8.59240554 L56.875249,10.4603819 L55.2604399,10.4603819 L55.2604399,15.7527802 C55.2604399,16.1017429 55.4024223,16.4688177 55.5682673,16.6861647 C55.7329191,16.9047191 56.0658022,16.9276613 56.3628914,16.9276613 C56.5549853,16.9276613 56.7399203,16.8926443 56.9188897,16.8226103 C57.096666,16.7513688 57.2291034,16.6704674 57.3150087,16.5750762 L57.8208955,18.2027634 C57.3782445,18.6314199 56.6516287,18.8656716 55.7520092,18.8656716 C54.9323293,18.8656716 54.2708218,18.6253825 53.8401021,18.1858587 C53.4117686,17.7463348 53.1080345,17.2005525 53.1080345,16.374634 L53.1080345,10.4603819 L51.4925373,10.4603819 Z M59.7731036,14.8199817 C60.2802309,15.357326 60.9495332,15.9468079 61.6714853,16.2897184 C62.3934373,16.632629 63.0675835,16.803495 63.9327521,16.803495 C64.8237465,16.803495 65.4729164,16.6243803 65.9178267,16.2637939 C66.3639108,15.904386 66.5869529,15.4778101 66.5869529,14.9852444 C66.5869529,14.6871126 66.4977361,14.4278676 66.3181285,14.2075093 C66.1396948,13.987151 65.9002181,13.8068578 65.6008721,13.6678082 C65.3015261,13.5287586 64.9575718,13.405028 64.569009,13.2989732 C64.1816201,13.1929184 63.9136452,13.0809716 63.4886913,12.9643114 C63.0625636,12.8476511 62.6317402,12.7298124 62.197395,12.609617 C61.761876,12.4905999 61.351009,12.3326961 60.964794,12.1359055 C60.5762312,11.939115 60.2334507,11.7093296 59.9352787,11.4477277 C59.6359327,11.1861259 59.396456,10.8526425 59.2180223,10.4449207 C59.0384147,10.0383773 58.9268937,9.5729146 58.9268937,9.05088932 C58.9268937,7.94909781 59.3999777,7.03113462 60.3003634,6.29582136 C61.201923,5.56168648 62.3711331,5.19402985 63.8079937,5.19402985 C65.87172,5.19402985 67.4823186,5.79736381 68.7630498,7.01699398 L67.5199302,8.63519139 C67.0186724,8.13673384 66.4105427,7.879573 65.7355469,7.62504149 C65.061725,7.36933159 64.3409469,7.2361739 63.617821,7.2361739 C62.9346078,7.2361739 62.3828721,7.38700739 61.9696573,7.68867437 C61.5552686,7.99151973 61.3498351,8.39217119 61.3498351,8.89298551 C61.3498351,9.15340896 61.4367041,9.38319435 61.6116161,9.58116331 C61.7877019,9.77913226 62.023657,9.94174962 62.321829,10.0690154 C62.6200011,10.1951027 62.9639555,10.3129414 63.3513444,10.421353 C63.7399072,10.5297646 64.0090559,10.6440681 64.4375315,10.7642635 C64.8660071,10.8844589 65.2956566,11.0046544 65.7241322,11.1236714 C66.1537817,11.2438669 66.5646487,11.4076626 66.959081,11.6127019 C67.3523395,11.8200979 67.6998156,12.058132 68.0026832,12.329161 C68.304377,12.6001899 68.5438538,12.9431004 68.7222874,13.3590709 C68.8983733,13.7750414 68.9253731,14.2346121 68.9253731,14.7637077 C68.9253731,15.3234414 68.8842864,15.8560722 68.6788529,16.3380323 C68.4734194,16.8199924 68.1658561,17.2512819 67.7585108,17.6295441 C67.3499916,18.0101629 66.9470176,18.3071164 66.2720218,18.5227611 C65.5958521,18.7372275 64.7952484,18.8656716 63.9206886,18.8656716 C61.6362681,18.8656716 59.8638269,17.9810961 58.5373134,16.5870647 L59.7731036,14.8199817 Z M68.9850746,10.4603819 L68.9850746,8.59240554 L70.579691,8.59240554 L70.579691,5.79104478 L72.7340942,5.79104478 L72.7340942,8.59240554 L74.3318701,8.59240554 L74.3318701,10.4605544 L72.7340942,10.4603819 L72.7340942,15.7527802 C72.7340942,16.1017429 72.8761296,16.4688177 73.040843,16.6861647 C73.20675,16.9047191 73.4979823,16.9276613 73.7951825,16.9276613 C73.9873481,16.9276613 74.1723523,16.8926443 74.3513885,16.8226103 C74.5292312,16.7513688 74.6617181,16.6704674 74.7476555,16.5750762 L75.2537313,18.2027634 C74.810915,18.6314199 74.0947699,18.8656716 73.1948142,18.8656716 C72.3748281,18.8656716 71.7025644,18.5319923 71.2728774,18.0924685 C70.8419967,17.6529446 70.579691,16.8890218 70.579691,16.0643109 L70.579691,10.4603819 L68.9850746,10.4603819 Z M85.641791,18.8656716 L85.641791,8.59701493 L87.8244138,8.59701493 L87.8244138,10.1527623 C88.3613027,9.68084823 88.8099194,9.36583654 89.4000135,9.05806651 C89.9901076,8.75150341 90.6080136,8.59701493 91.2537313,8.59701493 L91.2537313,10.6862303 C91.0663039,10.6464013 90.8305081,10.6270902 90.5451347,10.6270902 C90.0735431,10.6270902 89.570512,10.7562329 89.0360415,11.0145184 C88.5003618,11.2728038 88.0456991,11.68075 87.8244138,12.0199005 L87.8244138,18.8656716 L85.641791,18.8656716 Z M78.376604,16.8986822 C78.7640776,17.2146635 79.2555952,17.3720488 79.8523525,17.3720488 C80.3271273,17.3720488 80.7684168,17.2860922 81.1774168,17.114179 C81.5864168,16.9410552 81.9081156,16.6952919 82.1425132,16.3768893 L82.1317501,14.8224065 C81.8985483,14.5040038 81.5864168,14.3490398 81.1774168,14.1771266 C80.7684168,14.0052134 80.3271273,13.9180461 79.8523525,13.9180461 C79.2555952,13.9180461 78.7640776,14.0766421 78.376604,14.3926234 C77.9915221,14.7073941 77.7977853,15.1287025 77.7977853,15.6553381 C77.7977853,16.1686564 77.9915221,16.5839115 78.376604,16.8986822 Z M75.6716418,15.5984815 C75.6716418,15.0589787 75.8193118,14.5943063 76.0158082,14.1779116 C76.2123046,13.7603099 76.471918,13.428401 76.7958393,13.182185 C77.1197607,12.935969 77.4734542,12.7501 77.8545381,12.625785 C78.2380038,12.5002631 78.6309966,12.4375022 79.0347073,12.4375022 C79.6251773,12.4375022 80.1517809,12.4924292 80.6163749,12.6240721 C81.2209147,12.7953687 81.7204613,13.0965589 82.1191053,13.5756479 L82.1191053,12.3312914 C82.1191053,11.7773053 81.9237998,11.2824594 81.5129437,10.960206 C81.1032785,10.6379527 80.5614248,10.4762226 79.8885735,10.4762226 C78.8191567,10.4762226 78.024835,10.6029514 77.2066954,11.3971188 L76.2861396,10.1527623 C77.3734196,9.10030945 78.6869683,8.59701493 80.2768027,8.59701493 C80.8317562,8.59701493 81.2926295,8.71529517 81.7535029,8.84323095 C82.216758,8.96995979 82.6347594,9.16669123 83.008698,9.43221832 C83.3838275,9.69653846 83.6779766,10.0622417 83.8911455,10.5305349 C84.1043143,10.9976212 84.2686567,11.392291 84.2686567,12.0199005 L84.2686567,18.8656716 L82.1191053,18.8656716 L82.1191053,17.6201082 C81.7570755,18.0401238 81.3200199,18.2766843 80.7865025,18.5023823 C80.252985,18.7292873 79.68255,18.8656716 79.048998,18.8656716 C78.6500508,18.8656716 78.2451491,18.7739441 77.8604925,18.6363528 C77.4746451,18.4987615 77.1197607,18.2996162 76.7958393,18.0401238 C76.471918,17.7806314 76.2123046,17.4402739 76.0158082,17.0202584 C75.8193118,16.6002428 75.6716418,16.1174663 75.6716418,15.5984815 Z M46.4776119,18.8656716 C43.6420007,18.8656716 41.3432836,16.5669545 41.3432836,13.7313433 C41.3432836,10.895732 43.6420007,8.59701493 46.4776119,8.59701493 C49.3132232,8.59701493 51.6119403,10.895732 51.6119403,13.7313433 C51.6119403,16.5669545 49.3132232,18.8656716 46.4776119,18.8656716 Z M46.5078139,16.8723442 C48.225942,16.8723442 49.6186128,15.4661522 49.6186128,13.7313433 C49.6186128,12.9247516 49.3175531,12.1891984 48.8226985,11.6329902 C48.2532251,10.9929116 47.4271059,10.5903424 46.5078139,10.5903424 C44.7896858,10.5903424 43.3970149,11.9965343 43.3970149,13.7313433 C43.3970149,14.7045665 43.8353135,15.574368 44.5234878,16.1504955 C45.2116621,16.7266231 45.7535511,16.8723442 46.5078139,16.8723442 Z" id="Combined-Shape" fill="#000000"></path>
    </g>
</svg>