<?xml version="1.0" encoding="UTF-8"?> <svg xmlns="http://www.w3.org/2000/svg" width="129" height="38" viewBox="0 0 129 38" fill="none"><g id="Logo" clip-path="url(#clip0_3002_1803)"><path id="Vector" d="M54.447 23.0795H51.7506V19.9307H54.447C55.4476 19.9307 56.1061 20.5965 56.1061 21.4977C56.1061 22.399 55.4476 23.0795 54.447 23.0795ZM55.8486 15.9099C55.8486 16.7855 55.2416 17.4071 54.2852 17.4071H51.7543V14.4128H54.2852C55.2379 14.4128 55.8486 15.0271 55.8486 15.9099ZM57.2133 18.4592C58.1992 17.7676 58.7952 16.642 58.7952 15.4317C58.7952 13.3644 56.9963 11.8193 54.5721 11.8193H48.7673V25.8606H54.734C57.1729 25.8606 59.1557 24.0617 59.1557 21.8068C59.1557 20.3206 58.453 19.103 57.2133 18.4519V18.4592Z" fill="#000000"></path><path id="Vector_2" d="M66.0861 23.4179C64.3977 23.4179 63.2021 22.2039 63.2021 20.4493C63.2021 18.6946 64.3977 17.4806 66.0861 17.4806C67.7746 17.4806 68.9739 18.6946 68.9739 20.4493C68.9739 22.2039 67.7746 23.4179 66.0861 23.4179ZM66.0861 26.1768C69.4263 26.1768 71.9425 23.7159 71.9425 20.4493C71.9425 17.1827 69.4263 14.7253 66.0861 14.7253C62.746 14.7253 60.2335 17.1643 60.2335 20.4493C60.2335 23.7342 62.7349 26.1768 66.0861 26.1768Z" fill="#000000"></path><path id="Vector_3" d="M78.4867 26.1732C81.551 26.1732 83.5669 24.2125 83.5669 21.2881V15.0344H80.6387V20.957C80.6387 22.4762 79.8441 23.4143 78.4867 23.4143C77.1293 23.4143 76.3164 22.4946 76.3164 20.957V15.0344H73.3882V21.2881C73.3882 24.2125 75.4225 26.1732 78.4867 26.1732Z" fill="#000000"></path><path id="Vector_4" d="M91.9026 14.7769C90.4275 14.7769 89.1326 15.3949 88.316 16.3734L87.7458 15.0344H85.7373V25.8679H88.6654V20.1734C88.6654 18.4297 89.5851 17.3482 91.097 17.3482C92.3624 17.3482 92.9878 18.1354 92.9878 19.7761V25.8679H95.916V19.3015C95.916 16.561 94.3783 14.7769 91.9063 14.7769" fill="#000000"></path><path id="Vector_5" d="M103.13 26.1771C105.966 26.1771 108.18 24.3231 108.692 21.6046H105.742C105.245 22.7596 104.311 23.4218 103.126 23.4218C101.559 23.4218 100.345 22.1159 100.345 20.4348C100.345 18.7536 101.537 17.4845 103.126 17.4845C104.292 17.4845 105.271 18.1099 105.745 19.173H108.655C108.125 16.5097 105.951 14.7292 103.144 14.7292C99.8558 14.7292 97.3764 17.1718 97.3764 20.4201C97.3764 23.6683 99.8668 26.1807 103.126 26.1807" fill="#000000"></path><path id="Vector_6" d="M115.232 17.2268C116.546 17.2268 117.498 17.9441 117.914 19.2684H112.665C113.003 17.9883 113.93 17.2268 115.232 17.2268ZM120.842 20.4088C120.842 17.2893 118.558 14.7253 115.232 14.7253C111.907 14.7253 109.615 17.1863 109.615 20.4493C109.615 23.7122 112.036 26.1768 115.232 26.1768C117.745 26.1768 119.823 24.6686 120.607 22.3069H117.531C117.083 23.0831 116.251 23.565 115.232 23.565C113.812 23.565 112.841 22.7521 112.587 21.2733H120.783C120.82 20.99 120.839 20.7031 120.839 20.4125L120.842 20.4088Z" fill="#000000"></path><path id="Vector_7" d="M127.96 14.9756C126.57 14.9756 125.591 15.4023 124.819 16.3624L124.3 15.0345H122.42V25.868H125.349V20.2397C125.349 18.4666 126 17.7346 127.651 17.7346H128.92V14.9719H127.957L127.96 14.9756Z" fill="#000000"></path><path id="Vector_8" fill-rule="evenodd" clip-rule="evenodd" d="M19.298 19.7247C22.3107 23.3224 22.903 32.2798 21.0784 37.9927C20.7032 38 20.3206 38.0037 19.9307 38.0037C5.24201 38 0 33.0597 0 18.9927C0 14.078 0.640077 10.278 2.10048 7.41609C3.62711 7.32413 5.15741 7.2763 6.68771 7.27998C9.04201 7.2763 11.3926 7.38298 13.7359 7.60738C15.5421 7.78027 17.6683 8.21803 19.2428 9.13768C20.3721 9.79983 21.2329 10.8188 21.6964 12.0438C22.5131 14.1958 22.0091 16.642 20.4862 18.3416L19.2943 19.7247H19.298Z" fill="#000000"></path><path id="Vector_9" fill-rule="evenodd" clip-rule="evenodd" d="M25.1359 37.7499C25.9894 33.479 27.7955 10.9696 18.0472 0.0294288C18.6579 0.0110358 19.2833 0 19.9307 0C34.6745 0 39.8687 4.92198 39.8687 18.9926C39.8687 31.2608 35.9179 36.5874 25.1322 37.7499" fill="#1AAC78"></path><path id="Vector_10" fill-rule="evenodd" clip-rule="evenodd" d="M26.6147 12.1137C28.031 12.5109 28.9874 13.9493 28.7557 15.3766L28.1597 19.0331L30.1204 23.1899C30.9518 24.9189 31.8089 27.1334 31.9524 29.267C32.14 32.0075 31.5036 34.5715 30.2565 36.7235C27.7698 37.5255 24.7386 37.9264 21.0821 37.9963C22.9067 32.2834 22.3144 23.3297 19.3016 19.7284L20.4935 18.3452C22.0164 16.642 22.5204 14.1957 21.7038 12.0474C21.2366 10.8225 20.3795 9.80349 19.2501 9.14134C17.6757 8.22168 15.5495 7.78393 13.7433 7.61104C11.4 7.39032 9.04936 7.27996 6.69506 7.28364C5.16476 7.28364 3.63446 7.3241 2.10783 7.41975C4.81897 2.08577 10.3737 0 19.9307 0C20.2875 0 20.637 0.00367861 20.9791 0.0110358C23.9293 2.15198 26.0041 5.49216 26.3756 9.24802L26.611 12.1137H26.6147Z" fill="#2A2964"></path><path id="Vector_11" fill-rule="evenodd" clip-rule="evenodd" d="M6.63988 18.7499C9.19651 21.9098 14.6813 21.9172 11.4993 17.9848L11.3043 17.7456C8.24743 16.7083 4.99922 16.7193 1.9938 17.7972L1.75101 18.1209C-1.26913 22.1379 4.212 21.9797 6.63988 18.7499Z" fill="#2A2964"></path><path id="Vector_12" d="M17.2894 28.5718C16.3073 28.9286 15.2699 29.234 14.1847 29.4841C12.6213 29.8483 10.9843 30.1021 9.31423 30.2345C6.8091 30.4332 4.27454 30.367 1.84666 30.0469C1.55605 29.4142 1.30223 28.7337 1.08519 28.0127C1.38316 28.0605 1.6848 28.1046 1.98645 28.1451C4.31868 28.4578 6.7576 28.5277 9.17077 28.3364C10.7783 28.2076 12.327 27.9722 13.769 27.6338C14.8469 27.3836 15.8769 27.0746 16.8407 26.7178C16.7671 26.5007 16.6898 26.2911 16.6052 26.0924C16.4139 25.6326 16.1895 25.2096 15.9394 24.838L17.4918 23.7749C17.8045 24.2458 18.0877 24.7792 18.3305 25.3604C18.5733 25.9416 18.7719 26.5522 18.9264 27.1776C19.0773 27.803 19.1839 28.4651 19.2465 29.1383C19.3053 29.7968 19.32 30.4589 19.2833 31.11L17.4108 31.0107C17.4403 30.4516 17.4292 29.8777 17.3777 29.3075C17.3557 29.0647 17.3262 28.8183 17.2858 28.5681" fill="#2A2964"></path><path id="Vector_13" fill-rule="evenodd" clip-rule="evenodd" d="M0.047821 16.7707C3.80736 15.4059 7.86118 15.2404 11.6943 16.2704C11.0984 15.7039 10.8629 14.821 11.1609 14.0007C11.5619 12.8971 12.7868 12.3306 13.8904 12.7316C14.9167 13.1068 15.4796 14.192 15.2294 15.2293C15.1227 14.8136 14.8174 14.4568 14.3833 14.2986C13.6844 14.0448 12.9082 14.4053 12.6507 15.1043C12.3969 15.8032 12.7574 16.5794 13.4563 16.8332C14.365 17.1716 15.2515 17.58 16.116 18.0582L17.7125 16.2042C18.4114 15.439 18.5954 14.3722 18.268 13.5151C18.0987 13.0663 17.7861 12.6727 17.3373 12.4078C16.1859 11.7347 14.3245 11.444 13.2614 11.341C9.0788 10.9438 4.91829 10.9254 0.739399 11.2822C0.364181 12.9044 0.139786 14.729 0.0514997 16.7707" fill="#2A2964"></path></g><defs><clipPath id="clip0_3002_1803"><rect width="128.924" height="38" fill="#000000"></rect></clipPath></defs></svg> 