<svg width="128" height="128" viewBox="0 0 128 128" fill="none" xmlns="http://www.w3.org/2000/svg">
<g clip-path="url(#clip0_240_7118)">
<path d="M101.497 29.44C101.497 45.2949 86.8649 64 64.7266 64H43.4018L42.355 70.6048L37.3801 102.4H10.8784L26.8215 0H69.7584C84.2167 0 95.5917 8.05831 99.7815 19.2569C100.99 22.5128 101.572 25.9679 101.497 29.44Z" fill="#002991"/>
<path d="M116.771 58.8799C115.357 67.4742 110.93 75.2846 104.283 80.9131C97.6361 86.5417 89.203 89.621 80.4932 89.5999H65.685L59.5211 128H33.1616L37.3799 102.4L42.3577 70.6047L43.4016 63.9999H64.7264C86.8363 63.9999 101.497 45.2949 101.497 29.4399C112.377 35.0549 118.72 46.4014 116.771 58.8799Z" fill="#60CDFF"/>
<path d="M101.497 29.4401C96.9343 27.0536 91.4019 25.6001 85.3802 25.6001H49.4264L43.4019 64.0001H64.7267C86.8365 64.0001 101.497 45.295 101.497 29.4401Z" fill="#008CFF"/>
</g>
<defs>
<clipPath id="clip0_240_7118">
<rect width="106.243" height="128" fill="white" transform="translate(10.8784)"/>
</clipPath>
</defs>
</svg>
