<svg width="128" height="128" viewBox="0 0 128 128" fill="none" xmlns="http://www.w3.org/2000/svg">
<g clip-path="url(#clip0_0_789)">
<path d="M36.4761 63.9068V16.6501H65.2127C74.9185 16.6501 81.3299 22.2651 81.3299 30.7849C81.3299 40.465 72.9825 47.8246 55.8967 53.4394C44.246 57.1151 39.0064 60.2149 37.0619 63.8985L36.4761 63.9068ZM36.4761 111.35V91.6003C36.4761 82.8857 43.8555 74.3658 54.1475 71.0713C63.2761 67.972 70.8424 64.8722 77.2538 61.586C85.7964 66.6249 91.0363 75.3312 91.0363 84.4353C91.0363 99.9249 76.2774 111.35 56.2791 111.35H36.4761ZM19 128H57.8331C87.3505 128 109.48 109.605 109.48 85.206C109.48 71.8424 102.687 59.8416 90.6455 52.0924C96.8616 45.8933 99.7741 38.7286 99.7741 30.0141C99.7741 12.0089 86.7645 0 67.1571 0H19V128Z" fill="#0B996E"/>
</g>
<defs>
<clipPath id="clip0_0_789">
<rect width="128" height="128" fill="white"/>
</clipPath>
</defs>
</svg>
