<svg width="128" height="128" viewBox="0 0 128 128" fill="none" xmlns="http://www.w3.org/2000/svg">
<g clip-path="url(#clip0_240_6843)">
<path d="M83.1713 20.7498C78.1776 27.4081 76.9722 29.6467 72.1507 29.6467H0V115.401H28.2978C34.6691 115.401 40.8682 112.301 44.8861 107.193C50.052 100.305 50.7408 98.296 55.7345 98.296H128V12.5417H99.53C93.1587 12.5417 86.9596 15.6413 83.1713 20.7498ZM105.557 76.1974H75.365C68.8215 76.1974 62.7946 78.9525 58.7767 84.2332C53.6108 91.1211 52.5776 93.1301 47.7561 93.1301H22.2709V51.9749H52.4628C59.0063 51.9749 65.0332 48.8754 69.0511 43.7669C74.217 37.1086 75.5946 35.0422 80.2439 35.0422H105.614V76.1974H105.557Z" fill="#010202"/>
</g>
<defs>
<clipPath id="clip0_240_6843">
<rect width="128" height="102.917" fill="white" transform="translate(0 12.5417)"/>
</clipPath>
</defs>
</svg>
