<svg version="1.1" id="Layer_1" xmlns:x="ns_extend;" xmlns:i="ns_ai;" xmlns:graph="ns_graphs;" xmlns="http://www.w3.org/2000/svg" xmlns:xlink="http://www.w3.org/1999/xlink" x="0px" y="0px" viewBox="0 0 265.3 72" style="enable-background:new 0 0 265.3 72;" xml:space="preserve">
 <style type="text/css">
  .st0{fill:#000000;}
 </style>
 <metadata>
  <sfw xmlns="ns_sfw;">
   <slices>
   </slices>
   <sliceSourceBounds bottomLeftOrigin="true" height="72" width="265.3" x="-9.7" y="-215.3">
   </sliceSourceBounds>
  </sfw>
 </metadata>
 <g id="Page-1">
  <g id="BP-Sage-Logo-Positive">
   <g id="BP-Logo-Positive">
    <g transform="translate(-0.150340, -0.150340)">
     <g id="Group_11" transform="translate(0.068705, 0.000000)">
      <path id="Path_12750" class="st0" d="M13.8,2.5c4.5,0,7.1,1.1,9,2.8c2.4,2,3.7,5,3.7,8.1c0,2.6-1.3,5.3-2.6,6.7
						c3.6,1.8,6,5.8,6,10.3c0,3.3-1.3,6.4-3.7,8.7c-2.2,2.2-5.3,3.6-10.5,3.6H0.1V2.5H13.8z M7.8,18h5.5c2.4,0,3.5-0.6,4.3-1.4
						c1.5-1.6,1.5-4.1,0-5.8c-0.8-0.9-1.9-1.4-4.3-1.4H7.8V18z M15.6,35.8c2.7,0,4.2-0.7,5.2-1.8c1.9-2.1,1.9-5.3,0-7.4
						c-1-1.1-2.5-1.8-5.2-1.8H7.8v10.9L15.6,35.8z">
      </path>
      <path id="Path_12751" class="st0" d="M49.3,21.4c-0.9-0.2-1.8-0.3-2.7-0.3c-3.3,0-5.9,2.4-6.8,4v17.5h-7.5V14.8h7.2v2.8
						c1.7-2.1,4.7-3.4,8.1-3.4c0.8,0,1.7,0.1,2.5,0.2L49.3,21.4z">
      </path>
      <path id="Path_12752" class="st0" d="M56.1,0.2c2.6,0.1,4.7,2.2,4.7,4.8S58.6,9.7,56,9.7c-2.6,0-4.7-2.2-4.7-4.8
						c0-1.3,0.5-2.5,1.4-3.4C53.6,0.6,54.9,0.1,56.1,0.2L56.1,0.2z M59.9,42.7h-7.5V14.8h7.5V42.7z">
      </path>
      <path id="Path_12753" class="st0" d="M91.8,41.2c0,5-0.9,8-2.5,10.4c-2.5,3.5-7,5.6-12.4,5.6c-5.5,0-10.6-2.5-13.4-5.8l4.7-4.9
						c1.5,1.6,4.1,4,8.7,4c2.4,0,4.4-0.7,5.7-2.2c1.1-1.3,1.7-3,1.7-6.6v-0.9c-2.1,1.7-4.8,2.6-7.5,2.5c-4,0-7.9-1.7-10.6-4.7
						c-2.3-2.7-3.5-6.2-3.5-9.8c0-8.2,6.1-14.6,13.7-14.6c3,0,5.9,1,8.2,2.8v-2.2h7.2L91.8,41.2z M84.3,24.6
						c-1.6-2.2-4.2-3.5-6.9-3.5c-4.4,0-7.2,3.6-7.2,7.6c0,4.4,3.2,7.6,7.4,7.6c2.7,0,5.2-1.3,6.7-3.5L84.3,24.6z">
      </path>
      <path id="Path_12754" class="st0" d="M103.2,42.7h-7.5V1.9h7.5v15c2.2-1.7,4.8-2.6,7.6-2.6c3.7,0,7.3,1.6,9.7,4.5
						c1.8,2.2,2.9,5,2.9,9.8v14.2h-7.5V27.9c0-2.8-0.6-4.2-1.7-5.2c-1.1-1.1-2.6-1.6-4.2-1.6c-3.2,0-5.8,2-6.8,3.5V42.7z">
      </path>
      <path id="Path_12755" class="st0" d="M145.5,14.8h7.2v2.2c2.3-1.9,5.2-2.9,8.2-2.8c7.6,0,13.7,6.3,13.7,14.6
						c0,3.6-1.2,7-3.5,9.8c-2.7,3-6.5,4.7-10.6,4.7c-2.7,0-5.3-0.9-7.5-2.5v15.8h-7.5V14.8z M152.9,32.9c1.5,2.2,4.1,3.5,6.7,3.5
						c4.2,0,7.4-3.2,7.4-7.6c0-4-2.8-7.6-7.2-7.6c-2.7,0-5.3,1.3-6.9,3.5L152.9,32.9z">
      </path>
      <path id="Path_12756" class="st0" d="M201.7,38.3c-2.7,3.2-7.1,5-11.4,5c-8.3,0-14.6-5.8-14.6-14.5c0-7.8,5.3-14.6,13.6-14.6
						c7.7,0,13.2,6.5,13.2,14.3c0,0.7-0.1,1.4-0.2,2.1h-19.3c0.4,3.9,3.6,6.6,7.5,6.6c3.2,0,5.7-1.8,7-3.2L201.7,38.3z M194.7,25.2
						c-0.3-2.8-2.7-4.9-5.5-4.9c-3.1,0-5.6,2.4-6,4.9H194.7z">
      </path>
      <path id="Path_12757" class="st0" d="M232.6,42.7h-7.2v-2.2c-2.2,1.9-4.9,2.9-7.8,2.8c-4,0-7.9-1.7-10.5-4.7
						c-2.3-2.7-3.6-6.2-3.6-9.8c0-8.2,6.1-14.6,13.7-14.6c3,0,5.9,1,8.2,2.8v-2.2h7.2V42.7z M225.1,24.6c-1.6-2.2-4.2-3.5-6.9-3.5
						c-4.4,0-7.2,3.6-7.2,7.6c0,4.4,3.2,7.6,7.4,7.6c2.7,0,5.2-1.3,6.7-3.5L225.1,24.6z">
      </path>
      <path id="Path_12758" class="st0" d="M254.7,21.4c-0.9-0.2-1.8-0.3-2.7-0.3c-3.3,0-5.9,2.4-6.8,4v17.5h-7.5V14.8h7.2v2.8
						c1.7-2.1,4.7-3.4,8.1-3.4c0.8,0,1.7,0.1,2.5,0.2L254.7,21.4z">
      </path>
      <rect id="Rectangle_5384" x="257.9" y="1.9" class="st0" width="7.5" height="40.8">
      </rect>
      <path id="Path_12759" class="st0" d="M141.9,21.2v-6.8h-6.6V1.9h-7.6v32.5c0,5.5,3.5,8.7,9,8.7c2.2,0,3.6-0.4,4.3-0.7v-6.3
						c-0.8,0.2-1.6,0.2-2.4,0.2c-2.2,0-3.3-0.8-3.3-3.3V21.2H141.9z">
      </path>
     </g>
     <g id="Group_18438" transform="translate(86.144707, 21.047572)">
      <path id="Path_14189" class="st0" d="M144.1,29c-1.2,0-2.3,0.4-3.1,1.2c-0.8,0.8-1.3,1.9-1.4,3v0.1c0,2.7,1.9,3.7,4.1,4.4
						c2,0.6,3,1.4,3,2.8c0,1.3-1,2.4-2.3,2.4h-0.1c-1.4,0-2.5-1-2.6-2.4v-0.1c0-0.9,0.4-1.1,0.4-1.5c0-0.2-0.1-0.5-0.2-0.7
						c-0.2-0.2-0.4-0.3-0.6-0.3c0,0-0.1,0-0.1,0c-0.7,0-1.4,1.1-1.4,2.6c0,2.4,2.1,4.2,4.6,4.2c2.4,0.1,4.4-1.8,4.5-4.2
						c0,0,0-0.1,0-0.1c0-2.7-1.9-3.7-4.1-4.4c-2-0.6-3-1.4-3-2.8c0-0.6,0.2-1.2,0.6-1.7c0.4-0.4,1-0.7,1.6-0.7h0.1
						c1.4-0.1,2.5,1,2.6,2.4v0c0,0.5,0.5,0.9,1,1c0.5,0,1-0.4,1-0.9c0,0,0-0.1,0-0.1C148.6,30.8,146.6,29,144.1,29 M154.3,44.7
						c1.1,0,2-0.4,2-1.1c0-0.5-0.4-0.9-0.9-0.9c-0.3,0-0.6,0.1-1.1,0.1c-1.5,0-2.6-1.3-2.6-2.7c-0.1-1.5,1.1-2.8,2.6-2.8h0
						c1.7,0,2.7,1.3,2.7,3.1v3.4c0,0.4,0.2,0.7,0.5,0.9c0.3,0.2,0.7,0.2,1,0c0.3-0.2,0.5-0.5,0.5-0.9v-3.5c0-2.8-1.9-4.9-4.7-4.9
						c-2.6,0-4.7,2.1-4.7,4.7C149.7,42.6,151.7,44.7,154.3,44.7 M164.6,51.1c1.2,0,2.3-0.4,3.1-1.2c0.8-0.8,1.3-1.9,1.4-3v-0.1
						c0-2.7-1.9-3.7-4.1-4.4c-2-0.6-3-1.4-3-2.8c0-1.3,1-2.4,2.3-2.4h0.1c1.4,0,2.6,1,2.6,2.4v0.1c0,0.9-0.4,1.1-0.4,1.5
						c0,0.5,0.4,0.9,0.9,0.9h0.1c0.7,0,1.5-1.1,1.5-2.6c0-2.4-2.1-4.2-4.6-4.2c-2.4-0.1-4.4,1.8-4.4,4.2v0.2c0,2.7,1.9,3.7,4.1,4.4
						c2,0.6,3,1.4,3,2.8c0,0.6-0.2,1.2-0.6,1.7s-1,0.7-1.6,0.7h-0.2c-0.7,0-1.3-0.2-1.8-0.6c-0.5-0.4-0.8-1-0.8-1.7c0,0,0-0.1,0-0.1
						c0-0.5-0.4-1-1-1h0c-0.5,0-1,0.4-1,0.9c0,0,0,0.1,0,0.1C160.1,49.4,162.1,51.1,164.6,51.1 M174.8,44.7c1.1,0,2.1-0.3,3.1-0.8
						c0.7-0.4,1-0.8,1-1.3c0-0.5-0.4-0.9-0.9-0.9c0,0-0.1,0-0.1,0c-0.7,0-1.3,1.1-3.1,1.1c-1.6,0-2.8-1.3-2.8-2.8v0
						c0-1.5,1.2-2.8,2.7-2.8h0c1.6,0,2.5,1.1,2.5,1.8c0,0.2-0.1,0.3-0.3,0.3h-2c-0.5,0-0.9,0.3-0.9,0.8l0,0c0,0.5,0.4,0.9,0.9,0.9
						h0.1h2.7c1,0,1.7-0.5,1.7-1.5c0-2.3-2-4.1-4.6-4.1c-2.6,0-4.7,2.1-4.7,4.7v0C170.1,42.7,172.2,44.8,174.8,44.7">
      </path>
      <path id="Path_14190" class="st0" d="M118.6,33.4h1.7v4.2h0.1c0.4-0.9,1.4-1.5,2.4-1.5c2.1,0,3.6,1.6,3.6,4.4s-1.5,4.4-3.6,4.4
						c-1,0-2-0.5-2.5-1.5h-0.1v1.3h-1.6L118.6,33.4z M122.5,43.5c1.5,0,2.3-1.3,2.3-3c0-1.7-0.8-3-2.3-3c-1.4,0-2.2,1.2-2.2,3
						C120.2,42.2,121,43.5,122.5,43.5L122.5,43.5z">
      </path>
      <path id="Path_14191" class="st0" d="M127.9,47.7l0.4-1.4c0.9,0.3,1.5,0.2,1.9-1l0.2-0.6l-3.1-8.6h1.8l2.2,6.6h0.1l2.2-6.6h1.8
						l-3.5,9.6c-0.5,1.3-1.4,2.1-2.7,2.1C128.6,47.9,128.2,47.9,127.9,47.7">
      </path>
     </g>
    </g>
   </g>
  </g>
 </g>
</svg>