<svg width="128" height="128" viewBox="0 0 128 128" fill="none" xmlns="http://www.w3.org/2000/svg">
<g clip-path="url(#clip0_411_5976)">
<path d="M63.3536 0.372274C98.7411 0.00604675 127.708 28.4287 128.013 63.8167C128.319 99.2047 99.8468 128.123 64.4582 128.367C29.1557 128.611 0.322834 100.223 0.0181806 64.9213C-0.286473 29.6193 28.0523 0.7376 63.3536 0.372274Z" fill="#1F98D5"/>
<path d="M22.0181 25.7825C24.9468 26.7716 27.8496 28.339 30.8615 29.2634C39.3782 31.8774 48.2944 33.2651 57.1678 33.8203C63.5887 34.188 70.0207 34.3229 76.4513 34.2251C80.7665 34.197 84.965 34.0311 89.277 34.42C94.255 34.7571 98.0521 37.7869 98.6543 42.9118C99.008 47.3958 99.3402 52.5929 98.5702 57.0349C97.6919 62.1022 93.2086 63.8094 88.8761 64.483C98.3124 66.5744 99.8627 72.4554 99.4911 81.1289C99.3226 85.0631 99.8822 89.3395 97.0666 92.6612C94.4678 95.7269 91.3344 96.5246 87.5482 96.8952C81.5778 97.1386 77.1567 96.5325 71.2879 96.4598C56.8572 96.2816 40.9414 96.3538 27.0369 100.557C24.9187 101.197 22.8061 101.85 20.8086 102.785C12.485 93.5582 6.6885 78.4369 6.45499 65.989C6.18088 51.3755 11.951 36.3583 22.0181 25.7825Z" fill="#FEFEFE"/>
<path d="M76.8989 69.6659C84.8542 69.6053 86.8242 69.7378 86.5676 78.5415C86.4042 84.1504 86.0311 85.7478 79.9106 85.8262C77.8049 85.8531 75.5587 85.8504 73.4437 85.8505L58.0549 85.8448C54.7238 85.8618 51.3926 85.8563 48.0615 85.8283L48.0496 69.6899C57.6051 69.5857 67.327 69.6764 76.8989 69.6659Z" fill="#1F98D5"/>
<path d="M48.0838 44.3114C50.4255 44.402 53.5405 44.3051 55.9289 44.3033L72.2922 44.2911C75.4781 44.2901 78.5846 44.2221 81.7869 44.4133C86.8769 44.717 86.1752 48.41 86.1827 52.289C86.1868 54.3846 86.4871 56.5408 85.0627 58.2873C84.3504 58.8681 83.5847 59.1997 82.6693 59.2791C78.6604 59.6272 74.2879 59.4972 70.255 59.495L48.0607 59.5034C48.0653 54.9519 47.8423 48.7011 48.0838 44.3114Z" fill="#1F98D5"/>
</g>
<defs>
<clipPath id="clip0_411_5976">
<rect width="128" height="128" fill="white"/>
</clipPath>
</defs>
</svg>
