<svg width="128" height="128" viewBox="0 0 128 128" fill="none" xmlns="http://www.w3.org/2000/svg">
<g clip-path="url(#clip0_0_808)">
<path fill-rule="evenodd" clip-rule="evenodd" d="M128 0H0V128H128V0ZM46.1156 35.5556V92.4444H67.2457C75.3727 92.4444 81.8742 85.9429 81.8742 77.8159V74.5651C81.8742 69.9327 79.7611 65.8692 76.5105 63.1873C78.8672 60.6679 80.2488 57.1734 80.2488 53.4349V50.1841C80.2488 42.0571 73.7473 35.5556 65.6203 35.5556H46.1156ZM67.2457 84.3174H54.2425V68.0635H67.2457C70.9029 68.0635 73.7473 70.9079 73.7473 74.5651V77.8159C73.7473 81.473 70.9029 84.3174 67.2457 84.3174ZM65.6203 59.9365H54.2425V43.6826H65.6203C69.2774 43.6826 72.122 46.527 72.122 50.1841V53.4349C72.122 57.0921 69.2774 59.9365 65.6203 59.9365Z" fill="#F03603"/>
</g>
<defs>
<clipPath id="clip0_0_808">
<rect width="128" height="128" fill="white"/>
</clipPath>
</defs>
</svg>
