<?xml version="1.0" encoding="UTF-8" standalone="no"?>
<!DOCTYPE svg PUBLIC "-//W3C//DTD SVG 1.1//EN" "http://www.w3.org/Graphics/SVG/1.1/DTD/svg11.dtd">
<svg xmlns="http://www.w3.org/2000/svg" version="1.1" viewBox="0.00 0.00 32.00 32.00">
<g stroke-width="2.00" fill="none" stroke-linecap="butt">
<path stroke="#808080" vector-effect="non-scaling-stroke" d="
  M 26.58 6.21
  C 20.35 -0.60 9.39 1.00 4.38 8.24
  A 0.97 0.96 -44.0 0 0 4.36 9.29
  Q 7.84 14.88 2.91 21.05
  A 0.69 0.69 0.0 0 0 2.83 21.78
  C 9.44 34.92 26.62 33.41 30.59 19.21
  A 0.68 0.67 13.6 0 0 30.07 18.37
  C 25.66 17.47 22.94 16.53 18.55 17.55
  C 14.23 18.56 10.23 19.58 8.94 14.98
  C 7.99 11.59 9.44 6.47 13.78 6.43
  Q 21.13 6.38 26.41 6.57
  A 0.22 0.21 -20.0 0 0 26.58 6.21"
/>
<path stroke="#808080" vector-effect="non-scaling-stroke" d="
  M 15.8530 9.1444
  A 2.03 1.77 -103.3 0 0 14.5975 11.5272
  A 2.03 1.77 -103.3 0 0 16.7870 13.0956
  A 2.03 1.77 -103.3 0 0 18.0425 10.7128
  A 2.03 1.77 -103.3 0 0 15.8530 9.1444"
/>
<path stroke="#808080" vector-effect="non-scaling-stroke" d="
  M 25.7139 9.8755
  A 1.14 1.14 0.0 0 0 24.1815 9.3747
  L 24.0031 9.4652
  A 1.14 1.14 0.0 0 0 23.5022 10.9976
  L 24.2261 12.4245
  A 1.14 1.14 0.0 0 0 25.7585 12.9253
  L 25.9369 12.8348
  A 1.14 1.14 0.0 0 0 26.4378 11.3024
  L 25.7139 9.8755"
/>
</g>
<path fill="#000000" d="
  M 32.00 13.41
  L 32.00 19.20
  Q 29.45 29.37 19.25 32.00
  L 13.46 32.00
  C 6.24 30.30 0.82 24.53 0.51 17.10
  C 0.02 5.57 11.10 -2.46 22.20 1.56
  Q 29.81 4.32 32.00 13.41
  Z
  M 26.58 6.21
  C 20.35 -0.60 9.39 1.00 4.38 8.24
  A 0.97 0.96 -44.0 0 0 4.36 9.29
  Q 7.84 14.88 2.91 21.05
  A 0.69 0.69 0.0 0 0 2.83 21.78
  C 9.44 34.92 26.62 33.41 30.59 19.21
  A 0.68 0.67 13.6 0 0 30.07 18.37
  C 25.66 17.47 22.94 16.53 18.55 17.55
  C 14.23 18.56 10.23 19.58 8.94 14.98
  C 7.99 11.59 9.44 6.47 13.78 6.43
  Q 21.13 6.38 26.41 6.57
  A 0.22 0.21 -20.0 0 0 26.58 6.21
  Z
  M 15.8530 9.1444
  A 2.03 1.77 -103.3 0 0 14.5975 11.5272
  A 2.03 1.77 -103.3 0 0 16.7870 13.0956
  A 2.03 1.77 -103.3 0 0 18.0425 10.7128
  A 2.03 1.77 -103.3 0 0 15.8530 9.1444
  Z
  M 25.7139 9.8755
  A 1.14 1.14 0.0 0 0 24.1815 9.3747
  L 24.0031 9.4652
  A 1.14 1.14 0.0 0 0 23.5022 10.9976
  L 24.2261 12.4245
  A 1.14 1.14 0.0 0 0 25.7585 12.9253
  L 25.9369 12.8348
  A 1.14 1.14 0.0 0 0 26.4378 11.3024
  L 25.7139 9.8755
  Z"
/>
<path fill="#ffffff" d="
  M 26.58 6.21
  A 0.22 0.21 -20.0 0 1 26.41 6.57
  Q 21.13 6.38 13.78 6.43
  C 9.44 6.47 7.99 11.59 8.94 14.98
  C 10.23 19.58 14.23 18.56 18.55 17.55
  C 22.94 16.53 25.66 17.47 30.07 18.37
  A 0.68 0.67 13.6 0 1 30.59 19.21
  C 26.62 33.41 9.44 34.92 2.83 21.78
  A 0.69 0.69 0.0 0 1 2.91 21.05
  Q 7.84 14.88 4.36 9.29
  A 0.97 0.96 -44.0 0 1 4.38 8.24
  C 9.39 1.00 20.35 -0.60 26.58 6.21
  Z"
/>
<ellipse fill="#ffffff" cx="0.00" cy="0.00" transform="translate(16.32,11.12) rotate(-103.3)" rx="2.03" ry="1.77"/>
<rect fill="#ffffff" x="-1.24" y="-1.94" transform="translate(24.97,11.15) rotate(-26.9)" width="2.48" height="3.88" rx="1.14"/>
</svg>
