<?xml version="1.0" encoding="UTF-8"?>
<svg id="Layer_1" data-name="Layer 1" xmlns="http://www.w3.org/2000/svg" xmlns:xlink="http://www.w3.org/1999/xlink" viewBox="0 0 2314 350">
  <defs>
    <style>
      .cls-1 {
        fill: url(#linear-gradient);
      }

      .cls-2 {
        fill: #101c37;
      }
    </style>
    <linearGradient id="linear-gradient" x1="108.88" y1="349.81" x2="108.88" y2="0" gradientUnits="userSpaceOnUse">
      <stop offset="0" stop-color="#0093ff"/>
      <stop offset="1" stop-color="#00eccd"/>
    </linearGradient>
  </defs>
  <g>
    <path class="cls-2" d="M432.8,176.82v-37.54h-54.33v210.56h54.33v-113.02c0-10.7,3.43-19.48,10.29-26.34,6.86-6.85,15.85-11.79,26.96-14.82,11.11-3.02,22.98-4.53,35.6-4.53v-52.68c-14.82,0-29.01,3.57-42.6,10.7-12.02,6.32-22.1,15.54-30.25,27.66Z"/>
    <path class="cls-2" d="M678.08,148.13c-16.19-9.19-34.85-13.79-55.97-13.79s-39.37,4.6-55.56,13.79c-16.19,9.2-28.81,21.88-37.86,38.07-9.05,16.19-13.58,34.85-13.58,55.97s4.59,39.78,13.79,55.97c9.19,16.19,21.88,28.88,38.07,38.07,16.19,9.19,34.84,13.79,55.97,13.79s39.3-4.6,55.35-13.79c16.05-9.19,28.6-21.88,37.66-38.07,9.05-16.19,13.58-34.84,13.58-55.97s-4.53-39.78-13.58-55.97c-9.05-16.19-21.68-28.87-37.86-38.07Zm-10.7,123.88c-4.39,8.64-10.36,15.43-17.9,20.37-7.55,4.94-16.4,7.41-26.54,7.41s-19.21-2.47-27.16-7.41c-7.96-4.94-14.13-11.73-18.52-20.37-4.39-8.64-6.58-18.58-6.58-29.84s2.19-21.2,6.58-29.84c4.39-8.64,10.49-15.43,18.31-20.37,7.82-4.94,16.8-7.41,26.96-7.41s18.73,2.47,26.54,7.41c7.82,4.94,13.92,11.73,18.31,20.37,4.39,8.64,6.58,18.59,6.58,29.84s-2.2,21.19-6.58,29.84Z"/>
    <polygon class="cls-2" points="1013.91 139.29 970.18 274.04 928.3 139.29 922.13 139.29 881.39 139.29 874.8 139.29 831.66 277.24 788.79 139.29 733.64 139.29 803.6 349.85 808.96 349.85 854.23 349.85 857.11 349.85 901.63 205.67 945.59 349.85 993.74 349.85 999.09 349.85 1069.06 139.29 1013.91 139.29"/>
    <path class="cls-2" d="M1217,237.03c-8.1-7.27-18.87-12.55-32.31-15.84l-26.75-6.58c-7.14-1.65-12.62-3.63-16.46-5.97-3.85-2.33-5.76-5.28-5.76-8.85,0-5.49,1.99-9.81,5.97-12.96,3.97-3.15,9.67-4.73,17.08-4.73s14.82,1.72,22.22,5.15c7.41,3.43,12.07,7.89,13.99,13.38l44.86-20.58c-3.02-9.05-8.51-17.01-16.46-23.87-7.96-6.85-17.49-12.2-28.6-16.05-11.11-3.84-23.12-5.76-36.01-5.76-24.97,0-44.24,5.76-57.82,17.28-13.58,11.52-20.37,27.85-20.37,48.97,0,14.82,5.69,27.92,17.08,39.3,11.38,11.39,26.96,19.69,46.71,24.9l18.93,4.94c6.86,1.65,12.28,3.64,16.26,5.97,3.97,2.33,5.97,5.97,5.97,10.91s-2.47,8.71-7.41,11.32c-4.94,2.61-11.93,3.91-20.99,3.91s-17.56-2.4-24.69-7.2c-7.14-4.8-12.76-10.49-16.87-17.08l-46.51,21.4c4.94,10.98,11.79,20.24,20.58,27.78,8.78,7.55,18.93,13.31,30.45,17.28,11.52,3.97,23.87,5.97,37.04,5.97,15.91,0,30.11-2.61,42.6-7.82,12.48-5.21,22.36-12.55,29.63-22.02,7.27-9.47,10.91-20.37,10.91-32.72,0-8.5-1.85-17.21-5.56-26.13-3.7-8.91-9.61-17.01-17.7-24.28Z"/>
    <path class="cls-2" d="M1441.5,256.58h26.75c0-26.06-4.67-48.22-13.99-66.47-9.33-18.24-21.61-32.1-36.83-41.57-15.23-9.47-31.76-14.2-49.59-14.2-20.85,0-39.3,4.6-55.35,13.79-16.05,9.2-28.67,21.88-37.86,38.07-9.19,16.19-13.79,34.85-13.79,55.97s4.46,39.78,13.38,55.97c8.91,16.19,21.19,28.88,36.83,38.07,15.64,9.19,33.61,13.79,53.91,13.79,16.18,0,30.59-2.2,43.21-6.58,12.62-4.39,23.52-10.76,32.72-19.14,9.19-8.37,16.67-18.31,22.43-29.84l-51.03-19.75c-3.57,7.41-8.71,13.45-15.43,18.11-6.73,4.67-15.43,7-26.13,7-9.88,0-18.93-2.12-27.16-6.38-8.23-4.25-14.82-10.49-19.75-18.73-3.13-5.21-5.26-11.25-6.4-18.11h124.11Zm-102.89-67.5c7.41-4.39,16.46-6.58,27.16-6.58,9.6,0,17.97,2.41,25.1,7.2,7.13,4.8,12.69,12.62,16.67,23.46,.12,.33,.22,.69,.34,1.03h-87.75c.55-1.79,1.14-3.53,1.81-5.14,3.7-8.91,9.26-15.57,16.67-19.96Z"/>
    <path class="cls-2" d="M1554.26,176.82v-37.54h-54.32v210.56h54.32v-113.02c0-10.7,3.43-19.48,10.29-26.34,6.85-6.85,15.84-11.79,26.96-14.82,11.11-3.02,22.98-4.53,35.6-4.53v-52.68c-14.82,0-29.01,3.57-42.6,10.7-12.02,6.32-22.1,15.54-30.25,27.66Z"/>
    <path class="cls-2" d="M1769.91,134.35c-15.37,0-28.88,4.05-40.54,12.14-7.37,5.12-13.7,11.67-18.98,19.63l-.16-111.61h-54.32l.41,295.34h54.32l-.16-112.61h.16c0-17.28,3.77-30.31,11.32-39.1,7.54-8.78,18.31-13.03,32.31-12.76,7.68,0,14.4,1.72,20.17,5.14,5.76,3.43,10.29,8.99,13.58,16.67,3.29,7.68,4.94,18.52,4.94,32.51v110.14h54.33v-122.49c0-31.55-6.58-54.94-19.75-70.17-13.17-15.23-32.38-22.84-57.62-22.84Z"/>
    <path class="cls-2" d="M2014.78,247.11c0,17.01-3.7,29.98-11.11,38.89-7.41,8.92-18.25,13.24-32.51,12.96-7.41,0-14.06-1.71-19.96-5.14-5.9-3.43-10.43-9.05-13.58-16.87-3.16-7.82-4.73-18.58-4.73-32.31v-105.36h-54.32v117.7c0,31.55,6.65,54.94,19.96,70.17,13.31,15.23,32.31,22.84,57,22.84,15.64,0,29.28-4.05,40.95-12.14,7.45-5.17,13.82-11.81,19.14-19.9l2.46,31.88h51.03V139.29h-54.32v107.83Z"/>
    <path class="cls-2" d="M2301.63,184.76c-7.68-16.05-18.46-28.46-32.31-37.25-13.86-8.78-30.25-13.17-49.18-13.17-17.28,0-31.9,4.39-43.83,13.17-7.11,5.23-13.2,11.78-18.31,19.59V56.98h-54.33V349.85h51.44l2.25-33.61c5.24,8.29,11.55,15.16,18.95,20.6,11.93,8.78,26.54,13.17,43.83,13.17,18.93,0,35.32-4.39,49.18-13.17,13.85-8.78,24.62-21.26,32.31-37.45,7.68-16.18,11.52-35.25,11.52-57.2s-3.85-41.36-11.52-57.41Zm-51.44,87.45c-4.39,8.78-10.36,15.64-17.9,20.58-7.55,4.94-16.26,7.41-26.13,7.41-9.33,0-17.63-2.47-24.9-7.41-7.27-4.94-12.96-11.79-17.08-20.58-4.12-8.78-6.17-18.79-6.17-30.04s2.06-21.2,6.17-29.84c4.12-8.64,9.88-15.43,17.28-20.37,7.41-4.94,15.78-7.41,25.1-7.41,9.88,0,18.59,2.47,26.13,7.41,7.54,4.94,13.44,11.73,17.7,20.37,4.25,8.64,6.38,18.59,6.38,29.84s-2.2,21.27-6.58,30.04Z"/>
  </g>
  <path class="cls-1" d="M216.91,174.91c0-12.78-5.83-24.18-14.98-31.71-10.32-8.51-15.89-21.5-15.89-34.88v-.54c0-13.39,5.57-26.4,15.9-34.92,9.75-8.04,15.73-20.46,14.89-34.27-1.2-19.72-16.72-36.14-36.36-38.33-24.84-2.76-45.87,16.61-45.87,40.89,0,12.78,5.83,24.18,14.98,31.71,10.32,8.51,15.89,21.5,15.89,34.88v.83c0,8.45-2.42,16.82-6.87,24-5.02,8.11-13.41,16.29-20.89,22.18-8.02,6.31-18.06,9.86-28.28,9.86h-.8c-13.39,0-26.4-5.57-34.92-15.9-8.04-9.75-20.46-15.73-34.27-14.89-19.72,1.2-36.14,16.72-38.33,36.36-2.76,24.84,16.61,45.87,40.89,45.87,12.78,0,24.18-5.83,31.71-14.98,8.51-10.32,21.5-15.89,34.88-15.89h.83c8.54,0,16.99,2.47,24.23,7.01,8.1,5.08,15.98,13.31,21.95,20.75,6.36,7.93,9.87,18.13,9.87,28.29v.8c0,13.39-5.57,26.4-15.9,34.92-9.75,8.04-15.73,20.46-14.89,34.27,1.2,19.72,16.72,36.14,36.36,38.33,24.84,2.76,45.87-16.61,45.87-40.89,0-12.78-5.83-24.18-14.98-31.71-10.32-8.51-15.89-21.5-15.89-34.88v-.58c0-13.38,5.56-26.37,15.89-34.88,9.15-7.53,14.98-18.93,14.98-31.71Z"/>
  <path class="cls-2" d="M244.04,143.14h-15.16c4.39,9.26,6.75,19.48,6.75,30.02,0,8.99-1.8,17.71-5.03,25.84h13.44c27.92,0,50.62,21.3,50.62,47.48s-22.71,47.48-50.62,47.48h-10.11c1.12,4.99,1.7,10.13,1.7,15.36,0,14.73-4.57,28.73-12.94,40.5h21.35c58.71,0,106.48-46.36,106.48-103.34s-47.77-103.34-106.48-103.34Z"/>
</svg>