<svg width="128" height="128" viewBox="0 0 128 128" fill="none" xmlns="http://www.w3.org/2000/svg">
<g clip-path="url(#clip0_240_6545)">
<path d="M77.328 33.216C65.84 33.216 54.48 38.144 45.84 47.872V0H28.72V80.608C28.72 106.784 49.936 128 76.112 128C102.288 128 123.504 106.784 123.504 80.608C123.504 54.432 103.472 33.216 77.328 33.216ZM76.0799 109.728C59.984 109.728 46.96 96.672 46.96 80.608C46.96 64.512 60.016 51.488 76.0799 51.488C92.1759 51.488 105.2 64.544 105.2 80.608C105.2 96.672 92.1759 109.728 76.0799 109.728Z" fill="#262626"/>
<path d="M16.2401 104.544C9.77609 104.544 4.52808 109.792 4.52808 116.256C4.52808 122.72 9.77609 127.968 16.2401 127.968C22.7041 127.968 27.9521 122.72 27.9521 116.256C27.9521 109.792 22.7041 104.544 16.2401 104.544Z" fill="#0000FF"/>
</g>
<defs>
<clipPath id="clip0_240_6545">
<rect width="118.944" height="128" fill="white" transform="translate(4.52808)"/>
</clipPath>
</defs>
</svg>
