<svg width="85" height="27" viewBox="0 0 85 27" fill="none" xmlns="http://www.w3.org/2000/svg">
<g clip-path="url(#clip0_14105_56789)">
<path d="M10.5407 15.6545V5.2184H5.27033V0H0V15.6545H10.5407Z" fill="#4C2B8B"/>
<path d="M26.3454 15.6545V5.2184H21.075V0H15.8047V15.6545H26.3454Z" fill="#4C2B8B"/>
<path d="M32.9608 19.5607H35.5759V22.1496H32.9608V19.5607ZM32.9608 15.669H31.6328V23.4643H36.8972V18.2315H32.9489L32.9608 15.669Z" fill="#4C2B8B"/>
<path d="M51.9373 19.5613H54.5524V22.1502H51.9373V19.5613ZM55.8817 18.2465H50.6094V23.4505H54.5537V24.7705H50.6094V26.0853H55.8797L55.8817 18.2465Z" fill="#4C2B8B"/>
<path d="M45.0986 22.1357H42.4842V18.2321H41.1562V23.4505H46.4266V18.2321H45.0986V22.1357Z" fill="#4C2B8B"/>
<path d="M61.4139 19.5607H64.029V22.1496H61.4139V19.5607ZM61.4139 15.669H60.0859V23.4643H65.3681V18.2315H61.402L61.4139 15.669Z" fill="#4C2B8B"/>
<path d="M80.3982 19.5613H83.0134V22.1502H80.3982V19.5613ZM84.3426 18.2465H79.0703V23.4505H83.0147V24.7705H79.0703V26.0853H84.3406L84.3426 18.2465Z" fill="#4C2B8B"/>
<path d="M73.4991 22.1357H70.8826V18.2321H69.5547V23.4505H74.825V18.2321H73.4991V22.1357Z" fill="#4C2B8B"/>
<path d="M21.0813 18.2665V20.8724H5.27033V18.2639H0V23.4823H5.27033V26.0856H21.0846V23.479H26.349V18.2665H21.0813Z" fill="#4C2B8B"/>
</g>
<defs>
<clipPath id="clip0_14105_56789">
<rect width="84.3437" height="26.0854" fill="#000000"/>
</clipPath>
</defs>
</svg>
