<svg xmlns="http://www.w3.org/2000/svg" fill="none" viewBox="0 0 80 10"><g clip-path="url(#a)"><path fill="#000" d="M24.712 4.528s-1.234-.141-1.745-.141c-.74 0-1.12.264-1.12.784 0 .563.318.696 1.35.978 1.268.352 1.726.688 1.726 1.719 0 1.322-.828 1.894-2.018 1.894a13 13 0 0 1-1.974-.238l.097-.784s1.19.158 1.816.158c.749 0 1.092-.334 1.092-.97 0-.51-.273-.686-1.198-.907-1.304-.334-1.868-.731-1.868-1.78 0-1.216.802-1.718 2.009-1.718q.963.037 1.912.211l-.08.794Zm2.558-.898h1.7l1.349 4.713 1.348-4.714h1.71v6.036h-.988V4.45h-.052L30.83 9.42h-1.023L28.3 4.449h-.053v5.216h-.978V3.63Zm21.255 0h4.406v.87h-1.7v5.164h-.987V4.501h-1.719zm8.663 0c1.199 0 1.842.448 1.842 1.568 0 .731-.229 1.092-.714 1.357.52.202.863.572.863 1.4 0 1.235-.748 1.71-1.92 1.71h-2.362V3.63zm-1.313.845v1.727h1.295c.6 0 .864-.299.864-.89 0-.58-.3-.837-.899-.837zm0 2.556v1.788h1.33c.609 0 .97-.193.97-.916 0-.688-.51-.872-.987-.872zm5.729-3.401h3.808v.854h-2.83v1.71h2.3v.837h-2.3V8.8h2.83v.864h-3.808zm7.314 0h1.948l1.499 6.035h-.988l-.446-1.77h-2.078l-.446 1.77h-.978l1.49-6.036Zm.13 3.4h1.694l-.625-2.581h-.44zm6.472.846v1.79h-.979V3.628h2.291c1.331 0 2.045.762 2.045 2.102 0 .854-.344 1.626-.987 1.925l.996 2.01H77.81l-.873-1.79h-1.419Zm1.312-3.401H75.52V7.03h1.331c.74 0 1.022-.666 1.022-1.291 0-.688-.335-1.265-1.04-1.265ZM36.999 3.63h1.947l1.498 6.035h-.987l-.446-1.77h-2.078l-.446 1.77h-.978zm.13 3.4h1.692l-.625-2.581h-.44L37.13 7.03Zm6.47.846v1.79h-.978V3.628h2.291c1.33 0 2.044.762 2.044 2.102 0 .854-.344 1.626-.987 1.925l.996 2.01H45.89l-.872-1.79h-1.42Zm1.313-3.401h-1.313V7.03h1.33c.74 0 1.023-.666 1.023-1.291 0-.688-.335-1.265-1.04-1.265Z"/><path fill="#ff730b" d="M10.304 8.47H7.506L7.01 10h3.79zM17.81 10l-1.47-4.518.949-2.92L13.763 0l-2.484 1.805H6.53L4.048 0 .52 2.563l.948 2.919L0 10h4.632l-.36-1.109 4.633-3.365 4.632 3.366-.36 1.108z"/></g><defs><clipPath id="a"><path fill="#000000" d="M0 0h79.118v10H0z"/></clipPath></defs></svg>