<svg width="98" height="45" viewBox="0 0 98 45" fill="none" xmlns="http://www.w3.org/2000/svg">
<g clip-path="url(#clip0)">
<path d="M6.57906 38.3812C6.40748 38.738 6.12979 39.033 5.78401 39.2259C5.41347 39.4322 4.9956 39.5383 4.57155 39.534C4.26163 39.5431 3.9532 39.4877 3.6658 39.3714C3.37839 39.2551 3.11828 39.0803 2.90194 38.8582C2.68269 38.634 2.51075 38.3681 2.39636 38.0761C2.28198 37.7842 2.22747 37.4722 2.23609 37.1588C2.23609 36.4631 2.45473 35.8867 2.90194 35.4395C3.34916 34.9923 3.9057 34.7736 4.57155 34.7736C4.81042 34.7711 5.0483 34.8046 5.27716 34.873C5.55422 34.9546 5.81172 35.0918 6.03387 35.2764C6.25603 35.4609 6.43816 35.6889 6.56913 35.9463L8.50707 34.8134C8.14749 34.124 7.59497 33.5542 6.91696 33.1736C6.32293 32.8259 5.65594 32.6217 4.96908 32.5773C4.84982 32.5673 4.72063 32.5674 4.60137 32.5674H4.50199C3.2299 32.5872 2.16652 33.0344 1.32178 33.8891C0.447217 34.7736 0 35.8668 0 37.1687C0 38.4706 0.437279 39.5638 1.32178 40.4483C2.20627 41.3328 3.28953 41.7701 4.61131 41.7701C5.42461 41.7773 6.22472 41.5643 6.9269 41.1539C7.60729 40.7621 8.1675 40.1916 8.54682 39.5042L6.57906 38.3812Z" fill="black"/>
<path d="M16.2093 32.7959H18.4553V41.5117H16.2093V40.4781C15.5335 41.3229 14.5894 41.7502 13.367 41.7502C12.2042 41.7502 11.2104 41.303 10.3756 40.4185C9.54077 39.534 9.1333 38.4408 9.1333 37.1489C9.1333 35.8569 9.5507 34.7736 10.3756 33.8792C11.2004 32.9848 12.2042 32.5475 13.367 32.5475C14.5894 32.5475 15.5335 32.9748 16.2093 33.8196V32.7959ZM12.0551 38.9278C12.2813 39.154 12.5514 39.3316 12.8488 39.4495C13.1462 39.5674 13.4646 39.6233 13.7844 39.6135C14.1055 39.6222 14.4251 39.566 14.7239 39.4481C15.0228 39.3303 15.2948 39.1533 15.5235 38.9278C15.9807 38.4706 16.2093 37.8743 16.2093 37.1588C16.2093 36.4432 15.9807 35.847 15.5235 35.3898C15.0664 34.9326 14.49 34.7041 13.7844 34.7041C13.0788 34.7041 12.5123 34.9326 12.0551 35.3898C11.598 35.847 11.3793 36.4432 11.3793 37.1588C11.3793 37.8743 11.6079 38.4706 12.0551 38.9278Z" fill="black"/>
<path d="M25.5709 32.5574C26.7436 32.5574 27.7474 33.0046 28.5822 33.8891C29.417 34.7736 29.8245 35.8668 29.8245 37.1588C29.8245 38.4508 29.407 39.534 28.5822 40.4285C27.7573 41.3229 26.7436 41.7602 25.5709 41.7602C24.3485 41.7602 23.4044 41.3328 22.7485 40.4881V41.5216H20.5024V29.3076H22.7485V33.8196C23.4044 32.9748 24.3485 32.5574 25.5709 32.5574ZM23.4243 38.9278C23.6505 39.154 23.9206 39.3316 24.218 39.4495C24.5154 39.5674 24.8337 39.6233 25.1535 39.6135C25.4746 39.6222 25.7942 39.566 26.0931 39.4482C26.3919 39.3303 26.6639 39.1533 26.8927 38.9278C27.3498 38.4706 27.5784 37.8743 27.5784 37.1588C27.5784 36.4432 27.3498 35.847 26.8927 35.3898C26.4355 34.9326 25.8591 34.7041 25.1535 34.7041C24.4479 34.7041 23.8814 34.9326 23.4243 35.3898C22.9671 35.847 22.7485 36.4432 22.7485 37.1588C22.7485 37.8743 22.9671 38.4706 23.4243 38.9278Z" fill="black"/>
<path d="M32.5277 31.7524C32.1656 31.7473 31.8197 31.6011 31.5636 31.3451C31.3075 31.089 31.1614 30.7431 31.1562 30.381C31.1563 30.1997 31.1924 30.0203 31.2624 29.8532C31.3323 29.686 31.4347 29.5343 31.5637 29.407C31.6893 29.2751 31.8404 29.17 32.0078 29.0983C32.1752 29.0265 32.3555 28.9895 32.5377 28.9895C32.7198 28.9895 32.9001 29.0265 33.0675 29.0983C33.2349 29.17 33.386 29.2751 33.5116 29.407C33.6406 29.5343 33.743 29.686 33.8129 29.8532C33.8829 30.0203 33.919 30.1997 33.9191 30.381C33.9198 30.5608 33.8841 30.739 33.8141 30.9047C33.744 31.0704 33.6411 31.2202 33.5116 31.345C33.3835 31.4756 33.2303 31.5791 33.0612 31.6491C32.8922 31.7191 32.7107 31.7543 32.5277 31.7524Z" fill="black"/>
<path d="M33.6606 32.7959H31.4146V41.5117H33.6606V32.7959Z" fill="black"/>
<path d="M40.5673 32.5574C41.5213 32.5574 42.3064 32.8754 42.9325 33.5115C43.5586 34.1475 43.8667 35.032 43.8667 36.165V41.5216H41.6207V36.4432C41.6207 35.8668 41.4617 35.4196 41.1536 35.1115C40.8455 34.8034 40.4182 34.6544 39.9014 34.6544C39.315 34.6544 38.8579 34.8333 38.5101 35.191C38.1622 35.5488 37.9833 36.0954 37.9833 36.811V41.5216H35.7373V32.8059H37.9833V33.7798C38.5101 32.9549 39.3747 32.5574 40.5673 32.5574Z" fill="black"/>
<path d="M50.8536 32.5574C52.0263 32.5574 53.0301 33.0046 53.8649 33.8891C54.6997 34.7736 55.1072 35.8668 55.1072 37.1588C55.1072 38.4507 54.6898 39.534 53.8649 40.4284C53.04 41.3229 52.0263 41.7602 50.8536 41.7602C49.6312 41.7602 48.6871 41.3328 48.0312 40.4881V45H45.7852V32.7959H48.0312V33.8295C48.6871 32.9748 49.6312 32.5574 50.8536 32.5574ZM48.707 38.9278C48.9332 39.154 49.2033 39.3316 49.5007 39.4495C49.7981 39.5674 50.1164 39.6232 50.4362 39.6135C50.7573 39.6222 51.0769 39.566 51.3758 39.4481C51.6746 39.3303 51.9466 39.1533 52.1754 38.9278C52.6326 38.4706 52.8611 37.8743 52.8611 37.1588C52.8611 36.4432 52.6326 35.847 52.1754 35.3898C51.7182 34.9326 51.1418 34.7041 50.4362 34.7041C49.7306 34.7041 49.1641 34.9326 48.707 35.3898C48.2498 35.847 48.0312 36.4432 48.0312 37.1588C48.0312 37.8743 48.2498 38.4706 48.707 38.9278Z" fill="black"/>
<path d="M63.3162 32.7959H65.5622V41.5117H63.3162V40.4781C62.6404 41.3229 61.6963 41.7502 60.4739 41.7502C59.3111 41.7502 58.3173 41.303 57.4825 40.4185C56.6477 39.534 56.2402 38.4408 56.2402 37.1489C56.2402 35.8569 56.6576 34.7736 57.4825 33.8792C58.3074 32.9848 59.3111 32.5475 60.4739 32.5475C61.6963 32.5475 62.6404 32.9748 63.3162 33.8196V32.7959ZM59.172 38.9278C59.3982 39.154 59.6683 39.3316 59.9657 39.4495C60.2631 39.5674 60.5815 39.6233 60.9012 39.6135C61.2224 39.6222 61.5419 39.566 61.8408 39.4481C62.1397 39.3303 62.4116 39.1533 62.6404 38.9278C63.0976 38.4706 63.3261 37.8743 63.3261 37.1588C63.3261 36.4432 63.0976 35.847 62.6404 35.3898C62.1833 34.9326 61.6068 34.7041 60.9012 34.7041C60.1956 34.7041 59.6291 34.9326 59.172 35.3898C58.7148 35.847 58.4962 36.4432 58.4962 37.1588C58.4962 37.8743 58.7148 38.4706 59.172 38.9278Z" fill="black"/>
<path d="M72.4593 32.5574C73.4134 32.5574 74.1985 32.8754 74.8246 33.5115C75.4507 34.1475 75.7588 35.032 75.7588 36.165V41.5216H73.5128V36.4432C73.5128 35.8668 73.3538 35.4196 73.0457 35.1115C72.7376 34.8034 72.3103 34.6544 71.7935 34.6544C71.2071 34.6544 70.75 34.8333 70.4021 35.191C70.0543 35.5488 69.8754 36.0954 69.8754 36.811V41.5216H67.6294V32.8059H69.8754V33.7798C70.4021 32.9549 71.2668 32.5574 72.4593 32.5574Z" fill="black"/>
<path d="M84.2757 29.3076H86.5217V41.5117H84.2757V40.4781C83.6098 41.3229 82.6756 41.7502 81.4532 41.7502C80.2805 41.7502 79.2768 41.303 78.442 40.4185C77.6072 39.534 77.1997 38.4408 77.1997 37.1489C77.1997 35.8569 77.6171 34.7736 78.442 33.8792C79.2668 32.9848 80.2706 32.5475 81.4532 32.5475C82.6756 32.5475 83.6198 32.9748 84.2757 33.8196V29.3076ZM80.1315 38.9278C80.5886 39.3849 81.165 39.6135 81.8706 39.6135C82.1904 39.6233 82.5088 39.5674 82.8062 39.4495C83.1036 39.3316 83.3737 39.154 83.5999 38.9278C84.057 38.4706 84.2757 37.8743 84.2757 37.1588C84.2757 36.4432 84.0471 35.847 83.5999 35.3898C83.3737 35.1636 83.1036 34.986 82.8062 34.8681C82.5088 34.7502 82.1904 34.6943 81.8706 34.7041C81.5495 34.6954 81.2299 34.7516 80.9311 34.8694C80.6322 34.9873 80.3602 35.1643 80.1315 35.3898C79.6743 35.847 79.4457 36.4432 79.4457 37.1588C79.4457 37.8743 79.6743 38.4706 80.1315 38.9278Z" fill="black"/>
<path d="M95.2078 32.7959H97.4538V41.5117H95.2078V40.4781C94.532 41.3229 93.5879 41.7502 92.3655 41.7502C91.2027 41.7502 90.2089 41.303 89.3741 40.4185C88.5393 39.534 88.1318 38.4408 88.1318 37.1489C88.1318 35.8569 88.5492 34.7736 89.3741 33.8792C90.199 32.9848 91.2027 32.5475 92.3655 32.5475C93.5879 32.5475 94.532 32.9748 95.2078 33.8196V32.7959ZM91.0636 38.9278C91.2898 39.154 91.5599 39.3316 91.8573 39.4495C92.1547 39.5674 92.4731 39.6233 92.7928 39.6135C93.114 39.6222 93.4336 39.566 93.7324 39.4481C94.0313 39.3303 94.3032 39.1533 94.532 38.9278C94.9892 38.4706 95.2177 37.8743 95.2177 37.1588C95.2177 36.4432 94.9892 35.847 94.532 35.3898C94.0749 34.9326 93.4984 34.7041 92.7928 34.7041C92.0872 34.7041 91.5208 34.9326 91.0636 35.3898C90.6064 35.847 90.3878 36.4432 90.3878 37.1588C90.3878 37.8743 90.6064 38.4706 91.0636 38.9278Z" fill="black"/>
<path d="M32.14 13.6352C32.0804 14.5992 31.9412 18.5546 34.7736 21.7845C38.9377 26.525 45.5665 25.1634 45.9739 25.074C46.9181 24.8653 49.8896 24.2889 52.0263 21.7745C52.5849 21.1072 53.0466 20.3645 53.3977 19.5682C53.8151 18.6341 54.958 16.0501 53.8648 13.3668C53.6363 12.8103 52.9306 11.1705 51.112 10.2462C48.6672 9.01392 46.2919 10.1369 46.0733 10.2462C44.1155 11.2102 43.3801 13.0091 43.1912 13.5358C42.1577 16.4079 43.7776 19.1111 44.3242 20.0254C46.6795 23.951 51.0424 24.8653 51.8573 25.0144C52.4834 25.1336 58.4364 26.1572 62.4713 21.7646C65.4329 18.5347 65.3633 14.5594 65.3235 13.6749" stroke="black" stroke-width="2.5" stroke-linejoin="round"/>
<path d="M38.3314 4.31316C39.5224 4.31316 40.488 3.34763 40.488 2.15658C40.488 0.965534 39.5224 0 38.3314 0C37.1403 0 36.1748 0.965534 36.1748 2.15658C36.1748 3.34763 37.1403 4.31316 38.3314 4.31316Z" fill="black"/>
<path d="M59.1121 4.31316C60.3032 4.31316 61.2687 3.34763 61.2687 2.15658C61.2687 0.965534 60.3032 0 59.1121 0C57.9211 0 56.9556 0.965534 56.9556 2.15658C56.9556 3.34763 57.9211 4.31316 59.1121 4.31316Z" fill="black"/>
</g>
<defs>
<clipPath id="clip0">
<rect width="97.4536" height="45" fill="#000000"/>
</clipPath>
</defs>
</svg>
