<svg width="128" height="128" viewBox="0 0 128 128" fill="none" xmlns="http://www.w3.org/2000/svg">
<g clip-path="url(#clip0_60_20405)">
<path d="M33.2249 97.9373C44.3419 97.9373 52.6797 93.614 57.4662 87.7467L48.202 79.7177C44.4963 83.8866 39.8642 85.8938 33.5337 85.8938C20.8727 85.8938 13.1525 76.3209 13.1525 64.7407C13.1525 53.1604 20.8727 43.2786 33.2249 43.2786C38.9378 43.2786 43.7243 45.2859 47.5844 49.3004L56.6941 41.4258C50.8268 34.7865 43.7243 31.544 33.2249 31.544C13.4613 31.544 -0.126114 46.5211 -0.126114 64.8951C-0.126114 83.1146 14.2334 97.9373 33.2249 97.9373ZM80.781 97.9373C89.2732 97.9373 93.5964 94.386 96.0669 88.9819V96.702H108.11V49.146H95.9125V56.7117C93.2876 51.6164 89.1188 48.2195 80.781 48.2195C67.6568 48.2195 57.3118 59.4909 57.3118 73.2328C57.3118 86.9747 67.6568 97.9373 80.781 97.9373ZM69.664 73.0784C69.664 65.6671 74.9137 59.3365 82.7882 59.3365C90.9716 59.3365 96.0669 65.6671 96.0669 73.0784C96.0669 80.4897 90.8172 86.6659 82.7882 86.6659C74.9137 86.8203 69.664 80.3353 69.664 73.0784ZM115.522 96.702H127.874V30H115.522V96.702Z" fill="#141414"/>
</g>
<defs>
<clipPath id="clip0_60_20405">
<rect width="128" height="128" fill="white"/>
</clipPath>
</defs>
</svg>
