<svg width="128" height="128" viewBox="0 0 128 128" fill="none" xmlns="http://www.w3.org/2000/svg">
<g clip-path="url(#clip0_240_6876)">
<path d="M127.102 71.5031C126.91 71.5031 126.717 71.6313 126.589 71.952C125.307 75.6714 123.511 77.9159 122.036 77.9159C121.202 77.9159 120.882 76.954 120.882 75.5431C120.882 71.8878 123.062 64.1283 124.152 60.5371C124.281 60.0882 124.345 59.7035 124.345 59.3828C124.345 58.3568 123.768 57.8437 122.357 57.8437C120.882 57.8437 119.214 58.4209 117.675 61.1784C117.162 58.7415 115.495 57.7155 113.186 57.7155C110.557 57.7155 107.992 59.4469 105.876 62.2045C103.76 64.962 101.259 65.8598 99.3988 65.4109C100.745 62.1403 101.259 59.6393 101.259 57.8437C101.259 54.958 99.8477 53.2265 97.5391 53.2265C94.0762 53.2265 92.0882 56.5612 92.0882 60.0241C92.0882 62.7175 93.3066 65.475 96 66.8217C93.7555 71.8878 90.485 76.5051 89.2024 76.5051C87.5992 76.5051 87.0862 68.6173 87.2144 62.974C87.2786 59.7676 87.5351 59.5752 87.5351 58.6133C87.5351 58.0361 87.1503 57.6513 85.6754 57.6513C82.2766 57.6513 81.1864 60.5371 81.0581 63.8718C80.994 65.1544 80.8016 66.3728 80.481 67.5912C79.0701 72.6574 76.1202 76.5692 74.1964 76.5692C73.2986 76.5692 73.0421 75.6714 73.0421 74.5171C73.0421 70.8618 75.0942 66.2445 75.0942 62.3327C75.0942 59.4469 73.8116 57.6513 71.4389 57.6513C68.6172 57.6513 64.9619 60.986 61.4349 67.2065C62.5892 62.461 63.0381 57.8437 59.6393 57.8437C58.8697 57.8437 58.1643 58.0361 57.523 58.4209C57.0741 58.6133 56.8176 59.0622 56.8176 59.5752C57.1383 64.6413 52.7134 77.6594 48.5451 77.6594C47.7755 77.6594 47.3908 76.8257 47.3908 75.479C47.3908 71.8237 49.5711 64.0642 50.6613 60.473C50.7896 60.0241 50.8537 59.6393 50.8537 59.2546C50.8537 58.2926 50.2766 57.7796 48.8657 57.7796C47.3908 57.7796 45.7234 58.3568 44.1844 61.1143C43.6072 58.6774 42.004 57.6513 39.6954 57.6513C35.9118 57.6513 31.7435 61.6273 29.8838 66.8217C27.3828 73.7475 22.4449 80.481 15.7114 80.481C9.61924 80.481 6.41283 75.4149 6.41283 67.3988C6.41283 55.7916 14.9419 46.3648 21.2265 46.3648C24.2405 46.3648 25.6513 48.2886 25.6513 51.2385C25.6513 54.8297 23.6633 56.4329 23.6633 57.8437C23.6633 58.2285 23.984 58.6774 24.6894 58.6774C27.4469 58.6774 30.6533 55.471 30.6533 51.0461C30.6533 46.6213 27.1904 43.479 20.9058 43.479C10.4529 43.479 0 53.9319 0 67.3988C0 78.1083 5.25852 84.5211 14.3647 84.5211C20.5852 84.5211 26.0361 79.7115 28.9218 74.0682C29.2425 78.7495 31.3587 81.1864 34.6293 81.1864C37.515 81.1864 39.8236 79.455 41.6192 76.4409C42.3246 79.5832 44.1202 81.1223 46.493 81.1223C49.1864 81.1223 51.495 79.3908 53.6112 76.2485C53.6112 78.7495 54.1242 81.1223 56.3046 81.1223C57.3307 81.1223 58.5491 80.8658 58.7415 79.968C61.0501 70.5411 66.6934 62.7816 68.4249 62.7816C68.9379 62.7816 69.0661 63.2946 69.0661 63.8718C69.0661 66.4369 67.2705 71.6954 67.2705 75.0301C67.2705 78.6854 68.8096 81.0582 72.016 81.0582C75.5431 81.0582 79.1343 76.7616 81.507 70.4129C82.2766 76.3127 83.8798 81.0582 86.3808 81.0582C89.4589 81.0582 95.0381 74.5171 98.3727 67.5912C99.6553 67.7836 101.643 67.7195 103.567 66.3728C102.733 68.4249 102.285 70.6694 102.285 72.8497C102.285 79.2626 105.363 81.0582 107.992 81.0582C110.878 81.0582 113.186 79.3267 114.982 76.3127C115.559 79.0061 117.098 80.994 119.856 80.994C124.152 80.994 127.936 76.5692 127.936 72.9139C128 72.1443 127.551 71.5031 127.102 71.5031ZM37.3226 77.5952C35.5912 77.5952 34.8858 75.8638 34.8858 73.2345C34.8858 68.6814 38.0281 61.0501 41.2986 61.0501C42.7094 61.0501 43.2866 62.7175 43.2866 64.8337C43.2866 69.4509 40.3367 77.5952 37.3226 77.5952ZM97.1543 64C96.1283 62.7816 95.7435 61.0501 95.7435 59.5752C95.7435 57.7155 96.4489 56.1764 97.2184 56.1764C97.988 56.1764 98.3086 56.9459 98.3086 58.1002C98.2445 59.8958 97.6032 62.6534 97.1543 64ZM110.685 77.5952C108.954 77.5952 108.248 75.5431 108.248 73.2345C108.248 68.8097 111.391 61.0501 114.661 61.0501C116.072 61.0501 116.585 62.7175 116.585 64.8337C116.649 69.4509 113.764 77.5952 110.685 77.5952Z" fill="url(#paint0_linear_240_6876)"/>
<path d="M127.102 71.5031C126.91 71.5031 126.717 71.6313 126.589 71.952C125.307 75.6714 123.511 77.9159 122.036 77.9159C121.202 77.9159 120.882 76.954 120.882 75.5431C120.882 71.8878 123.062 64.1283 124.152 60.5371C124.281 60.0882 124.345 59.7035 124.345 59.3828C124.345 58.3568 123.768 57.8437 122.357 57.8437C120.882 57.8437 119.214 58.4209 117.675 61.1784C117.162 58.7415 115.495 57.7155 113.186 57.7155C110.557 57.7155 107.992 59.4469 105.876 62.2045C103.76 64.962 101.259 65.8598 99.3988 65.4109C100.745 62.1403 101.259 59.6393 101.259 57.8437C101.259 54.958 99.8477 53.2265 97.5391 53.2265C94.0762 53.2265 92.0882 56.5612 92.0882 60.0241C92.0882 62.7175 93.3066 65.475 96 66.8217C93.7555 71.8878 90.485 76.5051 89.2024 76.5051C87.5992 76.5051 87.0862 68.6173 87.2144 62.974C87.2786 59.7676 87.5351 59.5752 87.5351 58.6133C87.5351 58.0361 87.1503 57.6513 85.6754 57.6513C82.2766 57.6513 81.1864 60.5371 81.0581 63.8718C80.994 65.1544 80.8016 66.3728 80.481 67.5912C79.0701 72.6574 76.1202 76.5692 74.1964 76.5692C73.2986 76.5692 73.0421 75.6714 73.0421 74.5171C73.0421 70.8618 75.0942 66.2445 75.0942 62.3327C75.0942 59.4469 73.8116 57.6513 71.4389 57.6513C68.6172 57.6513 64.9619 60.986 61.4349 67.2065C62.5892 62.461 63.0381 57.8437 59.6393 57.8437C58.8697 57.8437 58.1643 58.0361 57.523 58.4209C57.0741 58.6133 56.8176 59.0622 56.8176 59.5752C57.1383 64.6413 52.7134 77.6594 48.5451 77.6594C47.7755 77.6594 47.3908 76.8257 47.3908 75.479C47.3908 71.8237 49.5711 64.0642 50.6613 60.473C50.7896 60.0241 50.8537 59.6393 50.8537 59.2546C50.8537 58.2926 50.2766 57.7796 48.8657 57.7796C47.3908 57.7796 45.7234 58.3568 44.1844 61.1143C43.6072 58.6774 42.004 57.6513 39.6954 57.6513C35.9118 57.6513 31.7435 61.6273 29.8838 66.8217C27.3828 73.7475 22.4449 80.481 15.7114 80.481C9.61924 80.481 6.41283 75.4149 6.41283 67.3988C6.41283 55.7916 14.9419 46.3648 21.2265 46.3648C24.2405 46.3648 25.6513 48.2886 25.6513 51.2385C25.6513 54.8297 23.6633 56.4329 23.6633 57.8437C23.6633 58.2285 23.984 58.6774 24.6894 58.6774C27.4469 58.6774 30.6533 55.471 30.6533 51.0461C30.6533 46.6213 27.1904 43.479 20.9058 43.479C10.4529 43.479 0 53.9319 0 67.3988C0 78.1083 5.25852 84.5211 14.3647 84.5211C20.5852 84.5211 26.0361 79.7115 28.9218 74.0682C29.2425 78.7495 31.3587 81.1864 34.6293 81.1864C37.515 81.1864 39.8236 79.455 41.6192 76.4409C42.3246 79.5832 44.1202 81.1223 46.493 81.1223C49.1864 81.1223 51.495 79.3908 53.6112 76.2485C53.6112 78.7495 54.1242 81.1223 56.3046 81.1223C57.3307 81.1223 58.5491 80.8658 58.7415 79.968C61.0501 70.5411 66.6934 62.7816 68.4249 62.7816C68.9379 62.7816 69.0661 63.2946 69.0661 63.8718C69.0661 66.4369 67.2705 71.6954 67.2705 75.0301C67.2705 78.6854 68.8096 81.0582 72.016 81.0582C75.5431 81.0582 79.1343 76.7616 81.507 70.4129C82.2766 76.3127 83.8798 81.0582 86.3808 81.0582C89.4589 81.0582 95.0381 74.5171 98.3727 67.5912C99.6553 67.7836 101.643 67.7195 103.567 66.3728C102.733 68.4249 102.285 70.6694 102.285 72.8497C102.285 79.2626 105.363 81.0582 107.992 81.0582C110.878 81.0582 113.186 79.3267 114.982 76.3127C115.559 79.0061 117.098 80.994 119.856 80.994C124.152 80.994 127.936 76.5692 127.936 72.9139C128 72.1443 127.551 71.5031 127.102 71.5031ZM37.3226 77.5952C35.5912 77.5952 34.8858 75.8638 34.8858 73.2345C34.8858 68.6814 38.0281 61.0501 41.2986 61.0501C42.7094 61.0501 43.2866 62.7175 43.2866 64.8337C43.2866 69.4509 40.3367 77.5952 37.3226 77.5952ZM97.1543 64C96.1283 62.7816 95.7435 61.0501 95.7435 59.5752C95.7435 57.7155 96.4489 56.1764 97.2184 56.1764C97.988 56.1764 98.3086 56.9459 98.3086 58.1002C98.2445 59.8958 97.6032 62.6534 97.1543 64ZM110.685 77.5952C108.954 77.5952 108.248 75.5431 108.248 73.2345C108.248 68.8097 111.391 61.0501 114.661 61.0501C116.072 61.0501 116.585 62.7175 116.585 64.8337C116.649 69.4509 113.764 77.5952 110.685 77.5952Z" fill="url(#paint1_radial_240_6876)"/>
<path d="M127.102 71.5031C126.91 71.5031 126.717 71.6313 126.589 71.952C125.307 75.6714 123.511 77.9159 122.036 77.9159C121.202 77.9159 120.882 76.954 120.882 75.5431C120.882 71.8878 123.062 64.1283 124.152 60.5371C124.281 60.0882 124.345 59.7035 124.345 59.3828C124.345 58.3568 123.768 57.8437 122.357 57.8437C120.882 57.8437 119.214 58.4209 117.675 61.1784C117.162 58.7415 115.495 57.7155 113.186 57.7155C110.557 57.7155 107.992 59.4469 105.876 62.2045C103.76 64.962 101.259 65.8598 99.3988 65.4109C100.745 62.1403 101.259 59.6393 101.259 57.8437C101.259 54.958 99.8477 53.2265 97.5391 53.2265C94.0762 53.2265 92.0882 56.5612 92.0882 60.0241C92.0882 62.7175 93.3066 65.475 96 66.8217C93.7555 71.8878 90.485 76.5051 89.2024 76.5051C87.5992 76.5051 87.0862 68.6173 87.2144 62.974C87.2786 59.7676 87.5351 59.5752 87.5351 58.6133C87.5351 58.0361 87.1503 57.6513 85.6754 57.6513C82.2766 57.6513 81.1864 60.5371 81.0581 63.8718C80.994 65.1544 80.8016 66.3728 80.481 67.5912C79.0701 72.6574 76.1202 76.5692 74.1964 76.5692C73.2986 76.5692 73.0421 75.6714 73.0421 74.5171C73.0421 70.8618 75.0942 66.2445 75.0942 62.3327C75.0942 59.4469 73.8116 57.6513 71.4389 57.6513C68.6172 57.6513 64.9619 60.986 61.4349 67.2065C62.5892 62.461 63.0381 57.8437 59.6393 57.8437C58.8697 57.8437 58.1643 58.0361 57.523 58.4209C57.0741 58.6133 56.8176 59.0622 56.8176 59.5752C57.1383 64.6413 52.7134 77.6594 48.5451 77.6594C47.7755 77.6594 47.3908 76.8257 47.3908 75.479C47.3908 71.8237 49.5711 64.0642 50.6613 60.473C50.7896 60.0241 50.8537 59.6393 50.8537 59.2546C50.8537 58.2926 50.2766 57.7796 48.8657 57.7796C47.3908 57.7796 45.7234 58.3568 44.1844 61.1143C43.6072 58.6774 42.004 57.6513 39.6954 57.6513C35.9118 57.6513 31.7435 61.6273 29.8838 66.8217C27.3828 73.7475 22.4449 80.481 15.7114 80.481C9.61924 80.481 6.41283 75.4149 6.41283 67.3988C6.41283 55.7916 14.9419 46.3648 21.2265 46.3648C24.2405 46.3648 25.6513 48.2886 25.6513 51.2385C25.6513 54.8297 23.6633 56.4329 23.6633 57.8437C23.6633 58.2285 23.984 58.6774 24.6894 58.6774C27.4469 58.6774 30.6533 55.471 30.6533 51.0461C30.6533 46.6213 27.1904 43.479 20.9058 43.479C10.4529 43.479 0 53.9319 0 67.3988C0 78.1083 5.25852 84.5211 14.3647 84.5211C20.5852 84.5211 26.0361 79.7115 28.9218 74.0682C29.2425 78.7495 31.3587 81.1864 34.6293 81.1864C37.515 81.1864 39.8236 79.455 41.6192 76.4409C42.3246 79.5832 44.1202 81.1223 46.493 81.1223C49.1864 81.1223 51.495 79.3908 53.6112 76.2485C53.6112 78.7495 54.1242 81.1223 56.3046 81.1223C57.3307 81.1223 58.5491 80.8658 58.7415 79.968C61.0501 70.5411 66.6934 62.7816 68.4249 62.7816C68.9379 62.7816 69.0661 63.2946 69.0661 63.8718C69.0661 66.4369 67.2705 71.6954 67.2705 75.0301C67.2705 78.6854 68.8096 81.0582 72.016 81.0582C75.5431 81.0582 79.1343 76.7616 81.507 70.4129C82.2766 76.3127 83.8798 81.0582 86.3808 81.0582C89.4589 81.0582 95.0381 74.5171 98.3727 67.5912C99.6553 67.7836 101.643 67.7195 103.567 66.3728C102.733 68.4249 102.285 70.6694 102.285 72.8497C102.285 79.2626 105.363 81.0582 107.992 81.0582C110.878 81.0582 113.186 79.3267 114.982 76.3127C115.559 79.0061 117.098 80.994 119.856 80.994C124.152 80.994 127.936 76.5692 127.936 72.9139C128 72.1443 127.551 71.5031 127.102 71.5031ZM37.3226 77.5952C35.5912 77.5952 34.8858 75.8638 34.8858 73.2345C34.8858 68.6814 38.0281 61.0501 41.2986 61.0501C42.7094 61.0501 43.2866 62.7175 43.2866 64.8337C43.2866 69.4509 40.3367 77.5952 37.3226 77.5952ZM97.1543 64C96.1283 62.7816 95.7435 61.0501 95.7435 59.5752C95.7435 57.7155 96.4489 56.1764 97.2184 56.1764C97.988 56.1764 98.3086 56.9459 98.3086 58.1002C98.2445 59.8958 97.6032 62.6534 97.1543 64ZM110.685 77.5952C108.954 77.5952 108.248 75.5431 108.248 73.2345C108.248 68.8097 111.391 61.0501 114.661 61.0501C116.072 61.0501 116.585 62.7175 116.585 64.8337C116.649 69.4509 113.764 77.5952 110.685 77.5952Z" fill="url(#paint2_radial_240_6876)"/>
<path d="M127.102 71.5031C126.91 71.5031 126.717 71.6313 126.589 71.952C125.307 75.6714 123.511 77.9159 122.036 77.9159C121.202 77.9159 120.882 76.954 120.882 75.5431C120.882 71.8878 123.062 64.1283 124.152 60.5371C124.281 60.0882 124.345 59.7035 124.345 59.3828C124.345 58.3568 123.768 57.8437 122.357 57.8437C120.882 57.8437 119.214 58.4209 117.675 61.1784C117.162 58.7415 115.495 57.7155 113.186 57.7155C110.557 57.7155 107.992 59.4469 105.876 62.2045C103.76 64.962 101.259 65.8598 99.3988 65.4109C100.745 62.1403 101.259 59.6393 101.259 57.8437C101.259 54.958 99.8477 53.2265 97.5391 53.2265C94.0762 53.2265 92.0882 56.5612 92.0882 60.0241C92.0882 62.7175 93.3066 65.475 96 66.8217C93.7555 71.8878 90.485 76.5051 89.2024 76.5051C87.5992 76.5051 87.0862 68.6173 87.2144 62.974C87.2786 59.7676 87.5351 59.5752 87.5351 58.6133C87.5351 58.0361 87.1503 57.6513 85.6754 57.6513C82.2766 57.6513 81.1864 60.5371 81.0581 63.8718C80.994 65.1544 80.8016 66.3728 80.481 67.5912C79.0701 72.6574 76.1202 76.5692 74.1964 76.5692C73.2986 76.5692 73.0421 75.6714 73.0421 74.5171C73.0421 70.8618 75.0942 66.2445 75.0942 62.3327C75.0942 59.4469 73.8116 57.6513 71.4389 57.6513C68.6172 57.6513 64.9619 60.986 61.4349 67.2065C62.5892 62.461 63.0381 57.8437 59.6393 57.8437C58.8697 57.8437 58.1643 58.0361 57.523 58.4209C57.0741 58.6133 56.8176 59.0622 56.8176 59.5752C57.1383 64.6413 52.7134 77.6594 48.5451 77.6594C47.7755 77.6594 47.3908 76.8257 47.3908 75.479C47.3908 71.8237 49.5711 64.0642 50.6613 60.473C50.7896 60.0241 50.8537 59.6393 50.8537 59.2546C50.8537 58.2926 50.2766 57.7796 48.8657 57.7796C47.3908 57.7796 45.7234 58.3568 44.1844 61.1143C43.6072 58.6774 42.004 57.6513 39.6954 57.6513C35.9118 57.6513 31.7435 61.6273 29.8838 66.8217C27.3828 73.7475 22.4449 80.481 15.7114 80.481C9.61924 80.481 6.41283 75.4149 6.41283 67.3988C6.41283 55.7916 14.9419 46.3648 21.2265 46.3648C24.2405 46.3648 25.6513 48.2886 25.6513 51.2385C25.6513 54.8297 23.6633 56.4329 23.6633 57.8437C23.6633 58.2285 23.984 58.6774 24.6894 58.6774C27.4469 58.6774 30.6533 55.471 30.6533 51.0461C30.6533 46.6213 27.1904 43.479 20.9058 43.479C10.4529 43.479 0 53.9319 0 67.3988C0 78.1083 5.25852 84.5211 14.3647 84.5211C20.5852 84.5211 26.0361 79.7115 28.9218 74.0682C29.2425 78.7495 31.3587 81.1864 34.6293 81.1864C37.515 81.1864 39.8236 79.455 41.6192 76.4409C42.3246 79.5832 44.1202 81.1223 46.493 81.1223C49.1864 81.1223 51.495 79.3908 53.6112 76.2485C53.6112 78.7495 54.1242 81.1223 56.3046 81.1223C57.3307 81.1223 58.5491 80.8658 58.7415 79.968C61.0501 70.5411 66.6934 62.7816 68.4249 62.7816C68.9379 62.7816 69.0661 63.2946 69.0661 63.8718C69.0661 66.4369 67.2705 71.6954 67.2705 75.0301C67.2705 78.6854 68.8096 81.0582 72.016 81.0582C75.5431 81.0582 79.1343 76.7616 81.507 70.4129C82.2766 76.3127 83.8798 81.0582 86.3808 81.0582C89.4589 81.0582 95.0381 74.5171 98.3727 67.5912C99.6553 67.7836 101.643 67.7195 103.567 66.3728C102.733 68.4249 102.285 70.6694 102.285 72.8497C102.285 79.2626 105.363 81.0582 107.992 81.0582C110.878 81.0582 113.186 79.3267 114.982 76.3127C115.559 79.0061 117.098 80.994 119.856 80.994C124.152 80.994 127.936 76.5692 127.936 72.9139C128 72.1443 127.551 71.5031 127.102 71.5031ZM37.3226 77.5952C35.5912 77.5952 34.8858 75.8638 34.8858 73.2345C34.8858 68.6814 38.0281 61.0501 41.2986 61.0501C42.7094 61.0501 43.2866 62.7175 43.2866 64.8337C43.2866 69.4509 40.3367 77.5952 37.3226 77.5952ZM97.1543 64C96.1283 62.7816 95.7435 61.0501 95.7435 59.5752C95.7435 57.7155 96.4489 56.1764 97.2184 56.1764C97.988 56.1764 98.3086 56.9459 98.3086 58.1002C98.2445 59.8958 97.6032 62.6534 97.1543 64ZM110.685 77.5952C108.954 77.5952 108.248 75.5431 108.248 73.2345C108.248 68.8097 111.391 61.0501 114.661 61.0501C116.072 61.0501 116.585 62.7175 116.585 64.8337C116.649 69.4509 113.764 77.5952 110.685 77.5952Z" fill="url(#paint3_radial_240_6876)"/>
<path d="M127.102 71.5031C126.91 71.5031 126.717 71.6313 126.589 71.952C125.307 75.6714 123.511 77.9159 122.036 77.9159C121.202 77.9159 120.882 76.954 120.882 75.5431C120.882 71.8878 123.062 64.1283 124.152 60.5371C124.281 60.0882 124.345 59.7035 124.345 59.3828C124.345 58.3568 123.768 57.8437 122.357 57.8437C120.882 57.8437 119.214 58.4209 117.675 61.1784C117.162 58.7415 115.495 57.7155 113.186 57.7155C110.557 57.7155 107.992 59.4469 105.876 62.2045C103.76 64.962 101.259 65.8598 99.3988 65.4109C100.745 62.1403 101.259 59.6393 101.259 57.8437C101.259 54.958 99.8477 53.2265 97.5391 53.2265C94.0762 53.2265 92.0882 56.5612 92.0882 60.0241C92.0882 62.7175 93.3066 65.475 96 66.8217C93.7555 71.8878 90.485 76.5051 89.2024 76.5051C87.5992 76.5051 87.0862 68.6173 87.2144 62.974C87.2786 59.7676 87.5351 59.5752 87.5351 58.6133C87.5351 58.0361 87.1503 57.6513 85.6754 57.6513C82.2766 57.6513 81.1864 60.5371 81.0581 63.8718C80.994 65.1544 80.8016 66.3728 80.481 67.5912C79.0701 72.6574 76.1202 76.5692 74.1964 76.5692C73.2986 76.5692 73.0421 75.6714 73.0421 74.5171C73.0421 70.8618 75.0942 66.2445 75.0942 62.3327C75.0942 59.4469 73.8116 57.6513 71.4389 57.6513C68.6172 57.6513 64.9619 60.986 61.4349 67.2065C62.5892 62.461 63.0381 57.8437 59.6393 57.8437C58.8697 57.8437 58.1643 58.0361 57.523 58.4209C57.0741 58.6133 56.8176 59.0622 56.8176 59.5752C57.1383 64.6413 52.7134 77.6594 48.5451 77.6594C47.7755 77.6594 47.3908 76.8257 47.3908 75.479C47.3908 71.8237 49.5711 64.0642 50.6613 60.473C50.7896 60.0241 50.8537 59.6393 50.8537 59.2546C50.8537 58.2926 50.2766 57.7796 48.8657 57.7796C47.3908 57.7796 45.7234 58.3568 44.1844 61.1143C43.6072 58.6774 42.004 57.6513 39.6954 57.6513C35.9118 57.6513 31.7435 61.6273 29.8838 66.8217C27.3828 73.7475 22.4449 80.481 15.7114 80.481C9.61924 80.481 6.41283 75.4149 6.41283 67.3988C6.41283 55.7916 14.9419 46.3648 21.2265 46.3648C24.2405 46.3648 25.6513 48.2886 25.6513 51.2385C25.6513 54.8297 23.6633 56.4329 23.6633 57.8437C23.6633 58.2285 23.984 58.6774 24.6894 58.6774C27.4469 58.6774 30.6533 55.471 30.6533 51.0461C30.6533 46.6213 27.1904 43.479 20.9058 43.479C10.4529 43.479 0 53.9319 0 67.3988C0 78.1083 5.25852 84.5211 14.3647 84.5211C20.5852 84.5211 26.0361 79.7115 28.9218 74.0682C29.2425 78.7495 31.3587 81.1864 34.6293 81.1864C37.515 81.1864 39.8236 79.455 41.6192 76.4409C42.3246 79.5832 44.1202 81.1223 46.493 81.1223C49.1864 81.1223 51.495 79.3908 53.6112 76.2485C53.6112 78.7495 54.1242 81.1223 56.3046 81.1223C57.3307 81.1223 58.5491 80.8658 58.7415 79.968C61.0501 70.5411 66.6934 62.7816 68.4249 62.7816C68.9379 62.7816 69.0661 63.2946 69.0661 63.8718C69.0661 66.4369 67.2705 71.6954 67.2705 75.0301C67.2705 78.6854 68.8096 81.0582 72.016 81.0582C75.5431 81.0582 79.1343 76.7616 81.507 70.4129C82.2766 76.3127 83.8798 81.0582 86.3808 81.0582C89.4589 81.0582 95.0381 74.5171 98.3727 67.5912C99.6553 67.7836 101.643 67.7195 103.567 66.3728C102.733 68.4249 102.285 70.6694 102.285 72.8497C102.285 79.2626 105.363 81.0582 107.992 81.0582C110.878 81.0582 113.186 79.3267 114.982 76.3127C115.559 79.0061 117.098 80.994 119.856 80.994C124.152 80.994 127.936 76.5692 127.936 72.9139C128 72.1443 127.551 71.5031 127.102 71.5031ZM37.3226 77.5952C35.5912 77.5952 34.8858 75.8638 34.8858 73.2345C34.8858 68.6814 38.0281 61.0501 41.2986 61.0501C42.7094 61.0501 43.2866 62.7175 43.2866 64.8337C43.2866 69.4509 40.3367 77.5952 37.3226 77.5952ZM97.1543 64C96.1283 62.7816 95.7435 61.0501 95.7435 59.5752C95.7435 57.7155 96.4489 56.1764 97.2184 56.1764C97.988 56.1764 98.3086 56.9459 98.3086 58.1002C98.2445 59.8958 97.6032 62.6534 97.1543 64ZM110.685 77.5952C108.954 77.5952 108.248 75.5431 108.248 73.2345C108.248 68.8097 111.391 61.0501 114.661 61.0501C116.072 61.0501 116.585 62.7175 116.585 64.8337C116.649 69.4509 113.764 77.5952 110.685 77.5952Z" fill="url(#paint4_radial_240_6876)"/>
<path d="M127.102 71.5031C126.91 71.5031 126.717 71.6313 126.589 71.952C125.307 75.6714 123.511 77.9159 122.036 77.9159C121.202 77.9159 120.882 76.954 120.882 75.5431C120.882 71.8878 123.062 64.1283 124.152 60.5371C124.281 60.0882 124.345 59.7035 124.345 59.3828C124.345 58.3568 123.768 57.8437 122.357 57.8437C120.882 57.8437 119.214 58.4209 117.675 61.1784C117.162 58.7415 115.495 57.7155 113.186 57.7155C110.557 57.7155 107.992 59.4469 105.876 62.2045C103.76 64.962 101.259 65.8598 99.3988 65.4109C100.745 62.1403 101.259 59.6393 101.259 57.8437C101.259 54.958 99.8477 53.2265 97.5391 53.2265C94.0762 53.2265 92.0882 56.5612 92.0882 60.0241C92.0882 62.7175 93.3066 65.475 96 66.8217C93.7555 71.8878 90.485 76.5051 89.2024 76.5051C87.5992 76.5051 87.0862 68.6173 87.2144 62.974C87.2786 59.7676 87.5351 59.5752 87.5351 58.6133C87.5351 58.0361 87.1503 57.6513 85.6754 57.6513C82.2766 57.6513 81.1864 60.5371 81.0581 63.8718C80.994 65.1544 80.8016 66.3728 80.481 67.5912C79.0701 72.6574 76.1202 76.5692 74.1964 76.5692C73.2986 76.5692 73.0421 75.6714 73.0421 74.5171C73.0421 70.8618 75.0942 66.2445 75.0942 62.3327C75.0942 59.4469 73.8116 57.6513 71.4389 57.6513C68.6172 57.6513 64.9619 60.986 61.4349 67.2065C62.5892 62.461 63.0381 57.8437 59.6393 57.8437C58.8697 57.8437 58.1643 58.0361 57.523 58.4209C57.0741 58.6133 56.8176 59.0622 56.8176 59.5752C57.1383 64.6413 52.7134 77.6594 48.5451 77.6594C47.7755 77.6594 47.3908 76.8257 47.3908 75.479C47.3908 71.8237 49.5711 64.0642 50.6613 60.473C50.7896 60.0241 50.8537 59.6393 50.8537 59.2546C50.8537 58.2926 50.2766 57.7796 48.8657 57.7796C47.3908 57.7796 45.7234 58.3568 44.1844 61.1143C43.6072 58.6774 42.004 57.6513 39.6954 57.6513C35.9118 57.6513 31.7435 61.6273 29.8838 66.8217C27.3828 73.7475 22.4449 80.481 15.7114 80.481C9.61924 80.481 6.41283 75.4149 6.41283 67.3988C6.41283 55.7916 14.9419 46.3648 21.2265 46.3648C24.2405 46.3648 25.6513 48.2886 25.6513 51.2385C25.6513 54.8297 23.6633 56.4329 23.6633 57.8437C23.6633 58.2285 23.984 58.6774 24.6894 58.6774C27.4469 58.6774 30.6533 55.471 30.6533 51.0461C30.6533 46.6213 27.1904 43.479 20.9058 43.479C10.4529 43.479 0 53.9319 0 67.3988C0 78.1083 5.25852 84.5211 14.3647 84.5211C20.5852 84.5211 26.0361 79.7115 28.9218 74.0682C29.2425 78.7495 31.3587 81.1864 34.6293 81.1864C37.515 81.1864 39.8236 79.455 41.6192 76.4409C42.3246 79.5832 44.1202 81.1223 46.493 81.1223C49.1864 81.1223 51.495 79.3908 53.6112 76.2485C53.6112 78.7495 54.1242 81.1223 56.3046 81.1223C57.3307 81.1223 58.5491 80.8658 58.7415 79.968C61.0501 70.5411 66.6934 62.7816 68.4249 62.7816C68.9379 62.7816 69.0661 63.2946 69.0661 63.8718C69.0661 66.4369 67.2705 71.6954 67.2705 75.0301C67.2705 78.6854 68.8096 81.0582 72.016 81.0582C75.5431 81.0582 79.1343 76.7616 81.507 70.4129C82.2766 76.3127 83.8798 81.0582 86.3808 81.0582C89.4589 81.0582 95.0381 74.5171 98.3727 67.5912C99.6553 67.7836 101.643 67.7195 103.567 66.3728C102.733 68.4249 102.285 70.6694 102.285 72.8497C102.285 79.2626 105.363 81.0582 107.992 81.0582C110.878 81.0582 113.186 79.3267 114.982 76.3127C115.559 79.0061 117.098 80.994 119.856 80.994C124.152 80.994 127.936 76.5692 127.936 72.9139C128 72.1443 127.551 71.5031 127.102 71.5031ZM37.3226 77.5952C35.5912 77.5952 34.8858 75.8638 34.8858 73.2345C34.8858 68.6814 38.0281 61.0501 41.2986 61.0501C42.7094 61.0501 43.2866 62.7175 43.2866 64.8337C43.2866 69.4509 40.3367 77.5952 37.3226 77.5952ZM97.1543 64C96.1283 62.7816 95.7435 61.0501 95.7435 59.5752C95.7435 57.7155 96.4489 56.1764 97.2184 56.1764C97.988 56.1764 98.3086 56.9459 98.3086 58.1002C98.2445 59.8958 97.6032 62.6534 97.1543 64ZM110.685 77.5952C108.954 77.5952 108.248 75.5431 108.248 73.2345C108.248 68.8097 111.391 61.0501 114.661 61.0501C116.072 61.0501 116.585 62.7175 116.585 64.8337C116.649 69.4509 113.764 77.5952 110.685 77.5952Z" fill="url(#paint5_radial_240_6876)"/>
</g>
<defs>
<linearGradient id="paint0_linear_240_6876" x1="126.584" y1="85.23" x2="20.107" y2="59.8906" gradientUnits="userSpaceOnUse">
<stop stop-color="#7D2AE7"/>
<stop offset="0.7708" stop-color="#7D2AE7"/>
<stop offset="1" stop-color="#7D2AE7" stop-opacity="0"/>
</linearGradient>
<radialGradient id="paint1_radial_240_6876" cx="0" cy="0" r="1" gradientUnits="userSpaceOnUse" gradientTransform="translate(65.5277 88.9722) rotate(-45.8069) scale(38.5539 25.6223)">
<stop stop-color="#6420FF"/>
<stop offset="1" stop-color="#6420FF" stop-opacity="0"/>
</radialGradient>
<radialGradient id="paint2_radial_240_6876" cx="0" cy="0" r="1" gradientUnits="userSpaceOnUse" gradientTransform="translate(3.06316 70.8132) rotate(5.08826) scale(75.0339 59.8037)">
<stop offset="0.25" stop-color="#00C4CC"/>
<stop offset="1" stop-color="#00C4CC" stop-opacity="0"/>
</radialGradient>
<radialGradient id="paint3_radial_240_6876" cx="0" cy="0" r="1" gradientUnits="userSpaceOnUse" gradientTransform="translate(54.6236 84.4905) rotate(-38.8493) scale(48.3528 33.0622)">
<stop stop-color="#6420FF"/>
<stop offset="1" stop-color="#6420FF" stop-opacity="0"/>
</radialGradient>
<radialGradient id="paint4_radial_240_6876" cx="0" cy="0" r="1" gradientUnits="userSpaceOnUse" gradientTransform="translate(7.17025 91.6531) rotate(-34.2673) scale(56.3678 38.5426)">
<stop stop-color="#6420FF"/>
<stop offset="1" stop-color="#6420FF" stop-opacity="0"/>
</radialGradient>
<radialGradient id="paint5_radial_240_6876" cx="0" cy="0" r="1" gradientUnits="userSpaceOnUse" gradientTransform="translate(12.3155 47.2397) rotate(12.4717) scale(111.409 136.639)">
<stop stop-color="#00C4CC"/>
<stop offset="1" stop-color="#00C4CC" stop-opacity="0"/>
</radialGradient>
<clipPath id="clip0_240_6876">
<rect width="128" height="41.0421" fill="white" transform="translate(0 43.479)"/>
</clipPath>
</defs>
</svg>
