<svg xmlns="http://www.w3.org/2000/svg" viewBox="0 0 468.98 112.87" class="h-[27px] w-[112px] xl:h-[30px] xl:w-[125px]"><path d="M135.24 93.43q-11.11 0-19.09-4.72a32.35 32.35 0 0 1-12.27-13.32 43.9 43.9 0 0 1-4.3-19.83 43.86 43.86 0 0 1 4.3-19.82 32.13 32.13 0 0 1 12.27-13.42q8-4.83 19.09-4.83 13.22 0 21.61 6.61t10.59 18.33h-14.79a15.47 15.47 0 0 0-5.87-9.34q-4.41-3.47-11.75-3.46-10.17 0-15.94 6.92t-5.77 19 5.77 19 15.94 6.82q7.35 0 11.75-3.15a14.9 14.9 0 0 0 5.87-8.92h14.79q-2.1 11.34-10.59 17.73t-21.61 6.4m63.8 0a28.4 28.4 0 0 1-13.95-3.36 24.26 24.26 0 0 1-9.54-9.44 27.9 27.9 0 0 1-3.46-14.05 30.1 30.1 0 0 1 3.35-14.37 24.8 24.8 0 0 1 9.44-9.78 27.7 27.7 0 0 1 14.27-3.57 26.8 26.8 0 0 1 13.53 3.36 23.63 23.63 0 0 1 9.12 9.21 25.2 25.2 0 0 1 3.36 12.9c0 .77 0 1.58-.11 2.42s0 1.71-.1 2.62h-39.54a13.05 13.05 0 0 0 13.53 13 12.2 12.2 0 0 0 6.81-1.78 11.65 11.65 0 0 0 4.2-4.82h13.63a24.9 24.9 0 0 1-4.93 9 23.7 23.7 0 0 1-8.39 6.29 26.1 26.1 0 0 1-11.22 2.37m.11-43.63a14.12 14.12 0 0 0-8.71 2.83q-3.78 2.73-4.82 8.39h25.9a11.34 11.34 0 0 0-3.77-8.18 12.56 12.56 0 0 0-8.6-3.09Zm31 42.32v-52h12l1.26 9.75a21.22 21.22 0 0 1 19.19-11V53h-3.77a21.3 21.3 0 0 0-7.86 1.36 10.8 10.8 0 0 0-5.45 4.72q-1.94 3.35-1.94 9.35v23.7Zm78.28-60.1a8.68 8.68 0 0 1-6.08-2.2 7.36 7.36 0 0 1-2.31-5.56 7 7 0 0 1 2.31-5.45 8.68 8.68 0 0 1 6.08-2.21 8.3 8.3 0 0 1 6 2.21 6.87 6.87 0 0 1 2.41 5.45 7.2 7.2 0 0 1-2.41 5.56 8.3 8.3 0 0 1-6 2.2m-6.71 60.1v-52h13.43v52Zm26.7 0v-40.8h-7.13V40.1h7.13v-6.09q0-9.44 4.72-13.42t13-4h5.83v11.45h-3.67q-3.46 0-4.93 1.36t-1.47 4.61v6.09h31.46v52h-13.47V51.32h-18v40.8Zm38.28-59.47a8.68 8.68 0 0 1-6.08-2.2 7.36 7.36 0 0 1-2.31-5.56 7 7 0 0 1 2.31-5.46 8.68 8.68 0 0 1 6.08-2.21 8.3 8.3 0 0 1 6 2.21 6.86 6.86 0 0 1 2.42 5.45 7.21 7.21 0 0 1-2.44 5.55 8.3 8.3 0 0 1-5.98 2.22m38.75 60.78a28.4 28.4 0 0 1-14-3.36 24.3 24.3 0 0 1-9.48-9.49 27.9 27.9 0 0 1-3.46-14.05 30.1 30.1 0 0 1 3.35-14.37 24.8 24.8 0 0 1 9.43-9.73 27.7 27.7 0 0 1 14.27-3.57 26.8 26.8 0 0 1 13.53 3.36 23.63 23.63 0 0 1 9.12 9.21 25.2 25.2 0 0 1 3.36 12.9c0 .77 0 1.58-.11 2.42s0 1.71-.1 2.62h-39.54a13.05 13.05 0 0 0 13.53 13 12.17 12.17 0 0 0 6.81-1.78 11.65 11.65 0 0 0 4.2-4.82h13.61a24.7 24.7 0 0 1-4.93 9 23.7 23.7 0 0 1-8.39 6.29 26.1 26.1 0 0 1-11.2 2.37m.11-43.63a14.12 14.12 0 0 0-8.71 2.83q-3.78 2.73-4.82 8.39h25.94a11.34 11.34 0 0 0-3.77-8.18 12.56 12.56 0 0 0-8.64-3.09Zm31.01 42.32v-52h11.95l1.26 9.75a21.25 21.25 0 0 1 19.19-11V53h-3.77a21.3 21.3 0 0 0-7.87 1.36 10.83 10.83 0 0 0-5.45 4.72q-1.91 3.35-1.91 9.35v23.7Zm-151.09 0q-8.19 0-13.11-4t-4.93-14.16V26.15h13.42v14h14.11v11.17h-14.11v22.76c0 2.52.53 4.26 1.57 5.24s3 1.37 5.67 1.37h6.5v11.43Z"/><path fill-rule="evenodd" d="M14.06 38.64a25.92 25.92 0 0 1 51.83 0V58.7L39.97 73.99 14.06 58.7ZM39.97 0A38.64 38.64 0 0 0 1.33 38.64v27.33l38.64 22.8 38.64-22.8V38.64A38.64 38.64 0 0 0 39.97 0"/><path d="M-.03 89.28V73.99l40 23.58 40-23.58v15.29l-40 23.58Z"/></svg>