<?xml version="1.0" encoding="UTF-8" standalone="no"?>
<!DOCTYPE svg PUBLIC "-//W3C//DTD SVG 1.1//EN" "http://www.w3.org/Graphics/SVG/1.1/DTD/svg11.dtd">
<svg xmlns="http://www.w3.org/2000/svg" version="1.1" viewBox="0.00 0.00 60.00 60.00">
<path fill="#12202e" d="
  M 46.76 4.61
  C 54.10 11.97 49.09 24.77 39.03 24.92
  C 33.70 24.99 27.44 25.31 26.76 24.62
  C 26.03 23.89 26.35 17.63 26.44 12.30
  C 26.61 2.25 39.42 -2.75 46.76 4.61
  Z"
/>
<path fill="#f03748" d="
  M 24.34 33.50
  C 23.66 34.20 17.38 33.96 12.04 33.95
  C 1.97 33.92 -3.21 21.16 4.06 13.70
  C 11.33 6.24 24.22 11.09 24.51 21.16
  C 24.66 26.50 25.06 32.76 24.34 33.50
  Z"
/>
<path fill="#f03748" d="
  M 55.62 47.11
  C 48.24 54.41 35.48 49.34 35.38 39.30
  C 35.32 33.98 35.04 27.73 35.74 27.04
  C 36.47 26.32 42.71 26.67 48.04 26.78
  C 58.07 26.99 63.00 39.81 55.62 47.11
  Z"
/>
<path fill="#f03748" d="
  M 13.27 56.17
  C 5.87 48.84 10.84 35.99 20.91 35.80
  C 26.25 35.69 32.52 35.35 33.25 36.08
  C 33.94 36.77 33.65 43.04 33.59 48.38
  C 33.47 58.45 20.66 63.51 13.27 56.17
  Z"
/>
</svg>
