<svg id="Layer_1" data-name="Layer 1" xmlns="http://www.w3.org/2000/svg" viewBox="0 0 1256 360"><defs><style>.cls-1{fill:#007171;fill-rule:evenodd;}.cls-2{fill:#ffbe3c;stroke:#ffbe3c;stroke-width:2px;}.cls-3{fill:#005454;}.cls-4{fill:#1e2224;}.cls-5{fill:#272727;}</style></defs><path class="cls-1" d="M131.1,76.4h50.7a29,29,0,0,1,29,29V206.8a29,29,0,0,1-29,29h-7.2V294L53.5,221.3h63.2a14.51,14.51,0,0,0,14.5-14.5l-.1-130.4Z"/><path class="cls-2" d="M22.9,68.9l79.7-46.1a28,28,0,0,1,42,24.2V206.8a28,28,0,0,1-28,28H36.9a28,28,0,0,1-28-28V93.2A28.34,28.34,0,0,1,22.9,68.9Z"/><path class="cls-3" d="M174.6,76.4h-29V206.8a29,29,0,0,1-29,29H76.8L91.3,243h39.8a43.53,43.53,0,0,0,43.5-43.5Z"/><path class="cls-1" d="M355.6,187.1c12.2,0,22.6-6.1,28-16.2l2-4,22.9,13.4-1.9,3.6h0c-9.8,18.4-29.4,29.7-51,29.7-33.9,0-59.5-25.8-59.5-59.9s25.6-59.9,59.5-59.9c22.1,0,41.4,11.5,50.3,30.1h0l1.7,3.6-22.7,13.2-2-4.2c-4.6-9.9-15-16.2-27.3-16.2-18.7,0-32.7,14.3-32.7,33.4S336.9,187.1,355.6,187.1Z"/><path class="cls-1" d="M593,93.9c14.1,0,26.2,4.6,35.5,13.5V96.7h26.8V211H628.5V200.3c-9.3,8.9-21.4,13.5-35.5,13.5-31.7,0-57.4-27-57.4-59.9S561.3,93.9,593,93.9Zm2.3,93.6c-18.8,0-33-14.4-33-33.6s14.2-33.6,33-33.6,33.2,14.4,33.2,33.6S614.2,187.5,595.3,187.5Z"/><path class="cls-1" d="M852.8,93.9c14.1,0,26.2,4.6,35.5,13.5V96.7h26.8V211H888.3V200.3c-9.3,8.9-21.4,13.5-35.5,13.5-31.7,0-57.4-27-57.4-59.9S821.1,93.9,852.8,93.9Zm2.3,93.6c-18.8,0-33-14.4-33-33.6s14.2-33.6,33-33.6,33.2,14.4,33.2,33.6S874,187.5,855.1,187.5Z"/><path class="cls-1" d="M1017.1,98.3l-27,74.1L957.5,96.6H928.7l47.6,109.6-1.2,2.5v.1c-2.8,7-6.1,11.9-10.1,15a19.68,19.68,0,0,1-14,3.9l-4.6-.3v25.7l3.9.3c1.2.1,2.3.1,3.3.1h0c21.3,0,38.4-14.2,47.5-38.6h0l45.1-118.2h-29.3v1.6Z"/><path class="cls-1" d="M1102.2,187.9c11.7,0,21.6-5.1,26.6-13.4l2.1-3.5,23,13.1-2.5,3.7h0c-10.7,16.7-28.5,25.9-49.8,25.9-17.7,0-32.9-6.1-43.6-16.8s-16.9-25.6-16.9-43.2c0-34.6,25-59.9,59.3-59.9,32.3,0,56.6,26,56.7,60.1h0a52.57,52.57,0,0,1-.7,8.9h0l-.6,3.6h-86.2a29.28,29.28,0,0,0,10.8,15C1086.1,185.7,1093.5,187.9,1102.2,187.9Zm-1.7-68.1a30.06,30.06,0,0,1,17.7,5.5c4.8,3.5,8.8,8.8,11,16.7h-59.7C1073.5,128.2,1084.9,119.8,1100.5,119.8Z"/><path class="cls-1" d="M1225.4,94.8c-11.7,0-21.4,3.5-28.5,10.4V96.6h-26.8V211h26.8V150.7c0-9.5,2.6-16.5,7.5-21.3h0c4.8-4.7,12.2-7.2,20.9-6.9l4.4.2V94.8Z"/><path class="cls-1" d="M715.2,123h28V96.7h-28V69.4L688.4,85V96.8H667.6V123h20.8v53.1c0,12.6,3.2,22,10.1,28,6.2,5.4,14.8,7.9,26.4,7.9a113.2,113.2,0,0,0,14.6-1.1l3.7-.5V185.7l-6.5.3h0c-5.1.2-9.4.4-12.8.2s-5.5-.9-6.6-2h0c-1.2-1.2-2.1-3.5-2.1-8.2Z"/><path class="cls-1" d="M759.3,63.4V211h26.8V48H786Z"/><path class="cls-1" d="M421.7,69.9V211.1h26.8V150.7c0-13.8,4.3-21.3,9.4-25.4s11.8-5.2,16.8-5.2c7.2,0,12.6,2.1,16.2,5.9s5.7,9.4,5.7,17v68.2h26.8V141.9h0c0-14.3-4.4-26.3-12.3-34.7s-19.2-13.1-32.7-13.1c-12,0-22,3.5-29.8,10.5v-50Z"/><path class="cls-4" d="M971.2,322.6l12.6-7.3q3.75,7.5,12.6,7.5c5.6,0,9-2.5,9-6.1s-4.8-4.8-13-6.5c-11.3-2.5-18.6-7.1-18.6-16.7,0-10.3,10.5-17.4,22.2-17.4,10,0,16.9,2.7,23,10.3l-12.1,6.9c-2.3-4-5.7-5.9-10.7-5.9-5.2,0-8,2.3-8,5.4,0,3.8,5.7,4.6,13.4,6.5,10.5,2.7,18.6,6.3,18.6,16.9,0,10.9-10.7,18.4-24.1,18.4C985,334.5,976.6,331.4,971.2,322.6Zm56.7,10.4V284.3l14.2-8.2V333Zm24.1,0V303.1c0-15.3,11.3-27,27-27a26.63,26.63,0,0,1,27,27V333h-14.4V304.1c0-8.8-5.4-14-12.6-14-7.9,0-12.6,5.6-12.6,14V333Zm61.7-27.8c0-17.1,12.3-29.1,29.5-29.1,10.7,0,20.3,5.6,24.9,14.2l-12.3,7.3a14.12,14.12,0,0,0-12.8-7.7c-8.4,0-14.8,6.3-14.8,15.3,0,8.8,5.9,15.5,14.8,15.5,5.7,0,10.7-2.9,13-7.7l12.3,7.1a28.62,28.62,0,0,1-25.1,14.4C1126.2,334.5,1113.7,322.3,1113.7,305.2ZM1176,333V260.6l14.2-8.2v28a24.08,24.08,0,0,1,13.2-4.2c15.7,0,26.6,10.7,26.6,26.6V333h-14.4V304.1c0-8.8-5.4-14-12.6-14-7.9,0-12.6,5.6-12.6,14V333Z"/><path class="cls-5" d="M884.5,308.5c0,14.7-11.3,26.2-25.2,26.2-8.5,0-14.8-3.8-18.8-9.8v8.6h-8.7V263.9h8.7v28.4c4-6.1,10.3-9.8,18.8-9.8C873.2,282.4,884.5,293.8,884.5,308.5Zm-8.7,0a17.65,17.65,0,1,0-17.6,17.8A17.42,17.42,0,0,0,875.8,308.5Z"/><path class="cls-5" d="M936.8,283.6l-20.3,52.8c-4.2,11.1-11.9,17.5-22.1,16.8v-8.1c6.7.5,10.8-3.6,13.4-10.1l.9-1.9L887,283.6h9.3l16.9,39,14.3-39Z"/></svg>