<?xml version="1.0" encoding="UTF-8" standalone="no"?>
<!DOCTYPE svg PUBLIC "-//W3C//DTD SVG 1.1//EN" "http://www.w3.org/Graphics/SVG/1.1/DTD/svg11.dtd">
<svg xmlns="http://www.w3.org/2000/svg" version="1.1" viewBox="0.00 0.00 76.00 76.00">
<path stroke="#547b44" stroke-width="2.00" fill="none" stroke-linecap="butt" vector-effect="non-scaling-stroke" d="
  M 38.92 61.37
  L 42.94 72.18"
/>
<path fill="#404241" d="
  M 38.92 61.37
  L 42.94 72.18
  Q 40.11 73.62 35.20 72.87
  A 0.88 0.86 82.7 0 1 34.52 72.33
  L 13.65 20.76
  A 0.11 0.11 0.0 0 0 13.43 20.80
  L 13.43 72.70
  A 0.27 0.27 0.0 0 1 13.16 72.97
  L 5.28 72.97
  A 0.27 0.27 0.0 0 1 5.01 72.70
  L 5.01 3.73
  A 0.70 0.69 90.0 0 1 5.70 3.03
  L 14.84 3.03
  A 0.96 0.95 79.2 0 1 15.73 3.64
  L 38.92 61.37
  Z"
/>
<path fill="#67b346" d="
  M 42.94 72.18
  L 38.92 61.37
  L 60.72 3.61
  A 0.75 0.74 10.1 0 1 61.42 3.13
  L 70.35 3.13
  A 0.56 0.56 0.0 0 1 70.91 3.69
  L 70.91 72.63
  A 0.24 0.24 0.0 0 1 70.67 72.87
  L 63.11 72.87
  A 0.26 0.26 0.0 0 1 62.85 72.61
  L 62.85 21.14
  A 0.10 0.10 0.0 0 0 62.66 21.10
  L 42.94 72.18
  Z"
/>
</svg>
