<svg xmlns="http://www.w3.org/2000/svg" viewBox="0 0 2393.53 203.4">
    <defs><style>.logoFooter_name{fill:#15151a;}.logoFooter_madeBy{fill:#bcc2d2;}</style></defs>
    <g><g>
        <path class="logoFooter_name" d="M101.1,181.5q21.3,0,37.35-10.8a65,65,0,0,0,23.85-29.1H186q-9.9,28.2-32.7,44.4Q129,203.4,96,203.4q-43.5,0-70.5-29.7Q0,145.2,0,101.7t25.5-72Q52.5,0,96,0q33,0,57.3,17.4Q176.1,33.6,186,61.8H162.3a65,65,0,0,0-23.85-29.1q-16-10.8-37.35-10.8T65.7,28.05A67.11,67.11,0,0,0,42,45Q22.5,66.9,22.5,101.7T42,158.4Q62.4,181.5,101.1,181.5Z"/>
        <path class="logoFooter_name" d="M302.1,2.4v177H410.4V201H279.6V2.4Z"/>
        <path class="logoFooter_name" d="M672.89,201H648l-24.3-57.6h-98.4L501,201h-24.9L560.39,2.4h28.2ZM615,122.7l-40.5-96.9L534,122.7Z"/><path class="logoFooter_name" d="M780.59,201.31h-22.5V2.71h22.5Z"/><path class="logoFooter_name" d="M972.89,2.4a89.5,89.5,0,0,1,34.2,6.75,85.6,85.6,0,0,1,29.1,19.65q27.9,28.5,27.9,72.9t-27.9,72.9a85.6,85.6,0,0,1-29.1,19.65,89.5,89.5,0,0,1-34.2,6.75h-83.7V2.4ZM972,179.7q31.2,0,50.7-23.1,18.9-22.2,18.9-54.9t-18.9-54.9q-19.5-23.1-50.7-23.1h-60.3v156Z"/><path class="logoFooter_name" d="M1160.09,170.4V201H1131V170.4Z"/><path class="logoFooter_name" d="M1455.58,201h-24.9l-24.3-57.6H1308l-24.3,57.6h-24.89L1343.08,2.4h28.21Zm-57.9-78.3-40.5-96.9-40.5,96.9Z"/>
        <path class="logoFooter_name" d="M1503.28,200.27h-22.5V1.67h22.5Z"/>
        <path class="logoFooter_madeBy" d="M1634,1.67h10.19V27.61h.61c1.81-3.24,5.32-9.17,15-9.17,12.64,0,22,10,22,27s-9.2,27.1-21.88,27.1c-9.55,0-13.3-5.82-15.14-9.17h-.85v8.15h-10Zm23.65,62.14c9.11,0,13.88-8,13.88-18.51s-4.64-18.2-13.88-18.2c-8.89,0-13.67,7.26-13.67,18.2S1648.85,63.81,1657.61,63.81Z"/>
        <path class="logoFooter_madeBy" d="M1690.86,89.86l2.45-8.36c5.59,1.54,9.24.92,11.83-5.86l1.26-3.48-19.16-53h10.91l13.26,40.64h.55l13.26-40.64,11,.1-21.65,59.25c-3,8.11-8.35,12.51-16.77,12.51A18.58,18.58,0,0,1,1690.86,89.86Z"/><path class="logoFooter_madeBy" d="M1772.06,1.67h10.53V62.41h31.64v9.07h-42.17Z"/>
        <path class="logoFooter_madeBy" d="M1823.06,45.64c0-16.09,9.61-27.2,24.2-27.2,11.86,0,23.18,7.4,23.18,26.32v3.61h-37.22c.27,10.09,6.13,15.75,14.86,15.75,5.79,0,10.23-2.52,12.07-7.47l9.64,1.74c-2.31,8.52-10.39,14.15-21.81,14.15C1832.54,72.54,1823.06,61.9,1823.06,45.64Zm37.39-4.91c0-8-5.21-13.87-13.12-13.87-8.28,0-13.67,6.44-14.08,13.87Z"/><path class="logoFooter_madeBy" d="M1906.24,27.3H1895.5V56.11c0,5.9,3,7,6.27,7a16.2,16.2,0,0,0,3.58-.45l1.84,8.42a19.2,19.2,0,0,1-6.61,1.09c-8,.17-15.31-4.43-15.27-13.94V27.3h-7.67V19.12h7.67V6.58h10.19V19.12h10.74Z"/><path class="logoFooter_madeBy" d="M1928.84,8.21c0,5.8-3.41,13-8.66,17.25l-5-3.61c2.66-3.92,5-8.25,5-13.53V1.67h8.73Z"/><path class="logoFooter_madeBy" d="M1962.11,33.54c-1.19-3.51-4.12-7-10.46-7-5.8,0-10.16,2.86-10.13,6.89,0,3.54,2.46,5.48,8.22,6.85l8.32,1.91c9.61,2.21,14.31,6.78,14.31,14.18,0,9.47-8.76,16.19-21.4,16.19-11.76,0-19.47-5.22-21.17-14.49l9.85-1.5c1.23,5.15,5.15,7.77,11.25,7.77,6.68,0,11-3.17,11-7.22,0-3.28-2.35-5.53-7.4-6.65l-8.86-1.94c-9.82-2.19-14.32-7.13-14.32-14.56,0-9.27,8.39-15.51,20.22-15.51,11.31,0,17.69,5.32,19.8,13.47Z"/>
        <path class="logoFooter_madeBy" d="M2009.81,1.67h43.77v9.07h-33.24V32h31v9h-31V62.41H2054v9.07h-44.17Z"/>
        <path class="logoFooter_madeBy" d="M2077.07,71.48h-10.2V19.12h9.79v8.52h.65c2.42-5.55,7.56-9.2,15.44-9.2,10.7,0,17.83,6.78,17.83,19.74v33.3h-10.2V39.41c0-7.61-4.19-12.14-11.11-12.14-7.09,0-12.2,4.77-12.2,13.12Z"/><path class="logoFooter_madeBy" d="M2134.41,71.48h-10.19V1.67h10.05v26h.65c2.45-5.65,7.36-9.2,15.51-9.2,10.77,0,17.93,6.68,17.93,19.74v33.3h-10.19V39.41c0-7.67-4.2-12.14-11.22-12.14-7.26,0-12.54,4.77-12.54,13.12Z"/><path class="logoFooter_madeBy" d="M2179.55,56.69c0-11.9,10.15-14.49,20.07-15.65,9.41-1.09,13.23-1,13.23-4.74v-.24c0-5.93-3.37-9.37-9.95-9.37-6.86,0-10.67,3.58-12.17,7.3l-9.58-2.19c3.41-9.54,12.13-13.36,21.61-13.36,8.32,0,20.32,3,20.32,18.27V71.48h-10V64.32h-.41c-1.94,3.92-6.81,8.32-15.47,8.32C2187.28,72.64,2179.55,67,2179.55,56.69Zm33.33-4.09V45.85c-1.46,1.46-9.3,2.35-12.61,2.79-5.9.79-10.74,2.73-10.74,8.18,0,5,4.16,7.64,9.92,7.64C2207.94,64.46,2212.88,58.8,2212.88,52.6Z"/><path class="logoFooter_madeBy" d="M2246.84,71.48h-10.19V19.12h9.78v8.52h.65c2.42-5.55,7.57-9.2,15.44-9.2,10.7,0,17.83,6.78,17.83,19.74v33.3h-10.19V39.41c0-7.61-4.2-12.14-11.12-12.14-7.09,0-12.2,4.77-12.2,13.12Z"/>
        <path class="logoFooter_madeBy" d="M2291.64,45.54c0-16,9.54-27.1,24.3-27.1,11.9,0,20.52,7,21.61,17.59h-9.92a11.23,11.23,0,0,0-11.52-9c-8.52,0-14.18,7.06-14.18,18.27,0,11.42,5.56,18.61,14.18,18.61,5.83,0,10.23-3.34,11.52-9h9.92c-1.12,10.19-9.13,17.62-21.51,17.62C2300.84,72.54,2291.64,61.32,2291.64,45.54Z"/>
        <path class="logoFooter_madeBy" d="M2346.15,45.64c0-16.09,9.61-27.2,24.2-27.2,11.86,0,23.18,7.4,23.18,26.32v3.61h-37.22c.27,10.09,6.13,15.75,14.86,15.75,5.79,0,10.23-2.52,12.07-7.47l9.64,1.74c-2.32,8.52-10.39,14.15-21.81,14.15C2355.62,72.54,2346.15,61.9,2346.15,45.64Zm37.39-4.91c0-8-5.21-13.87-13.12-13.87-8.28,0-13.67,6.44-14.08,13.87Z"/>
    </g></g></svg>
