<?xml version="1.0" encoding="UTF-8" standalone="no"?>
<!DOCTYPE svg PUBLIC "-//W3C//DTD SVG 1.1//EN" "http://www.w3.org/Graphics/SVG/1.1/DTD/svg11.dtd">
<svg xmlns="http://www.w3.org/2000/svg" version="1.1" viewBox="0.00 0.00 326.00 326.00">
<g stroke-width="2.00" fill="none" stroke-linecap="butt">
<path stroke="#fd9a89" vector-effect="non-scaling-stroke" d="
  M 257.40 78.02
  Q 253.44 77.87 246.46 77.88
  C 244.56 77.88 243.57 78.45 242.25 79.74
  Q 218.56 102.93 156.03 164.78
  Q 153.83 166.95 153.41 167.26
  A 1.07 1.05 48.9 0 1 152.06 167.16
  L 117.78 134.11
  A 0.50 0.49 -66.9 0 0 116.95 134.45
  Q 116.53 143.63 116.87 152.38
  Q 116.96 154.87 118.31 157.19
  Q 133.58 183.45 152.39 215.93
  A 0.56 0.56 0.0 0 0 153.32 215.98
  L 257.63 78.52
  A 0.31 0.31 0.0 0 0 257.40 78.02"
/>
<path stroke="#b6b6b6" vector-effect="non-scaling-stroke" d="
  M 237.60 136.54
  L 232.03 143.87
  A 4.00 4.00 0.0 0 0 231.23 146.21
  Q 231.11 157.05 231.14 212.09
  Q 231.14 226.36 218.34 232.05
  Q 215.22 233.44 212.23 233.45
  Q 194.06 233.53 124.10 233.57
  Q 112.95 233.57 109.12 231.98
  Q 101.91 228.97 98.53 221.47
  C 96.57 217.11 96.72 212.25 96.72 206.75
  Q 96.70 128.62 96.74 123.00
  Q 96.78 117.98 96.99 115.76
  C 97.94 105.70 107.18 98.27 117.25 98.28
  Q 158.79 98.30 184.38 98.23
  C 189.30 98.22 194.16 97.81 198.91 97.83
  A 4.65 4.63 24.2 0 0 202.03 96.65
  L 206.34 92.79
  A 0.74 0.74 0.0 0 0 205.84 91.50
  Q 133.68 91.52 117.51 91.49
  C 104.50 91.47 93.80 99.87 90.68 112.45
  C 89.86 115.74 89.92 121.22 89.93 123.75
  Q 90.07 167.75 89.91 203.15
  Q 89.85 214.40 90.33 217.33
  C 92.44 230.11 103.30 240.26 116.50 240.26
  Q 162.11 240.29 210.50 240.27
  C 223.27 240.26 233.62 232.21 237.08 220.03
  Q 238.10 216.47 237.93 200.40
  Q 237.86 193.75 237.95 136.66
  A 0.20 0.19 63.8 0 0 237.60 136.54"
/>
</g>
<path fill="#ffffff" d="
  M 326.00 0.00
  L 326.00 326.00
  L 0.00 326.00
  L 0.00 0.00
  L 326.00 0.00
  Z
  M 257.40 78.02
  Q 253.44 77.87 246.46 77.88
  C 244.56 77.88 243.57 78.45 242.25 79.74
  Q 218.56 102.93 156.03 164.78
  Q 153.83 166.95 153.41 167.26
  A 1.07 1.05 48.9 0 1 152.06 167.16
  L 117.78 134.11
  A 0.50 0.49 -66.9 0 0 116.95 134.45
  Q 116.53 143.63 116.87 152.38
  Q 116.96 154.87 118.31 157.19
  Q 133.58 183.45 152.39 215.93
  A 0.56 0.56 0.0 0 0 153.32 215.98
  L 257.63 78.52
  A 0.31 0.31 0.0 0 0 257.40 78.02
  Z
  M 237.60 136.54
  L 232.03 143.87
  A 4.00 4.00 0.0 0 0 231.23 146.21
  Q 231.11 157.05 231.14 212.09
  Q 231.14 226.36 218.34 232.05
  Q 215.22 233.44 212.23 233.45
  Q 194.06 233.53 124.10 233.57
  Q 112.95 233.57 109.12 231.98
  Q 101.91 228.97 98.53 221.47
  C 96.57 217.11 96.72 212.25 96.72 206.75
  Q 96.70 128.62 96.74 123.00
  Q 96.78 117.98 96.99 115.76
  C 97.94 105.70 107.18 98.27 117.25 98.28
  Q 158.79 98.30 184.38 98.23
  C 189.30 98.22 194.16 97.81 198.91 97.83
  A 4.65 4.63 24.2 0 0 202.03 96.65
  L 206.34 92.79
  A 0.74 0.74 0.0 0 0 205.84 91.50
  Q 133.68 91.52 117.51 91.49
  C 104.50 91.47 93.80 99.87 90.68 112.45
  C 89.86 115.74 89.92 121.22 89.93 123.75
  Q 90.07 167.75 89.91 203.15
  Q 89.85 214.40 90.33 217.33
  C 92.44 230.11 103.30 240.26 116.50 240.26
  Q 162.11 240.29 210.50 240.27
  C 223.27 240.26 233.62 232.21 237.08 220.03
  Q 238.10 216.47 237.93 200.40
  Q 237.86 193.75 237.95 136.66
  A 0.20 0.19 63.8 0 0 237.60 136.54
  Z"
/>
<path fill="#fa3412" d="
  M 257.40 78.02
  A 0.31 0.31 0.0 0 1 257.63 78.52
  L 153.32 215.98
  A 0.56 0.56 0.0 0 1 152.39 215.93
  Q 133.58 183.45 118.31 157.19
  Q 116.96 154.87 116.87 152.38
  Q 116.53 143.63 116.95 134.45
  A 0.50 0.49 -66.9 0 1 117.78 134.11
  L 152.06 167.16
  A 1.07 1.05 48.9 0 0 153.41 167.26
  Q 153.83 166.95 156.03 164.78
  Q 218.56 102.93 242.25 79.74
  C 243.57 78.45 244.56 77.88 246.46 77.88
  Q 253.44 77.87 257.40 78.02
  Z"
/>
<path fill="#6c6c6c" d="
  M 237.60 136.54
  A 0.20 0.19 63.8 0 1 237.95 136.66
  Q 237.86 193.75 237.93 200.40
  Q 238.10 216.47 237.08 220.03
  C 233.62 232.21 223.27 240.26 210.50 240.27
  Q 162.11 240.29 116.50 240.26
  C 103.30 240.26 92.44 230.11 90.33 217.33
  Q 89.85 214.40 89.91 203.15
  Q 90.07 167.75 89.93 123.75
  C 89.92 121.22 89.86 115.74 90.68 112.45
  C 93.80 99.87 104.50 91.47 117.51 91.49
  Q 133.68 91.52 205.84 91.50
  A 0.74 0.74 0.0 0 1 206.34 92.79
  L 202.03 96.65
  A 4.65 4.63 24.2 0 1 198.91 97.83
  C 194.16 97.81 189.30 98.22 184.38 98.23
  Q 158.79 98.30 117.25 98.28
  C 107.18 98.27 97.94 105.70 96.99 115.76
  Q 96.78 117.98 96.74 123.00
  Q 96.70 128.62 96.72 206.75
  C 96.72 212.25 96.57 217.11 98.53 221.47
  Q 101.91 228.97 109.12 231.98
  Q 112.95 233.57 124.10 233.57
  Q 194.06 233.53 212.23 233.45
  Q 215.22 233.44 218.34 232.05
  Q 231.14 226.36 231.14 212.09
  Q 231.11 157.05 231.23 146.21
  A 4.00 4.00 0.0 0 1 232.03 143.87
  L 237.60 136.54
  Z"
/>
</svg>
