<?xml version="1.0" encoding="UTF-8" standalone="no"?>
<!DOCTYPE svg PUBLIC "-//W3C//DTD SVG 1.1//EN" "http://www.w3.org/Graphics/SVG/1.1/DTD/svg11.dtd">
<svg xmlns="http://www.w3.org/2000/svg" version="1.1" viewBox="0.00 0.00 400.00 400.00">
<g stroke-width="2.00" fill="none" stroke-linecap="butt">
<path stroke="#fea121" vector-effect="non-scaling-stroke" d="
  M 257.79 0.00
  Q 249.91 13.61 240.89 23.84
  Q 222.43 44.80 186.70 84.03
  Q 178.01 93.57 165.55 105.38"
/>
<path stroke="#ffce8b" vector-effect="non-scaling-stroke" d="
  M 165.55 105.38
  Q 145.45 110.39 125.38 115.39
  Q 114.82 118.03 111.50 120.24
  Q 102.89 125.99 100.04 136.86
  C 99.36 139.42 99.09 144.41 99.59 146.69
  Q 103.01 162.36 106.42 177.91"
/>
<path stroke="#fea121" vector-effect="non-scaling-stroke" d="
  M 106.42 177.91
  C 95.40 193.87 82.44 209.10 66.30 220.25"
/>
<path stroke="#ffce8b" vector-effect="non-scaling-stroke" d="
  M 66.30 220.25
  L 28.67 234.75
  A 0.83 0.83 0.0 0 0 28.15 235.68
  L 28.61 238.10
  A 0.66 0.65 -10.5 0 0 29.38 238.62
  L 57.50 233.32"
/>
<path stroke="#fea121" vector-effect="non-scaling-stroke" d="
  M 57.50 233.32
  Q 44.86 248.99 31.71 263.95
  C 22.30 274.66 12.67 284.73 0.00 291.62"
/>
<path stroke="#ffce8b" vector-effect="non-scaling-stroke" d="
  M 26.50 177.54
  A 0.50 0.50 0.0 0 0 27.07 177.95
  L 90.07 167.55
  A 0.50 0.50 0.0 0 0 90.47 166.94
  L 86.53 150.59
  A 0.50 0.50 0.0 0 0 85.85 150.25
  L 26.34 174.19
  A 0.50 0.50 0.0 0 0 26.04 174.74
  L 26.50 177.54"
/>
<path stroke="#fcaa36" vector-effect="non-scaling-stroke" d="
  M 400.00 148.10
  Q 382.11 166.53 364.97 185.63
  C 361.80 189.17 357.20 194.78 352.56 195.41
  A 0.43 0.43 0.0 0 1 352.08 194.90
  L 352.84 191.38
  A 2.68 2.68 0.0 0 1 352.97 190.99
  Q 355.34 185.31 352.00 182.28"
/>
<path stroke="#fed295" vector-effect="non-scaling-stroke" d="
  M 352.00 182.28
  Q 350.28 180.73 348.50 180.21
  Q 324.47 173.14 308.76 168.61
  C 305.37 167.63 303.30 167.45 300.74 169.39
  Q 299.39 170.41 298.01 174.90
  Q 293.32 190.08 289.92 204.99"
/>
<path stroke="#fcaa36" vector-effect="non-scaling-stroke" d="
  M 289.92 204.99
  Q 288.79 215.32 283.02 223.78
  Q 278.43 230.52 272.66 236.32"
/>
<path stroke="#fed295" vector-effect="non-scaling-stroke" d="
  M 272.66 236.32
  Q 267.34 226.45 261.90 216.56
  C 259.32 211.87 257.05 209.14 251.74 210.66
  A 3.81 3.26 17.4 0 0 250.99 210.98
  Q 231.53 221.92 223.57 226.33
  C 220.00 228.31 218.38 229.80 218.06 233.56
  Q 217.90 235.38 220.49 240.13
  Q 231.10 259.57 241.55 278.81"
/>
<path stroke="#fcaa36" vector-effect="non-scaling-stroke" d="
  M 241.55 278.81
  C 235.71 294.03 227.21 304.96 216.90 316.37
  C 191.93 344.01 166.44 371.38 142.58 400.00"
/>
<path stroke="#fed295" vector-effect="non-scaling-stroke" d="
  M 57.50 233.32
  L 103.35 224.70
  A 0.55 0.54 78.4 0 0 103.78 224.04
  L 99.88 207.90
  A 0.50 0.49 71.9 0 0 99.22 207.56
  L 66.30 220.25"
/>
<path stroke="#fed295" vector-effect="non-scaling-stroke" d="
  M 106.42 177.91
  Q 115.86 221.07 125.28 264.14
  Q 126.99 271.98 129.01 275.30
  C 134.13 283.75 143.10 288.57 152.95 288.36
  Q 156.92 288.27 163.72 285.40
  Q 172.01 281.91 215.52 264.45
  A 0.53 0.53 0.0 0 0 215.84 263.82
  L 212.76 251.05
  A 0.73 0.73 0.0 0 0 211.90 250.51
  Q 192.13 254.87 167.02 260.11
  Q 162.15 261.13 159.97 260.83
  C 153.65 259.94 149.26 254.46 148.07 248.47
  Q 141.29 214.24 128.40 148.28
  A 0.41 0.40 -85.2 0 1 128.94 147.82
  L 152.17 156.91
  A 1.47 0.16 39.4 0 1 153.00 157.45
  Q 153.38 157.74 154.10 157.62
  A 0.14 0.09 -31.7 0 1 154.17 157.62
  L 238.18 189.95
  A 0.97 0.96 -58.4 0 0 239.26 189.69
  L 308.02 110.35
  A 0.42 0.42 0.0 0 1 308.73 110.48
  L 329.75 166.86
  A 0.71 0.71 0.0 0 0 330.48 167.32
  L 338.40 166.68
  A 1.42 1.33 32.8 0 0 338.73 166.62
  L 342.76 165.40
  A 0.68 0.67 77.2 0 0 343.23 164.65
  Q 334.10 106.65 332.91 98.15
  Q 331.62 88.95 329.50 85.20
  C 325.02 77.25 317.21 72.23 308.27 70.84
  Q 305.70 70.44 299.87 71.90
  Q 232.70 88.67 165.55 105.38"
/>
<path stroke="#fed295" vector-effect="non-scaling-stroke" d="
  M 29.92 296.94
  A 0.44 0.44 0.0 0 0 30.43 297.29
  L 117.47 280.77
  A 0.44 0.44 0.0 0 0 117.81 280.23
  L 113.86 263.86
  A 0.44 0.44 0.0 0 0 113.28 263.55
  L 29.65 293.56
  A 0.44 0.44 0.0 0 0 29.37 294.06
  L 29.92 296.94"
/>
<path stroke="#fdd7a0" vector-effect="non-scaling-stroke" d="
  M 241.55 278.81
  Q 244.57 284.78 250.65 283.48
  A 2.85 2.73 -64.7 0 0 251.43 283.18
  L 281.40 266.38
  A 3.74 3.42 7.0 0 0 282.06 265.91
  Q 285.50 262.78 284.26 257.82
  A 3.41 3.10 26.4 0 0 284.01 257.18
  L 272.66 236.32"
/>
<path stroke="#fdd7a0" vector-effect="non-scaling-stroke" d="
  M 289.92 204.99
  Q 291.73 208.99 295.01 209.95
  Q 335.13 221.68 336.60 222.02
  Q 340.14 222.83 342.70 220.76
  Q 344.11 219.61 345.41 215.15
  Q 349.55 200.90 353.36 187.78
  Q 354.08 185.30 352.00 182.28"
/>
<path stroke="#fdd7a0" vector-effect="non-scaling-stroke" d="
  M 373.25 277.00
  A 8.24 8.24 0.0 0 0 373.03 265.34
  L 333.11 226.90
  A 8.24 8.24 0.0 0 0 321.45 227.12
  L 294.98 254.61
  A 8.24 8.24 0.0 0 0 295.20 266.27
  L 335.12 304.71
  A 8.24 8.24 0.0 0 0 346.78 304.49
  L 373.25 277.00"
/>
<path stroke="#fdd7a0" vector-effect="non-scaling-stroke" d="
  M 304.47 180.87
  L 298.82 201.22
  A 0.78 0.78 0.0 0 0 299.34 202.17
  L 334.99 213.19
  A 0.68 0.68 0.0 0 0 335.84 212.74
  L 341.84 193.34
  A 0.34 0.34 0.0 0 0 341.38 192.93
  L 323.24 201.21
  A 1.68 1.62 -53.7 0 1 322.41 201.35
  C 319.60 201.08 318.01 200.56 316.21 197.82
  Q 306.09 182.51 305.07 180.79
  A 0.33 0.33 0.0 0 0 304.47 180.87"
/>
<path stroke="#fdd7a0" vector-effect="non-scaling-stroke" d="
  M 254.41 266.79
  A 0.20 0.20 0.0 0 0 254.71 267.00
  L 271.16 257.51
  A 1.07 1.06 61.1 0 0 271.56 256.09
  L 253.83 223.04
  A 0.96 0.96 0.0 0 0 252.54 222.65
  L 234.15 232.52
  A 0.28 0.28 0.0 0 0 234.18 233.03
  L 255.02 241.05
  A 1.75 1.75 0.0 0 1 255.74 241.58
  Q 257.61 243.93 258.15 246.29
  A 2.10 2.05 44.4 0 1 258.17 247.19
  L 254.41 266.79"
/>
<path stroke="#fdd7a0" vector-effect="non-scaling-stroke" d="
  M 340.21 293.53
  A 0.39 0.39 0.0 0 0 340.76 293.52
  L 357.96 275.66
  A 0.39 0.39 0.0 0 0 357.70 275.00
  L 331.46 273.58
  A 0.39 0.39 0.0 0 1 331.22 273.47
  L 326.76 269.18
  A 0.39 0.39 0.0 0 1 326.65 268.94
  L 323.76 241.56
  A 0.39 0.39 0.0 0 0 323.09 241.33
  L 305.52 259.59
  A 0.39 0.39 0.0 0 0 305.53 260.14
  L 340.21 293.53"
/>
</g>
<path fill="#fe9d16" d="
  M 257.79 0.00
  Q 249.91 13.61 240.89 23.84
  Q 222.43 44.80 186.70 84.03
  Q 178.01 93.57 165.55 105.38
  Q 145.45 110.39 125.38 115.39
  Q 114.82 118.03 111.50 120.24
  Q 102.89 125.99 100.04 136.86
  C 99.36 139.42 99.09 144.41 99.59 146.69
  Q 103.01 162.36 106.42 177.91
  C 95.40 193.87 82.44 209.10 66.30 220.25
  L 28.67 234.75
  A 0.83 0.83 0.0 0 0 28.15 235.68
  L 28.61 238.10
  A 0.66 0.65 -10.5 0 0 29.38 238.62
  L 57.50 233.32
  Q 44.86 248.99 31.71 263.95
  C 22.30 274.66 12.67 284.73 0.00 291.62
  L 0.00 0.00
  L 257.79 0.00
  Z
  M 26.50 177.54
  A 0.50 0.50 0.0 0 0 27.07 177.95
  L 90.07 167.55
  A 0.50 0.50 0.0 0 0 90.47 166.94
  L 86.53 150.59
  A 0.50 0.50 0.0 0 0 85.85 150.25
  L 26.34 174.19
  A 0.50 0.50 0.0 0 0 26.04 174.74
  L 26.50 177.54
  Z"
/>
<path fill="#fda52b" d="
  M 400.00 0.00
  L 400.00 148.10
  Q 382.11 166.53 364.97 185.63
  C 361.80 189.17 357.20 194.78 352.56 195.41
  A 0.43 0.43 0.0 0 1 352.08 194.90
  L 352.84 191.38
  A 2.68 2.68 0.0 0 1 352.97 190.99
  Q 355.34 185.31 352.00 182.28
  Q 350.28 180.73 348.50 180.21
  Q 324.47 173.14 308.76 168.61
  C 305.37 167.63 303.30 167.45 300.74 169.39
  Q 299.39 170.41 298.01 174.90
  Q 293.32 190.08 289.92 204.99
  Q 288.79 215.32 283.02 223.78
  Q 278.43 230.52 272.66 236.32
  Q 267.34 226.45 261.90 216.56
  C 259.32 211.87 257.05 209.14 251.74 210.66
  A 3.81 3.26 17.4 0 0 250.99 210.98
  Q 231.53 221.92 223.57 226.33
  C 220.00 228.31 218.38 229.80 218.06 233.56
  Q 217.90 235.38 220.49 240.13
  Q 231.10 259.57 241.55 278.81
  C 235.71 294.03 227.21 304.96 216.90 316.37
  C 191.93 344.01 166.44 371.38 142.58 400.00
  L 0.00 400.00
  L 0.00 291.62
  C 12.67 284.73 22.30 274.66 31.71 263.95
  Q 44.86 248.99 57.50 233.32
  L 103.35 224.70
  A 0.55 0.54 78.4 0 0 103.78 224.04
  L 99.88 207.90
  A 0.50 0.49 71.9 0 0 99.22 207.56
  L 66.30 220.25
  C 82.44 209.10 95.40 193.87 106.42 177.91
  Q 115.86 221.07 125.28 264.14
  Q 126.99 271.98 129.01 275.30
  C 134.13 283.75 143.10 288.57 152.95 288.36
  Q 156.92 288.27 163.72 285.40
  Q 172.01 281.91 215.52 264.45
  A 0.53 0.53 0.0 0 0 215.84 263.82
  L 212.76 251.05
  A 0.73 0.73 0.0 0 0 211.90 250.51
  Q 192.13 254.87 167.02 260.11
  Q 162.15 261.13 159.97 260.83
  C 153.65 259.94 149.26 254.46 148.07 248.47
  Q 141.29 214.24 128.40 148.28
  A 0.41 0.40 -85.2 0 1 128.94 147.82
  L 152.17 156.91
  A 1.47 0.16 39.4 0 1 153.00 157.45
  Q 153.38 157.74 154.10 157.62
  A 0.14 0.09 -31.7 0 1 154.17 157.62
  L 238.18 189.95
  A 0.97 0.96 -58.4 0 0 239.26 189.69
  L 308.02 110.35
  A 0.42 0.42 0.0 0 1 308.73 110.48
  L 329.75 166.86
  A 0.71 0.71 0.0 0 0 330.48 167.32
  L 338.40 166.68
  A 1.42 1.33 32.8 0 0 338.73 166.62
  L 342.76 165.40
  A 0.68 0.67 77.2 0 0 343.23 164.65
  Q 334.10 106.65 332.91 98.15
  Q 331.62 88.95 329.50 85.20
  C 325.02 77.25 317.21 72.23 308.27 70.84
  Q 305.70 70.44 299.87 71.90
  Q 232.70 88.67 165.55 105.38
  Q 178.01 93.57 186.70 84.03
  Q 222.43 44.80 240.89 23.84
  Q 249.91 13.61 257.79 0.00
  L 400.00 0.00
  Z
  M 29.92 296.94
  A 0.44 0.44 0.0 0 0 30.43 297.29
  L 117.47 280.77
  A 0.44 0.44 0.0 0 0 117.81 280.23
  L 113.86 263.86
  A 0.44 0.44 0.0 0 0 113.28 263.55
  L 29.65 293.56
  A 0.44 0.44 0.0 0 0 29.37 294.06
  L 29.92 296.94
  Z"
/>
<path fill="#ffffff" d="
  M 106.42 177.91
  Q 103.01 162.36 99.59 146.69
  C 99.09 144.41 99.36 139.42 100.04 136.86
  Q 102.89 125.99 111.50 120.24
  Q 114.82 118.03 125.38 115.39
  Q 145.45 110.39 165.55 105.38
  Q 232.70 88.67 299.87 71.90
  Q 305.70 70.44 308.27 70.84
  C 317.21 72.23 325.02 77.25 329.50 85.20
  Q 331.62 88.95 332.91 98.15
  Q 334.10 106.65 343.23 164.65
  A 0.68 0.67 77.2 0 1 342.76 165.40
  L 338.73 166.62
  A 1.42 1.33 32.8 0 1 338.40 166.68
  L 330.48 167.32
  A 0.71 0.71 0.0 0 1 329.75 166.86
  L 308.73 110.48
  A 0.42 0.42 0.0 0 0 308.02 110.35
  L 239.26 189.69
  A 0.97 0.96 -58.4 0 1 238.18 189.95
  L 154.17 157.62
  A 0.14 0.09 -31.7 0 0 154.10 157.62
  Q 153.38 157.74 153.00 157.45
  A 1.47 0.16 39.4 0 0 152.17 156.91
  L 128.94 147.82
  A 0.41 0.40 -85.2 0 0 128.40 148.28
  Q 141.29 214.24 148.07 248.47
  C 149.26 254.46 153.65 259.94 159.97 260.83
  Q 162.15 261.13 167.02 260.11
  Q 192.13 254.87 211.90 250.51
  A 0.73 0.73 0.0 0 1 212.76 251.05
  L 215.84 263.82
  A 0.53 0.53 0.0 0 1 215.52 264.45
  Q 172.01 281.91 163.72 285.40
  Q 156.92 288.27 152.95 288.36
  C 143.10 288.57 134.13 283.75 129.01 275.30
  Q 126.99 271.98 125.28 264.14
  Q 115.86 221.07 106.42 177.91
  Z"
/>
<path fill="#fbae41" d="
  M 400.00 148.10
  L 400.00 400.00
  L 142.58 400.00
  C 166.44 371.38 191.93 344.01 216.90 316.37
  C 227.21 304.96 235.71 294.03 241.55 278.81
  Q 244.57 284.78 250.65 283.48
  A 2.85 2.73 -64.7 0 0 251.43 283.18
  L 281.40 266.38
  A 3.74 3.42 7.0 0 0 282.06 265.91
  Q 285.50 262.78 284.26 257.82
  A 3.41 3.10 26.4 0 0 284.01 257.18
  L 272.66 236.32
  Q 278.43 230.52 283.02 223.78
  Q 288.79 215.32 289.92 204.99
  Q 291.73 208.99 295.01 209.95
  Q 335.13 221.68 336.60 222.02
  Q 340.14 222.83 342.70 220.76
  Q 344.11 219.61 345.41 215.15
  Q 349.55 200.90 353.36 187.78
  Q 354.08 185.30 352.00 182.28
  Q 355.34 185.31 352.97 190.99
  A 2.68 2.68 0.0 0 0 352.84 191.38
  L 352.08 194.90
  A 0.43 0.43 0.0 0 0 352.56 195.41
  C 357.20 194.78 361.80 189.17 364.97 185.63
  Q 382.11 166.53 400.00 148.10
  Z
  M 373.25 277.00
  A 8.24 8.24 0.0 0 0 373.03 265.34
  L 333.11 226.90
  A 8.24 8.24 0.0 0 0 321.45 227.12
  L 294.98 254.61
  A 8.24 8.24 0.0 0 0 295.20 266.27
  L 335.12 304.71
  A 8.24 8.24 0.0 0 0 346.78 304.49
  L 373.25 277.00
  Z"
/>
<path fill="#ffffff" d="
  M 26.50 177.54
  L 26.04 174.74
  A 0.50 0.50 0.0 0 1 26.34 174.19
  L 85.85 150.25
  A 0.50 0.50 0.0 0 1 86.53 150.59
  L 90.47 166.94
  A 0.50 0.50 0.0 0 1 90.07 167.55
  L 27.07 177.95
  A 0.50 0.50 0.0 0 1 26.50 177.54
  Z"
/>
<path fill="#ffffff" d="
  M 352.00 182.28
  Q 354.08 185.30 353.36 187.78
  Q 349.55 200.90 345.41 215.15
  Q 344.11 219.61 342.70 220.76
  Q 340.14 222.83 336.60 222.02
  Q 335.13 221.68 295.01 209.95
  Q 291.73 208.99 289.92 204.99
  Q 293.32 190.08 298.01 174.90
  Q 299.39 170.41 300.74 169.39
  C 303.30 167.45 305.37 167.63 308.76 168.61
  Q 324.47 173.14 348.50 180.21
  Q 350.28 180.73 352.00 182.28
  Z
  M 304.47 180.87
  L 298.82 201.22
  A 0.78 0.78 0.0 0 0 299.34 202.17
  L 334.99 213.19
  A 0.68 0.68 0.0 0 0 335.84 212.74
  L 341.84 193.34
  A 0.34 0.34 0.0 0 0 341.38 192.93
  L 323.24 201.21
  A 1.68 1.62 -53.7 0 1 322.41 201.35
  C 319.60 201.08 318.01 200.56 316.21 197.82
  Q 306.09 182.51 305.07 180.79
  A 0.33 0.33 0.0 0 0 304.47 180.87
  Z"
/>
<path fill="#fbae41" d="
  M 304.47 180.87
  A 0.33 0.33 0.0 0 1 305.07 180.79
  Q 306.09 182.51 316.21 197.82
  C 318.01 200.56 319.60 201.08 322.41 201.35
  A 1.68 1.62 -53.7 0 0 323.24 201.21
  L 341.38 192.93
  A 0.34 0.34 0.0 0 1 341.84 193.34
  L 335.84 212.74
  A 0.68 0.68 0.0 0 1 334.99 213.19
  L 299.34 202.17
  A 0.78 0.78 0.0 0 1 298.82 201.22
  L 304.47 180.87
  Z"
/>
<path fill="#ffffff" d="
  M 57.50 233.32
  L 29.38 238.62
  A 0.66 0.65 -10.5 0 1 28.61 238.10
  L 28.15 235.68
  A 0.83 0.83 0.0 0 1 28.67 234.75
  L 66.30 220.25
  L 99.22 207.56
  A 0.50 0.49 71.9 0 1 99.88 207.90
  L 103.78 224.04
  A 0.55 0.54 78.4 0 1 103.35 224.70
  L 57.50 233.32
  Z"
/>
<path fill="#ffffff" d="
  M 272.66 236.32
  L 284.01 257.18
  A 3.41 3.10 26.4 0 1 284.26 257.82
  Q 285.50 262.78 282.06 265.91
  A 3.74 3.42 7.0 0 1 281.40 266.38
  L 251.43 283.18
  A 2.85 2.73 -64.7 0 1 250.65 283.48
  Q 244.57 284.78 241.55 278.81
  Q 231.10 259.57 220.49 240.13
  Q 217.90 235.38 218.06 233.56
  C 218.38 229.80 220.00 228.31 223.57 226.33
  Q 231.53 221.92 250.99 210.98
  A 3.81 3.26 17.4 0 1 251.74 210.66
  C 257.05 209.14 259.32 211.87 261.90 216.56
  Q 267.34 226.45 272.66 236.32
  Z
  M 254.41 266.79
  A 0.20 0.20 0.0 0 0 254.71 267.00
  L 271.16 257.51
  A 1.07 1.06 61.1 0 0 271.56 256.09
  L 253.83 223.04
  A 0.96 0.96 0.0 0 0 252.54 222.65
  L 234.15 232.52
  A 0.28 0.28 0.0 0 0 234.18 233.03
  L 255.02 241.05
  A 1.75 1.75 0.0 0 1 255.74 241.58
  Q 257.61 243.93 258.15 246.29
  A 2.10 2.05 44.4 0 1 258.17 247.19
  L 254.41 266.79
  Z"
/>
<path fill="#fbae41" d="
  M 254.41 266.79
  L 258.17 247.19
  A 2.10 2.05 44.4 0 0 258.15 246.29
  Q 257.61 243.93 255.74 241.58
  A 1.75 1.75 0.0 0 0 255.02 241.05
  L 234.18 233.03
  A 0.28 0.28 0.0 0 1 234.15 232.52
  L 252.54 222.65
  A 0.96 0.96 0.0 0 1 253.83 223.04
  L 271.56 256.09
  A 1.07 1.06 61.1 0 1 271.16 257.51
  L 254.71 267.00
  A 0.20 0.20 0.0 0 1 254.41 266.79
  Z"
/>
<path fill="#ffffff" d="
  M 373.25 277.00
  L 346.78 304.49
  A 8.24 8.24 0.0 0 1 335.12 304.71
  L 295.20 266.27
  A 8.24 8.24 0.0 0 1 294.98 254.61
  L 321.45 227.12
  A 8.24 8.24 0.0 0 1 333.11 226.90
  L 373.03 265.34
  A 8.24 8.24 0.0 0 1 373.25 277.00
  Z
  M 340.21 293.53
  A 0.39 0.39 0.0 0 0 340.76 293.52
  L 357.96 275.66
  A 0.39 0.39 0.0 0 0 357.70 275.00
  L 331.46 273.58
  A 0.39 0.39 0.0 0 1 331.22 273.47
  L 326.76 269.18
  A 0.39 0.39 0.0 0 1 326.65 268.94
  L 323.76 241.56
  A 0.39 0.39 0.0 0 0 323.09 241.33
  L 305.52 259.59
  A 0.39 0.39 0.0 0 0 305.53 260.14
  L 340.21 293.53
  Z"
/>
<path fill="#fbae41" d="
  M 340.21 293.53
  L 305.53 260.14
  A 0.39 0.39 0.0 0 1 305.52 259.59
  L 323.09 241.33
  A 0.39 0.39 0.0 0 1 323.76 241.56
  L 326.65 268.94
  A 0.39 0.39 0.0 0 0 326.76 269.18
  L 331.22 273.47
  A 0.39 0.39 0.0 0 0 331.46 273.58
  L 357.70 275.00
  A 0.39 0.39 0.0 0 1 357.96 275.66
  L 340.76 293.52
  A 0.39 0.39 0.0 0 1 340.21 293.53
  Z"
/>
<path fill="#ffffff" d="
  M 29.92 296.94
  L 29.37 294.06
  A 0.44 0.44 0.0 0 1 29.65 293.56
  L 113.28 263.55
  A 0.44 0.44 0.0 0 1 113.86 263.86
  L 117.81 280.23
  A 0.44 0.44 0.0 0 1 117.47 280.77
  L 30.43 297.29
  A 0.44 0.44 0.0 0 1 29.92 296.94
  Z"
/>
</svg>
