<svg width="128" height="128" viewBox="0 0 128 128" fill="none" xmlns="http://www.w3.org/2000/svg">
<g clip-path="url(#clip0_411_5998)">
<circle cx="64" cy="64" r="64" fill="#DA2726"/>
<path d="M45.8134 28.2646C47.8965 28.0956 49.5041 28.5196 50.6386 30.4826C53.133 34.7981 48.2171 37.3461 45.4001 39.5292C44.2405 40.4324 43.1722 41.447 42.2106 42.5586C39.0125 46.2265 36.7301 50.6007 35.5509 55.322C34.4691 59.6025 34.1201 63.8621 34.7387 68.2782C34.9459 69.7567 35.6774 71.7157 36.1567 73.1635C36.8845 75.361 37.796 77.283 38.9589 79.283C45.6097 90.722 59.778 96.7181 72.5997 93.558C74.2786 93.1442 75.8991 92.6336 77.5516 91.9917C79.9184 91.0831 83.1546 88.5165 85.8182 89.237C88.0147 89.8312 89.7235 92.5836 88.9594 94.8211C88.2584 96.874 87.0189 97.5021 85.3119 98.481C83.968 99.4924 80.2802 100.881 78.7112 101.448C68.8431 105.018 57.378 104.169 47.9585 99.6699C38.1351 94.9772 30.5832 86.0785 27.1477 75.7874C21.9216 60.1322 27.5842 40.2906 41.5065 30.9065C42.8942 29.9706 44.1944 28.7981 45.8134 28.2646Z" fill="#FEFEFE"/>
<path d="M96.2341 79.8379C98.7977 79.3331 101.286 81.0002 101.794 83.5632C102.302 86.1263 100.637 88.6163 98.075 89.1272C95.5082 89.6389 93.0132 87.9713 92.5045 85.4041C91.9957 82.8367 93.6662 80.3437 96.2341 79.8379Z" fill="#FEFEFE"/>
</g>
<defs>
<clipPath id="clip0_411_5998">
<rect width="128" height="128" fill="white"/>
</clipPath>
</defs>
</svg>
