<?xml version="1.0" encoding="UTF-8" standalone="no"?>
<!DOCTYPE svg PUBLIC "-//W3C//DTD SVG 1.1//EN" "http://www.w3.org/Graphics/SVG/1.1/DTD/svg11.dtd">
<svg xmlns="http://www.w3.org/2000/svg" version="1.1" viewBox="0.00 0.00 180.00 180.00">
<g stroke-width="2.00" fill="none" stroke-linecap="butt">
<path stroke="#8ed2d2" vector-effect="non-scaling-stroke" d="
  M 112.78 112.70
  C 96.22 128.97 69.00 121.11 63.83 98.44
  Q 59.55 79.71 74.99 67.94
  C 85.92 59.62 102.30 60.40 111.92 70.34
  A 1.43 1.42 -28.0 0 0 113.25 70.74
  L 126.48 67.73
  A 0.86 0.86 0.0 0 0 127.13 67.08
  L 130.14 53.10
  A 1.87 1.87 0.0 0 0 129.59 51.33
  C 105.65 28.75 68.49 31.86 48.53 58.00
  C 30.27 81.92 35.69 116.84 60.10 134.42
  C 81.57 149.89 110.92 147.88 130.05 129.23
  A 0.30 0.29 -59.1 0 0 129.93 128.74
  L 117.99 125.09
  A 1.41 1.40 -0.8 0 1 117.06 124.19
  L 113.30 112.82
  A 0.31 0.31 0.0 0 0 112.78 112.70"
/>
<path stroke="#8ed2d2" vector-effect="non-scaling-stroke" d="
  M 142.84 94.94
  A 12.94 12.94 0.0 0 0 129.90 82.00
  A 12.94 12.94 0.0 0 0 116.96 94.94
  A 12.94 12.94 0.0 0 0 129.90 107.88
  A 12.94 12.94 0.0 0 0 142.84 94.94"
/>
</g>
<path fill="#1da4a4" d="
  M 180.00 0.00
  L 180.00 180.00
  L 0.00 180.00
  L 0.00 0.00
  L 180.00 0.00
  Z
  M 112.78 112.70
  C 96.22 128.97 69.00 121.11 63.83 98.44
  Q 59.55 79.71 74.99 67.94
  C 85.92 59.62 102.30 60.40 111.92 70.34
  A 1.43 1.42 -28.0 0 0 113.25 70.74
  L 126.48 67.73
  A 0.86 0.86 0.0 0 0 127.13 67.08
  L 130.14 53.10
  A 1.87 1.87 0.0 0 0 129.59 51.33
  C 105.65 28.75 68.49 31.86 48.53 58.00
  C 30.27 81.92 35.69 116.84 60.10 134.42
  C 81.57 149.89 110.92 147.88 130.05 129.23
  A 0.30 0.29 -59.1 0 0 129.93 128.74
  L 117.99 125.09
  A 1.41 1.40 -0.8 0 1 117.06 124.19
  L 113.30 112.82
  A 0.31 0.31 0.0 0 0 112.78 112.70
  Z
  M 142.84 94.94
  A 12.94 12.94 0.0 0 0 129.90 82.00
  A 12.94 12.94 0.0 0 0 116.96 94.94
  A 12.94 12.94 0.0 0 0 129.90 107.88
  A 12.94 12.94 0.0 0 0 142.84 94.94
  Z"
/>
<path fill="#ffffff" d="
  M 112.78 112.70
  A 0.31 0.31 0.0 0 1 113.30 112.82
  L 117.06 124.19
  A 1.41 1.40 -0.8 0 0 117.99 125.09
  L 129.93 128.74
  A 0.30 0.29 -59.1 0 1 130.05 129.23
  C 110.92 147.88 81.57 149.89 60.10 134.42
  C 35.69 116.84 30.27 81.92 48.53 58.00
  C 68.49 31.86 105.65 28.75 129.59 51.33
  A 1.87 1.87 0.0 0 1 130.14 53.10
  L 127.13 67.08
  A 0.86 0.86 0.0 0 1 126.48 67.73
  L 113.25 70.74
  A 1.43 1.42 -28.0 0 1 111.92 70.34
  C 102.30 60.40 85.92 59.62 74.99 67.94
  Q 59.55 79.71 63.83 98.44
  C 69.00 121.11 96.22 128.97 112.78 112.70
  Z"
/>
<circle fill="#ffffff" cx="129.90" cy="94.94" r="12.94"/>
</svg>
