<svg width="146" height="60" viewBox="0 0 146 60" fill="none" xmlns="http://www.w3.org/2000/svg">
  <g clip-path="url(#clip0_636_3113)">
    <path d="M106.844 52.5087C106.493 52.2923 106.097 52.1813 105.664 52.1813C105.344 52.1813 105.035 52.2528 104.75 52.392C104.466 52.5313 104.234 52.7251 104.062 52.966L103.921 53.1616V50.2092H102.92V57.0305H103.921V56.2063L104.06 56.3963C104.232 56.6297 104.462 56.816 104.744 56.9496C105.027 57.0832 105.336 57.1509 105.666 57.1509C106.091 57.1509 106.487 57.0418 106.84 56.8235C107.195 56.6052 107.477 56.3041 107.682 55.9259C107.885 55.5477 107.989 55.1243 107.989 54.667C107.989 54.2098 107.887 53.7789 107.682 53.4025C107.479 53.028 107.197 52.727 106.846 52.5087H106.844ZM106.772 55.4705C106.635 55.7133 106.448 55.9071 106.212 56.0463C105.977 56.1856 105.712 56.2571 105.425 56.2571C105.139 56.2571 104.873 56.1856 104.638 56.0463C104.403 55.9071 104.215 55.7133 104.079 55.4705C103.942 55.2278 103.874 54.9568 103.874 54.667C103.874 54.3772 103.942 54.1063 104.079 53.8635C104.215 53.6208 104.403 53.427 104.638 53.2877C104.873 53.1485 105.139 53.077 105.425 53.077C105.712 53.077 105.977 53.1485 106.212 53.2877C106.448 53.427 106.635 53.6208 106.772 53.8635C106.908 54.1063 106.977 54.3772 106.977 54.667C106.977 54.9568 106.908 55.2278 106.772 55.4705Z" fill="#000000" fill-opacity="0.5"/>
    <path d="M112.054 52.3019L110.614 55.9543L109.217 52.3019H108.149L110.085 57.0381L109.863 57.5744C109.744 57.8623 109.611 58.0599 109.459 58.1822C109.306 58.3064 109.112 58.3685 108.888 58.3685C108.733 58.3685 108.587 58.3459 108.454 58.3027V59.1269C108.644 59.2021 108.849 59.2398 109.059 59.2398C109.454 59.2398 109.793 59.1193 110.068 58.8804C110.349 58.6357 110.611 58.2274 110.846 57.6629L113.082 52.2981H112.054V52.3019Z" fill="#000000" fill-opacity="0.5"/>
    <path d="M138.339 50.1943H136.315V57.0363H138.339V50.1943Z" fill="#000000" fill-opacity="0.5"/>
    <path d="M124.325 50.0269C122.969 50.0269 120.304 50.2489 118.77 54.7914L117.053 50.1943H114.918L117.725 57.0212L117.584 57.3543C117.305 58.0336 116.858 58.2406 116.259 58.2406C115.987 58.2443 115.722 58.1879 115.477 58.075V59.7516C115.714 59.8758 116.094 60.0019 116.623 60.0019C117.922 60.0019 118.844 59.2812 119.568 57.5217L120.672 54.8196C121.44 52.9492 122.5 51.7166 124.177 51.7166C125.07 51.7166 125.533 52.1193 125.533 52.6443V52.7422L123.87 52.9774C122.195 53.2126 121.357 53.9747 121.357 55.2091C121.357 56.4435 122.166 57.2037 123.534 57.2037C124.372 57.2037 125.182 56.9271 125.601 56.2064V57.0381H127.471V52.9661C127.471 51.1935 126.312 50.0287 124.33 50.0287H124.327L124.325 50.0269ZM125.525 54.3887C125.525 55.164 124.941 55.704 124.101 55.704C123.598 55.704 123.263 55.4537 123.263 55.0529C123.263 54.6258 123.583 54.3887 124.255 54.2908L125.525 54.1102V54.3868V54.3887Z" fill="#000000" fill-opacity="0.5"/>
    <path d="M137.333 47.0518C136.683 47.0518 136.154 47.5711 136.146 48.2147C136.146 48.8601 136.675 49.3832 137.326 49.3832C137.976 49.3832 138.504 48.8601 138.504 48.2147C138.5 47.573 137.978 47.0555 137.331 47.0518H137.333Z" fill="#000000" fill-opacity="0.5"/>
    <path d="M145.711 53.5043C145.711 51.3441 144.411 50.0269 142.304 50.0269C140.518 50.0269 138.883 51.44 138.883 53.6021C138.883 55.7642 140.558 57.2037 142.443 57.2037C144.159 57.2037 145.25 56.2347 145.583 55.0567L143.865 54.5712C143.657 55.0981 143.237 55.4575 142.469 55.4575C141.646 55.4575 140.948 54.9174 140.907 54.1271H145.68C145.695 54.0556 145.709 53.779 145.709 53.5024L145.711 53.5043ZM140.95 52.8269C140.979 52.3131 141.439 51.6489 142.318 51.6489C143.309 51.6489 143.685 52.2868 143.713 52.8269H140.95Z" fill="#000000" fill-opacity="0.5"/>
    <path d="M132.503 50.0267C131.596 50.0267 130.758 50.3861 130.269 51.1068V47.3396H128.258V57.0342H130.269V56.1479C130.758 56.8686 131.594 57.1998 132.503 57.1998C134.346 57.1998 135.771 55.6342 135.771 53.6114C135.771 51.5885 134.346 50.0229 132.503 50.0229V50.0267ZM131.987 55.4009C130.982 55.4009 130.2 54.6106 130.2 53.6133C130.2 52.6159 130.982 51.8256 131.987 51.8256C132.992 51.8256 133.773 52.6159 133.773 53.6133C133.773 54.6106 132.99 55.4009 131.987 55.4009Z" fill="#000000" fill-opacity="0.5"/>
    <path d="M0 27.3672C0 17.8645 6.91873 11 16.4965 11C24.5152 11 30.7018 15.9094 32.3974 23.2763C32.4429 23.5492 32.3064 23.7317 32.0313 23.7769L25.3876 24.7309C25.1126 24.7761 24.9287 24.6406 24.8831 24.3677C23.7831 20.5949 20.576 18.0489 16.4965 18.0489C11.3188 18.0489 7.56167 21.9591 7.56167 27.3691C7.56167 32.779 11.3188 36.6892 16.4965 36.6892C20.5741 36.6892 23.7831 34.1433 24.8831 30.3704C24.9287 30.0976 25.1126 29.9621 25.3876 30.0073L32.0313 30.9613C32.3064 31.0065 32.4429 31.1438 32.3974 31.4618C30.7474 38.7817 24.5607 43.7382 16.4965 43.7382C6.91873 43.7344 0 36.8699 0 27.3672Z" fill="#000000"/>
    <path d="M42.3905 43.281C36.6173 43.1436 33.6378 40.0538 33.6378 34.5969V12.3643C33.6378 12.0915 33.7743 11.9541 34.0493 11.909L40.0065 11.0452C40.2815 11.0001 40.511 11.1807 40.511 11.4536V34.2337C40.511 36.1436 41.4725 37.0073 43.261 37.235C43.536 37.2802 43.72 37.4627 43.6726 37.7356L42.8931 42.8727C42.8476 43.1907 42.7091 43.281 42.3886 43.281H42.3905Z" fill="#000000"/>
    <path d="M48.5316 11C50.7772 11 52.4272 12.6371 52.4272 14.8651C52.4272 17.093 50.7772 18.7301 48.5316 18.7301C46.2861 18.7301 44.636 17.093 44.636 14.8651C44.636 12.6371 46.2861 11 48.5316 11ZM45.095 42.8255V21.4567C45.095 21.1839 45.2335 21.0484 45.5066 21.0013L51.4637 20.1376C51.7387 20.0925 51.9682 20.275 51.9682 20.546V42.8237C51.9682 43.0965 51.7843 43.279 51.5093 43.279H45.5521C45.2771 43.279 45.0931 43.0965 45.0931 42.8237L45.095 42.8255Z" fill="#000000"/>
    <path d="M53.8003 31.9135C53.8003 25.1845 58.6119 20.0925 65.7601 20.0925C72.9083 20.0925 77.6289 25.1845 77.6289 31.9135C77.6289 32.414 77.5834 32.9597 77.5379 33.5054C77.4924 33.7783 77.3539 33.9138 77.0789 33.9138H61.0395C61.7261 36.0044 63.4691 37.3686 65.7601 37.3686C67.4102 37.3686 68.7852 36.6874 69.6102 35.5509C69.7467 35.3232 69.9307 35.2329 70.1602 35.278L76.4379 36.1869C76.7584 36.232 76.8968 36.4597 76.7584 36.6874C74.9718 40.8705 71.0762 43.7345 65.7601 43.7345C58.6119 43.7345 53.8003 38.6425 53.8003 31.9135ZM70.4807 29.8681C69.8397 27.6401 68.0986 26.2307 65.7601 26.2307C63.4216 26.2307 61.6825 27.6401 61.0395 29.8681H70.4788H70.4807Z" fill="#000000"/>
    <path d="M90.0041 20.0925C96.3728 20.0925 101.002 24.4581 101.002 31.1872V42.8256C101.002 43.0984 100.818 43.281 100.543 43.281H94.5408C94.2657 43.281 94.0818 43.0984 94.0818 42.8256V31.1872C94.0818 28.3683 92.3862 26.6861 90.0041 26.6861C87.622 26.6861 85.9265 28.3683 85.9265 31.1872V42.8256C85.9265 43.0984 85.7425 43.281 85.4675 43.281H79.4648C79.1898 43.281 79.0059 43.0984 79.0059 42.8256V31.1872C79.0059 24.4581 83.6335 20.0925 90.0041 20.0925Z" fill="#000000"/>
    <path d="M113.01 43.3712C106.457 43.3712 102.836 39.779 102.836 33.2325V16.0015C102.836 15.7287 102.975 15.5913 103.248 15.5462L109.205 14.6825C109.48 14.6373 109.71 14.8179 109.71 15.0908V20.5459H113.787C114.062 20.5459 114.292 20.7736 114.246 21.0464L113.421 26.7292C113.376 27.0472 113.237 27.1376 112.962 27.1376H109.71V32.8674C109.71 35.7314 111.176 37.0053 113.833 37.2763C114.108 37.3214 114.292 37.504 114.244 37.7768L113.467 42.9591C113.421 43.2771 113.283 43.3674 113.008 43.3674L113.01 43.3712Z" fill="#000000"/>
    <path d="M114.294 31.9135C114.294 25.0471 119.289 20.0925 126.208 20.0925C133.127 20.0925 138.122 25.049 138.122 31.9135C138.122 38.778 133.127 43.7345 126.208 43.7345C119.289 43.7345 114.294 38.778 114.294 31.9135ZM126.208 37.1428C129.14 37.1428 131.249 34.96 131.249 31.9135C131.249 28.867 129.14 26.6842 126.208 26.6842C123.276 26.6842 121.167 28.867 121.167 31.9135C121.167 34.96 123.274 37.1428 126.208 37.1428Z" fill="#000000"/>
    <path d="M137.895 39.6436C137.895 37.4157 139.545 35.7786 141.79 35.7786C144.036 35.7786 145.686 37.4157 145.686 39.6436C145.686 41.8716 144.036 43.5087 141.79 43.5087C139.545 43.5087 137.895 41.8716 137.895 39.6436Z" fill="#000000"/>
  </g>
  <defs>
    <clipPath id="clip0_636_3113">
      <rect width="146" height="60" fill="#000000"/>
    </clipPath>
  </defs>
</svg>
