<svg width="128" height="128" viewBox="0 0 128 128" fill="none" xmlns="http://www.w3.org/2000/svg">
<g clip-path="url(#clip0_240_6657)">
<path d="M64.2856 97.6083C28.4056 97.6083 0.285645 82.6683 0.285645 63.6083C0.285645 44.5483 28.4056 29.6083 64.2856 29.6083C100.166 29.6083 128.286 44.5483 128.286 63.6083C128.286 82.6683 100.166 97.6083 64.2856 97.6083ZM64.2856 39.6083C38.7456 39.6083 10.2856 49.4683 10.2856 63.6083C10.2856 77.7483 38.7456 87.6083 64.2856 87.6083C89.8256 87.6083 118.286 77.7483 118.286 63.6083C118.286 49.4683 89.8256 39.6083 64.2856 39.6083Z" fill="#4EC375"/>
<path d="M85.9453 121.688C69.9053 121.688 49.3853 105.828 34.8253 80.6084C26.5653 66.3084 21.5453 51.2084 20.6653 38.0684C19.7053 23.6684 23.8253 13.0684 32.2653 8.18842C40.7053 3.30842 51.9653 5.04842 63.9453 13.0684C74.8853 20.4084 85.4453 32.3084 93.7053 46.6084C111.645 77.6884 112.765 109.508 96.2653 119.028C93.1453 120.828 89.6653 121.688 85.9253 121.688H85.9453ZM42.7853 15.4884C40.7053 15.4884 38.8453 15.9284 37.2853 16.8484C32.3853 19.6684 29.9653 27.1684 30.6453 37.4084C31.4253 49.0484 35.9853 62.6284 43.4853 75.6284C56.2453 97.7484 79.0253 117.468 91.2653 110.388C103.505 103.308 97.8253 73.7484 85.0453 51.6284C77.5453 38.6284 68.0653 27.8884 58.3853 21.4084C52.5853 17.5284 47.1853 15.5284 42.7653 15.5284L42.7853 15.4884Z" fill="#1463FF"/>
<path d="M42.7654 121.748C38.9454 121.748 35.4254 120.848 32.2854 119.028C23.8454 114.148 19.7054 103.548 20.6854 89.1483C21.5654 76.0083 26.5854 60.9083 34.8454 46.6083C52.7854 15.5283 79.7854 -1.35167 96.2854 8.16833C112.785 17.7083 111.665 49.5083 93.7254 80.5883C85.4654 94.8883 74.9053 106.788 63.9654 114.128C56.4454 119.168 49.2054 121.728 42.7654 121.728V121.748ZM85.5254 15.3683C72.8054 15.3683 54.4654 32.5883 43.4854 51.5883C35.9854 64.5883 31.4254 78.1483 30.6454 89.8083C29.9654 100.048 32.3854 107.528 37.2854 110.368C42.1854 113.188 49.8653 111.548 58.4053 105.828C68.1054 99.3283 77.5654 88.5883 85.0654 75.6083C97.8254 53.4883 103.525 23.9083 91.2854 16.8483C89.5654 15.8483 87.6254 15.3883 85.5254 15.3883V15.3683Z" fill="#FFBC00"/>
<path d="M64.2856 87.6085C38.7456 87.6085 10.2856 77.7485 10.2856 63.6085H0.285645C0.285645 82.6685 28.4056 97.6085 64.2856 97.6085V87.6085Z" fill="#4EC375"/>
<path d="M66.5857 27.9085C63.9057 25.4285 61.1657 23.2285 58.4057 21.3685C55.6857 19.5485 53.0457 18.1285 50.5657 17.1485L53.8857 7.7085C57.1657 8.9685 60.5457 10.7485 63.9857 13.0685C67.6057 15.5085 71.2057 18.4285 74.6857 21.7885L66.6057 27.9085H66.5857Z" fill="#1463FF"/>
<path d="M74.6059 108.569C70.2859 106.249 65.7859 102.789 61.4259 98.6085L53.7659 105.269C58.2459 109.609 62.8459 113.169 67.4059 115.849L74.6259 108.569H74.6059Z" fill="#1463FF"/>
<path d="M110.365 51.3686C100.125 44.0886 81.5454 39.5886 64.2854 39.5886V29.5886C84.3854 29.5886 102.045 34.2686 113.705 41.7486L110.365 51.3686Z" fill="#4EC375"/>
</g>
<defs>
<clipPath id="clip0_240_6657">
<rect width="128" height="128" fill="white"/>
</clipPath>
</defs>
</svg>
