<?xml version="1.0" encoding="UTF-8" standalone="no"?>
<!DOCTYPE svg PUBLIC "-//W3C//DTD SVG 1.1//EN" "http://www.w3.org/Graphics/SVG/1.1/DTD/svg11.dtd">
<svg xmlns="http://www.w3.org/2000/svg" version="1.1" viewBox="0.00 0.00 411.00 102.00">
<path fill="#14728e" d="
  M 34.61 55.47
  Q 34.61 55.70 34.87 55.78
  Q 38.97 57.14 38.89 61.74
  Q 38.83 65.07 38.65 74.72
  Q 38.63 76.30 40.19 78.11
  A 1.74 1.72 -15.7 0 0 41.22 78.68
  Q 42.64 78.89 45.05 79.09
  A 1.74 1.64 9.0 0 1 46.63 81.13
  Q 46.51 81.60 46.01 81.98
  A 1.58 1.57 23.4 0 1 45.17 82.31
  C 36.83 83.07 34.17 79.88 34.58 71.80
  Q 34.89 65.84 34.96 62.51
  C 35.03 58.59 31.66 57.27 28.24 57.40
  A 0.90 0.89 -13.6 0 1 27.40 56.89
  Q 27.19 56.45 27.19 55.50
  Q 27.19 54.55 27.40 54.12
  A 0.90 0.89 13.5 0 1 28.24 53.61
  C 31.66 53.74 35.03 52.42 34.96 48.50
  Q 34.89 45.17 34.58 39.21
  C 34.16 31.13 36.82 27.94 45.16 28.69
  A 1.58 1.57 -23.4 0 1 46.00 29.02
  Q 46.50 29.40 46.62 29.87
  A 1.74 1.64 -9.0 0 1 45.04 31.91
  Q 42.63 32.11 41.21 32.32
  A 1.74 1.72 15.7 0 0 40.18 32.89
  Q 38.62 34.71 38.64 36.29
  Q 38.83 45.94 38.89 49.27
  Q 38.97 53.87 34.87 55.23
  Q 34.61 55.31 34.61 55.47
  Z"
/>
<path fill="#14728e" d="
  M 101.81 55.51
  Q 101.81 56.46 101.60 56.90
  A 0.90 0.89 13.6 0 1 100.76 57.41
  C 97.34 57.28 93.97 58.60 94.04 62.52
  Q 94.11 65.85 94.41 71.81
  C 94.82 79.89 92.16 83.08 83.82 82.32
  A 1.58 1.57 -23.4 0 1 82.98 81.99
  Q 82.48 81.61 82.36 81.14
  A 1.74 1.64 -8.9 0 1 83.94 79.10
  Q 86.35 78.90 87.77 78.69
  A 1.74 1.72 15.7 0 0 88.80 78.12
  Q 90.36 76.31 90.34 74.73
  Q 90.16 65.08 90.11 61.75
  Q 90.03 57.14 94.13 55.79
  Q 94.38 55.70 94.38 55.48
  Q 94.38 55.32 94.13 55.23
  Q 90.03 53.87 90.11 49.27
  Q 90.17 45.94 90.36 36.29
  Q 90.38 34.71 88.82 32.90
  A 1.74 1.72 -15.7 0 0 87.79 32.33
  Q 86.37 32.11 83.96 31.91
  A 1.74 1.64 9.0 0 1 82.38 29.87
  Q 82.50 29.40 83.00 29.02
  A 1.58 1.57 23.4 0 1 83.84 28.69
  C 92.18 27.94 94.84 31.13 94.43 39.21
  Q 94.11 45.17 94.04 48.50
  C 93.97 52.42 97.34 53.74 100.76 53.62
  A 0.90 0.89 -13.5 0 1 101.60 54.12
  Q 101.81 54.56 101.81 55.51
  Z"
/>
<rect fill="#db924a" x="176.93" y="29.00" width="9.06" height="48.00" rx="0.43"/>
<path fill="#db924a" d="
  M 294.54 29.28
  L 294.54 76.33
  A 0.67 0.67 0.0 0 1 293.87 77.00
  L 286.98 77.00
  A 0.83 0.83 0.0 0 1 286.15 76.17
  L 286.15 74.06
  A 0.40 0.40 0.0 0 0 285.44 73.81
  C 279.35 81.18 268.50 77.21 265.59 68.96
  C 262.73 60.83 263.24 45.38 274.38 42.93
  Q 280.83 41.52 285.07 45.85
  A 0.23 0.23 0.0 0 0 285.47 45.69
  L 285.47 29.31
  A 0.31 0.31 0.0 0 1 285.78 29.00
  L 294.26 29.00
  A 0.28 0.28 0.0 0 1 294.54 29.28
  Z
  M 273.10 60.10
  C 273.09 65.41 274.69 71.24 281.49 70.05
  Q 283.60 69.68 285.15 67.24
  A 1.95 1.88 -28.4 0 0 285.45 66.29
  Q 285.46 66.15 285.47 60.12
  Q 285.47 54.08 285.47 53.95
  A 1.95 1.88 28.6 0 0 285.17 53.00
  Q 283.63 50.55 281.52 50.17
  C 274.73 48.97 273.11 54.79 273.10 60.10
  Z"
/>
<rect fill="#db924a" x="353.95" y="28.98" width="8.98" height="48.00" rx="0.81"/>
<rect fill="#db924a" x="370.97" y="28.96" width="9.00" height="48.10" rx="0.99"/>
<ellipse fill="#db924a" cx="0.00" cy="0.00" transform="translate(341.45,34.46) rotate(-179.9)" rx="5.07" ry="4.67"/>
<path fill="#db924a" d="
  M 144.16 54.20
  C 144.11 60.36 144.43 69.24 152.46 69.86
  Q 161.42 70.56 162.25 62.13
  A 0.30 0.30 0.0 0 1 162.55 61.86
  L 171.40 61.86
  A 0.24 0.24 0.0 0 1 171.64 62.13
  Q 170.81 70.92 163.84 75.10
  C 158.59 78.25 150.25 78.49 144.76 75.59
  C 136.76 71.36 134.63 63.02 134.71 54.12
  C 134.79 45.22 137.05 36.92 145.13 32.83
  C 150.66 30.02 159.00 30.40 164.19 33.64
  Q 171.09 37.94 171.77 46.74
  A 0.24 0.24 0.0 0 1 171.53 47.01
  L 162.68 46.86
  A 0.30 0.30 0.0 0 1 162.38 46.58
  Q 161.70 38.14 152.73 38.68
  C 144.69 39.17 144.21 48.05 144.16 54.20
  Z"
/>
<path fill="#db924a" d="
  M 302.42 31.47
  L 331.29 31.47
  A 0.34 0.34 0.0 0 1 331.63 31.81
  L 331.63 38.74
  A 0.34 0.34 0.0 0 1 331.29 39.08
  L 311.77 39.08
  A 0.34 0.34 0.0 0 0 311.43 39.42
  L 311.43 50.49
  A 0.34 0.34 0.0 0 0 311.77 50.83
  L 329.09 50.83
  A 0.34 0.34 0.0 0 1 329.43 51.17
  L 329.43 58.09
  A 0.34 0.34 0.0 0 1 329.09 58.43
  L 311.77 58.43
  A 0.34 0.34 0.0 0 0 311.43 58.77
  L 311.43 76.66
  A 0.34 0.34 0.0 0 1 311.09 77.00
  L 302.42 77.00
  A 0.34 0.34 0.0 0 1 302.08 76.66
  L 302.08 31.81
  A 0.34 0.34 0.0 0 1 302.42 31.47
  Z"
/>
<path fill="#db924a" d="
  M 70.32 42.16
  A 0.98 0.98 0.0 0 1 70.32 40.77
  L 73.46 37.63
  A 3.99 3.81 -45.0 0 1 78.98 37.50
  L 83.22 41.74
  A 3.99 3.81 -45.0 0 1 83.09 47.26
  L 79.95 50.40
  A 0.98 0.98 0.0 0 1 78.56 50.40
  L 70.32 42.16
  Z"
/>
<path fill="#db924a" d="
  M 223.8144 63.1173
  A 14.41 14.41 0.0 0 1 209.2792 77.4010
  L 206.5993 77.3776
  A 14.41 14.41 0.0 0 1 192.3156 62.8424
  L 192.3656 57.1227
  A 14.41 14.41 0.0 0 1 206.9008 42.8390
  L 209.5807 42.8624
  A 14.41 14.41 0.0 0 1 223.8644 57.3976
  L 223.8144 63.1173
  Z
  M 201.13 60.14
  C 201.14 64.59 202.44 70.27 208.08 70.26
  C 213.72 70.25 215.01 64.57 215.01 60.12
  C 215.00 55.66 213.70 49.98 208.05 49.99
  C 202.41 50.00 201.12 55.68 201.13 60.14
  Z"
/>
<path fill="#db924a" d="
  M 250.13 74.28
  Q 245.01 78.67 238.71 77.23
  Q 235.93 76.60 234.13 75.12
  C 230.95 72.52 230.48 68.70 230.22 64.25
  Q 230.18 63.52 230.20 43.63
  A 0.44 0.43 -0.0 0 1 230.64 43.20
  L 238.89 43.20
  A 0.43 0.43 0.0 0 1 239.32 43.63
  Q 239.25 59.01 239.30 65.00
  Q 239.34 69.54 242.94 70.13
  Q 246.96 70.79 249.88 67.67
  A 1.85 1.84 -23.7 0 0 250.37 66.42
  L 250.37 43.55
  A 0.35 0.35 0.0 0 1 250.72 43.20
  L 259.07 43.20
  A 0.36 0.35 -0.0 0 1 259.43 43.55
  L 259.43 76.34
  A 0.67 0.66 -0.0 0 1 258.76 77.00
  L 251.56 77.00
  A 0.69 0.69 0.0 0 1 250.87 76.31
  L 250.87 74.62
  A 0.45 0.45 0.0 0 0 250.13 74.28
  Z"
/>
<rect fill="#db924a" x="336.93" y="43.18" width="9.06" height="33.80" rx="0.52"/>
<path fill="#db924a" d="
  M 72.73 47.96
  Q 75.00 50.23 76.80 52.11
  A 1.04 1.03 45.7 0 1 76.79 53.55
  L 56.87 73.47
  A 1.57 1.51 -69.6 0 1 55.95 73.92
  C 51.78 74.39 47.51 75.26 46.48 74.24
  C 45.45 73.21 46.32 68.94 46.79 64.77
  A 1.57 1.51 -20.4 0 1 47.23 63.84
  L 67.13 43.90
  A 1.04 1.03 44.3 0 1 68.58 43.89
  Q 70.45 45.69 72.73 47.96
  Z"
/>
</svg>
