<?xml version="1.0" encoding="UTF-8" standalone="no"?>
<!DOCTYPE svg PUBLIC "-//W3C//DTD SVG 1.1//EN" "http://www.w3.org/Graphics/SVG/1.1/DTD/svg11.dtd">
<svg xmlns="http://www.w3.org/2000/svg" version="1.1" viewBox="0.00 0.00 110.00 68.00">
<g stroke-width="2.00" fill="none" stroke-linecap="butt">
<path stroke="#e1e1e1" vector-effect="non-scaling-stroke" d="
  M 96.56 29.45
  L 73.29 30.48"
/>
<path stroke="#e6a09e" vector-effect="non-scaling-stroke" d="
  M 73.29 30.48
  L 72.12 24.29
  A 0.45 0.44 -27.6 0 0 71.37 24.06
  L 68.83 26.60
  A 0.72 0.71 -47.8 0 1 67.87 26.65
  C 62.51 22.27 56.29 20.02 49.33 21.56
  Q 39.78 23.68 35.17 32.84"
/>
<path stroke="#e1e1e1" vector-effect="non-scaling-stroke" d="
  M 35.17 32.84
  Q 24.22 33.62 14.52 31.79"
/>
<path stroke="#dd9896" vector-effect="non-scaling-stroke" d="
  M 73.29 30.48
  L 73.46 32.46"
/>
<path stroke="#da514e" vector-effect="non-scaling-stroke" d="
  M 73.46 32.46
  L 62.11 32.76"
/>
<path stroke="#dd9896" vector-effect="non-scaling-stroke" d="
  M 62.11 32.76
  C 55.03 26.41 45.67 29.07 42.26 37.71
  A 0.72 0.71 17.8 0 1 41.41 38.14
  L 34.64 36.33
  A 0.66 0.65 17.8 0 1 34.19 35.47
  L 35.17 32.84"
/>
<path stroke="#d59290" vector-effect="non-scaling-stroke" d="
  M 62.11 32.76
  L 58.71 35.75
  A 0.35 0.35 0.0 0 0 58.85 36.35
  L 74.25 40.46
  A 0.40 0.40 0.0 0 0 74.75 40.01
  L 73.46 32.46"
/>
<path stroke="#d0d0d0" vector-effect="non-scaling-stroke" d="
  M 110.00 48.89
  L 74.92 46.88"
/>
<path stroke="#bb7f7f" vector-effect="non-scaling-stroke" d="
  M 74.92 46.88
  L 67.46 44.97
  A 0.57 0.56 -72.4 0 0 66.80 45.32
  C 63.95 53.00 55.72 56.07 48.61 51.62"
/>
<path stroke="#c38585" vector-effect="non-scaling-stroke" d="
  M 48.61 51.62
  Q 45.36 50.85 50.51 47.26
  A 0.29 0.29 0.0 0 0 50.42 46.74
  L 34.56 42.51
  A 0.34 0.34 0.0 0 0 34.14 42.89
  L 35.26 50.04"
/>
<path stroke="#d0d0d0" vector-effect="non-scaling-stroke" d="
  M 35.26 50.04
  Q 17.50 49.51 0.00 50.39"
/>
<path stroke="#a62c2c" vector-effect="non-scaling-stroke" d="
  M 48.61 51.62
  L 35.71 51.70"
/>
<path stroke="#bb7d7d" vector-effect="non-scaling-stroke" d="
  M 35.71 51.70
  L 35.26 50.04"
/>
<path stroke="#b37777" vector-effect="non-scaling-stroke" d="
  M 74.92 46.88
  Q 72.19 56.80 63.00 60.52
  C 55.64 63.50 47.38 61.80 41.14 56.33
  A 0.65 0.64 42.6 0 0 40.26 56.36
  L 37.52 59.10
  A 0.36 0.36 0.0 0 1 36.91 58.90
  L 35.71 51.70"
/>
</g>
<path fill="#e9e9e9" d="
  M 58.99 0.00
  C 66.72 1.51 71.43 6.91 74.19 14.02
  A 0.54 0.54 0.0 0 0 75.01 14.25
  C 80.70 10.01 86.87 11.82 91.38 17.21
  Q 95.60 22.27 96.56 29.45
  L 73.29 30.48
  L 72.12 24.29
  A 0.45 0.44 -27.6 0 0 71.37 24.06
  L 68.83 26.60
  A 0.72 0.71 -47.8 0 1 67.87 26.65
  C 62.51 22.27 56.29 20.02 49.33 21.56
  Q 39.78 23.68 35.17 32.84
  Q 24.22 33.62 14.52 31.79
  C 14.33 24.02 17.18 15.54 24.04 11.45
  C 29.42 8.25 35.60 9.37 40.08 13.62
  A 0.41 0.40 34.9 0 0 40.72 13.51
  C 44.17 6.53 47.46 1.81 55.45 0.00
  L 58.99 0.00
  Z"
/>
<path fill="#e25753" d="
  M 73.29 30.48
  L 73.46 32.46
  L 62.11 32.76
  C 55.03 26.41 45.67 29.07 42.26 37.71
  A 0.72 0.71 17.8 0 1 41.41 38.14
  L 34.64 36.33
  A 0.66 0.65 17.8 0 1 34.19 35.47
  L 35.17 32.84
  Q 39.78 23.68 49.33 21.56
  C 56.29 20.02 62.51 22.27 67.87 26.65
  A 0.72 0.71 -47.8 0 0 68.83 26.60
  L 71.37 24.06
  A 0.45 0.44 -27.6 0 1 72.12 24.29
  L 73.29 30.48
  Z"
/>
<path fill="#d8d8d8" d="
  M 62.11 32.76
  L 58.71 35.75
  A 0.35 0.35 0.0 0 0 58.85 36.35
  L 74.25 40.46
  A 0.40 0.40 0.0 0 0 74.75 40.01
  L 73.46 32.46
  L 73.29 30.48
  L 96.56 29.45
  C 105.43 30.97 108.65 38.11 110.00 46.50
  L 110.00 48.89
  L 74.92 46.88
  L 67.46 44.97
  A 0.57 0.56 -72.4 0 0 66.80 45.32
  C 63.95 53.00 55.72 56.07 48.61 51.62
  Q 45.36 50.85 50.51 47.26
  A 0.29 0.29 0.0 0 0 50.42 46.74
  L 34.56 42.51
  A 0.34 0.34 0.0 0 0 34.14 42.89
  L 35.26 50.04
  Q 17.50 49.51 0.00 50.39
  L 0.00 47.41
  Q 0.71 41.57 4.02 37.01
  Q 8.12 31.35 14.52 31.79
  Q 24.22 33.62 35.17 32.84
  L 34.19 35.47
  A 0.66 0.65 17.8 0 0 34.64 36.33
  L 41.41 38.14
  A 0.72 0.71 17.8 0 0 42.26 37.71
  C 45.67 29.07 55.03 26.41 62.11 32.76
  Z"
/>
<path fill="#d24b48" d="
  M 73.46 32.46
  L 74.75 40.01
  A 0.40 0.40 0.0 0 1 74.25 40.46
  L 58.85 36.35
  A 0.35 0.35 0.0 0 1 58.71 35.75
  L 62.11 32.76
  L 73.46 32.46
  Z"
/>
<path fill="#ae3231" d="
  M 48.61 51.62
  L 35.71 51.70
  L 35.26 50.04
  L 34.14 42.89
  A 0.34 0.34 0.0 0 1 34.56 42.51
  L 50.42 46.74
  A 0.29 0.29 0.0 0 1 50.51 47.26
  Q 45.36 50.85 48.61 51.62
  Z"
/>
<path fill="#9e2626" d="
  M 74.92 46.88
  Q 72.19 56.80 63.00 60.52
  C 55.64 63.50 47.38 61.80 41.14 56.33
  A 0.65 0.64 42.6 0 0 40.26 56.36
  L 37.52 59.10
  A 0.36 0.36 0.0 0 1 36.91 58.90
  L 35.71 51.70
  L 48.61 51.62
  C 55.72 56.07 63.95 53.00 66.80 45.32
  A 0.57 0.56 -72.4 0 1 67.46 44.97
  L 74.92 46.88
  Z"
/>
<path fill="#c8c8c8" d="
  M 110.00 48.89
  L 110.00 51.47
  C 109.00 58.76 106.01 65.75 98.38 68.00
  L 12.74 68.00
  C 4.86 66.33 1.04 59.46 0.00 51.99
  L 0.00 50.39
  Q 17.50 49.51 35.26 50.04
  L 35.71 51.70
  L 36.91 58.90
  A 0.36 0.36 0.0 0 0 37.52 59.10
  L 40.26 56.36
  A 0.65 0.64 42.6 0 1 41.14 56.33
  C 47.38 61.80 55.64 63.50 63.00 60.52
  Q 72.19 56.80 74.92 46.88
  L 110.00 48.89
  Z"
/>
</svg>
