<svg width="128" height="128" viewBox="0 0 128 128" fill="none" xmlns="http://www.w3.org/2000/svg">
<path d="M119.655 67.3721C119.304 67.3721 119.025 67.0933 119.025 66.7421C119.025 66.4013 119.304 66.1121 119.655 66.1121C119.996 66.1121 120.285 66.3909 120.285 66.7421C120.285 67.0933 119.996 67.3721 119.655 67.3721ZM119.655 66.236C119.376 66.236 119.149 66.4632 119.149 66.7421C119.149 67.021 119.376 67.2482 119.655 67.2482C119.934 67.2482 120.161 67.021 120.161 66.7421C120.161 66.4632 119.934 66.236 119.655 66.236ZM119.975 67.0726H119.83L119.706 66.835H119.541V67.0726H119.407V66.3806H119.737C119.882 66.3806 119.975 66.4736 119.975 66.6078C119.975 66.7111 119.913 66.7834 119.83 66.8144L119.975 67.0726ZM119.727 66.7111C119.779 66.7111 119.83 66.6801 119.83 66.6078C119.83 66.5252 119.789 66.5045 119.727 66.5045H119.52V66.7111H119.727Z" fill="#404041"/>
<path d="M54.0176 66.05H55.6288V70.4396H58.4278V71.8443H54.0176V66.05Z" fill="#404041"/>
<path d="M60.0908 68.9627V68.9524C60.0908 67.2895 61.4335 65.9365 63.2203 65.9365C65.0071 65.9365 66.3292 67.2689 66.3292 68.9318V68.9524C66.3292 70.6153 64.9865 71.9683 63.1997 71.9683C61.4232 71.958 60.0908 70.6256 60.0908 68.9627ZM64.6973 68.9627V68.9524C64.6973 68.1158 64.0982 67.3928 63.21 67.3928C62.3321 67.3928 61.7434 68.1055 61.7434 68.9421V68.9627C61.7434 69.7993 62.3424 70.5223 63.2203 70.5223C64.1086 70.512 64.6973 69.7993 64.6973 68.9627Z" fill="#404041"/>
<path d="M68.3018 69.3035V66.05H69.9336V69.2725C69.9336 70.1091 70.3571 70.5016 70.9975 70.5016C71.6378 70.5016 72.0613 70.1194 72.0613 69.3138V66.05H73.6932V69.2622C73.6932 71.1316 72.6294 71.9476 70.9768 71.9476C69.3346 71.9579 68.3018 71.1213 68.3018 69.3035Z" fill="#404041"/>
<path d="M76.1514 66.05H78.3926C80.4583 66.05 81.6667 67.2378 81.6667 68.911V68.9317C81.6667 70.6049 80.448 71.8443 78.3616 71.8443H76.1617L76.1514 66.05ZM78.4133 70.419C79.3738 70.419 80.0142 69.8922 80.0142 68.9523V68.9317C80.0142 68.0021 79.3738 67.465 78.4133 67.465H77.7626V70.4086L78.4133 70.419Z" fill="#404041"/>
<path d="M83.9907 66.05H88.6282V67.465H85.5916V68.4462H88.339V69.7786H85.5916V71.8443H83.9907V66.05Z" fill="#404041"/>
<path d="M90.8591 66.05H92.46V70.4396H95.2694V71.8443H90.8591V66.05Z" fill="#404041"/>
<path d="M99.4626 66.0088H101.012L103.48 71.8443H101.755L101.332 70.8115H99.1011L98.6879 71.8443H97.0044L99.4626 66.0088ZM100.878 69.5618L100.237 67.9195L99.5865 69.5618H100.878Z" fill="#404041"/>
<path d="M105.546 66.05H108.283C109.171 66.05 109.781 66.2773 110.173 66.6801C110.514 67.0106 110.69 67.4547 110.69 68.0331V68.0538C110.69 68.942 110.215 69.5307 109.502 69.8302L110.886 71.8546H109.027L107.86 70.0988H107.157V71.8546H105.556L105.546 66.05ZM108.211 68.8387C108.758 68.8387 109.068 68.5702 109.068 68.157V68.1261C109.068 67.6716 108.738 67.4444 108.201 67.4444H107.147V68.8387H108.211Z" fill="#404041"/>
<path d="M113.003 66.05H117.661V67.4237H114.594V68.2913H117.372V69.5617H114.594V70.4809H117.703V71.8443H113.003V66.05Z" fill="#404041"/>
<path d="M50.506 69.6444C50.2788 70.1505 49.8037 70.512 49.184 70.512C48.306 70.512 47.707 69.7787 47.707 68.9524V68.9318C47.707 68.0952 48.2957 67.3825 49.1736 67.3825C49.8346 67.3825 50.3407 67.7853 50.5473 68.343H52.2412C51.9726 66.959 50.7539 65.9365 49.184 65.9365C47.3971 65.9365 46.0544 67.2895 46.0544 68.9524V68.9731C46.0544 70.636 47.3765 71.9683 49.1633 71.9683C50.6919 71.9683 51.89 70.9768 52.1998 69.6548L50.506 69.6444Z" fill="#404041"/>
<path d="M40.3943 65.5029L35.9634 62.9621L35.1991 62.6316L17.0728 62.7659V71.9581L40.3943 71.9685V65.5029Z" fill="white"/>
<path d="M32.3279 71.1215C32.5448 70.3778 32.4622 69.6962 32.1007 69.1901C31.7702 68.7253 31.2125 68.4567 30.5411 68.4258L17.8268 68.2605C17.7442 68.2605 17.6719 68.2192 17.6306 68.1572C17.5893 68.0952 17.579 68.0126 17.5996 67.93C17.6409 67.8061 17.7649 67.7131 17.8991 67.7028L30.727 67.5375C32.2453 67.4652 33.8979 66.2361 34.4762 64.7282L35.2096 62.8174C35.2405 62.7348 35.2509 62.6522 35.2302 62.5695C34.4039 58.8307 31.0679 56.042 27.0811 56.042C23.4042 56.042 20.285 58.4175 19.1695 61.7123C18.4466 61.1752 17.5273 60.886 16.5358 60.979C14.7696 61.1546 13.3546 62.5695 13.1791 64.3357C13.1378 64.7902 13.1687 65.2343 13.272 65.6474C10.3904 65.73 8.08716 68.0849 8.08716 70.9872C8.08716 71.2454 8.10782 71.5036 8.1388 71.7618C8.15946 71.8858 8.26274 71.9787 8.38668 71.9787H31.8528C31.9871 71.9787 32.111 71.8858 32.1524 71.7515L32.3279 71.1215Z" fill="#F38020"/>
<path d="M36.3768 62.9517C36.2631 62.9517 36.1392 62.9517 36.0256 62.962C35.943 62.962 35.8707 63.024 35.8397 63.1066L35.3439 64.8314C35.127 65.5751 35.2096 66.2568 35.5711 66.7628C35.9017 67.2276 36.4594 67.4962 37.1307 67.5271L39.8368 67.6924C39.9194 67.6924 39.9917 67.7337 40.033 67.7957C40.0743 67.8577 40.0847 67.9506 40.064 68.0229C40.0227 68.1469 39.8987 68.2398 39.7645 68.2501L36.9448 68.4154C35.4162 68.4877 33.774 69.7168 33.1956 71.2247L32.989 71.7515C32.9477 71.8548 33.02 71.958 33.1336 71.958H42.8217C42.9353 71.958 43.0386 71.8857 43.0696 71.7721C43.2348 71.1731 43.3278 70.543 43.3278 69.8924C43.3278 66.0605 40.2189 62.9517 36.3768 62.9517Z" fill="#FAAE40"/>
</svg>
