<svg class="logo" data-v-ea38df48="" viewBox="0 0 199.99 30" xmlns="http://www.w3.org/2000/svg"><g data-name="Layer 2" id="Layer_2"><g data-name="Layer 1" id="Layer_1-2"><path d="M4.4,4.4A14.92,14.92,0,0,1,15,0V7.5A7.47,7.47,0,0,0,9.7,9.7Z" fill="#f73ba0"></path><path d="M15,7.5A7.51,7.51,0,0,1,22.5,15H30A15,15,0,0,0,15,0Z" fill="#151f6d"></path><path d="M9.7,9.7A7.5,7.5,0,0,0,15,22.5V30A15,15,0,0,1,4.4,4.4Z" fill="#446cfc"></path><rect fill="#151f6d" height="7.5" width="7.5" x="22.5" y="22.5"></rect><path d="M43.42,11.05A6.6,6.6,0,0,1,46,8.43a7.39,7.39,0,0,1,3.72-.93,7.17,7.17,0,0,1,4.48,1.35,6.54,6.54,0,0,1,2.37,3.79h-4a2.88,2.88,0,0,0-1.06-1.48,3.09,3.09,0,0,0-1.85-.54,3,3,0,0,0-2.49,1.14A5.06,5.06,0,0,0,46.25,15a5,5,0,0,0,.92,3.21,3,3,0,0,0,2.49,1.14,2.79,2.79,0,0,0,2.91-2h4a6.71,6.71,0,0,1-2.39,3.75,7,7,0,0,1-4.46,1.39A7.39,7.39,0,0,1,46,21.57,6.6,6.6,0,0,1,43.42,19,8.2,8.2,0,0,1,42.5,15,8.2,8.2,0,0,1,43.42,11.05Z" fill="#151f6d"></path><path d="M61.74,21.57a6.7,6.7,0,0,1-2.64-2.64,7.83,7.83,0,0,1-1-3.93,7.67,7.67,0,0,1,1-3.93,6.76,6.76,0,0,1,2.69-2.64,8.23,8.23,0,0,1,7.6,0,6.83,6.83,0,0,1,2.69,2.64,7.77,7.77,0,0,1,1,3.93,7.47,7.47,0,0,1-1,3.93,7,7,0,0,1-2.72,2.64,8,8,0,0,1-3.85.93A7.66,7.66,0,0,1,61.74,21.57Zm5.65-2.75a3.59,3.59,0,0,0,1.4-1.46A4.9,4.9,0,0,0,69.32,15a4.42,4.42,0,0,0-1.09-3.19,3.59,3.59,0,0,0-2.66-1.11,3.51,3.51,0,0,0-2.64,1.11A4.45,4.45,0,0,0,61.87,15a4.53,4.53,0,0,0,1,3.19,3.43,3.43,0,0,0,2.61,1.11A3.87,3.87,0,0,0,67.39,18.82Z" fill="#151f6d"></path><path d="M75.51,11A6.32,6.32,0,0,1,81.27,7.5a5.87,5.87,0,0,1,2.84.66,5.59,5.59,0,0,1,2,1.65V7.74h3.69V22.26H86.07V20.14a5.51,5.51,0,0,1-2,1.69,5.93,5.93,0,0,1-2.87.67,6.15,6.15,0,0,1-3.34-.94,6.61,6.61,0,0,1-2.39-2.67A8.59,8.59,0,0,1,74.63,15,8.5,8.5,0,0,1,75.51,11Zm10,1.67a3.7,3.7,0,0,0-1.41-1.47,3.83,3.83,0,0,0-1.92-.51,3.75,3.75,0,0,0-1.89.49,3.86,3.86,0,0,0-1.4,1.46A4.54,4.54,0,0,0,78.38,15a4.67,4.67,0,0,0,.54,2.29,3.84,3.84,0,0,0,1.42,1.51,3.57,3.57,0,0,0,1.87.52,3.83,3.83,0,0,0,1.92-.51,3.74,3.74,0,0,0,1.41-1.46,4.74,4.74,0,0,0,.53-2.3A4.67,4.67,0,0,0,85.54,12.71Z" fill="#151f6d"></path><path d="M94.9,21.86a5.58,5.58,0,0,1-2.24-1.75,4.38,4.38,0,0,1-.91-2.43h3.7a2,2,0,0,0,.82,1.38,2.88,2.88,0,0,0,1.8.56,2.78,2.78,0,0,0,1.64-.42,1.28,1.28,0,0,0,.59-1.08,1.14,1.14,0,0,0-.72-1.06,13.34,13.34,0,0,0-2.3-.77,20.57,20.57,0,0,1-2.66-.82,4.69,4.69,0,0,1-1.78-1.28,3.46,3.46,0,0,1-.75-2.34,3.74,3.74,0,0,1,.7-2.2,4.6,4.6,0,0,1,2-1.57,7.38,7.38,0,0,1,3-.58A6.21,6.21,0,0,1,102,8.8a4.78,4.78,0,0,1,1.7,3.5h-3.51a1.89,1.89,0,0,0-.72-1.38,2.69,2.69,0,0,0-1.72-.51,2.64,2.64,0,0,0-1.53.37,1.16,1.16,0,0,0-.54,1,1.21,1.21,0,0,0,.73,1.12,11.55,11.55,0,0,0,2.28.77,19,19,0,0,1,2.6.81A4.58,4.58,0,0,1,103,15.8a3.52,3.52,0,0,1,.77,2.32,3.89,3.89,0,0,1-.69,2.26,4.64,4.64,0,0,1-2,1.56,8.4,8.4,0,0,1-6.23-.08Z" fill="#151f6d"></path><path d="M108.75,21.86a5.65,5.65,0,0,1-2.24-1.75,4.37,4.37,0,0,1-.9-2.43h3.69a2,2,0,0,0,.83,1.38,2.86,2.86,0,0,0,1.8.56,2.75,2.75,0,0,0,1.63-.42,1.27,1.27,0,0,0,.6-1.08,1.15,1.15,0,0,0-.73-1.06,13.16,13.16,0,0,0-2.29-.77,20.57,20.57,0,0,1-2.66-.82,4.72,4.72,0,0,1-1.79-1.28,3.51,3.51,0,0,1-.74-2.34,3.8,3.8,0,0,1,.69-2.2,4.69,4.69,0,0,1,2-1.57,7.35,7.35,0,0,1,3-.58,6.2,6.2,0,0,1,4.14,1.3,4.82,4.82,0,0,1,1.71,3.5H114a1.89,1.89,0,0,0-.72-1.38,3.24,3.24,0,0,0-3.25-.14,1.16,1.16,0,0,0-.54,1,1.22,1.22,0,0,0,.74,1.12,11.55,11.55,0,0,0,2.28.77,19.45,19.45,0,0,1,2.6.81,4.58,4.58,0,0,1,1.77,1.3,3.63,3.63,0,0,1,.77,2.32,3.83,3.83,0,0,1-.7,2.26,4.58,4.58,0,0,1-2,1.56,8.4,8.4,0,0,1-6.23-.08Z" fill="#151f6d"></path><path d="M133.69,16.1H123.07a3.63,3.63,0,0,0,1.1,2.47,3.42,3.42,0,0,0,2.39.89,3,3,0,0,0,2.91-1.76h4A6.62,6.62,0,0,1,131,21.15a7.05,7.05,0,0,1-4.38,1.35,7.6,7.6,0,0,1-3.76-.93,6.61,6.61,0,0,1-2.6-2.64,8,8,0,0,1-.93-3.93,8.27,8.27,0,0,1,.92-4,6.36,6.36,0,0,1,2.57-2.62,8.24,8.24,0,0,1,7.51,0,6.34,6.34,0,0,1,2.55,2.53,7.73,7.73,0,0,1,.9,3.77A8.65,8.65,0,0,1,133.69,16.1ZM130,13.64a2.93,2.93,0,0,0-1-2.27,3.63,3.63,0,0,0-2.44-.85,3.36,3.36,0,0,0-2.3.82,3.64,3.64,0,0,0-1.14,2.3Z" fill="#151f6d"></path><path d="M158.22,9.17a6.14,6.14,0,0,1,1.64,4.57v8.52h-3.67v-8a3.65,3.65,0,0,0-.86-2.61,3.13,3.13,0,0,0-2.36-.9,3.18,3.18,0,0,0-2.38.9,3.61,3.61,0,0,0-.87,2.61v8H146v-8a3.61,3.61,0,0,0-.86-2.61,3.12,3.12,0,0,0-2.36-.9,3.21,3.21,0,0,0-2.4.9,3.57,3.57,0,0,0-.88,2.61v8h-3.67V7.74h3.67V9.49a4.9,4.9,0,0,1,1.82-1.44,5.71,5.71,0,0,1,2.46-.52,6.32,6.32,0,0,1,3,.72,5.07,5.07,0,0,1,2.07,2.06,5.27,5.27,0,0,1,2.06-2,6.28,6.28,0,0,1,7.23.88Z" fill="#151f6d"></path><path d="M168.16,8.16A6,6,0,0,1,171,7.5a6.36,6.36,0,0,1,3.37.92A6.44,6.44,0,0,1,176.76,11a8.45,8.45,0,0,1,.88,3.92,8.59,8.59,0,0,1-.88,3.94,6.61,6.61,0,0,1-2.39,2.67,6.2,6.2,0,0,1-3.37.94,6,6,0,0,1-2.84-.64,5.54,5.54,0,0,1-2-1.67v2.07h-3.67V2.86h3.67v7A5.26,5.26,0,0,1,168.16,8.16Zm5.19,4.52A3.7,3.7,0,0,0,170,10.73a3.65,3.65,0,0,0-1.87.51,3.75,3.75,0,0,0-1.42,1.48A4.63,4.63,0,0,0,166.2,15a4.58,4.58,0,0,0,.54,2.28,3.75,3.75,0,0,0,1.42,1.48,3.71,3.71,0,0,0,3.77,0,3.92,3.92,0,0,0,1.42-1.49,4.7,4.7,0,0,0,.54-2.31A4.54,4.54,0,0,0,173.35,12.68Z" fill="#151f6d"></path><path d="M183.44,2.86v19.4h-3.67V2.86Z" fill="#151f6d"></path><path d="M199.89,16.1H189.27a3.59,3.59,0,0,0,1.1,2.47,3.39,3.39,0,0,0,2.38.89,3,3,0,0,0,2.91-1.76h4a6.61,6.61,0,0,1-2.41,3.45,7.05,7.05,0,0,1-4.38,1.35,7.57,7.57,0,0,1-3.76-.93,6.54,6.54,0,0,1-2.6-2.64,8,8,0,0,1-.93-3.93,8.27,8.27,0,0,1,.92-4A6.36,6.36,0,0,1,189,8.42a8.24,8.24,0,0,1,7.51,0,6.34,6.34,0,0,1,2.55,2.53,7.73,7.73,0,0,1,.9,3.77A8.65,8.65,0,0,1,199.89,16.1Zm-3.7-2.46a2.93,2.93,0,0,0-1-2.27,3.63,3.63,0,0,0-2.44-.85,3.34,3.34,0,0,0-2.3.82,3.64,3.64,0,0,0-1.14,2.3Z" fill="#151f6d"></path></g></g></svg>