<svg width="180" height="61" viewBox="0 0 180 61" fill="none" xmlns="http://www.w3.org/2000/svg">
<path d="M81.3031 28.1321C81.0629 27.0716 80.349 26.2674 79.1923 25.7463C78.6758 25.4998 77.5805 25.1644 75.634 24.6577C74.0874 24.2538 73.428 23.9434 73.1555 23.7601C72.8562 23.5493 72.728 23.3135 72.728 22.9697C72.728 21.3972 74.5594 21.2275 75.3469 21.2275C76.7469 21.2275 78.3825 21.665 79.6138 22.3687L80.0881 22.6403L81.2126 20.7231L80.7712 20.4417C79.3689 19.547 77.3886 19.0122 75.4751 19.0122C72.2337 19.0122 70.2204 20.5839 70.2204 23.1134C70.2204 24.1412 70.6357 24.9788 71.4209 25.5349C72.1117 26.0263 73.2738 26.4789 74.9608 26.9179C75.108 26.9687 75.2579 27.0114 75.4099 27.0457C75.505 27.0685 75.594 27.0898 75.6677 27.1142L76.5734 27.3424L77.2903 27.5607C77.8015 27.6992 77.9151 27.7631 78.2505 27.9533L78.3151 27.9898C78.5661 28.1199 78.6082 28.1952 78.7502 28.4463L78.7771 28.4881C78.8823 28.6402 78.8999 28.8403 78.8999 29.2321C78.8999 29.7806 78.6697 30.1671 78.1838 30.4493C77.6019 30.7855 76.869 30.9559 76.0062 30.9559C74.3107 30.9559 72.4378 30.4394 71.1192 29.6072L70.6441 29.3127L69.4774 31.2055L69.9057 31.4976C71.4446 32.5466 73.6767 33.1712 75.875 33.1712C79.223 33.1712 81.3868 31.5684 81.3868 29.0875C81.3936 28.767 81.3656 28.4466 81.3031 28.1321Z" fill="#06225D"/>
<path d="M88.2003 22.644C86.6797 22.644 85.3695 23.1597 84.3041 24.1754C83.2388 25.1909 82.6923 26.453 82.6923 27.9076C82.6923 29.3621 83.2357 30.6166 84.3041 31.6352C85.3725 32.6538 86.6797 33.1674 88.2003 33.1674C89.7207 33.1674 91.0317 32.6516 92.0971 31.6352C93.1801 30.6021 93.7297 29.3469 93.7297 27.9076C93.7297 26.4682 93.1801 25.2092 92.0971 24.1754C91.0317 23.1597 89.7177 22.644 88.2003 22.644ZM85.9283 25.7014C86.5333 25.1141 87.3467 24.7857 88.1935 24.7865C89.0403 24.7873 89.853 25.1175 90.4568 25.7059C90.7565 25.9911 90.9948 26.3335 91.1574 26.7123C91.3201 27.0912 91.4037 27.4989 91.4031 27.9106C91.4027 28.3223 91.318 28.7297 91.1545 29.1082C90.9909 29.4867 90.7518 29.8285 90.4515 30.113C90.1578 30.4085 89.8067 30.6418 89.4193 30.7988C89.0319 30.9557 88.6164 31.033 88.1979 31.0259C86.4326 31.0259 84.9934 29.6253 84.9934 27.9068C84.9839 27.4948 85.0621 27.0854 85.2228 26.7053C85.3834 26.3252 85.6231 25.9829 85.926 25.7007" fill="#06225D"/>
<path d="M108.288 22.6463C106.823 22.6463 105.457 23.1027 104.219 24.0003C103.552 23.1224 102.504 22.6463 101.202 22.6463C99.9951 22.6463 98.9542 22.9581 97.8689 23.6656V22.8288H95.5256V32.9908H97.8681V25.8444C98.8989 25.0274 99.6637 24.733 100.708 24.733C101.983 24.733 102.686 25.5196 102.686 26.9475V32.9908H105.011V27.057C105.011 26.6224 104.965 26.1889 104.874 25.7637C105.716 25.0885 106.767 24.7234 107.85 24.7307C109.107 24.7307 109.827 25.5379 109.827 26.9452V32.9886H112.152V26.6363C112.152 24.2118 110.636 22.644 108.288 22.644" fill="#06225D"/>
<path d="M120.3 22.6451C118.984 22.6386 117.695 23.0047 116.583 23.7003V22.827H114.241V32.9897H116.585V25.9148C117.522 25.1168 118.604 24.728 119.885 24.728C121.196 24.728 121.918 25.5147 121.918 26.9426V32.9859H124.261V26.6337C124.261 24.2092 122.709 22.6413 120.306 22.6413" fill="#06225D"/>
<path d="M128.887 22.8264H126.561V32.9891H128.887V22.8264Z" fill="#06225D"/>
<path d="M140.184 24.1754C139.119 23.1597 137.805 22.644 136.288 22.644C134.77 22.644 133.457 23.1597 132.392 24.1754C131.326 25.1909 130.78 26.453 130.78 27.9076C130.78 29.3621 131.323 30.6166 132.392 31.6352C133.46 32.6538 134.771 33.1674 136.288 33.1674C137.804 33.1674 139.119 32.6516 140.184 31.6352C141.268 30.6014 141.818 29.3461 141.818 27.9076C141.818 26.469 141.265 25.2107 140.184 24.1754ZM134.016 25.7014C134.621 25.1141 135.434 24.7857 136.281 24.7865C137.128 24.7873 137.94 25.1175 138.544 25.7059C139.181 26.3062 139.49 27.0266 139.49 27.9076C139.5 28.3213 139.42 28.7323 139.257 29.1128C139.092 29.4934 138.848 29.8346 138.54 30.1137C138.246 30.4092 137.895 30.6425 137.507 30.7994C137.119 30.9564 136.704 31.0337 136.285 31.0266C134.52 31.0266 133.081 29.6261 133.081 27.9076C133.071 27.4956 133.149 27.0863 133.31 26.7062C133.471 26.3261 133.711 25.9838 134.013 25.7014" fill="#06225D"/>
<path d="M73.1332 37.1153L72.9244 37.4706C72.4296 37.1955 71.8736 37.0467 71.3064 37.0377C70.6993 37.0377 70.1773 37.2766 70.1773 37.8525C70.1752 37.9396 70.1956 38.0258 70.2367 38.1027C70.2779 38.1798 70.3383 38.245 70.4122 38.2922C70.5749 38.4017 70.8888 38.5204 71.3578 38.6413C72.0041 38.8095 72.4147 38.9319 72.5913 39.0164C72.9495 39.1787 73.1649 39.4181 73.2375 39.7345C73.2566 39.8325 73.2654 39.9322 73.2637 40.032C73.2637 40.8726 72.4677 41.2926 71.4983 41.2926C70.7607 41.2926 70.0046 41.0856 69.4827 40.7304L69.6976 40.3812C70.2555 40.7133 70.8935 40.8897 71.5443 40.8916C71.848 40.9001 72.1484 40.8281 72.4147 40.6832C72.5246 40.626 72.6161 40.5393 72.6785 40.433C72.741 40.3267 72.7719 40.2051 72.7678 40.0822C72.7678 39.9301 72.7609 39.8106 72.6911 39.7072C72.6432 39.6018 72.5595 39.5164 72.4546 39.466C72.3301 39.3883 72.1934 39.3315 72.0502 39.2979L71.7953 39.2218L71.4822 39.1458C71.4054 39.1199 71.3125 39.1069 71.2273 39.075C70.6532 38.9228 70.2495 38.7707 70.0208 38.6094C69.9082 38.5299 69.8175 38.4237 69.7571 38.3005C69.6966 38.1773 69.6683 38.041 69.6746 37.9042C69.6746 37.0247 70.4383 36.6368 71.3517 36.6368C71.9849 36.6368 72.6565 36.811 73.1332 37.1153Z" fill="#06225D"/>
<path d="M71.4963 41.3574C70.7387 41.3574 69.9712 41.1428 69.4438 40.783L69.3932 40.7488L69.6749 40.2923L69.7309 40.3273C70.2785 40.6522 70.9042 40.8251 71.5424 40.8279C71.8366 40.8373 72.1281 40.7688 72.3866 40.6293C72.4867 40.5778 72.5699 40.4993 72.6266 40.4027C72.6833 40.3061 72.711 40.1955 72.7067 40.0838C72.7067 39.9416 72.7021 39.8343 72.6399 39.7446C72.5981 39.6492 72.5232 39.5718 72.4289 39.5263L72.4105 39.5163C72.2956 39.4452 72.1695 39.3938 72.0374 39.3642L71.7803 39.2881L71.4732 39.2121C71.4364 39.1999 71.4019 39.1923 71.3665 39.1831C71.3144 39.1717 71.2631 39.1567 71.2131 39.1382C70.629 38.9861 70.2276 38.834 69.9919 38.665C69.8713 38.5794 69.7741 38.4654 69.709 38.3332C69.6439 38.2011 69.6129 38.0551 69.6189 37.9081C69.6189 37.0865 70.2859 36.5768 71.3604 36.5768C72.019 36.5768 72.6975 36.7594 73.1765 37.0652L73.2287 37.0987L72.9562 37.5628L72.9009 37.5308C72.4159 37.2612 71.8711 37.1151 71.3151 37.1055C71.065 37.1055 70.2505 37.1603 70.2505 37.8564C70.2483 37.9333 70.2663 38.0094 70.3028 38.0773C70.3392 38.1452 70.3929 38.2025 70.4585 38.2436C70.6121 38.3494 70.926 38.4635 71.3796 38.5837C72.0543 38.7586 72.4542 38.8796 72.6246 38.964C72.9992 39.1329 73.2287 39.3893 73.3054 39.7248C73.3259 39.8275 73.3351 39.932 73.333 40.0367C73.3307 40.8355 72.61 41.3574 71.4963 41.3574ZM69.5697 40.7115C70.074 41.0363 70.7894 41.2288 71.4978 41.2288C72.2838 41.2288 73.2011 40.9154 73.2011 40.0321C73.203 39.9367 73.1948 39.8413 73.1765 39.7476C73.1089 39.4494 72.9094 39.2295 72.567 39.0751C72.3997 38.9953 72.0113 38.8773 71.3443 38.7039C70.8661 38.5783 70.5507 38.4612 70.3787 38.3456C70.2958 38.2927 70.228 38.2196 70.1817 38.1333C70.1355 38.0469 70.1124 37.9503 70.1147 37.8526C70.1147 37.3026 70.5614 36.9739 71.309 36.9739C71.8657 36.9835 72.4121 37.1241 72.9032 37.384L73.0483 37.1367C72.5924 36.8636 71.9645 36.7008 71.3543 36.7008C70.345 36.7008 69.7424 37.1512 69.7424 37.9043C69.7361 38.0308 69.7619 38.157 69.8175 38.271C69.8732 38.3851 69.9569 38.4834 70.061 38.5571C70.2805 38.713 70.6796 38.8659 71.2468 39.0135C71.2947 39.0309 71.3436 39.0448 71.3934 39.0553C71.4318 39.0652 71.4702 39.0743 71.5055 39.0858L71.8125 39.1619L72.0712 39.2379C72.2132 39.2706 72.3488 39.3261 72.4726 39.4022L72.4887 39.4114C72.6029 39.467 72.6943 39.56 72.7474 39.6746C72.828 39.7894 72.8341 39.9218 72.8341 40.0816C72.8386 40.2156 72.805 40.3483 72.7371 40.4643C72.6693 40.5804 72.5699 40.6752 72.4504 40.7381C72.1729 40.8886 71.86 40.9632 71.5439 40.9541C70.9029 40.9529 70.2736 40.7851 69.7186 40.4673L69.5697 40.7115Z" fill="#06225D"/>
<path d="M83.2884 37.7921C83.5024 38.1457 83.6155 38.5502 83.6155 38.9626C83.6155 39.3749 83.5024 39.7794 83.2884 40.133C83.0754 40.4887 82.7719 40.7828 82.4082 40.9859C82.0445 41.1889 81.6334 41.2938 81.216 41.2901C79.9181 41.3227 78.776 40.225 78.809 38.9622C78.809 37.6757 79.8836 36.6343 81.216 36.6343C81.6335 36.6305 82.0447 36.7355 82.4084 36.9387C82.7721 37.1419 83.0755 37.4362 83.2884 37.7921ZM79.2972 38.9622C79.2952 39.3378 79.4057 39.7056 79.6148 40.0189C79.8238 40.3323 80.122 40.5772 80.4715 40.7224C80.8211 40.8677 81.2062 40.9069 81.5782 40.8351C81.9503 40.7633 82.2924 40.5837 82.5614 40.319C82.8304 40.0543 83.0141 39.7165 83.0892 39.3483C83.1643 38.9802 83.1275 38.5981 82.9835 38.2507C82.8394 37.9032 82.5946 37.6059 82.28 37.3964C81.9653 37.1869 81.5951 37.0748 81.216 37.074C80.166 37.0542 79.2787 37.9337 79.2972 38.9622Z" fill="#06225D"/>
<path d="M81.1589 41.3573C80.5135 41.3508 79.8967 41.0916 79.4434 40.6361C79.2188 40.4184 79.041 40.1579 78.9205 39.8703C78.8001 39.5826 78.7396 39.2739 78.7427 38.9625C78.7411 37.6449 79.8541 36.5745 81.2134 36.5745C81.6428 36.5688 82.0661 36.6757 82.4404 36.8846C82.8146 37.0934 83.1264 37.3966 83.3441 37.7635C83.5637 38.1271 83.6795 38.5429 83.6795 38.9667C83.6795 39.3904 83.5637 39.8062 83.3441 40.1698C83.1262 40.5365 82.8143 40.8395 82.4401 41.0484C82.066 41.2571 81.6427 41.3642 81.2134 41.3588L81.1589 41.3573ZM81.2149 36.7C79.9231 36.7 78.8723 37.7156 78.8723 38.964C78.8695 39.2581 78.9267 39.5499 79.0405 39.8215C79.1544 40.0932 79.3225 40.3392 79.5348 40.5448C79.7892 40.7951 80.0976 40.985 80.4367 41.1004C80.7758 41.2157 81.1368 41.2535 81.4927 41.2109C81.8486 41.1683 82.1901 41.0464 82.4918 40.8544C82.7934 40.6624 83.0473 40.4052 83.2343 40.1021C83.4418 39.7582 83.5514 39.3651 83.5514 38.9644C83.5514 38.5637 83.4418 38.1706 83.2343 37.8267C83.0277 37.4789 82.7319 37.1914 82.377 36.9935C82.0221 36.7957 81.6206 36.6944 81.2134 36.7H81.2149ZM81.2088 40.9168C80.819 40.9177 80.4375 40.8041 80.1128 40.5902C79.7882 40.3763 79.5347 40.0718 79.3846 39.7152C79.2344 39.3586 79.1943 38.9659 79.2692 38.5867C79.3442 38.2075 79.5309 37.8588 79.8057 37.5848C80.1702 37.2212 80.6648 37.0149 81.1819 37.0111H81.2165C81.4752 37.0117 81.7313 37.0627 81.9702 37.1613C82.2091 37.2599 82.426 37.4041 82.6086 37.5859C82.7912 37.7675 82.9359 37.9831 83.0344 38.2202C83.133 38.4573 83.1835 38.7113 83.1829 38.9678C83.1825 39.2243 83.131 39.4781 83.0315 39.7148C82.932 39.9516 82.7864 40.1666 82.6031 40.3475C82.4198 40.5285 82.2023 40.6719 81.9631 40.7696C81.7238 40.8673 81.4675 40.9173 81.2088 40.9168ZM81.1835 37.1397C80.7 37.1429 80.2375 37.3357 79.8971 37.6761C79.7251 37.8439 79.589 38.0442 79.4967 38.2652C79.4044 38.4862 79.3578 38.7233 79.3598 38.9625C79.3598 39.4487 79.5547 39.915 79.9016 40.2589C80.2484 40.6027 80.719 40.7959 81.2096 40.7959C81.7001 40.7959 82.1707 40.6027 82.5176 40.2589C82.8645 39.915 83.0594 39.4487 83.0594 38.9625C83.0634 38.7226 83.0174 38.4845 82.9241 38.2631C82.8308 38.0417 82.6924 37.8419 82.5175 37.6761C82.3484 37.5031 82.1454 37.3662 81.9211 37.2737C81.6967 37.1812 81.4556 37.1351 81.2126 37.1382L81.1835 37.1397Z" fill="#06225D"/>
<path d="M92.7134 37.1227H89.9602V38.8556H92.4785V39.2566H89.9602V41.2284H89.4905V36.702H92.7134V37.1227Z" fill="#06225D"/>
<path d="M90.0241 41.2911H89.4246V36.6368H92.7773V37.183H90.0241V38.7874H92.5432V39.32H90.0241V41.2911ZM89.5544 41.1625H89.8944V39.1906H92.4135V38.9183H89.8944V37.0568H92.6484V36.7654H89.5544V41.1625Z" fill="#06225D"/>
<path d="M101.577 37.1029H99.985V41.2284H99.5148V37.1029H97.9228V36.702H101.577V37.1029Z" fill="#06225D"/>
<path d="M100.05 41.2914H99.4501V37.1667H97.8583V36.6342H101.641V37.1667H100.05V41.2914ZM99.5808 41.1636H99.921V37.0381H101.513V36.7657H97.9879V37.0381H99.5808V41.1636Z" fill="#06225D"/>
<path d="M111.811 41.2284H111.302L110.03 37.3935L108.758 41.2284H108.242L106.676 36.702H107.198L108.516 40.5369L109.782 36.702H110.277L111.537 40.5369L112.855 36.702H113.377L111.811 41.2284Z" fill="#06225D"/>
<path d="M111.857 41.2918H111.256L110.028 37.5976L108.799 41.2918H108.191L106.578 36.6368H107.237L108.508 40.3325L109.728 36.6368H110.327L111.54 40.3325L112.81 36.6368H113.469L111.857 41.2918ZM111.349 41.1632H111.764L113.287 36.7654H112.903L111.537 40.7388L110.232 36.7654H109.83L108.519 40.738L107.153 36.7654H106.769L108.29 41.1632H108.713L110.032 37.1868L111.349 41.1632Z" fill="#06225D"/>
<path d="M122.696 41.2284H122.141L121.603 40.0325H119.091L118.55 41.2284H117.989L120.038 36.702H120.652L122.696 41.2284ZM119.218 39.6506H121.463L120.34 37.2124L119.218 39.6506Z" fill="#06225D"/>
<path d="M122.796 41.2918H122.099L121.557 40.0952H119.129L118.591 41.2918H117.888L119.995 36.6368H120.688L122.796 41.2918ZM122.181 41.1632H122.594L120.603 36.7654H120.073L118.084 41.1632H118.503L119.039 39.9666H121.636L122.181 41.1632ZM121.561 39.714H119.116L120.338 37.0568L121.561 39.714ZM119.317 39.5855H121.36L120.338 37.3663L119.317 39.5855Z" fill="#06225D"/>
<path d="M128.29 36.702H130.235C131.558 36.702 132.094 37.1219 132.094 38.1047C132.094 38.8747 131.761 39.2816 130.997 39.4308L132.264 41.2284H131.715L130.512 39.4954C130.401 39.5023 130.278 39.5083 130.14 39.5083H128.764V41.2284H128.294L128.29 36.702ZM128.76 37.1219V39.1401H130.253C131.226 39.1401 131.605 38.8488 131.605 38.1314C131.605 37.414 131.226 37.1219 130.253 37.1219H128.76Z" fill="#06225D"/>
<path d="M132.388 41.2911H131.682L130.476 39.5596C130.373 39.5657 130.261 39.5702 130.136 39.5702H128.824V41.2911H128.224V36.6368H130.234C131.583 36.6368 132.159 37.0758 132.159 38.1035C132.159 38.8764 131.832 39.3017 131.106 39.4728L132.388 41.2911ZM131.75 41.1625H132.14L130.888 39.3892L130.986 39.3701C131.717 39.2279 132.029 38.8498 132.029 38.1073C132.029 37.1564 131.509 36.7692 130.235 36.7692H128.355V41.167H128.695V39.4431H130.136C130.272 39.4431 130.394 39.4371 130.505 39.4303H130.541L131.75 41.1625ZM130.254 39.202H128.695V37.0568H130.254C131.259 37.0568 131.669 37.3679 131.669 38.1301C131.669 38.8924 131.259 39.2028 130.254 39.2028V39.202ZM128.824 39.0742H130.253C131.179 39.0742 131.539 38.8095 131.539 38.1301C131.539 37.4508 131.18 37.183 130.254 37.183H128.824V39.0742Z" fill="#06225D"/>
<path d="M141.245 37.1227H138.328V38.7392H141.015V39.1401H138.328V40.8085H141.31V41.2284H137.858V36.702H141.245V37.1227Z" fill="#06225D"/>
<path d="M141.375 41.2911H137.793V36.6368H141.309V37.183H138.392V38.671H141.079V39.2035H138.392V40.7433H141.373L141.375 41.2911ZM137.92 41.1625H141.241V40.8703H138.265V39.0742H140.951V38.8019H138.265V37.0568H141.182V36.7654H137.925L137.92 41.1625Z" fill="#06225D"/>
<mask id="mask0_1362_4638" style="mask-type:luminance" maskUnits="userSpaceOnUse" x="39" y="15" width="20" height="14">
<path d="M50.565 15.6968L49.9156 16.0719L39.6304 22.0011C39.5767 22.0316 39.5299 22.0673 39.4769 22.1008C39.4127 22.6634 39.5173 23.2324 39.7775 23.7365C40.0376 24.2407 40.442 24.6577 40.9399 24.9353L47.2445 28.4834C47.0287 28.3523 46.8509 28.1678 46.7285 27.9481C46.6062 27.7284 46.5434 27.481 46.5464 27.2301C46.5495 26.9791 46.6181 26.7333 46.7458 26.5165C46.8734 26.2997 47.0556 26.1195 47.2745 25.9935L50.0546 24.3959L58.4976 19.5393C58.5868 19.4884 58.6608 19.4151 58.7123 19.3268C58.7637 19.2386 58.7908 19.1384 58.7908 19.0365C58.7908 18.9345 58.7637 18.8344 58.7123 18.7461C58.6608 18.6578 58.5868 18.5845 58.4976 18.5336L53.4932 15.6892C53.0472 15.4362 52.542 15.3037 52.0281 15.305C51.5142 15.3063 51.0096 15.4414 50.565 15.6968Z" fill="#000000"/>
</mask>
<g mask="url(#mask0_1362_4638)">
<path d="M44.6444 6.70654L33.4563 24.9158L53.6051 37.0768L64.7931 18.8677L44.6444 6.70654Z" fill="#06225D"/>
</g>
<mask id="mask1_1362_4638" style="mask-type:luminance" maskUnits="userSpaceOnUse" x="38" y="22" width="15" height="15">
<path d="M38.3496 23.5292C38.2531 23.7945 38.1968 24.0723 38.1823 24.3539V27.9241L38.1999 33.7057C38.2068 35.9393 40.6507 37.3284 42.5988 36.2055L50.9981 31.3634C51.2061 31.2633 51.4351 31.213 51.6663 31.2164C51.8976 31.2198 52.1248 31.2769 52.3298 31.3832L51.1477 30.713L47.9363 28.8803L47.2793 28.5052C47.2678 28.4976 47.257 28.4893 47.2455 28.4832L40.9393 24.9366C40.4422 24.6583 40.0389 24.2411 39.7795 23.737C39.5202 23.2329 39.4163 22.6643 39.481 22.1021C38.9604 22.4459 38.565 22.9461 38.3526 23.5292" fill="#000000"/>
</mask>
<g mask="url(#mask1_1362_4638)">
<path d="M52.3306 22.1021H38.1823V37.3315H52.3306V22.1021Z" fill="#06225D"/>
</g>
<mask id="mask2_1362_4638" style="mask-type:luminance" maskUnits="userSpaceOnUse" x="42" y="32" width="21" height="14">
<path d="M54.287 35.0089L51.5077 36.6064L43.0646 41.463C42.9755 41.5139 42.9014 41.5871 42.8499 41.6753C42.7984 41.7635 42.7714 41.8636 42.7714 41.9655C42.7714 42.0674 42.7984 42.1675 42.8499 42.2558C42.9014 42.3439 42.9755 42.4172 43.0646 42.468L48.0652 45.3109C48.5111 45.5643 49.0166 45.6967 49.5306 45.695C50.0447 45.6933 50.5492 45.5574 50.9934 45.301L51.6435 44.9259L61.9287 38.9982C61.9825 38.9671 62.0285 38.9305 62.0784 38.8986C62.142 38.3359 62.0372 37.7672 61.7769 37.2633C61.5166 36.7593 61.1124 36.3425 60.6146 36.0648L54.3177 32.5204C54.5331 32.6518 54.7106 32.8362 54.8326 33.0559C54.9547 33.2754 55.0172 33.5226 55.0141 33.7733C55.011 34.024 54.9424 34.2696 54.815 34.4861C54.6875 34.7027 54.5056 34.8828 54.287 35.0089Z" fill="#000000"/>
</mask>
<g mask="url(#mask2_1362_4638)">
<path d="M50.7423 22.9905L36.064 40.3284L54.1326 55.3553L68.8109 38.0175L50.7423 22.9905Z" fill="#06225D"/>
</g>
<mask id="mask3_1362_4638" style="mask-type:luminance" maskUnits="userSpaceOnUse" x="49" y="24" width="15" height="15">
<path d="M58.964 24.7938L50.5632 29.6367C50.3551 29.737 50.1262 29.7874 49.8948 29.7839C49.6635 29.7803 49.4362 29.7229 49.2314 29.6161L50.4112 30.291L53.6226 32.1228L54.2797 32.4986C54.2919 32.5062 54.3019 32.5146 54.3142 32.5222L60.6181 36.068C61.1159 36.3458 61.5201 36.7626 61.7803 37.2665C62.0406 37.7705 62.1455 38.3392 62.0818 38.9018C62.6021 38.558 62.9974 38.0577 63.2094 37.4747C63.3072 37.2104 63.3649 36.9333 63.3805 36.6523V33.0768L63.3629 27.2951C63.3631 26.7851 63.2274 26.2841 62.9695 25.8427C62.7117 25.4013 62.3409 25.0352 61.8945 24.7815C61.4482 24.5276 60.9422 24.3951 60.4276 24.3973C59.913 24.3994 59.4082 24.5362 58.964 24.7938Z" fill="#000000"/>
</mask>
<g mask="url(#mask3_1362_4638)">
<path d="M53.1896 18.1028L42.6635 34.8443L59.4231 45.1959L69.9493 28.4544L53.1896 18.1028Z" fill="#06225D"/>
</g>
</svg>
