<svg width="128" height="128" viewBox="0 0 128 128" fill="none" xmlns="http://www.w3.org/2000/svg">
<g clip-path="url(#clip0_240_7129)">
<g clip-path="url(#clip1_240_7129)">
<path opacity="0.35" d="M98.2743 127.936C90.555 127.935 82.9646 124.922 77.2963 119.245L8.68476 50.6413C0.20856 42.1587 -2.33429 29.3926 2.25976 18.3167C6.85547 7.22907 17.667 0 29.6694 0H98.2677C114.651 0 127.936 13.2782 127.936 29.6618V98.273C127.936 110.271 120.709 121.089 109.626 125.683C105.947 127.201 102.1 127.936 98.2743 127.936Z" fill="url(#paint0_linear_240_7129)"/>
<path d="M29.6786 127.936C22.0823 127.936 14.493 125.039 8.69965 119.253C-2.88028 107.664 -2.88694 88.8757 8.69965 77.2959L77.3047 8.6909C88.8928 -2.89734 107.672 -2.89053 119.261 8.68442C130.841 20.271 130.849 39.0599 119.261 50.6413L50.6493 119.245C44.8563 125.04 37.2733 127.936 29.6786 127.936Z" fill="url(#paint1_linear_240_7129)"/>
</g>
</g>
<defs>
<linearGradient id="paint0_linear_240_7129" x1="0" y1="0" x2="0" y2="127.936" gradientUnits="userSpaceOnUse">
<stop stop-color="#40FFA9"/>
<stop offset="1" stop-color="#00BA60"/>
</linearGradient>
<linearGradient id="paint1_linear_240_7129" x1="0.012207" y1="0.00146484" x2="0.012207" y2="127.936" gradientUnits="userSpaceOnUse">
<stop stop-color="#40FFA9"/>
<stop offset="1" stop-color="#00BA60"/>
</linearGradient>
<clipPath id="clip0_240_7129">
<rect width="128" height="128" fill="white"/>
</clipPath>
<clipPath id="clip1_240_7129">
<rect width="128" height="128" fill="white"/>
</clipPath>
</defs>
</svg>
