<?xml version="1.0" encoding="UTF-8" standalone="no"?>
<!DOCTYPE svg PUBLIC "-//W3C//DTD SVG 1.1//EN" "http://www.w3.org/Graphics/SVG/1.1/DTD/svg11.dtd">
<svg xmlns="http://www.w3.org/2000/svg" version="1.1" viewBox="0.00 0.00 16.00 16.00">
<path fill="#38b0ff" d="
  M 8.91 1.19
  L 12.92 5.20
  A 0.10 0.10 0.0 0 1 12.87 5.37
  Q 7.81 6.64 3.15 5.39
  A 0.44 0.44 0.0 0 1 2.91 4.70
  Q 5.07 1.85 8.49 1.07
  A 0.47 0.47 0.0 0 1 8.91 1.19
  Z"
/>
<path fill="#38b0ff" d="
  M 10.86 1.45
  A 0.10 0.10 0.0 0 1 10.85 1.31
  L 10.87 1.29
  A 2.33 1.82 43.3 0 1 13.81 1.56
  L 14.00 1.74
  A 2.33 1.82 43.3 0 1 14.45 4.67
  L 14.43 4.68
  A 0.10 0.10 0.0 0 1 14.29 4.68
  L 10.86 1.45
  Z"
/>
<path fill="#38b0ff" d="
  M 3.13 6.37
  Q 7.51 7.75 13.20 6.32
  A 1.36 1.36 0.0 0 1 14.88 7.82
  L 14.85 8.03
  A 2.82 2.81 87.5 0 1 12.68 10.41
  Q 7.28 11.65 2.60 10.15
  A 1.77 1.77 0.0 0 1 1.43 8.01
  L 1.64 7.20
  A 1.18 1.18 0.0 0 1 3.13 6.37
  Z"
/>
<path fill="#38b0ff" d="
  M 3.60 12.90
  Q 5.14 14.40 5.33 14.67
  A 0.31 0.31 0.0 0 1 5.05 15.16
  Q 3.58 15.07 2.26 14.53
  Q 2.20 14.50 2.12 14.42
  Q 2.03 14.35 2.01 14.28
  Q 1.43 12.98 1.30 11.51
  A 0.31 0.31 0.0 0 1 1.78 11.22
  Q 2.06 11.40 3.60 12.90
  Z"
/>
<path fill="#38b0ff" d="
  M 12.79 12.12
  Q 10.71 14.26 7.93 14.84
  A 0.95 0.95 0.0 0 1 7.07 14.58
  L 4.70 12.21
  A 0.31 0.31 0.0 0 1 5.04 11.71
  Q 6.47 12.37 12.50 11.55
  A 0.34 0.34 0.0 0 1 12.79 12.12
  Z"
/>
</svg>
