<?xml version="1.0" encoding="UTF-8" standalone="no"?>
<!DOCTYPE svg PUBLIC "-//W3C//DTD SVG 1.1//EN" "http://www.w3.org/Graphics/SVG/1.1/DTD/svg11.dtd">
<svg xmlns="http://www.w3.org/2000/svg" version="1.1" viewBox="0.00 0.00 320.00 320.00">
<g stroke-width="2.00" fill="none" stroke-linecap="butt">
<path stroke="#b1a6d8" vector-effect="non-scaling-stroke" d="
  M 73.50 32.10
  L 45.22 284.36"
/>
<path stroke="#a2a4db" vector-effect="non-scaling-stroke" d="
  M 104.58 99.78
  C 97.62 125.09 96.48 149.67 92.80 175.93
  C 87.57 213.17 83.77 250.62 79.37 287.96"
/>
<path stroke="#95afe3" vector-effect="non-scaling-stroke" d="
  M 155.74 161.07
  Q 152.29 178.73 150.09 196.58
  Q 144.57 241.30 140.28 286.02"
/>
</g>
<path fill="#b8a7d6" d="
  M 73.50 32.10
  L 45.22 284.36
  Q 36.55 278.89 33.51 269.90
  Q 31.95 265.28 31.96 254.93
  Q 32.07 160.89 31.95 66.21
  Q 31.94 54.18 33.45 49.95
  Q 36.56 41.21 45.02 35.81
  Q 50.94 32.03 59.50 32.02
  Q 70.34 32.01 73.50 32.10
  Z"
/>
<path fill="#a9a5d9" d="
  M 104.58 99.78
  C 97.62 125.09 96.48 149.67 92.80 175.93
  C 87.57 213.17 83.77 250.62 79.37 287.96
  Q 62.80 288.07 58.00 287.98
  Q 51.40 287.86 45.22 284.36
  L 73.50 32.10
  Q 90.07 30.52 99.49 43.00
  Q 102.27 46.69 103.62 51.57
  Q 104.54 54.91 104.57 61.04
  Q 104.67 80.42 104.58 99.78
  Z"
/>
<rect fill="#c0dbf0" x="-36.31" y="-96.28" transform="translate(251.71,191.74) rotate(-0.1)" width="72.62" height="192.56" rx="26.88"/>
<path fill="#9aa3dc" d="
  M 104.58 99.78
  Q 104.66 179.27 104.57 258.74
  Q 104.56 265.24 103.56 268.64
  C 100.30 279.63 90.76 287.10 79.37 287.96
  C 83.77 250.62 87.57 213.17 92.80 175.93
  C 96.48 149.67 97.62 125.09 104.58 99.78
  Z"
/>
<path fill="#8aa4e0" d="
  M 155.74 161.07
  Q 152.29 178.73 150.09 196.58
  Q 144.57 241.30 140.28 286.02
  Q 128.81 280.74 125.16 269.73
  Q 123.70 265.31 123.74 257.10
  Q 123.92 221.41 123.74 192.84
  Q 123.69 183.17 125.01 179.31
  C 127.84 171.05 134.62 164.47 142.99 161.97
  Q 147.98 160.48 155.74 161.07
  Z"
/>
<path fill="#9fb9e6" d="
  M 140.28 286.02
  Q 144.57 241.30 150.09 196.58
  Q 152.29 178.73 155.74 161.07
  Q 168.60 160.82 171.97 161.04
  Q 178.18 161.45 183.64 165.03
  Q 191.88 170.43 194.95 179.12
  Q 196.41 183.27 196.37 194.59
  Q 196.21 238.36 196.38 255.59
  Q 196.48 265.32 194.93 269.76
  Q 191.27 280.23 180.79 285.51
  C 177.67 287.09 173.14 287.98 168.87 288.00
  Q 160.35 288.03 151.50 287.98
  Q 144.97 287.95 140.28 286.02
  Z"
/>
</svg>
