<svg width="128" height="128" viewBox="0 0 128 128" fill="none" xmlns="http://www.w3.org/2000/svg">
<g clip-path="url(#clip0_240_7168)">
<g clip-path="url(#clip1_240_7168)">
<path d="M64 128C99.3462 128 128 99.3462 128 64C128 28.6538 99.3462 0 64 0C28.6538 0 0 28.6538 0 64C0 99.3462 28.6538 128 64 128Z" fill="#0033A3"/>
<path d="M52.2241 78.7542C50.2799 76.796 48.741 74.4736 47.6955 71.9199C46.65 69.3662 46.1185 66.6314 46.1313 63.872C46.1261 61.1135 46.6714 58.3817 47.7352 55.8365C48.7989 53.2913 50.3599 50.984 52.3265 49.0496C53.8138 47.4917 54.6337 45.4144 54.6115 43.2606C54.5893 41.1068 53.7266 39.0468 52.2075 37.5199C50.6883 35.993 48.6328 35.1198 46.4792 35.0866C44.3255 35.0533 42.2441 35.8626 40.6785 37.3419C33.6274 44.3602 29.65 53.89 29.6196 63.8385C29.5892 73.787 33.5083 83.3409 40.5164 90.4022C41.2737 91.2036 42.1838 91.8454 43.193 92.2895C44.2023 92.7337 45.2903 92.9713 46.3928 92.9883C47.4953 93.0053 48.5901 92.8014 49.6126 92.3886C50.6351 91.9758 51.5646 91.3625 52.3462 90.5848C53.1279 89.8071 53.746 88.8808 54.164 87.8604C54.582 86.8401 54.7915 85.7463 54.7801 84.6437C54.7688 83.5411 54.5367 82.452 54.0977 81.4405C53.6588 80.4289 53.0217 79.5156 52.2241 78.7542Z" fill="#FFDA00"/>
<path d="M52.3264 49.0496C54.284 47.1046 56.6063 45.5652 59.1601 44.5196C61.7139 43.4741 64.449 42.943 67.2085 42.9568C69.9669 42.9525 72.6985 43.4982 75.2435 44.562C77.7886 45.6257 80.096 47.1861 82.0309 49.152C82.7762 49.9901 83.6845 50.6674 84.7003 51.1427C85.7161 51.618 86.8182 51.8813 87.9391 51.9163C89.0601 51.9514 90.1764 51.7577 91.22 51.3468C92.2636 50.936 93.2124 50.3168 94.0086 49.527C94.8049 48.7371 95.4317 47.7933 95.8509 46.7531C96.2701 45.7129 96.4729 44.5981 96.4468 43.4769C96.4208 42.3557 96.1664 41.2515 95.6993 40.2319C95.2322 39.2123 94.5622 38.2986 93.7301 37.5466C90.2698 34.0425 86.1513 31.2565 81.6112 29.3484C77.0712 27.4404 72.1989 26.448 67.2742 26.4282C62.3495 26.4083 57.4694 27.3615 52.9141 29.2329C48.3588 31.1043 44.2181 33.8572 40.7296 37.3333C39.339 38.903 38.5975 40.9429 38.6555 43.0392C38.7135 45.1354 39.5666 47.1312 41.0419 48.6216C42.5171 50.1121 44.504 50.9856 46.5996 51.0651C48.6952 51.1446 50.7425 50.424 52.3264 49.0496Z" fill="#67B3FF"/>
<path d="M81.9798 78.8565C80.0216 80.8007 77.6992 82.3396 75.1455 83.3851C72.5918 84.4306 69.857 84.9622 67.0976 84.9493C64.3394 84.9526 61.6081 84.4065 59.0632 83.3428C56.5183 82.2791 54.2108 80.7192 52.2752 78.7541C51.5104 77.9859 50.6018 77.3759 49.6012 76.9589C48.6007 76.5419 47.5277 76.326 46.4437 76.3236C45.3598 76.3213 44.2859 76.5324 43.2835 76.945C42.2811 77.3577 41.3698 77.9637 40.6016 78.7285C39.8335 79.4933 39.2234 80.402 38.8064 81.4025C38.3894 82.4031 38.1735 83.476 38.1712 84.56C38.1688 85.644 38.3799 86.7178 38.7926 87.7202C39.2052 88.7226 39.8112 89.6339 40.576 90.4021C44.0414 93.9072 48.1646 96.6937 52.7092 98.6017C57.2539 100.51 62.1305 101.502 67.0594 101.521C71.9883 101.54 76.8724 100.585 81.4316 98.7126C85.9909 96.8397 90.1355 94.0852 93.6278 90.6069C94.3993 89.8421 95.0127 88.9328 95.4328 87.9309C95.8529 86.9291 96.0716 85.8543 96.0764 84.7679C96.0811 83.6815 95.8718 82.6049 95.4605 81.5994C95.0492 80.5939 94.4438 79.6793 93.679 78.9077C92.9142 78.1362 92.0049 77.5228 91.003 77.1027C90.0012 76.6826 88.9264 76.4639 87.84 76.4591C86.7536 76.4544 85.6769 76.6636 84.6714 77.075C83.666 77.4863 82.7513 78.0917 81.9798 78.8565Z" fill="#EB5A68"/>
<path d="M52.3264 49.0496C51.168 50.2045 49.6928 50.9894 48.0878 51.305C46.4827 51.6205 44.8202 51.4524 43.3108 50.822C41.8014 50.1915 40.5132 49.1271 39.6094 47.7637C38.7056 46.4003 38.227 44.7993 38.2342 43.1635C38.2414 41.5278 38.7341 39.931 39.6498 38.5756C40.5655 37.2202 41.863 36.1672 43.3779 35.55C44.8928 34.9329 46.5568 34.7794 48.159 35.109C49.7612 35.4387 51.2294 36.2366 52.3776 37.4016C53.9034 38.9593 54.7537 41.0556 54.7441 43.2361C54.7346 45.4166 53.8659 47.5054 52.3264 49.0496Z" fill="#47A1FF"/>
<path d="M52.1642 90.4022C51.0049 91.5562 49.5291 92.3401 47.9238 92.6544C46.3186 92.9688 44.6561 92.7994 43.1472 92.1679C41.6383 91.5363 40.3509 90.471 39.4481 89.1069C38.5453 87.7429 38.0679 86.1415 38.0763 84.5058C38.0847 82.87 38.5785 81.2736 39.4952 79.9189C40.4119 78.5641 41.7102 77.5121 43.2255 76.896C44.7409 76.28 46.405 76.1277 48.0069 76.4585C49.6089 76.7893 51.0765 77.5883 52.2239 78.7541C53.7506 80.3119 54.6008 82.4093 54.5896 84.5904C54.5784 86.7716 53.7068 88.8601 52.1642 90.4022Z" fill="#D5465F"/>
</g>
</g>
<defs>
<clipPath id="clip0_240_7168">
<rect width="128" height="128" fill="white"/>
</clipPath>
<clipPath id="clip1_240_7168">
<rect width="128" height="128" fill="white"/>
</clipPath>
</defs>
</svg>
