<svg width="128" height="128" viewBox="0 0 128 128" fill="none" xmlns="http://www.w3.org/2000/svg">
<rect width="128" height="128" fill="#007B56"/>
<path d="M39.5035 70.4375C42.2794 70.3377 45.2605 70.3784 48.0439 70.4387C47.7476 77.9102 45.7175 84.8572 41.5118 91.0689C40.5756 92.4514 38.1363 95.5091 37.6224 96.6672C42.6301 96.894 48.0209 96.6652 53.0859 96.767C53.1115 99.2864 53.1113 101.806 53.085 104.325C52.7026 104.311 51.6329 104.297 51.3118 104.226C47.5774 104.386 42.7391 104.035 38.892 104.119C37.4855 104.149 30.054 104.13 29.1223 103.937L29.0166 103.633C29.1594 101.919 28.9284 98.4897 29.312 97.2012C29.7098 95.866 32.3418 92.8622 33.2286 91.5637C37.5811 85.1911 39.3361 78.0464 39.5035 70.4375Z" fill="#FCFEFE"/>
<path d="M29.0166 103.633C29.903 103.637 30.586 103.703 31.4956 103.686L31.3135 103.655C33.4854 103.507 35.483 103.639 37.6245 103.61C40.484 103.571 43.2991 103.575 46.16 103.69C47.0791 103.727 49.1035 103.708 49.9389 103.953L49.4579 103.929C49.9635 104.007 50.9678 104.039 51.3118 104.226C47.5774 104.386 42.7391 104.035 38.892 104.119C37.4855 104.149 30.054 104.13 29.1223 103.937L29.0166 103.633Z" fill="#ECFFFF"/>
<path d="M74.4912 24.4684C81.9526 24.4286 91.1619 24.2363 98.5207 24.5914C98.4825 26.1374 98.366 30.7972 97.8894 31.9833C97.4466 33.0851 95.0294 35.7844 94.1007 37.3057C89.6112 44.6598 88.8395 50.3057 88.0604 58.5957C85.3316 58.4927 82.4607 58.4819 79.7197 58.4346C79.7634 50.5816 82.32 42.4856 87.008 36.2086C88.1705 34.6519 89.287 33.0662 90.4729 31.5254C89.9977 31.5572 89.5224 31.5532 89.0465 31.5389C84.2527 31.3952 79.423 31.6331 74.6359 31.4079L74.4912 24.4684Z" fill="#FCFEFE"/>
<path d="M81.6275 70.3993L88.0805 70.3669C88.2565 77.9796 90.068 85.4092 94.3134 91.8054C95.8346 94.0976 98.236 95.6214 98.3355 98.5653C98.4005 100.488 98.4076 102.395 98.4256 104.32C92.8771 104.045 86.5134 104.179 80.899 104.151C78.9157 104.114 76.5902 104.152 74.646 103.967C74.5999 101.559 74.5687 99.1507 74.5529 96.7421C79.5337 96.6481 85.2394 96.8791 90.0671 96.6636C88.9646 94.6986 87.153 92.7359 85.9134 90.7916C81.978 84.6192 80.1424 77.6802 79.7286 70.4301L81.6275 70.3993Z" fill="#FCFEFE"/>
<path d="M29.2134 24.5279C36.7993 24.2761 45.5153 24.4047 53.0896 24.4884L52.9885 31.6306C49.8225 31.4825 46.653 31.4226 43.4838 31.451C41.6298 31.4554 38.6613 31.5507 36.9166 31.3634C38.0264 33.059 39.2746 34.5869 40.4025 36.237C42.3663 39.1095 44.0541 41.9324 45.3318 45.1744C47.0493 49.617 47.7559 53.8318 48.094 58.5438C45.3561 58.4399 42.4253 58.463 39.672 58.4378C38.9851 48.3326 36.8216 39.1619 29.192 31.9041C29.1219 30.9634 29.0293 25.3525 29.2134 24.5279Z" fill="#FCFEFE"/>
</svg>
