<?xml version="1.0" encoding="UTF-8" standalone="no"?>
<!DOCTYPE svg PUBLIC "-//W3C//DTD SVG 1.1//EN" "http://www.w3.org/Graphics/SVG/1.1/DTD/svg11.dtd">
<svg xmlns="http://www.w3.org/2000/svg" version="1.1" viewBox="0.00 0.00 272.00 272.00">
<g stroke-width="2.00" fill="none" stroke-linecap="butt">
<path stroke="#9fc1e7" vector-effect="non-scaling-stroke" d="
  M 215.42 126.49
  L 267.55 126.49
  A 0.45 0.45 0.0 0 0 267.96 125.87
  L 249.89 83.06
  A 0.44 0.44 0.0 0 0 249.06 83.10
  L 242.80 102.64
  A 0.51 0.50 -59.1 0 1 241.97 102.85
  Q 221.28 82.71 201.67 63.83
  Q 188.59 51.24 176.33 41.17
  C 166.46 33.05 155.36 25.45 142.79 21.76
  C 121.78 15.60 101.11 27.23 85.44 40.19
  Q 66.34 56.00 45.66 78.42
  Q 23.99 101.93 3.67 125.76
  A 0.46 0.45 -69.6 0 0 4.01 126.51
  L 46.44 126.51
  A 3.34 3.33 -69.9 0 0 48.99 125.32
  Q 69.21 101.11 86.90 80.91
  C 96.20 70.29 106.23 59.39 117.63 50.90
  C 126.51 44.29 136.61 40.32 147.15 43.84
  C 157.74 47.38 167.07 54.48 175.95 61.96
  C 205.34 86.73 215.98 96.23 235.54 111.46
  A 0.53 0.52 47.2 0 1 235.51 112.31
  L 215.24 125.88
  A 0.33 0.33 0.0 0 0 215.42 126.49"
/>
<path stroke="#9fc1e7" vector-effect="non-scaling-stroke" d="
  M 63.23 136.46
  C 63.49 160.04 83.53 178.79 106.80 178.12
  Q 123.18 177.65 135.63 165.40
  C 138.79 162.29 140.92 157.77 139.14 153.46
  C 136.52 147.12 129.91 144.90 123.95 148.44
  Q 123.04 148.98 118.48 153.16
  A 7.66 7.37 7.1 0 1 117.36 154.00
  C 102.83 162.76 84.22 153.67 84.03 136.23
  C 83.85 118.79 102.26 109.32 116.97 117.76
  A 7.66 7.37 -8.3 0 1 118.11 118.58
  Q 122.76 122.66 123.68 123.18
  C 129.71 126.59 136.28 124.23 138.76 117.84
  C 140.45 113.49 138.22 109.02 135.00 105.98
  Q 122.29 93.99 105.90 93.87
  C 82.63 93.70 62.98 112.87 63.23 136.46"
/>
<path stroke="#9fc1e7" vector-effect="non-scaling-stroke" d="
  M 173.46 177.40
  C 178.33 177.40 181.92 174.40 183.33 169.75
  Q 183.85 168.01 183.86 164.18
  Q 183.86 164.14 183.84 114.33
  A 0.58 0.57 1.0 0 1 184.44 113.76
  Q 193.85 114.19 199.33 113.57
  C 208.74 112.50 210.94 101.30 203.52 96.26
  C 201.30 94.76 198.28 94.65 195.50 94.64
  Q 184.46 94.63 173.49 94.62
  Q 162.51 94.62 151.48 94.63
  C 148.70 94.64 145.68 94.74 143.45 96.24
  C 136.03 101.28 138.23 112.48 147.63 113.55
  Q 153.11 114.18 162.52 113.75
  A 0.58 0.57 -0.9 0 1 163.12 114.32
  Q 163.07 164.13 163.07 164.17
  Q 163.08 168.00 163.60 169.74
  C 165.00 174.40 168.60 177.40 173.46 177.40"
/>
<path stroke="#9fc1e7" vector-effect="non-scaling-stroke" d="
  M 55.78 145.53
  L 3.66 145.52
  A 0.45 0.45 0.0 0 0 3.25 146.14
  L 21.31 188.94
  A 0.44 0.44 0.0 0 0 22.14 188.90
  L 28.40 169.37
  A 0.51 0.50 -59.1 0 1 29.23 169.16
  Q 49.91 189.30 69.51 208.17
  Q 82.58 220.76 94.84 230.83
  C 104.70 238.95 115.80 246.55 128.36 250.25
  C 149.36 256.41 170.03 244.79 185.70 231.83
  Q 204.80 216.03 225.48 193.62
  Q 247.15 170.13 267.47 146.31
  A 0.46 0.45 -69.6 0 0 267.13 145.56
  L 224.71 145.55
  A 3.34 3.32 -69.9 0 0 222.16 146.74
  Q 201.94 170.94 184.25 191.13
  C 174.95 201.74 164.92 212.64 153.52 221.12
  C 144.64 227.73 134.54 231.69 124.01 228.17
  C 113.42 224.63 104.10 217.53 95.22 210.05
  C 65.84 185.28 55.21 175.78 35.66 160.55
  A 0.53 0.52 47.2 0 1 35.69 159.70
  L 55.96 146.14
  A 0.33 0.33 0.0 0 0 55.78 145.53"
/>
</g>
<path fill="#ffffff" d="
  M 272.00 0.00
  L 272.00 272.00
  L 0.00 272.00
  L 0.00 0.00
  L 272.00 0.00
  Z
  M 215.42 126.49
  L 267.55 126.49
  A 0.45 0.45 0.0 0 0 267.96 125.87
  L 249.89 83.06
  A 0.44 0.44 0.0 0 0 249.06 83.10
  L 242.80 102.64
  A 0.51 0.50 -59.1 0 1 241.97 102.85
  Q 221.28 82.71 201.67 63.83
  Q 188.59 51.24 176.33 41.17
  C 166.46 33.05 155.36 25.45 142.79 21.76
  C 121.78 15.60 101.11 27.23 85.44 40.19
  Q 66.34 56.00 45.66 78.42
  Q 23.99 101.93 3.67 125.76
  A 0.46 0.45 -69.6 0 0 4.01 126.51
  L 46.44 126.51
  A 3.34 3.33 -69.9 0 0 48.99 125.32
  Q 69.21 101.11 86.90 80.91
  C 96.20 70.29 106.23 59.39 117.63 50.90
  C 126.51 44.29 136.61 40.32 147.15 43.84
  C 157.74 47.38 167.07 54.48 175.95 61.96
  C 205.34 86.73 215.98 96.23 235.54 111.46
  A 0.53 0.52 47.2 0 1 235.51 112.31
  L 215.24 125.88
  A 0.33 0.33 0.0 0 0 215.42 126.49
  Z
  M 63.23 136.46
  C 63.49 160.04 83.53 178.79 106.80 178.12
  Q 123.18 177.65 135.63 165.40
  C 138.79 162.29 140.92 157.77 139.14 153.46
  C 136.52 147.12 129.91 144.90 123.95 148.44
  Q 123.04 148.98 118.48 153.16
  A 7.66 7.37 7.1 0 1 117.36 154.00
  C 102.83 162.76 84.22 153.67 84.03 136.23
  C 83.85 118.79 102.26 109.32 116.97 117.76
  A 7.66 7.37 -8.3 0 1 118.11 118.58
  Q 122.76 122.66 123.68 123.18
  C 129.71 126.59 136.28 124.23 138.76 117.84
  C 140.45 113.49 138.22 109.02 135.00 105.98
  Q 122.29 93.99 105.90 93.87
  C 82.63 93.70 62.98 112.87 63.23 136.46
  Z
  M 173.46 177.40
  C 178.33 177.40 181.92 174.40 183.33 169.75
  Q 183.85 168.01 183.86 164.18
  Q 183.86 164.14 183.84 114.33
  A 0.58 0.57 1.0 0 1 184.44 113.76
  Q 193.85 114.19 199.33 113.57
  C 208.74 112.50 210.94 101.30 203.52 96.26
  C 201.30 94.76 198.28 94.65 195.50 94.64
  Q 184.46 94.63 173.49 94.62
  Q 162.51 94.62 151.48 94.63
  C 148.70 94.64 145.68 94.74 143.45 96.24
  C 136.03 101.28 138.23 112.48 147.63 113.55
  Q 153.11 114.18 162.52 113.75
  A 0.58 0.57 -0.9 0 1 163.12 114.32
  Q 163.07 164.13 163.07 164.17
  Q 163.08 168.00 163.60 169.74
  C 165.00 174.40 168.60 177.40 173.46 177.40
  Z
  M 55.78 145.53
  L 3.66 145.52
  A 0.45 0.45 0.0 0 0 3.25 146.14
  L 21.31 188.94
  A 0.44 0.44 0.0 0 0 22.14 188.90
  L 28.40 169.37
  A 0.51 0.50 -59.1 0 1 29.23 169.16
  Q 49.91 189.30 69.51 208.17
  Q 82.58 220.76 94.84 230.83
  C 104.70 238.95 115.80 246.55 128.36 250.25
  C 149.36 256.41 170.03 244.79 185.70 231.83
  Q 204.80 216.03 225.48 193.62
  Q 247.15 170.13 267.47 146.31
  A 0.46 0.45 -69.6 0 0 267.13 145.56
  L 224.71 145.55
  A 3.34 3.32 -69.9 0 0 222.16 146.74
  Q 201.94 170.94 184.25 191.13
  C 174.95 201.74 164.92 212.64 153.52 221.12
  C 144.64 227.73 134.54 231.69 124.01 228.17
  C 113.42 224.63 104.10 217.53 95.22 210.05
  C 65.84 185.28 55.21 175.78 35.66 160.55
  A 0.53 0.52 47.2 0 1 35.69 159.70
  L 55.96 146.14
  A 0.33 0.33 0.0 0 0 55.78 145.53
  Z"
/>
<path fill="#3f82ce" d="
  M 215.42 126.49
  A 0.33 0.33 0.0 0 1 215.24 125.88
  L 235.51 112.31
  A 0.53 0.52 47.2 0 0 235.54 111.46
  C 215.98 96.23 205.34 86.73 175.95 61.96
  C 167.07 54.48 157.74 47.38 147.15 43.84
  C 136.61 40.32 126.51 44.29 117.63 50.90
  C 106.23 59.39 96.20 70.29 86.90 80.91
  Q 69.21 101.11 48.99 125.32
  A 3.34 3.33 -69.9 0 1 46.44 126.51
  L 4.01 126.51
  A 0.46 0.45 -69.6 0 1 3.67 125.76
  Q 23.99 101.93 45.66 78.42
  Q 66.34 56.00 85.44 40.19
  C 101.11 27.23 121.78 15.60 142.79 21.76
  C 155.36 25.45 166.46 33.05 176.33 41.17
  Q 188.59 51.24 201.67 63.83
  Q 221.28 82.71 241.97 102.85
  A 0.51 0.50 -59.1 0 0 242.80 102.64
  L 249.06 83.10
  A 0.44 0.44 0.0 0 1 249.89 83.06
  L 267.96 125.87
  A 0.45 0.45 0.0 0 1 267.55 126.49
  L 215.42 126.49
  Z"
/>
<path fill="#3f82ce" d="
  M 84.03 136.23
  C 84.22 153.67 102.83 162.76 117.36 154.00
  A 7.66 7.37 7.1 0 0 118.48 153.16
  Q 123.04 148.98 123.95 148.44
  C 129.91 144.90 136.52 147.12 139.14 153.46
  C 140.92 157.77 138.79 162.29 135.63 165.40
  Q 123.18 177.65 106.80 178.12
  C 83.53 178.79 63.49 160.04 63.23 136.46
  C 62.98 112.87 82.63 93.70 105.90 93.87
  Q 122.29 93.99 135.00 105.98
  C 138.22 109.02 140.45 113.49 138.76 117.84
  C 136.28 124.23 129.71 126.59 123.68 123.18
  Q 122.76 122.66 118.11 118.58
  A 7.66 7.37 -8.3 0 0 116.97 117.76
  C 102.26 109.32 83.85 118.79 84.03 136.23
  Z"
/>
<path fill="#3f82ce" d="
  M 173.49 94.62
  Q 184.46 94.63 195.50 94.64
  C 198.28 94.65 201.30 94.76 203.52 96.26
  C 210.94 101.30 208.74 112.50 199.33 113.57
  Q 193.85 114.19 184.44 113.76
  A 0.58 0.57 1.0 0 0 183.84 114.33
  Q 183.86 164.14 183.86 164.18
  Q 183.85 168.01 183.33 169.75
  C 181.92 174.40 178.33 177.40 173.46 177.40
  C 168.60 177.40 165.00 174.40 163.60 169.74
  Q 163.08 168.00 163.07 164.17
  Q 163.07 164.13 163.12 114.32
  A 0.58 0.57 -0.9 0 0 162.52 113.75
  Q 153.11 114.18 147.63 113.55
  C 138.23 112.48 136.03 101.28 143.45 96.24
  C 145.68 94.74 148.70 94.64 151.48 94.63
  Q 162.51 94.62 173.49 94.62
  Z"
/>
<path fill="#3f82ce" d="
  M 55.78 145.53
  A 0.33 0.33 0.0 0 1 55.96 146.14
  L 35.69 159.70
  A 0.53 0.52 47.2 0 0 35.66 160.55
  C 55.21 175.78 65.84 185.28 95.22 210.05
  C 104.10 217.53 113.42 224.63 124.01 228.17
  C 134.54 231.69 144.64 227.73 153.52 221.12
  C 164.92 212.64 174.95 201.74 184.25 191.13
  Q 201.94 170.94 222.16 146.74
  A 3.34 3.32 -69.9 0 1 224.71 145.55
  L 267.13 145.56
  A 0.46 0.45 -69.6 0 1 267.47 146.31
  Q 247.15 170.13 225.48 193.62
  Q 204.80 216.03 185.70 231.83
  C 170.03 244.79 149.36 256.41 128.36 250.25
  C 115.80 246.55 104.70 238.95 94.84 230.83
  Q 82.58 220.76 69.51 208.17
  Q 49.91 189.30 29.23 169.16
  A 0.51 0.50 -59.1 0 0 28.40 169.37
  L 22.14 188.90
  A 0.44 0.44 0.0 0 1 21.31 188.94
  L 3.25 146.14
  A 0.45 0.45 0.0 0 1 3.66 145.52
  L 55.78 145.53
  Z"
/>
</svg>
