<svg xmlns="http://www.w3.org/2000/svg" fill="none" viewBox="0 0 146 30" class="h-auto w-full max-w-[145px] lg:max-w-[120px]" style="fill: none !important;"><path fill="#13171F" d="M79.49 9.06q2.1 0 3.668 1.034 1.599 1.004 2.478 2.823.909 1.787.909 4.17 0 2.352-.91 4.17-.877 1.82-2.477 2.854-1.6 1.004-3.7 1.004-2.038 0-3.544-.94a6 6 0 0 1-.564-.415v4.495L71.242 29.4V9.405h3.073l.465 1.636a6 6 0 0 1 1.166-.978Q77.484 9.06 79.49 9.06m17.132 0q2.1 0 3.669 1.034 1.599 1.004 2.478 2.823.909 1.787.909 4.17 0 2.352-.909 4.17-.879 1.82-2.478 2.854-1.6 1.004-3.7 1.004-2.038 0-3.543-.94a6 6 0 0 1-.565-.414v4.772l-4.108.866V9.405h3.073l.466 1.636a6 6 0 0 1 1.165-.978q1.536-1.004 3.543-1.004M42.99 3.038q3.733 0 6.115 1.6 2.383 1.598 3.732 4.451l-3.826 1.38q-1.161-1.88-2.634-2.665-1.474-.784-3.387-.784-1.912 0-3.418.91-1.473.877-2.351 2.477-.847 1.567-.847 3.669 0 2.07.847 3.669.878 1.599 2.351 2.508 1.506.878 3.418.878t3.387-.784q1.473-.783 2.634-2.665l3.826 1.379q-1.349 2.854-3.732 4.453t-6.115 1.6q-3.293 0-5.738-1.411a10.1 10.1 0 0 1-3.763-3.92q-1.317-2.51-1.317-5.707 0-2.415.784-4.422.815-2.039 2.258-3.512a10.5 10.5 0 0 1 3.45-2.289q1.974-.815 4.326-.815M61.406 9.06q2.384 0 4.171 1.034a7.05 7.05 0 0 1 2.822 2.823q1.004 1.787 1.003 4.17 0 2.384-1.003 4.203a7.3 7.3 0 0 1-2.822 2.82q-1.787 1.005-4.17 1.005t-4.203-1.004a7.4 7.4 0 0 1-2.79-2.821q-1.004-1.82-1.004-4.203t1.004-4.17a7.1 7.1 0 0 1 2.79-2.823q1.82-1.035 4.202-1.034m50.597 0q2.32-.001 4.014 1.033a7.03 7.03 0 0 1 2.665 2.854q.94 1.787.941 4.108 0 .345-.031.69 0 .313-.064.533h-11.27q.117 1.52 1.016 2.446 1.067 1.035 2.885 1.034 1.6 0 2.509-.658a6.5 6.5 0 0 0 1.568-1.63l2.854 1.63q-1.035 1.913-2.822 2.947-1.757 1.005-4.265 1.004-2.289 0-4.014-.972a6.86 6.86 0 0 1-2.666-2.79q-.94-1.788-.94-4.203 0-2.383.94-4.17.94-1.82 2.666-2.823 1.725-1.035 4.014-1.034m26.062 5.265 2.932-4.644h4.704l-5.242 7.62 5.305 7.714h-4.672l-3.025-4.733-2.997 4.733h-4.703l5.318-7.692-5.255-7.642h4.704zm-13.084-3.281a10 10 0 0 1 .352-.354c.481-.44.529-.427 1.136-.74.174-.09.995-.242 1.664-.242.014.022 2.038 3.32 2.311 3.365h-1.003q-2.038 0-3.135.659a3 3 0 0 0-.691.534v10.472h-4.107V9.405h3.073zm-46.213 1.779q-1.569 0-2.603 1.191-1.035 1.16-1.034 3.073 0 1.883 1.034 3.074 1.035 1.16 2.603 1.16t2.572-1.16q1.034-1.193 1.034-3.074t-1.034-3.073q-1.005-1.191-2.572-1.191m17.133 0q-1.568 0-2.603 1.191-1.034 1.16-1.034 3.073 0 1.88 1.034 3.073 1.035 1.16 2.603 1.16t2.572-1.16q1.035-1.192 1.034-3.073 0-1.88-1.034-3.073-1.004-1.191-2.572-1.191m-34.495.187q-1.694 0-2.76 1.13-1.035 1.097-1.034 2.916t1.035 2.947q1.065 1.13 2.76 1.13 1.692 0 2.759-1.13 1.066-1.128 1.066-2.916 0-1.818-1.066-2.948-1.065-1.129-2.76-1.129m50.597-.721q-1.694 0-2.729 1.066-.739.74-.949 1.85h7.313a4.4 4.4 0 0 0-.782-1.694q-.909-1.222-2.853-1.222" style="fill: rgb(19, 23, 31) !important;"/><path fill="#4C63ED" d="M14.423 0A14.42 14.42 0 0 1 27.73 8.864l-4.776 1.917a9.28 9.28 0 0 0-12.082-4.93 9.28 9.28 0 0 0-5.727 8.57 9.277 9.277 0 0 0 17.695 3.897l4.84 1.78A14.423 14.423 0 1 1 14.423 0m8.092 10.958.04.096q-.06-.144-.126-.284.044.094.086.188m-.913-1.624q.066.092.13.186-.064-.094-.13-.186m-.57-.722q.096.109.19.22-.094-.111-.19-.22m5.195 14.893-.082.106zm-.484.597-.052.061zM20.647 8.198" style="fill: rgb(76, 99, 237) !important;"/><path fill="#4C63ED" d="M14.422 10.563a3.86 3.86 0 1 1 0 7.719 3.86 3.86 0 0 1 0-7.719" style="fill: rgb(76, 99, 237) !important;"/></svg>