<svg width="128" height="128" viewBox="0 0 128 128" fill="none" xmlns="http://www.w3.org/2000/svg">
<g clip-path="url(#clip0_291_5907)">
<path d="M125.385 70.0617C121.99 65.5492 110.336 59.3849 110.336 59.3849C115.383 58.9921 121.003 57.1992 121.003 57.1992C126.08 55.4667 126.271 52.9284 126.271 52.9284C126.623 50.229 121.698 48.003 121.698 48.003C116.269 45.1223 105.35 43.5207 105.35 43.5207C109.994 40.9825 112.824 38.6457 112.824 38.6457C117.518 34.526 116.239 32.5317 116.239 32.5317C115.574 30.0841 110.457 29.5401 110.457 29.5401C105.763 28.9056 98.0378 30.2351 98.0378 30.2351C100.999 26.458 102.067 22.9628 102.067 22.9628C102.873 20.1526 101.795 18.823 101.795 18.823C100.516 16.6373 96.0031 17.5942 96.0031 17.5942C89.3553 19.1554 84.7723 22.2174 84.7723 22.2174C85.6083 19.2259 85.4673 14.8444 85.4673 14.8444C85.286 13.1824 84.9133 10.9866 83.473 9.92902C81.5995 8.54909 78.9605 9.67721 77.228 10.755C75.4855 11.8428 74.0049 13.3537 72.635 14.8746C72.3933 15.1466 71.1241 16.325 71.1745 16.597C70.7212 14.9854 70.1773 13.404 69.5428 11.8529C68.5959 9.5362 66.2289 6.7159 63.5396 6.58496C60.8502 6.72598 58.4832 9.5362 57.5364 11.8529C56.9018 13.404 56.3579 14.9854 55.9046 16.597C55.955 16.325 54.6959 15.1466 54.4441 14.8746C53.0843 13.3537 51.5936 11.8428 49.8511 10.755C48.1085 9.66714 45.4796 8.54909 43.6061 9.92902C42.1658 10.9866 41.7931 13.1824 41.6118 14.8444C41.6118 14.8444 41.4708 19.2158 42.3068 22.2174C42.3068 22.2174 37.7238 19.1453 31.076 17.5942C31.076 17.5942 26.5534 16.6474 25.2843 18.823C25.2843 18.823 24.1965 20.1526 25.0123 22.9628C25.0123 22.9628 26.0699 26.458 29.0413 30.2351C29.0413 30.2351 21.3157 28.9056 16.622 29.5401C16.622 29.5401 11.5051 30.0941 10.8403 32.5317C10.8403 32.5317 9.56114 34.5361 14.2549 38.6457C14.2549 38.6457 17.0853 40.9825 21.7287 43.5207C21.7287 43.5207 10.8202 45.1223 5.38106 48.003C5.38106 48.003 0.455622 50.2189 0.808159 52.9284C0.808159 52.9284 0.999537 55.4667 6.07607 57.1992C6.07607 57.1992 11.6965 58.982 16.7428 59.3849C16.7428 59.3849 5.08896 65.5492 1.69454 70.0617C1.69454 70.0617 -1.0351 72.7813 -0.350176 75.2692C-0.350176 75.2692 0.244101 78.4118 8.53375 77.8477C8.53375 77.8477 14.9801 77.4549 22.8266 75.1483C22.7964 75.1483 22.7762 75.1685 22.7762 75.1685C22.7762 75.1685 15.0003 83.9718 12.7541 88.6857C12.7541 88.6857 7.69773 96.6631 10.7396 99.7755C10.7396 99.7755 12.1397 101.629 17.6493 99.9266C17.6493 99.9266 25.4656 97.2775 33.7552 90.5592C33.7552 90.5592 30.2903 100.178 29.9277 107.693C29.9277 107.693 29.1723 115.045 32.9696 116.556C32.9696 116.556 36.1525 118.138 42.1758 111.913C42.1758 111.913 49.4381 103.996 53.5879 95.9681C54.1016 100.42 54.8168 104.923 55.955 109.264C56.6701 111.993 57.5464 114.693 58.7954 117.231C59.7221 119.115 61.1524 121.764 63.5396 121.895C65.9368 121.764 67.357 119.115 68.2837 117.221C69.5226 114.683 70.409 111.983 71.1241 109.254C72.2623 104.912 72.9875 100.42 73.4912 95.9581C77.641 103.996 84.9033 111.903 84.9033 111.903C90.9266 118.128 94.1095 116.546 94.1095 116.546C97.9068 115.025 97.1514 107.682 97.1514 107.682C96.7888 100.178 93.3239 90.5491 93.3239 90.5491C101.614 97.2675 109.43 99.9165 109.43 99.9165C114.929 101.619 116.339 99.7654 116.339 99.7654C119.381 96.6531 114.325 88.6757 114.325 88.6757C112.079 83.9718 104.303 75.1584 104.303 75.1584C104.303 75.1584 104.283 75.1584 104.253 75.1382C112.099 77.4448 118.545 77.8377 118.545 77.8377C126.835 78.4017 127.429 75.2591 127.429 75.2591C128.114 72.7712 125.385 70.0516 125.385 70.0516V70.0617ZM111.817 69.0645C111.817 69.0645 110.588 73.7785 92.5281 68.4602C92.5281 68.4602 82.3449 65.2773 77.9231 62.729C77.9231 62.729 87.2401 78.5125 88.1365 91.1333C88.1365 91.1333 88.7409 97.3078 85.8199 98.4359C85.8199 98.4359 82.5866 99.8561 76.0496 91.6269C76.0496 91.6269 68.193 82.1084 63.5899 67.9666C58.9868 82.1084 51.1303 91.6269 51.1303 91.6269C44.5932 99.8662 41.36 98.4359 41.36 98.4359C38.4389 97.3078 39.0433 91.1333 39.0433 91.1333C39.9397 78.5125 49.2568 62.729 49.2568 62.729C44.835 65.2773 34.6517 68.4602 34.6517 68.4602C16.5917 73.7785 15.3629 69.0645 15.3629 69.0645C13.9225 65.2068 24.3475 59.0928 24.3475 59.0928C32.2746 53.8954 44.4119 50.1182 44.4119 50.1182C30.2702 46.0691 25.0526 41.2141 25.0526 41.2141C20.6812 37.5276 22.1114 35.7951 22.1114 35.7951C24.3173 32.0683 36.7065 34.4152 36.7065 34.4152C45.8523 36.1275 50.7979 38.555 50.7979 38.555C46.9804 31.4942 46.1041 25.4104 46.1041 25.4104C44.8752 17.6949 48.2294 17.0301 48.2294 17.0301C50.6971 16.174 54.2829 19.649 54.2829 19.649C61.233 26.7904 63.5899 33.9217 63.5899 33.9217C63.5899 33.9217 65.9569 26.7904 72.8969 19.649C72.8969 19.649 76.4827 16.174 78.9504 17.0301C78.9504 17.0301 82.3046 17.6949 81.0757 25.4104C81.0757 25.4104 80.2095 31.4942 76.382 38.555C76.382 38.555 81.3376 36.1376 90.4734 34.4152C90.4734 34.4152 102.852 32.0683 105.068 35.7951C105.068 35.7951 106.499 37.5276 102.127 41.2141C102.127 41.2141 96.9097 46.059 82.7679 50.1182C82.7679 50.1182 94.9052 53.8954 102.832 59.0928C102.832 59.0928 113.247 65.2068 111.817 69.0645Z" fill="#1566C0"/>
</g>
<defs>
<clipPath id="clip0_291_5907">
<rect width="128" height="128" fill="white"/>
</clipPath>
</defs>
</svg>
