<svg xmlns="http://www.w3.org/2000/svg" width="592" height="100" viewBox="0 0 592 100">
  <g fill="none" fill-rule="evenodd">
    <g fill="#333" transform="translate(115 29)">
      <path d="M21.601,43.72 C18.52,43.72 15.681,43.159 13.081,42.04 C10.48,40.92 8.225,39.391 6.313,37.45 C4.401,35.509 2.901,33.22 1.813,30.58 C0.725,27.939 0.181,25.12 0.181,22.12 L0.181,22 C0.181,19 0.714,16.19 1.783,13.57 C2.851,10.951 4.351,8.65 6.283,6.67 C8.214,4.69 10.501,3.13 13.141,1.99 C15.781,0.85 18.701,0.28 21.901,0.28 C23.821,0.28 25.57,0.441 27.151,0.76 C28.731,1.081 30.181,1.531 31.501,2.11 C32.821,2.691 34.041,3.381 35.161,4.18 C36.28,4.98 37.341,5.86 38.341,6.82 L33.601,12.28 C31.921,10.72 30.141,9.46 28.261,8.5 C26.38,7.54 24.241,7.06 21.841,7.06 C19.84,7.06 17.99,7.45 16.291,8.23 C14.59,9.01 13.121,10.07 11.881,11.41 C10.64,12.75 9.68,14.32 9.001,16.12 C8.32,17.92 7.981,19.84 7.981,21.88 L7.981,22 C7.981,24.04 8.32,25.97 9.001,27.79 C9.681,29.61 10.641,31.2 11.881,32.56 C13.12,33.92 14.59,34.991 16.291,35.77 C17.991,36.55 19.84,36.94 21.841,36.94 C24.4,36.94 26.6,36.451 28.441,35.47 C30.28,34.491 32.101,33.16 33.901,31.48 L38.641,36.28 C37.561,37.441 36.431,38.47 35.251,39.371 C34.071,40.27 32.8,41.051 31.441,41.711 C30.081,42.371 28.591,42.871 26.971,43.211 C25.351,43.549 23.561,43.72 21.601,43.72 Z"/>
      <path fill-rule="nonzero" d="M45.325 1L64.045 1C66.685 1 69.025 1.37 71.065 2.11 73.105 2.851 74.805 3.88 76.165 5.2 77.284 6.361 78.145 7.7 78.745 9.22 79.345 10.741 79.645 12.42 79.645 14.26L79.645 14.38C79.645 16.1 79.395 17.65 78.895 19.03 78.394 20.41 77.704 21.631 76.825 22.69 75.945 23.75 74.895 24.65 73.675 25.39 72.454 26.131 71.104 26.701 69.625 27.1L80.965 43 72.265 43 61.913 28.36 61.793 28.36 52.645 28.36 52.645 43 45.325 43 45.325 1zM63.479 21.82C66.126 21.82 68.233 21.188 69.798 19.923 71.362 18.657 72.146 16.94 72.146 14.771L72.146 14.651C72.146 12.362 71.383 10.624 69.858 9.439 68.333 8.254 66.187 7.662 63.418 7.662L52.646 7.662 52.646 21.822 63.479 21.822 63.479 21.82zM107.358 43.72C104.118 43.72 101.157 43.15 98.478 42.01 95.798 40.87 93.498 39.321 91.578 37.36 89.658 35.401 88.158 33.111 87.078 30.491 85.998 27.871 85.458 25.081 85.458 22.121L85.458 22C85.458 19.041 85.998 16.25 87.078 13.63 88.158 11.011 89.678 8.71 91.638 6.73 93.597 4.75 95.917 3.181 98.598 2.02 101.277.86 104.238.28 107.478.28 110.718.28 113.678.85 116.358 1.99 119.037 3.13 121.338 4.68 123.258 6.64 125.178 8.6 126.678 10.89 127.758 13.51 128.838 16.131 129.378 18.921 129.378 21.88L129.378 22C129.378 24.96 128.838 27.75 127.758 30.37 126.678 32.99 125.157 35.29 123.198 37.269 121.238 39.249 118.918 40.82 116.238 41.979 113.558 43.14 110.598 43.72 107.358 43.72zM107.478 36.94C109.549 36.94 111.451 36.55 113.184 35.77 114.916 34.991 116.4 33.931 117.634 32.59 118.869 31.25 119.834 29.68 120.532 27.88 121.229 26.08 121.578 24.16 121.578 22.12L121.578 22C121.578 19.96 121.229 18.031 120.532 16.21 119.834 14.39 118.859 12.811 117.604 11.47 116.35 10.13 114.846 9.06 113.094 8.26 111.341 7.461 109.429 7.06 107.358 7.06 105.286 7.06 103.385 7.45 101.652 8.23 99.919 9.01 98.435 10.07 97.201 11.41 95.966 12.75 95.001 14.32 94.303 16.12 93.606 17.92 93.258 19.84 93.258 21.88L93.258 22C93.258 24.04 93.606 25.97 94.303 27.79 95.001 29.61 95.976 31.19 97.231 32.529 98.485 33.87 99.989 34.94 101.742 35.74 103.495 36.54 105.407 36.94 107.478 36.94z"/>
      <polygon points="132.036 1 140.016 1 150.036 32.14 160.356 .88 166.596 .88 176.916 32.14 186.935 1 194.675 1 180.035 43.3 173.675 43.3 163.355 13.12 153.035 43.3 146.675 43.3"/>
      <path fill-rule="nonzero" d="M200.915 1L216.575 1C219.854 1 222.864 1.531 225.604 2.59 228.344 3.651 230.705 5.12 232.684 7 234.664 8.881 236.195 11.09 237.274 13.63 238.354 16.171 238.895 18.921 238.895 21.88L238.895 22C238.895 24.96 238.354 27.721 237.274 30.279 236.195 32.84 234.665 35.06 232.684 36.939 230.705 38.82 228.344 40.299 225.604 41.379 222.864 42.459 219.854 42.999 216.575 42.999L200.915 42.999 200.915 1zM216.515 36.34C218.714 36.34 220.716 35.989 222.515 35.286 224.316 34.583 225.845 33.599 227.105 32.334 228.366 31.068 229.345 29.562 230.045 27.814 230.745 26.066 231.095 24.168 231.095 22.121L231.095 22C231.095 19.952 230.745 18.044 230.045 16.276 229.345 14.509 228.365 12.993 227.105 11.728 225.845 10.462 224.316 9.468 222.515 8.745 220.716 8.022 218.714 7.661 216.515 7.661L208.236 7.661 208.236 36.341 216.515 36.341 216.515 36.34zM246.93 1L264.09 1C266.61 1 268.86 1.351 270.84 2.05 272.82 2.751 274.5 3.74 275.88 5.02 277.26 6.301 278.318 7.831 279.06 9.61 279.799 11.39 280.17 13.36 280.17 15.52L280.17 15.64C280.17 18.08 279.729 20.221 278.85 22.06 277.969 23.9 276.759 25.44 275.22 26.68 273.68 27.92 271.879 28.85 269.821 29.47 267.759 30.091 265.55 30.4 263.19 30.4L256.17 30.4 256.17 43 246.93 43 246.93 1zM263.49 22.18C265.808 22.18 267.609 21.571 268.889 20.35 270.169 19.13 270.809 17.62 270.809 15.82L270.809 15.7C270.809 13.62 270.138 12.04 268.799 10.96 267.458 9.88 265.628 9.34 263.309 9.34L256.169 9.34 256.169 22.18 263.49 22.18zM306.959 43.72C303.72 43.72 300.739 43.15 298.02 42.01 295.299 40.87 292.95 39.33 290.97 37.39 288.991 35.451 287.449 33.17 286.35 30.55 285.249 27.931 284.7 25.12 284.7 22.12L284.7 22C284.7 19 285.261 16.19 286.38 13.57 287.5 10.951 289.05 8.65 291.03 6.67 293.01 4.69 295.37 3.13 298.11 1.99 300.85.85 303.84.28 307.081.28 310.32.28 313.3.85 316.02 1.99 318.74 3.13 321.09 4.67 323.07 6.61 325.049 8.551 326.59 10.831 327.69 13.45 328.79 16.07 329.34 18.88 329.34 21.88L329.34 22C329.34 25 328.779 27.811 327.66 30.43 326.539 33.05 324.99 35.35 323.01 37.33 321.03 39.309 318.669 40.87 315.93 42.01 313.189 43.15 310.199 43.72 306.959 43.72zM307.079 35.2C308.918 35.2 310.618 34.86 312.179 34.179 313.74 33.499 315.068 32.559 316.169 31.359 317.269 30.16 318.128 28.77 318.749 27.189 319.368 25.61 319.679 23.919 319.679 22.12L319.679 22C319.679 20.2 319.368 18.5 318.749 16.9 318.128 15.301 317.249 13.9 316.108 12.7 314.968 11.5 313.618 10.55 312.058 9.85 310.498 9.15 308.797 8.8 306.957 8.8 305.077 8.8 303.367 9.14 301.828 9.82 300.287 10.501 298.967 11.44 297.867 12.64 296.767 13.84 295.907 15.23 295.287 16.81 294.667 18.391 294.357 20.08 294.357 21.88L294.357 22C294.357 23.8 294.667 25.5 295.287 27.1 295.907 28.701 296.787 30.1 297.928 31.3 299.068 32.5 300.407 33.45 301.948 34.15 303.488 34.85 305.199 35.2 307.079 35.2z"/>
      <polygon points="331.337 1 341.237 1 349.937 29.439 359.357 .879 367.277 .879 376.697 29.439 385.396 1 395.056 1 380.716 43.3 372.677 43.3 363.197 15.82 353.717 43.3 345.678 43.3"/>
      <polygon points="400.599 1 432.219 1 432.219 9.22 409.719 9.22 409.719 17.74 429.519 17.74 429.519 25.96 409.719 25.96 409.719 34.779 432.519 34.779 432.519 43 400.599 43"/>
      <path fill-rule="nonzero" d="M440.758,1 L459.958,1 C465.277,1 469.357,2.42 472.198,5.26 C474.597,7.66 475.798,10.861 475.798,14.86 L475.798,14.98 C475.798,18.38 474.967,21.15 473.308,23.29 C471.648,25.43 469.478,27 466.798,28 L477.058,43 L466.258,43 L457.258,29.56 L457.138,29.56 L449.997,29.56 L449.997,43 L440.758,43 L440.758,1 Z M459.357,21.4 C461.637,21.4 463.386,20.86 464.607,19.78 C465.827,18.7 466.437,17.26 466.437,15.46 L466.437,15.34 C466.437,13.34 465.797,11.84 464.517,10.84 C463.237,9.841 461.457,9.34 459.177,9.34 L449.996,9.34 L449.996,21.4 L459.357,21.4 Z"/>
    </g>
    <g opacity=".9">
      <path fill="#00C8FF" d="M65,2.28901142 C77.0321344,6.06808641 87.1042917,14.2730249 93.3084815,24.9958365 L71.6542408,37.4979183 C69.9607827,34.5710845 67.6909676,32.0194333 65,29.9981691 C60.8216973,26.8597241 55.6280296,25 50,25 C43.0964406,25 36.8464406,27.7982203 32.3223305,32.3223305 L14.6446609,32.3223305 L14.6446609,14.6446609 C23.6928813,5.59644063 36.1928813,1.42108547e-14 50,1.42108547e-14 C55.2260286,1.42108547e-14 60.2647939,0.801769141 65,2.28901142 Z"/>
      <path fill="#0064FF" d="M71.6542408,62.5 L88.2663488,59.5 L93.3084815,75.0020817 C91.1131913,78.7962408 88.4336211,82.2751554 85.3542982,85.3542982 C76.3071187,94.4035594 63.8071187,100 50,100 C38.9557859,100 28.7479036,96.4192384 20.4739777,90.3553399 L37.3223305,90.3553391 L37.3223305,71.5516899 C41.0393638,73.7429365 45.3728805,75 50,75 C55.6280296,75 60.8216973,73.1402759 65,70.0018309 C67.6909676,67.978485 69.9607827,65.4268338 71.6542408,62.5 Z"/>
      <path fill="#0096FF" d="M28.4483101,37.3223305 C26.2570635,41.0393638 25,45.3728805 25,50 C25,56.9035594 27.7982203,63.1535594 32.3223305,67.6776695 L32.3223305,85.3553391 L14.6446609,85.3553391 C5.59644063,76.3071187 -3.55271368e-15,63.8071187 -3.55271368e-15,50 C-3.55271368e-15,38.9557859 3.58076163,28.7479036 9.6446601,20.4739777 L9.64466094,37.3223305 L28.4483101,37.3223305 Z"/>
    </g>
  </g>
</svg>
