<?xml version="1.0" encoding="UTF-8" standalone="no"?>
<!DOCTYPE svg PUBLIC "-//W3C//DTD SVG 1.1//EN" "http://www.w3.org/Graphics/SVG/1.1/DTD/svg11.dtd">
<svg xmlns="http://www.w3.org/2000/svg" version="1.1" viewBox="0.00 0.00 400.00 400.00">
<path stroke="#855530" stroke-width="2.00" fill="none" stroke-linecap="butt" vector-effect="non-scaling-stroke" d="
  M 161.70 396.02
  L 171.57 397.81
  A 0.86 0.86 0.0 0 0 172.52 397.27
  C 189.74 350.79 202.29 301.57 205.27 252.75
  Q 206.49 232.62 205.22 214.58
  A 1.94 1.87 -5.9 0 1 206.91 212.58
  Q 208.41 212.38 209.21 214.10
  Q 210.89 217.72 220.53 237.26
  Q 223.45 243.16 224.06 249.34
  Q 224.77 256.47 225.11 257.70
  Q 227.40 266.08 232.87 272.11
  C 234.46 273.86 237.46 276.11 239.87 275.08
  Q 241.75 274.27 242.03 272.01
  C 242.87 265.21 240.00 258.73 236.39 252.94
  Q 235.33 251.24 230.70 246.78
  Q 226.04 242.30 224.07 238.20
  Q 217.14 223.86 211.76 212.43
  A 2.19 2.06 -34.0 0 1 212.31 209.97
  Q 214.00 208.42 216.17 210.36
  Q 223.30 216.75 249.27 239.65
  C 254.23 244.03 257.81 248.07 261.01 253.50
  C 263.15 257.13 264.61 261.36 267.13 264.81
  Q 273.34 273.30 282.65 278.86
  C 285.95 280.83 291.99 283.28 295.55 281.53
  C 300.12 279.29 297.80 272.89 295.90 269.66
  Q 289.95 259.52 279.09 252.69
  Q 277.17 251.48 269.93 248.55
  Q 260.57 244.77 255.08 239.90
  Q 243.44 229.61 219.87 208.14
  C 218.43 206.82 217.00 205.60 217.85 203.91
  Q 218.39 202.83 219.75 202.64
  A 1.88 1.84 -37.9 0 1 220.64 202.74
  Q 231.10 206.67 246.80 212.72
  C 251.34 214.47 254.93 216.95 258.68 220.33
  C 264.54 225.61 275.15 228.80 282.68 227.19
  C 286.49 226.38 286.12 222.44 284.09 220.35
  Q 278.18 214.27 267.92 211.94
  Q 265.93 211.49 259.01 211.44
  Q 252.47 211.40 246.82 209.42
  Q 230.07 203.54 221.58 200.42
  C 219.10 199.51 219.62 195.85 222.31 195.67
  Q 229.55 195.20 269.51 193.19
  Q 279.06 192.71 289.01 196.09
  Q 295.09 198.16 298.01 198.53
  Q 312.09 200.30 323.68 195.18
  C 326.99 193.72 331.33 190.25 329.44 186.51
  C 327.41 182.52 320.64 180.75 316.44 180.03
  Q 307.05 178.44 296.48 180.88
  Q 294.40 181.36 287.31 184.60
  Q 279.82 188.03 270.22 188.61
  Q 254.36 189.58 222.27 191.18
  C 220.61 191.26 218.94 189.25 220.01 187.71
  Q 220.64 186.80 222.23 186.05
  Q 230.45 182.19 243.13 176.11
  C 247.61 173.96 252.19 172.42 256.79 172.15
  Q 270.76 171.32 279.48 162.72
  C 285.17 157.09 281.42 153.08 274.46 154.03
  Q 267.37 155.00 260.94 159.22
  C 257.00 161.80 253.66 166.05 250.25 168.75
  Q 246.95 171.37 241.00 174.21
  Q 223.45 182.59 219.64 184.35
  Q 218.40 184.92 217.33 184.17
  A 2.37 2.34 -51.6 0 1 216.95 180.67
  Q 235.71 159.66 250.42 143.44
  Q 254.81 138.61 263.10 134.26
  Q 269.71 130.80 271.35 129.56
  C 278.99 123.82 288.11 114.03 288.91 104.26
  C 289.61 95.75 280.49 98.12 276.20 100.73
  Q 265.76 107.09 259.39 117.65
  C 257.19 121.28 256.32 124.65 254.68 128.43
  Q 251.05 136.73 245.08 143.34
  Q 220.10 170.99 213.71 177.96
  Q 212.37 179.42 210.87 178.66
  A 2.59 2.47 -67.3 0 1 209.69 175.58
  Q 212.83 166.31 219.11 149.12
  Q 220.73 144.67 225.01 139.44
  Q 228.85 134.73 229.92 132.66
  C 232.48 127.65 235.64 118.12 233.34 112.95
  C 230.84 107.35 225.55 112.71 223.59 115.61
  Q 219.73 121.31 218.22 128.71
  Q 217.85 130.55 217.85 137.31
  Q 217.84 143.88 216.15 148.89
  Q 213.96 155.40 207.36 173.87
  C 206.80 175.45 204.07 177.34 202.70 175.32
  Q 202.28 174.70 202.18 173.02
  Q 199.93 131.71 199.63 123.03
  Q 199.42 116.87 201.92 108.76
  Q 204.48 100.49 204.72 98.77
  Q 206.75 84.32 201.36 72.21
  Q 199.69 68.48 197.16 67.07
  C 191.83 64.09 188.60 71.13 187.63 75.14
  Q 184.86 86.55 187.57 98.80
  C 188.51 103.09 191.34 107.82 192.48 111.29
  Q 195.15 119.38 195.46 125.01
  Q 197.40 160.48 198.00 173.81
  A 2.62 2.51 77.7 0 1 196.47 176.31
  Q 194.57 177.11 193.41 174.84
  Q 192.41 172.88 182.84 152.79
  C 181.04 148.98 179.86 145.66 179.29 141.72
  C 178.64 137.26 178.74 134.16 177.48 130.20
  Q 175.16 122.90 170.48 117.53
  C 164.96 111.22 159.61 113.65 160.93 122.05
  Q 162.01 128.87 166.20 135.45
  Q 167.54 137.55 172.19 142.24
  Q 177.27 147.36 179.33 151.65
  Q 188.74 171.23 191.25 176.62
  C 192.09 178.43 190.23 180.02 188.56 179.68
  Q 187.85 179.54 186.11 177.96
  Q 168.31 161.82 153.80 148.70
  Q 147.69 143.18 144.16 137.91
  Q 142.98 136.14 139.41 129.15
  Q 132.86 116.34 119.34 109.12
  C 115.92 107.29 106.26 104.12 105.48 110.55
  C 104.98 114.71 107.43 119.19 109.92 122.60
  C 114.81 129.30 122.27 136.17 130.24 138.96
  C 138.71 141.93 145.51 146.08 152.00 152.17
  Q 152.61 152.74 184.65 182.26
  A 2.49 2.45 38.9 0 1 185.02 185.50
  Q 184.03 186.89 181.83 186.11
  Q 171.09 182.28 156.12 176.88
  Q 150.57 174.88 143.04 168.19
  A 8.39 7.74 -6.1 0 0 141.99 167.41
  C 136.31 163.90 126.67 160.34 120.19 162.41
  C 115.14 164.03 117.90 168.79 120.60 170.90
  Q 129.94 178.21 141.28 178.04
  C 147.39 177.96 151.46 178.29 155.94 179.82
  Q 161.09 181.57 181.21 188.75
  A 1.81 1.75 72.6 0 1 181.76 189.05
  Q 184.05 190.83 182.26 193.12
  A 1.38 1.37 -72.3 0 1 181.24 193.65
  Q 134.20 196.12 134.10 196.13
  C 128.15 196.68 120.58 195.87 114.98 193.86
  Q 108.87 191.65 105.42 191.16
  Q 92.40 189.28 80.59 193.80
  C 77.79 194.87 73.10 197.71 73.13 201.05
  C 73.16 204.79 77.78 207.12 81.06 207.98
  C 92.28 210.95 104.02 210.10 114.63 204.89
  Q 122.39 201.08 131.78 200.51
  Q 157.90 198.93 180.67 197.87
  A 2.55 2.51 -7.6 0 1 183.27 199.83
  Q 183.67 201.63 181.76 202.54
  Q 157.61 213.98 157.35 214.10
  C 152.73 216.23 148.09 217.15 143.13 217.28
  C 136.91 217.43 129.68 221.00 125.04 224.83
  C 121.74 227.57 117.36 234.44 125.17 235.03
  C 131.48 235.51 138.02 232.56 143.38 229.16
  Q 144.84 228.23 149.11 223.81
  Q 153.75 219.01 158.62 216.62
  Q 163.69 214.14 183.59 204.69
  A 2.33 2.33 0.0 0 1 186.70 205.80
  Q 187.41 207.29 186.02 208.78
  Q 180.27 214.96 154.66 243.09
  C 149.36 248.92 144.16 252.65 137.00 256.15
  C 127.87 260.61 120.08 269.02 115.69 277.94
  C 113.72 281.93 111.67 290.97 118.96 290.83
  C 123.33 290.74 128.60 287.31 131.87 284.62
  C 137.69 279.83 143.44 273.17 146.00 266.04
  C 149.12 257.32 153.19 250.90 159.50 243.88
  Q 171.52 230.51 188.87 211.21
  A 2.34 2.33 -49.3 0 1 192.09 210.96
  C 193.12 211.80 193.05 213.03 192.62 214.25
  Q 184.07 238.16 183.47 239.72
  Q 181.54 244.73 177.21 249.94
  Q 173.53 254.39 172.46 256.55
  C 169.98 261.57 167.86 268.02 168.51 273.26
  Q 168.86 276.07 169.35 276.75
  Q 171.82 280.17 175.54 277.13
  C 180.80 272.81 185.21 262.15 184.70 255.37
  C 184.29 249.98 185.10 244.54 187.13 238.60
  Q 188.10 235.77 196.02 214.02
  Q 196.47 212.78 198.10 212.96
  A 1.75 1.74 -87.7 0 1 199.66 214.65
  Q 199.91 224.50 199.25 236.00
  Q 194.45 319.13 161.45 395.56
  A 0.34 0.34 0.0 0 0 161.70 396.02"
/>
<path fill="#0b1460" d="
  M 400.00 0.00
  L 400.00 400.00
  L 0.00 400.00
  L 0.00 0.00
  L 400.00 0.00
  Z
  M 161.70 396.02
  L 171.57 397.81
  A 0.86 0.86 0.0 0 0 172.52 397.27
  C 189.74 350.79 202.29 301.57 205.27 252.75
  Q 206.49 232.62 205.22 214.58
  A 1.94 1.87 -5.9 0 1 206.91 212.58
  Q 208.41 212.38 209.21 214.10
  Q 210.89 217.72 220.53 237.26
  Q 223.45 243.16 224.06 249.34
  Q 224.77 256.47 225.11 257.70
  Q 227.40 266.08 232.87 272.11
  C 234.46 273.86 237.46 276.11 239.87 275.08
  Q 241.75 274.27 242.03 272.01
  C 242.87 265.21 240.00 258.73 236.39 252.94
  Q 235.33 251.24 230.70 246.78
  Q 226.04 242.30 224.07 238.20
  Q 217.14 223.86 211.76 212.43
  A 2.19 2.06 -34.0 0 1 212.31 209.97
  Q 214.00 208.42 216.17 210.36
  Q 223.30 216.75 249.27 239.65
  C 254.23 244.03 257.81 248.07 261.01 253.50
  C 263.15 257.13 264.61 261.36 267.13 264.81
  Q 273.34 273.30 282.65 278.86
  C 285.95 280.83 291.99 283.28 295.55 281.53
  C 300.12 279.29 297.80 272.89 295.90 269.66
  Q 289.95 259.52 279.09 252.69
  Q 277.17 251.48 269.93 248.55
  Q 260.57 244.77 255.08 239.90
  Q 243.44 229.61 219.87 208.14
  C 218.43 206.82 217.00 205.60 217.85 203.91
  Q 218.39 202.83 219.75 202.64
  A 1.88 1.84 -37.9 0 1 220.64 202.74
  Q 231.10 206.67 246.80 212.72
  C 251.34 214.47 254.93 216.95 258.68 220.33
  C 264.54 225.61 275.15 228.80 282.68 227.19
  C 286.49 226.38 286.12 222.44 284.09 220.35
  Q 278.18 214.27 267.92 211.94
  Q 265.93 211.49 259.01 211.44
  Q 252.47 211.40 246.82 209.42
  Q 230.07 203.54 221.58 200.42
  C 219.10 199.51 219.62 195.85 222.31 195.67
  Q 229.55 195.20 269.51 193.19
  Q 279.06 192.71 289.01 196.09
  Q 295.09 198.16 298.01 198.53
  Q 312.09 200.30 323.68 195.18
  C 326.99 193.72 331.33 190.25 329.44 186.51
  C 327.41 182.52 320.64 180.75 316.44 180.03
  Q 307.05 178.44 296.48 180.88
  Q 294.40 181.36 287.31 184.60
  Q 279.82 188.03 270.22 188.61
  Q 254.36 189.58 222.27 191.18
  C 220.61 191.26 218.94 189.25 220.01 187.71
  Q 220.64 186.80 222.23 186.05
  Q 230.45 182.19 243.13 176.11
  C 247.61 173.96 252.19 172.42 256.79 172.15
  Q 270.76 171.32 279.48 162.72
  C 285.17 157.09 281.42 153.08 274.46 154.03
  Q 267.37 155.00 260.94 159.22
  C 257.00 161.80 253.66 166.05 250.25 168.75
  Q 246.95 171.37 241.00 174.21
  Q 223.45 182.59 219.64 184.35
  Q 218.40 184.92 217.33 184.17
  A 2.37 2.34 -51.6 0 1 216.95 180.67
  Q 235.71 159.66 250.42 143.44
  Q 254.81 138.61 263.10 134.26
  Q 269.71 130.80 271.35 129.56
  C 278.99 123.82 288.11 114.03 288.91 104.26
  C 289.61 95.75 280.49 98.12 276.20 100.73
  Q 265.76 107.09 259.39 117.65
  C 257.19 121.28 256.32 124.65 254.68 128.43
  Q 251.05 136.73 245.08 143.34
  Q 220.10 170.99 213.71 177.96
  Q 212.37 179.42 210.87 178.66
  A 2.59 2.47 -67.3 0 1 209.69 175.58
  Q 212.83 166.31 219.11 149.12
  Q 220.73 144.67 225.01 139.44
  Q 228.85 134.73 229.92 132.66
  C 232.48 127.65 235.64 118.12 233.34 112.95
  C 230.84 107.35 225.55 112.71 223.59 115.61
  Q 219.73 121.31 218.22 128.71
  Q 217.85 130.55 217.85 137.31
  Q 217.84 143.88 216.15 148.89
  Q 213.96 155.40 207.36 173.87
  C 206.80 175.45 204.07 177.34 202.70 175.32
  Q 202.28 174.70 202.18 173.02
  Q 199.93 131.71 199.63 123.03
  Q 199.42 116.87 201.92 108.76
  Q 204.48 100.49 204.72 98.77
  Q 206.75 84.32 201.36 72.21
  Q 199.69 68.48 197.16 67.07
  C 191.83 64.09 188.60 71.13 187.63 75.14
  Q 184.86 86.55 187.57 98.80
  C 188.51 103.09 191.34 107.82 192.48 111.29
  Q 195.15 119.38 195.46 125.01
  Q 197.40 160.48 198.00 173.81
  A 2.62 2.51 77.7 0 1 196.47 176.31
  Q 194.57 177.11 193.41 174.84
  Q 192.41 172.88 182.84 152.79
  C 181.04 148.98 179.86 145.66 179.29 141.72
  C 178.64 137.26 178.74 134.16 177.48 130.20
  Q 175.16 122.90 170.48 117.53
  C 164.96 111.22 159.61 113.65 160.93 122.05
  Q 162.01 128.87 166.20 135.45
  Q 167.54 137.55 172.19 142.24
  Q 177.27 147.36 179.33 151.65
  Q 188.74 171.23 191.25 176.62
  C 192.09 178.43 190.23 180.02 188.56 179.68
  Q 187.85 179.54 186.11 177.96
  Q 168.31 161.82 153.80 148.70
  Q 147.69 143.18 144.16 137.91
  Q 142.98 136.14 139.41 129.15
  Q 132.86 116.34 119.34 109.12
  C 115.92 107.29 106.26 104.12 105.48 110.55
  C 104.98 114.71 107.43 119.19 109.92 122.60
  C 114.81 129.30 122.27 136.17 130.24 138.96
  C 138.71 141.93 145.51 146.08 152.00 152.17
  Q 152.61 152.74 184.65 182.26
  A 2.49 2.45 38.9 0 1 185.02 185.50
  Q 184.03 186.89 181.83 186.11
  Q 171.09 182.28 156.12 176.88
  Q 150.57 174.88 143.04 168.19
  A 8.39 7.74 -6.1 0 0 141.99 167.41
  C 136.31 163.90 126.67 160.34 120.19 162.41
  C 115.14 164.03 117.90 168.79 120.60 170.90
  Q 129.94 178.21 141.28 178.04
  C 147.39 177.96 151.46 178.29 155.94 179.82
  Q 161.09 181.57 181.21 188.75
  A 1.81 1.75 72.6 0 1 181.76 189.05
  Q 184.05 190.83 182.26 193.12
  A 1.38 1.37 -72.3 0 1 181.24 193.65
  Q 134.20 196.12 134.10 196.13
  C 128.15 196.68 120.58 195.87 114.98 193.86
  Q 108.87 191.65 105.42 191.16
  Q 92.40 189.28 80.59 193.80
  C 77.79 194.87 73.10 197.71 73.13 201.05
  C 73.16 204.79 77.78 207.12 81.06 207.98
  C 92.28 210.95 104.02 210.10 114.63 204.89
  Q 122.39 201.08 131.78 200.51
  Q 157.90 198.93 180.67 197.87
  A 2.55 2.51 -7.6 0 1 183.27 199.83
  Q 183.67 201.63 181.76 202.54
  Q 157.61 213.98 157.35 214.10
  C 152.73 216.23 148.09 217.15 143.13 217.28
  C 136.91 217.43 129.68 221.00 125.04 224.83
  C 121.74 227.57 117.36 234.44 125.17 235.03
  C 131.48 235.51 138.02 232.56 143.38 229.16
  Q 144.84 228.23 149.11 223.81
  Q 153.75 219.01 158.62 216.62
  Q 163.69 214.14 183.59 204.69
  A 2.33 2.33 0.0 0 1 186.70 205.80
  Q 187.41 207.29 186.02 208.78
  Q 180.27 214.96 154.66 243.09
  C 149.36 248.92 144.16 252.65 137.00 256.15
  C 127.87 260.61 120.08 269.02 115.69 277.94
  C 113.72 281.93 111.67 290.97 118.96 290.83
  C 123.33 290.74 128.60 287.31 131.87 284.62
  C 137.69 279.83 143.44 273.17 146.00 266.04
  C 149.12 257.32 153.19 250.90 159.50 243.88
  Q 171.52 230.51 188.87 211.21
  A 2.34 2.33 -49.3 0 1 192.09 210.96
  C 193.12 211.80 193.05 213.03 192.62 214.25
  Q 184.07 238.16 183.47 239.72
  Q 181.54 244.73 177.21 249.94
  Q 173.53 254.39 172.46 256.55
  C 169.98 261.57 167.86 268.02 168.51 273.26
  Q 168.86 276.07 169.35 276.75
  Q 171.82 280.17 175.54 277.13
  C 180.80 272.81 185.21 262.15 184.70 255.37
  C 184.29 249.98 185.10 244.54 187.13 238.60
  Q 188.10 235.77 196.02 214.02
  Q 196.47 212.78 198.10 212.96
  A 1.75 1.74 -87.7 0 1 199.66 214.65
  Q 199.91 224.50 199.25 236.00
  Q 194.45 319.13 161.45 395.56
  A 0.34 0.34 0.0 0 0 161.70 396.02
  Z"
/>
<path fill="#ff9600" d="
  M 161.70 396.02
  A 0.34 0.34 0.0 0 1 161.45 395.56
  Q 194.45 319.13 199.25 236.00
  Q 199.91 224.50 199.66 214.65
  A 1.75 1.74 -87.7 0 0 198.10 212.96
  Q 196.47 212.78 196.02 214.02
  Q 188.10 235.77 187.13 238.60
  C 185.10 244.54 184.29 249.98 184.70 255.37
  C 185.21 262.15 180.80 272.81 175.54 277.13
  Q 171.82 280.17 169.35 276.75
  Q 168.86 276.07 168.51 273.26
  C 167.86 268.02 169.98 261.57 172.46 256.55
  Q 173.53 254.39 177.21 249.94
  Q 181.54 244.73 183.47 239.72
  Q 184.07 238.16 192.62 214.25
  C 193.05 213.03 193.12 211.80 192.09 210.96
  A 2.34 2.33 -49.3 0 0 188.87 211.21
  Q 171.52 230.51 159.50 243.88
  C 153.19 250.90 149.12 257.32 146.00 266.04
  C 143.44 273.17 137.69 279.83 131.87 284.62
  C 128.60 287.31 123.33 290.74 118.96 290.83
  C 111.67 290.97 113.72 281.93 115.69 277.94
  C 120.08 269.02 127.87 260.61 137.00 256.15
  C 144.16 252.65 149.36 248.92 154.66 243.09
  Q 180.27 214.96 186.02 208.78
  Q 187.41 207.29 186.70 205.80
  A 2.33 2.33 0.0 0 0 183.59 204.69
  Q 163.69 214.14 158.62 216.62
  Q 153.75 219.01 149.11 223.81
  Q 144.84 228.23 143.38 229.16
  C 138.02 232.56 131.48 235.51 125.17 235.03
  C 117.36 234.44 121.74 227.57 125.04 224.83
  C 129.68 221.00 136.91 217.43 143.13 217.28
  C 148.09 217.15 152.73 216.23 157.35 214.10
  Q 157.61 213.98 181.76 202.54
  Q 183.67 201.63 183.27 199.83
  A 2.55 2.51 -7.6 0 0 180.67 197.87
  Q 157.90 198.93 131.78 200.51
  Q 122.39 201.08 114.63 204.89
  C 104.02 210.10 92.28 210.95 81.06 207.98
  C 77.78 207.12 73.16 204.79 73.13 201.05
  C 73.10 197.71 77.79 194.87 80.59 193.80
  Q 92.40 189.28 105.42 191.16
  Q 108.87 191.65 114.98 193.86
  C 120.58 195.87 128.15 196.68 134.10 196.13
  Q 134.20 196.12 181.24 193.65
  A 1.38 1.37 -72.3 0 0 182.26 193.12
  Q 184.05 190.83 181.76 189.05
  A 1.81 1.75 72.6 0 0 181.21 188.75
  Q 161.09 181.57 155.94 179.82
  C 151.46 178.29 147.39 177.96 141.28 178.04
  Q 129.94 178.21 120.60 170.90
  C 117.90 168.79 115.14 164.03 120.19 162.41
  C 126.67 160.34 136.31 163.90 141.99 167.41
  A 8.39 7.74 -6.1 0 1 143.04 168.19
  Q 150.57 174.88 156.12 176.88
  Q 171.09 182.28 181.83 186.11
  Q 184.03 186.89 185.02 185.50
  A 2.49 2.45 38.9 0 0 184.65 182.26
  Q 152.61 152.74 152.00 152.17
  C 145.51 146.08 138.71 141.93 130.24 138.96
  C 122.27 136.17 114.81 129.30 109.92 122.60
  C 107.43 119.19 104.98 114.71 105.48 110.55
  C 106.26 104.12 115.92 107.29 119.34 109.12
  Q 132.86 116.34 139.41 129.15
  Q 142.98 136.14 144.16 137.91
  Q 147.69 143.18 153.80 148.70
  Q 168.31 161.82 186.11 177.96
  Q 187.85 179.54 188.56 179.68
  C 190.23 180.02 192.09 178.43 191.25 176.62
  Q 188.74 171.23 179.33 151.65
  Q 177.27 147.36 172.19 142.24
  Q 167.54 137.55 166.20 135.45
  Q 162.01 128.87 160.93 122.05
  C 159.61 113.65 164.96 111.22 170.48 117.53
  Q 175.16 122.90 177.48 130.20
  C 178.74 134.16 178.64 137.26 179.29 141.72
  C 179.86 145.66 181.04 148.98 182.84 152.79
  Q 192.41 172.88 193.41 174.84
  Q 194.57 177.11 196.47 176.31
  A 2.62 2.51 77.7 0 0 198.00 173.81
  Q 197.40 160.48 195.46 125.01
  Q 195.15 119.38 192.48 111.29
  C 191.34 107.82 188.51 103.09 187.57 98.80
  Q 184.86 86.55 187.63 75.14
  C 188.60 71.13 191.83 64.09 197.16 67.07
  Q 199.69 68.48 201.36 72.21
  Q 206.75 84.32 204.72 98.77
  Q 204.48 100.49 201.92 108.76
  Q 199.42 116.87 199.63 123.03
  Q 199.93 131.71 202.18 173.02
  Q 202.28 174.70 202.70 175.32
  C 204.07 177.34 206.80 175.45 207.36 173.87
  Q 213.96 155.40 216.15 148.89
  Q 217.84 143.88 217.85 137.31
  Q 217.85 130.55 218.22 128.71
  Q 219.73 121.31 223.59 115.61
  C 225.55 112.71 230.84 107.35 233.34 112.95
  C 235.64 118.12 232.48 127.65 229.92 132.66
  Q 228.85 134.73 225.01 139.44
  Q 220.73 144.67 219.11 149.12
  Q 212.83 166.31 209.69 175.58
  A 2.59 2.47 -67.3 0 0 210.87 178.66
  Q 212.37 179.42 213.71 177.96
  Q 220.10 170.99 245.08 143.34
  Q 251.05 136.73 254.68 128.43
  C 256.32 124.65 257.19 121.28 259.39 117.65
  Q 265.76 107.09 276.20 100.73
  C 280.49 98.12 289.61 95.75 288.91 104.26
  C 288.11 114.03 278.99 123.82 271.35 129.56
  Q 269.71 130.80 263.10 134.26
  Q 254.81 138.61 250.42 143.44
  Q 235.71 159.66 216.95 180.67
  A 2.37 2.34 -51.6 0 0 217.33 184.17
  Q 218.40 184.92 219.64 184.35
  Q 223.45 182.59 241.00 174.21
  Q 246.95 171.37 250.25 168.75
  C 253.66 166.05 257.00 161.80 260.94 159.22
  Q 267.37 155.00 274.46 154.03
  C 281.42 153.08 285.17 157.09 279.48 162.72
  Q 270.76 171.32 256.79 172.15
  C 252.19 172.42 247.61 173.96 243.13 176.11
  Q 230.45 182.19 222.23 186.05
  Q 220.64 186.80 220.01 187.71
  C 218.94 189.25 220.61 191.26 222.27 191.18
  Q 254.36 189.58 270.22 188.61
  Q 279.82 188.03 287.31 184.60
  Q 294.40 181.36 296.48 180.88
  Q 307.05 178.44 316.44 180.03
  C 320.64 180.75 327.41 182.52 329.44 186.51
  C 331.33 190.25 326.99 193.72 323.68 195.18
  Q 312.09 200.30 298.01 198.53
  Q 295.09 198.16 289.01 196.09
  Q 279.06 192.71 269.51 193.19
  Q 229.55 195.20 222.31 195.67
  C 219.62 195.85 219.10 199.51 221.58 200.42
  Q 230.07 203.54 246.82 209.42
  Q 252.47 211.40 259.01 211.44
  Q 265.93 211.49 267.92 211.94
  Q 278.18 214.27 284.09 220.35
  C 286.12 222.44 286.49 226.38 282.68 227.19
  C 275.15 228.80 264.54 225.61 258.68 220.33
  C 254.93 216.95 251.34 214.47 246.80 212.72
  Q 231.10 206.67 220.64 202.74
  A 1.88 1.84 -37.9 0 0 219.75 202.64
  Q 218.39 202.83 217.85 203.91
  C 217.00 205.60 218.43 206.82 219.87 208.14
  Q 243.44 229.61 255.08 239.90
  Q 260.57 244.77 269.93 248.55
  Q 277.17 251.48 279.09 252.69
  Q 289.95 259.52 295.90 269.66
  C 297.80 272.89 300.12 279.29 295.55 281.53
  C 291.99 283.28 285.95 280.83 282.65 278.86
  Q 273.34 273.30 267.13 264.81
  C 264.61 261.36 263.15 257.13 261.01 253.50
  C 257.81 248.07 254.23 244.03 249.27 239.65
  Q 223.30 216.75 216.17 210.36
  Q 214.00 208.42 212.31 209.97
  A 2.19 2.06 -34.0 0 0 211.76 212.43
  Q 217.14 223.86 224.07 238.20
  Q 226.04 242.30 230.70 246.78
  Q 235.33 251.24 236.39 252.94
  C 240.00 258.73 242.87 265.21 242.03 272.01
  Q 241.75 274.27 239.87 275.08
  C 237.46 276.11 234.46 273.86 232.87 272.11
  Q 227.40 266.08 225.11 257.70
  Q 224.77 256.47 224.06 249.34
  Q 223.45 243.16 220.53 237.26
  Q 210.89 217.72 209.21 214.10
  Q 208.41 212.38 206.91 212.58
  A 1.94 1.87 -5.9 0 0 205.22 214.58
  Q 206.49 232.62 205.27 252.75
  C 202.29 301.57 189.74 350.79 172.52 397.27
  A 0.86 0.86 0.0 0 1 171.57 397.81
  L 161.70 396.02
  Z"
/>
</svg>
