<svg xmlns="http://www.w3.org/2000/svg" width="40px" height="20px" fill="#822ef5" viewBox="0 0 100 50" aria-hidden="true" class="primary-nav__logo__expansion svg--color" style="fill: rgb(130, 46, 245) !important;"><title style="fill: rgb(130, 46, 245) !important;"/>
  
  <path d="M93.3 35.8c0-1.6-1.3-2.9-2.9-2.9-1.6 0-2.9 1.3-2.9 2.9 0 1.6 1.3 2.9 2.9 2.9 1.6 0 2.9-1.3 2.9-2.9m-16 3.6c-2.3 0-4.4-.7-6.6-2l2.1-4.3c1.6 1.1 3.3 1.7 4.7 1.7 1 0 1.8-.5 1.8-1.3 0-.3-.1-.7-.3-.8-.3-.3-.7-.4-2.2-.8-.8-.2-2.4-.8-3.2-1.5-1-.8-1.6-2-1.6-3.4 0-3.8 2.8-6.2 7.4-6.2 1.8 0 3.6.3 5.3 1.1l-2 4c-1.1-.6-2.2-.9-3.2-.9-1.1 0-1.8.5-1.8 1.3 0 .3.2.5.3.7.5.4 1.8.7 2.5.9 1 .3 2 .7 2.8 1.3 1 .8 1.7 2 1.7 3.7.1 3.9-3 6.5-7.7 6.5M66.2 26.5v12.2h-5.9V26.5h-2.6v-5.1h2.6v-5.2h5.9v5.2h4.1v5.1zM49.7 38.7V10.6h5.8v28.1zm-12.6.7c-5.7 0-8.7-2.5-8.7-7.1v-11h5.9v9.8c0 2.2.9 3.2 2.8 3.2 1.8 0 2.8-1.1 2.8-3.2v-9.8h5.8v11c.1 4.7-2.8 7.1-8.6 7.1m-16.5 0c-7.2 0-12.9-5.9-12.9-13.3 0-7.6 5.7-13.5 12.9-13.5 1.8 0 3.4.4 5.7 1.3v6.9C25 19.8 23 19 20.9 19c-3.8 0-6.6 3-6.6 7.1 0 4 2.8 6.9 6.5 6.9 2 0 3.9-.8 5.5-1.7v6.8c-1.8.7-3.8 1.3-5.7 1.3" style="fill: rgb(130, 46, 245) !important;"/>
</svg>