<?xml version="1.0" encoding="UTF-8" standalone="no"?>
<!DOCTYPE svg PUBLIC "-//W3C//DTD SVG 1.1//EN" "http://www.w3.org/Graphics/SVG/1.1/DTD/svg11.dtd">
<svg xmlns="http://www.w3.org/2000/svg" version="1.1" viewBox="0.00 0.00 400.00 400.00">
<g stroke-width="2.00" fill="none" stroke-linecap="butt">
<path stroke="#f8bc9e" vector-effect="non-scaling-stroke" d="
  M 325.15 199.68
  A 125.48 125.48 0.0 0 0 199.67 74.20
  A 125.48 125.48 0.0 0 0 74.19 199.68
  A 125.48 125.48 0.0 0 0 199.67 325.16
  A 125.48 125.48 0.0 0 0 325.15 199.68"
/>
<path stroke="#f8bc9e" vector-effect="non-scaling-stroke" d="
  M 199.34 275.88
  Q 177.48 275.57 160.26 265.27
  C 125.46 244.46 112.18 200.46 131.20 164.17
  Q 145.95 136.04 176.77 126.26
  C 198.95 119.22 223.70 123.37 242.50 136.44
  C 275.37 159.29 285.35 203.72 264.76 238.08
  C 259.10 247.53 245.10 247.18 239.56 237.75
  Q 235.55 230.94 239.26 223.06
  A 0.41 0.41 0.0 0 0 239.09 222.53
  L 221.65 212.46
  A 0.64 0.63 30.8 0 0 220.80 212.67
  C 212.92 225.22 196.58 228.72 184.47 220.21
  C 177.23 215.13 172.95 206.56 173.62 197.73
  C 175.50 172.76 208.55 164.94 220.97 186.55
  A 0.54 0.54 0.0 0 0 221.70 186.75
  L 239.25 176.61
  A 0.57 0.57 0.0 0 0 239.45 175.80
  Q 231.87 163.91 221.17 158.29
  Q 204.07 149.32 186.06 154.58
  C 163.61 161.12 148.85 183.76 152.98 207.02
  C 155.89 223.48 166.86 236.89 182.32 242.95
  C 193.80 247.46 206.46 246.91 217.75 242.15
  A 0.50 0.49 67.8 0 1 218.40 242.43
  C 229.93 272.00 268.89 274.46 284.27 246.76
  C 296.84 224.13 300.15 197.04 292.82 172.18
  C 279.90 128.39 238.55 98.70 192.67 101.92
  C 152.83 104.71 119.39 130.49 106.47 168.38
  C 90.07 216.49 114.14 269.80 161.66 289.58
  Q 179.63 297.06 199.77 297.08
  A 0.25 0.25 0.0 0 0 200.02 296.83
  L 200.02 276.57
  A 0.69 0.69 0.0 0 0 199.34 275.88"
/>
</g>
<path fill="#ffffff" d="
  M 400.00 0.00
  L 400.00 400.00
  L 0.00 400.00
  L 0.00 0.00
  L 400.00 0.00
  Z
  M 325.15 199.68
  A 125.48 125.48 0.0 0 0 199.67 74.20
  A 125.48 125.48 0.0 0 0 74.19 199.68
  A 125.48 125.48 0.0 0 0 199.67 325.16
  A 125.48 125.48 0.0 0 0 325.15 199.68
  Z"
/>
<path fill="#f1793d" d="
  M 325.15 199.68
  A 125.48 125.48 0.0 0 1 199.67 325.16
  A 125.48 125.48 0.0 0 1 74.19 199.68
  A 125.48 125.48 0.0 0 1 199.67 74.20
  A 125.48 125.48 0.0 0 1 325.15 199.68
  Z
  M 199.34 275.88
  Q 177.48 275.57 160.26 265.27
  C 125.46 244.46 112.18 200.46 131.20 164.17
  Q 145.95 136.04 176.77 126.26
  C 198.95 119.22 223.70 123.37 242.50 136.44
  C 275.37 159.29 285.35 203.72 264.76 238.08
  C 259.10 247.53 245.10 247.18 239.56 237.75
  Q 235.55 230.94 239.26 223.06
  A 0.41 0.41 0.0 0 0 239.09 222.53
  L 221.65 212.46
  A 0.64 0.63 30.8 0 0 220.80 212.67
  C 212.92 225.22 196.58 228.72 184.47 220.21
  C 177.23 215.13 172.95 206.56 173.62 197.73
  C 175.50 172.76 208.55 164.94 220.97 186.55
  A 0.54 0.54 0.0 0 0 221.70 186.75
  L 239.25 176.61
  A 0.57 0.57 0.0 0 0 239.45 175.80
  Q 231.87 163.91 221.17 158.29
  Q 204.07 149.32 186.06 154.58
  C 163.61 161.12 148.85 183.76 152.98 207.02
  C 155.89 223.48 166.86 236.89 182.32 242.95
  C 193.80 247.46 206.46 246.91 217.75 242.15
  A 0.50 0.49 67.8 0 1 218.40 242.43
  C 229.93 272.00 268.89 274.46 284.27 246.76
  C 296.84 224.13 300.15 197.04 292.82 172.18
  C 279.90 128.39 238.55 98.70 192.67 101.92
  C 152.83 104.71 119.39 130.49 106.47 168.38
  C 90.07 216.49 114.14 269.80 161.66 289.58
  Q 179.63 297.06 199.77 297.08
  A 0.25 0.25 0.0 0 0 200.02 296.83
  L 200.02 276.57
  A 0.69 0.69 0.0 0 0 199.34 275.88
  Z"
/>
<path fill="#ffffff" d="
  M 200.02 276.57
  L 200.02 296.83
  A 0.25 0.25 0.0 0 1 199.77 297.08
  Q 179.63 297.06 161.66 289.58
  C 114.14 269.80 90.07 216.49 106.47 168.38
  C 119.39 130.49 152.83 104.71 192.67 101.92
  C 238.55 98.70 279.90 128.39 292.82 172.18
  C 300.15 197.04 296.84 224.13 284.27 246.76
  C 268.89 274.46 229.93 272.00 218.40 242.43
  A 0.50 0.49 67.8 0 0 217.75 242.15
  C 206.46 246.91 193.80 247.46 182.32 242.95
  C 166.86 236.89 155.89 223.48 152.98 207.02
  C 148.85 183.76 163.61 161.12 186.06 154.58
  Q 204.07 149.32 221.17 158.29
  Q 231.87 163.91 239.45 175.80
  A 0.57 0.57 0.0 0 1 239.25 176.61
  L 221.70 186.75
  A 0.54 0.54 0.0 0 1 220.97 186.55
  C 208.55 164.94 175.50 172.76 173.62 197.73
  C 172.95 206.56 177.23 215.13 184.47 220.21
  C 196.58 228.72 212.92 225.22 220.80 212.67
  A 0.64 0.63 30.8 0 1 221.65 212.46
  L 239.09 222.53
  A 0.41 0.41 0.0 0 1 239.26 223.06
  Q 235.55 230.94 239.56 237.75
  C 245.10 247.18 259.10 247.53 264.76 238.08
  C 285.35 203.72 275.37 159.29 242.50 136.44
  C 223.70 123.37 198.95 119.22 176.77 126.26
  Q 145.95 136.04 131.20 164.17
  C 112.18 200.46 125.46 244.46 160.26 265.27
  Q 177.48 275.57 199.34 275.88
  A 0.69 0.69 0.0 0 1 200.02 276.57
  Z"
/>
</svg>
