<svg width="128" height="128" viewBox="0 0 128 128" fill="none" xmlns="http://www.w3.org/2000/svg">
<g clip-path="url(#clip0_240_6730)">
<path d="M82.5022 67.6267L79.9288 80.2578H52.3733V77.0356L56.5688 72.5911C65.1466 63.5423 71.8844 56.3689 71.8844 48.9156C71.8844 44.2934 70.0755 41.4178 66.92 41.4178C63.7644 41.4178 61.8044 44.6178 61.8044 49.4178V51.8489H53.52C53.322 51.0934 53.2278 50.3143 53.24 49.5334C53.24 42.0578 60.5422 38.2578 67.4088 38.2578C74.1822 38.2578 81.0222 41.5023 81.0222 49.2489C80.989 51.1723 80.5145 53.0623 79.6355 54.7734C78.6932 56.6277 77.5161 58.353 76.1333 59.9067C74.3911 61.9645 70.6 65.1378 67.2444 67.7911C64.5777 69.92 62.1644 71.7111 61.3111 72.3467H77.5688L81.9022 67.6267H82.5022Z" fill="white"/>
<path d="M0 86.5778H4.76444L7.11111 83.4133V45.4756L4.77778 42.3111H0V39.1511H22.7289C40.3289 39.1511 48.0933 49.1245 48.0933 63.8756C48.0933 78.6267 36 89.7378 22.5867 89.7378H0V86.5778ZM23.6533 85.3911C33.56 85.3911 36.8356 79.1245 36.8356 66.3689C36.8356 52.9733 31.5644 42.3111 22.3733 42.3111C21.0918 42.2988 19.8166 42.4908 18.5956 42.88C18.1642 43.0468 17.7427 43.2382 17.3333 43.4533V83.4133C18.7911 84.92 21.7333 85.3911 23.6533 85.3911Z" fill="white"/>
<path d="M128 73.9334L124.773 89.7423H87.1599V86.569H91.911L94.2888 83.409V45.4756L91.911 42.3156H87.1599V39.1467H112.884V42.3156H106.684L104.467 45.4756V85.0134H116.418L126.818 73.9334H128Z" fill="white"/>
<path d="M80.8266 85V86.9733L78.0621 89.7378H50.8354V87.7689L53.6043 85H80.8266Z" fill="#34E82A"/>
</g>
<defs>
<clipPath id="clip0_240_6730">
<rect width="128" height="51.4844" fill="white" transform="translate(0 38.2578)"/>
</clipPath>
</defs>
</svg>
