<svg xmlns="http://www.w3.org/2000/svg" width="72" height="20" fill="none">
  <path fill="#3D4457"
    d="M3.099 11.1c1.54 0 2.38.82 2.38 2.5 0 1.7-.82 2.54-2.38 2.54-1.58 0-2.38-.84-2.38-2.54 0-1.68.82-2.5 2.38-2.5Zm.02-7.76c1.56 0 2.4.8 2.4 2.48 0 1.7-.82 2.54-2.4 2.54-1.6 0-2.4-.84-2.4-2.54 0-1.68.84-2.48 2.4-2.48Zm11.566 8.78c2 0 2.86-.56 2.86-3.84 0-3.16-.84-3.64-2.82-3.64-.62 0-1.2.02-1.76.06-.04 1.22-.04 2.54-.04 3.84 0 1.52 0 2.64.02 3.54.58.04 1.1.04 1.74.04ZM8.005 1h7.08c5.12 0 7.38 1.5 7.38 7.1 0 6-2 7.9-7.48 7.9h-6.98c.04-2.1.06-4.3.06-7.48 0-3.18-.02-5.56-.06-7.52ZM30.05 13.24c1.22 0 1.98-.78 1.98-2.32-.52-.06-1.08-.08-1.66-.08-1.24 0-1.78.36-1.78 1.2 0 .86.38 1.2 1.46 1.2Zm2-3.96v-1c0-1-.44-1.52-1.58-1.52-1.2 0-1.76.5-1.68 1.8-.48-.04-1.18-.04-1.9-.04-.86 0-1.74 0-2.28.08-.16-3.38 1.52-5.28 5.96-5.28 4.32 0 6.04 1.7 6.04 4.68 0 1.68-.06 2.86-.06 4.38 0 1.38.1 3.08.28 3.62h-3.76c-.82 0-.96-.08-.96-1.02 0-.3.02-.68.04-1.06h-.12c-.5 1.54-1.84 2.26-3.9 2.26-2.54 0-3.9-.84-3.9-3.38 0-2.6 1.72-3.64 5.44-3.64.9 0 1.74.02 2.38.12Zm12.48-4.06v.56c1.14-.02 2.28-.04 3.4-.08-.02 1.24-.02 2.7.02 3.98l-3.42-.06c0 2.56.02 4.42.12 6.38-.94-.04-1.68-.04-2.46-.04-.74 0-1.52 0-2.44.04.1-2.28.14-4.44.14-6.34l-1.24.02c.04-1.2.04-2.62 0-3.86h1.2c-.02-.52-.02-1.04-.02-1.52 0-2.3 1.2-4 5-4 1.42 0 2.36.12 3.4.32-.12.92-.26 2.52-.34 3.62-.46-.16-1.06-.28-1.8-.28-1.16 0-1.56.34-1.56 1.26Zm10.351 0v.56c1.14-.02 2.28-.04 3.4-.08-.02 1.24-.02 2.7.02 3.98l-3.42-.06c0 2.56.02 4.42.12 6.38-.94-.04-1.68-.04-2.46-.04-.74 0-1.52 0-2.44.04.1-2.28.14-4.44.14-6.34l-1.24.02c.04-1.2.04-2.62 0-3.86h1.2c-.02-.52-.02-1.04-.02-1.52 0-2.3 1.2-4 5-4 1.42 0 2.36.12 3.4.32-.12.92-.26 2.52-.34 3.62-.46-.16-1.06-.28-1.8-.28-1.16 0-1.56.34-1.56 1.26Zm12.972-1.68h4.7c-.78 2.38-2.4 8.44-3.04 10.44-1.08 3.5-2.5 5.04-6.2 5.04-1.84 0-3.02-.26-4.16-.58.1-.64.52-3.02.58-3.7.96.36 2.24.52 3.4.52 1.18 0 1.72-.32 2.06-1.28-1.38-.02-2.56-.02-3.06.02-.5-1.54-2.28-7.74-3.18-10.46h5.1c.16.9.72 3.14 1.18 5.12.3 1.22.48 2.32.64 3.22h.1c.2-.9.44-2 .72-3.24.46-1.98 1.02-4.28 1.16-5.1Z" />
</svg>