<?xml version="1.0" encoding="UTF-8" standalone="no"?>
<!DOCTYPE svg PUBLIC "-//W3C//DTD SVG 1.1//EN" "http://www.w3.org/Graphics/SVG/1.1/DTD/svg11.dtd">
<svg xmlns="http://www.w3.org/2000/svg" version="1.1" viewBox="0.00 0.00 32.00 32.00">
<g stroke-width="2.00" fill="none" stroke-linecap="butt">
<path stroke="#1c519a" vector-effect="non-scaling-stroke" d="
  M 4.78 13.80
  Q 3.25 17.43 4.48 21.16
  A 1.04 1.03 79.1 0 0 5.53 21.88
  Q 16.46 21.19 26.29 18.95
  A 0.87 0.87 0.0 0 0 26.97 18.10
  Q 27.01 14.34 24.88 11.44"
/>
<path stroke="#1b6798" vector-effect="non-scaling-stroke" d="
  M 24.88 11.44
  Q 21.49 6.65 16.12 6.72
  A 1.19 1.19 0.0 0 1 14.94 5.30
  Q 15.47 2.59 14.03 2.12
  A 1.68 1.64 -1.2 0 0 11.93 4.26
  Q 12.09 4.66 12.50 5.63
  A 1.30 1.30 0.0 0 1 11.76 7.36
  Q 6.81 9.23 4.78 13.80"
/>
<path stroke="#259fc7" vector-effect="non-scaling-stroke" d="
  M 24.88 11.44
  Q 24.45 11.95 24.01 11.68"
/>
<path stroke="#16729e" vector-effect="non-scaling-stroke" d="
  M 24.01 11.68
  Q 18.10 8.86 17.46 15.19"
/>
<path stroke="#259fc7" vector-effect="non-scaling-stroke" d="
  M 17.46 15.19
  L 12.81 16.68"
/>
<path stroke="#16729e" vector-effect="non-scaling-stroke" d="
  M 12.81 16.68
  C 13.13 12.39 7.18 10.86 5.73 14.78"
/>
<path stroke="#259fc7" vector-effect="non-scaling-stroke" d="
  M 5.73 14.78
  L 4.78 13.80"
/>
<path stroke="#175ca0" vector-effect="non-scaling-stroke" d="
  M 24.01 11.68
  C 25.66 14.29 24.81 18.54 21.30 18.45
  C 19.43 18.40 18.25 16.72 17.46 15.19"
/>
<path stroke="#175ca0" vector-effect="non-scaling-stroke" d="
  M 5.73 14.78
  C 3.58 19.62 11.38 22.42 12.81 16.68"
/>
<path stroke="#1c609d" vector-effect="non-scaling-stroke" d="
  M 16.05 22.02
  Q 9.24 22.97 5.07 22.94
  A 0.63 0.63 0.0 0 0 4.45 23.72
  C 5.93 29.70 11.85 30.53 17.14 29.78
  C 22.43 29.04 27.89 26.62 27.67 20.46
  A 0.63 0.63 0.0 0 0 26.86 19.88
  Q 22.86 21.06 16.05 22.02"
/>
<path stroke="#8296ba" vector-effect="non-scaling-stroke" d="
  M 23.54 14.68
  A 2.22 2.22 0.0 0 0 21.32 12.46
  A 2.22 2.22 0.0 0 0 19.10 14.68
  A 2.22 2.22 0.0 0 0 21.32 16.90
  A 2.22 2.22 0.0 0 0 23.54 14.68"
/>
<path stroke="#8296ba" vector-effect="non-scaling-stroke" d="
  M 11.26 16.46
  A 2.19 2.19 0.0 0 0 9.07 14.27
  A 2.19 2.19 0.0 0 0 6.88 16.46
  A 2.19 2.19 0.0 0 0 9.07 18.65
  A 2.19 2.19 0.0 0 0 11.26 16.46"
/>
</g>
<path fill="#11196b" d="
  M 13.08 1.07
  Q 13.80 0.97 14.40 1.19
  A 2.72 2.65 20.5 0 1 16.00 4.60
  Q 15.89 4.93 15.92 5.07
  A 0.86 0.85 86.6 0 0 16.65 5.72
  Q 26.35 6.88 27.99 17.14
  Q 28.37 19.51 28.57 20.03
  A 1.76 1.66 -58.7 0 1 28.70 20.64
  C 28.87 27.26 22.96 30.00 17.35 30.81
  C 11.73 31.61 5.29 30.65 3.59 24.24
  A 1.76 1.66 42.3 0 1 3.54 23.62
  Q 3.59 23.07 3.29 20.68
  Q 1.98 10.38 10.96 6.54
  A 0.86 0.85 77.1 0 0 11.48 5.71
  Q 11.47 5.56 11.27 5.28
  A 2.72 2.65 -36.8 0 1 11.85 1.56
  Q 12.35 1.17 13.08 1.07
  Z
  M 4.78 13.80
  Q 3.25 17.43 4.48 21.16
  A 1.04 1.03 79.1 0 0 5.53 21.88
  Q 16.46 21.19 26.29 18.95
  A 0.87 0.87 0.0 0 0 26.97 18.10
  Q 27.01 14.34 24.88 11.44
  Q 21.49 6.65 16.12 6.72
  A 1.19 1.19 0.0 0 1 14.94 5.30
  Q 15.47 2.59 14.03 2.12
  A 1.68 1.64 -1.2 0 0 11.93 4.26
  Q 12.09 4.66 12.50 5.63
  A 1.30 1.30 0.0 0 1 11.76 7.36
  Q 6.81 9.23 4.78 13.80
  Z
  M 16.05 22.02
  Q 9.24 22.97 5.07 22.94
  A 0.63 0.63 0.0 0 0 4.45 23.72
  C 5.93 29.70 11.85 30.53 17.14 29.78
  C 22.43 29.04 27.89 26.62 27.67 20.46
  A 0.63 0.63 0.0 0 0 26.86 19.88
  Q 22.86 21.06 16.05 22.02
  Z"
/>
<path fill="#24b4c5" d="
  M 24.88 11.44
  Q 24.45 11.95 24.01 11.68
  Q 18.10 8.86 17.46 15.19
  L 12.81 16.68
  C 13.13 12.39 7.18 10.86 5.73 14.78
  L 4.78 13.80
  Q 6.81 9.23 11.76 7.36
  A 1.30 1.30 0.0 0 0 12.50 5.63
  Q 12.09 4.66 11.93 4.26
  A 1.68 1.64 -1.2 0 1 14.03 2.12
  Q 15.47 2.59 14.94 5.30
  A 1.19 1.19 0.0 0 0 16.12 6.72
  Q 21.49 6.65 24.88 11.44
  Z"
/>
<path fill="#072f77" d="
  M 24.01 11.68
  C 25.66 14.29 24.81 18.54 21.30 18.45
  C 19.43 18.40 18.25 16.72 17.46 15.19
  Q 18.10 8.86 24.01 11.68
  Z
  M 23.54 14.68
  A 2.22 2.22 0.0 0 0 21.32 12.46
  A 2.22 2.22 0.0 0 0 19.10 14.68
  A 2.22 2.22 0.0 0 0 21.32 16.90
  A 2.22 2.22 0.0 0 0 23.54 14.68
  Z"
/>
<path fill="#2689c9" d="
  M 4.78 13.80
  L 5.73 14.78
  C 3.58 19.62 11.38 22.42 12.81 16.68
  L 17.46 15.19
  C 18.25 16.72 19.43 18.40 21.30 18.45
  C 24.81 18.54 25.66 14.29 24.01 11.68
  Q 24.45 11.95 24.88 11.44
  Q 27.01 14.34 26.97 18.10
  A 0.87 0.87 0.0 0 1 26.29 18.95
  Q 16.46 21.19 5.53 21.88
  A 1.04 1.03 79.1 0 1 4.48 21.16
  Q 3.25 17.43 4.78 13.80
  Z"
/>
<path fill="#072f77" d="
  M 12.81 16.68
  C 11.38 22.42 3.58 19.62 5.73 14.78
  C 7.18 10.86 13.13 12.39 12.81 16.68
  Z
  M 11.26 16.46
  A 2.19 2.19 0.0 0 0 9.07 14.27
  A 2.19 2.19 0.0 0 0 6.88 16.46
  A 2.19 2.19 0.0 0 0 9.07 18.65
  A 2.19 2.19 0.0 0 0 11.26 16.46
  Z"
/>
<circle fill="#fcfdfc" cx="21.32" cy="14.68" r="2.22"/>
<circle fill="#fcfdfc" cx="9.07" cy="16.46" r="2.19"/>
<path fill="#26a6cf" d="
  M 17.14 29.78
  C 11.85 30.53 5.93 29.70 4.45 23.72
  A 0.63 0.63 0.0 0 1 5.07 22.94
  Q 9.24 22.97 16.05 22.02
  Q 22.86 21.06 26.86 19.88
  A 0.63 0.63 0.0 0 1 27.67 20.46
  C 27.89 26.62 22.43 29.04 17.14 29.78
  Z"
/>
</svg>
