<?xml version="1.0" encoding="UTF-8" standalone="no"?>
<!DOCTYPE svg PUBLIC "-//W3C//DTD SVG 1.1//EN" "http://www.w3.org/Graphics/SVG/1.1/DTD/svg11.dtd">
<svg xmlns="http://www.w3.org/2000/svg" version="1.1" viewBox="0.00 0.00 16.00 16.00">
<path fill="#0c0d0b" d="
  M 2.14 2.58
  Q -0.05 6.22 1.45 10.23
  C 4.04 17.14 12.50 14.09 12.19 7.24
  A 0.62 0.62 0.0 0 0 11.31 6.71
  Q 11.22 6.76 11.08 6.83
  A 0.49 0.49 0.0 0 1 10.38 6.32
  L 11.24 0.85
  A 0.32 0.32 0.0 0 1 11.78 0.68
  L 15.49 4.38
  A 0.43 0.42 -31.0 0 1 15.31 5.08
  L 14.83 5.23
  A 0.82 0.82 0.0 0 0 14.32 6.03
  Q 14.55 10.69 12.00 13.47
  C 8.91 16.82 4.21 16.37 1.64 12.63
  C -0.20 9.95 -0.35 5.08 2.01 2.49
  A 0.08 0.08 0.0 0 1 2.14 2.58
  Z"
/>
<path fill="#0c0d0b" d="
  M 4.84 4.46
  Q 7.44 6.39 8.25 8.39
  A 0.71 0.71 0.0 0 1 7.33 9.31
  Q 5.93 8.74 6.07 7.66
  A 1.19 1.18 31.2 0 0 5.86 6.82
  Q 4.46 4.82 4.44 4.71
  A 0.25 0.25 0.0 0 1 4.84 4.46
  Z"
/>
<path fill="#0c0d0b" d="
  M 2.74 9.38
  L 3.71 11.08
  A 1.38 1.34 79.9 0 0 4.60 11.72
  Q 9.03 12.63 9.86 9.33
  A 0.43 0.43 0.0 0 1 10.28 9.00
  Q 10.52 9.00 10.85 9.38
  A 0.25 0.24 39.7 0 1 10.88 9.63
  Q 9.62 12.05 8.36 12.34
  Q 3.42 13.44 2.29 9.58
  A 0.25 0.25 0.0 0 1 2.74 9.38
  Z"
/>
</svg>
