<?xml version="1.0" encoding="UTF-8" standalone="no"?>
<!DOCTYPE svg PUBLIC "-//W3C//DTD SVG 1.1//EN" "http://www.w3.org/Graphics/SVG/1.1/DTD/svg11.dtd">
<svg xmlns="http://www.w3.org/2000/svg" version="1.1" viewBox="0.00 0.00 730.00 730.00">
<g stroke-width="2.00" fill="none" stroke-linecap="butt">
<path stroke="#9fc7fd" vector-effect="non-scaling-stroke" d="
  M 385.38 76.67
  C 363.37 44.39 323.04 26.76 284.35 36.11
  Q 264.79 40.84 240.93 50.17
  C 157.84 82.67 90.51 147.87 54.56 229.32
  C 24.01 298.53 17.76 376.52 36.36 449.91
  C 65.91 566.53 155.33 657.82 270.37 691.97
  Q 286.98 696.90 294.30 696.14
  C 331.39 692.29 341.37 643.88 309.01 625.69
  Q 305.80 623.89 294.15 620.69
  C 230.37 603.17 175.00 561.30 140.20 505.10
  C 105.50 449.07 92.95 381.28 105.29 316.79
  C 124.59 216.03 200.37 134.92 299.92 109.73
  Q 310.20 107.13 315.25 107.45
  C 328.34 108.29 338.91 117.46 342.09 130.11
  C 345.29 142.86 339.40 155.81 327.76 162.86
  Q 325.00 164.54 314.44 167.22
  C 212.29 193.19 146.13 293.11 162.27 397.00
  C 172.40 462.23 212.43 517.76 270.67 548.13
  Q 283.10 554.61 287.44 555.80
  C 302.93 560.04 317.97 552.91 324.18 538.19
  C 329.38 525.85 325.25 511.09 314.78 503.04
  C 311.52 500.54 307.70 498.89 303.85 497.14
  C 277.13 485.00 254.67 463.96 240.28 439.26
  Q 221.19 406.50 220.41 369.96
  Q 219.24 314.78 254.89 272.14
  Q 277.85 244.69 314.23 230.32
  Q 318.60 228.60 327.27 226.52
  C 350.56 220.96 370.08 207.67 383.97 188.25
  C 407.46 155.41 408.14 110.06 385.38 76.67"
/>
<path stroke="#9fc7fd" vector-effect="non-scaling-stroke" d="
  M 429.07 622.58
  C 416.50 625.70 403.17 618.72 397.20 607.55
  C 389.21 592.58 395.50 573.26 411.21 566.43
  Q 412.69 565.79 420.79 563.50
  C 478.95 547.08 526.95 505.70 551.90 450.73
  C 579.54 389.82 575.67 318.27 541.09 260.63
  Q 515.66 218.25 472.91 191.45
  C 464.10 185.92 458.13 182.51 449.10 183.36
  Q 430.17 185.14 422.71 202.74
  C 418.07 213.69 421.08 226.36 429.05 234.95
  Q 431.13 237.18 439.07 241.77
  Q 473.72 261.80 492.96 298.34
  C 517.04 344.05 515.28 398.71 488.05 442.37
  Q 465.48 478.56 426.10 497.45
  C 418.67 501.01 410.68 503.18 403.39 506.90
  Q 380.19 518.74 365.78 540.52
  C 341.39 577.35 345.37 627.58 375.63 659.89
  C 399.17 685.03 431.99 695.71 465.98 689.35
  C 476.74 687.33 487.59 682.72 497.68 678.43
  C 574.68 645.68 637.33 585.08 672.69 509.05
  Q 708.39 432.30 703.72 347.00
  C 698.94 259.89 660.83 178.51 597.59 118.94
  Q 550.52 74.60 488.82 49.93
  Q 475.64 44.66 469.05 44.43
  C 438.51 43.35 419.45 76.59 435.82 102.09
  Q 442.69 112.78 453.19 116.56
  Q 501.13 133.82 538.95 166.82
  C 614.85 233.07 646.54 337.05 620.50 434.32
  C 595.70 526.93 522.19 599.50 429.07 622.58"
/>
<path stroke="#9fc7fd" vector-effect="non-scaling-stroke" d="
  M 451.06 366.01
  A 86.00 86.00 0.0 0 0 365.06 280.01
  A 86.00 86.00 0.0 0 0 279.06 366.01
  A 86.00 86.00 0.0 0 0 365.06 452.01
  A 86.00 86.00 0.0 0 0 451.06 366.01"
/>
<path stroke="#9fc7fd" vector-effect="non-scaling-stroke" d="
  M 404.07 366.00
  A 38.98 38.98 0.0 0 0 365.09 327.02
  A 38.98 38.98 0.0 0 0 326.11 366.00
  A 38.98 38.98 0.0 0 0 365.09 404.98
  A 38.98 38.98 0.0 0 0 404.07 366.00"
/>
</g>
<path fill="#ffffff" d="
  M 730.00 0.00
  L 730.00 730.00
  L 0.00 730.00
  L 0.00 0.00
  L 730.00 0.00
  Z
  M 385.38 76.67
  C 363.37 44.39 323.04 26.76 284.35 36.11
  Q 264.79 40.84 240.93 50.17
  C 157.84 82.67 90.51 147.87 54.56 229.32
  C 24.01 298.53 17.76 376.52 36.36 449.91
  C 65.91 566.53 155.33 657.82 270.37 691.97
  Q 286.98 696.90 294.30 696.14
  C 331.39 692.29 341.37 643.88 309.01 625.69
  Q 305.80 623.89 294.15 620.69
  C 230.37 603.17 175.00 561.30 140.20 505.10
  C 105.50 449.07 92.95 381.28 105.29 316.79
  C 124.59 216.03 200.37 134.92 299.92 109.73
  Q 310.20 107.13 315.25 107.45
  C 328.34 108.29 338.91 117.46 342.09 130.11
  C 345.29 142.86 339.40 155.81 327.76 162.86
  Q 325.00 164.54 314.44 167.22
  C 212.29 193.19 146.13 293.11 162.27 397.00
  C 172.40 462.23 212.43 517.76 270.67 548.13
  Q 283.10 554.61 287.44 555.80
  C 302.93 560.04 317.97 552.91 324.18 538.19
  C 329.38 525.85 325.25 511.09 314.78 503.04
  C 311.52 500.54 307.70 498.89 303.85 497.14
  C 277.13 485.00 254.67 463.96 240.28 439.26
  Q 221.19 406.50 220.41 369.96
  Q 219.24 314.78 254.89 272.14
  Q 277.85 244.69 314.23 230.32
  Q 318.60 228.60 327.27 226.52
  C 350.56 220.96 370.08 207.67 383.97 188.25
  C 407.46 155.41 408.14 110.06 385.38 76.67
  Z
  M 429.07 622.58
  C 416.50 625.70 403.17 618.72 397.20 607.55
  C 389.21 592.58 395.50 573.26 411.21 566.43
  Q 412.69 565.79 420.79 563.50
  C 478.95 547.08 526.95 505.70 551.90 450.73
  C 579.54 389.82 575.67 318.27 541.09 260.63
  Q 515.66 218.25 472.91 191.45
  C 464.10 185.92 458.13 182.51 449.10 183.36
  Q 430.17 185.14 422.71 202.74
  C 418.07 213.69 421.08 226.36 429.05 234.95
  Q 431.13 237.18 439.07 241.77
  Q 473.72 261.80 492.96 298.34
  C 517.04 344.05 515.28 398.71 488.05 442.37
  Q 465.48 478.56 426.10 497.45
  C 418.67 501.01 410.68 503.18 403.39 506.90
  Q 380.19 518.74 365.78 540.52
  C 341.39 577.35 345.37 627.58 375.63 659.89
  C 399.17 685.03 431.99 695.71 465.98 689.35
  C 476.74 687.33 487.59 682.72 497.68 678.43
  C 574.68 645.68 637.33 585.08 672.69 509.05
  Q 708.39 432.30 703.72 347.00
  C 698.94 259.89 660.83 178.51 597.59 118.94
  Q 550.52 74.60 488.82 49.93
  Q 475.64 44.66 469.05 44.43
  C 438.51 43.35 419.45 76.59 435.82 102.09
  Q 442.69 112.78 453.19 116.56
  Q 501.13 133.82 538.95 166.82
  C 614.85 233.07 646.54 337.05 620.50 434.32
  C 595.70 526.93 522.19 599.50 429.07 622.58
  Z
  M 451.06 366.01
  A 86.00 86.00 0.0 0 0 365.06 280.01
  A 86.00 86.00 0.0 0 0 279.06 366.01
  A 86.00 86.00 0.0 0 0 365.06 452.01
  A 86.00 86.00 0.0 0 0 451.06 366.01
  Z"
/>
<path fill="#3e8ffb" d="
  M 284.35 36.11
  C 323.04 26.76 363.37 44.39 385.38 76.67
  C 408.14 110.06 407.46 155.41 383.97 188.25
  C 370.08 207.67 350.56 220.96 327.27 226.52
  Q 318.60 228.60 314.23 230.32
  Q 277.85 244.69 254.89 272.14
  Q 219.24 314.78 220.41 369.96
  Q 221.19 406.50 240.28 439.26
  C 254.67 463.96 277.13 485.00 303.85 497.14
  C 307.70 498.89 311.52 500.54 314.78 503.04
  C 325.25 511.09 329.38 525.85 324.18 538.19
  C 317.97 552.91 302.93 560.04 287.44 555.80
  Q 283.10 554.61 270.67 548.13
  C 212.43 517.76 172.40 462.23 162.27 397.00
  C 146.13 293.11 212.29 193.19 314.44 167.22
  Q 325.00 164.54 327.76 162.86
  C 339.40 155.81 345.29 142.86 342.09 130.11
  C 338.91 117.46 328.34 108.29 315.25 107.45
  Q 310.20 107.13 299.92 109.73
  C 200.37 134.92 124.59 216.03 105.29 316.79
  C 92.95 381.28 105.50 449.07 140.20 505.10
  C 175.00 561.30 230.37 603.17 294.15 620.69
  Q 305.80 623.89 309.01 625.69
  C 341.37 643.88 331.39 692.29 294.30 696.14
  Q 286.98 696.90 270.37 691.97
  C 155.33 657.82 65.91 566.53 36.36 449.91
  C 17.76 376.52 24.01 298.53 54.56 229.32
  C 90.51 147.87 157.84 82.67 240.93 50.17
  Q 264.79 40.84 284.35 36.11
  Z"
/>
<path fill="#3e8ffb" d="
  M 397.20 607.55
  C 403.17 618.72 416.50 625.70 429.07 622.58
  C 522.19 599.50 595.70 526.93 620.50 434.32
  C 646.54 337.05 614.85 233.07 538.95 166.82
  Q 501.13 133.82 453.19 116.56
  Q 442.69 112.78 435.82 102.09
  C 419.45 76.59 438.51 43.35 469.05 44.43
  Q 475.64 44.66 488.82 49.93
  Q 550.52 74.60 597.59 118.94
  C 660.83 178.51 698.94 259.89 703.72 347.00
  Q 708.39 432.30 672.69 509.05
  C 637.33 585.08 574.68 645.68 497.68 678.43
  C 487.59 682.72 476.74 687.33 465.98 689.35
  C 431.99 695.71 399.17 685.03 375.63 659.89
  C 345.37 627.58 341.39 577.35 365.78 540.52
  Q 380.19 518.74 403.39 506.90
  C 410.68 503.18 418.67 501.01 426.10 497.45
  Q 465.48 478.56 488.05 442.37
  C 515.28 398.71 517.04 344.05 492.96 298.34
  Q 473.72 261.80 439.07 241.77
  Q 431.13 237.18 429.05 234.95
  C 421.08 226.36 418.07 213.69 422.71 202.74
  Q 430.17 185.14 449.10 183.36
  C 458.13 182.51 464.10 185.92 472.91 191.45
  Q 515.66 218.25 541.09 260.63
  C 575.67 318.27 579.54 389.82 551.90 450.73
  C 526.95 505.70 478.95 547.08 420.79 563.50
  Q 412.69 565.79 411.21 566.43
  C 395.50 573.26 389.21 592.58 397.20 607.55
  Z"
/>
<path fill="#3e8ffb" d="
  M 451.06 366.01
  A 86.00 86.00 0.0 0 1 365.06 452.01
  A 86.00 86.00 0.0 0 1 279.06 366.01
  A 86.00 86.00 0.0 0 1 365.06 280.01
  A 86.00 86.00 0.0 0 1 451.06 366.01
  Z
  M 404.07 366.00
  A 38.98 38.98 0.0 0 0 365.09 327.02
  A 38.98 38.98 0.0 0 0 326.11 366.00
  A 38.98 38.98 0.0 0 0 365.09 404.98
  A 38.98 38.98 0.0 0 0 404.07 366.00
  Z"
/>
<circle fill="#ffffff" cx="365.09" cy="366.00" r="38.98"/>
</svg>
