<svg width="128" height="128" viewBox="0 0 128 128" fill="none" xmlns="http://www.w3.org/2000/svg">
<path d="M4.00785 67.8039C4.09749 66.8046 4.55416 65.876 5.2946 65.199C6.03505 64.522 7.00606 64.1457 8.00935 64.1457C9.01264 64.1457 9.9758 64.522 10.7163 65.199C11.4567 65.876 11.9212 66.8046 12.0109 67.8039C12.1191 81.211 17.3753 94.0627 26.6987 103.698C36.0222 113.333 48.6961 119.014 62.0924 119.563C75.4887 120.111 88.5827 115.486 98.663 106.646C108.743 97.8059 115.042 85.4275 116.246 72.0742C116.363 70.6601 116.403 69.2219 116.403 67.8078C116.493 66.8086 116.949 65.8799 117.69 65.2029C118.43 64.526 119.401 64.1496 120.405 64.1496C121.408 64.1496 122.371 64.526 123.111 65.2029C123.852 65.8799 124.316 66.8086 124.406 67.8078C124.406 69.471 124.35 71.1109 124.218 72.7058C122.949 88.1953 115.741 102.593 104.1 112.89C92.4593 123.186 77.2914 128.583 61.7629 127.95C46.2344 127.318 31.5478 120.705 20.7828 109.496C10.0177 98.2867 4.00438 83.3493 4 67.8078L4.00785 67.8039ZM30.8964 67.8235V32.3082C31.1653 23.6486 34.7972 15.4339 41.0178 9.40354C47.2384 3.37313 55.5627 0 64.2266 0C72.8904 0 81.2147 3.37313 87.4353 9.40354C93.6559 15.4339 97.28 23.6486 97.5489 32.3082V67.8235C97.6875 72.2871 96.9331 76.7346 95.3206 80.899C93.7082 85.0635 91.2733 88.8615 88.165 92.0679C85.0566 95.2743 81.3321 97.822 77.2197 99.5629C73.1073 101.304 68.6923 102.201 64.2266 102.201C59.7608 102.201 55.338 101.304 51.2256 99.5629C47.1132 97.822 43.3965 95.2743 40.2882 92.0679C37.1798 88.8615 34.745 85.0635 33.1325 80.899C31.5201 76.7346 30.7578 72.2871 30.8964 67.8235ZM38.9308 32.3082V67.8235C38.9308 74.5384 41.5972 80.9782 46.3453 85.7263C51.0935 90.4745 57.5353 93.1429 64.2501 93.1429C70.965 93.1429 77.4068 90.4745 82.1549 85.7263C86.903 80.9782 89.5694 74.5384 89.5694 67.8235V32.3082C89.5694 25.5934 86.903 19.1535 82.1549 14.4054C77.4068 9.6573 70.965 6.9889 64.2501 6.9889C57.5353 6.9889 51.0935 9.6573 46.3453 14.4054C41.5972 19.1535 38.9308 25.5934 38.9308 32.3082ZM60.2486 69.1495V31.6099C60.3382 30.6106 60.8028 29.6801 61.5432 29.0031C62.2837 28.3261 63.2468 27.9517 64.2501 27.9517C65.2534 27.9517 66.2244 28.3261 66.9648 29.0031C67.7053 29.6801 68.162 30.6106 68.2516 31.6099V69.1495C68.162 70.1488 67.7053 71.0794 66.9648 71.7564C66.2244 72.4334 65.2534 72.8078 64.2501 72.8078C63.2468 72.8078 62.2837 72.4334 61.5432 71.7564C60.8028 71.0794 60.3382 70.1488 60.2486 69.1495Z" fill="#02BF6F"/>
</svg>
