<svg width="168" height="32" viewBox="0 0 168 32" fill="none" xmlns="http://www.w3.org/2000/svg">
<path d="M55.8829 16.6999C55.8829 19.9842 54.9725 22.4973 53.1517 24.2392C51.3309 25.9721 48.7084 26.8385 45.2843 26.8385H39.7268V6.94232H45.8686C49.03 6.94232 51.4895 7.79514 53.2468 9.50079C55.0042 11.2064 55.8829 13.6061 55.8829 16.6999ZM52.4587 16.8088C52.4587 12.0456 50.2348 9.66409 45.787 9.66409H42.9743V24.1031H45.2843C50.0672 24.1031 52.4587 21.6717 52.4587 16.8088Z" fill="#333C43"/>
<path d="M66.3864 27.1107C64.0493 27.1107 62.2194 26.4302 60.8969 25.0693C59.5834 23.6994 58.9266 21.8168 58.9266 19.4217C58.9266 16.963 59.5381 15.0305 60.761 13.6243C61.9839 12.218 63.6643 11.5149 65.8021 11.5149C67.786 11.5149 69.3531 12.1182 70.5036 13.3249C71.654 14.5315 72.2293 16.1918 72.2293 18.3057V20.0341H62.2149C62.2602 21.4947 62.6543 22.6197 63.3971 23.4091C64.1399 24.1893 65.1862 24.5794 66.5359 24.5794C67.4236 24.5794 68.248 24.4978 69.0089 24.3345C69.7789 24.1621 70.6032 23.8808 71.4819 23.4907V26.09C70.7029 26.462 69.9148 26.7251 69.1176 26.8793C68.3205 27.0336 67.4101 27.1107 66.3864 27.1107ZM65.8021 13.9373C64.7876 13.9373 63.9723 14.2594 63.3563 14.9035C62.7494 15.5477 62.387 16.4867 62.2693 17.7205H69.0904C69.0723 16.4776 68.7734 15.5386 68.1936 14.9035C67.6139 14.2594 66.8167 13.9373 65.8021 13.9373Z" fill="#333C43"/>
<path d="M85.9531 22.5517C85.9531 24.0215 85.4187 25.151 84.3498 25.9403C83.2808 26.7205 81.7499 27.1107 79.757 27.1107C77.7551 27.1107 76.1471 26.8067 74.9333 26.1989V23.4363C76.6997 24.2528 78.3439 24.6611 79.8657 24.6611C81.8315 24.6611 82.8143 24.0668 82.8143 22.8783C82.8143 22.4973 82.7056 22.1797 82.4882 21.9257C82.2708 21.6717 81.913 21.4086 81.4148 21.1364C80.9165 20.8642 80.2235 20.5557 79.3358 20.211C77.6056 19.5396 76.4325 18.8682 75.8165 18.1969C75.2096 17.5255 74.9061 16.6545 74.9061 15.584C74.9061 14.2956 75.4224 13.2977 76.4551 12.59C77.4969 11.8733 78.91 11.5149 80.6946 11.5149C82.461 11.5149 84.1324 11.8733 85.7086 12.59L84.6759 14.9988C83.0544 14.3274 81.691 13.9917 80.5859 13.9917C78.901 13.9917 78.0585 14.4726 78.0585 15.4343C78.0585 15.906 78.2759 16.3052 78.7107 16.6318C79.1546 16.9584 80.1148 17.4075 81.5914 17.9791C82.8324 18.46 83.7338 18.9 84.2954 19.2992C84.857 19.6984 85.2737 20.1611 85.5455 20.6873C85.8173 21.2044 85.9531 21.8259 85.9531 22.5517Z" fill="#333C43"/>
<path d="M92.5026 18.8909L94.3098 16.6318L98.8482 11.7871H102.531L96.4838 18.2513L102.911 26.8385H99.1607L94.3369 20.2382L92.5841 21.6807V26.8385H89.4181V5.66309H92.5841V15.9922L92.421 18.8909H92.5026Z" fill="#333C43"/>
<path d="M112.545 26.8385H109.297V9.73214H103.454V6.94232H118.388V9.73214H112.545V26.8385Z" fill="#333C43"/>
<path d="M124.298 26.8385H121.105V11.7871H124.298V26.8385ZM120.915 7.79968C120.915 7.22811 121.069 6.78809 121.377 6.47962C121.694 6.17115 122.143 6.01692 122.722 6.01692C123.284 6.01692 123.719 6.17115 124.027 6.47962C124.344 6.78809 124.502 7.22811 124.502 7.79968C124.502 8.34403 124.344 8.77498 124.027 9.09252C123.719 9.40099 123.284 9.55522 122.722 9.55522C122.143 9.55522 121.694 9.40099 121.377 9.09252C121.069 8.77498 120.915 8.34403 120.915 7.79968Z" fill="#333C43"/>
<path d="M141.542 26.8385H138.335V17.5572C138.335 16.405 138.117 15.5477 137.683 14.9852C137.248 14.4136 136.568 14.1278 135.644 14.1278C134.412 14.1278 133.507 14.5315 132.927 15.339C132.356 16.1374 132.071 17.4711 132.071 19.34V26.8385H128.878V11.7871H131.378L131.826 13.7604H131.989C132.406 13.0436 133.008 12.4902 133.796 12.1001C134.594 11.71 135.468 11.5149 136.419 11.5149C138.729 11.5149 140.26 12.3042 141.012 13.8828H141.229C141.673 13.1389 142.298 12.5582 143.104 12.1409C143.91 11.7236 144.834 11.5149 145.876 11.5149C147.67 11.5149 148.974 11.9685 149.79 12.8758C150.614 13.783 151.026 15.1666 151.026 17.0265V26.8385H147.833V17.5572C147.833 16.405 147.611 15.5477 147.167 14.9852C146.732 14.4136 146.053 14.1278 145.129 14.1278C143.888 14.1278 142.977 14.5179 142.398 15.2982C141.827 16.0693 141.542 17.2578 141.542 18.8637V26.8385Z" fill="#333C43"/>
<path d="M162.046 27.1107C159.709 27.1107 157.879 26.4302 156.556 25.0693C155.243 23.6994 154.586 21.8168 154.586 19.4217C154.586 16.963 155.198 15.0305 156.421 13.6243C157.643 12.218 159.324 11.5149 161.462 11.5149C163.445 11.5149 165.013 12.1182 166.163 13.3249C167.314 14.5315 167.889 16.1918 167.889 18.3057V20.0341H157.874C157.92 21.4947 158.314 22.6197 159.057 23.4091C159.799 24.1893 160.846 24.5794 162.195 24.5794C163.083 24.5794 163.907 24.4978 164.668 24.3345C165.438 24.1621 166.263 23.8808 167.141 23.4907V26.09C166.362 26.462 165.574 26.7251 164.777 26.8793C163.98 27.0336 163.07 27.1107 162.046 27.1107ZM161.462 13.9373C160.447 13.9373 159.632 14.2594 159.016 14.9035C158.409 15.5477 158.047 16.4867 157.929 17.7205H164.75C164.732 16.4776 164.433 15.5386 163.853 14.9035C163.273 14.2594 162.476 13.9373 161.462 13.9373Z" fill="#333C43"/>
<g clip-path="url(#clip0_1411_34127)">
<g clip-path="url(#clip1_1411_34127)">
<path d="M16.0271 2.67188V2.8964C23.2126 2.8964 29.0373 8.73 29.0373 15.9266C29.0373 23.1232 23.2126 28.9568 16.0271 28.9568C8.84156 28.9568 3.0169 23.1232 3.0169 15.9266H2.79272C2.79272 23.2473 8.7176 29.1813 16.0271 29.1813C23.3366 29.1813 29.2615 23.2473 29.2615 15.9266C29.2602 8.60585 23.3353 2.67188 16.0271 2.67188Z" fill="#55A226" stroke="#55A126" stroke-width="0.2"/>
<path d="M28.8118 15.9267C28.8118 22.9991 23.0874 28.7323 16.0258 28.7323C8.96418 28.7323 3.23974 22.9991 3.23974 15.9267H3.01556C3.01556 23.1233 8.84022 28.9569 16.0258 28.9569C23.2113 28.9569 29.036 23.1233 29.036 15.9267C29.036 8.73009 23.2113 2.89648 16.0258 2.89648V3.12101C23.0887 3.12101 28.8118 8.85424 28.8118 15.9267Z" fill="#5AAB29" stroke="#5AAB29" stroke-width="0.2"/>
<path d="M28.589 15.9268C28.589 22.875 22.9647 28.5079 16.0271 28.5079C9.08948 28.5079 3.46527 22.875 3.46527 15.9268H3.24109C3.24109 22.9992 8.96552 28.7324 16.0271 28.7324C23.0887 28.7324 28.8131 22.9992 28.8131 15.9268C28.8131 8.85432 23.0887 3.12109 16.0271 3.12109V3.34562C22.9647 3.34562 28.589 8.97847 28.589 15.9268Z" fill="#5CB02B" stroke="#5CB02B" stroke-width="0.2"/>
<path d="M16.0271 28.5075C22.9648 28.5075 28.589 22.8746 28.589 15.9264C28.589 8.97807 22.9648 3.34521 16.0271 3.34521V3.56974C22.8408 3.56974 28.3648 9.10222 28.3648 15.9264C28.3648 22.7505 22.8408 28.283 16.0271 28.283C9.21344 28.283 3.68945 22.7505 3.68945 15.9264H3.46527C3.46527 22.8746 9.08949 28.5075 16.0271 28.5075Z" fill="#5EB52B" stroke="#5EB52B" stroke-width="0.2"/>
<path d="M3.68945 15.9264C3.68945 22.7506 9.21345 28.2831 16.0271 28.2831C22.8408 28.2831 28.3648 22.7506 28.3648 15.9264C28.3648 9.10231 22.8408 3.56982 16.0271 3.56982V15.9264H3.68945Z" fill="#5FB92A" stroke="#5FB92A" stroke-width="0.2"/>
<path d="M11.1888 4.55518C6.77912 6.43984 3.68811 10.8207 3.68811 15.9252H16.0258L11.1888 4.55518Z" fill="#ECECEC" stroke="#CECECE" stroke-width="0.2"/>
<path d="M16.0271 15.9264V3.56982C14.3102 3.56982 12.675 3.92114 11.1902 4.5564L16.0271 15.9291V15.9264Z" fill="#FF5715" stroke="#FF5715" stroke-width="0.2"/>
<path d="M10.9264 3.93601L10.8381 3.72998C6.10791 5.75068 2.79272 10.4511 2.79272 15.9268H3.0169C3.0169 10.5436 6.27671 5.92369 10.9264 3.93601Z" fill="#B0B0B0" stroke="#B0B0B0" stroke-width="0.2"/>
<path d="M11.0134 4.14339L10.9264 3.93604C6.27671 5.92239 3.01691 10.5436 3.01691 15.9255H3.24108C3.24108 10.636 6.44418 6.09541 11.0134 4.14339Z" fill="#BBBBBB" stroke="#BBBBBB" stroke-width="0.2"/>
<path d="M3.24109 15.9265H3.46527C3.46527 10.7295 6.61298 6.2681 11.1018 4.3491L11.0134 4.14307C6.44419 6.09509 3.24109 10.6357 3.24109 15.9265Z" fill="#CACACA" stroke="#CACACA" stroke-width="0.2"/>
<path d="M11.1888 4.55515L11.1005 4.34912C6.61033 6.26812 3.46393 10.7282 3.46393 15.9265H3.68811C3.68942 10.822 6.77912 6.43981 11.1888 4.55515Z" fill="#DDDDDD" stroke="#DDDDDD" stroke-width="0.2"/>
<path d="M16.0271 2.8964V2.67188C14.1849 2.67188 12.4324 3.0496 10.8381 3.72977L10.9264 3.9358C12.4917 3.26752 14.2166 2.8964 16.0271 2.8964Z" fill="#F2340F" stroke="#F2340F" stroke-width="0.2"/>
<path d="M11.0135 4.14324C12.5524 3.48552 14.2469 3.12101 16.0258 3.12101V2.89648C14.2152 2.89648 12.4917 3.26761 10.9251 3.93589L11.0135 4.14324Z" fill="#F93A0D" stroke="#F93A0D" stroke-width="0.2"/>
<path d="M16.0271 3.34562V3.12109C14.2482 3.12109 12.5537 3.48561 11.0148 4.14333L11.1031 4.34936C12.6143 3.70353 14.2785 3.34562 16.0271 3.34562Z" fill="#FF3F0B" stroke="#FF3F0B" stroke-width="0.2"/>
<path d="M16.0271 3.56974V3.34521C14.2785 3.34521 12.6143 3.70313 11.1018 4.34896L11.1902 4.55499C12.675 3.92105 14.3102 3.56974 16.0271 3.56974Z" fill="#FF4A12" stroke="#FF4A12" stroke-width="0.2"/>
<path d="M19.0047 8.1449C18.944 8.12113 18.8781 8.1449 18.8478 8.20169L16.2157 13.1927C16.1431 13.1874 16.0719 13.1834 16.0034 13.1834C14.5673 13.1834 13.399 14.3536 13.399 15.7918C13.399 17.1007 14.3656 18.2035 15.6566 18.3752L17.5027 26.2229C17.5185 26.2902 17.5752 26.3338 17.6425 26.3338C17.6504 26.3338 17.6596 26.3338 17.6689 26.3312C17.7467 26.318 17.7981 26.2532 17.7902 26.1753L17.0623 18.1771C18.0038 17.7584 18.6091 16.8273 18.6091 15.7932C18.6091 15.0021 18.257 14.2664 17.6425 13.7685L19.0812 8.29414C19.097 8.23074 19.0654 8.16867 19.0047 8.1449Z" fill="#191919"/>
<path d="M16.0047 17.7345C17.0753 17.7345 17.9432 16.8653 17.9432 15.793C17.9432 14.7208 17.0753 13.8516 16.0047 13.8516C14.9341 13.8516 14.0662 14.7208 14.0662 15.793C14.0662 16.8653 14.9341 17.7345 16.0047 17.7345Z" fill="#262626"/>
<path d="M16.0047 16.3966C16.3375 16.3966 16.6073 16.1264 16.6073 15.793C16.6073 15.4597 16.3375 15.1895 16.0047 15.1895C15.6718 15.1895 15.402 15.4597 15.402 15.793C15.402 16.1264 15.6718 16.3966 16.0047 16.3966Z" fill="#191919"/>
<path d="M16.0047 16.2763C16.2713 16.2763 16.4873 16.0599 16.4873 15.793C16.4873 15.526 16.2713 15.3096 16.0047 15.3096C15.7382 15.3096 15.5221 15.526 15.5221 15.793C15.5221 16.0599 15.7382 16.2763 16.0047 16.2763Z" fill="#262626"/>
<path fill-rule="evenodd" clip-rule="evenodd" d="M30.1767 15.5821C30.1714 15.3867 30.149 14.9984 30.149 14.9984C29.6584 7.46105 23.2891 1.56934 15.6816 1.75424C12.108 1.8414 8.87322 3.25457 6.43364 5.51167C3.7567 7.98802 2.03713 11.4813 1.88416 15.3537C1.87229 15.6574 1.86834 15.9625 1.87625 16.2702C2.06614 24.0849 8.56728 30.2883 16.37 30.0981C20.4803 29.9978 24.145 28.1435 26.6637 25.2669C28.9265 22.6849 30.2663 19.2801 30.1767 15.5821ZM15.5076 29.1733V27.8463C15.5076 27.5597 15.7396 27.3273 16.0271 27.3273C16.3133 27.3273 16.5454 27.5597 16.5454 27.8463V29.174C20.3233 29.0266 23.6789 27.3009 25.9938 24.6489C27.9267 22.4344 29.132 19.5748 29.2525 16.4472H27.9283C27.6408 16.4459 27.4087 16.2135 27.4087 15.9269C27.4087 15.6403 27.6408 15.4078 27.927 15.4078H29.2527C28.9835 8.46308 23.408 2.94329 16.5454 2.68002V4.01401C16.5454 4.30061 16.3133 4.53306 16.0258 4.53306C15.7396 4.53306 15.5076 4.30061 15.5076 4.01401V2.6798C13.9261 2.74212 12.4195 3.08005 11.0319 3.64682C9.5629 4.24643 8.22706 5.10225 7.0798 6.1575C4.55978 8.47404 2.94439 11.7521 2.80065 15.3933L2.80029 15.4065H4.12463C4.4121 15.4065 4.64419 15.6389 4.64419 15.9269C4.64419 16.2135 4.4121 16.4459 4.12595 16.4459H2.80025C3.06931 23.3905 8.64513 28.9096 15.5076 29.1733Z" fill="#191919"/>
<path d="M26.3112 5.13449C20.5475 -0.364465 11.519 -0.351125 5.76994 5.01309C5.55148 5.2172 5.3357 5.42931 5.12657 5.6481C-0.573185 11.6406 -0.341412 21.1578 5.64073 26.8662C11.6229 32.5732 21.1269 32.3424 26.8253 26.3512C26.9585 26.2111 27.0877 26.0684 27.2143 25.9243C32.5091 19.9158 32.1534 10.7081 26.3112 5.13449ZM26.483 25.2279C26.3564 25.372 26.2286 25.5148 26.0954 25.6548C20.7806 31.2432 11.9159 31.458 6.33605 26.1351C0.75618 20.8122 0.541723 11.9341 5.85652 6.3458C6.06565 6.12569 6.28144 5.91491 6.50122 5.71213C11.8653 0.7508 20.2558 0.752134 25.6158 5.86555C31.0558 11.055 31.3955 19.6223 26.483 25.2279Z" fill="#F4F4F4"/>
<path d="M31.9461 15.6117C31.7325 6.79199 24.394 -0.210443 15.5877 0.00483372C11.5051 0.103887 7.81407 1.73629 5.04877 4.3381C1.84831 7.34934 -0.109946 11.6562 0.00477976 16.3883C0.218408 25.2081 7.55692 32.2092 16.3631 31.9952C20.9706 31.883 25.081 29.8174 27.9228 26.6093C30.5114 23.6866 32.0476 19.8156 31.9461 15.6117ZM27.096 25.8209C24.4559 28.8163 20.6291 30.7485 16.3354 30.8528C8.15824 31.0509 1.34325 24.5503 1.14545 16.3606C1.13753 16.0595 1.14149 15.761 1.15204 15.4651C1.29578 11.4039 3.0826 7.73631 5.87691 5.12921C8.43913 2.73872 11.8479 1.2397 15.6154 1.14857C23.6014 0.954429 30.2859 7.15123 30.7791 15.0702C30.7909 15.2591 30.8002 15.4493 30.8054 15.6408C30.8991 19.529 29.4841 23.1094 27.096 25.8209Z" fill="#E0E0E0"/>
</g>
</g>
<defs>
<clipPath id="clip0_1411_34127">
<rect width="31.9509" height="32" fill="#000000"/>
</clipPath>
<clipPath id="clip1_1411_34127">
<rect width="31.9509" height="32" fill="#000000"/>
</clipPath>
</defs>
</svg>
