<?xml version="1.0" encoding="UTF-8"?>
<svg width="150px" height="29px" viewBox="0 0 150 29" version="1.1" xmlns="http://www.w3.org/2000/svg" xmlns:xlink="http://www.w3.org/1999/xlink">
    <title>diffbot-light-background (2)</title>
    <g id="Pages" stroke="none" stroke-width="1" fill="none" fill-rule="evenodd">
        <g id="Home" transform="translate(-114.000000, -26.000000)" fill="#19305A">
            <g id="Main-Navigation" transform="translate(114.000000, 20.635528)">
                <g id="diffbot-light-background-(2)" transform="translate(0.000000, 5.364472)">
                    <path d="M5.78017241,14.4999745 C5.80410776,10.6316423 7.36842672,6.93111732 10.1291379,4.21211693 C12.8899138,1.49310365 16.6210345,-0.0218064126 20.5021552,0.000237242626 L28.4482759,0.000237242626 C30.3696983,-0.0105533988 32.2745043,0.355738059 34.053944,1.07843787 C35.833319,1.80114348 37.4524784,2.86610125 38.8189655,4.21251003 C40.1854526,5.55891236 41.2724353,7.16040243 42.0179095,8.92553684 C42.7634483,10.6906713 43.1528017,12.5848188 43.1637931,14.4999745 C43.1398707,18.3671468 41.576444,22.0667051 38.8170905,24.7855186 C36.0577371,27.5043321 32.3282974,29.020011 28.4482759,28.9997334 L20.5021552,28.9997334 C18.5801509,29.0113113 16.6746983,28.6456667 14.8945474,27.9233349 C13.1143319,27.201003 11.4944612,26.1362257 10.1272629,24.7897073 C8.76012931,23.443189 7.67256466,21.8414154 6.92663793,20.0758943 C6.18075,18.3103088 5.79117672,16.4156457 5.78017241,14.4999745 Z M11.2176724,8.7968459 C11.2210345,8.131932 11.3559052,7.47430005 11.6145259,6.86139094 C11.8731466,6.2485205 12.2504095,5.69246223 12.7247845,5.22502479 C13.1991595,4.75758735 13.7613362,4.38794084 14.379181,4.13722873 C14.9970259,3.88651662 15.6583836,3.75965584 16.325431,3.76379934 L32.612069,3.76379934 C33.2794397,3.75965584 33.9411207,3.88647151 34.5592888,4.13710629 C35.1775216,4.38773463 35.7400862,4.75728447 36.2150431,5.2246317 C36.6899353,5.69198536 37.0677802,6.24799851 37.3271121,6.86093984 C37.586444,7.47384895 37.7220905,8.13167423 37.7262931,8.7968459 L37.7262931,20.2031031 C37.7220905,20.8682748 37.586444,21.5261001 37.3271121,22.1390092 C37.0677802,22.7519183 36.6899353,23.307925 36.2150431,23.7752593 C35.7400862,24.2426581 35.1775216,24.6121693 34.5592888,24.8627847 C33.9411207,25.1134646 33.2794397,25.2402867 32.612069,25.2361371 L16.325431,25.2361371 C14.9787284,25.2428644 13.6843966,24.7166944 12.7266595,23.7730038 C11.7689871,22.8293133 11.2262069,21.5453038 11.2176724,20.2031031 L11.2176724,8.7968459 Z M34.0021552,10.1823517 C33.8134267,9.58271769 33.4376509,9.05880317 32.9294612,8.68690763 C32.4212716,8.31494765 31.8072414,8.11433929 31.1767241,8.11433929 C30.5462069,8.11433929 29.9321767,8.31494765 29.4239871,8.68690763 C28.9158621,9.05880317 28.5400216,9.58271769 28.3512931,10.1823517 C28.3100431,10.2871346 28.288125,10.3984262 28.2866379,10.5110066 C28.2866379,10.7366185 28.3765733,10.9529507 28.5365948,11.1125094 C28.696681,11.2720037 28.9137284,11.3616427 29.1400862,11.3616427 C29.3298491,11.3623516 29.5142457,11.2990694 29.6633405,11.1821069 C29.8124353,11.06508 29.9174353,10.9012037 29.9612069,10.7172214 C30.0542457,10.4726635 30.2197629,10.2621311 30.4357112,10.113592 C30.6516595,9.96498841 30.9078879,9.88546682 31.1702586,9.88546682 C31.4326293,9.88546682 31.6888578,9.96498841 31.904806,10.113592 C32.1207543,10.2621311 32.2862716,10.4726635 32.3793103,10.7172214 C32.4032328,10.8350216 32.4519181,10.9463776 32.5221983,11.0440719 C32.5924784,11.1417017 32.6827371,11.2234143 32.7869612,11.2837966 C32.89125,11.3441789 33.0071121,11.3818775 33.1270474,11.3943793 C33.2469828,11.4068811 33.3682112,11.3939282 33.4827155,11.356294 C33.5972845,11.3187243 33.7024784,11.2573754 33.7915086,11.1763072 C33.8805388,11.095239 33.9512716,10.9962558 33.9991164,10.8859309 C34.0469612,10.7756704 34.070819,10.6564525 34.0691379,10.5363323 C34.0674569,10.4161478 34.0401724,10.2977031 33.9892241,10.1887959 L34.0021552,10.1823517 Z M20.9159483,10.1823517 C20.7272198,9.58271769 20.3513793,9.05880317 19.8432543,8.68690763 C19.3350647,8.31494765 18.7210345,8.11433929 18.0905172,8.11433929 C17.46,8.11433929 16.8459698,8.31494765 16.3377802,8.68690763 C15.8296552,9.05880317 15.4538147,9.58271769 15.2650862,10.1823517 C15.2238362,10.2871346 15.2019181,10.3984262 15.200431,10.5110066 C15.2023707,10.7178014 15.2798276,10.9167987 15.4182543,11.0708154 C15.5567457,11.2248321 15.7467672,11.3232352 15.9528233,11.3477232 C16.1588147,11.3722112 16.3667457,11.3210442 16.537694,11.2038239 C16.7085776,11.0866037 16.8308405,10.9113211 16.8814655,10.7107772 C16.9745043,10.4662193 17.1400216,10.2556869 17.3559698,10.1071478 C17.5719181,9.9585442 17.8281466,9.87902261 18.0905172,9.87902261 C18.3528879,9.87902261 18.6091164,9.9585442 18.8250647,10.1071478 C19.0410129,10.2556869 19.2065302,10.4662193 19.299569,10.7107772 C19.3234914,10.8285774 19.3721767,10.9399334 19.4424569,11.0376277 C19.5127371,11.1352575 19.6029957,11.2169701 19.7072198,11.2773524 C19.8115086,11.3377991 19.9273707,11.3754333 20.047306,11.3879351 C20.1672414,11.4004369 20.2884698,11.387484 20.4029741,11.3498498 C20.5175431,11.31228 20.6227371,11.2509311 20.7117672,11.1698629 C20.8007974,11.0887947 20.8715302,10.9898116 20.919375,10.8794867 C20.9672198,10.7692262 20.9910776,10.6500083 20.9893966,10.5298881 C20.9877155,10.4097036 20.960431,10.2912589 20.9094828,10.1823517 L20.9159483,10.1823517 Z M24.7241379,21.9108196 C21.1875,21.9108196 18.2586207,20.4093179 17.612069,17.0389945 L31.862069,17.0389945 C31.2155172,20.4093179 28.2672414,21.9108196 24.75,21.9108196 L24.7241379,21.9108196 Z M42.1810345,22.9418937 C42.3022629,22.9132169 42.4194828,22.8699118 42.5301724,22.8130094 L47.4375,20.2739894 C47.8766379,20.015061 48.2445905,19.6518007 48.5085776,19.216623 C48.7725647,18.7814453 48.924375,18.2879474 48.950431,17.780079 L48.950431,11.0200994 C48.924569,10.5139709 48.7719828,10.0224064 48.5065733,9.59012854 C48.2411638,9.15791516 47.8714009,8.79877917 47.4310345,8.54552159 L42.5560345,6.06448666 C42.3951078,5.98048634 42.2195043,5.92798534 42.0387931,5.90982554 C43.7036638,8.43145902 44.6037931,11.3780755 44.6313362,14.3966093 C44.6588147,17.4151432 43.8126078,20.3776124 42.1939655,22.9290052 L42.1810345,22.9418937 Z M6.75,22.9418937 C6.63122845,22.9121214 6.5162069,22.8688807 6.40732759,22.8130094 L1.51293103,20.261101 C1.07380603,20.0021725 0.705827586,19.6389122 0.441832759,19.2037345 C0.177839871,18.7685568 0.0260465948,18.275059 0,17.7671906 L0,11.0200994 C0.0258658836,10.5139709 0.178457328,10.0224064 0.443855172,9.59012854 C0.70925431,9.15791516 1.07901078,8.79877917 1.51939655,8.54552159 L6.4137931,6.06448666 C6.57471983,5.98048634 6.75032328,5.92798534 6.93103448,5.90982554 C5.26497414,8.43049239 4.36305388,11.3764 4.33324138,14.3947405 C4.30342888,17.413081 5.14698491,20.3760658 6.76293103,22.9290052 L6.75,22.9418937 Z M59.6767241,6.86358197 L65.9482759,6.86358197 C67.887931,6.86358197 69.2993534,7.28245582 70.1831897,8.12020353 C70.6196121,8.53405089 70.9635776,9.03483069 71.1931034,9.58999965 C71.4226293,10.1451042 71.5325431,10.7421605 71.5150862,11.3423101 L71.5150862,19.0753658 C71.5325431,19.6761598 71.4226293,20.2738606 71.1918103,20.8291584 C70.9609914,21.3845207 70.6150862,21.8849138 70.1767241,22.2974724 C69.2890086,23.1352201 67.8795259,23.5540939 65.9482759,23.5540939 L59.6767241,23.5540939 L59.6767241,6.79913984 L59.6767241,6.86358197 Z M62.8512931,9.66681467 L62.8512931,20.8153034 L65.5991379,20.8153034 C66.3581897,20.8957916 67.119181,20.6836481 67.7262931,20.2224357 C68.1653017,19.7002612 68.3793103,19.0260031 68.3211207,18.3471697 L68.3211207,12.1156157 C68.3793103,11.4367178 68.1653017,10.7625242 67.7262931,10.2403496 C67.119181,9.77907287 66.3581897,9.56692937 65.5991379,9.64748203 L62.8512931,9.66681467 Z M78.1939655,6.88291461 L78.1939655,23.6378687 L75,23.6378687 L75,6.88291461 L78.1939655,6.88291461 Z M85.2737069,23.6378687 L82.112069,23.6378687 L82.112069,6.88291461 L92.4568966,6.88291461 L92.4568966,9.66681467 L85.2737069,9.66681467 L85.2737069,14.1197659 L91.9202586,14.1197659 L91.9202586,16.9101102 L85.2737069,16.9101102 L85.2737069,23.5992034 L85.2737069,23.6378687 Z M98.4375,23.6378687 L95.2564655,23.6378687 L95.2564655,6.88291461 L105.601293,6.88291461 L105.601293,9.66681467 L98.4375,9.66681467 L98.4375,14.1197659 L105.084052,14.1197659 L105.084052,16.9101102 L98.4375,16.9101102 L98.4375,23.5992034 L98.4375,23.6378687 Z M115.474138,23.6378687 L108.420259,23.6378687 L108.420259,6.88291461 L115.021552,6.88291461 C117.991164,6.88291461 119.480819,8.072903 119.489224,10.4530087 L119.489224,12.186502 C119.516379,12.7732476 119.36056,13.3540001 119.043103,13.849109 C118.675862,14.3249497 118.179957,14.6869856 117.614224,14.8930715 C118.324138,15.0204736 118.965517,15.3950113 119.424569,15.9499225 C119.866164,16.5357014 120.094397,17.2539734 120.071121,17.9862938 L120.071121,19.777785 C120.093103,20.2991863 119.99806,20.8189766 119.793103,21.2993282 C119.588793,21.7797443 119.279741,22.2087356 118.887931,22.5552409 C117.912931,23.298452 116.698707,23.6605523 115.474138,23.5734266 L115.474138,23.6378687 Z M116.890086,19.3331343 L116.890086,18.0442917 C116.911422,17.8123 116.884914,17.5784395 116.8125,17.3568875 C116.740086,17.1353355 116.623707,16.9307317 116.469828,16.7554491 C116.089655,16.448769 115.605388,16.3009387 115.118534,16.3430195 L111.594828,16.3430195 L111.594828,20.924855 L114.827586,20.924855 C115.379095,20.9739599 115.932543,20.8452045 116.405172,20.5575348 C116.579095,20.3942385 116.711638,20.1924702 116.792457,19.9685337 C116.873276,19.7446618 116.900431,19.5048726 116.87069,19.2686922 L116.890086,19.3331343 Z M116.314655,12.308942 L116.314655,10.8396615 C116.314655,9.93102741 115.752155,9.47348828 114.640086,9.47348828 L111.594828,9.47348828 L111.594828,13.8684416 L114.614224,13.8684416 C115.74569,13.8684416 116.314655,13.3529046 116.314655,12.308942 Z M135.284483,11.7611839 L135.284483,18.688713 C135.312931,19.3811437 135.192672,20.0716412 134.932112,20.7140003 C134.670905,21.3564239 134.275216,21.9358231 133.771552,22.4134682 C132.762931,23.3672117 131.148491,23.8440835 128.928879,23.8440835 C126.717672,23.8440835 125.101293,23.373656 124.092672,22.4263566 C123.587069,21.9472294 123.190733,21.365768 122.929526,20.7210245 C122.668966,20.076281 122.549353,19.3832703 122.579741,18.688713 L122.579741,11.7611839 C122.551293,11.0687532 122.671552,10.3781914 122.932112,9.7358322 C123.193319,9.09347303 123.589009,8.51407383 124.092672,8.03642876 C125.101293,7.08912943 126.717672,6.61870187 128.928879,6.61870187 C131.140086,6.61870187 132.762931,7.08912943 133.771552,8.03642876 C134.275216,8.51407383 134.670905,9.09347303 134.932112,9.7358322 C135.192672,10.3781914 135.312931,11.0687532 135.284483,11.7611839 Z M125.75431,11.9416219 L125.75431,18.5211635 C125.730388,18.8708909 125.783405,19.2216494 125.909483,19.5488221 C126.036207,19.8760593 126.232112,20.1719131 126.484914,20.4157621 C127.197414,20.9115799 128.063147,21.1398339 128.928879,21.0601834 C129.795905,21.137514 130.662931,20.9094533 131.37931,20.4157621 C131.637931,20.1681755 131.837716,19.8660708 131.96444,19.5315517 C132.090517,19.197097 132.140302,18.8386054 132.109914,18.4824982 L132.109914,11.9416219 C132.133836,11.59183 132.080819,11.2411359 131.954741,10.9138988 C131.828017,10.5866617 131.632112,10.2908723 131.37931,10.0470232 C130.63319,9.62447619 129.790086,9.40227973 128.932112,9.40227973 C128.074138,9.40227973 127.231034,9.62447619 126.484914,10.0470232 C126.232112,10.2908723 126.036207,10.5866617 125.909483,10.9138988 C125.783405,11.2411359 125.730388,11.59183 125.75431,11.9416219 Z M142.105603,23.5992034 L142.105603,9.66681467 L137.418103,9.66681467 L137.418103,6.86358197 L150,6.86358197 L150,9.66681467 L145.280172,9.66681467 L145.280172,23.5992034 L142.105603,23.5992034 Z" id="Shape"></path>
                </g>
            </g>
        </g>
    </g>
</svg>