<svg width="128" height="128" viewBox="0 0 128 128" fill="none" xmlns="http://www.w3.org/2000/svg">
<g clip-path="url(#clip0_240_6494)">
<path d="M0 63.8357C0 60.659 0.876337 58.1395 2.51947 56.2225C4.21737 54.3055 6.35344 53.3744 9.03723 53.3744C9.91356 53.3744 10.6804 53.484 11.4472 53.7031C12.2139 53.9222 12.7617 54.196 13.1998 54.5246C13.638 54.8533 14.0214 55.1271 14.35 55.4557C14.6786 55.7844 14.8977 56.0035 15.062 56.2773L15.2264 56.6059H15.3359C15.2811 56.2225 15.2264 55.7296 15.2264 55.2914V45.9803H19.0603V73.8588H15.3907V71.9418L15.4454 70.6273H15.3359C15.2811 70.7369 15.1716 70.8464 15.1168 71.0107C15.0073 71.175 14.7882 71.5037 14.4596 71.8871C14.1309 72.3252 13.6928 72.7086 13.1998 73.0373C12.7069 73.3659 12.1044 73.6397 11.2828 73.9136C10.4613 74.1875 9.63971 74.297 8.7086 74.297C6.02482 74.297 3.88875 73.3659 2.30038 71.3941C0.821566 69.4771 0 67.0124 0 63.8357ZM3.94352 63.8357C3.94352 66.0266 4.49123 67.7245 5.53188 69.039C6.57253 70.2987 7.94181 70.956 9.58494 70.956C11.1733 70.956 12.5973 70.3535 13.6928 69.1485C14.7882 67.9436 15.3359 66.1361 15.3359 63.7262C15.3359 61.8092 14.843 60.1113 13.8571 58.742C12.8712 57.318 11.5019 56.6059 9.69448 56.6059C8.10612 56.6059 6.68207 57.2084 5.58665 58.5229C4.43646 59.947 3.94352 61.6449 3.94352 63.8357Z" fill="#0174C3"/>
<path d="M22.2918 49.8691V45.9803H26.1806V49.8691H22.2918ZM22.3466 73.8588V53.8674H26.1806V73.8588H22.3466Z" fill="#0174C3"/>
<path d="M32.0411 77.4737C33.6842 78.35 35.5464 78.7882 37.5182 78.7882C39.4352 78.7882 40.914 78.2953 42.1189 77.4189C43.2691 76.5426 43.8716 75.1186 43.8716 73.1468V71.668L43.9264 70.4082H43.8168C42.5571 72.4895 40.5853 73.5302 37.9016 73.5302C35.2178 73.5302 33.0269 72.5991 31.3838 70.6273C29.7954 68.7103 28.9739 66.2456 28.9739 63.288C28.9739 60.3304 29.7407 57.9204 31.2743 56.0582C32.8626 54.196 34.9987 53.2649 37.6825 53.2649C38.5588 53.2649 39.3804 53.3744 40.1472 53.5387C40.914 53.7031 41.5165 53.9769 41.9546 54.3055C42.3928 54.5794 42.7762 54.908 43.1048 55.1819C43.4334 55.4557 43.6525 55.7296 43.7073 55.9487L43.9264 56.2225H44.0359C43.9812 56.0034 43.9812 55.8391 43.9812 55.62V53.7578H47.6508V72.9277C47.6508 74.5161 47.377 75.9401 46.7745 77.0903C46.2268 78.35 45.46 79.2812 44.4741 79.9384C43.4882 80.6504 42.4476 81.1981 41.2974 81.5268C40.1472 81.8554 38.8874 82.0745 37.5729 82.0745C35.163 82.0745 32.8626 81.5268 30.7265 80.4313L32.0411 77.4737ZM38.6136 70.2987C40.2019 70.2987 41.4617 69.751 42.3928 68.7103C43.3787 67.6149 43.8716 65.8622 43.8716 63.4523C43.8716 59.0159 41.9546 56.7155 38.2302 56.7155C36.5323 56.7155 35.2178 57.2632 34.1771 58.4681C33.246 59.6731 32.7531 61.2615 32.7531 63.288C32.7531 65.3693 33.3008 67.0672 34.3414 68.3817C35.3821 69.6414 36.8061 70.2987 38.6136 70.2987Z" fill="#0174C3"/>
<path d="M50.8276 49.8691V45.9803H54.7163V49.8691H50.8276ZM50.8276 73.8588V53.8674H54.6616V73.8588H50.8276Z" fill="#0174C3"/>
<path d="M57.5096 63.8357C57.5096 60.8233 58.4955 58.3586 60.5221 56.3868C62.4938 54.415 65.0681 53.3744 68.19 53.3744C69.6688 53.3744 71.0381 53.5935 72.2431 54.0864C73.5028 54.5794 74.3791 55.0723 74.9268 55.5652L75.6936 56.2773L73.8862 58.961C73.7219 58.7967 73.5028 58.5776 73.1742 58.3586C72.9003 58.0847 72.2431 57.7561 71.2572 57.3179C70.3261 56.8797 69.3402 56.7154 68.2995 56.7154C66.3278 56.7154 64.6299 57.3727 63.3154 58.6872C62.0009 60.0017 61.3436 61.6996 61.3436 63.7809C61.3436 65.8622 62.0009 67.5053 63.3154 68.9294C64.6299 70.2987 66.3278 70.9559 68.4091 70.9559C69.5045 70.9559 70.5999 70.7368 71.5858 70.2987C72.6265 69.8605 73.3385 69.4223 73.8314 68.9841L74.5434 68.3269L76.077 71.1202C75.9675 71.2298 75.858 71.3393 75.7484 71.4488C75.5841 71.6132 75.2555 71.8322 74.8173 72.2156C74.2696 72.599 73.7766 72.9277 73.2289 73.1467C72.6812 73.4206 71.9144 73.6945 70.9833 73.9135C70.107 74.1326 69.1211 74.2422 68.1352 74.2422C65.0133 74.2422 62.439 73.2563 60.4673 71.2845C58.4955 69.4223 57.5096 66.9028 57.5096 63.8357Z" fill="#0174C3"/>
<path d="M76.6794 63.8356C76.6794 60.7137 77.6105 58.1942 79.5275 56.2224C81.4445 54.3055 83.7997 53.3196 86.7026 53.3196C89.3863 53.3196 91.5224 54.1959 93.056 56.0034C94.5896 57.756 95.3564 60.0017 95.3564 62.7402L95.2468 64.3833H80.6777C80.7873 66.4646 81.4993 68.1078 82.8138 69.258C84.0735 70.4082 85.7167 70.9559 87.5789 70.9559C88.6195 70.9559 89.6054 70.7368 90.5913 70.4082C91.5772 70.0248 92.2892 69.6414 92.7821 69.258L93.4942 68.7103L95.0825 71.5036C94.8634 71.7227 94.5348 71.9965 94.1514 72.3251C93.7132 72.6538 92.8917 73.0919 91.4676 73.5849C90.1531 74.1326 88.7838 74.4064 87.3598 74.4064C84.2379 74.4064 81.7184 73.4206 79.7466 71.394C77.6653 69.3675 76.6794 66.848 76.6794 63.8356ZM80.7325 61.5352H91.4129C91.3581 59.8921 90.8652 58.5776 89.9888 57.756C89.1125 56.9345 87.9623 56.4963 86.6478 56.4963C85.1142 56.4963 83.8545 56.9345 82.8138 57.8108C81.6636 58.6871 80.9516 59.9469 80.7325 61.5352Z" fill="#0174C3"/>
<path d="M98.0403 73.8588V53.8674H101.765V57.318L101.655 58.8516H101.765C102.258 57.318 103.024 56.0582 104.12 55.1271C105.27 54.1413 106.53 53.6483 108.063 53.6483L109.049 53.7579V57.5371C108.721 57.4275 108.337 57.4275 107.954 57.4275C106.694 57.4275 105.599 57.8657 104.558 58.6873C103.517 59.5088 102.805 60.659 102.312 62.0831C101.984 63.1237 101.819 64.3287 101.819 65.698V73.8588H98.0403Z" fill="#0174C3"/>
<path d="M113.979 66.5742V57.2084H111.35V54.1412H114.033V48.3354H117.758V54.1412H122.578V57.2084H117.758V66.0813C117.758 66.8481 117.867 67.5053 118.086 68.053C118.306 68.6007 118.579 69.0389 118.853 69.3675C119.127 69.6962 119.51 69.9153 119.894 70.1343C120.332 70.3534 120.661 70.4082 120.989 70.463C121.318 70.5177 121.647 70.5725 121.975 70.5725L122.852 70.463V73.8588C122.468 73.9135 122.03 73.9683 121.537 73.9683C120.935 73.9683 120.277 73.9135 119.73 73.8588C119.182 73.7492 118.47 73.5849 117.758 73.3111C116.991 72.9824 116.389 72.599 115.841 72.0513C115.293 71.5036 114.855 70.7916 114.472 69.8605C114.198 68.9294 113.979 67.7792 113.979 66.5742Z" fill="#0174C3"/>
<path d="M125.152 45.9255C123.564 45.9255 122.249 47.1853 122.249 48.8284C122.249 50.4715 123.509 51.7313 125.152 51.7313C126.795 51.7313 128.055 50.4715 128.055 48.8284C128 47.1853 126.74 45.9255 125.152 45.9255ZM125.152 51.1288C123.892 51.1288 122.852 50.0881 122.852 48.8284C122.852 47.5687 123.892 46.528 125.152 46.528C126.412 46.528 127.452 47.5687 127.452 48.8284C127.452 50.0881 126.412 51.1288 125.152 51.1288Z" fill="#0174C3"/>
<path d="M124.166 50.362V47.1853H125.152C125.426 47.1853 125.645 47.2401 125.754 47.2948C125.919 47.3496 126.028 47.5139 126.138 47.6235C126.247 47.7878 126.302 47.9521 126.302 48.1712C126.302 48.3903 126.247 48.5546 126.138 48.7189C126.028 48.8832 125.919 48.9927 125.7 49.0475C125.754 49.1023 125.754 49.1571 125.809 49.2118L126.466 50.4716H125.919L125.261 49.2118H124.604V50.4716C124.604 50.362 124.166 50.362 124.166 50.362ZM124.549 48.7189H125.207C125.426 48.7189 125.535 48.6641 125.645 48.5546C125.754 48.445 125.809 48.3355 125.809 48.1164C125.809 47.8973 125.7 47.733 125.59 47.6235C125.481 47.5687 125.371 47.5139 125.152 47.5139H124.604L124.549 48.7189Z" fill="#0174C3"/>
</g>
<defs>
<clipPath id="clip0_240_6494">
<rect width="128" height="36.1489" fill="white" transform="translate(0 45.9255)"/>
</clipPath>
</defs>
</svg>
