<svg width="128" height="128" viewBox="0 0 128 128" fill="none" xmlns="http://www.w3.org/2000/svg">
<g clip-path="url(#clip0_58_7853)">
<mask id="mask0_58_7853" style="mask-type:luminance" maskUnits="userSpaceOnUse" x="0" y="14" width="128" height="100">
<path d="M128 14.4229H0V113.578H128V14.4229Z" fill="white"/>
</mask>
<g mask="url(#mask0_58_7853)">
<path d="M108.357 23.2526C100.199 19.5092 91.4506 16.7513 82.3035 15.1717C82.1369 15.1412 81.9705 15.2174 81.8847 15.3697C80.7595 17.3709 79.5132 19.9815 78.6405 22.0335C68.8022 20.5606 59.0143 20.5606 49.3777 22.0335C48.5048 19.9359 47.2133 17.3709 46.0831 15.3697C45.9972 15.2224 45.8308 15.1463 45.6643 15.1717C36.5222 16.7462 27.7737 19.5042 19.6103 23.2526C19.5396 23.283 19.4791 23.3339 19.4389 23.3999C2.84476 48.1911 -1.70107 72.373 0.528961 96.2551C0.539051 96.3719 0.604639 96.4837 0.695456 96.5547C11.6438 104.595 22.2491 109.476 32.6575 112.711C32.8241 112.762 33.0006 112.701 33.1066 112.564C35.5687 109.202 37.7634 105.657 39.6452 101.928C39.7563 101.71 39.6503 101.451 39.4233 101.365C35.942 100.044 32.6272 98.434 29.4386 96.6056C29.1863 96.4583 29.1662 96.0976 29.3982 95.9248C30.0692 95.422 30.7404 94.8989 31.3811 94.3706C31.497 94.2742 31.6585 94.2538 31.7948 94.3148C52.7429 103.879 75.4216 103.879 96.1224 94.3148C96.2587 94.2488 96.4202 94.2691 96.5412 94.3656C97.1821 94.8938 97.8531 95.422 98.5292 95.9248C98.7612 96.0976 98.746 96.4583 98.4938 96.6056C95.3052 98.4695 91.9903 100.044 88.5041 101.36C88.2771 101.446 88.1761 101.71 88.2872 101.928C90.2094 105.651 92.4041 109.197 94.8208 112.559C94.9217 112.701 95.1033 112.762 95.2699 112.711C105.729 109.476 116.334 104.595 127.282 96.5547C127.378 96.4837 127.439 96.377 127.449 96.2602C130.118 68.6498 122.979 44.6663 108.524 23.4049C108.488 23.3339 108.428 23.283 108.357 23.2526ZM42.7735 81.7134C36.4667 81.7134 31.27 75.9233 31.27 68.8125C31.27 61.7016 36.3659 55.9115 42.7735 55.9115C49.2313 55.9115 54.3776 61.7524 54.2767 68.8125C54.2767 75.9233 49.1808 81.7134 42.7735 81.7134ZM85.3053 81.7134C78.9987 81.7134 73.8021 75.9233 73.8021 68.8125C73.8021 61.7016 78.8978 55.9115 85.3053 55.9115C91.7634 55.9115 96.9095 61.7524 96.8087 68.8125C96.8087 75.9233 91.7634 81.7134 85.3053 81.7134Z" fill="#5865F2"/>
</g>
</g>
<defs>
<clipPath id="clip0_58_7853">
<rect width="128" height="99.1549" fill="white" transform="translate(0 14.4229)"/>
</clipPath>
</defs>
</svg>
