<svg version="1.1" id="Layer_1" xmlns:x="ns_extend;" xmlns:i="ns_ai;" xmlns:graph="ns_graphs;" xmlns="http://www.w3.org/2000/svg" xmlns:xlink="http://www.w3.org/1999/xlink" x="0px" y="0px" viewBox="0 0 307.4 134" style="enable-background:new 0 0 307.4 134;" xml:space="preserve">
 <style type="text/css">
  .st0{fill:#FFFFFF;}
 </style>
 <metadata>
  <sfw xmlns="ns_sfw;">
   <slices>
   </slices>
   <sliceSourceBounds bottomLeftOrigin="true" height="134" width="307.4" x="0" y="-0.1">
   </sliceSourceBounds>
  </sfw>
 </metadata>
 <g>
  <g>
   <path class="st0" d="M185.4,36.3c1.4,0,2.4,1,2.4,2.3v55.2c0,1.6-0.7,2.3-2.6,2.6c-5.5,1-11.1,1.4-17.2,1.4
			c-13.8,0-21.5-7.3-21.5-20.5v-4.9c0-13.3,7.4-20.4,21.5-20.4c2.5,0,6.6,0.2,10.2,0.7v-14c0-1.2,1.1-2.3,2.5-2.3h4.7V36.3z
			 M177.8,60.6c-2.8-0.3-7-0.4-10-0.5c-8,0-11.3,3.8-11.3,12.8v5c0,9.2,3.2,13,11.3,13c2.9,0,7-0.2,10-0.4V60.6z M206.5,53
			c1.5,0,2.7,1,2.7,2.3v40c0,1.2-1.2,2.3-2.7,2.3h-4.6c-1.5,0-2.7-1-2.7-2.3v-40c0-1.2,1.2-2.3,2.7-2.3C201.9,53,206.5,53,206.5,53z
			 M206.5,36.3c1.4,0,2.6,1.1,2.6,2.4v5c0,1.3-1.2,2.4-2.6,2.4h-4.7c-1.5,0-2.6-1.1-2.6-2.4v-5c0-1.3,1.2-2.4,2.6-2.4
			C201.8,36.3,206.5,36.3,206.5,36.3z M246.5,74.5l16.2,20.2c0.4,0.4,0.5,0.9,0.5,1.4c0,0.8-0.5,1.6-2,1.6H255
			c-0.9,0-1.4-0.2-1.9-0.9l-12.4-15.6l-12.4,15.5c-0.7,0.8-1.1,1-2.2,1h-5.2c-1.2,0-1.8-0.8-1.8-1.5c0-0.3,0.1-0.9,0.7-1.5L235.6,75
			l-15-18.8c-0.3-0.5-0.6-1-0.6-1.5c0-1,0.9-1.7,2.1-1.7h5.9c1,0,1.7,0.4,2.4,1.4l10.8,13.9l11-14c0.9-1.1,1.4-1.4,2.5-1.4h5.3
			c1.1,0,2,0.8,2,1.7c0,0.5-0.3,1-0.6,1.4L246.5,74.5z M288.9,51.7c12.4,0,18.6,5.3,18.5,15.8v26.3c0,1.6-0.7,2.3-2.6,2.6
			c-5.5,1-11,1.4-17,1.4h-2c-11.2,0-16.9-4.6-16.9-13.8v-0.6c0-9.6,6.9-13.8,22.8-13.8h6v-2.1c0-6.2-2.3-8.4-9.1-8.4
			c-5.8,0-10.1,0.3-13.9,0.6h-0.5c-2.2,0-2.4-1.5-2.4-2V55c0-0.9,0.5-2,2.6-2.3C278.2,52.1,282.4,51.7,288.9,51.7z M278.9,83.9
			L278.9,83.9c0,4.9,2,6.8,7.4,6.8h1.5h0.1c2.8,0,6.6-0.2,9.5-0.4V76.8h-5.8C280.8,76.8,278.9,79,278.9,83.9z">
   </path>
   <path class="st0" d="M82.3,69.3L68.6,77c-1.2,0.7-2.7,0.3-3.4-0.9L49.4,49.3c-0.7-1.2-0.3-2.6,0.9-3.3L64,38.3
			c8.8-4.9,19.9-2.1,25,6.5c1.7,2.8,2.4,5.9,2.4,8.9C91.4,59.9,88.2,65.9,82.3,69.3z M120.7,26.9C105.5,1.2,72-7.6,45.7,7.3
			L2.5,31.7c-2.4,1.4-3.2,4.3-1.8,6.7l37.5,63.5c0.8,1.4,1.2,2.9,1.2,4.5v26.4c0,1,1.1,1.6,2,1.1l11.8-6.7l8-4.5l39.5-22.4
			c17.6-9.9,27.4-28.1,27.4-46.6C128,44.6,125.7,35.3,120.7,26.9z">
   </path>
  </g>
 </g>
</svg>