<?xml version="1.0" encoding="UTF-8" standalone="no"?>
<!DOCTYPE svg PUBLIC "-//W3C//DTD SVG 1.1//EN" "http://www.w3.org/Graphics/SVG/1.1/DTD/svg11.dtd">
<svg xmlns="http://www.w3.org/2000/svg" version="1.1" viewBox="0.00 0.00 400.00 400.00">
<g stroke-width="2.00" fill="none" stroke-linecap="butt">
<path stroke="#010303" vector-effect="non-scaling-stroke" d="
  M 163.04 0.00
  Q 161.29 11.02 161.41 19.61
  C 161.59 32.39 166.25 43.98 172.08 56.49
  Q 184.28 82.67 190.51 94.63
  C 197.05 107.20 204.99 117.57 217.08 123.31
  Q 232.39 130.59 241.06 134.78
  C 264.53 146.12 277.52 163.06 282.72 188.21"
/>
<path stroke="#807f7f" vector-effect="non-scaling-stroke" d="
  M 282.72 188.21
  L 276.46 188.22
  A 0.58 0.58 0.0 0 1 275.88 187.64
  L 275.88 181.53
  A 0.46 0.46 0.0 0 0 275.42 181.07
  L 270.21 181.07
  A 0.47 0.46 90.0 0 0 269.75 181.54
  L 269.75 187.73
  A 0.56 0.56 0.0 0 1 269.19 188.29
  L 267.58 188.29
  A 0.52 0.52 0.0 0 0 267.06 188.81
  L 267.06 192.94
  A 0.56 0.55 -90.0 0 0 267.61 193.50
  L 269.10 193.50
  A 0.58 0.58 0.0 0 1 269.68 194.08
  L 269.66 201.97"
/>
<path stroke="#050000" vector-effect="non-scaling-stroke" d="
  M 269.66 201.97
  L 257.72 203.05"
/>
<path stroke="#807f7f" vector-effect="non-scaling-stroke" d="
  M 257.72 203.05
  L 257.69 178.80
  A 0.47 0.47 0.0 0 0 257.22 178.33
  L 252.07 178.33
  A 0.45 0.44 -0.0 0 0 251.62 178.77
  L 251.62 204.23"
/>
<path stroke="#050000" vector-effect="non-scaling-stroke" d="
  M 251.62 204.23
  Q 249.08 203.61 246.45 205.63"
/>
<path stroke="#807f7f" vector-effect="non-scaling-stroke" d="
  M 246.45 205.63
  L 246.44 188.72
  A 0.47 0.46 -90.0 0 0 245.98 188.25
  L 240.77 188.26
  A 0.47 0.47 0.0 0 0 240.30 188.73
  L 240.32 195.69"
/>
<path stroke="#050000" vector-effect="non-scaling-stroke" d="
  M 240.32 195.69
  Q 238.32 196.22 236.22 195.77"
/>
<path stroke="#807f7f" vector-effect="non-scaling-stroke" d="
  M 236.22 195.77
  L 236.10 192.78
  A 0.57 0.57 0.0 0 0 235.53 192.24
  L 206.33 192.24
  A 0.45 0.45 0.0 0 1 205.88 191.82
  C 205.60 188.36 206.30 183.65 210.91 183.61
  Q 221.00 183.52 235.72 183.59
  A 0.45 0.44 -0.0 0 0 236.17 183.15
  L 236.17 178.74
  A 0.46 0.46 0.0 0 0 235.71 178.28
  Q 219.94 178.37 212.97 178.29
  Q 207.99 178.23 205.71 179.44
  C 199.77 182.60 199.74 186.82 199.77 193.04"
/>
<path stroke="#050000" vector-effect="non-scaling-stroke" d="
  M 199.77 193.04
  Q 196.65 189.93 192.66 191.29"
/>
<path stroke="#807f7f" vector-effect="non-scaling-stroke" d="
  M 192.66 191.29
  C 195.50 185.07 200.28 172.59 195.18 166.54
  Q 193.83 164.94 190.87 164.94
  C 184.73 164.93 180.61 167.85 175.79 171.08
  A 0.12 0.11 57.8 0 0 175.76 171.24
  A 0.12 0.12 0.0 0 0 175.92 171.28
  C 179.31 169.38 186.74 165.92 188.66 171.86
  C 191.48 180.62 182.18 196.40 177.06 203.31"
/>
<path stroke="#050000" vector-effect="non-scaling-stroke" d="
  M 177.06 203.31
  L 176.62 200.17"
/>
<path stroke="#807f7f" vector-effect="non-scaling-stroke" d="
  M 176.62 200.17
  L 178.57 196.87
  A 0.50 0.50 0.0 0 0 178.46 196.24
  C 175.71 193.97 173.04 193.20 169.26 193.24
  Q 167.16 193.27 151.06 193.22
  C 144.52 193.20 144.47 183.64 151.06 183.60
  Q 165.91 183.52 178.33 183.59
  A 0.32 0.32 0.0 0 0 178.65 183.27
  L 178.65 178.62
  A 0.28 0.27 -90.0 0 0 178.38 178.34
  Q 164.62 178.25 151.02 178.35
  C 144.33 178.40 139.03 183.37 139.93 190.29"
/>
<path stroke="#050000" vector-effect="non-scaling-stroke" d="
  M 139.93 190.29
  L 135.68 191.31"
/>
<path stroke="#807f7f" vector-effect="non-scaling-stroke" d="
  M 135.68 191.31
  L 135.68 178.80
  A 0.50 0.50 0.0 0 0 135.18 178.30
  L 130.04 178.30
  A 0.48 0.48 0.0 0 0 129.56 178.78
  Q 129.51 198.98 129.56 203.42
  Q 129.59 205.92 129.19 206.51
  C 127.83 208.50 125.18 208.06 124.14 206.12
  Q 118.44 195.52 111.92 183.71
  Q 108.74 177.94 102.29 178.39
  Q 97.64 178.72 95.45 182.01
  Q 94.15 183.96 94.16 189.74
  Q 94.17 200.93 94.19 212.91"
/>
<path stroke="#050000" vector-effect="non-scaling-stroke" d="
  M 94.19 212.91
  Q 92.95 209.67 92.11 207.46
  Q 90.56 203.37 86.34 205.79"
/>
<path stroke="#807f7f" vector-effect="non-scaling-stroke" d="
  M 86.34 205.79
  C 96.30 193.17 84.71 178.68 70.94 178.40
  Q 61.19 178.19 55.99 178.36
  C 52.80 178.46 49.17 179.56 49.06 183.50
  Q 48.81 192.50 48.88 201.50"
/>
<path stroke="#050000" vector-effect="non-scaling-stroke" d="
  M 48.88 201.50
  L 48.66 199.23
  A 0.86 0.86 0.0 0 0 48.19 198.55
  C 40.48 194.76 33.07 197.10 25.72 200.33
  Q 11.65 206.50 0.00 210.83"
/>
<path stroke="#807f7f" vector-effect="non-scaling-stroke" d="
  M 246.4662 178.8746
  A 0.56 0.56 0.0 0 0 245.9053 178.3156
  L 240.8853 178.3244
  A 0.56 0.56 0.0 0 0 240.3263 178.8854
  L 240.3338 183.1854
  A 0.56 0.56 0.0 0 0 240.8947 183.7444
  L 245.9147 183.7356
  A 0.56 0.56 0.0 0 0 246.4737 183.1746
  L 246.4662 178.8746"
/>
<path stroke="#010a0d" vector-effect="non-scaling-stroke" d="
  M 206.48 0.00
  Q 202.34 20.17 208.82 40.44
  C 217.61 67.95 231.29 92.15 248.69 114.08
  C 256.74 124.22 271.76 140.43 281.55 155.04
  C 289.39 166.74 298.49 177.46 307.54 188.22"
/>
<path stroke="#808282" vector-effect="non-scaling-stroke" d="
  M 307.54 188.22
  C 303.45 188.20 298.41 187.78 294.96 189.37
  Q 289.05 192.09 288.79 199.74
  Q 288.62 204.71 290.33 208.14"
/>
<path stroke="#060303" vector-effect="non-scaling-stroke" d="
  M 290.33 208.14
  Q 286.88 209.16 285.16 212.58"
/>
<path stroke="#808282" vector-effect="non-scaling-stroke" d="
  M 285.16 212.58
  L 285.10 208.53
  A 0.57 0.56 89.5 0 0 284.54 207.97
  C 280.60 207.92 276.05 208.03 275.92 202.67
  Q 275.76 196.46 275.90 194.08
  A 0.62 0.61 -88.5 0 1 276.51 193.49
  L 283.54 193.49
  A 0.57 0.57 0.0 0 0 284.11 192.92
  L 284.11 188.92
  A 0.65 0.65 0.0 0 0 283.51 188.27
  L 282.72 188.21"
/>
<path stroke="#010f17" vector-effect="non-scaling-stroke" d="
  M 241.23 0.00
  Q 238.32 14.58 239.80 25.92
  C 242.66 47.76 251.37 69.31 261.67 88.59
  C 274.28 112.19 286.95 134.24 304.73 153.78"
/>
<path stroke="#020c1a" vector-effect="non-scaling-stroke" d="
  M 304.73 153.78
  Q 315.20 170.54 320.18 189.57"
/>
<path stroke="#808689" vector-effect="non-scaling-stroke" d="
  M 320.18 189.57
  C 316.36 187.71 311.66 188.26 307.54 188.22"
/>
<path stroke="#01141f" vector-effect="non-scaling-stroke" d="
  M 252.01 0.00
  Q 251.91 38.08 267.79 72.70
  Q 273.39 84.90 278.16 93.33
  Q 292.86 119.34 301.72 136.18"
/>
<path stroke="#020e1e" vector-effect="non-scaling-stroke" d="
  M 301.72 136.18
  Q 299.16 137.98 300.03 141.35
  Q 301.66 147.78 304.73 153.78"
/>
<path stroke="#011928" vector-effect="non-scaling-stroke" d="
  M 268.41 0.00
  C 270.04 25.02 273.73 46.82 282.45 70.24
  Q 293.32 99.44 307.47 126.89"
/>
<path stroke="#021022" vector-effect="non-scaling-stroke" d="
  M 307.47 126.89
  Q 305.60 132.52 301.72 136.18"
/>
<path stroke="#02223a" vector-effect="non-scaling-stroke" d="
  M 295.28 0.00
  Q 295.60 12.47 296.86 24.88
  Q 299.92 55.05 314.07 81.68"
/>
<path stroke="#05163a" vector-effect="non-scaling-stroke" d="
  M 314.07 81.68
  L 316.17 101.83"
/>
<path stroke="#031732" vector-effect="non-scaling-stroke" d="
  M 316.17 101.83
  L 308.19 93.65
  A 1.48 1.39 -49.1 0 0 306.02 93.87
  Q 305.63 94.40 305.79 95.85
  Q 306.43 101.60 309.42 113.03
  Q 310.48 117.06 313.20 132.23"
/>
<path stroke="#021327" vector-effect="non-scaling-stroke" d="
  M 313.20 132.23
  Q 309.82 130.38 307.47 126.89"
/>
<path stroke="#062a55" vector-effect="non-scaling-stroke" d="
  M 320.07 0.00
  Q 321.54 39.06 328.98 76.22
  Q 331.66 89.58 336.13 108.92"
/>
<path stroke="#081c51" vector-effect="non-scaling-stroke" d="
  M 336.13 108.92
  Q 334.08 115.71 334.04 123.02"
/>
<path stroke="#061d47" vector-effect="non-scaling-stroke" d="
  M 334.04 123.02
  Q 324.77 101.96 314.07 81.68"
/>
<path stroke="#063363" vector-effect="non-scaling-stroke" d="
  M 328.52 0.00
  C 329.59 16.43 331.21 33.31 335.15 49.04
  C 338.02 60.49 341.81 68.69 348.20 78.48
  Q 351.11 82.96 356.40 96.18"
/>
<path stroke="#0a2766" vector-effect="non-scaling-stroke" d="
  M 356.40 96.18
  Q 353.56 109.94 348.55 122.99"
/>
<path stroke="#0b1e60" vector-effect="non-scaling-stroke" d="
  M 348.55 122.99
  L 336.13 108.92"
/>
<path stroke="#074179" vector-effect="non-scaling-stroke" d="
  M 352.34 0.00
  Q 353.10 21.55 357.56 39.68
  Q 361.51 55.74 365.39 71.77"
/>
<path stroke="#0a3275" vector-effect="non-scaling-stroke" d="
  M 365.39 71.77
  L 361.67 98.73"
/>
<path stroke="#082d66" vector-effect="non-scaling-stroke" d="
  M 361.67 98.73
  L 356.40 96.18"
/>
<path stroke="#095294" vector-effect="non-scaling-stroke" d="
  M 372.04 0.00
  Q 374.73 26.82 376.62 35.47
  Q 378.43 43.72 384.27 63.67
  Q 388.09 76.71 389.92 95.21"
/>
<path stroke="#0f4097" vector-effect="non-scaling-stroke" d="
  M 389.92 95.21
  L 384.58 106.21"
/>
<path stroke="#0d3a8a" vector-effect="non-scaling-stroke" d="
  M 384.58 106.21
  C 376.84 94.84 371.47 83.46 365.39 71.77"
/>
<path stroke="#043050" vector-effect="non-scaling-stroke" d="
  M 398.74 0.00
  Q 399.52 0.15 400.00 0.45"
/>
<path stroke="#0d499d" vector-effect="non-scaling-stroke" d="
  M 400.00 96.62
  L 389.92 95.21"
/>
<path stroke="#123193" vector-effect="non-scaling-stroke" d="
  M 384.58 106.21
  L 391.43 157.43"
/>
<path stroke="#18219f" vector-effect="non-scaling-stroke" d="
  M 391.43 157.43
  L 390.19 164.74"
/>
<path stroke="#14208e" vector-effect="non-scaling-stroke" d="
  M 390.19 164.74
  C 388.67 161.74 385.93 155.75 381.48 158.05
  C 379.37 159.14 377.82 160.24 374.67 160.71"
/>
<path stroke="#141e83" vector-effect="non-scaling-stroke" d="
  M 374.67 160.71
  L 369.03 140.99"
/>
<path stroke="#0e2678" vector-effect="non-scaling-stroke" d="
  M 369.03 140.99
  Q 367.56 119.46 361.67 98.73"
/>
<path stroke="#0b1152" vector-effect="non-scaling-stroke" d="
  M 334.04 123.02
  Q 340.36 138.52 342.43 147.06
  C 345.58 160.12 346.78 173.41 347.79 186.75"
/>
<path stroke="#06123f" vector-effect="non-scaling-stroke" d="
  M 347.79 186.75
  Q 338.03 172.20 333.58 155.12
  C 328.20 134.50 322.62 119.46 316.17 101.83"
/>
<path stroke="#09124a" vector-effect="non-scaling-stroke" d="
  M 347.79 186.75
  L 350.15 188.23"
/>
<path stroke="#82899b" vector-effect="non-scaling-stroke" d="
  M 350.15 188.23
  C 344.81 188.11 338.62 187.39 334.01 190.62"
/>
<path stroke="#030f2c" vector-effect="non-scaling-stroke" d="
  M 334.01 190.62
  Q 327.05 160.00 313.20 132.23"
/>
<path stroke="#121975" vector-effect="non-scaling-stroke" d="
  M 369.03 140.99
  C 365.23 146.25 363.90 153.38 362.99 159.95"
/>
<path stroke="#0c1963" vector-effect="non-scaling-stroke" d="
  M 362.99 159.95
  C 356.41 145.71 352.20 136.55 348.55 122.99"
/>
<path stroke="#0a1f53" vector-effect="non-scaling-stroke" d="
  M 400.00 126.99
  Q 399.69 128.19 400.00 129.40"
/>
<path stroke="#0a1f53" vector-effect="non-scaling-stroke" d="
  M 400.00 134.24
  Q 399.69 135.07 400.00 135.65"
/>
<path stroke="#1a27ac" vector-effect="non-scaling-stroke" d="
  M 400.00 153.73
  L 391.43 157.43"
/>
<path stroke="#13106e" vector-effect="non-scaling-stroke" d="
  M 362.99 159.95
  Q 363.76 172.35 363.80 184.75
  Q 363.89 216.65 351.92 245.97"
/>
<path stroke="#190c58" vector-effect="non-scaling-stroke" d="
  M 351.92 245.97
  Q 346.60 241.14 343.30 234.43"
/>
<path stroke="#0e0d54" vector-effect="non-scaling-stroke" d="
  M 343.30 234.43
  C 347.12 220.77 350.34 206.93 351.35 192.73
  Q 351.42 191.68 351.05 191.27"
/>
<path stroke="#8687ad" vector-effect="non-scaling-stroke" d="
  M 351.05 191.27
  Q 351.26 187.75 350.15 188.23"
/>
<path stroke="#818490" vector-effect="non-scaling-stroke" d="
  M 334.01 190.62
  Q 330.79 193.30 330.31 197.02
  Q 329.95 199.87 330.29 205.00"
/>
<path stroke="#090726" vector-effect="non-scaling-stroke" d="
  M 330.29 205.00
  L 325.79 202.74"
/>
<path stroke="#818490" vector-effect="non-scaling-stroke" d="
  M 325.79 202.74
  C 325.80 196.87 325.71 192.65 320.18 189.57"
/>
<path stroke="#18128b" vector-effect="non-scaling-stroke" d="
  M 374.67 160.71
  Q 375.60 184.55 374.75 198.38
  C 373.31 221.85 368.98 241.67 363.42 266.91"
/>
<path stroke="#300f83" vector-effect="non-scaling-stroke" d="
  M 363.42 266.91
  L 346.87 266.69"
/>
<path stroke="#270b67" vector-effect="non-scaling-stroke" d="
  M 346.87 266.69
  L 347.95 258.77"
/>
<path stroke="#1e0c6a" vector-effect="non-scaling-stroke" d="
  M 347.95 258.77
  L 351.92 245.97"
/>
<path stroke="#1c15a6" vector-effect="non-scaling-stroke" d="
  M 390.19 164.74
  Q 392.08 200.67 385.33 236.14
  Q 381.81 254.66 377.72 273.01"
/>
<path stroke="#30118e" vector-effect="non-scaling-stroke" d="
  M 377.72 273.01
  Q 369.67 272.65 363.42 266.91"
/>
<path stroke="#110e5f" vector-effect="non-scaling-stroke" d="
  M 400.00 190.99
  Q 399.69 192.69 400.00 194.40"
/>
<path stroke="#110e5f" vector-effect="non-scaling-stroke" d="
  M 400.00 230.28
  L 400.00 234.61"
/>
<path stroke="#110e5f" vector-effect="non-scaling-stroke" d="
  M 400.00 237.23
  Q 399.67 237.86 400.00 237.89"
/>
<path stroke="#150b5c" vector-effect="non-scaling-stroke" d="
  M 400.00 239.99
  L 400.00 243.65"
/>
<path stroke="#110e5f" vector-effect="non-scaling-stroke" d="
  M 400.00 244.02
  L 400.00 252.61"
/>
<path stroke="#110e5f" vector-effect="non-scaling-stroke" d="
  M 400.00 253.01
  L 400.00 263.60"
/>
<path stroke="#1b0c64" vector-effect="non-scaling-stroke" d="
  M 400.00 264.98
  Q 399.69 265.80 400.00 265.89"
/>
<path stroke="#3814b0" vector-effect="non-scaling-stroke" d="
  M 400.00 297.14
  C 390.46 294.84 385.65 288.60 381.71 280.05"
/>
<path stroke="#34129f" vector-effect="non-scaling-stroke" d="
  M 381.71 280.05
  Q 380.81 275.76 377.72 273.01"
/>
<path stroke="#857f7f" vector-effect="non-scaling-stroke" d="
  M 192.66 191.29
  C 184.98 207.39 172.42 223.78 156.72 232.72
  C 152.62 235.05 145.27 236.87 142.55 232.00
  C 140.45 228.26 141.41 221.85 142.56 217.81
  A 0.06 0.06 0.0 0 1 142.68 217.82
  Q 142.91 221.23 142.94 221.88
  C 143.20 227.47 147.44 228.22 151.82 226.58
  C 161.41 222.98 171.20 212.09 177.06 203.31"
/>
<path stroke="#857f7f" vector-effect="non-scaling-stroke" d="
  M 86.34 205.79
  Q 80.14 212.72 70.49 212.98
  Q 60.06 213.25 56.00 213.10
  C 47.84 212.79 48.82 207.51 48.88 201.50"
/>
<path stroke="#857f7f" vector-effect="non-scaling-stroke" d="
  M 54.59 186.05
  L 54.53 205.33
  A 2.52 2.52 0.0 0 0 57.04 207.86
  L 69.08 207.90
  A 14.80 12.10 0.2 0 0 83.92 195.85
  L 83.92 195.73
  A 14.80 12.10 0.2 0 0 69.16 183.58
  L 57.12 183.54
  A 2.52 2.52 0.0 0 0 54.59 186.05"
/>
<path stroke="#857f7f" vector-effect="non-scaling-stroke" d="
  M 135.68 191.31
  Q 135.65 198.12 135.52 205.00
  Q 135.42 210.48 130.77 212.25
  Q 122.58 215.38 117.87 207.64
  Q 116.49 205.37 105.75 185.39
  C 104.34 182.78 100.62 182.97 100.34 186.51
  Q 100.29 187.10 100.28 212.76
  A 0.39 0.39 0.0 0 1 99.88 213.15
  L 94.19 212.91"
/>
<path stroke="#857f7f" vector-effect="non-scaling-stroke" d="
  M 176.62 200.17
  Q 176.33 200.82 175.92 201.22
  A 0.53 0.53 0.0 0 1 175.12 201.14
  Q 173.41 198.71 171.54 198.63
  Q 169.86 198.55 151.77 198.58
  Q 142.55 198.60 139.93 190.29"
/>
<path stroke="#857f7f" vector-effect="non-scaling-stroke" d="
  M 236.22 195.77
  Q 236.29 196.40 236.14 196.99
  A 0.70 0.69 7.7 0 1 235.47 197.50
  L 206.44 197.50
  A 0.57 0.56 90.0 0 0 205.88 198.07
  L 205.88 212.62
  A 0.52 0.52 0.0 0 1 205.36 213.14
  L 200.36 213.14
  A 0.55 0.55 0.0 0 1 199.81 212.59
  L 199.77 193.04"
/>
<path stroke="#857f7f" vector-effect="non-scaling-stroke" d="
  M 257.72 203.05
  C 258.00 206.19 260.10 207.61 262.97 207.83
  A 1.07 1.06 2.0 0 1 263.96 208.89
  L 263.96 212.23
  A 0.90 0.89 -88.5 0 1 263.02 213.13
  Q 253.63 212.68 251.62 204.23"
/>
<path stroke="#857f7f" vector-effect="non-scaling-stroke" d="
  M 285.16 212.58
  Q 281.22 214.09 276.63 212.42
  Q 269.58 209.84 269.66 201.97"
/>
<path stroke="#857f7f" vector-effect="non-scaling-stroke" d="
  M 240.32 195.69
  L 240.32 212.65
  A 0.46 0.46 0.0 0 0 240.78 213.11
  L 245.99 213.11
  A 0.47 0.47 0.0 0 0 246.46 212.64
  L 246.45 205.63"
/>
<path stroke="#857f7f" vector-effect="non-scaling-stroke" d="
  M 290.33 208.14
  C 293.54 213.03 298.41 213.28 304.05 213.16"
/>
<path stroke="#100108" vector-effect="non-scaling-stroke" d="
  M 304.05 213.16
  Q 295.74 222.76 284.97 229.21"
/>
<path stroke="#0f0001" vector-effect="non-scaling-stroke" d="
  M 284.97 229.21
  Q 266.69 229.92 248.44 231.14
  C 223.67 232.80 198.60 232.54 174.49 235.42
  C 153.57 237.93 137.75 246.65 116.36 256.63
  Q 105.34 261.78 90.70 266.36
  C 69.05 273.14 52.18 289.58 42.25 309.36
  Q 32.95 327.85 29.94 333.61
  Q 22.40 348.02 18.41 358.23
  Q 10.50 378.49 6.40 400.00"
/>
<path stroke="#857f7f" vector-effect="non-scaling-stroke" d="
  M 142.69 212.78
  A 0.34 0.34 0.0 0 0 143.03 213.12
  L 165.89 213.12
  A 0.34 0.34 0.0 0 0 166.13 213.02
  L 170.71 208.45
  A 0.34 0.34 0.0 0 0 170.47 207.87
  L 143.03 207.87
  A 0.34 0.34 0.0 0 0 142.69 208.21
  L 142.69 212.78"
/>
<path stroke="#1a0950" vector-effect="non-scaling-stroke" d="
  M 343.30 234.43
  L 325.75 253.58"
/>
<path stroke="#180741" vector-effect="non-scaling-stroke" d="
  M 325.75 253.58
  Q 325.55 245.23 323.70 237.19"
/>
<path stroke="#10063b" vector-effect="non-scaling-stroke" d="
  M 323.70 237.19
  L 331.01 213.39"
/>
<path stroke="#8784a5" vector-effect="non-scaling-stroke" d="
  M 331.01 213.39
  Q 333.61 212.87 335.72 213.14
  A 0.46 0.46 0.0 0 0 336.24 212.67
  Q 336.13 205.85 336.32 199.07
  Q 336.46 193.85 341.32 193.63
  Q 346.48 193.39 350.40 193.51
  A 0.59 0.59 0.0 0 0 351.01 192.94
  L 351.05 191.27"
/>
<path stroke="#888195" vector-effect="non-scaling-stroke" d="
  M 325.79 202.74
  Q 326.04 203.95 322.78 203.67"
/>
<path stroke="#808282" vector-effect="non-scaling-stroke" d="
  M 322.78 203.67
  L 296.29 203.62
  A 1.00 1.00 0.0 0 0 295.58 205.32
  L 297.23 206.96
  A 3.12 3.11 -22.4 0 0 299.43 207.87
  L 322.03 207.78"
/>
<path stroke="#888195" vector-effect="non-scaling-stroke" d="
  M 322.03 207.78
  Q 322.75 209.70 322.42 212.61
  A 0.57 0.56 -86.6 0 1 321.86 213.11
  L 315.43 213.12"
/>
<path stroke="#8c808e" vector-effect="non-scaling-stroke" d="
  M 315.43 213.12
  L 312.15 213.17"
/>
<path stroke="#8b8087" vector-effect="non-scaling-stroke" d="
  M 312.15 213.17
  L 304.05 213.16"
/>
<path stroke="#808282" vector-effect="non-scaling-stroke" d="
  M 295.07 198.37
  L 319.47 198.37
  A 0.12 0.12 0.0 0 0 319.59 198.25
  L 319.59 198.22
  A 5.88 4.73 -0.0 0 0 313.71 193.49
  L 300.83 193.49
  A 5.88 4.73 0.0 0 0 294.95 198.22
  L 294.95 198.25
  A 0.12 0.12 0.0 0 0 295.07 198.37"
/>
<path stroke="#888195" vector-effect="non-scaling-stroke" d="
  M 331.01 213.39
  Q 329.49 210.10 330.29 205.00"
/>
<path stroke="#180431" vector-effect="non-scaling-stroke" d="
  M 323.70 237.19
  L 317.94 242.04"
/>
<path stroke="#1c0327" vector-effect="non-scaling-stroke" d="
  M 317.94 242.04
  L 311.22 241.77"
/>
<path stroke="#140325" vector-effect="non-scaling-stroke" d="
  M 311.22 241.77
  Q 314.31 227.61 315.43 213.12"
/>
<path stroke="#090519" vector-effect="non-scaling-stroke" d="
  M 322.03 207.78
  Q 321.38 205.95 322.78 203.67"
/>
<path stroke="#170217" vector-effect="non-scaling-stroke" d="
  M 312.15 213.17
  Q 301.79 235.48 286.69 254.73"
/>
<path stroke="#1c010e" vector-effect="non-scaling-stroke" d="
  M 286.69 254.73
  C 274.18 258.54 262.63 259.84 250.04 256.25"
/>
<path stroke="#1a0109" vector-effect="non-scaling-stroke" d="
  M 250.04 256.25
  L 259.41 249.74"
/>
<path stroke="#150109" vector-effect="non-scaling-stroke" d="
  M 259.41 249.74
  Q 272.87 240.30 284.97 229.21"
/>
<path stroke="#200221" vector-effect="non-scaling-stroke" d="
  M 311.22 241.77
  Q 299.10 254.20 284.70 263.85"
/>
<path stroke="#1d0115" vector-effect="non-scaling-stroke" d="
  M 284.70 263.85
  L 286.69 254.73"
/>
<path stroke="#190001" vector-effect="non-scaling-stroke" d="
  M 259.41 249.74
  Q 244.88 249.31 231.94 253.35
  C 204.98 261.75 184.06 273.45 154.18 290.60
  Q 141.25 298.03 132.95 307.45
  Q 117.98 324.47 107.25 336.87
  Q 96.81 348.93 91.84 362.62
  Q 86.32 377.85 96.50 391.08
  Q 98.95 394.26 105.81 400.00"
/>
<path stroke="#2d0751" vector-effect="non-scaling-stroke" d="
  M 347.95 258.77
  C 340.45 264.58 332.91 269.01 323.25 269.41"
/>
<path stroke="#340649" vector-effect="non-scaling-stroke" d="
  M 323.25 269.41
  Q 321.60 266.33 321.06 262.68"
/>
<path stroke="#220646" vector-effect="non-scaling-stroke" d="
  M 321.06 262.68
  L 325.75 253.58"
/>
<path stroke="#32043a" vector-effect="non-scaling-stroke" d="
  M 321.06 262.68
  L 315.70 265.31"
/>
<path stroke="#2a0331" vector-effect="non-scaling-stroke" d="
  M 315.70 265.31
  L 304.94 261.58"
/>
<path stroke="#24032d" vector-effect="non-scaling-stroke" d="
  M 304.94 261.58
  L 317.94 242.04"
/>
<path stroke="#2e0227" vector-effect="non-scaling-stroke" d="
  M 304.94 261.58
  Q 292.11 276.10 276.77 288.05"
/>
<path stroke="#2e011e" vector-effect="non-scaling-stroke" d="
  M 276.77 288.05
  Q 269.22 285.77 261.28 286.17"
/>
<path stroke="#2a0119" vector-effect="non-scaling-stroke" d="
  M 261.28 286.17
  L 268.92 276.81"
/>
<path stroke="#250117" vector-effect="non-scaling-stroke" d="
  M 268.92 276.81
  L 284.70 263.85"
/>
<path stroke="#200006" vector-effect="non-scaling-stroke" d="
  M 250.04 256.25
  Q 236.78 261.02 224.18 266.81
  C 210.73 272.98 201.28 281.52 192.54 293.50"
/>
<path stroke="#230003" vector-effect="non-scaling-stroke" d="
  M 192.54 293.50
  Q 175.40 309.94 160.23 328.30
  C 146.53 344.89 137.37 360.80 138.79 383.13
  Q 139.33 391.61 140.79 400.00"
/>
<path stroke="#27000d" vector-effect="non-scaling-stroke" d="
  M 268.92 276.81
  C 256.55 275.74 246.86 276.76 237.10 282.08
  Q 226.76 287.72 215.17 295.87"
/>
<path stroke="#2a000a" vector-effect="non-scaling-stroke" d="
  M 215.17 295.87
  L 200.60 307.56"
/>
<path stroke="#250008" vector-effect="non-scaling-stroke" d="
  M 200.60 307.56
  Q 202.16 301.33 203.57 295.14
  Q 204.00 293.27 203.68 291.83
  A 1.91 1.90 74.0 0 0 201.17 290.43
  L 192.54 293.50"
/>
<path stroke="#3f0a6a" vector-effect="non-scaling-stroke" d="
  M 346.87 266.69
  L 342.03 284.62"
/>
<path stroke="#410653" vector-effect="non-scaling-stroke" d="
  M 342.03 284.62
  Q 330.10 287.54 318.78 292.55"
/>
<path stroke="#3d0546" vector-effect="non-scaling-stroke" d="
  M 318.78 292.55
  Q 318.33 280.70 323.25 269.41"
/>
<path stroke="#3c0334" vector-effect="non-scaling-stroke" d="
  M 315.70 265.31
  L 287.73 300.18"
/>
<path stroke="#3f022b" vector-effect="non-scaling-stroke" d="
  M 287.73 300.18
  Q 278.53 302.27 269.22 302.20"
/>
<path stroke="#350122" vector-effect="non-scaling-stroke" d="
  M 269.22 302.20
  L 276.77 288.05"
/>
<path stroke="#48054a" vector-effect="non-scaling-stroke" d="
  M 318.78 292.55
  L 316.69 305.19"
/>
<path stroke="#4d033c" vector-effect="non-scaling-stroke" d="
  M 316.69 305.19
  Q 304.20 307.76 291.51 305.68"
/>
<path stroke="#470234" vector-effect="non-scaling-stroke" d="
  M 291.51 305.68
  Q 290.27 302.54 287.73 300.18"
/>
<path stroke="#4c1097" vector-effect="non-scaling-stroke" d="
  M 381.71 280.05
  Q 375.06 291.41 372.71 304.56"
/>
<path stroke="#560d8a" vector-effect="non-scaling-stroke" d="
  M 372.71 304.56
  L 355.80 302.89"
/>
<path stroke="#560973" vector-effect="non-scaling-stroke" d="
  M 355.80 302.89
  Q 353.18 300.24 349.58 298.93"
/>
<path stroke="#4a0a6f" vector-effect="non-scaling-stroke" d="
  M 349.58 298.93
  L 342.03 284.62"
/>
<path stroke="#310014" vector-effect="non-scaling-stroke" d="
  M 261.28 286.17
  Q 250.08 294.31 240.51 304.27"
/>
<path stroke="#33000f" vector-effect="non-scaling-stroke" d="
  M 240.51 304.27
  L 222.01 313.80"
/>
<path stroke="#2f000c" vector-effect="non-scaling-stroke" d="
  M 222.01 313.80
  C 217.46 308.05 223.02 300.96 215.17 295.87"
/>
<path stroke="#6012ab" vector-effect="non-scaling-stroke" d="
  M 400.00 312.39
  L 399.65 313.85
  A 0.69 0.69 0.0 0 1 399.04 314.37
  L 383.71 315.54"
/>
<path stroke="#59109b" vector-effect="non-scaling-stroke" d="
  M 383.71 315.54
  L 372.71 304.56"
/>
<path stroke="#2d0006" vector-effect="non-scaling-stroke" d="
  M 200.60 307.56
  Q 190.87 321.64 181.61 336.12
  Q 177.29 342.90 173.69 350.08
  C 165.52 366.37 165.85 382.19 168.81 400.00"
/>
<path stroke="#400122" vector-effect="non-scaling-stroke" d="
  M 269.22 302.20
  L 256.03 311.41"
/>
<path stroke="#380014" vector-effect="non-scaling-stroke" d="
  M 256.03 311.41
  Q 251.01 313.42 245.92 313.95
  C 240.56 314.50 240.38 308.22 240.51 304.27"
/>
<path stroke="#58065b" vector-effect="non-scaling-stroke" d="
  M 349.58 298.93
  Q 337.54 310.17 322.50 316.97"
/>
<path stroke="#510449" vector-effect="non-scaling-stroke" d="
  M 322.50 316.97
  L 316.69 305.19"
/>
<path stroke="#36000b" vector-effect="non-scaling-stroke" d="
  M 222.01 313.80
  Q 210.72 333.62 206.14 341.19
  C 198.20 354.32 191.66 367.82 190.31 382.23
  Q 189.59 389.94 190.31 400.00"
/>
<path stroke="#630977" vector-effect="non-scaling-stroke" d="
  M 355.80 302.89
  L 348.83 317.17"
/>
<path stroke="#6e0874" vector-effect="non-scaling-stroke" d="
  M 348.83 317.17
  Q 346.03 325.18 346.13 333.54"
/>
<path stroke="#750566" vector-effect="non-scaling-stroke" d="
  M 346.13 333.54
  Q 341.47 337.14 335.76 338.31"
/>
<path stroke="#6f0459" vector-effect="non-scaling-stroke" d="
  M 335.76 338.31
  C 331.23 332.06 325.14 330.93 317.86 332.02"
/>
<path stroke="#6d0352" vector-effect="non-scaling-stroke" d="
  M 317.86 332.02
  Q 315.62 329.42 316.34 325.41"
/>
<path stroke="#5d044d" vector-effect="non-scaling-stroke" d="
  M 316.34 325.41
  L 322.50 316.97"
/>
<path stroke="#500232" vector-effect="non-scaling-stroke" d="
  M 291.51 305.68
  L 276.69 333.24"
/>
<path stroke="#500126" vector-effect="non-scaling-stroke" d="
  M 276.69 333.24
  Q 272.50 336.30 267.37 338.63
  A 2.62 2.61 60.5 0 1 264.15 337.73
  C 262.40 335.22 266.19 327.71 265.78 323.78
  A 0.86 0.86 0.0 0 0 264.56 323.09
  Q 262.99 323.81 261.22 325.64
  C 254.13 332.96 246.15 342.94 238.54 351.46"
/>
<path stroke="#42011c" vector-effect="non-scaling-stroke" d="
  M 238.54 351.46
  Q 244.88 330.52 256.03 311.41"
/>
<path stroke="#6a0f9e" vector-effect="non-scaling-stroke" d="
  M 383.71 315.54
  Q 378.02 319.16 373.33 323.84"
/>
<path stroke="#6e0c8c" vector-effect="non-scaling-stroke" d="
  M 373.33 323.84
  Q 360.44 322.49 348.83 317.17"
/>
<path stroke="#66023f" vector-effect="non-scaling-stroke" d="
  M 316.34 325.41
  L 296.93 342.47"
/>
<path stroke="#5e0237" vector-effect="non-scaling-stroke" d="
  M 296.93 342.47
  Q 290.41 341.24 284.06 343.31"
/>
<path stroke="#56022e" vector-effect="non-scaling-stroke" d="
  M 284.06 343.31
  C 283.02 338.52 281.97 334.48 276.69 333.24"
/>
<path stroke="#480118" vector-effect="non-scaling-stroke" d="
  M 238.54 351.46
  Q 229.27 374.89 228.91 400.00"
/>
<path stroke="#5d012b" vector-effect="non-scaling-stroke" d="
  M 284.06 343.31
  Q 272.51 360.01 267.56 378.81
  Q 265.11 388.12 263.40 400.00"
/>
<path stroke="#7e10ac" vector-effect="non-scaling-stroke" d="
  M 400.00 325.46
  C 393.04 327.50 387.24 327.10 379.70 326.23"
/>
<path stroke="#750e9c" vector-effect="non-scaling-stroke" d="
  M 379.70 326.23
  L 373.33 323.84"
/>
<path stroke="#820c99" vector-effect="non-scaling-stroke" d="
  M 379.70 326.23
  Q 378.20 332.77 375.19 338.61"
/>
<path stroke="#880987" vector-effect="non-scaling-stroke" d="
  M 375.19 338.61
  Q 368.15 339.81 361.02 338.39"
/>
<path stroke="#80087b" vector-effect="non-scaling-stroke" d="
  M 361.02 338.39
  Q 354.29 333.70 346.13 333.54"
/>
<path stroke="#78024b" vector-effect="non-scaling-stroke" d="
  M 317.86 332.02
  C 307.80 353.09 302.08 376.58 298.18 400.00"
/>
<path stroke="#6e013c" vector-effect="non-scaling-stroke" d="
  M 288.76 400.00
  Q 290.43 389.40 295.35 364.24
  Q 297.22 354.71 296.93 342.47"
/>
<path stroke="#81045f" vector-effect="non-scaling-stroke" d="
  M 335.76 338.31
  Q 331.19 346.03 328.51 354.81"
/>
<path stroke="#840256" vector-effect="non-scaling-stroke" d="
  M 328.51 354.81
  Q 319.42 365.99 317.31 369.67
  C 311.92 379.04 308.86 389.61 306.13 400.00"
/>
<path stroke="#9a0ca3" vector-effect="non-scaling-stroke" d="
  M 400.00 344.94
  Q 394.27 347.16 387.89 344.54
  Q 385.49 343.56 381.60 344.22"
/>
<path stroke="#910b97" vector-effect="non-scaling-stroke" d="
  M 381.60 344.22
  L 375.19 338.61"
/>
<path stroke="#8f0678" vector-effect="non-scaling-stroke" d="
  M 361.02 338.39
  L 347.53 355.48"
/>
<path stroke="#92046c" vector-effect="non-scaling-stroke" d="
  M 347.53 355.48
  L 334.32 368.58"
/>
<path stroke="#8a0363" vector-effect="non-scaling-stroke" d="
  M 334.32 368.58
  Q 333.10 360.68 328.51 354.81"
/>
<path stroke="#a00890" vector-effect="non-scaling-stroke" d="
  M 381.60 344.22
  Q 373.55 353.24 364.28 361.11"
/>
<path stroke="#a30581" vector-effect="non-scaling-stroke" d="
  M 364.28 361.11
  L 355.04 365.07"
/>
<path stroke="#9a0578" vector-effect="non-scaling-stroke" d="
  M 355.04 365.07
  Q 351.99 359.63 347.53 355.48"
/>
<path stroke="#b8079a" vector-effect="non-scaling-stroke" d="
  M 400.00 358.84
  Q 392.67 363.27 384.24 365.00"
/>
<path stroke="#ad068d" vector-effect="non-scaling-stroke" d="
  M 384.24 365.00
  L 364.28 361.11"
/>
<path stroke="#950262" vector-effect="non-scaling-stroke" d="
  M 334.32 368.58
  Q 333.35 384.28 330.57 400.00"
/>
<path stroke="#a70374" vector-effect="non-scaling-stroke" d="
  M 355.04 365.07
  C 348.58 376.21 345.58 387.42 343.11 400.00"
/>
<path stroke="#68034c" vector-effect="non-scaling-stroke" d="
  M 400.00 363.26
  L 400.00 371.90"
/>
<path stroke="#68034c" vector-effect="non-scaling-stroke" d="
  M 400.00 372.49
  L 400.00 382.86"
/>
<path stroke="#68034c" vector-effect="non-scaling-stroke" d="
  M 400.00 398.66
  L 399.58 400.00"
/>
<path stroke="#bb048a" vector-effect="non-scaling-stroke" d="
  M 368.17 400.00
  Q 369.05 389.75 370.87 383.62
  C 373.22 375.68 378.19 370.33 384.24 365.00"
/>
</g>
<path fill="#000000" d="
  M 163.04 0.00
  Q 161.29 11.02 161.41 19.61
  C 161.59 32.39 166.25 43.98 172.08 56.49
  Q 184.28 82.67 190.51 94.63
  C 197.05 107.20 204.99 117.57 217.08 123.31
  Q 232.39 130.59 241.06 134.78
  C 264.53 146.12 277.52 163.06 282.72 188.21
  L 276.46 188.22
  A 0.58 0.58 0.0 0 1 275.88 187.64
  L 275.88 181.53
  A 0.46 0.46 0.0 0 0 275.42 181.07
  L 270.21 181.07
  A 0.47 0.46 90.0 0 0 269.75 181.54
  L 269.75 187.73
  A 0.56 0.56 0.0 0 1 269.19 188.29
  L 267.58 188.29
  A 0.52 0.52 0.0 0 0 267.06 188.81
  L 267.06 192.94
  A 0.56 0.55 -90.0 0 0 267.61 193.50
  L 269.10 193.50
  A 0.58 0.58 0.0 0 1 269.68 194.08
  L 269.66 201.97
  L 257.72 203.05
  L 257.69 178.80
  A 0.47 0.47 0.0 0 0 257.22 178.33
  L 252.07 178.33
  A 0.45 0.44 -0.0 0 0 251.62 178.77
  L 251.62 204.23
  Q 249.08 203.61 246.45 205.63
  L 246.44 188.72
  A 0.47 0.46 -90.0 0 0 245.98 188.25
  L 240.77 188.26
  A 0.47 0.47 0.0 0 0 240.30 188.73
  L 240.32 195.69
  Q 238.32 196.22 236.22 195.77
  L 236.10 192.78
  A 0.57 0.57 0.0 0 0 235.53 192.24
  L 206.33 192.24
  A 0.45 0.45 0.0 0 1 205.88 191.82
  C 205.60 188.36 206.30 183.65 210.91 183.61
  Q 221.00 183.52 235.72 183.59
  A 0.45 0.44 -0.0 0 0 236.17 183.15
  L 236.17 178.74
  A 0.46 0.46 0.0 0 0 235.71 178.28
  Q 219.94 178.37 212.97 178.29
  Q 207.99 178.23 205.71 179.44
  C 199.77 182.60 199.74 186.82 199.77 193.04
  Q 196.65 189.93 192.66 191.29
  C 195.50 185.07 200.28 172.59 195.18 166.54
  Q 193.83 164.94 190.87 164.94
  C 184.73 164.93 180.61 167.85 175.79 171.08
  A 0.12 0.11 57.8 0 0 175.76 171.24
  A 0.12 0.12 0.0 0 0 175.92 171.28
  C 179.31 169.38 186.74 165.92 188.66 171.86
  C 191.48 180.62 182.18 196.40 177.06 203.31
  L 176.62 200.17
  L 178.57 196.87
  A 0.50 0.50 0.0 0 0 178.46 196.24
  C 175.71 193.97 173.04 193.20 169.26 193.24
  Q 167.16 193.27 151.06 193.22
  C 144.52 193.20 144.47 183.64 151.06 183.60
  Q 165.91 183.52 178.33 183.59
  A 0.32 0.32 0.0 0 0 178.65 183.27
  L 178.65 178.62
  A 0.28 0.27 -90.0 0 0 178.38 178.34
  Q 164.62 178.25 151.02 178.35
  C 144.33 178.40 139.03 183.37 139.93 190.29
  L 135.68 191.31
  L 135.68 178.80
  A 0.50 0.50 0.0 0 0 135.18 178.30
  L 130.04 178.30
  A 0.48 0.48 0.0 0 0 129.56 178.78
  Q 129.51 198.98 129.56 203.42
  Q 129.59 205.92 129.19 206.51
  C 127.83 208.50 125.18 208.06 124.14 206.12
  Q 118.44 195.52 111.92 183.71
  Q 108.74 177.94 102.29 178.39
  Q 97.64 178.72 95.45 182.01
  Q 94.15 183.96 94.16 189.74
  Q 94.17 200.93 94.19 212.91
  Q 92.95 209.67 92.11 207.46
  Q 90.56 203.37 86.34 205.79
  C 96.30 193.17 84.71 178.68 70.94 178.40
  Q 61.19 178.19 55.99 178.36
  C 52.80 178.46 49.17 179.56 49.06 183.50
  Q 48.81 192.50 48.88 201.50
  L 48.66 199.23
  A 0.86 0.86 0.0 0 0 48.19 198.55
  C 40.48 194.76 33.07 197.10 25.72 200.33
  Q 11.65 206.50 0.00 210.83
  L 0.00 0.00
  L 163.04 0.00
  Z
  M 246.4662 178.8746
  A 0.56 0.56 0.0 0 0 245.9053 178.3156
  L 240.8853 178.3244
  A 0.56 0.56 0.0 0 0 240.3263 178.8854
  L 240.3338 183.1854
  A 0.56 0.56 0.0 0 0 240.8947 183.7444
  L 245.9147 183.7356
  A 0.56 0.56 0.0 0 0 246.4737 183.1746
  L 246.4662 178.8746
  Z"
/>
<path fill="#010606" d="
  M 206.48 0.00
  Q 202.34 20.17 208.82 40.44
  C 217.61 67.95 231.29 92.15 248.69 114.08
  C 256.74 124.22 271.76 140.43 281.55 155.04
  C 289.39 166.74 298.49 177.46 307.54 188.22
  C 303.45 188.20 298.41 187.78 294.96 189.37
  Q 289.05 192.09 288.79 199.74
  Q 288.62 204.71 290.33 208.14
  Q 286.88 209.16 285.16 212.58
  L 285.10 208.53
  A 0.57 0.56 89.5 0 0 284.54 207.97
  C 280.60 207.92 276.05 208.03 275.92 202.67
  Q 275.76 196.46 275.90 194.08
  A 0.62 0.61 -88.5 0 1 276.51 193.49
  L 283.54 193.49
  A 0.57 0.57 0.0 0 0 284.11 192.92
  L 284.11 188.92
  A 0.65 0.65 0.0 0 0 283.51 188.27
  L 282.72 188.21
  C 277.52 163.06 264.53 146.12 241.06 134.78
  Q 232.39 130.59 217.08 123.31
  C 204.99 117.57 197.05 107.20 190.51 94.63
  Q 184.28 82.67 172.08 56.49
  C 166.25 43.98 161.59 32.39 161.41 19.61
  Q 161.29 11.02 163.04 0.00
  L 206.48 0.00
  Z"
/>
<path fill="#010d13" d="
  M 241.23 0.00
  Q 238.32 14.58 239.80 25.92
  C 242.66 47.76 251.37 69.31 261.67 88.59
  C 274.28 112.19 286.95 134.24 304.73 153.78
  Q 315.20 170.54 320.18 189.57
  C 316.36 187.71 311.66 188.26 307.54 188.22
  C 298.49 177.46 289.39 166.74 281.55 155.04
  C 271.76 140.43 256.74 124.22 248.69 114.08
  C 231.29 92.15 217.61 67.95 208.82 40.44
  Q 202.34 20.17 206.48 0.00
  L 241.23 0.00
  Z"
/>
<path fill="#01111a" d="
  M 252.01 0.00
  Q 251.91 38.08 267.79 72.70
  Q 273.39 84.90 278.16 93.33
  Q 292.86 119.34 301.72 136.18
  Q 299.16 137.98 300.03 141.35
  Q 301.66 147.78 304.73 153.78
  C 286.95 134.24 274.28 112.19 261.67 88.59
  C 251.37 69.31 242.66 47.76 239.80 25.92
  Q 238.32 14.58 241.23 0.00
  L 252.01 0.00
  Z"
/>
<path fill="#011623" d="
  M 268.41 0.00
  C 270.04 25.02 273.73 46.82 282.45 70.24
  Q 293.32 99.44 307.47 126.89
  Q 305.60 132.52 301.72 136.18
  Q 292.86 119.34 278.16 93.33
  Q 273.39 84.90 267.79 72.70
  Q 251.91 38.08 252.01 0.00
  L 268.41 0.00
  Z"
/>
<path fill="#011b2d" d="
  M 295.28 0.00
  Q 295.60 12.47 296.86 24.88
  Q 299.92 55.05 314.07 81.68
  L 316.17 101.83
  L 308.19 93.65
  A 1.48 1.39 -49.1 0 0 306.02 93.87
  Q 305.63 94.40 305.79 95.85
  Q 306.43 101.60 309.42 113.03
  Q 310.48 117.06 313.20 132.23
  Q 309.82 130.38 307.47 126.89
  Q 293.32 99.44 282.45 70.24
  C 273.73 46.82 270.04 25.02 268.41 0.00
  L 295.28 0.00
  Z"
/>
<path fill="#032846" d="
  M 320.07 0.00
  Q 321.54 39.06 328.98 76.22
  Q 331.66 89.58 336.13 108.92
  Q 334.08 115.71 334.04 123.02
  Q 324.77 101.96 314.07 81.68
  Q 299.92 55.05 296.86 24.88
  Q 295.60 12.47 295.28 0.00
  L 320.07 0.00
  Z"
/>
<path fill="#082c63" d="
  M 328.52 0.00
  C 329.59 16.43 331.21 33.31 335.15 49.04
  C 338.02 60.49 341.81 68.69 348.20 78.48
  Q 351.11 82.96 356.40 96.18
  Q 353.56 109.94 348.55 122.99
  L 336.13 108.92
  Q 331.66 89.58 328.98 76.22
  Q 321.54 39.06 320.07 0.00
  L 328.52 0.00
  Z"
/>
<path fill="#043963" d="
  M 352.34 0.00
  Q 353.10 21.55 357.56 39.68
  Q 361.51 55.74 365.39 71.77
  L 361.67 98.73
  L 356.40 96.18
  Q 351.11 82.96 348.20 78.48
  C 341.81 68.69 338.02 60.49 335.15 49.04
  C 331.21 33.31 329.59 16.43 328.52 0.00
  L 352.34 0.00
  Z"
/>
<path fill="#0a498e" d="
  M 372.04 0.00
  Q 374.73 26.82 376.62 35.47
  Q 378.43 43.72 384.27 63.67
  Q 388.09 76.71 389.92 95.21
  L 384.58 106.21
  C 376.84 94.84 371.47 83.46 365.39 71.77
  Q 361.51 55.74 357.56 39.68
  Q 353.10 21.55 352.34 0.00
  L 372.04 0.00
  Z"
/>
<path fill="#075a9a" d="
  M 398.74 0.00
  Q 399.52 0.15 400.00 0.45
  L 400.00 96.62
  L 389.92 95.21
  Q 388.09 76.71 384.27 63.67
  Q 378.43 43.72 376.62 35.47
  Q 374.73 26.82 372.04 0.00
  L 398.74 0.00
  Z"
/>
<path fill="#010606" d="
  M 400.00 0.00
  L 400.00 0.45
  Q 399.52 0.15 398.74 0.00
  L 400.00 0.00
  Z"
/>
<path fill="#102b86" d="
  M 365.39 71.77
  C 371.47 83.46 376.84 94.84 384.58 106.21
  L 391.43 157.43
  L 390.19 164.74
  C 388.67 161.74 385.93 155.75 381.48 158.05
  C 379.37 159.14 377.82 160.24 374.67 160.71
  L 369.03 140.99
  Q 367.56 119.46 361.67 98.73
  L 365.39 71.77
  Z"
/>
<path fill="#081147" d="
  M 334.04 123.02
  Q 340.36 138.52 342.43 147.06
  C 345.58 160.12 346.78 173.41 347.79 186.75
  Q 338.03 172.20 333.58 155.12
  C 328.20 134.50 322.62 119.46 316.17 101.83
  L 314.07 81.68
  Q 324.77 101.96 334.04 123.02
  Z"
/>
<path fill="#041337" d="
  M 316.17 101.83
  C 322.62 119.46 328.20 134.50 333.58 155.12
  Q 338.03 172.20 347.79 186.75
  L 350.15 188.23
  C 344.81 188.11 338.62 187.39 334.01 190.62
  Q 327.05 160.00 313.20 132.23
  Q 310.48 117.06 309.42 113.03
  Q 306.43 101.60 305.79 95.85
  Q 305.63 94.40 306.02 93.87
  A 1.48 1.39 -49.1 0 1 308.19 93.65
  L 316.17 101.83
  Z"
/>
<path fill="#0b2169" d="
  M 361.67 98.73
  Q 367.56 119.46 369.03 140.99
  C 365.23 146.25 363.90 153.38 362.99 159.95
  C 356.41 145.71 352.20 136.55 348.55 122.99
  Q 353.56 109.94 356.40 96.18
  L 361.67 98.73
  Z"
/>
<path fill="#1337a0" d="
  M 400.00 96.62
  L 400.00 126.99
  Q 399.69 128.19 400.00 129.40
  L 400.00 134.24
  Q 399.69 135.07 400.00 135.65
  L 400.00 153.73
  L 391.43 157.43
  L 384.58 106.21
  L 389.92 95.21
  L 400.00 96.62
  Z"
/>
<path fill="#0d105c" d="
  M 336.13 108.92
  L 348.55 122.99
  C 352.20 136.55 356.41 145.71 362.99 159.95
  Q 363.76 172.35 363.80 184.75
  Q 363.89 216.65 351.92 245.97
  Q 346.60 241.14 343.30 234.43
  C 347.12 220.77 350.34 206.93 351.35 192.73
  Q 351.42 191.68 351.05 191.27
  Q 351.26 187.75 350.15 188.23
  L 347.79 186.75
  C 346.78 173.41 345.58 160.12 342.43 147.06
  Q 340.36 138.52 334.04 123.02
  Q 334.08 115.71 336.13 108.92
  Z"
/>
<path fill="#020a21" d="
  M 313.20 132.23
  Q 327.05 160.00 334.01 190.62
  Q 330.79 193.30 330.31 197.02
  Q 329.95 199.87 330.29 205.00
  L 325.79 202.74
  C 325.80 196.87 325.71 192.65 320.18 189.57
  Q 315.20 170.54 304.73 153.78
  Q 301.66 147.78 300.03 141.35
  Q 299.16 137.98 301.72 136.18
  Q 305.60 132.52 307.47 126.89
  Q 309.82 130.38 313.20 132.23
  Z"
/>
<path fill="#010606" d="
  M 400.00 126.99
  L 400.00 129.40
  Q 399.69 128.19 400.00 126.99
  Z"
/>
<path fill="#181080" d="
  M 369.03 140.99
  L 374.67 160.71
  Q 375.60 184.55 374.75 198.38
  C 373.31 221.85 368.98 241.67 363.42 266.91
  L 346.87 266.69
  L 347.95 258.77
  L 351.92 245.97
  Q 363.89 216.65 363.80 184.75
  Q 363.76 172.35 362.99 159.95
  C 363.90 153.38 365.23 146.25 369.03 140.99
  Z"
/>
<path fill="#010606" d="
  M 400.00 134.24
  L 400.00 135.65
  Q 399.69 135.07 400.00 134.24
  Z"
/>
<path fill="#181495" d="
  M 390.19 164.74
  Q 392.08 200.67 385.33 236.14
  Q 381.81 254.66 377.72 273.01
  Q 369.67 272.65 363.42 266.91
  C 368.98 241.67 373.31 221.85 374.75 198.38
  Q 375.60 184.55 374.67 160.71
  C 377.82 160.24 379.37 159.14 381.48 158.05
  C 385.93 155.75 388.67 161.74 390.19 164.74
  Z"
/>
<path fill="#2016b7" d="
  M 400.00 153.73
  L 400.00 190.99
  Q 399.69 192.69 400.00 194.40
  L 400.00 230.28
  L 400.00 234.61
  L 400.00 237.23
  Q 399.67 237.86 400.00 237.89
  L 400.00 239.99
  L 400.00 243.65
  Q 399.99 243.84 400.00 244.02
  L 400.00 252.61
  Q 399.98 252.81 400.00 253.01
  L 400.00 263.60
  L 400.00 264.98
  Q 399.69 265.80 400.00 265.89
  L 400.00 297.14
  C 390.46 294.84 385.65 288.60 381.71 280.05
  Q 380.81 275.76 377.72 273.01
  Q 381.81 254.66 385.33 236.14
  Q 392.08 200.67 390.19 164.74
  L 391.43 157.43
  L 400.00 153.73
  Z"
/>
<path fill="#fffefe" d="
  M 192.66 191.29
  C 184.98 207.39 172.42 223.78 156.72 232.72
  C 152.62 235.05 145.27 236.87 142.55 232.00
  C 140.45 228.26 141.41 221.85 142.56 217.81
  A 0.06 0.06 0.0 0 1 142.68 217.82
  Q 142.91 221.23 142.94 221.88
  C 143.20 227.47 147.44 228.22 151.82 226.58
  C 161.41 222.98 171.20 212.09 177.06 203.31
  C 182.18 196.40 191.48 180.62 188.66 171.86
  C 186.74 165.92 179.31 169.38 175.92 171.28
  A 0.12 0.12 0.0 0 1 175.76 171.24
  A 0.12 0.11 57.8 0 1 175.79 171.08
  C 180.61 167.85 184.73 164.93 190.87 164.94
  Q 193.83 164.94 195.18 166.54
  C 200.28 172.59 195.50 185.07 192.66 191.29
  Z"
/>
<path fill="#fffefe" d="
  M 86.34 205.79
  Q 80.14 212.72 70.49 212.98
  Q 60.06 213.25 56.00 213.10
  C 47.84 212.79 48.82 207.51 48.88 201.50
  Q 48.81 192.50 49.06 183.50
  C 49.17 179.56 52.80 178.46 55.99 178.36
  Q 61.19 178.19 70.94 178.40
  C 84.71 178.68 96.30 193.17 86.34 205.79
  Z
  M 54.59 186.05
  L 54.53 205.33
  A 2.52 2.52 0.0 0 0 57.04 207.86
  L 69.08 207.90
  A 14.80 12.10 0.2 0 0 83.92 195.85
  L 83.92 195.73
  A 14.80 12.10 0.2 0 0 69.16 183.58
  L 57.12 183.54
  A 2.52 2.52 0.0 0 0 54.59 186.05
  Z"
/>
<path fill="#fffefe" d="
  M 135.68 191.31
  Q 135.65 198.12 135.52 205.00
  Q 135.42 210.48 130.77 212.25
  Q 122.58 215.38 117.87 207.64
  Q 116.49 205.37 105.75 185.39
  C 104.34 182.78 100.62 182.97 100.34 186.51
  Q 100.29 187.10 100.28 212.76
  A 0.39 0.39 0.0 0 1 99.88 213.15
  L 94.19 212.91
  Q 94.17 200.93 94.16 189.74
  Q 94.15 183.96 95.45 182.01
  Q 97.64 178.72 102.29 178.39
  Q 108.74 177.94 111.92 183.71
  Q 118.44 195.52 124.14 206.12
  C 125.18 208.06 127.83 208.50 129.19 206.51
  Q 129.59 205.92 129.56 203.42
  Q 129.51 198.98 129.56 178.78
  A 0.48 0.48 0.0 0 1 130.04 178.30
  L 135.18 178.30
  A 0.50 0.50 0.0 0 1 135.68 178.80
  L 135.68 191.31
  Z"
/>
<path fill="#fffefe" d="
  M 176.62 200.17
  Q 176.33 200.82 175.92 201.22
  A 0.53 0.53 0.0 0 1 175.12 201.14
  Q 173.41 198.71 171.54 198.63
  Q 169.86 198.55 151.77 198.58
  Q 142.55 198.60 139.93 190.29
  C 139.03 183.37 144.33 178.40 151.02 178.35
  Q 164.62 178.25 178.38 178.34
  A 0.28 0.27 -90.0 0 1 178.65 178.62
  L 178.65 183.27
  A 0.32 0.32 0.0 0 1 178.33 183.59
  Q 165.91 183.52 151.06 183.60
  C 144.47 183.64 144.52 193.20 151.06 193.22
  Q 167.16 193.27 169.26 193.24
  C 173.04 193.20 175.71 193.97 178.46 196.24
  A 0.50 0.50 0.0 0 1 178.57 196.87
  L 176.62 200.17
  Z"
/>
<path fill="#fffefe" d="
  M 236.22 195.77
  Q 236.29 196.40 236.14 196.99
  A 0.70 0.69 7.7 0 1 235.47 197.50
  L 206.44 197.50
  A 0.57 0.56 90.0 0 0 205.88 198.07
  L 205.88 212.62
  A 0.52 0.52 0.0 0 1 205.36 213.14
  L 200.36 213.14
  A 0.55 0.55 0.0 0 1 199.81 212.59
  L 199.77 193.04
  C 199.74 186.82 199.77 182.60 205.71 179.44
  Q 207.99 178.23 212.97 178.29
  Q 219.94 178.37 235.71 178.28
  A 0.46 0.46 0.0 0 1 236.17 178.74
  L 236.17 183.15
  A 0.45 0.44 -0.0 0 1 235.72 183.59
  Q 221.00 183.52 210.91 183.61
  C 206.30 183.65 205.60 188.36 205.88 191.82
  A 0.45 0.45 0.0 0 0 206.33 192.24
  L 235.53 192.24
  A 0.57 0.57 0.0 0 1 236.10 192.78
  L 236.22 195.77
  Z"
/>
<rect fill="#fffefe" x="-3.07" y="-2.71" transform="translate(243.40,181.03) rotate(-0.1)" width="6.14" height="5.42" rx="0.56"/>
<path fill="#fffefe" d="
  M 257.72 203.05
  C 258.00 206.19 260.10 207.61 262.97 207.83
  A 1.07 1.06 2.0 0 1 263.96 208.89
  L 263.96 212.23
  A 0.90 0.89 -88.5 0 1 263.02 213.13
  Q 253.63 212.68 251.62 204.23
  L 251.62 178.77
  A 0.45 0.44 -0.0 0 1 252.07 178.33
  L 257.22 178.33
  A 0.47 0.47 0.0 0 1 257.69 178.80
  L 257.72 203.05
  Z"
/>
<path fill="#fffefe" d="
  M 282.72 188.21
  L 283.51 188.27
  A 0.65 0.65 0.0 0 1 284.11 188.92
  L 284.11 192.92
  A 0.57 0.57 0.0 0 1 283.54 193.49
  L 276.51 193.49
  A 0.62 0.61 -88.5 0 0 275.90 194.08
  Q 275.76 196.46 275.92 202.67
  C 276.05 208.03 280.60 207.92 284.54 207.97
  A 0.57 0.56 89.5 0 1 285.10 208.53
  L 285.16 212.58
  Q 281.22 214.09 276.63 212.42
  Q 269.58 209.84 269.66 201.97
  L 269.68 194.08
  A 0.58 0.58 0.0 0 0 269.10 193.50
  L 267.61 193.50
  A 0.56 0.55 90.0 0 1 267.06 192.94
  L 267.06 188.81
  A 0.52 0.52 0.0 0 1 267.58 188.29
  L 269.19 188.29
  A 0.56 0.56 0.0 0 0 269.75 187.73
  L 269.75 181.54
  A 0.47 0.46 90.0 0 1 270.21 181.07
  L 275.42 181.07
  A 0.46 0.46 0.0 0 1 275.88 181.53
  L 275.88 187.64
  A 0.58 0.58 0.0 0 0 276.46 188.22
  L 282.72 188.21
  Z"
/>
<path fill="#0a0000" d="
  M 54.59 186.05
  A 2.52 2.52 0.0 0 1 57.12 183.54
  L 69.16 183.58
  A 14.80 12.10 0.2 0 1 83.92 195.73
  L 83.92 195.85
  A 14.80 12.10 0.2 0 1 69.08 207.90
  L 57.04 207.86
  A 2.52 2.52 0.0 0 1 54.53 205.33
  L 54.59 186.05
  Z"
/>
<path fill="#0a0000" d="
  M 135.68 191.31
  L 139.93 190.29
  Q 142.55 198.60 151.77 198.58
  Q 169.86 198.55 171.54 198.63
  Q 173.41 198.71 175.12 201.14
  A 0.53 0.53 0.0 0 0 175.92 201.22
  Q 176.33 200.82 176.62 200.17
  L 177.06 203.31
  C 171.20 212.09 161.41 222.98 151.82 226.58
  C 147.44 228.22 143.20 227.47 142.94 221.88
  Q 142.91 221.23 142.68 217.82
  A 0.06 0.06 0.0 0 0 142.56 217.81
  C 141.41 221.85 140.45 228.26 142.55 232.00
  C 145.27 236.87 152.62 235.05 156.72 232.72
  C 172.42 223.78 184.98 207.39 192.66 191.29
  Q 196.65 189.93 199.77 193.04
  L 199.81 212.59
  A 0.55 0.55 0.0 0 0 200.36 213.14
  L 205.36 213.14
  A 0.52 0.52 0.0 0 0 205.88 212.62
  L 205.88 198.07
  A 0.57 0.56 -90.0 0 1 206.44 197.50
  L 235.47 197.50
  A 0.70 0.69 7.7 0 0 236.14 196.99
  Q 236.29 196.40 236.22 195.77
  Q 238.32 196.22 240.32 195.69
  L 240.32 212.65
  A 0.46 0.46 0.0 0 0 240.78 213.11
  L 245.99 213.11
  A 0.47 0.47 0.0 0 0 246.46 212.64
  L 246.45 205.63
  Q 249.08 203.61 251.62 204.23
  Q 253.63 212.68 263.02 213.13
  A 0.90 0.89 -88.5 0 0 263.96 212.23
  L 263.96 208.89
  A 1.07 1.06 2.0 0 0 262.97 207.83
  C 260.10 207.61 258.00 206.19 257.72 203.05
  L 269.66 201.97
  Q 269.58 209.84 276.63 212.42
  Q 281.22 214.09 285.16 212.58
  Q 286.88 209.16 290.33 208.14
  C 293.54 213.03 298.41 213.28 304.05 213.16
  Q 295.74 222.76 284.97 229.21
  Q 266.69 229.92 248.44 231.14
  C 223.67 232.80 198.60 232.54 174.49 235.42
  C 153.57 237.93 137.75 246.65 116.36 256.63
  Q 105.34 261.78 90.70 266.36
  C 69.05 273.14 52.18 289.58 42.25 309.36
  Q 32.95 327.85 29.94 333.61
  Q 22.40 348.02 18.41 358.23
  Q 10.50 378.49 6.40 400.00
  L 0.00 400.00
  L 0.00 210.83
  Q 11.65 206.50 25.72 200.33
  C 33.07 197.10 40.48 194.76 48.19 198.55
  A 0.86 0.86 0.0 0 1 48.66 199.23
  L 48.88 201.50
  C 48.82 207.51 47.84 212.79 56.00 213.10
  Q 60.06 213.25 70.49 212.98
  Q 80.14 212.72 86.34 205.79
  Q 90.56 203.37 92.11 207.46
  Q 92.95 209.67 94.19 212.91
  L 99.88 213.15
  A 0.39 0.39 0.0 0 0 100.28 212.76
  Q 100.29 187.10 100.34 186.51
  C 100.62 182.97 104.34 182.78 105.75 185.39
  Q 116.49 205.37 117.87 207.64
  Q 122.58 215.38 130.77 212.25
  Q 135.42 210.48 135.52 205.00
  Q 135.65 198.12 135.68 191.31
  Z
  M 142.69 212.78
  A 0.34 0.34 0.0 0 0 143.03 213.12
  L 165.89 213.12
  A 0.34 0.34 0.0 0 0 166.13 213.02
  L 170.71 208.45
  A 0.34 0.34 0.0 0 0 170.47 207.87
  L 143.03 207.87
  A 0.34 0.34 0.0 0 0 142.69 208.21
  L 142.69 212.78
  Z"
/>
<path fill="#0f094b" d="
  M 343.30 234.43
  L 325.75 253.58
  Q 325.55 245.23 323.70 237.19
  L 331.01 213.39
  Q 333.61 212.87 335.72 213.14
  A 0.46 0.46 0.0 0 0 336.24 212.67
  Q 336.13 205.85 336.32 199.07
  Q 336.46 193.85 341.32 193.63
  Q 346.48 193.39 350.40 193.51
  A 0.59 0.59 0.0 0 0 351.01 192.94
  L 351.05 191.27
  Q 351.42 191.68 351.35 192.73
  C 350.34 206.93 347.12 220.77 343.30 234.43
  Z"
/>
<path fill="#fffefe" d="
  M 246.45 205.63
  L 246.46 212.64
  A 0.47 0.47 0.0 0 1 245.99 213.11
  L 240.78 213.11
  A 0.46 0.46 0.0 0 1 240.32 212.65
  L 240.32 195.69
  L 240.30 188.73
  A 0.47 0.47 0.0 0 1 240.77 188.26
  L 245.98 188.25
  A 0.47 0.46 -90.0 0 1 246.44 188.72
  L 246.45 205.63
  Z"
/>
<path fill="#fffefe" d="
  M 307.54 188.22
  C 311.66 188.26 316.36 187.71 320.18 189.57
  C 325.71 192.65 325.80 196.87 325.79 202.74
  Q 326.04 203.95 322.78 203.67
  L 296.29 203.62
  A 1.00 1.00 0.0 0 0 295.58 205.32
  L 297.23 206.96
  A 3.12 3.11 -22.4 0 0 299.43 207.87
  L 322.03 207.78
  Q 322.75 209.70 322.42 212.61
  A 0.57 0.56 -86.6 0 1 321.86 213.11
  L 315.43 213.12
  L 312.15 213.17
  L 304.05 213.16
  C 298.41 213.28 293.54 213.03 290.33 208.14
  Q 288.62 204.71 288.79 199.74
  Q 289.05 192.09 294.96 189.37
  C 298.41 187.78 303.45 188.20 307.54 188.22
  Z
  M 295.07 198.37
  L 319.47 198.37
  A 0.12 0.12 0.0 0 0 319.59 198.25
  L 319.59 198.22
  A 5.88 4.73 -0.0 0 0 313.71 193.49
  L 300.83 193.49
  A 5.88 4.73 0.0 0 0 294.95 198.22
  L 294.95 198.25
  A 0.12 0.12 0.0 0 0 295.07 198.37
  Z"
/>
<path fill="#fffefe" d="
  M 350.15 188.23
  Q 351.26 187.75 351.05 191.27
  L 351.01 192.94
  A 0.59 0.59 0.0 0 1 350.40 193.51
  Q 346.48 193.39 341.32 193.63
  Q 336.46 193.85 336.32 199.07
  Q 336.13 205.85 336.24 212.67
  A 0.46 0.46 0.0 0 1 335.72 213.14
  Q 333.61 212.87 331.01 213.39
  Q 329.49 210.10 330.29 205.00
  Q 329.95 199.87 330.31 197.02
  Q 330.79 193.30 334.01 190.62
  C 338.62 187.39 344.81 188.11 350.15 188.23
  Z"
/>
<path fill="#010606" d="
  M 400.00 190.99
  L 400.00 194.40
  Q 399.69 192.69 400.00 190.99
  Z"
/>
<path fill="#010606" d="
  M 295.07 198.37
  A 0.12 0.12 0.0 0 1 294.95 198.25
  L 294.95 198.22
  A 5.88 4.73 -0.0 0 1 300.83 193.49
  L 313.71 193.49
  A 5.88 4.73 -0.0 0 1 319.59 198.22
  L 319.59 198.25
  A 0.12 0.12 0.0 0 1 319.47 198.37
  L 295.07 198.37
  Z"
/>
<path fill="#10032b" d="
  M 330.29 205.00
  Q 329.49 210.10 331.01 213.39
  L 323.70 237.19
  L 317.94 242.04
  L 311.22 241.77
  Q 314.31 227.61 315.43 213.12
  L 321.86 213.11
  A 0.57 0.56 -86.6 0 0 322.42 212.61
  Q 322.75 209.70 322.03 207.78
  Q 321.38 205.95 322.78 203.67
  Q 326.04 203.95 325.79 202.74
  L 330.29 205.00
  Z"
/>
<path fill="#010606" d="
  M 322.78 203.67
  Q 321.38 205.95 322.03 207.78
  L 299.43 207.87
  A 3.12 3.11 -22.4 0 1 297.23 206.96
  L 295.58 205.32
  A 1.00 1.00 0.0 0 1 296.29 203.62
  L 322.78 203.67
  Z"
/>
<path fill="#fffefe" d="
  M 142.69 212.78
  L 142.69 208.21
  A 0.34 0.34 0.0 0 1 143.03 207.87
  L 170.47 207.87
  A 0.34 0.34 0.0 0 1 170.71 208.45
  L 166.13 213.02
  A 0.34 0.34 0.0 0 1 165.89 213.12
  L 143.03 213.12
  A 0.34 0.34 0.0 0 1 142.69 212.78
  Z"
/>
<path fill="#160110" d="
  M 312.15 213.17
  Q 301.79 235.48 286.69 254.73
  C 274.18 258.54 262.63 259.84 250.04 256.25
  L 259.41 249.74
  Q 272.87 240.30 284.97 229.21
  Q 295.74 222.76 304.05 213.16
  L 312.15 213.17
  Z"
/>
<path fill="#18021e" d="
  M 315.43 213.12
  Q 314.31 227.61 311.22 241.77
  Q 299.10 254.20 284.70 263.85
  L 286.69 254.73
  Q 301.79 235.48 312.15 213.17
  L 315.43 213.12
  Z"
/>
<path fill="#130001" d="
  M 284.97 229.21
  Q 272.87 240.30 259.41 249.74
  Q 244.88 249.31 231.94 253.35
  C 204.98 261.75 184.06 273.45 154.18 290.60
  Q 141.25 298.03 132.95 307.45
  Q 117.98 324.47 107.25 336.87
  Q 96.81 348.93 91.84 362.62
  Q 86.32 377.85 96.50 391.08
  Q 98.95 394.26 105.81 400.00
  L 6.40 400.00
  Q 10.50 378.49 18.41 358.23
  Q 22.40 348.02 29.94 333.61
  Q 32.95 327.85 42.25 309.36
  C 52.18 289.58 69.05 273.14 90.70 266.36
  Q 105.34 261.78 116.36 256.63
  C 137.75 246.65 153.57 237.93 174.49 235.42
  C 198.60 232.54 223.67 232.80 248.44 231.14
  Q 266.69 229.92 284.97 229.21
  Z"
/>
<path fill="#010606" d="
  M 400.00 230.28
  L 400.00 234.61
  L 400.00 230.28
  Z"
/>
<path fill="#240854" d="
  M 343.30 234.43
  Q 346.60 241.14 351.92 245.97
  L 347.95 258.77
  C 340.45 264.58 332.91 269.01 323.25 269.41
  Q 321.60 266.33 321.06 262.68
  L 325.75 253.58
  L 343.30 234.43
  Z"
/>
<path fill="#200437" d="
  M 325.75 253.58
  L 321.06 262.68
  L 315.70 265.31
  L 304.94 261.58
  L 317.94 242.04
  L 323.70 237.19
  Q 325.55 245.23 325.75 253.58
  Z"
/>
<path fill="#010606" d="
  M 400.00 237.23
  L 400.00 237.89
  Q 399.67 237.86 400.00 237.23
  Z"
/>
<path fill="#270223" d="
  M 317.94 242.04
  L 304.94 261.58
  Q 292.11 276.10 276.77 288.05
  Q 269.22 285.77 261.28 286.17
  L 268.92 276.81
  L 284.70 263.85
  Q 299.10 254.20 311.22 241.77
  L 317.94 242.04
  Z"
/>
<path fill="#0a0000" d="
  M 400.00 239.99
  L 400.00 243.65
  L 400.00 239.99
  Z"
/>
<path fill="#010606" d="
  M 400.00 244.02
  L 400.00 252.61
  L 400.00 244.02
  Z"
/>
<path fill="#1e0001" d="
  M 259.41 249.74
  L 250.04 256.25
  Q 236.78 261.02 224.18 266.81
  C 210.73 272.98 201.28 281.52 192.54 293.50
  Q 175.40 309.94 160.23 328.30
  C 146.53 344.89 137.37 360.80 138.79 383.13
  Q 139.33 391.61 140.79 400.00
  L 105.81 400.00
  Q 98.95 394.26 96.50 391.08
  Q 86.32 377.85 91.84 362.62
  Q 96.81 348.93 107.25 336.87
  Q 117.98 324.47 132.95 307.45
  Q 141.25 298.03 154.18 290.60
  C 184.06 273.45 204.98 261.75 231.94 253.35
  Q 244.88 249.31 259.41 249.74
  Z"
/>
<path fill="#010606" d="
  M 400.00 253.01
  L 400.00 263.60
  L 400.00 253.01
  Z"
/>
<path fill="#22000b" d="
  M 286.69 254.73
  L 284.70 263.85
  L 268.92 276.81
  C 256.55 275.74 246.86 276.76 237.10 282.08
  Q 226.76 287.72 215.17 295.87
  L 200.60 307.56
  Q 202.16 301.33 203.57 295.14
  Q 204.00 293.27 203.68 291.83
  A 1.91 1.90 74.0 0 0 201.17 290.43
  L 192.54 293.50
  C 201.28 281.52 210.73 272.98 224.18 266.81
  Q 236.78 261.02 250.04 256.25
  C 262.63 259.84 274.18 258.54 286.69 254.73
  Z"
/>
<path fill="#36064e" d="
  M 347.95 258.77
  L 346.87 266.69
  L 342.03 284.62
  Q 330.10 287.54 318.78 292.55
  Q 318.33 280.70 323.25 269.41
  C 332.91 269.01 340.45 264.58 347.95 258.77
  Z"
/>
<path fill="#34022b" d="
  M 315.70 265.31
  L 287.73 300.18
  Q 278.53 302.27 269.22 302.20
  L 276.77 288.05
  Q 292.11 276.10 304.94 261.58
  L 315.70 265.31
  Z"
/>
<path fill="#43033d" d="
  M 321.06 262.68
  Q 321.60 266.33 323.25 269.41
  Q 318.33 280.70 318.78 292.55
  L 316.69 305.19
  Q 304.20 307.76 291.51 305.68
  Q 290.27 302.54 287.73 300.18
  L 315.70 265.31
  L 321.06 262.68
  Z"
/>
<path fill="#160110" d="
  M 400.00 264.98
  L 400.00 265.89
  Q 399.69 265.80 400.00 264.98
  Z"
/>
<path fill="#480d86" d="
  M 363.42 266.91
  Q 369.67 272.65 377.72 273.01
  Q 380.81 275.76 381.71 280.05
  Q 375.06 291.41 372.71 304.56
  L 355.80 302.89
  Q 353.18 300.24 349.58 298.93
  L 342.03 284.62
  L 346.87 266.69
  L 363.42 266.91
  Z"
/>
<path fill="#2c000f" d="
  M 268.92 276.81
  L 261.28 286.17
  Q 250.08 294.31 240.51 304.27
  L 222.01 313.80
  C 217.46 308.05 223.02 300.96 215.17 295.87
  Q 226.76 287.72 237.10 282.08
  C 246.86 276.76 256.55 275.74 268.92 276.81
  Z"
/>
<path fill="#4f12a8" d="
  M 381.71 280.05
  C 385.65 288.60 390.46 294.84 400.00 297.14
  L 400.00 312.39
  L 399.65 313.85
  A 0.69 0.69 0.0 0 1 399.04 314.37
  L 383.71 315.54
  L 372.71 304.56
  Q 375.06 291.41 381.71 280.05
  Z"
/>
<path fill="#280004" d="
  M 200.60 307.56
  Q 190.87 321.64 181.61 336.12
  Q 177.29 342.90 173.69 350.08
  C 165.52 366.37 165.85 382.19 168.81 400.00
  L 140.79 400.00
  Q 139.33 391.61 138.79 383.13
  C 137.37 360.80 146.53 344.89 160.23 328.30
  Q 175.40 309.94 192.54 293.50
  L 201.17 290.43
  A 1.91 1.90 74.0 0 1 203.68 291.83
  Q 204.00 293.27 203.57 295.14
  Q 202.16 301.33 200.60 307.56
  Z"
/>
<path fill="#350019" d="
  M 276.77 288.05
  L 269.22 302.20
  L 256.03 311.41
  Q 251.01 313.42 245.92 313.95
  C 240.56 314.50 240.38 308.22 240.51 304.27
  Q 250.08 294.31 261.28 286.17
  Q 269.22 285.77 276.77 288.05
  Z"
/>
<path fill="#4c0657" d="
  M 342.03 284.62
  L 349.58 298.93
  Q 337.54 310.17 322.50 316.97
  L 316.69 305.19
  L 318.78 292.55
  Q 330.10 287.54 342.03 284.62
  Z"
/>
<path fill="#310008" d="
  M 222.01 313.80
  Q 210.72 333.62 206.14 341.19
  C 198.20 354.32 191.66 367.82 190.31 382.23
  Q 189.59 389.94 190.31 400.00
  L 168.81 400.00
  C 165.85 382.19 165.52 366.37 173.69 350.08
  Q 177.29 342.90 181.61 336.12
  Q 190.87 321.64 200.60 307.56
  L 215.17 295.87
  C 223.02 300.96 217.46 308.05 222.01 313.80
  Z"
/>
<path fill="#63055f" d="
  M 355.80 302.89
  L 348.83 317.17
  Q 346.03 325.18 346.13 333.54
  Q 341.47 337.14 335.76 338.31
  C 331.23 332.06 325.14 330.93 317.86 332.02
  Q 315.62 329.42 316.34 325.41
  L 322.50 316.97
  Q 337.54 310.17 349.58 298.93
  Q 353.18 300.24 355.80 302.89
  Z"
/>
<path fill="#4a012a" d="
  M 287.73 300.18
  Q 290.27 302.54 291.51 305.68
  L 276.69 333.24
  Q 272.50 336.30 267.37 338.63
  A 2.62 2.61 60.5 0 1 264.15 337.73
  C 262.40 335.22 266.19 327.71 265.78 323.78
  A 0.86 0.86 0.0 0 0 264.56 323.09
  Q 262.99 323.81 261.22 325.64
  C 254.13 332.96 246.15 342.94 238.54 351.46
  Q 244.88 330.52 256.03 311.41
  L 269.22 302.20
  Q 278.53 302.27 287.73 300.18
  Z"
/>
<path fill="#630d8e" d="
  M 372.71 304.56
  L 383.71 315.54
  Q 378.02 319.16 373.33 323.84
  Q 360.44 322.49 348.83 317.17
  L 355.80 302.89
  L 372.71 304.56
  Z"
/>
<path fill="#56023a" d="
  M 316.69 305.19
  L 322.50 316.97
  L 316.34 325.41
  L 296.93 342.47
  Q 290.41 341.24 284.06 343.31
  C 283.02 338.52 281.97 334.48 276.69 333.24
  L 291.51 305.68
  Q 304.20 307.76 316.69 305.19
  Z"
/>
<path fill="#3a000e" d="
  M 256.03 311.41
  Q 244.88 330.52 238.54 351.46
  Q 229.27 374.89 228.91 400.00
  L 190.31 400.00
  Q 189.59 389.94 190.31 382.23
  C 191.66 367.82 198.20 354.32 206.14 341.19
  Q 210.72 333.62 222.01 313.80
  L 240.51 304.27
  C 240.38 308.22 240.56 314.50 245.92 313.95
  Q 251.01 313.42 256.03 311.41
  Z"
/>
<path fill="#550122" d="
  M 276.69 333.24
  C 281.97 334.48 283.02 338.52 284.06 343.31
  Q 272.51 360.01 267.56 378.81
  Q 265.11 388.12 263.40 400.00
  L 228.91 400.00
  Q 229.27 374.89 238.54 351.46
  C 246.15 342.94 254.13 332.96 261.22 325.64
  Q 262.99 323.81 264.56 323.09
  A 0.86 0.86 0.0 0 1 265.78 323.78
  C 266.19 327.71 262.40 335.22 264.15 337.73
  A 2.62 2.61 60.5 0 0 267.37 338.63
  Q 272.50 336.30 276.69 333.24
  Z"
/>
<path fill="#7011ae" d="
  M 400.00 312.39
  L 400.00 325.46
  C 393.04 327.50 387.24 327.10 379.70 326.23
  L 373.33 323.84
  Q 378.02 319.16 383.71 315.54
  L 399.04 314.37
  A 0.69 0.69 0.0 0 0 399.65 313.85
  L 400.00 312.39
  Z"
/>
<path fill="#790a89" d="
  M 373.33 323.84
  L 379.70 326.23
  Q 378.20 332.77 375.19 338.61
  Q 368.15 339.81 361.02 338.39
  Q 354.29 333.70 346.13 333.54
  Q 346.03 325.18 348.83 317.17
  Q 360.44 322.49 373.33 323.84
  Z"
/>
<path fill="#760144" d="
  M 316.34 325.41
  Q 315.62 329.42 317.86 332.02
  C 307.80 353.09 302.08 376.58 298.18 400.00
  L 288.76 400.00
  Q 290.43 389.40 295.35 364.24
  Q 297.22 354.71 296.93 342.47
  L 316.34 325.41
  Z"
/>
<path fill="#7a0252" d="
  M 335.76 338.31
  Q 331.19 346.03 328.51 354.81
  Q 319.42 365.99 317.31 369.67
  C 311.92 379.04 308.86 389.61 306.13 400.00
  L 298.18 400.00
  C 302.08 376.58 307.80 353.09 317.86 332.02
  C 325.14 330.93 331.23 332.06 335.76 338.31
  Z"
/>
<path fill="#8b0ea9" d="
  M 400.00 325.46
  L 400.00 344.94
  Q 394.27 347.16 387.89 344.54
  Q 385.49 343.56 381.60 344.22
  L 375.19 338.61
  Q 378.20 332.77 379.70 326.23
  C 387.24 327.10 393.04 327.50 400.00 325.46
  Z"
/>
<path fill="#87056c" d="
  M 361.02 338.39
  L 347.53 355.48
  L 334.32 368.58
  Q 333.10 360.68 328.51 354.81
  Q 331.19 346.03 335.76 338.31
  Q 341.47 337.14 346.13 333.54
  Q 354.29 333.70 361.02 338.39
  Z"
/>
<path fill="#650133" d="
  M 296.93 342.47
  Q 297.22 354.71 295.35 364.24
  Q 290.43 389.40 288.76 400.00
  L 263.40 400.00
  Q 265.11 388.12 267.56 378.81
  Q 272.51 360.01 284.06 343.31
  Q 290.41 341.24 296.93 342.47
  Z"
/>
<path fill="#960784" d="
  M 375.19 338.61
  L 381.60 344.22
  Q 373.55 353.24 364.28 361.11
  L 355.04 365.07
  Q 351.99 359.63 347.53 355.48
  L 361.02 338.39
  Q 368.15 339.81 375.19 338.61
  Z"
/>
<path fill="#a9099c" d="
  M 400.00 344.94
  L 400.00 358.84
  Q 392.67 363.27 384.24 365.00
  L 364.28 361.11
  Q 373.55 353.24 381.60 344.22
  Q 385.49 343.56 387.89 344.54
  Q 394.27 347.16 400.00 344.94
  Z"
/>
<path fill="#8d0159" d="
  M 334.32 368.58
  Q 333.35 384.28 330.57 400.00
  L 306.13 400.00
  C 308.86 389.61 311.92 379.04 317.31 369.67
  Q 319.42 365.99 328.51 354.81
  Q 333.10 360.68 334.32 368.58
  Z"
/>
<path fill="#9d026b" d="
  M 347.53 355.48
  Q 351.99 359.63 355.04 365.07
  C 348.58 376.21 345.58 387.42 343.11 400.00
  L 330.57 400.00
  Q 333.35 384.28 334.32 368.58
  L 347.53 355.48
  Z"
/>
<path fill="#c60597" d="
  M 400.00 358.84
  L 400.00 363.26
  L 400.00 371.90
  L 400.00 372.49
  L 400.00 382.86
  L 400.00 398.66
  L 399.58 400.00
  L 368.17 400.00
  Q 369.05 389.75 370.87 383.62
  C 373.22 375.68 378.19 370.33 384.24 365.00
  Q 392.67 363.27 400.00 358.84
  Z"
/>
<path fill="#b0037d" d="
  M 364.28 361.11
  L 384.24 365.00
  C 378.19 370.33 373.22 375.68 370.87 383.62
  Q 369.05 389.75 368.17 400.00
  L 343.11 400.00
  C 345.58 387.42 348.58 376.21 355.04 365.07
  L 364.28 361.11
  Z"
/>
<path fill="#0a0000" d="
  M 400.00 363.26
  L 400.00 371.90
  L 400.00 363.26
  Z"
/>
<path fill="#0a0000" d="
  M 400.00 372.49
  L 400.00 382.86
  L 400.00 372.49
  Z"
/>
<path fill="#0a0000" d="
  M 400.00 398.66
  L 400.00 400.00
  L 399.58 400.00
  L 400.00 398.66
  Z"
/>
</svg>
