<svg width="1689" height="476" viewBox="0 0 1689 476" fill="none" xmlns="http://www.w3.org/2000/svg">
<g clip-path="url(#clip0_357_10119)">
<circle cx="215" cy="72" r="52" fill="#000000"/>
<circle cx="113" cy="80" r="38" fill="#000000"/>
<circle cx="317" cy="80" r="38" fill="#000000"/>
<circle cx="44" cy="111" r="24" fill="#000000"/>
<circle cx="386" cy="111" r="24" fill="#000000"/>
<path d="M301 256C301 267.046 292.046 276 281 276C269.954 276 261 267.046 261 256C261 244.954 269.954 236 281 236C292.046 236 301 244.954 301 256Z" fill="#2970FF"/>
<path d="M129 256C129 267.046 137.954 276 149 276C160.046 276 169 267.046 169 256C169 244.954 160.046 236 149 236C137.954 236 129 244.954 129 256Z" fill="#2970FF"/>
<path d="M183 318C183 325.732 176.732 332 169 332C161.268 332 155 325.732 155 318C155 310.268 161.268 304 169 304C176.732 304 183 310.268 183 318Z" fill="#2970FF"/>
<path d="M275 318C275 325.732 268.732 332 261 332C253.268 332 247 325.732 247 318C247 310.268 253.268 304 261 304C268.732 304 275 310.268 275 318Z" fill="#2970FF"/>
<path fill-rule="evenodd" clip-rule="evenodd" d="M89 258C96.732 258 103 251.732 103 244C103 236.268 96.732 230 89 230C81.268 230 75 236.268 75 244C75 251.732 81.268 258 89 258Z" fill="#2970FF"/>
<path fill-rule="evenodd" clip-rule="evenodd" d="M341 258C348.732 258 355 251.732 355 244C355 236.268 348.732 230 341 230C333.268 230 327 236.268 327 244C327 251.732 333.268 258 341 258Z" fill="#2970FF"/>
<path d="M128.468 301.893C127.989 301.963 127.499 302 127 302C121.477 302 117 297.523 117 292C117 286.998 120.673 282.853 125.469 282.116C125.968 282.04 126.479 282 127 282C132.522 282 137 286.477 137 292C137 297.024 133.295 301.183 128.468 301.893Z" fill="#2970FF"/>
<path d="M304.468 301.893C303.989 301.963 303.499 302 303 302C297.477 302 293 297.523 293 292C293 286.998 296.673 282.853 301.469 282.116C301.968 282.04 302.479 282 303 282C308.522 282 313 286.477 313 292C313 297.024 309.295 301.183 304.468 301.893Z" fill="#2970FF"/>
<ellipse cx="370" cy="182" rx="20" ry="20" fill="#2970FF"/>
<ellipse cx="60" cy="182" rx="20" ry="20" fill="#2970FF"/>
<path d="M159 178C159 194.569 145.569 208 129 208C112.431 208 99 194.569 99 178C99 161.431 112.431 148 129 148C145.569 148 159 161.431 159 178Z" fill="#2970FF"/>
<path d="M215 214C235.987 214 253 196.987 253 176C253 155.013 235.987 138 215 138C194.013 138 177 155.013 177 176C177 196.987 194.013 214 215 214Z" fill="#000000"/>
<path d="M215 294C198.431 294 185 280.569 185 264C185 247.431 198.431 234 215 234C231.569 234 245 247.431 245 264C245 280.569 231.569 294 215 294Z" fill="#000000"/>
<path d="M215 356C226.046 356 235 347.046 235 336C235 324.954 226.046 316 215 316C203.954 316 195 324.954 195 336C195 347.046 203.954 356 215 356Z" fill="#000000"/>
<path d="M331 176C331 192.569 317.569 206 301 206C284.431 206 271 192.569 271 176C271 159.431 284.431 146 301 146C317.569 146 331 159.431 331 176Z" fill="#2970FF"/>
<path fill-rule="evenodd" clip-rule="evenodd" d="M579.794 285.205C588.853 289.735 598.748 292 609.476 292C621.397 292 631.172 290.092 638.801 286.278C646.43 282.463 653.463 276.622 659.9 268.754L636.298 244.792C633.198 248.13 629.741 250.753 625.927 252.66C622.112 254.329 617.582 255.164 612.337 255.164C606.377 255.164 601.012 253.256 596.244 249.442C591.714 245.388 589.449 239.309 589.449 231.202V153.596H651.318V116.76H589.449V68H550.111V116.76H506V153.596H550.111V231.56C550.111 244.673 552.853 255.76 558.336 264.82C563.82 273.641 570.972 280.436 579.794 285.205ZM684.92 288.423V116.76H724.259V134.591C724.494 134.248 724.732 133.907 724.974 133.569C734.749 119.979 749.411 113.184 768.961 113.184C777.544 113.184 785.292 114.733 792.206 117.833C799.12 120.932 805.557 125.939 811.518 132.853L785.769 159.318C782.67 155.98 779.213 153.596 775.398 152.166C771.584 150.735 767.173 150.02 762.166 150.02C751.199 150.02 742.14 153.477 734.987 160.391C727.835 167.305 724.259 178.153 724.259 192.936V288.423H684.92ZM1214.19 280.556C1228.02 288.185 1243.52 292 1260.68 292C1274.04 292 1286.67 289.496 1298.59 284.49C1310.51 279.483 1320.65 272.092 1328.99 262.316L1303.96 236.924C1298.71 242.885 1292.27 247.415 1284.65 250.515C1277.25 253.614 1269.15 255.164 1260.33 255.164C1250.08 255.164 1241.02 253.018 1233.15 248.726C1225.28 244.196 1219.2 237.878 1214.91 229.772C1212.86 225.899 1211.3 221.726 1210.23 217.255H1338.29C1339 213.678 1339.48 210.46 1339.72 207.599C1340.2 204.499 1340.43 201.519 1340.43 198.658C1340.43 182.207 1336.86 167.544 1329.71 154.669C1322.79 141.794 1313.14 131.662 1300.74 124.271C1288.58 116.879 1274.51 113.184 1258.54 113.184C1242.09 113.184 1227.07 117.118 1213.48 124.986C1200.13 132.854 1189.52 143.583 1181.65 157.173C1173.78 170.524 1169.85 185.664 1169.85 202.592C1169.85 219.52 1173.78 234.779 1181.65 248.369C1189.76 261.959 1200.6 272.688 1214.19 280.556ZM1210.35 185.068C1211.35 181.067 1212.75 177.371 1214.55 173.981C1218.6 166.113 1224.33 160.034 1231.72 155.742C1239.11 151.451 1247.81 149.305 1257.82 149.305C1267.36 149.305 1275.35 151.212 1281.78 155.027C1288.46 158.842 1293.59 164.325 1297.16 171.478C1299.16 175.484 1300.68 180.014 1301.71 185.068H1210.35ZM1407.73 288.423H1368.39V116.76H1407.73V134.591C1407.97 134.248 1408.2 133.907 1408.45 133.569C1418.22 119.979 1432.88 113.184 1452.43 113.184C1461.02 113.184 1468.76 114.734 1475.68 117.833C1482.59 120.933 1489.03 125.939 1494.99 132.854L1469.24 159.318C1466.14 155.981 1462.68 153.596 1458.87 152.166C1455.06 150.735 1450.65 150.02 1445.64 150.02C1434.67 150.02 1425.61 153.477 1418.46 160.391C1411.31 167.306 1407.73 178.154 1407.73 192.936V288.423ZM1577.09 292C1561.59 292 1547.53 288.066 1534.89 280.198C1522.5 272.33 1512.6 261.72 1505.21 248.369C1498.06 234.779 1494.48 219.639 1494.48 202.95C1494.48 186.022 1498.06 170.882 1505.21 157.53C1512.6 143.94 1522.5 133.211 1534.89 125.343C1547.53 117.237 1561.59 113.184 1577.09 113.184C1590.2 113.184 1601.77 116.045 1611.78 121.767C1618.73 125.482 1624.69 130.182 1629.66 135.866V116.76H1669V288.423H1629.66V269.582C1624.83 275.218 1618.99 279.949 1612.14 283.774C1601.89 289.258 1590.2 292 1577.09 292ZM1583.53 254.806C1598.07 254.806 1609.75 249.918 1618.58 240.143C1627.64 230.368 1632.17 217.851 1632.17 202.592C1632.17 192.34 1630.14 183.28 1626.09 175.412C1622.03 167.544 1616.31 161.464 1608.92 157.173C1601.77 152.643 1593.3 150.378 1583.53 150.378C1573.99 150.378 1565.53 152.643 1558.14 157.173C1550.99 161.464 1545.26 167.544 1540.97 175.412C1536.92 183.28 1534.89 192.34 1534.89 202.592C1534.89 212.844 1536.92 221.904 1540.97 229.772C1545.26 237.64 1550.99 243.839 1558.14 248.369C1565.53 252.66 1573.99 254.806 1583.53 254.806ZM1066.08 288.424L987.762 116.76H1031.39L1078.28 226.541L1125.45 116.76H1167.29L1088.97 288.424H1066.08ZM858.447 282.344C869.891 288.781 882.884 292 897.427 292C912.209 292 925.202 288.901 936.408 282.702C947.613 276.264 956.315 267.443 962.514 256.237C968.951 244.793 972.17 231.56 972.17 216.54V116.76H932.832V214.752C932.832 227.388 929.732 237.163 923.533 244.077C917.573 250.753 908.871 254.091 897.427 254.091C890.036 254.091 883.599 252.541 878.116 249.442C872.871 246.342 868.818 241.932 865.957 236.209C863.334 230.249 862.023 223.096 862.023 214.752V116.76H822.685V216.54C822.685 231.322 825.784 244.435 831.983 255.879C838.42 267.085 847.241 275.907 858.447 282.344Z" fill="#000000"/>
<path fill-rule="evenodd" clip-rule="evenodd" d="M506 437.231H512.61L513.154 430.311C514.398 432.851 516.212 434.795 518.597 436.143C521.034 437.491 523.729 438.164 526.684 438.164C530.365 438.164 533.527 437.335 536.171 435.676C538.867 433.965 540.94 431.607 542.392 428.6C543.843 425.593 544.569 422.198 544.569 418.413C544.569 414.474 543.869 410.974 542.469 407.916C541.07 404.857 539.074 402.473 536.482 400.762C533.89 398.999 530.78 398.118 527.151 398.118C524.04 398.118 521.267 398.766 518.83 400.062C516.394 401.358 514.554 403.25 513.309 405.739V380H506V437.231ZM514.787 425.101C513.854 423.079 513.387 420.746 513.387 418.102C513.387 415.459 513.854 413.152 514.787 411.182C515.772 409.16 517.146 407.579 518.908 406.438C520.723 405.298 522.874 404.728 525.362 404.728C527.851 404.728 529.976 405.324 531.739 406.516C533.501 407.657 534.849 409.238 535.782 411.26C536.767 413.229 537.26 415.51 537.26 418.102C537.26 420.746 536.767 423.079 535.782 425.101C534.849 427.123 533.501 428.704 531.739 429.844C529.976 430.985 527.851 431.555 525.362 431.555C522.874 431.555 520.723 430.985 518.908 429.844C517.146 428.704 515.772 427.123 514.787 425.101ZM565.446 429.867L554.367 399.207H546.669L562.008 439.246L560.666 442.908C560.096 444.515 559.396 445.681 558.566 446.407C557.737 447.185 556.83 447.677 555.845 447.884C554.86 448.144 553.771 448.273 552.579 448.273H547.68V454.261C548.665 454.52 549.676 454.701 550.713 454.805C551.749 454.961 552.864 455.038 554.056 455.038C556.959 455.038 559.396 454.313 561.366 452.861C563.336 451.41 564.969 449.051 566.265 445.785L584.227 399.207H576.684L565.446 429.867Z" fill="#000000"/>
<path fill-rule="evenodd" clip-rule="evenodd" d="M637.307 446.75C643.069 450.043 649.516 451.689 656.65 451.689C663.783 451.689 670.185 450.043 675.855 446.75C681.526 443.367 686.007 438.794 689.299 433.032C692.683 427.27 694.375 420.777 694.375 413.552V350.996C694.375 348.893 693.735 347.201 692.455 345.921C691.174 344.64 689.482 344 687.379 344C685.367 344 683.675 344.64 682.303 345.921C681.023 347.201 680.383 348.893 680.383 350.996V388.036C677.273 384.195 673.432 381.177 668.859 378.982C664.286 376.695 659.302 375.552 653.906 375.552C647.23 375.552 641.239 377.244 635.935 380.628C630.631 383.92 626.424 388.447 623.314 394.209C620.296 399.879 618.787 406.327 618.787 413.552C618.787 420.777 620.433 427.27 623.726 433.032C627.11 438.794 631.637 443.367 637.307 446.75ZM669.133 436.05C665.475 438.245 661.314 439.343 656.65 439.343C652.077 439.343 647.916 438.245 644.166 436.05C640.508 433.764 637.581 430.654 635.386 426.722C633.283 422.789 632.231 418.399 632.231 413.552C632.231 408.613 633.283 404.224 635.386 400.382C637.581 396.541 640.508 393.523 644.166 391.328C647.916 389.042 652.077 387.899 656.65 387.899C661.314 387.899 665.475 389.042 669.133 391.328C672.792 393.523 675.673 396.541 677.776 400.382C679.88 404.224 680.931 408.613 680.931 413.552C680.931 418.399 679.88 422.789 677.776 426.722C675.673 430.654 672.792 433.764 669.133 436.05ZM891.03 444.418V423.459L897.858 417.365L923.954 449.631C925.143 451.095 926.607 451.872 928.344 451.963C930.173 452.146 931.82 451.643 933.283 450.454C934.838 449.174 935.661 447.711 935.752 446.065C935.935 444.327 935.432 442.726 934.243 441.263L907.693 408.587L932.871 386.115C934.243 384.835 934.975 383.372 935.066 381.725C935.158 380.079 934.563 378.57 933.283 377.198C932.094 375.827 930.631 375.095 928.893 375.003C927.247 374.912 925.738 375.506 924.366 376.787L891.03 406.539V350.722C891.03 348.71 890.39 347.109 889.11 345.921C887.921 344.64 886.32 344 884.308 344C882.296 344 880.65 344.64 879.37 345.921C878.181 347.109 877.586 348.71 877.586 350.722V444.418C877.586 446.43 878.181 448.077 879.37 449.357C880.65 450.546 882.296 451.14 884.308 451.14C886.32 451.14 887.921 450.546 889.11 449.357C890.39 448.077 891.03 446.43 891.03 444.418ZM992.039 447.848C995.149 450.043 998.716 451.14 1002.74 451.14H1003.01C1005.76 451.14 1008 450.5 1009.74 449.22C1011.47 447.939 1012.34 446.293 1012.34 444.281C1012.34 442.269 1011.75 440.623 1010.56 439.343C1009.46 438.062 1008 437.422 1006.17 437.422H1002.74C1000.73 437.422 999.081 436.325 997.801 434.13C996.521 431.935 995.88 429.145 995.88 425.761V350.859C995.88 348.847 995.24 347.201 993.96 345.921C992.68 344.64 991.033 344 989.021 344C987.009 344 985.363 344.64 984.083 345.921C982.802 347.201 982.162 348.847 982.162 350.859V425.761C982.162 430.7 983.031 435.09 984.769 438.931C986.506 442.681 988.93 445.653 992.039 447.848ZM1122 446.75C1127.67 450.043 1134.07 451.689 1141.2 451.689C1148.43 451.689 1154.88 450.043 1160.55 446.75C1166.22 443.367 1170.7 438.794 1173.99 433.032C1177.37 427.27 1179.07 420.777 1179.07 413.552C1179.07 406.327 1177.51 399.879 1174.4 394.209C1171.38 388.447 1167.22 383.92 1161.92 380.628C1156.61 377.244 1150.62 375.552 1143.95 375.552C1138.55 375.552 1133.57 376.695 1128.99 378.982C1124.51 381.177 1120.67 384.195 1117.47 388.036V350.996C1117.47 348.893 1116.83 347.201 1115.55 345.921C1114.27 344.64 1112.58 344 1110.47 344C1108.46 344 1106.77 344.64 1105.4 345.921C1104.12 347.201 1103.48 348.893 1103.48 350.996V413.552C1103.57 420.777 1105.26 427.27 1108.55 433.032C1111.85 438.794 1116.33 443.367 1122 446.75ZM1153.69 436.05C1150.03 438.245 1145.87 439.343 1141.2 439.343C1136.63 439.343 1132.47 438.245 1128.72 436.05C1125.06 433.764 1122.18 430.654 1120.08 426.722C1117.97 422.789 1116.92 418.399 1116.92 413.552C1116.92 408.613 1117.97 404.224 1120.08 400.382C1122.18 396.541 1125.06 393.523 1128.72 391.328C1132.47 389.042 1136.63 387.899 1141.2 387.899C1145.87 387.899 1150.03 389.042 1153.69 391.328C1157.35 393.523 1160.23 396.541 1162.33 400.382C1164.52 404.224 1165.62 408.613 1165.62 413.552C1165.62 418.399 1164.52 422.789 1162.33 426.722C1160.23 430.654 1157.35 433.764 1153.69 436.05ZM1203.91 448.808C1209.4 450.729 1215.35 451.689 1221.75 451.689C1228.24 451.689 1233.64 450.683 1237.94 448.671C1242.32 446.659 1245.62 443.961 1247.81 440.577C1250.1 437.193 1251.24 433.398 1251.24 429.191C1251.24 425.533 1250.37 422.332 1248.64 419.588C1246.9 416.753 1244.02 414.284 1239.99 412.18C1236.06 410.077 1230.66 408.339 1223.81 406.967C1218.87 405.961 1215.12 404.955 1212.56 403.949C1210 402.852 1208.26 401.663 1207.34 400.382C1206.52 399.01 1206.11 397.501 1206.11 395.855C1206.11 393.203 1207.48 391.191 1210.22 389.819C1213.06 388.447 1216.49 387.761 1220.51 387.761C1223.99 387.761 1227.05 388.173 1229.7 388.996C1232.36 389.819 1234.83 391.328 1237.11 393.523C1238.48 394.804 1240.18 395.627 1242.19 395.992C1244.2 396.358 1245.94 396.038 1247.4 395.032C1248.86 393.935 1249.64 392.609 1249.73 391.054C1249.82 389.408 1249.23 387.853 1247.95 386.39C1245.21 383.006 1241.5 380.354 1236.84 378.433C1232.17 376.512 1226.82 375.552 1220.79 375.552C1216.12 375.552 1211.64 376.329 1207.34 377.884C1203.04 379.348 1199.52 381.634 1196.78 384.743C1194.04 387.761 1192.66 391.603 1192.66 396.267C1192.66 401.571 1194.72 406.053 1198.84 409.711C1203.04 413.369 1209.77 416.113 1219 417.942C1226.14 419.222 1231.03 420.868 1233.68 422.88C1236.43 424.892 1237.75 427.27 1237.66 430.014C1237.57 432.758 1236.11 434.998 1233.27 436.736C1230.53 438.474 1226.5 439.342 1221.2 439.342C1216.99 439.342 1213.15 438.611 1209.68 437.148C1206.29 435.593 1203.82 433.947 1202.27 432.209C1200.99 430.837 1199.43 430.06 1197.6 429.877C1195.87 429.602 1194.08 430.197 1192.25 431.66C1190.7 432.849 1189.78 434.404 1189.51 436.324C1189.33 438.154 1189.92 439.8 1191.29 441.263C1194.31 444.281 1198.52 446.796 1203.91 448.808ZM1047.67 451.689C1040.99 451.689 1035 450.043 1029.7 446.75C1024.4 443.367 1020.19 438.839 1017.08 433.169C1014.06 427.407 1012.55 420.914 1012.55 413.689C1012.55 406.464 1014.2 399.971 1017.49 394.209C1020.87 388.447 1025.4 383.92 1031.07 380.628C1036.83 377.244 1043.28 375.552 1050.41 375.552C1057.55 375.552 1063.95 377.244 1069.62 380.628C1075.29 383.92 1079.77 388.447 1083.06 394.209C1086.45 399.971 1088.14 406.464 1088.14 413.689V444.281C1088.14 446.293 1087.45 447.985 1086.08 449.357C1084.8 450.637 1083.16 451.277 1081.14 451.277C1079.13 451.277 1077.44 450.637 1076.07 449.357C1074.79 447.985 1074.15 446.293 1074.15 444.281V439.19C1071.75 442.145 1068.91 444.665 1065.64 446.75C1060.34 450.043 1054.35 451.689 1047.67 451.689ZM1050.41 439.342C1055.08 439.342 1059.24 438.245 1062.9 436.05C1066.56 433.764 1069.44 430.7 1071.54 426.859C1073.64 422.926 1074.7 418.536 1074.7 413.689C1074.7 408.751 1073.64 404.361 1071.54 400.52C1069.44 396.587 1066.56 393.523 1062.9 391.328C1059.24 389.042 1055.08 387.899 1050.41 387.899C1045.84 387.899 1041.68 389.042 1037.93 391.328C1034.27 393.523 1031.35 396.587 1029.15 400.52C1027.05 404.361 1026 408.751 1026 413.689C1026 418.536 1027.05 422.926 1029.15 426.859C1031.35 430.7 1034.27 433.764 1037.93 436.05C1041.68 438.245 1045.84 439.342 1050.41 439.342ZM815.087 446.75C820.849 450.043 827.388 451.689 834.704 451.689C844.582 451.689 852.813 448.625 859.397 442.498C860.678 441.217 861.226 439.8 861.044 438.245C860.861 436.599 859.992 435.135 858.437 433.855C857.248 432.849 855.876 432.438 854.322 432.62C852.767 432.712 851.258 433.352 849.794 434.541C847.782 436.187 845.542 437.422 843.073 438.245C840.695 438.977 837.905 439.342 834.704 439.342C829.857 439.342 825.604 438.245 821.946 436.05C818.288 433.764 815.407 430.7 813.304 426.859C811.292 423.018 810.286 418.628 810.286 413.689C810.286 408.476 811.292 403.949 813.304 400.108C815.316 396.267 818.105 393.295 821.672 391.191C825.239 388.996 829.354 387.899 834.018 387.899C840.695 387.899 846.273 390.276 850.755 395.032C852.035 396.313 853.453 397.136 855.007 397.501C856.562 397.776 857.98 397.456 859.26 396.541C860.906 395.352 861.912 393.98 862.278 392.426C862.644 390.871 862.187 389.362 860.906 387.899C857.34 383.783 853.316 380.719 848.834 378.707C844.353 376.604 839.414 375.552 834.018 375.552C826.793 375.552 820.392 377.198 814.813 380.491C809.234 383.692 804.844 388.173 801.643 393.935C798.442 399.696 796.842 406.281 796.842 413.689C796.842 420.914 798.442 427.407 801.643 433.169C804.936 438.839 809.417 443.367 815.087 446.75ZM747.62 451.689C740.212 451.689 733.673 450.088 728.002 446.888C722.332 443.595 717.851 439.114 714.559 433.444C711.358 427.682 709.757 421.097 709.757 413.689C709.757 406.19 711.358 399.605 714.559 393.935C717.851 388.173 722.332 383.692 728.002 380.491C733.673 377.198 740.212 375.552 747.62 375.552C754.936 375.552 761.43 377.198 767.1 380.491C772.77 383.692 777.206 388.173 780.407 393.935C783.699 399.605 785.345 406.19 785.345 413.689C785.345 421.097 783.745 427.682 780.544 433.444C777.343 439.114 772.907 443.595 767.237 446.888C761.567 450.088 755.028 451.689 747.62 451.689ZM747.62 439.342C752.375 439.342 756.582 438.245 760.241 436.05C763.899 433.855 766.734 430.837 768.746 426.996C770.849 423.155 771.901 418.719 771.901 413.689C771.901 408.659 770.849 404.223 768.746 400.382C766.734 396.45 763.899 393.386 760.241 391.191C756.582 388.996 752.375 387.899 747.62 387.899C742.864 387.899 738.657 388.996 734.999 391.191C731.341 393.386 728.46 396.45 726.356 400.382C724.253 404.223 723.201 408.659 723.201 413.689C723.201 418.719 724.253 423.155 726.356 426.996C728.46 430.837 731.341 433.855 734.999 436.05C738.657 438.245 742.864 439.342 747.62 439.342Z" fill="#000000"/>
</g>
<defs>
<clipPath id="clip0_357_10119">
<rect width="1689" height="476" fill="#000000"/>
</clipPath>
</defs>
</svg>
