<svg alt="DocRaptor HTML TO PDF API" aria-labelledby="logo-title" class="fill-current" height="45" viewBox="0 0 58 45" width="58" xmlns="http://www.w3.org/2000/svg" xmlns:xlink="http://www.w3.org/1999/xlink" style="fill: #000000 !important;">
<title id="logo-title" style="fill: #000000 !important;">
DocRaptor HTML TO PDF API
</title>
<g stroke="#D6D6D6" stroke-width=".5" transform="translate(1 1)" style="fill: #000000 !important; stroke: rgb(214, 214, 214) !important; stroke-width: 0.5px !important;">
<path d="M37.674 13.96 34.482 31.019 23.328 42.408 23.219 23.71z" style="fill: #000000 !important; stroke: rgb(214, 214, 214) !important; stroke-width: 0.5px !important;"/>
<path d="M8.725 30.009 18.005 37.895 16.692 28.496 8.725 30.009" style="fill: #000000 !important; stroke: rgb(214, 214, 214) !important; stroke-width: 0.5px !important;"/>
<path d="M23.328 42.408 35.736 42.408 28.525 37.102 23.328 42.408" style="fill: #000000 !important; stroke: rgb(214, 214, 214) !important; stroke-width: 0.5px !important;"/>
<path d="M47.024 0 56 5.759 56 7.953 39.11 5.759 47.024 0" style="fill: #000000 !important; stroke: rgb(214, 214, 214) !important; stroke-width: 0.5px !important;"/>
<path d="M49.581 25.322 48.423 30.35 46.686 26.933 49.581 25.322" style="fill: #000000 !important; stroke: rgb(214, 214, 214) !important; stroke-width: 0.5px !important;"/>
<path d="M37.674 13.96 0 1.802 23.219 23.71 37.674 13.96" style="fill: #000000 !important; stroke: rgb(214, 214, 214) !important; stroke-width: 0.5px !important;"/>
<path d="M51.127 17.181 41.251 27.843 36.166 26.993 39.11 5.759 48.567 6.988z" style="fill: #000000 !important; stroke: rgb(214, 214, 214) !important; stroke-width: 0.5px !important;"/>
<path d="M49.581 25.322 44.353 17.159 36.619 14.497 34.292 27.23 43.316 28.808 49.581 25.322" style="fill: #000000 !important; stroke: rgb(214, 214, 214) !important; stroke-width: 0.5px !important;"/>
<path d="M23.24 27.252 8.725 30.009 17.716 18.517 23.219 23.71 23.24 27.252" style="fill: #000000 !important; stroke: rgb(214, 214, 214) !important; stroke-width: 0.5px !important;"/>
</g>
</svg>