<?xml version="1.0" encoding="UTF-8" standalone="no"?>
<!DOCTYPE svg PUBLIC "-//W3C//DTD SVG 1.1//EN" "http://www.w3.org/Graphics/SVG/1.1/DTD/svg11.dtd">
<svg xmlns="http://www.w3.org/2000/svg" version="1.1" viewBox="0.00 0.00 32.00 32.00">
<path fill="#3d8aff" d="
  M 25.13 7.35
  Q 25.30 7.47 25.30 7.52
  Q 25.29 10.54 25.10 13.10
  A 0.53 0.52 -78.5 0 1 24.41 13.56
  Q 23.74 13.32 22.84 12.55
  A 0.69 0.68 35.5 0 1 22.69 11.67
  Q 24.14 9.25 23.91 9.09
  Q 23.68 8.93 21.92 11.13
  A 0.69 0.68 34.3 0 1 21.03 11.29
  Q 20.00 10.71 19.54 10.17
  A 0.53 0.52 -31.8 0 1 19.74 9.36
  Q 22.07 8.30 24.91 7.25
  Q 24.96 7.23 25.13 7.35
  Z"
/>
<path fill="#3d8aff" d="
  M 14.12 17.82
  C 13.15 15.38 10.91 13.69 8.21 14.03
  C 4.87 14.45 2.76 17.72 3.71 20.79
  C 5.28 25.83 11.28 25.84 13.81 21.55
  Q 13.98 21.25 19.50 13.54
  A 0.77 0.77 0.0 0 1 20.68 13.45
  L 20.74 13.51
  A 1.14 1.14 0.0 0 1 20.84 14.97
  Q 17.59 19.46 16.09 21.75
  Q 13.77 25.31 11.84 26.06
  C 5.10 28.70 -1.46 21.36 2.84 15.25
  C 6.10 10.61 12.60 11.13 15.28 15.84
  A 0.79 0.79 0.0 0 1 15.28 16.62
  L 14.57 17.86
  A 0.25 0.25 0.0 0 1 14.12 17.82
  Z"
/>
<path fill="#3d8aff" d="
  M 19.25 22.77
  L 17.26 26.23
  A 0.82 0.82 0.0 0 1 16.09 26.50
  L 15.82 26.31
  A 0.96 0.95 -54.8 0 1 15.60 25.01
  Q 19.15 19.72 21.07 17.14
  Q 22.59 15.09 25.98 15.39
  C 32.05 15.93 31.94 25.59 25.21 25.98
  Q 22.12 26.16 20.16 22.77
  A 0.53 0.53 0.0 0 0 19.25 22.77
  Z
  M 28.49 20.65
  A 3.40 3.40 0.0 0 0 25.09 17.25
  A 3.40 3.40 0.0 0 0 21.69 20.65
  A 3.40 3.40 0.0 0 0 25.09 24.05
  A 3.40 3.40 0.0 0 0 28.49 20.65
  Z"
/>
</svg>
