<?xml version="1.0" encoding="UTF-8" standalone="no"?>
<!DOCTYPE svg PUBLIC "-//W3C//DTD SVG 1.1//EN" "http://www.w3.org/Graphics/SVG/1.1/DTD/svg11.dtd">
<svg xmlns="http://www.w3.org/2000/svg" version="1.1" viewBox="0.00 0.00 32.00 32.00">
<path fill="#000000" d="
  M 16.05 2.96
  Q 17.40 2.97 17.92 3.64
  Q 19.90 6.22 23.46 5.98
  Q 24.57 5.90 25.37 6.71
  Q 26.16 7.50 26.07 8.61
  Q 25.81 12.17 28.37 14.17
  Q 29.04 14.70 29.04 16.04
  Q 29.03 17.40 28.35 17.92
  Q 25.78 19.89 26.02 23.46
  Q 26.09 24.57 25.28 25.37
  Q 24.49 26.15 23.39 26.07
  Q 19.82 25.81 17.82 28.37
  Q 17.30 29.04 15.95 29.03
  Q 14.60 29.03 14.08 28.35
  Q 12.10 25.78 8.54 26.01
  Q 7.43 26.09 6.63 25.28
  Q 5.84 24.49 5.92 23.38
  Q 6.19 19.82 3.63 17.82
  Q 2.96 17.30 2.96 15.95
  Q 2.97 14.60 3.64 14.08
  Q 6.22 12.10 5.98 8.53
  Q 5.91 7.42 6.70 6.64
  Q 7.50 5.84 8.61 5.92
  Q 12.18 6.19 14.17 3.63
  Q 14.70 2.96 16.05 2.96
  Z
  M 7.81 24.16
  Q 8.49 24.85 9.46 24.78
  Q 12.58 24.57 14.31 26.83
  Q 14.76 27.42 15.95 27.42
  Q 17.12 27.43 17.58 26.84
  Q 19.33 24.60 22.45 24.83
  Q 23.42 24.91 24.11 24.22
  Q 24.81 23.52 24.75 22.55
  Q 24.54 19.43 26.79 17.70
  Q 27.38 17.25 27.39 16.07
  Q 27.39 14.89 26.81 14.43
  Q 24.57 12.68 24.80 9.57
  Q 24.87 8.60 24.19 7.91
  Q 23.49 7.20 22.52 7.26
  Q 19.40 7.47 17.67 5.22
  Q 17.22 4.63 16.03 4.62
  Q 14.85 4.62 14.40 5.21
  Q 12.65 7.45 9.53 7.21
  Q 8.56 7.14 7.87 7.83
  Q 7.17 8.53 7.23 9.50
  Q 7.44 12.62 5.19 14.34
  Q 4.60 14.80 4.59 15.98
  Q 4.59 17.16 5.17 17.62
  Q 7.41 19.36 7.18 22.48
  Q 7.11 23.45 7.81 24.16
  Z"
/>
<path fill="#000000" d="
  M 16.01 7.68
  C 17.19 7.68 17.62 8.80 18.79 9.29
  C 19.96 9.77 21.06 9.28 21.89 10.11
  C 22.72 10.94 22.22 12.04 22.71 13.21
  C 23.19 14.38 24.32 14.81 24.32 15.98
  C 24.32 17.16 23.19 17.59 22.71 18.76
  C 22.23 19.93 22.72 21.03 21.89 21.86
  C 21.06 22.69 19.96 22.19 18.79 22.68
  C 17.62 23.16 17.19 24.29 16.01 24.29
  C 14.84 24.29 14.41 23.16 13.24 22.68
  C 12.07 22.20 10.97 22.69 10.14 21.86
  C 9.31 21.03 9.80 19.93 9.32 18.76
  C 8.83 17.59 7.71 17.16 7.71 15.98
  C 7.71 14.81 8.83 14.38 9.32 13.21
  C 9.80 12.04 9.31 10.94 10.14 10.11
  C 10.97 9.28 12.07 9.77 13.24 9.29
  C 14.41 8.80 14.84 7.68 16.01 7.68
  Z
  M 11.10 11.13
  Q 10.86 11.37 10.88 11.54
  Q 11.16 13.84 9.38 15.40
  Q 9.19 15.56 9.19 16.02
  Q 9.19 16.48 9.38 16.64
  Q 11.17 18.18 10.91 20.48
  Q 10.89 20.65 11.13 20.90
  Q 11.37 21.14 11.54 21.12
  Q 13.84 20.84 15.40 22.62
  Q 15.56 22.80 16.02 22.80
  Q 16.48 22.80 16.64 22.62
  Q 18.19 20.82 20.49 21.09
  Q 20.65 21.11 20.90 20.86
  Q 21.14 20.62 21.12 20.45
  Q 20.84 18.15 22.62 16.59
  Q 22.81 16.43 22.80 15.97
  Q 22.80 15.52 22.62 15.36
  Q 20.82 13.81 21.09 11.51
  Q 21.11 11.34 20.87 11.10
  Q 20.62 10.85 20.45 10.88
  Q 18.16 11.16 16.60 9.37
  Q 16.44 9.19 15.98 9.19
  Q 15.52 9.19 15.36 9.38
  Q 13.81 11.17 11.51 10.90
  Q 11.34 10.88 11.10 11.13
  Z"
/>
</svg>
