<svg width="128" height="128" viewBox="0 0 128 128" fill="none" xmlns="http://www.w3.org/2000/svg">
<g clip-path="url(#clip0_60_20608)">
<path d="M92.1838 92.1179V124.828C92.1838 126.546 90.7961 127.934 89.078 127.934H3.10583C1.38771 127.934 0 126.546 0 124.828V38.9223C0 37.2042 1.38771 35.8164 3.10583 35.8164H35.7501V89.0121C35.7501 90.7302 37.1378 92.1179 38.856 92.1179H92.1838Z" fill="#4C00FF"/>
<path d="M128 45.993C128 73.4829 111.942 92.0518 92.1835 92.1179V57.4911C92.1835 56.4999 91.787 55.5087 91.0601 54.8479L73.0859 36.8737C72.359 36.1468 71.4339 35.7503 70.4427 35.7503H35.8159V3.10601C35.8159 1.38789 37.2036 0.000176428 38.9218 0.000176428H87.3595C110.356 -0.0659051 128 18.4369 128 45.993Z" fill="#FF5252"/>
<path d="M91.0601 54.7818C91.787 55.5087 92.1835 56.4338 92.1835 57.425V92.0518H38.9218C37.2036 92.0518 35.8159 90.6641 35.8159 88.9459V35.7503H70.4427C71.4339 35.7503 72.4251 36.1468 73.0859 36.8737L91.0601 54.7818Z" fill="black"/>
</g>
<defs>
<clipPath id="clip0_60_20608">
<rect width="128" height="128" fill="white"/>
</clipPath>
</defs>
</svg>
