<?xml version="1.0" encoding="UTF-8" standalone="no"?>
<!DOCTYPE svg PUBLIC "-//W3C//DTD SVG 1.1//EN" "http://www.w3.org/Graphics/SVG/1.1/DTD/svg11.dtd">
<svg xmlns="http://www.w3.org/2000/svg" version="1.1" viewBox="0.00 0.00 180.00 180.00">
<path stroke="#ffe187" stroke-width="2.00" fill="none" stroke-linecap="butt" vector-effect="non-scaling-stroke" d="
  M 89.98 85.55
  C 100.79 85.54 106.71 92.51 110.25 102.03
  A 3.27 3.18 -72.8 0 0 110.56 102.65
  C 117.75 113.30 134.60 109.09 135.41 95.86
  Q 135.64 92.14 132.45 86.06
  C 123.78 69.53 109.09 58.92 89.97 58.93
  C 70.85 58.94 56.17 69.57 47.51 86.10
  Q 44.33 92.18 44.56 95.90
  C 45.39 109.13 62.24 113.33 69.42 102.67
  A 3.27 3.18 72.8 0 0 69.73 102.05
  C 73.26 92.52 79.18 85.55 89.98 85.55"
/>
<path fill="#ffc20e" d="
  M 180.00 0.00
  L 180.00 180.00
  L 0.00 180.00
  L 0.00 0.00
  L 180.00 0.00
  Z
  M 89.98 85.55
  C 100.79 85.54 106.71 92.51 110.25 102.03
  A 3.27 3.18 -72.8 0 0 110.56 102.65
  C 117.75 113.30 134.60 109.09 135.41 95.86
  Q 135.64 92.14 132.45 86.06
  C 123.78 69.53 109.09 58.92 89.97 58.93
  C 70.85 58.94 56.17 69.57 47.51 86.10
  Q 44.33 92.18 44.56 95.90
  C 45.39 109.13 62.24 113.33 69.42 102.67
  A 3.27 3.18 72.8 0 0 69.73 102.05
  C 73.26 92.52 79.18 85.55 89.98 85.55
  Z"
/>
<path fill="#ffffff" d="
  M 89.97 58.93
  C 109.09 58.92 123.78 69.53 132.45 86.06
  Q 135.64 92.14 135.41 95.86
  C 134.60 109.09 117.75 113.30 110.56 102.65
  A 3.27 3.18 -72.8 0 1 110.25 102.03
  C 106.71 92.51 100.79 85.54 89.98 85.55
  C 79.18 85.55 73.26 92.52 69.73 102.05
  A 3.27 3.18 72.8 0 1 69.42 102.67
  C 62.24 113.33 45.39 109.13 44.56 95.90
  Q 44.33 92.18 47.51 86.10
  C 56.17 69.57 70.85 58.94 89.97 58.93
  Z"
/>
</svg>
