<?xml version="1.0" encoding="UTF-8" standalone="no"?>
<!DOCTYPE svg PUBLIC "-//W3C//DTD SVG 1.1//EN" "http://www.w3.org/Graphics/SVG/1.1/DTD/svg11.dtd">
<svg xmlns="http://www.w3.org/2000/svg" version="1.1" viewBox="0.00 0.00 421.00 422.00">
<g stroke-width="2.00" fill="none" stroke-linecap="butt">
<path stroke="#c79ec6" vector-effect="non-scaling-stroke" d="
  M 158.90 175.45
  C 169.94 195.72 190.53 207.45 212.25 213.24
  Q 238.30 220.18 264.17 226.94"
/>
<path stroke="#be9ec6" vector-effect="non-scaling-stroke" d="
  M 264.17 226.94
  Q 269.45 229.03 273.98 231.77
  C 286.70 239.43 286.16 255.89 273.22 262.97
  C 259.01 270.75 239.40 269.02 225.19 263.26
  C 209.59 256.95 197.95 243.83 190.70 228.84
  A 1.12 1.12 0.0 0 0 189.23 228.31
  L 143.11 249.69
  A 0.79 0.79 0.0 0 0 142.70 250.67
  C 161.36 303.10 217.34 322.62 268.78 316.32
  C 306.52 311.71 342.71 289.73 345.33 248.80
  C 347.22 219.12 330.62 196.28 304.28 184.13"
/>
<path stroke="#c79ec6" vector-effect="non-scaling-stroke" d="
  M 304.28 184.13
  Q 293.86 179.26 287.07 177.40
  Q 246.84 166.43 239.20 164.59
  C 229.05 162.14 214.18 156.86 214.25 143.99
  C 214.33 126.39 234.41 124.18 247.42 124.53
  C 269.00 125.09 288.58 135.69 297.20 155.90
  A 0.67 0.67 0.0 0 0 298.10 156.25
  L 344.93 134.55
  A 0.73 0.72 66.4 0 0 345.29 133.61
  C 330.67 98.09 297.16 77.18 259.06 73.69"
/>
<path stroke="#d19abf" vector-effect="non-scaling-stroke" d="
  M 259.06 73.69
  C 237.19 71.28 213.96 73.81 194.00 83.02
  C 169.99 94.10 153.81 114.53 152.08 141.51
  C 151.34 153.11 153.43 165.18 158.90 175.45"
/>
<path stroke="#993986" vector-effect="non-scaling-stroke" d="
  M 259.06 73.69
  Q 227.33 111.60 209.46 129.79
  C 193.48 146.04 176.41 160.80 158.90 175.45"
/>
<path stroke="#863c8d" vector-effect="non-scaling-stroke" d="
  M 304.28 184.13
  Q 297.12 195.18 290.38 203.59
  Q 279.48 217.19 264.17 226.94"
/>
<path stroke="#c79ec6" vector-effect="non-scaling-stroke" d="
  M 129.27 283.53
  A 37.54 37.54 0.0 0 0 91.73 245.99
  A 37.54 37.54 0.0 0 0 54.19 283.53
  A 37.54 37.54 0.0 0 0 91.73 321.07
  A 37.54 37.54 0.0 0 0 129.27 283.53"
/>
</g>
<path fill="#ffffff" d="
  M 421.00 0.00
  L 421.00 422.00
  L 0.00 422.00
  L 0.00 0.00
  L 421.00 0.00
  Z
  M 158.90 175.45
  C 169.94 195.72 190.53 207.45 212.25 213.24
  Q 238.30 220.18 264.17 226.94
  Q 269.45 229.03 273.98 231.77
  C 286.70 239.43 286.16 255.89 273.22 262.97
  C 259.01 270.75 239.40 269.02 225.19 263.26
  C 209.59 256.95 197.95 243.83 190.70 228.84
  A 1.12 1.12 0.0 0 0 189.23 228.31
  L 143.11 249.69
  A 0.79 0.79 0.0 0 0 142.70 250.67
  C 161.36 303.10 217.34 322.62 268.78 316.32
  C 306.52 311.71 342.71 289.73 345.33 248.80
  C 347.22 219.12 330.62 196.28 304.28 184.13
  Q 293.86 179.26 287.07 177.40
  Q 246.84 166.43 239.20 164.59
  C 229.05 162.14 214.18 156.86 214.25 143.99
  C 214.33 126.39 234.41 124.18 247.42 124.53
  C 269.00 125.09 288.58 135.69 297.20 155.90
  A 0.67 0.67 0.0 0 0 298.10 156.25
  L 344.93 134.55
  A 0.73 0.72 66.4 0 0 345.29 133.61
  C 330.67 98.09 297.16 77.18 259.06 73.69
  C 237.19 71.28 213.96 73.81 194.00 83.02
  C 169.99 94.10 153.81 114.53 152.08 141.51
  C 151.34 153.11 153.43 165.18 158.90 175.45
  Z
  M 129.27 283.53
  A 37.54 37.54 0.0 0 0 91.73 245.99
  A 37.54 37.54 0.0 0 0 54.19 283.53
  A 37.54 37.54 0.0 0 0 91.73 321.07
  A 37.54 37.54 0.0 0 0 129.27 283.53
  Z"
/>
<path fill="#a3357f" d="
  M 259.06 73.69
  Q 227.33 111.60 209.46 129.79
  C 193.48 146.04 176.41 160.80 158.90 175.45
  C 153.43 165.18 151.34 153.11 152.08 141.51
  C 153.81 114.53 169.99 94.10 194.00 83.02
  C 213.96 73.81 237.19 71.28 259.06 73.69
  Z"
/>
<path fill="#8f3c8c" d="
  M 304.28 184.13
  Q 297.12 195.18 290.38 203.59
  Q 279.48 217.19 264.17 226.94
  Q 238.30 220.18 212.25 213.24
  C 190.53 207.45 169.94 195.72 158.90 175.45
  C 176.41 160.80 193.48 146.04 209.46 129.79
  Q 227.33 111.60 259.06 73.69
  C 297.16 77.18 330.67 98.09 345.29 133.61
  A 0.73 0.72 66.4 0 1 344.93 134.55
  L 298.10 156.25
  A 0.67 0.67 0.0 0 1 297.20 155.90
  C 288.58 135.69 269.00 125.09 247.42 124.53
  C 234.41 124.18 214.33 126.39 214.25 143.99
  C 214.18 156.86 229.05 162.14 239.20 164.59
  Q 246.84 166.43 287.07 177.40
  Q 293.86 179.26 304.28 184.13
  Z"
/>
<path fill="#7c3c8d" d="
  M 264.17 226.94
  Q 279.48 217.19 290.38 203.59
  Q 297.12 195.18 304.28 184.13
  C 330.62 196.28 347.22 219.12 345.33 248.80
  C 342.71 289.73 306.52 311.71 268.78 316.32
  C 217.34 322.62 161.36 303.10 142.70 250.67
  A 0.79 0.79 0.0 0 1 143.11 249.69
  L 189.23 228.31
  A 1.12 1.12 0.0 0 1 190.70 228.84
  C 197.95 243.83 209.59 256.95 225.19 263.26
  C 239.40 269.02 259.01 270.75 273.22 262.97
  C 286.16 255.89 286.70 239.43 273.98 231.77
  Q 269.45 229.03 264.17 226.94
  Z"
/>
<circle fill="#8f3c8c" cx="91.73" cy="283.53" r="37.54"/>
</svg>
