<svg width="32" height="32" viewBox="0 0 32 32" fill="none" xmlns="http://www.w3.org/2000/svg">
<g id="Draftable-Favicon">
<rect width="32" height="32" fill="#0A2B5C"/>
<g id="Group 9121">
<path id="Vector" d="M9.49376 20.4029H6.53476C6.24955 20.4029 6 20.1533 6 19.8681C6 19.5829 6.24955 19.3333 6.53476 19.3333H9.49376C13.4153 19.3333 16.6239 16.5882 16.6239 13.2014C16.6239 9.81462 13.4153 7.06952 9.49376 7.06952H6.53476C6.24955 7.06952 6 6.85562 6 6.53476C6 6.24955 6.24955 6 6.53476 6H9.49376C14.0214 6 17.6934 9.24421 17.6934 13.2014C17.6934 17.1943 14.0214 20.4029 9.49376 20.4029Z" fill="#69B2F9"/>
<path id="Vector_2" d="M9.85027 22.2567H6.53476C6.24955 22.2567 6 22.0071 6 21.7219C6 21.4367 6.24955 21.1872 6.53476 21.1872H9.85027C16.7665 21.1872 22.221 16.5169 22.221 10.5276C22.221 10.1355 22.1854 9.77896 22.1497 9.3868C22.1141 9.1016 22.328 8.81639 22.6132 8.78074C22.8984 8.74509 23.1836 8.959 23.2193 9.2442C23.2549 9.67201 23.2906 10.0642 23.2906 10.492C23.2906 17.0873 17.4082 22.2567 9.85027 22.2567Z" fill="#69B2F9"/>
<path id="Vector_3" d="M9.85027 24.075H6.53476C6.24955 24.075 6 23.8255 6 23.5403C6 23.2551 6.24955 23.0055 6.53476 23.0055H9.85027C15.3048 23.0055 20.5811 21.5439 25.0731 18.7988C25.3226 18.6562 25.6792 18.7275 25.8218 18.977C25.9644 19.2266 25.8931 19.5831 25.6435 19.7257C20.9733 22.5777 15.5187 24.075 9.85027 24.075Z" fill="#69B2F9"/>
<path id="Vector_4" d="M25.4652 25.9286H6.53476C6.24955 25.9286 6 25.679 6 25.3938C6 25.1086 6.24955 24.8591 6.53476 24.8591H25.4652C25.7504 24.8591 26 25.1086 26 25.3938C26 25.679 25.7504 25.9286 25.4652 25.9286Z" fill="#69B2F9"/>
</g>
</g>
</svg>
