<?xml version="1.0" encoding="UTF-8" standalone="no"?>
<!DOCTYPE svg PUBLIC "-//W3C//DTD SVG 1.1//EN" "http://www.w3.org/Graphics/SVG/1.1/DTD/svg11.dtd">
<svg xmlns="http://www.w3.org/2000/svg" version="1.1" viewBox="0.00 0.00 400.00 400.00">
<g stroke-width="2.00" fill="none" stroke-linecap="butt">
<path stroke="#a3cbf2" vector-effect="non-scaling-stroke" d="
  M 88.96 234.30
  C 98.33 253.65 115.68 267.90 136.57 273.15"
/>
<path stroke="#c1b2f3" vector-effect="non-scaling-stroke" d="
  M 136.57 273.15
  L 143.80 274.62
  A 0.88 0.87 -84.1 0 1 144.50 275.49
  Q 144.45 282.47 144.49 296.43
  C 144.51 301.08 145.36 304.78 149.23 306.83
  Q 155.35 310.06 160.64 305.64
  Q 178.00 291.14 195.00 276.74
  Q 196.28 275.66 199.21 275.47"
/>
<path stroke="#d3ade1" vector-effect="non-scaling-stroke" d="
  M 199.21 275.47
  L 229.52 275.44"
/>
<path stroke="#e7a7ca" vector-effect="non-scaling-stroke" d="
  M 229.52 275.44
  C 272.66 273.69 307.80 243.69 316.55 201.49"
/>
<path stroke="#dcaad6" vector-effect="non-scaling-stroke" d="
  M 316.55 201.49
  Q 319.39 187.13 317.52 172.42"
/>
<path stroke="#adc1f4" vector-effect="non-scaling-stroke" d="
  M 317.52 172.42
  C 312.88 133.65 284.04 102.43 246.04 93.94"
/>
<path stroke="#9cd2ef" vector-effect="non-scaling-stroke" d="
  M 246.04 93.94
  Q 233.87 91.39 221.14 91.94"
/>
<path stroke="#8ce1ec" vector-effect="non-scaling-stroke" d="
  M 221.14 91.94
  Q 201.70 91.80 182.06 92.01
  Q 171.85 92.12 171.86 102.29
  Q 171.88 127.85 171.87 129.19
  A 0.65 0.65 0.0 0 1 171.21 129.83
  Q 160.67 129.67 150.27 129.97
  Q 138.27 130.32 125.23 136.00
  C 87.96 152.26 70.85 196.94 88.96 234.30"
/>
<path stroke="#29b3dc" vector-effect="non-scaling-stroke" d="
  M 221.14 91.94
  C 218.60 102.74 211.36 108.55 200.65 110.97"
/>
<path stroke="#8ce1ec" vector-effect="non-scaling-stroke" d="
  M 200.65 110.97
  L 191.94 111.03
  A 0.75 0.75 0.0 0 0 191.20 111.78
  L 191.26 129.78"
/>
<path stroke="#29b3dc" vector-effect="non-scaling-stroke" d="
  M 191.26 129.78
  L 172.16 149.39"
/>
<path stroke="#8ce1ec" vector-effect="non-scaling-stroke" d="
  M 172.16 149.39
  Q 157.17 147.85 146.94 149.35
  C 125.18 152.54 107.83 168.56 102.48 189.61
  Q 98.68 204.57 103.73 220.49"
/>
<path stroke="#30adde" vector-effect="non-scaling-stroke" d="
  M 103.73 220.49
  Q 97.05 228.06 88.96 234.30"
/>
<path stroke="#4994e4" vector-effect="non-scaling-stroke" d="
  M 246.04 93.94
  Q 241.49 103.26 235.51 111.30"
/>
<path stroke="#9cd2ef" vector-effect="non-scaling-stroke" d="
  M 235.51 111.30
  L 200.65 110.97"
/>
<path stroke="#657ee5" vector-effect="non-scaling-stroke" d="
  M 148.95 256.25
  Q 141.42 263.48 136.57 273.15"
/>
<path stroke="#dcaad6" vector-effect="non-scaling-stroke" d="
  M 299.12 184.44
  Q 298.70 208.66 284.20 227.90"
/>
<path stroke="#e7a7ca" vector-effect="non-scaling-stroke" d="
  M 284.20 227.90
  Q 268.72 247.59 244.52 254.15"
/>
<path stroke="#d3ade1" vector-effect="non-scaling-stroke" d="
  M 244.52 254.15
  C 233.61 256.90 222.66 256.53 211.59 256.49"
/>
<path stroke="#c1b2f3" vector-effect="non-scaling-stroke" d="
  M 211.59 256.49
  Q 203.73 256.38 196.00 256.49
  C 190.88 256.56 188.71 256.85 185.22 260.07
  Q 184.80 260.46 164.38 277.57
  A 0.57 0.57 0.0 0 1 163.45 277.09
  Q 163.93 271.18 163.34 264.85
  C 162.58 256.83 155.61 256.31 148.95 256.25"
/>
<path stroke="#a3cbf2" vector-effect="non-scaling-stroke" d="
  M 148.95 256.25
  Q 119.48 252.04 106.29 225.79
  Q 104.99 223.19 103.73 220.49"
/>
<path stroke="#9cd2ef" vector-effect="non-scaling-stroke" d="
  M 172.16 149.39
  L 172.00 189.32"
/>
<path stroke="#adc1f4" vector-effect="non-scaling-stroke" d="
  M 172.00 189.32
  Q 171.87 206.77 171.99 224.28
  Q 172.04 230.71 173.23 233.05
  Q 175.30 237.09 180.54 237.42
  Q 185.77 237.75 203.69 237.50"
/>
<path stroke="#c1b2f3" vector-effect="non-scaling-stroke" d="
  M 203.69 237.50
  Q 212.89 237.63 222.07 237.54
  Q 234.12 237.42 240.29 235.79
  C 278.46 225.67 293.12 179.13 267.52 148.70"
/>
<path stroke="#adc1f4" vector-effect="non-scaling-stroke" d="
  M 267.52 148.70
  Q 252.37 131.40 229.40 129.88"
/>
<path stroke="#9cd2ef" vector-effect="non-scaling-stroke" d="
  M 229.40 129.88
  L 191.26 129.78"
/>
<path stroke="#4994e4" vector-effect="non-scaling-stroke" d="
  M 229.40 129.88
  L 216.40 148.79"
/>
<path stroke="#9cd2ef" vector-effect="non-scaling-stroke" d="
  M 216.40 148.79
  L 191.66 148.78
  A 0.57 0.57 0.0 0 0 191.09 149.35
  L 191.05 173.20"
/>
<path stroke="#4994e4" vector-effect="non-scaling-stroke" d="
  M 191.05 173.20
  Q 182.02 181.90 172.00 189.32"
/>
<path stroke="#896ccb" vector-effect="non-scaling-stroke" d="
  M 317.52 172.42
  L 299.12 184.44"
/>
<path stroke="#adc1f4" vector-effect="non-scaling-stroke" d="
  M 299.12 184.44
  Q 299.36 169.27 293.94 156.56
  Q 277.66 118.36 235.51 111.30"
/>
<path stroke="#bb55ac" vector-effect="non-scaling-stroke" d="
  M 229.52 275.44
  L 244.52 254.15"
/>
<path stroke="#6f74e8" vector-effect="non-scaling-stroke" d="
  M 267.52 148.70
  L 254.40 162.88"
/>
<path stroke="#adc1f4" vector-effect="non-scaling-stroke" d="
  M 254.40 162.88
  Q 244.12 149.55 227.97 148.89
  Q 225.25 148.78 216.40 148.79"
/>
<path stroke="#955fd5" vector-effect="non-scaling-stroke" d="
  M 199.21 275.47
  L 211.59 256.49"
/>
<path stroke="#c452a1" vector-effect="non-scaling-stroke" d="
  M 316.55 201.49
  Q 298.74 212.86 284.20 227.90"
/>
<path stroke="#6f74e8" vector-effect="non-scaling-stroke" d="
  M 203.69 237.50
  L 215.25 218.54"
/>
<path stroke="#c1b2f3" vector-effect="non-scaling-stroke" d="
  M 254.40 162.88
  C 270.22 185.30 257.20 214.54 230.26 218.28
  C 226.10 218.86 220.14 218.43 215.25 218.54"
/>
<path stroke="#adc1f4" vector-effect="non-scaling-stroke" d="
  M 215.25 218.54
  L 191.61 218.48
  A 0.60 0.59 90.0 0 1 191.02 217.88
  L 191.05 173.20"
/>
</g>
<path fill="#ffffff" d="
  M 400.00 0.00
  L 400.00 400.00
  L 0.00 400.00
  L 0.00 0.00
  L 400.00 0.00
  Z
  M 88.96 234.30
  C 98.33 253.65 115.68 267.90 136.57 273.15
  L 143.80 274.62
  A 0.88 0.87 -84.1 0 1 144.50 275.49
  Q 144.45 282.47 144.49 296.43
  C 144.51 301.08 145.36 304.78 149.23 306.83
  Q 155.35 310.06 160.64 305.64
  Q 178.00 291.14 195.00 276.74
  Q 196.28 275.66 199.21 275.47
  L 229.52 275.44
  C 272.66 273.69 307.80 243.69 316.55 201.49
  Q 319.39 187.13 317.52 172.42
  C 312.88 133.65 284.04 102.43 246.04 93.94
  Q 233.87 91.39 221.14 91.94
  Q 201.70 91.80 182.06 92.01
  Q 171.85 92.12 171.86 102.29
  Q 171.88 127.85 171.87 129.19
  A 0.65 0.65 0.0 0 1 171.21 129.83
  Q 160.67 129.67 150.27 129.97
  Q 138.27 130.32 125.23 136.00
  C 87.96 152.26 70.85 196.94 88.96 234.30
  Z"
/>
<path fill="#19c2d8" d="
  M 221.14 91.94
  C 218.60 102.74 211.36 108.55 200.65 110.97
  L 191.94 111.03
  A 0.75 0.75 0.0 0 0 191.20 111.78
  L 191.26 129.78
  L 172.16 149.39
  Q 157.17 147.85 146.94 149.35
  C 125.18 152.54 107.83 168.56 102.48 189.61
  Q 98.68 204.57 103.73 220.49
  Q 97.05 228.06 88.96 234.30
  C 70.85 196.94 87.96 152.26 125.23 136.00
  Q 138.27 130.32 150.27 129.97
  Q 160.67 129.67 171.21 129.83
  A 0.65 0.65 0.0 0 0 171.87 129.19
  Q 171.88 127.85 171.86 102.29
  Q 171.85 92.12 182.06 92.01
  Q 201.70 91.80 221.14 91.94
  Z"
/>
<path fill="#38a4df" d="
  M 246.04 93.94
  Q 241.49 103.26 235.51 111.30
  L 200.65 110.97
  C 211.36 108.55 218.60 102.74 221.14 91.94
  Q 233.87 91.39 246.04 93.94
  Z"
/>
<path fill="#5a83e9" d="
  M 317.52 172.42
  L 299.12 184.44
  Q 299.36 169.27 293.94 156.56
  Q 277.66 118.36 235.51 111.30
  Q 241.49 103.26 246.04 93.94
  C 284.04 102.43 312.88 133.65 317.52 172.42
  Z"
/>
<path fill="#ffffff" d="
  M 200.65 110.97
  L 235.51 111.30
  Q 277.66 118.36 293.94 156.56
  Q 299.36 169.27 299.12 184.44
  Q 298.70 208.66 284.20 227.90
  Q 268.72 247.59 244.52 254.15
  C 233.61 256.90 222.66 256.53 211.59 256.49
  Q 203.73 256.38 196.00 256.49
  C 190.88 256.56 188.71 256.85 185.22 260.07
  Q 184.80 260.46 164.38 277.57
  A 0.57 0.57 0.0 0 1 163.45 277.09
  Q 163.93 271.18 163.34 264.85
  C 162.58 256.83 155.61 256.31 148.95 256.25
  Q 119.48 252.04 106.29 225.79
  Q 104.99 223.19 103.73 220.49
  Q 98.68 204.57 102.48 189.61
  C 107.83 168.56 125.18 152.54 146.94 149.35
  Q 157.17 147.85 172.16 149.39
  L 172.00 189.32
  Q 171.87 206.77 171.99 224.28
  Q 172.04 230.71 173.23 233.05
  Q 175.30 237.09 180.54 237.42
  Q 185.77 237.75 203.69 237.50
  Q 212.89 237.63 222.07 237.54
  Q 234.12 237.42 240.29 235.79
  C 278.46 225.67 293.12 179.13 267.52 148.70
  Q 252.37 131.40 229.40 129.88
  L 191.26 129.78
  L 191.20 111.78
  A 0.75 0.75 0.0 0 1 191.94 111.03
  L 200.65 110.97
  Z"
/>
<path fill="#38a4df" d="
  M 191.26 129.78
  L 229.40 129.88
  L 216.40 148.79
  L 191.66 148.78
  A 0.57 0.57 0.0 0 0 191.09 149.35
  L 191.05 173.20
  Q 182.02 181.90 172.00 189.32
  L 172.16 149.39
  L 191.26 129.78
  Z"
/>
<path fill="#5a83e9" d="
  M 267.52 148.70
  L 254.40 162.88
  Q 244.12 149.55 227.97 148.89
  Q 225.25 148.78 216.40 148.79
  L 229.40 129.88
  Q 252.37 131.40 267.52 148.70
  Z"
/>
<path fill="#ffffff" d="
  M 216.40 148.79
  Q 225.25 148.78 227.97 148.89
  Q 244.12 149.55 254.40 162.88
  C 270.22 185.30 257.20 214.54 230.26 218.28
  C 226.10 218.86 220.14 218.43 215.25 218.54
  L 191.61 218.48
  A 0.60 0.59 90.0 0 1 191.02 217.88
  L 191.05 173.20
  L 191.09 149.35
  A 0.57 0.57 0.0 0 1 191.66 148.78
  L 216.40 148.79
  Z"
/>
<path fill="#8364e6" d="
  M 267.52 148.70
  C 293.12 179.13 278.46 225.67 240.29 235.79
  Q 234.12 237.42 222.07 237.54
  Q 212.89 237.63 203.69 237.50
  L 215.25 218.54
  C 220.14 218.43 226.10 218.86 230.26 218.28
  C 257.20 214.54 270.22 185.30 254.40 162.88
  L 267.52 148.70
  Z"
/>
<path fill="#b855ac" d="
  M 317.52 172.42
  Q 319.39 187.13 316.55 201.49
  Q 298.74 212.86 284.20 227.90
  Q 298.70 208.66 299.12 184.44
  L 317.52 172.42
  Z"
/>
<path fill="#5a83e9" d="
  M 191.05 173.20
  L 191.02 217.88
  A 0.60 0.59 90.0 0 0 191.61 218.48
  L 215.25 218.54
  L 203.69 237.50
  Q 185.77 237.75 180.54 237.42
  Q 175.30 237.09 173.23 233.05
  Q 172.04 230.71 171.99 224.28
  Q 171.87 206.77 172.00 189.32
  Q 182.02 181.90 191.05 173.20
  Z"
/>
<path fill="#cf4f95" d="
  M 316.55 201.49
  C 307.80 243.69 272.66 273.69 229.52 275.44
  L 244.52 254.15
  Q 268.72 247.59 284.20 227.90
  Q 298.74 212.86 316.55 201.49
  Z"
/>
<path fill="#4697e4" d="
  M 148.95 256.25
  Q 141.42 263.48 136.57 273.15
  C 115.68 267.90 98.33 253.65 88.96 234.30
  Q 97.05 228.06 103.73 220.49
  Q 104.99 223.19 106.29 225.79
  Q 119.48 252.04 148.95 256.25
  Z"
/>
<path fill="#a65ac3" d="
  M 244.52 254.15
  L 229.52 275.44
  L 199.21 275.47
  L 211.59 256.49
  C 222.66 256.53 233.61 256.90 244.52 254.15
  Z"
/>
<path fill="#8364e6" d="
  M 148.95 256.25
  C 155.61 256.31 162.58 256.83 163.34 264.85
  Q 163.93 271.18 163.45 277.09
  A 0.57 0.57 0.0 0 0 164.38 277.57
  Q 184.80 260.46 185.22 260.07
  C 188.71 256.85 190.88 256.56 196.00 256.49
  Q 203.73 256.38 211.59 256.49
  L 199.21 275.47
  Q 196.28 275.66 195.00 276.74
  Q 178.00 291.14 160.64 305.64
  Q 155.35 310.06 149.23 306.83
  C 145.36 304.78 144.51 301.08 144.49 296.43
  Q 144.45 282.47 144.50 275.49
  A 0.88 0.87 -84.1 0 0 143.80 274.62
  L 136.57 273.15
  Q 141.42 263.48 148.95 256.25
  Z"
/>
</svg>
