<?xml version="1.0" encoding="UTF-8" standalone="no"?>
<!DOCTYPE svg PUBLIC "-//W3C//DTD SVG 1.1//EN" "http://www.w3.org/Graphics/SVG/1.1/DTD/svg11.dtd">
<svg xmlns="http://www.w3.org/2000/svg" version="1.1" viewBox="0.00 0.00 32.00 32.00">
<g stroke-width="2.00" fill="none" stroke-linecap="butt">
<path stroke="#8881b7" vector-effect="non-scaling-stroke" d="
  M 15.52 24.23
  Q 12.56 24.79 10.31 23.30"
/>
<path stroke="#a681dc" vector-effect="non-scaling-stroke" d="
  M 10.31 23.30
  Q 6.52 19.28 5.73 14.12
  A 0.15 0.14 52.4 0 0 5.45 14.08
  C 4.46 16.52 5.20 20.20 6.69 22.12"
/>
<path stroke="#8881b7" vector-effect="non-scaling-stroke" d="
  M 6.69 22.12
  Q 10.01 27.16 16.08 27.05"
/>
<path stroke="#a682f6" vector-effect="non-scaling-stroke" d="
  M 16.08 27.05
  Q 25.63 25.53 27.12 17.30
  Q 27.91 12.93 26.14 9.74
  C 24.05 5.98 20.10 3.45 15.77 4.15
  A 0.23 0.23 0.0 0 0 15.77 4.61
  C 26.76 6.30 26.66 22.10 15.52 24.23"
/>
<path stroke="#2f04ae" vector-effect="non-scaling-stroke" d="
  M 16.08 27.05
  L 15.52 24.23"
/>
<path stroke="#2f0394" vector-effect="non-scaling-stroke" d="
  M 10.31 23.30
  L 6.69 22.12"
/>
<path stroke="#a682f6" vector-effect="non-scaling-stroke" d="
  M 12.86 4.64
  C 11.74 4.90 8.60 6.40 9.50 8.19
  A 1.00 0.97 -39.9 0 0 11.16 8.31
  Q 12.66 6.40 13.23 5.09
  A 0.33 0.32 -84.5 0 0 12.86 4.64"
/>
<path stroke="#a682f6" vector-effect="non-scaling-stroke" d="
  M 6.54 11.77
  Q 7.55 10.51 7.58 10.18
  A 0.39 0.39 0.0 0 0 6.98 9.82
  Q 6.53 10.10 6.23 11.62
  A 0.18 0.18 0.0 0 0 6.54 11.77"
/>
</g>
<path fill="#ffffff" d="
  M 28.06 0.00
  Q 31.00 1.03 32.00 3.96
  L 32.00 28.06
  Q 30.97 31.00 28.04 32.00
  L 3.94 32.00
  Q 1.00 30.97 0.00 28.04
  L 0.00 3.93
  Q 1.02 0.99 3.97 0.00
  L 28.06 0.00
  Z
  M 15.52 24.23
  Q 12.56 24.79 10.31 23.30
  Q 6.52 19.28 5.73 14.12
  A 0.15 0.14 52.4 0 0 5.45 14.08
  C 4.46 16.52 5.20 20.20 6.69 22.12
  Q 10.01 27.16 16.08 27.05
  Q 25.63 25.53 27.12 17.30
  Q 27.91 12.93 26.14 9.74
  C 24.05 5.98 20.10 3.45 15.77 4.15
  A 0.23 0.23 0.0 0 0 15.77 4.61
  C 26.76 6.30 26.66 22.10 15.52 24.23
  Z
  M 12.86 4.64
  C 11.74 4.90 8.60 6.40 9.50 8.19
  A 1.00 0.97 -39.9 0 0 11.16 8.31
  Q 12.66 6.40 13.23 5.09
  A 0.33 0.32 -84.5 0 0 12.86 4.64
  Z
  M 6.54 11.77
  Q 7.55 10.51 7.58 10.18
  A 0.39 0.39 0.0 0 0 6.98 9.82
  Q 6.53 10.10 6.23 11.62
  A 0.18 0.18 0.0 0 0 6.54 11.77
  Z"
/>
<path fill="#4d04ed" d="
  M 16.08 27.05
  L 15.52 24.23
  C 26.66 22.10 26.76 6.30 15.77 4.61
  A 0.23 0.23 0.0 0 1 15.77 4.15
  C 20.10 3.45 24.05 5.98 26.14 9.74
  Q 27.91 12.93 27.12 17.30
  Q 25.63 25.53 16.08 27.05
  Z"
/>
<path fill="#4d04ed" d="
  M 13.23 5.09
  Q 12.66 6.40 11.16 8.31
  A 1.00 0.97 -39.9 0 1 9.50 8.19
  C 8.60 6.40 11.74 4.90 12.86 4.64
  A 0.33 0.32 -84.5 0 1 13.23 5.09
  Z"
/>
<path fill="#4d04ed" d="
  M 6.23 11.62
  Q 6.53 10.10 6.98 9.82
  A 0.39 0.39 0.0 0 1 7.58 10.18
  Q 7.55 10.51 6.54 11.77
  A 0.18 0.18 0.0 0 1 6.23 11.62
  Z"
/>
<path fill="#4c02b9" d="
  M 10.31 23.30
  L 6.69 22.12
  C 5.20 20.20 4.46 16.52 5.45 14.08
  A 0.15 0.14 52.4 0 1 5.73 14.12
  Q 6.52 19.28 10.31 23.30
  Z"
/>
<path fill="#11036e" d="
  M 10.31 23.30
  Q 12.56 24.79 15.52 24.23
  L 16.08 27.05
  Q 10.01 27.16 6.69 22.12
  L 10.31 23.30
  Z"
/>
</svg>
