<svg width="158" height="62" viewBox="0 0 128 24" xmlns="http://www.w3.org/2000/svg" xmlns:xlink="http://www.w3.org/1999/xlink"><g fill-rule="nonzero" fill="none" style="fill: none !important;"><path d="M50.69 16.021c.888-.908 1.332-2.118 1.332-3.631s-.444-2.715-1.333-3.605c-.87-.89-1.91-1.335-3.119-1.335-1.208 0-2.257.436-3.145 1.308-.87.873-1.306 2.065-1.306 3.578 0 1.514.435 2.733 1.306 3.659.888.908 1.937 1.361 3.145 1.361 1.209 0 2.248-.445 3.12-1.335zM46.93 20c-1.954 0-3.598-.712-4.93-2.136-1.334-1.442-2-3.276-2-5.5 0-2.244.658-4.06 1.973-5.448 1.332-1.406 2.985-2.11 4.958-2.11 1.155 0 2.168.267 3.038.801.889.517 1.573 1.202 2.053 2.057V0h3.065v19.76h-3.065v-2.75a5.918 5.918 0 0 1-2.053 2.189c-.87.534-1.883.801-3.038.801zM62.119 5.047V7.61c.941-1.869 2.408-2.804 4.398-2.804v3.151h-.773c-1.19 0-2.097.303-2.72.908-.603.605-.905 1.656-.905 3.151v7.744h-3.04V5.047h3.04zM78.852 16.1c.889-.89 1.333-2.127 1.333-3.711s-.435-2.813-1.306-3.685c-.853-.89-1.893-1.335-3.119-1.335-1.226 0-2.257.445-3.092 1.335-.835.872-1.253 2.11-1.253 3.712 0 1.584.409 2.821 1.226 3.711.818.872 1.83 1.309 3.039 1.309 1.226 0 2.284-.445 3.172-1.336zM75.68 20c-2.132 0-3.892-.694-5.278-2.083-1.386-1.406-2.08-3.24-2.08-5.5 0-2.279.712-4.113 2.133-5.501 1.44-1.406 3.226-2.11 5.358-2.11 2.133 0 3.91.704 5.332 2.11 1.439 1.388 2.159 3.213 2.159 5.474 0 2.26-.738 4.094-2.213 5.5-1.457 1.407-3.26 2.11-5.411 2.11zM89.347 5.047V7.37c.977-1.71 2.54-2.564 4.691-2.564 1.137 0 2.15.267 3.039.801.888.535 1.564 1.309 2.025 2.324.516-.98 1.227-1.745 2.133-2.297.924-.552 1.964-.828 3.119-.828 1.688 0 3.074.552 4.158 1.656 1.084 1.086 1.626 2.626 1.626 4.62v8.678H107.1v-8.225c0-1.317-.328-2.323-.986-3.017-.658-.712-1.555-1.068-2.692-1.068-1.138 0-2.035.356-2.693 1.068-.657.694-.986 1.7-.986 3.017v8.225H96.73v-8.225c0-1.317-.328-2.323-.986-3.017-.657-.712-1.555-1.068-2.692-1.068-1.138 0-2.044.356-2.72 1.068-.657.694-.985 1.7-.985 3.017v8.225h-3.04V5.047h3.04zM123.548 16.1c.889-.89 1.333-2.127 1.333-3.711s-.435-2.813-1.306-3.685c-.853-.89-1.893-1.335-3.119-1.335-1.226 0-2.257.445-3.092 1.335-.835.872-1.253 2.11-1.253 3.712 0 1.584.409 2.821 1.227 3.711.817.872 1.83 1.309 3.038 1.309 1.227 0 2.284-.445 3.172-1.336zM120.376 20c-2.132 0-3.891-.694-5.278-2.083-1.386-1.406-2.079-3.24-2.079-5.5 0-2.279.711-4.113 2.133-5.501 1.44-1.406 3.225-2.11 5.358-2.11 2.132 0 3.91.704 5.33 2.11 1.44 1.388 2.16 3.213 2.16 5.474 0 2.26-.737 4.094-2.212 5.5-1.458 1.407-3.261 2.11-5.412 2.11z" fill="#102A43" style="fill: rgb(16, 42, 67) !important;"/><g fill="#0052CC" style="fill: rgb(0, 82, 204) !important;"><path d="M29.67 15.893c1.478.808 2.33 1.758 2.33 2.774C32 21.612 24.837 24 16 24S0 21.612 0 18.667c0-1.016.852-1.966 2.33-2.774C5.43 17.43 10.4 18.333 16 18.333c5.577 0 10.529-.896 13.629-2.42z" opacity=".4" style="fill: rgb(0, 82, 204) !important; opacity: 0.4 !important;"/><path d="M29.67 9.227C31.147 10.035 32 10.984 32 12c0 2.946-7.163 5.333-16 5.333S0 14.946 0 12c0-1.016.852-1.965 2.33-2.773 3.099 1.536 8.069 2.44 13.67 2.44 5.577 0 10.529-.896 13.629-2.42z" opacity=".7" style="fill: rgb(0, 82, 204) !important; opacity: 0.7 !important;"/><path d="M16 0C7.163 0 0 2.388 0 5.333c0 2.946 7.163 5.334 16 5.334s16-2.388 16-5.334C32 2.388 24.837 0 16 0z" style="fill: rgb(0, 82, 204) !important;"/></g></g></svg>