<?xml version="1.0" encoding="UTF-8" standalone="no"?>
<!DOCTYPE svg PUBLIC "-//W3C//DTD SVG 1.1//EN" "http://www.w3.org/Graphics/SVG/1.1/DTD/svg11.dtd">
<svg xmlns="http://www.w3.org/2000/svg" version="1.1" viewBox="0.00 0.00 96.00 96.00">
<path fill="#ed254e" d="
  M 96.00 47.96
  Q 96.00 48.01 96.00 48.05
  L 63.44 80.63
  A 1.28 1.27 22.7 0 1 62.55 80.99
  L 0.94 80.99
  A 0.28 0.28 0.0 0 1 0.79 80.48
  C 24.37 64.92 50.61 53.10 78.46 48.15
  A 0.17 0.17 0.0 0 0 78.46 47.82
  C 50.84 43.13 24.03 30.95 0.74 15.45
  A 0.25 0.24 -28.0 0 1 0.88 15.00
  L 62.48 15.00
  A 1.38 1.36 -22.3 0 1 63.45 15.40
  L 96.00 47.96
  Z"
/>
</svg>
