<?xml version="1.0" encoding="UTF-8" standalone="no"?>
<!DOCTYPE svg PUBLIC "-//W3C//DTD SVG 1.1//EN" "http://www.w3.org/Graphics/SVG/1.1/DTD/svg11.dtd">
<svg xmlns="http://www.w3.org/2000/svg" version="1.1" viewBox="0.00 0.00 180.00 180.00">
<g stroke-width="2.00" fill="none" stroke-linecap="butt">
<path stroke="#8d97b7" vector-effect="non-scaling-stroke" d="
  M 12.74 14.28
  L 13.28 167.12
  A 1.18 1.18 0.0 0 0 14.46 168.30
  L 89.99 168.03
  A 78.27 77.46 -0.2 0 0 167.99 90.30
  L 167.99 90.02
  A 78.27 77.46 -0.2 0 0 89.45 12.83
  L 13.92 13.10
  A 1.18 1.18 0.0 0 0 12.74 14.28"
/>
<path stroke="#5f1938" vector-effect="non-scaling-stroke" d="
  M 37.93 69.94
  L 37.93 142.69
  A 0.46 0.45 90.0 0 0 38.38 143.15
  L 61.95 143.17"
/>
<path stroke="#8d97b7" vector-effect="non-scaling-stroke" d="
  M 61.95 143.17
  Q 76.66 143.22 91.50 142.98
  Q 110.09 142.69 123.26 132.01
  C 161.67 100.88 140.59 37.82 90.49 37.81
  Q 58.29 37.81 38.56 37.79
  A 0.54 0.53 90.0 0 0 38.03 38.33
  L 37.93 69.94"
/>
<path stroke="#d18180" vector-effect="non-scaling-stroke" d="
  M 61.95 143.17
  C 72.28 126.16 84.79 109.49 99.04 95.57
  C 105.32 89.44 117.86 81.77 125.52 90.14
  A 0.28 0.28 0.0 0 0 126.01 89.98
  C 127.64 74.55 115.35 68.11 102.26 66.43
  A 1.80 1.76 -22.2 0 1 101.40 66.08
  C 92.09 58.91 77.49 59.77 66.49 61.72
  Q 53.87 63.95 37.93 69.94"
/>
<path stroke="#d18180" vector-effect="non-scaling-stroke" d="
  M 90.91 70.74
  L 73.38 69.20
  A 0.42 0.42 0.0 0 0 72.95 69.78
  C 76.83 79.02 85.02 76.12 91.07 71.26
  A 0.30 0.29 28.2 0 0 90.91 70.74"
/>
</g>
<path fill="#ffffff" d="
  M 180.00 0.00
  L 180.00 180.00
  L 0.00 180.00
  L 0.00 0.00
  L 180.00 0.00
  Z
  M 12.74 14.28
  L 13.28 167.12
  A 1.18 1.18 0.0 0 0 14.46 168.30
  L 89.99 168.03
  A 78.27 77.46 -0.2 0 0 167.99 90.30
  L 167.99 90.02
  A 78.27 77.46 -0.2 0 0 89.45 12.83
  L 13.92 13.10
  A 1.18 1.18 0.0 0 0 12.74 14.28
  Z"
/>
<path fill="#1b2f6e" d="
  M 12.74 14.28
  A 1.18 1.18 0.0 0 1 13.92 13.10
  L 89.45 12.83
  A 78.27 77.46 -0.2 0 1 167.99 90.02
  L 167.99 90.30
  A 78.27 77.46 -0.2 0 1 89.99 168.03
  L 14.46 168.30
  A 1.18 1.18 0.0 0 1 13.28 167.12
  L 12.74 14.28
  Z
  M 37.93 69.94
  L 37.93 142.69
  A 0.46 0.45 90.0 0 0 38.38 143.15
  L 61.95 143.17
  Q 76.66 143.22 91.50 142.98
  Q 110.09 142.69 123.26 132.01
  C 161.67 100.88 140.59 37.82 90.49 37.81
  Q 58.29 37.81 38.56 37.79
  A 0.54 0.53 90.0 0 0 38.03 38.33
  L 37.93 69.94
  Z"
/>
<path fill="#ffffff" d="
  M 61.95 143.17
  C 72.28 126.16 84.79 109.49 99.04 95.57
  C 105.32 89.44 117.86 81.77 125.52 90.14
  A 0.28 0.28 0.0 0 0 126.01 89.98
  C 127.64 74.55 115.35 68.11 102.26 66.43
  A 1.80 1.76 -22.2 0 1 101.40 66.08
  C 92.09 58.91 77.49 59.77 66.49 61.72
  Q 53.87 63.95 37.93 69.94
  L 38.03 38.33
  A 0.54 0.53 -90.0 0 1 38.56 37.79
  Q 58.29 37.81 90.49 37.81
  C 140.59 37.82 161.67 100.88 123.26 132.01
  Q 110.09 142.69 91.50 142.98
  Q 76.66 143.22 61.95 143.17
  Z"
/>
<path fill="#a30301" d="
  M 61.95 143.17
  L 38.38 143.15
  A 0.46 0.45 90.0 0 1 37.93 142.69
  L 37.93 69.94
  Q 53.87 63.95 66.49 61.72
  C 77.49 59.77 92.09 58.91 101.40 66.08
  A 1.80 1.76 -22.2 0 0 102.26 66.43
  C 115.35 68.11 127.64 74.55 126.01 89.98
  A 0.28 0.28 0.0 0 1 125.52 90.14
  C 117.86 81.77 105.32 89.44 99.04 95.57
  C 84.79 109.49 72.28 126.16 61.95 143.17
  Z
  M 90.91 70.74
  L 73.38 69.20
  A 0.42 0.42 0.0 0 0 72.95 69.78
  C 76.83 79.02 85.02 76.12 91.07 71.26
  A 0.30 0.29 28.2 0 0 90.91 70.74
  Z"
/>
<path fill="#ffffff" d="
  M 91.07 71.26
  C 85.02 76.12 76.83 79.02 72.95 69.78
  A 0.42 0.42 0.0 0 1 73.38 69.20
  L 90.91 70.74
  A 0.30 0.29 28.2 0 1 91.07 71.26
  Z"
/>
</svg>
