<?xml version="1.0" encoding="UTF-8" standalone="no"?>
<!DOCTYPE svg PUBLIC "-//W3C//DTD SVG 1.1//EN" "http://www.w3.org/Graphics/SVG/1.1/DTD/svg11.dtd">
<svg xmlns="http://www.w3.org/2000/svg" version="1.1" viewBox="0.00 0.00 96.00 96.00">
<g stroke-width="2.00" fill="none" stroke-linecap="butt">
<path stroke="#736396" vector-effect="non-scaling-stroke" d="
  M 39.05 19.13
  L 43.73 21.44
  A 1.49 1.20 69.7 0 1 43.98 21.59
  Q 50.61 26.46 49.09 35.21"
/>
<path stroke="#484da3" vector-effect="non-scaling-stroke" d="
  M 49.09 35.21
  L 38.92 33.71"
/>
<path stroke="#9b7381" vector-effect="non-scaling-stroke" d="
  M 38.92 33.71
  C 39.33 30.32 38.53 25.86 34.70 25.36
  Q 27.67 24.44 23.87 30.33
  A 3.69 3.25 -23.0 0 0 23.52 31.06
  L 22.03 35.29"
/>
<path stroke="#484da3" vector-effect="non-scaling-stroke" d="
  M 22.03 35.29
  Q 21.50 35.33 21.08 35.54"
/>
<path stroke="#736396" vector-effect="non-scaling-stroke" d="
  M 21.08 35.54
  Q 21.13 33.81 21.33 33.29
  Q 24.51 25.01 32.75 20.43"
/>
<path stroke="#91697b" vector-effect="non-scaling-stroke" d="
  M 38.92 33.71
  Q 30.68 33.06 22.61 35.58
  Q 22.31 35.67 22.03 35.29"
/>
<path stroke="#695890" vector-effect="non-scaling-stroke" d="
  M 41.54 19.08
  Q 42.27 20.22 44.74 20.63"
/>
<path stroke="#736396" vector-effect="non-scaling-stroke" d="
  M 44.74 20.63
  Q 51.28 26.91 50.06 35.64"
/>
<path stroke="#695890" vector-effect="non-scaling-stroke" d="
  M 50.06 35.64
  Q 49.58 37.05 50.30 38.00"
/>
<path stroke="#c8a29e" vector-effect="non-scaling-stroke" d="
  M 50.30 38.00
  Q 49.35 37.91 48.64 37.49"
/>
<path stroke="#695890" vector-effect="non-scaling-stroke" d="
  M 48.64 37.49
  Q 49.64 36.92 49.09 35.21"
/>
<path stroke="#695890" vector-effect="non-scaling-stroke" d="
  M 21.08 35.54
  Q 20.73 36.30 20.65 37.14
  A 0.12 0.12 0.0 0 1 20.41 37.16
  L 20.07 36.07"
/>
<path stroke="#736396" vector-effect="non-scaling-stroke" d="
  M 20.07 36.07
  Q 21.04 28.08 27.66 22.24"
/>
<path stroke="#9e8cab" vector-effect="non-scaling-stroke" d="
  M 48.64 37.49
  Q 37.92 34.95 27.56 36.83
  Q 20.05 38.20 14.20 43.50"
/>
<path stroke="#997e96" vector-effect="non-scaling-stroke" d="
  M 14.20 43.50
  Q 13.50 44.25 13.43 43.67"
/>
<path stroke="#f1b389" vector-effect="non-scaling-stroke" d="
  M 55.74 39.64
  Q 55.20 42.27 56.99 43.28
  A 0.69 0.69 0.0 0 1 57.30 44.12
  Q 56.75 45.61 54.95 46.69
  A 0.62 0.62 0.0 0 0 55.18 47.83
  L 57.03 48.10
  A 0.39 0.38 -81.9 0 1 57.35 48.54
  L 56.78 52.50
  A 1.31 1.30 25.7 0 0 57.19 53.65
  Q 58.21 54.57 57.82 56.26
  A 0.69 0.69 0.0 0 0 58.40 57.10
  Q 61.30 57.47 62.21 55.99
  A 2.74 2.18 22.9 0 1 65.14 55.17
  C 67.48 55.90 67.17 58.11 66.99 60.23
  Q 66.76 63.03 64.61 64.79"
/>
<path stroke="#f9c8a4" vector-effect="non-scaling-stroke" d="
  M 64.61 64.79
  Q 62.58 64.62 61.99 63.46
  A 1.53 1.44 -31.8 0 0 59.78 63.01
  Q 57.83 64.42 55.24 63.47
  A 1.35 1.29 7.4 0 0 53.43 64.80
  Q 53.51 65.49 54.28 66.06
  A 1.07 1.05 19.0 0 1 54.70 66.90
  Q 54.71 67.74 54.07 68.01
  Q 53.44 68.28 53.36 69.12
  C 53.05 72.52 47.97 74.62 45.26 75.05
  Q 41.00 75.73 34.81 75.00
  C 26.67 74.05 19.65 69.39 16.48 62.06
  Q 12.84 53.65 14.20 43.50"
/>
<path stroke="#484da3" vector-effect="non-scaling-stroke" d="
  M 70.92 48.74
  Q 70.62 48.23 70.06 48.56"
/>
<path stroke="#91697b" vector-effect="non-scaling-stroke" d="
  M 70.06 48.56
  Q 63.85 42.66 55.74 39.64"
/>
<path stroke="#9e8cab" vector-effect="non-scaling-stroke" d="
  M 55.74 39.64
  Q 53.23 38.40 50.30 38.00"
/>
<path stroke="#484da3" vector-effect="non-scaling-stroke" d="
  M 50.06 35.64
  L 64.19 38.66
  A 1.14 1.14 0.0 0 0 65.56 37.64
  C 66.02 31.82 61.18 27.66 56.16 24.34
  Q 50.00 20.28 44.74 20.63"
/>
<path stroke="#484da3" vector-effect="non-scaling-stroke" d="
  M 20.07 36.07
  Q 18.43 36.75 17.22 36.40
  A 0.65 0.64 -79.1 0 1 16.76 35.72
  L 17.23 30.93"
/>
<path stroke="#c49488" vector-effect="non-scaling-stroke" d="
  M 43.30 76.78
  Q 41.55 76.37 40.47 76.94"
/>
<path stroke="#9b7381" vector-effect="non-scaling-stroke" d="
  M 70.06 48.56
  L 72.77 52.75
  A 2.48 2.47 84.2 0 0 73.93 53.70
  L 75.50 54.32
  A 0.51 0.51 0.0 0 1 75.62 55.20
  Q 74.66 55.91 73.23 55.58
  A 0.36 0.36 0.0 0 0 72.81 56.04
  Q 73.20 57.34 72.99 59.77
  A 1.38 1.26 -78.5 0 1 71.31 60.99
  Q 71.05 60.90 70.84 60.75
  A 0.30 0.29 4.9 0 0 70.40 61.12
  Q 71.48 63.22 73.58 64.73
  A 0.46 0.46 0.0 0 1 73.44 65.55
  Q 71.61 66.07 69.30 65.57
  A 0.34 0.34 0.0 0 0 68.90 66.00
  Q 69.16 66.81 68.96 67.61
  Q 68.84 68.06 68.66 68.10
  Q 68.24 68.18 68.03 68.10
  A 0.57 0.56 -68.2 0 0 67.30 68.42
  Q 67.04 69.07 66.45 69.59
  A 0.94 0.93 -52.5 0 1 65.45 69.73
  Q 64.94 69.51 64.43 69.03
  A 0.78 0.78 0.0 0 0 63.40 69.00
  Q 62.90 69.41 62.92 70.23"
/>
<path stroke="#eca474" vector-effect="non-scaling-stroke" d="
  M 55.52 72.11
  Q 54.77 70.87 54.98 69.91
  Q 55.12 69.25 55.83 69.07
  Q 57.06 68.75 57.32 68.48
  A 0.26 0.26 0.0 0 0 57.13 68.05
  Q 56.44 68.06 55.34 67.01
  A 1.12 1.12 0.0 0 1 56.47 65.14
  L 58.28 65.73
  A 1.74 1.63 -39.1 0 0 59.13 65.79
  L 64.61 64.79"
/>
<path stroke="#484da3" vector-effect="non-scaling-stroke" d="
  M 70.27 72.67
  Q 69.79 72.48 69.19 72.69"
/>
<path stroke="#9c7862" vector-effect="non-scaling-stroke" d="
  M 32.67 47.13
  C 33.85 44.98 33.69 42.83 31.11 41.91
  A 0.25 0.24 89.3 0 0 30.80 42.23
  Q 31.19 43.20 30.97 43.47
  A 1.21 1.12 -31.9 0 1 28.88 43.07
  Q 28.75 42.33 29.80 41.61"
/>
<path stroke="#feebdc" vector-effect="non-scaling-stroke" d="
  M 29.80 41.61
  Q 30.57 39.86 27.27 40.10
  C 20.29 40.59 18.97 50.23 25.49 52.36
  C 28.51 53.35 33.19 51.85 33.72 48.08
  Q 33.91 46.79 32.67 47.13"
/>
<path stroke="#9d8d85" vector-effect="non-scaling-stroke" d="
  M 29.80 41.61
  C 26.47 42.16 25.62 46.00 28.36 47.92
  Q 30.60 49.50 32.67 47.13"
/>
<path stroke="#9c7862" vector-effect="non-scaling-stroke" d="
  M 48.89 47.12
  Q 48.48 43.57 45.76 42.60"
/>
<path stroke="#feebdc" vector-effect="non-scaling-stroke" d="
  M 45.76 42.60
  Q 43.11 39.70 39.55 41.52
  C 30.24 46.29 38.09 59.41 46.39 53.66
  Q 49.71 51.36 48.89 47.12"
/>
<path stroke="#9d8d85" vector-effect="non-scaling-stroke" d="
  M 45.76 42.60
  Q 43.08 42.64 41.92 44.24
  C 40.27 46.52 41.87 49.67 44.51 50.21
  Q 46.96 50.71 48.89 47.12"
/>
<path stroke="#feebdc" vector-effect="non-scaling-stroke" d="
  M 42.47 66.37
  L 33.34 67.57"
/>
<path stroke="#9c7862" vector-effect="non-scaling-stroke" d="
  M 33.34 67.57
  L 25.50 63.75
  A 0.02 0.02 0.0 0 0 25.48 63.78
  Q 29.06 66.53 33.04 68.66
  Q 35.93 70.20 39.48 70.79
  C 44.11 71.57 51.59 73.56 50.67 66.57
  Q 50.23 63.17 49.57 59.59
  A 0.24 0.23 -27.9 0 0 49.17 59.47
  L 42.47 66.37"
/>
<path stroke="#9d8d85" vector-effect="non-scaling-stroke" d="
  M 33.34 67.57
  Q 35.38 70.03 37.88 68.89
  Q 41.04 67.46 42.47 66.37"
/>
<path stroke="#9d8d85" vector-effect="non-scaling-stroke" d="
  M 46.02 44.36
  A 1.10 1.10 0.0 0 0 44.92 43.26
  A 1.10 1.10 0.0 0 0 43.82 44.36
  A 1.10 1.10 0.0 0 0 44.92 45.46
  A 1.10 1.10 0.0 0 0 46.02 44.36"
/>
<path stroke="#986a4c" vector-effect="non-scaling-stroke" d="
  M 47.64 66.14
  L 46.21 65.75
  A 0.45 0.45 0.0 0 0 45.66 66.07
  L 45.49 66.69
  A 2.57 1.11 -74.9 0 0 45.90 69.46
  L 46.05 69.50
  A 2.57 1.11 -74.9 0 0 47.79 67.31
  L 47.96 66.69
  A 0.45 0.45 0.0 0 0 47.64 66.14"
/>
</g>
<path fill="#5257a9" d="
  M 39.05 19.13
  L 43.73 21.44
  A 1.49 1.20 69.7 0 1 43.98 21.59
  Q 50.61 26.46 49.09 35.21
  L 38.92 33.71
  C 39.33 30.32 38.53 25.86 34.70 25.36
  Q 27.67 24.44 23.87 30.33
  A 3.69 3.25 -23.0 0 0 23.52 31.06
  L 22.03 35.29
  Q 21.50 35.33 21.08 35.54
  Q 21.13 33.81 21.33 33.29
  Q 24.51 25.01 32.75 20.43
  Q 35.79 19.27 39.05 19.13
  Z"
/>
<path fill="#936e82" d="
  M 41.54 19.08
  Q 42.27 20.22 44.74 20.63
  Q 51.28 26.91 50.06 35.64
  Q 49.58 37.05 50.30 38.00
  Q 49.35 37.91 48.64 37.49
  Q 49.64 36.92 49.09 35.21
  Q 50.61 26.46 43.98 21.59
  A 1.49 1.20 69.7 0 0 43.73 21.44
  L 39.05 19.13
  Q 40.60 18.88 41.54 19.08
  Z"
/>
<path fill="#3e429d" d="
  M 70.92 48.74
  Q 70.62 48.23 70.06 48.56
  Q 63.85 42.66 55.74 39.64
  Q 53.23 38.40 50.30 38.00
  Q 49.58 37.05 50.06 35.64
  L 64.19 38.66
  A 1.14 1.14 0.0 0 0 65.56 37.64
  C 66.02 31.82 61.18 27.66 56.16 24.34
  Q 50.00 20.28 44.74 20.63
  Q 42.27 20.22 41.54 19.08
  C 58.33 19.54 72.74 30.81 70.92 48.74
  Z"
/>
<path fill="#936e82" d="
  M 32.75 20.43
  Q 24.51 25.01 21.33 33.29
  Q 21.13 33.81 21.08 35.54
  Q 20.73 36.30 20.65 37.14
  A 0.12 0.12 0.0 0 1 20.41 37.16
  L 20.07 36.07
  Q 21.04 28.08 27.66 22.24
  Q 29.73 20.81 32.75 20.43
  Z"
/>
<path fill="#5257a9" d="
  M 50.06 35.64
  Q 51.28 26.91 44.74 20.63
  Q 50.00 20.28 56.16 24.34
  C 61.18 27.66 66.02 31.82 65.56 37.64
  A 1.14 1.14 0.0 0 1 64.19 38.66
  L 50.06 35.64
  Z"
/>
<path fill="#5257a9" d="
  M 27.66 22.24
  Q 21.04 28.08 20.07 36.07
  Q 18.43 36.75 17.22 36.40
  A 0.65 0.64 -79.1 0 1 16.76 35.72
  L 17.23 30.93
  Q 20.98 25.09 27.66 22.24
  Z"
/>
<path fill="#e48f59" d="
  M 38.92 33.71
  Q 30.68 33.06 22.61 35.58
  Q 22.31 35.67 22.03 35.29
  L 23.52 31.06
  A 3.69 3.25 -23.0 0 1 23.87 30.33
  Q 27.67 24.44 34.70 25.36
  C 38.53 25.86 39.33 30.32 38.92 33.71
  Z"
/>
<path fill="#3e429d" d="
  M 17.23 30.93
  L 16.76 35.72
  A 0.65 0.64 -79.1 0 0 17.22 36.40
  Q 18.43 36.75 20.07 36.07
  L 20.41 37.16
  A 0.12 0.12 0.0 0 0 20.65 37.14
  Q 20.73 36.30 21.08 35.54
  Q 21.50 35.33 22.03 35.29
  Q 22.31 35.67 22.61 35.58
  Q 30.68 33.06 38.92 33.71
  L 49.09 35.21
  Q 49.64 36.92 48.64 37.49
  Q 37.92 34.95 27.56 36.83
  Q 20.05 38.20 14.20 43.50
  Q 13.50 44.25 13.43 43.67
  Q 13.11 36.82 17.23 30.93
  Z"
/>
<path fill="#fdd6b9" d="
  M 48.64 37.49
  Q 49.35 37.91 50.30 38.00
  Q 53.23 38.40 55.74 39.64
  Q 55.20 42.27 56.99 43.28
  A 0.69 0.69 0.0 0 1 57.30 44.12
  Q 56.75 45.61 54.95 46.69
  A 0.62 0.62 0.0 0 0 55.18 47.83
  L 57.03 48.10
  A 0.39 0.38 -81.9 0 1 57.35 48.54
  L 56.78 52.50
  A 1.31 1.30 25.7 0 0 57.19 53.65
  Q 58.21 54.57 57.82 56.26
  A 0.69 0.69 0.0 0 0 58.40 57.10
  Q 61.30 57.47 62.21 55.99
  A 2.74 2.18 22.9 0 1 65.14 55.17
  C 67.48 55.90 67.17 58.11 66.99 60.23
  Q 66.76 63.03 64.61 64.79
  Q 62.58 64.62 61.99 63.46
  A 1.53 1.44 -31.8 0 0 59.78 63.01
  Q 57.83 64.42 55.24 63.47
  A 1.35 1.29 7.4 0 0 53.43 64.80
  Q 53.51 65.49 54.28 66.06
  A 1.07 1.05 19.0 0 1 54.70 66.90
  Q 54.71 67.74 54.07 68.01
  Q 53.44 68.28 53.36 69.12
  C 53.05 72.52 47.97 74.62 45.26 75.05
  Q 41.00 75.73 34.81 75.00
  C 26.67 74.05 19.65 69.39 16.48 62.06
  Q 12.84 53.65 14.20 43.50
  Q 20.05 38.20 27.56 36.83
  Q 37.92 34.95 48.64 37.49
  Z
  M 32.67 47.13
  C 33.85 44.98 33.69 42.83 31.11 41.91
  A 0.25 0.24 89.3 0 0 30.80 42.23
  Q 31.19 43.20 30.97 43.47
  A 1.21 1.12 -31.9 0 1 28.88 43.07
  Q 28.75 42.33 29.80 41.61
  Q 30.57 39.86 27.27 40.10
  C 20.29 40.59 18.97 50.23 25.49 52.36
  C 28.51 53.35 33.19 51.85 33.72 48.08
  Q 33.91 46.79 32.67 47.13
  Z
  M 48.89 47.12
  Q 48.48 43.57 45.76 42.60
  Q 43.11 39.70 39.55 41.52
  C 30.24 46.29 38.09 59.41 46.39 53.66
  Q 49.71 51.36 48.89 47.12
  Z
  M 42.47 66.37
  L 33.34 67.57
  L 25.50 63.75
  A 0.02 0.02 0.0 0 0 25.48 63.78
  Q 29.06 66.53 33.04 68.66
  Q 35.93 70.20 39.48 70.79
  C 44.11 71.57 51.59 73.56 50.67 66.57
  Q 50.23 63.17 49.57 59.59
  A 0.24 0.23 -27.9 0 0 49.17 59.47
  L 42.47 66.37
  Z"
/>
<path fill="#e48f59" d="
  M 70.06 48.56
  L 72.77 52.75
  A 2.48 2.47 84.2 0 0 73.93 53.70
  L 75.50 54.32
  A 0.51 0.51 0.0 0 1 75.62 55.20
  Q 74.66 55.91 73.23 55.58
  A 0.36 0.36 0.0 0 0 72.81 56.04
  Q 73.20 57.34 72.99 59.77
  A 1.38 1.26 -78.5 0 1 71.31 60.99
  Q 71.05 60.90 70.84 60.75
  A 0.30 0.29 4.9 0 0 70.40 61.12
  Q 71.48 63.22 73.58 64.73
  A 0.46 0.46 0.0 0 1 73.44 65.55
  Q 71.61 66.07 69.30 65.57
  A 0.34 0.34 0.0 0 0 68.90 66.00
  Q 69.16 66.81 68.96 67.61
  Q 68.84 68.06 68.66 68.10
  Q 68.24 68.18 68.03 68.10
  A 0.57 0.56 -68.2 0 0 67.30 68.42
  Q 67.04 69.07 66.45 69.59
  A 0.94 0.93 -52.5 0 1 65.45 69.73
  Q 64.94 69.51 64.43 69.03
  A 0.78 0.78 0.0 0 0 63.40 69.00
  Q 62.90 69.41 62.92 70.23
  Q 61.57 72.16 60.47 70.51
  A 0.55 0.54 57.7 0 0 59.74 70.34
  L 57.81 71.45
  A 1.04 0.98 30.4 0 1 57.24 71.58
  Q 56.17 71.53 55.52 72.11
  Q 54.77 70.87 54.98 69.91
  Q 55.12 69.25 55.83 69.07
  Q 57.06 68.75 57.32 68.48
  A 0.26 0.26 0.0 0 0 57.13 68.05
  Q 56.44 68.06 55.34 67.01
  A 1.12 1.12 0.0 0 1 56.47 65.14
  L 58.28 65.73
  A 1.74 1.63 -39.1 0 0 59.13 65.79
  L 64.61 64.79
  Q 66.76 63.03 66.99 60.23
  C 67.17 58.11 67.48 55.90 65.14 55.17
  A 2.74 2.18 22.9 0 0 62.21 55.99
  Q 61.30 57.47 58.40 57.10
  A 0.69 0.69 0.0 0 1 57.82 56.26
  Q 58.21 54.57 57.19 53.65
  A 1.31 1.30 25.7 0 1 56.78 52.50
  L 57.35 48.54
  A 0.39 0.38 -81.9 0 0 57.03 48.10
  L 55.18 47.83
  A 0.62 0.62 0.0 0 1 54.95 46.69
  Q 56.75 45.61 57.30 44.12
  A 0.69 0.69 0.0 0 0 56.99 43.28
  Q 55.20 42.27 55.74 39.64
  Q 63.85 42.66 70.06 48.56
  Z"
/>
<path fill="#ffffff" d="
  M 29.80 41.61
  C 26.47 42.16 25.62 46.00 28.36 47.92
  Q 30.60 49.50 32.67 47.13
  Q 33.91 46.79 33.72 48.08
  C 33.19 51.85 28.51 53.35 25.49 52.36
  C 18.97 50.23 20.29 40.59 27.27 40.10
  Q 30.57 39.86 29.80 41.61
  Z"
/>
<path fill="#ffffff" d="
  M 45.76 42.60
  Q 43.08 42.64 41.92 44.24
  C 40.27 46.52 41.87 49.67 44.51 50.21
  Q 46.96 50.71 48.89 47.12
  Q 49.71 51.36 46.39 53.66
  C 38.09 59.41 30.24 46.29 39.55 41.52
  Q 43.11 39.70 45.76 42.60
  Z"
/>
<path fill="#3b1a0a" d="
  M 29.80 41.61
  Q 28.75 42.33 28.88 43.07
  A 1.21 1.12 -31.9 0 0 30.97 43.47
  Q 31.19 43.20 30.80 42.23
  A 0.25 0.24 89.3 0 1 31.11 41.91
  C 33.69 42.83 33.85 44.98 32.67 47.13
  Q 30.60 49.50 28.36 47.92
  C 25.62 46.00 26.47 42.16 29.80 41.61
  Z"
/>
<path fill="#3b1a0a" d="
  M 45.76 42.60
  Q 48.48 43.57 48.89 47.12
  Q 46.96 50.71 44.51 50.21
  C 41.87 49.67 40.27 46.52 41.92 44.24
  Q 43.08 42.64 45.76 42.60
  Z
  M 46.02 44.36
  A 1.10 1.10 0.0 0 0 44.92 43.26
  A 1.10 1.10 0.0 0 0 43.82 44.36
  A 1.10 1.10 0.0 0 0 44.92 45.46
  A 1.10 1.10 0.0 0 0 46.02 44.36
  Z"
/>
<circle fill="#ffffff" cx="44.92" cy="44.36" r="1.10"/>
<path fill="#f4b98e" d="
  M 14.20 43.50
  Q 12.84 53.65 16.48 62.06
  C 19.65 69.39 26.67 74.05 34.81 75.00
  Q 41.00 75.73 45.26 75.05
  C 47.97 74.62 53.05 72.52 53.36 69.12
  Q 53.44 68.28 54.07 68.01
  Q 54.71 67.74 54.70 66.90
  A 1.07 1.05 19.0 0 0 54.28 66.06
  Q 53.51 65.49 53.43 64.80
  A 1.35 1.29 7.4 0 1 55.24 63.47
  Q 57.83 64.42 59.78 63.01
  A 1.53 1.44 -31.8 0 1 61.99 63.46
  Q 62.58 64.62 64.61 64.79
  L 59.13 65.79
  A 1.74 1.63 -39.1 0 1 58.28 65.73
  L 56.47 65.14
  A 1.12 1.12 0.0 0 0 55.34 67.01
  Q 56.44 68.06 57.13 68.05
  A 0.26 0.26 0.0 0 1 57.32 68.48
  Q 57.06 68.75 55.83 69.07
  Q 55.12 69.25 54.98 69.91
  Q 54.77 70.87 55.52 72.11
  Q 49.88 75.97 43.30 76.78
  Q 41.55 76.37 40.47 76.94
  Q 30.63 76.75 23.74 72.00
  Q 9.43 62.12 13.43 43.67
  Q 13.50 44.25 14.20 43.50
  Z"
/>
<path fill="#5257a9" d="
  M 70.92 48.74
  C 77.02 51.37 81.97 55.09 83.39 61.86
  C 85.08 69.95 77.15 73.97 70.27 72.67
  Q 69.79 72.48 69.19 72.69
  L 62.92 70.23
  Q 62.90 69.41 63.40 69.00
  A 0.78 0.78 0.0 0 1 64.43 69.03
  Q 64.94 69.51 65.45 69.73
  A 0.94 0.93 -52.5 0 0 66.45 69.59
  Q 67.04 69.07 67.30 68.42
  A 0.57 0.56 -68.2 0 1 68.03 68.10
  Q 68.24 68.18 68.66 68.10
  Q 68.84 68.06 68.96 67.61
  Q 69.16 66.81 68.90 66.00
  A 0.34 0.34 0.0 0 1 69.30 65.57
  Q 71.61 66.07 73.44 65.55
  A 0.46 0.46 0.0 0 0 73.58 64.73
  Q 71.48 63.22 70.40 61.12
  A 0.30 0.29 4.9 0 1 70.84 60.75
  Q 71.05 60.90 71.31 60.99
  A 1.38 1.26 -78.5 0 0 72.99 59.77
  Q 73.20 57.34 72.81 56.04
  A 0.36 0.36 0.0 0 1 73.23 55.58
  Q 74.66 55.91 75.62 55.20
  A 0.51 0.51 0.0 0 0 75.50 54.32
  L 73.93 53.70
  A 2.48 2.47 84.2 0 1 72.77 52.75
  L 70.06 48.56
  Q 70.62 48.23 70.92 48.74
  Z"
/>
<path fill="#3b1a0a" d="
  M 33.34 67.57
  Q 35.38 70.03 37.88 68.89
  Q 41.04 67.46 42.47 66.37
  L 49.17 59.47
  A 0.24 0.23 -27.9 0 1 49.57 59.59
  Q 50.23 63.17 50.67 66.57
  C 51.59 73.56 44.11 71.57 39.48 70.79
  Q 35.93 70.20 33.04 68.66
  Q 29.06 66.53 25.48 63.78
  A 0.02 0.02 0.0 0 1 25.50 63.75
  L 33.34 67.57
  Z
  M 47.64 66.14
  L 46.21 65.75
  A 0.45 0.45 0.0 0 0 45.66 66.07
  L 45.49 66.69
  A 2.57 1.11 -74.9 0 0 45.90 69.46
  L 46.05 69.50
  A 2.57 1.11 -74.9 0 0 47.79 67.31
  L 47.96 66.69
  A 0.45 0.45 0.0 0 0 47.64 66.14
  Z"
/>
<path fill="#f4b98e" d="
  M 47.64 66.14
  A 0.45 0.45 0.0 0 1 47.96 66.69
  L 47.79 67.31
  A 2.57 1.11 -74.9 0 1 46.05 69.50
  L 45.90 69.46
  A 2.57 1.11 -74.9 0 1 45.49 66.69
  L 45.66 66.07
  A 0.45 0.45 0.0 0 1 46.21 65.75
  L 47.64 66.14
  Z"
/>
<path fill="#ffffff" d="
  M 42.47 66.37
  Q 41.04 67.46 37.88 68.89
  Q 35.38 70.03 33.34 67.57
  L 42.47 66.37
  Z"
/>
<path fill="#3e429d" d="
  M 70.27 72.67
  L 69.19 72.69
  Q 69.79 72.48 70.27 72.67
  Z"
/>
<path fill="#936e82" d="
  M 43.30 76.78
  Q 41.94 77.17 40.47 76.94
  Q 41.55 76.37 43.30 76.78
  Z"
/>
</svg>
