<?xml version="1.0" encoding="UTF-8" standalone="no"?>
<!DOCTYPE svg PUBLIC "-//W3C//DTD SVG 1.1//EN" "http://www.w3.org/Graphics/SVG/1.1/DTD/svg11.dtd">
<svg xmlns="http://www.w3.org/2000/svg" version="1.1" viewBox="0.00 0.00 400.00 400.00">
<g stroke-width="2.00" fill="none" stroke-linecap="butt">
<path stroke="#c4f5f5" vector-effect="non-scaling-stroke" d="
  M 148.17 326.58
  Q 149.40 325.65 151.18 326.62
  Q 165.42 334.39 181.95 339.36
  C 191.96 342.37 205.10 344.42 214.75 344.85
  C 248.09 346.37 279.70 337.43 307.01 318.72
  Q 342.98 294.08 360.47 251.72
  Q 364.66 241.56 367.66 228.16
  C 380.77 169.45 355.78 107.80 306.38 74.14
  C 291.50 64.01 273.47 59.66 256.07 64.83
  Q 255.54 64.99 249.37 67.78
  Q 245.70 69.44 242.29 69.60"
/>
<path stroke="#ccf4e0" vector-effect="non-scaling-stroke" d="
  M 242.29 69.60
  Q 232.96 65.00 229.14 63.58
  C 181.93 46.16 130.12 52.60 89.35 81.97
  Q 59.70 103.33 43.06 136.72
  Q 26.46 170.03 27.98 208.98
  C 29.32 243.01 42.98 275.34 65.34 300.87
  Q 77.50 314.76 91.94 324.03
  Q 110.50 335.96 132.75 332.56
  Q 139.67 331.51 148.17 326.58"
/>
<path stroke="#90ead6" vector-effect="non-scaling-stroke" d="
  M 242.29 69.60
  L 244.24 70.58"
/>
<path stroke="#549e83" vector-effect="non-scaling-stroke" d="
  M 244.24 70.58
  Q 237.92 74.77 231.65 79.10
  Q 222.85 85.18 218.84 87.31
  Q 204.34 95.04 187.63 98.37
  Q 179.05 100.09 171.26 100.08
  C 161.08 100.08 145.02 99.62 133.85 101.11
  C 114.26 103.72 98.46 112.71 89.76 131.00
  Q 71.79 168.82 74.97 208.16
  Q 77.95 245.11 97.63 276.30
  Q 116.83 306.75 149.67 325.78"
/>
<path stroke="#90ead6" vector-effect="non-scaling-stroke" d="
  M 149.67 325.78
  Q 147.94 325.74 148.17 326.58"
/>
<path stroke="#4c9e99" vector-effect="non-scaling-stroke" d="
  M 149.67 325.78
  Q 162.95 316.96 172.50 312.23
  Q 188.24 304.43 208.14 302.18
  Q 215.62 301.33 228.45 302.18
  C 242.35 303.09 253.77 303.73 266.45 301.92
  Q 292.27 298.24 304.78 275.84
  Q 325.16 239.36 324.24 199.10
  C 323.51 167.21 312.70 136.40 293.24 111.27
  Q 273.50 85.78 244.24 70.58"
/>
<path stroke="#88a9a3" vector-effect="non-scaling-stroke" d="
  M 239.87 194.61
  A 0.37 0.36 -20.9 0 1 240.15 193.99
  Q 242.51 194.11 242.98 193.20
  Q 243.65 191.92 242.44 190.24
  Q 240.47 187.50 236.45 187.44
  Q 227.12 187.29 221.63 194.34
  C 219.02 197.69 217.73 202.30 216.45 205.71
  C 215.15 209.19 212.14 214.95 208.42 217.29
  A 1.53 1.52 -22.4 0 1 206.12 216.34
  Q 204.65 209.94 205.23 202.74
  A 4.34 4.28 61.6 0 1 205.73 201.03
  Q 206.69 199.27 209.06 195.36
  Q 215.13 185.33 218.83 170.94
  C 219.71 167.53 221.02 159.16 218.92 156.27
  Q 216.46 152.88 212.31 154.62
  C 204.16 158.02 200.06 169.22 197.97 176.96
  C 194.74 188.96 192.65 203.71 196.83 215.05
  C 199.33 221.84 206.22 224.53 212.15 219.61
  Q 215.30 217.00 217.24 213.35
  A 0.38 0.38 0.0 0 1 217.92 213.36
  C 218.74 214.93 220.06 217.41 221.58 218.58
  C 227.75 223.32 235.28 221.73 239.63 215.56
  C 243.79 209.66 245.33 200.21 239.87 194.61"
/>
<path stroke="#88a9a3" vector-effect="non-scaling-stroke" d="
  M 119.02 168.21
  C 124.13 167.79 140.87 167.14 140.93 162.08
  A 1.25 1.25 0.0 0 0 139.74 160.81
  Q 124.39 160.07 110.00 160.65
  Q 108.77 160.70 108.00 161.08
  A 2.25 2.25 0.0 0 0 106.83 163.77
  L 108.03 167.70
  A 1.04 1.02 -48.9 0 1 108.06 168.21
  Q 104.76 184.84 102.19 203.34
  C 101.28 209.95 98.40 218.75 106.97 221.32
  C 112.79 223.06 119.25 221.49 125.39 219.91
  C 127.69 219.31 135.20 216.68 135.13 213.57
  A 0.61 0.61 0.0 0 0 134.48 212.98
  Q 124.56 213.69 117.20 213.36
  Q 114.90 213.26 114.02 212.78
  A 2.22 2.21 -72.6 0 1 112.88 210.58
  L 114.69 194.77
  A 0.65 0.65 0.0 0 1 115.30 194.19
  L 128.49 193.35
  A 7.51 7.51 0.0 0 0 133.56 190.90
  L 133.86 190.57
  A 1.57 1.57 0.0 0 0 132.70 187.94
  L 116.69 187.94
  A 0.48 0.48 0.0 0 1 116.22 187.38
  Q 117.70 178.34 118.53 172.42
  C 118.70 171.15 118.35 170.06 118.34 168.96
  A 0.74 0.73 87.5 0 1 119.02 168.21"
/>
<path stroke="#88a9a3" vector-effect="non-scaling-stroke" d="
  M 296.4350 173.5934
  A 5.28 4.65 -79.8 0 0 290.9235 177.9666
  A 5.28 4.65 -79.8 0 0 294.5650 183.9866
  A 5.28 4.65 -79.8 0 0 300.0765 179.6134
  A 5.28 4.65 -79.8 0 0 296.4350 173.5934"
/>
<path stroke="#88a9a3" vector-effect="non-scaling-stroke" d="
  M 165.37 211.93
  Q 167.43 220.96 176.66 221.15
  C 187.63 221.37 192.48 209.05 190.26 199.90
  Q 189.76 197.87 187.48 196.93
  A 1.05 1.05 0.0 0 0 186.14 197.43
  Q 185.95 197.80 185.97 198.24
  C 186.19 203.77 185.38 209.85 181.96 214.25
  C 179.88 216.93 176.50 217.97 175.03 213.97
  Q 173.95 211.04 174.30 208.51
  Q 176.15 194.76 189.66 193.69
  A 0.81 0.80 4.6 0 0 190.37 193.09
  Q 191.02 190.44 189.75 189.50
  C 180.58 182.67 169.69 192.15 166.21 200.97
  C 164.01 206.56 161.62 210.91 156.37 213.95
  C 153.03 215.89 148.38 216.34 147.71 211.54
  C 147.07 206.94 148.81 192.59 156.40 193.53
  C 157.75 193.70 158.62 194.62 159.84 195.61
  A 0.67 0.66 30.9 0 0 160.88 195.35
  C 162.18 192.13 160.84 189.15 157.44 188.01
  C 149.92 185.46 142.95 191.09 139.81 197.65
  C 136.57 204.42 135.25 217.27 143.97 220.57
  C 151.84 223.54 160.75 219.39 164.55 211.83
  A 0.44 0.44 0.0 0 1 165.37 211.93"
/>
<path stroke="#88a9a3" vector-effect="non-scaling-stroke" d="
  M 285.15 205.96
  C 284.69 210.87 284.46 219.61 290.31 220.93
  C 297.85 222.63 303.34 215.89 302.46 208.67
  Q 302.29 207.29 301.25 206.90
  A 1.08 0.97 16.8 0 0 299.85 207.56
  Q 298.79 212.35 294.94 216.20
  A 1.46 1.46 0.0 0 1 292.60 215.82
  C 291.55 213.74 292.51 207.52 293.13 204.87
  Q 295.72 193.84 296.32 192.09
  A 2.90 2.89 -78.6 0 0 293.78 188.27
  L 293.21 188.23
  A 5.44 5.44 0.0 0 0 287.76 191.69
  Q 283.76 201.91 276.79 209.03
  A 0.42 0.42 0.0 0 1 276.07 208.75
  Q 275.77 199.81 274.90 192.57
  Q 274.28 187.31 269.39 187.29
  Q 254.70 187.25 248.05 200.59
  C 245.56 205.57 244.42 214.48 249.35 218.21
  C 255.71 223.05 264.78 213.49 267.46 208.19
  A 0.50 0.50 0.0 0 1 268.40 208.41
  L 268.40 215.12
  A 1.88 1.86 -27.9 0 1 268.07 216.18
  Q 267.19 217.40 264.01 220.25
  C 260.01 223.82 238.41 246.53 250.24 251.72
  C 253.98 253.36 259.57 249.91 262.04 247.26
  Q 270.17 238.53 273.51 226.49
  Q 275.52 219.25 275.68 216.47
  A 1.67 1.65 -22.6 0 1 276.11 215.44
  L 284.82 205.82
  A 0.19 0.19 0.0 0 1 285.15 205.96"
/>
<path stroke="#88a9a3" vector-effect="non-scaling-stroke" d="
  M 206.08 191.34
  Q 206.48 191.47 209.37 185.19
  Q 212.80 177.76 214.86 169.86
  Q 216.77 162.57 215.27 162.10
  Q 213.77 161.63 211.16 168.70
  Q 208.34 176.36 206.91 184.41
  Q 205.69 191.22 206.08 191.34"
/>
<path stroke="#88a9a3" vector-effect="non-scaling-stroke" d="
  M 236.16 195.12
  C 228.57 198.03 224.89 206.62 227.03 214.24
  C 227.85 217.16 230.78 217.45 232.69 215.43
  C 237.30 210.59 238.15 201.98 237.25 195.76
  A 0.81 0.81 0.0 0 0 236.16 195.12"
/>
<path stroke="#88a9a3" vector-effect="non-scaling-stroke" d="
  M 267.41 193.29
  C 261.41 193.96 256.23 201.93 254.17 207.20
  Q 253.16 209.80 253.47 212.91
  A 1.00 0.99 -10.1 0 0 254.72 213.77
  Q 256.19 213.37 257.59 212.08
  Q 265.67 204.60 267.85 193.77
  A 0.40 0.40 0.0 0 0 267.41 193.29"
/>
<path stroke="#88a9a3" vector-effect="non-scaling-stroke" d="
  M 266.10 225.36
  Q 258.72 232.61 253.44 241.41
  A 1.47 1.35 -68.7 0 0 254.29 243.59
  Q 254.86 243.68 255.78 243.03
  C 260.68 239.59 264.77 231.08 266.62 225.69
  A 0.32 0.32 0.0 0 0 266.10 225.36"
/>
</g>
<path fill="#ffffff" d="
  M 400.00 0.00
  L 400.00 400.00
  L 0.00 400.00
  L 0.00 0.00
  L 400.00 0.00
  Z
  M 148.17 326.58
  Q 149.40 325.65 151.18 326.62
  Q 165.42 334.39 181.95 339.36
  C 191.96 342.37 205.10 344.42 214.75 344.85
  C 248.09 346.37 279.70 337.43 307.01 318.72
  Q 342.98 294.08 360.47 251.72
  Q 364.66 241.56 367.66 228.16
  C 380.77 169.45 355.78 107.80 306.38 74.14
  C 291.50 64.01 273.47 59.66 256.07 64.83
  Q 255.54 64.99 249.37 67.78
  Q 245.70 69.44 242.29 69.60
  Q 232.96 65.00 229.14 63.58
  C 181.93 46.16 130.12 52.60 89.35 81.97
  Q 59.70 103.33 43.06 136.72
  Q 26.46 170.03 27.98 208.98
  C 29.32 243.01 42.98 275.34 65.34 300.87
  Q 77.50 314.76 91.94 324.03
  Q 110.50 335.96 132.75 332.56
  Q 139.67 331.51 148.17 326.58
  Z"
/>
<path fill="#98e9c0" d="
  M 242.29 69.60
  L 244.24 70.58
  Q 237.92 74.77 231.65 79.10
  Q 222.85 85.18 218.84 87.31
  Q 204.34 95.04 187.63 98.37
  Q 179.05 100.09 171.26 100.08
  C 161.08 100.08 145.02 99.62 133.85 101.11
  C 114.26 103.72 98.46 112.71 89.76 131.00
  Q 71.79 168.82 74.97 208.16
  Q 77.95 245.11 97.63 276.30
  Q 116.83 306.75 149.67 325.78
  Q 147.94 325.74 148.17 326.58
  Q 139.67 331.51 132.75 332.56
  Q 110.50 335.96 91.94 324.03
  Q 77.50 314.76 65.34 300.87
  C 42.98 275.34 29.32 243.01 27.98 208.98
  Q 26.46 170.03 43.06 136.72
  Q 59.70 103.33 89.35 81.97
  C 130.12 52.60 181.93 46.16 229.14 63.58
  Q 232.96 65.00 242.29 69.60
  Z"
/>
<path fill="#88eaeb" d="
  M 148.17 326.58
  Q 147.94 325.74 149.67 325.78
  Q 162.95 316.96 172.50 312.23
  Q 188.24 304.43 208.14 302.18
  Q 215.62 301.33 228.45 302.18
  C 242.35 303.09 253.77 303.73 266.45 301.92
  Q 292.27 298.24 304.78 275.84
  Q 325.16 239.36 324.24 199.10
  C 323.51 167.21 312.70 136.40 293.24 111.27
  Q 273.50 85.78 244.24 70.58
  L 242.29 69.60
  Q 245.70 69.44 249.37 67.78
  Q 255.54 64.99 256.07 64.83
  C 273.47 59.66 291.50 64.01 306.38 74.14
  C 355.78 107.80 380.77 169.45 367.66 228.16
  Q 364.66 241.56 360.47 251.72
  Q 342.98 294.08 307.01 318.72
  C 279.70 337.43 248.09 346.37 214.75 344.85
  C 205.10 344.42 191.96 342.37 181.95 339.36
  Q 165.42 334.39 151.18 326.62
  Q 149.40 325.65 148.17 326.58
  Z"
/>
<path fill="#105246" d="
  M 244.24 70.58
  Q 273.50 85.78 293.24 111.27
  C 312.70 136.40 323.51 167.21 324.24 199.10
  Q 325.16 239.36 304.78 275.84
  Q 292.27 298.24 266.45 301.92
  C 253.77 303.73 242.35 303.09 228.45 302.18
  Q 215.62 301.33 208.14 302.18
  Q 188.24 304.43 172.50 312.23
  Q 162.95 316.96 149.67 325.78
  Q 116.83 306.75 97.63 276.30
  Q 77.95 245.11 74.97 208.16
  Q 71.79 168.82 89.76 131.00
  C 98.46 112.71 114.26 103.72 133.85 101.11
  C 145.02 99.62 161.08 100.08 171.26 100.08
  Q 179.05 100.09 187.63 98.37
  Q 204.34 95.04 218.84 87.31
  Q 222.85 85.18 231.65 79.10
  Q 237.92 74.77 244.24 70.58
  Z
  M 239.87 194.61
  A 0.37 0.36 -20.9 0 1 240.15 193.99
  Q 242.51 194.11 242.98 193.20
  Q 243.65 191.92 242.44 190.24
  Q 240.47 187.50 236.45 187.44
  Q 227.12 187.29 221.63 194.34
  C 219.02 197.69 217.73 202.30 216.45 205.71
  C 215.15 209.19 212.14 214.95 208.42 217.29
  A 1.53 1.52 -22.4 0 1 206.12 216.34
  Q 204.65 209.94 205.23 202.74
  A 4.34 4.28 61.6 0 1 205.73 201.03
  Q 206.69 199.27 209.06 195.36
  Q 215.13 185.33 218.83 170.94
  C 219.71 167.53 221.02 159.16 218.92 156.27
  Q 216.46 152.88 212.31 154.62
  C 204.16 158.02 200.06 169.22 197.97 176.96
  C 194.74 188.96 192.65 203.71 196.83 215.05
  C 199.33 221.84 206.22 224.53 212.15 219.61
  Q 215.30 217.00 217.24 213.35
  A 0.38 0.38 0.0 0 1 217.92 213.36
  C 218.74 214.93 220.06 217.41 221.58 218.58
  C 227.75 223.32 235.28 221.73 239.63 215.56
  C 243.79 209.66 245.33 200.21 239.87 194.61
  Z
  M 119.02 168.21
  C 124.13 167.79 140.87 167.14 140.93 162.08
  A 1.25 1.25 0.0 0 0 139.74 160.81
  Q 124.39 160.07 110.00 160.65
  Q 108.77 160.70 108.00 161.08
  A 2.25 2.25 0.0 0 0 106.83 163.77
  L 108.03 167.70
  A 1.04 1.02 -48.9 0 1 108.06 168.21
  Q 104.76 184.84 102.19 203.34
  C 101.28 209.95 98.40 218.75 106.97 221.32
  C 112.79 223.06 119.25 221.49 125.39 219.91
  C 127.69 219.31 135.20 216.68 135.13 213.57
  A 0.61 0.61 0.0 0 0 134.48 212.98
  Q 124.56 213.69 117.20 213.36
  Q 114.90 213.26 114.02 212.78
  A 2.22 2.21 -72.6 0 1 112.88 210.58
  L 114.69 194.77
  A 0.65 0.65 0.0 0 1 115.30 194.19
  L 128.49 193.35
  A 7.51 7.51 0.0 0 0 133.56 190.90
  L 133.86 190.57
  A 1.57 1.57 0.0 0 0 132.70 187.94
  L 116.69 187.94
  A 0.48 0.48 0.0 0 1 116.22 187.38
  Q 117.70 178.34 118.53 172.42
  C 118.70 171.15 118.35 170.06 118.34 168.96
  A 0.74 0.73 87.5 0 1 119.02 168.21
  Z
  M 296.4350 173.5934
  A 5.28 4.65 -79.8 0 0 290.9235 177.9666
  A 5.28 4.65 -79.8 0 0 294.5650 183.9866
  A 5.28 4.65 -79.8 0 0 300.0765 179.6134
  A 5.28 4.65 -79.8 0 0 296.4350 173.5934
  Z
  M 165.37 211.93
  Q 167.43 220.96 176.66 221.15
  C 187.63 221.37 192.48 209.05 190.26 199.90
  Q 189.76 197.87 187.48 196.93
  A 1.05 1.05 0.0 0 0 186.14 197.43
  Q 185.95 197.80 185.97 198.24
  C 186.19 203.77 185.38 209.85 181.96 214.25
  C 179.88 216.93 176.50 217.97 175.03 213.97
  Q 173.95 211.04 174.30 208.51
  Q 176.15 194.76 189.66 193.69
  A 0.81 0.80 4.6 0 0 190.37 193.09
  Q 191.02 190.44 189.75 189.50
  C 180.58 182.67 169.69 192.15 166.21 200.97
  C 164.01 206.56 161.62 210.91 156.37 213.95
  C 153.03 215.89 148.38 216.34 147.71 211.54
  C 147.07 206.94 148.81 192.59 156.40 193.53
  C 157.75 193.70 158.62 194.62 159.84 195.61
  A 0.67 0.66 30.9 0 0 160.88 195.35
  C 162.18 192.13 160.84 189.15 157.44 188.01
  C 149.92 185.46 142.95 191.09 139.81 197.65
  C 136.57 204.42 135.25 217.27 143.97 220.57
  C 151.84 223.54 160.75 219.39 164.55 211.83
  A 0.44 0.44 0.0 0 1 165.37 211.93
  Z
  M 285.15 205.96
  C 284.69 210.87 284.46 219.61 290.31 220.93
  C 297.85 222.63 303.34 215.89 302.46 208.67
  Q 302.29 207.29 301.25 206.90
  A 1.08 0.97 16.8 0 0 299.85 207.56
  Q 298.79 212.35 294.94 216.20
  A 1.46 1.46 0.0 0 1 292.60 215.82
  C 291.55 213.74 292.51 207.52 293.13 204.87
  Q 295.72 193.84 296.32 192.09
  A 2.90 2.89 -78.6 0 0 293.78 188.27
  L 293.21 188.23
  A 5.44 5.44 0.0 0 0 287.76 191.69
  Q 283.76 201.91 276.79 209.03
  A 0.42 0.42 0.0 0 1 276.07 208.75
  Q 275.77 199.81 274.90 192.57
  Q 274.28 187.31 269.39 187.29
  Q 254.70 187.25 248.05 200.59
  C 245.56 205.57 244.42 214.48 249.35 218.21
  C 255.71 223.05 264.78 213.49 267.46 208.19
  A 0.50 0.50 0.0 0 1 268.40 208.41
  L 268.40 215.12
  A 1.88 1.86 -27.9 0 1 268.07 216.18
  Q 267.19 217.40 264.01 220.25
  C 260.01 223.82 238.41 246.53 250.24 251.72
  C 253.98 253.36 259.57 249.91 262.04 247.26
  Q 270.17 238.53 273.51 226.49
  Q 275.52 219.25 275.68 216.47
  A 1.67 1.65 -22.6 0 1 276.11 215.44
  L 284.82 205.82
  A 0.19 0.19 0.0 0 1 285.15 205.96
  Z"
/>
<path fill="#ffffff" d="
  M 239.87 194.61
  C 245.33 200.21 243.79 209.66 239.63 215.56
  C 235.28 221.73 227.75 223.32 221.58 218.58
  C 220.06 217.41 218.74 214.93 217.92 213.36
  A 0.38 0.38 0.0 0 0 217.24 213.35
  Q 215.30 217.00 212.15 219.61
  C 206.22 224.53 199.33 221.84 196.83 215.05
  C 192.65 203.71 194.74 188.96 197.97 176.96
  C 200.06 169.22 204.16 158.02 212.31 154.62
  Q 216.46 152.88 218.92 156.27
  C 221.02 159.16 219.71 167.53 218.83 170.94
  Q 215.13 185.33 209.06 195.36
  Q 206.69 199.27 205.73 201.03
  A 4.34 4.28 61.6 0 0 205.23 202.74
  Q 204.65 209.94 206.12 216.34
  A 1.53 1.52 -22.4 0 0 208.42 217.29
  C 212.14 214.95 215.15 209.19 216.45 205.71
  C 217.73 202.30 219.02 197.69 221.63 194.34
  Q 227.12 187.29 236.45 187.44
  Q 240.47 187.50 242.44 190.24
  Q 243.65 191.92 242.98 193.20
  Q 242.51 194.11 240.15 193.99
  A 0.37 0.36 -20.9 0 0 239.87 194.61
  Z
  M 206.08 191.34
  Q 206.48 191.47 209.37 185.19
  Q 212.80 177.76 214.86 169.86
  Q 216.77 162.57 215.27 162.10
  Q 213.77 161.63 211.16 168.70
  Q 208.34 176.36 206.91 184.41
  Q 205.69 191.22 206.08 191.34
  Z
  M 236.16 195.12
  C 228.57 198.03 224.89 206.62 227.03 214.24
  C 227.85 217.16 230.78 217.45 232.69 215.43
  C 237.30 210.59 238.15 201.98 237.25 195.76
  A 0.81 0.81 0.0 0 0 236.16 195.12
  Z"
/>
<path fill="#ffffff" d="
  M 118.34 168.96
  C 118.35 170.06 118.70 171.15 118.53 172.42
  Q 117.70 178.34 116.22 187.38
  A 0.48 0.48 0.0 0 0 116.69 187.94
  L 132.70 187.94
  A 1.57 1.57 0.0 0 1 133.86 190.57
  L 133.56 190.90
  A 7.51 7.51 0.0 0 1 128.49 193.35
  L 115.30 194.19
  A 0.65 0.65 0.0 0 0 114.69 194.77
  L 112.88 210.58
  A 2.22 2.21 -72.6 0 0 114.02 212.78
  Q 114.90 213.26 117.20 213.36
  Q 124.56 213.69 134.48 212.98
  A 0.61 0.61 0.0 0 1 135.13 213.57
  C 135.20 216.68 127.69 219.31 125.39 219.91
  C 119.25 221.49 112.79 223.06 106.97 221.32
  C 98.40 218.75 101.28 209.95 102.19 203.34
  Q 104.76 184.84 108.06 168.21
  A 1.04 1.02 -48.9 0 0 108.03 167.70
  L 106.83 163.77
  A 2.25 2.25 0.0 0 1 108.00 161.08
  Q 108.77 160.70 110.00 160.65
  Q 124.39 160.07 139.74 160.81
  A 1.25 1.25 0.0 0 1 140.93 162.08
  C 140.87 167.14 124.13 167.79 119.02 168.21
  A 0.74 0.73 87.5 0 0 118.34 168.96
  Z"
/>
<path fill="#105246" d="
  M 215.27 162.10
  Q 216.77 162.57 214.86 169.86
  Q 212.80 177.76 209.37 185.19
  Q 206.48 191.47 206.08 191.34
  Q 205.69 191.22 206.91 184.41
  Q 208.34 176.36 211.16 168.70
  Q 213.77 161.63 215.27 162.10
  Z"
/>
<ellipse fill="#ffffff" cx="0.00" cy="0.00" transform="translate(295.50,178.79) rotate(-79.8)" rx="5.28" ry="4.65"/>
<path fill="#ffffff" d="
  M 165.37 211.93
  A 0.44 0.44 0.0 0 0 164.55 211.83
  C 160.75 219.39 151.84 223.54 143.97 220.57
  C 135.25 217.27 136.57 204.42 139.81 197.65
  C 142.95 191.09 149.92 185.46 157.44 188.01
  C 160.84 189.15 162.18 192.13 160.88 195.35
  A 0.67 0.66 30.9 0 1 159.84 195.61
  C 158.62 194.62 157.75 193.70 156.40 193.53
  C 148.81 192.59 147.07 206.94 147.71 211.54
  C 148.38 216.34 153.03 215.89 156.37 213.95
  C 161.62 210.91 164.01 206.56 166.21 200.97
  C 169.69 192.15 180.58 182.67 189.75 189.50
  Q 191.02 190.44 190.37 193.09
  A 0.81 0.80 4.6 0 1 189.66 193.69
  Q 176.15 194.76 174.30 208.51
  Q 173.95 211.04 175.03 213.97
  C 176.50 217.97 179.88 216.93 181.96 214.25
  C 185.38 209.85 186.19 203.77 185.97 198.24
  Q 185.95 197.80 186.14 197.43
  A 1.05 1.05 0.0 0 1 187.48 196.93
  Q 189.76 197.87 190.26 199.90
  C 192.48 209.05 187.63 221.37 176.66 221.15
  Q 167.43 220.96 165.37 211.93
  Z"
/>
<path fill="#ffffff" d="
  M 285.15 205.96
  A 0.19 0.19 0.0 0 0 284.82 205.82
  L 276.11 215.44
  A 1.67 1.65 -22.6 0 0 275.68 216.47
  Q 275.52 219.25 273.51 226.49
  Q 270.17 238.53 262.04 247.26
  C 259.57 249.91 253.98 253.36 250.24 251.72
  C 238.41 246.53 260.01 223.82 264.01 220.25
  Q 267.19 217.40 268.07 216.18
  A 1.88 1.86 -27.9 0 0 268.40 215.12
  L 268.40 208.41
  A 0.50 0.50 0.0 0 0 267.46 208.19
  C 264.78 213.49 255.71 223.05 249.35 218.21
  C 244.42 214.48 245.56 205.57 248.05 200.59
  Q 254.70 187.25 269.39 187.29
  Q 274.28 187.31 274.90 192.57
  Q 275.77 199.81 276.07 208.75
  A 0.42 0.42 0.0 0 0 276.79 209.03
  Q 283.76 201.91 287.76 191.69
  A 5.44 5.44 0.0 0 1 293.21 188.23
  L 293.78 188.27
  A 2.90 2.89 -78.6 0 1 296.32 192.09
  Q 295.72 193.84 293.13 204.87
  C 292.51 207.52 291.55 213.74 292.60 215.82
  A 1.46 1.46 0.0 0 0 294.94 216.20
  Q 298.79 212.35 299.85 207.56
  A 1.08 0.97 16.8 0 1 301.25 206.90
  Q 302.29 207.29 302.46 208.67
  C 303.34 215.89 297.85 222.63 290.31 220.93
  C 284.46 219.61 284.69 210.87 285.15 205.96
  Z
  M 267.41 193.29
  C 261.41 193.96 256.23 201.93 254.17 207.20
  Q 253.16 209.80 253.47 212.91
  A 1.00 0.99 -10.1 0 0 254.72 213.77
  Q 256.19 213.37 257.59 212.08
  Q 265.67 204.60 267.85 193.77
  A 0.40 0.40 0.0 0 0 267.41 193.29
  Z
  M 266.10 225.36
  Q 258.72 232.61 253.44 241.41
  A 1.47 1.35 -68.7 0 0 254.29 243.59
  Q 254.86 243.68 255.78 243.03
  C 260.68 239.59 264.77 231.08 266.62 225.69
  A 0.32 0.32 0.0 0 0 266.10 225.36
  Z"
/>
<path fill="#105246" d="
  M 267.41 193.29
  A 0.40 0.40 0.0 0 1 267.85 193.77
  Q 265.67 204.60 257.59 212.08
  Q 256.19 213.37 254.72 213.77
  A 1.00 0.99 -10.1 0 1 253.47 212.91
  Q 253.16 209.80 254.17 207.20
  C 256.23 201.93 261.41 193.96 267.41 193.29
  Z"
/>
<path fill="#105246" d="
  M 236.16 195.12
  A 0.81 0.81 0.0 0 1 237.25 195.76
  C 238.15 201.98 237.30 210.59 232.69 215.43
  C 230.78 217.45 227.85 217.16 227.03 214.24
  C 224.89 206.62 228.57 198.03 236.16 195.12
  Z"
/>
<path fill="#105246" d="
  M 266.10 225.36
  A 0.32 0.32 0.0 0 1 266.62 225.69
  C 264.77 231.08 260.68 239.59 255.78 243.03
  Q 254.86 243.68 254.29 243.59
  A 1.47 1.35 -68.7 0 1 253.44 241.41
  Q 258.72 232.61 266.10 225.36
  Z"
/>
</svg>
