<?xml version="1.0" encoding="utf-8"?>
<!-- Generator: Adobe Illustrator 16.0.3, SVG Export Plug-In . SVG Version: 6.00 Build 0)  -->
<!DOCTYPE svg PUBLIC "-//W3C//DTD SVG 1.1//EN" "http://www.w3.org/Graphics/SVG/1.1/DTD/svg11.dtd">
<svg version="1.1" id="Layer_1" xmlns="http://www.w3.org/2000/svg" xmlns:xlink="http://www.w3.org/1999/xlink" x="0px" y="0px"
	 width="569.675px" height="200px" viewBox="0 0 569.675 200" enable-background="new 0 0 569.675 200" xml:space="preserve">
<g>
	<path fill="#17847E" d="M99.917,48.626h23.901v77.188h51.365v23.901H99.917V48.626z"/>
	<path fill="#17847E" d="M232.582,72.566c14.831,0,26.893,12.063,26.893,26.89c0,14.832-12.062,26.895-26.893,26.895
		c-14.817,0-26.893-12.063-26.893-26.895C205.689,84.635,217.76,72.566,232.582,72.566 M232.582,47.792
		c-28.533,0-51.665,23.134-51.665,51.665c0,28.541,23.137,51.667,51.665,51.667c28.533,0,51.67-23.132,51.67-51.667
		C284.252,70.926,261.115,47.792,232.582,47.792L232.582,47.792z"/>
	<path fill="#17847E" d="M391.941,106.992V48.624h23.966v55.788c0,12.435,8.338,22.229,20.076,22.229
		c10.426,0,20.427-7.849,20.427-22.229V48.626h23.901v58.366c0,26.399-17.436,44.111-44.328,44.111
		C411.041,151.104,391.941,135.06,391.941,106.992z"/>
	<rect x="1.324" y="125.814" fill="#17847E" width="84.36" height="23.901"/>
	<rect x="1.324" y="87.218" fill="#1E4682" width="42.18" height="23.904"/>
	<rect x="1.324" y="48.626" fill="#AA3C64" width="84.36" height="23.901"/>
	<path fill="#17847E" d="M358.159,114.693v-0.788c9.992-4.779,19.256-14.817,19.256-30.169c0-20.081-12.389-35.022-35.576-35.022
		h-44.111v101.09h23.967V69.762h16.785c8.825,0,14.872,5.697,14.872,13.273c0,8.798-4.931,12.375-10.733,14.029
		c-5.789,1.65-16.27,1.754-16.27,1.754v1.279l28.109,49.707h27.072L358.159,114.693z"/>
	<path fill="#17847E" d="M555.468,142.201c-8.111,5.899-18.527,8.999-30.594,8.614c-13.559-0.434-26.362-5.432-36.285-13.693
		c0,0,8.794-15.702,11.131-19.719c3.812,5.393,16.568,11.852,28.215,12.186c7.333,0.212,14.302-2.917,14.522-9.976
		c0.226-6.962-12.531-9.989-22.191-13.372c-12.721-4.448-26.045-12.684-25.542-28.363c0.599-18.804,15.085-31.047,36.756-30.356
		c11.789,0.378,23.652,4.238,32.266,9.911l-10.476,18.546c-5.706-3.606-16.449-8.413-25.312-7.812
		c-6.374,0.434-9.172,4.144-9.038,8.64c0.156,5.427,7.937,7.164,24.45,13.446c15.997,6.088,23.855,15.511,23.795,27.052
		C567.119,125.529,564.28,135.781,555.468,142.201z"/>
</g>
</svg>
