<svg width="194" height="45" viewBox="0 0 194 45" fill="none" xmlns="http://www.w3.org/2000/svg">
<path d="M35.2047 26.5037C34.3103 25.9167 33.105 26.1595 32.5128 27.0462C32.0612 27.7221 31.2401 28.5285 29.8929 28.5331C29.1557 28.5355 28.289 28.2136 27.6367 27.5138C27.4928 27.3595 27.4926 27.1216 27.6395 26.9701C30.9242 23.5829 32.6725 18.7944 31.9831 13.7774C30.7869 5.07195 22.7053 -1.02663 13.925 0.143899C5.21044 1.30566 -0.974707 9.27084 0.127079 17.9186C0.860986 23.679 4.60479 28.3173 9.58426 30.4991C9.7492 30.5714 9.84418 30.7467 9.81387 30.9229C9.75269 31.2785 9.63414 31.6262 9.45631 31.9504C9.12686 32.5511 8.3041 33.5684 6.49709 33.6361C5.42421 33.6758 4.58866 34.5698 4.62894 35.6325C4.66916 36.6952 5.57085 37.5243 6.64289 37.4844C6.9238 37.4739 7.19963 37.4503 7.47023 37.4137C9.82454 37.0958 11.7643 35.8048 12.8694 33.7899C13.0016 33.5488 13.1186 33.3016 13.2209 33.0498C13.2532 32.9701 13.3366 32.923 13.4219 32.9382C13.5202 32.9557 13.5867 33.0487 13.5691 33.1462C13.129 35.592 11.9798 38.0141 10.3076 39.8534C9.60275 40.6287 9.6209 41.8324 10.38 42.5556C10.8276 42.982 11.4238 43.1525 11.9902 43.076C12.4275 43.017 12.8472 42.8106 13.1666 42.4609C14.7686 40.7078 16.0238 38.5284 16.7967 36.1583C17.1603 35.0431 17.4096 33.9119 17.5416 32.7935C17.5507 32.7164 17.6122 32.6561 17.6901 32.6483C17.7756 32.6399 17.8543 32.6974 17.8707 32.781C18.5021 36.0033 17.9554 39.011 16.1905 42.1328C15.666 43.0605 15.9995 44.234 16.9354 44.7539C17.318 44.9665 17.7421 45.0368 18.1457 44.9823C18.729 44.9036 19.2695 44.5638 19.5795 44.0155C21.7196 40.2301 22.4403 36.4323 21.7614 32.4701C21.7447 32.3725 21.8066 32.2786 21.9039 32.2558C21.993 32.2349 22.085 32.2798 22.121 32.3633C23.0412 34.4955 23.5519 37.4564 22.9164 40.4767C22.6973 41.5177 23.3711 42.5377 24.4213 42.7548C24.6444 42.801 24.8665 42.8071 25.0802 42.7783C25.872 42.6713 26.5469 42.0829 26.7194 41.263C27.4674 37.7082 26.984 34.2309 25.9511 31.5043C25.8925 31.3496 26.0661 31.211 26.2065 31.3001C27.3036 31.9959 28.5806 32.3885 29.9055 32.3842C30.2162 32.3832 30.5229 32.362 30.8245 32.3213C32.8109 32.0531 34.5727 30.9379 35.752 29.1723C36.3442 28.2856 36.0993 27.0909 35.2047 26.5037ZM10.6165 19.2258C9.518 19.3741 8.50556 18.6071 8.35516 17.5125C8.20475 16.4179 8.97334 15.4104 10.0718 15.262C11.1704 15.1137 12.1828 15.8808 12.3332 16.9753C12.4836 18.0699 11.715 19.0775 10.6165 19.2258ZM24.4379 15.3408C23.3394 15.4892 22.327 14.7221 22.1766 13.6275C22.0262 12.533 22.7948 11.5254 23.8933 11.3771C24.9918 11.2288 26.0042 11.9958 26.1546 13.0904C26.305 14.185 25.5364 15.1925 24.4379 15.3408Z" fill="#6E54D7"/>
<path d="M50.6567 12.625V16.0636H43.5147V19.0697H50.0105V22.2725H43.5147V25.2559H50.8495V28.6948H39.3318V12.625H50.6567Z" fill="#6E54D7"/>
<path d="M56.2336 28.695H52.2886V16.3055H56.2336V20.0475C56.7153 17.3674 58.121 15.9683 60.3486 15.9683C62.6159 15.9683 63.863 17.418 64.1066 20.3172C64.5318 17.4686 65.9714 15.9683 68.2726 15.9683C70.8008 15.9683 72.0816 17.7889 72.0816 21.3623V28.695H68.1368V22.2051C68.1368 20.2779 67.5189 19.3339 66.2323 19.3339C64.8945 19.3339 64.1576 20.3567 64.1576 22.295V28.695H60.2126V22.2051C60.2126 20.2779 59.5949 19.3339 58.3081 19.3339C56.9705 19.3339 56.2336 20.3567 56.2336 22.295V28.695Z" fill="#6E54D7"/>
<path d="M79.9523 15.9683C83.8294 15.9683 86.091 17.9461 86.091 21.3456V28.695H82.1459V25.6047C81.6132 27.723 79.873 29.032 77.5264 29.032C75.0607 29.032 73.4169 27.5825 73.4169 25.4136C73.4169 23.0255 75.3895 21.6321 78.7676 21.6321H82.1459V21.3456C82.1459 19.806 81.3297 18.9127 79.8559 18.9127C78.3766 18.9127 77.7135 19.6768 77.7135 20.9578H73.7853C73.7853 17.8788 76.1376 15.9683 79.9523 15.9683ZM79.3006 23.7447C78.0421 23.7447 77.379 24.1719 77.379 24.981C77.379 25.7955 78.0535 26.2676 79.2268 26.2676C80.882 26.2676 82.1459 25.335 82.1459 24.1213V23.7447H79.3006Z" fill="#6E54D7"/>
<path d="M91.7306 15.0747H87.7402V12.063H91.7306V15.0747ZM91.7078 28.6948H87.7628V16.3053H91.7078V28.6948Z" fill="#6E54D7"/>
<path d="M97.3784 28.6948H93.4333V12.063H97.3784V28.6948Z" fill="#6E54D7"/>
<path d="M106.982 12.2881C111.642 12.2881 114.974 15.5808 114.974 20.6602C114.974 25.7396 111.642 29.0321 106.982 29.0321C102.317 29.0321 98.9901 25.7396 98.9901 20.6602C98.9901 15.5808 102.317 12.2881 106.982 12.2881ZM106.982 25.5598C109.414 25.5598 110.757 23.8741 110.757 20.6602C110.757 17.4405 109.414 15.7606 106.982 15.7606C104.545 15.7606 103.207 17.4405 103.207 20.6602C103.207 23.8741 104.545 25.5598 106.982 25.5598Z" fill="#6E54D7"/>
<path d="M122.764 25.6663C124.056 25.6663 124.714 24.8911 124.946 23.6885H128.874C128.478 26.88 126.103 29.032 122.764 29.032C118.995 29.032 116.314 26.47 116.314 22.4974C116.314 18.5248 118.995 15.9683 122.764 15.9683C126.108 15.9683 128.478 18.1146 128.874 21.3117H124.946C124.714 20.1094 124.056 19.3339 122.764 19.3339C121.188 19.3339 120.293 20.441 120.293 22.4974C120.293 24.5538 121.188 25.6663 122.764 25.6663Z" fill="#6E54D7"/>
<path d="M135.682 29.0321C132.808 29.0321 131.329 27.3692 131.329 24.0932V19.3623H129.833V16.3057H131.329V13.4512H135.274V16.3057H138.596V19.3623H135.274V24.0988C135.274 25.4081 135.727 25.9811 136.793 25.9811C137.229 25.9811 137.796 25.8856 138.596 25.6891V28.5996C137.49 28.8862 136.527 29.0321 135.682 29.0321Z" fill="#6E54D7"/>
<path d="M145.917 15.9683C149.692 15.9683 152.367 18.5248 152.367 22.4974C152.367 26.47 149.692 29.032 145.917 29.032C142.148 29.032 139.467 26.47 139.467 22.4974C139.467 18.5248 142.148 15.9683 145.917 15.9683ZM145.923 25.6663C147.504 25.6663 148.388 24.5538 148.388 22.4974C148.388 20.441 147.504 19.3339 145.923 19.3339C144.341 19.3339 143.446 20.441 143.446 22.4974C143.446 24.5538 144.341 25.6663 145.923 25.6663Z" fill="#6E54D7"/>
<path d="M157.792 20.0308C158.302 17.3954 159.691 15.9683 161.788 15.9683C164.702 15.9683 166.714 18.6316 166.714 22.4974C166.714 26.3632 164.702 29.032 161.788 29.032C159.691 29.032 158.302 27.5992 157.792 24.9641V32.9483H153.847V16.3055H157.792V20.0308ZM160.28 25.6889C161.901 25.6889 162.735 24.6101 162.735 22.4974C162.735 20.3847 161.901 19.3116 160.28 19.3116C158.676 19.3116 157.792 20.4297 157.792 22.4974C157.792 24.5651 158.676 25.6889 160.28 25.6889Z" fill="#6E54D7"/>
<path d="M176.355 16.3052H180.3V28.6946H176.355V24.9018C175.868 27.6158 174.4 29.0316 172.087 29.0316C169.468 29.0316 168.136 27.2113 168.136 23.6376V16.3052H172.081V22.7948C172.081 24.722 172.745 25.666 174.122 25.666C175.562 25.666 176.355 24.6434 176.355 22.7049V16.3052Z" fill="#6E54D7"/>
<path d="M193.66 20.396H189.755C189.755 19.3059 189.057 18.6766 187.731 18.6766C186.592 18.6766 185.81 19.1318 185.81 19.8117C185.81 20.6881 186.875 20.8679 188.23 21.1039L189.069 21.2501C191.041 21.5984 194 22.1152 194 25.054C194 27.5825 191.812 29.032 187.946 29.032C183.871 29.032 181.672 27.4137 181.672 24.5089H185.577C185.577 25.6663 186.348 26.2902 187.912 26.2902C189.256 26.2902 190.095 25.8407 190.095 25.1102C190.095 24.1999 189.125 24.0257 187.527 23.7447L186.688 23.5932C184.874 23.2729 181.91 22.7558 181.91 19.8846C181.91 17.446 184.047 15.9683 187.629 15.9683C191.438 15.9683 193.66 17.6371 193.66 20.396Z" fill="#6E54D7"/>
</svg>
