<?xml version="1.0" encoding="UTF-8"?>
<svg xmlns="http://www.w3.org/2000/svg" width="450" height="102" viewBox="0 0 450 102" fill="none">
  <path d="M93.1534 21.738H7.76102C3.47473 21.738 0 25.2128 0 29.4991V93.4538C0 97.7401 3.47473 101.215 7.76102 101.215H93.1534C97.4397 101.215 100.914 97.7401 100.914 93.4538V29.4991C100.914 25.2128 97.4397 21.738 93.1534 21.738Z" fill="#000000"></path>
  <path d="M37.6054 67.2389C38.9134 65.7588 40.8107 64.9316 42.7881 64.9858H111.273C112.178 64.9858 113.054 64.6653 113.747 64.0831C114.483 63.3784 114.89 62.398 114.874 61.3799V28.9476C114.895 27.0433 114.07 25.2286 112.623 23.9936C111.386 22.5441 109.571 21.7169 107.667 21.7381H100.457C98.5246 21.8064 96.6509 21.0735 95.2769 19.7112C93.9146 18.3396 93.1817 16.4635 93.25 14.5309V7.31906C93.2689 5.41474 92.444 3.59999 90.9969 2.36502C89.7596 0.913213 87.9448 0.0906819 86.0405 0.109537H42.7928C42.682 0.109537 42.5783 0.121321 42.4699 0.126034V0.109537H21.1595C19.3 0.0718273 17.5064 0.807156 16.2031 2.1364C14.7207 3.44444 13.8958 5.34168 13.95 7.31906V28.9429V94.2316C13.95 98.0897 10.8225 101.215 6.96436 101.215H107.655C109.517 101.253 111.31 100.52 112.611 99.1904C114.094 97.8823 114.916 95.9851 114.862 94.0077V86.8006C114.883 84.8962 114.058 83.0815 112.611 81.8465C111.374 80.3994 109.559 79.5745 107.655 79.5934H42.7834C40.8508 79.6594 38.9747 78.9264 37.6007 77.5665C36.2408 76.1925 35.5078 74.3165 35.5738 72.3839V72.1906C35.5408 70.3311 36.2738 68.5375 37.6054 67.2366V67.2389ZM86.0334 21.7357C87.9401 21.7145 89.7548 22.5418 90.9922 23.9912C92.4416 25.2262 93.2665 27.0433 93.2453 28.9453V36.1501C93.2995 38.1251 92.4746 40.0247 90.9922 41.3327C89.6888 42.6643 87.8953 43.3997 86.0334 43.3619H42.7857C40.8531 43.4279 38.9771 42.695 37.6031 41.3327C36.2432 39.9587 35.5102 38.0827 35.5762 36.1501V28.9453C35.5385 27.0857 36.2738 25.2922 37.6031 23.9912C38.9111 22.5088 40.8083 21.6815 42.7857 21.7357H86.0334Z" fill="#331F45"></path>
  <path d="M168.968 77.0384C173.571 77.0384 175.908 75.4098 177.537 72.4355L185.541 77.7478C182.63 81.9995 177.822 85.7516 168.685 85.7516C156.575 85.7516 148.713 77.3236 148.713 66.2041C148.602 55.5206 157.172 46.7674 167.855 46.6566C167.895 46.6566 167.938 46.6566 167.978 46.6566C178.303 46.3832 186.894 54.5331 187.165 64.8583C187.169 65.0469 187.172 65.2354 187.172 65.4263C187.193 66.7509 187.122 68.0754 186.96 69.3929H158.984C159.988 74.0429 164.214 77.2835 168.968 77.0455V77.0384ZM177.325 62.5204C176.795 57.9387 172.871 54.5048 168.258 54.5873C163.549 54.4223 159.477 57.8515 158.838 62.5204H177.323H177.325Z" fill="#331F45"></path>
  <path d="M226.415 61.321V84.835H216.005V63.3761C216.293 59.5581 213.431 56.2302 209.613 55.9451C209.288 55.9215 208.961 55.9191 208.633 55.9404C204.685 55.7424 201.324 58.7827 201.124 62.7304V84.8279H190.648V47.5029H200.563V50.9745C203.563 48.045 207.624 46.4612 211.815 46.5838C220.752 46.5767 226.415 52.6055 226.415 61.3233V61.321Z" fill="#331F45"></path>
  <path d="M229.529 66.2726C229.316 55.6503 237.754 46.8665 248.376 46.652C248.657 46.6473 248.937 46.6473 249.215 46.652C257.252 46.3409 264.549 51.3114 267.205 58.9028L257.855 62.5888C256.988 58.6553 253.455 55.8884 249.427 55.9921C244.188 55.9921 240.078 59.9586 240.078 66.1901C240.078 72.4215 244.186 76.388 249.427 76.388C253.483 76.5247 257.085 73.8097 258.067 69.8714L267.417 73.6258C265.788 79.0795 259.557 85.7376 249.215 85.7376C238.612 86.0039 229.8 77.623 229.533 67.0173C229.529 66.7675 229.526 66.5177 229.529 66.2655V66.2726Z" fill="#331F45"></path>
  <path d="M269.262 66.2018C269.262 55.0116 277.62 46.6543 289.439 46.6543C301.259 46.6543 309.616 55.0116 309.616 66.2018C309.616 77.392 301.188 85.7493 289.439 85.7493C277.69 85.7493 269.262 77.3213 269.262 66.2018ZM299.149 66.1311C299.149 60.1801 295.324 56.0015 289.517 56.0015C283.71 56.0015 279.816 60.1801 279.816 66.1994C279.432 71.4363 283.366 75.992 288.602 76.3762C288.906 76.3974 289.21 76.4068 289.517 76.3998C295.183 76.4068 299.149 72.1504 299.149 66.1264V66.1311Z" fill="#331F45"></path>
  <path d="M352.482 33.0579V84.8302H342.781V81.0074C339.809 84.1538 335.633 85.879 331.308 85.7541C320.542 85.7541 312.75 77.3261 312.75 66.2066C312.75 55.0871 320.33 46.6591 331.025 46.6591C335.079 46.546 339.02 48.019 342.003 50.767V33.0626H352.484L352.482 33.0579ZM342.423 66.2042C342.423 60.1142 338.529 55.8625 332.793 55.8625C327.436 55.8884 323.113 60.2556 323.142 65.6127C323.142 65.8106 323.149 66.0062 323.163 66.2042C322.809 71.5118 326.828 76.1005 332.133 76.4517C332.352 76.4658 332.574 76.4729 332.793 76.4729C338.527 76.4729 342.421 72.2943 342.421 66.2042H342.423Z" fill="#331F45"></path>
  <path d="M355.102 35.3935C355.1 31.7193 358.077 28.7355 361.751 28.7332C361.824 28.7332 361.9 28.7332 361.973 28.7379C365.614 28.6295 368.654 31.4954 368.76 35.1366C368.763 35.2215 368.765 35.3087 368.763 35.3935C368.824 39.0113 365.941 41.995 362.324 42.0563C362.208 42.0563 362.09 42.0563 361.973 42.0516C358.324 42.1953 355.249 39.353 355.105 35.7046C355.1 35.6009 355.1 35.4972 355.1 35.3935H355.102ZM356.653 47.5053H367.129V84.8279H356.653V47.5053Z" fill="#331F45"></path>
  <path d="M410.127 47.5026V84.8276H400.427V80.7197C397.565 84.0522 393.342 85.9023 388.953 85.7492C378.188 85.7492 370.396 77.3211 370.396 66.2017C370.396 55.0822 378.188 47.2905 388.953 47.2905C393.292 47.102 397.49 48.8389 400.427 52.0372V47.505H410.127V47.5026ZM400.068 66.1969C400.068 60.1069 396.175 55.8552 390.438 55.8552C385.081 55.8811 380.759 60.246 380.785 65.603C380.785 65.801 380.792 65.999 380.806 66.1969C380.455 71.5045 384.473 76.0933 389.781 76.4444C390 76.4586 390.219 76.4656 390.438 76.4656C396.175 76.4656 400.068 72.2893 400.068 66.1993V66.1969Z" fill="#331F45"></path>
  <path d="M450 61.321V84.835H439.59V63.3761C439.875 59.5581 437.012 56.2302 433.194 55.9451C432.871 55.9215 432.543 55.9191 432.218 55.9404C428.27 55.7424 424.909 58.7803 424.709 62.728V84.8279H414.233V47.5029H424.15V50.9745C427.151 48.045 431.211 46.4612 435.402 46.5838C444.334 46.5767 450 52.6055 450 61.3233V61.321Z" fill="#331F45"></path>
</svg>
