<?xml version="1.0" encoding="UTF-8" standalone="no"?>
<!DOCTYPE svg PUBLIC "-//W3C//DTD SVG 1.1//EN" "http://www.w3.org/Graphics/SVG/1.1/DTD/svg11.dtd">
<svg xmlns="http://www.w3.org/2000/svg" version="1.1" viewBox="0.00 0.00 400.00 400.00">
<g stroke-width="2.00" fill="none" stroke-linecap="butt">
<path stroke="#86cecd" vector-effect="non-scaling-stroke" d="
  M 24.54 145.02
  Q 15.78 164.03 18.26 184.69
  Q 19.25 192.86 23.95 207.02
  Q 42.79 263.67 57.54 309.10
  Q 64.89 331.73 67.86 337.49
  C 77.88 356.94 96.60 371.38 118.19 375.78
  Q 125.60 377.29 143.92 377.22
  Q 259.16 376.79 259.75 376.80
  Q 273.67 377.11 282.65 375.25
  C 308.52 369.91 329.39 351.09 337.59 325.79
  Q 338.49 323.02 378.75 197.51
  Q 387.55 170.09 375.11 143.71"
/>
<path stroke="#aed9fd" vector-effect="non-scaling-stroke" d="
  M 375.11 143.71
  Q 366.79 126.56 353.09 116.66
  Q 302.17 79.87 249.58 41.93
  Q 241.94 36.42 239.31 34.74
  C 217.76 20.97 189.36 18.98 166.39 31.13
  Q 160.72 34.13 151.42 40.92
  Q 135.64 52.45 46.02 118.02
  Q 32.74 127.73 24.54 145.02"
/>
<path stroke="#35a8ca" vector-effect="non-scaling-stroke" d="
  M 375.11 143.71
  Q 355.76 146.76 337.69 152.12"
/>
<path stroke="#5fb9d0" vector-effect="non-scaling-stroke" d="
  M 337.69 152.12
  L 336.52 152.32"
/>
<path stroke="#adb5a0" vector-effect="non-scaling-stroke" d="
  M 336.52 152.32
  Q 336.57 152.21 336.45 152.02
  A 0.37 0.32 2.2 0 0 336.30 151.88
  Q 332.28 149.67 328.89 149.16
  Q 303.54 145.33 264.54 139.90
  Q 252.70 138.25 247.50 127.95
  Q 233.99 101.14 219.55 71.72
  C 215.93 64.35 210.51 59.62 202.19 58.70"
/>
<path stroke="#adc5ac" vector-effect="non-scaling-stroke" d="
  M 202.19 58.70
  Q 192.09 58.01 185.70 63.79
  Q 182.43 66.75 177.80 76.22
  Q 156.35 120.17 155.12 122.83
  Q 151.12 131.51 148.09 134.25
  Q 142.56 139.27 136.23 140.21
  Q 123.68 142.09 74.57 149.33
  C 69.92 150.02 65.91 151.08 63.00 153.31"
/>
<path stroke="#5fb9d0" vector-effect="non-scaling-stroke" d="
  M 63.00 153.31
  Q 61.83 153.39 62.09 153.14"
/>
<path stroke="#35a8ca" vector-effect="non-scaling-stroke" d="
  M 62.09 153.14
  Q 43.77 147.87 24.54 145.02"
/>
<path stroke="#afbb75" vector-effect="non-scaling-stroke" d="
  M 336.52 152.32
  L 261.70 177.25"
/>
<path stroke="#fec751" vector-effect="non-scaling-stroke" d="
  M 202.19 58.70
  Q 206.77 69.19 208.52 81.21
  Q 211.51 101.65 212.79 115.93
  C 213.71 126.09 215.13 135.31 216.84 145.21
  Q 217.94 151.57 220.92 160.22
  Q 222.32 164.26 224.10 166.05
  Q 228.84 170.81 235.88 172.59
  Q 243.25 174.46 253.31 175.64
  Q 253.37 175.65 257.70 175.69
  Q 260.35 175.72 261.70 177.25"
/>
<path stroke="#b0cb81" vector-effect="non-scaling-stroke" d="
  M 261.70 177.25
  C 230.74 186.63 197.71 188.51 165.79 183.83
  Q 149.36 181.42 133.55 176.33
  Q 93.91 163.58 63.80 153.87
  Q 63.29 153.70 63.00 153.31"
/>
<path stroke="#37aea0" vector-effect="non-scaling-stroke" d="
  M 62.09 153.14
  Q 62.24 153.89 61.78 154.28
  C 51.82 162.71 51.68 177.16 60.90 186.35
  Q 62.39 187.84 100.51 224.53
  C 109.91 233.58 115.14 238.50 113.06 251.01
  Q 106.31 291.58 103.50 307.75
  Q 101.93 316.74 102.42 319.81
  C 104.63 333.70 118.31 341.89 131.52 336.49
  Q 134.50 335.28 136.60 334.15
  Q 161.43 320.78 190.26 305.66
  Q 200.41 300.33 210.04 305.27
  Q 230.17 315.59 264.76 333.74
  C 273.98 338.57 283.48 339.51 291.50 332.33
  C 297.38 327.05 299.61 319.73 298.22 311.86
  Q 291.40 273.12 287.26 249.75
  C 285.60 240.40 288.88 234.41 295.20 228.21
  Q 305.32 218.27 338.95 185.25
  C 348.33 176.04 347.72 162.26 338.27 153.51
  Q 337.62 152.91 337.69 152.12"
/>
</g>
<path fill="#ffffff" d="
  M 400.00 0.00
  L 400.00 400.00
  L 0.00 400.00
  L 0.00 0.00
  L 400.00 0.00
  Z
  M 24.54 145.02
  Q 15.78 164.03 18.26 184.69
  Q 19.25 192.86 23.95 207.02
  Q 42.79 263.67 57.54 309.10
  Q 64.89 331.73 67.86 337.49
  C 77.88 356.94 96.60 371.38 118.19 375.78
  Q 125.60 377.29 143.92 377.22
  Q 259.16 376.79 259.75 376.80
  Q 273.67 377.11 282.65 375.25
  C 308.52 369.91 329.39 351.09 337.59 325.79
  Q 338.49 323.02 378.75 197.51
  Q 387.55 170.09 375.11 143.71
  Q 366.79 126.56 353.09 116.66
  Q 302.17 79.87 249.58 41.93
  Q 241.94 36.42 239.31 34.74
  C 217.76 20.97 189.36 18.98 166.39 31.13
  Q 160.72 34.13 151.42 40.92
  Q 135.64 52.45 46.02 118.02
  Q 32.74 127.73 24.54 145.02
  Z"
/>
<path fill="#5cb3fa" d="
  M 375.11 143.71
  Q 355.76 146.76 337.69 152.12
  L 336.52 152.32
  Q 336.57 152.21 336.45 152.02
  A 0.37 0.32 2.2 0 0 336.30 151.88
  Q 332.28 149.67 328.89 149.16
  Q 303.54 145.33 264.54 139.90
  Q 252.70 138.25 247.50 127.95
  Q 233.99 101.14 219.55 71.72
  C 215.93 64.35 210.51 59.62 202.19 58.70
  Q 192.09 58.01 185.70 63.79
  Q 182.43 66.75 177.80 76.22
  Q 156.35 120.17 155.12 122.83
  Q 151.12 131.51 148.09 134.25
  Q 142.56 139.27 136.23 140.21
  Q 123.68 142.09 74.57 149.33
  C 69.92 150.02 65.91 151.08 63.00 153.31
  Q 61.83 153.39 62.09 153.14
  Q 43.77 147.87 24.54 145.02
  Q 32.74 127.73 46.02 118.02
  Q 135.64 52.45 151.42 40.92
  Q 160.72 34.13 166.39 31.13
  C 189.36 18.98 217.76 20.97 239.31 34.74
  Q 241.94 36.42 249.58 41.93
  Q 302.17 79.87 353.09 116.66
  Q 366.79 126.56 375.11 143.71
  Z"
/>
<path fill="#fed65d" d="
  M 202.19 58.70
  Q 206.77 69.19 208.52 81.21
  Q 211.51 101.65 212.79 115.93
  C 213.71 126.09 215.13 135.31 216.84 145.21
  Q 217.94 151.57 220.92 160.22
  Q 222.32 164.26 224.10 166.05
  Q 228.84 170.81 235.88 172.59
  Q 243.25 174.46 253.31 175.64
  Q 253.37 175.65 257.70 175.69
  Q 260.35 175.72 261.70 177.25
  C 230.74 186.63 197.71 188.51 165.79 183.83
  Q 149.36 181.42 133.55 176.33
  Q 93.91 163.58 63.80 153.87
  Q 63.29 153.70 63.00 153.31
  C 65.91 151.08 69.92 150.02 74.57 149.33
  Q 123.68 142.09 136.23 140.21
  Q 142.56 139.27 148.09 134.25
  Q 151.12 131.51 155.12 122.83
  Q 156.35 120.17 177.80 76.22
  Q 182.43 66.75 185.70 63.79
  Q 192.09 58.01 202.19 58.70
  Z"
/>
<path fill="#fdb745" d="
  M 336.52 152.32
  L 261.70 177.25
  Q 260.35 175.72 257.70 175.69
  Q 253.37 175.65 253.31 175.64
  Q 243.25 174.46 235.88 172.59
  Q 228.84 170.81 224.10 166.05
  Q 222.32 164.26 220.92 160.22
  Q 217.94 151.57 216.84 145.21
  C 215.13 135.31 213.71 126.09 212.79 115.93
  Q 211.51 101.65 208.52 81.21
  Q 206.77 69.19 202.19 58.70
  C 210.51 59.62 215.93 64.35 219.55 71.72
  Q 233.99 101.14 247.50 127.95
  Q 252.70 138.25 264.54 139.90
  Q 303.54 145.33 328.89 149.16
  Q 332.28 149.67 336.30 151.88
  A 0.37 0.32 2.2 0 1 336.45 152.02
  Q 336.57 152.21 336.52 152.32
  Z"
/>
<path fill="#0d9c9a" d="
  M 375.11 143.71
  Q 387.55 170.09 378.75 197.51
  Q 338.49 323.02 337.59 325.79
  C 329.39 351.09 308.52 369.91 282.65 375.25
  Q 273.67 377.11 259.75 376.80
  Q 259.16 376.79 143.92 377.22
  Q 125.60 377.29 118.19 375.78
  C 96.60 371.38 77.88 356.94 67.86 337.49
  Q 64.89 331.73 57.54 309.10
  Q 42.79 263.67 23.95 207.02
  Q 19.25 192.86 18.26 184.69
  Q 15.78 164.03 24.54 145.02
  Q 43.77 147.87 62.09 153.14
  Q 62.24 153.89 61.78 154.28
  C 51.82 162.71 51.68 177.16 60.90 186.35
  Q 62.39 187.84 100.51 224.53
  C 109.91 233.58 115.14 238.50 113.06 251.01
  Q 106.31 291.58 103.50 307.75
  Q 101.93 316.74 102.42 319.81
  C 104.63 333.70 118.31 341.89 131.52 336.49
  Q 134.50 335.28 136.60 334.15
  Q 161.43 320.78 190.26 305.66
  Q 200.41 300.33 210.04 305.27
  Q 230.17 315.59 264.76 333.74
  C 273.98 338.57 283.48 339.51 291.50 332.33
  C 297.38 327.05 299.61 319.73 298.22 311.86
  Q 291.40 273.12 287.26 249.75
  C 285.60 240.40 288.88 234.41 295.20 228.21
  Q 305.32 218.27 338.95 185.25
  C 348.33 176.04 347.72 162.26 338.27 153.51
  Q 337.62 152.91 337.69 152.12
  Q 355.76 146.76 375.11 143.71
  Z"
/>
<path fill="#61bfa5" d="
  M 337.69 152.12
  Q 337.62 152.91 338.27 153.51
  C 347.72 162.26 348.33 176.04 338.95 185.25
  Q 305.32 218.27 295.20 228.21
  C 288.88 234.41 285.60 240.40 287.26 249.75
  Q 291.40 273.12 298.22 311.86
  C 299.61 319.73 297.38 327.05 291.50 332.33
  C 283.48 339.51 273.98 338.57 264.76 333.74
  Q 230.17 315.59 210.04 305.27
  Q 200.41 300.33 190.26 305.66
  Q 161.43 320.78 136.60 334.15
  Q 134.50 335.28 131.52 336.49
  C 118.31 341.89 104.63 333.70 102.42 319.81
  Q 101.93 316.74 103.50 307.75
  Q 106.31 291.58 113.06 251.01
  C 115.14 238.50 109.91 233.58 100.51 224.53
  Q 62.39 187.84 60.90 186.35
  C 51.68 177.16 51.82 162.71 61.78 154.28
  Q 62.24 153.89 62.09 153.14
  Q 61.83 153.39 63.00 153.31
  Q 63.29 153.70 63.80 153.87
  Q 93.91 163.58 133.55 176.33
  Q 149.36 181.42 165.79 183.83
  C 197.71 188.51 230.74 186.63 261.70 177.25
  L 336.52 152.32
  L 337.69 152.12
  Z"
/>
</svg>
