<?xml version="1.0" encoding="UTF-8" standalone="no"?>
<!DOCTYPE svg PUBLIC "-//W3C//DTD SVG 1.1//EN" "http://www.w3.org/Graphics/SVG/1.1/DTD/svg11.dtd">
<svg xmlns="http://www.w3.org/2000/svg" version="1.1" viewBox="0.00 0.00 2048.00 405.00">
<g stroke-width="2.00" fill="none" stroke-linecap="butt">
<path stroke="#00b673" vector-effect="non-scaling-stroke" d="
  M 220.52 67.83
  L 217.80 67.99"
/>
<path stroke="#00b673" vector-effect="non-scaling-stroke" d="
  M 138.71 67.91
  L 137.29 67.86"
/>
<path stroke="#00b673" vector-effect="non-scaling-stroke" d="
  M 1135.50 86.86
  L 1132.50 86.87"
/>
<path stroke="#00b673" vector-effect="non-scaling-stroke" d="
  M 1131.79 86.87
  L 1130.50 86.87"
/>
<path stroke="#00b673" vector-effect="non-scaling-stroke" d="
  M 1109.55 111.93
  L 1105.45 111.93"
/>
<path stroke="#00b673" vector-effect="non-scaling-stroke" d="
  M 1087.24 86.87
  L 1080.72 86.87"
/>
<path stroke="#00b673" vector-effect="non-scaling-stroke" d="
  M 305.72 198.99
  Q 304.86 198.48 304.30 199.13"
/>
<path stroke="#00b673" vector-effect="non-scaling-stroke" d="
  M 89.79 160.05
  Q 90.32 160.21 90.95 160.12"
/>
</g>
<path fill="#00eda4" d="
  M 220.52 67.83
  L 217.80 67.99
  Q 178.25 69.93 138.71 67.91
  L 137.29 67.86
  Q 107.89 66.53 78.76 62.39
  C 59.67 59.68 40.45 55.98 22.44 49.58
  C 15.52 47.12 2.51 41.96 0.50 35.60
  C -1.69 28.72 19.25 20.87 24.24 19.18
  Q 34.11 15.84 44.00 13.51
  C 71.85 6.98 101.14 3.60 130.24 1.91
  Q 190.14 -1.56 248.48 3.43
  Q 282.68 6.35 314.61 13.67
  Q 328.72 16.90 341.51 22.18
  C 346.45 24.22 352.49 27.15 356.04 31.15
  C 360.57 36.26 353.71 41.04 349.57 43.30
  C 335.36 51.02 319.04 55.12 302.46 58.33
  Q 261.89 66.18 220.52 67.83
  Z"
/>
<path fill="#00eda4" d="
  M 1135.50 86.86
  L 1132.50 86.87
  L 1131.79 86.87
  L 1130.50 86.87
  L 1119.13 86.87
  A 0.49 0.49 0.0 0 0 1118.64 87.36
  L 1118.64 109.96
  A 0.42 0.41 85.1 0 1 1118.30 110.37
  L 1109.55 111.93
  L 1105.45 111.93
  L 1096.70 110.43
  A 0.68 0.68 0.0 0 1 1096.14 109.76
  L 1096.14 87.40
  A 0.54 0.54 0.0 0 0 1095.60 86.86
  L 1087.24 86.87
  L 1080.72 86.87
  L 1073.09 86.86
  A 0.52 0.51 81.6 0 1 1072.60 86.49
  Q 1069.42 75.60 1072.61 64.71
  A 0.49 0.48 7.8 0 1 1073.08 64.36
  L 1095.67 64.36
  A 0.48 0.48 0.0 0 0 1096.15 63.88
  L 1096.15 41.48
  A 0.74 0.73 82.2 0 1 1096.68 40.77
  Q 1107.31 37.70 1118.08 40.75
  A 0.80 0.79 8.4 0 1 1118.65 41.51
  L 1118.65 63.75
  A 0.62 0.62 0.0 0 0 1119.27 64.37
  L 1141.50 64.37
  A 0.79 0.78 81.5 0 1 1142.25 64.93
  Q 1145.33 75.63 1142.24 86.29
  A 0.72 0.71 -82.2 0 1 1141.57 86.80
  L 1135.50 86.86
  Z"
/>
<path fill="#ffffff" d="
  M 1415.31 154.13
  A 0.20 0.20 0.0 0 0 1415.66 154.26
  C 1427.02 141.19 1444.00 133.59 1461.17 131.67
  C 1475.40 130.07 1490.97 131.66 1504.66 137.85
  Q 1528.70 148.72 1538.81 172.96
  C 1543.78 184.88 1544.70 196.06 1544.70 211.10
  Q 1544.71 279.54 1544.66 321.05
  A 0.71 0.70 90.0 0 1 1543.96 321.76
  L 1494.97 321.76
  A 0.37 0.37 0.0 0 1 1494.60 321.40
  Q 1494.45 275.19 1494.58 216.01
  Q 1494.59 211.98 1493.32 206.19
  C 1490.12 191.67 1480.49 181.59 1465.76 178.48
  C 1444.58 174.02 1422.23 184.57 1416.57 206.48
  Q 1415.09 212.20 1415.29 225.00
  Q 1415.33 227.32 1415.30 321.14
  A 0.62 0.62 0.0 0 1 1414.68 321.76
  L 1365.83 321.76
  A 0.60 0.60 0.0 0 1 1365.23 321.16
  L 1365.23 48.69
  A 0.84 0.84 0.0 0 1 1366.07 47.85
  L 1414.72 47.85
  A 0.60 0.59 90.0 0 1 1415.31 48.45
  L 1415.31 154.13
  Z"
/>
<rect fill="#ffffff" x="1581.24" y="47.89" width="49.90" height="273.90" rx="0.66"/>
<path fill="#007f42" d="
  M 178.98 151.63
  Q 143.09 151.63 106.02 148.37
  Q 71.04 145.30 38.76 137.27
  C 31.75 135.53 0.37 126.51 0.37 117.40
  Q 0.34 63.97 0.38 54.01
  A 0.22 0.21 15.9 0 1 0.71 53.83
  Q 7.21 57.86 14.33 60.63
  Q 31.26 67.22 50.81 71.10
  Q 78.41 76.57 106.27 79.15
  Q 142.92 82.54 178.99 82.54
  Q 215.05 82.54 251.70 79.15
  Q 279.56 76.58 307.16 71.10
  Q 326.72 67.23 343.64 60.64
  Q 350.76 57.87 357.27 53.84
  A 0.22 0.21 -15.9 0 1 357.60 54.02
  Q 357.64 63.98 357.60 117.41
  C 357.60 126.52 326.22 135.54 319.21 137.28
  Q 286.93 145.30 251.95 148.37
  Q 214.88 151.63 178.98 151.63
  Z"
/>
<path fill="#ffffff" d="
  M 700.61 276.59
  L 700.61 321.41
  A 0.35 0.35 0.0 0 1 700.26 321.76
  L 509.99 321.76
  A 0.35 0.35 0.0 0 1 509.64 321.41
  L 509.64 57.92
  A 0.35 0.35 0.0 0 1 509.99 57.57
  L 697.24 57.57
  A 0.35 0.35 0.0 0 1 697.59 57.92
  L 697.59 102.96
  A 0.35 0.35 0.0 0 1 697.24 103.31
  L 562.66 103.31
  A 0.35 0.35 0.0 0 0 562.31 103.66
  L 562.31 163.50
  A 0.35 0.35 0.0 0 0 562.66 163.85
  L 679.41 163.85
  A 0.35 0.35 0.0 0 1 679.76 164.20
  L 679.76 209.26
  A 0.35 0.35 0.0 0 1 679.41 209.61
  L 562.66 209.61
  A 0.35 0.35 0.0 0 0 562.31 209.96
  L 562.31 275.89
  A 0.35 0.35 0.0 0 0 562.66 276.24
  L 700.26 276.24
  A 0.35 0.35 0.0 0 1 700.61 276.59
  Z"
/>
<path fill="#007f42" d="
  M 138.71 67.91
  L 137.29 67.86
  L 138.71 67.91
  Z"
/>
<path fill="#007f42" d="
  M 220.52 67.83
  L 217.80 67.99
  L 220.52 67.83
  Z"
/>
<path fill="#007f42" d="
  M 1087.24 86.87
  L 1080.72 86.87
  L 1087.24 86.87
  Z"
/>
<path fill="#007f42" d="
  M 1131.79 86.87
  L 1130.50 86.87
  L 1131.79 86.87
  Z"
/>
<path fill="#007f42" d="
  M 1135.50 86.86
  L 1132.50 86.87
  L 1135.50 86.86
  Z"
/>
<path fill="#007f42" d="
  M 1109.55 111.93
  L 1105.45 111.93
  L 1109.55 111.93
  Z"
/>
<path fill="#ffffff" d="
  M 1307.28 248.33
  L 1342.48 273.09
  A 0.79 0.79 0.0 0 1 1342.72 274.10
  Q 1324.67 307.95 1288.36 320.34
  Q 1265.94 328.00 1241.33 324.62
  Q 1210.15 320.33 1187.24 298.78
  C 1157.98 271.25 1149.42 226.10 1165.41 189.29
  C 1183.54 147.52 1228.46 124.49 1273.22 131.83
  C 1304.07 136.88 1329.72 155.40 1343.64 183.23
  A 0.78 0.78 0.0 0 1 1343.37 184.24
  L 1306.38 207.79
  A 0.58 0.58 0.0 0 1 1305.55 207.56
  C 1293.25 183.59 1269.00 171.45 1242.66 178.74
  Q 1231.90 181.72 1223.33 189.75
  C 1201.12 210.53 1201.70 250.36 1226.08 269.66
  C 1242.17 282.40 1264.78 283.79 1282.52 274.08
  C 1292.52 268.61 1301.10 258.71 1306.45 248.53
  A 0.56 0.56 0.0 0 1 1307.28 248.33
  Z"
/>
<path fill="#ffffff" d="
  M 777.26 155.58
  A 0.36 0.36 0.0 0 0 777.90 155.79
  C 790.28 139.73 811.40 131.75 831.52 131.20
  C 849.71 130.71 866.88 134.61 881.29 145.24
  C 896.55 156.50 905.38 173.50 907.89 192.60
  Q 908.58 197.88 908.58 207.43
  Q 908.58 255.81 908.56 321.40
  A 0.36 0.36 0.0 0 1 908.20 321.76
  L 859.25 321.76
  A 0.56 0.56 0.0 0 1 858.69 321.20
  Q 858.69 220.91 858.67 216.51
  Q 858.60 203.46 852.16 193.35
  C 839.05 172.76 805.45 172.93 789.39 189.48
  Q 782.85 196.22 780.23 205.37
  Q 778.61 211.00 778.65 223.29
  Q 778.74 249.60 778.68 321.26
  A 0.50 0.50 0.0 0 1 778.18 321.76
  L 729.45 321.76
  A 0.76 0.76 0.0 0 1 728.69 321.00
  L 728.69 135.48
  A 0.63 0.63 0.0 0 1 729.32 134.85
  L 776.11 134.85
  A 0.35 0.35 0.0 0 1 776.46 135.19
  L 777.26 155.58
  Z"
/>
<path fill="#ffffff" d="
  M 944.85 321.09
  L 944.85 135.21
  A 0.36 0.35 90.0 0 1 945.20 134.85
  L 992.68 134.85
  A 0.57 0.57 0.0 0 1 993.25 135.40
  L 994.17 158.80
  A 0.35 0.35 0.0 0 0 994.83 158.95
  Q 1004.11 141.39 1022.12 134.66
  C 1036.08 129.44 1052.65 130.32 1066.53 135.17
  A 0.83 0.82 -77.9 0 1 1067.08 136.03
  L 1063.31 179.32
  A 0.60 0.59 -78.0 0 1 1062.53 179.83
  C 1050.40 175.65 1038.48 174.29 1025.71 177.66
  C 1011.40 181.44 1001.59 192.02 997.56 206.28
  Q 995.10 214.97 995.09 222.75
  Q 995.02 292.52 995.08 321.29
  A 0.47 0.47 0.0 0 1 994.61 321.76
  L 945.51 321.76
  A 0.67 0.66 90.0 0 1 944.85 321.09
  Z"
/>
<path fill="#ffffff" d="
  M 1839.11 281.32
  C 1820.75 310.68 1788.53 326.35 1754.00 325.80
  Q 1733.33 325.46 1715.86 318.39
  C 1668.75 299.33 1649.19 248.59 1661.12 201.05
  C 1671.20 160.92 1704.36 134.33 1745.45 131.45
  C 1769.98 129.72 1795.15 135.38 1814.30 151.71
  Q 1834.51 168.94 1841.14 195.61
  Q 1846.86 218.57 1842.53 242.96
  A 0.58 0.57 4.7 0 1 1841.96 243.44
  L 1708.21 243.44
  A 0.52 0.52 0.0 0 0 1707.70 244.08
  C 1714.05 271.89 1744.64 285.49 1770.63 278.94
  Q 1787.99 274.56 1800.02 259.24
  Q 1802.03 256.68 1803.58 254.72
  A 0.54 0.54 0.0 0 1 1804.33 254.63
  L 1838.96 280.53
  A 0.60 0.59 34.6 0 1 1839.11 281.32
  Z
  M 1709.09 209.69
  L 1797.25 209.69
  A 0.43 0.42 -4.6 0 0 1797.67 209.20
  C 1794.63 189.82 1779.83 175.75 1760.49 173.63
  C 1736.20 170.97 1713.33 183.70 1708.45 208.91
  A 0.66 0.65 -84.5 0 0 1709.09 209.69
  Z"
/>
<rect fill="#ffffff" x="1082.31" y="134.86" width="50.26" height="186.92" rx="0.41"/>
<path fill="#ffffff" d="
  M 2047.34 134.85
  A 0.26 0.25 -78.9 0 1 2047.57 135.20
  Q 1962.41 340.45 1957.40 352.15
  Q 1953.24 361.86 1945.24 372.98
  Q 1930.43 393.58 1906.32 400.31
  Q 1896.06 403.18 1883.75 403.43
  Q 1863.96 403.84 1846.32 395.47
  A 0.72 0.72 0.0 0 1 1845.92 394.71
  L 1851.99 355.72
  A 0.50 0.50 0.0 0 1 1852.61 355.31
  Q 1852.79 355.35 1857.61 356.96
  Q 1866.83 360.04 1876.77 359.82
  C 1898.44 359.32 1912.16 342.30 1916.80 322.35
  A 1.94 1.88 -50.3 0 0 1916.71 321.19
  L 1840.17 135.96
  A 0.80 0.80 0.0 0 1 1840.91 134.85
  L 1894.70 134.85
  A 0.68 0.67 80.1 0 1 1895.33 135.30
  L 1943.64 269.85
  A 0.30 0.30 0.0 0 0 1944.21 269.85
  L 1991.96 135.21
  A 0.56 0.54 9.7 0 1 1992.48 134.85
  L 2047.34 134.85
  Z"
/>
<path fill="#00eda4" d="
  M 305.72 198.99
  Q 304.86 198.48 304.30 199.13
  Q 247.60 202.81 190.93 199.13
  Q 156.00 196.86 124.21 190.55
  Q 104.39 186.61 89.93 181.32
  C 83.15 178.83 76.55 176.13 71.37 171.38
  Q 66.22 166.65 71.87 161.89
  Q 74.33 159.82 76.32 158.68
  A 2.09 2.06 33.6 0 1 77.61 158.43
  L 89.79 160.05
  Q 90.32 160.21 90.95 160.12
  Q 161.56 168.43 232.42 163.54
  Q 261.22 161.55 292.75 156.55
  Q 315.19 152.99 336.42 146.14
  Q 344.11 143.66 351.07 140.06
  A 1.67 1.66 34.6 0 1 352.07 139.88
  Q 379.03 143.65 402.36 151.39
  Q 409.93 153.91 418.72 158.51
  Q 420.11 159.23 423.30 162.02
  Q 428.85 166.87 423.08 171.87
  Q 419.86 174.66 416.43 176.41
  Q 404.27 182.61 384.75 187.41
  Q 373.52 190.18 364.74 191.75
  Q 335.44 196.97 305.72 198.99
  Z"
/>
<path fill="#007f42" d="
  M 90.95 160.12
  Q 90.32 160.21 89.79 160.05
  L 90.95 160.12
  Z"
/>
<path fill="#007f42" d="
  M 247.50 214.61
  Q 283.58 214.60 320.24 211.21
  Q 348.11 208.63 375.72 203.15
  Q 395.28 199.27 412.21 192.68
  Q 419.33 189.91 425.84 185.88
  A 0.22 0.21 -15.9 0 1 426.17 186.06
  Q 426.21 196.02 426.18 249.47
  C 426.18 258.58 394.79 267.61 387.78 269.35
  Q 355.49 277.38 320.50 280.45
  Q 283.41 283.72 247.51 283.72
  Q 211.60 283.72 174.51 280.47
  Q 139.52 277.40 107.23 269.38
  C 100.22 267.64 68.83 258.62 68.83 249.51
  Q 68.79 196.06 68.82 186.10
  A 0.22 0.21 15.9 0 1 69.15 185.92
  Q 75.67 189.95 82.79 192.71
  Q 99.72 199.30 119.28 203.18
  Q 146.89 208.65 174.76 211.22
  Q 211.42 214.61 247.50 214.61
  Z"
/>
<path fill="#007f42" d="
  M 305.72 198.99
  Q 305.23 199.26 304.30 199.13
  Q 304.86 198.48 305.72 198.99
  Z"
/>
<path fill="#00eda4" d="
  M 356.09 289.54
  A 0.63 0.63 0.0 0 1 356.52 290.60
  Q 352.54 294.75 347.42 297.39
  Q 340.05 301.19 328.35 304.83
  Q 315.69 308.76 301.04 311.59
  Q 272.26 317.14 242.25 319.39
  Q 174.02 324.52 108.25 318.74
  Q 82.35 316.47 58.57 311.95
  C 43.34 309.05 27.12 305.00 12.39 298.37
  C 8.75 296.73 2.86 293.35 0.57 289.09
  A 2.15 2.12 32.0 0 1 0.32 288.05
  Q 0.40 285.40 2.56 283.29
  C 4.94 280.95 8.24 278.90 11.01 277.56
  Q 22.19 272.13 37.24 268.20
  Q 52.22 264.28 61.02 262.89
  A 1.05 1.04 -28.1 0 1 61.89 263.15
  C 73.77 273.56 90.69 279.11 105.95 282.83
  Q 123.50 287.11 136.38 289.09
  Q 163.65 293.27 189.26 295.18
  Q 258.81 300.38 328.36 293.13
  Q 338.57 292.06 355.26 289.65
  Q 356.00 289.54 356.09 289.54
  Z"
/>
<path fill="#007f42" d="
  M 178.97 404.52
  Q 143.08 404.52 106.01 401.26
  Q 71.04 398.19 38.76 390.16
  C 31.75 388.42 0.38 379.40 0.38 370.29
  Q 0.34 316.86 0.38 306.91
  A 0.22 0.21 15.9 0 1 0.71 306.73
  Q 7.22 310.76 14.34 313.53
  Q 31.26 320.11 50.81 323.99
  Q 78.41 329.47 106.27 332.04
  Q 142.91 335.43 178.98 335.43
  Q 215.04 335.44 251.68 332.05
  Q 279.54 329.48 307.14 324.00
  Q 326.70 320.13 343.62 313.54
  Q 350.74 310.78 357.25 306.75
  A 0.22 0.21 -15.9 0 1 357.57 306.93
  Q 357.61 316.88 357.58 370.31
  C 357.57 379.42 326.20 388.44 319.19 390.18
  Q 286.91 398.20 251.94 401.26
  Q 214.86 404.52 178.97 404.52
  Z"
/>
</svg>
