<?xml version="1.0" encoding="UTF-8" standalone="no"?>
<!DOCTYPE svg PUBLIC "-//W3C//DTD SVG 1.1//EN" "http://www.w3.org/Graphics/SVG/1.1/DTD/svg11.dtd">
<svg xmlns="http://www.w3.org/2000/svg" version="1.1" viewBox="0.00 0.00 400.00 400.00">
<g stroke-width="2.00" fill="none" stroke-linecap="butt">
<path stroke="#6a7b3b" vector-effect="non-scaling-stroke" d="
  M 204.17 119.88
  Q 205.04 119.88 210.25 120.20
  C 240.09 122.05 265.77 139.29 279.95 165.60
  Q 283.33 171.87 285.13 178.24
  A 2.13 2.12 82.4 0 0 287.16 179.80
  Q 331.47 180.08 332.25 180.08
  Q 336.45 180.11 338.26 179.22
  Q 342.35 177.22 341.10 172.29
  C 329.50 126.38 296.99 89.33 252.50 72.75
  C 238.41 67.49 220.80 64.10 204.18 64.10
  C 187.56 64.09 169.96 67.48 155.86 72.73
  C 111.37 89.30 78.84 126.34 67.23 172.25
  Q 65.98 177.18 70.07 179.18
  Q 71.88 180.07 76.08 180.04
  Q 76.86 180.04 121.17 179.77
  A 2.13 2.12 -82.4 0 0 123.20 178.21
  Q 125.00 171.85 128.38 165.58
  C 142.57 139.27 168.26 122.04 198.09 120.20
  Q 203.30 119.88 204.17 119.88"
/>
<path stroke="#6a7b3b" vector-effect="non-scaling-stroke" d="
  M 118.74 204.88
  Q 118.73 216.59 122.24 229.25
  A 0.95 0.94 82.4 0 0 123.15 229.94
  Q 125.77 229.97 204.29 229.98
  Q 282.81 229.99 285.43 229.96
  A 0.95 0.94 -82.4 0 0 286.34 229.26
  Q 289.84 216.60 289.84 204.89
  Q 289.84 193.18 286.34 180.52
  A 0.95 0.94 82.4 0 0 285.43 179.82
  Q 282.81 179.79 204.29 179.79
  Q 125.77 179.78 123.15 179.81
  A 0.95 0.94 -82.4 0 0 122.24 180.51
  Q 118.74 193.17 118.74 204.88"
/>
<path stroke="#6a7b3b" vector-effect="non-scaling-stroke" d="
  M 67.39 232.24
  Q 66.79 234.56 67.19 236.27
  C 80.82 295.38 131.15 339.86 192.00 345.12
  C 198.94 345.72 199.42 341.84 199.42 335.97
  Q 199.43 312.39 199.35 296.51
  Q 199.32 291.07 193.98 290.25
  Q 178.20 287.82 164.29 280.99
  Q 154.81 276.34 144.92 266.84
  Q 129.45 251.99 122.83 231.42
  A 2.26 2.25 79.7 0 0 120.58 229.86
  Q 116.02 230.08 112.25 230.04
  Q 96.15 229.84 74.24 229.98
  Q 69.86 230.00 67.91 231.45
  A 1.41 1.39 78.8 0 0 67.39 232.24"
/>
</g>
<path fill="#000000" d="
  M 400.00 0.00
  L 400.00 400.00
  L 0.00 400.00
  L 0.00 0.00
  L 400.00 0.00
  Z
  M 204.17 119.88
  Q 205.04 119.88 210.25 120.20
  C 240.09 122.05 265.77 139.29 279.95 165.60
  Q 283.33 171.87 285.13 178.24
  A 2.13 2.12 82.4 0 0 287.16 179.80
  Q 331.47 180.08 332.25 180.08
  Q 336.45 180.11 338.26 179.22
  Q 342.35 177.22 341.10 172.29
  C 329.50 126.38 296.99 89.33 252.50 72.75
  C 238.41 67.49 220.80 64.10 204.18 64.10
  C 187.56 64.09 169.96 67.48 155.86 72.73
  C 111.37 89.30 78.84 126.34 67.23 172.25
  Q 65.98 177.18 70.07 179.18
  Q 71.88 180.07 76.08 180.04
  Q 76.86 180.04 121.17 179.77
  A 2.13 2.12 -82.4 0 0 123.20 178.21
  Q 125.00 171.85 128.38 165.58
  C 142.57 139.27 168.26 122.04 198.09 120.20
  Q 203.30 119.88 204.17 119.88
  Z
  M 118.74 204.88
  Q 118.73 216.59 122.24 229.25
  A 0.95 0.94 82.4 0 0 123.15 229.94
  Q 125.77 229.97 204.29 229.98
  Q 282.81 229.99 285.43 229.96
  A 0.95 0.94 -82.4 0 0 286.34 229.26
  Q 289.84 216.60 289.84 204.89
  Q 289.84 193.18 286.34 180.52
  A 0.95 0.94 82.4 0 0 285.43 179.82
  Q 282.81 179.79 204.29 179.79
  Q 125.77 179.78 123.15 179.81
  A 0.95 0.94 -82.4 0 0 122.24 180.51
  Q 118.74 193.17 118.74 204.88
  Z
  M 67.39 232.24
  Q 66.79 234.56 67.19 236.27
  C 80.82 295.38 131.15 339.86 192.00 345.12
  C 198.94 345.72 199.42 341.84 199.42 335.97
  Q 199.43 312.39 199.35 296.51
  Q 199.32 291.07 193.98 290.25
  Q 178.20 287.82 164.29 280.99
  Q 154.81 276.34 144.92 266.84
  Q 129.45 251.99 122.83 231.42
  A 2.26 2.25 79.7 0 0 120.58 229.86
  Q 116.02 230.08 112.25 230.04
  Q 96.15 229.84 74.24 229.98
  Q 69.86 230.00 67.91 231.45
  A 1.41 1.39 78.8 0 0 67.39 232.24
  Z"
/>
<path fill="#d3f675" d="
  M 204.18 64.10
  C 220.80 64.10 238.41 67.49 252.50 72.75
  C 296.99 89.33 329.50 126.38 341.10 172.29
  Q 342.35 177.22 338.26 179.22
  Q 336.45 180.11 332.25 180.08
  Q 331.47 180.08 287.16 179.80
  A 2.13 2.12 82.4 0 1 285.13 178.24
  Q 283.33 171.87 279.95 165.60
  C 265.77 139.29 240.09 122.05 210.25 120.20
  Q 205.04 119.88 204.17 119.88
  Q 203.30 119.88 198.09 120.20
  C 168.26 122.04 142.57 139.27 128.38 165.58
  Q 125.00 171.85 123.20 178.21
  A 2.13 2.12 -82.4 0 1 121.17 179.77
  Q 76.86 180.04 76.08 180.04
  Q 71.88 180.07 70.07 179.18
  Q 65.98 177.18 67.23 172.25
  C 78.84 126.34 111.37 89.30 155.86 72.73
  C 169.96 67.48 187.56 64.09 204.18 64.10
  Z"
/>
<path fill="#d3f675" d="
  M 204.29 179.79
  Q 282.81 179.79 285.43 179.82
  A 0.95 0.94 82.4 0 1 286.34 180.52
  Q 289.84 193.18 289.84 204.89
  Q 289.84 216.60 286.34 229.26
  A 0.95 0.94 -82.4 0 1 285.43 229.96
  Q 282.81 229.99 204.29 229.98
  Q 125.77 229.97 123.15 229.94
  A 0.95 0.94 82.4 0 1 122.24 229.25
  Q 118.73 216.59 118.74 204.88
  Q 118.74 193.17 122.24 180.51
  A 0.95 0.94 -82.4 0 1 123.15 179.81
  Q 125.77 179.78 204.29 179.79
  Z"
/>
<path fill="#d3f675" d="
  M 67.91 231.45
  Q 69.86 230.00 74.24 229.98
  Q 96.15 229.84 112.25 230.04
  Q 116.02 230.08 120.58 229.86
  A 2.26 2.25 79.7 0 1 122.83 231.42
  Q 129.45 251.99 144.92 266.84
  Q 154.81 276.34 164.29 280.99
  Q 178.20 287.82 193.98 290.25
  Q 199.32 291.07 199.35 296.51
  Q 199.43 312.39 199.42 335.97
  C 199.42 341.84 198.94 345.72 192.00 345.12
  C 131.15 339.86 80.82 295.38 67.19 236.27
  Q 66.79 234.56 67.39 232.24
  A 1.41 1.39 78.8 0 1 67.91 231.45
  Z"
/>
</svg>
