<svg width="153px" height="18px" viewBox="0 0 153 18" version="1.1" xmlns="http://www.w3.org/2000/svg" xmlns:xlink="http://www.w3.org/1999/xlink" class="header-logo-img" style="fill: #000000 !important;">
    <title style="fill: #000000 !important;">Escrow.com</title>
    <g id="Symbols" stroke="none" stroke-width="1" fill="inherit" fill-rule="evenodd" style="fill: #000000 !important; stroke: none !important; stroke-width: 1px !important;">
        <g id="Logged-out-nav" transform="translate(-160.000000, -23.000000)" style="fill: #000000 !important;">
            <g id="Page-1" transform="translate(159.874103, 23.636667)" style="fill: #000000 !important;">
                <polygon class="logo-primary" id="Fill-5" points="84.0375133 16.2996304 80.9629198 4.24643475 77.8753635 16.2996304 74.5123496 16.2996304 70.3942576 0.100218117 73.4388749 0.100218117 76.363587 11.5358921 79.2753365 0.100218117 82.6375403 0.100218117 85.5622525 11.5358921 88.4731918 0.100218117 91.5186192 0.100218117 87.4005272 16.2996304" style="fill: #000000 !important;"/>
                <path class="logo-primary" d="M48.2397653,8.29799653 C49.164979,8.29799653 50.1866028,7.31886314 50.1866028,5.78658297 C50.1866028,4.28370858 49.3002773,3.40232958 48.1725212,3.40232958 L44.5850903,3.40232958 L44.5850903,8.29799653 L48.2397653,8.29799653 Z M50.9951521,16.3337252 L46.9702296,11.0796255 L44.5850903,11.0796255 L44.5850903,16.3337252 L41.6571375,16.3337252 L41.6571375,0.518177736 L48.4414975,0.518177736 C50.4960876,0.518177736 52.9881692,2.26583547 52.9881692,5.59107419 C52.9881692,9.31527798 50.1469045,10.416803 49.9873011,10.4883306 L54.2479829,16.3337252 L50.9951521,16.3337252 Z" id="Fill-6" style="fill: #000000 !important;"/>
                <polygon class="logo-primary" id="Fill-7" points="0.944252646 16.3336457 0.944252646 0.528430025 11.5145352 0.528430025 11.5145352 2.78949699 3.58297497 2.78949699 3.58297497 7.30129914 10.4361995 7.30129914 10.4361995 9.56157135 3.58297497 9.56157135 3.58297497 14.0733735 11.5145352 14.0733735 11.5145352 16.3336457" style="fill: #000000 !important;"/>
                <path class="logo-primary" d="M62.4308577,2.71765148 C60.7562372,2.71765148 58.9673828,3.37967917 58.9673828,5.23860206 L58.9673828,11.2707631 C58.9673828,12.906361 60.4240677,14.0929244 62.4308577,14.0929244 C64.4376478,14.0929244 65.8943327,12.906361 65.8943327,11.2707631 L65.8943327,5.53981274 C65.8943327,3.90500967 64.4376478,2.71765148 62.4308577,2.71765148 M62.4308577,16.6822236 C58.7372946,16.6822236 56.1577147,14.5809016 56.1577147,11.5719738 L56.1577147,4.93659663 C56.1577147,2.01588624 58.61982,0.128352307 62.4308577,0.128352307 C66.1244208,0.128352307 68.7040008,2.22967429 68.7040008,5.23860206 L68.7040008,11.5719738 C68.7040008,14.5809016 66.1244208,16.6822236 62.4308577,16.6822236" id="Fill-8" style="fill: #000000 !important;"/>
                <path class="logo-secondary" d="M118.173441,2.70453809 C116.547431,2.70453809 114.810428,3.36974478 114.810428,5.23582043 L114.810428,11.2735448 C114.810428,12.9147058 116.224984,14.1060378 118.173441,14.1060378 C120.121899,14.1060378 121.536455,12.9147058 121.536455,11.2735448 L121.536455,5.53703111 C121.536455,3.89587003 120.121899,2.70453809 118.173441,2.70453809 M118.173441,16.6818262 C114.586821,16.6818262 112.081776,14.5820937 112.081776,11.5747554 L112.081776,4.93381501 C112.081776,2.01469411 114.473397,0.128749683 118.173441,0.128749683 C121.760062,0.128749683 124.264296,2.22848216 124.264296,5.23582043 L124.264296,11.5747554 C124.264296,14.5820937 121.760062,16.6818262 118.173441,16.6818262" id="Fill-9" style="fill: #000000 !important;"/>
                <path class="logo-primary" d="M33.7023254,16.6702228 C32.3631151,16.6702228 30.8359454,16.5216044 29.6668707,15.4216688 C28.3422435,14.1739095 27.8059112,12.067819 27.8715349,8.37937905 C27.8059112,4.70047607 28.3422435,2.59438558 29.6668707,1.34742106 C30.8359454,0.24669075 32.3631151,0.0980722893 33.7031356,0.0980722893 C34.3472204,0.0980722893 35.0172306,0.137015095 35.726129,0.177547402 C36.5792376,0.228411474 38.3518886,0.557438442 38.4264242,0.570949211 L38.6411192,0.611481518 L38.6411192,2.82247916 L38.6265361,3.32078812 C38.6265361,3.32078812 38.3518886,3.29058757 38.0367327,3.238134 C37.4728546,3.14514812 36.1538986,2.92738631 35.5649053,2.89321201 C34.8398035,2.85188495 34.2192136,2.8153264 33.6658678,2.8153264 C32.5761897,2.8153264 31.9547896,2.96315011 31.5877828,3.3096616 C30.9112912,3.9454625 30.5937047,5.64464041 30.6439352,8.36030502 L30.6439352,8.40957959 C30.5937047,11.1236547 30.9112912,12.8228326 31.5869726,13.4586335 C31.9547896,13.805145 32.5753795,13.9529687 33.6642474,13.9529687 C34.2200238,13.9529687 34.8414238,13.9164102 35.5616646,13.8750831 C36.3750749,13.827398 38.3113801,13.4888341 38.3308242,13.4848603 L38.6411192,13.4300225 L38.6411192,16.1568136 L38.4264242,16.1965511 C38.3518886,16.2108567 36.5792376,16.5406784 35.7285595,16.589953 C35.0196611,16.63128 34.3496509,16.6702228 33.7023254,16.6702228" id="Fill-10" style="fill: #000000 !important;"/>
                <path class="logo-secondary" d="M104.099419,16.6846078 C102.760208,16.6846078 101.233039,16.5359894 100.063964,15.4360538 C98.7393366,14.1882945 98.2021942,12.082204 98.2686281,8.39376404 C98.2021942,4.71486107 98.7393366,2.60877058 100.063964,1.36180606 C101.233039,0.261075746 102.760208,0.112457285 104.100229,0.112457285 C104.744314,0.112457285 105.501822,0.121199547 106.20829,0.198290407 C107.064639,0.291276289 108.748172,0.571823437 108.823517,0.585334206 L109.038212,0.625866514 L109.023629,3.35186288 C109.023629,3.35186288 108.975829,3.34312062 108.808124,3.31530433 C108.245056,3.2215237 106.550992,2.9417713 105.961998,2.907597 C105.236897,2.86626994 104.616307,2.82971139 104.062151,2.82971139 C102.973283,2.82971139 102.351883,2.9775351 101.984876,3.32404659 C101.308384,3.9598475 100.990798,5.65902541 101.041028,8.37469002 L101.041028,8.42316983 C100.990798,11.1380397 101.308384,12.8372176 101.984066,13.4730185 C102.351073,13.81953 102.972473,13.9673537 104.061341,13.9673537 C104.617117,13.9673537 105.238517,13.9307952 105.958758,13.8894681 C106.771358,13.841783 108.708473,13.503219 108.727917,13.4992453 L109.038212,13.4452022 L109.038212,16.1711986 L108.823517,16.2109361 C108.748172,16.2252417 106.976331,16.5550634 106.125653,16.604338 C105.448351,16.6440755 104.747554,16.6846078 104.099419,16.6846078" id="Fill-11" style="fill: #000000 !important;"/>
                <polygon class="logo-secondary" id="Fill-12" points="140.147023 16.6662491 139.784877 6.9003472 136.660053 14.5418793 133.553863 14.5418793 130.429039 6.9003472 130.066893 16.6662491 127.177828 16.6662491 127.790316 0.129067583 130.587832 0.129067583 135.106958 11.1784925 139.626084 0.129067583 142.423599 0.129067583 143.036088 16.6662491" style="fill: #000000 !important;"/>
                <path class="logo-primary" d="M19.7034052,16.731816 C18.1843373,16.731816 16.62071,16.364641 15.0570827,15.639828 L14.8180826,15.5293576 L15.9652828,13.1474884 L16.2034726,13.2587536 C17.3895609,13.8079266 18.6031949,14.0988055 19.7139374,14.0988055 C22.4936293,14.0988055 22.6491818,12.625337 22.6491818,12.1794816 C22.6491818,11.4856638 22.5730259,10.5256045 21.5157546,10.0932599 C21.2346257,9.97802094 20.6756087,9.74833787 20.0566392,9.62674094 C18.2799373,9.2778452 14.9768759,8.62932828 14.9768759,4.561792 C14.9768759,3.1892568 15.4289505,2.10124251 16.3201371,1.32715491 C17.2591236,0.512535003 18.617778,0.116748941 20.4746867,0.116748941 C21.5586936,0.116748941 22.6337886,0.246293375 23.5824972,0.359942786 C24.0191786,0.412396361 25.0075855,0.533993283 25.0075855,0.533993283 L24.8001821,3.17733554 C24.8001821,3.17733554 23.7242768,3.03110133 23.2592395,2.97546875 C22.4336767,2.87533011 21.4088122,2.78631798 20.4584833,2.75214368 C17.9809847,2.66472106 17.7209203,3.94824413 17.6617779,4.561792 C17.609927,5.09824901 17.6212694,6.40879362 20.5824392,7.04379978 C21.58948,7.25997208 22.4579818,7.55800376 23.2932666,8.01657516 C25.282233,9.10856321 25.6257449,11.1216678 25.2336228,13.2349111 C25.0375617,14.2966986 24.4542396,15.2019201 23.2956971,15.8695111 C22.3315953,16.4258368 21.0555782,16.731816 19.7034052,16.731816" id="Fill-13" style="fill: #000000 !important;"/>
                <path class="logo-secondary" d="M93.6896306,16.6702228 C92.6453221,16.6702228 91.7954542,15.8365289 91.7954542,14.8120947 C91.7954542,13.7868657 92.6453221,12.9531718 93.6896306,12.9531718 C94.7347494,12.9531718 95.5846173,13.7868657 95.5846173,14.8120947 C95.5846173,15.8365289 94.7347494,16.6702228 93.6896306,16.6702228" id="Fill-14" style="fill: #000000 !important;"/>
                <polygon class="logo-secondary" id="Fill-15" points="148.85829 14.3658419 148.018144 14.3658419 148.018144 16.6817467 147.499636 16.6817467 147.499636 14.3658419 146.65868 14.3658419 146.65868 13.9478028 148.85829 13.9478028" style="fill: #000000 !important;"/>
                <path class="logo-secondary" d="M152.478128,13.9479618 L152.478128,16.6819057 L152.021192,16.6819057 L152.021192,14.9159687 C152.021192,14.8452358 152.025243,14.7689397 152.032535,14.6870803 L151.190769,16.2392293 C151.15026,16.3139359 151.089497,16.3512892 151.00767,16.3512892 L150.933945,16.3512892 C150.852118,16.3512892 150.790545,16.3139359 150.750846,16.2392293 L149.899358,14.6815171 C149.902599,14.7228441 149.90584,14.7641712 149.90908,14.8047035 C149.911511,14.8444411 149.912321,14.8817944 149.912321,14.9159687 L149.912321,16.6819057 L149.455385,16.6819057 L149.455385,13.9479618 L149.846697,13.9479618 C149.870192,13.9479618 149.889636,13.9487565 149.90665,13.9495513 C149.923663,13.9511408 149.938246,13.9543198 149.952019,13.9590883 C149.965792,13.9646516 149.977945,13.9725991 149.988477,13.9837256 C149.999819,13.9948521 150.010351,14.0099524 150.020073,14.0290264 L150.855358,15.5477958 C150.877233,15.5875334 150.897487,15.6296552 150.916121,15.6725717 C150.934755,15.7154883 150.952579,15.7591996 150.971213,15.8045004 C150.989036,15.7584049 151.00767,15.713104 151.026304,15.6693927 C151.045748,15.6256814 151.066813,15.5843544 151.088687,15.543822 L151.911009,14.0290264 C151.921541,14.0099524 151.932884,13.9948521 151.944226,13.9837256 C151.955569,13.9725991 151.968531,13.9646516 151.981494,13.9590883 C151.995267,13.9543198 152.01066,13.9511408 152.026864,13.9495513 C152.043877,13.9487565 152.063321,13.9479618 152.086816,13.9479618 L152.478128,13.9479618 Z" id="Fill-16" style="fill: #000000 !important;"/>
            </g>
        </g>
    </g>
</svg>