<?xml version="1.0" encoding="UTF-8" standalone="no"?>
<!DOCTYPE svg PUBLIC "-//W3C//DTD SVG 1.1//EN" "http://www.w3.org/Graphics/SVG/1.1/DTD/svg11.dtd">
<svg xmlns="http://www.w3.org/2000/svg" version="1.1" viewBox="0.00 0.00 2048.00 431.00">
<path fill="#1081fc" d="
  M 296.66 290.42
  A 0.57 0.56 15.7 0 1 296.23 289.66
  Q 298.58 283.71 301.07 276.80
  C 305.59 264.23 307.01 250.24 304.40 237.74
  C 300.43 218.73 284.86 206.91 268.39 198.16
  Q 247.70 187.17 225.81 178.22
  Q 189.99 163.58 169.86 155.38
  Q 143.71 144.71 121.23 132.58
  C 107.86 125.36 95.35 116.22 86.20 104.26
  C 76.51 91.59 73.11 75.13 77.57 60.03
  C 81.90 45.35 94.22 32.20 107.49 24.03
  Q 135.80 6.60 170.43 3.41
  Q 181.77 2.37 196.55 2.80
  A 0.37 0.37 0.0 0 1 196.65 3.52
  Q 194.19 4.29 189.55 5.47
  C 176.17 8.87 162.84 17.97 159.06 32.09
  Q 155.09 46.87 164.69 60.46
  C 172.24 71.15 184.22 77.78 195.42 83.13
  Q 211.97 91.03 228.06 97.71
  Q 260.14 111.02 288.31 122.91
  Q 293.94 125.29 318.10 136.97
  C 347.16 151.03 376.38 174.64 371.29 211.45
  C 365.92 250.27 331.61 276.76 297.37 290.28
  Q 296.91 290.46 296.66 290.42
  Z"
/>
<path fill="#1081fc" d="
  M 77.01 141.13
  A 0.57 0.56 15.6 0 1 77.44 141.89
  Q 75.09 147.85 72.60 154.76
  C 68.08 167.33 66.66 181.33 69.27 193.83
  C 73.24 212.84 88.82 224.66 105.29 233.41
  Q 125.99 244.40 147.89 253.35
  Q 183.72 267.99 203.85 276.19
  Q 230.01 286.86 252.50 298.99
  C 265.87 306.21 278.38 315.35 287.54 327.32
  C 297.23 339.99 300.63 356.45 296.17 371.56
  C 291.84 386.24 279.52 399.39 266.25 407.57
  Q 237.94 425.00 203.30 428.20
  Q 191.96 429.24 177.17 428.81
  A 0.37 0.37 0.0 0 1 177.07 428.09
  Q 179.53 427.32 184.17 426.14
  C 197.56 422.74 210.89 413.63 214.67 399.51
  Q 218.64 384.73 209.03 371.13
  C 201.48 360.44 189.50 353.81 178.29 348.46
  Q 161.74 340.56 145.64 333.88
  Q 113.55 320.57 85.38 308.68
  Q 79.74 306.30 55.58 294.62
  C 26.51 280.56 -2.72 256.95 2.37 220.13
  C 7.73 181.30 42.05 154.80 76.30 141.27
  Q 76.76 141.09 77.01 141.13
  Z"
/>
<path fill="#000000" d="
  M 644.67 270.79
  A 0.62 0.62 0.0 0 1 645.29 270.13
  L 681.20 270.13
  A 0.85 0.84 -7.6 0 1 682.02 270.75
  C 689.47 297.20 732.83 296.80 753.45 293.94
  C 765.42 292.29 783.40 286.72 782.56 271.43
  C 781.99 260.90 771.96 257.04 762.74 255.74
  Q 751.66 254.17 719.51 250.23
  C 691.02 246.73 647.80 241.91 648.40 202.75
  C 648.80 176.40 673.50 163.54 696.00 159.06
  Q 731.68 151.95 767.06 159.20
  C 789.09 163.71 810.65 176.89 812.86 201.31
  A 0.50 0.50 0.0 0 1 812.36 201.85
  L 776.17 201.85
  A 0.82 0.82 0.0 0 1 775.36 201.17
  C 773.32 189.55 759.36 184.65 749.32 183.02
  Q 734.27 180.57 716.02 182.34
  C 706.58 183.25 694.29 185.90 688.51 193.18
  C 684.59 198.11 684.61 205.60 688.95 210.39
  C 693.59 215.49 701.22 217.94 707.71 218.83
  Q 716.02 219.98 768.87 226.60
  C 790.63 229.32 816.19 239.02 819.63 264.14
  C 825.36 305.89 783.90 318.37 751.75 320.58
  C 732.56 321.90 712.79 321.38 694.55 317.24
  C 670.92 311.87 646.52 297.84 644.67 270.79
  Z"
/>
<rect fill="#000000" x="838.46" y="158.79" width="35.70" height="28.40" rx="0.55"/>
<path fill="#000000" d="
  M 1474.17 317.59
  A 0.47 0.47 0.0 0 1 1473.70 318.06
  Q 1449.69 318.11 1437.01 318.05
  C 1416.30 317.94 1400.06 306.11 1399.81 284.19
  Q 1399.54 260.48 1399.74 227.33
  A 0.95 0.95 0.0 0 0 1398.79 226.38
  L 1373.37 226.38
  A 0.56 0.55 -90.0 0 1 1372.82 225.82
  L 1372.82 203.93
  A 0.51 0.50 -90.0 0 1 1373.32 203.42
  L 1398.87 203.42
  A 0.81 0.81 0.0 0 0 1399.68 202.61
  L 1399.68 173.06
  A 0.66 0.66 0.0 0 1 1400.34 172.40
  L 1433.69 172.40
  A 0.53 0.53 0.0 0 1 1434.22 172.93
  L 1434.22 202.82
  A 0.61 0.60 90.0 0 0 1434.82 203.43
  L 1473.41 203.43
  A 0.77 0.77 0.0 0 1 1474.18 204.20
  L 1474.18 225.91
  A 0.48 0.48 0.0 0 1 1473.70 226.39
  L 1434.81 226.39
  A 0.63 0.63 0.0 0 0 1434.18 227.02
  Q 1434.27 259.81 1434.16 276.50
  Q 1434.07 289.47 1443.98 293.55
  Q 1447.54 295.02 1458.74 294.86
  Q 1468.30 294.73 1473.66 294.86
  A 0.52 0.52 0.0 0 1 1474.17 295.38
  L 1474.17 317.59
  Z"
/>
<path fill="#000000" d="
  M 627.06 284.91
  A 0.66 0.66 0.0 0 1 627.68 285.79
  C 620.35 306.07 601.88 315.91 581.49 319.31
  Q 562.61 322.46 542.96 320.43
  C 513.20 317.35 486.40 300.38 482.41 268.54
  Q 480.91 256.57 483.81 245.35
  C 495.06 201.81 548.03 195.02 584.33 203.36
  Q 595.71 205.98 605.44 212.48
  C 624.10 224.92 630.19 246.45 629.79 267.92
  A 0.50 0.49 0.6 0 1 629.29 268.40
  L 517.08 268.40
  A 0.47 0.47 0.0 0 0 516.62 268.96
  Q 519.47 284.06 532.13 291.73
  Q 539.58 296.25 549.71 297.32
  C 564.25 298.86 582.43 297.33 591.89 285.30
  A 1.04 1.03 19.2 0 1 592.70 284.91
  L 627.06 284.91
  Z
  M 517.44 249.06
  A 0.32 0.32 0.0 0 0 517.75 249.46
  L 594.21 249.46
  A 0.45 0.45 0.0 0 0 594.65 248.92
  C 591.72 233.84 580.47 226.30 565.65 224.26
  C 545.99 221.55 523.38 227.36 517.44 249.06
  Z"
/>
<path fill="#000000" d="
  M 1008.83 294.19
  A 0.31 0.31 0.0 0 0 1008.28 293.99
  C 999.69 304.40 987.15 310.65 973.92 313.36
  C 940.28 320.26 901.06 307.41 893.38 270.39
  Q 891.89 263.20 892.35 253.49
  C 893.15 236.53 900.77 221.98 914.93 212.17
  C 930.27 201.53 949.54 198.72 968.21 201.07
  C 983.56 203.00 998.35 209.12 1008.22 221.16
  A 0.35 0.34 -64.7 0 0 1008.83 220.94
  L 1008.83 204.19
  A 0.77 0.76 -90.0 0 1 1009.59 203.42
  L 1042.59 203.42
  A 0.81 0.80 90.0 0 1 1043.39 204.23
  Q 1043.31 296.12 1043.41 304.09
  Q 1043.59 318.07 1041.92 324.31
  C 1034.74 351.11 1005.46 361.35 980.46 363.13
  C 953.61 365.05 906.11 360.76 899.71 327.10
  A 0.55 0.55 0.0 0 1 900.25 326.45
  L 933.59 326.45
  A 1.06 1.06 0.0 0 1 934.54 327.04
  C 938.43 335.00 946.33 338.29 954.73 339.78
  C 972.13 342.85 998.34 342.16 1007.00 323.48
  Q 1008.84 319.51 1008.82 311.85
  Q 1008.80 300.31 1008.83 294.19
  Z
  M 927.43 257.59
  C 927.46 280.86 947.99 290.45 968.25 290.42
  C 988.52 290.40 1009.02 280.76 1008.99 257.49
  C 1008.97 234.22 988.44 224.64 968.17 224.66
  C 947.91 224.69 927.40 234.33 927.43 257.59
  Z"
/>
<path fill="#000000" d="
  M 1101.07 224.49
  C 1114.05 204.39 1139.19 198.57 1161.71 200.67
  C 1182.54 202.62 1198.58 212.99 1205.04 232.95
  C 1207.37 240.11 1208.17 247.07 1208.19 255.37
  Q 1208.20 257.00 1208.26 317.71
  A 0.37 0.37 0.0 0 1 1207.89 318.08
  L 1174.05 318.08
  A 0.44 0.43 90.0 0 1 1173.62 317.64
  Q 1173.63 313.20 1173.61 261.02
  Q 1173.61 248.87 1168.30 239.71
  C 1161.65 228.25 1148.50 225.58 1136.21 226.17
  C 1120.36 226.93 1107.23 235.11 1102.23 250.64
  Q 1100.46 256.11 1100.56 268.51
  Q 1100.65 280.94 1100.60 317.68
  A 0.40 0.39 -90.0 0 1 1100.21 318.08
  L 1066.47 318.08
  A 0.35 0.35 0.0 0 1 1066.12 317.73
  L 1066.12 204.07
  A 0.64 0.63 0.0 0 1 1066.76 203.44
  L 1099.95 203.44
  A 0.66 0.66 0.0 0 1 1100.61 204.10
  L 1100.61 224.35
  A 0.25 0.25 0.0 0 0 1101.07 224.49
  Z"
/>
<path fill="#000000" d="
  M 1329.51 295.22
  A 0.25 0.24 61.9 0 0 1329.06 295.08
  Q 1318.42 311.22 1299.79 317.03
  Q 1277.89 323.88 1255.20 319.41
  C 1237.63 315.95 1225.01 305.26 1224.70 286.59
  C 1224.32 264.21 1246.89 254.79 1265.23 252.68
  Q 1295.17 249.25 1318.13 246.92
  C 1323.00 246.43 1327.59 244.00 1327.86 238.56
  C 1328.52 225.02 1308.18 222.86 1298.85 222.82
  C 1288.11 222.78 1268.96 223.24 1264.87 235.99
  A 0.65 0.64 -80.5 0 1 1264.26 236.43
  L 1231.10 236.43
  A 0.59 0.58 5.3 0 1 1230.52 235.74
  C 1237.01 200.33 1286.82 198.53 1313.99 201.05
  C 1333.42 202.85 1354.96 209.53 1360.91 230.59
  Q 1362.59 236.53 1362.51 248.95
  Q 1362.40 266.15 1362.46 317.78
  A 0.30 0.30 0.0 0 1 1362.16 318.08
  L 1329.99 318.08
  A 0.48 0.48 0.0 0 1 1329.51 317.60
  L 1329.51 295.22
  Z
  M 1327.24 263.14
  Q 1317.69 265.27 1315.77 265.52
  Q 1281.47 269.99 1279.50 270.18
  C 1270.61 271.07 1259.44 272.99 1260.42 284.47
  C 1261.00 291.29 1266.87 295.41 1272.93 296.55
  Q 1292.37 300.21 1309.20 292.13
  C 1320.66 286.62 1328.57 276.94 1327.89 263.63
  A 0.54 0.53 81.8 0 0 1327.24 263.14
  Z"
/>
<path fill="#000000" d="
  M 1896.38 284.91
  A 0.66 0.66 0.0 0 1 1897.00 285.79
  C 1889.67 306.07 1871.20 315.91 1850.81 319.31
  Q 1831.93 322.46 1812.28 320.43
  C 1782.52 317.36 1755.72 300.39 1751.72 268.55
  Q 1750.22 256.58 1753.12 245.36
  C 1764.37 201.82 1817.34 195.02 1853.64 203.36
  Q 1865.02 205.98 1874.75 212.48
  C 1893.41 224.92 1899.51 246.45 1899.11 267.92
  A 0.50 0.49 0.6 0 1 1898.61 268.40
  L 1786.40 268.40
  A 0.47 0.47 0.0 0 0 1785.94 268.96
  Q 1788.79 284.06 1801.45 291.73
  Q 1808.90 296.25 1819.03 297.32
  C 1833.57 298.86 1851.75 297.33 1861.21 285.30
  A 1.04 1.03 19.2 0 1 1862.02 284.91
  L 1896.38 284.91
  Z
  M 1786.75 249.06
  A 0.32 0.32 0.0 0 0 1787.06 249.46
  L 1863.52 249.45
  A 0.45 0.45 0.0 0 0 1863.96 248.91
  C 1861.02 233.83 1849.77 226.29 1834.95 224.25
  C 1815.29 221.55 1792.69 227.36 1786.75 249.06
  Z"
/>
<path fill="#000000" d="
  M 1912.92 285.10
  A 0.42 0.42 0.0 0 1 1913.34 284.64
  L 1946.88 284.64
  A 0.88 0.88 0.0 0 1 1947.69 285.17
  C 1953.96 299.97 1978.66 299.21 1991.99 297.93
  Q 1998.23 297.33 2003.68 295.20
  C 2009.41 292.96 2014.15 287.57 2011.15 281.22
  C 2009.28 277.25 2003.74 275.39 1999.43 274.83
  Q 1959.97 269.73 1956.02 269.15
  C 1937.60 266.44 1915.74 259.31 1915.79 236.50
  C 1915.84 214.29 1938.42 204.70 1957.07 201.85
  Q 1969.89 199.90 1983.65 200.34
  C 2005.52 201.05 2033.45 204.90 2041.14 229.32
  Q 2041.96 231.89 2042.18 234.46
  A 0.38 0.37 -2.7 0 1 2041.80 234.87
  L 2008.40 234.87
  A 0.87 0.86 -10.2 0 1 2007.59 234.31
  C 2003.11 222.48 1984.07 222.93 1974.27 223.07
  C 1967.45 223.16 1953.12 224.92 1950.95 232.90
  C 1948.68 241.22 1958.00 244.01 1964.44 244.83
  Q 2000.52 249.46 2010.52 250.93
  Q 2017.12 251.90 2025.24 254.78
  C 2040.05 260.05 2049.12 270.30 2047.40 287.20
  C 2043.71 323.42 1985.29 322.95 1960.71 320.04
  C 1940.12 317.59 1915.82 308.54 1912.92 285.10
  Z"
/>
<rect fill="#000000" x="838.99" y="203.45" width="34.54" height="114.64" rx="0.48"/>
<path fill="#000000" d="
  M 1594.73 297.52
  Q 1581.69 316.38 1557.18 320.12
  C 1531.80 323.99 1506.06 318.28 1495.17 293.14
  Q 1490.59 282.57 1490.50 270.49
  Q 1490.24 233.94 1490.45 203.90
  A 0.45 0.45 0.0 0 1 1490.90 203.45
  L 1524.35 203.45
  A 0.50 0.50 0.0 0 1 1524.85 203.95
  Q 1524.85 236.64 1524.83 257.06
  C 1524.82 266.10 1525.62 273.99 1529.39 280.97
  C 1536.31 293.79 1550.97 296.92 1564.51 294.97
  C 1583.76 292.20 1595.12 278.13 1595.15 259.25
  Q 1595.20 233.99 1595.16 203.96
  A 0.53 0.53 0.0 0 1 1595.69 203.43
  L 1628.93 203.43
  A 0.62 0.61 -90.0 0 1 1629.54 204.05
  L 1629.54 317.70
  A 0.38 0.38 0.0 0 1 1629.16 318.08
  L 1595.61 318.08
  A 0.43 0.43 0.0 0 1 1595.18 317.65
  L 1595.18 297.66
  A 0.25 0.25 0.0 0 0 1594.73 297.52
  Z"
/>
<path fill="#000000" d="
  M 1687.10 232.81
  Q 1687.70 232.08 1689.15 227.94
  Q 1689.60 226.66 1691.33 223.48
  Q 1700.99 205.83 1722.04 203.85
  Q 1731.32 202.97 1740.79 203.52
  A 0.33 0.33 0.0 0 1 1741.10 203.85
  L 1741.10 232.07
  A 0.77 0.77 0.0 0 1 1740.33 232.84
  C 1734.43 232.85 1724.59 232.28 1718.36 233.50
  C 1699.41 237.21 1687.30 253.48 1687.08 272.51
  Q 1686.83 294.29 1687.10 317.32
  A 0.75 0.75 0.0 0 1 1686.35 318.08
  L 1652.86 318.08
  A 0.43 0.43 0.0 0 1 1652.43 317.65
  L 1652.43 203.89
  A 0.45 0.45 0.0 0 1 1652.88 203.44
  L 1686.35 203.44
  A 0.63 0.63 0.0 0 1 1686.98 204.07
  L 1686.98 232.77
  A 0.07 0.07 0.0 0 0 1687.10 232.81
  Z"
/>
</svg>
