<?xml version="1.0" encoding="UTF-8" standalone="no"?>
<!DOCTYPE svg PUBLIC "-//W3C//DTD SVG 1.1//EN" "http://www.w3.org/Graphics/SVG/1.1/DTD/svg11.dtd">
<svg xmlns="http://www.w3.org/2000/svg" version="1.1" viewBox="0.00 0.00 124.00 124.00">
<g stroke-width="2.00" fill="none" stroke-linecap="butt">
<path stroke="#7b9336" vector-effect="non-scaling-stroke" d="
  M 57.65 4.10
  L 57.65 47.26
  A 0.28 0.28 0.0 0 1 57.12 47.40
  L 35.26 9.73"
/>
<path stroke="#7b9336" vector-effect="non-scaling-stroke" d="
  M 66.78 4.14
  L 66.74 47.41
  A 0.24 0.24 0.0 0 0 67.18 47.53
  L 89.01 9.86"
/>
<path stroke="#7b9336" vector-effect="non-scaling-stroke" d="
  M 91.16 10.85
  Q 93.15 13.03 95.80 13.85
  A 0.97 0.96 23.6 0 1 96.36 15.26
  L 75.19 51.94
  A 0.27 0.27 0.0 0 0 75.56 52.31
  L 112.43 31.02
  A 0.64 0.63 -29.6 0 1 113.29 31.25
  L 117.23 38.09
  A 0.61 0.60 -30.6 0 1 117.01 38.92
  L 79.46 60.59
  A 0.21 0.20 29.4 0 0 79.57 60.97
  L 124.00 61.01"
/>
<path stroke="#7b9336" vector-effect="non-scaling-stroke" d="
  M 0.00 61.00
  L 44.67 61.01
  A 0.25 0.25 0.0 0 0 44.80 60.54
  L 7.01 38.73
  A 0.85 0.84 -59.9 0 1 6.71 37.58
  L 10.44 31.11
  A 0.83 0.82 29.8 0 1 11.57 30.81
  L 49.02 52.43
  A 0.22 0.21 89.4 0 0 49.31 52.13
  L 27.43 13.96"
/>
</g>
<path fill="#ebff00" d="
  M 57.65 4.10
  L 57.65 47.26
  A 0.28 0.28 0.0 0 1 57.12 47.40
  L 35.26 9.73
  Q 45.29 5.09 57.65 4.10
  Z"
/>
<path fill="#0b266b" d="
  M 66.78 4.14
  L 66.74 47.41
  A 0.24 0.24 0.0 0 0 67.18 47.53
  L 89.01 9.86
  L 91.16 10.85
  Q 93.15 13.03 95.80 13.85
  A 0.97 0.96 23.6 0 1 96.36 15.26
  L 75.19 51.94
  A 0.27 0.27 0.0 0 0 75.56 52.31
  L 112.43 31.02
  A 0.64 0.63 -29.6 0 1 113.29 31.25
  L 117.23 38.09
  A 0.61 0.60 -30.6 0 1 117.01 38.92
  L 79.46 60.59
  A 0.21 0.20 29.4 0 0 79.57 60.97
  L 124.00 61.01
  L 124.00 69.97
  L 65.50 69.99
  A 1.29 1.27 -75.0 0 0 64.39 70.64
  L 35.61 120.48
  A 0.26 0.26 0.0 0 1 35.26 120.57
  L 27.75 116.24
  A 0.21 0.21 0.0 0 1 27.68 115.95
  L 53.91 70.51
  A 0.33 0.33 0.0 0 0 53.63 70.01
  L 0.00 70.00
  L 0.00 61.00
  L 44.67 61.01
  A 0.25 0.25 0.0 0 0 44.80 60.54
  L 7.01 38.73
  A 0.85 0.84 -59.9 0 1 6.71 37.58
  L 10.44 31.11
  A 0.83 0.82 29.8 0 1 11.57 30.81
  L 49.02 52.43
  A 0.22 0.21 89.4 0 0 49.31 52.13
  L 27.43 13.96
  L 35.26 9.73
  L 57.12 47.40
  A 0.28 0.28 0.0 0 0 57.65 47.26
  L 57.65 4.10
  L 66.78 4.14
  Z"
/>
<path fill="#ebff00" d="
  M 66.78 4.14
  Q 79.28 5.26 89.01 9.86
  L 67.18 47.53
  A 0.24 0.24 0.0 0 1 66.74 47.41
  L 66.78 4.14
  Z"
/>
<path fill="#ebff00" d="
  M 124.00 58.38
  L 124.00 61.01
  L 79.57 60.97
  A 0.21 0.20 29.4 0 1 79.46 60.59
  L 117.01 38.92
  A 0.61 0.60 -30.6 0 0 117.23 38.09
  L 113.29 31.25
  A 0.64 0.63 -29.6 0 0 112.43 31.02
  L 75.56 52.31
  A 0.27 0.27 0.0 0 1 75.19 51.94
  L 96.36 15.26
  A 0.97 0.96 23.6 0 0 95.80 13.85
  Q 93.15 13.03 91.16 10.85
  Q 120.21 26.12 124.00 58.38
  Z"
/>
<path fill="#ebff00" d="
  M 27.43 13.96
  L 49.31 52.13
  A 0.22 0.21 89.4 0 1 49.02 52.43
  L 11.57 30.81
  A 0.83 0.82 29.8 0 0 10.44 31.11
  L 6.71 37.58
  A 0.85 0.84 -59.9 0 0 7.01 38.73
  L 44.80 60.54
  A 0.25 0.25 0.0 0 1 44.67 61.01
  L 0.00 61.00
  L 0.00 58.43
  Q 3.34 29.32 27.43 13.96
  Z"
/>
</svg>
