<?xml version="1.0" encoding="UTF-8"?>
<!-- Generator: Adobe Illustrator 23.0.2, SVG Export Plug-In . SVG Version: 6.00 Build 0)  -->
<svg version="1.1" id="Ebene_1" xmlns="http://www.w3.org/2000/svg" xmlns:xlink="http://www.w3.org/1999/xlink" x="0px" y="0px" width="125.2px" height="38px" viewBox="0 0 125.2 38" style="enable-background:new 0 0 125.2 38;" xml:space="preserve">
<g>
	<g>
		<path style="fill:#F45917;" d="M13.2,31.9v0.2c0,0.9-0.2,1.7-0.5,2.5c-0.3,0.7-0.8,1.4-1.3,1.9c-0.6,0.5-1.2,0.9-2,1.2    C8.5,37.9,7.6,38,6.7,38c-1,0-1.9-0.2-2.7-0.5c-0.8-0.3-1.5-0.7-2.1-1.3c-0.6-0.6-1-1.3-1.4-2.1C0.2,33.4,0,32.5,0,31.5v-4.4    c0-1,0.2-2,0.5-2.8c0.3-0.8,0.8-1.5,1.4-2.1c0.6-0.6,1.3-1,2.1-1.4c0.8-0.3,1.7-0.5,2.7-0.5c1,0,1.9,0.2,2.7,0.5    c0.8,0.3,1.5,0.8,2,1.4c0.6,0.6,1,1.3,1.3,2.1c0.3,0.8,0.5,1.8,0.5,2.8v2.7H3.4v2c0,1,0.3,1.8,0.9,2.4c0.6,0.7,1.4,1,2.4,1    c1,0,1.8-0.3,2.4-0.9c0.5-0.6,0.8-1.3,0.8-2.2v-0.3H13.2z M3.4,27.3h6.5v-0.6c0-1-0.3-1.9-0.8-2.5c-0.6-0.7-1.4-1-2.4-1    s-1.8,0.3-2.4,1c-0.6,0.7-0.8,1.5-0.8,2.5V27.3z"/>
	</g>
	<polygon style="fill:#000000;" points="13.3,14.9 13.3,16.5 19.5,16.5 19.5,37.7 21.3,37.7 21.3,16.5 27.6,16.5 27.6,14.9  "/>
	<g>
		<path style="fill:#000000;" d="M40.7,32.1v0.3c0,0.9-0.1,1.7-0.5,2.3c-0.3,0.7-0.7,1.3-1.2,1.8c-0.5,0.5-1.2,0.9-1.9,1.1    c-0.8,0.3-1.6,0.4-2.5,0.4c-0.9,0-1.8-0.1-2.5-0.4c-0.8-0.3-1.4-0.7-2-1.2c-0.6-0.5-1-1.2-1.3-1.9c-0.3-0.8-0.5-1.6-0.5-2.6v-5.1    c0-1,0.1-1.9,0.5-2.7c0.3-0.8,0.7-1.5,1.3-2c0.6-0.6,1.2-1,2-1.3c0.8-0.3,1.6-0.5,2.5-0.5c0.9,0,1.7,0.2,2.5,0.5    c0.8,0.3,1.4,0.7,1.9,1.3c0.5,0.6,0.9,1.2,1.2,2c0.3,0.8,0.5,1.7,0.5,2.7v2.5H30V32c0,1.3,0.4,2.3,1.2,3.2    c0.8,0.9,1.9,1.3,3.3,1.3c1.5,0,2.6-0.4,3.4-1.2c0.8-0.8,1.1-1.7,1.1-2.8v-0.5H40.7z M30,27.8h9v-1.1c0-0.7-0.1-1.3-0.3-1.9    c-0.2-0.6-0.5-1.1-0.9-1.5c-0.4-0.4-0.9-0.8-1.4-1c-0.6-0.3-1.2-0.4-1.9-0.4s-1.4,0.1-1.9,0.4c-0.6,0.3-1,0.6-1.4,1    c-0.4,0.4-0.7,0.9-0.9,1.5C30.1,25.4,30,26,30,26.7V27.8z"/>
		<path style="fill:#000000;" d="M45.3,37.7V20.7h1.1l0.4,2.3c0.5-0.8,1.2-1.5,2-1.9c0.8-0.5,1.8-0.7,2.8-0.7h0.4c0.1,0,0.2,0,0.4,0    v1.7c-0.1,0-0.2,0-0.4-0.1c-0.1,0-0.3,0-0.5,0c-0.7,0-1.3,0.1-1.9,0.4c-0.6,0.2-1,0.6-1.4,1c-0.4,0.4-0.7,0.9-0.9,1.5    c-0.2,0.6-0.3,1.2-0.3,1.9v10.8H45.3z"/>
		<path style="fill:#000000;" d="M55.9,37.7V20.7H57l0.4,2.1c0.5-0.8,1.2-1.4,2-1.9c0.8-0.4,1.7-0.6,2.8-0.6c1.2,0,2.3,0.3,3.2,0.8    c0.9,0.5,1.6,1.3,2,2.3c0.5-1,1.2-1.8,2.1-2.3c0.9-0.5,1.9-0.8,3.1-0.8c1.8,0,3.2,0.5,4.3,1.6c1,1.1,1.6,2.6,1.6,4.5v11.2h-1.7    V26.4c0-0.6-0.1-1.2-0.3-1.7c-0.2-0.5-0.4-1-0.8-1.4c-0.4-0.4-0.8-0.7-1.3-0.9c-0.5-0.2-1.1-0.3-1.8-0.3c-0.7,0-1.3,0.1-1.8,0.3    c-0.6,0.2-1,0.6-1.4,1c-0.4,0.4-0.7,0.9-0.9,1.5c-0.2,0.6-0.3,1.2-0.3,1.8v11.1h-1.7V26.4c0-0.6-0.1-1.2-0.3-1.7    c-0.2-0.5-0.4-1-0.8-1.4c-0.4-0.4-0.8-0.7-1.3-0.9c-0.5-0.2-1.1-0.3-1.8-0.3c-0.7,0-1.3,0.1-1.8,0.3c-0.6,0.2-1,0.6-1.4,1    s-0.7,0.9-0.9,1.5c-0.2,0.6-0.3,1.2-0.3,1.8v11.1H55.9z"/>
		<path style="fill:#000000;" d="M83.1,15.8c0-0.4,0.1-0.7,0.4-0.9c0.2-0.2,0.5-0.4,0.9-0.4c0.4,0,0.7,0.1,0.9,0.4    c0.2,0.2,0.4,0.5,0.4,0.9c0,0.4-0.1,0.7-0.4,0.9c-0.2,0.2-0.5,0.4-0.9,0.4c-0.4,0-0.7-0.1-0.9-0.4C83.2,16.5,83.1,16.2,83.1,15.8     M85.3,37.7h-1.7V20.7h1.7V37.7z"/>
		<path style="fill:#000000;" d="M90.6,37.7V20.7h1.1l0.4,2.1c0.5-0.8,1.2-1.4,2-1.9c0.8-0.4,1.8-0.6,2.8-0.6c1.8,0,3.3,0.5,4.3,1.6    c1.1,1.1,1.6,2.6,1.6,4.5v11.2h-1.7V26.4c0-0.6-0.1-1.2-0.3-1.7c-0.2-0.5-0.5-1-0.8-1.4c-0.4-0.4-0.8-0.7-1.3-0.9    c-0.5-0.2-1.2-0.3-1.9-0.3c-1.4,0-2.5,0.5-3.3,1.4c-0.8,0.9-1.2,2-1.2,3.4v11H90.6z"/>
		<path style="fill:#000000;" d="M119.9,6.9C119.6,3,116.4,0,112.5,0c-3.3,0-6.1,2.1-7.1,5.2c-0.5-0.3-1-0.4-1.6-0.4    c-1.8,0-3.3,1.4-3.4,3.2c-2.8,0-5.2,2.3-5.2,5.2c0,2.9,2.3,5.2,5.2,5.2h2.6v-1.1h-2.6c-2.2,0-4-1.8-4-4c0-2.2,1.8-4,4-4l0.5,0.1    c0.2,0,0.3,0,0.5-0.1c0.1-0.1,0.2-0.3,0.2-0.4l0-0.4c0,0,0,0,0,0c0-1.2,1-2.2,2.2-2.2c0.5,0,1,0.2,1.4,0.5    c0.1,0.1,0.3,0.1,0.4,0.1l0.2,0c0.3,0,0.5-0.2,0.5-0.5l0-0.2c0.7-2.8,3.2-4.8,6.1-4.8c3.5,0,6.3,2.8,6.3,6.3    c0,0.3,0.3,0.6,0.6,0.6h0.3c2.5,0,4.5,2,4.5,4.5s-2,4.5-4.5,4.5h-1.4v1.1h1.4c3.1,0,5.6-2.5,5.6-5.6C125.2,9.5,122.8,7,119.9,6.9"/>
		<path style="fill:#F45917;" d="M110.7,21.2c-3.1,0-5.6-2.5-5.6-5.6c0-3.1,2.5-5.6,5.6-5.6c3.1,0,5.6,2.5,5.6,5.6    C116.3,18.7,113.8,21.2,110.7,21.2 M110.7,8.9c-3.7,0-6.7,3-6.7,6.7c0,3.7,3,6.7,6.7,6.7c3.7,0,6.7-3,6.7-6.7    C117.5,11.9,114.4,8.9,110.7,8.9"/>
		<path style="fill:#F45917;" d="M110.7,16.1c-0.3,0-0.5-0.2-0.5-0.5s0.2-0.5,0.5-0.5c0.3,0,0.5,0.2,0.5,0.5S111,16.1,110.7,16.1     M114,12l-2.7,2.6c-0.2-0.1-0.4-0.2-0.6-0.2c-0.3,0-0.6,0.1-0.8,0.3l-1.7-1.6l-0.5,0.6l1.8,1.6c0,0.1-0.1,0.2-0.1,0.3    c0,0.7,0.6,1.3,1.3,1.3c0.7,0,1.3-0.6,1.3-1.3c0-0.2,0-0.4-0.1-0.5l2.7-2.6L114,12z"/>
	</g>
</g>
</svg>