<svg width="128" height="128" viewBox="0 0 128 128" fill="none" xmlns="http://www.w3.org/2000/svg">
<g clip-path="url(#clip0_240_6508)">
<path d="M107.971 85.9273L65.6133 52.9019C64.9068 52.3641 65.6344 51.278 66.4041 51.7104L82.9485 60.979C90.4456 65.1863 99.9252 62.7505 104.47 55.4537C109.257 47.7562 106.726 37.6229 98.8602 33.0782L74.5867 19.0434C73.8169 18.59 74.3863 17.4301 75.2194 17.757L86.3755 22.2173C86.3965 22.2279 86.6602 22.3228 86.7656 22.3544C87.9466 22.7656 89.2225 22.9976 90.5511 22.9976C96.6036 22.9976 101.57 18.2104 102.002 12.5164C102.54 5.15627 96.8989 0 90.1715 0H38.6088C31.9868 0 26.4298 5.40934 26.5142 12.0102C26.5564 15.5215 28.1275 18.6533 30.5949 20.8043C32.4508 22.4177 38.7037 27.4263 41.6772 29.7988C42.2044 30.2206 41.9092 31.0747 41.2238 31.0747H30.9007C20.0504 31.138 11.2773 39.9532 11.2773 50.8246C11.2773 56.3183 13.5233 61.2848 17.1401 64.8594L76.8854 121.642C81.1137 125.585 86.7867 128 93.0291 128C106.115 128 116.723 117.392 116.723 104.306C116.723 96.8936 113.306 90.2717 107.971 85.9273Z" fill="#F05537"/>
</g>
<defs>
<clipPath id="clip0_240_6508">
<rect width="105.445" height="128" fill="white" transform="translate(11.2773)"/>
</clipPath>
</defs>
</svg>
