<?xml version="1.0" encoding="UTF-8" standalone="no"?>
<!DOCTYPE svg PUBLIC "-//W3C//DTD SVG 1.1//EN" "http://www.w3.org/Graphics/SVG/1.1/DTD/svg11.dtd">
<svg xmlns="http://www.w3.org/2000/svg" version="1.1" viewBox="0.00 0.00 400.00 400.00">
<g stroke-width="2.00" fill="none" stroke-linecap="butt">
<path stroke="#b4ebe0" vector-effect="non-scaling-stroke" d="
  M 174.99 66.46
  Q 171.65 67.19 168.43 68.42
  Q 141.48 78.72 126.61 84.30
  C 125.24 84.81 123.57 85.21 123.29 86.77
  Q 109.88 160.73 109.26 163.77
  Q 107.21 173.82 106.74 177.16
  C 105.80 183.83 103.90 192.58 102.47 200.80
  Q 102.46 200.88 101.07 207.79
  Q 100.02 213.01 99.88 218.28"
/>
<path stroke="#aea2af" vector-effect="non-scaling-stroke" d="
  M 99.88 218.28
  Q 150.91 246.22 201.58 274.18
  C 203.41 275.20 205.64 275.17 207.42 276.11
  C 224.90 285.33 241.67 294.72 256.61 302.85
  Q 257.06 303.10 257.52 303.29"
/>
<path stroke="#b4ebe0" vector-effect="non-scaling-stroke" d="
  M 257.52 303.29
  Q 258.20 304.04 258.31 304.51
  Q 262.13 320.84 266.88 340.03
  Q 267.23 341.46 268.13 341.24
  A 0.47 0.47 0.0 0 0 268.43 340.98
  L 283.15 305.97"
/>
<path stroke="#ebebec" vector-effect="non-scaling-stroke" d="
  M 283.15 305.97
  Q 288.09 311.43 291.00 313.06
  C 295.78 315.74 300.97 313.40 304.51 310.21
  Q 314.19 301.48 321.42 290.83
  Q 334.73 271.24 325.26 249.58
  Q 321.01 239.85 317.28 231.77
  C 313.32 223.19 306.56 219.44 297.92 217.30
  C 282.49 213.49 270.93 211.88 251.46 208.99
  Q 241.51 207.52 227.58 201.86
  C 215.54 196.97 208.57 189.67 201.02 177.62
  Q 194.88 167.81 188.27 159.65
  C 182.53 152.56 180.90 146.04 178.09 136.96
  C 176.52 131.87 173.06 126.92 167.94 125.01
  C 154.71 120.08 151.01 136.60 150.00 145.41"
/>
<path stroke="#aea2af" vector-effect="non-scaling-stroke" d="
  M 150.00 145.41
  L 146.27 136.97"
/>
<path stroke="#818081" vector-effect="non-scaling-stroke" d="
  M 146.27 136.97
  L 144.20 132.41"
/>
<path stroke="#b4ebe0" vector-effect="non-scaling-stroke" d="
  M 144.20 132.41
  L 144.84 129.95"
/>
<path stroke="#bebebe" vector-effect="non-scaling-stroke" d="
  M 144.84 129.95
  Q 146.49 127.26 147.81 124.44
  Q 149.83 120.14 150.56 118.81
  C 159.78 101.92 167.46 85.43 175.92 68.20
  Q 176.46 67.10 175.68 66.31
  Q 175.57 66.19 174.99 66.46"
/>
<path stroke="#73aa9f" vector-effect="non-scaling-stroke" d="
  M 144.84 129.95
  Q 143.92 129.18 144.70 127.72
  Q 151.35 115.26 155.52 106.75
  Q 165.06 87.25 175.03 67.97
  Q 175.27 67.51 174.99 66.46"
/>
<path stroke="#366b62" vector-effect="non-scaling-stroke" d="
  M 144.20 132.41
  Q 142.73 132.21 141.90 133.90
  Q 122.15 174.06 101.96 214.04"
/>
<path stroke="#638d90" vector-effect="non-scaling-stroke" d="
  M 101.96 214.04
  L 99.88 218.28"
/>
<path stroke="#6d616e" vector-effect="non-scaling-stroke" d="
  M 169.18 190.41
  L 174.74 203.20"
/>
<path stroke="#2f2230" vector-effect="non-scaling-stroke" d="
  M 174.74 203.20
  Q 179.68 216.54 184.10 226.64
  Q 193.33 247.73 200.31 264.76
  Q 202.21 269.39 203.65 272.26
  A 1.86 1.86 0.0 0 0 206.26 273.03
  L 206.33 272.98
  A 2.35 2.35 0.0 0 0 207.32 270.08
  Q 206.51 268.07 206.13 266.50
  C 203.19 254.38 197.71 243.53 193.46 232.52
  Q 191.21 226.66 184.10 210.61
  Q 183.58 209.43 182.49 205.39"
/>
<path stroke="#6d616e" vector-effect="non-scaling-stroke" d="
  M 182.49 205.39
  L 192.29 207.81"
/>
<path stroke="#638d90" vector-effect="non-scaling-stroke" d="
  M 238.34 222.95
  L 257.52 303.29"
/>
<path stroke="#2f2230" vector-effect="non-scaling-stroke" d="
  M 146.27 136.97
  Q 145.15 142.78 142.79 148.07
  Q 137.88 159.06 132.05 169.18
  Q 125.82 179.97 123.39 184.61
  Q 118.06 194.78 115.50 200.46
  Q 114.00 203.79 112.12 205.68
  Q 110.02 207.79 109.07 209.42
  C 107.81 211.60 104.79 217.33 101.96 214.04"
/>
<path stroke="#8dc3b9" vector-effect="non-scaling-stroke" d="
  M 284.64 302.85
  Q 288.60 296.50 290.43 289.84"
/>
<path stroke="#979797" vector-effect="non-scaling-stroke" d="
  M 290.43 289.84
  Q 295.45 288.91 299.20 284.21
  Q 308.27 272.84 312.48 261.92
  C 315.07 255.16 314.93 250.30 313.43 243.29
  A 0.87 0.85 1.8 0 0 312.82 242.65
  Q 311.96 242.41 311.17 243.03"
/>
<path stroke="#8dc3b9" vector-effect="non-scaling-stroke" d="
  M 311.17 243.03
  Q 308.71 240.04 306.57 239.34
  C 301.01 237.52 293.97 235.15 287.27 233.60
  Q 267.75 229.06 247.42 223.25
  Q 243.38 222.09 238.34 222.95"
/>
<path stroke="#877a88" vector-effect="non-scaling-stroke" d="
  M 238.34 222.95
  Q 237.93 220.40 236.07 219.88
  Q 214.15 213.83 192.29 207.81"
/>
<path stroke="#979797" vector-effect="non-scaling-stroke" d="
  M 192.29 207.81
  Q 187.18 198.63 181.83 189.90
  Q 179.39 185.92 177.17 184.55
  C 172.76 181.83 170.49 187.09 169.18 190.41"
/>
<path stroke="#877a88" vector-effect="non-scaling-stroke" d="
  M 169.18 190.41
  L 159.71 167.96
  A 6.39 6.32 -76.4 0 0 158.80 166.45
  Q 158.19 165.73 158.33 165.67
  Q 158.38 165.65 157.89 164.12
  Q 157.13 161.77 155.92 159.41"
/>
<path stroke="#a0d7cd" vector-effect="non-scaling-stroke" d="
  M 283.15 305.97
  L 284.64 302.85"
/>
<path stroke="#c4c4c5" vector-effect="non-scaling-stroke" d="
  M 284.64 302.85
  C 290.97 305.27 295.15 307.76 300.66 303.12
  Q 310.83 294.52 318.53 281.09
  C 323.86 271.80 327.32 261.58 320.56 251.87
  Q 319.77 250.73 317.70 247.82
  A 17.69 17.63 16.0 0 1 315.80 244.41
  C 313.15 238.07 312.03 233.78 305.07 231.20
  Q 302.99 230.43 294.84 227.96
  C 285.96 225.27 277.41 223.51 270.16 221.46
  C 262.82 219.39 254.59 218.36 248.01 216.91
  Q 229.45 212.82 215.45 205.75
  Q 204.00 199.96 198.10 187.97
  Q 192.13 175.86 189.77 172.26
  Q 183.69 163.01 182.52 161.01
  C 178.91 154.88 177.67 147.99 176.03 140.04
  C 174.57 132.98 172.19 128.57 164.35 127.71
  A 0.82 0.82 0.0 0 0 163.57 128.07
  Q 159.82 133.83 158.54 140.29
  C 157.44 145.85 156.42 153.01 155.92 159.41"
/>
<path stroke="#9a8e9b" vector-effect="non-scaling-stroke" d="
  M 155.92 159.41
  L 150.00 145.41"
/>
<path stroke="#73aa9f" vector-effect="non-scaling-stroke" d="
  M 311.17 243.03
  Q 310.15 245.63 308.37 247.88
  Q 306.90 249.75 305.88 251.93
  Q 297.29 270.40 290.43 289.84"
/>
<path stroke="#403f40" vector-effect="non-scaling-stroke" d="
  M 182.49 205.39
  L 174.74 203.20"
/>
<path stroke="#2f2230" vector-effect="non-scaling-stroke" d="
  M 141.1908 150.0126
  A 0.27 0.27 0.0 0 0 141.0671 149.6514
  L 140.9414 149.5898
  A 0.27 0.27 0.0 0 0 140.5801 149.7135
  L 132.5292 166.1474
  A 0.27 0.27 0.0 0 0 132.6529 166.5086
  L 132.7786 166.5702
  A 0.27 0.27 0.0 0 0 133.1399 166.4465
  L 141.1908 150.0126"
/>
</g>
<path fill="#ffffff" d="
  M 400.00 0.00
  L 400.00 400.00
  L 0.00 400.00
  L 0.00 0.00
  L 400.00 0.00
  Z
  M 174.99 66.46
  Q 171.65 67.19 168.43 68.42
  Q 141.48 78.72 126.61 84.30
  C 125.24 84.81 123.57 85.21 123.29 86.77
  Q 109.88 160.73 109.26 163.77
  Q 107.21 173.82 106.74 177.16
  C 105.80 183.83 103.90 192.58 102.47 200.80
  Q 102.46 200.88 101.07 207.79
  Q 100.02 213.01 99.88 218.28
  Q 150.91 246.22 201.58 274.18
  C 203.41 275.20 205.64 275.17 207.42 276.11
  C 224.90 285.33 241.67 294.72 256.61 302.85
  Q 257.06 303.10 257.52 303.29
  Q 258.20 304.04 258.31 304.51
  Q 262.13 320.84 266.88 340.03
  Q 267.23 341.46 268.13 341.24
  A 0.47 0.47 0.0 0 0 268.43 340.98
  L 283.15 305.97
  Q 288.09 311.43 291.00 313.06
  C 295.78 315.74 300.97 313.40 304.51 310.21
  Q 314.19 301.48 321.42 290.83
  Q 334.73 271.24 325.26 249.58
  Q 321.01 239.85 317.28 231.77
  C 313.32 223.19 306.56 219.44 297.92 217.30
  C 282.49 213.49 270.93 211.88 251.46 208.99
  Q 241.51 207.52 227.58 201.86
  C 215.54 196.97 208.57 189.67 201.02 177.62
  Q 194.88 167.81 188.27 159.65
  C 182.53 152.56 180.90 146.04 178.09 136.96
  C 176.52 131.87 173.06 126.92 167.94 125.01
  C 154.71 120.08 151.01 136.60 150.00 145.41
  L 146.27 136.97
  L 144.20 132.41
  L 144.84 129.95
  Q 146.49 127.26 147.81 124.44
  Q 149.83 120.14 150.56 118.81
  C 159.78 101.92 167.46 85.43 175.92 68.20
  Q 176.46 67.10 175.68 66.31
  Q 175.57 66.19 174.99 66.46
  Z"
/>
<path fill="#7d7d7d" d="
  M 144.84 129.95
  Q 143.92 129.18 144.70 127.72
  Q 151.35 115.26 155.52 106.75
  Q 165.06 87.25 175.03 67.97
  Q 175.27 67.51 174.99 66.46
  Q 175.57 66.19 175.68 66.31
  Q 176.46 67.10 175.92 68.20
  C 167.46 85.43 159.78 101.92 150.56 118.81
  Q 149.83 120.14 147.81 124.44
  Q 146.49 127.26 144.84 129.95
  Z"
/>
<path fill="#69d6c1" d="
  M 174.99 66.46
  Q 175.27 67.51 175.03 67.97
  Q 165.06 87.25 155.52 106.75
  Q 151.35 115.26 144.70 127.72
  Q 143.92 129.18 144.84 129.95
  L 144.20 132.41
  Q 142.73 132.21 141.90 133.90
  Q 122.15 174.06 101.96 214.04
  L 99.88 218.28
  Q 100.02 213.01 101.07 207.79
  Q 102.46 200.88 102.47 200.80
  C 103.90 192.58 105.80 183.83 106.74 177.16
  Q 107.21 173.82 109.26 163.77
  Q 109.88 160.73 123.29 86.77
  C 123.57 85.21 125.24 84.81 126.61 84.30
  Q 141.48 78.72 168.43 68.42
  Q 171.65 67.19 174.99 66.46
  Z"
/>
<path fill="#d7d7d8" d="
  M 283.15 305.97
  L 284.64 302.85
  C 290.97 305.27 295.15 307.76 300.66 303.12
  Q 310.83 294.52 318.53 281.09
  C 323.86 271.80 327.32 261.58 320.56 251.87
  Q 319.77 250.73 317.70 247.82
  A 17.69 17.63 16.0 0 1 315.80 244.41
  C 313.15 238.07 312.03 233.78 305.07 231.20
  Q 302.99 230.43 294.84 227.96
  C 285.96 225.27 277.41 223.51 270.16 221.46
  C 262.82 219.39 254.59 218.36 248.01 216.91
  Q 229.45 212.82 215.45 205.75
  Q 204.00 199.96 198.10 187.97
  Q 192.13 175.86 189.77 172.26
  Q 183.69 163.01 182.52 161.01
  C 178.91 154.88 177.67 147.99 176.03 140.04
  C 174.57 132.98 172.19 128.57 164.35 127.71
  A 0.82 0.82 0.0 0 0 163.57 128.07
  Q 159.82 133.83 158.54 140.29
  C 157.44 145.85 156.42 153.01 155.92 159.41
  L 150.00 145.41
  C 151.01 136.60 154.71 120.08 167.94 125.01
  C 173.06 126.92 176.52 131.87 178.09 136.96
  C 180.90 146.04 182.53 152.56 188.27 159.65
  Q 194.88 167.81 201.02 177.62
  C 208.57 189.67 215.54 196.97 227.58 201.86
  Q 241.51 207.52 251.46 208.99
  C 270.93 211.88 282.49 213.49 297.92 217.30
  C 306.56 219.44 313.32 223.19 317.28 231.77
  Q 321.01 239.85 325.26 249.58
  Q 334.73 271.24 321.42 290.83
  Q 314.19 301.48 304.51 310.21
  C 300.97 313.40 295.78 315.74 291.00 313.06
  Q 288.09 311.43 283.15 305.97
  Z"
/>
<path fill="#b1b0b1" d="
  M 284.64 302.85
  Q 288.60 296.50 290.43 289.84
  Q 295.45 288.91 299.20 284.21
  Q 308.27 272.84 312.48 261.92
  C 315.07 255.16 314.93 250.30 313.43 243.29
  A 0.87 0.85 1.8 0 0 312.82 242.65
  Q 311.96 242.41 311.17 243.03
  Q 308.71 240.04 306.57 239.34
  C 301.01 237.52 293.97 235.15 287.27 233.60
  Q 267.75 229.06 247.42 223.25
  Q 243.38 222.09 238.34 222.95
  Q 237.93 220.40 236.07 219.88
  Q 214.15 213.83 192.29 207.81
  Q 187.18 198.63 181.83 189.90
  Q 179.39 185.92 177.17 184.55
  C 172.76 181.83 170.49 187.09 169.18 190.41
  L 159.71 167.96
  A 6.39 6.32 -76.4 0 0 158.80 166.45
  Q 158.19 165.73 158.33 165.67
  Q 158.38 165.65 157.89 164.12
  Q 157.13 161.77 155.92 159.41
  C 156.42 153.01 157.44 145.85 158.54 140.29
  Q 159.82 133.83 163.57 128.07
  A 0.82 0.82 0.0 0 1 164.35 127.71
  C 172.19 128.57 174.57 132.98 176.03 140.04
  C 177.67 147.99 178.91 154.88 182.52 161.01
  Q 183.69 163.01 189.77 172.26
  Q 192.13 175.86 198.10 187.97
  Q 204.00 199.96 215.45 205.75
  Q 229.45 212.82 248.01 216.91
  C 254.59 218.36 262.82 219.39 270.16 221.46
  C 277.41 223.51 285.96 225.27 294.84 227.96
  Q 302.99 230.43 305.07 231.20
  C 312.03 233.78 313.15 238.07 315.80 244.41
  A 17.69 17.63 16.0 0 0 317.70 247.82
  Q 319.77 250.73 320.56 251.87
  C 327.32 261.58 323.86 271.80 318.53 281.09
  Q 310.83 294.52 300.66 303.12
  C 295.15 307.76 290.97 305.27 284.64 302.85
  Z"
/>
<path fill="#020002" d="
  M 144.20 132.41
  L 146.27 136.97
  Q 145.15 142.78 142.79 148.07
  Q 137.88 159.06 132.05 169.18
  Q 125.82 179.97 123.39 184.61
  Q 118.06 194.78 115.50 200.46
  Q 114.00 203.79 112.12 205.68
  Q 110.02 207.79 109.07 209.42
  C 107.81 211.60 104.79 217.33 101.96 214.04
  Q 122.15 174.06 141.90 133.90
  Q 142.73 132.21 144.20 132.41
  Z
  M 141.1908 150.0126
  A 0.27 0.27 0.0 0 0 141.0671 149.6514
  L 140.9414 149.5898
  A 0.27 0.27 0.0 0 0 140.5801 149.7135
  L 132.5292 166.1474
  A 0.27 0.27 0.0 0 0 132.6529 166.5086
  L 132.7786 166.5702
  A 0.27 0.27 0.0 0 0 133.1399 166.4465
  L 141.1908 150.0126
  Z"
/>
<path fill="#5c445e" d="
  M 150.00 145.41
  L 155.92 159.41
  Q 157.13 161.77 157.89 164.12
  Q 158.38 165.65 158.33 165.67
  Q 158.19 165.73 158.80 166.45
  A 6.39 6.32 -76.4 0 1 159.71 167.96
  L 169.18 190.41
  L 174.74 203.20
  Q 179.68 216.54 184.10 226.64
  Q 193.33 247.73 200.31 264.76
  Q 202.21 269.39 203.65 272.26
  A 1.86 1.86 0.0 0 0 206.26 273.03
  L 206.33 272.98
  A 2.35 2.35 0.0 0 0 207.32 270.08
  Q 206.51 268.07 206.13 266.50
  C 203.19 254.38 197.71 243.53 193.46 232.52
  Q 191.21 226.66 184.10 210.61
  Q 183.58 209.43 182.49 205.39
  L 192.29 207.81
  Q 214.15 213.83 236.07 219.88
  Q 237.93 220.40 238.34 222.95
  L 257.52 303.29
  Q 257.06 303.10 256.61 302.85
  C 241.67 294.72 224.90 285.33 207.42 276.11
  C 205.64 275.17 203.41 275.20 201.58 274.18
  Q 150.91 246.22 99.88 218.28
  L 101.96 214.04
  C 104.79 217.33 107.81 211.60 109.07 209.42
  Q 110.02 207.79 112.12 205.68
  Q 114.00 203.79 115.50 200.46
  Q 118.06 194.78 123.39 184.61
  Q 125.82 179.97 132.05 169.18
  Q 137.88 159.06 142.79 148.07
  Q 145.15 142.78 146.27 136.97
  L 150.00 145.41
  Z"
/>
<rect fill="#5c445e" x="-0.34" y="-9.42" transform="translate(136.86,158.08) rotate(26.1)" width="0.68" height="18.84" rx="0.27"/>
<path fill="#7d7d7d" d="
  M 192.29 207.81
  L 182.49 205.39
  L 174.74 203.20
  L 169.18 190.41
  C 170.49 187.09 172.76 181.83 177.17 184.55
  Q 179.39 185.92 181.83 189.90
  Q 187.18 198.63 192.29 207.81
  Z"
/>
<path fill="#020002" d="
  M 174.74 203.20
  L 182.49 205.39
  Q 183.58 209.43 184.10 210.61
  Q 191.21 226.66 193.46 232.52
  C 197.71 243.53 203.19 254.38 206.13 266.50
  Q 206.51 268.07 207.32 270.08
  A 2.35 2.35 0.0 0 1 206.33 272.98
  L 206.26 273.03
  A 1.86 1.86 0.0 0 1 203.65 272.26
  Q 202.21 269.39 200.31 264.76
  Q 193.33 247.73 184.10 226.64
  Q 179.68 216.54 174.74 203.20
  Z"
/>
<path fill="#69d6c1" d="
  M 311.17 243.03
  Q 310.15 245.63 308.37 247.88
  Q 306.90 249.75 305.88 251.93
  Q 297.29 270.40 290.43 289.84
  Q 288.60 296.50 284.64 302.85
  L 283.15 305.97
  L 268.43 340.98
  A 0.47 0.47 0.0 0 1 268.13 341.24
  Q 267.23 341.46 266.88 340.03
  Q 262.13 320.84 258.31 304.51
  Q 258.20 304.04 257.52 303.29
  L 238.34 222.95
  Q 243.38 222.09 247.42 223.25
  Q 267.75 229.06 287.27 233.60
  C 293.97 235.15 301.01 237.52 306.57 239.34
  Q 308.71 240.04 311.17 243.03
  Z"
/>
<path fill="#7d7d7d" d="
  M 290.43 289.84
  Q 297.29 270.40 305.88 251.93
  Q 306.90 249.75 308.37 247.88
  Q 310.15 245.63 311.17 243.03
  Q 311.96 242.41 312.82 242.65
  A 0.87 0.85 1.8 0 1 313.43 243.29
  C 314.93 250.30 315.07 255.16 312.48 261.92
  Q 308.27 272.84 299.20 284.21
  Q 295.45 288.91 290.43 289.84
  Z"
/>
</svg>
