<svg xmlns="http://www.w3.org/2000/svg" width="100%" viewBox="0 0 134 41" fill="none" class="contain-image" style="fill: none !important;"><g clip-path="url(#clip0_606_149)" style="fill: none !important;"><path d="M10.4529 9.31538L10.8728 14.6102L8.74903 12.4864V15.6697L6.77415 13.6948C6.77415 13.6948 3.5128 19.0921 6.77415 22.0947L0 29.2204H2.00417L7.79211 23.2787C7.79211 23.2787 11.1877 26.0762 16.131 22.7782L14.183 20.8302H17.2784L15.1814 18.7333H20.3762C20.3762 18.7333 25.1144 14.2123 28.9543 0C28.9543 0 17.5737 3.73006 10.4529 9.31538Z" fill="currentColor" style="fill: #000000 !important;"/><path d="M35.5528 16.8121L31.6469 11.0096H34.3346L36.9979 15.0057L39.5269 11.0096H42.2366L38.3772 16.9244L42.4856 22.976H39.7979L36.9296 18.6405L34.0856 22.976H31.376L35.5528 16.8121Z" fill="currentColor" style="fill: #000000 !important;"/><path d="M43.8604 16.9928C43.8604 13.0186 45.1932 10.7386 49.4359 10.7386C53.6786 10.7386 55.0115 13.0186 55.0115 16.9928C55.0115 20.9669 53.6786 23.247 49.4359 23.247C45.1932 23.247 43.8604 20.9669 43.8604 16.9928ZM49.4384 21.1452C51.8307 21.1452 52.5313 19.971 52.5313 16.9903C52.5313 14.0097 51.8307 12.8355 49.4384 12.8355C47.046 12.8355 46.3235 14.0097 46.3235 16.9903C46.3235 19.971 47.046 21.1452 49.4384 21.1452Z" fill="currentColor" style="fill: #000000 !important;"/><path d="M57.6768 17.0147C57.6768 13.1309 58.6483 10.7386 62.2588 10.7386C63.5916 10.7386 64.6291 11.0535 66.2329 11.9347V6.04184H68.6253V22.9736H66.4795L66.3672 21.98C64.6975 22.9052 63.6136 23.2445 62.2588 23.2445C58.6459 23.2445 57.6768 20.8742 57.6768 17.0123V17.0147ZM62.9374 21.1452C63.8626 21.1452 64.6071 20.9425 66.2329 20.0393V13.9438C64.6071 13.0186 63.8406 12.838 62.9374 12.838C60.7257 12.838 60.1374 14.0122 60.1374 16.9928C60.1374 19.9734 60.7233 21.1476 62.9374 21.1476V21.1452Z" fill="currentColor" style="fill: #000000 !important;"/><path d="M71.7646 16.9928C71.7646 13.0186 73.0975 10.7386 77.3402 10.7386C81.5829 10.7386 82.9158 13.0186 82.9158 16.9928C82.9158 20.9669 81.5829 23.247 77.3402 23.247C73.0975 23.247 71.7646 20.9669 71.7646 16.9928ZM77.3426 21.1452C79.735 21.1452 80.4356 19.971 80.4356 16.9903C80.4356 14.0097 79.735 12.8355 77.3426 12.8355C74.9503 12.8355 74.2278 14.0097 74.2278 16.9903C74.2278 19.971 74.9503 21.1452 77.3426 21.1452Z" fill="currentColor" style="fill: #000000 !important;"/><path d="M90.9326 22.749V20.6935C92.2655 20.9865 93.552 21.1891 94.8165 21.1891C96.5106 21.1891 97.2552 20.8278 97.2552 19.6317C97.2552 18.6381 96.7352 18.4575 94.8628 17.8716C92.0629 16.9903 90.9351 16.5851 90.9351 14.3051C90.9351 12.0251 91.997 10.7142 95.5171 10.7142C96.8499 10.7142 98.1584 10.9168 99.0836 11.0974V13.1529C97.9777 12.9283 96.6668 12.7696 95.6294 12.7696C93.5983 12.7696 93.3493 13.3335 93.3493 14.1684C93.3493 15.0496 93.6203 15.2303 95.539 15.8162C97.841 16.5168 99.7842 16.922 99.7842 19.6097C99.7842 22.2974 97.7287 23.2445 94.8848 23.2445C93.5983 23.2445 92.3338 23.0639 90.9351 22.749H90.9326Z" fill="currentColor" style="fill: #000000 !important;"/><path d="M102.672 6.87671H105.291V9.38376H102.672V6.87671ZM102.784 11.0096H105.176V22.976H102.784V11.0096Z" fill="currentColor" style="fill: #000000 !important;"/><path d="M109.558 27.06V25.051C110.686 25.5246 112.358 25.7955 113.779 25.7955C116.081 25.7955 116.894 25.1852 116.894 23.0859V21.8213C115.268 22.6782 114.231 22.9736 112.92 22.9736C109.307 22.9736 108.338 20.6935 108.338 16.922C108.338 13.1504 109.353 10.7361 112.92 10.7361C114.275 10.7361 115.337 11.0511 117.028 12.0007L117.141 11.0071H119.286V23.0859C119.286 26.5401 117.346 27.7582 113.711 27.7582C112.244 27.7582 110.73 27.5092 109.556 27.0576L109.558 27.06ZM113.645 20.9425C114.502 20.9425 115.224 20.8083 116.897 19.9051V13.9438C115.317 13.0625 114.548 12.838 113.577 12.838C111.387 12.838 110.799 13.9902 110.799 16.9684C110.799 19.9466 111.362 20.9425 113.642 20.9425H113.645Z" fill="currentColor" style="fill: #000000 !important;"/><path d="M130.464 13.3335C130.171 12.9722 129.697 12.8355 129.087 12.8355C128.072 12.8355 126.67 13.1968 125.181 13.8974V22.9736H122.789V11.0071H124.935L125.047 11.9543C126.673 11.2097 128.321 10.7361 129.676 10.7361C130.803 10.7361 131.775 11.0511 132.429 11.7736C132.993 12.4059 133.332 13.3775 133.332 14.7079V22.9711H130.916V15.0472C130.916 14.2123 130.781 13.6924 130.464 13.3311V13.3335Z" fill="currentColor" style="fill: #000000 !important;"/><path d="M32.1376 37.4788L32.079 37.9963H30.9512V29.1911H32.2084V32.2548C33.0408 31.7958 33.5705 31.6323 34.2638 31.6323C36.1435 31.6323 36.6463 32.8773 36.6463 34.8961C36.6463 36.9149 36.141 38.1355 34.2638 38.1355C33.5705 38.1355 33.0188 37.9719 32.1376 37.4788ZM33.9245 37.0467C35.0645 37.0467 35.3696 36.4364 35.3696 34.8863C35.3696 33.3362 35.0645 32.7259 33.9245 32.7259C33.4314 32.7259 33.0432 32.8431 32.2108 33.2898V36.4828C33.0554 36.9417 33.4436 37.0467 33.9245 37.0467Z" fill="currentColor" style="fill: #000000 !important;"/><path d="M38.3134 39.2999H38.8187C39.241 39.2999 39.5242 39.0655 39.6633 38.6652L40.0271 37.6326L37.4199 31.7739H38.7577L40.5885 35.9995L42.0556 31.7739H43.3714L40.7057 39.0875C40.4469 39.8272 39.8025 40.3081 38.9676 40.3081H38.3109V39.2974L38.3134 39.2999Z" fill="currentColor" style="fill: #000000 !important;"/><path d="M51.5542 37.4788C50.8268 37.9011 50.1579 38.1355 49.4182 38.1355C48.3856 38.1355 47.4922 37.6668 47.4922 36.1386C47.4922 34.6105 48.432 34.1418 49.9114 34.1418H51.5079V33.8024C51.5079 33.4143 51.4029 33.1458 51.2149 32.9798C50.9806 32.7674 50.6046 32.6868 50.1115 32.6868C49.5012 32.6868 48.703 32.7918 47.9853 32.9334V31.8764C48.642 31.747 49.4402 31.6298 50.1335 31.6298C50.8268 31.6298 51.5298 31.747 52.0229 32.1107C52.4697 32.4403 52.7504 32.9676 52.7504 33.778V37.9939H51.5884L51.5542 37.4764V37.4788ZM49.7356 37.1053C50.3117 37.1053 50.839 36.9295 51.5079 36.5536V35.0279H50.0163C49.0887 35.0279 48.7494 35.1915 48.7494 36.0605C48.7494 36.8588 49.0667 37.1053 49.7356 37.1053Z" fill="currentColor" style="fill: #000000 !important;"/><path d="M55.7699 37.5154V40.3105H54.5127V31.7763H55.6405L55.6991 32.2938C56.5681 31.8007 57.132 31.6372 57.8253 31.6372C59.705 31.6372 60.2079 32.8699 60.2079 34.879C60.2079 36.888 59.7026 38.1428 57.8253 38.1428C57.1442 38.1428 56.6048 37.9792 55.7699 37.5203V37.5154ZM57.4836 37.0467C58.6236 37.0467 58.9287 36.4364 58.9287 34.8863C58.9287 33.3362 58.6236 32.7259 57.4836 32.7259C56.9904 32.7259 56.6145 32.8309 55.7699 33.2898V36.4828C56.6145 36.9417 56.9904 37.0467 57.4836 37.0467Z" fill="currentColor" style="fill: #000000 !important;"/><path d="M61.7686 31.7739H62.8842L62.9672 32.4305C64.0364 31.8666 64.7516 31.6323 65.4571 31.6323V32.6893C64.8468 32.6893 64.1999 32.9017 63.016 33.5339V37.9963H61.771V31.7739H61.7686Z" fill="currentColor" style="fill: #000000 !important;"/><path d="M67.2392 39.2999H67.7445C68.1668 39.2999 68.45 39.0655 68.5891 38.6652L68.9528 37.6326L66.3457 31.7739H67.6834L69.5143 35.9995L70.9814 31.7739H72.2972L69.6315 39.0875C69.3727 39.8272 68.7283 40.3081 67.8934 40.3081H67.2367V39.2974L67.2392 39.2999Z" fill="currentColor" style="fill: #000000 !important;"/><path d="M73.2246 37.8791V36.8099C73.9179 36.9613 74.5868 37.0687 75.2434 37.0687C76.1247 37.0687 76.5104 36.8807 76.5104 36.2582C76.5104 35.7407 76.2394 35.6479 75.2654 35.3428C73.8105 34.8839 73.2222 34.6739 73.2222 33.4875C73.2222 32.3011 73.7739 31.6201 75.6047 31.6201C76.298 31.6201 76.9791 31.725 77.46 31.8202V32.8895C76.8839 32.7723 76.2028 32.6893 75.6633 32.6893C74.6063 32.6893 74.4769 32.9822 74.4769 33.4167C74.4769 33.8757 74.6185 33.9684 75.6169 34.2736C76.8155 34.6373 77.8237 34.8497 77.8237 36.246C77.8237 37.6424 76.7545 38.1355 75.2752 38.1355C74.6063 38.1355 73.9496 38.0427 73.2197 37.8767L73.2246 37.8791Z" fill="currentColor" style="fill: #000000 !important;"/><path d="M79.0591 34.9083C79.0591 32.8431 79.7524 31.6323 81.8762 31.6323C84.1781 31.6323 84.5638 33.0408 84.5638 34.3688C84.5638 34.6276 84.5394 34.9669 84.5175 35.2964H80.3504C80.409 36.6342 80.8191 37.0565 82.0641 37.0565C82.8038 37.0565 83.6728 36.9051 84.2831 36.5975V37.6424C83.6948 37.9597 82.838 38.1355 81.9811 38.1355C79.7499 38.1355 79.0566 36.9857 79.0566 34.9058L79.0591 34.9083ZM83.2969 34.3688C83.3213 33.5827 83.2139 32.7015 81.842 32.7015C80.8436 32.7015 80.4456 33.1702 80.3504 34.3688H83.2969Z" fill="currentColor" style="fill: #000000 !important;"/></g></svg>