<?xml version="1.0" encoding="UTF-8" standalone="no"?>
<!DOCTYPE svg PUBLIC "-//W3C//DTD SVG 1.1//EN" "http://www.w3.org/Graphics/SVG/1.1/DTD/svg11.dtd">
<svg xmlns="http://www.w3.org/2000/svg" version="1.1" viewBox="0.00 0.00 144.00 144.00">
<g stroke-width="2.00" fill="none" stroke-linecap="butt">
<path stroke="#99deb4" vector-effect="non-scaling-stroke" d="
  M 135.95 72.00
  A 63.95 63.95 0.0 0 0 72.00 8.05
  A 63.95 63.95 0.0 0 0 8.05 72.00
  A 63.95 63.95 0.0 0 0 72.00 135.95
  A 63.95 63.95 0.0 0 0 135.95 72.00"
/>
<path stroke="#99deb4" vector-effect="non-scaling-stroke" d="
  M 125.30 72.00
  A 53.30 53.30 0.0 0 0 72.00 18.70
  A 53.30 53.30 0.0 0 0 18.70 72.00
  A 53.30 53.30 0.0 0 0 72.00 125.30
  A 53.30 53.30 0.0 0 0 125.30 72.00"
/>
<path stroke="#99deb4" vector-effect="non-scaling-stroke" d="
  M 79.96 40.00
  A 7.96 7.96 0.0 0 0 72.00 32.04
  A 7.96 7.96 0.0 0 0 64.04 40.00
  A 7.96 7.96 0.0 0 0 72.00 47.96
  A 7.96 7.96 0.0 0 0 79.96 40.00"
/>
<path stroke="#99deb4" vector-effect="non-scaling-stroke" d="
  M 54.94 52.04
  A 7.96 7.96 0.0 0 0 46.98 44.08
  A 7.96 7.96 0.0 0 0 39.02 52.04
  A 7.96 7.96 0.0 0 0 46.98 60.00
  A 7.96 7.96 0.0 0 0 54.94 52.04"
/>
<path stroke="#99deb4" vector-effect="non-scaling-stroke" d="
  M 65.77 76.98
  C 68.22 80.05 73.99 81.20 76.84 78.33
  Q 83.32 71.80 98.87 55.85
  Q 102.29 52.34 100.10 49.59
  Q 97.90 46.84 93.72 49.39
  Q 74.72 61.02 66.92 65.89
  C 63.48 68.03 63.32 73.91 65.77 76.98"
/>
<path stroke="#99deb4" vector-effect="non-scaling-stroke" d="
  M 48.77 79.12
  A 7.96 7.96 0.0 0 0 40.81 71.16
  A 7.96 7.96 0.0 0 0 32.85 79.12
  A 7.96 7.96 0.0 0 0 40.81 87.08
  A 7.96 7.96 0.0 0 0 48.77 79.12"
/>
<path stroke="#99deb4" vector-effect="non-scaling-stroke" d="
  M 111.15 79.12
  A 7.96 7.96 0.0 0 0 103.19 71.16
  A 7.96 7.96 0.0 0 0 95.23 79.12
  A 7.96 7.96 0.0 0 0 103.19 87.08
  A 7.96 7.96 0.0 0 0 111.15 79.12"
/>
<path stroke="#99deb4" vector-effect="non-scaling-stroke" d="
  M 66.08 100.83
  A 7.97 7.97 0.0 0 0 58.11 92.86
  A 7.97 7.97 0.0 0 0 50.14 100.83
  A 7.97 7.97 0.0 0 0 58.11 108.80
  A 7.97 7.97 0.0 0 0 66.08 100.83"
/>
<path stroke="#99deb4" vector-effect="non-scaling-stroke" d="
  M 93.86 100.83
  A 7.97 7.97 0.0 0 0 85.89 92.86
  A 7.97 7.97 0.0 0 0 77.92 100.83
  A 7.97 7.97 0.0 0 0 85.89 108.80
  A 7.97 7.97 0.0 0 0 93.86 100.83"
/>
</g>
<path fill="#33bd69" d="
  M 144.00 0.00
  L 144.00 144.00
  L 0.00 144.00
  L 0.00 0.00
  L 144.00 0.00
  Z
  M 135.95 72.00
  A 63.95 63.95 0.0 0 0 72.00 8.05
  A 63.95 63.95 0.0 0 0 8.05 72.00
  A 63.95 63.95 0.0 0 0 72.00 135.95
  A 63.95 63.95 0.0 0 0 135.95 72.00
  Z"
/>
<path fill="#ffffff" d="
  M 135.95 72.00
  A 63.95 63.95 0.0 0 1 72.00 135.95
  A 63.95 63.95 0.0 0 1 8.05 72.00
  A 63.95 63.95 0.0 0 1 72.00 8.05
  A 63.95 63.95 0.0 0 1 135.95 72.00
  Z
  M 125.30 72.00
  A 53.30 53.30 0.0 0 0 72.00 18.70
  A 53.30 53.30 0.0 0 0 18.70 72.00
  A 53.30 53.30 0.0 0 0 72.00 125.30
  A 53.30 53.30 0.0 0 0 125.30 72.00
  Z"
/>
<path fill="#33bd69" d="
  M 125.30 72.00
  A 53.30 53.30 0.0 0 1 72.00 125.30
  A 53.30 53.30 0.0 0 1 18.70 72.00
  A 53.30 53.30 0.0 0 1 72.00 18.70
  A 53.30 53.30 0.0 0 1 125.30 72.00
  Z
  M 79.96 40.00
  A 7.96 7.96 0.0 0 0 72.00 32.04
  A 7.96 7.96 0.0 0 0 64.04 40.00
  A 7.96 7.96 0.0 0 0 72.00 47.96
  A 7.96 7.96 0.0 0 0 79.96 40.00
  Z
  M 54.94 52.04
  A 7.96 7.96 0.0 0 0 46.98 44.08
  A 7.96 7.96 0.0 0 0 39.02 52.04
  A 7.96 7.96 0.0 0 0 46.98 60.00
  A 7.96 7.96 0.0 0 0 54.94 52.04
  Z
  M 65.77 76.98
  C 68.22 80.05 73.99 81.20 76.84 78.33
  Q 83.32 71.80 98.87 55.85
  Q 102.29 52.34 100.10 49.59
  Q 97.90 46.84 93.72 49.39
  Q 74.72 61.02 66.92 65.89
  C 63.48 68.03 63.32 73.91 65.77 76.98
  Z
  M 48.77 79.12
  A 7.96 7.96 0.0 0 0 40.81 71.16
  A 7.96 7.96 0.0 0 0 32.85 79.12
  A 7.96 7.96 0.0 0 0 40.81 87.08
  A 7.96 7.96 0.0 0 0 48.77 79.12
  Z
  M 111.15 79.12
  A 7.96 7.96 0.0 0 0 103.19 71.16
  A 7.96 7.96 0.0 0 0 95.23 79.12
  A 7.96 7.96 0.0 0 0 103.19 87.08
  A 7.96 7.96 0.0 0 0 111.15 79.12
  Z
  M 66.08 100.83
  A 7.97 7.97 0.0 0 0 58.11 92.86
  A 7.97 7.97 0.0 0 0 50.14 100.83
  A 7.97 7.97 0.0 0 0 58.11 108.80
  A 7.97 7.97 0.0 0 0 66.08 100.83
  Z
  M 93.86 100.83
  A 7.97 7.97 0.0 0 0 85.89 92.86
  A 7.97 7.97 0.0 0 0 77.92 100.83
  A 7.97 7.97 0.0 0 0 85.89 108.80
  A 7.97 7.97 0.0 0 0 93.86 100.83
  Z"
/>
<circle fill="#ffffff" cx="72.00" cy="40.00" r="7.96"/>
<circle fill="#ffffff" cx="46.98" cy="52.04" r="7.96"/>
<path fill="#ffffff" d="
  M 100.10 49.59
  Q 102.29 52.34 98.87 55.85
  Q 83.32 71.80 76.84 78.33
  C 73.99 81.20 68.22 80.05 65.77 76.98
  C 63.32 73.91 63.48 68.03 66.92 65.89
  Q 74.72 61.02 93.72 49.39
  Q 97.90 46.84 100.10 49.59
  Z"
/>
<circle fill="#ffffff" cx="40.81" cy="79.12" r="7.96"/>
<circle fill="#ffffff" cx="103.19" cy="79.12" r="7.96"/>
<circle fill="#ffffff" cx="58.11" cy="100.83" r="7.97"/>
<circle fill="#ffffff" cx="85.89" cy="100.83" r="7.97"/>
</svg>
