<svg xmlns="http://www.w3.org/2000/svg" class="MsLogo" viewBox="0 0 99 21"><path class="HC c74" d="M34.94384 12.1124l-.59342 1.6608h-.03374a15.86223 15.86223 0 0 0-.56213-1.64266l-3.1758-7.96679h-3.1049V16.83h2.0478V9.0436c0-.48062-.01031-1.0614-.03057-1.72611-.01055-.33629-.04861-.60582-.058-.811h.045c.10406.4772.21219.84074.29036 1.084L33.57659 16.83h1.43266L38.789 7.507a8.2553 8.2553 0 0 0 .2602-1.00052h.04492c-.04934.9227-.09132 1.76588-.097 2.27472V16.83h2.18466V4.16375h-2.98185zM43.23858 7.75293h2.13529v9.07703h-2.13529zM44.32818 3.89545a1.28731 1.28731 0 0 0-.90968.35668 1.17694 1.17694 0 0 0-.38108.89053 1.14511 1.14511 0 0 0 .37691.87288 1.30076 1.30076 0 0 0 .91385.34783 1.31646 1.31646 0 0 0 .91793-.34758 1.13946 1.13946 0 0 0 .38181-.87313 1.19956 1.19956 0 0 0-.37138-.88073 1.27358 1.27358 0 0 0-.92836-.36648zM52.93294 7.66212a5.91561 5.91561 0 0 0-1.19319-.12789 5.26835 5.26835 0 0 0-2.59678.62421 4.20113 4.20113 0 0 0-1.7121 1.761 5.60038 5.60038 0 0 0-.58863 2.60829 4.81649 4.81649 0 0 0 .57156 2.33827 4.01747 4.01747 0 0 0 1.59784 1.61566 4.76026 4.76026 0 0 0 2.33414.56726 5.10923 5.10923 0 0 0 2.57564-.60285l.02823-.01646v-1.95585l-.08958.06553a4.01826 4.01826 0 0 1-1.04469.5437 3.16174 3.16174 0 0 1-1.02312.19835 2.62927 2.62927 0 0 1-1.99855-.7791 3.02828 3.02828 0 0 1-.73738-2.15814 3.14318 3.14318 0 0 1 .7683-2.2158 2.61573 2.61573 0 0 1 2.0025-.82649 3.42846 3.42846 0 0 1 2.03294.70694l.08958.06505V8.01264l-.02871-.01619a3.53811 3.53811 0 0 0-.988-.33433zM59.96821 7.59536a2.18731 2.18731 0 0 0-1.42788.512 2.88955 2.88955 0 0 0-.82155 1.21724h-.0226V7.75293h-2.135V16.83h2.135v-4.64348a3.23654 3.23654 0 0 1 .53217-1.92787 1.63252 1.63252 0 0 1 1.381-.72928 2.51241 2.51241 0 0 1 .64211.09425 1.6279 1.6279 0 0 1 .49781.20129l.08984.0648V7.73722l-.03461-.01472a2.21076 2.21076 0 0 0-.83629-.12714zM65.76756 7.53423a4.73981 4.73981 0 0 0-3.53323 1.30366 4.8866 4.8866 0 0 0-1.27666 3.55874 4.62871 4.62871 0 0 0 1.24622 3.397 4.52193 4.52193 0 0 0 3.34472 1.2553 4.61146 4.61146 0 0 0 3.4635-1.32158 4.87659 4.87659 0 0 0 1.27641-3.5234 4.75509 4.75509 0 0 0-1.19763-3.42251 4.41 4.41 0 0 0-3.32333-1.24721zm1.69763 6.98912a2.16529 2.16529 0 0 1-1.7941.758 2.292 2.292 0 0 1-1.83879-.77224 3.28324 3.28324 0 0 1-.66079-2.18268 3.41139 3.41139 0 0 1 .66079-2.2396 2.25617 2.25617 0 0 1 1.82135-.785 2.2219 2.2219 0 0 1 1.77349.75063 3.34221 3.34221 0 0 1 .64729 2.22145 3.56448 3.56448 0 0 1-.60924 2.24944zM75.02376 11.50364a4.64261 4.64261 0 0 1-1.28156-.66645.93192.93192 0 0 1-.25872-.69907.7783.7783 0 0 1 .32844-.64681 1.47116 1.47116 0 0 1 .91951-.2597A3.75721 3.75721 0 0 1 75.82669 9.4a3.5299 3.5299 0 0 1 .95633.44332l.08836.06015V7.92966l-.03438-.01473a4.71358 4.71358 0 0 0-.97056-.27048 5.95145 5.95145 0 0 0-1.06507-.11022 3.90841 3.90841 0 0 0-2.504.774 2.46926 2.46926 0 0 0-.97524 2.01379 2.80966 2.80966 0 0 0 .21036 1.12521 2.25421 2.25421 0 0 0 .64606.84416 5.62313 5.62313 0 0 0 1.31374.73491 9.79062 9.79062 0 0 1 1.09256.5091 1.51226 1.51226 0 0 1 .48085.395.88377.88377 0 0 1 .13427.5145c0 .61022-.45681.90649-1.39643.90649a3.84033 3.84033 0 0 1-1.18167-.216 4.45107 4.45107 0 0 1-1.21016-.61366l-.08958-.06455v2.0813l.03265.01521a5.36515 5.36515 0 0 0 1.14606.354 6.138 6.138 0 0 0 1.22365.14139 4.15062 4.15062 0 0 0 2.64391-.77812 2.51712 2.51712 0 0 0 .98431-2.06215 2.36906 2.36906 0 0 0-.52948-1.55943 4.53616 4.53616 0 0 0-1.79947-1.14574zM83.09416 7.53423a4.7402 4.7402 0 0 0-3.53323 1.30366 4.88764 4.88764 0 0 0-1.27666 3.55874 4.62784 4.62784 0 0 0 1.24647 3.397 4.52149 4.52149 0 0 0 3.34472 1.2553 4.61122 4.61122 0 0 0 3.46325-1.32158 4.87564 4.87564 0 0 0 1.27666-3.5234 4.75413 4.75413 0 0 0-1.19788-3.42251 4.41 4.41 0 0 0-3.32333-1.24721zm1.69789 6.98912a2.16569 2.16569 0 0 1-1.79411.758 2.29291 2.29291 0 0 1-1.839-.77224 3.28319 3.28319 0 0 1-.66054-2.18268 3.41139 3.41139 0 0 1 .66079-2.2396 2.25548 2.25548 0 0 1 1.82135-.785 2.22224 2.22224 0 0 1 1.77349.75063 3.34221 3.34221 0 0 1 .64729 2.22145 3.56611 3.56611 0 0 1-.60927 2.24944zM99 9.49425V7.75293h-2.16229V5.04546l-.07289.02234-2.031.62176-.04.01229v2.05108H91.49V6.6103a1.811 1.811 0 0 1 .354-1.21038 1.244 1.244 0 0 1 .99-.40526 2.307 2.307 0 0 1 .94012.21428l.07953.03534V3.41019l-.0373-.01327a3.65779 3.65779 0 0 0-1.201-.161 3.52356 3.52356 0 0 0-1.70329.40944 2.91321 2.91321 0 0 0-1.16926 1.15585 3.43992 3.43992 0 0 0-.41409 1.6952v1.25652H87.823v1.74132h1.50569V16.83H91.49V9.49425h3.2038v4.66187c0 1.91953.90551 2.8928 2.69152 2.8928a4.4019 4.4019 0 0 0 .9178-.10187 2.5365 2.5365 0 0 0 .66841-.21207L99 16.71877v-1.75826l-.08787.05866a1.5096 1.5096 0 0 1-.43472.18975 1.66121 1.66121 0 0 1-.42686.07242 1.15891 1.15891 0 0 1-.92023-.33506 1.8056 1.8056 0 0 1-.29261-1.16669V9.49425z" style="fill: rgb(116, 116, 116) !important;"/><path fill="#f05226" d="M0-.06719h10.0444v10.0444H0z" style="fill: rgb(240, 82, 38) !important;"/><path fill="#80bb42" d="M11.09009-.06719h10.04415V9.97698H11.09009z" style="fill: rgb(128, 187, 66) !important;"/><path fill="#339fd9" d="M0 11.02682h10.04415v10.04417H0z" style="fill: rgb(51, 159, 217) !important;"/><path fill="#fdb816" d="M11.09009 11.02682h10.04415v10.04417H11.09009z" style="fill: rgb(253, 184, 22) !important;"/></svg>