<?xml version="1.0" encoding="UTF-8" standalone="no"?>
<!DOCTYPE svg PUBLIC "-//W3C//DTD SVG 1.1//EN" "http://www.w3.org/Graphics/SVG/1.1/DTD/svg11.dtd">
<svg xmlns="http://www.w3.org/2000/svg" version="1.1" viewBox="0.00 0.00 338.00 338.00">
<g stroke-width="2.00" fill="none" stroke-linecap="butt">
<path stroke="#97c4fc" vector-effect="non-scaling-stroke" d="
  M 174.1943 61.1708
  A 7.36 7.36 0.0 0 0 163.7857 61.1708
  L 128.6708 96.2857
  A 7.36 7.36 0.0 0 0 128.6708 106.6943
  L 163.7857 141.8092
  A 7.36 7.36 0.0 0 0 174.1943 141.8092
  L 209.3092 106.6943
  A 7.36 7.36 0.0 0 0 209.3092 96.2857
  L 174.1943 61.1708"
/>
<path stroke="#97c4fc" vector-effect="non-scaling-stroke" d="
  M 169.02 278.07
  Q 172.51 278.07 174.42 276.17
  Q 190.71 259.99 271.59 179.05
  Q 277.17 173.46 277.82 171.13
  Q 279.13 166.40 274.67 161.87
  Q 261.94 148.96 247.56 134.68
  C 243.83 130.97 238.27 129.07 234.13 133.13
  Q 217.65 149.31 170.44 196.92
  Q 169.60 197.76 169.03 197.76
  Q 168.45 197.76 167.62 196.92
  Q 120.42 149.29 103.95 133.11
  C 99.81 129.05 94.25 130.95 90.52 134.65
  Q 76.13 148.93 63.40 161.83
  Q 58.94 166.36 60.25 171.09
  Q 60.90 173.42 66.47 179.02
  Q 147.33 259.98 163.61 276.17
  Q 165.52 278.06 169.02 278.07"
/>
</g>
<path fill="#338dfd" d="
  M 338.00 0.00
  L 338.00 338.00
  L 0.00 338.00
  L 0.00 0.00
  L 338.00 0.00
  Z
  M 174.1943 61.1708
  A 7.36 7.36 0.0 0 0 163.7857 61.1708
  L 128.6708 96.2857
  A 7.36 7.36 0.0 0 0 128.6708 106.6943
  L 163.7857 141.8092
  A 7.36 7.36 0.0 0 0 174.1943 141.8092
  L 209.3092 106.6943
  A 7.36 7.36 0.0 0 0 209.3092 96.2857
  L 174.1943 61.1708
  Z
  M 169.02 278.07
  Q 172.51 278.07 174.42 276.17
  Q 190.71 259.99 271.59 179.05
  Q 277.17 173.46 277.82 171.13
  Q 279.13 166.40 274.67 161.87
  Q 261.94 148.96 247.56 134.68
  C 243.83 130.97 238.27 129.07 234.13 133.13
  Q 217.65 149.31 170.44 196.92
  Q 169.60 197.76 169.03 197.76
  Q 168.45 197.76 167.62 196.92
  Q 120.42 149.29 103.95 133.11
  C 99.81 129.05 94.25 130.95 90.52 134.65
  Q 76.13 148.93 63.40 161.83
  Q 58.94 166.36 60.25 171.09
  Q 60.90 173.42 66.47 179.02
  Q 147.33 259.98 163.61 276.17
  Q 165.52 278.06 169.02 278.07
  Z"
/>
<rect fill="#fafafa" x="-32.19" y="-32.19" transform="translate(168.99,101.49) rotate(-45.0)" width="64.38" height="64.38" rx="7.36"/>
<path fill="#fafafa" d="
  M 169.03 197.76
  Q 169.60 197.76 170.44 196.92
  Q 217.65 149.31 234.13 133.13
  C 238.27 129.07 243.83 130.97 247.56 134.68
  Q 261.94 148.96 274.67 161.87
  Q 279.13 166.40 277.82 171.13
  Q 277.17 173.46 271.59 179.05
  Q 190.71 259.99 174.42 276.17
  Q 172.51 278.07 169.02 278.07
  Q 165.52 278.06 163.61 276.17
  Q 147.33 259.98 66.47 179.02
  Q 60.90 173.42 60.25 171.09
  Q 58.94 166.36 63.40 161.83
  Q 76.13 148.93 90.52 134.65
  C 94.25 130.95 99.81 129.05 103.95 133.11
  Q 120.42 149.29 167.62 196.92
  Q 168.45 197.76 169.03 197.76
  Z"
/>
</svg>
