<?xml version="1.0" encoding="UTF-8" standalone="no"?>
<!DOCTYPE svg PUBLIC "-//W3C//DTD SVG 1.1//EN" "http://www.w3.org/Graphics/SVG/1.1/DTD/svg11.dtd">
<svg xmlns="http://www.w3.org/2000/svg" version="1.1" viewBox="0.00 0.00 192.00 192.00">
<path fill="#4f46e5" d="
  M 123.85 119.71
  A 0.61 0.60 37.3 0 1 124.68 119.60
  L 149.99 138.19
  A 0.89 0.89 0.0 0 1 150.14 139.49
  Q 131.55 161.00 102.75 162.60
  C 69.52 164.44 38.97 145.36 32.73 111.28
  Q 31.51 104.66 31.94 94.75
  C 33.57 57.01 66.23 33.66 102.50 35.57
  Q 132.36 37.15 146.73 61.40
  C 152.05 70.39 155.23 82.31 155.59 92.36
  Q 155.81 98.44 155.65 110.33
  A 0.49 0.49 0.0 0 1 155.16 110.81
  L 70.27 110.81
  A 0.66 0.66 0.0 0 0 69.64 111.66
  Q 71.47 117.81 73.39 120.87
  Q 81.05 133.05 95.48 133.93
  C 107.93 134.69 116.23 129.27 123.85 119.71
  Z
  M 70.11 85.48
  L 118.33 85.14
  A 0.16 0.16 0.0 0 0 118.49 84.98
  L 118.49 84.85
  A 23.76 22.37 -0.4 0 0 94.57 62.65
  L 93.55 62.65
  A 23.76 22.37 -0.4 0 0 69.95 85.19
  L 69.95 85.32
  A 0.16 0.16 0.0 0 0 70.11 85.48
  Z"
/>
</svg>
