<svg width="128" height="128" viewBox="0 0 128 128" fill="none" xmlns="http://www.w3.org/2000/svg">
<g clip-path="url(#clip0_240_6873)">
<g clip-path="url(#clip1_240_6873)">
<path d="M104.229 113.676C92.9524 122.819 78.6286 128 64.0001 128C49.3715 128 35.0477 123.124 23.7715 113.676C35.0477 104.533 49.3715 99.3524 64.0001 99.3524C79.2381 99.3524 93.2572 104.838 104.229 113.676Z" fill="#FF355E"/>
<path fill-rule="evenodd" clip-rule="evenodd" d="M23.4667 98.1333C15.2381 88.6857 10.6667 76.4952 10.9714 64C10.9714 34.7429 34.7429 10.9714 64 10.9714C93.2571 10.9714 117.029 34.7429 117.029 64C117.029 77.1048 112.457 88.9905 104.533 98.1333C107.276 99.9619 109.714 101.79 112.152 103.619L113.067 104.533C122.819 93.2571 128 78.9333 128 64C128 28.6476 99.3524 0 64 0C28.6476 0 0 28.6476 0 64C0 78.9333 5.18095 93.2571 14.6286 104.533L15.5429 103.619C17.981 101.79 20.7238 99.9619 23.4667 98.1333Z" fill="#FF355E"/>
<path d="M87.7714 62.1715C87.7714 75.2762 77.1047 85.9429 63.9999 85.9429C50.8952 85.9429 40.2285 75.2762 40.2285 62.1715C40.2285 49.0667 50.8952 38.4 63.9999 38.4C77.1047 38.4 87.7714 49.0667 87.7714 62.1715Z" fill="#FF355E"/>
</g>
</g>
<defs>
<clipPath id="clip0_240_6873">
<rect width="128" height="128" fill="white"/>
</clipPath>
<clipPath id="clip1_240_6873">
<rect width="128" height="128" fill="white"/>
</clipPath>
</defs>
</svg>
