<svg width="128" height="23" viewBox="0 0 128 23" fill="none" xmlns="http://www.w3.org/2000/svg" style="fill: none !important;"><g clip-path="url(#clip0_7396_3612)" style="fill: none !important;"><path d="M0 18.1926L13.4471 4.80786V18.1926H0Z" fill="#F72F96" style="fill: rgb(247, 47, 150) !important;"/><path d="M29.2561 4.80786L15.8091 18.1926V4.80786H29.2561Z" fill="#B641FF" style="fill: rgb(182, 65, 255) !important;"/><path d="M35.9205 18.1379V0.123226H47.4852V3.32304H40.0022V8.08497H45.9231V11.1588H40.0022V18.1379H35.9205ZM52.445 18.4151C50.0514 18.4151 48.0358 17.2561 48.0358 14.4846C48.0358 11.4108 50.8576 10.2518 54.8889 10.2518H56.3754V9.72267C56.3754 8.16056 55.8967 7.30392 54.2338 7.30392C52.7977 7.30392 52.1426 8.03458 51.9914 9.16838H48.5397C48.7664 6.04415 51.2356 4.6584 54.4606 4.6584C57.6856 4.6584 59.9784 5.96856 59.9784 9.54631V18.1379H56.4258V16.5506C55.67 17.6088 54.511 18.4151 52.445 18.4151ZM53.5284 15.8704C55.1409 15.8704 56.3754 14.9885 56.3754 13.5272V12.4186H54.9645C52.8481 12.4186 51.6135 12.8721 51.6135 14.283C51.6135 15.2405 52.193 15.8704 53.5284 15.8704ZM62.6101 18.1379V4.96074H66.2635V7.48028C67.0949 5.71661 68.3799 4.78438 70.5215 4.75918V8.16056C67.8256 8.13536 66.2635 9.0172 66.2635 11.5367V18.1379H62.6101ZM75.7222 18.4151C73.3286 18.4151 71.313 17.2561 71.313 14.4846C71.313 11.4108 74.1349 10.2518 78.1661 10.2518H79.6526V9.72267C79.6526 8.16056 79.1739 7.30392 77.511 7.30392C76.0749 7.30392 75.4198 8.03458 75.2686 9.16838H71.8169C72.0436 6.04415 74.5128 4.6584 77.7378 4.6584C80.9628 4.6584 83.2556 5.96856 83.2556 9.54631V18.1379H79.703V16.5506C78.9472 17.6088 77.7882 18.4151 75.7222 18.4151ZM76.8056 15.8704C78.4181 15.8704 79.6526 14.9885 79.6526 13.5272V12.4186H78.2417C76.1253 12.4186 74.8907 12.8721 74.8907 14.283C74.8907 15.2405 75.4702 15.8704 76.8056 15.8704ZM90.8256 18.4151C87.6258 18.4151 85.1063 16.1223 85.1063 11.7383V11.5367C85.1063 7.20313 87.6006 4.6584 90.9012 4.6584C93.0176 4.6584 94.3278 5.59063 95.0585 6.92598V-1.01057H98.6866V18.1379H95.0585V15.9459C94.3782 17.2813 92.7657 18.4151 90.8256 18.4151ZM91.909 15.568C93.8239 15.568 95.1592 14.283 95.1592 11.6123V11.4108C95.1592 8.79044 94.0002 7.45509 92.0098 7.45509C89.969 7.45509 88.8352 8.84084 88.8352 11.4612V11.6627C88.8352 14.283 90.095 15.568 91.909 15.568ZM104.978 18.4151C102.585 18.4151 100.569 17.2561 100.569 14.4846C100.569 11.4108 103.391 10.2518 107.422 10.2518H108.909V9.72267C108.909 8.16056 108.43 7.30392 106.767 7.30392C105.331 7.30392 104.676 8.03458 104.525 9.16838H101.073C101.3 6.04415 103.769 4.6584 106.994 4.6584C110.219 4.6584 112.512 5.96856 112.512 9.54631V18.1379H108.959V16.5506C108.203 17.6088 107.044 18.4151 104.978 18.4151ZM106.062 15.8704C107.674 15.8704 108.909 14.9885 108.909 13.5272V12.4186H107.498C105.381 12.4186 104.147 12.8721 104.147 14.283C104.147 15.2405 104.726 15.8704 106.062 15.8704ZM116.437 22.6227L118.755 16.8026L113.515 4.96074H117.445L120.645 12.8721L123.593 4.96074H127.095L119.965 22.6227H116.437Z" fill="black" style="fill: rgb(0, 0, 0) !important;"/></g><defs style="fill: none !important;"><clipPath id="clip0_7396_3612" style="fill: none !important;"><rect width="127.98" height="22.833" fill="#000000" transform="translate(0 0.0834961)" style="fill: #000000 !important;"/></clipPath></defs></svg>