<svg xmlns="http://www.w3.org/2000/svg" width="163" height="44" viewBox="0 0 163 44">
  <path class="fill-white" d="M47.6228 23.1709C47.6103 22.3821 47.4937 21.6044 47.2765 20.8592C47.0426 20.0571 46.6975 19.2682 46.2483 18.5077C46.5318 16.7669 46.4194 14.9818 45.9126 13.1929C45.6295 12.1939 45.2227 11.217 44.7032 10.2891C44.2208 9.42733 43.6261 8.5814 42.9358 7.77481C42.1588 6.8669 41.2706 6.02014 40.2959 5.25808C39.391 4.55054 38.3814 3.89273 37.2953 3.3029C35.4236 2.28651 33.4073 1.49508 31.3024 0.950604C29.3228 0.438538 27.203 0.129221 25.0018 0.0312407C24.536 0.0105109 24.065 0 23.602 0C22.1313 0 20.655 0.105985 19.2141 0.315011C18.0068 0.490119 16.8246 0.732624 15.7004 1.03571C14.5244 1.35277 13.3733 1.74646 12.2792 2.20588C11.031 2.72994 9.85903 3.33354 8.79575 3.99991C7.65036 4.71774 6.58833 5.53496 5.63916 6.42888C4.88648 7.13773 4.21616 7.88451 3.6468 8.6485C3.02464 9.48334 2.49962 10.3697 2.08631 11.2829C0.840298 14.036 0.563565 16.808 1.26043 19.5341C0.92866 20.0494 0.664213 20.5554 0.458821 21.0667C0.305175 21.4492 0.0950746 22.0384 0.0443581 22.7364C-0.0378477 23.8673 0.0112502 24.5477 0.055296 24.9611C0.141794 25.7727 0.319449 26.486 0.598438 27.1417C0.825976 27.6765 1.12164 28.1678 1.48132 28.6094C1.48039 29.9671 1.5544 31.0892 1.71393 32.1373C2.14429 34.9652 3.47775 37.3614 5.67727 39.2595C6.72192 40.161 7.91721 40.9124 9.33144 41.5567C10.8362 42.2423 12.494 42.7682 14.3997 43.1648C16.6503 43.633 19.0039 43.8945 21.595 43.9643C22.4879 43.9883 23.3184 44 24.1341 44C26.4724 44 28.5842 43.9017 30.5901 43.6996C32.3506 43.5221 33.8116 43.2826 35.188 42.9455C36.9258 42.52 38.4177 41.9472 39.7491 41.1945C42.064 39.8858 43.7578 38.0137 44.7834 35.6303C45.3314 34.3567 45.7059 33.0063 45.9283 31.5018C46.1012 30.3327 46.1642 29.1394 46.1191 27.8716C46.3405 27.6392 46.5376 27.3874 46.709 27.1178C47.0351 26.6049 47.2672 26.0278 47.3989 25.4026C47.559 24.6427 47.6343 23.8918 47.6228 23.1709Z" style="fill: #000000 !important;"/>
  <path class="fill-black" d="M45.1627 21.4782C44.9292 20.6776 44.5689 19.9354 44.1121 19.2395C43.989 19.052 43.9412 18.8818 43.9902 18.6524C44.3388 17.019 44.2485 15.3993 43.7943 13.7962C43.3039 12.0653 42.4171 10.5481 41.2501 9.18459C39.8358 7.53207 38.1266 6.24125 36.2184 5.20502C32.6827 3.28493 28.8691 2.3724 24.8645 2.19413C23.0656 2.11406 21.2715 2.19846 19.4857 2.45751C17.2766 2.77797 15.1369 3.33785 13.0797 4.20159C10.8635 5.13213 8.83593 6.35614 7.08442 8.00569C5.80388 9.21168 4.74067 10.5795 4.01453 12.1839C2.91586 14.6114 2.66733 17.1039 3.49479 19.6642C3.5636 19.8771 3.51855 20.0278 3.39232 20.1991C3.00582 20.7234 2.6667 21.2767 2.42307 21.8833C2.28946 22.2159 2.18246 22.5548 2.15632 22.9144C2.11161 23.5297 2.09545 24.1458 2.1609 24.7599C2.27911 25.8689 2.63263 26.8769 3.47316 27.6674C3.52005 27.7115 3.55732 27.7656 3.59899 27.8149C3.59899 28.0774 3.59938 28.3364 3.59892 28.5955C3.59695 29.682 3.64318 30.7634 3.80728 31.8417C4.16403 34.1859 5.25669 36.1179 7.05303 37.668C7.99717 38.4827 9.05706 39.1181 10.1914 39.6349C11.6681 40.3077 13.215 40.763 14.802 41.0932C17.0479 41.5605 19.3237 41.7863 21.6128 41.8479C24.5224 41.9262 27.4308 41.8857 30.3313 41.5934C31.7797 41.4474 33.2163 41.2369 34.6301 40.8907C36.0311 40.5477 37.3808 40.07 38.6398 39.3582C40.5206 38.2949 41.9069 36.791 42.7578 34.8137C43.2541 33.6602 43.569 32.4547 43.7523 31.215C43.9404 29.9431 43.9731 28.6655 43.8925 27.3836C43.8835 27.2396 43.8913 27.0946 43.8913 26.9508C43.9633 26.8919 44.0233 26.8373 44.0888 26.7901C44.7138 26.3405 45.0891 25.7321 45.2457 24.9887C45.4934 23.8127 45.5019 22.6416 45.1627 21.4782ZM6.717 14.1279C7.09524 13.0956 7.6669 12.1752 8.37607 11.3358C9.36278 10.168 10.5439 9.22722 11.8474 8.43277C13.6592 7.32861 15.6189 6.5802 17.6781 6.07842C20.0281 5.5058 22.4162 5.29731 24.8293 5.41317C27.9122 5.56118 30.8795 6.21095 33.6792 7.53107C34.5385 7.93628 35.3401 8.43654 36.0637 9.05243C36.6415 9.5443 37.105 10.1253 37.4197 10.8174C37.8238 11.706 37.8873 12.6376 37.715 13.5796C37.3415 15.6214 36.2756 17.2387 34.5931 18.4639C33.7982 19.0427 32.9326 19.4956 32.029 19.8793C31.5186 20.096 30.9997 20.293 30.4873 20.505C30.3067 20.5797 30.1294 20.6649 29.9594 20.7606C29.8623 20.8153 29.772 20.8913 29.6981 20.9747C29.5915 21.0948 29.6093 21.2767 29.7499 21.3552C29.9029 21.4406 30.0735 21.5077 30.2448 21.5463C30.8254 21.6772 31.4169 21.6526 32.0032 21.6092C33.6211 21.4896 35.211 21.2064 36.7672 20.7483C38.0137 20.3815 39.1866 19.861 40.2382 19.0913C40.2897 19.0536 40.3493 19.0263 40.4068 18.9973C40.416 18.9926 40.4335 19.0039 40.4806 19.0175C40.4461 19.1049 40.4186 19.1924 40.3785 19.2738C39.9848 20.0716 39.4309 20.7465 38.762 21.3318C37.9716 22.0234 37.0825 22.5639 36.1368 23.0182C34.6729 23.7215 33.1311 24.197 31.5472 24.5407C29.74 24.9328 27.9093 25.1499 26.0619 25.2572C24.2302 25.3636 22.4009 25.3525 20.573 25.224C18.0719 25.0481 15.6072 24.6632 13.2187 23.8769C12.1306 23.5187 11.0798 23.0758 10.0887 22.5009C9.39479 22.0983 8.74668 21.634 8.16921 21.077C7.26852 20.2083 6.62611 19.1901 6.38369 17.9549C6.12772 16.6505 6.26065 15.3735 6.717 14.1279ZM40.9571 31.1856C40.7584 32.193 40.2848 33.0741 39.6195 33.8554C39.0012 34.5816 38.2576 35.1586 37.4362 35.6414C36.2177 36.3575 34.9022 36.836 33.5397 37.1951C32.0367 37.5911 30.5073 37.8375 28.9608 37.9956C26.9093 38.2054 24.8531 38.2869 22.7923 38.2553C21.0589 38.2287 19.3302 38.12 17.6138 37.87C15.8152 37.608 14.0511 37.2071 12.3645 36.5161C11.2564 36.0621 10.2119 35.4975 9.2831 34.7388C8.06839 33.7465 7.16964 32.5374 6.72161 31.0245C6.55035 30.4463 6.44963 29.8569 6.4603 29.2521C6.46194 29.1588 6.47874 29.0657 6.4901 28.9576C6.6432 28.9576 6.77156 28.9446 6.89647 28.9598C7.48314 29.0309 8.07175 29.0363 8.65901 28.994C10.1864 28.8839 11.5687 29.2781 12.8277 30.1314C13.5858 30.6453 14.2813 31.2343 14.9457 31.8596C15.4673 32.3505 15.9759 32.8549 16.4875 33.3561C17.0848 33.9411 17.7462 34.4377 18.5012 34.8071C19.3497 35.2222 20.2434 35.4561 21.1932 35.4392C22.0727 35.4235 22.9029 35.1988 23.6919 34.8177C24.3276 34.5107 24.9038 34.1153 25.4453 33.667C25.6333 33.5113 25.8212 33.3545 26.019 33.2114C26.9968 32.5039 28.0911 32.2969 29.2737 32.4798C29.9377 32.5826 30.5744 32.7891 31.2177 32.9728C31.8291 33.1474 32.4414 33.3269 33.0638 33.4536C33.7243 33.5881 34.3938 33.5846 35.0567 33.4158C35.7354 33.2429 36.2331 32.8543 36.4991 32.212C36.6534 31.8392 36.7582 31.4459 36.8795 31.06C36.9816 30.7356 37.0626 30.4042 37.1752 30.0836C37.4723 29.2385 38.0601 28.7022 38.9427 28.4932C39.6538 28.3248 40.3652 28.158 41.1056 27.9836C41.1293 28.084 41.1612 28.1582 41.1623 28.2328C41.1767 29.2225 41.1492 30.2116 40.9571 31.1856Z"/>
  <g class="fill-white theme-light:fill-black dark:fill-white!" style="fill: #000000 !important;">
    <path d="M116.609 20.5994C116.615 20.4036 116.624 20.2457 116.624 20.0877C116.625 18.1104 116.625 16.133 116.625 14.1557C116.625 14.0099 116.62 13.8633 116.632 13.7184C116.657 13.4264 116.788 13.2807 117.08 13.2233C117.191 13.2014 117.307 13.1991 117.421 13.1988C118.254 13.1969 119.088 13.1942 119.922 13.1989C120.571 13.2025 120.721 13.3568 120.729 14.0096C120.732 14.2365 120.729 14.4634 120.729 14.6903C120.729 21.3031 120.729 27.9158 120.729 34.5286C120.729 34.7065 120.735 34.8869 120.708 35.0617C120.661 35.3749 120.503 35.5118 120.185 35.5399C120.071 35.5499 119.956 35.5448 119.842 35.5449C119.123 35.5452 118.404 35.5453 117.684 35.545C116.799 35.5446 116.726 35.4728 116.723 34.6148C116.722 34.4209 116.712 34.2271 116.704 34.0334C116.703 34.0241 116.681 34.0158 116.641 33.9869C116.588 34.0232 116.52 34.0593 116.465 34.1097C115.439 35.0552 114.217 35.5952 112.844 35.8114C111.664 35.9973 110.496 35.9114 109.349 35.5927C106.817 34.8898 105.116 33.2651 104.201 30.8588C103.308 28.5127 103.31 26.1252 104.191 23.7717C104.929 21.8023 106.257 20.3367 108.209 19.4669C109.097 19.0714 110.034 18.862 111.005 18.8053C111.842 18.7564 112.668 18.8119 113.487 19.0074C114.473 19.2428 115.362 19.6635 116.15 20.295C116.264 20.3864 116.379 20.4771 116.494 20.5668C116.506 20.5759 116.525 20.5761 116.609 20.5994ZM107.753 27.5023C107.749 28.2522 107.934 29.2136 108.427 30.1028C108.937 31.0213 109.681 31.6784 110.683 32.0168C111.653 32.3444 112.644 32.3533 113.626 32.0656C114.77 31.7301 115.59 31.0003 116.124 29.9502C116.663 28.8897 116.793 27.7593 116.691 26.591C116.62 25.7886 116.399 25.0318 115.989 24.3341C115.52 23.5377 114.858 22.9623 113.997 22.6069C113.314 22.3256 112.604 22.2687 111.88 22.3106C110.319 22.4008 109.155 23.1242 108.4 24.4836C107.922 25.3433 107.755 26.2772 107.753 27.5023Z" style="fill: #000000 !important;"/>
    <path d="M127.114 33.944C127.114 34.2909 127.116 34.5169 127.114 34.7429C127.112 34.856 127.114 34.9711 127.094 35.0815C127.041 35.3648 126.886 35.505 126.6 35.5376C126.503 35.5486 126.404 35.5446 126.306 35.5446C125.505 35.5451 124.704 35.5449 123.903 35.5449C123.871 35.5449 123.838 35.5454 123.805 35.5446C123.267 35.5311 123.118 35.381 123.107 34.8392C123.105 34.742 123.107 34.6448 123.107 34.5475C123.107 27.7737 123.107 20.9999 123.107 14.226C123.107 14.064 123.1 13.9013 123.112 13.74C123.135 13.425 123.275 13.2721 123.589 13.2173C123.701 13.1978 123.817 13.1987 123.931 13.1985C124.748 13.197 125.565 13.207 126.382 13.1947C127.027 13.1849 127.22 13.3914 127.217 14.0342C127.207 16.0598 127.213 18.0856 127.214 20.1112C127.214 20.2675 127.226 20.4237 127.232 20.5682C127.366 20.6131 127.414 20.5313 127.47 20.4821C128.725 19.3867 130.206 18.8724 131.858 18.7963C132.847 18.7507 133.817 18.8606 134.762 19.151C136.898 19.8076 138.426 21.1744 139.375 23.1604C140.154 24.7924 140.403 26.5287 140.22 28.3249C140.128 29.2322 139.935 30.1179 139.592 30.9644C138.78 32.9638 137.424 34.4634 135.392 35.2841C133.645 35.9896 131.843 36.1053 130.014 35.6021C129.102 35.3513 128.29 34.9147 127.566 34.3136C127.445 34.2133 127.323 34.1146 127.114 33.944ZM127.061 27.2003C127.082 27.4911 127.098 27.7823 127.124 28.0726C127.202 28.9288 127.487 29.7157 127.964 30.4303C128.369 31.0368 128.901 31.5096 129.566 31.8239C130.663 32.3426 131.807 32.3953 132.958 32.0698C134.274 31.6978 135.136 30.8105 135.652 29.5734C136.089 28.5254 136.138 27.433 136.015 26.3244C135.936 25.6234 135.711 24.9656 135.356 24.355C134.883 23.5416 134.21 22.9552 133.329 22.5978C132.677 22.3334 132 22.2751 131.309 22.3072C129.605 22.3861 128.377 23.1925 127.618 24.7037C127.223 25.4894 127.086 26.3314 127.061 27.2003Z" style="fill: #000000 !important;"/>
    <path d="M72.3209 28.5432C72.5313 30.6619 74.0175 32.2346 76.1009 32.4447C77.9901 32.6353 79.6876 32.122 81.2467 31.0879C81.3824 30.9978 81.5108 30.8959 81.6509 30.8132C81.948 30.6378 82.1792 30.666 82.383 30.9344C82.8153 31.5039 83.2373 32.0814 83.651 32.6643C83.8226 32.9059 83.8045 33.105 83.5998 33.3257C83.4346 33.5037 83.2486 33.6651 83.0587 33.8178C81.9861 34.6799 80.7605 35.2256 79.4239 35.5472C78.5786 35.7506 77.7219 35.8616 76.8554 35.8984C75.6682 35.9489 74.5004 35.8053 73.3825 35.4083C70.8244 34.5001 69.2135 32.703 68.474 30.1287C68.0798 28.7566 67.963 27.3565 68.1803 25.9417C68.6425 22.9323 70.1936 20.6999 73.0457 19.4777C75.1054 18.5951 77.2444 18.5188 79.3624 19.2599C81.9357 20.1602 83.5011 21.9953 84.1534 24.6108C84.4075 25.6297 84.433 26.6623 84.3397 27.7015C84.3281 27.8303 84.2996 27.9575 84.28 28.0856C84.2398 28.3479 84.0707 28.484 83.8205 28.5175C83.6597 28.5391 83.4945 28.5315 83.3312 28.5316C79.8664 28.5322 76.4016 28.5319 72.9368 28.5325C72.7428 28.5325 72.5488 28.5391 72.3209 28.5432ZM80.3767 25.4121C80.1737 24.4025 79.7353 23.5598 78.972 22.8972C78.0777 22.1209 77.0133 21.9217 75.8642 22.0257C75.1982 22.0859 74.5941 22.3162 74.0524 22.6953C73.4101 23.1448 72.9564 23.7487 72.6487 24.4643C72.4229 24.9894 72.3919 25.1102 72.4312 25.4206C72.8418 25.4796 79.8476 25.4819 80.3767 25.4121Z" style="fill: #000000 !important;"/>
    <path d="M90.0493 28.5325C90.0656 28.7085 90.0659 28.8223 90.088 28.9318C90.1883 29.427 90.3539 29.9002 90.6006 30.343C91.2926 31.5854 92.374 32.2648 93.7748 32.4348C95.5669 32.6523 97.2066 32.193 98.7235 31.2545C98.9312 31.126 99.1273 30.9789 99.3342 30.849C99.6838 30.6296 99.9006 30.652 100.14 30.966C100.554 31.5087 100.957 32.0597 101.351 32.6166C101.564 32.9176 101.543 33.1395 101.271 33.3949C101.012 33.6396 100.734 33.8689 100.446 34.0805C99.3774 34.8652 98.1672 35.3354 96.8771 35.6123C95.5748 35.8918 94.2591 35.9971 92.9323 35.8282C89.0314 35.3317 86.8649 32.7784 86.1417 29.9032C85.8664 28.8091 85.7564 27.6993 85.8449 26.5775C85.9545 25.1882 86.3094 23.8646 87.0532 22.666C88.1839 20.844 89.7952 19.6561 91.8792 19.0994C93.444 18.6815 95.0103 18.6666 96.5734 19.0986C99.0092 19.7718 100.688 21.2886 101.587 23.6244C102.121 25.0112 102.248 26.4572 102.04 27.9294C102.033 27.9775 102.03 28.0263 102.02 28.0738C101.96 28.3606 101.823 28.4916 101.524 28.5239C101.378 28.5396 101.23 28.5322 101.083 28.5322C97.619 28.5325 94.1548 28.5325 90.6906 28.5325C90.4965 28.5325 90.3024 28.5325 90.0493 28.5325ZM98.0711 25.4138C98.0227 24.5938 97.4464 23.5358 96.7079 22.8978C95.8094 22.1216 94.7463 21.923 93.5969 22.0266C92.9306 22.0866 92.3268 22.3196 91.784 22.6988C91.1689 23.1286 90.7283 23.7033 90.4201 24.3818C90.1659 24.9415 90.1246 25.0961 90.1604 25.4265C90.4733 25.4652 97.3436 25.4973 97.8922 25.4596C97.9537 25.4554 98.0136 25.429 98.0711 25.4138Z" style="fill: #000000 !important;"/>
    <path d="M152.636 20.5016C152.737 20.4109 152.82 20.3353 152.904 20.2606C153.915 19.3599 155.111 18.8965 156.457 18.8045C157.36 18.7428 158.25 18.8278 159.125 19.0745C160.602 19.4913 161.644 20.4004 162.27 21.7823C162.669 22.6641 162.858 23.601 162.933 24.558C162.98 25.1549 162.995 25.7556 162.996 26.3546C163.002 29.0931 162.999 31.8316 162.998 34.5701C162.998 34.7319 163.004 34.8954 162.983 35.0551C162.941 35.3695 162.791 35.5052 162.468 35.5379C162.371 35.5478 162.272 35.5438 162.174 35.5438C161.34 35.5442 160.507 35.532 159.674 35.5481C159.061 35.5599 158.848 35.3949 158.854 34.7545C158.861 33.9768 158.855 33.1989 158.855 32.4211C158.855 30.4604 158.858 28.4998 158.854 26.5391C158.852 25.8588 158.864 25.1751 158.721 24.5055C158.654 24.1911 158.557 23.8788 158.436 23.5807C158.201 23.0038 157.76 22.6246 157.161 22.4602C156.354 22.2386 155.545 22.2516 154.756 22.5569C154.122 22.8021 153.655 23.2417 153.317 23.821C152.942 24.4617 152.726 25.1564 152.649 25.8881C152.594 26.419 152.559 26.9544 152.557 27.4879C152.547 29.8699 152.553 32.2519 152.552 34.6339C152.552 34.7796 152.557 34.9263 152.543 35.0709C152.517 35.3339 152.375 35.4834 152.115 35.5282C152.019 35.5447 151.92 35.5432 151.822 35.5433C150.94 35.5443 150.057 35.5307 149.175 35.5485C148.575 35.5606 148.415 35.2847 148.419 34.7883C148.431 33.168 148.423 31.5475 148.423 29.9271C148.423 26.6215 148.423 23.3159 148.424 20.0103C148.424 19.8484 148.417 19.6846 148.439 19.5252C148.476 19.2658 148.63 19.127 148.892 19.0928C148.973 19.0823 149.055 19.0812 149.137 19.0811C150.036 19.0803 150.934 19.0863 151.833 19.078C152.307 19.0736 152.583 19.1603 152.554 19.7952C152.544 20.0047 152.559 20.2154 152.565 20.4254C152.565 20.4362 152.583 20.4465 152.636 20.5016Z" style="fill: #000000 !important;"/>
    <path d="M60.676 16.8312C60.6188 17.3508 60.6257 24.506 60.6791 24.9164C60.8122 25.0265 60.9816 24.9863 61.1387 24.9867C62.3806 24.9899 63.6225 24.9885 64.8645 24.9886C65.0769 24.9886 65.2894 24.9876 65.5018 24.9893C65.5997 24.9901 65.6986 24.9888 65.7953 25.0015C66.1184 25.0442 66.2565 25.1828 66.2969 25.4995C66.3051 25.5634 66.3042 25.6288 66.3042 25.6936C66.3047 26.4227 66.3045 27.1519 66.3044 27.881C66.3044 27.9134 66.3052 27.9459 66.3035 27.9782C66.2804 28.4254 66.1288 28.5753 65.667 28.602C65.553 28.6085 65.4383 28.6044 65.3239 28.6044C63.9676 28.6046 62.6113 28.6041 61.2549 28.605C61.0768 28.6051 60.8986 28.6115 60.7424 28.6146C60.5858 28.7759 60.6394 28.9463 60.6389 29.1007C60.6347 30.5428 60.6365 31.9849 60.6364 33.427C60.6364 33.8969 60.6405 34.3669 60.6351 34.8367C60.6286 35.3881 60.486 35.5386 59.9445 35.5425C59.0131 35.5491 58.0816 35.5446 57.1502 35.5434C57.0688 35.5433 56.9857 35.5417 56.9064 35.5259C56.6728 35.4795 56.5338 35.3371 56.5006 35.0998C56.4827 34.9722 56.4844 34.8414 56.4844 34.712C56.4837 27.8255 56.4837 20.9391 56.4843 14.0527C56.4843 13.9232 56.4844 13.793 56.4973 13.6644C56.5212 13.4259 56.6603 13.2832 56.8948 13.2336C56.9742 13.2168 57.0554 13.2066 57.1363 13.1995C57.2012 13.1939 57.267 13.1973 57.3324 13.1973C61.287 13.1973 65.2416 13.1967 69.1962 13.1993C69.3578 13.1994 69.5224 13.2152 69.6802 13.2486C69.895 13.294 70.0128 13.4439 70.0386 13.6587C70.0502 13.7548 70.051 13.8526 70.0511 13.9497C70.052 14.6626 70.0517 15.3756 70.0514 16.0885C70.0514 16.1533 70.0528 16.2185 70.047 16.2829C70.0161 16.628 69.8803 16.7678 69.523 16.8032C69.361 16.8192 69.1967 16.8147 69.0334 16.8148C66.4515 16.8154 63.8695 16.8149 61.2876 16.8159C61.0942 16.8159 60.9008 16.8253 60.676 16.8312Z" style="fill: #000000 !important;"/>
    <path d="M141.907 27.2848C141.907 24.8699 141.907 22.4551 141.908 20.0402C141.908 19.8623 141.906 19.6827 141.928 19.5067C141.96 19.2553 142.09 19.132 142.337 19.0961C142.433 19.0821 142.532 19.0808 142.63 19.0807C143.529 19.0797 144.428 19.0802 145.327 19.0804C145.376 19.0804 145.425 19.0794 145.474 19.0829C145.844 19.1094 145.998 19.2545 146.037 19.6236C146.048 19.736 146.043 19.8503 146.043 19.9637C146.043 24.8582 146.043 29.7527 146.042 34.6472C146.042 34.8083 146.035 34.9715 146.009 35.1301C145.969 35.3668 145.808 35.494 145.575 35.5293C145.479 35.5439 145.38 35.5429 145.282 35.543C144.416 35.544 143.549 35.5462 142.683 35.5428C142.033 35.5403 141.909 35.4209 141.908 34.7723C141.905 32.2765 141.907 29.7806 141.907 27.2848Z" style="fill: #000000 !important;"/>
    <path d="M146.486 15.4156C146.483 16.787 145.511 17.5631 144.604 17.7579C144.021 17.8829 143.468 17.8336 142.923 17.6377C141.825 17.2431 141.204 16.0603 141.477 14.8808C141.685 13.9839 142.25 13.4109 143.138 13.1451C143.633 12.9968 144.129 12.98 144.633 13.0996C145.753 13.3651 146.483 14.2751 146.486 15.4156Z" style="fill: #000000 !important;"/>
  </g>
</svg>