<svg width="104" height="26" viewBox="0 0 104 26" fill="none" xmlns="http://www.w3.org/2000/svg" style="fill: none !important;"><path d="M5.22008 20.9677C4.71263 20.9664 4.21508 20.8255 3.78073 20.5602C3.34639 20.2949 2.9916 19.915 2.75438 19.4614C2.51716 19.0078 2.40644 18.4975 2.43408 17.9852C2.46171 17.4728 2.62667 16.9777 2.91127 16.5529L13.2953 1.14039C13.7262 0.555008 14.3641 0.160541 15.0757 0.0393284C15.7874 -0.081884 16.5178 0.079526 17.1146 0.489865C17.7114 0.900204 18.1283 1.52776 18.2785 2.24153C18.4286 2.9553 18.3003 3.70013 17.9203 4.32053L7.53628 19.733C7.27922 20.1144 6.93373 20.4263 6.52998 20.6415C6.12622 20.8567 5.67649 20.9687 5.22008 20.9677Z" fill="#151719" style="fill: rgb(21, 23, 25) !important;"/><path d="M10.823 2.89304L9.47907 1.42849C8.97395 0.877534 8.27306 0.552046 7.53061 0.52363C6.78815 0.495213 6.06494 0.766196 5.52007 1.27697C4.9752 1.78774 4.65331 2.49645 4.62521 3.2472C4.59711 3.99796 4.8651 4.72925 5.37022 5.28021L6.06936 6.04179L8.84317 5.83153L10.823 2.89304Z" fill="#151719" style="fill: rgb(21, 23, 25) !important;"/><path d="M17.9292 6.22436L20.981 5.99302C21.1361 5.98128 21.2916 5.98265 21.4458 5.99696C21.6066 6.01127 21.7669 6.03973 21.925 6.08256C22.6421 6.27692 23.2535 6.75137 23.6247 7.40156C23.9959 8.05174 24.0964 8.82439 23.9042 9.54953C23.712 10.2747 23.2428 10.8929 22.5998 11.2682L9.30461 19.0253L17.9292 6.22436Z" fill="#151719" style="fill: rgb(21, 23, 25) !important;"/><path d="M12.861 24C12.2618 24.001 11.6781 23.8077 11.1956 23.4484C10.7131 23.0891 10.3572 22.5829 10.1803 22.004L9.59983 20.0986L12.6467 18.3209L15.2453 19.3534L15.5453 20.3353C15.7638 21.0528 15.6916 21.8285 15.3447 22.4921C14.9978 23.1558 14.4046 23.653 13.6953 23.8747C13.4249 23.9582 13.1437 24.0004 12.861 24Z" fill="#151719" style="fill: rgb(21, 23, 25) !important;"/><path d="M20.0393 14.0077L13.8284 17.6315L18.9433 19.6638C19.2697 19.7908 19.6168 19.8543 19.9664 19.8509V19.849C20.6182 19.8487 21.2494 19.6184 21.7512 19.1978C22.2529 18.7772 22.5939 18.1927 22.7151 17.5452C22.8363 16.8977 22.7303 16.2276 22.4153 15.6507C22.1002 15.0737 21.596 14.626 20.9894 14.3848L20.0393 14.0077Z" fill="#151719" style="fill: rgb(21, 23, 25) !important;"/><path d="M8.07525 6.9713L4.04428 12.9542L3.01379 13.0324C2.94349 13.038 2.87319 13.0398 2.80289 13.0398C2.07782 13.0408 1.38066 12.7573 0.858204 12.2489C0.33575 11.7406 0.028776 11.047 0.00192225 10.3143C-0.0249315 9.58167 0.230431 8.86705 0.714236 8.32096C1.19804 7.77488 1.87254 7.43993 2.59569 7.38667L8.07525 6.9713Z" fill="#151719" style="fill: rgb(21, 23, 25) !important;"/><path d="M32.4258 20.5705V3.06018H43.4436V5.69028H35.1506V10.4766H42.3774V13.083H35.1506V20.5705H32.4258Z" fill="#151719" style="fill: rgb(21, 23, 25) !important;"/><path d="M47.1407 6.11678C46.1218 6.11678 45.3399 5.35856 45.3399 4.33969C45.3399 3.34452 46.1218 2.60999 47.1407 2.60999C48.1121 2.60999 48.8703 3.34452 48.8703 4.33969C48.8703 5.35856 48.1121 6.11678 47.1407 6.11678ZM48.3965 20.5705H45.7901V7.7991H48.3965V20.5705Z" fill="#151719" style="fill: rgb(21, 23, 25) !important;"/><path d="M58.6781 7.49107C62.327 7.49107 65.0519 10.4529 65.0519 14.1966C65.0519 17.9404 62.327 20.8785 58.6544 20.8785C56.7589 20.8785 55.3372 20.0018 54.3421 18.746V20.5705H51.7594V2.60999H54.3657V9.64728C55.3846 8.36777 56.7826 7.49107 58.6781 7.49107ZM58.3227 18.438C60.7869 18.438 62.3744 16.5187 62.3744 14.1729C62.3744 11.8509 60.7869 9.90792 58.3227 9.90792C55.8348 9.90792 54.2473 11.8746 54.2473 14.1729C54.2473 16.5187 55.8348 18.438 58.3227 18.438Z" fill="#151719" style="fill: rgb(21, 23, 25) !important;"/><path d="M79.6925 13.936C79.6925 14.4573 79.6451 14.8364 79.5977 15.1918H69.6224C69.9779 17.0163 71.2337 18.5327 73.8637 18.5327C75.3328 18.5327 77.0624 17.9641 78.1998 17.1585L79.2897 19.0777C78.1287 19.9781 76.0673 20.8548 73.7689 20.8548C68.959 20.8548 66.9213 17.5139 66.9213 14.1493C66.9213 10.3581 69.5277 7.49107 73.4372 7.49107C77.0151 7.49107 79.6925 9.88422 79.6925 13.936ZM73.4372 9.74206C71.4469 9.74206 70.0016 11.0926 69.6224 13.0593H77.0624C76.8492 11.0216 75.3565 9.74206 73.4372 9.74206Z" fill="#151719" style="fill: rgb(21, 23, 25) !important;"/><path d="M82.2565 20.5705V7.7991H84.7444V9.62358C85.5263 8.15452 86.7347 7.46738 88.3696 7.46738C88.8198 7.46738 89.3411 7.51477 89.886 7.68063L89.6491 10.2159C89.1752 10.0501 88.7013 9.979 88.2511 9.979C86.403 9.979 84.8629 11.1874 84.8629 14.0308V20.5705H82.2565Z" fill="#151719" style="fill: rgb(21, 23, 25) !important;"/><path d="M100.808 7.7991H103.675L98.391 21.7315C97.2537 24.7407 95.7846 25.9965 93.6284 25.9965C92.7518 25.9965 91.9935 25.807 91.4486 25.4516L91.8277 23.2006C92.3016 23.4138 92.8702 23.6034 93.4152 23.6034C94.434 23.6034 95.2396 23.011 95.9268 21.4235L96.3296 20.4757L90.7851 7.7991H93.7943L97.538 17.0163L100.808 7.7991Z" fill="#151719" style="fill: rgb(21, 23, 25) !important;"/></svg>