<svg
  viewBox="0 0 128 128"
  xmlns="http://www.w3.org/2000/svg"
>
  <path
    d="M79.86,78.19,103.69,102a1.56,1.56,0,0,0,2.67-1.1V77.08a1.56,1.56,0,0,0-1.56-1.56H81A1.56,1.56,0,0,0,79.86,78.19Z"
    fill="#f42534"
  />
  <path
    d="M58.35,75.52H4.12A1.56,1.56,0,0,0,3,78.19L30.13,105.3a1.56,1.56,0,0,0,2.21,0L59.45,78.19A1.56,1.56,0,0,0,58.35,75.52Z"
    fill="#d82237"
  />
  <path
    d="M66,116.32v-32a1.56,1.56,0,0,0-2.67-1.1l-32,32a1.56,1.56,0,0,0,1.1,2.67h32A1.56,1.56,0,0,0,66,116.32Z"
    fill="#c3002f"
  />
  <path
    d="M96.7,103.86,76,83.19a1.56,1.56,0,0,0-2.67,1.1v41.35a1.56,1.56,0,0,0,2.67,1.1L96.7,106.07A1.56,1.56,0,0,0,96.7,103.86Z"
    fill="#911a1d"
  />
  <path
    d="M81,69.27h42.12a1.56,1.56,0,0,0,1.1-2.67L103.13,45.55a1.56,1.56,0,0,0-2.21,0L79.86,66.61A1.56,1.56,0,0,0,81,69.27Z"
    fill="#a41f35"
  />
  <path
    d="M73.36,26.91V60.51A1.56,1.56,0,0,0,76,61.61L109.62,28a1.56,1.56,0,0,0-1.1-2.67H74.92A1.56,1.56,0,0,0,73.36,26.91Z"
    fill="#d6202a"
  />
  <path
    d="M19.68,30.61v37.1a1.56,1.56,0,0,0,1.56,1.56h37.1a1.56,1.56,0,0,0,1.1-2.67L22.35,29.5A1.56,1.56,0,0,0,19.68,30.61Z"
    fill="#ac162c"
  />
  <path
    d="M34.22,32.54,63.29,61.61A1.56,1.56,0,0,0,66,60.51V2.37a1.56,1.56,0,0,0-2.67-1.1L34.22,30.33A1.56,1.56,0,0,0,34.22,32.54Z"
    fill="#eb0029"
  />
</svg>
