<svg width="128" height="128" viewBox="0 0 128 128" fill="none" xmlns="http://www.w3.org/2000/svg">
<g clip-path="url(#clip0_240_6855)">
<path fill-rule="evenodd" clip-rule="evenodd" d="M101.553 26.3529C103.247 29.3646 102.306 33.1293 99.2943 35.0117L53.9296 61.5529V121.788C53.9296 125.176 51.1061 128 47.7179 128C44.3296 128 41.5061 125.176 41.5061 121.788V57.9764C41.5061 55.7176 42.6355 53.647 44.7061 52.5176L93.0826 24.094C96.0943 22.3999 99.859 23.3411 101.553 26.3529Z" fill="#4353FF"/>
<path fill-rule="evenodd" clip-rule="evenodd" d="M92.706 3.19996C94.4001 6.21172 93.4589 9.97643 90.4472 11.8588L28.8942 47.0588V105.6C28.8942 108.988 26.0707 111.812 22.6825 111.812C19.106 112 16.2825 109.176 16.2825 105.788V43.4823C16.2825 41.2235 17.4119 39.1529 19.4825 38.0235L84.0472 0.752899C87.0589 -0.941218 90.8236 0.188194 92.706 3.19996Z" fill="#4353FF"/>
<path fill-rule="evenodd" clip-rule="evenodd" d="M110.965 50.447C112.659 53.4588 111.529 57.2235 108.518 58.9176L78.9648 75.4823V105.6C78.9648 108.988 76.1413 111.812 72.753 111.812C69.3648 111.812 66.5413 108.988 66.5413 105.6V72.094C66.5413 69.8352 67.8589 67.7646 69.7413 66.6352L102.494 48.1882C105.506 46.494 109.271 47.4352 110.965 50.447Z" fill="#4353FF"/>
</g>
<defs>
<clipPath id="clip0_240_6855">
<rect width="95.4353" height="128" fill="white" transform="translate(16.2825)"/>
</clipPath>
</defs>
</svg>
