<svg width="200" height="33" viewBox="0 0 200 33" fill="none" xmlns="http://www.w3.org/2000/svg">
<path fill-rule="evenodd" clip-rule="evenodd" d="M27.7788 8.18066C26.628 8.18066 25.479 8.62026 24.6016 9.49766L22.7235 11.0666L20.8454 9.49766C19.968 8.62026 18.8189 8.18066 17.6681 8.18066C16.5191 8.18066 15.3683 8.62026 14.4909 9.49766C12.7361 11.2525 12.7361 14.0991 14.4909 15.8521L20.9722 22.0922C21.9497 23.0339 23.4972 23.0339 24.4747 22.0922L30.9578 15.8521C32.7126 14.0991 32.7126 11.2525 30.9578 9.49766C30.0804 8.62026 28.9296 8.18066 27.7788 8.18066Z" fill="url(#paint0_linear_174_6555)"/>
<path fill-rule="evenodd" clip-rule="evenodd" d="M42.3815 27.2995C42.3815 27.8571 41.9312 28.3074 41.3737 28.3074H4.0725C3.51497 28.3074 3.06644 27.8571 3.06644 27.2995V7.29083C3.06644 6.39914 4.1279 5.9381 4.77835 6.54745L9.53884 11.0042C9.95341 11.3937 10.6182 11.1971 10.7718 10.6485C10.8791 10.2715 11.0167 9.90338 11.1846 9.54956C11.4062 9.08138 11.2579 8.51848 10.8791 8.16466L7.1854 4.70509C6.52958 4.09037 6.96382 2.9896 7.86445 2.9896H37.58C38.4806 2.9896 38.9166 4.09216 38.259 4.70688L34.5671 8.16109C34.1901 8.51491 34.04 9.07959 34.2633 9.54777C34.4295 9.90159 34.5671 10.2679 34.6743 10.645C34.828 11.1918 35.4928 11.3884 35.9073 11.0006L40.6678 6.54567C41.3183 5.93631 42.3815 6.39735 42.3815 7.28726V27.2995ZM42.9141 0H2.53213C1.13294 0 0 1.13294 0 2.53213V28.7631C0 30.1622 1.13294 31.2952 2.53213 31.2952H42.9141C44.3132 31.2952 45.4462 30.1622 45.4462 28.7631V2.53213C45.4462 1.13294 44.3132 0 42.9141 0Z" fill="url(#paint1_linear_174_6555)"/>
<path fill-rule="evenodd" clip-rule="evenodd" d="M163.556 8.95705C162.76 8.56571 161.817 8.36914 160.727 8.36914C159.964 8.36914 159.244 8.47815 158.568 8.69616C157.893 8.91417 157.294 9.23046 156.77 9.64504C156.247 10.0578 155.8 10.5492 155.43 11.1157H155.201C154.765 10.1561 154.149 9.45919 153.354 9.02317C152.557 8.58715 151.613 8.36914 150.525 8.36914C149.783 8.36914 149.09 8.47815 148.447 8.69616C147.805 8.91417 147.226 9.23046 146.715 9.64504C146.202 10.0578 145.761 10.5492 145.389 11.1157H145.162L144.92 9.53815C144.852 9.09183 144.468 8.76227 144.016 8.76227H141.956C141.451 8.76227 141.042 9.17172 141.042 9.67679V25.0473C141.042 25.5524 141.451 25.9618 141.956 25.9618H144.671C145.176 25.9618 145.586 25.5524 145.586 25.0473V15.9227C145.586 15.1811 145.723 14.5288 145.995 13.9606C146.268 13.3941 146.649 12.9474 147.14 12.6203C147.63 12.2933 148.17 12.1289 148.759 12.1289C149.151 12.1289 149.505 12.1843 149.821 12.2933C150.137 12.4023 150.405 12.5703 150.623 12.799C150.841 13.0278 151.009 13.3351 151.129 13.7158C151.249 14.0964 151.309 14.561 151.309 15.1042V25.0473C151.309 25.5524 151.719 25.9618 152.224 25.9618H154.939C155.444 25.9618 155.854 25.5524 155.854 25.0473V15.9227C155.854 15.1811 155.991 14.5288 156.263 13.9606C156.536 13.3941 156.912 12.9474 157.392 12.6203C157.871 12.2933 158.416 12.1289 159.026 12.1289C159.397 12.1289 159.746 12.1843 160.073 12.2933C160.4 12.4023 160.673 12.5703 160.891 12.799C161.107 13.0278 161.277 13.3351 161.397 13.7158C161.517 14.0964 161.577 14.561 161.577 15.1042V25.0473C161.577 25.5524 161.987 25.9618 162.492 25.9618H165.209C165.714 25.9618 166.123 25.5524 166.123 25.0473V14.2876C166.123 12.8937 165.895 11.7537 165.435 10.8709C164.978 9.98813 164.351 9.35019 163.556 8.95705Z" fill="url(#paint2_linear_174_6555)"/>
<path fill-rule="evenodd" clip-rule="evenodd" d="M178.575 19.2589C178.575 19.7825 178.482 20.2721 178.298 20.7296C178.112 21.1889 177.856 21.5748 177.529 21.8911C177.202 22.2074 176.798 22.4594 176.318 22.6434C175.839 22.8293 175.294 22.9222 174.684 22.9222C174.161 22.9222 173.714 22.8454 173.342 22.6917C172.973 22.5398 172.688 22.3218 172.494 22.0377C172.297 21.7553 172.199 21.4176 172.199 21.0245C172.199 20.3275 172.476 19.7825 173.031 19.3894C173.587 18.998 174.345 18.7193 175.304 18.5549C176.264 18.3922 177.354 18.31 178.575 18.31V19.2589ZM183.464 22.5452C183.235 22.3611 183.121 22.0716 183.121 21.6785V13.8623C183.121 12.6418 182.831 11.6286 182.254 10.8226C181.675 10.0167 180.848 9.40558 179.768 8.99101C178.689 8.57643 177.354 8.36914 175.762 8.36914C174.281 8.36914 172.983 8.56571 171.872 8.95705C170.758 9.35019 169.899 9.91308 169.288 10.6422C168.677 11.373 168.373 12.2397 168.373 13.2422V13.6175C168.373 13.7994 168.536 13.9284 168.718 13.9284H172.429C172.645 13.9284 172.821 13.7532 172.821 13.5371C172.821 13.21 172.912 12.9098 173.098 12.6364C173.283 12.3648 173.598 12.1414 174.046 11.9663C174.491 11.793 175.076 11.7054 175.796 11.7054C176.514 11.7054 177.075 11.8144 177.479 12.0324C177.883 12.2504 178.165 12.5453 178.33 12.9152C178.492 13.2869 178.575 13.7211 178.575 14.2232V15.4991C176.94 15.4991 175.447 15.5849 174.095 15.76C172.744 15.9352 171.582 16.2443 170.612 16.6911C169.642 17.1378 168.895 17.7543 168.373 18.5406C167.849 19.325 167.588 20.3168 167.588 21.5159C167.588 22.5184 167.767 23.3404 168.128 23.9837C168.487 24.627 168.95 25.1184 169.517 25.4561C170.083 25.7939 170.689 26.028 171.332 26.1584C171.975 26.2906 172.579 26.355 173.146 26.355C174.063 26.355 174.874 26.2567 175.583 26.0601C176.291 25.8636 176.913 25.5919 177.447 25.2435C177.98 24.895 178.432 24.4912 178.803 24.0337H179.032C179.164 24.5126 179.393 24.9218 179.72 25.2596C180.047 25.5973 180.455 25.8582 180.946 26.044C181.436 26.2281 181.998 26.3228 182.629 26.3228C183.283 26.3228 183.839 26.2621 184.298 26.1423C184.479 26.0949 184.641 26.0483 184.785 26.0026C185.115 25.8975 185.312 25.5804 185.312 25.234V23.2812C185.312 23.0287 185.107 22.8239 184.854 22.8239H184.232C183.948 22.8239 183.693 22.731 183.464 22.5452Z" fill="url(#paint3_linear_174_6555)"/>
<path fill-rule="evenodd" clip-rule="evenodd" d="M187.363 25.0477C187.363 25.5528 187.773 25.9623 188.278 25.9623H190.995C191.5 25.9623 191.909 25.5528 191.909 25.0477V9.67721C191.909 9.17214 191.5 8.7627 190.995 8.7627H188.278C187.773 8.7627 187.363 9.17214 187.363 9.67721V25.0477Z" fill="url(#paint4_linear_174_6555)"/>
<path fill-rule="evenodd" clip-rule="evenodd" d="M194.061 25.0474C194.061 25.5525 194.47 25.9619 194.975 25.9619H197.692C198.197 25.9619 198.607 25.5525 198.607 25.0474V3.23483C198.607 2.72976 198.197 2.32031 197.692 2.32031H194.975C194.47 2.32031 194.061 2.72976 194.061 3.23483V25.0474Z" fill="url(#paint5_linear_174_6555)"/>
<path fill-rule="evenodd" clip-rule="evenodd" d="M61.874 25.0476C61.874 25.5526 62.2835 25.9621 62.7885 25.9621H65.8326C66.3376 25.9621 66.7471 25.5526 66.7471 25.0476V17.9489C66.7471 17.4438 67.1565 17.0344 67.6616 17.0344H76.2631C76.7682 17.0344 77.1776 16.625 77.1776 16.1199V13.9926C77.1776 13.4875 76.7682 13.078 76.2631 13.078H67.6616C67.1565 13.078 66.7471 12.6686 66.7471 12.1635V8.43331C66.7471 7.92823 67.1565 7.51879 67.6616 7.51879H77.5068C78.0119 7.51879 78.4214 7.10934 78.4214 6.60427V4.44479C78.4214 3.93972 78.0119 3.53027 77.5068 3.53027H62.7885C62.2835 3.53027 61.874 3.93972 61.874 4.44479V25.0476Z" fill="black"/>
<path fill-rule="evenodd" clip-rule="evenodd" d="M80.2451 25.0477C80.2451 25.5528 80.6546 25.9623 81.1596 25.9623H83.8766C84.3817 25.9623 84.7912 25.5528 84.7912 25.0477V9.67721C84.7912 9.17214 84.3817 8.7627 83.8766 8.7627H81.1596C80.6546 8.7627 80.2451 9.17214 80.2451 9.67721V25.0477Z" fill="black"/>
<path fill-rule="evenodd" clip-rule="evenodd" d="M100.317 8.99003C99.4668 8.57724 98.475 8.36816 97.3403 8.36816C96.513 8.36816 95.7499 8.47717 95.053 8.69518C94.3543 8.91498 93.7271 9.22948 93.1713 9.64406C92.6156 10.0586 92.142 10.5483 91.7489 11.1147H91.5202L91.2795 9.53784C91.2113 9.09122 90.8272 8.7613 90.3754 8.7613H88.3139C87.8089 8.7613 87.3994 9.17074 87.3994 9.67582V25.0481C87.3994 25.5532 87.8089 25.9627 88.3139 25.9627H91.0309C91.536 25.9627 91.9455 25.5532 91.9455 25.0481V15.9217C91.9455 15.1819 92.0974 14.5278 92.4029 13.9596C92.7085 13.3931 93.1338 12.9464 93.6788 12.6194C94.2238 12.2923 94.835 12.1297 95.5105 12.1297C95.9679 12.1297 96.3807 12.1833 96.7524 12.2923C97.1223 12.4031 97.4332 12.5818 97.6834 12.832C97.9354 13.084 98.1266 13.4003 98.257 13.7809C98.3875 14.1633 98.4536 14.6261 98.4536 15.1694V25.0481C98.4536 25.5532 98.863 25.9627 99.3681 25.9627H102.083C102.588 25.9627 102.998 25.5532 102.998 25.0481V14.451C102.998 13.0125 102.764 11.8456 102.296 10.9521C101.827 10.0586 101.168 9.40461 100.317 8.99003Z" fill="black"/>
<path fill-rule="evenodd" clip-rule="evenodd" d="M116.693 17.6891C116.693 18.7148 116.563 19.5958 116.302 20.3373C116.039 21.0789 115.642 21.6454 115.108 22.0385C114.572 22.4299 113.88 22.6264 113.032 22.6264C112.115 22.6264 111.384 22.4478 110.841 22.0868C110.294 21.7276 109.903 21.1879 109.663 20.4678C109.422 19.7494 109.302 18.8452 109.302 17.7552V17.0029C109.302 15.9128 109.422 15.0032 109.663 14.2706C109.903 13.5415 110.294 12.9965 110.841 12.6373C111.384 12.2781 112.115 12.0976 113.032 12.0976C113.662 12.0976 114.207 12.212 114.667 12.4407C115.124 12.6695 115.505 12.9965 115.81 13.4218C116.116 13.8471 116.339 14.376 116.48 15.0086C116.622 15.6412 116.693 16.3381 116.693 17.0994V17.6891ZM116.661 10.6573H116.464C116.116 10.157 115.696 9.73168 115.205 9.38322C114.715 9.03476 114.148 8.77744 113.505 8.61483C112.862 8.45221 112.17 8.37001 111.429 8.37001C110.099 8.37001 108.927 8.68452 107.914 9.31711C106.901 9.94969 106.104 10.9254 105.526 12.2442C104.949 13.5629 104.66 15.2588 104.66 17.3299C104.66 19.401 104.942 21.1022 105.51 22.4299C106.077 23.7612 106.877 24.7476 107.914 25.3909C108.948 26.0324 110.176 26.3541 111.593 26.3541C112.726 26.3541 113.752 26.1307 114.667 25.684C115.582 25.2372 116.321 24.5564 116.89 23.6414H117.118L117.358 25.188C117.427 25.6338 117.81 25.9627 118.261 25.9627H120.291C120.796 25.9627 121.205 25.5533 121.205 25.0482V3.23386C121.205 2.72878 120.796 2.31934 120.291 2.31934H117.575C117.07 2.31934 116.661 2.72878 116.661 3.23386V10.6573Z" fill="black"/>
<path fill-rule="evenodd" clip-rule="evenodd" d="M135.577 8.76172C135.176 8.76172 134.821 9.02364 134.703 9.40744L132.448 16.7405C132.362 17.0461 132.259 17.3999 132.139 17.8038C132.019 18.2076 131.898 18.6258 131.778 19.0618C131.658 19.4978 131.544 19.9231 131.435 20.3377C131.326 20.7523 131.228 21.1115 131.142 21.417H130.977C130.868 20.9596 130.727 20.4306 130.552 19.8302C130.377 19.2316 130.209 18.6526 130.045 18.0968C129.882 17.5411 129.734 17.0783 129.605 16.7084L126.883 9.35862C126.75 8.99986 126.408 8.76172 126.025 8.76172H123.195C122.551 8.76172 122.109 9.40989 122.344 10.0097L128.59 25.9613C128.438 26.4188 128.199 26.8494 127.87 27.2533C127.543 27.6571 127.162 27.9841 126.726 28.2343C126.29 28.4845 125.799 28.6096 125.256 28.6096H123.717C123.464 28.6096 123.26 28.8143 123.26 29.0668V31.3389C123.26 31.5436 123.396 31.7222 123.595 31.7698C123.772 31.8121 124.004 31.8656 124.291 31.9298C124.823 32.0495 125.495 32.1085 126.301 32.1085C127.327 32.1085 128.226 31.9298 128.999 31.5706C129.773 31.2114 130.443 30.7093 131.01 30.066C131.576 29.4227 132.073 28.6811 132.498 27.843C132.923 27.0031 133.301 26.1042 133.626 25.1446L139.043 9.98397C139.256 9.38837 138.814 8.76172 138.182 8.76172H135.577Z" fill="black"/>
<path fill-rule="evenodd" clip-rule="evenodd" d="M189.636 1.29004C188.124 1.29004 186.898 2.5159 186.898 4.02768C186.898 5.53945 188.124 6.7671 189.636 6.7671C191.147 6.7671 192.373 5.53945 192.373 4.02768C192.373 2.5159 191.147 1.29004 189.636 1.29004Z" fill="url(#paint6_linear_174_6555)"/>
<path fill-rule="evenodd" clip-rule="evenodd" d="M82.5179 1.29004C81.0061 1.29004 79.7803 2.5159 79.7803 4.02768C79.7803 5.53945 81.0061 6.7671 82.5179 6.7671C84.0297 6.7671 85.2555 5.53945 85.2555 4.02768C85.2555 2.5159 84.0297 1.29004 82.5179 1.29004Z" fill="black"/>
<defs>
<linearGradient id="paint0_linear_174_6555" x1="20.5769" y1="8.68821" x2="24.6922" y2="23.0919" gradientUnits="userSpaceOnUse">
<stop stop-color="#F04249"/>
<stop offset="0.289072" stop-color="#DE2337"/>
<stop offset="1" stop-color="#B91C1C"/>
</linearGradient>
<linearGradient id="paint1_linear_174_6555" x1="22.7231" y1="0" x2="22.7231" y2="31.2952" gradientUnits="userSpaceOnUse">
<stop stop-color="#18181B"/>
<stop offset="1"/>
</linearGradient>
<linearGradient id="paint2_linear_174_6555" x1="153.582" y1="8.36914" x2="153.582" y2="25.9618" gradientUnits="userSpaceOnUse">
<stop stop-color="#E3243B"/>
<stop offset="1" stop-color="#F04249"/>
</linearGradient>
<linearGradient id="paint3_linear_174_6555" x1="176.45" y1="8.36914" x2="176.45" y2="26.355" gradientUnits="userSpaceOnUse">
<stop stop-color="#E3243B"/>
<stop offset="1" stop-color="#F04249"/>
</linearGradient>
<linearGradient id="paint4_linear_174_6555" x1="189.636" y1="8.7627" x2="189.636" y2="25.9623" gradientUnits="userSpaceOnUse">
<stop stop-color="#E3243B"/>
<stop offset="1" stop-color="#F04249"/>
</linearGradient>
<linearGradient id="paint5_linear_174_6555" x1="196.334" y1="2.32031" x2="196.334" y2="25.9619" gradientUnits="userSpaceOnUse">
<stop stop-color="#E3243B"/>
<stop offset="1" stop-color="#F04249"/>
</linearGradient>
<linearGradient id="paint6_linear_174_6555" x1="189.636" y1="1.29004" x2="189.636" y2="6.7671" gradientUnits="userSpaceOnUse">
<stop stop-color="#E3243B"/>
<stop offset="1" stop-color="#F04249"/>
</linearGradient>
</defs>
</svg>
