<svg width="748" height="114" viewBox="0 0 748 114" fill="none" xmlns="http://www.w3.org/2000/svg">
<g clip-path="url(#clip0_22_28)">
<g filter="url(#filter0_i_22_28)">
<path d="M78.1719 69.429C78.1599 68.043 77.9779 66.592 77.5219 65.29C75.9119 60.7 71.1629 58.052 66.3969 58.933C61.7329 59.798 58.3089 63.9 58.3009 68.753C58.2839 81.007 58.2899 93.261 58.2919 105.514C58.2694 107.441 57.4882 109.281 56.1178 110.635C54.7474 111.99 52.8983 112.749 50.9714 112.749C49.0446 112.749 47.1954 111.99 45.825 110.635C44.4546 109.281 43.6734 107.441 43.6509 105.514C43.6479 93.008 43.6399 80.504 43.6769 67.998C43.6809 66.321 43.8949 64.615 44.2389 62.971C46.6999 51.166 57.8769 42.836 70.0069 43.709C82.0929 44.578 92.0809 54.318 92.6549 66.333C92.8889 71.2 92.9419 79.573 92.9539 85.708C92.9619 89.852 89.5059 93.31 85.3619 93.31C81.4139 93.31 78.1869 90.162 78.1719 86.215C78.1509 80.619 78.2229 75.021 78.1719 69.425" fill="#F95828"/>
<path d="M129.536 93.313C125.536 93.313 122.378 90.177 122.374 86.179C122.368 80.817 122.358 73.725 122.3 69.594C122.255 66.551 122.105 63.471 121.584 60.48C116.552 31.826 90.828 12.54 61.995 15.71C37.367 18.413 17.451 38.244 14.549 62.978C14.124 66.574 11.219 69.364 7.59696 69.364H7.05196C2.88296 69.364 -0.353036 65.986 0.0309635 61.836C0.190964 60.114 0.377964 58.453 0.582964 57.292C7.75796 16.788 49.287 -8.77 88.443 3.832C115.109 12.415 130.938 31.188 136.14 58.779C136.876 62.687 136.999 76.959 137 85.886C137.001 90.004 133.654 93.313 129.536 93.313Z" fill="#F95828"/>
<path d="M100.072 68.94C100.071 68.94 100.071 68.9399 100.07 68.9396C100.07 68.9394 100.069 68.939 100.069 68.9385C100.068 68.938 100.068 68.9374 100.068 68.9368C100.068 68.9362 100.068 68.9356 100.068 68.935C100.052 67.203 99.9749 65.458 99.7479 63.745C97.3399 45.672 79.5179 33.192 61.7039 37.072C46.6799 40.346 36.3769 53.177 36.3479 68.725C36.3249 80.965 36.3409 93.204 36.3459 105.443C36.3465 107.371 35.586 109.221 34.2296 110.591C32.8733 111.962 31.0308 112.741 29.1029 112.76C28.1358 112.77 27.1763 112.587 26.2799 112.224C25.3836 111.861 24.5681 111.323 23.8806 110.643C23.1932 109.962 22.6473 109.153 22.2745 108.26C21.9018 107.368 21.7095 106.41 21.7089 105.443C21.7009 93.345 21.6839 81.248 21.7489 69.153C21.7599 66.304 22.0269 63.427 22.4879 60.61C26.5779 35.666 51.3979 18.296 76.2679 22.903C98.8759 27.093 114.713 46.109 114.721 69.073C114.721 74.316 114.775 94.418 114.821 105.548C114.838 109.635 111.439 113.06 107.351 113.06C105.46 113.06 103.646 112.311 102.307 110.976C100.968 109.642 100.212 107.831 100.205 105.94L100.076 68.943C100.076 68.941 100.075 68.94 100.072 68.94Z" fill="#F95828"/>
</g>
</g>
<path d="M169.24 37.9119V43.5455H161V55.0133H169.24V93.0376H182.707V55.0133H193.861V43.5455H182.707V38.1135C182.707 32.5811 186.626 31.2732 189.64 31.2732C191.851 31.2732 193.157 31.5751 193.861 31.7757V20.5095C192.755 20.006 190.042 19.5035 187.228 19.5035C176.275 19.5035 169.24 26.7459 169.24 37.9119Z" fill="#000000"/>
<path d="M206.222 19C201.7 19 197.982 22.722 197.982 27.3497C197.982 31.7757 201.7 35.4977 206.222 35.4977C210.845 35.4977 214.462 31.7757 214.462 27.3497C214.462 22.722 210.845 19 206.222 19Z" fill="#000000"/>
<path d="M212.955 43.5455H199.59V93.0376H212.955V43.5455Z" fill="#000000"/>
<path d="M250.941 42.2376C245.615 42.2376 239.687 44.5514 236.672 49.6816V43.5455H223.708V93.0376H237.074V64.5696C237.074 58.8356 240.49 54.3093 246.319 54.3093C252.75 54.3093 255.463 58.634 255.463 64.1674V93.0376H268.829V61.8536C268.829 50.9895 263.201 42.2376 250.941 42.2376Z" fill="#000000"/>
<path d="M312.446 49.3798C310.739 46.0599 306.216 42.6398 298.378 42.6398C284.812 42.6398 275.366 53.7055 275.366 66.7831C275.366 80.6641 285.214 90.8241 298.378 90.8241C305.513 90.8241 310.134 87.7059 312.144 84.4874V88.1081C312.144 97.6653 307.422 101.89 298.98 101.89C292.65 101.89 288.328 97.9672 287.424 92.5351L275.366 95.7537C276.772 105.21 285.817 113.66 299.383 113.66C317.974 113.66 325.31 101.286 325.31 87.7059V43.5455H312.446V49.3798ZM300.689 79.3572C293.755 79.3572 288.831 74.528 288.831 66.7831C288.831 59.1376 294.057 54.3093 300.689 54.3093C307.122 54.3093 312.347 59.1376 312.347 66.7831C312.347 74.4277 307.523 79.3572 300.689 79.3572Z" fill="#000000"/>
<path d="M355.962 42.036C343.3 42.036 331.642 52.2973 331.642 68.0899C331.642 84.7893 343.601 94.546 357.168 94.546C369.326 94.546 377.166 87.404 379.677 78.8537L368.523 75.5339C366.915 79.96 363.498 83.0793 357.268 83.0793C350.636 83.0793 345.109 78.3512 344.808 71.8119H380.18C380.18 71.6114 380.381 69.5994 380.381 67.6878C380.381 51.7939 371.237 42.036 355.962 42.036ZM345.109 62.6579C345.411 58.1315 349.229 52.9011 356.163 52.9011C363.8 52.9011 367.016 57.7293 367.217 62.6579H345.109Z" fill="#000000"/>
<path d="M400.382 50.8892V43.5455H387.419V93.0376H400.784V70.4038C400.784 59.7413 406.713 56.4215 413.546 56.4215C414.752 56.4215 416.059 56.5218 417.566 56.8237V43.3439C416.561 43.2436 415.556 43.1433 414.451 43.1433C410.23 43.1433 403.396 44.3499 400.382 50.8892Z" fill="#000000"/>
<path d="M441.886 28.7578H429.826V35.6994C429.826 40.1254 427.415 43.5455 422.19 43.5455H419.677V55.4155H428.621V78.4515C428.621 88.0078 434.65 93.7416 444.298 93.7416C448.216 93.7416 450.629 93.0376 451.834 92.5351V81.4694C451.132 81.67 449.323 81.8716 447.715 81.8716C443.896 81.8716 441.886 80.4634 441.886 76.1377V55.4155H451.834V43.5455H441.886V28.7578Z" fill="#000000"/>
<path d="M473.039 43.5455H459.673V93.0376H473.039V43.5455Z" fill="#000000"/>
<path d="M466.306 19C461.783 19 458.065 22.722 458.065 27.3497C458.065 31.7757 461.783 35.4977 466.306 35.4977C470.928 35.4977 474.546 31.7757 474.546 27.3497C474.546 22.722 470.928 19 466.306 19Z" fill="#000000"/>
<path d="M511.929 42.4392C504.492 42.4392 498.966 45.758 496.755 49.5813V43.5455H483.792V112.15H497.157V88.2094C499.569 91.5291 504.594 94.2451 511.427 94.2451C525.395 94.2451 534.741 83.1795 534.741 68.1912C534.741 53.5039 526.4 42.4392 511.929 42.4392ZM509.316 82.2738C502.482 82.2738 496.956 77.0434 496.956 68.2915C496.956 59.5397 502.482 54.4096 509.316 54.4096C516.15 54.4096 521.577 59.5397 521.577 68.2915C521.577 77.1437 516.15 82.2738 509.316 82.2738Z" fill="#000000"/>
<path d="M548.412 75.4337C543.387 75.4337 539.268 79.5578 539.268 84.5877C539.268 89.6175 543.387 93.7417 548.412 93.7417C553.538 93.7417 557.657 89.6175 557.657 84.5877C557.657 79.5578 553.538 75.4337 548.412 75.4337Z" fill="#000000"/>
<path d="M588.21 82.2738C581.377 82.2738 575.548 77.244 575.548 68.2915C575.548 59.3392 581.276 54.4096 588.109 54.4096C594.741 54.4096 597.857 58.634 599.063 62.7592L611.021 58.7354C608.91 50.3857 601.274 42.036 587.808 42.036C573.438 42.036 562.183 53.0014 562.183 68.2915C562.183 83.4814 573.639 94.546 588.21 94.546C601.374 94.546 609.112 86.0971 611.322 77.8478L599.566 73.9252C598.46 77.7475 595.043 82.2738 588.21 82.2738Z" fill="#000000"/>
<path d="M639.362 42.036C624.59 42.036 613.436 53.0014 613.436 68.2915C613.436 83.4814 624.59 94.546 639.362 94.546C654.135 94.546 665.289 83.4814 665.289 68.2915C665.289 53.0014 654.135 42.036 639.362 42.036ZM639.362 82.3752C632.83 82.3752 626.801 77.5459 626.801 68.2915C626.801 58.9359 632.83 54.208 639.362 54.208C645.894 54.208 651.924 58.9359 651.924 68.2915C651.924 77.6472 645.894 82.3752 639.362 82.3752Z" fill="#000000"/>
<path d="M729.908 42.1373C723.377 42.1373 718.151 44.3499 714.233 50.3857C711.719 45.0539 706.293 42.1373 699.561 42.1373C694.135 42.1373 687.804 44.752 685.09 49.5813V43.5455H672.327V93.0376H685.693V64.0671C685.693 58.634 689.11 54.3093 694.938 54.3093C700.968 54.3093 703.681 58.3332 703.681 63.6639V93.0376H716.946V64.0671C716.946 58.7354 720.362 54.3093 726.091 54.3093C732.22 54.3093 734.833 58.3332 734.833 63.6639V93.0376H747.796V60.9479C747.796 47.6697 739.054 42.1373 729.908 42.1373Z" fill="#000000"/>
<defs>
<filter id="filter0_i_22_28" x="0" y="0.597443" width="137" height="120.642" filterUnits="userSpaceOnUse" color-interpolation-filters="sRGB">
<feFlood flood-opacity="0" result="BackgroundImageFix"/>
<feBlend mode="normal" in="SourceGraphic" in2="BackgroundImageFix" result="shape"/>
<feColorMatrix in="SourceAlpha" type="matrix" values="0 0 0 0 0 0 0 0 0 0 0 0 0 0 0 0 0 0 127 0" result="hardAlpha"/>
<feOffset dy="8.179"/>
<feGaussianBlur stdDeviation="5.112"/>
<feComposite in2="hardAlpha" operator="arithmetic" k2="-1" k3="1"/>
<feColorMatrix type="matrix" values="0 0 0 0 1 0 0 0 0 1 0 0 0 0 1 0 0 0 0.46 0"/>
<feBlend mode="normal" in2="shape" result="effect1_innerShadow_22_28"/>
</filter>
<clipPath id="clip0_22_28">
<rect width="137" height="114" fill="#000000"/>
</clipPath>
</defs>
</svg>
