<?xml version="1.0" encoding="UTF-8" standalone="no"?>
<!DOCTYPE svg PUBLIC "-//W3C//DTD SVG 1.1//EN" "http://www.w3.org/Graphics/SVG/1.1/DTD/svg11.dtd">
<svg xmlns="http://www.w3.org/2000/svg" version="1.1" viewBox="0.00 0.00 256.00 256.00">
<g stroke-width="2.00" fill="none" stroke-linecap="butt">
<path stroke="#88a2eb" vector-effect="non-scaling-stroke" d="
  M 27.97 127.27
  C 27.82 147.46 33.73 166.67 45.86 182.73
  C 65.17 208.30 95.41 220.80 127.27 221.04
  C 159.12 221.27 189.55 209.23 209.24 183.96
  C 221.61 168.08 227.80 148.96 227.96 128.77
  C 228.11 108.58 222.20 89.38 210.07 73.32
  C 190.76 47.75 160.52 35.25 128.66 35.01
  C 96.81 34.77 66.38 46.81 46.68 72.09
  C 34.32 87.97 28.12 107.08 27.97 127.27"
/>
<path stroke="#88a2eb" vector-effect="non-scaling-stroke" d="
  M 70.71 128.76
  C 71.05 154.15 85.26 175.75 109.90 183.13
  C 132.87 190.00 158.77 183.47 173.56 164.37
  C 181.98 153.51 185.48 140.77 185.30 127.24
  C 185.12 113.71 181.28 101.07 172.58 90.44
  C 157.28 71.74 131.22 65.90 108.44 73.38
  C 84.00 81.41 70.38 103.38 70.71 128.76"
/>
</g>
<path fill="#f2f6ff" d="
  M 203.22 0.00
  Q 227.36 2.05 242.81 20.40
  Q 252.25 31.60 254.86 46.03
  Q 255.45 49.28 256.00 52.52
  L 256.00 203.21
  Q 254.13 226.00 238.52 240.52
  Q 226.85 251.37 211.21 254.60
  Q 207.34 255.40 203.42 256.00
  L 52.81 256.00
  Q 29.89 254.11 15.36 238.39
  Q 4.61 226.75 1.40 211.21
  Q 0.60 207.35 0.00 203.45
  L 0.00 52.81
  C 2.20 23.99 23.91 2.73 52.60 0.00
  L 203.22 0.00
  Z
  M 27.97 127.27
  C 27.82 147.46 33.73 166.67 45.86 182.73
  C 65.17 208.30 95.41 220.80 127.27 221.04
  C 159.12 221.27 189.55 209.23 209.24 183.96
  C 221.61 168.08 227.80 148.96 227.96 128.77
  C 228.11 108.58 222.20 89.38 210.07 73.32
  C 190.76 47.75 160.52 35.25 128.66 35.01
  C 96.81 34.77 66.38 46.81 46.68 72.09
  C 34.32 87.97 28.12 107.08 27.97 127.27
  Z"
/>
<path fill="#1d4ed7" d="
  M 128.66 35.01
  C 160.52 35.25 190.76 47.75 210.07 73.32
  C 222.20 89.38 228.11 108.58 227.96 128.77
  C 227.80 148.96 221.61 168.08 209.24 183.96
  C 189.55 209.23 159.12 221.27 127.27 221.04
  C 95.41 220.80 65.17 208.30 45.86 182.73
  C 33.73 166.67 27.82 147.46 27.97 127.27
  C 28.12 107.08 34.32 87.97 46.68 72.09
  C 66.38 46.81 96.81 34.77 128.66 35.01
  Z
  M 70.71 128.76
  C 71.05 154.15 85.26 175.75 109.90 183.13
  C 132.87 190.00 158.77 183.47 173.56 164.37
  C 181.98 153.51 185.48 140.77 185.30 127.24
  C 185.12 113.71 181.28 101.07 172.58 90.44
  C 157.28 71.74 131.22 65.90 108.44 73.38
  C 84.00 81.41 70.38 103.38 70.71 128.76
  Z"
/>
<path fill="#f2f6ff" d="
  M 185.30 127.24
  C 185.48 140.77 181.98 153.51 173.56 164.37
  C 158.77 183.47 132.87 190.00 109.90 183.13
  C 85.26 175.75 71.05 154.15 70.71 128.76
  C 70.38 103.38 84.00 81.41 108.44 73.38
  C 131.22 65.90 157.28 71.74 172.58 90.44
  C 181.28 101.07 185.12 113.71 185.30 127.24
  Z"
/>
</svg>
