<?xml version="1.0" encoding="UTF-8" standalone="no"?>
<!DOCTYPE svg PUBLIC "-//W3C//DTD SVG 1.1//EN" "http://www.w3.org/Graphics/SVG/1.1/DTD/svg11.dtd">
<svg xmlns="http://www.w3.org/2000/svg" version="1.1" viewBox="0.00 0.00 45.00 44.00">
<path fill="#0052cc" d="
  M 20.22 17.75
  A 0.26 0.26 0.0 0 1 19.96 17.50
  L 19.96 17.31
  A 4.31 1.33 89.7 0 1 21.27 12.99
  L 24.73 12.97
  A 4.31 1.33 89.7 0 1 26.08 17.27
  L 26.08 17.46
  A 0.26 0.26 0.0 0 1 25.82 17.73
  L 20.22 17.75
  Z"
/>
<path fill="#0052cc" d="
  M 21.18 19.54
  L 22.07 23.82
  A 0.36 0.36 0.0 0 1 21.72 24.25
  L 15.91 24.25
  A 0.36 0.36 0.0 0 1 15.55 23.81
  L 16.48 19.53
  A 0.36 0.36 0.0 0 1 16.83 19.25
  L 20.83 19.25
  A 0.36 0.36 0.0 0 1 21.18 19.54
  Z"
/>
<path fill="#0052cc" d="
  M 29.60 19.65
  L 30.43 23.64
  A 0.51 0.51 0.0 0 1 29.93 24.25
  L 24.47 24.25
  A 0.51 0.51 0.0 0 1 23.97 23.63
  L 24.83 19.64
  A 0.51 0.51 0.0 0 1 25.33 19.24
  L 29.10 19.24
  A 0.51 0.51 0.0 0 1 29.60 19.65
  Z"
/>
<path fill="#0052cc" d="
  M 12.56 30.50
  A 0.28 0.28 0.0 0 1 12.28 30.23
  L 12.28 29.79
  A 4.30 1.32 89.9 0 1 13.60 25.48
  L 17.02 25.48
  A 4.30 1.32 89.9 0 1 18.34 29.77
  L 18.34 30.21
  A 0.28 0.28 0.0 0 1 18.06 30.50
  L 12.56 30.50
  Z"
/>
<path fill="#0052cc" d="
  M 20.26 30.51
  A 0.28 0.28 0.0 0 1 19.98 30.23
  L 19.98 29.99
  A 4.48 1.34 89.8 0 1 21.30 25.51
  L 24.72 25.49
  A 4.48 1.34 89.8 0 1 26.08 29.97
  L 26.08 30.21
  A 0.28 0.28 0.0 0 1 25.80 30.49
  L 20.26 30.51
  Z"
/>
<path fill="#0052cc" d="
  M 27.98 30.51
  A 0.28 0.28 0.0 0 1 27.70 30.24
  L 27.70 29.86
  A 4.36 1.32 89.9 0 1 29.02 25.49
  L 32.44 25.49
  A 4.36 1.32 89.9 0 1 33.76 29.84
  L 33.76 30.22
  A 0.28 0.28 0.0 0 1 33.48 30.51
  L 27.98 30.51
  Z"
/>
</svg>
