<svg width="149" height="27" viewBox="0 0 149 27" fill="none" xmlns="http://www.w3.org/2000/svg">
<path d="M0 20.7582V1.1218H13.0014V4.54474H4.15163V9.22372H12.1385V12.6467H4.15163V20.7582H0Z" fill="#242424"/>
<path d="M20.0718 1.1218V20.7582H15.9872V1.1218H20.0718Z" fill="#242424"/>
<path d="M30.3253 21.0458C28.8104 21.0458 27.5064 20.739 26.4134 20.1254C25.3268 19.5053 24.4894 18.6296 23.9013 17.4982C23.3133 16.3604 23.0192 15.0149 23.0192 13.4616C23.0192 11.9467 23.3133 10.6172 23.9013 9.47301C24.4894 8.32884 25.3172 7.43715 26.3846 6.79794C27.4585 6.15874 28.7177 5.83913 30.1623 5.83913C31.1339 5.83913 32.0384 5.99574 32.8758 6.30895C33.7195 6.61577 34.4546 7.07919 35.081 7.69922C35.7138 8.31925 36.206 9.09908 36.5576 10.0387C36.9091 10.9719 37.0849 12.065 37.0849 13.3178V14.4396H24.6492V11.9084H33.2401C33.2401 11.3203 33.1123 10.7994 32.8566 10.3455C32.6009 9.89169 32.2461 9.53693 31.7923 9.28125C31.3449 9.01918 30.8239 8.88814 30.2295 8.88814C29.6094 8.88814 29.0597 9.03196 28.5803 9.3196C28.1073 9.60085 27.7366 9.98118 27.4681 10.4606C27.1996 10.9336 27.0622 11.4609 27.0558 12.0426V14.4492C27.0558 15.1779 27.19 15.8075 27.4585 16.3381C27.7334 16.8686 28.1201 17.2777 28.6187 17.5653C29.1172 17.853 29.7085 17.9968 30.3925 17.9968C30.8463 17.9968 31.2618 17.9329 31.6389 17.805C32.016 17.6772 32.3388 17.4854 32.6073 17.2298C32.8758 16.9741 33.0803 16.6609 33.2209 16.2901L36.9986 16.5394C36.8069 17.4471 36.4138 18.2397 35.8193 18.9173C35.2312 19.5884 34.4706 20.1126 33.5373 20.4897C32.6105 20.8604 31.5398 21.0458 30.3253 21.0458Z" fill="#242424"/>
<path d="M43.1701 6.0309L45.8739 11.1797L48.6449 6.0309H52.8349L48.5682 13.3945L52.9499 20.7582H48.7791L45.8739 15.6669L43.0167 20.7582H38.7979L43.1701 13.3945L38.9513 6.0309H43.1701Z" fill="#242424"/>
<path d="M55.5306 20.7582V6.0309H59.6152V20.7582H55.5306ZM57.5825 4.13246C56.9752 4.13246 56.4543 3.93111 56.0196 3.52841C55.5914 3.11932 55.3772 2.63033 55.3772 2.06143C55.3772 1.49893 55.5914 1.01634 56.0196 0.613637C56.4543 0.204546 56.9752 0 57.5825 0C58.1897 0 58.7075 0.204546 59.1358 0.613637C59.5704 1.01634 59.7877 1.49893 59.7877 2.06143C59.7877 2.63033 59.5704 3.11932 59.1358 3.52841C58.7075 3.93111 58.1897 4.13246 57.5825 4.13246Z" fill="#242424"/>
<path d="M102.271 20.7582V6.0309H106.356V20.7582H102.271ZM104.323 4.13246C103.716 4.13246 103.195 3.93111 102.76 3.52841C102.332 3.11932 102.118 2.63033 102.118 2.06143C102.118 1.49893 102.332 1.01634 102.76 0.613637C103.195 0.204546 103.716 0 104.323 0C104.93 0 105.448 0.204546 105.876 0.613637C106.311 1.01634 106.528 1.49893 106.528 2.06143C106.528 2.63033 106.311 3.11932 105.876 3.52841C105.448 3.93111 104.93 4.13246 104.323 4.13246Z" fill="#242424"/>
<path d="M116.533 26.5877C115.209 26.5877 114.075 26.4055 113.129 26.0412C112.189 25.6832 111.441 25.1942 110.885 24.5742C110.329 23.9542 109.968 23.2575 109.802 22.484L113.579 21.9759C113.695 22.2699 113.877 22.5447 114.126 22.8004C114.375 23.0561 114.704 23.2607 115.114 23.4141C115.529 23.5739 116.034 23.6538 116.628 23.6538C117.517 23.6538 118.249 23.4364 118.824 23.0018C119.406 22.5735 119.697 21.8544 119.697 20.8445V18.1502H119.524C119.345 18.5593 119.077 18.946 118.719 19.3104C118.361 19.6747 117.901 19.9719 117.338 20.2021C116.776 20.4322 116.104 20.5472 115.325 20.5472C114.219 20.5472 113.212 20.2915 112.304 19.7802C111.403 19.2624 110.684 18.473 110.147 17.4119C109.616 16.3445 109.351 14.9957 109.351 13.3658C109.351 11.6974 109.623 10.304 110.166 9.18537C110.709 8.06676 111.432 7.2294 112.333 6.6733C113.241 6.11719 114.235 5.83913 115.315 5.83913C116.14 5.83913 116.83 5.97976 117.386 6.26101C117.942 6.53587 118.39 6.88104 118.728 7.29652C119.073 7.70561 119.339 8.10831 119.524 8.50462H119.677V6.0309H123.733V20.902C123.733 22.1548 123.426 23.2031 122.813 24.0469C122.199 24.8906 121.349 25.5234 120.262 25.9453C119.182 26.3736 117.939 26.5877 116.533 26.5877ZM116.619 17.479C117.277 17.479 117.833 17.3161 118.287 16.9901C118.747 16.6577 119.099 16.1847 119.342 15.571C119.591 14.951 119.716 14.2095 119.716 13.3466C119.716 12.4837 119.594 11.7358 119.352 11.103C119.109 10.4638 118.757 9.9684 118.297 9.61683C117.837 9.26527 117.277 9.08949 116.619 9.08949C115.948 9.08949 115.382 9.27166 114.922 9.63601C114.462 9.99396 114.113 10.4925 113.877 11.1317C113.64 11.771 113.522 12.5092 113.522 13.3466C113.522 14.1967 113.64 14.9318 113.877 15.5518C114.12 16.1655 114.468 16.6417 114.922 16.9805C115.382 17.3129 115.948 17.479 116.619 17.479Z" fill="#242424"/>
<path d="M131.338 12.244V20.7582H127.254V6.0309H131.146V8.62926H131.319C131.645 7.77273 132.191 7.09517 132.959 6.59659C133.726 6.09162 134.656 5.83913 135.749 5.83913C136.771 5.83913 137.663 6.06286 138.424 6.5103C139.184 6.95774 139.776 7.59695 140.198 8.42791C140.619 9.25249 140.83 10.2369 140.83 11.381V20.7582H136.746V12.1097C136.752 11.2085 136.522 10.5053 136.055 10.0004C135.589 9.48899 134.946 9.23331 134.128 9.23331C133.579 9.23331 133.093 9.35156 132.671 9.58807C132.255 9.82457 131.929 10.1697 131.693 10.6236C131.463 11.071 131.345 11.6112 131.338 12.244Z" fill="#242424"/>
<path d="M146.707 21.0075C146.074 21.0075 145.531 20.7837 145.077 20.3363C144.63 19.8825 144.406 19.3391 144.406 18.7063C144.406 18.0799 144.63 17.543 145.077 17.0955C145.531 16.6481 146.074 16.4244 146.707 16.4244C147.321 16.4244 147.858 16.6481 148.318 17.0955C148.778 17.543 149.008 18.0799 149.008 18.7063C149.008 19.1282 148.899 19.5149 148.682 19.8665C148.471 20.2116 148.193 20.4897 147.848 20.7006C147.503 20.9052 147.122 21.0075 146.707 21.0075Z" fill="#242424"/>
<path d="M75.3221 0.757812C73.1785 0.757812 71.1228 1.56451 69.6071 3.00045L64.6604 7.68675C63.1447 9.12268 62.2932 11.0702 62.2932 13.1009C62.2932 17.3297 65.9118 20.7578 70.3755 20.7578C72.519 20.7578 74.5747 19.9511 76.0904 18.5151L79.5121 15.2736C79.5121 15.2735 79.5121 15.2737 79.5121 15.2736L89.4815 5.82888C90.2054 5.14309 91.1872 4.75781 92.211 4.75781C93.9249 4.75781 95.378 5.81609 95.8818 7.28053L99.0281 4.29979C97.5928 2.17004 95.076 0.757812 92.211 0.757812C90.0674 0.757812 88.0117 1.56451 86.496 3.00045L73.1049 15.6867C72.381 16.3725 71.3992 16.7578 70.3755 16.7578C68.2436 16.7578 66.5154 15.1206 66.5154 13.1009C66.5154 12.1311 66.9221 11.2009 67.646 10.5151L72.5926 5.82888C73.3165 5.14309 74.2983 4.75781 75.3221 4.75781C77.0361 4.75781 78.4891 5.81613 78.9929 7.28062L82.1393 4.29986C80.7039 2.17008 78.1871 0.757812 75.3221 0.757812Z" fill="#1777F7"/>
<path d="M73.7306 15.6867C73.0234 16.3725 72.0642 16.7578 71.064 16.7578C69.3897 16.7578 67.3594 17.1509 66.8671 15.6867L64.4041 17.2163C65.8065 19.3457 68.2652 20.7578 71.064 20.7578C73.1582 20.7578 75.1666 19.9511 76.6474 18.5151L89.7302 5.82888C90.4374 5.14309 91.3966 4.75781 92.3968 4.75781C94.4796 4.75781 96.168 6.39504 96.168 8.41468C96.168 9.38455 95.7707 10.3147 95.0634 11.0005L90.2307 15.6867C89.5235 16.3725 88.5643 16.7578 87.5641 16.7578C85.8897 16.7578 84.4701 15.6996 83.9779 14.2353L80.904 17.216C82.3063 19.3457 84.7651 20.7578 87.5641 20.7578C89.6583 20.7578 91.6667 19.9511 93.1475 18.5151L97.9802 13.8289C99.461 12.3929 100.293 10.4454 100.293 8.41468C100.293 4.18591 96.7578 0.757812 92.3968 0.757812C90.3026 0.757812 88.2942 1.56451 86.8134 3.00045L73.7306 15.6867Z" fill="#1777F7"/>
</svg>
