<svg width="128" height="128" viewBox="0 0 128 128" fill="none" xmlns="http://www.w3.org/2000/svg">
<g clip-path="url(#clip0_240_6682)">
<path d="M0 34.3637C0 27.5274 1.96364 21.7092 6.18182 17.5637L13.4545 24.8364C5.38182 32.9092 12.4364 58.0001 35.4909 81.0546C58.5455 104.109 83.6364 111.164 91.7091 103.091L98.9818 110.364C85.3091 124.036 54.2545 114.291 28.2182 88.3274C10.1818 70.2183 0 49.7819 0 34.3637Z" fill="#009A46"/>
<path d="M45.8908 116.618C39.0545 116.618 33.2363 114.655 29.0908 110.436L36.3635 103.164C44.4363 111.236 69.5272 104.182 92.5817 81.1274C115.636 58.0728 122.691 32.9819 114.618 24.9092L121.891 17.6365C135.564 31.3092 125.818 62.3638 99.8545 88.4001C81.7454 106.436 61.2363 116.618 45.8908 116.618Z" fill="#FF5805"/>
<path d="M102.182 77.9999C97.7455 65.2726 88.7273 51.6726 76.8001 39.7453C50.7637 13.709 19.7092 4.03624 6.03643 17.6362C5.09098 18.6544 5.96371 21.0544 7.92734 23.0181C9.89098 24.9817 12.3637 25.8544 13.3092 24.909C21.3819 16.8362 46.4728 23.8908 69.5273 46.9453C80.4364 57.8544 88.5819 70.0726 92.5092 81.3453C95.9273 91.2362 95.6364 99.2362 91.6364 103.236C90.691 104.182 91.491 106.582 93.5274 108.618C95.5637 110.654 97.9637 111.454 98.9092 110.509C105.891 103.454 107.055 91.8908 102.182 77.9999Z" fill="#F5AFCB"/>
<path d="M121.818 17.6364C114.836 10.6545 103.273 9.4909 89.3816 14.2909C76.6543 18.7273 63.0543 27.7454 51.1271 39.6727C25.0907 65.7091 15.418 96.7636 29.0907 110.436C30.0362 111.382 32.5089 110.582 34.4725 108.545C36.4362 106.509 37.3089 104.109 36.3634 103.164C28.2907 95.0909 35.3453 70 58.3998 46.9454C69.3089 36.0364 81.5271 27.8909 92.7271 23.9636C102.618 20.5454 110.618 20.8364 114.618 24.8364C115.563 25.7818 117.963 24.9818 120 22.9454C122.036 20.9091 122.836 18.6545 121.818 17.6364Z" fill="#FF9B00"/>
</g>
<defs>
<clipPath id="clip0_240_6682">
<rect width="128" height="105.236" fill="white" transform="translate(0 11.3818)"/>
</clipPath>
</defs>
</svg>
