<?xml version="1.0" encoding="UTF-8" standalone="no"?>
<!DOCTYPE svg PUBLIC "-//W3C//DTD SVG 1.1//EN" "http://www.w3.org/Graphics/SVG/1.1/DTD/svg11.dtd">
<svg xmlns="http://www.w3.org/2000/svg" version="1.1" viewBox="0.00 0.00 32.00 32.00">
<path fill="#ed1653" d="
  M 19.87 0.00
  Q 26.77 0.47 32.00 2.96
  L 32.00 7.24
  L 31.68 10.17
  A 0.43 0.43 0.0 0 1 31.22 10.55
  L 28.84 10.37
  A 0.70 0.70 0.0 0 1 28.19 9.62
  L 28.50 5.46
  A 0.76 0.76 0.0 0 0 27.90 4.66
  Q 15.83 1.88 3.92 4.72
  A 0.68 0.68 0.0 0 0 3.40 5.45
  L 3.85 9.40
  A 0.35 0.35 0.0 0 0 4.23 9.71
  L 15.49 8.43
  A 0.37 0.36 82.2 0 1 15.90 8.75
  L 16.17 11.18
  A 0.49 0.49 0.0 0 1 15.74 11.73
  L 5.03 12.95
  A 0.50 0.49 -12.0 0 0 4.61 13.59
  Q 7.35 22.74 15.55 27.83
  A 0.97 0.96 44.3 0 0 16.58 27.82
  Q 20.88 25.09 24.14 20.69
  A 0.34 0.34 0.0 0 0 23.89 20.15
  L 16.46 19.60
  A 0.28 0.28 0.0 0 1 16.21 19.36
  L 15.94 16.92
  A 0.48 0.48 0.0 0 1 16.41 16.39
  Q 22.87 16.38 29.15 17.99
  A 0.34 0.34 0.0 0 1 29.37 18.47
  Q 24.98 27.21 16.19 32.00
  Q 16.13 31.99 16.07 32.00
  Q 1.48 24.32 0.00 8.06
  L 0.00 2.62
  Q 5.59 0.65 11.79 0.00
  L 19.87 0.00
  Z"
/>
</svg>
