<?xml version="1.0" encoding="UTF-8"?>
<svg id="Layer_2" data-name="Layer 2" xmlns="http://www.w3.org/2000/svg" xmlns:xlink="http://www.w3.org/1999/xlink" viewBox="0 0 507.11 194.41">
  <defs>
    <style>
      .cls-1 {
        mask: url(#mask);
      }

      .cls-2 {
        fill: #000000;
      }

      .cls-3 {
        fill: #111116;
      }
    </style>
    <mask id="mask" x="308.37" y="158.26" width="143.94" height="28.11" maskUnits="userSpaceOnUse">
      <g id="mask0_2046_26617" data-name="mask0 2046 26617">
        <path class="cls-2" d="M452.31,158.26h-143.94v28.11h143.94v-28.11Z"/>
      </g>
    </mask>
  </defs>
  <g id="LOGOS">
    <g>
      <g>
        <path class="cls-3" d="M127.16,53.85l54.52,24.5c11.93-16.09,4.86-36.62-15.82-45.93L93.75,0,21.61,32.42C.94,41.69-6.13,62.26,5.79,78.35l53.65-24.1,34.28-15.35,33.41,14.95h.03Z"/>
        <path class="cls-3" d="M127.16,107.52l54.52,24.5c11.93-16.09,4.86-36.62-15.82-45.93l-72.11-32.42L21.61,86.09C.94,95.36-6.13,115.93,5.79,132.02l53.65-24.1,34.28-15.35,33.41,14.95h.03Z"/>
        <path class="cls-3" d="M127.16,161.17l54.52,24.5c11.93-16.09,4.86-36.62-15.82-45.93l-72.11-32.42-72.11,32.42c-20.71,9.3-27.77,29.84-15.85,45.93l53.65-24.1,34.28-15.35,33.41,14.95h.03Z"/>
        <g>
          <path class="cls-3" d="M273.33,39.13v.93h20.03v23.09h-20.03v69.99h-24.37V63.15h-13.6v-23.09h13.6v-.93c0-25.7,14.35-40.78,44.37-38.92v23.09c-12.66-.93-20.03,3.15-20.03,15.83h.03Z"/>
          <path class="cls-3" d="M393.8,40.06v93.09h-24.37v-10.42c-5.67,8.37-15.49,13.03-28.15,13.03-20.03,0-35.69-13.77-35.69-38.54v-57.16h24.37v54.17c0,12.67,7.73,19.17,18.69,19.17,11.91,0,20.78-6.88,20.78-23.09v-50.27h24.37v.03Z"/>
          <path class="cls-3" d="M507.11,86.61c0,27.76-20.78,49.15-46.07,49.15-13.8,0-23.78-5.02-30.6-13.6v10.97h-24.37V2.81h24.37v48.22c6.79-8.56,16.8-13.6,30.6-13.6,25.31,0,46.07,21.42,46.07,49.15v.03ZM482.74,86.61c0-15.63-11.15-26.25-26.26-26.25s-26.06,10.61-26.06,26.25,11.13,26.25,26.06,26.25,26.26-10.61,26.26-26.25Z"/>
        </g>
      </g>
      <g>
        <g>
          <path class="cls-3" d="M260.93,186.38c-1.32,0-2.5-.26-3.53-.77-1.03-.51-1.88-1.27-2.55-2.27h-.37v2.44h-5.56v-27.8h5.56v10.99h.37c.68-1,1.53-1.75,2.55-2.23s2.2-.73,3.53-.73c1.75,0,3.31.42,4.69,1.27s2.45,2.04,3.23,3.58,1.16,3.31,1.16,5.31-.39,3.8-1.16,5.33-1.85,2.72-3.23,3.58-2.94,1.3-4.69,1.3ZM259.35,181.65c.97,0,1.85-.24,2.61-.71s1.37-1.13,1.82-1.97.68-1.77.68-2.8-.22-1.92-.66-2.76c-.44-.84-1.05-1.5-1.82-1.97-.78-.48-1.65-.71-2.63-.71s-1.85.24-2.63.71-1.38,1.13-1.82,1.97c-.44.84-.66,1.76-.66,2.76s.22,1.92.66,2.76c.44.84,1.04,1.5,1.82,1.99s1.65.73,2.63.73Z"/>
          <path class="cls-3" d="M276.31,194.41c-.65,0-1.34-.06-2.08-.17-.74-.11-1.37-.27-1.89-.47l.04-4.46c.43.2.9.34,1.43.43.53.09,1,.13,1.43.13.65,0,1.21-.13,1.67-.39.46-.26.86-.6,1.18-1.01.32-.41.62-.96.9-1.63.08-.13.14-.27.21-.43s.12-.31.17-.43l-9.08-19.36h5.97l5.14,12.2h.37l4.17-12.2h5.78l-7.43,19.85c-.03.05-.05.1-.08.15-.03.05-.05.1-.08.15-.67,1.78-1.34,3.2-2.01,4.26s-1.46,1.89-2.4,2.49-2.07.9-3.4.9Z"/>
        </g>
        <g>
          <g>
            <path class="cls-3" d="M324.89,164.07c.4-.09.82.07,1.06.4.4.54,1.02,1.38,1.48,2.01.34.46.24,1.11-.22,1.45-3.03,2.23-6.32,5.19-8.21,7.36-.05.05-.01.06.02.05,3.36-1.25,11.09-3.08,14.81-3.6v-4.64h0c0-.61-.28-1.19-.76-1.57l-.25-.2-11.73-9.27c-.73-.57-1.75-.57-2.48,0,0,0-8.55,6.74-11.99,9.46-.48.38-.76.96-.76,1.57v3.78c8.33-4,16.74-6.28,19.03-6.8Z"/>
            <path class="cls-3" d="M313.73,182.03c-.42.17-.89.06-1.18-.29-.49-.58-1.21-1.48-1.69-2.08-.31-.39-.3-.95.03-1.32,1.63-1.88,6.49-7.14,8.72-8.62.05-.03.04-.06-.02-.05-2.74.74-10.68,3.68-13.73,5.17v8.95c0,1.11.9,2,2,2h23.96c1.1,0,2-.9,2-2v-7.22c-4.08.58-14.73,3.22-20.09,5.46h0Z"/>
          </g>
          <g class="cls-1">
            <g>
              <path class="cls-3" d="M372.1,166.63h-5.57v19.15h5.57v-19.15Z"/>
              <g>
                <path class="cls-3" d="M341.66,185.79v-3.14l12.93-18.08v-.37h-12.71v-5h21.02v3.13l-12.7,18.08v.37h13.08v5h-21.62Z"/>
                <path class="cls-3" d="M376.11,185.79v-27.53h5.55v27.53h-5.55Z"/>
                <path class="cls-3" d="M385.67,185.79v-27.53h5.55v27.53h-5.55Z"/>
                <path class="cls-3" d="M393.71,176.22c0-6.15,4.22-10.14,10.62-10.14s10.62,3.99,10.62,10.14c0,6.19-4.26,10.14-10.62,10.14s-10.62-3.99-10.62-10.14ZM409.38,176.22c0-3.17-2.09-5.41-5.05-5.41s-5.09,2.24-5.09,5.41,2.09,5.44,5.09,5.44,5.05-2.27,5.05-5.44h0Z"/>
                <path class="cls-3" d="M420.7,185.79l-5.75-19.13h5.64l3.88,13.72h.37l3.4-13.72h5.53l3.66,13.72h.37l3.81-13.72h5.49l-5.79,19.13h-7.21l-2.91-12.67h-.37l-2.87,12.67h-7.24,0Z"/>
                <path class="cls-3" d="M449.83,165.09h-.24v-1.72h.81c.4,0,.67.21.67.52,0,.29-.25.5-.59.51h-.03l.68.69h-.3l-.64-.68h-.34v.68h0ZM449.83,163.56v.66h.57c.27,0,.43-.13.43-.33s-.16-.33-.43-.33h-.57Z"/>
                <path class="cls-3" d="M450.26,166.29c-.13,0-.27-.01-.41-.04-.81-.15-1.46-.8-1.62-1.62-.13-.69.07-1.37.56-1.86.49-.49,1.17-.7,1.86-.56.81.15,1.46.8,1.62,1.62.13.69-.07,1.37-.56,1.86-.39.39-.91.6-1.45.6h0ZM450.25,162.46c-.47,0-.91.18-1.25.52-.42.42-.6,1-.49,1.6.13.7.69,1.26,1.39,1.39.6.11,1.18-.06,1.6-.49.42-.42.6-1,.49-1.6-.13-.7-.69-1.26-1.39-1.39-.12-.02-.24-.03-.35-.03h0Z"/>
                <path class="cls-3" d="M366.33,161.21c0-1.66,1.24-2.9,2.98-2.9s2.98,1.23,2.98,2.9-1.24,2.9-2.98,2.9-2.98-1.2-2.98-2.9h0Z"/>
              </g>
            </g>
          </g>
        </g>
      </g>
    </g>
  </g>
</svg>