<svg width="187" height="26" viewBox="0 0 187 26" fill="none" xmlns="http://www.w3.org/2000/svg">
<g clip-path="url(#clip0_8997_442)">
<path d="M48.6804 20.136C46.5724 20.136 45.0594 19.048 44.3114 17.195C44.2604 17.059 44.3284 16.957 44.4304 16.906L45.1614 16.549C45.3144 16.481 45.4164 16.532 45.4674 16.651C46.1304 18.351 47.3204 19.014 48.6634 19.014C49.9894 19.014 50.9584 18.232 50.9584 16.974C50.9584 15.631 49.5474 15.155 48.0854 14.577C46.4704 13.948 44.7874 13.217 44.7874 11.109C44.7874 9.25599 46.1984 7.96399 48.2894 7.96399C50.1254 7.96399 51.4344 8.86499 52.1484 10.854C52.1994 10.99 52.1994 11.075 52.0634 11.126L51.2984 11.432C51.1794 11.483 51.0434 11.449 50.9924 11.313C50.4314 9.68099 49.4454 9.10299 48.2894 9.10299C47.1504 9.10299 46.1984 9.81699 46.1984 11.041C46.1984 12.333 47.3544 12.86 48.6634 13.387C50.3804 14.05 52.3864 14.679 52.3864 16.906C52.3864 18.776 50.8734 20.136 48.6804 20.136ZM56.7805 20.136C55.1485 20.136 54.0945 19.133 54.0945 17.807C54.0945 16.175 55.3355 15.291 57.3925 15.121L59.4495 14.951V14.356C59.4495 12.996 58.6845 12.299 57.5795 12.299C56.6955 12.299 55.9645 12.605 55.4035 13.659C55.3355 13.744 55.2335 13.744 55.1145 13.693L54.4345 13.387C54.3155 13.336 54.3155 13.217 54.3665 13.098C54.9615 11.993 56.0155 11.211 57.6815 11.211C59.5345 11.211 60.7925 12.367 60.7925 14.356V19.813C60.7925 19.915 60.7415 20 60.6055 20H59.6195C59.5175 20 59.4495 19.915 59.4495 19.813V18.742C58.9225 19.609 57.9535 20.136 56.7805 20.136ZM55.4205 17.705C55.4205 18.657 56.2195 19.065 57.1375 19.065C58.3275 19.065 59.4495 18.266 59.4495 16.957V16.039L57.6815 16.192C56.1685 16.328 55.4205 16.787 55.4205 17.705ZM66.0363 20.136C64.6083 20.136 63.8603 19.337 63.8603 18.096V9.20499H62.1773C62.0923 9.20499 62.0073 9.11999 62.0073 9.01799V8.26999C62.0073 8.16799 62.0923 8.09999 62.1773 8.09999H65.0673C65.1523 8.09999 65.2203 8.18499 65.2203 8.26999V17.875C65.2203 18.589 65.6453 19.014 66.3253 19.014C66.5973 19.014 66.8693 18.98 67.1753 18.861C67.2773 18.81 67.3453 18.895 67.3453 18.963L67.4303 19.728C67.4303 19.796 67.4473 19.864 67.3453 19.898C67.0733 20.051 66.5293 20.136 66.0363 20.136ZM75.3754 15.988H69.7144C69.8164 18.079 70.8024 19.014 72.1964 19.014C73.2164 19.014 73.9134 18.555 74.4064 17.637C74.4744 17.501 74.5594 17.501 74.6784 17.552L75.3584 17.807C75.5114 17.858 75.5454 17.943 75.4944 18.045C74.9844 19.184 73.8964 20.136 72.2134 20.136C70.0034 20.136 68.3884 18.504 68.3884 15.665C68.3884 12.843 69.9864 11.211 72.0434 11.211C74.1514 11.211 75.6474 12.843 75.6474 15.614C75.6474 15.852 75.5624 15.988 75.3754 15.988ZM72.0264 12.282C70.8534 12.282 69.9354 13.081 69.7484 14.934H74.3214C74.1174 13.081 73.2164 12.282 72.0264 12.282ZM80.1247 11.211C81.6547 11.211 82.7597 12.061 83.3377 13.234C83.3887 13.319 83.3547 13.438 83.2527 13.489L82.5217 13.846C82.4367 13.914 82.3517 13.863 82.2837 13.761C81.7567 12.741 81.0767 12.265 80.1757 12.265C79.3597 12.265 78.6627 12.707 78.6627 13.557C78.6627 14.492 79.6487 14.798 80.7367 15.121C82.0457 15.512 83.5077 15.92 83.5077 17.586C83.5077 19.218 82.0627 20.136 80.3287 20.136C78.6287 20.136 77.6087 19.337 77.0137 18.13C76.9627 18.028 76.9457 17.943 77.0817 17.875L77.8127 17.484C77.8977 17.433 77.9997 17.433 78.0507 17.535C78.5777 18.623 79.3597 19.065 80.2777 19.065C81.3487 19.065 82.1647 18.589 82.1647 17.654C82.1647 16.736 81.1447 16.481 80.0397 16.158C78.7477 15.801 77.3197 15.359 77.3197 13.659C77.3197 12.112 78.5947 11.211 80.1247 11.211ZM90.6329 19.779C90.6329 19.915 90.5479 20 90.4289 20H89.5619C89.4259 20 89.3409 19.915 89.3409 19.779V8.33799C89.3409 8.18499 89.4429 8.09999 89.5619 8.09999H90.9049C91.0579 8.09999 91.1089 8.15099 91.1769 8.32099L94.1009 14.781L97.0249 8.32099C97.1099 8.15099 97.1609 8.09999 97.3139 8.09999H98.6569C98.7759 8.09999 98.8779 8.20199 98.8779 8.37199V19.779C98.8779 19.915 98.8099 20 98.6739 20H97.7559C97.6199 20 97.5349 19.915 97.5349 19.779L97.5859 9.95299L94.5939 16.481C94.5599 16.583 94.4919 16.617 94.3729 16.617H93.7779C93.6589 16.617 93.6079 16.583 93.5569 16.481L90.6159 9.98699L90.6329 19.779ZM104.062 20.136C102.43 20.136 101.376 19.133 101.376 17.807C101.376 16.175 102.617 15.291 104.674 15.121L106.731 14.951V14.356C106.731 12.996 105.966 12.299 104.861 12.299C103.977 12.299 103.246 12.605 102.685 13.659C102.617 13.744 102.515 13.744 102.396 13.693L101.716 13.387C101.597 13.336 101.597 13.217 101.648 13.098C102.243 11.993 103.297 11.211 104.963 11.211C106.816 11.211 108.074 12.367 108.074 14.356V19.813C108.074 19.915 108.023 20 107.887 20H106.901C106.799 20 106.731 19.915 106.731 19.813V18.742C106.204 19.609 105.235 20.136 104.062 20.136ZM102.702 17.705C102.702 18.657 103.501 19.065 104.419 19.065C105.609 19.065 106.731 18.266 106.731 16.957V16.039L104.963 16.192C103.45 16.328 102.702 16.787 102.702 17.705ZM111.089 20C110.953 20 110.902 19.915 110.902 19.813V11.517C110.902 11.432 110.953 11.347 111.089 11.347H112.058C112.177 11.347 112.262 11.432 112.262 11.517V12.588C112.755 11.687 113.622 11.211 114.642 11.211C116.274 11.211 117.498 12.333 117.498 14.322V19.813C117.498 19.915 117.43 20 117.311 20H116.308C116.189 20 116.138 19.915 116.138 19.813V14.509C116.138 13.047 115.322 12.299 114.183 12.299C113.095 12.299 112.262 13.047 112.262 14.509V19.813C112.262 19.915 112.177 20 112.058 20H111.089ZM122.44 20.136C120.808 20.136 119.754 19.133 119.754 17.807C119.754 16.175 120.995 15.291 123.052 15.121L125.109 14.951V14.356C125.109 12.996 124.344 12.299 123.239 12.299C122.355 12.299 121.624 12.605 121.063 13.659C120.995 13.744 120.893 13.744 120.774 13.693L120.094 13.387C119.975 13.336 119.975 13.217 120.026 13.098C120.621 11.993 121.675 11.211 123.341 11.211C125.194 11.211 126.452 12.367 126.452 14.356V19.813C126.452 19.915 126.401 20 126.265 20H125.279C125.177 20 125.109 19.915 125.109 19.813V18.742C124.582 19.609 123.613 20.136 122.44 20.136ZM121.08 17.705C121.08 18.657 121.879 19.065 122.797 19.065C123.987 19.065 125.109 18.266 125.109 16.957V16.039L123.341 16.192C121.828 16.328 121.08 16.787 121.08 17.705ZM132.153 20.085C130.198 20.085 128.719 18.47 128.719 15.665C128.719 12.826 130.198 11.211 132.153 11.211C133.394 11.211 134.295 11.823 134.822 12.945V11.534C134.822 11.432 134.89 11.347 135.026 11.347H135.978C136.097 11.347 136.182 11.432 136.182 11.534V20.102C136.182 22.295 134.601 23.502 132.68 23.502C130.98 23.502 129.96 22.924 129.161 21.768C129.093 21.666 129.076 21.581 129.178 21.496L129.892 20.986C129.994 20.918 130.079 20.901 130.164 21.003C130.895 22.006 131.728 22.363 132.646 22.363C133.955 22.363 134.822 21.666 134.822 19.949V18.368C134.295 19.473 133.394 20.085 132.153 20.085ZM132.459 18.997C133.836 18.997 134.822 17.892 134.822 15.665C134.822 13.404 133.836 12.316 132.459 12.316C131.065 12.316 130.079 13.404 130.079 15.665C130.079 17.892 131.065 18.997 132.459 18.997ZM145.467 15.988H139.806C139.908 18.079 140.894 19.014 142.288 19.014C143.308 19.014 144.005 18.555 144.498 17.637C144.566 17.501 144.651 17.501 144.77 17.552L145.45 17.807C145.603 17.858 145.637 17.943 145.586 18.045C145.076 19.184 143.988 20.136 142.305 20.136C140.095 20.136 138.48 18.504 138.48 15.665C138.48 12.843 140.078 11.211 142.135 11.211C144.243 11.211 145.739 12.843 145.739 15.614C145.739 15.852 145.654 15.988 145.467 15.988ZM142.118 12.282C140.945 12.282 140.027 13.081 139.84 14.934H144.413C144.209 13.081 143.308 12.282 142.118 12.282ZM148.176 20C148.04 20 147.989 19.915 147.989 19.813V11.517C147.989 11.432 148.04 11.347 148.176 11.347H149.145C149.264 11.347 149.349 11.432 149.349 11.517V12.588C149.808 11.687 150.641 11.211 151.61 11.211C152.766 11.211 153.684 11.806 154.109 12.877C154.568 11.789 155.52 11.211 156.608 11.211C158.223 11.211 159.379 12.333 159.379 14.322V19.813C159.379 19.915 159.328 20 159.192 20H158.223C158.087 20 158.019 19.915 158.019 19.813V14.492C158.019 13.03 157.254 12.299 156.183 12.299C155.146 12.299 154.364 13.03 154.364 14.492V19.813C154.364 19.915 154.296 20 154.177 20H153.174C153.055 20 153.004 19.915 153.004 19.813V14.492C153.004 13.03 152.239 12.299 151.168 12.299C150.114 12.299 149.349 13.03 149.349 14.492V19.813C149.349 19.915 149.264 20 149.145 20H148.176ZM168.643 15.988H162.982C163.084 18.079 164.07 19.014 165.464 19.014C166.484 19.014 167.181 18.555 167.674 17.637C167.742 17.501 167.827 17.501 167.946 17.552L168.626 17.807C168.779 17.858 168.813 17.943 168.762 18.045C168.252 19.184 167.164 20.136 165.481 20.136C163.271 20.136 161.656 18.504 161.656 15.665C161.656 12.843 163.254 11.211 165.311 11.211C167.419 11.211 168.915 12.843 168.915 15.614C168.915 15.852 168.83 15.988 168.643 15.988ZM165.294 12.282C164.121 12.282 163.203 13.081 163.016 14.934H167.589C167.385 13.081 166.484 12.282 165.294 12.282ZM171.352 20C171.216 20 171.165 19.915 171.165 19.813V11.517C171.165 11.432 171.216 11.347 171.352 11.347H172.321C172.44 11.347 172.525 11.432 172.525 11.517V12.588C173.018 11.687 173.885 11.211 174.905 11.211C176.537 11.211 177.761 12.333 177.761 14.322V19.813C177.761 19.915 177.693 20 177.574 20H176.571C176.452 20 176.401 19.915 176.401 19.813V14.509C176.401 13.047 175.585 12.299 174.446 12.299C173.358 12.299 172.525 13.047 172.525 14.509V19.813C172.525 19.915 172.44 20 172.321 20H171.352ZM183.357 20.136C181.963 20.136 181.181 19.337 181.181 18.096V12.452H179.379C179.277 12.452 179.209 12.384 179.209 12.265V11.517C179.209 11.398 179.277 11.347 179.379 11.347H181.181V9.11999C181.181 9.01799 181.249 8.93299 181.368 8.93299H182.337C182.456 8.93299 182.541 9.01799 182.541 9.11999V11.347H184.768C184.87 11.347 184.938 11.398 184.938 11.517V12.265C184.938 12.384 184.87 12.452 184.768 12.452H182.541V17.875C182.541 18.589 182.966 19.014 183.646 19.014C184.02 19.014 184.326 18.946 184.683 18.81C184.802 18.759 184.887 18.81 184.887 18.895L184.955 19.66C184.955 19.728 184.972 19.779 184.887 19.83C184.53 20.017 183.935 20.136 183.357 20.136Z" fill="#000000" fill-opacity="0.898039"/>
<path d="M4.16949 5.2002C6.5301 5.2002 8.44953 6.80017 8.49375 9.02705C8.51585 9.65391 8.05258 10.0001 7.54509 10.0001C7.0597 10.0001 6.64063 9.65443 6.61853 9.07038C6.59642 7.8161 5.5156 6.88635 4.14739 6.88635C2.8676 6.88635 1.89733 7.77276 1.89733 8.98372C1.89733 10.3025 2.80177 10.8865 4.67699 11.5568C6.68436 12.2703 8.51585 13.1134 8.51585 15.6214C8.51585 17.8054 6.77279 19.5566 4.34635 19.5566C1.96365 19.5566 0 17.9133 0 15.6864C0 14.3026 0.683863 13.3295 1.34562 13.3295C1.91944 13.3295 2.27217 13.6969 2.27217 14.1943C2.27217 14.6267 1.89733 14.8212 1.89733 15.5998C1.89733 16.9836 3.04446 17.87 4.34635 17.87C5.71408 17.87 6.61853 16.9402 6.61853 15.8159C6.61853 14.4322 5.71408 13.8486 3.83886 13.1995C1.74306 12.4653 0 11.5784 0 9.13538C0 6.93017 1.8089 5.2002 4.16949 5.2002Z" fill="#00D639"/>
<path d="M13.7976 19.5569C11.4149 19.5569 9.42969 17.6758 9.42969 15.2972C9.42969 12.8325 11.437 10.9946 13.8639 10.9946C16.4672 10.9946 18.2982 12.8975 18.2982 15.4922V18.6488C18.2982 19.1895 17.8571 19.5569 17.3496 19.5569C16.82 19.5569 16.3788 19.1895 16.3788 18.6488V15.5567C16.3788 13.8484 15.386 12.6808 13.8197 12.6808C12.4299 12.6808 11.327 13.8267 11.327 15.2972C11.327 16.6593 12.4078 17.8269 13.776 17.8269C14.2835 17.8269 14.5041 17.6974 14.8131 17.6974C15.2322 17.6974 15.6734 18.0431 15.6734 18.5404C15.6728 19.2107 14.8564 19.5569 13.7976 19.5569Z" fill="#00D639"/>
<path d="M23.7375 26.0001C21.2664 26.0001 19.2148 24.2701 19.2148 22.0216C19.2148 21.2647 19.656 20.919 20.1634 20.919C20.6709 20.919 21.09 21.2435 21.1121 21.8704C21.1342 23.2759 22.2814 24.3135 23.7154 24.3135C25.2379 24.3135 26.2303 23.362 26.2303 22.1295C26.2303 20.724 25.1274 20.1405 23.2521 19.5564C21.0679 18.8645 19.2148 17.9131 19.2148 15.2755C19.2148 12.8536 21.1121 10.9946 23.5828 10.9946C26.0755 10.9946 28.1276 12.7675 28.1276 15.1027C28.1276 16.5298 27.5322 17.6324 26.7157 17.6324C26.1639 17.6324 25.7891 17.2434 25.7891 16.7677C25.7891 16.2703 26.2303 16.0541 26.2303 15.1677C26.2303 13.6756 25.0389 12.6813 23.6049 12.6813C22.2151 12.6813 21.1121 13.7193 21.1121 15.0815C21.1121 16.6164 22.2372 17.2655 24.0903 17.8708C26.2303 18.5626 28.1276 19.4274 28.1276 21.9571C28.1276 24.2272 26.2966 26.0001 23.7375 26.0001Z" fill="#00D639"/>
<path d="M33.5397 19.5569C31.0686 19.5569 29.0391 17.6541 29.0391 15.276C29.0391 12.8975 31.0027 10.9951 33.4292 10.9951C35.8782 10.9951 37.7313 12.6602 37.7313 14.7792C37.7313 15.6006 37.1359 16.098 36.1651 16.098H33.6281C33.1206 16.098 32.7458 15.7523 32.7458 15.2977C32.7458 14.8653 33.1206 14.5192 33.6281 14.5192H35.5255C35.7018 14.5192 35.8345 14.4325 35.8345 14.2596C35.8345 13.6327 35.018 12.6596 33.496 12.6596C32.0841 12.6596 30.9369 13.8489 30.9369 15.276C30.9369 16.7248 32.1062 17.8707 33.5623 17.8707C35.2391 17.8707 35.7908 16.8976 36.4746 16.8976C37.0484 16.8976 37.357 17.265 37.357 17.6763C37.357 18.0653 37.0922 18.4114 36.4304 18.8222C35.7677 19.2324 34.7753 19.5569 33.5397 19.5569Z" fill="#00D639"/>
</g>
<defs>
<clipPath id="clip0_8997_442">
<rect width="187" height="26" fill="#000000"/>
</clipPath>
</defs>
</svg>
