<svg width="128" height="128" viewBox="0 0 128 128" fill="none" xmlns="http://www.w3.org/2000/svg">
<g clip-path="url(#clip0_60_22662)">
<path d="M61.2678 35.5458C49.7861 35.5431 38.3256 34.5607 27.011 32.6096C26.6987 32.5538 26.4007 32.4366 26.134 32.265C25.8673 32.0933 25.6373 31.8704 25.4573 31.6093C25.2773 31.3482 25.1508 31.054 25.0851 30.7437C25.0195 30.4334 25.016 30.1132 25.0749 29.8015L29.4431 6.31296C29.5598 5.69357 29.9157 5.14497 30.4336 4.78568C30.9515 4.4264 31.59 4.2853 32.211 4.39289C52.2304 7.78749 72.6896 7.64672 92.6606 3.97686C98.4151 2.9106 104.109 1.53798 109.717 -0.135213C110.325 -0.317096 110.98 -0.250947 111.539 0.0489113C112.099 0.348715 112.516 0.857844 112.701 1.46483L119.901 24.2494C119.996 24.5524 120.03 24.8713 120.001 25.1876C119.971 25.5038 119.88 25.811 119.731 26.0916C119.582 26.3721 119.379 26.6203 119.134 26.8218C118.888 27.0233 118.605 27.1741 118.301 27.2655C111.585 29.2862 104.764 30.9394 97.8689 32.2176C85.7953 34.4393 73.5441 35.5535 61.2678 35.5458Z" fill="#293FFF"/>
<path d="M61.2677 81.6595C46.9248 81.6683 32.6087 80.4235 18.4827 77.9393C18.1704 77.8836 17.8724 77.7666 17.6057 77.5944C17.339 77.4227 17.109 77.2002 16.929 76.9389C16.749 76.6781 16.6225 76.3835 16.5568 76.0735C16.4912 75.763 16.4877 75.4426 16.5466 75.131L20.9547 51.6508C21.0714 51.0281 21.4295 50.4765 21.9511 50.1168C22.4726 49.757 23.1152 49.6182 23.7388 49.7308C48.5736 54.0267 73.9619 54.0267 98.7968 49.7308C99.4201 49.6182 100.063 49.757 100.585 50.1168C101.106 50.4765 101.464 51.0281 101.581 51.6508L105.973 75.131C106.032 75.4426 106.028 75.763 105.962 76.0735C105.897 76.3835 105.77 76.6781 105.591 76.9389C105.41 77.2002 105.181 77.4227 104.914 77.5944C104.647 77.7666 104.349 77.8836 104.037 77.9393C89.9159 80.4229 75.6053 81.6677 61.2677 81.6595Z" fill="#1579FF"/>
<path d="M58.8512 127.764C42.4606 127.631 26.1099 126.127 9.97001 123.268C9.65852 123.211 9.36134 123.094 9.09558 122.921C8.82981 122.749 8.60071 122.526 8.42149 122.265C8.24227 122.004 8.11645 121.71 8.05131 121.4C7.98618 121.09 7.98304 120.771 8.04199 120.46L12.4261 96.9794C12.5428 96.3583 12.8998 95.8084 13.4196 95.4486C13.9393 95.0895 14.5798 94.9495 15.2021 95.0594C29.6217 97.596 44.2267 98.9338 58.8672 99.0595C59.5037 99.0595 60.1142 99.3121 60.5643 99.7626C61.0144 100.212 61.2673 100.823 61.2673 101.459V125.348C61.2694 125.666 61.2083 125.981 61.0877 126.275C60.967 126.569 60.7891 126.836 60.5644 127.061C60.3396 127.286 60.0724 127.464 59.7783 127.585C59.4842 127.705 59.1691 127.766 58.8512 127.764Z" fill="#00B3FF"/>
</g>
<defs>
<clipPath id="clip0_60_22662">
<rect width="128" height="128" fill="white"/>
</clipPath>
</defs>
</svg>
