<?xml version="1.0" encoding="UTF-8" standalone="no"?>
<!DOCTYPE svg PUBLIC "-//W3C//DTD SVG 1.1//EN" "http://www.w3.org/Graphics/SVG/1.1/DTD/svg11.dtd">
<svg xmlns="http://www.w3.org/2000/svg" version="1.1" viewBox="0.00 0.00 400.00 400.00">
<g stroke-width="2.00" fill="none" stroke-linecap="butt">
<path stroke="#94b6d7" vector-effect="non-scaling-stroke" d="
  M 314.72 93.85
  A 0.62 0.62 0.0 0 0 314.15 93.23
  L 86.68 73.22
  A 0.62 0.62 0.0 0 0 86.01 73.84
  L 86.01 109.51
  A 0.62 0.62 0.0 0 0 86.59 110.13
  L 314.06 125.29
  A 0.62 0.62 0.0 0 0 314.72 124.67
  L 314.72 93.85"
/>
<path stroke="#94b6d7" vector-effect="non-scaling-stroke" d="
  M 314.62 148.95
  A 0.57 0.57 0.0 0 0 314.08 148.39
  L 136.79 140.42
  A 0.57 0.57 0.0 0 0 136.19 140.99
  L 136.19 173.99
  A 0.57 0.57 0.0 0 0 136.75 174.56
  L 314.04 178.41
  A 0.57 0.57 0.0 0 0 314.62 177.84
  L 314.62 148.95"
/>
<path stroke="#94b6d7" vector-effect="non-scaling-stroke" d="
  M 86.01 226.23
  A 0.66 0.66 0.0 0 0 86.68 226.89
  L 122.15 226.38
  A 0.66 0.66 0.0 0 0 122.80 225.72
  L 122.80 202.30
  A 0.66 0.66 0.0 0 0 122.14 201.64
  L 86.67 201.64
  A 0.66 0.66 0.0 0 0 86.01 202.30
  L 86.01 226.23"
/>
<path stroke="#94b6d7" vector-effect="non-scaling-stroke" d="
  M 136.20 225.92
  A 0.63 0.63 0.0 0 0 136.84 226.55
  L 314.17 224.01
  A 0.63 0.63 0.0 0 0 314.79 223.38
  L 314.79 202.42
  A 0.63 0.63 0.0 0 0 314.16 201.79
  L 136.83 201.79
  A 0.63 0.63 0.0 0 0 136.20 202.42
  L 136.20 225.92"
/>
<path stroke="#94b6d7" vector-effect="non-scaling-stroke" d="
  M 314.60 247.72
  A 0.72 0.72 0.0 0 0 313.85 247.00
  L 136.87 253.23
  A 0.72 0.72 0.0 0 0 136.18 253.95
  L 136.18 279.00
  A 0.72 0.72 0.0 0 0 136.94 279.72
  L 313.92 270.55
  A 0.72 0.72 0.0 0 0 314.60 269.83
  L 314.60 247.72"
/>
<path stroke="#94b6d7" vector-effect="non-scaling-stroke" d="
  M 122.81 254.39
  A 0.73 0.73 0.0 0 0 122.05 253.66
  L 86.75 254.90
  A 0.73 0.73 0.0 0 0 86.05 255.62
  L 86.05 282.97
  A 0.73 0.73 0.0 0 0 86.84 283.70
  L 122.14 280.97
  A 0.73 0.73 0.0 0 0 122.81 280.24
  L 122.81 254.39"
/>
<path stroke="#a2d2aa" vector-effect="non-scaling-stroke" d="
  M 314.81 296.66
  A 0.65 0.65 0.0 0 0 314.11 296.01
  L 250.36 300.93
  A 0.65 0.65 0.0 0 0 249.76 301.58
  L 249.76 326.90
  A 0.65 0.65 0.0 0 0 250.47 327.55
  L 314.22 321.35
  A 0.65 0.65 0.0 0 0 314.81 320.70
  L 314.81 296.66"
/>
</g>
<path fill="#ffffff" d="
  M 400.00 0.00
  L 400.00 400.00
  L 0.00 400.00
  L 0.00 0.00
  L 400.00 0.00
  Z
  M 314.72 93.85
  A 0.62 0.62 0.0 0 0 314.15 93.23
  L 86.68 73.22
  A 0.62 0.62 0.0 0 0 86.01 73.84
  L 86.01 109.51
  A 0.62 0.62 0.0 0 0 86.59 110.13
  L 314.06 125.29
  A 0.62 0.62 0.0 0 0 314.72 124.67
  L 314.72 93.85
  Z
  M 314.62 148.95
  A 0.57 0.57 0.0 0 0 314.08 148.39
  L 136.79 140.42
  A 0.57 0.57 0.0 0 0 136.19 140.99
  L 136.19 173.99
  A 0.57 0.57 0.0 0 0 136.75 174.56
  L 314.04 178.41
  A 0.57 0.57 0.0 0 0 314.62 177.84
  L 314.62 148.95
  Z
  M 86.01 226.23
  A 0.66 0.66 0.0 0 0 86.68 226.89
  L 122.15 226.38
  A 0.66 0.66 0.0 0 0 122.80 225.72
  L 122.80 202.30
  A 0.66 0.66 0.0 0 0 122.14 201.64
  L 86.67 201.64
  A 0.66 0.66 0.0 0 0 86.01 202.30
  L 86.01 226.23
  Z
  M 136.20 225.92
  A 0.63 0.63 0.0 0 0 136.84 226.55
  L 314.17 224.01
  A 0.63 0.63 0.0 0 0 314.79 223.38
  L 314.79 202.42
  A 0.63 0.63 0.0 0 0 314.16 201.79
  L 136.83 201.79
  A 0.63 0.63 0.0 0 0 136.20 202.42
  L 136.20 225.92
  Z
  M 314.60 247.72
  A 0.72 0.72 0.0 0 0 313.85 247.00
  L 136.87 253.23
  A 0.72 0.72 0.0 0 0 136.18 253.95
  L 136.18 279.00
  A 0.72 0.72 0.0 0 0 136.94 279.72
  L 313.92 270.55
  A 0.72 0.72 0.0 0 0 314.60 269.83
  L 314.60 247.72
  Z
  M 122.81 254.39
  A 0.73 0.73 0.0 0 0 122.05 253.66
  L 86.75 254.90
  A 0.73 0.73 0.0 0 0 86.05 255.62
  L 86.05 282.97
  A 0.73 0.73 0.0 0 0 86.84 283.70
  L 122.14 280.97
  A 0.73 0.73 0.0 0 0 122.81 280.24
  L 122.81 254.39
  Z
  M 314.81 296.66
  A 0.65 0.65 0.0 0 0 314.11 296.01
  L 250.36 300.93
  A 0.65 0.65 0.0 0 0 249.76 301.58
  L 249.76 326.90
  A 0.65 0.65 0.0 0 0 250.47 327.55
  L 314.22 321.35
  A 0.65 0.65 0.0 0 0 314.81 320.70
  L 314.81 296.66
  Z"
/>
<path fill="#286cae" d="
  M 314.72 93.85
  L 314.72 124.67
  A 0.62 0.62 0.0 0 1 314.06 125.29
  L 86.59 110.13
  A 0.62 0.62 0.0 0 1 86.01 109.51
  L 86.01 73.84
  A 0.62 0.62 0.0 0 1 86.68 73.22
  L 314.15 93.23
  A 0.62 0.62 0.0 0 1 314.72 93.85
  Z"
/>
<path fill="#286cae" d="
  M 314.62 148.95
  L 314.62 177.84
  A 0.57 0.57 0.0 0 1 314.04 178.41
  L 136.75 174.56
  A 0.57 0.57 0.0 0 1 136.19 173.99
  L 136.19 140.99
  A 0.57 0.57 0.0 0 1 136.79 140.42
  L 314.08 148.39
  A 0.57 0.57 0.0 0 1 314.62 148.95
  Z"
/>
<path fill="#286cae" d="
  M 86.01 226.23
  L 86.01 202.30
  A 0.66 0.66 0.0 0 1 86.67 201.64
  L 122.14 201.64
  A 0.66 0.66 0.0 0 1 122.80 202.30
  L 122.80 225.72
  A 0.66 0.66 0.0 0 1 122.15 226.38
  L 86.68 226.89
  A 0.66 0.66 0.0 0 1 86.01 226.23
  Z"
/>
<path fill="#286cae" d="
  M 136.20 225.92
  L 136.20 202.42
  A 0.63 0.63 0.0 0 1 136.83 201.79
  L 314.16 201.79
  A 0.63 0.63 0.0 0 1 314.79 202.42
  L 314.79 223.38
  A 0.63 0.63 0.0 0 1 314.17 224.01
  L 136.84 226.55
  A 0.63 0.63 0.0 0 1 136.20 225.92
  Z"
/>
<path fill="#286cae" d="
  M 314.60 247.72
  L 314.60 269.83
  A 0.72 0.72 0.0 0 1 313.92 270.55
  L 136.94 279.72
  A 0.72 0.72 0.0 0 1 136.18 279.00
  L 136.18 253.95
  A 0.72 0.72 0.0 0 1 136.87 253.23
  L 313.85 247.00
  A 0.72 0.72 0.0 0 1 314.60 247.72
  Z"
/>
<path fill="#286cae" d="
  M 122.81 254.39
  L 122.81 280.24
  A 0.73 0.73 0.0 0 1 122.14 280.97
  L 86.84 283.70
  A 0.73 0.73 0.0 0 1 86.05 282.97
  L 86.05 255.62
  A 0.73 0.73 0.0 0 1 86.75 254.90
  L 122.05 253.66
  A 0.73 0.73 0.0 0 1 122.81 254.39
  Z"
/>
<path fill="#44a455" d="
  M 314.81 296.66
  L 314.81 320.70
  A 0.65 0.65 0.0 0 1 314.22 321.35
  L 250.47 327.55
  A 0.65 0.65 0.0 0 1 249.76 326.90
  L 249.76 301.58
  A 0.65 0.65 0.0 0 1 250.36 300.93
  L 314.11 296.01
  A 0.65 0.65 0.0 0 1 314.81 296.66
  Z"
/>
</svg>
