<svg class="" fill="none" height="18" viewBox="0 0 62 18" width="62" xmlns="http://www.w3.org/2000/svg" style="fill: none !important;"><path class="" d="M10.4844 3.40321H13.3672V5.25414H13.4801C13.8692 3.94151 14.8567 3.25 16.0533 3.25C16.3545 3.25 16.7227 3.29141 16.9905 3.35352V5.96221C16.7102 5.87112 16.1453 5.80486 15.7353 5.80486C14.4215 5.80486 13.4592 6.70341 13.4592 8.00776V14.0078H10.4844V3.40321Z" fill="#171717" style="fill: rgb(23, 23, 23) !important;"/><path class="" d="M17.3262 11.0503C17.3262 8.68177 19.2299 7.97784 21.3512 7.78322C23.2131 7.60517 23.9453 7.51407 23.9453 6.83084V6.78943C23.9453 5.91987 23.3679 5.41469 22.3554 5.41469C21.2884 5.41469 20.6525 5.93229 20.4516 6.63622L17.7027 6.41676C18.1128 4.48302 19.8031 3.26562 22.3721 3.26562C24.757 3.26562 26.9201 4.32981 26.9201 6.85568V14.011H24.1001V12.541H24.0164C23.4934 13.5306 22.4683 14.2139 20.8826 14.2139C18.8408 14.2097 17.3262 13.1497 17.3262 11.0503ZM23.9662 10.218V9.09171C23.6106 9.32773 22.5478 9.4768 21.8993 9.5679C20.8533 9.71283 20.1629 10.1186 20.1629 10.9509C20.1629 11.7584 20.8198 12.1807 21.7319 12.1807C23.0415 12.1807 23.9662 11.3319 23.9662 10.218Z" fill="#171717" style="fill: rgb(23, 23, 23) !important;"/><path class="" d="M28.4941 3.41422H31.4229V5.19476H31.5568C31.9543 4.33348 32.812 3.27344 34.607 3.27344C36.9584 3.27344 38.9458 5.08296 38.9458 8.73099C38.9458 12.2796 37.0421 14.1927 34.5986 14.1927C32.8664 14.1927 31.9669 13.203 31.5568 12.3211H31.4648V17.9981H28.4941V3.41422ZM33.6572 11.8531C35.1174 11.8531 35.9124 10.5695 35.9124 8.71857C35.9124 6.88006 35.13 5.61712 33.6572 5.61712C32.2137 5.61712 31.402 6.82623 31.402 8.71857C31.402 10.6109 32.2263 11.8531 33.6572 11.8531Z" fill="#171717" style="fill: rgb(23, 23, 23) !important;"/><path class="" d="M40.0234 3.41422H42.9564V5.19476H43.0903C43.4878 4.33348 44.3455 3.27344 46.1405 3.27344C48.4919 3.27344 50.4793 5.08296 50.4793 8.73099C50.4793 12.2796 48.5756 14.1927 46.1321 14.1927C44.3999 14.1927 43.5004 13.203 43.0903 12.3211H42.9983V17.9981H40.0234V3.41422ZM45.1865 11.8531C46.6467 11.8531 47.4417 10.5695 47.4417 8.71857C47.4417 6.88006 46.6593 5.61712 45.1865 5.61712C43.743 5.61712 42.9313 6.82623 42.9313 8.71857C42.9313 10.6109 43.7598 11.8531 45.1865 11.8531Z" fill="#171717" style="fill: rgb(23, 23, 23) !important;"/><path class="" d="M51.4766 8.77193C51.4766 5.49657 53.5225 3.28125 56.6773 3.28125C59.5099 3.28125 61.7148 5.06179 61.7148 8.66841V9.47586H54.4137V9.48415C54.4137 11.0659 55.3551 12.039 56.8405 12.039C57.8321 12.039 58.5977 11.6166 58.899 10.8092L61.6479 10.9872C61.2295 12.9541 59.4429 14.2336 56.7903 14.2336C53.4933 14.2336 51.4766 12.1342 51.4766 8.77193ZM58.9157 7.65392C58.9074 6.39098 58.0162 5.48001 56.7233 5.48001C55.4053 5.48001 54.4765 6.44895 54.4137 7.65392H58.9157Z" fill="#171717" style="fill: rgb(23, 23, 23) !important;"/><path class="" d="M0 0V2.46377H3.02086H8.83664H9.46424V0H0Z" fill="#171717" style="fill: rgb(23, 23, 23) !important;"/><path class="" d="M0 6.28906V14.0116H3.02086V8.75697H8.83663V6.28906H3.02086H0Z" fill="#171717" style="fill: rgb(23, 23, 23) !important;"/></svg>