<?xml version="1.0" standalone="no"?>
<!DOCTYPE svg PUBLIC "-//W3C//DTD SVG 20010904//EN"
 "http://www.w3.org/TR/2001/REC-SVG-20010904/DTD/svg10.dtd">
<svg version="1.0" xmlns="http://www.w3.org/2000/svg"
 width="1800.000000pt" height="250.000000pt" viewBox="0 0 1800.000000 250.000000"
 preserveAspectRatio="xMidYMid meet">

<g transform="translate(0.000000,250.000000) scale(0.100000,-0.100000)"
fill="#000000" stroke="none">
<path d="M1565 2043 c-310 -18 -473 -44 -555 -89 -64 -35 -150 -126 -184 -196
-69 -143 -86 -312 -86 -880 l0 -408 170 0 170 0 0 325 0 325 475 0 475 0 0
135 0 135 -476 0 -477 0 6 65 c10 106 66 212 136 258 83 55 119 60 479 65
l332 4 0 134 0 134 -207 -2 c-115 -1 -230 -3 -258 -5z"/>
<path d="M2250 1260 l0 -790 165 0 165 0 0 310 0 310 194 0 193 0 174 -307
174 -308 361 -3 360 -2 68 190 68 190 345 -2 345 -3 71 -187 72 -188 183 0
c100 0 182 3 182 8 0 4 -150 358 -334 787 l-333 780 -179 0 -179 0 -317 -755
c-174 -415 -323 -768 -330 -783 -13 -27 -16 -22 -201 291 -103 175 -187 324
-187 330 0 7 6 12 13 12 29 0 139 62 177 100 165 165 153 537 -23 702 -48 46
-122 75 -227 93 -75 12 -188 15 -547 15 l-453 0 0 -790z m853 500 c130 -21
170 -63 175 -178 4 -100 -20 -145 -93 -182 -49 -25 -55 -25 -327 -28 l-278 -3
0 200 0 201 233 0 c127 0 258 -4 290 -10z m1536 -345 c61 -154 109 -280 107
-282 -2 -2 -107 -2 -233 -1 l-230 3 103 270 c132 342 124 323 134 304 5 -9 59
-141 119 -294z"/>
<path d="M5480 1493 c0 -311 4 -584 10 -617 12 -72 56 -168 114 -251 47 -65
106 -104 211 -140 70 -24 314 -36 494 -25 156 10 248 33 337 85 77 45 174 213
193 335 7 39 11 285 11 618 l0 552 -163 0 -164 0 -6 -412 c-7 -411 -16 -595
-38 -738 -11 -68 -16 -79 -54 -116 -60 -58 -135 -77 -287 -73 -104 4 -120 7
-173 34 -71 36 -108 85 -130 170 -12 49 -15 148 -15 597 l0 538 -170 0 -170 0
0 -557z"/>
<path d="M7070 1260 l0 -791 463 4 c515 4 534 6 657 73 143 79 224 153 276
257 60 118 68 171 69 452 0 234 -1 255 -23 325 -35 112 -86 196 -171 281 -83
83 -149 120 -281 160 -72 22 -92 23 -532 27 l-458 3 0 -791z m883 500 c149
-36 218 -184 221 -475 2 -280 -47 -435 -161 -502 -37 -21 -63 -27 -167 -34
-67 -5 -194 -8 -282 -7 l-159 3 -3 505 c-1 278 0 511 3 519 4 11 49 12 253 8
136 -3 269 -11 295 -17z"/>
<path d="M8730 1888 c0 -500 40 -982 96 -1158 20 -66 32 -84 74 -124 56 -52
121 -86 220 -113 58 -16 114 -18 539 -18 l474 0 67 185 67 185 345 3 344 2 34
-87 c18 -49 51 -134 72 -190 l40 -103 185 0 c102 0 183 4 181 9 -1 4 -153 360
-337 790 l-334 781 -177 0 -177 0 -309 -736 -309 -737 -3 75 -3 75 -212 7
c-240 8 -351 20 -408 43 -46 18 -104 82 -121 132 -8 25 -13 202 -15 589 l-4
552 -165 0 -164 0 0 -162z m2001 -463 l117 -295 -235 0 c-220 0 -235 1 -229
18 94 249 221 572 225 572 4 0 58 -133 122 -295z"/>
<path d="M11580 1260 l0 -790 488 0 c537 1 593 5 707 58 116 55 188 150 205
270 10 76 -5 214 -30 270 -24 55 -97 132 -158 168 l-43 25 38 26 c66 43 124
106 156 168 30 56 32 66 30 155 -3 169 -46 296 -115 338 -55 34 -138 63 -236
83 -84 17 -142 19 -568 19 l-474 0 0 -790z m900 499 c73 -15 126 -67 135 -132
15 -98 -9 -154 -86 -197 -44 -25 -46 -25 -326 -28 l-283 -4 0 186 0 186 255 0
c146 0 276 -5 305 -11z m-93 -649 c196 -18 226 -39 231 -170 3 -65 1 -80 -20
-110 -47 -71 -68 -75 -390 -78 l-288 -3 0 185 0 186 183 0 c100 -1 228 -5 284
-10z"/>
<path d="M13515 2034 c-255 -54 -365 -216 -353 -518 3 -84 8 -111 31 -161 49
-106 131 -172 259 -209 71 -21 260 -34 408 -28 136 5 312 -11 369 -34 55 -22
73 -54 79 -139 6 -96 -11 -128 -86 -163 l-57 -27 -472 -3 -473 -3 0 -140 0
-139 183 0 c413 0 872 30 1011 66 102 26 159 73 214 177 26 50 27 57 27 207 0
132 -3 165 -23 226 -19 63 -29 79 -84 129 -105 98 -175 115 -469 115 -232 0
-448 15 -494 34 -62 26 -92 104 -75 191 12 61 45 99 109 129 44 20 62 21 504
24 l457 3 0 140 0 139 -497 -1 c-398 0 -512 -4 -568 -15z"/>
<path d="M15276 2013 c-37 -11 -66 -31 -112 -77 -72 -72 -94 -127 -94 -238 l0
-68 1090 0 1090 0 0 68 c0 111 -22 166 -94 238 -100 100 -35 94 -1000 93 -712
0 -838 -3 -880 -16z"/>
<path d="M15070 1062 c0 -421 1 -424 94 -518 100 -100 36 -94 996 -94 960 0
896 -6 996 94 93 94 94 97 94 518 l0 348 -1090 0 -1090 0 0 -348z m1813 135
c89 -53 127 -130 127 -261 0 -107 -21 -167 -76 -222 -55 -56 -129 -79 -225
-71 -80 7 -133 31 -182 86 -109 120 -81 381 50 462 52 33 82 39 174 36 72 -3
93 -7 132 -30z m-1147 -3 c56 -41 69 -70 69 -148 0 -63 -3 -77 -27 -108 -41
-54 -81 -68 -192 -68 l-96 0 0 -110 0 -110 -60 0 -60 0 0 286 0 285 169 -3
c153 -3 172 -5 197 -24z m554 8 c53 -26 80 -74 80 -141 0 -38 -6 -65 -19 -85
-22 -33 -68 -66 -93 -66 -24 0 -23 -17 3 -32 16 -10 111 -144 153 -215 5 -10
-10 -13 -63 -13 l-71 0 -68 103 c-38 56 -77 108 -86 116 -9 7 -36 16 -61 19
l-45 5 0 -122 0 -121 -55 0 -55 0 0 285 0 285 173 0 c144 0 178 -3 207 -18z"/>
<path d="M16660 1107 c-47 -31 -71 -77 -77 -146 -8 -80 17 -152 64 -188 46
-35 127 -39 169 -7 55 40 67 68 71 156 4 72 1 89 -19 128 -40 78 -138 105
-208 57z"/>
<path d="M15490 1045 l0 -75 75 0 c67 0 79 3 100 25 14 13 25 36 25 50 0 14
-11 37 -25 50 -21 22 -33 25 -100 25 l-75 0 0 -75z"/>
<path d="M16022 1053 l3 -68 92 0 c106 0 133 15 133 71 0 51 -27 64 -138 64
l-93 0 3 -67z"/>
</g>
</svg>
