<?xml version="1.0" encoding="UTF-8" standalone="no"?>
<!DOCTYPE svg PUBLIC "-//W3C//DTD SVG 1.1//EN" "http://www.w3.org/Graphics/SVG/1.1/DTD/svg11.dtd">
<svg xmlns="http://www.w3.org/2000/svg" version="1.1" viewBox="0.00 0.00 512.00 512.00">
<g stroke-width="2.00" fill="none" stroke-linecap="butt">
<path stroke="#808080" vector-effect="non-scaling-stroke" d="
  M 432.71 255.41
  A 177.30 177.30 0.0 0 0 255.41 78.11
  A 177.30 177.30 0.0 0 0 78.11 255.41
  A 177.30 177.30 0.0 0 0 255.41 432.71
  A 177.30 177.30 0.0 0 0 432.71 255.41"
/>
<path stroke="#808080" vector-effect="non-scaling-stroke" d="
  M 108.79 290.86
  C 127.47 292.02 138.28 279.20 154.14 271.66
  Q 182.75 258.07 211.31 271.34
  C 218.64 274.75 227.79 281.58 234.42 285.31
  Q 250.22 294.18 266.53 289.18
  C 274.28 286.80 283.81 279.73 288.91 276.67
  Q 297.36 271.61 302.76 269.50
  C 319.49 262.96 337.75 263.21 354.09 270.93
  C 362.22 274.77 368.96 279.35 377.60 284.67
  Q 388.78 291.54 401.48 290.95
  A 1.34 1.34 0.0 0 0 402.72 289.92
  Q 411.32 252.23 401.21 215.03
  C 386.16 159.62 339.62 117.30 283.41 106.78
  C 210.12 93.05 137.69 134.67 112.83 204.94
  Q 98.33 245.91 108.12 290.29
  A 0.73 0.71 -4.1 0 0 108.79 290.86"
/>
<path stroke="#808080" vector-effect="non-scaling-stroke" d="
  M 392.67 317.13
  Q 377.08 315.35 363.79 307.22
  Q 359.03 304.30 351.97 299.88
  Q 344.44 295.17 341.07 293.93
  Q 322.69 287.18 305.84 297.39
  C 297.28 302.57 288.82 308.63 280.28 312.20
  Q 264.33 318.87 247.54 316.96
  C 235.49 315.59 225.14 311.02 214.73 304.24
  Q 204.10 297.32 200.45 295.49
  Q 186.03 288.27 170.95 293.26
  C 162.44 296.07 154.42 302.32 145.26 307.73
  Q 132.09 315.53 117.74 317.07
  A 0.36 0.36 0.0 0 0 117.45 317.57
  Q 124.63 333.31 135.38 347.45
  A 0.68 0.67 -38.1 0 0 136.35 347.56
  C 146.07 339.37 157.34 331.25 170.58 328.20
  Q 189.03 323.96 205.89 331.66
  C 215.26 335.94 223.97 343.00 229.84 347.70
  Q 236.90 353.35 242.06 355.65
  Q 259.23 363.32 275.60 350.80
  C 288.45 340.98 295.91 334.36 308.00 329.98
  C 325.31 323.71 343.86 326.69 359.09 336.73
  Q 366.83 341.82 374.33 348.07
  A 0.42 0.42 0.0 0 0 374.93 348.01
  Q 386.15 333.72 393.10 317.88
  A 0.53 0.53 0.0 0 0 392.67 317.13"
/>
<path stroke="#808080" vector-effect="non-scaling-stroke" d="
  M 154.25 367.86
  Q 188.30 398.02 231.96 404.81
  C 277.06 411.83 322.53 398.41 356.47 367.93
  A 0.17 0.16 -46.0 0 0 356.47 367.68
  C 350.28 362.50 341.92 355.93 334.25 354.07
  C 323.64 351.51 315.09 354.32 306.23 360.80
  C 299.15 365.97 289.05 374.61 281.47 378.35
  Q 255.88 391.01 230.74 379.53
  C 223.00 376.00 216.04 370.69 209.02 364.98
  Q 200.43 357.99 194.57 355.45
  C 178.76 348.60 165.96 357.45 154.27 367.03
  A 0.55 0.54 -44.0 0 0 154.25 367.86"
/>
<path stroke="#808080" vector-effect="non-scaling-stroke" d="
  M 198.79 189.25
  C 198.79 191.68 200.50 192.73 202.69 193.15
  Q 203.12 193.24 219.48 196.44
  Q 229.10 198.32 232.71 200.47
  Q 239.38 204.44 243.50 211.13
  Q 245.83 214.89 247.71 224.21
  Q 251.11 241.00 251.93 244.02
  Q 252.71 246.86 255.52 246.86
  Q 258.32 246.86 259.10 244.02
  Q 259.92 241.00 263.33 224.21
  Q 265.22 214.90 267.55 211.14
  Q 271.68 204.45 278.35 200.48
  Q 281.96 198.34 291.58 196.46
  Q 307.94 193.27 308.38 193.19
  C 310.56 192.76 312.27 191.71 312.27 189.28
  C 312.27 186.85 310.57 185.80 308.38 185.37
  Q 307.95 185.29 291.59 182.09
  Q 281.97 180.21 278.36 178.06
  Q 271.69 174.09 267.57 167.40
  Q 265.24 163.64 263.36 154.32
  Q 259.96 137.53 259.13 134.51
  Q 258.35 131.67 255.55 131.66
  Q 252.75 131.66 251.97 134.50
  Q 251.14 137.52 247.73 154.31
  Q 245.85 163.63 243.51 167.39
  Q 239.39 174.08 232.72 178.04
  Q 229.11 180.19 219.48 182.07
  Q 203.12 185.26 202.69 185.34
  C 200.50 185.76 198.80 186.82 198.79 189.25"
/>
</g>
<path fill="#000000" d="
  M 408.17 0.00
  Q 414.57 0.64 420.89 1.70
  Q 430.26 3.28 438.41 6.11
  C 440.64 6.88 442.40 7.95 444.77 8.59
  A 3.86 3.59 -20.5 0 1 445.69 8.97
  C 447.83 10.21 450.08 10.97 452.07 12.05
  Q 456.38 14.38 458.48 15.54
  Q 459.54 16.12 466.86 21.17
  Q 470.28 23.53 475.80 28.47
  C 490.10 41.27 500.60 57.69 506.52 75.66
  C 508.82 82.64 510.16 89.35 511.27 97.42
  C 511.55 99.44 511.55 102.30 512.00 104.75
  L 512.00 406.00
  Q 511.75 406.81 512.00 406.76
  L 512.00 408.15
  Q 510.85 421.90 507.65 432.97
  C 503.88 445.99 497.15 458.92 488.62 469.78
  Q 479.63 481.21 469.67 488.62
  Q 468.36 489.59 467.77 490.21
  A 5.30 5.13 -84.6 0 1 467.15 490.74
  C 452.57 501.36 435.63 508.26 417.50 510.81
  Q 411.89 511.60 406.24 512.00
  L 105.86 512.00
  C 86.77 511.03 68.60 505.75 53.07 496.11
  Q 47.00 492.34 44.90 490.80
  A 5.72 5.31 85.0 0 1 44.07 490.05
  Q 43.64 489.57 42.44 488.69
  Q 32.51 481.46 23.35 469.69
  Q 22.12 468.11 21.79 467.77
  A 5.30 5.13 5.4 0 1 21.26 467.15
  C 12.35 454.96 5.93 440.69 2.59 425.74
  Q 0.67 417.08 0.00 406.24
  L 0.00 105.87
  Q 1.68 70.60 21.87 44.13
  Q 44.64 14.26 80.02 4.12
  Q 91.39 0.86 105.75 0.00
  L 408.17 0.00
  Z
  M 432.71 255.41
  A 177.30 177.30 0.0 0 0 255.41 78.11
  A 177.30 177.30 0.0 0 0 78.11 255.41
  A 177.30 177.30 0.0 0 0 255.41 432.71
  A 177.30 177.30 0.0 0 0 432.71 255.41
  Z"
/>
<path fill="#ffffff" d="
  M 432.71 255.41
  A 177.30 177.30 0.0 0 1 255.41 432.71
  A 177.30 177.30 0.0 0 1 78.11 255.41
  A 177.30 177.30 0.0 0 1 255.41 78.11
  A 177.30 177.30 0.0 0 1 432.71 255.41
  Z
  M 108.79 290.86
  C 127.47 292.02 138.28 279.20 154.14 271.66
  Q 182.75 258.07 211.31 271.34
  C 218.64 274.75 227.79 281.58 234.42 285.31
  Q 250.22 294.18 266.53 289.18
  C 274.28 286.80 283.81 279.73 288.91 276.67
  Q 297.36 271.61 302.76 269.50
  C 319.49 262.96 337.75 263.21 354.09 270.93
  C 362.22 274.77 368.96 279.35 377.60 284.67
  Q 388.78 291.54 401.48 290.95
  A 1.34 1.34 0.0 0 0 402.72 289.92
  Q 411.32 252.23 401.21 215.03
  C 386.16 159.62 339.62 117.30 283.41 106.78
  C 210.12 93.05 137.69 134.67 112.83 204.94
  Q 98.33 245.91 108.12 290.29
  A 0.73 0.71 -4.1 0 0 108.79 290.86
  Z
  M 392.67 317.13
  Q 377.08 315.35 363.79 307.22
  Q 359.03 304.30 351.97 299.88
  Q 344.44 295.17 341.07 293.93
  Q 322.69 287.18 305.84 297.39
  C 297.28 302.57 288.82 308.63 280.28 312.20
  Q 264.33 318.87 247.54 316.96
  C 235.49 315.59 225.14 311.02 214.73 304.24
  Q 204.10 297.32 200.45 295.49
  Q 186.03 288.27 170.95 293.26
  C 162.44 296.07 154.42 302.32 145.26 307.73
  Q 132.09 315.53 117.74 317.07
  A 0.36 0.36 0.0 0 0 117.45 317.57
  Q 124.63 333.31 135.38 347.45
  A 0.68 0.67 -38.1 0 0 136.35 347.56
  C 146.07 339.37 157.34 331.25 170.58 328.20
  Q 189.03 323.96 205.89 331.66
  C 215.26 335.94 223.97 343.00 229.84 347.70
  Q 236.90 353.35 242.06 355.65
  Q 259.23 363.32 275.60 350.80
  C 288.45 340.98 295.91 334.36 308.00 329.98
  C 325.31 323.71 343.86 326.69 359.09 336.73
  Q 366.83 341.82 374.33 348.07
  A 0.42 0.42 0.0 0 0 374.93 348.01
  Q 386.15 333.72 393.10 317.88
  A 0.53 0.53 0.0 0 0 392.67 317.13
  Z
  M 154.25 367.86
  Q 188.30 398.02 231.96 404.81
  C 277.06 411.83 322.53 398.41 356.47 367.93
  A 0.17 0.16 -46.0 0 0 356.47 367.68
  C 350.28 362.50 341.92 355.93 334.25 354.07
  C 323.64 351.51 315.09 354.32 306.23 360.80
  C 299.15 365.97 289.05 374.61 281.47 378.35
  Q 255.88 391.01 230.74 379.53
  C 223.00 376.00 216.04 370.69 209.02 364.98
  Q 200.43 357.99 194.57 355.45
  C 178.76 348.60 165.96 357.45 154.27 367.03
  A 0.55 0.54 -44.0 0 0 154.25 367.86
  Z"
/>
<path fill="#000000" d="
  M 108.79 290.86
  A 0.73 0.71 -4.1 0 1 108.12 290.29
  Q 98.33 245.91 112.83 204.94
  C 137.69 134.67 210.12 93.05 283.41 106.78
  C 339.62 117.30 386.16 159.62 401.21 215.03
  Q 411.32 252.23 402.72 289.92
  A 1.34 1.34 0.0 0 1 401.48 290.95
  Q 388.78 291.54 377.60 284.67
  C 368.96 279.35 362.22 274.77 354.09 270.93
  C 337.75 263.21 319.49 262.96 302.76 269.50
  Q 297.36 271.61 288.91 276.67
  C 283.81 279.73 274.28 286.80 266.53 289.18
  Q 250.22 294.18 234.42 285.31
  C 227.79 281.58 218.64 274.75 211.31 271.34
  Q 182.75 258.07 154.14 271.66
  C 138.28 279.20 127.47 292.02 108.79 290.86
  Z
  M 198.79 189.25
  C 198.79 191.68 200.50 192.73 202.69 193.15
  Q 203.12 193.24 219.48 196.44
  Q 229.10 198.32 232.71 200.47
  Q 239.38 204.44 243.50 211.13
  Q 245.83 214.89 247.71 224.21
  Q 251.11 241.00 251.93 244.02
  Q 252.71 246.86 255.52 246.86
  Q 258.32 246.86 259.10 244.02
  Q 259.92 241.00 263.33 224.21
  Q 265.22 214.90 267.55 211.14
  Q 271.68 204.45 278.35 200.48
  Q 281.96 198.34 291.58 196.46
  Q 307.94 193.27 308.38 193.19
  C 310.56 192.76 312.27 191.71 312.27 189.28
  C 312.27 186.85 310.57 185.80 308.38 185.37
  Q 307.95 185.29 291.59 182.09
  Q 281.97 180.21 278.36 178.06
  Q 271.69 174.09 267.57 167.40
  Q 265.24 163.64 263.36 154.32
  Q 259.96 137.53 259.13 134.51
  Q 258.35 131.67 255.55 131.66
  Q 252.75 131.66 251.97 134.50
  Q 251.14 137.52 247.73 154.31
  Q 245.85 163.63 243.51 167.39
  Q 239.39 174.08 232.72 178.04
  Q 229.11 180.19 219.48 182.07
  Q 203.12 185.26 202.69 185.34
  C 200.50 185.76 198.80 186.82 198.79 189.25
  Z"
/>
<path fill="#ffffff" d="
  M 255.55 131.66
  Q 258.35 131.67 259.13 134.51
  Q 259.96 137.53 263.36 154.32
  Q 265.24 163.64 267.57 167.40
  Q 271.69 174.09 278.36 178.06
  Q 281.97 180.21 291.59 182.09
  Q 307.95 185.29 308.38 185.37
  C 310.57 185.80 312.27 186.85 312.27 189.28
  C 312.27 191.71 310.56 192.76 308.38 193.19
  Q 307.94 193.27 291.58 196.46
  Q 281.96 198.34 278.35 200.48
  Q 271.68 204.45 267.55 211.14
  Q 265.22 214.90 263.33 224.21
  Q 259.92 241.00 259.10 244.02
  Q 258.32 246.86 255.52 246.86
  Q 252.71 246.86 251.93 244.02
  Q 251.11 241.00 247.71 224.21
  Q 245.83 214.89 243.50 211.13
  Q 239.38 204.44 232.71 200.47
  Q 229.10 198.32 219.48 196.44
  Q 203.12 193.24 202.69 193.15
  C 200.50 192.73 198.79 191.68 198.79 189.25
  C 198.80 186.82 200.50 185.76 202.69 185.34
  Q 203.12 185.26 219.48 182.07
  Q 229.11 180.19 232.72 178.04
  Q 239.39 174.08 243.51 167.39
  Q 245.85 163.63 247.73 154.31
  Q 251.14 137.52 251.97 134.50
  Q 252.75 131.66 255.55 131.66
  Z"
/>
<path fill="#000000" d="
  M 393.10 317.88
  Q 386.15 333.72 374.93 348.01
  A 0.42 0.42 0.0 0 1 374.33 348.07
  Q 366.83 341.82 359.09 336.73
  C 343.86 326.69 325.31 323.71 308.00 329.98
  C 295.91 334.36 288.45 340.98 275.60 350.80
  Q 259.23 363.32 242.06 355.65
  Q 236.90 353.35 229.84 347.70
  C 223.97 343.00 215.26 335.94 205.89 331.66
  Q 189.03 323.96 170.58 328.20
  C 157.34 331.25 146.07 339.37 136.35 347.56
  A 0.68 0.67 -38.1 0 1 135.38 347.45
  Q 124.63 333.31 117.45 317.57
  A 0.36 0.36 0.0 0 1 117.74 317.07
  Q 132.09 315.53 145.26 307.73
  C 154.42 302.32 162.44 296.07 170.95 293.26
  Q 186.03 288.27 200.45 295.49
  Q 204.10 297.32 214.73 304.24
  C 225.14 311.02 235.49 315.59 247.54 316.96
  Q 264.33 318.87 280.28 312.20
  C 288.82 308.63 297.28 302.57 305.84 297.39
  Q 322.69 287.18 341.07 293.93
  Q 344.44 295.17 351.97 299.88
  Q 359.03 304.30 363.79 307.22
  Q 377.08 315.35 392.67 317.13
  A 0.53 0.53 0.0 0 1 393.10 317.88
  Z"
/>
<path fill="#000000" d="
  M 154.27 367.03
  C 165.96 357.45 178.76 348.60 194.57 355.45
  Q 200.43 357.99 209.02 364.98
  C 216.04 370.69 223.00 376.00 230.74 379.53
  Q 255.88 391.01 281.47 378.35
  C 289.05 374.61 299.15 365.97 306.23 360.80
  C 315.09 354.32 323.64 351.51 334.25 354.07
  C 341.92 355.93 350.28 362.50 356.47 367.68
  A 0.17 0.16 -46.0 0 1 356.47 367.93
  C 322.53 398.41 277.06 411.83 231.96 404.81
  Q 188.30 398.02 154.25 367.86
  A 0.55 0.54 -44.0 0 1 154.27 367.03
  Z"
/>
</svg>
