<?xml version="1.0" encoding="UTF-8" standalone="no"?>
<!DOCTYPE svg PUBLIC "-//W3C//DTD SVG 1.1//EN" "http://www.w3.org/Graphics/SVG/1.1/DTD/svg11.dtd">
<svg xmlns="http://www.w3.org/2000/svg" version="1.1" viewBox="0.00 0.00 400.00 400.00">
<g stroke-width="2.00" fill="none" stroke-linecap="butt">
<path stroke="#8bcad3" vector-effect="non-scaling-stroke" d="
  M 398.49 200.27
  A 198.22 198.22 0.0 0 0 200.27 2.05
  A 198.22 198.22 0.0 0 0 2.05 200.27
  A 198.22 198.22 0.0 0 0 200.27 398.49
  A 198.22 198.22 0.0 0 0 398.49 200.27"
/>
<path stroke="#8bcad3" vector-effect="non-scaling-stroke" d="
  M 347.46 112.38
  Q 312.22 112.42 202.25 112.39
  C 198.77 112.39 195.31 116.64 192.36 119.61
  Q 143.82 168.53 116.29 195.79
  Q 107.52 204.48 102.80 209.56
  Q 100.71 211.81 100.74 215.74
  Q 100.88 237.52 100.85 309.57
  A 0.63 0.63 0.0 0 0 101.48 310.20
  Q 123.85 310.26 147.95 310.23
  C 150.17 310.23 151.05 309.77 152.53 308.28
  Q 197.57 263.11 248.59 212.11
  A 0.40 0.40 0.0 0 0 248.31 211.42
  L 200.48 211.42
  A 0.74 0.73 90.0 0 0 199.75 212.16
  Q 199.83 230.66 199.77 257.45
  C 199.76 259.35 200.08 260.91 197.48 260.90
  Q 151.42 260.88 151.27 260.88
  A 0.91 0.90 -89.7 0 1 150.38 259.97
  Q 150.31 186.25 150.37 163.77
  Q 150.37 161.87 152.75 161.87
  Q 225.46 161.82 296.76 161.87
  A 4.78 4.75 -67.4 0 0 300.13 160.47
  L 347.69 112.91
  A 0.32 0.31 22.1 0 0 347.46 112.38"
/>
</g>
<path fill="#ffffff" d="
  M 400.00 0.00
  L 400.00 400.00
  L 0.00 400.00
  L 0.00 0.00
  L 400.00 0.00
  Z
  M 398.49 200.27
  A 198.22 198.22 0.0 0 0 200.27 2.05
  A 198.22 198.22 0.0 0 0 2.05 200.27
  A 198.22 198.22 0.0 0 0 200.27 398.49
  A 198.22 198.22 0.0 0 0 398.49 200.27
  Z"
/>
<path fill="#1794a6" d="
  M 398.49 200.27
  A 198.22 198.22 0.0 0 1 200.27 398.49
  A 198.22 198.22 0.0 0 1 2.05 200.27
  A 198.22 198.22 0.0 0 1 200.27 2.05
  A 198.22 198.22 0.0 0 1 398.49 200.27
  Z
  M 347.46 112.38
  Q 312.22 112.42 202.25 112.39
  C 198.77 112.39 195.31 116.64 192.36 119.61
  Q 143.82 168.53 116.29 195.79
  Q 107.52 204.48 102.80 209.56
  Q 100.71 211.81 100.74 215.74
  Q 100.88 237.52 100.85 309.57
  A 0.63 0.63 0.0 0 0 101.48 310.20
  Q 123.85 310.26 147.95 310.23
  C 150.17 310.23 151.05 309.77 152.53 308.28
  Q 197.57 263.11 248.59 212.11
  A 0.40 0.40 0.0 0 0 248.31 211.42
  L 200.48 211.42
  A 0.74 0.73 90.0 0 0 199.75 212.16
  Q 199.83 230.66 199.77 257.45
  C 199.76 259.35 200.08 260.91 197.48 260.90
  Q 151.42 260.88 151.27 260.88
  A 0.91 0.90 -89.7 0 1 150.38 259.97
  Q 150.31 186.25 150.37 163.77
  Q 150.37 161.87 152.75 161.87
  Q 225.46 161.82 296.76 161.87
  A 4.78 4.75 -67.4 0 0 300.13 160.47
  L 347.69 112.91
  A 0.32 0.31 22.1 0 0 347.46 112.38
  Z"
/>
<path fill="#ffffff" d="
  M 347.46 112.38
  A 0.32 0.31 22.1 0 1 347.69 112.91
  L 300.13 160.47
  A 4.78 4.75 -67.4 0 1 296.76 161.87
  Q 225.46 161.82 152.75 161.87
  Q 150.37 161.87 150.37 163.77
  Q 150.31 186.25 150.38 259.97
  A 0.91 0.90 -89.7 0 0 151.27 260.88
  Q 151.42 260.88 197.48 260.90
  C 200.08 260.91 199.76 259.35 199.77 257.45
  Q 199.83 230.66 199.75 212.16
  A 0.74 0.73 90.0 0 1 200.48 211.42
  L 248.31 211.42
  A 0.40 0.40 0.0 0 1 248.59 212.11
  Q 197.57 263.11 152.53 308.28
  C 151.05 309.77 150.17 310.23 147.95 310.23
  Q 123.85 310.26 101.48 310.20
  A 0.63 0.63 0.0 0 1 100.85 309.57
  Q 100.88 237.52 100.74 215.74
  Q 100.71 211.81 102.80 209.56
  Q 107.52 204.48 116.29 195.79
  Q 143.82 168.53 192.36 119.61
  C 195.31 116.64 198.77 112.39 202.25 112.39
  Q 312.22 112.42 347.46 112.38
  Z"
/>
</svg>
