<svg xmlns="http://www.w3.org/2000/svg" id="Layer_1" data-name="Layer 1" width="689" height="157" viewBox="0 0 689 157"><defs><style>
      .cls-1{fill:#0396a6}
    </style></defs><path class="cls-1" d="M201.647 108.235q-10.5 10.855-24.159 10.855a34.9 34.9 0 01-15.4-3.444 39.7 39.7 0 01-12.372-9.278 43.378 43.378 0 01-8.228-13.539 44.3 44.3 0 01-2.976-16.1 43.4 43.4 0 012.976-15.991 42.3 42.3 0 018.228-13.3 38.717 38.717 0 0112.484-9.054 37.252 37.252 0 0115.756-3.326q11.905 0 19.958 4.96a32.05 32.05 0 0112.138 13.129l-10.037 7.237a23.288 23.288 0 00-9.337-10.155 26.005 26.005 0 00-13.072-3.383 22.534 22.534 0 00-10.621 2.508 26.086 26.086 0 00-8.17 6.653 29.787 29.787 0 00-5.193 9.629 36.255 36.255 0 00-1.809 11.437 33.5 33.5 0 002.042 11.788 30.657 30.657 0 005.6 9.571 26.518 26.518 0 008.461 6.477 23.875 23.875 0 0010.621 2.393 26.447 26.447 0 0012.079-2.918 35.453 35.453 0 0011.029-9.22v-8.87h-17.39v-9.688h28.361v41.9h-10.969zM242.146 119.673a22.717 22.717 0 01-8.229-1.459 19.867 19.867 0 01-6.536-4.026 18.763 18.763 0 01-4.318-6.07 18.269 18.269 0 01-1.575-7.586 16.339 16.339 0 011.867-7.819 18.265 18.265 0 015.311-6.069 25.772 25.772 0 018.169-3.968 36.665 36.665 0 0110.446-1.4 47.939 47.939 0 018.52.758 43.213 43.213 0 017.586 2.043v-4.2q0-6.766-3.851-10.562t-11.088-3.793a26.758 26.758 0 00-9.629 1.809 48.786 48.786 0 00-9.745 5.193l-3.969-8.169q11.787-7.935 24.51-7.936 12.6 0 19.608 6.419t7 18.44v22.058q0 4.088 3.385 4.2v10.971q-1.869.35-3.21.467c-.895.076-1.771.117-2.626.117a8.246 8.246 0 01-5.772-1.869 7.967 7.967 0 01-2.509-4.785l-.35-3.852a27.222 27.222 0 01-10.1 8.228 29.648 29.648 0 01-12.895 2.86zm3.5-9.453a23.063 23.063 0 008.811-1.693 15.2 15.2 0 006.478-4.727 5.917 5.917 0 002.451-4.435v-8.053a38.885 38.885 0 00-6.945-1.984 38.292 38.292 0 00-7.177-.7q-6.888 0-11.263 2.976a9.12 9.12 0 00-4.377 7.878 9.938 9.938 0 003.385 7.645 12.308 12.308 0 008.638 3.093zM325.244 115.354a63.763 63.763 0 01-6.77 2.626 28.607 28.607 0 01-9.22 1.459 19.59 19.59 0 01-5.719-.816 13.963 13.963 0 01-4.726-2.451 11.11 11.11 0 01-3.21-4.26 15.593 15.593 0 01-1.167-6.361V67.387h-8.053v-9.921h8.053V37.392h12.838v20.074h13.305v9.921H307.27v34.079a6.327 6.327 0 002.042 4.726 6.914 6.914 0 004.494 1.459 14.27 14.27 0 005.135-.933q2.451-.933 3.618-1.517zM388.85 118.506h-12.839V84.31q0-8.4-2.976-12.43a10.013 10.013 0 00-8.578-4.026 14.636 14.636 0 00-5.369 1.049 19.27 19.27 0 00-5.077 2.977 22.622 22.622 0 00-4.26 4.552 19.384 19.384 0 00-2.8 5.777v36.3h-12.839v-85.2h12.838v36.412a25.331 25.331 0 019.512-9.8 25.623 25.623 0 0113.13-3.5 19.222 19.222 0 019.4 2.042 16.5 16.5 0 015.894 5.427 21.869 21.869 0 013.093 7.878 49.669 49.669 0 01.876 9.512zM431.447 119.673a32.472 32.472 0 01-12.954-2.509 30.11 30.11 0 01-9.979-6.828A30.748 30.748 0 01402.1 100.3a32.5 32.5 0 01-2.276-12.138 32.96 32.96 0 012.276-12.2 31.277 31.277 0 016.419-10.154 29.714 29.714 0 019.979-6.886 32.776 32.776 0 0113.071-2.509 31.435 31.435 0 0112.9 2.567 30.88 30.88 0 019.862 6.828 29.27 29.27 0 016.244 9.92 32.974 32.974 0 012.159 11.846q0 1.4-.117 2.626t-.233 2.043h-48.9A20.885 20.885 0 00415.4 99.6a19.316 19.316 0 004.084 5.66 17.94 17.94 0 0012.43 4.961 20.371 20.371 0 005.077-.643 17.855 17.855 0 004.61-1.867 16.321 16.321 0 003.735-2.976 13.947 13.947 0 002.568-3.851l10.971 3.15a25.429 25.429 0 01-10.446 11.266 32.37 32.37 0 01-16.982 4.373zM450 83.376a20.532 20.532 0 00-1.925-7.119 18.336 18.336 0 00-4.027-5.544 17.981 17.981 0 00-5.719-3.56 18.686 18.686 0 00-6.886-1.284 18.263 18.263 0 00-12.488 4.844 17.517 17.517 0 00-3.968 5.544 21.346 21.346 0 00-1.867 7.119zM507.542 68.554A28.73 28.73 0 00494.294 72a18.157 18.157 0 00-8.228 9.162v37.348h-12.837V57.466h11.9v13.655a27.943 27.943 0 018.228-10.1 19.964 19.964 0 0110.912-4.142h1.931a7.073 7.073 0 011.343.116zM553.058 107.3a20.952 20.952 0 0010.854-2.568 20.478 20.478 0 006.944-6.711 28.276 28.276 0 003.735-9.454 53.249 53.249 0 001.109-10.91V35.641h13.188v42.016a62.781 62.781 0 01-1.988 16.048 37.094 37.094 0 01-6.3 13.189 30.082 30.082 0 01-11.146 8.927 37.682 37.682 0 01-16.4 3.269q-9.923 0-16.748-3.444a30.148 30.148 0 01-11.03-9.22 37.864 37.864 0 01-6.069-13.246 63.765 63.765 0 01-1.867-15.523V35.641h13.072v42.016a53.786 53.786 0 001.108 11.03 28.279 28.279 0 003.735 9.453 19.806 19.806 0 007 6.652 21.39 21.39 0 0010.803 2.508zM639.307 119.673a23.932 23.932 0 01-12.955-3.5 26.123 26.123 0 01-8.87-9.1v36.3h-12.838v-85.9h11.321v10.964a26.641 26.641 0 019.045-8.753 24.241 24.241 0 0112.546-3.268 25.963 25.963 0 0111.555 2.567 29.371 29.371 0 019.1 6.886 31.834 31.834 0 016.011 10.037 33.766 33.766 0 012.159 12.022 38.033 38.033 0 01-1.984 12.429 30.811 30.811 0 01-5.6 10.038 27.363 27.363 0 01-8.578 6.769 23.842 23.842 0 01-10.912 2.509zm-4.2-10.971a15.672 15.672 0 007.412-1.751 18.407 18.407 0 005.718-4.668 21.348 21.348 0 003.677-6.652 23.555 23.555 0 001.284-7.7 21.637 21.637 0 00-1.459-7.937 21.362 21.362 0 00-3.968-6.536 18.475 18.475 0 00-6.011-4.434 17.719 17.719 0 00-7.586-1.634 15.623 15.623 0 00-5.135.933 20.381 20.381 0 00-5.019 2.568 19.975 19.975 0 00-4.085 3.793 12.807 12.807 0 00-2.451 4.726V95.4a23.542 23.542 0 003.035 5.252 22.285 22.285 0 004.143 4.2 20.076 20.076 0 004.96 2.8 14.917 14.917 0 005.483 1.048z"></path><g><path d="M97.552 74.186v45.293H54.694a5.563 5.563 0 00-4.023 1.726L35.1 137.843v-12.934a5.294 5.294 0 00-5.294-5.294H12.7V34.761h30.214a1.018 1.018 0 00.591-1.847l-11.247-8.02a1.7 1.7 0 00-.986-.316H12.8A10.319 10.319 0 002.515 34.866v84.612a10.35 10.35 0 0010.32 10.32H23.22a1.7 1.7 0 011.7 1.7V149.9a5.457 5.457 0 003.5 5.053 5.614 5.614 0 002.034.383 5.434 5.434 0 003.974-1.731l22.345-23.945h41.135a9.84 9.84 0 009.827-9.843V79.739a1.7 1.7 0 00-.7-1.377L99.7 73.084a1.359 1.359 0 00-2.148 1.102z" fill="#f23869"></path><path class="cls-1" d="M85.678 52.11l-18.82 13.84a1.7 1.7 0 01-2.628-1.866l6.895-22.457L52 27.991a1.7 1.7 0 01.984-3.078l23.686-.025 6.995-22.169a1.7 1.7 0 013.224-.039l7.609 22.2 23.178.053a1.7 1.7 0 01.991 3.067L99.992 41.516l7.675 22.64a1.7 1.7 0 01-2.6 1.922z"></path></g><g><path class="cls-1" d="M677.26 57.932h-2.724V65h-1.644v-7.068h-2.724V56.48h7.092zM685.264 65v-5.64l-2.2 4.2h-.9l-2.2-4.2V65h-1.656v-8.52h1.776l2.52 4.848 2.544-4.848h1.764V65z"></path></g></svg>