<?xml version="1.0" encoding="UTF-8" standalone="no"?>
<!DOCTYPE svg PUBLIC "-//W3C//DTD SVG 1.1//EN" "http://www.w3.org/Graphics/SVG/1.1/DTD/svg11.dtd">
<svg xmlns="http://www.w3.org/2000/svg" version="1.1" viewBox="0.00 0.00 318.00 80.00">
<path fill="#ffffff" d="
  M 61.19 10.24
  Q 61.20 10.16 60.26 7.77
  C 59.49 5.83 59.79 3.66 61.58 2.45
  C 65.14 0.06 67.30 2.79 68.44 6.22
  Q 70.32 11.88 72.33 17.48
  C 73.80 21.59 73.11 24.24 68.65 24.85
  Q 64.12 25.46 54.76 26.72
  A 3.44 3.44 0.0 0 1 52.11 25.96
  C 48.07 22.62 50.89 18.34 55.45 18.16
  A 0.31 0.31 0.0 0 0 55.61 17.60
  C 41.04 7.93 21.99 13.55 15.31 29.77
  C 7.90 47.75 20.85 67.93 40.52 67.81
  C 53.67 67.73 64.68 58.18 66.90 45.21
  A 0.24 0.23 -84.9 0 0 66.67 44.93
  L 44.80 44.93
  A 0.56 0.55 -0.0 0 0 44.24 45.48
  L 44.24 59.16
  A 4.14 4.13 90.0 0 1 40.11 63.30
  L 39.64 63.30
  A 4.02 4.01 0.0 0 1 35.62 59.29
  L 35.62 45.29
  A 0.60 0.60 0.0 0 0 35.02 44.69
  L 20.24 44.69
  A 4.21 4.21 0.0 0 1 16.03 40.34
  L 16.04 40.06
  A 4.32 4.32 0.0 0 1 20.41 35.88
  L 35.09 36.03
  A 0.81 0.80 0.4 0 0 35.91 35.23
  L 35.91 21.71
  A 4.09 4.09 0.0 0 1 40.00 17.62
  L 40.51 17.62
  A 3.99 3.98 -90.0 0 1 44.49 21.61
  L 44.49 35.92
  A 0.67 0.66 -0.4 0 0 45.17 36.58
  Q 62.38 36.47 70.94 36.59
  C 75.01 36.65 76.24 39.93 75.76 43.81
  Q 74.06 57.40 65.31 66.01
  C 53.13 78.01 34.95 80.00 20.76 70.51
  C -4.14 53.87 0.98 15.36 29.49 5.88
  C 38.42 2.91 49.44 3.70 58.09 9.08
  Q 60.47 10.55 60.57 10.60
  A 0.45 0.44 -74.9 0 0 61.19 10.24
  Z"
/>
<path fill="#ffffff" d="
  M 170.63 62.64
  Q 163.66 69.00 155.06 65.70
  C 142.84 61.01 142.31 40.91 154.53 35.98
  Q 160.69 33.50 166.57 36.08
  C 168.30 36.84 169.40 37.86 170.60 38.80
  A 0.36 0.36 0.0 0 0 171.18 38.51
  L 171.18 25.43
  A 0.57 0.56 0.0 0 1 171.75 24.87
  L 178.92 24.87
  A 0.64 0.64 0.0 0 1 179.56 25.51
  L 179.56 65.37
  A 0.94 0.94 0.0 0 1 178.62 66.31
  L 171.93 66.31
  A 0.72 0.72 0.0 0 1 171.21 65.59
  L 171.21 62.89
  A 0.35 0.34 -21.4 0 0 170.63 62.64
  Z
  M 162.3660 41.5850
  A 9.17 8.65 -91.9 0 0 154.0248 51.0368
  A 9.17 8.65 -91.9 0 0 162.9740 59.9150
  A 9.17 8.65 -91.9 0 0 171.3152 50.4632
  A 9.17 8.65 -91.9 0 0 162.3660 41.5850
  Z"
/>
<path fill="#ffffff" d="
  M 251.01 27.19
  Q 253.95 27.19 255.34 27.33
  A 0.90 0.90 0.0 0 1 256.09 27.90
  L 270.32 65.63
  A 0.50 0.49 79.7 0 1 269.86 66.30
  L 262.52 66.30
  A 0.85 0.83 -9.9 0 1 261.73 65.76
  L 259.34 59.43
  A 0.91 0.91 0.0 0 0 258.48 58.83
  Q 253.17 58.84 251.01 58.84
  Q 248.86 58.84 243.54 58.83
  A 0.91 0.91 0.0 0 0 242.68 59.43
  L 240.30 65.76
  A 0.85 0.83 9.9 0 1 239.51 66.30
  L 232.17 66.30
  A 0.50 0.49 -79.7 0 1 231.71 65.63
  L 245.93 27.90
  A 0.90 0.90 0.0 0 1 246.69 27.33
  Q 248.07 27.19 251.01 27.19
  Z
  M 245.27 52.10
  A 0.32 0.32 0.0 0 0 245.58 52.53
  L 256.42 52.53
  A 0.32 0.32 0.0 0 0 256.73 52.10
  L 251.30 37.04
  A 0.32 0.32 0.0 0 0 250.70 37.04
  L 245.27 52.10
  Z"
/>
<path fill="#ffffff" d="
  M 281.36 65.99
  A 0.31 0.31 0.0 0 1 281.05 66.30
  L 273.41 66.30
  A 0.26 0.26 0.0 0 1 273.15 66.04
  L 273.15 27.60
  A 0.41 0.40 0.0 0 1 273.56 27.20
  Q 281.00 27.17 287.50 27.20
  C 296.54 27.23 304.87 31.59 302.65 42.12
  C 300.65 51.67 289.64 51.56 282.19 51.24
  A 0.80 0.80 0.0 0 0 281.36 52.04
  L 281.36 65.99
  Z
  M 281.36 34.09
  L 281.36 44.45
  A 0.46 0.46 0.0 0 0 281.82 44.91
  L 289.05 44.91
  A 5.55 5.33 -0.0 0 0 294.60 39.58
  L 294.60 38.96
  A 5.55 5.33 0.0 0 0 289.05 33.63
  L 281.82 33.63
  A 0.46 0.46 0.0 0 0 281.36 34.09
  Z"
/>
<rect fill="#ffffff" x="305.86" y="27.17" width="8.24" height="39.10" rx="0.52"/>
<path fill="#ffffff" d="
  M 109.03 57.22
  C 106.47 63.02 101.73 66.33 95.50 66.75
  C 84.80 67.47 77.10 60.50 77.74 49.29
  C 78.40 37.69 90.17 31.97 100.47 35.89
  Q 110.65 39.76 110.02 52.40
  A 0.76 0.76 0.0 0 1 109.26 53.13
  L 86.53 53.13
  A 0.40 0.39 86.7 0 0 86.14 53.57
  C 86.96 60.78 96.05 62.58 100.00 57.06
  A 1.29 1.27 17.3 0 1 101.05 56.52
  L 108.57 56.52
  A 0.50 0.50 0.0 0 1 109.03 57.22
  Z
  M 86.38 47.91
  L 101.34 47.85
  A 0.14 0.14 0.0 0 0 101.48 47.71
  L 101.48 47.62
  A 7.52 6.43 -0.2 0 0 93.94 41.22
  L 93.74 41.22
  A 7.52 6.43 -0.2 0 0 86.24 47.68
  L 86.24 47.77
  A 0.14 0.14 0.0 0 0 86.38 47.91
  Z"
/>
<path fill="#ffffff" d="
  M 113.01 65.89
  L 113.01 36.07
  A 0.84 0.83 90.0 0 1 113.84 35.23
  L 120.53 35.23
  A 0.83 0.82 90.0 0 1 121.35 36.06
  L 121.35 38.24
  A 0.33 0.32 -21.8 0 0 121.90 38.47
  Q 127.28 33.42 134.85 35.32
  C 143.04 37.36 144.30 43.77 144.10 51.72
  Q 144.09 52.40 144.14 65.76
  A 0.54 0.54 0.0 0 1 143.60 66.30
  L 136.39 66.30
  A 0.54 0.53 90.0 0 1 135.86 65.76
  Q 135.86 54.37 135.88 52.79
  C 135.95 46.87 135.69 41.81 129.03 41.49
  C 124.52 41.27 121.35 44.15 121.34 48.75
  Q 121.33 52.56 121.29 65.87
  A 0.43 0.42 0.0 0 1 120.86 66.29
  L 113.41 66.29
  A 0.40 0.40 0.0 0 1 113.01 65.89
  Z"
/>
<path fill="#ffffff" d="
  M 212.25 56.56
  A 0.50 0.50 0.0 0 1 212.71 57.26
  C 210.13 63.05 205.38 66.35 199.15 66.75
  C 188.45 67.44 180.77 60.45 181.45 49.24
  C 182.14 37.64 193.92 31.96 204.21 35.91
  Q 214.38 39.81 213.71 52.45
  A 0.76 0.76 0.0 0 1 212.95 53.17
  L 190.22 53.11
  A 0.40 0.39 86.9 0 0 189.83 53.54
  C 190.63 60.76 199.71 62.58 203.68 57.07
  A 1.29 1.27 17.4 0 1 204.73 56.54
  L 212.25 56.56
  Z
  M 190.12 47.91
  L 205.06 47.89
  A 0.15 0.15 0.0 0 0 205.21 47.74
  L 205.21 47.64
  A 7.52 6.41 -0.1 0 0 197.67 41.24
  L 197.47 41.24
  A 7.52 6.41 -0.1 0 0 189.97 47.66
  L 189.97 47.76
  A 0.15 0.15 0.0 0 0 190.12 47.91
  Z"
/>
<path fill="#ffffff" d="
  M 225.05 65.98
  A 0.32 0.31 -0.9 0 1 224.73 66.30
  L 217.08 66.30
  A 0.33 0.33 0.0 0 1 216.75 65.97
  L 216.75 36.46
  A 1.22 1.22 0.0 0 1 217.97 35.24
  L 224.05 35.24
  A 1.02 1.02 0.0 0 1 225.03 36.56
  Q 224.68 37.72 224.89 38.90
  A 0.43 0.42 -26.9 0 0 225.60 39.13
  C 228.33 36.56 229.48 35.79 233.61 34.77
  A 1.13 1.12 -7.0 0 1 235.01 35.86
  L 235.01 42.21
  A 1.09 1.09 0.0 0 1 233.66 43.27
  Q 231.64 42.78 229.47 43.50
  Q 225.01 44.99 224.99 50.22
  Q 224.95 58.32 225.05 65.98
  Z"
/>
</svg>
