<svg class="bi me-2" version="1.0" xmlns="http://www.w3.org/2000/svg" width="50%" viewBox="0 0 350.000000 128.000000" preserveAspectRatio="xMidYMid meet" style="fill: rgb(33, 37, 41) !important;">

<g transform="translate(0.000000,128.000000) scale(0.100000,-0.100000)" fill="#000000" stroke="none" style="fill: rgb(0, 0, 0) !important; stroke: none !important;">
<path d="M502 1265 c-180 -39 -347 -170 -430 -335 -95 -189 -95 -390 -2 -575&#10;157 -312 524 -440 841 -294 84 39 98 53 69 69 -11 6 -57 40 -100 76 l-80 65&#10;-28 -21 c-82 -61 -212 -33 -212 46 0 77 76 121 167 95 31 -9 32 -8 47 37 9 25&#10;16 56 16 69 0 20 -3 22 -19 13 -25 -13 -102 -13 -138 1 -78 29 -122 108 -123&#10;221 0 171 86 317 224 377 17 7 61 12 99 12 38 0 76 4 85 10 10 5 35 15 57 23&#10;l39 13 -84 42 c-138 68 -285 87 -428 56z"/>
<path d="M2329 1138 l-46 -10 -7 -86 c-3 -48 -16 -134 -29 -192 l-22 -105 -40&#10;-6 c-45 -8 -55 0 -55 44 0 38 -27 87 -48 88 -55 4 -142 -5 -172 -18 -83 -34&#10;-133 -123 -133 -238 -1 -95 21 -141 80 -167 107 -47 201 17 258 174 20 57 26&#10;63 56 70 19 3 35 5 37 3 2 -2 -6 -49 -17 -106 -30 -145 -29 -149 17 -148 96 3&#10;93 -1 119 144 13 71 30 139 37 150 8 12 34 32 59 45 38 20 48 22 61 11 36 -30&#10;3 -77 -71 -102 l-35 -11 6 -52 c11 -82 35 -143 67 -171 38 -32 53 -31 120 2&#10;38 20 54 34 54 48 0 13 -5 19 -15 16 -42 -11 -54 -5 -76 39 -12 25 -25 57 -29&#10;72 -6 25 -3 29 34 44 81 32 116 113 71 162 -39 42 -102 41 -184 -3 -25 -13&#10;-46 -21 -46 -17 0 4 9 52 19 107 18 94 24 149 22 203 -1 25 -15 26 -92 10z&#10;m-339 -337 c-27 -51 11 -121 65 -121 31 0 31 -11 1 -75 -30 -64 -56 -87 -93&#10;-83 -38 4 -55 52 -47 133 7 71 46 165 69 165 12 0 14 -4 5 -19z"/>
<path d="M968 1093 c-22 -5 -22 -6 -2 -46 20 -37 22 -147 5 -192 -33 -84 -88&#10;-129 -154 -127 -97 3 -113 172 -27 291 30 41 31 43 8 36 -45 -13 -95 -78 -119&#10;-155 -27 -92 -23 -226 8 -269 43 -56 106 -53 165 10 32 33 41 38 68 33 17 -4&#10;33 -10 36 -15 8 -13 -43 -195 -71 -258 -14 -29 -25 -57 -25 -60 0 -11 141 -90&#10;201 -112 l53 -21 28 34 c35 42 90 147 114 218 27 78 27 282 0 360 -43 126&#10;-115 238 -170 264 -32 15 -81 19 -118 9z"/>
<path d="M858 1023 c-57 -64 -84 -181 -51 -221 16 -21 22 -22 44 -12 15 7 34&#10;28 44 48 45 96 15 244 -37 185z"/>
<path d="M3247 869 c-88 -10 -133 -39 -172 -110 -38 -70 -47 -194 -18 -248 27&#10;-52 66 -76 122 -75 89 1 166 73 199 185 17 59 17 59 70 74 41 12 52 20 50 33&#10;-3 17 -21 18 -74 7 -19 -4 -22 1 -28 44 -7 53 -29 87 -61 94 -11 2 -51 1 -88&#10;-4z m8 -59 c-3 -6 -7 -29 -7 -52 0 -47 26 -78 68 -78 30 0 31 -19 5 -77 -26&#10;-57 -55 -83 -91 -83 -24 0 -33 6 -40 26 -24 63 -2 212 38 257 16 18 37 24 27&#10;7z"/>
<path d="M1556 855 c-56 -20 -107 -65 -136 -120 -19 -38 -24 -63 -24 -119 0&#10;-80 18 -123 67 -160 53 -39 170 -19 247 42 20 17 22 23 11 35 -11 14 -16 14&#10;-44 -4 -40 -24 -99 -25 -119 -1 -23 26 -32 61 -16 66 108 30 135 42 170 74&#10;117 109 4 244 -156 187z m75 -56 c24 -47 -14 -128 -71 -147 -28 -10 -30 -9&#10;-30 12 0 36 27 116 46 137 22 25 41 24 55 -2z"/>
<path d="M2812 852 c-49 -20 -105 -70 -129 -116 -10 -18 -18 -63 -20 -111 -5&#10;-90 11 -133 60 -169 43 -31 128 -27 195 9 62 33 75 47 66 68 -5 15 -10 14 -45&#10;-3 -74 -38 -139 -17 -139 46 0 17 8 23 38 28 63 10 140 52 162 88 71 117 -45&#10;217 -188 160z m78 -47 c17 -20 7 -91 -17 -117 -21 -24 -73 -52 -74 -41 -6 44&#10;15 128 39 156 19 21 36 22 52 2z"/>
<path d="M631 331 c-22 -14 -5 -41 27 -41 30 0 71 24 61 35 -12 11 -74 16 -88&#10;6z"/>
</g>
</svg>