<?xml version="1.0" encoding="UTF-8" standalone="no"?>
<!DOCTYPE svg PUBLIC "-//W3C//DTD SVG 1.1//EN" "http://www.w3.org/Graphics/SVG/1.1/DTD/svg11.dtd">
<svg xmlns="http://www.w3.org/2000/svg" version="1.1" viewBox="0.00 0.00 800.00 294.00">
<path fill="#000000" fill-opacity="0.522" d="
  M 158.33 9.60
  Q 157.66 9.74 157.33 10.00
  A 0.33 0.33 0.0 0 0 157.45 10.59
  L 166.71 12.66
  A 3.38 3.18 63.8 0 1 167.59 12.99
  Q 170.70 14.69 174.04 15.52
  A 0.22 0.21 -42.5 0 1 174.02 15.94
  C 169.05 16.76 165.43 16.68 160.19 15.91
  Q 153.40 14.91 144.90 14.75
  Q 140.22 14.66 133.83 15.78
  Q 129.07 16.61 122.69 16.90
  A 0.05 0.05 0.0 0 1 122.67 16.80
  Q 128.72 13.67 135.96 11.69
  Q 137.41 11.29 140.59 10.65
  A 0.10 0.10 0.0 0 0 140.60 10.45
  Q 139.78 10.25 139.17 9.73
  Q 148.68 8.02 158.33 9.60
  Z"
/>
<path fill="#000000" fill-opacity="0.957" d="
  M 139.17 9.73
  Q 139.78 10.25 140.60 10.45
  A 0.10 0.10 0.0 0 1 140.59 10.65
  Q 137.41 11.29 135.96 11.69
  Q 128.72 13.67 122.67 16.80
  A 0.05 0.05 0.0 0 0 122.69 16.90
  Q 129.07 16.61 133.83 15.78
  Q 140.22 14.66 144.90 14.75
  Q 153.40 14.91 160.19 15.91
  C 165.43 16.68 169.05 16.76 174.02 15.94
  A 0.22 0.21 -42.5 0 0 174.04 15.52
  Q 170.70 14.69 167.59 12.99
  A 3.38 3.18 63.8 0 0 166.71 12.66
  L 157.45 10.59
  A 0.33 0.33 0.0 0 1 157.33 10.00
  Q 157.66 9.74 158.33 9.60
  Q 171.66 11.69 184.43 16.34
  Q 186.70 17.17 191.75 17.46
  Q 191.18 17.59 190.89 17.87
  A 0.48 0.48 0.0 0 0 191.01 18.64
  Q 195.47 20.79 197.63 21.38
  Q 207.06 23.94 214.57 26.74
  A 0.38 0.38 0.0 0 0 215.00 26.14
  Q 214.83 25.92 215.01 25.76
  Q 223.46 30.87 232.17 35.61
  C 240.36 40.07 248.60 45.44 255.47 51.66
  Q 259.05 54.90 263.22 59.95
  Q 269.76 67.86 278.67 81.59
  Q 291.88 101.92 299.33 122.65
  Q 295.01 115.45 292.19 109.68
  Q 290.35 105.92 286.73 104.22
  A 0.23 0.23 0.0 0 0 286.42 104.49
  L 292.25 125.92
  L 294.95 143.00
  Q 296.08 155.96 295.19 167.74
  Q 290.92 179.20 289.58 191.36
  Q 289.39 193.05 285.90 203.85
  A 0.52 0.51 19.8 0 0 286.20 204.48
  L 286.21 204.49
  A 0.28 0.28 0.0 0 0 286.57 204.36
  Q 287.09 203.41 288.10 203.34
  A 0.28 0.28 0.0 0 1 288.35 203.77
  L 286.45 206.69
  C 283.87 210.15 281.61 213.30 279.52 217.29
  Q 273.52 228.78 266.28 239.53
  L 256.59 252.09
  A 0.87 0.87 0.0 0 0 256.47 252.94
  L 256.99 254.22
  Q 247.43 262.26 239.28 267.02
  C 233.33 270.50 225.81 273.33 217.58 275.56
  Q 212.98 276.81 197.90 281.35
  Q 191.07 283.40 177.63 282.89
  Q 175.70 282.82 167.23 281.57
  C 163.08 280.96 158.60 281.12 154.25 281.14
  C 162.19 278.15 169.72 280.25 179.61 281.41
  C 184.42 281.98 189.92 281.28 193.90 280.64
  A 0.23 0.23 0.0 0 0 193.88 280.18
  Q 189.44 279.99 186.02 279.84
  Q 173.85 279.31 162.22 275.53
  L 146.65 270.09
  A 9.51 9.29 55.3 0 0 143.92 269.56
  L 123.45 268.65
  A 0.50 0.50 0.0 0 0 123.34 269.64
  Q 124.11 269.79 124.45 270.52
  A 0.93 0.91 82.6 0 0 125.10 271.03
  Q 126.08 271.21 127.31 272.64
  A 2.60 2.27 -0.1 0 0 127.85 273.11
  Q 134.35 277.30 141.67 279.33
  L 141.40 280.42
  C 133.17 277.90 126.22 273.80 119.42 268.48
  A 1.37 1.32 67.3 0 0 118.77 268.20
  Q 91.94 264.57 69.90 254.09
  Q 62.06 250.36 54.61 242.50
  Q 53.54 241.37 49.15 235.62
  Q 47.10 232.93 43.41 228.88
  Q 32.42 216.83 27.24 201.80
  C 24.72 194.47 22.97 191.20 19.42 183.55
  Q 12.12 167.84 17.57 149.57
  C 22.23 133.97 30.13 118.79 42.00 107.34
  A 2.83 2.80 -18.5 0 0 42.83 105.70
  C 44.16 95.71 46.42 84.50 50.62 75.38
  Q 58.33 58.68 71.38 44.86
  Q 84.61 30.85 101.79 24.28
  Q 111.49 20.57 118.00 17.30
  Q 128.14 12.20 139.17 9.73
  Z
  M 137.42 20.57
  Q 122.87 22.03 113.52 24.05
  Q 106.13 25.64 95.89 29.70
  Q 84.67 34.06 75.84 42.85
  Q 61.50 57.13 52.37 75.38
  Q 45.69 88.75 45.12 102.36
  A 0.24 0.24 0.0 0 0 45.33 102.61
  L 45.38 102.60
  A 0.31 0.30 -84.1 0 0 45.64 102.38
  L 48.20 93.53
  A 0.42 0.42 0.0 0 1 48.72 93.25
  L 49.02 93.34
  A 0.59 0.59 0.0 0 1 49.42 94.08
  L 47.26 101.38
  A 0.42 0.41 -12.3 0 0 47.93 101.81
  Q 48.98 100.90 51.05 98.35
  Q 64.39 81.90 77.06 64.79
  Q 83.40 56.39 88.80 51.55
  Q 101.04 40.58 119.16 31.18
  Q 132.06 24.49 146.48 22.19
  Q 159.51 20.10 172.20 20.10
  A 0.56 0.56 0.0 0 0 172.33 18.99
  Q 163.56 16.89 155.04 18.69
  Q 154.32 18.15 154.84 17.36
  Q 154.96 17.18 155.10 17.03
  A 0.29 0.28 -55.2 0 0 155.02 16.58
  Q 153.92 16.02 153.58 15.99
  Q 150.38 15.70 143.29 15.54
  C 139.20 15.45 135.67 16.31 130.29 17.16
  Q 120.83 18.67 112.60 21.83
  A 0.49 0.49 0.0 0 0 112.83 22.77
  L 133.38 20.38
  A 1.89 1.51 -51.3 0 0 133.74 20.30
  Q 136.60 19.30 137.42 20.57
  Z
  M 154.69 22.68
  Q 138.87 24.38 125.15 31.16
  Q 104.21 41.49 86.27 57.68
  L 80.41 63.73
  L 57.51 92.85
  A 0.23 0.22 88.6 0 0 57.83 93.16
  C 61.63 89.75 63.64 88.15 66.13 85.02
  Q 72.93 76.49 81.42 69.75
  A 0.23 0.23 0.0 0 1 81.75 70.06
  L 81.24 70.81
  L 69.07 83.55
  A 0.11 0.10 1.2 0 0 69.22 83.70
  Q 74.10 79.72 79.81 76.83
  A 3.03 2.90 -80.7 0 0 80.66 76.19
  C 85.28 71.24 89.28 66.73 94.71 61.88
  Q 99.04 58.00 103.35 54.05
  C 110.72 47.43 118.34 40.87 126.61 35.34
  C 135.51 29.39 145.17 26.21 155.53 23.89
  L 162.78 22.64
  A 0.20 0.19 -5.0 0 1 163.01 22.83
  L 163.01 23.25
  A 0.35 0.34 85.0 0 1 162.73 23.59
  Q 152.23 25.45 145.07 27.60
  Q 134.45 30.78 124.48 38.01
  Q 119.15 41.64 114.24 46.01
  Q 104.60 54.58 94.76 63.01
  Q 92.63 64.83 84.67 73.59
  A 0.17 0.17 0.0 0 0 84.74 73.87
  Q 84.85 73.91 85.01 73.91
  A 0.15 0.13 20.8 0 0 85.11 73.87
  Q 86.76 72.50 88.70 71.60
  C 92.61 69.79 96.28 67.32 99.90 65.15
  Q 103.88 62.77 107.29 62.42
  A 0.41 0.41 0.0 0 0 107.66 61.99
  C 107.62 61.18 108.23 61.48 108.57 61.33
  Q 110.63 60.46 111.42 60.61
  A 0.95 0.94 15.2 0 0 112.50 60.00
  Q 112.79 59.14 116.16 58.51
  A 5.02 4.78 -60.5 0 0 117.21 58.19
  Q 133.94 50.91 149.62 47.94
  Q 150.38 47.79 150.89 47.37
  A 1.00 0.97 27.3 0 1 151.58 47.16
  Q 153.78 47.33 155.86 46.47
  L 164.03 44.51
  A 1.58 0.98 -12.8 0 1 164.25 44.48
  L 176.57 44.07
  A 1.21 1.14 28.2 0 0 177.09 43.93
  Q 178.80 43.04 180.01 43.11
  Q 183.57 43.30 192.51 44.34
  Q 205.94 46.18 218.90 49.84
  Q 221.82 50.66 225.35 52.03
  Q 230.25 53.93 231.66 54.61
  Q 240.99 59.13 247.81 65.07
  Q 251.86 68.60 255.51 72.13
  Q 259.04 75.56 262.05 80.30
  A 2.71 2.71 0.0 0 1 262.37 81.07
  Q 262.50 81.66 262.65 81.85
  Q 265.52 85.47 267.61 89.95
  A 2.32 2.16 -79.8 0 0 267.97 90.51
  Q 268.53 91.13 272.14 97.86
  Q 272.80 99.09 275.96 103.38
  Q 276.94 108.05 278.00 109.70
  C 282.36 116.48 284.50 123.08 281.12 130.71
  C 276.49 105.11 262.53 79.81 242.22 63.32
  C 237.85 59.76 232.92 56.61 228.71 54.81
  Q 210.96 47.24 190.34 45.28
  Q 179.96 44.29 171.04 45.39
  Q 153.54 47.56 136.25 52.54
  C 122.01 56.63 107.69 63.90 95.32 70.02
  Q 87.95 73.66 84.68 76.25
  Q 79.55 80.31 75.43 84.45
  Q 60.96 98.99 54.15 104.46
  A 6.25 6.22 -5.7 0 0 52.50 106.47
  L 46.97 116.95
  A 4.51 4.39 -32.2 0 0 46.45 119.11
  L 46.58 126.27
  Q 45.31 125.90 44.45 126.11
  Q 43.45 126.35 43.38 127.66
  Q 43.00 134.91 45.67 141.46
  A 1.31 1.29 0.7 0 0 46.35 142.15
  Q 47.08 142.48 47.96 142.49
  Q 49.74 152.52 51.40 156.86
  Q 54.18 164.11 56.82 171.42
  C 58.20 175.24 60.05 178.50 62.02 181.93
  C 60.99 183.08 62.10 184.14 62.16 185.44
  Q 62.19 185.92 64.17 187.77
  Q 64.49 188.06 64.45 188.58
  Q 64.00 193.79 75.21 206.44
  A 0.20 0.20 0.0 0 0 75.53 206.21
  L 74.10 203.74
  A 0.64 0.64 0.0 0 1 74.42 202.83
  L 74.79 202.69
  Q 76.63 206.06 78.63 209.35
  C 81.29 213.76 84.35 217.07 87.39 220.92
  Q 89.17 223.17 91.86 225.61
  Q 95.35 228.78 98.67 231.97
  A 3.18 3.16 -10.6 0 0 99.58 232.59
  Q 109.98 237.24 121.27 240.30
  Q 112.71 239.83 103.93 235.76
  Q 104.03 236.07 103.25 235.87
  L 103.25 235.88
  Q 104.09 236.14 103.93 235.76
  Q 104.11 236.55 104.58 236.83
  Q 104.92 237.03 104.97 237.07
  Q 109.37 240.75 113.94 243.99
  C 120.43 249.79 126.10 255.59 133.83 260.38
  A 2.26 2.23 57.7 0 0 135.21 260.70
  C 138.68 260.38 142.74 259.89 146.52 260.13
  Q 152.95 260.54 162.00 261.23
  Q 173.57 262.10 179.51 261.20
  C 197.86 258.39 215.49 252.49 230.45 242.16
  Q 241.52 234.52 250.64 224.26
  Q 258.80 214.78 265.31 203.70
  L 270.93 193.36
  A 0.90 0.88 59.8 0 0 271.04 192.93
  L 271.04 191.79
  A 0.95 0.94 69.7 0 1 271.36 191.08
  Q 273.07 189.61 273.38 186.73
  A 0.05 0.05 0.0 0 0 273.29 186.70
  L 271.66 189.53
  A 0.14 0.14 0.0 0 1 271.40 189.51
  Q 271.32 189.31 270.97 189.52
  A 0.48 0.47 76.7 0 0 270.73 189.92
  Q 270.68 191.76 269.16 191.75
  A 0.27 0.27 0.0 0 0 268.93 192.17
  Q 268.95 192.20 268.96 192.21
  A 0.35 0.35 0.0 0 1 268.78 192.71
  Q 267.85 193.06 267.44 193.46
  Q 264.82 195.97 258.74 202.46
  Q 257.11 203.71 256.90 204.88
  A 0.73 0.72 -2.7 0 1 256.37 205.45
  Q 255.79 205.59 255.26 206.02
  L 253.11 208.01
  A 0.77 0.77 0.0 0 0 252.87 208.67
  Q 252.92 209.02 252.77 209.26
  A 0.17 0.17 0.0 0 1 252.49 209.29
  Q 252.41 209.19 252.30 209.15
  A 0.37 0.36 -78.8 0 0 251.80 209.49
  Q 251.80 209.52 251.86 209.68
  A 0.28 0.28 0.0 0 1 251.72 210.03
  Q 250.36 210.71 249.25 212.04
  Q 248.79 213.71 248.30 213.18
  Q 246.14 215.23 244.47 217.24
  A 1.31 1.28 -79.3 0 1 243.87 217.66
  L 243.31 217.85
  A 0.39 0.39 0.0 0 0 243.05 218.27
  Q 243.11 218.80 242.29 219.28
  Q 241.20 219.92 237.52 223.13
  L 235.04 223.96
  A 0.24 0.22 88.2 0 0 234.89 224.13
  Q 234.87 224.22 235.00 224.39
  A 0.23 0.23 0.0 0 1 234.93 224.73
  L 231.11 226.89
  L 218.66 234.50
  Q 210.40 238.97 198.66 243.59
  Q 182.10 250.11 165.22 249.90
  A 4.14 3.97 -35.9 0 1 164.28 249.77
  L 142.27 244.20
  Q 142.32 244.00 142.38 243.80
  Q 149.33 245.29 156.29 246.87
  Q 165.29 248.92 168.17 248.62
  Q 173.80 248.04 196.33 242.57
  Q 202.67 241.03 210.31 237.32
  Q 230.12 227.72 245.66 213.40
  Q 249.16 210.18 259.70 199.71
  Q 269.00 190.47 275.58 181.32
  Q 277.32 178.89 278.26 175.30
  Q 280.36 167.29 281.36 160.46
  Q 282.02 165.42 280.90 170.54
  A 0.49 0.49 0.0 0 0 281.83 170.84
  C 285.59 162.30 287.14 153.04 287.86 144.04
  Q 288.57 135.08 287.51 125.39
  C 287.16 122.17 285.79 118.85 285.04 115.43
  Q 285.30 113.79 284.50 112.32
  A 2.91 2.66 -66.9 0 1 284.23 111.55
  Q 283.72 108.86 282.75 106.26
  Q 279.72 98.14 274.21 89.47
  Q 260.86 68.43 241.76 52.34
  Q 227.09 40.21 209.99 31.91
  Q 204.94 29.46 199.52 28.01
  Q 187.84 24.89 180.00 25.06
  Q 179.17 25.07 178.25 25.06
  A 2.83 2.74 -32.8 0 1 177.29 24.87
  Q 171.52 22.55 165.79 23.40
  Q 165.31 23.47 165.02 23.02
  A 0.61 0.58 72.9 0 0 164.52 22.74
  Q 162.83 22.71 161.18 22.47
  Q 157.91 21.99 154.69 22.68
  Z
  M 278.44 91.40
  A 0.20 0.19 -23.8 0 0 278.54 91.15
  Q 274.08 80.11 268.15 70.36
  Q 256.92 51.87 238.20 42.13
  A 0.35 0.35 0.0 0 0 237.80 42.70
  Q 245.87 49.90 255.81 59.60
  Q 259.64 63.34 263.72 69.61
  C 268.63 77.14 273.52 83.24 278.16 91.32
  A 0.22 0.21 62.0 0 0 278.43 91.41
  L 278.44 91.40
  Z
  M 65.32 89.11
  Q 60.27 94.06 56.52 100.19
  A 0.12 0.12 0.0 0 0 56.70 100.34
  Q 64.17 94.05 67.23 91.05
  Q 70.29 88.05 76.72 80.70
  A 0.12 0.12 0.0 0 0 76.57 80.52
  Q 70.37 84.15 65.32 89.11
  Z
  M 38.99 115.49
  Q 38.51 115.92 38.38 116.40
  C 38.32 116.64 38.57 116.91 38.79 116.84
  A 0.19 0.19 0.0 0 0 38.91 116.72
  Q 39.10 116.15 38.99 115.49
  L 42.07 109.98
  A 0.10 0.10 0.0 0 0 41.90 109.88
  L 38.73 114.35
  A 0.61 0.61 0.0 0 0 38.71 115.02
  L 38.99 115.49
  Z
  M 38.04 113.75
  A 0.02 0.02 0.0 0 0 38.02 113.73
  A 0.02 0.02 0.0 0 0 38.00 113.75
  A 0.02 0.02 0.0 0 0 38.02 113.77
  A 0.02 0.02 0.0 0 0 38.04 113.75
  Z
  M 37.85 116.23
  A 0.09 0.09 0.0 0 0 37.76 116.14
  A 0.09 0.09 0.0 0 0 37.67 116.23
  A 0.09 0.09 0.0 0 0 37.76 116.32
  A 0.09 0.09 0.0 0 0 37.85 116.23
  Z
  M 17.30 154.97
  Q 15.80 163.12 17.05 171.17
  A 0.34 0.34 0.0 0 0 17.58 171.40
  Q 17.71 171.31 17.77 171.28
  A 0.64 0.64 0.0 0 1 18.63 171.73
  L 19.39 174.88
  A 0.25 0.25 0.0 0 0 19.89 174.82
  Q 19.90 170.08 20.19 166.03
  Q 20.19 165.98 20.23 165.94
  Q 20.25 165.92 20.30 165.84
  A 0.01 0.01 0.0 0 1 20.32 165.85
  Q 20.32 166.36 20.59 169.57
  A 0.13 0.12 -2.4 0 0 20.72 169.68
  L 20.73 169.68
  A 0.15 0.14 -89.8 0 0 20.86 169.54
  L 21.77 161.44
  Q 24.83 143.57 33.36 127.52
  Q 34.01 126.29 35.58 123.86
  Q 37.19 121.36 38.12 117.86
  A 0.23 0.23 0.0 0 0 37.71 117.68
  Q 36.99 118.74 35.39 118.37
  A 0.15 0.15 0.0 0 1 35.34 118.10
  Q 35.61 117.93 35.61 117.92
  A 0.42 0.42 0.0 0 0 34.88 117.54
  C 29.66 124.02 26.23 130.94 22.31 139.28
  Q 19.29 145.68 17.30 154.97
  Z
  M 35.97 127.01
  L 35.86 125.83
  A 0.17 0.16 57.1 0 0 35.55 125.76
  C 28.65 137.97 23.23 151.91 22.39 165.69
  C 21.87 173.99 22.73 183.21 24.89 191.09
  Q 25.67 193.91 29.03 199.36
  Q 37.99 213.87 44.08 225.99
  Q 47.29 232.38 54.56 238.67
  Q 67.46 249.84 81.21 256.28
  L 85.78 258.23
  Q 92.99 261.27 99.69 262.48
  Q 103.45 263.86 107.44 263.64
  L 112.55 263.87
  A 0.76 0.76 0.0 0 0 113.06 262.51
  Q 102.06 253.81 96.12 242.28
  Q 89.80 229.99 89.30 229.07
  Q 88.73 228.03 85.97 226.27
  Q 79.83 222.34 72.20 214.27
  A 7.18 6.97 6.2 0 0 71.47 213.58
  Q 71.43 213.54 64.61 208.85
  Q 58.25 204.47 53.99 198.22
  Q 44.46 185.18 37.11 170.94
  Q 36.92 170.57 37.14 169.28
  L 42.53 177.82
  A 0.30 0.30 0.0 0 0 43.07 177.57
  Q 40.87 170.87 40.96 164.30
  Q 43.16 171.04 45.20 177.34
  C 48.01 185.99 52.67 193.02 58.51 199.86
  Q 61.71 203.60 65.48 206.71
  Q 71.70 211.64 78.72 215.37
  A 0.46 0.46 0.0 0 0 79.30 214.67
  L 78.07 213.14
  A 1.76 0.56 60.8 0 0 77.93 212.97
  Q 67.38 201.46 61.72 188.03
  Q 54.40 170.67 49.11 155.83
  Q 47.55 151.46 44.09 143.49
  Q 43.96 143.18 44.11 142.91
  A 0.40 0.39 44.2 0 0 44.10 142.53
  C 43.39 141.30 42.76 139.38 42.62 137.62
  Q 42.62 137.72 42.62 137.81
  Q 42.46 141.18 42.33 144.13
  Q 42.28 145.27 42.75 146.24
  A 1.18 1.17 38.5 0 1 42.84 147.01
  Q 42.74 147.53 42.39 148.06
  Q 41.35 147.63 41.28 145.74
  Q 41.07 140.41 41.13 133.48
  A 0.35 0.35 0.0 0 0 40.45 133.36
  Q 38.74 138.17 38.33 142.23
  Q 38.08 144.74 38.96 150.95
  Q 39.58 155.33 40.16 159.62
  L 39.87 160.22
  A 0.45 0.45 0.0 0 1 39.02 160.12
  L 36.69 148.85
  A 0.29 0.29 0.0 0 0 36.12 148.84
  C 34.98 154.32 35.40 160.06 35.68 165.72
  L 35.21 167.00
  A 1.39 1.36 -42.1 0 0 35.16 167.81
  Q 35.97 171.29 36.87 174.80
  Q 37.44 176.99 39.58 181.11
  Q 41.65 185.11 43.47 189.30
  Q 41.88 188.80 40.63 186.34
  C 36.41 178.01 32.23 169.41 32.72 160.99
  Q 33.33 150.62 33.37 140.00
  A 3.17 2.69 54.4 0 1 33.41 139.51
  L 34.11 135.29
  Q 35.01 139.79 34.46 144.36
  A 0.28 0.28 0.0 0 0 35.01 144.47
  L 40.41 126.22
  A 1.13 1.13 0.0 0 0 39.04 124.80
  Q 37.68 125.16 35.97 127.01
  Z
  M 275.04 189.44
  L 266.47 205.26
  A 2.08 1.87 -15.4 0 1 266.31 205.51
  L 254.94 221.55
  A 0.58 0.57 67.7 0 0 254.83 221.82
  Q 254.62 223.84 253.34 225.13
  Q 249.57 228.91 248.26 232.61
  A 0.21 0.21 0.0 0 0 248.56 232.86
  Q 260.06 226.67 268.40 216.42
  Q 275.35 207.87 280.52 198.66
  Q 284.50 192.25 285.66 189.39
  Q 287.61 184.59 288.33 176.49
  Q 289.80 159.94 289.55 142.90
  A 0.18 0.17 0.0 0 0 289.37 142.73
  A 0.18 0.18 0.0 0 0 289.18 142.90
  Q 288.61 153.16 285.81 162.99
  Q 284.81 166.51 280.45 176.21
  Q 277.56 182.66 275.04 189.44
  Z
  M 18.00 173.50
  Q 17.92 173.76 17.98 173.97
  A 0.01 0.01 0.0 0 0 18.00 173.97
  L 18.00 173.50
  Q 17.99 173.29 17.91 173.15
  A 0.01 0.01 0.0 0 0 17.89 173.15
  L 18.00 173.50
  Z
  M 212.22 253.76
  Q 198.54 259.08 184.11 261.56
  Q 178.26 262.57 172.84 262.56
  Q 165.15 262.55 161.51 262.13
  Q 148.36 260.60 137.15 261.23
  A 0.29 0.29 0.0 0 0 137.04 261.78
  C 142.51 264.28 148.32 265.42 154.55 267.25
  Q 161.88 269.40 169.56 268.94
  L 184.53 272.49
  A 0.04 0.03 14.9 0 1 184.55 272.52
  L 184.54 272.77
  A 0.29 0.29 0.0 0 1 184.22 273.05
  L 167.43 271.54
  Q 162.95 270.14 159.75 270.07
  Q 155.06 269.95 150.36 269.65
  A 0.23 0.23 0.0 0 0 150.25 270.09
  Q 159.00 273.70 167.92 275.37
  Q 176.46 278.19 185.25 278.14
  Q 189.64 278.12 194.04 277.99
  Q 197.82 277.88 201.85 277.20
  Q 205.70 276.55 209.62 275.89
  L 224.58 271.54
  Q 240.23 266.92 251.84 255.60
  C 255.05 252.47 257.59 248.88 260.47 245.49
  Q 260.90 244.99 261.58 243.21
  A 2.03 2.02 80.8 0 1 262.18 242.37
  Q 263.30 241.44 263.38 240.68
  A 0.90 0.88 80.9 0 1 263.90 239.95
  Q 264.37 239.73 264.91 238.93
  Q 270.60 230.42 273.54 225.60
  Q 273.86 225.08 273.87 224.57
  A 0.22 0.22 0.0 0 0 273.49 224.43
  Q 270.42 227.94 268.61 229.82
  Q 268.14 230.30 267.51 229.38
  Q 268.32 228.81 268.53 228.05
  Q 271.80 224.82 274.76 221.04
  Q 277.85 217.10 279.47 213.01
  Q 283.08 203.87 285.02 193.91
  A 0.34 0.34 0.0 0 0 284.38 193.70
  Q 279.85 203.11 273.82 211.34
  Q 263.96 224.78 250.14 233.65
  Q 237.07 242.03 212.22 253.76
  Z
  M 85.75 223.88
  Q 85.24 223.68 84.91 222.61
  A 2.68 2.65 -81.3 0 0 83.90 221.22
  L 77.58 216.74
  A 0.59 0.55 55.5 0 0 77.13 216.64
  L 76.67 216.74
  A 0.31 0.31 0.0 0 0 76.51 217.26
  Q 80.96 221.70 85.53 224.21
  Q 85.73 224.32 85.84 224.11
  A 0.17 0.16 25.1 0 0 85.75 223.88
  Z
  M 104.44 239.34
  Q 104.44 239.32 104.23 238.89
  A 0.64 0.62 85.2 0 0 103.85 238.56
  Q 98.25 236.79 93.75 233.24
  A 0.30 0.29 -82.6 0 0 93.30 233.59
  Q 97.50 243.61 102.78 250.84
  C 104.81 253.61 109.24 257.76 111.26 259.70
  C 116.09 264.31 122.37 262.76 128.18 261.35
  A 0.65 0.65 0.0 0 0 128.44 260.21
  Q 123.74 256.43 114.03 248.44
  C 109.63 244.81 107.11 241.60 101.17 240.28
  Q 100.12 240.05 98.90 238.63
  A 0.30 0.30 0.0 0 1 99.20 238.14
  Q 100.99 238.62 102.70 238.62
  Q 104.07 238.62 104.38 239.35
  A 0.03 0.03 0.0 0 0 104.44 239.34
  Z
  M 246.24 234.22
  A 0.02 0.02 0.0 0 0 246.22 234.20
  A 0.02 0.02 0.0 0 0 246.20 234.22
  A 0.02 0.02 0.0 0 0 246.22 234.24
  A 0.02 0.02 0.0 0 0 246.24 234.22
  Z
  M 242.00 236.50
  C 241.88 236.55 241.76 236.59 241.64 236.64
  C 241.76 236.59 241.88 236.55 242.00 236.50
  Q 242.11 236.40 242.21 236.30
  Q 242.21 236.29 242.21 236.30
  Q 242.11 236.40 242.00 236.50
  Z
  M 239.61 237.89
  A 0.09 0.09 0.0 0 0 239.52 237.80
  A 0.09 0.09 0.0 0 0 239.43 237.89
  A 0.09 0.09 0.0 0 0 239.52 237.98
  A 0.09 0.09 0.0 0 0 239.61 237.89
  Z
  M 237.80 238.78
  A 0.02 0.02 0.0 0 0 237.78 238.76
  A 0.02 0.02 0.0 0 0 237.76 238.78
  A 0.02 0.02 0.0 0 0 237.78 238.80
  A 0.02 0.02 0.0 0 0 237.80 238.78
  Z"
/>
<path fill="#000000" fill-opacity="0.522" d="
  M 155.04 18.69
  L 137.42 20.57
  Q 136.60 19.30 133.74 20.30
  A 1.89 1.51 -51.3 0 1 133.38 20.38
  L 112.83 22.77
  A 0.49 0.49 0.0 0 1 112.60 21.83
  Q 120.83 18.67 130.29 17.16
  C 135.67 16.31 139.20 15.45 143.29 15.54
  Q 150.38 15.70 153.58 15.99
  Q 153.92 16.02 155.02 16.58
  A 0.29 0.28 -55.2 0 1 155.10 17.03
  Q 154.96 17.18 154.84 17.36
  Q 154.32 18.15 155.04 18.69
  Z"
/>
<path fill="#000000" fill-opacity="0.447" d="
  M 191.75 17.46
  Q 204.48 18.84 215.01 25.76
  Q 214.83 25.92 215.00 26.14
  A 0.38 0.38 0.0 0 1 214.57 26.74
  Q 207.06 23.94 197.63 21.38
  Q 195.47 20.79 191.01 18.64
  A 0.48 0.48 0.0 0 1 190.89 17.87
  Q 191.18 17.59 191.75 17.46
  Z"
/>
<path fill="#000000" fill-opacity="0.220" d="
  M 77.06 64.79
  Q 73.25 65.36 70.75 62.88
  A 0.73 0.73 0.0 0 1 70.61 62.03
  Q 72.50 58.18 75.00 54.99
  C 78.49 50.56 82.94 45.06 87.74 40.49
  C 91.89 36.53 94.47 34.44 95.89 29.70
  Q 106.13 25.64 113.52 24.05
  Q 122.87 22.03 137.42 20.57
  L 155.04 18.69
  Q 163.56 16.89 172.33 18.99
  A 0.56 0.56 0.0 0 1 172.20 20.10
  Q 159.51 20.10 146.48 22.19
  Q 132.06 24.49 119.16 31.18
  Q 101.04 40.58 88.80 51.55
  Q 83.40 56.39 77.06 64.79
  Z"
/>
<path fill="#000000" fill-opacity="0.447" d="
  M 241.76 52.34
  Q 242.27 53.84 243.58 54.44
  A 0.54 0.54 0.0 0 1 243.39 55.47
  Q 241.03 55.63 237.67 54.06
  Q 232.72 51.76 227.90 49.15
  C 223.54 46.79 219.88 46.77 214.21 46.60
  Q 211.89 46.52 207.03 45.75
  Q 199.81 44.61 192.51 44.34
  Q 183.57 43.30 180.01 43.11
  Q 178.80 43.04 177.09 43.93
  A 1.21 1.14 28.2 0 1 176.57 44.07
  L 164.25 44.48
  A 1.58 0.98 -12.8 0 0 164.03 44.51
  L 155.86 46.47
  Q 144.49 45.63 133.26 46.93
  C 128.10 47.53 124.20 49.22 119.51 50.41
  Q 118.12 50.76 117.70 50.58
  A 0.99 0.99 0.0 0 1 117.43 48.94
  Q 119.97 46.67 126.13 41.71
  A 2.23 2.13 -38.5 0 0 126.55 38.68
  Q 126.17 38.19 124.48 38.01
  Q 134.45 30.78 145.07 27.60
  Q 152.23 25.45 162.73 23.59
  A 0.35 0.34 85.0 0 0 163.01 23.25
  L 163.01 22.83
  A 0.20 0.19 -5.0 0 0 162.78 22.64
  L 155.53 23.89
  Q 155.87 23.14 154.69 22.68
  Q 157.91 21.99 161.18 22.47
  Q 162.83 22.71 164.52 22.74
  A 0.61 0.58 72.9 0 1 165.02 23.02
  Q 165.31 23.47 165.79 23.40
  Q 171.52 22.55 177.29 24.87
  A 2.83 2.74 -32.8 0 0 178.25 25.06
  Q 179.17 25.07 180.00 25.06
  Q 187.84 24.89 199.52 28.01
  Q 204.94 29.46 209.99 31.91
  Q 227.09 40.21 241.76 52.34
  Z"
/>
<path fill="#000000" fill-opacity="0.220" d="
  M 154.69 22.68
  Q 155.87 23.14 155.53 23.89
  C 145.17 26.21 135.51 29.39 126.61 35.34
  C 118.34 40.87 110.72 47.43 103.35 54.05
  C 97.32 55.82 93.23 58.43 88.04 61.12
  A 1.52 1.52 0.0 0 1 85.90 60.26
  Q 85.63 59.46 86.27 57.68
  Q 104.21 41.49 125.15 31.16
  Q 138.87 24.38 154.69 22.68
  Z"
/>
<path fill="#000000" fill-opacity="0.447" d="
  M 95.89 29.70
  C 94.47 34.44 91.89 36.53 87.74 40.49
  C 82.94 45.06 78.49 50.56 75.00 54.99
  Q 72.50 58.18 70.61 62.03
  A 0.73 0.73 0.0 0 0 70.75 62.88
  Q 73.25 65.36 77.06 64.79
  Q 64.39 81.90 51.05 98.35
  Q 48.98 100.90 47.93 101.81
  A 0.42 0.41 -12.3 0 1 47.26 101.38
  L 49.42 94.08
  A 0.59 0.59 0.0 0 0 49.02 93.34
  L 48.72 93.25
  A 0.42 0.42 0.0 0 0 48.20 93.53
  L 45.64 102.38
  A 0.31 0.30 -84.1 0 1 45.38 102.60
  L 45.33 102.61
  A 0.24 0.24 0.0 0 1 45.12 102.36
  Q 45.69 88.75 52.37 75.38
  Q 61.50 57.13 75.84 42.85
  Q 84.67 34.06 95.89 29.70
  Z"
/>
<path fill="#000000" fill-opacity="0.522" d="
  M 155.86 46.47
  Q 153.78 47.33 151.58 47.16
  A 1.00 0.97 27.3 0 0 150.89 47.37
  Q 150.38 47.79 149.62 47.94
  Q 133.94 50.91 117.21 58.19
  A 5.02 4.78 -60.5 0 1 116.16 58.51
  Q 112.79 59.14 112.50 60.00
  A 0.95 0.94 15.2 0 1 111.42 60.61
  Q 110.63 60.46 108.57 61.33
  C 108.23 61.48 107.62 61.18 107.66 61.99
  A 0.41 0.41 0.0 0 1 107.29 62.42
  Q 103.88 62.77 99.90 65.15
  C 96.28 67.32 92.61 69.79 88.70 71.60
  Q 86.76 72.50 85.11 73.87
  A 0.15 0.13 20.8 0 1 85.01 73.91
  Q 84.85 73.91 84.74 73.87
  A 0.17 0.17 0.0 0 1 84.67 73.59
  Q 92.63 64.83 94.76 63.01
  Q 104.60 54.58 114.24 46.01
  Q 119.15 41.64 124.48 38.01
  Q 126.17 38.19 126.55 38.68
  A 2.23 2.13 -38.5 0 1 126.13 41.71
  Q 119.97 46.67 117.43 48.94
  A 0.99 0.99 0.0 0 0 117.70 50.58
  Q 118.12 50.76 119.51 50.41
  C 124.20 49.22 128.10 47.53 133.26 46.93
  Q 144.49 45.63 155.86 46.47
  Z"
/>
<path fill="#000000" fill-opacity="0.729" d="
  M 278.16 91.32
  C 273.52 83.24 268.63 77.14 263.72 69.61
  Q 259.64 63.34 255.81 59.60
  Q 245.87 49.90 237.80 42.70
  A 0.35 0.35 0.0 0 1 238.20 42.13
  Q 256.92 51.87 268.15 70.36
  Q 274.08 80.11 278.54 91.15
  A 0.20 0.19 -23.8 0 1 278.44 91.40
  L 278.43 91.41
  A 0.22 0.21 62.0 0 1 278.16 91.32
  Z"
/>
<path fill="#000000" fill-opacity="0.522" d="
  M 241.76 52.34
  Q 260.86 68.43 274.21 89.47
  Q 279.72 98.14 282.75 106.26
  Q 283.72 108.86 284.23 111.55
  A 2.91 2.66 -66.9 0 0 284.50 112.32
  Q 285.30 113.79 285.04 115.43
  C 280.47 111.09 278.46 108.79 275.96 103.38
  Q 272.80 99.09 272.14 97.86
  Q 268.53 91.13 267.97 90.51
  A 2.32 2.16 -79.8 0 1 267.61 89.95
  Q 265.52 85.47 262.65 81.85
  Q 262.50 81.66 262.37 81.07
  A 2.71 2.71 0.0 0 0 262.05 80.30
  Q 259.04 75.56 255.51 72.13
  Q 251.86 68.60 247.81 65.07
  Q 240.99 59.13 231.66 54.61
  Q 230.25 53.93 225.35 52.03
  Q 221.82 50.66 218.90 49.84
  Q 205.94 46.18 192.51 44.34
  Q 199.81 44.61 207.03 45.75
  Q 211.89 46.52 214.21 46.60
  C 219.88 46.77 223.54 46.79 227.90 49.15
  Q 232.72 51.76 237.67 54.06
  Q 241.03 55.63 243.39 55.47
  A 0.54 0.54 0.0 0 0 243.58 54.44
  Q 242.27 53.84 241.76 52.34
  Z"
/>
<path fill="#15171a" d="
  M 468.83 107.05
  C 477.33 99.35 486.71 94.86 498.38 95.36
  C 520.67 96.33 530.02 112.78 530.19 133.01
  Q 530.32 147.57 530.24 193.26
  C 530.24 195.70 528.93 196.15 526.67 196.14
  Q 515.16 196.10 509.44 196.14
  Q 507.19 196.16 506.55 194.15
  A 1.00 0.96 -55.2 0 1 506.50 193.84
  Q 506.51 132.95 506.49 131.25
  C 506.44 125.80 504.19 119.19 499.41 116.32
  C 491.05 111.32 479.88 114.54 472.74 120.43
  C 471.67 121.31 469.80 122.69 468.58 124.09
  A 1.35 1.34 -24.7 0 0 468.25 124.97
  Q 468.24 158.51 468.26 193.01
  Q 468.26 196.12 465.83 196.12
  Q 451.66 196.15 446.78 196.05
  Q 444.61 196.01 444.62 193.43
  Q 444.64 123.14 444.61 57.18
  A 2.65 2.64 86.0 0 1 446.88 54.56
  Q 455.54 53.31 463.46 52.11
  Q 468.24 51.38 468.25 56.00
  Q 468.26 61.61 468.24 106.79
  A 0.35 0.35 0.0 0 0 468.83 107.05
  Z"
/>
<path fill="#000000" fill-opacity="0.447" d="
  M 103.35 54.05
  Q 99.04 58.00 94.71 61.88
  C 89.28 66.73 85.28 71.24 80.66 76.19
  A 3.03 2.90 -80.7 0 1 79.81 76.83
  Q 74.10 79.72 69.22 83.70
  A 0.11 0.10 1.2 0 1 69.07 83.55
  L 81.24 70.81
  L 96.69 58.33
  A 0.13 0.12 -47.2 0 0 96.69 58.13
  L 96.33 57.88
  A 0.27 0.26 46.0 0 0 96.03 57.87
  Q 91.49 60.90 86.93 63.96
  Q 84.33 65.70 81.01 66.17
  A 0.93 0.93 0.0 0 1 80.28 64.54
  Q 80.54 64.31 80.41 63.73
  L 86.27 57.68
  Q 85.63 59.46 85.90 60.26
  A 1.52 1.52 0.0 0 0 88.04 61.12
  C 93.23 58.43 97.32 55.82 103.35 54.05
  Z"
/>
<path fill="#000000" fill-opacity="0.522" d="
  M 81.24 70.81
  L 81.75 70.06
  A 0.23 0.23 0.0 0 0 81.42 69.75
  Q 72.93 76.49 66.13 85.02
  C 63.64 88.15 61.63 89.75 57.83 93.16
  A 0.23 0.22 88.6 0 1 57.51 92.85
  L 80.41 63.73
  Q 80.54 64.31 80.28 64.54
  A 0.93 0.93 0.0 0 0 81.01 66.17
  Q 84.33 65.70 86.93 63.96
  Q 91.49 60.90 96.03 57.87
  A 0.27 0.26 46.0 0 1 96.33 57.88
  L 96.69 58.13
  A 0.13 0.12 -47.2 0 1 96.69 58.33
  L 81.24 70.81
  Z"
/>
<path fill="#15171a" d="
  M 757.37 119.17
  Q 757.35 155.14 757.41 169.40
  Q 757.44 177.89 764.72 179.21
  A 3.44 3.34 -41.8 0 0 765.69 179.25
  Q 769.61 178.84 771.64 177.85
  Q 774.22 176.58 775.31 176.40
  A 3.26 3.26 0.0 0 1 778.98 178.70
  Q 780.86 185.16 781.89 189.07
  Q 782.45 191.18 780.29 192.37
  C 769.47 198.32 752.13 200.48 741.95 191.49
  C 736.50 186.67 733.82 178.98 733.79 171.76
  Q 733.67 141.06 733.77 118.97
  A 0.60 0.60 0.0 0 0 733.17 118.37
  L 717.77 118.37
  A 1.81 1.81 0.0 0 1 716.03 116.04
  L 719.80 103.30
  A 3.12 3.11 4.8 0 1 722.43 101.09
  L 733.24 99.83
  A 0.66 0.66 0.0 0 0 733.81 99.28
  L 737.92 71.84
  A 3.20 3.20 0.0 0 1 740.63 69.14
  L 753.95 67.24
  A 1.75 1.73 50.8 0 1 754.79 67.33
  Q 756.36 67.87 757.10 69.14
  A 2.05 1.93 -61.7 0 1 757.37 70.15
  L 757.37 99.10
  A 0.52 0.52 0.0 0 0 757.89 99.62
  Q 769.66 99.65 777.58 99.60
  C 780.08 99.59 780.63 100.79 780.63 103.08
  Q 780.61 107.54 780.62 115.75
  C 780.62 118.01 778.99 118.46 776.96 118.43
  Q 765.38 118.28 758.12 118.41
  A 0.77 0.76 -0.8 0 0 757.37 119.17
  Z"
/>
<path fill="#000000" fill-opacity="0.447" d="
  M 67.23 91.05
  Q 64.17 94.05 56.70 100.34
  A 0.12 0.12 0.0 0 1 56.52 100.19
  Q 60.27 94.06 65.32 89.11
  Q 70.37 84.15 76.57 80.52
  A 0.12 0.12 0.0 0 1 76.72 80.70
  Q 70.29 88.05 67.23 91.05
  Z"
/>
<path fill="#15171a" d="
  M 414.92 103.22
  Q 420.87 97.45 430.35 95.62
  C 433.54 95.00 435.48 96.12 435.41 99.68
  Q 435.31 104.46 435.41 109.25
  Q 435.44 111.09 433.77 112.15
  A 0.23 0.22 19.7 0 1 433.68 112.19
  L 424.10 114.32
  A 0.95 0.95 0.0 0 0 423.42 115.60
  Q 426.06 122.23 426.10 129.69
  C 426.24 158.64 400.60 168.20 375.95 164.14
  A 1.46 1.44 -54.3 0 0 375.02 164.30
  C 366.40 168.90 367.09 178.25 377.75 178.89
  Q 395.51 179.95 400.17 180.07
  C 415.42 180.46 435.69 184.68 435.39 204.30
  C 434.88 238.00 393.90 243.99 368.94 239.82
  C 354.48 237.41 342.32 228.53 343.06 212.46
  C 343.50 202.95 349.95 195.86 358.06 190.90
  A 0.31 0.31 0.0 0 0 358.03 190.35
  Q 353.62 188.26 351.48 183.86
  C 346.90 174.40 351.47 163.60 360.53 159.05
  A 0.32 0.32 0.0 0 0 360.55 158.49
  C 346.95 150.08 343.37 133.07 347.65 118.60
  C 354.89 94.10 387.36 91.08 407.20 99.29
  Q 410.08 100.49 413.88 103.29
  A 0.80 0.80 0.0 0 0 414.92 103.22
  Z
  M 404.8972 128.4472
  A 16.45 16.45 0.0 0 0 388.4185 112.0259
  L 383.6785 112.0342
  A 16.45 16.45 0.0 0 0 367.2572 128.5128
  L 367.2628 131.7128
  A 16.45 16.45 0.0 0 0 383.7415 148.1341
  L 388.4815 148.1258
  A 16.45 16.45 0.0 0 0 404.9028 131.6472
  L 404.8972 128.4472
  Z
  M 414.37 207.29
  C 414.37 199.92 407.70 198.05 401.91 197.60
  Q 393.26 196.93 374.25 196.27
  A 2.67 2.64 34.1 0 0 373.12 196.48
  C 366.52 199.20 362.76 205.99 364.25 213.03
  C 365.39 218.42 370.07 221.68 375.06 222.94
  C 385.91 225.66 399.06 224.85 408.23 218.05
  Q 414.38 213.49 414.37 207.29
  Z"
/>
<path fill="#15171a" d="
  M 587.91 95.34
  C 618.71 95.31 636.50 116.87 636.52 146.40
  C 636.54 175.93 618.79 197.51 588.00 197.54
  C 557.20 197.56 539.41 176.01 539.39 146.48
  C 539.36 116.94 557.11 95.36 587.91 95.34
  Z
  M 563.76 146.43
  C 563.75 162.27 568.41 179.34 587.94 179.35
  C 607.46 179.36 612.14 162.29 612.14 146.45
  C 612.15 130.62 607.49 113.55 587.97 113.54
  C 568.45 113.53 563.77 130.59 563.76 146.43
  Z"
/>
<path fill="#15171a" d="
  M 709.75 102.44
  A 1.89 1.84 -53.0 0 1 709.93 103.85
  Q 707.42 113.09 706.72 115.20
  C 705.85 117.81 703.96 118.06 701.47 117.24
  C 693.75 114.66 668.12 108.52 666.07 122.04
  C 664.96 129.33 673.11 133.00 678.94 134.84
  Q 689.36 138.14 696.71 141.04
  C 711.21 146.77 716.63 158.90 712.67 173.99
  C 709.27 186.95 697.45 194.67 684.61 196.61
  Q 664.97 199.57 647.31 192.46
  Q 645.62 191.78 644.14 190.64
  A 2.70 2.68 25.6 0 1 643.17 187.91
  Q 644.17 183.58 646.32 176.66
  Q 647.07 174.25 649.53 174.13
  A 2.21 1.99 51.3 0 1 650.38 174.27
  C 660.31 178.13 672.75 180.54 683.38 178.44
  C 688.69 177.39 692.66 173.51 691.68 167.69
  C 690.66 161.69 684.45 158.83 679.00 157.04
  C 666.31 152.85 646.93 149.64 644.05 131.30
  C 641.46 114.77 649.69 102.65 665.19 97.68
  C 679.03 93.23 695.31 95.45 708.63 101.02
  A 1.25 1.23 -3.5 0 1 709.23 101.54
  L 709.75 102.44
  Z"
/>
<path fill="#000000" fill-opacity="0.729" d="
  M 285.04 115.43
  C 285.79 118.85 287.16 122.17 287.51 125.39
  Q 288.57 135.08 287.86 144.04
  C 287.14 153.04 285.59 162.30 281.83 170.84
  A 0.49 0.49 0.0 0 1 280.90 170.54
  Q 282.02 165.42 281.36 160.46
  Q 281.03 159.24 281.56 157.28
  L 281.90 157.34
  A 0.72 0.71 -83.3 0 0 282.74 156.67
  L 283.48 139.76
  A 1.07 1.07 0.0 0 0 283.04 138.84
  Q 282.36 138.35 281.86 138.79
  L 281.12 130.71
  C 284.50 123.08 282.36 116.48 278.00 109.70
  Q 276.94 108.05 275.96 103.38
  C 278.46 108.79 280.47 111.09 285.04 115.43
  Z"
/>
<path fill="#000000" fill-opacity="0.729" d="
  M 299.33 122.65
  C 305.84 138.65 310.64 159.10 304.32 175.86
  Q 299.97 187.42 292.64 197.90
  C 291.40 199.67 290.97 203.55 290.29 205.95
  Q 286.15 220.48 278.92 230.91
  Q 270.25 243.44 256.99 254.22
  L 256.47 252.94
  A 0.87 0.87 0.0 0 1 256.59 252.09
  L 266.28 239.53
  Q 266.12 240.41 266.23 241.05
  A 0.70 0.69 -24.4 0 0 267.36 241.47
  C 277.41 233.16 285.50 220.82 287.34 208.25
  Q 287.48 207.26 286.45 206.69
  L 288.35 203.77
  A 0.28 0.28 0.0 0 0 288.10 203.34
  Q 287.09 203.41 286.57 204.36
  A 0.28 0.28 0.0 0 1 286.21 204.49
  L 286.20 204.48
  A 0.52 0.51 19.8 0 1 285.90 203.85
  Q 289.39 193.05 289.58 191.36
  Q 290.92 179.20 295.19 167.74
  Q 295.43 180.42 293.56 189.73
  Q 293.03 192.38 293.11 193.88
  A 0.18 0.18 0.0 0 0 293.44 193.97
  Q 298.25 186.28 300.86 181.14
  Q 301.22 180.42 304.09 173.13
  A 2.08 2.07 -39.4 0 0 304.20 172.02
  Q 303.94 170.51 304.71 170.10
  A 0.75 0.74 -17.6 0 0 305.10 169.36
  Q 304.85 167.45 305.72 164.80
  C 306.78 161.59 306.20 158.64 306.18 155.42
  Q 306.17 153.55 305.63 150.73
  Q 304.18 143.15 302.33 135.72
  C 301.66 132.38 300.36 128.29 297.80 125.95
  C 296.59 124.84 295.64 125.84 294.87 126.91
  A 0.50 0.49 58.8 0 1 293.98 126.69
  Q 293.72 125.04 292.83 122.48
  A 0.35 0.34 -55.6 0 0 292.16 122.61
  L 292.25 125.92
  L 286.42 104.49
  A 0.23 0.23 0.0 0 1 286.73 104.22
  Q 290.35 105.92 292.19 109.68
  Q 295.01 115.45 299.33 122.65
  Z"
/>
<path fill="#000000" fill-opacity="0.522" d="
  M 38.99 115.49
  L 38.71 115.02
  A 0.61 0.61 0.0 0 1 38.73 114.35
  L 41.90 109.88
  A 0.10 0.10 0.0 0 1 42.07 109.98
  L 38.99 115.49
  Z"
/>
<circle fill="#000000" fill-opacity="0.447" cx="38.02" cy="113.75" r="0.02"/>
<circle fill="#000000" fill-opacity="0.447" cx="37.76" cy="116.23" r="0.09"/>
<path fill="#000000" fill-opacity="0.447" d="
  M 38.99 115.49
  Q 39.10 116.15 38.91 116.72
  A 0.19 0.19 0.0 0 1 38.79 116.84
  C 38.57 116.91 38.32 116.64 38.38 116.40
  Q 38.51 115.92 38.99 115.49
  Z"
/>
<path fill="#000000" fill-opacity="0.522" d="
  M 21.77 161.44
  C 18.52 160.88 17.75 157.93 17.30 154.97
  Q 19.29 145.68 22.31 139.28
  C 26.23 130.94 29.66 124.02 34.88 117.54
  A 0.42 0.42 0.0 0 1 35.61 117.92
  Q 35.61 117.93 35.34 118.10
  A 0.15 0.15 0.0 0 0 35.39 118.37
  Q 36.99 118.74 37.71 117.68
  A 0.23 0.23 0.0 0 1 38.12 117.86
  Q 37.19 121.36 35.58 123.86
  Q 34.01 126.29 33.36 127.52
  Q 24.83 143.57 21.77 161.44
  Z"
/>
<path fill="#000000" fill-opacity="0.522" d="
  M 302.33 135.72
  L 297.70 128.64
  A 0.46 0.46 0.0 0 0 296.85 128.83
  L 294.95 143.00
  L 292.25 125.92
  L 292.16 122.61
  A 0.35 0.34 -55.6 0 1 292.83 122.48
  Q 293.72 125.04 293.98 126.69
  A 0.50 0.49 58.8 0 0 294.87 126.91
  C 295.64 125.84 296.59 124.84 297.80 125.95
  C 300.36 128.29 301.66 132.38 302.33 135.72
  Z"
/>
<path fill="#000000" fill-opacity="0.729" d="
  M 34.11 135.29
  Q 34.06 131.06 35.23 127.56
  Q 35.38 127.12 35.97 127.01
  Q 37.68 125.16 39.04 124.80
  A 1.13 1.13 0.0 0 1 40.41 126.22
  L 35.01 144.47
  A 0.28 0.28 0.0 0 1 34.46 144.36
  Q 35.01 139.79 34.11 135.29
  Z"
/>
<path fill="#000000" fill-opacity="0.220" d="
  M 35.97 127.01
  Q 35.38 127.12 35.23 127.56
  Q 34.06 131.06 34.11 135.29
  L 33.41 139.51
  A 3.17 2.69 54.4 0 0 33.37 140.00
  Q 33.33 150.62 32.72 160.99
  C 32.23 169.41 36.41 178.01 40.63 186.34
  Q 41.88 188.80 43.47 189.30
  Q 44.26 193.80 46.44 198.01
  Q 47.63 200.30 49.63 201.69
  A 1.57 1.57 0.0 0 0 52.04 200.86
  Q 52.19 200.37 52.39 199.11
  Q 52.50 198.43 52.92 198.22
  Q 53.34 198.01 53.99 198.22
  Q 58.25 204.47 64.61 208.85
  Q 71.43 213.54 71.47 213.58
  A 7.18 6.97 6.2 0 1 72.20 214.27
  Q 79.83 222.34 85.97 226.27
  Q 88.73 228.03 89.30 229.07
  Q 89.80 229.99 96.12 242.28
  Q 102.06 253.81 113.06 262.51
  A 0.76 0.76 0.0 0 1 112.55 263.87
  L 107.44 263.64
  Q 103.61 260.85 99.69 262.48
  Q 92.99 261.27 85.78 258.23
  C 93.91 258.68 101.08 260.25 110.06 261.93
  A 0.27 0.26 -80.7 0 0 110.37 261.70
  Q 110.42 261.28 109.89 261.10
  Q 107.58 260.32 105.81 259.96
  Q 94.21 257.58 91.23 256.95
  Q 86.33 255.90 81.21 256.28
  Q 67.46 249.84 54.56 238.67
  Q 47.29 232.38 44.08 225.99
  Q 37.99 213.87 29.03 199.36
  Q 25.67 193.91 24.89 191.09
  C 22.73 183.21 21.87 173.99 22.39 165.69
  C 23.23 151.91 28.65 137.97 35.55 125.76
  A 0.17 0.16 57.1 0 1 35.86 125.83
  L 35.97 127.01
  Z"
/>
<path fill="#000000" fill-opacity="0.729" d="
  M 46.58 126.27
  L 47.96 142.49
  Q 47.08 142.48 46.35 142.15
  A 1.31 1.29 0.7 0 1 45.67 141.46
  Q 43.00 134.91 43.38 127.66
  Q 43.45 126.35 44.45 126.11
  Q 45.31 125.90 46.58 126.27
  Z"
/>
<path fill="#000000" fill-opacity="0.447" d="
  M 302.33 135.72
  Q 304.18 143.15 305.63 150.73
  Q 306.17 153.55 306.18 155.42
  C 306.20 158.64 306.78 161.59 305.72 164.80
  Q 304.85 167.45 305.10 169.36
  A 0.75 0.74 -17.6 0 1 304.71 170.10
  Q 303.94 170.51 304.20 172.02
  A 2.08 2.07 -39.4 0 1 304.09 173.13
  Q 301.22 180.42 300.86 181.14
  Q 298.25 186.28 293.44 193.97
  A 0.18 0.18 0.0 0 1 293.11 193.88
  Q 293.03 192.38 293.56 189.73
  Q 295.43 180.42 295.19 167.74
  Q 296.08 155.96 294.95 143.00
  L 296.85 128.83
  A 0.46 0.46 0.0 0 1 297.70 128.64
  L 302.33 135.72
  Z"
/>
<path fill="#000000" fill-opacity="0.220" d="
  M 42.39 148.06
  Q 42.56 148.68 42.33 148.86
  Q 42.08 151.34 42.59 153.65
  Q 42.56 157.94 44.47 161.91
  Q 44.23 162.70 44.56 163.57
  Q 44.65 165.19 45.03 164.91
  Q 45.49 169.20 46.29 167.40
  Q 46.89 168.18 46.53 169.91
  A 2.28 2.16 47.3 0 0 46.52 170.72
  Q 46.99 173.46 48.39 175.46
  Q 48.45 177.05 49.27 177.32
  Q 49.24 177.35 49.20 177.38
  Q 50.05 180.74 51.97 183.64
  Q 51.97 183.67 51.97 183.69
  Q 52.18 185.07 53.00 185.57
  L 54.30 189.49
  A 1.32 1.31 -83.4 0 0 54.85 190.19
  L 55.44 190.55
  Q 55.55 191.59 56.50 192.53
  Q 56.79 193.40 56.93 192.76
  Q 57.34 194.43 58.62 196.17
  Q 59.87 198.84 62.04 201.51
  A 4.37 3.61 17.8 0 1 62.54 202.29
  Q 63.67 204.63 65.48 206.71
  Q 61.71 203.60 58.51 199.86
  C 52.67 193.02 48.01 185.99 45.20 177.34
  Q 43.16 171.04 40.96 164.30
  Q 41.52 161.93 40.16 159.62
  Q 39.58 155.33 38.96 150.95
  Q 38.08 144.74 38.33 142.23
  Q 38.74 138.17 40.45 133.36
  A 0.35 0.35 0.0 0 1 41.13 133.48
  Q 41.07 140.41 41.28 145.74
  Q 41.35 147.63 42.39 148.06
  Z"
/>
<path fill="#000000" fill-opacity="0.522" d="
  M 65.48 206.71
  Q 63.67 204.63 62.54 202.29
  A 4.37 3.61 17.8 0 0 62.04 201.51
  Q 59.87 198.84 58.62 196.17
  Q 59.61 194.90 56.93 192.76
  Q 56.79 193.40 56.50 192.53
  Q 56.26 191.39 55.44 190.55
  L 54.85 190.19
  A 1.32 1.31 -83.4 0 1 54.30 189.49
  L 53.00 185.57
  Q 53.18 184.48 51.97 183.69
  Q 51.97 183.67 51.97 183.64
  Q 51.08 180.23 49.20 177.38
  Q 49.24 177.35 49.27 177.32
  Q 49.33 175.46 48.39 175.46
  Q 46.99 173.46 46.52 170.72
  A 2.28 2.16 47.3 0 1 46.53 169.91
  Q 46.89 168.18 46.29 167.40
  Q 45.98 164.88 45.03 164.91
  Q 44.65 165.19 44.56 163.57
  Q 45.82 162.73 44.47 161.91
  Q 42.56 157.94 42.59 153.65
  Q 43.65 152.06 42.33 148.86
  Q 42.56 148.68 42.39 148.06
  Q 42.74 147.53 42.84 147.01
  A 1.18 1.17 38.5 0 0 42.75 146.24
  Q 42.28 145.27 42.33 144.13
  Q 42.46 141.18 42.62 137.81
  Q 42.62 137.72 42.62 137.62
  C 42.76 139.38 43.39 141.30 44.10 142.53
  A 0.40 0.39 44.2 0 1 44.11 142.91
  Q 43.96 143.18 44.09 143.49
  Q 47.55 151.46 49.11 155.83
  Q 54.40 170.67 61.72 188.03
  Q 67.38 201.46 77.93 212.97
  A 1.76 0.56 60.8 0 1 78.07 213.14
  L 79.30 214.67
  A 0.46 0.46 0.0 0 1 78.72 215.37
  Q 71.70 211.64 65.48 206.71
  Z
  M 54.84 189.22
  A 0.03 0.03 0.0 0 0 54.81 189.19
  A 0.03 0.03 0.0 0 0 54.78 189.22
  A 0.03 0.03 0.0 0 0 54.81 189.25
  A 0.03 0.03 0.0 0 0 54.84 189.22
  Z"
/>
<path fill="#000000" fill-opacity="0.957" d="
  M 281.56 157.28
  Q 282.50 148.04 281.86 138.79
  Q 282.36 138.35 283.04 138.84
  A 1.07 1.07 0.0 0 1 283.48 139.76
  L 282.74 156.67
  A 0.72 0.71 -83.3 0 1 281.90 157.34
  L 281.56 157.28
  Z"
/>
<path fill="#000000" fill-opacity="0.729" d="
  M 280.52 198.66
  L 283.71 182.72
  A 0.36 0.36 0.0 0 0 283.08 182.43
  Q 279.81 186.63 275.04 189.44
  Q 277.56 182.66 280.45 176.21
  Q 284.81 166.51 285.81 162.99
  Q 288.61 153.16 289.18 142.90
  A 0.18 0.18 0.0 0 1 289.37 142.73
  A 0.18 0.17 -0.0 0 1 289.55 142.90
  Q 289.80 159.94 288.33 176.49
  Q 287.61 184.59 285.66 189.39
  Q 284.50 192.25 280.52 198.66
  Z"
/>
<path fill="#000000" fill-opacity="0.729" d="
  M 40.16 159.62
  Q 41.52 161.93 40.96 164.30
  Q 40.87 170.87 43.07 177.57
  A 0.30 0.30 0.0 0 1 42.53 177.82
  L 37.14 169.28
  L 36.75 168.29
  Q 36.53 167.66 35.98 167.46
  L 35.68 165.72
  C 35.40 160.06 34.98 154.32 36.12 148.84
  A 0.29 0.29 0.0 0 1 36.69 148.85
  L 39.02 160.12
  A 0.45 0.45 0.0 0 0 39.87 160.22
  L 40.16 159.62
  Z"
/>
<path fill="#000000" fill-opacity="0.957" d="
  M 42.33 148.86
  Q 43.65 152.06 42.59 153.65
  Q 42.08 151.34 42.33 148.86
  Z"
/>
<path fill="#000000" fill-opacity="0.220" d="
  M 21.77 161.44
  L 20.86 169.54
  A 0.15 0.14 -89.8 0 1 20.73 169.68
  L 20.72 169.68
  A 0.13 0.12 -2.4 0 1 20.59 169.57
  Q 20.32 166.36 20.32 165.85
  A 0.01 0.01 0.0 0 0 20.30 165.84
  Q 20.25 165.92 20.23 165.94
  Q 20.19 165.98 20.19 166.03
  Q 19.90 170.08 19.89 174.82
  A 0.25 0.25 0.0 0 1 19.39 174.88
  L 18.63 171.73
  A 0.64 0.64 0.0 0 0 17.77 171.28
  Q 17.71 171.31 17.58 171.40
  A 0.34 0.34 0.0 0 1 17.05 171.17
  Q 15.80 163.12 17.30 154.97
  C 17.75 157.93 18.52 160.88 21.77 161.44
  Z
  M 18.79 163.25
  A 0.04 0.04 0.0 0 0 18.75 163.21
  A 0.04 0.04 0.0 0 0 18.71 163.25
  A 0.04 0.04 0.0 0 0 18.75 163.29
  A 0.04 0.04 0.0 0 0 18.79 163.25
  Z
  M 19.80 164.28
  A 0.02 0.02 0.0 0 0 19.78 164.26
  A 0.02 0.02 0.0 0 0 19.76 164.28
  A 0.02 0.02 0.0 0 0 19.78 164.30
  A 0.02 0.02 0.0 0 0 19.80 164.28
  Z
  M 18.76 165.27
  A 0.11 0.11 0.0 0 0 18.65 165.16
  A 0.11 0.11 0.0 0 0 18.54 165.27
  A 0.11 0.11 0.0 0 0 18.65 165.38
  A 0.11 0.11 0.0 0 0 18.76 165.27
  Z
  M 18.15 169.79
  A 0.06 0.06 0.0 0 0 18.09 169.73
  A 0.06 0.06 0.0 0 0 18.03 169.79
  A 0.06 0.06 0.0 0 0 18.09 169.85
  A 0.06 0.06 0.0 0 0 18.15 169.79
  Z"
/>
<path fill="#000000" fill-opacity="0.957" d="
  M 44.56 163.57
  Q 44.23 162.70 44.47 161.91
  Q 45.82 162.73 44.56 163.57
  Z"
/>
<circle fill="#000000" fill-opacity="0.729" cx="18.75" cy="163.25" r="0.04"/>
<circle fill="#000000" fill-opacity="0.729" cx="19.78" cy="164.28" r="0.02"/>
<circle fill="#000000" fill-opacity="0.522" cx="18.65" cy="165.27" r="0.11"/>
<path fill="#000000" fill-opacity="0.729" d="
  M 46.29 167.40
  Q 45.49 169.20 45.03 164.91
  Q 45.98 164.88 46.29 167.40
  Z"
/>
<path fill="#000000" fill-opacity="0.447" d="
  M 35.98 167.46
  Q 36.10 168.19 36.75 168.29
  L 37.14 169.28
  Q 36.92 170.57 37.11 170.94
  Q 44.46 185.18 53.99 198.22
  Q 53.34 198.01 52.92 198.22
  Q 52.50 198.43 52.39 199.11
  Q 52.19 200.37 52.04 200.86
  A 1.57 1.57 0.0 0 1 49.63 201.69
  Q 47.63 200.30 46.44 198.01
  Q 44.26 193.80 43.47 189.30
  Q 41.65 185.11 39.58 181.11
  Q 37.44 176.99 36.87 174.80
  Q 35.97 171.29 35.16 167.81
  A 1.39 1.36 -42.1 0 1 35.21 167.00
  L 35.68 165.72
  L 35.98 167.46
  Z"
/>
<path fill="#000000" fill-opacity="0.957" d="
  M 36.75 168.29
  Q 36.10 168.19 35.98 167.46
  Q 36.53 167.66 36.75 168.29
  Z"
/>
<circle fill="#000000" fill-opacity="0.957" cx="18.09" cy="169.79" r="0.06"/>
<path fill="#000000" fill-opacity="0.220" d="
  M 18.00 173.50
  L 17.89 173.15
  A 0.01 0.01 0.0 0 1 17.91 173.15
  Q 17.99 173.29 18.00 173.50
  Z"
/>
<path fill="#000000" fill-opacity="0.220" d="
  M 18.00 173.50
  L 18.00 173.97
  A 0.01 0.01 0.0 0 1 17.98 173.97
  Q 17.92 173.76 18.00 173.50
  Z"
/>
<path fill="#000000" fill-opacity="0.957" d="
  M 49.27 177.32
  Q 48.45 177.05 48.39 175.46
  Q 49.33 175.46 49.27 177.32
  Z"
/>
<path fill="#000000" fill-opacity="0.957" d="
  M 51.97 183.64
  Q 50.05 180.74 49.20 177.38
  Q 51.08 180.23 51.97 183.64
  Z"
/>
<path fill="#000000" fill-opacity="0.729" d="
  M 62.02 181.93
  L 74.79 202.69
  L 74.42 202.83
  A 0.64 0.64 0.0 0 0 74.10 203.74
  L 75.53 206.21
  A 0.20 0.20 0.0 0 1 75.21 206.44
  Q 64.00 193.79 64.45 188.58
  Q 64.49 188.06 64.17 187.77
  Q 62.19 185.92 62.16 185.44
  C 62.10 184.14 60.99 183.08 62.02 181.93
  Z"
/>
<path fill="#000000" fill-opacity="0.522" d="
  M 280.52 198.66
  Q 275.35 207.87 268.40 216.42
  Q 260.06 226.67 248.56 232.86
  A 0.21 0.21 0.0 0 1 248.26 232.61
  Q 249.57 228.91 253.34 225.13
  Q 254.62 223.84 254.83 221.82
  A 0.58 0.57 67.7 0 1 254.94 221.55
  L 266.31 205.51
  A 2.08 1.87 -15.4 0 0 266.47 205.26
  L 275.04 189.44
  Q 279.81 186.63 283.08 182.43
  A 0.36 0.36 0.0 0 1 283.71 182.72
  L 280.52 198.66
  Z"
/>
<path fill="#000000" fill-opacity="0.957" d="
  M 53.00 185.57
  Q 52.18 185.07 51.97 183.69
  Q 53.18 184.48 53.00 185.57
  Z"
/>
<path fill="#000000" fill-opacity="0.220" d="
  M 265.31 203.70
  Q 261.84 204.54 258.74 202.46
  Q 264.82 195.97 267.44 193.46
  Q 267.85 193.06 268.78 192.71
  A 0.35 0.35 0.0 0 0 268.96 192.21
  Q 268.95 192.20 268.93 192.17
  A 0.27 0.27 0.0 0 1 269.16 191.75
  Q 270.68 191.76 270.73 189.92
  A 0.48 0.47 76.7 0 1 270.97 189.52
  Q 271.32 189.31 271.40 189.51
  A 0.14 0.14 0.0 0 0 271.66 189.53
  L 273.29 186.70
  A 0.05 0.05 0.0 0 1 273.38 186.73
  Q 273.07 189.61 271.36 191.08
  A 0.95 0.94 69.7 0 0 271.04 191.79
  L 271.04 192.93
  A 0.90 0.88 59.8 0 1 270.93 193.36
  L 265.31 203.70
  Z
  M 270.13 192.10
  Q 270.07 192.10 270.00 192.10
  A 0.21 0.21 0.0 0 0 269.94 192.50
  Q 270.81 192.87 270.88 192.87
  A 0.71 0.28 24.2 0 0 270.13 192.10
  Z
  M 267.52 195.27
  A 0.06 0.06 0.0 0 0 267.46 195.21
  A 0.06 0.06 0.0 0 0 267.40 195.27
  A 0.06 0.06 0.0 0 0 267.46 195.33
  A 0.06 0.06 0.0 0 0 267.52 195.27
  Z"
/>
<circle fill="#000000" fill-opacity="0.729" cx="54.81" cy="189.22" r="0.03"/>
<path fill="#000000" fill-opacity="0.729" d="
  M 56.50 192.53
  Q 55.55 191.59 55.44 190.55
  Q 56.26 191.39 56.50 192.53
  Z"
/>
<path fill="#000000" fill-opacity="0.957" d="
  M 270.88 192.87
  Q 270.81 192.87 269.94 192.50
  A 0.21 0.21 0.0 0 1 270.00 192.10
  Q 270.07 192.10 270.13 192.10
  A 0.71 0.28 24.2 0 1 270.88 192.87
  Z"
/>
<path fill="#000000" fill-opacity="0.729" d="
  M 58.62 196.17
  Q 57.34 194.43 56.93 192.76
  Q 59.61 194.90 58.62 196.17
  Z"
/>
<path fill="#000000" fill-opacity="0.447" d="
  M 268.53 228.05
  Q 260.27 228.27 254.05 237.70
  Q 254.02 237.08 253.74 238.04
  Q 248.09 240.79 243.06 244.54
  Q 236.35 249.55 234.37 250.72
  C 226.95 255.12 219.40 260.45 209.96 261.08
  A 0.67 0.67 0.0 0 1 209.46 259.92
  C 210.91 258.58 213.72 256.11 212.22 253.76
  Q 237.07 242.03 250.14 233.65
  Q 263.96 224.78 273.82 211.34
  Q 279.85 203.11 284.38 193.70
  A 0.34 0.34 0.0 0 1 285.02 193.91
  Q 283.08 203.87 279.47 213.01
  Q 277.85 217.10 274.76 221.04
  Q 271.80 224.82 268.53 228.05
  Z"
/>
<circle fill="#000000" fill-opacity="0.729" cx="267.46" cy="195.27" r="0.06"/>
<ellipse fill="#000000" fill-opacity="0.957" cx="0.00" cy="0.00" transform="translate(257.53,204.18) rotate(-134.6)" rx="0.14" ry="0.06"/>
<path fill="#000000" fill-opacity="0.957" d="
  M 255.26 206.02
  Q 255.56 206.00 255.70 206.06
  A 0.11 0.11 0.0 0 1 255.73 206.25
  Q 255.57 206.39 255.26 206.02
  Z"
/>
<path fill="#000000" fill-opacity="0.522" d="
  M 266.28 239.53
  Q 273.52 228.78 279.52 217.29
  C 281.61 213.30 283.87 210.15 286.45 206.69
  Q 287.48 207.26 287.34 208.25
  C 285.50 220.82 277.41 233.16 267.36 241.47
  A 0.70 0.69 -24.4 0 1 266.23 241.05
  Q 266.12 240.41 266.28 239.53
  Z"
/>
<circle fill="#000000" fill-opacity="0.957" cx="254.76" cy="207.19" r="0.06"/>
<circle fill="#000000" fill-opacity="0.957" cx="253.63" cy="208.16" r="0.06"/>
<ellipse fill="#000000" fill-opacity="0.957" cx="0.00" cy="0.00" transform="translate(250.64,211.19) rotate(-149.9)" rx="0.09" ry="0.05"/>
<path fill="#000000" fill-opacity="0.957" d="
  M 249.25 212.04
  Q 249.87 211.94 249.80 212.30
  Q 249.55 212.38 249.25 212.04
  Z"
/>
<path fill="#000000" fill-opacity="0.522" d="
  M 85.84 224.11
  Q 85.73 224.32 85.53 224.21
  Q 80.96 221.70 76.51 217.26
  A 0.31 0.31 0.0 0 1 76.67 216.74
  L 77.13 216.64
  A 0.59 0.55 55.5 0 1 77.58 216.74
  L 83.90 221.22
  A 2.68 2.65 -81.3 0 1 84.91 222.61
  Q 85.24 223.68 85.75 223.88
  A 0.17 0.16 25.1 0 1 85.84 224.11
  Z"
/>
<path fill="#000000" fill-opacity="0.220" d="
  M 250.64 224.26
  Q 241.52 234.52 230.45 242.16
  C 215.49 252.49 197.86 258.39 179.51 261.20
  Q 173.57 262.10 162.00 261.23
  Q 152.95 260.54 146.52 260.13
  C 142.74 259.89 138.68 260.38 135.21 260.70
  A 2.26 2.23 57.7 0 1 133.83 260.38
  C 126.10 255.59 120.43 249.79 113.94 243.99
  Q 120.78 241.99 127.55 242.87
  Q 135.89 243.95 142.27 244.20
  L 164.28 249.77
  A 4.14 3.97 -35.9 0 0 165.22 249.90
  Q 182.10 250.11 198.66 243.59
  Q 210.40 238.97 218.66 234.50
  C 222.57 235.24 226.39 233.66 229.64 231.59
  Q 232.96 229.48 231.11 226.89
  L 234.93 224.73
  A 0.23 0.23 0.0 0 0 235.00 224.39
  Q 234.87 224.22 234.89 224.13
  A 0.24 0.22 88.2 0 1 235.04 223.96
  L 237.52 223.13
  Q 240.37 224.97 242.76 224.74
  Q 248.65 224.18 250.64 224.26
  Z"
/>
<path fill="#000000" fill-opacity="0.729" d="
  M 224.58 271.54
  C 228.46 268.07 233.75 266.27 237.87 264.09
  Q 247.32 259.07 254.17 250.69
  Q 254.91 249.77 269.72 230.80
  A 0.48 0.48 0.0 0 0 269.66 230.15
  L 269.65 230.14
  A 0.45 0.45 0.0 0 0 269.04 230.14
  Q 252.68 245.32 232.60 255.62
  A 0.26 0.26 0.0 0 1 232.32 255.19
  L 253.74 238.04
  Q 254.02 237.08 254.05 237.70
  L 265.47 231.22
  Q 266.51 230.84 266.96 229.89
  L 267.51 229.38
  Q 268.14 230.30 268.61 229.82
  Q 270.42 227.94 273.49 224.43
  A 0.22 0.22 0.0 0 1 273.87 224.57
  Q 273.86 225.08 273.54 225.60
  Q 270.60 230.42 264.91 238.93
  Q 264.37 239.73 263.90 239.95
  A 0.90 0.88 80.9 0 0 263.38 240.68
  Q 263.30 241.44 262.18 242.37
  A 2.03 2.02 80.8 0 0 261.58 243.21
  Q 260.90 244.99 260.47 245.49
  C 257.59 248.88 255.05 252.47 251.84 255.60
  Q 240.23 266.92 224.58 271.54
  Z"
/>
<path fill="#000000" fill-opacity="0.447" d="
  M 231.11 226.89
  Q 232.96 229.48 229.64 231.59
  C 226.39 233.66 222.57 235.24 218.66 234.50
  L 231.11 226.89
  Z"
/>
<path fill="#000000" fill-opacity="0.522" d="
  M 268.53 228.05
  Q 268.32 228.81 267.51 229.38
  L 266.96 229.89
  L 265.47 231.22
  L 254.05 237.70
  Q 260.27 228.27 268.53 228.05
  Z"
/>
<path fill="#000000" fill-opacity="0.957" d="
  M 266.96 229.89
  Q 266.51 230.84 265.47 231.22
  L 266.96 229.89
  Z"
/>
<path fill="#000000" fill-opacity="0.522" d="
  M 224.58 271.54
  L 209.62 275.89
  Q 205.18 275.67 195.86 276.79
  Q 185.18 278.08 167.92 275.37
  Q 159.00 273.70 150.25 270.09
  A 0.23 0.23 0.0 0 1 150.36 269.65
  Q 155.06 269.95 159.75 270.07
  Q 162.95 270.14 167.43 271.54
  Q 171.53 273.39 174.31 273.61
  Q 184.51 274.42 199.04 272.38
  C 200.41 272.19 201.33 271.41 202.24 270.48
  A 0.99 0.98 -51.8 0 0 202.06 268.95
  Q 200.44 267.93 198.17 267.48
  Q 192.21 266.30 187.46 265.73
  A 1.86 1.80 -46.0 0 0 186.86 265.75
  L 169.56 268.94
  Q 161.88 269.40 154.55 267.25
  C 148.32 265.42 142.51 264.28 137.04 261.78
  A 0.29 0.29 0.0 0 1 137.15 261.23
  Q 148.36 260.60 161.51 262.13
  Q 165.15 262.55 172.84 262.56
  Q 178.26 262.57 184.11 261.56
  Q 198.54 259.08 212.22 253.76
  C 213.72 256.11 210.91 258.58 209.46 259.92
  A 0.67 0.67 0.0 0 0 209.96 261.08
  C 219.40 260.45 226.95 255.12 234.37 250.72
  Q 236.35 249.55 243.06 244.54
  Q 248.09 240.79 253.74 238.04
  L 232.32 255.19
  A 0.26 0.26 0.0 0 0 232.60 255.62
  Q 252.68 245.32 269.04 230.14
  A 0.45 0.45 0.0 0 1 269.65 230.14
  L 269.66 230.15
  A 0.48 0.48 0.0 0 1 269.72 230.80
  Q 254.91 249.77 254.17 250.69
  Q 247.32 259.07 237.87 264.09
  C 233.75 266.27 228.46 268.07 224.58 271.54
  Z"
/>
<path fill="#000000" fill-opacity="0.729" d="
  M 104.38 239.35
  Q 104.07 238.62 102.70 238.62
  Q 100.99 238.62 99.20 238.14
  A 0.30 0.30 0.0 0 0 98.90 238.63
  Q 100.12 240.05 101.17 240.28
  C 107.11 241.60 109.63 244.81 114.03 248.44
  Q 123.74 256.43 128.44 260.21
  A 0.65 0.65 0.0 0 1 128.18 261.35
  C 122.37 262.76 116.09 264.31 111.26 259.70
  C 109.24 257.76 104.81 253.61 102.78 250.84
  Q 97.50 243.61 93.30 233.59
  A 0.30 0.29 -82.6 0 1 93.75 233.24
  Q 98.25 236.79 103.85 238.56
  A 0.64 0.62 85.2 0 1 104.23 238.89
  Q 104.44 239.32 104.44 239.34
  A 0.03 0.03 0.0 0 1 104.38 239.35
  Z"
/>
<circle fill="#000000" fill-opacity="0.447" cx="246.22" cy="234.22" r="0.02"/>
<path fill="#000000" fill-opacity="0.522" d="
  M 242.00 236.50
  Q 242.11 236.40 242.21 236.30
  Q 242.21 236.29 242.21 236.30
  Q 242.11 236.40 242.00 236.50
  Z"
/>
<path fill="#000000" fill-opacity="0.522" d="
  M 103.93 235.76
  Q 104.09 236.14 103.25 235.88
  L 103.25 235.87
  Q 104.03 236.07 103.93 235.76
  Z"
/>
<path fill="#000000" fill-opacity="0.447" d="
  M 121.27 240.30
  L 142.38 243.80
  Q 142.32 244.00 142.27 244.20
  Q 135.89 243.95 127.55 242.87
  Q 120.78 241.99 113.94 243.99
  Q 109.37 240.75 104.97 237.07
  Q 104.92 237.03 104.58 236.83
  Q 104.11 236.55 103.93 235.76
  Q 112.71 239.83 121.27 240.30
  Z"
/>
<path fill="#000000" fill-opacity="0.522" d="
  M 242.00 236.50
  C 241.88 236.55 241.76 236.59 241.64 236.64
  C 241.76 236.59 241.88 236.55 242.00 236.50
  Z"
/>
<circle fill="#000000" fill-opacity="0.522" cx="239.52" cy="237.89" r="0.09"/>
<circle fill="#000000" fill-opacity="0.729" cx="237.78" cy="238.78" r="0.02"/>
<path fill="#000000" fill-opacity="0.447" d="
  M 85.78 258.23
  L 81.21 256.28
  Q 86.33 255.90 91.23 256.95
  Q 94.21 257.58 105.81 259.96
  Q 107.58 260.32 109.89 261.10
  Q 110.42 261.28 110.37 261.70
  A 0.27 0.26 -80.7 0 1 110.06 261.93
  C 101.08 260.25 93.91 258.68 85.78 258.23
  Z"
/>
<path fill="#000000" fill-opacity="0.447" d="
  M 107.44 263.64
  Q 103.45 263.86 99.69 262.48
  Q 103.61 260.85 107.44 263.64
  Z"
/>
<path fill="#000000" fill-opacity="0.729" d="
  M 167.43 271.54
  L 184.22 273.05
  A 0.29 0.29 0.0 0 0 184.54 272.77
  L 184.55 272.52
  A 0.04 0.03 14.9 0 0 184.53 272.49
  L 169.56 268.94
  L 186.86 265.75
  A 1.86 1.80 -46.0 0 1 187.46 265.73
  Q 192.21 266.30 198.17 267.48
  Q 200.44 267.93 202.06 268.95
  A 0.99 0.98 -51.8 0 1 202.24 270.48
  C 201.33 271.41 200.41 272.19 199.04 272.38
  Q 184.51 274.42 174.31 273.61
  Q 171.53 273.39 167.43 271.54
  Z"
/>
<path fill="#000000" fill-opacity="0.522" d="
  M 162.22 275.53
  Q 162.36 275.99 162.80 276.11
  A 0.22 0.22 0.0 0 1 162.82 276.52
  L 162.20 276.78
  A 5.59 5.24 29.3 0 1 160.78 277.13
  Q 158.40 277.37 154.67 277.08
  C 152.47 276.90 150.44 277.88 148.78 278.75
  Q 147.20 279.59 141.67 279.33
  Q 134.35 277.30 127.85 273.11
  A 2.60 2.27 -0.1 0 1 127.31 272.64
  Q 126.08 271.21 125.10 271.03
  A 0.93 0.91 82.6 0 1 124.45 270.52
  Q 124.11 269.79 123.34 269.64
  A 0.50 0.50 0.0 0 1 123.45 268.65
  L 143.92 269.56
  A 9.51 9.29 55.3 0 1 146.65 270.09
  L 162.22 275.53
  Z"
/>
<path fill="#000000" fill-opacity="0.729" d="
  M 209.62 275.89
  Q 205.70 276.55 201.85 277.20
  Q 197.82 277.88 194.04 277.99
  Q 189.64 278.12 185.25 278.14
  Q 176.46 278.19 167.92 275.37
  Q 185.18 278.08 195.86 276.79
  Q 205.18 275.67 209.62 275.89
  Z"
/>
<path fill="#000000" fill-opacity="0.729" d="
  M 154.25 281.14
  Q 147.68 281.92 141.40 280.42
  L 141.67 279.33
  Q 147.20 279.59 148.78 278.75
  C 150.44 277.88 152.47 276.90 154.67 277.08
  Q 158.40 277.37 160.78 277.13
  A 5.59 5.24 29.3 0 0 162.20 276.78
  L 162.82 276.52
  A 0.22 0.22 0.0 0 0 162.80 276.11
  Q 162.36 275.99 162.22 275.53
  Q 173.85 279.31 186.02 279.84
  Q 189.44 279.99 193.88 280.18
  A 0.23 0.23 0.0 0 1 193.90 280.64
  C 189.92 281.28 184.42 281.98 179.61 281.41
  C 169.72 280.25 162.19 278.15 154.25 281.14
  Z"
/>
</svg>
