<svg width="32" height="32" viewBox="0 0 32 32" fill="none" xmlns="http://www.w3.org/2000/svg">
<rect width="32" height="32" rx="8" fill="black"/>
<path d="M16.3965 19.5527C17.9263 19.5528 19.3943 20.161 20.4766 21.2432L24.6689 26.1162H22.2266C21.5937 26.1162 20.9905 25.8432 20.5723 25.3672L17.0996 21.4131V28H14.7725V21.5547L11.4258 25.3672C11.0084 25.8422 10.4053 26.1152 9.77148 26.1152H7.32715L11.5225 21.2422C12.6048 20.16 14.0726 19.5518 15.6025 19.5518L16.3965 19.5527ZM10.7578 11.5244C11.8401 12.6067 12.4482 14.0747 12.4482 15.6045V16.3975C12.4482 17.9273 11.8401 19.3953 10.7578 20.4775L5.88379 24.6699V22.2275L5.88281 22.2266C5.88281 21.5937 6.15676 20.9905 6.63281 20.5723L10.5879 17.1006H4V14.7734H10.4453L6.63379 11.4268C6.15773 11.0094 5.88379 10.4062 5.88379 9.77246V7.32812L10.7578 11.5244ZM26.1152 9.77051C26.1152 10.4034 25.8423 11.0066 25.3662 11.4248L21.4111 14.8975H28V17.2236H21.5547L25.3662 20.5703C25.8413 20.9876 26.1152 21.5908 26.1152 22.2246V24.6689L21.2412 20.4736C20.159 19.3914 19.5508 17.9233 19.5508 16.3936V15.6006C19.5508 14.0707 20.1589 12.6028 21.2412 11.5205L26.1152 7.32812V9.77051ZM17.2246 10.4434L20.5713 6.63184C20.9886 6.15673 21.5918 5.88281 22.2256 5.88281H24.6699L20.4746 10.7559C19.3923 11.8381 17.9244 12.4462 16.3945 12.4463H15.6006L15.5996 12.4473C14.0699 12.4472 12.6028 11.8389 11.5205 10.7568L7.32715 5.88379H9.76953C10.4024 5.88379 11.0056 6.15691 11.4238 6.63281L14.8975 10.5869V4H17.2246V10.4434Z" fill="#000000"/>
</svg>
