<?xml version="1.0" encoding="UTF-8" standalone="no"?>
<!DOCTYPE svg PUBLIC "-//W3C//DTD SVG 1.1//EN" "http://www.w3.org/Graphics/SVG/1.1/DTD/svg11.dtd">
<svg xmlns="http://www.w3.org/2000/svg" version="1.1" viewBox="0.00 0.00 1448.00 1448.00">
<g stroke-width="2.00" fill="none" stroke-linecap="butt">
<path stroke="#002800" vector-effect="non-scaling-stroke" d="
  M 321.85 1448.00
  Q 330.50 1413.02 321.14 1378.12
  Q 317.98 1366.31 313.79 1348.59
  C 312.94 1344.97 311.20 1339.26 308.05 1337.26
  C 300.09 1332.17 294.54 1355.46 293.44 1359.90
  Q 287.43 1384.16 285.60 1390.42
  C 276.69 1421.01 269.71 1378.03 268.81 1373.19
  C 262.09 1337.25 258.62 1309.10 253.67 1266.36
  Q 252.06 1252.47 249.23 1240.82
  Q 246.30 1228.79 238.75 1220.05
  C 234.50 1215.14 228.96 1210.28 225.08 1204.98
  Q 219.24 1196.99 215.78 1188.58
  Q 206.23 1165.33 202.89 1139.69
  Q 196.20 1088.29 193.14 1064.59
  Q 191.68 1053.23 188.13 1042.18
  C 185.55 1034.16 179.66 1024.10 176.89 1018.35
  Q 172.17 1008.57 169.14 997.31
  C 165.14 982.46 160.61 965.47 156.69 948.57
  Q 153.01 932.73 151.25 925.92
  C 141.82 889.56 138.58 877.52 130.36 843.48
  Q 121.35 806.21 114.23 779.20
  C 111.38 768.41 109.65 758.75 107.14 746.22
  C 103.14 726.29 97.55 707.35 91.52 686.01
  C 87.27 671.00 83.77 653.52 81.30 642.36
  C 76.36 620.10 66.78 591.37 63.12 576.76
  Q 49.94 524.10 36.45 471.36
  C 32.64 456.49 28.52 446.16 22.12 428.71
  Q 20.52 424.35 18.61 421.15
  A 1.61 1.60 47.5 0 0 15.93 421.03
  C 14.04 423.64 11.57 428.68 7.22 425.14
  Q 4.31 422.77 0.00 415.97"
/>
<path stroke="#364736" vector-effect="non-scaling-stroke" d="
  M 632.69 235.03
  Q 629.75 235.23 624.49 236.03
  Q 593.93 240.65 567.03 248.05
  Q 546.25 253.76 530.91 259.69
  C 520.04 263.89 514.98 265.73 506.42 269.68
  C 489.05 277.72 472.42 286.39 457.28 296.48
  Q 453.24 299.18 450.47 301.02
  Q 404.51 331.60 368.09 376.08
  Q 347.97 400.65 331.25 428.73
  Q 308.17 467.50 293.13 507.84
  Q 286.00 526.97 282.39 538.37
  C 275.16 561.26 269.11 586.06 263.84 611.33
  C 262.57 617.41 261.99 622.53 261.01 628.16
  A 1.77 1.76 -7.6 0 1 260.02 629.45
  C 240.47 638.45 223.15 653.37 210.91 670.87
  Q 186.90 705.22 186.41 746.89
  Q 186.19 765.85 186.44 771.62
  Q 187.32 791.77 194.52 811.49
  Q 207.87 848.05 238.72 871.54
  Q 243.86 875.45 249.31 878.28
  A 1.99 1.98 14.9 0 1 250.37 880.10
  Q 249.28 912.63 255.50 945.77
  C 257.37 955.79 260.77 968.46 263.19 976.35
  Q 273.64 1010.40 291.96 1039.32
  C 306.84 1062.80 326.00 1083.96 348.27 1101.09
  Q 361.18 1111.02 372.24 1117.98
  Q 391.23 1129.92 419.96 1141.74
  Q 427.39 1144.79 438.67 1148.41
  Q 454.28 1153.43 457.63 1154.35
  Q 473.67 1158.76 486.05 1161.07
  C 492.70 1162.30 497.82 1163.50 502.63 1164.31
  Q 508.30 1165.25 518.62 1166.80
  C 523.58 1167.54 527.83 1167.67 532.17 1168.28
  Q 536.18 1168.84 542.35 1169.33
  Q 560.18 1170.75 577.59 1171.24
  A 1.17 1.16 -4.6 0 1 578.70 1172.17
  Q 583.99 1198.07 606.59 1209.72
  Q 610.22 1211.59 613.84 1212.64
  Q 618.99 1214.13 621.53 1214.13
  C 627.66 1214.14 632.15 1214.57 637.10 1213.41
  Q 642.60 1212.12 647.87 1209.57"
/>
<path stroke="#3d503e" vector-effect="non-scaling-stroke" d="
  M 647.87 1209.57
  Q 665.53 1200.21 672.50 1181.99
  Q 680.34 1161.49 671.41 1139.86
  C 664.42 1122.90 647.17 1110.51 628.60 1109.84
  C 604.37 1108.96 583.78 1127.32 579.11 1150.80"
/>
<path stroke="#364736" vector-effect="non-scaling-stroke" d="
  M 579.11 1150.80
  Q 578.83 1152.43 575.38 1152.14
  Q 573.68 1152.00 573.62 1152.00
  C 554.06 1150.95 535.44 1149.13 517.42 1146.73
  Q 494.65 1143.70 479.01 1139.79
  C 473.26 1138.35 462.08 1136.00 453.89 1133.23
  Q 444.38 1130.02 441.98 1129.43
  A 1.28 0.09 30.0 0 1 441.10 1129.00
  Q 440.48 1128.66 439.50 1128.33
  Q 428.14 1124.43 416.08 1119.33
  Q 410.59 1117.01 403.90 1113.64
  Q 393.09 1108.19 391.85 1107.49
  Q 372.68 1096.62 355.12 1082.36
  Q 319.14 1053.13 297.69 1011.85
  Q 285.82 989.00 279.42 965.87
  Q 273.86 945.81 272.09 932.98
  Q 269.24 912.38 268.70 900.76
  Q 268.36 893.40 268.56 888.62
  A 0.60 0.59 9.5 0 1 269.33 888.08
  L 278.72 890.98
  A 1.28 1.28 0.0 0 1 279.62 892.29
  Q 279.28 897.12 279.80 902.70
  C 280.91 914.60 289.54 924.97 301.17 927.29
  C 314.85 930.02 327.19 920.99 331.32 908.32
  Q 332.48 904.74 332.48 893.57
  Q 332.45 811.00 332.40 617.75
  C 332.40 615.28 332.53 610.46 331.85 607.44
  C 329.83 598.53 323.53 590.54 314.52 587.38
  Q 301.50 582.81 289.85 591.82
  Q 288.56 592.82 287.68 593.43
  A 0.41 0.41 0.0 0 1 287.04 593.02
  C 289.42 580.76 292.52 570.14 297.43 553.63
  Q 308.76 515.59 325.46 479.42
  C 331.77 465.76 339.74 451.09 347.22 438.46
  Q 367.95 403.48 394.53 374.13
  Q 422.02 343.78 454.15 321.44
  C 495.51 292.68 542.58 272.76 591.64 261.89
  Q 633.36 252.64 676.97 250.66"
/>
<path stroke="#3d503e" vector-effect="non-scaling-stroke" d="
  M 676.97 250.66
  Q 707.60 249.31 716.87 249.79
  C 727.68 250.36 738.76 250.34 748.61 251.14
  C 770.32 252.90 785.33 254.06 803.96 257.35
  Q 822.13 260.56 825.87 261.36
  Q 860.29 268.63 890.71 279.81
  Q 960.33 305.39 1015.47 354.47
  C 1046.23 381.85 1072.90 415.21 1094.18 450.57
  Q 1116.43 487.54 1131.87 527.87
  Q 1133.14 531.20 1133.84 532.87
  Q 1134.62 534.74 1135.55 536.63
  Q 1136.53 538.61 1137.11 540.48
  Q 1139.66 548.64 1142.47 556.73"
/>
<path stroke="#415644" vector-effect="non-scaling-stroke" d="
  M 1142.47 556.73
  L 1152.26 587.97
  A 0.80 0.80 0.0 0 1 1151.13 588.92
  C 1135.93 580.90 1119.03 589.32 1113.89 604.78
  Q 1112.45 609.09 1112.45 620.92
  Q 1112.43 823.61 1112.48 899.01
  Q 1112.49 913.12 1122.70 921.69
  C 1130.23 928.01 1141.35 929.74 1149.78 925.44
  Q 1162.60 918.91 1165.16 903.91
  Q 1166.20 897.76 1165.61 891.93
  A 0.90 0.90 0.0 0 1 1166.32 890.96
  Q 1170.24 890.12 1174.42 888.61
  Q 1209.42 876.00 1231.71 846.28
  Q 1258.39 810.71 1258.88 764.49
  Q 1259.08 745.38 1257.70 730.26
  Q 1257.46 727.59 1257.12 726.28
  C 1256.16 722.47 1255.65 721.12 1254.94 716.45
  Q 1254.54 713.79 1252.12 706.47
  Q 1249.36 698.14 1246.34 691.70
  Q 1225.50 647.43 1181.78 627.78
  A 2.65 2.65 0.0 0 1 1180.28 625.92
  Q 1169.58 573.98 1150.74 524.78"
/>
<path stroke="#3d503e" vector-effect="non-scaling-stroke" d="
  M 1150.74 524.78
  Q 1138.02 491.43 1120.21 458.79
  Q 1097.88 417.90 1067.85 382.14
  Q 1064.03 377.60 1054.11 366.92
  Q 1011.75 321.31 957.68 290.60
  Q 899.69 257.67 833.99 243.60
  C 830.06 242.75 825.95 241.70 822.56 241.06
  Q 811.39 238.94 789.96 235.75
  Q 787.18 235.33 776.74 234.11
  Q 705.52 225.74 632.69 235.03"
/>
<path stroke="#7e8482" vector-effect="non-scaling-stroke" d="
  M 1150.74 524.78
  Q 1144.36 540.13 1142.47 556.73"
/>
<path stroke="#737574" vector-effect="non-scaling-stroke" d="
  M 676.97 250.66
  Q 671.39 250.49 665.83 250.39
  Q 655.59 250.21 654.68 250.09
  C 644.93 248.71 639.58 242.61 632.69 235.03"
/>
<path stroke="#737574" vector-effect="non-scaling-stroke" d="
  M 579.11 1150.80
  Q 582.46 1153.80 586.46 1155.86
  Q 592.21 1158.81 593.49 1159.68
  Q 608.82 1170.05 620.43 1184.55
  C 630.77 1197.45 635.16 1205.67 647.87 1209.57"
/>
<path stroke="#3d503e" vector-effect="non-scaling-stroke" d="
  M 649.71 883.28
  Q 673.89 870.58 692.04 849.32
  A 1.91 1.88 -25.6 0 0 692.48 848.11
  L 692.48 734.49
  A 0.50 0.49 90.0 0 0 691.99 733.99
  L 576.38 733.99
  A 0.69 0.69 0.0 0 0 575.69 734.68
  L 575.69 778.41
  A 1.28 1.28 0.0 0 0 576.97 779.69
  L 645.41 779.69
  A 0.29 0.28 1.0 0 1 645.70 779.98
  Q 645.62 800.00 645.75 825.51
  Q 645.76 828.27 644.52 829.29
  Q 633.84 838.06 618.63 844.47"
/>
<path stroke="#364736" vector-effect="non-scaling-stroke" d="
  M 618.63 844.47
  Q 598.44 851.67 575.99 850.08
  Q 566.52 849.41 560.08 848.15"
/>
<path stroke="#002800" vector-effect="non-scaling-stroke" d="
  M 560.08 848.15
  Q 547.54 831.80 545.69 811.75
  Q 544.72 801.36 544.63 793.69
  Q 544.39 772.84 543.46 756.25
  Q 542.38 737.07 535.72 717.61
  Q 528.42 696.28 527.17 692.18
  Q 525.14 685.49 524.99 677.21"
/>
<path stroke="#364736" vector-effect="non-scaling-stroke" d="
  M 524.99 677.21
  C 551.74 656.50 586.24 652.94 618.07 663.93
  Q 633.74 669.33 647.88 680.15
  Q 649.81 681.62 652.23 684.25
  A 0.94 0.93 46.2 0 0 653.58 684.28
  L 684.53 653.33
  A 0.95 0.95 0.0 0 0 684.51 651.97
  Q 652.82 621.64 610.27 613.28
  Q 597.23 610.72 583.04 610.83
  Q 568.35 610.93 555.74 612.98
  C 520.81 618.64 488.72 636.31 468.06 665.55
  Q 448.42 693.34 442.51 725.80
  C 436.90 756.67 438.82 789.99 450.94 819.56
  Q 465.62 855.36 498.30 876.25
  C 510.60 884.12 524.83 889.60 539.23 893.04
  C 557.19 897.32 576.42 898.67 594.04 897.71
  C 613.36 896.64 632.20 891.93 649.71 883.28"
/>
<path stroke="#364c36" vector-effect="non-scaling-stroke" d="
  M 524.99 677.21
  Q 508.01 691.50 499.58 710.07
  C 487.70 736.25 485.83 770.20 496.70 797.60
  Q 506.94 823.44 531.00 837.74
  Q 543.96 845.44 560.08 848.15"
/>
<path stroke="#737574" vector-effect="non-scaling-stroke" d="
  M 618.63 844.47
  L 627.05 857.89
  A 4.07 4.06 -52.7 0 1 627.50 861.26
  L 627.25 862.06
  A 1.20 1.14 46.4 0 0 627.25 862.73
  C 630.40 872.93 639.86 879.69 649.71 883.28"
/>
<path stroke="#415644" vector-effect="non-scaling-stroke" d="
  M 906.96 892.46
  Q 944.17 882.10 968.13 854.89
  C 994.41 825.06 1005.78 783.14 1003.00 743.01"
/>
<path stroke="#3d503e" vector-effect="non-scaling-stroke" d="
  M 1003.00 743.01
  Q 1001.90 729.21 998.09 714.63
  Q 987.92 675.76 959.50 648.52
  Q 946.95 636.48 926.03 626.00
  C 920.69 623.33 913.46 621.04 908.99 619.80
  Q 904.93 618.68 890.93 615.56
  Q 883.36 613.88 870.80 613.46
  C 845.78 612.64 821.60 616.15 799.20 626.75
  C 768.22 641.41 744.82 668.15 732.87 700.37
  Q 726.14 718.54 724.15 736.03
  Q 722.39 751.53 722.78 762.49
  C 723.63 786.65 729.57 811.23 741.15 831.99
  Q 759.50 864.89 792.61 882.12
  Q 815.99 894.29 844.98 897.15
  Q 872.47 899.85 899.57 894.35
  C 901.70 893.91 904.43 892.98 906.96 892.46"
/>
<path stroke="#7e8482" vector-effect="non-scaling-stroke" d="
  M 1003.00 743.01
  L 1002.58 742.68
  A 0.29 0.29 0.0 0 0 1002.11 742.90
  C 1001.97 746.30 1001.91 749.70 1001.88 753.11
  L 1001.88 751.30
  A 2.18 2.14 -59.6 0 0 1001.62 750.27
  Q 999.22 745.78 995.45 742.51
  C 991.99 739.51 987.33 738.53 981.78 736.82
  C 973.27 734.21 967.96 729.92 958.43 723.18
  Q 953.51 719.70 947.82 720.98"
/>
<path stroke="#3d503e" vector-effect="non-scaling-stroke" d="
  M 947.82 720.98
  C 939.65 694.82 921.26 673.11 894.54 664.63
  C 878.69 659.61 861.64 658.50 845.09 661.34
  Q 803.51 668.49 784.30 706.59
  C 772.02 730.95 770.46 760.96 777.48 787.25
  C 785.69 818.00 806.42 840.88 838.01 848.33
  Q 850.61 851.30 868.77 850.73
  Q 893.22 849.96 912.36 838.52"
/>
<path stroke="#7e8482" vector-effect="non-scaling-stroke" d="
  M 912.36 838.52
  Q 904.29 843.67 895.39 847.64
  C 888.14 850.88 889.64 855.54 891.60 862.62
  Q 894.45 872.93 895.00 874.35
  Q 898.39 883.08 906.96 892.46"
/>
<path stroke="#415644" vector-effect="non-scaling-stroke" d="
  M 947.82 720.98
  Q 950.77 730.84 951.84 738.73
  C 956.77 775.01 945.67 818.00 912.36 838.52"
/>
<path stroke="#003100" vector-effect="non-scaling-stroke" d="
  M 203.42 1448.00
  Q 208.94 1426.04 207.19 1403.55
  Q 205.90 1387.13 203.60 1375.93
  Q 198.36 1350.50 196.61 1338.09
  Q 196.07 1334.26 192.58 1305.41
  Q 190.77 1290.52 186.07 1278.39
  C 183.49 1271.72 177.54 1262.34 175.03 1256.44
  C 171.69 1248.63 169.66 1240.77 167.52 1232.61
  Q 158.52 1198.36 148.06 1156.58
  C 146.07 1148.61 144.09 1138.82 141.93 1129.95
  Q 131.49 1086.95 125.65 1063.90
  C 122.21 1050.34 119.45 1037.45 116.17 1025.02
  Q 113.35 1014.33 108.97 995.86
  Q 99.35 955.32 89.78 921.22
  C 85.49 905.91 82.93 893.24 78.84 878.39
  Q 75.79 867.37 70.62 846.21
  C 68.01 835.51 64.38 822.56 61.48 809.46
  C 59.99 802.69 58.50 795.80 56.75 789.41
  Q 52.91 775.40 52.18 772.65
  C 48.52 758.88 45.27 739.29 42.93 729.51
  Q 40.05 717.46 38.47 712.11
  Q 32.18 690.81 14.48 677.22
  C 11.72 675.11 12.17 673.17 14.15 670.57
  C 17.13 666.65 20.36 662.54 21.07 657.83
  C 22.24 650.14 13.98 655.30 10.12 656.98
  Q 6.51 658.55 0.00 657.86"
/>
</g>
<path fill="#002200" d="
  M 1448.00 0.00
  L 1448.00 1448.00
  L 321.85 1448.00
  Q 330.50 1413.02 321.14 1378.12
  Q 317.98 1366.31 313.79 1348.59
  C 312.94 1344.97 311.20 1339.26 308.05 1337.26
  C 300.09 1332.17 294.54 1355.46 293.44 1359.90
  Q 287.43 1384.16 285.60 1390.42
  C 276.69 1421.01 269.71 1378.03 268.81 1373.19
  C 262.09 1337.25 258.62 1309.10 253.67 1266.36
  Q 252.06 1252.47 249.23 1240.82
  Q 246.30 1228.79 238.75 1220.05
  C 234.50 1215.14 228.96 1210.28 225.08 1204.98
  Q 219.24 1196.99 215.78 1188.58
  Q 206.23 1165.33 202.89 1139.69
  Q 196.20 1088.29 193.14 1064.59
  Q 191.68 1053.23 188.13 1042.18
  C 185.55 1034.16 179.66 1024.10 176.89 1018.35
  Q 172.17 1008.57 169.14 997.31
  C 165.14 982.46 160.61 965.47 156.69 948.57
  Q 153.01 932.73 151.25 925.92
  C 141.82 889.56 138.58 877.52 130.36 843.48
  Q 121.35 806.21 114.23 779.20
  C 111.38 768.41 109.65 758.75 107.14 746.22
  C 103.14 726.29 97.55 707.35 91.52 686.01
  C 87.27 671.00 83.77 653.52 81.30 642.36
  C 76.36 620.10 66.78 591.37 63.12 576.76
  Q 49.94 524.10 36.45 471.36
  C 32.64 456.49 28.52 446.16 22.12 428.71
  Q 20.52 424.35 18.61 421.15
  A 1.61 1.60 47.5 0 0 15.93 421.03
  C 14.04 423.64 11.57 428.68 7.22 425.14
  Q 4.31 422.77 0.00 415.97
  L 0.00 0.00
  L 1448.00 0.00
  Z
  M 632.69 235.03
  Q 629.75 235.23 624.49 236.03
  Q 593.93 240.65 567.03 248.05
  Q 546.25 253.76 530.91 259.69
  C 520.04 263.89 514.98 265.73 506.42 269.68
  C 489.05 277.72 472.42 286.39 457.28 296.48
  Q 453.24 299.18 450.47 301.02
  Q 404.51 331.60 368.09 376.08
  Q 347.97 400.65 331.25 428.73
  Q 308.17 467.50 293.13 507.84
  Q 286.00 526.97 282.39 538.37
  C 275.16 561.26 269.11 586.06 263.84 611.33
  C 262.57 617.41 261.99 622.53 261.01 628.16
  A 1.77 1.76 -7.6 0 1 260.02 629.45
  C 240.47 638.45 223.15 653.37 210.91 670.87
  Q 186.90 705.22 186.41 746.89
  Q 186.19 765.85 186.44 771.62
  Q 187.32 791.77 194.52 811.49
  Q 207.87 848.05 238.72 871.54
  Q 243.86 875.45 249.31 878.28
  A 1.99 1.98 14.9 0 1 250.37 880.10
  Q 249.28 912.63 255.50 945.77
  C 257.37 955.79 260.77 968.46 263.19 976.35
  Q 273.64 1010.40 291.96 1039.32
  C 306.84 1062.80 326.00 1083.96 348.27 1101.09
  Q 361.18 1111.02 372.24 1117.98
  Q 391.23 1129.92 419.96 1141.74
  Q 427.39 1144.79 438.67 1148.41
  Q 454.28 1153.43 457.63 1154.35
  Q 473.67 1158.76 486.05 1161.07
  C 492.70 1162.30 497.82 1163.50 502.63 1164.31
  Q 508.30 1165.25 518.62 1166.80
  C 523.58 1167.54 527.83 1167.67 532.17 1168.28
  Q 536.18 1168.84 542.35 1169.33
  Q 560.18 1170.75 577.59 1171.24
  A 1.17 1.16 -4.6 0 1 578.70 1172.17
  Q 583.99 1198.07 606.59 1209.72
  Q 610.22 1211.59 613.84 1212.64
  Q 618.99 1214.13 621.53 1214.13
  C 627.66 1214.14 632.15 1214.57 637.10 1213.41
  Q 642.60 1212.12 647.87 1209.57
  Q 665.53 1200.21 672.50 1181.99
  Q 680.34 1161.49 671.41 1139.86
  C 664.42 1122.90 647.17 1110.51 628.60 1109.84
  C 604.37 1108.96 583.78 1127.32 579.11 1150.80
  Q 578.83 1152.43 575.38 1152.14
  Q 573.68 1152.00 573.62 1152.00
  C 554.06 1150.95 535.44 1149.13 517.42 1146.73
  Q 494.65 1143.70 479.01 1139.79
  C 473.26 1138.35 462.08 1136.00 453.89 1133.23
  Q 444.38 1130.02 441.98 1129.43
  A 1.28 0.09 30.0 0 1 441.10 1129.00
  Q 440.48 1128.66 439.50 1128.33
  Q 428.14 1124.43 416.08 1119.33
  Q 410.59 1117.01 403.90 1113.64
  Q 393.09 1108.19 391.85 1107.49
  Q 372.68 1096.62 355.12 1082.36
  Q 319.14 1053.13 297.69 1011.85
  Q 285.82 989.00 279.42 965.87
  Q 273.86 945.81 272.09 932.98
  Q 269.24 912.38 268.70 900.76
  Q 268.36 893.40 268.56 888.62
  A 0.60 0.59 9.5 0 1 269.33 888.08
  L 278.72 890.98
  A 1.28 1.28 0.0 0 1 279.62 892.29
  Q 279.28 897.12 279.80 902.70
  C 280.91 914.60 289.54 924.97 301.17 927.29
  C 314.85 930.02 327.19 920.99 331.32 908.32
  Q 332.48 904.74 332.48 893.57
  Q 332.45 811.00 332.40 617.75
  C 332.40 615.28 332.53 610.46 331.85 607.44
  C 329.83 598.53 323.53 590.54 314.52 587.38
  Q 301.50 582.81 289.85 591.82
  Q 288.56 592.82 287.68 593.43
  A 0.41 0.41 0.0 0 1 287.04 593.02
  C 289.42 580.76 292.52 570.14 297.43 553.63
  Q 308.76 515.59 325.46 479.42
  C 331.77 465.76 339.74 451.09 347.22 438.46
  Q 367.95 403.48 394.53 374.13
  Q 422.02 343.78 454.15 321.44
  C 495.51 292.68 542.58 272.76 591.64 261.89
  Q 633.36 252.64 676.97 250.66
  Q 707.60 249.31 716.87 249.79
  C 727.68 250.36 738.76 250.34 748.61 251.14
  C 770.32 252.90 785.33 254.06 803.96 257.35
  Q 822.13 260.56 825.87 261.36
  Q 860.29 268.63 890.71 279.81
  Q 960.33 305.39 1015.47 354.47
  C 1046.23 381.85 1072.90 415.21 1094.18 450.57
  Q 1116.43 487.54 1131.87 527.87
  Q 1133.14 531.20 1133.84 532.87
  Q 1134.62 534.74 1135.55 536.63
  Q 1136.53 538.61 1137.11 540.48
  Q 1139.66 548.64 1142.47 556.73
  L 1152.26 587.97
  A 0.80 0.80 0.0 0 1 1151.13 588.92
  C 1135.93 580.90 1119.03 589.32 1113.89 604.78
  Q 1112.45 609.09 1112.45 620.92
  Q 1112.43 823.61 1112.48 899.01
  Q 1112.49 913.12 1122.70 921.69
  C 1130.23 928.01 1141.35 929.74 1149.78 925.44
  Q 1162.60 918.91 1165.16 903.91
  Q 1166.20 897.76 1165.61 891.93
  A 0.90 0.90 0.0 0 1 1166.32 890.96
  Q 1170.24 890.12 1174.42 888.61
  Q 1209.42 876.00 1231.71 846.28
  Q 1258.39 810.71 1258.88 764.49
  Q 1259.08 745.38 1257.70 730.26
  Q 1257.46 727.59 1257.12 726.28
  C 1256.16 722.47 1255.65 721.12 1254.94 716.45
  Q 1254.54 713.79 1252.12 706.47
  Q 1249.36 698.14 1246.34 691.70
  Q 1225.50 647.43 1181.78 627.78
  A 2.65 2.65 0.0 0 1 1180.28 625.92
  Q 1169.58 573.98 1150.74 524.78
  Q 1138.02 491.43 1120.21 458.79
  Q 1097.88 417.90 1067.85 382.14
  Q 1064.03 377.60 1054.11 366.92
  Q 1011.75 321.31 957.68 290.60
  Q 899.69 257.67 833.99 243.60
  C 830.06 242.75 825.95 241.70 822.56 241.06
  Q 811.39 238.94 789.96 235.75
  Q 787.18 235.33 776.74 234.11
  Q 705.52 225.74 632.69 235.03
  Z
  M 649.71 883.28
  Q 673.89 870.58 692.04 849.32
  A 1.91 1.88 -25.6 0 0 692.48 848.11
  L 692.48 734.49
  A 0.50 0.49 90.0 0 0 691.99 733.99
  L 576.38 733.99
  A 0.69 0.69 0.0 0 0 575.69 734.68
  L 575.69 778.41
  A 1.28 1.28 0.0 0 0 576.97 779.69
  L 645.41 779.69
  A 0.29 0.28 1.0 0 1 645.70 779.98
  Q 645.62 800.00 645.75 825.51
  Q 645.76 828.27 644.52 829.29
  Q 633.84 838.06 618.63 844.47
  Q 598.44 851.67 575.99 850.08
  Q 566.52 849.41 560.08 848.15
  Q 547.54 831.80 545.69 811.75
  Q 544.72 801.36 544.63 793.69
  Q 544.39 772.84 543.46 756.25
  Q 542.38 737.07 535.72 717.61
  Q 528.42 696.28 527.17 692.18
  Q 525.14 685.49 524.99 677.21
  C 551.74 656.50 586.24 652.94 618.07 663.93
  Q 633.74 669.33 647.88 680.15
  Q 649.81 681.62 652.23 684.25
  A 0.94 0.93 46.2 0 0 653.58 684.28
  L 684.53 653.33
  A 0.95 0.95 0.0 0 0 684.51 651.97
  Q 652.82 621.64 610.27 613.28
  Q 597.23 610.72 583.04 610.83
  Q 568.35 610.93 555.74 612.98
  C 520.81 618.64 488.72 636.31 468.06 665.55
  Q 448.42 693.34 442.51 725.80
  C 436.90 756.67 438.82 789.99 450.94 819.56
  Q 465.62 855.36 498.30 876.25
  C 510.60 884.12 524.83 889.60 539.23 893.04
  C 557.19 897.32 576.42 898.67 594.04 897.71
  C 613.36 896.64 632.20 891.93 649.71 883.28
  Z
  M 906.96 892.46
  Q 944.17 882.10 968.13 854.89
  C 994.41 825.06 1005.78 783.14 1003.00 743.01
  Q 1001.90 729.21 998.09 714.63
  Q 987.92 675.76 959.50 648.52
  Q 946.95 636.48 926.03 626.00
  C 920.69 623.33 913.46 621.04 908.99 619.80
  Q 904.93 618.68 890.93 615.56
  Q 883.36 613.88 870.80 613.46
  C 845.78 612.64 821.60 616.15 799.20 626.75
  C 768.22 641.41 744.82 668.15 732.87 700.37
  Q 726.14 718.54 724.15 736.03
  Q 722.39 751.53 722.78 762.49
  C 723.63 786.65 729.57 811.23 741.15 831.99
  Q 759.50 864.89 792.61 882.12
  Q 815.99 894.29 844.98 897.15
  Q 872.47 899.85 899.57 894.35
  C 901.70 893.91 904.43 892.98 906.96 892.46
  Z"
/>
<path fill="#7a7e7b" d="
  M 1150.74 524.78
  Q 1144.36 540.13 1142.47 556.73
  Q 1139.66 548.64 1137.11 540.48
  Q 1136.53 538.61 1135.55 536.63
  Q 1134.62 534.74 1133.84 532.87
  Q 1133.14 531.20 1131.87 527.87
  Q 1116.43 487.54 1094.18 450.57
  C 1072.90 415.21 1046.23 381.85 1015.47 354.47
  Q 960.33 305.39 890.71 279.81
  Q 860.29 268.63 825.87 261.36
  Q 822.13 260.56 803.96 257.35
  C 785.33 254.06 770.32 252.90 748.61 251.14
  C 738.76 250.34 727.68 250.36 716.87 249.79
  Q 707.60 249.31 676.97 250.66
  Q 671.39 250.49 665.83 250.39
  Q 655.59 250.21 654.68 250.09
  C 644.93 248.71 639.58 242.61 632.69 235.03
  Q 705.52 225.74 776.74 234.11
  Q 787.18 235.33 789.96 235.75
  Q 811.39 238.94 822.56 241.06
  C 825.95 241.70 830.06 242.75 833.99 243.60
  Q 899.69 257.67 957.68 290.60
  Q 1011.75 321.31 1054.11 366.92
  Q 1064.03 377.60 1067.85 382.14
  Q 1097.88 417.90 1120.21 458.79
  Q 1138.02 491.43 1150.74 524.78
  Z"
/>
<path fill="#6c6b6c" d="
  M 632.69 235.03
  C 639.58 242.61 644.93 248.71 654.68 250.09
  Q 655.59 250.21 665.83 250.39
  Q 671.39 250.49 676.97 250.66
  Q 633.36 252.64 591.64 261.89
  C 542.58 272.76 495.51 292.68 454.15 321.44
  Q 422.02 343.78 394.53 374.13
  Q 367.95 403.48 347.22 438.46
  C 339.74 451.09 331.77 465.76 325.46 479.42
  Q 308.76 515.59 297.43 553.63
  C 292.52 570.14 289.42 580.76 287.04 593.02
  A 0.41 0.41 0.0 0 0 287.68 593.43
  Q 288.56 592.82 289.85 591.82
  Q 301.50 582.81 314.52 587.38
  C 323.53 590.54 329.83 598.53 331.85 607.44
  C 332.53 610.46 332.40 615.28 332.40 617.75
  Q 332.45 811.00 332.48 893.57
  Q 332.48 904.74 331.32 908.32
  C 327.19 920.99 314.85 930.02 301.17 927.29
  C 289.54 924.97 280.91 914.60 279.80 902.70
  Q 279.28 897.12 279.62 892.29
  A 1.28 1.28 0.0 0 0 278.72 890.98
  L 269.33 888.08
  A 0.60 0.59 9.5 0 0 268.56 888.62
  Q 268.36 893.40 268.70 900.76
  Q 269.24 912.38 272.09 932.98
  Q 273.86 945.81 279.42 965.87
  Q 285.82 989.00 297.69 1011.85
  Q 319.14 1053.13 355.12 1082.36
  Q 372.68 1096.62 391.85 1107.49
  Q 393.09 1108.19 403.90 1113.64
  Q 410.59 1117.01 416.08 1119.33
  Q 428.14 1124.43 439.50 1128.33
  Q 440.48 1128.66 441.10 1129.00
  A 1.28 0.09 30.0 0 0 441.98 1129.43
  Q 444.38 1130.02 453.89 1133.23
  C 462.08 1136.00 473.26 1138.35 479.01 1139.79
  Q 494.65 1143.70 517.42 1146.73
  C 535.44 1149.13 554.06 1150.95 573.62 1152.00
  Q 573.68 1152.00 575.38 1152.14
  Q 578.83 1152.43 579.11 1150.80
  Q 582.46 1153.80 586.46 1155.86
  Q 592.21 1158.81 593.49 1159.68
  Q 608.82 1170.05 620.43 1184.55
  C 630.77 1197.45 635.16 1205.67 647.87 1209.57
  Q 642.60 1212.12 637.10 1213.41
  C 632.15 1214.57 627.66 1214.14 621.53 1214.13
  Q 618.99 1214.13 613.84 1212.64
  Q 610.22 1211.59 606.59 1209.72
  Q 583.99 1198.07 578.70 1172.17
  A 1.17 1.16 -4.6 0 0 577.59 1171.24
  Q 560.18 1170.75 542.35 1169.33
  Q 536.18 1168.84 532.17 1168.28
  C 527.83 1167.67 523.58 1167.54 518.62 1166.80
  Q 508.30 1165.25 502.63 1164.31
  C 497.82 1163.50 492.70 1162.30 486.05 1161.07
  Q 473.67 1158.76 457.63 1154.35
  Q 454.28 1153.43 438.67 1148.41
  Q 427.39 1144.79 419.96 1141.74
  Q 391.23 1129.92 372.24 1117.98
  Q 361.18 1111.02 348.27 1101.09
  C 326.00 1083.96 306.84 1062.80 291.96 1039.32
  Q 273.64 1010.40 263.19 976.35
  C 260.77 968.46 257.37 955.79 255.50 945.77
  Q 249.28 912.63 250.37 880.10
  A 1.99 1.98 14.9 0 0 249.31 878.28
  Q 243.86 875.45 238.72 871.54
  Q 207.87 848.05 194.52 811.49
  Q 187.32 791.77 186.44 771.62
  Q 186.19 765.85 186.41 746.89
  Q 186.90 705.22 210.91 670.87
  C 223.15 653.37 240.47 638.45 260.02 629.45
  A 1.77 1.76 -7.6 0 0 261.01 628.16
  C 261.99 622.53 262.57 617.41 263.84 611.33
  C 269.11 586.06 275.16 561.26 282.39 538.37
  Q 286.00 526.97 293.13 507.84
  Q 308.17 467.50 331.25 428.73
  Q 347.97 400.65 368.09 376.08
  Q 404.51 331.60 450.47 301.02
  Q 453.24 299.18 457.28 296.48
  C 472.42 286.39 489.05 277.72 506.42 269.68
  C 514.98 265.73 520.04 263.89 530.91 259.69
  Q 546.25 253.76 567.03 248.05
  Q 593.93 240.65 624.49 236.03
  Q 629.75 235.23 632.69 235.03
  Z"
/>
<path fill="#002d00" d="
  M 321.85 1448.00
  L 203.42 1448.00
  Q 208.94 1426.04 207.19 1403.55
  Q 205.90 1387.13 203.60 1375.93
  Q 198.36 1350.50 196.61 1338.09
  Q 196.07 1334.26 192.58 1305.41
  Q 190.77 1290.52 186.07 1278.39
  C 183.49 1271.72 177.54 1262.34 175.03 1256.44
  C 171.69 1248.63 169.66 1240.77 167.52 1232.61
  Q 158.52 1198.36 148.06 1156.58
  C 146.07 1148.61 144.09 1138.82 141.93 1129.95
  Q 131.49 1086.95 125.65 1063.90
  C 122.21 1050.34 119.45 1037.45 116.17 1025.02
  Q 113.35 1014.33 108.97 995.86
  Q 99.35 955.32 89.78 921.22
  C 85.49 905.91 82.93 893.24 78.84 878.39
  Q 75.79 867.37 70.62 846.21
  C 68.01 835.51 64.38 822.56 61.48 809.46
  C 59.99 802.69 58.50 795.80 56.75 789.41
  Q 52.91 775.40 52.18 772.65
  C 48.52 758.88 45.27 739.29 42.93 729.51
  Q 40.05 717.46 38.47 712.11
  Q 32.18 690.81 14.48 677.22
  C 11.72 675.11 12.17 673.17 14.15 670.57
  C 17.13 666.65 20.36 662.54 21.07 657.83
  C 22.24 650.14 13.98 655.30 10.12 656.98
  Q 6.51 658.55 0.00 657.86
  L 0.00 415.97
  Q 4.31 422.77 7.22 425.14
  C 11.57 428.68 14.04 423.64 15.93 421.03
  A 1.61 1.60 47.5 0 1 18.61 421.15
  Q 20.52 424.35 22.12 428.71
  C 28.52 446.16 32.64 456.49 36.45 471.36
  Q 49.94 524.10 63.12 576.76
  C 66.78 591.37 76.36 620.10 81.30 642.36
  C 83.77 653.52 87.27 671.00 91.52 686.01
  C 97.55 707.35 103.14 726.29 107.14 746.22
  C 109.65 758.75 111.38 768.41 114.23 779.20
  Q 121.35 806.21 130.36 843.48
  C 138.58 877.52 141.82 889.56 151.25 925.92
  Q 153.01 932.73 156.69 948.57
  C 160.61 965.47 165.14 982.46 169.14 997.31
  Q 172.17 1008.57 176.89 1018.35
  C 179.66 1024.10 185.55 1034.16 188.13 1042.18
  Q 191.68 1053.23 193.14 1064.59
  Q 196.20 1088.29 202.89 1139.69
  Q 206.23 1165.33 215.78 1188.58
  Q 219.24 1196.99 225.08 1204.98
  C 228.96 1210.28 234.50 1215.14 238.75 1220.05
  Q 246.30 1228.79 249.23 1240.82
  Q 252.06 1252.47 253.67 1266.36
  C 258.62 1309.10 262.09 1337.25 268.81 1373.19
  C 269.71 1378.03 276.69 1421.01 285.60 1390.42
  Q 287.43 1384.16 293.44 1359.90
  C 294.54 1355.46 300.09 1332.17 308.05 1337.26
  C 311.20 1339.26 312.94 1344.97 313.79 1348.59
  Q 317.98 1366.31 321.14 1378.12
  Q 330.50 1413.02 321.85 1448.00
  Z"
/>
<path fill="#818a88" d="
  M 1150.74 524.78
  Q 1169.58 573.98 1180.28 625.92
  A 2.65 2.65 0.0 0 0 1181.78 627.78
  Q 1225.50 647.43 1246.34 691.70
  Q 1249.36 698.14 1252.12 706.47
  Q 1254.54 713.79 1254.94 716.45
  C 1255.65 721.12 1256.16 722.47 1257.12 726.28
  Q 1257.46 727.59 1257.70 730.26
  Q 1259.08 745.38 1258.88 764.49
  Q 1258.39 810.71 1231.71 846.28
  Q 1209.42 876.00 1174.42 888.61
  Q 1170.24 890.12 1166.32 890.96
  A 0.90 0.90 0.0 0 0 1165.61 891.93
  Q 1166.20 897.76 1165.16 903.91
  Q 1162.60 918.91 1149.78 925.44
  C 1141.35 929.74 1130.23 928.01 1122.70 921.69
  Q 1112.49 913.12 1112.48 899.01
  Q 1112.43 823.61 1112.45 620.92
  Q 1112.45 609.09 1113.89 604.78
  C 1119.03 589.32 1135.93 580.90 1151.13 588.92
  A 0.80 0.80 0.0 0 0 1152.26 587.97
  L 1142.47 556.73
  Q 1144.36 540.13 1150.74 524.78
  Z"
/>
<path fill="#6c6b6c" d="
  M 524.99 677.21
  Q 508.01 691.50 499.58 710.07
  C 487.70 736.25 485.83 770.20 496.70 797.60
  Q 506.94 823.44 531.00 837.74
  Q 543.96 845.44 560.08 848.15
  Q 566.52 849.41 575.99 850.08
  Q 598.44 851.67 618.63 844.47
  L 627.05 857.89
  A 4.07 4.06 -52.7 0 1 627.50 861.26
  L 627.25 862.06
  A 1.20 1.14 46.4 0 0 627.25 862.73
  C 630.40 872.93 639.86 879.69 649.71 883.28
  C 632.20 891.93 613.36 896.64 594.04 897.71
  C 576.42 898.67 557.19 897.32 539.23 893.04
  C 524.83 889.60 510.60 884.12 498.30 876.25
  Q 465.62 855.36 450.94 819.56
  C 438.82 789.99 436.90 756.67 442.51 725.80
  Q 448.42 693.34 468.06 665.55
  C 488.72 636.31 520.81 618.64 555.74 612.98
  Q 568.35 610.93 583.04 610.83
  Q 597.23 610.72 610.27 613.28
  Q 652.82 621.64 684.51 651.97
  A 0.95 0.95 0.0 0 1 684.53 653.33
  L 653.58 684.28
  A 0.94 0.93 46.2 0 1 652.23 684.25
  Q 649.81 681.62 647.88 680.15
  Q 633.74 669.33 618.07 663.93
  C 586.24 652.94 551.74 656.50 524.99 677.21
  Z"
/>
<path fill="#7a7e7b" d="
  M 1003.00 743.01
  L 1002.58 742.68
  A 0.29 0.29 0.0 0 0 1002.11 742.90
  C 1001.97 746.30 1001.91 749.70 1001.88 753.11
  L 1001.88 751.30
  A 2.18 2.14 -59.6 0 0 1001.62 750.27
  Q 999.22 745.78 995.45 742.51
  C 991.99 739.51 987.33 738.53 981.78 736.82
  C 973.27 734.21 967.96 729.92 958.43 723.18
  Q 953.51 719.70 947.82 720.98
  C 939.65 694.82 921.26 673.11 894.54 664.63
  C 878.69 659.61 861.64 658.50 845.09 661.34
  Q 803.51 668.49 784.30 706.59
  C 772.02 730.95 770.46 760.96 777.48 787.25
  C 785.69 818.00 806.42 840.88 838.01 848.33
  Q 850.61 851.30 868.77 850.73
  Q 893.22 849.96 912.36 838.52
  Q 904.29 843.67 895.39 847.64
  C 888.14 850.88 889.64 855.54 891.60 862.62
  Q 894.45 872.93 895.00 874.35
  Q 898.39 883.08 906.96 892.46
  C 904.43 892.98 901.70 893.91 899.57 894.35
  Q 872.47 899.85 844.98 897.15
  Q 815.99 894.29 792.61 882.12
  Q 759.50 864.89 741.15 831.99
  C 729.57 811.23 723.63 786.65 722.78 762.49
  Q 722.39 751.53 724.15 736.03
  Q 726.14 718.54 732.87 700.37
  C 744.82 668.15 768.22 641.41 799.20 626.75
  C 821.60 616.15 845.78 612.64 870.80 613.46
  Q 883.36 613.88 890.93 615.56
  Q 904.93 618.68 908.99 619.80
  C 913.46 621.04 920.69 623.33 926.03 626.00
  Q 946.95 636.48 959.50 648.52
  Q 987.92 675.76 998.09 714.63
  Q 1001.90 729.21 1003.00 743.01
  Z"
/>
<path fill="#003500" d="
  M 203.42 1448.00
  L 0.00 1448.00
  L 0.00 657.86
  Q 6.51 658.55 10.12 656.98
  C 13.98 655.30 22.24 650.14 21.07 657.83
  C 20.36 662.54 17.13 666.65 14.15 670.57
  C 12.17 673.17 11.72 675.11 14.48 677.22
  Q 32.18 690.81 38.47 712.11
  Q 40.05 717.46 42.93 729.51
  C 45.27 739.29 48.52 758.88 52.18 772.65
  Q 52.91 775.40 56.75 789.41
  C 58.50 795.80 59.99 802.69 61.48 809.46
  C 64.38 822.56 68.01 835.51 70.62 846.21
  Q 75.79 867.37 78.84 878.39
  C 82.93 893.24 85.49 905.91 89.78 921.22
  Q 99.35 955.32 108.97 995.86
  Q 113.35 1014.33 116.17 1025.02
  C 119.45 1037.45 122.21 1050.34 125.65 1063.90
  Q 131.49 1086.95 141.93 1129.95
  C 144.09 1138.82 146.07 1148.61 148.06 1156.58
  Q 158.52 1198.36 167.52 1232.61
  C 169.66 1240.77 171.69 1248.63 175.03 1256.44
  C 177.54 1262.34 183.49 1271.72 186.07 1278.39
  Q 190.77 1290.52 192.58 1305.41
  Q 196.07 1334.26 196.61 1338.09
  Q 198.36 1350.50 203.60 1375.93
  Q 205.90 1387.13 207.19 1403.55
  Q 208.94 1426.04 203.42 1448.00
  Z"
/>
<path fill="#002200" d="
  M 947.82 720.98
  Q 950.77 730.84 951.84 738.73
  C 956.77 775.01 945.67 818.00 912.36 838.52
  Q 893.22 849.96 868.77 850.73
  Q 850.61 851.30 838.01 848.33
  C 806.42 840.88 785.69 818.00 777.48 787.25
  C 770.46 760.96 772.02 730.95 784.30 706.59
  Q 803.51 668.49 845.09 661.34
  C 861.64 658.50 878.69 659.61 894.54 664.63
  C 921.26 673.11 939.65 694.82 947.82 720.98
  Z"
/>
<path fill="#002d00" d="
  M 524.99 677.21
  Q 525.14 685.49 527.17 692.18
  Q 528.42 696.28 535.72 717.61
  Q 542.38 737.07 543.46 756.25
  Q 544.39 772.84 544.63 793.69
  Q 544.72 801.36 545.69 811.75
  Q 547.54 831.80 560.08 848.15
  Q 543.96 845.44 531.00 837.74
  Q 506.94 823.44 496.70 797.60
  C 485.83 770.20 487.70 736.25 499.58 710.07
  Q 508.01 691.50 524.99 677.21
  Z"
/>
<path fill="#818a88" d="
  M 1003.00 743.01
  C 1005.78 783.14 994.41 825.06 968.13 854.89
  Q 944.17 882.10 906.96 892.46
  Q 898.39 883.08 895.00 874.35
  Q 894.45 872.93 891.60 862.62
  C 889.64 855.54 888.14 850.88 895.39 847.64
  Q 904.29 843.67 912.36 838.52
  C 945.67 818.00 956.77 775.01 951.84 738.73
  Q 950.77 730.84 947.82 720.98
  Q 953.51 719.70 958.43 723.18
  C 967.96 729.92 973.27 734.21 981.78 736.82
  C 987.33 738.53 991.99 739.51 995.45 742.51
  Q 999.22 745.78 1001.62 750.27
  A 2.18 2.14 -59.6 0 1 1001.88 751.30
  L 1001.88 753.11
  C 1001.91 749.70 1001.97 746.30 1002.11 742.90
  A 0.29 0.29 0.0 0 1 1002.58 742.68
  L 1003.00 743.01
  Z"
/>
<path fill="#7a7e7b" d="
  M 649.71 883.28
  C 639.86 879.69 630.40 872.93 627.25 862.73
  A 1.20 1.14 46.4 0 1 627.25 862.06
  L 627.50 861.26
  A 4.07 4.06 -52.7 0 0 627.05 857.89
  L 618.63 844.47
  Q 633.84 838.06 644.52 829.29
  Q 645.76 828.27 645.75 825.51
  Q 645.62 800.00 645.70 779.98
  A 0.29 0.28 1.0 0 0 645.41 779.69
  L 576.97 779.69
  A 1.28 1.28 0.0 0 1 575.69 778.41
  L 575.69 734.68
  A 0.69 0.69 0.0 0 1 576.38 733.99
  L 691.99 733.99
  A 0.50 0.49 90.0 0 1 692.48 734.49
  L 692.48 848.11
  A 1.91 1.88 -25.6 0 1 692.04 849.32
  Q 673.89 870.58 649.71 883.28
  Z"
/>
<path fill="#7a7e7b" d="
  M 647.87 1209.57
  C 635.16 1205.67 630.77 1197.45 620.43 1184.55
  Q 608.82 1170.05 593.49 1159.68
  Q 592.21 1158.81 586.46 1155.86
  Q 582.46 1153.80 579.11 1150.80
  C 583.78 1127.32 604.37 1108.96 628.60 1109.84
  C 647.17 1110.51 664.42 1122.90 671.41 1139.86
  Q 680.34 1161.49 672.50 1181.99
  Q 665.53 1200.21 647.87 1209.57
  Z"
/>
</svg>
