<?xml version="1.0" encoding="UTF-8" standalone="no"?>
<svg width="609px" height="125px" viewBox="0 0 609 125" version="1.1" xmlns="http://www.w3.org/2000/svg" xmlns:xlink="http://www.w3.org/1999/xlink">
    <!-- Generator: Sketch 42 (36781) - http://www.bohemiancoding.com/sketch -->
    <title>goodbits-logo</title>
    <desc>Created with Sketch.</desc>
    <defs></defs>
    <g id="goodbits-logo" stroke="none" stroke-width="1" fill="none" fill-rule="evenodd">
        <g id="Group">
            <g id="circle">
                <path d="M62.5,0 C97.0178571,0 125,27.9821429 125,62.5 C125,97.0178571 97.0178571,125 62.5,125 C27.9821429,125 0,97.0178571 0,62.5 C0,27.9821429 27.9821429,0 62.5,0" id="Fill-1" fill="#3b4b64"></path>
                <polygon id="Fill-3" fill="#000000" points="52.6789286 35.7844643 34.9557143 88.79875 42.3432143 88.8058929 60.0610714 35.7844643"></polygon>
                <polygon id="Fill-5" fill="#000000" points="67.3623214 35.7844643 49.6408929 88.8005357 57.0266071 88.8076786 74.7444643 35.7844643"></polygon>
                <polygon id="Fill-7" fill="#000000" points="82.3757143 35.7844643 64.6542857 88.8005357 72.04 88.8076786 89.7596429 35.7844643"></polygon>
            </g>
            <path d="M202.061035,62.4238281 L236.640137,62.4238281 L236.640137,65.1879883 C236.640137,71.4751291 235.899421,77.0395266 234.417969,81.8813477 C232.972649,86.3618388 230.533709,90.5532031 227.101074,94.4555664 C219.332481,103.199751 209.450255,107.571777 197.454102,107.571777 C185.747012,107.571777 175.720257,103.344281 167.373535,94.8891602 C159.026814,86.3979068 154.853516,76.2085555 154.853516,64.3208008 C154.853516,52.1801151 159.099079,41.8823665 167.590332,33.4272461 C176.081585,24.9359927 186.415466,20.6904297 198.592285,20.6904297 C205.132357,20.6904297 211.238741,22.0273304 216.911621,24.7011719 C222.33157,27.3750134 227.661107,31.7109075 232.900391,37.7089844 L223.90332,46.3266602 C217.038052,37.1850129 208.673389,32.6142578 198.809082,32.6142578 C189.956499,32.6142578 182.53128,35.6674499 176.533203,41.7739258 C170.535126,47.7720026 167.536133,55.2875525 167.536133,64.3208008 C167.536133,73.643113 170.878385,81.3212589 177.562988,87.3554688 C183.813996,92.9560827 190.588831,95.7563477 197.887695,95.7563477 C204.10257,95.7563477 209.685034,93.6606655 214.635254,89.4692383 C219.585474,85.2416781 222.349606,80.1831349 222.927734,74.293457 L202.061035,74.293457 L202.061035,62.4238281 Z M247.696777,79.2255859 C247.696777,71.6015244 250.424777,65.1157494 255.880859,59.7680664 C261.336941,54.4203834 267.985312,51.746582 275.826172,51.746582 C283.703164,51.746582 290.387668,54.4384496 295.879883,59.8222656 C301.299832,65.2060816 304.009766,71.8183202 304.009766,79.6591797 C304.009766,87.5723052 301.281766,94.20261 295.825684,99.550293 C290.333469,104.861843 283.594766,107.517578 275.609375,107.517578 C267.696249,107.517578 261.065945,104.807644 255.718262,99.3876953 C250.370579,94.0400123 247.696777,87.3193764 247.696777,79.2255859 Z M260.162598,79.4423828 C260.162598,84.7177998 261.571763,88.8910979 264.390137,91.9624023 C267.280776,95.0698398 271.09275,96.6235352 275.826172,96.6235352 C280.595727,96.6235352 284.407701,95.087906 287.262207,92.0166016 C290.116713,88.9452971 291.543945,84.8442639 291.543945,79.7133789 C291.543945,74.5824939 290.116713,70.4814607 287.262207,67.4101563 C284.371568,64.3027188 280.559594,62.7490234 275.826172,62.7490234 C271.165016,62.7490234 267.389175,64.3027188 264.498535,67.4101563 C261.607896,70.5175937 260.162598,74.5282957 260.162598,79.4423828 Z M314.416016,79.2255859 C314.416016,71.6015244 317.144016,65.1157494 322.600098,59.7680664 C328.05618,54.4203834 334.704551,51.746582 342.54541,51.746582 C350.422403,51.746582 357.106906,54.4384496 362.599121,59.8222656 C368.01907,65.2060816 370.729004,71.8183202 370.729004,79.6591797 C370.729004,87.5723052 368.001004,94.20261 362.544922,99.550293 C357.052707,104.861843 350.314005,107.517578 342.328613,107.517578 C334.415488,107.517578 327.785183,104.807644 322.4375,99.3876953 C317.089817,94.0400123 314.416016,87.3193764 314.416016,79.2255859 Z M326.881836,79.4423828 C326.881836,84.7177998 328.291002,88.8910979 331.109375,91.9624023 C334.000014,95.0698398 337.811988,96.6235352 342.54541,96.6235352 C347.314965,96.6235352 351.126939,95.087906 353.981445,92.0166016 C356.835952,88.9452971 358.263184,84.8442639 358.263184,79.7133789 C358.263184,74.5824939 356.835952,70.4814607 353.981445,67.4101563 C351.090806,64.3027188 347.278832,62.7490234 342.54541,62.7490234 C337.884254,62.7490234 334.108413,64.3027188 331.217773,67.4101563 C328.327134,70.5175937 326.881836,74.5282957 326.881836,79.4423828 Z M422.543457,14.4575195 L434.79248,14.4575195 L434.79248,106 L422.543457,106 L422.543457,100.47168 C417.737769,105.168969 412.299835,107.517578 406.229492,107.517578 C399.002894,107.517578 393.004907,104.879909 388.235352,99.6044922 C383.501929,94.2206762 381.135254,87.5000403 381.135254,79.4423828 C381.135254,71.5653903 383.501929,64.9892842 388.235352,59.7138672 C392.932641,54.4023172 398.840296,51.746582 405.958496,51.746582 C412.137238,51.746582 417.665503,54.2758536 422.543457,59.3344727 L422.543457,14.4575195 Z M393.601074,79.4423828 C393.601074,84.5010019 394.956041,88.6201013 397.666016,91.7998047 C400.448256,95.0156411 403.953104,96.6235352 408.180664,96.6235352 C412.697288,96.6235352 416.346666,95.0698398 419.128906,91.9624023 C421.911147,88.746566 423.302246,84.663599 423.302246,79.7133789 C423.302246,74.7631588 421.911147,70.6801919 419.128906,67.4643555 C416.346666,64.3207851 412.733421,62.7490234 408.289062,62.7490234 C404.097635,62.7490234 400.592788,64.3388513 397.774414,67.5185547 C394.992174,70.7343911 393.601074,74.7089607 393.601074,79.4423828 Z M462.379883,14.4575195 L462.379883,59.3344727 C467.257837,54.2758536 472.786102,51.746582 478.964844,51.746582 C486.083043,51.746582 492.008765,54.4023172 496.742188,59.7138672 C501.47561,64.9892842 503.842285,71.5653903 503.842285,79.4423828 C503.842285,87.5723063 501.457543,94.2929422 496.687988,99.6044922 C491.954566,104.879909 485.974646,107.517578 478.748047,107.517578 C472.641571,107.517578 467.185571,105.168969 462.379883,100.47168 L462.379883,106 L450.185059,106 L450.185059,14.4575195 L462.379883,14.4575195 Z M491.376465,79.984375 C491.376465,74.925756 490.003432,70.8066565 487.257324,67.6269531 C484.475084,64.3749837 480.988302,62.7490234 476.796875,62.7490234 C472.316384,62.7490234 468.667006,64.3207851 465.848633,67.4643555 C463.066392,70.5717929 461.675293,74.6186274 461.675293,79.6049805 C461.675293,84.7358655 463.048326,88.8368987 465.794434,91.9082031 C468.540541,95.0517735 472.153786,96.6235352 476.634277,96.6235352 C480.861838,96.6235352 484.366685,95.0517735 487.148926,91.9082031 C489.967299,88.7284997 491.376465,84.7539301 491.376465,79.984375 Z M528.936523,53.2099609 L528.936523,106 L516.741699,106 L516.741699,53.2099609 L528.936523,53.2099609 Z M514.898926,31.2592773 C514.898926,29.1274307 515.675773,27.2846757 517.229492,25.730957 C518.783211,24.1772383 520.644032,23.4003906 522.812012,23.4003906 C525.016124,23.4003906 526.895012,24.1772383 528.44873,25.730957 C530.002449,27.2485427 530.779297,29.109364 530.779297,31.3134766 C530.779297,33.5175891 530.002449,35.3964766 528.44873,36.9501953 C526.931145,38.503914 525.070324,39.2807617 522.866211,39.2807617 C520.662098,39.2807617 518.783211,38.503914 517.229492,36.9501953 C515.675773,35.3964766 514.898926,33.4995229 514.898926,31.2592773 Z M556.95752,64.5917969 L556.95752,106 L544.762695,106 L544.762695,64.5917969 L539.55957,64.5917969 L539.55957,53.2099609 L544.762695,53.2099609 L544.762695,33.8608398 L556.95752,33.8608398 L556.95752,53.2099609 L566.442383,53.2099609 L566.442383,64.5917969 L556.95752,64.5917969 Z M605.411621,62.2070312 L595.330566,67.5727539 C593.740715,64.3207845 591.771496,62.6948242 589.422852,62.6948242 C588.302729,62.6948242 587.345219,63.0651818 586.550293,63.8059082 C585.755367,64.5466346 585.35791,65.4951114 585.35791,66.6513672 C585.35791,68.6748148 587.706519,70.6801658 592.403809,72.6674805 C598.871614,75.4497209 603.225575,78.015125 605.46582,80.3637695 C607.706066,82.7124141 608.826172,85.8740036 608.826172,89.8486328 C608.826172,94.9433848 606.947284,99.2070141 603.189453,102.639648 C599.540021,105.891618 595.131862,107.517578 589.964844,107.517578 C581.11226,107.517578 574.84328,103.19975 571.157715,94.5639648 L581.563965,89.7402344 C583.009285,92.2695439 584.111324,93.877438 584.870117,94.5639648 C586.35157,95.9370186 588.12206,96.6235352 590.181641,96.6235352 C594.300802,96.6235352 596.360352,94.7446477 596.360352,90.9868164 C596.360352,88.8188368 594.770524,86.7954196 591.59082,84.9165039 C590.362299,84.302243 589.133795,83.7060576 587.905273,83.1279297 C586.676752,82.5498018 585.430182,81.9536164 584.165527,81.3393555 C580.624494,79.6049718 578.131355,77.8706141 576.686035,76.1362305 C574.843253,73.9321179 573.921875,71.0957205 573.921875,67.6269531 C573.921875,63.038063 575.493637,59.2441556 578.637207,56.2451172 C581.853043,53.2460788 585.755348,51.746582 590.344238,51.746582 C597.101108,51.746582 602.123519,55.2333636 605.411621,62.2070312 Z" id="Goodbits" fill="#3b4b64"></path>
        </g>
    </g>
</svg>