<?xml version="1.0" encoding="UTF-8" standalone="no"?>
<!DOCTYPE svg PUBLIC "-//W3C//DTD SVG 1.1//EN" "http://www.w3.org/Graphics/SVG/1.1/DTD/svg11.dtd">
<svg xmlns="http://www.w3.org/2000/svg" version="1.1" viewBox="0.00 0.00 128.00 128.00">
<g stroke-width="2.00" fill="none" stroke-linecap="butt">
<path stroke="#98c4ff" vector-effect="non-scaling-stroke" d="
  M 63.46 63.00
  L 59.09 64.83"
/>
<path stroke="#98c4ff" vector-effect="non-scaling-stroke" d="
  M 51.02 62.50
  L 46.26 63.04"
/>
<path stroke="#a9b6fe" vector-effect="non-scaling-stroke" d="
  M 90.46 74.70
  L 66.67 74.95"
/>
<path stroke="#98c4ff" vector-effect="non-scaling-stroke" d="
  M 81.96 61.03
  L 77.10 61.26"
/>
<path stroke="#98c4ff" vector-effect="non-scaling-stroke" d="
  M 68.94 64.76
  L 64.44 63.01"
/>
</g>
<rect fill="#afb1fe" x="61.75" y="21.07" width="4.50" height="17.34" rx="2.04"/>
<rect fill="#afb1fe" x="-2.21" y="-8.73" transform="translate(39.83,35.68) rotate(-30.6)" width="4.42" height="17.46" rx="2.15"/>
<rect fill="#cf96fd" x="-2.21" y="-8.72" transform="translate(88.16,35.69) rotate(30.4)" width="4.42" height="17.44" rx="2.14"/>
<rect fill="#8cceff" x="-8.81" y="-2.19" transform="translate(23.98,55.81) rotate(29.5)" width="17.62" height="4.38" rx="2.13"/>
<rect fill="#cf96fd" x="-8.83" y="-2.19" transform="translate(104.04,55.80) rotate(-29.6)" width="17.66" height="4.38" rx="2.14"/>
<path fill="#8cceff" d="
  M 63.46 63.00
  L 59.09 64.83
  Q 57.95 61.89 56.77 59.34
  A 2.85 2.84 -16.3 0 0 53.78 57.71
  Q 49.89 58.28 51.02 62.50
  L 46.26 63.04
  C 44.48 53.85 55.08 49.17 60.71 56.29
  Q 61.88 57.77 63.46 63.00
  Z"
/>
<path fill="#8cceff" d="
  M 81.96 61.03
  L 77.10 61.26
  Q 76.87 57.11 73.17 57.81
  C 70.93 58.22 69.61 63.02 68.94 64.76
  L 64.44 63.01
  L 67.00 56.74
  A 1.69 1.56 78.3 0 1 67.27 56.29
  Q 71.92 50.66 78.26 53.99
  Q 82.25 56.08 81.96 61.03
  Z"
/>
<path fill="#a3bafe" d="
  M 81.96 61.03
  Q 81.82 65.55 78.41 68.40
  A 0.25 0.25 0.0 0 0 78.58 68.84
  C 80.97 68.73 87.87 68.03 90.00 69.71
  A 1.31 1.30 14.4 0 1 90.50 70.55
  Q 90.83 72.66 90.46 74.70
  L 66.67 74.95
  L 66.65 70.17
  A 0.43 0.43 0.0 0 0 66.22 69.74
  L 61.82 69.74
  A 0.45 0.44 0.0 0 0 61.37 70.18
  L 61.37 78.95
  A 0.42 0.42 0.0 0 1 60.96 79.37
  Q 48.90 79.39 40.01 79.36
  C 36.43 79.36 37.34 74.55 37.35 72.41
  C 37.37 69.94 38.17 68.73 40.76 68.75
  Q 45.00 68.79 49.04 68.80
  A 0.30 0.30 0.0 0 0 49.24 68.28
  Q 46.87 66.12 46.26 63.04
  L 51.02 62.50
  C 52.34 65.68 56.23 65.23 59.09 64.83
  L 63.46 63.00
  Q 63.53 63.29 63.80 63.34
  Q 64.22 63.42 64.44 63.01
  L 68.94 64.76
  C 72.46 65.41 76.55 65.78 77.10 61.26
  L 81.96 61.03
  Z"
/>
<path fill="#afb1fe" d="
  M 90.46 74.70
  C 91.30 78.07 90.13 79.46 86.68 79.43
  Q 76.91 79.32 67.13 79.39
  A 0.49 0.48 0.6 0 1 66.64 78.90
  L 66.67 74.95
  L 90.46 74.70
  Z"
/>
<path fill="#cf96fd" d="
  M 43.35 84.76
  L 60.76 84.76
  A 0.62 0.62 0.0 0 1 61.38 85.38
  L 61.38 105.43
  A 0.61 0.60 0.0 0 1 60.77 106.03
  Q 55.54 105.97 46.24 106.04
  C 43.51 106.06 42.61 105.01 42.62 102.26
  Q 42.63 88.67 42.63 85.48
  A 0.72 0.72 0.0 0 1 43.35 84.76
  Z"
/>
<path fill="#cf96fd" d="
  M 85.37 85.47
  Q 85.38 88.66 85.39 102.25
  C 85.40 105.00 84.50 106.05 81.77 106.04
  Q 72.46 105.97 67.23 106.03
  A 0.61 0.60 -0.0 0 1 66.62 105.43
  L 66.62 85.37
  A 0.62 0.62 0.0 0 1 67.24 84.75
  L 84.65 84.75
  A 0.72 0.72 0.0 0 1 85.37 85.47
  Z"
/>
</svg>
