<svg width="128" height="128" viewBox="0 0 128 128" fill="none" xmlns="http://www.w3.org/2000/svg">
<g clip-path="url(#clip0_240_7203)">
<path d="M43.5581 20.7262C44.7953 17.4785 46.4964 14.4887 49.0223 12.0659C59.126 2.21992 75.828 4.69429 82.6841 17.0661C87.839 26.4481 93.3033 35.6239 98.6129 44.9028C107.479 60.3161 116.449 75.7294 125.212 91.1942C132.584 104.133 124.594 120.474 109.954 122.691C100.984 124.031 92.5816 119.907 87.9421 111.866C80.1582 98.308 72.3227 84.7505 64.5387 71.2446C64.3841 70.9353 64.1779 70.6775 63.9717 70.4198C63.1469 69.7496 62.786 68.7702 62.2705 67.8939C58.8167 61.811 55.2598 55.7798 51.806 49.7485C49.5894 45.8307 47.2697 41.9645 45.053 38.0468C43.0426 34.5414 42.1147 30.7267 42.2178 26.7059C42.3725 24.6439 42.6302 22.5819 43.5581 20.7262Z" fill="#3C8BD9"/>
<path d="M43.5581 20.7262C43.0942 22.582 42.6818 24.4378 42.5787 26.3966C42.424 30.7268 43.5066 34.7476 45.6716 38.5107C51.3421 48.2536 57.0125 58.048 62.6314 67.8424C63.1469 68.7187 63.5593 69.595 64.0748 70.4198C60.9818 75.781 57.8888 81.0906 54.7443 86.4517C50.4142 93.9264 46.084 101.453 41.7023 108.927C41.4961 108.927 41.4446 108.824 41.393 108.669C41.3415 108.257 41.4961 107.896 41.5992 107.484C43.7128 99.7514 41.9601 92.8954 36.6505 87.0187C33.4029 83.4618 29.2789 81.4514 24.5364 80.7813C18.3505 79.9049 12.8862 81.5029 7.98903 85.3692C7.11269 86.0393 6.54564 87.0187 5.51465 87.5342C5.30846 87.5342 5.20536 87.4311 5.15381 87.2765C7.62818 82.9979 10.051 78.7193 12.5254 74.4407C22.7322 56.7077 32.9389 38.9747 43.1973 21.2932C43.3004 21.087 43.455 20.9324 43.5581 20.7262Z" fill="#FABC04"/>
<path d="M5.36 87.4312C6.33944 86.5548 7.26732 85.6269 8.29831 84.8021C20.8248 74.9047 39.6404 82.07 42.3725 97.741C43.0426 101.504 42.6818 105.113 41.5477 108.721C41.4961 109.03 41.4446 109.288 41.3415 109.597C40.8775 110.422 40.4651 111.299 39.9496 112.123C35.3618 119.701 28.6088 123.464 19.7423 122.897C9.58705 122.175 1.59689 114.546 0.205056 104.442C-0.465086 99.5453 0.514353 94.9574 3.04027 90.7303C3.55577 89.8024 4.17436 88.9776 4.7414 88.0498C4.99915 87.8436 4.89605 87.4312 5.36 87.4312Z" fill="#34A852"/>
<path d="M5.35997 87.4312C5.15377 87.6374 5.15377 87.9982 4.79292 88.0498C4.74137 87.6889 4.94757 87.4827 5.15377 87.225L5.35997 87.4312Z" fill="#FABC04"/>
<path d="M41.3415 109.597C41.1353 109.237 41.3415 108.979 41.5477 108.721C41.5993 108.773 41.7024 108.876 41.7539 108.927L41.3415 109.597Z" fill="#E1C025"/>
</g>
<defs>
<clipPath id="clip0_240_7203">
<rect width="128" height="128" fill="white"/>
</clipPath>
</defs>
</svg>
