<svg width="128" height="128" viewBox="0 0 128 128" fill="none" xmlns="http://www.w3.org/2000/svg">
<g clip-path="url(#clip0_300_10544)">
<mask id="mask0_300_10544" style="mask-type:luminance" maskUnits="userSpaceOnUse" x="0" y="-1" width="129" height="129">
<path d="M0.265625 -0.103516H128.266V127.896H0.265625V-0.103516Z" fill="white"/>
</mask>
<g mask="url(#mask0_300_10544)">
<path d="M35.7248 97.5832L20.6208 112.69C20.0612 113.248 19.3035 113.561 18.5136 113.561C17.7237 113.561 16.966 113.248 16.4064 112.69L15.472 111.756C14.9154 111.197 14.603 110.439 14.603 109.65C14.603 108.861 14.9154 108.104 15.472 107.545L30.576 92.4376C31.1357 91.8791 31.8941 91.5654 32.6848 91.5654C33.4754 91.5654 34.2338 91.8791 34.7936 92.4376L35.7248 93.3688C36.002 93.6452 36.2219 93.9736 36.372 94.3352C36.522 94.6968 36.5993 95.0845 36.5993 95.476C36.5993 95.8675 36.522 96.2551 36.372 96.6167C36.2219 96.9783 36.002 97.3067 35.7248 97.5832Z" fill="#FBBC04"/>
<path d="M76.2656 103.896H95.6C98.139 103.896 100.653 103.397 102.999 102.425C105.345 101.454 107.476 100.029 109.271 98.2339C111.067 96.4384 112.49 94.3068 113.461 91.9609C114.433 89.6149 114.932 87.1007 114.931 84.5617V32.5617C114.932 30.0229 114.432 27.509 113.461 25.1634C112.489 22.8179 111.065 20.6867 109.27 18.8915C107.475 17.0964 105.344 15.6724 102.998 14.7011C100.653 13.7298 98.1388 13.23 95.6 13.2305C93.061 13.2296 90.5467 13.729 88.2008 14.7002C85.8549 15.6713 83.7233 17.0952 81.9278 18.8904C80.1323 20.6856 78.7081 22.8169 77.7366 25.1627C76.765 27.5085 76.2652 30.0227 76.2656 32.5617V103.896Z" fill="#4285F4"/>
<path d="M44.2656 103.896C46.8048 103.897 49.3194 103.397 51.6655 102.426C54.0116 101.455 56.1434 100.031 57.9389 98.235C59.7344 96.4395 61.1586 94.3078 62.1299 91.9616C63.1013 89.6155 63.6008 87.1009 63.5999 84.5617C63.6004 82.0227 63.1005 79.5085 62.129 77.1627C61.1575 74.8169 59.7333 72.6856 57.9378 70.8904C56.1423 69.0952 54.0107 67.6713 51.6648 66.7002C49.3188 65.729 46.8045 65.2296 44.2656 65.2305C41.7266 65.2296 39.2123 65.729 36.8663 66.7002C34.5204 67.6713 32.3888 69.0952 30.5933 70.8904C28.7978 72.6856 27.3736 74.8169 26.4021 77.1627C25.4306 79.5085 24.9307 82.0227 24.9312 84.5617C24.9303 87.1009 25.4298 89.6155 26.4012 91.9616C27.3725 94.3078 28.7967 96.4395 30.5922 98.235C32.3877 100.031 34.5195 101.455 36.8656 102.426C39.2117 103.397 41.7263 103.897 44.2656 103.896Z" fill="#FBBC04"/>
<path d="M89.7697 103.896H70.9313C68.3923 103.897 65.8781 103.397 63.5323 102.426C61.1866 101.454 59.0552 100.03 57.26 98.2343C55.4648 96.4388 54.041 94.3072 53.0698 91.9613C52.0987 89.6154 51.5993 87.1011 51.6001 84.5621V59.2309C51.5993 56.6919 52.0987 54.1776 53.0698 51.8317C54.041 49.4857 55.4648 47.3541 57.26 45.5587C59.0552 43.7632 61.1866 42.339 63.5323 41.3674C65.8781 40.3959 68.3923 39.8961 70.9313 39.8965C73.4706 39.8956 75.9851 40.3952 78.3313 41.3665C80.6774 42.3379 82.8091 43.762 84.6047 45.5575C86.4002 47.3531 87.8243 49.4848 88.7957 51.8309C89.767 54.1771 90.2665 56.6916 90.2657 59.2309V103.404C90.2657 103.534 90.2138 103.66 90.1214 103.752C90.0289 103.845 89.9036 103.896 89.7729 103.896H89.7697Z" fill="#34A853"/>
<path d="M90.2656 103.405V59.2318C90.2653 55.0346 88.8991 50.9514 86.3735 47.5991C83.8479 44.2468 80.2999 41.8074 76.2656 40.6494V103.897H89.7696C89.8346 103.898 89.899 103.885 89.9592 103.861C90.0194 103.836 90.0741 103.8 90.1202 103.754C90.1663 103.708 90.2028 103.654 90.2278 103.594C90.2528 103.534 90.2656 103.47 90.2656 103.405Z" fill="#1967D2"/>
<path d="M63.6001 84.9378C63.6007 81.1019 62.4599 77.3527 60.323 74.1672C58.186 70.9817 55.1496 68.5041 51.6001 67.0498V84.9378C51.6001 90.4418 53.9041 95.4114 57.6001 98.9314C59.4979 97.1285 61.0087 94.9579 62.0402 92.5521C63.0718 90.1462 63.6025 87.5555 63.6001 84.9378Z" fill="#EA4335"/>
</g>
</g>
<defs>
<clipPath id="clip0_300_10544">
<rect width="128" height="128" fill="white"/>
</clipPath>
</defs>
</svg>
