<svg width="128" height="128" viewBox="0 0 128 128" fill="none" xmlns="http://www.w3.org/2000/svg">
<g clip-path="url(#clip0_300_10540)">
<path d="M11.9604 20.5244H116.682V107.781H11.9604V20.5244Z" fill="#0F9D58"/>
<path d="M87.5887 67.0825C91.2143 67.0825 94.1324 64.1423 94.1324 60.5388C94.1324 56.9354 91.1922 53.9951 87.5887 53.9951C83.9853 53.9951 81.045 56.9354 81.045 60.5388C81.045 64.1423 83.9853 67.0825 87.5887 67.0825ZM87.5887 71.4376C80.5808 71.4376 73.0422 75.1516 73.0422 79.7499V84.525H102.135V79.7499C102.135 75.1516 94.5966 71.4376 87.5887 71.4376ZM41.0533 67.0825C44.6789 67.0825 47.597 64.1423 47.597 60.5388C47.597 56.9354 44.6567 53.9951 41.0533 53.9951C37.4498 53.9951 34.5096 56.9354 34.5096 60.5388C34.5096 64.1423 37.4498 67.0825 41.0533 67.0825ZM41.0533 71.4376C34.0453 71.4376 26.5068 75.1516 26.5068 79.7499V84.525H55.5998V79.7499C55.5998 75.1516 48.0612 71.4376 41.0533 71.4376Z" fill="#57BB8A"/>
<path d="M64.3321 61.2463C69.1514 61.2463 73.0644 57.3333 73.0422 52.514C73.0422 47.6947 69.1293 43.7817 64.31 43.8038C59.4906 43.8038 55.5998 47.7168 55.5998 52.5361C55.5998 57.3554 59.5127 61.2463 64.3321 61.2463ZM64.3321 67.0826C54.5165 67.0826 43.9714 72.2998 43.9714 78.7109V84.5251H84.6927V78.7109C84.6927 72.2777 74.1476 67.0826 64.3321 67.0826Z" fill="#F7F7F7"/>
<path d="M75.9604 101.989H102.135V107.803H75.9604V101.989Z" fill="#F1F1F1"/>
<path d="M119.6 8.89648H9.06433C4.24498 8.89648 0.332031 12.8094 0.332031 17.6288V110.722C0.332031 115.519 4.24498 119.432 9.06433 119.432H119.6C124.419 119.432 128.332 115.519 128.332 110.7V17.6288C128.31 12.8094 124.419 8.89648 119.6 8.89648ZM116.682 107.804H11.9604V20.5248H116.682V107.804Z" fill="#F4B400"/>
<path opacity="0.2" d="M119.6 8.89648H9.06433C4.24498 8.89648 0.332031 12.8094 0.332031 17.6288V18.3583C0.332031 13.539 4.24498 9.62602 9.06433 9.62602H119.6C124.419 9.62602 128.332 13.539 128.332 18.3583V17.6288C128.31 12.8094 124.419 8.89648 119.6 8.89648Z" fill="white"/>
<path opacity="0.2" d="M119.6 118.702H9.06433C4.24498 118.702 0.332031 114.789 0.332031 109.97V110.699C0.332031 115.519 4.24498 119.432 9.06433 119.432H119.6C124.419 119.432 128.332 115.519 128.332 110.699V109.97C128.31 114.789 124.419 118.702 119.6 118.702Z" fill="#BF360C"/>
<path d="M102.091 107.804H75.916L87.5443 119.432H113.697L102.091 107.804Z" fill="url(#paint0_linear_300_10540)"/>
<path opacity="0.2" d="M11.9604 19.7949H116.682V20.5245H11.9604V19.7949Z" fill="#263238"/>
<path opacity="0.2" d="M11.9604 107.804H116.682V108.533H11.9604V107.804Z" fill="white"/>
<path d="M119.6 8.89648H9.06433C4.24498 8.89648 0.332031 12.8094 0.332031 17.6288V110.722C0.332031 115.519 4.24498 119.432 9.06433 119.432H119.6C124.419 119.432 128.332 115.519 128.332 110.7V17.6288C128.31 12.8094 124.419 8.89648 119.6 8.89648Z" fill="url(#paint1_radial_300_10540)"/>
</g>
<defs>
<linearGradient id="paint0_linear_300_10540" x1="94.8134" y1="107.958" x2="94.8134" y2="119.554" gradientUnits="userSpaceOnUse">
<stop stop-color="#BF360C" stop-opacity="0.2"/>
<stop offset="1" stop-color="#BF360C" stop-opacity="0.02"/>
</linearGradient>
<radialGradient id="paint1_radial_300_10540" cx="0" cy="0" r="1" gradientUnits="userSpaceOnUse" gradientTransform="translate(4.74113 11.4873) scale(152.865 152.864)">
<stop stop-color="white" stop-opacity="0.1"/>
<stop offset="1" stop-color="white" stop-opacity="0"/>
</radialGradient>
<clipPath id="clip0_300_10540">
<rect width="128" height="128" fill="white"/>
</clipPath>
</defs>
</svg>
