<svg width="128" height="128" viewBox="0 0 128 128" fill="none" xmlns="http://www.w3.org/2000/svg">
<g clip-path="url(#clip0_300_10538)">
<path d="M76.6905 39.4252L91.7637 64.0744L111.371 31.989L100.678 13.4696C98.3309 9.40278 93.9922 6.89648 89.2929 6.89648H70.9331L51.0364 39.4252H76.6905Z" fill="#4286F5"/>
<path d="M76.6905 88.7352H51.0364L70.9212 121.264H89.287C93.9863 121.264 98.325 118.758 100.672 114.691L111.377 96.1536L91.7637 64.0742L76.6905 88.7352Z" fill="#4286F5"/>
<path d="M51.0364 39.4252L70.9272 6.89648H38.434C33.7347 6.89648 29.396 9.40278 27.0493 13.4696L12.0647 39.4252H51.0364Z" fill="#1967D3"/>
<path d="M126.101 57.5004L111.371 31.9941L91.7639 64.0795L111.377 96.1589L126.101 70.6585C128.454 66.5799 128.454 61.5673 126.101 57.5004Z" fill="#1967D3"/>
<path d="M51.0364 88.7354H12.0647L27.0493 114.691C29.396 118.758 33.7347 121.264 38.434 121.264H70.9154L51.0364 88.7354Z" fill="#1967D3"/>
<path d="M35.9632 64.074L51.0365 39.4248H12.0647L1.62575 57.5009C-0.720952 61.5677 -0.720952 66.5803 1.62575 70.653L12.0647 88.7409H51.0365L35.9632 64.074Z" fill="#4286F5"/>
</g>
<defs>
<clipPath id="clip0_300_10538">
<rect width="128" height="128" fill="white"/>
</clipPath>
</defs>
</svg>
