<svg width="128" height="128" viewBox="0 0 128 128" fill="none" xmlns="http://www.w3.org/2000/svg">
<g clip-path="url(#clip0_240_6934)">
<g clip-path="url(#clip1_240_6934)">
<path d="M32 29.0929C49.6727 29.0929 64 43.418 64 61.0929V64H2.90712C1.30169 64 0 62.6983 0 61.0929C0 43.418 14.3273 29.0929 32 29.0929Z" fill="#FBBC04"/>
<path d="M98.9071 32C98.9071 49.6727 84.582 64 66.9071 64H64V2.90712C64 1.30169 65.3017 0 66.9071 0C84.582 0 98.9071 14.3273 98.9071 32Z" fill="#EA4335"/>
<path d="M96 98.9071C78.3273 98.9071 64 84.582 64 66.9071V64H125.093C126.698 64 128 65.3017 128 66.9071C128 84.582 113.673 98.9071 96 98.9071Z" fill="#4285F4"/>
<path d="M29.0928 96C29.0928 78.3273 43.418 64 61.0928 64H64V125.093C64 126.698 62.6983 128 61.0928 128C43.418 128 29.0928 113.673 29.0928 96Z" fill="#34A853"/>
</g>
</g>
<defs>
<clipPath id="clip0_240_6934">
<rect width="128" height="128" fill="white"/>
</clipPath>
<clipPath id="clip1_240_6934">
<rect width="128" height="128" fill="white"/>
</clipPath>
</defs>
</svg>
