<?xml version="1.0" encoding="UTF-8" standalone="no"?>
<!DOCTYPE svg PUBLIC "-//W3C//DTD SVG 1.1//EN" "http://www.w3.org/Graphics/SVG/1.1/DTD/svg11.dtd">
<svg xmlns="http://www.w3.org/2000/svg" version="1.1" viewBox="0.00 0.00 400.00 400.00">
<g stroke-width="2.00" fill="none" stroke-linecap="butt">
<path stroke="#92b1f5" vector-effect="non-scaling-stroke" d="
  M 91.89 79.79
  Q 91.73 79.95 91.73 80.07
  Q 91.77 103.09 91.64 131.43
  Q 91.53 155.43 92.67 161.49
  C 101.51 208.44 152.04 233.04 194.04 211.08
  Q 203.24 206.26 210.75 198.77
  Q 218.25 191.28 223.07 182.08
  C 245.09 140.11 220.55 89.55 173.61 80.65
  Q 167.55 79.50 143.55 79.58
  Q 115.21 79.68 92.19 79.60
  Q 92.08 79.60 91.89 79.79"
/>
<path stroke="#90add8" vector-effect="non-scaling-stroke" d="
  M 251.49 185.11
  C 267.60 201.11 293.38 196.47 304.02 177.36
  C 306.95 172.10 307.95 166.31 307.94 160.25
  Q 307.92 144.41 307.83 128.81
  Q 307.83 128.72 307.68 128.56
  Q 307.52 128.41 307.43 128.41
  Q 291.83 128.42 275.99 128.50
  C 269.93 128.53 264.15 129.57 258.91 132.53
  C 239.87 143.30 235.39 169.11 251.49 185.11"
/>
<path stroke="#85919f" vector-effect="non-scaling-stroke" d="
  M 307.66 320.34
  Q 307.80 320.20 307.80 320.11
  Q 307.80 301.11 307.95 277.73
  Q 308.08 257.94 307.15 252.94
  C 299.93 214.19 258.29 193.82 223.60 211.87
  Q 216.00 215.83 209.80 222.00
  Q 203.60 228.16 199.61 235.75
  C 181.38 270.33 201.54 312.08 240.25 319.50
  Q 245.24 320.45 265.04 320.43
  Q 288.42 320.39 307.41 320.49
  Q 307.51 320.49 307.66 320.34"
/>
<path stroke="#8ca0bf" vector-effect="non-scaling-stroke" d="
  M 91.98 320.26
  Q 92.14 320.43 92.27 320.43
  Q 112.47 320.46 137.76 320.34
  C 157.01 320.25 173.82 308.93 180.91 291.07
  C 187.71 273.94 183.62 254.47 170.50 241.41
  C 157.38 228.34 137.89 224.33 120.79 231.21
  C 102.96 238.38 91.71 255.23 91.71 274.48
  Q 91.70 299.78 91.82 319.98
  Q 91.82 320.10 91.98 320.26"
/>
</g>
<path fill="#ffffff" d="
  M 400.00 0.00
  L 400.00 400.00
  L 0.00 400.00
  L 0.00 0.00
  L 400.00 0.00
  Z
  M 91.89 79.79
  Q 91.73 79.95 91.73 80.07
  Q 91.77 103.09 91.64 131.43
  Q 91.53 155.43 92.67 161.49
  C 101.51 208.44 152.04 233.04 194.04 211.08
  Q 203.24 206.26 210.75 198.77
  Q 218.25 191.28 223.07 182.08
  C 245.09 140.11 220.55 89.55 173.61 80.65
  Q 167.55 79.50 143.55 79.58
  Q 115.21 79.68 92.19 79.60
  Q 92.08 79.60 91.89 79.79
  Z
  M 251.49 185.11
  C 267.60 201.11 293.38 196.47 304.02 177.36
  C 306.95 172.10 307.95 166.31 307.94 160.25
  Q 307.92 144.41 307.83 128.81
  Q 307.83 128.72 307.68 128.56
  Q 307.52 128.41 307.43 128.41
  Q 291.83 128.42 275.99 128.50
  C 269.93 128.53 264.15 129.57 258.91 132.53
  C 239.87 143.30 235.39 169.11 251.49 185.11
  Z
  M 307.66 320.34
  Q 307.80 320.20 307.80 320.11
  Q 307.80 301.11 307.95 277.73
  Q 308.08 257.94 307.15 252.94
  C 299.93 214.19 258.29 193.82 223.60 211.87
  Q 216.00 215.83 209.80 222.00
  Q 203.60 228.16 199.61 235.75
  C 181.38 270.33 201.54 312.08 240.25 319.50
  Q 245.24 320.45 265.04 320.43
  Q 288.42 320.39 307.41 320.49
  Q 307.51 320.49 307.66 320.34
  Z
  M 91.98 320.26
  Q 92.14 320.43 92.27 320.43
  Q 112.47 320.46 137.76 320.34
  C 157.01 320.25 173.82 308.93 180.91 291.07
  C 187.71 273.94 183.62 254.47 170.50 241.41
  C 157.38 228.34 137.89 224.33 120.79 231.21
  C 102.96 238.38 91.71 255.23 91.71 274.48
  Q 91.70 299.78 91.82 319.98
  Q 91.82 320.10 91.98 320.26
  Z"
/>
<path fill="#2563ea" d="
  M 210.75 198.77
  Q 203.24 206.26 194.04 211.08
  C 152.04 233.04 101.51 208.44 92.67 161.49
  Q 91.53 155.43 91.64 131.43
  Q 91.77 103.09 91.73 80.07
  Q 91.73 79.95 91.89 79.79
  Q 92.08 79.60 92.19 79.60
  Q 115.21 79.68 143.55 79.58
  Q 167.55 79.50 173.61 80.65
  C 220.55 89.55 245.09 140.11 223.07 182.08
  Q 218.25 191.28 210.75 198.77
  Z"
/>
<path fill="#205bb0" d="
  M 307.68 128.56
  Q 307.83 128.72 307.83 128.81
  Q 307.92 144.41 307.94 160.25
  C 307.95 166.31 306.95 172.10 304.02 177.36
  C 293.38 196.47 267.60 201.11 251.49 185.11
  C 235.39 169.11 239.87 143.30 258.91 132.53
  C 264.15 129.57 269.93 128.53 275.99 128.50
  Q 291.83 128.42 307.43 128.41
  Q 307.52 128.41 307.68 128.56
  Z"
/>
<path fill="#0b233f" d="
  M 307.66 320.34
  Q 307.51 320.49 307.41 320.49
  Q 288.42 320.39 265.04 320.43
  Q 245.24 320.45 240.25 319.50
  C 201.54 312.08 181.38 270.33 199.61 235.75
  Q 203.60 228.16 209.80 222.00
  Q 216.00 215.83 223.60 211.87
  C 258.29 193.82 299.93 214.19 307.15 252.94
  Q 308.08 257.94 307.95 277.73
  Q 307.80 301.11 307.80 320.11
  Q 307.80 320.20 307.66 320.34
  Z"
/>
<path fill="#18417f" d="
  M 170.50 241.41
  C 183.62 254.47 187.71 273.94 180.91 291.07
  C 173.82 308.93 157.01 320.25 137.76 320.34
  Q 112.47 320.46 92.27 320.43
  Q 92.14 320.43 91.98 320.26
  Q 91.82 320.10 91.82 319.98
  Q 91.70 299.78 91.71 274.48
  C 91.71 255.23 102.96 238.38 120.79 231.21
  C 137.89 224.33 157.38 228.34 170.50 241.41
  Z"
/>
</svg>
