<svg xmlns="http://www.w3.org/2000/svg" viewBox="0 0 105.82 25.82"><defs><style>.cls-1{fill:#191133;}.cls-2{fill:#ed2762;}.cls-3{fill:#fdbd24;}.cls-4{fill:#ac217d;}</style></defs><g id="Layer_2" data-name="Layer 2"><g id="Layer_1-2" data-name="Layer 1"><path class="cls-1" d="M33.58,17.8H31.8a2.82,2.82,0,0,1-2.05-.71,2.72,2.72,0,0,1-.72-2V9.73a2.72,2.72,0,0,1,.72-2A2.82,2.82,0,0,1,31.8,7h1.78a2.73,2.73,0,0,1,2,.72,2.68,2.68,0,0,1,.73,2v.51a.33.33,0,0,1-.36.37H34.56a.33.33,0,0,1-.36-.37V9.83A1.1,1.1,0,0,0,34,9.07a1,1,0,0,0-.76-.23H32.14a1,1,0,0,0-.75.23,1,1,0,0,0-.23.76V15a1,1,0,0,0,.23.76,1,1,0,0,0,.75.23h1.09a1,1,0,0,0,.76-.23A1.1,1.1,0,0,0,34.2,15V13.9a.17.17,0,0,0-.18-.19H33a.31.31,0,0,1-.35-.35V12.22a.31.31,0,0,1,.35-.35H36c.26,0,.39.12.39.38v2.81a2.68,2.68,0,0,1-.73,2A2.73,2.73,0,0,1,33.58,17.8Z"/><path class="cls-1" d="M56.75,16.3v1.16a.37.37,0,0,1-.08.26.38.38,0,0,1-.27.08H53.89a2.84,2.84,0,0,1-2-.71,2.72,2.72,0,0,1-.72-2V12a2.73,2.73,0,0,1,.72-2,2.83,2.83,0,0,1,2-.7H56.4a.31.31,0,0,1,.35.35v1.16a.37.37,0,0,1-.08.26.38.38,0,0,1-.27.08H54.23a1,1,0,0,0-.75.22,1.07,1.07,0,0,0-.23.77V15a1,1,0,0,0,.23.76,1,1,0,0,0,.75.23H56.4A.31.31,0,0,1,56.75,16.3Z"/><path class="cls-1" d="M64,17.8H60.31a2.82,2.82,0,0,1-2.05-.71,2.72,2.72,0,0,1-.72-2V12a2.73,2.73,0,0,1,.72-2,2.82,2.82,0,0,1,2.05-.7h1.33a2.82,2.82,0,0,1,2,.7,2.73,2.73,0,0,1,.72,2V14.1a.31.31,0,0,1-.35.35H59.84c-.13,0-.2.06-.2.19V15a1,1,0,0,0,.23.74,1,1,0,0,0,.76.23H64a.32.32,0,0,1,.36.37v1.11a.37.37,0,0,1-.08.26A.39.39,0,0,1,64,17.8ZM59.84,13h2.29a.16.16,0,0,0,.18-.18V12a1,1,0,0,0-.22-.75,1,1,0,0,0-.75-.22h-.71a1,1,0,0,0-.76.22,1.07,1.07,0,0,0-.21.75v.81A.16.16,0,0,0,59.84,13Z"/><path class="cls-1" d="M65.69,17.44V7.35c0-.24.11-.36.35-.36h4a2.81,2.81,0,0,1,2.05.71,2.69,2.69,0,0,1,.72,2v.68a1.76,1.76,0,0,1-1.32,1.85,1.76,1.76,0,0,1,1.07.55,1.81,1.81,0,0,1,.4,1.27v1a2.69,2.69,0,0,1-.72,2,2.79,2.79,0,0,1-2,.71H66C65.8,17.8,65.69,17.68,65.69,17.44ZM68,11.38h1.71a1.16,1.16,0,0,0,.79-.23,1,1,0,0,0,.25-.75V9.75A1,1,0,0,0,70.52,9a1.15,1.15,0,0,0-.78-.23H68a.17.17,0,0,0-.19.19v2.23A.17.17,0,0,0,68,11.38ZM68,16h1.88a1.18,1.18,0,0,0,.8-.23,1,1,0,0,0,.24-.75v-1a1,1,0,0,0-.25-.74,1.25,1.25,0,0,0-.83-.22H68c-.13,0-.19.06-.19.18v2.54A.17.17,0,0,0,68,16Z"/><path class="cls-1" d="M76.22,17.8H74.79a.32.32,0,0,1-.35-.36V6.34A.31.31,0,0,1,74.79,6h1.43a.3.3,0,0,1,.35.35v11.1C76.57,17.68,76.46,17.8,76.22,17.8Z"/><path class="cls-1" d="M103.18,17.8H100q-.33,0-.33-.36V16.37a.41.41,0,0,1,.06-.26A.38.38,0,0,1,100,16h2.81c.55,0,.82-.17.82-.5v-.09c0-.27-.23-.52-.69-.77l-1.66-.92a3.89,3.89,0,0,1-1.26-.94,2,2,0,0,1-.4-1.3,2.19,2.19,0,0,1,.62-1.73,2.86,2.86,0,0,1,2-.55H105a.31.31,0,0,1,.34.35v1.09a.4.4,0,0,1-.07.26A.35.35,0,0,1,105,11h-2.33c-.55,0-.83.14-.83.42v.08c0,.25.24.5.73.76l1.69,1a3.6,3.6,0,0,1,1.23,1,2.24,2.24,0,0,1,.35,1.3C105.82,17.05,104.94,17.8,103.18,17.8Z"/><path class="cls-1" d="M39.45,17.8H38a.32.32,0,0,1-.35-.36V9.58A.31.31,0,0,1,38,9.23h1.43a.32.32,0,0,1,.36.35v.57h.06a1.34,1.34,0,0,1,.66-.69,2.25,2.25,0,0,1,1-.23h.6a.31.31,0,0,1,.34.35v1.16a.41.41,0,0,1-.08.28.32.32,0,0,1-.26.06H41c-.77,0-1.15.43-1.15,1.31v5.05A.32.32,0,0,1,39.45,17.8Z"/><path class="cls-1" d="M46.05,17.8h-.4a2.82,2.82,0,0,1-2-.71,2.72,2.72,0,0,1-.72-2V12a2.73,2.73,0,0,1,.72-2,2.82,2.82,0,0,1,2-.7h3.88c.25,0,.37.12.37.35v7.86a.32.32,0,0,1-.37.36H48.12a.32.32,0,0,1-.35-.36v-.55H47.7a1.27,1.27,0,0,1-.65.68A2.32,2.32,0,0,1,46.05,17.8Zm1.72-3.13V11.26c0-.12-.07-.18-.2-.18H46a1,1,0,0,0-.76.22,1.12,1.12,0,0,0-.22.77V15a1.09,1.09,0,0,0,.22.76A1,1,0,0,0,46,16h.62C47.38,16,47.77,15.52,47.77,14.67Z"/><path class="cls-1" d="M81.67,17.8h-1.5a2.82,2.82,0,0,1-2-.71,2.72,2.72,0,0,1-.72-2V12a2.73,2.73,0,0,1,.72-2,2.82,2.82,0,0,1,2-.7h1.5a2.83,2.83,0,0,1,2,.71,2.74,2.74,0,0,1,.73,2v3.09a2.71,2.71,0,0,1-.73,2A2.79,2.79,0,0,1,81.67,17.8ZM80.49,16h.86a1.1,1.1,0,0,0,.76-.21,1,1,0,0,0,.23-.76V12a1,1,0,0,0-.23-.75,1,1,0,0,0-.76-.22h-.86a1,1,0,0,0-.76.22,1.07,1.07,0,0,0-.21.75v3a1.1,1.1,0,0,0,.21.76A1.1,1.1,0,0,0,80.49,16Z"/><path class="cls-1" d="M91.09,16.3v1.16a.37.37,0,0,1-.07.26.43.43,0,0,1-.28.08h-2.5a2.81,2.81,0,0,1-2-.71,2.68,2.68,0,0,1-.73-2V12a2.69,2.69,0,0,1,.73-2,2.8,2.8,0,0,1,2-.7h2.5a.31.31,0,0,1,.35.35v1.16A.37.37,0,0,1,91,11a.43.43,0,0,1-.28.08H88.57a1,1,0,0,0-.75.22,1.07,1.07,0,0,0-.22.77V15a1,1,0,0,0,.22.76,1,1,0,0,0,.75.23h2.17A.31.31,0,0,1,91.09,16.3Z"/><path class="cls-1" d="M93.83,17.8H92.4a.32.32,0,0,1-.35-.36V6.34A.31.31,0,0,1,92.4,6h1.43a.31.31,0,0,1,.35.35v11.1A.32.32,0,0,1,93.83,17.8ZM97,9.23h1.63q.21,0,.27.12c.05.07,0,.17,0,.3l-2.23,3.68v.06l2.33,4a.24.24,0,0,1,0,.29.36.36,0,0,1-.3.13H97.17a1,1,0,0,1-.41-.07.84.84,0,0,1-.26-.29L94.37,13.7a.56.56,0,0,1,0-.56l2-3.58A.62.62,0,0,1,97,9.23Z"/><path id="Path_13349" data-name="Path 13349" class="cls-2" d="M19.3,11.31V21.89a.25.25,0,0,1-.25.25H4.12a.26.26,0,0,0-.26.25h0v3.18a.26.26,0,0,0,.26.25H22.91a.25.25,0,0,0,.25-.25V11.31a.25.25,0,0,0-.25-.25H19.55A.25.25,0,0,0,19.3,11.31Z"/><path id="Path_13350" data-name="Path 13350" class="cls-3" d="M15.18,7.38H8a.25.25,0,0,0-.25.25V18.19a.25.25,0,0,0,.25.25h7.2a.26.26,0,0,0,.26-.25V15a.26.26,0,0,0-.26-.25H11.82a.25.25,0,0,1-.25-.25v-3.2a.25.25,0,0,1,.25-.25H19a.26.26,0,0,0,.26-.26h0V3.94A.26.26,0,0,0,19,3.69H15.68a.25.25,0,0,0-.25.25V7.13A.25.25,0,0,1,15.18,7.38Z"/><path id="Path_13351" data-name="Path 13351" class="cls-4" d="M15.44,3.44V.25A.25.25,0,0,0,15.19,0H.25A.25.25,0,0,0,0,.25V21.89a.25.25,0,0,0,.25.25H3.61a.25.25,0,0,0,.25-.25h0V3.94a.25.25,0,0,1,.25-.25H15.19a.25.25,0,0,0,.25-.25Z"/></g></g></svg>