<svg width="128" height="128" viewBox="0 0 128 128" fill="none" xmlns="http://www.w3.org/2000/svg">
<path d="M122.54 56.43C122.402 54.2278 121.989 51.7504 121.301 49.1355C120.613 46.3828 119.512 43.4924 117.998 40.327C116.484 37.2987 114.42 33.9957 111.804 30.8301C110.841 29.5914 109.602 28.3527 108.501 27.2516C110.29 20.0946 106.299 13.9011 106.299 13.9011C99.417 13.4882 95.013 16.1032 93.3612 17.2043C93.086 17.0667 92.8108 16.929 92.5355 16.929C91.4343 16.3785 90.1955 15.9656 88.9568 15.6903C87.7185 15.4151 86.4797 15.0021 85.1032 14.5893C83.8645 14.314 82.4883 14.0387 81.1118 13.7635C80.8366 13.7635 80.6988 13.6258 80.4235 13.6258C77.3956 3.9914 68.7246 0 68.7246 0C59.0904 6.05592 57.3012 14.5893 57.3012 14.5893C57.3012 14.5893 57.3012 14.7269 57.1634 15.1398C56.613 15.2774 56.0625 15.4151 55.5117 15.5527C54.8238 15.8279 53.9977 16.1032 53.3098 16.3785C52.6216 16.6537 51.7959 16.929 51.1076 17.2043C49.7311 17.7548 48.2171 18.5807 46.841 19.2688C45.4645 20.0946 44.0883 20.9204 42.8496 21.7462C42.7118 21.6086 42.5743 21.6086 42.5743 21.6086C29.2237 16.5161 17.3871 22.7097 17.3871 22.7097C16.5613 36.8861 22.8925 45.8324 24.1312 47.4838C23.8559 48.3098 23.5807 49.2729 23.3054 50.099C22.3419 53.2643 21.6537 56.5678 21.1032 60.0084C20.9656 60.4214 20.9656 60.9719 20.9656 61.5227C8.71613 67.5786 5 79.9654 5 79.9654C15.3226 91.8022 27.1591 92.4904 27.1591 92.4904C28.6731 95.2431 30.4623 97.7206 32.3893 100.198C33.2151 101.161 34.0409 102.125 35.0043 103.088C31.2882 113.824 35.5549 122.632 35.5549 122.632C46.9784 123.045 54.5485 117.678 56.0625 116.439C57.1634 116.851 58.4021 117.127 59.5031 117.54C62.944 118.503 66.6602 118.916 70.2385 119.191C71.202 119.191 72.0281 119.191 72.9912 119.191H73.4042H73.6795H74.2299H74.7808C80.1483 126.899 89.6451 128 89.6451 128C96.3891 120.843 96.8022 113.824 96.8022 112.31V112.172C96.8022 112.034 96.8022 111.897 96.8022 111.897C96.8022 111.759 96.8022 111.621 96.8022 111.621C98.1783 110.658 99.5548 109.557 100.794 108.456C103.546 105.979 105.886 103.226 107.813 100.198C107.951 99.9224 108.226 99.6472 108.363 99.3719C115.933 99.785 121.301 94.6923 121.301 94.6923C120.062 86.7095 115.52 82.8559 114.557 82.1676H114.42H114.282C114.282 82.1676 114.144 82.1676 114.144 82.0302C114.144 81.6172 114.282 81.0667 114.282 80.6537C114.282 79.828 114.42 79.0023 114.42 78.0388V77.3505V77.0753V76.9375C114.42 76.6623 114.42 76.8001 114.42 76.6623V76.1118V75.4235C114.42 75.1483 114.42 75.0109 114.42 74.7353C114.42 74.4601 114.42 74.3226 114.282 74.0474L114.144 73.3591L114.006 72.6709C113.869 71.8452 113.731 70.8817 113.456 70.056C112.63 66.6151 111.254 63.4494 109.602 60.4214C107.813 57.5313 105.611 54.9161 103.133 52.7139C100.656 50.5117 97.9031 48.7225 95.013 47.4838C92.1225 46.245 89.0946 45.2815 86.0667 45.0063C84.5527 44.8689 83.0388 44.7311 81.5248 44.7311H80.974H80.8366C80.8366 44.7311 80.5613 44.7311 80.6988 44.7311H80.4235H79.8731C79.5979 44.7311 79.4601 44.7311 79.1848 44.7311C78.3591 44.7311 77.6709 44.8689 76.8452 45.0063C73.8173 45.5571 70.9268 46.6581 68.4494 48.172C65.9719 49.686 63.7701 51.613 61.9805 53.6774C60.1913 55.7418 58.8152 58.2192 57.8517 60.5592C56.8882 62.8989 56.3377 65.5141 56.1999 67.9912C56.1999 68.542 56.1999 69.2299 56.1999 69.7808C56.1999 69.9182 56.1999 70.056 56.1999 70.1934V70.7439C56.1999 71.0195 56.1999 71.2947 56.1999 71.5699C56.3377 72.8087 56.4752 74.0474 56.8882 75.1483C57.5764 77.4883 58.5399 79.5527 59.9161 81.3419C61.2926 83.1311 62.8066 84.5076 64.4579 85.7464C66.1097 86.8473 67.8989 87.673 69.6881 88.2238C71.4773 88.7743 73.129 88.9117 74.9182 88.9117C75.1934 88.9117 75.3312 88.9117 75.6065 88.9117C75.7443 88.9117 75.8817 88.9117 75.8817 88.9117H76.1569C76.2947 88.9117 76.4321 88.9117 76.7074 88.9117H76.8452H76.9826C77.1204 88.9117 77.2582 88.9117 77.2582 88.9117C77.5334 88.9117 77.6709 88.7743 77.8087 88.7743C77.9461 88.7743 78.2213 88.6365 78.3591 88.6365C78.7722 88.499 79.0474 88.499 79.4601 88.3612C80.1483 88.086 80.8366 87.8108 81.5248 87.5355C82.2127 87.2603 82.7636 86.8473 83.314 86.4342C83.4515 86.2968 83.5893 86.159 83.7271 86.159C84.2775 85.7464 84.4149 84.9203 84.0023 84.3698C83.5893 83.8194 82.901 83.6816 82.3505 84.0946C82.2127 84.0946 82.0753 84.2324 81.9375 84.3698C81.5248 84.6451 80.974 84.7829 80.4235 85.0581C79.8731 85.1955 79.3226 85.3333 78.7722 85.4708C78.4969 85.4708 78.2213 85.6086 77.9461 85.6086C77.8087 85.6086 77.6709 85.6086 77.5334 85.6086C77.3956 85.6086 77.2582 85.6086 77.1204 85.6086C76.9826 85.6086 76.8452 85.6086 76.7074 85.6086C76.5699 85.6086 76.2947 85.6086 76.1569 85.6086H76.0195C75.8817 85.6086 75.8817 85.6086 75.7443 85.6086C75.6065 85.6086 75.4687 85.6086 75.3312 85.6086C74.0925 85.4711 72.716 85.0581 71.4773 84.5076C70.2385 83.9568 68.9998 83.1311 67.8989 82.1676C66.798 81.2041 65.8345 79.9654 65.1462 78.7267C64.458 77.4883 63.9075 75.974 63.6323 74.3226C63.4945 73.4969 63.4945 72.6709 63.4945 71.9826C63.4945 71.7074 63.4945 71.5699 63.4945 71.2947V71.1569V71.0195C63.4945 70.8817 63.4945 70.7439 63.4945 70.7439C63.4945 70.3312 63.6323 69.9182 63.6323 69.5055C64.1827 66.0646 65.9719 62.7611 68.5872 60.284C69.2754 59.5957 69.9633 59.0453 70.6516 58.6323C71.3398 58.0818 72.1655 57.6688 72.9912 57.2557C73.8173 56.8431 74.643 56.5678 75.6065 56.2926C76.5699 56.017 77.3956 55.8796 78.3591 55.8796C78.7722 55.8796 79.3226 55.8796 79.7357 55.8796C79.8731 55.8796 80.0109 55.8796 80.0109 55.8796H80.4235H80.6988H80.8366H81.2496C82.2127 56.017 83.314 56.1548 84.2775 56.2926C86.2041 56.7053 88.1311 57.3935 90.0581 58.4945C93.6365 60.5592 96.6644 63.5871 98.5914 67.3033C99.5548 69.2299 100.243 71.1569 100.518 73.2213C100.656 73.7722 100.656 74.3226 100.656 74.7353V75.1483V75.5613C100.656 75.6988 100.656 75.8366 100.656 75.974C100.656 76.1118 100.656 76.2496 100.656 76.387V76.6623V77.0753C100.656 77.3505 100.656 77.7636 100.656 78.0388C100.656 78.5893 100.518 79.1397 100.518 79.6902C100.381 80.241 100.381 80.7915 100.243 81.3419C100.105 81.8924 99.9679 82.4429 99.8301 82.9937C99.5549 84.0946 99.1418 85.1955 98.7292 86.2968C97.9031 88.3612 96.8022 90.4257 95.4257 92.3526C92.673 96.0688 88.9568 99.0967 84.828 101.024C82.7636 101.987 80.4235 102.675 78.2213 103.088C77.1204 103.226 75.8817 103.363 74.7808 103.363H74.5055H74.3677H73.9547H73.4042H73.129H72.9912C72.3033 103.363 71.7529 103.363 71.202 103.226C68.7246 103.088 66.2471 102.675 63.9075 101.987C61.5678 101.299 59.2278 100.335 57.0256 99.2345C52.6216 96.8945 48.7676 93.7292 45.7397 89.8752C44.2257 87.9482 42.8496 85.8838 41.7483 83.6816C40.6473 81.4797 39.8215 79.2775 39.1333 76.9375C38.4451 74.5979 38.0323 72.2582 37.8946 69.7808V69.3677V69.2299V68.8173V68.6795V68.2668V68.129V67.9912V67.716V67.1655V67.0281V66.7525C37.8946 66.4773 37.8946 66.202 37.8946 65.9268C37.8946 64.6881 38.0323 63.5871 38.1699 62.3484C38.3075 61.1097 38.5828 59.871 38.7204 58.6323C38.8581 57.3935 39.2709 56.1548 39.5463 55.0539C40.2344 52.7139 41.0602 50.3742 42.0235 48.3098C44.0883 44.0428 46.7032 40.1892 49.7311 37.1613C50.5571 36.3355 51.3828 35.6473 52.2085 34.9591C53.0346 34.2709 53.8603 33.5828 54.8238 33.0323C55.7873 32.4817 56.613 31.9312 57.5764 31.3806C57.9891 31.1054 58.5399 30.8301 58.9526 30.6925C59.2278 30.5548 59.5031 30.4172 59.6409 30.4172C59.7787 30.4172 60.1913 30.1419 60.3291 30.1419C61.2926 29.729 62.3935 29.3161 63.357 29.0409C63.6323 28.9032 63.9075 28.9032 64.1827 28.7656C64.458 28.6279 64.7332 28.6279 65.0084 28.4903C65.5592 28.3527 66.1097 28.2151 66.6602 28.0774C66.9354 28.0774 67.2106 27.9398 67.4859 27.9398C67.7615 27.9398 68.0367 27.8021 68.3119 27.8021C68.5872 27.8021 68.8624 27.6645 69.1376 27.6645H69.5506H69.9633C70.2385 27.6645 70.5141 27.5269 70.7894 27.5269C71.0646 27.5269 71.3398 27.5269 71.7529 27.3893C72.0281 27.3893 72.4408 27.2516 72.716 27.2516C72.8538 27.2516 73.129 27.2516 73.2668 27.2516H73.6795H73.8173H74.0925C74.3677 27.2516 74.643 27.2516 75.056 27.2516H75.4687H75.6065H75.7443C76.0195 27.2516 76.2947 27.2516 76.5699 27.2516C77.6709 27.2516 78.6344 27.2516 79.5979 27.2516C81.6623 27.3893 83.7271 27.5269 85.6537 27.9398C89.5076 28.6279 93.2238 29.8667 96.5269 31.5183C99.8301 33.1699 102.858 35.0967 105.473 37.2987C105.611 37.4365 105.748 37.5743 105.886 37.7118C106.024 37.8496 106.161 37.987 106.299 38.1248C106.574 38.4 106.849 38.6753 107.262 38.9505C107.675 39.2257 107.813 39.501 108.088 39.7762C108.363 40.0514 108.639 40.327 108.914 40.6022C110.015 41.841 110.979 42.9419 111.942 44.1806C113.731 46.5203 115.245 48.9977 116.484 51.1999C116.621 51.3377 116.621 51.4752 116.759 51.613C116.897 51.7504 116.897 51.8882 117.034 52.0256C117.172 52.3012 117.31 52.5764 117.447 52.8517C117.585 53.1269 117.723 53.4021 117.86 53.6774C117.998 53.9526 118.135 54.2278 118.135 54.5031C118.548 55.6044 118.961 56.5678 119.237 57.5313C119.787 59.0453 120.2 60.4214 120.475 61.6602C120.613 62.0732 121.026 62.4859 121.576 62.3484C122.127 62.3484 122.54 61.9354 122.54 61.3849C122.815 59.7332 122.678 58.2192 122.54 56.43Z" fill="#FF671D"/>
</svg>
