<svg width="128" height="128" viewBox="0 0 128 128" fill="none" xmlns="http://www.w3.org/2000/svg">
<rect width="128" height="128" fill="#B2C248"/>
<path d="M65.7011 12.1125C66.8618 11.9616 69.6146 12.0022 70.8684 12.0135C79.2827 12.0803 87.4544 14.3397 95.0584 17.8483C96.2464 18.3965 98.1237 18.8683 99.1168 19.4799C100.731 20.5293 104.917 22.9961 103.321 25.3786C102.09 27.2178 99.0101 28.4704 96.8516 27.7536C94.6764 27.0315 92.5969 26.0765 90.4316 25.3116C72.4774 18.9682 50.7254 23.7705 37.7094 37.8867C36.7416 38.9363 35.9985 40.3611 35.1067 41.4862C34.2622 42.5517 33.3793 43.5703 32.6426 44.7137C30.8567 47.7209 29.101 51.9686 28.531 55.4433C28.4824 55.7403 28.6742 56.6397 28.7371 56.9325C28.3555 57.3874 27.4997 58.142 27.0375 58.5739C26.3632 61.6133 26.2615 67.0461 27.5717 69.984C27.6671 70.1979 28.8188 71.4119 29.0842 71.7347L28.2651 72.9888C28.6113 74.8369 28.571 77.6176 29.6166 79.0004C30.2876 79.8876 30.9214 80.5465 31.5972 81.5406L31.1737 83.2159C34.6194 84.6535 33.7264 86.7465 37.0088 88.6094C37.043 88.8962 37.1561 89.7127 37.31 89.9509C39.4612 93.1522 43.7235 96.636 47.0334 98.4802C48.8209 99.4762 54.1136 101.588 56.0803 101.952C64.3321 103.481 74.5548 103.08 82.19 99.4085C88.9123 96.1761 96.5301 88.9631 99.2831 81.9479C100.101 79.7444 100.208 78.4088 100.561 76.2385C101.41 71.0263 100.16 66.4794 97.9856 61.7157C95.5424 56.3634 91.5298 51.5775 85.8369 49.5681C82.8098 48.4998 81.489 48.5419 78.343 48.5842C77.6527 48.5935 75.605 47.8182 74.8338 47.828C70.9331 47.8775 66.1969 48.9653 62.7184 50.6018C58.1301 52.7605 53.6849 56.6888 52.0254 61.5617C50.6695 65.5434 51.0398 68.1352 52.7613 71.7857C52.2448 72.4937 51.9782 72.7005 51.3264 73.2554C54.9687 74.8254 55.2001 77.7901 58.7159 78.873C59.4732 79.1064 61.194 78.8407 61.8548 78.3661C62.9363 77.5892 61.509 75.4411 61.5723 74.3859C61.5934 73.9159 62.1893 73.6267 62.2057 73.3036C62.2502 72.4262 62.0465 71.4615 62.0935 70.571C62.1126 70.2114 62.8138 70.0037 62.8527 69.904C63.393 68.5152 63.6411 66.8003 64.7368 65.6979C64.9443 65.4892 65.9168 65.1773 66.4873 64.7808C66.4804 64.5503 66.4693 64.3199 66.4535 64.0898C67.3519 63.1912 71.7715 62.6824 73.1229 62.4873C73.2473 62.5825 73.6191 62.8345 73.7591 62.8367C79.1976 62.9218 83.7891 65.1715 85.5926 70.5658C85.5657 71.0714 85.6022 71.7972 85.5194 72.2909C85.0786 74.614 84.9598 76.6751 84.9277 79.0103C84.9045 80.7063 82.8123 83.4661 81.7957 84.6953C78.4591 88.9706 75.8683 90.3561 70.4095 90.674C68.6437 90.7768 67.1857 91.0309 65.3526 90.9114C63.2288 90.7727 61.2822 90.6148 59.2088 90.0472C54.9083 89.1313 52.8951 87.8486 49.5499 85.0623C48.1311 83.8804 46.6222 82.621 45.3607 81.2321C41.5262 77.0103 39.8549 69.6563 40.116 64.0954C40.4715 56.5278 43.9947 50.4779 49.5235 45.4245C57.3798 38.2433 68.4652 36.3338 78.7681 36.7069C88.4228 37.0568 96.9711 40.7106 103.466 47.9612C110.303 55.594 114.536 66.5641 113.945 76.9136C113.379 86.8368 108.271 96.2092 101.085 102.991C99.6738 104.323 97.6013 105.926 96.0826 107.147C95.0688 107.961 93.1984 108.77 92.0211 109.433C91.0279 109.929 89.9078 110.918 88.8876 111.325C84.4179 113.104 79.3266 114.753 74.6229 115.657C68.6319 116.809 62.3203 116.292 56.2673 116.24C55.502 116.233 54.2457 115.349 53.4498 115.184C51.9104 114.644 49.7148 114.174 48.2579 113.571C42.1207 111.031 35.6295 108.208 30.3542 104.115C28.8228 102.927 27.9157 100.947 26.7356 99.5491C25.9369 98.603 24.8711 97.7952 23.9722 96.7841C23.6988 93.6186 21.5367 93.8108 20.273 91.1137C16.7647 83.881 14.833 77.1972 14.2058 69.2217C13.4541 59.6622 14.7417 51.1881 18.396 42.3418C18.7421 41.5041 20.0239 39.88 20.2278 39.2363C21.1485 36.3295 22.0495 34.3072 24.2532 32.0801C34.8589 19.8367 49.6767 13.2858 65.7011 12.1125Z" fill="#1F1E1F"/>
</svg>
