<?xml version="1.0" encoding="UTF-8" standalone="no"?>
<!DOCTYPE svg PUBLIC "-//W3C//DTD SVG 1.1//EN" "http://www.w3.org/Graphics/SVG/1.1/DTD/svg11.dtd">
<svg xmlns="http://www.w3.org/2000/svg" version="1.1" viewBox="0.00 0.00 512.00 512.00">
<g stroke-width="2.00" fill="none" stroke-linecap="butt">
<path stroke="#808080" vector-effect="non-scaling-stroke" d="
  M 298.96 339.18
  L 261.18 418.91
  A 0.33 0.32 -55.0 0 0 261.24 419.28
  C 282.94 441.26 317.91 465.54 350.10 449.58
  C 364.56 442.42 375.38 428.84 382.62 414.61
  C 393.85 392.54 399.66 367.34 401.65 343.21
  Q 404.07 313.79 401.85 282.15
  Q 397.40 218.63 376.54 161.73
  Q 366.84 135.27 353.48 114.27
  C 345.18 101.22 335.97 90.54 326.27 81.21
  C 291.09 47.36 237.79 42.40 197.02 68.70
  Q 185.58 76.08 174.83 87.38
  C 158.43 104.62 146.84 125.09 138.52 148.00
  C 124.64 186.20 119.64 226.84 131.49 265.93
  C 135.43 278.95 143.12 291.74 151.26 302.23
  Q 179.53 338.64 227.15 343.30
  C 250.59 345.58 274.77 342.81 298.44 338.50
  A 0.48 0.48 0.0 0 1 298.96 339.18"
/>
<path stroke="#808080" vector-effect="non-scaling-stroke" d="
  M 221.18 191.42
  C 210.87 228.55 209.88 274.57 255.73 287.30
  C 301.59 300.03 324.46 260.08 334.77 222.95
  C 345.08 185.82 346.07 139.80 300.21 127.07
  C 254.36 114.34 231.48 154.28 221.18 191.42"
/>
</g>
<path fill="#ffffff" d="
  M 263.42 0.00
  C 333.18 2.34 399.14 32.52 445.32 83.67
  Q 508.08 153.18 512.00 248.45
  L 512.00 263.48
  Q 508.90 334.76 473.28 391.37
  Q 440.74 443.10 388.67 474.95
  Q 333.00 509.01 263.57 512.00
  L 248.51 512.00
  C 178.88 509.58 113.10 479.54 66.94 428.58
  Q 4.01 359.12 0.00 263.79
  L 0.00 248.29
  Q 2.02 190.27 27.88 139.64
  C 68.65 59.79 148.80 6.75 238.28 0.73
  Q 243.25 0.39 248.21 0.00
  L 263.42 0.00
  Z
  M 298.96 339.18
  L 261.18 418.91
  A 0.33 0.32 -55.0 0 0 261.24 419.28
  C 282.94 441.26 317.91 465.54 350.10 449.58
  C 364.56 442.42 375.38 428.84 382.62 414.61
  C 393.85 392.54 399.66 367.34 401.65 343.21
  Q 404.07 313.79 401.85 282.15
  Q 397.40 218.63 376.54 161.73
  Q 366.84 135.27 353.48 114.27
  C 345.18 101.22 335.97 90.54 326.27 81.21
  C 291.09 47.36 237.79 42.40 197.02 68.70
  Q 185.58 76.08 174.83 87.38
  C 158.43 104.62 146.84 125.09 138.52 148.00
  C 124.64 186.20 119.64 226.84 131.49 265.93
  C 135.43 278.95 143.12 291.74 151.26 302.23
  Q 179.53 338.64 227.15 343.30
  C 250.59 345.58 274.77 342.81 298.44 338.50
  A 0.48 0.48 0.0 0 1 298.96 339.18
  Z"
/>
<path fill="#000000" d="
  M 298.44 338.50
  C 274.77 342.81 250.59 345.58 227.15 343.30
  Q 179.53 338.64 151.26 302.23
  C 143.12 291.74 135.43 278.95 131.49 265.93
  C 119.64 226.84 124.64 186.20 138.52 148.00
  C 146.84 125.09 158.43 104.62 174.83 87.38
  Q 185.58 76.08 197.02 68.70
  C 237.79 42.40 291.09 47.36 326.27 81.21
  C 335.97 90.54 345.18 101.22 353.48 114.27
  Q 366.84 135.27 376.54 161.73
  Q 397.40 218.63 401.85 282.15
  Q 404.07 313.79 401.65 343.21
  C 399.66 367.34 393.85 392.54 382.62 414.61
  C 375.38 428.84 364.56 442.42 350.10 449.58
  C 317.91 465.54 282.94 441.26 261.24 419.28
  A 0.33 0.32 -55.0 0 1 261.18 418.91
  L 298.96 339.18
  A 0.48 0.48 0.0 0 0 298.44 338.50
  Z
  M 221.18 191.42
  C 210.87 228.55 209.88 274.57 255.73 287.30
  C 301.59 300.03 324.46 260.08 334.77 222.95
  C 345.08 185.82 346.07 139.80 300.21 127.07
  C 254.36 114.34 231.48 154.28 221.18 191.42
  Z"
/>
<path fill="#ffffff" d="
  M 300.21 127.07
  C 346.07 139.80 345.08 185.82 334.77 222.95
  C 324.46 260.08 301.59 300.03 255.73 287.30
  C 209.88 274.57 210.87 228.55 221.18 191.42
  C 231.48 154.28 254.36 114.34 300.21 127.07
  Z"
/>
</svg>
