<?xml version="1.0" encoding="UTF-8" standalone="no"?>
<!DOCTYPE svg PUBLIC "-//W3C//DTD SVG 1.1//EN" "http://www.w3.org/Graphics/SVG/1.1/DTD/svg11.dtd">
<svg xmlns="http://www.w3.org/2000/svg" version="1.1" viewBox="0.00 0.00 400.00 400.00">
<path stroke="#acc8f3" stroke-width="2.00" fill="none" stroke-linecap="butt" vector-effect="non-scaling-stroke" d="
  M 318.61 273.12
  C 294.92 268.17 282.05 248.78 276.66 226.05
  Q 273.91 214.45 275.86 202.05
  C 278.87 182.93 286.71 165.42 294.61 146.12
  Q 297.68 138.63 298.80 131.87
  C 302.86 107.38 257.17 127.58 249.13 131.38
  C 214.76 147.61 183.74 170.56 155.59 196.48
  C 128.56 221.38 103.07 245.98 80.36 272.88
  A 0.30 0.30 0.0 0 0 80.59 273.37
  L 318.58 273.37
  A 0.13 0.13 0.0 0 0 318.61 273.12"
/>
<path fill="#ffffff" d="
  M 400.00 0.00
  L 400.00 400.00
  L 0.00 400.00
  L 0.00 0.00
  L 400.00 0.00
  Z
  M 318.61 273.12
  C 294.92 268.17 282.05 248.78 276.66 226.05
  Q 273.91 214.45 275.86 202.05
  C 278.87 182.93 286.71 165.42 294.61 146.12
  Q 297.68 138.63 298.80 131.87
  C 302.86 107.38 257.17 127.58 249.13 131.38
  C 214.76 147.61 183.74 170.56 155.59 196.48
  C 128.56 221.38 103.07 245.98 80.36 272.88
  A 0.30 0.30 0.0 0 0 80.59 273.37
  L 318.58 273.37
  A 0.13 0.13 0.0 0 0 318.61 273.12
  Z"
/>
<path fill="#5890e7" d="
  M 318.61 273.12
  A 0.13 0.13 0.0 0 1 318.58 273.37
  L 80.59 273.37
  A 0.30 0.30 0.0 0 1 80.36 272.88
  C 103.07 245.98 128.56 221.38 155.59 196.48
  C 183.74 170.56 214.76 147.61 249.13 131.38
  C 257.17 127.58 302.86 107.38 298.80 131.87
  Q 297.68 138.63 294.61 146.12
  C 286.71 165.42 278.87 182.93 275.86 202.05
  Q 273.91 214.45 276.66 226.05
  C 282.05 248.78 294.92 268.17 318.61 273.12
  Z"
/>
</svg>
