<?xml version="1.0" encoding="UTF-8" standalone="no"?>
<!DOCTYPE svg PUBLIC "-//W3C//DTD SVG 1.1//EN" "http://www.w3.org/Graphics/SVG/1.1/DTD/svg11.dtd">
<svg xmlns="http://www.w3.org/2000/svg" version="1.1" viewBox="0.00 0.00 800.00 800.00">
<path fill="#4499d4" d="
  M 0.00 404.50
  L 0.00 394.38
  C 1.06 377.48 6.39 360.40 16.52 347.07
  Q 37.22 319.87 74.25 318.92
  Q 88.56 318.56 102.67 323.57
  Q 136.41 335.58 141.83 371.16
  A 0.57 0.56 -4.0 0 1 141.27 371.80
  L 116.15 371.80
  A 0.73 0.72 -4.6 0 1 115.43 371.20
  C 112.16 351.48 95.29 340.99 76.24 340.83
  C 32.75 340.46 22.15 389.03 30.96 421.92
  C 34.85 436.44 43.68 449.53 58.15 455.08
  C 68.37 459.00 81.59 459.30 92.38 456.23
  C 106.96 452.07 115.90 440.49 118.23 425.23
  Q 119.02 420.03 118.93 416.87
  A 0.61 0.60 -1.0 0 0 118.32 416.29
  L 77.74 416.29
  A 0.42 0.41 90.0 0 1 77.33 415.87
  L 77.33 395.65
  A 0.34 0.34 0.0 0 1 77.67 395.31
  L 143.05 395.31
  A 0.51 0.50 0.0 0 1 143.56 395.81
  L 143.56 476.19
  A 0.45 0.45 0.0 0 1 143.11 476.64
  L 126.17 476.64
  A 0.62 0.61 83.5 0 1 125.57 476.16
  L 121.62 458.86
  A 0.38 0.38 0.0 0 0 120.96 458.70
  C 108.86 472.74 94.67 480.22 75.77 480.07
  Q 38.04 479.78 16.84 452.37
  C 6.48 438.97 1.06 421.60 0.00 404.50
  Z"
/>
<path fill="#4499d4" d="
  M 203.81 322.38
  Q 219.43 322.37 266.11 322.35
  A 0.58 0.57 -90.0 0 1 266.68 322.93
  L 266.68 345.47
  A 0.35 0.34 -90.0 0 1 266.34 345.82
  L 217.73 345.82
  A 0.31 0.31 0.0 0 0 217.42 346.13
  L 217.42 476.20
  A 0.42 0.41 -1.0 0 1 217.02 476.61
  Q 215.08 476.66 203.83 476.67
  Q 192.57 476.67 190.64 476.62
  A 0.42 0.41 1.0 0 1 190.23 476.20
  L 190.21 346.13
  A 0.31 0.31 0.0 0 0 189.90 345.82
  L 141.29 345.83
  A 0.35 0.34 90.0 0 1 140.95 345.48
  L 140.95 322.94
  A 0.58 0.57 90.0 0 1 141.52 322.36
  Q 188.20 322.38 203.81 322.38
  Z"
/>
<rect fill="#84b1df" x="654.72" y="322.38" width="24.64" height="23.44" rx="0.50"/>
<path fill="#84b1df" d="
  M 529.92 364.46
  L 529.92 331.97
  A 0.38 0.38 0.0 0 1 530.30 331.59
  L 554.04 331.59
  A 0.54 0.54 0.0 0 1 554.58 332.13
  L 554.58 364.80
  A 0.33 0.33 0.0 0 0 554.91 365.13
  L 576.21 365.13
  A 0.42 0.42 0.0 0 1 576.63 365.55
  L 576.63 383.00
  A 0.60 0.59 -90.0 0 1 576.04 383.60
  L 555.05 383.60
  A 0.49 0.49 0.0 0 0 554.56 384.09
  Q 554.59 433.30 554.57 445.25
  C 554.56 451.09 555.34 456.64 562.18 457.85
  Q 567.30 458.75 576.39 457.50
  A 0.21 0.21 0.0 0 1 576.63 457.71
  L 576.63 475.27
  A 0.60 0.59 -5.3 0 1 576.14 475.85
  Q 563.22 478.15 552.89 477.13
  C 541.71 476.04 532.89 472.23 530.34 459.91
  Q 529.12 454.04 529.12 448.74
  Q 529.08 403.13 529.12 383.88
  A 0.30 0.29 -0.0 0 0 528.82 383.59
  L 510.92 383.59
  A 0.52 0.52 0.0 0 1 510.40 383.07
  L 510.40 365.52
  A 0.39 0.39 0.0 0 1 510.79 365.13
  L 529.25 365.13
  A 0.67 0.67 0.0 0 0 529.92 364.46
  Z"
/>
<path fill="#84b1df" d="
  M 517.54 441.44
  A 0.41 0.40 -83.2 0 1 517.93 441.94
  C 510.42 474.70 474.44 485.83 445.64 475.61
  Q 423.47 467.74 415.58 444.09
  C 402.62 405.25 424.23 358.96 470.25 361.97
  C 503.93 364.18 523.39 395.19 519.76 426.83
  A 0.42 0.41 -86.0 0 1 519.35 427.19
  L 437.19 427.19
  A 0.61 0.61 0.0 0 0 436.58 427.80
  C 436.53 439.54 441.23 450.90 451.94 456.56
  C 458.74 460.15 468.51 460.68 476.15 458.91
  Q 489.29 455.88 494.06 441.94
  A 0.74 0.74 0.0 0 1 494.76 441.44
  L 517.54 441.44
  Z
  M 437.94 411.27
  L 494.66 411.17
  A 0.24 0.24 0.0 0 0 494.90 410.93
  L 494.89 410.55
  A 28.66 28.60 89.9 0 0 466.24 381.94
  A 28.66 28.60 89.9 0 0 437.69 410.65
  L 437.70 411.03
  A 0.24 0.24 0.0 0 0 437.94 411.27
  Z"
/>
<path fill="#84b1df" d="
  M 266.67 380.67
  A 0.52 0.52 0.0 0 0 267.62 380.95
  Q 281.04 360.80 306.01 362.78
  C 317.59 363.70 328.75 369.32 333.41 380.45
  A 0.46 0.46 0.0 0 0 334.21 380.54
  C 341.35 370.42 350.68 364.40 363.31 362.97
  Q 376.62 361.46 388.88 365.81
  C 401.69 370.36 407.37 384.29 407.55 396.77
  Q 407.74 409.94 407.62 477.00
  A 0.49 0.49 0.0 0 1 407.13 477.49
  L 383.35 477.49
  A 0.32 0.31 0.9 0 1 383.03 477.17
  Q 383.07 448.88 383.03 410.75
  C 383.02 399.24 383.15 384.93 368.55 382.40
  Q 363.83 381.58 358.82 382.14
  C 342.77 383.94 338.89 397.40 338.84 411.50
  Q 338.81 418.04 338.84 476.35
  A 0.34 0.34 0.0 0 1 338.50 476.69
  L 314.87 476.69
  A 0.66 0.66 0.0 0 1 314.21 476.03
  Q 314.28 418.17 314.17 401.77
  C 314.11 393.35 310.81 384.00 301.49 381.95
  Q 284.33 378.19 274.77 392.09
  C 270.70 398.00 270.03 405.34 270.05 413.29
  Q 270.09 429.87 270.07 475.44
  A 0.39 0.39 0.0 0 1 269.68 475.83
  L 245.83 475.83
  A 0.41 0.40 -90.0 0 1 245.43 475.42
  L 245.43 365.57
  A 0.44 0.43 -90.0 0 1 245.86 365.13
  L 266.12 365.13
  A 0.56 0.55 90.0 0 1 266.67 365.69
  L 266.67 380.67
  Z"
/>
<path fill="#84b1df" d="
  M 649.34 365.91
  A 0.29 0.28 4.8 0 1 649.58 366.19
  L 649.74 386.18
  A 0.57 0.56 -86.0 0 1 649.10 386.74
  Q 643.05 385.91 638.18 386.09
  C 618.49 386.86 608.82 403.11 608.22 421.26
  Q 607.93 429.64 608.11 476.92
  A 0.41 0.41 0.0 0 1 607.70 477.33
  L 583.83 477.52
  A 0.39 0.39 0.0 0 1 583.44 477.14
  L 582.57 365.61
  A 0.39 0.38 -1.5 0 1 582.95 365.22
  L 605.85 365.04
  A 0.49 0.49 0.0 0 1 606.34 365.53
  Q 606.36 369.09 606.32 386.46
  Q 606.32 386.76 606.46 386.88
  A 0.54 0.51 28.4 0 0 607.33 386.65
  Q 609.03 379.83 614.91 374.84
  Q 629.68 362.33 649.34 365.91
  Z"
/>
<rect fill="#84b1df" x="654.72" y="365.13" width="24.64" height="111.52" rx="0.46"/>
<path fill="#84b1df" d="
  M 756.80 416.48
  L 799.58 476.11
  A 0.34 0.34 0.0 0 1 799.31 476.65
  L 770.72 476.65
  A 0.34 0.34 0.0 0 1 770.45 476.51
  L 741.51 436.18
  A 0.34 0.34 0.0 0 0 740.96 436.19
  L 713.46 476.50
  A 0.34 0.34 0.0 0 1 713.18 476.65
  L 685.16 476.65
  A 0.34 0.34 0.0 0 1 684.88 476.11
  L 726.80 418.15
  A 0.34 0.34 0.0 0 0 726.80 417.75
  L 688.31 365.71
  A 0.34 0.34 0.0 0 1 688.58 365.17
  L 717.02 365.17
  A 0.34 0.34 0.0 0 1 717.29 365.31
  L 741.27 398.74
  A 0.34 0.34 0.0 0 0 741.83 398.74
  L 766.01 365.31
  A 0.34 0.34 0.0 0 1 766.28 365.17
  L 794.18 365.17
  A 0.34 0.34 0.0 0 1 794.45 365.71
  L 756.80 416.08
  A 0.34 0.34 0.0 0 0 756.80 416.48
  Z"
/>
</svg>
