<svg width="128" height="128" viewBox="0 0 128 128" fill="none" xmlns="http://www.w3.org/2000/svg">
<g clip-path="url(#clip0_60_24429)">
<path d="M76.0797 55.2729C73.4353 55.2729 70.8503 57.6676 70.553 61.1276V55.5582H66.7555V72.3515H70.5996V64.2228C70.5996 61.9458 72.2135 58.7338 76.0797 58.7338V55.2729Z" fill="black"/>
<path d="M116.402 69.663V58.1576H118.629C121.598 58.1576 124.01 60.0133 124.01 63.8175C124.01 67.6217 121.598 69.663 118.629 69.663H116.402ZM112.598 72.3538H119.093C123.082 72.3538 128 69.7558 128 63.8175C128 57.972 123.082 55.5596 119.093 55.5596H112.598V72.3538Z" fill="black"/>
<path d="M98.0415 64.0033C98.0415 60.9414 99.6189 58.4362 102.217 58.4362C104.722 58.4362 106.114 60.9414 106.114 64.0033C106.114 67.0653 104.722 69.5705 102.217 69.5705C99.6189 69.5705 98.0415 67.0653 98.0415 64.0033ZM94.1445 64.1889C94.1445 69.1993 96.7423 72.7252 100.825 72.7252C103.794 72.7252 105.557 70.7767 106.485 67.622V72.3541H110.288V55.5599H106.485V60.0136C105.65 57.0444 103.887 55.2815 101.104 55.2815C96.9279 55.2815 94.1445 59.0857 94.1445 64.1889Z" fill="black"/>
<path d="M7.51564 72.7252C2.78356 72.7252 0 68.921 0 64.1889C0 59.2713 3.06192 55.2815 8.9074 55.2815C14.9385 55.2815 16.9798 59.3641 17.0725 61.6837H12.7116C12.6188 60.3847 11.5054 58.4362 8.8146 58.4362C5.93827 58.4362 4.08257 60.9414 4.08257 64.0033C4.08257 67.0653 5.93827 69.5705 8.8146 69.5705C11.4126 69.5705 12.526 67.5292 12.99 65.4879H8.8146V63.8177H17.5759V72.3541H13.7322V66.9725C13.4539 68.921 12.2477 72.7252 7.51564 72.7252Z" fill="black"/>
<path d="M25.3691 72.7249C21.7505 72.7249 19.5236 70.3125 19.5236 65.4876V55.5596H23.4206V65.4876C23.4206 67.9928 24.6268 69.199 26.6681 69.199C30.6579 69.199 32.1424 64.2814 32.1424 60.8483V55.5596H36.0394V72.3538H32.2352V66.1371C31.4929 69.5702 29.4517 72.7249 25.3691 72.7249Z" fill="black"/>
<path d="M59.3268 55.2727C56.002 55.2727 53.9046 58.4845 53.2199 61.4541C53.1029 57.4744 51.1458 55.2727 48.0144 55.2727C45.309 55.2727 42.7991 57.6854 42.1472 61.5022V55.5584H38.3483V72.353H42.1959V66.3322C42.1959 64.8395 42.8181 58.7141 46.6914 58.7141C49.2005 58.7141 49.4621 60.9774 49.4621 64.0711V72.353H53.3079V66.3322C53.3079 64.8395 53.9559 58.7141 57.8292 58.7141C60.3363 58.7141 60.5952 60.9774 60.5952 64.0711V72.353H64.4462V62.4191C64.4637 57.6534 62.7811 55.2727 59.3268 55.2727Z" fill="black"/>
<path d="M84.3346 55.2727C79.3536 55.2727 75.9785 59.1783 75.9785 63.9989C75.9785 69.3106 79.1884 72.7251 84.3346 72.7251C89.3155 72.7251 92.7506 68.8196 92.7506 63.9989C92.7506 58.6873 89.4784 55.2727 84.3346 55.2727ZM84.3346 69.7524C81.4348 69.7524 79.5567 67.2975 79.5567 63.9989C79.5567 60.7004 81.4412 58.2454 84.3346 58.2454C87.2274 58.2454 89.0368 60.7004 89.0368 63.9989C89.0368 67.2975 87.2256 69.7524 84.3346 69.7524Z" fill="black"/>
</g>
<defs>
<clipPath id="clip0_60_24429">
<rect width="128" height="17.4545" fill="white" transform="translate(0 55.2727)"/>
</clipPath>
</defs>
</svg>
