<svg width="128" height="128" viewBox="0 0 128 128" fill="none" xmlns="http://www.w3.org/2000/svg">
<g clip-path="url(#clip0_240_6753)">
<g clip-path="url(#clip1_240_6753)">
<path d="M128 0H0V128H128V0Z" fill="#0E141E"/>
<path d="M62.695 42.675H53.065C52.74 42.675 52.475 42.94 52.475 43.265V58.57H42.1V43.2701C42.1 42.9451 41.835 42.68 41.51 42.68H31.88C31.555 42.68 31.29 42.9451 31.29 43.2701V84.695C31.29 85.0201 31.555 85.2851 31.88 85.2851H41.51C41.835 85.2851 42.1 85.0201 42.1 84.695V69.39H52.475V84.695C52.475 85.0201 52.74 85.2851 53.065 85.2851H62.695C63.02 85.2851 63.285 85.0201 63.285 84.695V43.2701C63.285 42.9401 63.02 42.675 62.695 42.675Z" fill="white"/>
<path d="M99.8802 85.2851H69.0602C68.7352 85.2851 68.4702 85.0201 68.4702 84.695V43.265C68.4702 42.94 68.7352 42.675 69.0602 42.675H99.8802C100.205 42.675 100.47 42.94 100.47 43.265V84.6901C100.47 85.0201 100.205 85.2851 99.8802 85.2851Z" fill="#00EA64"/>
</g>
</g>
<defs>
<clipPath id="clip0_240_6753">
<rect width="128" height="128" fill="white"/>
</clipPath>
<clipPath id="clip1_240_6753">
<rect width="128" height="128" fill="white"/>
</clipPath>
</defs>
</svg>
