<svg width="128" height="128" viewBox="0 0 128 128" fill="none" xmlns="http://www.w3.org/2000/svg">
<g clip-path="url(#clip0_240_6536)">
<path fill-rule="evenodd" clip-rule="evenodd" d="M56.1901 80.1268V128H48.2788V55.9873C48.2788 51.5246 51.9302 48.0761 56.1901 48.0761H79.721V72.0127C79.721 76.4754 76.2725 80.1268 72.0126 80.1268H56.1901ZM126.986 0V119.886C126.986 124.349 123.334 128 119.074 128H111.366V7.91125C111.366 3.44849 114.814 0 119.074 0H126.986ZM95.5435 0H103.252V119.886C103.252 124.349 99.6005 128 95.5435 128H87.6322V39.962C87.6322 35.4992 91.2836 32.0507 95.5435 32.0507V0ZM32.4563 128H24.7479V7.91125C24.7479 3.44849 28.1964 0 32.4563 0H40.3676V87.8352C40.3676 92.2979 36.7162 95.9493 32.4563 95.9493V128ZM1.01416 128V7.91125C1.01416 3.44849 4.66551 0 8.92541 0H16.6338V119.886C16.6338 124.349 13.1853 128 8.92541 128H1.01416Z" fill="#FA5D00"/>
</g>
<defs>
<clipPath id="clip0_240_6536">
<rect width="125.971" height="128" fill="white" transform="translate(1.01416)"/>
</clipPath>
</defs>
</svg>
