<?xml version="1.0" encoding="UTF-8" standalone="no"?>
<!DOCTYPE svg PUBLIC "-//W3C//DTD SVG 1.1//EN" "http://www.w3.org/Graphics/SVG/1.1/DTD/svg11.dtd">
<svg xmlns="http://www.w3.org/2000/svg" version="1.1" viewBox="0.00 0.00 400.00 400.00">
<g stroke-width="2.00" fill="none" stroke-linecap="butt">
<path stroke="#89daca" vector-effect="non-scaling-stroke" d="
  M 25.05 0.00
  C 11.38 0.85 0.90 11.39 0.00 25.01"
/>
<path stroke="#89daca" vector-effect="non-scaling-stroke" d="
  M 35.24 0.00
  Q 37.69 0.17 37.96 0.76"
/>
<path stroke="#197269" vector-effect="non-scaling-stroke" d="
  M 37.96 0.76
  L 38.07 399.26"
/>
<path stroke="#89daca" vector-effect="non-scaling-stroke" d="
  M 38.07 399.26
  Q 31.13 400.07 26.49 399.57
  C 12.58 398.08 1.32 386.22 0.00 372.25"
/>
<path stroke="#8f979e" vector-effect="non-scaling-stroke" d="
  M 400.00 24.49
  Q 397.57 7.62 382.22 2.15
  C 379.31 1.12 375.47 0.65 372.50 0.65
  Q 205.63 0.78 37.96 0.76"
/>
<path stroke="#8f979e" vector-effect="non-scaling-stroke" d="
  M 400.00 374.88
  C 399.16 388.39 388.66 398.13 375.28 399.06
  Q 372.14 399.28 369.00 399.27
  Q 320.35 399.14 44.00 399.44
  Q 40.87 399.44 38.07 399.26"
/>
<path stroke="#8f979e" vector-effect="non-scaling-stroke" d="
  M 152.52 322.84
  Q 180.78 336.58 210.99 337.14
  C 265.00 338.13 314.17 307.60 337.77 259.31
  C 371.05 191.19 343.44 108.84 275.90 74.40
  C 233.94 53.00 183.39 54.77 142.80 79.20
  C 79.24 117.45 57.09 199.07 92.19 264.34
  A 1.90 1.89 -50.2 0 1 92.32 265.82
  Q 83.85 291.66 72.28 327.27
  C 69.97 334.41 74.24 341.90 81.57 343.17
  Q 84.36 343.65 90.76 341.66
  Q 137.89 327.04 151.68 322.78
  A 1.13 1.12 48.7 0 1 152.52 322.84"
/>
<path stroke="#8f979e" vector-effect="non-scaling-stroke" d="
  M 102.96 312.70
  Q 132.06 303.59 150.11 298.13
  Q 154.76 296.72 158.30 298.68
  C 196.35 319.77 243.58 317.54 278.96 292.43
  C 349.50 242.39 342.37 135.62 265.24 95.96
  C 218.70 72.03 161.74 83.79 128.03 122.54
  C 97.33 157.83 91.01 206.85 111.20 248.91
  C 113.98 254.72 119.14 260.37 117.09 267.07
  Q 116.44 269.21 102.41 312.15
  A 0.44 0.44 0.0 0 0 102.96 312.70"
/>
<path stroke="#8f979e" vector-effect="non-scaling-stroke" d="
  M 288.3736 161.7352
  A 21.32 21.32 0.0 0 0 267.0164 140.4524
  L 155.1166 140.6477
  A 21.32 21.32 0.0 0 0 133.8338 162.0049
  L 133.9664 238.0048
  A 21.32 21.32 0.0 0 0 155.3236 259.2876
  L 267.2234 259.0923
  A 21.32 21.32 0.0 0 0 288.5062 237.7351
  L 288.3736 161.7352"
/>
<path stroke="#8f979e" vector-effect="non-scaling-stroke" d="
  M 272.71 161.95
  A 5.62 5.62 0.0 0 0 267.09 156.33
  L 155.23 156.33
  A 5.62 5.62 0.0 0 0 149.61 161.95
  L 149.61 237.85
  A 5.62 5.62 0.0 0 0 155.23 243.47
  L 267.09 243.47
  A 5.62 5.62 0.0 0 0 272.71 237.85
  L 272.71 161.95"
/>
<path stroke="#8f979e" vector-effect="non-scaling-stroke" d="
  M 256.45 184.24
  A 12.32 12.32 0.0 0 0 244.13 171.92
  A 12.32 12.32 0.0 0 0 231.81 184.24
  A 12.32 12.32 0.0 0 0 244.13 196.56
  A 12.32 12.32 0.0 0 0 256.45 184.24"
/>
<path stroke="#8f979e" vector-effect="non-scaling-stroke" d="
  M 217.13 184.12
  A 5.25 5.25 0.0 0 0 211.88 178.87
  L 166.58 178.87
  A 5.25 5.25 0.0 0 0 161.33 184.12
  L 161.33 184.32
  A 5.25 5.25 0.0 0 0 166.58 189.57
  L 211.88 189.57
  A 5.25 5.25 0.0 0 0 217.13 184.32
  L 217.13 184.12"
/>
<path stroke="#8f979e" vector-effect="non-scaling-stroke" d="
  M 244.12 223.04
  C 249.82 223.04 255.21 222.49 260.17 219.95
  Q 262.95 218.53 263.90 217.43
  Q 265.16 215.99 263.55 213.23
  C 259.25 205.85 251.83 204.60 244.12 204.60
  C 236.41 204.60 228.98 205.85 224.68 213.22
  Q 223.07 215.98 224.33 217.42
  Q 225.28 218.52 228.06 219.95
  C 233.02 222.48 238.41 223.04 244.12 223.04"
/>
<path stroke="#8f979e" vector-effect="non-scaling-stroke" d="
  M 217.13 213.69
  A 5.22 5.22 0.0 0 0 211.91 208.47
  L 166.55 208.47
  A 5.22 5.22 0.0 0 0 161.33 213.69
  L 161.33 213.91
  A 5.22 5.22 0.0 0 0 166.55 219.13
  L 211.91 219.13
  A 5.22 5.22 0.0 0 0 217.13 213.91
  L 217.13 213.69"
/>
</g>
<path fill="#ffffff" d="
  M 25.05 0.00
  C 11.38 0.85 0.90 11.39 0.00 25.01
  L 0.00 0.00
  L 25.05 0.00
  Z"
/>
<path fill="#13b495" d="
  M 35.24 0.00
  Q 37.69 0.17 37.96 0.76
  L 38.07 399.26
  Q 31.13 400.07 26.49 399.57
  C 12.58 398.08 1.32 386.22 0.00 372.25
  L 0.00 25.01
  C 0.90 11.39 11.38 0.85 25.05 0.00
  L 35.24 0.00
  Z"
/>
<path fill="#ffffff" d="
  M 400.00 0.00
  L 400.00 24.49
  Q 397.57 7.62 382.22 2.15
  C 379.31 1.12 375.47 0.65 372.50 0.65
  Q 205.63 0.78 37.96 0.76
  Q 37.69 0.17 35.24 0.00
  L 400.00 0.00
  Z"
/>
<path fill="#1f2f3c" d="
  M 400.00 24.49
  L 400.00 374.88
  C 399.16 388.39 388.66 398.13 375.28 399.06
  Q 372.14 399.28 369.00 399.27
  Q 320.35 399.14 44.00 399.44
  Q 40.87 399.44 38.07 399.26
  L 37.96 0.76
  Q 205.63 0.78 372.50 0.65
  C 375.47 0.65 379.31 1.12 382.22 2.15
  Q 397.57 7.62 400.00 24.49
  Z
  M 152.52 322.84
  Q 180.78 336.58 210.99 337.14
  C 265.00 338.13 314.17 307.60 337.77 259.31
  C 371.05 191.19 343.44 108.84 275.90 74.40
  C 233.94 53.00 183.39 54.77 142.80 79.20
  C 79.24 117.45 57.09 199.07 92.19 264.34
  A 1.90 1.89 -50.2 0 1 92.32 265.82
  Q 83.85 291.66 72.28 327.27
  C 69.97 334.41 74.24 341.90 81.57 343.17
  Q 84.36 343.65 90.76 341.66
  Q 137.89 327.04 151.68 322.78
  A 1.13 1.12 48.7 0 1 152.52 322.84
  Z"
/>
<path fill="#ffffff" d="
  M 152.52 322.84
  A 1.13 1.12 48.7 0 0 151.68 322.78
  Q 137.89 327.04 90.76 341.66
  Q 84.36 343.65 81.57 343.17
  C 74.24 341.90 69.97 334.41 72.28 327.27
  Q 83.85 291.66 92.32 265.82
  A 1.90 1.89 -50.2 0 0 92.19 264.34
  C 57.09 199.07 79.24 117.45 142.80 79.20
  C 183.39 54.77 233.94 53.00 275.90 74.40
  C 343.44 108.84 371.05 191.19 337.77 259.31
  C 314.17 307.60 265.00 338.13 210.99 337.14
  Q 180.78 336.58 152.52 322.84
  Z
  M 102.96 312.70
  Q 132.06 303.59 150.11 298.13
  Q 154.76 296.72 158.30 298.68
  C 196.35 319.77 243.58 317.54 278.96 292.43
  C 349.50 242.39 342.37 135.62 265.24 95.96
  C 218.70 72.03 161.74 83.79 128.03 122.54
  C 97.33 157.83 91.01 206.85 111.20 248.91
  C 113.98 254.72 119.14 260.37 117.09 267.07
  Q 116.44 269.21 102.41 312.15
  A 0.44 0.44 0.0 0 0 102.96 312.70
  Z"
/>
<path fill="#1f2f3c" d="
  M 102.96 312.70
  A 0.44 0.44 0.0 0 1 102.41 312.15
  Q 116.44 269.21 117.09 267.07
  C 119.14 260.37 113.98 254.72 111.20 248.91
  C 91.01 206.85 97.33 157.83 128.03 122.54
  C 161.74 83.79 218.70 72.03 265.24 95.96
  C 342.37 135.62 349.50 242.39 278.96 292.43
  C 243.58 317.54 196.35 319.77 158.30 298.68
  Q 154.76 296.72 150.11 298.13
  Q 132.06 303.59 102.96 312.70
  Z
  M 288.3736 161.7352
  A 21.32 21.32 0.0 0 0 267.0164 140.4524
  L 155.1166 140.6477
  A 21.32 21.32 0.0 0 0 133.8338 162.0049
  L 133.9664 238.0048
  A 21.32 21.32 0.0 0 0 155.3236 259.2876
  L 267.2234 259.0923
  A 21.32 21.32 0.0 0 0 288.5062 237.7351
  L 288.3736 161.7352
  Z"
/>
<path fill="#ffffff" d="
  M 288.5062 237.7351
  A 21.32 21.32 0.0 0 1 267.2234 259.0923
  L 155.3236 259.2876
  A 21.32 21.32 0.0 0 1 133.9664 238.0048
  L 133.8338 162.0049
  A 21.32 21.32 0.0 0 1 155.1166 140.6477
  L 267.0164 140.4524
  A 21.32 21.32 0.0 0 1 288.3736 161.7352
  L 288.5062 237.7351
  Z
  M 272.71 161.95
  A 5.62 5.62 0.0 0 0 267.09 156.33
  L 155.23 156.33
  A 5.62 5.62 0.0 0 0 149.61 161.95
  L 149.61 237.85
  A 5.62 5.62 0.0 0 0 155.23 243.47
  L 267.09 243.47
  A 5.62 5.62 0.0 0 0 272.71 237.85
  L 272.71 161.95
  Z"
/>
<path fill="#1f2f3c" d="
  M 272.71 237.85
  A 5.62 5.62 0.0 0 1 267.09 243.47
  L 155.23 243.47
  A 5.62 5.62 0.0 0 1 149.61 237.85
  L 149.61 161.95
  A 5.62 5.62 0.0 0 1 155.23 156.33
  L 267.09 156.33
  A 5.62 5.62 0.0 0 1 272.71 161.95
  L 272.71 237.85
  Z
  M 256.45 184.24
  A 12.32 12.32 0.0 0 0 244.13 171.92
  A 12.32 12.32 0.0 0 0 231.81 184.24
  A 12.32 12.32 0.0 0 0 244.13 196.56
  A 12.32 12.32 0.0 0 0 256.45 184.24
  Z
  M 217.13 184.12
  A 5.25 5.25 0.0 0 0 211.88 178.87
  L 166.58 178.87
  A 5.25 5.25 0.0 0 0 161.33 184.12
  L 161.33 184.32
  A 5.25 5.25 0.0 0 0 166.58 189.57
  L 211.88 189.57
  A 5.25 5.25 0.0 0 0 217.13 184.32
  L 217.13 184.12
  Z
  M 244.12 223.04
  C 249.82 223.04 255.21 222.49 260.17 219.95
  Q 262.95 218.53 263.90 217.43
  Q 265.16 215.99 263.55 213.23
  C 259.25 205.85 251.83 204.60 244.12 204.60
  C 236.41 204.60 228.98 205.85 224.68 213.22
  Q 223.07 215.98 224.33 217.42
  Q 225.28 218.52 228.06 219.95
  C 233.02 222.48 238.41 223.04 244.12 223.04
  Z
  M 217.13 213.69
  A 5.22 5.22 0.0 0 0 211.91 208.47
  L 166.55 208.47
  A 5.22 5.22 0.0 0 0 161.33 213.69
  L 161.33 213.91
  A 5.22 5.22 0.0 0 0 166.55 219.13
  L 211.91 219.13
  A 5.22 5.22 0.0 0 0 217.13 213.91
  L 217.13 213.69
  Z"
/>
<circle fill="#ffffff" cx="244.13" cy="184.24" r="12.32"/>
<rect fill="#ffffff" x="161.33" y="178.87" width="55.80" height="10.70" rx="5.25"/>
<path fill="#ffffff" d="
  M 244.12 204.60
  C 251.83 204.60 259.25 205.85 263.55 213.23
  Q 265.16 215.99 263.90 217.43
  Q 262.95 218.53 260.17 219.95
  C 255.21 222.49 249.82 223.04 244.12 223.04
  C 238.41 223.04 233.02 222.48 228.06 219.95
  Q 225.28 218.52 224.33 217.42
  Q 223.07 215.98 224.68 213.22
  C 228.98 205.85 236.41 204.60 244.12 204.60
  Z"
/>
<rect fill="#ffffff" x="161.33" y="208.47" width="55.80" height="10.66" rx="5.22"/>
<path fill="#ffffff" d="
  M 38.07 399.26
  Q 40.87 399.44 44.00 399.44
  Q 320.35 399.14 369.00 399.27
  Q 372.14 399.28 375.28 399.06
  C 388.66 398.13 399.16 388.39 400.00 374.88
  L 400.00 400.00
  L 0.00 400.00
  L 0.00 372.25
  C 1.32 386.22 12.58 398.08 26.49 399.57
  Q 31.13 400.07 38.07 399.26
  Z"
/>
</svg>
