<svg xmlns="http://www.w3.org/2000/svg" width="380" height="106" fill="none"><path fill="#1B1B20" d="M100 57.16h9.52V37.51H129v19.65h9.52V9.56H129V29.1h-19.48V9.56H100v47.6ZM160.22 57.98c7.82 0 14.14-4.69 15.37-11.15h-8.09c-.89 2.44-3.34 4.48-7.28 4.48-5.37 0-7.48-3.6-7.48-7.75v-.88h23.12v-6.19c0-8.5-5.3-15.5-15.78-15.5s-16.32 6.8-16.32 16.38v4.83c0 9.9 6.46 15.78 16.46 15.78Zm-7.48-22.17c0-4.76 2-8.3 7.34-8.3 5 0 7.28 3.34 7.28 7.76v.88h-14.62v-.34ZM180.58 57.16h9.25V7.52h-9.25v49.64ZM215.48 20.99c-5.1 0-8.7 2.31-10.47 5V21.8h-8.84v47.19h9.25V53.35c1.84 2.72 5.44 4.63 10.13 4.63 9.52 0 14.83-7.07 14.83-15.57v-5.85c0-8.37-5.17-15.57-14.9-15.57Zm-2.24 7.48c5.37 0 7.89 3.8 7.89 8.5v5c0 5-2.72 8.5-8 8.5-4.21 0-7.75-3-7.75-8.37v-5.13c.04-4.97 3.17-8.5 7.86-8.5ZM235.62 9.56v47.6h19.31c12.79 0 19.52-7.89 19.52-18.7v-10.2c0-10.81-6.73-18.7-19.52-18.7h-19.31Zm29.38 29c0 6.94-4 10.88-11.7 10.88h-8.23V17.31h8.23c7.68 0 11.7 3.95 11.7 10.88v10.37ZM294.65 57.98c7.82 0 14.14-4.69 15.36-11.15h-8.09c-.88 2.44-3.33 4.48-7.27 4.48-5.38 0-7.48-3.6-7.48-7.75v-.88h23.12v-6.19c0-8.5-5.31-15.5-15.78-15.5-10.47 0-16.32 6.8-16.32 16.38v4.83c0 9.9 6.46 15.78 16.46 15.78Zm-7.48-22.17c0-4.76 2-8.3 7.34-8.3 5 0 7.28 3.34 7.28 7.76v.88h-14.62v-.34ZM328.54 57.98c8.77 0 15.3-5 15.3-11.83 0-5-2.65-7.76-7.89-9l-10.74-2.65c-1.84-.41-2.72-1.22-2.72-3 0-2.52 2-3.88 5.78-3.88 4.08 0 5.78 1.91 5.78 4.63v.61h8.09v-.55c0-7-5.51-11.28-14-11.28s-14.28 4-14.28 11.28c0 5.38 2.79 8.1 8.09 9.32l10.48 2.38c2 .48 2.92 1.5 2.92 3.2 0 2.72-2.86 4.28-6.73 4.28-4.35 0-7.14-1.84-7.14-4.9v-.49h-8.16v.61c-.01 7.53 6.24 11.27 15.22 11.27ZM347.93 57.16h9.25V39.89l11.62 17.27h10.54L366.76 39.1l12.18-17.3H368.4l-11.22 16.46V7.52h-9.25v49.64Z"/><path fill="#2FC774" d="M40 30.79 60.37 13.1H40c-7.21 0-14.38.24-21.2.71a5.58 5.58 0 0 0-5.23 5.06c-.33 4.23-.57 9.51-.57 14.77v2.92c0 5.26.22 10.51.56 14.73a5.57 5.57 0 0 0 5.24 5.05c14.12.97 28.29.97 42.41 0a5.56 5.56 0 0 0 5.23-5.05c.32-4 .51-8.91.55-13.88L80 26.1v11.28c0 5.31-.25 10.59-.59 14.92a18.6 18.6 0 0 1-17.26 17c-7.15.54-14.65.8-22.15.8-7.5 0-15-.26-22.13-.76A18.6 18.6 0 0 1 .6 52.33C.24 47.77 0 42.16 0 36.56v-2.92c0-5.61.25-11.22.6-15.78A18.59 18.59 0 0 1 17.87.87C25 .36 32.49.1 40 .1h40v13L40 47.82 21.31 31.61l9.82-8.51L40 30.79Z"/><path fill="#1B1B20" d="M277.62 99.563h3.055v-3.576h-1.788c-1.169 0-1.592-.454-1.592-1.56v-8.19h3.608v-3.575h-3.608v-4.615h-4.452v4.615h-2.405v3.575h2.405v8.516c0 2.99 1.527 4.81 4.777 4.81ZM290.313 99.953c3.737 0 6.76-2.243 7.345-5.33h-3.868c-.422 1.17-1.592 2.144-3.477 2.144-2.568 0-3.575-1.722-3.575-3.704v-.423h11.05v-2.957c0-4.063-2.535-7.41-7.54-7.41-5.07 0-7.8 3.25-7.8 7.832v2.307c0 4.745 3.087 7.54 7.865 7.54Zm-3.575-10.596c0-2.275.975-3.965 3.51-3.965 2.372 0 3.477 1.593 3.477 3.706v.422h-6.987v-.162ZM308.825 90.983l5.687-8.32h-4.582l-3.348 5.005-3.347-5.006h-4.583l5.688 8.32-5.915 8.58h4.647l3.51-5.264 3.51 5.264h4.648l-5.915-8.58ZM322.244 99.563h3.055v-3.576h-1.787c-1.17 0-1.593-.454-1.593-1.56v-8.19h3.608v-3.575h-3.608v-4.615h-4.452v4.615h-2.405v3.575h2.405v8.516c0 2.99 1.527 4.81 4.777 4.81ZM329.119 104.438h3.77V73.562h-3.77v30.876ZM254.557 105.122h-2.329l2.046-5.476-6.012-16.115h2.361l4.91 13.691 4.721-13.69h2.361l-5.949 16.114-2.109 5.476ZM231.46 76.67h2.392v9.253c.976-1.636 2.864-2.77 5.382-2.77 4.06 0 6.673 3.022 6.673 7.208v2.455c0 4.029-2.487 7.208-6.736 7.208-2.675 0-4.752-1.417-5.445-2.896v2.518h-2.266V76.67Zm12.055 16.052v-2.266c0-2.959-1.669-5.351-4.722-5.351-2.675 0-4.941 2.046-4.941 5.35v2.078c0 3.116 1.731 5.54 4.91 5.54 3.336 0 4.753-2.393 4.753-5.351ZM217.063 76.67h2.392v22.976h-2.267v-2.518c-.692 1.48-2.769 2.896-5.445 2.896-4.249 0-6.735-3.18-6.735-7.208v-2.455c0-4.186 2.612-7.207 6.672-7.207 2.518 0 4.407 1.133 5.383 2.77V76.67ZM207.4 90.456v2.266c0 2.958 1.416 5.35 4.753 5.35 3.178 0 4.91-2.423 4.91-5.54v-2.076c0-3.305-2.267-5.351-4.942-5.351-3.053 0-4.721 2.392-4.721 5.35ZM194.694 100.024c-4.186 0-7.114-2.676-7.114-7.019v-2.58c0-4.376 2.487-7.271 7.019-7.271 4.595 0 6.83 3.053 6.83 7.018v2.392h-11.551v.567c0 2.801 1.448 5.067 4.816 5.067 2.423 0 3.902-1.29 4.437-3.116h2.141c-.535 2.896-3.211 4.942-6.578 4.942Zm-4.816-9.789v.504h9.316v-.756c0-2.864-1.447-5.004-4.595-5.004-3.462 0-4.721 2.298-4.721 5.256ZM177.517 99.646V83.53h2.235v3.714c.598-2.486 2.329-3.808 5.256-3.808h.378v2.234h-.472c-3.053 0-5.005 2.015-5.005 6.075v7.9h-2.392ZM166.416 100.024c-4.186 0-7.113-2.676-7.113-7.019v-2.58c0-4.376 2.487-7.271 7.019-7.271 4.595 0 6.83 3.053 6.83 7.018v2.392h-11.551v.567c0 2.801 1.448 5.067 4.815 5.067 2.424 0 3.903-1.29 4.438-3.116h2.14c-.535 2.896-3.21 4.942-6.578 4.942Zm-4.815-9.789v.504h9.316v-.756c0-2.864-1.448-5.004-4.595-5.004-3.462 0-4.721 2.298-4.721 5.256ZM156.786 83.531l-4.406 16.115h-2.266l-4.281-13.597-4.28 13.597h-2.266l-4.407-16.115h2.267l3.399 13.25 4.154-13.25h2.267l4.154 13.25 3.399-13.25h2.266ZM125.17 100.024c-4.595 0-7.208-3.148-7.208-7.114v-2.643c0-3.966 2.644-7.113 7.208-7.113 4.563 0 7.176 3.147 7.176 7.113v2.644c0 3.965-2.613 7.113-7.176 7.113Zm4.878-9.726c0-3.053-1.699-5.225-4.878-5.225-3.179 0-4.879 2.172-4.879 5.225v2.581c0 3.053 1.7 5.225 4.879 5.225 3.179 0 4.878-2.172 4.878-5.225V90.3ZM102.392 105.123H100V83.531h2.266v2.518c.693-1.48 2.77-2.895 5.445-2.895 4.312 0 6.736 3.115 6.736 7.207v2.455c0 4.186-2.613 7.208-6.673 7.208-2.518 0-4.406-1.133-5.382-2.77v7.869Zm9.663-12.401v-2.266c0-2.959-1.417-5.351-4.753-5.351-3.179 0-4.91 2.423-4.91 5.54v2.077c0 3.305 2.266 5.35 4.941 5.35 3.053 0 4.722-2.392 4.722-5.35Z"/></svg>