<?xml version="1.0" encoding="UTF-8" standalone="no"?>
<!DOCTYPE svg PUBLIC "-//W3C//DTD SVG 1.1//EN" "http://www.w3.org/Graphics/SVG/1.1/DTD/svg11.dtd">
<svg xmlns="http://www.w3.org/2000/svg" version="1.1" viewBox="0.00 0.00 163.00 166.00">
<path fill="#031a61" d="
  M 114.88 130.60
  A 0.23 0.22 -21.9 0 1 114.50 130.44
  L 114.50 52.62
  A 0.62 0.62 0.0 0 0 113.88 52.00
  L 98.12 52.00
  A 0.36 0.35 -0.0 0 0 97.76 52.35
  L 97.76 71.64
  A 0.61 0.61 0.0 0 1 97.15 72.25
  L 66.13 72.25
  A 0.63 0.63 0.0 0 1 65.50 71.62
  L 65.50 16.25
  A 1.50 1.50 0.0 0 1 65.94 15.19
  L 73.46 7.67
  A 4.87 4.72 7.2 0 1 74.54 6.86
  Q 80.54 3.58 86.21 5.55
  Q 88.91 6.48 95.23 12.82
  Q 147.53 65.24 150.39 67.97
  C 156.84 74.14 160.47 78.80 157.60 86.69
  Q 156.84 88.76 152.02 93.61
  Q 123.67 122.10 114.88 130.60
  Z"
/>
<path fill="#031a61" d="
  M 48.76 33.06
  L 48.76 111.40
  A 0.61 0.60 -0.0 0 0 49.37 112.00
  L 64.90 112.00
  A 0.60 0.60 0.0 0 0 65.50 111.40
  L 65.50 92.42
  A 0.42 0.42 0.0 0 1 65.92 92.00
  L 97.37 92.00
  A 0.39 0.39 0.0 0 1 97.76 92.39
  L 97.76 147.47
  A 0.96 0.94 -22.9 0 1 97.48 148.14
  C 94.58 151.01 90.62 155.83 87.54 157.18
  C 79.71 160.60 74.94 157.54 69.00 151.44
  Q 63.74 146.03 11.07 93.49
  C 5.69 88.11 3.41 84.13 5.54 77.19
  Q 6.38 74.45 10.75 70.35
  Q 12.17 69.01 48.27 32.86
  A 0.29 0.29 0.0 0 1 48.76 33.06
  Z"
/>
</svg>
