<svg width="128" height="128" viewBox="0 0 128 128" fill="none" xmlns="http://www.w3.org/2000/svg">
<path d="M7.86268 29H0V81.7184H7.86268V29ZM45.3765 29H37.5138V81.7184H45.3765V29Z" fill="#7559FF"/>
<path d="M33.5339 53.6815L15.1432 43.0655C13.8544 42.3203 12.2402 43.251 12.2402 44.7415V65.9767C12.2402 67.4672 13.8512 68.398 15.1432 67.6526L33.5339 57.0368C34.8226 56.2916 34.8226 54.43 33.5339 53.6847V53.6815Z" fill="#7559FF"/>
<path d="M106.937 67.4117L111.507 75.3265L97.5614 99.4776H88.4229L102.368 75.3265L85.8748 46.7592H95.0132L106.937 67.4117ZM128 46.7592H118.862L106.937 67.4117H116.076L128 46.7592Z" fill="#7559FF"/>
<path d="M63.9428 82.1543C69.9212 83.7588 75.5774 82.4245 79.8764 79.3262L76.1632 72.8954C74.2236 74.4967 71.7437 75.4633 69.0328 75.4633C64.06 75.4633 59.8487 72.225 58.3714 67.747H87.29C87.5082 66.608 87.6318 65.4363 87.6318 64.2355C87.6318 53.9644 79.3037 45.6364 69.0328 45.6364C63.754 45.6364 58.9993 47.8462 55.6115 51.3805L59.5623 58.2213C61.5541 55.0906 65.0461 53.0077 69.0328 53.0077C73.999 53.0077 78.2069 56.2362 79.6878 60.7076H50.7786C49.9488 65.0295 50.476 69.8429 53.9583 74.9197C56.3502 78.4084 59.8585 81.0575 63.9428 82.1543Z" fill="#7559FF"/>
</svg>
