<?xml version="1.0" encoding="UTF-8" standalone="no"?>
<!DOCTYPE svg PUBLIC "-//W3C//DTD SVG 1.1//EN" "http://www.w3.org/Graphics/SVG/1.1/DTD/svg11.dtd">
<svg xmlns="http://www.w3.org/2000/svg" version="1.1" viewBox="0.00 0.00 200.00 200.00">
<g stroke-width="2.00" fill="none" stroke-linecap="butt">
<path stroke="#021b43" vector-effect="non-scaling-stroke" d="
  M 200.00 165.15
  Q 198.48 159.07 196.79 153.12
  Q 190.89 132.34 170.87 124.98
  Q 159.44 120.78 148.28 127.95"
/>
<path stroke="#1d7442" vector-effect="non-scaling-stroke" d="
  M 148.28 127.95
  L 148.24 70.18
  A 0.57 0.57 0.0 0 1 148.81 69.60
  L 165.14 69.60
  A 0.81 0.80 6.2 0 0 165.93 68.97
  Q 166.15 67.90 165.24 67.00
  Q 161.35 63.19 139.14 40.93
  A 0.83 0.82 -44.8 0 0 137.97 40.93
  L 110.47 68.43
  A 0.69 0.69 0.0 0 0 110.96 69.61
  L 128.02 69.61
  A 0.73 0.73 0.0 0 1 128.75 70.34
  L 128.83 112.71"
/>
<path stroke="#021b43" vector-effect="non-scaling-stroke" d="
  M 128.83 112.71
  L 127.64 112.48"
/>
<path stroke="#0d559f" vector-effect="non-scaling-stroke" d="
  M 127.64 112.48
  Q 128.88 111.74 127.71 110.52
  Q 115.21 97.47 101.57 84.46
  A 1.62 1.62 0.0 0 0 99.35 84.46
  Q 86.92 96.28 73.70 110.19
  Q 72.25 111.72 73.34 112.52"
/>
<path stroke="#021b43" vector-effect="non-scaling-stroke" d="
  M 73.34 112.52
  L 72.13 112.80"
/>
<path stroke="#806e25" vector-effect="non-scaling-stroke" d="
  M 72.13 112.80
  L 72.13 69.76
  A 0.29 0.29 0.0 0 1 72.42 69.47
  L 90.11 69.47
  A 0.56 0.55 67.4 0 0 90.50 68.52
  L 62.89 40.91
  A 0.58 0.57 44.6 0 0 62.08 40.91
  L 34.46 68.53
  A 0.55 0.55 0.0 0 0 34.85 69.47
  L 52.25 69.47
  A 0.57 0.57 0.0 0 1 52.82 70.04
  L 52.85 137.38"
/>
<path stroke="#021b43" vector-effect="non-scaling-stroke" d="
  M 52.85 137.38
  C 41.83 127.65 26.05 126.23 11.95 129.20
  Q 5.92 130.47 0.00 132.28"
/>
<path stroke="#826920" vector-effect="non-scaling-stroke" d="
  M 72.13 112.80
  L 71.82 157.63
  A 0.37 0.36 90.0 0 1 71.46 158.00
  L 53.71 158.00
  A 0.64 0.64 0.0 0 1 53.07 157.36
  L 52.85 137.38"
/>
<path stroke="#d49e0a" vector-effect="non-scaling-stroke" d="
  M 69.77 83.73
  A 0.69 0.68 3.7 0 0 70.58 83.02
  L 69.96 71.34
  A 1.56 1.55 -1.5 0 0 68.40 69.87
  L 55.96 69.87
  A 0.65 0.65 0.0 0 0 55.48 70.95
  Q 60.22 76.15 67.08 82.22
  Q 68.53 83.51 69.77 83.73"
/>
<path stroke="#1f703d" vector-effect="non-scaling-stroke" d="
  M 148.28 127.95
  L 147.93 157.94
  A 0.51 0.50 -0.0 0 1 147.42 158.44
  L 129.95 158.44
  A 1.10 1.09 89.7 0 1 128.86 157.35
  L 128.83 112.71"
/>
<path stroke="#0f519a" vector-effect="non-scaling-stroke" d="
  M 127.64 112.48
  L 111.38 112.66
  A 1.05 1.04 -0.3 0 0 110.34 113.70
  L 110.34 157.74
  A 0.79 0.78 -90.0 0 1 109.56 158.53
  L 91.45 158.53
  A 0.80 0.80 0.0 0 1 90.65 157.73
  L 90.65 113.75
  A 1.07 1.07 0.0 0 0 89.59 112.68
  L 73.34 112.52"
/>
<path stroke="#1b76cb" vector-effect="non-scaling-stroke" d="
  M 93.79 112.70
  A 0.84 0.84 0.0 0 0 93.22 114.16
  L 107.17 126.93
  A 0.84 0.84 0.0 0 0 108.58 126.31
  L 108.58 113.54
  A 0.84 0.84 0.0 0 0 107.74 112.70
  L 93.79 112.70"
/>
</g>
<path fill="#001f48" d="
  M 200.00 0.00
  L 200.00 165.15
  Q 198.48 159.07 196.79 153.12
  Q 190.89 132.34 170.87 124.98
  Q 159.44 120.78 148.28 127.95
  L 148.24 70.18
  A 0.57 0.57 0.0 0 1 148.81 69.60
  L 165.14 69.60
  A 0.81 0.80 6.2 0 0 165.93 68.97
  Q 166.15 67.90 165.24 67.00
  Q 161.35 63.19 139.14 40.93
  A 0.83 0.82 -44.8 0 0 137.97 40.93
  L 110.47 68.43
  A 0.69 0.69 0.0 0 0 110.96 69.61
  L 128.02 69.61
  A 0.73 0.73 0.0 0 1 128.75 70.34
  L 128.83 112.71
  L 127.64 112.48
  Q 128.88 111.74 127.71 110.52
  Q 115.21 97.47 101.57 84.46
  A 1.62 1.62 0.0 0 0 99.35 84.46
  Q 86.92 96.28 73.70 110.19
  Q 72.25 111.72 73.34 112.52
  L 72.13 112.80
  L 72.13 69.76
  A 0.29 0.29 0.0 0 1 72.42 69.47
  L 90.11 69.47
  A 0.56 0.55 67.4 0 0 90.50 68.52
  L 62.89 40.91
  A 0.58 0.57 44.6 0 0 62.08 40.91
  L 34.46 68.53
  A 0.55 0.55 0.0 0 0 34.85 69.47
  L 52.25 69.47
  A 0.57 0.57 0.0 0 1 52.82 70.04
  L 52.85 137.38
  C 41.83 127.65 26.05 126.23 11.95 129.20
  Q 5.92 130.47 0.00 132.28
  L 0.00 0.00
  L 200.00 0.00
  Z"
/>
<path fill="#ffbc02" d="
  M 72.13 112.80
  L 71.82 157.63
  A 0.37 0.36 90.0 0 1 71.46 158.00
  L 53.71 158.00
  A 0.64 0.64 0.0 0 1 53.07 157.36
  L 52.85 137.38
  L 52.82 70.04
  A 0.57 0.57 0.0 0 0 52.25 69.47
  L 34.85 69.47
  A 0.55 0.55 0.0 0 1 34.46 68.53
  L 62.08 40.91
  A 0.58 0.57 44.6 0 1 62.89 40.91
  L 90.50 68.52
  A 0.56 0.55 67.4 0 1 90.11 69.47
  L 72.42 69.47
  A 0.29 0.29 0.0 0 0 72.13 69.76
  L 72.13 112.80
  Z
  M 69.77 83.73
  A 0.69 0.68 3.7 0 0 70.58 83.02
  L 69.96 71.34
  A 1.56 1.55 -1.5 0 0 68.40 69.87
  L 55.96 69.87
  A 0.65 0.65 0.0 0 0 55.48 70.95
  Q 60.22 76.15 67.08 82.22
  Q 68.53 83.51 69.77 83.73
  Z"
/>
<path fill="#3ac93b" d="
  M 148.28 127.95
  L 147.93 157.94
  A 0.51 0.50 -0.0 0 1 147.42 158.44
  L 129.95 158.44
  A 1.10 1.09 89.7 0 1 128.86 157.35
  L 128.83 112.71
  L 128.75 70.34
  A 0.73 0.73 0.0 0 0 128.02 69.61
  L 110.96 69.61
  A 0.69 0.69 0.0 0 1 110.47 68.43
  L 137.97 40.93
  A 0.83 0.82 -44.8 0 1 139.14 40.93
  Q 161.35 63.19 165.24 67.00
  Q 166.15 67.90 165.93 68.97
  A 0.81 0.80 6.2 0 1 165.14 69.60
  L 148.81 69.60
  A 0.57 0.57 0.0 0 0 148.24 70.18
  L 148.28 127.95
  Z"
/>
<path fill="#a87f11" d="
  M 69.77 83.73
  Q 68.53 83.51 67.08 82.22
  Q 60.22 76.15 55.48 70.95
  A 0.65 0.65 0.0 0 1 55.96 69.87
  L 68.40 69.87
  A 1.56 1.55 -1.5 0 1 69.96 71.34
  L 70.58 83.02
  A 0.69 0.68 3.7 0 1 69.77 83.73
  Z"
/>
<path fill="#1a8bf5" d="
  M 127.64 112.48
  L 111.38 112.66
  A 1.05 1.04 -0.3 0 0 110.34 113.70
  L 110.34 157.74
  A 0.79 0.78 -90.0 0 1 109.56 158.53
  L 91.45 158.53
  A 0.80 0.80 0.0 0 1 90.65 157.73
  L 90.65 113.75
  A 1.07 1.07 0.0 0 0 89.59 112.68
  L 73.34 112.52
  Q 72.25 111.72 73.70 110.19
  Q 86.92 96.28 99.35 84.46
  A 1.62 1.62 0.0 0 1 101.57 84.46
  Q 115.21 97.47 127.71 110.52
  Q 128.88 111.74 127.64 112.48
  Z
  M 93.79 112.70
  A 0.84 0.84 0.0 0 0 93.22 114.16
  L 107.17 126.93
  A 0.84 0.84 0.0 0 0 108.58 126.31
  L 108.58 113.54
  A 0.84 0.84 0.0 0 0 107.74 112.70
  L 93.79 112.70
  Z"
/>
<path fill="#04163e" d="
  M 127.64 112.48
  L 128.83 112.71
  L 128.86 157.35
  A 1.10 1.09 89.7 0 0 129.95 158.44
  L 147.42 158.44
  A 0.51 0.50 -0.0 0 0 147.93 157.94
  L 148.28 127.95
  Q 159.44 120.78 170.87 124.98
  Q 190.89 132.34 196.79 153.12
  Q 198.48 159.07 200.00 165.15
  L 200.00 200.00
  L 0.00 200.00
  L 0.00 132.28
  Q 5.92 130.47 11.95 129.20
  C 26.05 126.23 41.83 127.65 52.85 137.38
  L 53.07 157.36
  A 0.64 0.64 0.0 0 0 53.71 158.00
  L 71.46 158.00
  A 0.37 0.36 90.0 0 0 71.82 157.63
  L 72.13 112.80
  L 73.34 112.52
  L 89.59 112.68
  A 1.07 1.07 0.0 0 1 90.65 113.75
  L 90.65 157.73
  A 0.80 0.80 0.0 0 0 91.45 158.53
  L 109.56 158.53
  A 0.79 0.78 90.0 0 0 110.34 157.74
  L 110.34 113.70
  A 1.05 1.04 -0.3 0 1 111.38 112.66
  L 127.64 112.48
  Z"
/>
<path fill="#1c60a1" d="
  M 93.79 112.70
  L 107.74 112.70
  A 0.84 0.84 0.0 0 1 108.58 113.54
  L 108.58 126.31
  A 0.84 0.84 0.0 0 1 107.17 126.93
  L 93.22 114.16
  A 0.84 0.84 0.0 0 1 93.79 112.70
  Z"
/>
</svg>
