<?xml version="1.0" encoding="UTF-8" standalone="no"?>
<!DOCTYPE svg PUBLIC "-//W3C//DTD SVG 1.1//EN" "http://www.w3.org/Graphics/SVG/1.1/DTD/svg11.dtd">
<svg xmlns="http://www.w3.org/2000/svg" version="1.1" viewBox="0.00 0.00 368.00 368.00">
<g stroke-width="2.00" fill="none" stroke-linecap="butt">
<path stroke="#38562e" vector-effect="non-scaling-stroke" d="
  M 84.05 115.52
  A 0.60 0.60 0.0 0 1 83.58 116.15
  Q 66.64 119.70 55.26 131.36
  C 27.74 159.53 39.30 206.46 76.37 218.97
  Q 84.77 221.80 95.50 221.79
  Q 124.77 221.76 263.89 221.81
  Q 281.20 221.82 287.47 220.23
  C 308.67 214.86 324.51 197.34 327.45 175.57
  C 331.52 145.39 309.49 118.01 279.24 115.50
  Q 274.16 115.08 271.20 115.11
  A 0.80 0.80 0.0 0 1 270.42 114.53
  Q 265.15 95.99 248.38 87.91
  C 238.90 83.35 228.30 82.77 218.42 85.94
  A 0.85 0.85 0.0 0 1 217.36 85.42
  C 202.99 47.37 159.74 28.93 122.49 47.01
  C 96.45 59.66 81.76 86.60 84.05 115.52"
/>
<path stroke="#38562e" vector-effect="non-scaling-stroke" d="
  M 319.02 239.42
  A 0.33 0.33 0.0 0 0 318.69 239.09
  L 63.23 239.09
  A 0.33 0.33 0.0 0 0 62.90 239.42
  L 62.90 254.76
  A 0.33 0.33 0.0 0 0 63.23 255.09
  L 318.69 255.09
  A 0.33 0.33 0.0 0 0 319.02 254.76
  L 319.02 239.42"
/>
<path stroke="#808080" vector-effect="non-scaling-stroke" d="
  M 280.07 269.95
  A 0.45 0.45 0.0 0 0 279.62 269.50
  L 64.46 269.50
  A 0.45 0.45 0.0 0 0 64.01 269.95
  L 64.01 285.05
  A 0.45 0.45 0.0 0 0 64.46 285.50
  L 279.62 285.50
  A 0.45 0.45 0.0 0 0 280.07 285.05
  L 280.07 269.95"
/>
<path stroke="#38562e" vector-effect="non-scaling-stroke" d="
  M 231.54 300.44
  A 0.52 0.52 0.0 0 0 231.02 299.92
  L 63.96 299.92
  A 0.52 0.52 0.0 0 0 63.44 300.44
  L 63.44 315.40
  A 0.52 0.52 0.0 0 0 63.96 315.92
  L 231.02 315.92
  A 0.52 0.52 0.0 0 0 231.54 315.40
  L 231.54 300.44"
/>
<path stroke="#b8d5ad" vector-effect="non-scaling-stroke" d="
  M 127.71 147.28
  L 129.10 142.54
  A 1.07 1.06 -69.7 0 0 128.53 141.28
  C 120.77 137.67 110.12 137.38 103.97 144.25
  C 100.49 148.14 99.70 154.37 102.49 158.88
  Q 105.26 163.36 110.59 165.51
  C 117.08 168.13 125.06 170.78 122.13 178.44
  C 120.02 183.95 111.95 183.67 107.37 182.11
  Q 102.98 180.61 102.06 179.94
  A 0.55 0.54 -63.8 0 0 101.22 180.23
  L 99.62 185.69
  A 0.95 0.94 -67.7 0 0 100.07 186.78
  C 109.19 191.62 129.34 191.20 130.99 177.18
  C 133.22 158.15 107.18 162.19 109.28 150.99
  C 110.72 143.27 121.64 145.13 126.56 147.76
  A 0.80 0.80 0.0 0 0 127.71 147.28"
/>
<path stroke="#b8d5ad" vector-effect="non-scaling-stroke" d="
  M 251.86 147.29
  L 253.26 142.54
  A 1.07 1.06 -69.6 0 0 252.69 141.28
  C 244.93 137.66 234.27 137.35 228.11 144.22
  C 224.62 148.11 223.82 154.34 226.61 158.86
  Q 229.38 163.35 234.71 165.50
  C 241.20 168.14 249.18 170.80 246.24 178.46
  C 244.12 183.97 236.04 183.68 231.46 182.11
  Q 227.07 180.60 226.15 179.93
  A 0.55 0.54 -63.7 0 0 225.31 180.22
  L 223.70 185.68
  A 0.95 0.94 -67.7 0 0 224.15 186.77
  C 233.27 191.63 253.43 191.24 255.10 177.21
  C 257.36 158.17 231.30 162.18 233.41 150.97
  C 234.87 143.25 245.79 145.13 250.71 147.76
  A 0.80 0.80 0.0 0 0 251.86 147.29"
/>
<path stroke="#b8d5ad" vector-effect="non-scaling-stroke" d="
  M 150.29 146.94
  L 150.22 140.61
  A 0.73 0.73 0.0 0 0 149.48 139.89
  L 143.26 139.95
  A 0.61 0.60 -0.9 0 0 142.66 140.56
  L 143.17 187.44
  A 1.34 1.34 0.0 0 0 144.52 188.77
  L 150.17 188.71
  A 1.54 1.54 0.0 0 0 151.69 187.16
  Q 151.56 164.45 151.60 160.27
  Q 151.65 153.29 155.78 149.33
  Q 160.43 144.89 166.07 146.53
  C 172.41 148.38 173.58 155.25 173.52 161.01
  Q 173.38 175.99 173.55 188.32
  A 0.58 0.58 0.0 0 0 174.14 188.89
  L 181.62 188.81
  A 0.48 0.47 -0.6 0 0 182.09 188.34
  Q 182.14 161.46 182.12 159.12
  C 182.05 151.78 187.19 145.07 195.03 146.24
  C 202.41 147.35 203.94 154.99 203.90 161.25
  Q 203.84 173.52 203.95 187.71
  A 1.00 1.00 0.0 0 0 204.96 188.70
  L 211.55 188.62
  A 0.93 0.92 -0.3 0 0 212.47 187.70
  Q 212.51 165.30 212.48 160.50
  C 212.40 149.85 208.83 139.29 196.56 138.93
  C 189.92 138.73 184.14 142.05 180.83 147.73
  A 0.63 0.63 0.0 0 1 179.71 147.68
  C 174.05 135.30 157.60 136.72 151.15 147.18
  A 0.46 0.46 0.0 0 1 150.29 146.94"
/>
</g>
<path fill="#000000" d="
  M 368.00 0.00
  L 368.00 368.00
  L 0.00 368.00
  L 0.00 0.00
  L 368.00 0.00
  Z
  M 84.05 115.52
  A 0.60 0.60 0.0 0 1 83.58 116.15
  Q 66.64 119.70 55.26 131.36
  C 27.74 159.53 39.30 206.46 76.37 218.97
  Q 84.77 221.80 95.50 221.79
  Q 124.77 221.76 263.89 221.81
  Q 281.20 221.82 287.47 220.23
  C 308.67 214.86 324.51 197.34 327.45 175.57
  C 331.52 145.39 309.49 118.01 279.24 115.50
  Q 274.16 115.08 271.20 115.11
  A 0.80 0.80 0.0 0 1 270.42 114.53
  Q 265.15 95.99 248.38 87.91
  C 238.90 83.35 228.30 82.77 218.42 85.94
  A 0.85 0.85 0.0 0 1 217.36 85.42
  C 202.99 47.37 159.74 28.93 122.49 47.01
  C 96.45 59.66 81.76 86.60 84.05 115.52
  Z
  M 319.02 239.42
  A 0.33 0.33 0.0 0 0 318.69 239.09
  L 63.23 239.09
  A 0.33 0.33 0.0 0 0 62.90 239.42
  L 62.90 254.76
  A 0.33 0.33 0.0 0 0 63.23 255.09
  L 318.69 255.09
  A 0.33 0.33 0.0 0 0 319.02 254.76
  L 319.02 239.42
  Z
  M 280.07 269.95
  A 0.45 0.45 0.0 0 0 279.62 269.50
  L 64.46 269.50
  A 0.45 0.45 0.0 0 0 64.01 269.95
  L 64.01 285.05
  A 0.45 0.45 0.0 0 0 64.46 285.50
  L 279.62 285.50
  A 0.45 0.45 0.0 0 0 280.07 285.05
  L 280.07 269.95
  Z
  M 231.54 300.44
  A 0.52 0.52 0.0 0 0 231.02 299.92
  L 63.96 299.92
  A 0.52 0.52 0.0 0 0 63.44 300.44
  L 63.44 315.40
  A 0.52 0.52 0.0 0 0 63.96 315.92
  L 231.02 315.92
  A 0.52 0.52 0.0 0 0 231.54 315.40
  L 231.54 300.44
  Z"
/>
<path fill="#70ab5b" d="
  M 84.05 115.52
  C 81.76 86.60 96.45 59.66 122.49 47.01
  C 159.74 28.93 202.99 47.37 217.36 85.42
  A 0.85 0.85 0.0 0 0 218.42 85.94
  C 228.30 82.77 238.90 83.35 248.38 87.91
  Q 265.15 95.99 270.42 114.53
  A 0.80 0.80 0.0 0 0 271.20 115.11
  Q 274.16 115.08 279.24 115.50
  C 309.49 118.01 331.52 145.39 327.45 175.57
  C 324.51 197.34 308.67 214.86 287.47 220.23
  Q 281.20 221.82 263.89 221.81
  Q 124.77 221.76 95.50 221.79
  Q 84.77 221.80 76.37 218.97
  C 39.30 206.46 27.74 159.53 55.26 131.36
  Q 66.64 119.70 83.58 116.15
  A 0.60 0.60 0.0 0 0 84.05 115.52
  Z
  M 127.71 147.28
  L 129.10 142.54
  A 1.07 1.06 -69.7 0 0 128.53 141.28
  C 120.77 137.67 110.12 137.38 103.97 144.25
  C 100.49 148.14 99.70 154.37 102.49 158.88
  Q 105.26 163.36 110.59 165.51
  C 117.08 168.13 125.06 170.78 122.13 178.44
  C 120.02 183.95 111.95 183.67 107.37 182.11
  Q 102.98 180.61 102.06 179.94
  A 0.55 0.54 -63.8 0 0 101.22 180.23
  L 99.62 185.69
  A 0.95 0.94 -67.7 0 0 100.07 186.78
  C 109.19 191.62 129.34 191.20 130.99 177.18
  C 133.22 158.15 107.18 162.19 109.28 150.99
  C 110.72 143.27 121.64 145.13 126.56 147.76
  A 0.80 0.80 0.0 0 0 127.71 147.28
  Z
  M 251.86 147.29
  L 253.26 142.54
  A 1.07 1.06 -69.6 0 0 252.69 141.28
  C 244.93 137.66 234.27 137.35 228.11 144.22
  C 224.62 148.11 223.82 154.34 226.61 158.86
  Q 229.38 163.35 234.71 165.50
  C 241.20 168.14 249.18 170.80 246.24 178.46
  C 244.12 183.97 236.04 183.68 231.46 182.11
  Q 227.07 180.60 226.15 179.93
  A 0.55 0.54 -63.7 0 0 225.31 180.22
  L 223.70 185.68
  A 0.95 0.94 -67.7 0 0 224.15 186.77
  C 233.27 191.63 253.43 191.24 255.10 177.21
  C 257.36 158.17 231.30 162.18 233.41 150.97
  C 234.87 143.25 245.79 145.13 250.71 147.76
  A 0.80 0.80 0.0 0 0 251.86 147.29
  Z
  M 150.29 146.94
  L 150.22 140.61
  A 0.73 0.73 0.0 0 0 149.48 139.89
  L 143.26 139.95
  A 0.61 0.60 -0.9 0 0 142.66 140.56
  L 143.17 187.44
  A 1.34 1.34 0.0 0 0 144.52 188.77
  L 150.17 188.71
  A 1.54 1.54 0.0 0 0 151.69 187.16
  Q 151.56 164.45 151.60 160.27
  Q 151.65 153.29 155.78 149.33
  Q 160.43 144.89 166.07 146.53
  C 172.41 148.38 173.58 155.25 173.52 161.01
  Q 173.38 175.99 173.55 188.32
  A 0.58 0.58 0.0 0 0 174.14 188.89
  L 181.62 188.81
  A 0.48 0.47 -0.6 0 0 182.09 188.34
  Q 182.14 161.46 182.12 159.12
  C 182.05 151.78 187.19 145.07 195.03 146.24
  C 202.41 147.35 203.94 154.99 203.90 161.25
  Q 203.84 173.52 203.95 187.71
  A 1.00 1.00 0.0 0 0 204.96 188.70
  L 211.55 188.62
  A 0.93 0.92 -0.3 0 0 212.47 187.70
  Q 212.51 165.30 212.48 160.50
  C 212.40 149.85 208.83 139.29 196.56 138.93
  C 189.92 138.73 184.14 142.05 180.83 147.73
  A 0.63 0.63 0.0 0 1 179.71 147.68
  C 174.05 135.30 157.60 136.72 151.15 147.18
  A 0.46 0.46 0.0 0 1 150.29 146.94
  Z"
/>
<path fill="#ffffff" d="
  M 127.71 147.28
  A 0.80 0.80 0.0 0 1 126.56 147.76
  C 121.64 145.13 110.72 143.27 109.28 150.99
  C 107.18 162.19 133.22 158.15 130.99 177.18
  C 129.34 191.20 109.19 191.62 100.07 186.78
  A 0.95 0.94 -67.7 0 1 99.62 185.69
  L 101.22 180.23
  A 0.55 0.54 -63.8 0 1 102.06 179.94
  Q 102.98 180.61 107.37 182.11
  C 111.95 183.67 120.02 183.95 122.13 178.44
  C 125.06 170.78 117.08 168.13 110.59 165.51
  Q 105.26 163.36 102.49 158.88
  C 99.70 154.37 100.49 148.14 103.97 144.25
  C 110.12 137.38 120.77 137.67 128.53 141.28
  A 1.07 1.06 -69.7 0 1 129.10 142.54
  L 127.71 147.28
  Z"
/>
<path fill="#ffffff" d="
  M 251.86 147.29
  A 0.80 0.80 0.0 0 1 250.71 147.76
  C 245.79 145.13 234.87 143.25 233.41 150.97
  C 231.30 162.18 257.36 158.17 255.10 177.21
  C 253.43 191.24 233.27 191.63 224.15 186.77
  A 0.95 0.94 -67.7 0 1 223.70 185.68
  L 225.31 180.22
  A 0.55 0.54 -63.7 0 1 226.15 179.93
  Q 227.07 180.60 231.46 182.11
  C 236.04 183.68 244.12 183.97 246.24 178.46
  C 249.18 170.80 241.20 168.14 234.71 165.50
  Q 229.38 163.35 226.61 158.86
  C 223.82 154.34 224.62 148.11 228.11 144.22
  C 234.27 137.35 244.93 137.66 252.69 141.28
  A 1.07 1.06 -69.6 0 1 253.26 142.54
  L 251.86 147.29
  Z"
/>
<path fill="#ffffff" d="
  M 150.29 146.94
  A 0.46 0.46 0.0 0 0 151.15 147.18
  C 157.60 136.72 174.05 135.30 179.71 147.68
  A 0.63 0.63 0.0 0 0 180.83 147.73
  C 184.14 142.05 189.92 138.73 196.56 138.93
  C 208.83 139.29 212.40 149.85 212.48 160.50
  Q 212.51 165.30 212.47 187.70
  A 0.93 0.92 -0.3 0 1 211.55 188.62
  L 204.96 188.70
  A 1.00 1.00 0.0 0 1 203.95 187.71
  Q 203.84 173.52 203.90 161.25
  C 203.94 154.99 202.41 147.35 195.03 146.24
  C 187.19 145.07 182.05 151.78 182.12 159.12
  Q 182.14 161.46 182.09 188.34
  A 0.48 0.47 -0.6 0 1 181.62 188.81
  L 174.14 188.89
  A 0.58 0.58 0.0 0 1 173.55 188.32
  Q 173.38 175.99 173.52 161.01
  C 173.58 155.25 172.41 148.38 166.07 146.53
  Q 160.43 144.89 155.78 149.33
  Q 151.65 153.29 151.60 160.27
  Q 151.56 164.45 151.69 187.16
  A 1.54 1.54 0.0 0 1 150.17 188.71
  L 144.52 188.77
  A 1.34 1.34 0.0 0 1 143.17 187.44
  L 142.66 140.56
  A 0.61 0.60 -0.9 0 1 143.26 139.95
  L 149.48 139.89
  A 0.73 0.73 0.0 0 1 150.22 140.61
  L 150.29 146.94
  Z"
/>
<rect fill="#70ab5b" x="62.90" y="239.09" width="256.12" height="16.00" rx="0.33"/>
<rect fill="#ffffff" x="64.01" y="269.50" width="216.06" height="16.00" rx="0.45"/>
<rect fill="#70ab5b" x="63.44" y="299.92" width="168.10" height="16.00" rx="0.52"/>
</svg>
