<svg id="Milient_Logo_RGB_NEG" xmlns="http://www.w3.org/2000/svg" width="179.571" height="20.964" viewBox="0 0 179.571 20.964">
  <path id="Path_17" data-name="Path 17" d="M36.487,20.924c-5.549,0-8.209-5.161-10.562-9.72-2.487-4.813-4.359-7.968-7.688-7.968s-5.214,3.1-7.688,7.821C8.2,15.536,5.535,20.6,0,20.6V17.368c3.329,0,5.214-3.1,7.688-7.821C10.041,5.067,12.7,0,18.237,0S26.446,5.161,28.8,9.72c2.487,4.813,4.359,7.968,7.688,7.968s5.2-3.155,7.688-7.968C46.527,5.161,49.188,0,54.736,0s8.2,5.067,10.549,9.546c2.487,4.72,4.359,7.821,7.688,7.821V20.6c-5.535,0-8.2-5.067-10.549-9.546-2.487-4.72-4.359-7.821-7.688-7.821s-5.2,3.155-7.688,7.968c-2.353,4.559-5.014,9.72-10.562,9.72Z" transform="translate(0 0)" fill="#f4f4f4"/>
  <g id="Group_3" data-name="Group 3" transform="translate(94.298 0.334)">
    <path id="Path_18" data-name="Path 18" d="M70.543,20.515V.26h4.573l6.15,12.621,6-12.621h4.613V20.515H88.646V4.164l-5.95,12.3H79.688l-5.923-12.3V20.515H70.53Z" transform="translate(-70.53 -0.247)" fill="#f4f4f4"/>
    <path id="Path_19" data-name="Path 19" d="M90.952,3.994a1.984,1.984,0,0,1-1.4-.521A1.745,1.745,0,0,1,89,2.135a1.845,1.845,0,0,1,.548-1.35,2.092,2.092,0,0,1,2.794,0,1.818,1.818,0,0,1,.575,1.35,1.713,1.713,0,0,1-.575,1.324A1.927,1.927,0,0,1,90.952,3.994ZM89.374,20.519V6.373h3.142V20.519Z" transform="translate(-64.306 -0.25)" fill="#f4f4f4"/>
    <path id="Path_20" data-name="Path 20" d="M94.03,20.515V.26h3.142V20.515Z" transform="translate(-62.611 -0.247)" fill="#f4f4f4"/>
    <path id="Path_21" data-name="Path 21" d="M100.432,3.994a1.984,1.984,0,0,1-1.4-.521,1.745,1.745,0,0,1-.548-1.337,1.845,1.845,0,0,1,.548-1.35,2.092,2.092,0,0,1,2.794,0,1.818,1.818,0,0,1,.575,1.35,1.713,1.713,0,0,1-.575,1.324A1.927,1.927,0,0,1,100.432,3.994ZM98.854,20.519V6.373H102V20.519Z" transform="translate(-61.111 -0.25)" fill="#f4f4f4"/>
    <path id="Path_22" data-name="Path 22" d="M114.388,14.049l2.473,1.364a6.869,6.869,0,0,1-6.618,4,7.3,7.3,0,0,1-5.335-2.059,7.17,7.17,0,0,1-2.1-5.375,7.173,7.173,0,0,1,2.059-5.335,6.982,6.982,0,0,1,5.174-2.072,6.23,6.23,0,0,1,4.88,1.965,7.5,7.5,0,0,1,1.792,5.228,7.364,7.364,0,0,1-.027.936H106.139a4.608,4.608,0,0,0,1.243,3.035,3.92,3.92,0,0,0,2.9,1.11,4.5,4.5,0,0,0,4.1-2.794Zm-4.425-6.992a3.638,3.638,0,0,0-2.567.936,4.065,4.065,0,0,0-1.23,2.567h7.313a4.078,4.078,0,0,0-1.029-2.594,3.323,3.323,0,0,0-2.487-.909Z" transform="translate(-59.652 1.206)" fill="#f4f4f4"/>
    <path id="Path_23" data-name="Path 23" d="M115.1,19.063V4.918h3.062V6.789a5,5,0,0,1,4.425-2.219,5.254,5.254,0,0,1,4.011,1.5,5.894,5.894,0,0,1,1.417,4.185v8.8h-3.142V10.68c0-2.313-1.029-3.463-3.088-3.463a3.55,3.55,0,0,0-2.54.936,3.457,3.457,0,0,0-.989,2.621V19.05h-3.142Z" transform="translate(-55.51 1.206)" fill="#f4f4f4"/>
    <path id="Path_24" data-name="Path 24" d="M132.118,20.371q-4.352,0-4.345-4.666V8.539H125.58V5.891h2.273l.735-4.171h2.366V5.891h5.629V8.539h-5.629v7.086c0,1.3.481,1.952,1.431,1.952.9,0,1.7-.816,2.42-2.447l2.447,1.257q-1.8,3.991-5.134,4Z" transform="translate(-51.979 0.245)" fill="#f4f4f4"/>
  </g>
</svg>
