<?xml version="1.0" encoding="UTF-8" standalone="no"?>
<!DOCTYPE svg PUBLIC "-//W3C//DTD SVG 1.1//EN" "http://www.w3.org/Graphics/SVG/1.1/DTD/svg11.dtd">
<svg xmlns="http://www.w3.org/2000/svg" version="1.1" viewBox="0.00 0.00 400.00 400.00">
<g stroke-width="2.00" fill="none" stroke-linecap="butt">
<path stroke="#838986" vector-effect="non-scaling-stroke" d="
  M 200.00 297.00
  C 222.74 297.00 234.50 262.17 239.65 244.59
  A 0.31 0.31 0.0 0 1 240.24 244.59
  Q 243.74 256.89 248.80 268.97
  C 252.38 277.52 257.22 286.47 263.93 291.89
  C 278.37 303.54 293.94 293.31 300.86 279.33
  C 308.41 264.07 311.10 245.97 312.52 228.99
  Q 315.04 198.96 312.26 168.25
  Q 310.40 147.81 304.78 130.52
  C 301.27 119.74 292.39 104.72 279.39 103.21
  C 260.74 101.05 251.00 124.08 246.07 138.55
  Q 244.84 142.16 240.14 156.74
  A 0.27 0.27 0.0 0 1 239.63 156.73
  Q 234.98 140.29 228.24 126.55
  C 222.60 115.04 213.36 103.00 200.00 103.00
  C 186.64 103.00 177.40 115.04 171.76 126.55
  Q 165.02 140.29 160.37 156.73
  A 0.27 0.27 0.0 0 1 159.86 156.74
  Q 155.16 142.16 153.93 138.55
  C 149.00 124.08 139.26 101.05 120.61 103.21
  C 107.61 104.72 98.73 119.74 95.22 130.52
  Q 89.60 147.81 87.74 168.25
  Q 84.96 198.96 87.48 228.99
  C 88.90 245.97 91.59 264.07 99.15 279.33
  C 106.07 293.31 121.64 303.54 136.08 291.89
  C 142.79 286.47 147.63 277.52 151.21 268.97
  Q 156.26 256.89 159.76 244.59
  A 0.31 0.31 0.0 0 1 160.35 244.59
  C 165.50 262.17 177.26 297.00 200.00 297.00"
/>
<path stroke="#838986" vector-effect="non-scaling-stroke" d="
  M 200.01 275.11
  Q 200.55 275.11 201.40 274.39
  C 205.54 270.85 208.51 265.12 210.88 259.88
  Q 215.01 250.75 218.02 241.01
  Q 224.08 221.43 228.65 200.91
  A 2.57 2.55 44.8 0 0 228.64 199.75
  Q 223.91 180.22 218.50 161.99
  C 215.20 150.84 211.17 139.40 204.87 129.67
  Q 203.09 126.91 200.49 125.02
  Q 200.30 124.88 199.99 124.88
  Q 199.69 124.88 199.50 125.02
  Q 196.90 126.91 195.12 129.67
  C 188.82 139.40 184.79 150.84 181.50 161.99
  Q 176.09 180.23 171.36 199.76
  A 2.57 2.55 -44.8 0 0 171.35 200.92
  Q 175.93 221.44 181.99 241.01
  Q 185.01 250.75 189.14 259.88
  C 191.51 265.12 194.48 270.85 198.63 274.39
  Q 199.47 275.11 200.01 275.11"
/>
<path stroke="#838986" vector-effect="non-scaling-stroke" d="
  M 122.64 125.74
  C 118.46 129.53 115.98 136.66 114.42 142.14
  Q 111.72 151.65 110.36 162.53
  Q 106.34 194.72 109.36 229.18
  Q 110.83 245.95 114.71 259.78
  Q 116.57 266.43 120.23 272.31
  A 0.71 0.68 10.2 0 0 120.36 272.49
  L 122.19 274.31
  A 0.80 0.80 0.0 0 0 123.40 274.23
  Q 128.38 267.60 131.40 259.89
  Q 135.38 249.76 135.72 248.70
  Q 143.04 225.83 148.48 200.99
  A 2.24 2.13 45.9 0 0 148.47 199.96
  C 143.69 180.06 138.74 159.23 130.99 139.56
  Q 127.53 130.80 123.41 125.80
  A 0.54 0.53 49.0 0 0 122.64 125.74"
/>
<path stroke="#838986" vector-effect="non-scaling-stroke" d="
  M 251.43 200.29
  Q 251.43 200.48 251.44 200.49
  Q 254.94 215.64 259.88 233.71
  Q 264.12 249.21 269.44 261.77
  Q 272.45 268.86 276.45 274.29
  A 0.95 0.95 0.0 0 0 277.92 274.37
  Q 280.70 271.36 282.34 267.59
  C 286.55 257.96 288.50 247.63 289.82 237.01
  Q 291.90 220.29 291.89 200.26
  Q 291.87 180.23 289.76 163.51
  C 288.43 152.89 286.46 142.56 282.24 132.94
  Q 280.59 129.17 277.81 126.16
  A 0.95 0.95 0.0 0 0 276.34 126.25
  Q 272.35 131.68 269.35 138.78
  Q 264.05 151.34 259.83 166.85
  Q 254.92 184.93 251.44 200.08
  Q 251.43 200.09 251.43 200.29"
/>
</g>
<path fill="#07120c" d="
  M 400.00 0.00
  L 400.00 400.00
  L 0.00 400.00
  L 0.00 0.00
  L 400.00 0.00
  Z
  M 200.00 297.00
  C 222.74 297.00 234.50 262.17 239.65 244.59
  A 0.31 0.31 0.0 0 1 240.24 244.59
  Q 243.74 256.89 248.80 268.97
  C 252.38 277.52 257.22 286.47 263.93 291.89
  C 278.37 303.54 293.94 293.31 300.86 279.33
  C 308.41 264.07 311.10 245.97 312.52 228.99
  Q 315.04 198.96 312.26 168.25
  Q 310.40 147.81 304.78 130.52
  C 301.27 119.74 292.39 104.72 279.39 103.21
  C 260.74 101.05 251.00 124.08 246.07 138.55
  Q 244.84 142.16 240.14 156.74
  A 0.27 0.27 0.0 0 1 239.63 156.73
  Q 234.98 140.29 228.24 126.55
  C 222.60 115.04 213.36 103.00 200.00 103.00
  C 186.64 103.00 177.40 115.04 171.76 126.55
  Q 165.02 140.29 160.37 156.73
  A 0.27 0.27 0.0 0 1 159.86 156.74
  Q 155.16 142.16 153.93 138.55
  C 149.00 124.08 139.26 101.05 120.61 103.21
  C 107.61 104.72 98.73 119.74 95.22 130.52
  Q 89.60 147.81 87.74 168.25
  Q 84.96 198.96 87.48 228.99
  C 88.90 245.97 91.59 264.07 99.15 279.33
  C 106.07 293.31 121.64 303.54 136.08 291.89
  C 142.79 286.47 147.63 277.52 151.21 268.97
  Q 156.26 256.89 159.76 244.59
  A 0.31 0.31 0.0 0 1 160.35 244.59
  C 165.50 262.17 177.26 297.00 200.00 297.00
  Z"
/>
<path fill="#ffffff" d="
  M 200.00 103.00
  C 213.36 103.00 222.60 115.04 228.24 126.55
  Q 234.98 140.29 239.63 156.73
  A 0.27 0.27 0.0 0 0 240.14 156.74
  Q 244.84 142.16 246.07 138.55
  C 251.00 124.08 260.74 101.05 279.39 103.21
  C 292.39 104.72 301.27 119.74 304.78 130.52
  Q 310.40 147.81 312.26 168.25
  Q 315.04 198.96 312.52 228.99
  C 311.10 245.97 308.41 264.07 300.86 279.33
  C 293.94 293.31 278.37 303.54 263.93 291.89
  C 257.22 286.47 252.38 277.52 248.80 268.97
  Q 243.74 256.89 240.24 244.59
  A 0.31 0.31 0.0 0 0 239.65 244.59
  C 234.50 262.17 222.74 297.00 200.00 297.00
  C 177.26 297.00 165.50 262.17 160.35 244.59
  A 0.31 0.31 0.0 0 0 159.76 244.59
  Q 156.26 256.89 151.21 268.97
  C 147.63 277.52 142.79 286.47 136.08 291.89
  C 121.64 303.54 106.07 293.31 99.15 279.33
  C 91.59 264.07 88.90 245.97 87.48 228.99
  Q 84.96 198.96 87.74 168.25
  Q 89.60 147.81 95.22 130.52
  C 98.73 119.74 107.61 104.72 120.61 103.21
  C 139.26 101.05 149.00 124.08 153.93 138.55
  Q 155.16 142.16 159.86 156.74
  A 0.27 0.27 0.0 0 0 160.37 156.73
  Q 165.02 140.29 171.76 126.55
  C 177.40 115.04 186.64 103.00 200.00 103.00
  Z
  M 200.01 275.11
  Q 200.55 275.11 201.40 274.39
  C 205.54 270.85 208.51 265.12 210.88 259.88
  Q 215.01 250.75 218.02 241.01
  Q 224.08 221.43 228.65 200.91
  A 2.57 2.55 44.8 0 0 228.64 199.75
  Q 223.91 180.22 218.50 161.99
  C 215.20 150.84 211.17 139.40 204.87 129.67
  Q 203.09 126.91 200.49 125.02
  Q 200.30 124.88 199.99 124.88
  Q 199.69 124.88 199.50 125.02
  Q 196.90 126.91 195.12 129.67
  C 188.82 139.40 184.79 150.84 181.50 161.99
  Q 176.09 180.23 171.36 199.76
  A 2.57 2.55 -44.8 0 0 171.35 200.92
  Q 175.93 221.44 181.99 241.01
  Q 185.01 250.75 189.14 259.88
  C 191.51 265.12 194.48 270.85 198.63 274.39
  Q 199.47 275.11 200.01 275.11
  Z
  M 122.64 125.74
  C 118.46 129.53 115.98 136.66 114.42 142.14
  Q 111.72 151.65 110.36 162.53
  Q 106.34 194.72 109.36 229.18
  Q 110.83 245.95 114.71 259.78
  Q 116.57 266.43 120.23 272.31
  A 0.71 0.68 10.2 0 0 120.36 272.49
  L 122.19 274.31
  A 0.80 0.80 0.0 0 0 123.40 274.23
  Q 128.38 267.60 131.40 259.89
  Q 135.38 249.76 135.72 248.70
  Q 143.04 225.83 148.48 200.99
  A 2.24 2.13 45.9 0 0 148.47 199.96
  C 143.69 180.06 138.74 159.23 130.99 139.56
  Q 127.53 130.80 123.41 125.80
  A 0.54 0.53 49.0 0 0 122.64 125.74
  Z
  M 251.43 200.29
  Q 251.43 200.48 251.44 200.49
  Q 254.94 215.64 259.88 233.71
  Q 264.12 249.21 269.44 261.77
  Q 272.45 268.86 276.45 274.29
  A 0.95 0.95 0.0 0 0 277.92 274.37
  Q 280.70 271.36 282.34 267.59
  C 286.55 257.96 288.50 247.63 289.82 237.01
  Q 291.90 220.29 291.89 200.26
  Q 291.87 180.23 289.76 163.51
  C 288.43 152.89 286.46 142.56 282.24 132.94
  Q 280.59 129.17 277.81 126.16
  A 0.95 0.95 0.0 0 0 276.34 126.25
  Q 272.35 131.68 269.35 138.78
  Q 264.05 151.34 259.83 166.85
  Q 254.92 184.93 251.44 200.08
  Q 251.43 200.09 251.43 200.29
  Z"
/>
<path fill="#07120c" d="
  M 199.99 124.88
  Q 200.30 124.88 200.49 125.02
  Q 203.09 126.91 204.87 129.67
  C 211.17 139.40 215.20 150.84 218.50 161.99
  Q 223.91 180.22 228.64 199.75
  A 2.57 2.55 44.8 0 1 228.65 200.91
  Q 224.08 221.43 218.02 241.01
  Q 215.01 250.75 210.88 259.88
  C 208.51 265.12 205.54 270.85 201.40 274.39
  Q 200.55 275.11 200.01 275.11
  Q 199.47 275.11 198.63 274.39
  C 194.48 270.85 191.51 265.12 189.14 259.88
  Q 185.01 250.75 181.99 241.01
  Q 175.93 221.44 171.35 200.92
  A 2.57 2.55 -44.8 0 1 171.36 199.76
  Q 176.09 180.23 181.50 161.99
  C 184.79 150.84 188.82 139.40 195.12 129.67
  Q 196.90 126.91 199.50 125.02
  Q 199.69 124.88 199.99 124.88
  Z"
/>
<path fill="#07120c" d="
  M 123.41 125.80
  Q 127.53 130.80 130.99 139.56
  C 138.74 159.23 143.69 180.06 148.47 199.96
  A 2.24 2.13 45.9 0 1 148.48 200.99
  Q 143.04 225.83 135.72 248.70
  Q 135.38 249.76 131.40 259.89
  Q 128.38 267.60 123.40 274.23
  A 0.80 0.80 0.0 0 1 122.19 274.31
  L 120.36 272.49
  A 0.71 0.68 10.2 0 1 120.23 272.31
  Q 116.57 266.43 114.71 259.78
  Q 110.83 245.95 109.36 229.18
  Q 106.34 194.72 110.36 162.53
  Q 111.72 151.65 114.42 142.14
  C 115.98 136.66 118.46 129.53 122.64 125.74
  A 0.54 0.53 49.0 0 1 123.41 125.80
  Z"
/>
<path fill="#07120c" d="
  M 291.89 200.26
  Q 291.90 220.29 289.82 237.01
  C 288.50 247.63 286.55 257.96 282.34 267.59
  Q 280.70 271.36 277.92 274.37
  A 0.95 0.95 0.0 0 1 276.45 274.29
  Q 272.45 268.86 269.44 261.77
  Q 264.12 249.21 259.88 233.71
  Q 254.94 215.64 251.44 200.49
  Q 251.43 200.48 251.43 200.29
  Q 251.43 200.09 251.44 200.08
  Q 254.92 184.93 259.83 166.85
  Q 264.05 151.34 269.35 138.78
  Q 272.35 131.68 276.34 126.25
  A 0.95 0.95 0.0 0 1 277.81 126.16
  Q 280.59 129.17 282.24 132.94
  C 286.46 142.56 288.43 152.89 289.76 163.51
  Q 291.87 180.23 291.89 200.26
  Z"
/>
</svg>
