<svg width="9.6875rem" height="2rem" viewBox="0 0 155 33" fill="none" xmlns="http://www.w3.org/2000/svg" style="fill: none !important;">
<g clip-path="url(#clip0_4921_13194)" style="fill: none !important;">
<path fill-rule="evenodd" clip-rule="evenodd" d="M28.3135 26.7188C30.6959 23.8465 31.9998 20.2319 31.9996 16.5001C31.9997 16.4657 31.9997 16.4313 31.9995 16.3969C31.9984 16.1571 31.8011 15.9668 31.5613 15.9668H28.8968C28.6439 15.9668 28.4428 16.1775 28.444 16.4304C28.4441 16.4536 28.4441 16.4769 28.4441 16.5001C28.4468 19.302 27.5055 22.0231 25.772 24.2243C24.0385 26.4256 21.614 27.9786 18.8896 28.6329C16.1651 29.2871 13.2998 29.0044 10.7557 27.8304C8.2117 26.6563 6.13739 24.6594 4.8675 22.1619C3.5976 19.6643 3.20617 16.8118 3.75638 14.0644C4.30658 11.3171 5.76632 8.83529 7.90008 7.01938C10.0338 5.20347 12.7172 4.15938 15.5171 4.05558C18.317 3.95178 21.0703 4.79433 23.3326 6.44727C23.7452 6.74856 24.1384 7.0753 24.5101 7.42553C24.6375 7.54563 24.805 7.61515 24.9801 7.61515H27.3326C27.5781 7.61515 27.7771 7.41617 27.7771 7.17071V5.92856C27.7771 5.76143 27.7147 5.59993 27.5996 5.47875C25.093 2.83948 21.7593 1.13142 18.1474 0.641099C14.4495 0.139119 10.6925 0.945072 7.52589 2.91961C4.35929 4.89414 1.98218 7.91312 0.805595 11.4546C-0.370995 14.996 -0.273106 18.8373 1.08234 22.3142C2.43778 25.7911 4.96556 28.6851 8.22863 30.4958C11.4917 32.3064 15.2849 32.92 18.9524 32.2303C22.6199 31.5406 25.9311 29.5911 28.3135 26.7188Z" fill="#02C29F" style="fill: rgb(2, 194, 159) !important;"/>
<path d="M34.2217 9.16585C34.2217 9.53404 33.9232 9.83252 33.555 9.83252H30.8883C30.5202 9.83252 30.2217 10.131 30.2217 10.4992V13.1668C30.2217 13.535 29.9232 13.8335 29.555 13.8335H26.8883C26.5202 13.8335 26.2217 14.132 26.2217 14.5002V17.1659C26.2217 17.534 25.9232 17.8325 25.555 17.8325H22.8874C22.5192 17.8325 22.2207 18.131 22.2207 18.4992V21.1668C22.2207 21.535 21.9222 21.8335 21.554 21.8335H18.8883C18.5202 21.8335 18.2217 22.132 18.2217 22.5002V25.1659C18.2217 25.534 17.9232 25.8325 17.555 25.8325H14.444C14.0758 25.8325 13.7773 25.534 13.7773 25.1659V22.5002C13.7773 22.132 13.4789 21.8335 13.1107 21.8335H10.443C10.0748 21.8335 9.77637 21.535 9.77637 21.1668V18.4992C9.77637 18.131 9.47789 17.8325 9.1097 17.8325H6.44401C6.07582 17.8325 5.77734 17.534 5.77734 17.1659V14.0548C5.77734 13.6867 6.07582 13.3882 6.44401 13.3882H9.55501C9.9232 13.3882 10.2217 13.6867 10.2217 14.0548V16.7225C10.2217 17.0907 10.5202 17.3892 10.8883 17.3892H13.554C13.9222 17.3892 14.2207 17.6876 14.2207 18.0558V20.7215C14.2207 21.0897 14.5192 21.3882 14.8874 21.3882H17.1097C17.4779 21.3882 17.7764 21.0897 17.7764 20.7215V18.0558C17.7764 17.6876 18.0748 17.3892 18.443 17.3892H21.1107C21.4789 17.3892 21.7773 17.0907 21.7773 16.7225V14.0549C21.7773 13.6867 22.0758 13.3882 22.444 13.3882H25.1107C25.4789 13.3882 25.7773 13.0897 25.7773 12.7215V10.0558C25.7773 9.68764 26.0758 9.38916 26.444 9.38916H29.1107C29.4789 9.38916 29.7773 9.09068 29.7773 8.72249V6.05485C29.7773 5.68666 30.0758 5.38818 30.444 5.38818H33.555C33.9232 5.38818 34.2217 5.68666 34.2217 6.05485V9.16585Z" fill="#02C29F" style="fill: rgb(2, 194, 159) !important;"/>
</g>
<path d="M47.5964 11.5001C47.9033 11.5001 48.152 11.7488 48.152 12.0556V24.4663C48.152 24.7731 47.9033 25.0218 47.5964 25.0218H44.8887C44.5818 25.0218 44.3331 24.7731 44.3331 24.4663V12.2779C44.3331 11.971 44.0844 11.7223 43.7776 11.7223H41.4442C41.1374 11.7223 40.8887 11.4736 40.8887 11.1667V8.61119C40.8887 8.30436 41.1374 8.05563 41.4442 8.05563H44.1109C44.4177 8.05563 44.6664 8.30436 44.6664 8.61119V10.9445C44.6664 11.2513 44.9152 11.5001 45.222 11.5001H47.5964Z" fill="#011C21" style="fill: rgb(1, 28, 33) !important;"/>
<path d="M44.3331 5.7223C44.3331 6.02912 44.5818 6.27785 44.8887 6.27785H47.5964C47.9033 6.27785 48.152 6.02912 48.152 5.7223V3.01454C48.152 2.70772 47.9033 2.45898 47.5964 2.45898H44.8887C44.5818 2.45898 44.3331 2.70772 44.3331 3.01454V5.7223Z" fill="#011C21" style="fill: rgb(1, 28, 33) !important;"/>
<path d="M54.1419 23.9998C52.8612 23.3134 51.8074 22.2699 51.1083 20.996C50.3735 19.635 50.0024 18.1073 50.0308 16.5609C50.0049 15.0202 50.3877 13.5002 51.1401 12.1556C51.8608 10.8786 52.9221 9.82696 54.2055 9.11795C55.559 8.37671 57.0818 7.99993 58.6248 8.02457C60.2319 8.00428 61.812 8.43842 63.1832 9.27699C64.3856 10.014 65.2644 10.9417 65.8195 12.0603C65.9419 12.307 65.8402 12.6009 65.6027 12.7405L63.5444 13.9507C63.2161 14.1437 62.7929 13.9543 62.6374 13.6066C62.3658 12.9996 61.9274 12.4755 61.3662 12.0999C60.5611 11.5445 59.6028 11.254 58.6248 11.2689C57.1457 11.2689 55.953 11.746 55.0464 12.7003C54.1399 13.6545 53.69 14.9413 53.6966 16.5609C53.6966 18.183 54.1432 19.4613 55.0365 20.3956C55.9298 21.33 57.1225 21.7938 58.6148 21.7872C59.5848 21.7983 60.5334 21.5019 61.3244 20.9403C61.883 20.5672 62.3316 20.0581 62.6315 19.466C62.7957 19.1418 63.1994 18.9807 63.5116 19.1667L65.5216 20.3644C65.7629 20.5082 65.8611 20.8108 65.7296 21.0591C65.131 22.1901 64.232 23.1384 63.1275 23.797C61.7736 24.636 60.2074 25.0686 58.6148 25.0435C57.0598 25.0772 55.5214 24.7182 54.1419 23.9998Z" fill="#011C21" style="fill: rgb(1, 28, 33) !important;"/>
<path fill-rule="evenodd" clip-rule="evenodd" d="M85.8262 8.58411C85.8262 8.27728 86.0749 8.02854 86.3817 8.02854H88.8133C89.1201 8.02854 89.3688 8.27719 89.3688 8.58397L89.3693 10.4936C90.7648 8.8489 92.6202 8.02721 94.9356 8.02854C96.4198 8.00283 97.8816 8.39256 99.156 9.15372C100.379 9.89368 101.371 10.9601 102.021 12.2331C102.708 13.5817 103.056 15.0772 103.036 16.5907C103.056 18.0914 102.702 19.5733 102.005 20.9026C101.348 22.1628 100.357 23.2178 99.1401 23.9521C97.8687 24.7048 96.4128 25.0889 94.9356 25.0614C93.2127 25.0614 91.7449 24.63 90.5322 23.7672L89.3613 22.9342V30.6665C89.3613 30.9733 89.1126 31.2221 88.8058 31.2221H86.3823C86.0754 31.2221 85.8267 30.9733 85.8267 30.6665L85.8262 8.58411ZM99.3687 16.5867C99.3674 18.1288 98.8967 19.3866 97.9567 20.3602C97.9555 20.3616 97.9564 20.3638 97.9582 20.3638C97.9601 20.3638 97.961 20.3661 97.9597 20.3674C97.0153 21.3404 95.7912 21.8256 94.2875 21.823C93.3823 21.8377 92.4898 21.6091 91.7031 21.161C90.9455 20.7212 90.3227 20.0826 89.902 19.3142C89.4493 18.4775 89.2212 17.5378 89.2401 16.5867C89.2254 15.6221 89.453 14.6693 89.902 13.8155C90.3149 13.0249 90.9382 12.3638 91.7031 11.9051C92.4866 11.4474 93.3803 11.213 94.2875 11.2272C95.7851 11.2285 97.007 11.7321 97.9533 12.738C98.8982 13.7598 99.37 15.0427 99.3687 16.5867Z" fill="#011C21" style="fill: rgb(1, 28, 33) !important;"/>
<path d="M107.985 23.9999C106.757 23.3054 105.758 22.2695 105.107 21.018C104.411 19.661 104.062 18.1532 104.089 16.6286C104.067 15.0976 104.422 13.5848 105.123 12.2232C105.773 10.9447 106.771 9.87531 108.001 9.13793C109.243 8.42458 110.648 8.04276 112.08 8.02918C113.513 8.01561 114.924 8.37073 116.18 9.0604C117.338 9.7479 118.27 10.7597 118.859 11.9708C119.504 13.3124 119.826 14.7864 119.798 16.2747C119.795 16.584 119.78 16.8931 119.755 17.2014C119.733 17.4818 119.494 17.6921 119.213 17.6921H107.816C108.002 19.1712 108.5 20.2698 109.311 20.9882C110.122 21.7065 111.164 22.0656 112.436 22.0656C113.565 22.0656 114.5 21.835 115.239 21.3738C115.796 21.0265 116.266 20.53 116.647 19.8843C116.84 19.5588 117.285 19.4598 117.567 19.7115L119.201 21.1691C119.403 21.3494 119.448 21.6505 119.29 21.8701C118.585 22.8461 117.643 23.6299 116.549 24.145C115.235 24.7621 113.797 25.0728 112.345 25.0535C110.682 25.0588 109.228 24.7076 107.985 23.9999ZM116.009 15.1137V15.0819C116.009 13.8494 115.66 12.864 114.963 12.1258C114.266 11.3876 113.3 11.0179 112.067 11.0166C111.042 10.993 110.048 11.3687 109.295 12.0642C108.529 12.7613 108.047 13.7778 107.848 15.1137H116.009Z" fill="#011C21" style="fill: rgb(1, 28, 33) !important;"/>
<path fill-rule="evenodd" clip-rule="evenodd" d="M125.188 23.9521C123.971 23.2184 122.979 22.1632 122.323 20.9026C121.626 19.5734 121.272 18.0914 121.291 16.5907C121.271 15.0772 121.619 13.5814 122.307 12.2331C122.957 10.9598 123.949 9.89324 125.172 9.15377C126.446 8.39212 127.908 8.00235 129.392 8.02859C130.495 8.01023 131.589 8.23133 132.599 8.67666C133.515 9.08585 134.326 9.69761 134.971 10.4658V8.58414C134.971 8.27732 135.219 8.02859 135.526 8.02859H137.958C138.264 8.02859 138.513 8.27732 138.513 8.58414V17.5151V25.0674H137.183H135.882H135.526C135.219 25.0674 134.971 24.8187 134.971 24.5118V22.6612L134.967 22.6659C133.652 24.2656 131.796 25.0661 129.4 25.0674C127.92 25.0951 126.461 24.7089 125.188 23.9521ZM134.428 19.3222C134.006 20.0897 133.383 20.7278 132.627 21.168C132.626 21.1684 132.625 21.1679 132.625 21.167C132.625 21.1661 132.624 21.1656 132.623 21.166C131.836 21.6121 130.945 21.8391 130.04 21.823C128.542 21.8244 127.32 21.3367 126.375 20.3599C125.43 19.3832 124.957 18.1241 124.957 16.5828C124.957 15.0242 125.43 13.7413 126.375 12.7341C127.32 11.7269 128.542 11.2232 130.04 11.2232C130.948 11.2091 131.841 11.4435 132.625 11.9011C133.391 12.3635 134.015 13.0288 134.428 13.8235C134.877 14.6773 135.105 15.6301 135.09 16.5947C135.109 17.5458 134.881 18.4855 134.428 19.3222Z" fill="#011C21" style="fill: rgb(1, 28, 33) !important;"/>
<path d="M142.321 23.7833C141.695 23.3966 141.157 22.8821 140.743 22.2734C140.412 21.7873 140.166 21.2498 140.015 20.6839C139.947 20.4331 140.088 20.179 140.327 20.0781L142.606 19.1163C142.96 18.9668 143.354 19.2159 143.44 19.5907C143.611 20.3402 143.973 20.9319 144.526 21.366C145.259 21.9411 146.208 22.232 147.373 22.2387C148.144 22.2696 148.909 22.0939 149.589 21.7297C149.858 21.5895 150.081 21.3763 150.234 21.1146C150.387 20.8529 150.462 20.5535 150.452 20.2507C150.452 19.6146 150.139 19.1507 149.514 18.8591C148.888 18.5676 147.928 18.3025 146.633 18.0639C145.556 17.8737 144.493 17.608 143.453 17.2688C142.627 16.9863 141.89 16.4929 141.314 15.8374C140.717 15.1748 140.419 14.2663 140.419 13.1119C140.41 12.1689 140.723 11.2511 141.306 10.5097C141.94 9.71086 142.766 9.08573 143.707 8.69271C144.747 8.24438 145.87 8.01888 147.003 8.03072C148.912 8.03072 150.498 8.44686 151.762 9.27916C152.36 9.65029 152.873 10.1429 153.268 10.7251C153.577 11.1795 153.808 11.6805 153.954 12.2078C154.025 12.4661 153.874 12.7272 153.623 12.8215L151.401 13.6569C151.052 13.7883 150.678 13.5417 150.584 13.1803C150.423 12.5615 150.108 12.0543 149.637 11.6587C148.99 11.1154 148.112 10.843 147.003 10.8417C146.075 10.8417 145.352 11.0319 144.832 11.4122C144.585 11.5742 144.382 11.7959 144.243 12.0569C144.104 12.3178 144.033 12.6096 144.037 12.9052C144.032 13.1062 144.073 13.3057 144.159 13.4876C144.245 13.6696 144.372 13.8289 144.53 13.9528C144.895 14.2387 145.315 14.4483 145.763 14.5691C146.264 14.7056 146.978 14.8666 147.906 15.0522C149.007 15.2623 150.092 15.5452 151.156 15.8991C151.992 16.1875 152.744 16.6794 153.343 17.3304C153.947 17.993 154.25 18.8969 154.251 20.042C154.251 21.6641 153.614 22.906 152.341 23.7674C151.067 24.6289 149.414 25.0602 147.383 25.0616C145.323 25.0616 143.636 24.6355 142.321 23.7833Z" fill="#011C21" style="fill: rgb(1, 28, 33) !important;"/>
<path d="M68.3033 20.9503C67.5524 19.6181 67.1696 18.1004 67.1956 16.5609C67.194 16.4636 67.194 16.3662 67.1956 16.269V8.67958C67.1956 8.37275 67.4443 8.12402 67.7511 8.12402H70.2222C70.5291 8.12402 70.7778 8.37275 70.7778 8.67958V16.5609C70.7778 18.142 71.2363 19.4097 72.1538 20.3639C73.0717 21.318 74.2365 21.7958 75.6491 21.7972C77.0667 21.7972 78.2264 21.3194 79.1288 20.3639C80.0373 19.4097 80.4912 18.142 80.4912 16.5609V8.67958C80.4912 8.37275 80.74 8.12402 81.0468 8.12402H83.5354C83.8422 8.12402 84.0909 8.37275 84.0909 8.67958V16.2771C84.0925 16.3703 84.0925 16.4636 84.0909 16.5569C84.093 16.6797 84.0925 16.8023 84.0894 16.9246V22.8706C84.0645 24.3069 83.684 25.7148 82.982 26.9605C82.2548 28.2328 81.2033 29.2763 79.941 29.9783C78.7814 30.6055 77.5073 30.9712 76.2038 31.0536C75.8973 31.073 75.6479 30.8224 75.6479 30.5153V28.3669C75.6479 28.0601 75.8973 27.8146 76.2028 27.7857C77.3711 27.675 78.3459 27.2058 79.1272 26.378C79.8128 25.6583 80.2396 24.7601 80.4079 23.6836C80.2562 23.7823 80.1011 23.8759 79.9426 23.964C78.6147 24.6821 77.1373 25.0573 75.6374 25.0573C74.1382 25.0573 72.6614 24.6825 71.3344 23.965C71.3336 23.9645 71.3326 23.9651 71.3326 23.966C71.3326 23.9669 71.3317 23.9675 71.3309 23.967C71.17 23.8767 71.0126 23.7809 70.8589 23.6797C70.493 23.439 70.1478 23.1682 69.8266 22.8706C69.2291 22.3167 68.7145 21.6699 68.3033 20.9503Z" fill="#011C21" style="fill: rgb(1, 28, 33) !important;"/>
<defs style="fill: none !important;">
<clipPath id="clip0_4921_13194" style="fill: none !important;">
<rect width="34.2229" height="32" fill="#000000" transform="translate(-0.000488281 0.5)" style="fill: #000000 !important;"/>
</clipPath>
</defs>
</svg>