<?xml version="1.0" encoding="UTF-8" standalone="no"?>
<!DOCTYPE svg PUBLIC "-//W3C//DTD SVG 1.1//EN" "http://www.w3.org/Graphics/SVG/1.1/DTD/svg11.dtd">
<svg xmlns="http://www.w3.org/2000/svg" version="1.1" viewBox="0.00 0.00 400.00 400.00">
<g stroke-width="2.00" fill="none" stroke-linecap="butt">
<path stroke="#a1abd2" vector-effect="non-scaling-stroke" d="
  M 199.45 94.48
  Q 188.55 65.30 173.44 24.73
  C 172.57 22.39 172.68 21.14 170.11 21.15
  Q 163.66 21.17 153.47 21.17
  A 0.58 0.58 0.0 0 0 152.93 21.96
  L 189.64 116.31
  A 1.37 1.34 -10.4 0 0 190.90 117.16
  L 209.03 117.15
  A 1.45 1.44 10.8 0 0 210.39 116.23
  L 247.04 22.04
  A 0.64 0.64 0.0 0 0 246.44 21.17
  L 228.51 21.17
  A 1.55 1.54 -79.8 0 0 227.06 22.18
  L 199.98 94.48
  A 0.28 0.28 0.0 0 1 199.45 94.48"
/>
<path stroke="#f7ac99" vector-effect="non-scaling-stroke" d="
  M 123.10 126.35
  Q 94.77 113.43 55.41 95.43
  C 53.14 94.39 52.34 93.43 50.53 95.25
  Q 45.98 99.83 38.78 107.03
  A 0.58 0.58 0.0 0 0 38.95 107.97
  L 131.59 148.72
  A 1.36 1.34 -55.4 0 0 133.09 148.43
  L 145.90 135.61
  A 1.45 1.44 -34.2 0 0 146.21 134.00
  L 105.54 41.51
  A 0.64 0.64 0.0 0 0 104.50 41.32
  L 91.83 53.99
  A 1.55 1.54 55.2 0 0 91.52 55.73
  L 123.47 125.98
  A 0.28 0.28 0.0 0 1 123.10 126.35"
/>
<path stroke="#f7ac99" vector-effect="non-scaling-stroke" d="
  M 275.43 125.50
  Q 288.35 97.14 306.35 57.74
  C 307.39 55.47 308.35 54.66 306.53 52.85
  Q 301.94 48.30 294.73 41.10
  A 0.58 0.58 0.0 0 0 293.79 41.27
  L 253.04 134.00
  A 1.37 1.34 34.6 0 0 253.33 135.50
  L 266.17 148.32
  A 1.45 1.44 55.8 0 0 267.78 148.63
  L 360.33 107.89
  A 0.64 0.64 0.0 0 0 360.52 106.85
  L 347.84 94.17
  A 1.55 1.55 0.0 0 0 346.09 93.86
  L 275.80 125.87
  A 0.28 0.28 0.0 0 1 275.43 125.50"
/>
<path stroke="#a1abd2" vector-effect="non-scaling-stroke" d="
  M 92.23 202.81
  Q 63.00 213.72 22.37 228.84
  C 20.02 229.72 18.77 229.60 18.78 232.17
  Q 18.80 238.64 18.80 248.84
  A 0.58 0.58 0.0 0 0 19.58 249.39
  L 114.09 212.65
  A 1.37 1.34 79.6 0 0 114.95 211.38
  L 114.94 193.22
  A 1.45 1.45 0.0 0 0 114.02 191.86
  L 19.70 155.13
  A 0.64 0.64 0.0 0 0 18.82 155.73
  L 18.82 173.68
  A 1.55 1.55 0.0 0 0 19.83 175.14
  L 92.23 202.29
  A 0.28 0.28 0.0 0 1 92.23 202.81"
/>
<path stroke="#a1abd2" vector-effect="non-scaling-stroke" d="
  M 307.78 201.69
  Q 336.98 190.76 377.58 175.62
  C 379.92 174.75 381.17 174.86 381.16 172.29
  Q 381.13 165.83 381.13 155.63
  A 0.58 0.58 0.0 0 0 380.34 155.09
  L 285.93 191.87
  A 1.37 1.34 79.5 0 0 285.07 193.14
  L 285.09 211.28
  A 1.45 1.44 -79.2 0 0 286.01 212.64
  L 380.30 249.28
  A 0.64 0.64 0.0 0 0 381.17 248.68
  L 381.16 230.74
  A 1.55 1.55 0.0 0 0 380.14 229.29
  L 307.78 202.21
  A 0.28 0.28 0.0 0 1 307.78 201.69"
/>
<path stroke="#f7ac99" vector-effect="non-scaling-stroke" d="
  M 124.64 277.86
  Q 111.74 306.16 93.77 345.49
  C 92.73 347.75 91.77 348.55 93.59 350.36
  Q 98.17 354.91 105.36 362.10
  A 0.58 0.58 0.0 0 0 106.30 361.93
  L 146.99 269.37
  A 1.36 1.34 34.6 0 0 146.70 267.87
  L 133.89 255.08
  A 1.45 1.44 55.8 0 0 132.28 254.77
  L 39.89 295.42
  A 0.64 0.64 0.0 0 0 39.70 296.46
  L 52.36 309.11
  A 1.55 1.54 -34.8 0 0 54.10 309.42
  L 124.27 277.49
  A 0.28 0.28 0.0 0 1 124.64 277.86"
/>
<path stroke="#f7ac99" vector-effect="non-scaling-stroke" d="
  M 276.20 277.86
  Q 304.54 290.78 343.92 308.78
  C 346.19 309.82 346.99 310.78 348.80 308.96
  Q 353.35 304.37 360.55 297.17
  A 0.58 0.58 0.0 0 0 360.38 296.23
  L 267.70 255.48
  A 1.37 1.34 -55.4 0 0 266.20 255.77
  L 253.39 268.60
  A 1.45 1.44 -34.2 0 0 253.08 270.21
  L 293.78 362.73
  A 0.64 0.64 0.0 0 0 294.82 362.92
  L 307.49 350.24
  A 1.55 1.54 55.2 0 0 307.80 348.50
  L 275.83 278.23
  A 0.28 0.28 0.0 0 1 276.20 277.86"
/>
<path stroke="#a1abd2" vector-effect="non-scaling-stroke" d="
  M 200.60 308.89
  Q 211.49 338.11 226.60 378.74
  C 227.47 381.08 227.35 382.33 229.93 382.32
  Q 236.39 382.30 246.59 382.31
  A 0.58 0.58 0.0 0 0 247.13 381.52
  L 210.44 287.04
  A 1.37 1.34 -10.4 0 0 209.17 286.18
  L 191.02 286.18
  A 1.45 1.44 10.8 0 0 189.66 287.10
  L 152.91 381.38
  A 0.64 0.64 0.0 0 0 153.51 382.25
  L 171.46 382.26
  A 1.55 1.55 0.0 0 0 172.91 381.25
  L 200.07 308.89
  A 0.28 0.28 0.0 0 1 200.60 308.89"
/>
</g>
<path fill="#ffffff" d="
  M 400.00 0.00
  L 400.00 400.00
  L 0.00 400.00
  L 0.00 0.00
  L 400.00 0.00
  Z
  M 199.45 94.48
  Q 188.55 65.30 173.44 24.73
  C 172.57 22.39 172.68 21.14 170.11 21.15
  Q 163.66 21.17 153.47 21.17
  A 0.58 0.58 0.0 0 0 152.93 21.96
  L 189.64 116.31
  A 1.37 1.34 -10.4 0 0 190.90 117.16
  L 209.03 117.15
  A 1.45 1.44 10.8 0 0 210.39 116.23
  L 247.04 22.04
  A 0.64 0.64 0.0 0 0 246.44 21.17
  L 228.51 21.17
  A 1.55 1.54 -79.8 0 0 227.06 22.18
  L 199.98 94.48
  A 0.28 0.28 0.0 0 1 199.45 94.48
  Z
  M 123.10 126.35
  Q 94.77 113.43 55.41 95.43
  C 53.14 94.39 52.34 93.43 50.53 95.25
  Q 45.98 99.83 38.78 107.03
  A 0.58 0.58 0.0 0 0 38.95 107.97
  L 131.59 148.72
  A 1.36 1.34 -55.4 0 0 133.09 148.43
  L 145.90 135.61
  A 1.45 1.44 -34.2 0 0 146.21 134.00
  L 105.54 41.51
  A 0.64 0.64 0.0 0 0 104.50 41.32
  L 91.83 53.99
  A 1.55 1.54 55.2 0 0 91.52 55.73
  L 123.47 125.98
  A 0.28 0.28 0.0 0 1 123.10 126.35
  Z
  M 275.43 125.50
  Q 288.35 97.14 306.35 57.74
  C 307.39 55.47 308.35 54.66 306.53 52.85
  Q 301.94 48.30 294.73 41.10
  A 0.58 0.58 0.0 0 0 293.79 41.27
  L 253.04 134.00
  A 1.37 1.34 34.6 0 0 253.33 135.50
  L 266.17 148.32
  A 1.45 1.44 55.8 0 0 267.78 148.63
  L 360.33 107.89
  A 0.64 0.64 0.0 0 0 360.52 106.85
  L 347.84 94.17
  A 1.55 1.55 0.0 0 0 346.09 93.86
  L 275.80 125.87
  A 0.28 0.28 0.0 0 1 275.43 125.50
  Z
  M 92.23 202.81
  Q 63.00 213.72 22.37 228.84
  C 20.02 229.72 18.77 229.60 18.78 232.17
  Q 18.80 238.64 18.80 248.84
  A 0.58 0.58 0.0 0 0 19.58 249.39
  L 114.09 212.65
  A 1.37 1.34 79.6 0 0 114.95 211.38
  L 114.94 193.22
  A 1.45 1.45 0.0 0 0 114.02 191.86
  L 19.70 155.13
  A 0.64 0.64 0.0 0 0 18.82 155.73
  L 18.82 173.68
  A 1.55 1.55 0.0 0 0 19.83 175.14
  L 92.23 202.29
  A 0.28 0.28 0.0 0 1 92.23 202.81
  Z
  M 307.78 201.69
  Q 336.98 190.76 377.58 175.62
  C 379.92 174.75 381.17 174.86 381.16 172.29
  Q 381.13 165.83 381.13 155.63
  A 0.58 0.58 0.0 0 0 380.34 155.09
  L 285.93 191.87
  A 1.37 1.34 79.5 0 0 285.07 193.14
  L 285.09 211.28
  A 1.45 1.44 -79.2 0 0 286.01 212.64
  L 380.30 249.28
  A 0.64 0.64 0.0 0 0 381.17 248.68
  L 381.16 230.74
  A 1.55 1.55 0.0 0 0 380.14 229.29
  L 307.78 202.21
  A 0.28 0.28 0.0 0 1 307.78 201.69
  Z
  M 124.64 277.86
  Q 111.74 306.16 93.77 345.49
  C 92.73 347.75 91.77 348.55 93.59 350.36
  Q 98.17 354.91 105.36 362.10
  A 0.58 0.58 0.0 0 0 106.30 361.93
  L 146.99 269.37
  A 1.36 1.34 34.6 0 0 146.70 267.87
  L 133.89 255.08
  A 1.45 1.44 55.8 0 0 132.28 254.77
  L 39.89 295.42
  A 0.64 0.64 0.0 0 0 39.70 296.46
  L 52.36 309.11
  A 1.55 1.54 -34.8 0 0 54.10 309.42
  L 124.27 277.49
  A 0.28 0.28 0.0 0 1 124.64 277.86
  Z
  M 276.20 277.86
  Q 304.54 290.78 343.92 308.78
  C 346.19 309.82 346.99 310.78 348.80 308.96
  Q 353.35 304.37 360.55 297.17
  A 0.58 0.58 0.0 0 0 360.38 296.23
  L 267.70 255.48
  A 1.37 1.34 -55.4 0 0 266.20 255.77
  L 253.39 268.60
  A 1.45 1.44 -34.2 0 0 253.08 270.21
  L 293.78 362.73
  A 0.64 0.64 0.0 0 0 294.82 362.92
  L 307.49 350.24
  A 1.55 1.54 55.2 0 0 307.80 348.50
  L 275.83 278.23
  A 0.28 0.28 0.0 0 1 276.20 277.86
  Z
  M 200.60 308.89
  Q 211.49 338.11 226.60 378.74
  C 227.47 381.08 227.35 382.33 229.93 382.32
  Q 236.39 382.30 246.59 382.31
  A 0.58 0.58 0.0 0 0 247.13 381.52
  L 210.44 287.04
  A 1.37 1.34 -10.4 0 0 209.17 286.18
  L 191.02 286.18
  A 1.45 1.44 10.8 0 0 189.66 287.10
  L 152.91 381.38
  A 0.64 0.64 0.0 0 0 153.51 382.25
  L 171.46 382.26
  A 1.55 1.55 0.0 0 0 172.91 381.25
  L 200.07 308.89
  A 0.28 0.28 0.0 0 1 200.60 308.89
  Z"
/>
<path fill="#4356a4" d="
  M 199.45 94.48
  A 0.28 0.28 0.0 0 0 199.98 94.48
  L 227.06 22.18
  A 1.55 1.54 -79.8 0 1 228.51 21.17
  L 246.44 21.17
  A 0.64 0.64 0.0 0 1 247.04 22.04
  L 210.39 116.23
  A 1.45 1.44 10.8 0 1 209.03 117.15
  L 190.90 117.16
  A 1.37 1.34 -10.4 0 1 189.64 116.31
  L 152.93 21.96
  A 0.58 0.58 0.0 0 1 153.47 21.17
  Q 163.66 21.17 170.11 21.15
  C 172.68 21.14 172.57 22.39 173.44 24.73
  Q 188.55 65.30 199.45 94.48
  Z"
/>
<path fill="#ee5933" d="
  M 123.10 126.35
  A 0.28 0.28 0.0 0 0 123.47 125.98
  L 91.52 55.73
  A 1.55 1.54 55.2 0 1 91.83 53.99
  L 104.50 41.32
  A 0.64 0.64 0.0 0 1 105.54 41.51
  L 146.21 134.00
  A 1.45 1.44 -34.2 0 1 145.90 135.61
  L 133.09 148.43
  A 1.36 1.34 -55.4 0 1 131.59 148.72
  L 38.95 107.97
  A 0.58 0.58 0.0 0 1 38.78 107.03
  Q 45.98 99.83 50.53 95.25
  C 52.34 93.43 53.14 94.39 55.41 95.43
  Q 94.77 113.43 123.10 126.35
  Z"
/>
<path fill="#ee5933" d="
  M 275.43 125.50
  A 0.28 0.28 0.0 0 0 275.80 125.87
  L 346.09 93.86
  A 1.55 1.55 0.0 0 1 347.84 94.17
  L 360.52 106.85
  A 0.64 0.64 0.0 0 1 360.33 107.89
  L 267.78 148.63
  A 1.45 1.44 55.8 0 1 266.17 148.32
  L 253.33 135.50
  A 1.37 1.34 34.6 0 1 253.04 134.00
  L 293.79 41.27
  A 0.58 0.58 0.0 0 1 294.73 41.10
  Q 301.94 48.30 306.53 52.85
  C 308.35 54.66 307.39 55.47 306.35 57.74
  Q 288.35 97.14 275.43 125.50
  Z"
/>
<path fill="#4356a4" d="
  M 92.23 202.81
  A 0.28 0.28 0.0 0 0 92.23 202.29
  L 19.83 175.14
  A 1.55 1.55 0.0 0 1 18.82 173.68
  L 18.82 155.73
  A 0.64 0.64 0.0 0 1 19.70 155.13
  L 114.02 191.86
  A 1.45 1.45 0.0 0 1 114.94 193.22
  L 114.95 211.38
  A 1.37 1.34 79.6 0 1 114.09 212.65
  L 19.58 249.39
  A 0.58 0.58 0.0 0 1 18.80 248.84
  Q 18.80 238.64 18.78 232.17
  C 18.77 229.60 20.02 229.72 22.37 228.84
  Q 63.00 213.72 92.23 202.81
  Z"
/>
<path fill="#4356a4" d="
  M 307.78 201.69
  A 0.28 0.28 0.0 0 0 307.78 202.21
  L 380.14 229.29
  A 1.55 1.55 0.0 0 1 381.16 230.74
  L 381.17 248.68
  A 0.64 0.64 0.0 0 1 380.30 249.28
  L 286.01 212.64
  A 1.45 1.44 -79.2 0 1 285.09 211.28
  L 285.07 193.14
  A 1.37 1.34 79.5 0 1 285.93 191.87
  L 380.34 155.09
  A 0.58 0.58 0.0 0 1 381.13 155.63
  Q 381.13 165.83 381.16 172.29
  C 381.17 174.86 379.92 174.75 377.58 175.62
  Q 336.98 190.76 307.78 201.69
  Z"
/>
<path fill="#ee5933" d="
  M 124.64 277.86
  A 0.28 0.28 0.0 0 0 124.27 277.49
  L 54.10 309.42
  A 1.55 1.54 -34.8 0 1 52.36 309.11
  L 39.70 296.46
  A 0.64 0.64 0.0 0 1 39.89 295.42
  L 132.28 254.77
  A 1.45 1.44 55.8 0 1 133.89 255.08
  L 146.70 267.87
  A 1.36 1.34 34.6 0 1 146.99 269.37
  L 106.30 361.93
  A 0.58 0.58 0.0 0 1 105.36 362.10
  Q 98.17 354.91 93.59 350.36
  C 91.77 348.55 92.73 347.75 93.77 345.49
  Q 111.74 306.16 124.64 277.86
  Z"
/>
<path fill="#ee5933" d="
  M 276.20 277.86
  A 0.28 0.28 0.0 0 0 275.83 278.23
  L 307.80 348.50
  A 1.55 1.54 55.2 0 1 307.49 350.24
  L 294.82 362.92
  A 0.64 0.64 0.0 0 1 293.78 362.73
  L 253.08 270.21
  A 1.45 1.44 -34.2 0 1 253.39 268.60
  L 266.20 255.77
  A 1.37 1.34 -55.4 0 1 267.70 255.48
  L 360.38 296.23
  A 0.58 0.58 0.0 0 1 360.55 297.17
  Q 353.35 304.37 348.80 308.96
  C 346.99 310.78 346.19 309.82 343.92 308.78
  Q 304.54 290.78 276.20 277.86
  Z"
/>
<path fill="#4356a4" d="
  M 200.60 308.89
  A 0.28 0.28 0.0 0 0 200.07 308.89
  L 172.91 381.25
  A 1.55 1.55 0.0 0 1 171.46 382.26
  L 153.51 382.25
  A 0.64 0.64 0.0 0 1 152.91 381.38
  L 189.66 287.10
  A 1.45 1.44 10.8 0 1 191.02 286.18
  L 209.17 286.18
  A 1.37 1.34 -10.4 0 1 210.44 287.04
  L 247.13 381.52
  A 0.58 0.58 0.0 0 1 246.59 382.31
  Q 236.39 382.30 229.93 382.32
  C 227.35 382.33 227.47 381.08 226.60 378.74
  Q 211.49 338.11 200.60 308.89
  Z"
/>
</svg>
