<?xml version="1.0" encoding="UTF-8" standalone="no"?>
<!DOCTYPE svg PUBLIC "-//W3C//DTD SVG 1.1//EN" "http://www.w3.org/Graphics/SVG/1.1/DTD/svg11.dtd">
<svg xmlns="http://www.w3.org/2000/svg" version="1.1" viewBox="0.00 0.00 500.00 137.00">
<path fill="#000000" d="
  M 298.34 106.59
  L 281.85 106.59
  A 0.33 0.33 0.0 0 1 281.52 106.26
  L 281.52 20.19
  A 0.33 0.33 0.0 0 1 281.85 19.86
  L 298.35 19.86
  A 0.33 0.33 0.0 0 1 298.68 20.19
  L 298.68 70.21
  A 0.33 0.33 0.0 0 0 299.28 70.39
  L 317.79 42.89
  A 0.33 0.33 0.0 0 1 318.07 42.74
  L 337.08 42.74
  A 0.33 0.33 0.0 0 1 337.35 43.26
  L 316.24 73.10
  A 0.33 0.33 0.0 0 0 316.24 73.48
  L 339.63 106.07
  A 0.33 0.33 0.0 0 1 339.36 106.59
  L 319.23 106.59
  A 0.33 0.33 0.0 0 1 318.95 106.44
  L 299.27 76.89
  A 0.33 0.33 0.0 0 0 298.67 77.07
  L 298.67 106.26
  A 0.33 0.33 0.0 0 1 298.34 106.59
  Z"
/>
<path fill="#000000" d="
  M 117.68 43.43
  L 117.68 56.17
  A 0.64 0.64 0.0 0 1 117.04 56.81
  L 100.75 56.81
  A 0.37 0.37 0.0 0 0 100.38 57.18
  Q 100.35 59.30 100.39 82.18
  C 100.41 92.15 110.30 91.34 117.31 91.15
  A 0.80 0.80 0.0 0 1 118.13 91.95
  L 118.13 105.87
  A 0.65 0.65 0.0 0 1 117.49 106.52
  Q 103.75 106.81 100.39 106.12
  Q 88.94 103.77 84.78 93.79
  Q 82.78 89.00 83.04 78.06
  Q 83.11 75.25 83.13 57.24
  A 0.47 0.47 0.0 0 0 82.66 56.77
  L 72.38 56.77
  A 0.77 0.76 90.0 0 1 71.62 56.00
  L 71.62 53.52
  A 1.33 1.32 66.5 0 1 71.97 52.62
  L 96.33 26.77
  A 1.41 1.38 21.1 0 1 97.35 26.33
  L 99.39 26.33
  A 0.74 0.73 0.0 0 1 100.13 27.06
  L 100.13 42.17
  A 0.58 0.57 90.0 0 0 100.70 42.75
  L 116.99 42.75
  A 0.69 0.68 -0.0 0 1 117.68 43.43
  Z"
/>
<path fill="#000000" d="
  M 31.14 86.40
  C 31.59 95.65 48.10 96.82 50.38 89.05
  C 51.80 84.19 45.94 82.22 41.95 81.62
  C 29.69 79.79 15.61 77.08 15.32 61.97
  C 14.98 44.71 33.42 39.26 47.16 41.61
  C 57.92 43.45 66.12 50.72 66.46 61.87
  A 0.50 0.50 0.0 0 1 65.96 62.39
  L 50.54 62.39
  A 0.60 0.60 0.0 0 1 49.94 61.83
  C 49.39 54.49 40.10 53.66 35.11 55.99
  C 31.87 57.50 30.37 62.27 34.09 64.49
  Q 36.56 65.95 38.28 66.25
  Q 47.52 67.86 53.70 69.54
  Q 64.74 72.53 67.03 81.83
  Q 68.77 88.89 65.84 95.40
  C 60.96 106.22 48.24 109.24 36.90 108.20
  C 24.65 107.08 14.42 99.19 14.29 86.33
  A 0.72 0.72 0.0 0 1 15.01 85.60
  L 30.31 85.60
  A 0.84 0.83 88.5 0 1 31.14 86.40
  Z"
/>
<path fill="#000000" d="
  M 178.47 48.45
  A 0.37 0.37 0.0 0 0 179.06 48.26
  L 180.46 43.35
  A 0.78 0.78 0.0 0 1 181.21 42.78
  L 192.97 42.78
  A 0.52 0.52 0.0 0 1 193.49 43.30
  L 193.49 105.89
  A 0.70 0.70 0.0 0 1 192.79 106.59
  L 180.58 106.59
  A 0.74 0.74 0.0 0 1 179.86 106.03
  L 178.72 101.46
  A 0.53 0.53 0.0 0 0 177.84 101.20
  C 167.75 110.75 150.41 110.20 139.42 103.12
  C 122.80 92.41 119.69 68.41 131.78 53.22
  C 139.44 43.61 151.96 39.51 163.97 41.62
  Q 171.51 42.94 178.47 48.45
  Z
  M 176.78 74.68
  A 17.49 17.49 0.0 0 0 159.29 57.19
  A 17.49 17.49 0.0 0 0 141.80 74.68
  A 17.49 17.49 0.0 0 0 159.29 92.17
  A 17.49 17.49 0.0 0 0 176.78 74.68
  Z"
/>
<path fill="#000000" d="
  M 222.22 74.89
  C 222.44 93.27 246.05 99.01 253.73 82.11
  A 0.96 0.94 11.8 0 1 254.60 81.56
  L 270.63 81.56
  A 0.49 0.49 0.0 0 1 271.11 82.16
  C 267.04 100.09 251.59 110.66 233.61 107.98
  Q 215.36 105.26 207.67 88.79
  Q 204.77 82.58 204.68 75.09
  Q 204.59 67.61 207.35 61.33
  Q 214.65 44.68 232.83 41.53
  C 250.74 38.43 266.43 48.63 270.93 66.46
  A 0.49 0.49 0.0 0 1 270.46 67.07
  L 254.43 67.45
  A 0.96 0.94 -13.2 0 1 253.55 66.92
  C 245.47 50.21 222.00 56.51 222.22 74.89
  Z"
/>
<path fill="#0038cf" d="
  M 344.73 107.91
  L 360.30 107.91
  A 1.00 1.00 0.0 0 1 361.19 108.45
  Q 365.14 116.00 374.77 116.59
  C 384.92 117.21 392.86 110.66 392.06 100.06
  A 0.31 0.30 72.1 0 0 391.60 99.82
  C 378.98 107.53 363.31 106.66 352.33 96.59
  C 340.31 85.56 338.61 65.45 349.53 52.53
  Q 360.41 39.65 377.95 41.35
  Q 386.33 42.16 394.72 48.83
  A 0.41 0.41 0.0 0 0 395.35 48.67
  L 397.69 43.24
  A 0.84 0.83 12.1 0 1 398.47 42.74
  L 408.38 42.93
  A 0.73 0.73 0.0 0 1 409.10 43.69
  Q 409.07 44.54 409.07 95.50
  C 409.07 100.74 408.85 106.70 407.01 111.87
  C 401.08 128.54 384.06 133.55 367.79 130.48
  C 355.94 128.25 346.77 120.55 344.18 108.59
  A 0.56 0.56 0.0 0 1 344.73 107.91
  Z
  M 375.7478 56.5412
  A 16.55 16.38 -90.7 0 0 359.5712 73.2901
  A 16.55 16.38 -90.7 0 0 376.1522 89.6388
  A 16.55 16.38 -90.7 0 0 392.3288 72.8899
  A 16.55 16.38 -90.7 0 0 375.7478 56.5412
  Z"
/>
<path fill="#0038cf" d="
  M 489.2895 74.9113
  A 34.62 33.86 0.3 0 1 454.4927 108.5895
  A 34.62 33.86 0.3 0 1 420.0505 74.5487
  A 34.62 33.86 0.3 0 1 454.8473 40.8705
  A 34.62 33.86 0.3 0 1 489.2895 74.9113
  Z
  M 454.8342 57.1010
  A 17.59 17.14 -89.4 0 0 437.5109 74.5105
  A 17.59 17.14 -89.4 0 0 454.4658 92.2790
  A 17.59 17.14 -89.4 0 0 471.7891 74.8695
  A 17.59 17.14 -89.4 0 0 454.8342 57.1010
  Z"
/>
</svg>
