<?xml version="1.0" encoding="UTF-8" standalone="no"?>
<!DOCTYPE svg PUBLIC "-//W3C//DTD SVG 1.1//EN" "http://www.w3.org/Graphics/SVG/1.1/DTD/svg11.dtd">
<svg xmlns="http://www.w3.org/2000/svg" version="1.1" viewBox="0.00 0.00 512.00 512.00">
<g stroke-width="2.00" fill="none" stroke-linecap="butt">
<path stroke="#fe622d" vector-effect="non-scaling-stroke" d="
  M 134.78 0.84
  Q 137.48 30.08 137.83 59.85"
/>
<path stroke="#fd452d" vector-effect="non-scaling-stroke" d="
  M 137.83 59.85
  Q 127.07 77.51 123.40 99.43
  Q 121.37 111.58 121.77 121.33"
/>
<path stroke="#fd522d" vector-effect="non-scaling-stroke" d="
  M 86.78 209.53
  Q 89.66 188.33 89.71 161.23
  Q 89.81 105.50 89.93 49.77
  Q 89.98 27.11 89.21 4.63"
/>
<path stroke="#fd3f2d" vector-effect="non-scaling-stroke" d="
  M 207.45 28.97
  Q 202.53 63.96 202.94 101.18
  Q 203.31 135.38 204.58 162.70"
/>
<path stroke="#fe4f2d" vector-effect="non-scaling-stroke" d="
  M 202.63 26.74
  Q 191.00 24.71 181.99 26.53
  C 163.26 30.31 147.66 44.04 137.83 59.85"
/>
<path stroke="#fd3f2d" vector-effect="non-scaling-stroke" d="
  M 36.46 209.57
  C 35.83 171.64 36.13 132.50 36.27 80.97
  Q 36.32 61.67 33.42 38.50"
/>
<path stroke="#fd522d" vector-effect="non-scaling-stroke" d="
  M 281.77 66.16
  Q 279.32 98.83 279.75 138.34
  Q 280.16 175.82 281.70 201.27"
/>
<path stroke="#fe622d" vector-effect="non-scaling-stroke" d="
  M 351.99 101.23
  Q 355.49 118.04 355.44 133.98
  Q 355.19 202.98 355.30 238.06"
/>
<path stroke="#fe732d" vector-effect="non-scaling-stroke" d="
  M 410.30 130.39
  C 404.07 145.93 404.27 161.94 404.37 179.18
  Q 404.79 256.24 404.78 333.30
  Q 404.78 348.38 406.05 379.24"
/>
<path stroke="#fe622d" vector-effect="non-scaling-stroke" d="
  M 333.24 415.62
  C 331.59 387.52 331.65 365.30 331.28 342.32
  C 331.08 329.74 330.25 320.93 329.03 304.50
  Q 328.34 295.31 330.69 281.60"
/>
<path stroke="#fd522d" vector-effect="non-scaling-stroke" d="
  M 278.81 442.82
  Q 283.68 427.97 283.55 412.54
  Q 283.11 358.75 284.60 304.64"
/>
<path stroke="#fd3f2d" vector-effect="non-scaling-stroke" d="
  M 231.32 466.35
  C 229.21 440.29 229.37 418.23 229.30 394.06
  C 229.24 369.02 229.31 354.46 224.24 334.62"
/>
<path stroke="#fe4f2d" vector-effect="non-scaling-stroke" d="
  M 203.45 480.47
  Q 200.51 479.98 197.25 481.22
  A 3.12 3.01 30.8 0 1 196.44 481.41
  Q 183.23 482.59 172.13 477.81
  C 151.62 468.97 137.11 450.82 129.24 430.11"
/>
<path stroke="#fd452d" vector-effect="non-scaling-stroke" d="
  M 121.59 385.95
  Q 121.69 388.98 121.83 392.47
  Q 122.62 412.01 129.24 430.11"
/>
<path stroke="#fe622d" vector-effect="non-scaling-stroke" d="
  M 129.24 430.11
  Q 126.70 468.47 128.15 507.10"
/>
<path stroke="#fd522d" vector-effect="non-scaling-stroke" d="
  M 103.98 297.72
  Q 103.12 332.98 103.32 344.05
  Q 104.23 392.97 104.23 393.61
  Q 104.19 399.00 104.18 404.39
  Q 104.18 409.36 102.67 451.99
  Q 102.20 465.39 103.23 505.85"
/>
<path stroke="#fd3f2d" vector-effect="non-scaling-stroke" d="
  M 57.03 297.71
  Q 58.85 318.75 58.86 334.20
  Q 58.91 392.13 58.91 450.06
  Q 58.91 465.76 57.28 488.73"
/>
</g>
<path fill="#fd582d" d="
  M 134.78 0.84
  Q 137.48 30.08 137.83 59.85
  Q 127.07 77.51 123.40 99.43
  Q 121.37 111.58 121.77 121.33
  L 121.80 208.80
  A 0.68 0.68 0.0 0 1 121.12 209.48
  L 86.78 209.53
  Q 89.66 188.33 89.71 161.23
  Q 89.81 105.50 89.93 49.77
  Q 89.98 27.11 89.21 4.63
  Q 111.59 -1.68 134.78 0.84
  Z"
/>
<path fill="#fe6c2d" d="
  M 202.63 26.74
  Q 191.00 24.71 181.99 26.53
  C 163.26 30.31 147.66 44.04 137.83 59.85
  Q 137.48 30.08 134.78 0.84
  Q 154.15 3.11 172.02 11.25
  Q 179.58 14.69 202.63 26.74
  Z"
/>
<path fill="#fd4c2d" d="
  M 89.21 4.63
  Q 89.98 27.11 89.93 49.77
  Q 89.81 105.50 89.71 161.23
  Q 89.66 188.33 86.78 209.53
  L 36.46 209.57
  C 35.83 171.64 36.13 132.50 36.27 80.97
  Q 36.32 61.67 33.42 38.50
  Q 56.49 13.82 89.21 4.63
  Z"
/>
<path fill="#fd322d" d="
  M 202.63 26.74
  L 207.45 28.97
  Q 202.53 63.96 202.94 101.18
  Q 203.31 135.38 204.58 162.70
  L 121.77 121.33
  Q 121.37 111.58 123.40 99.43
  Q 127.07 77.51 137.83 59.85
  C 147.66 44.04 163.26 30.31 181.99 26.53
  Q 191.00 24.71 202.63 26.74
  Z"
/>
<path fill="#fd4c2d" d="
  M 207.45 28.97
  L 281.77 66.16
  Q 279.32 98.83 279.75 138.34
  Q 280.16 175.82 281.70 201.27
  L 204.58 162.70
  Q 203.31 135.38 202.94 101.18
  Q 202.53 63.96 207.45 28.97
  Z"
/>
<path fill="#fd322d" d="
  M 33.42 38.50
  Q 36.32 61.67 36.27 80.97
  C 36.13 132.50 35.83 171.64 36.46 209.57
  L 1.14 209.52
  A 0.44 0.44 0.0 0 1 0.70 209.08
  Q 0.67 165.13 0.72 121.00
  Q 0.72 113.37 2.77 101.50
  Q 8.98 65.48 33.42 38.50
  Z"
/>
<path fill="#fd582d" d="
  M 351.99 101.23
  Q 355.49 118.04 355.44 133.98
  Q 355.19 202.98 355.30 238.06
  L 281.70 201.27
  Q 280.16 175.82 279.75 138.34
  Q 279.32 98.83 281.77 66.16
  L 351.99 101.23
  Z"
/>
<path fill="#fe6c2d" d="
  M 410.30 130.39
  C 404.07 145.93 404.27 161.94 404.37 179.18
  Q 404.79 256.24 404.78 333.30
  Q 404.78 348.38 406.05 379.24
  L 333.24 415.62
  C 331.59 387.52 331.65 365.30 331.28 342.32
  C 331.08 329.74 330.25 320.93 329.03 304.50
  Q 328.34 295.31 330.69 281.60
  L 385.56 254.13
  A 0.58 0.57 45.1 0 0 385.56 253.10
  L 355.30 238.06
  Q 355.19 202.98 355.44 133.98
  Q 355.49 118.04 351.99 101.23
  L 410.30 130.39
  Z"
/>
<path fill="#fd792d" d="
  M 410.30 130.39
  Q 421.87 136.14 433.44 141.95
  Q 449.00 149.75 455.91 154.61
  Q 490.64 179.04 502.99 221.00
  C 509.08 241.69 508.97 265.37 502.91 286.29
  C 494.80 314.29 476.90 338.30 452.83 354.68
  Q 446.42 359.05 429.69 367.43
  Q 417.88 373.34 406.05 379.24
  Q 404.78 348.38 404.78 333.30
  Q 404.79 256.24 404.37 179.18
  C 404.27 161.94 404.07 145.93 410.30 130.39
  Z"
/>
<path fill="#fd582d" d="
  M 330.69 281.60
  Q 328.34 295.31 329.03 304.50
  C 330.25 320.93 331.08 329.74 331.28 342.32
  C 331.65 365.30 331.59 387.52 333.24 415.62
  L 278.81 442.82
  Q 283.68 427.97 283.55 412.54
  Q 283.11 358.75 284.60 304.64
  L 330.69 281.60
  Z"
/>
<path fill="#fd322d" d="
  M 57.03 297.71
  Q 58.85 318.75 58.86 334.20
  Q 58.91 392.13 58.91 450.06
  Q 58.91 465.76 57.28 488.73
  C 33.40 473.85 15.84 450.79 7.05 424.20
  Q 3.45 413.34 1.60 400.58
  Q 0.40 392.31 0.40 376.37
  Q 0.42 323.06 0.46 298.08
  A 0.35 0.35 0.0 0 1 0.81 297.73
  L 57.03 297.71
  Z"
/>
<path fill="#fd4c2d" d="
  M 103.98 297.72
  Q 103.12 332.98 103.32 344.05
  Q 104.23 392.97 104.23 393.61
  Q 104.19 399.00 104.18 404.39
  Q 104.18 409.36 102.67 451.99
  Q 102.20 465.39 103.23 505.85
  Q 83.12 502.82 64.52 492.98
  Q 59.74 490.45 57.28 488.73
  Q 58.91 465.76 58.91 450.06
  Q 58.91 392.13 58.86 334.20
  Q 58.85 318.75 57.03 297.71
  L 103.98 297.72
  Z"
/>
<path fill="#fd582d" d="
  M 121.59 385.95
  Q 121.69 388.98 121.83 392.47
  Q 122.62 412.01 129.24 430.11
  Q 126.70 468.47 128.15 507.10
  Q 115.50 507.82 103.23 505.85
  Q 102.20 465.39 102.67 451.99
  Q 104.18 409.36 104.18 404.39
  Q 104.19 399.00 104.23 393.61
  Q 104.23 392.97 103.32 344.05
  Q 103.12 332.98 103.98 297.72
  L 121.10 297.74
  A 0.45 0.45 0.0 0 1 121.55 298.19
  L 121.59 385.95
  Z"
/>
<path fill="#fd4c2d" d="
  M 284.60 304.64
  Q 283.11 358.75 283.55 412.54
  Q 283.68 427.97 278.81 442.82
  L 231.32 466.35
  C 229.21 440.29 229.37 418.23 229.30 394.06
  C 229.24 369.02 229.31 354.46 224.24 334.62
  L 284.60 304.64
  Z"
/>
<path fill="#fd322d" d="
  M 231.32 466.35
  L 203.45 480.47
  Q 200.51 479.98 197.25 481.22
  A 3.12 3.01 30.8 0 1 196.44 481.41
  Q 183.23 482.59 172.13 477.81
  C 151.62 468.97 137.11 450.82 129.24 430.11
  Q 122.62 412.01 121.83 392.47
  Q 121.69 388.98 121.59 385.95
  L 224.24 334.62
  C 229.31 354.46 229.24 369.02 229.30 394.06
  C 229.37 418.23 229.21 440.29 231.32 466.35
  Z"
/>
<path fill="#fe6c2d" d="
  M 129.24 430.11
  C 137.11 450.82 151.62 468.97 172.13 477.81
  Q 183.23 482.59 196.44 481.41
  A 3.12 3.01 30.8 0 0 197.25 481.22
  Q 200.51 479.98 203.45 480.47
  Q 178.13 493.43 170.46 496.96
  Q 151.23 505.80 128.15 507.10
  Q 126.70 468.47 129.24 430.11
  Z"
/>
</svg>
