<?xml version="1.0" encoding="UTF-8" standalone="no"?>
<!DOCTYPE svg PUBLIC "-//W3C//DTD SVG 1.1//EN" "http://www.w3.org/Graphics/SVG/1.1/DTD/svg11.dtd">
<svg xmlns="http://www.w3.org/2000/svg" version="1.1" viewBox="0.00 0.00 400.00 400.00">
<g stroke-width="2.00" fill="none" stroke-linecap="butt">
<path stroke="#94bfff" vector-effect="non-scaling-stroke" d="
  M 313.07 99.33
  A 12.46 12.46 0.0 0 0 300.61 86.87
  L 99.31 86.87
  A 12.46 12.46 0.0 0 0 86.85 99.33
  L 86.85 300.57
  A 12.46 12.46 0.0 0 0 99.31 313.03
  L 300.61 313.03
  A 12.46 12.46 0.0 0 0 313.07 300.57
  L 313.07 99.33"
/>
<path stroke="#94bfff" vector-effect="non-scaling-stroke" d="
  M 174.85 149.74
  A 25.09 25.09 0.0 0 0 149.76 124.65
  A 25.09 25.09 0.0 0 0 124.67 149.74
  A 25.09 25.09 0.0 0 0 149.76 174.83
  A 25.09 25.09 0.0 0 0 174.85 149.74"
/>
<path stroke="#94bfff" vector-effect="non-scaling-stroke" d="
  M 112.05 287.39
  A 0.55 0.55 0.0 0 0 112.60 287.94
  L 287.43 287.94
  A 0.55 0.55 0.0 0 0 287.98 287.39
  L 287.98 217.85
  A 0.55 0.55 0.0 0 0 287.77 217.42
  L 250.68 187.76
  A 0.55 0.55 0.0 0 0 249.95 187.80
  L 187.86 249.88
  A 0.55 0.55 0.0 0 1 187.08 249.88
  L 150.11 212.91
  A 0.55 0.55 0.0 0 0 149.38 212.87
  L 112.26 242.53
  A 0.55 0.55 0.0 0 0 112.05 242.96
  L 112.05 287.39"
/>
</g>
<path fill="#ffffff" d="
  M 400.00 0.00
  L 400.00 400.00
  L 0.00 400.00
  L 0.00 0.00
  L 400.00 0.00
  Z
  M 313.07 99.33
  A 12.46 12.46 0.0 0 0 300.61 86.87
  L 99.31 86.87
  A 12.46 12.46 0.0 0 0 86.85 99.33
  L 86.85 300.57
  A 12.46 12.46 0.0 0 0 99.31 313.03
  L 300.61 313.03
  A 12.46 12.46 0.0 0 0 313.07 300.57
  L 313.07 99.33
  Z"
/>
<path fill="#297eff" d="
  M 313.07 300.57
  A 12.46 12.46 0.0 0 1 300.61 313.03
  L 99.31 313.03
  A 12.46 12.46 0.0 0 1 86.85 300.57
  L 86.85 99.33
  A 12.46 12.46 0.0 0 1 99.31 86.87
  L 300.61 86.87
  A 12.46 12.46 0.0 0 1 313.07 99.33
  L 313.07 300.57
  Z
  M 174.85 149.74
  A 25.09 25.09 0.0 0 0 149.76 124.65
  A 25.09 25.09 0.0 0 0 124.67 149.74
  A 25.09 25.09 0.0 0 0 149.76 174.83
  A 25.09 25.09 0.0 0 0 174.85 149.74
  Z
  M 112.05 287.39
  A 0.55 0.55 0.0 0 0 112.60 287.94
  L 287.43 287.94
  A 0.55 0.55 0.0 0 0 287.98 287.39
  L 287.98 217.85
  A 0.55 0.55 0.0 0 0 287.77 217.42
  L 250.68 187.76
  A 0.55 0.55 0.0 0 0 249.95 187.80
  L 187.86 249.88
  A 0.55 0.55 0.0 0 1 187.08 249.88
  L 150.11 212.91
  A 0.55 0.55 0.0 0 0 149.38 212.87
  L 112.26 242.53
  A 0.55 0.55 0.0 0 0 112.05 242.96
  L 112.05 287.39
  Z"
/>
<circle fill="#ffffff" cx="149.76" cy="149.74" r="25.09"/>
<path fill="#ffffff" d="
  M 112.05 287.39
  L 112.05 242.96
  A 0.55 0.55 0.0 0 1 112.26 242.53
  L 149.38 212.87
  A 0.55 0.55 0.0 0 1 150.11 212.91
  L 187.08 249.88
  A 0.55 0.55 0.0 0 0 187.86 249.88
  L 249.95 187.80
  A 0.55 0.55 0.0 0 1 250.68 187.76
  L 287.77 217.42
  A 0.55 0.55 0.0 0 1 287.98 217.85
  L 287.98 287.39
  A 0.55 0.55 0.0 0 1 287.43 287.94
  L 112.60 287.94
  A 0.55 0.55 0.0 0 1 112.05 287.39
  Z"
/>
</svg>
