<?xml version="1.0" encoding="UTF-8" standalone="no"?>
<!DOCTYPE svg PUBLIC "-//W3C//DTD SVG 1.1//EN" "http://www.w3.org/Graphics/SVG/1.1/DTD/svg11.dtd">
<svg xmlns="http://www.w3.org/2000/svg" version="1.1" viewBox="0.00 0.00 300.00 300.00">
<g stroke-width="2.00" fill="none" stroke-linecap="butt">
<path stroke="#91d4f0" vector-effect="non-scaling-stroke" d="
  M 78.04 82.75
  A 17.73 17.73 0.0 0 0 60.31 65.02
  A 17.73 17.73 0.0 0 0 42.58 82.75
  A 17.73 17.73 0.0 0 0 60.31 100.48
  A 17.73 17.73 0.0 0 0 78.04 82.75"
/>
<path stroke="#91d4f0" vector-effect="non-scaling-stroke" d="
  M 82.31 205.03
  C 87.43 225.58 107.91 227.53 125.48 223.98
  C 139.68 221.12 152.22 211.49 159.79 199.28
  Q 175.41 174.09 173.59 143.60
  C 172.72 129.20 167.76 114.47 152.05 112.21
  C 143.91 111.03 136.71 113.44 129.84 117.67
  A 0.36 0.36 0.0 0 1 129.30 117.29
  L 139.75 68.33
  A 0.33 0.33 0.0 0 0 139.39 67.93
  L 107.11 72.30
  A 0.38 0.37 -86.6 0 0 106.79 72.59
  L 83.33 182.55
  A 3.62 3.51 65.9 0 1 83.03 183.37
  Q 82.29 184.82 81.01 188.21
  Q 78.14 195.76 71.15 200.90
  C 66.99 203.96 57.68 205.70 54.28 200.25
  C 52.75 197.79 53.50 191.83 54.12 188.89
  Q 68.51 120.74 70.17 112.80
  A 0.23 0.23 0.0 0 0 69.94 112.52
  L 38.50 112.52
  A 0.44 0.44 0.0 0 0 38.07 112.86
  Q 30.68 147.65 22.68 185.71
  C 20.01 198.43 19.84 214.12 31.67 221.78
  Q 38.32 226.07 48.65 225.09
  Q 66.43 223.39 78.15 209.39
  Q 78.83 208.58 81.85 204.93
  A 0.27 0.26 -32.1 0 1 82.31 205.03"
/>
<path stroke="#91d4f0" vector-effect="non-scaling-stroke" d="
  M 238.11 67.97
  L 206.42 72.26
  A 0.80 0.80 0.0 0 0 205.74 72.88
  Q 191.83 137.84 181.20 187.99
  Q 180.22 192.62 180.66 199.87
  C 181.50 213.71 190.59 223.60 204.57 224.90
  Q 242.61 228.42 261.10 195.25
  Q 276.55 167.53 271.61 136.03
  Q 270.07 126.20 264.93 119.79
  C 258.45 111.70 246.62 110.18 237.31 113.58
  Q 232.85 115.21 228.77 117.70
  A 0.32 0.32 0.0 0 1 228.29 117.36
  L 238.70 68.61
  A 0.54 0.53 -88.0 0 0 238.11 67.97"
/>
<path stroke="#91d4f0" vector-effect="non-scaling-stroke" d="
  M 126.05 132.49
  Q 117.59 171.53 113.58 190.58
  C 112.64 195.08 114.09 201.25 119.27 202.87
  Q 129.27 206.00 136.00 197.71
  C 147.89 183.07 154.30 157.46 149.92 138.85
  C 148.76 133.90 145.32 127.65 139.78 127.65
  Q 133.12 127.66 127.73 130.34
  A 3.18 3.14 -7.4 0 0 126.05 132.49"
/>
<path stroke="#91d4f0" vector-effect="non-scaling-stroke" d="
  M 225.05 132.49
  Q 216.59 171.53 212.58 190.58
  C 211.64 195.08 213.09 201.25 218.27 202.87
  Q 228.27 206.00 235.00 197.71
  C 246.89 183.07 253.30 157.46 248.92 138.85
  C 247.76 133.90 244.32 127.65 238.78 127.65
  Q 232.12 127.66 226.73 130.34
  A 3.18 3.14 -7.4 0 0 225.05 132.49"
/>
</g>
<path fill="#23a8e0" d="
  M 300.00 0.00
  L 300.00 300.00
  L 0.00 300.00
  L 0.00 0.00
  L 300.00 0.00
  Z
  M 78.04 82.75
  A 17.73 17.73 0.0 0 0 60.31 65.02
  A 17.73 17.73 0.0 0 0 42.58 82.75
  A 17.73 17.73 0.0 0 0 60.31 100.48
  A 17.73 17.73 0.0 0 0 78.04 82.75
  Z
  M 82.31 205.03
  C 87.43 225.58 107.91 227.53 125.48 223.98
  C 139.68 221.12 152.22 211.49 159.79 199.28
  Q 175.41 174.09 173.59 143.60
  C 172.72 129.20 167.76 114.47 152.05 112.21
  C 143.91 111.03 136.71 113.44 129.84 117.67
  A 0.36 0.36 0.0 0 1 129.30 117.29
  L 139.75 68.33
  A 0.33 0.33 0.0 0 0 139.39 67.93
  L 107.11 72.30
  A 0.38 0.37 -86.6 0 0 106.79 72.59
  L 83.33 182.55
  A 3.62 3.51 65.9 0 1 83.03 183.37
  Q 82.29 184.82 81.01 188.21
  Q 78.14 195.76 71.15 200.90
  C 66.99 203.96 57.68 205.70 54.28 200.25
  C 52.75 197.79 53.50 191.83 54.12 188.89
  Q 68.51 120.74 70.17 112.80
  A 0.23 0.23 0.0 0 0 69.94 112.52
  L 38.50 112.52
  A 0.44 0.44 0.0 0 0 38.07 112.86
  Q 30.68 147.65 22.68 185.71
  C 20.01 198.43 19.84 214.12 31.67 221.78
  Q 38.32 226.07 48.65 225.09
  Q 66.43 223.39 78.15 209.39
  Q 78.83 208.58 81.85 204.93
  A 0.27 0.26 -32.1 0 1 82.31 205.03
  Z
  M 238.11 67.97
  L 206.42 72.26
  A 0.80 0.80 0.0 0 0 205.74 72.88
  Q 191.83 137.84 181.20 187.99
  Q 180.22 192.62 180.66 199.87
  C 181.50 213.71 190.59 223.60 204.57 224.90
  Q 242.61 228.42 261.10 195.25
  Q 276.55 167.53 271.61 136.03
  Q 270.07 126.20 264.93 119.79
  C 258.45 111.70 246.62 110.18 237.31 113.58
  Q 232.85 115.21 228.77 117.70
  A 0.32 0.32 0.0 0 1 228.29 117.36
  L 238.70 68.61
  A 0.54 0.53 -88.0 0 0 238.11 67.97
  Z"
/>
<circle fill="#ffffff" cx="60.31" cy="82.75" r="17.73"/>
<path fill="#ffffff" d="
  M 81.85 204.93
  Q 78.83 208.58 78.15 209.39
  Q 66.43 223.39 48.65 225.09
  Q 38.32 226.07 31.67 221.78
  C 19.84 214.12 20.01 198.43 22.68 185.71
  Q 30.68 147.65 38.07 112.86
  A 0.44 0.44 0.0 0 1 38.50 112.52
  L 69.94 112.52
  A 0.23 0.23 0.0 0 1 70.17 112.80
  Q 68.51 120.74 54.12 188.89
  C 53.50 191.83 52.75 197.79 54.28 200.25
  C 57.68 205.70 66.99 203.96 71.15 200.90
  Q 78.14 195.76 81.01 188.21
  Q 82.29 184.82 83.03 183.37
  A 3.62 3.51 65.9 0 0 83.33 182.55
  L 106.79 72.59
  A 0.38 0.37 -86.6 0 1 107.11 72.30
  L 139.39 67.93
  A 0.33 0.33 0.0 0 1 139.75 68.33
  L 129.30 117.29
  A 0.36 0.36 0.0 0 0 129.84 117.67
  C 136.71 113.44 143.91 111.03 152.05 112.21
  C 167.76 114.47 172.72 129.20 173.59 143.60
  Q 175.41 174.09 159.79 199.28
  C 152.22 211.49 139.68 221.12 125.48 223.98
  C 107.91 227.53 87.43 225.58 82.31 205.03
  A 0.27 0.26 -32.1 0 0 81.85 204.93
  Z
  M 126.05 132.49
  Q 117.59 171.53 113.58 190.58
  C 112.64 195.08 114.09 201.25 119.27 202.87
  Q 129.27 206.00 136.00 197.71
  C 147.89 183.07 154.30 157.46 149.92 138.85
  C 148.76 133.90 145.32 127.65 139.78 127.65
  Q 133.12 127.66 127.73 130.34
  A 3.18 3.14 -7.4 0 0 126.05 132.49
  Z"
/>
<path fill="#ffffff" d="
  M 238.70 68.61
  L 228.29 117.36
  A 0.32 0.32 0.0 0 0 228.77 117.70
  Q 232.85 115.21 237.31 113.58
  C 246.62 110.18 258.45 111.70 264.93 119.79
  Q 270.07 126.20 271.61 136.03
  Q 276.55 167.53 261.10 195.25
  Q 242.61 228.42 204.57 224.90
  C 190.59 223.60 181.50 213.71 180.66 199.87
  Q 180.22 192.62 181.20 187.99
  Q 191.83 137.84 205.74 72.88
  A 0.80 0.80 0.0 0 1 206.42 72.26
  L 238.11 67.97
  A 0.54 0.53 -88.0 0 1 238.70 68.61
  Z
  M 225.05 132.49
  Q 216.59 171.53 212.58 190.58
  C 211.64 195.08 213.09 201.25 218.27 202.87
  Q 228.27 206.00 235.00 197.71
  C 246.89 183.07 253.30 157.46 248.92 138.85
  C 247.76 133.90 244.32 127.65 238.78 127.65
  Q 232.12 127.66 226.73 130.34
  A 3.18 3.14 -7.4 0 0 225.05 132.49
  Z"
/>
<path fill="#23a8e0" d="
  M 126.05 132.49
  A 3.18 3.14 -7.4 0 1 127.73 130.34
  Q 133.12 127.66 139.78 127.65
  C 145.32 127.65 148.76 133.90 149.92 138.85
  C 154.30 157.46 147.89 183.07 136.00 197.71
  Q 129.27 206.00 119.27 202.87
  C 114.09 201.25 112.64 195.08 113.58 190.58
  Q 117.59 171.53 126.05 132.49
  Z"
/>
<path fill="#23a8e0" d="
  M 225.05 132.49
  A 3.18 3.14 -7.4 0 1 226.73 130.34
  Q 232.12 127.66 238.78 127.65
  C 244.32 127.65 247.76 133.90 248.92 138.85
  C 253.30 157.46 246.89 183.07 235.00 197.71
  Q 228.27 206.00 218.27 202.87
  C 213.09 201.25 211.64 195.08 212.58 190.58
  Q 216.59 171.53 225.05 132.49
  Z"
/>
</svg>
