<svg width="128" height="128" viewBox="0 0 128 128" fill="none" xmlns="http://www.w3.org/2000/svg">
<g clip-path="url(#clip0_363_24)">
<path d="M0 0H128V128H0V0Z" fill="black"/>
<path d="M50.291 109.949C49.9165 109.877 49.8676 109.755 49.8676 108.876V107.884L57.1602 107.769C61.1725 107.705 67.5655 107.705 71.3689 107.769L78.2851 107.884V108.865C78.2851 109.815 78.2662 109.851 77.6979 109.965C77.0486 110.093 50.9685 110.08 50.291 109.949ZM49.8676 101.992V100.672H64.0857H78.302L78.2474 101.943L78.191 103.213L64.0293 103.262L49.8676 103.309V101.992ZM50.3061 96.4003C49.941 96.3307 49.8902 96.182 49.8356 95.0152L49.7735 93.7091H64.0293H78.2851V95.0039V96.2968L77.6979 96.4154C77.0543 96.5434 50.9685 96.5302 50.3061 96.4003ZM49.8676 88.1574V86.7459H64.0763H78.2851V88.1574V89.5689H64.0763H49.8676V88.1574ZM49.9071 81.373L49.9617 79.762H64.0763L78.191 79.7639V81.3259V82.8879L64.0218 82.9369L49.8525 82.9839L49.9071 81.373ZM50.2101 76.079C49.9523 76.0113 49.8827 75.7026 49.8337 74.3909C49.7998 73.5083 49.8093 72.7517 49.8525 72.7084C49.8958 72.667 56.3095 72.6313 64.1083 72.6313H78.2851V74.3025C78.2851 75.8777 78.2606 75.9812 77.8616 76.0884C77.3817 76.2164 50.6975 76.2089 50.2101 76.079ZM50.291 69.2983C49.8883 69.2212 49.8676 69.1346 49.8676 67.4427V65.6681H64.0763H78.2851V67.4333V69.1967L77.6979 69.3153C77.0486 69.4433 50.9685 69.4301 50.291 69.2983ZM49.909 60.5774L49.9617 58.6841H64.0763H78.191L78.2437 60.5774L78.2982 62.4687H64.0763H49.8544L49.909 60.5774ZM50.0313 55.4905C49.9335 55.4303 49.8789 54.4836 49.9071 53.3676L49.9617 51.3521L63.9352 51.3558C71.6211 51.3577 77.9934 51.3615 78.0969 51.3615C78.3886 51.3671 78.3434 55.306 78.0498 55.419C77.7073 55.5507 50.2402 55.6203 50.0313 55.4905ZM50.1969 48.977C49.9071 48.9018 49.8676 48.6326 49.8676 46.7883V44.6843H64.0763H78.2851V46.7789C78.2851 48.7926 78.2681 48.8792 77.8616 48.9883C77.3761 49.1182 50.6975 49.1069 50.1969 48.977ZM49.8318 34.1284C49.7998 32.9278 49.83 31.9096 49.9015 31.8663C49.9899 31.8118 72.005 31.7534 78.1025 31.7911C78.2286 31.7929 78.2775 32.5758 78.2437 34.0042L78.191 36.2155L64.0406 36.2645L49.8902 36.3115L49.8318 34.1284ZM49.9937 29.5986C49.9241 29.5289 49.8676 28.4694 49.8676 27.2443V25.0179H64.082H78.2964L78.2437 27.3233L78.191 29.6287L64.1554 29.6776C56.4375 29.704 50.0633 29.6682 49.9937 29.5986ZM49.8676 20.5012V18.0547H64.0763H78.2851V20.5012V22.9478H64.0763H49.8676V20.5012Z" fill="#FEFEFE"/>
</g>
<defs>
<clipPath id="clip0_363_24">
<rect width="128" height="128" fill="white"/>
</clipPath>
</defs>
</svg>
