<svg width="120" height="44" viewBox="0 0 120 44" fill="none" xmlns="http://www.w3.org/2000/svg">
<g id="Full logo">
<g id="Vector">
<path d="M43.0976 42.8764V38.4239H45.9154V39.219H43.969V40.2303H45.6482V41.0063H43.969V42.0813H45.9408V42.8764H43.0976Z" fill="black"/>
<path d="M40.3278 42.9527C39.8953 42.9527 39.5115 42.8551 39.1765 42.6601C38.8415 42.4608 38.5786 42.1894 38.3878 41.8459C38.197 41.4982 38.1016 41.0996 38.1016 40.6501C38.1016 40.2006 38.197 39.8041 38.3878 39.4607C38.5786 39.113 38.8394 38.8416 39.1701 38.6465C39.5051 38.4472 39.8889 38.3476 40.3214 38.3476C40.6267 38.3476 40.9108 38.4027 41.1738 38.5129C41.4367 38.6189 41.6656 38.7695 41.8607 38.9645C42.06 39.1554 42.2127 39.3759 42.3187 39.6261L41.5109 39.925C41.4388 39.7681 41.3434 39.6324 41.2246 39.5179C41.1059 39.3992 40.9702 39.308 40.8176 39.2444C40.6649 39.1766 40.4995 39.1426 40.3214 39.1426C40.0628 39.1426 39.8317 39.2084 39.6281 39.3398C39.4288 39.467 39.2719 39.643 39.1574 39.8678C39.0472 40.0925 38.992 40.3533 38.992 40.6501C38.992 40.947 39.0493 41.2099 39.1638 41.4388C39.2783 41.6636 39.4373 41.8417 39.6408 41.9731C39.8444 42.1003 40.0776 42.164 40.3405 42.164C40.5228 42.164 40.6882 42.13 40.8366 42.0622C40.9893 41.9901 41.1229 41.8926 41.2374 41.7696C41.3561 41.6466 41.4515 41.5046 41.5236 41.3434L42.3314 41.636C42.2254 41.8947 42.0727 42.1237 41.8734 42.323C41.6784 42.5223 41.4494 42.6771 41.1865 42.7873C40.9236 42.8976 40.6373 42.9527 40.3278 42.9527Z" fill="black"/>
<path d="M33.3165 42.8764V38.4239H34.2261L36.4014 41.4134V38.4239H37.2665V42.8764H36.4014L34.1879 39.8296V42.8764H33.3165Z" fill="black"/>
<path d="M30.4545 42.9654C30.0856 42.9654 29.7654 42.8933 29.4941 42.7491C29.2227 42.605 29.0128 42.4035 28.8644 42.1449C28.7202 41.882 28.6481 41.5724 28.6481 41.2162V38.4239H29.5195V41.2162C29.5195 41.407 29.5577 41.5745 29.634 41.7187C29.7146 41.8586 29.8248 41.9668 29.9647 42.0431C30.1089 42.1194 30.2764 42.1576 30.4672 42.1576C30.6581 42.1576 30.8234 42.1194 30.9634 42.0431C31.1075 41.9668 31.2178 41.8586 31.2941 41.7187C31.3747 41.5745 31.415 41.407 31.415 41.2162V38.4239H32.2864V41.2162C32.2864 41.5724 32.2101 41.882 32.0574 42.1449C31.909 42.4035 31.697 42.605 31.4213 42.7491C31.15 42.8933 30.8277 42.9654 30.4545 42.9654Z" fill="black"/>
<path d="M25.6143 42.9527C25.1648 42.9527 24.7662 42.8552 24.4185 42.6601C24.075 42.4608 23.8058 42.1894 23.6107 41.8459C23.4156 41.4982 23.3181 41.1017 23.3181 40.6565C23.3181 40.2028 23.4156 39.8042 23.6107 39.4607C23.8058 39.113 24.0729 38.8416 24.4121 38.6465C24.7556 38.4515 25.15 38.3539 25.5952 38.3539C26.0447 38.3539 26.4391 38.4536 26.7783 38.6529C27.1218 38.8479 27.3911 39.1193 27.5861 39.467C27.7812 39.8105 27.8787 40.207 27.8787 40.6565C27.8787 41.1017 27.7812 41.4982 27.5861 41.8459C27.3953 42.1894 27.1282 42.4608 26.7847 42.6601C26.4454 42.8552 26.0553 42.9527 25.6143 42.9527ZM25.6143 42.1576C25.8857 42.1576 26.1232 42.094 26.3267 41.9668C26.5345 41.8353 26.6956 41.6572 26.8101 41.4325C26.9289 41.2077 26.9882 40.9491 26.9882 40.6565C26.9882 40.3596 26.9289 40.0989 26.8101 39.8741C26.6914 39.6494 26.5281 39.4734 26.3203 39.3462C26.1126 39.2147 25.8709 39.149 25.5952 39.149C25.3281 39.149 25.0885 39.2147 24.8765 39.3462C24.6687 39.4734 24.5054 39.6494 24.3867 39.8741C24.268 40.0989 24.2086 40.3596 24.2086 40.6565C24.2086 40.9491 24.268 41.2077 24.3867 41.4325C24.5054 41.6572 24.6708 41.8353 24.8828 41.9668C25.0949 42.094 25.3387 42.1576 25.6143 42.1576Z" fill="black"/>
<path d="M19.558 42.8764V38.4239H21.0655C21.3708 38.4239 21.6379 38.4705 21.8669 38.5638C22.0959 38.6571 22.274 38.7992 22.4012 38.99C22.5284 39.1766 22.592 39.4098 22.592 39.6897C22.592 39.8635 22.5475 40.0247 22.4584 40.1731C22.3736 40.3172 22.2528 40.4423 22.0959 40.5483C22.3037 40.6544 22.4627 40.7964 22.5729 40.9745C22.6874 41.1484 22.7447 41.3583 22.7447 41.6042C22.7447 41.8756 22.6832 42.1067 22.5602 42.2975C22.4372 42.4883 22.2655 42.6325 22.045 42.7301C21.8245 42.8276 21.5658 42.8764 21.269 42.8764H19.558ZM20.4103 42.1067H21.1863C21.3941 42.1067 21.5574 42.0558 21.6761 41.9541C21.7948 41.848 21.8542 41.7081 21.8542 41.5343C21.8542 41.3519 21.7885 41.2099 21.657 41.1081C21.5255 41.0021 21.3453 40.9491 21.1163 40.9491H20.4103V42.1067ZM20.4103 40.2367H21.0845C21.2754 40.2367 21.4259 40.1879 21.5361 40.0904C21.6464 39.9929 21.7015 39.855 21.7015 39.6769C21.7015 39.4988 21.64 39.361 21.5171 39.2635C21.3941 39.166 21.2266 39.1172 21.0146 39.1172H20.4103V40.2367Z" fill="black"/>
<path d="M14.5121 42.8764V38.4239H15.4217L17.5971 41.4134V38.4239H18.4621V42.8764H17.5971L15.3836 39.8296V42.8764H14.5121Z" fill="black"/>
<path d="M11.6502 42.9654C11.2812 42.9654 10.9611 42.8933 10.6897 42.7491C10.4183 42.605 10.2084 42.4035 10.06 42.1449C9.91582 41.882 9.84373 41.5724 9.84373 41.2162V38.4239H10.7151V41.2162C10.7151 41.407 10.7533 41.5745 10.8296 41.7187C10.9102 41.8586 11.0205 41.9668 11.1604 42.0431C11.3046 42.1194 11.4721 42.1576 11.6629 42.1576C11.8537 42.1576 12.0191 42.1194 12.159 42.0431C12.3032 41.9668 12.4134 41.8586 12.4898 41.7187C12.5703 41.5745 12.6106 41.407 12.6106 41.2162V38.4239H13.482V41.2162C13.482 41.5724 13.4057 41.882 13.253 42.1449C13.1046 42.4035 12.8926 42.605 12.617 42.7491C12.3456 42.8933 12.0233 42.9654 11.6502 42.9654Z" fill="black"/>
<path d="M6.00545 41.0381L5.18492 40.8282L6.61607 38.4239H7.60834L6.00545 41.0381ZM5.15948 42.8764V40.7392H6.03089V42.8764H5.15948ZM5.18492 41.0381L3.58203 38.4239H4.5743L6.00545 40.8282L5.18492 41.0381Z" fill="black"/>
<path d="M0 42.8764V38.4239H1.50748C1.81279 38.4239 2.07994 38.4705 2.30892 38.5638C2.53791 38.6571 2.716 38.7992 2.84322 38.99C2.97043 39.1766 3.03404 39.4098 3.03404 39.6897C3.03404 39.8635 2.98951 40.0247 2.90046 40.1731C2.81566 40.3172 2.6948 40.4423 2.53791 40.5483C2.74569 40.6544 2.9047 40.7964 3.01496 40.9745C3.12945 41.1484 3.18669 41.3583 3.18669 41.6042C3.18669 41.8756 3.12521 42.1067 3.00223 42.2975C2.87926 42.4883 2.70752 42.6325 2.48702 42.7301C2.26652 42.8276 2.00785 42.8764 1.71102 42.8764H0ZM0.852329 42.1067H1.62833C1.83611 42.1067 1.99937 42.0558 2.1181 41.9541C2.23683 41.848 2.2962 41.7081 2.2962 41.5343C2.2962 41.3519 2.23047 41.2099 2.09902 41.1081C1.96757 41.0021 1.78735 40.9491 1.55836 40.9491H0.852329V42.1067ZM0.852329 40.2367H1.52656C1.71738 40.2367 1.86792 40.1879 1.97817 40.0904C2.08842 39.9929 2.14354 39.855 2.14354 39.6769C2.14354 39.4988 2.08206 39.361 1.95909 39.2635C1.83611 39.166 1.66862 39.1172 1.45659 39.1172H0.852329V40.2367Z" fill="black"/>
<path fill-rule="evenodd" clip-rule="evenodd" d="M119.738 26.4979C119.738 25.612 119.228 25.1287 118.754 25.1287C118.214 25.1287 117.947 25.5756 117.54 26.2572C117.111 26.9766 116.526 27.9574 115.299 28.9499C115.004 26.7753 114.744 24.3591 114.744 22.0234C114.744 19.3799 115.127 17.1771 115.404 15.5825C115.561 14.678 115.684 13.9687 115.684 13.4861C115.684 12.3585 114.87 11.8753 114.234 11.8753C112.955 11.8753 110.78 13.2892 110.136 14.6495C109.456 15.9381 109.026 21.4954 109.026 24.6813C109.026 26.0057 108.731 27.4555 107.576 27.4555C106.422 27.4555 105.912 26.1668 105.912 22.0234C105.912 19.3798 106.313 17.1769 106.603 15.5823C106.767 14.6776 106.896 13.9687 106.896 13.4861C106.896 12.3585 106.046 11.8753 105.357 11.8753C104.077 11.8753 101.938 13.2892 101.258 14.6495C100.659 15.9381 100.229 21.4954 100.229 24.6813C100.229 25.263 100.274 25.8357 100.337 26.3816C100.337 26.4263 100.346 26.4621 100.354 26.4979C100.417 27.0707 99.8354 27.4555 99.3343 27.4555C98.3499 27.4555 97.8845 26.1668 97.8845 22.0234C97.8845 19.3768 98.896 12.3231 99.6267 7.22709L99.6269 7.22583C100.04 4.34458 100.363 2.08918 100.363 1.61082C100.363 0.483245 99.4685 0 98.8242 0C97.5445 0 95.3699 1.41394 94.7256 2.73839C94.0812 4.07178 92.2109 21.5044 92.2109 24.6813C92.2109 24.8782 92.2109 25.0661 92.2288 25.254C92.2198 26.3368 91.1997 27.4555 89.6157 27.4555C88.5508 27.4555 87.6917 26.1668 87.6917 22.0234C87.6917 20.3321 88.0317 17.191 88.4165 14.0499C90.1705 13.7725 91.2802 13.4503 92.0051 12.7612C92.3899 12.3943 93.07 10.5866 93.07 9.58435C93.07 9.18165 92.9447 8.69841 92.4704 8.69841C91.9012 8.69841 91.1743 8.99396 90.4251 9.29861C89.9376 9.49687 89.4406 9.69897 88.9714 9.82598C89.3562 7.16813 89.6515 5.03827 89.6515 4.51028C89.6515 3.38271 88.8013 2.89947 88.1123 2.89947C86.8326 2.89947 84.6937 4.30446 84.0136 5.63786C83.7541 6.1211 83.414 8.66261 83.074 11.6784C81.5348 12.278 80.4251 12.8865 80.4251 13.325C80.4251 14.2915 81.5348 14.4884 82.7697 14.5331C82.3044 18.7571 82.0001 23.151 82.0001 24.726V24.9408C82.0449 26.3189 82.0001 27.4644 81.1052 27.4644C80.3356 27.4644 79.6107 26.5337 79.6107 23.679C79.6107 22.3235 79.7419 21.124 79.8663 19.9866C79.9784 18.9615 80.085 17.9868 80.085 16.9941C80.085 14.2557 79.3602 11.8842 76.0759 11.8842C73.9818 11.8842 72.192 13.2534 71.0824 14.7479C71.4142 11.6276 71.8886 8.20023 72.2461 5.61739C72.5345 3.53352 72.7469 1.99939 72.7469 1.61976C72.7469 0.492194 71.8967 0.00894898 71.2971 0.00894898C70.0174 0.00894898 67.8428 1.42289 67.1985 2.74734C66.5363 4.04494 65.0597 20.5916 64.9792 27.008C64.9792 28.1594 64.4214 28.4777 63.7816 28.8428C63.7103 28.8835 63.6379 28.9248 63.5652 28.9678C63.2699 26.8738 63.0104 24.5828 63.0104 22.0413C63.0104 19.3977 63.4293 17.1948 63.7326 15.6002C63.9047 14.6956 64.0395 13.9866 64.0395 13.504C64.0395 12.3764 63.1446 11.8932 62.5003 11.8932C61.6054 11.8932 60.3257 12.5733 59.4308 13.3877C59.046 12.6181 58.1958 11.8932 56.1465 11.8932C52.907 11.8932 47.994 14.7121 47.994 23.0526C47.994 24.1622 48.1461 25.4061 48.4862 26.5874C48.2088 27.0617 47.8866 27.4734 47.3139 27.4734C46.3295 27.4734 45.8641 26.1847 45.8641 22.0413C45.8641 19.3977 46.2649 17.1948 46.555 15.6002C46.7195 14.6957 46.8485 13.9866 46.8485 13.504C46.8485 12.3764 45.9984 11.8932 45.3093 11.8932C44.0296 11.8932 41.8908 13.3429 41.2554 14.6674C40.6111 15.956 40.1905 21.5133 40.1905 24.735C40.1905 28.4398 41.5597 31.4199 45.5688 31.4199C47.5823 31.4199 48.9336 30.3997 49.7748 29.2721C50.7055 30.5429 52.0568 31.4199 53.9361 31.4199C55.4753 31.4199 57.0056 30.8561 58.2048 29.7732C58.2352 29.8993 58.2683 30.0306 58.3022 30.1652C58.4079 30.5852 58.5218 31.0377 58.5896 31.4646C58.0858 31.6417 57.582 31.8135 57.0837 31.9834C52.7224 33.4705 48.7725 34.8172 48.7725 38.3911C48.7725 40.6105 50.8219 43.0625 55.4306 43.0625C63.073 43.0625 64.3527 38.23 64.3527 35.6885C64.3527 34.722 64.1827 33.3528 63.9232 31.742C64.4512 31.4378 64.9076 31.1245 65.3192 30.8203C65.4803 31.2051 65.7309 31.4199 66.1067 31.4199C70.1159 31.4199 70.8855 29.6927 70.8855 28.6009C70.8855 27.7265 70.87 27.1002 70.8572 26.585C70.8483 26.2251 70.8407 25.919 70.8407 25.6209C70.8407 21.755 71.1808 15.8755 73.7849 15.8755C74.5546 15.8755 74.7693 16.6004 74.7693 17.6832C74.7693 18.6344 74.5938 19.8588 74.4155 21.1023C74.2314 22.3857 74.0445 23.6897 74.0445 24.735C74.0445 28.4398 75.4495 31.4199 79.3781 31.4199C81.2931 31.4199 82.5997 30.5429 83.4498 29.5048C84.3984 30.6771 85.8482 31.4199 87.9154 31.4199C90.3764 31.4199 92.023 29.9433 92.9358 28.5651C93.7054 30.2833 95.1641 31.4199 97.6071 31.4199C99.4238 31.4199 100.695 30.5787 101.545 29.5764C102.395 30.7129 103.71 31.4199 105.634 31.4199C107.558 31.4199 109.008 30.4176 109.814 29.2453L110.324 31.4557C109.82 31.6328 109.316 31.8045 108.818 31.9744C104.456 33.4615 100.507 34.8082 100.507 38.3822C100.507 40.6015 102.556 43.0535 107.165 43.0535C114.807 43.0535 116.087 38.2211 116.087 35.6796C116.087 34.7131 115.917 33.3439 115.657 31.7331C119.112 29.7196 119.756 27.6255 119.756 26.4979H119.738ZM58.1153 22.6141C57.99 23.8043 57.7215 24.6097 57.2114 25.4419C56.7371 26.2116 55.9317 26.7216 55.0279 26.8201C54.3567 26.8917 52.5669 26.9364 52.5669 21.9518C52.5669 19.464 53.6676 17.2536 55.2248 16.2692C59.0695 13.8345 58.3459 20.485 58.1287 22.4812L58.1153 22.6051V22.6141ZM56.2181 39.6261C55.0637 39.6261 53.954 38.9012 53.954 37.4515C53.954 35.9212 56.6387 34.7936 59.037 33.9077C59.1623 34.7131 59.2071 35.4737 59.2071 36.0823C59.2071 37.7736 58.0526 39.6261 56.2181 39.6261ZM107.952 39.6261C106.798 39.6261 105.688 38.9012 105.688 37.4515C105.688 35.9212 108.373 34.7936 110.771 33.9077C110.896 34.7131 110.941 35.4737 110.941 36.0823C110.941 37.7736 109.787 39.6261 107.952 39.6261Z" fill="#F95616"/>
<path d="M44.6917 10.7297C43.4568 10.7297 42.2308 10.2554 42.2308 7.4454C42.2308 4.95758 44.7365 3.78526 46.222 3.78526C47.5823 3.78526 48.7725 4.38485 48.7725 5.95092C48.7725 9.1278 46.392 10.7207 44.6917 10.7207V10.7297Z" fill="#F95616"/>
<path d="M26.6648 30.0978C27.9955 31.0749 29.878 31.7599 32.0469 31.7599C36.3335 31.7599 39.2956 29.988 39.2956 26.4174C39.2956 23.6226 36.715 21.9079 34.3657 20.3468C34.1047 20.1734 33.8465 20.0019 33.5951 19.8309C32.7181 19.2314 31.8232 18.417 31.2236 17.4774C30.9014 16.9762 30.6777 16.493 30.6777 15.9918C30.6777 15.0611 31.2952 14.4973 32.3512 14.5063C33.8367 14.5152 34.5884 15.9023 34.9016 17.2447C34.9911 17.6384 35.0538 18.0322 35.0717 18.3902C35.1343 19.3924 35.358 20.001 36.074 20.0099C37.0941 20.0189 39.4119 18.3275 39.4298 16.2156C39.4298 15.6249 39.2061 15.0074 38.8034 14.4258C38.1322 13.4593 36.9599 12.5823 35.4565 12.0811C34.6332 11.8037 33.7114 11.6337 32.7181 11.6247C29.747 11.5979 27.4829 12.5196 26.5612 14.4079C26.2748 14.9895 26.1227 15.6607 26.1137 16.4214C26.0958 18.2649 27.0802 19.643 28.4226 20.7258C28.909 21.1204 29.4215 21.5133 29.9326 21.9051C31.1139 22.8107 32.2873 23.7102 33.1118 24.6097C33.8099 25.3793 34.2663 26.1489 34.2663 26.9275C34.2663 27.9477 33.604 28.5741 32.4317 28.5741C30.5166 28.5741 29.6933 26.5069 29.4517 24.8603C29.4274 24.6982 29.4104 24.5362 29.3942 24.3808C29.3925 24.3645 29.3908 24.3484 29.3891 24.3323C29.3085 23.2316 29.0579 22.5604 28.2615 22.5604C27.1339 22.5604 24.5924 24.4486 24.5924 26.7664C24.5924 26.9955 24.6234 27.2281 24.6833 27.4613C23.8212 27.3503 23.3395 26.4538 23.3395 24.019C23.3395 22.6003 23.5174 21.2448 23.6912 19.9202C23.8573 18.6546 24.0196 17.4171 24.0196 16.1797C24.0196 13.8082 23.3395 11.92 20.6906 11.92C18.346 11.92 15.7866 14.5778 14.8111 16.663C14.9383 15.8561 15.145 15.1632 15.3227 14.5673C15.5077 13.947 15.6613 13.4318 15.6613 13.0028C15.6613 12.0363 15.196 11.5531 14.2563 11.5531C12.8961 11.5531 9.82657 12.8417 9.44176 14.73C9.18224 15.6517 9.05695 16.3766 9.01221 22.972C8.99459 24.0905 8.8903 25.2091 8.79316 26.2508L8.78848 26.301C8.60951 26.8827 8.32314 27.4733 7.17767 27.4733C6.19328 27.4733 5.72793 26.1847 5.72793 22.0413C5.72793 19.3976 6.12868 17.1948 6.41878 15.6001C6.58336 14.6955 6.71232 13.9866 6.71232 13.504C6.71232 12.3764 5.86217 11.8931 5.1731 11.8931C3.89339 11.8931 1.75459 13.3429 1.11921 14.6673C0.474885 15.956 0.054283 21.5133 0.054283 24.7349C0.054283 28.4398 1.42348 31.4198 5.43262 31.4198C6.76602 31.4198 7.8041 30.9724 8.60056 30.337C8.69899 31.0171 8.95852 31.4198 9.53125 31.4198C13.5404 31.4198 14.31 29.6927 14.31 28.6009C14.31 22.1666 15.8045 17.182 17.5048 17.182C18.2297 17.182 18.4892 17.9069 18.4892 18.9539C18.4892 19.8284 18.3405 20.9291 18.1869 22.0656C18.0231 23.2782 17.8538 24.5315 17.8538 25.594C17.8538 29.2094 19.7331 31.4288 23.1426 31.4288C24.6837 31.4288 25.8333 30.8589 26.6648 30.0978Z" fill="#F95616"/>
<path d="M4.5556 10.7297C3.32064 10.7297 2.08568 10.2554 2.08568 7.4454C2.08568 4.95758 4.5914 3.78526 6.08588 3.78526C7.44612 3.78526 8.63634 4.38485 8.63634 5.95092C8.63634 9.1278 6.25591 10.7207 4.5556 10.7207V10.7297Z" fill="#F95616"/>
</g>
</g>
</svg>
