<svg version="1.1" id="Layer_1" xmlns:x="ns_extend;" xmlns:i="ns_ai;" xmlns:graph="ns_graphs;" xmlns="http://www.w3.org/2000/svg" xmlns:xlink="http://www.w3.org/1999/xlink" x="0px" y="0px" viewBox="0 0 407.6 64" style="enable-background:new 0 0 407.6 64;" xml:space="preserve">
 <style type="text/css">
  .st0{fill:#003D29;}
	.st1{fill:#0AAD0A;}
	.st2{fill:#FF7009;}
 </style>
 <metadata>
  <sfw xmlns="ns_sfw;">
   <slices>
   </slices>
   <sliceSourceBounds bottomLeftOrigin="true" height="64" width="407.6" x="-129" y="-19.7">
   </sliceSourceBounds>
  </sfw>
 </metadata>
 <g>
  <path class="st0" d="M157.8,35.1l-5.4-0.5c-3.6-0.3-5-1.6-5-3.7c0-2.6,2.2-4.2,6.4-4.2c4,0,6,1.7,6.3,4.6h12.7
		C172,22.9,166.1,17,154.1,17c-12.5,0-19.4,6.4-19.4,14.8c0,7.9,4.3,12.2,15,13.1l5.4,0.4c4.2,0.3,5.7,1.7,5.7,4.2
		c0,2.6-2.2,4.6-6.7,4.6c-4.2,0-6.7-1.9-7.1-5.2h-13.4c1.2,9.1,7.6,15,20.5,15c12.5,0,19.5-6.4,19.5-15.1
		C173.5,40.4,168.9,36.1,157.8,35.1z M113.8,17c-8,0-12.7,4.2-15,12.7H98v-12H85.4v45.5h13.4V36.7c0-6.1,3.1-9.4,8.7-9.4
		c5.6,0,8.3,3.4,8.3,9.3v26.5h13.4V34.3C129.3,23.3,123.5,17,113.8,17L113.8,17z M72.3,0c-4.6,0-8,3-8,7.6c0,4.6,3.4,7.6,7.9,7.6
		s7.9-3,7.9-7.6C80.2,3.1,76.8,0,72.3,0z M79,17.7H65.6v45.5H79V17.7z M194.7,8.1h-8.6c-0.3,7.3-3.4,10.5-10.4,11.1v9.2h5.5v20
		c0,10.1,5.7,15.5,17.2,15.5c2.1,0,4.3-0.3,6.4-0.8V52.3c-1.1,0.2-2.2,0.3-3.2,0.2c-4.8,0-6.9-1.8-6.9-6.9V28.4h11.8V17.7h-11.8
		C194.7,17.7,194.7,8.1,194.7,8.1z M407.6,28.4V17.7h-11.8V8.1h-8.4c-0.2,5.1-1.7,8-5,9.6v30.7c0,10.1,5.7,15.5,17.2,15.5
		c2.1,0,4.3-0.3,6.4-0.8V52.3c-1.1,0.2-2.2,0.3-3.2,0.2c-4.8,0-6.9-1.8-6.9-6.9V28.4H407.6L407.6,28.4z M363.6,30.4h-0.8V17.7h-12.4
		v45.5h13.4V38.6c0-6.8,3.1-9.7,10.1-9.7c1.2,0,2.5,0.1,4.3,0.4V17.6c-1.2-0.4-2.5-0.6-3.8-0.6C368.9,17,365.2,20.1,363.6,30.4
		L363.6,30.4z M277.9,52.4c-6.3,0-10.9-4.2-10.9-12.3c0-7.2,4.2-11.7,10.7-11.7c5.6,0,8.7,3.1,9.7,8.1H301
		c-1.3-11.7-9.7-19.5-23.1-19.5c-14.7,0-24.4,10-24.4,23.7c0,14.2,9.3,23.3,24.2,23.3c13.6,0,22.4-7.6,23.6-19.8h-13.6
		C287,49.1,283.6,52.4,277.9,52.4z M229.7,17c-11.7,0-18.7,5.7-20,16h12.9c0.4-3.6,2.7-5.4,6.8-5.4c4.1,0,6,1.9,6,4.6
		c0,2.2-1.4,3.4-5.1,4.1l-6.1,1.1c-10.8,2-14.9,6.4-14.9,13.5c0,8.1,5.7,13.1,13.6,13.1c6.4,0,10.6-3,12.5-10.5h0.8v9.7h12.7V33.5
		C248.8,23.2,242.7,17,229.7,17z M228.2,54.8c-3.6,0-5.7-1.9-5.7-4.8c0-2.4,1.4-4,5-4.8l2.5-0.6c2.2-0.5,3.8-1.2,5.4-2.5V47
		C235.4,52.5,232.5,54.8,228.2,54.8z M325.1,17c-11.7,0-18.7,5.7-20,16H318c0.4-3.6,2.7-5.4,6.8-5.4c4.1,0,6,1.9,6,4.6
		c0,2.2-1.4,3.4-5.1,4.1l-6.1,1.1c-10.8,2-14.9,6.4-14.9,13.5c0,8.1,5.7,13.1,13.6,13.1c6.4,0,10.6-3,12.5-10.5h0.8v9.7h12.7V33.5
		C344.3,23.2,338.1,17,325.1,17z M323.6,54.8c-3.6,0-5.7-1.9-5.7-4.8c0-2.4,1.4-4,5-4.8l2.5-0.6c2.2-0.5,3.8-1.2,5.4-2.5V47
		C330.8,52.5,327.9,54.8,323.6,54.8z">
  </path>
  <path class="st1" d="M43,10.9c-2.8,0-4.7,1.2-6.5,3.8l-5.2,7.5V0.7H18.7v21.5l-5.2-7.5c-1.8-2.6-3.8-3.8-6.5-3.8
		c-4.2,0-6.9,3.1-7,6.9c0,3.2,1.5,5.4,4.7,7.4l20.2,13l20.2-13c3.2-2.1,4.8-4.2,4.7-7.4C49.9,14,47.2,10.9,43,10.9z">
  </path>
  <path class="st2" d="M25,41.3c12,0,21.9,9,21.9,21.9H3.1C3.1,50.3,13,41.3,25,41.3z">
  </path>
 </g>
</svg>