<svg width="619" height="109" viewBox="0 0 619 109" fill="none" xmlns="http://www.w3.org/2000/svg">
<path d="M619 95.5023C614.14 97.5872 609.442 98.6296 604.906 98.6296C600.37 98.6296 596.389 97.6566 592.964 95.7108C589.585 93.7649 586.924 91.0315 584.98 87.5104C583.082 83.943 582.133 79.8428 582.133 75.2098V40.4624H569.983V27.7448H582.827V10.3711H596.366V27.7448H616.639V40.4624H596.366V72.569C596.366 76.646 597.454 79.8891 599.629 82.2983C601.851 84.6611 604.698 85.8425 608.169 85.8425C611.085 85.8425 613.978 84.9623 616.848 83.2017L619 95.5023Z" fill="#000000"/>
<path d="M558.667 97.546H544.434V58.4621C544.434 52.5319 542.837 47.8526 539.643 44.4241C536.496 40.9957 532.191 39.2815 526.729 39.2815C522.841 39.2815 519.37 40.1618 516.315 41.9223C513.26 43.6829 510.853 46.1847 509.094 49.4278C507.335 52.6245 506.456 56.3541 506.456 60.6164V97.546H492.223V27.7454H504.234L504.72 38.934C507.266 34.857 510.737 31.7529 515.135 29.6217C519.532 27.4442 524.508 26.3555 530.062 26.3555C538.856 26.3555 545.822 29.0194 550.96 34.3474C556.098 39.6753 558.667 46.9028 558.667 56.0298V97.546Z" fill="#000000"/>
<path d="M473.546 97.546H461.257L460.424 88.3449C457.878 91.588 454.661 94.113 450.773 95.9198C446.885 97.7267 442.581 98.6301 437.86 98.6301C432.907 98.6301 428.487 97.6572 424.599 95.7114C420.711 93.7655 417.656 91.1015 415.434 87.7194C413.212 84.3374 412.101 80.492 412.101 76.1833C412.101 71.643 413.305 67.6586 415.712 64.2302C418.119 60.7554 421.405 58.0451 425.571 56.0993C429.736 54.1071 434.481 53.111 439.804 53.111C443.136 53.111 446.515 53.5048 449.94 54.2924C453.412 55.08 456.536 56.1919 459.313 57.6282V55.0569C459.313 51.6748 458.434 48.7791 456.675 46.37C454.962 43.9145 452.602 42.0381 449.593 40.7409C446.631 39.4437 443.345 38.7951 439.734 38.7951C436.54 38.7951 433.277 39.351 429.945 40.4629C426.658 41.5748 423.557 43.2891 420.641 45.6055L416.337 33.9999C420.549 31.4981 424.923 29.5986 429.459 28.3013C434.041 27.0041 438.531 26.3555 442.928 26.3555C449.223 26.3555 454.638 27.6064 459.174 30.1082C463.757 32.61 467.298 36.1774 469.797 40.8104C472.297 45.3971 473.546 50.8177 473.546 57.0722V97.546ZM440.637 86.538C443.923 86.538 446.955 85.8662 449.732 84.5227C452.509 83.1328 454.754 81.1869 456.467 78.6851C458.226 76.137 459.174 73.1719 459.313 69.7898V68.8168C456.953 67.0563 454.291 65.6896 451.329 64.7166C448.413 63.6974 445.427 63.1878 442.372 63.1878C437.698 63.1878 433.81 64.2997 430.708 66.5235C427.607 68.7473 426.057 71.5966 426.057 75.0714C426.057 77.2489 426.681 79.2179 427.931 80.9784C429.227 82.6926 430.963 84.0594 433.138 85.0786C435.36 86.0516 437.86 86.538 440.637 86.538Z" fill="#000000"/>
<path d="M402.938 95.5023C398.078 97.5872 393.38 98.6296 388.844 98.6296C384.308 98.6296 380.327 97.6567 376.902 95.7108C373.523 93.7649 370.862 91.0315 368.918 87.5104C367.02 83.943 366.071 79.8428 366.071 75.2098V40.4624H353.921V27.7448H366.765V10.3711H380.304V27.7448H400.577V40.4624H380.304V72.569C380.304 76.646 381.392 79.8891 383.567 82.2983C385.789 84.6611 388.635 85.8425 392.107 85.8425C395.023 85.8425 397.916 84.9623 400.786 83.2017L402.938 95.5023Z" fill="#000000"/>
<path d="M294.766 91.1942L298.237 78.4071C299.811 79.9823 301.686 81.3722 303.861 82.5768C306.083 83.7814 308.42 84.7312 310.874 85.4261C313.373 86.0747 315.826 86.399 318.233 86.399C322.029 86.399 325.083 85.5883 327.398 83.9667C329.712 82.3452 330.869 80.1908 330.869 77.5037C330.869 75.5115 330.221 73.8668 328.925 72.5696C327.675 71.226 325.986 70.0677 323.857 69.0948C321.774 68.1219 319.529 67.1721 317.122 66.2455C314.021 65.0873 310.92 63.7437 307.819 62.2148C304.764 60.6859 302.195 58.6474 300.112 56.0993C298.029 53.5511 296.988 50.1922 296.988 46.0225C296.988 42.0381 298.006 38.5866 300.043 35.6678C302.079 32.7027 304.926 30.4093 308.582 28.7878C312.239 27.1662 316.451 26.3555 321.219 26.3555C328.624 26.3555 335.961 28.2087 343.228 31.9151L339.062 44.0767C337.581 43.0111 335.822 42.0613 333.785 41.2274C331.749 40.3934 329.666 39.7448 327.537 39.2815C325.407 38.7719 323.44 38.5171 321.635 38.5171C318.627 38.5171 316.197 39.1889 314.345 40.5324C312.54 41.876 311.637 43.6829 311.637 45.953C311.637 47.3429 312.077 48.617 312.956 49.7752C313.836 50.8872 315.224 51.9991 317.122 53.111C319.066 54.1766 321.681 55.3812 324.968 56.7247C328.115 57.9756 331.263 59.4119 334.41 61.0334C337.558 62.655 340.173 64.763 342.256 67.3574C344.385 69.9519 345.449 73.3572 345.449 77.5732C345.449 81.7429 344.339 85.4261 342.117 88.6229C339.895 91.7733 336.794 94.2288 332.813 95.9893C328.879 97.7499 324.297 98.6301 319.066 98.6301C310.411 98.6301 302.311 96.1515 294.766 91.1942Z" fill="#000000"/>
<path d="M280.952 97.546H266.719V58.4621C266.719 52.5319 265.122 47.8526 261.929 44.4241C258.781 40.9957 254.477 39.2815 249.015 39.2815C245.127 39.2815 241.655 40.1618 238.6 41.9223C235.546 43.6829 233.139 46.1847 231.38 49.4278C229.621 52.6245 228.741 56.3541 228.741 60.6164V97.546H214.508V27.7454H226.52L227.006 38.934C229.551 34.857 233.023 31.7529 237.42 29.6217C241.817 27.4442 246.793 26.3555 252.347 26.3555C261.142 26.3555 268.108 29.0194 273.246 34.3474C278.383 39.6753 280.952 46.9028 280.952 56.0298V97.546Z" fill="#000000"/>
<path d="M194.22 97.5455H180V10.3711H194.22V97.5455Z" fill="#000000"/>
<path d="M60 0C92.3389 0 120 22.8398 120 52.7119C120 82.584 92.3389 105.424 60 105.424C53.4876 105.424 47.1653 104.496 41.22 102.773C32.7539 106.364 23.8369 108.546 15.292 108.997C13.7896 109.076 12.7995 107.524 13.4775 106.18C14.9781 103.207 17.4967 98.1992 20.4162 92.3388C7.99631 82.8004 0 68.7727 0 52.7119C8.96147e-05 22.8398 27.6612 2.90657e-05 60 0Z" fill="#000000"/>
<path d="M111.132 35.1621C113.103 39.6707 113.757 44.6959 112.939 49.5483C110.209 65.7405 97.0008 75.0781 60.0001 75.0781C22.8762 75.0781 9.70395 65.6782 7.03446 49.3863C6.2564 44.6379 6.87657 39.726 8.77503 35.3049C16.3012 17.7781 35.6133 4.68559 60.0001 4.68559C84.3205 4.68559 103.502 17.7071 111.132 35.1621Z" fill="black"/>
<path d="M51.2397 40.322C51.2397 51.4308 47.9689 60.4363 42.2634 60.4363C36.5579 60.4363 33.2871 51.4308 33.2871 40.322C33.2871 29.2132 36.5579 20.2078 42.2634 20.2078C47.9689 20.2078 51.2397 29.2132 51.2397 40.322Z" fill="#52BAFF"/>
<path d="M86.7708 40.322C86.7708 51.4308 83.5 60.4363 77.7945 60.4363C72.089 60.4363 68.8182 51.4308 68.8182 40.322C68.8182 29.2132 72.089 20.2078 77.7945 20.2078C83.5 20.2078 86.7708 29.2132 86.7708 40.322Z" fill="#52BAFF"/>
</svg>
