<?xml version="1.0" encoding="UTF-8" standalone="no"?>
<!DOCTYPE svg PUBLIC "-//W3C//DTD SVG 1.1//EN" "http://www.w3.org/Graphics/SVG/1.1/DTD/svg11.dtd">
<svg xmlns="http://www.w3.org/2000/svg" version="1.1" viewBox="0.00 0.00 400.00 400.00">
<g stroke-width="2.00" fill="none" stroke-linecap="butt">
<path stroke="#8693b9" vector-effect="non-scaling-stroke" d="
  M 150.08 100.49
  L 138.79 94.00
  A 3.28 3.22 -21.1 0 0 137.98 93.65
  C 131.33 91.67 127.22 94.68 124.03 100.65
  Q 123.59 101.48 120.17 107.30
  A 0.84 0.83 15.0 0 1 119.45 107.71
  L 109.06 107.71
  A 1.16 1.14 -15.0 0 1 108.07 107.15
  C 105.68 103.14 103.24 97.39 99.98 94.80
  Q 94.60 90.55 87.62 94.61
  Q 73.83 102.63 67.53 106.28
  Q 63.48 108.63 62.48 110.32
  C 59.74 114.92 60.47 118.58 63.52 123.70
  Q 66.27 128.32 67.37 130.19
  A 0.86 0.86 0.0 0 1 67.38 131.06
  L 61.97 140.42
  A 0.97 0.96 -74.0 0 1 61.10 140.91
  Q 58.96 140.86 53.99 140.80
  C 47.88 140.73 43.30 141.67 40.95 147.33
  Q 40.10 149.36 40.23 155.78
  Q 40.32 160.63 40.28 177.00
  Q 40.25 185.29 48.83 187.66
  A 1.11 0.90 -32.4 0 0 49.08 187.69
  L 60.36 187.69
  A 1.04 1.04 0.0 0 1 61.26 188.21
  L 66.62 197.50
  A 1.28 1.27 -45.6 0 1 66.63 198.77
  Q 63.78 203.75 62.69 205.45
  C 58.72 211.65 59.24 218.07 65.80 221.95
  Q 72.89 226.14 87.69 234.50
  Q 93.88 237.99 99.43 234.03
  C 102.27 232.01 104.88 226.26 107.01 222.60
  A 1.14 1.14 0.0 0 1 107.99 222.04
  L 118.83 222.04
  A 1.19 1.17 -15.0 0 1 119.85 222.62
  C 121.92 226.22 125.25 233.69 128.93 235.26
  C 133.49 237.21 136.10 236.60 140.68 233.98
  Q 145.35 231.30 149.93 228.80"
/>
<path stroke="#85a0d6" vector-effect="non-scaling-stroke" d="
  M 149.93 228.80
  Q 161.20 238.24 174.45 243.13
  Q 202.28 253.38 230.27 243.53
  Q 243.51 238.86 254.37 230.10"
/>
<path stroke="#8693b9" vector-effect="non-scaling-stroke" d="
  M 254.37 230.10
  Q 254.17 229.07 255.67 229.86
  Q 258.84 231.53 262.53 233.68
  Q 267.56 236.62 269.47 236.97
  Q 276.28 238.24 280.41 231.60
  Q 284.83 224.52 285.88 222.23
  A 0.85 0.84 -77.1 0 1 286.64 221.75
  L 297.47 221.75
  A 0.84 0.83 -15.0 0 1 298.19 222.16
  C 301.19 227.23 304.07 233.69 307.51 235.50
  C 311.84 237.79 315.71 236.96 320.02 234.31
  Q 325.59 230.88 336.73 224.75
  Q 343.00 221.30 344.57 218.41
  Q 347.30 213.36 344.07 207.68
  Q 340.48 201.36 338.70 198.47
  A 0.93 0.92 -45.8 0 1 338.69 197.52
  L 344.11 188.13
  A 0.78 0.77 13.2 0 1 344.75 187.74
  Q 345.86 187.68 354.49 187.73
  Q 365.90 187.79 366.17 176.26
  Q 366.20 174.94 366.35 155.03
  C 366.40 148.69 365.49 144.03 359.77 141.59
  Q 357.52 140.64 352.12 140.80
  Q 351.02 140.84 344.40 140.78
  A 0.70 0.69 75.0 0 1 343.80 140.43
  L 338.43 131.13
  A 1.24 1.23 44.8 0 1 338.42 129.91
  L 344.58 119.20
  A 1.24 1.13 -23.9 0 0 344.69 118.95
  C 346.82 111.94 343.09 107.85 336.67 104.52
  Q 335.59 103.95 319.94 94.79
  C 314.98 91.89 312.45 91.06 307.47 93.03
  Q 304.91 94.05 301.91 99.40
  Q 300.22 102.42 297.45 107.23
  A 0.70 0.69 -75.0 0 1 296.85 107.58
  L 286.12 107.58
  A 1.15 1.14 75.2 0 1 285.12 106.99
  Q 284.34 105.59 281.33 100.24
  C 277.87 94.08 274.26 90.85 267.11 92.91
  A 1.82 1.49 17.1 0 0 266.79 93.04
  L 254.52 99.57"
/>
<path stroke="#85a0d6" vector-effect="non-scaling-stroke" d="
  M 254.52 99.57
  Q 234.46 84.29 211.00 82.31
  Q 176.77 79.41 150.08 100.49"
/>
<path stroke="#0c3490" vector-effect="non-scaling-stroke" d="
  M 254.52 99.57
  Q 252.68 99.12 251.54 99.88"
/>
<path stroke="#85a0d6" vector-effect="non-scaling-stroke" d="
  M 251.54 99.88
  C 221.52 77.61 181.67 78.31 152.33 101.48"
/>
<path stroke="#0c3490" vector-effect="non-scaling-stroke" d="
  M 152.33 101.48
  Q 150.95 100.42 150.08 100.49"
/>
<path stroke="#0c3490" vector-effect="non-scaling-stroke" d="
  M 164.82 109.32
  Q 164.41 109.45 165.48 110.02
  A 1.15 1.12 -84.2 0 1 166.05 110.74
  L 166.45 112.20"
/>
<path stroke="#8693b9" vector-effect="non-scaling-stroke" d="
  M 166.45 112.20
  C 169.16 118.96 164.70 123.83 161.56 129.33
  A 0.23 0.23 0.0 0 0 161.94 129.60
  Q 173.73 115.80 191.97 111.68
  A 0.20 0.20 0.0 0 1 192.12 112.04
  Q 181.23 119.66 176.15 133.02
  A 0.79 0.77 -74.8 0 1 175.30 133.52
  L 160.99 131.38
  A 0.31 0.31 0.0 0 0 160.65 131.78
  L 160.80 132.27
  A 1.42 1.41 -4.6 0 0 161.94 133.23
  L 174.26 135.07
  A 0.56 0.55 10.6 0 1 174.72 135.74
  L 173.54 140.91
  A 0.47 0.46 -83.5 0 0 173.99 141.48
  L 174.27 141.48
  A 1.20 1.19 6.3 0 0 175.44 140.55
  L 176.45 136.10
  A 0.79 0.79 0.0 0 1 177.27 135.49
  L 201.85 137.10
  A 0.43 0.43 0.0 0 1 202.25 137.53
  L 202.25 163.46
  A 0.37 0.37 0.0 0 1 201.88 163.83
  L 188.19 163.85
  A 0.82 0.82 0.0 0 0 187.38 164.65
  L 187.38 164.72
  A 0.76 0.75 1.1 0 0 188.14 165.50
  L 201.93 165.50
  A 0.32 0.32 0.0 0 1 202.25 165.82
  L 202.25 191.39
  A 0.69 0.69 0.0 0 1 201.60 192.08
  L 177.29 193.62
  A 0.56 0.56 0.0 0 1 176.72 193.23
  L 175.28 188.72
  A 0.75 0.74 -13.0 0 0 174.45 188.21
  L 174.11 188.27
  A 0.66 0.65 76.9 0 0 173.59 189.11
  L 174.93 193.29
  A 0.62 0.61 -13.2 0 1 174.43 194.08
  L 162.59 195.81
  A 2.00 1.95 -66.5 0 0 161.73 196.16
  Q 160.69 196.92 160.34 198.31
  A 1.61 1.58 37.2 0 0 160.52 199.56
  C 164.64 206.33 169.17 211.62 165.26 218.58"
/>
<path stroke="#0c3490" vector-effect="non-scaling-stroke" d="
  M 165.26 218.58
  Q 165.18 219.38 164.43 219.86"
/>
<path stroke="#8693b9" vector-effect="non-scaling-stroke" d="
  M 164.43 219.86
  L 159.32 223.49
  A 1.12 1.09 -5.5 0 0 158.98 223.89
  Q 158.75 224.37 159.12 224.07"
/>
<path stroke="#0c3490" vector-effect="non-scaling-stroke" d="
  M 159.12 224.07
  Q 158.38 224.56 158.19 224.99"
/>
<path stroke="#8693b9" vector-effect="non-scaling-stroke" d="
  M 158.19 224.99
  L 158.09 224.69
  A 0.34 0.34 0.0 0 0 157.60 224.51
  L 151.39 227.98"
/>
<path stroke="#0c3490" vector-effect="non-scaling-stroke" d="
  M 151.39 227.98
  L 149.93 228.80"
/>
<path stroke="#8693b9" vector-effect="non-scaling-stroke" d="
  M 251.54 99.88
  Q 251.96 100.09 252.29 100.43
  A 0.54 0.54 0.0 0 1 252.28 101.19
  Q 250.12 103.28 247.06 104.02"
/>
<path stroke="#85a0d6" vector-effect="non-scaling-stroke" d="
  M 247.06 104.02
  C 220.80 85.24 184.19 85.11 158.07 104.64"
/>
<path stroke="#8693b9" vector-effect="non-scaling-stroke" d="
  M 158.07 104.64
  Q 154.74 103.78 152.33 101.48"
/>
<path stroke="#0c3490" vector-effect="non-scaling-stroke" d="
  M 254.37 230.10
  Q 253.88 229.35 253.24 229.14"
/>
<path stroke="#8693b9" vector-effect="non-scaling-stroke" d="
  M 253.24 229.14
  Q 253.79 229.21 253.11 228.67
  Q 250.23 226.37 246.83 224.92
  A 2.98 2.18 65.2 0 1 246.38 224.67
  L 240.48 220.59"
/>
<path stroke="#0c3490" vector-effect="non-scaling-stroke" d="
  M 240.48 220.59
  Q 239.66 220.04 239.68 219.27"
/>
<path stroke="#8693b9" vector-effect="non-scaling-stroke" d="
  M 239.68 219.27
  Q 236.66 213.05 240.30 207.35
  Q 243.15 202.88 245.41 198.95
  A 0.90 0.89 -45.9 0 0 245.40 198.06
  Q 244.23 196.09 243.07 195.89
  Q 233.32 194.20 232.10 194.00
  A 0.63 0.62 -75.7 0 1 231.62 193.18
  L 233.02 189.21
  A 0.64 0.64 0.0 0 0 232.43 188.35
  L 232.38 188.35
  A 1.25 1.24 8.8 0 0 231.21 189.20
  L 229.87 193.29
  A 0.59 0.58 12.7 0 1 229.24 193.68
  Q 216.97 192.12 204.25 192.32
  A 0.44 0.44 0.0 0 1 203.80 191.88
  L 203.80 166.12
  A 0.62 0.61 90.0 0 1 204.41 165.50
  L 216.71 165.50
  A 0.68 0.68 0.0 0 0 217.39 164.82
  L 217.39 164.47
  A 0.63 0.63 0.0 0 0 216.76 163.84
  L 204.16 163.84
  A 0.36 0.36 0.0 0 1 203.80 163.48
  L 203.80 137.51
  A 0.64 0.64 0.0 0 1 204.44 136.87
  Q 216.65 137.01 229.08 135.45
  A 0.79 0.79 0.0 0 1 229.93 135.99
  L 231.48 140.83
  A 0.96 0.95 81.3 0 0 232.39 141.50
  L 232.67 141.50
  A 0.58 0.58 0.0 0 0 233.22 140.74
  L 231.69 135.94
  A 0.66 0.66 0.0 0 1 232.20 135.09
  L 243.68 133.17
  A 1.34 1.33 -88.0 0 0 244.77 132.14
  L 244.89 131.63
  A 0.25 0.24 -88.2 0 0 244.62 131.33
  L 231.44 133.54
  A 0.84 0.84 0.0 0 1 230.52 133.02
  Q 226.91 123.90 220.76 117.30
  C 218.91 115.33 216.65 113.83 214.92 112.23
  A 0.20 0.19 -16.7 0 1 215.10 111.90
  Q 231.90 116.12 243.07 128.51
  A 0.24 0.24 0.0 0 0 243.45 128.22
  Q 241.19 124.68 238.83 120.25
  C 236.52 115.92 238.22 114.16 238.76 110.28"
/>
<path stroke="#0c3490" vector-effect="non-scaling-stroke" d="
  M 238.76 110.28
  L 239.97 108.61"
/>
<path stroke="#85a0d6" vector-effect="non-scaling-stroke" d="
  M 239.68 219.27
  Q 231.02 224.60 224.62 226.62
  Q 192.94 236.63 165.26 218.58"
/>
<path stroke="#0c3490" vector-effect="non-scaling-stroke" d="
  M 247.06 104.02
  Q 245.43 104.21 245.14 105.21"
/>
<path stroke="#85a0d6" vector-effect="non-scaling-stroke" d="
  M 245.14 105.21
  C 229.55 94.28 210.88 89.43 192.12 92.37
  Q 174.50 95.13 159.90 105.97"
/>
<path stroke="#0c3490" vector-effect="non-scaling-stroke" d="
  M 159.90 105.97
  L 158.07 104.64"
/>
<path stroke="#85a0d6" vector-effect="non-scaling-stroke" d="
  M 238.76 110.28
  C 216.66 95.77 188.94 95.85 167.00 110.62
  Q 166.56 110.92 166.46 111.31
  Q 166.35 111.75 166.45 112.20"
/>
<path stroke="#8693b9" vector-effect="non-scaling-stroke" d="
  M 245.14 105.21
  Q 243.04 107.60 239.97 108.61"
/>
<path stroke="#85a0d6" vector-effect="non-scaling-stroke" d="
  M 239.97 108.61
  Q 219.07 95.47 194.51 98.37
  Q 178.47 100.27 164.82 109.32"
/>
<path stroke="#8693b9" vector-effect="non-scaling-stroke" d="
  M 164.82 109.32
  L 159.90 105.97"
/>
<path stroke="#85a0d6" vector-effect="non-scaling-stroke" d="
  M 240.48 220.59
  C 222.02 233.70 197.88 235.77 177.20 227.09
  Q 169.84 224.00 164.43 219.86"
/>
<path stroke="#85a0d6" vector-effect="non-scaling-stroke" d="
  M 253.24 229.14
  C 241.21 237.76 228.22 243.72 213.37 245.39
  Q 178.54 249.29 151.39 227.98"
/>
<path stroke="#85a0d6" vector-effect="non-scaling-stroke" d="
  M 158.19 224.99
  Q 158.78 225.73 159.51 226.24
  Q 170.06 233.59 183.09 237.41
  C 204.94 243.80 227.78 239.04 246.48 226.17
  A 0.58 0.58 0.0 0 0 246.51 225.23
  L 246.38 225.13
  A 1.15 1.14 -42.7 0 0 245.06 225.08
  C 234.02 232.17 222.90 236.58 209.73 237.65
  C 193.60 238.97 178.44 235.70 164.90 227.50
  Q 161.99 225.75 159.12 224.07"
/>
<path stroke="#8693b9" vector-effect="non-scaling-stroke" d="
  M 317.1581 265.6523
  A 7.39 7.21 -1.3 0 0 309.6064 258.6119
  A 7.39 7.21 -1.3 0 0 302.3819 265.9877
  A 7.39 7.21 -1.3 0 0 309.9336 273.0281
  A 7.39 7.21 -1.3 0 0 317.1581 265.6523"
/>
<path stroke="#8693b9" vector-effect="non-scaling-stroke" d="
  M 348.60 278.97
  C 338.12 271.94 326.17 278.70 323.38 290.06
  Q 321.20 298.92 323.84 307.38
  C 327.61 319.48 340.61 322.28 349.32 313.38
  A 0.58 0.57 -24.4 0 1 350.31 313.75
  C 350.47 317.39 352.17 317.93 355.68 317.91
  Q 358.89 317.89 360.80 317.89
  A 0.53 0.52 0.0 0 0 361.33 317.37
  L 361.33 259.35
  A 0.61 0.61 0.0 0 0 360.72 258.74
  L 349.55 258.74
  A 0.55 0.55 0.0 0 0 349.00 259.29
  L 349.00 278.76
  A 0.26 0.25 17.1 0 1 348.60 278.97"
/>
<path stroke="#8693b9" vector-effect="non-scaling-stroke" d="
  M 57.22 261.09
  A 0.49 0.49 0.0 0 0 56.73 260.60
  L 44.31 260.60
  A 0.49 0.49 0.0 0 0 43.82 261.09
  L 43.82 317.39
  A 0.49 0.49 0.0 0 0 44.31 317.88
  L 56.73 317.88
  A 0.49 0.49 0.0 0 0 57.22 317.39
  L 57.22 261.09"
/>
<path stroke="#8693b9" vector-effect="non-scaling-stroke" d="
  M 114.49 286.44
  Q 114.50 286.46 114.38 301.54
  Q 114.32 310.02 115.75 312.76
  C 119.73 320.40 131.14 319.31 137.38 315.32
  A 0.51 0.51 0.0 0 0 137.55 314.64
  L 134.14 308.74
  A 1.38 1.36 -22.8 0 0 132.57 308.11
  C 130.23 308.78 127.19 310.13 126.80 306.18
  Q 126.65 304.66 126.71 286.22
  A 0.66 0.66 0.0 0 1 127.37 285.56
  L 136.35 285.56
  A 0.28 0.28 0.0 0 0 136.63 285.28
  L 136.63 277.55
  A 0.31 0.31 0.0 0 0 136.32 277.24
  L 127.17 277.24
  A 0.44 0.44 0.0 0 1 126.73 276.80
  L 126.73 265.78
  A 0.58 0.58 0.0 0 0 126.15 265.20
  L 119.67 265.20
  A 2.14 2.12 -83.5 0 0 117.60 266.86
  L 115.38 276.62
  A 0.84 0.83 -87.8 0 1 114.71 277.25
  L 109.40 278.14
  A 0.70 0.69 85.7 0 0 108.81 278.83
  C 108.84 282.46 107.80 286.66 113.19 285.48
  A 1.08 1.07 81.3 0 1 114.49 286.44"
/>
<path stroke="#8693b9" vector-effect="non-scaling-stroke" d="
  M 197.78 282.58
  L 197.21 279.14
  A 2.79 2.78 -4.8 0 0 194.46 276.82
  L 186.91 276.82
  A 0.36 0.36 0.0 0 0 186.55 277.18
  L 186.55 317.36
  A 0.54 0.54 0.0 0 0 187.09 317.90
  L 198.16 317.90
  A 0.54 0.54 0.0 0 0 198.70 317.36
  Q 198.71 296.76 198.68 296.21
  C 198.36 291.25 202.14 287.58 206.95 287.86
  Q 210.31 288.06 210.48 288.05
  A 1.58 1.58 0.0 0 0 212.00 286.75
  L 213.54 278.26
  A 1.30 1.29 14.1 0 0 212.66 276.80
  Q 206.16 274.71 201.48 279.50
  Q 200.01 281.00 198.32 282.75
  A 0.32 0.32 0.0 0 1 197.78 282.58"
/>
<path stroke="#8693b9" vector-effect="non-scaling-stroke" d="
  M 77.99 280.67
  L 77.37 278.71
  A 2.71 2.70 -8.8 0 0 74.79 276.83
  L 67.51 276.83
  A 0.62 0.62 0.0 0 0 66.89 277.45
  L 66.89 317.35
  A 0.55 0.55 0.0 0 0 67.44 317.90
  L 78.64 317.90
  A 0.47 0.47 0.0 0 0 79.11 317.43
  L 79.11 289.99
  A 1.41 1.40 -23.0 0 1 79.51 289.01
  C 82.47 286.03 87.45 283.91 90.49 287.52
  Q 91.78 289.04 91.72 293.55
  Q 91.67 298.29 91.69 317.41
  A 0.52 0.52 0.0 0 0 92.21 317.92
  L 103.34 317.92
  A 0.56 0.56 0.0 0 0 103.90 317.36
  Q 103.94 306.35 103.89 294.51
  C 103.87 290.84 104.01 287.82 102.61 284.46
  Q 99.72 277.57 92.56 276.61
  Q 84.29 275.49 78.83 280.88
  A 0.51 0.51 0.0 0 1 77.99 280.67"
/>
<path stroke="#8693b9" vector-effect="non-scaling-stroke" d="
  M 153.03 299.97
  A 0.46 0.46 0.0 0 1 153.49 299.45
  L 177.39 299.45
  A 1.56 1.56 0.0 0 0 178.93 298.15
  C 180.66 287.98 174.90 277.70 164.08 276.60
  C 157.60 275.94 151.86 276.99 146.99 281.52
  C 140.01 288.02 139.05 298.92 142.97 307.36
  C 149.24 320.86 168.56 321.62 178.47 312.21
  A 0.97 0.97 0.0 0 0 178.55 310.90
  L 175.33 306.97
  A 2.81 2.79 -31.5 0 0 172.01 306.18
  C 168.80 307.61 166.41 309.22 162.02 309.21
  C 156.31 309.20 153.70 305.10 153.03 299.97"
/>
<path stroke="#8693b9" vector-effect="non-scaling-stroke" d="
  M 296.7368 295.4523
  A 18.84 18.84 0.0 0 0 277.9627 276.5467
  L 274.2027 276.5336
  A 18.84 18.84 0.0 0 0 255.2971 295.3077
  L 255.2832 299.2877
  A 18.84 18.84 0.0 0 0 274.0573 318.1933
  L 277.8173 318.2064
  A 18.84 18.84 0.0 0 0 296.7229 299.4323
  L 296.7368 295.4523"
/>
<path stroke="#8693b9" vector-effect="non-scaling-stroke" d="
  M 235.86 286.05
  A 0.34 0.34 0.0 0 1 236.13 286.59
  L 219.08 309.29
  A 4.40 4.18 -17.0 0 0 218.60 310.14
  Q 217.40 313.09 217.92 317.40
  A 0.57 0.56 86.6 0 0 218.48 317.90
  L 249.60 317.90
  A 0.65 0.65 0.0 0 0 250.25 317.25
  L 250.25 309.34
  A 0.60 0.60 0.0 0 0 249.65 308.74
  L 232.67 308.74
  A 0.31 0.31 0.0 0 1 232.42 308.24
  L 249.35 285.68
  A 5.50 5.49 -26.5 0 0 250.46 282.37
  L 250.46 277.40
  A 0.59 0.58 -0.0 0 0 249.87 276.82
  L 219.31 276.82
  A 0.44 0.44 0.0 0 0 218.87 277.26
  L 218.87 285.62
  A 0.43 0.43 0.0 0 0 219.30 286.05
  L 235.86 286.05"
/>
<path stroke="#8693b9" vector-effect="non-scaling-stroke" d="
  M 315.80 277.35
  A 0.53 0.53 0.0 0 0 315.27 276.82
  L 304.15 276.82
  A 0.53 0.53 0.0 0 0 303.62 277.35
  L 303.62 317.37
  A 0.53 0.53 0.0 0 0 304.15 317.90
  L 315.27 317.90
  A 0.53 0.53 0.0 0 0 315.80 317.37
  L 315.80 277.35"
/>
<path stroke="#8693b9" vector-effect="non-scaling-stroke" d="
  M 291.43 109.85
  Q 287.38 109.88 284.50 110.33
  A 0.71 0.71 0.0 0 1 283.75 109.92
  Q 282.01 106.10 277.59 98.91
  Q 274.91 94.55 270.65 94.64
  Q 268.55 94.68 262.95 97.94
  Q 259.15 100.14 255.35 102.37
  Q 251.54 104.59 247.76 106.82
  Q 242.17 110.11 241.11 111.92
  Q 238.94 115.58 241.42 120.06
  Q 245.52 127.44 248.00 130.83
  A 0.71 0.71 0.0 0 1 247.98 131.68
  Q 246.18 133.97 244.17 137.49
  Q 242.16 141.01 241.12 143.73
  A 0.71 0.71 0.0 0 1 240.39 144.18
  Q 236.21 143.77 227.77 144.01
  Q 222.66 144.15 220.60 147.88
  Q 219.59 149.72 219.61 156.20
  Q 219.62 160.59 219.64 165.00
  Q 219.67 169.41 219.70 173.80
  Q 219.76 180.28 220.79 182.11
  Q 222.89 185.82 228.00 185.90
  Q 236.44 186.04 240.62 185.59
  A 0.71 0.71 0.0 0 1 241.35 186.03
  Q 242.43 188.74 244.47 192.24
  Q 246.52 195.74 248.35 198.00
  A 0.71 0.71 0.0 0 1 248.37 198.86
  Q 245.93 202.27 241.92 209.70
  Q 239.48 214.20 241.69 217.84
  Q 242.77 219.64 248.40 222.86
  Q 252.20 225.05 256.03 227.23
  Q 259.87 229.42 263.68 231.58
  Q 269.32 234.77 271.42 234.79
  Q 275.68 234.83 278.32 230.44
  Q 282.66 223.21 284.35 219.37
  A 0.71 0.71 0.0 0 1 285.10 218.95
  Q 287.98 219.37 292.04 219.35
  Q 296.09 219.33 298.97 218.87
  A 0.71 0.71 0.0 0 1 299.72 219.28
  Q 301.46 223.10 305.88 230.29
  Q 308.56 234.65 312.82 234.56
  Q 314.92 234.52 320.52 231.27
  Q 324.32 229.06 328.12 226.83
  Q 331.93 224.61 335.71 222.38
  Q 341.30 219.10 342.37 217.29
  Q 344.53 213.62 342.05 209.14
  Q 337.95 201.77 335.47 198.38
  A 0.71 0.71 0.0 0 1 335.49 197.52
  Q 337.29 195.24 339.30 191.71
  Q 341.31 188.19 342.35 185.47
  A 0.71 0.71 0.0 0 1 343.08 185.03
  Q 347.26 185.43 355.70 185.20
  Q 360.81 185.06 362.87 181.32
  Q 363.88 179.48 363.86 173.00
  Q 363.85 168.61 363.83 164.20
  Q 363.80 159.79 363.77 155.40
  Q 363.71 148.92 362.68 147.10
  Q 360.58 143.39 355.47 143.30
  Q 347.03 143.16 342.85 143.61
  A 0.71 0.71 0.0 0 1 342.12 143.17
  Q 341.04 140.46 339.00 136.97
  Q 336.95 133.47 335.12 131.20
  A 0.71 0.71 0.0 0 1 335.10 130.35
  Q 337.54 126.93 341.55 119.51
  Q 343.99 115.00 341.78 111.36
  Q 340.70 109.56 335.07 106.34
  Q 331.27 104.15 327.44 101.97
  Q 323.60 99.79 319.79 97.62
  Q 314.15 94.43 312.05 94.41
  Q 307.79 94.37 305.15 98.76
  Q 300.81 106.00 299.12 109.84
  A 0.71 0.71 0.0 0 1 298.37 110.25
  Q 295.49 109.83 291.43 109.85"
/>
<path stroke="#8693b9" vector-effect="non-scaling-stroke" d="
  M 77.88 226.07
  Q 86.21 230.94 87.91 231.89
  C 94.13 235.38 97.70 233.89 101.38 227.47
  Q 104.68 221.70 106.04 219.32
  A 0.40 0.39 -71.9 0 1 106.43 219.12
  Q 113.91 219.95 120.30 219.17
  A 0.81 0.79 -16.6 0 1 121.10 219.59
  Q 123.39 223.85 126.65 229.56
  Q 129.96 235.35 136.41 233.57
  A 4.36 3.88 19.3 0 0 137.26 233.22
  Q 144.74 229.00 159.66 220.48
  Q 167.24 216.16 162.96 208.50
  Q 158.96 201.35 157.34 198.82
  A 0.88 0.87 -43.0 0 1 157.38 197.82
  Q 161.51 192.43 164.17 186.19
  A 0.58 0.56 -76.5 0 1 164.72 185.84
  Q 168.13 185.96 175.51 185.99
  C 179.59 186.00 182.07 185.16 184.05 181.84
  Q 185.09 180.09 185.02 174.50
  Q 184.97 170.83 185.13 152.53
  Q 185.17 147.88 181.77 145.44
  Q 179.48 143.79 173.91 143.89
  Q 165.72 144.04 165.01 144.03
  A 0.88 0.87 -11.9 0 1 164.21 143.52
  Q 161.19 137.03 159.57 134.90
  Q 158.23 133.15 157.64 132.21
  A 1.02 1.02 0.0 0 1 157.62 131.14
  L 164.39 119.80
  A 0.75 0.66 -23.1 0 0 164.48 119.61
  Q 165.69 115.85 164.04 112.69
  Q 163.24 111.15 158.78 108.50
  Q 158.36 108.25 149.75 103.22
  Q 141.14 98.18 140.72 97.93
  Q 136.22 95.34 134.49 95.40
  Q 130.92 95.51 128.24 98.41
  A 0.75 0.66 83.8 0 0 128.12 98.58
  L 121.55 110.04
  A 1.02 1.02 0.0 0 1 120.61 110.55
  Q 119.50 110.49 117.32 110.18
  Q 114.67 109.81 107.53 110.36
  A 0.88 0.87 72.6 0 1 106.69 109.91
  Q 106.34 109.30 102.45 102.09
  Q 99.81 97.18 97.25 96.00
  Q 93.46 94.23 89.42 96.54
  Q 73.55 105.65 70.33 107.40
  Q 65.42 110.08 64.40 111.85
  C 62.48 115.20 62.96 117.77 64.97 121.32
  Q 68.61 127.74 70.39 130.66
  A 0.58 0.56 -42.8 0 1 70.35 131.31
  Q 66.22 136.68 63.54 142.93
  A 0.88 0.87 -76.3 0 1 62.69 143.45
  Q 59.69 143.28 51.50 143.29
  Q 42.73 143.32 42.67 152.04
  Q 42.56 169.22 42.55 177.81
  A 4.36 3.88 41.4 0 0 42.66 178.72
  Q 44.27 185.22 50.94 185.27
  Q 57.51 185.31 62.35 185.22
  A 0.81 0.79 77.3 0 1 63.10 185.71
  Q 65.56 191.66 69.95 197.78
  A 0.40 0.39 -47.5 0 1 69.96 198.21
  Q 68.55 200.57 65.14 206.27
  C 61.35 212.62 61.80 216.47 67.89 220.18
  Q 69.55 221.20 77.88 226.07"
/>
<path stroke="#8693b9" vector-effect="non-scaling-stroke" d="
  M 257.37 105.84
  Q 248.58 110.98 247.13 111.85
  C 242.65 114.52 243.90 116.35 246.28 120.59
  Q 249.43 126.20 251.43 128.65
  C 252.51 129.97 252.75 131.83 251.87 133.05
  Q 248.87 137.19 247.59 139.44
  Q 246.31 141.69 244.27 146.37
  C 243.67 147.76 241.95 148.50 240.26 148.24
  Q 237.13 147.77 230.70 147.92
  C 225.84 148.03 223.63 147.88 223.61 153.10
  Q 223.61 154.79 223.66 164.98
  Q 223.72 175.16 223.74 176.86
  C 223.82 182.07 226.03 181.90 230.89 181.96
  Q 237.32 182.04 240.44 181.53
  C 242.13 181.25 243.86 181.98 244.47 183.35
  Q 246.56 188.02 247.87 190.25
  Q 249.17 192.48 252.21 196.59
  C 253.11 197.80 252.89 199.67 251.82 201.00
  Q 249.85 203.47 246.76 209.11
  C 244.43 213.38 243.20 215.22 247.70 217.84
  Q 249.17 218.70 258.02 223.74
  Q 266.86 228.78 268.35 229.61
  C 272.90 232.15 273.86 230.15 276.34 225.97
  Q 279.62 220.44 280.74 217.48
  C 281.35 215.89 282.84 214.75 284.34 214.90
  Q 289.42 215.43 292.01 215.41
  Q 294.59 215.40 299.67 214.82
  C 301.17 214.65 302.67 215.77 303.29 217.36
  Q 304.45 220.31 307.79 225.80
  C 310.32 229.96 311.30 231.94 315.82 229.35
  Q 317.30 228.51 326.09 223.37
  Q 334.88 218.23 336.33 217.36
  C 340.81 214.69 339.56 212.86 337.18 208.62
  Q 334.03 203.01 332.03 200.56
  C 330.95 199.24 330.71 197.38 331.60 196.16
  Q 334.59 192.02 335.87 189.77
  Q 337.15 187.52 339.19 182.84
  C 339.79 181.45 341.51 180.71 343.20 180.97
  Q 346.33 181.44 352.76 181.29
  C 357.62 181.18 359.83 181.33 359.85 176.11
  Q 359.85 174.42 359.80 164.23
  Q 359.74 154.05 359.72 152.35
  C 359.65 147.14 357.44 147.31 352.57 147.25
  Q 346.14 147.17 343.02 147.68
  C 341.34 147.96 339.60 147.23 338.99 145.86
  Q 336.90 141.19 335.59 138.96
  Q 334.29 136.73 331.25 132.62
  C 330.35 131.41 330.57 129.54 331.64 128.21
  Q 333.61 125.74 336.70 120.10
  C 339.03 115.83 340.26 113.99 335.76 111.37
  Q 334.29 110.51 325.44 105.47
  Q 316.60 100.43 315.11 99.60
  C 310.56 97.06 309.61 99.06 307.12 103.24
  Q 303.84 108.77 302.72 111.73
  C 302.11 113.32 300.62 114.46 299.12 114.30
  Q 294.04 113.78 291.45 113.80
  Q 288.87 113.81 283.79 114.39
  C 282.29 114.56 280.79 113.44 280.17 111.85
  Q 279.01 108.90 275.67 103.41
  C 273.14 99.25 272.16 97.27 267.64 99.86
  Q 266.17 100.70 257.37 105.84"
/>
<path stroke="#8693b9" vector-effect="non-scaling-stroke" d="
  M 113.55 215.67
  Q 116.83 215.68 120.88 215.22
  A 3.38 3.38 0.0 0 1 124.26 217.00
  Q 125.88 220.07 129.44 226.37
  C 131.21 229.52 132.91 231.14 136.38 229.13
  Q 150.38 221.06 156.48 217.67
  C 159.87 215.78 161.61 214.34 159.56 210.46
  Q 158.60 208.64 154.03 201.00
  C 153.06 199.37 152.58 197.94 153.72 196.41
  Q 158.46 190.03 160.92 183.93
  A 3.50 3.49 12.4 0 1 164.33 181.76
  Q 169.17 181.98 175.64 181.97
  C 181.20 181.96 180.96 179.51 180.98 174.32
  Q 181.03 159.05 181.11 152.80
  C 181.14 150.26 180.34 148.22 177.61 148.07
  Q 171.90 147.77 164.42 148.11
  A 3.54 3.52 77.1 0 1 161.02 145.96
  Q 158.32 139.53 154.06 133.82
  A 3.92 3.92 0.0 0 1 153.95 129.30
  Q 157.09 124.64 160.26 118.78
  Q 162.28 115.07 158.88 113.08
  Q 144.95 104.96 138.19 100.97
  C 134.93 99.04 132.99 98.34 130.76 101.97
  Q 127.30 107.62 124.62 112.90
  A 2.84 2.83 15.4 0 1 121.89 114.44
  Q 118.05 114.17 114.11 114.15
  Q 110.18 114.13 106.34 114.36
  A 2.84 2.83 -14.8 0 1 103.62 112.78
  Q 101.00 107.47 97.61 101.78
  C 95.42 98.13 93.47 98.81 90.19 100.70
  Q 83.38 104.62 69.36 112.58
  Q 65.94 114.53 67.92 118.26
  Q 71.02 124.16 74.11 128.85
  A 3.92 3.92 0.0 0 1 73.95 133.37
  Q 69.63 139.03 66.86 145.43
  A 3.54 3.52 -76.5 0 1 63.43 147.55
  Q 55.96 147.12 50.24 147.36
  C 47.51 147.48 46.69 149.51 46.69 152.05
  Q 46.70 158.30 46.58 173.57
  C 46.54 178.76 46.28 181.21 51.84 181.28
  Q 58.31 181.36 63.15 181.19
  A 3.50 3.49 -11.8 0 1 66.53 183.40
  Q 68.92 189.53 73.59 195.96
  C 74.72 197.51 74.22 198.93 73.23 200.55
  Q 68.58 208.14 67.60 209.95
  C 65.50 213.80 67.23 215.26 70.60 217.19
  Q 76.66 220.65 90.57 228.87
  C 94.01 230.92 95.73 229.32 97.54 226.19
  Q 101.17 219.93 102.82 216.88
  A 3.38 3.38 0.0 0 1 106.22 215.14
  Q 110.27 215.65 113.55 215.67"
/>
<path stroke="#8693b9" vector-effect="non-scaling-stroke" d="
  M 323.12 164.58
  A 31.38 31.38 0.0 0 0 291.74 133.20
  A 31.38 31.38 0.0 0 0 260.36 164.58
  A 31.38 31.38 0.0 0 0 291.74 195.96
  A 31.38 31.38 0.0 0 0 323.12 164.58"
/>
<path stroke="#8693b9" vector-effect="non-scaling-stroke" d="
  M 145.17 164.58
  A 31.38 31.38 0.0 0 0 113.79 133.20
  A 31.38 31.38 0.0 0 0 82.41 164.58
  A 31.38 31.38 0.0 0 0 113.79 195.96
  A 31.38 31.38 0.0 0 0 145.17 164.58"
/>
<path stroke="#8693b9" vector-effect="non-scaling-stroke" d="
  M 201.63 135.37
  A 0.71 0.70 -88.5 0 0 202.37 134.66
  L 202.22 111.07
  A 0.41 0.40 -3.5 0 0 201.77 110.67
  C 190.04 112.06 182.38 122.45 177.82 133.09
  A 0.68 0.68 0.0 0 0 178.40 134.04
  L 201.63 135.37"
/>
<path stroke="#8693b9" vector-effect="non-scaling-stroke" d="
  M 204.58 135.63
  L 228.28 134.13
  A 0.70 0.70 0.0 0 0 228.87 133.16
  C 224.15 122.32 216.26 111.76 204.28 110.42
  A 0.42 0.41 3.1 0 0 203.82 110.83
  L 203.82 134.91
  A 0.72 0.71 88.1 0 0 204.58 135.63"
/>
<path stroke="#8693b9" vector-effect="non-scaling-stroke" d="
  M 201.59 193.75
  L 178.36 195.10
  A 0.68 0.68 0.0 0 0 177.78 196.05
  C 182.35 206.70 190.02 217.08 201.75 218.45
  A 0.41 0.40 3.4 0 0 202.21 218.05
  L 202.33 194.46
  A 0.71 0.70 88.4 0 0 201.59 193.75"
/>
<path stroke="#8693b9" vector-effect="non-scaling-stroke" d="
  M 204.59 193.55
  A 0.72 0.71 -88.2 0 0 203.83 194.27
  L 203.84 218.34
  A 0.41 0.41 0.0 0 0 204.30 218.75
  C 216.27 217.40 224.15 206.85 228.87 196.01
  A 0.70 0.69 13.7 0 0 228.28 195.04
  L 204.59 193.55"
/>
<path stroke="#8693b9" vector-effect="non-scaling-stroke" d="
  M 215.07 216.73
  A 0.24 0.24 0.0 0 0 215.30 217.13
  Q 233.16 212.83 244.72 198.85
  A 0.70 0.70 0.0 0 0 244.29 197.71
  L 231.26 195.64
  A 0.79 0.79 0.0 0 0 230.40 196.15
  Q 226.73 206.06 219.33 213.26
  C 217.92 214.63 216.30 215.46 215.07 216.73"
/>
<path stroke="#8693b9" vector-effect="non-scaling-stroke" d="
  M 191.91 217.02
  C 190.64 215.73 188.97 214.89 187.51 213.50
  Q 179.86 206.18 176.02 196.04
  A 0.81 0.81 0.0 0 0 175.13 195.53
  L 161.79 197.76
  A 0.72 0.71 -25.0 0 0 161.36 198.93
  Q 173.33 213.17 191.68 217.44
  A 0.25 0.25 0.0 0 0 191.91 217.02"
/>
<path stroke="#8693b9" vector-effect="non-scaling-stroke" d="
  M 141.13 164.58
  A 27.39 27.39 0.0 0 0 113.74 137.19
  A 27.39 27.39 0.0 0 0 86.35 164.58
  A 27.39 27.39 0.0 0 0 113.74 191.97
  A 27.39 27.39 0.0 0 0 141.13 164.58"
/>
<path stroke="#8693b9" vector-effect="non-scaling-stroke" d="
  M 319.14 164.56
  A 27.38 27.38 0.0 0 0 291.76 137.18
  A 27.38 27.38 0.0 0 0 264.38 164.56
  A 27.38 27.38 0.0 0 0 291.76 191.94
  A 27.38 27.38 0.0 0 0 319.14 164.56"
/>
<path stroke="#0c3490" vector-effect="non-scaling-stroke" d="
  M 282.78 141.45
  L 281.23 142.04"
/>
<path stroke="#8693b9" vector-effect="non-scaling-stroke" d="
  M 281.23 142.04
  Q 277.93 143.25 275.53 145.82"
/>
<path stroke="#0c3490" vector-effect="non-scaling-stroke" d="
  M 275.53 145.82
  L 274.13 147.09"
/>
<path stroke="#8693b9" vector-effect="non-scaling-stroke" d="
  M 274.13 147.09
  Q 270.78 149.90 269.41 153.83"
/>
<path stroke="#0c3490" vector-effect="non-scaling-stroke" d="
  M 269.41 153.83
  Q 267.30 156.52 267.57 158.92"
/>
<path stroke="#8693b9" vector-effect="non-scaling-stroke" d="
  M 267.57 158.92
  Q 266.36 163.63 267.10 168.72
  Q 267.33 170.30 267.93 171.10"
/>
<path stroke="#0c3490" vector-effect="non-scaling-stroke" d="
  M 267.93 171.10
  Q 267.78 171.45 267.98 171.68
  Q 268.16 171.88 268.54 171.77
  Q 269.52 171.50 269.87 172.21"
/>
<path stroke="#8693b9" vector-effect="non-scaling-stroke" d="
  M 269.87 172.21
  C 268.68 176.27 271.09 179.34 273.74 181.83
  A 0.39 0.38 -63.8 0 0 274.38 181.61
  L 275.12 177.02"
/>
<path stroke="#0c3490" vector-effect="non-scaling-stroke" d="
  M 275.12 177.02
  Q 276.20 176.89 277.07 177.26"
/>
<path stroke="#8693b9" vector-effect="non-scaling-stroke" d="
  M 277.07 177.26
  L 275.90 183.36
  A 1.18 1.16 -70.0 0 0 276.46 184.59
  L 280.34 186.83
  A 0.58 0.57 21.7 0 0 281.19 186.47
  L 283.22 178.00"
/>
<path stroke="#0c3490" vector-effect="non-scaling-stroke" d="
  M 283.22 178.00
  Q 284.18 178.43 284.92 179.31"
/>
<path stroke="#8693b9" vector-effect="non-scaling-stroke" d="
  M 284.92 179.31
  L 283.28 187.11
  A 1.29 1.28 -77.7 0 0 284.25 188.63
  Q 301.03 192.49 311.22 180.19
  Q 315.88 174.57 316.54 167.25
  C 318.05 150.45 304.26 137.70 287.51 140.02
  Q 285.03 140.36 282.78 141.45"
/>
<path stroke="#85a0d6" vector-effect="non-scaling-stroke" d="
  M 284.92 179.31
  Q 288.19 160.28 282.78 141.45"
/>
<path stroke="#85a0d6" vector-effect="non-scaling-stroke" d="
  M 283.22 178.00
  Q 285.15 165.37 283.47 153.51
  Q 282.87 149.27 281.23 142.04"
/>
<path stroke="#85a0d6" vector-effect="non-scaling-stroke" d="
  M 277.07 177.26
  Q 279.75 161.32 275.53 145.82"
/>
<path stroke="#85a0d6" vector-effect="non-scaling-stroke" d="
  M 275.12 177.02
  Q 277.64 162.12 274.13 147.09"
/>
<path stroke="#85a0d6" vector-effect="non-scaling-stroke" d="
  M 269.87 172.21
  Q 271.05 163.04 269.41 153.83"
/>
<path stroke="#85a0d6" vector-effect="non-scaling-stroke" d="
  M 267.93 171.10
  Q 268.36 170.77 268.43 170.20
  Q 269.06 164.49 267.57 158.92"
/>
<path stroke="#0c3490" vector-effect="non-scaling-stroke" d="
  M 121.32 180.79
  L 123.35 180.94"
/>
<path stroke="#8693b9" vector-effect="non-scaling-stroke" d="
  M 123.35 180.94
  L 124.60 186.32
  A 0.46 0.46 0.0 0 0 125.20 186.65
  Q 129.04 185.29 130.01 182.71"
/>
<path stroke="#0c3490" vector-effect="non-scaling-stroke" d="
  M 130.01 182.71
  Q 130.70 181.55 131.67 181.82"
/>
<path stroke="#8693b9" vector-effect="non-scaling-stroke" d="
  M 131.67 181.82
  Q 134.89 178.99 136.12 175.61
  Q 136.73 173.93 135.99 171.75"
/>
<path stroke="#0c3490" vector-effect="non-scaling-stroke" d="
  M 135.99 171.75
  Q 136.56 169.88 137.66 170.68"
/>
<path stroke="#8693b9" vector-effect="non-scaling-stroke" d="
  M 137.66 170.68
  Q 140.03 165.01 137.67 159.07"
/>
<path stroke="#0c3490" vector-effect="non-scaling-stroke" d="
  M 137.67 159.07
  Q 138.45 157.25 136.44 155.06"
/>
<path stroke="#8693b9" vector-effect="non-scaling-stroke" d="
  M 136.44 155.06
  Q 135.57 150.82 131.80 147.31"
/>
<path stroke="#0c3490" vector-effect="non-scaling-stroke" d="
  M 131.80 147.31
  Q 130.73 147.09 130.25 146.26"
/>
<path stroke="#8693b9" vector-effect="non-scaling-stroke" d="
  M 130.25 146.26
  Q 128.69 143.59 125.02 142.39"
/>
<path stroke="#0c3490" vector-effect="non-scaling-stroke" d="
  M 125.02 142.39
  Q 124.04 141.81 123.08 141.69"
/>
<path stroke="#8693b9" vector-effect="non-scaling-stroke" d="
  M 123.08 141.69
  Q 121.59 140.58 120.52 140.38
  Q 104.78 137.40 95.22 147.98
  C 85.53 158.72 87.04 175.41 98.30 184.19
  Q 107.46 191.34 119.47 189.04
  Q 121.10 188.73 122.49 187.96
  A 0.68 0.68 0.0 0 0 122.82 187.22
  L 121.32 180.79"
/>
<path stroke="#85a0d6" vector-effect="non-scaling-stroke" d="
  M 123.08 141.69
  Q 117.57 161.06 121.32 180.79"
/>
<path stroke="#85a0d6" vector-effect="non-scaling-stroke" d="
  M 125.02 142.39
  Q 119.28 161.66 123.35 180.94"
/>
<path stroke="#85a0d6" vector-effect="non-scaling-stroke" d="
  M 130.25 146.26
  Q 125.76 164.33 130.01 182.71"
/>
<path stroke="#85a0d6" vector-effect="non-scaling-stroke" d="
  M 131.80 147.31
  Q 127.67 164.36 131.67 181.82"
/>
<path stroke="#85a0d6" vector-effect="non-scaling-stroke" d="
  M 136.44 155.06
  Q 134.88 163.45 135.99 171.75"
/>
<path stroke="#85a0d6" vector-effect="non-scaling-stroke" d="
  M 137.67 159.07
  Q 136.90 164.79 137.66 170.68"
/>
<path stroke="#8693b9" vector-effect="non-scaling-stroke" d="
  M 348.96 289.29
  A 3.14 3.12 11.8 0 0 347.07 286.42
  C 334.12 280.80 333.89 298.08 336.08 304.99
  C 338.00 311.04 345.34 309.56 348.53 305.95
  A 1.76 1.73 66.0 0 0 348.96 304.80
  L 348.96 289.29"
/>
<path stroke="#8693b9" vector-effect="non-scaling-stroke" d="
  M 153.63 292.48
  L 168.11 292.36
  A 0.23 0.23 0.0 0 0 168.34 292.12
  L 168.34 291.94
  A 7.17 7.07 -0.5 0 0 161.11 284.94
  L 160.51 284.94
  A 7.17 7.07 -0.5 0 0 153.40 292.08
  L 153.40 292.26
  A 0.23 0.23 0.0 0 0 153.63 292.48"
/>
<path stroke="#8693b9" vector-effect="non-scaling-stroke" d="
  M 267.74 297.39
  C 267.74 303.06 268.97 309.18 276.00 309.19
  C 283.02 309.20 284.27 303.08 284.28 297.41
  C 284.29 291.73 283.05 285.61 276.03 285.60
  C 269.01 285.59 267.75 291.71 267.74 297.39"
/>
</g>
<path fill="#ffffff" d="
  M 400.00 0.00
  L 400.00 400.00
  L 0.00 400.00
  L 0.00 0.00
  L 400.00 0.00
  Z
  M 150.08 100.49
  L 138.79 94.00
  A 3.28 3.22 -21.1 0 0 137.98 93.65
  C 131.33 91.67 127.22 94.68 124.03 100.65
  Q 123.59 101.48 120.17 107.30
  A 0.84 0.83 15.0 0 1 119.45 107.71
  L 109.06 107.71
  A 1.16 1.14 -15.0 0 1 108.07 107.15
  C 105.68 103.14 103.24 97.39 99.98 94.80
  Q 94.60 90.55 87.62 94.61
  Q 73.83 102.63 67.53 106.28
  Q 63.48 108.63 62.48 110.32
  C 59.74 114.92 60.47 118.58 63.52 123.70
  Q 66.27 128.32 67.37 130.19
  A 0.86 0.86 0.0 0 1 67.38 131.06
  L 61.97 140.42
  A 0.97 0.96 -74.0 0 1 61.10 140.91
  Q 58.96 140.86 53.99 140.80
  C 47.88 140.73 43.30 141.67 40.95 147.33
  Q 40.10 149.36 40.23 155.78
  Q 40.32 160.63 40.28 177.00
  Q 40.25 185.29 48.83 187.66
  A 1.11 0.90 -32.4 0 0 49.08 187.69
  L 60.36 187.69
  A 1.04 1.04 0.0 0 1 61.26 188.21
  L 66.62 197.50
  A 1.28 1.27 -45.6 0 1 66.63 198.77
  Q 63.78 203.75 62.69 205.45
  C 58.72 211.65 59.24 218.07 65.80 221.95
  Q 72.89 226.14 87.69 234.50
  Q 93.88 237.99 99.43 234.03
  C 102.27 232.01 104.88 226.26 107.01 222.60
  A 1.14 1.14 0.0 0 1 107.99 222.04
  L 118.83 222.04
  A 1.19 1.17 -15.0 0 1 119.85 222.62
  C 121.92 226.22 125.25 233.69 128.93 235.26
  C 133.49 237.21 136.10 236.60 140.68 233.98
  Q 145.35 231.30 149.93 228.80
  Q 161.20 238.24 174.45 243.13
  Q 202.28 253.38 230.27 243.53
  Q 243.51 238.86 254.37 230.10
  Q 254.17 229.07 255.67 229.86
  Q 258.84 231.53 262.53 233.68
  Q 267.56 236.62 269.47 236.97
  Q 276.28 238.24 280.41 231.60
  Q 284.83 224.52 285.88 222.23
  A 0.85 0.84 -77.1 0 1 286.64 221.75
  L 297.47 221.75
  A 0.84 0.83 -15.0 0 1 298.19 222.16
  C 301.19 227.23 304.07 233.69 307.51 235.50
  C 311.84 237.79 315.71 236.96 320.02 234.31
  Q 325.59 230.88 336.73 224.75
  Q 343.00 221.30 344.57 218.41
  Q 347.30 213.36 344.07 207.68
  Q 340.48 201.36 338.70 198.47
  A 0.93 0.92 -45.8 0 1 338.69 197.52
  L 344.11 188.13
  A 0.78 0.77 13.2 0 1 344.75 187.74
  Q 345.86 187.68 354.49 187.73
  Q 365.90 187.79 366.17 176.26
  Q 366.20 174.94 366.35 155.03
  C 366.40 148.69 365.49 144.03 359.77 141.59
  Q 357.52 140.64 352.12 140.80
  Q 351.02 140.84 344.40 140.78
  A 0.70 0.69 75.0 0 1 343.80 140.43
  L 338.43 131.13
  A 1.24 1.23 44.8 0 1 338.42 129.91
  L 344.58 119.20
  A 1.24 1.13 -23.9 0 0 344.69 118.95
  C 346.82 111.94 343.09 107.85 336.67 104.52
  Q 335.59 103.95 319.94 94.79
  C 314.98 91.89 312.45 91.06 307.47 93.03
  Q 304.91 94.05 301.91 99.40
  Q 300.22 102.42 297.45 107.23
  A 0.70 0.69 -75.0 0 1 296.85 107.58
  L 286.12 107.58
  A 1.15 1.14 75.2 0 1 285.12 106.99
  Q 284.34 105.59 281.33 100.24
  C 277.87 94.08 274.26 90.85 267.11 92.91
  A 1.82 1.49 17.1 0 0 266.79 93.04
  L 254.52 99.57
  Q 234.46 84.29 211.00 82.31
  Q 176.77 79.41 150.08 100.49
  Z
  M 317.1581 265.6523
  A 7.39 7.21 -1.3 0 0 309.6064 258.6119
  A 7.39 7.21 -1.3 0 0 302.3819 265.9877
  A 7.39 7.21 -1.3 0 0 309.9336 273.0281
  A 7.39 7.21 -1.3 0 0 317.1581 265.6523
  Z
  M 348.60 278.97
  C 338.12 271.94 326.17 278.70 323.38 290.06
  Q 321.20 298.92 323.84 307.38
  C 327.61 319.48 340.61 322.28 349.32 313.38
  A 0.58 0.57 -24.4 0 1 350.31 313.75
  C 350.47 317.39 352.17 317.93 355.68 317.91
  Q 358.89 317.89 360.80 317.89
  A 0.53 0.52 0.0 0 0 361.33 317.37
  L 361.33 259.35
  A 0.61 0.61 0.0 0 0 360.72 258.74
  L 349.55 258.74
  A 0.55 0.55 0.0 0 0 349.00 259.29
  L 349.00 278.76
  A 0.26 0.25 17.1 0 1 348.60 278.97
  Z
  M 57.22 261.09
  A 0.49 0.49 0.0 0 0 56.73 260.60
  L 44.31 260.60
  A 0.49 0.49 0.0 0 0 43.82 261.09
  L 43.82 317.39
  A 0.49 0.49 0.0 0 0 44.31 317.88
  L 56.73 317.88
  A 0.49 0.49 0.0 0 0 57.22 317.39
  L 57.22 261.09
  Z
  M 114.49 286.44
  Q 114.50 286.46 114.38 301.54
  Q 114.32 310.02 115.75 312.76
  C 119.73 320.40 131.14 319.31 137.38 315.32
  A 0.51 0.51 0.0 0 0 137.55 314.64
  L 134.14 308.74
  A 1.38 1.36 -22.8 0 0 132.57 308.11
  C 130.23 308.78 127.19 310.13 126.80 306.18
  Q 126.65 304.66 126.71 286.22
  A 0.66 0.66 0.0 0 1 127.37 285.56
  L 136.35 285.56
  A 0.28 0.28 0.0 0 0 136.63 285.28
  L 136.63 277.55
  A 0.31 0.31 0.0 0 0 136.32 277.24
  L 127.17 277.24
  A 0.44 0.44 0.0 0 1 126.73 276.80
  L 126.73 265.78
  A 0.58 0.58 0.0 0 0 126.15 265.20
  L 119.67 265.20
  A 2.14 2.12 -83.5 0 0 117.60 266.86
  L 115.38 276.62
  A 0.84 0.83 -87.8 0 1 114.71 277.25
  L 109.40 278.14
  A 0.70 0.69 85.7 0 0 108.81 278.83
  C 108.84 282.46 107.80 286.66 113.19 285.48
  A 1.08 1.07 81.3 0 1 114.49 286.44
  Z
  M 197.78 282.58
  L 197.21 279.14
  A 2.79 2.78 -4.8 0 0 194.46 276.82
  L 186.91 276.82
  A 0.36 0.36 0.0 0 0 186.55 277.18
  L 186.55 317.36
  A 0.54 0.54 0.0 0 0 187.09 317.90
  L 198.16 317.90
  A 0.54 0.54 0.0 0 0 198.70 317.36
  Q 198.71 296.76 198.68 296.21
  C 198.36 291.25 202.14 287.58 206.95 287.86
  Q 210.31 288.06 210.48 288.05
  A 1.58 1.58 0.0 0 0 212.00 286.75
  L 213.54 278.26
  A 1.30 1.29 14.1 0 0 212.66 276.80
  Q 206.16 274.71 201.48 279.50
  Q 200.01 281.00 198.32 282.75
  A 0.32 0.32 0.0 0 1 197.78 282.58
  Z
  M 77.99 280.67
  L 77.37 278.71
  A 2.71 2.70 -8.8 0 0 74.79 276.83
  L 67.51 276.83
  A 0.62 0.62 0.0 0 0 66.89 277.45
  L 66.89 317.35
  A 0.55 0.55 0.0 0 0 67.44 317.90
  L 78.64 317.90
  A 0.47 0.47 0.0 0 0 79.11 317.43
  L 79.11 289.99
  A 1.41 1.40 -23.0 0 1 79.51 289.01
  C 82.47 286.03 87.45 283.91 90.49 287.52
  Q 91.78 289.04 91.72 293.55
  Q 91.67 298.29 91.69 317.41
  A 0.52 0.52 0.0 0 0 92.21 317.92
  L 103.34 317.92
  A 0.56 0.56 0.0 0 0 103.90 317.36
  Q 103.94 306.35 103.89 294.51
  C 103.87 290.84 104.01 287.82 102.61 284.46
  Q 99.72 277.57 92.56 276.61
  Q 84.29 275.49 78.83 280.88
  A 0.51 0.51 0.0 0 1 77.99 280.67
  Z
  M 153.03 299.97
  A 0.46 0.46 0.0 0 1 153.49 299.45
  L 177.39 299.45
  A 1.56 1.56 0.0 0 0 178.93 298.15
  C 180.66 287.98 174.90 277.70 164.08 276.60
  C 157.60 275.94 151.86 276.99 146.99 281.52
  C 140.01 288.02 139.05 298.92 142.97 307.36
  C 149.24 320.86 168.56 321.62 178.47 312.21
  A 0.97 0.97 0.0 0 0 178.55 310.90
  L 175.33 306.97
  A 2.81 2.79 -31.5 0 0 172.01 306.18
  C 168.80 307.61 166.41 309.22 162.02 309.21
  C 156.31 309.20 153.70 305.10 153.03 299.97
  Z
  M 296.7368 295.4523
  A 18.84 18.84 0.0 0 0 277.9627 276.5467
  L 274.2027 276.5336
  A 18.84 18.84 0.0 0 0 255.2971 295.3077
  L 255.2832 299.2877
  A 18.84 18.84 0.0 0 0 274.0573 318.1933
  L 277.8173 318.2064
  A 18.84 18.84 0.0 0 0 296.7229 299.4323
  L 296.7368 295.4523
  Z
  M 235.86 286.05
  A 0.34 0.34 0.0 0 1 236.13 286.59
  L 219.08 309.29
  A 4.40 4.18 -17.0 0 0 218.60 310.14
  Q 217.40 313.09 217.92 317.40
  A 0.57 0.56 86.6 0 0 218.48 317.90
  L 249.60 317.90
  A 0.65 0.65 0.0 0 0 250.25 317.25
  L 250.25 309.34
  A 0.60 0.60 0.0 0 0 249.65 308.74
  L 232.67 308.74
  A 0.31 0.31 0.0 0 1 232.42 308.24
  L 249.35 285.68
  A 5.50 5.49 -26.5 0 0 250.46 282.37
  L 250.46 277.40
  A 0.59 0.58 -0.0 0 0 249.87 276.82
  L 219.31 276.82
  A 0.44 0.44 0.0 0 0 218.87 277.26
  L 218.87 285.62
  A 0.43 0.43 0.0 0 0 219.30 286.05
  L 235.86 286.05
  Z
  M 315.80 277.35
  A 0.53 0.53 0.0 0 0 315.27 276.82
  L 304.15 276.82
  A 0.53 0.53 0.0 0 0 303.62 277.35
  L 303.62 317.37
  A 0.53 0.53 0.0 0 0 304.15 317.90
  L 315.27 317.90
  A 0.53 0.53 0.0 0 0 315.80 317.37
  L 315.80 277.35
  Z"
/>
<path fill="#0a40ad" d="
  M 254.52 99.57
  Q 252.68 99.12 251.54 99.88
  C 221.52 77.61 181.67 78.31 152.33 101.48
  Q 150.95 100.42 150.08 100.49
  Q 176.77 79.41 211.00 82.31
  Q 234.46 84.29 254.52 99.57
  Z"
/>
<path fill="#ffffff" d="
  M 251.54 99.88
  Q 251.96 100.09 252.29 100.43
  A 0.54 0.54 0.0 0 1 252.28 101.19
  Q 250.12 103.28 247.06 104.02
  C 220.80 85.24 184.19 85.11 158.07 104.64
  Q 154.74 103.78 152.33 101.48
  C 181.67 78.31 221.52 77.61 251.54 99.88
  Z"
/>
<path fill="#0a40ad" d="
  M 247.06 104.02
  Q 245.43 104.21 245.14 105.21
  C 229.55 94.28 210.88 89.43 192.12 92.37
  Q 174.50 95.13 159.90 105.97
  L 158.07 104.64
  C 184.19 85.11 220.80 85.24 247.06 104.02
  Z"
/>
<path fill="#ffffff" d="
  M 245.14 105.21
  Q 243.04 107.60 239.97 108.61
  Q 219.07 95.47 194.51 98.37
  Q 178.47 100.27 164.82 109.32
  L 159.90 105.97
  Q 174.50 95.13 192.12 92.37
  C 210.88 89.43 229.55 94.28 245.14 105.21
  Z"
/>
<path fill="#0d2772" d="
  M 254.37 230.10
  Q 253.88 229.35 253.24 229.14
  Q 253.79 229.21 253.11 228.67
  Q 250.23 226.37 246.83 224.92
  A 2.98 2.18 65.2 0 1 246.38 224.67
  L 240.48 220.59
  Q 239.66 220.04 239.68 219.27
  Q 236.66 213.05 240.30 207.35
  Q 243.15 202.88 245.41 198.95
  A 0.90 0.89 -45.9 0 0 245.40 198.06
  Q 244.23 196.09 243.07 195.89
  Q 233.32 194.20 232.10 194.00
  A 0.63 0.62 -75.7 0 1 231.62 193.18
  L 233.02 189.21
  A 0.64 0.64 0.0 0 0 232.43 188.35
  L 232.38 188.35
  A 1.25 1.24 8.8 0 0 231.21 189.20
  L 229.87 193.29
  A 0.59 0.58 12.7 0 1 229.24 193.68
  Q 216.97 192.12 204.25 192.32
  A 0.44 0.44 0.0 0 1 203.80 191.88
  L 203.80 166.12
  A 0.62 0.61 90.0 0 1 204.41 165.50
  L 216.71 165.50
  A 0.68 0.68 0.0 0 0 217.39 164.82
  L 217.39 164.47
  A 0.63 0.63 0.0 0 0 216.76 163.84
  L 204.16 163.84
  A 0.36 0.36 0.0 0 1 203.80 163.48
  L 203.80 137.51
  A 0.64 0.64 0.0 0 1 204.44 136.87
  Q 216.65 137.01 229.08 135.45
  A 0.79 0.79 0.0 0 1 229.93 135.99
  L 231.48 140.83
  A 0.96 0.95 81.3 0 0 232.39 141.50
  L 232.67 141.50
  A 0.58 0.58 0.0 0 0 233.22 140.74
  L 231.69 135.94
  A 0.66 0.66 0.0 0 1 232.20 135.09
  L 243.68 133.17
  A 1.34 1.33 -88.0 0 0 244.77 132.14
  L 244.89 131.63
  A 0.25 0.24 -88.2 0 0 244.62 131.33
  L 231.44 133.54
  A 0.84 0.84 0.0 0 1 230.52 133.02
  Q 226.91 123.90 220.76 117.30
  C 218.91 115.33 216.65 113.83 214.92 112.23
  A 0.20 0.19 -16.7 0 1 215.10 111.90
  Q 231.90 116.12 243.07 128.51
  A 0.24 0.24 0.0 0 0 243.45 128.22
  Q 241.19 124.68 238.83 120.25
  C 236.52 115.92 238.22 114.16 238.76 110.28
  L 239.97 108.61
  Q 243.04 107.60 245.14 105.21
  Q 245.43 104.21 247.06 104.02
  Q 250.12 103.28 252.28 101.19
  A 0.54 0.54 0.0 0 0 252.29 100.43
  Q 251.96 100.09 251.54 99.88
  Q 252.68 99.12 254.52 99.57
  L 266.79 93.04
  A 1.82 1.49 17.1 0 1 267.11 92.91
  C 274.26 90.85 277.87 94.08 281.33 100.24
  Q 284.34 105.59 285.12 106.99
  A 1.15 1.14 75.2 0 0 286.12 107.58
  L 296.85 107.58
  A 0.70 0.69 -75.0 0 0 297.45 107.23
  Q 300.22 102.42 301.91 99.40
  Q 304.91 94.05 307.47 93.03
  C 312.45 91.06 314.98 91.89 319.94 94.79
  Q 335.59 103.95 336.67 104.52
  C 343.09 107.85 346.82 111.94 344.69 118.95
  A 1.24 1.13 -23.9 0 1 344.58 119.20
  L 338.42 129.91
  A 1.24 1.23 44.8 0 0 338.43 131.13
  L 343.80 140.43
  A 0.70 0.69 75.0 0 0 344.40 140.78
  Q 351.02 140.84 352.12 140.80
  Q 357.52 140.64 359.77 141.59
  C 365.49 144.03 366.40 148.69 366.35 155.03
  Q 366.20 174.94 366.17 176.26
  Q 365.90 187.79 354.49 187.73
  Q 345.86 187.68 344.75 187.74
  A 0.78 0.77 13.2 0 0 344.11 188.13
  L 338.69 197.52
  A 0.93 0.92 -45.8 0 0 338.70 198.47
  Q 340.48 201.36 344.07 207.68
  Q 347.30 213.36 344.57 218.41
  Q 343.00 221.30 336.73 224.75
  Q 325.59 230.88 320.02 234.31
  C 315.71 236.96 311.84 237.79 307.51 235.50
  C 304.07 233.69 301.19 227.23 298.19 222.16
  A 0.84 0.83 -15.0 0 0 297.47 221.75
  L 286.64 221.75
  A 0.85 0.84 -77.1 0 0 285.88 222.23
  Q 284.83 224.52 280.41 231.60
  Q 276.28 238.24 269.47 236.97
  Q 267.56 236.62 262.53 233.68
  Q 258.84 231.53 255.67 229.86
  Q 254.17 229.07 254.37 230.10
  Z
  M 291.43 109.85
  Q 287.38 109.88 284.50 110.33
  A 0.71 0.71 0.0 0 1 283.75 109.92
  Q 282.01 106.10 277.59 98.91
  Q 274.91 94.55 270.65 94.64
  Q 268.55 94.68 262.95 97.94
  Q 259.15 100.14 255.35 102.37
  Q 251.54 104.59 247.76 106.82
  Q 242.17 110.11 241.11 111.92
  Q 238.94 115.58 241.42 120.06
  Q 245.52 127.44 248.00 130.83
  A 0.71 0.71 0.0 0 1 247.98 131.68
  Q 246.18 133.97 244.17 137.49
  Q 242.16 141.01 241.12 143.73
  A 0.71 0.71 0.0 0 1 240.39 144.18
  Q 236.21 143.77 227.77 144.01
  Q 222.66 144.15 220.60 147.88
  Q 219.59 149.72 219.61 156.20
  Q 219.62 160.59 219.64 165.00
  Q 219.67 169.41 219.70 173.80
  Q 219.76 180.28 220.79 182.11
  Q 222.89 185.82 228.00 185.90
  Q 236.44 186.04 240.62 185.59
  A 0.71 0.71 0.0 0 1 241.35 186.03
  Q 242.43 188.74 244.47 192.24
  Q 246.52 195.74 248.35 198.00
  A 0.71 0.71 0.0 0 1 248.37 198.86
  Q 245.93 202.27 241.92 209.70
  Q 239.48 214.20 241.69 217.84
  Q 242.77 219.64 248.40 222.86
  Q 252.20 225.05 256.03 227.23
  Q 259.87 229.42 263.68 231.58
  Q 269.32 234.77 271.42 234.79
  Q 275.68 234.83 278.32 230.44
  Q 282.66 223.21 284.35 219.37
  A 0.71 0.71 0.0 0 1 285.10 218.95
  Q 287.98 219.37 292.04 219.35
  Q 296.09 219.33 298.97 218.87
  A 0.71 0.71 0.0 0 1 299.72 219.28
  Q 301.46 223.10 305.88 230.29
  Q 308.56 234.65 312.82 234.56
  Q 314.92 234.52 320.52 231.27
  Q 324.32 229.06 328.12 226.83
  Q 331.93 224.61 335.71 222.38
  Q 341.30 219.10 342.37 217.29
  Q 344.53 213.62 342.05 209.14
  Q 337.95 201.77 335.47 198.38
  A 0.71 0.71 0.0 0 1 335.49 197.52
  Q 337.29 195.24 339.30 191.71
  Q 341.31 188.19 342.35 185.47
  A 0.71 0.71 0.0 0 1 343.08 185.03
  Q 347.26 185.43 355.70 185.20
  Q 360.81 185.06 362.87 181.32
  Q 363.88 179.48 363.86 173.00
  Q 363.85 168.61 363.83 164.20
  Q 363.80 159.79 363.77 155.40
  Q 363.71 148.92 362.68 147.10
  Q 360.58 143.39 355.47 143.30
  Q 347.03 143.16 342.85 143.61
  A 0.71 0.71 0.0 0 1 342.12 143.17
  Q 341.04 140.46 339.00 136.97
  Q 336.95 133.47 335.12 131.20
  A 0.71 0.71 0.0 0 1 335.10 130.35
  Q 337.54 126.93 341.55 119.51
  Q 343.99 115.00 341.78 111.36
  Q 340.70 109.56 335.07 106.34
  Q 331.27 104.15 327.44 101.97
  Q 323.60 99.79 319.79 97.62
  Q 314.15 94.43 312.05 94.41
  Q 307.79 94.37 305.15 98.76
  Q 300.81 106.00 299.12 109.84
  A 0.71 0.71 0.0 0 1 298.37 110.25
  Q 295.49 109.83 291.43 109.85
  Z"
/>
<path fill="#0d2772" d="
  M 150.08 100.49
  Q 150.95 100.42 152.33 101.48
  Q 154.74 103.78 158.07 104.64
  L 159.90 105.97
  L 164.82 109.32
  Q 164.41 109.45 165.48 110.02
  A 1.15 1.12 -84.2 0 1 166.05 110.74
  L 166.45 112.20
  C 169.16 118.96 164.70 123.83 161.56 129.33
  A 0.23 0.23 0.0 0 0 161.94 129.60
  Q 173.73 115.80 191.97 111.68
  A 0.20 0.20 0.0 0 1 192.12 112.04
  Q 181.23 119.66 176.15 133.02
  A 0.79 0.77 -74.8 0 1 175.30 133.52
  L 160.99 131.38
  A 0.31 0.31 0.0 0 0 160.65 131.78
  L 160.80 132.27
  A 1.42 1.41 -4.6 0 0 161.94 133.23
  L 174.26 135.07
  A 0.56 0.55 10.6 0 1 174.72 135.74
  L 173.54 140.91
  A 0.47 0.46 -83.5 0 0 173.99 141.48
  L 174.27 141.48
  A 1.20 1.19 6.3 0 0 175.44 140.55
  L 176.45 136.10
  A 0.79 0.79 0.0 0 1 177.27 135.49
  L 201.85 137.10
  A 0.43 0.43 0.0 0 1 202.25 137.53
  L 202.25 163.46
  A 0.37 0.37 0.0 0 1 201.88 163.83
  L 188.19 163.85
  A 0.82 0.82 0.0 0 0 187.38 164.65
  L 187.38 164.72
  A 0.76 0.75 1.1 0 0 188.14 165.50
  L 201.93 165.50
  A 0.32 0.32 0.0 0 1 202.25 165.82
  L 202.25 191.39
  A 0.69 0.69 0.0 0 1 201.60 192.08
  L 177.29 193.62
  A 0.56 0.56 0.0 0 1 176.72 193.23
  L 175.28 188.72
  A 0.75 0.74 -13.0 0 0 174.45 188.21
  L 174.11 188.27
  A 0.66 0.65 76.9 0 0 173.59 189.11
  L 174.93 193.29
  A 0.62 0.61 -13.2 0 1 174.43 194.08
  L 162.59 195.81
  A 2.00 1.95 -66.5 0 0 161.73 196.16
  Q 160.69 196.92 160.34 198.31
  A 1.61 1.58 37.2 0 0 160.52 199.56
  C 164.64 206.33 169.17 211.62 165.26 218.58
  Q 165.18 219.38 164.43 219.86
  L 159.32 223.49
  A 1.12 1.09 -5.5 0 0 158.98 223.89
  Q 158.75 224.37 159.12 224.07
  Q 158.38 224.56 158.19 224.99
  L 158.09 224.69
  A 0.34 0.34 0.0 0 0 157.60 224.51
  L 151.39 227.98
  L 149.93 228.80
  Q 145.35 231.30 140.68 233.98
  C 136.10 236.60 133.49 237.21 128.93 235.26
  C 125.25 233.69 121.92 226.22 119.85 222.62
  A 1.19 1.17 -15.0 0 0 118.83 222.04
  L 107.99 222.04
  A 1.14 1.14 0.0 0 0 107.01 222.60
  C 104.88 226.26 102.27 232.01 99.43 234.03
  Q 93.88 237.99 87.69 234.50
  Q 72.89 226.14 65.80 221.95
  C 59.24 218.07 58.72 211.65 62.69 205.45
  Q 63.78 203.75 66.63 198.77
  A 1.28 1.27 -45.6 0 0 66.62 197.50
  L 61.26 188.21
  A 1.04 1.04 0.0 0 0 60.36 187.69
  L 49.08 187.69
  A 1.11 0.90 -32.4 0 1 48.83 187.66
  Q 40.25 185.29 40.28 177.00
  Q 40.32 160.63 40.23 155.78
  Q 40.10 149.36 40.95 147.33
  C 43.30 141.67 47.88 140.73 53.99 140.80
  Q 58.96 140.86 61.10 140.91
  A 0.97 0.96 -74.0 0 0 61.97 140.42
  L 67.38 131.06
  A 0.86 0.86 0.0 0 0 67.37 130.19
  Q 66.27 128.32 63.52 123.70
  C 60.47 118.58 59.74 114.92 62.48 110.32
  Q 63.48 108.63 67.53 106.28
  Q 73.83 102.63 87.62 94.61
  Q 94.60 90.55 99.98 94.80
  C 103.24 97.39 105.68 103.14 108.07 107.15
  A 1.16 1.14 -15.0 0 0 109.06 107.71
  L 119.45 107.71
  A 0.84 0.83 15.0 0 0 120.17 107.30
  Q 123.59 101.48 124.03 100.65
  C 127.22 94.68 131.33 91.67 137.98 93.65
  A 3.28 3.22 -21.1 0 1 138.79 94.00
  L 150.08 100.49
  Z
  M 77.88 226.07
  Q 86.21 230.94 87.91 231.89
  C 94.13 235.38 97.70 233.89 101.38 227.47
  Q 104.68 221.70 106.04 219.32
  A 0.40 0.39 -71.9 0 1 106.43 219.12
  Q 113.91 219.95 120.30 219.17
  A 0.81 0.79 -16.6 0 1 121.10 219.59
  Q 123.39 223.85 126.65 229.56
  Q 129.96 235.35 136.41 233.57
  A 4.36 3.88 19.3 0 0 137.26 233.22
  Q 144.74 229.00 159.66 220.48
  Q 167.24 216.16 162.96 208.50
  Q 158.96 201.35 157.34 198.82
  A 0.88 0.87 -43.0 0 1 157.38 197.82
  Q 161.51 192.43 164.17 186.19
  A 0.58 0.56 -76.5 0 1 164.72 185.84
  Q 168.13 185.96 175.51 185.99
  C 179.59 186.00 182.07 185.16 184.05 181.84
  Q 185.09 180.09 185.02 174.50
  Q 184.97 170.83 185.13 152.53
  Q 185.17 147.88 181.77 145.44
  Q 179.48 143.79 173.91 143.89
  Q 165.72 144.04 165.01 144.03
  A 0.88 0.87 -11.9 0 1 164.21 143.52
  Q 161.19 137.03 159.57 134.90
  Q 158.23 133.15 157.64 132.21
  A 1.02 1.02 0.0 0 1 157.62 131.14
  L 164.39 119.80
  A 0.75 0.66 -23.1 0 0 164.48 119.61
  Q 165.69 115.85 164.04 112.69
  Q 163.24 111.15 158.78 108.50
  Q 158.36 108.25 149.75 103.22
  Q 141.14 98.18 140.72 97.93
  Q 136.22 95.34 134.49 95.40
  Q 130.92 95.51 128.24 98.41
  A 0.75 0.66 83.8 0 0 128.12 98.58
  L 121.55 110.04
  A 1.02 1.02 0.0 0 1 120.61 110.55
  Q 119.50 110.49 117.32 110.18
  Q 114.67 109.81 107.53 110.36
  A 0.88 0.87 72.6 0 1 106.69 109.91
  Q 106.34 109.30 102.45 102.09
  Q 99.81 97.18 97.25 96.00
  Q 93.46 94.23 89.42 96.54
  Q 73.55 105.65 70.33 107.40
  Q 65.42 110.08 64.40 111.85
  C 62.48 115.20 62.96 117.77 64.97 121.32
  Q 68.61 127.74 70.39 130.66
  A 0.58 0.56 -42.8 0 1 70.35 131.31
  Q 66.22 136.68 63.54 142.93
  A 0.88 0.87 -76.3 0 1 62.69 143.45
  Q 59.69 143.28 51.50 143.29
  Q 42.73 143.32 42.67 152.04
  Q 42.56 169.22 42.55 177.81
  A 4.36 3.88 41.4 0 0 42.66 178.72
  Q 44.27 185.22 50.94 185.27
  Q 57.51 185.31 62.35 185.22
  A 0.81 0.79 77.3 0 1 63.10 185.71
  Q 65.56 191.66 69.95 197.78
  A 0.40 0.39 -47.5 0 1 69.96 198.21
  Q 68.55 200.57 65.14 206.27
  C 61.35 212.62 61.80 216.47 67.89 220.18
  Q 69.55 221.20 77.88 226.07
  Z"
/>
<path fill="#ffffff" d="
  M 327.44 101.97
  Q 331.27 104.15 335.07 106.34
  Q 340.70 109.56 341.78 111.36
  Q 343.99 115.00 341.55 119.51
  Q 337.54 126.93 335.10 130.35
  A 0.71 0.71 0.0 0 0 335.12 131.20
  Q 336.95 133.47 339.00 136.97
  Q 341.04 140.46 342.12 143.17
  A 0.71 0.71 0.0 0 0 342.85 143.61
  Q 347.03 143.16 355.47 143.30
  Q 360.58 143.39 362.68 147.10
  Q 363.71 148.92 363.77 155.40
  Q 363.80 159.79 363.83 164.20
  Q 363.85 168.61 363.86 173.00
  Q 363.88 179.48 362.87 181.32
  Q 360.81 185.06 355.70 185.20
  Q 347.26 185.43 343.08 185.03
  A 0.71 0.71 0.0 0 0 342.35 185.47
  Q 341.31 188.19 339.30 191.71
  Q 337.29 195.24 335.49 197.52
  A 0.71 0.71 0.0 0 0 335.47 198.38
  Q 337.95 201.77 342.05 209.14
  Q 344.53 213.62 342.37 217.29
  Q 341.30 219.10 335.71 222.38
  Q 331.93 224.61 328.12 226.83
  Q 324.32 229.06 320.52 231.27
  Q 314.92 234.52 312.82 234.56
  Q 308.56 234.65 305.88 230.29
  Q 301.46 223.10 299.72 219.28
  A 0.71 0.71 0.0 0 0 298.97 218.87
  Q 296.09 219.33 292.04 219.35
  Q 287.98 219.37 285.10 218.95
  A 0.71 0.71 0.0 0 0 284.35 219.37
  Q 282.66 223.21 278.32 230.44
  Q 275.68 234.83 271.42 234.79
  Q 269.32 234.77 263.68 231.58
  Q 259.87 229.42 256.03 227.23
  Q 252.20 225.05 248.40 222.86
  Q 242.77 219.64 241.69 217.84
  Q 239.48 214.20 241.92 209.70
  Q 245.93 202.27 248.37 198.86
  A 0.71 0.71 0.0 0 0 248.35 198.00
  Q 246.52 195.74 244.47 192.24
  Q 242.43 188.74 241.35 186.03
  A 0.71 0.71 0.0 0 0 240.62 185.59
  Q 236.44 186.04 228.00 185.90
  Q 222.89 185.82 220.79 182.11
  Q 219.76 180.28 219.70 173.80
  Q 219.67 169.41 219.64 165.00
  Q 219.62 160.59 219.61 156.20
  Q 219.59 149.72 220.60 147.88
  Q 222.66 144.15 227.77 144.01
  Q 236.21 143.77 240.39 144.18
  A 0.71 0.71 0.0 0 0 241.12 143.73
  Q 242.16 141.01 244.17 137.49
  Q 246.18 133.97 247.98 131.68
  A 0.71 0.71 0.0 0 0 248.00 130.83
  Q 245.52 127.44 241.42 120.06
  Q 238.94 115.58 241.11 111.92
  Q 242.17 110.11 247.76 106.82
  Q 251.54 104.59 255.35 102.37
  Q 259.15 100.14 262.95 97.94
  Q 268.55 94.68 270.65 94.64
  Q 274.91 94.55 277.59 98.91
  Q 282.01 106.10 283.75 109.92
  A 0.71 0.71 0.0 0 0 284.50 110.33
  Q 287.38 109.88 291.43 109.85
  Q 295.49 109.83 298.37 110.25
  A 0.71 0.71 0.0 0 0 299.12 109.84
  Q 300.81 106.00 305.15 98.76
  Q 307.79 94.37 312.05 94.41
  Q 314.15 94.43 319.79 97.62
  Q 323.60 99.79 327.44 101.97
  Z
  M 257.37 105.84
  Q 248.58 110.98 247.13 111.85
  C 242.65 114.52 243.90 116.35 246.28 120.59
  Q 249.43 126.20 251.43 128.65
  C 252.51 129.97 252.75 131.83 251.87 133.05
  Q 248.87 137.19 247.59 139.44
  Q 246.31 141.69 244.27 146.37
  C 243.67 147.76 241.95 148.50 240.26 148.24
  Q 237.13 147.77 230.70 147.92
  C 225.84 148.03 223.63 147.88 223.61 153.10
  Q 223.61 154.79 223.66 164.98
  Q 223.72 175.16 223.74 176.86
  C 223.82 182.07 226.03 181.90 230.89 181.96
  Q 237.32 182.04 240.44 181.53
  C 242.13 181.25 243.86 181.98 244.47 183.35
  Q 246.56 188.02 247.87 190.25
  Q 249.17 192.48 252.21 196.59
  C 253.11 197.80 252.89 199.67 251.82 201.00
  Q 249.85 203.47 246.76 209.11
  C 244.43 213.38 243.20 215.22 247.70 217.84
  Q 249.17 218.70 258.02 223.74
  Q 266.86 228.78 268.35 229.61
  C 272.90 232.15 273.86 230.15 276.34 225.97
  Q 279.62 220.44 280.74 217.48
  C 281.35 215.89 282.84 214.75 284.34 214.90
  Q 289.42 215.43 292.01 215.41
  Q 294.59 215.40 299.67 214.82
  C 301.17 214.65 302.67 215.77 303.29 217.36
  Q 304.45 220.31 307.79 225.80
  C 310.32 229.96 311.30 231.94 315.82 229.35
  Q 317.30 228.51 326.09 223.37
  Q 334.88 218.23 336.33 217.36
  C 340.81 214.69 339.56 212.86 337.18 208.62
  Q 334.03 203.01 332.03 200.56
  C 330.95 199.24 330.71 197.38 331.60 196.16
  Q 334.59 192.02 335.87 189.77
  Q 337.15 187.52 339.19 182.84
  C 339.79 181.45 341.51 180.71 343.20 180.97
  Q 346.33 181.44 352.76 181.29
  C 357.62 181.18 359.83 181.33 359.85 176.11
  Q 359.85 174.42 359.80 164.23
  Q 359.74 154.05 359.72 152.35
  C 359.65 147.14 357.44 147.31 352.57 147.25
  Q 346.14 147.17 343.02 147.68
  C 341.34 147.96 339.60 147.23 338.99 145.86
  Q 336.90 141.19 335.59 138.96
  Q 334.29 136.73 331.25 132.62
  C 330.35 131.41 330.57 129.54 331.64 128.21
  Q 333.61 125.74 336.70 120.10
  C 339.03 115.83 340.26 113.99 335.76 111.37
  Q 334.29 110.51 325.44 105.47
  Q 316.60 100.43 315.11 99.60
  C 310.56 97.06 309.61 99.06 307.12 103.24
  Q 303.84 108.77 302.72 111.73
  C 302.11 113.32 300.62 114.46 299.12 114.30
  Q 294.04 113.78 291.45 113.80
  Q 288.87 113.81 283.79 114.39
  C 282.29 114.56 280.79 113.44 280.17 111.85
  Q 279.01 108.90 275.67 103.41
  C 273.14 99.25 272.16 97.27 267.64 99.86
  Q 266.17 100.70 257.37 105.84
  Z"
/>
<path fill="#ffffff" d="
  M 149.75 103.22
  Q 158.36 108.25 158.78 108.50
  Q 163.24 111.15 164.04 112.69
  Q 165.69 115.85 164.48 119.61
  A 0.75 0.66 -23.1 0 1 164.39 119.80
  L 157.62 131.14
  A 1.02 1.02 0.0 0 0 157.64 132.21
  Q 158.23 133.15 159.57 134.90
  Q 161.19 137.03 164.21 143.52
  A 0.88 0.87 -11.9 0 0 165.01 144.03
  Q 165.72 144.04 173.91 143.89
  Q 179.48 143.79 181.77 145.44
  Q 185.17 147.88 185.13 152.53
  Q 184.97 170.83 185.02 174.50
  Q 185.09 180.09 184.05 181.84
  C 182.07 185.16 179.59 186.00 175.51 185.99
  Q 168.13 185.96 164.72 185.84
  A 0.58 0.56 -76.5 0 0 164.17 186.19
  Q 161.51 192.43 157.38 197.82
  A 0.88 0.87 -43.0 0 0 157.34 198.82
  Q 158.96 201.35 162.96 208.50
  Q 167.24 216.16 159.66 220.48
  Q 144.74 229.00 137.26 233.22
  A 4.36 3.88 19.3 0 1 136.41 233.57
  Q 129.96 235.35 126.65 229.56
  Q 123.39 223.85 121.10 219.59
  A 0.81 0.79 -16.6 0 0 120.30 219.17
  Q 113.91 219.95 106.43 219.12
  A 0.40 0.39 -71.9 0 0 106.04 219.32
  Q 104.68 221.70 101.38 227.47
  C 97.70 233.89 94.13 235.38 87.91 231.89
  Q 86.21 230.94 77.88 226.07
  Q 69.55 221.20 67.89 220.18
  C 61.80 216.47 61.35 212.62 65.14 206.27
  Q 68.55 200.57 69.96 198.21
  A 0.40 0.39 -47.5 0 0 69.95 197.78
  Q 65.56 191.66 63.10 185.71
  A 0.81 0.79 77.3 0 0 62.35 185.22
  Q 57.51 185.31 50.94 185.27
  Q 44.27 185.22 42.66 178.72
  A 4.36 3.88 41.4 0 1 42.55 177.81
  Q 42.56 169.22 42.67 152.04
  Q 42.73 143.32 51.50 143.29
  Q 59.69 143.28 62.69 143.45
  A 0.88 0.87 -76.3 0 0 63.54 142.93
  Q 66.22 136.68 70.35 131.31
  A 0.58 0.56 -42.8 0 0 70.39 130.66
  Q 68.61 127.74 64.97 121.32
  C 62.96 117.77 62.48 115.20 64.40 111.85
  Q 65.42 110.08 70.33 107.40
  Q 73.55 105.65 89.42 96.54
  Q 93.46 94.23 97.25 96.00
  Q 99.81 97.18 102.45 102.09
  Q 106.34 109.30 106.69 109.91
  A 0.88 0.87 72.6 0 0 107.53 110.36
  Q 114.67 109.81 117.32 110.18
  Q 119.50 110.49 120.61 110.55
  A 1.02 1.02 0.0 0 0 121.55 110.04
  L 128.12 98.58
  A 0.75 0.66 83.8 0 1 128.24 98.41
  Q 130.92 95.51 134.49 95.40
  Q 136.22 95.34 140.72 97.93
  Q 141.14 98.18 149.75 103.22
  Z
  M 113.55 215.67
  Q 116.83 215.68 120.88 215.22
  A 3.38 3.38 0.0 0 1 124.26 217.00
  Q 125.88 220.07 129.44 226.37
  C 131.21 229.52 132.91 231.14 136.38 229.13
  Q 150.38 221.06 156.48 217.67
  C 159.87 215.78 161.61 214.34 159.56 210.46
  Q 158.60 208.64 154.03 201.00
  C 153.06 199.37 152.58 197.94 153.72 196.41
  Q 158.46 190.03 160.92 183.93
  A 3.50 3.49 12.4 0 1 164.33 181.76
  Q 169.17 181.98 175.64 181.97
  C 181.20 181.96 180.96 179.51 180.98 174.32
  Q 181.03 159.05 181.11 152.80
  C 181.14 150.26 180.34 148.22 177.61 148.07
  Q 171.90 147.77 164.42 148.11
  A 3.54 3.52 77.1 0 1 161.02 145.96
  Q 158.32 139.53 154.06 133.82
  A 3.92 3.92 0.0 0 1 153.95 129.30
  Q 157.09 124.64 160.26 118.78
  Q 162.28 115.07 158.88 113.08
  Q 144.95 104.96 138.19 100.97
  C 134.93 99.04 132.99 98.34 130.76 101.97
  Q 127.30 107.62 124.62 112.90
  A 2.84 2.83 15.4 0 1 121.89 114.44
  Q 118.05 114.17 114.11 114.15
  Q 110.18 114.13 106.34 114.36
  A 2.84 2.83 -14.8 0 1 103.62 112.78
  Q 101.00 107.47 97.61 101.78
  C 95.42 98.13 93.47 98.81 90.19 100.70
  Q 83.38 104.62 69.36 112.58
  Q 65.94 114.53 67.92 118.26
  Q 71.02 124.16 74.11 128.85
  A 3.92 3.92 0.0 0 1 73.95 133.37
  Q 69.63 139.03 66.86 145.43
  A 3.54 3.52 -76.5 0 1 63.43 147.55
  Q 55.96 147.12 50.24 147.36
  C 47.51 147.48 46.69 149.51 46.69 152.05
  Q 46.70 158.30 46.58 173.57
  C 46.54 178.76 46.28 181.21 51.84 181.28
  Q 58.31 181.36 63.15 181.19
  A 3.50 3.49 -11.8 0 1 66.53 183.40
  Q 68.92 189.53 73.59 195.96
  C 74.72 197.51 74.22 198.93 73.23 200.55
  Q 68.58 208.14 67.60 209.95
  C 65.50 213.80 67.23 215.26 70.60 217.19
  Q 76.66 220.65 90.57 228.87
  C 94.01 230.92 95.73 229.32 97.54 226.19
  Q 101.17 219.93 102.82 216.88
  A 3.38 3.38 0.0 0 1 106.22 215.14
  Q 110.27 215.65 113.55 215.67
  Z"
/>
<path fill="#0a40ad" d="
  M 239.97 108.61
  L 238.76 110.28
  C 216.66 95.77 188.94 95.85 167.00 110.62
  Q 166.56 110.92 166.46 111.31
  Q 166.35 111.75 166.45 112.20
  L 166.05 110.74
  A 1.15 1.12 -84.2 0 0 165.48 110.02
  Q 164.41 109.45 164.82 109.32
  Q 178.47 100.27 194.51 98.37
  Q 219.07 95.47 239.97 108.61
  Z"
/>
<path fill="#0d2772" d="
  M 291.45 113.80
  Q 294.04 113.78 299.12 114.30
  C 300.62 114.46 302.11 113.32 302.72 111.73
  Q 303.84 108.77 307.12 103.24
  C 309.61 99.06 310.56 97.06 315.11 99.60
  Q 316.60 100.43 325.44 105.47
  Q 334.29 110.51 335.76 111.37
  C 340.26 113.99 339.03 115.83 336.70 120.10
  Q 333.61 125.74 331.64 128.21
  C 330.57 129.54 330.35 131.41 331.25 132.62
  Q 334.29 136.73 335.59 138.96
  Q 336.90 141.19 338.99 145.86
  C 339.60 147.23 341.34 147.96 343.02 147.68
  Q 346.14 147.17 352.57 147.25
  C 357.44 147.31 359.65 147.14 359.72 152.35
  Q 359.74 154.05 359.80 164.23
  Q 359.85 174.42 359.85 176.11
  C 359.83 181.33 357.62 181.18 352.76 181.29
  Q 346.33 181.44 343.20 180.97
  C 341.51 180.71 339.79 181.45 339.19 182.84
  Q 337.15 187.52 335.87 189.77
  Q 334.59 192.02 331.60 196.16
  C 330.71 197.38 330.95 199.24 332.03 200.56
  Q 334.03 203.01 337.18 208.62
  C 339.56 212.86 340.81 214.69 336.33 217.36
  Q 334.88 218.23 326.09 223.37
  Q 317.30 228.51 315.82 229.35
  C 311.30 231.94 310.32 229.96 307.79 225.80
  Q 304.45 220.31 303.29 217.36
  C 302.67 215.77 301.17 214.65 299.67 214.82
  Q 294.59 215.40 292.01 215.41
  Q 289.42 215.43 284.34 214.90
  C 282.84 214.75 281.35 215.89 280.74 217.48
  Q 279.62 220.44 276.34 225.97
  C 273.86 230.15 272.90 232.15 268.35 229.61
  Q 266.86 228.78 258.02 223.74
  Q 249.17 218.70 247.70 217.84
  C 243.20 215.22 244.43 213.38 246.76 209.11
  Q 249.85 203.47 251.82 201.00
  C 252.89 199.67 253.11 197.80 252.21 196.59
  Q 249.17 192.48 247.87 190.25
  Q 246.56 188.02 244.47 183.35
  C 243.86 181.98 242.13 181.25 240.44 181.53
  Q 237.32 182.04 230.89 181.96
  C 226.03 181.90 223.82 182.07 223.74 176.86
  Q 223.72 175.16 223.66 164.98
  Q 223.61 154.79 223.61 153.10
  C 223.63 147.88 225.84 148.03 230.70 147.92
  Q 237.13 147.77 240.26 148.24
  C 241.95 148.50 243.67 147.76 244.27 146.37
  Q 246.31 141.69 247.59 139.44
  Q 248.87 137.19 251.87 133.05
  C 252.75 131.83 252.51 129.97 251.43 128.65
  Q 249.43 126.20 246.28 120.59
  C 243.90 116.35 242.65 114.52 247.13 111.85
  Q 248.58 110.98 257.37 105.84
  Q 266.17 100.70 267.64 99.86
  C 272.16 97.27 273.14 99.25 275.67 103.41
  Q 279.01 108.90 280.17 111.85
  C 280.79 113.44 282.29 114.56 283.79 114.39
  Q 288.87 113.81 291.45 113.80
  Z
  M 323.12 164.58
  A 31.38 31.38 0.0 0 0 291.74 133.20
  A 31.38 31.38 0.0 0 0 260.36 164.58
  A 31.38 31.38 0.0 0 0 291.74 195.96
  A 31.38 31.38 0.0 0 0 323.12 164.58
  Z"
/>
<path fill="#0d2772" d="
  M 114.11 114.15
  Q 118.05 114.17 121.89 114.44
  A 2.84 2.83 15.4 0 0 124.62 112.90
  Q 127.30 107.62 130.76 101.97
  C 132.99 98.34 134.93 99.04 138.19 100.97
  Q 144.95 104.96 158.88 113.08
  Q 162.28 115.07 160.26 118.78
  Q 157.09 124.64 153.95 129.30
  A 3.92 3.92 0.0 0 0 154.06 133.82
  Q 158.32 139.53 161.02 145.96
  A 3.54 3.52 77.1 0 0 164.42 148.11
  Q 171.90 147.77 177.61 148.07
  C 180.34 148.22 181.14 150.26 181.11 152.80
  Q 181.03 159.05 180.98 174.32
  C 180.96 179.51 181.20 181.96 175.64 181.97
  Q 169.17 181.98 164.33 181.76
  A 3.50 3.49 12.4 0 0 160.92 183.93
  Q 158.46 190.03 153.72 196.41
  C 152.58 197.94 153.06 199.37 154.03 201.00
  Q 158.60 208.64 159.56 210.46
  C 161.61 214.34 159.87 215.78 156.48 217.67
  Q 150.38 221.06 136.38 229.13
  C 132.91 231.14 131.21 229.52 129.44 226.37
  Q 125.88 220.07 124.26 217.00
  A 3.38 3.38 0.0 0 0 120.88 215.22
  Q 116.83 215.68 113.55 215.67
  Q 110.27 215.65 106.22 215.14
  A 3.38 3.38 0.0 0 0 102.82 216.88
  Q 101.17 219.93 97.54 226.19
  C 95.73 229.32 94.01 230.92 90.57 228.87
  Q 76.66 220.65 70.60 217.19
  C 67.23 215.26 65.50 213.80 67.60 209.95
  Q 68.58 208.14 73.23 200.55
  C 74.22 198.93 74.72 197.51 73.59 195.96
  Q 68.92 189.53 66.53 183.40
  A 3.50 3.49 -11.8 0 0 63.15 181.19
  Q 58.31 181.36 51.84 181.28
  C 46.28 181.21 46.54 178.76 46.58 173.57
  Q 46.70 158.30 46.69 152.05
  C 46.69 149.51 47.51 147.48 50.24 147.36
  Q 55.96 147.12 63.43 147.55
  A 3.54 3.52 -76.5 0 0 66.86 145.43
  Q 69.63 139.03 73.95 133.37
  A 3.92 3.92 0.0 0 0 74.11 128.85
  Q 71.02 124.16 67.92 118.26
  Q 65.94 114.53 69.36 112.58
  Q 83.38 104.62 90.19 100.70
  C 93.47 98.81 95.42 98.13 97.61 101.78
  Q 101.00 107.47 103.62 112.78
  A 2.84 2.83 -14.8 0 0 106.34 114.36
  Q 110.18 114.13 114.11 114.15
  Z
  M 145.17 164.58
  A 31.38 31.38 0.0 0 0 113.79 133.20
  A 31.38 31.38 0.0 0 0 82.41 164.58
  A 31.38 31.38 0.0 0 0 113.79 195.96
  A 31.38 31.38 0.0 0 0 145.17 164.58
  Z"
/>
<path fill="#ffffff" d="
  M 238.76 110.28
  C 238.22 114.16 236.52 115.92 238.83 120.25
  Q 241.19 124.68 243.45 128.22
  A 0.24 0.24 0.0 0 1 243.07 128.51
  Q 231.90 116.12 215.10 111.90
  A 0.20 0.19 -16.7 0 0 214.92 112.23
  C 216.65 113.83 218.91 115.33 220.76 117.30
  Q 226.91 123.90 230.52 133.02
  A 0.84 0.84 0.0 0 0 231.44 133.54
  L 244.62 131.33
  A 0.25 0.24 -88.2 0 1 244.89 131.63
  L 244.77 132.14
  A 1.34 1.33 -88.0 0 1 243.68 133.17
  L 232.20 135.09
  A 0.66 0.66 0.0 0 0 231.69 135.94
  L 233.22 140.74
  A 0.58 0.58 0.0 0 1 232.67 141.50
  L 232.39 141.50
  A 0.96 0.95 81.3 0 1 231.48 140.83
  L 229.93 135.99
  A 0.79 0.79 0.0 0 0 229.08 135.45
  Q 216.65 137.01 204.44 136.87
  A 0.64 0.64 0.0 0 0 203.80 137.51
  L 203.80 163.48
  A 0.36 0.36 0.0 0 0 204.16 163.84
  L 216.76 163.84
  A 0.63 0.63 0.0 0 1 217.39 164.47
  L 217.39 164.82
  A 0.68 0.68 0.0 0 1 216.71 165.50
  L 204.41 165.50
  A 0.62 0.61 90.0 0 0 203.80 166.12
  L 203.80 191.88
  A 0.44 0.44 0.0 0 0 204.25 192.32
  Q 216.97 192.12 229.24 193.68
  A 0.59 0.58 12.7 0 0 229.87 193.29
  L 231.21 189.20
  A 1.25 1.24 8.8 0 1 232.38 188.35
  L 232.43 188.35
  A 0.64 0.64 0.0 0 1 233.02 189.21
  L 231.62 193.18
  A 0.63 0.62 -75.7 0 0 232.10 194.00
  Q 233.32 194.20 243.07 195.89
  Q 244.23 196.09 245.40 198.06
  A 0.90 0.89 -45.9 0 1 245.41 198.95
  Q 243.15 202.88 240.30 207.35
  Q 236.66 213.05 239.68 219.27
  Q 231.02 224.60 224.62 226.62
  Q 192.94 236.63 165.26 218.58
  C 169.17 211.62 164.64 206.33 160.52 199.56
  A 1.61 1.58 37.2 0 1 160.34 198.31
  Q 160.69 196.92 161.73 196.16
  A 2.00 1.95 -66.5 0 1 162.59 195.81
  L 174.43 194.08
  A 0.62 0.61 -13.2 0 0 174.93 193.29
  L 173.59 189.11
  A 0.66 0.65 76.9 0 1 174.11 188.27
  L 174.45 188.21
  A 0.75 0.74 -13.0 0 1 175.28 188.72
  L 176.72 193.23
  A 0.56 0.56 0.0 0 0 177.29 193.62
  L 201.60 192.08
  A 0.69 0.69 0.0 0 0 202.25 191.39
  L 202.25 165.82
  A 0.32 0.32 0.0 0 0 201.93 165.50
  L 188.14 165.50
  A 0.76 0.75 1.1 0 1 187.38 164.72
  L 187.38 164.65
  A 0.82 0.82 0.0 0 1 188.19 163.85
  L 201.88 163.83
  A 0.37 0.37 0.0 0 0 202.25 163.46
  L 202.25 137.53
  A 0.43 0.43 0.0 0 0 201.85 137.10
  L 177.27 135.49
  A 0.79 0.79 0.0 0 0 176.45 136.10
  L 175.44 140.55
  A 1.20 1.19 6.3 0 1 174.27 141.48
  L 173.99 141.48
  A 0.47 0.46 -83.5 0 1 173.54 140.91
  L 174.72 135.74
  A 0.56 0.55 10.6 0 0 174.26 135.07
  L 161.94 133.23
  A 1.42 1.41 -4.6 0 1 160.80 132.27
  L 160.65 131.78
  A 0.31 0.31 0.0 0 1 160.99 131.38
  L 175.30 133.52
  A 0.79 0.77 -74.8 0 0 176.15 133.02
  Q 181.23 119.66 192.12 112.04
  A 0.20 0.20 0.0 0 0 191.97 111.68
  Q 173.73 115.80 161.94 129.60
  A 0.23 0.23 0.0 0 1 161.56 129.33
  C 164.70 123.83 169.16 118.96 166.45 112.20
  Q 166.35 111.75 166.46 111.31
  Q 166.56 110.92 167.00 110.62
  C 188.94 95.85 216.66 95.77 238.76 110.28
  Z
  M 201.63 135.37
  A 0.71 0.70 -88.5 0 0 202.37 134.66
  L 202.22 111.07
  A 0.41 0.40 -3.5 0 0 201.77 110.67
  C 190.04 112.06 182.38 122.45 177.82 133.09
  A 0.68 0.68 0.0 0 0 178.40 134.04
  L 201.63 135.37
  Z
  M 204.58 135.63
  L 228.28 134.13
  A 0.70 0.70 0.0 0 0 228.87 133.16
  C 224.15 122.32 216.26 111.76 204.28 110.42
  A 0.42 0.41 3.1 0 0 203.82 110.83
  L 203.82 134.91
  A 0.72 0.71 88.1 0 0 204.58 135.63
  Z
  M 201.59 193.75
  L 178.36 195.10
  A 0.68 0.68 0.0 0 0 177.78 196.05
  C 182.35 206.70 190.02 217.08 201.75 218.45
  A 0.41 0.40 3.4 0 0 202.21 218.05
  L 202.33 194.46
  A 0.71 0.70 88.4 0 0 201.59 193.75
  Z
  M 204.59 193.55
  A 0.72 0.71 -88.2 0 0 203.83 194.27
  L 203.84 218.34
  A 0.41 0.41 0.0 0 0 204.30 218.75
  C 216.27 217.40 224.15 206.85 228.87 196.01
  A 0.70 0.69 13.7 0 0 228.28 195.04
  L 204.59 193.55
  Z
  M 215.07 216.73
  A 0.24 0.24 0.0 0 0 215.30 217.13
  Q 233.16 212.83 244.72 198.85
  A 0.70 0.70 0.0 0 0 244.29 197.71
  L 231.26 195.64
  A 0.79 0.79 0.0 0 0 230.40 196.15
  Q 226.73 206.06 219.33 213.26
  C 217.92 214.63 216.30 215.46 215.07 216.73
  Z
  M 191.91 217.02
  C 190.64 215.73 188.97 214.89 187.51 213.50
  Q 179.86 206.18 176.02 196.04
  A 0.81 0.81 0.0 0 0 175.13 195.53
  L 161.79 197.76
  A 0.72 0.71 -25.0 0 0 161.36 198.93
  Q 173.33 213.17 191.68 217.44
  A 0.25 0.25 0.0 0 0 191.91 217.02
  Z"
/>
<path fill="#0d2772" d="
  M 201.63 135.37
  L 178.40 134.04
  A 0.68 0.68 0.0 0 1 177.82 133.09
  C 182.38 122.45 190.04 112.06 201.77 110.67
  A 0.41 0.40 -3.5 0 1 202.22 111.07
  L 202.37 134.66
  A 0.71 0.70 -88.5 0 1 201.63 135.37
  Z"
/>
<path fill="#0d2772" d="
  M 203.82 134.91
  L 203.82 110.83
  A 0.42 0.41 3.1 0 1 204.28 110.42
  C 216.26 111.76 224.15 122.32 228.87 133.16
  A 0.70 0.70 0.0 0 1 228.28 134.13
  L 204.58 135.63
  A 0.72 0.71 88.1 0 1 203.82 134.91
  Z"
/>
<path fill="#ffffff" d="
  M 145.17 164.58
  A 31.38 31.38 0.0 0 1 113.79 195.96
  A 31.38 31.38 0.0 0 1 82.41 164.58
  A 31.38 31.38 0.0 0 1 113.79 133.20
  A 31.38 31.38 0.0 0 1 145.17 164.58
  Z
  M 141.13 164.58
  A 27.39 27.39 0.0 0 0 113.74 137.19
  A 27.39 27.39 0.0 0 0 86.35 164.58
  A 27.39 27.39 0.0 0 0 113.74 191.97
  A 27.39 27.39 0.0 0 0 141.13 164.58
  Z"
/>
<path fill="#ffffff" d="
  M 323.12 164.58
  A 31.38 31.38 0.0 0 1 291.74 195.96
  A 31.38 31.38 0.0 0 1 260.36 164.58
  A 31.38 31.38 0.0 0 1 291.74 133.20
  A 31.38 31.38 0.0 0 1 323.12 164.58
  Z
  M 319.14 164.56
  A 27.38 27.38 0.0 0 0 291.76 137.18
  A 27.38 27.38 0.0 0 0 264.38 164.56
  A 27.38 27.38 0.0 0 0 291.76 191.94
  A 27.38 27.38 0.0 0 0 319.14 164.56
  Z"
/>
<path fill="#0d2772" d="
  M 319.14 164.56
  A 27.38 27.38 0.0 0 1 291.76 191.94
  A 27.38 27.38 0.0 0 1 264.38 164.56
  A 27.38 27.38 0.0 0 1 291.76 137.18
  A 27.38 27.38 0.0 0 1 319.14 164.56
  Z
  M 282.78 141.45
  L 281.23 142.04
  Q 277.93 143.25 275.53 145.82
  L 274.13 147.09
  Q 270.78 149.90 269.41 153.83
  Q 267.30 156.52 267.57 158.92
  Q 266.36 163.63 267.10 168.72
  Q 267.33 170.30 267.93 171.10
  Q 267.78 171.45 267.98 171.68
  Q 268.16 171.88 268.54 171.77
  Q 269.52 171.50 269.87 172.21
  C 268.68 176.27 271.09 179.34 273.74 181.83
  A 0.39 0.38 -63.8 0 0 274.38 181.61
  L 275.12 177.02
  Q 276.20 176.89 277.07 177.26
  L 275.90 183.36
  A 1.18 1.16 -70.0 0 0 276.46 184.59
  L 280.34 186.83
  A 0.58 0.57 21.7 0 0 281.19 186.47
  L 283.22 178.00
  Q 284.18 178.43 284.92 179.31
  L 283.28 187.11
  A 1.29 1.28 -77.7 0 0 284.25 188.63
  Q 301.03 192.49 311.22 180.19
  Q 315.88 174.57 316.54 167.25
  C 318.05 150.45 304.26 137.70 287.51 140.02
  Q 285.03 140.36 282.78 141.45
  Z"
/>
<path fill="#0d2772" d="
  M 141.13 164.58
  A 27.39 27.39 0.0 0 1 113.74 191.97
  A 27.39 27.39 0.0 0 1 86.35 164.58
  A 27.39 27.39 0.0 0 1 113.74 137.19
  A 27.39 27.39 0.0 0 1 141.13 164.58
  Z
  M 121.32 180.79
  L 123.35 180.94
  L 124.60 186.32
  A 0.46 0.46 0.0 0 0 125.20 186.65
  Q 129.04 185.29 130.01 182.71
  Q 130.70 181.55 131.67 181.82
  Q 134.89 178.99 136.12 175.61
  Q 136.73 173.93 135.99 171.75
  Q 136.56 169.88 137.66 170.68
  Q 140.03 165.01 137.67 159.07
  Q 138.45 157.25 136.44 155.06
  Q 135.57 150.82 131.80 147.31
  Q 130.73 147.09 130.25 146.26
  Q 128.69 143.59 125.02 142.39
  Q 124.04 141.81 123.08 141.69
  Q 121.59 140.58 120.52 140.38
  Q 104.78 137.40 95.22 147.98
  C 85.53 158.72 87.04 175.41 98.30 184.19
  Q 107.46 191.34 119.47 189.04
  Q 121.10 188.73 122.49 187.96
  A 0.68 0.68 0.0 0 0 122.82 187.22
  L 121.32 180.79
  Z"
/>
<path fill="#ffffff" d="
  M 123.08 141.69
  Q 117.57 161.06 121.32 180.79
  L 122.82 187.22
  A 0.68 0.68 0.0 0 1 122.49 187.96
  Q 121.10 188.73 119.47 189.04
  Q 107.46 191.34 98.30 184.19
  C 87.04 175.41 85.53 158.72 95.22 147.98
  Q 104.78 137.40 120.52 140.38
  Q 121.59 140.58 123.08 141.69
  Z"
/>
<path fill="#ffffff" d="
  M 284.92 179.31
  Q 288.19 160.28 282.78 141.45
  Q 285.03 140.36 287.51 140.02
  C 304.26 137.70 318.05 150.45 316.54 167.25
  Q 315.88 174.57 311.22 180.19
  Q 301.03 192.49 284.25 188.63
  A 1.29 1.28 -77.7 0 1 283.28 187.11
  L 284.92 179.31
  Z"
/>
<path fill="#0a40ad" d="
  M 282.78 141.45
  Q 288.19 160.28 284.92 179.31
  Q 284.18 178.43 283.22 178.00
  Q 285.15 165.37 283.47 153.51
  Q 282.87 149.27 281.23 142.04
  L 282.78 141.45
  Z"
/>
<path fill="#0a40ad" d="
  M 125.02 142.39
  Q 119.28 161.66 123.35 180.94
  L 121.32 180.79
  Q 117.57 161.06 123.08 141.69
  Q 124.04 141.81 125.02 142.39
  Z"
/>
<path fill="#ffffff" d="
  M 130.25 146.26
  Q 125.76 164.33 130.01 182.71
  Q 129.04 185.29 125.20 186.65
  A 0.46 0.46 0.0 0 1 124.60 186.32
  L 123.35 180.94
  Q 119.28 161.66 125.02 142.39
  Q 128.69 143.59 130.25 146.26
  Z"
/>
<path fill="#ffffff" d="
  M 281.23 142.04
  Q 282.87 149.27 283.47 153.51
  Q 285.15 165.37 283.22 178.00
  L 281.19 186.47
  A 0.58 0.57 21.7 0 1 280.34 186.83
  L 276.46 184.59
  A 1.18 1.16 -70.0 0 1 275.90 183.36
  L 277.07 177.26
  Q 279.75 161.32 275.53 145.82
  Q 277.93 143.25 281.23 142.04
  Z"
/>
<path fill="#0a40ad" d="
  M 275.53 145.82
  Q 279.75 161.32 277.07 177.26
  Q 276.20 176.89 275.12 177.02
  Q 277.64 162.12 274.13 147.09
  L 275.53 145.82
  Z"
/>
<path fill="#0a40ad" d="
  M 131.80 147.31
  Q 127.67 164.36 131.67 181.82
  Q 130.70 181.55 130.01 182.71
  Q 125.76 164.33 130.25 146.26
  Q 130.73 147.09 131.80 147.31
  Z"
/>
<path fill="#ffffff" d="
  M 274.13 147.09
  Q 277.64 162.12 275.12 177.02
  L 274.38 181.61
  A 0.39 0.38 -63.8 0 1 273.74 181.83
  C 271.09 179.34 268.68 176.27 269.87 172.21
  Q 271.05 163.04 269.41 153.83
  Q 270.78 149.90 274.13 147.09
  Z"
/>
<path fill="#ffffff" d="
  M 131.80 147.31
  Q 135.57 150.82 136.44 155.06
  Q 134.88 163.45 135.99 171.75
  Q 136.73 173.93 136.12 175.61
  Q 134.89 178.99 131.67 181.82
  Q 127.67 164.36 131.80 147.31
  Z"
/>
<path fill="#0a40ad" d="
  M 269.41 153.83
  Q 271.05 163.04 269.87 172.21
  Q 269.52 171.50 268.54 171.77
  Q 268.16 171.88 267.98 171.68
  Q 267.78 171.45 267.93 171.10
  Q 268.36 170.77 268.43 170.20
  Q 269.06 164.49 267.57 158.92
  Q 267.30 156.52 269.41 153.83
  Z"
/>
<path fill="#0a40ad" d="
  M 137.67 159.07
  Q 136.90 164.79 137.66 170.68
  Q 136.56 169.88 135.99 171.75
  Q 134.88 163.45 136.44 155.06
  Q 138.45 157.25 137.67 159.07
  Z"
/>
<path fill="#ffffff" d="
  M 137.67 159.07
  Q 140.03 165.01 137.66 170.68
  Q 136.90 164.79 137.67 159.07
  Z"
/>
<path fill="#ffffff" d="
  M 267.93 171.10
  Q 267.33 170.30 267.10 168.72
  Q 266.36 163.63 267.57 158.92
  Q 269.06 164.49 268.43 170.20
  Q 268.36 170.77 267.93 171.10
  Z"
/>
<path fill="#0d2772" d="
  M 201.59 193.75
  A 0.71 0.70 88.4 0 1 202.33 194.46
  L 202.21 218.05
  A 0.41 0.40 3.4 0 1 201.75 218.45
  C 190.02 217.08 182.35 206.70 177.78 196.05
  A 0.68 0.68 0.0 0 1 178.36 195.10
  L 201.59 193.75
  Z"
/>
<path fill="#0d2772" d="
  M 204.59 193.55
  L 228.28 195.04
  A 0.70 0.69 13.7 0 1 228.87 196.01
  C 224.15 206.85 216.27 217.40 204.30 218.75
  A 0.41 0.41 0.0 0 1 203.84 218.34
  L 203.83 194.27
  A 0.72 0.71 -88.2 0 1 204.59 193.55
  Z"
/>
<path fill="#0d2772" d="
  M 215.07 216.73
  C 216.30 215.46 217.92 214.63 219.33 213.26
  Q 226.73 206.06 230.40 196.15
  A 0.79 0.79 0.0 0 1 231.26 195.64
  L 244.29 197.71
  A 0.70 0.70 0.0 0 1 244.72 198.85
  Q 233.16 212.83 215.30 217.13
  A 0.24 0.24 0.0 0 1 215.07 216.73
  Z"
/>
<path fill="#0d2772" d="
  M 191.91 217.02
  A 0.25 0.25 0.0 0 1 191.68 217.44
  Q 173.33 213.17 161.36 198.93
  A 0.72 0.71 -25.0 0 1 161.79 197.76
  L 175.13 195.53
  A 0.81 0.81 0.0 0 1 176.02 196.04
  Q 179.86 206.18 187.51 213.50
  C 188.97 214.89 190.64 215.73 191.91 217.02
  Z"
/>
<path fill="#0a40ad" d="
  M 239.68 219.27
  Q 239.66 220.04 240.48 220.59
  C 222.02 233.70 197.88 235.77 177.20 227.09
  Q 169.84 224.00 164.43 219.86
  Q 165.18 219.38 165.26 218.58
  Q 192.94 236.63 224.62 226.62
  Q 231.02 224.60 239.68 219.27
  Z"
/>
<path fill="#ffffff" d="
  M 164.43 219.86
  Q 169.84 224.00 177.20 227.09
  C 197.88 235.77 222.02 233.70 240.48 220.59
  L 246.38 224.67
  A 2.98 2.18 65.2 0 0 246.83 224.92
  Q 250.23 226.37 253.11 228.67
  Q 253.79 229.21 253.24 229.14
  C 241.21 237.76 228.22 243.72 213.37 245.39
  Q 178.54 249.29 151.39 227.98
  L 157.60 224.51
  A 0.34 0.34 0.0 0 1 158.09 224.69
  L 158.19 224.99
  Q 158.78 225.73 159.51 226.24
  Q 170.06 233.59 183.09 237.41
  C 204.94 243.80 227.78 239.04 246.48 226.17
  A 0.58 0.58 0.0 0 0 246.51 225.23
  L 246.38 225.13
  A 1.15 1.14 -42.7 0 0 245.06 225.08
  C 234.02 232.17 222.90 236.58 209.73 237.65
  C 193.60 238.97 178.44 235.70 164.90 227.50
  Q 161.99 225.75 159.12 224.07
  Q 158.75 224.37 158.98 223.89
  A 1.12 1.09 -5.5 0 1 159.32 223.49
  L 164.43 219.86
  Z"
/>
<path fill="#0a40ad" d="
  M 159.12 224.07
  Q 161.99 225.75 164.90 227.50
  C 178.44 235.70 193.60 238.97 209.73 237.65
  C 222.90 236.58 234.02 232.17 245.06 225.08
  A 1.15 1.14 -42.7 0 1 246.38 225.13
  L 246.51 225.23
  A 0.58 0.58 0.0 0 1 246.48 226.17
  C 227.78 239.04 204.94 243.80 183.09 237.41
  Q 170.06 233.59 159.51 226.24
  Q 158.78 225.73 158.19 224.99
  Q 158.38 224.56 159.12 224.07
  Z"
/>
<path fill="#0a40ad" d="
  M 151.39 227.98
  Q 178.54 249.29 213.37 245.39
  C 228.22 243.72 241.21 237.76 253.24 229.14
  Q 253.88 229.35 254.37 230.10
  Q 243.51 238.86 230.27 243.53
  Q 202.28 253.38 174.45 243.13
  Q 161.20 238.24 149.93 228.80
  L 151.39 227.98
  Z"
/>
<ellipse fill="#0d2772" cx="0.00" cy="0.00" transform="translate(309.77,265.82) rotate(-1.3)" rx="7.39" ry="7.21"/>
<path fill="#0d2772" d="
  M 348.60 278.97
  A 0.26 0.25 17.1 0 0 349.00 278.76
  L 349.00 259.29
  A 0.55 0.55 0.0 0 1 349.55 258.74
  L 360.72 258.74
  A 0.61 0.61 0.0 0 1 361.33 259.35
  L 361.33 317.37
  A 0.53 0.52 0.0 0 1 360.80 317.89
  Q 358.89 317.89 355.68 317.91
  C 352.17 317.93 350.47 317.39 350.31 313.75
  A 0.58 0.57 -24.4 0 0 349.32 313.38
  C 340.61 322.28 327.61 319.48 323.84 307.38
  Q 321.20 298.92 323.38 290.06
  C 326.17 278.70 338.12 271.94 348.60 278.97
  Z
  M 348.96 289.29
  A 3.14 3.12 11.8 0 0 347.07 286.42
  C 334.12 280.80 333.89 298.08 336.08 304.99
  C 338.00 311.04 345.34 309.56 348.53 305.95
  A 1.76 1.73 66.0 0 0 348.96 304.80
  L 348.96 289.29
  Z"
/>
<rect fill="#0d2772" x="43.82" y="260.60" width="13.40" height="57.28" rx="0.49"/>
<path fill="#0d2772" d="
  M 114.49 286.44
  A 1.08 1.07 81.3 0 0 113.19 285.48
  C 107.80 286.66 108.84 282.46 108.81 278.83
  A 0.70 0.69 85.7 0 1 109.40 278.14
  L 114.71 277.25
  A 0.84 0.83 -87.8 0 0 115.38 276.62
  L 117.60 266.86
  A 2.14 2.12 -83.5 0 1 119.67 265.20
  L 126.15 265.20
  A 0.58 0.58 0.0 0 1 126.73 265.78
  L 126.73 276.80
  A 0.44 0.44 0.0 0 0 127.17 277.24
  L 136.32 277.24
  A 0.31 0.31 0.0 0 1 136.63 277.55
  L 136.63 285.28
  A 0.28 0.28 0.0 0 1 136.35 285.56
  L 127.37 285.56
  A 0.66 0.66 0.0 0 0 126.71 286.22
  Q 126.65 304.66 126.80 306.18
  C 127.19 310.13 130.23 308.78 132.57 308.11
  A 1.38 1.36 -22.8 0 1 134.14 308.74
  L 137.55 314.64
  A 0.51 0.51 0.0 0 1 137.38 315.32
  C 131.14 319.31 119.73 320.40 115.75 312.76
  Q 114.32 310.02 114.38 301.54
  Q 114.50 286.46 114.49 286.44
  Z"
/>
<path fill="#0d2772" d="
  M 198.32 282.75
  Q 200.01 281.00 201.48 279.50
  Q 206.16 274.71 212.66 276.80
  A 1.30 1.29 14.1 0 1 213.54 278.26
  L 212.00 286.75
  A 1.58 1.58 0.0 0 1 210.48 288.05
  Q 210.31 288.06 206.95 287.86
  C 202.14 287.58 198.36 291.25 198.68 296.21
  Q 198.71 296.76 198.70 317.36
  A 0.54 0.54 0.0 0 1 198.16 317.90
  L 187.09 317.90
  A 0.54 0.54 0.0 0 1 186.55 317.36
  L 186.55 277.18
  A 0.36 0.36 0.0 0 1 186.91 276.82
  L 194.46 276.82
  A 2.79 2.78 -4.8 0 1 197.21 279.14
  L 197.78 282.58
  A 0.32 0.32 0.0 0 0 198.32 282.75
  Z"
/>
<path fill="#0d2772" d="
  M 77.99 280.67
  A 0.51 0.51 0.0 0 0 78.83 280.88
  Q 84.29 275.49 92.56 276.61
  Q 99.72 277.57 102.61 284.46
  C 104.01 287.82 103.87 290.84 103.89 294.51
  Q 103.94 306.35 103.90 317.36
  A 0.56 0.56 0.0 0 1 103.34 317.92
  L 92.21 317.92
  A 0.52 0.52 0.0 0 1 91.69 317.41
  Q 91.67 298.29 91.72 293.55
  Q 91.78 289.04 90.49 287.52
  C 87.45 283.91 82.47 286.03 79.51 289.01
  A 1.41 1.40 -23.0 0 0 79.11 289.99
  L 79.11 317.43
  A 0.47 0.47 0.0 0 1 78.64 317.90
  L 67.44 317.90
  A 0.55 0.55 0.0 0 1 66.89 317.35
  L 66.89 277.45
  A 0.62 0.62 0.0 0 1 67.51 276.83
  L 74.79 276.83
  A 2.71 2.70 -8.8 0 1 77.37 278.71
  L 77.99 280.67
  Z"
/>
<path fill="#0d2772" d="
  M 153.03 299.97
  C 153.70 305.10 156.31 309.20 162.02 309.21
  C 166.41 309.22 168.80 307.61 172.01 306.18
  A 2.81 2.79 -31.5 0 1 175.33 306.97
  L 178.55 310.90
  A 0.97 0.97 0.0 0 1 178.47 312.21
  C 168.56 321.62 149.24 320.86 142.97 307.36
  C 139.05 298.92 140.01 288.02 146.99 281.52
  C 151.86 276.99 157.60 275.94 164.08 276.60
  C 174.90 277.70 180.66 287.98 178.93 298.15
  A 1.56 1.56 0.0 0 1 177.39 299.45
  L 153.49 299.45
  A 0.46 0.46 0.0 0 0 153.03 299.97
  Z
  M 153.63 292.48
  L 168.11 292.36
  A 0.23 0.23 0.0 0 0 168.34 292.12
  L 168.34 291.94
  A 7.17 7.07 -0.5 0 0 161.11 284.94
  L 160.51 284.94
  A 7.17 7.07 -0.5 0 0 153.40 292.08
  L 153.40 292.26
  A 0.23 0.23 0.0 0 0 153.63 292.48
  Z"
/>
<path fill="#0d2772" d="
  M 296.7229 299.4323
  A 18.84 18.84 0.0 0 1 277.8173 318.2064
  L 274.0573 318.1933
  A 18.84 18.84 0.0 0 1 255.2832 299.2877
  L 255.2971 295.3077
  A 18.84 18.84 0.0 0 1 274.2027 276.5336
  L 277.9627 276.5467
  A 18.84 18.84 0.0 0 1 296.7368 295.4523
  L 296.7229 299.4323
  Z
  M 267.74 297.39
  C 267.74 303.06 268.97 309.18 276.00 309.19
  C 283.02 309.20 284.27 303.08 284.28 297.41
  C 284.29 291.73 283.05 285.61 276.03 285.60
  C 269.01 285.59 267.75 291.71 267.74 297.39
  Z"
/>
<path fill="#0d2772" d="
  M 235.86 286.05
  L 219.30 286.05
  A 0.43 0.43 0.0 0 1 218.87 285.62
  L 218.87 277.26
  A 0.44 0.44 0.0 0 1 219.31 276.82
  L 249.87 276.82
  A 0.59 0.58 -0.0 0 1 250.46 277.40
  L 250.46 282.37
  A 5.50 5.49 -26.5 0 1 249.35 285.68
  L 232.42 308.24
  A 0.31 0.31 0.0 0 0 232.67 308.74
  L 249.65 308.74
  A 0.60 0.60 0.0 0 1 250.25 309.34
  L 250.25 317.25
  A 0.65 0.65 0.0 0 1 249.60 317.90
  L 218.48 317.90
  A 0.57 0.56 86.6 0 1 217.92 317.40
  Q 217.40 313.09 218.60 310.14
  A 4.40 4.18 -17.0 0 1 219.08 309.29
  L 236.13 286.59
  A 0.34 0.34 0.0 0 0 235.86 286.05
  Z"
/>
<rect fill="#0d2772" x="303.62" y="276.82" width="12.18" height="41.08" rx="0.53"/>
<path fill="#ffffff" d="
  M 153.63 292.48
  A 0.23 0.23 0.0 0 1 153.40 292.26
  L 153.40 292.08
  A 7.17 7.07 -0.5 0 1 160.51 284.94
  L 161.11 284.94
  A 7.17 7.07 -0.5 0 1 168.34 291.94
  L 168.34 292.12
  A 0.23 0.23 0.0 0 1 168.11 292.36
  L 153.63 292.48
  Z"
/>
<path fill="#ffffff" d="
  M 348.96 289.29
  L 348.96 304.80
  A 1.76 1.73 66.0 0 1 348.53 305.95
  C 345.34 309.56 338.00 311.04 336.08 304.99
  C 333.89 298.08 334.12 280.80 347.07 286.42
  A 3.14 3.12 11.8 0 1 348.96 289.29
  Z"
/>
<path fill="#ffffff" d="
  M 276.03 285.60
  C 283.05 285.61 284.29 291.73 284.28 297.41
  C 284.27 303.08 283.02 309.20 276.00 309.19
  C 268.97 309.18 267.74 303.06 267.74 297.39
  C 267.75 291.71 269.01 285.59 276.03 285.60
  Z"
/>
</svg>
