<?xml version="1.0" encoding="UTF-8" standalone="no"?>
<!DOCTYPE svg PUBLIC "-//W3C//DTD SVG 1.1//EN" "http://www.w3.org/Graphics/SVG/1.1/DTD/svg11.dtd">
<svg xmlns="http://www.w3.org/2000/svg" version="1.1" viewBox="0.00 0.00 400.00 400.00">
<g stroke-width="2.00" fill="none" stroke-linecap="butt">
<path stroke="#86d5e3" vector-effect="non-scaling-stroke" d="
  M 93.06 118.18
  A 0.51 0.51 0.0 0 0 92.55 117.67
  L 62.55 117.67
  A 0.51 0.51 0.0 0 0 62.04 118.18
  L 62.04 199.44
  A 0.51 0.51 0.0 0 0 62.55 199.95
  L 92.55 199.95
  A 0.51 0.51 0.0 0 0 93.06 199.44
  L 93.06 118.18"
/>
<path stroke="#86d5e3" vector-effect="non-scaling-stroke" d="
  M 136.80 179.52
  Q 163.44 179.58 182.50 179.49
  C 197.18 179.42 216.25 173.70 220.57 157.54
  Q 224.00 144.69 217.67 134.23
  C 210.98 123.19 195.63 118.23 183.24 118.23
  Q 119.02 118.24 110.97 118.19
  A 0.80 0.79 0.0 0 0 110.17 118.98
  L 110.17 139.14
  A 0.70 0.69 0.0 0 0 110.87 139.83
  Q 149.98 139.79 182.31 139.82
  C 188.43 139.82 195.13 141.87 195.06 149.20
  C 194.98 157.09 187.32 158.38 181.25 158.39
  Q 130.42 158.43 110.59 158.36
  A 0.39 0.39 0.0 0 0 110.20 158.75
  L 110.20 200.12
  A 0.77 0.77 0.0 0 0 110.97 200.89
  L 135.61 200.89
  A 0.52 0.52 0.0 0 0 136.13 200.37
  L 136.13 180.20
  A 0.68 0.67 -90.0 0 1 136.80 179.52"
/>
<path stroke="#86d5e3" vector-effect="non-scaling-stroke" d="
  M 337.37 180.10
  L 256.23 180.10
  A 0.52 0.52 0.0 0 1 255.72 179.68
  Q 254.85 175.23 256.43 170.97
  A 2.39 2.38 -4.8 0 1 257.48 169.73
  Q 260.17 168.19 263.25 168.19
  Q 298.38 168.14 303.25 168.19
  C 318.95 168.37 337.54 163.83 337.34 144.32
  Q 337.18 127.83 322.67 121.88
  Q 313.83 118.25 304.25 118.23
  Q 299.00 118.22 251.99 118.22
  A 3.03 3.01 -70.6 0 0 249.63 119.36
  L 234.01 139.14
  A 0.50 0.49 19.2 0 0 234.40 139.94
  Q 292.29 139.90 302.50 139.94
  C 305.63 139.95 310.32 140.39 311.31 143.68
  C 312.82 148.70 308.99 151.33 304.49 151.34
  Q 266.86 151.37 258.73 151.38
  Q 253.75 151.39 246.38 153.36
  Q 234.84 156.45 231.25 165.85
  Q 229.59 170.18 229.92 181.75
  Q 230.05 186.18 230.04 200.98
  A 0.64 0.64 0.0 0 0 230.68 201.62
  L 319.76 201.62
  A 2.63 2.63 0.0 0 0 321.83 200.61
  L 337.63 180.62
  A 0.33 0.32 18.9 0 0 337.37 180.10"
/>
<path stroke="#86d5e3" vector-effect="non-scaling-stroke" d="
  M 100.28 240.63
  Q 100.61 240.63 100.73 240.87
  Q 103.43 246.27 112.17 261.77
  C 114.49 265.89 116.77 268.38 121.46 267.42
  Q 125.50 266.59 126.56 263.19
  Q 131.35 247.79 137.12 227.41
  A 0.50 0.49 7.9 0 0 136.64 226.78
  L 125.84 226.78
  A 1.05 1.04 7.6 0 0 124.83 227.55
  L 118.68 250.34
  A 0.35 0.35 0.0 0 1 118.34 250.60
  Q 118.04 250.60 117.88 250.33
  Q 116.42 247.80 108.83 233.15
  C 106.56 228.76 105.35 226.05 100.31 226.04
  C 95.28 226.03 94.05 228.74 91.76 233.11
  Q 84.11 247.73 82.64 250.26
  Q 82.48 250.53 82.18 250.53
  A 0.35 0.35 0.0 0 1 81.84 250.26
  L 75.79 227.45
  A 1.05 1.04 -7.4 0 0 74.78 226.67
  L 63.98 226.63
  A 0.50 0.49 -7.7 0 0 63.50 227.26
  Q 69.18 247.66 73.91 263.08
  Q 74.96 266.49 78.99 267.33
  C 83.68 268.31 85.97 265.83 88.31 261.72
  Q 97.11 246.26 99.83 240.87
  Q 99.95 240.63 100.28 240.63"
/>
<path stroke="#86d5e3" vector-effect="non-scaling-stroke" d="
  M 197.60 246.84
  C 197.60 264.54 212.74 267.66 226.96 267.66
  C 241.18 267.66 256.32 264.54 256.32 246.85
  C 256.32 229.16 241.19 226.04 226.96 226.04
  C 212.74 226.04 197.60 229.15 197.60 246.84"
/>
<path stroke="#86d5e3" vector-effect="non-scaling-stroke" d="
  M 166.59 251.33
  Q 176.13 251.33 177.90 251.37
  A 0.62 0.62 0.0 0 1 178.51 251.99
  L 178.51 266.33
  A 0.64 0.63 0.0 0 0 179.15 266.96
  L 190.30 266.96
  A 0.66 0.66 0.0 0 0 190.96 266.30
  L 190.96 227.15
  A 0.44 0.43 90.0 0 0 190.53 226.71
  L 179.04 226.71
  A 0.52 0.52 0.0 0 0 178.52 227.23
  L 178.52 240.53
  A 0.54 0.53 -89.9 0 1 177.98 241.07
  Q 171.98 241.08 166.59 241.08
  Q 161.20 241.07 155.20 241.05
  A 0.54 0.53 89.9 0 1 154.66 240.52
  L 154.68 227.22
  A 0.52 0.52 0.0 0 0 154.16 226.70
  L 142.67 226.68
  A 0.44 0.43 -89.9 0 0 142.24 227.12
  L 142.20 266.27
  A 0.66 0.66 0.0 0 0 142.86 266.93
  L 154.01 266.95
  A 0.64 0.63 0.1 0 0 154.65 266.32
  L 154.66 251.98
  A 0.62 0.62 0.0 0 1 155.27 251.36
  Q 157.05 251.32 166.59 251.33"
/>
<path stroke="#86d5e3" vector-effect="non-scaling-stroke" d="
  M 275.2558 227.2192
  A 0.56 0.56 0.0 0 0 274.6948 226.6602
  L 263.4549 226.6798
  A 0.56 0.56 0.0 0 0 262.8958 227.2408
  L 262.9642 266.4008
  A 0.56 0.56 0.0 0 0 263.5252 266.9598
  L 274.7651 266.9402
  A 0.56 0.56 0.0 0 0 275.3242 266.3792
  L 275.2558 227.2192"
/>
<path stroke="#86d5e3" vector-effect="non-scaling-stroke" d="
  M 281.56 266.89
  Q 300.18 267.04 319.25 266.96
  C 325.57 266.93 332.73 265.37 334.80 258.65
  Q 336.67 252.54 333.85 247.63
  C 331.76 244.01 325.26 242.84 321.50 242.77
  Q 316.06 242.68 297.11 242.75
  A 2.67 2.67 0.0 0 1 294.43 240.21
  L 294.41 239.95
  A 2.47 2.47 0.0 0 1 296.87 237.29
  L 324.94 237.29
  A 2.90 2.89 -70.6 0 0 327.20 236.20
  L 333.98 227.61
  A 0.56 0.56 0.0 0 0 333.54 226.70
  Q 304.05 226.71 299.00 226.72
  C 290.43 226.74 280.61 230.63 282.41 241.04
  C 283.60 247.95 289.38 250.65 295.76 250.72
  Q 308.22 250.86 320.57 250.79
  A 2.77 2.77 0.0 0 1 323.35 253.68
  L 323.35 253.83
  A 2.90 2.90 0.0 0 1 320.45 256.67
  L 290.22 256.66
  A 2.70 2.69 -70.7 0 0 288.11 257.68
  L 281.29 266.32
  A 0.35 0.35 0.0 0 0 281.56 266.89"
/>
<path stroke="#86d5e3" vector-effect="non-scaling-stroke" d="
  M 243.9781 245.8203
  A 9.13 9.13 0.0 0 0 234.8322 236.7063
  L 219.0922 236.7338
  A 9.13 9.13 0.0 0 0 209.9782 245.8797
  L 209.9819 247.9997
  A 9.13 9.13 0.0 0 0 219.1278 257.1137
  L 234.8678 257.0862
  A 9.13 9.13 0.0 0 0 243.9818 247.9403
  L 243.9781 245.8203"
/>
</g>
<path fill="#0dabc6" d="
  M 400.00 0.00
  L 400.00 400.00
  L 0.00 400.00
  L 0.00 0.00
  L 400.00 0.00
  Z
  M 93.06 118.18
  A 0.51 0.51 0.0 0 0 92.55 117.67
  L 62.55 117.67
  A 0.51 0.51 0.0 0 0 62.04 118.18
  L 62.04 199.44
  A 0.51 0.51 0.0 0 0 62.55 199.95
  L 92.55 199.95
  A 0.51 0.51 0.0 0 0 93.06 199.44
  L 93.06 118.18
  Z
  M 136.80 179.52
  Q 163.44 179.58 182.50 179.49
  C 197.18 179.42 216.25 173.70 220.57 157.54
  Q 224.00 144.69 217.67 134.23
  C 210.98 123.19 195.63 118.23 183.24 118.23
  Q 119.02 118.24 110.97 118.19
  A 0.80 0.79 0.0 0 0 110.17 118.98
  L 110.17 139.14
  A 0.70 0.69 0.0 0 0 110.87 139.83
  Q 149.98 139.79 182.31 139.82
  C 188.43 139.82 195.13 141.87 195.06 149.20
  C 194.98 157.09 187.32 158.38 181.25 158.39
  Q 130.42 158.43 110.59 158.36
  A 0.39 0.39 0.0 0 0 110.20 158.75
  L 110.20 200.12
  A 0.77 0.77 0.0 0 0 110.97 200.89
  L 135.61 200.89
  A 0.52 0.52 0.0 0 0 136.13 200.37
  L 136.13 180.20
  A 0.68 0.67 -90.0 0 1 136.80 179.52
  Z
  M 337.37 180.10
  L 256.23 180.10
  A 0.52 0.52 0.0 0 1 255.72 179.68
  Q 254.85 175.23 256.43 170.97
  A 2.39 2.38 -4.8 0 1 257.48 169.73
  Q 260.17 168.19 263.25 168.19
  Q 298.38 168.14 303.25 168.19
  C 318.95 168.37 337.54 163.83 337.34 144.32
  Q 337.18 127.83 322.67 121.88
  Q 313.83 118.25 304.25 118.23
  Q 299.00 118.22 251.99 118.22
  A 3.03 3.01 -70.6 0 0 249.63 119.36
  L 234.01 139.14
  A 0.50 0.49 19.2 0 0 234.40 139.94
  Q 292.29 139.90 302.50 139.94
  C 305.63 139.95 310.32 140.39 311.31 143.68
  C 312.82 148.70 308.99 151.33 304.49 151.34
  Q 266.86 151.37 258.73 151.38
  Q 253.75 151.39 246.38 153.36
  Q 234.84 156.45 231.25 165.85
  Q 229.59 170.18 229.92 181.75
  Q 230.05 186.18 230.04 200.98
  A 0.64 0.64 0.0 0 0 230.68 201.62
  L 319.76 201.62
  A 2.63 2.63 0.0 0 0 321.83 200.61
  L 337.63 180.62
  A 0.33 0.32 18.9 0 0 337.37 180.10
  Z
  M 100.28 240.63
  Q 100.61 240.63 100.73 240.87
  Q 103.43 246.27 112.17 261.77
  C 114.49 265.89 116.77 268.38 121.46 267.42
  Q 125.50 266.59 126.56 263.19
  Q 131.35 247.79 137.12 227.41
  A 0.50 0.49 7.9 0 0 136.64 226.78
  L 125.84 226.78
  A 1.05 1.04 7.6 0 0 124.83 227.55
  L 118.68 250.34
  A 0.35 0.35 0.0 0 1 118.34 250.60
  Q 118.04 250.60 117.88 250.33
  Q 116.42 247.80 108.83 233.15
  C 106.56 228.76 105.35 226.05 100.31 226.04
  C 95.28 226.03 94.05 228.74 91.76 233.11
  Q 84.11 247.73 82.64 250.26
  Q 82.48 250.53 82.18 250.53
  A 0.35 0.35 0.0 0 1 81.84 250.26
  L 75.79 227.45
  A 1.05 1.04 -7.4 0 0 74.78 226.67
  L 63.98 226.63
  A 0.50 0.49 -7.7 0 0 63.50 227.26
  Q 69.18 247.66 73.91 263.08
  Q 74.96 266.49 78.99 267.33
  C 83.68 268.31 85.97 265.83 88.31 261.72
  Q 97.11 246.26 99.83 240.87
  Q 99.95 240.63 100.28 240.63
  Z
  M 197.60 246.84
  C 197.60 264.54 212.74 267.66 226.96 267.66
  C 241.18 267.66 256.32 264.54 256.32 246.85
  C 256.32 229.16 241.19 226.04 226.96 226.04
  C 212.74 226.04 197.60 229.15 197.60 246.84
  Z
  M 166.59 251.33
  Q 176.13 251.33 177.90 251.37
  A 0.62 0.62 0.0 0 1 178.51 251.99
  L 178.51 266.33
  A 0.64 0.63 0.0 0 0 179.15 266.96
  L 190.30 266.96
  A 0.66 0.66 0.0 0 0 190.96 266.30
  L 190.96 227.15
  A 0.44 0.43 90.0 0 0 190.53 226.71
  L 179.04 226.71
  A 0.52 0.52 0.0 0 0 178.52 227.23
  L 178.52 240.53
  A 0.54 0.53 -89.9 0 1 177.98 241.07
  Q 171.98 241.08 166.59 241.08
  Q 161.20 241.07 155.20 241.05
  A 0.54 0.53 89.9 0 1 154.66 240.52
  L 154.68 227.22
  A 0.52 0.52 0.0 0 0 154.16 226.70
  L 142.67 226.68
  A 0.44 0.43 -89.9 0 0 142.24 227.12
  L 142.20 266.27
  A 0.66 0.66 0.0 0 0 142.86 266.93
  L 154.01 266.95
  A 0.64 0.63 0.1 0 0 154.65 266.32
  L 154.66 251.98
  A 0.62 0.62 0.0 0 1 155.27 251.36
  Q 157.05 251.32 166.59 251.33
  Z
  M 275.2558 227.2192
  A 0.56 0.56 0.0 0 0 274.6948 226.6602
  L 263.4549 226.6798
  A 0.56 0.56 0.0 0 0 262.8958 227.2408
  L 262.9642 266.4008
  A 0.56 0.56 0.0 0 0 263.5252 266.9598
  L 274.7651 266.9402
  A 0.56 0.56 0.0 0 0 275.3242 266.3792
  L 275.2558 227.2192
  Z
  M 281.56 266.89
  Q 300.18 267.04 319.25 266.96
  C 325.57 266.93 332.73 265.37 334.80 258.65
  Q 336.67 252.54 333.85 247.63
  C 331.76 244.01 325.26 242.84 321.50 242.77
  Q 316.06 242.68 297.11 242.75
  A 2.67 2.67 0.0 0 1 294.43 240.21
  L 294.41 239.95
  A 2.47 2.47 0.0 0 1 296.87 237.29
  L 324.94 237.29
  A 2.90 2.89 -70.6 0 0 327.20 236.20
  L 333.98 227.61
  A 0.56 0.56 0.0 0 0 333.54 226.70
  Q 304.05 226.71 299.00 226.72
  C 290.43 226.74 280.61 230.63 282.41 241.04
  C 283.60 247.95 289.38 250.65 295.76 250.72
  Q 308.22 250.86 320.57 250.79
  A 2.77 2.77 0.0 0 1 323.35 253.68
  L 323.35 253.83
  A 2.90 2.90 0.0 0 1 320.45 256.67
  L 290.22 256.66
  A 2.70 2.69 -70.7 0 0 288.11 257.68
  L 281.29 266.32
  A 0.35 0.35 0.0 0 0 281.56 266.89
  Z"
/>
<rect fill="#ffffff" x="62.04" y="117.67" width="31.02" height="82.28" rx="0.51"/>
<path fill="#ffffff" d="
  M 136.80 179.52
  A 0.68 0.67 90.0 0 0 136.13 180.20
  L 136.13 200.37
  A 0.52 0.52 0.0 0 1 135.61 200.89
  L 110.97 200.89
  A 0.77 0.77 0.0 0 1 110.20 200.12
  L 110.20 158.75
  A 0.39 0.39 0.0 0 1 110.59 158.36
  Q 130.42 158.43 181.25 158.39
  C 187.32 158.38 194.98 157.09 195.06 149.20
  C 195.13 141.87 188.43 139.82 182.31 139.82
  Q 149.98 139.79 110.87 139.83
  A 0.70 0.69 0.0 0 1 110.17 139.14
  L 110.17 118.98
  A 0.80 0.79 -0.0 0 1 110.97 118.19
  Q 119.02 118.24 183.24 118.23
  C 195.63 118.23 210.98 123.19 217.67 134.23
  Q 224.00 144.69 220.57 157.54
  C 216.25 173.70 197.18 179.42 182.50 179.49
  Q 163.44 179.58 136.80 179.52
  Z"
/>
<path fill="#ffffff" d="
  M 337.37 180.10
  A 0.33 0.32 18.9 0 1 337.63 180.62
  L 321.83 200.61
  A 2.63 2.63 0.0 0 1 319.76 201.62
  L 230.68 201.62
  A 0.64 0.64 0.0 0 1 230.04 200.98
  Q 230.05 186.18 229.92 181.75
  Q 229.59 170.18 231.25 165.85
  Q 234.84 156.45 246.38 153.36
  Q 253.75 151.39 258.73 151.38
  Q 266.86 151.37 304.49 151.34
  C 308.99 151.33 312.82 148.70 311.31 143.68
  C 310.32 140.39 305.63 139.95 302.50 139.94
  Q 292.29 139.90 234.40 139.94
  A 0.50 0.49 19.2 0 1 234.01 139.14
  L 249.63 119.36
  A 3.03 3.01 -70.6 0 1 251.99 118.22
  Q 299.00 118.22 304.25 118.23
  Q 313.83 118.25 322.67 121.88
  Q 337.18 127.83 337.34 144.32
  C 337.54 163.83 318.95 168.37 303.25 168.19
  Q 298.38 168.14 263.25 168.19
  Q 260.17 168.19 257.48 169.73
  A 2.39 2.38 -4.8 0 0 256.43 170.97
  Q 254.85 175.23 255.72 179.68
  A 0.52 0.52 0.0 0 0 256.23 180.10
  L 337.37 180.10
  Z"
/>
<path fill="#ffffff" d="
  M 100.31 226.04
  C 105.35 226.05 106.56 228.76 108.83 233.15
  Q 116.42 247.80 117.88 250.33
  Q 118.04 250.60 118.34 250.60
  A 0.35 0.35 0.0 0 0 118.68 250.34
  L 124.83 227.55
  A 1.05 1.04 7.6 0 1 125.84 226.78
  L 136.64 226.78
  A 0.50 0.49 7.9 0 1 137.12 227.41
  Q 131.35 247.79 126.56 263.19
  Q 125.50 266.59 121.46 267.42
  C 116.77 268.38 114.49 265.89 112.17 261.77
  Q 103.43 246.27 100.73 240.87
  Q 100.61 240.63 100.28 240.63
  Q 99.95 240.63 99.83 240.87
  Q 97.11 246.26 88.31 261.72
  C 85.97 265.83 83.68 268.31 78.99 267.33
  Q 74.96 266.49 73.91 263.08
  Q 69.18 247.66 63.50 227.26
  A 0.50 0.49 -7.7 0 1 63.98 226.63
  L 74.78 226.67
  A 1.05 1.04 -7.4 0 1 75.79 227.45
  L 81.84 250.26
  A 0.35 0.35 0.0 0 0 82.18 250.53
  Q 82.48 250.53 82.64 250.26
  Q 84.11 247.73 91.76 233.11
  C 94.05 228.74 95.28 226.03 100.31 226.04
  Z"
/>
<path fill="#ffffff" d="
  M 226.96 226.04
  C 241.19 226.04 256.32 229.16 256.32 246.85
  C 256.32 264.54 241.18 267.66 226.96 267.66
  C 212.74 267.66 197.60 264.54 197.60 246.84
  C 197.60 229.15 212.74 226.04 226.96 226.04
  Z
  M 243.9781 245.8203
  A 9.13 9.13 0.0 0 0 234.8322 236.7063
  L 219.0922 236.7338
  A 9.13 9.13 0.0 0 0 209.9782 245.8797
  L 209.9819 247.9997
  A 9.13 9.13 0.0 0 0 219.1278 257.1137
  L 234.8678 257.0862
  A 9.13 9.13 0.0 0 0 243.9818 247.9403
  L 243.9781 245.8203
  Z"
/>
<path fill="#ffffff" d="
  M 166.59 241.08
  Q 171.98 241.08 177.98 241.07
  A 0.54 0.53 -89.9 0 0 178.52 240.53
  L 178.52 227.23
  A 0.52 0.52 0.0 0 1 179.04 226.71
  L 190.53 226.71
  A 0.44 0.43 90.0 0 1 190.96 227.15
  L 190.96 266.30
  A 0.66 0.66 0.0 0 1 190.30 266.96
  L 179.15 266.96
  A 0.64 0.63 -0.0 0 1 178.51 266.33
  L 178.51 251.99
  A 0.62 0.62 0.0 0 0 177.90 251.37
  Q 176.13 251.33 166.59 251.33
  Q 157.05 251.32 155.27 251.36
  A 0.62 0.62 0.0 0 0 154.66 251.98
  L 154.65 266.32
  A 0.64 0.63 0.1 0 1 154.01 266.95
  L 142.86 266.93
  A 0.66 0.66 0.0 0 1 142.20 266.27
  L 142.24 227.12
  A 0.44 0.43 -89.9 0 1 142.67 226.68
  L 154.16 226.70
  A 0.52 0.52 0.0 0 1 154.68 227.22
  L 154.66 240.52
  A 0.54 0.53 89.9 0 0 155.20 241.05
  Q 161.20 241.07 166.59 241.08
  Z"
/>
<rect fill="#ffffff" x="-6.18" y="-20.14" transform="translate(269.11,246.81) rotate(-0.1)" width="12.36" height="40.28" rx="0.56"/>
<path fill="#ffffff" d="
  M 281.56 266.89
  A 0.35 0.35 0.0 0 1 281.29 266.32
  L 288.11 257.68
  A 2.70 2.69 -70.7 0 1 290.22 256.66
  L 320.45 256.67
  A 2.90 2.90 0.0 0 0 323.35 253.83
  L 323.35 253.68
  A 2.77 2.77 0.0 0 0 320.57 250.79
  Q 308.22 250.86 295.76 250.72
  C 289.38 250.65 283.60 247.95 282.41 241.04
  C 280.61 230.63 290.43 226.74 299.00 226.72
  Q 304.05 226.71 333.54 226.70
  A 0.56 0.56 0.0 0 1 333.98 227.61
  L 327.20 236.20
  A 2.90 2.89 -70.6 0 1 324.94 237.29
  L 296.87 237.29
  A 2.47 2.47 0.0 0 0 294.41 239.95
  L 294.43 240.21
  A 2.67 2.67 0.0 0 0 297.11 242.75
  Q 316.06 242.68 321.50 242.77
  C 325.26 242.84 331.76 244.01 333.85 247.63
  Q 336.67 252.54 334.80 258.65
  C 332.73 265.37 325.57 266.93 319.25 266.96
  Q 300.18 267.04 281.56 266.89
  Z"
/>
<rect fill="#0dabc6" x="-17.00" y="-10.19" transform="translate(226.98,246.91) rotate(-0.1)" width="34.00" height="20.38" rx="9.13"/>
</svg>
