<?xml version="1.0" encoding="UTF-8"?>
<!DOCTYPE svg PUBLIC "-//W3C//DTD SVG 1.1//EN" "http://www.w3.org/Graphics/SVG/1.1/DTD/svg11.dtd">
<!-- Creator: CorelDRAW X7 -->
<svg xmlns="http://www.w3.org/2000/svg" xml:space="preserve" width="428.517mm" height="128.41mm" version="1.1" style="shape-rendering:geometricPrecision; text-rendering:geometricPrecision; image-rendering:optimizeQuality; fill-rule:evenodd; clip-rule:evenodd"
viewBox="0 0 99076 29689"
 xmlns:xlink="http://www.w3.org/1999/xlink">
 <defs>
  <style type="text/css">
   <![CDATA[
    .fil1 {fill:#212332}
    .fil0 {fill:#212332}
   ]]>
  </style>
 </defs>
 <g id="Layer_x0020_1">
  <metadata id="CorelCorpID_0Corel-Layer"/>
  <g id="_400301392">
   <path class="fil0" d="M39100 9581l0 10060 -2093 0 0 -10060 2093 0zm-2337 -2907c0,1728 2602,1728 2602,0 0,-1707 -2602,-1707 -2602,0zm10609 11158c-1829,0 -3150,-1402 -3150,-3191 0,-1788 1219,-3191 3150,-3191 1911,0 3171,1301 3171,3191 0,1870 -1342,3191 -3171,3191zm-3333 6463l0 -6117c752,1239 2317,1686 3536,1686 3110,0 5061,-2195 5061,-5223 0,-3028 -2073,-5203 -5061,-5223 -1341,0 -2763,610 -3536,1829l-122 -1626 -1971 0 0 14674 2093 0zm15487 -12926c1748,0 3191,1321 3191,3252 0,1971 -1443,3272 -3191,3272 -1768,0 -3171,-1260 -3171,-3272 0,-2053 1403,-3252 3171,-3252zm3333 -5934l0 5751c-651,-1178 -2297,-1788 -3516,-1788 -2906,0 -5081,1809 -5081,5223 0,3313 2215,5223 5122,5223 1341,0 2682,-508 3475,-1788l122 1585 1971 0 0 -14206 -2093 0zm12926 5772c-630,-1138 -1992,-1809 -3415,-1809 -2886,0 -5182,1870 -5182,5223 0,3414 2215,5304 5142,5284 1239,0 2784,-609 3455,-1890l101 1626 1992 0c0,-3333 0,-6686 0,-10020l-2032 0 -61 1586zm-3252 101c4329,0 4329,6646 0,6646 -1789,0 -3252,-1260 -3252,-3333 0,-2053 1463,-3313 3252,-3313zm9308 -4349l0 2683 -1931 0 0 1808 1931 0 0 4777c0,2357 1240,3597 3414,3536 712,0 1322,-142 2012,-447l-609 -1789c-407,203 -874,346 -1281,346 -975,0 -1443,-589 -1443,-1646l0 -4777 2947 0 0 -1808 -2926 0 0 -2907 -2114 224zm15141 4248c-630,-1138 -1992,-1809 -3414,-1809 -2886,0 -5183,1870 -5183,5223 0,3414 2215,5304 5142,5284 1240,0 2785,-609 3455,-1890l102 1626 1992 0c0,-3333 0,-6686 0,-10020l-2033 0 -61 1586zm-3252 101c4329,0 4329,6646 0,6646 -1788,0 -3252,-1260 -3252,-3333 0,-2053 1464,-3313 3252,-3313z"/>
   <path class="fil1" d="M585 15163c622,2008 1720,3806 3162,5264l9195 9262 5367 -5406 -9031 -9098c-1299,-1308 -1795,-2942 -1795,-4776 0,-2894 1563,-5423 3890,-6789 1167,-685 2526,-1078 3977,-1078 2835,0 5320,1499 6704,3748 896,1455 1297,3335 1297,5035 0,2603 -958,5082 -2710,7004l-543 547 -1789 -1802c1612,-1624 2503,-3409 2503,-5749 0,-2715 -1366,-5256 -3890,-6002 -1539,-455 -3246,-202 -4574,712 3154,-354 5925,2101 5925,5290 0,2692 -1821,4015 -3542,5749l5367 5407 2381 -2399c2119,-2305 3412,-5380 3412,-8757 0,-2242 -574,-4434 -1683,-6386 -1834,-2964 -5115,-4939 -8858,-4939 -1773,0 -3443,444 -4905,1226 -3275,1753 -5504,5208 -5504,9183 0,2531 799,4816 2584,6615l7206 7259 -1789 1802 -7384 -7439c-1308,-1330 -2273,-3094 -2815,-4924 -1260,-4252 -143,-8828 3017,-11975 -5066,2542 -6788,8215 -5175,13416z"/>
  </g>
 </g>
</svg>
