<?xml version="1.0" encoding="UTF-8" standalone="no"?>
<!DOCTYPE svg PUBLIC "-//W3C//DTD SVG 1.1//EN" "http://www.w3.org/Graphics/SVG/1.1/DTD/svg11.dtd">
<svg xmlns="http://www.w3.org/2000/svg" version="1.1" viewBox="0.00 0.00 48.00 48.00">
<path stroke="#ec9397" stroke-width="2.00" fill="none" stroke-linecap="butt" vector-effect="non-scaling-stroke" d="
  M 19.00 18.98
  C 18.99 19.00 18.84 19.10 18.80 19.10
  Q 14.95 19.14 9.02 19.10
  A 0.38 0.38 0.0 0 0 8.64 19.47
  Q 8.63 20.97 8.63 24.16
  Q 8.63 27.36 8.65 28.85
  A 0.38 0.38 0.0 0 0 9.02 29.23
  Q 14.95 29.18 18.81 29.22
  C 18.84 29.22 18.99 29.32 19.00 29.34
  C 19.02 29.35 19.12 29.50 19.12 29.53
  Q 19.16 33.39 19.12 39.32
  A 0.38 0.38 0.0 0 0 19.49 39.69
  Q 20.98 39.70 24.18 39.70
  Q 27.38 39.70 28.87 39.69
  A 0.38 0.38 0.0 0 0 29.25 39.31
  Q 29.20 33.38 29.24 29.53
  C 29.24 29.49 29.34 29.34 29.35 29.33
  C 29.37 29.32 29.52 29.22 29.55 29.22
  Q 33.41 29.18 39.34 29.22
  A 0.38 0.38 0.0 0 0 39.71 28.84
  Q 39.72 27.35 39.72 24.15
  Q 39.72 20.96 39.71 19.47
  A 0.38 0.38 0.0 0 0 39.33 19.09
  Q 33.40 19.13 29.55 19.10
  C 29.51 19.10 29.36 18.99 29.35 18.98
  C 29.34 18.97 29.24 18.82 29.23 18.78
  Q 29.20 14.93 29.24 9.00
  A 0.38 0.38 0.0 0 0 28.86 8.62
  Q 27.37 8.61 24.17 8.61
  Q 20.98 8.61 19.48 8.63
  A 0.38 0.38 0.0 0 0 19.11 9.00
  Q 19.15 14.93 19.12 18.79
  C 19.12 18.82 19.01 18.97 19.00 18.98"
/>
<path fill="#d9272e" d="
  M 45.00 0.00
  Q 47.23 0.72 48.00 2.93
  L 48.00 44.94
  Q 47.35 47.10 45.18 48.00
  L 3.00 48.00
  Q 0.81 47.30 0.00 45.08
  L 0.00 5.26
  Q -0.27 -0.12 4.64 0.00
  L 45.00 0.00
  Z
  M 19.00 18.98
  C 18.99 19.00 18.84 19.10 18.80 19.10
  Q 14.95 19.14 9.02 19.10
  A 0.38 0.38 0.0 0 0 8.64 19.47
  Q 8.63 20.97 8.63 24.16
  Q 8.63 27.36 8.65 28.85
  A 0.38 0.38 0.0 0 0 9.02 29.23
  Q 14.95 29.18 18.81 29.22
  C 18.84 29.22 18.99 29.32 19.00 29.34
  C 19.02 29.35 19.12 29.50 19.12 29.53
  Q 19.16 33.39 19.12 39.32
  A 0.38 0.38 0.0 0 0 19.49 39.69
  Q 20.98 39.70 24.18 39.70
  Q 27.38 39.70 28.87 39.69
  A 0.38 0.38 0.0 0 0 29.25 39.31
  Q 29.20 33.38 29.24 29.53
  C 29.24 29.49 29.34 29.34 29.35 29.33
  C 29.37 29.32 29.52 29.22 29.55 29.22
  Q 33.41 29.18 39.34 29.22
  A 0.38 0.38 0.0 0 0 39.71 28.84
  Q 39.72 27.35 39.72 24.15
  Q 39.72 20.96 39.71 19.47
  A 0.38 0.38 0.0 0 0 39.33 19.09
  Q 33.40 19.13 29.55 19.10
  C 29.51 19.10 29.36 18.99 29.35 18.98
  C 29.34 18.97 29.24 18.82 29.23 18.78
  Q 29.20 14.93 29.24 9.00
  A 0.38 0.38 0.0 0 0 28.86 8.62
  Q 27.37 8.61 24.17 8.61
  Q 20.98 8.61 19.48 8.63
  A 0.38 0.38 0.0 0 0 19.11 9.00
  Q 19.15 14.93 19.12 18.79
  C 19.12 18.82 19.01 18.97 19.00 18.98
  Z"
/>
<path fill="#ffffff" d="
  M 24.17 8.61
  Q 27.37 8.61 28.86 8.62
  A 0.38 0.38 0.0 0 1 29.24 9.00
  Q 29.20 14.93 29.23 18.78
  C 29.24 18.82 29.34 18.97 29.35 18.98
  C 29.36 18.99 29.51 19.10 29.55 19.10
  Q 33.40 19.13 39.33 19.09
  A 0.38 0.38 0.0 0 1 39.71 19.47
  Q 39.72 20.96 39.72 24.15
  Q 39.72 27.35 39.71 28.84
  A 0.38 0.38 0.0 0 1 39.34 29.22
  Q 33.41 29.18 29.55 29.22
  C 29.52 29.22 29.37 29.32 29.35 29.33
  C 29.34 29.34 29.24 29.49 29.24 29.53
  Q 29.20 33.38 29.25 39.31
  A 0.38 0.38 0.0 0 1 28.87 39.69
  Q 27.38 39.70 24.18 39.70
  Q 20.98 39.70 19.49 39.69
  A 0.38 0.38 0.0 0 1 19.12 39.32
  Q 19.16 33.39 19.12 29.53
  C 19.12 29.50 19.02 29.35 19.00 29.34
  C 18.99 29.32 18.84 29.22 18.81 29.22
  Q 14.95 29.18 9.02 29.23
  A 0.38 0.38 0.0 0 1 8.65 28.85
  Q 8.63 27.36 8.63 24.16
  Q 8.63 20.97 8.64 19.47
  A 0.38 0.38 0.0 0 1 9.02 19.10
  Q 14.95 19.14 18.80 19.10
  C 18.84 19.10 18.99 19.00 19.00 18.98
  C 19.01 18.97 19.12 18.82 19.12 18.79
  Q 19.15 14.93 19.11 9.00
  A 0.38 0.38 0.0 0 1 19.48 8.63
  Q 20.98 8.61 24.17 8.61
  Z"
/>
</svg>
