<svg width="731" height="110" viewBox="0 0 731 110" fill="none" xmlns="http://www.w3.org/2000/svg">
<path d="M176.95 23.95H169.91V65.42C169.91 72.3133 168.04 77.4833 164.3 80.93C160.633 84.3767 155.683 86.1 149.45 86.1C143.877 86.1 139.513 84.89 136.36 82.47C133.28 79.9767 130.97 77.0067 129.43 73.56L138.01 67.07C139.403 70.2233 140.943 72.3133 142.63 73.34C144.39 74.2933 146.297 74.77 148.35 74.77C151.65 74.77 154.033 73.9267 155.5 72.24C156.967 70.48 157.7 68.2433 157.7 65.53V23.95H144.5V13.5H176.95V23.95ZM188.836 25.38V12.4H200.826V25.38H188.836ZM208.526 85H182.126V75.98H189.496V44.74H181.686V35.61H201.156V75.98H208.526V85ZM270.675 44.74H263.525V83.13C263.525 90.9767 261.325 97.32 256.925 102.16C252.599 107 246.109 109.42 237.455 109.42C232.322 109.42 227.519 108.32 223.045 106.12C218.572 103.92 215.419 100.143 213.585 94.79L222.715 89.84C225.795 96.5867 230.782 99.96 237.675 99.96C241.782 99.96 245.155 98.4933 247.795 95.56C250.435 92.6267 251.755 88.4467 251.755 83.02V75.65C250.362 78.29 248.345 80.5633 245.705 82.47C243.139 84.3033 239.582 85.22 235.035 85.22C229.242 85.22 224.219 83.2033 219.965 79.17C215.785 75.0633 213.695 69.1233 213.695 61.35C213.695 54.31 215.565 48.1133 219.305 42.76C223.119 37.3333 228.619 34.62 235.805 34.62C243.285 34.62 248.602 37.5167 251.755 43.31V35.61H270.675V44.74ZM251.755 61.46V57.5C251.755 53.3933 250.582 50.13 248.235 47.71C245.889 45.29 242.955 44.08 239.435 44.08C235.329 44.08 232.175 45.5833 229.975 48.59C227.775 51.5233 226.675 55.52 226.675 60.58C226.675 65.7867 227.775 69.6367 229.975 72.13C232.175 74.55 234.962 75.76 238.335 75.76C242.515 75.76 245.779 74.2933 248.125 71.36C250.545 68.4267 251.755 65.1267 251.755 61.46ZM318.478 70.26C318.478 75.3933 316.351 79.3167 312.098 82.03C307.918 84.7433 302.565 86.1 296.038 86.1C292.518 86.1 288.961 85.6967 285.368 84.89C281.848 84.0833 278.658 82.8733 275.798 81.26L277.558 68.5L286.798 69.38L286.688 75.76C288.081 76.3467 289.548 76.75 291.088 76.97C292.701 77.19 294.131 77.3 295.378 77.3C298.385 77.3 300.988 76.7867 303.188 75.76C305.461 74.66 306.598 73.0467 306.598 70.92C306.598 68.8667 305.571 67.4 303.518 66.52C301.538 65.64 299.045 64.98 296.038 64.54C293.031 64.0267 290.025 63.3667 287.018 62.56C284.011 61.68 281.481 60.2867 279.428 58.38C277.448 56.4 276.458 53.4667 276.458 49.58C276.458 43.86 278.621 39.9367 282.948 37.81C287.348 35.6833 291.968 34.62 296.808 34.62C303.188 34.62 309.201 36.1233 314.848 39.13L316.058 51.34L306.818 52.44L305.828 45.07C302.968 43.97 300.071 43.42 297.138 43.42C294.865 43.42 292.921 43.8967 291.308 44.85C289.768 45.73 288.998 47.16 288.998 49.14C288.998 51.1933 289.988 52.6233 291.968 53.43C293.948 54.2367 296.405 54.8967 299.338 55.41C302.271 55.85 305.205 56.51 308.138 57.39C311.071 58.1967 313.528 59.59 315.508 61.57C317.488 63.4767 318.478 66.3733 318.478 70.26ZM329.827 39.24C333.494 37.48 336.757 36.27 339.617 35.61C342.477 34.95 345.777 34.62 349.517 34.62C355.017 34.62 359.527 36.0133 363.047 38.8C366.64 41.5867 368.437 45.7667 368.437 51.34V73.56C368.437 76.4933 369.647 77.96 372.067 77.96C372.727 77.96 373.57 77.8133 374.597 77.52L374.707 84.01C372.287 85.4033 369.647 86.1 366.787 86.1C360.554 86.1 357.18 82.8367 356.667 76.31V76.09C355.2 78.6567 353.11 80.9667 350.397 83.02C347.757 85.0733 344.457 86.1 340.497 86.1C337.05 86.1 333.64 85.0733 330.267 83.02C326.967 80.8933 325.317 77.2267 325.317 72.02C325.317 65.9333 327.737 61.9367 332.577 60.03C337.417 58.05 342.66 57.06 348.307 57.06C349.7 57.06 351.13 57.0967 352.597 57.17C354.064 57.2433 355.42 57.3533 356.667 57.5V54.75C356.667 51.8167 356.154 49.1767 355.127 46.83C354.1 44.4833 351.534 43.31 347.427 43.31C345.887 43.31 344.42 43.42 343.027 43.64C341.707 43.86 340.424 44.3 339.177 44.96L337.197 52.55L327.737 51.56L329.827 39.24ZM356.667 65.42V63.66C355.42 63.5133 354.137 63.3667 352.817 63.22C351.497 63.0733 350.14 63 348.747 63C345.814 63 343.174 63.5133 340.827 64.54C338.554 65.5667 337.417 67.62 337.417 70.7C337.417 75.1733 339.8 77.41 344.567 77.41C347.354 77.41 349.994 76.42 352.487 74.44C354.98 72.3867 356.374 69.38 356.667 65.42ZM457.481 44.63H452.531L438.671 85H429.871L416.231 52.44H415.681L402.811 85H394.451L380.261 44.63H375.421V35.61H400.501V44.63H392.801L400.391 68.39H401.051L413.701 35.61H420.961L435.151 68.06H435.811L441.751 44.63H434.381V35.61H457.481V44.63ZM514.65 63.99C514.65 71.1033 512.157 76.5667 507.17 80.38C502.257 84.1933 495.73 86.1 487.59 86.1C482.75 86.1 478.057 85.5133 473.51 84.34C469.037 83.1667 465.48 81.48 462.84 79.28L464.82 62.89L474.61 63.88L474.39 72.68C476.81 73.9267 479.01 74.7333 480.99 75.1C483.043 75.3933 484.95 75.54 486.71 75.54C490.963 75.54 494.483 74.88 497.27 73.56C500.13 72.1667 501.56 69.4167 501.56 65.31C501.56 60.8367 499.947 57.8667 496.72 56.4C493.493 54.86 489.79 53.6867 485.61 52.88C482.237 52.22 478.827 51.34 475.38 50.24C471.933 49.14 469.073 47.3067 466.8 44.74C464.527 42.1733 463.39 38.3967 463.39 33.41C463.39 25.93 465.92 20.5767 470.98 17.35C476.113 14.05 481.833 12.4 488.14 12.4C492.54 12.4 496.793 13.06 500.9 14.38C505.08 15.7 508.343 17.4233 510.69 19.55L511.35 34.62L501.56 35.5L500.57 26.26C498.517 25.0867 496.463 24.28 494.41 23.84C492.357 23.4 490.377 23.18 488.47 23.18C485.023 23.18 482.163 23.8767 479.89 25.27C477.617 26.6633 476.48 28.9 476.48 31.98C476.48 35.5733 477.873 38.03 480.66 39.35C483.52 40.5967 486.71 41.6233 490.23 42.43C493.237 43.09 496.647 43.97 500.46 45.07C504.273 46.17 507.573 48.15 510.36 51.01C513.22 53.7967 514.65 58.1233 514.65 63.99ZM561.604 70.48C560.21 80.8933 554.417 86.1 544.224 86.1C538.944 86.1 534.727 84.7067 531.574 81.92C528.494 79.1333 526.954 75.2467 526.954 70.26V44.3H519.694V35.61H526.954V20.32H538.724V35.61H557.094V44.3H538.724V68.39C538.724 73.5967 540.997 76.2 545.544 76.2C546.79 76.2 548.184 75.76 549.724 74.88C551.264 73.9267 552.327 71.5433 552.914 67.73L561.604 70.48ZM569.27 39.24C572.937 37.48 576.2 36.27 579.06 35.61C581.92 34.95 585.22 34.62 588.96 34.62C594.46 34.62 598.97 36.0133 602.49 38.8C606.084 41.5867 607.88 45.7667 607.88 51.34V73.56C607.88 76.4933 609.09 77.96 611.51 77.96C612.17 77.96 613.014 77.8133 614.04 77.52L614.15 84.01C611.73 85.4033 609.09 86.1 606.23 86.1C599.997 86.1 596.624 82.8367 596.11 76.31V76.09C594.644 78.6567 592.554 80.9667 589.84 83.02C587.2 85.0733 583.9 86.1 579.94 86.1C576.494 86.1 573.084 85.0733 569.71 83.02C566.41 80.8933 564.76 77.2267 564.76 72.02C564.76 65.9333 567.18 61.9367 572.02 60.03C576.86 58.05 582.104 57.06 587.75 57.06C589.144 57.06 590.574 57.0967 592.04 57.17C593.507 57.2433 594.864 57.3533 596.11 57.5V54.75C596.11 51.8167 595.597 49.1767 594.57 46.83C593.544 44.4833 590.977 43.31 586.87 43.31C585.33 43.31 583.864 43.42 582.47 43.64C581.15 43.86 579.867 44.3 578.62 44.96L576.64 52.55L567.18 51.56L569.27 39.24ZM596.11 65.42V63.66C594.864 63.5133 593.58 63.3667 592.26 63.22C590.94 63.0733 589.584 63 588.19 63C585.257 63 582.617 63.5133 580.27 64.54C577.997 65.5667 576.86 67.62 576.86 70.7C576.86 75.1733 579.244 77.41 584.01 77.41C586.797 77.41 589.437 76.42 591.93 74.44C594.424 72.3867 595.817 69.38 596.11 65.42ZM664.868 67.29C664.355 71.69 662.411 75.9433 659.038 80.05C655.665 84.0833 650.238 86.1 642.758 86.1C635.718 86.1 629.961 83.9733 625.488 79.72C621.088 75.4667 618.888 69.27 618.888 61.13C618.888 53.1367 621.161 46.72 625.708 41.88C630.328 37.04 636.341 34.62 643.748 34.62C646.681 34.62 649.615 34.9867 652.548 35.72C655.481 36.4533 658.378 37.6633 661.238 39.35L663.218 53.21L653.758 54.2L652.108 46.06C649.395 44.74 646.535 44.08 643.528 44.08C635.315 44.08 631.208 49.58 631.208 60.58C631.208 71.2867 635.425 76.64 643.858 76.64C650.018 76.64 653.721 72.9 654.968 65.42L664.868 67.29ZM725.346 85H700.706V75.98H706.426L696.086 63.66H688.166V75.98H693.666V85H669.026V75.98H676.396V18.34H668.586V9.32H688.166V55.19H696.636L705.326 44.74H698.836V35.61H722.926V44.74H716.766L705.106 58.38L720.066 75.98H725.346V85Z" fill="#F53E34"/>
<path d="M46.3373 92.3667C43.8445 90.9272 41.397 89.4044 38.8497 88.0699C35.375 86.2503 35.1638 81.4852 38.612 79.6134C40.7023 78.4791 42.2454 76.8013 42.8502 74.4153C43.7012 71.0652 42.8707 68.1618 40.2652 65.9235C37.7118 63.7331 34.7141 63.1685 31.567 64.4621C28.3905 65.7654 26.6777 68.2452 26.3944 71.6838C26.3642 72.0334 26.382 72.3865 26.3725 72.7361C26.2739 76.4649 22.58 78.6029 19.3264 76.7541C14.0984 73.7828 8.9085 70.7511 3.70484 67.7379C3.42959 67.5789 3.16143 67.3975 2.91626 67.1967C-0.0903951 64.715 -0.880605 60.7575 1.05449 57.3494C3.97238 52.2032 6.93154 47.0779 9.93062 41.9755C11.9309 38.5726 16.2675 38.6583 18.253 42.0835C21.4224 47.5538 28.7716 48.0351 32.4104 42.9678C34.3264 40.3004 34.5584 37.3711 33.1176 34.4379C31.6769 31.5047 29.2169 29.9779 25.9411 29.7618C25.0569 29.7041 24.1152 29.705 23.3132 29.387C20.6782 28.3481 19.5806 25.3792 20.9964 22.8552C23.997 17.4992 27.0368 12.1571 30.2225 6.91094C32.2818 3.51836 36.38 2.4897 39.9837 4.16784C40.4172 4.37069 40.8409 4.60053 41.2559 4.84018C46.0474 7.60354 50.8693 10.3194 55.6121 13.1672C57.1172 14.0717 58.6709 13.2107 58.6179 11.4161C58.4745 6.49723 61.6084 2.1506 66.1479 0.619036C70.8653 -0.975312 75.9801 0.577612 78.9278 4.49925C81.8949 8.44384 82.0728 13.8264 79.1328 17.8264C78.159 19.1494 76.8058 20.3244 75.3817 21.1508C73.9409 21.9852 73.8888 23.7516 75.4213 24.6038C80.3672 27.3558 85.247 30.2268 90.1408 33.0698C93.4095 34.969 94.9574 38.0349 94.2644 41.3878C94.0677 42.3394 93.6931 43.2953 93.2128 44.1427C90.4042 49.0944 87.4836 53.9844 84.7084 58.9555C82.6406 62.6599 77.9213 62.4926 76.0851 58.9788C74.4343 55.8147 70.9884 54.2632 67.5283 54.7962C64.1892 55.3101 61.4143 57.9018 60.6597 61.2131C59.899 64.5504 61.2681 68.0282 64.1653 70.0178C65.5726 70.9839 67.1644 71.5538 68.8614 71.4239C72.9859 71.1083 75.3546 75.3765 73.143 79.0067C70.2322 83.7871 67.5243 88.6878 64.7187 93.5315C62.2434 97.8088 57.8327 98.9945 53.5613 96.5403C51.1503 95.1544 48.7422 93.7581 46.3338 92.3673L46.3373 92.3667Z" fill="#F53E34"/>
</svg>
