<svg width="190" height="25" viewBox="0 0 190 25" fill="currentColor" xmlns="http://www.w3.org/2000/svg" style="fill: rgb(57, 104, 198) !important;">
<g clip-path="url(#clip0_4002_23)" style="fill: rgb(57, 104, 198) !important;">
<path d="M0 23.8143C12.4631 23.8143 22.5668 13.7107 22.5668 1.24756H0V23.8143Z" fill="currentColor" style="fill: rgb(57, 104, 198) !important;"/>
<path d="M54.8931 8.51373C53.5813 7.78746 52.0783 7.42432 50.386 7.42432C48.6936 7.42432 47.1976 7.78919 45.8963 8.51373C44.5949 9.24001 43.5749 10.2443 42.8382 11.5231C42.0998 12.8036 41.7314 14.2788 41.7314 15.9485C41.7314 17.6183 42.105 19.0934 42.8539 20.374C43.6027 21.6545 44.6261 22.6571 45.9275 23.3833C47.2289 24.1096 48.7371 24.4727 50.4503 24.4727C52.12 24.4727 53.6056 24.1079 54.9087 23.3833C56.2101 22.6571 57.2248 21.6528 57.9511 20.374C58.6774 19.0952 59.0405 17.62 59.0405 15.9485C59.0405 14.277 58.6774 12.8036 57.9511 11.5231C57.2248 10.2426 56.2049 9.24001 54.8931 8.51373ZM53.3953 17.9501C53.1034 18.5253 52.7073 18.9753 52.2069 19.3019C51.7065 19.6286 51.1227 19.7902 50.4503 19.7902C49.7553 19.7902 49.1437 19.6286 48.612 19.3019C48.0803 18.9753 47.6685 18.527 47.3766 17.9501C47.083 17.375 46.937 16.7096 46.937 15.9503C46.937 15.191 47.083 14.5238 47.3766 13.9487C47.6685 13.3735 48.0751 12.9235 48.5963 12.5986C49.1176 12.2737 49.7136 12.1104 50.386 12.1104C51.0584 12.1104 51.6561 12.2737 52.1756 12.5986C52.6951 12.9235 53.1034 13.3735 53.3953 13.9487C53.689 14.5238 53.8349 15.191 53.8349 15.9503C53.8349 16.7096 53.689 17.3768 53.3953 17.9501Z" fill="currentColor" style="fill: rgb(57, 104, 198) !important;"/>
<path d="M74.4856 8.44905C73.3788 7.76447 72.067 7.42392 70.5484 7.42392C69.2018 7.42392 68.0759 7.76621 67.1637 8.44905C66.6876 8.80524 66.2776 9.24656 65.9266 9.7626V1.30615H60.8496V24.0831H65.666L65.8449 21.9947C66.2133 22.5715 66.6477 23.0615 67.162 23.4472C68.0724 24.1301 69.2001 24.4723 70.5466 24.4723C72.0652 24.4723 73.377 24.1301 74.4838 23.4472C75.5906 22.7644 76.4368 21.7827 77.0223 20.5021C77.6079 19.2216 77.9015 17.703 77.9015 15.9464C77.9015 14.1689 77.6079 12.6434 77.0223 11.375C76.4351 10.1049 75.5906 9.13015 74.4838 8.44731L74.4856 8.44905ZM72.1747 17.9341C71.8706 18.5214 71.4693 18.9766 70.9706 19.3015C70.4719 19.6264 69.8968 19.7898 69.2453 19.7898C68.5937 19.7898 68.0186 19.6282 67.5199 19.3015C67.0212 18.9766 66.6286 18.5266 66.3488 17.9497C66.0656 17.3746 65.9249 16.7092 65.9249 15.9499C65.9249 15.2114 66.0656 14.5512 66.3488 13.9656C66.6303 13.3784 67.0264 12.9231 67.5373 12.5982C68.0481 12.2733 68.6267 12.11 69.2783 12.11C69.9298 12.11 70.5084 12.2733 71.0192 12.5982C71.5301 12.9231 71.9262 13.3731 72.2077 13.9483C72.4909 14.5234 72.6316 15.1906 72.6316 15.9499C72.6316 16.6883 72.4788 17.3486 72.1747 17.9341Z" fill="currentColor" style="fill: rgb(57, 104, 198) !important;"/>
<path d="M95.6198 15.201L85.6291 1.30615H80.1299V24.0831H85.3702V9.79909L95.6198 24.0831H100.858V1.30615H95.6198V15.201Z" fill="currentColor" style="fill: rgb(57, 104, 198) !important;"/>
<path d="M106.587 0.00488281C105.828 0.00488281 105.161 0.281147 104.587 0.833674C104.014 1.3862 103.726 2.06557 103.726 2.8683C103.726 3.62759 104.014 4.29479 104.587 4.86817C105.163 5.44328 105.828 5.72997 106.587 5.72997C107.369 5.72997 108.042 5.44328 108.605 4.86817C109.167 4.29305 109.451 3.62759 109.451 2.8683C109.451 2.06557 109.167 1.38794 108.605 0.833674C108.042 0.279409 107.369 0.00488281 106.587 0.00488281Z" fill="currentColor" style="fill: rgb(57, 104, 198) !important;"/>
<path d="M109.127 7.81543H104.05V24.0855H109.127V7.81543Z" fill="currentColor" style="fill: rgb(57, 104, 198) !important;"/>
<path d="M131.62 7.42459C130.534 7.42459 129.558 7.71301 128.691 8.28639C127.824 8.85977 127.141 9.6903 126.642 10.7762C126.231 9.6486 125.584 8.80765 124.707 8.25512C123.829 7.70259 122.716 7.42459 121.371 7.42459C120.438 7.42459 119.586 7.63135 118.817 8.04314C118.047 8.45493 117.401 9.06132 116.881 9.86579L116.686 7.81553H111.901V24.0856H116.978V15.4953C116.978 14.3659 117.222 13.525 117.712 12.9725C118.202 12.4199 118.91 12.1541 119.844 12.1749C120.32 12.1958 120.733 12.3278 121.079 12.5659C121.425 12.8039 121.692 13.1775 121.876 13.6883C122.061 14.1991 122.154 14.8872 122.154 15.7542V24.0838H127.231V15.4936C127.231 14.3642 127.475 13.5232 127.965 12.9707C128.453 12.4182 129.164 12.1523 130.095 12.1732C130.573 12.194 130.984 12.3261 131.332 12.5641C131.679 12.8022 131.944 13.1757 132.129 13.6866C132.315 14.1974 132.407 14.8854 132.407 15.7525V24.0821H137.484V14.776C137.505 12.2601 137.022 10.4044 136.035 9.21248C135.048 8.02055 133.58 7.42285 131.627 7.42285L131.62 7.42459Z" fill="currentColor" style="fill: rgb(57, 104, 198) !important;"/>
<path d="M153.676 8.44905C152.569 7.76447 151.257 7.42392 149.739 7.42392C148.392 7.42392 147.266 7.76621 146.354 8.44905C145.878 8.80524 145.468 9.24656 145.117 9.7626V1.30615H140.04V24.0831H144.856L145.035 21.9947C145.404 22.5715 145.838 23.0615 146.352 23.4472C147.263 24.1301 148.391 24.4723 149.737 24.4723C151.256 24.4723 152.567 24.1301 153.674 23.4472C154.781 22.7644 155.627 21.7827 156.213 20.5021C156.798 19.2216 157.092 17.703 157.092 15.9464C157.092 14.1689 156.798 12.6434 156.213 11.375C155.625 10.1049 154.781 9.13015 153.674 8.44731L153.676 8.44905ZM151.367 17.9341C151.063 18.5214 150.661 18.9766 150.163 19.3015C149.664 19.6264 149.089 19.7898 148.437 19.7898C147.786 19.7898 147.211 19.6282 146.712 19.3015C146.213 18.9766 145.821 18.5266 145.541 17.9497C145.258 17.3746 145.117 16.7092 145.117 15.9499C145.117 15.2114 145.258 14.5512 145.541 13.9656C145.822 13.3784 146.219 12.9231 146.729 12.5982C147.24 12.2733 147.819 12.11 148.47 12.11C149.122 12.11 149.701 12.2733 150.211 12.5982C150.722 12.9231 151.118 13.3731 151.4 13.9483C151.683 14.5234 151.824 15.1906 151.824 15.9499C151.824 16.6883 151.671 17.3486 151.367 17.9341Z" fill="currentColor" style="fill: rgb(57, 104, 198) !important;"/>
<path d="M169.329 16.4057C169.329 17.5125 169.08 18.3413 168.58 18.8955C168.079 19.4498 167.344 19.7261 166.368 19.7261C165.869 19.7052 165.435 19.5749 165.066 19.3351C164.696 19.0971 164.415 18.7166 164.22 18.197C164.024 17.6758 163.927 16.9912 163.927 16.1468V7.81717H158.85V17.0902C158.85 18.7826 159.072 20.1709 159.517 21.2568C159.962 22.3427 160.629 23.1489 161.518 23.6806C162.408 24.2123 163.503 24.4781 164.804 24.4781C165.998 24.4781 167.044 24.1636 167.944 23.5347C168.512 23.1368 168.997 22.6121 169.414 21.9848L169.62 24.0889H174.404V7.81543H169.327L169.329 16.4057Z" fill="currentColor" style="fill: rgb(57, 104, 198) !important;"/>
<path d="M189.461 17.2013C189.103 16.4976 188.582 15.879 187.899 15.3474C187.215 14.8174 186.353 14.4317 185.312 14.1936L183.587 13.7367C183 13.6064 182.549 13.4448 182.235 13.2484C181.921 13.0521 181.764 12.8245 181.764 12.5656C181.764 12.2181 181.894 11.9418 182.155 11.7351C182.416 11.5283 182.782 11.4258 183.262 11.4258C183.804 11.4258 184.313 11.5457 184.791 11.7837C185.267 12.0235 185.581 12.3484 185.734 12.7602L189.769 11.1009C189.486 10.3624 189.053 9.71783 188.467 9.1653C187.882 8.61277 187.15 8.18361 186.271 7.87954C185.392 7.57722 184.367 7.42432 183.196 7.42432C181.156 7.42432 179.568 7.87954 178.428 8.79174C177.29 9.70219 176.72 10.9932 176.72 12.6629C176.72 13.8566 177.122 14.9078 177.926 15.82C178.729 16.7304 179.889 17.3698 181.408 17.7382L182.807 18.1291C183.413 18.2594 183.868 18.4227 184.172 18.6173C184.476 18.8137 184.628 19.0847 184.628 19.4322C184.628 19.7797 184.476 20.0404 184.172 20.2124C183.868 20.3861 183.456 20.473 182.937 20.473C182.395 20.473 181.879 20.3375 181.392 20.0664C180.904 19.7954 180.518 19.3888 180.237 18.8467L176.07 20.6033C176.395 21.4286 176.896 22.1219 177.568 22.6849C178.24 23.2495 179.038 23.6891 179.959 24.0019C180.881 24.3164 181.874 24.4745 182.937 24.4745C184.323 24.4745 185.55 24.2677 186.614 23.8559C187.675 23.4441 188.506 22.8638 189.103 22.1149C189.699 21.3661 189.998 20.4834 189.998 19.4618C189.998 18.659 189.819 17.905 189.461 17.1995V17.2013Z" fill="currentColor" style="fill: rgb(57, 104, 198) !important;"/>
<path d="M34.6192 15.9485C34.6192 16.8415 34.468 17.5765 34.1605 18.1533C33.8564 18.7319 33.4533 19.1559 32.9529 19.4269C32.6419 19.5955 32.3031 19.7154 31.9521 19.7814C31.7297 19.8127 31.5855 19.8248 31.3666 19.8248C30.6142 19.8248 29.9644 19.5885 29.4171 19.1159C28.868 18.6433 28.5953 17.891 28.5953 16.8606V14.7652L23.7598 15.6044V17.1178C23.7598 18.2559 23.9474 19.2879 24.3245 20.2123C24.6998 21.1367 25.221 21.9307 25.8882 22.5962C26.5554 23.2616 27.3547 23.7725 28.2894 24.1269C29.2242 24.4814 30.5586 24.636 31.6984 24.636C32.7931 24.5978 33.8199 24.4501 34.7512 24.1478C35.8163 23.7985 36.7337 23.3033 37.4948 22.6622C38.2575 22.0193 38.8465 21.2461 39.2583 20.3426C39.6719 19.4391 39.8804 18.4314 39.8804 17.3193V1.31689H34.6209V15.9485H34.6192Z" fill="currentColor" style="fill: rgb(57, 104, 198) !important;"/>
</g>
<defs style="fill: rgb(57, 104, 198) !important;">
<clipPath id="clip0_4002_23" style="fill: rgb(57, 104, 198) !important;">
<rect width="190" height="24.6412" fill="currentColor" style="fill: rgb(57, 104, 198) !important;"/>
</clipPath>
</defs>
</svg>