<svg width="128" height="128" viewBox="0 0 128 128" fill="none" xmlns="http://www.w3.org/2000/svg">
<g clip-path="url(#clip0_68_5991)">
<path d="M43.412 106.911C45.2626 108.761 43.9903 111.884 41.33 111.884H24.4433C21.0891 111.884 18.4288 109.34 18.4288 106.101V89.9084C18.4288 87.3638 21.6674 86.0915 23.518 87.8264L43.412 106.911Z" fill="#0A1551"/>
<path d="M69.6675 108.299C64.694 103.441 64.694 95.4603 69.6675 90.6025L87.5952 72.9061C92.5687 68.0482 100.665 68.0482 105.639 72.9061C110.612 77.7639 110.612 85.7446 105.639 90.6025L87.7109 108.299C82.7374 113.157 74.641 113.157 69.6675 108.299Z" fill="#FFB21D"/>
<path d="M22.2457 63.8844C17.2723 59.0265 17.2723 51.0458 22.2457 46.188L49.1951 19.7012C54.1686 14.8434 62.265 14.8434 67.2385 19.7012C72.212 24.5591 72.212 32.5398 67.2385 37.3976L40.2891 63.8844C35.3156 68.8579 27.2192 68.8579 22.2457 63.8844Z" fill="#0099FF"/>
<path d="M46.8819 85.1663C41.9084 80.3085 41.9084 72.3277 46.8819 67.4699L87.8264 27.2193C92.7999 22.3615 100.896 22.3615 105.87 27.2193C110.843 32.0771 110.843 40.0579 105.87 44.9157L64.9252 85.1663C59.9517 90.0241 51.971 90.0241 46.8819 85.1663Z" fill="#FF6100"/>
</g>
<defs>
<clipPath id="clip0_68_5991">
<rect width="91.1422" height="96" fill="white" transform="translate(18.4288 16)"/>
</clipPath>
</defs>
</svg>
