<svg width="128" height="128" viewBox="0 0 128 128" fill="none" xmlns="http://www.w3.org/2000/svg">
<g clip-path="url(#clip0_0_1150)">
<path fill-rule="evenodd" clip-rule="evenodd" d="M108.753 4.86365C98.1236 4.86365 89.5066 13.4807 89.5066 24.1104V92.0858H89.4935V124.107H95.9654C113.647 124.107 127.981 109.777 127.987 92.0968H128V24.1104C128 13.4807 119.383 4.86365 108.753 4.86365ZM63.6643 34.8418C53.0348 34.8418 44.4177 43.4591 44.4177 54.0887V124.107H50.9164C68.6013 124.107 82.9379 109.771 82.9379 92.0858L82.9111 54.0887C82.9111 43.4591 74.2941 34.8418 63.6643 34.8418ZM0 83.4318C0 72.8023 8.61705 64.185 19.2467 64.185C29.8764 64.185 38.4934 72.8023 38.4934 83.4318L38.4937 92.0858C38.4937 109.771 24.1571 124.107 6.47206 124.107H0.000139598L0 83.4318Z" fill="#00022B"/>
</g>
<defs>
<clipPath id="clip0_0_1150">
<rect width="128" height="119.273" fill="white" transform="translate(0 4.86365)"/>
</clipPath>
</defs>
</svg>
