<?xml version="1.0" encoding="UTF-8" standalone="no"?>
<!DOCTYPE svg PUBLIC "-//W3C//DTD SVG 1.1//EN" "http://www.w3.org/Graphics/SVG/1.1/DTD/svg11.dtd">
<svg xmlns="http://www.w3.org/2000/svg" version="1.1" viewBox="0.00 0.00 64.00 64.00">
<path fill="#2666be" d="
  M 33.26 64.00
  L 31.05 64.00
  Q 26.13 60.15 24.00 56.99
  Q 23.00 55.52 24.69 53.70
  Q 27.20 50.99 29.84 48.40
  A 3.26 3.22 68.1 0 0 30.81 46.08
  L 30.81 41.60
  A 2.78 2.77 -68.2 0 0 29.95 39.59
  C 26.91 36.67 22.01 33.16 24.62 30.10
  Q 25.85 28.66 29.90 24.72
  A 3.04 3.02 75.8 0 0 30.69 23.39
  C 31.04 22.14 31.19 17.31 29.86 15.91
  Q 28.59 14.57 24.91 10.88
  C 23.44 9.42 23.28 7.88 24.80 6.27
  Q 27.39 3.52 29.62 1.36
  C 33.03 -1.94 36.22 2.87 39.38 6.10
  Q 41.59 8.36 39.61 10.60
  Q 38.25 12.14 34.70 15.59
  A 4.04 4.00 68.2 0 0 33.48 18.48
  L 33.48 22.65
  A 2.97 2.95 -67.9 0 0 34.37 24.77
  Q 36.92 27.26 38.87 29.14
  Q 41.98 32.11 39.02 34.98
  Q 35.00 38.89 34.30 39.71
  A 4.16 3.95 -16.0 0 0 33.57 40.95
  C 33.05 42.41 33.19 47.25 34.75 48.75
  Q 37.30 51.21 39.67 53.77
  Q 41.06 55.28 40.26 57.02
  Q 39.27 59.18 33.26 64.00
  Z"
/>
<path fill="#f38a30" d="
  M 20.30 11.73
  Q 20.96 11.73 21.99 12.58
  Q 25.80 15.71 28.50 19.18
  A 2.01 2.00 -41.8 0 1 28.35 21.80
  L 22.72 27.58
  A 3.73 3.69 68.9 0 0 21.67 29.99
  Q 21.64 30.42 21.65 32.13
  Q 21.65 33.84 21.67 34.27
  A 3.73 3.69 -68.9 0 0 22.72 36.68
  L 28.35 42.46
  A 2.01 2.00 41.8 0 1 28.50 45.08
  Q 25.80 48.55 22.00 51.68
  Q 20.96 52.53 20.31 52.53
  Q 19.65 52.53 18.62 51.68
  Q 14.81 48.55 12.11 45.08
  A 2.01 2.00 -41.8 0 1 12.26 42.46
  L 17.89 36.68
  A 3.73 3.69 68.9 0 0 18.94 34.27
  Q 18.96 33.84 18.96 32.13
  Q 18.96 30.42 18.94 29.99
  A 3.73 3.69 -68.9 0 0 17.89 27.58
  L 12.26 21.80
  A 2.01 2.00 41.8 0 1 12.11 19.18
  Q 14.81 15.71 18.61 12.58
  Q 19.65 11.73 20.30 11.73
  Z"
/>
<path fill="#42af49" d="
  M 64.00 30.87
  L 64.00 33.38
  L 45.39 51.97
  A 2.15 2.14 44.9 0 1 42.36 51.97
  L 35.79 45.39
  A 2.02 2.01 44.7 0 1 35.77 42.56
  Q 43.09 35.08 44.17 33.94
  Q 45.95 32.06 43.81 29.91
  Q 37.27 23.35 35.68 21.54
  A 1.93 1.92 -43.3 0 1 35.76 18.91
  L 42.38 12.29
  A 2.15 2.14 -44.9 0 1 45.41 12.29
  L 64.00 30.87
  Z"
/>
<rect fill="#e6186a" x="-6.82" y="-6.82" transform="translate(8.52,32.14) rotate(44.6)" width="13.64" height="13.64" rx="3.07"/>
</svg>
