<svg xmlns="http://www.w3.org/2000/svg" width="86" height="42" viewBox="0 0 86 42" fill="none" style="fill: none !important;">
    <title style="fill: none !important;">Keap, A Thryv, Inc. Brand</title>
    <path d="M19.9492 27.5891L17.2136 30.3617C16.7725 30.8462 16.2097 30.805 15.7664 30.3617L5.95153 20.5424V29.6859C5.95153 30.3313 5.59083 30.692 4.94548 30.692H1.00387C0.360699 30.692 0 30.3291 0 29.6859V1.00604C0 0.362871 0.362871 0 1.00387 0H4.94765C5.59083 0 5.9537 0.362871 5.9537 1.00604V10.3972H19.267C19.9101 10.3972 20.273 10.7601 20.273 11.4033V15.3884C20.273 16.0337 19.9123 16.3944 19.267 16.3944H10.2169L19.9492 26.142C20.3903 26.5852 20.3903 27.1089 19.9492 27.5891Z" fill="#36A635" style="fill: rgb(54, 166, 53) !important;"/>
    <path d="M41.7912 20.5034C41.7912 20.9054 41.7521 21.3487 41.7108 21.7506C41.6304 22.396 41.2284 22.6785 40.6265 22.6785H27.4328C28.1173 24.4494 29.8447 25.6184 32.0176 25.6184C33.5864 25.6184 34.7858 25.0143 35.6789 24.0452C36.0809 23.5628 36.5241 23.4433 37.0456 23.7671L40.1029 25.6205C40.6657 25.9812 40.8265 26.4658 40.4245 26.9895C38.5753 29.5687 35.5181 31.1397 31.9394 31.1397C25.8249 31.1397 21.4009 26.5484 21.4009 20.586C21.4009 14.6236 25.6228 9.94971 31.6156 9.94971C37.6562 9.94536 41.7912 14.4563 41.7912 20.5012V20.5034ZM35.9179 18.3696C35.3551 16.4292 33.745 15.3884 31.6547 15.3884C29.4405 15.3884 27.8326 16.4358 27.3111 18.3696H35.9179Z" fill="#36A635" style="fill: rgb(54, 166, 53) !important;"/>
    <path d="M61.6989 17.9654V29.6881C61.6989 30.3335 61.3382 30.6942 60.695 30.6942H56.8729C56.2298 30.6942 55.8691 30.3335 55.8691 29.6881V28.5191C54.3459 30.3335 52.5315 31.1374 50.2782 31.1374C45.8477 31.1374 42.9165 28.5995 42.9165 24.7731C42.9165 20.9466 45.813 18.2479 50.1153 18.2479H55.8669V17.8046C55.8669 16.3553 54.498 15.3884 52.4881 15.3884C51.2017 15.3884 49.9523 15.8708 49.3895 16.5552C49.0288 16.9985 48.7463 17.281 48.1836 17.281H44.4462C43.7618 17.281 43.3598 16.9181 43.4771 16.3097C44.242 12.4832 47.5404 9.94531 52.4055 9.94531C58.0028 9.94966 61.6967 13.172 61.6967 17.9654H61.6989ZM55.8669 23.1608V22.4763H51.0822C49.4721 22.4763 48.8289 23.3216 48.8289 24.4515C48.8289 25.4988 49.6742 26.3462 51.7232 26.3462C54.2177 26.3441 55.8647 25.0577 55.8647 23.163L55.8669 23.1608Z" fill="#36A635" style="fill: rgb(54, 166, 53) !important;"/>
    <path d="M85.0684 20.5835C85.0684 26.4655 80.9269 31.1372 75.4556 31.1372C73.1632 31.1372 71.2315 30.292 69.9864 28.8818V38.8553C69.9864 39.4985 69.6236 39.8613 68.9804 39.8613H65.0388C64.3956 39.8613 64.0349 39.4985 64.0349 38.8553V11.3988C64.0349 10.7556 64.3956 10.3927 65.0388 10.3927H68.8587C69.5019 10.3927 69.8648 10.7556 69.8648 11.3988V12.5265C71.1511 10.8751 73.1219 9.94727 75.3752 9.94727C80.8052 9.94727 85.0684 14.5799 85.0684 20.5835ZM79.1147 20.5835C79.1147 17.8435 77.1765 15.7489 74.5299 15.7489C71.7139 15.7489 69.7844 17.8435 69.7844 20.5835C69.7844 23.3235 71.7139 25.3356 74.5299 25.3356C77.183 25.3356 79.1147 23.241 79.1147 20.5835Z" fill="#36A635" style="fill: rgb(54, 166, 53) !important;"/>
    <path d="M3.85035 39.7659L3.47227 38.523H1.57099L1.19291 39.7659H0L1.8426 34.5271H3.19631L5.04543 39.7659H3.85252H3.85035ZM3.20935 37.5952C2.85951 36.4697 2.66178 35.833 2.61832 35.6852C2.57487 35.5375 2.54227 35.4202 2.52272 35.3354C2.44449 35.6396 2.21851 36.3936 1.84912 37.5952H3.20935Z" fill="black" style="fill: rgb(0, 0, 0) !important;"/>
    <path d="M8.88063 39.7659H7.77463V35.4679H6.35791V34.5466H10.2973V35.4679H8.88063V39.7659Z" fill="black" style="fill: rgb(0, 0, 0) !important;"/>
    <path d="M14.2953 39.766H13.2067V37.4345C13.2067 36.8587 12.9916 36.5719 12.5635 36.5719C12.2593 36.5719 12.0399 36.6762 11.903 36.8826C11.7683 37.0891 11.6987 37.4259 11.6987 37.8887V39.766H10.6101V34.2122H11.6987V35.3442C11.6987 35.4333 11.69 35.6397 11.6748 35.9657L11.6487 36.2873H11.7052C11.9486 35.8961 12.3332 35.7028 12.8612 35.7028C13.3306 35.7028 13.6847 35.8288 13.9281 36.0808C14.1715 36.3329 14.2931 36.6958 14.2931 37.1651V39.766H14.2953Z" fill="black" style="fill: rgb(0, 0, 0) !important;"/>
    <path d="M17.1788 35.7004C17.3266 35.7004 17.4483 35.7113 17.5461 35.733L17.4635 36.7543C17.3744 36.7304 17.2679 36.7195 17.1419 36.7195C16.7942 36.7195 16.5248 36.8086 16.3292 36.9868C16.1359 37.165 16.0381 37.4148 16.0381 37.7364V39.7681H14.9495V35.7787H15.773L15.9338 36.4501H15.9881C16.112 36.2263 16.2793 36.0459 16.49 35.909C16.7008 35.7721 16.929 35.7026 17.1767 35.7026L17.1788 35.7004Z" fill="black" style="fill: rgb(0, 0, 0) !important;"/>
    <path d="M17.5352 35.7766H18.7281L19.4821 38.0212C19.5472 38.2167 19.5907 38.4471 19.6146 38.7143H19.6363C19.6624 38.4688 19.7146 38.2385 19.7906 38.0212L20.5294 35.7766H21.6962L20.0079 40.2766C19.8536 40.6938 19.632 41.0045 19.3452 41.211C19.0583 41.4174 18.7237 41.5217 18.3413 41.5217C18.1523 41.5217 17.9697 41.5021 17.7872 41.4608V40.596C17.9176 40.6265 18.061 40.6417 18.2153 40.6417C18.4087 40.6417 18.576 40.583 18.7194 40.4657C18.8628 40.3483 18.9758 40.1702 19.0562 39.9311L19.1214 39.7356L17.5373 35.7744L17.5352 35.7766Z" fill="black" style="fill: rgb(0, 0, 0) !important;"/>
    <path d="M23.1304 39.766L21.6094 35.7766H22.748L23.5193 38.0494C23.6041 38.3384 23.6584 38.6101 23.6801 38.8665H23.7019C23.7127 38.6383 23.767 38.3667 23.8627 38.0494L24.6297 35.7766H25.7683L24.2473 39.766H23.1304Z" fill="black" style="fill: rgb(0, 0, 0) !important;"/>
    <path d="M26.6568 38.9988C26.5329 39.479 26.3243 40.0483 26.0288 40.7089H25.2444C25.3987 40.0766 25.5203 39.479 25.6051 38.9163H26.6046L26.6589 38.9988H26.6568Z" fill="black" style="fill: rgb(0, 0, 0) !important;"/>
    <path d="M28.9646 39.7659V34.5466H30.0706V39.7659H28.9646Z" fill="black" style="fill: rgb(0, 0, 0) !important;"/>
    <path d="M34.5229 39.7659H33.4342V37.4344C33.4342 37.1476 33.3821 36.9303 33.28 36.7869C33.1778 36.6435 33.0149 36.5718 32.7911 36.5718C32.4869 36.5718 32.2674 36.6739 32.1305 36.876C31.9958 37.0802 31.9263 37.417 31.9263 37.8886V39.7659H30.8376V35.7765H31.6699L31.8154 36.2871H31.8763C31.998 36.0938 32.1653 35.9482 32.3782 35.8504C32.5912 35.7526 32.8324 35.7026 33.104 35.7026C33.569 35.7026 33.921 35.8287 34.16 36.0785C34.399 36.3284 34.5207 36.6913 34.5207 37.165V39.7659H34.5229Z" fill="black" style="fill: rgb(0, 0, 0) !important;"/>
    <path d="M36.8368 39.8376C35.5939 39.8376 34.9746 39.1553 34.9746 37.7929C34.9746 37.115 35.1441 36.5979 35.4809 36.2393C35.8177 35.8808 36.3022 35.7026 36.9345 35.7026C37.3952 35.7026 37.8102 35.7939 38.1774 35.9742L37.8559 36.8173C37.6842 36.7478 37.5256 36.6913 37.3778 36.6478C37.2301 36.6044 37.0823 36.5827 36.9345 36.5827C36.3674 36.5827 36.085 36.9846 36.085 37.7886C36.085 38.5926 36.3674 38.9598 36.9345 38.9598C37.1431 38.9598 37.3387 38.9315 37.5169 38.875C37.6951 38.8186 37.8732 38.7316 38.0514 38.6121V39.5443C37.8754 39.6573 37.6972 39.7333 37.5169 39.7768C37.3365 39.8202 37.1106 39.8398 36.8368 39.8398V39.8376Z" fill="black" style="fill: rgb(0, 0, 0) !important;"/>
    <path d="M38.5295 39.2554C38.5295 39.0555 38.5838 38.9034 38.6903 38.8012C38.7968 38.6991 38.9532 38.647 39.1575 38.647C39.3617 38.647 39.5073 38.6991 39.616 38.8034C39.7246 38.9077 39.7789 39.0576 39.7789 39.2532C39.7789 39.4488 39.7246 39.59 39.6138 39.6965C39.5051 39.8051 39.353 39.8594 39.1575 39.8594C38.9619 39.8594 38.8033 39.8073 38.6925 39.7008C38.5838 39.5944 38.5273 39.4466 38.5273 39.2532L38.5295 39.2554Z" fill="black" style="fill: rgb(0, 0, 0) !important;"/>
    <path d="M42.0212 34.5488H43.6444C44.3853 34.5488 44.922 34.6553 45.2567 34.8638C45.5913 35.0746 45.7586 35.4092 45.7586 35.8677C45.7586 36.1784 45.6847 36.4348 45.5391 36.6347C45.3936 36.8347 45.198 36.9542 44.9546 36.9954V37.0302C45.2849 37.1041 45.5239 37.2432 45.6695 37.4452C45.8151 37.6473 45.889 37.9167 45.889 38.2514C45.889 38.7272 45.7173 39.0988 45.374 39.3639C45.0307 39.629 44.5635 39.7637 43.9725 39.7637H42.0212V34.5444V34.5488ZM43.1272 36.6152H43.7704C44.0703 36.6152 44.2876 36.5696 44.4223 36.4761C44.557 36.3827 44.6244 36.2306 44.6244 36.0155C44.6244 35.8156 44.5505 35.6722 44.4049 35.5852C44.2593 35.4983 44.0268 35.4549 43.7096 35.4549H43.1272V36.6152ZM43.1272 37.493V38.8533H43.8486C44.1528 38.8533 44.3788 38.7946 44.5222 38.6794C44.6678 38.5621 44.7395 38.3839 44.7395 38.1449C44.7395 37.7125 44.431 37.4952 43.8117 37.4952H43.1272V37.493Z" fill="black" style="fill: rgb(0, 0, 0) !important;"/>
    <path d="M48.6596 35.7004C48.8073 35.7004 48.929 35.7113 49.0268 35.733L48.9442 36.7543C48.8551 36.7304 48.7486 36.7195 48.6226 36.7195C48.275 36.7195 48.0055 36.8086 47.81 36.9868C47.6144 37.165 47.5188 37.4148 47.5188 37.7364V39.7681H46.4302V35.7787H47.2537L47.4145 36.4501H47.4688C47.5927 36.2263 47.76 36.0459 47.9708 35.909C48.1815 35.7721 48.4097 35.7026 48.6574 35.7026L48.6596 35.7004Z" fill="black" style="fill: rgb(0, 0, 0) !important;"/>
    <path d="M51.7667 39.7659L51.5559 39.2226H51.5277C51.3452 39.453 51.1561 39.6138 50.9627 39.7028C50.7694 39.7919 50.5151 39.8376 50.2044 39.8376C49.822 39.8376 49.52 39.7289 49.3005 39.5095C49.081 39.29 48.9702 38.9793 48.9702 38.5751C48.9702 38.171 49.118 37.8385 49.4135 37.6386C49.709 37.4365 50.1566 37.3257 50.7542 37.304L51.4473 37.2822V37.1084C51.4473 36.7043 51.2409 36.5022 50.8259 36.5022C50.5064 36.5022 50.1327 36.5978 49.7025 36.7912L49.3418 36.0567C49.8003 35.8156 50.3109 35.696 50.8693 35.696C51.4277 35.696 51.8145 35.8134 52.1013 36.0459C52.386 36.2784 52.5294 36.6347 52.5294 37.1106V39.7702H51.7689L51.7667 39.7659ZM51.4451 37.9167L51.0236 37.9319C50.7064 37.9406 50.4717 37.9993 50.3174 38.1036C50.1631 38.2079 50.0849 38.3665 50.0849 38.5816C50.0849 38.888 50.2609 39.0423 50.6129 39.0423C50.865 39.0423 51.067 38.9706 51.217 38.825C51.3691 38.6794 51.443 38.4882 51.443 38.247V37.9189L51.4451 37.9167Z" fill="black" style="fill: rgb(0, 0, 0) !important;"/>
    <path d="M56.8644 39.7659H55.7758V37.4344C55.7758 37.1476 55.7236 36.9303 55.6215 36.7869C55.5194 36.6435 55.3564 36.5718 55.1326 36.5718C54.8284 36.5718 54.6068 36.6739 54.4721 36.876C54.3373 37.0781 54.2678 37.417 54.2678 37.8886V39.7659H53.1792V35.7765H54.0114L54.157 36.2871H54.2178C54.3395 36.0938 54.5068 35.9482 54.7198 35.8504C54.9327 35.7526 55.1739 35.7026 55.4455 35.7026C55.9105 35.7026 56.2625 35.8287 56.5015 36.0785C56.7406 36.3284 56.8622 36.6913 56.8622 37.165V39.7659H56.8644Z" fill="black" style="fill: rgb(0, 0, 0) !important;"/>
    <path d="M58.8198 39.8375C58.3504 39.8375 57.9832 39.655 57.7159 39.2921C57.4487 38.9271 57.314 38.423 57.314 37.7798C57.314 37.1366 57.4509 36.6151 57.7225 36.2501C57.9941 35.8851 58.37 35.7025 58.848 35.7025C59.35 35.7025 59.7324 35.8981 59.9975 36.287H60.0322C59.9779 35.9894 59.9497 35.7243 59.9497 35.4918V34.2141H61.0426V39.768H60.2082L59.9975 39.2509H59.9518C59.7041 39.6441 59.3261 39.8397 58.8198 39.8397V39.8375ZM59.2022 38.9706C59.4803 38.9706 59.6846 38.8902 59.815 38.7272C59.9453 38.5664 60.0149 38.2904 60.0279 37.9037V37.7863C60.0279 37.3583 59.9627 37.0519 59.8302 36.865C59.6976 36.6803 59.4825 36.5869 59.1848 36.5869C58.9415 36.5869 58.7546 36.689 58.6199 36.8954C58.4852 37.1019 58.4178 37.3996 58.4178 37.7928C58.4178 38.1861 58.4852 38.4795 58.622 38.6772C58.7589 38.8749 58.9523 38.9727 59.2044 38.9727L59.2022 38.9706Z" fill="black" style="fill: rgb(0, 0, 0) !important;"/>
</svg>