<?xml version="1.0" encoding="UTF-8" standalone="no"?>
<!DOCTYPE svg PUBLIC "-//W3C//DTD SVG 1.1//EN" "http://www.w3.org/Graphics/SVG/1.1/DTD/svg11.dtd">
<svg xmlns="http://www.w3.org/2000/svg" version="1.1" viewBox="0.00 0.00 400.00 400.00">
<g stroke-width="2.00" fill="none" stroke-linecap="butt">
<path stroke="#f3b69b" vector-effect="non-scaling-stroke" d="
  M 204.62 197.07
  A 0.34 0.34 0.0 0 0 204.33 197.24
  L 195.04 212.96
  A 0.34 0.34 0.0 0 0 195.34 213.47
  L 280.86 213.47
  A 0.34 0.34 0.0 0 0 281.15 212.96
  L 199.85 74.57
  A 0.34 0.34 0.0 0 0 199.27 74.57
  L 190.07 90.13
  A 0.34 0.34 0.0 0 0 190.07 90.47
  L 252.39 196.56
  A 0.34 0.34 0.0 0 1 252.10 197.07
  L 204.62 197.07"
/>
<path stroke="#b6cdba" vector-effect="non-scaling-stroke" d="
  M 180.82 106.51
  A 0.38 0.38 0.0 0 0 180.16 106.51
  L 98.37 244.89
  A 0.38 0.38 0.0 0 0 98.70 245.46
  L 117.09 245.46
  A 0.38 0.38 0.0 0 0 117.42 245.27
  L 180.04 139.35
  A 0.38 0.38 0.0 0 1 180.70 139.35
  L 204.41 179.71
  A 0.38 0.38 0.0 0 0 204.74 179.90
  L 223.27 179.90
  A 0.38 0.38 0.0 0 0 223.59 179.33
  L 180.82 106.51"
/>
<path stroke="#bbd2dd" vector-effect="non-scaling-stroke" d="
  M 180.50 173.36
  A 0.31 0.31 0.0 0 0 179.97 173.36
  L 136.80 245.00
  A 0.31 0.31 0.0 0 0 137.07 245.47
  L 300.34 245.47
  A 0.31 0.31 0.0 0 0 300.61 245.00
  L 291.59 229.64
  A 0.31 0.31 0.0 0 0 291.32 229.49
  L 166.14 229.49
  A 0.31 0.31 0.0 0 1 165.87 229.02
  L 189.74 189.41
  A 0.31 0.31 0.0 0 0 189.75 189.09
  L 180.50 173.36"
/>
<path stroke="#8fa3af" vector-effect="non-scaling-stroke" d="
  M 138.76 265.55
  A 0.31 0.31 0.0 0 0 138.54 265.64
  L 105.16 300.24
  A 0.31 0.31 0.0 0 1 104.63 300.02
  L 104.63 265.86
  A 0.31 0.31 0.0 0 0 104.32 265.55
  L 98.31 265.55
  A 0.31 0.31 0.0 0 0 98.00 265.86
  L 98.00 324.08
  A 0.31 0.31 0.0 0 0 98.31 324.39
  L 104.33 324.39
  A 0.31 0.31 0.0 0 0 104.64 324.08
  L 104.64 308.89
  A 0.31 0.31 0.0 0 1 104.73 308.67
  L 116.93 296.01
  A 0.31 0.31 0.0 0 1 117.40 296.04
  L 139.95 324.28
  A 0.31 0.31 0.0 0 0 140.19 324.40
  L 147.67 324.40
  A 0.31 0.31 0.0 0 0 147.91 323.90
  L 122.15 291.61
  A 0.31 0.31 0.0 0 1 122.17 291.20
  L 146.42 266.08
  A 0.31 0.31 0.0 0 0 146.20 265.55
  L 138.76 265.55"
/>
<path stroke="#8fa3af" vector-effect="non-scaling-stroke" d="
  M 159.77 305.33
  L 193.64 305.33
  A 0.47 0.46 1.3 0 0 194.11 304.89
  Q 194.41 299.62 192.79 294.43
  C 187.79 278.37 167.72 275.29 157.43 288.08
  Q 152.10 294.70 152.60 303.78
  Q 153.49 320.15 169.19 324.80
  A 4.79 4.77 54.5 0 0 170.25 324.98
  Q 176.84 325.30 178.03 325.14
  Q 186.34 324.01 191.99 317.83
  A 0.73 0.72 43.0 0 0 191.95 316.82
  L 189.25 314.21
  A 0.92 0.92 0.0 0 0 187.96 314.22
  C 178.13 324.12 161.93 320.82 159.10 306.15
  A 0.69 0.68 84.4 0 1 159.77 305.33"
/>
<path stroke="#8fa3af" vector-effect="non-scaling-stroke" d="
  M 213.67 305.33
  L 247.54 305.32
  A 0.47 0.46 1.3 0 0 248.01 304.88
  Q 248.31 299.61 246.69 294.42
  C 241.68 278.36 221.61 275.29 211.33 288.08
  Q 206.00 294.71 206.50 303.79
  Q 207.40 320.16 223.10 324.80
  A 4.79 4.77 54.5 0 0 224.16 324.98
  Q 230.75 325.30 231.94 325.14
  Q 240.25 324.01 245.90 317.82
  A 0.73 0.72 43.0 0 0 245.86 316.81
  L 243.15 314.20
  A 0.92 0.92 0.0 0 0 241.86 314.21
  C 232.04 324.12 215.84 320.82 213.00 306.15
  A 0.69 0.68 84.4 0 1 213.67 305.33"
/>
<path stroke="#8fa3af" vector-effect="non-scaling-stroke" d="
  M 268.78 287.82
  L 268.78 281.29
  A 0.24 0.24 0.0 0 0 268.54 281.05
  L 262.50 281.05
  A 0.26 0.26 0.0 0 0 262.24 281.31
  L 262.24 324.07
  A 0.32 0.32 0.0 0 0 262.56 324.39
  L 268.43 324.39
  A 0.34 0.33 -0.0 0 0 268.77 324.06
  Q 268.86 320.38 268.74 303.73
  Q 268.68 295.99 270.23 292.99
  C 273.76 286.14 283.57 283.54 290.04 288.49
  C 293.74 291.33 294.46 295.90 294.45 300.75
  Q 294.43 319.53 294.44 323.99
  A 0.41 0.41 0.0 0 0 294.85 324.40
  L 300.58 324.40
  A 0.41 0.41 0.0 0 0 300.99 323.99
  Q 301.01 312.93 300.98 298.25
  C 300.96 288.94 296.71 281.93 287.02 280.43
  Q 276.00 278.73 269.25 287.97
  A 0.26 0.26 0.0 0 1 268.78 287.82"
/>
<path stroke="#8fa3af" vector-effect="non-scaling-stroke" d="
  M 159.58 299.78
  L 186.76 299.78
  A 0.22 0.22 0.0 0 0 186.98 299.56
  L 186.98 299.20
  A 13.98 13.81 -90.0 0 0 173.17 285.22
  A 13.98 13.81 90.0 0 0 159.36 299.20
  L 159.36 299.56
  A 0.22 0.22 0.0 0 0 159.58 299.78"
/>
<path stroke="#8fa3af" vector-effect="non-scaling-stroke" d="
  M 214.05 299.78
  L 241.11 299.78
  A 0.29 0.29 0.0 0 0 241.40 299.49
  L 241.40 299.25
  A 14.03 13.82 -90.0 0 0 227.58 285.22
  A 14.03 13.82 90.0 0 0 213.76 299.25
  L 213.76 299.49
  A 0.29 0.29 0.0 0 0 214.05 299.78"
/>
</g>
<path fill="#ffffff" d="
  M 400.00 0.00
  L 400.00 400.00
  L 0.00 400.00
  L 0.00 0.00
  L 400.00 0.00
  Z
  M 204.62 197.07
  A 0.34 0.34 0.0 0 0 204.33 197.24
  L 195.04 212.96
  A 0.34 0.34 0.0 0 0 195.34 213.47
  L 280.86 213.47
  A 0.34 0.34 0.0 0 0 281.15 212.96
  L 199.85 74.57
  A 0.34 0.34 0.0 0 0 199.27 74.57
  L 190.07 90.13
  A 0.34 0.34 0.0 0 0 190.07 90.47
  L 252.39 196.56
  A 0.34 0.34 0.0 0 1 252.10 197.07
  L 204.62 197.07
  Z
  M 180.82 106.51
  A 0.38 0.38 0.0 0 0 180.16 106.51
  L 98.37 244.89
  A 0.38 0.38 0.0 0 0 98.70 245.46
  L 117.09 245.46
  A 0.38 0.38 0.0 0 0 117.42 245.27
  L 180.04 139.35
  A 0.38 0.38 0.0 0 1 180.70 139.35
  L 204.41 179.71
  A 0.38 0.38 0.0 0 0 204.74 179.90
  L 223.27 179.90
  A 0.38 0.38 0.0 0 0 223.59 179.33
  L 180.82 106.51
  Z
  M 180.50 173.36
  A 0.31 0.31 0.0 0 0 179.97 173.36
  L 136.80 245.00
  A 0.31 0.31 0.0 0 0 137.07 245.47
  L 300.34 245.47
  A 0.31 0.31 0.0 0 0 300.61 245.00
  L 291.59 229.64
  A 0.31 0.31 0.0 0 0 291.32 229.49
  L 166.14 229.49
  A 0.31 0.31 0.0 0 1 165.87 229.02
  L 189.74 189.41
  A 0.31 0.31 0.0 0 0 189.75 189.09
  L 180.50 173.36
  Z
  M 138.76 265.55
  A 0.31 0.31 0.0 0 0 138.54 265.64
  L 105.16 300.24
  A 0.31 0.31 0.0 0 1 104.63 300.02
  L 104.63 265.86
  A 0.31 0.31 0.0 0 0 104.32 265.55
  L 98.31 265.55
  A 0.31 0.31 0.0 0 0 98.00 265.86
  L 98.00 324.08
  A 0.31 0.31 0.0 0 0 98.31 324.39
  L 104.33 324.39
  A 0.31 0.31 0.0 0 0 104.64 324.08
  L 104.64 308.89
  A 0.31 0.31 0.0 0 1 104.73 308.67
  L 116.93 296.01
  A 0.31 0.31 0.0 0 1 117.40 296.04
  L 139.95 324.28
  A 0.31 0.31 0.0 0 0 140.19 324.40
  L 147.67 324.40
  A 0.31 0.31 0.0 0 0 147.91 323.90
  L 122.15 291.61
  A 0.31 0.31 0.0 0 1 122.17 291.20
  L 146.42 266.08
  A 0.31 0.31 0.0 0 0 146.20 265.55
  L 138.76 265.55
  Z
  M 159.77 305.33
  L 193.64 305.33
  A 0.47 0.46 1.3 0 0 194.11 304.89
  Q 194.41 299.62 192.79 294.43
  C 187.79 278.37 167.72 275.29 157.43 288.08
  Q 152.10 294.70 152.60 303.78
  Q 153.49 320.15 169.19 324.80
  A 4.79 4.77 54.5 0 0 170.25 324.98
  Q 176.84 325.30 178.03 325.14
  Q 186.34 324.01 191.99 317.83
  A 0.73 0.72 43.0 0 0 191.95 316.82
  L 189.25 314.21
  A 0.92 0.92 0.0 0 0 187.96 314.22
  C 178.13 324.12 161.93 320.82 159.10 306.15
  A 0.69 0.68 84.4 0 1 159.77 305.33
  Z
  M 213.67 305.33
  L 247.54 305.32
  A 0.47 0.46 1.3 0 0 248.01 304.88
  Q 248.31 299.61 246.69 294.42
  C 241.68 278.36 221.61 275.29 211.33 288.08
  Q 206.00 294.71 206.50 303.79
  Q 207.40 320.16 223.10 324.80
  A 4.79 4.77 54.5 0 0 224.16 324.98
  Q 230.75 325.30 231.94 325.14
  Q 240.25 324.01 245.90 317.82
  A 0.73 0.72 43.0 0 0 245.86 316.81
  L 243.15 314.20
  A 0.92 0.92 0.0 0 0 241.86 314.21
  C 232.04 324.12 215.84 320.82 213.00 306.15
  A 0.69 0.68 84.4 0 1 213.67 305.33
  Z
  M 268.78 287.82
  L 268.78 281.29
  A 0.24 0.24 0.0 0 0 268.54 281.05
  L 262.50 281.05
  A 0.26 0.26 0.0 0 0 262.24 281.31
  L 262.24 324.07
  A 0.32 0.32 0.0 0 0 262.56 324.39
  L 268.43 324.39
  A 0.34 0.33 -0.0 0 0 268.77 324.06
  Q 268.86 320.38 268.74 303.73
  Q 268.68 295.99 270.23 292.99
  C 273.76 286.14 283.57 283.54 290.04 288.49
  C 293.74 291.33 294.46 295.90 294.45 300.75
  Q 294.43 319.53 294.44 323.99
  A 0.41 0.41 0.0 0 0 294.85 324.40
  L 300.58 324.40
  A 0.41 0.41 0.0 0 0 300.99 323.99
  Q 301.01 312.93 300.98 298.25
  C 300.96 288.94 296.71 281.93 287.02 280.43
  Q 276.00 278.73 269.25 287.97
  A 0.26 0.26 0.0 0 1 268.78 287.82
  Z"
/>
<path fill="#e76c36" d="
  M 204.62 197.07
  L 252.10 197.07
  A 0.34 0.34 0.0 0 0 252.39 196.56
  L 190.07 90.47
  A 0.34 0.34 0.0 0 1 190.07 90.13
  L 199.27 74.57
  A 0.34 0.34 0.0 0 1 199.85 74.57
  L 281.15 212.96
  A 0.34 0.34 0.0 0 1 280.86 213.47
  L 195.34 213.47
  A 0.34 0.34 0.0 0 1 195.04 212.96
  L 204.33 197.24
  A 0.34 0.34 0.0 0 1 204.62 197.07
  Z"
/>
<path fill="#6c9a75" d="
  M 180.82 106.51
  L 223.59 179.33
  A 0.38 0.38 0.0 0 1 223.27 179.90
  L 204.74 179.90
  A 0.38 0.38 0.0 0 1 204.41 179.71
  L 180.70 139.35
  A 0.38 0.38 0.0 0 0 180.04 139.35
  L 117.42 245.27
  A 0.38 0.38 0.0 0 1 117.09 245.46
  L 98.70 245.46
  A 0.38 0.38 0.0 0 1 98.37 244.89
  L 180.16 106.51
  A 0.38 0.38 0.0 0 1 180.82 106.51
  Z"
/>
<path fill="#77a4bb" d="
  M 180.50 173.36
  L 189.75 189.09
  A 0.31 0.31 0.0 0 1 189.74 189.41
  L 165.87 229.02
  A 0.31 0.31 0.0 0 0 166.14 229.49
  L 291.32 229.49
  A 0.31 0.31 0.0 0 1 291.59 229.64
  L 300.61 245.00
  A 0.31 0.31 0.0 0 1 300.34 245.47
  L 137.07 245.47
  A 0.31 0.31 0.0 0 1 136.80 245.00
  L 179.97 173.36
  A 0.31 0.31 0.0 0 1 180.50 173.36
  Z"
/>
<path fill="#1e475f" d="
  M 138.76 265.55
  L 146.20 265.55
  A 0.31 0.31 0.0 0 1 146.42 266.08
  L 122.17 291.20
  A 0.31 0.31 0.0 0 0 122.15 291.61
  L 147.91 323.90
  A 0.31 0.31 0.0 0 1 147.67 324.40
  L 140.19 324.40
  A 0.31 0.31 0.0 0 1 139.95 324.28
  L 117.40 296.04
  A 0.31 0.31 0.0 0 0 116.93 296.01
  L 104.73 308.67
  A 0.31 0.31 0.0 0 0 104.64 308.89
  L 104.64 324.08
  A 0.31 0.31 0.0 0 1 104.33 324.39
  L 98.31 324.39
  A 0.31 0.31 0.0 0 1 98.00 324.08
  L 98.00 265.86
  A 0.31 0.31 0.0 0 1 98.31 265.55
  L 104.32 265.55
  A 0.31 0.31 0.0 0 1 104.63 265.86
  L 104.63 300.02
  A 0.31 0.31 0.0 0 0 105.16 300.24
  L 138.54 265.64
  A 0.31 0.31 0.0 0 1 138.76 265.55
  Z"
/>
<path fill="#1e475f" d="
  M 159.77 305.33
  A 0.69 0.68 84.4 0 0 159.10 306.15
  C 161.93 320.82 178.13 324.12 187.96 314.22
  A 0.92 0.92 0.0 0 1 189.25 314.21
  L 191.95 316.82
  A 0.73 0.72 43.0 0 1 191.99 317.83
  Q 186.34 324.01 178.03 325.14
  Q 176.84 325.30 170.25 324.98
  A 4.79 4.77 54.5 0 1 169.19 324.80
  Q 153.49 320.15 152.60 303.78
  Q 152.10 294.70 157.43 288.08
  C 167.72 275.29 187.79 278.37 192.79 294.43
  Q 194.41 299.62 194.11 304.89
  A 0.47 0.46 1.3 0 1 193.64 305.33
  L 159.77 305.33
  Z
  M 159.58 299.78
  L 186.76 299.78
  A 0.22 0.22 0.0 0 0 186.98 299.56
  L 186.98 299.20
  A 13.98 13.81 -90.0 0 0 173.17 285.22
  A 13.98 13.81 90.0 0 0 159.36 299.20
  L 159.36 299.56
  A 0.22 0.22 0.0 0 0 159.58 299.78
  Z"
/>
<path fill="#1e475f" d="
  M 213.67 305.33
  A 0.69 0.68 84.4 0 0 213.00 306.15
  C 215.84 320.82 232.04 324.12 241.86 314.21
  A 0.92 0.92 0.0 0 1 243.15 314.20
  L 245.86 316.81
  A 0.73 0.72 43.0 0 1 245.90 317.82
  Q 240.25 324.01 231.94 325.14
  Q 230.75 325.30 224.16 324.98
  A 4.79 4.77 54.5 0 1 223.10 324.80
  Q 207.40 320.16 206.50 303.79
  Q 206.00 294.71 211.33 288.08
  C 221.61 275.29 241.68 278.36 246.69 294.42
  Q 248.31 299.61 248.01 304.88
  A 0.47 0.46 1.3 0 1 247.54 305.32
  L 213.67 305.33
  Z
  M 214.05 299.78
  L 241.11 299.78
  A 0.29 0.29 0.0 0 0 241.40 299.49
  L 241.40 299.25
  A 14.03 13.82 -90.0 0 0 227.58 285.22
  A 14.03 13.82 90.0 0 0 213.76 299.25
  L 213.76 299.49
  A 0.29 0.29 0.0 0 0 214.05 299.78
  Z"
/>
<path fill="#1e475f" d="
  M 269.25 287.97
  Q 276.00 278.73 287.02 280.43
  C 296.71 281.93 300.96 288.94 300.98 298.25
  Q 301.01 312.93 300.99 323.99
  A 0.41 0.41 0.0 0 1 300.58 324.40
  L 294.85 324.40
  A 0.41 0.41 0.0 0 1 294.44 323.99
  Q 294.43 319.53 294.45 300.75
  C 294.46 295.90 293.74 291.33 290.04 288.49
  C 283.57 283.54 273.76 286.14 270.23 292.99
  Q 268.68 295.99 268.74 303.73
  Q 268.86 320.38 268.77 324.06
  A 0.34 0.33 -0.0 0 1 268.43 324.39
  L 262.56 324.39
  A 0.32 0.32 0.0 0 1 262.24 324.07
  L 262.24 281.31
  A 0.26 0.26 0.0 0 1 262.50 281.05
  L 268.54 281.05
  A 0.24 0.24 0.0 0 1 268.78 281.29
  L 268.78 287.82
  A 0.26 0.26 0.0 0 0 269.25 287.97
  Z"
/>
<path fill="#ffffff" d="
  M 159.58 299.78
  A 0.22 0.22 0.0 0 1 159.36 299.56
  L 159.36 299.20
  A 13.98 13.81 -90.0 0 1 173.17 285.22
  A 13.98 13.81 -90.0 0 1 186.98 299.20
  L 186.98 299.56
  A 0.22 0.22 0.0 0 1 186.76 299.78
  L 159.58 299.78
  Z"
/>
<path fill="#ffffff" d="
  M 214.05 299.78
  A 0.29 0.29 0.0 0 1 213.76 299.49
  L 213.76 299.25
  A 14.03 13.82 90.0 0 1 227.58 285.22
  A 14.03 13.82 -90.0 0 1 241.40 299.25
  L 241.40 299.49
  A 0.29 0.29 0.0 0 1 241.11 299.78
  L 214.05 299.78
  Z"
/>
</svg>
