<?xml version="1.0" encoding="utf-8"?>
<!-- Generator: Adobe Illustrator 25.2.1, SVG Export Plug-In . SVG Version: 6.00 Build 0)  -->
<svg version="1.1" id="Layer_1" xmlns="http://www.w3.org/2000/svg" xmlns:xlink="http://www.w3.org/1999/xlink" x="0px" y="0px"
	 width="560.6px" height="135.7px" viewBox="0 0 560.6 135.7" style="enable-background:new 0 0 560.6 135.7;" xml:space="preserve"
	>
<style type="text/css">
	.st0{opacity:0.87;}
	.st1{fill:#CBDB29;}
	.st2{opacity:0.87;enable-background:new    ;}
</style>
<g class="st0">
	<path d="M175.1,44.7L175,71.2l23-26.4l22.7,0.1L195,72.3l25.8,44.4l-22.7-0.1L185,92.3c-2.7-4.9-5-6.9-7-6.2s-3,1.8-3,3.2v27.3
		l-18.9-0.1l0.2-92.9h9.7c2.4,0,4.8,0.9,6.5,2.7c1.7,1.6,2.7,3.9,2.7,6.2L175.1,44.7z"/>
	<path d="M222.2,43l19.5,0.1l-0.2,73.6l-19.5-0.1L222.2,43z M240.5,18.3h-16.2c-0.9,0-1.6,0.7-1.6,1.6c0,0,0,0,0,0v16.2
		c0,0.9,0.7,1.6,1.6,1.6c0,0,0,0,0,0h16.2c0.9,0,1.6-0.7,1.6-1.6c0,0,0,0,0,0V19.9C242,19.1,241.3,18.4,240.5,18.3z"/>
	<path d="M293,69.6c-0.4-2.6-1.3-5.2-2.8-7.4c-2.2-3-5.5-4.5-10.1-4.5c-6.5,0-11,3.2-13.4,9.6c-1.3,3.4-1.9,7.9-1.9,13.6
		c0,5.4,0.6,9.7,1.9,13c2.3,6.1,6.6,9.2,13,9.2c4.5,0,7.7-1.2,9.6-3.6c2-2.7,3.2-6,3.5-9.4l19.7,0.1c-0.5,6-2.8,11.8-6.4,16.6
		c-6.1,8.4-15,12.6-26.9,12.6s-20.6-3.6-26.1-10.6s-8.3-16.2-8.3-27.3c0-12.6,3.1-22.4,9.3-29.5c6.2-7.1,14.7-10.5,25.6-10.5
		c9.2,0,16.8,2.1,22.7,6.3s9.3,11.5,10.4,22L293,69.6z"/>
	<path d="M416.8,52.5c-5.5-7-13.1-10.5-22.8-10.5c-5.4,0-9.8,1.1-13.3,3.3c-3.2,2-6,4.7-8.1,7.8l-0.2-3.4l-0.1-33.9h-9.7
		c-2.4,0-4.8,0.9-6.5,2.7c-1.7,1.6-2.7,3.9-2.7,6.2v11l0,0l-0.1,35.5l-22.8-26.1l-22.7,0.1l25.7,27.5l-25.8,44.4l22.7-0.1l13.2-24.4
		c2.7-4.9,5-6.9,7-6.2c1.1,0.3,2,1,2.6,1.9l-0.1,28.7l19,0.1v-0.2h0.4v-8.5c1.8,2.7,4.1,5.1,6.8,7c3.7,2.4,8.6,3.7,14.7,3.7
		c9.7,0,17.3-3.7,22.8-11.2s8.2-17,8.2-28.4C425.1,68.5,422.3,59.5,416.8,52.5z M402.4,97.3c-2.6,3.9-7,6.2-11.7,6
		c-5.8,0-10.1-2.1-12.9-6.2s-4.2-9.4-4.2-15.7c0-5.4,0.7-9.7,2.1-13.1c2.7-6.3,7.5-9.5,14.5-9.5s11.7,3.3,14.3,9.8
		c1.4,3.4,2,7.8,2,13C406.6,88,405.2,93.3,402.4,97.3z"/>
	<path d="M488.4,108.5c-6.2,7.7-15.7,11.5-28.3,11.4s-22.1-3.9-28.3-11.6s-9.3-16.9-9.2-27.7c-0.2-10,3.2-19.8,9.4-27.6
		c6.2-7.8,15.7-11.6,28.3-11.6s22.1,4,28.3,11.8c6.2,7.8,9.5,17.6,9.2,27.6C497.8,91.6,494.6,100.8,488.4,108.5z M473,97.8
		c3-4,4.6-9.7,4.6-17.1s-1.5-13.1-4.5-17s-7.3-6-13-6s-10,2-13,5.9s-4.6,9.6-4.6,17s1.5,13.1,4.5,17.1s7.4,6,13,6
		S470,101.8,473,97.8z"/>
	<path d="M487.9,117.5l25.2-37.2l-24-36.3l23.6,0.1L525,65.4l12-21.3l22.9,0.1L535.6,80l25,37.7l-24-0.1L524,95.4l-12.9,22.1H487.9z
		"/>
</g>
<path class="st1" d="M124.7,0.3c-7.7,0-15.4,0-23-0.1c-15.7,0-31.3-0.1-47-0.1C42,0.1,29.3,0,16.7,0h-5.3C5.3,0.1,0.4,5,0.3,11.1
	c0,7.7,0,15.4-0.1,23c0,15.7-0.1,31.3-0.1,47C0.1,93.7,0,106.4,0,119v5.3c0.1,6.1,5,11,11.1,11.1c7.7,0,15.4,0,23,0.1
	c15.7,0,31.3,0.1,47,0.1c12.6,0,25.3,0.1,37.9,0.1h5.3c6.1-0.1,11-5,11.1-11.1c0-7.7,0-15.4,0.1-23c0-15.7,0.1-31.3,0.1-47
	c0-12.6,0.1-25.3,0.1-37.9v-5.3C135.7,5.3,130.8,0.4,124.7,0.3z M19.3,87.6V59.9h16.1c7.3,0,11.7,4.4,11.7,11.7v16.1
	C47.1,87.7,19.3,87.6,19.3,87.6z M71.4,115.2c-1.9,4-7.1,7.3-11.8,7.5h-0.2l-14.7-0.5L96.4,13H119L71.4,115.2z"/>
<path class="st2" d="M19.3,87.6V59.9h16.1c7.3,0,11.7,4.4,11.7,11.7v16.1C47.1,87.7,19.3,87.6,19.3,87.6z"/>
<path class="st2" d="M71.4,115.2c-1.9,4-7.1,7.3-11.8,7.5h-0.2l-14.7-0.5L96.4,13H119L71.4,115.2z"/>
</svg>
