<svg width="128" height="128" viewBox="0 0 128 128" fill="none" xmlns="http://www.w3.org/2000/svg">
<g clip-path="url(#clip0_240_6228)">
<path d="M34.9995 59.1602C50.7235 62.2033 55.6041 76.7598 55.7326 91.4003C55.7355 91.7297 55.4696 91.9987 55.1402 91.9987H35.3467C35.0203 91.9987 34.7543 91.7349 34.7525 91.4079C34.693 80.0493 32.8527 70.0256 21.5981 69.5929C21.2622 69.5803 20.9824 69.8491 20.9824 70.1853V91.4061C20.9824 91.7333 20.7171 91.9987 20.39 91.9987H0.592478C0.265375 91.9987 0 91.7338 0 91.4061V37.3349C0 37.0078 0.265375 36.7424 0.592478 36.7424H20.39C20.7171 36.7424 20.9824 37.0078 20.9824 37.3349V57.5899C20.9824 57.8905 21.226 58.1338 21.5265 58.1338C21.7647 58.1338 21.9765 57.9788 22.0457 57.7502C27.1456 41.0473 36.6697 36.8474 52.1351 36.7441C52.4634 36.7418 52.7322 37.0084 52.7322 37.3366V57.5414C52.7322 57.8685 52.4668 58.1338 52.1398 58.1338H35.0987C34.8126 58.1338 34.5806 58.3659 34.5806 58.652C34.5806 58.9 34.7565 59.1135 34.9995 59.1602ZM127.733 88.1017C127.733 88.5407 127.491 88.9445 127.102 89.1493C125.24 90.1288 119.482 92.8449 112.896 92.8449C99.35 92.8449 89.3948 87.2346 89.2028 71.8221H89.1982V58.7264C89.1982 58.3992 89.4635 58.1338 89.7907 58.1338H104.359C104.646 58.1338 104.878 57.9015 104.878 57.6146C104.878 57.366 104.701 57.1531 104.457 57.1053C93.0589 54.8444 87.7968 48.2828 87.6151 37.3355C87.61 37.0101 87.8713 36.7424 88.1961 36.7424H109.588C109.915 36.7424 110.181 37.0078 110.181 37.3349V46.5572C110.181 46.8843 110.446 47.1497 110.773 47.1497H123.039C123.366 47.1497 123.632 47.4151 123.632 47.7422V57.5414C123.632 57.8685 123.366 58.1338 123.039 58.1338H110.773C110.446 58.1338 110.181 58.3992 110.181 58.7264V69.2895C110.181 73.0215 112.469 74.2519 115.511 74.2519C120.279 74.2519 124.983 72.1035 126.869 71.1298C127.264 70.9261 127.733 71.2129 127.733 71.6564V88.1017ZM61.3511 91.4061V58.7252C61.3511 58.3981 61.6165 58.1328 61.9437 58.1328H81.7412C82.0682 58.1328 82.3336 58.3981 82.3336 58.7252V91.4061C82.3336 91.7333 82.0682 91.9987 81.7412 91.9987H61.9437C61.6165 91.9987 61.3511 91.7338 61.3511 91.4061ZM60.2303 45.2269C60.2303 50.7894 64.1583 55.2991 71.7054 55.2991C79.2524 55.2991 83.1805 50.7894 83.1805 45.2269C83.1805 39.6644 79.2518 35.1548 71.7054 35.1548C64.1583 35.1548 60.2303 39.6644 60.2303 45.2269Z" fill="black"/>
</g>
<defs>
<clipPath id="clip0_240_6228">
<rect width="128" height="57.6901" fill="white" transform="translate(0 35.1548)"/>
</clipPath>
</defs>
</svg>
