<?xml version="1.0" encoding="UTF-8" standalone="no"?>
<!DOCTYPE svg PUBLIC "-//W3C//DTD SVG 1.1//EN" "http://www.w3.org/Graphics/SVG/1.1/DTD/svg11.dtd">
<svg xmlns="http://www.w3.org/2000/svg" version="1.1" viewBox="0.00 0.00 1448.00 1448.00">
<g stroke-width="2.00" fill="none" stroke-linecap="butt">
<path stroke="#a6aafc" vector-effect="non-scaling-stroke" d="
  M 113.24 724.13
  C 113.24 742.78 123.41 758.65 139.76 767.03
  Q 149.57 772.05 158.82 771.98
  C 201.64 771.63 237.98 803.19 240.65 846.63
  Q 240.88 850.41 240.95 853.13
  C 241.46 873.67 254.60 890.99 273.71 897.33
  C 304.60 907.57 336.86 884.33 336.55 851.76
  C 336.33 828.46 320.73 809.69 297.79 804.81
  C 293.88 803.98 288.48 803.95 285.23 803.85
  C 266.61 803.28 248.46 795.43 234.96 783.07
  C 218.44 767.97 208.98 746.91 208.98 724.13
  C 208.98 701.34 218.44 680.29 234.95 665.18
  C 248.45 652.82 266.60 644.97 285.22 644.39
  C 288.47 644.29 293.87 644.26 297.78 643.43
  C 320.72 638.55 336.32 619.78 336.53 596.48
  C 336.84 563.91 304.58 540.67 273.69 550.92
  C 254.58 557.26 241.44 574.58 240.93 595.12
  Q 240.86 597.84 240.63 601.62
  C 237.97 645.06 201.63 676.63 158.81 676.28
  Q 149.56 676.21 139.76 681.24
  C 123.40 689.62 113.24 705.49 113.24 724.13"
/>
<path stroke="#808080" vector-effect="non-scaling-stroke" d="
  M 1264.38 686.30
  Q 1267.57 686.30 1267.94 686.23
  A 0.37 0.37 0.0 0 0 1268.23 685.86
  L 1268.23 651.37
  A 0.47 0.47 0.0 0 1 1268.70 650.90
  L 1281.68 650.90
  A 0.54 0.54 0.0 0 0 1282.22 650.36
  L 1282.22 644.81
  A 0.53 0.52 89.9 0 0 1281.69 644.28
  Q 1273.28 644.28 1264.36 644.29
  Q 1255.44 644.29 1247.02 644.30
  A 0.53 0.52 -89.9 0 0 1246.50 644.82
  L 1246.50 650.37
  A 0.54 0.54 0.0 0 0 1247.04 650.91
  L 1260.02 650.90
  A 0.47 0.47 0.0 0 1 1260.49 651.37
  L 1260.52 685.86
  A 0.37 0.37 0.0 0 0 1260.81 686.23
  Q 1261.18 686.30 1264.38 686.30"
/>
<path stroke="#808080" vector-effect="non-scaling-stroke" d="
  M 1312.67 681.56
  C 1313.79 681.56 1314.58 681.34 1315.13 680.38
  Q 1316.04 678.77 1327.91 659.17
  A 0.18 0.18 0.0 0 1 1328.25 659.26
  L 1328.25 685.75
  A 0.54 0.54 0.0 0 0 1328.79 686.29
  L 1335.07 686.29
  A 0.53 0.53 0.0 0 0 1335.60 685.76
  L 1335.60 644.93
  A 0.65 0.64 -90.0 0 0 1334.96 644.28
  L 1329.84 644.28
  A 1.21 1.20 -74.8 0 0 1328.80 644.88
  Q 1319.58 660.48 1313.18 671.22
  Q 1312.93 671.64 1312.67 671.64
  Q 1312.41 671.64 1312.16 671.22
  Q 1305.75 660.49 1296.51 644.89
  A 1.21 1.20 74.7 0 0 1295.47 644.30
  L 1290.35 644.30
  A 0.65 0.64 89.9 0 0 1289.71 644.95
  L 1289.75 685.78
  A 0.53 0.53 0.0 0 0 1290.28 686.31
  L 1296.56 686.30
  A 0.54 0.54 0.0 0 0 1297.10 685.76
  L 1297.07 659.27
  A 0.18 0.18 0.0 0 1 1297.41 659.18
  Q 1309.30 678.77 1310.21 680.38
  C 1310.76 681.35 1311.55 681.56 1312.67 681.56"
/>
<path stroke="#a6aafc" vector-effect="non-scaling-stroke" d="
  M 336.61 724.13
  A 47.90 47.90 0.0 0 0 288.71 676.23
  A 47.90 47.90 0.0 0 0 240.81 724.13
  A 47.90 47.90 0.0 0 0 288.71 772.03
  A 47.90 47.90 0.0 0 0 336.61 724.13"
/>
<path stroke="#808080" vector-effect="non-scaling-stroke" d="
  M 627.15 724.16
  C 627.16 752.79 649.88 772.06 677.81 772.06
  C 705.74 772.05 728.45 752.76 728.44 724.13
  C 728.44 695.50 705.72 676.22 677.79 676.23
  C 649.86 676.24 627.15 695.53 627.15 724.16"
/>
<path stroke="#808080" vector-effect="non-scaling-stroke" d="
  M 1092.19 752.55
  L 1088.85 758.34
  A 1.06 1.06 0.0 0 0 1089.03 759.64
  Q 1092.71 763.17 1096.61 765.09
  Q 1116.23 774.70 1137.89 769.41
  C 1153.48 765.61 1161.46 751.10 1155.57 735.98
  A 7.34 7.13 16.0 0 0 1154.51 734.13
  Q 1149.81 728.14 1143.19 725.40
  Q 1136.41 722.60 1120.19 718.64
  C 1110.14 716.19 1098.58 712.10 1100.92 699.12
  C 1101.97 693.30 1107.50 688.15 1113.14 686.84
  Q 1132.89 682.27 1149.44 692.47
  A 0.99 0.98 27.1 0 0 1150.86 692.02
  L 1153.34 686.15
  A 1.37 1.36 -64.3 0 0 1152.74 684.43
  Q 1133.89 673.88 1112.91 678.24
  C 1098.85 681.17 1089.40 691.09 1091.18 706.28
  C 1092.50 717.59 1102.44 722.92 1112.25 725.77
  Q 1119.19 727.78 1131.49 730.99
  C 1139.38 733.04 1148.04 737.17 1147.83 746.58
  C 1147.52 760.07 1133.38 762.96 1122.74 762.87
  Q 1105.83 762.73 1093.05 752.39
  A 0.58 0.57 -55.3 0 0 1092.19 752.55"
/>
<path stroke="#808080" vector-effect="non-scaling-stroke" d="
  M 453.32 720.67
  A 0.27 0.27 0.0 0 1 452.85 720.49
  L 452.85 678.21
  A 0.45 0.45 0.0 0 0 452.40 677.76
  L 431.95 677.76
  A 0.33 0.32 0.0 0 0 431.62 678.08
  L 431.62 769.93
  A 0.48 0.48 0.0 0 0 432.10 770.41
  L 452.29 770.41
  A 0.57 0.57 0.0 0 0 452.86 769.84
  L 452.86 748.01
  A 1.85 1.84 -23.7 0 1 453.35 746.76
  L 464.83 734.42
  A 0.54 0.54 0.0 0 1 465.64 734.44
  L 494.35 769.73
  A 1.85 1.83 -19.3 0 0 495.78 770.41
  L 519.12 770.41
  A 0.41 0.40 70.6 0 0 519.43 769.75
  L 479.75 719.62
  A 0.77 0.76 -42.8 0 1 479.79 718.63
  L 517.17 678.44
  A 0.42 0.42 0.0 0 0 516.86 677.73
  L 495.40 677.78
  A 5.22 4.92 36.1 0 0 494.13 677.94
  Q 493.66 678.04 490.20 681.70
  Q 459.73 713.86 453.32 720.67"
/>
<path stroke="#808080" vector-effect="non-scaling-stroke" d="
  M 562.65 730.58
  Q 567.52 736.47 594.80 769.87
  A 1.51 1.50 70.2 0 0 595.96 770.42
  L 612.40 770.42
  A 0.55 0.55 0.0 0 0 612.95 769.87
  L 612.95 678.06
  A 0.29 0.29 0.0 0 0 612.66 677.77
  L 592.32 677.77
  A 0.53 0.52 -90.0 0 0 591.80 678.30
  L 591.80 733.36
  A 0.18 0.18 0.0 0 1 591.48 733.48
  Q 579.21 718.62 578.38 717.62
  Q 573.50 711.73 546.23 678.33
  A 1.51 1.50 70.2 0 0 545.07 677.78
  L 528.63 677.78
  A 0.55 0.55 0.0 0 0 528.08 678.33
  L 528.08 770.14
  A 0.29 0.29 0.0 0 0 528.37 770.43
  L 548.71 770.43
  A 0.53 0.52 90.0 0 0 549.23 769.90
  L 549.23 714.84
  A 0.18 0.18 0.0 0 1 549.55 714.72
  Q 561.82 729.58 562.65 730.58"
/>
<path stroke="#808080" vector-effect="non-scaling-stroke" d="
  M 878.58 678.23
  A 0.35 0.35 0.0 0 0 878.25 677.77
  L 858.42 677.77
  A 0.35 0.35 0.0 0 0 858.09 678.01
  L 837.10 742.20
  A 0.35 0.35 0.0 0 1 836.44 742.20
  L 815.35 678.01
  A 0.35 0.35 0.0 0 0 815.02 677.77
  L 795.64 677.77
  A 0.35 0.35 0.0 0 0 795.31 678.01
  L 774.42 741.91
  A 0.35 0.35 0.0 0 1 773.76 741.92
  L 752.76 678.01
  A 0.35 0.35 0.0 0 0 752.43 677.77
  L 731.16 677.77
  A 0.35 0.35 0.0 0 0 730.83 678.23
  L 761.03 770.16
  A 0.35 0.35 0.0 0 0 761.36 770.40
  L 784.04 770.40
  A 0.35 0.35 0.0 0 0 784.37 770.16
  L 804.51 708.55
  A 0.35 0.35 0.0 0 1 805.17 708.54
  L 825.42 770.16
  A 0.35 0.35 0.0 0 0 825.75 770.40
  L 848.19 770.40
  A 0.35 0.35 0.0 0 0 848.52 770.16
  L 878.58 678.23"
/>
<path stroke="#808080" vector-effect="non-scaling-stroke" d="
  M 948.21 731.15
  A 0.30 0.30 0.0 0 0 948.51 730.85
  L 948.51 722.92
  A 0.30 0.30 0.0 0 0 948.21 722.62
  L 900.98 722.62
  A 0.30 0.30 0.0 0 1 900.68 722.32
  L 900.68 686.61
  A 0.30 0.30 0.0 0 1 900.98 686.31
  L 954.10 686.31
  A 0.30 0.30 0.0 0 0 954.40 686.01
  L 954.40 678.07
  A 0.30 0.30 0.0 0 0 954.10 677.77
  L 891.20 677.77
  A 0.30 0.30 0.0 0 0 890.90 678.07
  L 890.90 770.09
  A 0.30 0.30 0.0 0 0 891.20 770.39
  L 900.37 770.39
  A 0.30 0.30 0.0 0 0 900.67 770.09
  L 900.67 731.45
  A 0.30 0.30 0.0 0 1 900.97 731.15
  L 948.21 731.15"
/>
<path stroke="#808080" vector-effect="non-scaling-stroke" d="
  M 979.15 678.06
  A 0.32 0.32 0.0 0 0 978.83 677.74
  L 969.61 677.74
  A 0.32 0.32 0.0 0 0 969.29 678.06
  L 969.29 770.06
  A 0.32 0.32 0.0 0 0 969.61 770.38
  L 978.83 770.38
  A 0.32 0.32 0.0 0 0 979.15 770.06
  L 979.15 678.06"
/>
<path stroke="#808080" vector-effect="non-scaling-stroke" d="
  M 1078.41 770.26
  L 1056.15 739.02
  A 0.33 0.33 0.0 0 1 1056.31 738.51
  C 1071.92 733.42 1078.74 720.31 1076.71 704.36
  C 1074.44 686.48 1058.40 678.05 1041.50 677.83
  Q 1035.57 677.76 1005.15 677.76
  A 0.60 0.60 0.0 0 0 1004.55 678.36
  L 1004.55 770.19
  A 0.22 0.22 0.0 0 0 1004.77 770.41
  L 1014.10 770.41
  A 0.31 0.30 90.0 0 0 1014.40 770.10
  L 1014.40 741.45
  A 0.43 0.43 0.0 0 1 1014.83 741.02
  L 1046.47 741.02
  A 0.73 0.73 0.0 0 1 1047.06 741.32
  L 1067.62 770.17
  A 0.53 0.53 0.0 0 0 1068.05 770.39
  L 1078.35 770.39
  A 0.08 0.08 0.0 0 0 1078.41 770.26"
/>
<path stroke="#808080" vector-effect="non-scaling-stroke" d="
  M 1200.08 770.41
  Q 1204.18 770.41 1204.67 770.35
  A 0.32 0.32 0.0 0 0 1204.96 770.03
  L 1204.96 686.89
  A 0.57 0.57 0.0 0 1 1205.53 686.32
  L 1237.07 686.32
  A 0.46 0.45 0.0 0 0 1237.53 685.87
  L 1237.53 678.20
  A 0.45 0.44 -0.1 0 0 1237.08 677.76
  Q 1218.57 677.78 1200.07 677.77
  Q 1181.58 677.78 1163.06 677.76
  A 0.45 0.44 0.1 0 0 1162.62 678.20
  L 1162.62 685.87
  A 0.46 0.45 -0.0 0 0 1163.08 686.32
  L 1194.62 686.32
  A 0.57 0.57 0.0 0 1 1195.19 686.89
  L 1195.19 770.03
  A 0.32 0.32 0.0 0 0 1195.48 770.35
  Q 1195.98 770.41 1200.08 770.41"
/>
<path stroke="#808080" vector-effect="non-scaling-stroke" d="
  M 677.8200 694.2700
  A 29.87 29.21 -90.0 0 0 648.6100 724.1400
  A 29.87 29.21 -90.0 0 0 677.8200 754.0100
  A 29.87 29.21 -90.0 0 0 707.0300 724.1400
  A 29.87 29.21 -90.0 0 0 677.8200 694.2700"
/>
<path stroke="#808080" vector-effect="non-scaling-stroke" d="
  M 1014.28 686.79
  L 1014.52 732.45
  A 0.30 0.30 0.0 0 0 1014.82 732.75
  L 1043.28 732.60
  A 24.08 21.38 -0.3 0 0 1067.25 711.09
  L 1067.23 707.59
  A 24.08 21.38 -0.3 0 0 1043.04 686.34
  L 1014.58 686.49
  A 0.30 0.30 0.0 0 0 1014.28 686.79"
/>
</g>
<path fill="#ffffff" d="
  M 1448.00 0.00
  L 1448.00 1448.00
  L 0.00 1448.00
  L 0.00 0.00
  L 1448.00 0.00
  Z
  M 113.24 724.13
  C 113.24 742.78 123.41 758.65 139.76 767.03
  Q 149.57 772.05 158.82 771.98
  C 201.64 771.63 237.98 803.19 240.65 846.63
  Q 240.88 850.41 240.95 853.13
  C 241.46 873.67 254.60 890.99 273.71 897.33
  C 304.60 907.57 336.86 884.33 336.55 851.76
  C 336.33 828.46 320.73 809.69 297.79 804.81
  C 293.88 803.98 288.48 803.95 285.23 803.85
  C 266.61 803.28 248.46 795.43 234.96 783.07
  C 218.44 767.97 208.98 746.91 208.98 724.13
  C 208.98 701.34 218.44 680.29 234.95 665.18
  C 248.45 652.82 266.60 644.97 285.22 644.39
  C 288.47 644.29 293.87 644.26 297.78 643.43
  C 320.72 638.55 336.32 619.78 336.53 596.48
  C 336.84 563.91 304.58 540.67 273.69 550.92
  C 254.58 557.26 241.44 574.58 240.93 595.12
  Q 240.86 597.84 240.63 601.62
  C 237.97 645.06 201.63 676.63 158.81 676.28
  Q 149.56 676.21 139.76 681.24
  C 123.40 689.62 113.24 705.49 113.24 724.13
  Z
  M 1264.38 686.30
  Q 1267.57 686.30 1267.94 686.23
  A 0.37 0.37 0.0 0 0 1268.23 685.86
  L 1268.23 651.37
  A 0.47 0.47 0.0 0 1 1268.70 650.90
  L 1281.68 650.90
  A 0.54 0.54 0.0 0 0 1282.22 650.36
  L 1282.22 644.81
  A 0.53 0.52 89.9 0 0 1281.69 644.28
  Q 1273.28 644.28 1264.36 644.29
  Q 1255.44 644.29 1247.02 644.30
  A 0.53 0.52 -89.9 0 0 1246.50 644.82
  L 1246.50 650.37
  A 0.54 0.54 0.0 0 0 1247.04 650.91
  L 1260.02 650.90
  A 0.47 0.47 0.0 0 1 1260.49 651.37
  L 1260.52 685.86
  A 0.37 0.37 0.0 0 0 1260.81 686.23
  Q 1261.18 686.30 1264.38 686.30
  Z
  M 1312.67 681.56
  C 1313.79 681.56 1314.58 681.34 1315.13 680.38
  Q 1316.04 678.77 1327.91 659.17
  A 0.18 0.18 0.0 0 1 1328.25 659.26
  L 1328.25 685.75
  A 0.54 0.54 0.0 0 0 1328.79 686.29
  L 1335.07 686.29
  A 0.53 0.53 0.0 0 0 1335.60 685.76
  L 1335.60 644.93
  A 0.65 0.64 -90.0 0 0 1334.96 644.28
  L 1329.84 644.28
  A 1.21 1.20 -74.8 0 0 1328.80 644.88
  Q 1319.58 660.48 1313.18 671.22
  Q 1312.93 671.64 1312.67 671.64
  Q 1312.41 671.64 1312.16 671.22
  Q 1305.75 660.49 1296.51 644.89
  A 1.21 1.20 74.7 0 0 1295.47 644.30
  L 1290.35 644.30
  A 0.65 0.64 89.9 0 0 1289.71 644.95
  L 1289.75 685.78
  A 0.53 0.53 0.0 0 0 1290.28 686.31
  L 1296.56 686.30
  A 0.54 0.54 0.0 0 0 1297.10 685.76
  L 1297.07 659.27
  A 0.18 0.18 0.0 0 1 1297.41 659.18
  Q 1309.30 678.77 1310.21 680.38
  C 1310.76 681.35 1311.55 681.56 1312.67 681.56
  Z
  M 336.61 724.13
  A 47.90 47.90 0.0 0 0 288.71 676.23
  A 47.90 47.90 0.0 0 0 240.81 724.13
  A 47.90 47.90 0.0 0 0 288.71 772.03
  A 47.90 47.90 0.0 0 0 336.61 724.13
  Z
  M 627.15 724.16
  C 627.16 752.79 649.88 772.06 677.81 772.06
  C 705.74 772.05 728.45 752.76 728.44 724.13
  C 728.44 695.50 705.72 676.22 677.79 676.23
  C 649.86 676.24 627.15 695.53 627.15 724.16
  Z
  M 1092.19 752.55
  L 1088.85 758.34
  A 1.06 1.06 0.0 0 0 1089.03 759.64
  Q 1092.71 763.17 1096.61 765.09
  Q 1116.23 774.70 1137.89 769.41
  C 1153.48 765.61 1161.46 751.10 1155.57 735.98
  A 7.34 7.13 16.0 0 0 1154.51 734.13
  Q 1149.81 728.14 1143.19 725.40
  Q 1136.41 722.60 1120.19 718.64
  C 1110.14 716.19 1098.58 712.10 1100.92 699.12
  C 1101.97 693.30 1107.50 688.15 1113.14 686.84
  Q 1132.89 682.27 1149.44 692.47
  A 0.99 0.98 27.1 0 0 1150.86 692.02
  L 1153.34 686.15
  A 1.37 1.36 -64.3 0 0 1152.74 684.43
  Q 1133.89 673.88 1112.91 678.24
  C 1098.85 681.17 1089.40 691.09 1091.18 706.28
  C 1092.50 717.59 1102.44 722.92 1112.25 725.77
  Q 1119.19 727.78 1131.49 730.99
  C 1139.38 733.04 1148.04 737.17 1147.83 746.58
  C 1147.52 760.07 1133.38 762.96 1122.74 762.87
  Q 1105.83 762.73 1093.05 752.39
  A 0.58 0.57 -55.3 0 0 1092.19 752.55
  Z
  M 453.32 720.67
  A 0.27 0.27 0.0 0 1 452.85 720.49
  L 452.85 678.21
  A 0.45 0.45 0.0 0 0 452.40 677.76
  L 431.95 677.76
  A 0.33 0.32 0.0 0 0 431.62 678.08
  L 431.62 769.93
  A 0.48 0.48 0.0 0 0 432.10 770.41
  L 452.29 770.41
  A 0.57 0.57 0.0 0 0 452.86 769.84
  L 452.86 748.01
  A 1.85 1.84 -23.7 0 1 453.35 746.76
  L 464.83 734.42
  A 0.54 0.54 0.0 0 1 465.64 734.44
  L 494.35 769.73
  A 1.85 1.83 -19.3 0 0 495.78 770.41
  L 519.12 770.41
  A 0.41 0.40 70.6 0 0 519.43 769.75
  L 479.75 719.62
  A 0.77 0.76 -42.8 0 1 479.79 718.63
  L 517.17 678.44
  A 0.42 0.42 0.0 0 0 516.86 677.73
  L 495.40 677.78
  A 5.22 4.92 36.1 0 0 494.13 677.94
  Q 493.66 678.04 490.20 681.70
  Q 459.73 713.86 453.32 720.67
  Z
  M 562.65 730.58
  Q 567.52 736.47 594.80 769.87
  A 1.51 1.50 70.2 0 0 595.96 770.42
  L 612.40 770.42
  A 0.55 0.55 0.0 0 0 612.95 769.87
  L 612.95 678.06
  A 0.29 0.29 0.0 0 0 612.66 677.77
  L 592.32 677.77
  A 0.53 0.52 -90.0 0 0 591.80 678.30
  L 591.80 733.36
  A 0.18 0.18 0.0 0 1 591.48 733.48
  Q 579.21 718.62 578.38 717.62
  Q 573.50 711.73 546.23 678.33
  A 1.51 1.50 70.2 0 0 545.07 677.78
  L 528.63 677.78
  A 0.55 0.55 0.0 0 0 528.08 678.33
  L 528.08 770.14
  A 0.29 0.29 0.0 0 0 528.37 770.43
  L 548.71 770.43
  A 0.53 0.52 90.0 0 0 549.23 769.90
  L 549.23 714.84
  A 0.18 0.18 0.0 0 1 549.55 714.72
  Q 561.82 729.58 562.65 730.58
  Z
  M 878.58 678.23
  A 0.35 0.35 0.0 0 0 878.25 677.77
  L 858.42 677.77
  A 0.35 0.35 0.0 0 0 858.09 678.01
  L 837.10 742.20
  A 0.35 0.35 0.0 0 1 836.44 742.20
  L 815.35 678.01
  A 0.35 0.35 0.0 0 0 815.02 677.77
  L 795.64 677.77
  A 0.35 0.35 0.0 0 0 795.31 678.01
  L 774.42 741.91
  A 0.35 0.35 0.0 0 1 773.76 741.92
  L 752.76 678.01
  A 0.35 0.35 0.0 0 0 752.43 677.77
  L 731.16 677.77
  A 0.35 0.35 0.0 0 0 730.83 678.23
  L 761.03 770.16
  A 0.35 0.35 0.0 0 0 761.36 770.40
  L 784.04 770.40
  A 0.35 0.35 0.0 0 0 784.37 770.16
  L 804.51 708.55
  A 0.35 0.35 0.0 0 1 805.17 708.54
  L 825.42 770.16
  A 0.35 0.35 0.0 0 0 825.75 770.40
  L 848.19 770.40
  A 0.35 0.35 0.0 0 0 848.52 770.16
  L 878.58 678.23
  Z
  M 948.21 731.15
  A 0.30 0.30 0.0 0 0 948.51 730.85
  L 948.51 722.92
  A 0.30 0.30 0.0 0 0 948.21 722.62
  L 900.98 722.62
  A 0.30 0.30 0.0 0 1 900.68 722.32
  L 900.68 686.61
  A 0.30 0.30 0.0 0 1 900.98 686.31
  L 954.10 686.31
  A 0.30 0.30 0.0 0 0 954.40 686.01
  L 954.40 678.07
  A 0.30 0.30 0.0 0 0 954.10 677.77
  L 891.20 677.77
  A 0.30 0.30 0.0 0 0 890.90 678.07
  L 890.90 770.09
  A 0.30 0.30 0.0 0 0 891.20 770.39
  L 900.37 770.39
  A 0.30 0.30 0.0 0 0 900.67 770.09
  L 900.67 731.45
  A 0.30 0.30 0.0 0 1 900.97 731.15
  L 948.21 731.15
  Z
  M 979.15 678.06
  A 0.32 0.32 0.0 0 0 978.83 677.74
  L 969.61 677.74
  A 0.32 0.32 0.0 0 0 969.29 678.06
  L 969.29 770.06
  A 0.32 0.32 0.0 0 0 969.61 770.38
  L 978.83 770.38
  A 0.32 0.32 0.0 0 0 979.15 770.06
  L 979.15 678.06
  Z
  M 1078.41 770.26
  L 1056.15 739.02
  A 0.33 0.33 0.0 0 1 1056.31 738.51
  C 1071.92 733.42 1078.74 720.31 1076.71 704.36
  C 1074.44 686.48 1058.40 678.05 1041.50 677.83
  Q 1035.57 677.76 1005.15 677.76
  A 0.60 0.60 0.0 0 0 1004.55 678.36
  L 1004.55 770.19
  A 0.22 0.22 0.0 0 0 1004.77 770.41
  L 1014.10 770.41
  A 0.31 0.30 90.0 0 0 1014.40 770.10
  L 1014.40 741.45
  A 0.43 0.43 0.0 0 1 1014.83 741.02
  L 1046.47 741.02
  A 0.73 0.73 0.0 0 1 1047.06 741.32
  L 1067.62 770.17
  A 0.53 0.53 0.0 0 0 1068.05 770.39
  L 1078.35 770.39
  A 0.08 0.08 0.0 0 0 1078.41 770.26
  Z
  M 1200.08 770.41
  Q 1204.18 770.41 1204.67 770.35
  A 0.32 0.32 0.0 0 0 1204.96 770.03
  L 1204.96 686.89
  A 0.57 0.57 0.0 0 1 1205.53 686.32
  L 1237.07 686.32
  A 0.46 0.45 0.0 0 0 1237.53 685.87
  L 1237.53 678.20
  A 0.45 0.44 -0.1 0 0 1237.08 677.76
  Q 1218.57 677.78 1200.07 677.77
  Q 1181.58 677.78 1163.06 677.76
  A 0.45 0.44 0.1 0 0 1162.62 678.20
  L 1162.62 685.87
  A 0.46 0.45 -0.0 0 0 1163.08 686.32
  L 1194.62 686.32
  A 0.57 0.57 0.0 0 1 1195.19 686.89
  L 1195.19 770.03
  A 0.32 0.32 0.0 0 0 1195.48 770.35
  Q 1195.98 770.41 1200.08 770.41
  Z"
/>
<path fill="#4d55f8" d="
  M 208.98 724.13
  C 208.98 746.91 218.44 767.97 234.96 783.07
  C 248.46 795.43 266.61 803.28 285.23 803.85
  C 288.48 803.95 293.88 803.98 297.79 804.81
  C 320.73 809.69 336.33 828.46 336.55 851.76
  C 336.86 884.33 304.60 907.57 273.71 897.33
  C 254.60 890.99 241.46 873.67 240.95 853.13
  Q 240.88 850.41 240.65 846.63
  C 237.98 803.19 201.64 771.63 158.82 771.98
  Q 149.57 772.05 139.76 767.03
  C 123.41 758.65 113.24 742.78 113.24 724.13
  C 113.24 705.49 123.40 689.62 139.76 681.24
  Q 149.56 676.21 158.81 676.28
  C 201.63 676.63 237.97 645.06 240.63 601.62
  Q 240.86 597.84 240.93 595.12
  C 241.44 574.58 254.58 557.26 273.69 550.92
  C 304.58 540.67 336.84 563.91 336.53 596.48
  C 336.32 619.78 320.72 638.55 297.78 643.43
  C 293.87 644.26 288.47 644.29 285.22 644.39
  C 266.60 644.97 248.45 652.82 234.95 665.18
  C 218.44 680.29 208.98 701.34 208.98 724.13
  Z"
/>
<path fill="#000000" d="
  M 1264.36 644.29
  Q 1273.28 644.28 1281.69 644.28
  A 0.53 0.52 89.9 0 1 1282.22 644.81
  L 1282.22 650.36
  A 0.54 0.54 0.0 0 1 1281.68 650.90
  L 1268.70 650.90
  A 0.47 0.47 0.0 0 0 1268.23 651.37
  L 1268.23 685.86
  A 0.37 0.37 0.0 0 1 1267.94 686.23
  Q 1267.57 686.30 1264.38 686.30
  Q 1261.18 686.30 1260.81 686.23
  A 0.37 0.37 0.0 0 1 1260.52 685.86
  L 1260.49 651.37
  A 0.47 0.47 0.0 0 0 1260.02 650.90
  L 1247.04 650.91
  A 0.54 0.54 0.0 0 1 1246.50 650.37
  L 1246.50 644.82
  A 0.53 0.52 -89.9 0 1 1247.02 644.30
  Q 1255.44 644.29 1264.36 644.29
  Z"
/>
<path fill="#000000" d="
  M 1312.67 671.64
  Q 1312.93 671.64 1313.18 671.22
  Q 1319.58 660.48 1328.80 644.88
  A 1.21 1.20 -74.8 0 1 1329.84 644.28
  L 1334.96 644.28
  A 0.65 0.64 -90.0 0 1 1335.60 644.93
  L 1335.60 685.76
  A 0.53 0.53 0.0 0 1 1335.07 686.29
  L 1328.79 686.29
  A 0.54 0.54 0.0 0 1 1328.25 685.75
  L 1328.25 659.26
  A 0.18 0.18 0.0 0 0 1327.91 659.17
  Q 1316.04 678.77 1315.13 680.38
  C 1314.58 681.34 1313.79 681.56 1312.67 681.56
  C 1311.55 681.56 1310.76 681.35 1310.21 680.38
  Q 1309.30 678.77 1297.41 659.18
  A 0.18 0.18 0.0 0 0 1297.07 659.27
  L 1297.10 685.76
  A 0.54 0.54 0.0 0 1 1296.56 686.30
  L 1290.28 686.31
  A 0.53 0.53 0.0 0 1 1289.75 685.78
  L 1289.71 644.95
  A 0.65 0.64 89.9 0 1 1290.35 644.30
  L 1295.47 644.30
  A 1.21 1.20 74.7 0 1 1296.51 644.89
  Q 1305.75 660.49 1312.16 671.22
  Q 1312.41 671.64 1312.67 671.64
  Z"
/>
<circle fill="#4d55f8" cx="288.71" cy="724.13" r="47.90"/>
<path fill="#000000" d="
  M 677.79 676.23
  C 705.72 676.22 728.44 695.50 728.44 724.13
  C 728.45 752.76 705.74 772.05 677.81 772.06
  C 649.88 772.06 627.16 752.79 627.15 724.16
  C 627.15 695.53 649.86 676.24 677.79 676.23
  Z
  M 677.8200 694.2700
  A 29.87 29.21 -90.0 0 0 648.6100 724.1400
  A 29.87 29.21 -90.0 0 0 677.8200 754.0100
  A 29.87 29.21 -90.0 0 0 707.0300 724.1400
  A 29.87 29.21 -90.0 0 0 677.8200 694.2700
  Z"
/>
<path fill="#000000" d="
  M 1093.05 752.39
  Q 1105.83 762.73 1122.74 762.87
  C 1133.38 762.96 1147.52 760.07 1147.83 746.58
  C 1148.04 737.17 1139.38 733.04 1131.49 730.99
  Q 1119.19 727.78 1112.25 725.77
  C 1102.44 722.92 1092.50 717.59 1091.18 706.28
  C 1089.40 691.09 1098.85 681.17 1112.91 678.24
  Q 1133.89 673.88 1152.74 684.43
  A 1.37 1.36 -64.3 0 1 1153.34 686.15
  L 1150.86 692.02
  A 0.99 0.98 27.1 0 1 1149.44 692.47
  Q 1132.89 682.27 1113.14 686.84
  C 1107.50 688.15 1101.97 693.30 1100.92 699.12
  C 1098.58 712.10 1110.14 716.19 1120.19 718.64
  Q 1136.41 722.60 1143.19 725.40
  Q 1149.81 728.14 1154.51 734.13
  A 7.34 7.13 16.0 0 1 1155.57 735.98
  C 1161.46 751.10 1153.48 765.61 1137.89 769.41
  Q 1116.23 774.70 1096.61 765.09
  Q 1092.71 763.17 1089.03 759.64
  A 1.06 1.06 0.0 0 1 1088.85 758.34
  L 1092.19 752.55
  A 0.58 0.57 -55.3 0 1 1093.05 752.39
  Z"
/>
<path fill="#000000" d="
  M 453.32 720.67
  Q 459.73 713.86 490.20 681.70
  Q 493.66 678.04 494.13 677.94
  A 5.22 4.92 36.1 0 1 495.40 677.78
  L 516.86 677.73
  A 0.42 0.42 0.0 0 1 517.17 678.44
  L 479.79 718.63
  A 0.77 0.76 -42.8 0 0 479.75 719.62
  L 519.43 769.75
  A 0.41 0.40 70.6 0 1 519.12 770.41
  L 495.78 770.41
  A 1.85 1.83 -19.3 0 1 494.35 769.73
  L 465.64 734.44
  A 0.54 0.54 0.0 0 0 464.83 734.42
  L 453.35 746.76
  A 1.85 1.84 -23.7 0 0 452.86 748.01
  L 452.86 769.84
  A 0.57 0.57 0.0 0 1 452.29 770.41
  L 432.10 770.41
  A 0.48 0.48 0.0 0 1 431.62 769.93
  L 431.62 678.08
  A 0.33 0.32 -0.0 0 1 431.95 677.76
  L 452.40 677.76
  A 0.45 0.45 0.0 0 1 452.85 678.21
  L 452.85 720.49
  A 0.27 0.27 0.0 0 0 453.32 720.67
  Z"
/>
<path fill="#000000" d="
  M 578.38 717.62
  Q 579.21 718.62 591.48 733.48
  A 0.18 0.18 0.0 0 0 591.80 733.36
  L 591.80 678.30
  A 0.53 0.52 -90.0 0 1 592.32 677.77
  L 612.66 677.77
  A 0.29 0.29 0.0 0 1 612.95 678.06
  L 612.95 769.87
  A 0.55 0.55 0.0 0 1 612.40 770.42
  L 595.96 770.42
  A 1.51 1.50 70.2 0 1 594.80 769.87
  Q 567.52 736.47 562.65 730.58
  Q 561.82 729.58 549.55 714.72
  A 0.18 0.18 0.0 0 0 549.23 714.84
  L 549.23 769.90
  A 0.53 0.52 90.0 0 1 548.71 770.43
  L 528.37 770.43
  A 0.29 0.29 0.0 0 1 528.08 770.14
  L 528.08 678.33
  A 0.55 0.55 0.0 0 1 528.63 677.78
  L 545.07 677.78
  A 1.51 1.50 70.2 0 1 546.23 678.33
  Q 573.50 711.73 578.38 717.62
  Z"
/>
<path fill="#000000" d="
  M 878.58 678.23
  L 848.52 770.16
  A 0.35 0.35 0.0 0 1 848.19 770.40
  L 825.75 770.40
  A 0.35 0.35 0.0 0 1 825.42 770.16
  L 805.17 708.54
  A 0.35 0.35 0.0 0 0 804.51 708.55
  L 784.37 770.16
  A 0.35 0.35 0.0 0 1 784.04 770.40
  L 761.36 770.40
  A 0.35 0.35 0.0 0 1 761.03 770.16
  L 730.83 678.23
  A 0.35 0.35 0.0 0 1 731.16 677.77
  L 752.43 677.77
  A 0.35 0.35 0.0 0 1 752.76 678.01
  L 773.76 741.92
  A 0.35 0.35 0.0 0 0 774.42 741.91
  L 795.31 678.01
  A 0.35 0.35 0.0 0 1 795.64 677.77
  L 815.02 677.77
  A 0.35 0.35 0.0 0 1 815.35 678.01
  L 836.44 742.20
  A 0.35 0.35 0.0 0 0 837.10 742.20
  L 858.09 678.01
  A 0.35 0.35 0.0 0 1 858.42 677.77
  L 878.25 677.77
  A 0.35 0.35 0.0 0 1 878.58 678.23
  Z"
/>
<path fill="#000000" d="
  M 948.21 731.15
  L 900.97 731.15
  A 0.30 0.30 0.0 0 0 900.67 731.45
  L 900.67 770.09
  A 0.30 0.30 0.0 0 1 900.37 770.39
  L 891.20 770.39
  A 0.30 0.30 0.0 0 1 890.90 770.09
  L 890.90 678.07
  A 0.30 0.30 0.0 0 1 891.20 677.77
  L 954.10 677.77
  A 0.30 0.30 0.0 0 1 954.40 678.07
  L 954.40 686.01
  A 0.30 0.30 0.0 0 1 954.10 686.31
  L 900.98 686.31
  A 0.30 0.30 0.0 0 0 900.68 686.61
  L 900.68 722.32
  A 0.30 0.30 0.0 0 0 900.98 722.62
  L 948.21 722.62
  A 0.30 0.30 0.0 0 1 948.51 722.92
  L 948.51 730.85
  A 0.30 0.30 0.0 0 1 948.21 731.15
  Z"
/>
<rect fill="#000000" x="969.29" y="677.74" width="9.86" height="92.64" rx="0.32"/>
<path fill="#000000" d="
  M 1078.41 770.26
  A 0.08 0.08 0.0 0 1 1078.35 770.39
  L 1068.05 770.39
  A 0.53 0.53 0.0 0 1 1067.62 770.17
  L 1047.06 741.32
  A 0.73 0.73 0.0 0 0 1046.47 741.02
  L 1014.83 741.02
  A 0.43 0.43 0.0 0 0 1014.40 741.45
  L 1014.40 770.10
  A 0.31 0.30 90.0 0 1 1014.10 770.41
  L 1004.77 770.41
  A 0.22 0.22 0.0 0 1 1004.55 770.19
  L 1004.55 678.36
  A 0.60 0.60 0.0 0 1 1005.15 677.76
  Q 1035.57 677.76 1041.50 677.83
  C 1058.40 678.05 1074.44 686.48 1076.71 704.36
  C 1078.74 720.31 1071.92 733.42 1056.31 738.51
  A 0.33 0.33 0.0 0 0 1056.15 739.02
  L 1078.41 770.26
  Z
  M 1014.28 686.79
  L 1014.52 732.45
  A 0.30 0.30 0.0 0 0 1014.82 732.75
  L 1043.28 732.60
  A 24.08 21.38 -0.3 0 0 1067.25 711.09
  L 1067.23 707.59
  A 24.08 21.38 -0.3 0 0 1043.04 686.34
  L 1014.58 686.49
  A 0.30 0.30 0.0 0 0 1014.28 686.79
  Z"
/>
<path fill="#000000" d="
  M 1200.07 677.77
  Q 1218.57 677.78 1237.08 677.76
  A 0.45 0.44 -0.1 0 1 1237.53 678.20
  L 1237.53 685.87
  A 0.46 0.45 0.0 0 1 1237.07 686.32
  L 1205.53 686.32
  A 0.57 0.57 0.0 0 0 1204.96 686.89
  L 1204.96 770.03
  A 0.32 0.32 0.0 0 1 1204.67 770.35
  Q 1204.18 770.41 1200.08 770.41
  Q 1195.98 770.41 1195.48 770.35
  A 0.32 0.32 0.0 0 1 1195.19 770.03
  L 1195.19 686.89
  A 0.57 0.57 0.0 0 0 1194.62 686.32
  L 1163.08 686.32
  A 0.46 0.45 -0.0 0 1 1162.62 685.87
  L 1162.62 678.20
  A 0.45 0.44 0.1 0 1 1163.06 677.76
  Q 1181.58 677.78 1200.07 677.77
  Z"
/>
<path fill="#ffffff" d="
  M 1014.28 686.79
  A 0.30 0.30 0.0 0 1 1014.58 686.49
  L 1043.04 686.34
  A 24.08 21.38 -0.3 0 1 1067.23 707.59
  L 1067.25 711.09
  A 24.08 21.38 -0.3 0 1 1043.28 732.60
  L 1014.82 732.75
  A 0.30 0.30 0.0 0 1 1014.52 732.45
  L 1014.28 686.79
  Z"
/>
<ellipse fill="#ffffff" cx="0.00" cy="0.00" transform="translate(677.82,724.14) rotate(-90.0)" rx="29.87" ry="29.21"/>
</svg>
