
<svg xmlns="http://www.w3.org/2000/svg" style="background: rgba(0, 0, 0, 0);" preserveAspectRatio="xMidYMid" viewBox="21.68 4.98 456.64 140.04"><defs fill="#000000"><filter id="editing-hole" x="-100%" y="-100%" width="300%" height="300%" fill="#000000"><feFlood flood-color="#002c9b" result="black" fill="#000000"/><feMorphology operator="dilate" radius="2" in="SourceGraphic" result="erode" fill="#000000"/><feGaussianBlur in="erode" stdDeviation="4" result="blur" fill="#000000"/><feOffset in="blur" dx="2" dy="2" result="offset" fill="#000000"/><feComposite operator="atop" in="offset" in2="black" result="merge" fill="#000000"/><feComposite operator="in" in="merge" in2="SourceGraphic" result="inner-shadow" fill="#000000"/></filter></defs><g filter="url(#editing-hole)"><g transform="translate(4.879980087280273, 145.0199966430664)"><path d="M150.59-20.02L150.59 0L16.80 0L16.80-140.04L36.82-140.04L36.82-20.02L150.59-20.02ZM291.60-20.02L291.60 0L161.62 0L161.62-40.04L161.62-40.04Q161.62-48.24 164.79-55.52L164.79-55.52L164.79-55.52Q167.97-62.79 173.39-68.21L173.39-68.21L173.39-68.21Q178.81-73.63 186.08-76.81L186.08-76.81L186.08-76.81Q193.36-79.98 201.66-79.98L201.66-79.98L251.66-79.98L251.66-79.98Q255.76-79.98 259.42-81.54L259.42-81.54L259.42-81.54Q263.09-83.11 265.77-85.84L265.77-85.84L265.77-85.84Q268.46-88.57 270.07-92.24L270.07-92.24L270.07-92.24Q271.68-95.90 271.68-100L271.68-100L271.68-100Q271.68-104.10 270.07-107.76L270.07-107.76L270.07-107.76Q268.46-111.43 265.77-114.16L265.77-114.16L265.77-114.16Q263.09-116.89 259.42-118.46L259.42-118.46L259.42-118.46Q255.76-120.02 251.66-120.02L251.66-120.02L171.68-120.02L171.68-140.04L251.66-140.04L251.66-140.04Q259.86-140.04 267.14-136.87L267.14-136.87L267.14-136.87Q274.41-133.69 279.83-128.27L279.83-128.27L279.83-128.27Q285.25-122.85 288.43-115.53L288.43-115.53L288.43-115.53Q291.60-108.20 291.60-100L291.60-100L291.60-100Q291.60-91.80 288.43-84.47L288.43-84.47L288.43-84.47Q285.25-77.15 279.83-71.73L279.83-71.73L279.83-71.73Q274.41-66.31 267.14-63.13L267.14-63.13L267.14-63.13Q259.86-59.96 251.66-59.96L251.66-59.96L201.66-59.96L201.66-59.96Q197.56-59.96 193.85-58.40L193.85-58.40L193.85-58.40Q190.14-56.84 187.40-54.10L187.40-54.10L187.40-54.10Q184.67-51.37 183.06-47.75L183.06-47.75L183.06-47.75Q181.45-44.14 181.45-40.04L181.45-40.04L181.45-20.02L291.60-20.02ZM473.44-40.04L473.44-40.04L473.44-40.04Q473.44-31.64 470.31-24.37L470.31-24.37L470.31-24.37Q467.19-17.09 461.77-11.67L461.77-11.67L461.77-11.67Q456.35-6.25 449.07-3.13L449.07-3.13L449.07-3.13Q441.80 0 433.50 0L433.50 0L311.82 0L311.82-20.02L433.50-20.02L433.50-20.02Q437.70-20.02 441.31-21.58L441.31-21.58L441.31-21.58Q444.92-23.14 447.61-25.88L447.61-25.88L447.61-25.88Q450.29-28.61 451.86-32.28L451.86-32.28L451.86-32.28Q453.42-35.94 453.42-40.04L453.42-40.04L453.42-40.04Q453.42-44.14 451.86-47.75L451.86-47.75L451.86-47.75Q450.29-51.37 447.61-54.10L447.61-54.10L447.61-54.10Q444.92-56.84 441.31-58.40L441.31-58.40L441.31-58.40Q437.70-59.96 433.50-59.96L433.50-59.96L351.86-59.96L351.86-59.96Q343.65-59.96 336.33-63.09L336.33-63.09L336.33-63.09Q329.00-66.21 323.58-71.63L323.58-71.63L323.58-71.63Q318.16-77.05 314.99-84.38L314.99-84.38L314.99-84.38Q311.82-91.70 311.82-100L311.82-100L311.82-100Q311.82-108.20 314.99-115.53L314.99-115.53L314.99-115.53Q318.16-122.85 323.58-128.27L323.58-128.27L323.58-128.27Q329.00-133.69 336.33-136.87L336.33-136.87L336.33-136.87Q343.65-140.04 351.86-140.04L351.86-140.04L463.48-140.04L463.48-120.02L351.86-120.02L351.86-120.02Q347.75-120.02 344.09-118.46L344.09-118.46L344.09-118.46Q340.43-116.89 337.70-114.16L337.70-114.16L337.70-114.16Q334.96-111.43 333.40-107.76L333.40-107.76L333.40-107.76Q331.84-104.10 331.84-100L331.84-100L331.84-100Q331.84-95.90 333.40-92.24L333.40-92.24L333.40-92.24Q334.96-88.57 337.70-85.84L337.70-85.84L337.70-85.84Q340.43-83.11 344.09-81.54L344.09-81.54L344.09-81.54Q347.75-79.98 351.86-79.98L351.86-79.98L433.50-79.98L433.50-79.98Q441.80-79.98 449.07-76.81L449.07-76.81L449.07-76.81Q456.35-73.63 461.77-68.21L461.77-68.21L461.77-68.21Q467.19-62.79 470.31-55.52L470.31-55.52L470.31-55.52Q473.44-48.24 473.44-40.04Z" fill="#002c9b"/></g></g><style>text {
  font-size: 64px;
  font-family: Arial Black;
  dominant-baseline: central;
  text-anchor: middle;
}</style></svg>