<?xml version="1.0" encoding="UTF-8" standalone="no"?>
<!DOCTYPE svg PUBLIC "-//W3C//DTD SVG 1.1//EN" "http://www.w3.org/Graphics/SVG/1.1/DTD/svg11.dtd">
<svg xmlns="http://www.w3.org/2000/svg" version="1.1" viewBox="0.00 0.00 240.00 240.00">
<g stroke-width="2.00" fill="none" stroke-linecap="butt">
<path stroke="#c69789" vector-effect="non-scaling-stroke" d="
  M 112.12 0.00
  L 113.24 0.31
  A 0.33 0.32 8.5 0 1 113.48 0.62
  L 113.48 66.23
  A 0.91 0.90 -0.0 0 1 112.57 67.13
  L 69.65 67.13
  A 1.08 1.08 0.0 0 0 68.57 68.21
  L 68.57 170.90
  A 1.00 0.99 -90.0 0 0 69.56 171.90
  L 112.74 171.90
  A 0.78 0.78 0.0 0 1 113.52 172.68
  L 113.52 239.10
  A 0.69 0.67 -9.7 0 1 113.06 239.74
  L 112.25 240.00"
/>
<path stroke="#c69789" vector-effect="non-scaling-stroke" d="
  M 129.42 0.00
  L 129.42 66.35
  A 0.78 0.77 -90.0 0 0 130.19 67.13
  L 173.72 67.13
  A 0.65 0.65 0.0 0 1 174.37 67.78
  L 174.37 171.22
  A 0.68 0.68 0.0 0 1 173.69 171.90
  L 130.16 171.90
  A 0.76 0.75 90.0 0 0 129.41 172.66
  L 129.43 240.00"
/>
<path stroke="#f9ca8c" vector-effect="non-scaling-stroke" d="
  M 157.12 85.00
  A 0.60 0.60 0.0 0 0 156.52 84.40
  L 86.44 84.40
  A 0.60 0.60 0.0 0 0 85.84 85.00
  L 85.84 153.98
  A 0.60 0.60 0.0 0 0 86.44 154.58
  L 156.52 154.58
  A 0.60 0.60 0.0 0 0 157.12 153.98
  L 157.12 85.00"
/>
<path stroke="#c69789" vector-effect="non-scaling-stroke" d="
  M 240.00 239.40
  L 239.25 240.00"
/>
</g>
<path fill="#8d2f12" d="
  M 112.12 0.00
  L 113.24 0.31
  A 0.33 0.32 8.5 0 1 113.48 0.62
  L 113.48 66.23
  A 0.91 0.90 -0.0 0 1 112.57 67.13
  L 69.65 67.13
  A 1.08 1.08 0.0 0 0 68.57 68.21
  L 68.57 170.90
  A 1.00 0.99 -90.0 0 0 69.56 171.90
  L 112.74 171.90
  A 0.78 0.78 0.0 0 1 113.52 172.68
  L 113.52 239.10
  A 0.69 0.67 -9.7 0 1 113.06 239.74
  L 112.25 240.00
  L 0.00 240.00
  L 0.00 0.00
  L 112.12 0.00
  Z"
/>
<path fill="#ffffff" d="
  M 129.42 0.00
  L 129.42 66.35
  A 0.78 0.77 -90.0 0 0 130.19 67.13
  L 173.72 67.13
  A 0.65 0.65 0.0 0 1 174.37 67.78
  L 174.37 171.22
  A 0.68 0.68 0.0 0 1 173.69 171.90
  L 130.16 171.90
  A 0.76 0.75 90.0 0 0 129.41 172.66
  L 129.43 240.00
  L 112.25 240.00
  L 113.06 239.74
  A 0.69 0.67 -9.7 0 0 113.52 239.10
  L 113.52 172.68
  A 0.78 0.78 0.0 0 0 112.74 171.90
  L 69.56 171.90
  A 1.00 0.99 90.0 0 1 68.57 170.90
  L 68.57 68.21
  A 1.08 1.08 0.0 0 1 69.65 67.13
  L 112.57 67.13
  A 0.91 0.90 -0.0 0 0 113.48 66.23
  L 113.48 0.62
  A 0.33 0.32 8.5 0 0 113.24 0.31
  L 112.12 0.00
  L 129.42 0.00
  Z
  M 157.12 85.00
  A 0.60 0.60 0.0 0 0 156.52 84.40
  L 86.44 84.40
  A 0.60 0.60 0.0 0 0 85.84 85.00
  L 85.84 153.98
  A 0.60 0.60 0.0 0 0 86.44 154.58
  L 156.52 154.58
  A 0.60 0.60 0.0 0 0 157.12 153.98
  L 157.12 85.00
  Z"
/>
<path fill="#8d2f12" d="
  M 240.00 0.00
  L 240.00 239.40
  L 239.25 240.00
  L 129.43 240.00
  L 129.41 172.66
  A 0.76 0.75 -90.0 0 1 130.16 171.90
  L 173.69 171.90
  A 0.68 0.68 0.0 0 0 174.37 171.22
  L 174.37 67.78
  A 0.65 0.65 0.0 0 0 173.72 67.13
  L 130.19 67.13
  A 0.78 0.77 90.0 0 1 129.42 66.35
  L 129.42 0.00
  L 240.00 0.00
  Z"
/>
<rect fill="#f29519" x="85.84" y="84.40" width="71.28" height="70.18" rx="0.60"/>
<path fill="#ffffff" d="
  M 240.00 239.40
  L 240.00 240.00
  L 239.25 240.00
  L 240.00 239.40
  Z"
/>
</svg>
