<svg width="128" height="128" viewBox="0 0 128 128" fill="none" xmlns="http://www.w3.org/2000/svg">
<g clip-path="url(#clip0_60_24557)">
<path d="M10.4068 70.1871C10.2459 70.0881 10.048 70.0386 9.84996 70.051H5.18484C4.66512 70.051 4.17015 69.9272 3.76179 69.6179C3.57618 69.4199 3.42769 69.1972 3.34107 68.9373C3.25445 68.6774 3.24207 68.4176 3.24207 68.133V55.5978C3.24207 55.3503 3.20495 55.2018 3.10596 55.1276C2.96984 55.0286 2.78422 55.0286 2.61098 55.0286H0.618716C0.433101 55.0286 0.284609 55.0286 0.148492 55.1399C0.0866203 55.1894 0.0494973 55.2761 0.0247486 55.3503C0.0123743 55.4122 0 55.5112 0 55.5978V68.133C0 68.8507 0.0742459 69.3457 0.222738 69.9396C0.358855 70.4965 0.606342 71.0286 0.965197 71.474C1.3488 71.9443 1.84377 72.3155 2.40062 72.5506C3.1307 72.8476 3.87316 72.959 4.68987 72.959H9.45398C9.77572 72.959 10.0727 72.959 10.3326 72.8971C10.5182 72.8476 10.6172 72.8105 10.7409 72.6991C10.8028 72.6496 10.8275 72.5877 10.8523 72.5135C10.8647 72.4516 10.8647 72.4021 10.8647 72.3279C10.8647 72.3279 10.6914 70.9419 10.6048 70.645C10.5058 70.3727 10.5305 70.2985 10.4068 70.1871ZM32.3094 66.3634C31.901 66.0417 31.4432 65.7819 30.9606 65.5839C30.4532 65.3735 29.9335 65.1755 29.4138 64.9899C28.9559 64.829 28.5599 64.6805 28.2382 64.5444C27.966 64.4331 27.7061 64.2846 27.4586 64.1237C27.2854 64.0123 27.1245 63.8515 27.0255 63.6782C26.9265 63.4926 26.877 63.2946 26.877 63.0966C26.877 62.9358 26.9142 62.7749 26.9884 62.6264C27.0626 62.4779 27.1616 62.3542 27.2854 62.2428C27.6566 61.9458 28.1392 61.8097 28.6094 61.8344C29.1292 61.8221 29.6613 61.8592 30.181 61.9334C30.7626 62.0324 31.3194 62.1809 31.8763 62.3665C31.9753 62.4037 32.0742 62.4284 32.1856 62.416C32.2599 62.4037 32.3217 62.3294 32.3712 62.1933L32.9157 60.7826C32.9404 60.6713 32.9528 60.5475 32.9157 60.4361C32.891 60.3866 32.8662 60.3248 32.8291 60.2877C32.792 60.2505 32.7425 60.2134 32.6806 60.1887C32.0371 59.9412 31.3565 59.7556 30.6759 59.6442C29.9954 59.5328 29.3024 59.4833 28.5971 59.4957C27.9165 59.4957 27.2483 59.6071 26.6048 59.8174C26.0727 59.9907 25.5901 60.2629 25.1694 60.6218C24.7981 60.9435 24.5012 61.3518 24.3032 61.8097C24.1052 62.2799 24.0186 62.7873 24.0309 63.307C24.0309 63.7525 24.1299 64.1979 24.3155 64.6063C24.5012 64.9899 24.761 65.3364 25.0828 65.6086C25.4664 65.9303 25.8871 66.2026 26.3449 66.4129C26.9265 66.6852 27.5205 66.9203 28.1145 67.1183C28.8074 67.341 29.488 67.638 30.1315 67.9969C30.3295 68.1082 30.5027 68.2691 30.6265 68.4547C30.7502 68.6527 30.8121 68.8754 30.8121 69.1105C30.8244 69.3085 30.7749 69.5189 30.6883 69.7045C30.6017 69.8901 30.478 70.051 30.3047 70.1747C29.8469 70.4841 29.3024 70.6326 28.7579 70.6078C28.1145 70.6078 27.471 70.546 26.8275 70.4098C26.1469 70.2861 25.4787 70.0757 24.8476 69.7911C24.7858 69.754 24.7239 69.7293 24.6497 69.7169C24.5878 69.7045 24.5135 69.7169 24.4517 69.7293C24.3403 69.8035 24.266 69.9025 24.2042 70.0139L23.635 71.3998C23.5978 71.4493 23.5731 71.4988 23.5731 71.5607C23.5607 71.6225 23.5731 71.6844 23.5855 71.7339C23.5978 71.7958 23.635 71.8453 23.6721 71.8824C23.7092 71.9195 23.7587 71.9566 23.8206 71.9814C24.1918 72.1794 24.563 72.3402 24.959 72.464C25.3797 72.6001 25.8128 72.6991 26.2459 72.7733C26.6914 72.8476 27.1369 72.8971 27.5824 72.9342C28.0278 72.9713 28.4362 72.9713 28.8322 72.9713C29.4756 72.9713 30.1439 72.8723 30.7749 72.6991C31.3318 72.5506 31.8515 72.3031 32.3094 71.9566C32.7425 71.6349 33.0766 71.2142 33.3117 70.7192C33.5592 70.1747 33.6705 69.5931 33.6582 68.9868C33.6705 68.4423 33.5344 67.9226 33.2746 67.44C33.0271 67.0317 32.7053 66.6604 32.3094 66.3634ZM17.4478 59.2606C16.6682 59.2606 15.901 59.3225 15.1338 59.4214C14.3542 59.5204 13.5994 59.7061 12.8693 59.9783C12.6589 60.0649 12.5847 60.2382 12.6466 60.498L12.993 61.9211C13.0302 62.0696 13.0797 62.1685 13.1663 62.1933C13.3024 62.2304 13.4385 62.218 13.5623 62.1685C14.082 62.0077 14.6265 61.8963 15.1585 61.8221C15.7649 61.7231 16.3712 61.6736 16.9776 61.6736C17.4107 61.6612 17.8438 61.7107 18.2645 61.8344C18.5615 61.9211 18.8213 62.0819 19.0441 62.2923C19.2297 62.4903 19.3658 62.7254 19.4277 62.9976C19.4896 63.2822 19.5267 63.5792 19.5267 63.8762V64.3093H16.7672C15.9134 64.2846 15.0719 64.4207 14.2676 64.6805C13.6489 64.8909 13.0797 65.225 12.6094 65.6705C12.1887 66.0665 11.8794 66.5491 11.6814 67.0935C11.4957 67.638 11.3968 68.2072 11.3968 68.7764C11.3968 69.3209 11.471 69.8654 11.6442 70.3851C11.8175 70.8924 12.1145 71.3627 12.5228 71.7092C13.0178 72.1299 13.5994 72.4392 14.2181 72.6125C15.0967 72.86 16 72.9713 16.9157 72.9466C17.3117 72.9466 17.72 72.9342 18.1655 72.9095C18.5986 72.8847 19.0441 72.8352 19.4896 72.7733C19.9227 72.7115 20.3558 72.6125 20.7889 72.5011C21.1848 72.3897 21.5808 72.2536 21.9644 72.0804C22.1129 72.0061 22.249 71.8948 22.3233 71.7463C22.4099 71.5978 22.447 71.4245 22.4346 71.2637V63.7648C22.4718 63.1585 22.3975 62.5398 22.1872 61.9582C21.9768 61.3766 21.6551 60.8569 21.2343 60.4114C20.4176 59.6442 19.1555 59.2606 17.4478 59.2606ZM19.5019 70.2119C19.2792 70.2985 19.0441 70.3604 18.7966 70.4098C18.5367 70.4593 18.3016 70.4965 18.0665 70.5336C17.8561 70.5707 17.6334 70.5831 17.4107 70.5955C17.2003 70.6078 17.0394 70.6078 16.9281 70.6078C16.2722 70.6326 15.6164 70.4965 15.0348 70.1871C14.7873 70.0262 14.5893 69.8035 14.4656 69.5436C14.3418 69.2838 14.2923 68.9868 14.3171 68.6898C14.2923 68.2815 14.3913 67.8731 14.6017 67.5143C14.7749 67.242 15.0224 67.0193 15.3194 66.8584C15.604 66.7099 15.9134 66.6109 16.2351 66.5862C16.5321 66.5491 16.8291 66.5367 17.1384 66.5367H19.5019V70.2119ZM43.0503 72.1175L42.778 70.5212C42.778 70.4346 42.7409 70.348 42.679 70.2861C42.6295 70.249 42.5182 70.2366 42.3573 70.2737C42.2459 70.2861 42.0974 70.3109 41.9242 70.3356C41.751 70.3603 41.5777 70.3851 41.4045 70.3975C41.2312 70.4098 41.058 70.4222 40.8971 70.4346C40.7363 70.447 40.6002 70.447 40.5012 70.447C40.1052 70.4841 39.6968 70.3975 39.3627 70.15C39.2019 70.0262 39.1276 69.853 39.0534 69.655C38.9915 69.4694 38.9915 69.2714 38.9915 69.0487V62.317H41.4664C41.652 62.317 41.7633 62.2799 41.8005 62.218C41.85 62.1191 41.8747 62.0077 41.8623 61.8963V60.5351C41.8623 60.4361 41.85 60.3371 41.8005 60.2505C41.7633 60.1763 41.652 60.1392 41.4664 60.1392H38.9915V56.959C39.0039 56.8971 38.9915 56.8228 38.9667 56.761C38.942 56.6991 38.9049 56.6372 38.8678 56.6001C38.8183 56.5754 38.7688 56.5506 38.7069 56.5506C38.6574 56.5382 38.5955 56.5506 38.546 56.563L36.7765 57.058C36.6404 57.1075 36.5043 57.1693 36.3929 57.2559C36.3186 57.3054 36.2444 57.3797 36.2073 57.4539C36.1701 57.5406 36.1454 57.6024 36.1454 57.7138V60.1392H34.9698C34.7719 60.1392 34.6976 60.1887 34.6481 60.2505C34.6234 60.2877 34.4996 60.5723 34.4749 60.6094C34.4749 60.6094 34.0294 61.8097 33.9923 61.9334C33.9799 61.9829 33.9799 62.0324 33.9923 62.0819C34.0046 62.1314 34.0294 62.1685 34.0665 62.2057C34.1036 62.2428 34.1531 62.2799 34.215 62.3047C34.2769 62.3294 34.3264 62.3294 34.3882 62.3294H36.133L36.1454 69.4323C36.1454 70.4098 36.2939 71.3255 36.9745 72.1051C37.5066 72.7115 38.4841 72.9837 39.8329 72.9837C40.1423 72.9837 40.5754 72.9713 41.1446 72.9342C41.7138 72.8971 42.2831 72.7857 42.8152 72.6125C42.9636 72.5506 43.0379 72.4764 43.0503 72.4021C43.075 72.2907 43.0626 72.2041 43.0503 72.1175Z" fill="black"/>
<path d="M121.429 58.5552C121.33 58.5552 121.219 58.5799 121.132 58.617C121.033 58.6542 120.947 58.716 120.873 58.7903C120.798 58.8645 120.736 58.9512 120.699 59.0501C120.662 59.1491 120.637 59.2481 120.637 59.3595V72.1793C120.637 72.2783 120.662 72.3897 120.699 72.4887C120.736 72.5877 120.798 72.6743 120.873 72.7485C120.947 72.8228 121.033 72.8846 121.132 72.9218C121.231 72.9589 121.33 72.9836 121.429 72.9836C121.528 72.9836 121.64 72.9589 121.726 72.9218C121.825 72.8846 121.912 72.8228 121.986 72.7485C122.061 72.6743 122.122 72.5877 122.16 72.4887C122.197 72.3897 122.221 72.2907 122.221 72.1793V59.3471C122.221 59.1368 122.135 58.9388 121.986 58.7903C121.838 58.6418 121.64 58.5552 121.429 58.5552ZM104.6 63.146C104.068 63.146 103.536 63.2945 103.091 63.5915C102.645 63.8885 102.299 64.3092 102.088 64.8042C101.878 65.2992 101.829 65.8437 101.928 66.3757C102.027 66.9078 102.286 67.3904 102.658 67.774C103.029 68.1576 103.511 68.4175 104.044 68.5289C104.563 68.6402 105.108 68.5784 105.603 68.3804C106.098 68.17 106.518 67.8235 106.815 67.3781C107.112 66.9326 107.273 66.4005 107.273 65.8684C107.273 65.1507 106.989 64.4577 106.494 63.9504C105.999 63.4307 105.318 63.146 104.6 63.146ZM113.596 63.146C113.064 63.146 112.532 63.2945 112.087 63.5915C111.641 63.8885 111.295 64.3092 111.085 64.8042C110.874 65.2992 110.825 65.8437 110.924 66.3757C111.023 66.9078 111.282 67.3904 111.654 67.774C112.037 68.1576 112.508 68.4175 113.04 68.5289C113.559 68.6402 114.116 68.5784 114.599 68.3804C115.094 68.17 115.515 67.8235 115.811 67.3781C116.108 66.9326 116.269 66.4005 116.269 65.8684C116.269 65.1507 115.985 64.4577 115.49 63.9504C114.995 63.4307 114.314 63.146 113.596 63.146ZM95.6042 63.146C95.0721 63.146 94.54 63.2945 94.0946 63.5915C93.6491 63.8885 93.3026 64.3092 93.0922 64.8042C92.8819 65.2992 92.8324 65.8437 92.9314 66.3757C93.0304 66.9078 93.2902 67.3904 93.6615 67.774C94.0451 68.1576 94.5153 68.4175 95.0474 68.5289C95.5671 68.6402 96.1239 68.5784 96.6189 68.3804C97.1139 68.17 97.5346 67.8235 97.8316 67.3781C98.1286 66.9326 98.2895 66.4005 98.2895 65.8684C98.2895 65.1507 98.0172 64.4577 97.5099 63.9504C97.0025 63.4307 96.3219 63.146 95.6042 63.146Z" fill="#DD2222"/>
<path d="M55.5607 64.4825C55.9814 63.9133 56.2784 63.2575 56.4392 62.5645C56.5754 62.0077 56.6496 61.4385 56.662 60.8569C56.6744 60.0773 56.5259 59.1121 56.2289 58.382C55.9566 57.7014 55.5483 57.0827 55.0162 56.5754C54.4965 56.068 53.8654 55.672 53.1848 55.4245C52.43 55.1523 51.6628 55.0286 50.8089 55.0286H45.8592C45.6983 55.0286 45.4385 55.0286 45.2652 55.0781C45.0796 55.1276 44.9682 55.1647 44.8198 55.3627C44.7208 55.4988 44.6589 55.6225 44.6341 55.7958C44.5846 56.068 44.5846 56.3031 44.5723 56.5382V72.4269C44.5723 72.4764 44.5846 72.6249 44.6094 72.7115C44.6341 72.7981 44.6589 72.8352 44.7455 72.8971C44.8692 72.9837 45.0054 72.9837 45.1662 72.9837H46.7996C47.0224 72.9837 47.307 72.9837 47.4431 72.8971C47.5545 72.8228 47.5545 72.6743 47.5545 72.4392V66.6976H50.5614C51.6504 66.6976 52.7269 66.5243 53.7045 66.0541C54.4222 65.6705 55.0657 65.1384 55.5607 64.4825ZM52.9373 63.1585C52.6156 63.4555 52.2443 63.6782 51.8236 63.8267C51.4153 63.9628 51.044 63.9876 50.5367 63.9876H47.3812V57.9242H50.4872C51.0317 57.8994 51.5761 57.9984 52.0711 58.2088C52.4423 58.3696 52.7764 58.6171 53.0487 58.9389C53.2838 59.2235 53.4447 59.5452 53.5436 59.904C53.6303 60.2258 53.6798 60.7331 53.6921 61.0672C53.7169 61.8468 53.4447 62.5893 52.9373 63.1585ZM61.0425 59.2606C60.0649 59.2977 59.0997 59.4709 58.1716 59.7679C57.9613 59.8546 57.887 60.0278 57.9489 60.2877L58.2954 61.7107C58.3325 61.8592 58.382 61.9582 58.4686 61.9829C58.6047 62.0201 58.7409 62.0077 58.8646 61.9582C59.4215 61.7849 59.9907 61.6983 60.5723 61.6736C61.0054 61.6612 61.4385 61.7107 61.8592 61.8344C62.1562 61.9211 62.416 62.0819 62.6388 62.2923C62.8244 62.4903 62.9605 62.7254 63.0224 62.9976C63.0842 63.2822 63.1214 63.5792 63.1214 63.8762V64.3093H60.3619C59.5081 64.2846 58.6666 64.4207 57.8623 64.6805C57.2436 64.8909 56.6744 65.225 56.2041 65.6705C55.7834 66.0665 55.474 66.5491 55.2761 67.0935C55.0904 67.638 54.9914 68.2072 54.9914 68.7764C54.9914 69.3209 55.0657 69.8654 55.2389 70.3851C55.4122 70.8924 55.7092 71.3503 56.1175 71.7092C56.6125 72.1299 57.1941 72.4392 57.8128 72.6125C58.6914 72.86 59.5947 72.9466 60.5104 72.9466C60.9187 72.9466 61.3147 72.9342 61.7602 72.9095C62.1933 72.8847 62.6388 72.8352 63.0842 72.7733C63.5174 72.7115 63.9505 72.6125 64.3836 72.5011C64.7795 72.3897 65.1755 72.2536 65.5591 72.0804C65.7076 72.0061 65.8437 71.8948 65.918 71.7463C66.0046 71.5978 66.0417 71.4245 66.0293 71.2637V63.7648C66.0665 63.1585 65.9922 62.5398 65.7819 61.9582C65.5715 61.3766 65.2498 60.8569 64.829 60.4114C64.0123 59.6442 62.7501 59.2606 61.0425 59.2606ZM63.0966 70.2119C62.8739 70.2985 62.6388 70.3604 62.3913 70.4098C62.1314 70.4593 61.8963 70.4965 61.6612 70.5336C61.4385 70.5707 61.2281 70.5831 61.0054 70.5955C60.795 70.6078 60.6341 70.6078 60.5228 70.6078C59.8669 70.6326 59.2111 70.4965 58.6295 70.1871C58.382 70.0262 58.184 69.8035 58.0603 69.5436C57.9365 69.2838 57.887 68.9868 57.9118 68.6898C57.887 68.2815 57.986 67.8731 58.1964 67.5143C58.3696 67.242 58.6171 67.0193 58.9141 66.8584C59.1987 66.7099 59.5081 66.6109 59.8298 66.5862C60.1268 66.5491 60.4238 66.5367 60.7331 66.5367H63.0966V70.2119ZM75.9164 66.3634C75.5081 66.0417 75.0502 65.7819 74.5676 65.5839C74.0603 65.3735 73.5406 65.1755 73.0208 64.9899C72.563 64.829 72.167 64.6805 71.8453 64.5444C71.573 64.4331 71.3132 64.2846 71.0657 64.1237C70.8924 64.0123 70.7316 63.8515 70.6326 63.6782C70.5336 63.4926 70.4841 63.2946 70.4841 63.0966C70.4841 62.9358 70.5212 62.7749 70.5955 62.6264C70.6697 62.4779 70.7687 62.3418 70.8925 62.2428C71.2761 61.9458 71.7463 61.8097 72.2165 61.8344C72.7362 61.8221 73.2683 61.8592 73.788 61.9334C74.3696 62.0324 74.9265 62.1809 75.4833 62.3665C75.5823 62.4037 75.6813 62.4284 75.7927 62.416C75.8669 62.4037 75.9288 62.3294 75.9783 62.1933L76.5228 60.7826C76.5475 60.6713 76.5599 60.5475 76.5228 60.4361C76.498 60.3866 76.4733 60.3248 76.4361 60.2877C76.399 60.2505 76.3495 60.2134 76.2877 60.1887C75.6442 59.9412 74.9636 59.7556 74.283 59.6442C73.6024 59.5328 72.9095 59.4833 72.2041 59.4957C71.5235 59.4957 70.8553 59.6071 70.2119 59.8174C69.6798 59.9907 69.1972 60.2629 68.7764 60.6218C68.4052 60.9435 68.1082 61.3518 67.9102 61.8097C67.7122 62.2799 67.6256 62.7873 67.638 63.307C67.638 63.7525 67.737 64.1979 67.9226 64.6063C68.1082 64.9899 68.3681 65.3364 68.6898 65.6086C69.0734 65.9303 69.4941 66.2026 69.952 66.4129C70.5336 66.6852 71.1276 66.9203 71.7215 67.1183C72.4145 67.341 73.0951 67.638 73.7385 67.9969C73.9365 68.1082 74.1098 68.2691 74.2335 68.4671C74.3573 68.6651 74.4191 68.8878 74.4191 69.1229C74.4315 69.3209 74.382 69.5313 74.2954 69.7169C74.2088 69.9025 74.085 70.0634 73.9118 70.1871C73.4539 70.4965 72.9095 70.645 72.365 70.6202C71.7215 70.6202 71.0657 70.5583 70.4346 70.4222C69.754 70.2985 69.0858 70.0881 68.4547 69.8035C68.3928 69.7788 68.331 69.7416 68.2567 69.7293C68.1948 69.7169 68.1206 69.7293 68.0587 69.7416C67.9474 69.8159 67.8731 69.8901 67.8112 70.0262L67.242 71.3998C67.2049 71.474 67.1925 71.5359 67.1925 71.5854C67.1802 71.6473 67.1802 71.6968 67.1925 71.7586C67.2049 71.8205 67.2296 71.8453 67.2668 71.8948C67.3039 71.9319 67.3658 71.9814 67.4276 72.0061C67.8112 72.1917 68.1701 72.365 68.5661 72.4887C68.9868 72.6249 69.4199 72.7238 69.853 72.7981C70.2985 72.8723 70.744 72.9218 71.1894 72.959C71.6349 72.9961 72.0556 72.9961 72.4516 72.9961C73.0951 72.9961 73.7509 72.8971 74.3696 72.7238C74.9265 72.5754 75.4462 72.3279 75.9041 71.9814C76.3372 71.6597 76.6836 71.2389 76.9064 70.744C77.1539 70.1995 77.2652 69.6055 77.2528 69.0115C77.2652 68.4671 77.1291 67.935 76.8692 67.4648C76.6218 67.0317 76.3 66.6604 75.9164 66.3634ZM86.9791 66.3634C86.5707 66.0417 86.1129 65.7819 85.6303 65.5839C85.1229 65.3735 84.6032 65.1755 84.0835 64.9899C83.6256 64.829 83.2296 64.6805 82.9079 64.5444C82.6357 64.4331 82.3758 64.2846 82.1283 64.1237C81.9551 64.0123 81.7942 63.8515 81.6952 63.6782C81.5962 63.4926 81.5467 63.2946 81.5467 63.0966C81.5467 62.9358 81.5839 62.7749 81.6581 62.6264C81.7324 62.4779 81.8313 62.3418 81.9551 62.2428C82.3387 61.9458 82.8089 61.8097 83.2791 61.8344C83.7989 61.8221 84.331 61.8592 84.8507 61.9334C85.4323 62.0324 86.0015 62.1809 86.546 62.3665C86.645 62.4037 86.744 62.4284 86.8553 62.416C86.9296 62.4037 86.9791 62.317 87.0409 62.1933L87.5854 60.7826C87.6102 60.6713 87.6225 60.5475 87.5978 60.4361C87.573 60.3866 87.5483 60.3248 87.5112 60.2877C87.474 60.2505 87.4245 60.2134 87.3627 60.1887C86.7192 59.9412 86.0386 59.7556 85.358 59.6442C84.6774 59.5328 83.9721 59.4833 83.2791 59.4957C82.5986 59.4957 81.9303 59.6071 81.2869 59.8174C80.7548 59.9907 80.2722 60.2629 79.8515 60.6218C79.4802 60.9435 79.1832 61.3518 78.9853 61.8097C78.7873 62.2799 78.7006 62.7873 78.713 63.307C78.713 63.7525 78.812 64.1979 78.9976 64.6063C79.1832 64.9899 79.4431 65.3364 79.7648 65.6086C80.1484 65.9303 80.5692 66.2026 81.027 66.4129C81.6086 66.6852 82.2026 66.9203 82.7965 67.1183C83.4895 67.341 84.1701 67.638 84.8136 67.9969C85.0116 68.1082 85.1848 68.2691 85.3085 68.4671C85.4323 68.6651 85.4942 68.8878 85.4942 69.1229C85.5065 69.3209 85.457 69.5313 85.3704 69.7169C85.2838 69.9025 85.16 70.0634 84.9868 70.1871C84.5289 70.4965 83.9845 70.645 83.44 70.6202C82.7965 70.6202 82.1407 70.5583 81.5096 70.4222C80.829 70.2985 80.1608 70.0757 79.5297 69.8035C79.4679 69.7788 79.406 69.7416 79.3317 69.7293C79.2699 69.7169 79.1956 69.7293 79.1337 69.7416C79.0224 69.8159 78.9481 69.8901 78.8863 70.0262L78.3047 71.3998C78.2675 71.474 78.2552 71.5235 78.2552 71.5854C78.2428 71.6473 78.2552 71.7092 78.2675 71.7586C78.2799 71.8205 78.3047 71.8453 78.3542 71.8948C78.3913 71.9319 78.4284 71.969 78.5027 72.0061C78.8739 72.2041 79.2451 72.365 79.6411 72.4887C80.0618 72.6249 80.4949 72.7238 80.928 72.7981C81.3735 72.8723 81.819 72.9218 82.2645 72.959C82.7099 72.9961 83.1307 72.9961 83.5266 72.9961C84.1948 72.9961 84.8259 72.8971 85.4447 72.7238C86.0015 72.5754 86.5212 72.3279 86.9791 71.9814C87.4122 71.6597 87.7463 71.2389 87.9814 70.744C88.2289 70.1995 88.3402 69.6055 88.3279 69.0115C88.3402 68.4671 88.2041 67.935 87.9443 67.4648C87.6844 67.0317 87.3627 66.6604 86.9791 66.3634Z" fill="#DD2222"/>
<path d="M126.602 57.0208C126.626 57.0579 126.713 57.2311 126.899 57.5529C126.899 57.5529 126.985 57.7014 126.998 57.7137C127.01 57.7261 127.01 57.7385 126.985 57.7385C126.973 57.7385 126.961 57.7385 126.961 57.7385C126.961 57.7385 126.936 57.7385 126.899 57.7385H126.837H126.775C126.775 57.7385 126.775 57.7385 126.713 57.7385C126.713 57.7385 126.701 57.7385 126.688 57.7385C126.676 57.7385 126.664 57.7261 126.664 57.7261C126.639 57.689 126.589 57.6147 126.589 57.6147L126.342 57.1693C126.317 57.1321 126.305 57.0826 126.28 57.0455C126.268 57.0208 126.268 57.0084 126.255 56.996C126.243 56.9837 126.218 56.9837 126.218 56.9837C126.206 56.9837 126.156 56.9837 126.156 56.9837H126.094H126.033H125.971C125.971 56.9837 125.971 56.9837 125.909 56.9837V57.0455V57.6147V57.6766C125.909 57.6766 125.909 57.689 125.909 57.7137C125.909 57.7385 125.896 57.7385 125.872 57.7385C125.81 57.7385 125.773 57.7385 125.773 57.7385H125.711C125.711 57.7385 125.698 57.7385 125.674 57.7385C125.649 57.7385 125.649 57.7385 125.649 57.7137C125.649 57.7014 125.649 57.689 125.649 57.6766C125.649 57.6766 125.649 57.6766 125.649 57.6147V57.5529V57.491V55.969V55.9071C125.649 55.9071 125.649 55.8452 125.711 55.8452H126.156C126.28 55.8452 126.379 55.8452 126.441 55.8452C126.626 55.8452 126.713 55.9442 126.787 56.0308C126.849 56.1051 126.886 56.2041 126.886 56.3897C126.886 56.5753 126.862 56.6867 126.763 56.7857C126.713 56.8352 126.664 56.8723 126.626 56.9094C126.626 56.9094 126.589 56.9342 126.589 56.9589C126.577 56.996 126.602 57.0208 126.602 57.0208ZM126.07 56.7362C126.132 56.7362 126.193 56.7362 126.193 56.7362C126.255 56.7362 126.317 56.7362 126.317 56.7362C126.354 56.7362 126.602 56.7362 126.602 56.4021C126.602 56.068 126.317 56.1051 126.317 56.1051C126.255 56.1051 126.193 56.1051 126.132 56.1051C126.02 56.1051 125.958 56.1051 125.946 56.1051C125.909 56.1051 125.884 56.1174 125.884 56.1669C125.884 56.1669 125.884 56.1669 125.884 56.2288C125.884 56.2288 125.884 56.2288 125.884 56.2907V56.3526V56.4144V56.6C125.884 56.6495 125.884 56.6372 125.884 56.6743C125.884 56.699 125.896 56.7238 125.946 56.7238C125.946 56.7362 126.033 56.7362 126.07 56.7362Z" fill="#DD2222"/>
<path d="M126.169 58.6914C125.166 58.6914 124.337 57.8747 124.337 56.86C124.337 55.8453 125.166 55.0286 126.169 55.0286C127.171 55.0286 128 55.8453 128 56.86C128.062 57.8623 127.245 58.6914 126.169 58.6914ZM126.169 55.3379C125.29 55.3379 124.659 56.0309 124.659 56.9095C124.659 57.788 125.352 58.4191 126.231 58.4191C127.109 58.4191 127.74 57.7262 127.74 56.9095C127.74 55.969 127.047 55.3379 126.169 55.3379Z" fill="#DD2222"/>
</g>
<defs>
<clipPath id="clip0_60_24557">
<rect width="128" height="17.9428" fill="white" transform="translate(0 55.0286)"/>
</clipPath>
</defs>
</svg>
