<svg width="128" height="128" viewBox="0 0 128 128" fill="none" xmlns="http://www.w3.org/2000/svg">
<g clip-path="url(#clip0_60_22706)">
<g clip-path="url(#clip1_60_22706)">
<path d="M65.0667 127.686C64.5424 127.677 64.0304 127.526 63.5856 127.248C63.1408 126.971 62.7801 126.577 62.5423 126.11C62.3091 125.658 62.2097 125.149 62.2559 124.643C62.3021 124.137 62.4919 123.655 62.803 123.253L92.723 82.0504L40.2963 103.49C39.9426 103.65 39.5587 103.733 39.1704 103.733C38.5674 103.727 37.9822 103.528 37.5003 103.166C37.0184 102.803 36.6651 102.296 36.4919 101.719C36.3207 101.145 36.3441 100.531 36.5585 99.9729C36.7729 99.4144 37.1662 98.9426 37.6771 98.6311L83.7511 71.4252L2.61337 66.7615C1.90917 66.7154 1.24886 66.4032 0.76641 65.8882C0.283961 65.3731 0.0155029 64.6939 0.0155029 63.9882C0.0155029 63.2825 0.283961 62.6032 0.76641 62.0881C1.24886 61.5731 1.90917 61.2609 2.61337 61.2148L83.7986 56.5511L37.6949 29.3511C37.1909 29.0355 36.8051 28.5625 36.5972 28.0054C36.3894 27.4483 36.3711 26.8382 36.5452 26.2696C36.7156 25.6915 37.0674 25.1835 37.5487 24.8207C38.0299 24.4579 38.6151 24.2595 39.2178 24.2548C39.6057 24.2528 39.9896 24.3336 40.3437 24.4919L92.7408 45.9437L62.8148 4.74668C62.5065 4.34243 62.3185 3.85941 62.2724 3.35311C62.2263 2.8468 62.3239 2.33776 62.5541 1.88446C62.7922 1.41525 63.1547 1.02056 63.602 0.74359C64.0494 0.466616 64.5643 0.318029 65.0904 0.314087C65.4538 0.316465 65.813 0.391628 66.1468 0.535138C66.4807 0.678648 66.7824 0.887596 67.0341 1.14964L126.679 60.7882C127.525 61.6379 128.001 62.7886 128.001 63.9882C128.001 65.1878 127.525 66.3384 126.679 67.1882L67.0104 126.85C66.7587 127.112 66.457 127.321 66.1231 127.465C65.7893 127.608 65.4301 127.684 65.0667 127.686Z" fill="black"/>
</g>
</g>
<defs>
<clipPath id="clip0_60_22706">
<rect width="128" height="128"/>
</clipPath>
<clipPath id="clip1_60_22706">
<rect width="128" height="127.372" transform="translate(0 0.314087)"/>
</clipPath>
</defs>
</svg>
