<?xml version="1.0" encoding="UTF-8"?>
<svg id="uuid-35c4e26c-a2d4-4308-a030-0f439c8746fa" data-name="Layer 1" xmlns="http://www.w3.org/2000/svg" xmlns:xlink="http://www.w3.org/1999/xlink" viewBox="0 0 1700.042 731.429">
  <defs>
    <style>
      .uuid-ff372f42-8868-45b2-af09-1c6f3bceced2 {
        fill: #52c1f2;
      }

      .uuid-19f47aa9-9fec-47f2-a14f-e0aad3e1e1b7 {
        fill: url(#uuid-c59518bc-0e09-4472-ac5e-748ff8199cd5);
      }

      .uuid-09cb7374-99eb-459d-92a3-93e5c9797e16 {
        fill: url(#uuid-398ca427-2baf-4353-a64e-b1c3d6c2ab77);
      }

      .uuid-ba6b42bc-7ad8-4400-a2a1-73aeddd27bcf {
        fill: url(#uuid-4d5c5c54-bdbb-4fdd-81ab-cc97aec14c0a);
      }

      .uuid-19e923a8-ce57-4ba3-a05a-a4d820a043c6 {
        fill: url(#uuid-a7081a15-75bf-45c2-a8b6-cda0c53c689d);
      }

      .uuid-3351446c-b6f1-46b5-9437-2a6bb0aa0824 {
        fill: url(#uuid-141facd5-2a57-4a96-a830-bfea42387eeb);
      }

      .uuid-65593fa1-8d94-4b2a-9dbd-7bca2f56eb2b {
        fill: url(#uuid-78d55ef4-fd30-4ec3-80b2-71a7116fd2f6);
      }

      .uuid-d0edf213-5928-46da-9a0a-5ec0983d03aa {
        fill: url(#uuid-1ad88197-6a22-4bcf-bccb-fc4201a7fbd5);
      }

      .uuid-8a0d312b-7a57-48ac-9f2d-855b0dcb2d4e {
        fill: url(#uuid-19c75d77-ca39-4878-8f4f-bc2b3be7b197);
      }

      .uuid-f49f17cb-06f9-4718-8962-b015c4da332d {
        fill: url(#uuid-351bcae5-1b54-4947-8e82-30b7f3d6cfd1);
      }
    </style>
    <linearGradient id="uuid-141facd5-2a57-4a96-a830-bfea42387eeb" x1="224.336" y1="572.119" x2="224.336" y2="278.973" gradientUnits="userSpaceOnUse">
      <stop offset="0" stop-color="#ba87e8"/>
      <stop offset=".017" stop-color="#b689e8"/>
      <stop offset=".234" stop-color="#8ba1ec"/>
      <stop offset=".43" stop-color="#6bb2ef"/>
      <stop offset=".595" stop-color="#58bdf1"/>
      <stop offset=".71" stop-color="#52c1f2"/>
    </linearGradient>
    <linearGradient id="uuid-19c75d77-ca39-4878-8f4f-bc2b3be7b197" x1="400.386" y1="533.932" x2="400.386" y2="310.4" xlink:href="#uuid-141facd5-2a57-4a96-a830-bfea42387eeb"/>
    <linearGradient id="uuid-78d55ef4-fd30-4ec3-80b2-71a7116fd2f6" x1="592.519" y1="499.827" x2="592.519" y2="267.435" xlink:href="#uuid-141facd5-2a57-4a96-a830-bfea42387eeb"/>
    <linearGradient id="uuid-351bcae5-1b54-4947-8e82-30b7f3d6cfd1" x1="787.965" y1="471.831" x2="787.965" y2="239.57" xlink:href="#uuid-141facd5-2a57-4a96-a830-bfea42387eeb"/>
    <linearGradient id="uuid-1ad88197-6a22-4bcf-bccb-fc4201a7fbd5" x1="977.867" y1="427.661" x2="977.867" y2="207.751" xlink:href="#uuid-141facd5-2a57-4a96-a830-bfea42387eeb"/>
    <linearGradient id="uuid-4d5c5c54-bdbb-4fdd-81ab-cc97aec14c0a" x1="1168.881" y1="404.126" x2="1168.881" y2="111.22" xlink:href="#uuid-141facd5-2a57-4a96-a830-bfea42387eeb"/>
    <linearGradient id="uuid-398ca427-2baf-4353-a64e-b1c3d6c2ab77" x1="1299.918" y1="368.697" x2="1299.918" y2="75.791" xlink:href="#uuid-141facd5-2a57-4a96-a830-bfea42387eeb"/>
    <linearGradient id="uuid-a7081a15-75bf-45c2-a8b6-cda0c53c689d" x1="1422.275" y1="424.331" x2="1422.275" y2="117.885" xlink:href="#uuid-141facd5-2a57-4a96-a830-bfea42387eeb"/>
    <linearGradient id="uuid-c59518bc-0e09-4472-ac5e-748ff8199cd5" x1="80.437" y1="821.201" x2="1630.838" y2="222.015" gradientTransform="translate(12.431 142.452) rotate(-10.109) skewX(-10)" gradientUnits="userSpaceOnUse">
      <stop offset=".065" stop-color="#a400d4" stop-opacity="0"/>
      <stop offset=".265" stop-color="#893ddd" stop-opacity=".318"/>
      <stop offset=".583" stop-color="#629bec" stop-opacity=".805"/>
      <stop offset=".724" stop-color="#52c1f2"/>
    </linearGradient>
  </defs>
  <g>
    <path class="uuid-3351446c-b6f1-46b5-9437-2a6bb0aa0824" d="M138.377,572.119l-.544-285.468,43.067-7.679.471,247.089,129.393-23.07.073,38.379-172.461,30.748Z"/>
    <path class="uuid-8a0d312b-7a57-48ac-9f2d-855b0dcb2d4e" d="M381.897,532.461c-13.459,2.4-25.258,1.863-35.392-1.606-10.137-3.468-18.034-9.45-23.691-17.941-5.66-8.49-8.498-18.933-8.522-31.331v-.396c-.024-12.133,2.903-23.109,8.783-32.932,5.878-9.821,14.42-18.304,25.628-25.448,11.204-7.143,24.753-12.592,40.646-16.35l76.512-18.391.057,30.07-70.937,17.2c-12.432,3.008-22.007,7.782-28.726,14.324-6.719,6.541-10.07,14.232-10.053,23.066v.396c.018,9.1,3.397,15.69,10.136,19.763,6.739,4.077,15.685,5.119,26.836,3.131,9.739-1.736,18.483-5.339,26.232-10.811,7.746-5.469,13.855-12.198,18.329-20.188,4.471-7.987,6.7-16.464,6.683-25.434l-.118-61.921c-.022-11.474-3.5-19.858-10.434-25.152-6.934-5.295-16.874-6.788-29.819-4.48-11.92,2.125-21.499,6.474-28.728,13.038-7.233,6.568-11.738,14.165-13.516,22.794l-.381,1.849-39.222,6.993.188-2.21c1.002-12.182,4.89-23.661,11.667-34.436,6.774-10.772,16.181-20.003,28.22-27.691,12.036-7.687,26.324-13.005,42.859-15.953,16.535-2.948,30.831-2.658,42.891.862,12.057,3.524,21.43,9.835,28.116,18.933,6.683,9.099,10.04,20.572,10.067,34.42l.273,143.427-41.914,7.473-.063-32.84-.769.137c-3.96,8.226-9.076,15.638-15.344,22.229-6.271,6.594-13.344,12.075-21.221,16.449-7.877,4.372-16.304,7.359-25.274,8.958Z"/>
    <path class="uuid-65593fa1-8d94-4b2a-9dbd-7bca2f56eb2b" d="M575.421,498.354c-14.741,2.628-27.341,1.738-37.798-2.662-10.46-4.399-18.456-11.913-23.988-22.538-5.535-10.621-8.315-23.914-8.346-39.873l-.257-134.721,41.913-7.473.241,126.611c.03,15.696,3.61,27.096,10.739,34.202,7.13,7.108,17.871,9.38,32.228,6.82,7.432-1.325,14.063-3.794,19.892-7.405,5.826-3.612,10.851-8.134,15.072-13.572,4.221-5.434,7.446-11.683,9.677-18.744,2.228-7.057,3.338-14.612,3.323-22.658l-.231-121.467,41.721-7.438.396,208.116-41.721,7.438-.06-31.257-.961.171c-3.448,7.476-8.051,14.397-13.808,20.768-5.758,6.369-12.641,11.787-20.644,16.247-8.006,4.461-17.136,7.607-27.389,9.435Z"/>
    <path class="uuid-f49f17cb-06f9-4718-8962-b015c4da332d" d="M700.875,471.831l-.396-208.116,41.914-7.473.06,31.454.769-.137c5.363-11.51,13.23-21.455,23.599-29.835,10.37-8.379,23.179-13.928,38.435-16.648,22.173-3.953,39.361-.122,51.565,11.487,12.202,11.612,18.328,29.418,18.374,53.421l.257,134.722-41.721,7.438-.241-126.413c-.03-15.693-3.61-27.126-10.74-34.3-7.129-7.17-17.874-9.479-32.228-6.919-9.742,1.737-18.231,5.495-25.462,11.268-7.235,5.777-12.798,13.036-16.691,21.776-3.896,8.743-5.831,18.587-5.81,29.533l.231,121.27-41.914,7.473Z"/>
    <path class="uuid-d0edf213-5928-46da-9a0a-5ec0983d03aa" d="M982.463,425.782c-19.611,3.496-36.634,2.112-51.071-4.154-14.437-6.263-25.549-16.818-33.333-31.657-7.787-14.839-11.699-33.338-11.742-55.495v-.197c-.042-22.024,3.863-41.784,11.715-59.281,7.852-17.495,18.947-31.906,33.287-43.237,14.337-11.329,31.121-18.709,50.348-22.137,17.304-3.085,32.274-2.356,44.913,2.184,12.636,4.544,22.556,11.779,29.757,21.708,7.198,9.932,11.388,21.321,12.567,34.172l.195,1.548-39.799,7.096-.388-1.712c-2.2-9.765-7.183-17.683-14.95-23.753-7.772-6.066-18.449-7.892-32.034-5.47-10.64,1.897-19.96,6.497-27.957,13.791-8.001,7.299-14.201,16.75-18.602,28.351-4.402,11.604-6.589,24.792-6.561,39.562v.197c.029,15.168,2.295,27.727,6.804,37.674,4.505,9.952,10.769,17.047,18.792,21.288,8.019,4.244,17.416,5.404,28.182,3.484,12.815-2.285,23.161-7.592,31.032-15.921,7.869-8.33,13.073-18.327,15.617-29.996l.189-1.617,39.991-7.13.003,1.385c-1.512,14.122-6.073,27.437-13.676,39.939-7.607,12.507-17.651,23.135-30.136,31.891-12.484,8.757-26.868,14.587-43.144,17.489Z"/>
    <path class="uuid-ba6b42bc-7ad8-4400-a2a1-73aeddd27bcf" d="M1080.616,404.126l-.544-285.468,41.721-7.438.212,111.575.961-.171c5.231-13.069,13.193-23.889,23.883-32.458,10.688-8.566,23.597-14.201,38.723-16.898,14.483-2.582,27.083-1.366,37.799,3.651,10.714,5.016,19.066,13.258,25.05,24.723,5.984,11.469,8.992,25.577,9.024,42.324l.245,128.589-41.721,7.438-.229-120.479c-.033-17.276-4.096-30.009-12.19-38.198-8.093-8.186-19.446-10.979-34.058-8.374-9.487,1.691-17.78,5.479-24.885,11.363-7.105,5.886-12.638,13.271-16.594,22.155-3.959,8.888-5.927,18.802-5.906,29.747l.229,120.479-41.721,7.438Z"/>
    <path class="uuid-09cb7374-99eb-459d-92a3-93e5c9797e16" d="M1279.33,368.697l-.544-285.468,41.721-7.438.544,285.468-41.721,7.438Z"/>
    <path class="uuid-19e923a8-ce57-4ba3-a05a-a4d820a043c6" d="M1367.624,422.416c-3.974.709-7.949,1.22-11.922,1.532-3.975.313-7.245.432-9.808.364l-.064-33.434c1.539-.011,3.492-.063,5.865-.155,2.371-.095,4.968-.392,7.788-.895,9.868-1.759,17.714-4.874,23.543-9.342,5.824-4.472,10.393-12.015,13.708-22.63l3.442-10.509-74.033-195.185,45.182-8.056,53.982,169.076-7.324-7.995,10.191-1.817-7.289,10.6,53.494-188.237,44.028-7.85-74.953,231.05c-4.971,15.265-10.813,27.917-17.525,37.954-6.713,10.034-14.776,17.873-24.189,23.509-9.413,5.636-20.787,9.642-34.116,12.018Z"/>
  </g>
  <polygon class="uuid-ff372f42-8868-45b2-af09-1c6f3bceced2" points="1700.042 129.995 1538.378 158.818 1618.935 0 1700.042 129.995"/>
  <path class="uuid-19f47aa9-9fec-47f2-a14f-e0aad3e1e1b7" d="M1499.028,464.179L.077,731.429l-.077-40.617,1498.95-267.249c55.593-9.912,97.467-57.833,100.624-121.967l2.843-154.866,39-8-2.464,155.845c.464,88.155-62.619,155.822-139.926,169.605Z"/>
</svg>