<svg width="101" height="32" viewBox="0 0 101 32" fill="none" xmlns="http://www.w3.org/2000/svg" style="fill: none !important;"> <path d="M100.803 12.8944C100.059 11.2615 98.2372 12.7168 97.5424 13.5115C96.8407 14.3147 96.185 15.1612 95.5555 16.0217C95.5297 15.3531 95.7162 14.6397 95.8154 13.9813C95.9329 13.2019 96.0112 12.6873 95.0268 12.6873C93.7952 12.6873 93.6163 13.7863 93.3811 14.7965C93.0758 16.1093 92.8375 17.4372 92.6628 18.7731C91.0945 20.205 86.9419 23.3066 85.3655 20.4836C87.197 19.98 89.0015 18.8722 89.9566 17.1895C90.9431 15.4516 90.4506 13.1887 88.4705 12.4472C84.1046 10.8147 81.5766 16.6429 82.0819 20.0633C81.4953 20.4929 79.7573 21.8529 79.1148 20.8851C78.4758 19.9237 78.8246 18.2069 79.1861 17.1961C80.3456 14.3877 81.7679 11.6981 82.6548 8.78192C83.3211 6.59123 84.3679 2.78385 82.7182 0.783948C80.5738 -1.81545 77.6893 2.75834 76.9714 4.38979C75.8019 7.04595 75.2407 10.0088 75.1718 12.9012C71.622 13.2267 68.743 16.6157 68.7348 20.1289C67.1547 21.1542 64.4735 22.692 63.2403 20.4836C65.0721 19.98 66.8762 18.8722 67.8313 17.1895C68.8181 15.4516 68.3253 13.1887 66.3454 12.4472C61.9815 10.8153 59.4828 16.6089 59.9581 20.0293C58.8371 20.7775 57.5865 21.5105 56.2092 21.6171C54.8095 21.7261 54.5613 20.6708 53.9839 19.6366C55.5447 19.6916 57.0845 19.3577 58.2033 18.1837C59.4278 16.8989 59.9534 14.7367 58.6828 13.298C57.5122 11.9727 55.4154 11.9448 53.9719 12.8104C52.4015 13.7518 51.5162 15.5542 51.1529 17.2895C49.4904 17.1946 48.7056 16.6983 48.6814 16.704C50.635 14.2094 52.2581 11.4738 53.5103 8.56488C54.3666 6.57498 56.1704 2.07871 53.0167 1.07226C50.1124 0.142194 48.191 3.46173 47.2748 5.66067C46.0459 8.61051 45.409 11.7764 44.9057 14.9179C44.4031 14.706 42.6035 13.465 42.8681 15.0112C43.0256 15.9296 43.8312 16.9384 44.5489 17.5042C44.5286 17.8542 44.4731 18.2629 44.4193 18.6385C43.3129 19.5558 41.9626 20.9249 40.5009 21.189C38.755 21.5048 39.4406 18.0465 39.7453 17.1946C40.9048 14.3862 42.3271 11.6966 43.2139 8.78042C43.8802 6.58974 44.9275 2.78235 43.2777 0.782446C41.1333 -1.81695 38.2485 2.75684 37.5305 4.38829C36.3613 7.04445 35.7998 10.0073 35.7308 12.8997C32.0492 13.2373 29.1062 16.857 29.3154 20.4973C28.9363 20.8473 27.7232 21.9439 27.2011 21.3293C26.5917 20.6114 27.1098 18.7819 27.2543 17.976C27.572 16.2022 28.6813 13.4947 26.4821 12.5847C22.1368 10.7864 18.4617 15.8117 17.8226 19.548C16.2305 20.7607 12.8469 22.9721 11.4565 20.4825C13.2003 20.003 14.9019 18.9832 15.8945 17.4412C16.9519 15.7991 16.7655 13.4896 14.8552 12.5709C10.5711 10.5113 7.85378 16.2503 8.14232 19.6418C7.42115 20.1545 6.67217 20.6671 5.84952 21.007C5.42591 21.182 4.92914 21.4063 4.65651 20.9107C4.42769 20.4757 4.30955 19.9911 4.31246 19.4998V19.3237C4.63484 17.2031 5.99135 15.3546 6.99153 13.5041C8.16136 11.3412 9.33207 9.13987 10.0562 6.78127C10.5568 5.15157 11.5427 1.58523 9.77835 0.360487C7.80842 -1.00754 5.49244 2.1976 4.67443 3.55863C2.34304 7.4389 0.916992 12.4399 0.916992 16.9691C0.916992 19.1244 1.23097 21.7778 2.67631 23.491C4.3067 25.4234 7.40725 23.3311 9.01496 22.3111C11.1544 25.5618 15.4047 24.1978 18.0501 22.4112C19.4199 25.4336 23.0768 24.2899 24.812 22.2725C25.1753 23.1906 25.7642 24.1946 26.8374 24.3422C28.056 24.5099 29.1969 23.7484 30.0741 22.9941C31.8384 25.6348 35.1746 23.702 36.8671 22.0586C37.3706 23.2713 38.5786 24.4832 40.0119 24.2614C41.4903 24.0324 42.9072 22.9846 44.0758 22.1195C43.8925 24.3752 43.7773 26.7059 44.3809 28.9138C44.7021 30.0891 45.3154 31.4912 46.6175 31.8297C47.9463 32.1747 49.1218 31.4286 49.8535 30.3734C51.1144 28.5548 51.2066 26.2244 50.4233 24.1971C49.8497 22.713 48.6567 20.909 46.9712 20.5714C47.0087 20.0494 47.0783 19.5301 47.1797 19.0166C47.2621 18.64 47.3686 18.7469 47.6844 18.8196C48.7697 19.0696 49.8684 19.3087 50.9804 19.4008C51.0821 21.4367 52.0992 23.4362 54.1571 24.0822C56.4921 24.8149 58.9656 23.7145 60.877 22.4292C62.9252 25.347 66.8072 24.3189 69.3591 22.7136C71.0222 25.6738 74.4968 23.8173 76.3078 22.0587C76.7741 23.1807 77.8112 24.288 79.1223 24.288C80.4958 24.288 81.9602 23.2253 83.0324 22.4752C85.3819 25.7397 89.8333 23.9917 92.4451 22.0603C92.4809 22.8332 92.574 23.8762 93.4244 24.2025C94.283 24.5321 94.9459 24.0212 95.1888 23.2012C95.6517 21.6375 95.3305 19.9418 96.2037 18.4895C96.997 17.1832 98.0696 16.0679 99.3449 15.2232C99.7333 14.9707 100.496 14.8463 100.712 14.4273C100.923 14.0183 101 13.3225 100.803 12.8946C100.736 12.7481 100.871 13.0415 100.803 12.8946L100.803 12.8944ZM54.3942 16.0815C54.7251 15.222 55.4363 14.6265 56.3825 14.6265C56.8413 14.6265 57.2963 14.9265 57.2507 15.4266C57.0891 17.206 55.4414 17.5513 54.0154 17.5582C54.0673 17.0499 54.195 16.5522 54.3942 16.0815C54.4994 15.8085 54.2891 16.3546 54.3942 16.0815ZM4.32625 11.7355C4.57645 9.86665 5.05615 8.03561 5.75455 6.28367C6.07479 5.49227 6.44703 4.69073 6.97788 4.01522C7.17922 3.75892 7.42566 3.47073 7.74966 3.36996C8.20434 3.22894 8.07541 3.96371 8.07541 4.22239C7.72899 7.72671 5.85516 11.2012 4.14959 14.2233C4.15143 13.3909 4.2105 12.5596 4.32637 11.7353C4.20848 12.5879 4.44427 10.8832 4.32637 11.7353L4.32625 11.7355ZM11.1922 17.7125C11.2442 16.8998 11.4346 15.9996 11.9565 15.3505C12.3836 14.8214 13.5796 14.1885 14.0398 14.9917C14.961 16.6117 12.6366 18.3798 11.1682 18.3798C11.1682 18.1951 11.1758 17.9723 11.1932 17.7122L11.1922 17.7125ZM24.0938 18.3293C23.9685 19.3448 23.5937 20.4599 22.9514 21.2664C22.0942 22.3438 21.039 21.7885 20.9494 20.5288C20.8026 18.4646 22.3685 14.6256 24.8635 14.6256L24.0938 18.3293ZM35.3285 20.3322C34.9239 21.0112 34.3269 21.7223 33.4617 21.628C32.4311 21.5162 32.2457 20.5744 32.3604 19.7035C32.6254 17.6933 33.9363 15.6726 35.783 14.7775C35.757 16.1951 35.8203 17.6128 35.9725 19.0225C35.795 19.4765 35.5795 19.9147 35.3283 20.3326C35.2281 20.5005 35.5637 19.9463 35.3283 20.3326L35.3285 20.3322ZM38.8111 14.8154V14.6895C38.809 12.8347 38.9255 10.9816 39.1599 9.14162C39.3 7.91924 39.5199 6.70729 39.8183 5.51352C40.0041 4.81113 40.3106 3.34033 41.1257 3.07065C42.4338 2.63757 41.3528 7.69808 41.2247 8.18543C40.6273 10.4578 39.7559 12.6677 38.8111 14.8158V14.8154ZM48.6121 27.695C48.5104 28.0898 48.0779 29.4578 47.3951 29.032C46.9183 28.734 46.939 27.6692 46.8952 27.1766C46.7501 25.5402 46.7307 23.8951 46.8369 22.2557C47.9378 23.2728 49.4018 24.6236 48.6121 27.6943V27.695ZM48.2771 12.5163C48.4916 10.7443 48.8983 9.00082 49.4902 7.31651C49.7118 6.66262 50.7659 2.67258 52.1622 3.89295C53.3438 4.92515 51.5733 7.59369 51.0674 8.56088C50.104 10.3949 49.0729 12.1925 48.1003 14.0213C48.1593 13.5594 48.2182 13.0577 48.2771 12.5162V12.5163ZM62.9753 17.7122C63.0275 16.8995 63.218 15.9994 63.7388 15.3502C64.1663 14.8211 65.3624 14.1883 65.8222 14.9914C66.7435 16.6115 64.4189 18.3796 62.9509 18.3796C62.9509 18.1949 62.9593 17.9723 62.976 17.712L62.9753 17.7122ZM74.768 20.332C74.3637 21.011 73.7667 21.722 72.9012 21.6277C71.8709 21.516 71.6859 20.5742 71.8002 19.7032C72.0652 17.6931 73.3759 15.6723 75.2224 14.7773C75.2413 15.9574 75.2897 17.7701 75.4119 19.0222C75.2348 19.4764 75.0193 19.9147 74.7677 20.3324C74.6675 20.5003 75.0035 19.946 74.7677 20.3324L74.768 20.332ZM78.2519 14.8151V14.6892C78.2499 12.8344 78.3666 10.9814 78.6011 9.14137C78.7411 7.91886 78.961 6.70679 79.2593 5.5129C79.4452 4.8105 79.7512 3.33971 80.5669 3.07003C81.8746 2.63694 80.794 7.69746 80.6657 8.1848C80.0676 10.4571 79.1967 12.6671 78.2519 14.8151ZM85.101 17.7123C85.153 16.8997 85.3433 15.9995 85.8653 15.3504C86.292 14.8213 87.4884 14.1884 87.9482 14.9915C88.8696 16.6116 86.545 18.3797 85.0769 18.3797C85.0769 18.1949 85.0844 17.9721 85.102 17.7121" fill="#21B6D9" style="fill: rgb(33, 182, 217) !important;"/> </svg>