<svg width="128" height="128" viewBox="0 0 128 128" fill="none" xmlns="http://www.w3.org/2000/svg">
<g clip-path="url(#clip0_240_6221)">
<path fill-rule="evenodd" clip-rule="evenodd" d="M47.6746 78.5627L82.0118 94.4379C86.2678 96.4063 89.2717 99.7101 90.8941 103.5C94.9974 113.097 89.3892 122.911 80.5856 126.442C71.7801 129.97 62.3958 127.699 58.1288 117.719L43.1852 82.6815C42.0272 79.9657 44.9362 77.2969 47.6746 78.5627Z" fill="#FFC233"/>
<path fill-rule="evenodd" clip-rule="evenodd" d="M49.7328 68.286L85.178 54.8872C96.9582 50.4341 109.826 58.8597 109.653 71.102C109.65 71.262 109.647 71.4216 109.643 71.5829C109.388 83.5043 96.8782 91.5171 85.3568 87.2995L49.7664 74.2732C46.9274 73.2346 46.9064 69.3544 49.7328 68.286Z" fill="#FFC233"/>
<path fill-rule="evenodd" clip-rule="evenodd" d="M47.7485 63.6453L82.5925 48.8398C94.171 43.9194 97.1095 29.1518 88.0411 20.6191C87.9223 20.5067 87.8034 20.3957 87.6832 20.2847C78.7922 12.0323 64.0951 14.9379 59.0335 25.8075L43.3976 59.3897C42.1501 62.0677 44.9696 64.8256 47.7485 63.6453Z" fill="#FFC233"/>
<path fill-rule="evenodd" clip-rule="evenodd" d="M38.7817 57.7947L51.4498 23.059C53.0204 18.752 52.7295 14.3598 51.1058 10.5701C46.994 0.977281 35.8587 -2.11922 27.0561 1.41596C18.255 4.9525 13.2817 12.9842 17.5571 22.9601L32.5986 57.9598C33.765 60.672 37.7719 60.565 38.7817 57.7947Z" fill="#FFC233"/>
</g>
<defs>
<clipPath id="clip0_240_6221">
<rect width="96" height="128" fill="white" transform="translate(16)"/>
</clipPath>
</defs>
</svg>
