<svg width="128" height="128" viewBox="0 0 128 128" fill="none" xmlns="http://www.w3.org/2000/svg">
<g clip-path="url(#clip0_240_6751)">
<g clip-path="url(#clip1_240_6751)">
<path d="M126.8 121.3L102.7 97.2C101.1 95.6 98.5998 95.6 96.9998 97.2L72.8998 121.3C71.2998 122.8 71.2998 125.3 72.7998 126.8C73.5998 127.6 74.6998 128.1 75.7998 128H124C126.2 128.1 128 126.3 128 124.2C128 123.1 127.6 122 126.8 121.3Z" fill="#C3C6CC"/>
<path d="M127.6 34.7L120 12.3C119.7 11.3 119.1 10.4 118.4 9.59998L0.899902 127.1C1.5999 127.7 2.4999 128 3.3999 128H36.7999C38.6999 128 40.4999 127.3 41.7999 125.9L126 41.8C127.9 39.9 128.5 37.2 127.6 34.7Z" fill="#E1E3E6"/>
<path d="M115.7 7.89995L93.2999 0.399949C90.7999 -0.500051 88.0999 0.0999476 86.1999 1.99995L1.9999 86.0999C0.699901 87.3999 -0.100098 89.1999 -0.100098 91.0999V124.5C-0.100098 125.4 0.199904 126.3 0.799904 127L118.5 9.49995C117.7 8.79995 116.7 8.29995 115.7 7.89995Z" fill="#C3C6CC"/>
</g>
</g>
<defs>
<clipPath id="clip0_240_6751">
<rect width="128" height="128" fill="white"/>
</clipPath>
<clipPath id="clip1_240_6751">
<rect width="128" height="128" fill="white"/>
</clipPath>
</defs>
</svg>
