<svg version="1.1" id="Layer_1" xmlns="http://www.w3.org/2000/svg" xmlns:xlink="http://www.w3.org/1999/xlink" x="0px" y="0px" viewBox="-70 -48 128 128" style="enable-background:new -70 -48 128 128;" xml:space="preserve">
 <style type="text/css">
  .st0{fill:#C3C6CC;}
	.st1{fill:#E1E3E6;}
 </style>
 <title>
  lever_rgb_mark_standard2
 </title>
 <g>
  <path class="st0" d="M56.8,73.3L32.7,49.2c-1.6-1.6-4.1-1.6-5.7,0L2.9,73.3c-1.6,1.5-1.6,4-0.1,5.5c0.8,0.8,1.9,1.3,3,1.2h48.2
		c2.2,0.1,4-1.7,4-3.8C58,75.1,57.6,74,56.8,73.3z">
  </path>
  <path class="st1" d="M57.6-13.3L50-35.7c-0.3-1-0.9-1.9-1.6-2.7L-69.1,79.1c0.7,0.6,1.6,0.9,2.5,0.9h33.4c1.9,0,3.7-0.7,5-2.1
		L56-6.2C57.9-8.1,58.5-10.8,57.6-13.3z">
  </path>
  <path class="st0" d="M45.7-40.1l-22.4-7.5c-2.5-0.9-5.2-0.3-7.1,1.6l-84.2,84.1c-1.3,1.3-2.1,3.1-2.1,5v33.4c0,0.9,0.3,1.8,0.9,2.5
		L48.5-38.5C47.7-39.2,46.7-39.7,45.7-40.1z">
  </path>
 </g>
</svg>