<svg width="128" height="128" viewBox="0 0 128 128" fill="none" xmlns="http://www.w3.org/2000/svg">
<g clip-path="url(#clip0_60_20540)">
<path d="M121.719 111.519C121.993 111.522 122.266 111.468 122.519 111.361C122.772 111.254 123 111.097 123.19 110.898C123.379 110.699 123.526 110.463 123.621 110.206C123.715 109.948 123.756 109.673 123.74 109.399C123.74 107.896 122.833 107.177 120.972 107.177H117.965V115.049H119.096V111.617H120.486L120.518 111.659L122.674 115.049H123.884L121.563 111.541L121.719 111.519ZM120.411 110.73H119.1V108.069H120.762C121.62 108.069 122.599 108.21 122.599 109.334C122.599 110.627 121.609 110.73 120.404 110.73" fill="#0A66C2"/>
<path d="M92.2181 101.655H76.1814V76.5404C76.1814 70.5517 76.0745 62.8423 67.8407 62.8423C59.4882 62.8423 58.2102 69.3673 58.2102 76.1044V101.653H42.1734V50.0079H57.5687V57.0658H57.7843C59.325 54.4315 61.5513 52.2644 64.2262 50.7953C66.9011 49.3262 69.9244 48.6101 72.9741 48.7233C89.228 48.7233 92.2249 59.4145 92.2249 73.323L92.2181 101.655ZM24.0787 42.9484C22.2381 42.9488 20.4386 42.4033 18.908 41.381C17.3774 40.3586 16.1845 38.9054 15.4798 37.205C14.7751 35.5046 14.5904 33.6335 14.9492 31.8282C15.3079 30.0229 16.194 28.3645 17.4953 27.0627C18.7966 25.761 20.4546 24.8743 22.2598 24.5149C24.065 24.1555 25.9362 24.3395 27.6368 25.0435C29.3375 25.7476 30.7911 26.9402 31.814 28.4704C32.8369 30.0006 33.383 31.7998 33.3834 33.6404C33.3836 34.8626 33.143 36.0728 32.6755 37.2019C32.2081 38.3311 31.5228 39.3572 30.6588 40.2215C29.7948 41.0858 28.7689 41.7715 27.6399 42.2394C26.5109 42.7073 25.3008 42.9482 24.0787 42.9484ZM32.097 101.655H16.0436V50.0079H32.097V101.655ZM100.213 9.44332H7.98518C5.89187 9.41969 3.87471 10.2281 2.37713 11.6909C0.879561 13.1537 0.0240829 15.1512 -0.00146484 17.2445V109.855C0.0232085 111.949 0.878185 113.948 2.37571 115.413C3.87323 116.877 5.89083 117.687 7.98518 117.665H100.213C102.312 117.691 104.335 116.883 105.838 115.419C107.342 113.955 108.202 111.954 108.231 109.855V17.2378C108.202 15.1404 107.34 13.1406 105.837 11.6778C104.333 10.2151 102.311 9.40897 100.213 9.43663" fill="#0A66C2"/>
<path d="M120.548 103.671C118.597 103.69 116.733 104.48 115.363 105.87C113.993 107.26 113.229 109.135 113.239 111.086C113.248 113.038 114.03 114.906 115.413 116.282C116.796 117.658 118.668 118.431 120.619 118.431C122.57 118.431 124.442 117.658 125.825 116.282C127.208 114.906 127.99 113.038 127.999 111.086C128.009 109.135 127.245 107.26 125.875 105.87C124.506 104.48 122.641 103.69 120.69 103.671H120.548ZM120.548 117.586C119.268 117.607 118.011 117.249 116.935 116.555C115.859 115.862 115.013 114.865 114.504 113.691C113.994 112.517 113.844 111.218 114.073 109.959C114.302 108.7 114.899 107.536 115.789 106.616C116.679 105.696 117.821 105.061 119.072 104.79C120.323 104.52 121.627 104.626 122.817 105.096C124.008 105.566 125.032 106.379 125.761 107.431C126.489 108.483 126.89 109.728 126.911 111.008C126.911 111.044 126.911 111.08 126.911 111.116C126.947 112.795 126.314 114.419 125.153 115.632C123.991 116.845 122.396 117.546 120.717 117.583H120.55" fill="#0A66C2"/>
</g>
<defs>
<clipPath id="clip0_60_20540">
<rect width="128" height="109.127" transform="translate(0 9.43665)"/>
</clipPath>
</defs>
</svg>
