<svg width="128" height="128" viewBox="0 0 128 128" fill="none" xmlns="http://www.w3.org/2000/svg">
<g clip-path="url(#clip0_240_6888)">
<path d="M0 45.532V75.3361H20.5701V71.5073H4.20411V45.532H0Z" fill="#00274C"/>
<path d="M26.501 52.9642H22.2969V75.3361H26.501V52.9642Z" fill="#00274C"/>
<path d="M45.2692 75.3361V61.5977C45.2692 58.5947 43.3173 57.0933 39.4885 57.0933C37.3114 57.0933 35.5847 57.6939 34.3836 58.82C33.1824 59.9461 32.5818 61.5226 32.5818 63.3994V75.4112H28.3777V53.79H32.5818V55.2164C34.4586 53.9402 36.7108 53.3396 39.4885 53.3396C42.3413 53.3396 44.5935 53.9402 46.4704 55.2164C48.5724 56.6428 49.6234 58.5947 49.6234 61.2223V75.4112H45.2692V75.3361Z" fill="#00274C"/>
<path d="M62.8364 62.1232L76.2746 75.3361H70.4939L59.3831 64.4505L55.6294 66.9279V75.3361H51.4253V45.532H55.6294V62.1983L69.3678 52.9642L76.8001 53.1144L62.8364 62.1232Z" fill="#00274C"/>
<path d="M98.5712 73.0088C96.319 74.8106 93.0158 75.7115 88.5114 75.7115C79.3524 75.7115 74.7729 71.8076 74.7729 63.9249V45.532H78.9771V63.9249C78.9771 66.6276 79.7278 68.6546 81.2293 69.9308C82.7307 71.2071 85.1331 71.8827 88.4363 71.8827C91.7395 71.8827 94.1419 71.2071 95.7184 69.9308C97.2199 68.7296 97.9706 66.7777 97.9706 64.0751V45.532H102.175V64C102.25 67.9789 101.049 71.0569 98.5712 73.0088Z" fill="#00274C"/>
<path d="M124.997 73.159C122.82 75.4112 119.892 76.6123 116.063 76.6123C112.985 76.6123 110.433 75.7865 108.331 74.1349V82.7683H104.127V53.8651H108.331V55.817C110.433 54.1654 112.985 53.3396 116.063 53.3396C119.892 53.3396 122.82 54.4657 124.997 56.6428C127.024 58.7449 128.075 61.5226 128.075 64.9009C128 68.3543 126.949 71.0569 124.997 73.159ZM121.844 59.3455C120.568 57.9191 118.691 57.1683 116.289 57.1683C113.811 57.1683 111.859 57.844 110.433 59.2704C109.006 60.6968 108.331 62.4985 108.331 64.8258C108.331 70.0809 110.958 72.7085 116.289 72.7085C118.766 72.7085 120.643 71.9578 121.994 70.5314C123.27 69.1801 123.871 67.3032 123.871 64.9009C123.796 62.6487 123.12 60.7719 121.844 59.3455Z" fill="#00274C"/>
<path d="M26.501 49.2856C26.501 50.4868 25.525 51.3877 24.3989 51.3877C23.1978 51.3877 22.2969 50.4117 22.2969 49.2856V47.3337C22.2969 46.2076 23.2728 45.2317 24.3989 45.2317C25.6001 45.2317 26.501 46.2076 26.501 47.3337V49.2856Z" fill="#00274C"/>
</g>
<defs>
<clipPath id="clip0_240_6888">
<rect width="128" height="37.5367" fill="white" transform="translate(0 45.2317)"/>
</clipPath>
</defs>
</svg>
