<svg width="128" height="128" viewBox="0 0 128 128" fill="none" xmlns="http://www.w3.org/2000/svg">
<g clip-path="url(#clip0_240_6901)">
<path d="M125.938 68.44C126.236 68.44 126.478 68.1982 126.478 67.8999C126.478 67.6016 126.236 67.3597 125.938 67.3597C125.64 67.3597 125.398 67.6016 125.398 67.8999C125.398 68.1982 125.64 68.44 125.938 68.44Z" fill="#1267AD"/>
<path d="M125.357 73.9021C126.086 73.9021 126.677 73.3112 126.677 72.5823C126.677 71.8534 126.086 71.2625 125.357 71.2625C124.628 71.2625 124.037 71.8534 124.037 72.5823C124.037 73.3112 124.628 73.9021 125.357 73.9021Z" fill="#1267AD"/>
<path d="M124.838 78.3936C125.553 78.3936 126.133 77.8136 126.133 77.0981C126.133 76.3826 125.553 75.8026 124.838 75.8026C124.122 75.8026 123.542 76.3826 123.542 77.0981C123.542 77.8136 124.122 78.3936 124.838 78.3936Z" fill="#1267AD"/>
<path d="M121.873 87.7258C122.467 87.7258 122.949 87.244 122.949 86.6497C122.949 86.0553 122.467 85.5735 121.873 85.5735C121.279 85.5735 120.797 86.0553 120.797 86.6497C120.797 87.244 121.279 87.7258 121.873 87.7258Z" fill="#1267AD"/>
<path d="M123.554 83.5592C124.043 83.5592 124.44 83.1628 124.44 82.6739C124.44 82.1849 124.043 81.7886 123.554 81.7886C123.065 81.7886 122.669 82.1849 122.669 82.6739C122.669 83.1628 123.065 83.5592 123.554 83.5592Z" fill="#1267AD"/>
<path d="M122.628 85.273C122.971 85.273 123.25 84.9948 123.25 84.6516C123.25 84.3085 122.971 84.0303 122.628 84.0303C122.285 84.0303 122.007 84.3085 122.007 84.6516C122.007 84.9948 122.285 85.273 122.628 85.273Z" fill="#1267AD"/>
<path d="M120.46 91.4743C120.937 91.4743 121.325 91.087 121.325 90.6093C121.325 90.1315 120.937 89.7443 120.46 89.7443C119.982 89.7443 119.595 90.1315 119.595 90.6093C119.595 91.087 119.982 91.4743 120.46 91.4743Z" fill="#1267AD"/>
<path d="M119.583 93.6996C120.159 93.6996 120.626 93.2323 120.626 92.6559C120.626 92.0795 120.159 91.6122 119.583 91.6122C119.006 91.6122 118.539 92.0795 118.539 92.6559C118.539 93.2323 119.006 93.6996 119.583 93.6996Z" fill="#1267AD"/>
<path d="M113.138 104.246C113.938 104.246 114.587 103.597 114.587 102.796C114.587 101.996 113.938 101.347 113.138 101.347C112.337 101.347 111.688 101.996 111.688 102.796C111.688 103.597 112.337 104.246 113.138 104.246Z" fill="#1267AD"/>
<path d="M109.665 107.584C110.195 107.584 110.624 107.155 110.624 106.626C110.624 106.097 110.195 105.668 109.665 105.668C109.136 105.668 108.707 106.097 108.707 106.626C108.707 107.155 109.136 107.584 109.665 107.584Z" fill="#1267AD"/>
<path d="M107.135 110.256C107.743 110.256 108.236 109.764 108.236 109.156C108.236 108.548 107.743 108.055 107.135 108.055C106.528 108.055 106.035 108.548 106.035 109.156C106.035 109.764 106.528 110.256 107.135 110.256Z" fill="#1267AD"/>
<path d="M100.654 115.56C101.044 115.56 101.361 115.244 101.361 114.854C101.361 114.463 101.044 114.147 100.654 114.147C100.264 114.147 99.9474 114.463 99.9474 114.854C99.9474 115.244 100.264 115.56 100.654 115.56Z" fill="#1267AD"/>
<path d="M94.6072 120.125C95.3944 120.125 96.0326 119.487 96.0326 118.699C96.0326 117.912 95.3944 117.274 94.6072 117.274C93.82 117.274 93.1818 117.912 93.1818 118.699C93.1818 119.487 93.82 120.125 94.6072 120.125Z" fill="#1267AD"/>
<path d="M89.0476 122.423C89.4804 122.423 89.8314 122.072 89.8314 121.64C89.8314 121.207 89.4804 120.856 89.0476 120.856C88.6147 120.856 88.2638 121.207 88.2638 121.64C88.2638 122.072 88.6147 122.423 89.0476 122.423Z" fill="#1267AD"/>
<path d="M81.1407 125.311C81.6072 125.311 81.9854 124.933 81.9854 124.466C81.9854 124 81.6072 123.621 81.1407 123.621C80.6742 123.621 80.296 124 80.296 124.466C80.296 124.933 80.6742 125.311 81.1407 125.311Z" fill="#1267AD"/>
<path d="M69.3962 127.406C69.8515 127.406 70.2206 127.037 70.2206 126.582C70.2206 126.127 69.8515 125.758 69.3962 125.758C68.9409 125.758 68.5718 126.127 68.5718 126.582C68.5718 127.037 68.9409 127.406 69.3962 127.406Z" fill="#1267AD"/>
<path d="M63.0853 127.894C63.4755 127.894 63.7919 127.577 63.7919 127.187C63.7919 126.797 63.4755 126.48 63.0853 126.48C62.695 126.48 62.3787 126.797 62.3787 127.187C62.3787 127.577 62.695 127.894 63.0853 127.894Z" fill="#1267AD"/>
<path d="M52.6728 126.797C53.1214 126.797 53.485 126.434 53.485 125.985C53.485 125.536 53.1214 125.173 52.6728 125.173C52.2242 125.173 51.8606 125.536 51.8606 125.985C51.8606 126.434 52.2242 126.797 52.6728 126.797Z" fill="#1267AD"/>
<path d="M47.3813 126.196C48.0833 126.196 48.6524 125.627 48.6524 124.925C48.6524 124.223 48.0833 123.654 47.3813 123.654C46.6793 123.654 46.1102 124.223 46.1102 124.925C46.1102 125.627 46.6793 126.196 47.3813 126.196Z" fill="#1267AD"/>
<path d="M42.7152 124.507C43.406 124.507 43.966 123.947 43.966 123.256C43.966 122.565 43.406 122.005 42.7152 122.005C42.0244 122.005 41.4644 122.565 41.4644 123.256C41.4644 123.947 42.0244 124.507 42.7152 124.507Z" fill="#1267AD"/>
<path d="M39.2511 123.187C39.8971 123.187 40.4207 122.663 40.4207 122.017C40.4207 121.371 39.8971 120.848 39.2511 120.848C38.6052 120.848 38.0815 121.371 38.0815 122.017C38.0815 122.663 38.6052 123.187 39.2511 123.187Z" fill="#1267AD"/>
<path d="M28.9848 117.538C29.624 117.538 30.1422 117.02 30.1422 116.381C30.1422 115.741 29.624 115.223 28.9848 115.223C28.3456 115.223 27.8274 115.741 27.8274 116.381C27.8274 117.02 28.3456 117.538 28.9848 117.538Z" fill="#1267AD"/>
<path d="M25.1268 114.801C25.6113 114.801 26.004 114.408 26.004 113.924C26.004 113.439 25.6113 113.046 25.1268 113.046C24.6424 113.046 24.2496 113.439 24.2496 113.924C24.2496 114.408 24.6424 114.801 25.1268 114.801Z" fill="#1267AD"/>
<path d="M22.3896 112.734C23.1028 112.734 23.681 112.156 23.681 111.442C23.681 110.729 23.1028 110.151 22.3896 110.151C21.6763 110.151 21.0981 110.729 21.0981 111.442C21.0981 112.156 21.6763 112.734 22.3896 112.734Z" fill="#1267AD"/>
<path d="M16.7407 106.841C17.3194 106.841 17.7885 106.372 17.7885 105.793C17.7885 105.215 17.3194 104.746 16.7407 104.746C16.1621 104.746 15.693 105.215 15.693 105.793C15.693 106.372 16.1621 106.841 16.7407 106.841Z" fill="#1267AD"/>
<path d="M11.3517 99.9902C12.1905 99.9902 12.8705 99.3102 12.8705 98.4713C12.8705 97.6325 12.1905 96.9525 11.3517 96.9525C10.5129 96.9525 9.83289 97.6325 9.83289 98.4713C9.83289 99.3102 10.5129 99.9902 11.3517 99.9902Z" fill="#1267AD"/>
<path d="M6.11301 90.1462C6.88903 90.1462 7.51813 89.5171 7.51813 88.7411C7.51813 87.965 6.88903 87.3359 6.11301 87.3359C5.33698 87.3359 4.70789 87.965 4.70789 88.7411C4.70789 89.5171 5.33698 90.1462 6.11301 90.1462Z" fill="#1267AD"/>
<path d="M2.39713 78.5438C3.21129 78.5438 3.87129 77.8838 3.87129 77.0696C3.87129 76.2555 3.21129 75.5955 2.39713 75.5955C1.58298 75.5955 0.922974 76.2555 0.922974 77.0696C0.922974 77.8838 1.58298 78.5438 2.39713 78.5438Z" fill="#1267AD"/>
<path d="M1.04476 66.7627C1.84546 66.7627 2.49455 66.1137 2.49455 65.313C2.49455 64.5123 1.84546 63.8632 1.04476 63.8632C0.244065 63.8632 -0.405029 64.5123 -0.405029 65.313C-0.405029 66.1137 0.244065 66.7627 1.04476 66.7627Z" fill="#1267AD"/>
<path d="M1.92198 57.6375C2.68231 57.6375 3.29867 57.0212 3.29867 56.2608C3.29867 55.5005 2.68231 54.8842 1.92198 54.8842C1.16165 54.8842 0.545288 55.5005 0.545288 56.2608C0.545288 57.0212 1.16165 57.6375 1.92198 57.6375Z" fill="#1267AD"/>
<path d="M4.67136 45.0889C5.01227 45.0889 5.28863 44.8126 5.28863 44.4717C5.28863 44.1307 5.01227 43.8544 4.67136 43.8544C4.33044 43.8544 4.05408 44.1307 4.05408 44.4717C4.05408 44.8126 4.33044 45.0889 4.67136 45.0889Z" fill="#1267AD"/>
<path d="M9.54055 34.1038C9.84333 34.1038 10.0888 33.8583 10.0888 33.5556C10.0888 33.2528 9.84333 33.0073 9.54055 33.0073C9.23776 33.0073 8.99231 33.2528 8.99231 33.5556C8.99231 33.8583 9.23776 34.1038 9.54055 34.1038Z" fill="#1267AD"/>
<path d="M14.1701 26.8792C14.5065 26.8792 14.7792 26.6065 14.7792 26.27C14.7792 25.9336 14.5065 25.6609 14.1701 25.6609C13.8336 25.6609 13.5609 25.9336 13.5609 26.27C13.5609 26.6065 13.8336 26.8792 14.1701 26.8792Z" fill="#1267AD"/>
<path d="M17.8128 22.9806C18.1828 22.9806 18.4828 22.6806 18.4828 22.3106C18.4828 21.9405 18.1828 21.6405 17.8128 21.6405C17.4427 21.6405 17.1427 21.9405 17.1427 22.3106C17.1427 22.6806 17.4427 22.9806 17.8128 22.9806Z" fill="#1267AD"/>
<path d="M24.0912 17.5105C24.9054 17.5105 25.5654 16.8504 25.5654 16.0363C25.5654 15.2221 24.9054 14.5621 24.0912 14.5621C23.2771 14.5621 22.6171 15.2221 22.6171 16.0363C22.6171 16.8504 23.2771 17.5105 24.0912 17.5105Z" fill="#1267AD"/>
<path d="M29.334 13.3844C29.7804 13.3844 30.1422 13.0225 30.1422 12.5762C30.1422 12.1299 29.7804 11.7681 29.334 11.7681C28.8877 11.7681 28.5259 12.1299 28.5259 12.5762C28.5259 13.0225 28.8877 13.3844 29.334 13.3844Z" fill="#1267AD"/>
<path d="M40.1689 8.36904C41.0189 8.36904 41.708 7.67994 41.708 6.8299C41.708 5.97986 41.0189 5.29077 40.1689 5.29077C39.3189 5.29077 38.6298 5.97986 38.6298 6.8299C38.6298 7.67994 39.3189 8.36904 40.1689 8.36904Z" fill="#1267AD"/>
<path d="M50.89 4.53542C51.518 4.53542 52.0271 4.02632 52.0271 3.39832C52.0271 2.77032 51.518 2.26123 50.89 2.26123C50.262 2.26123 49.7529 2.77032 49.7529 3.39832C49.7529 4.02632 50.262 4.53542 50.89 4.53542Z" fill="#1267AD"/>
<path d="M62.1554 3.32109C62.8305 3.32109 63.3777 2.77381 63.3777 2.09872C63.3777 1.42362 62.8305 0.876343 62.1554 0.876343C61.4803 0.876343 60.933 1.42362 60.933 2.09872C60.933 2.77381 61.4803 3.32109 62.1554 3.32109Z" fill="#1267AD"/>
<path d="M69.8795 3.75162C70.4873 3.75162 70.98 3.25889 70.98 2.65108C70.98 2.04327 70.4873 1.55054 69.8795 1.55054C69.2717 1.55054 68.7789 2.04327 68.7789 2.65108C68.7789 3.25889 69.2717 3.75162 69.8795 3.75162Z" fill="#1267AD"/>
<path d="M77.9 4.49887C78.4091 4.49887 78.8219 4.08614 78.8219 3.57701C78.8219 3.06788 78.4091 2.65515 77.9 2.65515C77.3909 2.65515 76.9781 3.06788 76.9781 3.57701C76.9781 4.08614 77.3909 4.49887 77.9 4.49887Z" fill="#1267AD"/>
<path d="M81.1285 5.47754C81.7812 5.47754 82.3103 4.94845 82.3103 4.29578C82.3103 3.64311 81.7812 3.11401 81.1285 3.11401C80.4759 3.11401 79.9468 3.64311 79.9468 4.29578C79.9468 4.94845 80.4759 5.47754 81.1285 5.47754Z" fill="#1267AD"/>
<path d="M89.9735 8.59234C90.3727 8.59234 90.6963 8.2687 90.6963 7.86947C90.6963 7.47024 90.3727 7.14661 89.9735 7.14661C89.5742 7.14661 89.2506 7.47024 89.2506 7.86947C89.2506 8.2687 89.5742 8.59234 89.9735 8.59234Z" fill="#1267AD"/>
<path d="M96.796 13.3884C97.6326 13.3884 98.3108 12.7102 98.3108 11.8737C98.3108 11.0371 97.6326 10.3589 96.796 10.3589C95.9594 10.3589 95.2812 11.0371 95.2812 11.8737C95.2812 12.7102 95.9594 13.3884 96.796 13.3884Z" fill="#1267AD"/>
<path d="M105.426 19.7196C106.204 19.7196 106.835 19.0887 106.835 18.3104C106.835 17.5322 106.204 16.9012 105.426 16.9012C104.648 16.9012 104.017 17.5322 104.017 18.3104C104.017 19.0887 104.648 19.7196 105.426 19.7196Z" fill="#1267AD"/>
<path d="M108.35 22.0344C108.969 22.0344 109.471 21.5326 109.471 20.9136C109.471 20.2945 108.969 19.7927 108.35 19.7927C107.731 19.7927 107.229 20.2945 107.229 20.9136C107.229 21.5326 107.731 22.0344 108.35 22.0344Z" fill="#1267AD"/>
<path d="M113.84 29.056C114.708 29.056 115.412 28.3523 115.412 27.4843C115.412 26.6164 114.708 25.9127 113.84 25.9127C112.972 25.9127 112.269 26.6164 112.269 27.4843C112.269 28.3523 112.972 29.056 113.84 29.056Z" fill="#1267AD"/>
<path d="M116.045 31.1515C116.519 31.1515 116.902 30.7679 116.902 30.2946C116.902 29.8214 116.519 29.4377 116.045 29.4377C115.572 29.4377 115.188 29.8214 115.188 30.2946C115.188 30.7679 115.572 31.1515 116.045 31.1515Z" fill="#1267AD"/>
<path d="M118.186 35.3547C118.753 35.3547 119.213 34.8947 119.213 34.3272C119.213 33.7598 118.753 33.2998 118.186 33.2998C117.618 33.2998 117.158 33.7598 117.158 34.3272C117.158 34.8947 117.618 35.3547 118.186 35.3547Z" fill="#1267AD"/>
<path d="M119.794 38.3719C120.63 38.3719 121.308 37.6938 121.308 36.8572C121.308 36.0206 120.63 35.3424 119.794 35.3424C118.957 35.3424 118.279 36.0206 118.279 36.8572C118.279 37.6938 118.957 38.3719 119.794 38.3719Z" fill="#1267AD"/>
<path d="M121.747 43.2289C122.33 43.2289 122.803 42.7562 122.803 42.1731C122.803 41.5899 122.33 41.1172 121.747 41.1172C121.164 41.1172 120.691 41.5899 120.691 42.1731C120.691 42.7562 121.164 43.2289 121.747 43.2289Z" fill="#1267AD"/>
<path d="M124.98 54.6161C125.704 54.6161 126.291 54.0288 126.291 53.3044C126.291 52.5799 125.704 51.9927 124.98 51.9927C124.255 51.9927 123.668 52.5799 123.668 53.3044C123.668 54.0288 124.255 54.6161 124.98 54.6161Z" fill="#1267AD"/>
<path d="M126.279 66.3079C127.006 66.3079 127.595 65.7188 127.595 64.9922C127.595 64.2655 127.006 63.6764 126.279 63.6764C125.552 63.6764 124.963 64.2655 124.963 64.9922C124.963 65.7188 125.552 66.3079 126.279 66.3079Z" fill="#1267AD"/>
<path d="M121.532 66.1414C122.068 66.1414 122.502 65.7068 122.502 65.1708C122.502 64.6347 122.068 64.2002 121.532 64.2002C120.996 64.2002 120.561 64.6347 120.561 65.1708C120.561 65.7068 120.996 66.1414 121.532 66.1414Z" fill="#1689D6"/>
<path d="M120.541 76.1396C121.001 76.1396 121.374 75.7669 121.374 75.3071C121.374 74.8473 121.001 74.4746 120.541 74.4746C120.081 74.4746 119.708 74.8473 119.708 75.3071C119.708 75.7669 120.081 76.1396 120.541 76.1396Z" fill="#1689D6"/>
<path d="M119.851 79.4535C120.582 79.4535 121.174 78.8607 121.174 78.1296C121.174 77.3984 120.582 76.8057 119.851 76.8057C119.119 76.8057 118.527 77.3984 118.527 78.1296C118.527 78.8607 119.119 79.4535 119.851 79.4535Z" fill="#1689D6"/>
<path d="M118.892 82.1378C119.516 82.1378 120.021 81.6324 120.021 81.0089C120.021 80.3853 119.516 79.8799 118.892 79.8799C118.269 79.8799 117.763 80.3853 117.763 81.0089C117.763 81.6324 118.269 82.1378 118.892 82.1378Z" fill="#1689D6"/>
<path d="M116.541 88.5786C117.193 88.5786 117.723 88.0495 117.723 87.3969C117.723 86.7442 117.193 86.2151 116.541 86.2151C115.888 86.2151 115.359 86.7442 115.359 87.3969C115.359 88.0495 115.888 88.5786 116.541 88.5786Z" fill="#1689D6"/>
<path d="M114.076 93.2976C114.614 93.2976 115.05 92.8612 115.05 92.3229C115.05 91.7846 114.614 91.3483 114.076 91.3483C113.538 91.3483 113.101 91.7846 113.101 92.3229C113.101 92.8612 113.538 93.2976 114.076 93.2976Z" fill="#1689D6"/>
<path d="M112.24 96.5789C113.05 96.5789 113.706 95.9226 113.706 95.1129C113.706 94.3032 113.05 93.6469 112.24 93.6469C111.431 93.6469 110.774 94.3032 110.774 95.1129C110.774 95.9226 111.431 96.5789 112.24 96.5789Z" fill="#1689D6"/>
<path d="M104.467 105.643C104.938 105.643 105.32 105.261 105.32 104.79C105.32 104.319 104.938 103.938 104.467 103.938C103.996 103.938 103.615 104.319 103.615 104.79C103.615 105.261 103.996 105.643 104.467 105.643Z" fill="#1689D6"/>
<path d="M102.376 107.848C102.91 107.848 103.342 107.416 103.342 106.882C103.342 106.348 102.91 105.915 102.376 105.915C101.842 105.915 101.409 106.348 101.409 106.882C101.409 107.416 101.842 107.848 102.376 107.848Z" fill="#1689D6"/>
<path d="M100.743 109.379C101.203 109.379 101.576 109.007 101.576 108.547C101.576 108.087 101.203 107.714 100.743 107.714C100.284 107.714 99.9109 108.087 99.9109 108.547C99.9109 109.007 100.284 109.379 100.743 109.379Z" fill="#1689D6"/>
<path d="M98.4692 111.483C99.1443 111.483 99.6916 110.936 99.6916 110.261C99.6916 109.585 99.1443 109.038 98.4692 109.038C97.7941 109.038 97.2468 109.585 97.2468 110.261C97.2468 110.936 97.7941 111.483 98.4692 111.483Z" fill="#1689D6"/>
<path d="M89.6852 116.604C90.1046 116.604 90.4446 116.264 90.4446 115.844C90.4446 115.425 90.1046 115.085 89.6852 115.085C89.2658 115.085 88.9258 115.425 88.9258 115.844C88.9258 116.264 89.2658 116.604 89.6852 116.604Z" fill="#1689D6"/>
<path d="M81.8311 119.634C82.2908 119.634 82.6636 119.261 82.6636 118.801C82.6636 118.341 82.2908 117.969 81.8311 117.969C81.3713 117.969 80.9985 118.341 80.9985 118.801C80.9985 119.261 81.3713 119.634 81.8311 119.634Z" fill="#1689D6"/>
<path d="M70.0825 121.904C70.392 121.904 70.6429 121.653 70.6429 121.343C70.6429 121.034 70.392 120.783 70.0825 120.783C69.773 120.783 69.5221 121.034 69.5221 121.343C69.5221 121.653 69.773 121.904 70.0825 121.904Z" fill="#1689D6"/>
<path d="M61.1847 123.276C61.9966 123.276 62.6548 122.618 62.6548 121.806C62.6548 120.994 61.9966 120.336 61.1847 120.336C60.3728 120.336 59.7146 120.994 59.7146 121.806C59.7146 122.618 60.3728 123.276 61.1847 123.276Z" fill="#1689D6"/>
<path d="M52.6809 121.648C53.134 121.648 53.5013 121.28 53.5013 120.827C53.5013 120.374 53.134 120.007 52.6809 120.007C52.2279 120.007 51.8606 120.374 51.8606 120.827C51.8606 121.28 52.2279 121.648 52.6809 121.648Z" fill="#1689D6"/>
<path d="M42.6948 118.862C43.0694 118.862 43.373 118.558 43.373 118.184C43.373 117.809 43.0694 117.505 42.6948 117.505C42.3202 117.505 42.0166 117.809 42.0166 118.184C42.0166 118.558 42.3202 118.862 42.6948 118.862Z" fill="#1689D6"/>
<path d="M40.0917 118.383C40.9103 118.383 41.5739 117.719 41.5739 116.9C41.5739 116.082 40.9103 115.418 40.0917 115.418C39.273 115.418 38.6094 116.082 38.6094 116.9C38.6094 117.719 39.273 118.383 40.0917 118.383Z" fill="#1689D6"/>
<path d="M34.0001 114.521C34.5159 114.521 34.9341 114.102 34.9341 113.587C34.9341 113.071 34.5159 112.652 34.0001 112.652C33.4842 112.652 33.066 113.071 33.066 113.587C33.066 114.102 33.4842 114.521 34.0001 114.521Z" fill="#1689D6"/>
<path d="M27.5268 110.756C28.2356 110.756 28.8101 110.181 28.8101 109.473C28.8101 108.764 28.2356 108.189 27.5268 108.189C26.8181 108.189 26.2435 108.764 26.2435 109.473C26.2435 110.181 26.8181 110.756 27.5268 110.756Z" fill="#1689D6"/>
<path d="M23.5348 107.073C24.3736 107.073 25.0536 106.393 25.0536 105.554C25.0536 104.715 24.3736 104.035 23.5348 104.035C22.696 104.035 22.016 104.715 22.016 105.554C22.016 106.393 22.696 107.073 23.5348 107.073Z" fill="#1689D6"/>
<path d="M15.965 98.0936C16.7725 98.0936 17.427 97.4391 17.427 96.6317C17.427 95.8242 16.7725 95.1697 15.965 95.1697C15.1576 95.1697 14.5031 95.8242 14.5031 96.6317C14.5031 97.4391 15.1576 98.0936 15.965 98.0936Z" fill="#1689D6"/>
<path d="M12.8096 93.0093C13.5498 93.0093 14.1498 92.4093 14.1498 91.6691C14.1498 90.929 13.5498 90.329 12.8096 90.329C12.0695 90.329 11.4695 90.929 11.4695 91.6691C11.4695 92.4093 12.0695 93.0093 12.8096 93.0093Z" fill="#1689D6"/>
<path d="M10.9822 89.6954C11.3747 89.6954 11.6928 89.3772 11.6928 88.9847C11.6928 88.5922 11.3747 88.274 10.9822 88.274C10.5897 88.274 10.2715 88.5922 10.2715 88.9847C10.2715 89.3772 10.5897 89.6954 10.9822 89.6954Z" fill="#1689D6"/>
<path d="M8.4724 82.6049C9.26637 82.6049 9.91001 81.9613 9.91001 81.1673C9.91001 80.3734 9.26637 79.7297 8.4724 79.7297C7.67843 79.7297 7.03479 80.3734 7.03479 81.1673C7.03479 81.9613 7.67843 82.6049 8.4724 82.6049Z" fill="#1689D6"/>
<path d="M6.29574 71.0228C6.69497 71.0228 7.01861 70.6991 7.01861 70.2999C7.01861 69.9007 6.69497 69.577 6.29574 69.577C5.89651 69.577 5.57288 69.9007 5.57288 70.2999C5.57288 70.6991 5.89651 71.0228 6.29574 71.0228Z" fill="#1689D6"/>
<path d="M5.95052 61.8936C6.55833 61.8936 7.05106 61.4009 7.05106 60.7931C7.05106 60.1852 6.55833 59.6925 5.95052 59.6925C5.34271 59.6925 4.84998 60.1852 4.84998 60.7931C4.84998 61.4009 5.34271 61.8936 5.95052 61.8936Z" fill="#1689D6"/>
<path d="M6.84801 53.6252C7.20687 53.6252 7.49778 53.3343 7.49778 52.9755C7.49778 52.6166 7.20687 52.3257 6.84801 52.3257C6.48916 52.3257 6.19824 52.6166 6.19824 52.9755C6.19824 53.3343 6.48916 53.6252 6.84801 53.6252Z" fill="#1689D6"/>
<path d="M9.38206 45.5235C10.0168 45.5235 10.5313 45.009 10.5313 44.3742C10.5313 43.7395 10.0168 43.225 9.38206 43.225C8.74734 43.225 8.23279 43.7395 8.23279 44.3742C8.23279 45.009 8.74734 45.5235 9.38206 45.5235Z" fill="#1689D6"/>
<path d="M14.1578 35.2328C14.6759 35.2328 15.0959 34.8128 15.0959 34.2947C15.0959 33.7766 14.6759 33.3566 14.1578 33.3566C13.6397 33.3566 13.2197 33.7766 13.2197 34.2947C13.2197 34.8128 13.6397 35.2328 14.1578 35.2328Z" fill="#1689D6"/>
<path d="M20.9723 25.7503C21.3334 25.7503 21.6261 25.4576 21.6261 25.0965C21.6261 24.7354 21.3334 24.4426 20.9723 24.4426C20.6112 24.4426 20.3185 24.7354 20.3185 25.0965C20.3185 25.4576 20.6112 25.7503 20.9723 25.7503Z" fill="#1689D6"/>
<path d="M26.1745 20.7552C26.65 20.7552 27.0355 20.3698 27.0355 19.8943C27.0355 19.4188 26.65 19.0333 26.1745 19.0333C25.6991 19.0333 25.3136 19.4188 25.3136 19.8943C25.3136 20.3698 25.6991 20.7552 26.1745 20.7552Z" fill="#1689D6"/>
<path d="M30.7594 17.5794C31.3224 17.5794 31.7788 17.123 31.7788 16.5601C31.7788 15.9971 31.3224 15.5408 30.7594 15.5408C30.1965 15.5408 29.7401 15.9971 29.7401 16.5601C29.7401 17.123 30.1965 17.5794 30.7594 17.5794Z" fill="#1689D6"/>
<path d="M34.8205 14.6799C35.2085 14.6799 35.523 14.3654 35.523 13.9773C35.523 13.5893 35.2085 13.2748 34.8205 13.2748C34.4325 13.2748 34.1179 13.5893 34.1179 13.9773C34.1179 14.3654 34.4325 14.6799 34.8205 14.6799Z" fill="#1689D6"/>
<path d="M38.9708 12.6738C39.5719 12.6738 40.0592 12.1865 40.0592 11.5854C40.0592 10.9843 39.5719 10.4971 38.9708 10.4971C38.3697 10.4971 37.8824 10.9843 37.8824 11.5854C37.8824 12.1865 38.3697 12.6738 38.9708 12.6738Z" fill="#1689D6"/>
<path d="M47.4909 9.21772C47.8655 9.21772 48.1691 8.91408 48.1691 8.53952C48.1691 8.16497 47.8655 7.86133 47.4909 7.86133C47.1164 7.86133 46.8127 8.16497 46.8127 8.53952C46.8127 8.91408 47.1164 9.21772 47.4909 9.21772Z" fill="#1689D6"/>
<path d="M50.9833 8.97815C51.8244 8.97815 52.5062 8.29633 52.5062 7.45526C52.5062 6.61419 51.8244 5.93237 50.9833 5.93237C50.1423 5.93237 49.4604 6.61419 49.4604 7.45526C49.4604 8.29633 50.1423 8.97815 50.9833 8.97815Z" fill="#1689D6"/>
<path d="M54.4597 8.30806C55.1527 8.30806 55.7146 7.74624 55.7146 7.0532C55.7146 6.36016 55.1527 5.79834 54.4597 5.79834C53.7667 5.79834 53.2048 6.36016 53.2048 7.0532C53.2048 7.74624 53.7667 8.30806 54.4597 8.30806Z" fill="#1689D6"/>
<path d="M59.3857 7.47959C59.9329 7.47959 60.3766 7.03595 60.3766 6.4887C60.3766 5.94144 59.9329 5.4978 59.3857 5.4978C58.8384 5.4978 58.3948 5.94144 58.3948 6.4887C58.3948 7.03595 58.8384 7.47959 59.3857 7.47959Z" fill="#1689D6"/>
<path d="M67.788 7.19138C68.1805 7.19138 68.4986 6.8732 68.4986 6.4807C68.4986 6.0882 68.1805 5.77002 67.788 5.77002C67.3955 5.77002 67.0773 6.0882 67.0773 6.4807C67.0773 6.8732 67.3955 7.19138 67.788 7.19138Z" fill="#1689D6"/>
<path d="M79.5122 9.98127C80.3555 9.98127 81.0391 9.29763 81.0391 8.45432C81.0391 7.61101 80.3555 6.92737 79.5122 6.92737C78.6689 6.92737 77.9852 7.61101 77.9852 8.45432C77.9852 9.29763 78.6689 9.98127 79.5122 9.98127Z" fill="#1689D6"/>
<path d="M80.1621 9.27053C80.485 9.27053 80.7469 9.00871 80.7469 8.68574C80.7469 8.36277 80.485 8.10095 80.1621 8.10095C79.8391 8.10095 79.5773 8.36277 79.5773 8.68574C79.5773 9.00871 79.8391 9.27053 80.1621 9.27053Z" fill="#1689D6"/>
<path d="M84.4057 11.3499C85.0382 11.3499 85.5509 10.8371 85.5509 10.2047C85.5509 9.57218 85.0382 9.05945 84.4057 9.05945C83.7732 9.05945 83.2605 9.57218 83.2605 10.2047C83.2605 10.8371 83.7732 11.3499 84.4057 11.3499Z" fill="#1689D6"/>
<path d="M95.4396 16.6008C95.8276 16.6008 96.1422 16.2863 96.1422 15.8982C96.1422 15.5102 95.8276 15.1957 95.4396 15.1957C95.0516 15.1957 94.7371 15.5102 94.7371 15.8982C94.7371 16.2863 95.0516 16.6008 95.4396 16.6008Z" fill="#1689D6"/>
<path d="M101.897 22.0953C102.652 22.0953 103.265 21.4826 103.265 20.7267C103.265 19.9709 102.652 19.3582 101.897 19.3582C101.141 19.3582 100.528 19.9709 100.528 20.7267C100.528 21.4826 101.141 22.0953 101.897 22.0953Z" fill="#1689D6"/>
<path d="M104.565 24.463C105.312 24.463 105.917 23.8575 105.917 23.1106C105.917 22.3638 105.312 21.7583 104.565 21.7583C103.818 21.7583 103.212 22.3638 103.212 23.1106C103.212 23.8575 103.818 24.463 104.565 24.463Z" fill="#1689D6"/>
<path d="M110.108 30.1565C110.404 30.1565 110.644 29.9165 110.644 29.6204C110.644 29.3244 110.404 29.0844 110.108 29.0844C109.812 29.0844 109.572 29.3244 109.572 29.6204C109.572 29.9165 109.812 30.1565 110.108 30.1565Z" fill="#1689D6"/>
<path d="M116.244 40.703C116.709 40.703 117.085 40.3266 117.085 39.8624C117.085 39.3981 116.709 39.0217 116.244 39.0217C115.78 39.0217 115.404 39.3981 115.404 39.8624C115.404 40.3266 115.78 40.703 116.244 40.703Z" fill="#1689D6"/>
<path d="M119.469 50.149C120.171 50.149 120.74 49.5799 120.74 48.8779C120.74 48.1759 120.171 47.6068 119.469 47.6068C118.767 47.6068 118.198 48.1759 118.198 48.8779C118.198 49.5799 118.767 50.149 119.469 50.149Z" fill="#1689D6"/>
<path d="M120.943 58.9412C121.571 58.9412 122.08 58.4321 122.08 57.8041C122.08 57.1761 121.571 56.667 120.943 56.667C120.315 56.667 119.806 57.1761 119.806 57.8041C119.806 58.4321 120.315 58.9412 120.943 58.9412Z" fill="#1689D6"/>
<path d="M121.621 63.3799C122.05 63.3799 122.397 63.0327 122.397 62.6043C122.397 62.1759 122.05 61.8286 121.621 61.8286C121.193 61.8286 120.846 62.1759 120.846 62.6043C120.846 63.0327 121.193 63.3799 121.621 63.3799Z" fill="#1689D6"/>
<path d="M116.553 70.0237C117.334 70.0237 117.966 69.391 117.966 68.6105C117.966 67.83 117.334 67.1973 116.553 67.1973C115.773 67.1973 115.14 67.83 115.14 68.6105C115.14 69.391 115.773 70.0237 116.553 70.0237Z" fill="#1267AD"/>
<path d="M115.761 76.0301C116.064 76.0301 116.309 75.7846 116.309 75.4818C116.309 75.1791 116.064 74.9336 115.761 74.9336C115.458 74.9336 115.213 75.1791 115.213 75.4818C115.213 75.7846 115.458 76.0301 115.761 76.0301Z" fill="#1267AD"/>
<path d="M114.165 81.6302C114.69 81.6302 115.115 81.2047 115.115 80.6799C115.115 80.1551 114.69 79.7296 114.165 79.7296C113.64 79.7296 113.215 80.1551 113.215 80.6799C113.215 81.2047 113.64 81.6302 114.165 81.6302Z" fill="#1267AD"/>
<path d="M108.991 93.0417C109.597 93.0417 110.088 92.5508 110.088 91.9452C110.088 91.3397 109.597 90.8488 108.991 90.8488C108.386 90.8488 107.895 91.3397 107.895 91.9452C107.895 92.5508 108.386 93.0417 108.991 93.0417Z" fill="#1267AD"/>
<path d="M103.411 100.189C103.719 100.189 103.968 99.94 103.968 99.6328C103.968 99.3255 103.719 99.0764 103.411 99.0764C103.104 99.0764 102.855 99.3255 102.855 99.6328C102.855 99.94 103.104 100.189 103.411 100.189Z" fill="#1267AD"/>
<path d="M99.188 104.51C99.5514 104.51 99.8459 104.216 99.8459 103.852C99.8459 103.489 99.5514 103.194 99.188 103.194C98.8247 103.194 98.5302 103.489 98.5302 103.852C98.5302 104.216 98.8247 104.51 99.188 104.51Z" fill="#1267AD"/>
<path d="M90.4324 110.955C90.8474 110.955 91.1837 110.619 91.1837 110.204C91.1837 109.789 90.8474 109.452 90.4324 109.452C90.0175 109.452 89.6812 109.789 89.6812 110.204C89.6812 110.619 90.0175 110.955 90.4324 110.955Z" fill="#1267AD"/>
<path d="M85.7135 113.424C86.05 113.424 86.3227 113.151 86.3227 112.815C86.3227 112.479 86.05 112.206 85.7135 112.206C85.3771 112.206 85.1044 112.479 85.1044 112.815C85.1044 113.151 85.3771 113.424 85.7135 113.424Z" fill="#1267AD"/>
<path d="M76.3324 117.713C77.1869 117.713 77.8797 117.02 77.8797 116.165C77.8797 115.311 77.1869 114.618 76.3324 114.618C75.4779 114.618 74.7852 115.311 74.7852 116.165C74.7852 117.02 75.4779 117.713 76.3324 117.713Z" fill="#1267AD"/>
<path d="M68.1819 117.769C68.487 117.769 68.7342 117.522 68.7342 117.217C68.7342 116.912 68.487 116.665 68.1819 116.665C67.8769 116.665 67.6296 116.912 67.6296 117.217C67.6296 117.522 67.8769 117.769 68.1819 117.769Z" fill="#1267AD"/>
<path d="M61.6396 118.87C62.3887 118.87 62.996 118.263 62.996 117.514C62.996 116.765 62.3887 116.157 61.6396 116.157C60.8905 116.157 60.2832 116.765 60.2832 117.514C60.2832 118.263 60.8905 118.87 61.6396 118.87Z" fill="#1267AD"/>
<path d="M54.4435 117.635C54.9683 117.635 55.3937 117.21 55.3937 116.685C55.3937 116.16 54.9683 115.735 54.4435 115.735C53.9186 115.735 53.4932 116.16 53.4932 116.685C53.4932 117.21 53.9186 117.635 54.4435 117.635Z" fill="#1267AD"/>
<path d="M50.8941 117.644C51.7128 117.644 52.3764 116.98 52.3764 116.161C52.3764 115.343 51.7128 114.679 50.8941 114.679C50.0755 114.679 49.4119 115.343 49.4119 116.161C49.4119 116.98 50.0755 117.644 50.8941 117.644Z" fill="#1267AD"/>
<path d="M42.2157 114.382C42.9446 114.382 43.5356 113.792 43.5356 113.063C43.5356 112.334 42.9446 111.743 42.2157 111.743C41.4868 111.743 40.8959 112.334 40.8959 113.063C40.8959 113.792 41.4868 114.382 42.2157 114.382Z" fill="#1267AD"/>
<path d="M34.4956 110.232C35.3232 110.232 35.9941 109.561 35.9941 108.734C35.9941 107.906 35.3232 107.235 34.4956 107.235C33.668 107.235 32.9971 107.906 32.9971 108.734C32.9971 109.561 33.668 110.232 34.4956 110.232Z" fill="#1267AD"/>
<path d="M26.3857 102.914C26.7849 102.914 27.1086 102.59 27.1086 102.191C27.1086 101.792 26.7849 101.468 26.3857 101.468C25.9865 101.468 25.6628 101.792 25.6628 102.191C25.6628 102.59 25.9865 102.914 26.3857 102.914Z" fill="#1267AD"/>
<path d="M23.3602 100.348C24.0129 100.348 24.542 99.8184 24.542 99.1658C24.542 98.5131 24.0129 97.984 23.3602 97.984C22.7076 97.984 22.1785 98.5131 22.1785 99.1658C22.1785 99.8184 22.7076 100.348 23.3602 100.348Z" fill="#1267AD"/>
<path d="M17.1712 91.0356C17.6041 91.0356 17.955 90.6847 17.955 90.2518C17.955 89.8189 17.6041 89.468 17.1712 89.468C16.7384 89.468 16.3875 89.8189 16.3875 90.2518C16.3875 90.6847 16.7384 91.0356 17.1712 91.0356Z" fill="#1267AD"/>
<path d="M12.5214 80.7164C13.3916 80.7164 14.097 80.011 14.097 79.1407C14.097 78.2705 13.3916 77.5651 12.5214 77.5651C11.6511 77.5651 10.9457 78.2705 10.9457 79.1407C10.9457 80.011 11.6511 80.7164 12.5214 80.7164Z" fill="#1267AD"/>
<path d="M11.5507 76.7651C11.9051 76.7651 12.1923 76.4778 12.1923 76.1235C12.1923 75.7691 11.9051 75.4818 11.5507 75.4818C11.1963 75.4818 10.9091 75.7691 10.9091 76.1235C10.9091 76.4778 11.1963 76.7651 11.5507 76.7651Z" fill="#1267AD"/>
<path d="M11.372 75.2504C11.7353 75.2504 12.0299 74.9558 12.0299 74.5925C12.0299 74.2291 11.7353 73.9346 11.372 73.9346C11.0087 73.9346 10.7141 74.2291 10.7141 74.5925C10.7141 74.9558 11.0087 75.2504 11.372 75.2504Z" fill="#1267AD"/>
<path d="M10.3365 64.0499C10.9017 64.0499 11.3599 63.5918 11.3599 63.0266C11.3599 62.4614 10.9017 62.0032 10.3365 62.0032C9.77129 62.0032 9.31311 62.4614 9.31311 63.0266C9.31311 63.5918 9.77129 64.0499 10.3365 64.0499Z" fill="#1267AD"/>
<path d="M10.7101 60.7848C11.2685 60.7848 11.7213 60.3321 11.7213 59.7737C11.7213 59.2152 11.2685 58.7625 10.7101 58.7625C10.1516 58.7625 9.69885 59.2152 9.69885 59.7737C9.69885 60.3321 10.1516 60.7848 10.7101 60.7848Z" fill="#1267AD"/>
<path d="M12.2289 51.676C12.9848 51.676 13.5975 51.0633 13.5975 50.3074C13.5975 49.5516 12.9848 48.9388 12.2289 48.9388C11.4731 48.9388 10.8604 49.5516 10.8604 50.3074C10.8604 51.0633 11.4731 51.676 12.2289 51.676Z" fill="#1267AD"/>
<path d="M14.7143 44.3051C15.2436 44.3051 15.6727 43.876 15.6727 43.3467C15.6727 42.8174 15.2436 42.3883 14.7143 42.3883C14.185 42.3883 13.7559 42.8174 13.7559 43.3467C13.7559 43.876 14.185 44.3051 14.7143 44.3051Z" fill="#1267AD"/>
<path d="M15.7377 41.3812C16.1504 41.3812 16.4849 41.0466 16.4849 40.6339C16.4849 40.2213 16.1504 39.8867 15.7377 39.8867C15.325 39.8867 14.9905 40.2213 14.9905 40.6339C14.9905 41.0466 15.325 41.3812 15.7377 41.3812Z" fill="#1267AD"/>
<path d="M20.2576 35.0216C21.0874 35.0216 21.7602 34.3489 21.7602 33.5191C21.7602 32.6892 21.0874 32.0165 20.2576 32.0165C19.4277 32.0165 18.755 32.6892 18.755 33.5191C18.755 34.3489 19.4277 35.0216 20.2576 35.0216Z" fill="#1267AD"/>
<path d="M26.6943 27.6833C27.43 27.6833 28.0263 27.087 28.0263 26.3513C28.0263 25.6157 27.43 25.0193 26.6943 25.0193C25.9587 25.0193 25.3623 25.6157 25.3623 26.3513C25.3623 27.087 25.9587 27.6833 26.6943 27.6833Z" fill="#1267AD"/>
<path d="M29.1391 24.9908C29.8613 24.9908 30.4467 24.4053 30.4467 23.6831C30.4467 22.9609 29.8613 22.3755 29.1391 22.3755C28.4169 22.3755 27.8314 22.9609 27.8314 23.6831C27.8314 24.4053 28.4169 24.9908 29.1391 24.9908Z" fill="#1267AD"/>
<path d="M34.2073 21.1572C34.8062 21.1572 35.2916 20.6718 35.2916 20.0729C35.2916 19.4741 34.8062 18.9886 34.2073 18.9886C33.6085 18.9886 33.123 19.4741 33.123 20.0729C33.123 20.6718 33.6085 21.1572 34.2073 21.1572Z" fill="#1267AD"/>
<path d="M44.429 15.9429C45.0726 15.9429 45.5945 15.421 45.5945 14.7773C45.5945 14.1336 45.0726 13.6118 44.429 13.6118C43.7853 13.6118 43.2634 14.1336 43.2634 14.7773C43.2634 15.421 43.7853 15.9429 44.429 15.9429Z" fill="#1267AD"/>
<path d="M48.0149 14.5702C48.6093 14.5702 49.0911 14.0884 49.0911 13.494C49.0911 12.8997 48.6093 12.4178 48.0149 12.4178C47.4205 12.4178 46.9387 12.8997 46.9387 13.494C46.9387 14.0884 47.4205 14.5702 48.0149 14.5702Z" fill="#1267AD"/>
<path d="M60.1086 12.2432C60.6357 12.2432 61.063 11.8159 61.063 11.2888C61.063 10.7617 60.6357 10.3345 60.1086 10.3345C59.5816 10.3345 59.1543 10.7617 59.1543 11.2888C59.1543 11.8159 59.5816 12.2432 60.1086 12.2432Z" fill="#1267AD"/>
<path d="M66.2936 12.4828C67.0068 12.4828 67.585 11.9047 67.585 11.1914C67.585 10.4782 67.0068 9.90002 66.2936 9.90002C65.5804 9.90002 65.0022 10.4782 65.0022 11.1914C65.0022 11.9047 65.5804 12.4828 66.2936 12.4828Z" fill="#1267AD"/>
<path d="M73.0999 13.4534C73.9163 13.4534 74.5781 12.7916 74.5781 11.9752C74.5781 11.1588 73.9163 10.4969 73.0999 10.4969C72.2835 10.4969 71.6217 11.1588 71.6217 11.9752C71.6217 12.7916 72.2835 13.4534 73.0999 13.4534Z" fill="#1267AD"/>
<path d="M78.0503 13.8596C78.4831 13.8596 78.834 13.5086 78.834 13.0758C78.834 12.6429 78.4831 12.292 78.0503 12.292C77.6174 12.292 77.2665 12.6429 77.2665 13.0758C77.2665 13.5086 77.6174 13.8596 78.0503 13.8596Z" fill="#1267AD"/>
<path d="M82.9723 15.5976C83.394 15.5976 83.7358 15.2558 83.7358 14.8342C83.7358 14.4125 83.394 14.0707 82.9723 14.0707C82.5507 14.0707 82.2089 14.4125 82.2089 14.8342C82.2089 15.2558 82.5507 15.5976 82.9723 15.5976Z" fill="#1267AD"/>
<path d="M90.335 19.2039C90.9047 19.2039 91.3665 18.7421 91.3665 18.1724C91.3665 17.6027 90.9047 17.1409 90.335 17.1409C89.7653 17.1409 89.3035 17.6027 89.3035 18.1724C89.3035 18.7421 89.7653 19.2039 90.335 19.2039Z" fill="#1267AD"/>
<path d="M92.9219 21.0191C93.4803 21.0191 93.933 20.5664 93.933 20.0079C93.933 19.4494 93.4803 18.9967 92.9219 18.9967C92.3634 18.9967 91.9106 19.4494 91.9106 20.0079C91.9106 20.5664 92.3634 21.0191 92.9219 21.0191Z" fill="#1267AD"/>
<path d="M99.2205 25.9981C99.8777 25.9981 100.41 25.4653 100.41 24.8082C100.41 24.151 99.8777 23.6183 99.2205 23.6183C98.5634 23.6183 98.0306 24.151 98.0306 24.8082C98.0306 25.4653 98.5634 25.9981 99.2205 25.9981Z" fill="#1267AD"/>
<path d="M104.918 31.5088C105.474 31.5088 105.925 31.0579 105.925 30.5016C105.925 29.9454 105.474 29.4945 104.918 29.4945C104.362 29.4945 103.911 29.9454 103.911 30.5016C103.911 31.0579 104.362 31.5088 104.918 31.5088Z" fill="#1267AD"/>
<path d="M108.581 37.1334C109.187 37.1334 109.678 36.6425 109.678 36.0369C109.678 35.4313 109.187 34.9404 108.581 34.9404C107.976 34.9404 107.485 35.4313 107.485 36.0369C107.485 36.6425 107.976 37.1334 108.581 37.1334Z" fill="#1267AD"/>
<path d="M110.047 39.7608C110.828 39.7608 111.461 39.1281 111.461 38.3476C111.461 37.5671 110.828 36.9343 110.047 36.9343C109.267 36.9343 108.634 37.5671 108.634 38.3476C108.634 39.1281 109.267 39.7608 110.047 39.7608Z" fill="#1267AD"/>
<path d="M113.17 46.0068C113.637 46.0068 114.015 45.6286 114.015 45.1621C114.015 44.6956 113.637 44.3174 113.17 44.3174C112.704 44.3174 112.326 44.6956 112.326 45.1621C112.326 45.6286 112.704 46.0068 113.17 46.0068Z" fill="#1267AD"/>
<path d="M114.169 48.5611C114.506 48.5611 114.778 48.2884 114.778 47.9519C114.778 47.6155 114.506 47.3428 114.169 47.3428C113.833 47.3428 113.56 47.6155 113.56 47.9519C113.56 48.2884 113.833 48.5611 114.169 48.5611Z" fill="#1267AD"/>
<path d="M116.025 55.9563C116.326 55.9563 116.569 55.7126 116.569 55.4121C116.569 55.1116 116.326 54.8679 116.025 54.8679C115.725 54.8679 115.481 55.1116 115.481 55.4121C115.481 55.7126 115.725 55.9563 116.025 55.9563Z" fill="#1267AD"/>
<path d="M117.049 64.9312C117.389 64.9312 117.666 64.6548 117.666 64.3139C117.666 63.973 117.389 63.6967 117.049 63.6967C116.708 63.6967 116.431 63.973 116.431 64.3139C116.431 64.6548 116.708 64.9312 117.049 64.9312Z" fill="#1267AD"/>
<path d="M112.025 68.5578C112.478 68.5578 112.845 68.1905 112.845 67.7374C112.845 67.2844 112.478 66.9171 112.025 66.9171C111.572 66.9171 111.205 67.2844 111.205 67.7374C111.205 68.1905 111.572 68.5578 112.025 68.5578Z" fill="#1689D6"/>
<path d="M111.205 75.4656C111.543 75.4656 111.818 75.191 111.818 74.8524C111.818 74.5137 111.543 74.2391 111.205 74.2391C110.866 74.2391 110.591 74.5137 110.591 74.8524C110.591 75.191 110.866 75.4656 111.205 75.4656Z" fill="#1689D6"/>
<path d="M109.385 81.6586C110.139 81.6586 110.75 81.0477 110.75 80.2941C110.75 79.5405 110.139 78.9296 109.385 78.9296C108.632 78.9296 108.021 79.5405 108.021 80.2941C108.021 81.0477 108.632 81.6586 109.385 81.6586Z" fill="#1689D6"/>
<path d="M103.801 92.1808C104.221 92.1808 104.561 91.8408 104.561 91.4214C104.561 91.002 104.221 90.662 103.801 90.662C103.382 90.662 103.042 91.002 103.042 91.4214C103.042 91.8408 103.382 92.1808 103.801 92.1808Z" fill="#1689D6"/>
<path d="M102.197 94.5728C102.543 94.5728 102.823 94.2928 102.823 93.9474C102.823 93.602 102.543 93.322 102.197 93.322C101.852 93.322 101.572 93.602 101.572 93.9474C101.572 94.2928 101.852 94.5728 102.197 94.5728Z" fill="#1689D6"/>
<path d="M97.2144 100.441C97.8962 100.441 98.449 99.8882 98.449 99.2064C98.449 98.5245 97.8962 97.9718 97.2144 97.9718C96.5326 97.9718 95.9799 98.5245 95.9799 99.2064C95.9799 99.8882 96.5326 100.441 97.2144 100.441Z" fill="#1689D6"/>
<path d="M91.8253 105.322C92.6955 105.322 93.401 104.617 93.401 103.747C93.401 102.876 92.6955 102.171 91.8253 102.171C90.9551 102.171 90.2496 102.876 90.2496 103.747C90.2496 104.617 90.9551 105.322 91.8253 105.322Z" fill="#1689D6"/>
<path d="M88.6375 107.146C89.3956 107.146 90.0101 106.531 90.0101 105.773C90.0101 105.015 89.3956 104.401 88.6375 104.401C87.8794 104.401 87.2649 105.015 87.2649 105.773C87.2649 106.531 87.8794 107.146 88.6375 107.146Z" fill="#1689D6"/>
<path d="M78.2696 111.755C78.9806 111.755 79.557 111.179 79.557 110.468C79.557 109.757 78.9806 109.18 78.2696 109.18C77.5587 109.18 76.9823 109.757 76.9823 110.468C76.9823 111.179 77.5587 111.755 78.2696 111.755Z" fill="#1689D6"/>
<path d="M70.05 113.611C70.7991 113.611 71.4064 113.004 71.4064 112.255C71.4064 111.505 70.7991 110.898 70.05 110.898C69.3009 110.898 68.6936 111.505 68.6936 112.255C68.6936 113.004 69.3009 113.611 70.05 113.611Z" fill="#1689D6"/>
<path d="M64.7219 114.443C65.5922 114.443 66.2976 113.738 66.2976 112.868C66.2976 111.998 65.5922 111.292 64.7219 111.292C63.8517 111.292 63.1462 111.998 63.1462 112.868C63.1462 113.738 63.8517 114.443 64.7219 114.443Z" fill="#1689D6"/>
<path d="M56.6892 113.254C57.2746 113.254 57.7491 112.779 57.7491 112.194C57.7491 111.608 57.2746 111.134 56.6892 111.134C56.1038 111.134 55.6293 111.608 55.6293 112.194C55.6293 112.779 56.1038 113.254 56.6892 113.254Z" fill="#1689D6"/>
<path d="M52.4455 112.287C52.7662 112.287 53.0262 112.027 53.0262 111.706C53.0262 111.386 52.7662 111.126 52.4455 111.126C52.1247 111.126 51.8647 111.386 51.8647 111.706C51.8647 112.027 52.1247 112.287 52.4455 112.287Z" fill="#1689D6"/>
<path d="M45.0584 109.725C45.4195 109.725 45.7122 109.432 45.7122 109.071C45.7122 108.71 45.4195 108.417 45.0584 108.417C44.6973 108.417 44.4045 108.71 44.4045 109.071C44.4045 109.432 44.6973 109.725 45.0584 109.725Z" fill="#1689D6"/>
<path d="M39.8075 107.921C40.5678 107.921 41.1842 107.305 41.1842 106.545C41.1842 105.784 40.5678 105.168 39.8075 105.168C39.0472 105.168 38.4308 105.784 38.4308 106.545C38.4308 107.305 39.0472 107.921 39.8075 107.921Z" fill="#1689D6"/>
<path d="M37.1474 105.728C37.6319 105.728 38.0246 105.336 38.0246 104.851C38.0246 104.367 37.6319 103.974 37.1474 103.974C36.663 103.974 36.2703 104.367 36.2703 104.851C36.2703 105.336 36.663 105.728 37.1474 105.728Z" fill="#1689D6"/>
<path d="M30.4508 100.843C31.1192 100.843 31.661 100.301 31.661 99.6328C31.661 98.9644 31.1192 98.4226 30.4508 98.4226C29.7824 98.4226 29.2406 98.9644 29.2406 99.6328C29.2406 100.301 29.7824 100.843 30.4508 100.843Z" fill="#1689D6"/>
<path d="M27.6649 98.0003C28.3019 98.0003 28.8183 97.4839 28.8183 96.8469C28.8183 96.21 28.3019 95.6936 27.6649 95.6936C27.028 95.6936 26.5116 96.21 26.5116 96.8469C26.5116 97.4839 27.028 98.0003 27.6649 98.0003Z" fill="#1689D6"/>
<path d="M24.282 93.4722C24.679 93.4722 25.0008 93.1503 25.0008 92.7534C25.0008 92.3564 24.679 92.0345 24.282 92.0345C23.8851 92.0345 23.5632 92.3564 23.5632 92.7534C23.5632 93.1503 23.8851 93.4722 24.282 93.4722Z" fill="#1689D6"/>
<path d="M18.3814 83.1896C19.1619 83.1896 19.7946 82.5569 19.7946 81.7764C19.7946 80.9959 19.1619 80.3632 18.3814 80.3632C17.6009 80.3632 16.9681 80.9959 16.9681 81.7764C16.9681 82.5569 17.6009 83.1896 18.3814 83.1896Z" fill="#1689D6"/>
<path d="M16.3306 75.3884C17.1245 75.3884 17.7682 74.7448 17.7682 73.9508C17.7682 73.1568 17.1245 72.5132 16.3306 72.5132C15.5366 72.5132 14.8929 73.1568 14.8929 73.9508C14.8929 74.7448 15.5366 75.3884 16.3306 75.3884Z" fill="#1689D6"/>
<path d="M15.5021 71.6766C16.296 71.6766 16.9397 71.033 16.9397 70.239C16.9397 69.445 16.296 68.8014 15.5021 68.8014C14.7081 68.8014 14.0645 69.445 14.0645 70.239C14.0645 71.033 14.7081 71.6766 15.5021 71.6766Z" fill="#1689D6"/>
<path d="M15.1122 61.0407C15.4397 61.0407 15.7051 60.7752 15.7051 60.4478C15.7051 60.1203 15.4397 59.8549 15.1122 59.8549C14.7847 59.8549 14.5193 60.1203 14.5193 60.4478C14.5193 60.7752 14.7847 61.0407 15.1122 61.0407Z" fill="#1689D6"/>
<path d="M15.1488 64.3587C15.9607 64.3587 16.6189 63.7005 16.6189 62.8886C16.6189 62.0766 15.9607 61.4185 15.1488 61.4185C14.3369 61.4185 13.6787 62.0766 13.6787 62.8886C13.6787 63.7005 14.3369 64.3587 15.1488 64.3587Z" fill="#1689D6"/>
<path d="M15.9325 55.8061C16.6301 55.8061 17.1955 55.2407 17.1955 54.5431C17.1955 53.8456 16.6301 53.2802 15.9325 53.2802C15.235 53.2802 14.6696 53.8456 14.6696 54.5431C14.6696 55.2407 15.235 55.8061 15.9325 55.8061Z" fill="#1689D6"/>
<path d="M16.5498 52.8577C17.1868 52.8577 17.7032 52.3413 17.7032 51.7044C17.7032 51.0674 17.1868 50.551 16.5498 50.551C15.9129 50.551 15.3965 51.0674 15.3965 51.7044C15.3965 52.3413 15.9129 52.8577 16.5498 52.8577Z" fill="#1689D6"/>
<path d="M18.1744 47.4321C18.5714 47.4321 18.8932 47.1103 18.8932 46.7133C18.8932 46.3163 18.5714 45.9945 18.1744 45.9945C17.7774 45.9945 17.4556 46.3163 17.4556 46.7133C17.4556 47.1103 17.7774 47.4321 18.1744 47.4321Z" fill="#1689D6"/>
<path d="M17.7357 49.211C18.1888 49.211 18.5561 48.8437 18.5561 48.3906C18.5561 47.9376 18.1888 47.5703 17.7357 47.5703C17.2827 47.5703 16.9154 47.9376 16.9154 48.3906C16.9154 48.8437 17.2827 49.211 17.7357 49.211Z" fill="#1689D6"/>
<path d="M19.2708 45.3611C19.9683 45.3611 20.5338 44.7956 20.5338 44.0981C20.5338 43.4005 19.9683 42.8351 19.2708 42.8351C18.5733 42.8351 18.0078 43.4005 18.0078 44.0981C18.0078 44.7956 18.5733 45.3611 19.2708 45.3611Z" fill="#1689D6"/>
<path d="M24.3309 36.2196C24.7122 36.2196 25.0213 35.9105 25.0213 35.5292C25.0213 35.148 24.7122 34.8389 24.3309 34.8389C23.9496 34.8389 23.6405 35.148 23.6405 35.5292C23.6405 35.9105 23.9496 36.2196 24.3309 36.2196Z" fill="#1689D6"/>
<path d="M26.8892 33.2835C27.4387 33.2835 27.8842 32.838 27.8842 32.2885C27.8842 31.739 27.4387 31.2936 26.8892 31.2936C26.3397 31.2936 25.8943 31.739 25.8943 32.2885C25.8943 32.838 26.3397 33.2835 26.8892 33.2835Z" fill="#1689D6"/>
<path d="M33.0946 27.0498C33.6284 27.0498 34.0611 26.617 34.0611 26.0832C34.0611 25.5494 33.6284 25.1167 33.0946 25.1167C32.5608 25.1167 32.1281 25.5494 32.1281 26.0832C32.1281 26.617 32.5608 27.0498 33.0946 27.0498Z" fill="#1689D6"/>
<path d="M36.0104 25.3766C36.7393 25.3766 37.3302 24.7857 37.3302 24.0568C37.3302 23.3279 36.7393 22.7369 36.0104 22.7369C35.2815 22.7369 34.6906 23.3279 34.6906 24.0568C34.6906 24.7857 35.2815 25.3766 36.0104 25.3766Z" fill="#1689D6"/>
<path d="M40.1445 22.3512C40.5594 22.3512 40.8958 22.0149 40.8958 21.5999C40.8958 21.185 40.5594 20.8486 40.1445 20.8486C39.7296 20.8486 39.3932 21.185 39.3932 21.5999C39.3932 22.0149 39.7296 22.3512 40.1445 22.3512Z" fill="#1689D6"/>
<path d="M47.2676 19.1185C47.6107 19.1185 47.8889 18.8403 47.8889 18.4972C47.8889 18.154 47.6107 17.8759 47.2676 17.8759C46.9244 17.8759 46.6462 18.154 46.6462 18.4972C46.6462 18.8403 46.9244 19.1185 47.2676 19.1185Z" fill="#1689D6"/>
<path d="M50.3378 18.1399C50.7482 18.1399 51.0809 17.8072 51.0809 17.3967C51.0809 16.9863 50.7482 16.6536 50.3378 16.6536C49.9273 16.6536 49.5946 16.9863 49.5946 17.3967C49.5946 17.8072 49.9273 18.1399 50.3378 18.1399Z" fill="#1689D6"/>
<path d="M57.6476 17.2464C58.4192 17.2464 59.0446 16.6209 59.0446 15.8494C59.0446 15.0779 58.4192 14.4524 57.6476 14.4524C56.8761 14.4524 56.2506 15.0779 56.2506 15.8494C56.2506 16.6209 56.8761 17.2464 57.6476 17.2464Z" fill="#1689D6"/>
<path d="M61.6762 16.8931C62.385 16.8931 62.9595 16.3186 62.9595 15.6098C62.9595 14.9011 62.385 14.3265 61.6762 14.3265C60.9675 14.3265 60.3929 14.9011 60.3929 15.6098C60.3929 16.3186 60.9675 16.8931 61.6762 16.8931Z" fill="#1689D6"/>
<path d="M69.7699 17.3277C70.4629 17.3277 71.0247 16.7659 71.0247 16.0729C71.0247 15.3798 70.4629 14.818 69.7699 14.818C69.0768 14.818 68.515 15.3798 68.515 16.0729C68.515 16.7659 69.0768 17.3277 69.7699 17.3277Z" fill="#1689D6"/>
<path d="M78.9275 18.9562C79.3873 18.9562 79.76 18.5834 79.76 18.1237C79.76 17.6639 79.3873 17.2911 78.9275 17.2911C78.4677 17.2911 78.095 17.6639 78.095 18.1237C78.095 18.5834 78.4677 18.9562 78.9275 18.9562Z" fill="#1689D6"/>
<path d="M84.621 21.2101C85.2019 21.2101 85.6728 20.7392 85.6728 20.1583C85.6728 19.5774 85.2019 19.1064 84.621 19.1064C84.0401 19.1064 83.5692 19.5774 83.5692 20.1583C83.5692 20.7392 84.0401 21.2101 84.621 21.2101Z" fill="#1689D6"/>
<path d="M90.9563 25.5594C91.7862 25.5594 92.4589 24.8866 92.4589 24.0568C92.4589 23.2269 91.7862 22.5542 90.9563 22.5542C90.1265 22.5542 89.4537 23.2269 89.4537 24.0568C89.4537 24.8866 90.1265 25.5594 90.9563 25.5594Z" fill="#1689D6"/>
<path d="M97.4865 30.9972C98.3567 30.9972 99.0621 30.2917 99.0621 29.4215C99.0621 28.5513 98.3567 27.8458 97.4865 27.8458C96.6162 27.8458 95.9108 28.5513 95.9108 29.4215C95.9108 30.2917 96.6162 30.9972 97.4865 30.9972Z" fill="#1689D6"/>
<path d="M99.9434 32.4267C100.246 32.4267 100.492 32.1812 100.492 31.8784C100.492 31.5757 100.246 31.3302 99.9434 31.3302C99.6406 31.3302 99.3951 31.5757 99.3951 31.8784C99.3951 32.1812 99.6406 32.4267 99.9434 32.4267Z" fill="#1689D6"/>
<path d="M106.482 42.5061C107.231 42.5061 107.838 41.8988 107.838 41.1497C107.838 40.4006 107.231 39.7933 106.482 39.7933C105.733 39.7933 105.125 40.4006 105.125 41.1497C105.125 41.8988 105.733 42.5061 106.482 42.5061Z" fill="#1689D6"/>
<path d="M110.6 52.8253C111.355 52.8253 111.968 52.2125 111.968 51.4567C111.968 50.7009 111.355 50.0881 110.6 50.0881C109.844 50.0881 109.231 50.7009 109.231 51.4567C109.231 52.2125 109.844 52.8253 110.6 52.8253Z" fill="#1689D6"/>
<path d="M110.843 52.874C111.247 52.874 111.574 52.5467 111.574 52.143C111.574 51.7393 111.247 51.412 110.843 51.412C110.439 51.412 110.112 51.7393 110.112 52.143C110.112 52.5467 110.439 52.874 110.843 52.874Z" fill="#1689D6"/>
<path d="M111.867 59.8427C112.192 59.8427 112.455 59.5791 112.455 59.2539C112.455 58.9287 112.192 58.665 111.867 58.665C111.541 58.665 111.278 58.9287 111.278 59.2539C111.278 59.5791 111.541 59.8427 111.867 59.8427Z" fill="#1689D6"/>
<path d="M112.435 65.5364C113.184 65.5364 113.792 64.9291 113.792 64.18C113.792 63.4309 113.184 62.8236 112.435 62.8236C111.686 62.8236 111.079 63.4309 111.079 64.18C111.079 64.9291 111.686 65.5364 112.435 65.5364Z" fill="#1689D6"/>
</g>
<defs>
<clipPath id="clip0_240_6901">
<rect width="128" height="128" fill="white"/>
</clipPath>
</defs>
</svg>
