<svg width="697" height="128" viewBox="0 0 697 128" fill="none" xmlns="http://www.w3.org/2000/svg">
<path d="M667.35 99.4406C660.776 99.4406 654.894 97.8826 649.703 94.7666C644.513 91.6505 640.404 87.4092 637.377 82.0427C634.435 76.6762 632.965 70.5739 632.965 63.7359C632.965 56.9845 634.435 50.9255 637.377 45.559C640.404 40.1059 644.513 35.8214 649.703 32.7053C654.894 29.5893 660.776 28.0312 667.35 28.0312C673.492 28.0312 679.115 29.1565 684.219 31.407C689.322 33.6574 693.302 36.7735 696.156 40.7551L686.035 52.9596C684.824 51.315 683.31 49.8436 681.494 48.5452C679.677 47.1603 677.688 46.0783 675.525 45.2993C673.449 44.5203 671.286 44.1308 669.037 44.1308C665.49 44.1308 662.333 44.9964 659.565 46.7275C656.883 48.3721 654.764 50.6659 653.207 53.6088C651.65 56.5517 650.871 59.9274 650.871 63.7359C650.871 67.4579 651.65 70.7903 653.207 73.7332C654.85 76.5896 657.056 78.9267 659.824 80.7444C662.593 82.4755 665.707 83.3411 669.167 83.3411C671.416 83.3411 673.535 83.0381 675.525 82.4322C677.515 81.7398 679.374 80.7443 681.105 79.446C682.921 78.1476 684.565 76.5896 686.035 74.7719L696.027 86.9764C693.085 90.6984 689.02 93.7279 683.829 96.0649C678.639 98.3154 673.146 99.4406 667.35 99.4406Z" fill="#251931"/>
<path d="M605.297 98.0031V29.3203H623.722V98.0031H605.297Z" fill="#251931"/>
<path d="M566.369 98.1354V12.0547H584.795V98.1354H566.369ZM553.523 45.9417V29.4526H598.808V45.9417H553.523Z" fill="#251931"/>
<path d="M522.782 99.4406C515.343 99.4406 508.855 97.9259 503.319 94.8964C497.782 91.8669 493.457 87.7122 490.343 82.4322C487.229 77.1522 485.672 71.0933 485.672 64.2553C485.672 58.9753 486.537 54.1281 488.267 49.7137C489.997 45.2993 492.419 41.4908 495.533 38.2882C498.648 34.9991 502.324 32.4889 506.563 30.7578C510.888 28.9401 515.559 28.0312 520.576 28.0312C525.248 28.0312 529.573 28.8968 533.552 30.628C537.531 32.2725 540.948 34.6528 543.803 37.7689C546.744 40.7984 548.993 44.3905 550.55 48.5452C552.107 52.6999 552.799 57.2442 552.626 62.1779L552.496 67.8907H497.35L494.366 56.595H537.315L535.239 58.932V56.0757C535.066 53.7386 534.287 51.618 532.903 49.7137C531.606 47.8095 529.919 46.338 527.843 45.2993C525.767 44.2607 523.431 43.7413 520.836 43.7413C517.03 43.7413 513.786 44.477 511.104 45.9485C508.509 47.42 506.519 49.5839 505.135 52.4403C503.751 55.2966 503.059 58.7589 503.059 62.8271C503.059 66.9818 503.924 70.5739 505.654 73.6034C507.471 76.6329 509.98 79.0132 513.18 80.7444C516.467 82.3889 520.317 83.2112 524.729 83.2112C527.756 83.2112 530.524 82.7352 533.033 81.783C535.542 80.8309 538.223 79.1863 541.078 76.8493L549.901 89.1836C547.393 91.4341 544.625 93.3384 541.597 94.8964C538.569 96.3679 535.455 97.4931 532.254 98.2721C529.054 99.0511 525.896 99.4406 522.782 99.4406Z" fill="#251931"/>
<path d="M415.98 98.1423V29.4594H433.627L434.146 43.4816L430.513 45.0397C431.465 41.9236 433.152 39.1105 435.574 36.6004C438.082 34.0037 441.067 31.9263 444.527 30.3683C447.987 28.8103 451.62 28.0312 455.426 28.0312C460.617 28.0312 464.942 29.0699 468.402 31.1473C471.949 33.2247 474.587 36.384 476.317 40.6253C478.134 44.78 479.042 49.9301 479.042 56.0757V98.1423H460.617V57.5038C460.617 54.3878 460.184 51.7911 459.319 49.7137C458.454 47.6364 457.113 46.1216 455.297 45.1695C453.567 44.1308 451.404 43.698 448.809 43.8712C446.733 43.8712 444.786 44.2174 442.97 44.9098C441.24 45.5157 439.726 46.4246 438.428 47.6364C437.217 48.8482 436.223 50.2331 435.444 51.7911C434.752 53.3491 434.406 55.037 434.406 56.8547V98.1423H425.323C423.333 98.1423 421.56 98.1423 420.003 98.1423C418.446 98.1423 417.105 98.1423 415.98 98.1423Z" fill="#251931"/>
<path d="M367.7 128.004C362.25 128.004 356.886 127.182 351.61 125.538C346.333 123.979 342.051 121.945 338.764 119.435L345.252 106.192C346.982 107.404 348.971 108.486 351.22 109.438C353.47 110.39 355.805 111.126 358.227 111.645C360.736 112.164 363.288 112.424 365.883 112.424C370.381 112.424 374.058 111.732 376.912 110.347C379.853 108.962 382.059 106.885 383.53 104.115C385 101.431 385.736 97.9692 385.736 93.7279V81.783L388.85 82.4322C388.331 85.2886 386.904 87.9286 384.568 90.3522C382.232 92.6892 379.291 94.5934 375.744 96.0649C372.198 97.4498 368.565 98.1423 364.845 98.1423C358.444 98.1423 352.778 96.6708 347.847 93.7279C342.916 90.7849 339.023 86.7168 336.169 81.5234C333.314 76.3299 331.887 70.3575 331.887 63.6061C331.887 56.6816 333.271 50.5793 336.039 45.2993C338.894 39.9328 342.743 35.7348 347.587 32.7053C352.518 29.5893 358.098 28.0312 364.326 28.0312C366.921 28.0312 369.386 28.3342 371.722 28.9401C374.144 29.546 376.35 30.4116 378.34 31.5368C380.416 32.5755 382.232 33.7873 383.789 35.1722C385.433 36.4705 386.774 37.8987 387.812 39.4568C388.85 41.0148 389.499 42.5728 389.758 44.1308L385.995 45.1695L386.514 29.4594H404.161V92.9489C404.161 98.5751 403.339 103.552 401.696 107.88C400.052 112.208 397.63 115.843 394.429 118.786C391.315 121.816 387.466 124.109 382.881 125.667C378.383 127.225 373.322 128.004 367.7 128.004ZM368.219 83.341C371.852 83.341 375.009 82.5188 377.691 80.8742C380.459 79.2296 382.578 76.9358 384.049 73.9929C385.519 71.05 386.255 67.5877 386.255 63.6061C386.255 59.711 385.519 56.2921 384.049 53.3491C382.578 50.3196 380.459 47.9826 377.691 46.338C375.009 44.6934 371.852 43.8712 368.219 43.8712C364.672 43.8712 361.514 44.7367 358.746 46.4679C356.065 48.1124 353.989 50.4062 352.518 53.3491C351.047 56.2921 350.312 59.711 350.312 63.6061C350.312 67.5012 351.047 70.9634 352.518 73.9929C353.989 76.9358 356.065 79.2296 358.746 80.8742C361.514 82.5188 364.672 83.341 368.219 83.341Z" fill="#251931"/>
<path d="M284.09 99.4406C278.38 99.4406 273.233 97.8826 268.649 94.7666C264.064 91.6505 260.431 87.4092 257.749 82.0427C255.067 76.6762 253.727 70.5307 253.727 63.6061C253.727 56.6816 255.067 50.5793 257.749 45.2993C260.517 39.9328 264.237 35.7348 268.908 32.7053C273.579 29.5893 278.899 28.0312 284.868 28.0312C288.242 28.0312 291.313 28.5506 294.081 29.5893C296.936 30.5414 299.401 31.883 301.477 33.6142C303.64 35.3453 305.456 37.3361 306.927 39.5866C308.397 41.8371 309.435 44.2607 310.041 46.8574L306.148 46.2082V29.4594H324.444V98.1423H305.889V81.6532L310.041 81.2637C309.349 83.6873 308.224 85.981 306.667 88.145C305.11 90.3089 303.164 92.2564 300.828 93.9875C298.579 95.6321 296.027 96.9738 293.173 98.0124C290.318 98.9646 287.29 99.4406 284.09 99.4406ZM289.15 83.4709C292.61 83.4709 295.638 82.6486 298.233 81.004C300.828 79.3594 302.818 77.0657 304.202 74.1228C305.672 71.0933 306.408 67.5877 306.408 63.6061C306.408 59.711 305.672 56.2921 304.202 53.3491C302.818 50.4062 300.828 48.1124 298.233 46.4679C295.638 44.7367 292.61 43.8712 289.15 43.8712C285.776 43.8712 282.792 44.7367 280.197 46.4679C277.688 48.1124 275.699 50.4062 274.228 53.3491C272.758 56.2921 272.022 59.711 272.022 63.6061C272.022 67.5877 272.758 71.0933 274.228 74.1228C275.699 77.0657 277.688 79.3594 280.197 81.004C282.792 82.6486 285.776 83.4709 289.15 83.4709Z" fill="#251931"/>
<path d="M141.59 98.1374V29.4546H159.367L159.756 42.568L157.031 43.0873C157.982 40.8368 159.237 38.8027 160.794 36.985C162.351 35.1674 164.167 33.6093 166.244 32.311C168.406 31.0126 170.655 30.0172 172.991 29.3248C175.327 28.5458 177.662 28.1562 179.998 28.1562C183.544 28.1562 186.745 28.7189 189.6 29.8441C192.454 30.9694 194.877 32.7438 196.866 35.1674C198.856 37.5044 200.413 40.6204 201.537 44.5155L198.683 44.2558L199.591 42.1785C200.716 40.1011 202.143 38.2401 203.873 36.5955C205.603 34.8644 207.549 33.3929 209.712 32.1811C211.875 30.8828 214.124 29.8874 216.459 29.1949C218.795 28.5025 221.087 28.1562 223.337 28.1562C228.7 28.1562 233.155 29.2382 236.701 31.4021C240.248 33.4795 242.887 36.6388 244.617 40.8801C246.433 45.1214 247.341 50.3148 247.341 56.4603V98.1374H228.916V57.7587C228.916 54.6426 228.484 52.0892 227.618 50.0984C226.753 48.1076 225.499 46.6361 223.856 45.684C222.212 44.6453 220.093 44.126 217.497 44.126C215.508 44.126 213.648 44.4722 211.918 45.1647C210.274 45.7706 208.804 46.6794 207.506 47.8912C206.295 49.0164 205.344 50.3581 204.652 51.9161C203.96 53.4741 203.614 55.2052 203.614 57.1095V98.1374H185.188V57.6288C185.188 54.7725 184.712 52.3489 183.761 50.3581C182.896 48.2807 181.641 46.7227 179.998 45.684C178.354 44.6453 176.321 44.126 173.899 44.126C171.91 44.126 170.05 44.4722 168.32 45.1647C166.676 45.7706 165.249 46.6794 164.038 47.8912C162.827 49.0164 161.832 50.3581 161.053 51.9161C160.361 53.4741 160.015 55.162 160.015 56.9797V98.1374H141.59Z" fill="#251931"/>
<circle cx="614.35" cy="9.64701" r="9.64701" fill="#251931"/>
<path d="M77.1935 35.3802C87.2562 41.1903 87.2562 55.7252 77.1935 61.5354L22.6439 93.0464C12.5812 98.8565 0.0078125 91.5923 0.0078125 79.9656V104.264C0.0078125 119.059 16.0133 128.303 28.8138 120.903L63.5204 100.853L98.2271 80.803C111.028 73.4089 111.028 54.9139 98.2271 47.5197L77.1935 35.3672V35.3802Z" fill="url(#paint0_linear_7338_5520)"/>
<path d="M0.0078125 48.3802C0.0078125 36.7534 12.5877 29.4892 22.6439 35.2994L77.1935 66.8104C87.2562 72.6205 87.2562 87.1556 77.1935 92.9657L98.2271 80.8131C111.028 73.419 111.028 54.924 98.2271 47.5299L28.8138 7.43027C16.0133 0.0361581 0.0078125 9.28035 0.0078125 24.0686V48.3673V48.3802Z" fill="url(#paint1_linear_7338_5520)"/>
<path d="M22.6425 93.05L27.2035 90.4143V32.6637C27.2035 21.0369 39.7834 13.7727 49.8395 19.5828L28.806 7.43027C16.0055 0.0361576 0 9.28035 0 24.0686V79.9627C0 91.5894 12.5799 98.8537 22.636 93.0435L22.6425 93.05Z" fill="url(#paint2_linear_7338_5520)"/>
<defs>
<linearGradient id="paint0_linear_7338_5520" x1="119.503" y1="43.5809" x2="6.26274" y2="105.758" gradientUnits="userSpaceOnUse">
<stop offset="0.365385" stop-color="#FFA9BB"/>
<stop offset="0.677505" stop-color="#FA6281"/>
<stop offset="1" stop-color="#F51846"/>
</linearGradient>
<linearGradient id="paint1_linear_7338_5520" x1="7.75808" y1="16.2328" x2="104.86" y2="79.2079" gradientUnits="userSpaceOnUse">
<stop stop-color="#FFA9BB"/>
<stop offset="0.572115" stop-color="#FA6281"/>
<stop offset="1" stop-color="#F51846"/>
</linearGradient>
<linearGradient id="paint2_linear_7338_5520" x1="24.0374" y1="-6.16348" x2="20.6151" y2="124.023" gradientUnits="userSpaceOnUse">
<stop offset="0.15" stop-color="#F51846"/>
<stop offset="0.423077" stop-color="#FA6080"/>
<stop offset="0.725962" stop-color="#FFA9BB"/>
</linearGradient>
</defs>
</svg>
