<svg width="128" height="128" viewBox="0 0 128 128" fill="none" xmlns="http://www.w3.org/2000/svg">
<rect width="128" height="128" fill="#FFE01B"/>
<g clip-path="url(#clip0_318_5907)">
<path d="M90.2537 60.982C91.0577 60.8852 91.8279 60.881 92.5308 60.982C92.9391 60.0434 93.0107 58.4271 92.6403 56.6635C92.0931 54.0454 91.3523 52.4628 89.8244 52.707C88.2965 52.9553 88.2376 54.8494 88.7848 57.4674C89.092 58.9406 89.6392 60.1991 90.2495 60.9778L90.2537 60.982Z" fill="black"/>
<path d="M77.1213 63.0529C78.2157 63.5327 78.8891 63.8526 79.1501 63.5748C79.3185 63.4022 79.2679 63.0697 79.007 62.6446C78.4682 61.7649 77.357 60.8684 76.1785 60.3675C73.7667 59.3279 70.8919 59.673 68.6737 61.2682C67.9413 61.8028 67.2468 62.5478 67.3478 62.9982C67.3815 63.1455 67.4909 63.2549 67.7477 63.2886C68.3496 63.3559 70.4626 62.291 72.8912 62.1437C74.6085 62.0385 76.027 62.5731 77.1213 63.0571V63.0529Z" fill="black"/>
<path d="M74.9159 64.3071C73.489 64.5302 72.7061 65.0016 72.201 65.4394C71.7717 65.814 71.5023 66.2307 71.5065 66.5253C71.5065 66.6642 71.5697 66.7442 71.616 66.7863C71.6791 66.8452 71.7591 66.8747 71.8517 66.8747C72.1715 66.8747 72.8955 66.5842 72.8955 66.5842C74.878 65.8729 76.187 65.9613 77.4834 66.1086C78.1989 66.1886 78.5399 66.2349 78.6956 65.9865C78.7419 65.915 78.7966 65.7635 78.6535 65.532C78.321 64.989 76.8815 64.0756 74.9159 64.3071Z" fill="black"/>
<path d="M85.8172 68.9203C86.7853 69.396 87.8502 69.2108 88.1996 68.5036C88.5489 67.7965 88.0438 66.841 87.0757 66.3654C86.1077 65.8898 85.0428 66.075 84.6934 66.7821C84.3483 67.4892 84.8491 68.4447 85.8172 68.9203Z" fill="black"/>
<path d="M92.0426 63.4822C91.2555 63.4696 90.6031 64.3324 90.5863 65.41C90.5694 66.4875 91.1924 67.3714 91.9753 67.3882C92.7624 67.4008 93.4148 66.538 93.4316 65.4605C93.4484 64.3829 92.8255 63.499 92.0426 63.4822Z" fill="black"/>
<path d="M38.3937 82.8272C38.1748 82.8777 37.9307 82.9366 37.6613 82.9324C37.0847 82.9198 36.5922 82.6757 36.3186 82.2506C35.9608 81.6992 35.9819 80.8784 36.3775 79.9398C36.4322 79.8135 36.4954 79.6746 36.5627 79.5189C37.1941 78.1046 38.2506 75.7349 37.0636 73.4788C36.1713 71.7784 34.7192 70.7219 32.9682 70.4988C31.2888 70.2842 29.5588 70.9071 28.456 72.1235C26.7177 74.0429 26.4441 76.6525 26.7808 77.5785C26.9029 77.9152 27.0965 78.012 27.2354 78.0289C27.5301 78.0667 27.9678 77.8521 28.2414 77.1155C28.2624 77.0608 28.2877 76.9808 28.3214 76.8756C28.4434 76.4841 28.6707 75.7602 29.0453 75.1793C29.4957 74.4764 30.1944 73.9924 31.0152 73.8198C31.8528 73.6388 32.7072 73.7987 33.4228 74.2702C34.6392 75.0657 35.1106 76.5599 34.5887 77.9868C34.3193 78.7234 33.8815 80.1334 33.9784 81.2909C34.172 83.6353 35.6157 84.574 36.9079 84.675C38.1664 84.7213 39.0461 84.0142 39.2692 83.5007C39.3996 83.1934 39.2902 83.0082 39.2187 82.9282C39.025 82.6841 38.7009 82.7599 38.3895 82.8314L38.3937 82.8272Z" fill="black"/>
<path d="M111.88 78.6433C111.834 78.475 111.518 77.3343 111.093 75.9579C110.664 74.5816 110.222 73.6135 110.222 73.6135C111.943 71.0375 111.973 68.7352 111.745 67.4303C111.501 65.8141 110.828 64.4335 109.472 63.0108C108.117 61.5881 105.339 60.1276 101.441 59.0332C100.995 58.907 99.5263 58.5029 99.3959 58.465C99.3874 58.3808 99.2864 53.6414 99.198 51.6042C99.1349 50.1352 99.0086 47.8371 98.2931 45.5768C97.4429 42.5168 95.9655 39.8356 94.1177 38.1225C99.2149 32.8402 102.397 27.019 102.389 22.027C102.376 12.4261 90.5821 9.52187 76.0523 15.5366C76.0355 15.5451 72.9965 16.833 72.9755 16.8457C72.9629 16.833 67.4111 11.3865 67.3269 11.3107C50.7516 -3.14324 -1.04953 54.4327 15.5132 68.4153L19.133 71.4795C18.1944 73.9123 17.824 76.6987 18.127 79.6956C18.5143 83.5427 20.5009 87.234 23.7167 90.0836C26.7725 92.79 30.7879 94.5031 34.6855 94.4989C41.1296 109.349 55.8572 118.461 73.1228 118.975C91.6427 119.526 107.191 110.834 113.703 95.2229C114.128 94.1285 115.938 89.1913 115.938 84.8349C115.938 80.4785 113.463 78.6391 111.884 78.6391L111.88 78.6433ZM36.1082 90.3319C35.5442 90.4287 34.9717 90.4666 34.3909 90.454C28.797 90.3025 22.7528 85.2684 22.1551 79.2957C21.4901 72.6959 24.8658 67.6155 30.8384 66.4117C31.554 66.2686 32.4168 66.1844 33.347 66.235C36.6933 66.4202 41.6221 68.9877 42.7501 76.2778C43.7477 82.7345 42.1651 89.3049 36.1124 90.3403L36.1082 90.3319ZM29.8619 62.4594C26.1453 63.1834 22.8664 65.2879 20.8629 68.2006C19.6633 67.203 17.4325 65.2669 17.0411 64.5134C13.8422 58.4398 20.5304 46.6291 25.2067 39.9619C36.7522 23.475 54.8428 11.0035 63.2189 13.2637C64.5784 13.651 69.0905 18.8786 69.0905 18.8786C69.0905 18.8786 60.7187 23.5213 52.9571 29.999C42.4976 38.051 34.5971 49.7564 29.8619 62.4594ZM51.1935 39.8904C55.2974 35.1467 60.3525 31.0218 64.8814 28.7026C65.0372 28.6227 65.2055 28.791 65.1171 28.9468C64.7594 29.5992 64.0649 30.9924 63.846 32.0488C63.8123 32.213 63.9933 32.3393 64.1322 32.2425C66.9481 30.3231 71.8517 28.2649 76.1491 27.9997C76.3343 27.9871 76.4227 28.227 76.2754 28.3364C75.623 28.8373 74.9075 29.5318 74.3855 30.2347C74.2971 30.3526 74.3813 30.5252 74.5286 30.5252C77.5466 30.5462 81.8019 31.6027 84.5757 33.16C84.7651 33.2653 84.6304 33.6272 84.42 33.5809C80.2235 32.6171 73.3543 31.8889 66.2199 33.6315C59.8516 35.1846 54.9901 37.5838 51.4419 40.1639C51.2609 40.2944 51.0462 40.0587 51.1935 39.8904ZM112.069 86.3123C111.265 91.1864 109.195 95.1387 105.714 98.7795C103.597 101.061 101.021 103.043 98.0784 104.487C96.5169 105.308 94.8501 106.019 93.0949 106.592C79.971 110.876 66.5398 106.166 62.2129 96.0478C61.8677 95.286 61.5731 94.4905 61.3458 93.6571C59.5022 86.9899 61.068 78.9885 65.9632 73.9544C66.2662 73.6345 66.5735 73.2557 66.5735 72.7801C66.5735 72.3844 66.3209 71.9635 66.1021 71.6647C64.389 69.1813 58.4542 64.947 59.6454 56.7519C60.4998 50.8676 65.6475 46.7217 70.45 46.9658C70.8541 46.9869 71.2624 47.0121 71.6665 47.0374C73.7458 47.1594 75.5599 47.4288 77.273 47.5004C80.1393 47.6224 82.7153 47.2057 85.7669 44.6634C86.7981 43.8048 87.6231 43.0598 89.0205 42.8241C89.1678 42.7988 89.534 42.6683 90.2622 42.702C91.0072 42.7399 91.7185 42.9461 92.3541 43.3713C94.7996 45.0002 95.1489 48.9441 95.2752 51.8273C95.3467 53.473 95.5446 57.459 95.6161 58.6039C95.7719 61.2177 96.4579 61.5881 97.8511 62.0469C98.634 62.3037 99.358 62.4973 100.431 62.7961C103.672 63.7053 105.592 64.6271 106.8 65.8141C107.524 66.5548 107.856 67.3419 107.961 68.0912C108.344 70.8776 105.798 74.3206 99.0591 77.4479C91.6933 80.8657 82.7574 81.7328 76.5869 81.0425C76.1113 80.9878 74.4318 80.7984 74.4234 80.7984C69.4862 80.1333 66.6661 86.5143 69.6335 90.8875C71.5444 93.7034 76.7468 95.5386 81.9535 95.5386C93.8904 95.5386 103.062 90.4414 106.476 86.0429C106.577 85.9124 106.589 85.8956 106.749 85.6556C106.917 85.4031 106.779 85.2642 106.568 85.4073C103.782 87.314 91.3944 94.8904 78.1485 92.609C78.1485 92.609 76.5406 92.3439 75.0716 91.7714C73.9057 91.3168 71.4602 90.193 71.1614 87.6844C81.8524 90.9885 88.5827 87.8654 88.5827 87.8654C88.7048 87.8149 88.789 87.676 88.7722 87.5371C88.7553 87.3687 88.6038 87.2425 88.4354 87.2593C88.4354 87.2593 79.6721 88.5557 71.3929 85.5252C72.2936 82.5956 74.6928 83.6521 78.3168 83.9468C84.8493 84.334 90.7041 83.3827 95.0311 82.1411C98.7813 81.0635 103.706 78.9422 107.528 75.9243C108.816 78.757 109.275 81.8759 109.275 81.8759C109.275 81.8759 110.272 81.6991 111.106 82.2126C111.893 82.6967 112.473 83.7068 112.078 86.3165L112.069 86.3123ZM71.6412 85.8619C71.6412 85.8619 71.6412 85.8619 71.6412 85.8661C71.6412 85.8661 71.6412 85.8619 71.6412 85.8577V85.8619Z" fill="black"/>
</g>
<defs>
<clipPath id="clip0_318_5907">
<rect width="103.644" height="110" fill="white" transform="translate(12.2889 9)"/>
</clipPath>
</defs>
</svg>
