<?xml version="1.0" encoding="UTF-8" standalone="no"?>
<!DOCTYPE svg PUBLIC "-//W3C//DTD SVG 1.1//EN" "http://www.w3.org/Graphics/SVG/1.1/DTD/svg11.dtd">
<svg xmlns="http://www.w3.org/2000/svg" version="1.1" viewBox="0.00 0.00 138.00 138.00">
<g stroke-width="2.00" fill="none" stroke-linecap="butt">
<path stroke="#0286c1" vector-effect="non-scaling-stroke" d="
  M 104.29 0.45
  Q 104.71 0.26 105.21 0.46"
/>
<path stroke="#02a1e8" vector-effect="non-scaling-stroke" d="
  M 136.37 12.39
  L 0.89 13.39"
/>
<path stroke="#0291d2" vector-effect="non-scaling-stroke" d="
  M 137.52 48.68
  C 125.55 48.67 114.57 47.91 104.29 40.94"
/>
<path stroke="#81cdf0" vector-effect="non-scaling-stroke" d="
  M 104.29 40.94
  L 104.16 40.08
  A 0.34 0.34 0.0 0 0 103.70 39.82
  L 87.41 46.76
  A 0.86 0.85 -11.4 0 0 86.88 47.55
  L 86.85 51.74"
/>
<path stroke="#0291d2" vector-effect="non-scaling-stroke" d="
  M 86.85 51.74
  L 75.39 51.36"
/>
<path stroke="#81cdf0" vector-effect="non-scaling-stroke" d="
  M 75.39 51.36
  L 65.37 54.00"
/>
<path stroke="#0291d2" vector-effect="non-scaling-stroke" d="
  M 65.37 54.00
  L 0.00 52.62"
/>
<path stroke="#81c3e2" vector-effect="non-scaling-stroke" d="
  M 104.29 40.94
  L 104.31 87.87"
/>
<path stroke="#81bfdc" vector-effect="non-scaling-stroke" d="
  M 104.31 87.87
  L 104.32 97.09"
/>
<path stroke="#80b8d1" vector-effect="non-scaling-stroke" d="
  M 104.32 97.09
  L 104.24 98.15
  A 0.63 0.63 0.0 0 1 103.61 98.73
  L 87.42 98.73
  A 0.56 0.56 0.0 0 1 86.86 98.17
  L 86.86 86.47"
/>
<path stroke="#81c3e2" vector-effect="non-scaling-stroke" d="
  M 86.86 86.47
  L 86.85 51.74"
/>
<path stroke="#0283be" vector-effect="non-scaling-stroke" d="
  M 137.51 81.75
  C 125.68 80.75 114.42 80.50 104.31 87.87"
/>
<path stroke="#81c3e2" vector-effect="non-scaling-stroke" d="
  M 75.39 51.36
  L 75.44 87.98"
/>
<path stroke="#80b8d1" vector-effect="non-scaling-stroke" d="
  M 75.44 87.98
  L 75.37 98.16
  A 0.59 0.59 0.0 0 1 74.78 98.75
  L 60.44 98.75
  A 0.58 0.57 90.0 0 1 59.87 98.17
  L 59.84 85.09"
/>
<path stroke="#81bfdc" vector-effect="non-scaling-stroke" d="
  M 59.84 85.09
  L 59.77 75.00"
/>
<path stroke="#81c3e2" vector-effect="non-scaling-stroke" d="
  M 59.77 75.00
  L 59.85 56.60
  A 0.74 0.74 0.0 0 1 60.33 55.91
  L 65.37 54.00"
/>
<path stroke="#027cb3" vector-effect="non-scaling-stroke" d="
  M 86.86 86.47
  L 75.44 87.98"
/>
<path stroke="#0283be" vector-effect="non-scaling-stroke" d="
  M 59.77 75.00
  Q 53.97 73.62 48.28 75.35"
/>
<path stroke="#81c3e2" vector-effect="non-scaling-stroke" d="
  M 48.28 75.35
  L 48.28 59.58
  A 0.40 0.40 0.0 0 0 47.80 59.19
  L 33.99 62.04
  A 0.68 0.68 0.0 0 0 33.44 62.71
  L 33.39 71.21"
/>
<path stroke="#0283be" vector-effect="non-scaling-stroke" d="
  M 33.39 71.21
  L 0.00 72.00"
/>
<path stroke="#81bfdc" vector-effect="non-scaling-stroke" d="
  M 48.28 75.35
  L 48.31 90.83"
/>
<path stroke="#80b8d1" vector-effect="non-scaling-stroke" d="
  M 48.31 90.83
  L 48.18 98.15
  A 0.60 0.59 0.5 0 1 47.58 98.73
  L 34.04 98.73
  A 0.54 0.54 0.0 0 1 33.50 98.20
  L 33.41 92.20"
/>
<path stroke="#81bfdc" vector-effect="non-scaling-stroke" d="
  M 33.41 92.20
  L 33.39 71.21"
/>
<path stroke="#0277ad" vector-effect="non-scaling-stroke" d="
  M 33.41 92.20
  L 0.00 91.99"
/>
<path stroke="#0277ad" vector-effect="non-scaling-stroke" d="
  M 59.84 85.09
  C 55.06 85.50 50.73 86.49 48.31 90.83"
/>
<path stroke="#0277ad" vector-effect="non-scaling-stroke" d="
  M 137.51 93.78
  C 126.10 92.77 114.83 92.60 104.32 97.09"
/>
<path stroke="#016b9b" vector-effect="non-scaling-stroke" d="
  M 137.50 117.70
  C 103.07 117.22 68.64 117.50 34.20 117.35
  Q 22.80 117.30 0.00 118.01"
/>
</g>
<path fill="#02a6ef" d="
  M 104.29 0.45
  Q 104.71 0.26 105.21 0.46
  Q 110.56 0.39 115.91 0.44
  Q 122.97 0.51 126.38 1.98
  Q 133.10 4.87 136.37 12.39
  L 0.89 13.39
  Q 3.95 4.96 11.39 1.88
  Q 14.78 0.47 21.82 0.45
  Q 63.05 0.36 104.29 0.45
  Z"
/>
<path fill="#016593" d="
  M 105.21 0.46
  Q 104.71 0.26 104.29 0.45
  L 105.21 0.46
  Z"
/>
<path fill="#029be0" d="
  M 136.37 12.39
  Q 137.50 15.48 137.51 18.00
  Q 137.53 33.37 137.52 48.68
  C 125.55 48.67 114.57 47.91 104.29 40.94
  L 104.16 40.08
  A 0.34 0.34 0.0 0 0 103.70 39.82
  L 87.41 46.76
  A 0.86 0.85 -11.4 0 0 86.88 47.55
  L 86.85 51.74
  L 75.39 51.36
  L 65.37 54.00
  L 0.00 52.62
  L 0.00 17.47
  L 0.89 13.39
  L 136.37 12.39
  Z"
/>
<path fill="#ffffff" d="
  M 104.29 40.94
  L 104.31 87.87
  L 104.32 97.09
  L 104.24 98.15
  A 0.63 0.63 0.0 0 1 103.61 98.73
  L 87.42 98.73
  A 0.56 0.56 0.0 0 1 86.86 98.17
  L 86.86 86.47
  L 86.85 51.74
  L 86.88 47.55
  A 0.86 0.85 -11.4 0 1 87.41 46.76
  L 103.70 39.82
  A 0.34 0.34 0.0 0 1 104.16 40.08
  L 104.29 40.94
  Z"
/>
<path fill="#0287c4" d="
  M 137.52 48.68
  L 137.51 81.75
  C 125.68 80.75 114.42 80.50 104.31 87.87
  L 104.29 40.94
  C 114.57 47.91 125.55 48.67 137.52 48.68
  Z"
/>
<path fill="#ffffff" d="
  M 75.39 51.36
  L 75.44 87.98
  L 75.37 98.16
  A 0.59 0.59 0.0 0 1 74.78 98.75
  L 60.44 98.75
  A 0.58 0.57 90.0 0 1 59.87 98.17
  L 59.84 85.09
  L 59.77 75.00
  L 59.85 56.60
  A 0.74 0.74 0.0 0 1 60.33 55.91
  L 65.37 54.00
  L 75.39 51.36
  Z"
/>
<path fill="#0287c4" d="
  M 86.85 51.74
  L 86.86 86.47
  L 75.44 87.98
  L 75.39 51.36
  L 86.85 51.74
  Z"
/>
<path fill="#0287c4" d="
  M 65.37 54.00
  L 60.33 55.91
  A 0.74 0.74 0.0 0 0 59.85 56.60
  L 59.77 75.00
  Q 53.97 73.62 48.28 75.35
  L 48.28 59.58
  A 0.40 0.40 0.0 0 0 47.80 59.19
  L 33.99 62.04
  A 0.68 0.68 0.0 0 0 33.44 62.71
  L 33.39 71.21
  L 0.00 72.00
  L 0.00 52.62
  L 65.37 54.00
  Z"
/>
<path fill="#ffffff" d="
  M 48.28 75.35
  L 48.31 90.83
  L 48.18 98.15
  A 0.60 0.59 0.5 0 1 47.58 98.73
  L 34.04 98.73
  A 0.54 0.54 0.0 0 1 33.50 98.20
  L 33.41 92.20
  L 33.39 71.21
  L 33.44 62.71
  A 0.68 0.68 0.0 0 1 33.99 62.04
  L 47.80 59.19
  A 0.40 0.40 0.0 0 1 48.28 59.58
  L 48.28 75.35
  Z"
/>
<path fill="#027eb8" d="
  M 33.39 71.21
  L 33.41 92.20
  L 0.00 91.99
  L 0.00 72.00
  L 33.39 71.21
  Z"
/>
<path fill="#027eb8" d="
  M 59.77 75.00
  L 59.84 85.09
  C 55.06 85.50 50.73 86.49 48.31 90.83
  L 48.28 75.35
  Q 53.97 73.62 59.77 75.00
  Z"
/>
<path fill="#027eb8" d="
  M 137.51 81.75
  L 137.51 93.78
  C 126.10 92.77 114.83 92.60 104.32 97.09
  L 104.31 87.87
  C 114.42 80.50 125.68 80.75 137.51 81.75
  Z"
/>
<path fill="#0170a2" d="
  M 59.84 85.09
  L 59.87 98.17
  A 0.58 0.57 90.0 0 0 60.44 98.75
  L 74.78 98.75
  A 0.59 0.59 0.0 0 0 75.37 98.16
  L 75.44 87.98
  L 86.86 86.47
  L 86.86 98.17
  A 0.56 0.56 0.0 0 0 87.42 98.73
  L 103.61 98.73
  A 0.63 0.63 0.0 0 0 104.24 98.15
  L 104.32 97.09
  C 114.83 92.60 126.10 92.77 137.51 93.78
  L 137.50 117.70
  C 103.07 117.22 68.64 117.50 34.20 117.35
  Q 22.80 117.30 0.00 118.01
  L 0.00 91.99
  L 33.41 92.20
  L 33.50 98.20
  A 0.54 0.54 0.0 0 0 34.04 98.73
  L 47.58 98.73
  A 0.60 0.59 0.5 0 0 48.18 98.15
  L 48.31 90.83
  C 50.73 86.49 55.06 85.50 59.84 85.09
  Z"
/>
<path fill="#016593" d="
  M 137.50 117.70
  C 138.21 128.30 130.95 136.52 120.46 138.00
  L 119.29 138.00
  L 19.59 138.00
  L 17.57 138.00
  Q 3.07 136.16 0.00 121.49
  L 0.00 118.01
  Q 22.80 117.30 34.20 117.35
  C 68.64 117.50 103.07 117.22 137.50 117.70
  Z"
/>
</svg>
