<?xml version="1.0" encoding="UTF-8" standalone="no"?>
<!DOCTYPE svg PUBLIC "-//W3C//DTD SVG 1.1//EN" "http://www.w3.org/Graphics/SVG/1.1/DTD/svg11.dtd">
<svg xmlns="http://www.w3.org/2000/svg" version="1.1" viewBox="0.00 0.00 400.00 400.00">
<g stroke-width="2.00" fill="none" stroke-linecap="butt">
<path stroke="#8cc3fd" vector-effect="non-scaling-stroke" d="
  M 199.89 266.31
  Q 220.01 290.14 239.80 313.69
  Q 241.86 316.14 243.86 318.14
  C 246.26 320.53 250.54 320.05 254.00 320.03
  Q 276.93 319.93 344.74 320.03
  C 349.64 320.04 354.25 315.36 350.39 310.85
  Q 303.20 255.61 256.68 201.10
  A 1.02 1.02 0.0 0 1 256.68 199.78
  Q 303.47 145.00 350.46 89.99
  Q 352.60 87.48 351.11 84.25
  C 349.85 81.52 346.88 80.83 344.00 80.85
  Q 330.92 80.94 249.45 80.88
  C 244.92 80.88 243.24 83.15 240.58 86.32
  Q 220.28 110.44 199.89 134.58"
/>
<path stroke="#808fa0" vector-effect="non-scaling-stroke" d="
  M 199.89 134.58
  Q 178.12 109.02 156.82 83.70
  Q 154.46 80.89 151.24 80.89
  Q 70.50 80.89 55.75 80.90
  C 50.24 80.91 47.04 86.04 50.92 90.58
  Q 105.57 154.57 144.06 199.66
  A 1.21 1.21 0.0 0 1 144.06 201.22
  Q 96.83 256.57 50.66 310.65
  Q 47.42 314.45 50.95 318.06
  Q 52.87 320.03 54.78 320.02
  Q 70.55 319.96 150.52 320.03
  Q 154.19 320.03 156.65 317.15
  Q 178.11 291.89 199.89 266.31"
/>
<path stroke="#0c539e" vector-effect="non-scaling-stroke" d="
  M 199.89 134.58
  L 255.79 200.15
  A 0.50 0.50 0.0 0 1 255.79 200.79
  L 199.89 266.31"
/>
</g>
<path fill="#ffffff" d="
  M 400.00 0.00
  L 400.00 400.00
  L 0.00 400.00
  L 0.00 0.00
  L 400.00 0.00
  Z
  M 199.89 266.31
  Q 220.01 290.14 239.80 313.69
  Q 241.86 316.14 243.86 318.14
  C 246.26 320.53 250.54 320.05 254.00 320.03
  Q 276.93 319.93 344.74 320.03
  C 349.64 320.04 354.25 315.36 350.39 310.85
  Q 303.20 255.61 256.68 201.10
  A 1.02 1.02 0.0 0 1 256.68 199.78
  Q 303.47 145.00 350.46 89.99
  Q 352.60 87.48 351.11 84.25
  C 349.85 81.52 346.88 80.83 344.00 80.85
  Q 330.92 80.94 249.45 80.88
  C 244.92 80.88 243.24 83.15 240.58 86.32
  Q 220.28 110.44 199.89 134.58
  Q 178.12 109.02 156.82 83.70
  Q 154.46 80.89 151.24 80.89
  Q 70.50 80.89 55.75 80.90
  C 50.24 80.91 47.04 86.04 50.92 90.58
  Q 105.57 154.57 144.06 199.66
  A 1.21 1.21 0.0 0 1 144.06 201.22
  Q 96.83 256.57 50.66 310.65
  Q 47.42 314.45 50.95 318.06
  Q 52.87 320.03 54.78 320.02
  Q 70.55 319.96 150.52 320.03
  Q 154.19 320.03 156.65 317.15
  Q 178.11 291.89 199.89 266.31
  Z"
/>
<path fill="#001e40" d="
  M 199.89 134.58
  L 255.79 200.15
  A 0.50 0.50 0.0 0 1 255.79 200.79
  L 199.89 266.31
  Q 178.11 291.89 156.65 317.15
  Q 154.19 320.03 150.52 320.03
  Q 70.55 319.96 54.78 320.02
  Q 52.87 320.03 50.95 318.06
  Q 47.42 314.45 50.66 310.65
  Q 96.83 256.57 144.06 201.22
  A 1.21 1.21 0.0 0 0 144.06 199.66
  Q 105.57 154.57 50.92 90.58
  C 47.04 86.04 50.24 80.91 55.75 80.90
  Q 70.50 80.89 151.24 80.89
  Q 154.46 80.89 156.82 83.70
  Q 178.12 109.02 199.89 134.58
  Z"
/>
<path fill="#1887fb" d="
  M 199.89 266.31
  L 255.79 200.79
  A 0.50 0.50 0.0 0 0 255.79 200.15
  L 199.89 134.58
  Q 220.28 110.44 240.58 86.32
  C 243.24 83.15 244.92 80.88 249.45 80.88
  Q 330.92 80.94 344.00 80.85
  C 346.88 80.83 349.85 81.52 351.11 84.25
  Q 352.60 87.48 350.46 89.99
  Q 303.47 145.00 256.68 199.78
  A 1.02 1.02 0.0 0 0 256.68 201.10
  Q 303.20 255.61 350.39 310.85
  C 354.25 315.36 349.64 320.04 344.74 320.03
  Q 276.93 319.93 254.00 320.03
  C 250.54 320.05 246.26 320.53 243.86 318.14
  Q 241.86 316.14 239.80 313.69
  Q 220.01 290.14 199.89 266.31
  Z"
/>
</svg>
