<?xml version="1.0" encoding="UTF-8" standalone="no"?>
<!DOCTYPE svg PUBLIC "-//W3C//DTD SVG 1.1//EN" "http://www.w3.org/Graphics/SVG/1.1/DTD/svg11.dtd">
<svg xmlns="http://www.w3.org/2000/svg" version="1.1" viewBox="0.00 0.00 300.00 300.00">
<g stroke-width="2.00" fill="none" stroke-linecap="butt">
<path stroke="#a382ab" vector-effect="non-scaling-stroke" d="
  M 150.32 261.41
  Q 153.69 261.41 156.81 259.09
  Q 203.56 224.32 204.54 223.62
  A 0.73 0.72 -43.8 0 1 205.40 223.63
  Q 210.67 227.61 253.44 259.34
  C 258.51 263.10 265.74 261.50 268.58 255.97
  Q 269.67 253.83 269.66 247.86
  Q 269.60 146.61 269.68 89.25
  Q 269.68 83.64 265.48 80.51
  Q 237.82 59.92 210.72 39.83
  Q 207.33 37.32 203.21 38.13
  Q 200.69 38.62 196.32 41.89
  Q 166.92 63.86 150.54 75.91
  A 0.20 0.04 2.6 0 1 150.40 75.93
  Q 150.36 75.93 150.33 75.93
  Q 150.29 75.93 150.26 75.93
  A 0.20 0.04 -2.6 0 1 150.11 75.91
  Q 133.73 63.86 104.34 41.88
  Q 99.97 38.61 97.45 38.12
  Q 93.33 37.31 89.94 39.82
  Q 62.83 59.91 35.17 80.50
  Q 30.97 83.63 30.97 89.24
  Q 31.04 146.60 30.97 247.85
  Q 30.96 253.82 32.05 255.96
  C 34.89 261.49 42.12 263.09 47.19 259.33
  Q 89.97 227.60 95.24 223.62
  A 0.73 0.72 43.8 0 1 96.10 223.61
  Q 97.08 224.31 143.83 259.09
  Q 146.94 261.41 150.32 261.41"
/>
<path stroke="#a382ab" vector-effect="non-scaling-stroke" d="
  M 160.53 93.55
  A 0.35 0.35 0.0 0 0 160.39 93.83
  L 160.39 230.74
  A 0.35 0.35 0.0 0 0 160.95 231.02
  L 200.61 201.51
  A 0.35 0.35 0.0 0 0 200.75 201.23
  L 200.75 64.32
  A 0.35 0.35 0.0 0 0 200.19 64.04
  L 160.53 93.55"
/>
<path stroke="#a382ab" vector-effect="non-scaling-stroke" d="
  M 51.24 93.53
  A 0.31 0.31 0.0 0 0 51.12 93.78
  L 51.12 230.78
  A 0.31 0.31 0.0 0 0 51.62 231.03
  L 89.79 202.64
  A 0.31 0.31 0.0 0 0 89.91 202.39
  L 89.91 65.39
  A 0.31 0.31 0.0 0 0 89.41 65.14
  L 51.24 93.53"
/>
<path stroke="#a382ab" vector-effect="non-scaling-stroke" d="
  M 139.75 231.02
  A 0.30 0.30 0.0 0 0 140.23 230.78
  L 140.23 93.77
  A 0.30 0.30 0.0 0 0 140.11 93.53
  L 102.47 65.56
  A 0.30 0.30 0.0 0 0 101.99 65.80
  L 101.99 202.81
  A 0.30 0.30 0.0 0 0 102.11 203.05
  L 139.75 231.02"
/>
<path stroke="#a382ab" vector-effect="non-scaling-stroke" d="
  M 248.93 230.96
  A 0.34 0.34 0.0 0 0 249.47 230.68
  L 249.47 93.77
  A 0.34 0.34 0.0 0 0 249.33 93.50
  L 213.30 66.72
  A 0.34 0.34 0.0 0 0 212.76 67.00
  L 212.76 203.90
  A 0.34 0.34 0.0 0 0 212.90 204.17
  L 248.93 230.96"
/>
</g>
<path fill="#ffffff" d="
  M 300.00 0.00
  L 300.00 300.00
  L 0.00 300.00
  L 0.00 0.00
  L 300.00 0.00
  Z
  M 150.32 261.41
  Q 153.69 261.41 156.81 259.09
  Q 203.56 224.32 204.54 223.62
  A 0.73 0.72 -43.8 0 1 205.40 223.63
  Q 210.67 227.61 253.44 259.34
  C 258.51 263.10 265.74 261.50 268.58 255.97
  Q 269.67 253.83 269.66 247.86
  Q 269.60 146.61 269.68 89.25
  Q 269.68 83.64 265.48 80.51
  Q 237.82 59.92 210.72 39.83
  Q 207.33 37.32 203.21 38.13
  Q 200.69 38.62 196.32 41.89
  Q 166.92 63.86 150.54 75.91
  A 0.20 0.04 2.6 0 1 150.40 75.93
  Q 150.36 75.93 150.33 75.93
  Q 150.29 75.93 150.26 75.93
  A 0.20 0.04 -2.6 0 1 150.11 75.91
  Q 133.73 63.86 104.34 41.88
  Q 99.97 38.61 97.45 38.12
  Q 93.33 37.31 89.94 39.82
  Q 62.83 59.91 35.17 80.50
  Q 30.97 83.63 30.97 89.24
  Q 31.04 146.60 30.97 247.85
  Q 30.96 253.82 32.05 255.96
  C 34.89 261.49 42.12 263.09 47.19 259.33
  Q 89.97 227.60 95.24 223.62
  A 0.73 0.72 43.8 0 1 96.10 223.61
  Q 97.08 224.31 143.83 259.09
  Q 146.94 261.41 150.32 261.41
  Z"
/>
<path fill="#460456" d="
  M 150.33 75.93
  Q 150.36 75.93 150.40 75.93
  A 0.20 0.04 2.6 0 0 150.54 75.91
  Q 166.92 63.86 196.32 41.89
  Q 200.69 38.62 203.21 38.13
  Q 207.33 37.32 210.72 39.83
  Q 237.82 59.92 265.48 80.51
  Q 269.68 83.64 269.68 89.25
  Q 269.60 146.61 269.66 247.86
  Q 269.67 253.83 268.58 255.97
  C 265.74 261.50 258.51 263.10 253.44 259.34
  Q 210.67 227.61 205.40 223.63
  A 0.73 0.72 -43.8 0 0 204.54 223.62
  Q 203.56 224.32 156.81 259.09
  Q 153.69 261.41 150.32 261.41
  Q 146.94 261.41 143.83 259.09
  Q 97.08 224.31 96.10 223.61
  A 0.73 0.72 43.8 0 0 95.24 223.62
  Q 89.97 227.60 47.19 259.33
  C 42.12 263.09 34.89 261.49 32.05 255.96
  Q 30.96 253.82 30.97 247.85
  Q 31.04 146.60 30.97 89.24
  Q 30.97 83.63 35.17 80.50
  Q 62.83 59.91 89.94 39.82
  Q 93.33 37.31 97.45 38.12
  Q 99.97 38.61 104.34 41.88
  Q 133.73 63.86 150.11 75.91
  A 0.20 0.04 -2.6 0 0 150.26 75.93
  Q 150.29 75.93 150.33 75.93
  Z
  M 160.53 93.55
  A 0.35 0.35 0.0 0 0 160.39 93.83
  L 160.39 230.74
  A 0.35 0.35 0.0 0 0 160.95 231.02
  L 200.61 201.51
  A 0.35 0.35 0.0 0 0 200.75 201.23
  L 200.75 64.32
  A 0.35 0.35 0.0 0 0 200.19 64.04
  L 160.53 93.55
  Z
  M 51.24 93.53
  A 0.31 0.31 0.0 0 0 51.12 93.78
  L 51.12 230.78
  A 0.31 0.31 0.0 0 0 51.62 231.03
  L 89.79 202.64
  A 0.31 0.31 0.0 0 0 89.91 202.39
  L 89.91 65.39
  A 0.31 0.31 0.0 0 0 89.41 65.14
  L 51.24 93.53
  Z
  M 139.75 231.02
  A 0.30 0.30 0.0 0 0 140.23 230.78
  L 140.23 93.77
  A 0.30 0.30 0.0 0 0 140.11 93.53
  L 102.47 65.56
  A 0.30 0.30 0.0 0 0 101.99 65.80
  L 101.99 202.81
  A 0.30 0.30 0.0 0 0 102.11 203.05
  L 139.75 231.02
  Z
  M 248.93 230.96
  A 0.34 0.34 0.0 0 0 249.47 230.68
  L 249.47 93.77
  A 0.34 0.34 0.0 0 0 249.33 93.50
  L 213.30 66.72
  A 0.34 0.34 0.0 0 0 212.76 67.00
  L 212.76 203.90
  A 0.34 0.34 0.0 0 0 212.90 204.17
  L 248.93 230.96
  Z"
/>
<path fill="#ffffff" d="
  M 160.53 93.55
  L 200.19 64.04
  A 0.35 0.35 0.0 0 1 200.75 64.32
  L 200.75 201.23
  A 0.35 0.35 0.0 0 1 200.61 201.51
  L 160.95 231.02
  A 0.35 0.35 0.0 0 1 160.39 230.74
  L 160.39 93.83
  A 0.35 0.35 0.0 0 1 160.53 93.55
  Z"
/>
<path fill="#ffffff" d="
  M 51.24 93.53
  L 89.41 65.14
  A 0.31 0.31 0.0 0 1 89.91 65.39
  L 89.91 202.39
  A 0.31 0.31 0.0 0 1 89.79 202.64
  L 51.62 231.03
  A 0.31 0.31 0.0 0 1 51.12 230.78
  L 51.12 93.78
  A 0.31 0.31 0.0 0 1 51.24 93.53
  Z"
/>
<path fill="#ffffff" d="
  M 139.75 231.02
  L 102.11 203.05
  A 0.30 0.30 0.0 0 1 101.99 202.81
  L 101.99 65.80
  A 0.30 0.30 0.0 0 1 102.47 65.56
  L 140.11 93.53
  A 0.30 0.30 0.0 0 1 140.23 93.77
  L 140.23 230.78
  A 0.30 0.30 0.0 0 1 139.75 231.02
  Z"
/>
<path fill="#ffffff" d="
  M 248.93 230.96
  L 212.90 204.17
  A 0.34 0.34 0.0 0 1 212.76 203.90
  L 212.76 67.00
  A 0.34 0.34 0.0 0 1 213.30 66.72
  L 249.33 93.50
  A 0.34 0.34 0.0 0 1 249.47 93.77
  L 249.47 230.68
  A 0.34 0.34 0.0 0 1 248.93 230.96
  Z"
/>
</svg>
