<?xml version="1.0" encoding="utf-8"?>
<!-- Generator: Adobe Illustrator 24.0.2, SVG Export Plug-In . SVG Version: 6.00 Build 0)  -->
<svg version="1.1" id="Layer_1" xmlns="http://www.w3.org/2000/svg" xmlns:xlink="http://www.w3.org/1999/xlink" x="0px" y="0px"
	 viewBox="-2457.7 882.5 376.7 65" style="enable-background:new -2457.7 882.5 376.7 65;" xml:space="preserve">
<style type="text/css">
	.st0{enable-background:new    ;}
	.st1{fill:#000000;}
</style>
<title>black</title>
<g class="st0">
	<path class="st1" d="M-2354.8,931.9v-19.1c0-1.5-0.6-2.2-2.2-2.2c-1.7,0-4.7,1-7.1,2.3v19h-6.8v-27.3h5.2l0.7,2.3
		c3.4-1.7,7.7-2.9,10.9-2.9c2.6,0,4.3,1.1,5.2,2.9c3.3-1.7,7.7-2.9,11-2.9c4.5,0,6.2,3.2,6.2,8.1v19.8h-6.8v-19.1
		c0-1.5-0.6-2.2-2.2-2.2c-1.7,0-5,1.1-7.1,2.3v19H-2354.8z"/>
	<path class="st1" d="M-2304,931.9h-5.6l-0.5-1.9c-2.5,1.6-5.4,2.4-8.1,2.4c-5,0-7.1-3.4-7.1-8.1c0-5.6,2.4-7.7,8-7.7h6.6v-2.9
		c0-3-0.8-4.1-5.2-4.1c-2.5,0-5.2,0.3-7.6,0.8l-0.8-5.2c2.6-0.8,6.3-1.3,9.4-1.3c8.6,0,11.1,3,11.1,9.9V931.9z M-2310.9,921.6h-5
		c-2.2,0-2.9,0.6-2.9,2.7c0,1.9,0.6,2.7,2.7,2.7c2,0,3.9-0.7,5.2-1.4V921.6z"/>
	<path class="st1" d="M-2282.7,910.4c-2.6,1.2-4.8,2.4-7.2,4v17.6h-6.8v-27.3h5.8l0.4,3c1.5-1,4.8-2.9,7.2-3.6L-2282.7,910.4z"/>
	<path class="st1" d="M-2278.1,931.9v-38.5l6.8-1v39.4H-2278.1z M-2254.8,904.6l-8,13.5l8.4,13.8h-7.5l-8.2-13.8l7.8-13.5H-2254.8z"
		/>
	<path class="st1" d="M-2239.2,926.9c2.6,0,5.4-0.4,8.4-1.3l1.1,5.2c-3.1,1.2-6.8,1.7-10,1.7c-8.6,0-11.6-4-11.6-10.5v-7.2
		c0-5.8,2.6-10.7,11.3-10.7c8.8,0,10.7,5.1,10.7,11v5.8h-15.2v1.4C-2244.5,925.6-2243.3,926.9-2239.2,926.9z M-2244.5,915.4h8.7
		v-1.3c0-2.6-0.8-4.4-4.2-4.4c-3.4,0-4.5,1.8-4.5,4.4V915.4z"/>
	<path class="st1" d="M-2208.6,931.4c-1.5,0.6-4.3,1.1-6,1.1c-5,0-7.5-2.4-7.5-7.2v-15.2h-4.1v-5.4h4.1v-6.8l6.8-1v7.7h7l-0.4,5.4
		h-6.6v14.3c0,1.5,0.7,2.4,2.5,2.4c1,0,2.2-0.2,3.4-0.6L-2208.6,931.4z"/>
	<path class="st1" d="M-2194.8,932.5c-2.9,0-6.9-0.7-9.4-1.6l1-5.2c2.3,0.7,5.3,1.2,8.1,1.2c3,0,3.5-0.7,3.5-2.7
		c0-1.7-0.3-2.5-4.8-3.6c-6.7-1.6-7.5-3.3-7.5-8.6c0-5.5,2.4-7.9,10.2-7.9c2.5,0,5.8,0.3,8.2,1l-0.7,5.4c-2.1-0.4-5.4-0.8-7.5-0.8
		c-3,0-3.5,0.7-3.5,2.4c0,2.2,0.2,2.4,3.9,3.3c7.6,2,8.4,3,8.4,8.6C-2184.9,929.3-2186.5,932.5-2194.8,932.5z"/>
	<path class="st1" d="M-2163.6,931.4c-1.5,0.6-4.3,1.1-6,1.1c-5,0-7.5-2.4-7.5-7.2v-15.2h-4.1v-5.4h4.1v-6.8l6.8-1v7.7h7l-0.4,5.4
		h-6.6v14.3c0,1.5,0.7,2.4,2.5,2.4c1,0,2.2-0.2,3.4-0.6L-2163.6,931.4z"/>
	<path class="st1" d="M-2138,931.9h-5.6l-0.5-1.9c-2.5,1.6-5.4,2.4-8.1,2.4c-5,0-7.1-3.4-7.1-8.1c0-5.6,2.4-7.7,8-7.7h6.6v-2.9
		c0-3-0.8-4.1-5.2-4.1c-2.5,0-5.2,0.3-7.6,0.8l-0.8-5.2c2.6-0.8,6.3-1.3,9.4-1.3c8.6,0,11.1,3,11.1,9.9V931.9z M-2144.9,921.6h-5
		c-2.2,0-2.9,0.6-2.9,2.7c0,1.9,0.6,2.7,2.7,2.7c2,0,3.9-0.7,5.2-1.4V921.6z"/>
	<path class="st1" d="M-2132,922v-7.5c0-7.3,3.2-10.5,11.8-10.5c1.9,0,4.7,0.3,6.7,1l-0.8,5.6c-1.9-0.5-4.3-0.7-5.7-0.7
		c-3.9,0-5.1,1.2-5.1,4.5v7.6c0,3.4,1.2,4.5,5.1,4.5c1.7,0,3.7-0.2,5.7-0.7l0.8,5.6c-1.8,0.6-4.4,1-6.7,1
		C-2128.8,932.5-2132,929.4-2132,922z"/>
	<path class="st1" d="M-2107.2,931.9v-38.5l6.8-1v39.4H-2107.2z M-2084,904.6l-8,13.5l8.4,13.8h-7.5l-8.2-13.8l7.8-13.5H-2084z"/>
</g>
<path class="st1" d="M-2395,945.9c0-0.4,0.1-0.7,0.1-0.9c0-1.7,0-3.5,0-5.2c0-18.4,0-36.9,0-55.3c0-1,0-1-1-1c-7.4,0-14.8,0-22.2,0
	c-0.7,0-0.9,0.2-0.9,0.9c0,3.5,0,6.9,0,10.4c0,0.7,0.3,0.9,0.9,0.9c3.4,0,6.8,0,10.1,0c1,0,1,0,1,1c0,6.8,0,13.6,0,20.4
	c0,7.6,0,15.1,0,22.7c0,0.5,0,0.9,0.6,1.2c3,1.3,6,2.7,8.9,4C-2396.7,945.2-2395.9,945.5-2395,945.9z M-2412.9,923.6
	C-2412.9,923.6-2412.9,923.6-2412.9,923.6c0-7.1,0-14.2,0-21.3c0-0.9,0-0.9-0.9-0.9c-7.5,0-14.9,0-22.4,0c-0.7,0-0.9,0.2-0.9,0.9
	c0,3.5,0,6.9,0,10.4c0,0.7,0.3,0.9,0.9,0.9c3.3,0,6.6,0,9.9,0c1.3,0,1.3-0.2,1.3,1.3c0,8.3,0,16.5,0,24.8c0,0.7,0.2,1.1,0.9,1.3
	c1.5,0.6,2.9,1.3,4.4,2c2.1,0.9,4.1,1.8,6.2,2.8c0.5,0.2,0.7,0.1,0.7-0.4c0-0.2,0-0.4,0-0.6
	C-2412.9,937.6-2412.9,930.6-2412.9,923.6z M-2430.9,932.7C-2430.9,932.7-2430.9,932.7-2430.9,932.7c0-4.1,0-8.3,0-12.4
	c0-0.6-0.2-0.9-0.9-0.9c-7.4,0-14.9,0-22.3,0c-0.9,0-0.9,0-0.9,0.9c0,5.4,0,10.9,0,16.3c0,0.7,0.2,1,0.8,1.2
	c2.2,0.7,4.3,1.5,6.5,2.3c5.3,1.8,10.6,3.7,15.9,5.5c0.9,0.3,0.9,0.3,0.9-0.7C-2430.9,940.9-2430.9,936.8-2430.9,932.7z"/>
</svg>
