<svg id="Layer_1" data-name="Layer 1" xmlns="http://www.w3.org/2000/svg" viewBox="0 0 68.71 22.98"><defs><style>.cls-1{fill:#3d5afe;}</style></defs><title>melo-blue</title><path class="cls-1" d="M45.2,20.68H33.54A4,4,0,0,0,37.72,24a3.78,3.78,0,0,0,3.1-1.34h4a7.61,7.61,0,0,1-7.25,4.95,8,8,0,0,1-8.1-7.9c0-.13,0-.25,0-.38a7.77,7.77,0,0,1,7.55-8h.45C41.56,11.31,45.72,14.15,45.2,20.68ZM33.79,17.45H41a3.23,3.23,0,0,0-3.38-2.66A4,4,0,0,0,33.79,17.45Z" transform="translate(-3.18 -4.76)"/><path class="cls-1" d="M52.46,4.76V27.45H48.3V4.76Z" transform="translate(-3.18 -4.76)"/><path class="cls-1" d="M55.56,19.49a8,8,0,0,1,7.81-8.18h.44a7.86,7.86,0,0,1,8.08,7.63v.49a8,8,0,0,1-7.82,8.18h-.39A7.87,7.87,0,0,1,55.56,20,4.34,4.34,0,0,1,55.56,19.49Zm12.15,0c0-2.49-1.47-4.49-3.9-4.49a4.11,4.11,0,0,0-4.07,4.17,2.44,2.44,0,0,0,0,.27c0,2.5,1.63,4.44,4.06,4.44s3.9-1.88,3.9-4.42Z" transform="translate(-3.18 -4.76)"/><path class="cls-1" d="M8.14,27.48l-1.88-.1a6.85,6.85,0,0,0-1.94.18l-.12.1a.37.37,0,0,1-.14.08.58.58,0,0,0-.23-.18.35.35,0,0,1-.19-.17.2.2,0,0,1,.14-.18.17.17,0,0,1,0-.18l.07-.15a7.82,7.82,0,0,0-.06-1.54,5.09,5.09,0,0,1,0-1.51c0-.06,0-.08-.07-.07a.06.06,0,0,1-.08,0A1.24,1.24,0,0,0,3.79,23c0-.26,0-.52,0-.77h-.1a.3.3,0,0,1-.14,0,.46.46,0,0,1,.07-.4c.09-.11.17-.23.25-.35a.1.1,0,0,0-.05-.08s0-.06,0-.12a.5.5,0,0,0,.11-.18,3.15,3.15,0,0,1,0-.73,1.49,1.49,0,0,0,0-.66,1,1,0,0,0,.07-.45c0-.17,0-.36,0-.56,0,0-.07,0-.1,0s-.07,0-.1,0a.12.12,0,0,1,0-.16.24.24,0,0,0,.1-.16,1.42,1.42,0,0,0,0-.58,3.23,3.23,0,0,1-.06-.61,6.33,6.33,0,0,1,0-.87,2.12,2.12,0,0,0-.11-.75.16.16,0,0,0-.09,0,.12.12,0,0,1-.15,0,.48.48,0,0,1,.11-.42.35.35,0,0,0-.15,0,.09.09,0,0,1-.11,0,.59.59,0,0,1,.16-.28.55.55,0,0,0,.12-.32s-.09,0-.16,0-.12,0-.16,0a.26.26,0,0,1,.11-.25A.52.52,0,0,0,3.47,14a.4.4,0,0,0,0-.24.27.27,0,0,1,0-.23.31.31,0,0,0-.1-.08.2.2,0,0,1-.11-.07.84.84,0,0,0,.2-.61,4.28,4.28,0,0,1,0-.72.65.65,0,0,1,.5-.13,2,2,0,0,0,.65,0,1.83,1.83,0,0,1,.34,0,1.35,1.35,0,0,0,.4,0l.18-.18q.18.06.21.12a.3.3,0,0,0,.31-.08c.1-.09.19-.12.25-.1s0,0,0,.05a.09.09,0,0,0,0,.09c.22,0,.35,0,.41-.08a.51.51,0,0,1,.3-.19.23.23,0,0,1,0,.26.42.42,0,0,0,.31,0,.55.55,0,0,1,.31,0,1.65,1.65,0,0,1,.08.73,4.7,4.7,0,0,0,0,.75c0,.06,0,.1.1.11s.07.05,0,.13a.41.41,0,0,0,.25-.23,3,3,0,0,1,.16-.31.54.54,0,0,1,.23-.22.59.59,0,0,0,.24-.23A.21.21,0,0,1,9,12.42a.17.17,0,0,0,.12-.11,1.19,1.19,0,0,0,.54-.17,1.63,1.63,0,0,1,.49-.2,1.33,1.33,0,0,1,.46-.24,2.38,2.38,0,0,0,.51-.24,5.88,5.88,0,0,1,1.46-.14,6.43,6.43,0,0,1,1.47.2,5.07,5.07,0,0,1,1.31.53,3.23,3.23,0,0,1,1,.88.46.46,0,0,0,.18.06.54.54,0,0,0,.06.38,1.06,1.06,0,0,1,.15.32A4.5,4.5,0,0,1,17.84,13a2.94,2.94,0,0,0,.44-.35,2.87,2.87,0,0,1,.44-.34.83.83,0,0,0,.43-.22,1.17,1.17,0,0,1,.36-.27c.06,0,.1,0,.11,0a.26.26,0,0,0,.07.1,5.08,5.08,0,0,1,2-.38,8.56,8.56,0,0,1,2.09.21,6.81,6.81,0,0,1,2.28,2.31l.12,0a.09.09,0,0,1,.09,0,.68.68,0,0,0,.16.67,9,9,0,0,0,.17.93q.11.46.18.93a2.13,2.13,0,0,1,0,.27,1,1,0,0,0,0,.24c0,.08,0,.14.06.2a.39.39,0,0,1,0,.18,1.85,1.85,0,0,1,.06.44,3.75,3.75,0,0,0,0,.45c0,.15,0,.31,0,.47s0,.32.05.47a4.42,4.42,0,0,1,0,.64,2.32,2.32,0,0,0,.05.61,2.62,2.62,0,0,1,0,.56,2.33,2.33,0,0,0,0,.59.78.78,0,0,0,0,.22.78.78,0,0,1,0,.22,1.62,1.62,0,0,1,0,.49,1.61,1.61,0,0,0,0,.49,6.79,6.79,0,0,0,0,.78c0,.27,0,.52,0,.76a.35.35,0,0,0,.1.15.86.86,0,0,0-.06.34.32.32,0,0,0,.12.28.18.18,0,0,1,0,.16l-.07.13a1.82,1.82,0,0,0,.05.61,1,1,0,0,1,0,.52c0,.12-.07.19-.14.21a.7.7,0,0,1-.29,0L26.62,27a.54.54,0,0,0-.31,0,.43.43,0,0,1-.14,0A.3.3,0,0,0,26,27l-.62,0a4.32,4.32,0,0,0-.68.07l-.1,0-.11,0a1.38,1.38,0,0,0-.5,0l-.55.05-.53,0a.94.94,0,0,1-.43-.08v-.21a.31.31,0,0,0,.09-.07s.06-.05.14-.05a2.69,2.69,0,0,0,0-.31.7.7,0,0,1,0-.28c0-.69,0-1.42,0-2.18s0-1.47-.06-2.14-.05-1.26-.06-2a8.14,8.14,0,0,0-.23-2,.62.62,0,0,1-.27,0c0-.1,0-.17.05-.19a.6.6,0,0,0,.13-.14,4.76,4.76,0,0,0-.14-.57,2,2,0,0,0-.23-.49.74.74,0,0,1-.16.11.15.15,0,0,1-.17,0,.13.13,0,0,1,.05-.19.31.31,0,0,0,.13-.19c-.06-.1-.12-.2-.18-.28a.51.51,0,0,0-.3-.19.18.18,0,0,1,0-.18,1,1,0,0,0-.58-.26,2,2,0,0,0-.64,0,4.13,4.13,0,0,0-.62.22l-.53.26a1.88,1.88,0,0,0-.67.58,3.79,3.79,0,0,0-.44.85,9.73,9.73,0,0,0-.28,1c-.07.34-.15.69-.22,1a3.22,3.22,0,0,0-.07.62c0,.26,0,.51-.06.74v.74a4.89,4.89,0,0,1,0,.54c0,.17,0,.35,0,.53s0,.27,0,.39,0,.24.05.38,0,.52,0,.78a3.23,3.23,0,0,0,0,.82.39.39,0,0,0,0,.2c0,.06.06.14.1.24a.57.57,0,0,1,0,.22,1.62,1.62,0,0,0,0,.22c0,.32.09.64.13,1a7.56,7.56,0,0,1,.07.93.77.77,0,0,0-.2.07.23.23,0,0,1-.21,0s-.05,0,0-.07,0,0,0,0,0,0-.1,0a.36.36,0,0,0-.2.06.73.73,0,0,0-.46-.11,1,1,0,0,1-.43,0,1.05,1.05,0,0,1-.68.08,1.37,1.37,0,0,0-.76.08,2.08,2.08,0,0,0-.61,0,.69.69,0,0,1-.52-.1c0-.3-.06-.61-.1-.93a5.66,5.66,0,0,1-.07-.84,0,0,0,0,1,0,0h0a8,8,0,0,1,0-1q0-.45.06-.93a.35.35,0,0,0-.06-.24,1.11,1.11,0,0,0,.08-.56,1.37,1.37,0,0,1,.05-.53.1.1,0,0,0-.09-.06s-.05,0,0-.06a.86.86,0,0,0,.13-.52,2.3,2.3,0,0,1,0-.58c0-.06,0-.09,0-.1s-.07,0-.07-.07a.67.67,0,0,0,.13-.29c0-.08,0-.21,0-.36s0-.58,0-.91a4.41,4.41,0,0,0,0-1s0-.05-.06,0-.06,0-.06-.05a1.62,1.62,0,0,0,.09-.35.29.29,0,0,0-.13-.3l.06-.1a.17.17,0,0,0,0-.14.2.2,0,0,0-.13,0c-.07,0-.12,0-.14,0a.14.14,0,0,1,.09-.21.19.19,0,0,0,.12-.24.11.11,0,0,0-.11,0s-.06,0-.1,0,0-.1,0-.12a.22.22,0,0,0,.07-.12,3.93,3.93,0,0,0-.23-.46,4.36,4.36,0,0,0-.28-.45,1.44,1.44,0,0,0-1-.46,4.85,4.85,0,0,0-1.2,0A2,2,0,0,0,9.16,16a8.07,8.07,0,0,0-.8,1,4.66,4.66,0,0,0-.25,1A7.24,7.24,0,0,0,8,19.13c0,.4,0,.79,0,1.17s0,.74,0,1.05a.39.39,0,0,0,.08.1.15.15,0,0,1,0,.11.35.35,0,0,1-.06.09.19.19,0,0,0,0,.09c0,.39,0,.73-.05,1a5,5,0,0,0,0,.93,4.32,4.32,0,0,1,0,.89,5.66,5.66,0,0,0,0,.92,5.14,5.14,0,0,1,0,.71,6.51,6.51,0,0,0,.07.76,1.26,1.26,0,0,1,0,.21.33.33,0,0,1-.08.18h0s0,0,0,0S8.12,27.44,8.14,27.48ZM3.86,12.53s0-.08.05-.11.06-.06,0-.1H3.86a.19.19,0,0,0,0,.09A.12.12,0,0,0,3.86,12.53Zm2.25-.42c-.39.38-.79.76-1.2,1.13a6.31,6.31,0,0,0-1.08,1.27A7.35,7.35,0,0,0,5,13.43a7.42,7.42,0,0,1,1.22-1.08.12.12,0,0,1,.06-.15c.06,0,0-.07,0-.09a.08.08,0,0,0-.08,0ZM3.89,24.16a.6.6,0,0,0,.22-.23.41.41,0,0,1,.22-.19.38.38,0,0,1,.15-.32.3.3,0,0,0,.14-.25.73.73,0,0,1-.23.24.25.25,0,0,1-.33,0,.64.64,0,0,1,.16-.17A.16.16,0,0,0,4.29,23a1.85,1.85,0,0,0-.33.46A1.09,1.09,0,0,0,3.89,24.16Zm1.85-1.77a7.72,7.72,0,0,1-.79,1c-.29.31-.58.61-.88.91l-.1,0s-.05,0-.07.06a.21.21,0,0,1,0,.18,1.62,1.62,0,0,0,0,.21.68.68,0,0,0,.26-.3,1.85,1.85,0,0,1,.21-.33l.1-.1.1-.11.34-.45q.15-.21.33-.42L5.4,23a.47.47,0,0,0,.13-.11.69.69,0,0,0,.11-.13l.1-.14.14-.15A.54.54,0,0,0,6,22.29a.33.33,0,0,0,.12-.23L6,22.25A.43.43,0,0,1,5.74,22.39Zm-1.81-7v.38a3,3,0,0,0,0,.33,1,1,0,0,0,.35-.36q-.15,0-.18-.09l.8-.94a9,9,0,0,1,.86-.89v-.09A.65.65,0,0,0,6,13.58a.3.3,0,0,0,.08-.2l-1,1A13,13,0,0,1,3.93,15.4Zm1.5-3.16c-.26.28-.51.53-.76.76a7.68,7.68,0,0,0-.73.77,3.6,3.6,0,0,0,.47-.39A6,6,0,0,1,4.85,13L5,12.9l.12-.09H5s0,0,.06,0a0,0,0,0,0,.06,0v-.09l.28-.24a1.5,1.5,0,0,0,.21-.24.09.09,0,0,0-.1,0A.17.17,0,0,1,5.43,12.24Zm0,3a8.47,8.47,0,0,0-.63.7,1.58,1.58,0,0,1-.78.53.14.14,0,0,0,0,.15.42.42,0,0,1,0,.18.74.74,0,0,0,.26-.23.39.39,0,0,1,.32-.14l1-1.11,1-1.07v-.06a6.77,6.77,0,0,1-.56.51A7.15,7.15,0,0,0,5.41,15.26ZM4.23,22.67s-.06,0-.07,0,0,0-.08,0,0,0,0-.05,0,0,0,0a.4.4,0,0,0,0,.19A.4.4,0,0,1,4,23a.21.21,0,0,0,.16-.13.37.37,0,0,1,.13-.17c.08,0,.13,0,.16,0a.17.17,0,0,0,.14.06A7,7,0,0,1,5.21,22c.25-.26.46-.51.66-.75-.28.24-.55.48-.84.71A9.23,9.23,0,0,0,4.23,22.67Zm1.52.63a6,6,0,0,0-.54.57l-.54.6a1.41,1.41,0,0,1-.24.2,1.08,1.08,0,0,0-.2.16,1.07,1.07,0,0,0-.09.27.34.34,0,0,1-.17.24s0,.1,0,.19,0,.14.08.14,0-.07,0-.09,0,0,0-.09a.55.55,0,0,0,.1-.17.59.59,0,0,1,.13-.19q.5-.51,1-1.08a14.33,14.33,0,0,1,1-1.08s0,0,0-.06,0,0,0,0a.83.83,0,0,1-.21.24C5.9,23.18,5.83,23.25,5.75,23.3Zm-1-1.94a4.91,4.91,0,0,0-.58.51A.72.72,0,0,0,4,22.5a.37.37,0,0,0,.21-.23A.68.68,0,0,1,4.37,22a.26.26,0,0,1,.1-.07.24.24,0,0,0,.1-.08.7.7,0,0,0,.12-.18l.1-.08a.2.2,0,0,0,.11-.07A1.18,1.18,0,0,0,5,21.33a2,2,0,0,1,.12-.21,1,1,0,0,1,.23-.19.47.47,0,0,0,.18-.23L5.17,21ZM6.9,14.23a2.18,2.18,0,0,0-.58.48c-.18.2-.32.38-.44.54l.25-.13a.22.22,0,0,0,.13-.2.67.67,0,0,1-.14.15,2,2,0,0,1,.2-.25.22.22,0,0,1,.26-.08A13.86,13.86,0,0,0,5.33,16,9.6,9.6,0,0,1,4,17.29a1.94,1.94,0,0,0,0,.74,1.52,1.52,0,0,1,.41-.39s0-.06,0-.06,0,0,0-.06A11.85,11.85,0,0,1,5.58,16l1.21-1.42-.12.08a.16.16,0,0,1-.09,0,1.22,1.22,0,0,1,.3-.27s0,.06,0,.06,0,0,0,.06A.34.34,0,0,1,7,14.41s.07-.08,0-.12,0,.05-.06,0,0,0,0-.06a.1.1,0,0,0-.11.08.11.11,0,0,1-.12.07A1.12,1.12,0,0,1,6.9,14.23ZM4.05,20c0,.06,0,.12,0,.18a.67.67,0,0,0,0,.24,4.72,4.72,0,0,0,1-.92,6.17,6.17,0,0,1,.9-.94,2.58,2.58,0,0,1,.54-.69A2.59,2.59,0,0,0,7,17.28a19.62,19.62,0,0,0-1.49,1.38C5,19.14,4.56,19.6,4.05,20ZM5.75,17l.34-.42a4.32,4.32,0,0,1,.34-.39,3.88,3.88,0,0,0,.26-.31,3.55,3.55,0,0,1,.23-.31l.1-.08c.05,0,.05-.06,0-.1-.39.44-.86.95-1.42,1.54s-1,1.11-1.5,1.57c0,.16,0,.3,0,.43s0,.27,0,.43a.51.51,0,0,0,.23-.17l.18-.22L4.32,19a.14.14,0,0,1-.17-.09,6.51,6.51,0,0,1,.76-1ZM4.09,20.9a.28.28,0,0,0,.1-.09l.1-.12a.11.11,0,0,0-.16,0A.18.18,0,0,0,4.09,20.9Zm.39,5.26-.16.09c-.07,0-.12,0-.16-.08A.54.54,0,0,1,4.32,26a.83.83,0,0,0,.16-.21.46.46,0,0,0-.37.37.87.87,0,0,0,.08.61A9,9,0,0,0,5,25.89,4.37,4.37,0,0,0,5.59,25a2,2,0,0,0-.55.59A2.19,2.19,0,0,1,4.48,26.16ZM5,13.64c-.1.1-.2.2-.32.3s-.22.2-.32.3a1,1,0,0,0-.16.19.3.3,0,0,0-.07.16s0,0,0,0,0,0,0,0a2.32,2.32,0,0,0,.4-.48A1.35,1.35,0,0,1,5,13.75a.58.58,0,0,1,.25-.33.44.44,0,0,0,.22-.26.83.83,0,0,0-.24.21A1.66,1.66,0,0,1,5,13.64ZM6.85,12.1c-.49.42-1,.87-1.44,1.34A8.5,8.5,0,0,0,4.22,15c.51-.4,1-.82,1.46-1.25A13.37,13.37,0,0,0,7,12.31a.12.12,0,0,0,.12-.06s0,0,.08,0l0,0a.05.05,0,0,1,0,0,.91.91,0,0,1-.59.72,6.48,6.48,0,0,1-.54.62c-.18.19-.37.37-.57.55a.68.68,0,0,0-.26.24,2,2,0,0,0-.18.21c0,.08-.1.16-.14.24.41-.42.83-.83,1.27-1.22a14.51,14.51,0,0,0,1.24-1.24,1.09,1.09,0,0,0,0-.18,1.1,1.1,0,0,1,0-.18l-.3,0A.94.94,0,0,1,6.85,12.1Zm.73,8.34a.3.3,0,0,1,0,.39,2.44,2.44,0,0,1-.26.35l-.18.09c-.15.15-.3.3-.44.47s-.28.33-.43.49c-.3.32-.6.64-.92.95a4,4,0,0,0-.78,1,1.6,1.6,0,0,0,.52-.36,1.78,1.78,0,0,1,.45-.36q.27-.33.54-.6t.57-.6a.48.48,0,0,1,.16-.34,2.62,2.62,0,0,0,.28-.29,3.69,3.69,0,0,1,.7-.72,1.14,1.14,0,0,1,0-.37.93.93,0,0,0,0-.34l-.06.12A.61.61,0,0,0,7.58,20.44ZM4.74,25.27a.56.56,0,0,0-.11.17.65.65,0,0,0,0,.19q.64-.69,1.26-1.47h0a4.07,4.07,0,0,1-.54.56A3.11,3.11,0,0,0,4.74,25.27Zm1-8.21a.09.09,0,0,1-.06,0,.09.09,0,0,0-.06,0,5.49,5.49,0,0,0-.44.52c-.13.19-.27.38-.41.56l-.13.13a.19.19,0,0,0,0,.19c.53-.49,1-1,1.58-1.61a.21.21,0,0,0,.19-.09.3.3,0,0,1,.16-.15c0-.05,0-.07,0-.08s0,0,0-.07a5.47,5.47,0,0,1,.7-.66,4,4,0,0,0,.7-.72.1.1,0,0,0,.15,0L8.25,15a1.21,1.21,0,0,1-.68.12C6.94,15.75,6.34,16.4,5.76,17.06Zm.16,8.52a1.75,1.75,0,0,1-.26.29,1.18,1.18,0,0,0-.23.28.25.25,0,0,0-.07.12.28.28,0,0,1-.08.12,1.39,1.39,0,0,1-.38.33.68.68,0,0,0-.29.45.51.51,0,0,0,.21,0,.6.6,0,0,1,.18,0c.17-.24.35-.47.53-.7s.37-.46.54-.7c0,0-.06,0-.06-.08S6,25.56,5.92,25.58Zm-.1-8.08c-.17.2-.35.39-.52.57a6.8,6.8,0,0,0-.5.57l-.07.06s0,.05,0,.09a.53.53,0,0,0,.15-.08L5,18.64s0,.07,0,.1.06.06,0,.1a.67.67,0,0,1-.26.2c-.12.05-.17.13-.15.22a7.43,7.43,0,0,1,1-.84,2.8,2.8,0,0,1,.56-.58c.21-.17.44-.34.67-.5a.73.73,0,0,1,.5-.51A2.13,2.13,0,0,1,8,16.16a5.4,5.4,0,0,0,.69-.59c-.06,0-.09,0-.08,0s0-.08,0-.07l.11-.11a.07.07,0,0,0,0-.1,1.29,1.29,0,0,0-.29.25l-.29.32a1.59,1.59,0,0,1-.33.25.51.51,0,0,1-.41.05,4,4,0,0,0-.57.6,3.23,3.23,0,0,1-.57.6.71.71,0,0,1-.14.1.27.27,0,0,0-.12.17,1.91,1.91,0,0,0-.5.52,1.24,1.24,0,0,1-.52.47c.4-.46.82-.91,1.25-1.36s.83-.92,1.2-1.39a5,5,0,0,0-.85.8C6.36,16.93,6.09,17.22,5.82,17.5ZM4.68,22.84l1.5-1.39a13.61,13.61,0,0,0,1.39-1.54.09.09,0,0,1,.07,0,.11.11,0,0,0,.08,0,.17.17,0,0,0-.06-.12c-.51.46-1,.95-1.58,1.47A9.61,9.61,0,0,0,4.68,22.84Zm0-10.41a.29.29,0,0,0,.18-.18Q4.75,12.25,4.69,12.43Zm2.64,7c0,.1,0,.16-.06.2a.28.28,0,0,1-.27,0,.5.5,0,0,1-.26.15,11.49,11.49,0,0,1-1.07,1,4.94,4.94,0,0,0-1,1.11A.7.7,0,0,0,5,21.76a1.82,1.82,0,0,1,.25-.2.7.7,0,0,0,.16-.14,1.21,1.21,0,0,1,.16-.16c.39-.34.76-.67,1.11-1s.7-.68,1-1v-.29c-.07.08-.15.16-.21.24A.74.74,0,0,0,7.33,19.44Zm-.85-5.62a.77.77,0,0,0-.33.22,3.83,3.83,0,0,1-.28.29l-.22.2-.22.22L5,15.22a1.4,1.4,0,0,0-.29.52,6.51,6.51,0,0,0,.93-.81,4.88,4.88,0,0,1,.92-.78.13.13,0,0,0,0-.12,1.34,1.34,0,0,0,.42-.4.58.58,0,0,1,.43-.29.33.33,0,0,1,0,.3.92.92,0,0,0-.16.29.5.5,0,0,0,.3-.39,1.71,1.71,0,0,0,0-.59,3.11,3.11,0,0,0-.53.41ZM4.91,24.56l0,.13s0,.07,0,.11a2.24,2.24,0,0,0,.55-.46A6.5,6.5,0,0,1,6,23.83a6.87,6.87,0,0,0,.72-.71c.22-.26.44-.5.65-.72q0-.15.3-.21a.34.34,0,0,1-.09.41,1,1,0,0,0-.26.36c.1,0,.14,0,.11.12s0,.14,0,.17.09-.06.21-.06.09.24,0,.3a.3.3,0,0,0-.19.3.2.2,0,0,0,.19-.08c0-.05.1-.06.19-.05a3.75,3.75,0,0,1,0-.87,2,2,0,0,0,0-.9,1.21,1.21,0,0,0-.39.39.72.72,0,0,1-.49.3A.12.12,0,0,1,7,22.43q.09-.06,0-.06a7.08,7.08,0,0,0-1,1.07C5.59,23.83,5.25,24.2,4.91,24.56Zm.28-7.91a.24.24,0,0,0-.09.08A.22.22,0,0,1,5,16.8a.23.23,0,0,1-.07.17.14.14,0,0,0,0,.16c.47-.46.92-.93,1.37-1.41s.92-1,1.41-1.41a.24.24,0,0,0-.08-.09.11.11,0,0,1-.07-.08,8.6,8.6,0,0,0-1.23,1.18C5.9,15.75,5.54,16.19,5.19,16.65Zm-.25,3.47a.41.41,0,0,0,0,.16.11.11,0,0,1,0,.13,3.07,3.07,0,0,0,1-.93,12.19,12.19,0,0,1,.89-1.1.17.17,0,0,1,.12,0,.76.76,0,0,1,.2-.29.45.45,0,0,0,.17-.28L6.12,18.93C5.72,19.32,5.33,19.72,4.94,20.12ZM6.8,24.54A.91.91,0,0,1,7,24.31c.08-.07.11-.12.09-.16a3.93,3.93,0,0,0-.5.26,1.3,1.3,0,0,0-.41.37.24.24,0,0,1-.14.33s-.08-.06-.12,0-.06,0-.06-.05a4.51,4.51,0,0,0-.42.48,2.61,2.61,0,0,0-.34.57A3.68,3.68,0,0,0,6,25.33,5.81,5.81,0,0,1,6.8,24.54Zm.63-6a.47.47,0,0,0-.2.24,1.27,1.27,0,0,0-.38.34,3.09,3.09,0,0,1-.35.38c-.26.22-.52.43-.79.63a1.87,1.87,0,0,0-.62.75,5.31,5.31,0,0,0,.68-.49l.63-.55c.2-.19.41-.38.63-.56a3.22,3.22,0,0,1,.7-.45.79.79,0,0,1,0-.34.66.66,0,0,0,0-.37,1.66,1.66,0,0,1-.19.18A.3.3,0,0,0,7.43,18.52Zm.25-1.4a.13.13,0,0,1-.1,0H7.47q-.5.45-1,.93c-.31.32-.61.65-.91,1a1,1,0,0,0-.46.54,1.44,1.44,0,0,0,.51-.39,1.44,1.44,0,0,1,.51-.39.24.24,0,0,1,0-.15,1.4,1.4,0,0,0,.38-.34c.1-.13.21-.26.32-.38a3.77,3.77,0,0,1,.49-.42,1.41,1.41,0,0,0,.39-.45A.46.46,0,0,0,8,17a.08.08,0,0,1,0-.1s0-.05,0-.05a.2.2,0,0,0-.14.11A.28.28,0,0,1,7.68,17.12ZM6.52,21.34a4,4,0,0,1-.71.78,2.64,2.64,0,0,0-.66.78c.29-.28.58-.57.86-.86a11.57,11.57,0,0,0,.8-.91s.1,0,.17-.12.08-.11,0-.09a.63.63,0,0,0-.23.23A.49.49,0,0,1,6.52,21.34ZM6,24.28a1.12,1.12,0,0,0-.22.19c-.09.09-.12.16-.1.2.21-.24.44-.48.68-.72A5.07,5.07,0,0,0,7,23.23a6.14,6.14,0,0,0-.51.51Q6.2,24,6,24.28Zm-.19-7.81a.17.17,0,0,0,.13,0l.1-.1a.17.17,0,0,0-.13,0ZM6,27a.27.27,0,0,0,.32-.17c.06-.12.11-.24.15-.34a1.16,1.16,0,0,1-.26.24A.48.48,0,0,0,6,27Zm.13-10.89a.39.39,0,0,0,.1-.08l.1-.1s-.08,0-.13.06A.26.26,0,0,0,6.16,16.14Zm.77,9.55a2.15,2.15,0,0,0-.35.31l-.32.38a.25.25,0,0,0,.13-.09l.1-.12.35-.32a4.05,4.05,0,0,0,.36-.31,1.72,1.72,0,0,0,.23-.32.22.22,0,0,1,.29-.1.8.8,0,0,1-.12.48,3.8,3.8,0,0,1-.29.38L7,26.34a1.21,1.21,0,0,0-.26.39,1.07,1.07,0,0,0,.54-.41,1.31,1.31,0,0,1,.54-.44,7.4,7.4,0,0,1,0-.94,1.87,1.87,0,0,0-.1-.89.7.7,0,0,1-.13.19.77.77,0,0,0-.13.2.33.33,0,0,1,.15,0,.12.12,0,0,1,.12.05,1.26,1.26,0,0,1-.35.69A3,3,0,0,0,6.93,25.69ZM6.35,14.92a.2.2,0,0,1,.09-.09s0-.05,0-.09,0,.07-.08.09S6.31,14.88,6.35,14.92Zm.34,10a2.28,2.28,0,0,0,.23-.22.61.61,0,0,0,.14-.26,1,1,0,0,0-.21.24A2.45,2.45,0,0,0,6.69,25Zm.19-1.1s-.06.07-.06.09l0,0a.09.09,0,0,1,.1,0s0,0,0,0h0Q6.94,23.85,6.88,23.85ZM7,18.55l.15-.09s.06-.08,0-.12A.93.93,0,0,1,7,18.55Zm.16-3.34a.22.22,0,0,0,.17-.11c0-.07,0-.1,0-.1a.25.25,0,0,1-.12.07S7.12,15.13,7.12,15.21Zm.14-1.13a.28.28,0,0,0,.1-.09s0-.08,0-.12a.44.44,0,0,1-.08.11S7.22,14,7.26,14.08Zm0,10.6.14-.06s0-.05,0-.09l-.09.07A.18.18,0,0,0,7.24,24.68Zm.28-8.86a1.89,1.89,0,0,0,.2-.27.26.26,0,0,0-.16.1A.16.16,0,0,0,7.52,15.82Zm.08,2.07.15-.09H7.66s0,0,0,.06S7.56,17.86,7.6,17.89Zm4.33-6.27-.3.29-.31.28a.76.76,0,0,0-.19.21l-.13.21a.8.8,0,0,1-.21.15.75.75,0,0,0-.2.15,1.77,1.77,0,0,0-.19.23.47.47,0,0,1-.22.16,10.81,10.81,0,0,1-1.07,1.07,6,6,0,0,0-1,1.12s0,0,0,0c.53-.44,1-.9,1.53-1.37s1-.93,1.46-1.39h.12c0-.06,0-.1,0-.11s.07,0,.07-.1a.92.92,0,0,0,.35-.27A1.43,1.43,0,0,1,12,12a.42.42,0,0,1,.13-.18.32.32,0,0,0,.1-.18ZM8.44,13.8a.12.12,0,0,0,.12-.08.13.13,0,0,0,0-.13.09.09,0,0,0,0,.09A.27.27,0,0,1,8.44,13.8Zm.4-.75.55-.22a.69.69,0,0,0,.39-.38,1.26,1.26,0,0,0-.56.26C9.07,12.84,8.94,13,8.84,13.05ZM11,11.9a3.19,3.19,0,0,0-.54.56l-.51.61a2.41,2.41,0,0,1-.37.35.93.93,0,0,0-.3.37l.8-.71c.27-.23.52-.47.78-.73l.09,0,.08,0,.22-.27.22-.24s0,0,0-.09l-.25.11A.48.48,0,0,0,11,11.9Zm-.8,2.5a1,1,0,0,1-.44.43.62.62,0,0,0-.32.5.85.85,0,0,0,.42-.23l.29-.35c.21-.24.44-.47.67-.7a4.85,4.85,0,0,0,.58-.67,7.34,7.34,0,0,0-.6.51A5,5,0,0,1,10.16,14.4Zm2-2.25a1.85,1.85,0,0,0-.25.32.92.92,0,0,1-.22.25,4.11,4.11,0,0,0-.85.74,7.79,7.79,0,0,1-.76.76s.08,0,.16-.06l.22-.18c.26-.2.5-.4.73-.59l.71-.55.64-.54a3.17,3.17,0,0,0,.56-.6.61.61,0,0,0-.55.08A2,2,0,0,0,12.15,12.15Zm1.29-.37a.08.08,0,0,1,0,.05s0,0,0,.07a7.42,7.42,0,0,0-.88.65c-.28.23-.55.47-.82.73a9.27,9.27,0,0,0-.78.75,10.41,10.41,0,0,0-.68.81c.56-.52,1.16-1,1.78-1.49a11,11,0,0,0,1.7-1.57l-.15,0A.34.34,0,0,0,13.44,11.78Zm-3,3.24s.05.05.1,0l.13,0a4.44,4.44,0,0,1,.46-.59l.48-.54-.63.52A2.75,2.75,0,0,0,10.44,15ZM14,12.69c-.29.28-.61.57-1,.86a9.18,9.18,0,0,0-.89.85c.44-.38.91-.74,1.39-1.1s.94-.71,1.39-1.09L14.5,12a1.24,1.24,0,0,0-.46-.13,1.88,1.88,0,0,1-.47.53l-.56.43c-.37.32-.72.64-1.06,1a7.9,7.9,0,0,0-.95,1,1,1,0,0,0,.32-.19l.26-.26,1.16-1a11,11,0,0,0,1-1,3.23,3.23,0,0,0,.19-.3c.06-.12.17-.14.31-.06A1.06,1.06,0,0,1,14,12.69Zm-2.19,2.4a.3.3,0,0,1,.18,0,.37.37,0,0,0,.21,0,4.5,4.5,0,0,1,.55-.6,5.29,5.29,0,0,0,.55-.6,5.58,5.58,0,0,0,.69-.61,4.73,4.73,0,0,0,.57-.67c-.47.4-.95.78-1.45,1.15A7.36,7.36,0,0,0,11.77,15.09Zm1-.16a1.7,1.7,0,0,0-.23.24.14.14,0,0,0,0,.21c.16-.17.3-.33.44-.5s.28-.33.44-.49a.12.12,0,0,0,.1-.06s0-.06,0-.06a.31.31,0,0,1-.11.09s-.05.06,0,.12-.12,0-.23.13Zm.1.71a.69.69,0,0,1,.11.13.22.22,0,0,0,.13.1.17.17,0,0,1,.12-.06.1.1,0,0,0,.09-.06q-.21,0-.24-.06a.7.7,0,0,1,.19-.29l.28-.25a2,2,0,0,0,.24-.28,1.37,1.37,0,0,1,.25-.23.35.35,0,0,1,.13-.19c.07,0,.11-.09.11-.13q-.36.33-.72.63A4.5,4.5,0,0,0,12.87,15.64ZM13,15.1l1-.77a11.59,11.59,0,0,0,.92-.79.39.39,0,0,0,.23-.14l.18-.21a1.07,1.07,0,0,1,.19-.18.47.47,0,0,1,.28-.07.94.94,0,0,1-.38.65,7.49,7.49,0,0,0-.61.51l-.14.14a.7.7,0,0,1-.16.13l-.16.15c-.07.06-.08.11,0,.15a9.11,9.11,0,0,1,.92-.72,7.1,7.1,0,0,0,.9-.72,1.32,1.32,0,0,0-.45-.53,17.86,17.86,0,0,1-1.43,1.14A5.48,5.48,0,0,0,13,15.1Zm.75.29c.06,0,.09,0,.1,0a.12.12,0,0,0,.05.08,1.47,1.47,0,0,1-.25.25,2.32,2.32,0,0,0-.28.24.56.56,0,0,0-.15.23c0,.08.06.17.22.27l.17-.17a.53.53,0,0,0,.15-.22L13.68,16a.18.18,0,0,1-.06-.08l.78-.88.7-.76c-.23.16-.46.33-.68.51S14,15.19,13.76,15.39Zm1.44-3a5.89,5.89,0,0,1-1,.9,5,5,0,0,0-.93.9l1-.84c.35-.28.69-.57,1-.87l-.09-.06A.12.12,0,0,0,15.2,12.38Zm-.81,10.9-.28.17a.62.62,0,0,1-.31.08s-.05,0,0-.06,0,0,0,0a1,1,0,0,0-.24.58,1.51,1.51,0,0,0,0,.64.3.3,0,0,0,.07-.18.3.3,0,0,0-.05-.21.89.89,0,0,0,.27-.4.46.46,0,0,1,.38-.32l.6-.57q.3-.3.54-.57a2.37,2.37,0,0,0-.47.39C14.7,23,14.55,23.14,14.39,23.28Zm.45-1.93a.08.08,0,0,1,.09.09.19.19,0,0,1-.18.12.46.46,0,0,0-.23.06,1.8,1.8,0,0,0-.82,1.11.16.16,0,0,0-.2.12.39.39,0,0,0,0,.3c.12-.14.22-.28.32-.42a3.24,3.24,0,0,1,.35-.42,2.6,2.6,0,0,1,.4-.33.67.67,0,0,0,.27-.36s0,0,0,0,0,0,0,0a4.92,4.92,0,0,1,.41-.52,3.15,3.15,0,0,0,.38-.5,1.27,1.27,0,0,1-.43.33A1,1,0,0,0,14.84,21.35Zm-1.37,4.11a1,1,0,0,0,.25-.21,1.85,1.85,0,0,0,.19-.27q-.27-.09-.33.12A2.22,2.22,0,0,1,13.47,25.46Zm.3.55A16.37,16.37,0,0,1,15,24.74c.42-.39.82-.78,1.21-1.18-.43.32-.85.66-1.25,1s-.8.71-1.21,1.05a3,3,0,0,0-.2.49.77.77,0,0,0,0,.52,1.59,1.59,0,0,1,.39-.32.59.59,0,0,0,.29-.34.56.56,0,0,1-.22.11A.18.18,0,0,1,13.77,26Zm-.2-4.2c.16-.08.25-.18.26-.3l-.13,0s-.06,0-.1,0,0,.13,0,.16A.2.2,0,0,0,13.57,21.81Zm.08-.68a.27.27,0,0,1,0,.12s0,.08,0,.12l.14-.2c.06-.09.07-.15,0-.19a.15.15,0,0,1-.08.08A.37.37,0,0,0,13.65,21.13Zm0-.86a.17.17,0,0,1,0,.14.15.15,0,0,0,0,.13c.32-.28.61-.56.9-.84l.83-.84h0a4,4,0,0,0-.83.72A3.4,3.4,0,0,1,13.67,20.27Zm0-.65a.4.4,0,0,1,0,.24.92.92,0,0,0,.32-.33,1.12,1.12,0,0,1,.29-.36,3.45,3.45,0,0,0-.28.26A.77.77,0,0,1,13.69,19.62Zm.71,6.92a6.79,6.79,0,0,1,.82-.87c.29-.26.57-.53.85-.81q0-.06,0,0l-.19.14-.19.13-.46.41-.45.4-.62.59a2.42,2.42,0,0,0-.46.64,1.1,1.1,0,0,0,.41-.26A3.4,3.4,0,0,0,14.4,26.54Zm.43-8.44a2.08,2.08,0,0,1-.25.21.23.23,0,0,1-.31,0,.75.75,0,0,1,.17-.37.75.75,0,0,0,.17-.37,4.07,4.07,0,0,0-.48.33l-.46.39c0,.1,0,.2,0,.3a2.83,2.83,0,0,1,0,.29.45.45,0,0,0,.21-.12l.17-.18a.59.59,0,0,1,.19-.13.29.29,0,0,1,.26,0,.44.44,0,0,1,.17-.2A.25.25,0,0,0,14.83,18.1Zm-1.1-.19a3.16,3.16,0,0,0,.35-.54,1.91,1.91,0,0,0-.3.22A.26.26,0,0,0,13.73,17.91Zm2.53-3.41q-.68.54-1.32,1.17c-.42.42-.81.82-1.16,1.2a15.39,15.39,0,0,0,1.43-1.09,14.92,14.92,0,0,0,1.29-1.23l-.12,0Zm-2.42,2.66c.06,0,.13,0,.22-.12s.12-.15.1-.15A.8.8,0,0,0,14,17,.44.44,0,0,1,13.84,17.16Zm.06,7.17s0,.06,0,.06l-.06,0a.45.45,0,0,0,.21-.16,1.79,1.79,0,0,1,.14-.18s0,0,0,0,0,0,0,0a.5.5,0,0,1-.14.15Zm2.45-5c-.29.24-.57.5-.85.78l-.81.84-.28.29a1.42,1.42,0,0,0-.22.28.1.1,0,0,1-.09.06.05.05,0,0,0-.06.06l1.53-1.06a4.83,4.83,0,0,0,1.29-1.26l.08-.06a.13.13,0,0,0,.09,0c0-.1,0-.2.07-.31a.47.47,0,0,0,0-.31A1.87,1.87,0,0,1,16.35,19.32Zm-2,5s0,0-.05,0,0,0,0,0a12.58,12.58,0,0,0,1.3-1.1c.4-.39.81-.77,1.24-1.15a.06.06,0,0,1,0-.09s0-.06,0-.12l-1.35,1.16A7.62,7.62,0,0,0,14.31,24.32Zm0-.32a.07.07,0,0,0,.07-.05l0-.1a.19.19,0,0,0-.12,0S14.27,24,14.31,24Zm0-4.86a1.65,1.65,0,0,1,.39-.4,1.6,1.6,0,0,0,.37-.41l-.11.06s0,.06,0,.12a.51.51,0,0,0-.28.2.7.7,0,0,1-.28.22s0,.08,0,.11S14.3,19.1,14.34,19.14Zm0-2.43q.11,0,.12.15l.29-.34.23-.35-.34.27A2.52,2.52,0,0,0,14.37,16.71Zm.09,2.61v0c.43-.4.87-.77,1.32-1.12A8.24,8.24,0,0,0,17,17.09s-.05,0-.05,0,0-.06-.06-.06c-.4.3-.81.65-1.25,1A10.69,10.69,0,0,0,14.46,19.32Zm.08,4.43a.58.58,0,0,0,.19-.17.5.5,0,0,0,.13-.21.51.51,0,0,1-.2.22C14.56,23.66,14.52,23.72,14.54,23.75Zm.68,2.16a1.2,1.2,0,0,1-.35.39.57.57,0,0,0-.23.39c.33-.29.64-.59.94-.91s.6-.62.93-.92a.24.24,0,0,1,.24.08.42.42,0,0,1-.14.33.3.3,0,0,0-.12.3l.28-.21.28-.22A3,3,0,0,1,17,24.7a1.69,1.69,0,0,0-.06-.41,6.66,6.66,0,0,1-.8.85Zm1-10.61-.51.55a5.13,5.13,0,0,1-.51.53l-.26.27a.75.75,0,0,0-.18.3l.24-.19.26-.15a5,5,0,0,1,.91-.87,4.26,4.26,0,0,0,.88-.87c-.1,0-.16,0-.18,0a.47.47,0,0,0-.09-.12.81.81,0,0,1-.25.3A2.61,2.61,0,0,0,16.18,15.3Zm-1.45,2.09a.94.94,0,0,0,.38-.36,1.32,1.32,0,0,1,.35-.39,0,0,0,1,0,0-.06,1.34,1.34,0,0,1-.41.38A.68.68,0,0,0,14.73,17.39Zm3-2.41a1.86,1.86,0,0,1-.31.26,2.42,2.42,0,0,0-.31.25s-.06.08-.05.09a.23.23,0,0,1,0,.09.9.9,0,0,1-.28.16l-.28.09a.73.73,0,0,0-.22.18l-.22.24c-.22.24-.44.47-.67.7a2.69,2.69,0,0,0-.53.7c.49-.44,1-.87,1.48-1.29s1-.86,1.42-1.32a.19.19,0,0,1,0-.12l.08-.12c.07,0,.15-.07.23-.21a.44.44,0,0,0-.21.15A.5.5,0,0,1,17.69,15Zm-2.81.28s0,0,0,0-.05,0,0,.05l.19-.15A1,1,0,0,0,15.2,15a.36.36,0,0,0-.16.13A.38.38,0,0,1,14.88,15.26Zm0,2.84.22-.18a2,2,0,0,0,.19-.21,1.46,1.46,0,0,0-.22.18A.85.85,0,0,0,14.89,18.1ZM15,22.42c.22-.14.46-.31.72-.5l.72-.53.35-.3a.38.38,0,0,0,.11-.41c-.33.28-.67.55-1,.82A4.84,4.84,0,0,0,15,22.42ZM15,27.21a1.36,1.36,0,0,0,.46,0,2.64,2.64,0,0,0,.49-.08l.07-.15a.16.16,0,0,0,0-.15.48.48,0,0,1-.2.14.22.22,0,0,1-.24-.07.75.75,0,0,1,.19-.34,3.47,3.47,0,0,0,.25-.29s0-.06,0-.06l-.53.47A4.62,4.62,0,0,0,15,27.21Zm.07-8.91a.24.24,0,0,0,.13,0s0-.07,0-.11,0,.07-.07.08A.12.12,0,0,0,15.1,18.3ZM16.78,20c-.28.28-.58.56-.93.85a2.94,2.94,0,0,0-.74.89,10.45,10.45,0,0,1,1-.79,5.1,5.1,0,0,0,.9-.84.89.89,0,0,1,0-.22v-.19A.29.29,0,0,0,16.78,20Zm.06,2.6a3.52,3.52,0,0,1-.68.59,2.43,2.43,0,0,0-.64.64.85.85,0,0,0-.22.14c-.09.07-.11.1-.07.1q.31-.27.81-.63a6.1,6.1,0,0,0,.83-.75s-.05-.06,0-.06S16.88,22.59,16.84,22.57Zm-1.31-5.1.48-.42a1.85,1.85,0,0,0,.4-.45c-.14.12-.28.25-.43.4Zm.61,8.4-.05,0h0c0,.06,0,.09-.06.1a.14.14,0,0,0-.11.14L16,26l.15-.12-.06-.06A.12.12,0,0,0,16.14,25.87Zm0-.06s.08,0,.12-.08,0-.08,0,0,0,0,0,0S16.15,25.77,16.17,25.81Zm.26-.27-.14.12c.05,0,.09,0,.11,0A.33.33,0,0,0,16.43,25.54ZM17,23.9a1.72,1.72,0,0,1,0-.37.89.89,0,0,0,0-.34.54.54,0,0,1-.15.15.3.3,0,0,1,0,.37c-.09.15-.15.27-.19.34l.19-.09Zm-.4,3.29s0,0,.06,0,.05,0,.09,0a.42.42,0,0,1,.11-.16.12.12,0,0,0,0-.17.53.53,0,0,1-.19.17C16.58,27.08,16.55,27.13,16.57,27.19Zm.16-12.76a.25.25,0,0,0,.06.15.58.58,0,0,1,.11-.13.12.12,0,0,0,0-.14.39.39,0,0,0-.1.08A.15.15,0,0,1,16.73,14.43ZM17,26.33a.24.24,0,0,1,.15,0,.13.13,0,0,0,0-.12s0-.07,0-.09a.21.21,0,0,0-.1.12A.61.61,0,0,1,17,26.33Zm.07.86h.09q0-.12,0-.12s0,.06,0,.06S17.07,27.15,17.07,27.19Zm.09-9.51a.06.06,0,0,1,.09,0s.06,0,.12,0,0-.17,0-.21,0-.1,0-.2a1.24,1.24,0,0,1-.16.19A.22.22,0,0,0,17.16,17.68Zm.07-1.39a.1.1,0,0,1,0,.12.13.13,0,0,0,0,.12.71.71,0,0,0,.32-.39.46.46,0,0,1-.2,0Q17.23,16.17,17.23,16.29Zm.09-2a7.54,7.54,0,0,0,1.06-.84l1-.93a.05.05,0,0,0-.06-.06,5.38,5.38,0,0,0-1.05.84C17.92,13.61,17.62,13.94,17.32,14.28Zm2.79-2.17a14.87,14.87,0,0,1-1.45,1.41A7.82,7.82,0,0,0,17.33,15a.22.22,0,0,0,.13-.09.21.21,0,0,1,.17-.06.41.41,0,0,1,.07-.11l.1-.1c.69-.56,1.34-1.11,2-1.66l.4-.34.39-.35.12-.13a.13.13,0,0,0,0-.14l-.3.07Zm-2.52,4.44s.06,0,.06.05,0,0,.06,0a.22.22,0,0,1,.06-.13.11.11,0,0,0,0-.14.13.13,0,0,1-.07.11S17.63,16.49,17.59,16.55Zm3.64-4.63a10.4,10.4,0,0,1-.92.84,10,10,0,0,0-.89.81c-.3.3-.6.59-.91.87a5.16,5.16,0,0,0-.82.93.7.7,0,0,0,.38-.23l.3-.31.35-.32L19,14.2a.14.14,0,0,1,.15,0,6.6,6.6,0,0,1,.9-.93l1-.85c0-.06,0-.09,0-.11a.06.06,0,0,0,0-.09.4.4,0,0,0,.26-.11c.08-.07.1-.12.06-.16Zm.16.65H21.3l-.09,0c-.45.4-.92.8-1.42,1.2a7.35,7.35,0,0,0-1.27,1.29l.16-.09c.07,0,.12,0,.16.06a.8.8,0,0,1-.17.15.54.54,0,0,0-.15.15l.09.17a2.28,2.28,0,0,0,.6-.42c.17-.16.33-.33.5-.51l.5-.54a2.69,2.69,0,0,1,.57-.48c0-.1,0-.16.11-.18a.28.28,0,0,0,.15-.18c-.06,0-.11,0-.15.07s-.1.09-.2,0a6.63,6.63,0,0,0,1.52-1.41l-.14,0a.1.1,0,0,0-.1,0,1.42,1.42,0,0,1-.31.33A1,1,0,0,0,21.39,12.57ZM23,12a.44.44,0,0,0-.39,0,3,3,0,0,0-.23.26c-.18.16-.37.32-.59.49l-.64.53a5.44,5.44,0,0,0-.6.57,3,3,0,0,1-.57.48.27.27,0,0,1-.18.18.29.29,0,0,0-.08.14s-.07.08-.15.1a.29.29,0,0,1-.1.2.21.21,0,0,0-.1.16.92.92,0,0,0,.38-.2,1.37,1.37,0,0,1,.38-.23v0c.25-.2.5-.4.73-.6l.73-.61a0,0,0,0,1,.06,0s0,0,.06,0a.4.4,0,0,0,.1-.15c0-.06.1-.08.2-.06a1.24,1.24,0,0,1,.57-.54,1.18,1.18,0,0,0,.54-.54c.08,0,.12,0,.14-.06a.24.24,0,0,1-.13,0A.18.18,0,0,0,23,12Zm-2.93,2.9h.33a6.77,6.77,0,0,1,.8-.81,5.9,5.9,0,0,0,.78-.81,5.73,5.73,0,0,1-1,.8A4.58,4.58,0,0,0,20.11,14.86Zm.83,0a.24.24,0,0,0,.21.16.26.26,0,0,1,.21.1.38.38,0,0,0,.21-.18l.11-.23a2.58,2.58,0,0,1,.61-.78,2.72,2.72,0,0,0,.61-.72,12.54,12.54,0,0,1-1,.84C21.61,14.3,21.27,14.57,20.94,14.85ZM21,14.5l1.46-1.07a9,9,0,0,0,1.35-1.19l-.1-.06-.14-.06a17,17,0,0,1-1.36,1.16A6.34,6.34,0,0,0,21,14.5Zm.84,1,.06.15a.18.18,0,0,0,.12.12,2,2,0,0,0,.54-.5,3.29,3.29,0,0,1,.57-.55.81.81,0,0,1-.33.36.67.67,0,0,0-.31.32s0,0,0,0v0a.49.49,0,0,1-.26.21c-.12,0-.17.11-.15.21a4.06,4.06,0,0,0,.73-.54,4.14,4.14,0,0,1,.74-.54.47.47,0,0,1,.08-.15,1.56,1.56,0,0,0,.38-.32,2,2,0,0,1,.38-.31l.4-.35a.8.8,0,0,1,.43-.19.86.86,0,0,1-.26.52c-.14.11-.29.23-.44.37l-.81.71a5.12,5.12,0,0,0-.71.76,10.84,10.84,0,0,0,1.2-1,13.84,13.84,0,0,1,1.2-1.07,1.24,1.24,0,0,0-.48-.56c-.35.28-.7.58-1,.89s-.67.61-1,.91a1.2,1.2,0,0,1,.23-.21.2.2,0,0,0,.12-.23c.06,0,.1,0,.11-.06a.1.1,0,0,1,.09-.06.88.88,0,0,1,.34-.45,1.19,1.19,0,0,0,.36-.39q-.62.45-1.17.93Zm1-2a1.22,1.22,0,0,1-.38.43,1.24,1.24,0,0,0-.38.46l.54-.46a2.85,2.85,0,0,0,.51-.53.1.1,0,0,0,.09,0,.11.11,0,0,1,.09-.05,1.16,1.16,0,0,1,.26-.3.74.74,0,0,1,.16-.12c.07,0,.09-.08.05-.12a2.56,2.56,0,0,0-.44.36A1.86,1.86,0,0,1,22.88,13.47Zm1.06,0-.11,0a.25.25,0,0,0-.12.07,2.07,2.07,0,0,0-.29.3.64.64,0,0,1-.39.22,1.6,1.6,0,0,1-.46.42,1.1,1.1,0,0,0-.44.48,5,5,0,0,0,1-.76,4,4,0,0,1,1-.72.57.57,0,0,1,.28-.27,1.16,1.16,0,0,0,.34-.24q-.06-.12-.15-.12l-.34.29Zm-1.68,2.69a2.11,2.11,0,0,0,.17.44,1.43,1.43,0,0,1,.14.47c.23-.26.46-.52.67-.79s.43-.54.64-.82a1.45,1.45,0,0,0-.48.45,1.68,1.68,0,0,1-.48.45l-.2.07a.15.15,0,0,1-.19,0,2.43,2.43,0,0,1,.7-.95,4.22,4.22,0,0,0,.76-.84c-.32.24-.61.49-.9.75S22.53,15.89,22.26,16.17ZM24,17.24A.68.68,0,0,0,24.3,17a1.85,1.85,0,0,0,.16-.24.74.74,0,0,1-.16.12l-.25.15-.38.39a2.94,2.94,0,0,0-.37.32c-.1.11-.23.09-.37-.07a1.23,1.23,0,0,1,.31-.4,1.07,1.07,0,0,0,.27-.35l-.44.3a2,2,0,0,0-.35.36,10.52,10.52,0,0,1,.11,1.07A8.73,8.73,0,0,0,23,19.8a.12.12,0,0,1,0-.09.12.12,0,0,0,0-.09,3,3,0,0,0,.52-.55c.16-.21.32-.42.5-.62,0,0,.08,0,.13-.09s0-.09,0-.09a3.72,3.72,0,0,0-.52.53,1,1,0,0,1-.68.35c0-.12,0-.19,0-.22a.17.17,0,0,0,.08-.17s-.05-.05-.1,0-.06,0,0-.07a4.77,4.77,0,0,1,.53-.72C23.66,17.71,23.85,17.48,24,17.24Zm-1.1-.16a.7.7,0,0,1,.24-.15q0-.12-.09-.12s0,.08-.1.13S22.88,17,22.92,17.08Zm.84,2.65q.22-.24.42-.48a4.47,4.47,0,0,1,.42-.45s0-.08.06-.12.07-.07,0-.09a3.35,3.35,0,0,1-.51.42,1.65,1.65,0,0,0-.46.45.56.56,0,0,0-.42.31.62.62,0,0,1-.4.33.31.31,0,0,0,.07.2,1.13,1.13,0,0,0,.35-.34A.48.48,0,0,1,23.76,19.73Zm-.63,1.87h-.21a.54.54,0,0,1,0,.25.41.41,0,0,0,0,.22,5.13,5.13,0,0,0,.53-.51l.46-.54a6.14,6.14,0,0,1,.51-.51L25,20s0-.06,0-.06l-.87.84A7.73,7.73,0,0,1,23.13,21.6Zm2-.82a1,1,0,0,0,.34-.32,1.67,1.67,0,0,1,.31-.34s0,0,0-.05,0,0,0,0c-.46.34-.89.7-1.31,1.07l-1.3,1.12H23A4.75,4.75,0,0,0,23,23.47a1.65,1.65,0,0,0,.29-.26.91.91,0,0,0,.2-.31s-.08.07-.17.09a.23.23,0,0,1-.21,0,9,9,0,0,1,1-1A5.34,5.34,0,0,0,25.13,20.78Zm-1.4-.55a.38.38,0,0,1-.41.1l-.29.28a.32.32,0,0,0,0,.4,1.69,1.69,0,0,1,.36-.27,1.43,1.43,0,0,0,.35-.3s.06,0,.06,0,0,0,.06,0a11.14,11.14,0,0,0,.74-.84c.22-.28.47-.58.74-.9a5.79,5.79,0,0,0-.79.72A6.17,6.17,0,0,1,23.73,20.23Zm-.54,3.42s-.07,0-.09,0-.05,0-.09,0a1.87,1.87,0,0,0,0,.53,2.49,2.49,0,0,0,.08.5c.31-.32.62-.62.94-.91a8.75,8.75,0,0,0,.87-.95l-.58.48a6.49,6.49,0,0,0-.59.58l-.27.3a.27.27,0,0,1-.38,0l1-1.11c.34-.36.67-.74,1-1.14a6.8,6.8,0,0,0-.89.8C23.84,23.06,23.52,23.36,23.19,23.65Zm-.13,1.45a2.83,2.83,0,0,1,0,.41.69.69,0,0,0,0,.36.53.53,0,0,1,.14-.11.23.23,0,0,0,.12-.16l-.12-.05s-.05,0,0-.1c.33-.34.67-.67,1-1a14.47,14.47,0,0,0,1-1.07,4.63,4.63,0,0,0-1,.87A4,4,0,0,1,23.06,25.1Zm1.83.14-1.08.91-.35.29a1.57,1.57,0,0,0-.32.31,3.69,3.69,0,0,0,.74,0,.06.06,0,0,1,0-.08.2.2,0,0,0,0-.09c.39-.34.77-.7,1.13-1.07l1.07-1.09v-.06H26C25.65,24.63,25.26,24.93,24.89,25.24Zm.72-10.74a.92.92,0,0,0-.35.19c-.1.09-.19.19-.29.29a6.63,6.63,0,0,0-.61.57,5.21,5.21,0,0,1-.62.54.94.94,0,0,1-.25.28.36.36,0,0,0-.13.35,1.31,1.31,0,0,0,.36-.23,3,3,0,0,1,.32-.26s-.05,0,0,0a.06.06,0,0,0,0-.09,5.06,5.06,0,0,1,.83-.84,3.54,3.54,0,0,0,.77-.84s0,0,0,0S25.61,14.48,25.61,14.5Zm.61.88h-.09a17.17,17.17,0,0,1-1.42,1.41,9.19,9.19,0,0,0-1.33,1.46,8.64,8.64,0,0,0,1.29-1.12c.39-.41.8-.82,1.23-1.21a.17.17,0,0,1,.21.05l.11-.13.12-.14-.06-.16ZM23.63,19.2c.32-.22.64-.46,1-.72a10.27,10.27,0,0,0,.91-.81,1.14,1.14,0,0,1,.11-.11l.12-.1a1.16,1.16,0,0,0,.25-.29.23.23,0,0,1,.25-.13.35.35,0,0,1,0,.42l-.3.35a4.09,4.09,0,0,0-.92.78l-.8.9a8.24,8.24,0,0,0,1.1-.95c.34-.35.7-.69,1.09-1q.06,0,.09,0a.12.12,0,0,1,.09,0,1.48,1.48,0,0,1-.05-.46,1.24,1.24,0,0,0,0-.43c-.51.38-1,.79-1.52,1.22A7.3,7.3,0,0,0,23.63,19.2Zm.06,2.31c.51-.36,1-.75,1.47-1.15s.93-.81,1.4-1.23a.24.24,0,0,0,.15,0,.18.18,0,0,1,0-.18c0-.08,0-.13-.06-.14a13.74,13.74,0,0,0-1.54,1.3C24.6,20.55,24.14,21,23.69,21.51Zm2.73.23c-.45.42-.91.82-1.38,1.22a9.6,9.6,0,0,0-1.28,1.27v0c.52-.42,1-.86,1.5-1.31a13.05,13.05,0,0,1,1.57-1.25c0-.27,0-.54,0-.81a3.74,3.74,0,0,0-.1-.81l-.13.18a.31.31,0,0,0,0,.26,2.13,2.13,0,0,1-.38.59c-.15.17-.31.33-.46.49a2.78,2.78,0,0,0-.62.56,7.54,7.54,0,0,1-.55.58,1.66,1.66,0,0,0,.24-.18l.22-.18a5.39,5.39,0,0,0,.82-.68,3.67,3.67,0,0,1,.88-.62s0,.06,0,.05,0,0,0,0a.65.65,0,0,1-.12.31A2,2,0,0,1,26.42,21.74Zm-2.59-1.06a6.62,6.62,0,0,0,.92-.74c.28-.27.56-.55.83-.83a.1.1,0,0,1-.11-.07.24.24,0,0,1,0-.13c-.27.28-.55.57-.83.88S24.06,20.4,23.83,20.68ZM24,12.62s0,0,.05,0l.1,0h.1s.05,0,.05.1.06,0,.12-.09a.71.71,0,0,0-.14-.1.56.56,0,0,0-.13-.07.15.15,0,0,0-.07.11A.08.08,0,0,1,24,12.62Zm3,11V23c0-.15,0-.33,0-.55a2.08,2.08,0,0,1-.47.54,3.69,3.69,0,0,0-.49.48.64.64,0,0,0,.3-.22.21.21,0,0,1,.31-.05.65.65,0,0,1-.26.47l-.44.34-.87.76c-.3.25-.58.51-.85.77a13.1,13.1,0,0,0,1.32-1A7.81,7.81,0,0,1,26.94,23.6ZM24.15,18a.69.69,0,0,1,.13-.11.4.4,0,0,0,.13-.13,0,0,0,0,0,0,0,2.8,2.8,0,0,1,.38-.32,1.76,1.76,0,0,0,.39-.34,1.68,1.68,0,0,0-.62.37A4.63,4.63,0,0,0,24.15,18Zm.14,8.67a.33.33,0,0,0,.33-.05l.26-.25.71-.72a3.56,3.56,0,0,0,.6-.72l-1,.84A11.15,11.15,0,0,0,24.29,26.71Zm2.39-7.28a7.41,7.41,0,0,1-.74.83c-.26.27-.53.53-.8.78q0,.09-.12.15c-.08,0-.1.08-.06.12a6.94,6.94,0,0,0,.81-.72,7.46,7.46,0,0,1,.77-.72.53.53,0,0,1,.24-.06v-.22A.17.17,0,0,0,26.68,19.43Zm-1.38.25s.05,0,.05,0,0,0,.06,0a1,1,0,0,1,.21-.21c.1-.08.12-.14.09-.18a1.66,1.66,0,0,1-.37.38A1.37,1.37,0,0,0,25,20,1.22,1.22,0,0,0,25.3,19.68Zm.55,6.3-.4.31a1.52,1.52,0,0,0-.3.38h.29c.22-.22.43-.43.65-.63a4.57,4.57,0,0,0,.58-.66s0,0,0,0h-.05a4.08,4.08,0,0,0-.39.31C26.12,25.77,26,25.88,25.85,26Zm-.14-11.1a.24.24,0,0,0,.26-.09s0-.06,0-.06,0,0,0-.06C25.78,14.67,25.71,14.74,25.71,14.88Zm.43,3.75a1,1,0,0,0,.24-.19.51.51,0,0,1,.23-.17,1.14,1.14,0,0,0,0-.28.77.77,0,0,0-.07-.28,3.94,3.94,0,0,0-.36.45.78.78,0,0,1-.31.3.29.29,0,0,0,.24-.12.17.17,0,0,1,.23-.06.22.22,0,0,1-.11.22C26.18,18.55,26.14,18.59,26.14,18.63Zm-.1,8a.19.19,0,0,0,.17,0,2.44,2.44,0,0,0,.19-.21c.09-.1.11-.17.07-.21a1.53,1.53,0,0,1-.25.16A.42.42,0,0,0,26,26.6Zm.57-1.55a.54.54,0,0,0,.32-.18v-.12a.05.05,0,0,0-.06-.06.23.23,0,0,1-.13.17A.23.23,0,0,0,26.61,25.05Zm.08,1.45a.22.22,0,0,1,.06.18.17.17,0,0,1,.1,0,.09.09,0,0,0,.1,0,.47.47,0,0,0,.05-.26c0-.09,0-.16-.05-.22S26.76,26.34,26.69,26.5Zm.14-2.43v0a0,0,0,0,0,0,0h.06a.05.05,0,0,1,0,0s0,0,0-.08-.08,0-.06.06S26.87,24.11,26.83,24.07Z" transform="translate(-3.18 -4.76)"/></svg>