<?xml version="1.0" encoding="UTF-8" standalone="no"?>
<!DOCTYPE svg PUBLIC "-//W3C//DTD SVG 1.1//EN" "http://www.w3.org/Graphics/SVG/1.1/DTD/svg11.dtd">
<svg xmlns="http://www.w3.org/2000/svg" version="1.1" viewBox="0.00 0.00 400.00 400.00">
<g stroke-width="2.00" fill="none" stroke-linecap="butt">
<path stroke="#d7d7f7" vector-effect="non-scaling-stroke" d="
  M 61.33 0.00
  Q 63.69 6.16 64.59 10.62
  C 67.90 26.90 60.81 43.26 51.12 56.16
  C 38.09 73.52 20.80 81.01 0.00 84.48"
/>
<path stroke="#dde6e2" vector-effect="non-scaling-stroke" d="
  M 85.25 0.00
  L 104.17 0.17"
/>
<path stroke="#dadef0" vector-effect="non-scaling-stroke" d="
  M 104.17 0.17
  Q 99.10 25.96 96.23 36.67
  C 91.05 56.07 79.49 76.54 65.18 90.42
  C 47.77 107.32 23.06 115.49 0.00 121.00"
/>
<path stroke="#e1f6cc" vector-effect="non-scaling-stroke" d="
  M 197.23 0.00
  Q 191.90 19.84 187.42 39.91
  Q 182.06 63.85 173.03 86.34"
/>
<path stroke="#717868" vector-effect="non-scaling-stroke" d="
  M 173.03 86.34
  Q 160.38 83.04 153.09 91.91
  C 147.79 98.36 147.47 106.40 151.91 113.43
  Q 152.03 113.62 154.33 117.20
  Q 159.73 125.63 152.73 131.65
  C 150.77 133.34 147.68 134.73 145.16 135.94
  Q 139.64 138.59 137.25 145.34
  Q 134.14 154.10 139.02 161.64"
/>
<path stroke="#ddf5d2" vector-effect="non-scaling-stroke" d="
  M 139.02 161.64
  Q 131.58 164.31 125.59 160.59"
/>
<path stroke="#717868" vector-effect="non-scaling-stroke" d="
  M 125.59 160.59
  Q 128.49 149.51 120.44 141.54"
/>
<path stroke="#e1eed4" vector-effect="non-scaling-stroke" d="
  M 120.44 141.54
  L 124.52 124.14"
/>
<path stroke="#717868" vector-effect="non-scaling-stroke" d="
  M 124.52 124.14
  C 133.54 123.29 137.44 113.92 131.90 106.80"
/>
<path stroke="#e1eed4" vector-effect="non-scaling-stroke" d="
  M 131.90 106.80
  Q 142.10 89.83 148.13 69.28
  Q 158.30 34.66 161.13 0.84
  A 0.46 0.46 0.0 0 0 160.67 0.34
  L 142.93 0.33"
/>
<path stroke="#dfebda" vector-effect="non-scaling-stroke" d="
  M 142.93 0.33
  L 119.01 0.24"
/>
<path stroke="#dee8df" vector-effect="non-scaling-stroke" d="
  M 119.01 0.24
  L 104.17 0.17"
/>
<path stroke="#e3fdbd" vector-effect="non-scaling-stroke" d="
  M 228.32 0.00
  C 217.36 24.28 211.09 49.63 204.56 75.33"
/>
<path stroke="#707e64" vector-effect="non-scaling-stroke" d="
  M 204.56 75.33
  C 190.79 79.95 197.66 99.57 211.14 94.97"
/>
<path stroke="#e3fdbd" vector-effect="non-scaling-stroke" d="
  M 211.14 94.97
  L 209.37 116.80"
/>
<path stroke="#707e64" vector-effect="non-scaling-stroke" d="
  M 209.37 116.80
  Q 198.99 112.86 191.15 118.65
  C 185.79 122.62 182.61 129.37 183.80 135.98
  Q 186.11 148.81 199.50 151.27"
/>
<path stroke="#e3fdbd" vector-effect="non-scaling-stroke" d="
  M 199.50 151.27
  Q 206.08 160.20 209.74 170.52"
/>
<path stroke="#707e64" vector-effect="non-scaling-stroke" d="
  M 209.74 170.52
  C 192.16 165.48 175.29 174.36 170.06 191.76"
/>
<path stroke="#ddfbcd" vector-effect="non-scaling-stroke" d="
  M 170.06 191.76
  L 151.21 169.50"
/>
<path stroke="#707e64" vector-effect="non-scaling-stroke" d="
  M 151.21 169.50
  Q 165.89 170.69 171.04 157.75
  Q 173.15 152.45 171.08 145.68
  C 170.14 142.59 168.17 140.62 166.39 137.64
  C 162.20 130.59 164.76 124.55 171.54 121.19
  Q 173.40 120.27 176.39 118.85
  A 5.08 4.82 11.5 0 0 177.32 118.27
  Q 186.99 110.52 184.41 99.08
  C 183.08 93.19 178.61 88.60 173.03 86.34"
/>
<path stroke="#e7ffad" vector-effect="non-scaling-stroke" d="
  M 400.00 58.03
  C 391.55 46.54 383.77 39.44 370.34 33.92
  Q 356.81 28.35 340.64 24.92
  C 320.36 20.61 299.99 22.58 285.14 37.77
  Q 283.79 39.15 276.40 47.68
  C 268.91 56.31 263.94 61.30 259.32 69.26
  Q 254.65 77.32 248.04 90.39"
/>
<path stroke="#737f5a" vector-effect="non-scaling-stroke" d="
  M 248.04 90.39
  Q 233.26 89.17 227.90 102.25
  C 227.26 103.82 227.07 105.72 226.75 107.46
  C 225.04 116.84 219.04 120.65 209.37 116.80"
/>
<path stroke="#737f5a" vector-effect="non-scaling-stroke" d="
  M 211.14 94.97
  C 222.94 89.51 217.41 72.67 204.56 75.33"
/>
<path stroke="#dce3e8" vector-effect="non-scaling-stroke" d="
  M 119.01 0.24
  Q 116.52 12.95 111.88 33.10
  Q 106.74 55.43 95.98 74.58
  Q 92.19 81.32 85.23 92.21"
/>
<path stroke="#dbe5ed" vector-effect="non-scaling-stroke" d="
  M 85.23 92.21
  Q 74.14 102.15 67.33 107.31
  Q 53.28 117.94 34.97 127.02
  Q 18.29 135.29 0.00 138.93"
/>
<path stroke="#dfe9de" vector-effect="non-scaling-stroke" d="
  M 142.93 0.33
  C 138.08 25.88 133.64 46.46 126.28 66.99
  C 117.91 90.33 106.50 116.08 96.54 141.25"
/>
<path stroke="#6f7372" vector-effect="non-scaling-stroke" d="
  M 96.54 141.25
  Q 90.95 146.31 90.24 153.76"
/>
<path stroke="#d9f0e2" vector-effect="non-scaling-stroke" d="
  M 90.24 153.76
  C 83.90 149.76 78.15 145.73 70.21 147.30
  Q 67.24 147.88 62.98 149.51"
/>
<path stroke="#dce8e8" vector-effect="non-scaling-stroke" d="
  M 62.98 149.51
  Q 62.92 140.94 66.75 133.19
  Q 76.74 113.00 85.23 92.21"
/>
<path stroke="#70766c" vector-effect="non-scaling-stroke" d="
  M 131.90 106.80
  C 128.42 103.26 122.85 102.27 118.70 104.97
  C 109.55 110.93 114.15 123.90 124.52 124.14"
/>
<path stroke="#70766c" vector-effect="non-scaling-stroke" d="
  M 120.44 141.54
  Q 108.63 132.41 96.54 141.25"
/>
<path stroke="#e7ffad" vector-effect="non-scaling-stroke" d="
  M 400.00 291.08
  Q 391.85 295.22 386.10 296.51
  C 372.41 299.60 355.50 292.81 344.42 284.51
  C 330.96 274.42 319.68 262.39 309.32 249.20"
/>
<path stroke="#748053" vector-effect="non-scaling-stroke" d="
  M 309.32 249.20
  Q 311.42 235.56 300.32 229.13
  C 297.36 227.41 293.74 227.01 291.08 226.40
  Q 280.47 223.98 281.87 213.98
  C 282.23 211.35 283.66 208.13 284.29 206.20
  A 7.73 7.57 -33.1 0 0 284.62 204.71
  C 286.64 187.22 267.49 176.95 254.13 188.71"
/>
<path stroke="#e7ffad" vector-effect="non-scaling-stroke" d="
  M 254.13 188.71
  Q 247.61 180.35 242.19 171.02"
/>
<path stroke="#748053" vector-effect="non-scaling-stroke" d="
  M 242.19 171.02
  Q 250.14 173.70 256.49 170.22
  Q 257.31 169.77 260.49 167.58
  C 266.95 163.16 273.23 162.69 277.97 170.01
  C 279.34 172.12 280.46 175.78 282.19 177.89
  C 289.02 186.21 300.69 187.48 308.67 180.31
  C 316.94 172.87 316.63 159.13 307.33 152.42
  Q 299.61 146.85 290.28 149.94
  C 286.10 151.33 283.49 154.75 279.51 156.00
  Q 272.45 158.20 267.84 152.13
  C 265.36 148.85 264.54 144.64 261.32 141.43
  Q 253.61 133.71 242.26 136.94"
/>
<path stroke="#e7ffad" vector-effect="non-scaling-stroke" d="
  M 242.26 136.94
  L 239.79 125.74"
/>
<path stroke="#748053" vector-effect="non-scaling-stroke" d="
  M 239.79 125.74
  Q 251.93 128.18 258.77 119.83
  C 267.87 108.73 261.59 93.37 248.04 90.39"
/>
<path stroke="#748053" vector-effect="non-scaling-stroke" d="
  M 296.59 124.16
  A 10.32 10.32 0.0 0 0 286.27 113.84
  A 10.32 10.32 0.0 0 0 275.95 124.16
  A 10.32 10.32 0.0 0 0 286.27 134.48
  A 10.32 10.32 0.0 0 0 296.59 124.16"
/>
<path stroke="#748053" vector-effect="non-scaling-stroke" d="
  M 325.01 207.34
  A 10.32 10.32 0.0 0 0 314.69 197.02
  A 10.32 10.32 0.0 0 0 304.37 207.34
  A 10.32 10.32 0.0 0 0 314.69 217.66
  A 10.32 10.32 0.0 0 0 325.01 207.34"
/>
<path stroke="#6d7d6a" vector-effect="non-scaling-stroke" d="
  M 151.21 169.50
  Q 143.47 168.02 139.02 161.64"
/>
<path stroke="#737f5a" vector-effect="non-scaling-stroke" d="
  M 239.79 125.74
  C 231.44 121.84 223.47 121.71 220.35 131.90
  Q 220.29 132.10 219.60 136.05
  C 217.92 145.79 209.42 152.17 199.50 151.27"
/>
<path stroke="#d8f1e7" vector-effect="non-scaling-stroke" d="
  M 62.98 149.51
  Q 53.81 157.42 47.23 167.48"
/>
<path stroke="#d9efec" vector-effect="non-scaling-stroke" d="
  M 47.23 167.48
  Q 23.79 172.28 0.00 174.04"
/>
<path stroke="#737f5a" vector-effect="non-scaling-stroke" d="
  M 242.26 136.94
  Q 232.08 141.44 230.66 150.97
  C 229.32 159.94 233.76 167.62 242.19 171.02"
/>
<path stroke="#737f5a" vector-effect="non-scaling-stroke" d="
  M 254.13 188.71
  Q 245.04 198.96 250.94 210.32
  C 254.05 216.32 259.12 218.75 265.49 219.84
  C 272.98 221.12 278.01 225.04 276.42 233.49
  C 275.88 236.35 274.07 239.58 273.78 242.57
  C 271.57 265.50 303.09 270.85 309.32 249.20"
/>
<path stroke="#e3fdbd" vector-effect="non-scaling-stroke" d="
  M 334.11 400.00
  Q 327.41 392.13 325.83 389.82
  Q 314.45 373.10 312.94 350.72
  Q 312.52 344.43 312.32 332.94
  C 312.13 322.52 307.34 312.40 301.51 303.64
  Q 293.83 292.08 283.93 279.80"
/>
<path stroke="#737f5a" vector-effect="non-scaling-stroke" d="
  M 283.93 279.80
  Q 282.24 277.89 279.98 276.81"
/>
<path stroke="#e3fdbd" vector-effect="non-scaling-stroke" d="
  M 279.98 276.81
  Q 272.95 262.86 264.03 249.95"
/>
<path stroke="#737f5a" vector-effect="non-scaling-stroke" d="
  M 264.03 249.95
  Q 264.19 235.29 250.29 230.77"
/>
<path stroke="#e3fdbd" vector-effect="non-scaling-stroke" d="
  M 250.29 230.77
  Q 241.81 217.53 230.28 206.76"
/>
<path stroke="#737f5a" vector-effect="non-scaling-stroke" d="
  M 230.28 206.76
  C 233.58 190.84 224.94 176.01 209.74 170.52"
/>
<path stroke="#6d7d6a" vector-effect="non-scaling-stroke" d="
  M 125.59 160.59
  C 122.27 167.49 121.59 175.44 129.84 178.92
  Q 131.55 179.64 136.48 180.55
  C 149.44 182.95 155.43 197.34 148.13 208.57"
/>
<path stroke="#6b7d71" vector-effect="non-scaling-stroke" d="
  M 148.13 208.57
  C 139.66 220.38 121.46 218.38 116.37 204.65
  C 114.17 198.73 115.40 194.51 117.41 188.98
  C 118.77 185.26 118.83 180.08 115.83 177.15
  C 112.40 173.80 108.57 173.50 104.13 172.57
  C 95.49 170.76 89.81 162.52 90.24 153.76"
/>
<path stroke="#d7f9da" vector-effect="non-scaling-stroke" d="
  M 148.13 208.57
  C 164.87 221.64 179.01 233.56 191.79 249.79"
/>
<path stroke="#6b7d71" vector-effect="non-scaling-stroke" d="
  M 191.79 249.79
  Q 184.93 252.74 181.85 259.21
  C 180.57 261.90 180.26 265.51 179.35 268.66
  Q 177.06 276.56 169.39 276.77"
/>
<path stroke="#d1f8eb" vector-effect="non-scaling-stroke" d="
  M 169.39 276.77
  L 153.63 263.98"
/>
<path stroke="#6b7d71" vector-effect="non-scaling-stroke" d="
  M 153.63 263.98
  C 171.19 261.37 175.64 238.79 160.20 230.14
  Q 152.98 226.09 144.21 229.39
  A 6.13 5.52 14.3 0 0 142.93 230.06
  C 136.55 234.49 129.72 239.33 123.18 231.66
  C 120.86 228.94 119.83 224.70 117.49 221.81
  Q 112.41 215.53 103.82 214.96"
/>
<path stroke="#d6f7e7" vector-effect="non-scaling-stroke" d="
  M 103.82 214.96
  L 88.78 202.57"
/>
<path stroke="#6b7d71" vector-effect="non-scaling-stroke" d="
  M 88.78 202.57
  Q 95.96 198.76 95.61 192.56
  C 95.13 183.94 86.91 179.89 79.28 184.23"
/>
<path stroke="#d6f7e7" vector-effect="non-scaling-stroke" d="
  M 79.28 184.23
  C 68.21 179.42 56.87 174.95 47.23 167.48"
/>
<path stroke="#6d7d6a" vector-effect="non-scaling-stroke" d="
  M 170.06 191.76
  C 164.51 215.75 184.25 235.46 208.21 229.95"
/>
<path stroke="#ddfbcd" vector-effect="non-scaling-stroke" d="
  M 208.21 229.95
  Q 218.01 242.97 228.99 254.90"
/>
<path stroke="#6d7d6a" vector-effect="non-scaling-stroke" d="
  M 228.99 254.90
  C 230.60 258.20 233.61 261.59 234.67 264.33
  Q 237.77 272.34 230.96 277.35
  C 228.69 279.02 224.72 280.43 221.77 282.45"
/>
<path stroke="#d7f9da" vector-effect="non-scaling-stroke" d="
  M 221.77 282.45
  L 215.14 273.23"
/>
<path stroke="#6d7d6a" vector-effect="non-scaling-stroke" d="
  M 215.14 273.23
  Q 217.81 265.90 214.93 259.79
  Q 208.14 245.37 191.79 249.79"
/>
<path stroke="#6b7a76" vector-effect="non-scaling-stroke" d="
  M 79.28 184.23
  Q 73.64 188.80 75.27 194.98
  Q 77.84 204.76 88.78 202.57"
/>
<path stroke="#6b7a76" vector-effect="non-scaling-stroke" d="
  M 103.82 214.96
  Q 91.72 215.32 86.40 226.49"
/>
<path stroke="#d1f5f0" vector-effect="non-scaling-stroke" d="
  M 86.40 226.49
  Q 73.08 225.31 62.50 225.13
  C 41.62 224.76 18.52 229.68 0.00 235.67"
/>
<path stroke="#707e64" vector-effect="non-scaling-stroke" d="
  M 230.28 206.76
  Q 225.66 224.38 208.21 229.95"
/>
<path stroke="#707e64" vector-effect="non-scaling-stroke" d="
  M 250.29 230.77
  Q 241.55 229.01 235.29 233.81
  Q 224.99 241.68 228.99 254.90"
/>
<path stroke="#667b7a" vector-effect="non-scaling-stroke" d="
  M 153.63 263.98
  Q 143.53 264.69 137.43 257.22
  C 135.77 255.18 134.87 252.83 133.76 250.49
  C 131.34 245.41 126.56 242.16 120.73 243.93
  C 117.37 244.94 114.56 247.42 112.18 248.86
  Q 108.62 251.02 103.39 251.19
  Q 99.39 251.32 94.75 248.79
  Q 82.51 242.09 86.40 226.49"
/>
<path stroke="#667b7a" vector-effect="non-scaling-stroke" d="
  M 169.39 276.77
  Q 165.91 276.44 162.67 275.35
  Q 157.83 273.72 156.20 273.61
  C 144.44 272.82 136.12 282.73 137.09 294.17"
/>
<path stroke="#c9f5f9" vector-effect="non-scaling-stroke" d="
  M 137.09 294.17
  L 120.20 283.98"
/>
<path stroke="#667b7a" vector-effect="non-scaling-stroke" d="
  M 120.20 283.98
  C 127.77 277.65 123.63 265.68 113.57 265.68
  Q 105.75 265.69 103.42 274.52"
/>
<path stroke="#c9f5f9" vector-effect="non-scaling-stroke" d="
  M 103.42 274.52
  C 88.14 272.05 71.10 269.71 56.20 270.89
  C 36.10 272.48 16.06 282.04 0.00 293.73"
/>
<path stroke="#707e64" vector-effect="non-scaling-stroke" d="
  M 264.03 249.95
  Q 263.09 257.67 257.44 262.38
  C 253.50 265.66 248.35 266.07 245.21 270.57
  Q 242.22 274.85 244.17 280.13
  Q 244.56 281.19 248.76 287.49
  Q 250.77 290.52 251.21 295.66"
/>
<path stroke="#6d7d6a" vector-effect="non-scaling-stroke" d="
  M 251.21 295.66
  C 251.37 304.94 245.55 312.38 236.44 314.42"
/>
<path stroke="#6b7d71" vector-effect="non-scaling-stroke" d="
  M 236.44 314.42
  Q 226.08 315.78 219.73 308.72
  C 212.64 300.85 213.73 289.18 221.77 282.45"
/>
<path stroke="#6b7d71" vector-effect="non-scaling-stroke" d="
  M 215.14 273.23
  C 211.77 281.55 203.55 286.06 194.65 284.50"
/>
<path stroke="#6b7a76" vector-effect="non-scaling-stroke" d="
  M 194.65 284.50
  Q 192.25 283.84 189.73 282.85
  C 184.42 280.77 178.01 281.10 175.05 287.00"
/>
<path stroke="#667b7a" vector-effect="non-scaling-stroke" d="
  M 175.05 287.00
  Q 173.84 289.12 173.37 291.60
  Q 172.92 294.04 172.25 296.44
  Q 169.82 305.12 161.51 308.53
  Q 155.78 310.89 149.15 308.79"
/>
<path stroke="#637a7f" vector-effect="non-scaling-stroke" d="
  M 149.15 308.79
  Q 139.14 304.96 137.09 294.17"
/>
<path stroke="#707e64" vector-effect="non-scaling-stroke" d="
  M 279.98 276.81
  C 272.51 273.78 264.82 279.50 265.69 287.39
  C 266.44 294.20 273.35 298.45 279.66 295.87
  C 286.12 293.22 288.40 285.52 283.93 279.80"
/>
<path stroke="#ddfbcd" vector-effect="non-scaling-stroke" d="
  M 290.60 400.00
  Q 290.15 389.49 288.72 381.30
  C 285.66 363.74 276.19 348.86 268.81 331.95
  Q 260.76 313.46 251.21 295.66"
/>
<path stroke="#637a7f" vector-effect="non-scaling-stroke" d="
  M 120.20 283.98
  C 112.39 289.71 102.94 283.92 103.42 274.52"
/>
<path stroke="#c9f5f9" vector-effect="non-scaling-stroke" d="
  M 149.15 308.79
  Q 156.81 323.01 160.79 333.23
  C 168.73 353.61 170.73 377.89 167.93 400.00"
/>
<path stroke="#d7f9da" vector-effect="non-scaling-stroke" d="
  M 236.44 314.42
  Q 240.87 327.01 245.91 343.82
  Q 254.28 371.74 255.47 400.00"
/>
<path stroke="#d6f7e7" vector-effect="non-scaling-stroke" d="
  M 227.81 400.00
  Q 232.62 376.54 225.93 353.34
  C 218.91 328.97 206.91 306.59 194.65 284.50"
/>
<path stroke="#d1f5f0" vector-effect="non-scaling-stroke" d="
  M 215.26 400.00
  Q 218.30 375.74 210.82 351.05
  Q 205.19 332.44 200.93 320.99"
/>
<path stroke="#6b7a76" vector-effect="non-scaling-stroke" d="
  M 200.93 320.99
  C 206.53 312.72 200.00 302.99 190.23 304.60"
/>
<path stroke="#d1f5f0" vector-effect="non-scaling-stroke" d="
  M 190.23 304.60
  Q 183.43 295.10 175.05 287.00"
/>
<path stroke="#667b7a" vector-effect="non-scaling-stroke" d="
  M 190.23 304.60
  Q 185.39 305.98 183.38 310.12
  C 178.01 321.16 192.86 330.60 200.93 320.99"
/>
</g>
<path fill="#d5d3fa" d="
  M 61.33 0.00
  Q 63.69 6.16 64.59 10.62
  C 67.90 26.90 60.81 43.26 51.12 56.16
  C 38.09 73.52 20.80 81.01 0.00 84.48
  L 0.00 0.00
  L 61.33 0.00
  Z"
/>
<path fill="#d8dbf3" d="
  M 85.25 0.00
  L 104.17 0.17
  Q 99.10 25.96 96.23 36.67
  C 91.05 56.07 79.49 76.54 65.18 90.42
  C 47.77 107.32 23.06 115.49 0.00 121.00
  L 0.00 84.48
  C 20.80 81.01 38.09 73.52 51.12 56.16
  C 60.81 43.26 67.90 26.90 64.59 10.62
  Q 63.69 6.16 61.33 0.00
  L 85.25 0.00
  Z"
/>
<path fill="#e1f0d0" d="
  M 197.23 0.00
  Q 191.90 19.84 187.42 39.91
  Q 182.06 63.85 173.03 86.34
  Q 160.38 83.04 153.09 91.91
  C 147.79 98.36 147.47 106.40 151.91 113.43
  Q 152.03 113.62 154.33 117.20
  Q 159.73 125.63 152.73 131.65
  C 150.77 133.34 147.68 134.73 145.16 135.94
  Q 139.64 138.59 137.25 145.34
  Q 134.14 154.10 139.02 161.64
  Q 131.58 164.31 125.59 160.59
  Q 128.49 149.51 120.44 141.54
  L 124.52 124.14
  C 133.54 123.29 137.44 113.92 131.90 106.80
  Q 142.10 89.83 148.13 69.28
  Q 158.30 34.66 161.13 0.84
  A 0.46 0.46 0.0 0 0 160.67 0.34
  L 142.93 0.33
  L 119.01 0.24
  L 104.17 0.17
  L 85.25 0.00
  L 197.23 0.00
  Z"
/>
<path fill="#e0fcc7" d="
  M 228.32 0.00
  C 217.36 24.28 211.09 49.63 204.56 75.33
  C 190.79 79.95 197.66 99.57 211.14 94.97
  L 209.37 116.80
  Q 198.99 112.86 191.15 118.65
  C 185.79 122.62 182.61 129.37 183.80 135.98
  Q 186.11 148.81 199.50 151.27
  Q 206.08 160.20 209.74 170.52
  C 192.16 165.48 175.29 174.36 170.06 191.76
  L 151.21 169.50
  Q 165.89 170.69 171.04 157.75
  Q 173.15 152.45 171.08 145.68
  C 170.14 142.59 168.17 140.62 166.39 137.64
  C 162.20 130.59 164.76 124.55 171.54 121.19
  Q 173.40 120.27 176.39 118.85
  A 5.08 4.82 11.5 0 0 177.32 118.27
  Q 186.99 110.52 184.41 99.08
  C 183.08 93.19 178.61 88.60 173.03 86.34
  Q 182.06 63.85 187.42 39.91
  Q 191.90 19.84 197.23 0.00
  L 228.32 0.00
  Z"
/>
<path fill="#e6feb3" d="
  M 400.00 0.00
  L 400.00 58.03
  C 391.55 46.54 383.77 39.44 370.34 33.92
  Q 356.81 28.35 340.64 24.92
  C 320.36 20.61 299.99 22.58 285.14 37.77
  Q 283.79 39.15 276.40 47.68
  C 268.91 56.31 263.94 61.30 259.32 69.26
  Q 254.65 77.32 248.04 90.39
  Q 233.26 89.17 227.90 102.25
  C 227.26 103.82 227.07 105.72 226.75 107.46
  C 225.04 116.84 219.04 120.65 209.37 116.80
  L 211.14 94.97
  C 222.94 89.51 217.41 72.67 204.56 75.33
  C 211.09 49.63 217.36 24.28 228.32 0.00
  L 400.00 0.00
  Z"
/>
<path fill="#dbe0ed" d="
  M 119.01 0.24
  Q 116.52 12.95 111.88 33.10
  Q 106.74 55.43 95.98 74.58
  Q 92.19 81.32 85.23 92.21
  Q 74.14 102.15 67.33 107.31
  Q 53.28 117.94 34.97 127.02
  Q 18.29 135.29 0.00 138.93
  L 0.00 121.00
  C 23.06 115.49 47.77 107.32 65.18 90.42
  C 79.49 76.54 91.05 56.07 96.23 36.67
  Q 99.10 25.96 104.17 0.17
  L 119.01 0.24
  Z"
/>
<path fill="#dde6e3" d="
  M 142.93 0.33
  C 138.08 25.88 133.64 46.46 126.28 66.99
  C 117.91 90.33 106.50 116.08 96.54 141.25
  Q 90.95 146.31 90.24 153.76
  C 83.90 149.76 78.15 145.73 70.21 147.30
  Q 67.24 147.88 62.98 149.51
  Q 62.92 140.94 66.75 133.19
  Q 76.74 113.00 85.23 92.21
  Q 92.19 81.32 95.98 74.58
  Q 106.74 55.43 111.88 33.10
  Q 116.52 12.95 119.01 0.24
  L 142.93 0.33
  Z"
/>
<path fill="#e0ebd8" d="
  M 131.90 106.80
  C 128.42 103.26 122.85 102.27 118.70 104.97
  C 109.55 110.93 114.15 123.90 124.52 124.14
  L 120.44 141.54
  Q 108.63 132.41 96.54 141.25
  C 106.50 116.08 117.91 90.33 126.28 66.99
  C 133.64 46.46 138.08 25.88 142.93 0.33
  L 160.67 0.34
  A 0.46 0.46 0.0 0 1 161.13 0.84
  Q 158.30 34.66 148.13 69.28
  Q 142.10 89.83 131.90 106.80
  Z"
/>
<path fill="#e7ffa6" d="
  M 400.00 58.03
  L 400.00 291.08
  Q 391.85 295.22 386.10 296.51
  C 372.41 299.60 355.50 292.81 344.42 284.51
  C 330.96 274.42 319.68 262.39 309.32 249.20
  Q 311.42 235.56 300.32 229.13
  C 297.36 227.41 293.74 227.01 291.08 226.40
  Q 280.47 223.98 281.87 213.98
  C 282.23 211.35 283.66 208.13 284.29 206.20
  A 7.73 7.57 -33.1 0 0 284.62 204.71
  C 286.64 187.22 267.49 176.95 254.13 188.71
  Q 247.61 180.35 242.19 171.02
  Q 250.14 173.70 256.49 170.22
  Q 257.31 169.77 260.49 167.58
  C 266.95 163.16 273.23 162.69 277.97 170.01
  C 279.34 172.12 280.46 175.78 282.19 177.89
  C 289.02 186.21 300.69 187.48 308.67 180.31
  C 316.94 172.87 316.63 159.13 307.33 152.42
  Q 299.61 146.85 290.28 149.94
  C 286.10 151.33 283.49 154.75 279.51 156.00
  Q 272.45 158.20 267.84 152.13
  C 265.36 148.85 264.54 144.64 261.32 141.43
  Q 253.61 133.71 242.26 136.94
  L 239.79 125.74
  Q 251.93 128.18 258.77 119.83
  C 267.87 108.73 261.59 93.37 248.04 90.39
  Q 254.65 77.32 259.32 69.26
  C 263.94 61.30 268.91 56.31 276.40 47.68
  Q 283.79 39.15 285.14 37.77
  C 299.99 22.58 320.36 20.61 340.64 24.92
  Q 356.81 28.35 370.34 33.92
  C 383.77 39.44 391.55 46.54 400.00 58.03
  Z
  M 296.59 124.16
  A 10.32 10.32 0.0 0 0 286.27 113.84
  A 10.32 10.32 0.0 0 0 275.95 124.16
  A 10.32 10.32 0.0 0 0 286.27 134.48
  A 10.32 10.32 0.0 0 0 296.59 124.16
  Z
  M 325.01 207.34
  A 10.32 10.32 0.0 0 0 314.69 197.02
  A 10.32 10.32 0.0 0 0 304.37 207.34
  A 10.32 10.32 0.0 0 0 314.69 217.66
  A 10.32 10.32 0.0 0 0 325.01 207.34
  Z"
/>
<path fill="#000000" d="
  M 211.14 94.97
  C 197.66 99.57 190.79 79.95 204.56 75.33
  C 217.41 72.67 222.94 89.51 211.14 94.97
  Z"
/>
<path fill="#000000" d="
  M 173.03 86.34
  C 178.61 88.60 183.08 93.19 184.41 99.08
  Q 186.99 110.52 177.32 118.27
  A 5.08 4.82 11.5 0 1 176.39 118.85
  Q 173.40 120.27 171.54 121.19
  C 164.76 124.55 162.20 130.59 166.39 137.64
  C 168.17 140.62 170.14 142.59 171.08 145.68
  Q 173.15 152.45 171.04 157.75
  Q 165.89 170.69 151.21 169.50
  Q 143.47 168.02 139.02 161.64
  Q 134.14 154.10 137.25 145.34
  Q 139.64 138.59 145.16 135.94
  C 147.68 134.73 150.77 133.34 152.73 131.65
  Q 159.73 125.63 154.33 117.20
  Q 152.03 113.62 151.91 113.43
  C 147.47 106.40 147.79 98.36 153.09 91.91
  Q 160.38 83.04 173.03 86.34
  Z"
/>
<path fill="#000000" d="
  M 248.04 90.39
  C 261.59 93.37 267.87 108.73 258.77 119.83
  Q 251.93 128.18 239.79 125.74
  C 231.44 121.84 223.47 121.71 220.35 131.90
  Q 220.29 132.10 219.60 136.05
  C 217.92 145.79 209.42 152.17 199.50 151.27
  Q 186.11 148.81 183.80 135.98
  C 182.61 129.37 185.79 122.62 191.15 118.65
  Q 198.99 112.86 209.37 116.80
  C 219.04 120.65 225.04 116.84 226.75 107.46
  C 227.07 105.72 227.26 103.82 227.90 102.25
  Q 233.26 89.17 248.04 90.39
  Z"
/>
<path fill="#dbe9ec" d="
  M 85.23 92.21
  Q 76.74 113.00 66.75 133.19
  Q 62.92 140.94 62.98 149.51
  Q 53.81 157.42 47.23 167.48
  Q 23.79 172.28 0.00 174.04
  L 0.00 138.93
  Q 18.29 135.29 34.97 127.02
  Q 53.28 117.94 67.33 107.31
  Q 74.14 102.15 85.23 92.21
  Z"
/>
<path fill="#000000" d="
  M 131.90 106.80
  C 137.44 113.92 133.54 123.29 124.52 124.14
  C 114.15 123.90 109.55 110.93 118.70 104.97
  C 122.85 102.27 128.42 103.26 131.90 106.80
  Z"
/>
<circle fill="#000000" cx="286.27" cy="124.16" r="10.32"/>
<path fill="#e6feb3" d="
  M 239.79 125.74
  L 242.26 136.94
  Q 232.08 141.44 230.66 150.97
  C 229.32 159.94 233.76 167.62 242.19 171.02
  Q 247.61 180.35 254.13 188.71
  Q 245.04 198.96 250.94 210.32
  C 254.05 216.32 259.12 218.75 265.49 219.84
  C 272.98 221.12 278.01 225.04 276.42 233.49
  C 275.88 236.35 274.07 239.58 273.78 242.57
  C 271.57 265.50 303.09 270.85 309.32 249.20
  C 319.68 262.39 330.96 274.42 344.42 284.51
  C 355.50 292.81 372.41 299.60 386.10 296.51
  Q 391.85 295.22 400.00 291.08
  L 400.00 400.00
  L 334.11 400.00
  Q 327.41 392.13 325.83 389.82
  Q 314.45 373.10 312.94 350.72
  Q 312.52 344.43 312.32 332.94
  C 312.13 322.52 307.34 312.40 301.51 303.64
  Q 293.83 292.08 283.93 279.80
  Q 282.24 277.89 279.98 276.81
  Q 272.95 262.86 264.03 249.95
  Q 264.19 235.29 250.29 230.77
  Q 241.81 217.53 230.28 206.76
  C 233.58 190.84 224.94 176.01 209.74 170.52
  Q 206.08 160.20 199.50 151.27
  C 209.42 152.17 217.92 145.79 219.60 136.05
  Q 220.29 132.10 220.35 131.90
  C 223.47 121.71 231.44 121.84 239.79 125.74
  Z"
/>
<path fill="#000000" d="
  M 242.19 171.02
  C 233.76 167.62 229.32 159.94 230.66 150.97
  Q 232.08 141.44 242.26 136.94
  Q 253.61 133.71 261.32 141.43
  C 264.54 144.64 265.36 148.85 267.84 152.13
  Q 272.45 158.20 279.51 156.00
  C 283.49 154.75 286.10 151.33 290.28 149.94
  Q 299.61 146.85 307.33 152.42
  C 316.63 159.13 316.94 172.87 308.67 180.31
  C 300.69 187.48 289.02 186.21 282.19 177.89
  C 280.46 175.78 279.34 172.12 277.97 170.01
  C 273.23 162.69 266.95 163.16 260.49 167.58
  Q 257.31 169.77 256.49 170.22
  Q 250.14 173.70 242.19 171.02
  Z"
/>
<path fill="#000000" d="
  M 120.44 141.54
  Q 128.49 149.51 125.59 160.59
  C 122.27 167.49 121.59 175.44 129.84 178.92
  Q 131.55 179.64 136.48 180.55
  C 149.44 182.95 155.43 197.34 148.13 208.57
  C 139.66 220.38 121.46 218.38 116.37 204.65
  C 114.17 198.73 115.40 194.51 117.41 188.98
  C 118.77 185.26 118.83 180.08 115.83 177.15
  C 112.40 173.80 108.57 173.50 104.13 172.57
  C 95.49 170.76 89.81 162.52 90.24 153.76
  Q 90.95 146.31 96.54 141.25
  Q 108.63 132.41 120.44 141.54
  Z"
/>
<path fill="#d5f9e1" d="
  M 90.24 153.76
  C 89.81 162.52 95.49 170.76 104.13 172.57
  C 108.57 173.50 112.40 173.80 115.83 177.15
  C 118.83 180.08 118.77 185.26 117.41 188.98
  C 115.40 194.51 114.17 198.73 116.37 204.65
  C 121.46 218.38 139.66 220.38 148.13 208.57
  C 164.87 221.64 179.01 233.56 191.79 249.79
  Q 184.93 252.74 181.85 259.21
  C 180.57 261.90 180.26 265.51 179.35 268.66
  Q 177.06 276.56 169.39 276.77
  L 153.63 263.98
  C 171.19 261.37 175.64 238.79 160.20 230.14
  Q 152.98 226.09 144.21 229.39
  A 6.13 5.52 14.3 0 0 142.93 230.06
  C 136.55 234.49 129.72 239.33 123.18 231.66
  C 120.86 228.94 119.83 224.70 117.49 221.81
  Q 112.41 215.53 103.82 214.96
  L 88.78 202.57
  Q 95.96 198.76 95.61 192.56
  C 95.13 183.94 86.91 179.89 79.28 184.23
  C 68.21 179.42 56.87 174.95 47.23 167.48
  Q 53.81 157.42 62.98 149.51
  Q 67.24 147.88 70.21 147.30
  C 78.15 145.73 83.90 149.76 90.24 153.76
  Z"
/>
<path fill="#d9f9d3" d="
  M 139.02 161.64
  Q 143.47 168.02 151.21 169.50
  L 170.06 191.76
  C 164.51 215.75 184.25 235.46 208.21 229.95
  Q 218.01 242.97 228.99 254.90
  C 230.60 258.20 233.61 261.59 234.67 264.33
  Q 237.77 272.34 230.96 277.35
  C 228.69 279.02 224.72 280.43 221.77 282.45
  L 215.14 273.23
  Q 217.81 265.90 214.93 259.79
  Q 208.14 245.37 191.79 249.79
  C 179.01 233.56 164.87 221.64 148.13 208.57
  C 155.43 197.34 149.44 182.95 136.48 180.55
  Q 131.55 179.64 129.84 178.92
  C 121.59 175.44 122.27 167.49 125.59 160.59
  Q 131.58 164.31 139.02 161.64
  Z"
/>
<path fill="#d6f4ec" d="
  M 47.23 167.48
  C 56.87 174.95 68.21 179.42 79.28 184.23
  Q 73.64 188.80 75.27 194.98
  Q 77.84 204.76 88.78 202.57
  L 103.82 214.96
  Q 91.72 215.32 86.40 226.49
  Q 73.08 225.31 62.50 225.13
  C 41.62 224.76 18.52 229.68 0.00 235.67
  L 0.00 174.04
  Q 23.79 172.28 47.23 167.48
  Z"
/>
<path fill="#000000" d="
  M 209.74 170.52
  C 224.94 176.01 233.58 190.84 230.28 206.76
  Q 225.66 224.38 208.21 229.95
  C 184.25 235.46 164.51 215.75 170.06 191.76
  C 175.29 174.36 192.16 165.48 209.74 170.52
  Z"
/>
<path fill="#000000" d="
  M 88.78 202.57
  Q 77.84 204.76 75.27 194.98
  Q 73.64 188.80 79.28 184.23
  C 86.91 179.89 95.13 183.94 95.61 192.56
  Q 95.96 198.76 88.78 202.57
  Z"
/>
<path fill="#000000" d="
  M 309.32 249.20
  C 303.09 270.85 271.57 265.50 273.78 242.57
  C 274.07 239.58 275.88 236.35 276.42 233.49
  C 278.01 225.04 272.98 221.12 265.49 219.84
  C 259.12 218.75 254.05 216.32 250.94 210.32
  Q 245.04 198.96 254.13 188.71
  C 267.49 176.95 286.64 187.22 284.62 204.71
  A 7.73 7.57 -33.1 0 1 284.29 206.20
  C 283.66 208.13 282.23 211.35 281.87 213.98
  Q 280.47 223.98 291.08 226.40
  C 293.74 227.01 297.36 227.41 300.32 229.13
  Q 311.42 235.56 309.32 249.20
  Z"
/>
<circle fill="#000000" cx="314.69" cy="207.34" r="10.32"/>
<path fill="#e0fcc7" d="
  M 250.29 230.77
  Q 241.55 229.01 235.29 233.81
  Q 224.99 241.68 228.99 254.90
  Q 218.01 242.97 208.21 229.95
  Q 225.66 224.38 230.28 206.76
  Q 241.81 217.53 250.29 230.77
  Z"
/>
<path fill="#000000" d="
  M 103.82 214.96
  Q 112.41 215.53 117.49 221.81
  C 119.83 224.70 120.86 228.94 123.18 231.66
  C 129.72 239.33 136.55 234.49 142.93 230.06
  A 6.13 5.52 14.3 0 1 144.21 229.39
  Q 152.98 226.09 160.20 230.14
  C 175.64 238.79 171.19 261.37 153.63 263.98
  Q 143.53 264.69 137.43 257.22
  C 135.77 255.18 134.87 252.83 133.76 250.49
  C 131.34 245.41 126.56 242.16 120.73 243.93
  C 117.37 244.94 114.56 247.42 112.18 248.86
  Q 108.62 251.02 103.39 251.19
  Q 99.39 251.32 94.75 248.79
  Q 82.51 242.09 86.40 226.49
  Q 91.72 215.32 103.82 214.96
  Z"
/>
<path fill="#ccf6f4" d="
  M 86.40 226.49
  Q 82.51 242.09 94.75 248.79
  Q 99.39 251.32 103.39 251.19
  Q 108.62 251.02 112.18 248.86
  C 114.56 247.42 117.37 244.94 120.73 243.93
  C 126.56 242.16 131.34 245.41 133.76 250.49
  C 134.87 252.83 135.77 255.18 137.43 257.22
  Q 143.53 264.69 153.63 263.98
  L 169.39 276.77
  Q 165.91 276.44 162.67 275.35
  Q 157.83 273.72 156.20 273.61
  C 144.44 272.82 136.12 282.73 137.09 294.17
  L 120.20 283.98
  C 127.77 277.65 123.63 265.68 113.57 265.68
  Q 105.75 265.69 103.42 274.52
  C 88.14 272.05 71.10 269.71 56.20 270.89
  C 36.10 272.48 16.06 282.04 0.00 293.73
  L 0.00 235.67
  C 18.52 229.68 41.62 224.76 62.50 225.13
  Q 73.08 225.31 86.40 226.49
  Z"
/>
<path fill="#000000" d="
  M 250.29 230.77
  Q 264.19 235.29 264.03 249.95
  Q 263.09 257.67 257.44 262.38
  C 253.50 265.66 248.35 266.07 245.21 270.57
  Q 242.22 274.85 244.17 280.13
  Q 244.56 281.19 248.76 287.49
  Q 250.77 290.52 251.21 295.66
  C 251.37 304.94 245.55 312.38 236.44 314.42
  Q 226.08 315.78 219.73 308.72
  C 212.64 300.85 213.73 289.18 221.77 282.45
  C 224.72 280.43 228.69 279.02 230.96 277.35
  Q 237.77 272.34 234.67 264.33
  C 233.61 261.59 230.60 258.20 228.99 254.90
  Q 224.99 241.68 235.29 233.81
  Q 241.55 229.01 250.29 230.77
  Z"
/>
<path fill="#000000" d="
  M 215.14 273.23
  C 211.77 281.55 203.55 286.06 194.65 284.50
  Q 192.25 283.84 189.73 282.85
  C 184.42 280.77 178.01 281.10 175.05 287.00
  Q 173.84 289.12 173.37 291.60
  Q 172.92 294.04 172.25 296.44
  Q 169.82 305.12 161.51 308.53
  Q 155.78 310.89 149.15 308.79
  Q 139.14 304.96 137.09 294.17
  C 136.12 282.73 144.44 272.82 156.20 273.61
  Q 157.83 273.72 162.67 275.35
  Q 165.91 276.44 169.39 276.77
  Q 177.06 276.56 179.35 268.66
  C 180.26 265.51 180.57 261.90 181.85 259.21
  Q 184.93 252.74 191.79 249.79
  Q 208.14 245.37 214.93 259.79
  Q 217.81 265.90 215.14 273.23
  Z"
/>
<path fill="#e0fcc7" d="
  M 279.98 276.81
  C 272.51 273.78 264.82 279.50 265.69 287.39
  C 266.44 294.20 273.35 298.45 279.66 295.87
  C 286.12 293.22 288.40 285.52 283.93 279.80
  Q 293.83 292.08 301.51 303.64
  C 307.34 312.40 312.13 322.52 312.32 332.94
  Q 312.52 344.43 312.94 350.72
  Q 314.45 373.10 325.83 389.82
  Q 327.41 392.13 334.11 400.00
  L 290.60 400.00
  Q 290.15 389.49 288.72 381.30
  C 285.66 363.74 276.19 348.86 268.81 331.95
  Q 260.76 313.46 251.21 295.66
  Q 250.77 290.52 248.76 287.49
  Q 244.56 281.19 244.17 280.13
  Q 242.22 274.85 245.21 270.57
  C 248.35 266.07 253.50 265.66 257.44 262.38
  Q 263.09 257.67 264.03 249.95
  Q 272.95 262.86 279.98 276.81
  Z"
/>
<path fill="#000000" d="
  M 120.20 283.98
  C 112.39 289.71 102.94 283.92 103.42 274.52
  Q 105.75 265.69 113.57 265.68
  C 123.63 265.68 127.77 277.65 120.20 283.98
  Z"
/>
<path fill="#c5f4fd" d="
  M 103.42 274.52
  C 102.94 283.92 112.39 289.71 120.20 283.98
  L 137.09 294.17
  Q 139.14 304.96 149.15 308.79
  Q 156.81 323.01 160.79 333.23
  C 168.73 353.61 170.73 377.89 167.93 400.00
  L 0.00 400.00
  L 0.00 293.73
  C 16.06 282.04 36.10 272.48 56.20 270.89
  C 71.10 269.71 88.14 272.05 103.42 274.52
  Z"
/>
<path fill="#d5f9e1" d="
  M 215.14 273.23
  L 221.77 282.45
  C 213.73 289.18 212.64 300.85 219.73 308.72
  Q 226.08 315.78 236.44 314.42
  Q 240.87 327.01 245.91 343.82
  Q 254.28 371.74 255.47 400.00
  L 227.81 400.00
  Q 232.62 376.54 225.93 353.34
  C 218.91 328.97 206.91 306.59 194.65 284.50
  C 203.55 286.06 211.77 281.55 215.14 273.23
  Z"
/>
<path fill="#000000" d="
  M 279.98 276.81
  Q 282.24 277.89 283.93 279.80
  C 288.40 285.52 286.12 293.22 279.66 295.87
  C 273.35 298.45 266.44 294.20 265.69 287.39
  C 264.82 279.50 272.51 273.78 279.98 276.81
  Z"
/>
<path fill="#d6f4ec" d="
  M 194.65 284.50
  C 206.91 306.59 218.91 328.97 225.93 353.34
  Q 232.62 376.54 227.81 400.00
  L 215.26 400.00
  Q 218.30 375.74 210.82 351.05
  Q 205.19 332.44 200.93 320.99
  C 206.53 312.72 200.00 302.99 190.23 304.60
  Q 183.43 295.10 175.05 287.00
  C 178.01 281.10 184.42 280.77 189.73 282.85
  Q 192.25 283.84 194.65 284.50
  Z"
/>
<path fill="#ccf6f4" d="
  M 190.23 304.60
  Q 185.39 305.98 183.38 310.12
  C 178.01 321.16 192.86 330.60 200.93 320.99
  Q 205.19 332.44 210.82 351.05
  Q 218.30 375.74 215.26 400.00
  L 167.93 400.00
  C 170.73 377.89 168.73 353.61 160.79 333.23
  Q 156.81 323.01 149.15 308.79
  Q 155.78 310.89 161.51 308.53
  Q 169.82 305.12 172.25 296.44
  Q 172.92 294.04 173.37 291.60
  Q 173.84 289.12 175.05 287.00
  Q 183.43 295.10 190.23 304.60
  Z"
/>
<path fill="#d9f9d3" d="
  M 290.60 400.00
  L 255.47 400.00
  Q 254.28 371.74 245.91 343.82
  Q 240.87 327.01 236.44 314.42
  C 245.55 312.38 251.37 304.94 251.21 295.66
  Q 260.76 313.46 268.81 331.95
  C 276.19 348.86 285.66 363.74 288.72 381.30
  Q 290.15 389.49 290.60 400.00
  Z"
/>
<path fill="#000000" d="
  M 200.93 320.99
  C 192.86 330.60 178.01 321.16 183.38 310.12
  Q 185.39 305.98 190.23 304.60
  C 200.00 302.99 206.53 312.72 200.93 320.99
  Z"
/>
</svg>
