<?xml version="1.0" encoding="UTF-8" standalone="no"?>
<!DOCTYPE svg PUBLIC "-//W3C//DTD SVG 1.1//EN" "http://www.w3.org/Graphics/SVG/1.1/DTD/svg11.dtd">
<svg xmlns="http://www.w3.org/2000/svg" version="1.1" viewBox="0.00 0.00 32.00 32.00">
<path stroke="#888aa7" stroke-width="2.00" fill="none" stroke-linecap="butt" vector-effect="non-scaling-stroke" d="
  M 16.05 18.49
  Q 16.58 18.49 17.05 18.05
  Q 20.20 15.11 21.38 13.94
  A 0.39 0.38 67.8 0 1 22.03 14.22
  L 22.03 24.62
  A 0.51 0.51 0.0 0 0 22.54 25.13
  L 26.13 25.13
  A 0.48 0.48 0.0 0 0 26.61 24.65
  L 26.61 6.68
  A 0.56 0.55 -0.0 0 0 26.05 6.13
  L 22.29 6.13
  A 0.88 0.88 0.0 0 0 21.48 6.66
  Q 18.69 12.85 16.91 17.20
  Q 16.53 18.12 16.05 18.12
  Q 15.56 18.12 15.18 17.20
  Q 13.40 12.85 10.62 6.66
  A 0.88 0.88 0.0 0 0 9.81 6.13
  L 6.05 6.12
  A 0.56 0.55 0.0 0 0 5.49 6.67
  L 5.48 24.64
  A 0.48 0.48 0.0 0 0 5.96 25.12
  L 9.55 25.13
  A 0.51 0.51 0.0 0 0 10.06 24.62
  L 10.06 14.22
  A 0.39 0.38 -67.8 0 1 10.71 13.94
  Q 11.89 15.11 15.05 18.05
  Q 15.52 18.49 16.05 18.49"
/>
<path fill="#141e5f" d="
  M 29.08 0.00
  Q 31.03 0.97 32.00 2.93
  L 32.00 29.02
  Q 31.08 31.01 29.06 32.00
  L 2.99 32.00
  Q 0.98 31.08 0.00 29.05
  L 0.00 2.93
  Q 0.97 0.95 2.96 0.00
  L 29.08 0.00
  Z
  M 16.05 18.49
  Q 16.58 18.49 17.05 18.05
  Q 20.20 15.11 21.38 13.94
  A 0.39 0.38 67.8 0 1 22.03 14.22
  L 22.03 24.62
  A 0.51 0.51 0.0 0 0 22.54 25.13
  L 26.13 25.13
  A 0.48 0.48 0.0 0 0 26.61 24.65
  L 26.61 6.68
  A 0.56 0.55 -0.0 0 0 26.05 6.13
  L 22.29 6.13
  A 0.88 0.88 0.0 0 0 21.48 6.66
  Q 18.69 12.85 16.91 17.20
  Q 16.53 18.12 16.05 18.12
  Q 15.56 18.12 15.18 17.20
  Q 13.40 12.85 10.62 6.66
  A 0.88 0.88 0.0 0 0 9.81 6.13
  L 6.05 6.12
  A 0.56 0.55 0.0 0 0 5.49 6.67
  L 5.48 24.64
  A 0.48 0.48 0.0 0 0 5.96 25.12
  L 9.55 25.13
  A 0.51 0.51 0.0 0 0 10.06 24.62
  L 10.06 14.22
  A 0.39 0.38 -67.8 0 1 10.71 13.94
  Q 11.89 15.11 15.05 18.05
  Q 15.52 18.49 16.05 18.49
  Z"
/>
<path fill="#fbf6ee" d="
  M 16.05 18.12
  Q 16.53 18.12 16.91 17.20
  Q 18.69 12.85 21.48 6.66
  A 0.88 0.88 0.0 0 1 22.29 6.13
  L 26.05 6.13
  A 0.56 0.55 0.0 0 1 26.61 6.68
  L 26.61 24.65
  A 0.48 0.48 0.0 0 1 26.13 25.13
  L 22.54 25.13
  A 0.51 0.51 0.0 0 1 22.03 24.62
  L 22.03 14.22
  A 0.39 0.38 67.8 0 0 21.38 13.94
  Q 20.20 15.11 17.05 18.05
  Q 16.58 18.49 16.05 18.49
  Q 15.52 18.49 15.05 18.05
  Q 11.89 15.11 10.71 13.94
  A 0.39 0.38 -67.8 0 0 10.06 14.22
  L 10.06 24.62
  A 0.51 0.51 0.0 0 1 9.55 25.13
  L 5.96 25.12
  A 0.48 0.48 0.0 0 1 5.48 24.64
  L 5.49 6.67
  A 0.56 0.55 0.0 0 1 6.05 6.12
  L 9.81 6.13
  A 0.88 0.88 0.0 0 1 10.62 6.66
  Q 13.40 12.85 15.18 17.20
  Q 15.56 18.12 16.05 18.12
  Z"
/>
</svg>
