<?xml version="1.0" encoding="UTF-8" standalone="no"?>
<!-- Created with Inkscape (http://www.inkscape.org/) -->

<svg
   version="1.1"
   id="svg18"
   width="1297.0601"
   height="293.49731"
   viewBox="0 0 1297.06 293.49732"
   sodipodi:docname="member-vault-logo-cmyk-02.eps"
   xmlns:inkscape="http://www.inkscape.org/namespaces/inkscape"
   xmlns:sodipodi="http://sodipodi.sourceforge.net/DTD/sodipodi-0.dtd"
   xmlns="http://www.w3.org/2000/svg"
   xmlns:svg="http://www.w3.org/2000/svg">
  <defs
     id="defs22" />
  <sodipodi:namedview
     id="namedview20"
     pagecolor="#ffffff"
     bordercolor="#000000"
     borderopacity="0.25"
     inkscape:showpageshadow="2"
     inkscape:pageopacity="0.0"
     inkscape:pagecheckerboard="0"
     inkscape:deskcolor="#d1d1d1"
     showgrid="false" />
  <g
     id="g26"
     inkscape:groupmode="layer"
     inkscape:label="Page 1"
     transform="matrix(1.3333333,0,0,-1.3333333,-245.7,784.05732)">
    <g
       id="g28"
       transform="scale(0.1)">
      <path
         d="m 4043.98,4779.82 c 0,-607.86 -492.77,-1100.62 -1100.62,-1100.62 -607.85,0 -1100.61,492.76 -1100.61,1100.62 0,607.85 492.76,1100.61 1100.61,1100.61 607.85,0 1100.62,-492.76 1100.62,-1100.61"
         style="fill:#3cba6c;fill-opacity:1;fill-rule:nonzero;stroke:none"
         id="path30" />
      <path
         d="m 3819.8,5006.04 c -9.58,37.23 -47.55,59.67 -84.77,50.05 -37.23,-9.58 -59.65,-47.53 -50.06,-84.76 16.01,-62.21 24.13,-126.64 24.13,-191.51 0,-422.24 -343.5,-765.74 -765.74,-765.74 -194.85,0 -377.8,72.03 -519.63,203.74 l 141.49,431.68 159.25,-318.49 c 12.59,-25.19 39.09,-40.35 67.19,-38.31 28.09,2 52.21,20.71 61.12,47.43 l 181.79,545.39 159.78,-319.57 c 0.92,-1.84 1.93,-3.6 2.99,-5.32 0.27,-0.44 0.55,-0.87 0.84,-1.31 0.88,-1.36 1.79,-2.68 2.75,-3.96 0.28,-0.38 0.56,-0.76 0.85,-1.14 1.27,-1.63 2.59,-3.21 3.98,-4.7 0.03,-0.03 0.05,-0.05 0.08,-0.07 1.35,-1.45 2.78,-2.81 4.24,-4.13 0.42,-0.37 0.84,-0.73 1.27,-1.1 1.24,-1.06 2.52,-2.08 3.82,-3.04 0.36,-0.27 0.7,-0.55 1.07,-0.81 1.6,-1.14 3.26,-2.21 4.95,-3.2 0.51,-0.3 1.02,-0.57 1.53,-0.86 1.41,-0.78 2.85,-1.52 4.31,-2.2 0.46,-0.22 0.9,-0.44 1.36,-0.65 1.89,-0.83 3.79,-1.57 5.73,-2.23 0.17,-0.06 0.32,-0.14 0.48,-0.19 0.31,-0.1 0.61,-0.16 0.91,-0.25 1.65,-0.53 3.32,-0.99 5.01,-1.39 0.47,-0.12 0.94,-0.25 1.41,-0.35 1.94,-0.42 3.89,-0.75 5.87,-1.01 0.58,-0.08 1.16,-0.12 1.73,-0.18 1.51,-0.15 3.03,-0.26 4.55,-0.32 0.6,-0.02 1.21,-0.05 1.81,-0.06 0.26,0 0.52,-0.03 0.78,-0.03 0.6,0 1.19,0.09 1.78,0.1 1.68,0.05 3.35,0.13 5.01,0.29 0.92,0.09 1.84,0.22 2.75,0.35 1.57,0.22 3.11,0.48 4.64,0.8 0.93,0.2 1.85,0.41 2.77,0.63 1.64,0.42 3.25,0.91 4.85,1.44 0.77,0.25 1.53,0.48 2.29,0.76 4.56,1.69 8.93,3.83 13.04,6.42 0.63,0.39 1.19,0.84 1.8,1.25 1.28,0.86 2.56,1.71 3.77,2.66 0.79,0.61 1.51,1.28 2.26,1.92 0.98,0.83 1.97,1.63 2.9,2.52 0.75,0.7 1.42,1.45 2.12,2.18 0.88,0.91 1.77,1.79 2.59,2.75 0.65,0.74 1.22,1.52 1.83,2.29 0.81,1.01 1.63,2.01 2.38,3.08 0.56,0.79 1.04,1.62 1.57,2.43 0.71,1.09 1.43,2.17 2.07,3.3 0.56,0.97 1.03,1.98 1.53,2.97 0.52,1.03 1.08,2.03 1.55,3.09 0.84,1.88 1.57,3.8 2.24,5.74 0.07,0.22 0.18,0.42 0.25,0.65 l 262.6,787.8 c 8.53,25.59 1.5,53.82 -18.03,72.42 -168.96,160.89 -390.52,249.5 -623.87,249.5 -499,0 -904.97,-405.97 -904.97,-904.97 0,-73.17 8.77,-145.99 26.06,-216.42 7.8,-31.77 36.25,-53.04 67.55,-53.04 5.49,0 11.08,0.66 16.66,2.03 37.33,9.16 60.17,46.86 51,84.2 -14.63,59.59 -22.04,121.23 -22.04,183.23 0,422.23 343.51,765.74 765.74,765.74 182.83,0 357.11,-64.28 495.4,-181.89 l -195.04,-585.13 -159.78,319.56 c -0.13,0.27 -0.29,0.49 -0.42,0.76 -0.92,1.77 -1.89,3.52 -2.95,5.22 -0.58,0.92 -1.23,1.77 -1.85,2.65 -0.68,0.98 -1.33,1.98 -2.07,2.93 -0.73,0.95 -1.53,1.82 -2.3,2.72 -0.71,0.82 -1.39,1.66 -2.13,2.45 -0.8,0.85 -1.66,1.63 -2.5,2.43 -0.81,0.77 -1.59,1.56 -2.44,2.3 -0.83,0.71 -1.7,1.36 -2.55,2.03 -0.94,0.74 -1.85,1.5 -2.83,2.19 -0.87,0.62 -1.79,1.16 -2.69,1.73 -1,0.65 -1.99,1.32 -3.05,1.92 -1.07,0.61 -2.17,1.13 -3.28,1.68 -0.92,0.47 -1.82,0.97 -2.79,1.4 -4.19,1.87 -8.56,3.33 -13.05,4.35 -0.93,0.21 -1.87,0.33 -2.81,0.51 -1.3,0.24 -2.59,0.5 -3.9,0.67 -1.11,0.14 -2.21,0.19 -3.33,0.27 -1.15,0.09 -2.3,0.21 -3.46,0.24 -1.12,0.03 -2.22,-0.02 -3.32,-0.05 -1.16,-0.02 -2.34,-0.01 -3.51,-0.1 -1.05,-0.07 -2.1,-0.23 -3.14,-0.35 -1.21,-0.15 -2.42,-0.26 -3.63,-0.47 -1.04,-0.17 -2.07,-0.44 -3.1,-0.67 -1.18,-0.25 -2.36,-0.48 -3.54,-0.8 -1.22,-0.33 -2.41,-0.77 -3.62,-1.17 -0.94,-0.32 -1.89,-0.58 -2.82,-0.94 -4.31,-1.64 -8.45,-3.71 -12.35,-6.17 -0.72,-0.46 -1.38,-0.97 -2.08,-1.45 -1.18,-0.8 -2.36,-1.59 -3.48,-2.47 -0.85,-0.65 -1.62,-1.36 -2.43,-2.05 -0.92,-0.79 -1.86,-1.55 -2.75,-2.38 -0.77,-0.74 -1.48,-1.53 -2.22,-2.3 -0.84,-0.87 -1.69,-1.72 -2.48,-2.64 -0.68,-0.77 -1.29,-1.6 -1.93,-2.4 -0.77,-0.98 -1.56,-1.94 -2.28,-2.96 -0.6,-0.84 -1.12,-1.72 -1.67,-2.58 -0.67,-1.05 -1.36,-2.07 -1.99,-3.15 -0.59,-1.06 -1.11,-2.16 -1.66,-3.25 -0.46,-0.94 -0.97,-1.84 -1.4,-2.81 -0.95,-2.11 -1.79,-4.26 -2.52,-6.45 l -181.78,-545.35 -159.78,319.57 c -12.63,25.23 -39.24,40.36 -67.38,38.29 -28.14,-2.07 -52.25,-20.93 -61.04,-47.74 l -207.69,-633.65 c -8.04,-24.56 -1.82,-51.56 16.17,-70.13 171.95,-177.39 402.52,-275.08 649.24,-275.08 499.01,0 904.97,405.97 904.97,904.97 0,76.57 -9.6,152.68 -28.53,226.22"
         style="fill:#000000;fill-opacity:1;fill-rule:nonzero;stroke:none"
         id="path32" />
      <path
         d="m 5137.72,4375.83 -1.16,588.67 -292.03,-490.56 h -53.08 l -292.03,487.09 v -585.2 h -110.81 v 807.98 h 94.64 l 337.05,-567.9 332.43,567.9 h 94.65 l 1.15,-807.98 h -110.81"
         style="fill:#25292d;fill-opacity:1;fill-rule:nonzero;stroke:none"
         id="path34" />
      <path
         d="m 5462.2,4621.66 339.87,196.22 c -61.35,83.2 -164.69,107.51 -257.66,53.83 -91.97,-53.1 -124.15,-154.32 -82.21,-250.05 z m 469.66,179.19 -429.85,-248.17 c 65.69,-86.04 176.44,-104.73 281.39,-44.13 61.98,35.78 101.85,86.78 116.01,152.28 l 88.77,-31.39 c -15.67,-83.68 -71.32,-155.81 -159.29,-206.6 -170.94,-98.68 -350.12,-51.52 -441.3,106.43 -90.61,156.93 -42.87,335.11 110.07,423.41 152.95,88.3 325.39,41.25 419.46,-121.69 4.62,-8 10.55,-20.57 14.74,-30.14"
         style="fill:#25292d;fill-opacity:1;fill-rule:nonzero;stroke:none"
         id="path36" />
      <path
         d="m 7070.78,4727.88 v -352.05 h -110.81 v 339.35 c 0,120.04 -57.71,178.91 -158.13,178.91 -110.81,0 -183.53,-70.41 -183.53,-203.15 V 4375.83 H 6507.5 v 339.35 c 0,120.04 -57.71,178.91 -158.13,178.91 -110.81,0 -183.54,-70.41 -183.54,-203.15 v -315.11 h -110.81 v 611.75 h 106.2 v -91.19 c 43.86,62.34 118.89,96.97 211.23,96.97 93.5,0 171.99,-36.94 212.39,-113.12 46.17,69.26 131.59,113.12 235.47,113.12 148.89,0 250.47,-85.42 250.47,-265.48"
         style="fill:#25292d;fill-opacity:1;fill-rule:nonzero;stroke:none"
         id="path38" />
      <path
         d="m 7691.04,4681.7 c 0,130.43 -88.88,214.69 -206.62,214.69 -116.59,0 -205.45,-84.26 -205.45,-214.69 0,-130.42 88.86,-215.84 205.45,-215.84 117.74,0 206.62,85.42 206.62,215.84 z m 111.96,0 c 0,-186.99 -130.44,-312.81 -309.35,-312.81 -90.03,0 -168.52,34.64 -218.15,103.89 v -96.95 h -106.19 v 856.46 h 110.8 v -337.05 c 50.79,65.79 126.97,98.12 213.54,98.12 178.91,0 309.35,-124.67 309.35,-311.66"
         style="fill:#25292d;fill-opacity:1;fill-rule:nonzero;stroke:none"
         id="path40" />
      <path
         d="m 8016.66,4621.66 339.87,196.22 c -61.35,83.2 -164.69,107.5 -257.65,53.83 -91.97,-53.1 -124.16,-154.32 -82.22,-250.05 z m 469.66,179.19 -429.83,-248.16 c 65.66,-86.05 176.41,-104.74 281.37,-44.14 61.99,35.78 101.84,86.77 116.02,152.28 l 88.75,-31.4 c -15.65,-83.68 -71.32,-155.8 -159.28,-206.59 -170.94,-98.68 -350.11,-51.52 -441.3,106.43 -90.6,156.94 -42.87,335.11 110.08,423.41 152.93,88.3 325.38,41.25 419.45,-121.69 4.62,-8 10.55,-20.57 14.74,-30.14"
         style="fill:#25292d;fill-opacity:1;fill-rule:nonzero;stroke:none"
         id="path42" />
      <path
         d="m 10116.3,4562.81 v 85.42 h -170.78 c -109.67,0 -140.83,-42.71 -140.83,-94.65 0,-61.18 50.79,-99.27 135.05,-99.27 83.06,0 148.86,38.09 176.56,108.5 z m 110.9,182.38 v -369.36 h -105.1 v 80.79 c -36.9,-55.4 -105,-87.73 -200.83,-87.73 -138.51,0 -226.23,73.87 -226.23,180.07 0,98.11 63.49,178.92 245.85,178.92 h 175.41 v 21.92 c 0,93.5 -54.2,147.75 -163.86,147.75 -72.72,0 -146.59,-25.39 -193.91,-65.8 l -46.17,83.11 c 63.47,50.8 154.66,78.5 252.77,78.5 167.37,0 262.07,-80.8 262.07,-248.17"
         style="fill:#25292d;fill-opacity:1;fill-rule:nonzero;stroke:none"
         id="path44" />
      <path
         d="m 10901.7,4987.58 v -611.75 h -105.1 v 92.33 c -45,-63.48 -121.2,-99.27 -207.7,-99.27 -158.2,0 -263.2,86.57 -263.2,266.65 v 352.04 h 110.8 v -339.35 c 0,-120.05 60,-180.07 165,-180.07 115.5,0 189.4,71.57 189.4,203.16 v 316.26 h 110.8"
         style="fill:#25292d;fill-opacity:1;fill-rule:nonzero;stroke:none"
         id="path46" />
      <path
         d="m 11000.2,5232.29 h 110.8 v -856.46 h -110.8 v 856.46"
         style="fill:#25292d;fill-opacity:1;fill-rule:nonzero;stroke:none"
         id="path48" />
      <path
         d="m 8890.69,4990.58 c -82.32,-9.66 -141.88,-45.3 -175.01,-105.72 v 102.72 h -106.19 v -611.75 h 110.82 v 304.72 c 0,133.89 73.86,206.61 192.75,206.61 7.53,0 15.13,-0.08 23.58,-1.02 l -45.95,104.44"
         style="fill:#25292d;fill-opacity:1;fill-rule:nonzero;stroke:none"
         id="path50" />
      <path
         d="m 4716.4,4122.78 v 0 0 0 0"
         style="fill:#ed1c24;fill-opacity:1;fill-rule:nonzero;stroke:none"
         id="path52" />
      <path
         d="m 9734.9,5183.81 -354.35,-807.98 h -114.27 l -355.52,807.98 h 124.66 l 290.88,-663.71 293.18,663.71 h 115.42"
         style="fill:#25292d;fill-opacity:1;fill-rule:nonzero;stroke:none"
         id="path54" />
      <path
         d="m 11534.5,4469.24 c -14.1,-4.44 -29.1,-6.85 -44.5,-6.85 -61.2,0 -95.8,36.94 -95.8,102.73 v 331.27 h 175.5 v 91.19 h -175.5 v 133.9 h -110.8 v -133.9 h -103.9 v -91.19 h 103.9 v -335.88 c 0,-123.51 70.4,-191.62 193.9,-191.62 32.4,0 65.2,6.01 93.4,18.12 l -36.2,82.23"
         style="fill:#25292d;fill-opacity:1;fill-rule:nonzero;stroke:none"
         id="path56" />
    </g>
  </g>
</svg>
