<svg width="128" height="128" viewBox="0 0 128 128" fill="none" xmlns="http://www.w3.org/2000/svg">
<g clip-path="url(#clip0_240_7237)">
<path d="M13.7092 77.9444C13.7092 82.7908 14.773 86.5116 16.1633 88.7626C17.9862 91.711 20.7051 92.9601 23.477 92.9601C27.0521 92.9601 30.3228 92.073 36.6257 83.3557C41.675 76.3687 47.6248 66.5612 51.6281 60.4128L58.4077 49.9963C63.1172 42.7621 68.5683 34.7201 74.8182 29.2691C79.9205 24.82 85.4246 22.3483 90.9639 22.3483C100.264 22.3483 109.122 27.7375 115.902 37.8451C123.321 48.9149 126.923 62.8581 126.923 77.247C126.923 85.801 125.237 92.0862 122.368 97.0517C119.596 101.854 114.194 106.652 105.106 106.652V92.9601C112.887 92.9601 114.829 85.8098 114.829 77.6266C114.829 65.9654 112.11 53.0241 106.121 43.7772C101.87 37.2183 96.3619 33.2106 90.3018 33.2106C83.7473 33.2106 78.4728 38.1541 72.5451 46.9684C69.3937 51.6514 66.1583 57.3585 62.5258 63.7982L58.5269 70.8823C50.4938 85.1256 48.459 88.3698 44.4425 93.7237C37.4025 103.099 31.3909 106.652 23.477 106.652C14.0888 106.652 8.15228 102.587 4.47559 96.4603C1.47421 91.4683 0 84.9182 0 77.4545L13.7092 77.9444Z" fill="#0081FB"/>
<path d="M10.8093 38.8117C17.0946 29.1234 26.1649 22.3483 36.5682 22.3483C42.5931 22.3483 48.5826 24.1314 54.8369 29.2382C61.6783 34.8216 68.9699 44.0156 78.0667 59.1681L81.3285 64.6059C89.2027 77.7237 93.6827 84.4724 96.3045 87.6548C99.6766 91.7419 102.038 92.9601 105.106 92.9601C112.887 92.9601 114.829 85.8098 114.829 77.6266L126.923 77.247C126.923 85.801 125.237 92.0862 122.368 97.0517C119.596 101.854 114.194 106.652 105.106 106.652C99.4559 106.652 94.4507 105.425 88.9158 100.203C84.6609 96.1954 79.6866 89.076 75.8598 82.676L64.4766 63.6614C58.7652 54.1187 53.526 47.0037 50.4937 43.7816C47.2319 40.3168 43.0388 36.1325 36.3475 36.1325C30.9318 36.1325 26.3326 39.9328 22.4838 45.7458L10.8093 38.8117Z" fill="url(#paint0_linear_240_7237)"/>
<path d="M36.3476 36.1325C30.9319 36.1325 26.3327 39.9328 22.4839 45.7458C17.0417 53.9599 13.7092 66.1949 13.7092 77.9444C13.7092 82.7907 14.773 86.5116 16.1633 88.7626L4.47559 96.4603C1.47421 91.4683 0 84.9182 0 77.4545C0 63.8821 3.72524 49.7359 10.8094 38.8117C17.0946 29.1234 26.165 22.3483 36.5683 22.3483L36.3476 36.1325Z" fill="url(#paint1_linear_240_7237)"/>
</g>
<defs>
<linearGradient id="paint0_linear_240_7237" x1="26.9241" y1="73.9896" x2="114.317" y2="78.4034" gradientUnits="userSpaceOnUse">
<stop stop-color="#0064E1"/>
<stop offset="0.4" stop-color="#0064E1"/>
<stop offset="0.83" stop-color="#0073EE"/>
<stop offset="1" stop-color="#0082FB"/>
</linearGradient>
<linearGradient id="paint1_linear_240_7237" x1="19.8621" y1="83.7" x2="19.8621" y2="51.4793" gradientUnits="userSpaceOnUse">
<stop stop-color="#0082FB"/>
<stop offset="1" stop-color="#0064E0"/>
</linearGradient>
<clipPath id="clip0_240_7237">
<rect width="128" height="84.3035" fill="white" transform="translate(0 22.3483)"/>
</clipPath>
</defs>
</svg>
