<?xml version="1.0" encoding="UTF-8" standalone="no"?>
<!DOCTYPE svg PUBLIC "-//W3C//DTD SVG 1.1//EN" "http://www.w3.org/Graphics/SVG/1.1/DTD/svg11.dtd">
<svg xmlns="http://www.w3.org/2000/svg" version="1.1" viewBox="0.00 0.00 65.00 65.00">
<g stroke-width="2.00" fill="none" stroke-linecap="butt">
<path stroke="#9ccff7" stroke-opacity="0.882" vector-effect="non-scaling-stroke" d="
  M 16.76 10.84
  A 0.51 0.51 0.0 0 0 16.25 11.35
  L 16.25 23.83
  A 0.51 0.51 0.0 0 1 15.74 24.34
  L 3.25 24.34
  A 0.51 0.51 0.0 0 0 2.74 24.85
  L 2.74 42.84
  A 0.51 0.51 0.0 0 0 3.25 43.35
  L 29.30 43.35
  A 0.51 0.51 0.0 0 1 29.81 43.86
  L 29.81 56.34
  A 0.51 0.51 0.0 0 0 30.32 56.85
  L 48.25 56.85
  A 0.51 0.51 0.0 0 0 48.76 56.34
  L 48.76 43.86
  A 0.51 0.51 0.0 0 1 49.27 43.35
  L 61.77 43.35
  A 0.51 0.51 0.0 0 0 62.28 42.84
  L 62.28 24.85
  A 0.51 0.51 0.0 0 0 61.77 24.34
  L 35.72 24.34
  A 0.51 0.51 0.0 0 1 35.21 23.83
  L 35.21 11.35
  A 0.51 0.51 0.0 0 0 34.70 10.84
  L 16.76 10.84"
/>
<path stroke="#9ccff7" stroke-opacity="0.882" vector-effect="non-scaling-stroke" d="
  M 29.7839 16.7829
  A 0.58 0.58 0.0 0 0 29.2029 16.2039
  L 22.2429 16.2161
  A 0.58 0.58 0.0 0 0 21.6639 16.7971
  L 21.6761 23.7571
  A 0.58 0.58 0.0 0 0 22.2571 24.3361
  L 29.2171 24.3239
  A 0.58 0.58 0.0 0 0 29.7961 23.7429
  L 29.7839 16.7829"
/>
<path stroke="#9ccff7" stroke-opacity="0.882" vector-effect="non-scaling-stroke" d="
  M 16.2338 30.3029
  A 0.50 0.50 0.0 0 0 15.7329 29.8038
  L 8.6129 29.8162
  A 0.50 0.50 0.0 0 0 8.1138 30.3171
  L 8.1262 37.4371
  A 0.50 0.50 0.0 0 0 8.6271 37.9362
  L 15.7471 37.9238
  A 0.50 0.50 0.0 0 0 16.2462 37.4229
  L 16.2338 30.3029"
/>
<path stroke="#9ccff7" stroke-opacity="0.882" vector-effect="non-scaling-stroke" d="
  M 29.7836 30.2229
  A 0.42 0.42 0.0 0 0 29.3629 29.8037
  L 22.0829 29.8164
  A 0.42 0.42 0.0 0 0 21.6637 30.2371
  L 21.6764 37.5171
  A 0.42 0.42 0.0 0 0 22.0971 37.9363
  L 29.3771 37.9236
  A 0.42 0.42 0.0 0 0 29.7963 37.5029
  L 29.7836 30.2229"
/>
<path stroke="#9ccff7" stroke-opacity="0.882" vector-effect="non-scaling-stroke" d="
  M 43.3336 30.2029
  A 0.41 0.41 0.0 0 0 42.9229 29.7936
  L 35.6029 29.8064
  A 0.41 0.41 0.0 0 0 35.1936 30.2171
  L 35.2064 37.5371
  A 0.41 0.41 0.0 0 0 35.6171 37.9464
  L 42.9371 37.9336
  A 0.41 0.41 0.0 0 0 43.3464 37.5229
  L 43.3336 30.2029"
/>
<path stroke="#9ccff7" stroke-opacity="0.882" vector-effect="non-scaling-stroke" d="
  M 56.8538 30.3429
  A 0.53 0.53 0.0 0 0 56.3229 29.8138
  L 49.2629 29.8262
  A 0.53 0.53 0.0 0 0 48.7338 30.3571
  L 48.7462 37.4171
  A 0.53 0.53 0.0 0 0 49.2771 37.9462
  L 56.3371 37.9338
  A 0.53 0.53 0.0 0 0 56.8662 37.4029
  L 56.8538 30.3429"
/>
<path stroke="#9ccff7" stroke-opacity="0.882" vector-effect="non-scaling-stroke" d="
  M 43.3237 43.8029
  A 0.48 0.48 0.0 0 0 42.8429 43.3238
  L 35.6829 43.3363
  A 0.48 0.48 0.0 0 0 35.2038 43.8171
  L 35.2163 50.9771
  A 0.48 0.48 0.0 0 0 35.6971 51.4562
  L 42.8571 51.4437
  A 0.48 0.48 0.0 0 0 43.3362 50.9629
  L 43.3237 43.8029"
/>
</g>
<path fill="#2196f3" fill-opacity="0.761" d="
  M 57.94 0.00
  Q 63.75 1.31 65.00 7.11
  L 65.00 57.91
  Q 63.64 63.98 57.65 65.00
  L 7.05 65.00
  Q 1.32 63.75 0.00 58.01
  L 0.00 7.07
  Q 1.25 1.34 7.00 0.00
  L 57.94 0.00
  Z
  M 16.76 10.84
  A 0.51 0.51 0.0 0 0 16.25 11.35
  L 16.25 23.83
  A 0.51 0.51 0.0 0 1 15.74 24.34
  L 3.25 24.34
  A 0.51 0.51 0.0 0 0 2.74 24.85
  L 2.74 42.84
  A 0.51 0.51 0.0 0 0 3.25 43.35
  L 29.30 43.35
  A 0.51 0.51 0.0 0 1 29.81 43.86
  L 29.81 56.34
  A 0.51 0.51 0.0 0 0 30.32 56.85
  L 48.25 56.85
  A 0.51 0.51 0.0 0 0 48.76 56.34
  L 48.76 43.86
  A 0.51 0.51 0.0 0 1 49.27 43.35
  L 61.77 43.35
  A 0.51 0.51 0.0 0 0 62.28 42.84
  L 62.28 24.85
  A 0.51 0.51 0.0 0 0 61.77 24.34
  L 35.72 24.34
  A 0.51 0.51 0.0 0 1 35.21 23.83
  L 35.21 11.35
  A 0.51 0.51 0.0 0 0 34.70 10.84
  L 16.76 10.84
  Z"
/>
<path fill="#fafafa" d="
  M 16.76 10.84
  L 34.70 10.84
  A 0.51 0.51 0.0 0 1 35.21 11.35
  L 35.21 23.83
  A 0.51 0.51 0.0 0 0 35.72 24.34
  L 61.77 24.34
  A 0.51 0.51 0.0 0 1 62.28 24.85
  L 62.28 42.84
  A 0.51 0.51 0.0 0 1 61.77 43.35
  L 49.27 43.35
  A 0.51 0.51 0.0 0 0 48.76 43.86
  L 48.76 56.34
  A 0.51 0.51 0.0 0 1 48.25 56.85
  L 30.32 56.85
  A 0.51 0.51 0.0 0 1 29.81 56.34
  L 29.81 43.86
  A 0.51 0.51 0.0 0 0 29.30 43.35
  L 3.25 43.35
  A 0.51 0.51 0.0 0 1 2.74 42.84
  L 2.74 24.85
  A 0.51 0.51 0.0 0 1 3.25 24.34
  L 15.74 24.34
  A 0.51 0.51 0.0 0 0 16.25 23.83
  L 16.25 11.35
  A 0.51 0.51 0.0 0 1 16.76 10.84
  Z
  M 29.7839 16.7829
  A 0.58 0.58 0.0 0 0 29.2029 16.2039
  L 22.2429 16.2161
  A 0.58 0.58 0.0 0 0 21.6639 16.7971
  L 21.6761 23.7571
  A 0.58 0.58 0.0 0 0 22.2571 24.3361
  L 29.2171 24.3239
  A 0.58 0.58 0.0 0 0 29.7961 23.7429
  L 29.7839 16.7829
  Z
  M 16.2338 30.3029
  A 0.50 0.50 0.0 0 0 15.7329 29.8038
  L 8.6129 29.8162
  A 0.50 0.50 0.0 0 0 8.1138 30.3171
  L 8.1262 37.4371
  A 0.50 0.50 0.0 0 0 8.6271 37.9362
  L 15.7471 37.9238
  A 0.50 0.50 0.0 0 0 16.2462 37.4229
  L 16.2338 30.3029
  Z
  M 29.7836 30.2229
  A 0.42 0.42 0.0 0 0 29.3629 29.8037
  L 22.0829 29.8164
  A 0.42 0.42 0.0 0 0 21.6637 30.2371
  L 21.6764 37.5171
  A 0.42 0.42 0.0 0 0 22.0971 37.9363
  L 29.3771 37.9236
  A 0.42 0.42 0.0 0 0 29.7963 37.5029
  L 29.7836 30.2229
  Z
  M 43.3336 30.2029
  A 0.41 0.41 0.0 0 0 42.9229 29.7936
  L 35.6029 29.8064
  A 0.41 0.41 0.0 0 0 35.1936 30.2171
  L 35.2064 37.5371
  A 0.41 0.41 0.0 0 0 35.6171 37.9464
  L 42.9371 37.9336
  A 0.41 0.41 0.0 0 0 43.3464 37.5229
  L 43.3336 30.2029
  Z
  M 56.8538 30.3429
  A 0.53 0.53 0.0 0 0 56.3229 29.8138
  L 49.2629 29.8262
  A 0.53 0.53 0.0 0 0 48.7338 30.3571
  L 48.7462 37.4171
  A 0.53 0.53 0.0 0 0 49.2771 37.9462
  L 56.3371 37.9338
  A 0.53 0.53 0.0 0 0 56.8662 37.4029
  L 56.8538 30.3429
  Z
  M 43.3237 43.8029
  A 0.48 0.48 0.0 0 0 42.8429 43.3238
  L 35.6829 43.3363
  A 0.48 0.48 0.0 0 0 35.2038 43.8171
  L 35.2163 50.9771
  A 0.48 0.48 0.0 0 0 35.6971 51.4562
  L 42.8571 51.4437
  A 0.48 0.48 0.0 0 0 43.3362 50.9629
  L 43.3237 43.8029
  Z"
/>
<rect fill="#2196f3" fill-opacity="0.761" x="-4.06" y="-4.06" transform="translate(25.73,20.27) rotate(-0.1)" width="8.12" height="8.12" rx="0.58"/>
<rect fill="#2196f3" fill-opacity="0.761" x="-4.06" y="-4.06" transform="translate(12.18,33.87) rotate(-0.1)" width="8.12" height="8.12" rx="0.50"/>
<rect fill="#2196f3" fill-opacity="0.761" x="-4.06" y="-4.06" transform="translate(25.73,33.87) rotate(-0.1)" width="8.12" height="8.12" rx="0.42"/>
<rect fill="#2196f3" fill-opacity="0.761" x="-4.07" y="-4.07" transform="translate(39.27,33.87) rotate(-0.1)" width="8.14" height="8.14" rx="0.41"/>
<rect fill="#2196f3" fill-opacity="0.761" x="-4.06" y="-4.06" transform="translate(52.80,33.88) rotate(-0.1)" width="8.12" height="8.12" rx="0.53"/>
<rect fill="#2196f3" fill-opacity="0.761" x="-4.06" y="-4.06" transform="translate(39.27,47.39) rotate(-0.1)" width="8.12" height="8.12" rx="0.48"/>
</svg>
