<svg width="151" height="30" viewBox="0 0 151 30" fill="none" xmlns="http://www.w3.org/2000/svg">
<path d="M67.3945 4.06998V24.9442H63.9916V10.0641L57.6884 20.5612H57.2745L50.9713 10.0348V24.9451H47.5684V4.06998H51.2378L57.4815 14.5075L63.7544 4.06998H67.3936H67.3945Z" fill="#131313"/>
<path d="M74.3351 7.20151C73.9401 7.59935 73.4676 7.7978 72.9147 7.7978C72.3619 7.7978 71.879 7.59935 71.4651 7.20151C71.0701 6.78381 70.8735 6.29714 70.8735 5.74053C70.8735 5.18392 71.071 4.7067 71.4651 4.30885C71.8601 3.89116 72.343 3.68231 72.9147 3.68231C73.4865 3.68231 73.9703 3.89116 74.3644 4.30885C74.7594 4.7067 74.956 5.18392 74.956 5.74053C74.956 6.29714 74.749 6.78381 74.3341 7.20151H74.3351ZM71.3177 24.944V10.0337H74.5137V24.944H71.3177Z" fill="#131313"/>
<path d="M91.4507 24.9439H87.752L84.0825 19.8447L80.3838 24.9439H76.6548L82.218 17.2799L76.9506 10.0337H80.6493L84.0523 14.7454L87.4552 10.0337H91.1842L85.9168 17.3102L91.4507 24.9439Z" fill="#131313"/>
<path d="M109.754 9.64618C111.43 9.64618 112.782 10.1933 113.808 11.2867C114.833 12.3801 115.346 13.8514 115.346 15.6999V24.9439H112.15V15.9087C112.15 14.8749 111.894 14.0801 111.381 13.5226C110.869 12.9461 110.168 12.6579 109.28 12.6579C108.294 12.6579 107.505 12.9858 106.913 13.6417C106.341 14.2975 106.055 15.2822 106.055 16.5938V24.9439H102.859V15.9087C102.859 14.8749 102.612 14.0801 102.119 13.5226C101.646 12.9461 100.965 12.6579 100.078 12.6579C99.1113 12.6579 98.3222 12.9962 97.7108 13.6719C97.0984 14.3277 96.7932 15.302 96.7932 16.5938V24.9439H93.5972V10.0336H96.7932V11.8225C97.7401 10.371 99.151 9.64523 101.025 9.64523C102.899 9.64523 104.319 10.4305 105.226 12.0011C106.213 10.4305 107.722 9.64523 109.754 9.64523V9.64618Z" fill="#131313"/>
<path d="M130.487 10.0339H133.682V24.9441H130.487V22.7971C129.283 24.4868 127.557 25.3316 125.308 25.3316C123.276 25.3316 121.54 24.5765 120.1 23.0655C118.66 21.5346 117.94 19.6757 117.94 17.489C117.94 15.3023 118.66 13.4236 120.1 11.9125C121.54 10.4015 123.276 9.64642 125.308 9.64642C127.557 9.64642 129.283 10.4818 130.487 12.1516V10.0348V10.0339ZM122.467 20.9184C123.355 21.8133 124.47 22.2603 125.811 22.2603C127.152 22.2603 128.267 21.8133 129.154 20.9184C130.042 20.0037 130.487 18.8612 130.487 17.489C130.487 16.1169 130.042 14.9838 129.154 14.0898C128.267 13.1751 127.153 12.7186 125.811 12.7186C124.469 12.7186 123.355 13.176 122.467 14.0898C121.579 14.9848 121.136 16.1178 121.136 17.489C121.136 18.8602 121.579 20.0037 122.467 20.9184Z" fill="#131313"/>
<path d="M150.633 24.9439H146.934L143.265 19.8447L139.566 24.9439H135.838L141.4 17.2799L136.134 10.0337H139.832L143.235 14.7454L146.638 10.0337H150.366L145.1 17.3102L150.633 24.9439Z" fill="#131313"/>
<path fill-rule="evenodd" clip-rule="evenodd" d="M7.37103 29.0107H0V0H7.37103V29.0107Z" fill="#C53FDF"/>
<path fill-rule="evenodd" clip-rule="evenodd" d="M7.37103 29.0107H0L14.6995 0H22.0706L7.37103 29.0107Z" fill="#971AAE"/>
<path fill-rule="evenodd" clip-rule="evenodd" d="M22.071 29.0107H14.7V6.10352e-05H22.071V29.0107Z" fill="#C53FDF"/>
<path fill-rule="evenodd" clip-rule="evenodd" d="M22.071 29.0107H14.7L29.3995 6.10352e-05H36.7705L22.071 29.0107Z" fill="#971AAE"/>
<path fill-rule="evenodd" clip-rule="evenodd" d="M36.7702 29.0107H29.3992V6.10352e-05H36.7702V29.0107Z" fill="#C53FDF"/>
</svg>
