<?xml version="1.0" encoding="UTF-8" standalone="no"?>
<!DOCTYPE svg PUBLIC "-//W3C//DTD SVG 1.1//EN" "http://www.w3.org/Graphics/SVG/1.1/DTD/svg11.dtd">
<svg xmlns="http://www.w3.org/2000/svg" version="1.1" viewBox="0.00 0.00 200.00 200.00">
<g stroke-width="2.00" fill="none" stroke-linecap="butt">
<path stroke="#9aadcd" vector-effect="non-scaling-stroke" d="
  M 94.51 0.00
  C 42.78 3.89 3.93 42.97 0.00 94.66"
/>
<path stroke="#9aadcd" vector-effect="non-scaling-stroke" d="
  M 105.61 0.00
  C 156.78 3.96 196.05 42.36 200.00 93.67"
/>
<path stroke="#9aadcd" vector-effect="non-scaling-stroke" d="
  M 200.00 106.24
  Q 199.17 116.70 196.27 128.07
  A 0.24 0.24 0.0 0 1 195.81 128.08
  Q 195.60 127.32 195.59 126.73
  Q 195.52 122.22 195.50 100.77
  C 195.47 76.64 169.56 76.97 154.10 84.25
  A 0.61 0.61 0.0 0 0 153.77 84.97
  L 156.35 93.91
  A 0.54 0.54 0.0 0 0 157.12 94.24
  Q 163.39 90.89 170.73 90.78
  C 175.18 90.72 179.93 92.30 179.80 97.59
  A 0.56 0.56 0.0 0 1 179.18 98.13
  Q 178.43 98.05 173.28 98.43
  Q 164.13 99.11 157.57 103.31
  C 148.21 109.30 147.37 123.03 156.00 129.68
  C 163.08 135.13 174.49 133.69 180.66 127.08
  A 0.54 0.54 0.0 0 1 181.59 127.42
  L 181.79 131.00
  A 1.10 1.09 -2.1 0 0 182.92 132.04
  L 194.33 131.68
  A 0.52 0.52 0.0 0 1 194.83 132.37
  C 181.43 170.56 147.92 196.64 107.22 200.00"
/>
<path stroke="#9aadcd" vector-effect="non-scaling-stroke" d="
  M 93.39 200.00
  C 52.63 196.85 18.75 170.75 5.39 132.45
  A 0.30 0.29 -10.0 0 1 5.67 132.06
  L 18.80 131.65
  A 0.29 0.29 0.0 0 0 19.08 131.37
  L 21.53 77.06
  A 0.19 0.19 0.0 0 1 21.91 77.04
  C 25.16 95.07 30.39 112.46 35.48 130.48
  A 0.54 0.53 -8.3 0 0 36.01 130.87
  L 47.54 130.51
  A 0.50 0.49 7.2 0 0 48.00 130.16
  Q 53.24 113.24 58.20 97.48
  Q 61.64 86.56 63.98 76.79
  A 0.17 0.17 0.0 0 1 64.32 76.82
  L 66.03 131.68
  A 0.42 0.42 0.0 0 0 66.46 132.09
  L 81.28 131.62
  A 0.22 0.22 0.0 0 0 81.50 131.39
  L 77.81 62.60
  A 0.69 0.69 0.0 0 0 77.12 61.95
  L 57.43 62.02
  A 0.41 0.41 0.0 0 0 57.04 62.31
  C 51.65 78.57 46.56 94.07 43.21 109.97
  A 0.34 0.34 0.0 0 1 42.54 109.97
  C 39.53 93.87 35.19 79.85 29.89 62.17
  A 0.70 0.69 80.1 0 0 29.20 61.68
  L 9.37 62.30
  A 0.55 0.55 0.0 0 0 8.84 62.82
  L 4.60 128.27
  A 0.30 0.30 0.0 0 1 4.01 128.33
  Q 0.92 116.95 0.00 104.86"
/>
<path stroke="#9aadcd" vector-effect="non-scaling-stroke" d="
  M 143.3441 104.1258
  A 23.91 23.91 0.0 0 0 119.4759 80.1741
  L 114.7759 80.1659
  A 23.91 23.91 0.0 0 0 90.8242 104.0342
  L 90.8159 108.7742
  A 23.91 23.91 0.0 0 0 114.6841 132.7259
  L 119.3841 132.7341
  A 23.91 23.91 0.0 0 0 143.3358 108.8658
  L 143.3441 104.1258"
/>
<path stroke="#9aadcd" vector-effect="non-scaling-stroke" d="
  M 117.1271 90.9500
  A 15.53 10.42 -89.9 0 0 106.6800 106.4618
  A 15.53 10.42 -89.9 0 0 117.0729 122.0100
  A 15.53 10.42 -89.9 0 0 127.5200 106.4982
  A 15.53 10.42 -89.9 0 0 117.1271 90.9500"
/>
<path stroke="#9aadcd" vector-effect="non-scaling-stroke" d="
  M 179.63 107.88
  C 174.66 107.99 167.91 108.61 165.96 113.53
  C 164.59 116.98 166.37 121.47 170.38 121.84
  Q 177.53 122.50 180.05 115.95
  Q 180.51 114.76 180.20 108.41
  A 0.56 0.56 0.0 0 0 179.63 107.88"
/>
</g>
<path fill="#ffffff" d="
  M 94.51 0.00
  C 42.78 3.89 3.93 42.97 0.00 94.66
  L 0.00 0.00
  L 94.51 0.00
  Z"
/>
<path fill="#345a9a" d="
  M 105.61 0.00
  C 156.78 3.96 196.05 42.36 200.00 93.67
  L 200.00 106.24
  Q 199.17 116.70 196.27 128.07
  A 0.24 0.24 0.0 0 1 195.81 128.08
  Q 195.60 127.32 195.59 126.73
  Q 195.52 122.22 195.50 100.77
  C 195.47 76.64 169.56 76.97 154.10 84.25
  A 0.61 0.61 0.0 0 0 153.77 84.97
  L 156.35 93.91
  A 0.54 0.54 0.0 0 0 157.12 94.24
  Q 163.39 90.89 170.73 90.78
  C 175.18 90.72 179.93 92.30 179.80 97.59
  A 0.56 0.56 0.0 0 1 179.18 98.13
  Q 178.43 98.05 173.28 98.43
  Q 164.13 99.11 157.57 103.31
  C 148.21 109.30 147.37 123.03 156.00 129.68
  C 163.08 135.13 174.49 133.69 180.66 127.08
  A 0.54 0.54 0.0 0 1 181.59 127.42
  L 181.79 131.00
  A 1.10 1.09 -2.1 0 0 182.92 132.04
  L 194.33 131.68
  A 0.52 0.52 0.0 0 1 194.83 132.37
  C 181.43 170.56 147.92 196.64 107.22 200.00
  L 93.39 200.00
  C 52.63 196.85 18.75 170.75 5.39 132.45
  A 0.30 0.29 -10.0 0 1 5.67 132.06
  L 18.80 131.65
  A 0.29 0.29 0.0 0 0 19.08 131.37
  L 21.53 77.06
  A 0.19 0.19 0.0 0 1 21.91 77.04
  C 25.16 95.07 30.39 112.46 35.48 130.48
  A 0.54 0.53 -8.3 0 0 36.01 130.87
  L 47.54 130.51
  A 0.50 0.49 7.2 0 0 48.00 130.16
  Q 53.24 113.24 58.20 97.48
  Q 61.64 86.56 63.98 76.79
  A 0.17 0.17 0.0 0 1 64.32 76.82
  L 66.03 131.68
  A 0.42 0.42 0.0 0 0 66.46 132.09
  L 81.28 131.62
  A 0.22 0.22 0.0 0 0 81.50 131.39
  L 77.81 62.60
  A 0.69 0.69 0.0 0 0 77.12 61.95
  L 57.43 62.02
  A 0.41 0.41 0.0 0 0 57.04 62.31
  C 51.65 78.57 46.56 94.07 43.21 109.97
  A 0.34 0.34 0.0 0 1 42.54 109.97
  C 39.53 93.87 35.19 79.85 29.89 62.17
  A 0.70 0.69 80.1 0 0 29.20 61.68
  L 9.37 62.30
  A 0.55 0.55 0.0 0 0 8.84 62.82
  L 4.60 128.27
  A 0.30 0.30 0.0 0 1 4.01 128.33
  Q 0.92 116.95 0.00 104.86
  L 0.00 94.66
  C 3.93 42.97 42.78 3.89 94.51 0.00
  L 105.61 0.00
  Z
  M 143.3441 104.1258
  A 23.91 23.91 0.0 0 0 119.4759 80.1741
  L 114.7759 80.1659
  A 23.91 23.91 0.0 0 0 90.8242 104.0342
  L 90.8159 108.7742
  A 23.91 23.91 0.0 0 0 114.6841 132.7259
  L 119.3841 132.7341
  A 23.91 23.91 0.0 0 0 143.3358 108.8658
  L 143.3441 104.1258
  Z"
/>
<path fill="#ffffff" d="
  M 200.00 0.00
  L 200.00 93.67
  C 196.05 42.36 156.78 3.96 105.61 0.00
  L 200.00 0.00
  Z"
/>
<path fill="#ffffff" d="
  M 93.39 200.00
  L 0.00 200.00
  L 0.00 104.86
  Q 0.92 116.95 4.01 128.33
  A 0.30 0.30 0.0 0 0 4.60 128.27
  L 8.84 62.82
  A 0.55 0.55 0.0 0 1 9.37 62.30
  L 29.20 61.68
  A 0.70 0.69 80.1 0 1 29.89 62.17
  C 35.19 79.85 39.53 93.87 42.54 109.97
  A 0.34 0.34 0.0 0 0 43.21 109.97
  C 46.56 94.07 51.65 78.57 57.04 62.31
  A 0.41 0.41 0.0 0 1 57.43 62.02
  L 77.12 61.95
  A 0.69 0.69 0.0 0 1 77.81 62.60
  L 81.50 131.39
  A 0.22 0.22 0.0 0 1 81.28 131.62
  L 66.46 132.09
  A 0.42 0.42 0.0 0 1 66.03 131.68
  L 64.32 76.82
  A 0.17 0.17 0.0 0 0 63.98 76.79
  Q 61.64 86.56 58.20 97.48
  Q 53.24 113.24 48.00 130.16
  A 0.50 0.49 7.2 0 1 47.54 130.51
  L 36.01 130.87
  A 0.54 0.53 -8.3 0 1 35.48 130.48
  C 30.39 112.46 25.16 95.07 21.91 77.04
  A 0.19 0.19 0.0 0 0 21.53 77.06
  L 19.08 131.37
  A 0.29 0.29 0.0 0 1 18.80 131.65
  L 5.67 132.06
  A 0.30 0.29 -10.0 0 0 5.39 132.45
  C 18.75 170.75 52.63 196.85 93.39 200.00
  Z"
/>
<path fill="#ffffff" d="
  M 143.3358 108.8658
  A 23.91 23.91 0.0 0 1 119.3841 132.7341
  L 114.6841 132.7259
  A 23.91 23.91 0.0 0 1 90.8159 108.7742
  L 90.8242 104.0342
  A 23.91 23.91 0.0 0 1 114.7759 80.1659
  L 119.4759 80.1741
  A 23.91 23.91 0.0 0 1 143.3441 104.1258
  L 143.3358 108.8658
  Z
  M 117.1271 90.9500
  A 15.53 10.42 -89.9 0 0 106.6800 106.4618
  A 15.53 10.42 -89.9 0 0 117.0729 122.0100
  A 15.53 10.42 -89.9 0 0 127.5200 106.4982
  A 15.53 10.42 -89.9 0 0 117.1271 90.9500
  Z"
/>
<path fill="#ffffff" d="
  M 200.00 106.24
  L 200.00 200.00
  L 107.22 200.00
  C 147.92 196.64 181.43 170.56 194.83 132.37
  A 0.52 0.52 0.0 0 0 194.33 131.68
  L 182.92 132.04
  A 1.10 1.09 -2.1 0 1 181.79 131.00
  L 181.59 127.42
  A 0.54 0.54 0.0 0 0 180.66 127.08
  C 174.49 133.69 163.08 135.13 156.00 129.68
  C 147.37 123.03 148.21 109.30 157.57 103.31
  Q 164.13 99.11 173.28 98.43
  Q 178.43 98.05 179.18 98.13
  A 0.56 0.56 0.0 0 0 179.80 97.59
  C 179.93 92.30 175.18 90.72 170.73 90.78
  Q 163.39 90.89 157.12 94.24
  A 0.54 0.54 0.0 0 1 156.35 93.91
  L 153.77 84.97
  A 0.61 0.61 0.0 0 1 154.10 84.25
  C 169.56 76.97 195.47 76.64 195.50 100.77
  Q 195.52 122.22 195.59 126.73
  Q 195.60 127.32 195.81 128.08
  A 0.24 0.24 0.0 0 0 196.27 128.07
  Q 199.17 116.70 200.00 106.24
  Z
  M 179.63 107.88
  C 174.66 107.99 167.91 108.61 165.96 113.53
  C 164.59 116.98 166.37 121.47 170.38 121.84
  Q 177.53 122.50 180.05 115.95
  Q 180.51 114.76 180.20 108.41
  A 0.56 0.56 0.0 0 0 179.63 107.88
  Z"
/>
<ellipse fill="#345a9a" cx="0.00" cy="0.00" transform="translate(117.10,106.48) rotate(-89.9)" rx="15.53" ry="10.42"/>
<path fill="#345a9a" d="
  M 180.20 108.41
  Q 180.51 114.76 180.05 115.95
  Q 177.53 122.50 170.38 121.84
  C 166.37 121.47 164.59 116.98 165.96 113.53
  C 167.91 108.61 174.66 107.99 179.63 107.88
  A 0.56 0.56 0.0 0 1 180.20 108.41
  Z"
/>
</svg>
