<?xml version="1.0" encoding="UTF-8" standalone="no"?>
<!DOCTYPE svg PUBLIC "-//W3C//DTD SVG 1.1//EN" "http://www.w3.org/Graphics/SVG/1.1/DTD/svg11.dtd">
<svg xmlns="http://www.w3.org/2000/svg" version="1.1" viewBox="0.00 0.00 400.00 400.00">
<g stroke-width="2.00" fill="none" stroke-linecap="butt">
<path stroke="#ac96c1" vector-effect="non-scaling-stroke" d="
  M 57.38 187.73
  Q 55.70 196.09 54.00 204.50
  Q 52.76 210.65 52.75 229.30
  C 52.71 298.53 101.26 359.22 167.32 376.62
  Q 193.41 383.49 220.62 381.07
  C 274.83 376.25 322.16 342.91 345.74 294.01
  Q 360.78 262.84 361.00 226.50
  Q 361.04 221.09 360.31 214.12
  Q 359.52 206.52 358.73 201.76
  Q 356.14 186.33 349.87 170.26
  C 347.67 164.62 345.31 160.96 341.42 156.32
  Q 328.37 140.73 311.63 130.50"
/>
<path stroke="#f0a790" vector-effect="non-scaling-stroke" d="
  M 311.63 130.50
  L 305.66 127.18"
/>
<path stroke="#ac96c1" vector-effect="non-scaling-stroke" d="
  M 305.66 127.18
  Q 289.74 118.85 275.31 116.42
  Q 262.27 114.23 254.67 114.21
  Q 236.33 114.17 218.86 119.29
  A 0.29 0.29 0.0 0 0 218.94 119.86
  Q 259.67 119.28 286.41 149.36
  Q 297.77 162.14 303.20 180.80"
/>
<path stroke="#f0a790" vector-effect="non-scaling-stroke" d="
  M 303.20 180.80
  Q 303.30 182.48 302.96 183.67
  C 287.07 239.12 234.98 277.19 176.88 274.36
  Q 176.39 274.34 175.57 273.77"
/>
<path stroke="#ac96c1" vector-effect="non-scaling-stroke" d="
  M 175.57 273.77
  Q 152.46 257.85 142.99 231.50
  Q 140.39 224.28 139.64 217.05
  A 0.32 0.32 0.0 0 0 139.02 216.98
  C 138.25 219.21 138.34 221.23 138.24 223.56
  Q 137.64 238.89 140.80 253.48
  Q 142.68 262.14 145.61 269.06"
/>
<path stroke="#f0a790" vector-effect="non-scaling-stroke" d="
  M 145.61 269.06
  L 148.14 275.71"
/>
<path stroke="#ac96c1" vector-effect="non-scaling-stroke" d="
  M 148.14 275.71
  Q 161.93 305.54 188.53 324.01
  Q 191.63 326.17 194.44 327.06
  Q 198.62 328.40 204.60 329.13
  Q 247.02 334.25 281.61 315.64
  Q 310.82 299.93 328.76 272.19
  Q 346.28 245.11 348.65 211.27
  Q 349.24 202.84 348.15 190.72
  C 347.87 187.61 347.15 185.22 346.65 181.87
  A 0.19 0.18 -10.7 0 1 346.79 181.67
  L 346.80 181.67
  A 0.19 0.18 -15.2 0 1 347.02 181.79
  Q 349.82 190.48 351.61 199.69
  C 359.91 242.47 348.75 286.95 321.24 320.51
  Q 307.10 337.76 289.95 349.44
  Q 248.71 377.50 197.51 374.78
  C 144.90 371.98 97.91 339.84 74.55 293.22
  Q 57.64 259.49 59.10 219.75
  Q 59.28 214.98 61.56 199.49"
/>
<path stroke="#f0a790" vector-effect="non-scaling-stroke" d="
  M 61.56 199.49
  Q 72.20 224.82 91.78 243.65
  Q 94.48 246.25 99.85 250.69
  Q 104.27 254.34 108.07 257.59"
/>
<path stroke="#ac96c1" vector-effect="non-scaling-stroke" d="
  M 108.07 257.59
  Q 123.47 289.55 152.41 309.23
  A 0.29 0.29 0.0 0 0 152.80 308.81
  Q 138.58 290.67 131.42 269.87"
/>
<path stroke="#f0a790" vector-effect="non-scaling-stroke" d="
  M 131.42 269.87
  L 129.25 262.73"
/>
<path stroke="#ac96c1" vector-effect="non-scaling-stroke" d="
  M 129.25 262.73
  Q 122.04 235.02 126.26 208.75
  C 134.55 157.05 173.74 115.17 225.00 103.85
  Q 268.98 94.14 311.56 114.97
  A 0.09 0.09 0.0 0 0 311.67 114.83
  L 306.39 108.99"
/>
<path stroke="#f0a790" vector-effect="non-scaling-stroke" d="
  M 306.39 108.99
  Q 306.56 107.69 305.96 106.01
  Q 295.04 75.29 272.23 54.00
  Q 251.12 34.31 225.22 25.48
  C 149.48 -0.34 68.80 46.77 53.80 125.27
  Q 47.92 156.05 57.38 187.73"
/>
<path stroke="#9d3e52" vector-effect="non-scaling-stroke" d="
  M 306.39 108.99
  Q 301.91 106.50 298.91 103.33"
/>
<path stroke="#f0a790" vector-effect="non-scaling-stroke" d="
  M 298.91 103.33
  Q 286.48 72.10 260.42 51.32
  C 226.25 24.06 180.40 16.78 139.57 31.76
  C 98.12 46.96 68.06 82.37 59.69 125.72
  Q 54.75 151.30 60.67 177.07"
/>
<path stroke="#9d3e52" vector-effect="non-scaling-stroke" d="
  M 60.67 177.07
  L 57.38 187.73"
/>
<path stroke="#ac96c1" vector-effect="non-scaling-stroke" d="
  M 298.91 103.33
  Q 258.45 74.61 210.66 73.30
  C 143.14 71.45 83.32 113.72 60.67 177.07"
/>
<path stroke="#9d3e52" vector-effect="non-scaling-stroke" d="
  M 129.25 262.73
  Q 116.59 256.50 105.59 247.97
  Q 105.01 247.52 104.42 246.59
  Q 103.89 245.75 103.19 245.19"
/>
<path stroke="#ac96c1" vector-effect="non-scaling-stroke" d="
  M 103.19 245.19
  Q 100.28 237.84 98.56 228.98
  Q 92.45 197.42 101.54 167.46
  C 114.49 124.75 149.71 90.98 193.63 80.85
  A 0.12 0.11 -48.7 0 0 193.62 80.62
  Q 190.87 80.40 186.99 80.99
  Q 131.13 89.38 94.76 131.24
  Q 72.87 156.43 63.95 189.50
  Q 63.75 190.24 64.56 191.43"
/>
<path stroke="#9d3e52" vector-effect="non-scaling-stroke" d="
  M 64.56 191.43
  Q 63.40 190.77 63.09 191.83
  Q 62.42 194.04 61.56 199.49"
/>
<path stroke="#9d3e52" vector-effect="non-scaling-stroke" d="
  M 148.14 275.71
  Q 162.34 279.58 176.50 280.13
  Q 182.15 280.35 187.37 280.24"
/>
<path stroke="#ac96c1" vector-effect="non-scaling-stroke" d="
  M 187.37 280.24
  Q 194.69 283.90 202.18 285.64
  C 243.18 295.18 283.90 274.81 300.20 235.97
  Q 308.59 215.99 305.84 193.59"
/>
<path stroke="#9d3e52" vector-effect="non-scaling-stroke" d="
  M 305.84 193.59
  Q 314.65 168.72 313.27 141.88
  Q 313.14 139.34 312.58 136.18
  Q 312.09 133.40 311.63 130.50"
/>
<path stroke="#9d3e52" vector-effect="non-scaling-stroke" d="
  M 131.42 269.87
  L 108.07 257.59"
/>
<path stroke="#f0a790" vector-effect="non-scaling-stroke" d="
  M 305.84 193.59
  Q 299.55 210.38 289.55 224.56
  Q 269.01 253.70 236.58 268.52
  Q 213.31 279.15 187.37 280.24"
/>
<path stroke="#9d3e52" vector-effect="non-scaling-stroke" d="
  M 145.61 269.06
  Q 160.22 273.17 174.50 274.43
  Q 175.02 274.47 175.57 273.77"
/>
<path stroke="#f0a790" vector-effect="non-scaling-stroke" d="
  M 103.19 245.19
  Q 102.76 245.63 102.00 244.98
  Q 80.24 226.45 68.30 200.45
  Q 67.25 198.17 64.56 191.43"
/>
<path stroke="#9d3e52" vector-effect="non-scaling-stroke" d="
  M 305.66 127.18
  Q 310.29 153.95 303.98 179.94
  A 0.93 0.91 79.3 0 1 303.62 180.48
  L 303.20 180.80"
/>
<path stroke="#fda28b" vector-effect="non-scaling-stroke" d="
  M 265.93 175.87
  A 49.94 49.94 0.0 0 0 215.99 125.93
  A 49.94 49.94 0.0 0 0 166.05 175.87
  A 49.94 49.94 0.0 0 0 215.99 225.81
  A 49.94 49.94 0.0 0 0 265.93 175.87"
/>
</g>
<path fill="#ffffff" d="
  M 400.00 0.00
  L 400.00 400.00
  L 0.00 400.00
  L 0.00 0.00
  L 400.00 0.00
  Z
  M 57.38 187.73
  Q 55.70 196.09 54.00 204.50
  Q 52.76 210.65 52.75 229.30
  C 52.71 298.53 101.26 359.22 167.32 376.62
  Q 193.41 383.49 220.62 381.07
  C 274.83 376.25 322.16 342.91 345.74 294.01
  Q 360.78 262.84 361.00 226.50
  Q 361.04 221.09 360.31 214.12
  Q 359.52 206.52 358.73 201.76
  Q 356.14 186.33 349.87 170.26
  C 347.67 164.62 345.31 160.96 341.42 156.32
  Q 328.37 140.73 311.63 130.50
  L 305.66 127.18
  Q 289.74 118.85 275.31 116.42
  Q 262.27 114.23 254.67 114.21
  Q 236.33 114.17 218.86 119.29
  A 0.29 0.29 0.0 0 0 218.94 119.86
  Q 259.67 119.28 286.41 149.36
  Q 297.77 162.14 303.20 180.80
  Q 303.30 182.48 302.96 183.67
  C 287.07 239.12 234.98 277.19 176.88 274.36
  Q 176.39 274.34 175.57 273.77
  Q 152.46 257.85 142.99 231.50
  Q 140.39 224.28 139.64 217.05
  A 0.32 0.32 0.0 0 0 139.02 216.98
  C 138.25 219.21 138.34 221.23 138.24 223.56
  Q 137.64 238.89 140.80 253.48
  Q 142.68 262.14 145.61 269.06
  L 148.14 275.71
  Q 161.93 305.54 188.53 324.01
  Q 191.63 326.17 194.44 327.06
  Q 198.62 328.40 204.60 329.13
  Q 247.02 334.25 281.61 315.64
  Q 310.82 299.93 328.76 272.19
  Q 346.28 245.11 348.65 211.27
  Q 349.24 202.84 348.15 190.72
  C 347.87 187.61 347.15 185.22 346.65 181.87
  A 0.19 0.18 -10.7 0 1 346.79 181.67
  L 346.80 181.67
  A 0.19 0.18 -15.2 0 1 347.02 181.79
  Q 349.82 190.48 351.61 199.69
  C 359.91 242.47 348.75 286.95 321.24 320.51
  Q 307.10 337.76 289.95 349.44
  Q 248.71 377.50 197.51 374.78
  C 144.90 371.98 97.91 339.84 74.55 293.22
  Q 57.64 259.49 59.10 219.75
  Q 59.28 214.98 61.56 199.49
  Q 72.20 224.82 91.78 243.65
  Q 94.48 246.25 99.85 250.69
  Q 104.27 254.34 108.07 257.59
  Q 123.47 289.55 152.41 309.23
  A 0.29 0.29 0.0 0 0 152.80 308.81
  Q 138.58 290.67 131.42 269.87
  L 129.25 262.73
  Q 122.04 235.02 126.26 208.75
  C 134.55 157.05 173.74 115.17 225.00 103.85
  Q 268.98 94.14 311.56 114.97
  A 0.09 0.09 0.0 0 0 311.67 114.83
  L 306.39 108.99
  Q 306.56 107.69 305.96 106.01
  Q 295.04 75.29 272.23 54.00
  Q 251.12 34.31 225.22 25.48
  C 149.48 -0.34 68.80 46.77 53.80 125.27
  Q 47.92 156.05 57.38 187.73
  Z
  M 265.93 175.87
  A 49.94 49.94 0.0 0 0 215.99 125.93
  A 49.94 49.94 0.0 0 0 166.05 175.87
  A 49.94 49.94 0.0 0 0 215.99 225.81
  A 49.94 49.94 0.0 0 0 265.93 175.87
  Z"
/>
<path fill="#e14f21" d="
  M 306.39 108.99
  Q 301.91 106.50 298.91 103.33
  Q 286.48 72.10 260.42 51.32
  C 226.25 24.06 180.40 16.78 139.57 31.76
  C 98.12 46.96 68.06 82.37 59.69 125.72
  Q 54.75 151.30 60.67 177.07
  L 57.38 187.73
  Q 47.92 156.05 53.80 125.27
  C 68.80 46.77 149.48 -0.34 225.22 25.48
  Q 251.12 34.31 272.23 54.00
  Q 295.04 75.29 305.96 106.01
  Q 306.56 107.69 306.39 108.99
  Z"
/>
<path fill="#ffffff" d="
  M 298.91 103.33
  Q 258.45 74.61 210.66 73.30
  C 143.14 71.45 83.32 113.72 60.67 177.07
  Q 54.75 151.30 59.69 125.72
  C 68.06 82.37 98.12 46.96 139.57 31.76
  C 180.40 16.78 226.25 24.06 260.42 51.32
  Q 286.48 72.10 298.91 103.33
  Z"
/>
<path fill="#582c82" d="
  M 298.91 103.33
  Q 301.91 106.50 306.39 108.99
  L 311.67 114.83
  A 0.09 0.09 0.0 0 1 311.56 114.97
  Q 268.98 94.14 225.00 103.85
  C 173.74 115.17 134.55 157.05 126.26 208.75
  Q 122.04 235.02 129.25 262.73
  Q 116.59 256.50 105.59 247.97
  Q 105.01 247.52 104.42 246.59
  Q 103.89 245.75 103.19 245.19
  Q 100.28 237.84 98.56 228.98
  Q 92.45 197.42 101.54 167.46
  C 114.49 124.75 149.71 90.98 193.63 80.85
  A 0.12 0.11 -48.7 0 0 193.62 80.62
  Q 190.87 80.40 186.99 80.99
  Q 131.13 89.38 94.76 131.24
  Q 72.87 156.43 63.95 189.50
  Q 63.75 190.24 64.56 191.43
  Q 63.40 190.77 63.09 191.83
  Q 62.42 194.04 61.56 199.49
  Q 59.28 214.98 59.10 219.75
  Q 57.64 259.49 74.55 293.22
  C 97.91 339.84 144.90 371.98 197.51 374.78
  Q 248.71 377.50 289.95 349.44
  Q 307.10 337.76 321.24 320.51
  C 348.75 286.95 359.91 242.47 351.61 199.69
  Q 349.82 190.48 347.02 181.79
  A 0.19 0.18 -15.2 0 0 346.80 181.67
  L 346.79 181.67
  A 0.19 0.18 -10.7 0 0 346.65 181.87
  C 347.15 185.22 347.87 187.61 348.15 190.72
  Q 349.24 202.84 348.65 211.27
  Q 346.28 245.11 328.76 272.19
  Q 310.82 299.93 281.61 315.64
  Q 247.02 334.25 204.60 329.13
  Q 198.62 328.40 194.44 327.06
  Q 191.63 326.17 188.53 324.01
  Q 161.93 305.54 148.14 275.71
  Q 162.34 279.58 176.50 280.13
  Q 182.15 280.35 187.37 280.24
  Q 194.69 283.90 202.18 285.64
  C 243.18 295.18 283.90 274.81 300.20 235.97
  Q 308.59 215.99 305.84 193.59
  Q 314.65 168.72 313.27 141.88
  Q 313.14 139.34 312.58 136.18
  Q 312.09 133.40 311.63 130.50
  Q 328.37 140.73 341.42 156.32
  C 345.31 160.96 347.67 164.62 349.87 170.26
  Q 356.14 186.33 358.73 201.76
  Q 359.52 206.52 360.31 214.12
  Q 361.04 221.09 361.00 226.50
  Q 360.78 262.84 345.74 294.01
  C 322.16 342.91 274.83 376.25 220.62 381.07
  Q 193.41 383.49 167.32 376.62
  C 101.26 359.22 52.71 298.53 52.75 229.30
  Q 52.76 210.65 54.00 204.50
  Q 55.70 196.09 57.38 187.73
  L 60.67 177.07
  C 83.32 113.72 143.14 71.45 210.66 73.30
  Q 258.45 74.61 298.91 103.33
  Z"
/>
<path fill="#ffffff" d="
  M 103.19 245.19
  Q 102.76 245.63 102.00 244.98
  Q 80.24 226.45 68.30 200.45
  Q 67.25 198.17 64.56 191.43
  Q 63.75 190.24 63.95 189.50
  Q 72.87 156.43 94.76 131.24
  Q 131.13 89.38 186.99 80.99
  Q 190.87 80.40 193.62 80.62
  A 0.12 0.11 -48.7 0 1 193.63 80.85
  C 149.71 90.98 114.49 124.75 101.54 167.46
  Q 92.45 197.42 98.56 228.98
  Q 100.28 237.84 103.19 245.19
  Z"
/>
<path fill="#582c82" d="
  M 305.66 127.18
  Q 310.29 153.95 303.98 179.94
  A 0.93 0.91 79.3 0 1 303.62 180.48
  L 303.20 180.80
  Q 297.77 162.14 286.41 149.36
  Q 259.67 119.28 218.94 119.86
  A 0.29 0.29 0.0 0 1 218.86 119.29
  Q 236.33 114.17 254.67 114.21
  Q 262.27 114.23 275.31 116.42
  Q 289.74 118.85 305.66 127.18
  Z"
/>
<circle fill="#fa4516" cx="215.99" cy="175.87" r="49.94"/>
<path fill="#e14f21" d="
  M 311.63 130.50
  Q 312.09 133.40 312.58 136.18
  Q 313.14 139.34 313.27 141.88
  Q 314.65 168.72 305.84 193.59
  Q 299.55 210.38 289.55 224.56
  Q 269.01 253.70 236.58 268.52
  Q 213.31 279.15 187.37 280.24
  Q 182.15 280.35 176.50 280.13
  Q 162.34 279.58 148.14 275.71
  L 145.61 269.06
  Q 160.22 273.17 174.50 274.43
  Q 175.02 274.47 175.57 273.77
  Q 176.39 274.34 176.88 274.36
  C 234.98 277.19 287.07 239.12 302.96 183.67
  Q 303.30 182.48 303.20 180.80
  L 303.62 180.48
  A 0.93 0.91 79.3 0 0 303.98 179.94
  Q 310.29 153.95 305.66 127.18
  L 311.63 130.50
  Z"
/>
<path fill="#e14f21" d="
  M 64.56 191.43
  Q 67.25 198.17 68.30 200.45
  Q 80.24 226.45 102.00 244.98
  Q 102.76 245.63 103.19 245.19
  Q 103.89 245.75 104.42 246.59
  Q 105.01 247.52 105.59 247.97
  Q 116.59 256.50 129.25 262.73
  L 131.42 269.87
  L 108.07 257.59
  Q 104.27 254.34 99.85 250.69
  Q 94.48 246.25 91.78 243.65
  Q 72.20 224.82 61.56 199.49
  Q 62.42 194.04 63.09 191.83
  Q 63.40 190.77 64.56 191.43
  Z"
/>
<path fill="#ffffff" d="
  M 305.84 193.59
  Q 308.59 215.99 300.20 235.97
  C 283.90 274.81 243.18 295.18 202.18 285.64
  Q 194.69 283.90 187.37 280.24
  Q 213.31 279.15 236.58 268.52
  Q 269.01 253.70 289.55 224.56
  Q 299.55 210.38 305.84 193.59
  Z"
/>
<path fill="#582c82" d="
  M 175.57 273.77
  Q 175.02 274.47 174.50 274.43
  Q 160.22 273.17 145.61 269.06
  Q 142.68 262.14 140.80 253.48
  Q 137.64 238.89 138.24 223.56
  C 138.34 221.23 138.25 219.21 139.02 216.98
  A 0.32 0.32 0.0 0 1 139.64 217.05
  Q 140.39 224.28 142.99 231.50
  Q 152.46 257.85 175.57 273.77
  Z"
/>
<path fill="#582c82" d="
  M 131.42 269.87
  Q 138.58 290.67 152.80 308.81
  A 0.29 0.29 0.0 0 1 152.41 309.23
  Q 123.47 289.55 108.07 257.59
  L 131.42 269.87
  Z"
/>
</svg>
