<?xml version="1.0" encoding="UTF-8" standalone="no"?>
<!DOCTYPE svg PUBLIC "-//W3C//DTD SVG 1.1//EN" "http://www.w3.org/Graphics/SVG/1.1/DTD/svg11.dtd">
<svg xmlns="http://www.w3.org/2000/svg" version="1.1" viewBox="0.00 0.00 400.00 400.00">
<path stroke="#8ddee4" stroke-width="2.00" fill="none" stroke-linecap="butt" vector-effect="non-scaling-stroke" d="
  M 284.08 155.91
  L 284.08 243.36
  A 2.26 2.26 0.0 0 1 282.93 245.33
  Q 204.78 289.63 204.12 290.03
  C 201.58 291.56 200.42 292.62 197.40 290.91
  Q 122.32 248.28 117.12 245.34
  A 2.38 2.37 -75.4 0 1 115.91 243.27
  L 115.91 156.44
  A 1.91 1.90 -14.9 0 1 116.88 154.78
  Q 163.41 128.45 232.52 89.19
  Q 235.73 87.36 236.43 86.29
  C 237.96 83.96 236.80 81.04 234.53 79.62
  Q 233.84 79.20 209.25 65.21
  C 203.94 62.18 199.29 60.40 194.10 63.35
  Q 111.15 110.48 83.09 126.31
  C 77.49 129.47 74.07 132.15 74.07 138.51
  Q 74.05 198.14 74.04 260.51
  Q 74.04 268.54 80.68 272.31
  Q 121.83 295.60 190.63 334.70
  C 195.91 337.70 200.43 339.73 205.56 336.82
  Q 294.58 286.36 316.59 273.83
  Q 318.72 272.62 321.74 270.72
  A 3.47 3.43 -86.2 0 0 322.61 269.95
  Q 325.97 265.90 325.96 262.40
  Q 325.88 160.93 325.99 143.51
  C 326.03 137.62 325.76 131.59 320.98 128.78
  Q 310.73 122.75 295.28 114.03
  C 288.35 110.13 284.18 107.54 277.40 111.40
  Q 260.43 121.06 165.62 174.84
  Q 162.60 176.56 162.97 180.13
  A 1.87 1.83 24.6 0 0 163.32 181.04
  Q 164.84 183.08 167.06 184.30
  Q 174.44 188.37 190.47 197.63
  C 196.66 201.21 200.92 202.52 207.05 199.02
  Q 240.75 179.79 283.53 155.59
  A 0.37 0.37 0.0 0 1 284.08 155.91"
/>
<path fill="#1abcc9" d="
  M 400.00 0.00
  L 400.00 400.00
  L 0.00 400.00
  L 0.00 0.00
  L 400.00 0.00
  Z
  M 284.08 155.91
  L 284.08 243.36
  A 2.26 2.26 0.0 0 1 282.93 245.33
  Q 204.78 289.63 204.12 290.03
  C 201.58 291.56 200.42 292.62 197.40 290.91
  Q 122.32 248.28 117.12 245.34
  A 2.38 2.37 -75.4 0 1 115.91 243.27
  L 115.91 156.44
  A 1.91 1.90 -14.9 0 1 116.88 154.78
  Q 163.41 128.45 232.52 89.19
  Q 235.73 87.36 236.43 86.29
  C 237.96 83.96 236.80 81.04 234.53 79.62
  Q 233.84 79.20 209.25 65.21
  C 203.94 62.18 199.29 60.40 194.10 63.35
  Q 111.15 110.48 83.09 126.31
  C 77.49 129.47 74.07 132.15 74.07 138.51
  Q 74.05 198.14 74.04 260.51
  Q 74.04 268.54 80.68 272.31
  Q 121.83 295.60 190.63 334.70
  C 195.91 337.70 200.43 339.73 205.56 336.82
  Q 294.58 286.36 316.59 273.83
  Q 318.72 272.62 321.74 270.72
  A 3.47 3.43 -86.2 0 0 322.61 269.95
  Q 325.97 265.90 325.96 262.40
  Q 325.88 160.93 325.99 143.51
  C 326.03 137.62 325.76 131.59 320.98 128.78
  Q 310.73 122.75 295.28 114.03
  C 288.35 110.13 284.18 107.54 277.40 111.40
  Q 260.43 121.06 165.62 174.84
  Q 162.60 176.56 162.97 180.13
  A 1.87 1.83 24.6 0 0 163.32 181.04
  Q 164.84 183.08 167.06 184.30
  Q 174.44 188.37 190.47 197.63
  C 196.66 201.21 200.92 202.52 207.05 199.02
  Q 240.75 179.79 283.53 155.59
  A 0.37 0.37 0.0 0 1 284.08 155.91
  Z"
/>
<path fill="#ffffff" d="
  M 284.08 155.91
  A 0.37 0.37 0.0 0 0 283.53 155.59
  Q 240.75 179.79 207.05 199.02
  C 200.92 202.52 196.66 201.21 190.47 197.63
  Q 174.44 188.37 167.06 184.30
  Q 164.84 183.08 163.32 181.04
  A 1.87 1.83 24.6 0 1 162.97 180.13
  Q 162.60 176.56 165.62 174.84
  Q 260.43 121.06 277.40 111.40
  C 284.18 107.54 288.35 110.13 295.28 114.03
  Q 310.73 122.75 320.98 128.78
  C 325.76 131.59 326.03 137.62 325.99 143.51
  Q 325.88 160.93 325.96 262.40
  Q 325.97 265.90 322.61 269.95
  A 3.47 3.43 -86.2 0 1 321.74 270.72
  Q 318.72 272.62 316.59 273.83
  Q 294.58 286.36 205.56 336.82
  C 200.43 339.73 195.91 337.70 190.63 334.70
  Q 121.83 295.60 80.68 272.31
  Q 74.04 268.54 74.04 260.51
  Q 74.05 198.14 74.07 138.51
  C 74.07 132.15 77.49 129.47 83.09 126.31
  Q 111.15 110.48 194.10 63.35
  C 199.29 60.40 203.94 62.18 209.25 65.21
  Q 233.84 79.20 234.53 79.62
  C 236.80 81.04 237.96 83.96 236.43 86.29
  Q 235.73 87.36 232.52 89.19
  Q 163.41 128.45 116.88 154.78
  A 1.91 1.90 -14.9 0 0 115.91 156.44
  L 115.91 243.27
  A 2.38 2.37 -75.4 0 0 117.12 245.34
  Q 122.32 248.28 197.40 290.91
  C 200.42 292.62 201.58 291.56 204.12 290.03
  Q 204.78 289.63 282.93 245.33
  A 2.26 2.26 0.0 0 0 284.08 243.36
  L 284.08 155.91
  Z"
/>
</svg>
