<svg width="128" height="128" viewBox="0 0 128 128" fill="none" xmlns="http://www.w3.org/2000/svg">
<rect width="128" height="128" fill="white"/>
<path d="M47.6775 34.6168C47.7616 34.6097 47.8459 34.6034 47.9303 34.5982C54.1486 34.207 59.9322 39.1126 60.3522 45.487C60.7383 51.3485 58.2109 54.1573 55.2139 58.8886L49.2362 68.3792L40.6956 82.0386C37.0281 87.8731 34.8249 93.4888 27.1432 93.9139C23.807 93.9859 21.4334 93.5299 18.7263 91.4149C16.2134 89.4496 14.5846 86.5663 14.1983 83.3997C13.5178 77.8595 16.9267 73.783 19.7065 69.3282L27.5286 56.8432L34.1053 46.3194C38.0704 39.936 39.564 35.5848 47.6775 34.6168Z" fill="#FA1A51"/>
<path d="M84.8603 34.6071C91.6299 34.0793 97.618 38.5372 98.1604 45.4452C98.5619 50.5596 96.6491 53.1877 94.0477 57.2791C92.4327 59.8009 90.8314 62.3314 89.244 64.8705L79.2798 80.7967C75.8333 86.3728 73.0653 93.3582 65.6153 93.9089C62.0555 93.9562 59.8122 93.7233 56.7834 91.5684C54.167 89.6827 52.563 86.8255 52.0568 83.6714C51.294 78.9168 53.6226 75.5576 56.0088 71.7737L60.7412 64.279C64.16 58.7555 67.6083 53.2503 71.0861 47.7638C72.8192 45.0212 74.5408 42.163 76.3761 39.4933C78.4583 36.4644 81.2778 35.1483 84.8603 34.6071Z" fill="#FECD00"/>
<path d="M99.6555 70.2496C106.207 68.9536 112.57 73.2084 113.875 79.7578C115.18 86.3071 110.934 92.676 104.386 93.9903C97.826 95.3071 91.4418 91.051 90.1341 84.4887C88.8264 77.9264 93.0914 71.5483 99.6555 70.2496Z" fill="#00CE6F"/>
<path d="M0 77.8391L0.308071 78.3971C0.567611 77.8459 0.0617221 76.2209 0.511617 75.313C0.85202 75.1187 0.698575 75.1626 1.1903 75.2476C0.672976 78.704 0.57086 79.6474 0.738381 83.2034L0.718556 83.1514C0.425334 82.361 0.431239 81.6787 0.385245 80.8407C0.375805 82.0289 0.335728 83.2996 0 84.4502V77.8391Z" fill="#FEFEFF" fill-opacity="0.0235294"/>
<path d="M0 84.4503C0.335728 83.2997 0.375805 82.0289 0.385245 80.8408C0.431239 81.6788 0.425334 82.3611 0.718556 83.1514L0.738381 83.2034C0.787905 83.6398 0.916202 84.5248 0.878197 84.9247C0.742044 85.2428 0.737022 85.3504 0.685302 85.6872C0.876326 86.1501 0.994559 86.5174 0.670099 86.9394L0.424461 86.8198C0.319002 86.4053 0.396454 84.7672 0.353799 84.1148C0.243329 84.4051 0.132916 84.6331 0 84.9109V84.4503Z" fill="#FCFCFA" fill-opacity="0.027451"/>
</svg>
