<svg xmlns="http://www.w3.org/2000/svg" viewBox="0 0 40 28" class="w-[1.875rem] lg:w-10 xl:w-8 transition-all">
          <path class="fill-blue" d="M19.6231 23.7058C11.6575 23.0939 9.07019 18.7271 8.34791 15.7061C8.34791 15.7061 9.90539 16.1274 11.94 16.4058C11.9457 16.4067 12.4901 16.4824 12.5011 16.3375C12.5225 16.0584 7.91501 14.7029 5.68261 10.8782C3.94059 7.89349 3.83402 5.03159 3.83402 5.03159C8.50848 5.93357 11.3811 7.06367 26.0875 6.69735C30.6416 6.69735 32.6732 7.6389 32.6732 13.2172C32.6732 17.1126 30.9688 23.6301 19.6231 23.7058ZM40 13.0089C40 12.2789 39.226 11.8107 38.269 11.5101L38.288 11.4906C38.288 11.4906 38.2308 11.486 38.1402 11.4711C37.9862 11.426 37.8285 11.3847 37.6691 11.3475C37.4537 11.2681 37.2229 11.1464 37.0499 10.9596C36.8498 10.7437 36.7291 10.4691 36.6563 10.2343C36.0493 6.18787 33.7539 2.48597 26.0875 2.48597H12.772C12.3212 2.47084 11.0975 2.40043 8.19832 2.08328C5.38659 1.77574 2.87089 0.89005 2.8475 0.881903L0.379441 0L0.073028 2.6204C0.0357732 2.93871 -0.764193 10.33 3.97496 14.0811L3.97091 14.1244C3.78868 16.1088 4.54822 20.4377 8.6653 23.9391C17.5897 31.5294 29.7191 26.7649 32.822 23.4262C34.7638 21.3362 36.1567 18.868 36.6381 15.9057C36.7086 15.6592 36.8328 15.3552 37.0499 15.1207C37.1441 15.0191 37.2556 14.9377 37.372 14.8707C37.6836 14.7907 37.9943 14.6979 38.2874 14.5897C39.2358 14.2402 40 13.734 40 13.0089ZM28.3292 9.22463C27.2961 9.22463 26.6007 9.86533 26.6007 11.0466C26.6007 12.1476 27.2961 12.7685 28.3292 12.7685C29.3431 12.7685 30.0784 12.1078 30.0784 11.0266C30.0784 9.84525 29.4621 9.22463 28.3292 9.22463Z" style="fill: rgb(0, 115, 230) !important;"/>
        </svg>