<?xml version="1.0" encoding="UTF-8"?> <svg xmlns="http://www.w3.org/2000/svg" id="Layer_1" version="1.1" viewBox="0 0 950 300"><defs><style> .st0 { fill: #232520; } .st1 { fill: #000000; } .st2 { fill: #d63539; } </style></defs><g><path id="Path_590" class="st1" d="M223.3,183v-111.5c0-14.8-12-26.8-26.8-26.9,0,0,0,0,0,0h-114.6c-14.8,0-26.8,12.1-26.9,26.9v111.5c0,14.8,12.1,26.8,26.9,26.9h28.1l-22.8,7.1,18.3,58,85.8-27.3-11.9-38h17.1c14.7,0,26.7-11.9,26.9-26.6"></path><path id="Path_591" class="st2" d="M138.4,149.7c-39.2,0-71.6,10.7-88.2,25.7,0,19.6,15.8,35.6,35.4,35.7h105.3c19.5.6,35.8-14.8,36.4-34.3,0-.2,0-.4,0-.7-17.1-15-49.7-26.4-88.9-26.4"></path><path id="Path_599" class="st0" d="M131.1,111.9c1.2-4.3-.2-8.6-2.9-9.3s-5.9,2.4-6.9,6.7.2,8.6,2.9,9.3,5.9-2.4,6.9-6.7M147,112.1c1.2,4.3,4.5,7.4,7.1,6.4s3.8-5,2.6-9.3-4.5-7.1-7.1-6.4-3.8,4.8-2.6,9.3M110.4,181.8c-3.6-6.2-9.7-9.5-13.8-7.1-4,2.4-4,9.3-.5,15.5,3.6,6.2,9.7,9.5,13.8,7.4s4-9.3.5-15.7M185,190.6c3.8-6.4,3.6-13.3-.5-15.7s-10,1-13.8,7.4c-3.6,6.2-3.6,13.3.5,15.5s10-1,13.8-7.1M220.7,182c0,15.5-12.6,28-28,28.1h-108.4c-15.5,0-28-12.6-28-28h0v-11.4c17.8-12.4,47.3-20.9,82.2-20.9s64.4,9,82.5,21.6l-.2,10.7ZM220.7,162.5c-18.1-12.8-47.8-20.4-82.5-20.4s-63.9,7.8-82.2,20.4v-89.1c0-15.5,12.6-28,28-28h108.4c15.5,0,28,12.6,28,28l.2,89.1ZM93.5,223.2l26.6,13.3-13.8,26.9-12.8-40.2ZM112.3,268.3l14.7-28.5,16.6,8.3,9.5-16.9,29.2,14.7-70.1,22.3ZM151.7,217.9l-11.4,20.4-40.4-20.4h51.8ZM185,239.1l-28.3-14.3,3.8-6.9h17.8l6.7,21.2ZM274.2,81l-63-36.6c-5.8-4-12.5-6.3-19.5-6.7-10.9-26.1-20-7.6-23.1-.2h-60.1c-10.9-25.9-20-7.4-23.1,0-8,0-15.7,2.6-22.1,7.4L1.5,80.8s25,20,46.8,9v89.6c0,20.3,15.9,37,36.1,38.3v1.2c0,.5.2.7.2,1.2v.5l16.2,51.1h0c.3.8.7,1.5,1.2,2.1.3.3.5.6.7,1l.7.7h0c1.4,1.2,3.2,1.8,5,1.9.8,0,1.6-.2,2.4-.5l78-24.5c2.4-.6,4.2-2.4,5-4.8h0c.3-.8.4-1.6.5-2.4v-.5c0-.8,0-1.6-.2-2.4l-7.6-24.5h4.3c20.9-.2,37.7-17.2,37.6-38l-.7-89.8c21.9,10.9,46.8-9.3,46.6-9"></path></g><path class="st0" d="M312,152.5c0-9.6-1-18.3-2.9-26l13.5-1.8,3,8c9.1-6.3,18.4-9.5,28-9.5s16.6,3.1,21.1,9.3c8.7-6.2,17.9-9.3,27.8-9.3s17.1,2.6,21.5,7.9c4.4,5.2,7.7,12.8,7.7,23.3l.5,57.1-21,.5,1.2-54.2c0-10.4-2.1-16.1-7-18.6-2.1-1.2-4.5-1.9-7.9-1.9-5.6,0-9.2,1.9-16.1,6.7.1,3.5.3,7.8.3,11.7v56.2l-20.2.3v-53c0-6.6.3-12.3-1.7-16.1-2-3.7-6.3-5.6-12.5-5.6s-10,2.8-15.9,7.4v67.3l-20.2-.5.5-59.2Z"></path><path class="st0" d="M577.6,122.1c10.5,0,19.2,3.7,26.1,11.1,6.9,7.4,10.3,18.3,10.3,32.8s-3.5,25.8-10.6,34.2c-7,8.4-17.6,12.6-31.7,12.6s-19.2-3.8-26.1-11.3c-6.9-7.5-10.3-18.5-10.3-32.9s3.5-25.8,10.6-34.1c7-8.3,17.6-12.4,31.7-12.4ZM555.1,169.1c0,10.9,1.5,16.8,5.1,21.6,3.6,4.7,8,7.1,15.2,7.1s11.5-3.2,14.7-8.8c3.2-5.6,4.4-12.4,4.4-23.3s-1.8-18.6-5.4-23.2c-3.6-4.6-7.2-6.4-13.5-6.4s-12.5,3-15.7,8.5c-3.2,5.5-4.8,13.7-4.8,24.6Z"></path><path class="st0" d="M489,122.1c10.5,0,19.2,3.7,26.1,11.1,6.9,7.4,10.3,18.3,10.3,32.8s-3.5,25.8-10.6,34.2c-7,8.4-17.6,12.6-31.7,12.6s-19.2-3.8-26.1-11.3c-6.9-7.5-10.3-18.5-10.3-32.9s3.5-25.8,10.6-34.1c7-8.3,17.6-12.4,31.7-12.4ZM466.6,169.1c0,10.9,1.5,16.8,5.1,21.6,3.6,4.7,8,7.1,15.2,7.1s11.5-3.2,14.7-8.8c3.2-5.6,4.4-12.4,4.4-23.3s-1.8-18.6-5.4-23.2c-3.6-4.6-7.2-6.4-13.5-6.4s-12.5,3-15.7,8.5c-3.2,5.5-4.8,13.7-4.8,24.6Z"></path><path class="st0" d="M619.7,206.7l4.5-13.9c9,3.9,12.8,4.8,19.3,4.8,11.2,0,17.8-2.7,17.8-10.1s-3.2-9.7-13.9-13.6c-4.2-1.5-7.3-2.7-9.4-3.6-2.1-.9-4.7-2.3-7.7-4.3-6-3.9-9.1-10.8-9.1-18.5s2.8-13.9,8.5-18.3c5.7-4.4,13.3-6.7,23-6.7s18.2,1.6,25.2,4.8c1.3.5,2,.8,2.1.8l-3.4,14.1c-8-3.4-15.1-5.1-21.4-5.1-11,0-16.5,3.6-16.5,10.9s.6,3.8,1.7,4.9c1.2,1.1,2.1,1.9,2.7,2.4.7.5,1.8,1.1,3.3,1.8,1.5.7,2.7,1.2,3.4,1.4.7.3,2.1.8,4,1.5,2,.7,4,1.5,6,2.2,2,.7,4.2,1.6,6.4,2.8,2.2,1.2,4.6,2.8,7.2,4.8,5,4.1,7.6,10.3,7.6,18.6s-1.7,10.4-5.1,14.1c-6,6.8-16.1,10.3-30.3,10.3s-18.1-2.1-25.9-6.3Z"></path><path class="st0" d="M752.6,191.1l8.2,11.6c-1.8,1.7-7.3,4.1-13.2,6.3-5.9,2.2-12.2,3.4-18.9,3.4-12,0-21.6-3.6-29-10.9-7.3-7.3-11-18.2-11-32.7s1.3-15.1,3.9-21.3c2.6-6.2,5.9-10.9,10-14.4,8.3-6.8,18.4-10.6,27.5-10.6s16.4,2.3,21.8,7c5.4,4.7,8.1,10.4,8.1,17.1s-4.2,16.1-12.7,21.7c-8.5,5.6-21.4,8.9-40,8.9.3,3.9,1,7.6,5.1,12.4,4.1,4.8,10.2,7.2,18.3,7.2s14.4-1.3,21.9-5.8ZM742.5,147.7c0-3.2-.6-5.2-3.2-7.3-2.1-1.7-4.7-3.2-9.1-3.2-7.1,0-11.9,1.9-16.4,7.2-4.5,5.3-6.9,11.1-7,19.7,20.9-.3,35.7-5.1,35.7-16.2Z"></path><path class="st0" d="M776.9,154.3c0-9.8-1-18.6-3-26.4l14.5-3.4,3.4,8.2c9.4-6.4,15.2-9.2,25-9.2,20.3,0,33.5,11.8,33.5,33.1v57.1h-21.9v-53.8c0-14.4-5.5-20-14.7-20s-10.7,1.1-17.1,5.8l.3,68h-20v-59.4Z"></path><path class="st0" d="M939.3,87.9l-.7,102.2c0,3.9.5,6.3,1.4,7.4.9,1.1,3,1.6,6.2,1.6l.4,11.9c-2.7,1-5.5,1.4-8.5,1.4-8.3,0-14-2.7-15.6-10.3-5.7,8.6-13.4,11.8-24.6,11.8s-17.5-3.7-23.5-11c-6-7.3-9.1-18.1-9.1-32.3s3.5-25.5,10.5-33.8c7-8.3,16.1-13.1,30.1-13.1s9.4.5,14.4,1.7v-35.1l19.1-2.3ZM888.2,193.5c3.2,4.6,7.8,6.8,13.8,6.8s10.6-2.1,14-6.4c3.3-4.3,5-9.4,5-15.2v-38.8c-3.6-1.4-8.4-2.1-14.3-2.1-8.7,0-14.7,2.8-18.1,8.3-3.4,5.6-5.1,13.7-5.1,24.5s1.6,18.4,4.8,23Z"></path></svg> 