<svg width="128" height="128" viewBox="0 0 128 128" fill="none" xmlns="http://www.w3.org/2000/svg">
<g clip-path="url(#clip0_240_6407)">
<g clip-path="url(#clip1_240_6407)">
<path fill-rule="evenodd" clip-rule="evenodd" d="M106.754 17.7491L18.8835 0.629963C8.77063 -1.34398 -0.31828 6.85533 0.611549 17.1218L9.44538 113.673C10.3286 123.312 19.604 129.698 28.9023 127.098L116.215 102.757C123.72 100.644 128.44 93.3724 127.277 85.6631L119.026 30.5701C118.025 24.0192 113.262 19.0263 106.754 17.7491ZM110.659 94.347H95.711V64.4096C95.711 57.1639 95.3855 47.2466 85.7142 47.2466C74.0918 47.2466 72.9754 58.859 72.9754 67.7084V94.3479H58.0296V65.7564C58.0296 56.9088 56.4707 51.3088 53.3576 48.9874C51.7997 47.8254 49.94 47.2466 47.7082 47.2466C36.201 47.2466 35.0161 59.3682 35.0161 68.0786V94.347H20.1151V35.307H35.0152V42.0901C45.0102 31.104 63.3059 30.1047 70.7446 44.4133C77.439 34.5884 90.5946 30.4759 101.197 36.4691C110.214 41.3925 110.659 50.4741 110.659 59.7422V94.347Z" fill="#C82027"/>
<path fill-rule="evenodd" clip-rule="evenodd" d="M110.66 94.3497H95.7127V64.4142C95.7127 57.1667 95.3891 47.2494 85.7168 47.2494C74.0963 47.2494 72.979 58.8636 72.979 67.7111V94.3507H58.0332V65.7591C58.0332 56.9107 56.4743 51.3143 53.3612 48.9911C51.8023 47.8291 49.9436 47.2485 47.7118 47.2485C36.2046 47.2485 35.0197 59.3728 35.0197 68.0832V94.3497H20.1187V35.3107H35.0197V42.0919C45.0156 31.1068 63.3104 30.1084 70.7481 44.416C77.4444 34.5902 90.6 30.4796 101.2 36.4727C110.22 41.398 110.661 50.4777 110.661 59.7459L110.66 94.3497Z" fill="white"/>
</g>
</g>
<defs>
<clipPath id="clip0_240_6407">
<rect width="128" height="128" fill="white"/>
</clipPath>
<clipPath id="clip1_240_6407">
<rect width="128" height="128" fill="white"/>
</clipPath>
</defs>
</svg>
