<svg xmlns="http://www.w3.org/2000/svg" width="205" height="95" viewBox="0 0 205 95" fill="none"><path d="M204.743 86.207h-9.493v8.585h9.493v-8.583Z" fill="#1C1C1C"/><path d="M0 0.797h21.808l6.867 70.142h0.403L36.347 0.797h21.405v94h-13.73L49.453 11.383a2.562 2.562 0 0 0 -5.098 -0.5L34.88 94.8h-11.657L13.617 10.932a2.567 2.567 0 0 0 -5.113 0.413l5.317 83.453H0.003V0.797H0Z" fill="#1C1C1C"/><path d="M66.583 47.367C66.583 7.653 71.912 0.8 82.627 0.8c10.717 0 15.847 7.887 15.847 47.6 0 39.717 -4.99 46.53 -15.847 46.53 -10.857 0 -16.043 -5.99 -16.043 -47.562Zm20.758 0c0 -34.572 -1.287 -38.427 -4.715 -38.427 -3.427 0 -4.855 3.858 -4.855 38.427 0 36.285 1.287 39.287 4.855 39.287 3.57 0 4.715 -3.572 4.715 -39.287Z" fill="#1C1C1C"/><path d="M137.72 0.797H123.967l-2.307 36.278a2.553 2.553 0 0 1 -5.103 0L114.223 0.797h-13.748l11.782 46 -11.645 48 13.555 0.188 0.102 -0.778 2.262 -35.553a2.557 2.557 0 0 1 5.108 0l2.273 35.325 0.133 1.022 12.575 -0.202 -10.603 -48L137.725 0.797h-0.005Z" fill="#1C1C1C"/><path d="M142.107 0.797h11.253v94h-11.253V0.795Z" fill="#1C1C1C"/><path d="M161.822 0.797h22.953v7.442h-11.713V44.083h9.857v6.858h-9.857V86.633h12.572v8.16H161.823V0.795h-0.002Z" fill="#1C1C1C"/><path d="M202.562 0.65c0.557 0.433 0.835 1.023 0.835 1.772 0 0.288 -0.037 0.547 -0.113 0.77a2.04 2.04 0 0 1 -0.722 1.027 4.167 4.167 0 0 1 -0.502 0.325c0.275 0.1 0.53 0.213 0.758 0.343 0.228 0.133 0.425 0.287 0.592 0.467 0.165 0.178 0.293 0.393 0.383 0.64 0.088 0.247 0.133 0.533 0.133 0.857 0 0.422 -0.083 0.795 -0.25 1.117a2.25 2.25 0 0 1 -0.707 0.817 3.283 3.283 0 0 1 -1.105 0.498 5.633 5.633 0 0 1 -1.428 0.167h-4.365V0h4.23c0.953 0 1.708 0.217 2.265 0.65h-0.005Zm-1.295 3.027c0.322 -0.213 0.483 -0.542 0.483 -0.983a1.067 1.067 0 0 0 -0.423 -0.905c-0.283 -0.213 -0.693 -0.317 -1.232 -0.317h-2.382v2.523h2.26c0.538 0 0.97 -0.105 1.293 -0.317Zm0.525 3.972c0.323 -0.222 0.485 -0.547 0.485 -0.98a1.097 1.097 0 0 0 -0.477 -0.945c-0.318 -0.227 -0.807 -0.34 -1.462 -0.34h-2.623v2.593h2.745c0.565 0 1.008 -0.112 1.332 -0.332v0.003Z" fill="#1C1C1C"/><path d="M203.46 15.805h-5.345v2.428h4.738v1.5h-4.738v2.523h5.413v1.5h-7.06v-9.45h6.993v1.5l-0.002 -0.002Z" fill="#1C1C1C"/><path d="M204.922 38.065H203.167l-0.958 -2.283h-4.467l-0.972 2.283h-1.702l4.157 -9.517h1.54l4.157 9.517Zm-4.953 -7.533 -1.62 3.78h3.253l-1.633 -3.778Z" fill="#1C1C1C"/><path d="M204.038 48.283c0 0.702 -0.097 1.32 -0.292 1.85a3.61 3.61 0 0 1 -0.817 1.328 3.295 3.295 0 0 1 -1.275 0.797c-0.5 0.175 -1.06 0.262 -1.682 0.262 -0.622 0 -1.167 -0.088 -1.66 -0.262a3.358 3.358 0 0 1 -1.268 -0.792 3.505 3.505 0 0 1 -0.808 -1.302 5.22 5.22 0 0 1 -0.283 -1.802v-5.44h1.647v5.373c0 0.883 0.212 1.553 0.637 2.012 0.427 0.46 1.015 0.688 1.765 0.688 0.752 0 1.327 -0.22 1.752 -0.662 0.427 -0.442 0.638 -1.098 0.638 -1.97v-5.438h1.647v5.358Z" fill="#1C1C1C"/><path d="M200.833 66.683h-1.673v-7.91h-2.997v-1.538h7.667v1.538H200.833v7.91Z" fill="#1C1C1C"/><path d="M200.832 80.992h-1.672v-3.727l-3.753 -5.723h1.957l2.645 4.183 2.673 -4.183h1.903l-3.753 5.683v3.767Z" fill="#1C1C1C"/></svg>