<svg width="128" height="128" viewBox="0 0 128 128" fill="none" xmlns="http://www.w3.org/2000/svg">
<g clip-path="url(#clip0_240_6782)">
<path d="M109.492 70.1446L128 50.0821H89.2817C88.5414 50.0821 87.9491 50.6744 87.8751 51.4147V55.6345C84.3956 49.6379 77.0665 45.4922 68.627 45.4922C58.6327 45.4922 50.2672 51.2666 47.8242 59.188V50.0821H41.0873C39.4586 50.0821 38.0521 50.8224 37.0156 51.9329L23.9121 66.295L10.8086 51.9329C9.77212 50.8224 8.36553 50.1562 6.73684 50.0821H0V79.3985H7.92134C8.66165 79.3985 9.2539 78.7322 9.2539 77.9919V64L23.9121 80.2128L38.5703 64V77.9919C38.5703 78.7322 39.2366 79.3245 39.9769 79.3985H47.8242V68.812C50.2672 76.7334 58.6327 82.5078 68.627 82.5078C80.546 82.5078 90.2441 74.2163 90.2441 64C90.2441 62.3713 89.948 60.8907 89.5038 59.4101H106.383L87.8751 79.4725H126.593C127.334 79.4725 127.926 78.8803 128 78.14V70.1446H109.492ZM68.701 73.1799C62.9266 73.1799 58.1885 69.0341 58.1885 64C58.1885 58.8918 62.9266 54.8201 68.701 54.8201C74.5495 54.8201 79.2134 58.9659 79.2134 64C79.2134 69.0341 74.5495 73.1799 68.701 73.1799Z" fill="#4DBDEB"/>
</g>
<defs>
<clipPath id="clip0_240_6782">
<rect width="128" height="37.0156" fill="white" transform="translate(0 45.4922)"/>
</clipPath>
</defs>
</svg>
