<svg width="128" height="128" viewBox="0 0 128 128" fill="none" xmlns="http://www.w3.org/2000/svg">
<g clip-path="url(#clip0_364_114)">
<path d="M0 0H128V128H0V0Z" fill="white"/>
<mask id="mask0_364_114" style="mask-type:luminance" maskUnits="userSpaceOnUse" x="10" y="41" width="109" height="45">
<path d="M118.5 41.0367H10.5V85.9633H118.5V41.0367Z" fill="white"/>
</mask>
<g mask="url(#mask0_364_114)">
<path d="M98.3647 75.1267C99.1181 74.5405 99.8359 74.0278 100.499 73.451C102.709 71.5262 104.332 69.1932 105.283 66.4162C106.186 63.7793 106.36 61.0974 105.621 58.3963C104.886 55.7168 103.36 53.557 101.138 51.8978C97.799 49.4082 94.0153 48.5134 89.9062 48.8885C87.3274 49.1233 84.8748 49.845 82.6288 51.1195C81.3978 51.8196 80.2498 52.6859 79.1328 53.564C76.5635 55.5792 74.3723 57.9739 72.3189 60.4993C71.682 61.2824 71.0427 62.0657 70.4484 62.7944C71.0379 63.4161 71.5751 64.0404 72.1739 64.6029C73.5547 65.8987 74.9474 67.1852 76.3711 68.4359C78.2558 70.0903 80.2355 71.6282 82.3199 73.0285C84.2902 74.3529 86.3602 75.4922 88.561 76.3821C91.7743 77.6804 95.1039 77.9796 98.5215 77.4764C100.896 77.1274 103.116 76.3608 105.16 75.1076C106.963 73.9993 108.504 72.599 109.789 70.9138C110.825 69.5563 111.648 68.0846 112.259 66.4969C112.834 64.9969 113.186 63.4447 113.354 61.8449C113.654 59.0063 113.214 56.2603 112.32 53.576C111.653 51.568 110.671 49.7119 109.43 47.9913C108.266 46.375 106.897 44.958 105.328 43.7357C104.071 42.7555 102.714 41.9295 101.255 41.2816C101.152 41.2365 101.055 41.1772 100.984 41.0419C101.324 41.1107 101.663 41.1795 102.003 41.2507C105.091 41.8892 107.802 43.2895 110.224 45.2808C112.537 47.1843 114.362 49.4889 115.762 52.1186C117.031 54.5016 117.863 57.0341 118.269 59.7137C118.683 62.4406 118.516 65.1322 117.917 67.8094C117.421 70.0285 116.582 72.1148 115.42 74.0704C114.519 75.5823 113.452 76.966 112.23 78.2359C110.809 79.7097 109.226 80.9842 107.481 82.0524C105.39 83.3292 103.158 84.2786 100.779 84.8909C98.1722 85.5602 95.527 85.7739 92.8532 85.6173C90.7189 85.4915 88.6227 85.0951 86.5645 84.5064C84.1452 83.8133 81.8279 82.8664 79.6152 81.6725C77.5713 80.5712 75.6225 79.3157 73.7497 77.9415C70.1609 75.3094 66.9073 72.2952 63.7297 69.1932C61.5478 67.0642 59.3922 64.9066 57.1868 62.8014C55.5539 61.242 53.8927 59.7089 52.1862 58.2279C49.7098 56.0824 47.0954 54.117 44.234 52.5007C42.6843 51.6249 41.0967 50.818 39.407 50.2627C37.1254 49.5127 34.7654 49.2207 32.3626 49.3608C30.3376 49.4794 28.3673 49.8733 26.478 50.621C23.7138 51.7151 21.3919 53.4194 19.5263 55.7286C17.3492 58.4224 16.0707 61.5009 15.6737 64.9375C15.3053 68.1132 15.814 71.1773 16.9357 74.1464C18.2548 77.6425 20.3651 80.588 23.2528 82.9684C24.648 84.1173 26.1689 85.076 27.8351 85.7952C27.9087 85.826 27.9801 85.8641 28.1464 85.9448C27.9801 85.9566 27.9087 85.9756 27.8421 85.9661C25.6129 85.591 23.5214 84.8363 21.563 83.7066C18.9416 82.1923 16.7787 80.1725 15.0011 77.7421C13.5703 75.7842 12.4747 73.648 11.6999 71.3435C10.8705 68.8609 10.4355 66.3212 10.5068 63.7105C10.5781 61.0689 11.0915 58.5079 12.0683 56.0443C13.4586 52.5388 15.6452 49.5981 18.5113 47.17C21.3634 44.7515 24.6099 43.0735 28.2461 42.1431C30.4089 41.5901 32.6026 41.367 34.8271 41.386C38.454 41.4169 41.9239 42.2096 45.2987 43.496C48.2221 44.6092 50.9171 46.1376 53.5053 47.8726C55.9556 49.515 58.2419 51.3638 60.4451 53.3196C61.6763 54.4137 62.8599 55.5624 64.0672 56.6851C64.1432 56.7563 64.2263 56.8204 64.331 56.9083C64.8206 56.3292 65.2959 55.7642 65.776 55.2041C67.8983 52.7238 70.1561 50.3813 72.7039 48.3259C74.6909 46.7239 76.7917 45.3046 79.1185 44.2388C81.1577 43.3037 83.2777 42.6131 85.4831 42.1787C87.5818 41.7681 89.6923 41.6495 91.8194 41.7729C94.2745 41.9153 96.6392 42.4659 98.9042 43.4319C100.834 44.2556 102.621 45.3116 104.216 46.6788C106.025 48.231 107.451 50.0775 108.496 52.2231C109.347 53.9652 109.868 55.7975 110.082 57.7175C110.341 60.0412 110.101 62.322 109.362 64.5435C108.558 66.9597 107.242 69.0626 105.466 70.8902C103.574 72.8387 101.326 74.2035 98.7426 75.0269C98.638 75.0602 98.531 75.084 98.3647 75.1289V75.1267Z" fill="black"/>
<path d="M30.5473 51.9401C29.6868 52.6544 28.7884 53.338 27.9614 54.0998C26.2359 55.6925 24.9406 57.596 24.0447 59.7701C23.1511 61.944 22.7827 64.1965 23.0061 66.5342C23.3079 69.6791 24.6531 72.3088 27.0037 74.4235C29.1926 76.3934 31.783 77.5208 34.6684 78.0097C36.8453 78.3801 39.0081 78.2851 41.1662 77.8318C42.9771 77.4521 44.712 76.8515 46.3234 75.9591C47.9538 75.0548 49.4464 73.9322 50.8271 72.6839C52.0037 71.6182 53.142 70.5098 54.2424 69.3659C55.0814 68.4948 55.8325 67.5406 56.6239 66.6222C56.7213 66.5105 56.826 66.4037 56.9519 66.2661C58.9625 68.236 60.9423 70.1798 62.9577 72.1545C62.6939 72.4584 62.4585 72.7621 62.19 73.0327C60.638 74.5921 59.1313 76.2012 57.508 77.6847C55.6209 79.41 53.5557 80.9173 51.2812 82.1111C48.6597 83.4876 45.8981 84.4561 42.9653 84.952C40.3367 85.3983 37.7128 85.4434 35.0819 85.0304C32.641 84.6458 30.3357 83.8602 28.1658 82.6712C25.725 81.335 23.6288 79.6 22.0079 77.3311C20.532 75.2637 19.5528 72.9852 19.1037 70.4765C18.5713 67.498 18.8327 64.5999 19.9094 61.7733C20.8315 59.3571 22.2788 57.2875 24.1635 55.5311C25.9198 53.8958 27.9662 52.7376 30.2573 52.0089C30.3665 51.9733 30.4807 51.9542 30.5496 51.9377L30.5473 51.9401Z" fill="black"/>
</g>
</g>
<defs>
<clipPath id="clip0_364_114">
<rect width="128" height="128" fill="white"/>
</clipPath>
</defs>
</svg>
