<?xml version="1.0" encoding="UTF-8" standalone="no"?>
<!DOCTYPE svg PUBLIC "-//W3C//DTD SVG 1.1//EN" "http://www.w3.org/Graphics/SVG/1.1/DTD/svg11.dtd">
<svg xmlns="http://www.w3.org/2000/svg" version="1.1" viewBox="0.00 0.00 48.00 48.00">
<g stroke-width="2.00" fill="none" stroke-linecap="butt">
<path stroke="#000000" stroke-opacity="0.592" vector-effect="non-scaling-stroke" d="
  M 1.86 0.00
  Q 0.74 0.74 0.00 1.84"
/>
<path stroke="#000000" stroke-opacity="0.592" vector-effect="non-scaling-stroke" d="
  M 46.16 0.00
  Q 47.24 0.72 48.00 1.81"
/>
<path stroke="#000000" stroke-opacity="0.592" vector-effect="non-scaling-stroke" d="
  M 48.00 46.16
  Q 47.31 47.26 46.19 48.00"
/>
<path stroke="#000000" stroke-opacity="0.592" vector-effect="non-scaling-stroke" d="
  M 1.84 48.00
  Q 0.77 47.29 0.00 46.20"
/>
<path stroke="#808080" vector-effect="non-scaling-stroke" d="
  M 12.14 8.58
  A 0.62 0.62 0.0 0 0 11.70 9.64
  L 24.62 22.61
  A 0.62 0.62 0.0 0 0 25.68 22.17
  L 25.69 9.24
  A 0.62 0.62 0.0 0 0 25.07 8.62
  L 12.14 8.58"
/>
<path stroke="#808080" vector-effect="non-scaling-stroke" d="
  M 38.57 36.27
  A 0.57 0.56 0.0 0 0 39.14 35.71
  L 39.14 10.21
  A 1.58 1.58 0.0 0 0 37.56 8.63
  L 30.19 8.63
  A 1.53 1.53 0.0 0 0 28.66 10.16
  L 28.65 24.87
  A 4.20 4.20 0.0 0 0 29.87 27.83
  Q 36.89 34.81 38.17 36.05
  Q 38.39 36.27 38.57 36.27"
/>
<path stroke="#808080" vector-effect="non-scaling-stroke" d="
  M 9.18 11.45
  A 0.57 0.56 0.0 0 0 8.61 12.01
  L 8.62 37.54
  A 1.58 1.58 0.0 0 0 10.20 39.12
  L 17.58 39.12
  A 1.53 1.53 0.0 0 0 19.11 37.59
  L 19.11 22.86
  A 4.21 4.20 22.7 0 0 17.89 19.90
  Q 10.86 12.91 9.58 11.67
  Q 9.36 11.45 9.18 11.45"
/>
<path stroke="#808080" vector-effect="non-scaling-stroke" d="
  M 35.56 39.15
  A 0.62 0.62 0.0 0 0 36.01 38.09
  L 23.16 25.20
  A 0.62 0.62 0.0 0 0 22.10 25.64
  L 22.10 38.48
  A 0.62 0.62 0.0 0 0 22.72 39.10
  L 35.56 39.15"
/>
</g>
<path fill="#000000" fill-opacity="0.180" d="
  M 1.86 0.00
  Q 0.74 0.74 0.00 1.84
  L 0.00 0.00
  L 1.86 0.00
  Z"
/>
<path fill="#000000" d="
  M 46.16 0.00
  Q 47.24 0.72 48.00 1.81
  L 48.00 46.16
  Q 47.31 47.26 46.19 48.00
  L 1.84 48.00
  Q 0.77 47.29 0.00 46.20
  L 0.00 1.84
  Q 0.74 0.74 1.86 0.00
  L 46.16 0.00
  Z
  M 12.14 8.58
  A 0.62 0.62 0.0 0 0 11.70 9.64
  L 24.62 22.61
  A 0.62 0.62 0.0 0 0 25.68 22.17
  L 25.69 9.24
  A 0.62 0.62 0.0 0 0 25.07 8.62
  L 12.14 8.58
  Z
  M 38.57 36.27
  A 0.57 0.56 0.0 0 0 39.14 35.71
  L 39.14 10.21
  A 1.58 1.58 0.0 0 0 37.56 8.63
  L 30.19 8.63
  A 1.53 1.53 0.0 0 0 28.66 10.16
  L 28.65 24.87
  A 4.20 4.20 0.0 0 0 29.87 27.83
  Q 36.89 34.81 38.17 36.05
  Q 38.39 36.27 38.57 36.27
  Z
  M 9.18 11.45
  A 0.57 0.56 0.0 0 0 8.61 12.01
  L 8.62 37.54
  A 1.58 1.58 0.0 0 0 10.20 39.12
  L 17.58 39.12
  A 1.53 1.53 0.0 0 0 19.11 37.59
  L 19.11 22.86
  A 4.21 4.20 22.7 0 0 17.89 19.90
  Q 10.86 12.91 9.58 11.67
  Q 9.36 11.45 9.18 11.45
  Z
  M 35.56 39.15
  A 0.62 0.62 0.0 0 0 36.01 38.09
  L 23.16 25.20
  A 0.62 0.62 0.0 0 0 22.10 25.64
  L 22.10 38.48
  A 0.62 0.62 0.0 0 0 22.72 39.10
  L 35.56 39.15
  Z"
/>
<path fill="#000000" fill-opacity="0.180" d="
  M 48.00 0.00
  L 48.00 1.81
  Q 47.24 0.72 46.16 0.00
  L 48.00 0.00
  Z"
/>
<path fill="#ffffff" d="
  M 12.14 8.58
  L 25.07 8.62
  A 0.62 0.62 0.0 0 1 25.69 9.24
  L 25.68 22.17
  A 0.62 0.62 0.0 0 1 24.62 22.61
  L 11.70 9.64
  A 0.62 0.62 0.0 0 1 12.14 8.58
  Z"
/>
<path fill="#ffffff" d="
  M 38.57 36.27
  Q 38.39 36.27 38.17 36.05
  Q 36.89 34.81 29.87 27.83
  A 4.20 4.20 0.0 0 1 28.65 24.87
  L 28.66 10.16
  A 1.53 1.53 0.0 0 1 30.19 8.63
  L 37.56 8.63
  A 1.58 1.58 0.0 0 1 39.14 10.21
  L 39.14 35.71
  A 0.57 0.56 0.0 0 1 38.57 36.27
  Z"
/>
<path fill="#ffffff" d="
  M 9.18 11.45
  Q 9.36 11.45 9.58 11.67
  Q 10.86 12.91 17.89 19.90
  A 4.21 4.20 22.7 0 1 19.11 22.86
  L 19.11 37.59
  A 1.53 1.53 0.0 0 1 17.58 39.12
  L 10.20 39.12
  A 1.58 1.58 0.0 0 1 8.62 37.54
  L 8.61 12.01
  A 0.57 0.56 -0.0 0 1 9.18 11.45
  Z"
/>
<path fill="#ffffff" d="
  M 35.56 39.15
  L 22.72 39.10
  A 0.62 0.62 0.0 0 1 22.10 38.48
  L 22.10 25.64
  A 0.62 0.62 0.0 0 1 23.16 25.20
  L 36.01 38.09
  A 0.62 0.62 0.0 0 1 35.56 39.15
  Z"
/>
<path fill="#000000" fill-opacity="0.180" d="
  M 1.84 48.00
  L 0.00 48.00
  L 0.00 46.20
  Q 0.77 47.29 1.84 48.00
  Z"
/>
<path fill="#000000" fill-opacity="0.180" d="
  M 48.00 46.16
  L 48.00 48.00
  L 46.19 48.00
  Q 47.31 47.26 48.00 46.16
  Z"
/>
</svg>
