<?xml version="1.0" encoding="UTF-8" standalone="no"?>
<!DOCTYPE svg PUBLIC "-//W3C//DTD SVG 1.1//EN" "http://www.w3.org/Graphics/SVG/1.1/DTD/svg11.dtd">
<svg xmlns="http://www.w3.org/2000/svg" version="1.1" viewBox="0.00 0.00 400.00 400.00">
<g stroke-width="2.00" fill="none" stroke-linecap="butt">
<path stroke="#918f90" vector-effect="non-scaling-stroke" d="
  M 170.82 312.86
  Q 167.20 303.12 160.42 297.84
  C 152.79 291.89 141.97 289.31 132.41 291.62
  Q 123.23 293.85 116.49 300.81
  Q 114.60 302.76 112.74 305.91
  Q 111.17 308.57 109.60 311.43"
/>
<path stroke="#5c5651" vector-effect="non-scaling-stroke" d="
  M 170.19 330.06
  L 169.82 330.23"
/>
<path stroke="#918f90" vector-effect="non-scaling-stroke" d="
  M 169.82 330.23
  C 167.95 334.86 165.18 340.58 161.11 343.60
  C 155.58 347.70 149.71 349.94 142.84 350.24
  C 135.62 350.56 129.74 350.51 123.30 346.70
  Q 114.47 341.47 109.66 329.98"
/>
<path stroke="#cac6c0" vector-effect="non-scaling-stroke" d="
  M 169.82 330.23
  L 170.10 330.58"
/>
<path stroke="#918f90" vector-effect="non-scaling-stroke" d="
  M 108.83 314.54
  L 108.48 325.02"
/>
<path stroke="#918f90" vector-effect="non-scaling-stroke" d="
  M 108.21 326.21
  Q 107.98 326.78 107.99 327.45"
/>
<path stroke="#cac6c0" vector-effect="non-scaling-stroke" d="
  M 45.43 307.44
  Q 44.48 306.89 44.20 307.39"
/>
<path stroke="#918f90" vector-effect="non-scaling-stroke" d="
  M 32.75 307.28
  Q 32.21 306.61 32.53 306.05
  Q 32.93 305.36 33.77 305.37
  Q 38.63 305.45 43.07 305.13
  A 1.10 1.09 -2.8 0 0 44.09 304.02
  L 43.93 293.22"
/>
<path stroke="#cac6c0" vector-effect="non-scaling-stroke" d="
  M 43.93 293.22
  L 44.29 291.73"
/>
<path stroke="#5c5651" vector-effect="non-scaling-stroke" d="
  M 43.93 293.22
  L 7.54 293.36
  A 1.79 1.79 0.0 0 0 5.78 295.44
  Q 6.51 299.84 5.57 303.58
  A 0.36 0.35 9.3 0 1 5.19 303.85
  Q 5.07 303.83 4.91 303.77"
/>
<path stroke="#5c5651" vector-effect="non-scaling-stroke" d="
  M 32.15 348.69
  L 18.85 348.62
  A 0.85 0.84 -0.0 0 1 18.00 347.78
  L 18.00 307.00
  A 1.76 1.76 0.0 0 0 16.35 305.24
  L 5.08 304.60"
/>
<path stroke="#5c5651" vector-effect="non-scaling-stroke" d="
  M 219.27 291.10
  Q 219.27 291.18 219.27 291.27"
/>
<path stroke="#918f90" vector-effect="non-scaling-stroke" d="
  M 219.27 291.27
  L 218.54 291.19"
/>
<path stroke="#cac6c0" vector-effect="non-scaling-stroke" d="
  M 225.34 291.14
  L 219.27 291.27"
/>
<path stroke="#918f90" vector-effect="non-scaling-stroke" d="
  M 226.50 291.09
  L 227.21 291.09"
/>
<path stroke="#918f90" vector-effect="non-scaling-stroke" d="
  M 229.79 291.11
  L 230.45 291.18"
/>
<path stroke="#918f90" vector-effect="non-scaling-stroke" d="
  M 238.47 350.12
  L 237.29 350.12"
/>
<path stroke="#918f90" vector-effect="non-scaling-stroke" d="
  M 175.85 348.89
  L 207.84 348.50
  A 0.73 0.73 0.0 0 0 208.55 347.64
  Q 207.72 342.82 208.67 338.47
  A 1.51 1.51 0.0 0 0 207.30 336.64
  Q 202.25 336.27 194.01 336.42
  Q 192.41 336.45 191.16 335.87
  A 0.63 0.63 0.0 0 1 191.09 334.77
  Q 191.40 334.57 191.90 334.69"
/>
<path stroke="#918f90" vector-effect="non-scaling-stroke" d="
  M 208.96 334.68
  Q 209.36 334.64 209.54 334.29"
/>
<path stroke="#918f90" vector-effect="non-scaling-stroke" d="
  M 209.61 313.71
  L 209.63 312.79"
/>
<path stroke="#918f90" vector-effect="non-scaling-stroke" d="
  M 209.63 312.54
  L 209.63 310.79"
/>
<path stroke="#918f90" vector-effect="non-scaling-stroke" d="
  M 209.62 310.54
  L 209.61 309.79"
/>
<path stroke="#5c5651" vector-effect="non-scaling-stroke" d="
  M 175.36 346.61
  Q 176.34 345.98 176.28 344.25
  Q 176.02 337.01 176.17 329.75
  Q 176.18 329.25 175.81 329.22"
/>
<path stroke="#5c5651" vector-effect="non-scaling-stroke" d="
  M 175.86 307.60
  Q 177.11 301.82 175.63 296.11"
/>
<path stroke="#5c5651" vector-effect="non-scaling-stroke" d="
  M 175.78 334.33
  Q 175.57 333.98 175.62 333.46"
/>
<path stroke="#5c5651" vector-effect="non-scaling-stroke" d="
  M 175.61 331.21
  L 175.65 330.29"
/>
<path stroke="#cac6c0" vector-effect="non-scaling-stroke" d="
  M 191.25 294.44
  L 191.36 296.29"
/>
<path stroke="#918f90" vector-effect="non-scaling-stroke" d="
  M 191.04 331.22
  L 190.68 294.21
  A 1.58 1.58 0.0 0 0 189.03 292.65
  L 175.59 293.23"
/>
<path stroke="#918f90" vector-effect="non-scaling-stroke" d="
  M 384.94 311.93
  Q 393.85 307.51 391.97 299.42
  C 391.14 295.87 388.87 293.64 385.24 293.30
  C 379.67 292.78 374.53 292.75 372.84 299.39
  Q 371.39 305.09 375.89 309.35
  A 2.17 2.16 82.0 0 0 376.26 309.63
  Q 378.04 310.63 379.04 311.85"
/>
<path stroke="#918f90" vector-effect="non-scaling-stroke" d="
  M 109.88 68.59
  Q 110.17 71.51 111.36 74.14
  Q 119.21 91.51 126.28 108.57
  A 0.46 0.45 -42.0 0 0 127.10 108.61
  C 128.19 106.60 129.44 104.85 130.38 102.64
  Q 137.47 86.02 144.43 69.25"
/>
<path stroke="#5c5651" vector-effect="non-scaling-stroke" d="
  M 253.82 68.89
  Q 253.44 83.93 253.51 98.98
  Q 253.51 99.68 253.70 100.20
  A 0.40 0.40 0.0 0 0 254.45 100.21
  Q 254.50 100.07 254.80 99.92"
/>
<path stroke="#918f90" vector-effect="non-scaling-stroke" d="
  M 255.79 101.12
  C 253.63 102.90 251.34 104.99 249.21 106.42
  Q 241.15 111.83 237.18 115.41
  Q 208.05 141.65 203.39 178.56
  Q 198.61 216.44 219.65 248.58
  Q 222.49 252.91 234.13 266.83"
/>
<path stroke="#5c5651" vector-effect="non-scaling-stroke" d="
  M 231.28 266.40
  Q 229.48 265.48 225.75 265.45
  Q 199.84 265.23 190.59 265.13
  C 183.68 265.06 175.52 265.35 167.14 265.48
  A 1.28 1.28 0.0 0 1 165.84 264.17
  Q 166.04 255.97 166.01 248.25
  Q 165.88 219.74 165.38 184.75
  Q 165.33 180.65 164.21 182.99"
/>
<path stroke="#918f90" vector-effect="non-scaling-stroke" d="
  M 163.25 181.79
  Q 163.55 181.06 164.44 180.94
  A 0.77 0.75 -88.3 0 0 165.09 180.31
  L 165.43 178.26
  A 0.32 0.32 0.0 0 0 164.91 177.97
  Q 163.96 178.81 163.85 179.96
  A 1.35 1.35 0.0 0 1 163.16 181.03
  L 162.46 181.41
  A 1.33 1.28 -89.4 0 0 161.91 181.97
  L 156.85 191.68
  A 0.34 0.22 -83.4 0 1 156.75 191.80
  Q 156.06 192.28 153.89 196.13
  Q 149.58 203.77 148.42 205.83
  C 147.10 208.18 146.35 210.34 145.23 211.88
  Q 143.68 214.03 142.53 216.26
  C 140.60 219.99 137.31 226.23 134.10 231.60
  Q 130.87 237.00 128.00 242.75
  Q 127.45 243.86 126.52 244.05
  A 0.94 0.93 70.1 0 1 125.51 243.57
  L 89.21 177.13
  A 0.41 0.41 0.0 0 0 88.45 177.26
  Q 88.00 179.93 90.25 181.53"
/>
<path stroke="#5c5651" vector-effect="non-scaling-stroke" d="
  M 89.10 182.79
  Q 88.15 182.95 88.14 184.26
  Q 87.83 225.04 88.19 264.47
  A 0.89 0.89 0.0 0 1 87.31 265.37
  Q 69.20 265.56 50.96 265.07
  Q 29.08 264.49 7.31 265.74"
/>
<path stroke="#5c5651" vector-effect="non-scaling-stroke" d="
  M 255.08 76.03
  L 255.10 76.71"
/>
<path stroke="#918f90" vector-effect="non-scaling-stroke" d="
  M 400.00 224.11
  L 398.91 229.77"
/>
<path stroke="#cac6c0" vector-effect="non-scaling-stroke" d="
  M 343.03 334.71
  Q 342.97 334.08 342.13 334.70"
/>
<path stroke="#918f90" vector-effect="non-scaling-stroke" d="
  M 312.30 347.78
  Q 313.31 348.68 315.50 348.71
  Q 325.50 348.82 329.22 348.78
  A 2.66 2.63 -71.5 0 0 331.31 347.72
  L 336.92 340.32
  A 1.08 0.84 83.0 0 0 337.04 340.12
  Q 339.05 336.19 342.50 332.23
  A 0.80 0.80 0.0 0 1 343.77 332.31
  L 354.28 348.39
  A 0.91 0.91 0.0 0 0 355.04 348.80
  L 370.51 348.80
  A 1.18 1.18 0.0 0 0 371.50 346.98
  Q 369.70 344.18 361.01 331.96
  Q 359.38 329.67 358.48 328.22
  C 354.92 322.45 349.99 320.18 356.05 313.07
  Q 358.24 310.49 359.34 308.19
  A 5.83 5.79 79.2 0 1 360.25 306.84
  Q 363.29 303.46 365.78 298.92
  C 366.80 297.04 368.88 295.85 369.17 293.51
  A 0.95 0.94 -3.8 0 0 367.99 292.48
  Q 366.89 292.78 362.55 292.46
  C 359.32 292.22 356.77 292.61 353.26 292.82
  Q 350.83 292.96 349.75 295.03
  Q 347.05 300.24 344.40 303.93
  Q 343.91 304.62 343.02 305.32
  A 0.53 0.52 55.4 0 1 342.24 305.17
  L 335.52 293.87
  A 2.06 2.03 -4.0 0 0 334.53 293.02
  L 331.56 291.83
  A 1.52 1.49 52.7 0 0 330.88 291.73
  L 317.26 292.72
  A 0.56 0.55 76.3 0 0 316.79 293.50
  Q 318.22 296.81 320.66 299.68
  Q 321.79 301.02 325.34 306.19
  Q 329.16 311.75 332.82 317.17
  A 3.24 3.23 -40.2 0 1 332.47 321.22
  Q 330.78 322.98 329.29 325.36
  C 326.83 329.30 322.60 334.15 321.00 336.78
  Q 320.98 336.81 317.94 340.72
  Q 316.37 342.76 314.64 345.62
  Q 314.03 346.63 312.89 346.55"
/>
<path stroke="#cac6c0" vector-effect="non-scaling-stroke" d="
  M 294.54 350.51
  Q 295.79 349.68 295.09 349.87"
/>
<path stroke="#918f90" vector-effect="non-scaling-stroke" d="
  M 295.09 349.87
  Q 313.61 345.62 318.33 328.03
  C 319.37 324.16 319.11 320.93 319.22 316.45
  A 4.29 4.09 -52.4 0 0 319.11 315.41
  Q 316.47 304.22 307.55 296.97
  C 302.09 292.55 293.87 290.86 287.00 290.96
  Q 278.96 291.07 272.07 294.66
  Q 260.97 300.43 257.49 313.20
  C 256.45 317.00 256.64 321.41 256.47 325.61"
/>
<path stroke="#fac093" vector-effect="non-scaling-stroke" d="
  M 394.21 191.90
  A 90.38 90.38 0.0 0 0 303.83 101.52
  A 90.38 90.38 0.0 0 0 213.45 191.90
  A 90.38 90.38 0.0 0 0 303.83 282.28
  A 90.38 90.38 0.0 0 0 394.21 191.90"
/>
<path stroke="#fac093" vector-effect="non-scaling-stroke" d="
  M 283.75 191.52
  Q 283.75 192.04 283.57 192.27
  Q 243.02 244.36 240.62 247.43
  Q 240.27 247.88 240.32 248.35
  Q 240.39 248.88 240.93 248.88
  Q 259.69 248.91 278.69 248.83
  A 3.36 3.36 0.0 0 0 281.33 247.52
  L 303.53 218.82
  A 1.10 1.10 0.0 0 1 305.25 218.80
  Q 309.85 224.48 326.48 246.00
  C 327.30 247.07 328.48 248.80 329.77 248.81
  Q 344.94 248.90 367.75 248.83
  A 0.81 0.81 0.0 0 0 368.49 247.69
  Q 368.32 247.32 367.82 246.68
  Q 351.99 226.50 325.80 192.72
  Q 325.35 192.14 325.35 191.51
  Q 325.35 190.89 325.80 190.31
  Q 351.98 156.52 367.80 136.33
  Q 368.30 135.69 368.47 135.32
  A 0.81 0.81 0.0 0 0 367.73 134.18
  Q 344.92 134.12 329.75 134.22
  C 328.46 134.23 327.28 135.96 326.46 137.03
  Q 309.84 158.55 305.24 164.24
  A 1.10 1.10 0.0 0 1 303.52 164.22
  L 281.31 135.52
  A 3.36 3.36 0.0 0 0 278.67 134.21
  Q 259.67 134.14 240.91 134.18
  Q 240.37 134.18 240.30 134.71
  Q 240.25 135.18 240.60 135.63
  Q 243.00 138.70 283.57 190.77
  Q 283.75 191.00 283.75 191.52"
/>
<path stroke="#5c5651" vector-effect="non-scaling-stroke" d="
  M 65.30 266.35
  Q 63.99 266.53 63.54 266.20"
/>
<path stroke="#918f90" vector-effect="non-scaling-stroke" d="
  M 44.5908 320.6216
  A 31.29 30.11 -179.6 0 0 75.6698 350.9493
  A 31.29 30.11 -179.6 0 0 107.1692 321.0584
  A 31.29 30.11 -179.6 0 0 76.0902 290.7307
  A 31.29 30.11 -179.6 0 0 44.5908 320.6216"
/>
<path stroke="#918f90" vector-effect="non-scaling-stroke" d="
  M 91.17 320.77
  A 15.36 15.36 0.0 0 0 75.81 305.41
  A 15.36 15.36 0.0 0 0 60.45 320.77
  A 15.36 15.36 0.0 0 0 75.81 336.13
  A 15.36 15.36 0.0 0 0 91.17 320.77"
/>
<path stroke="#918f90" vector-effect="non-scaling-stroke" d="
  M 155.28 320.72
  A 15.31 15.31 0.0 0 0 139.97 305.41
  A 15.31 15.31 0.0 0 0 124.66 320.72
  A 15.31 15.31 0.0 0 0 139.97 336.03
  A 15.31 15.31 0.0 0 0 155.28 320.72"
/>
<path stroke="#5c5651" vector-effect="non-scaling-stroke" d="
  M 295.09 349.87
  Q 287.81 351.10 280.72 349.84"
/>
<path stroke="#918f90" vector-effect="non-scaling-stroke" d="
  M 280.72 349.84
  C 275.77 348.69 271.68 347.38 267.59 343.89
  Q 259.83 337.24 257.22 327.91"
/>
<path stroke="#5c5651" vector-effect="non-scaling-stroke" d="
  M 302.84 324.00
  A 9.85 5.20 -85.3 0 0 303.07 322.64"
/>
<path stroke="#918f90" vector-effect="non-scaling-stroke" d="
  M 303.07 322.64
  A 15.33 15.32 12.6 0 0 292.58 306.14
  A 15.33 15.32 25.0 0 0 274.89 312.59
  A 15.35 15.34 -33.4 0 0 272.73 323.07
  A 15.32 15.30 3.6 0 0 283.67 335.45
  A 15.32 15.30 -59.3 0 0 298.63 331.63
  A 15.42 15.36 77.2 0 0 302.38 325.64
  A 12.05 8.22 -72.9 0 0 302.84 324.00"
/>
<path stroke="#cac6c0" vector-effect="non-scaling-stroke" d="
  M 303.07 322.64
  Q 303.08 322.56 303.00 322.46"
/>
<path stroke="#918f90" vector-effect="non-scaling-stroke" d="
  M 288.47 307.18
  Q 288.02 307.07 287.54 307.11"
/>
<path stroke="#918f90" vector-effect="non-scaling-stroke" d="
  M 286.46 307.11
  L 284.49 307.11"
/>
<path stroke="#cac6c0" vector-effect="non-scaling-stroke" d="
  M 302.65 323.57
  Q 302.65 323.71 302.84 324.00"
/>
<path stroke="#918f90" vector-effect="non-scaling-stroke" d="
  M 210.79 293.74
  L 210.79 347.63
  A 1.04 1.04 0.0 0 0 211.82 348.67
  Q 229.65 348.86 231.75 348.85
  Q 239.97 348.81 245.23 346.92
  Q 250.69 344.95 253.09 338.83
  C 254.44 335.41 254.06 329.40 252.92 326.27
  Q 251.07 321.20 245.60 319.31
  A 0.87 0.87 0.0 0 1 245.20 317.95
  Q 249.73 312.14 248.78 304.75
  C 247.64 295.88 240.61 292.61 232.50 292.50
  Q 222.38 292.35 211.62 292.87
  A 0.87 0.87 0.0 0 0 210.79 293.74"
/>
<path stroke="#5c5651" vector-effect="non-scaling-stroke" d="
  M 233.77 312.05
  L 233.91 311.53"
/>
<path stroke="#918f90" vector-effect="non-scaling-stroke" d="
  M 234.23 308.52
  Q 234.76 306.36 231.89 305.03
  A 0.78 0.78 0.0 0 0 231.68 304.96
  L 228.35 304.40
  A 1.67 1.67 0.0 0 0 226.43 305.75
  Q 225.70 309.75 226.46 313.89
  A 1.19 1.19 0.0 0 0 227.74 314.85
  Q 231.23 314.53 233.77 312.05"
/>
<path stroke="#cac6c0" vector-effect="non-scaling-stroke" d="
  M 233.51 311.73
  Q 233.65 311.83 233.77 312.05"
/>
<path stroke="#5c5651" vector-effect="non-scaling-stroke" d="
  M 229.95 337.36
  Q 230.55 337.56 230.97 337.22"
/>
<path stroke="#5c5651" vector-effect="non-scaling-stroke" d="
  M 232.76 336.89
  Q 233.33 337.16 234.29 336.82"
/>
<path stroke="#918f90" vector-effect="non-scaling-stroke" d="
  M 234.29 336.82
  Q 237.72 335.87 238.34 332.85
  C 239.84 325.56 231.91 324.99 227.13 326.33
  A 1.77 1.76 80.4 0 0 225.84 328.16
  L 226.46 336.69
  A 0.82 0.82 0.0 0 0 227.05 337.42
  Q 228.40 337.82 229.95 337.36"
/>
<path stroke="#cac6c0" vector-effect="non-scaling-stroke" d="
  M 234.29 336.82
  L 233.52 336.55"
/>
<path stroke="#918f90" vector-effect="non-scaling-stroke" d="
  M 233.48 327.45
  Q 232.83 327.25 232.22 327.44"
/>
<path stroke="#cac6c0" vector-effect="non-scaling-stroke" d="
  M 227.47 330.04
  Q 227.22 330.60 227.39 331.29"
/>
<path stroke="#cac6c0" vector-effect="non-scaling-stroke" d="
  M 230.29 337.09
  L 229.95 337.36"
/>
<path stroke="#5c5651" vector-effect="non-scaling-stroke" d="
  M 379.32 296.62
  A 0.20 0.20 0.0 0 0 378.93 296.67
  Q 378.93 296.82 379.22 296.76
  Q 379.35 296.73 379.32 296.62"
/>
<path stroke="#918f90" vector-effect="non-scaling-stroke" d="
  M 387.83 300.18
  Q 388.84 298.08 386.38 297.01
  A 0.39 0.39 0.0 0 0 385.83 297.39
  Q 385.85 297.57 386.11 297.82
  C 387.05 298.73 384.96 303.06 385.26 304.71
  Q 385.55 306.30 387.00 304.92"
/>
<path stroke="#5c5651" vector-effect="non-scaling-stroke" d="
  M 378.9926 298.7367
  A 0.21 0.13 -75.5 0 0 378.8141 298.9075
  A 0.21 0.13 -75.5 0 0 378.8874 299.1433
  A 0.21 0.13 -75.5 0 0 379.0659 298.9725
  A 0.21 0.13 -75.5 0 0 378.9926 298.7367"
/>
<path stroke="#918f90" vector-effect="non-scaling-stroke" d="
  M 377.47 302.98
  Q 378.07 305.04 377.04 305.42
  A 0.65 0.65 0.0 0 0 376.64 306.23
  Q 376.81 306.75 378.08 307.36
  A 0.45 0.45 0.0 0 0 378.67 306.74
  L 378.11 305.70
  A 0.75 0.73 -43.3 0 1 378.14 304.93
  Q 379.04 303.52 378.92 301.58
  A 0.52 0.52 0.0 0 0 378.43 301.08
  L 378.08 301.05"
/>
<path stroke="#5c5651" vector-effect="non-scaling-stroke" d="
  M 377.93 300.53
  Q 378.51 300.55 378.64 300.37
  Q 378.29 300.40 377.93 300.53"
/>
<path stroke="#cac6c0" vector-effect="non-scaling-stroke" d="
  M 377.47 302.98
  Q 378.00 302.79 377.72 302.01"
/>
<path stroke="#918f90" vector-effect="non-scaling-stroke" d="
  M 379.40 308.08
  Q 381.44 309.61 384.32 308.54
  A 0.43 0.43 0.0 0 0 384.12 307.71
  Q 381.34 308.07 379.57 307.70
  A 0.21 0.21 0.0 0 0 379.40 308.08"
/>
<path stroke="#918f90" vector-effect="non-scaling-stroke" d="
  M 77.54 306.94
  A 6.99 4.95 10.6 0 0 76.56 306.85"
/>
<path stroke="#918f90" vector-effect="non-scaling-stroke" d="
  M 74.47 306.88
  A 10.65 8.13 -0.4 0 0 72.99 307.10"
/>
<path stroke="#918f90" vector-effect="non-scaling-stroke" d="
  M 140.97 307.13
  L 140.04 307.10"
/>
<path stroke="#918f90" vector-effect="non-scaling-stroke" d="
  M 137.47 307.10
  L 136.49 307.10"
/>
<path stroke="#cac6c0" vector-effect="non-scaling-stroke" d="
  M 280.72 349.84
  L 281.99 350.62"
/>
</g>
<path fill="#231f20" d="
  M 109.88 68.59
  Q 110.17 71.51 111.36 74.14
  Q 119.21 91.51 126.28 108.57
  A 0.46 0.45 -42.0 0 0 127.10 108.61
  C 128.19 106.60 129.44 104.85 130.38 102.64
  Q 137.47 86.02 144.43 69.25
  Q 145.23 68.60 146.75 68.61
  Q 200.32 68.69 253.88 68.72
  A 0.05 0.04 22.5 0 1 253.92 68.80
  Q 253.87 68.85 253.82 68.89
  Q 253.44 83.93 253.51 98.98
  Q 253.51 99.68 253.70 100.20
  A 0.40 0.40 0.0 0 0 254.45 100.21
  Q 254.50 100.07 254.80 99.92
  Q 255.09 100.78 255.79 101.12
  C 253.63 102.90 251.34 104.99 249.21 106.42
  Q 241.15 111.83 237.18 115.41
  Q 208.05 141.65 203.39 178.56
  Q 198.61 216.44 219.65 248.58
  Q 222.49 252.91 234.13 266.83
  Q 232.34 266.86 231.28 266.40
  Q 229.48 265.48 225.75 265.45
  Q 199.84 265.23 190.59 265.13
  C 183.68 265.06 175.52 265.35 167.14 265.48
  A 1.28 1.28 0.0 0 1 165.84 264.17
  Q 166.04 255.97 166.01 248.25
  Q 165.88 219.74 165.38 184.75
  Q 165.33 180.65 164.21 182.99
  Q 163.93 181.91 163.25 181.79
  Q 163.55 181.06 164.44 180.94
  A 0.77 0.75 -88.3 0 0 165.09 180.31
  L 165.43 178.26
  A 0.32 0.32 0.0 0 0 164.91 177.97
  Q 163.96 178.81 163.85 179.96
  A 1.35 1.35 0.0 0 1 163.16 181.03
  L 162.46 181.41
  A 1.33 1.28 -89.4 0 0 161.91 181.97
  L 156.85 191.68
  A 0.34 0.22 -83.4 0 1 156.75 191.80
  Q 156.06 192.28 153.89 196.13
  Q 149.58 203.77 148.42 205.83
  C 147.10 208.18 146.35 210.34 145.23 211.88
  Q 143.68 214.03 142.53 216.26
  C 140.60 219.99 137.31 226.23 134.10 231.60
  Q 130.87 237.00 128.00 242.75
  Q 127.45 243.86 126.52 244.05
  A 0.94 0.93 70.1 0 1 125.51 243.57
  L 89.21 177.13
  A 0.41 0.41 0.0 0 0 88.45 177.26
  Q 88.00 179.93 90.25 181.53
  Q 88.80 181.75 89.10 182.79
  Q 88.15 182.95 88.14 184.26
  Q 87.83 225.04 88.19 264.47
  A 0.89 0.89 0.0 0 1 87.31 265.37
  Q 69.20 265.56 50.96 265.07
  Q 29.08 264.49 7.31 265.74
  L 7.33 69.43
  A 0.72 0.72 0.0 0 1 8.05 68.71
  L 109.88 68.59
  Z"
/>
<path fill="#ffffff" d="
  M 144.43 69.25
  Q 137.47 86.02 130.38 102.64
  C 129.44 104.85 128.19 106.60 127.10 108.61
  A 0.46 0.45 -42.0 0 1 126.28 108.57
  Q 119.21 91.51 111.36 74.14
  Q 110.17 71.51 109.88 68.59
  Q 111.49 70.40 112.53 73.14
  Q 114.18 77.45 114.47 78.05
  C 117.03 83.32 119.41 88.14 121.65 94.02
  Q 123.74 99.51 126.44 104.89
  A 0.39 0.39 0.0 0 0 127.07 104.99
  Q 129.45 102.47 130.70 99.14
  Q 135.96 85.06 142.26 71.32
  Q 142.91 69.90 144.43 69.25
  Z"
/>
<path fill="#958c81" d="
  M 255.08 76.03
  L 255.10 76.71
  L 254.80 99.92
  Q 254.50 100.07 254.45 100.21
  A 0.40 0.40 0.0 0 1 253.70 100.20
  Q 253.51 99.68 253.51 98.98
  Q 253.44 83.93 253.82 68.89
  Q 254.85 68.90 254.88 69.11
  Q 255.42 72.53 255.08 76.03
  Z"
/>
<path fill="#231f20" d="
  M 255.10 76.71
  L 255.08 76.03
  Q 255.19 76.37 255.10 76.71
  Z"
/>
<path fill="#ffffff" d="
  M 400.00 158.98
  L 400.00 224.11
  L 398.91 229.77
  C 390.98 253.24 371.49 272.57 349.71 283.72
  C 344.43 286.43 338.74 288.19 333.05 290.12
  A 0.51 0.51 0.0 0 0 333.04 291.08
  L 336.07 292.20
  A 1.11 1.09 -89.6 0 1 336.73 292.88
  Q 338.67 298.54 341.72 302.28
  A 1.07 1.06 -42.3 0 0 343.31 302.35
  Q 346.33 299.27 349.21 294.01
  C 351.36 290.10 366.07 291.30 370.57 291.92
  A 0.53 0.53 0.0 0 1 371.02 292.54
  Q 370.72 294.28 369.99 295.27
  C 367.52 298.62 366.17 301.32 363.48 304.45
  Q 359.70 308.83 355.60 315.63
  Q 353.76 318.68 355.54 321.69
  Q 356.24 322.89 364.77 335.26
  C 367.88 339.77 371.51 343.53 373.18 348.65
  A 1.17 1.16 72.3 0 1 372.43 350.12
  Q 372.17 350.20 371.00 350.23
  Q 366.64 350.36 356.31 350.57
  Q 353.74 350.62 352.56 348.67
  C 348.95 342.72 347.31 339.24 343.03 334.71
  Q 342.97 334.08 342.13 334.70
  L 331.87 349.36
  A 2.39 2.38 17.5 0 1 329.92 350.37
  L 312.44 350.31
  A 1.56 1.55 89.4 0 1 310.89 348.78
  Q 310.89 348.65 312.30 347.78
  Q 313.31 348.68 315.50 348.71
  Q 325.50 348.82 329.22 348.78
  A 2.66 2.63 -71.5 0 0 331.31 347.72
  L 336.92 340.32
  A 1.08 0.84 83.0 0 0 337.04 340.12
  Q 339.05 336.19 342.50 332.23
  A 0.80 0.80 0.0 0 1 343.77 332.31
  L 354.28 348.39
  A 0.91 0.91 0.0 0 0 355.04 348.80
  L 370.51 348.80
  A 1.18 1.18 0.0 0 0 371.50 346.98
  Q 369.70 344.18 361.01 331.96
  Q 359.38 329.67 358.48 328.22
  C 354.92 322.45 349.99 320.18 356.05 313.07
  Q 358.24 310.49 359.34 308.19
  A 5.83 5.79 79.2 0 1 360.25 306.84
  Q 363.29 303.46 365.78 298.92
  C 366.80 297.04 368.88 295.85 369.17 293.51
  A 0.95 0.94 -3.8 0 0 367.99 292.48
  Q 366.89 292.78 362.55 292.46
  C 359.32 292.22 356.77 292.61 353.26 292.82
  Q 350.83 292.96 349.75 295.03
  Q 347.05 300.24 344.40 303.93
  Q 343.91 304.62 343.02 305.32
  A 0.53 0.52 55.4 0 1 342.24 305.17
  L 335.52 293.87
  A 2.06 2.03 -4.0 0 0 334.53 293.02
  L 331.56 291.83
  A 1.52 1.49 52.7 0 0 330.88 291.73
  L 317.26 292.72
  A 0.56 0.55 76.3 0 0 316.79 293.50
  Q 318.22 296.81 320.66 299.68
  Q 321.79 301.02 325.34 306.19
  Q 329.16 311.75 332.82 317.17
  A 3.24 3.23 -40.2 0 1 332.47 321.22
  Q 330.78 322.98 329.29 325.36
  C 326.83 329.30 322.60 334.15 321.00 336.78
  Q 320.98 336.81 317.94 340.72
  Q 316.37 342.76 314.64 345.62
  Q 314.03 346.63 312.89 346.55
  Q 316.32 340.38 320.83 335.03
  A 4.23 4.17 -10.9 0 0 321.27 334.39
  Q 322.82 331.57 325.29 328.93
  A 1.45 1.35 88.0 0 0 325.42 328.78
  L 331.51 319.99
  A 2.56 2.54 -40.5 0 0 331.72 317.46
  C 331.02 315.99 329.67 314.90 328.66 313.33
  Q 319.86 299.65 317.26 295.77
  C 315.22 292.73 310.71 293.25 307.95 293.81
  A 0.73 0.73 0.0 0 0 307.60 295.05
  C 313.27 300.42 317.33 304.23 319.29 312.50
  Q 319.82 314.76 320.40 315.98
  Q 321.17 317.59 321.36 319.00
  A 2.27 2.22 -39.4 0 1 321.25 320.00
  C 319.58 324.55 318.65 330.08 316.38 334.48
  C 313.65 339.79 311.62 344.16 307.23 346.22
  C 303.67 347.89 300.13 350.23 294.54 350.51
  Q 295.79 349.68 295.09 349.87
  Q 313.61 345.62 318.33 328.03
  C 319.37 324.16 319.11 320.93 319.22 316.45
  A 4.29 4.09 -52.4 0 0 319.11 315.41
  Q 316.47 304.22 307.55 296.97
  C 302.09 292.55 293.87 290.86 287.00 290.96
  Q 278.96 291.07 272.07 294.66
  Q 260.97 300.43 257.49 313.20
  C 256.45 317.00 256.64 321.41 256.47 325.61
  Q 254.37 321.82 255.47 317.14
  Q 256.53 312.59 256.81 311.57
  C 258.58 305.04 262.21 300.20 267.74 295.71
  Q 269.44 294.33 271.32 293.44
  Q 273.11 292.59 275.01 291.07
  A 0.73 0.73 0.0 0 0 274.70 289.78
  Q 266.60 288.16 256.99 283.26
  Q 253.90 281.68 241.21 273.04
  Q 236.19 269.62 234.13 266.83
  Q 222.49 252.91 219.65 248.58
  Q 198.61 216.44 203.39 178.56
  Q 208.05 141.65 237.18 115.41
  Q 241.15 111.83 249.21 106.42
  C 251.34 104.99 253.63 102.90 255.79 101.12
  C 259.89 99.24 263.78 97.15 267.98 95.76
  Q 286.51 89.60 304.99 89.59
  Q 314.31 89.58 328.44 92.55
  Q 343.37 95.67 356.35 103.66
  Q 383.39 120.30 397.33 148.90
  Q 399.18 152.71 400.00 158.98
  Z
  M 394.21 191.90
  A 90.38 90.38 0.0 0 0 303.83 101.52
  A 90.38 90.38 0.0 0 0 213.45 191.90
  A 90.38 90.38 0.0 0 0 303.83 282.28
  A 90.38 90.38 0.0 0 0 394.21 191.90
  Z"
/>
<path fill="#f58026" d="
  M 394.21 191.90
  A 90.38 90.38 0.0 0 1 303.83 282.28
  A 90.38 90.38 0.0 0 1 213.45 191.90
  A 90.38 90.38 0.0 0 1 303.83 101.52
  A 90.38 90.38 0.0 0 1 394.21 191.90
  Z
  M 283.75 191.52
  Q 283.75 192.04 283.57 192.27
  Q 243.02 244.36 240.62 247.43
  Q 240.27 247.88 240.32 248.35
  Q 240.39 248.88 240.93 248.88
  Q 259.69 248.91 278.69 248.83
  A 3.36 3.36 0.0 0 0 281.33 247.52
  L 303.53 218.82
  A 1.10 1.10 0.0 0 1 305.25 218.80
  Q 309.85 224.48 326.48 246.00
  C 327.30 247.07 328.48 248.80 329.77 248.81
  Q 344.94 248.90 367.75 248.83
  A 0.81 0.81 0.0 0 0 368.49 247.69
  Q 368.32 247.32 367.82 246.68
  Q 351.99 226.50 325.80 192.72
  Q 325.35 192.14 325.35 191.51
  Q 325.35 190.89 325.80 190.31
  Q 351.98 156.52 367.80 136.33
  Q 368.30 135.69 368.47 135.32
  A 0.81 0.81 0.0 0 0 367.73 134.18
  Q 344.92 134.12 329.75 134.22
  C 328.46 134.23 327.28 135.96 326.46 137.03
  Q 309.84 158.55 305.24 164.24
  A 1.10 1.10 0.0 0 1 303.52 164.22
  L 281.31 135.52
  A 3.36 3.36 0.0 0 0 278.67 134.21
  Q 259.67 134.14 240.91 134.18
  Q 240.37 134.18 240.30 134.71
  Q 240.25 135.18 240.60 135.63
  Q 243.00 138.70 283.57 190.77
  Q 283.75 191.00 283.75 191.52
  Z"
/>
<path fill="#ffffff" d="
  M 325.35 191.51
  Q 325.35 192.14 325.80 192.72
  Q 351.99 226.50 367.82 246.68
  Q 368.32 247.32 368.49 247.69
  A 0.81 0.81 0.0 0 1 367.75 248.83
  Q 344.94 248.90 329.77 248.81
  C 328.48 248.80 327.30 247.07 326.48 246.00
  Q 309.85 224.48 305.25 218.80
  A 1.10 1.10 0.0 0 0 303.53 218.82
  L 281.33 247.52
  A 3.36 3.36 0.0 0 1 278.69 248.83
  Q 259.69 248.91 240.93 248.88
  Q 240.39 248.88 240.32 248.35
  Q 240.27 247.88 240.62 247.43
  Q 243.02 244.36 283.57 192.27
  Q 283.75 192.04 283.75 191.52
  Q 283.75 191.00 283.57 190.77
  Q 243.00 138.70 240.60 135.63
  Q 240.25 135.18 240.30 134.71
  Q 240.37 134.18 240.91 134.18
  Q 259.67 134.14 278.67 134.21
  A 3.36 3.36 0.0 0 1 281.31 135.52
  L 303.52 164.22
  A 1.10 1.10 0.0 0 0 305.24 164.24
  Q 309.84 158.55 326.46 137.03
  C 327.28 135.96 328.46 134.23 329.75 134.22
  Q 344.92 134.12 367.73 134.18
  A 0.81 0.81 0.0 0 1 368.47 135.32
  Q 368.30 135.69 367.80 136.33
  Q 351.98 156.52 325.80 190.31
  Q 325.35 190.89 325.35 191.51
  Z"
/>
<path fill="#ffffff" d="
  M 163.25 181.79
  L 127.72 245.23
  A 1.08 1.08 0.0 0 1 125.99 245.44
  Q 125.27 244.67 124.44 243.33
  Q 117.24 231.79 110.76 218.97
  C 106.83 211.21 102.69 205.48 99.13 197.80
  Q 95.14 189.16 90.25 181.53
  Q 88.00 179.93 88.45 177.26
  A 0.41 0.41 0.0 0 1 89.21 177.13
  L 125.51 243.57
  A 0.94 0.93 70.1 0 0 126.52 244.05
  Q 127.45 243.86 128.00 242.75
  Q 130.87 237.00 134.10 231.60
  C 137.31 226.23 140.60 219.99 142.53 216.26
  Q 143.68 214.03 145.23 211.88
  C 146.35 210.34 147.10 208.18 148.42 205.83
  Q 149.58 203.77 153.89 196.13
  Q 156.06 192.28 156.75 191.80
  A 0.34 0.22 -83.4 0 0 156.85 191.68
  L 161.91 181.97
  A 1.33 1.28 -89.4 0 1 162.46 181.41
  L 163.16 181.03
  A 1.35 1.35 0.0 0 0 163.85 179.96
  Q 163.96 178.81 164.91 177.97
  A 0.32 0.32 0.0 0 1 165.43 178.26
  L 165.09 180.31
  A 0.77 0.75 -88.3 0 1 164.44 180.94
  Q 163.55 181.06 163.25 181.79
  Z"
/>
<path fill="#958c81" d="
  M 231.28 266.40
  L 165.27 266.35
  A 0.81 0.80 87.7 0 1 164.47 265.61
  Q 163.93 258.40 163.96 251.00
  Q 164.09 217.06 164.21 182.99
  Q 165.33 180.65 165.38 184.75
  Q 165.88 219.74 166.01 248.25
  Q 166.04 255.97 165.84 264.17
  A 1.28 1.28 0.0 0 0 167.14 265.48
  C 175.52 265.35 183.68 265.06 190.59 265.13
  Q 199.84 265.23 225.75 265.45
  Q 229.48 265.48 231.28 266.40
  Z"
/>
<path fill="#958c81" d="
  M 89.10 182.79
  L 89.12 265.60
  A 0.69 0.68 90.0 0 1 88.44 266.29
  L 65.30 266.35
  Q 63.99 266.53 63.54 266.20
  Q 35.27 266.98 7.31 265.74
  Q 29.08 264.49 50.96 265.07
  Q 69.20 265.56 87.31 265.37
  A 0.89 0.89 0.0 0 0 88.19 264.47
  Q 87.83 225.04 88.14 184.26
  Q 88.15 182.95 89.10 182.79
  Z"
/>
<path fill="#231f20" d="
  M 400.00 224.11
  L 400.00 227.89
  Q 399.60 229.07 398.91 229.77
  L 400.00 224.11
  Z"
/>
<path fill="#231f20" d="
  M 65.30 266.35
  Q 64.08 266.55 63.54 266.20
  Q 63.99 266.53 65.30 266.35
  Z"
/>
<path fill="#ffffff" d="
  M 170.82 312.86
  Q 167.20 303.12 160.42 297.84
  C 152.79 291.89 141.97 289.31 132.41 291.62
  Q 123.23 293.85 116.49 300.81
  Q 114.60 302.76 112.74 305.91
  Q 111.17 308.57 109.60 311.43
  Q 109.73 308.83 110.41 307.44
  C 114.58 299.04 122.78 291.63 132.34 290.52
  Q 133.81 290.35 137.32 289.53
  A 6.80 6.39 36.2 0 1 138.77 289.35
  C 145.08 289.23 151.81 291.68 157.16 294.40
  C 164.50 298.13 170.54 304.01 170.82 312.86
  Z"
/>
<path fill="#ffffff" d="
  M 108.83 314.54
  L 108.48 325.02
  L 108.21 326.21
  Q 107.98 326.78 107.99 327.45
  Q 105.97 333.30 104.90 334.88
  Q 102.29 338.76 100.02 342.76
  C 98.05 346.23 88.93 349.85 84.94 350.42
  Q 73.98 351.97 64.46 350.07
  C 55.39 348.25 48.16 338.75 45.09 330.66
  C 42.73 324.44 42.70 317.32 45.20 310.80
  Q 45.84 309.12 45.43 307.44
  Q 44.48 306.89 44.20 307.39
  L 32.75 307.28
  Q 32.21 306.61 32.53 306.05
  Q 32.93 305.36 33.77 305.37
  Q 38.63 305.45 43.07 305.13
  A 1.10 1.09 -2.8 0 0 44.09 304.02
  L 43.93 293.22
  L 44.29 291.73
  L 45.56 291.90
  A 0.58 0.57 4.0 0 1 46.06 292.47
  L 46.06 304.22
  A 0.77 0.76 -9.7 0 0 47.08 304.94
  Q 47.39 304.83 47.61 304.61
  Q 49.89 302.34 53.79 298.17
  C 59.62 291.92 64.77 291.20 73.32 289.65
  C 81.35 288.19 91.93 292.85 98.37 297.40
  Q 101.35 299.50 103.15 303.31
  Q 105.73 308.73 108.83 314.54
  Z
  M 44.5908 320.6216
  A 31.29 30.11 -179.6 0 0 75.6698 350.9493
  A 31.29 30.11 -179.6 0 0 107.1692 321.0584
  A 31.29 30.11 -179.6 0 0 76.0902 290.7307
  A 31.29 30.11 -179.6 0 0 44.5908 320.6216
  Z"
/>
<path fill="#231f20" d="
  M 44.5908 320.6216
  A 31.29 30.11 -179.6 0 1 76.0902 290.7307
  A 31.29 30.11 -179.6 0 1 107.1692 321.0584
  A 31.29 30.11 -179.6 0 1 75.6698 350.9493
  A 31.29 30.11 -179.6 0 1 44.5908 320.6216
  Z
  M 91.17 320.77
  A 15.36 15.36 0.0 0 0 75.81 305.41
  A 15.36 15.36 0.0 0 0 60.45 320.77
  A 15.36 15.36 0.0 0 0 75.81 336.13
  A 15.36 15.36 0.0 0 0 91.17 320.77
  Z"
/>
<path fill="#231f20" d="
  M 170.82 312.86
  Q 171.31 321.00 170.19 330.06
  L 169.82 330.23
  C 167.95 334.86 165.18 340.58 161.11 343.60
  C 155.58 347.70 149.71 349.94 142.84 350.24
  C 135.62 350.56 129.74 350.51 123.30 346.70
  Q 114.47 341.47 109.66 329.98
  Q 109.14 328.11 109.74 326.07
  A 1.08 1.08 0.0 0 0 109.08 324.76
  Q 109.00 324.73 108.48 325.02
  L 108.83 314.54
  L 109.60 311.43
  Q 111.17 308.57 112.74 305.91
  Q 114.60 302.76 116.49 300.81
  Q 123.23 293.85 132.41 291.62
  C 141.97 289.31 152.79 291.89 160.42 297.84
  Q 167.20 303.12 170.82 312.86
  Z
  M 155.28 320.72
  A 15.31 15.31 0.0 0 0 139.97 305.41
  A 15.31 15.31 0.0 0 0 124.66 320.72
  A 15.31 15.31 0.0 0 0 139.97 336.03
  A 15.31 15.31 0.0 0 0 155.28 320.72
  Z"
/>
<path fill="#231f20" d="
  M 295.09 349.87
  Q 287.81 351.10 280.72 349.84
  C 275.77 348.69 271.68 347.38 267.59 343.89
  Q 259.83 337.24 257.22 327.91
  Q 256.61 326.73 256.47 325.61
  C 256.64 321.41 256.45 317.00 257.49 313.20
  Q 260.97 300.43 272.07 294.66
  Q 278.96 291.07 287.00 290.96
  C 293.87 290.86 302.09 292.55 307.55 296.97
  Q 316.47 304.22 319.11 315.41
  A 4.29 4.09 -52.4 0 1 319.22 316.45
  C 319.11 320.93 319.37 324.16 318.33 328.03
  Q 313.61 345.62 295.09 349.87
  Z
  M 302.84 324.00
  A 9.85 5.20 -85.3 0 0 303.07 322.64
  A 15.33 15.32 12.6 0 0 292.58 306.14
  A 15.33 15.32 25.0 0 0 274.89 312.59
  A 15.35 15.34 -33.4 0 0 272.73 323.07
  A 15.32 15.30 3.6 0 0 283.67 335.45
  A 15.32 15.30 -59.3 0 0 298.63 331.63
  A 15.42 15.36 77.2 0 0 302.38 325.64
  A 12.05 8.22 -72.9 0 0 302.84 324.00
  Z"
/>
<path fill="#231f20" d="
  M 219.27 291.10
  Q 219.27 291.18 219.27 291.27
  L 218.54 291.19
  L 219.27 291.10
  Z"
/>
<path fill="#958c81" d="
  M 225.34 291.14
  L 219.27 291.27
  Q 219.27 291.18 219.27 291.10
  L 225.34 291.14
  Z"
/>
<path fill="#ffffff" d="
  M 226.50 291.09
  L 227.21 291.09
  L 229.79 291.11
  L 230.45 291.18
  Q 236.87 291.31 240.69 293.06
  Q 248.72 296.75 250.50 306.70
  A 3.82 3.82 0.0 0 1 250.45 308.27
  Q 249.09 313.81 246.50 317.47
  A 0.42 0.41 21.8 0 0 246.78 318.12
  Q 250.06 318.62 251.21 320.60
  Q 254.59 326.46 254.66 327.62
  Q 254.83 330.86 254.92 335.01
  C 254.97 337.47 253.61 340.33 252.32 342.56
  C 249.05 348.24 244.49 348.76 238.47 350.12
  L 237.29 350.12
  L 175.80 350.42
  A 0.50 0.50 0.0 0 1 175.31 350.03
  Q 175.19 349.46 175.85 348.89
  L 207.84 348.50
  A 0.73 0.73 0.0 0 0 208.55 347.64
  Q 207.72 342.82 208.67 338.47
  A 1.51 1.51 0.0 0 0 207.30 336.64
  Q 202.25 336.27 194.01 336.42
  Q 192.41 336.45 191.16 335.87
  A 0.63 0.63 0.0 0 1 191.09 334.77
  Q 191.40 334.57 191.90 334.69
  L 208.96 334.68
  Q 209.36 334.64 209.54 334.29
  L 209.61 313.71
  L 209.63 312.79
  Q 209.63 312.66 209.63 312.54
  L 209.63 310.79
  Q 209.63 310.67 209.62 310.54
  L 209.61 309.79
  L 209.77 292.11
  A 0.51 0.51 0.0 0 1 210.26 291.60
  L 218.54 291.19
  L 219.27 291.27
  L 225.34 291.14
  L 226.50 291.09
  Z
  M 210.79 293.74
  L 210.79 347.63
  A 1.04 1.04 0.0 0 0 211.82 348.67
  Q 229.65 348.86 231.75 348.85
  Q 239.97 348.81 245.23 346.92
  Q 250.69 344.95 253.09 338.83
  C 254.44 335.41 254.06 329.40 252.92 326.27
  Q 251.07 321.20 245.60 319.31
  A 0.87 0.87 0.0 0 1 245.20 317.95
  Q 249.73 312.14 248.78 304.75
  C 247.64 295.88 240.61 292.61 232.50 292.50
  Q 222.38 292.35 211.62 292.87
  A 0.87 0.87 0.0 0 0 210.79 293.74
  Z"
/>
<path fill="#231f20" d="
  M 227.21 291.09
  L 226.50 291.09
  L 227.21 291.09
  Z"
/>
<path fill="#231f20" d="
  M 230.45 291.18
  L 229.79 291.11
  Q 230.17 291.07 230.45 291.18
  Z"
/>
<path fill="#958c81" d="
  M 44.29 291.73
  L 43.93 293.22
  L 7.54 293.36
  A 1.79 1.79 0.0 0 0 5.78 295.44
  Q 6.51 299.84 5.57 303.58
  A 0.36 0.35 9.3 0 1 5.19 303.85
  Q 5.07 303.83 4.91 303.77
  L 5.04 292.08
  A 0.53 0.53 0.0 0 1 5.55 291.55
  Q 24.92 290.81 44.29 291.73
  Z"
/>
<path fill="#ffffff" d="
  M 191.25 294.44
  L 191.36 296.29
  L 191.04 331.22
  L 190.68 294.21
  A 1.58 1.58 0.0 0 0 189.03 292.65
  L 175.59 293.23
  Q 175.51 292.76 175.65 292.07
  A 0.72 0.71 -84.0 0 1 176.35 291.50
  L 190.46 291.50
  A 0.76 0.75 -8.2 0 1 191.19 292.04
  Q 191.54 293.21 191.25 294.44
  Z"
/>
<path fill="#ffffff" d="
  M 384.94 311.93
  Q 393.85 307.51 391.97 299.42
  C 391.14 295.87 388.87 293.64 385.24 293.30
  C 379.67 292.78 374.53 292.75 372.84 299.39
  Q 371.39 305.09 375.89 309.35
  A 2.17 2.16 82.0 0 0 376.26 309.63
  Q 378.04 310.63 379.04 311.85
  Q 372.72 310.66 370.66 302.11
  A 0.92 0.89 -41.0 0 1 370.71 301.54
  L 373.77 294.64
  A 1.60 1.59 -4.0 0 1 374.39 293.93
  Q 381.82 289.38 389.61 293.78
  A 3.37 3.24 -5.8 0 1 390.44 294.43
  C 392.45 296.56 394.19 300.30 393.25 303.46
  Q 392.03 307.57 389.34 310.60
  Q 388.41 311.66 384.94 311.93
  Z"
/>
<path fill="#231f20" d="
  M 312.30 347.78
  Q 312.48 347.10 312.89 346.55
  Q 314.03 346.63 314.64 345.62
  Q 316.37 342.76 317.94 340.72
  Q 320.98 336.81 321.00 336.78
  C 322.60 334.15 326.83 329.30 329.29 325.36
  Q 330.78 322.98 332.47 321.22
  A 3.24 3.23 -40.2 0 0 332.82 317.17
  Q 329.16 311.75 325.34 306.19
  Q 321.79 301.02 320.66 299.68
  Q 318.22 296.81 316.79 293.50
  A 0.56 0.55 76.3 0 1 317.26 292.72
  L 330.88 291.73
  A 1.52 1.49 52.7 0 1 331.56 291.83
  L 334.53 293.02
  A 2.06 2.03 -4.0 0 1 335.52 293.87
  L 342.24 305.17
  A 0.53 0.52 55.4 0 0 343.02 305.32
  Q 343.91 304.62 344.40 303.93
  Q 347.05 300.24 349.75 295.03
  Q 350.83 292.96 353.26 292.82
  C 356.77 292.61 359.32 292.22 362.55 292.46
  Q 366.89 292.78 367.99 292.48
  A 0.95 0.94 -3.8 0 1 369.17 293.51
  C 368.88 295.85 366.80 297.04 365.78 298.92
  Q 363.29 303.46 360.25 306.84
  A 5.83 5.79 79.2 0 0 359.34 308.19
  Q 358.24 310.49 356.05 313.07
  C 349.99 320.18 354.92 322.45 358.48 328.22
  Q 359.38 329.67 361.01 331.96
  Q 369.70 344.18 371.50 346.98
  A 1.18 1.18 0.0 0 1 370.51 348.80
  L 355.04 348.80
  A 0.91 0.91 0.0 0 1 354.28 348.39
  L 343.77 332.31
  A 0.80 0.80 0.0 0 0 342.50 332.23
  Q 339.05 336.19 337.04 340.12
  A 1.08 0.84 83.0 0 1 336.92 340.32
  L 331.31 347.72
  A 2.66 2.63 -71.5 0 1 329.22 348.78
  Q 325.50 348.82 315.50 348.71
  Q 313.31 348.68 312.30 347.78
  Z"
/>
<path fill="#231f20" d="
  M 191.04 331.22
  Q 191.10 334.01 191.90 334.69
  Q 191.40 334.57 191.09 334.77
  A 0.63 0.63 0.0 0 0 191.16 335.87
  Q 192.41 336.45 194.01 336.42
  Q 202.25 336.27 207.30 336.64
  A 1.51 1.51 0.0 0 1 208.67 338.47
  Q 207.72 342.82 208.55 347.64
  A 0.73 0.73 0.0 0 1 207.84 348.50
  L 175.85 348.89
  L 175.36 346.61
  Q 176.34 345.98 176.28 344.25
  Q 176.02 337.01 176.17 329.75
  Q 176.18 329.25 175.81 329.22
  L 175.86 307.60
  Q 177.11 301.82 175.63 296.11
  Q 175.24 295.28 175.59 293.23
  L 189.03 292.65
  A 1.58 1.58 0.0 0 1 190.68 294.21
  L 191.04 331.22
  Z"
/>
<path fill="#231f20" d="
  M 210.79 293.74
  A 0.87 0.87 0.0 0 1 211.62 292.87
  Q 222.38 292.35 232.50 292.50
  C 240.61 292.61 247.64 295.88 248.78 304.75
  Q 249.73 312.14 245.20 317.95
  A 0.87 0.87 0.0 0 0 245.60 319.31
  Q 251.07 321.20 252.92 326.27
  C 254.06 329.40 254.44 335.41 253.09 338.83
  Q 250.69 344.95 245.23 346.92
  Q 239.97 348.81 231.75 348.85
  Q 229.65 348.86 211.82 348.67
  A 1.04 1.04 0.0 0 1 210.79 347.63
  L 210.79 293.74
  Z
  M 233.77 312.05
  L 233.91 311.53
  Q 234.64 310.14 234.23 308.52
  Q 234.76 306.36 231.89 305.03
  A 0.78 0.78 0.0 0 0 231.68 304.96
  L 228.35 304.40
  A 1.67 1.67 0.0 0 0 226.43 305.75
  Q 225.70 309.75 226.46 313.89
  A 1.19 1.19 0.0 0 0 227.74 314.85
  Q 231.23 314.53 233.77 312.05
  Z
  M 229.95 337.36
  Q 230.55 337.56 230.97 337.22
  L 232.76 336.89
  Q 233.33 337.16 234.29 336.82
  Q 237.72 335.87 238.34 332.85
  C 239.84 325.56 231.91 324.99 227.13 326.33
  A 1.77 1.76 80.4 0 0 225.84 328.16
  L 226.46 336.69
  A 0.82 0.82 0.0 0 0 227.05 337.42
  Q 228.40 337.82 229.95 337.36
  Z"
/>
<path fill="#231f20" d="
  M 43.93 293.22
  L 44.09 304.02
  A 1.10 1.09 -2.8 0 1 43.07 305.13
  Q 38.63 305.45 33.77 305.37
  Q 32.93 305.36 32.53 306.05
  Q 32.21 306.61 32.75 307.28
  Q 31.96 313.55 32.14 316.26
  Q 33.26 332.56 32.15 348.69
  L 18.85 348.62
  A 0.85 0.84 -0.0 0 1 18.00 347.78
  L 18.00 307.00
  A 1.76 1.76 0.0 0 0 16.35 305.24
  L 5.08 304.60
  Q 5.13 303.56 4.91 303.77
  Q 5.07 303.83 5.19 303.85
  A 0.36 0.35 9.3 0 0 5.57 303.58
  Q 6.51 299.84 5.78 295.44
  A 1.79 1.79 0.0 0 1 7.54 293.36
  L 43.93 293.22
  Z"
/>
<path fill="#231f20" d="
  M 384.94 311.93
  Q 382.57 312.67 379.04 311.85
  Q 378.04 310.63 376.26 309.63
  A 2.17 2.16 82.0 0 1 375.89 309.35
  Q 371.39 305.09 372.84 299.39
  C 374.53 292.75 379.67 292.78 385.24 293.30
  C 388.87 293.64 391.14 295.87 391.97 299.42
  Q 393.85 307.51 384.94 311.93
  Z
  M 379.32 296.62
  A 0.20 0.20 0.0 0 0 378.93 296.67
  Q 378.93 296.82 379.22 296.76
  Q 379.35 296.73 379.32 296.62
  Z
  M 387.00 304.92
  Q 387.53 305.60 388.01 305.28
  Q 389.52 304.28 389.30 302.28
  Q 389.11 300.50 387.83 300.18
  Q 388.84 298.08 386.38 297.01
  A 0.39 0.39 0.0 0 0 385.83 297.39
  Q 385.85 297.57 386.11 297.82
  C 387.05 298.73 384.96 303.06 385.26 304.71
  Q 385.55 306.30 387.00 304.92
  Z
  M 378.9926 298.7367
  A 0.21 0.13 -75.5 0 0 378.8141 298.9075
  A 0.21 0.13 -75.5 0 0 378.8874 299.1433
  A 0.21 0.13 -75.5 0 0 379.0659 298.9725
  A 0.21 0.13 -75.5 0 0 378.9926 298.7367
  Z
  M 377.47 302.98
  Q 378.07 305.04 377.04 305.42
  A 0.65 0.65 0.0 0 0 376.64 306.23
  Q 376.81 306.75 378.08 307.36
  A 0.45 0.45 0.0 0 0 378.67 306.74
  L 378.11 305.70
  A 0.75 0.73 -43.3 0 1 378.14 304.93
  Q 379.04 303.52 378.92 301.58
  A 0.52 0.52 0.0 0 0 378.43 301.08
  L 378.08 301.05
  L 377.93 300.53
  Q 378.51 300.55 378.64 300.37
  Q 378.29 300.40 377.93 300.53
  Q 376.75 300.01 376.12 301.15
  Q 375.24 302.75 376.19 304.46
  A 0.49 0.49 0.0 0 0 377.10 304.13
  Q 376.94 303.28 377.47 302.98
  Z
  M 379.40 308.08
  Q 381.44 309.61 384.32 308.54
  A 0.43 0.43 0.0 0 0 384.12 307.71
  Q 381.34 308.07 379.57 307.70
  A 0.21 0.21 0.0 0 0 379.40 308.08
  Z"
/>
<path fill="#958c81" d="
  M 191.36 296.29
  L 191.25 294.44
  Q 191.54 295.17 191.36 296.29
  Z"
/>
<path fill="#958c81" d="
  M 175.86 307.60
  L 175.63 296.11
  Q 177.11 301.82 175.86 307.60
  Z"
/>
<path fill="#958c81" d="
  M 379.32 296.62
  Q 379.35 296.73 379.22 296.76
  Q 378.93 296.82 378.93 296.67
  A 0.20 0.20 0.0 0 1 379.32 296.62
  Z"
/>
<path fill="#ffffff" d="
  M 387.83 300.18
  Q 386.44 301.90 387.00 304.92
  Q 385.55 306.30 385.26 304.71
  C 384.96 303.06 387.05 298.73 386.11 297.82
  Q 385.85 297.57 385.83 297.39
  A 0.39 0.39 0.0 0 1 386.38 297.01
  Q 388.84 298.08 387.83 300.18
  Z"
/>
<ellipse fill="#958c81" cx="0.00" cy="0.00" transform="translate(378.94,298.94) rotate(-75.5)" rx="0.21" ry="0.13"/>
<path fill="#958c81" d="
  M 377.93 300.53
  Q 378.29 300.40 378.64 300.37
  Q 378.51 300.55 377.93 300.53
  Z"
/>
<path fill="#ffffff" d="
  M 377.47 302.98
  Q 378.00 302.79 377.72 302.01
  Q 378.10 301.71 378.08 301.05
  L 378.43 301.08
  A 0.52 0.52 0.0 0 1 378.92 301.58
  Q 379.04 303.52 378.14 304.93
  A 0.75 0.73 -43.3 0 0 378.11 305.70
  L 378.67 306.74
  A 0.45 0.45 0.0 0 1 378.08 307.36
  Q 376.81 306.75 376.64 306.23
  A 0.65 0.65 0.0 0 1 377.04 305.42
  Q 378.07 305.04 377.47 302.98
  Z"
/>
<path fill="#958c81" d="
  M 377.72 302.01
  Q 378.00 302.79 377.47 302.98
  Q 377.33 302.27 377.72 302.01
  Z"
/>
<path fill="#958c81" d="
  M 32.15 348.69
  Q 32.40 349.42 32.33 349.63
  A 1.14 1.13 -81.9 0 1 31.26 350.44
  L 17.01 350.58
  A 0.64 0.63 -0.0 0 1 16.37 349.95
  L 16.37 308.38
  A 1.07 1.06 -90.0 0 0 15.31 307.31
  L 6.02 307.31
  A 0.81 0.80 -10.7 0 1 5.27 306.80
  Q 4.80 305.62 5.08 304.60
  L 16.35 305.24
  A 1.76 1.76 0.0 0 1 18.00 307.00
  L 18.00 347.78
  A 0.85 0.84 0.0 0 0 18.85 348.62
  L 32.15 348.69
  Z"
/>
<path fill="#ffffff" d="
  M 234.23 308.52
  C 233.06 306.37 230.27 303.53 227.94 305.70
  A 1.60 1.58 68.9 0 0 227.43 306.87
  L 227.43 312.84
  A 1.04 1.04 0.0 0 0 228.89 313.79
  L 233.51 311.73
  Q 233.65 311.83 233.77 312.05
  Q 231.23 314.53 227.74 314.85
  A 1.19 1.19 0.0 0 1 226.46 313.89
  Q 225.70 309.75 226.43 305.75
  A 1.67 1.67 0.0 0 1 228.35 304.40
  L 231.68 304.96
  A 0.78 0.78 0.0 0 1 231.89 305.03
  Q 234.76 306.36 234.23 308.52
  Z"
/>
<path fill="#ffffff" d="
  M 91.17 320.77
  A 15.36 15.36 0.0 0 1 75.81 336.13
  A 15.36 15.36 0.0 0 1 60.45 320.77
  A 15.36 15.36 0.0 0 1 75.81 305.41
  A 15.36 15.36 0.0 0 1 91.17 320.77
  Z
  M 72.99 307.10
  A 14.02 14.02 0.0 0 0 63.54 314.00
  A 13.99 13.98 48.0 0 0 62.90 326.38
  A 14.00 13.98 87.5 0 0 71.37 334.14
  A 13.99 13.97 41.1 0 0 81.93 333.42
  A 14.07 14.03 3.8 0 0 87.42 328.63
  A 14.06 14.02 -33.3 0 0 89.56 318.36
  A 14.01 13.99 88.5 0 0 77.54 306.94
  A 6.99 4.95 10.6 0 0 76.56 306.85
  A 14.94 14.18 42.7 0 0 74.47 306.88
  A 10.65 8.13 -0.4 0 0 72.99 307.10
  Z"
/>
<path fill="#ffffff" d="
  M 155.28 320.72
  A 15.31 15.31 0.0 0 1 139.97 336.03
  A 15.31 15.31 0.0 0 1 124.66 320.72
  A 15.31 15.31 0.0 0 1 139.97 305.41
  A 15.31 15.31 0.0 0 1 155.28 320.72
  Z
  M 136.49 307.10
  C 130.45 307.86 126.88 313.93 125.61 319.30
  Q 125.17 321.15 125.69 323.11
  Q 128.38 333.21 139.04 334.67
  Q 144.41 335.41 149.15 331.55
  A 4.00 3.75 -5.0 0 0 149.93 330.68
  C 152.11 327.32 155.66 321.90 154.40 317.64
  C 152.41 310.92 147.46 308.24 140.97 307.13
  L 140.04 307.10
  L 137.47 307.10
  L 136.49 307.10
  Z"
/>
<path fill="#ffffff" d="
  M 303.07 322.64
  Q 303.08 322.56 303.00 322.46
  Q 301.98 308.72 288.47 307.18
  Q 288.02 307.07 287.54 307.11
  L 286.46 307.11
  L 284.49 307.11
  Q 279.80 307.52 276.63 312.13
  Q 273.50 316.69 273.36 319.12
  Q 272.82 328.75 281.05 332.93
  Q 290.14 337.54 297.59 330.85
  Q 299.52 329.12 302.65 323.57
  Q 302.65 323.71 302.84 324.00
  A 12.05 8.22 -72.9 0 1 302.38 325.64
  A 15.42 15.36 77.2 0 1 298.63 331.63
  A 15.32 15.30 -59.3 0 1 283.67 335.45
  A 15.32 15.30 3.6 0 1 272.73 323.07
  A 15.35 15.34 -33.4 0 1 274.89 312.59
  A 15.33 15.32 25.0 0 1 292.58 306.14
  A 15.33 15.32 12.6 0 1 303.07 322.64
  Z"
/>
<path fill="#231f20" d="
  M 74.47 306.88
  L 72.99 307.10
  A 10.65 8.13 -0.4 0 1 74.47 306.88
  Z"
/>
<path fill="#231f20" d="
  M 77.54 306.94
  Q 76.99 307.03 76.56 306.85
  A 6.99 4.95 10.6 0 1 77.54 306.94
  Z"
/>
<path fill="#231f20" d="
  M 137.47 307.10
  L 136.49 307.10
  L 137.47 307.10
  Z"
/>
<path fill="#231f20" d="
  M 140.97 307.13
  L 140.04 307.10
  L 140.97 307.13
  Z"
/>
<path fill="#231f20" d="
  M 286.46 307.11
  L 284.49 307.11
  L 286.46 307.11
  Z"
/>
<path fill="#231f20" d="
  M 288.47 307.18
  L 287.54 307.11
  Q 288.02 307.07 288.47 307.18
  Z"
/>
<path fill="#958c81" d="
  M 45.43 307.44
  L 44.20 307.39
  Q 44.48 306.89 45.43 307.44
  Z"
/>
<path fill="#ffffff" d="
  M 379.57 307.70
  Q 381.34 308.07 384.12 307.71
  A 0.43 0.43 0.0 0 1 384.32 308.54
  Q 381.44 309.61 379.40 308.08
  A 0.21 0.21 0.0 0 1 379.57 307.70
  Z"
/>
<path fill="#231f20" d="
  M 209.61 309.79
  L 209.62 310.54
  L 209.61 309.79
  Z"
/>
<path fill="#231f20" d="
  M 209.63 310.79
  L 209.63 312.54
  L 209.63 310.79
  Z"
/>
<path fill="#958c81" d="
  M 233.91 311.53
  L 233.77 312.05
  Q 233.65 311.83 233.51 311.73
  L 233.91 311.53
  Z"
/>
<path fill="#231f20" d="
  M 209.63 312.79
  L 209.61 313.71
  L 209.63 312.79
  Z"
/>
<path fill="#958c81" d="
  M 303.00 322.46
  Q 303.08 322.56 303.07 322.64
  A 9.85 5.20 -85.3 0 1 302.84 324.00
  Q 302.65 323.71 302.65 323.57
  Q 302.64 322.95 303.00 322.46
  Z"
/>
<path fill="#ffffff" d="
  M 234.29 336.82
  L 233.52 336.55
  C 237.20 334.54 239.37 327.94 233.48 327.45
  Q 232.83 327.25 232.22 327.44
  Q 230.26 327.31 228.57 327.97
  A 1.41 1.39 -86.8 0 0 227.86 328.61
  Q 227.51 329.25 227.47 330.04
  Q 227.22 330.60 227.39 331.29
  C 227.15 333.67 227.45 336.76 230.29 337.09
  L 229.95 337.36
  Q 228.40 337.82 227.05 337.42
  A 0.82 0.82 0.0 0 1 226.46 336.69
  L 225.84 328.16
  A 1.77 1.76 80.4 0 1 227.13 326.33
  C 231.91 324.99 239.84 325.56 238.34 332.85
  Q 237.72 335.87 234.29 336.82
  Z"
/>
<path fill="#231f20" d="
  M 108.21 326.21
  Q 108.40 327.00 107.99 327.45
  Q 107.98 326.78 108.21 326.21
  Z"
/>
<path fill="#231f20" d="
  M 233.48 327.45
  L 232.22 327.44
  Q 232.83 327.25 233.48 327.45
  Z"
/>
<path fill="#ffffff" d="
  M 280.72 349.84
  L 281.99 350.62
  C 269.86 349.34 257.59 341.29 257.22 327.91
  Q 259.83 337.24 267.59 343.89
  C 271.68 347.38 275.77 348.69 280.72 349.84
  Z"
/>
<path fill="#958c81" d="
  M 175.36 346.61
  L 175.78 334.33
  Q 175.57 333.98 175.62 333.46
  L 175.61 331.21
  L 175.65 330.29
  L 175.81 329.22
  Q 176.18 329.25 176.17 329.75
  Q 176.02 337.01 176.28 344.25
  Q 176.34 345.98 175.36 346.61
  Z"
/>
<path fill="#ffffff" d="
  M 169.82 330.23
  L 170.10 330.58
  Q 168.71 336.01 165.89 340.40
  C 163.49 344.14 160.32 345.90 155.43 348.27
  Q 152.23 349.81 148.73 350.35
  Q 139.40 351.77 129.62 350.41
  C 124.32 349.67 120.42 346.91 116.62 343.33
  Q 110.74 337.80 109.66 329.98
  Q 114.47 341.47 123.30 346.70
  C 129.74 350.51 135.62 350.56 142.84 350.24
  C 149.71 349.94 155.58 347.70 161.11 343.60
  C 165.18 340.58 167.95 334.86 169.82 330.23
  Z"
/>
<path fill="#958c81" d="
  M 170.19 330.06
  Q 170.02 330.39 170.10 330.58
  L 169.82 330.23
  L 170.19 330.06
  Z"
/>
<path fill="#958c81" d="
  M 227.47 330.04
  L 227.39 331.29
  Q 227.22 330.60 227.47 330.04
  Z"
/>
<path fill="#231f20" d="
  M 175.65 330.29
  L 175.61 331.21
  L 175.65 330.29
  Z"
/>
<path fill="#231f20" d="
  M 175.78 334.33
  Q 175.52 334.04 175.62 333.46
  Q 175.57 333.98 175.78 334.33
  Z"
/>
<path fill="#231f20" d="
  M 209.54 334.29
  Q 209.36 334.64 208.96 334.68
  L 209.54 334.29
  Z"
/>
<path fill="#958c81" d="
  M 343.03 334.71
  L 342.13 334.70
  Q 342.97 334.08 343.03 334.71
  Z"
/>
<path fill="#958c81" d="
  M 233.52 336.55
  L 234.29 336.82
  Q 233.33 337.16 232.76 336.89
  L 233.52 336.55
  Z"
/>
<path fill="#958c81" d="
  M 230.97 337.22
  Q 230.55 337.56 229.95 337.36
  L 230.29 337.09
  L 230.97 337.22
  Z"
/>
<path fill="#958c81" d="
  M 295.09 349.87
  Q 295.79 349.68 294.54 350.51
  Q 288.21 351.42 281.99 350.62
  L 280.72 349.84
  Q 287.81 351.10 295.09 349.87
  Z"
/>
<path fill="#231f20" d="
  M 238.47 350.12
  L 237.29 350.12
  L 238.47 350.12
  Z"
/>
</svg>
