<svg width="128" height="128" viewBox="0 0 128 128" fill="none" xmlns="http://www.w3.org/2000/svg">
<g clip-path="url(#clip0_240_6198)">
<path fill-rule="evenodd" clip-rule="evenodd" d="M97.3238 9.22119L68.8388 87.7376C68.1084 89.7462 66.2825 91.0243 64.2739 91.3895H94.4023C96.776 91.3895 98.7846 89.9287 99.515 87.7376L128 9.22119H97.3238ZM61.9001 90.1113C63.7261 90.1113 65.1869 89.1984 66.0999 87.9202C66.2825 87.7376 66.465 87.3724 66.8302 86.642L77.2382 57.7918L71.2126 40.9929C70.4822 39.167 68.6562 37.8888 66.465 37.8888C64.6391 37.8888 63.1783 38.8018 62.2653 40.08C62.0827 40.2626 61.7175 40.8104 61.535 41.3581L51.127 70.2084L57.3352 87.0072C57.883 88.8332 59.709 90.1113 61.9001 90.1113ZM33.5977 36.6106H64.0913C61.9001 36.7932 59.8916 38.254 59.1612 40.2626L30.6762 118.779H0L28.485 40.2626C29.2154 38.254 31.224 36.6106 33.5977 36.6106Z" fill="#0090BA"/>
</g>
<defs>
<clipPath id="clip0_240_6198">
<rect width="128" height="109.558" fill="white" transform="translate(0 9.22119)"/>
</clipPath>
</defs>
</svg>
