<svg class="logo-text" width="112" height="24" viewBox="0 0 112 24" fill="none" xmlns="http://www.w3.org/2000/svg" style="fill: none !important;"><title style="fill: none !important;">NetHunt CRM</title><path d="M36.8547 4.8V19.2H33.9829L27.7607 11.04V19.2H24.4151V4.8H27.2821L33.5043 12.96V4.8H36.8547Z" fill="#141F34" style="fill: #000000 !important;"/><path d="M47.8633 16.32V19.2H38.7693V7.2H47.8633L46.906 10.08H41.6411V12H46.906V14.4H41.6411V16.32H47.8633Z" fill="#141F34" style="fill: #000000 !important;"/><path d="M52.171 10.08H48.8206L49.7778 7.2H58.4434V10.08H55.5214V19.2H52.171V10.08Z" fill="#141F34" style="fill: #000000 !important;"/><path d="M73.2308 4.8V19.2H69.8804V13.44H64.6154V19.2H61.265V4.8H64.6154V10.56H69.8804V4.8H73.2308Z" fill="#141F34" style="fill: #000000 !important;"/><path d="M80.8889 19.2C77.7778 19.2 75.1453 17.28 75.1453 13.9435V7.2H78.4958V13.9435C78.4958 15.36 79.6923 16.32 80.8889 16.32C82.0855 16.32 83.2821 15.36 83.2821 13.9435V7.2H86.6325V13.92C86.6325 17.28 84 19.2 80.8889 19.2Z" fill="#141F34" style="fill: #000000 !important;"/><path d="M99.5556 7.2V19.2H96.6838L91.8975 12.96V19.2H88.547V7.2H91.4188L96.2052 13.44V7.2H99.5556Z" fill="#141F34" style="fill: #000000 !important;"/><path d="M104.821 10.08H101.47V7.2H112L111.043 10.08H108.171V19.2H104.821V10.08Z" fill="#141F34" style="fill: #000000 !important;"/><path class="head" d="M6.92764 7.57876C4.84414 7.57876 3.14906 5.87816 3.14906 3.78322C3.14906 1.7006 4.84414 0 6.92764 0C9.01117 0 10.7062 1.7006 10.7062 3.78322C10.7062 5.87816 9.01117 7.57876 6.92764 7.57876Z" fill="#008EFF" style="fill: #000000 !important;"/><path class="body-ed" d="M18.7671 12.7977C18.72 9.12067 18.2259 5.5041 16.7786 2.11733C16.4845 1.43998 15.4137 1.50046 15.1078 2.11733C12.2957 7.69337 6.96557 11.0318 0.98836 11.8059H0.976595C0.43535 11.8059 0 12.2534 0 12.8098C0 13.3662 0.43535 13.8138 0.976595 13.8138C6.96561 14.5879 12.3074 17.9383 15.1078 23.5144C15.4137 24.1313 16.4845 24.1918 16.7786 23.5144C18.2259 20.1276 18.72 16.511 18.7671 12.834V12.8219V12.7977Z" fill="#008EFF" style="fill: #000000 !important;"/></svg>