<?xml version="1.0" encoding="UTF-8" standalone="no"?>
<!DOCTYPE svg PUBLIC "-//W3C//DTD SVG 1.1//EN" "http://www.w3.org/Graphics/SVG/1.1/DTD/svg11.dtd">
<svg xmlns="http://www.w3.org/2000/svg" version="1.1" viewBox="0.00 0.00 400.00 400.00">
<g stroke-width="2.00" fill="none" stroke-linecap="butt">
<path stroke="#95a9cd" vector-effect="non-scaling-stroke" d="
  M 321.73 130.41
  A 55.42 55.42 0.0 0 0 266.31 74.99
  A 55.42 55.42 0.0 0 0 210.89 130.41
  A 55.42 55.42 0.0 0 0 266.31 185.83
  A 55.42 55.42 0.0 0 0 321.73 130.41"
/>
<path stroke="#8ea2c9" vector-effect="non-scaling-stroke" d="
  M 198.85 132.38
  C 198.47 113.33 206.79 94.55 221.47 82.42
  A 0.56 0.55 31.2 0 0 221.23 81.45
  C 191.47 75.07 159.85 81.07 134.08 96.78
  C 90.56 123.31 68.55 174.25 78.67 224.45
  Q 82.28 242.35 90.61 257.54
  A 1.07 1.06 -23.2 0 0 91.87 258.04
  Q 98.97 255.77 107.51 256.26
  C 125.59 257.29 140.66 269.08 146.17 286.33
  Q 149.61 297.08 146.96 309.41
  A 1.13 1.12 17.9 0 0 147.60 310.66
  C 212.62 339.70 288.21 306.88 311.61 240.06
  Q 322.48 209.03 315.84 174.64
  A 0.41 0.41 0.0 0 0 315.14 174.43
  C 301.05 188.72 285.33 198.71 264.47 197.58
  A 0.79 0.78 -87.9 0 0 263.64 198.36
  Q 263.57 218.65 252.55 235.21
  Q 238.51 256.28 214.73 262.88
  Q 189.76 269.80 167.78 257.92
  C 149.71 248.15 136.00 231.07 132.43 210.91
  C 128.72 189.95 134.86 169.29 149.58 153.89
  Q 169.71 132.82 198.25 132.99
  A 0.60 0.60 0.0 0 0 198.85 132.38"
/>
</g>
<path fill="#ffffff" d="
  M 400.00 0.00
  L 400.00 400.00
  L 0.00 400.00
  L 0.00 0.00
  L 400.00 0.00
  Z
  M 321.73 130.41
  A 55.42 55.42 0.0 0 0 266.31 74.99
  A 55.42 55.42 0.0 0 0 210.89 130.41
  A 55.42 55.42 0.0 0 0 266.31 185.83
  A 55.42 55.42 0.0 0 0 321.73 130.41
  Z
  M 198.85 132.38
  C 198.47 113.33 206.79 94.55 221.47 82.42
  A 0.56 0.55 31.2 0 0 221.23 81.45
  C 191.47 75.07 159.85 81.07 134.08 96.78
  C 90.56 123.31 68.55 174.25 78.67 224.45
  Q 82.28 242.35 90.61 257.54
  A 1.07 1.06 -23.2 0 0 91.87 258.04
  Q 98.97 255.77 107.51 256.26
  C 125.59 257.29 140.66 269.08 146.17 286.33
  Q 149.61 297.08 146.96 309.41
  A 1.13 1.12 17.9 0 0 147.60 310.66
  C 212.62 339.70 288.21 306.88 311.61 240.06
  Q 322.48 209.03 315.84 174.64
  A 0.41 0.41 0.0 0 0 315.14 174.43
  C 301.05 188.72 285.33 198.71 264.47 197.58
  A 0.79 0.78 -87.9 0 0 263.64 198.36
  Q 263.57 218.65 252.55 235.21
  Q 238.51 256.28 214.73 262.88
  Q 189.76 269.80 167.78 257.92
  C 149.71 248.15 136.00 231.07 132.43 210.91
  C 128.72 189.95 134.86 169.29 149.58 153.89
  Q 169.71 132.82 198.25 132.99
  A 0.60 0.60 0.0 0 0 198.85 132.38
  Z"
/>
<circle fill="#2a529a" cx="266.31" cy="130.41" r="55.42"/>
<path fill="#1d4492" d="
  M 198.25 132.99
  Q 169.71 132.82 149.58 153.89
  C 134.86 169.29 128.72 189.95 132.43 210.91
  C 136.00 231.07 149.71 248.15 167.78 257.92
  Q 189.76 269.80 214.73 262.88
  Q 238.51 256.28 252.55 235.21
  Q 263.57 218.65 263.64 198.36
  A 0.79 0.78 -87.9 0 1 264.47 197.58
  C 285.33 198.71 301.05 188.72 315.14 174.43
  A 0.41 0.41 0.0 0 1 315.84 174.64
  Q 322.48 209.03 311.61 240.06
  C 288.21 306.88 212.62 339.70 147.60 310.66
  A 1.13 1.12 17.9 0 1 146.96 309.41
  Q 149.61 297.08 146.17 286.33
  C 140.66 269.08 125.59 257.29 107.51 256.26
  Q 98.97 255.77 91.87 258.04
  A 1.07 1.06 -23.2 0 1 90.61 257.54
  Q 82.28 242.35 78.67 224.45
  C 68.55 174.25 90.56 123.31 134.08 96.78
  C 159.85 81.07 191.47 75.07 221.23 81.45
  A 0.56 0.55 31.2 0 1 221.47 82.42
  C 206.79 94.55 198.47 113.33 198.85 132.38
  A 0.60 0.60 0.0 0 1 198.25 132.99
  Z"
/>
</svg>
