<svg width="156" height="37" viewBox="0 0 156 37" fill="none" xmlns="http://www.w3.org/2000/svg">
<path d="M16.2635 1.16382C10.8071 3.53923 5.58391 6.39145 0.429864 9.35585L0 9.60397V10.098C0 12.9805 0.036722 16.1261 0.157689 18.9956C0.289456 21.9686 0.457945 24.9352 0.810045 27.8953C1.43432 22.741 1.62441 17.5177 1.71081 12.3289L1.72377 10.5964C6.70717 7.66869 11.6258 4.62229 16.2635 1.16382Z" fill="black"/>
<path d="M24.0119 5.63199C18.5554 8.00955 13.3301 10.8639 8.17821 13.8305L7.74834 14.0786V14.5727C7.74834 17.4529 7.78723 20.5986 7.90819 23.4681C8.03996 26.4389 8.20845 29.4055 8.56271 32.3634C9.18699 27.2113 9.37492 21.988 9.46132 16.8014L9.47428 15.0689C14.4577 12.139 19.3784 9.09262 24.014 5.62983L24.0119 5.63199Z" fill="black"/>
<path d="M31.933 22.7863L16.8748 30.5382C16.9245 29.755 16.9677 28.9697 17.0045 28.1844L32 18.5533L17.0844 26.2297C17.1125 25.4336 17.1341 24.6396 17.1557 23.8456L31.933 14.3483L17.1967 21.9233C17.201 21.7076 17.2053 21.4896 17.2097 21.2739L17.2226 19.5436C22.206 16.6158 27.1268 13.5651 31.7624 10.1045C26.3059 12.4821 21.0806 15.3364 15.9287 18.303L15.4989 18.5511V19.0452C15.4967 21.9276 15.5356 25.0711 15.6587 27.9406C15.7624 30.3117 15.892 32.6806 16.121 35.0431C16.1685 35.5717 16.2247 36.0981 16.2873 36.6267C16.2938 36.6957 16.3024 36.7669 16.3111 36.836L31.717 27.0107L16.5314 34.8316C16.607 34.0722 16.6718 33.3084 16.7323 32.5468L31.933 22.7885V22.7863Z" fill="black"/>
<path d="M20.1366 3.39684C14.6802 5.77441 9.45484 8.62878 4.30296 11.5953L3.87309 11.8435V12.3375C3.87309 15.2178 3.91198 18.3634 4.03294 21.2329C4.16471 24.2038 4.3332 27.1704 4.68746 30.1283C5.31173 24.9762 5.49966 19.7529 5.58607 14.5662L5.59903 12.8338C10.5824 9.90386 15.5032 6.85747 20.1388 3.39468L20.1366 3.39684Z" fill="black"/>
<path d="M27.8871 7.86719C22.4307 10.2448 17.2053 13.0991 12.0535 16.0657L11.6236 16.3138V16.8079C11.6236 19.6882 11.6625 22.8338 11.7834 25.7033C11.9152 28.6741 12.0837 31.6407 12.438 34.5986C13.0622 29.4465 13.2502 24.2232 13.3366 19.0366L13.3495 17.3041C18.3329 14.3742 23.2537 11.3278 27.8893 7.86504L27.8871 7.86719Z" fill="black"/>
<path d="M148.498 15.6108C148.813 15.6108 149.058 15.6283 149.321 15.6634V17.3093C149.111 17.2742 148.953 17.2567 148.743 17.2567C147.185 17.2567 146.064 18.4299 146.064 20.1283V24.7508H144.348V15.821H146.064V17.5194H146.099C146.572 16.3988 147.29 15.6108 148.498 15.6108Z" fill="black"/>
<path d="M143.074 20.0932C143.074 20.3384 143.074 20.601 143.056 20.7411H136.193C136.228 22.2294 137.103 23.6126 138.872 23.6126C140.448 23.6126 141.06 22.5971 141.218 22.0017H142.969C142.496 23.7177 141.183 25.0134 138.837 25.0134C136 25.0134 134.424 22.9998 134.424 20.2683C134.424 17.4668 136.105 15.5408 138.837 15.5408C141.551 15.5408 143.074 17.3267 143.074 20.0932ZM136.193 19.3928H141.288C141.288 17.9921 140.307 16.9415 138.784 16.9415C137.348 16.9415 136.298 17.9221 136.193 19.3928Z" fill="black"/>
<path d="M130.223 15.5582C131.869 15.5582 133.2 16.5037 133.2 18.5523V24.7507H131.484V19.0251C131.484 17.8345 130.958 17.029 129.663 17.029C128.192 17.029 127.246 17.922 127.246 19.2702V24.7507H125.53V12.2314H127.246V16.9415H127.281C127.754 16.2586 128.682 15.5582 130.223 15.5582Z" fill="black"/>
<path d="M120.326 25.0134C117.664 25.0134 115.931 23.0874 115.931 20.2859C115.931 17.4844 117.664 15.5583 120.308 15.5583C122.602 15.5583 124.125 17.0467 124.335 19.0602H122.567C122.479 18.1322 121.954 16.9766 120.326 16.9766C118.417 16.9766 117.717 18.605 117.717 20.2859C117.717 21.9668 118.417 23.5777 120.326 23.5777C121.972 23.5777 122.479 22.4571 122.567 21.4415H124.335C124.213 23.4901 122.62 25.0134 120.326 25.0134Z" fill="black"/>
<path d="M114.621 23.4376C114.919 23.4376 115.059 23.4201 115.357 23.3676V24.7508C114.919 24.8384 114.639 24.8559 114.271 24.8559C112.8 24.8559 111.907 24.2956 111.907 22.2295V17.2393H110.611V15.821H111.907V12.9495H113.623V15.821H115.339V17.2393H113.623V22.282C113.623 23.2275 113.886 23.4376 114.621 23.4376Z" fill="black"/>
<path d="M104.842 24.9959C103.056 24.9959 101.918 23.9628 101.918 22.4395C101.918 20.4434 103.424 19.8481 105.648 19.4279C107.049 19.1652 107.907 18.9901 107.907 18.1147C107.907 17.4668 107.521 16.924 106.208 16.924C104.65 16.924 104.177 17.4143 104.09 18.6049H102.339C102.426 16.889 103.547 15.5408 106.278 15.5408C108.117 15.5408 109.587 16.3112 109.587 18.6224V22.7196C109.587 23.3675 109.675 23.7002 110.008 23.7002C110.06 23.7002 110.113 23.7002 110.218 23.6827V24.7332C109.92 24.8033 109.622 24.8383 109.342 24.8383C108.484 24.8383 108.029 24.5056 107.924 23.49H107.889C107.311 24.418 106.296 24.9959 104.842 24.9959ZM105.228 23.6126C106.768 23.6126 107.907 22.8247 107.907 21.2664V19.9882C107.626 20.2508 106.856 20.4434 105.945 20.636C104.37 20.9512 103.704 21.3889 103.704 22.3169C103.704 23.1574 104.16 23.6126 105.228 23.6126Z" fill="black"/>
<path d="M95.7528 24.9958C92.1984 24.9958 89.9047 22.2644 89.9047 18.4998C89.9047 14.7178 92.2159 11.9863 95.7703 11.9863C98.9045 11.9863 100.848 13.9824 101.146 16.4862H99.1321C98.9045 15.2606 98.1341 13.6497 95.7353 13.6497C92.9688 13.6497 91.9183 15.996 91.9183 18.4823C91.9183 20.9862 92.9688 23.3324 95.7353 23.3324C98.1516 23.3324 99.0096 21.7216 99.1321 20.1982H101.146C100.866 22.9822 98.9045 24.9958 95.7528 24.9958Z" fill="black"/>
<path d="M85.502 24.9959C82.7881 24.9959 81.4398 23.5952 81.3873 21.7742H83.1207C83.1908 22.8072 83.8211 23.6127 85.4845 23.6127C86.9903 23.6127 87.393 22.9473 87.393 22.2995C87.393 21.1789 86.2024 21.0563 85.0468 20.8112C83.4884 20.4435 81.7025 19.9882 81.7025 18.1322C81.7025 16.5914 82.9456 15.5583 85.0993 15.5583C87.5506 15.5583 88.7238 16.8716 88.8463 18.4124H87.1129C86.9903 17.7295 86.6226 16.9416 85.1343 16.9416C83.9787 16.9416 83.4884 17.3968 83.4884 18.0622C83.4884 18.9902 84.4865 19.0777 85.7472 19.3579C87.393 19.7431 89.179 20.2159 89.179 22.2119C89.179 23.9454 87.8483 24.9959 85.502 24.9959Z" fill="black"/>
<path d="M72.8407 24.7508H71.0722L68.3057 15.821H70.1617L72.0527 22.7373H72.0878L73.9438 15.821H75.6772L77.5332 22.7373H77.5682L79.4767 15.821H81.2627L78.4962 24.7508H76.7278L74.8017 17.8696H74.7667L72.8407 24.7508Z" fill="black"/>
<path d="M68.0249 20.0932C68.0249 20.3384 68.0249 20.601 68.0074 20.7411H61.1437C61.1787 22.2294 62.0542 23.6126 63.8226 23.6126C65.3985 23.6126 66.0113 22.5971 66.1689 22.0017H67.9198C67.4471 23.7177 66.1339 25.0134 63.7876 25.0134C60.9511 25.0134 59.3752 22.9998 59.3752 20.2683C59.3752 17.4668 61.0561 15.5408 63.7876 15.5408C66.5016 15.5408 68.0249 17.3267 68.0249 20.0932ZM61.1437 19.3928H66.2389C66.2389 17.9921 65.2584 16.9415 63.7351 16.9415C62.2993 16.9415 61.2487 17.9221 61.1437 19.3928Z" fill="black"/>
<path d="M49.9346 24.7507H48.0086V12.2314H50.2148L56.0279 21.8616H56.0629V12.2314H58.0065V24.7507H55.8003L49.9697 15.1205H49.9346V24.7507Z" fill="black"/>
</svg>
