<?xml version="1.0" encoding="UTF-8" standalone="no"?>
<!DOCTYPE svg PUBLIC "-//W3C//DTD SVG 1.1//EN" "http://www.w3.org/Graphics/SVG/1.1/DTD/svg11.dtd">
<svg xmlns="http://www.w3.org/2000/svg" version="1.1" viewBox="0.00 0.00 400.00 400.00">
<g stroke-width="2.00" fill="none" stroke-linecap="butt">
<path stroke="#de8d8d" vector-effect="non-scaling-stroke" d="
  M 193.02 104.14
  A 21.61 21.61 0.0 0 0 171.41 82.53
  A 21.61 21.61 0.0 0 0 149.80 104.14
  A 21.61 21.61 0.0 0 0 171.41 125.75
  A 21.61 21.61 0.0 0 0 193.02 104.14"
/>
<path stroke="#de8d8d" vector-effect="non-scaling-stroke" d="
  M 244.88 265.26
  L 337.20 240.58
  A 1.77 1.77 0.0 0 0 338.45 238.42
  L 306.02 117.13
  A 1.23 1.23 0.0 0 0 304.51 116.26
  L 217.00 139.66
  A 1.09 1.08 -23.3 0 1 215.81 139.19
  Q 209.31 128.81 196.73 126.77
  C 179.99 124.05 161.41 131.22 154.19 147.50
  C 152.91 150.38 152.56 153.35 152.24 156.37
  A 1.08 1.06 -4.5 0 1 151.45 157.28
  L 66.93 179.88
  A 0.93 0.93 0.0 0 0 66.31 181.12
  C 67.05 182.99 67.91 184.58 68.50 186.62
  C 70.88 194.83 73.02 203.50 75.34 212.12
  Q 96.53 290.77 99.34 301.75
  Q 99.57 302.67 99.76 304.31
  A 0.83 0.83 0.0 0 0 101.07 304.89
  Q 103.45 303.16 106.21 302.43
  Q 131.60 295.76 188.66 280.32
  A 0.69 0.69 0.0 0 1 189.49 280.76
  Q 192.09 288.57 193.89 297.19
  C 194.46 299.95 193.74 303.36 194.65 305.86
  C 197.03 312.46 206.01 313.86 211.12 309.82
  C 214.04 307.51 216.90 302.66 214.68 299.04
  C 210.67 292.49 209.69 286.38 207.03 277.00
  A 1.46 1.46 0.0 0 1 208.06 275.19
  L 225.46 270.53
  A 1.53 1.53 0.0 0 1 227.33 271.58
  Q 228.76 276.45 230.31 281.73
  Q 231.34 285.21 231.02 289.98
  C 230.72 294.55 233.87 298.20 238.46 299.16
  Q 246.01 300.75 250.82 294.04
  C 253.23 290.67 252.14 287.47 249.88 283.56
  Q 248.66 281.44 247.90 278.84
  Q 244.88 268.43 244.35 266.15
  A 0.75 0.75 0.0 0 1 244.88 265.26"
/>
<path stroke="#de8d8d" vector-effect="non-scaling-stroke" d="
  M 187.32 161.95
  Q 165.82 167.71 93.18 187.02
  A 0.24 0.24 0.0 0 0 93.23 187.50
  Q 101.09 188.15 111.21 189.64
  C 129.08 192.27 150.19 194.84 193.99 200.56
  Q 196.16 200.84 197.62 200.45
  Q 199.08 200.06 200.82 198.73
  C 235.91 171.90 252.92 159.13 267.09 147.93
  Q 275.11 141.58 281.59 137.09
  A 0.24 0.24 0.0 0 0 281.40 136.66
  Q 208.82 156.20 187.32 161.95"
/>
<path stroke="#de8d8d" vector-effect="non-scaling-stroke" d="
  M 87.31 201.99
  Q 88.34 207.60 88.94 209.80
  Q 99.64 249.06 109.40 286.31
  A 0.98 0.98 0.0 0 0 110.61 287.01
  L 321.13 230.72
  A 0.96 0.96 0.0 0 0 321.81 229.55
  L 298.79 143.48
  A 0.78 0.78 0.0 0 0 297.57 143.06
  Q 250.26 179.24 207.21 212.90
  C 205.11 214.54 203.05 216.27 200.51 216.25
  C 192.89 216.17 181.80 213.74 174.21 212.75
  Q 99.29 202.96 92.71 202.22
  C 91.13 202.04 88.61 201.19 87.82 201.29
  A 0.60 0.60 0.0 0 0 87.31 201.99"
/>
</g>
<path fill="#ffffff" d="
  M 400.00 0.00
  L 400.00 400.00
  L 0.00 400.00
  L 0.00 0.00
  L 400.00 0.00
  Z
  M 193.02 104.14
  A 21.61 21.61 0.0 0 0 171.41 82.53
  A 21.61 21.61 0.0 0 0 149.80 104.14
  A 21.61 21.61 0.0 0 0 171.41 125.75
  A 21.61 21.61 0.0 0 0 193.02 104.14
  Z
  M 244.88 265.26
  L 337.20 240.58
  A 1.77 1.77 0.0 0 0 338.45 238.42
  L 306.02 117.13
  A 1.23 1.23 0.0 0 0 304.51 116.26
  L 217.00 139.66
  A 1.09 1.08 -23.3 0 1 215.81 139.19
  Q 209.31 128.81 196.73 126.77
  C 179.99 124.05 161.41 131.22 154.19 147.50
  C 152.91 150.38 152.56 153.35 152.24 156.37
  A 1.08 1.06 -4.5 0 1 151.45 157.28
  L 66.93 179.88
  A 0.93 0.93 0.0 0 0 66.31 181.12
  C 67.05 182.99 67.91 184.58 68.50 186.62
  C 70.88 194.83 73.02 203.50 75.34 212.12
  Q 96.53 290.77 99.34 301.75
  Q 99.57 302.67 99.76 304.31
  A 0.83 0.83 0.0 0 0 101.07 304.89
  Q 103.45 303.16 106.21 302.43
  Q 131.60 295.76 188.66 280.32
  A 0.69 0.69 0.0 0 1 189.49 280.76
  Q 192.09 288.57 193.89 297.19
  C 194.46 299.95 193.74 303.36 194.65 305.86
  C 197.03 312.46 206.01 313.86 211.12 309.82
  C 214.04 307.51 216.90 302.66 214.68 299.04
  C 210.67 292.49 209.69 286.38 207.03 277.00
  A 1.46 1.46 0.0 0 1 208.06 275.19
  L 225.46 270.53
  A 1.53 1.53 0.0 0 1 227.33 271.58
  Q 228.76 276.45 230.31 281.73
  Q 231.34 285.21 231.02 289.98
  C 230.72 294.55 233.87 298.20 238.46 299.16
  Q 246.01 300.75 250.82 294.04
  C 253.23 290.67 252.14 287.47 249.88 283.56
  Q 248.66 281.44 247.90 278.84
  Q 244.88 268.43 244.35 266.15
  A 0.75 0.75 0.0 0 1 244.88 265.26
  Z"
/>
<circle fill="#bc1b1b" cx="171.41" cy="104.14" r="21.61"/>
<path fill="#bc1b1b" d="
  M 244.35 266.15
  Q 244.88 268.43 247.90 278.84
  Q 248.66 281.44 249.88 283.56
  C 252.14 287.47 253.23 290.67 250.82 294.04
  Q 246.01 300.75 238.46 299.16
  C 233.87 298.20 230.72 294.55 231.02 289.98
  Q 231.34 285.21 230.31 281.73
  Q 228.76 276.45 227.33 271.58
  A 1.53 1.53 0.0 0 0 225.46 270.53
  L 208.06 275.19
  A 1.46 1.46 0.0 0 0 207.03 277.00
  C 209.69 286.38 210.67 292.49 214.68 299.04
  C 216.90 302.66 214.04 307.51 211.12 309.82
  C 206.01 313.86 197.03 312.46 194.65 305.86
  C 193.74 303.36 194.46 299.95 193.89 297.19
  Q 192.09 288.57 189.49 280.76
  A 0.69 0.69 0.0 0 0 188.66 280.32
  Q 131.60 295.76 106.21 302.43
  Q 103.45 303.16 101.07 304.89
  A 0.83 0.83 0.0 0 1 99.76 304.31
  Q 99.57 302.67 99.34 301.75
  Q 96.53 290.77 75.34 212.12
  C 73.02 203.50 70.88 194.83 68.50 186.62
  C 67.91 184.58 67.05 182.99 66.31 181.12
  A 0.93 0.93 0.0 0 1 66.93 179.88
  L 151.45 157.28
  A 1.08 1.06 -4.5 0 0 152.24 156.37
  C 152.56 153.35 152.91 150.38 154.19 147.50
  C 161.41 131.22 179.99 124.05 196.73 126.77
  Q 209.31 128.81 215.81 139.19
  A 1.09 1.08 -23.3 0 0 217.00 139.66
  L 304.51 116.26
  A 1.23 1.23 0.0 0 1 306.02 117.13
  L 338.45 238.42
  A 1.77 1.77 0.0 0 1 337.20 240.58
  L 244.88 265.26
  A 0.75 0.75 0.0 0 0 244.35 266.15
  Z
  M 187.32 161.95
  Q 165.82 167.71 93.18 187.02
  A 0.24 0.24 0.0 0 0 93.23 187.50
  Q 101.09 188.15 111.21 189.64
  C 129.08 192.27 150.19 194.84 193.99 200.56
  Q 196.16 200.84 197.62 200.45
  Q 199.08 200.06 200.82 198.73
  C 235.91 171.90 252.92 159.13 267.09 147.93
  Q 275.11 141.58 281.59 137.09
  A 0.24 0.24 0.0 0 0 281.40 136.66
  Q 208.82 156.20 187.32 161.95
  Z
  M 87.31 201.99
  Q 88.34 207.60 88.94 209.80
  Q 99.64 249.06 109.40 286.31
  A 0.98 0.98 0.0 0 0 110.61 287.01
  L 321.13 230.72
  A 0.96 0.96 0.0 0 0 321.81 229.55
  L 298.79 143.48
  A 0.78 0.78 0.0 0 0 297.57 143.06
  Q 250.26 179.24 207.21 212.90
  C 205.11 214.54 203.05 216.27 200.51 216.25
  C 192.89 216.17 181.80 213.74 174.21 212.75
  Q 99.29 202.96 92.71 202.22
  C 91.13 202.04 88.61 201.19 87.82 201.29
  A 0.60 0.60 0.0 0 0 87.31 201.99
  Z"
/>
<path fill="#ffffff" d="
  M 197.62 200.45
  Q 196.16 200.84 193.99 200.56
  C 150.19 194.84 129.08 192.27 111.21 189.64
  Q 101.09 188.15 93.23 187.50
  A 0.24 0.24 0.0 0 1 93.18 187.02
  Q 165.82 167.71 187.32 161.95
  Q 208.82 156.20 281.40 136.66
  A 0.24 0.24 0.0 0 1 281.59 137.09
  Q 275.11 141.58 267.09 147.93
  C 252.92 159.13 235.91 171.90 200.82 198.73
  Q 199.08 200.06 197.62 200.45
  Z"
/>
<path fill="#ffffff" d="
  M 87.82 201.29
  C 88.61 201.19 91.13 202.04 92.71 202.22
  Q 99.29 202.96 174.21 212.75
  C 181.80 213.74 192.89 216.17 200.51 216.25
  C 203.05 216.27 205.11 214.54 207.21 212.90
  Q 250.26 179.24 297.57 143.06
  A 0.78 0.78 0.0 0 1 298.79 143.48
  L 321.81 229.55
  A 0.96 0.96 0.0 0 1 321.13 230.72
  L 110.61 287.01
  A 0.98 0.98 0.0 0 1 109.40 286.31
  Q 99.64 249.06 88.94 209.80
  Q 88.34 207.60 87.31 201.99
  A 0.60 0.60 0.0 0 1 87.82 201.29
  Z"
/>
</svg>
