<?xml version="1.0" encoding="UTF-8" standalone="no"?>
<!DOCTYPE svg PUBLIC "-//W3C//DTD SVG 1.1//EN" "http://www.w3.org/Graphics/SVG/1.1/DTD/svg11.dtd">
<svg xmlns="http://www.w3.org/2000/svg" version="1.1" viewBox="0.00 0.00 400.00 400.00">
<g stroke-width="2.00" fill="none" stroke-linecap="butt">
<path stroke="#0e2234" vector-effect="non-scaling-stroke" d="
  M 304.08 0.00
  Q 312.44 24.39 312.12 49.61
  Q 311.92 66.11 309.67 85.36
  C 308.32 96.96 307.01 107.49 304.36 116.67
  Q 298.71 136.20 286.01 152.28
  Q 285.00 153.56 284.95 155.25
  Q 284.87 157.88 284.85 160.47"
/>
<path stroke="#08569c" vector-effect="non-scaling-stroke" d="
  M 284.85 160.47
  Q 285.10 148.36 284.16 144.06
  Q 281.83 133.43 271.74 128.87"
/>
<path stroke="#085f9c" vector-effect="non-scaling-stroke" d="
  M 271.74 128.87
  Q 268.02 127.45 265.00 127.21
  Q 255.19 126.45 248.14 124.91
  C 233.79 121.76 221.04 115.01 210.48 105.09
  C 204.93 99.87 198.21 97.87 191.75 103.26
  Q 185.41 108.56 184.67 109.16
  C 171.23 120.06 155.81 125.42 138.77 126.88
  Q 131.47 127.51 128.82 128.62
  Q 116.24 133.91 115.51 147.48
  Q 114.18 172.09 116.14 199.25
  Q 116.30 201.39 117.63 209.53"
/>
<path stroke="#08569c" vector-effect="non-scaling-stroke" d="
  M 117.63 209.53
  Q 119.80 222.80 124.53 235.27"
/>
<path stroke="#084f9c" vector-effect="non-scaling-stroke" d="
  M 124.53 235.27
  Q 129.83 248.84 138.39 260.33"
/>
<path stroke="#08479c" vector-effect="non-scaling-stroke" d="
  M 138.39 260.33
  Q 146.78 270.84 157.38 279.25"
/>
<path stroke="#0e2234" vector-effect="non-scaling-stroke" d="
  M 157.38 279.25
  C 147.02 283.79 141.78 289.05 133.60 296.64
  C 127.13 302.64 117.27 304.60 107.84 305.62
  Q 93.27 307.21 68.16 308.98
  Q 53.59 310.02 45.01 309.29
  Q 22.52 307.38 0.00 305.95"
/>
<path stroke="#064398" vector-effect="non-scaling-stroke" d="
  M 157.38 279.25
  Q 174.28 291.87 194.37 298.66
  C 198.13 299.93 201.04 300.28 204.56 299.09
  C 234.44 289.02 260.51 269.58 273.39 240.12
  Q 282.69 218.83 284.03 194.05"
/>
<path stroke="#064b98" vector-effect="non-scaling-stroke" d="
  M 284.03 194.05
  Q 285.25 179.14 284.88 164.23"
/>
<path stroke="#065298" vector-effect="non-scaling-stroke" d="
  M 284.88 164.23
  L 284.85 160.47"
/>
<path stroke="#008eff" vector-effect="non-scaling-stroke" d="
  M 271.74 128.87
  Q 259.87 140.64 246.26 147.99
  Q 232.12 155.63 208.84 166.91
  Q 163.62 188.83 117.63 209.53"
/>
<path stroke="#007fff" vector-effect="non-scaling-stroke" d="
  M 284.88 164.23
  Q 264.40 171.22 242.09 181.85
  Q 188.09 207.57 156.50 223.15
  Q 143.75 229.45 124.53 235.27"
/>
<path stroke="#0070ff" vector-effect="non-scaling-stroke" d="
  M 284.03 194.05
  Q 261.59 203.29 239.66 213.71
  Q 207.21 229.13 174.97 244.97
  Q 157.25 253.68 138.39 260.33"
/>
</g>
<path fill="#0f2638" d="
  M 304.08 0.00
  Q 312.44 24.39 312.12 49.61
  Q 311.92 66.11 309.67 85.36
  C 308.32 96.96 307.01 107.49 304.36 116.67
  Q 298.71 136.20 286.01 152.28
  Q 285.00 153.56 284.95 155.25
  Q 284.87 157.88 284.85 160.47
  Q 285.10 148.36 284.16 144.06
  Q 281.83 133.43 271.74 128.87
  Q 268.02 127.45 265.00 127.21
  Q 255.19 126.45 248.14 124.91
  C 233.79 121.76 221.04 115.01 210.48 105.09
  C 204.93 99.87 198.21 97.87 191.75 103.26
  Q 185.41 108.56 184.67 109.16
  C 171.23 120.06 155.81 125.42 138.77 126.88
  Q 131.47 127.51 128.82 128.62
  Q 116.24 133.91 115.51 147.48
  Q 114.18 172.09 116.14 199.25
  Q 116.30 201.39 117.63 209.53
  Q 119.80 222.80 124.53 235.27
  Q 129.83 248.84 138.39 260.33
  Q 146.78 270.84 157.38 279.25
  C 147.02 283.79 141.78 289.05 133.60 296.64
  C 127.13 302.64 117.27 304.60 107.84 305.62
  Q 93.27 307.21 68.16 308.98
  Q 53.59 310.02 45.01 309.29
  Q 22.52 307.38 0.00 305.95
  L 0.00 0.00
  L 304.08 0.00
  Z"
/>
<path fill="#0c1e30" d="
  M 400.00 0.00
  L 400.00 400.00
  L 0.00 400.00
  L 0.00 305.95
  Q 22.52 307.38 45.01 309.29
  Q 53.59 310.02 68.16 308.98
  Q 93.27 307.21 107.84 305.62
  C 117.27 304.60 127.13 302.64 133.60 296.64
  C 141.78 289.05 147.02 283.79 157.38 279.25
  Q 174.28 291.87 194.37 298.66
  C 198.13 299.93 201.04 300.28 204.56 299.09
  C 234.44 289.02 260.51 269.58 273.39 240.12
  Q 282.69 218.83 284.03 194.05
  Q 285.25 179.14 284.88 164.23
  L 284.85 160.47
  Q 284.87 157.88 284.95 155.25
  Q 285.00 153.56 286.01 152.28
  Q 298.71 136.20 304.36 116.67
  C 307.01 107.49 308.32 96.96 309.67 85.36
  Q 311.92 66.11 312.12 49.61
  Q 312.44 24.39 304.08 0.00
  L 400.00 0.00
  Z"
/>
<path fill="#0097ff" d="
  M 271.74 128.87
  Q 259.87 140.64 246.26 147.99
  Q 232.12 155.63 208.84 166.91
  Q 163.62 188.83 117.63 209.53
  Q 116.30 201.39 116.14 199.25
  Q 114.18 172.09 115.51 147.48
  Q 116.24 133.91 128.82 128.62
  Q 131.47 127.51 138.77 126.88
  C 155.81 125.42 171.23 120.06 184.67 109.16
  Q 185.41 108.56 191.75 103.26
  C 198.21 97.87 204.93 99.87 210.48 105.09
  C 221.04 115.01 233.79 121.76 248.14 124.91
  Q 255.19 126.45 265.00 127.21
  Q 268.02 127.45 271.74 128.87
  Z"
/>
<path fill="#0085ff" d="
  M 271.74 128.87
  Q 281.83 133.43 284.16 144.06
  Q 285.10 148.36 284.85 160.47
  L 284.88 164.23
  Q 264.40 171.22 242.09 181.85
  Q 188.09 207.57 156.50 223.15
  Q 143.75 229.45 124.53 235.27
  Q 119.80 222.80 117.63 209.53
  Q 163.62 188.83 208.84 166.91
  Q 232.12 155.63 246.26 147.99
  Q 259.87 140.64 271.74 128.87
  Z"
/>
<path fill="#0078ff" d="
  M 284.88 164.23
  Q 285.25 179.14 284.03 194.05
  Q 261.59 203.29 239.66 213.71
  Q 207.21 229.13 174.97 244.97
  Q 157.25 253.68 138.39 260.33
  Q 129.83 248.84 124.53 235.27
  Q 143.75 229.45 156.50 223.15
  Q 188.09 207.57 242.09 181.85
  Q 264.40 171.22 284.88 164.23
  Z"
/>
<path fill="#0067ff" d="
  M 284.03 194.05
  Q 282.69 218.83 273.39 240.12
  C 260.51 269.58 234.44 289.02 204.56 299.09
  C 201.04 300.28 198.13 299.93 194.37 298.66
  Q 174.28 291.87 157.38 279.25
  Q 146.78 270.84 138.39 260.33
  Q 157.25 253.68 174.97 244.97
  Q 207.21 229.13 239.66 213.71
  Q 261.59 203.29 284.03 194.05
  Z"
/>
</svg>
