<svg width="506" height="149" viewBox="0 0 506 149" fill="none" xmlns="http://www.w3.org/2000/svg">
<path d="M407.199 96.5301C407.206 106.88 403.973 117 397.908 125.608C391.844 134.217 383.221 140.929 373.13 144.894C363.04 148.86 351.934 149.901 341.219 147.886C330.503 145.871 320.659 140.89 312.932 133.574C305.205 126.258 299.941 116.935 297.807 106.784C295.674 96.6334 296.765 86.1113 300.944 76.5485C305.123 66.9858 312.202 58.812 321.285 53.0612C330.368 47.3104 341.047 44.2408 351.971 44.2408C366.612 44.2408 380.654 49.7488 391.01 59.554C401.366 69.3591 407.189 82.659 407.199 96.5301V96.5301ZM351.971 70.363C337.176 70.363 325.182 82.0803 325.182 96.5301C325.182 110.98 337.176 122.703 351.971 122.703C366.766 122.703 378.754 110.986 378.754 96.5301C378.754 82.0747 366.766 70.363 351.971 70.363Z" fill="#262F4D"/>
<path d="M23.3961 49.6613L26.7907 59.6132C26.7907 59.6132 35.0992 44.3256 57.6982 44.2412C77.2824 44.1682 97.4601 54.1368 97.6144 85.9883L97.8458 141.595C97.8506 142.875 97.3188 144.104 96.3674 145.013C95.416 145.922 94.1227 146.436 92.7717 146.441L74.6296 146.509C73.2786 146.513 71.981 146.01 71.0218 145.108C70.0626 144.207 69.5203 142.982 69.514 141.702L69.2944 87.4446C69.241 75.671 61.069 69.5256 50.4698 69.5594C36.6125 69.6156 29.1052 79.8767 29.1586 91.2679L29.3723 141.87C29.3754 142.504 29.2465 143.132 28.9931 143.719C28.7396 144.305 28.3665 144.838 27.8952 145.288C27.4239 145.738 26.8636 146.095 26.2463 146.339C25.6291 146.583 24.9671 146.71 24.2982 146.711L5.95427 146.779C5.28559 146.782 4.62284 146.66 4.00387 146.42C3.3849 146.181 2.82182 145.828 2.34679 145.382C1.87175 144.936 1.49407 144.406 1.2353 143.822C0.976532 143.237 0.841744 142.611 0.838634 141.977L0.464753 51.1963C0.46002 49.9163 0.991766 48.6869 1.94318 47.7782C2.89459 46.8694 4.18785 46.3556 5.53885 46.3497L18.5297 46.2878C19.6146 46.2849 20.672 46.6107 21.5475 47.2176C22.423 47.8246 23.0708 48.6808 23.3961 49.6613Z" fill="#262F4D"/>
<path d="M157.136 49.0256L157.509 139.778C157.512 140.412 157.382 141.04 157.129 141.626C156.875 142.212 156.502 142.745 156.031 143.195C155.559 143.644 154.999 144.001 154.383 144.246C153.766 144.49 153.104 144.617 152.435 144.619L135.106 144.687C133.756 144.69 132.46 144.185 131.502 143.284C130.544 142.383 130.003 141.159 129.997 139.88L129.712 70.6723C129.701 69.6848 129.371 68.7242 128.766 67.92C128.161 67.1157 127.311 66.5065 126.329 66.1743L120.614 64.2458C119.633 63.9127 118.784 63.303 118.18 62.4988C117.577 61.6946 117.248 60.7346 117.237 59.7478L117.19 49.1943C117.185 47.9144 117.717 46.685 118.668 45.7762C119.619 44.8675 120.913 44.3537 122.264 44.3477L152.02 44.2409C153.367 44.2349 154.662 44.7351 155.621 45.632C156.58 46.5288 157.125 47.7491 157.136 49.0256V49.0256Z" fill="#262F4D"/>
<path d="M156.796 15.8006C156.832 23.9083 149.52 30.6947 140.963 30.7228C132.215 30.7565 125.651 24.0432 125.616 15.9187C125.586 8.00223 132.079 1.0247 140.838 0.990967C149.598 0.957232 156.767 7.88416 156.796 15.8006Z" fill="#4970FF"/>
<path d="M207.741 49.6613L211.141 59.6132C211.141 59.6132 219.45 44.3312 242.055 44.2412C261.639 44.1682 281.817 54.1368 281.971 85.994L282.197 141.601C282.2 142.234 282.071 142.861 281.818 143.447C281.565 144.034 281.192 144.567 280.722 145.016C280.251 145.466 279.691 145.823 279.075 146.068C278.458 146.312 277.797 146.439 277.128 146.442L258.974 146.492C257.623 146.497 256.326 145.993 255.367 145.091C254.407 144.19 253.865 142.965 253.859 141.685L253.639 87.4558C253.586 75.6486 245.414 69.5313 234.815 69.5706C220.957 69.6212 213.45 79.8823 213.503 91.2735L213.717 141.876C213.719 142.51 213.59 143.137 213.336 143.723C213.082 144.31 212.709 144.843 212.238 145.292C211.767 145.742 211.207 146.099 210.59 146.343C209.973 146.588 209.312 146.715 208.643 146.717L190.299 146.79C188.948 146.795 187.65 146.291 186.691 145.389C185.732 144.488 185.19 143.263 185.183 141.983L184.809 51.2356C184.805 49.9557 185.336 48.7263 186.288 47.8175C187.239 46.9088 188.533 46.395 189.884 46.389L202.874 46.3441C203.952 46.3373 205.004 46.655 205.878 47.2512C206.753 47.8474 207.405 48.6913 207.741 49.6613V49.6613Z" fill="#262F4D"/>
<path d="M432.501 44.4883C433.385 44.4827 434.256 44.6967 435.027 45.109C435.797 45.5214 436.44 46.1176 436.892 46.8385L455.919 77.0313H456.322L475.099 46.7035C475.547 45.9804 476.186 45.3802 476.953 44.9622C477.72 44.5441 478.588 44.3227 479.473 44.3196L499.864 44.2409C500.786 44.2377 501.691 44.4714 502.483 44.9172C503.276 45.363 503.925 46.0041 504.363 46.7721C504.801 47.5402 505.011 48.4065 504.97 49.2786C504.929 50.1508 504.639 50.9961 504.131 51.7244L474.126 94.731L504.6 137.097C505.12 137.821 505.422 138.665 505.474 139.54C505.527 140.414 505.327 141.286 504.896 142.061C504.466 142.836 503.821 143.486 503.031 143.94C502.241 144.395 501.335 144.638 500.41 144.642L480.061 144.715C479.184 144.718 478.322 144.507 477.557 144.102C476.792 143.697 476.15 143.113 475.693 142.404L456.471 112.56H456.067L437.076 142.545C436.625 143.257 435.988 143.847 435.226 144.258C434.464 144.668 433.603 144.886 432.726 144.889L412.436 144.968C411.509 144.97 410.599 144.733 409.804 144.283C409.009 143.832 408.359 143.184 407.923 142.409C407.487 141.635 407.283 140.762 407.331 139.885C407.38 139.009 407.679 138.161 408.198 137.434L438.649 94.8603L407.789 52.1292C407.269 51.4073 406.966 50.5652 406.911 49.6928C406.857 48.8204 407.053 47.9503 407.48 47.1753C407.906 46.4003 408.546 45.7495 409.332 45.2921C410.118 44.8348 411.021 44.588 411.943 44.5782L432.501 44.4883Z" fill="#262F4D"/>
</svg>
