<svg width="255" height="255" viewBox="0 0 255 255" fill="none" xmlns="http://www.w3.org/2000/svg">
<g clip-path="url(#clip0_1_2)">
<mask id="mask0_1_2" style="mask-type:alpha" maskUnits="userSpaceOnUse" x="0" y="0" width="255" height="255">
<rect width="255" height="255" rx="67" fill="#FFEF64"/>
</mask>
<g mask="url(#mask0_1_2)">
<rect width="255" height="255" rx="67" fill="#FFEF64"/>
<g clip-path="url(#clip1_1_2)">
<path d="M195.198 38.9508L29.6388 74.1414C26.5025 74.8081 23.7594 76.6933 22.013 79.3825C20.2667 82.0716 19.6601 85.3443 20.3268 88.4807L45.463 206.737C46.1296 209.873 48.0149 212.617 50.704 214.363C53.3932 216.109 56.6659 216.716 59.8022 216.049L225.361 180.858C228.498 180.192 231.241 178.307 232.987 175.617C234.733 172.928 235.34 169.656 234.673 166.519L209.537 48.2628C208.87 45.1264 206.985 42.3834 204.296 40.637C201.607 38.8907 198.334 38.2841 195.198 38.9508ZM213.742 170.968L67.1039 202.137L99.3944 150.531L89.1329 144.122L55.8307 197.365L34.0628 94.9546L123.106 152.474C125.79 154.206 129.05 154.805 132.174 154.141C135.298 153.477 138.033 151.603 139.78 148.93L199.232 57.9309L221.226 161.405L168.458 127.137L161.893 137.246L213.742 170.968ZM39.8982 84.3207L188.133 52.8124L129.658 142.306L39.8982 84.3207Z" fill="black"/>
</g>
<path d="M173 213C173 190.909 190.909 173 213 173L254 173L254 187C254 224.003 224.003 254 187 254L173 254L173 213Z" fill="#FBFAFA"/>
<g clip-path="url(#clip2_1_2)">
<path fill-rule="evenodd" clip-rule="evenodd" d="M239.164 168.404C240.189 167.749 241.413 167.541 242.579 167.824C243.745 168.107 244.762 168.86 245.417 169.923L249.996 177.347C250.593 178.317 250.848 179.48 250.717 180.631C250.586 181.781 250.077 182.846 249.279 183.636L249.265 183.655L249.201 183.719L248.937 183.98L247.896 185.037C242.138 190.974 236.555 197.1 231.154 203.406C220.993 215.284 208.926 230.831 200.805 245.915C198.538 250.124 193.002 251.029 189.718 247.395L159.725 214.267C159.296 213.792 158.96 213.23 158.738 212.614C158.517 211.999 158.414 211.342 158.436 210.683C158.458 210.025 158.605 209.377 158.867 208.78C159.129 208.183 159.501 207.648 159.961 207.206L169.026 198.514C169.823 197.75 170.844 197.305 171.916 197.254C172.987 197.202 174.042 197.549 174.9 198.233L190.204 210.432C214.111 185.371 227.667 175.754 239.164 168.404Z" fill="#000000"/>
</g>
<g clip-path="url(#clip3_1_2)">
<path fill-rule="evenodd" clip-rule="evenodd" d="M236.417 175.924C237.331 175.374 238.422 175.199 239.462 175.437C240.502 175.675 241.409 176.306 241.994 177.198L246.078 183.427C246.61 184.241 246.838 185.216 246.721 186.182C246.604 187.147 246.15 188.04 245.438 188.703L245.426 188.719L245.368 188.773L245.133 188.992L244.205 189.879C239.069 194.86 234.089 199.999 229.272 205.289C220.21 215.256 209.448 228.299 202.204 240.954C200.183 244.485 195.245 245.244 192.317 242.196L165.566 214.402C165.183 214.003 164.883 213.532 164.686 213.015C164.488 212.499 164.396 211.948 164.416 211.395C164.436 210.843 164.566 210.3 164.8 209.799C165.034 209.297 165.366 208.848 165.776 208.478L173.861 201.185C174.572 200.545 175.483 200.171 176.438 200.128C177.394 200.085 178.335 200.376 179.1 200.95L192.75 211.184C214.072 190.159 226.162 182.091 236.417 175.924Z" fill="#FF2424"/>
</g>
</g>
</g>
<defs>
<clipPath id="clip0_1_2">
<rect width="255" height="255" fill="#000000"/>
</clipPath>
<clipPath id="clip1_1_2">
<rect width="217.617" height="217.617" fill="#000000" transform="translate(-1.55331 43.6917) rotate(-12)"/>
</clipPath>
<clipPath id="clip2_1_2">
<rect width="111" height="118" fill="#000000" transform="translate(149 153)"/>
</clipPath>
<clipPath id="clip3_1_2">
<rect width="99" height="99" fill="#000000" transform="translate(156 163)"/>
</clipPath>
</defs>
</svg>
