<?xml version="1.0" encoding="UTF-8" standalone="no"?>
<!DOCTYPE svg PUBLIC "-//W3C//DTD SVG 1.1//EN" "http://www.w3.org/Graphics/SVG/1.1/DTD/svg11.dtd">
<svg xmlns="http://www.w3.org/2000/svg" version="1.1" viewBox="0.00 0.00 400.00 400.00">
<g stroke-width="2.00" fill="none" stroke-linecap="butt">
<path stroke="#80a9e6" vector-effect="non-scaling-stroke" d="
  M 232.68 221.76
  Q 308.44 221.74 312.47 221.71
  Q 317.71 221.68 319.89 221.00
  C 327.54 218.65 332.71 211.31 332.77 203.59
  Q 332.79 199.89 329.37 191.79
  Q 313.57 154.41 284.00 83.78
  A 0.71 0.70 -11.2 0 0 283.36 83.36
  Q 275.84 83.37 232.00 83.39
  Q 156.24 83.40 152.21 83.43
  Q 146.97 83.46 144.79 84.14
  C 137.14 86.49 131.97 93.83 131.91 101.55
  Q 131.89 105.25 135.31 113.35
  Q 151.11 150.73 180.68 221.36
  A 0.71 0.70 -11.2 0 0 181.32 221.78
  Q 188.84 221.77 232.68 221.76"
/>
<path stroke="#80a9e6" vector-effect="non-scaling-stroke" d="
  M 312.37 240.21
  L 168.17 240.21
  A 0.89 0.89 0.0 0 1 167.35 239.67
  L 115.78 116.27
  A 0.40 0.40 0.0 0 0 115.09 116.19
  Q 112.77 119.23 104.70 129.91
  Q 99.69 136.52 99.74 145.99
  Q 99.76 150.59 103.92 159.81
  Q 104.31 160.66 149.11 267.48
  A 0.52 0.51 -10.9 0 0 149.59 267.80
  Q 269.35 267.77 271.01 267.81
  Q 282.24 268.10 286.84 266.46
  Q 295.10 263.53 299.79 257.49
  Q 308.33 246.50 312.63 240.73
  A 0.33 0.32 -71.8 0 0 312.37 240.21"
/>
<path stroke="#80a9e6" vector-effect="non-scaling-stroke" d="
  M 277.34 286.07
  L 136.39 286.07
  A 0.87 0.86 78.9 0 1 135.59 285.53
  L 82.81 159.25
  A 0.36 0.36 0.0 0 0 82.19 159.17
  Q 77.95 164.80 75.09 168.43
  C 68.76 176.47 65.94 184.35 67.84 194.07
  Q 68.31 196.48 73.52 208.88
  Q 83.25 232.02 110.50 297.38
  C 113.77 305.22 116.20 309.06 123.26 312.29
  Q 126.32 313.70 134.47 313.66
  Q 170.09 313.50 238.84 313.65
  Q 247.86 313.67 251.98 312.19
  Q 259.81 309.37 264.83 303.06
  Q 266.71 300.69 277.52 286.44
  A 0.23 0.23 0.0 0 0 277.34 286.07"
/>
</g>
<path fill="#0052cc" d="
  M 400.00 0.00
  L 400.00 400.00
  L 0.00 400.00
  L 0.00 0.00
  L 400.00 0.00
  Z
  M 232.68 221.76
  Q 308.44 221.74 312.47 221.71
  Q 317.71 221.68 319.89 221.00
  C 327.54 218.65 332.71 211.31 332.77 203.59
  Q 332.79 199.89 329.37 191.79
  Q 313.57 154.41 284.00 83.78
  A 0.71 0.70 -11.2 0 0 283.36 83.36
  Q 275.84 83.37 232.00 83.39
  Q 156.24 83.40 152.21 83.43
  Q 146.97 83.46 144.79 84.14
  C 137.14 86.49 131.97 93.83 131.91 101.55
  Q 131.89 105.25 135.31 113.35
  Q 151.11 150.73 180.68 221.36
  A 0.71 0.70 -11.2 0 0 181.32 221.78
  Q 188.84 221.77 232.68 221.76
  Z
  M 312.37 240.21
  L 168.17 240.21
  A 0.89 0.89 0.0 0 1 167.35 239.67
  L 115.78 116.27
  A 0.40 0.40 0.0 0 0 115.09 116.19
  Q 112.77 119.23 104.70 129.91
  Q 99.69 136.52 99.74 145.99
  Q 99.76 150.59 103.92 159.81
  Q 104.31 160.66 149.11 267.48
  A 0.52 0.51 -10.9 0 0 149.59 267.80
  Q 269.35 267.77 271.01 267.81
  Q 282.24 268.10 286.84 266.46
  Q 295.10 263.53 299.79 257.49
  Q 308.33 246.50 312.63 240.73
  A 0.33 0.32 -71.8 0 0 312.37 240.21
  Z
  M 277.34 286.07
  L 136.39 286.07
  A 0.87 0.86 78.9 0 1 135.59 285.53
  L 82.81 159.25
  A 0.36 0.36 0.0 0 0 82.19 159.17
  Q 77.95 164.80 75.09 168.43
  C 68.76 176.47 65.94 184.35 67.84 194.07
  Q 68.31 196.48 73.52 208.88
  Q 83.25 232.02 110.50 297.38
  C 113.77 305.22 116.20 309.06 123.26 312.29
  Q 126.32 313.70 134.47 313.66
  Q 170.09 313.50 238.84 313.65
  Q 247.86 313.67 251.98 312.19
  Q 259.81 309.37 264.83 303.06
  Q 266.71 300.69 277.52 286.44
  A 0.23 0.23 0.0 0 0 277.34 286.07
  Z"
/>
<path fill="#ffffff" d="
  M 232.00 83.39
  Q 275.84 83.37 283.36 83.36
  A 0.71 0.70 -11.2 0 1 284.00 83.78
  Q 313.57 154.41 329.37 191.79
  Q 332.79 199.89 332.77 203.59
  C 332.71 211.31 327.54 218.65 319.89 221.00
  Q 317.71 221.68 312.47 221.71
  Q 308.44 221.74 232.68 221.76
  Q 188.84 221.77 181.32 221.78
  A 0.71 0.70 -11.2 0 1 180.68 221.36
  Q 151.11 150.73 135.31 113.35
  Q 131.89 105.25 131.91 101.55
  C 131.97 93.83 137.14 86.49 144.79 84.14
  Q 146.97 83.46 152.21 83.43
  Q 156.24 83.40 232.00 83.39
  Z"
/>
<path fill="#ffffff" d="
  M 312.37 240.21
  A 0.33 0.32 -71.8 0 1 312.63 240.73
  Q 308.33 246.50 299.79 257.49
  Q 295.10 263.53 286.84 266.46
  Q 282.24 268.10 271.01 267.81
  Q 269.35 267.77 149.59 267.80
  A 0.52 0.51 -10.9 0 1 149.11 267.48
  Q 104.31 160.66 103.92 159.81
  Q 99.76 150.59 99.74 145.99
  Q 99.69 136.52 104.70 129.91
  Q 112.77 119.23 115.09 116.19
  A 0.40 0.40 0.0 0 1 115.78 116.27
  L 167.35 239.67
  A 0.89 0.89 0.0 0 0 168.17 240.21
  L 312.37 240.21
  Z"
/>
<path fill="#ffffff" d="
  M 277.34 286.07
  A 0.23 0.23 0.0 0 1 277.52 286.44
  Q 266.71 300.69 264.83 303.06
  Q 259.81 309.37 251.98 312.19
  Q 247.86 313.67 238.84 313.65
  Q 170.09 313.50 134.47 313.66
  Q 126.32 313.70 123.26 312.29
  C 116.20 309.06 113.77 305.22 110.50 297.38
  Q 83.25 232.02 73.52 208.88
  Q 68.31 196.48 67.84 194.07
  C 65.94 184.35 68.76 176.47 75.09 168.43
  Q 77.95 164.80 82.19 159.17
  A 0.36 0.36 0.0 0 1 82.81 159.25
  L 135.59 285.53
  A 0.87 0.86 78.9 0 0 136.39 286.07
  L 277.34 286.07
  Z"
/>
</svg>
