<svg class="flex-shrink-0 h-6 w-6 text-white ml-1 group-hover:text-gray-300" xmlns="http://www.w3.org/2000/svg" fill="none" viewBox="0 0 24 24" style="fill: none !important;"> <path fill="currentColor" d="M15 7a1 1 0 1 1 0 2 1 1 0 0 1 0-2Zm2 2a1 1 0 1 1 0 2 1 1 0 0 1 0-2Zm3 3a1 1 0 1 0-2 0 1 1 0 0 0 2 0Zm-3 1a1 1 0 1 1 0 2 1 1 0 0 1 0-2Zm-1 3a1 1 0 1 0-2 0 1 1 0 0 0 2 0Zm-1-5a1 1 0 1 1 0 2 1 1 0 0 1 0-2Zm-2 1a1 1 0 1 0-2 0 1 1 0 0 0 2 0Zm-4-1a1 1 0 1 1 0 2 1 1 0 0 1 0-2Zm-2 1a1 1 0 1 0-2 0 1 1 0 0 0 2 0Z" style="fill: #000000 !important;"/> </svg>