<?xml version="1.0" encoding="UTF-8" standalone="no"?>
<!DOCTYPE svg PUBLIC "-//W3C//DTD SVG 1.1//EN" "http://www.w3.org/Graphics/SVG/1.1/DTD/svg11.dtd">
<svg xmlns="http://www.w3.org/2000/svg" version="1.1" viewBox="0.00 0.00 400.00 400.00">
<path stroke="#ffac80" stroke-width="2.00" fill="none" stroke-linecap="butt" vector-effect="non-scaling-stroke" d="
  M 186.25 49.24
  C 180.90 49.85 176.00 52.21 177.12 58.58
  Q 178.07 64.02 181.94 84.04
  C 183.64 92.85 185.62 99.76 176.33 102.75
  A 5.64 5.51 -53.8 0 1 174.82 103.00
  Q 154.55 103.54 134.63 107.37
  C 105.80 112.91 68.21 127.77 68.04 163.24
  Q 67.98 173.77 67.97 175.19
  C 67.91 180.72 69.93 184.16 75.74 184.17
  Q 130.52 184.25 186.13 184.14
  C 190.63 184.13 194.14 184.52 194.94 189.30
  Q 196.09 196.12 189.14 197.44
  Q 159.78 203.02 110.79 212.56
  C 107.68 213.17 102.31 213.86 101.06 216.56
  Q 100.04 218.77 100.07 222.28
  Q 100.19 235.05 100.08 242.95
  Q 99.91 255.34 101.11 263.52
  Q 105.30 292.04 122.47 313.51
  C 169.66 372.55 261.54 359.61 291.92 290.68
  Q 297.52 277.98 299.51 262.42
  Q 300.16 257.32 300.16 232.93
  Q 300.15 192.06 300.15 192.03
  C 300.50 184.86 303.62 184.11 310.19 184.16
  Q 322.36 184.26 324.50 184.22
  C 331.77 184.07 331.94 178.85 332.08 173.25
  C 332.23 167.02 332.40 157.88 330.57 151.59
  C 325.31 133.42 308.95 122.01 291.83 115.61
  Q 272.33 108.32 250.43 105.60
  Q 232.99 103.43 227.13 103.33
  Q 223.10 103.27 221.09 101.97
  C 215.77 98.54 216.01 94.45 217.31 87.83
  Q 222.18 63.14 222.93 58.23
  C 223.94 51.68 218.29 49.71 213.09 49.16
  Q 199.49 47.72 186.25 49.24"
/>
<path fill="#fe5900" d="
  M 400.00 0.00
  L 400.00 400.00
  L 0.00 400.00
  L 0.00 0.00
  L 400.00 0.00
  Z
  M 186.25 49.24
  C 180.90 49.85 176.00 52.21 177.12 58.58
  Q 178.07 64.02 181.94 84.04
  C 183.64 92.85 185.62 99.76 176.33 102.75
  A 5.64 5.51 -53.8 0 1 174.82 103.00
  Q 154.55 103.54 134.63 107.37
  C 105.80 112.91 68.21 127.77 68.04 163.24
  Q 67.98 173.77 67.97 175.19
  C 67.91 180.72 69.93 184.16 75.74 184.17
  Q 130.52 184.25 186.13 184.14
  C 190.63 184.13 194.14 184.52 194.94 189.30
  Q 196.09 196.12 189.14 197.44
  Q 159.78 203.02 110.79 212.56
  C 107.68 213.17 102.31 213.86 101.06 216.56
  Q 100.04 218.77 100.07 222.28
  Q 100.19 235.05 100.08 242.95
  Q 99.91 255.34 101.11 263.52
  Q 105.30 292.04 122.47 313.51
  C 169.66 372.55 261.54 359.61 291.92 290.68
  Q 297.52 277.98 299.51 262.42
  Q 300.16 257.32 300.16 232.93
  Q 300.15 192.06 300.15 192.03
  C 300.50 184.86 303.62 184.11 310.19 184.16
  Q 322.36 184.26 324.50 184.22
  C 331.77 184.07 331.94 178.85 332.08 173.25
  C 332.23 167.02 332.40 157.88 330.57 151.59
  C 325.31 133.42 308.95 122.01 291.83 115.61
  Q 272.33 108.32 250.43 105.60
  Q 232.99 103.43 227.13 103.33
  Q 223.10 103.27 221.09 101.97
  C 215.77 98.54 216.01 94.45 217.31 87.83
  Q 222.18 63.14 222.93 58.23
  C 223.94 51.68 218.29 49.71 213.09 49.16
  Q 199.49 47.72 186.25 49.24
  Z"
/>
<path fill="#ffffff" d="
  M 177.12 58.58
  C 176.00 52.21 180.90 49.85 186.25 49.24
  Q 199.49 47.72 213.09 49.16
  C 218.29 49.71 223.94 51.68 222.93 58.23
  Q 222.18 63.14 217.31 87.83
  C 216.01 94.45 215.77 98.54 221.09 101.97
  Q 223.10 103.27 227.13 103.33
  Q 232.99 103.43 250.43 105.60
  Q 272.33 108.32 291.83 115.61
  C 308.95 122.01 325.31 133.42 330.57 151.59
  C 332.40 157.88 332.23 167.02 332.08 173.25
  C 331.94 178.85 331.77 184.07 324.50 184.22
  Q 322.36 184.26 310.19 184.16
  C 303.62 184.11 300.50 184.86 300.15 192.03
  Q 300.15 192.06 300.16 232.93
  Q 300.16 257.32 299.51 262.42
  Q 297.52 277.98 291.92 290.68
  C 261.54 359.61 169.66 372.55 122.47 313.51
  Q 105.30 292.04 101.11 263.52
  Q 99.91 255.34 100.08 242.95
  Q 100.19 235.05 100.07 222.28
  Q 100.04 218.77 101.06 216.56
  C 102.31 213.86 107.68 213.17 110.79 212.56
  Q 159.78 203.02 189.14 197.44
  Q 196.09 196.12 194.94 189.30
  C 194.14 184.52 190.63 184.13 186.13 184.14
  Q 130.52 184.25 75.74 184.17
  C 69.93 184.16 67.91 180.72 67.97 175.19
  Q 67.98 173.77 68.04 163.24
  C 68.21 127.77 105.80 112.91 134.63 107.37
  Q 154.55 103.54 174.82 103.00
  A 5.64 5.51 -53.8 0 0 176.33 102.75
  C 185.62 99.76 183.64 92.85 181.94 84.04
  Q 178.07 64.02 177.12 58.58
  Z"
/>
</svg>
