<?xml version="1.0" encoding="UTF-8" standalone="no"?>
<!DOCTYPE svg PUBLIC "-//W3C//DTD SVG 1.1//EN" "http://www.w3.org/Graphics/SVG/1.1/DTD/svg11.dtd">
<svg xmlns="http://www.w3.org/2000/svg" version="1.1" viewBox="0.00 0.00 16.00 16.00">
<g stroke-width="2.00" fill="none" stroke-linecap="butt">
<path stroke="#8295b4" vector-effect="non-scaling-stroke" d="
  M 10.1765 4.2745
  A 5.34 4.80 -67.0 0 0 3.6716 7.3145
  A 5.34 4.80 -67.0 0 0 6.0035 14.1055
  A 5.34 4.80 -67.0 0 0 12.5084 11.0655
  A 5.34 4.80 -67.0 0 0 10.1765 4.2745"
/>
<path stroke="#45537d" vector-effect="non-scaling-stroke" d="
  M 8.00 5.47
  Q 5.71 6.63 5.70 9.53"
/>
<path stroke="#8295b4" vector-effect="non-scaling-stroke" d="
  M 5.70 9.53
  Q 5.57 10.99 6.17 12.07
  A 1.78 1.70 -31.9 0 0 8.70 12.60
  Q 10.97 11.04 10.37 8.34
  A 0.44 0.44 0.0 0 0 9.73 8.05
  L 9.00 8.44
  A 0.34 0.34 0.0 0 0 8.85 8.87
  Q 8.90 8.96 9.04 9.04
  Q 9.33 9.20 9.23 9.54
  Q 8.84 10.88 8.22 11.05
  A 0.85 0.81 -88.2 0 1 7.25 9.96
  Q 7.83 8.11 7.32 7.77"
/>
<path stroke="#45537d" vector-effect="non-scaling-stroke" d="
  M 7.32 7.77
  Q 7.27 6.18 8.47 6.33"
/>
<path stroke="#8295b4" vector-effect="non-scaling-stroke" d="
  M 8.47 6.33
  Q 9.08 7.24 9.72 7.52
  A 0.58 0.57 83.5 0 0 10.41 6.65
  Q 9.07 4.84 8.00 5.47"
/>
<path stroke="#c2bdc8" vector-effect="non-scaling-stroke" d="
  M 8.47 6.33
  Q 7.97 5.96 8.00 5.47"
/>
<path stroke="#c2bdc8" vector-effect="non-scaling-stroke" d="
  M 7.32 7.77
  Q 6.31 7.77 6.25 8.28
  Q 6.12 9.31 5.70 9.53"
/>
</g>
<path fill="#ffffff" d="
  M 16.00 0.00
  L 16.00 16.00
  L 0.00 16.00
  L 0.00 0.00
  L 16.00 0.00
  Z
  M 10.1765 4.2745
  A 5.34 4.80 -67.0 0 0 3.6716 7.3145
  A 5.34 4.80 -67.0 0 0 6.0035 14.1055
  A 5.34 4.80 -67.0 0 0 12.5084 11.0655
  A 5.34 4.80 -67.0 0 0 10.1765 4.2745
  Z"
/>
<path fill="#042b69" d="
  M 10.1765 4.2745
  A 5.34 4.80 -67.0 0 1 12.5084 11.0655
  A 5.34 4.80 -67.0 0 1 6.0035 14.1055
  A 5.34 4.80 -67.0 0 1 3.6716 7.3145
  A 5.34 4.80 -67.0 0 1 10.1765 4.2745
  Z
  M 8.00 5.47
  Q 5.71 6.63 5.70 9.53
  Q 5.57 10.99 6.17 12.07
  A 1.78 1.70 -31.9 0 0 8.70 12.60
  Q 10.97 11.04 10.37 8.34
  A 0.44 0.44 0.0 0 0 9.73 8.05
  L 9.00 8.44
  A 0.34 0.34 0.0 0 0 8.85 8.87
  Q 8.90 8.96 9.04 9.04
  Q 9.33 9.20 9.23 9.54
  Q 8.84 10.88 8.22 11.05
  A 0.85 0.81 -88.2 0 1 7.25 9.96
  Q 7.83 8.11 7.32 7.77
  Q 7.27 6.18 8.47 6.33
  Q 9.08 7.24 9.72 7.52
  A 0.58 0.57 83.5 0 0 10.41 6.65
  Q 9.07 4.84 8.00 5.47
  Z"
/>
<path fill="#ffffff" d="
  M 8.47 6.33
  Q 7.97 5.96 8.00 5.47
  Q 9.07 4.84 10.41 6.65
  A 0.58 0.57 83.5 0 1 9.72 7.52
  Q 9.08 7.24 8.47 6.33
  Z"
/>
<path fill="#857a91" d="
  M 8.00 5.47
  Q 7.97 5.96 8.47 6.33
  Q 7.27 6.18 7.32 7.77
  Q 6.31 7.77 6.25 8.28
  Q 6.12 9.31 5.70 9.53
  Q 5.71 6.63 8.00 5.47
  Z"
/>
<path fill="#ffffff" d="
  M 7.32 7.77
  Q 7.83 8.11 7.25 9.96
  A 0.85 0.81 -88.2 0 0 8.22 11.05
  Q 8.84 10.88 9.23 9.54
  Q 9.33 9.20 9.04 9.04
  Q 8.90 8.96 8.85 8.87
  A 0.34 0.34 0.0 0 1 9.00 8.44
  L 9.73 8.05
  A 0.44 0.44 0.0 0 1 10.37 8.34
  Q 10.97 11.04 8.70 12.60
  A 1.78 1.70 -31.9 0 1 6.17 12.07
  Q 5.57 10.99 5.70 9.53
  Q 6.12 9.31 6.25 8.28
  Q 6.31 7.77 7.32 7.77
  Z"
/>
</svg>
