<?xml version="1.0" encoding="UTF-8" standalone="no"?>
<!DOCTYPE svg PUBLIC "-//W3C//DTD SVG 1.1//EN" "http://www.w3.org/Graphics/SVG/1.1/DTD/svg11.dtd">
<svg xmlns="http://www.w3.org/2000/svg" version="1.1" viewBox="0.00 0.00 232.00 38.00">
<path fill="#053664" d="
  M 34.72 0.00
  C 35.50 0.38 36.07 0.90 36.07 1.86
  Q 36.08 12.95 36.08 24.56
  A 1.24 1.21 -22.8 0 1 35.73 25.39
  L 26.28 34.84
  A 0.28 0.27 67.7 0 1 25.81 34.64
  L 25.81 11.63
  A 1.35 1.34 -0.0 0 0 24.46 10.29
  L 0.60 10.29
  A 0.27 0.26 -66.8 0 1 0.42 9.83
  L 10.45 0.00
  L 34.72 0.00
  Z"
/>
<path fill="#053664" d="
  M 68.50 16.52
  A 12.81 12.81 0.0 0 1 55.69 29.33
  A 12.81 12.81 0.0 0 1 42.88 16.52
  A 12.81 12.81 0.0 0 1 55.69 3.71
  A 12.81 12.81 0.0 0 1 68.50 16.52
  Z
  M 55.7253 7.7600
  A 8.75 8.45 -89.9 0 0 47.2600 16.4953
  A 8.75 8.45 -89.9 0 0 55.6947 25.2600
  A 8.75 8.45 -89.9 0 0 64.1600 16.5247
  A 8.75 8.45 -89.9 0 0 55.7253 7.7600
  Z"
/>
<path fill="#053664" d="
  M 77.08 16.51
  C 77.09 25.93 89.83 28.81 92.95 19.52
  A 0.38 0.37 9.1 0 1 93.30 19.27
  L 97.35 19.27
  A 0.18 0.17 7.6 0 1 97.52 19.49
  Q 95.24 27.84 87.80 29.06
  C 79.76 30.39 72.66 24.83 72.66 16.51
  C 72.65 8.19 79.74 2.63 87.79 3.94
  Q 95.23 5.16 97.52 13.51
  A 0.18 0.17 -7.6 0 1 97.35 13.73
  L 93.30 13.73
  A 0.38 0.37 -9.1 0 1 92.94 13.48
  C 89.82 4.19 77.08 7.08 77.08 16.51
  Z"
/>
<path fill="#053664" d="
  M 126.75 21.58
  A 0.49 0.49 0.0 0 1 127.23 21.01
  L 127.80 21.01
  A 0.59 0.59 0.0 0 1 128.37 21.46
  C 130.77 31.98 147.25 27.97 143.59 20.40
  C 142.13 17.37 137.34 17.10 133.26 16.27
  C 127.20 15.03 125.51 7.38 131.35 4.76
  C 136.41 2.49 144.11 3.60 145.55 9.94
  A 0.62 0.61 -6.4 0 1 144.95 10.69
  L 144.66 10.69
  A 0.69 0.69 0.0 0 1 144.02 10.25
  Q 142.83 7.19 141.28 6.38
  C 138.01 4.67 131.03 4.30 129.79 8.95
  C 128.21 14.83 136.25 15.35 140.79 16.21
  Q 143.61 16.75 145.36 19.98
  A 2.50 2.41 -62.4 0 1 145.65 20.97
  C 146.33 29.55 136.04 31.12 130.61 27.74
  Q 127.46 25.78 126.75 21.58
  Z"
/>
<path fill="#053664" d="
  M 116.77 20.62
  L 123.05 28.26
  A 0.35 0.34 -19.7 0 1 122.78 28.82
  L 119.13 28.82
  A 1.97 1.96 70.1 0 1 117.62 28.11
  L 111.93 21.19
  A 1.27 1.25 70.0 0 0 110.96 20.73
  L 107.20 20.73
  A 0.53 0.53 0.0 0 0 106.67 21.26
  L 106.67 28.40
  A 0.43 0.42 -90.0 0 1 106.25 28.83
  L 102.76 28.83
  A 0.44 0.43 90.0 0 1 102.33 28.39
  L 102.33 4.83
  A 0.57 0.56 -1.1 0 1 102.88 4.27
  C 110.02 4.04 119.03 2.71 121.57 9.92
  C 122.99 13.98 121.04 18.08 116.98 19.77
  A 0.55 0.55 0.0 0 0 116.77 20.62
  Z
  M 106.70 8.61
  L 106.64 16.21
  A 0.43 0.43 0.0 0 0 107.07 16.64
  L 112.47 16.68
  A 5.21 4.11 0.4 0 0 117.71 12.61
  L 117.71 12.37
  A 5.21 4.11 0.4 0 0 112.53 8.22
  L 107.13 8.18
  A 0.43 0.43 0.0 0 0 106.70 8.61
  Z"
/>
<path fill="#053664" d="
  M 152.77 38.00
  L 151.16 38.00
  Q 151.03 25.57 151.18 13.14
  Q 151.19 12.66 151.43 12.39
  A 0.75 0.70 67.4 0 1 152.67 12.95
  Q 152.66 13.60 152.68 13.71
  A 0.44 0.43 -21.1 0 0 153.36 14.01
  Q 155.82 12.29 156.30 12.21
  Q 164.67 10.68 167.36 17.64
  C 168.99 21.87 166.90 26.71 162.73 28.53
  Q 157.90 30.64 153.22 27.08
  A 0.27 0.27 0.0 0 0 152.78 27.29
  L 152.77 38.00
  Z
  M 166.25 20.54
  Q 166.23 16.56 162.98 14.56
  Q 157.77 11.35 153.28 16.05
  A 1.71 1.70 -21.9 0 0 152.82 17.13
  Q 152.72 19.12 152.73 20.61
  Q 152.73 22.11 152.86 24.09
  A 1.71 1.70 21.2 0 0 153.33 25.17
  Q 157.88 29.82 163.05 26.55
  Q 166.27 24.51 166.25 20.54
  Z"
/>
<path fill="#053664" d="
  M 189.13 20.57
  Q 189.15 24.53 189.10 28.21
  A 0.66 0.66 0.0 0 1 188.44 28.86
  L 188.16 28.86
  A 0.58 0.58 0.0 0 1 187.58 28.28
  L 187.58 27.33
  A 0.30 0.30 0.0 0 0 187.11 27.08
  Q 180.46 31.68 175.10 26.93
  Q 172.35 24.49 172.35 20.57
  Q 172.35 16.64 175.11 14.21
  Q 180.47 9.46 187.11 14.07
  A 0.30 0.30 0.0 0 0 187.58 13.82
  L 187.58 12.87
  A 0.58 0.58 0.0 0 1 188.16 12.29
  L 188.44 12.29
  A 0.66 0.66 0.0 0 1 189.10 12.94
  Q 189.16 16.61 189.13 20.57
  Z
  M 173.99 20.66
  Q 174.03 24.64 177.30 26.63
  Q 182.54 29.82 187.02 25.08
  A 1.72 1.71 -22.2 0 0 187.48 23.99
  Q 187.57 22.00 187.55 20.50
  Q 187.53 19.00 187.40 17.01
  A 1.72 1.71 20.9 0 0 186.92 15.94
  Q 182.33 11.30 177.16 14.61
  Q 173.94 16.67 173.99 20.66
  Z"
/>
<path fill="#053664" d="
  M 196.44 20.57
  C 196.45 28.20 206.28 30.75 209.47 23.64
  A 0.56 0.56 0.0 0 1 210.44 23.56
  L 210.49 23.64
  A 1.39 1.39 0.0 0 1 210.52 25.14
  C 206.01 32.57 194.88 29.46 194.87 20.57
  C 194.86 11.69 205.99 8.55 210.52 15.97
  A 1.39 1.39 0.0 0 1 210.48 17.47
  L 210.43 17.55
  A 0.56 0.56 0.0 0 1 209.46 17.48
  C 206.26 10.37 196.44 12.94 196.44 20.57
  Z"
/>
<path fill="#053664" d="
  M 232.00 19.25
  L 232.00 21.20
  L 217.68 21.23
  A 0.53 0.52 -4.2 0 0 217.16 21.83
  C 218.07 28.29 225.64 29.88 229.62 24.96
  A 0.73 0.73 0.0 0 1 230.89 25.62
  Q 230.63 26.57 229.39 27.45
  Q 224.88 30.65 219.96 28.28
  C 212.70 24.79 214.36 13.28 222.75 12.01
  Q 229.73 10.95 232.00 19.25
  Z
  M 217.39 19.88
  L 230.03 19.86
  A 0.18 0.18 0.0 0 0 230.21 19.68
  L 230.21 19.55
  A 6.42 6.21 -0.1 0 0 223.77 13.35
  L 223.61 13.35
  A 6.42 6.21 -0.1 0 0 217.21 19.57
  L 217.21 19.70
  A 0.18 0.18 0.0 0 0 217.39 19.88
  Z"
/>
<rect fill="#053664" x="-6.61" y="-6.61" transform="translate(12.94,23.59) rotate(0.2)" width="13.22" height="13.22" rx="1.63"/>
</svg>
