<svg width="93" height="93" viewBox="0 0 93 93" fill="none" xmlns="http://www.w3.org/2000/svg">
<path d="M62.7195 0.00213187C63.5947 -0.0299379 64.3242 0.300864 64.9453 0.923368C68.397 4.3847 71.8737 7.82143 75.3031 11.3047C79.3276 15.393 83.4167 19.4157 87.4416 23.5027C88.9713 25.0561 90.5181 26.5923 92.0495 28.144C92.4375 28.5372 92.7044 28.9962 92.8615 29.5265C93.2113 30.7069 92.8628 31.7274 92.0587 32.5722C91.0101 33.6736 89.9418 34.7587 88.8225 35.7906C88.7365 35.8701 88.6566 35.9558 88.5736 36.0384C84.3845 40.2321 80.2156 44.4464 75.9997 48.6128C71.8364 52.7274 67.7224 56.8912 63.571 61.0176C63.5087 61.0796 63.4441 61.1389 63.384 61.203C63.2945 61.2988 63.2155 61.2869 63.1272 61.1973C62.5733 60.6341 62.0163 60.0736 61.4624 59.5104C61.35 59.3962 61.2499 59.2696 61.1367 59.1563C57.6411 55.6559 54.1283 52.1726 50.6529 48.6524C46.509 44.4556 42.3076 40.3169 38.1711 36.1135C36.1288 34.0382 34.0592 31.9897 32.0147 29.917C31.6719 29.5695 31.6851 29.624 32.0283 29.2805C33.497 27.8097 34.9547 26.3283 36.4365 24.8715C40.8824 20.5013 45.2379 16.0396 49.678 11.6637C53.2632 8.13027 56.7979 4.54593 60.369 0.99849C60.8448 0.525791 61.3878 0.178296 62.0549 0.0372768C62.2753 -0.0084116 62.4925 0.0223402 62.7195 0.00213187ZM70.6737 29.9333C70.6882 25.7901 67.2707 22.3982 63.2049 22.2888C58.8565 22.1715 55.2788 25.7005 55.2889 29.9847C55.299 34.3506 58.8095 37.7095 63.0114 37.7003C67.2891 37.6902 70.7567 34.1353 70.6737 29.9333Z" fill="#7C98B4"/>
<path d="M0.00584772 62.5705C-0.0406786 61.6629 0.319242 60.931 0.950859 60.3006C3.61339 57.6436 6.25442 54.9651 8.931 52.3222C13.6275 47.6849 18.2525 42.9754 22.9486 38.3381C25.1037 36.2096 27.2334 34.0565 29.3872 31.9272C29.4395 31.8758 29.4939 31.8266 29.543 31.7726C29.6361 31.6702 29.7164 31.6961 29.7998 31.7871C29.8687 31.8626 29.9451 31.9316 30.0175 32.0041C33.5553 35.5454 37.1106 39.0686 40.6255 42.6323C44.5614 46.623 48.5613 50.5496 52.4884 54.5491C55.2875 57.3998 58.1313 60.2052 60.9404 63.0454C60.9918 63.0972 61.0409 63.1526 61.0958 63.2004C61.1941 63.2865 61.1959 63.3674 61.0993 63.4566C61.0243 63.526 60.9545 63.6015 60.882 63.674C56.879 67.681 52.8962 71.709 48.8673 75.6896C44.3389 80.1636 39.8723 84.6999 35.347 89.1765C34.3594 90.1531 33.3766 91.1345 32.3877 92.1102C32.0146 92.4788 31.5726 92.7186 31.0731 92.8662C29.8608 93.2243 28.8394 92.8425 27.9607 92.0184C27.3322 91.4284 26.755 90.7839 26.1457 90.1728C22.5373 86.5573 18.9061 82.9646 15.3218 79.3258C11.2859 75.2283 7.19197 71.1893 3.1512 67.0971C2.42171 66.3582 1.69923 65.6118 0.962271 64.8799C0.318364 64.239 -0.0516518 63.4965 0.00584772 62.5705ZM41.2356 70.6296C45.4256 70.6384 48.9371 67.2821 48.9511 62.9637C48.9647 58.7287 45.6798 55.2305 41.2699 55.2177C36.9021 55.2054 33.561 58.6505 33.5553 62.9289C33.5491 67.2654 37.0597 70.6191 41.2356 70.6296ZM10.9505 62.9347C10.8974 67.0993 14.2368 70.6925 18.6137 70.703C23.0237 70.7135 26.3218 67.1608 26.3398 63.0339C26.3582 58.8785 23.057 55.3368 18.7331 55.2893C14.3285 55.241 10.9615 58.8025 10.9505 62.9347Z" fill="#7C98B4"/>
</svg>
