<?xml version="1.0" encoding="UTF-8" standalone="no"?>
<!DOCTYPE svg PUBLIC "-//W3C//DTD SVG 1.1//EN" "http://www.w3.org/Graphics/SVG/1.1/DTD/svg11.dtd">
<svg xmlns="http://www.w3.org/2000/svg" version="1.1" viewBox="0.00 0.00 57.00 57.00">
<g stroke-width="2.00" fill="none" stroke-linecap="butt">
<path stroke="#296187" vector-effect="non-scaling-stroke" d="
  M 55.17 44.02
  Q 55.86 39.30 55.50 34.70
  C 54.95 27.67 55.40 20.36 54.79 14.13
  A 1.73 1.72 8.7 0 0 53.74 12.71
  Q 49.22 10.79 43.40 10.59
  C 35.62 10.33 28.92 11.07 20.28 10.48
  Q 12.20 9.93 2.40 10.48
  A 1.23 1.23 0.0 0 0 1.28 11.39
  Q 0.66 13.77 0.52 17.10
  Q -0.06 30.54 0.50 44.73
  A 1.35 1.35 0.0 0 0 1.85 46.03
  Q 29.91 46.18 43.69 46.08
  Q 49.28 46.03 53.58 45.55
  A 1.80 1.80 0.0 0 0 55.17 44.02"
/>
<path stroke="#93afbf" vector-effect="non-scaling-stroke" d="
  M 23.7173 24.8921
  A 9.34 9.34 0.0 0 0 14.3610 15.5685
  L 12.5810 15.5716
  A 9.34 9.34 0.0 0 0 3.2573 24.9279
  L 3.2627 27.9879
  A 9.34 9.34 0.0 0 0 12.6190 37.3115
  L 14.3990 37.3084
  A 9.34 9.34 0.0 0 0 23.7227 27.9521
  L 23.7173 24.8921"
/>
<path stroke="#93afbf" vector-effect="non-scaling-stroke" d="
  M 37.97 24.19
  A 0.34 0.34 0.0 0 1 38.01 23.77
  L 45.37 16.41
  A 0.34 0.34 0.0 0 0 45.13 15.83
  L 40.88 15.83
  A 0.34 0.34 0.0 0 0 40.64 15.93
  L 31.87 24.70
  A 0.34 0.34 0.0 0 1 31.29 24.46
  L 31.29 16.18
  A 0.34 0.34 0.0 0 0 30.95 15.84
  L 27.58 15.84
  A 0.34 0.34 0.0 0 0 27.24 16.18
  L 27.24 36.72
  A 0.34 0.34 0.0 0 0 27.58 37.06
  L 30.95 37.06
  A 0.34 0.34 0.0 0 0 31.29 36.72
  L 31.29 30.80
  A 0.34 0.34 0.0 0 1 31.39 30.56
  L 34.74 27.20
  A 0.34 0.34 0.0 0 1 35.27 27.25
  L 41.50 36.89
  A 0.34 0.34 0.0 0 0 41.79 37.05
  L 45.66 37.05
  A 0.34 0.34 0.0 0 0 45.94 36.53
  L 37.97 24.19"
/>
<path stroke="#93afbf" vector-effect="non-scaling-stroke" d="
  M 52.75 15.82
  L 49.55 15.82
  A 0.38 0.38 0.0 0 0 49.17 16.20
  L 49.17 16.36
  A 15.24 1.43 -90.0 0 0 50.60 31.60
  L 51.70 31.60
  A 15.24 1.43 90.0 0 0 53.13 16.36
  L 53.13 16.20
  A 0.38 0.38 0.0 0 0 52.75 15.82"
/>
<path stroke="#93afbf" vector-effect="non-scaling-stroke" d="
  M 53.1527 33.5335
  A 0.45 0.45 0.0 0 0 52.7035 33.0827
  L 49.5835 33.0773
  A 0.45 0.45 0.0 0 0 49.1327 33.5265
  L 49.1273 36.6065
  A 0.45 0.45 0.0 0 0 49.5765 37.0573
  L 52.6965 37.0627
  A 0.45 0.45 0.0 0 0 53.1473 36.6135
  L 53.1527 33.5335"
/>
<path stroke="#93afbf" vector-effect="non-scaling-stroke" d="
  M 19.73 24.85
  A 5.71 5.71 0.0 0 0 14.02 19.14
  L 13.00 19.14
  A 5.71 5.71 0.0 0 0 7.29 24.85
  L 7.29 27.99
  A 5.71 5.71 0.0 0 0 13.00 33.70
  L 14.02 33.70
  A 5.71 5.71 0.0 0 0 19.73 27.99
  L 19.73 24.85"
/>
</g>
<path fill="#29628d" d="
  M 57.00 0.00
  L 57.00 57.00
  L 0.00 57.00
  L 0.00 0.00
  L 57.00 0.00
  Z
  M 55.17 44.02
  Q 55.86 39.30 55.50 34.70
  C 54.95 27.67 55.40 20.36 54.79 14.13
  A 1.73 1.72 8.7 0 0 53.74 12.71
  Q 49.22 10.79 43.40 10.59
  C 35.62 10.33 28.92 11.07 20.28 10.48
  Q 12.20 9.93 2.40 10.48
  A 1.23 1.23 0.0 0 0 1.28 11.39
  Q 0.66 13.77 0.52 17.10
  Q -0.06 30.54 0.50 44.73
  A 1.35 1.35 0.0 0 0 1.85 46.03
  Q 29.91 46.18 43.69 46.08
  Q 49.28 46.03 53.58 45.55
  A 1.80 1.80 0.0 0 0 55.17 44.02
  Z"
/>
<path fill="#285f80" d="
  M 55.17 44.02
  A 1.80 1.80 0.0 0 1 53.58 45.55
  Q 49.28 46.03 43.69 46.08
  Q 29.91 46.18 1.85 46.03
  A 1.35 1.35 0.0 0 1 0.50 44.73
  Q -0.06 30.54 0.52 17.10
  Q 0.66 13.77 1.28 11.39
  A 1.23 1.23 0.0 0 1 2.40 10.48
  Q 12.20 9.93 20.28 10.48
  C 28.92 11.07 35.62 10.33 43.40 10.59
  Q 49.22 10.79 53.74 12.71
  A 1.73 1.72 8.7 0 1 54.79 14.13
  C 55.40 20.36 54.95 27.67 55.50 34.70
  Q 55.86 39.30 55.17 44.02
  Z
  M 23.7173 24.8921
  A 9.34 9.34 0.0 0 0 14.3610 15.5685
  L 12.5810 15.5716
  A 9.34 9.34 0.0 0 0 3.2573 24.9279
  L 3.2627 27.9879
  A 9.34 9.34 0.0 0 0 12.6190 37.3115
  L 14.3990 37.3084
  A 9.34 9.34 0.0 0 0 23.7227 27.9521
  L 23.7173 24.8921
  Z
  M 37.97 24.19
  A 0.34 0.34 0.0 0 1 38.01 23.77
  L 45.37 16.41
  A 0.34 0.34 0.0 0 0 45.13 15.83
  L 40.88 15.83
  A 0.34 0.34 0.0 0 0 40.64 15.93
  L 31.87 24.70
  A 0.34 0.34 0.0 0 1 31.29 24.46
  L 31.29 16.18
  A 0.34 0.34 0.0 0 0 30.95 15.84
  L 27.58 15.84
  A 0.34 0.34 0.0 0 0 27.24 16.18
  L 27.24 36.72
  A 0.34 0.34 0.0 0 0 27.58 37.06
  L 30.95 37.06
  A 0.34 0.34 0.0 0 0 31.29 36.72
  L 31.29 30.80
  A 0.34 0.34 0.0 0 1 31.39 30.56
  L 34.74 27.20
  A 0.34 0.34 0.0 0 1 35.27 27.25
  L 41.50 36.89
  A 0.34 0.34 0.0 0 0 41.79 37.05
  L 45.66 37.05
  A 0.34 0.34 0.0 0 0 45.94 36.53
  L 37.97 24.19
  Z
  M 52.75 15.82
  L 49.55 15.82
  A 0.38 0.38 0.0 0 0 49.17 16.20
  L 49.17 16.36
  A 15.24 1.43 -90.0 0 0 50.60 31.60
  L 51.70 31.60
  A 15.24 1.43 90.0 0 0 53.13 16.36
  L 53.13 16.20
  A 0.38 0.38 0.0 0 0 52.75 15.82
  Z
  M 53.1527 33.5335
  A 0.45 0.45 0.0 0 0 52.7035 33.0827
  L 49.5835 33.0773
  A 0.45 0.45 0.0 0 0 49.1327 33.5265
  L 49.1273 36.6065
  A 0.45 0.45 0.0 0 0 49.5765 37.0573
  L 52.6965 37.0627
  A 0.45 0.45 0.0 0 0 53.1473 36.6135
  L 53.1527 33.5335
  Z"
/>
<path fill="#fefffe" d="
  M 23.7227 27.9521
  A 9.34 9.34 0.0 0 1 14.3990 37.3084
  L 12.6190 37.3115
  A 9.34 9.34 0.0 0 1 3.2627 27.9879
  L 3.2573 24.9279
  A 9.34 9.34 0.0 0 1 12.5810 15.5716
  L 14.3610 15.5685
  A 9.34 9.34 0.0 0 1 23.7173 24.8921
  L 23.7227 27.9521
  Z
  M 19.73 24.85
  A 5.71 5.71 0.0 0 0 14.02 19.14
  L 13.00 19.14
  A 5.71 5.71 0.0 0 0 7.29 24.85
  L 7.29 27.99
  A 5.71 5.71 0.0 0 0 13.00 33.70
  L 14.02 33.70
  A 5.71 5.71 0.0 0 0 19.73 27.99
  L 19.73 24.85
  Z"
/>
<path fill="#fefffe" d="
  M 37.97 24.19
  L 45.94 36.53
  A 0.34 0.34 0.0 0 1 45.66 37.05
  L 41.79 37.05
  A 0.34 0.34 0.0 0 1 41.50 36.89
  L 35.27 27.25
  A 0.34 0.34 0.0 0 0 34.74 27.20
  L 31.39 30.56
  A 0.34 0.34 0.0 0 0 31.29 30.80
  L 31.29 36.72
  A 0.34 0.34 0.0 0 1 30.95 37.06
  L 27.58 37.06
  A 0.34 0.34 0.0 0 1 27.24 36.72
  L 27.24 16.18
  A 0.34 0.34 0.0 0 1 27.58 15.84
  L 30.95 15.84
  A 0.34 0.34 0.0 0 1 31.29 16.18
  L 31.29 24.46
  A 0.34 0.34 0.0 0 0 31.87 24.70
  L 40.64 15.93
  A 0.34 0.34 0.0 0 1 40.88 15.83
  L 45.13 15.83
  A 0.34 0.34 0.0 0 1 45.37 16.41
  L 38.01 23.77
  A 0.34 0.34 0.0 0 0 37.97 24.19
  Z"
/>
<path fill="#fefffe" d="
  M 52.75 15.82
  A 0.38 0.38 0.0 0 1 53.13 16.20
  L 53.13 16.36
  A 15.24 1.43 90.0 0 1 51.70 31.60
  L 50.60 31.60
  A 15.24 1.43 90.0 0 1 49.17 16.36
  L 49.17 16.20
  A 0.38 0.38 0.0 0 1 49.55 15.82
  L 52.75 15.82
  Z"
/>
<rect fill="#285f80" x="7.29" y="19.14" width="12.44" height="14.56" rx="5.71"/>
<rect fill="#fefffe" x="-2.01" y="-1.99" transform="translate(51.14,35.07) rotate(0.1)" width="4.02" height="3.98" rx="0.45"/>
</svg>
