<svg width="128" height="128" viewBox="0 0 128 128" fill="none" xmlns="http://www.w3.org/2000/svg">
<g clip-path="url(#clip0_364_129)">
<path d="M0 0H128V128H0V0Z" fill="white"/>
<path fill-rule="evenodd" clip-rule="evenodd" d="M69.0232 14.6501L66.9666 39.9787C65.9934 39.8612 65.0072 39.7982 64 39.7982C62.7486 39.7982 61.5182 39.8906 60.3171 40.0754L59.1457 27.7935C59.1077 27.4111 59.4153 27.0749 59.803 27.0791H61.9057L60.8902 14.6501C60.8565 14.2677 61.16 13.9399 61.5435 13.9399H68.3616C68.745 13.9399 69.0442 14.2677 69.0146 14.6501H69.0232ZM51.8135 15.9064C51.7123 15.5366 51.3162 15.335 50.9537 15.4652L44.5444 17.7931C44.182 17.9233 44.0134 18.3351 44.1736 18.6838L49.3861 30.0162L47.4057 30.7305C47.0432 30.8608 46.8663 31.2768 47.0349 31.6298L52.3443 42.7731C54.2701 41.7142 56.3561 40.92 58.56 40.4159L51.8135 15.9064ZM36.0786 22.9613L50.8274 43.6807C48.9563 44.8949 47.2665 46.3572 45.8002 48.0253L36.9804 39.3612C36.7023 39.0881 36.7234 38.6385 37.0183 38.3906L38.6323 37.0459L29.8505 28.1758C29.5808 27.9027 29.6018 27.4615 29.8968 27.2136L35.1179 22.8395C35.4128 22.5916 35.8553 22.6504 36.0786 22.9613ZM23.7066 34.9576C23.3905 34.7433 22.9565 34.84 22.7626 35.1677L19.3536 41.0587C19.1597 41.3906 19.2946 41.8152 19.6401 41.979L30.9376 47.3195L29.88 49.1347C29.6861 49.4709 29.821 49.8995 30.1749 50.059L41.4303 55.1896C42.2479 53.1012 43.335 51.1557 44.6667 49.3995L23.7066 34.9576ZM15.3841 50.9668C15.4515 50.5886 15.8223 50.3491 16.1973 50.4455L40.8489 56.866C40.2125 58.9417 39.8543 61.1395 39.8037 63.4126L27.4612 62.425C27.0735 62.3957 26.7996 62.0385 26.867 61.6562L27.2378 59.5931L14.7941 58.4291C14.4106 58.3914 14.1409 58.0384 14.2084 57.6602L15.3883 50.9625L15.3841 50.9668ZM14.4528 67.5683C14.0693 67.606 13.7996 67.9589 13.867 68.3372L15.0512 75.0349C15.1186 75.4131 15.4936 75.6526 15.8644 75.5559L27.9584 72.4045L28.3208 74.4676C28.3882 74.8501 28.7717 75.0896 29.1425 74.9845L41.0721 71.6987C40.3684 69.6354 39.9343 67.4547 39.8207 65.1858L14.4528 67.5683ZM18.397 85.1698C18.2032 84.8379 18.338 84.4134 18.6836 84.2496L41.7001 73.3668C42.5764 75.4258 43.7354 77.3374 45.1218 79.0519L35.0336 86.2076C34.7175 86.4346 34.2751 86.3336 34.0855 86.0017L33.0362 84.1822L22.7542 91.2708C22.4382 91.4893 22.0041 91.3926 21.8103 91.0607L18.397 85.1698ZM46.2849 80.3964L28.3798 98.4812C28.1101 98.7544 28.1312 99.1956 28.4262 99.4435L33.6514 103.813C33.9464 104.061 34.3889 104.002 34.6122 103.692L41.8434 93.523L43.453 94.8761C43.7481 95.124 44.1989 95.0653 44.4181 94.7458L51.4384 84.5898C49.5337 83.4303 47.8018 82.0141 46.2849 80.3964ZM42.7493 109.431C42.3868 109.301 42.2182 108.889 42.3785 108.54L52.9976 85.4387C54.9528 86.4346 57.0597 87.1782 59.2763 87.6151L56.1622 99.5569C56.0652 99.9308 55.665 100.141 55.3026 100.007L53.3262 99.2837L50.0141 111.305C49.9129 111.675 49.5167 111.877 49.1545 111.747L42.745 109.423L42.7493 109.431ZM61.0378 87.8967L58.9814 113.23C58.9518 113.612 59.251 113.94 59.6345 113.94H66.4525C66.836 113.94 67.1395 113.612 67.1058 113.23L66.0903 100.805H68.193C68.5808 100.809 68.884 100.477 68.8503 100.091L67.6789 87.8086C66.4778 87.9893 65.2474 88.0858 63.996 88.0858C62.9929 88.0858 62.007 88.0187 61.0335 87.901L61.0378 87.8967ZM85.6259 19.3351C85.7861 18.9864 85.6133 18.5788 85.2551 18.4443L78.8458 16.1207C78.4877 15.9904 78.0872 16.1921 77.9862 16.5619L74.6739 28.5834L72.6978 27.8607C72.3353 27.7262 71.9349 27.9363 71.8379 28.3103L68.724 40.2519C70.9404 40.6888 73.0473 41.4326 75.0027 42.4286L85.6259 19.3309V19.3351ZM99.6205 29.4028L81.7155 47.4876C80.2026 45.8655 78.4707 44.4496 76.5619 43.2899L83.5822 33.134C83.8014 32.8189 84.2522 32.7559 84.5471 33.008L86.157 34.3609L93.3881 24.1925C93.6114 23.8815 94.0538 23.8227 94.3487 24.0706L99.5741 28.4405C99.869 28.6884 99.89 29.1339 99.6205 29.4028ZM109.317 43.6344C109.666 43.4706 109.797 43.0463 109.603 42.7142L106.19 36.8232C105.996 36.4913 105.562 36.3947 105.246 36.6131L94.9641 43.7017L93.9149 41.8823C93.721 41.5461 93.2785 41.4496 92.9667 41.6764L82.8785 48.8321C84.2649 50.5506 85.4237 52.4584 86.3002 54.5172L109.317 43.6344ZM112.949 52.8534L114.133 59.5511C114.201 59.9334 113.927 60.2863 113.547 60.32L88.1797 62.6941C88.0658 60.425 87.6319 58.2443 86.928 56.1812L98.8578 52.8995C99.2286 52.7944 99.6121 53.0382 99.6794 53.4164L100.038 55.4795L112.131 52.3281C112.502 52.2314 112.877 52.4709 112.945 52.8491L112.949 52.8534ZM111.803 77.4384C112.174 77.5349 112.549 77.2954 112.616 76.9174L113.796 70.2197C113.864 69.8415 113.59 69.4886 113.21 69.4506L100.767 68.2868L101.137 66.2235C101.205 65.8412 100.931 65.4883 100.543 65.4546L88.2007 64.4673C88.15 66.7445 87.7919 68.9379 87.1555 71.0179L111.807 77.4341L111.803 77.4384ZM105.237 92.7205C105.044 93.0483 104.61 93.145 104.294 92.9306L83.3251 78.4888C84.6567 76.7324 85.7482 74.787 86.5615 72.6987L97.817 77.8334C98.1708 77.9931 98.3098 78.4258 98.1119 78.7577L97.0541 80.5729L108.352 85.9136C108.697 86.0774 108.832 86.5017 108.638 86.8336L105.229 92.7248L105.237 92.7205ZM77.1729 84.2033L91.9215 104.927C92.1448 105.238 92.5832 105.297 92.8824 105.049L98.1035 100.675C98.3984 100.427 98.4194 99.9812 98.1498 99.7124L89.3681 90.8422L90.9819 89.4977C91.2768 89.2498 91.2979 88.8002 91.0199 88.5313L82.1999 79.867C80.7336 81.5311 79.0438 82.9931 77.1729 84.2075V84.2033ZM77.0464 112.419C76.6882 112.549 76.288 112.347 76.1868 111.978L69.4361 87.4724C71.64 86.9681 73.7259 86.1698 75.6517 85.1151L80.9612 96.2584C81.1297 96.6073 80.9569 97.0275 80.5903 97.1577L78.6097 97.8721L83.8224 109.204C83.9827 109.553 83.8098 109.961 83.4516 110.095L77.0421 112.423L77.0464 112.419Z" fill="#191919"/>
</g>
<defs>
<clipPath id="clip0_364_129">
<rect width="128" height="128" fill="white"/>
</clipPath>
</defs>
</svg>
