<?xml version="1.0" encoding="UTF-8" standalone="no"?>
<!DOCTYPE svg PUBLIC "-//W3C//DTD SVG 1.1//EN" "http://www.w3.org/Graphics/SVG/1.1/DTD/svg11.dtd">
<svg xmlns="http://www.w3.org/2000/svg" version="1.1" viewBox="0.00 0.00 400.00 400.00">
<g stroke-width="2.00" fill="none" stroke-linecap="butt">
<path stroke="#808080" vector-effect="non-scaling-stroke" d="
  M 318.87 400.00
  Q 322.21 389.65 321.39 376.00
  Q 320.27 357.32 312.45 340.43
  A 1.37 1.37 0.0 0 1 312.60 339.02
  Q 315.71 334.89 317.84 329.88
  Q 323.01 317.78 323.82 305.02
  C 325.04 285.92 323.41 269.49 314.29 252.45
  A 0.86 0.85 -42.3 0 1 314.34 251.57
  Q 330.49 227.30 324.90 198.97
  Q 319.41 171.11 297.11 153.65
  A 1.04 1.03 24.0 0 1 296.73 152.67
  Q 299.77 135.02 298.77 117.01
  Q 297.95 102.33 292.86 88.40
  Q 289.45 79.10 283.03 72.72
  C 276.12 65.85 266.45 64.23 258.02 69.39
  C 250.31 74.12 245.17 83.15 242.07 91.78
  Q 237.47 104.63 236.44 118.61
  A 0.52 0.51 17.6 0 1 235.66 119.01
  Q 200.05 97.98 164.22 119.05
  A 0.42 0.42 0.0 0 1 163.59 118.72
  C 162.31 101.53 154.59 67.74 132.29 66.38
  C 119.66 65.60 110.90 78.25 107.11 88.39
  C 99.67 108.31 99.66 131.43 103.23 152.51
  A 1.35 1.34 66.4 0 1 102.73 153.79
  C 77.89 173.22 67.12 206.69 77.82 236.50
  Q 80.93 245.14 85.79 251.53
  A 0.69 0.68 -49.1 0 1 85.84 252.29
  C 75.86 270.11 74.62 289.15 76.63 310.03
  Q 77.10 314.98 79.92 324.01
  Q 82.51 332.30 87.40 339.08
  A 1.38 1.36 39.6 0 1 87.54 340.45
  Q 79.52 357.82 78.57 377.00
  Q 77.90 390.49 81.28 400.00"
/>
<path stroke="#808080" vector-effect="non-scaling-stroke" d="
  M 302.59 400.00
  L 299.26 399.80
  A 0.37 0.37 0.0 0 1 298.97 399.23
  Q 300.93 396.19 301.58 392.76
  C 304.64 376.57 301.17 359.05 293.38 344.59
  Q 291.31 340.76 291.24 338.80
  Q 291.10 335.25 292.80 332.73
  A 3.53 3.28 -6.0 0 1 293.34 332.11
  Q 298.98 326.95 301.45 319.98
  Q 305.64 308.21 305.56 295.69
  C 305.47 281.30 302.97 268.30 294.69 257.75
  C 290.24 252.07 292.74 247.54 296.86 242.88
  C 305.89 232.66 308.98 217.59 306.68 204.28
  C 302.95 182.69 287.26 162.96 264.75 160.25
  Q 260.28 159.71 257.25 160.31
  C 252.88 161.17 250.30 161.35 246.52 158.93
  C 244.42 157.59 242.87 153.27 241.40 150.73
  C 235.05 139.78 222.73 131.96 210.39 128.67
  Q 206.17 127.54 202.01 127.46
  Q 195.60 127.32 193.51 127.76
  C 176.58 131.29 162.85 140.59 155.65 156.43
  A 3.49 3.21 -16.1 0 1 155.25 157.09
  Q 152.46 160.66 147.75 160.93
  C 145.41 161.07 141.78 159.93 138.90 160.04
  C 114.72 160.96 97.77 180.77 93.43 203.56
  C 90.91 216.84 93.84 231.70 102.59 242.19
  Q 107.02 247.50 107.32 248.96
  Q 108.34 254.07 105.60 257.39
  Q 100.81 263.18 98.65 269.41
  C 92.78 286.38 92.73 306.19 99.79 323.01
  Q 101.58 327.25 106.73 332.21
  A 3.81 3.67 -85.1 0 1 107.29 332.90
  Q 108.90 335.45 108.78 338.85
  Q 108.71 340.64 106.44 344.93
  Q 95.23 366.10 97.84 389.69
  Q 98.37 394.55 100.88 399.12
  A 0.39 0.38 71.4 0 1 100.60 399.69
  L 98.61 400.00"
/>
<path stroke="#808080" vector-effect="non-scaling-stroke" d="
  M 83.37 400.00
  Q 82.91 399.83 82.50 400.00"
/>
<path stroke="#808080" vector-effect="non-scaling-stroke" d="
  M 121.73 143.94
  Q 131.47 140.75 140.86 141.36
  A 1.55 1.53 -62.4 0 0 141.93 141.02
  Q 145.12 138.48 145.26 133.07
  Q 145.73 115.56 140.87 100.39
  C 139.18 95.08 136.50 89.06 132.28 85.53
  A 1.07 1.06 -44.3 0 0 130.94 85.52
  C 128.80 87.25 127.31 89.60 126.09 92.16
  C 119.14 106.67 118.49 126.81 120.92 143.44
  A 0.62 0.62 0.0 0 0 121.73 143.94"
/>
<path stroke="#808080" vector-effect="non-scaling-stroke" d="
  M 278.24 143.93
  A 0.62 0.62 0.0 0 0 279.05 143.43
  C 281.48 126.81 280.83 106.69 273.88 92.19
  C 272.66 89.64 271.18 87.29 269.04 85.56
  A 1.07 1.05 44.3 0 0 267.70 85.57
  C 263.48 89.10 260.81 95.11 259.12 100.42
  Q 254.26 115.57 254.73 133.07
  Q 254.87 138.47 258.06 141.01
  A 1.54 1.53 62.4 0 0 259.13 141.35
  Q 268.51 140.74 278.24 143.93"
/>
<path stroke="#808080" vector-effect="non-scaling-stroke" d="
  M 200.00 286.76
  Q 208.22 286.76 211.99 286.43
  C 226.68 285.18 241.11 277.53 247.91 264.29
  C 254.17 252.08 252.28 237.75 244.09 226.86
  C 233.72 213.06 216.95 206.23 200.00 206.23
  C 183.05 206.23 166.28 213.05 155.91 226.86
  C 147.72 237.75 145.83 252.08 152.09 264.29
  C 158.89 277.53 173.32 285.18 188.01 286.43
  Q 191.78 286.76 200.00 286.76"
/>
<path stroke="#808080" vector-effect="non-scaling-stroke" d="
  M 142.4025 210.1933
  A 13.48 12.43 -59.1 0 0 124.8143 215.3767
  A 13.48 12.43 -59.1 0 0 128.5575 233.3267
  A 13.48 12.43 -59.1 0 0 146.1457 228.1433
  A 13.48 12.43 -59.1 0 0 142.4025 210.1933"
/>
<path stroke="#808080" vector-effect="non-scaling-stroke" d="
  M 257.6887 210.1433
  A 13.48 12.43 -120.4 0 0 253.7890 228.0600
  A 13.48 12.43 -120.4 0 0 271.3313 233.3967
  A 13.48 12.43 -120.4 0 0 275.2310 215.4800
  A 13.48 12.43 -120.4 0 0 257.6887 210.1433"
/>
<path stroke="#808080" vector-effect="non-scaling-stroke" d="
  M 200.00 273.81
  Q 204.68 273.81 209.50 273.66
  C 220.22 273.32 231.77 267.73 236.66 257.88
  C 241.37 248.41 237.74 237.71 230.28 230.70
  C 221.79 222.72 211.77 219.25 199.99 219.25
  C 188.21 219.25 178.19 222.73 169.70 230.71
  C 162.25 237.72 158.62 248.43 163.34 257.89
  C 168.23 267.74 179.78 273.33 190.51 273.66
  Q 195.33 273.81 200.00 273.81"
/>
<path stroke="#808080" vector-effect="non-scaling-stroke" d="
  M 199.72 260.48
  C 207.25 260.46 205.46 255.21 204.64 249.79
  A 1.27 1.27 0.0 0 1 205.26 248.51
  C 208.99 246.38 214.43 241.50 209.12 237.32
  C 206.50 235.26 202.59 236.91 199.93 238.59
  Q 199.87 238.63 199.80 238.64
  Q 199.77 238.64 199.67 238.64
  Q 199.58 238.64 199.55 238.64
  Q 199.48 238.63 199.42 238.59
  C 196.75 236.92 192.83 235.29 190.22 237.36
  C 184.93 241.57 190.39 246.42 194.13 248.53
  A 1.27 1.27 0.0 0 1 194.76 249.82
  C 193.96 255.24 192.20 260.50 199.72 260.48"
/>
</g>
<path fill="#ffffff" d="
  M 400.00 0.00
  L 400.00 400.00
  L 318.87 400.00
  Q 322.21 389.65 321.39 376.00
  Q 320.27 357.32 312.45 340.43
  A 1.37 1.37 0.0 0 1 312.60 339.02
  Q 315.71 334.89 317.84 329.88
  Q 323.01 317.78 323.82 305.02
  C 325.04 285.92 323.41 269.49 314.29 252.45
  A 0.86 0.85 -42.3 0 1 314.34 251.57
  Q 330.49 227.30 324.90 198.97
  Q 319.41 171.11 297.11 153.65
  A 1.04 1.03 24.0 0 1 296.73 152.67
  Q 299.77 135.02 298.77 117.01
  Q 297.95 102.33 292.86 88.40
  Q 289.45 79.10 283.03 72.72
  C 276.12 65.85 266.45 64.23 258.02 69.39
  C 250.31 74.12 245.17 83.15 242.07 91.78
  Q 237.47 104.63 236.44 118.61
  A 0.52 0.51 17.6 0 1 235.66 119.01
  Q 200.05 97.98 164.22 119.05
  A 0.42 0.42 0.0 0 1 163.59 118.72
  C 162.31 101.53 154.59 67.74 132.29 66.38
  C 119.66 65.60 110.90 78.25 107.11 88.39
  C 99.67 108.31 99.66 131.43 103.23 152.51
  A 1.35 1.34 66.4 0 1 102.73 153.79
  C 77.89 173.22 67.12 206.69 77.82 236.50
  Q 80.93 245.14 85.79 251.53
  A 0.69 0.68 -49.1 0 1 85.84 252.29
  C 75.86 270.11 74.62 289.15 76.63 310.03
  Q 77.10 314.98 79.92 324.01
  Q 82.51 332.30 87.40 339.08
  A 1.38 1.36 39.6 0 1 87.54 340.45
  Q 79.52 357.82 78.57 377.00
  Q 77.90 390.49 81.28 400.00
  L 0.00 400.00
  L 0.00 0.00
  L 400.00 0.00
  Z"
/>
<path fill="#000000" d="
  M 318.87 400.00
  L 302.59 400.00
  L 299.26 399.80
  A 0.37 0.37 0.0 0 1 298.97 399.23
  Q 300.93 396.19 301.58 392.76
  C 304.64 376.57 301.17 359.05 293.38 344.59
  Q 291.31 340.76 291.24 338.80
  Q 291.10 335.25 292.80 332.73
  A 3.53 3.28 -6.0 0 1 293.34 332.11
  Q 298.98 326.95 301.45 319.98
  Q 305.64 308.21 305.56 295.69
  C 305.47 281.30 302.97 268.30 294.69 257.75
  C 290.24 252.07 292.74 247.54 296.86 242.88
  C 305.89 232.66 308.98 217.59 306.68 204.28
  C 302.95 182.69 287.26 162.96 264.75 160.25
  Q 260.28 159.71 257.25 160.31
  C 252.88 161.17 250.30 161.35 246.52 158.93
  C 244.42 157.59 242.87 153.27 241.40 150.73
  C 235.05 139.78 222.73 131.96 210.39 128.67
  Q 206.17 127.54 202.01 127.46
  Q 195.60 127.32 193.51 127.76
  C 176.58 131.29 162.85 140.59 155.65 156.43
  A 3.49 3.21 -16.1 0 1 155.25 157.09
  Q 152.46 160.66 147.75 160.93
  C 145.41 161.07 141.78 159.93 138.90 160.04
  C 114.72 160.96 97.77 180.77 93.43 203.56
  C 90.91 216.84 93.84 231.70 102.59 242.19
  Q 107.02 247.50 107.32 248.96
  Q 108.34 254.07 105.60 257.39
  Q 100.81 263.18 98.65 269.41
  C 92.78 286.38 92.73 306.19 99.79 323.01
  Q 101.58 327.25 106.73 332.21
  A 3.81 3.67 -85.1 0 1 107.29 332.90
  Q 108.90 335.45 108.78 338.85
  Q 108.71 340.64 106.44 344.93
  Q 95.23 366.10 97.84 389.69
  Q 98.37 394.55 100.88 399.12
  A 0.39 0.38 71.4 0 1 100.60 399.69
  L 98.61 400.00
  L 83.37 400.00
  Q 82.91 399.83 82.50 400.00
  Q 81.89 400.01 81.28 400.00
  Q 77.90 390.49 78.57 377.00
  Q 79.52 357.82 87.54 340.45
  A 1.38 1.36 39.6 0 0 87.40 339.08
  Q 82.51 332.30 79.92 324.01
  Q 77.10 314.98 76.63 310.03
  C 74.62 289.15 75.86 270.11 85.84 252.29
  A 0.69 0.68 -49.1 0 0 85.79 251.53
  Q 80.93 245.14 77.82 236.50
  C 67.12 206.69 77.89 173.22 102.73 153.79
  A 1.35 1.34 66.4 0 0 103.23 152.51
  C 99.66 131.43 99.67 108.31 107.11 88.39
  C 110.90 78.25 119.66 65.60 132.29 66.38
  C 154.59 67.74 162.31 101.53 163.59 118.72
  A 0.42 0.42 0.0 0 0 164.22 119.05
  Q 200.05 97.98 235.66 119.01
  A 0.52 0.51 17.6 0 0 236.44 118.61
  Q 237.47 104.63 242.07 91.78
  C 245.17 83.15 250.31 74.12 258.02 69.39
  C 266.45 64.23 276.12 65.85 283.03 72.72
  Q 289.45 79.10 292.86 88.40
  Q 297.95 102.33 298.77 117.01
  Q 299.77 135.02 296.73 152.67
  A 1.04 1.03 24.0 0 0 297.11 153.65
  Q 319.41 171.11 324.90 198.97
  Q 330.49 227.30 314.34 251.57
  A 0.86 0.85 -42.3 0 0 314.29 252.45
  C 323.41 269.49 325.04 285.92 323.82 305.02
  Q 323.01 317.78 317.84 329.88
  Q 315.71 334.89 312.60 339.02
  A 1.37 1.37 0.0 0 0 312.45 340.43
  Q 320.27 357.32 321.39 376.00
  Q 322.21 389.65 318.87 400.00
  Z
  M 121.73 143.94
  Q 131.47 140.75 140.86 141.36
  A 1.55 1.53 -62.4 0 0 141.93 141.02
  Q 145.12 138.48 145.26 133.07
  Q 145.73 115.56 140.87 100.39
  C 139.18 95.08 136.50 89.06 132.28 85.53
  A 1.07 1.06 -44.3 0 0 130.94 85.52
  C 128.80 87.25 127.31 89.60 126.09 92.16
  C 119.14 106.67 118.49 126.81 120.92 143.44
  A 0.62 0.62 0.0 0 0 121.73 143.94
  Z
  M 278.24 143.93
  A 0.62 0.62 0.0 0 0 279.05 143.43
  C 281.48 126.81 280.83 106.69 273.88 92.19
  C 272.66 89.64 271.18 87.29 269.04 85.56
  A 1.07 1.05 44.3 0 0 267.70 85.57
  C 263.48 89.10 260.81 95.11 259.12 100.42
  Q 254.26 115.57 254.73 133.07
  Q 254.87 138.47 258.06 141.01
  A 1.54 1.53 62.4 0 0 259.13 141.35
  Q 268.51 140.74 278.24 143.93
  Z"
/>
<path fill="#ffffff" d="
  M 121.73 143.94
  A 0.62 0.62 0.0 0 1 120.92 143.44
  C 118.49 126.81 119.14 106.67 126.09 92.16
  C 127.31 89.60 128.80 87.25 130.94 85.52
  A 1.07 1.06 -44.3 0 1 132.28 85.53
  C 136.50 89.06 139.18 95.08 140.87 100.39
  Q 145.73 115.56 145.26 133.07
  Q 145.12 138.48 141.93 141.02
  A 1.55 1.53 -62.4 0 1 140.86 141.36
  Q 131.47 140.75 121.73 143.94
  Z"
/>
<path fill="#ffffff" d="
  M 278.24 143.93
  Q 268.51 140.74 259.13 141.35
  A 1.54 1.53 62.4 0 1 258.06 141.01
  Q 254.87 138.47 254.73 133.07
  Q 254.26 115.57 259.12 100.42
  C 260.81 95.11 263.48 89.10 267.70 85.57
  A 1.07 1.05 44.3 0 1 269.04 85.56
  C 271.18 87.29 272.66 89.64 273.88 92.19
  C 280.83 106.69 281.48 126.81 279.05 143.43
  A 0.62 0.62 0.0 0 1 278.24 143.93
  Z"
/>
<path fill="#ffffff" d="
  M 302.59 400.00
  L 98.61 400.00
  L 100.60 399.69
  A 0.39 0.38 71.4 0 0 100.88 399.12
  Q 98.37 394.55 97.84 389.69
  Q 95.23 366.10 106.44 344.93
  Q 108.71 340.64 108.78 338.85
  Q 108.90 335.45 107.29 332.90
  A 3.81 3.67 -85.1 0 0 106.73 332.21
  Q 101.58 327.25 99.79 323.01
  C 92.73 306.19 92.78 286.38 98.65 269.41
  Q 100.81 263.18 105.60 257.39
  Q 108.34 254.07 107.32 248.96
  Q 107.02 247.50 102.59 242.19
  C 93.84 231.70 90.91 216.84 93.43 203.56
  C 97.77 180.77 114.72 160.96 138.90 160.04
  C 141.78 159.93 145.41 161.07 147.75 160.93
  Q 152.46 160.66 155.25 157.09
  A 3.49 3.21 -16.1 0 0 155.65 156.43
  C 162.85 140.59 176.58 131.29 193.51 127.76
  Q 195.60 127.32 202.01 127.46
  Q 206.17 127.54 210.39 128.67
  C 222.73 131.96 235.05 139.78 241.40 150.73
  C 242.87 153.27 244.42 157.59 246.52 158.93
  C 250.30 161.35 252.88 161.17 257.25 160.31
  Q 260.28 159.71 264.75 160.25
  C 287.26 162.96 302.95 182.69 306.68 204.28
  C 308.98 217.59 305.89 232.66 296.86 242.88
  C 292.74 247.54 290.24 252.07 294.69 257.75
  C 302.97 268.30 305.47 281.30 305.56 295.69
  Q 305.64 308.21 301.45 319.98
  Q 298.98 326.95 293.34 332.11
  A 3.53 3.28 -6.0 0 0 292.80 332.73
  Q 291.10 335.25 291.24 338.80
  Q 291.31 340.76 293.38 344.59
  C 301.17 359.05 304.64 376.57 301.58 392.76
  Q 300.93 396.19 298.97 399.23
  A 0.37 0.37 0.0 0 0 299.26 399.80
  L 302.59 400.00
  Z
  M 200.00 286.76
  Q 208.22 286.76 211.99 286.43
  C 226.68 285.18 241.11 277.53 247.91 264.29
  C 254.17 252.08 252.28 237.75 244.09 226.86
  C 233.72 213.06 216.95 206.23 200.00 206.23
  C 183.05 206.23 166.28 213.05 155.91 226.86
  C 147.72 237.75 145.83 252.08 152.09 264.29
  C 158.89 277.53 173.32 285.18 188.01 286.43
  Q 191.78 286.76 200.00 286.76
  Z
  M 142.4025 210.1933
  A 13.48 12.43 -59.1 0 0 124.8143 215.3767
  A 13.48 12.43 -59.1 0 0 128.5575 233.3267
  A 13.48 12.43 -59.1 0 0 146.1457 228.1433
  A 13.48 12.43 -59.1 0 0 142.4025 210.1933
  Z
  M 257.6887 210.1433
  A 13.48 12.43 -120.4 0 0 253.7890 228.0600
  A 13.48 12.43 -120.4 0 0 271.3313 233.3967
  A 13.48 12.43 -120.4 0 0 275.2310 215.4800
  A 13.48 12.43 -120.4 0 0 257.6887 210.1433
  Z"
/>
<path fill="#000000" d="
  M 200.00 206.23
  C 216.95 206.23 233.72 213.06 244.09 226.86
  C 252.28 237.75 254.17 252.08 247.91 264.29
  C 241.11 277.53 226.68 285.18 211.99 286.43
  Q 208.22 286.76 200.00 286.76
  Q 191.78 286.76 188.01 286.43
  C 173.32 285.18 158.89 277.53 152.09 264.29
  C 145.83 252.08 147.72 237.75 155.91 226.86
  C 166.28 213.05 183.05 206.23 200.00 206.23
  Z
  M 200.00 273.81
  Q 204.68 273.81 209.50 273.66
  C 220.22 273.32 231.77 267.73 236.66 257.88
  C 241.37 248.41 237.74 237.71 230.28 230.70
  C 221.79 222.72 211.77 219.25 199.99 219.25
  C 188.21 219.25 178.19 222.73 169.70 230.71
  C 162.25 237.72 158.62 248.43 163.34 257.89
  C 168.23 267.74 179.78 273.33 190.51 273.66
  Q 195.33 273.81 200.00 273.81
  Z"
/>
<ellipse fill="#000000" cx="0.00" cy="0.00" transform="translate(135.48,221.76) rotate(-59.1)" rx="13.48" ry="12.43"/>
<ellipse fill="#000000" cx="0.00" cy="0.00" transform="translate(264.51,221.77) rotate(-120.4)" rx="13.48" ry="12.43"/>
<path fill="#ffffff" d="
  M 199.99 219.25
  C 211.77 219.25 221.79 222.72 230.28 230.70
  C 237.74 237.71 241.37 248.41 236.66 257.88
  C 231.77 267.73 220.22 273.32 209.50 273.66
  Q 204.68 273.81 200.00 273.81
  Q 195.33 273.81 190.51 273.66
  C 179.78 273.33 168.23 267.74 163.34 257.89
  C 158.62 248.43 162.25 237.72 169.70 230.71
  C 178.19 222.73 188.21 219.25 199.99 219.25
  Z
  M 199.72 260.48
  C 207.25 260.46 205.46 255.21 204.64 249.79
  A 1.27 1.27 0.0 0 1 205.26 248.51
  C 208.99 246.38 214.43 241.50 209.12 237.32
  C 206.50 235.26 202.59 236.91 199.93 238.59
  Q 199.87 238.63 199.80 238.64
  Q 199.77 238.64 199.67 238.64
  Q 199.58 238.64 199.55 238.64
  Q 199.48 238.63 199.42 238.59
  C 196.75 236.92 192.83 235.29 190.22 237.36
  C 184.93 241.57 190.39 246.42 194.13 248.53
  A 1.27 1.27 0.0 0 1 194.76 249.82
  C 193.96 255.24 192.20 260.50 199.72 260.48
  Z"
/>
<path fill="#000000" d="
  M 199.67 238.64
  Q 199.77 238.64 199.80 238.64
  Q 199.87 238.63 199.93 238.59
  C 202.59 236.91 206.50 235.26 209.12 237.32
  C 214.43 241.50 208.99 246.38 205.26 248.51
  A 1.27 1.27 0.0 0 0 204.64 249.79
  C 205.46 255.21 207.25 260.46 199.72 260.48
  C 192.20 260.50 193.96 255.24 194.76 249.82
  A 1.27 1.27 0.0 0 0 194.13 248.53
  C 190.39 246.42 184.93 241.57 190.22 237.36
  C 192.83 235.29 196.75 236.92 199.42 238.59
  Q 199.48 238.63 199.55 238.64
  Q 199.58 238.64 199.67 238.64
  Z"
/>
<path fill="#ffffff" d="
  M 83.37 400.00
  L 82.50 400.00
  Q 82.91 399.83 83.37 400.00
  Z"
/>
</svg>
