<?xml version="1.0" encoding="UTF-8" standalone="no"?>
<!DOCTYPE svg PUBLIC "-//W3C//DTD SVG 1.1//EN" "http://www.w3.org/Graphics/SVG/1.1/DTD/svg11.dtd">
<svg xmlns="http://www.w3.org/2000/svg" version="1.1" viewBox="0.00 0.00 32.00 32.00">
<g stroke-width="2.00" fill="none" stroke-linecap="butt">
<path stroke="#0f131b" stroke-opacity="0.592" vector-effect="non-scaling-stroke" d="
  M 1.27 0.00
  Q 0.80 0.88 0.00 1.61"
/>
<path stroke="#0f151d" vector-effect="non-scaling-stroke" d="
  M 1.33 0.00
  Q 15.96 1.30 30.28 0.85
  A 0.84 0.84 0.0 0 1 31.15 1.69
  L 31.14 30.94"
/>
<path stroke="#0f151d" vector-effect="non-scaling-stroke" d="
  M 31.14 30.94
  L 1.98 31.31
  A 1.18 1.18 0.0 0 1 0.79 30.12
  Q 0.83 18.89 0.88 3.63
  Q 0.88 2.87 0.00 3.00"
/>
<path stroke="#538374" vector-effect="non-scaling-stroke" d="
  M 25.07 8.18
  Q 25.44 7.29 25.45 6.71
  A 0.42 0.42 0.0 0 0 24.65 6.51
  Q 23.26 9.36 20.16 8.53
  A 1.39 1.34 78.0 0 1 19.45 8.05
  L 18.23 6.48
  A 0.33 0.33 0.0 0 0 17.82 6.40
  L 17.58 6.54
  A 0.57 0.56 59.0 0 0 17.39 7.33
  Q 20.02 11.59 24.49 8.86
  A 1.49 1.46 -5.1 0 0 25.07 8.18"
/>
<path stroke="#7e7f82" vector-effect="non-scaling-stroke" d="
  M 15.15 10.88
  A 4.47 4.47 0.0 0 0 10.68 6.41
  A 4.47 4.47 0.0 0 0 6.21 10.88
  A 4.47 4.47 0.0 0 0 10.68 15.35
  A 4.47 4.47 0.0 0 0 15.15 10.88"
/>
<path stroke="#7e7f82" vector-effect="non-scaling-stroke" d="
  M 25.8757 9.5801
  A 0.61 0.61 0.0 0 0 25.2840 8.9523
  L 25.2241 8.9505
  A 0.61 0.61 0.0 0 0 24.5962 9.5421
  L 24.4443 14.6599
  A 0.61 0.61 0.0 0 0 25.0360 15.2877
  L 25.0959 15.2895
  A 0.61 0.61 0.0 0 0 25.7238 14.6979
  L 25.8757 9.5801"
/>
<path stroke="#7e7f82" vector-effect="non-scaling-stroke" d="
  M 18.2818 9.6168
  A 0.59 0.59 0.0 0 0 17.6785 9.0404
  L 17.6385 9.0413
  A 0.59 0.59 0.0 0 0 17.0621 9.6445
  L 17.1782 14.7632
  A 0.59 0.59 0.0 0 0 17.7815 15.3396
  L 17.8215 15.3387
  A 0.59 0.59 0.0 0 0 18.3979 14.7355
  L 18.2818 9.6168"
/>
<path stroke="#7e7f82" vector-effect="non-scaling-stroke" d="
  M 8.7901 17.2935
  A 0.62 0.62 0.0 0 0 8.1734 16.6702
  L 8.1134 16.6699
  A 0.62 0.62 0.0 0 0 7.4902 17.2866
  L 7.4499 24.9865
  A 0.62 0.62 0.0 0 0 8.0666 25.6098
  L 8.1266 25.6101
  A 0.62 0.62 0.0 0 0 8.7498 24.9934
  L 8.7901 17.2935"
/>
<path stroke="#7e7f82" vector-effect="non-scaling-stroke" d="
  M 16.74 18.21
  A 0.51 0.50 36.8 0 0 16.63 17.48
  C 14.27 15.91 9.52 16.83 11.61 20.60
  A 1.31 1.30 -6.2 0 0 12.39 21.22
  L 15.16 22.00
  A 1.26 1.26 0.0 0 1 15.08 24.44
  Q 13.63 24.74 11.68 23.47
  A 0.39 0.39 0.0 0 0 11.10 23.69
  L 10.97 24.14
  A 0.48 0.47 -67.8 0 0 11.19 24.67
  C 13.01 25.74 16.20 26.36 17.19 24.00
  A 2.22 2.13 -68.0 0 0 16.02 21.10
  Q 15.80 21.02 13.09 20.06
  A 1.06 1.06 0.0 0 1 12.97 18.11
  Q 14.43 17.39 16.04 18.41
  A 0.48 0.47 -54.4 0 0 16.67 18.30
  L 16.74 18.21"
/>
<path stroke="#7e7f82" vector-effect="non-scaling-stroke" d="
  M 19.34 21.12
  Q 19.34 24.56 19.37 24.95
  A 0.63 0.62 -2.3 0 0 20.00 25.52
  L 25.25 25.52
  A 0.50 0.50 0.0 0 0 25.75 25.02
  L 25.75 24.74
  A 0.41 0.40 90.0 0 0 25.35 24.33
  L 21.22 24.33
  A 0.59 0.59 0.0 0 1 20.63 23.74
  L 20.63 22.29
  A 0.65 0.65 0.0 0 1 21.32 21.64
  Q 25.96 22.01 25.81 21.12
  Q 25.96 20.23 21.32 20.60
  A 0.65 0.65 0.0 0 1 20.63 19.95
  L 20.63 18.50
  A 0.59 0.59 0.0 0 1 21.22 17.91
  L 25.35 17.91
  A 0.41 0.40 -90.0 0 0 25.75 17.50
  L 25.75 17.22
  A 0.50 0.50 0.0 0 0 25.25 16.72
  L 20.00 16.72
  A 0.63 0.62 2.3 0 0 19.38 17.29
  Q 19.34 17.68 19.34 21.12"
/>
<path stroke="#202836" stroke-opacity="0.592" vector-effect="non-scaling-stroke" d="
  M 30.38 0.00
  Q 31.12 0.85 32.00 1.27"
/>
<path stroke="#202836" stroke-opacity="0.592" vector-effect="non-scaling-stroke" d="
  M 32.00 30.38
  Q 31.56 30.92 31.14 30.94"
/>
<path stroke="#202836" stroke-opacity="0.592" vector-effect="non-scaling-stroke" d="
  M 31.14 30.94
  L 30.74 32.00"
/>
<path stroke="#202836" stroke-opacity="0.592" vector-effect="non-scaling-stroke" d="
  M 1.61 32.00
  Q 0.88 31.11 0.00 30.73"
/>
<path stroke="#7e7f82" vector-effect="non-scaling-stroke" d="
  M 13.84 10.84
  A 3.16 3.16 0.0 0 0 10.68 7.68
  A 3.16 3.16 0.0 0 0 7.52 10.84
  A 3.16 3.16 0.0 0 0 10.68 14.00
  A 3.16 3.16 0.0 0 0 13.84 10.84"
/>
</g>
<path fill="#485067" fill-opacity="0.180" d="
  M 1.27 0.00
  Q 0.80 0.88 0.00 1.61
  L 0.00 0.00
  L 1.27 0.00
  Z"
/>
<path fill="#05080d" d="
  M 1.33 0.00
  Q 15.96 1.30 30.28 0.85
  A 0.84 0.84 0.0 0 1 31.15 1.69
  L 31.14 30.94
  L 1.98 31.31
  A 1.18 1.18 0.0 0 1 0.79 30.12
  Q 0.83 18.89 0.88 3.63
  Q 0.88 2.87 0.00 3.00
  L 0.00 1.61
  Q 0.80 0.88 1.27 0.00
  Q 1.30 0.16 1.33 0.00
  Z
  M 25.07 8.18
  Q 25.44 7.29 25.45 6.71
  A 0.42 0.42 0.0 0 0 24.65 6.51
  Q 23.26 9.36 20.16 8.53
  A 1.39 1.34 78.0 0 1 19.45 8.05
  L 18.23 6.48
  A 0.33 0.33 0.0 0 0 17.82 6.40
  L 17.58 6.54
  A 0.57 0.56 59.0 0 0 17.39 7.33
  Q 20.02 11.59 24.49 8.86
  A 1.49 1.46 -5.1 0 0 25.07 8.18
  Z
  M 15.15 10.88
  A 4.47 4.47 0.0 0 0 10.68 6.41
  A 4.47 4.47 0.0 0 0 6.21 10.88
  A 4.47 4.47 0.0 0 0 10.68 15.35
  A 4.47 4.47 0.0 0 0 15.15 10.88
  Z
  M 25.8757 9.5801
  A 0.61 0.61 0.0 0 0 25.2840 8.9523
  L 25.2241 8.9505
  A 0.61 0.61 0.0 0 0 24.5962 9.5421
  L 24.4443 14.6599
  A 0.61 0.61 0.0 0 0 25.0360 15.2877
  L 25.0959 15.2895
  A 0.61 0.61 0.0 0 0 25.7238 14.6979
  L 25.8757 9.5801
  Z
  M 18.2818 9.6168
  A 0.59 0.59 0.0 0 0 17.6785 9.0404
  L 17.6385 9.0413
  A 0.59 0.59 0.0 0 0 17.0621 9.6445
  L 17.1782 14.7632
  A 0.59 0.59 0.0 0 0 17.7815 15.3396
  L 17.8215 15.3387
  A 0.59 0.59 0.0 0 0 18.3979 14.7355
  L 18.2818 9.6168
  Z
  M 8.7901 17.2935
  A 0.62 0.62 0.0 0 0 8.1734 16.6702
  L 8.1134 16.6699
  A 0.62 0.62 0.0 0 0 7.4902 17.2866
  L 7.4499 24.9865
  A 0.62 0.62 0.0 0 0 8.0666 25.6098
  L 8.1266 25.6101
  A 0.62 0.62 0.0 0 0 8.7498 24.9934
  L 8.7901 17.2935
  Z
  M 16.74 18.21
  A 0.51 0.50 36.8 0 0 16.63 17.48
  C 14.27 15.91 9.52 16.83 11.61 20.60
  A 1.31 1.30 -6.2 0 0 12.39 21.22
  L 15.16 22.00
  A 1.26 1.26 0.0 0 1 15.08 24.44
  Q 13.63 24.74 11.68 23.47
  A 0.39 0.39 0.0 0 0 11.10 23.69
  L 10.97 24.14
  A 0.48 0.47 -67.8 0 0 11.19 24.67
  C 13.01 25.74 16.20 26.36 17.19 24.00
  A 2.22 2.13 -68.0 0 0 16.02 21.10
  Q 15.80 21.02 13.09 20.06
  A 1.06 1.06 0.0 0 1 12.97 18.11
  Q 14.43 17.39 16.04 18.41
  A 0.48 0.47 -54.4 0 0 16.67 18.30
  L 16.74 18.21
  Z
  M 19.34 21.12
  Q 19.34 24.56 19.37 24.95
  A 0.63 0.62 -2.3 0 0 20.00 25.52
  L 25.25 25.52
  A 0.50 0.50 0.0 0 0 25.75 25.02
  L 25.75 24.74
  A 0.41 0.40 90.0 0 0 25.35 24.33
  L 21.22 24.33
  A 0.59 0.59 0.0 0 1 20.63 23.74
  L 20.63 22.29
  A 0.65 0.65 0.0 0 1 21.32 21.64
  Q 25.96 22.01 25.81 21.12
  Q 25.96 20.23 21.32 20.60
  A 0.65 0.65 0.0 0 1 20.63 19.95
  L 20.63 18.50
  A 0.59 0.59 0.0 0 1 21.22 17.91
  L 25.35 17.91
  A 0.41 0.40 -90.0 0 0 25.75 17.50
  L 25.75 17.22
  A 0.50 0.50 0.0 0 0 25.25 16.72
  L 20.00 16.72
  A 0.63 0.62 2.3 0 0 19.38 17.29
  Q 19.34 17.68 19.34 21.12
  Z"
/>
<path fill="#19212d" d="
  M 30.38 0.00
  Q 31.12 0.85 32.00 1.27
  L 32.00 30.38
  Q 31.56 30.92 31.14 30.94
  L 31.15 1.69
  A 0.84 0.84 0.0 0 0 30.28 0.85
  Q 15.96 1.30 1.33 0.00
  L 30.38 0.00
  Z"
/>
<path fill="#485067" fill-opacity="0.180" d="
  M 32.00 0.00
  L 32.00 1.27
  Q 31.12 0.85 30.38 0.00
  L 32.00 0.00
  Z"
/>
<path fill="#19212d" d="
  M 31.14 30.94
  L 30.74 32.00
  L 1.61 32.00
  Q 0.88 31.11 0.00 30.73
  L 0.00 3.00
  Q 0.88 2.87 0.88 3.63
  Q 0.83 18.89 0.79 30.12
  A 1.18 1.18 0.0 0 0 1.98 31.31
  L 31.14 30.94
  Z"
/>
<path fill="#a1feda" d="
  M 24.49 8.86
  Q 20.02 11.59 17.39 7.33
  A 0.57 0.56 59.0 0 1 17.58 6.54
  L 17.82 6.40
  A 0.33 0.33 0.0 0 1 18.23 6.48
  L 19.45 8.05
  A 1.39 1.34 78.0 0 0 20.16 8.53
  Q 23.26 9.36 24.65 6.51
  A 0.42 0.42 0.0 0 1 25.45 6.71
  Q 25.44 7.29 25.07 8.18
  A 1.49 1.46 -5.1 0 1 24.49 8.86
  Z"
/>
<path fill="#f6f5f7" d="
  M 15.15 10.88
  A 4.47 4.47 0.0 0 1 10.68 15.35
  A 4.47 4.47 0.0 0 1 6.21 10.88
  A 4.47 4.47 0.0 0 1 10.68 6.41
  A 4.47 4.47 0.0 0 1 15.15 10.88
  Z
  M 13.84 10.84
  A 3.16 3.16 0.0 0 0 10.68 7.68
  A 3.16 3.16 0.0 0 0 7.52 10.84
  A 3.16 3.16 0.0 0 0 10.68 14.00
  A 3.16 3.16 0.0 0 0 13.84 10.84
  Z"
/>
<circle fill="#05080d" cx="10.68" cy="10.84" r="3.16"/>
<rect fill="#f6f5f7" x="-0.64" y="-3.17" transform="translate(25.16,12.12) rotate(1.7)" width="1.28" height="6.34" rx="0.61"/>
<rect fill="#f6f5f7" x="-0.61" y="-3.15" transform="translate(17.73,12.19) rotate(-1.3)" width="1.22" height="6.30" rx="0.59"/>
<rect fill="#f6f5f7" x="-0.65" y="-4.47" transform="translate(8.12,21.14) rotate(0.3)" width="1.30" height="8.94" rx="0.62"/>
<path fill="#f6f5f7" d="
  M 16.04 18.41
  Q 14.43 17.39 12.97 18.11
  A 1.06 1.06 0.0 0 0 13.09 20.06
  Q 15.80 21.02 16.02 21.10
  A 2.22 2.13 -68.0 0 1 17.19 24.00
  C 16.20 26.36 13.01 25.74 11.19 24.67
  A 0.48 0.47 -67.8 0 1 10.97 24.14
  L 11.10 23.69
  A 0.39 0.39 0.0 0 1 11.68 23.47
  Q 13.63 24.74 15.08 24.44
  A 1.26 1.26 0.0 0 0 15.16 22.00
  L 12.39 21.22
  A 1.31 1.30 -6.2 0 1 11.61 20.60
  C 9.52 16.83 14.27 15.91 16.63 17.48
  A 0.51 0.50 36.8 0 1 16.74 18.21
  L 16.67 18.30
  A 0.48 0.47 -54.4 0 1 16.04 18.41
  Z"
/>
<path fill="#f6f5f7" d="
  M 25.81 21.12
  Q 25.96 22.01 21.32 21.64
  A 0.65 0.65 0.0 0 0 20.63 22.29
  L 20.63 23.74
  A 0.59 0.59 0.0 0 0 21.22 24.33
  L 25.35 24.33
  A 0.41 0.40 90.0 0 1 25.75 24.74
  L 25.75 25.02
  A 0.50 0.50 0.0 0 1 25.25 25.52
  L 20.00 25.52
  A 0.63 0.62 -2.3 0 1 19.37 24.95
  Q 19.34 24.56 19.34 21.12
  Q 19.34 17.68 19.38 17.29
  A 0.63 0.62 2.3 0 1 20.00 16.72
  L 25.25 16.72
  A 0.50 0.50 0.0 0 1 25.75 17.22
  L 25.75 17.50
  A 0.41 0.40 -90.0 0 1 25.35 17.91
  L 21.22 17.91
  A 0.59 0.59 0.0 0 0 20.63 18.50
  L 20.63 19.95
  A 0.65 0.65 0.0 0 0 21.32 20.60
  Q 25.96 20.23 25.81 21.12
  Z"
/>
<path fill="#485067" fill-opacity="0.180" d="
  M 32.00 30.38
  L 32.00 32.00
  L 30.74 32.00
  L 31.14 30.94
  Q 31.56 30.92 32.00 30.38
  Z"
/>
<path fill="#485067" fill-opacity="0.180" d="
  M 1.61 32.00
  L 0.00 32.00
  L 0.00 30.73
  Q 0.88 31.11 1.61 32.00
  Z"
/>
</svg>
