<svg width="140" height="33" xmlns="http://www.w3.org/2000/svg"><g fill-rule="nonzero" fill="none"><path d="M31.209 1.084l-12.555 12.69c.72 1.44 1.71 2.7 2.88 3.78l12.6-12.51c-1.26-2.385-2.925-3.96-2.925-3.96z" fill="#FFAD00"/><path d="M31.209 1.084l-3.735 3.78v.405c0 1.89.405 3.645 1.125 5.265l5.58-5.535c-1.305-2.34-2.97-3.915-2.97-3.915z" fill="#009B48"/><path d="M34.65 12.825c.765-.18 1.755-.405 3.015-.585 1.26-.225 2.7-.315 4.32-.315 1.485 0 2.7.225 3.645.63.99.405 1.755.99 2.34 1.755.585.765.99 1.665 1.215 2.7a16.39 16.39 0 01.36 3.465V30.87h-3.33v-9.765c0-1.125-.09-2.115-.225-2.925a4.93 4.93 0 00-.765-1.98 2.927 2.927 0 00-1.44-1.08c-.585-.225-1.35-.36-2.205-.36-.36 0-.72 0-1.125.045-.36.045-.72.045-1.08.09-.36.045-.63.09-.945.135-.27.045-.45.09-.585.09v15.66h-3.33V12.825h.135zm25.65 18.36c-1.485 0-2.79-.225-3.915-.72s-2.07-1.125-2.835-1.98a8.168 8.168 0 01-1.71-3.06 13.244 13.244 0 01-.585-3.915c0-1.44.225-2.745.63-3.915a9.584 9.584 0 011.755-3.105c.765-.855 1.71-1.53 2.79-2.025 1.125-.495 2.34-.72 3.69-.72.81 0 1.665.09 2.475.225s1.62.36 2.385.675l-.765 2.835a8.46 8.46 0 00-1.71-.585 10.06 10.06 0 00-2.07-.225c-1.845 0-3.285.585-4.23 1.755-.99 1.17-1.485 2.88-1.485 5.13 0 .99.135 1.935.36 2.745.225.855.585 1.53 1.08 2.16.495.585 1.125 1.035 1.845 1.395.765.315 1.665.495 2.79.495a9.92 9.92 0 002.385-.27c.72-.18 1.26-.36 1.665-.54l.45 2.79c-.18.135-.45.225-.81.36-.36.09-.765.18-1.215.27-.45.09-.945.135-1.44.225-.54-.045-1.035 0-1.53 0m18.315-11.52c.045-1.485-.36-2.745-1.125-3.69-.765-.945-1.8-1.44-3.15-1.44-.765 0-1.44.135-1.98.45-.585.315-1.08.675-1.485 1.17a5.515 5.515 0 00-.945 1.665c-.225.63-.36 1.26-.45 1.89l9.135-.045zm-12.6 1.845c0-1.665.225-3.06.72-4.32.45-1.215 1.08-2.25 1.89-3.06a7.415 7.415 0 012.7-1.845c1.035-.405 2.07-.63 3.105-.63 2.475 0 4.365.765 5.67 2.34 1.305 1.575 1.98 3.96 1.98 7.11v.54c0 .225 0 .45-.045.63h-12.6c.135 1.935.675 3.375 1.665 4.41.945.99 2.475 1.485 4.545 1.485 1.17 0 2.115-.09 2.925-.315a9.341 9.341 0 001.8-.585l.45 2.79c-.405.225-1.08.45-2.115.675-.99.225-2.16.36-3.42.36-1.62 0-2.97-.225-4.14-.72-1.17-.495-2.115-1.17-2.88-2.025-.765-.855-1.305-1.89-1.665-3.06-.405-1.08-.585-2.385-.585-3.78zM99.63 6.12h3.42v24.705h-3.42v-11.43H87.66v11.43h-3.42V6.12h3.42v10.305h11.97V6.12zm21.33 24.12c-.765.18-1.755.405-3.015.585-1.26.225-2.7.315-4.32.315-1.44 0-2.61-.225-3.6-.63-.99-.405-1.755-.99-2.34-1.755a6.798 6.798 0 01-1.26-2.7c-.27-1.035-.405-2.16-.405-3.42V12.24h3.33v9.675c0 2.25.36 3.87 1.08 4.86.72.99 1.89 1.44 3.6 1.44.36 0 .72 0 1.125-.045.36-.045.72-.045 1.08-.09.315-.045.63-.09.9-.09.27-.045.45-.09.585-.135V12.24h3.33v18h-.09zm6.075-2.385c.315.09.81.18 1.395.27.585.09 1.35.135 2.25.135 1.755 0 3.195-.585 4.23-1.755 1.08-1.17 1.575-2.835 1.575-4.995 0-.945-.09-1.845-.27-2.655a6.639 6.639 0 00-.9-2.16c-.405-.585-.99-1.08-1.665-1.44-.675-.36-1.485-.495-2.43-.495-.9 0-1.71.135-2.475.45-.765.315-1.35.63-1.755.945v11.7h.045zm0-14.76c.405-.27.99-.54 1.845-.81.81-.27 1.755-.405 2.835-.405 1.305 0 2.52.225 3.51.72 1.035.495 1.89 1.125 2.61 1.98s1.26 1.89 1.62 3.06c.36 1.17.54 2.475.54 3.915 0 1.485-.225 2.835-.675 4.05a9.417 9.417 0 01-1.845 3.06c-.81.81-1.755 1.485-2.925 1.935-1.125.45-2.43.675-3.825.675-1.53 0-2.88-.09-4.095-.315-1.17-.225-2.16-.405-2.925-.63V3.735l3.285-.585v9.945h.045zm-94.95-.27l-3.24.675c.18.9.27 1.8.27 2.7 0 1.17-.18 2.295-.45 3.42-.45 1.53-1.125 3.015-2.115 4.32a12.784 12.784 0 01-18 2.61c-2.025-1.53-3.51-3.6-4.365-5.94a13.733 13.733 0 01-.765-4.05c-.045-1.935.36-3.87 1.125-5.625.405-.855.855-1.665 1.44-2.43 3.915-5.22 11.07-6.66 16.605-3.42.27.135.495.315.72.45l1.845-2.745c-.315-.225-.63-.405-.945-.585C17.37-1.845 8.37-.135 3.42 6.48c-.72.99-1.35 2.025-1.8 3.06C.585 11.79.135 14.22.18 16.65a16.23 16.23 0 006.435 12.555c7.11 5.4 17.235 3.96 22.635-3.195 1.26-1.665 2.16-3.51 2.655-5.445.405-1.395.585-2.88.585-4.32a22.15 22.15 0 00-.405-3.42z" fill="#404042"/><path d="M25.989 13.099a17 17 0 00-4.14-2.52l-5.355 5.4-4.725-6.165-2.745 3.78 7.065 9.36 9.9-9.855z" fill="#B731A9"/><path d="M9.024 13.594l7.065 9.36 3.015-3.015c.09-.585.18-1.17.18-1.755a9.57 9.57 0 00-.9-4.095l-1.89 1.89-4.725-6.165-2.745 3.78z" fill="#009BDE"/></g></svg>