<?xml version="1.0" encoding="UTF-8" standalone="no"?>
<!DOCTYPE svg PUBLIC "-//W3C//DTD SVG 1.1//EN" "http://www.w3.org/Graphics/SVG/1.1/DTD/svg11.dtd">
<svg xmlns="http://www.w3.org/2000/svg" version="1.1" viewBox="0.00 0.00 32.00 32.00">
<g stroke-width="2.00" fill="none" stroke-linecap="butt">
<path stroke="#7f5fff" vector-effect="non-scaling-stroke" d="
  M 19.63 2.32
  L 11.66 6.86
  A 0.30 0.29 45.3 0 0 11.66 7.37
  L 19.90 12.15"
/>
<path stroke="#644fb9" vector-effect="non-scaling-stroke" d="
  M 19.90 12.15
  Q 20.55 12.42 21.16 13.08"
/>
<path stroke="#7f5fff" vector-effect="non-scaling-stroke" d="
  M 21.16 13.08
  L 15.89 15.92"
/>
<path stroke="#644fb9" vector-effect="non-scaling-stroke" d="
  M 15.89 15.92
  L 2.24 7.98"
/>
<path stroke="#7f5fff" vector-effect="non-scaling-stroke" d="
  M 20.26 7.00
  L 20.22 7.37"
/>
<path stroke="#4528b9" vector-effect="non-scaling-stroke" d="
  M 20.22 7.37
  L 19.95 7.30
  A 0.08 0.07 2.9 0 0 19.86 7.38
  L 19.90 12.15"
/>
<path stroke="#4528b9" vector-effect="non-scaling-stroke" d="
  M 25.29 10.30
  L 25.39 20.67
  A 0.44 0.40 69.2 0 1 25.27 20.97
  L 25.05 21.19"
/>
<path stroke="#644fb9" vector-effect="non-scaling-stroke" d="
  M 25.05 21.19
  L 21.28 18.98"
/>
<path stroke="#4528b9" vector-effect="non-scaling-stroke" d="
  M 21.28 18.98
  L 21.16 13.08"
/>
<path stroke="#4528b9" vector-effect="non-scaling-stroke" d="
  M 15.89 15.92
  L 15.98 21.87"
/>
<path stroke="#644fb9" vector-effect="non-scaling-stroke" d="
  M 15.98 21.87
  L 14.80 21.36"
/>
<path stroke="#4528b9" vector-effect="non-scaling-stroke" d="
  M 14.80 21.36
  L 6.75 16.64
  A 0.29 0.28 -73.8 0 0 6.32 16.88
  L 6.26 26.25"
/>
<path stroke="#7f5fff" vector-effect="non-scaling-stroke" d="
  M 21.28 18.98
  L 15.98 21.87"
/>
<path stroke="#7f5fff" vector-effect="non-scaling-stroke" d="
  M 29.65 7.74
  Q 27.32 9.81 25.29 10.30"
/>
<path stroke="#644fb9" vector-effect="non-scaling-stroke" d="
  M 25.29 10.30
  L 20.22 7.37"
/>
<path stroke="#644fb9" vector-effect="non-scaling-stroke" d="
  M 15.76 26.90
  L 11.27 24.16"
/>
<path stroke="#4528b9" vector-effect="non-scaling-stroke" d="
  M 15.67 32.01
  Q 16.36 28.66 15.76 26.90"
/>
<path stroke="#7f5fff" vector-effect="non-scaling-stroke" d="
  M 15.76 26.90
  L 24.59 22.02
  A 0.84 0.80 -8.0 0 0 24.98 21.53
  Q 25.03 21.36 25.05 21.19"
/>
<path stroke="#7f5fff" vector-effect="non-scaling-stroke" d="
  M 14.80 21.36
  Q 12.23 22.78 11.38 23.38
  Q 11.10 23.58 11.27 24.16"
/>
<path stroke="#4528b9" vector-effect="non-scaling-stroke" d="
  M 11.27 24.16
  Q 10.87 24.23 10.55 24.12"
/>
</g>
<path fill="#9e85ff" d="
  M 19.63 2.32
  L 11.66 6.86
  A 0.30 0.29 45.3 0 0 11.66 7.37
  L 19.90 12.15
  Q 20.55 12.42 21.16 13.08
  L 15.89 15.92
  L 2.24 7.98
  L 15.23 0.47
  A 1.48 1.47 -51.0 0 1 16.40 0.34
  Q 18.17 0.89 19.63 2.32
  Z"
/>
<path fill="#6038ff" d="
  M 20.26 7.00
  L 20.22 7.37
  L 19.95 7.30
  A 0.08 0.07 2.9 0 0 19.86 7.38
  L 19.90 12.15
  L 11.66 7.37
  A 0.30 0.29 45.3 0 1 11.66 6.86
  L 19.63 2.32
  L 19.83 6.91
  A 0.20 0.17 23.7 0 0 19.90 7.05
  Q 20.09 7.21 20.26 7.00
  Z"
/>
<path fill="#9e85ff" d="
  M 29.65 7.74
  Q 27.32 9.81 25.29 10.30
  L 20.22 7.37
  L 20.26 7.00
  L 23.47 5.00
  A 0.89 0.89 0.0 0 1 24.35 4.96
  L 29.65 7.74
  Z"
/>
<path fill="#2a1872" d="
  M 20.22 7.37
  L 25.29 10.30
  L 25.39 20.67
  A 0.44 0.40 69.2 0 1 25.27 20.97
  L 25.05 21.19
  L 21.28 18.98
  L 21.16 13.08
  Q 20.55 12.42 19.90 12.15
  L 19.86 7.38
  A 0.08 0.07 2.9 0 1 19.95 7.30
  L 20.22 7.37
  Z"
/>
<path fill="#6038ff" d="
  M 29.65 7.74
  L 29.86 23.37
  A 0.99 0.98 -15.5 0 1 29.36 24.24
  L 15.67 32.01
  Q 16.36 28.66 15.76 26.90
  L 24.59 22.02
  A 0.84 0.80 -8.0 0 0 24.98 21.53
  Q 25.03 21.36 25.05 21.19
  L 25.27 20.97
  A 0.44 0.40 69.2 0 0 25.39 20.67
  L 25.29 10.30
  Q 27.32 9.81 29.65 7.74
  Z"
/>
<path fill="#2a1872" d="
  M 2.24 7.98
  L 15.89 15.92
  L 15.98 21.87
  L 14.80 21.36
  L 6.75 16.64
  A 0.29 0.28 -73.8 0 0 6.32 16.88
  L 6.26 26.25
  L 2.66 24.27
  A 0.85 0.85 0.0 0 1 2.21 23.52
  L 2.24 7.98
  Z"
/>
<path fill="#6038ff" d="
  M 21.16 13.08
  L 21.28 18.98
  L 15.98 21.87
  L 15.89 15.92
  L 21.16 13.08
  Z"
/>
<path fill="#6038ff" d="
  M 14.80 21.36
  Q 12.23 22.78 11.38 23.38
  Q 11.10 23.58 11.27 24.16
  Q 10.87 24.23 10.55 24.12
  Q 10.07 23.88 9.55 24.27
  Q 8.03 25.39 6.26 26.25
  L 6.32 16.88
  A 0.29 0.28 -73.8 0 1 6.75 16.64
  L 14.80 21.36
  Z"
/>
<path fill="#9e85ff" d="
  M 21.28 18.98
  L 25.05 21.19
  Q 25.03 21.36 24.98 21.53
  A 0.84 0.80 -8.0 0 1 24.59 22.02
  L 15.76 26.90
  L 11.27 24.16
  Q 11.10 23.58 11.38 23.38
  Q 12.23 22.78 14.80 21.36
  L 15.98 21.87
  L 21.28 18.98
  Z"
/>
<path fill="#2a1872" d="
  M 11.27 24.16
  L 15.76 26.90
  Q 16.36 28.66 15.67 32.01
  L 11.02 29.08
  A 0.91 0.89 15.8 0 1 10.60 28.34
  L 10.55 24.12
  Q 10.87 24.23 11.27 24.16
  Z"
/>
</svg>
