<svg width="128" height="128" viewBox="0 0 128 128" fill="none" xmlns="http://www.w3.org/2000/svg">
<g clip-path="url(#clip0_240_6581)">
<g clip-path="url(#clip1_240_6581)">
<path d="M64.5121 0.640121C29.1841 0.384121 0.384121 29.1841 0.640121 64.5121C0.896121 98.9441 29.0561 126.976 63.4881 127.36C98.9441 127.616 127.744 98.8161 127.36 63.4881C127.104 29.0561 98.9441 0.896121 64.5121 0.640121Z" fill="#2081E2"/>
<path d="M45.568 33.1519C49.536 38.1439 51.84 44.4159 51.84 51.3279C51.84 57.2159 50.048 62.7199 47.104 67.3279H25.856L45.568 33.1519Z" fill="white"/>
<path d="M110.464 74.8799C110.464 75.1359 110.336 75.3919 110.08 75.5199C108.672 76.1599 103.936 78.3359 101.888 81.1519C96.768 88.1919 92.9281 99.4559 84.2241 99.4559H47.744C34.816 99.4559 24.064 89.2159 24.192 75.6479C24.192 75.2639 24.448 75.0079 24.832 75.0079H41.984C42.624 75.0079 43.008 75.5199 43.008 76.0319V79.3599C43.008 81.1519 44.416 82.5599 46.208 82.5599H59.264V75.0079H50.304C55.424 68.4799 58.496 60.2879 58.496 51.3279C58.496 41.3439 54.656 32.2559 48.384 25.4719C52.224 25.8559 55.8081 26.6239 59.136 27.6479V25.4719C59.136 23.2959 60.928 21.5039 63.104 21.5039C65.28 21.5039 67.072 23.2959 67.072 25.4719V30.5919C79.232 36.2239 87.296 45.6959 87.296 56.4479C87.296 62.7199 84.6081 68.6079 79.8721 73.4719C78.9761 74.3679 77.696 74.8799 76.416 74.8799H67.2V82.4319H78.72C81.152 82.4319 85.632 77.6959 87.808 74.8799C87.808 74.8799 87.9361 74.7519 88.192 74.6239C88.4481 74.4959 109.44 69.7599 109.44 69.7599C109.824 69.6319 110.336 70.0159 110.336 70.3999L110.464 74.8799Z" fill="white"/>
</g>
</g>
<defs>
<clipPath id="clip0_240_6581">
<rect width="128" height="128" fill="white"/>
</clipPath>
<clipPath id="clip1_240_6581">
<rect width="128" height="128" fill="white"/>
</clipPath>
</defs>
</svg>
