<?xml version="1.0" encoding="UTF-8" standalone="no"?>
<!DOCTYPE svg PUBLIC "-//W3C//DTD SVG 1.1//EN" "http://www.w3.org/Graphics/SVG/1.1/DTD/svg11.dtd">
<svg xmlns="http://www.w3.org/2000/svg" version="1.1" viewBox="0.00 0.00 400.00 400.00">
<g stroke-width="2.00" fill="none" stroke-linecap="butt">
<path stroke="#023b6a" vector-effect="non-scaling-stroke" d="
  M 213.17 58.25
  A 0.18 0.18 0.0 0 0 213.17 57.90
  C 156.77 49.80 104.57 93.65 98.52 149.49
  C 93.70 193.91 120.36 233.05 165.11 241.10
  Q 165.54 241.18 166.19 241.07
  A 0.27 0.27 0.0 0 0 166.29 240.57
  Q 140.10 226.29 126.19 200.37
  C 108.62 167.60 112.05 125.16 135.45 95.83
  Q 161.55 63.09 203.73 58.68
  C 207.23 58.31 210.15 58.65 213.17 58.25"
/>
<path stroke="#023b6a" vector-effect="non-scaling-stroke" d="
  M 302.24 100.35
  A 0.18 0.18 0.0 0 0 302.46 100.08
  C 264.65 57.54 196.55 57.34 155.92 96.04
  C 123.61 126.83 118.72 173.89 147.67 208.88
  Q 147.94 209.22 148.51 209.57
  A 0.27 0.27 0.0 0 0 148.90 209.24
  Q 138.13 181.46 144.23 152.72
  C 151.96 116.38 181.94 86.20 218.71 78.91
  Q 259.73 70.76 294.76 94.59
  C 297.67 96.57 299.68 98.71 302.24 100.35"
/>
<path stroke="#023b6a" vector-effect="non-scaling-stroke" d="
  M 119.01 82.54
  A 0.18 0.18 0.0 0 0 118.78 82.27
  C 69.97 111.90 57.48 179.07 88.33 226.15
  C 112.88 263.59 158.43 276.92 198.19 254.67
  Q 198.58 254.46 199.02 253.96
  A 0.27 0.27 0.0 0 0 198.77 253.51
  Q 169.41 259.13 142.14 247.92
  C 107.68 233.73 83.32 198.70 82.76 161.10
  Q 82.13 119.15 111.98 88.88
  C 114.45 86.37 116.93 84.77 119.01 82.54"
/>
<path stroke="#023b6a" vector-effect="non-scaling-stroke" d="
  M 343.61 190.86
  A 0.18 0.18 0.0 0 0 343.96 190.80
  C 342.90 133.74 291.16 89.18 234.98 92.17
  C 190.29 94.55 155.88 127.20 155.11 172.73
  Q 155.10 173.17 155.31 173.80
  A 0.27 0.27 0.0 0 0 155.82 173.81
  Q 165.73 145.63 189.12 127.71
  C 218.70 105.07 261.21 101.64 293.97 120.06
  Q 330.53 140.60 341.67 181.60
  C 342.60 185.00 342.73 187.94 343.61 190.86"
/>
<path stroke="#023b6a" vector-effect="non-scaling-stroke" d="
  M 317.60 284.63
  A 0.18 0.18 0.0 0 0 317.91 284.81
  C 353.24 239.99 341.43 172.73 296.07 139.46
  C 259.98 112.99 212.68 116.45 183.24 151.19
  Q 182.95 151.53 182.71 152.15
  A 0.27 0.27 0.0 0 0 183.10 152.48
  Q 208.62 136.95 238.07 137.90
  C 275.30 139.12 310.37 163.40 324.05 198.41
  Q 339.32 237.46 321.97 276.24
  C 320.53 279.46 318.77 281.82 317.60 284.63"
/>
<path stroke="#023b6a" vector-effect="non-scaling-stroke" d="
  M 236.77 340.54
  A 0.18 0.18 0.0 0 0 236.89 340.88
  C 292.69 329.34 326.90 270.36 313.63 215.78
  C 303.07 172.37 264.70 144.61 219.88 152.23
  Q 219.44 152.30 218.86 152.63
  A 0.27 0.27 0.0 0 0 218.95 153.13
  Q 248.42 157.67 270.31 177.32
  C 297.97 202.18 309.16 243.27 297.11 278.80
  Q 283.68 318.46 245.50 336.94
  C 242.33 338.47 239.47 339.14 236.77 340.54"
/>
<path stroke="#023b6a" vector-effect="non-scaling-stroke" d="
  M 61.50 163.81
  A 0.18 0.18 0.0 0 0 61.15 163.75
  C 43.38 217.84 77.45 276.83 131.35 292.49
  C 174.22 304.95 217.37 285.52 233.07 242.89
  Q 233.23 242.48 233.23 241.81
  A 0.27 0.27 0.0 0 0 232.76 241.64
  Q 214.16 264.92 186.23 274.10
  C 150.92 285.70 109.76 274.94 84.96 246.82
  Q 57.28 215.45 60.28 173.17
  C 60.52 169.66 61.37 166.85 61.50 163.81"
/>
<path stroke="#023b6a" vector-effect="non-scaling-stroke" d="
  M 138.49 331.37
  A 0.18 0.18 0.0 0 0 138.37 331.70
  C 188.51 358.86 252.71 335.80 277.76 285.48
  C 297.68 245.45 286.23 199.46 247.02 176.38
  Q 246.64 176.16 245.99 176.03
  A 0.27 0.27 0.0 0 0 245.73 176.47
  Q 265.36 198.95 269.43 228.11
  C 274.56 264.97 256.62 303.62 224.48 323.04
  Q 188.63 344.73 147.50 334.24
  C 144.08 333.37 141.46 332.04 138.49 331.37"
/>
<path stroke="#023b6a" vector-effect="non-scaling-stroke" d="
  M 69.09 260.76
  A 0.18 0.18 0.0 0 0 68.78 260.93
  C 89.50 314.13 153.47 338.07 205.18 315.84
  C 246.30 298.16 267.32 255.62 252.30 212.61
  Q 252.16 212.20 251.74 211.68
  A 0.27 0.27 0.0 0 0 251.26 211.85
  Q 251.70 241.72 235.94 266.63
  C 216.00 298.11 177.28 316.02 140.16 310.06
  Q 98.74 303.41 74.11 268.78
  C 72.06 265.91 70.93 263.19 69.09 260.76"
/>
</g>
<path fill="#000000" d="
  M 400.00 0.00
  L 400.00 400.00
  L 0.00 400.00
  L 0.00 0.00
  L 400.00 0.00
  Z
  M 213.17 58.25
  A 0.18 0.18 0.0 0 0 213.17 57.90
  C 156.77 49.80 104.57 93.65 98.52 149.49
  C 93.70 193.91 120.36 233.05 165.11 241.10
  Q 165.54 241.18 166.19 241.07
  A 0.27 0.27 0.0 0 0 166.29 240.57
  Q 140.10 226.29 126.19 200.37
  C 108.62 167.60 112.05 125.16 135.45 95.83
  Q 161.55 63.09 203.73 58.68
  C 207.23 58.31 210.15 58.65 213.17 58.25
  Z
  M 302.24 100.35
  A 0.18 0.18 0.0 0 0 302.46 100.08
  C 264.65 57.54 196.55 57.34 155.92 96.04
  C 123.61 126.83 118.72 173.89 147.67 208.88
  Q 147.94 209.22 148.51 209.57
  A 0.27 0.27 0.0 0 0 148.90 209.24
  Q 138.13 181.46 144.23 152.72
  C 151.96 116.38 181.94 86.20 218.71 78.91
  Q 259.73 70.76 294.76 94.59
  C 297.67 96.57 299.68 98.71 302.24 100.35
  Z
  M 119.01 82.54
  A 0.18 0.18 0.0 0 0 118.78 82.27
  C 69.97 111.90 57.48 179.07 88.33 226.15
  C 112.88 263.59 158.43 276.92 198.19 254.67
  Q 198.58 254.46 199.02 253.96
  A 0.27 0.27 0.0 0 0 198.77 253.51
  Q 169.41 259.13 142.14 247.92
  C 107.68 233.73 83.32 198.70 82.76 161.10
  Q 82.13 119.15 111.98 88.88
  C 114.45 86.37 116.93 84.77 119.01 82.54
  Z
  M 343.61 190.86
  A 0.18 0.18 0.0 0 0 343.96 190.80
  C 342.90 133.74 291.16 89.18 234.98 92.17
  C 190.29 94.55 155.88 127.20 155.11 172.73
  Q 155.10 173.17 155.31 173.80
  A 0.27 0.27 0.0 0 0 155.82 173.81
  Q 165.73 145.63 189.12 127.71
  C 218.70 105.07 261.21 101.64 293.97 120.06
  Q 330.53 140.60 341.67 181.60
  C 342.60 185.00 342.73 187.94 343.61 190.86
  Z
  M 317.60 284.63
  A 0.18 0.18 0.0 0 0 317.91 284.81
  C 353.24 239.99 341.43 172.73 296.07 139.46
  C 259.98 112.99 212.68 116.45 183.24 151.19
  Q 182.95 151.53 182.71 152.15
  A 0.27 0.27 0.0 0 0 183.10 152.48
  Q 208.62 136.95 238.07 137.90
  C 275.30 139.12 310.37 163.40 324.05 198.41
  Q 339.32 237.46 321.97 276.24
  C 320.53 279.46 318.77 281.82 317.60 284.63
  Z
  M 236.77 340.54
  A 0.18 0.18 0.0 0 0 236.89 340.88
  C 292.69 329.34 326.90 270.36 313.63 215.78
  C 303.07 172.37 264.70 144.61 219.88 152.23
  Q 219.44 152.30 218.86 152.63
  A 0.27 0.27 0.0 0 0 218.95 153.13
  Q 248.42 157.67 270.31 177.32
  C 297.97 202.18 309.16 243.27 297.11 278.80
  Q 283.68 318.46 245.50 336.94
  C 242.33 338.47 239.47 339.14 236.77 340.54
  Z
  M 61.50 163.81
  A 0.18 0.18 0.0 0 0 61.15 163.75
  C 43.38 217.84 77.45 276.83 131.35 292.49
  C 174.22 304.95 217.37 285.52 233.07 242.89
  Q 233.23 242.48 233.23 241.81
  A 0.27 0.27 0.0 0 0 232.76 241.64
  Q 214.16 264.92 186.23 274.10
  C 150.92 285.70 109.76 274.94 84.96 246.82
  Q 57.28 215.45 60.28 173.17
  C 60.52 169.66 61.37 166.85 61.50 163.81
  Z
  M 138.49 331.37
  A 0.18 0.18 0.0 0 0 138.37 331.70
  C 188.51 358.86 252.71 335.80 277.76 285.48
  C 297.68 245.45 286.23 199.46 247.02 176.38
  Q 246.64 176.16 245.99 176.03
  A 0.27 0.27 0.0 0 0 245.73 176.47
  Q 265.36 198.95 269.43 228.11
  C 274.56 264.97 256.62 303.62 224.48 323.04
  Q 188.63 344.73 147.50 334.24
  C 144.08 333.37 141.46 332.04 138.49 331.37
  Z
  M 69.09 260.76
  A 0.18 0.18 0.0 0 0 68.78 260.93
  C 89.50 314.13 153.47 338.07 205.18 315.84
  C 246.30 298.16 267.32 255.62 252.30 212.61
  Q 252.16 212.20 251.74 211.68
  A 0.27 0.27 0.0 0 0 251.26 211.85
  Q 251.70 241.72 235.94 266.63
  C 216.00 298.11 177.28 316.02 140.16 310.06
  Q 98.74 303.41 74.11 268.78
  C 72.06 265.91 70.93 263.19 69.09 260.76
  Z"
/>
<path fill="#0476d3" d="
  M 213.17 58.25
  C 210.15 58.65 207.23 58.31 203.73 58.68
  Q 161.55 63.09 135.45 95.83
  C 112.05 125.16 108.62 167.60 126.19 200.37
  Q 140.10 226.29 166.29 240.57
  A 0.27 0.27 0.0 0 1 166.19 241.07
  Q 165.54 241.18 165.11 241.10
  C 120.36 233.05 93.70 193.91 98.52 149.49
  C 104.57 93.65 156.77 49.80 213.17 57.90
  A 0.18 0.18 0.0 0 1 213.17 58.25
  Z"
/>
<path fill="#0476d3" d="
  M 302.24 100.35
  C 299.68 98.71 297.67 96.57 294.76 94.59
  Q 259.73 70.76 218.71 78.91
  C 181.94 86.20 151.96 116.38 144.23 152.72
  Q 138.13 181.46 148.90 209.24
  A 0.27 0.27 0.0 0 1 148.51 209.57
  Q 147.94 209.22 147.67 208.88
  C 118.72 173.89 123.61 126.83 155.92 96.04
  C 196.55 57.34 264.65 57.54 302.46 100.08
  A 0.18 0.18 0.0 0 1 302.24 100.35
  Z"
/>
<path fill="#0476d3" d="
  M 119.01 82.54
  C 116.93 84.77 114.45 86.37 111.98 88.88
  Q 82.13 119.15 82.76 161.10
  C 83.32 198.70 107.68 233.73 142.14 247.92
  Q 169.41 259.13 198.77 253.51
  A 0.27 0.27 0.0 0 1 199.02 253.96
  Q 198.58 254.46 198.19 254.67
  C 158.43 276.92 112.88 263.59 88.33 226.15
  C 57.48 179.07 69.97 111.90 118.78 82.27
  A 0.18 0.18 0.0 0 1 119.01 82.54
  Z"
/>
<path fill="#0476d3" d="
  M 343.61 190.86
  C 342.73 187.94 342.60 185.00 341.67 181.60
  Q 330.53 140.60 293.97 120.06
  C 261.21 101.64 218.70 105.07 189.12 127.71
  Q 165.73 145.63 155.82 173.81
  A 0.27 0.27 0.0 0 1 155.31 173.80
  Q 155.10 173.17 155.11 172.73
  C 155.88 127.20 190.29 94.55 234.98 92.17
  C 291.16 89.18 342.90 133.74 343.96 190.80
  A 0.18 0.18 0.0 0 1 343.61 190.86
  Z"
/>
<path fill="#0476d3" d="
  M 317.60 284.63
  C 318.77 281.82 320.53 279.46 321.97 276.24
  Q 339.32 237.46 324.05 198.41
  C 310.37 163.40 275.30 139.12 238.07 137.90
  Q 208.62 136.95 183.10 152.48
  A 0.27 0.27 0.0 0 1 182.71 152.15
  Q 182.95 151.53 183.24 151.19
  C 212.68 116.45 259.98 112.99 296.07 139.46
  C 341.43 172.73 353.24 239.99 317.91 284.81
  A 0.18 0.18 0.0 0 1 317.60 284.63
  Z"
/>
<path fill="#0476d3" d="
  M 236.77 340.54
  C 239.47 339.14 242.33 338.47 245.50 336.94
  Q 283.68 318.46 297.11 278.80
  C 309.16 243.27 297.97 202.18 270.31 177.32
  Q 248.42 157.67 218.95 153.13
  A 0.27 0.27 0.0 0 1 218.86 152.63
  Q 219.44 152.30 219.88 152.23
  C 264.70 144.61 303.07 172.37 313.63 215.78
  C 326.90 270.36 292.69 329.34 236.89 340.88
  A 0.18 0.18 0.0 0 1 236.77 340.54
  Z"
/>
<path fill="#0476d3" d="
  M 61.50 163.81
  C 61.37 166.85 60.52 169.66 60.28 173.17
  Q 57.28 215.45 84.96 246.82
  C 109.76 274.94 150.92 285.70 186.23 274.10
  Q 214.16 264.92 232.76 241.64
  A 0.27 0.27 0.0 0 1 233.23 241.81
  Q 233.23 242.48 233.07 242.89
  C 217.37 285.52 174.22 304.95 131.35 292.49
  C 77.45 276.83 43.38 217.84 61.15 163.75
  A 0.18 0.18 0.0 0 1 61.50 163.81
  Z"
/>
<path fill="#0476d3" d="
  M 138.49 331.37
  C 141.46 332.04 144.08 333.37 147.50 334.24
  Q 188.63 344.73 224.48 323.04
  C 256.62 303.62 274.56 264.97 269.43 228.11
  Q 265.36 198.95 245.73 176.47
  A 0.27 0.27 0.0 0 1 245.99 176.03
  Q 246.64 176.16 247.02 176.38
  C 286.23 199.46 297.68 245.45 277.76 285.48
  C 252.71 335.80 188.51 358.86 138.37 331.70
  A 0.18 0.18 0.0 0 1 138.49 331.37
  Z"
/>
<path fill="#0476d3" d="
  M 69.09 260.76
  C 70.93 263.19 72.06 265.91 74.11 268.78
  Q 98.74 303.41 140.16 310.06
  C 177.28 316.02 216.00 298.11 235.94 266.63
  Q 251.70 241.72 251.26 211.85
  A 0.27 0.27 0.0 0 1 251.74 211.68
  Q 252.16 212.20 252.30 212.61
  C 267.32 255.62 246.30 298.16 205.18 315.84
  C 153.47 338.07 89.50 314.13 68.78 260.93
  A 0.18 0.18 0.0 0 1 69.09 260.76
  Z"
/>
</svg>
