<?xml version="1.0" encoding="UTF-8" standalone="no"?>
<!DOCTYPE svg PUBLIC "-//W3C//DTD SVG 1.1//EN" "http://www.w3.org/Graphics/SVG/1.1/DTD/svg11.dtd">
<svg xmlns="http://www.w3.org/2000/svg" version="1.1" viewBox="0.00 0.00 400.00 400.00">
<g stroke-width="2.00" fill="none" stroke-linecap="butt">
<path stroke="#f381b3" vector-effect="non-scaling-stroke" d="
  M 194.39 0.00
  Q 194.28 0.27 194.05 0.14"
/>
<path stroke="#e684c3" vector-effect="non-scaling-stroke" d="
  M 194.05 0.14
  Q 166.49 0.80 140.28 9.04"
/>
<path stroke="#dc87cf" vector-effect="non-scaling-stroke" d="
  M 140.28 9.04
  Q 112.23 17.82 88.00 34.23"
/>
<path stroke="#d189dc" vector-effect="non-scaling-stroke" d="
  M 88.00 34.23
  Q 54.88 56.74 32.88 90.07"
/>
<path stroke="#c18cee" vector-effect="non-scaling-stroke" d="
  M 32.88 90.07
  Q 17.13 113.93 8.72 141.26"
/>
<path stroke="#b58ffc" vector-effect="non-scaling-stroke" d="
  M 8.72 141.26
  Q 1.15 166.30 0.00 192.64"
/>
<path stroke="#f381b3" vector-effect="non-scaling-stroke" d="
  M 205.47 0.00
  C 268.90 1.90 327.28 33.32 363.52 84.73
  Q 398.02 133.68 400.00 194.51"
/>
<path stroke="#f381b3" vector-effect="non-scaling-stroke" d="
  M 400.00 205.13
  L 397.85 230.06"
/>
<path stroke="#de0571" vector-effect="non-scaling-stroke" d="
  M 397.85 230.06
  Q 380.83 208.56 363.99 187.08
  Q 350.55 169.92 330.63 138.16
  A 1.84 1.83 -61.8 0 1 330.35 137.22
  Q 329.98 123.12 330.17 110.30
  Q 330.27 104.38 328.88 98.69"
/>
<path stroke="#f381b3" vector-effect="non-scaling-stroke" d="
  M 328.88 98.69
  L 328.72 91.85
  A 0.43 0.43 0.0 0 0 328.29 91.43
  Q 316.56 91.52 304.76 91.36
  Q 301.44 91.32 299.59 93.33
  Q 289.93 103.81 280.29 114.27"
/>
<path stroke="#da0676" vector-effect="non-scaling-stroke" d="
  M 280.29 114.27
  C 252.76 78.07 235.75 58.41 219.00 33.94
  Q 207.16 16.63 194.05 0.14"
/>
<path stroke="#e684c3" vector-effect="non-scaling-stroke" d="
  M 280.29 114.27
  L 255.39 141.33
  A 1.11 1.10 41.6 0 1 253.86 141.42
  Q 243.37 132.47 230.02 127.02"
/>
<path stroke="#c30c92" vector-effect="non-scaling-stroke" d="
  M 230.02 127.02
  Q 212.66 106.46 208.03 100.25
  Q 188.36 73.93 162.06 41.96
  Q 150.11 27.44 140.28 9.04"
/>
<path stroke="#dc87cf" vector-effect="non-scaling-stroke" d="
  M 230.02 127.02
  Q 193.49 113.76 159.52 132.01"
/>
<path stroke="#ad11ab" vector-effect="non-scaling-stroke" d="
  M 159.52 132.01
  Q 151.08 116.26 138.69 101.30
  Q 127.32 87.57 106.41 61.00
  Q 98.66 51.17 88.00 34.23"
/>
<path stroke="#d189dc" vector-effect="non-scaling-stroke" d="
  M 159.52 132.01
  L 146.11 141.48
  A 1.26 1.24 50.9 0 1 144.47 141.30
  Q 122.55 117.53 100.30 93.45
  Q 98.58 91.59 96.99 91.58
  Q 84.64 91.53 71.82 91.58
  A 0.54 0.54 0.0 0 0 71.28 92.12
  L 71.05 147.76"
/>
<path stroke="#9216ca" vector-effect="non-scaling-stroke" d="
  M 71.05 147.76
  C 66.85 134.24 62.30 124.17 53.10 113.59
  Q 43.00 101.98 32.88 90.07"
/>
<path stroke="#c18cee" vector-effect="non-scaling-stroke" d="
  M 71.05 147.76
  Q 71.19 174.94 71.06 202.25
  Q 71.01 213.71 73.07 226.81"
/>
<path stroke="#771ceb" vector-effect="non-scaling-stroke" d="
  M 73.07 226.81
  Q 66.26 212.72 63.87 208.40
  Q 54.00 190.58 38.77 173.37
  Q 24.28 157.01 8.72 141.26"
/>
<path stroke="#ea83be" vector-effect="non-scaling-stroke" d="
  M 328.88 98.69
  Q 328.76 150.38 328.89 202.00
  Q 328.93 216.69 326.13 230.96"
/>
<path stroke="#dc87cf" vector-effect="non-scaling-stroke" d="
  M 326.13 230.96
  Q 318.66 264.63 295.99 290.19"
/>
<path stroke="#d189dc" vector-effect="non-scaling-stroke" d="
  M 295.99 290.19
  Q 273.46 315.07 241.72 326.12"
/>
<path stroke="#ca8ae3" vector-effect="non-scaling-stroke" d="
  M 241.72 326.12
  Q 218.83 333.78 194.39 333.04"
/>
<path stroke="#c18cee" vector-effect="non-scaling-stroke" d="
  M 194.39 333.04
  Q 181.97 332.13 169.47 329.45"
/>
<path stroke="#b58ffc" vector-effect="non-scaling-stroke" d="
  M 169.47 329.45
  Q 164.78 328.06 160.08 326.53
  Q 129.63 316.60 107.29 293.70
  Q 80.48 266.22 73.07 226.81"
/>
<path stroke="#c18cee" vector-effect="non-scaling-stroke" d="
  M 93.27 177.25
  Q 93.26 191.80 93.45 206.25
  Q 93.85 235.93 109.14 260.36
  C 126.51 288.11 155.65 307.09 188.29 310.25
  A 0.63 0.62 2.5 0 0 188.97 309.63
  L 188.97 286.62
  A 0.50 0.49 -85.2 0 0 188.56 286.13
  Q 160.94 281.66 142.18 263.33
  Q 129.10 250.54 122.57 233.50
  Q 116.18 216.79 117.25 198.18"
/>
<path stroke="#ca8ae3" vector-effect="non-scaling-stroke" d="
  M 117.25 198.18
  Q 119.19 176.29 130.76 158.51
  A 0.72 0.71 40.6 0 0 130.69 157.64
  L 93.98 117.92
  A 0.40 0.40 0.0 0 0 93.28 118.19
  L 93.27 177.25"
/>
<path stroke="#8c17d1" vector-effect="non-scaling-stroke" d="
  M 117.25 198.18
  Q 113.44 189.44 107.37 182.87
  Q 101.45 176.46 93.27 177.25"
/>
<path stroke="#d189dc" vector-effect="non-scaling-stroke" d="
  M 281.12 219.67
  Q 280.26 225.31 278.41 230.60
  C 268.06 260.25 242.53 281.82 211.27 286.02
  A 0.61 0.60 -3.8 0 0 210.74 286.62
  L 210.74 310.19
  A 0.54 0.53 -3.3 0 0 211.34 310.72
  C 252.95 306.15 287.42 278.96 301.35 239.15"
/>
<path stroke="#e684c3" vector-effect="non-scaling-stroke" d="
  M 301.35 239.15
  Q 307.00 222.31 307.05 204.50
  Q 307.17 151.11 307.07 118.49
  A 0.52 0.52 0.0 0 0 306.17 118.15
  L 269.98 157.58
  A 1.85 1.85 0.0 0 0 269.78 159.81
  C 280.77 177.31 285.51 199.31 281.12 219.67"
/>
<path stroke="#b80e9f" vector-effect="non-scaling-stroke" d="
  M 301.35 239.15
  Q 290.66 229.97 281.12 219.67"
/>
<path stroke="#d688d5" vector-effect="non-scaling-stroke" d="
  M 199.95 200.94
  Q 200.05 200.94 200.13 200.92
  Q 200.28 200.89 200.30 200.87
  Q 200.47 200.68 239.45 158.63
  A 0.88 0.88 0.0 0 0 239.37 157.36
  C 228.26 148.13 214.67 142.98 200.10 142.94
  C 185.53 142.90 171.90 147.99 160.75 157.16
  A 0.88 0.88 0.0 0 0 160.66 158.43
  Q 199.42 200.68 199.59 200.87
  Q 199.61 200.89 199.76 200.92
  Q 199.84 200.94 199.95 200.94"
/>
<path stroke="#ca8ae3" vector-effect="non-scaling-stroke" d="
  M 146.10 175.12
  C 135.51 195.10 136.65 219.71 149.55 238.46
  Q 163.68 259.00 188.33 264.19
  A 0.73 0.73 0.0 0 0 189.21 263.48
  Q 189.41 233.74 189.32 225.15
  C 189.29 222.41 188.52 220.63 186.79 218.75
  Q 164.90 194.94 146.77 175.04
  A 0.41 0.41 0.0 0 0 146.10 175.12"
/>
<path stroke="#d688d5" vector-effect="non-scaling-stroke" d="
  M 253.98 175.92
  A 0.41 0.41 0.0 0 0 253.32 175.83
  Q 235.24 195.44 213.41 218.90
  C 211.68 220.75 210.91 222.51 210.86 225.22
  Q 210.72 233.73 210.74 263.20
  A 0.73 0.72 83.9 0 0 211.60 263.91
  Q 236.06 258.92 250.18 238.65
  C 263.08 220.15 264.36 195.78 253.98 175.92"
/>
<path stroke="#ea83be" vector-effect="non-scaling-stroke" d="
  M 397.85 230.06
  Q 392.79 262.71 377.68 292.02"
/>
<path stroke="#c70b8d" vector-effect="non-scaling-stroke" d="
  M 377.68 292.02
  Q 358.03 269.02 338.33 246.23
  Q 334.65 241.97 326.13 230.96"
/>
<path stroke="#771ceb" vector-effect="non-scaling-stroke" d="
  M 169.47 329.45
  Q 176.25 344.60 183.57 354.38
  C 194.60 369.14 204.47 382.01 215.27 399.38"
/>
<path stroke="#b58ffc" vector-effect="non-scaling-stroke" d="
  M 215.27 399.38
  L 206.86 400.00"
/>
<path stroke="#b58ffc" vector-effect="non-scaling-stroke" d="
  M 193.50 400.00
  Q 142.87 397.75 101.48 374.12
  Q 58.90 349.81 31.94 308.49
  Q 2.99 264.12 0.00 207.55"
/>
<path stroke="#c18cee" vector-effect="non-scaling-stroke" d="
  M 215.27 399.38
  Q 230.96 398.34 245.96 394.68"
/>
<path stroke="#ca8ae3" vector-effect="non-scaling-stroke" d="
  M 245.96 394.68
  Q 266.68 389.83 285.50 380.88"
/>
<path stroke="#d189dc" vector-effect="non-scaling-stroke" d="
  M 285.50 380.88
  Q 314.96 366.90 338.25 344.57"
/>
<path stroke="#dc87cf" vector-effect="non-scaling-stroke" d="
  M 338.25 344.57
  Q 362.32 321.51 377.68 292.02"
/>
<path stroke="#ad11ab" vector-effect="non-scaling-stroke" d="
  M 338.25 344.57
  Q 318.63 316.10 295.99 290.19"
/>
<path stroke="#9c14bf" vector-effect="non-scaling-stroke" d="
  M 285.50 380.88
  Q 264.30 352.86 241.72 326.12"
/>
<path stroke="#8c17d1" vector-effect="non-scaling-stroke" d="
  M 245.96 394.68
  C 231.80 371.70 215.76 349.59 194.39 333.04"
/>
</g>
<path fill="#ffffff" d="
  M 194.39 0.00
  Q 194.28 0.27 194.05 0.14
  Q 166.49 0.80 140.28 9.04
  Q 112.23 17.82 88.00 34.23
  Q 54.88 56.74 32.88 90.07
  Q 17.13 113.93 8.72 141.26
  Q 1.15 166.30 0.00 192.64
  L 0.00 0.00
  L 194.39 0.00
  Z"
/>
<path fill="#e70366" d="
  M 205.47 0.00
  C 268.90 1.90 327.28 33.32 363.52 84.73
  Q 398.02 133.68 400.00 194.51
  L 400.00 205.13
  L 397.85 230.06
  Q 380.83 208.56 363.99 187.08
  Q 350.55 169.92 330.63 138.16
  A 1.84 1.83 -61.8 0 1 330.35 137.22
  Q 329.98 123.12 330.17 110.30
  Q 330.27 104.38 328.88 98.69
  L 328.72 91.85
  A 0.43 0.43 0.0 0 0 328.29 91.43
  Q 316.56 91.52 304.76 91.36
  Q 301.44 91.32 299.59 93.33
  Q 289.93 103.81 280.29 114.27
  C 252.76 78.07 235.75 58.41 219.00 33.94
  Q 207.16 16.63 194.05 0.14
  Q 194.28 0.27 194.39 0.00
  L 205.47 0.00
  Z"
/>
<path fill="#ffffff" d="
  M 400.00 0.00
  L 400.00 194.51
  Q 398.02 133.68 363.52 84.73
  C 327.28 33.32 268.90 1.90 205.47 0.00
  L 400.00 0.00
  Z"
/>
<path fill="#cd0986" d="
  M 194.05 0.14
  Q 207.16 16.63 219.00 33.94
  C 235.75 58.41 252.76 78.07 280.29 114.27
  L 255.39 141.33
  A 1.11 1.10 41.6 0 1 253.86 141.42
  Q 243.37 132.47 230.02 127.02
  Q 212.66 106.46 208.03 100.25
  Q 188.36 73.93 162.06 41.96
  Q 150.11 27.44 140.28 9.04
  Q 166.49 0.80 194.05 0.14
  Z"
/>
<path fill="#b80e9e" d="
  M 140.28 9.04
  Q 150.11 27.44 162.06 41.96
  Q 188.36 73.93 208.03 100.25
  Q 212.66 106.46 230.02 127.02
  Q 193.49 113.76 159.52 132.01
  Q 151.08 116.26 138.69 101.30
  Q 127.32 87.57 106.41 61.00
  Q 98.66 51.17 88.00 34.23
  Q 112.23 17.82 140.28 9.04
  Z"
/>
<path fill="#a213b8" d="
  M 88.00 34.23
  Q 98.66 51.17 106.41 61.00
  Q 127.32 87.57 138.69 101.30
  Q 151.08 116.26 159.52 132.01
  L 146.11 141.48
  A 1.26 1.24 50.9 0 1 144.47 141.30
  Q 122.55 117.53 100.30 93.45
  Q 98.58 91.59 96.99 91.58
  Q 84.64 91.53 71.82 91.58
  A 0.54 0.54 0.0 0 0 71.28 92.12
  L 71.05 147.76
  C 66.85 134.24 62.30 124.17 53.10 113.59
  Q 43.00 101.98 32.88 90.07
  Q 54.88 56.74 88.00 34.23
  Z"
/>
<path fill="#8219dc" d="
  M 32.88 90.07
  Q 43.00 101.98 53.10 113.59
  C 62.30 124.17 66.85 134.24 71.05 147.76
  Q 71.19 174.94 71.06 202.25
  Q 71.01 213.71 73.07 226.81
  Q 66.26 212.72 63.87 208.40
  Q 54.00 190.58 38.77 173.37
  Q 24.28 157.01 8.72 141.26
  Q 17.13 113.93 32.88 90.07
  Z"
/>
<path fill="#ffffff" d="
  M 328.88 98.69
  Q 328.76 150.38 328.89 202.00
  Q 328.93 216.69 326.13 230.96
  Q 318.66 264.63 295.99 290.19
  Q 273.46 315.07 241.72 326.12
  Q 218.83 333.78 194.39 333.04
  Q 181.97 332.13 169.47 329.45
  Q 164.78 328.06 160.08 326.53
  Q 129.63 316.60 107.29 293.70
  Q 80.48 266.22 73.07 226.81
  Q 71.01 213.71 71.06 202.25
  Q 71.19 174.94 71.05 147.76
  L 71.28 92.12
  A 0.54 0.54 0.0 0 1 71.82 91.58
  Q 84.64 91.53 96.99 91.58
  Q 98.58 91.59 100.30 93.45
  Q 122.55 117.53 144.47 141.30
  A 1.26 1.24 50.9 0 0 146.11 141.48
  L 159.52 132.01
  Q 193.49 113.76 230.02 127.02
  Q 243.37 132.47 253.86 141.42
  A 1.11 1.10 41.6 0 0 255.39 141.33
  L 280.29 114.27
  Q 289.93 103.81 299.59 93.33
  Q 301.44 91.32 304.76 91.36
  Q 316.56 91.52 328.29 91.43
  A 0.43 0.43 0.0 0 1 328.72 91.85
  L 328.88 98.69
  Z
  M 93.27 177.25
  Q 93.26 191.80 93.45 206.25
  Q 93.85 235.93 109.14 260.36
  C 126.51 288.11 155.65 307.09 188.29 310.25
  A 0.63 0.62 2.5 0 0 188.97 309.63
  L 188.97 286.62
  A 0.50 0.49 -85.2 0 0 188.56 286.13
  Q 160.94 281.66 142.18 263.33
  Q 129.10 250.54 122.57 233.50
  Q 116.18 216.79 117.25 198.18
  Q 119.19 176.29 130.76 158.51
  A 0.72 0.71 40.6 0 0 130.69 157.64
  L 93.98 117.92
  A 0.40 0.40 0.0 0 0 93.28 118.19
  L 93.27 177.25
  Z
  M 281.12 219.67
  Q 280.26 225.31 278.41 230.60
  C 268.06 260.25 242.53 281.82 211.27 286.02
  A 0.61 0.60 -3.8 0 0 210.74 286.62
  L 210.74 310.19
  A 0.54 0.53 -3.3 0 0 211.34 310.72
  C 252.95 306.15 287.42 278.96 301.35 239.15
  Q 307.00 222.31 307.05 204.50
  Q 307.17 151.11 307.07 118.49
  A 0.52 0.52 0.0 0 0 306.17 118.15
  L 269.98 157.58
  A 1.85 1.85 0.0 0 0 269.78 159.81
  C 280.77 177.31 285.51 199.31 281.12 219.67
  Z
  M 199.95 200.94
  Q 200.05 200.94 200.13 200.92
  Q 200.28 200.89 200.30 200.87
  Q 200.47 200.68 239.45 158.63
  A 0.88 0.88 0.0 0 0 239.37 157.36
  C 228.26 148.13 214.67 142.98 200.10 142.94
  C 185.53 142.90 171.90 147.99 160.75 157.16
  A 0.88 0.88 0.0 0 0 160.66 158.43
  Q 199.42 200.68 199.59 200.87
  Q 199.61 200.89 199.76 200.92
  Q 199.84 200.94 199.95 200.94
  Z
  M 146.10 175.12
  C 135.51 195.10 136.65 219.71 149.55 238.46
  Q 163.68 259.00 188.33 264.19
  A 0.73 0.73 0.0 0 0 189.21 263.48
  Q 189.41 233.74 189.32 225.15
  C 189.29 222.41 188.52 220.63 186.79 218.75
  Q 164.90 194.94 146.77 175.04
  A 0.41 0.41 0.0 0 0 146.10 175.12
  Z
  M 253.98 175.92
  A 0.41 0.41 0.0 0 0 253.32 175.83
  Q 235.24 195.44 213.41 218.90
  C 211.68 220.75 210.91 222.51 210.86 225.22
  Q 210.72 233.73 210.74 263.20
  A 0.73 0.72 83.9 0 0 211.60 263.91
  Q 236.06 258.92 250.18 238.65
  C 263.08 220.15 264.36 195.78 253.98 175.92
  Z"
/>
<path fill="#d5077c" d="
  M 397.85 230.06
  Q 392.79 262.71 377.68 292.02
  Q 358.03 269.02 338.33 246.23
  Q 334.65 241.97 326.13 230.96
  Q 328.93 216.69 328.89 202.00
  Q 328.76 150.38 328.88 98.69
  Q 330.27 104.38 330.17 110.30
  Q 329.98 123.12 330.35 137.22
  A 1.84 1.83 -61.8 0 0 330.63 138.16
  Q 350.55 169.92 363.99 187.08
  Q 380.83 208.56 397.85 230.06
  Z"
/>
<path fill="#9515c6" d="
  M 117.25 198.18
  Q 113.44 189.44 107.37 182.87
  Q 101.45 176.46 93.27 177.25
  L 93.28 118.19
  A 0.40 0.40 0.0 0 1 93.98 117.92
  L 130.69 157.64
  A 0.72 0.71 40.6 0 1 130.76 158.51
  Q 119.19 176.29 117.25 198.18
  Z"
/>
<path fill="#cd0986" d="
  M 301.35 239.15
  Q 290.66 229.97 281.12 219.67
  C 285.51 199.31 280.77 177.31 269.78 159.81
  A 1.85 1.85 0.0 0 1 269.98 157.58
  L 306.17 118.15
  A 0.52 0.52 0.0 0 1 307.07 118.49
  Q 307.17 151.11 307.05 204.50
  Q 307.00 222.31 301.35 239.15
  Z"
/>
<path fill="#6b1ef9" d="
  M 73.07 226.81
  Q 80.48 266.22 107.29 293.70
  Q 129.63 316.60 160.08 326.53
  Q 164.78 328.06 169.47 329.45
  Q 176.25 344.60 183.57 354.38
  C 194.60 369.14 204.47 382.01 215.27 399.38
  L 206.86 400.00
  L 193.50 400.00
  Q 142.87 397.75 101.48 374.12
  Q 58.90 349.81 31.94 308.49
  Q 2.99 264.12 0.00 207.55
  L 0.00 192.64
  Q 1.15 166.30 8.72 141.26
  Q 24.28 157.01 38.77 173.37
  Q 54.00 190.58 63.87 208.40
  Q 66.26 212.72 73.07 226.81
  Z"
/>
<path fill="#ac11ab" d="
  M 200.10 142.94
  C 214.67 142.98 228.26 148.13 239.37 157.36
  A 0.88 0.88 0.0 0 1 239.45 158.63
  Q 200.47 200.68 200.30 200.87
  Q 200.28 200.89 200.13 200.92
  Q 200.05 200.94 199.95 200.94
  Q 199.84 200.94 199.76 200.92
  Q 199.61 200.89 199.59 200.87
  Q 199.42 200.68 160.66 158.43
  A 0.88 0.88 0.0 0 1 160.75 157.16
  C 171.90 147.99 185.53 142.90 200.10 142.94
  Z"
/>
<path fill="#8219dc" d="
  M 117.25 198.18
  Q 116.18 216.79 122.57 233.50
  Q 129.10 250.54 142.18 263.33
  Q 160.94 281.66 188.56 286.13
  A 0.50 0.49 -85.2 0 1 188.97 286.62
  L 188.97 309.63
  A 0.63 0.62 2.5 0 1 188.29 310.25
  C 155.65 307.09 126.51 288.11 109.14 260.36
  Q 93.85 235.93 93.45 206.25
  Q 93.26 191.80 93.27 177.25
  Q 101.45 176.46 107.37 182.87
  Q 113.44 189.44 117.25 198.18
  Z"
/>
<path fill="#9515c6" d="
  M 146.10 175.12
  A 0.41 0.41 0.0 0 1 146.77 175.04
  Q 164.90 194.94 186.79 218.75
  C 188.52 220.63 189.29 222.41 189.32 225.15
  Q 189.41 233.74 189.21 263.48
  A 0.73 0.73 0.0 0 1 188.33 264.19
  Q 163.68 259.00 149.55 238.46
  C 136.65 219.71 135.51 195.10 146.10 175.12
  Z"
/>
<path fill="#ac11ab" d="
  M 253.98 175.92
  C 264.36 195.78 263.08 220.15 250.18 238.65
  Q 236.06 258.92 211.60 263.91
  A 0.73 0.72 83.9 0 1 210.74 263.20
  Q 210.72 233.73 210.86 225.22
  C 210.91 222.51 211.68 220.75 213.41 218.90
  Q 235.24 195.44 253.32 175.83
  A 0.41 0.41 0.0 0 1 253.98 175.92
  Z"
/>
<path fill="#ffffff" d="
  M 400.00 205.13
  L 400.00 400.00
  L 206.86 400.00
  L 215.27 399.38
  Q 230.96 398.34 245.96 394.68
  Q 266.68 389.83 285.50 380.88
  Q 314.96 366.90 338.25 344.57
  Q 362.32 321.51 377.68 292.02
  Q 392.79 262.71 397.85 230.06
  L 400.00 205.13
  Z"
/>
<path fill="#ffffff" d="
  M 193.50 400.00
  L 0.00 400.00
  L 0.00 207.55
  Q 2.99 264.12 31.94 308.49
  Q 58.90 349.81 101.48 374.12
  Q 142.87 397.75 193.50 400.00
  Z"
/>
<path fill="#a213b8" d="
  M 281.12 219.67
  Q 290.66 229.97 301.35 239.15
  C 287.42 278.96 252.95 306.15 211.34 310.72
  A 0.54 0.53 -3.3 0 1 210.74 310.19
  L 210.74 286.62
  A 0.61 0.60 -3.8 0 1 211.27 286.02
  C 242.53 281.82 268.06 260.25 278.41 230.60
  Q 280.26 225.31 281.12 219.67
  Z"
/>
<path fill="#b80e9e" d="
  M 326.13 230.96
  Q 334.65 241.97 338.33 246.23
  Q 358.03 269.02 377.68 292.02
  Q 362.32 321.51 338.25 344.57
  Q 318.63 316.10 295.99 290.19
  Q 318.66 264.63 326.13 230.96
  Z"
/>
<path fill="#a213b8" d="
  M 338.25 344.57
  Q 314.96 366.90 285.50 380.88
  Q 264.30 352.86 241.72 326.12
  Q 273.46 315.07 295.99 290.19
  Q 318.63 316.10 338.25 344.57
  Z"
/>
<path fill="#9515c6" d="
  M 241.72 326.12
  Q 264.30 352.86 285.50 380.88
  Q 266.68 389.83 245.96 394.68
  C 231.80 371.70 215.76 349.59 194.39 333.04
  Q 218.83 333.78 241.72 326.12
  Z"
/>
<path fill="#8219dc" d="
  M 194.39 333.04
  C 215.76 349.59 231.80 371.70 245.96 394.68
  Q 230.96 398.34 215.27 399.38
  C 204.47 382.01 194.60 369.14 183.57 354.38
  Q 176.25 344.60 169.47 329.45
  Q 181.97 332.13 194.39 333.04
  Z"
/>
</svg>
