<svg width="128" height="128" viewBox="0 0 128 128" fill="none" xmlns="http://www.w3.org/2000/svg">
<g clip-path="url(#clip0_60_22543)">
<path d="M3.04637 66.0485H0V71.5634H3.04637V66.0485Z" fill="black"/>
<path d="M11.4501 51.8671C9.76939 51.0267 8.66639 50.8691 5.98769 50.8691H0V63.4223H5.98769C8.35125 63.4223 10.1371 63.2647 11.7128 62.2668C13.3935 61.1638 14.2864 59.2729 14.2864 57.0669C14.2864 54.7034 13.1834 52.865 11.4501 51.8671ZM6.6705 60.7961H3.04637V53.5478L6.4604 53.4953C9.55929 53.4428 11.135 54.5458 11.135 57.0669C11.135 59.7982 9.19163 60.7961 6.6705 60.7961Z" fill="black"/>
<path d="M124.796 56.3841L121.907 64.5777C121.382 66.0484 121.12 66.8888 120.647 68.3069H120.594C120.227 67.0989 119.859 66.1009 119.386 64.6303L116.602 56.3315H113.241L119.071 71.5634C118.966 71.8785 118.808 72.2462 118.651 72.6139C118.178 73.7694 117.023 74.5572 115.71 74.5572H114.239V77.1309H115.71C118.126 77.1309 120.279 75.6602 121.172 73.4542C123.01 68.8322 126.162 60.9011 127.948 56.3841H124.796Z" fill="black"/>
<path d="M44.1723 68.6221C44.1723 74.1371 41.6512 77.1309 36.5564 77.1309C32.7747 77.1309 30.4637 75.135 29.6758 72.1412H32.7222C33.2474 73.5593 34.3504 74.7673 36.609 74.7673C40.0755 74.7673 41.3361 72.6139 41.3361 68.4645C41.2836 68.4645 41.2836 68.4645 41.2836 68.4645C40.5482 69.7776 38.8675 70.9331 36.1888 70.9331C31.8818 70.9331 29.2031 67.8342 29.2031 63.4748C29.2031 58.9577 32.1444 55.9114 36.2413 55.9114C38.8675 55.9114 40.4957 57.0144 41.3361 58.2749C41.2836 57.9598 41.2836 57.6447 41.2836 57.3295V56.3841H44.1198L44.1723 68.6221ZM32.302 63.4222C32.302 66.3636 33.9302 68.4645 36.7665 68.4645C39.2877 68.4645 41.2836 66.6787 41.2836 63.3172C41.2836 60.3234 39.5503 58.3275 36.7665 58.3275C33.9828 58.3275 32.302 60.3759 32.302 63.4222Z" fill="black"/>
<path d="M48.9521 64.7354C49.0571 67.4141 50.7904 69.5151 53.7317 69.5151C55.8327 69.5151 56.8306 68.5171 57.6185 67.204H60.5598C59.6669 69.9353 57.3033 71.9312 53.6267 71.9312C48.9521 71.9312 46.0107 68.7797 46.0107 64.0526C46.0107 59.3255 49.0046 55.964 53.5741 55.964C58.5114 55.964 60.8224 59.7457 60.8224 63.79V64.7354H48.9521ZM57.776 62.4244C57.5134 60.0083 55.9902 58.3276 53.5216 58.3276C51.1581 58.3276 49.3197 59.9033 49.0046 62.4244H57.776Z" fill="black"/>
<path d="M65.5494 56.3841V58.3275C66.0221 56.9094 67.5453 56.0165 69.2261 56.0165C69.4887 56.0165 69.6988 56.0165 69.9614 56.069V58.7477C69.6462 58.6952 69.2786 58.6427 68.9634 58.6427C66.2322 58.6427 65.707 60.6911 65.707 63.6849V71.5635H62.7657V59.1154C62.7657 58.1699 62.7657 57.3296 62.7131 56.3841H65.5494Z" fill="black"/>
<path d="M100.005 69.41C99.2171 70.7231 97.7464 71.9311 95.1728 71.9311C91.6537 71.9311 89.9204 69.7777 89.9204 65.8384V56.3842H92.8092V64.7354C92.8092 67.7293 93.8072 69.5151 96.1707 69.5151C99.2696 69.5151 99.8474 66.6788 99.8474 63.3173V56.3842H102.789V69.305C102.789 70.0928 102.789 70.8281 102.841 71.5635H100.005V69.41Z" fill="black"/>
<path d="M109.354 56.3841H112.19V58.6426H109.354V67.7817C109.354 69.2524 110.089 69.6725 111.192 69.6725C111.403 69.6725 111.665 69.6725 111.928 69.62V71.7735C111.56 71.826 111.192 71.8785 110.825 71.8785C108.146 71.8785 106.413 70.9856 106.413 67.9393V58.6426H104.102V56.3841H106.413V52.2872H109.354V56.3841Z" fill="black"/>
<path d="M71.7474 50.8691H76.7896C84.353 50.9217 88.0297 54.6508 88.0297 61.2688C88.0822 66.9414 85.1409 71.5109 77.2623 71.5634H71.6948L71.7474 50.8691ZM74.7937 68.9898H76.5795C82.0945 68.9898 84.9308 66.8888 84.9308 61.2688C84.9308 56.3316 82.0945 53.4953 76.8421 53.4953C75.8442 53.4953 74.7937 53.5478 74.7937 53.5478V68.9898Z" fill="black"/>
<path d="M24.8962 71.5634C24.7912 70.9331 24.7912 70.5655 24.7387 69.4625C23.5832 71.1432 22.06 71.8786 19.6439 71.8786C16.4399 71.8786 14.1289 70.3029 14.1289 67.4666C14.1289 64.2101 17.2278 63.1071 21.3246 62.5819C22.3226 62.4243 23.4781 62.3193 24.4761 62.2668C24.4761 59.2729 22.7953 58.38 21.062 58.38C19.3287 58.38 18.0157 59.5881 18.0157 61.2163H15.1794C15.1794 58.1174 17.5955 56.069 21.1145 56.069C24.6336 56.069 27.3123 57.5396 27.3123 63.0546V65.9959C27.3123 68.4645 27.4174 70.2503 27.68 71.6685L24.8962 71.5634ZM17.2803 67.4141C17.2803 68.8322 18.4358 69.7251 20.2742 69.7251C23.0054 69.7251 24.4761 68.0443 24.4761 65.103C24.4761 64.8404 24.4761 64.5778 24.4761 64.3152C19.5388 64.8404 17.2803 65.3131 17.2803 67.4141Z" fill="black"/>
</g>
<defs>
<clipPath id="clip0_60_22543">
<rect width="128" height="26.2618" fill="white" transform="translate(0 50.8691)"/>
</clipPath>
</defs>
</svg>
