<?xml version="1.0" encoding="UTF-8" standalone="no"?>
<!DOCTYPE svg PUBLIC "-//W3C//DTD SVG 1.1//EN" "http://www.w3.org/Graphics/SVG/1.1/DTD/svg11.dtd">
<svg xmlns="http://www.w3.org/2000/svg" version="1.1" viewBox="0.00 0.00 32.00 32.00">
<g stroke-width="2.00" fill="none" stroke-linecap="butt">
<path stroke="#34d38b" stroke-opacity="0.522" vector-effect="non-scaling-stroke" d="
  M 2.31 0.00
  Q 0.70 0.85 0.00 2.42"
/>
<path stroke="#34d38b" stroke-opacity="0.522" vector-effect="non-scaling-stroke" d="
  M 29.65 0.00
  Q 31.16 0.76 32.00 2.31"
/>
<path stroke="#34d38b" stroke-opacity="0.522" vector-effect="non-scaling-stroke" d="
  M 32.00 29.65
  Q 31.25 31.12 29.72 32.00"
/>
<path stroke="#34d38b" stroke-opacity="0.522" vector-effect="non-scaling-stroke" d="
  M 2.44 32.00
  Q 0.87 31.32 0.00 29.68"
/>
<path stroke="#9ae9c5" vector-effect="non-scaling-stroke" d="
  M 13.71 22.12
  C 17.78 24.23 22.31 22.79 23.39 18.06
  C 24.84 11.77 24.00 2.29 14.58 5.24
  Q 13.63 5.53 13.09 6.09
  A 0.41 0.41 0.0 0 1 12.42 5.98
  Q 11.63 4.29 9.12 5.11
  A 0.72 0.70 81.0 0 0 8.64 5.79
  L 8.64 26.80
  A 0.55 0.55 0.0 0 0 9.19 27.35
  L 12.62 27.35
  A 0.53 0.52 0.0 0 0 13.15 26.83
  L 13.15 22.46
  A 0.38 0.38 0.0 0 1 13.71 22.12"
/>
<path stroke="#9ae9c5" vector-effect="non-scaling-stroke" d="
  M 19.3240 11.5138
  A 2.76 2.76 0.0 0 0 16.6126 8.7060
  L 16.0127 8.6956
  A 2.76 2.76 0.0 0 0 13.2050 11.4070
  L 13.1160 16.5062
  A 2.76 2.76 0.0 0 0 15.8274 19.3140
  L 16.4273 19.3244
  A 2.76 2.76 0.0 0 0 19.2350 16.6130
  L 19.3240 11.5138"
/>
</g>
<path fill="#32df97" fill-opacity="0.043" d="
  M 2.31 0.00
  Q 0.70 0.85 0.00 2.42
  L 0.00 0.00
  L 2.31 0.00
  Z"
/>
<path fill="#34d28b" d="
  M 29.65 0.00
  Q 31.16 0.76 32.00 2.31
  L 32.00 29.65
  Q 31.25 31.12 29.72 32.00
  L 2.44 32.00
  Q 0.87 31.32 0.00 29.68
  L 0.00 2.42
  Q 0.70 0.85 2.31 0.00
  L 29.65 0.00
  Z
  M 13.71 22.12
  C 17.78 24.23 22.31 22.79 23.39 18.06
  C 24.84 11.77 24.00 2.29 14.58 5.24
  Q 13.63 5.53 13.09 6.09
  A 0.41 0.41 0.0 0 1 12.42 5.98
  Q 11.63 4.29 9.12 5.11
  A 0.72 0.70 81.0 0 0 8.64 5.79
  L 8.64 26.80
  A 0.55 0.55 0.0 0 0 9.19 27.35
  L 12.62 27.35
  A 0.53 0.52 0.0 0 0 13.15 26.83
  L 13.15 22.46
  A 0.38 0.38 0.0 0 1 13.71 22.12
  Z"
/>
<path fill="#32df97" fill-opacity="0.043" d="
  M 32.00 0.00
  L 32.00 2.31
  Q 31.16 0.76 29.65 0.00
  L 32.00 0.00
  Z"
/>
<path fill="#ffffff" d="
  M 13.15 22.46
  L 13.15 26.83
  A 0.53 0.52 0.0 0 1 12.62 27.35
  L 9.19 27.35
  A 0.55 0.55 0.0 0 1 8.64 26.80
  L 8.64 5.79
  A 0.72 0.70 81.0 0 1 9.12 5.11
  Q 11.63 4.29 12.42 5.98
  A 0.41 0.41 0.0 0 0 13.09 6.09
  Q 13.63 5.53 14.58 5.24
  C 24.00 2.29 24.84 11.77 23.39 18.06
  C 22.31 22.79 17.78 24.23 13.71 22.12
  A 0.38 0.38 0.0 0 0 13.15 22.46
  Z
  M 19.3240 11.5138
  A 2.76 2.76 0.0 0 0 16.6126 8.7060
  L 16.0127 8.6956
  A 2.76 2.76 0.0 0 0 13.2050 11.4070
  L 13.1160 16.5062
  A 2.76 2.76 0.0 0 0 15.8274 19.3140
  L 16.4273 19.3244
  A 2.76 2.76 0.0 0 0 19.2350 16.6130
  L 19.3240 11.5138
  Z"
/>
<rect fill="#34d28b" x="-3.06" y="-5.31" transform="translate(16.22,14.01) rotate(1.0)" width="6.12" height="10.62" rx="2.76"/>
<path fill="#32df97" fill-opacity="0.043" d="
  M 2.44 32.00
  L 0.00 32.00
  L 0.00 29.68
  Q 0.87 31.32 2.44 32.00
  Z"
/>
<path fill="#32df97" fill-opacity="0.043" d="
  M 32.00 29.65
  L 32.00 32.00
  L 29.72 32.00
  Q 31.25 31.12 32.00 29.65
  Z"
/>
</svg>
