<svg width="128" height="128" viewBox="0 0 128 128" fill="none" xmlns="http://www.w3.org/2000/svg">
<g clip-path="url(#clip0_240_6351)">
<g clip-path="url(#clip1_240_6351)">
<path d="M128 0H0V128H128V0Z" fill="#47B972"/>
<path d="M93.5999 28.3201V47.2001L93.2799 47.3601C90.5599 45.1201 87.0399 43.6801 82.5599 43.6801C76.7999 43.6801 71.5199 45.7601 67.9999 49.9201L73.4399 55.6801C76.1599 53.1201 79.0399 51.6801 82.7199 51.6801C89.5999 51.8401 94.0799 57.1201 94.0799 64.1601C94.0799 71.2001 89.4399 76.6401 82.3999 76.6401C64.7999 76.6401 69.7599 43.6801 46.0799 43.6801C34.2399 43.6801 25.9199 52.4801 25.9199 64.1601V99.8401H34.3999V80.8001L34.7199 80.6401C37.4399 82.8801 40.9599 84.3201 45.4399 84.3201C51.1999 84.3201 56.4799 82.2401 59.9999 78.0801L54.5599 72.3201C51.8399 74.8801 48.9599 76.3201 45.2799 76.3201C38.3999 76.1601 33.9199 70.8801 33.9199 63.8401C33.9199 56.8001 38.5599 51.3601 45.5999 51.3601C63.1999 51.3601 58.2399 84.3201 81.9199 84.3201C93.7599 84.3201 102.08 75.5201 102.08 63.8401V28.3201H93.5999Z" fill="white"/>
</g>
</g>
<defs>
<clipPath id="clip0_240_6351">
<rect width="128" height="128" fill="white"/>
</clipPath>
<clipPath id="clip1_240_6351">
<rect width="128" height="128" fill="white"/>
</clipPath>
</defs>
</svg>
