<?xml version="1.0" encoding="UTF-8" standalone="no"?>
<!DOCTYPE svg PUBLIC "-//W3C//DTD SVG 1.1//EN" "http://www.w3.org/Graphics/SVG/1.1/DTD/svg11.dtd">
<svg xmlns="http://www.w3.org/2000/svg" version="1.1" viewBox="0.00 0.00 128.00 128.00">
<g stroke-width="2.00" fill="none" stroke-linecap="butt">
<path stroke="#ee7723" vector-effect="non-scaling-stroke" d="
  M 63.29 35.56
  Q 63.02 36.44 62.64 36.63
  Q 40.26 47.94 17.87 59.21
  C 16.25 60.02 14.77 61.21 13.16 62.18"
/>
<path stroke="#ef9d20" vector-effect="non-scaling-stroke" d="
  M 114.63 61.61
  Q 113.68 61.72 112.57 60.77
  Q 111.44 59.80 110.75 59.45
  Q 87.75 47.87 64.75 36.27
  Q 64.54 36.16 64.71 35.55"
/>
<path stroke="#ef9d20" vector-effect="non-scaling-stroke" d="
  M 116.55 67.03
  Q 108.47 84.21 99.57 101.06
  Q 97.56 104.87 93.13 107.96"
/>
<path stroke="#ee7723" vector-effect="non-scaling-stroke" d="
  M 33.77 107.99
  Q 32.08 105.95 30.56 104.00
  Q 29.04 102.06 27.81 99.72
  Q 19.11 83.18 11.44 66.87"
/>
</g>
<path fill="#ee6623" d="
  M 63.29 35.56
  Q 63.02 36.44 62.64 36.63
  Q 40.26 47.94 17.87 59.21
  C 16.25 60.02 14.77 61.21 13.16 62.18
  Q 19.22 44.96 25.34 27.81
  Q 27.28 22.37 32.50 21.06
  A 1.80 1.75 45.9 0 1 33.46 21.09
  Q 36.48 22.02 36.79 22.18
  Q 50.06 28.84 63.29 35.56
  Z"
/>
<path fill="#efb21e" d="
  M 114.63 61.61
  Q 113.68 61.72 112.57 60.77
  Q 111.44 59.80 110.75 59.45
  Q 87.75 47.87 64.75 36.27
  Q 64.54 36.16 64.71 35.55
  Q 77.50 29.07 90.31 22.60
  Q 91.94 21.78 94.50 21.09
  A 2.28 2.16 41.9 0 1 95.54 21.06
  Q 100.61 22.16 102.84 28.39
  Q 108.75 44.84 114.63 61.61
  Z"
/>
<path fill="#ee8722" d="
  M 64.71 35.55
  Q 64.54 36.16 64.75 36.27
  Q 87.75 47.87 110.75 59.45
  Q 111.44 59.80 112.57 60.77
  Q 113.68 61.72 114.63 61.61
  L 116.55 67.03
  Q 108.47 84.21 99.57 101.06
  Q 97.56 104.87 93.13 107.96
  L 33.77 107.99
  Q 32.08 105.95 30.56 104.00
  Q 29.04 102.06 27.81 99.72
  Q 19.11 83.18 11.44 66.87
  L 13.16 62.18
  C 14.77 61.21 16.25 60.02 17.87 59.21
  Q 40.26 47.94 62.64 36.63
  Q 63.02 36.44 63.29 35.56
  Q 64.01 36.04 64.71 35.55
  Z"
/>
<path fill="#ee6623" d="
  M 11.44 66.87
  Q 19.11 83.18 27.81 99.72
  Q 29.04 102.06 30.56 104.00
  Q 32.08 105.95 33.77 107.99
  Q 19.72 108.04 6.25 107.99
  Q 1.46 107.97 0.00 101.82
  L 0.00 99.54
  L 11.44 66.87
  Z"
/>
<path fill="#efb21e" d="
  M 116.55 67.03
  L 128.00 99.49
  L 128.00 101.78
  Q 126.63 107.96 121.50 107.98
  Q 107.72 108.04 93.13 107.96
  Q 97.56 104.87 99.57 101.06
  Q 108.47 84.21 116.55 67.03
  Z"
/>
</svg>
