<?xml version="1.0" encoding="UTF-8" standalone="no"?>
<!DOCTYPE svg PUBLIC "-//W3C//DTD SVG 1.1//EN" "http://www.w3.org/Graphics/SVG/1.1/DTD/svg11.dtd">
<svg xmlns="http://www.w3.org/2000/svg" version="1.1" viewBox="0.00 0.00 32.00 32.00">
<path stroke="#fff298" stroke-width="2.00" fill="none" stroke-linecap="butt" vector-effect="non-scaling-stroke" d="
  M 20.80 12.47
  A 8.32 8.32 0.0 0 0 12.48 4.15
  A 8.32 8.32 0.0 0 0 4.16 12.47
  A 8.32 8.32 0.0 0 0 12.48 20.79
  A 8.32 8.32 0.0 0 0 20.80 12.47"
/>
<path fill="#ffe431" d="
  M 24.43 0.00
  Q 31.29 0.62 32.00 7.49
  L 32.00 24.42
  Q 31.39 31.26 24.53 32.00
  L 7.52 32.00
  Q 0.74 31.34 0.00 24.53
  L 0.00 7.52
  Q 0.66 0.70 7.50 0.00
  L 24.43 0.00
  Z
  M 20.80 12.47
  A 8.32 8.32 0.0 0 0 12.48 4.15
  A 8.32 8.32 0.0 0 0 4.16 12.47
  A 8.32 8.32 0.0 0 0 12.48 20.79
  A 8.32 8.32 0.0 0 0 20.80 12.47
  Z"
/>
<circle fill="#ffffff" cx="12.48" cy="12.47" r="8.32"/>
</svg>
