<?xml version="1.0" encoding="UTF-8" standalone="no"?>
<!DOCTYPE svg PUBLIC "-//W3C//DTD SVG 1.1//EN" "http://www.w3.org/Graphics/SVG/1.1/DTD/svg11.dtd">
<svg xmlns="http://www.w3.org/2000/svg" version="1.1" viewBox="0.00 0.00 32.00 32.00">
<g stroke-width="2.00" fill="none" stroke-linecap="butt">
<path stroke="#654e37" vector-effect="non-scaling-stroke" d="
  M 20.74 5.27
  Q 24.86 6.84 25.72 7.11
  A 1.99 1.97 -44.0 0 0 26.81 7.12
  L 28.45 6.64
  A 0.38 0.38 0.0 0 0 28.50 5.92
  Q 28.07 5.73 21.69 3.29
  Q 17.57 1.72 16.71 1.45
  A 1.99 1.97 -44.0 0 0 15.62 1.44
  L 13.98 1.92
  A 0.38 0.38 0.0 0 0 13.93 2.64
  Q 14.36 2.83 20.74 5.27"
/>
<path stroke="#564d44" vector-effect="non-scaling-stroke" d="
  M 21.95 9.38
  A 0.41 0.41 0.0 0 1 22.22 9.77
  L 21.94 18.97
  A 0.41 0.41 0.0 0 0 22.46 19.37
  L 25.40 18.53
  A 0.41 0.41 0.0 0 0 25.70 18.12
  L 25.31 8.40
  A 0.41 0.41 0.0 0 0 25.04 8.04
  L 11.54 3.05
  A 0.41 0.41 0.0 0 0 11.28 3.04
  L 8.84 3.74
  A 0.41 0.41 0.0 0 0 8.81 4.51
  L 21.95 9.38"
/>
<path stroke="#654e37" vector-effect="non-scaling-stroke" d="
  M 3.07 5.73
  A 0.35 0.35 0.0 0 0 3.04 6.39
  L 15.89 11.14
  A 0.35 0.35 0.0 0 0 16.11 11.15
  L 19.49 10.17
  A 0.35 0.35 0.0 0 0 19.52 9.51
  L 6.67 4.76
  A 0.35 0.35 0.0 0 0 6.45 4.75
  L 3.07 5.73"
/>
<path stroke="#654e37" vector-effect="non-scaling-stroke" d="
  M 2.10 24.08
  A 0.48 0.48 0.0 0 0 2.38 24.49
  L 14.77 30.23
  A 0.48 0.48 0.0 0 0 15.45 29.81
  L 16.00 12.56
  A 0.48 0.48 0.0 0 0 15.69 12.09
  L 2.08 7.07
  A 0.48 0.48 0.0 0 0 1.44 7.54
  L 2.10 24.08"
/>
<path stroke="#554332" vector-effect="non-scaling-stroke" d="
  M 29.76 24.21
  A 0.53 0.53 0.0 0 0 30.06 23.75
  L 30.57 7.44
  A 0.53 0.53 0.0 0 0 29.82 6.94
  L 27.03 8.26
  A 0.53 0.53 0.0 0 0 26.73 8.72
  L 26.41 18.95
  A 0.53 0.53 0.0 0 1 26.03 19.45
  L 21.51 20.74
  A 0.53 0.53 0.0 0 1 20.83 20.21
  L 21.11 11.09
  A 0.53 0.53 0.0 0 0 20.36 10.59
  L 17.27 12.05
  A 0.53 0.53 0.0 0 0 16.97 12.51
  L 16.44 29.66
  A 0.53 0.53 0.0 0 0 17.19 30.16
  L 29.76 24.21"
/>
</g>
<path fill="#010100" d="
  M 15.93 0.29
  Q 16.09 0.29 16.23 0.34
  Q 24.25 3.09 31.14 5.60
  A 0.67 0.66 11.4 0 1 31.57 6.23
  L 31.01 24.22
  A 0.94 0.93 78.8 0 1 30.47 25.04
  Q 24.97 27.66 16.27 31.76
  Q 16.22 31.78 16.02 31.78
  Q 15.83 31.78 15.78 31.76
  Q 7.06 27.71 1.54 25.12
  A 0.94 0.93 -79.1 0 1 1.00 24.31
  L 0.33 6.32
  A 0.67 0.66 -11.8 0 1 0.76 5.69
  Q 7.63 3.14 15.63 0.34
  Q 15.78 0.29 15.93 0.29
  Z
  M 20.74 5.27
  Q 24.86 6.84 25.72 7.11
  A 1.99 1.97 -44.0 0 0 26.81 7.12
  L 28.45 6.64
  A 0.38 0.38 0.0 0 0 28.50 5.92
  Q 28.07 5.73 21.69 3.29
  Q 17.57 1.72 16.71 1.45
  A 1.99 1.97 -44.0 0 0 15.62 1.44
  L 13.98 1.92
  A 0.38 0.38 0.0 0 0 13.93 2.64
  Q 14.36 2.83 20.74 5.27
  Z
  M 21.95 9.38
  A 0.41 0.41 0.0 0 1 22.22 9.77
  L 21.94 18.97
  A 0.41 0.41 0.0 0 0 22.46 19.37
  L 25.40 18.53
  A 0.41 0.41 0.0 0 0 25.70 18.12
  L 25.31 8.40
  A 0.41 0.41 0.0 0 0 25.04 8.04
  L 11.54 3.05
  A 0.41 0.41 0.0 0 0 11.28 3.04
  L 8.84 3.74
  A 0.41 0.41 0.0 0 0 8.81 4.51
  L 21.95 9.38
  Z
  M 3.07 5.73
  A 0.35 0.35 0.0 0 0 3.04 6.39
  L 15.89 11.14
  A 0.35 0.35 0.0 0 0 16.11 11.15
  L 19.49 10.17
  A 0.35 0.35 0.0 0 0 19.52 9.51
  L 6.67 4.76
  A 0.35 0.35 0.0 0 0 6.45 4.75
  L 3.07 5.73
  Z
  M 2.10 24.08
  A 0.48 0.48 0.0 0 0 2.38 24.49
  L 14.77 30.23
  A 0.48 0.48 0.0 0 0 15.45 29.81
  L 16.00 12.56
  A 0.48 0.48 0.0 0 0 15.69 12.09
  L 2.08 7.07
  A 0.48 0.48 0.0 0 0 1.44 7.54
  L 2.10 24.08
  Z
  M 29.76 24.21
  A 0.53 0.53 0.0 0 0 30.06 23.75
  L 30.57 7.44
  A 0.53 0.53 0.0 0 0 29.82 6.94
  L 27.03 8.26
  A 0.53 0.53 0.0 0 0 26.73 8.72
  L 26.41 18.95
  A 0.53 0.53 0.0 0 1 26.03 19.45
  L 21.51 20.74
  A 0.53 0.53 0.0 0 1 20.83 20.21
  L 21.11 11.09
  A 0.53 0.53 0.0 0 0 20.36 10.59
  L 17.27 12.05
  A 0.53 0.53 0.0 0 0 16.97 12.51
  L 16.44 29.66
  A 0.53 0.53 0.0 0 0 17.19 30.16
  L 29.76 24.21
  Z"
/>
<path fill="#c89a6e" d="
  M 20.74 5.27
  Q 14.36 2.83 13.93 2.64
  A 0.38 0.38 0.0 0 1 13.98 1.92
  L 15.62 1.44
  A 1.99 1.97 -44.0 0 1 16.71 1.45
  Q 17.57 1.72 21.69 3.29
  Q 28.07 5.73 28.50 5.92
  A 0.38 0.38 0.0 0 1 28.45 6.64
  L 26.81 7.12
  A 1.99 1.97 -44.0 0 1 25.72 7.11
  Q 24.86 6.84 20.74 5.27
  Z"
/>
<path fill="#ab9987" d="
  M 21.95 9.38
  L 8.81 4.51
  A 0.41 0.41 0.0 0 1 8.84 3.74
  L 11.28 3.04
  A 0.41 0.41 0.0 0 1 11.54 3.05
  L 25.04 8.04
  A 0.41 0.41 0.0 0 1 25.31 8.40
  L 25.70 18.12
  A 0.41 0.41 0.0 0 1 25.40 18.53
  L 22.46 19.37
  A 0.41 0.41 0.0 0 1 21.94 18.97
  L 22.22 9.77
  A 0.41 0.41 0.0 0 0 21.95 9.38
  Z"
/>
<path fill="#c89a6e" d="
  M 3.07 5.73
  L 6.45 4.75
  A 0.35 0.35 0.0 0 1 6.67 4.76
  L 19.52 9.51
  A 0.35 0.35 0.0 0 1 19.49 10.17
  L 16.11 11.15
  A 0.35 0.35 0.0 0 1 15.89 11.14
  L 3.04 6.39
  A 0.35 0.35 0.0 0 1 3.07 5.73
  Z"
/>
<path fill="#c89a6e" d="
  M 2.10 24.08
  L 1.44 7.54
  A 0.48 0.48 0.0 0 1 2.08 7.07
  L 15.69 12.09
  A 0.48 0.48 0.0 0 1 16.00 12.56
  L 15.45 29.81
  A 0.48 0.48 0.0 0 1 14.77 30.23
  L 2.38 24.49
  A 0.48 0.48 0.0 0 1 2.10 24.08
  Z"
/>
<path fill="#a88464" d="
  M 29.76 24.21
  L 17.19 30.16
  A 0.53 0.53 0.0 0 1 16.44 29.66
  L 16.97 12.51
  A 0.53 0.53 0.0 0 1 17.27 12.05
  L 20.36 10.59
  A 0.53 0.53 0.0 0 1 21.11 11.09
  L 20.83 20.21
  A 0.53 0.53 0.0 0 0 21.51 20.74
  L 26.03 19.45
  A 0.53 0.53 0.0 0 0 26.41 18.95
  L 26.73 8.72
  A 0.53 0.53 0.0 0 1 27.03 8.26
  L 29.82 6.94
  A 0.53 0.53 0.0 0 1 30.57 7.44
  L 30.06 23.75
  A 0.53 0.53 0.0 0 1 29.76 24.21
  Z"
/>
</svg>
