<?xml version="1.0" encoding="UTF-8" standalone="no"?>
<!DOCTYPE svg PUBLIC "-//W3C//DTD SVG 1.1//EN" "http://www.w3.org/Graphics/SVG/1.1/DTD/svg11.dtd">
<svg xmlns="http://www.w3.org/2000/svg" version="1.1" viewBox="0.00 0.00 600.00 600.00">
<path fill="#20222d" d="
  M 551.38 0.00
  Q 575.12 1.41 589.81 19.42
  C 592.07 22.18 592.92 24.55 594.48 26.79
  Q 596.03 29.03 597.11 32.74
  C 597.81 35.17 599.08 38.21 599.49 41.58
  Q 599.80 44.10 600.00 46.63
  L 600.00 300.39
  Q 599.71 306.82 599.38 313.26
  Q 595.91 382.40 564.27 442.29
  C 535.07 497.56 489.92 542.60 434.19 570.19
  Q 380.22 596.91 319.24 599.50
  Q 314.38 599.71 309.52 600.00
  L 145.70 600.00
  L 145.72 463.79
  A 0.24 0.24 0.0 0 1 146.13 463.63
  Q 166.67 485.20 192.98 498.56
  Q 239.50 522.17 292.01 524.65
  Q 338.77 526.86 381.86 511.05
  C 479.65 475.18 542.90 377.18 531.46 273.03
  Q 524.00 205.15 480.26 152.42
  Q 444.80 109.66 394.71 88.04
  Q 352.80 69.95 307.99 69.09
  C 242.51 67.84 180.04 94.50 135.07 142.07
  C 101.37 177.73 80.23 222.52 74.34 270.98
  Q 72.87 283.08 72.87 317.05
  Q 72.84 458.52 72.86 600.00
  L 0.00 600.00
  L 0.00 293.61
  Q 1.89 201.42 55.20 127.44
  Q 74.99 99.99 101.77 76.79
  Q 170.84 16.98 260.56 3.32
  Q 279.28 0.47 302.50 0.00
  L 551.38 0.00
  Z"
/>
<circle fill="#21bbd1" cx="306.11" cy="297.00" r="155.86"/>
</svg>
