<?xml version="1.0" encoding="UTF-8" standalone="no"?>
<!DOCTYPE svg PUBLIC "-//W3C//DTD SVG 1.1//EN" "http://www.w3.org/Graphics/SVG/1.1/DTD/svg11.dtd">
<svg xmlns="http://www.w3.org/2000/svg" version="1.1" viewBox="0.00 0.00 400.00 400.00">
<g stroke-width="2.00" fill="none" stroke-linecap="butt">
<path stroke="#e7a181" vector-effect="non-scaling-stroke" d="
  M 282.43 301.28
  C 286.19 297.98 288.58 292.83 288.57 287.59
  Q 288.56 278.29 288.57 117.26
  Q 288.57 111.03 287.94 108.79
  C 286.79 104.69 283.40 99.33 279.12 97.89
  Q 274.82 96.45 264.87 93.65
  Q 231.63 84.31 170.80 66.94
  Q 166.73 65.77 159.97 66.29
  A 3.76 3.75 31.7 0 0 158.74 66.58
  Q 153.89 68.64 151.45 73.19
  Q 150.10 75.73 150.10 82.54
  Q 150.14 189.14 150.12 318.45
  Q 150.12 329.00 160.32 332.31
  A 3.79 3.43 -32.9 0 0 161.36 332.48
  Q 167.87 332.59 171.39 331.66
  Q 226.30 317.12 274.11 304.72
  Q 280.36 303.10 282.43 301.28"
/>
<path stroke="#e7a181" vector-effect="non-scaling-stroke" d="
  M 125.27 198.82
  Q 125.28 287.35 125.18 293.50
  Q 125.07 301.44 126.39 305.29
  Q 129.74 315.01 140.16 316.16
  A 0.51 0.51 0.0 0 0 140.73 315.65
  Q 140.79 269.64 140.79 198.82
  Q 140.79 128.00 140.73 81.99
  A 0.51 0.51 0.0 0 0 140.16 81.48
  Q 129.74 82.63 126.39 92.35
  Q 125.07 96.20 125.18 104.14
  Q 125.27 110.29 125.27 198.82"
/>
<path stroke="#e7a181" vector-effect="non-scaling-stroke" d="
  M 106.47 198.77
  Q 106.46 275.28 106.45 280.00
  C 106.43 285.92 111.56 290.91 117.30 291.12
  A 0.55 0.54 2.7 0 0 117.87 290.61
  Q 118.11 286.93 118.11 286.00
  Q 118.06 278.90 118.07 198.77
  Q 118.08 118.65 118.14 111.55
  Q 118.14 110.62 117.90 106.94
  A 0.55 0.54 -2.7 0 0 117.33 106.43
  C 111.59 106.64 106.46 111.63 106.47 117.55
  Q 106.48 122.27 106.47 198.77"
/>
<path stroke="#e7a181" vector-effect="non-scaling-stroke" d="
  M 165.17 81.44
  C 160.86 85.13 161.25 90.19 161.25 96.25
  Q 161.29 244.08 161.19 271.17
  Q 161.17 277.96 162.19 280.10
  Q 166.57 289.23 176.76 287.46
  Q 263.66 272.29 269.02 271.40
  Q 274.78 270.44 276.54 269.16
  C 280.45 266.30 282.05 261.77 282.06 257.00
  Q 282.17 181.11 282.06 119.51
  Q 282.04 107.08 270.39 104.11
  Q 252.63 99.58 178.53 80.01
  C 173.20 78.60 169.12 78.06 165.17 81.44"
/>
<path stroke="#e7a181" vector-effect="non-scaling-stroke" d="
  M 236.0742 288.4077
  A 10.67 8.47 -55.3 0 0 223.0364 292.3582
  A 10.67 8.47 -55.3 0 0 223.9258 305.9523
  A 10.67 8.47 -55.3 0 0 236.9636 302.0018
  A 10.67 8.47 -55.3 0 0 236.0742 288.4077"
/>
<path stroke="#e7a181" vector-effect="non-scaling-stroke" d="
  M 254.01 106.43
  Q 253.92 108.06 253.04 111.26
  C 248.50 127.78 231.07 129.89 218.89 119.93
  Q 206.69 109.97 206.35 94.59
  A 0.75 0.74 10.0 0 0 205.87 93.91
  Q 205.77 93.88 187.07 89.23
  C 180.61 87.63 175.39 87.58 171.86 92.99
  Q 170.39 95.24 170.40 104.30
  Q 170.47 239.74 170.41 267.25
  C 170.39 274.83 176.66 280.30 184.07 279.11
  Q 192.76 277.72 265.48 266.28
  Q 270.24 265.53 272.01 264.26
  C 275.66 261.65 277.05 257.31 277.03 252.75
  Q 276.88 203.19 276.96 122.26
  C 276.96 115.79 273.29 110.51 267.07 108.99
  Q 259.89 107.24 254.71 105.92
  A 0.56 0.56 0.0 0 0 254.01 106.43"
/>
<path stroke="#e7a181" vector-effect="non-scaling-stroke" d="
  M 189.00 94.56
  C 183.89 92.78 177.92 93.75 176.47 99.96
  Q 175.73 103.14 176.25 106.15
  A 0.25 0.24 50.9 0 0 176.72 106.20
  Q 180.10 97.45 188.98 95.11
  A 0.29 0.29 0.0 0 0 189.00 94.56"
/>
<path stroke="#e7a181" vector-effect="non-scaling-stroke" d="
  M 218.36 160.28
  L 218.75 157.23
  A 1.55 1.55 0.0 0 0 217.41 155.49
  L 208.89 154.39
  A 0.70 0.69 -86.4 0 0 208.11 155.08
  L 208.11 215.99
  A 0.50 0.50 0.0 0 0 208.61 216.49
  L 217.89 216.49
  A 0.68 0.68 0.0 0 0 218.57 215.81
  L 218.57 195.36
  A 0.31 0.31 0.0 0 1 219.11 195.14
  C 225.15 201.42 234.85 203.17 241.92 197.68
  C 251.32 190.38 252.11 177.07 247.16 167.05
  C 241.71 156.02 228.27 151.94 218.91 160.57
  A 0.33 0.33 0.0 0 1 218.36 160.28"
/>
<path stroke="#e7a181" vector-effect="non-scaling-stroke" d="
  M 227.1416 165.0649
  A 13.51 11.79 -100.7 0 0 218.0650 180.5290
  A 13.51 11.79 -100.7 0 0 232.1584 191.6151
  A 13.51 11.79 -100.7 0 0 241.2350 176.1510
  A 13.51 11.79 -100.7 0 0 227.1416 165.0649"
/>
</g>
<path fill="#ce4302" d="
  M 400.00 0.00
  L 400.00 400.00
  L 0.00 400.00
  L 0.00 0.00
  L 400.00 0.00
  Z
  M 282.43 301.28
  C 286.19 297.98 288.58 292.83 288.57 287.59
  Q 288.56 278.29 288.57 117.26
  Q 288.57 111.03 287.94 108.79
  C 286.79 104.69 283.40 99.33 279.12 97.89
  Q 274.82 96.45 264.87 93.65
  Q 231.63 84.31 170.80 66.94
  Q 166.73 65.77 159.97 66.29
  A 3.76 3.75 31.7 0 0 158.74 66.58
  Q 153.89 68.64 151.45 73.19
  Q 150.10 75.73 150.10 82.54
  Q 150.14 189.14 150.12 318.45
  Q 150.12 329.00 160.32 332.31
  A 3.79 3.43 -32.9 0 0 161.36 332.48
  Q 167.87 332.59 171.39 331.66
  Q 226.30 317.12 274.11 304.72
  Q 280.36 303.10 282.43 301.28
  Z
  M 125.27 198.82
  Q 125.28 287.35 125.18 293.50
  Q 125.07 301.44 126.39 305.29
  Q 129.74 315.01 140.16 316.16
  A 0.51 0.51 0.0 0 0 140.73 315.65
  Q 140.79 269.64 140.79 198.82
  Q 140.79 128.00 140.73 81.99
  A 0.51 0.51 0.0 0 0 140.16 81.48
  Q 129.74 82.63 126.39 92.35
  Q 125.07 96.20 125.18 104.14
  Q 125.27 110.29 125.27 198.82
  Z
  M 106.47 198.77
  Q 106.46 275.28 106.45 280.00
  C 106.43 285.92 111.56 290.91 117.30 291.12
  A 0.55 0.54 2.7 0 0 117.87 290.61
  Q 118.11 286.93 118.11 286.00
  Q 118.06 278.90 118.07 198.77
  Q 118.08 118.65 118.14 111.55
  Q 118.14 110.62 117.90 106.94
  A 0.55 0.54 -2.7 0 0 117.33 106.43
  C 111.59 106.64 106.46 111.63 106.47 117.55
  Q 106.48 122.27 106.47 198.77
  Z"
/>
<path fill="#ffffff" d="
  M 288.57 287.59
  C 288.58 292.83 286.19 297.98 282.43 301.28
  Q 280.36 303.10 274.11 304.72
  Q 226.30 317.12 171.39 331.66
  Q 167.87 332.59 161.36 332.48
  A 3.79 3.43 -32.9 0 1 160.32 332.31
  Q 150.12 329.00 150.12 318.45
  Q 150.14 189.14 150.10 82.54
  Q 150.10 75.73 151.45 73.19
  Q 153.89 68.64 158.74 66.58
  A 3.76 3.75 31.7 0 1 159.97 66.29
  Q 166.73 65.77 170.80 66.94
  Q 231.63 84.31 264.87 93.65
  Q 274.82 96.45 279.12 97.89
  C 283.40 99.33 286.79 104.69 287.94 108.79
  Q 288.57 111.03 288.57 117.26
  Q 288.56 278.29 288.57 287.59
  Z
  M 165.17 81.44
  C 160.86 85.13 161.25 90.19 161.25 96.25
  Q 161.29 244.08 161.19 271.17
  Q 161.17 277.96 162.19 280.10
  Q 166.57 289.23 176.76 287.46
  Q 263.66 272.29 269.02 271.40
  Q 274.78 270.44 276.54 269.16
  C 280.45 266.30 282.05 261.77 282.06 257.00
  Q 282.17 181.11 282.06 119.51
  Q 282.04 107.08 270.39 104.11
  Q 252.63 99.58 178.53 80.01
  C 173.20 78.60 169.12 78.06 165.17 81.44
  Z
  M 236.0742 288.4077
  A 10.67 8.47 -55.3 0 0 223.0364 292.3582
  A 10.67 8.47 -55.3 0 0 223.9258 305.9523
  A 10.67 8.47 -55.3 0 0 236.9636 302.0018
  A 10.67 8.47 -55.3 0 0 236.0742 288.4077
  Z"
/>
<path fill="#ce4302" d="
  M 165.17 81.44
  C 169.12 78.06 173.20 78.60 178.53 80.01
  Q 252.63 99.58 270.39 104.11
  Q 282.04 107.08 282.06 119.51
  Q 282.17 181.11 282.06 257.00
  C 282.05 261.77 280.45 266.30 276.54 269.16
  Q 274.78 270.44 269.02 271.40
  Q 263.66 272.29 176.76 287.46
  Q 166.57 289.23 162.19 280.10
  Q 161.17 277.96 161.19 271.17
  Q 161.29 244.08 161.25 96.25
  C 161.25 90.19 160.86 85.13 165.17 81.44
  Z
  M 254.01 106.43
  Q 253.92 108.06 253.04 111.26
  C 248.50 127.78 231.07 129.89 218.89 119.93
  Q 206.69 109.97 206.35 94.59
  A 0.75 0.74 10.0 0 0 205.87 93.91
  Q 205.77 93.88 187.07 89.23
  C 180.61 87.63 175.39 87.58 171.86 92.99
  Q 170.39 95.24 170.40 104.30
  Q 170.47 239.74 170.41 267.25
  C 170.39 274.83 176.66 280.30 184.07 279.11
  Q 192.76 277.72 265.48 266.28
  Q 270.24 265.53 272.01 264.26
  C 275.66 261.65 277.05 257.31 277.03 252.75
  Q 276.88 203.19 276.96 122.26
  C 276.96 115.79 273.29 110.51 267.07 108.99
  Q 259.89 107.24 254.71 105.92
  A 0.56 0.56 0.0 0 0 254.01 106.43
  Z"
/>
<path fill="#ffffff" d="
  M 140.79 198.82
  Q 140.79 269.64 140.73 315.65
  A 0.51 0.51 0.0 0 1 140.16 316.16
  Q 129.74 315.01 126.39 305.29
  Q 125.07 301.44 125.18 293.50
  Q 125.28 287.35 125.27 198.82
  Q 125.27 110.29 125.18 104.14
  Q 125.07 96.20 126.39 92.35
  Q 129.74 82.63 140.16 81.48
  A 0.51 0.51 0.0 0 1 140.73 81.99
  Q 140.79 128.00 140.79 198.82
  Z"
/>
<path fill="#ffffff" d="
  M 254.71 105.92
  Q 259.89 107.24 267.07 108.99
  C 273.29 110.51 276.96 115.79 276.96 122.26
  Q 276.88 203.19 277.03 252.75
  C 277.05 257.31 275.66 261.65 272.01 264.26
  Q 270.24 265.53 265.48 266.28
  Q 192.76 277.72 184.07 279.11
  C 176.66 280.30 170.39 274.83 170.41 267.25
  Q 170.47 239.74 170.40 104.30
  Q 170.39 95.24 171.86 92.99
  C 175.39 87.58 180.61 87.63 187.07 89.23
  Q 205.77 93.88 205.87 93.91
  A 0.75 0.74 10.0 0 1 206.35 94.59
  Q 206.69 109.97 218.89 119.93
  C 231.07 129.89 248.50 127.78 253.04 111.26
  Q 253.92 108.06 254.01 106.43
  A 0.56 0.56 0.0 0 1 254.71 105.92
  Z
  M 189.00 94.56
  C 183.89 92.78 177.92 93.75 176.47 99.96
  Q 175.73 103.14 176.25 106.15
  A 0.25 0.24 50.9 0 0 176.72 106.20
  Q 180.10 97.45 188.98 95.11
  A 0.29 0.29 0.0 0 0 189.00 94.56
  Z
  M 218.36 160.28
  L 218.75 157.23
  A 1.55 1.55 0.0 0 0 217.41 155.49
  L 208.89 154.39
  A 0.70 0.69 -86.4 0 0 208.11 155.08
  L 208.11 215.99
  A 0.50 0.50 0.0 0 0 208.61 216.49
  L 217.89 216.49
  A 0.68 0.68 0.0 0 0 218.57 215.81
  L 218.57 195.36
  A 0.31 0.31 0.0 0 1 219.11 195.14
  C 225.15 201.42 234.85 203.17 241.92 197.68
  C 251.32 190.38 252.11 177.07 247.16 167.05
  C 241.71 156.02 228.27 151.94 218.91 160.57
  A 0.33 0.33 0.0 0 1 218.36 160.28
  Z"
/>
<path fill="#ce4302" d="
  M 189.00 94.56
  A 0.29 0.29 0.0 0 1 188.98 95.11
  Q 180.10 97.45 176.72 106.20
  A 0.25 0.24 50.9 0 1 176.25 106.15
  Q 175.73 103.14 176.47 99.96
  C 177.92 93.75 183.89 92.78 189.00 94.56
  Z"
/>
<path fill="#ffffff" d="
  M 118.07 198.77
  Q 118.06 278.90 118.11 286.00
  Q 118.11 286.93 117.87 290.61
  A 0.55 0.54 2.7 0 1 117.30 291.12
  C 111.56 290.91 106.43 285.92 106.45 280.00
  Q 106.46 275.28 106.47 198.77
  Q 106.48 122.27 106.47 117.55
  C 106.46 111.63 111.59 106.64 117.33 106.43
  A 0.55 0.54 -2.7 0 1 117.90 106.94
  Q 118.14 110.62 118.14 111.55
  Q 118.08 118.65 118.07 198.77
  Z"
/>
<path fill="#ce4302" d="
  M 218.36 160.28
  A 0.33 0.33 0.0 0 0 218.91 160.57
  C 228.27 151.94 241.71 156.02 247.16 167.05
  C 252.11 177.07 251.32 190.38 241.92 197.68
  C 234.85 203.17 225.15 201.42 219.11 195.14
  A 0.31 0.31 0.0 0 0 218.57 195.36
  L 218.57 215.81
  A 0.68 0.68 0.0 0 1 217.89 216.49
  L 208.61 216.49
  A 0.50 0.50 0.0 0 1 208.11 215.99
  L 208.11 155.08
  A 0.70 0.69 -86.4 0 1 208.89 154.39
  L 217.41 155.49
  A 1.55 1.55 0.0 0 1 218.75 157.23
  L 218.36 160.28
  Z
  M 227.1416 165.0649
  A 13.51 11.79 -100.7 0 0 218.0650 180.5290
  A 13.51 11.79 -100.7 0 0 232.1584 191.6151
  A 13.51 11.79 -100.7 0 0 241.2350 176.1510
  A 13.51 11.79 -100.7 0 0 227.1416 165.0649
  Z"
/>
<ellipse fill="#ffffff" cx="0.00" cy="0.00" transform="translate(229.65,178.34) rotate(-100.7)" rx="13.51" ry="11.79"/>
<ellipse fill="#ce4302" cx="0.00" cy="0.00" transform="translate(230.00,297.18) rotate(-55.3)" rx="10.67" ry="8.47"/>
</svg>
