<?xml version="1.0" encoding="UTF-8" standalone="no"?>
<!DOCTYPE svg PUBLIC "-//W3C//DTD SVG 1.1//EN" "http://www.w3.org/Graphics/SVG/1.1/DTD/svg11.dtd">
<svg xmlns="http://www.w3.org/2000/svg" version="1.1" viewBox="0.00 0.00 400.00 400.00">
<g stroke-width="2.00" fill="none" stroke-linecap="butt">
<path stroke="#c5992a" vector-effect="non-scaling-stroke" d="
  M 399.46 2.63
  A 1.54 1.54 0.0 0 0 397.92 1.09
  L 2.72 1.09
  A 1.54 1.54 0.0 0 0 1.18 2.63
  L 1.18 397.83
  A 1.54 1.54 0.0 0 0 2.72 399.37
  L 397.92 399.37
  A 1.54 1.54 0.0 0 0 399.46 397.83
  L 399.46 2.63"
/>
<path stroke="#fee29b" vector-effect="non-scaling-stroke" d="
  M 243.28 158.51
  Q 236.59 155.32 228.70 153.94
  Q 226.32 153.53 216.62 153.63
  C 212.02 153.68 206.50 155.13 203.08 156.96
  Q 192.79 162.49 191.20 174.54
  Q 190.29 181.42 190.68 184.86
  Q 191.88 195.01 200.47 199.62
  C 204.34 201.69 209.42 201.89 214.05 203.06
  Q 220.19 204.59 220.12 209.41
  C 220.03 214.85 216.88 218.41 211.55 219.65
  Q 207.95 220.48 206.08 220.32
  Q 198.78 219.71 193.04 217.60
  A 1.71 1.71 0.0 0 0 191.29 217.95
  Q 186.08 222.82 183.19 230.08
  A 1.44 1.43 27.3 0 0 183.75 231.81
  C 191.79 236.98 202.98 237.78 212.41 236.72
  C 227.57 235.01 237.85 227.84 239.80 212.30
  Q 241.97 194.91 227.14 188.64
  A 7.10 6.78 -26.6 0 0 225.77 188.22
  Q 220.56 187.20 216.34 186.00
  Q 211.23 184.57 210.99 180.30
  C 210.21 166.62 225.41 170.28 232.89 172.83
  A 2.31 2.28 32.0 0 0 235.23 172.30
  Q 241.01 166.63 243.63 159.37
  A 0.70 0.69 -67.3 0 0 243.28 158.51"
/>
<path stroke="#fee29b" vector-effect="non-scaling-stroke" d="
  M 302.69 158.51
  Q 296.00 155.32 288.11 153.94
  Q 285.73 153.53 276.03 153.64
  C 271.43 153.69 265.91 155.14 262.50 156.97
  Q 252.21 162.50 250.62 174.55
  Q 249.71 181.43 250.11 184.87
  Q 251.31 195.02 259.90 199.63
  C 263.77 201.70 268.85 201.90 273.48 203.06
  Q 279.62 204.59 279.55 209.41
  C 279.46 214.85 276.32 218.41 270.99 219.65
  Q 267.39 220.49 265.52 220.33
  Q 258.22 219.72 252.48 217.61
  A 1.71 1.71 0.0 0 0 250.73 217.96
  Q 245.52 222.83 242.63 230.09
  A 1.44 1.43 27.2 0 0 243.19 231.82
  C 251.23 236.99 262.42 237.79 271.85 236.72
  C 287.01 235.01 297.29 227.83 299.23 212.30
  Q 301.40 194.91 286.56 188.64
  A 7.10 6.78 -26.7 0 0 285.19 188.22
  Q 279.98 187.20 275.76 186.01
  Q 270.65 184.58 270.41 180.31
  C 269.63 166.63 284.83 170.28 292.31 172.83
  A 2.31 2.28 31.9 0 0 294.65 172.30
  Q 300.43 166.63 303.04 159.37
  A 0.70 0.69 -67.4 0 0 302.69 158.51"
/>
<path stroke="#fee29b" vector-effect="non-scaling-stroke" d="
  M 17.64 271.43
  C 17.57 272.45 18.29 273.00 19.24 273.09
  Q 27.58 273.94 36.20 272.92
  A 1.39 1.38 -88.3 0 0 37.40 271.78
  L 43.34 237.48
  A 1.68 1.66 -83.9 0 1 45.05 236.09
  C 51.15 236.33 57.87 236.55 63.18 235.68
  C 83.46 232.34 96.84 216.39 100.99 196.53
  C 104.01 182.04 104.89 162.69 88.38 156.51
  Q 82.62 154.36 79.49 153.98
  Q 74.45 153.38 60.39 153.74
  C 57.00 153.82 53.94 154.74 50.74 155.55
  C 40.28 158.18 35.44 167.04 33.59 177.83
  Q 22.99 239.65 19.35 261.03
  Q 18.81 264.23 18.66 264.77
  Q 17.94 267.44 17.64 271.43"
/>
<path stroke="#fee29b" vector-effect="non-scaling-stroke" d="
  M 183.99 154.88
  Q 174.34 153.90 158.39 153.56
  Q 144.43 153.26 137.79 155.59
  C 118.49 162.36 108.24 179.98 106.49 200.05
  Q 105.71 208.97 106.58 214.76
  C 109.14 231.86 122.16 236.79 137.76 236.66
  Q 151.84 236.53 170.14 236.11
  A 1.07 1.07 0.0 0 0 171.17 235.22
  L 184.88 156.05
  A 1.01 1.00 8.0 0 0 183.99 154.88"
/>
<path stroke="#fee29b" vector-effect="non-scaling-stroke" d="
  M 337.24 202.26
  A 0.62 0.62 0.0 0 0 336.41 201.57
  L 329.90 204.05
  A 1.51 1.50 84.9 0 0 328.95 205.20
  Q 327.16 215.09 325.58 224.66
  C 324.95 228.49 324.10 231.49 323.82 235.41
  A 3.34 3.21 55.1 0 1 323.73 235.98
  L 322.64 240.32
  A 2.88 2.88 0.0 0 0 322.55 240.95
  Q 322.43 245.94 321.61 247.15
  A 1.06 1.06 0.0 0 0 322.46 248.81
  L 326.69 248.89
  A 2.88 2.87 -84.5 0 0 329.58 246.50
  L 337.24 202.26"
/>
<path stroke="#fee29b" vector-effect="non-scaling-stroke" d="
  M 375.91 208.89
  L 369.52 211.32
  A 1.84 1.83 -6.1 0 0 368.35 212.76
  Q 366.04 227.31 363.85 238.46
  C 363.21 241.68 363.27 245.23 365.85 246.78
  Q 369.30 248.86 373.25 248.94
  A 1.89 1.89 0.0 0 0 375.15 247.43
  Q 375.71 244.76 375.38 242.31
  A 0.91 0.90 0.9 0 0 374.63 241.54
  L 373.30 241.31
  A 2.03 2.02 10.0 0 1 371.65 238.97
  L 374.16 224.48
  A 0.64 0.64 0.0 0 1 374.79 223.95
  L 380.48 223.95
  A 2.43 2.43 0.0 0 0 382.87 221.94
  L 383.44 218.63
  A 1.47 1.46 -85.0 0 0 382.00 216.91
  L 376.63 216.91
  A 0.92 0.92 0.0 0 1 375.72 215.83
  L 376.80 209.63
  A 0.67 0.67 0.0 0 0 375.91 208.89"
/>
<path stroke="#fee29b" vector-effect="non-scaling-stroke" d="
  M 319.91 217.81
  Q 317.91 217.49 313.27 216.56
  Q 311.07 216.12 306.56 217.81
  C 300.39 220.12 298.80 230.60 304.61 234.24
  A 3.55 3.48 66.8 0 0 305.68 234.68
  C 308.90 235.42 311.12 235.46 312.46 237.55
  A 1.08 1.07 -49.9 0 1 312.54 238.56
  C 311.26 241.47 309.33 242.31 305.95 242.31
  Q 229.97 242.31 50.47 242.32
  A 1.56 1.30 31.7 0 0 50.05 242.38
  C 45.65 243.74 47.18 248.88 51.27 248.88
  Q 173.02 248.86 306.32 248.89
  Q 309.15 248.89 311.16 248.38
  C 316.77 246.94 319.83 244.08 319.96 237.74
  Q 320.05 233.72 317.44 231.45
  C 315.68 229.91 312.65 229.61 310.36 228.67
  A 2.38 2.04 21.1 0 1 308.92 225.99
  C 310.34 221.86 313.74 223.75 316.62 224.04
  A 3.03 3.02 -72.1 0 0 319.55 222.54
  L 320.98 220.06
  A 1.52 1.51 19.7 0 0 319.91 217.81"
/>
<path stroke="#fee29b" vector-effect="non-scaling-stroke" d="
  M 335.94 229.07
  C 334.42 234.84 333.36 243.19 338.88 246.72
  Q 344.21 250.12 350.59 248.03
  C 356.59 246.07 359.90 242.08 361.47 236.14
  C 362.99 230.36 364.05 222.01 358.53 218.48
  Q 353.20 215.08 346.81 217.17
  C 340.82 219.13 337.51 223.12 335.94 229.07"
/>
<path stroke="#fee29b" vector-effect="non-scaling-stroke" d="
  M 46.82 218.63
  A 0.57 0.56 -85.2 0 0 47.35 219.26
  Q 53.60 219.49 60.51 219.27
  C 67.67 219.04 74.42 212.03 77.14 205.89
  Q 82.70 193.36 81.58 180.30
  Q 81.12 174.90 76.95 173.03
  C 70.83 170.28 56.68 169.58 54.01 178.26
  Q 52.79 182.23 51.20 192.35
  C 50.10 199.31 47.78 210.50 46.82 218.63"
/>
<path stroke="#fee29b" vector-effect="non-scaling-stroke" d="
  M 160.53 171.66
  Q 155.70 171.83 151.24 171.82
  C 139.21 171.78 131.24 180.46 128.22 191.70
  C 125.96 200.08 124.21 213.59 133.27 218.09
  Q 136.18 219.54 142.94 219.43
  Q 144.61 219.40 152.75 219.37
  A 0.75 0.75 0.0 0 0 153.48 218.75
  L 161.45 172.72
  A 0.91 0.90 -86.1 0 0 160.53 171.66"
/>
<path stroke="#fee29b" vector-effect="non-scaling-stroke" d="
  M 343.12 239.80
  C 346.36 243.75 351.30 241.27 353.06 237.30
  Q 353.46 236.41 354.80 231.02
  C 355.59 227.83 355.05 224.40 351.47 223.85
  C 343.21 222.59 341.83 233.15 342.72 238.91
  A 1.87 1.86 -69.4 0 0 343.12 239.80"
/>
</g>
<path fill="#8c6d1e" d="
  M 400.00 0.00
  L 400.00 400.00
  L 0.00 400.00
  L 0.00 0.00
  L 400.00 0.00
  Z
  M 399.46 2.63
  A 1.54 1.54 0.0 0 0 397.92 1.09
  L 2.72 1.09
  A 1.54 1.54 0.0 0 0 1.18 2.63
  L 1.18 397.83
  A 1.54 1.54 0.0 0 0 2.72 399.37
  L 397.92 399.37
  A 1.54 1.54 0.0 0 0 399.46 397.83
  L 399.46 2.63
  Z"
/>
<path fill="#fdc436" d="
  M 399.46 397.83
  A 1.54 1.54 0.0 0 1 397.92 399.37
  L 2.72 399.37
  A 1.54 1.54 0.0 0 1 1.18 397.83
  L 1.18 2.63
  A 1.54 1.54 0.0 0 1 2.72 1.09
  L 397.92 1.09
  A 1.54 1.54 0.0 0 1 399.46 2.63
  L 399.46 397.83
  Z
  M 243.28 158.51
  Q 236.59 155.32 228.70 153.94
  Q 226.32 153.53 216.62 153.63
  C 212.02 153.68 206.50 155.13 203.08 156.96
  Q 192.79 162.49 191.20 174.54
  Q 190.29 181.42 190.68 184.86
  Q 191.88 195.01 200.47 199.62
  C 204.34 201.69 209.42 201.89 214.05 203.06
  Q 220.19 204.59 220.12 209.41
  C 220.03 214.85 216.88 218.41 211.55 219.65
  Q 207.95 220.48 206.08 220.32
  Q 198.78 219.71 193.04 217.60
  A 1.71 1.71 0.0 0 0 191.29 217.95
  Q 186.08 222.82 183.19 230.08
  A 1.44 1.43 27.3 0 0 183.75 231.81
  C 191.79 236.98 202.98 237.78 212.41 236.72
  C 227.57 235.01 237.85 227.84 239.80 212.30
  Q 241.97 194.91 227.14 188.64
  A 7.10 6.78 -26.6 0 0 225.77 188.22
  Q 220.56 187.20 216.34 186.00
  Q 211.23 184.57 210.99 180.30
  C 210.21 166.62 225.41 170.28 232.89 172.83
  A 2.31 2.28 32.0 0 0 235.23 172.30
  Q 241.01 166.63 243.63 159.37
  A 0.70 0.69 -67.3 0 0 243.28 158.51
  Z
  M 302.69 158.51
  Q 296.00 155.32 288.11 153.94
  Q 285.73 153.53 276.03 153.64
  C 271.43 153.69 265.91 155.14 262.50 156.97
  Q 252.21 162.50 250.62 174.55
  Q 249.71 181.43 250.11 184.87
  Q 251.31 195.02 259.90 199.63
  C 263.77 201.70 268.85 201.90 273.48 203.06
  Q 279.62 204.59 279.55 209.41
  C 279.46 214.85 276.32 218.41 270.99 219.65
  Q 267.39 220.49 265.52 220.33
  Q 258.22 219.72 252.48 217.61
  A 1.71 1.71 0.0 0 0 250.73 217.96
  Q 245.52 222.83 242.63 230.09
  A 1.44 1.43 27.2 0 0 243.19 231.82
  C 251.23 236.99 262.42 237.79 271.85 236.72
  C 287.01 235.01 297.29 227.83 299.23 212.30
  Q 301.40 194.91 286.56 188.64
  A 7.10 6.78 -26.7 0 0 285.19 188.22
  Q 279.98 187.20 275.76 186.01
  Q 270.65 184.58 270.41 180.31
  C 269.63 166.63 284.83 170.28 292.31 172.83
  A 2.31 2.28 31.9 0 0 294.65 172.30
  Q 300.43 166.63 303.04 159.37
  A 0.70 0.69 -67.4 0 0 302.69 158.51
  Z
  M 17.64 271.43
  C 17.57 272.45 18.29 273.00 19.24 273.09
  Q 27.58 273.94 36.20 272.92
  A 1.39 1.38 -88.3 0 0 37.40 271.78
  L 43.34 237.48
  A 1.68 1.66 -83.9 0 1 45.05 236.09
  C 51.15 236.33 57.87 236.55 63.18 235.68
  C 83.46 232.34 96.84 216.39 100.99 196.53
  C 104.01 182.04 104.89 162.69 88.38 156.51
  Q 82.62 154.36 79.49 153.98
  Q 74.45 153.38 60.39 153.74
  C 57.00 153.82 53.94 154.74 50.74 155.55
  C 40.28 158.18 35.44 167.04 33.59 177.83
  Q 22.99 239.65 19.35 261.03
  Q 18.81 264.23 18.66 264.77
  Q 17.94 267.44 17.64 271.43
  Z
  M 183.99 154.88
  Q 174.34 153.90 158.39 153.56
  Q 144.43 153.26 137.79 155.59
  C 118.49 162.36 108.24 179.98 106.49 200.05
  Q 105.71 208.97 106.58 214.76
  C 109.14 231.86 122.16 236.79 137.76 236.66
  Q 151.84 236.53 170.14 236.11
  A 1.07 1.07 0.0 0 0 171.17 235.22
  L 184.88 156.05
  A 1.01 1.00 8.0 0 0 183.99 154.88
  Z
  M 337.24 202.26
  A 0.62 0.62 0.0 0 0 336.41 201.57
  L 329.90 204.05
  A 1.51 1.50 84.9 0 0 328.95 205.20
  Q 327.16 215.09 325.58 224.66
  C 324.95 228.49 324.10 231.49 323.82 235.41
  A 3.34 3.21 55.1 0 1 323.73 235.98
  L 322.64 240.32
  A 2.88 2.88 0.0 0 0 322.55 240.95
  Q 322.43 245.94 321.61 247.15
  A 1.06 1.06 0.0 0 0 322.46 248.81
  L 326.69 248.89
  A 2.88 2.87 -84.5 0 0 329.58 246.50
  L 337.24 202.26
  Z
  M 375.91 208.89
  L 369.52 211.32
  A 1.84 1.83 -6.1 0 0 368.35 212.76
  Q 366.04 227.31 363.85 238.46
  C 363.21 241.68 363.27 245.23 365.85 246.78
  Q 369.30 248.86 373.25 248.94
  A 1.89 1.89 0.0 0 0 375.15 247.43
  Q 375.71 244.76 375.38 242.31
  A 0.91 0.90 0.9 0 0 374.63 241.54
  L 373.30 241.31
  A 2.03 2.02 10.0 0 1 371.65 238.97
  L 374.16 224.48
  A 0.64 0.64 0.0 0 1 374.79 223.95
  L 380.48 223.95
  A 2.43 2.43 0.0 0 0 382.87 221.94
  L 383.44 218.63
  A 1.47 1.46 -85.0 0 0 382.00 216.91
  L 376.63 216.91
  A 0.92 0.92 0.0 0 1 375.72 215.83
  L 376.80 209.63
  A 0.67 0.67 0.0 0 0 375.91 208.89
  Z
  M 319.91 217.81
  Q 317.91 217.49 313.27 216.56
  Q 311.07 216.12 306.56 217.81
  C 300.39 220.12 298.80 230.60 304.61 234.24
  A 3.55 3.48 66.8 0 0 305.68 234.68
  C 308.90 235.42 311.12 235.46 312.46 237.55
  A 1.08 1.07 -49.9 0 1 312.54 238.56
  C 311.26 241.47 309.33 242.31 305.95 242.31
  Q 229.97 242.31 50.47 242.32
  A 1.56 1.30 31.7 0 0 50.05 242.38
  C 45.65 243.74 47.18 248.88 51.27 248.88
  Q 173.02 248.86 306.32 248.89
  Q 309.15 248.89 311.16 248.38
  C 316.77 246.94 319.83 244.08 319.96 237.74
  Q 320.05 233.72 317.44 231.45
  C 315.68 229.91 312.65 229.61 310.36 228.67
  A 2.38 2.04 21.1 0 1 308.92 225.99
  C 310.34 221.86 313.74 223.75 316.62 224.04
  A 3.03 3.02 -72.1 0 0 319.55 222.54
  L 320.98 220.06
  A 1.52 1.51 19.7 0 0 319.91 217.81
  Z
  M 335.94 229.07
  C 334.42 234.84 333.36 243.19 338.88 246.72
  Q 344.21 250.12 350.59 248.03
  C 356.59 246.07 359.90 242.08 361.47 236.14
  C 362.99 230.36 364.05 222.01 358.53 218.48
  Q 353.20 215.08 346.81 217.17
  C 340.82 219.13 337.51 223.12 335.94 229.07
  Z"
/>
<path fill="#ffffff" d="
  M 243.28 158.51
  A 0.70 0.69 -67.3 0 1 243.63 159.37
  Q 241.01 166.63 235.23 172.30
  A 2.31 2.28 32.0 0 1 232.89 172.83
  C 225.41 170.28 210.21 166.62 210.99 180.30
  Q 211.23 184.57 216.34 186.00
  Q 220.56 187.20 225.77 188.22
  A 7.10 6.78 -26.6 0 1 227.14 188.64
  Q 241.97 194.91 239.80 212.30
  C 237.85 227.84 227.57 235.01 212.41 236.72
  C 202.98 237.78 191.79 236.98 183.75 231.81
  A 1.44 1.43 27.3 0 1 183.19 230.08
  Q 186.08 222.82 191.29 217.95
  A 1.71 1.71 0.0 0 1 193.04 217.60
  Q 198.78 219.71 206.08 220.32
  Q 207.95 220.48 211.55 219.65
  C 216.88 218.41 220.03 214.85 220.12 209.41
  Q 220.19 204.59 214.05 203.06
  C 209.42 201.89 204.34 201.69 200.47 199.62
  Q 191.88 195.01 190.68 184.86
  Q 190.29 181.42 191.20 174.54
  Q 192.79 162.49 203.08 156.96
  C 206.50 155.13 212.02 153.68 216.62 153.63
  Q 226.32 153.53 228.70 153.94
  Q 236.59 155.32 243.28 158.51
  Z"
/>
<path fill="#ffffff" d="
  M 302.69 158.51
  A 0.70 0.69 -67.4 0 1 303.04 159.37
  Q 300.43 166.63 294.65 172.30
  A 2.31 2.28 31.9 0 1 292.31 172.83
  C 284.83 170.28 269.63 166.63 270.41 180.31
  Q 270.65 184.58 275.76 186.01
  Q 279.98 187.20 285.19 188.22
  A 7.10 6.78 -26.7 0 1 286.56 188.64
  Q 301.40 194.91 299.23 212.30
  C 297.29 227.83 287.01 235.01 271.85 236.72
  C 262.42 237.79 251.23 236.99 243.19 231.82
  A 1.44 1.43 27.2 0 1 242.63 230.09
  Q 245.52 222.83 250.73 217.96
  A 1.71 1.71 0.0 0 1 252.48 217.61
  Q 258.22 219.72 265.52 220.33
  Q 267.39 220.49 270.99 219.65
  C 276.32 218.41 279.46 214.85 279.55 209.41
  Q 279.62 204.59 273.48 203.06
  C 268.85 201.90 263.77 201.70 259.90 199.63
  Q 251.31 195.02 250.11 184.87
  Q 249.71 181.43 250.62 174.55
  Q 252.21 162.50 262.50 156.97
  C 265.91 155.14 271.43 153.69 276.03 153.64
  Q 285.73 153.53 288.11 153.94
  Q 296.00 155.32 302.69 158.51
  Z"
/>
<path fill="#ffffff" d="
  M 19.24 273.09
  C 18.29 273.00 17.57 272.45 17.64 271.43
  Q 17.94 267.44 18.66 264.77
  Q 18.81 264.23 19.35 261.03
  Q 22.99 239.65 33.59 177.83
  C 35.44 167.04 40.28 158.18 50.74 155.55
  C 53.94 154.74 57.00 153.82 60.39 153.74
  Q 74.45 153.38 79.49 153.98
  Q 82.62 154.36 88.38 156.51
  C 104.89 162.69 104.01 182.04 100.99 196.53
  C 96.84 216.39 83.46 232.34 63.18 235.68
  C 57.87 236.55 51.15 236.33 45.05 236.09
  A 1.68 1.66 -83.9 0 0 43.34 237.48
  L 37.40 271.78
  A 1.39 1.38 -88.3 0 1 36.20 272.92
  Q 27.58 273.94 19.24 273.09
  Z
  M 46.82 218.63
  A 0.57 0.56 -85.2 0 0 47.35 219.26
  Q 53.60 219.49 60.51 219.27
  C 67.67 219.04 74.42 212.03 77.14 205.89
  Q 82.70 193.36 81.58 180.30
  Q 81.12 174.90 76.95 173.03
  C 70.83 170.28 56.68 169.58 54.01 178.26
  Q 52.79 182.23 51.20 192.35
  C 50.10 199.31 47.78 210.50 46.82 218.63
  Z"
/>
<path fill="#ffffff" d="
  M 183.99 154.88
  A 1.01 1.00 8.0 0 1 184.88 156.05
  L 171.17 235.22
  A 1.07 1.07 0.0 0 1 170.14 236.11
  Q 151.84 236.53 137.76 236.66
  C 122.16 236.79 109.14 231.86 106.58 214.76
  Q 105.71 208.97 106.49 200.05
  C 108.24 179.98 118.49 162.36 137.79 155.59
  Q 144.43 153.26 158.39 153.56
  Q 174.34 153.90 183.99 154.88
  Z
  M 160.53 171.66
  Q 155.70 171.83 151.24 171.82
  C 139.21 171.78 131.24 180.46 128.22 191.70
  C 125.96 200.08 124.21 213.59 133.27 218.09
  Q 136.18 219.54 142.94 219.43
  Q 144.61 219.40 152.75 219.37
  A 0.75 0.75 0.0 0 0 153.48 218.75
  L 161.45 172.72
  A 0.91 0.90 -86.1 0 0 160.53 171.66
  Z"
/>
<path fill="#fdc436" d="
  M 46.82 218.63
  C 47.78 210.50 50.10 199.31 51.20 192.35
  Q 52.79 182.23 54.01 178.26
  C 56.68 169.58 70.83 170.28 76.95 173.03
  Q 81.12 174.90 81.58 180.30
  Q 82.70 193.36 77.14 205.89
  C 74.42 212.03 67.67 219.04 60.51 219.27
  Q 53.60 219.49 47.35 219.26
  A 0.57 0.56 -85.2 0 1 46.82 218.63
  Z"
/>
<path fill="#fdc436" d="
  M 160.53 171.66
  A 0.91 0.90 -86.1 0 1 161.45 172.72
  L 153.48 218.75
  A 0.75 0.75 0.0 0 1 152.75 219.37
  Q 144.61 219.40 142.94 219.43
  Q 136.18 219.54 133.27 218.09
  C 124.21 213.59 125.96 200.08 128.22 191.70
  C 131.24 180.46 139.21 171.78 151.24 171.82
  Q 155.70 171.83 160.53 171.66
  Z"
/>
<path fill="#ffffff" d="
  M 337.24 202.26
  L 329.58 246.50
  A 2.88 2.87 -84.5 0 1 326.69 248.89
  L 322.46 248.81
  A 1.06 1.06 0.0 0 1 321.61 247.15
  Q 322.43 245.94 322.55 240.95
  A 2.88 2.88 0.0 0 1 322.64 240.32
  L 323.73 235.98
  A 3.34 3.21 55.1 0 0 323.82 235.41
  C 324.10 231.49 324.95 228.49 325.58 224.66
  Q 327.16 215.09 328.95 205.20
  A 1.51 1.50 84.9 0 1 329.90 204.05
  L 336.41 201.57
  A 0.62 0.62 0.0 0 1 337.24 202.26
  Z"
/>
<path fill="#ffffff" d="
  M 375.91 208.89
  A 0.67 0.67 0.0 0 1 376.80 209.63
  L 375.72 215.83
  A 0.92 0.92 0.0 0 0 376.63 216.91
  L 382.00 216.91
  A 1.47 1.46 -85.0 0 1 383.44 218.63
  L 382.87 221.94
  A 2.43 2.43 0.0 0 1 380.48 223.95
  L 374.79 223.95
  A 0.64 0.64 0.0 0 0 374.16 224.48
  L 371.65 238.97
  A 2.03 2.02 10.0 0 0 373.30 241.31
  L 374.63 241.54
  A 0.91 0.90 0.9 0 1 375.38 242.31
  Q 375.71 244.76 375.15 247.43
  A 1.89 1.89 0.0 0 1 373.25 248.94
  Q 369.30 248.86 365.85 246.78
  C 363.27 245.23 363.21 241.68 363.85 238.46
  Q 366.04 227.31 368.35 212.76
  A 1.84 1.83 -6.1 0 1 369.52 211.32
  L 375.91 208.89
  Z"
/>
<path fill="#ffffff" d="
  M 319.91 217.81
  A 1.52 1.51 19.7 0 1 320.98 220.06
  L 319.55 222.54
  A 3.03 3.02 -72.1 0 1 316.62 224.04
  C 313.74 223.75 310.34 221.86 308.92 225.99
  A 2.38 2.04 21.1 0 0 310.36 228.67
  C 312.65 229.61 315.68 229.91 317.44 231.45
  Q 320.05 233.72 319.96 237.74
  C 319.83 244.08 316.77 246.94 311.16 248.38
  Q 309.15 248.89 306.32 248.89
  Q 173.02 248.86 51.27 248.88
  C 47.18 248.88 45.65 243.74 50.05 242.38
  A 1.56 1.30 31.7 0 1 50.47 242.32
  Q 229.97 242.31 305.95 242.31
  C 309.33 242.31 311.26 241.47 312.54 238.56
  A 1.08 1.07 -49.9 0 0 312.46 237.55
  C 311.12 235.46 308.90 235.42 305.68 234.68
  A 3.55 3.48 66.8 0 1 304.61 234.24
  C 298.80 230.60 300.39 220.12 306.56 217.81
  Q 311.07 216.12 313.27 216.56
  Q 317.91 217.49 319.91 217.81
  Z"
/>
<path fill="#ffffff" d="
  M 335.94 229.07
  C 337.51 223.12 340.82 219.13 346.81 217.17
  Q 353.20 215.08 358.53 218.48
  C 364.05 222.01 362.99 230.36 361.47 236.14
  C 359.90 242.08 356.59 246.07 350.59 248.03
  Q 344.21 250.12 338.88 246.72
  C 333.36 243.19 334.42 234.84 335.94 229.07
  Z
  M 343.12 239.80
  C 346.36 243.75 351.30 241.27 353.06 237.30
  Q 353.46 236.41 354.80 231.02
  C 355.59 227.83 355.05 224.40 351.47 223.85
  C 343.21 222.59 341.83 233.15 342.72 238.91
  A 1.87 1.86 -69.4 0 0 343.12 239.80
  Z"
/>
<path fill="#fdc436" d="
  M 353.06 237.30
  C 351.30 241.27 346.36 243.75 343.12 239.80
  A 1.87 1.86 -69.4 0 1 342.72 238.91
  C 341.83 233.15 343.21 222.59 351.47 223.85
  C 355.05 224.40 355.59 227.83 354.80 231.02
  Q 353.46 236.41 353.06 237.30
  Z"
/>
</svg>
