<svg width="67" height="25" viewBox="0 0 67 25" fill="none" xmlns="http://www.w3.org/2000/svg">
<path d="M0.348145 24.1106H3.14284V17.547C3.50179 18.111 4.93759 19.6494 7.47589 19.6494C11.2962 19.6494 13.8345 16.7521 13.8345 12.5986C13.8345 8.5219 11.1167 5.59901 7.29642 5.59901C4.70684 5.59901 3.34795 7.21429 2.989 7.70144V5.93232H0.348145V24.1106ZM3.04028 12.5986C3.04028 10.1372 4.553 8.08603 7.01438 8.08603C9.29629 8.08603 11.0141 9.85515 11.0141 12.5986C11.0141 15.2907 9.37321 17.1624 7.04002 17.1624C4.8094 17.1624 3.04028 15.4958 3.04028 12.5986Z" fill="#0E1952"/>
<path d="M14.4196 15.1881C14.4196 17.8803 16.6503 19.6494 19.4706 19.6494C21.1372 19.6494 22.214 19.0853 22.9063 18.3161L23.137 19.3161H25.5728V10.6756C25.5728 7.75272 24.2139 5.59901 20.2398 5.59901C18.0092 5.59901 16.2144 6.44511 15.1375 7.13737L16.2144 9.08597C17.1887 8.54754 18.4707 8.03475 19.9578 8.03475C21.7269 8.03475 22.8037 8.95777 22.8037 10.4961V11.7525C22.2909 11.291 21.1372 10.7782 19.5988 10.7782C16.5221 10.7782 14.4196 12.5986 14.4196 15.1881ZM17.2143 15.1112C17.2143 13.778 18.3425 12.8037 20.0347 12.8037C21.7269 12.8037 22.8806 13.7011 22.8806 15.1112C22.8806 16.4957 21.7012 17.4188 20.0603 17.4188C18.3681 17.4188 17.2143 16.4445 17.2143 15.1112Z" fill="#0E1952"/>
<path d="M34.27 19.3161L39.1928 5.93232H36.2699L32.706 16.2906L29.1165 5.93232H26.1423L31.1164 19.3161H34.27Z" fill="#0E1952"/>
<path d="M39.1714 12.6755C39.1714 16.7265 41.9405 19.6494 46.1197 19.6494C49.299 19.6494 51.0681 17.829 51.7091 16.7265L49.8631 15.342C49.3503 16.0855 48.1965 17.2136 46.171 17.2136C43.7865 17.2136 42.0687 15.6753 42.0174 13.2908H52.0937C52.1193 13.0601 52.1193 12.8293 52.1193 12.5986C52.1193 8.3937 49.7349 5.59901 45.6838 5.59901C42.0174 5.59901 39.1714 8.5219 39.1714 12.6755ZM42.12 11.3679C42.2994 9.26544 43.7865 7.93219 45.7095 7.93219C47.6324 7.93219 49.1708 9.16288 49.2733 11.3679H42.12Z" fill="#0E1952"/>
<path d="M66.0969 0.778809H63.3022V7.72708C62.9432 7.13737 61.5074 5.59901 58.9691 5.59901C55.1489 5.59901 52.6106 8.5219 52.6106 12.6498C52.6106 16.7521 55.3283 19.6494 59.1486 19.6494C61.7382 19.6494 63.0971 18.0341 63.456 17.5726V19.3161H66.0969V0.778809ZM63.4047 12.6755C63.4047 15.1369 61.892 17.188 59.4306 17.188C57.1487 17.188 55.4309 15.4189 55.4309 12.6755C55.4309 9.98334 57.0718 8.08603 59.405 8.08603C61.6356 8.08603 63.4047 9.75259 63.4047 12.6755Z" fill="#0E1952"/>
</svg>
