<?xml version="1.0" encoding="UTF-8" standalone="no"?>
<!DOCTYPE svg PUBLIC "-//W3C//DTD SVG 1.1//EN" "http://www.w3.org/Graphics/SVG/1.1/DTD/svg11.dtd">
<svg xmlns="http://www.w3.org/2000/svg" version="1.1" viewBox="0.00 0.00 32.00 32.00">
<g stroke-width="2.00" fill="none" stroke-linecap="butt">
<path stroke="#80a6e4" vector-effect="non-scaling-stroke" d="
  M 6.85 11.24
  A 0.50 0.50 0.0 0 0 7.70 11.59
  L 13.26 6.06
  A 0.50 0.50 0.0 0 0 12.90 5.20
  L 7.38 5.21
  A 0.50 0.50 0.0 0 0 6.88 5.71
  L 6.85 11.24"
/>
<path stroke="#80a6e4" vector-effect="non-scaling-stroke" d="
  M 12.46 21.40
  A 0.25 0.24 -34.5 0 1 12.55 20.92
  Q 16.06 21.17 17.29 21.09
  C 27.90 20.37 27.53 5.15 16.51 5.18
  A 1.43 1.39 22.0 0 0 15.51 5.59
  L 7.28 13.82
  A 1.47 1.47 0.0 0 0 6.85 14.86
  L 6.85 25.82
  A 0.99 0.99 0.0 0 0 7.84 26.81
  L 13.92 26.81
  A 0.92 0.92 0.0 0 0 14.84 25.89
  L 14.84 22.95
  A 1.16 1.15 -82.0 0 0 14.01 21.84
  L 12.46 21.40"
/>
</g>
<path fill="#004dc9" d="
  M 32.00 0.00
  L 32.00 32.00
  L 0.00 32.00
  L 0.00 0.00
  L 32.00 0.00
  Z
  M 6.85 11.24
  A 0.50 0.50 0.0 0 0 7.70 11.59
  L 13.26 6.06
  A 0.50 0.50 0.0 0 0 12.90 5.20
  L 7.38 5.21
  A 0.50 0.50 0.0 0 0 6.88 5.71
  L 6.85 11.24
  Z
  M 12.46 21.40
  A 0.25 0.24 -34.5 0 1 12.55 20.92
  Q 16.06 21.17 17.29 21.09
  C 27.90 20.37 27.53 5.15 16.51 5.18
  A 1.43 1.39 22.0 0 0 15.51 5.59
  L 7.28 13.82
  A 1.47 1.47 0.0 0 0 6.85 14.86
  L 6.85 25.82
  A 0.99 0.99 0.0 0 0 7.84 26.81
  L 13.92 26.81
  A 0.92 0.92 0.0 0 0 14.84 25.89
  L 14.84 22.95
  A 1.16 1.15 -82.0 0 0 14.01 21.84
  L 12.46 21.40
  Z"
/>
<path fill="#ffffff" d="
  M 6.85 11.24
  L 6.88 5.71
  A 0.50 0.50 0.0 0 1 7.38 5.21
  L 12.90 5.20
  A 0.50 0.50 0.0 0 1 13.26 6.06
  L 7.70 11.59
  A 0.50 0.50 0.0 0 1 6.85 11.24
  Z"
/>
<path fill="#ffffff" d="
  M 12.46 21.40
  L 14.01 21.84
  A 1.16 1.15 -82.0 0 1 14.84 22.95
  L 14.84 25.89
  A 0.92 0.92 0.0 0 1 13.92 26.81
  L 7.84 26.81
  A 0.99 0.99 0.0 0 1 6.85 25.82
  L 6.85 14.86
  A 1.47 1.47 0.0 0 1 7.28 13.82
  L 15.51 5.59
  A 1.43 1.39 22.0 0 1 16.51 5.18
  C 27.53 5.15 27.90 20.37 17.29 21.09
  Q 16.06 21.17 12.55 20.92
  A 0.25 0.24 -34.5 0 0 12.46 21.40
  Z"
/>
</svg>
