<?xml version="1.0" encoding="UTF-8" standalone="no"?>
<!DOCTYPE svg PUBLIC "-//W3C//DTD SVG 1.1//EN" "http://www.w3.org/Graphics/SVG/1.1/DTD/svg11.dtd">
<svg xmlns="http://www.w3.org/2000/svg" version="1.1" viewBox="0.00 0.00 400.00 400.00">
<g stroke-width="2.00" fill="none" stroke-linecap="butt">
<path stroke="#95979a" vector-effect="non-scaling-stroke" d="
  M 62.68 87.91
  L 89.58 146.84
  A 0.81 0.81 0.0 0 0 90.72 147.21
  C 114.89 133.39 135.12 116.95 149.36 92.96
  Q 155.17 83.18 157.31 77.03
  C 160.32 68.37 161.14 55.05 155.91 47.30
  Q 151.72 41.08 141.27 26.25
  A 0.50 0.49 53.4 0 0 140.57 26.14
  L 62.79 87.44
  A 0.39 0.39 0.0 0 0 62.68 87.91"
/>
<path stroke="#dc8588" vector-effect="non-scaling-stroke" d="
  M 258.89 43.58
  L 207.44 75.63"
/>
<path stroke="#d38385" vector-effect="non-scaling-stroke" d="
  M 207.44 75.63
  Q 185.96 88.50 174.26 109.90
  Q 170.70 116.41 166.92 128.10
  Q 142.64 203.28 118.12 278.37
  C 117.53 280.15 116.70 281.59 116.61 283.25
  A 0.12 0.11 -31.2 0 0 116.83 283.30
  Q 118.84 279.16 121.94 273.66
  Q 136.00 248.72 161.17 234.17
  Q 172.92 227.39 178.87 224.87
  Q 195.08 218.01 211.30 211.24"
/>
<path stroke="#dc8588" vector-effect="non-scaling-stroke" d="
  M 211.30 211.24
  L 261.55 190.08"
/>
<path stroke="#e7878c" vector-effect="non-scaling-stroke" d="
  M 261.55 190.08
  L 324.21 163.71"
/>
<path stroke="#ef898e" vector-effect="non-scaling-stroke" d="
  M 324.21 163.71
  L 383.32 138.82
  A 0.46 0.46 0.0 0 0 383.47 138.08
  L 326.27 79.48"
/>
<path stroke="#e7878c" vector-effect="non-scaling-stroke" d="
  M 326.27 79.48
  L 279.34 31.37
  A 0.61 0.61 0.0 0 0 278.57 31.28
  L 258.89 43.58"
/>
<path stroke="#d7111b" vector-effect="non-scaling-stroke" d="
  M 326.27 79.48
  Q 322.34 89.79 321.55 100.72
  Q 319.28 132.25 324.21 163.71"
/>
<path stroke="#c40d15" vector-effect="non-scaling-stroke" d="
  M 261.55 190.08
  Q 258.97 173.05 258.99 155.97
  Q 259.06 99.97 258.89 43.58"
/>
<path stroke="#b0090e" vector-effect="non-scaling-stroke" d="
  M 211.30 211.24
  C 209.08 175.84 210.09 133.70 209.76 106.95
  Q 209.57 92.40 207.44 75.63"
/>
<path stroke="#dc8588" vector-effect="non-scaling-stroke" d="
  M 108.79 151.90
  L 81.77 167.88"
/>
<path stroke="#e7878c" vector-effect="non-scaling-stroke" d="
  M 81.77 167.88
  L 39.73 192.66"
/>
<path stroke="#ef898e" vector-effect="non-scaling-stroke" d="
  M 39.73 192.66
  L 10.59 209.82
  A 0.65 0.65 0.0 0 0 10.29 210.55
  L 35.23 300.39
  A 0.60 0.59 71.4 0 0 36.02 300.79
  L 39.64 299.37"
/>
<path stroke="#e7878c" vector-effect="non-scaling-stroke" d="
  M 39.64 299.37
  L 78.52 284.82"
/>
<path stroke="#dc8588" vector-effect="non-scaling-stroke" d="
  M 78.52 284.82
  C 87.37 282.09 95.00 275.98 100.47 268.47
  Q 104.85 262.46 108.47 255.90"
/>
<path stroke="#d38385" vector-effect="non-scaling-stroke" d="
  M 108.47 255.90
  L 162.26 91.11
  A 0.09 0.09 0.0 0 0 162.21 91.00
  L 161.97 90.91
  A 0.35 0.34 22.3 0 0 161.53 91.09
  Q 148.30 122.06 121.67 142.66
  Q 115.31 147.58 108.79 151.90"
/>
<path stroke="#b0090e" vector-effect="non-scaling-stroke" d="
  M 108.47 255.90
  Q 110.08 233.78 110.24 204.06
  Q 110.40 174.47 108.79 151.90"
/>
<path stroke="#c40d15" vector-effect="non-scaling-stroke" d="
  M 78.52 284.82
  C 82.18 245.88 80.07 210.04 81.77 167.88"
/>
<path stroke="#d7111b" vector-effect="non-scaling-stroke" d="
  M 39.64 299.37
  Q 41.95 245.93 39.73 192.66"
/>
<path stroke="#95979a" vector-effect="non-scaling-stroke" d="
  M 268.24 349.07
  A 0.34 0.33 -21.1 0 0 268.46 348.58
  L 203.27 233.29
  A 0.65 0.65 0.0 0 0 202.48 233.00
  C 183.96 239.56 165.50 247.75 150.05 260.03
  Q 135.95 271.23 125.73 288.98
  C 120.21 298.56 118.15 306.77 118.23 317.25
  Q 118.32 329.16 121.49 337.51
  Q 135.98 375.76 136.85 378.08
  A 1.23 1.23 0.0 0 0 138.29 378.85
  L 268.24 349.07"
/>
</g>
<path fill="#ffffff" d="
  M 400.00 0.00
  L 400.00 400.00
  L 0.00 400.00
  L 0.00 0.00
  L 400.00 0.00
  Z
  M 62.68 87.91
  L 89.58 146.84
  A 0.81 0.81 0.0 0 0 90.72 147.21
  C 114.89 133.39 135.12 116.95 149.36 92.96
  Q 155.17 83.18 157.31 77.03
  C 160.32 68.37 161.14 55.05 155.91 47.30
  Q 151.72 41.08 141.27 26.25
  A 0.50 0.49 53.4 0 0 140.57 26.14
  L 62.79 87.44
  A 0.39 0.39 0.0 0 0 62.68 87.91
  Z
  M 258.89 43.58
  L 207.44 75.63
  Q 185.96 88.50 174.26 109.90
  Q 170.70 116.41 166.92 128.10
  Q 142.64 203.28 118.12 278.37
  C 117.53 280.15 116.70 281.59 116.61 283.25
  A 0.12 0.11 -31.2 0 0 116.83 283.30
  Q 118.84 279.16 121.94 273.66
  Q 136.00 248.72 161.17 234.17
  Q 172.92 227.39 178.87 224.87
  Q 195.08 218.01 211.30 211.24
  L 261.55 190.08
  L 324.21 163.71
  L 383.32 138.82
  A 0.46 0.46 0.0 0 0 383.47 138.08
  L 326.27 79.48
  L 279.34 31.37
  A 0.61 0.61 0.0 0 0 278.57 31.28
  L 258.89 43.58
  Z
  M 108.79 151.90
  L 81.77 167.88
  L 39.73 192.66
  L 10.59 209.82
  A 0.65 0.65 0.0 0 0 10.29 210.55
  L 35.23 300.39
  A 0.60 0.59 71.4 0 0 36.02 300.79
  L 39.64 299.37
  L 78.52 284.82
  C 87.37 282.09 95.00 275.98 100.47 268.47
  Q 104.85 262.46 108.47 255.90
  L 162.26 91.11
  A 0.09 0.09 0.0 0 0 162.21 91.00
  L 161.97 90.91
  A 0.35 0.34 22.3 0 0 161.53 91.09
  Q 148.30 122.06 121.67 142.66
  Q 115.31 147.58 108.79 151.90
  Z
  M 268.24 349.07
  A 0.34 0.33 -21.1 0 0 268.46 348.58
  L 203.27 233.29
  A 0.65 0.65 0.0 0 0 202.48 233.00
  C 183.96 239.56 165.50 247.75 150.05 260.03
  Q 135.95 271.23 125.73 288.98
  C 120.21 298.56 118.15 306.77 118.23 317.25
  Q 118.32 329.16 121.49 337.51
  Q 135.98 375.76 136.85 378.08
  A 1.23 1.23 0.0 0 0 138.29 378.85
  L 268.24 349.07
  Z"
/>
<path fill="#2a2e34" d="
  M 62.68 87.91
  A 0.39 0.39 0.0 0 1 62.79 87.44
  L 140.57 26.14
  A 0.50 0.49 53.4 0 1 141.27 26.25
  Q 151.72 41.08 155.91 47.30
  C 161.14 55.05 160.32 68.37 157.31 77.03
  Q 155.17 83.18 149.36 92.96
  C 135.12 116.95 114.89 133.39 90.72 147.21
  A 0.81 0.81 0.0 0 1 89.58 146.84
  L 62.68 87.91
  Z"
/>
<path fill="#ce0f18" d="
  M 326.27 79.48
  Q 322.34 89.79 321.55 100.72
  Q 319.28 132.25 324.21 163.71
  L 261.55 190.08
  Q 258.97 173.05 258.99 155.97
  Q 259.06 99.97 258.89 43.58
  L 278.57 31.28
  A 0.61 0.61 0.0 0 1 279.34 31.37
  L 326.27 79.48
  Z"
/>
<path fill="#b90b11" d="
  M 261.55 190.08
  L 211.30 211.24
  C 209.08 175.84 210.09 133.70 209.76 106.95
  Q 209.57 92.40 207.44 75.63
  L 258.89 43.58
  Q 259.06 99.97 258.99 155.97
  Q 258.97 173.05 261.55 190.08
  Z"
/>
<path fill="#a7060a" d="
  M 211.30 211.24
  Q 195.08 218.01 178.87 224.87
  Q 172.92 227.39 161.17 234.17
  Q 136.00 248.72 121.94 273.66
  Q 118.84 279.16 116.83 283.30
  A 0.12 0.11 -31.2 0 1 116.61 283.25
  C 116.70 281.59 117.53 280.15 118.12 278.37
  Q 142.64 203.28 166.92 128.10
  Q 170.70 116.41 174.26 109.90
  Q 185.96 88.50 207.44 75.63
  Q 209.57 92.40 209.76 106.95
  C 210.09 133.70 209.08 175.84 211.30 211.24
  Z"
/>
<path fill="#df131d" d="
  M 326.27 79.48
  L 383.47 138.08
  A 0.46 0.46 0.0 0 1 383.32 138.82
  L 324.21 163.71
  Q 319.28 132.25 321.55 100.72
  Q 322.34 89.79 326.27 79.48
  Z"
/>
<path fill="#a7060a" d="
  M 108.47 255.90
  Q 110.08 233.78 110.24 204.06
  Q 110.40 174.47 108.79 151.90
  Q 115.31 147.58 121.67 142.66
  Q 148.30 122.06 161.53 91.09
  A 0.35 0.34 22.3 0 1 161.97 90.91
  L 162.21 91.00
  A 0.09 0.09 0.0 0 1 162.26 91.11
  L 108.47 255.90
  Z"
/>
<path fill="#b90b11" d="
  M 108.79 151.90
  Q 110.40 174.47 110.24 204.06
  Q 110.08 233.78 108.47 255.90
  Q 104.85 262.46 100.47 268.47
  C 95.00 275.98 87.37 282.09 78.52 284.82
  C 82.18 245.88 80.07 210.04 81.77 167.88
  L 108.79 151.90
  Z"
/>
<path fill="#ce0f18" d="
  M 81.77 167.88
  C 80.07 210.04 82.18 245.88 78.52 284.82
  L 39.64 299.37
  Q 41.95 245.93 39.73 192.66
  L 81.77 167.88
  Z"
/>
<path fill="#df131d" d="
  M 39.73 192.66
  Q 41.95 245.93 39.64 299.37
  L 36.02 300.79
  A 0.60 0.59 71.4 0 1 35.23 300.39
  L 10.29 210.55
  A 0.65 0.65 0.0 0 1 10.59 209.82
  L 39.73 192.66
  Z"
/>
<path fill="#2a2e34" d="
  M 268.24 349.07
  L 138.29 378.85
  A 1.23 1.23 0.0 0 1 136.85 378.08
  Q 135.98 375.76 121.49 337.51
  Q 118.32 329.16 118.23 317.25
  C 118.15 306.77 120.21 298.56 125.73 288.98
  Q 135.95 271.23 150.05 260.03
  C 165.50 247.75 183.96 239.56 202.48 233.00
  A 0.65 0.65 0.0 0 1 203.27 233.29
  L 268.46 348.58
  A 0.34 0.33 -21.1 0 1 268.24 349.07
  Z"
/>
</svg>
