<svg xmlns="http://www.w3.org/2000/svg" class="w-6 h-6 mr-2" fill="none" viewBox="0 -4 28 28" style="fill: none !important;"><g clip-path="url(#a)" style="fill: none !important;"><rect width="28" height="20" fill="#000000" rx="2" style="fill: #000000 !important;"/><mask id="b" width="28" height="20" x="0" y="0" maskUnits="userSpaceOnUse" style="mask-type: alpha; fill: none !important;"><rect width="28" height="20" fill="#000000" rx="2" style="fill: #000000 !important;"/></mask><g mask="url(#b)" style="fill: none !important;"><path fill="#0A17A7" d="M0 0h28v20H0z" style="fill: rgb(10, 23, 167) !important;"/><path fill="#000000" fill-rule="evenodd" d="m-1.28-1.92 11.95 8.06v-7.47h6.66v7.47l11.95-8.06L30.78.3l-9.45 6.38H28v6.66h-6.67l9.44 6.38-1.49 2.2-11.95-8.05v7.47h-6.66v-7.47l-11.95 8.06-1.5-2.21 9.45-6.38H0V6.67h6.67L-2.77.29l1.49-2.2Z" clip-rule="evenodd" style="fill: #000000 !important;"/><path stroke="#DB1F35" stroke-linecap="round" stroke-width=".67" d="M18.67 6.33 31.33-2M20.01 13.7l11.36 7.65M8 6.31-3.83-1.67M9.29 13.6l-13.13 8.71" style="fill: none !important; stroke: rgb(219, 31, 53) !important; stroke-width: 0.67px !important; stroke-linecap: round !important;"/><path fill="#E6273E" fill-rule="evenodd" d="M0 12h12v8h4v-8h12V8H16V0h-4v8H0v4Z" clip-rule="evenodd" style="fill: rgb(230, 39, 62) !important;"/></g></g><defs style="fill: none !important;"><clipPath id="a" style="fill: none !important;"><rect width="28" height="20" fill="#000000" rx="2" style="fill: #000000 !important;"/></clipPath></defs></svg>