<?xml version="1.0" encoding="UTF-8" standalone="no"?>
<!DOCTYPE svg PUBLIC "-//W3C//DTD SVG 1.1//EN" "http://www.w3.org/Graphics/SVG/1.1/DTD/svg11.dtd">
<svg xmlns="http://www.w3.org/2000/svg" version="1.1" viewBox="0.00 0.00 230.00 230.00">
<g stroke-width="2.00" fill="none" stroke-linecap="butt">
<path stroke="#2a153f" vector-effect="non-scaling-stroke" d="
  M 174.95 92.98
  L 171.03 97.58"
/>
<path stroke="#878b95" vector-effect="non-scaling-stroke" d="
  M 171.03 97.58
  Q 170.64 97.30 170.31 97.25"
/>
<path stroke="#267075" vector-effect="non-scaling-stroke" d="
  M 170.31 97.25
  L 167.84 94.45"
/>
<path stroke="#4c1f5f" vector-effect="non-scaling-stroke" d="
  M 167.84 94.45
  Q 160.17 93.51 151.97 94.83
  A 1.74 1.72 -68.9 0 0 151.10 95.22
  L 150.73 95.53"
/>
<path stroke="#2a153f" vector-effect="non-scaling-stroke" d="
  M 150.73 95.53
  Q 149.11 96.62 148.01 99.00
  Q 147.79 99.46 147.06 99.46"
/>
<path stroke="#878b95" vector-effect="non-scaling-stroke" d="
  M 147.06 99.46
  L 146.35 99.20"
/>
<path stroke="#267075" vector-effect="non-scaling-stroke" d="
  M 146.35 99.20
  L 143.88 96.43"
/>
<path stroke="#4c1f5f" vector-effect="non-scaling-stroke" d="
  M 143.88 96.43
  Q 134.52 95.43 124.61 97.50"
/>
<path stroke="#2a153f" vector-effect="non-scaling-stroke" d="
  M 124.61 97.50
  Q 123.97 109.41 124.17 118.25
  Q 124.19 119.46 124.90 120.91
  A 0.41 0.41 0.0 0 1 124.48 121.50
  L 124.02 121.45"
/>
<path stroke="#267075" vector-effect="non-scaling-stroke" d="
  M 124.02 121.45
  Q 122.86 120.35 121.58 119.77"
/>
<path stroke="#4c1f5f" vector-effect="non-scaling-stroke" d="
  M 121.58 119.77
  C 120.44 117.55 118.62 119.18 116.95 119.08"
/>
<path stroke="#878b95" vector-effect="non-scaling-stroke" d="
  M 116.95 119.08
  L 116.91 101.63"
/>
<path stroke="#267075" vector-effect="non-scaling-stroke" d="
  M 116.91 101.63
  Q 114.82 100.48 114.20 99.49"
/>
<path stroke="#4c1f5f" vector-effect="non-scaling-stroke" d="
  M 114.20 99.49
  Q 111.04 97.60 106.04 98.76
  A 0.46 0.45 71.5 0 0 105.73 99.39
  Q 106.11 100.24 107.19 100.28"
/>
<path stroke="#267075" vector-effect="non-scaling-stroke" d="
  M 107.19 100.28
  Q 107.04 100.41 106.88 100.54"
/>
<path stroke="#0c3c41" vector-effect="non-scaling-stroke" d="
  M 106.88 100.54
  Q 106.78 105.67 107.01 110.40
  Q 107.05 111.34 106.32 112.71"
/>
<path stroke="#2a153f" vector-effect="non-scaling-stroke" d="
  M 106.32 112.71
  Q 105.21 113.10 105.20 114.50
  Q 105.15 121.25 105.14 128.00
  Q 105.13 129.17 106.52 129.59"
/>
<path stroke="#0c3c41" vector-effect="non-scaling-stroke" d="
  M 106.52 129.59
  Q 107.13 130.60 109.35 132.16"
/>
<path stroke="#878b95" vector-effect="non-scaling-stroke" d="
  M 109.35 132.16
  L 124.24 131.07
  A 0.65 0.65 0.0 0 0 124.83 130.52
  Q 125.00 129.39 124.70 128.20"
/>
<path stroke="#2a153f" vector-effect="non-scaling-stroke" d="
  M 124.70 128.20
  Q 125.44 128.15 125.89 127.94"
/>
<path stroke="#0c3c41" vector-effect="non-scaling-stroke" d="
  M 125.89 127.94
  L 128.35 129.96"
/>
<path stroke="#878b95" vector-effect="non-scaling-stroke" d="
  M 128.35 129.96
  Q 128.45 130.15 128.62 130.32
  A 1.04 1.03 -24.2 0 0 129.45 130.63
  L 146.45 129.18
  A 0.54 0.53 85.7 0 0 146.94 128.60
  Q 146.67 125.09 147.02 121.23
  Q 147.06 120.73 146.81 120.38
  Q 146.52 119.96 146.04 119.98"
/>
<path stroke="#267075" vector-effect="non-scaling-stroke" d="
  M 146.04 119.98
  Q 145.37 118.43 143.45 117.74"
/>
<path stroke="#4c1f5f" vector-effect="non-scaling-stroke" d="
  M 143.45 117.74
  Q 143.10 117.46 142.37 117.46"
/>
<path stroke="#878b95" vector-effect="non-scaling-stroke" d="
  M 142.37 117.46
  Q 142.21 114.69 142.42 111.87
  Q 142.58 109.75 140.99 109.93"
/>
<path stroke="#267075" vector-effect="non-scaling-stroke" d="
  M 140.99 109.93
  Q 141.05 109.22 140.70 108.67"
/>
<path stroke="#878b95" vector-effect="non-scaling-stroke" d="
  M 140.70 108.67
  Q 143.22 108.38 145.75 108.42
  Q 147.03 108.45 147.04 107.80"
/>
<path stroke="#2a153f" vector-effect="non-scaling-stroke" d="
  M 147.04 107.80
  Q 147.60 107.90 147.88 107.63
  Q 148.17 107.34 148.07 106.97"
/>
<path stroke="#0c3c41" vector-effect="non-scaling-stroke" d="
  M 148.07 106.97
  C 148.22 108.50 147.28 109.67 147.91 110.98
  Q 148.58 112.35 150.51 112.98"
/>
<path stroke="#878b95" vector-effect="non-scaling-stroke" d="
  M 150.51 112.98
  L 153.88 116.96"
/>
<path stroke="#267075" vector-effect="non-scaling-stroke" d="
  M 153.88 116.96
  L 151.55 116.96"
/>
<path stroke="#4c1f5f" vector-effect="non-scaling-stroke" d="
  M 151.55 116.96
  Q 151.84 116.90 151.98 116.79
  A 0.25 0.25 0.0 0 0 151.85 116.34
  Q 144.00 115.49 147.94 117.76"
/>
<path stroke="#0c3c41" vector-effect="non-scaling-stroke" d="
  M 147.94 117.76
  L 147.91 125.47
  A 1.19 1.16 -68.0 0 0 148.25 126.30
  L 150.58 128.61"
/>
<path stroke="#878b95" vector-effect="non-scaling-stroke" d="
  M 150.58 128.61
  L 165.82 127.47
  A 1.45 1.45 0.0 0 0 166.85 126.94
  L 170.50 122.49
  A 1.58 1.55 64.9 0 0 170.85 121.50
  L 170.85 113.37
  A 1.59 1.53 28.4 0 0 170.56 112.47
  Q 168.33 109.39 165.71 107.75"
/>
<path stroke="#267075" vector-effect="non-scaling-stroke" d="
  M 165.71 107.75
  Q 165.05 107.20 164.79 106.70"
/>
<path stroke="#878b95" vector-effect="non-scaling-stroke" d="
  M 164.79 106.70
  L 170.72 106.32"
/>
<path stroke="#2a153f" vector-effect="non-scaling-stroke" d="
  M 170.72 106.32
  Q 170.89 107.32 171.67 108.71"
/>
<path stroke="#0c3c41" vector-effect="non-scaling-stroke" d="
  M 171.67 108.71
  Q 172.69 110.27 174.55 111.23"
/>
<path stroke="#878b95" vector-effect="non-scaling-stroke" d="
  M 174.55 111.23
  L 177.57 114.54"
/>
<path stroke="#267075" vector-effect="non-scaling-stroke" d="
  M 177.57 114.54
  Q 177.02 115.49 176.80 114.85"
/>
<path stroke="#4c1f5f" vector-effect="non-scaling-stroke" d="
  M 176.80 114.85
  Q 174.56 112.97 171.81 114.37
  A 0.46 0.45 -29.9 0 0 171.63 115.02
  L 172.13 115.79"
/>
<path stroke="#267075" vector-effect="non-scaling-stroke" d="
  M 172.13 115.79
  Q 172.18 115.92 172.24 116.06"
/>
<path stroke="#0c3c41" vector-effect="non-scaling-stroke" d="
  M 172.24 116.06
  L 171.99 123.81
  A 1.24 1.18 -62.7 0 0 172.20 124.53
  Q 173.03 125.75 174.51 125.84"
/>
<path stroke="#878b95" vector-effect="non-scaling-stroke" d="
  M 174.51 125.84
  Q 174.23 126.79 175.10 126.70
  Q 183.91 125.85 189.79 125.42
  A 1.35 1.35 0.0 0 0 190.74 124.93
  L 194.56 120.27
  A 1.37 1.36 65.3 0 0 194.88 119.39
  L 194.88 111.08
  A 1.19 1.15 24.5 0 0 194.57 110.29
  L 191.07 106.45
  A 1.36 1.36 0.0 0 0 190.54 106.08
  Q 189.99 105.87 189.52 105.93"
/>
<path stroke="#267075" vector-effect="non-scaling-stroke" d="
  M 189.52 105.93
  Q 189.31 105.23 188.75 104.60"
/>
<path stroke="#878b95" vector-effect="non-scaling-stroke" d="
  M 188.75 104.60
  L 194.33 104.12
  A 0.55 0.55 0.0 0 0 194.84 103.56
  L 194.70 95.18"
/>
<path stroke="#267075" vector-effect="non-scaling-stroke" d="
  M 194.70 95.18
  L 191.58 92.76"
/>
<path stroke="#4c1f5f" vector-effect="non-scaling-stroke" d="
  M 191.58 92.76
  Q 190.85 91.37 188.61 91.56
  Q 181.69 92.14 174.95 92.98"
/>
<path stroke="#6378a9" vector-effect="non-scaling-stroke" d="
  M 191.58 92.76
  L 176.34 94.13"
/>
<path stroke="#671d73" vector-effect="non-scaling-stroke" d="
  M 176.34 94.13
  Q 174.65 93.67 174.95 92.98"
/>
<path stroke="#9ee4df" vector-effect="non-scaling-stroke" d="
  M 194.70 95.18
  L 179.22 96.51"
/>
<path stroke="#23958c" vector-effect="non-scaling-stroke" d="
  M 179.22 96.51
  Q 177.58 95.80 176.37 94.49"
/>
<path stroke="#416e89" vector-effect="non-scaling-stroke" d="
  M 176.37 94.49
  Q 176.24 94.30 176.34 94.13"
/>
<path stroke="#273956" vector-effect="non-scaling-stroke" d="
  M 176.37 94.49
  L 173.33 97.81
  A 4.66 4.65 67.9 0 0 172.11 100.71
  L 171.67 108.71"
/>
<path stroke="#a289a9" vector-effect="non-scaling-stroke" d="
  M 170.72 106.32
  L 171.03 97.58"
/>
<path stroke="#84b0ac" vector-effect="non-scaling-stroke" d="
  M 179.22 96.51
  L 174.96 101.70
  A 1.40 1.39 65.4 0 0 174.65 102.55
  L 174.55 111.23"
/>
<path stroke="#9ee4df" vector-effect="non-scaling-stroke" d="
  M 188.75 104.60
  L 182.84 105.07
  A 0.71 0.70 87.8 0 0 182.19 105.78
  L 182.19 106.12
  A 0.60 0.60 0.0 0 0 182.86 106.72
  L 189.52 105.93"
/>
<path stroke="#84b0ac" vector-effect="non-scaling-stroke" d="
  M 174.51 125.84
  L 174.64 117.78"
/>
<path stroke="#9ee4df" vector-effect="non-scaling-stroke" d="
  M 174.64 117.78
  L 186.61 116.82
  A 0.72 0.72 0.0 0 0 187.28 116.10
  L 187.28 115.80
  A 0.63 0.63 0.0 0 0 186.58 115.17
  Q 183.09 115.57 179.58 115.98
  Q 178.64 116.10 177.57 114.54"
/>
<path stroke="#9ee4df" vector-effect="non-scaling-stroke" d="
  M 164.79 106.70
  L 158.95 107.15
  A 0.60 0.60 0.0 0 0 158.40 107.80
  L 158.44 108.25
  A 0.50 0.49 -6.0 0 0 159.00 108.70
  L 165.71 107.75"
/>
<path stroke="#84b0ac" vector-effect="non-scaling-stroke" d="
  M 150.58 128.61
  L 150.60 121.48"
/>
<path stroke="#9ee4df" vector-effect="non-scaling-stroke" d="
  M 150.60 121.48
  Q 150.43 119.73 151.49 119.72
  Q 153.80 119.70 162.81 118.98
  A 0.83 0.82 85.5 0 0 163.57 118.08
  L 163.55 117.80
  A 0.56 0.56 0.0 0 0 162.95 117.29
  L 155.21 117.95
  A 0.63 0.63 0.0 0 1 154.71 117.78
  L 153.88 116.96"
/>
<path stroke="#23958c" vector-effect="non-scaling-stroke" d="
  M 174.64 117.78
  L 172.24 116.06"
/>
<path stroke="#23958c" vector-effect="non-scaling-stroke" d="
  M 150.60 121.48
  Q 150.78 120.44 150.49 119.77
  A 1.08 1.08 0.0 0 0 149.92 119.20
  Q 148.78 118.72 148.09 117.84"
/>
<path stroke="#9ee4df" vector-effect="non-scaling-stroke" d="
  M 170.31 97.25
  L 155.19 98.55"
/>
<path stroke="#23958c" vector-effect="non-scaling-stroke" d="
  M 155.19 98.55
  Q 153.56 97.95 152.36 96.11"
/>
<path stroke="#84b0ac" vector-effect="non-scaling-stroke" d="
  M 155.19 98.55
  L 150.92 104.05
  A 1.25 1.25 0.0 0 0 150.67 104.77
  L 150.51 112.98"
/>
<path stroke="#6378a9" vector-effect="non-scaling-stroke" d="
  M 176.80 114.85
  Q 175.16 115.55 173.00 115.18
  Q 172.34 115.07 172.13 115.79"
/>
<path stroke="#6378a9" vector-effect="non-scaling-stroke" d="
  M 151.55 116.96
  Q 150.85 117.64 149.25 117.25
  Q 148.53 117.07 148.09 117.84"
/>
<path stroke="#484476" vector-effect="non-scaling-stroke" d="
  M 148.09 117.84
  Q 148.02 117.80 147.94 117.76"
/>
<path stroke="#6378a9" vector-effect="non-scaling-stroke" d="
  M 167.84 94.45
  Q 160.39 96.24 152.36 96.11"
/>
<path stroke="#484476" vector-effect="non-scaling-stroke" d="
  M 152.36 96.11
  Q 152.41 96.19 152.47 96.27"
/>
<path stroke="#671d73" vector-effect="non-scaling-stroke" d="
  M 152.47 96.27
  Q 151.21 95.92 150.73 95.53"
/>
<path stroke="#273956" vector-effect="non-scaling-stroke" d="
  M 152.47 96.27
  L 148.90 100.82
  A 1.61 1.60 -23.7 0 0 148.56 101.68
  L 148.07 106.97"
/>
<path stroke="#a289a9" vector-effect="non-scaling-stroke" d="
  M 147.04 107.80
  L 147.06 99.46"
/>
<path stroke="#9ee4df" vector-effect="non-scaling-stroke" d="
  M 140.70 108.67
  L 136.89 109.07
  A 0.58 0.58 0.0 0 0 136.36 109.65
  L 136.36 110.04
  A 0.58 0.57 -4.7 0 0 137.03 110.60
  L 140.99 109.93"
/>
<path stroke="#c493c9" vector-effect="non-scaling-stroke" d="
  M 142.37 117.46
  Q 142.45 117.62 142.53 117.79"
/>
<path stroke="#9ee4df" vector-effect="non-scaling-stroke" d="
  M 142.53 117.79
  Q 142.50 118.28 142.31 118.61
  Q 142.09 118.98 141.59 119.01
  Q 139.43 119.17 136.71 119.50
  A 0.44 0.44 0.0 0 0 136.33 119.94
  L 136.33 120.74
  A 0.41 0.40 -3.7 0 0 136.79 121.14
  L 146.04 119.98"
/>
<path stroke="#9ee4df" vector-effect="non-scaling-stroke" d="
  M 146.35 99.20
  L 128.58 100.83"
/>
<path stroke="#23958c" vector-effect="non-scaling-stroke" d="
  M 128.58 100.83
  Q 127.72 99.78 125.87 98.66"
/>
<path stroke="#416e89" vector-effect="non-scaling-stroke" d="
  M 125.87 98.66
  Q 126.01 98.51 126.16 98.35"
/>
<path stroke="#6378a9" vector-effect="non-scaling-stroke" d="
  M 143.45 117.74
  Q 143.02 117.86 142.53 117.79"
/>
<path stroke="#84b0ac" vector-effect="non-scaling-stroke" d="
  M 128.58 100.83
  L 128.35 129.96"
/>
<path stroke="#6378a9" vector-effect="non-scaling-stroke" d="
  M 143.88 96.43
  Q 135.15 98.30 126.16 98.35"
/>
<path stroke="#671d73" vector-effect="non-scaling-stroke" d="
  M 126.16 98.35
  Q 125.57 98.49 124.61 97.50"
/>
<path stroke="#273956" vector-effect="non-scaling-stroke" d="
  M 125.87 98.66
  L 125.89 127.94"
/>
<path stroke="#a289a9" vector-effect="non-scaling-stroke" d="
  M 124.70 128.20
  Q 124.95 124.40 124.82 122.50
  Q 124.78 121.99 124.22 122.06"
/>
<path stroke="#416e89" vector-effect="non-scaling-stroke" d="
  M 124.22 122.06
  Q 124.15 121.66 124.02 121.45"
/>
<path stroke="#c493c9" vector-effect="non-scaling-stroke" d="
  M 116.95 119.08
  Q 117.13 119.66 117.08 120.40"
/>
<path stroke="#9ee4df" vector-effect="non-scaling-stroke" d="
  M 117.08 120.40
  Q 116.89 121.49 117.09 122.34
  A 0.59 0.59 0.0 0 0 117.73 122.79
  L 124.22 122.06"
/>
<path stroke="#9ee4df" vector-effect="non-scaling-stroke" d="
  M 116.91 101.63
  L 109.44 102.32"
/>
<path stroke="#23958c" vector-effect="non-scaling-stroke" d="
  M 109.44 102.32
  L 106.88 100.54"
/>
<path stroke="#6378a9" vector-effect="non-scaling-stroke" d="
  M 121.58 119.77
  L 117.08 120.40"
/>
<path stroke="#84b0ac" vector-effect="non-scaling-stroke" d="
  M 109.44 102.32
  L 109.35 132.16"
/>
<path stroke="#273956" vector-effect="non-scaling-stroke" d="
  M 106.52 129.59
  L 106.32 112.71"
/>
<path stroke="#6378a9" vector-effect="non-scaling-stroke" d="
  M 114.20 99.49
  L 107.19 100.28"
/>
<path stroke="#2a153f" vector-effect="non-scaling-stroke" d="
  M 83.37 101.49
  Q 82.62 104.22 83.40 107.73
  Q 83.76 109.32 82.49 109.33"
/>
<path stroke="#878b95" vector-effect="non-scaling-stroke" d="
  M 82.49 109.33
  L 78.24 104.96"
/>
<path stroke="#267075" vector-effect="non-scaling-stroke" d="
  M 78.24 104.96
  Q 76.84 103.45 75.42 102.87"
/>
<path stroke="#4c1f5f" vector-effect="non-scaling-stroke" d="
  M 75.42 102.87
  Q 74.78 101.44 72.50 101.66
  Q 66.13 102.29 59.70 102.79
  A 0.32 0.32 0.0 0 0 59.45 103.26
  Q 59.49 103.33 59.50 103.51"
/>
<path stroke="#2a153f" vector-effect="non-scaling-stroke" d="
  M 59.50 103.51
  C 58.89 105.23 58.60 108.67 60.60 109.80"
/>
<path stroke="#0c3c41" vector-effect="non-scaling-stroke" d="
  M 60.60 109.80
  L 60.52 125.20"
/>
<path stroke="#2a153f" vector-effect="non-scaling-stroke" d="
  M 60.52 125.20
  Q 56.93 129.49 60.41 133.84"
/>
<path stroke="#0c3c41" vector-effect="non-scaling-stroke" d="
  M 60.41 133.84
  L 63.08 135.51"
/>
<path stroke="#878b95" vector-effect="non-scaling-stroke" d="
  M 63.08 135.51
  Q 63.18 136.16 63.59 136.42
  A 0.66 0.62 57.2 0 0 63.95 136.51
  L 77.95 135.31
  A 1.23 1.21 16.6 0 0 78.82 134.85
  L 82.96 129.76"
/>
<path stroke="#2a153f" vector-effect="non-scaling-stroke" d="
  M 82.96 129.76
  L 84.76 129.87"
/>
<path stroke="#0c3c41" vector-effect="non-scaling-stroke" d="
  M 84.76 129.87
  Q 83.62 132.03 87.43 133.86"
/>
<path stroke="#878b95" vector-effect="non-scaling-stroke" d="
  M 87.43 133.86
  L 94.55 133.61
  A 0.40 0.40 0.0 0 0 94.94 133.21
  L 94.94 123.82
  A 0.73 0.73 0.0 0 1 95.60 123.09
  L 100.48 122.68
  A 0.70 0.69 -2.7 0 0 101.11 121.99
  L 101.11 114.45
  A 0.77 0.72 26.9 0 0 100.94 113.98
  Q 100.58 113.58 100.06 113.56"
/>
<path stroke="#267075" vector-effect="non-scaling-stroke" d="
  M 100.06 113.56
  Q 99.96 112.78 99.49 112.21"
/>
<path stroke="#878b95" vector-effect="non-scaling-stroke" d="
  M 99.49 112.21
  L 105.18 111.77
  A 0.74 0.74 0.0 0 0 105.86 110.99
  L 105.46 102.60"
/>
<path stroke="#267075" vector-effect="non-scaling-stroke" d="
  M 105.46 102.60
  L 102.52 100.51"
/>
<path stroke="#4c1f5f" vector-effect="non-scaling-stroke" d="
  M 102.52 100.51
  Q 101.76 99.11 100.75 99.21
  Q 92.37 100.04 83.98 100.65
  Q 83.29 100.70 83.37 101.49"
/>
<path stroke="#6378a9" vector-effect="non-scaling-stroke" d="
  M 102.52 100.51
  L 85.27 102.13"
/>
<path stroke="#671d73" vector-effect="non-scaling-stroke" d="
  M 85.27 102.13
  Q 84.40 101.51 83.37 101.49"
/>
<path stroke="#273956" vector-effect="non-scaling-stroke" d="
  M 85.68 102.93
  Q 84.72 102.83 84.75 104.06
  Q 84.99 116.97 84.76 129.87"
/>
<path stroke="#a289a9" vector-effect="non-scaling-stroke" d="
  M 82.96 129.76
  Q 83.72 128.96 83.74 128.50
  Q 83.89 124.67 83.79 111.07
  A 1.12 1.11 22.3 0 0 83.45 110.27
  L 82.49 109.33"
/>
<path stroke="#9ee4df" vector-effect="non-scaling-stroke" d="
  M 105.46 102.60
  L 87.54 104.49"
/>
<path stroke="#23958c" vector-effect="non-scaling-stroke" d="
  M 87.54 104.49
  Q 86.82 103.62 85.68 102.93"
/>
<path stroke="#416e89" vector-effect="non-scaling-stroke" d="
  M 85.68 102.93
  Q 85.34 102.82 85.27 102.13"
/>
<path stroke="#9ee4df" vector-effect="non-scaling-stroke" d="
  M 99.49 112.21
  L 95.65 112.63
  A 0.60 0.59 -3.3 0 0 95.12 113.22
  L 95.12 113.81
  A 0.41 0.40 -3.7 0 0 95.58 114.21
  L 100.06 113.56"
/>
<path stroke="#84b0ac" vector-effect="non-scaling-stroke" d="
  M 87.43 133.86
  L 87.54 104.49"
/>
<path stroke="#9ee4df" vector-effect="non-scaling-stroke" d="
  M 78.24 104.96
  L 63.50 106.40"
/>
<path stroke="#23958c" vector-effect="non-scaling-stroke" d="
  M 63.50 106.40
  Q 62.62 105.10 61.02 104.51"
/>
<path stroke="#416e89" vector-effect="non-scaling-stroke" d="
  M 61.02 104.51
  Q 61.10 104.28 61.05 104.16"
/>
<path stroke="#84b0ac" vector-effect="non-scaling-stroke" d="
  M 63.50 106.40
  L 63.08 135.51"
/>
<path stroke="#273956" vector-effect="non-scaling-stroke" d="
  M 60.41 133.84
  L 60.52 125.20"
/>
<path stroke="#273956" vector-effect="non-scaling-stroke" d="
  M 61.02 104.51
  Q 60.85 104.62 60.73 104.79
  A 0.66 0.62 -29.0 0 0 60.61 105.16
  L 60.60 109.80"
/>
<path stroke="#6378a9" vector-effect="non-scaling-stroke" d="
  M 75.42 102.87
  L 61.05 104.16"
/>
<path stroke="#671d73" vector-effect="non-scaling-stroke" d="
  M 61.05 104.16
  L 59.50 103.51"
/>
<path stroke="#2a153f" vector-effect="non-scaling-stroke" d="
  M 35.81 105.63
  L 35.41 106.30
  A 1.49 1.43 -30.5 0 0 35.20 107.05
  Q 35.13 120.40 35.12 133.75
  Q 35.12 135.10 36.68 135.85"
/>
<path stroke="#0c3c41" vector-effect="non-scaling-stroke" d="
  M 36.68 135.85
  Q 37.04 136.63 39.38 138.15"
/>
<path stroke="#878b95" vector-effect="non-scaling-stroke" d="
  M 39.38 138.15
  Q 42.31 138.74 46.39 137.89
  A 0.85 0.85 0.0 0 0 47.07 137.06
  L 47.07 129.60
  A 0.65 0.65 0.0 0 1 47.67 128.95
  L 54.20 128.39
  A 1.92 1.91 -72.5 0 0 55.50 127.71
  L 59.25 123.14
  A 2.06 2.06 0.0 0 0 59.72 121.83
  L 59.72 112.75
  A 1.83 1.81 23.3 0 0 59.21 111.49
  L 55.03 107.07"
/>
<path stroke="#267075" vector-effect="non-scaling-stroke" d="
  M 55.03 107.07
  Q 53.57 105.34 52.01 104.79"
/>
<path stroke="#4c1f5f" vector-effect="non-scaling-stroke" d="
  M 52.01 104.79
  Q 51.31 103.40 49.60 103.54
  Q 42.71 104.11 35.78 104.83
  A 0.33 0.33 0.0 0 0 35.49 105.22
  Q 35.54 105.49 35.81 105.63"
/>
<path stroke="#6378a9" vector-effect="non-scaling-stroke" d="
  M 52.01 104.79
  L 37.20 106.15"
/>
<path stroke="#671d73" vector-effect="non-scaling-stroke" d="
  M 37.20 106.15
  L 35.81 105.63"
/>
<path stroke="#273956" vector-effect="non-scaling-stroke" d="
  M 37.43 106.73
  Q 36.62 106.71 36.63 108.00
  Q 36.72 121.88 36.68 135.85"
/>
<path stroke="#9ee4df" vector-effect="non-scaling-stroke" d="
  M 55.03 107.07
  L 39.47 108.49"
/>
<path stroke="#23958c" vector-effect="non-scaling-stroke" d="
  M 39.47 108.49
  Q 38.78 107.55 37.43 106.73"
/>
<path stroke="#416e89" vector-effect="non-scaling-stroke" d="
  M 37.43 106.73
  L 37.20 106.15"
/>
<path stroke="#84b0ac" vector-effect="non-scaling-stroke" d="
  M 39.47 108.49
  L 39.38 138.15"
/>
<path stroke="#a289a9" vector-effect="non-scaling-stroke" d="
  M 73.76 114.72
  Q 72.45 114.49 71.35 114.92
  A 0.76 0.75 -10.9 0 0 70.87 115.62
  L 70.88 122.88"
/>
<path stroke="#9ee4df" vector-effect="non-scaling-stroke" d="
  M 70.88 122.88
  L 71.07 126.13
  A 0.78 0.77 -82.2 0 0 71.58 126.82
  Q 73.21 127.41 74.97 126.14"
/>
<path stroke="#84b0ac" vector-effect="non-scaling-stroke" d="
  M 74.97 126.14
  Q 75.27 126.32 75.53 126.37
  A 0.56 0.55 6.3 0 0 76.21 125.83
  L 76.21 115.01
  A 0.56 0.56 0.0 0 0 75.69 114.45
  Q 74.69 114.37 73.76 114.72"
/>
<path stroke="#23958c" vector-effect="non-scaling-stroke" d="
  M 74.97 126.14
  L 73.84 124.58"
/>
<path stroke="#273956" vector-effect="non-scaling-stroke" d="
  M 73.84 124.58
  Q 72.72 119.50 73.76 114.72"
/>
<path stroke="#416e89" vector-effect="non-scaling-stroke" d="
  M 73.84 124.58
  L 70.88 122.88"
/>
<path stroke="#9ee4df" vector-effect="non-scaling-stroke" d="
  M 47.25 117.68
  L 47.37 119.45
  A 0.57 0.57 0.0 0 0 47.89 119.97
  Q 49.73 120.12 51.50 119.65"
/>
<path stroke="#878b95" vector-effect="non-scaling-stroke" d="
  M 51.50 119.65
  Q 52.65 118.79 52.14 116.94
  A 0.74 0.72 -5.6 0 0 51.49 116.42
  Q 48.08 116.17 47.25 117.68"
/>
<path stroke="#267075" vector-effect="non-scaling-stroke" d="
  M 51.50 119.65
  Q 50.08 117.04 47.25 117.68"
/>
</g>
<path fill="#0f172a" d="
  M 230.00 0.00
  L 230.00 230.00
  L 0.00 230.00
  L 0.00 0.00
  L 230.00 0.00
  Z
  M 174.95 92.98
  L 171.03 97.58
  Q 170.64 97.30 170.31 97.25
  L 167.84 94.45
  Q 160.17 93.51 151.97 94.83
  A 1.74 1.72 -68.9 0 0 151.10 95.22
  L 150.73 95.53
  Q 149.11 96.62 148.01 99.00
  Q 147.79 99.46 147.06 99.46
  L 146.35 99.20
  L 143.88 96.43
  Q 134.52 95.43 124.61 97.50
  Q 123.97 109.41 124.17 118.25
  Q 124.19 119.46 124.90 120.91
  A 0.41 0.41 0.0 0 1 124.48 121.50
  L 124.02 121.45
  Q 122.86 120.35 121.58 119.77
  C 120.44 117.55 118.62 119.18 116.95 119.08
  L 116.91 101.63
  Q 114.82 100.48 114.20 99.49
  Q 111.04 97.60 106.04 98.76
  A 0.46 0.45 71.5 0 0 105.73 99.39
  Q 106.11 100.24 107.19 100.28
  Q 107.04 100.41 106.88 100.54
  Q 106.78 105.67 107.01 110.40
  Q 107.05 111.34 106.32 112.71
  Q 105.21 113.10 105.20 114.50
  Q 105.15 121.25 105.14 128.00
  Q 105.13 129.17 106.52 129.59
  Q 107.13 130.60 109.35 132.16
  L 124.24 131.07
  A 0.65 0.65 0.0 0 0 124.83 130.52
  Q 125.00 129.39 124.70 128.20
  Q 125.44 128.15 125.89 127.94
  L 128.35 129.96
  Q 128.45 130.15 128.62 130.32
  A 1.04 1.03 -24.2 0 0 129.45 130.63
  L 146.45 129.18
  A 0.54 0.53 85.7 0 0 146.94 128.60
  Q 146.67 125.09 147.02 121.23
  Q 147.06 120.73 146.81 120.38
  Q 146.52 119.96 146.04 119.98
  Q 145.37 118.43 143.45 117.74
  Q 143.10 117.46 142.37 117.46
  Q 142.21 114.69 142.42 111.87
  Q 142.58 109.75 140.99 109.93
  Q 141.05 109.22 140.70 108.67
  Q 143.22 108.38 145.75 108.42
  Q 147.03 108.45 147.04 107.80
  Q 147.60 107.90 147.88 107.63
  Q 148.17 107.34 148.07 106.97
  C 148.22 108.50 147.28 109.67 147.91 110.98
  Q 148.58 112.35 150.51 112.98
  L 153.88 116.96
  L 151.55 116.96
  Q 151.84 116.90 151.98 116.79
  A 0.25 0.25 0.0 0 0 151.85 116.34
  Q 144.00 115.49 147.94 117.76
  L 147.91 125.47
  A 1.19 1.16 -68.0 0 0 148.25 126.30
  L 150.58 128.61
  L 165.82 127.47
  A 1.45 1.45 0.0 0 0 166.85 126.94
  L 170.50 122.49
  A 1.58 1.55 64.9 0 0 170.85 121.50
  L 170.85 113.37
  A 1.59 1.53 28.4 0 0 170.56 112.47
  Q 168.33 109.39 165.71 107.75
  Q 165.05 107.20 164.79 106.70
  L 170.72 106.32
  Q 170.89 107.32 171.67 108.71
  Q 172.69 110.27 174.55 111.23
  L 177.57 114.54
  Q 177.02 115.49 176.80 114.85
  Q 174.56 112.97 171.81 114.37
  A 0.46 0.45 -29.9 0 0 171.63 115.02
  L 172.13 115.79
  Q 172.18 115.92 172.24 116.06
  L 171.99 123.81
  A 1.24 1.18 -62.7 0 0 172.20 124.53
  Q 173.03 125.75 174.51 125.84
  Q 174.23 126.79 175.10 126.70
  Q 183.91 125.85 189.79 125.42
  A 1.35 1.35 0.0 0 0 190.74 124.93
  L 194.56 120.27
  A 1.37 1.36 65.3 0 0 194.88 119.39
  L 194.88 111.08
  A 1.19 1.15 24.5 0 0 194.57 110.29
  L 191.07 106.45
  A 1.36 1.36 0.0 0 0 190.54 106.08
  Q 189.99 105.87 189.52 105.93
  Q 189.31 105.23 188.75 104.60
  L 194.33 104.12
  A 0.55 0.55 0.0 0 0 194.84 103.56
  L 194.70 95.18
  L 191.58 92.76
  Q 190.85 91.37 188.61 91.56
  Q 181.69 92.14 174.95 92.98
  Z
  M 83.37 101.49
  Q 82.62 104.22 83.40 107.73
  Q 83.76 109.32 82.49 109.33
  L 78.24 104.96
  Q 76.84 103.45 75.42 102.87
  Q 74.78 101.44 72.50 101.66
  Q 66.13 102.29 59.70 102.79
  A 0.32 0.32 0.0 0 0 59.45 103.26
  Q 59.49 103.33 59.50 103.51
  C 58.89 105.23 58.60 108.67 60.60 109.80
  L 60.52 125.20
  Q 56.93 129.49 60.41 133.84
  L 63.08 135.51
  Q 63.18 136.16 63.59 136.42
  A 0.66 0.62 57.2 0 0 63.95 136.51
  L 77.95 135.31
  A 1.23 1.21 16.6 0 0 78.82 134.85
  L 82.96 129.76
  L 84.76 129.87
  Q 83.62 132.03 87.43 133.86
  L 94.55 133.61
  A 0.40 0.40 0.0 0 0 94.94 133.21
  L 94.94 123.82
  A 0.73 0.73 0.0 0 1 95.60 123.09
  L 100.48 122.68
  A 0.70 0.69 -2.7 0 0 101.11 121.99
  L 101.11 114.45
  A 0.77 0.72 26.9 0 0 100.94 113.98
  Q 100.58 113.58 100.06 113.56
  Q 99.96 112.78 99.49 112.21
  L 105.18 111.77
  A 0.74 0.74 0.0 0 0 105.86 110.99
  L 105.46 102.60
  L 102.52 100.51
  Q 101.76 99.11 100.75 99.21
  Q 92.37 100.04 83.98 100.65
  Q 83.29 100.70 83.37 101.49
  Z
  M 35.81 105.63
  L 35.41 106.30
  A 1.49 1.43 -30.5 0 0 35.20 107.05
  Q 35.13 120.40 35.12 133.75
  Q 35.12 135.10 36.68 135.85
  Q 37.04 136.63 39.38 138.15
  Q 42.31 138.74 46.39 137.89
  A 0.85 0.85 0.0 0 0 47.07 137.06
  L 47.07 129.60
  A 0.65 0.65 0.0 0 1 47.67 128.95
  L 54.20 128.39
  A 1.92 1.91 -72.5 0 0 55.50 127.71
  L 59.25 123.14
  A 2.06 2.06 0.0 0 0 59.72 121.83
  L 59.72 112.75
  A 1.83 1.81 23.3 0 0 59.21 111.49
  L 55.03 107.07
  Q 53.57 105.34 52.01 104.79
  Q 51.31 103.40 49.60 103.54
  Q 42.71 104.11 35.78 104.83
  A 0.33 0.33 0.0 0 0 35.49 105.22
  Q 35.54 105.49 35.81 105.63
  Z"
/>
<path fill="#882793" d="
  M 191.58 92.76
  L 176.34 94.13
  Q 174.65 93.67 174.95 92.98
  Q 181.69 92.14 188.61 91.56
  Q 190.85 91.37 191.58 92.76
  Z"
/>
<path fill="#3dc9bf" d="
  M 191.58 92.76
  L 194.70 95.18
  L 179.22 96.51
  Q 177.58 95.80 176.37 94.49
  Q 176.24 94.30 176.34 94.13
  L 191.58 92.76
  Z"
/>
<path fill="#451253" d="
  M 174.95 92.98
  Q 174.65 93.67 176.34 94.13
  Q 176.24 94.30 176.37 94.49
  L 173.33 97.81
  A 4.66 4.65 67.9 0 0 172.11 100.71
  L 171.67 108.71
  Q 170.89 107.32 170.72 106.32
  L 171.03 97.58
  L 174.95 92.98
  Z"
/>
<path fill="#882793" d="
  M 167.84 94.45
  Q 160.39 96.24 152.36 96.11
  Q 152.41 96.19 152.47 96.27
  Q 151.21 95.92 150.73 95.53
  L 151.10 95.22
  A 1.74 1.72 -68.9 0 1 151.97 94.83
  Q 160.17 93.51 167.84 94.45
  Z"
/>
<path fill="#086058" d="
  M 179.22 96.51
  L 174.96 101.70
  A 1.40 1.39 65.4 0 0 174.65 102.55
  L 174.55 111.23
  Q 172.69 110.27 171.67 108.71
  L 172.11 100.71
  A 4.66 4.65 67.9 0 1 173.33 97.81
  L 176.37 94.49
  Q 177.58 95.80 179.22 96.51
  Z"
/>
<path fill="#3dc9bf" d="
  M 167.84 94.45
  L 170.31 97.25
  L 155.19 98.55
  Q 153.56 97.95 152.36 96.11
  Q 160.39 96.24 167.84 94.45
  Z"
/>
<path fill="#ffffff" d="
  M 194.70 95.18
  L 194.84 103.56
  A 0.55 0.55 0.0 0 1 194.33 104.12
  L 188.75 104.60
  L 182.84 105.07
  A 0.71 0.70 87.8 0 0 182.19 105.78
  L 182.19 106.12
  A 0.60 0.60 0.0 0 0 182.86 106.72
  L 189.52 105.93
  Q 189.99 105.87 190.54 106.08
  A 1.36 1.36 0.0 0 1 191.07 106.45
  L 194.57 110.29
  A 1.19 1.15 24.5 0 1 194.88 111.08
  L 194.88 119.39
  A 1.37 1.36 65.3 0 1 194.56 120.27
  L 190.74 124.93
  A 1.35 1.35 0.0 0 1 189.79 125.42
  Q 183.91 125.85 175.10 126.70
  Q 174.23 126.79 174.51 125.84
  L 174.64 117.78
  L 186.61 116.82
  A 0.72 0.72 0.0 0 0 187.28 116.10
  L 187.28 115.80
  A 0.63 0.63 0.0 0 0 186.58 115.17
  Q 183.09 115.57 179.58 115.98
  Q 178.64 116.10 177.57 114.54
  L 174.55 111.23
  L 174.65 102.55
  A 1.40 1.39 65.4 0 1 174.96 101.70
  L 179.22 96.51
  L 194.70 95.18
  Z"
/>
<path fill="#451253" d="
  M 150.73 95.53
  Q 151.21 95.92 152.47 96.27
  L 148.90 100.82
  A 1.61 1.60 -23.7 0 0 148.56 101.68
  L 148.07 106.97
  Q 148.17 107.34 147.88 107.63
  Q 147.60 107.90 147.04 107.80
  L 147.06 99.46
  Q 147.79 99.46 148.01 99.00
  Q 149.11 96.62 150.73 95.53
  Z"
/>
<path fill="#882793" d="
  M 143.88 96.43
  Q 135.15 98.30 126.16 98.35
  Q 125.57 98.49 124.61 97.50
  Q 134.52 95.43 143.88 96.43
  Z"
/>
<path fill="#086058" d="
  M 152.36 96.11
  Q 153.56 97.95 155.19 98.55
  L 150.92 104.05
  A 1.25 1.25 0.0 0 0 150.67 104.77
  L 150.51 112.98
  Q 148.58 112.35 147.91 110.98
  C 147.28 109.67 148.22 108.50 148.07 106.97
  L 148.56 101.68
  A 1.61 1.60 -23.7 0 1 148.90 100.82
  L 152.47 96.27
  Q 152.41 96.19 152.36 96.11
  Z"
/>
<path fill="#3dc9bf" d="
  M 143.88 96.43
  L 146.35 99.20
  L 128.58 100.83
  Q 127.72 99.78 125.87 98.66
  Q 126.01 98.51 126.16 98.35
  Q 135.15 98.30 143.88 96.43
  Z"
/>
<path fill="#ffffff" d="
  M 170.31 97.25
  Q 170.64 97.30 171.03 97.58
  L 170.72 106.32
  L 164.79 106.70
  L 158.95 107.15
  A 0.60 0.60 0.0 0 0 158.40 107.80
  L 158.44 108.25
  A 0.50 0.49 -6.0 0 0 159.00 108.70
  L 165.71 107.75
  Q 168.33 109.39 170.56 112.47
  A 1.59 1.53 28.4 0 1 170.85 113.37
  L 170.85 121.50
  A 1.58 1.55 64.9 0 1 170.50 122.49
  L 166.85 126.94
  A 1.45 1.45 0.0 0 1 165.82 127.47
  L 150.58 128.61
  L 150.60 121.48
  Q 150.43 119.73 151.49 119.72
  Q 153.80 119.70 162.81 118.98
  A 0.83 0.82 85.5 0 0 163.57 118.08
  L 163.55 117.80
  A 0.56 0.56 0.0 0 0 162.95 117.29
  L 155.21 117.95
  A 0.63 0.63 0.0 0 1 154.71 117.78
  L 153.88 116.96
  L 150.51 112.98
  L 150.67 104.77
  A 1.25 1.25 0.0 0 1 150.92 104.05
  L 155.19 98.55
  L 170.31 97.25
  Z"
/>
<path fill="#451253" d="
  M 124.61 97.50
  Q 125.57 98.49 126.16 98.35
  Q 126.01 98.51 125.87 98.66
  L 125.89 127.94
  Q 125.44 128.15 124.70 128.20
  Q 124.95 124.40 124.82 122.50
  Q 124.78 121.99 124.22 122.06
  Q 124.15 121.66 124.02 121.45
  L 124.48 121.50
  A 0.41 0.41 0.0 0 0 124.90 120.91
  Q 124.19 119.46 124.17 118.25
  Q 123.97 109.41 124.61 97.50
  Z"
/>
<path fill="#882793" d="
  M 114.20 99.49
  L 107.19 100.28
  Q 106.11 100.24 105.73 99.39
  A 0.46 0.45 71.5 0 1 106.04 98.76
  Q 111.04 97.60 114.20 99.49
  Z"
/>
<path fill="#086058" d="
  M 128.58 100.83
  L 128.35 129.96
  L 125.89 127.94
  L 125.87 98.66
  Q 127.72 99.78 128.58 100.83
  Z"
/>
<path fill="#882793" d="
  M 102.52 100.51
  L 85.27 102.13
  Q 84.40 101.51 83.37 101.49
  Q 83.29 100.70 83.98 100.65
  Q 92.37 100.04 100.75 99.21
  Q 101.76 99.11 102.52 100.51
  Z"
/>
<path fill="#ffffff" d="
  M 146.35 99.20
  L 147.06 99.46
  L 147.04 107.80
  Q 147.03 108.45 145.75 108.42
  Q 143.22 108.38 140.70 108.67
  L 136.89 109.07
  A 0.58 0.58 0.0 0 0 136.36 109.65
  L 136.36 110.04
  A 0.58 0.57 -4.7 0 0 137.03 110.60
  L 140.99 109.93
  Q 142.58 109.75 142.42 111.87
  Q 142.21 114.69 142.37 117.46
  Q 142.45 117.62 142.53 117.79
  Q 142.50 118.28 142.31 118.61
  Q 142.09 118.98 141.59 119.01
  Q 139.43 119.17 136.71 119.50
  A 0.44 0.44 0.0 0 0 136.33 119.94
  L 136.33 120.74
  A 0.41 0.40 -3.7 0 0 136.79 121.14
  L 146.04 119.98
  Q 146.52 119.96 146.81 120.38
  Q 147.06 120.73 147.02 121.23
  Q 146.67 125.09 146.94 128.60
  A 0.54 0.53 85.7 0 1 146.45 129.18
  L 129.45 130.63
  A 1.04 1.03 -24.2 0 1 128.62 130.32
  Q 128.45 130.15 128.35 129.96
  L 128.58 100.83
  L 146.35 99.20
  Z"
/>
<path fill="#3dc9bf" d="
  M 114.20 99.49
  Q 114.82 100.48 116.91 101.63
  L 109.44 102.32
  L 106.88 100.54
  Q 107.04 100.41 107.19 100.28
  L 114.20 99.49
  Z"
/>
<path fill="#3dc9bf" d="
  M 102.52 100.51
  L 105.46 102.60
  L 87.54 104.49
  Q 86.82 103.62 85.68 102.93
  Q 85.34 102.82 85.27 102.13
  L 102.52 100.51
  Z"
/>
<path fill="#086058" d="
  M 106.88 100.54
  L 109.44 102.32
  L 109.35 132.16
  Q 107.13 130.60 106.52 129.59
  L 106.32 112.71
  Q 107.05 111.34 107.01 110.40
  Q 106.78 105.67 106.88 100.54
  Z"
/>
<path fill="#451253" d="
  M 85.27 102.13
  Q 85.34 102.82 85.68 102.93
  Q 84.72 102.83 84.75 104.06
  Q 84.99 116.97 84.76 129.87
  L 82.96 129.76
  Q 83.72 128.96 83.74 128.50
  Q 83.89 124.67 83.79 111.07
  A 1.12 1.11 22.3 0 0 83.45 110.27
  L 82.49 109.33
  Q 83.76 109.32 83.40 107.73
  Q 82.62 104.22 83.37 101.49
  Q 84.40 101.51 85.27 102.13
  Z"
/>
<path fill="#ffffff" d="
  M 116.95 119.08
  Q 117.13 119.66 117.08 120.40
  Q 116.89 121.49 117.09 122.34
  A 0.59 0.59 0.0 0 0 117.73 122.79
  L 124.22 122.06
  Q 124.78 121.99 124.82 122.50
  Q 124.95 124.40 124.70 128.20
  Q 125.00 129.39 124.83 130.52
  A 0.65 0.65 0.0 0 1 124.24 131.07
  L 109.35 132.16
  L 109.44 102.32
  L 116.91 101.63
  L 116.95 119.08
  Z"
/>
<path fill="#882793" d="
  M 75.42 102.87
  L 61.05 104.16
  L 59.50 103.51
  Q 59.49 103.33 59.45 103.26
  A 0.32 0.32 0.0 0 1 59.70 102.79
  Q 66.13 102.29 72.50 101.66
  Q 74.78 101.44 75.42 102.87
  Z"
/>
<path fill="#ffffff" d="
  M 105.46 102.60
  L 105.86 110.99
  A 0.74 0.74 0.0 0 1 105.18 111.77
  L 99.49 112.21
  L 95.65 112.63
  A 0.60 0.59 -3.3 0 0 95.12 113.22
  L 95.12 113.81
  A 0.41 0.40 -3.7 0 0 95.58 114.21
  L 100.06 113.56
  Q 100.58 113.58 100.94 113.98
  A 0.77 0.72 26.9 0 1 101.11 114.45
  L 101.11 121.99
  A 0.70 0.69 -2.7 0 1 100.48 122.68
  L 95.60 123.09
  A 0.73 0.73 0.0 0 0 94.94 123.82
  L 94.94 133.21
  A 0.40 0.40 0.0 0 1 94.55 133.61
  L 87.43 133.86
  L 87.54 104.49
  L 105.46 102.60
  Z"
/>
<path fill="#3dc9bf" d="
  M 75.42 102.87
  Q 76.84 103.45 78.24 104.96
  L 63.50 106.40
  Q 62.62 105.10 61.02 104.51
  Q 61.10 104.28 61.05 104.16
  L 75.42 102.87
  Z"
/>
<path fill="#086058" d="
  M 85.68 102.93
  Q 86.82 103.62 87.54 104.49
  L 87.43 133.86
  Q 83.62 132.03 84.76 129.87
  Q 84.99 116.97 84.75 104.06
  Q 84.72 102.83 85.68 102.93
  Z"
/>
<path fill="#882793" d="
  M 52.01 104.79
  L 37.20 106.15
  L 35.81 105.63
  Q 35.54 105.49 35.49 105.22
  A 0.33 0.33 0.0 0 1 35.78 104.83
  Q 42.71 104.11 49.60 103.54
  Q 51.31 103.40 52.01 104.79
  Z"
/>
<path fill="#451253" d="
  M 61.05 104.16
  Q 61.10 104.28 61.02 104.51
  Q 60.85 104.62 60.73 104.79
  A 0.66 0.62 -29.0 0 0 60.61 105.16
  L 60.60 109.80
  C 58.60 108.67 58.89 105.23 59.50 103.51
  L 61.05 104.16
  Z"
/>
<path fill="#086058" d="
  M 63.50 106.40
  L 63.08 135.51
  L 60.41 133.84
  L 60.52 125.20
  L 60.60 109.80
  L 60.61 105.16
  A 0.66 0.62 -29.0 0 1 60.73 104.79
  Q 60.85 104.62 61.02 104.51
  Q 62.62 105.10 63.50 106.40
  Z"
/>
<path fill="#3dc9bf" d="
  M 52.01 104.79
  Q 53.57 105.34 55.03 107.07
  L 39.47 108.49
  Q 38.78 107.55 37.43 106.73
  L 37.20 106.15
  L 52.01 104.79
  Z"
/>
<path fill="#ffffff" d="
  M 82.49 109.33
  L 83.45 110.27
  A 1.12 1.11 22.3 0 1 83.79 111.07
  Q 83.89 124.67 83.74 128.50
  Q 83.72 128.96 82.96 129.76
  L 78.82 134.85
  A 1.23 1.21 16.6 0 1 77.95 135.31
  L 63.95 136.51
  A 0.66 0.62 57.2 0 1 63.59 136.42
  Q 63.18 136.16 63.08 135.51
  L 63.50 106.40
  L 78.24 104.96
  L 82.49 109.33
  Z
  M 73.76 114.72
  Q 72.45 114.49 71.35 114.92
  A 0.76 0.75 -10.9 0 0 70.87 115.62
  L 70.88 122.88
  L 71.07 126.13
  A 0.78 0.77 -82.2 0 0 71.58 126.82
  Q 73.21 127.41 74.97 126.14
  Q 75.27 126.32 75.53 126.37
  A 0.56 0.55 6.3 0 0 76.21 125.83
  L 76.21 115.01
  A 0.56 0.56 0.0 0 0 75.69 114.45
  Q 74.69 114.37 73.76 114.72
  Z"
/>
<path fill="#3dc9bf" d="
  M 188.75 104.60
  Q 189.31 105.23 189.52 105.93
  L 182.86 106.72
  A 0.60 0.60 0.0 0 1 182.19 106.12
  L 182.19 105.78
  A 0.71 0.70 87.8 0 1 182.84 105.07
  L 188.75 104.60
  Z"
/>
<path fill="#451253" d="
  M 37.20 106.15
  L 37.43 106.73
  Q 36.62 106.71 36.63 108.00
  Q 36.72 121.88 36.68 135.85
  Q 35.12 135.10 35.12 133.75
  Q 35.13 120.40 35.20 107.05
  A 1.49 1.43 -30.5 0 1 35.41 106.30
  L 35.81 105.63
  L 37.20 106.15
  Z"
/>
<path fill="#086058" d="
  M 37.43 106.73
  Q 38.78 107.55 39.47 108.49
  L 39.38 138.15
  Q 37.04 136.63 36.68 135.85
  Q 36.72 121.88 36.63 108.00
  Q 36.62 106.71 37.43 106.73
  Z"
/>
<path fill="#3dc9bf" d="
  M 164.79 106.70
  Q 165.05 107.20 165.71 107.75
  L 159.00 108.70
  A 0.50 0.49 -6.0 0 1 158.44 108.25
  L 158.40 107.80
  A 0.60 0.60 0.0 0 1 158.95 107.15
  L 164.79 106.70
  Z"
/>
<path fill="#ffffff" d="
  M 55.03 107.07
  L 59.21 111.49
  A 1.83 1.81 23.3 0 1 59.72 112.75
  L 59.72 121.83
  A 2.06 2.06 0.0 0 1 59.25 123.14
  L 55.50 127.71
  A 1.92 1.91 -72.5 0 1 54.20 128.39
  L 47.67 128.95
  A 0.65 0.65 0.0 0 0 47.07 129.60
  L 47.07 137.06
  A 0.85 0.85 0.0 0 1 46.39 137.89
  Q 42.31 138.74 39.38 138.15
  L 39.47 108.49
  L 55.03 107.07
  Z
  M 47.25 117.68
  L 47.37 119.45
  A 0.57 0.57 0.0 0 0 47.89 119.97
  Q 49.73 120.12 51.50 119.65
  Q 52.65 118.79 52.14 116.94
  A 0.74 0.72 -5.6 0 0 51.49 116.42
  Q 48.08 116.17 47.25 117.68
  Z"
/>
<path fill="#3dc9bf" d="
  M 140.70 108.67
  Q 141.05 109.22 140.99 109.93
  L 137.03 110.60
  A 0.58 0.57 -4.7 0 1 136.36 110.04
  L 136.36 109.65
  A 0.58 0.58 0.0 0 1 136.89 109.07
  L 140.70 108.67
  Z"
/>
<path fill="#3dc9bf" d="
  M 99.49 112.21
  Q 99.96 112.78 100.06 113.56
  L 95.58 114.21
  A 0.41 0.40 -3.7 0 1 95.12 113.81
  L 95.12 113.22
  A 0.60 0.59 -3.3 0 1 95.65 112.63
  L 99.49 112.21
  Z"
/>
<path fill="#451253" d="
  M 106.32 112.71
  L 106.52 129.59
  Q 105.13 129.17 105.14 128.00
  Q 105.15 121.25 105.20 114.50
  Q 105.21 113.10 106.32 112.71
  Z"
/>
<path fill="#882793" d="
  M 176.80 114.85
  Q 175.16 115.55 173.00 115.18
  Q 172.34 115.07 172.13 115.79
  L 171.63 115.02
  A 0.46 0.45 -29.9 0 1 171.81 114.37
  Q 174.56 112.97 176.80 114.85
  Z"
/>
<path fill="#086058" d="
  M 74.97 126.14
  L 73.84 124.58
  Q 72.72 119.50 73.76 114.72
  Q 74.69 114.37 75.69 114.45
  A 0.56 0.56 0.0 0 1 76.21 115.01
  L 76.21 125.83
  A 0.56 0.55 6.3 0 1 75.53 126.37
  Q 75.27 126.32 74.97 126.14
  Z"
/>
<path fill="#3dc9bf" d="
  M 174.64 117.78
  L 172.24 116.06
  Q 172.18 115.92 172.13 115.79
  Q 172.34 115.07 173.00 115.18
  Q 175.16 115.55 176.80 114.85
  Q 177.02 115.49 177.57 114.54
  Q 178.64 116.10 179.58 115.98
  Q 183.09 115.57 186.58 115.17
  A 0.63 0.63 0.0 0 1 187.28 115.80
  L 187.28 116.10
  A 0.72 0.72 0.0 0 1 186.61 116.82
  L 174.64 117.78
  Z"
/>
<path fill="#451253" d="
  M 73.76 114.72
  Q 72.72 119.50 73.84 124.58
  L 70.88 122.88
  L 70.87 115.62
  A 0.76 0.75 -10.9 0 1 71.35 114.92
  Q 72.45 114.49 73.76 114.72
  Z"
/>
<path fill="#882793" d="
  M 151.55 116.96
  Q 150.85 117.64 149.25 117.25
  Q 148.53 117.07 148.09 117.84
  Q 148.02 117.80 147.94 117.76
  Q 144.00 115.49 151.85 116.34
  A 0.25 0.25 0.0 0 1 151.98 116.79
  Q 151.84 116.90 151.55 116.96
  Z"
/>
<path fill="#086058" d="
  M 174.64 117.78
  L 174.51 125.84
  Q 173.03 125.75 172.20 124.53
  A 1.24 1.18 -62.7 0 1 171.99 123.81
  L 172.24 116.06
  L 174.64 117.78
  Z"
/>
<path fill="#0f172a" d="
  M 51.50 119.65
  Q 50.08 117.04 47.25 117.68
  Q 48.08 116.17 51.49 116.42
  A 0.74 0.72 -5.6 0 1 52.14 116.94
  Q 52.65 118.79 51.50 119.65
  Z"
/>
<path fill="#3dc9bf" d="
  M 151.55 116.96
  L 153.88 116.96
  L 154.71 117.78
  A 0.63 0.63 0.0 0 0 155.21 117.95
  L 162.95 117.29
  A 0.56 0.56 0.0 0 1 163.55 117.80
  L 163.57 118.08
  A 0.83 0.82 85.5 0 1 162.81 118.98
  Q 153.80 119.70 151.49 119.72
  Q 150.43 119.73 150.60 121.48
  Q 150.78 120.44 150.49 119.77
  A 1.08 1.08 0.0 0 0 149.92 119.20
  Q 148.78 118.72 148.09 117.84
  Q 148.53 117.07 149.25 117.25
  Q 150.85 117.64 151.55 116.96
  Z"
/>
<path fill="#3dc9bf" d="
  M 51.50 119.65
  Q 49.73 120.12 47.89 119.97
  A 0.57 0.57 0.0 0 1 47.37 119.45
  L 47.25 117.68
  Q 50.08 117.04 51.50 119.65
  Z"
/>
<path fill="#882793" d="
  M 143.45 117.74
  Q 143.02 117.86 142.53 117.79
  Q 142.45 117.62 142.37 117.46
  Q 143.10 117.46 143.45 117.74
  Z"
/>
<path fill="#3dc9bf" d="
  M 143.45 117.74
  Q 145.37 118.43 146.04 119.98
  L 136.79 121.14
  A 0.41 0.40 -3.7 0 1 136.33 120.74
  L 136.33 119.94
  A 0.44 0.44 0.0 0 1 136.71 119.50
  Q 139.43 119.17 141.59 119.01
  Q 142.09 118.98 142.31 118.61
  Q 142.50 118.28 142.53 117.79
  Q 143.02 117.86 143.45 117.74
  Z"
/>
<path fill="#086058" d="
  M 148.09 117.84
  Q 148.78 118.72 149.92 119.20
  A 1.08 1.08 0.0 0 1 150.49 119.77
  Q 150.78 120.44 150.60 121.48
  L 150.58 128.61
  L 148.25 126.30
  A 1.19 1.16 -68.0 0 1 147.91 125.47
  L 147.94 117.76
  Q 148.02 117.80 148.09 117.84
  Z"
/>
<path fill="#882793" d="
  M 121.58 119.77
  L 117.08 120.40
  Q 117.13 119.66 116.95 119.08
  C 118.62 119.18 120.44 117.55 121.58 119.77
  Z"
/>
<path fill="#3dc9bf" d="
  M 121.58 119.77
  Q 122.86 120.35 124.02 121.45
  Q 124.15 121.66 124.22 122.06
  L 117.73 122.79
  A 0.59 0.59 0.0 0 1 117.09 122.34
  Q 116.89 121.49 117.08 120.40
  L 121.58 119.77
  Z"
/>
<path fill="#3dc9bf" d="
  M 73.84 124.58
  L 74.97 126.14
  Q 73.21 127.41 71.58 126.82
  A 0.78 0.77 -82.2 0 1 71.07 126.13
  L 70.88 122.88
  L 73.84 124.58
  Z"
/>
<path fill="#451253" d="
  M 60.52 125.20
  L 60.41 133.84
  Q 56.93 129.49 60.52 125.20
  Z"
/>
</svg>
