<svg width="128" height="128" viewBox="0 0 128 128" fill="none" xmlns="http://www.w3.org/2000/svg">
<path d="M122.98 80.4835L119.323 49.7263V49.702V49.6778C119.323 49.6535 119.323 49.6292 119.323 49.6292C119.323 49.6292 119.323 49.6292 119.323 49.6049C119.323 49.5807 119.323 49.5564 119.298 49.5564V49.5321C119.298 49.5079 119.274 49.4836 119.274 49.4836C119.274 49.4836 119.274 49.4836 119.274 49.4593C119.274 49.435 119.249 49.435 119.249 49.4107C119.249 49.3865 119.225 49.3865 119.225 49.3622C119.225 49.3622 119.225 49.3379 119.2 49.3379C119.2 49.3136 119.175 49.3136 119.175 49.2893C119.175 49.2893 119.175 49.2893 119.175 49.2651C119.175 49.2408 119.151 49.2408 119.126 49.2165C119.102 49.1923 119.102 49.1923 119.077 49.168C119.077 49.168 119.077 49.168 119.053 49.1437L119.028 49.1194L94.1392 22.3921C94.1392 22.3678 94.1147 22.3678 94.1147 22.3678C94.0896 22.3193 94.0405 22.295 93.9915 22.2707C93.9669 22.2707 93.9669 22.2464 93.9424 22.2464H93.9179C93.8933 22.2221 93.8933 22.2221 93.8688 22.2221C93.8443 22.2221 93.8443 22.1979 93.8197 22.1979C93.7952 22.1979 93.7707 22.1736 93.7461 22.1736C93.7216 22.1736 93.6971 22.1493 93.6971 22.1493H93.6725C93.648 22.1493 93.648 22.1493 93.6235 22.1493C93.6235 22.1493 93.6235 22.1493 93.599 22.1493L38.0034 10.6913H37.9788C37.9298 10.667 37.8561 10.667 37.7825 10.667C37.7579 10.667 37.7334 10.667 37.7089 10.667C37.6843 10.667 37.6597 10.667 37.6597 10.667C37.6107 10.667 37.5861 10.6913 37.537 10.6913C37.5125 10.6913 37.488 10.7155 37.4634 10.7155C37.4143 10.7155 37.3898 10.7398 37.3407 10.7641H37.3161C37.2916 10.7641 37.2671 10.7884 37.2425 10.7884C37.2179 10.7884 37.1934 10.8126 37.1934 10.8126C37.1689 10.8369 37.1443 10.8369 37.1197 10.8612C37.0952 10.8854 37.0707 10.8854 37.0707 10.9098L37.0461 10.934L5.60337 40.186C5.57878 40.2103 5.57878 40.2103 5.55425 40.2346C5.52972 40.2589 5.52972 40.2589 5.52972 40.2832C5.52972 40.3074 5.50518 40.3074 5.50518 40.3317C5.4806 40.356 5.45606 40.3802 5.45606 40.4045C5.45606 40.4288 5.43153 40.4288 5.43153 40.4531C5.407 40.4773 5.407 40.5259 5.38241 40.5502C5.38241 40.5745 5.35788 40.5745 5.35788 40.5987C5.33334 40.623 5.33334 40.6715 5.33334 40.6958C5.33334 40.7201 5.33334 40.7201 5.33334 40.7444C5.33334 40.7686 5.33334 40.7686 5.33334 40.7929C5.33334 40.8172 5.33334 40.8414 5.33334 40.8658C5.33334 40.89 5.33334 40.9143 5.33334 40.9386C5.33334 40.9628 5.33334 40.9872 5.33334 41.0114C5.33334 41.0357 5.33334 41.06 5.33334 41.0842C5.33334 41.1085 5.33334 41.1328 5.33334 41.1571C5.33334 41.1813 5.33334 41.2056 5.35788 41.2299V41.2541L12.9915 70.3849V70.4334C12.9915 70.4574 13.0161 70.4819 13.0161 70.5059C13.0897 70.7006 13.1879 70.8462 13.3597 70.9673C13.3843 70.9918 13.3843 70.9918 13.4088 71.0158C13.4333 71.0403 13.4579 71.0403 13.4825 71.0643C13.507 71.0643 13.5315 71.0889 13.5315 71.0889C13.5807 71.1129 13.6297 71.1374 13.6543 71.1374C13.6788 71.1374 13.7034 71.1614 13.7279 71.1614C13.7524 71.1614 13.777 71.1614 13.8016 71.1859H13.8261L26.3197 73.6377L38.568 88.7129C38.5925 88.7369 38.617 88.7614 38.617 88.7854C38.617 88.7854 38.617 88.7854 38.6416 88.8099C38.6661 88.8339 38.6907 88.8585 38.7152 88.8585C38.7889 88.907 38.8625 88.9555 38.9361 89.0041C38.9607 89.0041 38.9607 89.0286 38.9852 89.0286C39.0098 89.0286 39.0098 89.0526 39.0343 89.0526C39.0588 89.0526 39.0588 89.0526 39.0834 89.0771C39.108 89.0771 39.108 89.0771 39.1325 89.1011C39.157 89.1011 39.1816 89.1011 39.2061 89.1257C39.2307 89.1257 39.2307 89.1257 39.2552 89.1257C39.2797 89.1257 39.2797 89.1257 39.3043 89.1257L56.9771 91.2617L67.8261 108.279C67.8752 108.352 67.9243 108.424 67.9979 108.473C68.0224 108.497 68.0224 108.497 68.0469 108.497C68.096 108.546 68.1696 108.594 68.2187 108.619C68.2432 108.619 68.2432 108.643 68.2677 108.643C68.3173 108.668 68.3419 108.668 68.3909 108.692C68.4155 108.692 68.44 108.716 68.4645 108.716C68.4891 108.716 68.4891 108.716 68.5136 108.716C68.5872 108.74 68.6363 108.74 68.7099 108.74C68.7835 108.74 68.8816 108.74 68.9797 108.716C69.0779 108.692 69.176 108.643 69.2496 108.594L69.2741 108.643L75.0427 116.921C75.2389 117.212 75.5579 117.358 75.9019 117.358C75.9755 117.358 76.0491 117.358 76.1227 117.334L86.1861 115.1C86.6528 115.003 86.9717 114.615 86.9963 114.129L87.4624 104.031L103.835 99.9038H103.859C103.884 99.9038 103.884 99.9038 103.908 99.9038C103.933 99.9038 103.933 99.9038 103.957 99.8798C104.031 99.8553 104.105 99.8313 104.154 99.7822C104.178 99.7822 104.178 99.7582 104.203 99.7582C104.227 99.7582 104.227 99.7337 104.252 99.7337C104.301 99.7097 104.325 99.6611 104.374 99.6366L104.399 99.6126C104.448 99.5641 104.497 99.491 104.522 99.4185C104.522 99.4185 104.522 99.3939 104.546 99.3939C104.546 99.3699 104.571 99.3454 104.571 99.3214L108.056 90.9705L122.563 81.5027C122.857 81.2601 123.029 80.8718 122.98 80.4835ZM116.402 49.3622L106.485 52.518C105.577 50.9158 103.859 49.8477 101.871 49.8477C101.773 49.8477 101.675 49.8477 101.576 49.8477L95.4645 26.8588L116.402 49.3622ZM93.8933 73.8803C93.7216 73.8563 93.5499 73.8563 93.3781 73.8563C91.8315 73.8563 90.4571 74.6329 89.6224 75.7982L67.0651 67.1075C67.1141 66.8403 67.1387 66.5737 67.1387 66.2825C67.1387 66.1609 67.1387 66.0393 67.1141 65.9422L97.1824 57.4459C97.6245 58.2956 98.3115 59.0238 99.1216 59.5091L93.8933 73.8803ZM96.0043 78.3715C96.0043 79.027 95.7589 79.6094 95.3664 80.0707C94.8997 80.6046 94.2374 80.9449 93.4763 80.9934C93.4272 80.9934 93.4027 80.9934 93.3536 80.9934C92.9851 80.9934 92.6661 80.9203 92.3472 80.7987C91.6843 80.5321 91.1445 79.9977 90.8992 79.3182C90.8005 79.051 90.7515 78.7843 90.7269 78.4926C90.7269 78.4686 90.7269 78.4201 90.7269 78.3955C90.7269 77.6915 91.0219 77.0361 91.488 76.5507C91.9296 76.1139 92.5435 75.8227 93.2064 75.7742C93.2555 75.7742 93.3045 75.7742 93.3781 75.7742C94.0651 75.7742 94.7035 76.0409 95.1941 76.4782C95.6853 76.939 96.0043 77.619 96.0043 78.3715ZM79.9515 89.8297C79.0187 89.1742 77.8651 88.7854 76.6133 88.7854C76.0491 88.7854 75.4843 88.8585 74.9691 89.0286L65.2491 70.2147C65.6661 69.8995 66.0096 69.5107 66.3045 69.0739L88.8619 77.7646C88.8373 77.9587 88.8128 78.1774 88.8128 78.3955C88.8128 79.2451 89.0581 80.0222 89.4507 80.7017L79.9515 89.8297ZM80.2955 94.4905C80.2955 95.0489 80.1728 95.6073 79.9269 96.0926C79.3382 97.3065 78.0619 98.1561 76.5888 98.1561C76.2699 98.1561 75.9755 98.1075 75.656 98.0345C74.9445 97.8649 74.3307 97.4761 73.8645 96.9667C73.2507 96.3113 72.8827 95.4371 72.8827 94.4905C72.8827 93.4467 73.3243 92.4995 74.0363 91.8446C74.5515 91.3587 75.1899 91.0435 75.9019 90.8974C76.1227 90.8489 76.3435 90.8249 76.5888 90.8249C77.2517 90.8249 77.8651 90.9945 78.4053 91.2862C79.0187 91.6259 79.5344 92.1358 79.8533 92.7667C80.0496 93.155 80.1973 93.5678 80.2464 94.0291C80.2955 94.1747 80.2955 94.3203 80.2955 94.4905ZM65.1509 66.3065C65.1509 67.0835 64.856 67.763 64.3899 68.2969C64.3653 68.3214 64.3408 68.3454 64.3163 68.3699C63.8496 68.8553 63.2608 69.1955 62.5733 69.2926L62.5488 69.4622L62.4752 69.3166C62.3525 69.3411 62.2299 69.3411 62.0827 69.3411C61.5179 69.3411 60.9781 69.1955 60.5115 68.9283C59.6032 68.3945 58.9899 67.4233 58.9899 66.3065C58.9899 65.3598 59.4315 64.4857 60.1435 63.9273C60.6587 63.515 61.3461 63.2478 62.0827 63.2478C62.1072 63.2478 62.1072 63.2478 62.1317 63.2478C62.4016 63.2478 62.6469 63.2963 62.8923 63.3449C63.5797 63.539 64.1691 63.9518 64.5861 64.5102L64.6597 64.4857L64.6107 64.5342C64.9296 65.0686 65.1509 65.6755 65.1509 66.3065ZM64.0709 61.7182C63.4571 61.4515 62.7941 61.3059 62.0827 61.3059C61.8864 61.3059 61.6651 61.3299 61.4688 61.3545L58.376 52.4452C59.5787 51.6684 60.3888 50.3332 60.3888 48.8038C60.3888 48.5368 60.3643 48.2455 60.3152 47.9785L78.2336 39.8219C78.4544 40.1618 78.7243 40.4531 78.9941 40.7444L64.0709 61.7182ZM52.1907 50.9158L42.1271 60.2617L53.148 33.8259L53.1971 33.7045L53.2216 33.8259L54.4736 44.7498C52.8043 45.3567 51.6261 46.9346 51.6261 48.8038C51.6261 49.5806 51.8471 50.2846 52.1907 50.9158ZM77.3499 37.9527L59.4315 46.1093C58.7445 45.2596 57.7381 44.677 56.5845 44.5314L55.3323 33.6074C56.3387 33.2433 57.1733 32.4907 57.6645 31.544L77.1781 35.9621C77.1781 36.0835 77.1781 36.2049 77.1781 36.3262C77.1291 36.8845 77.2027 37.4186 77.3499 37.9527ZM55.8971 30.3059C55.7989 30.5729 55.6517 30.8157 55.48 31.0341C55.3568 31.1798 55.2341 31.2769 55.0869 31.3983C54.7189 31.6411 54.3013 31.7867 53.8352 31.7867C53.148 31.7867 52.5344 31.4711 52.1171 30.9856C51.798 30.5972 51.6261 30.136 51.6261 29.6019C51.6261 29.3349 51.6753 29.0921 51.7734 28.8493C52.0189 28.1697 52.608 27.6356 53.3445 27.4899C53.5163 27.4414 53.688 27.4414 53.8597 27.4414C54.5717 27.4414 55.2096 27.7812 55.6027 28.291C55.7744 28.5095 55.8971 28.7765 55.9952 29.0436C56.0443 29.2378 56.0688 29.432 56.0688 29.6262C55.9952 29.8446 55.9707 30.0874 55.8971 30.3059ZM54.7189 46.6918C55.0869 46.4734 55.5536 46.3277 56.0197 46.3277C56.2896 46.3277 56.56 46.3763 56.8053 46.4491C57.1243 46.5462 57.4187 46.7162 57.6645 46.9104C58.2043 47.3716 58.5477 48.027 58.5477 48.8038C58.5477 49.5078 58.2533 50.139 57.7627 50.6002C57.3205 51.0129 56.7072 51.28 56.0443 51.28C55.9707 51.28 55.8725 51.28 55.7989 51.2557C55.5536 51.2314 55.3323 51.1828 55.1115 51.0858C54.4491 50.8187 53.9088 50.2604 53.688 49.5807C53.6144 49.3379 53.5653 49.0709 53.5653 48.7796C53.4917 47.9057 53.9824 47.1045 54.7189 46.6918ZM80.7125 41.9339C81.5472 42.3223 82.4555 42.5408 83.4373 42.5408C84.7627 42.5408 85.9899 42.1281 87.0208 41.4241L97.5509 52.1053C96.9616 52.9549 96.6181 53.9502 96.6181 55.0669C96.6181 55.2126 96.6181 55.334 96.6427 55.4796L66.5744 63.9758C66.3781 63.5875 66.1077 63.2233 65.8133 62.9081L80.7125 41.9339ZM79.4117 36.3019C79.4117 35.6222 79.5835 34.991 79.8779 34.4328C80.5653 33.1704 81.8907 32.3208 83.4373 32.3208C85.6464 32.3208 87.4624 34.0929 87.4624 36.3019C87.4624 37.0545 87.2661 37.7342 86.8981 38.3411C86.5296 38.948 86.0144 39.4335 85.4005 39.7733C84.8117 40.0889 84.1488 40.2832 83.4373 40.2832C82.9461 40.2832 82.48 40.2103 82.0624 40.0404C80.7371 39.5549 79.7307 38.3897 79.4853 36.9817C79.4608 36.8117 79.4363 36.6418 79.4363 36.4719C79.4118 36.4233 79.4117 36.3748 79.4117 36.3019ZM99.1216 56.9362C98.7536 56.4021 98.5573 55.7709 98.5573 55.0669C98.5573 55.0184 98.5573 54.9698 98.5573 54.9456C98.5819 54.4358 98.7045 53.9745 98.9253 53.5376C99.1952 53.0278 99.5883 52.5908 100.079 52.2995C100.202 52.2267 100.3 52.1539 100.422 52.1053C100.865 51.8868 101.355 51.7654 101.895 51.7654C101.969 51.7654 102.043 51.7654 102.092 51.7654C103.123 51.814 104.031 52.3481 104.595 53.1249C104.988 53.6832 105.234 54.3387 105.234 55.0669V55.0912C105.234 56.3778 104.473 57.4945 103.393 58.0285C102.951 58.247 102.435 58.3684 101.895 58.3684C101.871 58.3684 101.822 58.3684 101.797 58.3684C101.625 58.3684 101.478 58.3441 101.331 58.3198C100.766 58.2228 100.251 58.0043 99.8336 57.6644C99.5637 57.4702 99.3179 57.2032 99.1216 56.9362ZM99.5637 50.3818C99.3669 50.4788 99.1952 50.576 99.0235 50.6731L88.5179 39.9918C89.2789 38.9723 89.7451 37.6857 89.7451 36.3019C89.7451 32.8548 86.9227 30.0632 83.4373 30.0632C80.8107 30.0632 78.5526 31.6653 77.6198 33.9229L59.2107 29.7476L92.6171 24.2613L99.5637 50.3818ZM87.6837 22.9747L57.7381 27.9026C57.0752 26.3976 55.5536 25.3294 53.7861 25.3294C53.0744 25.3294 52.3871 25.4993 51.798 25.8149L40.6543 13.3373L87.6837 22.9747ZM38.2979 13.8471L50.2271 27.1986C49.7607 27.8784 49.4661 28.7037 49.4661 29.6019C49.4661 31.0099 50.1534 32.248 51.2089 33.0248L39.9425 60.0435C39.7216 60.019 39.5252 59.995 39.3043 59.995C38.9852 59.995 38.6661 60.019 38.3716 60.0921L32.8489 49.1194C34.2725 48.0756 35.2052 46.3763 35.2052 44.4828C35.2052 42.1523 33.8061 40.1375 31.7934 39.2393L38.2979 13.8471ZM31.8916 47.1774C31.3761 47.6386 30.7379 47.9785 30.0261 48.0998C29.8052 48.1484 29.6089 48.1484 29.3879 48.1484C29.0689 48.1484 28.7498 48.0998 28.4552 48.027C27.7434 47.8571 27.1297 47.4687 26.6634 46.9589C26.1479 46.4249 25.8043 45.7209 25.7061 44.9441C25.6816 44.7984 25.6816 44.6284 25.6816 44.4585C25.6816 43.9002 25.8043 43.3661 26.0252 42.9049C26.5897 41.6911 27.817 40.8414 29.2407 40.7929C29.2898 40.7929 29.3388 40.7929 29.3879 40.7929C30.0752 40.7929 30.7134 40.9871 31.2779 41.3027C32.3579 41.9339 33.0943 43.1234 33.0943 44.4585C33.0698 45.5509 32.628 46.5219 31.8916 47.1774ZM35.8925 14.8909L29.7807 38.7538C29.6579 38.7538 29.5107 38.7295 29.3879 38.7295C26.8352 38.7295 24.6752 40.356 23.8652 42.6136L8.59788 40.2589L35.8925 14.8909ZM7.71425 42.2009L23.5216 44.6284C23.5706 46.3035 24.3316 47.8085 25.5343 48.8281L14.3416 67.4718L7.71425 42.2009ZM27.3261 49.9205C27.9643 50.1633 28.6516 50.2846 29.3634 50.2846C29.928 50.2846 30.468 50.2118 30.9834 50.0662L36.5061 61.0387C35.5734 61.8158 34.9843 62.9806 34.9597 64.2675L16.0843 68.5886L27.3261 49.9205ZM18.9315 70.0451L34.0761 66.5737L26.6143 71.5502L18.9315 70.0451ZM38.2734 85.0958L28.357 72.8851L36.408 67.4958C36.9234 67.9571 37.5616 68.2969 38.2734 68.4915V85.0958ZM39.3289 66.6222C38.9607 66.6222 38.5925 66.5251 38.2734 66.3795L38.1752 66.331C37.9298 66.1849 37.7089 66.0153 37.5125 65.7966C37.2425 65.4569 37.0461 65.0686 36.997 64.6073C36.9725 64.5102 36.9725 64.4131 36.9725 64.3161C36.9725 64.1219 36.997 63.9518 37.0461 63.7817C37.1197 63.4665 37.2671 63.1993 37.4388 62.9321C37.8316 62.4222 38.4452 62.0585 39.1325 62.0099L39.2061 61.8158L39.3043 62.0099C39.5743 62.0099 39.8443 62.0585 40.0898 62.1555C40.4579 62.3011 40.8016 62.5193 41.0471 62.811C41.268 63.0537 41.4152 63.3449 41.5134 63.6606C41.5871 63.8787 41.6116 64.0974 41.6116 64.3161C41.6116 64.7043 41.5134 65.0926 41.317 65.4083C41.0961 65.8211 40.7525 66.1609 40.3107 66.355C40.0898 66.4766 39.8443 66.5491 39.5988 66.5737C39.5498 66.5977 39.4271 66.6222 39.3289 66.6222ZM40.3843 87.1107V68.4915C40.5561 68.443 40.728 68.3945 40.8997 68.3454L55.3323 88.9555L40.3843 87.1107ZM42.5934 67.1561C43.2807 66.4035 43.6734 65.4083 43.6734 64.3161C43.6734 63.539 43.477 62.835 43.1089 62.2041L53.6144 52.4452C54.3019 52.8821 55.1115 53.1492 55.9952 53.1492C56.1179 53.1492 56.2405 53.1492 56.3877 53.1249L59.4805 62.0339C58.008 62.9081 57.0261 64.5102 57.0261 66.331C57.0261 68.4185 58.3024 70.1907 60.1435 70.9433L56.9525 87.6206L42.5934 67.1561ZM68.6117 105.706L58.6219 90.0478L62.1808 71.3315C62.5979 71.3315 62.9909 71.2585 63.3835 71.1614L73.1035 89.9753C71.7291 91.019 70.8453 92.6457 70.8453 94.4905C70.8453 96.1897 71.6064 97.7193 72.8091 98.763L68.6117 105.706ZM84.8853 113.231L76.2944 115.149L71.3605 108.061L85.3024 104.541L84.8853 113.231ZM70.8453 106.046L74.6005 99.8067C75.2144 100.049 75.9019 100.171 76.6133 100.171C79.1173 100.171 81.2283 98.5929 82.0379 96.4083L98.4837 99.1027L70.8453 106.046ZM82.3573 94.3689C82.3328 93.2281 81.9888 92.1843 81.4 91.3102L90.9238 82.1582C91.6352 82.5955 92.4699 82.8622 93.3781 82.8622C93.7216 82.8622 94.0651 82.8137 94.3845 82.7411L101.724 97.5006L82.3573 94.3689ZM103.466 96.3598L96.2496 81.843C97.256 81.0174 97.9189 79.755 97.9189 78.3715C97.9189 76.7934 97.0843 75.4099 95.8571 74.5843L101.11 60.2377C101.282 60.2617 101.453 60.2862 101.625 60.2862L106.117 90.0963L103.466 96.3598ZM107.958 88.4942L103.687 59.995C105.724 59.2665 107.173 57.3488 107.173 55.0669C107.173 54.8728 107.173 54.6785 107.148 54.4843L117.408 51.2071L120.844 80.0707L107.958 88.4942Z" fill="#7F35FD" stroke="#7F35FD" stroke-width="0.325758" stroke-linejoin="round"/>
</svg>
