<?xml version="1.0" encoding="UTF-8" standalone="no"?>
<!DOCTYPE svg PUBLIC "-//W3C//DTD SVG 1.1//EN" "http://www.w3.org/Graphics/SVG/1.1/DTD/svg11.dtd">
<svg xmlns="http://www.w3.org/2000/svg" version="1.1" viewBox="0.00 0.00 32.00 32.00">
<path stroke="#7d611e" stroke-width="2.00" fill="none" stroke-linecap="butt" vector-effect="non-scaling-stroke" d="
  M 10.95 22.37
  Q 12.91 23.71 15.45 23.73
  A 0.63 0.63 0.0 0 0 16.08 23.10
  L 16.08 12.88
  A 0.32 0.31 -7.8 0 0 15.68 12.58
  Q 13.32 13.23 9.70 12.29
  A 0.87 0.87 0.0 0 1 9.63 10.63
  Q 15.83 8.48 21.23 10.44
  Q 24.18 11.52 22.73 14.14
  A 1.31 1.31 0.0 0 1 22.23 14.64
  Q 19.92 15.91 17.74 15.84
  A 0.41 0.41 0.0 0 0 17.32 16.25
  L 17.32 16.57
  A 0.57 0.57 0.0 0 0 17.92 17.14
  Q 21.57 17.00 23.50 15.16
  C 26.16 12.61 23.45 9.48 20.74 8.77
  Q 15.30 7.36 9.59 9.18
  Q 6.28 10.23 8.16 13.78
  A 1.18 1.16 -5.5 0 0 8.87 14.36
  L 13.54 15.66
  A 1.11 1.08 -8.5 0 1 14.14 16.09
  L 14.45 16.56
  A 0.34 0.34 0.0 0 1 14.15 17.09
  Q 11.47 17.00 9.28 16.17
  A 0.25 0.25 0.0 0 0 9.04 16.60
  Q 11.15 18.19 13.92 18.31
  A 0.65 0.65 0.0 0 1 14.54 18.94
  L 14.50 19.20
  A 0.76 0.75 -77.9 0 1 13.55 19.82
  L 10.33 18.92
  A 0.28 0.28 0.0 0 0 9.98 19.12
  L 9.89 19.42
  A 0.09 0.08 19.7 0 0 9.94 19.52
  L 14.05 21.18
  A 0.45 0.45 0.0 0 1 14.32 21.72
  L 14.22 22.09
  A 0.48 0.48 0.0 0 1 13.56 22.40
  Q 11.93 21.64 11.08 21.77
  A 0.33 0.33 0.0 0 0 10.95 22.37"
/>
<path fill="#f9c035" d="
  M 21.51 0.00
  Q 30.16 1.71 32.00 10.42
  L 32.00 21.51
  Q 30.30 30.17 21.59 32.00
  L 10.49 32.00
  Q 1.83 30.30 0.00 21.59
  L 0.00 10.49
  Q 1.70 1.85 10.42 0.00
  L 21.51 0.00
  Z
  M 10.95 22.37
  Q 12.91 23.71 15.45 23.73
  A 0.63 0.63 0.0 0 0 16.08 23.10
  L 16.08 12.88
  A 0.32 0.31 -7.8 0 0 15.68 12.58
  Q 13.32 13.23 9.70 12.29
  A 0.87 0.87 0.0 0 1 9.63 10.63
  Q 15.83 8.48 21.23 10.44
  Q 24.18 11.52 22.73 14.14
  A 1.31 1.31 0.0 0 1 22.23 14.64
  Q 19.92 15.91 17.74 15.84
  A 0.41 0.41 0.0 0 0 17.32 16.25
  L 17.32 16.57
  A 0.57 0.57 0.0 0 0 17.92 17.14
  Q 21.57 17.00 23.50 15.16
  C 26.16 12.61 23.45 9.48 20.74 8.77
  Q 15.30 7.36 9.59 9.18
  Q 6.28 10.23 8.16 13.78
  A 1.18 1.16 -5.5 0 0 8.87 14.36
  L 13.54 15.66
  A 1.11 1.08 -8.5 0 1 14.14 16.09
  L 14.45 16.56
  A 0.34 0.34 0.0 0 1 14.15 17.09
  Q 11.47 17.00 9.28 16.17
  A 0.25 0.25 0.0 0 0 9.04 16.60
  Q 11.15 18.19 13.92 18.31
  A 0.65 0.65 0.0 0 1 14.54 18.94
  L 14.50 19.20
  A 0.76 0.75 -77.9 0 1 13.55 19.82
  L 10.33 18.92
  A 0.28 0.28 0.0 0 0 9.98 19.12
  L 9.89 19.42
  A 0.09 0.08 19.7 0 0 9.94 19.52
  L 14.05 21.18
  A 0.45 0.45 0.0 0 1 14.32 21.72
  L 14.22 22.09
  A 0.48 0.48 0.0 0 1 13.56 22.40
  Q 11.93 21.64 11.08 21.77
  A 0.33 0.33 0.0 0 0 10.95 22.37
  Z"
/>
<path fill="#000107" d="
  M 11.08 21.77
  Q 11.93 21.64 13.56 22.40
  A 0.48 0.48 0.0 0 0 14.22 22.09
  L 14.32 21.72
  A 0.45 0.45 0.0 0 0 14.05 21.18
  L 9.94 19.52
  A 0.09 0.08 19.7 0 1 9.89 19.42
  L 9.98 19.12
  A 0.28 0.28 0.0 0 1 10.33 18.92
  L 13.55 19.82
  A 0.76 0.75 -77.9 0 0 14.50 19.20
  L 14.54 18.94
  A 0.65 0.65 0.0 0 0 13.92 18.31
  Q 11.15 18.19 9.04 16.60
  A 0.25 0.25 0.0 0 1 9.28 16.17
  Q 11.47 17.00 14.15 17.09
  A 0.34 0.34 0.0 0 0 14.45 16.56
  L 14.14 16.09
  A 1.11 1.08 -8.5 0 0 13.54 15.66
  L 8.87 14.36
  A 1.18 1.16 -5.5 0 1 8.16 13.78
  Q 6.28 10.23 9.59 9.18
  Q 15.30 7.36 20.74 8.77
  C 23.45 9.48 26.16 12.61 23.50 15.16
  Q 21.57 17.00 17.92 17.14
  A 0.57 0.57 0.0 0 1 17.32 16.57
  L 17.32 16.25
  A 0.41 0.41 0.0 0 1 17.74 15.84
  Q 19.92 15.91 22.23 14.64
  A 1.31 1.31 0.0 0 0 22.73 14.14
  Q 24.18 11.52 21.23 10.44
  Q 15.83 8.48 9.63 10.63
  A 0.87 0.87 0.0 0 0 9.70 12.29
  Q 13.32 13.23 15.68 12.58
  A 0.32 0.31 -7.8 0 1 16.08 12.88
  L 16.08 23.10
  A 0.63 0.63 0.0 0 1 15.45 23.73
  Q 12.91 23.71 10.95 22.37
  A 0.33 0.33 0.0 0 1 11.08 21.77
  Z"
/>
</svg>
