<?xml version="1.0" encoding="UTF-8" standalone="no"?>
<!DOCTYPE svg PUBLIC "-//W3C//DTD SVG 1.1//EN" "http://www.w3.org/Graphics/SVG/1.1/DTD/svg11.dtd">
<svg xmlns="http://www.w3.org/2000/svg" version="1.1" viewBox="0.00 0.00 400.00 400.00">
<g stroke-width="2.00" fill="none" stroke-linecap="butt">
<path stroke="#808080" vector-effect="non-scaling-stroke" d="
  M 0.00 396.10
  L 0.30 399.55
  A 0.21 0.20 86.8 0 0 0.50 399.74
  L 0.81 399.74
  A 0.06 0.06 0.0 0 0 0.87 399.68
  L 0.90 0.85
  A 0.37 0.37 0.0 0 0 0.53 0.48
  L 0.52 0.48
  A 0.36 0.36 0.0 0 0 0.16 0.84
  L 0.00 392.11"
/>
<path stroke="#808080" vector-effect="non-scaling-stroke" d="
  M 47.8387 191.4547
  A 2.44 0.36 -32.9 0 0 45.5945 192.4777
  A 2.44 0.36 -32.9 0 0 43.7413 194.1053
  A 2.44 0.36 -32.9 0 0 45.9855 193.0823
  A 2.44 0.36 -32.9 0 0 47.8387 191.4547"
/>
<path stroke="#808080" vector-effect="non-scaling-stroke" d="
  M 49.4151 191.5554
  A 0.83 0.19 -139.9 0 0 49.9276 192.2353
  A 0.83 0.19 -139.9 0 0 50.6849 192.6246
  A 0.83 0.19 -139.9 0 0 50.1724 191.9447
  A 0.83 0.19 -139.9 0 0 49.4151 191.5554"
/>
<path stroke="#808080" vector-effect="non-scaling-stroke" d="
  M 41.73 195.91
  L 42.70 195.91
  A 0.44 0.44 0.0 0 1 42.84 196.77
  L 41.80 197.14
  A 1.04 1.03 -87.9 0 0 41.19 197.71
  Q 39.85 200.74 38.73 201.47
  Q 36.17 203.15 35.89 203.99
  A 1.36 1.05 -37.5 0 0 35.82 204.25
  Q 35.75 204.67 36.40 204.70
  Q 37.10 204.74 36.96 205.55
  Q 36.83 206.32 35.49 206.22
  A 0.35 0.34 73.9 0 0 35.19 206.77
  Q 35.26 206.86 35.95 206.96
  A 0.68 0.67 11.7 0 1 36.51 207.80
  Q 36.50 207.84 36.41 207.99
  A 1.15 1.14 44.8 0 0 36.42 209.17
  Q 36.82 209.82 36.93 210.51
  A 0.71 0.71 0.0 0 1 36.49 211.29
  Q 36.32 211.35 36.17 211.40
  Q 35.80 211.53 36.46 211.96
  Q 36.87 212.23 37.02 212.73
  Q 38.04 216.11 38.00 219.98
  A 0.03 0.02 -31.7 0 1 37.99 220.00
  Q 37.88 220.03 37.73 220.07
  A 0.31 0.31 0.0 0 0 37.51 220.47
  Q 38.02 221.93 38.11 222.02
  A 0.27 0.26 -78.5 0 0 38.54 221.73
  Q 38.06 220.56 38.39 217.19
  A 5.86 5.78 44.6 0 0 38.37 215.83
  Q 37.61 210.13 37.61 209.34
  Q 37.62 207.74 38.69 203.48
  A 3.27 3.17 70.7 0 1 39.19 202.40
  L 43.86 195.86
  A 0.50 0.50 0.0 0 0 43.42 195.07
  Q 43.02 195.09 41.68 195.70
  A 0.11 0.11 0.0 0 0 41.73 195.91"
/>
<path stroke="#808080" vector-effect="non-scaling-stroke" d="
  M 49.3845 195.4813
  A 1.46 0.24 -136.3 0 0 50.2742 196.6635
  A 1.46 0.24 -136.3 0 0 51.4955 197.4987
  A 1.46 0.24 -136.3 0 0 50.6058 196.3165
  A 1.46 0.24 -136.3 0 0 49.3845 195.4813"
/>
<path stroke="#808080" vector-effect="non-scaling-stroke" d="
  M 51.81 200.84
  L 52.25 201.42
  A 0.10 0.10 0.0 0 0 52.40 201.43
  Q 52.51 201.32 52.39 201.13
  Q 52.18 200.77 51.81 200.84"
/>
<path stroke="#808080" vector-effect="non-scaling-stroke" d="
  M 51.81 200.84
  Q 49.84 198.18 47.32 196.29
  A 0.06 0.06 0.0 0 0 47.23 196.38
  Q 49.13 198.89 51.81 200.84"
/>
<path stroke="#808080" vector-effect="non-scaling-stroke" d="
  M 40.5464 196.6384
  A 1.65 0.41 -55.0 0 0 39.2641 197.7548
  A 1.65 0.41 -55.0 0 0 38.6536 199.3416
  A 1.65 0.41 -55.0 0 0 39.9359 198.2252
  A 1.65 0.41 -55.0 0 0 40.5464 196.6384"
/>
<path stroke="#808080" vector-effect="non-scaling-stroke" d="
  M 46.1795 198.3157
  A 1.63 0.22 -135.9 0 0 47.1969 199.6080
  A 1.63 0.22 -135.9 0 0 48.5205 200.5843
  A 1.63 0.22 -135.9 0 0 47.5031 199.2920
  A 1.63 0.22 -135.9 0 0 46.1795 198.3157"
/>
<path stroke="#808080" vector-effect="non-scaling-stroke" d="
  M 54.5086 198.5206
  A 1.62 0.23 -134.3 0 0 55.4754 199.8406
  A 1.62 0.23 -134.3 0 0 56.7714 200.8394
  A 1.62 0.23 -134.3 0 0 55.8046 199.5194
  A 1.62 0.23 -134.3 0 0 54.5086 198.5206"
/>
<path stroke="#808080" vector-effect="non-scaling-stroke" d="
  M 330.16 226.19
  Q 336.21 226.19 337.14 226.23
  A 0.78 0.77 -8.0 0 1 337.83 226.75
  L 339.73 232.16
  A 1.35 1.35 0.0 0 0 341.00 233.06
  L 347.28 233.06
  A 0.58 0.58 0.0 0 0 347.83 232.29
  L 336.41 199.75
  A 0.91 0.91 0.0 0 0 335.64 199.14
  Q 333.04 198.88 330.16 198.88
  Q 327.28 198.87 324.68 199.14
  A 0.91 0.91 0.0 0 0 323.91 199.75
  L 312.48 232.29
  A 0.58 0.58 0.0 0 0 313.03 233.06
  L 319.31 233.06
  A 1.35 1.35 0.0 0 0 320.58 232.16
  L 322.48 226.75
  A 0.78 0.77 8.0 0 1 323.18 226.23
  Q 324.10 226.19 330.16 226.19"
/>
<path stroke="#808080" vector-effect="non-scaling-stroke" d="
  M 97.00 199.77
  L 97.00 232.74
  A 0.32 0.32 0.0 0 0 97.32 233.06
  L 104.64 233.06
  A 0.36 0.36 0.0 0 0 105.00 232.70
  L 105.00 221.91
  A 0.59 0.59 0.0 0 1 105.59 221.32
  Q 111.09 221.40 115.16 221.32
  C 119.88 221.24 123.15 219.86 124.96 215.91
  C 127.81 209.73 125.81 200.29 117.67 199.33
  Q 111.95 198.65 97.66 199.09
  A 0.68 0.68 0.0 0 0 97.00 199.77"
/>
<path stroke="#808080" vector-effect="non-scaling-stroke" d="
  M 358.77 216.07
  Q 358.77 225.47 358.71 226.20
  A 0.78 0.77 -87.5 0 1 357.94 226.91
  L 352.90 226.91
  A 0.52 0.52 0.0 0 0 352.38 227.43
  L 352.38 232.46
  A 0.62 0.61 0.2 0 0 352.99 233.07
  Q 357.67 233.10 362.79 233.10
  Q 367.91 233.10 372.59 233.07
  A 0.62 0.61 -0.2 0 0 373.20 232.45
  L 373.20 227.42
  A 0.52 0.52 0.0 0 0 372.68 226.90
  L 367.64 226.91
  A 0.78 0.77 87.5 0 1 366.87 226.19
  Q 366.81 225.47 366.80 216.07
  Q 366.80 206.66 366.86 205.94
  A 0.78 0.77 -87.5 0 1 367.63 205.23
  L 372.67 205.23
  A 0.52 0.52 0.0 0 0 373.19 204.71
  L 373.19 199.68
  A 0.62 0.61 0.2 0 0 372.58 199.06
  Q 367.90 199.03 362.78 199.04
  Q 357.66 199.04 352.98 199.07
  A 0.62 0.61 -0.2 0 0 352.37 199.68
  L 352.37 204.71
  A 0.52 0.52 0.0 0 0 352.89 205.23
  L 357.93 205.23
  A 0.78 0.77 87.5 0 1 358.70 205.94
  Q 358.76 206.67 358.77 216.07"
/>
<path stroke="#808080" vector-effect="non-scaling-stroke" d="
  M 38.84 200.61
  A 0.42 0.23 -88.6 0 0 38.54 200.03
  Q 38.21 200.33 38.23 200.67
  Q 38.24 200.91 38.58 200.85
  Q 38.77 200.82 38.84 200.61"
/>
<path stroke="#808080" vector-effect="non-scaling-stroke" d="
  M 45.1496 200.1494
  A 0.51 0.23 -133.4 0 0 45.3329 200.6780
  A 0.51 0.23 -133.4 0 0 45.8504 200.8906
  A 0.51 0.23 -133.4 0 0 45.6671 200.3620
  A 0.51 0.23 -133.4 0 0 45.1496 200.1494"
/>
<path stroke="#808080" vector-effect="non-scaling-stroke" d="
  M 48.89 202.75
  Q 48.91 202.56 48.70 202.41
  A 0.15 0.15 0.0 0 0 48.47 202.53
  Q 48.47 202.64 48.56 202.81
  A 0.18 0.17 34.3 0 0 48.89 202.75"
/>
<path stroke="#808080" vector-effect="non-scaling-stroke" d="
  M 46.36 203.82
  Q 46.51 203.76 46.66 203.53
  A 0.15 0.15 0.0 0 0 46.48 203.30
  Q 46.24 203.39 46.14 203.55
  A 0.18 0.18 0.0 0 0 46.36 203.82"
/>
<path stroke="#808080" vector-effect="non-scaling-stroke" d="
  M 53.64 206.02
  Q 53.88 205.65 53.87 205.53
  A 0.36 0.36 0.0 0 0 53.17 205.48
  Q 53.16 205.49 53.23 205.93
  A 0.23 0.22 -32.2 0 0 53.64 206.02"
/>
<path stroke="#808080" vector-effect="non-scaling-stroke" d="
  M 59.60 205.46
  L 59.83 206.13
  A 0.56 0.55 -17.5 0 1 59.45 206.85
  Q 58.79 207.03 58.14 206.72
  A 0.73 0.72 35.8 0 0 57.35 206.84
  Q 56.73 207.40 56.20 207.48
  Q 53.81 207.85 50.00 208.61
  Q 49.55 208.70 49.36 208.34
  A 0.23 0.22 66.8 0 0 49.09 208.23
  L 46.44 209.16
  A 0.11 0.11 0.0 0 0 46.49 209.37
  L 55.94 208.46
  A 0.43 0.30 -55.3 0 0 56.02 208.43
  Q 57.65 207.61 59.28 208.02
  Q 62.22 208.76 65.90 210.49
  C 67.38 211.19 67.45 212.73 69.07 213.06
  A 0.30 0.30 0.0 0 0 69.38 212.61
  Q 68.21 210.83 67.14 210.10
  A 0.59 0.58 47.1 0 1 67.17 209.11
  Q 67.39 208.98 67.51 208.78
  A 0.30 0.30 0.0 0 0 67.11 208.36
  Q 66.91 208.48 66.87 208.88
  A 0.77 0.71 17.8 0 1 65.75 209.40
  Q 64.92 208.95 63.84 208.59
  A 0.80 0.80 0.0 0 1 63.34 207.54
  Q 63.37 207.46 63.45 207.33
  A 0.48 0.48 0.0 0 0 63.01 206.58
  Q 61.92 206.66 60.00 205.17
  A 0.26 0.26 0.0 0 0 59.60 205.46"
/>
<path stroke="#808080" vector-effect="non-scaling-stroke" d="
  M 55.65 206.13
  Q 55.75 205.66 55.69 205.56
  A 0.34 0.33 -42.5 0 0 55.12 205.54
  Q 55.10 205.57 55.18 206.12
  A 0.24 0.24 0.0 0 0 55.65 206.13"
/>
<path stroke="#808080" vector-effect="non-scaling-stroke" d="
  M 57.44 206.19
  Q 57.86 206.08 57.61 205.42
  A 0.22 0.21 35.1 0 0 57.19 205.49
  L 57.19 205.99
  A 0.21 0.20 83.3 0 0 57.44 206.19"
/>
<path stroke="#808080" vector-effect="non-scaling-stroke" d="
  M 155.95 225.28
  L 149.73 225.28
  A 0.97 0.97 0.0 0 0 148.93 225.70
  Q 146.22 229.63 141.24 228.52
  A 5.12 5.10 -8.6 0 1 137.92 226.08
  L 137.01 224.52
  A 1.46 1.45 75.1 0 1 138.27 222.34
  L 155.94 222.34
  A 0.58 0.58 0.0 0 0 156.52 221.79
  Q 156.70 218.53 155.80 215.26
  C 153.76 207.89 147.41 206.26 140.26 207.00
  C 130.22 208.02 127.11 219.39 130.78 227.18
  C 134.17 234.39 142.53 235.27 149.44 233.22
  Q 155.30 231.47 156.31 225.71
  A 0.37 0.37 0.0 0 0 155.95 225.28"
/>
<path stroke="#808080" vector-effect="non-scaling-stroke" d="
  M 204.89 214.21
  C 203.11 206.68 194.81 205.93 188.45 207.17
  C 183.98 208.05 180.97 210.69 181.11 215.50
  Q 181.28 221.43 188.20 222.59
  Q 188.33 222.61 194.64 223.44
  C 198.32 223.92 199.64 228.06 195.21 228.87
  Q 189.39 229.95 187.83 225.79
  A 1.39 1.39 0.0 0 0 186.53 224.89
  L 181.30 224.89
  A 0.74 0.74 0.0 0 0 180.57 225.78
  C 182.35 234.72 192.79 235.27 199.91 233.16
  Q 204.80 231.72 205.08 226.53
  C 205.26 223.22 204.78 219.80 201.34 218.64
  Q 197.54 217.35 191.22 216.86
  C 188.23 216.63 186.95 212.57 190.29 212.06
  Q 193.14 211.62 195.65 212.30
  A 1.39 1.37 -7.3 0 1 196.46 212.92
  Q 197.62 214.85 199.97 215.04
  Q 203.39 215.32 204.46 214.98
  A 0.65 0.64 74.6 0 0 204.89 214.21"
/>
<path stroke="#808080" vector-effect="non-scaling-stroke" d="
  M 227.10 229.48
  L 227.10 232.04
  A 0.99 0.98 90.0 0 0 228.08 233.03
  L 232.99 233.03
  A 0.91 0.91 0.0 0 0 233.90 232.11
  Q 233.82 223.00 233.82 220.16
  C 233.83 214.98 233.93 209.69 228.82 207.79
  Q 223.27 205.73 216.50 207.45
  Q 210.73 208.92 209.45 215.10
  A 0.77 0.77 0.0 0 0 210.20 216.03
  L 215.64 216.03
  A 1.55 1.54 -77.2 0 0 217.03 215.15
  Q 219.26 210.50 225.25 212.68
  A 2.31 2.13 -65.6 0 1 226.30 215.87
  Q 225.72 216.94 224.19 217.22
  Q 216.24 218.66 214.80 219.03
  C 209.18 220.47 207.24 226.27 210.36 230.85
  C 213.30 235.18 222.71 235.07 225.57 230.59
  Q 226.30 229.44 226.64 229.23
  A 0.30 0.30 0.0 0 1 227.10 229.48"
/>
<path stroke="#808080" vector-effect="non-scaling-stroke" d="
  M 239.03 208.23
  L 239.03 232.21
  A 0.86 0.85 90.0 0 0 239.88 233.07
  L 246.20 233.07
  A 0.82 0.81 89.3 0 0 247.01 232.23
  Q 246.82 226.66 247.09 219.79
  C 247.23 216.11 249.17 212.90 253.13 212.93
  C 257.54 212.97 258.02 216.51 258.02 220.30
  Q 258.03 232.12 258.02 232.20
  A 0.86 0.86 0.0 0 0 258.89 233.10
  L 264.95 233.05
  A 0.91 0.91 0.0 0 0 265.86 232.12
  Q 265.76 223.54 265.84 220.26
  C 265.99 214.20 264.92 207.34 257.52 206.83
  C 254.76 206.64 251.30 207.00 249.37 209.08
  Q 247.97 210.57 247.68 210.87
  A 0.42 0.42 0.0 0 1 246.96 210.57
  L 246.96 208.22
  A 0.79 0.78 0.0 0 0 246.17 207.44
  L 239.82 207.44
  A 0.79 0.79 0.0 0 0 239.03 208.23"
/>
<path stroke="#808080" vector-effect="non-scaling-stroke" d="
  M 288.35 229.51
  L 288.33 232.07
  A 0.99 0.98 -89.6 0 0 289.30 233.06
  L 294.20 233.10
  A 0.91 0.91 0.0 0 0 295.11 232.19
  Q 295.10 223.10 295.12 220.27
  C 295.17 215.10 295.31 209.83 290.23 207.89
  Q 284.71 205.80 277.94 207.46
  Q 272.18 208.88 270.85 215.04
  A 0.77 0.77 0.0 0 0 271.60 215.97
  L 277.02 216.01
  A 1.54 1.53 -76.7 0 0 278.41 215.15
  Q 280.67 210.52 286.63 212.74
  A 2.31 2.12 -65.1 0 1 287.65 215.93
  Q 287.07 217.00 285.54 217.26
  Q 277.60 218.64 276.16 219.00
  C 270.54 220.39 268.56 226.16 271.64 230.75
  C 274.54 235.09 283.93 235.06 286.81 230.61
  Q 287.55 229.47 287.89 229.26
  A 0.30 0.30 0.0 0 1 288.35 229.51"
/>
<path stroke="#808080" vector-effect="non-scaling-stroke" d="
  M 65.5227 207.0805
  A 0.44 0.30 -59.6 0 0 65.0412 207.3082
  A 0.44 0.30 -59.6 0 0 65.0773 207.8395
  A 0.44 0.30 -59.6 0 0 65.5588 207.6118
  A 0.44 0.30 -59.6 0 0 65.5227 207.0805"
/>
<path stroke="#808080" vector-effect="non-scaling-stroke" d="
  M 168.76 211.10
  L 168.76 208.25
  A 0.84 0.84 0.0 0 0 167.92 207.41
  L 161.87 207.41
  A 0.85 0.85 0.0 0 0 161.02 208.26
  L 161.02 232.55
  A 0.52 0.52 0.0 0 0 161.54 233.07
  L 168.43 233.07
  A 0.55 0.55 0.0 0 0 168.98 232.51
  Q 168.91 228.53 169.00 221.25
  Q 169.06 215.87 173.81 214.95
  C 174.58 214.80 176.30 214.95 177.24 214.89
  A 0.84 0.84 0.0 0 0 178.02 214.05
  L 178.02 207.59
  A 0.48 0.48 0.0 0 0 177.58 207.11
  Q 171.91 206.54 169.23 211.23
  A 0.25 0.25 0.0 0 1 168.76 211.10"
/>
<path stroke="#808080" vector-effect="non-scaling-stroke" d="
  M 34.41 208.78
  L 35.00 208.58
  A 0.16 0.16 0.0 0 0 35.04 208.30
  Q 34.71 208.07 34.22 208.42
  A 0.21 0.21 0.0 0 0 34.41 208.78"
/>
<path stroke="#808080" vector-effect="non-scaling-stroke" d="
  M 31.0421 209.8468
  A 1.39 0.28 -46.2 0 0 29.8779 210.6562
  A 1.39 0.28 -46.2 0 0 29.1179 211.8532
  A 1.39 0.28 -46.2 0 0 30.2821 211.0438
  A 1.39 0.28 -46.2 0 0 31.0421 209.8468"
/>
<path stroke="#808080" vector-effect="non-scaling-stroke" d="
  M 70.03 211.52
  Q 70.22 212.46 70.12 212.81
  A 0.30 0.30 0.0 0 0 70.68 213.03
  Q 71.06 212.30 70.87 211.35
  Q 70.68 210.41 70.04 209.88
  A 0.30 0.30 0.0 0 0 69.61 210.30
  Q 69.84 210.58 70.03 211.52"
/>
<path stroke="#808080" vector-effect="non-scaling-stroke" d="
  M 35.25 210.79
  A 0.40 0.29 15.9 0 0 34.85 210.28
  Q 34.40 210.30 34.56 210.58
  Q 34.89 211.11 35.25 210.79"
/>
<path stroke="#808080" vector-effect="non-scaling-stroke" d="
  M 72.57 215.23
  L 72.76 212.31
  A 0.08 0.08 0.0 0 0 72.68 212.22
  L 72.33 212.22
  A 0.26 0.26 0.0 0 0 72.08 212.56
  Q 72.17 212.82 72.08 213.28
  A 1.41 1.41 0.0 0 1 71.69 214.02
  L 68.36 217.38
  A 0.20 0.18 -45.0 0 0 68.35 217.65
  L 68.36 217.66
  A 0.19 0.19 0.0 0 0 68.63 217.65
  Q 70.95 215.24 71.10 215.14
  Q 71.98 214.56 72.31 215.28
  A 0.14 0.14 0.0 0 0 72.57 215.23"
/>
<path stroke="#808080" vector-effect="non-scaling-stroke" d="
  M 62.59 212.34
  Q 62.24 212.33 62.29 212.67
  A 0.20 0.20 0.0 0 0 62.67 212.71
  Q 62.71 212.60 62.69 212.42
  A 0.10 0.09 -3.2 0 0 62.59 212.34"
/>
<path stroke="#808080" vector-effect="non-scaling-stroke" d="
  M 27.1382 212.7583
  A 1.40 0.29 -45.1 0 0 25.9446 213.5453
  A 1.40 0.29 -45.1 0 0 25.1618 214.7417
  A 1.40 0.29 -45.1 0 0 26.3554 213.9547
  A 1.40 0.29 -45.1 0 0 27.1382 212.7583"
/>
<path stroke="#808080" vector-effect="non-scaling-stroke" d="
  M 66.34 213.70
  Q 66.61 213.61 66.63 213.46
  A 0.12 0.12 0.0 0 0 66.47 213.33
  Q 66.34 213.38 66.22 213.53
  A 0.11 0.11 0.0 0 0 66.34 213.70"
/>
<path stroke="#808080" vector-effect="non-scaling-stroke" d="
  M 35.33 214.95
  Q 36.05 215.08 36.61 214.78
  A 0.14 0.14 0.0 0 0 36.54 214.51
  Q 35.96 214.53 35.42 214.43
  Q 34.89 214.34 34.35 214.13
  A 0.14 0.14 0.0 0 0 34.19 214.36
  Q 34.62 214.83 35.33 214.95"
/>
<path stroke="#808080" vector-effect="non-scaling-stroke" d="
  M 68.7162 214.2935
  A 1.07 0.27 -43.5 0 0 67.7541 214.8341
  A 1.07 0.27 -43.5 0 0 67.1638 215.7665
  A 1.07 0.27 -43.5 0 0 68.1259 215.2259
  A 1.07 0.27 -43.5 0 0 68.7162 214.2935"
/>
<path stroke="#808080" vector-effect="non-scaling-stroke" d="
  M 74.2110 215.2669
  A 0.53 0.27 -116.8 0 0 74.2090 215.8617
  A 0.53 0.27 -116.8 0 0 74.6890 216.2131
  A 0.53 0.27 -116.8 0 0 74.6910 215.6183
  A 0.53 0.27 -116.8 0 0 74.2110 215.2669"
/>
<path stroke="#808080" vector-effect="non-scaling-stroke" d="
  M 39.21 234.20
  Q 39.30 234.49 39.43 234.55
  A 0.13 0.13 0.0 0 0 39.61 234.39
  Q 39.55 234.22 39.21 234.20"
/>
<path stroke="#808080" vector-effect="non-scaling-stroke" d="
  M 39.21 234.20
  L 38.54 232.14
  A 0.64 0.64 0.0 0 1 38.95 231.33
  Q 39.73 231.08 40.22 230.65
  A 0.36 0.36 0.0 0 0 39.98 230.02
  Q 34.70 230.13 30.79 227.29
  A 0.64 0.64 0.0 0 0 30.06 227.28
  Q 29.71 227.51 29.72 227.56
  A 0.09 0.09 0.0 0 1 29.55 227.62
  L 27.74 224.75
  A 1.01 1.01 0.0 0 0 26.85 224.28
  Q 26.24 224.31 25.85 223.88
  A 0.56 0.56 0.0 0 1 25.99 223.01
  C 26.90 222.51 27.71 221.66 28.37 220.62
  C 27.32 221.61 26.33 222.17 25.39 223.33
  Q 25.00 223.81 24.51 223.71
  Q 24.06 223.62 23.94 222.79
  A 1.19 1.18 -76.6 0 0 23.49 222.05
  L 21.53 220.53
  A 1.81 1.81 0.0 0 1 21.63 217.59
  Q 22.42 217.07 23.34 215.78
  A 0.13 0.13 0.0 0 0 23.16 215.60
  Q 22.77 215.91 20.57 218.17
  A 0.90 0.89 -33.3 0 0 20.37 219.11
  Q 21.02 220.84 22.11 221.91
  A 2.75 2.68 -81.2 0 1 22.63 222.64
  C 23.23 223.82 22.68 224.16 24.31 225.02
  Q 25.12 225.44 25.34 226.63
  A 0.25 0.25 0.0 0 0 25.61 226.84
  L 25.89 226.81
  A 0.24 0.24 0.0 0 0 26.11 226.54
  L 25.94 224.80
  A 0.15 0.15 0.0 0 1 26.21 224.71
  L 28.80 228.58
  A 0.37 0.35 30.6 0 1 28.87 228.82
  Q 28.81 230.02 29.74 230.31
  A 0.47 0.46 -11.7 0 0 30.24 229.57
  Q 29.84 229.12 29.92 228.51
  A 0.26 0.26 0.0 0 1 30.40 228.41
  Q 30.81 229.10 33.14 230.29
  A 0.52 0.50 6.8 0 1 33.38 230.58
  Q 33.42 230.75 33.39 230.97
  A 0.63 0.63 0.0 0 0 33.71 231.61
  Q 36.08 232.95 39.05 236.63
  A 0.27 0.26 49.2 0 0 39.44 236.66
  L 39.45 236.65
  A 0.30 0.30 0.0 0 0 39.45 236.21
  Q 36.82 233.84 35.42 231.73
  Q 35.32 231.59 35.34 231.28
  A 0.17 0.16 19.8 0 1 35.60 231.16
  L 36.48 231.78
  A 0.36 0.36 0.0 0 0 37.00 231.67
  Q 37.28 231.21 38.01 231.35
  A 0.37 0.37 0.0 0 1 38.19 231.98
  Q 37.34 232.78 38.39 233.62
  Q 38.77 233.93 39.21 234.20"
/>
<path stroke="#808080" vector-effect="non-scaling-stroke" d="
  M 59.0701 215.6435
  A 1.75 0.29 -117.2 0 0 59.6121 217.3326
  A 1.75 0.29 -117.2 0 0 60.6699 218.7565
  A 1.75 0.29 -117.2 0 0 60.1279 217.0674
  A 1.75 0.29 -117.2 0 0 59.0701 215.6435"
/>
<path stroke="#808080" vector-effect="non-scaling-stroke" d="
  M 64.77 216.26
  Q 64.51 216.17 64.38 216.32
  A 0.29 0.23 -75.5 0 0 64.59 216.78
  Q 64.66 216.75 64.84 216.50
  A 0.16 0.15 -61.6 0 0 64.77 216.26"
/>
<path stroke="#808080" vector-effect="non-scaling-stroke" d="
  M 33.6184 216.5384
  A 2.27 0.33 -140.9 0 0 35.1719 218.2261
  A 2.27 0.33 -140.9 0 0 37.1416 219.4016
  A 2.27 0.33 -140.9 0 0 35.5881 217.7139
  A 2.27 0.33 -140.9 0 0 33.6184 216.5384"
/>
<path stroke="#808080" vector-effect="non-scaling-stroke" d="
  M 75.25 217.22
  Q 75.18 217.29 75.20 217.58
  Q 75.21 217.74 75.47 217.77
  Q 75.72 217.80 75.74 217.64
  A 0.38 0.29 77.2 0 0 75.25 217.22"
/>
<path stroke="#808080" vector-effect="non-scaling-stroke" d="
  M 70.7687 218.2360
  A 3.17 0.25 -44.3 0 0 68.3254 220.2711
  A 3.17 0.25 -44.3 0 0 66.2313 222.6640
  A 3.17 0.25 -44.3 0 0 68.6746 220.6289
  A 3.17 0.25 -44.3 0 0 70.7687 218.2360"
/>
<path stroke="#808080" vector-effect="non-scaling-stroke" d="
  M 61.88 220.31
  L 64.41 222.78
  A 0.25 0.25 0.0 0 0 64.77 222.77
  Q 64.85 222.68 64.91 222.36
  A 0.24 0.24 0.0 0 0 64.65 222.08
  Q 64.06 222.12 63.70 221.61
  Q 62.71 220.16 62.18 219.89
  A 0.26 0.26 0.0 0 0 61.88 220.31"
/>
<path stroke="#808080" vector-effect="non-scaling-stroke" d="
  M 75.48 220.19
  Q 74.55 220.83 74.41 221.13
  A 0.33 0.33 0.0 0 0 74.92 221.52
  Q 75.70 220.87 75.83 220.44
  A 0.23 0.23 0.0 0 0 75.48 220.19"
/>
<path stroke="#808080" vector-effect="non-scaling-stroke" d="
  M 71.4003 220.6209
  A 2.92 0.24 -45.4 0 0 69.1791 222.5315
  A 2.92 0.24 -45.4 0 0 67.2997 224.7791
  A 2.92 0.24 -45.4 0 0 69.5209 222.8685
  A 2.92 0.24 -45.4 0 0 71.4003 220.6209"
/>
<path stroke="#808080" vector-effect="non-scaling-stroke" d="
  M 60.27 232.09
  Q 60.23 231.41 60.83 231.06
  Q 62.64 230.02 63.52 228.71
  A 0.25 0.25 0.0 0 0 63.45 228.36
  L 63.44 228.36
  A 0.22 0.22 0.0 0 0 63.13 228.43
  Q 62.49 229.45 61.37 229.84
  A 0.86 0.81 80.7 0 1 60.28 229.01
  Q 60.29 227.31 59.49 226.30
  A 1.05 1.04 -63.2 0 1 59.26 225.59
  Q 59.33 224.52 59.99 223.22
  A 0.83 0.82 -58.6 0 1 61.20 222.92
  L 62.13 223.59
  A 0.32 0.32 0.0 0 0 62.55 223.12
  Q 61.90 222.40 60.60 221.78
  A 0.79 0.79 0.0 0 0 59.63 222.04
  Q 57.90 224.46 58.95 225.85
  A 0.50 0.48 -65.1 0 1 59.05 226.15
  L 59.05 232.30
  A 0.85 0.84 69.4 0 1 58.77 232.93
  Q 57.88 233.71 57.55 235.18
  A 1.32 1.31 -13.3 0 1 57.09 235.92
  Q 56.25 236.63 55.52 238.16
  A 1.41 1.12 -76.2 0 0 56.44 240.16
  Q 58.28 240.01 59.48 238.19
  Q 62.29 233.97 60.72 234.58
  A 0.25 0.17 -73.2 0 0 60.63 234.65
  L 59.07 236.61
  A 0.28 0.28 0.0 0 1 58.58 236.38
  Q 59.18 233.48 61.32 232.87
  Q 61.63 232.78 61.67 232.66
  Q 61.86 232.02 61.42 231.85
  A 0.29 0.28 -52.6 0 0 61.14 231.89
  L 60.64 232.27
  A 0.24 0.23 69.9 0 1 60.27 232.09"
/>
<path stroke="#808080" vector-effect="non-scaling-stroke" d="
  M 71.21 223.52
  Q 70.17 224.32 70.03 224.57
  A 0.23 0.22 -86.4 0 0 70.31 224.89
  Q 70.98 224.60 71.50 223.78
  A 0.20 0.20 0.0 0 0 71.21 223.52"
/>
<path stroke="#808080" vector-effect="non-scaling-stroke" d="
  M 61.1546 225.5001
  A 0.89 0.32 -174.2 0 0 62.0077 225.9084
  A 0.89 0.32 -174.2 0 0 62.9254 225.6799
  A 0.89 0.32 -174.2 0 0 62.0723 225.2716
  A 0.89 0.32 -174.2 0 0 61.1546 225.5001"
/>
<path stroke="#808080" vector-effect="non-scaling-stroke" d="
  M 67.9920 226.0286
  A 1.82 0.25 -46.1 0 0 66.5499 227.1666
  A 1.82 0.25 -46.1 0 0 65.4680 228.6514
  A 1.82 0.25 -46.1 0 0 66.9101 227.5134
  A 1.82 0.25 -46.1 0 0 67.9920 226.0286"
/>
<path stroke="#808080" vector-effect="non-scaling-stroke" d="
  M 63.24 226.67
  Q 63.47 226.73 63.59 226.61
  A 0.15 0.15 0.0 0 0 63.57 226.38
  Q 63.40 226.25 63.22 226.32
  A 0.19 0.18 42.0 0 0 63.24 226.67"
/>
<path stroke="#808080" vector-effect="non-scaling-stroke" d="
  M 61.57 227.39
  A 0.18 0.18 0.0 0 0 61.60 227.73
  Q 62.73 227.90 62.68 227.34
  A 0.27 0.26 -12.2 0 0 62.33 227.12
  L 61.57 227.39"
/>
<path stroke="#808080" vector-effect="non-scaling-stroke" d="
  M 45.94 229.66
  Q 42.53 229.33 41.06 229.85
  A 0.40 0.40 0.0 0 0 40.80 230.29
  Q 40.85 230.67 41.18 230.80
  A 0.51 0.48 33.6 0 0 41.69 230.71
  Q 42.86 229.63 44.90 230.37
  A 0.73 0.72 -66.2 0 1 45.29 231.39
  L 44.27 233.32
  A 0.27 0.26 41.1 0 0 44.29 233.59
  L 44.30 233.60
  A 0.19 0.18 42.6 0 0 44.55 233.59
  Q 46.00 232.13 46.29 230.11
  A 0.39 0.39 0.0 0 0 45.94 229.66"
/>
<path stroke="#808080" vector-effect="non-scaling-stroke" d="
  M 54.48 229.48
  C 51.24 229.78 48.40 231.79 46.48 234.24
  A 0.18 0.17 41.1 0 0 46.50 234.47
  A 0.21 0.21 0.0 0 0 46.75 234.46
  L 51.02 230.83
  A 1.70 1.66 -70.9 0 1 51.72 230.48
  Q 54.45 229.85 54.58 229.78
  A 0.16 0.16 0.0 0 0 54.48 229.48"
/>
<path stroke="#808080" vector-effect="non-scaling-stroke" d="
  M 31.84 231.22
  Q 32.13 230.84 31.49 230.10
  A 0.40 0.39 14.0 0 0 30.82 230.50
  Q 30.86 230.61 31.22 231.19
  A 0.38 0.37 47.6 0 0 31.84 231.22"
/>
<path stroke="#808080" vector-effect="non-scaling-stroke" d="
  M 55.02 231.87
  Q 55.19 231.84 55.41 231.59
  A 0.20 0.19 14.7 0 0 55.22 231.27
  Q 54.80 231.36 54.79 231.37
  A 0.29 0.28 -69.9 0 0 55.02 231.87"
/>
<path stroke="#808080" vector-effect="non-scaling-stroke" d="
  M 40.38 231.56
  Q 40.03 232.84 40.22 233.23
  A 0.26 0.26 0.0 0 0 40.72 233.11
  L 40.72 231.61
  A 0.17 0.17 0.0 0 0 40.38 231.56"
/>
<path stroke="#808080" vector-effect="non-scaling-stroke" d="
  M 42.32 231.71
  L 42.32 232.60
  A 0.15 0.15 0.0 0 0 42.62 232.64
  Q 42.84 231.81 42.44 231.64
  A 0.09 0.08 12.3 0 0 42.32 231.71"
/>
<path stroke="#808080" vector-effect="non-scaling-stroke" d="
  M 57.91 232.58
  Q 57.76 232.38 57.74 232.37
  A 0.09 0.09 0.0 0 0 57.62 232.49
  Q 57.68 232.63 57.86 232.66
  A 0.05 0.05 0.0 0 0 57.91 232.58"
/>
<path stroke="#808080" vector-effect="non-scaling-stroke" d="
  M 55.01 233.65
  A 0.32 0.25 -32.8 0 0 55.55 233.70
  Q 55.77 233.40 55.62 233.27
  A 0.22 0.20 57.2 0 0 55.47 233.23
  Q 55.00 233.28 55.01 233.65"
/>
<path stroke="#808080" vector-effect="non-scaling-stroke" d="
  M 41.47 234.83
  Q 41.78 234.59 41.74 234.37
  A 0.32 0.25 -46.4 0 0 41.20 234.45
  Q 41.17 234.54 41.24 234.76
  A 0.15 0.15 0.0 0 0 41.47 234.83"
/>
<path stroke="#808080" vector-effect="non-scaling-stroke" d="
  M 42.63 235.25
  Q 42.52 235.26 42.36 235.39
  A 0.14 0.13 -36.9 0 0 42.33 235.57
  Q 42.44 235.73 42.74 235.50
  A 0.14 0.14 0.0 0 0 42.63 235.25"
/>
<path stroke="#808080" vector-effect="non-scaling-stroke" d="
  M 52.61 236.44
  Q 52.61 236.42 52.43 236.19
  A 0.37 0.31 76.1 0 0 52.29 236.09
  Q 51.81 235.95 52.11 236.60
  A 0.27 0.26 27.0 0 0 52.61 236.44"
/>
<path stroke="#808080" vector-effect="non-scaling-stroke" d="
  M 49.33 236.79
  Q 49.33 236.80 49.94 237.48
  A 0.29 0.29 0.0 0 0 50.44 237.26
  Q 50.42 237.16 49.71 236.54
  A 0.24 0.24 0.0 0 0 49.33 236.79"
/>
<path stroke="#808080" vector-effect="non-scaling-stroke" d="
  M 46.65 237.01
  Q 47.03 237.68 47.10 237.74
  A 0.33 0.33 0.0 0 0 47.61 237.37
  Q 47.53 237.12 46.95 236.74
  A 0.21 0.20 2.1 0 0 46.65 237.01"
/>
<path stroke="#808080" vector-effect="non-scaling-stroke" d="
  M 47.29 243.64
  L 49.64 245.99
  A 0.54 0.54 0.0 0 0 50.16 246.13
  Q 54.14 245.12 56.02 241.70
  A 0.38 0.38 0.0 0 0 55.43 241.24
  Q 55.25 241.42 54.76 242.18
  A 0.43 0.43 0.0 0 1 54.08 242.24
  Q 53.91 242.05 53.99 241.49
  A 0.45 0.43 -11.7 0 1 54.21 241.17
  Q 54.83 240.84 55.09 240.64
  A 0.37 0.37 0.0 0 0 55.09 240.04
  L 54.80 239.83
  A 0.36 0.36 0.0 0 0 54.26 239.99
  Q 53.73 241.34 52.78 241.74
  A 0.53 0.53 0.0 0 0 52.50 242.43
  Q 52.71 242.96 53.74 242.79
  A 0.36 0.35 -0.6 0 1 54.15 243.19
  Q 54.07 243.78 53.82 243.85
  Q 52.22 244.30 50.32 245.10
  A 1.28 1.27 -24.6 0 1 48.68 244.50
  Q 48.39 243.90 47.54 243.34
  A 0.20 0.20 0.0 0 0 47.29 243.64"
/>
<path stroke="#808080" vector-effect="non-scaling-stroke" d="
  M 44.3205 243.3085
  A 1.62 0.25 -134.7 0 0 45.2823 244.6358
  A 1.62 0.25 -134.7 0 0 46.5995 245.6115
  A 1.62 0.25 -134.7 0 0 45.6377 244.2842
  A 1.62 0.25 -134.7 0 0 44.3205 243.3085"
/>
<path stroke="#808080" vector-effect="non-scaling-stroke" d="
  M 325.02 219.31
  A 0.51 0.51 0.0 0 0 325.50 219.99
  L 334.71 220.06
  A 0.51 0.51 0.0 0 0 335.20 219.38
  L 330.68 206.20
  A 0.51 0.51 0.0 0 0 329.72 206.20
  L 325.02 219.31"
/>
<path stroke="#808080" vector-effect="non-scaling-stroke" d="
  M 105.01 205.97
  L 104.89 214.07
  A 1.00 1.00 0.0 0 0 105.87 215.08
  L 112.78 215.19
  A 5.11 4.80 0.9 0 0 117.97 210.47
  L 117.97 209.97
  A 5.11 4.80 0.9 0 0 112.94 205.09
  L 106.03 204.98
  A 1.00 1.00 0.0 0 0 105.01 205.97"
/>
<path stroke="#808080" vector-effect="non-scaling-stroke" d="
  M 61.90 207.35
  A 0.31 0.31 0.0 0 0 61.59 207.04
  A 0.31 0.31 0.0 0 0 61.28 207.35
  A 0.31 0.31 0.0 0 0 61.59 207.66
  A 0.31 0.31 0.0 0 0 61.90 207.35"
/>
<path stroke="#808080" vector-effect="non-scaling-stroke" d="
  M 137.35 217.84
  L 148.93 217.82
  A 0.24 0.24 0.0 0 0 149.16 217.58
  L 149.16 217.44
  A 5.47 5.40 -0.1 0 0 143.68 212.05
  L 142.56 212.05
  A 5.47 5.40 -0.1 0 0 137.10 217.46
  L 137.10 217.60
  A 0.24 0.24 0.0 0 0 137.35 217.84"
/>
<path stroke="#808080" vector-effect="non-scaling-stroke" d="
  M 226.03 220.46
  Q 223.91 221.30 220.55 222.09
  C 217.95 222.71 216.00 223.98 216.78 226.72
  A 2.74 2.36 -3.9 0 0 219.10 228.46
  C 224.50 228.92 225.85 225.82 226.58 220.90
  A 0.41 0.40 83.3 0 0 226.03 220.46"
/>
<path stroke="#808080" vector-effect="non-scaling-stroke" d="
  M 287.43 220.44
  L 280.03 222.68
  A 2.78 2.78 0.0 0 0 278.31 226.52
  L 278.42 226.76
  A 3.59 3.59 0.0 0 0 282.61 228.49
  Q 288.04 226.87 287.92 220.80
  A 0.38 0.38 0.0 0 0 287.43 220.44"
/>
<path stroke="#808080" vector-effect="non-scaling-stroke" d="
  M 58.6231 237.9979
  A 1.45 0.60 -16.1 0 0 57.0636 237.8235
  A 1.45 0.60 -16.1 0 0 55.8369 238.8021
  A 1.45 0.60 -16.1 0 0 57.3964 238.9765
  A 1.45 0.60 -16.1 0 0 58.6231 237.9979"
/>
</g>
<path fill="#000000" d="
  M 400.00 0.00
  L 400.00 400.00
  L 0.00 400.00
  L 0.00 396.10
  L 0.30 399.55
  A 0.21 0.20 86.8 0 0 0.50 399.74
  L 0.81 399.74
  A 0.06 0.06 0.0 0 0 0.87 399.68
  L 0.90 0.85
  A 0.37 0.37 0.0 0 0 0.53 0.48
  L 0.52 0.48
  A 0.36 0.36 0.0 0 0 0.16 0.84
  L 0.00 392.11
  L 0.00 0.00
  L 400.00 0.00
  Z
  M 47.8387 191.4547
  A 2.44 0.36 -32.9 0 0 45.5945 192.4777
  A 2.44 0.36 -32.9 0 0 43.7413 194.1053
  A 2.44 0.36 -32.9 0 0 45.9855 193.0823
  A 2.44 0.36 -32.9 0 0 47.8387 191.4547
  Z
  M 49.4151 191.5554
  A 0.83 0.19 -139.9 0 0 49.9276 192.2353
  A 0.83 0.19 -139.9 0 0 50.6849 192.6246
  A 0.83 0.19 -139.9 0 0 50.1724 191.9447
  A 0.83 0.19 -139.9 0 0 49.4151 191.5554
  Z
  M 41.73 195.91
  L 42.70 195.91
  A 0.44 0.44 0.0 0 1 42.84 196.77
  L 41.80 197.14
  A 1.04 1.03 -87.9 0 0 41.19 197.71
  Q 39.85 200.74 38.73 201.47
  Q 36.17 203.15 35.89 203.99
  A 1.36 1.05 -37.5 0 0 35.82 204.25
  Q 35.75 204.67 36.40 204.70
  Q 37.10 204.74 36.96 205.55
  Q 36.83 206.32 35.49 206.22
  A 0.35 0.34 73.9 0 0 35.19 206.77
  Q 35.26 206.86 35.95 206.96
  A 0.68 0.67 11.7 0 1 36.51 207.80
  Q 36.50 207.84 36.41 207.99
  A 1.15 1.14 44.8 0 0 36.42 209.17
  Q 36.82 209.82 36.93 210.51
  A 0.71 0.71 0.0 0 1 36.49 211.29
  Q 36.32 211.35 36.17 211.40
  Q 35.80 211.53 36.46 211.96
  Q 36.87 212.23 37.02 212.73
  Q 38.04 216.11 38.00 219.98
  A 0.03 0.02 -31.7 0 1 37.99 220.00
  Q 37.88 220.03 37.73 220.07
  A 0.31 0.31 0.0 0 0 37.51 220.47
  Q 38.02 221.93 38.11 222.02
  A 0.27 0.26 -78.5 0 0 38.54 221.73
  Q 38.06 220.56 38.39 217.19
  A 5.86 5.78 44.6 0 0 38.37 215.83
  Q 37.61 210.13 37.61 209.34
  Q 37.62 207.74 38.69 203.48
  A 3.27 3.17 70.7 0 1 39.19 202.40
  L 43.86 195.86
  A 0.50 0.50 0.0 0 0 43.42 195.07
  Q 43.02 195.09 41.68 195.70
  A 0.11 0.11 0.0 0 0 41.73 195.91
  Z
  M 49.3845 195.4813
  A 1.46 0.24 -136.3 0 0 50.2742 196.6635
  A 1.46 0.24 -136.3 0 0 51.4955 197.4987
  A 1.46 0.24 -136.3 0 0 50.6058 196.3165
  A 1.46 0.24 -136.3 0 0 49.3845 195.4813
  Z
  M 51.81 200.84
  L 52.25 201.42
  A 0.10 0.10 0.0 0 0 52.40 201.43
  Q 52.51 201.32 52.39 201.13
  Q 52.18 200.77 51.81 200.84
  Q 49.84 198.18 47.32 196.29
  A 0.06 0.06 0.0 0 0 47.23 196.38
  Q 49.13 198.89 51.81 200.84
  Z
  M 40.5464 196.6384
  A 1.65 0.41 -55.0 0 0 39.2641 197.7548
  A 1.65 0.41 -55.0 0 0 38.6536 199.3416
  A 1.65 0.41 -55.0 0 0 39.9359 198.2252
  A 1.65 0.41 -55.0 0 0 40.5464 196.6384
  Z
  M 46.1795 198.3157
  A 1.63 0.22 -135.9 0 0 47.1969 199.6080
  A 1.63 0.22 -135.9 0 0 48.5205 200.5843
  A 1.63 0.22 -135.9 0 0 47.5031 199.2920
  A 1.63 0.22 -135.9 0 0 46.1795 198.3157
  Z
  M 54.5086 198.5206
  A 1.62 0.23 -134.3 0 0 55.4754 199.8406
  A 1.62 0.23 -134.3 0 0 56.7714 200.8394
  A 1.62 0.23 -134.3 0 0 55.8046 199.5194
  A 1.62 0.23 -134.3 0 0 54.5086 198.5206
  Z
  M 330.16 226.19
  Q 336.21 226.19 337.14 226.23
  A 0.78 0.77 -8.0 0 1 337.83 226.75
  L 339.73 232.16
  A 1.35 1.35 0.0 0 0 341.00 233.06
  L 347.28 233.06
  A 0.58 0.58 0.0 0 0 347.83 232.29
  L 336.41 199.75
  A 0.91 0.91 0.0 0 0 335.64 199.14
  Q 333.04 198.88 330.16 198.88
  Q 327.28 198.87 324.68 199.14
  A 0.91 0.91 0.0 0 0 323.91 199.75
  L 312.48 232.29
  A 0.58 0.58 0.0 0 0 313.03 233.06
  L 319.31 233.06
  A 1.35 1.35 0.0 0 0 320.58 232.16
  L 322.48 226.75
  A 0.78 0.77 8.0 0 1 323.18 226.23
  Q 324.10 226.19 330.16 226.19
  Z
  M 97.00 199.77
  L 97.00 232.74
  A 0.32 0.32 0.0 0 0 97.32 233.06
  L 104.64 233.06
  A 0.36 0.36 0.0 0 0 105.00 232.70
  L 105.00 221.91
  A 0.59 0.59 0.0 0 1 105.59 221.32
  Q 111.09 221.40 115.16 221.32
  C 119.88 221.24 123.15 219.86 124.96 215.91
  C 127.81 209.73 125.81 200.29 117.67 199.33
  Q 111.95 198.65 97.66 199.09
  A 0.68 0.68 0.0 0 0 97.00 199.77
  Z
  M 358.77 216.07
  Q 358.77 225.47 358.71 226.20
  A 0.78 0.77 -87.5 0 1 357.94 226.91
  L 352.90 226.91
  A 0.52 0.52 0.0 0 0 352.38 227.43
  L 352.38 232.46
  A 0.62 0.61 0.2 0 0 352.99 233.07
  Q 357.67 233.10 362.79 233.10
  Q 367.91 233.10 372.59 233.07
  A 0.62 0.61 -0.2 0 0 373.20 232.45
  L 373.20 227.42
  A 0.52 0.52 0.0 0 0 372.68 226.90
  L 367.64 226.91
  A 0.78 0.77 87.5 0 1 366.87 226.19
  Q 366.81 225.47 366.80 216.07
  Q 366.80 206.66 366.86 205.94
  A 0.78 0.77 -87.5 0 1 367.63 205.23
  L 372.67 205.23
  A 0.52 0.52 0.0 0 0 373.19 204.71
  L 373.19 199.68
  A 0.62 0.61 0.2 0 0 372.58 199.06
  Q 367.90 199.03 362.78 199.04
  Q 357.66 199.04 352.98 199.07
  A 0.62 0.61 -0.2 0 0 352.37 199.68
  L 352.37 204.71
  A 0.52 0.52 0.0 0 0 352.89 205.23
  L 357.93 205.23
  A 0.78 0.77 87.5 0 1 358.70 205.94
  Q 358.76 206.67 358.77 216.07
  Z
  M 38.84 200.61
  A 0.42 0.23 -88.6 0 0 38.54 200.03
  Q 38.21 200.33 38.23 200.67
  Q 38.24 200.91 38.58 200.85
  Q 38.77 200.82 38.84 200.61
  Z
  M 45.1496 200.1494
  A 0.51 0.23 -133.4 0 0 45.3329 200.6780
  A 0.51 0.23 -133.4 0 0 45.8504 200.8906
  A 0.51 0.23 -133.4 0 0 45.6671 200.3620
  A 0.51 0.23 -133.4 0 0 45.1496 200.1494
  Z
  M 48.89 202.75
  Q 48.91 202.56 48.70 202.41
  A 0.15 0.15 0.0 0 0 48.47 202.53
  Q 48.47 202.64 48.56 202.81
  A 0.18 0.17 34.3 0 0 48.89 202.75
  Z
  M 46.36 203.82
  Q 46.51 203.76 46.66 203.53
  A 0.15 0.15 0.0 0 0 46.48 203.30
  Q 46.24 203.39 46.14 203.55
  A 0.18 0.18 0.0 0 0 46.36 203.82
  Z
  M 53.64 206.02
  Q 53.88 205.65 53.87 205.53
  A 0.36 0.36 0.0 0 0 53.17 205.48
  Q 53.16 205.49 53.23 205.93
  A 0.23 0.22 -32.2 0 0 53.64 206.02
  Z
  M 59.60 205.46
  L 59.83 206.13
  A 0.56 0.55 -17.5 0 1 59.45 206.85
  Q 58.79 207.03 58.14 206.72
  A 0.73 0.72 35.8 0 0 57.35 206.84
  Q 56.73 207.40 56.20 207.48
  Q 53.81 207.85 50.00 208.61
  Q 49.55 208.70 49.36 208.34
  A 0.23 0.22 66.8 0 0 49.09 208.23
  L 46.44 209.16
  A 0.11 0.11 0.0 0 0 46.49 209.37
  L 55.94 208.46
  A 0.43 0.30 -55.3 0 0 56.02 208.43
  Q 57.65 207.61 59.28 208.02
  Q 62.22 208.76 65.90 210.49
  C 67.38 211.19 67.45 212.73 69.07 213.06
  A 0.30 0.30 0.0 0 0 69.38 212.61
  Q 68.21 210.83 67.14 210.10
  A 0.59 0.58 47.1 0 1 67.17 209.11
  Q 67.39 208.98 67.51 208.78
  A 0.30 0.30 0.0 0 0 67.11 208.36
  Q 66.91 208.48 66.87 208.88
  A 0.77 0.71 17.8 0 1 65.75 209.40
  Q 64.92 208.95 63.84 208.59
  A 0.80 0.80 0.0 0 1 63.34 207.54
  Q 63.37 207.46 63.45 207.33
  A 0.48 0.48 0.0 0 0 63.01 206.58
  Q 61.92 206.66 60.00 205.17
  A 0.26 0.26 0.0 0 0 59.60 205.46
  Z
  M 55.65 206.13
  Q 55.75 205.66 55.69 205.56
  A 0.34 0.33 -42.5 0 0 55.12 205.54
  Q 55.10 205.57 55.18 206.12
  A 0.24 0.24 0.0 0 0 55.65 206.13
  Z
  M 57.44 206.19
  Q 57.86 206.08 57.61 205.42
  A 0.22 0.21 35.1 0 0 57.19 205.49
  L 57.19 205.99
  A 0.21 0.20 83.3 0 0 57.44 206.19
  Z
  M 155.95 225.28
  L 149.73 225.28
  A 0.97 0.97 0.0 0 0 148.93 225.70
  Q 146.22 229.63 141.24 228.52
  A 5.12 5.10 -8.6 0 1 137.92 226.08
  L 137.01 224.52
  A 1.46 1.45 75.1 0 1 138.27 222.34
  L 155.94 222.34
  A 0.58 0.58 0.0 0 0 156.52 221.79
  Q 156.70 218.53 155.80 215.26
  C 153.76 207.89 147.41 206.26 140.26 207.00
  C 130.22 208.02 127.11 219.39 130.78 227.18
  C 134.17 234.39 142.53 235.27 149.44 233.22
  Q 155.30 231.47 156.31 225.71
  A 0.37 0.37 0.0 0 0 155.95 225.28
  Z
  M 204.89 214.21
  C 203.11 206.68 194.81 205.93 188.45 207.17
  C 183.98 208.05 180.97 210.69 181.11 215.50
  Q 181.28 221.43 188.20 222.59
  Q 188.33 222.61 194.64 223.44
  C 198.32 223.92 199.64 228.06 195.21 228.87
  Q 189.39 229.95 187.83 225.79
  A 1.39 1.39 0.0 0 0 186.53 224.89
  L 181.30 224.89
  A 0.74 0.74 0.0 0 0 180.57 225.78
  C 182.35 234.72 192.79 235.27 199.91 233.16
  Q 204.80 231.72 205.08 226.53
  C 205.26 223.22 204.78 219.80 201.34 218.64
  Q 197.54 217.35 191.22 216.86
  C 188.23 216.63 186.95 212.57 190.29 212.06
  Q 193.14 211.62 195.65 212.30
  A 1.39 1.37 -7.3 0 1 196.46 212.92
  Q 197.62 214.85 199.97 215.04
  Q 203.39 215.32 204.46 214.98
  A 0.65 0.64 74.6 0 0 204.89 214.21
  Z
  M 227.10 229.48
  L 227.10 232.04
  A 0.99 0.98 90.0 0 0 228.08 233.03
  L 232.99 233.03
  A 0.91 0.91 0.0 0 0 233.90 232.11
  Q 233.82 223.00 233.82 220.16
  C 233.83 214.98 233.93 209.69 228.82 207.79
  Q 223.27 205.73 216.50 207.45
  Q 210.73 208.92 209.45 215.10
  A 0.77 0.77 0.0 0 0 210.20 216.03
  L 215.64 216.03
  A 1.55 1.54 -77.2 0 0 217.03 215.15
  Q 219.26 210.50 225.25 212.68
  A 2.31 2.13 -65.6 0 1 226.30 215.87
  Q 225.72 216.94 224.19 217.22
  Q 216.24 218.66 214.80 219.03
  C 209.18 220.47 207.24 226.27 210.36 230.85
  C 213.30 235.18 222.71 235.07 225.57 230.59
  Q 226.30 229.44 226.64 229.23
  A 0.30 0.30 0.0 0 1 227.10 229.48
  Z
  M 239.03 208.23
  L 239.03 232.21
  A 0.86 0.85 90.0 0 0 239.88 233.07
  L 246.20 233.07
  A 0.82 0.81 89.3 0 0 247.01 232.23
  Q 246.82 226.66 247.09 219.79
  C 247.23 216.11 249.17 212.90 253.13 212.93
  C 257.54 212.97 258.02 216.51 258.02 220.30
  Q 258.03 232.12 258.02 232.20
  A 0.86 0.86 0.0 0 0 258.89 233.10
  L 264.95 233.05
  A 0.91 0.91 0.0 0 0 265.86 232.12
  Q 265.76 223.54 265.84 220.26
  C 265.99 214.20 264.92 207.34 257.52 206.83
  C 254.76 206.64 251.30 207.00 249.37 209.08
  Q 247.97 210.57 247.68 210.87
  A 0.42 0.42 0.0 0 1 246.96 210.57
  L 246.96 208.22
  A 0.79 0.78 0.0 0 0 246.17 207.44
  L 239.82 207.44
  A 0.79 0.79 0.0 0 0 239.03 208.23
  Z
  M 288.35 229.51
  L 288.33 232.07
  A 0.99 0.98 -89.6 0 0 289.30 233.06
  L 294.20 233.10
  A 0.91 0.91 0.0 0 0 295.11 232.19
  Q 295.10 223.10 295.12 220.27
  C 295.17 215.10 295.31 209.83 290.23 207.89
  Q 284.71 205.80 277.94 207.46
  Q 272.18 208.88 270.85 215.04
  A 0.77 0.77 0.0 0 0 271.60 215.97
  L 277.02 216.01
  A 1.54 1.53 -76.7 0 0 278.41 215.15
  Q 280.67 210.52 286.63 212.74
  A 2.31 2.12 -65.1 0 1 287.65 215.93
  Q 287.07 217.00 285.54 217.26
  Q 277.60 218.64 276.16 219.00
  C 270.54 220.39 268.56 226.16 271.64 230.75
  C 274.54 235.09 283.93 235.06 286.81 230.61
  Q 287.55 229.47 287.89 229.26
  A 0.30 0.30 0.0 0 1 288.35 229.51
  Z
  M 65.5227 207.0805
  A 0.44 0.30 -59.6 0 0 65.0412 207.3082
  A 0.44 0.30 -59.6 0 0 65.0773 207.8395
  A 0.44 0.30 -59.6 0 0 65.5588 207.6118
  A 0.44 0.30 -59.6 0 0 65.5227 207.0805
  Z
  M 168.76 211.10
  L 168.76 208.25
  A 0.84 0.84 0.0 0 0 167.92 207.41
  L 161.87 207.41
  A 0.85 0.85 0.0 0 0 161.02 208.26
  L 161.02 232.55
  A 0.52 0.52 0.0 0 0 161.54 233.07
  L 168.43 233.07
  A 0.55 0.55 0.0 0 0 168.98 232.51
  Q 168.91 228.53 169.00 221.25
  Q 169.06 215.87 173.81 214.95
  C 174.58 214.80 176.30 214.95 177.24 214.89
  A 0.84 0.84 0.0 0 0 178.02 214.05
  L 178.02 207.59
  A 0.48 0.48 0.0 0 0 177.58 207.11
  Q 171.91 206.54 169.23 211.23
  A 0.25 0.25 0.0 0 1 168.76 211.10
  Z
  M 34.41 208.78
  L 35.00 208.58
  A 0.16 0.16 0.0 0 0 35.04 208.30
  Q 34.71 208.07 34.22 208.42
  A 0.21 0.21 0.0 0 0 34.41 208.78
  Z
  M 31.0421 209.8468
  A 1.39 0.28 -46.2 0 0 29.8779 210.6562
  A 1.39 0.28 -46.2 0 0 29.1179 211.8532
  A 1.39 0.28 -46.2 0 0 30.2821 211.0438
  A 1.39 0.28 -46.2 0 0 31.0421 209.8468
  Z
  M 70.03 211.52
  Q 70.22 212.46 70.12 212.81
  A 0.30 0.30 0.0 0 0 70.68 213.03
  Q 71.06 212.30 70.87 211.35
  Q 70.68 210.41 70.04 209.88
  A 0.30 0.30 0.0 0 0 69.61 210.30
  Q 69.84 210.58 70.03 211.52
  Z
  M 35.25 210.79
  A 0.40 0.29 15.9 0 0 34.85 210.28
  Q 34.40 210.30 34.56 210.58
  Q 34.89 211.11 35.25 210.79
  Z
  M 72.57 215.23
  L 72.76 212.31
  A 0.08 0.08 0.0 0 0 72.68 212.22
  L 72.33 212.22
  A 0.26 0.26 0.0 0 0 72.08 212.56
  Q 72.17 212.82 72.08 213.28
  A 1.41 1.41 0.0 0 1 71.69 214.02
  L 68.36 217.38
  A 0.20 0.18 -45.0 0 0 68.35 217.65
  L 68.36 217.66
  A 0.19 0.19 0.0 0 0 68.63 217.65
  Q 70.95 215.24 71.10 215.14
  Q 71.98 214.56 72.31 215.28
  A 0.14 0.14 0.0 0 0 72.57 215.23
  Z
  M 62.59 212.34
  Q 62.24 212.33 62.29 212.67
  A 0.20 0.20 0.0 0 0 62.67 212.71
  Q 62.71 212.60 62.69 212.42
  A 0.10 0.09 -3.2 0 0 62.59 212.34
  Z
  M 27.1382 212.7583
  A 1.40 0.29 -45.1 0 0 25.9446 213.5453
  A 1.40 0.29 -45.1 0 0 25.1618 214.7417
  A 1.40 0.29 -45.1 0 0 26.3554 213.9547
  A 1.40 0.29 -45.1 0 0 27.1382 212.7583
  Z
  M 66.34 213.70
  Q 66.61 213.61 66.63 213.46
  A 0.12 0.12 0.0 0 0 66.47 213.33
  Q 66.34 213.38 66.22 213.53
  A 0.11 0.11 0.0 0 0 66.34 213.70
  Z
  M 35.33 214.95
  Q 36.05 215.08 36.61 214.78
  A 0.14 0.14 0.0 0 0 36.54 214.51
  Q 35.96 214.53 35.42 214.43
  Q 34.89 214.34 34.35 214.13
  A 0.14 0.14 0.0 0 0 34.19 214.36
  Q 34.62 214.83 35.33 214.95
  Z
  M 68.7162 214.2935
  A 1.07 0.27 -43.5 0 0 67.7541 214.8341
  A 1.07 0.27 -43.5 0 0 67.1638 215.7665
  A 1.07 0.27 -43.5 0 0 68.1259 215.2259
  A 1.07 0.27 -43.5 0 0 68.7162 214.2935
  Z
  M 74.2110 215.2669
  A 0.53 0.27 -116.8 0 0 74.2090 215.8617
  A 0.53 0.27 -116.8 0 0 74.6890 216.2131
  A 0.53 0.27 -116.8 0 0 74.6910 215.6183
  A 0.53 0.27 -116.8 0 0 74.2110 215.2669
  Z
  M 39.21 234.20
  Q 39.30 234.49 39.43 234.55
  A 0.13 0.13 0.0 0 0 39.61 234.39
  Q 39.55 234.22 39.21 234.20
  L 38.54 232.14
  A 0.64 0.64 0.0 0 1 38.95 231.33
  Q 39.73 231.08 40.22 230.65
  A 0.36 0.36 0.0 0 0 39.98 230.02
  Q 34.70 230.13 30.79 227.29
  A 0.64 0.64 0.0 0 0 30.06 227.28
  Q 29.71 227.51 29.72 227.56
  A 0.09 0.09 0.0 0 1 29.55 227.62
  L 27.74 224.75
  A 1.01 1.01 0.0 0 0 26.85 224.28
  Q 26.24 224.31 25.85 223.88
  A 0.56 0.56 0.0 0 1 25.99 223.01
  C 26.90 222.51 27.71 221.66 28.37 220.62
  C 27.32 221.61 26.33 222.17 25.39 223.33
  Q 25.00 223.81 24.51 223.71
  Q 24.06 223.62 23.94 222.79
  A 1.19 1.18 -76.6 0 0 23.49 222.05
  L 21.53 220.53
  A 1.81 1.81 0.0 0 1 21.63 217.59
  Q 22.42 217.07 23.34 215.78
  A 0.13 0.13 0.0 0 0 23.16 215.60
  Q 22.77 215.91 20.57 218.17
  A 0.90 0.89 -33.3 0 0 20.37 219.11
  Q 21.02 220.84 22.11 221.91
  A 2.75 2.68 -81.2 0 1 22.63 222.64
  C 23.23 223.82 22.68 224.16 24.31 225.02
  Q 25.12 225.44 25.34 226.63
  A 0.25 0.25 0.0 0 0 25.61 226.84
  L 25.89 226.81
  A 0.24 0.24 0.0 0 0 26.11 226.54
  L 25.94 224.80
  A 0.15 0.15 0.0 0 1 26.21 224.71
  L 28.80 228.58
  A 0.37 0.35 30.6 0 1 28.87 228.82
  Q 28.81 230.02 29.74 230.31
  A 0.47 0.46 -11.7 0 0 30.24 229.57
  Q 29.84 229.12 29.92 228.51
  A 0.26 0.26 0.0 0 1 30.40 228.41
  Q 30.81 229.10 33.14 230.29
  A 0.52 0.50 6.8 0 1 33.38 230.58
  Q 33.42 230.75 33.39 230.97
  A 0.63 0.63 0.0 0 0 33.71 231.61
  Q 36.08 232.95 39.05 236.63
  A 0.27 0.26 49.2 0 0 39.44 236.66
  L 39.45 236.65
  A 0.30 0.30 0.0 0 0 39.45 236.21
  Q 36.82 233.84 35.42 231.73
  Q 35.32 231.59 35.34 231.28
  A 0.17 0.16 19.8 0 1 35.60 231.16
  L 36.48 231.78
  A 0.36 0.36 0.0 0 0 37.00 231.67
  Q 37.28 231.21 38.01 231.35
  A 0.37 0.37 0.0 0 1 38.19 231.98
  Q 37.34 232.78 38.39 233.62
  Q 38.77 233.93 39.21 234.20
  Z
  M 59.0701 215.6435
  A 1.75 0.29 -117.2 0 0 59.6121 217.3326
  A 1.75 0.29 -117.2 0 0 60.6699 218.7565
  A 1.75 0.29 -117.2 0 0 60.1279 217.0674
  A 1.75 0.29 -117.2 0 0 59.0701 215.6435
  Z
  M 64.77 216.26
  Q 64.51 216.17 64.38 216.32
  A 0.29 0.23 -75.5 0 0 64.59 216.78
  Q 64.66 216.75 64.84 216.50
  A 0.16 0.15 -61.6 0 0 64.77 216.26
  Z
  M 33.6184 216.5384
  A 2.27 0.33 -140.9 0 0 35.1719 218.2261
  A 2.27 0.33 -140.9 0 0 37.1416 219.4016
  A 2.27 0.33 -140.9 0 0 35.5881 217.7139
  A 2.27 0.33 -140.9 0 0 33.6184 216.5384
  Z
  M 75.25 217.22
  Q 75.18 217.29 75.20 217.58
  Q 75.21 217.74 75.47 217.77
  Q 75.72 217.80 75.74 217.64
  A 0.38 0.29 77.2 0 0 75.25 217.22
  Z
  M 70.7687 218.2360
  A 3.17 0.25 -44.3 0 0 68.3254 220.2711
  A 3.17 0.25 -44.3 0 0 66.2313 222.6640
  A 3.17 0.25 -44.3 0 0 68.6746 220.6289
  A 3.17 0.25 -44.3 0 0 70.7687 218.2360
  Z
  M 61.88 220.31
  L 64.41 222.78
  A 0.25 0.25 0.0 0 0 64.77 222.77
  Q 64.85 222.68 64.91 222.36
  A 0.24 0.24 0.0 0 0 64.65 222.08
  Q 64.06 222.12 63.70 221.61
  Q 62.71 220.16 62.18 219.89
  A 0.26 0.26 0.0 0 0 61.88 220.31
  Z
  M 75.48 220.19
  Q 74.55 220.83 74.41 221.13
  A 0.33 0.33 0.0 0 0 74.92 221.52
  Q 75.70 220.87 75.83 220.44
  A 0.23 0.23 0.0 0 0 75.48 220.19
  Z
  M 71.4003 220.6209
  A 2.92 0.24 -45.4 0 0 69.1791 222.5315
  A 2.92 0.24 -45.4 0 0 67.2997 224.7791
  A 2.92 0.24 -45.4 0 0 69.5209 222.8685
  A 2.92 0.24 -45.4 0 0 71.4003 220.6209
  Z
  M 60.27 232.09
  Q 60.23 231.41 60.83 231.06
  Q 62.64 230.02 63.52 228.71
  A 0.25 0.25 0.0 0 0 63.45 228.36
  L 63.44 228.36
  A 0.22 0.22 0.0 0 0 63.13 228.43
  Q 62.49 229.45 61.37 229.84
  A 0.86 0.81 80.7 0 1 60.28 229.01
  Q 60.29 227.31 59.49 226.30
  A 1.05 1.04 -63.2 0 1 59.26 225.59
  Q 59.33 224.52 59.99 223.22
  A 0.83 0.82 -58.6 0 1 61.20 222.92
  L 62.13 223.59
  A 0.32 0.32 0.0 0 0 62.55 223.12
  Q 61.90 222.40 60.60 221.78
  A 0.79 0.79 0.0 0 0 59.63 222.04
  Q 57.90 224.46 58.95 225.85
  A 0.50 0.48 -65.1 0 1 59.05 226.15
  L 59.05 232.30
  A 0.85 0.84 69.4 0 1 58.77 232.93
  Q 57.88 233.71 57.55 235.18
  A 1.32 1.31 -13.3 0 1 57.09 235.92
  Q 56.25 236.63 55.52 238.16
  A 1.41 1.12 -76.2 0 0 56.44 240.16
  Q 58.28 240.01 59.48 238.19
  Q 62.29 233.97 60.72 234.58
  A 0.25 0.17 -73.2 0 0 60.63 234.65
  L 59.07 236.61
  A 0.28 0.28 0.0 0 1 58.58 236.38
  Q 59.18 233.48 61.32 232.87
  Q 61.63 232.78 61.67 232.66
  Q 61.86 232.02 61.42 231.85
  A 0.29 0.28 -52.6 0 0 61.14 231.89
  L 60.64 232.27
  A 0.24 0.23 69.9 0 1 60.27 232.09
  Z
  M 71.21 223.52
  Q 70.17 224.32 70.03 224.57
  A 0.23 0.22 -86.4 0 0 70.31 224.89
  Q 70.98 224.60 71.50 223.78
  A 0.20 0.20 0.0 0 0 71.21 223.52
  Z
  M 61.1546 225.5001
  A 0.89 0.32 -174.2 0 0 62.0077 225.9084
  A 0.89 0.32 -174.2 0 0 62.9254 225.6799
  A 0.89 0.32 -174.2 0 0 62.0723 225.2716
  A 0.89 0.32 -174.2 0 0 61.1546 225.5001
  Z
  M 67.9920 226.0286
  A 1.82 0.25 -46.1 0 0 66.5499 227.1666
  A 1.82 0.25 -46.1 0 0 65.4680 228.6514
  A 1.82 0.25 -46.1 0 0 66.9101 227.5134
  A 1.82 0.25 -46.1 0 0 67.9920 226.0286
  Z
  M 63.24 226.67
  Q 63.47 226.73 63.59 226.61
  A 0.15 0.15 0.0 0 0 63.57 226.38
  Q 63.40 226.25 63.22 226.32
  A 0.19 0.18 42.0 0 0 63.24 226.67
  Z
  M 61.57 227.39
  A 0.18 0.18 0.0 0 0 61.60 227.73
  Q 62.73 227.90 62.68 227.34
  A 0.27 0.26 -12.2 0 0 62.33 227.12
  L 61.57 227.39
  Z
  M 45.94 229.66
  Q 42.53 229.33 41.06 229.85
  A 0.40 0.40 0.0 0 0 40.80 230.29
  Q 40.85 230.67 41.18 230.80
  A 0.51 0.48 33.6 0 0 41.69 230.71
  Q 42.86 229.63 44.90 230.37
  A 0.73 0.72 -66.2 0 1 45.29 231.39
  L 44.27 233.32
  A 0.27 0.26 41.1 0 0 44.29 233.59
  L 44.30 233.60
  A 0.19 0.18 42.6 0 0 44.55 233.59
  Q 46.00 232.13 46.29 230.11
  A 0.39 0.39 0.0 0 0 45.94 229.66
  Z
  M 54.48 229.48
  C 51.24 229.78 48.40 231.79 46.48 234.24
  A 0.18 0.17 41.1 0 0 46.50 234.47
  A 0.21 0.21 0.0 0 0 46.75 234.46
  L 51.02 230.83
  A 1.70 1.66 -70.9 0 1 51.72 230.48
  Q 54.45 229.85 54.58 229.78
  A 0.16 0.16 0.0 0 0 54.48 229.48
  Z
  M 31.84 231.22
  Q 32.13 230.84 31.49 230.10
  A 0.40 0.39 14.0 0 0 30.82 230.50
  Q 30.86 230.61 31.22 231.19
  A 0.38 0.37 47.6 0 0 31.84 231.22
  Z
  M 55.02 231.87
  Q 55.19 231.84 55.41 231.59
  A 0.20 0.19 14.7 0 0 55.22 231.27
  Q 54.80 231.36 54.79 231.37
  A 0.29 0.28 -69.9 0 0 55.02 231.87
  Z
  M 40.38 231.56
  Q 40.03 232.84 40.22 233.23
  A 0.26 0.26 0.0 0 0 40.72 233.11
  L 40.72 231.61
  A 0.17 0.17 0.0 0 0 40.38 231.56
  Z
  M 42.32 231.71
  L 42.32 232.60
  A 0.15 0.15 0.0 0 0 42.62 232.64
  Q 42.84 231.81 42.44 231.64
  A 0.09 0.08 12.3 0 0 42.32 231.71
  Z
  M 57.91 232.58
  Q 57.76 232.38 57.74 232.37
  A 0.09 0.09 0.0 0 0 57.62 232.49
  Q 57.68 232.63 57.86 232.66
  A 0.05 0.05 0.0 0 0 57.91 232.58
  Z
  M 55.01 233.65
  A 0.32 0.25 -32.8 0 0 55.55 233.70
  Q 55.77 233.40 55.62 233.27
  A 0.22 0.20 57.2 0 0 55.47 233.23
  Q 55.00 233.28 55.01 233.65
  Z
  M 41.47 234.83
  Q 41.78 234.59 41.74 234.37
  A 0.32 0.25 -46.4 0 0 41.20 234.45
  Q 41.17 234.54 41.24 234.76
  A 0.15 0.15 0.0 0 0 41.47 234.83
  Z
  M 42.63 235.25
  Q 42.52 235.26 42.36 235.39
  A 0.14 0.13 -36.9 0 0 42.33 235.57
  Q 42.44 235.73 42.74 235.50
  A 0.14 0.14 0.0 0 0 42.63 235.25
  Z
  M 52.61 236.44
  Q 52.61 236.42 52.43 236.19
  A 0.37 0.31 76.1 0 0 52.29 236.09
  Q 51.81 235.95 52.11 236.60
  A 0.27 0.26 27.0 0 0 52.61 236.44
  Z
  M 49.33 236.79
  Q 49.33 236.80 49.94 237.48
  A 0.29 0.29 0.0 0 0 50.44 237.26
  Q 50.42 237.16 49.71 236.54
  A 0.24 0.24 0.0 0 0 49.33 236.79
  Z
  M 46.65 237.01
  Q 47.03 237.68 47.10 237.74
  A 0.33 0.33 0.0 0 0 47.61 237.37
  Q 47.53 237.12 46.95 236.74
  A 0.21 0.20 2.1 0 0 46.65 237.01
  Z
  M 47.29 243.64
  L 49.64 245.99
  A 0.54 0.54 0.0 0 0 50.16 246.13
  Q 54.14 245.12 56.02 241.70
  A 0.38 0.38 0.0 0 0 55.43 241.24
  Q 55.25 241.42 54.76 242.18
  A 0.43 0.43 0.0 0 1 54.08 242.24
  Q 53.91 242.05 53.99 241.49
  A 0.45 0.43 -11.7 0 1 54.21 241.17
  Q 54.83 240.84 55.09 240.64
  A 0.37 0.37 0.0 0 0 55.09 240.04
  L 54.80 239.83
  A 0.36 0.36 0.0 0 0 54.26 239.99
  Q 53.73 241.34 52.78 241.74
  A 0.53 0.53 0.0 0 0 52.50 242.43
  Q 52.71 242.96 53.74 242.79
  A 0.36 0.35 -0.6 0 1 54.15 243.19
  Q 54.07 243.78 53.82 243.85
  Q 52.22 244.30 50.32 245.10
  A 1.28 1.27 -24.6 0 1 48.68 244.50
  Q 48.39 243.90 47.54 243.34
  A 0.20 0.20 0.0 0 0 47.29 243.64
  Z
  M 44.3205 243.3085
  A 1.62 0.25 -134.7 0 0 45.2823 244.6358
  A 1.62 0.25 -134.7 0 0 46.5995 245.6115
  A 1.62 0.25 -134.7 0 0 45.6377 244.2842
  A 1.62 0.25 -134.7 0 0 44.3205 243.3085
  Z"
/>
<path fill="#ffffff" d="
  M 0.00 396.10
  L 0.00 392.11
  L 0.16 0.84
  A 0.36 0.36 0.0 0 1 0.52 0.48
  L 0.53 0.48
  A 0.37 0.37 0.0 0 1 0.90 0.85
  L 0.87 399.68
  A 0.06 0.06 0.0 0 1 0.81 399.74
  L 0.50 399.74
  A 0.21 0.20 86.8 0 1 0.30 399.55
  L 0.00 396.10
  Z"
/>
<ellipse fill="#ffffff" cx="0.00" cy="0.00" transform="translate(45.79,192.78) rotate(-32.9)" rx="2.44" ry="0.36"/>
<ellipse fill="#ffffff" cx="0.00" cy="0.00" transform="translate(50.05,192.09) rotate(-139.9)" rx="0.83" ry="0.19"/>
<path fill="#ffffff" d="
  M 41.68 195.70
  Q 43.02 195.09 43.42 195.07
  A 0.50 0.50 0.0 0 1 43.86 195.86
  L 39.19 202.40
  A 3.27 3.17 70.7 0 0 38.69 203.48
  Q 37.62 207.74 37.61 209.34
  Q 37.61 210.13 38.37 215.83
  A 5.86 5.78 44.6 0 1 38.39 217.19
  Q 38.06 220.56 38.54 221.73
  A 0.27 0.26 -78.5 0 1 38.11 222.02
  Q 38.02 221.93 37.51 220.47
  A 0.31 0.31 0.0 0 1 37.73 220.07
  Q 37.88 220.03 37.99 220.00
  A 0.03 0.02 -31.7 0 0 38.00 219.98
  Q 38.04 216.11 37.02 212.73
  Q 36.87 212.23 36.46 211.96
  Q 35.80 211.53 36.17 211.40
  Q 36.32 211.35 36.49 211.29
  A 0.71 0.71 0.0 0 0 36.93 210.51
  Q 36.82 209.82 36.42 209.17
  A 1.15 1.14 44.8 0 1 36.41 207.99
  Q 36.50 207.84 36.51 207.80
  A 0.68 0.67 11.7 0 0 35.95 206.96
  Q 35.26 206.86 35.19 206.77
  A 0.35 0.34 73.9 0 1 35.49 206.22
  Q 36.83 206.32 36.96 205.55
  Q 37.10 204.74 36.40 204.70
  Q 35.75 204.67 35.82 204.25
  A 1.36 1.05 -37.5 0 1 35.89 203.99
  Q 36.17 203.15 38.73 201.47
  Q 39.85 200.74 41.19 197.71
  A 1.04 1.03 -87.9 0 1 41.80 197.14
  L 42.84 196.77
  A 0.44 0.44 0.0 0 0 42.70 195.91
  L 41.73 195.91
  A 0.11 0.11 0.0 0 1 41.68 195.70
  Z"
/>
<ellipse fill="#ffffff" cx="0.00" cy="0.00" transform="translate(50.44,196.49) rotate(-136.3)" rx="1.46" ry="0.24"/>
<path fill="#ffffff" d="
  M 51.81 200.84
  Q 49.13 198.89 47.23 196.38
  A 0.06 0.06 0.0 0 1 47.32 196.29
  Q 49.84 198.18 51.81 200.84
  Z"
/>
<ellipse fill="#ffffff" cx="0.00" cy="0.00" transform="translate(39.60,197.99) rotate(-55.0)" rx="1.65" ry="0.41"/>
<ellipse fill="#ffffff" cx="0.00" cy="0.00" transform="translate(47.35,199.45) rotate(-135.9)" rx="1.63" ry="0.22"/>
<ellipse fill="#ffffff" cx="0.00" cy="0.00" transform="translate(55.64,199.68) rotate(-134.3)" rx="1.62" ry="0.23"/>
<path fill="#ffffff" d="
  M 330.16 226.19
  Q 324.10 226.19 323.18 226.23
  A 0.78 0.77 8.0 0 0 322.48 226.75
  L 320.58 232.16
  A 1.35 1.35 0.0 0 1 319.31 233.06
  L 313.03 233.06
  A 0.58 0.58 0.0 0 1 312.48 232.29
  L 323.91 199.75
  A 0.91 0.91 0.0 0 1 324.68 199.14
  Q 327.28 198.87 330.16 198.88
  Q 333.04 198.88 335.64 199.14
  A 0.91 0.91 0.0 0 1 336.41 199.75
  L 347.83 232.29
  A 0.58 0.58 0.0 0 1 347.28 233.06
  L 341.00 233.06
  A 1.35 1.35 0.0 0 1 339.73 232.16
  L 337.83 226.75
  A 0.78 0.77 -8.0 0 0 337.14 226.23
  Q 336.21 226.19 330.16 226.19
  Z
  M 325.02 219.31
  A 0.51 0.51 0.0 0 0 325.50 219.99
  L 334.71 220.06
  A 0.51 0.51 0.0 0 0 335.20 219.38
  L 330.68 206.20
  A 0.51 0.51 0.0 0 0 329.72 206.20
  L 325.02 219.31
  Z"
/>
<path fill="#ffffff" d="
  M 97.66 199.09
  Q 111.95 198.65 117.67 199.33
  C 125.81 200.29 127.81 209.73 124.96 215.91
  C 123.15 219.86 119.88 221.24 115.16 221.32
  Q 111.09 221.40 105.59 221.32
  A 0.59 0.59 0.0 0 0 105.00 221.91
  L 105.00 232.70
  A 0.36 0.36 0.0 0 1 104.64 233.06
  L 97.32 233.06
  A 0.32 0.32 0.0 0 1 97.00 232.74
  L 97.00 199.77
  A 0.68 0.68 0.0 0 1 97.66 199.09
  Z
  M 105.01 205.97
  L 104.89 214.07
  A 1.00 1.00 0.0 0 0 105.87 215.08
  L 112.78 215.19
  A 5.11 4.80 0.9 0 0 117.97 210.47
  L 117.97 209.97
  A 5.11 4.80 0.9 0 0 112.94 205.09
  L 106.03 204.98
  A 1.00 1.00 0.0 0 0 105.01 205.97
  Z"
/>
<path fill="#ffffff" d="
  M 362.78 199.04
  Q 367.90 199.03 372.58 199.06
  A 0.62 0.61 0.2 0 1 373.19 199.68
  L 373.19 204.71
  A 0.52 0.52 0.0 0 1 372.67 205.23
  L 367.63 205.23
  A 0.78 0.77 -87.5 0 0 366.86 205.94
  Q 366.80 206.66 366.80 216.07
  Q 366.81 225.47 366.87 226.19
  A 0.78 0.77 87.5 0 0 367.64 226.91
  L 372.68 226.90
  A 0.52 0.52 0.0 0 1 373.20 227.42
  L 373.20 232.45
  A 0.62 0.61 -0.2 0 1 372.59 233.07
  Q 367.91 233.10 362.79 233.10
  Q 357.67 233.10 352.99 233.07
  A 0.62 0.61 0.2 0 1 352.38 232.46
  L 352.38 227.43
  A 0.52 0.52 0.0 0 1 352.90 226.91
  L 357.94 226.91
  A 0.78 0.77 -87.5 0 0 358.71 226.20
  Q 358.77 225.47 358.77 216.07
  Q 358.76 206.67 358.70 205.94
  A 0.78 0.77 87.5 0 0 357.93 205.23
  L 352.89 205.23
  A 0.52 0.52 0.0 0 1 352.37 204.71
  L 352.37 199.68
  A 0.62 0.61 -0.2 0 1 352.98 199.07
  Q 357.66 199.04 362.78 199.04
  Z"
/>
<path fill="#ffffff" d="
  M 38.84 200.61
  Q 38.77 200.82 38.58 200.85
  Q 38.24 200.91 38.23 200.67
  Q 38.21 200.33 38.54 200.03
  A 0.42 0.23 -88.6 0 1 38.84 200.61
  Z"
/>
<ellipse fill="#ffffff" cx="0.00" cy="0.00" transform="translate(45.50,200.52) rotate(-133.4)" rx="0.51" ry="0.23"/>
<path fill="#ffffff" d="
  M 51.81 200.84
  Q 52.18 200.77 52.39 201.13
  Q 52.51 201.32 52.40 201.43
  A 0.10 0.10 0.0 0 1 52.25 201.42
  L 51.81 200.84
  Z"
/>
<path fill="#ffffff" d="
  M 48.89 202.75
  A 0.18 0.17 34.3 0 1 48.56 202.81
  Q 48.47 202.64 48.47 202.53
  A 0.15 0.15 0.0 0 1 48.70 202.41
  Q 48.91 202.56 48.89 202.75
  Z"
/>
<path fill="#ffffff" d="
  M 46.14 203.55
  Q 46.24 203.39 46.48 203.30
  A 0.15 0.15 0.0 0 1 46.66 203.53
  Q 46.51 203.76 46.36 203.82
  A 0.18 0.18 0.0 0 1 46.14 203.55
  Z"
/>
<path fill="#ffffff" d="
  M 53.64 206.02
  A 0.23 0.22 -32.2 0 1 53.23 205.93
  Q 53.16 205.49 53.17 205.48
  A 0.36 0.36 0.0 0 1 53.87 205.53
  Q 53.88 205.65 53.64 206.02
  Z"
/>
<path fill="#ffffff" d="
  M 60.00 205.17
  Q 61.92 206.66 63.01 206.58
  A 0.48 0.48 0.0 0 1 63.45 207.33
  Q 63.37 207.46 63.34 207.54
  A 0.80 0.80 0.0 0 0 63.84 208.59
  Q 64.92 208.95 65.75 209.40
  A 0.77 0.71 17.8 0 0 66.87 208.88
  Q 66.91 208.48 67.11 208.36
  A 0.30 0.30 0.0 0 1 67.51 208.78
  Q 67.39 208.98 67.17 209.11
  A 0.59 0.58 47.1 0 0 67.14 210.10
  Q 68.21 210.83 69.38 212.61
  A 0.30 0.30 0.0 0 1 69.07 213.06
  C 67.45 212.73 67.38 211.19 65.90 210.49
  Q 62.22 208.76 59.28 208.02
  Q 57.65 207.61 56.02 208.43
  A 0.43 0.30 -55.3 0 1 55.94 208.46
  L 46.49 209.37
  A 0.11 0.11 0.0 0 1 46.44 209.16
  L 49.09 208.23
  A 0.23 0.22 66.8 0 1 49.36 208.34
  Q 49.55 208.70 50.00 208.61
  Q 53.81 207.85 56.20 207.48
  Q 56.73 207.40 57.35 206.84
  A 0.73 0.72 35.8 0 1 58.14 206.72
  Q 58.79 207.03 59.45 206.85
  A 0.56 0.55 -17.5 0 0 59.83 206.13
  L 59.60 205.46
  A 0.26 0.26 0.0 0 1 60.00 205.17
  Z
  M 61.90 207.35
  A 0.31 0.31 0.0 0 0 61.59 207.04
  A 0.31 0.31 0.0 0 0 61.28 207.35
  A 0.31 0.31 0.0 0 0 61.59 207.66
  A 0.31 0.31 0.0 0 0 61.90 207.35
  Z"
/>
<path fill="#000000" d="
  M 105.01 205.97
  A 1.00 1.00 0.0 0 1 106.03 204.98
  L 112.94 205.09
  A 5.11 4.80 0.9 0 1 117.97 209.97
  L 117.97 210.47
  A 5.11 4.80 0.9 0 1 112.78 215.19
  L 105.87 215.08
  A 1.00 1.00 0.0 0 1 104.89 214.07
  L 105.01 205.97
  Z"
/>
<path fill="#ffffff" d="
  M 55.18 206.12
  Q 55.10 205.57 55.12 205.54
  A 0.34 0.33 -42.5 0 1 55.69 205.56
  Q 55.75 205.66 55.65 206.13
  A 0.24 0.24 0.0 0 1 55.18 206.12
  Z"
/>
<path fill="#ffffff" d="
  M 57.44 206.19
  A 0.21 0.20 83.3 0 1 57.19 205.99
  L 57.19 205.49
  A 0.22 0.21 35.1 0 1 57.61 205.42
  Q 57.86 206.08 57.44 206.19
  Z"
/>
<path fill="#000000" d="
  M 325.02 219.31
  L 329.72 206.20
  A 0.51 0.51 0.0 0 1 330.68 206.20
  L 335.20 219.38
  A 0.51 0.51 0.0 0 1 334.71 220.06
  L 325.50 219.99
  A 0.51 0.51 0.0 0 1 325.02 219.31
  Z"
/>
<path fill="#ffffff" d="
  M 155.95 225.28
  A 0.37 0.37 0.0 0 1 156.31 225.71
  Q 155.30 231.47 149.44 233.22
  C 142.53 235.27 134.17 234.39 130.78 227.18
  C 127.11 219.39 130.22 208.02 140.26 207.00
  C 147.41 206.26 153.76 207.89 155.80 215.26
  Q 156.70 218.53 156.52 221.79
  A 0.58 0.58 0.0 0 1 155.94 222.34
  L 138.27 222.34
  A 1.46 1.45 75.1 0 0 137.01 224.52
  L 137.92 226.08
  A 5.12 5.10 -8.6 0 0 141.24 228.52
  Q 146.22 229.63 148.93 225.70
  A 0.97 0.97 0.0 0 1 149.73 225.28
  L 155.95 225.28
  Z
  M 137.35 217.84
  L 148.93 217.82
  A 0.24 0.24 0.0 0 0 149.16 217.58
  L 149.16 217.44
  A 5.47 5.40 -0.1 0 0 143.68 212.05
  L 142.56 212.05
  A 5.47 5.40 -0.1 0 0 137.10 217.46
  L 137.10 217.60
  A 0.24 0.24 0.0 0 0 137.35 217.84
  Z"
/>
<path fill="#ffffff" d="
  M 204.46 214.98
  Q 203.39 215.32 199.97 215.04
  Q 197.62 214.85 196.46 212.92
  A 1.39 1.37 -7.3 0 0 195.65 212.30
  Q 193.14 211.62 190.29 212.06
  C 186.95 212.57 188.23 216.63 191.22 216.86
  Q 197.54 217.35 201.34 218.64
  C 204.78 219.80 205.26 223.22 205.08 226.53
  Q 204.80 231.72 199.91 233.16
  C 192.79 235.27 182.35 234.72 180.57 225.78
  A 0.74 0.74 0.0 0 1 181.30 224.89
  L 186.53 224.89
  A 1.39 1.39 0.0 0 1 187.83 225.79
  Q 189.39 229.95 195.21 228.87
  C 199.64 228.06 198.32 223.92 194.64 223.44
  Q 188.33 222.61 188.20 222.59
  Q 181.28 221.43 181.11 215.50
  C 180.97 210.69 183.98 208.05 188.45 207.17
  C 194.81 205.93 203.11 206.68 204.89 214.21
  A 0.65 0.64 74.6 0 1 204.46 214.98
  Z"
/>
<path fill="#ffffff" d="
  M 226.64 229.23
  Q 226.30 229.44 225.57 230.59
  C 222.71 235.07 213.30 235.18 210.36 230.85
  C 207.24 226.27 209.18 220.47 214.80 219.03
  Q 216.24 218.66 224.19 217.22
  Q 225.72 216.94 226.30 215.87
  A 2.31 2.13 -65.6 0 0 225.25 212.68
  Q 219.26 210.50 217.03 215.15
  A 1.55 1.54 -77.2 0 1 215.64 216.03
  L 210.20 216.03
  A 0.77 0.77 0.0 0 1 209.45 215.10
  Q 210.73 208.92 216.50 207.45
  Q 223.27 205.73 228.82 207.79
  C 233.93 209.69 233.83 214.98 233.82 220.16
  Q 233.82 223.00 233.90 232.11
  A 0.91 0.91 0.0 0 1 232.99 233.03
  L 228.08 233.03
  A 0.99 0.98 90.0 0 1 227.10 232.04
  L 227.10 229.48
  A 0.30 0.30 0.0 0 0 226.64 229.23
  Z
  M 226.03 220.46
  Q 223.91 221.30 220.55 222.09
  C 217.95 222.71 216.00 223.98 216.78 226.72
  A 2.74 2.36 -3.9 0 0 219.10 228.46
  C 224.50 228.92 225.85 225.82 226.58 220.90
  A 0.41 0.40 83.3 0 0 226.03 220.46
  Z"
/>
<path fill="#ffffff" d="
  M 239.03 208.23
  A 0.79 0.79 0.0 0 1 239.82 207.44
  L 246.17 207.44
  A 0.79 0.78 0.0 0 1 246.96 208.22
  L 246.96 210.57
  A 0.42 0.42 0.0 0 0 247.68 210.87
  Q 247.97 210.57 249.37 209.08
  C 251.30 207.00 254.76 206.64 257.52 206.83
  C 264.92 207.34 265.99 214.20 265.84 220.26
  Q 265.76 223.54 265.86 232.12
  A 0.91 0.91 0.0 0 1 264.95 233.05
  L 258.89 233.10
  A 0.86 0.86 0.0 0 1 258.02 232.20
  Q 258.03 232.12 258.02 220.30
  C 258.02 216.51 257.54 212.97 253.13 212.93
  C 249.17 212.90 247.23 216.11 247.09 219.79
  Q 246.82 226.66 247.01 232.23
  A 0.82 0.81 89.3 0 1 246.20 233.07
  L 239.88 233.07
  A 0.86 0.85 -90.0 0 1 239.03 232.21
  L 239.03 208.23
  Z"
/>
<path fill="#ffffff" d="
  M 288.35 229.51
  A 0.30 0.30 0.0 0 0 287.89 229.26
  Q 287.55 229.47 286.81 230.61
  C 283.93 235.06 274.54 235.09 271.64 230.75
  C 268.56 226.16 270.54 220.39 276.16 219.00
  Q 277.60 218.64 285.54 217.26
  Q 287.07 217.00 287.65 215.93
  A 2.31 2.12 -65.1 0 0 286.63 212.74
  Q 280.67 210.52 278.41 215.15
  A 1.54 1.53 -76.7 0 1 277.02 216.01
  L 271.60 215.97
  A 0.77 0.77 0.0 0 1 270.85 215.04
  Q 272.18 208.88 277.94 207.46
  Q 284.71 205.80 290.23 207.89
  C 295.31 209.83 295.17 215.10 295.12 220.27
  Q 295.10 223.10 295.11 232.19
  A 0.91 0.91 0.0 0 1 294.20 233.10
  L 289.30 233.06
  A 0.99 0.98 -89.6 0 1 288.33 232.07
  L 288.35 229.51
  Z
  M 287.43 220.44
  L 280.03 222.68
  A 2.78 2.78 0.0 0 0 278.31 226.52
  L 278.42 226.76
  A 3.59 3.59 0.0 0 0 282.61 228.49
  Q 288.04 226.87 287.92 220.80
  A 0.38 0.38 0.0 0 0 287.43 220.44
  Z"
/>
<circle fill="#000000" cx="61.59" cy="207.35" r="0.31"/>
<ellipse fill="#ffffff" cx="0.00" cy="0.00" transform="translate(65.30,207.46) rotate(-59.6)" rx="0.44" ry="0.30"/>
<path fill="#ffffff" d="
  M 169.23 211.23
  Q 171.91 206.54 177.58 207.11
  A 0.48 0.48 0.0 0 1 178.02 207.59
  L 178.02 214.05
  A 0.84 0.84 0.0 0 1 177.24 214.89
  C 176.30 214.95 174.58 214.80 173.81 214.95
  Q 169.06 215.87 169.00 221.25
  Q 168.91 228.53 168.98 232.51
  A 0.55 0.55 0.0 0 1 168.43 233.07
  L 161.54 233.07
  A 0.52 0.52 0.0 0 1 161.02 232.55
  L 161.02 208.26
  A 0.85 0.85 0.0 0 1 161.87 207.41
  L 167.92 207.41
  A 0.84 0.84 0.0 0 1 168.76 208.25
  L 168.76 211.10
  A 0.25 0.25 0.0 0 0 169.23 211.23
  Z"
/>
<path fill="#ffffff" d="
  M 34.41 208.78
  A 0.21 0.21 0.0 0 1 34.22 208.42
  Q 34.71 208.07 35.04 208.30
  A 0.16 0.16 0.0 0 1 35.00 208.58
  L 34.41 208.78
  Z"
/>
<ellipse fill="#ffffff" cx="0.00" cy="0.00" transform="translate(30.08,210.85) rotate(-46.2)" rx="1.39" ry="0.28"/>
<path fill="#ffffff" d="
  M 70.87 211.35
  Q 71.06 212.30 70.68 213.03
  A 0.30 0.30 0.0 0 1 70.12 212.81
  Q 70.22 212.46 70.03 211.52
  Q 69.84 210.58 69.61 210.30
  A 0.30 0.30 0.0 0 1 70.04 209.88
  Q 70.68 210.41 70.87 211.35
  Z"
/>
<path fill="#ffffff" d="
  M 35.25 210.79
  Q 34.89 211.11 34.56 210.58
  Q 34.40 210.30 34.85 210.28
  A 0.40 0.29 15.9 0 1 35.25 210.79
  Z"
/>
<path fill="#ffffff" d="
  M 72.31 215.28
  Q 71.98 214.56 71.10 215.14
  Q 70.95 215.24 68.63 217.65
  A 0.19 0.19 0.0 0 1 68.36 217.66
  L 68.35 217.65
  A 0.20 0.18 -45.0 0 1 68.36 217.38
  L 71.69 214.02
  A 1.41 1.41 0.0 0 0 72.08 213.28
  Q 72.17 212.82 72.08 212.56
  A 0.26 0.26 0.0 0 1 72.33 212.22
  L 72.68 212.22
  A 0.08 0.08 0.0 0 1 72.76 212.31
  L 72.57 215.23
  A 0.14 0.14 0.0 0 1 72.31 215.28
  Z"
/>
<path fill="#000000" d="
  M 137.35 217.84
  A 0.24 0.24 0.0 0 1 137.10 217.60
  L 137.10 217.46
  A 5.47 5.40 -0.1 0 1 142.56 212.05
  L 143.68 212.05
  A 5.47 5.40 -0.1 0 1 149.16 217.44
  L 149.16 217.58
  A 0.24 0.24 0.0 0 1 148.93 217.82
  L 137.35 217.84
  Z"
/>
<path fill="#ffffff" d="
  M 62.69 212.42
  Q 62.71 212.60 62.67 212.71
  A 0.20 0.20 0.0 0 1 62.29 212.67
  Q 62.24 212.33 62.59 212.34
  A 0.10 0.09 -3.2 0 1 62.69 212.42
  Z"
/>
<ellipse fill="#ffffff" cx="0.00" cy="0.00" transform="translate(26.15,213.75) rotate(-45.1)" rx="1.40" ry="0.29"/>
<path fill="#ffffff" d="
  M 66.34 213.70
  A 0.11 0.11 0.0 0 1 66.22 213.53
  Q 66.34 213.38 66.47 213.33
  A 0.12 0.12 0.0 0 1 66.63 213.46
  Q 66.61 213.61 66.34 213.70
  Z"
/>
<path fill="#ffffff" d="
  M 35.42 214.43
  Q 35.96 214.53 36.54 214.51
  A 0.14 0.14 0.0 0 1 36.61 214.78
  Q 36.05 215.08 35.33 214.95
  Q 34.62 214.83 34.19 214.36
  A 0.14 0.14 0.0 0 1 34.35 214.13
  Q 34.89 214.34 35.42 214.43
  Z"
/>
<ellipse fill="#ffffff" cx="0.00" cy="0.00" transform="translate(67.94,215.03) rotate(-43.5)" rx="1.07" ry="0.27"/>
<ellipse fill="#ffffff" cx="0.00" cy="0.00" transform="translate(74.45,215.74) rotate(-116.8)" rx="0.53" ry="0.27"/>
<path fill="#ffffff" d="
  M 39.21 234.20
  Q 38.77 233.93 38.39 233.62
  Q 37.34 232.78 38.19 231.98
  A 0.37 0.37 0.0 0 0 38.01 231.35
  Q 37.28 231.21 37.00 231.67
  A 0.36 0.36 0.0 0 1 36.48 231.78
  L 35.60 231.16
  A 0.17 0.16 19.8 0 0 35.34 231.28
  Q 35.32 231.59 35.42 231.73
  Q 36.82 233.84 39.45 236.21
  A 0.30 0.30 0.0 0 1 39.45 236.65
  L 39.44 236.66
  A 0.27 0.26 49.2 0 1 39.05 236.63
  Q 36.08 232.95 33.71 231.61
  A 0.63 0.63 0.0 0 1 33.39 230.97
  Q 33.42 230.75 33.38 230.58
  A 0.52 0.50 6.8 0 0 33.14 230.29
  Q 30.81 229.10 30.40 228.41
  A 0.26 0.26 0.0 0 0 29.92 228.51
  Q 29.84 229.12 30.24 229.57
  A 0.47 0.46 -11.7 0 1 29.74 230.31
  Q 28.81 230.02 28.87 228.82
  A 0.37 0.35 30.6 0 0 28.80 228.58
  L 26.21 224.71
  A 0.15 0.15 0.0 0 0 25.94 224.80
  L 26.11 226.54
  A 0.24 0.24 0.0 0 1 25.89 226.81
  L 25.61 226.84
  A 0.25 0.25 0.0 0 1 25.34 226.63
  Q 25.12 225.44 24.31 225.02
  C 22.68 224.16 23.23 223.82 22.63 222.64
  A 2.75 2.68 -81.2 0 0 22.11 221.91
  Q 21.02 220.84 20.37 219.11
  A 0.90 0.89 -33.3 0 1 20.57 218.17
  Q 22.77 215.91 23.16 215.60
  A 0.13 0.13 0.0 0 1 23.34 215.78
  Q 22.42 217.07 21.63 217.59
  A 1.81 1.81 0.0 0 0 21.53 220.53
  L 23.49 222.05
  A 1.19 1.18 -76.6 0 1 23.94 222.79
  Q 24.06 223.62 24.51 223.71
  Q 25.00 223.81 25.39 223.33
  C 26.33 222.17 27.32 221.61 28.37 220.62
  C 27.71 221.66 26.90 222.51 25.99 223.01
  A 0.56 0.56 0.0 0 0 25.85 223.88
  Q 26.24 224.31 26.85 224.28
  A 1.01 1.01 0.0 0 1 27.74 224.75
  L 29.55 227.62
  A 0.09 0.09 0.0 0 0 29.72 227.56
  Q 29.71 227.51 30.06 227.28
  A 0.64 0.64 0.0 0 1 30.79 227.29
  Q 34.70 230.13 39.98 230.02
  A 0.36 0.36 0.0 0 1 40.22 230.65
  Q 39.73 231.08 38.95 231.33
  A 0.64 0.64 0.0 0 0 38.54 232.14
  L 39.21 234.20
  Z"
/>
<ellipse fill="#ffffff" cx="0.00" cy="0.00" transform="translate(59.87,217.20) rotate(-117.2)" rx="1.75" ry="0.29"/>
<path fill="#ffffff" d="
  M 64.84 216.50
  Q 64.66 216.75 64.59 216.78
  A 0.29 0.23 -75.5 0 1 64.38 216.32
  Q 64.51 216.17 64.77 216.26
  A 0.16 0.15 -61.6 0 1 64.84 216.50
  Z"
/>
<ellipse fill="#ffffff" cx="0.00" cy="0.00" transform="translate(35.38,217.97) rotate(-140.9)" rx="2.27" ry="0.33"/>
<path fill="#ffffff" d="
  M 75.25 217.22
  A 0.38 0.29 77.2 0 1 75.74 217.64
  Q 75.72 217.80 75.47 217.77
  Q 75.21 217.74 75.20 217.58
  Q 75.18 217.29 75.25 217.22
  Z"
/>
<ellipse fill="#ffffff" cx="0.00" cy="0.00" transform="translate(68.50,220.45) rotate(-44.3)" rx="3.17" ry="0.25"/>
<path fill="#ffffff" d="
  M 62.18 219.89
  Q 62.71 220.16 63.70 221.61
  Q 64.06 222.12 64.65 222.08
  A 0.24 0.24 0.0 0 1 64.91 222.36
  Q 64.85 222.68 64.77 222.77
  A 0.25 0.25 0.0 0 1 64.41 222.78
  L 61.88 220.31
  A 0.26 0.26 0.0 0 1 62.18 219.89
  Z"
/>
<path fill="#ffffff" d="
  M 75.83 220.44
  Q 75.70 220.87 74.92 221.52
  A 0.33 0.33 0.0 0 1 74.41 221.13
  Q 74.55 220.83 75.48 220.19
  A 0.23 0.23 0.0 0 1 75.83 220.44
  Z"
/>
<path fill="#000000" d="
  M 226.58 220.90
  C 225.85 225.82 224.50 228.92 219.10 228.46
  A 2.74 2.36 -3.9 0 1 216.78 226.72
  C 216.00 223.98 217.95 222.71 220.55 222.09
  Q 223.91 221.30 226.03 220.46
  A 0.41 0.40 83.3 0 1 226.58 220.90
  Z"
/>
<ellipse fill="#ffffff" cx="0.00" cy="0.00" transform="translate(69.35,222.70) rotate(-45.4)" rx="2.92" ry="0.24"/>
<path fill="#000000" d="
  M 287.43 220.44
  A 0.38 0.38 0.0 0 1 287.92 220.80
  Q 288.04 226.87 282.61 228.49
  A 3.59 3.59 0.0 0 1 278.42 226.76
  L 278.31 226.52
  A 2.78 2.78 0.0 0 1 280.03 222.68
  L 287.43 220.44
  Z"
/>
<path fill="#ffffff" d="
  M 60.64 232.27
  L 61.14 231.89
  A 0.29 0.28 -52.6 0 1 61.42 231.85
  Q 61.86 232.02 61.67 232.66
  Q 61.63 232.78 61.32 232.87
  Q 59.18 233.48 58.58 236.38
  A 0.28 0.28 0.0 0 0 59.07 236.61
  L 60.63 234.65
  A 0.25 0.17 -73.2 0 1 60.72 234.58
  Q 62.29 233.97 59.48 238.19
  Q 58.28 240.01 56.44 240.16
  A 1.41 1.12 -76.2 0 1 55.52 238.16
  Q 56.25 236.63 57.09 235.92
  A 1.32 1.31 -13.3 0 0 57.55 235.18
  Q 57.88 233.71 58.77 232.93
  A 0.85 0.84 69.4 0 0 59.05 232.30
  L 59.05 226.15
  A 0.50 0.48 -65.1 0 0 58.95 225.85
  Q 57.90 224.46 59.63 222.04
  A 0.79 0.79 0.0 0 1 60.60 221.78
  Q 61.90 222.40 62.55 223.12
  A 0.32 0.32 0.0 0 1 62.13 223.59
  L 61.20 222.92
  A 0.83 0.82 -58.6 0 0 59.99 223.22
  Q 59.33 224.52 59.26 225.59
  A 1.05 1.04 -63.2 0 0 59.49 226.30
  Q 60.29 227.31 60.28 229.01
  A 0.86 0.81 80.7 0 0 61.37 229.84
  Q 62.49 229.45 63.13 228.43
  A 0.22 0.22 0.0 0 1 63.44 228.36
  L 63.45 228.36
  A 0.25 0.25 0.0 0 1 63.52 228.71
  Q 62.64 230.02 60.83 231.06
  Q 60.23 231.41 60.27 232.09
  A 0.24 0.23 69.9 0 0 60.64 232.27
  Z
  M 58.6231 237.9979
  A 1.45 0.60 -16.1 0 0 57.0636 237.8235
  A 1.45 0.60 -16.1 0 0 55.8369 238.8021
  A 1.45 0.60 -16.1 0 0 57.3964 238.9765
  A 1.45 0.60 -16.1 0 0 58.6231 237.9979
  Z"
/>
<path fill="#ffffff" d="
  M 71.50 223.78
  Q 70.98 224.60 70.31 224.89
  A 0.23 0.22 -86.4 0 1 70.03 224.57
  Q 70.17 224.32 71.21 223.52
  A 0.20 0.20 0.0 0 1 71.50 223.78
  Z"
/>
<ellipse fill="#ffffff" cx="0.00" cy="0.00" transform="translate(62.04,225.59) rotate(-174.2)" rx="0.89" ry="0.32"/>
<ellipse fill="#ffffff" cx="0.00" cy="0.00" transform="translate(66.73,227.34) rotate(-46.1)" rx="1.82" ry="0.25"/>
<path fill="#ffffff" d="
  M 63.24 226.67
  A 0.19 0.18 42.0 0 1 63.22 226.32
  Q 63.40 226.25 63.57 226.38
  A 0.15 0.15 0.0 0 1 63.59 226.61
  Q 63.47 226.73 63.24 226.67
  Z"
/>
<path fill="#ffffff" d="
  M 61.57 227.39
  L 62.33 227.12
  A 0.27 0.26 -12.2 0 1 62.68 227.34
  Q 62.73 227.90 61.60 227.73
  A 0.18 0.18 0.0 0 1 61.57 227.39
  Z"
/>
<path fill="#ffffff" d="
  M 46.29 230.11
  Q 46.00 232.13 44.55 233.59
  A 0.19 0.18 42.6 0 1 44.30 233.60
  L 44.29 233.59
  A 0.27 0.26 41.1 0 1 44.27 233.32
  L 45.29 231.39
  A 0.73 0.72 -66.2 0 0 44.90 230.37
  Q 42.86 229.63 41.69 230.71
  A 0.51 0.48 33.6 0 1 41.18 230.80
  Q 40.85 230.67 40.80 230.29
  A 0.40 0.40 0.0 0 1 41.06 229.85
  Q 42.53 229.33 45.94 229.66
  A 0.39 0.39 0.0 0 1 46.29 230.11
  Z"
/>
<path fill="#ffffff" d="
  M 54.58 229.78
  Q 54.45 229.85 51.72 230.48
  A 1.70 1.66 -70.9 0 0 51.02 230.83
  L 46.75 234.46
  A 0.21 0.21 0.0 0 1 46.50 234.47
  A 0.18 0.17 41.1 0 1 46.48 234.24
  C 48.40 231.79 51.24 229.78 54.48 229.48
  A 0.16 0.16 0.0 0 1 54.58 229.78
  Z"
/>
<path fill="#ffffff" d="
  M 31.22 231.19
  Q 30.86 230.61 30.82 230.50
  A 0.40 0.39 14.0 0 1 31.49 230.10
  Q 32.13 230.84 31.84 231.22
  A 0.38 0.37 47.6 0 1 31.22 231.19
  Z"
/>
<path fill="#ffffff" d="
  M 54.79 231.37
  Q 54.80 231.36 55.22 231.27
  A 0.20 0.19 14.7 0 1 55.41 231.59
  Q 55.19 231.84 55.02 231.87
  A 0.29 0.28 -69.9 0 1 54.79 231.37
  Z"
/>
<path fill="#ffffff" d="
  M 40.72 231.61
  L 40.72 233.11
  A 0.26 0.26 0.0 0 1 40.22 233.23
  Q 40.03 232.84 40.38 231.56
  A 0.17 0.17 0.0 0 1 40.72 231.61
  Z"
/>
<path fill="#ffffff" d="
  M 42.44 231.64
  Q 42.84 231.81 42.62 232.64
  A 0.15 0.15 0.0 0 1 42.32 232.60
  L 42.32 231.71
  A 0.09 0.08 12.3 0 1 42.44 231.64
  Z"
/>
<path fill="#ffffff" d="
  M 57.86 232.66
  Q 57.68 232.63 57.62 232.49
  A 0.09 0.09 0.0 0 1 57.74 232.37
  Q 57.76 232.38 57.91 232.58
  A 0.05 0.05 0.0 0 1 57.86 232.66
  Z"
/>
<path fill="#ffffff" d="
  M 55.01 233.65
  Q 55.00 233.28 55.47 233.23
  A 0.22 0.20 57.2 0 1 55.62 233.27
  Q 55.77 233.40 55.55 233.70
  A 0.32 0.25 -32.8 0 1 55.01 233.65
  Z"
/>
<path fill="#ffffff" d="
  M 39.21 234.20
  Q 39.55 234.22 39.61 234.39
  A 0.13 0.13 0.0 0 1 39.43 234.55
  Q 39.30 234.49 39.21 234.20
  Z"
/>
<path fill="#ffffff" d="
  M 41.24 234.76
  Q 41.17 234.54 41.20 234.45
  A 0.32 0.25 -46.4 0 1 41.74 234.37
  Q 41.78 234.59 41.47 234.83
  A 0.15 0.15 0.0 0 1 41.24 234.76
  Z"
/>
<path fill="#ffffff" d="
  M 42.63 235.25
  A 0.14 0.14 0.0 0 1 42.74 235.50
  Q 42.44 235.73 42.33 235.57
  A 0.14 0.13 -36.9 0 1 42.36 235.39
  Q 42.52 235.26 42.63 235.25
  Z"
/>
<path fill="#ffffff" d="
  M 52.61 236.44
  A 0.27 0.26 27.0 0 1 52.11 236.60
  Q 51.81 235.95 52.29 236.09
  A 0.37 0.31 76.1 0 1 52.43 236.19
  Q 52.61 236.42 52.61 236.44
  Z"
/>
<path fill="#ffffff" d="
  M 49.71 236.54
  Q 50.42 237.16 50.44 237.26
  A 0.29 0.29 0.0 0 1 49.94 237.48
  Q 49.33 236.80 49.33 236.79
  A 0.24 0.24 0.0 0 1 49.71 236.54
  Z"
/>
<path fill="#ffffff" d="
  M 46.95 236.74
  Q 47.53 237.12 47.61 237.37
  A 0.33 0.33 0.0 0 1 47.10 237.74
  Q 47.03 237.68 46.65 237.01
  A 0.21 0.20 2.1 0 1 46.95 236.74
  Z"
/>
<ellipse fill="#000000" cx="0.00" cy="0.00" transform="translate(57.23,238.40) rotate(-16.1)" rx="1.45" ry="0.60"/>
<path fill="#ffffff" d="
  M 47.54 243.34
  Q 48.39 243.90 48.68 244.50
  A 1.28 1.27 -24.6 0 0 50.32 245.10
  Q 52.22 244.30 53.82 243.85
  Q 54.07 243.78 54.15 243.19
  A 0.36 0.35 -0.6 0 0 53.74 242.79
  Q 52.71 242.96 52.50 242.43
  A 0.53 0.53 0.0 0 1 52.78 241.74
  Q 53.73 241.34 54.26 239.99
  A 0.36 0.36 0.0 0 1 54.80 239.83
  L 55.09 240.04
  A 0.37 0.37 0.0 0 1 55.09 240.64
  Q 54.83 240.84 54.21 241.17
  A 0.45 0.43 -11.7 0 0 53.99 241.49
  Q 53.91 242.05 54.08 242.24
  A 0.43 0.43 0.0 0 0 54.76 242.18
  Q 55.25 241.42 55.43 241.24
  A 0.38 0.38 0.0 0 1 56.02 241.70
  Q 54.14 245.12 50.16 246.13
  A 0.54 0.54 0.0 0 1 49.64 245.99
  L 47.29 243.64
  A 0.20 0.20 0.0 0 1 47.54 243.34
  Z"
/>
<ellipse fill="#ffffff" cx="0.00" cy="0.00" transform="translate(45.46,244.46) rotate(-134.7)" rx="1.62" ry="0.25"/>
</svg>
