<svg xmlns="http://www.w3.org/2000/svg" xmlns:xlink="http://www.w3.org/1999/xlink" width="255" height="83" viewBox="0 0 255 83">
  <defs>
    <linearGradient id="linear-gradient" x1="0.5" x2="0.5" y2="1" gradientUnits="objectBoundingBox">
      <stop offset="0" stop-color="#253af3"/>
      <stop offset="1" stop-color="#2502ab"/>
    </linearGradient>
    <clipPath id="clip-logo_must_grad_hor">
      <rect width="255" height="83"/>
    </clipPath>
  </defs>
  <g id="logo_must_grad_hor" data-name="logo must grad hor" clip-path="url(#clip-logo_must_grad_hor)">
    <g id="Group_88" data-name="Group 88" transform="translate(-102.929 -1872.87)">
      <g id="Group_87" data-name="Group 87" style="isolation: isolate">
        <path id="Path_411" data-name="Path 411" d="M189.653,1902.809h8.556v3.967h.124a10.261,10.261,0,0,1,1.457-1.642,10.983,10.983,0,0,1,2.108-1.52,13.181,13.181,0,0,1,2.635-1.116,10.423,10.423,0,0,1,3.038-.434,15.522,15.522,0,0,1,6.076,1.148,13.556,13.556,0,0,1,4.681,3.223,14.4,14.4,0,0,1,3.007,4.929,17.937,17.937,0,0,1,1.054,6.262,19.018,19.018,0,0,1-.96,6.046,16.65,16.65,0,0,1-2.729,5.114,13.33,13.33,0,0,1-4.309,3.566,12.238,12.238,0,0,1-5.766,1.332,15.986,15.986,0,0,1-5.425-.9,8.678,8.678,0,0,1-4.123-3.068h-.124v17.359h-9.3Zm8.556,15.065a7.8,7.8,0,0,0,1.953,5.519,8.2,8.2,0,0,0,10.975,0,8.777,8.777,0,0,0,0-11.037,8.2,8.2,0,0,0-10.975,0A7.8,7.8,0,0,0,198.209,1917.874Z"/>
        <path id="Path_412" data-name="Path 412" d="M227.225,1893.322a5.4,5.4,0,1,1,1.581,3.814A5.189,5.189,0,0,1,227.225,1893.322Zm.744,9.487h9.3v30.131h-9.3Z"/>
        <path id="Path_413" data-name="Path 413" d="M244.089,1886.068h9.3v46.872h-9.3Z"/>
        <path id="Path_414" data-name="Path 414" d="M256.922,1902.809h10.044l7.626,20.46h.124l7.068-20.46h9.362l-11.9,30.131h-9.858Z"/>
        <path id="Path_415" data-name="Path 415" d="M293.936,1893.322a5.4,5.4,0,1,1,1.581,3.814A5.189,5.189,0,0,1,293.936,1893.322Zm.744,9.487h9.3v30.131h-9.3Z"/>
        <path id="Path_416" data-name="Path 416" d="M309.56,1917.874a15.779,15.779,0,0,1,1.3-6.51,14.986,14.986,0,0,1,3.565-4.991,15.736,15.736,0,0,1,5.332-3.192,19.709,19.709,0,0,1,13.082,0,15.775,15.775,0,0,1,5.332,3.192,15.012,15.012,0,0,1,3.564,4.991,16.928,16.928,0,0,1,0,13.021,14.979,14.979,0,0,1-3.564,4.99,15.746,15.746,0,0,1-5.332,3.193,19.727,19.727,0,0,1-13.082,0,15.707,15.707,0,0,1-5.332-3.193,14.953,14.953,0,0,1-3.565-4.99A15.774,15.774,0,0,1,309.56,1917.874Zm9.3,0a7.8,7.8,0,0,0,1.952,5.519,8.2,8.2,0,0,0,10.974,0,8.77,8.77,0,0,0,0-11.037,8.2,8.2,0,0,0-10.974,0A7.8,7.8,0,0,0,318.86,1917.874Z"/>
      </g>
      <path id="Ellipse_189" data-name="Ellipse 189" d="M8.79,22.843A11.592,11.592,0,1,1,22.843,14.4,11.592,11.592,0,0,1,8.79,22.843Z" transform="translate(109.055 1931.78) rotate(-45)" fill="url(#linear-gradient)"/>
      <path id="Path_374" data-name="Path 374" d="M-116.262,820.737a22.916,22.916,0,0,1-32.409-.02,22.917,22.917,0,0,1-6.421-12.614,23,23,0,0,1,6.439-19.8,22.918,22.918,0,0,1,32.411.023,22.913,22.913,0,0,1,6.419,12.61A23,23,0,0,1-116.262,820.737Zm-23.481-23.519a10.315,10.315,0,0,0-.02,14.587,10.314,10.314,0,0,0,8.916,2.9,10.235,10.235,0,0,0,5.672-2.883,10.317,10.317,0,0,0,.017-14.59,10.317,10.317,0,0,0-8.913-2.9A10.231,10.231,0,0,0-139.743,797.218Z" transform="translate(275 1111)"/>
      <path id="Ellipse_191" data-name="Ellipse 191" d="M13.082,34A17.253,17.253,0,1,1,34,21.431,17.253,17.253,0,0,1,13.082,34Z" transform="translate(134.202 1899.417) rotate(-45)" fill="url(#linear-gradient)"/>
    </g>
  </g>
</svg>
