<?xml version="1.0" encoding="UTF-8" standalone="no"?>
<!DOCTYPE svg PUBLIC "-//W3C//DTD SVG 1.1//EN" "http://www.w3.org/Graphics/SVG/1.1/DTD/svg11.dtd">
<svg xmlns="http://www.w3.org/2000/svg" version="1.1" viewBox="0.00 0.00 400.00 400.00">
<g stroke-width="2.00" fill="none" stroke-linecap="butt">
<path stroke="#8c8ea9" vector-effect="non-scaling-stroke" d="
  M 17.17 0.00
  Q 2.39 2.35 0.00 17.11"
/>
<path stroke="#8c8ea9" vector-effect="non-scaling-stroke" d="
  M 382.86 0.00
  Q 397.64 2.37 400.00 17.17"
/>
<path stroke="#8c8ea9" vector-effect="non-scaling-stroke" d="
  M 400.00 382.62
  Q 397.74 397.82 382.54 400.00"
/>
<path stroke="#8c8ea9" vector-effect="non-scaling-stroke" d="
  M 17.32 400.00
  Q 2.48 397.80 0.00 382.95"
/>
<path stroke="#861748" vector-effect="non-scaling-stroke" d="
  M 312.33 122.32
  A 45.42 45.42 0.0 0 0 266.91 76.90
  A 45.42 45.42 0.0 0 0 221.49 122.32
  A 45.42 45.42 0.0 0 0 266.91 167.74
  A 45.42 45.42 0.0 0 0 312.33 122.32"
/>
<path stroke="#8c8ea9" vector-effect="non-scaling-stroke" d="
  M 214.91 124.55
  A 0.23 0.23 0.0 0 0 215.19 124.34
  L 215.87 110.85
  A 0.81 0.81 0.0 0 0 215.17 110.00
  L 208.05 109.01
  A 1.01 1.01 0.0 0 1 207.18 108.01
  Q 207.17 99.21 207.22 95.14
  Q 207.28 91.18 206.29 89.37
  C 202.49 82.37 193.07 85.54 192.92 93.04
  Q 192.77 101.00 192.87 108.32
  A 0.70 0.69 87.9 0 1 192.22 109.03
  Q 187.53 109.33 182.98 110.47
  C 154.33 117.72 133.75 138.98 127.11 167.74
  Q 125.49 174.73 125.66 189.87
  Q 125.76 199.60 125.68 250.42
  A 2.08 2.07 58.2 0 1 125.47 251.33
  Q 124.73 252.85 123.24 254.24
  Q 117.95 259.23 107.23 270.19
  Q 102.93 274.59 102.63 280.08
  C 102.46 283.25 102.17 288.30 103.20 291.43
  Q 105.72 299.10 112.66 302.16
  Q 116.08 303.68 124.51 303.55
  Q 136.08 303.37 168.10 303.54
  A 0.74 0.73 -4.0 0 1 168.83 304.17
  C 170.72 317.47 182.73 328.01 195.67 329.73
  Q 207.59 331.32 217.86 324.61
  Q 228.51 317.63 231.49 303.91
  A 0.49 0.49 0.0 0 1 231.96 303.52
  Q 264.93 303.35 274.12 303.54
  Q 283.70 303.73 287.21 302.24
  C 293.88 299.40 297.49 293.27 297.53 285.97
  Q 297.56 279.94 297.22 278.78
  Q 295.44 272.70 292.72 270.01
  Q 280.74 258.20 275.10 252.70
  A 2.30 2.28 -67.9 0 1 274.42 251.07
  Q 274.37 211.98 274.40 184.16
  C 274.40 180.64 274.00 177.84 273.67 173.57
  A 0.55 0.55 0.0 0 0 273.07 173.07
  Q 266.07 173.72 259.71 172.89
  A 0.30 0.30 0.0 0 0 259.37 173.21
  C 259.74 177.84 260.12 182.27 260.12 187.27
  Q 260.13 219.94 260.10 249.75
  C 260.09 256.38 262.62 260.62 267.59 265.53
  Q 278.90 276.70 282.04 279.85
  A 4.14 4.13 22.7 0 1 283.24 282.76
  L 283.24 287.29
  A 2.00 2.00 0.0 0 1 281.24 289.29
  L 119.15 289.29
  A 2.35 2.35 0.0 0 1 116.80 286.94
  L 116.80 282.02
  A 2.21 2.20 -22.2 0 1 117.47 280.44
  Q 123.42 274.63 135.39 262.49
  Q 139.92 257.90 139.93 251.23
  Q 140.03 197.99 139.91 189.70
  Q 139.70 175.86 141.34 169.42
  Q 145.83 151.90 157.13 140.88
  Q 181.36 117.28 214.91 124.55"
/>
<path stroke="#8c8ea9" vector-effect="non-scaling-stroke" d="
  M 345.73 202.46
  C 345.73 224.00 337.97 243.34 323.06 259.20
  C 319.97 262.50 318.59 266.22 321.69 269.55
  Q 327.03 275.31 332.54 269.67
  Q 352.37 249.37 358.10 221.91
  C 359.45 215.45 359.79 209.13 359.79 202.46
  C 359.79 195.79 359.45 189.47 358.10 183.01
  Q 352.37 155.55 332.55 135.25
  Q 327.04 129.61 321.70 135.37
  C 318.60 138.70 319.98 142.42 323.07 145.71
  C 337.97 161.58 345.74 180.92 345.73 202.46"
/>
<path stroke="#8c8ea9" vector-effect="non-scaling-stroke" d="
  M 54.30 202.45
  C 54.30 180.90 62.07 161.55 76.98 145.68
  C 80.07 142.38 81.45 138.66 78.35 135.33
  Q 73.01 129.57 67.49 135.21
  Q 47.66 155.52 41.93 182.99
  C 40.58 189.46 40.24 195.78 40.24 202.45
  C 40.24 209.13 40.58 215.44 41.93 221.91
  Q 47.67 249.38 67.51 269.68
  Q 73.02 275.32 78.36 269.56
  C 81.46 266.23 80.08 262.51 76.99 259.21
  C 62.08 243.35 54.31 224.00 54.30 202.45"
/>
<path stroke="#8c8ea9" vector-effect="non-scaling-stroke" d="
  M 75.37 202.47
  C 75.38 218.33 81.76 233.53 92.93 244.80
  Q 96.13 248.03 100.08 246.78
  C 103.20 245.80 106.06 242.21 105.08 238.61
  Q 104.51 236.51 104.02 236.03
  C 94.84 227.07 89.67 215.36 89.66 202.46
  C 89.65 189.57 94.80 177.85 103.97 168.88
  Q 104.46 168.39 105.02 166.29
  C 106.00 162.69 103.13 159.10 100.01 158.13
  Q 96.06 156.88 92.86 160.12
  C 81.71 171.40 75.36 186.62 75.37 202.47"
/>
<path stroke="#8c8ea9" vector-effect="non-scaling-stroke" d="
  M 295.57 164.98
  A 1.76 1.76 0.0 0 0 295.21 167.31
  C 297.25 170.46 300.66 173.55 302.72 176.81
  Q 314.36 195.24 308.54 215.83
  Q 306.05 224.63 298.55 233.37
  Q 295.59 236.81 295.11 238.11
  C 293.35 242.92 298.50 247.67 302.92 247.18
  Q 305.46 246.90 309.27 242.56
  Q 323.11 226.75 324.30 206.13
  C 325.30 188.80 318.93 170.44 305.44 158.62
  A 1.54 1.54 0.0 0 0 303.45 158.58
  L 295.57 164.98"
/>
<path stroke="#f9899e" vector-effect="non-scaling-stroke" d="
  M 265.19 108.81
  L 265.19 143.69
  A 0.96 0.96 0.0 0 0 266.15 144.65
  L 271.78 144.65
  A 1.02 1.02 0.0 0 0 272.80 143.63
  L 272.80 100.84
  A 0.71 0.70 -85.8 0 0 272.20 100.14
  Q 268.02 99.47 263.92 101.40
  Q 258.52 103.95 256.83 105.53
  A 1.04 1.03 61.6 0 0 256.53 106.56
  L 257.74 111.30
  A 0.73 0.73 0.0 0 0 258.82 111.75
  L 264.56 108.44
  A 0.42 0.42 0.0 0 1 265.19 108.81"
/>
<path stroke="#8c8ea9" vector-effect="non-scaling-stroke" d="
  M 200.10 315.79
  C 207.21 315.79 213.85 311.23 216.55 304.28
  A 0.56 0.56 0.0 0 0 216.14 303.53
  Q 216.04 303.51 200.10 303.50
  Q 184.16 303.50 184.06 303.52
  A 0.56 0.56 0.0 0 0 183.65 304.27
  C 186.35 311.22 192.99 315.79 200.10 315.79"
/>
</g>
<path fill="#ffffff" d="
  M 17.17 0.00
  Q 2.39 2.35 0.00 17.11
  L 0.00 0.00
  L 17.17 0.00
  Z"
/>
<path fill="#191c53" d="
  M 382.86 0.00
  Q 397.64 2.37 400.00 17.17
  L 400.00 382.62
  Q 397.74 397.82 382.54 400.00
  L 17.32 400.00
  Q 2.48 397.80 0.00 382.95
  L 0.00 17.11
  Q 2.39 2.35 17.17 0.00
  L 382.86 0.00
  Z
  M 312.33 122.32
  A 45.42 45.42 0.0 0 0 266.91 76.90
  A 45.42 45.42 0.0 0 0 221.49 122.32
  A 45.42 45.42 0.0 0 0 266.91 167.74
  A 45.42 45.42 0.0 0 0 312.33 122.32
  Z
  M 214.91 124.55
  A 0.23 0.23 0.0 0 0 215.19 124.34
  L 215.87 110.85
  A 0.81 0.81 0.0 0 0 215.17 110.00
  L 208.05 109.01
  A 1.01 1.01 0.0 0 1 207.18 108.01
  Q 207.17 99.21 207.22 95.14
  Q 207.28 91.18 206.29 89.37
  C 202.49 82.37 193.07 85.54 192.92 93.04
  Q 192.77 101.00 192.87 108.32
  A 0.70 0.69 87.9 0 1 192.22 109.03
  Q 187.53 109.33 182.98 110.47
  C 154.33 117.72 133.75 138.98 127.11 167.74
  Q 125.49 174.73 125.66 189.87
  Q 125.76 199.60 125.68 250.42
  A 2.08 2.07 58.2 0 1 125.47 251.33
  Q 124.73 252.85 123.24 254.24
  Q 117.95 259.23 107.23 270.19
  Q 102.93 274.59 102.63 280.08
  C 102.46 283.25 102.17 288.30 103.20 291.43
  Q 105.72 299.10 112.66 302.16
  Q 116.08 303.68 124.51 303.55
  Q 136.08 303.37 168.10 303.54
  A 0.74 0.73 -4.0 0 1 168.83 304.17
  C 170.72 317.47 182.73 328.01 195.67 329.73
  Q 207.59 331.32 217.86 324.61
  Q 228.51 317.63 231.49 303.91
  A 0.49 0.49 0.0 0 1 231.96 303.52
  Q 264.93 303.35 274.12 303.54
  Q 283.70 303.73 287.21 302.24
  C 293.88 299.40 297.49 293.27 297.53 285.97
  Q 297.56 279.94 297.22 278.78
  Q 295.44 272.70 292.72 270.01
  Q 280.74 258.20 275.10 252.70
  A 2.30 2.28 -67.9 0 1 274.42 251.07
  Q 274.37 211.98 274.40 184.16
  C 274.40 180.64 274.00 177.84 273.67 173.57
  A 0.55 0.55 0.0 0 0 273.07 173.07
  Q 266.07 173.72 259.71 172.89
  A 0.30 0.30 0.0 0 0 259.37 173.21
  C 259.74 177.84 260.12 182.27 260.12 187.27
  Q 260.13 219.94 260.10 249.75
  C 260.09 256.38 262.62 260.62 267.59 265.53
  Q 278.90 276.70 282.04 279.85
  A 4.14 4.13 22.7 0 1 283.24 282.76
  L 283.24 287.29
  A 2.00 2.00 0.0 0 1 281.24 289.29
  L 119.15 289.29
  A 2.35 2.35 0.0 0 1 116.80 286.94
  L 116.80 282.02
  A 2.21 2.20 -22.2 0 1 117.47 280.44
  Q 123.42 274.63 135.39 262.49
  Q 139.92 257.90 139.93 251.23
  Q 140.03 197.99 139.91 189.70
  Q 139.70 175.86 141.34 169.42
  Q 145.83 151.90 157.13 140.88
  Q 181.36 117.28 214.91 124.55
  Z
  M 345.73 202.46
  C 345.73 224.00 337.97 243.34 323.06 259.20
  C 319.97 262.50 318.59 266.22 321.69 269.55
  Q 327.03 275.31 332.54 269.67
  Q 352.37 249.37 358.10 221.91
  C 359.45 215.45 359.79 209.13 359.79 202.46
  C 359.79 195.79 359.45 189.47 358.10 183.01
  Q 352.37 155.55 332.55 135.25
  Q 327.04 129.61 321.70 135.37
  C 318.60 138.70 319.98 142.42 323.07 145.71
  C 337.97 161.58 345.74 180.92 345.73 202.46
  Z
  M 54.30 202.45
  C 54.30 180.90 62.07 161.55 76.98 145.68
  C 80.07 142.38 81.45 138.66 78.35 135.33
  Q 73.01 129.57 67.49 135.21
  Q 47.66 155.52 41.93 182.99
  C 40.58 189.46 40.24 195.78 40.24 202.45
  C 40.24 209.13 40.58 215.44 41.93 221.91
  Q 47.67 249.38 67.51 269.68
  Q 73.02 275.32 78.36 269.56
  C 81.46 266.23 80.08 262.51 76.99 259.21
  C 62.08 243.35 54.31 224.00 54.30 202.45
  Z
  M 75.37 202.47
  C 75.38 218.33 81.76 233.53 92.93 244.80
  Q 96.13 248.03 100.08 246.78
  C 103.20 245.80 106.06 242.21 105.08 238.61
  Q 104.51 236.51 104.02 236.03
  C 94.84 227.07 89.67 215.36 89.66 202.46
  C 89.65 189.57 94.80 177.85 103.97 168.88
  Q 104.46 168.39 105.02 166.29
  C 106.00 162.69 103.13 159.10 100.01 158.13
  Q 96.06 156.88 92.86 160.12
  C 81.71 171.40 75.36 186.62 75.37 202.47
  Z
  M 295.57 164.98
  A 1.76 1.76 0.0 0 0 295.21 167.31
  C 297.25 170.46 300.66 173.55 302.72 176.81
  Q 314.36 195.24 308.54 215.83
  Q 306.05 224.63 298.55 233.37
  Q 295.59 236.81 295.11 238.11
  C 293.35 242.92 298.50 247.67 302.92 247.18
  Q 305.46 246.90 309.27 242.56
  Q 323.11 226.75 324.30 206.13
  C 325.30 188.80 318.93 170.44 305.44 158.62
  A 1.54 1.54 0.0 0 0 303.45 158.58
  L 295.57 164.98
  Z"
/>
<path fill="#ffffff" d="
  M 400.00 0.00
  L 400.00 17.17
  Q 397.64 2.37 382.86 0.00
  L 400.00 0.00
  Z"
/>
<path fill="#f2123c" d="
  M 312.33 122.32
  A 45.42 45.42 0.0 0 1 266.91 167.74
  A 45.42 45.42 0.0 0 1 221.49 122.32
  A 45.42 45.42 0.0 0 1 266.91 76.90
  A 45.42 45.42 0.0 0 1 312.33 122.32
  Z
  M 265.19 108.81
  L 265.19 143.69
  A 0.96 0.96 0.0 0 0 266.15 144.65
  L 271.78 144.65
  A 1.02 1.02 0.0 0 0 272.80 143.63
  L 272.80 100.84
  A 0.71 0.70 -85.8 0 0 272.20 100.14
  Q 268.02 99.47 263.92 101.40
  Q 258.52 103.95 256.83 105.53
  A 1.04 1.03 61.6 0 0 256.53 106.56
  L 257.74 111.30
  A 0.73 0.73 0.0 0 0 258.82 111.75
  L 264.56 108.44
  A 0.42 0.42 0.0 0 1 265.19 108.81
  Z"
/>
<path fill="#ffffff" d="
  M 214.91 124.55
  Q 181.36 117.28 157.13 140.88
  Q 145.83 151.90 141.34 169.42
  Q 139.70 175.86 139.91 189.70
  Q 140.03 197.99 139.93 251.23
  Q 139.92 257.90 135.39 262.49
  Q 123.42 274.63 117.47 280.44
  A 2.21 2.20 -22.2 0 0 116.80 282.02
  L 116.80 286.94
  A 2.35 2.35 0.0 0 0 119.15 289.29
  L 281.24 289.29
  A 2.00 2.00 0.0 0 0 283.24 287.29
  L 283.24 282.76
  A 4.14 4.13 22.7 0 0 282.04 279.85
  Q 278.90 276.70 267.59 265.53
  C 262.62 260.62 260.09 256.38 260.10 249.75
  Q 260.13 219.94 260.12 187.27
  C 260.12 182.27 259.74 177.84 259.37 173.21
  A 0.30 0.30 0.0 0 1 259.71 172.89
  Q 266.07 173.72 273.07 173.07
  A 0.55 0.55 0.0 0 1 273.67 173.57
  C 274.00 177.84 274.40 180.64 274.40 184.16
  Q 274.37 211.98 274.42 251.07
  A 2.30 2.28 -67.9 0 0 275.10 252.70
  Q 280.74 258.20 292.72 270.01
  Q 295.44 272.70 297.22 278.78
  Q 297.56 279.94 297.53 285.97
  C 297.49 293.27 293.88 299.40 287.21 302.24
  Q 283.70 303.73 274.12 303.54
  Q 264.93 303.35 231.96 303.52
  A 0.49 0.49 0.0 0 0 231.49 303.91
  Q 228.51 317.63 217.86 324.61
  Q 207.59 331.32 195.67 329.73
  C 182.73 328.01 170.72 317.47 168.83 304.17
  A 0.74 0.73 -4.0 0 0 168.10 303.54
  Q 136.08 303.37 124.51 303.55
  Q 116.08 303.68 112.66 302.16
  Q 105.72 299.10 103.20 291.43
  C 102.17 288.30 102.46 283.25 102.63 280.08
  Q 102.93 274.59 107.23 270.19
  Q 117.95 259.23 123.24 254.24
  Q 124.73 252.85 125.47 251.33
  A 2.08 2.07 58.2 0 0 125.68 250.42
  Q 125.76 199.60 125.66 189.87
  Q 125.49 174.73 127.11 167.74
  C 133.75 138.98 154.33 117.72 182.98 110.47
  Q 187.53 109.33 192.22 109.03
  A 0.70 0.69 87.9 0 0 192.87 108.32
  Q 192.77 101.00 192.92 93.04
  C 193.07 85.54 202.49 82.37 206.29 89.37
  Q 207.28 91.18 207.22 95.14
  Q 207.17 99.21 207.18 108.01
  A 1.01 1.01 0.0 0 0 208.05 109.01
  L 215.17 110.00
  A 0.81 0.81 0.0 0 1 215.87 110.85
  L 215.19 124.34
  A 0.23 0.23 0.0 0 1 214.91 124.55
  Z
  M 200.10 315.79
  C 207.21 315.79 213.85 311.23 216.55 304.28
  A 0.56 0.56 0.0 0 0 216.14 303.53
  Q 216.04 303.51 200.10 303.50
  Q 184.16 303.50 184.06 303.52
  A 0.56 0.56 0.0 0 0 183.65 304.27
  C 186.35 311.22 192.99 315.79 200.10 315.79
  Z"
/>
<path fill="#ffffff" d="
  M 265.19 108.81
  A 0.42 0.42 0.0 0 0 264.56 108.44
  L 258.82 111.75
  A 0.73 0.73 0.0 0 1 257.74 111.30
  L 256.53 106.56
  A 1.04 1.03 61.6 0 1 256.83 105.53
  Q 258.52 103.95 263.92 101.40
  Q 268.02 99.47 272.20 100.14
  A 0.71 0.70 -85.8 0 1 272.80 100.84
  L 272.80 143.63
  A 1.02 1.02 0.0 0 1 271.78 144.65
  L 266.15 144.65
  A 0.96 0.96 0.0 0 1 265.19 143.69
  L 265.19 108.81
  Z"
/>
<path fill="#ffffff" d="
  M 359.79 202.46
  C 359.79 209.13 359.45 215.45 358.10 221.91
  Q 352.37 249.37 332.54 269.67
  Q 327.03 275.31 321.69 269.55
  C 318.59 266.22 319.97 262.50 323.06 259.20
  C 337.97 243.34 345.73 224.00 345.73 202.46
  C 345.74 180.92 337.97 161.58 323.07 145.71
  C 319.98 142.42 318.60 138.70 321.70 135.37
  Q 327.04 129.61 332.55 135.25
  Q 352.37 155.55 358.10 183.01
  C 359.45 189.47 359.79 195.79 359.79 202.46
  Z"
/>
<path fill="#ffffff" d="
  M 54.30 202.45
  C 54.31 224.00 62.08 243.35 76.99 259.21
  C 80.08 262.51 81.46 266.23 78.36 269.56
  Q 73.02 275.32 67.51 269.68
  Q 47.67 249.38 41.93 221.91
  C 40.58 215.44 40.24 209.13 40.24 202.45
  C 40.24 195.78 40.58 189.46 41.93 182.99
  Q 47.66 155.52 67.49 135.21
  Q 73.01 129.57 78.35 135.33
  C 81.45 138.66 80.07 142.38 76.98 145.68
  C 62.07 161.55 54.30 180.90 54.30 202.45
  Z"
/>
<path fill="#ffffff" d="
  M 89.66 202.46
  C 89.67 215.36 94.84 227.07 104.02 236.03
  Q 104.51 236.51 105.08 238.61
  C 106.06 242.21 103.20 245.80 100.08 246.78
  Q 96.13 248.03 92.93 244.80
  C 81.76 233.53 75.38 218.33 75.37 202.47
  C 75.36 186.62 81.71 171.40 92.86 160.12
  Q 96.06 156.88 100.01 158.13
  C 103.13 159.10 106.00 162.69 105.02 166.29
  Q 104.46 168.39 103.97 168.88
  C 94.80 177.85 89.65 189.57 89.66 202.46
  Z"
/>
<path fill="#ffffff" d="
  M 295.57 164.98
  L 303.45 158.58
  A 1.54 1.54 0.0 0 1 305.44 158.62
  C 318.93 170.44 325.30 188.80 324.30 206.13
  Q 323.11 226.75 309.27 242.56
  Q 305.46 246.90 302.92 247.18
  C 298.50 247.67 293.35 242.92 295.11 238.11
  Q 295.59 236.81 298.55 233.37
  Q 306.05 224.63 308.54 215.83
  Q 314.36 195.24 302.72 176.81
  C 300.66 173.55 297.25 170.46 295.21 167.31
  A 1.76 1.76 0.0 0 1 295.57 164.98
  Z"
/>
<path fill="#191c53" d="
  M 200.10 303.50
  Q 216.04 303.51 216.14 303.53
  A 0.56 0.56 0.0 0 1 216.55 304.28
  C 213.85 311.23 207.21 315.79 200.10 315.79
  C 192.99 315.79 186.35 311.22 183.65 304.27
  A 0.56 0.56 0.0 0 1 184.06 303.52
  Q 184.16 303.50 200.10 303.50
  Z"
/>
<path fill="#ffffff" d="
  M 400.00 382.62
  L 400.00 400.00
  L 382.54 400.00
  Q 397.74 397.82 400.00 382.62
  Z"
/>
<path fill="#ffffff" d="
  M 17.32 400.00
  L 0.00 400.00
  L 0.00 382.95
  Q 2.48 397.80 17.32 400.00
  Z"
/>
</svg>
