<svg xmlns="http://www.w3.org/2000/svg" id="Layer_1" data-name="Layer 1" viewBox="0 0 262.4 56.78"><defs><style>.cls-1{fill:#000000;}</style></defs><path class="cls-1" d="M77.72,3.73H94.93c9.51,0,13.2,6,13.2,12.24s-3.69,12.24-13.2,12.24H86.11V41.89H77.72Zm8.39,18h6.52c3.9,0,7.37-.86,7.37-5.72s-3.47-5.72-7.37-5.72H86.11Z"></path><path class="cls-1" d="M117.69,10H110.1V3.73h7.59Zm-7.59,4.28h7.59V41.89H110.1Z"></path><path class="cls-1" d="M121,14.26h7.22v3.53h.11a9.17,9.17,0,0,1,8.22-4.28c8.66,0,12.56,7,12.56,14.86,0,7.37-4.06,14.26-12.13,14.26a9.81,9.81,0,0,1-8.28-4.16h-.11V51.61H121Zm20.52,13.89c0-4.38-1.76-8.92-6.62-8.92s-6.57,4.43-6.57,8.92S130,36.92,135,36.92,141.52,32.64,141.52,28.15Z"></path><path class="cls-1" d="M157.23,29.92c.22,4.81,2.57,7,6.79,7,3,0,5.5-1.87,6-3.58h6.68c-2.14,6.52-6.68,9.29-12.94,9.29-8.71,0-14.1-6-14.1-14.53,0-8.28,5.71-14.59,14.1-14.59,9.41,0,13.95,7.91,13.42,16.41Zm12.35-4.81c-.7-3.85-2.35-5.88-6-5.88a6,6,0,0,0-6.31,5.88Z"></path><path class="cls-1" d="M179.2,3.73h7.59V41.89H179.2Z"></path><path class="cls-1" d="M197.9,10h-7.59V3.73h7.59Zm-7.59,4.28h7.59V41.89h-7.59Z"></path><path class="cls-1" d="M201.21,14.26h7.22v3.85h.16a9.84,9.84,0,0,1,8.44-4.6c8.07,0,10.1,4.54,10.1,11.38v17h-7.59V26.28c0-4.54-1.33-6.78-4.86-6.78-4.12,0-5.88,2.29-5.88,7.9V41.89h-7.59Z"></path><path class="cls-1" d="M236.48,29.92c.21,4.81,2.56,7,6.79,7,3,0,5.5-1.87,6-3.58h6.68c-2.14,6.52-6.68,9.29-12.93,9.29-8.71,0-14.11-6-14.11-14.53,0-8.28,5.72-14.59,14.11-14.59,9.4,0,13.95,7.91,13.41,16.41Zm12.34-4.81c-.69-3.85-2.35-5.88-6-5.88a6,6,0,0,0-6.31,5.88Z"></path><path class="cls-1" d="M7,35.57c0-11.15,7.14-18.13,16-18.13a15.66,15.66,0,1,1,0,31.31c-7,0-12.24-2.21-17.62-7.33a18.9,18.9,0,0,0,17.1,9.89c11.85,0,19.68-8.4,19.68-18.76S34.63,14.14,22.75,14.14A16.74,16.74,0,0,0,7,35.57Z"></path><path class="cls-1" d="M34.42,37.8c-2.38,2.83-6.87,4.47-11.81,4C15.66,41,10.47,35,11,29.9c0,0-.33,5.34,8.42,8.77C28.74,42.34,34.42,37.8,34.42,37.8Z"></path><path class="cls-1" d="M48.92,23.88c0-8.55-7.84-15.47-17.52-15.47a19.15,19.15,0,0,0-9.81,2.65,20.35,20.35,0,0,1,6.15-1c10.31,0,18.67,7.56,18.67,16.88a15.32,15.32,0,0,1-1.62,6.85A14.33,14.33,0,0,0,48.92,23.88Z"></path><path class="cls-1" d="M53,15.87c0-6.52-6-11.8-13.36-11.8a14.64,14.64,0,0,0-7.48,2,15.66,15.66,0,0,1,4.69-.72c7.86,0,14.24,5.76,14.24,12.87a11.9,11.9,0,0,1-1.23,5.23A11,11,0,0,0,53,15.87Z"></path></svg>