<svg xmlns="http://www.w3.org/2000/svg" fill="none" stroke="currentColor" stroke-linecap="round" stroke-linejoin="round" stroke-width="2" class="lucide lucide-book-open" viewBox="0 0 24 24" style="fill: rgba(0, 0, 0, 0) !important; stroke: rgba(0, 0, 0, 0.87) !important; stroke-width: 2px !important; stroke-linecap: round !important; stroke-linejoin: round !important;"><path d="M12 7v14M3 18a1 1 0 0 1-1-1V4a1 1 0 0 1 1-1h5a4 4 0 0 1 4 4 4 4 0 0 1 4-4h5a1 1 0 0 1 1 1v13a1 1 0 0 1-1 1h-6a3 3 0 0 0-3 3 3 3 0 0 0-3-3z" style="fill: rgba(0, 0, 0, 0) !important; stroke: rgba(0, 0, 0, 0.87) !important; stroke-width: 2px !important;"/></svg>