<?xml version="1.0" encoding="UTF-8" standalone="no"?>
<!DOCTYPE svg PUBLIC "-//W3C//DTD SVG 1.1//EN" "http://www.w3.org/Graphics/SVG/1.1/DTD/svg11.dtd">
<svg xmlns="http://www.w3.org/2000/svg" version="1.1" viewBox="0.00 0.00 400.00 400.00">
<g stroke-width="2.00" fill="none" stroke-linecap="butt">
<path stroke="#b2a4eb" vector-effect="non-scaling-stroke" d="
  M 39.18 124.40
  A 177.76 177.34 -28.3 0 0 24.25 173.90"
/>
<path stroke="#a8aaeb" vector-effect="non-scaling-stroke" d="
  M 24.25 173.90
  A 103.82 61.14 -83.7 0 0 22.70 188.50
  A 177.69 177.64 31.5 0 0 47.30 290.71
  A 177.63 177.60 0.8 0 0 105.14 350.11
  A 177.69 177.66 63.0 0 0 188.37 377.16
  A 177.63 177.58 36.6 0 0 262.28 366.26
  A 177.74 177.74 0.0 0 0 320.96 329.97
  A 177.59 177.56 73.6 0 0 374.88 230.93"
/>
<path stroke="#b1b0fe" vector-effect="non-scaling-stroke" d="
  M 374.88 230.93
  A 177.91 177.69 48.6 0 0 377.39 190.96"
/>
<path stroke="#bca9fe" vector-effect="non-scaling-stroke" d="
  M 377.39 190.96
  A 177.67 177.57 29.1 0 0 355.38 113.85
  A 177.73 177.60 2.7 0 0 300.39 53.36
  A 177.80 177.79 -23.6 0 0 225.77 24.14
  A 177.67 177.66 36.8 0 0 125.40 38.67
  A 177.59 177.59 0.0 0 0 44.50 113.98
  A 82.73 40.15 -62.8 0 0 39.18 124.40"
/>
<path stroke="#6e5afd" vector-effect="non-scaling-stroke" d="
  M 377.39 190.96
  Q 374.49 180.13 370.06 169.91
  Q 365.33 158.98 354.07 157.25
  Q 345.55 155.94 336.92 156.07
  C 321.88 156.31 303.62 157.23 285.58 156.03"
/>
<path stroke="#6f4dea" vector-effect="non-scaling-stroke" d="
  M 285.58 156.03
  Q 276.23 126.90 256.34 105.17
  Q 238.19 85.35 212.55 73.67
  Q 201.50 68.64 187.82 65.56
  Q 173.45 62.33 161.99 62.20
  Q 130.40 61.84 101.54 74.74
  Q 73.44 87.31 54.14 109.39
  Q 48.72 115.58 42.04 125.12
  A 0.95 0.94 -70.0 0 1 41.20 125.52
  Q 40.04 125.43 39.18 124.40"
/>
<path stroke="#6455ea" vector-effect="non-scaling-stroke" d="
  M 285.58 156.03
  Q 290.34 171.47 292.18 179.73
  Q 292.79 182.48 291.68 186.43"
/>
<path stroke="#b2a4eb" vector-effect="non-scaling-stroke" d="
  M 291.68 186.43
  C 286.29 149.18 260.90 119.80 224.82 109.55
  Q 202.85 103.31 180.02 108.44
  C 148.28 115.56 123.27 138.06 112.49 169.06"
/>
<path stroke="#5b4fd7" vector-effect="non-scaling-stroke" d="
  M 112.49 169.06
  Q 96.60 172.06 79.35 172.62
  Q 48.15 173.62 24.25 173.90"
/>
<path stroke="#5a5be9" vector-effect="non-scaling-stroke" d="
  M 374.88 230.93
  Q 372.12 236.51 370.10 242.45
  Q 367.64 249.74 366.02 253.13
  Q 360.18 265.37 353.60 275.07
  Q 331.94 307.04 295.40 322.84
  Q 255.67 340.03 212.98 330.49
  C 205.43 328.80 196.75 325.80 190.28 322.97
  Q 162.60 310.85 142.69 288.70
  Q 141.09 286.93 136.16 280.57
  Q 131.59 274.70 129.89 272.20
  C 126.78 267.62 122.03 258.95 119.28 251.74
  Q 117.98 248.33 116.23 245.02
  Q 115.37 243.41 116.09 236.93"
/>
<path stroke="#b1b0fe" vector-effect="non-scaling-stroke" d="
  M 291.68 186.43
  Q 294.78 211.35 285.47 233.71
  C 271.83 266.50 240.23 289.09 204.69 290.61
  C 166.61 292.25 132.50 271.62 116.09 236.93"
/>
<path stroke="#a8aaeb" vector-effect="non-scaling-stroke" d="
  M 116.09 236.93
  Q 101.46 203.71 112.49 169.06"
/>
</g>
<path fill="#ffffff" d="
  M 400.00 0.00
  L 400.00 400.00
  L 0.00 400.00
  L 0.00 0.00
  L 400.00 0.00
  Z
  M 39.18 124.40
  A 177.76 177.34 -28.3 0 0 24.25 173.90
  A 103.82 61.14 -83.7 0 0 22.70 188.50
  A 177.69 177.64 31.5 0 0 47.30 290.71
  A 177.63 177.60 0.8 0 0 105.14 350.11
  A 177.69 177.66 63.0 0 0 188.37 377.16
  A 177.63 177.58 36.6 0 0 262.28 366.26
  A 177.74 177.74 0.0 0 0 320.96 329.97
  A 177.59 177.56 73.6 0 0 374.88 230.93
  A 177.91 177.69 48.6 0 0 377.39 190.96
  A 177.67 177.57 29.1 0 0 355.38 113.85
  A 177.73 177.60 2.7 0 0 300.39 53.36
  A 177.80 177.79 -23.6 0 0 225.77 24.14
  A 177.67 177.66 36.8 0 0 125.40 38.67
  A 177.59 177.59 0.0 0 0 44.50 113.98
  A 82.73 40.15 -62.8 0 0 39.18 124.40
  Z"
/>
<path fill="#7952fd" d="
  M 377.39 190.96
  Q 374.49 180.13 370.06 169.91
  Q 365.33 158.98 354.07 157.25
  Q 345.55 155.94 336.92 156.07
  C 321.88 156.31 303.62 157.23 285.58 156.03
  Q 276.23 126.90 256.34 105.17
  Q 238.19 85.35 212.55 73.67
  Q 201.50 68.64 187.82 65.56
  Q 173.45 62.33 161.99 62.20
  Q 130.40 61.84 101.54 74.74
  Q 73.44 87.31 54.14 109.39
  Q 48.72 115.58 42.04 125.12
  A 0.95 0.94 -70.0 0 1 41.20 125.52
  Q 40.04 125.43 39.18 124.40
  A 82.73 40.15 -62.8 0 1 44.50 113.98
  A 177.59 177.59 0.0 0 1 125.40 38.67
  A 177.67 177.66 36.8 0 1 225.77 24.14
  A 177.80 177.79 -23.6 0 1 300.39 53.36
  A 177.73 177.60 2.7 0 1 355.38 113.85
  A 177.67 177.57 29.1 0 1 377.39 190.96
  Z"
/>
<path fill="#6448d7" d="
  M 285.58 156.03
  Q 290.34 171.47 292.18 179.73
  Q 292.79 182.48 291.68 186.43
  C 286.29 149.18 260.90 119.80 224.82 109.55
  Q 202.85 103.31 180.02 108.44
  C 148.28 115.56 123.27 138.06 112.49 169.06
  Q 96.60 172.06 79.35 172.62
  Q 48.15 173.62 24.25 173.90
  A 177.76 177.34 -28.3 0 1 39.18 124.40
  Q 40.04 125.43 41.20 125.52
  A 0.95 0.94 -70.0 0 0 42.04 125.12
  Q 48.72 115.58 54.14 109.39
  Q 73.44 87.31 101.54 74.74
  Q 130.40 61.84 161.99 62.20
  Q 173.45 62.33 187.82 65.56
  Q 201.50 68.64 212.55 73.67
  Q 238.19 85.35 256.34 105.17
  Q 276.23 126.90 285.58 156.03
  Z"
/>
<path fill="#ffffff" d="
  M 291.68 186.43
  Q 294.78 211.35 285.47 233.71
  C 271.83 266.50 240.23 289.09 204.69 290.61
  C 166.61 292.25 132.50 271.62 116.09 236.93
  Q 101.46 203.71 112.49 169.06
  C 123.27 138.06 148.28 115.56 180.02 108.44
  Q 202.85 103.31 224.82 109.55
  C 260.90 119.80 286.29 149.18 291.68 186.43
  Z"
/>
<path fill="#6361fc" d="
  M 377.39 190.96
  A 177.91 177.69 48.6 0 1 374.88 230.93
  Q 372.12 236.51 370.10 242.45
  Q 367.64 249.74 366.02 253.13
  Q 360.18 265.37 353.60 275.07
  Q 331.94 307.04 295.40 322.84
  Q 255.67 340.03 212.98 330.49
  C 205.43 328.80 196.75 325.80 190.28 322.97
  Q 162.60 310.85 142.69 288.70
  Q 141.09 286.93 136.16 280.57
  Q 131.59 274.70 129.89 272.20
  C 126.78 267.62 122.03 258.95 119.28 251.74
  Q 117.98 248.33 116.23 245.02
  Q 115.37 243.41 116.09 236.93
  C 132.50 271.62 166.61 292.25 204.69 290.61
  C 240.23 289.09 271.83 266.50 285.47 233.71
  Q 294.78 211.35 291.68 186.43
  Q 292.79 182.48 292.18 179.73
  Q 290.34 171.47 285.58 156.03
  C 303.62 157.23 321.88 156.31 336.92 156.07
  Q 345.55 155.94 354.07 157.25
  Q 365.33 158.98 370.06 169.91
  Q 374.49 180.13 377.39 190.96
  Z"
/>
<path fill="#5155d6" d="
  M 112.49 169.06
  Q 101.46 203.71 116.09 236.93
  Q 115.37 243.41 116.23 245.02
  Q 117.98 248.33 119.28 251.74
  C 122.03 258.95 126.78 267.62 129.89 272.20
  Q 131.59 274.70 136.16 280.57
  Q 141.09 286.93 142.69 288.70
  Q 162.60 310.85 190.28 322.97
  C 196.75 325.80 205.43 328.80 212.98 330.49
  Q 255.67 340.03 295.40 322.84
  Q 331.94 307.04 353.60 275.07
  Q 360.18 265.37 366.02 253.13
  Q 367.64 249.74 370.10 242.45
  Q 372.12 236.51 374.88 230.93
  A 177.59 177.56 73.6 0 1 320.96 329.97
  A 177.74 177.74 0.0 0 1 262.28 366.26
  A 177.63 177.58 36.6 0 1 188.37 377.16
  A 177.69 177.66 63.0 0 1 105.14 350.11
  A 177.63 177.60 0.8 0 1 47.30 290.71
  A 177.69 177.64 31.5 0 1 22.70 188.50
  A 103.82 61.14 -83.7 0 1 24.25 173.90
  Q 48.15 173.62 79.35 172.62
  Q 96.60 172.06 112.49 169.06
  Z"
/>
</svg>
