<svg width="128" height="128" viewBox="0 0 128 128" fill="none" xmlns="http://www.w3.org/2000/svg">
<g clip-path="url(#clip0_240_6531)">
<path d="M116.3 58.725L120.225 66.2L123.625 58.725H128L118.225 77.975H113.85L117.975 69.9L111.9 58.725H116.3ZM8.325 49.875C12.925 49.875 16.65 53.6 16.65 58.2C16.65 62.8 9.15 73.15 8.325 73.15C7.5 73.15 0 62.775 0 58.2C0 53.625 3.725 49.875 8.325 49.875ZM51.05 58.325C51.95 58.325 52.8 58.5 53.6 58.85C54.375 59.2 55.025 59.675 55.525 60.3V58.75H59.35V71.525H55.525V69.85C54.95 70.525 54.275 71.05 53.525 71.4C52.775 71.75 51.95 71.925 51.075 71.925C49.9 71.925 48.825 71.625 47.875 71.05C46.925 70.475 46.15 69.65 45.6 68.625C45.05 67.6 44.75 66.425 44.75 65.125C44.75 63.85 45.025 62.7 45.55 61.675C46.075 60.65 46.825 59.85 47.8 59.25C48.725 58.625 49.825 58.325 51.05 58.325ZM67.725 58.325C68.55 58.325 69.35 58.45 70.1 58.675C70.85 58.9 71.475 59.2 71.95 59.575L70.65 62.15C70.025 61.7 69.25 61.475 68.325 61.475C67.525 61.475 66.875 61.65 66.325 62C65.775 62.35 65.35 62.8 65.075 63.35C64.8 63.9 64.65 64.5 64.65 65.1C64.65 65.775 64.8 66.375 65.1 66.95C65.4 67.5 65.85 67.95 66.4 68.275C66.95 68.6 67.6 68.75 68.35 68.75C68.8 68.75 69.225 68.7 69.625 68.575C70.025 68.45 70.35 68.275 70.625 68.075L71.925 70.65C71.45 71 70.85 71.3 70.1 71.55C69.35 71.775 68.55 71.9 67.725 71.9C66.75 71.9 65.825 71.725 64.975 71.375C64.125 71.025 63.35 70.55 62.7 69.925C62.05 69.3 61.525 68.575 61.15 67.775C60.775 66.95 60.6 66.075 60.6 65.125C60.6 64.225 60.775 63.35 61.125 62.55C61.475 61.725 61.975 61 62.625 60.375C63.275 59.75 64.025 59.25 64.9 58.875C65.775 58.5 66.725 58.325 67.725 58.325ZM78.925 58.325C80.25 58.325 81.425 58.6 82.425 59.15C83.425 59.7 84.2 60.475 84.775 61.45C85.325 62.425 85.625 63.575 85.625 64.875V65.15C85.625 65.225 85.6 65.375 85.575 65.6H75.775C75.775 66.25 75.925 66.825 76.225 67.3C76.525 67.775 76.925 68.15 77.475 68.425C78 68.7 78.625 68.825 79.325 68.825C80 68.825 80.575 68.7 81.1 68.45C81.6 68.2 82.1 67.775 82.575 67.225L85.325 68.6C84.725 69.625 83.875 70.45 82.775 71.025C81.675 71.6 80.45 71.9 79.1 71.9C77.725 71.9 76.475 71.6 75.4 71C74.3 70.4 73.45 69.6 72.8 68.575C72.15 67.55 71.85 66.4 71.85 65.1C71.85 64.15 72.025 63.275 72.4 62.45C72.75 61.625 73.275 60.9 73.925 60.275C74.575 59.65 75.325 59.175 76.175 58.825C77 58.5 77.925 58.325 78.925 58.325ZM106.425 58.325C107.75 58.325 108.925 58.6 109.925 59.15C110.925 59.7 111.7 60.475 112.275 61.45C112.825 62.425 113.125 63.575 113.125 64.875V65.15C113.125 65.225 113.1 65.375 113.075 65.6H103.275C103.275 66.25 103.425 66.825 103.725 67.3C104.025 67.775 104.425 68.15 104.975 68.425C105.5 68.7 106.125 68.825 106.825 68.825C107.5 68.825 108.075 68.7 108.6 68.45C109.1 68.2 109.6 67.775 110.075 67.225L112.825 68.6C112.225 69.625 111.375 70.45 110.275 71.025C109.175 71.6 107.95 71.9 106.6 71.9C105.225 71.9 103.975 71.6 102.9 71C101.8 70.4 100.95 69.6 100.3 68.575C99.65 67.55 99.35 66.4 99.35 65.1C99.35 64.15 99.525 63.275 99.9 62.45C100.25 61.625 100.775 60.9 101.425 60.275C102.075 59.65 102.825 59.175 103.675 58.825C104.5 58.5 105.425 58.325 106.425 58.325ZM31.45 50.925C32.8 50.925 33.975 51.15 35.025 51.625C36.075 52.1 36.875 52.775 37.475 53.7C38.075 54.625 38.375 55.775 38.375 57.125C38.375 58.5 38.075 59.65 37.475 60.625C36.875 61.6 36.05 62.325 35.025 62.85C33.975 63.35 32.8 63.625 31.45 63.625H28.475V71.525H24.425V50.925H31.45ZM43.3 50.7V71.5H39.475V50.7H43.3ZM90.825 50.7V63.375L95.55 58.7H100.5L94.25 64.95L100.775 71.45H95.85L90.8 66.4V71.45H87V50.7H90.825ZM52.175 61.575C51.525 61.575 50.925 61.725 50.425 62.025C49.9 62.325 49.5 62.75 49.2 63.275C48.9 63.8 48.75 64.425 48.75 65.1C48.75 65.775 48.9 66.4 49.2 66.925C49.5 67.45 49.9 67.875 50.425 68.175C50.95 68.475 51.525 68.625 52.2 68.625C52.875 68.625 53.45 68.475 53.975 68.175C54.5 67.875 54.9 67.45 55.175 66.925C55.475 66.4 55.6 65.775 55.6 65.1C55.6 64.4 55.45 63.8 55.15 63.275C54.85 62.75 54.45 62.325 53.95 62.025C53.425 61.725 52.85 61.575 52.175 61.575ZM8.325 54.875C6.5 54.875 5 56.375 5 58.2C5 59.475 5.7 60.55 6.75 61.125L6.9 61.2L6.775 63.2V63.3C6.775 64.175 7.475 64.875 8.35 64.875H8.45C9.275 64.825 9.9 64.15 9.925 63.35V63.225L9.8 61.225C10.925 60.7 11.7 59.55 11.7 58.225C11.65 56.35 10.15 54.875 8.325 54.875ZM78.875 61.1C78.325 61.1 77.825 61.2 77.4 61.375C76.975 61.575 76.625 61.85 76.375 62.2C76.125 62.55 75.95 62.975 75.9 63.475H81.85C81.775 62.975 81.6 62.55 81.325 62.2C81.05 61.85 80.7 61.575 80.3 61.375C79.9 61.175 79.4 61.1 78.875 61.1ZM106.375 61.1C105.825 61.1 105.325 61.2 104.9 61.375C104.475 61.55 104.125 61.85 103.875 62.2C103.625 62.55 103.45 62.975 103.4 63.475H109.35C109.275 62.975 109.1 62.55 108.825 62.2C108.55 61.85 108.2 61.575 107.8 61.375C107.4 61.175 106.9 61.1 106.375 61.1ZM30.2 54.15H28.475V60.375H30.2C30.9 60.375 31.55 60.275 32.15 60.075C32.75 59.875 33.225 59.525 33.6 59.075C33.975 58.625 34.15 58.025 34.15 57.275C34.15 56.525 33.975 55.925 33.6 55.45C33.225 55 32.75 54.675 32.15 54.475C31.55 54.25 30.9 54.15 30.2 54.15Z" fill="black"/>
</g>
<defs>
<clipPath id="clip0_240_6531">
<rect width="128" height="28.25" fill="white" transform="translate(0 49.875)"/>
</clipPath>
</defs>
</svg>
