<svg xmlns="http://www.w3.org/2000/svg" width="160" height="48" fill="none"><g fill="#1AD379" clip-path="url(#a)"><path d="M50.468 18.148c0 1.282.542 1.868 2.07 2.232l-.002.003 2.001.484c2.944.723 4.258 2.17 4.258 4.687 0 3.368-2.293 5.299-6.01 5.299-3.718 0-5.83-1.705-6.11-4.935h3.22c.204 1.622 1.219 2.445 2.89 2.445 1.67 0 2.75-.905 2.75-2.303 0-1.319-.667-1.982-2.377-2.365l-2.02-.463c-1.794-.429-3.93-1.591-3.93-4.708 0-2.946 2.26-4.926 5.62-4.926 3.616 0 5.49 1.437 5.721 4.388h-3.351c-.16-1.304-.95-1.94-2.413-1.94-1.365 0-2.317.82-2.317 2.102Zm47.035 4.192c-.239-1.223-1.03-1.792-2.476-1.792h-.21c-1.9 0-3.13 1.5-3.13 3.817s1.228 3.816 3.13 3.816h.21c1.446 0 2.235-.569 2.476-1.791h3.163c-.292 2.878-2.327 4.46-5.743 4.46-3.619 0-6.145-2.666-6.145-6.485 0-3.819 2.526-6.485 6.145-6.485 3.416 0 5.451 1.584 5.743 4.46h-3.163Zm-12.525 4.27v-6.143h3.35v-2.604h-2.177a1.172 1.172 0 0 1-1.176-1.164v-3.1h-3.19v4.267h-2.654c-1.118 0-2.126.67-2.565 1.709l-2.758 6.536-2.941-6.59a2.789 2.789 0 0 0-2.541-1.658h-3.82A1.173 1.173 0 0 1 63.33 16.7v-3.1h-3.19v13.937c0 2.167 1.146 3.314 3.31 3.314h3.031v-2.666h-1.579c-1.249 0-1.572-.323-1.572-1.574v-6.143h3.89c.358 0 .624.147.749.41l4.291 9.045v.665c0 1.276-.352 1.33-1.572 1.33h-4.007v2.716h5.3c2.041 0 3.31-1.454 3.31-3.793l.012-1.072 4.115-8.884c.125-.27.393-.417.755-.417h1.61v7.066c0 2.168 1.145 3.315 3.31 3.315h3.122v-2.666h-1.67c-1.25 0-1.572-.323-1.572-1.575l.005.003Zm20.186-7.03.215-.263h-.003c.746-.909 1.502-1.437 3.183-1.437 2.84 0 4.472 1.784 4.472 4.899v8.072h-3.19v-7.674c0-.965-.274-1.731-.795-2.22-.42-.396-.984-.582-1.63-.543-1.536.096-2.252 1.29-2.252 3.76v6.677h-3.189V13.598h3.189v5.982Z"/></g><defs><clipPath id="a"><path fill="#000000" d="M46.677 13.6h66.355v21.091H46.677z"/></clipPath></defs></svg>