<?xml version="1.0" encoding="UTF-8" standalone="no"?>
<!DOCTYPE svg PUBLIC "-//W3C//DTD SVG 1.1//EN" "http://www.w3.org/Graphics/SVG/1.1/DTD/svg11.dtd">
<svg xmlns="http://www.w3.org/2000/svg" version="1.1" viewBox="0.00 0.00 400.00 400.00">
<g stroke-width="2.00" fill="none" stroke-linecap="butt">
<path stroke="#afb0a4" stroke-opacity="0.776" vector-effect="non-scaling-stroke" d="
  M 63.58 87.00
  C 63.53 90.68 60.81 96.07 59.46 98.76
  Q 58.07 101.52 57.21 110.21"
/>
<path stroke="#afb0a4" stroke-opacity="0.776" vector-effect="non-scaling-stroke" d="
  M 56.78 119.45
  L 58.34 129.61
  A 1.88 1.71 32.8 0 0 58.46 130.06
  L 61.93 139.00
  A 6.75 5.72 78.5 0 0 62.34 139.85
  Q 62.71 140.30 65.99 145.99
  Q 70.16 153.23 78.38 159.45
  C 80.38 160.96 82.76 161.51 84.66 162.87
  Q 86.43 164.15 89.46 165.40
  Q 102.21 170.65 116.19 168.75"
/>
<path stroke="#afb0a4" stroke-opacity="0.776" vector-effect="non-scaling-stroke" d="
  M 117.22 168.77
  L 125.92 167.45"
/>
<path stroke="#afb0a4" stroke-opacity="0.776" vector-effect="non-scaling-stroke" d="
  M 130.16 166.27
  L 134.24 164.64"
/>
<path stroke="#afb0a4" stroke-opacity="0.776" vector-effect="non-scaling-stroke" d="
  M 137.45 163.21
  L 144.85 157.46"
/>
<path stroke="#afb0a4" stroke-opacity="0.776" vector-effect="non-scaling-stroke" d="
  M 145.96 156.46
  L 146.25 156.24"
/>
<path stroke="#afb0a4" stroke-opacity="0.776" vector-effect="non-scaling-stroke" d="
  M 149.03 153.35
  Q 153.60 148.99 156.97 143.79"
/>
<path stroke="#afb0a4" stroke-opacity="0.776" vector-effect="non-scaling-stroke" d="
  M 158.22 141.22
  L 159.86 138.04"
/>
<path stroke="#afb0a4" stroke-opacity="0.776" vector-effect="non-scaling-stroke" d="
  M 160.74 136.00
  C 162.28 132.84 162.38 128.66 163.21 125.22"
/>
<path stroke="#afb0a4" stroke-opacity="0.776" vector-effect="non-scaling-stroke" d="
  M 163.60 122.19
  Q 163.61 122.12 163.62 122.05"
/>
<path stroke="#afb0a4" stroke-opacity="0.776" vector-effect="non-scaling-stroke" d="
  M 163.99 119.18
  L 163.85 112.31"
/>
<path stroke="#afb0a4" stroke-opacity="0.776" vector-effect="non-scaling-stroke" d="
  M 163.74 110.68
  Q 163.56 109.77 163.68 108.79"
/>
<path stroke="#afb0a4" stroke-opacity="0.776" vector-effect="non-scaling-stroke" d="
  M 163.24 106.05
  L 160.79 95.77"
/>
<path stroke="#afb0a4" stroke-opacity="0.776" vector-effect="non-scaling-stroke" d="
  M 160.25 94.37
  L 158.68 91.31"
/>
<path stroke="#afb0a4" stroke-opacity="0.776" vector-effect="non-scaling-stroke" d="
  M 157.64 89.38
  L 151.40 81.05"
/>
<path stroke="#afb0a4" stroke-opacity="0.776" vector-effect="non-scaling-stroke" d="
  M 150.71 80.33
  Q 144.53 73.38 136.63 68.43"
/>
<path stroke="#afb0a4" stroke-opacity="0.776" vector-effect="non-scaling-stroke" d="
  M 135.69 67.79
  L 130.51 65.57"
/>
<path stroke="#afb0a4" stroke-opacity="0.776" vector-effect="non-scaling-stroke" d="
  M 128.72 64.76
  L 120.97 63.39"
/>
<path stroke="#afb0a4" stroke-opacity="0.776" vector-effect="non-scaling-stroke" d="
  M 119.29 63.41
  L 116.96 63.93"
/>
<path stroke="#afb0a4" stroke-opacity="0.776" vector-effect="non-scaling-stroke" d="
  M 103.56 63.58
  Q 98.23 63.26 92.82 65.40"
/>
<path stroke="#afb0a4" stroke-opacity="0.776" vector-effect="non-scaling-stroke" d="
  M 89.94 66.52
  L 83.08 68.65"
/>
<path stroke="#afb0a4" stroke-opacity="0.776" vector-effect="non-scaling-stroke" d="
  M 81.28 67.78
  Q 79.46 66.81 77.45 66.69"
/>
<path stroke="#8f8f85" stroke-opacity="0.980" vector-effect="non-scaling-stroke" d="
  M 120.97 63.39
  L 119.29 63.41"
/>
<path stroke="#f2b389" stroke-opacity="0.929" vector-effect="non-scaling-stroke" d="
  M 77.21 71.65
  Q 86.74 82.26 96.90 92.35
  Q 99.17 94.61 102.26 96.74
  A 0.70 0.69 17.6 0 0 103.35 96.18
  L 103.56 63.58"
/>
<path stroke="#f2b389" stroke-opacity="0.929" vector-effect="non-scaling-stroke" d="
  M 116.96 63.93
  L 118.20 67.52"
/>
<path stroke="#f2b389" stroke-opacity="0.929" vector-effect="non-scaling-stroke" d="
  M 117.04 120.75
  Q 116.72 121.47 116.02 121.75
  Q 111.12 123.64 106.51 122.44"
/>
<path stroke="#8f8f85" stroke-opacity="0.980" vector-effect="non-scaling-stroke" d="
  M 81.28 67.78
  Q 82.00 68.38 83.08 68.65"
/>
<path stroke="#8f8f85" stroke-opacity="0.980" vector-effect="non-scaling-stroke" d="
  M 89.94 66.52
  L 92.82 65.40"
/>
<path stroke="#8f8f85" stroke-opacity="0.980" vector-effect="non-scaling-stroke" d="
  M 128.72 64.76
  L 130.51 65.57"
/>
<path stroke="#8f8f85" stroke-opacity="0.980" vector-effect="non-scaling-stroke" d="
  M 135.69 67.79
  L 136.63 68.43"
/>
<path stroke="#8f8f85" stroke-opacity="0.980" vector-effect="non-scaling-stroke" d="
  M 150.71 80.33
  Q 150.92 80.85 151.40 81.05"
/>
<path stroke="#8f8f85" stroke-opacity="0.980" vector-effect="non-scaling-stroke" d="
  M 157.64 89.38
  Q 157.98 90.38 158.68 91.31"
/>
<path stroke="#8f8f85" stroke-opacity="0.980" vector-effect="non-scaling-stroke" d="
  M 160.25 94.37
  Q 160.22 95.18 160.79 95.77"
/>
<path stroke="#f2b389" stroke-opacity="0.929" vector-effect="non-scaling-stroke" d="
  M 163.24 106.05
  L 163.40 107.71"
/>
<path stroke="#8f8f85" stroke-opacity="0.980" vector-effect="non-scaling-stroke" d="
  M 163.40 107.71
  L 163.68 108.79"
/>
<path stroke="#8f8f85" stroke-opacity="0.980" vector-effect="non-scaling-stroke" d="
  M 163.74 110.68
  Q 163.55 111.53 163.85 112.31"
/>
<path stroke="#8f8f85" stroke-opacity="0.980" vector-effect="non-scaling-stroke" d="
  M 163.99 119.18
  Q 163.54 120.54 163.62 122.05"
/>
<path stroke="#8f8f85" stroke-opacity="0.980" vector-effect="non-scaling-stroke" d="
  M 163.60 122.19
  Q 163.10 123.78 163.21 125.22"
/>
<path stroke="#f2b389" stroke-opacity="0.929" vector-effect="non-scaling-stroke" d="
  M 160.74 136.00
  Q 160.10 136.57 160.05 137.54"
/>
<path stroke="#8f8f85" stroke-opacity="0.980" vector-effect="non-scaling-stroke" d="
  M 160.05 137.54
  Q 159.92 137.76 159.86 138.04"
/>
<path stroke="#8f8f85" stroke-opacity="0.980" vector-effect="non-scaling-stroke" d="
  M 158.22 141.22
  Q 157.41 142.28 156.97 143.79"
/>
<path stroke="#8f8f85" stroke-opacity="0.980" vector-effect="non-scaling-stroke" d="
  M 149.03 153.35
  L 147.54 155.06"
/>
<path stroke="#8f8f85" stroke-opacity="0.980" vector-effect="non-scaling-stroke" d="
  M 147.54 155.06
  Q 146.74 155.46 146.25 156.24"
/>
<path stroke="#8f8f85" stroke-opacity="0.980" vector-effect="non-scaling-stroke" d="
  M 145.96 156.46
  L 144.85 157.46"
/>
<path stroke="#8f8f85" stroke-opacity="0.980" vector-effect="non-scaling-stroke" d="
  M 137.45 163.21
  L 134.24 164.64"
/>
<path stroke="#f2b389" stroke-opacity="0.929" vector-effect="non-scaling-stroke" d="
  M 130.16 166.27
  Q 127.75 166.20 125.92 167.45"
/>
<path stroke="#8f8f85" stroke-opacity="0.980" vector-effect="non-scaling-stroke" d="
  M 117.22 168.77
  Q 116.56 168.99 116.19 168.75"
/>
<path stroke="#8f8f85" stroke-opacity="0.980" vector-effect="non-scaling-stroke" d="
  M 56.78 119.45
  L 57.00 111.32"
/>
<path stroke="#8f8f85" stroke-opacity="0.980" vector-effect="non-scaling-stroke" d="
  M 57.00 111.32
  Q 57.23 110.90 57.21 110.21"
/>
<path stroke="#8f8f85" stroke-opacity="0.980" vector-effect="non-scaling-stroke" d="
  M 63.58 87.00
  L 63.87 85.29"
/>
<path stroke="#f2b389" stroke-opacity="0.929" vector-effect="non-scaling-stroke" d="
  M 63.87 85.29
  Q 64.31 85.36 64.76 85.24"
/>
<path stroke="#f2b389" stroke-opacity="0.929" vector-effect="non-scaling-stroke" d="
  M 91.65 108.86
  Q 91.87 109.66 92.53 109.67"
/>
<path stroke="#8f8f85" stroke-opacity="0.980" vector-effect="non-scaling-stroke" d="
  M 92.77 109.96
  Q 92.93 110.31 93.27 110.44"
/>
<path stroke="#8f8f85" stroke-opacity="0.980" vector-effect="non-scaling-stroke" d="
  M 99.55 116.52
  Q 100.14 117.39 100.95 117.80"
/>
<path stroke="#8f8f85" stroke-opacity="0.980" vector-effect="non-scaling-stroke" d="
  M 101.48 118.30
  Q 101.62 118.61 101.94 118.76"
/>
<path stroke="#f2b389" stroke-opacity="0.929" vector-effect="non-scaling-stroke" d="
  M 101.94 118.76
  Q 102.43 119.69 103.22 120.02"
/>
<path stroke="#cdcfc2" stroke-opacity="0.678" vector-effect="non-scaling-stroke" d="
  M 103.22 120.02
  Q 104.39 121.53 106.51 122.44"
/>
<path stroke="#e0e1d9" stroke-opacity="0.592" vector-effect="non-scaling-stroke" d="
  M 117.04 120.75
  Q 117.70 119.96 118.03 118.78"
/>
<path stroke="#8f8f85" stroke-opacity="0.980" vector-effect="non-scaling-stroke" d="
  M 118.03 118.78
  Q 118.59 117.58 118.56 116.17"
/>
<path stroke="#e0e1d9" stroke-opacity="0.592" vector-effect="non-scaling-stroke" d="
  M 118.56 116.17
  L 119.27 94.79"
/>
<path stroke="#afb0a4" stroke-opacity="0.776" vector-effect="non-scaling-stroke" d="
  M 119.27 94.79
  Q 119.32 94.63 119.36 94.46"
/>
<path stroke="#e0e1d9" stroke-opacity="0.592" vector-effect="non-scaling-stroke" d="
  M 119.36 94.46
  L 119.43 90.55"
/>
<path stroke="#afb0a4" stroke-opacity="0.776" vector-effect="non-scaling-stroke" d="
  M 119.43 90.55
  Q 119.33 90.03 119.50 89.68"
/>
<path stroke="#e0e1d9" stroke-opacity="0.592" vector-effect="non-scaling-stroke" d="
  M 119.50 89.68
  L 118.20 67.52"
/>
<path stroke="#afb0a4" stroke-opacity="0.776" vector-effect="non-scaling-stroke" d="
  M 340.43 162.97
  Q 340.82 162.90 341.05 162.43"
/>
<path stroke="#afb0a4" stroke-opacity="0.776" vector-effect="non-scaling-stroke" d="
  M 341.11 160.29
  L 341.16 95.98"
/>
<path stroke="#afb0a4" stroke-opacity="0.776" vector-effect="non-scaling-stroke" d="
  M 341.18 94.59
  Q 341.04 94.20 340.64 94.20
  Q 337.67 94.14 334.71 94.11"
/>
<path stroke="#afb0a4" stroke-opacity="0.776" vector-effect="non-scaling-stroke" d="
  M 333.78 94.09
  L 331.19 94.13"
/>
<path stroke="#afb0a4" stroke-opacity="0.776" vector-effect="non-scaling-stroke" d="
  M 296.47 94.11
  Q 296.38 94.11 296.29 94.11"
/>
<path stroke="#afb0a4" stroke-opacity="0.776" vector-effect="non-scaling-stroke" d="
  M 290.24 94.17
  L 287.95 94.16"
/>
<path stroke="#afb0a4" stroke-opacity="0.776" vector-effect="non-scaling-stroke" d="
  M 281.80 94.20
  Q 277.57 94.34 273.32 94.38
  Q 272.70 94.39 272.47 94.66
  Q 272.21 94.99 272.29 95.57"
/>
<path stroke="#e0e1d9" stroke-opacity="0.592" vector-effect="non-scaling-stroke" d="
  M 272.29 95.57
  Q 272.42 96.71 272.18 97.78"
/>
<path stroke="#e0e1d9" stroke-opacity="0.592" vector-effect="non-scaling-stroke" d="
  M 272.15 108.77
  L 272.16 146.01"
/>
<path stroke="#e0e1d9" stroke-opacity="0.592" vector-effect="non-scaling-stroke" d="
  M 272.15 150.25
  Q 272.16 150.37 272.17 150.50"
/>
<path stroke="#e0e1d9" stroke-opacity="0.592" vector-effect="non-scaling-stroke" d="
  M 272.18 151.30
  L 272.19 155.02"
/>
<path stroke="#8f8f85" stroke-opacity="0.980" vector-effect="non-scaling-stroke" d="
  M 333.78 94.09
  L 334.71 94.11"
/>
<path stroke="#8f8f85" stroke-opacity="0.980" vector-effect="non-scaling-stroke" d="
  M 341.18 94.59
  L 341.16 95.98"
/>
<path stroke="#8f8f85" stroke-opacity="0.980" vector-effect="non-scaling-stroke" d="
  M 341.11 160.29
  L 341.05 162.43"
/>
<path stroke="#8f8f85" stroke-opacity="0.980" vector-effect="non-scaling-stroke" d="
  M 311.29 163.20
  L 310.53 163.16"
/>
<path stroke="#8f8f85" stroke-opacity="0.980" vector-effect="non-scaling-stroke" d="
  M 309.29 163.16
  L 308.53 163.15"
/>
<path stroke="#8f8f85" stroke-opacity="0.980" vector-effect="non-scaling-stroke" d="
  M 308.29 163.15
  L 307.53 163.17"
/>
<path stroke="#8f8f85" stroke-opacity="0.980" vector-effect="non-scaling-stroke" d="
  M 307.29 163.17
  Q 306.90 163.25 306.53 163.17"
/>
<path stroke="#8f8f85" stroke-opacity="0.980" vector-effect="non-scaling-stroke" d="
  M 303.29 163.19
  Q 302.91 163.26 302.53 163.18"
/>
<path stroke="#8f8f85" stroke-opacity="0.980" vector-effect="non-scaling-stroke" d="
  M 302.30 163.18
  L 300.53 163.19"
/>
<path stroke="#8f8f85" stroke-opacity="0.980" vector-effect="non-scaling-stroke" d="
  M 272.49 163.21
  L 272.19 155.02"
/>
<path stroke="#8f8f85" stroke-opacity="0.980" vector-effect="non-scaling-stroke" d="
  M 272.18 151.30
  L 272.17 150.50"
/>
<path stroke="#8f8f85" stroke-opacity="0.980" vector-effect="non-scaling-stroke" d="
  M 272.15 150.25
  L 272.16 146.01"
/>
<path stroke="#8f8f85" stroke-opacity="0.980" vector-effect="non-scaling-stroke" d="
  M 272.15 108.77
  L 272.18 97.78"
/>
<path stroke="#8f8f85" stroke-opacity="0.980" vector-effect="non-scaling-stroke" d="
  M 296.29 94.11
  L 290.24 94.17"
/>
<path stroke="#8f8f85" stroke-opacity="0.980" vector-effect="non-scaling-stroke" d="
  M 287.95 94.16
  L 281.80 94.20"
/>
<path stroke="#8f8f85" stroke-opacity="0.980" vector-effect="non-scaling-stroke" d="
  M 331.19 94.13
  L 296.47 94.11"
/>
<path stroke="#afb0a4" stroke-opacity="0.776" vector-effect="non-scaling-stroke" d="
  M 205.58 94.33
  L 201.23 94.94
  A 0.63 0.62 -1.3 0 0 200.69 95.49
  L 200.42 98.08"
/>
<path stroke="#afb0a4" stroke-opacity="0.776" vector-effect="non-scaling-stroke" d="
  M 200.37 102.49
  Q 200.60 102.91 200.60 103.46"
/>
<path stroke="#afb0a4" stroke-opacity="0.776" vector-effect="non-scaling-stroke" d="
  M 200.73 104.47
  L 201.46 112.31
  A 3.86 3.80 -60.1 0 0 201.76 113.46
  C 203.20 116.73 201.63 119.98 201.17 123.20"
/>
<path stroke="#afb0a4" stroke-opacity="0.776" vector-effect="non-scaling-stroke" d="
  M 201.14 125.56
  L 200.78 129.33"
/>
<path stroke="#afb0a4" stroke-opacity="0.776" vector-effect="non-scaling-stroke" d="
  M 199.34 137.99
  C 198.63 141.30 198.11 144.42 196.83 147.58
  Q 195.13 151.79 193.30 155.99"
/>
<path stroke="#afb0a4" stroke-opacity="0.776" vector-effect="non-scaling-stroke" d="
  M 250.45 162.69
  Q 250.59 162.64 250.72 162.58"
/>
<path stroke="#afb0a4" stroke-opacity="0.776" vector-effect="non-scaling-stroke" d="
  M 250.81 99.01
  Q 250.18 97.41 250.17 95.20
  A 0.57 0.56 -88.9 0 0 249.64 94.64
  L 246.40 94.43"
/>
<path stroke="#afb0a4" stroke-opacity="0.776" vector-effect="non-scaling-stroke" d="
  M 241.22 94.35
  L 235.18 94.18"
/>
<path stroke="#8f8f85" stroke-opacity="0.980" vector-effect="non-scaling-stroke" d="
  M 235.18 94.18
  L 205.58 94.33"
/>
<path stroke="#8f8f85" stroke-opacity="0.980" vector-effect="non-scaling-stroke" d="
  M 241.22 94.35
  L 246.40 94.43"
/>
<path stroke="#8f8f85" stroke-opacity="0.980" vector-effect="non-scaling-stroke" d="
  M 250.81 99.01
  Q 249.80 130.76 250.72 162.58"
/>
<path stroke="#8f8f85" stroke-opacity="0.980" vector-effect="non-scaling-stroke" d="
  M 250.45 162.69
  L 248.96 163.28"
/>
<path stroke="#eff0eb" stroke-opacity="0.549" vector-effect="non-scaling-stroke" d="
  M 248.96 163.28
  Q 245.48 163.12 242.00 163.12
  Q 219.75 163.13 197.50 163.16
  Q 195.88 163.16 192.96 162.66"
/>
<path stroke="#8f8f85" stroke-opacity="0.980" vector-effect="non-scaling-stroke" d="
  M 192.96 162.66
  L 192.29 162.62"
/>
<path stroke="#eff0eb" stroke-opacity="0.549" vector-effect="non-scaling-stroke" d="
  M 192.29 162.62
  Q 192.07 162.64 191.87 162.61
  A 0.55 0.54 -75.8 0 1 191.46 161.92
  L 193.30 155.99"
/>
<path stroke="#8f8f85" stroke-opacity="0.980" vector-effect="non-scaling-stroke" d="
  M 199.34 137.99
  L 199.59 137.03"
/>
<path stroke="#8f8f85" stroke-opacity="0.980" vector-effect="non-scaling-stroke" d="
  M 199.59 137.03
  L 200.78 129.33"
/>
<path stroke="#8f8f85" stroke-opacity="0.980" vector-effect="non-scaling-stroke" d="
  M 201.14 125.56
  L 201.17 123.20"
/>
<path stroke="#8f8f85" stroke-opacity="0.980" vector-effect="non-scaling-stroke" d="
  M 200.73 104.47
  L 200.60 103.46"
/>
<path stroke="#8f8f85" stroke-opacity="0.980" vector-effect="non-scaling-stroke" d="
  M 200.37 102.49
  L 200.42 98.08"
/>
<path stroke="#afb0a4" stroke-opacity="0.776" vector-effect="non-scaling-stroke" d="
  M 178.74 186.98
  L 178.67 192.83"
/>
<path stroke="#afb0a4" stroke-opacity="0.776" vector-effect="non-scaling-stroke" d="
  M 178.63 218.50
  L 178.59 228.50"
/>
<path stroke="#afb0a4" stroke-opacity="0.776" vector-effect="non-scaling-stroke" d="
  M 178.65 239.24
  Q 178.56 239.53 178.64 239.84"
/>
<path stroke="#afb0a4" stroke-opacity="0.776" vector-effect="non-scaling-stroke" d="
  M 178.58 245.43
  L 178.55 249.02"
/>
<path stroke="#afb0a4" stroke-opacity="0.776" vector-effect="non-scaling-stroke" d="
  M 178.88 253.18
  L 179.25 253.54"
/>
<path stroke="#afb0a4" stroke-opacity="0.776" vector-effect="non-scaling-stroke" d="
  M 250.13 251.28
  L 250.17 250.53"
/>
<path stroke="#afb0a4" stroke-opacity="0.776" vector-effect="non-scaling-stroke" d="
  M 250.40 190.78
  L 250.13 187.95"
/>
<path stroke="#afb0a4" stroke-opacity="0.776" vector-effect="non-scaling-stroke" d="
  M 250.10 186.80
  L 250.04 185.76
  A 0.82 0.81 9.1 0 0 249.52 185.05
  L 248.44 184.63"
/>
<path stroke="#8f8f85" stroke-opacity="0.980" vector-effect="non-scaling-stroke" d="
  M 250.10 186.80
  L 250.13 187.95"
/>
<path stroke="#8f8f85" stroke-opacity="0.980" vector-effect="non-scaling-stroke" d="
  M 250.40 190.78
  L 250.51 214.97"
/>
<path stroke="#f2b389" stroke-opacity="0.929" vector-effect="non-scaling-stroke" d="
  M 250.51 214.97
  L 250.25 242.43"
/>
<path stroke="#8f8f85" stroke-opacity="0.980" vector-effect="non-scaling-stroke" d="
  M 250.25 242.43
  L 250.17 250.53"
/>
<path stroke="#cdcfc2" stroke-opacity="0.678" vector-effect="non-scaling-stroke" d="
  M 250.13 251.28
  Q 250.32 252.60 249.46 253.58
  A 0.85 0.83 19.9 0 1 248.82 253.87
  Q 216.35 254.07 183.88 254.06
  Q 181.50 254.06 179.25 253.54"
/>
<path stroke="#8f8f85" stroke-opacity="0.980" vector-effect="non-scaling-stroke" d="
  M 178.88 253.18
  L 178.55 249.02"
/>
<path stroke="#8f8f85" stroke-opacity="0.980" vector-effect="non-scaling-stroke" d="
  M 178.58 245.43
  L 178.64 239.84"
/>
<path stroke="#8f8f85" stroke-opacity="0.980" vector-effect="non-scaling-stroke" d="
  M 178.65 239.24
  L 178.59 228.50"
/>
<path stroke="#8f8f85" stroke-opacity="0.980" vector-effect="non-scaling-stroke" d="
  M 178.63 218.50
  L 178.67 192.83"
/>
<path stroke="#8f8f85" stroke-opacity="0.980" vector-effect="non-scaling-stroke" d="
  M 179.66 184.74
  Q 178.71 185.67 178.74 186.98"
/>
<path stroke="#afb0a4" stroke-opacity="0.776" vector-effect="non-scaling-stroke" d="
  M 148.27 199.72
  Q 147.56 200.15 146.78 200.25"
/>
<path stroke="#afb0a4" stroke-opacity="0.776" vector-effect="non-scaling-stroke" d="
  M 145.79 200.67
  L 140.82 202.36"
/>
<path stroke="#afb0a4" stroke-opacity="0.776" vector-effect="non-scaling-stroke" d="
  M 136.85 203.72
  L 129.58 205.63"
/>
<path stroke="#afb0a4" stroke-opacity="0.776" vector-effect="non-scaling-stroke" d="
  M 128.21 206.00
  Q 127.84 206.07 127.53 206.00"
/>
<path stroke="#afb0a4" stroke-opacity="0.776" vector-effect="non-scaling-stroke" d="
  M 120.61 206.91
  L 110.92 206.93"
/>
<path stroke="#afb0a4" stroke-opacity="0.776" vector-effect="non-scaling-stroke" d="
  M 106.24 206.87
  L 104.16 206.73"
/>
<path stroke="#afb0a4" stroke-opacity="0.776" vector-effect="non-scaling-stroke" d="
  M 156.44 251.94
  Q 156.54 251.51 156.66 251.55"
/>
<path stroke="#afb0a4" stroke-opacity="0.776" vector-effect="non-scaling-stroke" d="
  M 156.73 211.99
  L 156.01 195.39
  A 0.20 0.20 0.0 0 0 155.66 195.26
  Q 153.52 197.56 150.50 198.83"
/>
<path stroke="#8f8f85" stroke-opacity="0.980" vector-effect="non-scaling-stroke" d="
  M 156.73 211.99
  L 156.66 251.55"
/>
<path stroke="#8f8f85" stroke-opacity="0.980" vector-effect="non-scaling-stroke" d="
  M 156.44 251.94
  L 155.52 253.60"
/>
<path stroke="#eff0eb" stroke-opacity="0.549" vector-effect="non-scaling-stroke" d="
  M 155.52 253.60
  L 88.88 254.55
  A 1.01 1.01 0.0 0 1 87.85 253.54
  L 87.85 206.23
  A 1.25 1.25 0.0 0 1 89.55 205.06
  L 92.28 206.09"
/>
<path stroke="#8f8f85" stroke-opacity="0.980" vector-effect="non-scaling-stroke" d="
  M 92.28 206.09
  L 94.21 206.21"
/>
<path stroke="#eff0eb" stroke-opacity="0.549" vector-effect="non-scaling-stroke" d="
  M 94.21 206.21
  Q 94.75 206.39 95.21 206.27"
/>
<path stroke="#8f8f85" stroke-opacity="0.980" vector-effect="non-scaling-stroke" d="
  M 95.21 206.27
  L 104.16 206.73"
/>
<path stroke="#8f8f85" stroke-opacity="0.980" vector-effect="non-scaling-stroke" d="
  M 106.24 206.87
  L 110.92 206.93"
/>
<path stroke="#8f8f85" stroke-opacity="0.980" vector-effect="non-scaling-stroke" d="
  M 120.61 206.91
  L 127.53 206.00"
/>
<path stroke="#f2b389" stroke-opacity="0.929" vector-effect="non-scaling-stroke" d="
  M 128.21 206.00
  Q 128.66 206.04 128.97 205.83"
/>
<path stroke="#8f8f85" stroke-opacity="0.980" vector-effect="non-scaling-stroke" d="
  M 128.97 205.83
  L 129.58 205.63"
/>
<path stroke="#8f8f85" stroke-opacity="0.980" vector-effect="non-scaling-stroke" d="
  M 136.85 203.72
  L 140.82 202.36"
/>
<path stroke="#8f8f85" stroke-opacity="0.980" vector-effect="non-scaling-stroke" d="
  M 145.79 200.67
  Q 146.37 200.64 146.78 200.25"
/>
<path stroke="#8f8f85" stroke-opacity="0.980" vector-effect="non-scaling-stroke" d="
  M 148.27 199.72
  Q 148.89 199.65 149.31 199.24"
/>
<path stroke="#8f8f85" stroke-opacity="0.980" vector-effect="non-scaling-stroke" d="
  M 149.31 199.24
  Q 149.97 199.21 150.50 198.83"
/>
<path stroke="#afb0a4" stroke-opacity="0.776" vector-effect="non-scaling-stroke" d="
  M 275.04 272.44
  Q 273.58 272.32 272.77 272.71
  A 0.86 0.84 78.6 0 0 272.29 273.45
  L 272.03 280.05"
/>
<path stroke="#afb0a4" stroke-opacity="0.776" vector-effect="non-scaling-stroke" d="
  M 340.03 341.03
  Q 341.18 341.06 341.19 339.75
  Q 341.48 306.21 341.18 272.45"
/>
<path stroke="#8f8f85" stroke-opacity="0.980" vector-effect="non-scaling-stroke" d="
  M 341.18 272.45
  L 275.04 272.44"
/>
<path stroke="#8f8f85" stroke-opacity="0.980" vector-effect="non-scaling-stroke" d="
  M 272.74 341.13
  Q 271.92 341.20 272.12 339.77
  Q 272.23 338.96 272.13 338.17"
/>
<path stroke="#8f8f85" stroke-opacity="0.980" vector-effect="non-scaling-stroke" d="
  M 272.00 324.30
  Q 272.11 323.93 272.03 323.46"
/>
<path stroke="#eff0eb" stroke-opacity="0.549" vector-effect="non-scaling-stroke" d="
  M 272.03 280.05
  L 272.03 323.46"
/>
<path stroke="#eff0eb" stroke-opacity="0.549" vector-effect="non-scaling-stroke" d="
  M 272.00 324.30
  L 272.13 338.17"
/>
<path stroke="#eff0eb" stroke-opacity="0.549" vector-effect="non-scaling-stroke" d="
  M 272.74 341.13
  L 340.03 341.03"
/>
<path stroke="#afb0a4" stroke-opacity="0.776" vector-effect="non-scaling-stroke" d="
  M 182.10 272.36
  L 179.26 272.81"
/>
<path stroke="#afb0a4" stroke-opacity="0.776" vector-effect="non-scaling-stroke" d="
  M 178.82 273.71
  L 178.67 276.56"
/>
<path stroke="#afb0a4" stroke-opacity="0.776" vector-effect="non-scaling-stroke" d="
  M 249.01 340.91
  Q 249.89 341.36 250.39 340.61"
/>
<path stroke="#afb0a4" stroke-opacity="0.776" vector-effect="non-scaling-stroke" d="
  M 250.70 277.19
  Q 250.02 275.54 250.00 273.43
  A 0.70 0.70 0.0 0 0 249.50 272.76
  L 247.97 272.31"
/>
<path stroke="#8f8f85" stroke-opacity="0.980" vector-effect="non-scaling-stroke" d="
  M 247.97 272.31
  L 182.10 272.36"
/>
<path stroke="#8f8f85" stroke-opacity="0.980" vector-effect="non-scaling-stroke" d="
  M 250.70 277.19
  L 250.63 339.04"
/>
<path stroke="#8f8f85" stroke-opacity="0.980" vector-effect="non-scaling-stroke" d="
  M 250.63 339.04
  Q 250.34 339.68 250.39 340.61"
/>
<path stroke="#8f8f85" stroke-opacity="0.980" vector-effect="non-scaling-stroke" d="
  M 179.14 341.03
  Q 178.62 340.66 178.60 338.69"
/>
<path stroke="#8f8f85" stroke-opacity="0.980" vector-effect="non-scaling-stroke" d="
  M 178.37 337.56
  L 178.38 331.72"
/>
<path stroke="#8f8f85" stroke-opacity="0.980" vector-effect="non-scaling-stroke" d="
  M 178.58 328.04
  L 178.57 306.77"
/>
<path stroke="#8f8f85" stroke-opacity="0.980" vector-effect="non-scaling-stroke" d="
  M 178.57 304.46
  L 178.60 288.01"
/>
<path stroke="#8f8f85" stroke-opacity="0.980" vector-effect="non-scaling-stroke" d="
  M 178.54 280.72
  L 178.52 279.96"
/>
<path stroke="#8f8f85" stroke-opacity="0.980" vector-effect="non-scaling-stroke" d="
  M 178.52 279.80
  L 178.54 277.96"
/>
<path stroke="#8f8f85" stroke-opacity="0.980" vector-effect="non-scaling-stroke" d="
  M 178.82 273.71
  Q 178.83 273.10 179.26 272.81"
/>
<path stroke="#e0e1d9" stroke-opacity="0.592" vector-effect="non-scaling-stroke" d="
  M 178.67 276.56
  L 178.54 277.96"
/>
<path stroke="#e0e1d9" stroke-opacity="0.592" vector-effect="non-scaling-stroke" d="
  M 178.52 279.80
  Q 178.52 279.88 178.52 279.96"
/>
<path stroke="#e0e1d9" stroke-opacity="0.592" vector-effect="non-scaling-stroke" d="
  M 178.54 280.72
  L 178.60 288.01"
/>
<path stroke="#e0e1d9" stroke-opacity="0.592" vector-effect="non-scaling-stroke" d="
  M 178.57 304.46
  L 178.57 306.77"
/>
<path stroke="#e0e1d9" stroke-opacity="0.592" vector-effect="non-scaling-stroke" d="
  M 178.58 328.04
  L 178.38 331.72"
/>
<path stroke="#e0e1d9" stroke-opacity="0.592" vector-effect="non-scaling-stroke" d="
  M 178.37 337.56
  Q 178.79 337.90 178.60 338.69"
/>
<path stroke="#e0e1d9" stroke-opacity="0.592" vector-effect="non-scaling-stroke" d="
  M 179.14 341.03
  L 249.01 340.91"
/>
</g>
<path fill="#1f2100" fill-opacity="0.553" d="
  M 62.76 84.56
  Q 63.41 85.35 63.58 87.00
  C 63.53 90.68 60.81 96.07 59.46 98.76
  Q 58.07 101.52 57.21 110.21
  L 57.00 111.32
  Q 56.08 115.37 56.78 119.45
  L 58.34 129.61
  A 1.88 1.71 32.8 0 0 58.46 130.06
  L 61.93 139.00
  A 6.75 5.72 78.5 0 0 62.34 139.85
  Q 62.71 140.30 65.99 145.99
  Q 70.16 153.23 78.38 159.45
  C 80.38 160.96 82.76 161.51 84.66 162.87
  Q 86.43 164.15 89.46 165.40
  Q 102.21 170.65 116.19 168.75
  Q 116.64 169.05 117.22 168.77
  L 125.92 167.45
  Q 128.37 167.44 130.16 166.27
  L 134.24 164.64
  Q 136.96 164.67 137.45 163.21
  L 144.85 157.46
  Q 145.72 157.47 145.96 156.46
  L 146.25 156.24
  Q 147.12 155.89 147.54 155.06
  Q 148.91 154.66 149.03 153.35
  Q 153.60 148.99 156.97 143.79
  Q 158.14 142.84 158.22 141.22
  L 159.86 138.04
  Q 160.79 137.71 160.68 136.49
  L 160.74 136.00
  C 162.28 132.84 162.38 128.66 163.21 125.22
  Q 163.91 123.69 163.60 122.19
  Q 163.61 122.12 163.62 122.05
  Q 164.48 120.52 163.99 119.18
  L 163.85 112.31
  Q 164.27 111.11 163.74 110.68
  Q 163.56 109.77 163.68 108.79
  Q 163.81 107.81 163.56 107.04
  Q 163.50 106.43 163.24 106.05
  L 160.79 95.77
  Q 160.76 94.90 160.25 94.37
  L 158.68 91.31
  Q 158.49 89.62 157.64 89.38
  L 151.40 81.05
  Q 151.21 80.37 150.71 80.33
  Q 144.53 73.38 136.63 68.43
  Q 136.65 67.64 135.69 67.79
  L 130.51 65.57
  Q 130.21 64.64 128.72 64.76
  L 120.97 63.39
  L 119.29 63.41
  L 116.96 63.93
  C 114.04 62.71 108.16 61.33 106.22 64.27
  A 1.12 1.11 -78.1 0 1 105.46 64.77
  Q 104.06 65.00 103.56 63.58
  Q 98.23 63.26 92.82 65.40
  Q 91.10 65.13 89.94 66.52
  L 83.08 68.65
  Q 82.31 67.38 81.28 67.78
  Q 79.46 66.81 77.45 66.69
  Q 78.18 66.21 79.10 66.18
  A 0.80 0.80 0.0 0 0 79.65 64.81
  L 57.43 42.58
  A 0.41 0.41 0.0 0 1 57.48 41.96
  C 61.45 39.08 65.92 37.11 69.80 34.97
  Q 73.65 32.84 77.78 31.37
  Q 88.65 27.48 99.01 26.26
  Q 104.80 25.57 114.52 25.82
  Q 123.37 26.05 129.90 27.56
  Q 147.45 31.63 163.23 42.29
  Q 165.04 43.50 174.74 51.53
  A 2.47 2.40 -89.2 0 1 175.10 51.91
  L 178.03 55.79
  A 3.00 2.99 71.4 0 0 180.42 56.98
  L 377.77 56.98
  A 0.52 0.51 90.0 0 1 378.28 57.50
  L 378.28 378.63
  A 0.89 0.89 0.0 0 1 377.28 379.51
  Q 372.67 378.95 363.25 378.95
  Q 62.72 378.96 51.34 378.93
  A 1.23 1.23 0.0 0 1 50.11 377.70
  L 50.11 186.48
  A 5.37 5.33 -64.7 0 0 48.92 183.11
  Q 44.20 177.24 40.54 173.00
  C 30.42 161.29 23.93 146.40 21.48 131.52
  Q 20.68 126.65 19.99 118.76
  C 19.48 112.88 20.76 107.99 21.18 101.99
  C 21.59 96.15 23.70 90.75 25.55 84.59
  Q 27.12 79.34 30.19 74.16
  Q 32.94 69.50 36.23 62.90
  A 0.84 0.84 0.0 0 1 37.57 62.67
  C 44.09 68.96 51.99 77.79 60.42 84.06
  A 1.75 1.74 -23.7 0 0 61.27 84.39
  L 62.76 84.56
  Z
  M 274.30 165.87
  L 341.82 165.75
  A 0.99 0.99 0.0 0 0 342.81 164.75
  L 342.80 164.08
  A 0.91 0.91 0.0 0 0 341.83 163.18
  Q 340.84 163.23 340.43 162.97
  Q 340.82 162.90 341.05 162.43
  L 341.11 160.29
  L 341.16 95.98
  Q 341.70 95.04 341.18 94.59
  Q 341.04 94.20 340.64 94.20
  Q 337.67 94.14 334.71 94.11
  Q 334.27 94.23 333.78 94.09
  L 331.19 94.13
  L 296.47 94.11
  Q 296.38 94.11 296.29 94.11
  L 290.24 94.17
  L 287.95 94.16
  L 281.80 94.20
  Q 277.57 94.34 273.32 94.38
  Q 272.70 94.39 272.47 94.66
  Q 272.21 94.99 272.29 95.57
  Q 271.58 94.93 270.74 94.61
  A 0.60 0.60 0.0 0 1 270.38 93.88
  Q 270.42 93.74 270.42 93.71
  A 0.49 0.49 0.0 0 0 269.80 93.21
  Q 268.48 93.58 268.60 95.26
  Q 268.67 96.28 268.67 96.64
  Q 268.58 124.54 268.64 147.49
  C 268.65 153.55 267.88 160.54 271.43 165.45
  A 1.02 1.00 -17.2 0 0 272.26 165.88
  L 274.30 165.87
  Z
  M 205.58 94.33
  L 201.23 94.94
  A 0.63 0.62 -1.3 0 0 200.69 95.49
  L 200.42 98.08
  Q 199.96 100.26 200.37 102.49
  Q 200.60 102.91 200.60 103.46
  Q 200.55 104.04 200.73 104.47
  L 201.46 112.31
  A 3.86 3.80 -60.1 0 0 201.76 113.46
  C 203.20 116.73 201.63 119.98 201.17 123.20
  Q 200.79 124.35 201.14 125.56
  L 200.78 129.33
  L 199.59 137.03
  Q 199.31 137.28 199.34 137.99
  C 198.63 141.30 198.11 144.42 196.83 147.58
  Q 195.13 151.79 193.30 155.99
  Q 193.70 154.02 192.55 153.95
  A 0.91 0.89 11.8 0 0 191.65 154.53
  L 187.68 165.08
  A 0.85 0.84 -80.2 0 0 188.48 166.22
  L 235.20 165.70
  A 0.85 0.82 55.2 0 1 235.51 165.76
  Q 238.49 166.95 241.29 165.99
  A 1.55 1.45 -53.2 0 1 241.80 165.90
  L 250.59 165.71
  A 0.78 0.77 7.6 0 0 251.32 165.16
  Q 251.59 164.22 250.21 163.78
  Q 250.49 163.26 250.45 162.69
  Q 250.59 162.64 250.72 162.58
  Q 251.82 130.76 250.81 99.01
  Q 250.18 97.41 250.17 95.20
  A 0.57 0.56 -88.9 0 0 249.64 94.64
  L 246.40 94.43
  L 241.22 94.35
  L 235.18 94.18
  L 205.58 94.33
  Z
  M 178.75 184.11
  Q 178.06 185.31 178.74 186.98
  L 178.67 192.83
  L 178.63 218.50
  L 178.59 228.50
  L 178.65 239.24
  Q 178.56 239.53 178.64 239.84
  L 178.58 245.43
  L 178.55 249.02
  Q 178.27 251.10 178.88 253.18
  L 179.25 253.54
  Q 178.83 253.42 178.35 253.50
  A 0.41 0.40 85.2 0 1 177.88 253.10
  Q 178.33 222.65 178.03 188.65
  Q 178.01 186.64 177.72 185.57
  A 0.32 0.32 0.0 0 0 177.10 185.62
  Q 176.19 192.74 176.22 200.50
  Q 176.23 205.29 176.31 247.85
  Q 176.33 256.22 183.96 256.96
  C 186.77 257.23 188.69 257.51 190.86 257.45
  Q 211.53 256.89 227.98 257.62
  C 236.18 257.99 242.08 257.42 250.15 257.03
  A 0.97 0.96 82.9 0 0 251.05 255.87
  L 250.13 251.28
  L 250.17 250.53
  Q 250.48 250.27 250.51 249.75
  C 251.64 232.13 250.79 214.40 251.07 196.75
  Q 251.10 195.10 250.40 190.78
  L 250.13 187.95
  L 250.10 186.80
  L 250.04 185.76
  A 0.82 0.81 9.1 0 0 249.52 185.05
  L 248.44 184.63
  Q 249.30 184.25 250.06 183.28
  A 0.29 0.29 0.0 0 0 249.86 182.81
  Q 242.97 181.94 235.72 181.73
  Q 211.67 181.03 188.31 181.74
  Q 183.98 181.88 179.98 182.85
  Q 178.30 183.26 178.75 184.11
  Z
  M 342.61 251.04
  L 342.65 248.47
  L 342.61 183.62
  A 1.25 1.24 90.0 0 0 341.37 182.37
  L 271.65 182.37
  A 1.27 1.27 0.0 0 0 270.38 183.64
  L 270.38 254.92
  A 1.10 1.10 0.0 0 0 271.48 256.02
  L 341.22 256.02
  A 1.39 1.39 0.0 0 0 342.61 254.64
  L 342.61 251.04
  Z
  M 150.50 198.83
  Q 149.82 198.86 149.31 199.24
  Q 148.60 199.28 148.27 199.72
  Q 147.56 200.15 146.78 200.25
  Q 146.21 200.27 145.79 200.67
  L 140.82 202.36
  Q 138.56 202.31 136.85 203.72
  L 129.58 205.63
  Q 128.55 205.37 128.33 205.76
  Q 128.27 205.88 128.21 206.00
  Q 127.84 206.07 127.53 206.00
  Q 123.99 205.87 120.61 206.91
  L 110.92 206.93
  L 106.24 206.87
  L 104.16 206.73
  L 99.51 206.25
  L 105.76 205.25
  A 0.12 0.12 0.0 0 0 105.75 205.01
  C 98.94 204.33 91.88 203.03 86.02 204.87
  A 1.04 1.04 0.0 0 0 85.37 205.48
  Q 84.95 206.54 84.94 208.75
  Q 84.85 234.10 84.86 250.75
  C 84.87 253.89 84.49 256.69 88.00 256.94
  Q 96.08 257.50 104.50 257.26
  Q 120.10 256.82 138.99 257.47
  C 144.90 257.68 150.33 257.20 155.89 256.84
  A 1.08 1.08 0.0 0 0 156.69 256.41
  Q 158.30 254.26 156.22 253.55
  Q 156.68 252.62 156.44 251.94
  Q 156.54 251.51 156.66 251.55
  Q 157.09 250.61 157.11 249.23
  Q 157.41 230.58 156.73 211.99
  L 156.01 195.39
  A 0.20 0.20 0.0 0 0 155.66 195.26
  Q 153.52 197.56 150.50 198.83
  Z
  M 275.04 272.44
  Q 273.58 272.32 272.77 272.71
  A 0.86 0.84 78.6 0 0 272.29 273.45
  L 272.03 280.05
  L 270.88 272.52
  A 0.29 0.29 0.0 0 0 270.30 272.53
  C 269.90 276.07 269.58 280.53 269.67 284.21
  Q 270.31 310.61 270.22 336.81
  Q 270.21 340.05 271.32 343.49
  A 0.77 0.77 0.0 0 0 271.99 344.02
  Q 276.48 344.41 276.72 344.40
  Q 292.04 343.82 294.53 343.96
  Q 299.54 344.26 307.52 344.11
  Q 313.31 344.00 320.48 344.21
  Q 331.08 344.52 341.42 344.08
  A 1.34 1.34 0.0 0 0 341.69 341.45
  L 340.03 341.03
  Q 341.18 341.06 341.19 339.75
  Q 341.48 306.21 341.18 272.45
  Q 336.42 272.03 334.98 272.03
  Q 295.47 271.84 280.00 271.95
  Q 278.57 271.96 275.04 272.44
  Z
  M 182.10 272.36
  L 179.26 272.81
  Q 178.77 272.64 178.82 273.71
  L 178.67 276.56
  L 178.42 273.96
  A 1.39 1.39 0.0 0 0 177.04 272.70
  L 176.34 272.70
  A 1.37 1.37 0.0 0 0 174.97 274.06
  Q 174.81 302.49 174.89 331.98
  Q 174.91 337.34 175.98 342.07
  A 2.49 2.48 -6.5 0 0 178.42 344.00
  Q 178.70 344.00 183.27 344.30
  C 187.49 344.59 192.04 343.92 195.74 344.27
  Q 197.43 344.43 199.74 344.17
  C 202.52 343.86 206.35 343.56 209.75 343.69
  Q 220.32 344.12 231.59 344.20
  Q 233.01 344.21 234.29 344.25
  Q 242.01 344.47 249.15 344.28
  A 1.31 1.31 0.0 0 0 249.75 341.82
  Q 249.65 341.77 249.01 340.91
  Q 249.89 341.36 250.39 340.61
  L 250.63 339.04
  Q 251.11 338.27 251.13 337.23
  Q 251.65 307.19 250.70 277.19
  Q 250.02 275.54 250.00 273.43
  A 0.70 0.70 0.0 0 0 249.50 272.76
  L 247.97 272.31
  L 182.10 272.36
  Z
  M 150.96 272.48
  L 86.80 272.60
  A 1.20 1.20 0.0 0 0 85.60 273.80
  L 85.60 342.44
  A 1.23 1.23 0.0 0 0 86.83 343.67
  L 155.65 343.67
  A 0.97 0.97 0.0 0 0 156.62 342.73
  L 156.80 338.32
  Q 157.49 336.15 156.77 334.19
  L 156.79 289.82
  L 156.86 278.18
  L 156.56 273.58
  A 0.83 0.82 -81.4 0 0 156.05 272.88
  Q 154.31 272.17 152.04 272.54
  Q 151.61 272.08 150.96 272.48
  Z"
/>
<path fill="#e35b00" fill-opacity="0.859" d="
  M 77.21 71.65
  Q 86.74 82.26 96.90 92.35
  Q 99.17 94.61 102.26 96.74
  A 0.70 0.69 17.6 0 0 103.35 96.18
  L 103.56 63.58
  Q 104.06 65.00 105.46 64.77
  A 1.12 1.11 -78.1 0 0 106.22 64.27
  C 108.16 61.33 114.04 62.71 116.96 63.93
  L 118.20 67.52
  Q 117.69 67.77 118.10 67.83
  Q 117.52 66.87 117.00 67.14
  Q 116.17 67.57 116.45 69.00
  Q 115.36 88.26 116.11 98.23
  Q 117.08 111.13 115.71 118.15
  A 1.63 1.56 68.2 0 1 115.48 118.72
  Q 114.82 119.74 115.20 120.81
  A 0.71 0.70 -16.4 0 0 116.02 121.25
  Q 116.49 121.15 117.04 120.75
  Q 116.72 121.47 116.02 121.75
  Q 111.12 123.64 106.51 122.44
  Q 110.18 121.75 104.34 118.70
  Q 96.82 111.69 89.87 103.96
  Q 88.27 102.17 87.01 101.12
  Q 84.95 99.40 83.72 98.03
  Q 79.02 92.86 75.33 89.70
  Q 68.80 84.12 66.88 82.23
  Q 58.97 74.45 40.73 56.12
  Q 36.52 51.89 35.70 48.27
  A 2.36 2.36 0.0 0 1 35.74 47.10
  Q 37.16 42.14 42.20 41.36
  C 44.43 41.01 47.16 42.95 48.63 44.37
  Q 58.98 54.40 73.30 69.03
  Q 73.36 69.09 74.29 70.34
  Q 75.25 71.63 77.21 71.65
  Z"
/>
<path fill="#191a06" fill-opacity="0.957" d="
  M 120.97 63.39
  L 119.29 63.41
  L 120.97 63.39
  Z"
/>
<path fill="#ffffff" d="
  M 103.56 63.58
  L 103.35 96.18
  A 0.70 0.69 17.6 0 1 102.26 96.74
  Q 99.17 94.61 96.90 92.35
  Q 86.74 82.26 77.21 71.65
  Q 76.07 70.28 75.69 68.79
  Q 75.44 67.81 75.97 67.31
  Q 76.47 66.82 77.45 66.69
  Q 79.46 66.81 81.28 67.78
  Q 82.00 68.38 83.08 68.65
  L 89.94 66.52
  L 92.82 65.40
  Q 98.23 63.26 103.56 63.58
  Z"
/>
<path fill="#ffffff" d="
  M 119.29 63.41
  L 120.97 63.39
  L 128.72 64.76
  L 130.51 65.57
  L 135.69 67.79
  L 136.63 68.43
  Q 144.53 73.38 150.71 80.33
  Q 150.92 80.85 151.40 81.05
  L 157.64 89.38
  Q 157.98 90.38 158.68 91.31
  L 160.25 94.37
  Q 160.22 95.18 160.79 95.77
  L 163.24 106.05
  L 163.40 107.71
  L 163.68 108.79
  Q 163.56 109.77 163.74 110.68
  Q 163.55 111.53 163.85 112.31
  L 163.99 119.18
  Q 163.54 120.54 163.62 122.05
  Q 163.61 122.12 163.60 122.19
  Q 163.10 123.78 163.21 125.22
  C 162.38 128.66 162.28 132.84 160.74 136.00
  Q 160.10 136.57 160.05 137.54
  Q 159.92 137.76 159.86 138.04
  L 158.22 141.22
  Q 157.41 142.28 156.97 143.79
  Q 153.60 148.99 149.03 153.35
  L 147.54 155.06
  Q 146.74 155.46 146.25 156.24
  L 145.96 156.46
  L 144.85 157.46
  L 137.45 163.21
  L 134.24 164.64
  L 130.16 166.27
  Q 127.75 166.20 125.92 167.45
  L 117.22 168.77
  Q 116.56 168.99 116.19 168.75
  Q 102.21 170.65 89.46 165.40
  Q 86.43 164.15 84.66 162.87
  C 82.76 161.51 80.38 160.96 78.38 159.45
  Q 70.16 153.23 65.99 145.99
  Q 62.71 140.30 62.34 139.85
  A 6.75 5.72 78.5 0 1 61.93 139.00
  L 58.46 130.06
  A 1.88 1.71 32.8 0 1 58.34 129.61
  L 56.78 119.45
  L 57.00 111.32
  Q 57.23 110.90 57.21 110.21
  Q 58.07 101.52 59.46 98.76
  C 60.81 96.07 63.53 90.68 63.58 87.00
  L 63.87 85.29
  Q 64.31 85.36 64.76 85.24
  C 66.57 86.24 68.34 87.12 69.95 88.45
  Q 78.78 95.76 82.67 99.82
  Q 87.10 104.43 91.65 108.86
  Q 91.87 109.66 92.53 109.67
  L 92.77 109.96
  Q 92.93 110.31 93.27 110.44
  L 99.55 116.52
  Q 100.14 117.39 100.95 117.80
  L 101.48 118.30
  Q 101.62 118.61 101.94 118.76
  Q 102.43 119.69 103.22 120.02
  Q 104.39 121.53 106.51 122.44
  Q 111.12 123.64 116.02 121.75
  Q 116.72 121.47 117.04 120.75
  Q 117.70 119.96 118.03 118.78
  Q 118.59 117.58 118.56 116.17
  L 119.27 94.79
  Q 119.32 94.63 119.36 94.46
  L 119.43 90.55
  Q 119.33 90.03 119.50 89.68
  L 118.20 67.52
  L 116.96 63.93
  L 119.29 63.41
  Z"
/>
<path fill="#191a06" fill-opacity="0.957" d="
  M 130.51 65.57
  L 128.72 64.76
  Q 130.21 64.64 130.51 65.57
  Z"
/>
<path fill="#191a06" fill-opacity="0.957" d="
  M 92.82 65.40
  L 89.94 66.52
  Q 91.10 65.13 92.82 65.40
  Z"
/>
<path fill="#454b18" fill-opacity="0.094" d="
  M 118.10 67.83
  Q 116.54 72.14 116.45 69.00
  Q 116.17 67.57 117.00 67.14
  Q 117.52 66.87 118.10 67.83
  Z"
/>
<path fill="#343c07" fill-opacity="0.180" d="
  M 118.20 67.52
  L 119.50 89.68
  Q 119.21 89.98 119.43 90.55
  L 119.36 94.46
  Q 119.38 94.25 119.35 94.06
  A 0.16 0.16 0.0 0 0 119.04 94.06
  Q 118.99 94.38 119.27 94.79
  L 118.56 116.17
  Q 117.49 116.50 118.03 118.78
  Q 117.70 119.96 117.04 120.75
  Q 116.49 121.15 116.02 121.25
  A 0.71 0.70 -16.4 0 1 115.20 120.81
  Q 114.82 119.74 115.48 118.72
  A 1.63 1.56 68.2 0 0 115.71 118.15
  Q 117.08 111.13 116.11 98.23
  Q 115.36 88.26 116.45 69.00
  Q 116.54 72.14 118.10 67.83
  Q 117.69 67.77 118.20 67.52
  Z"
/>
<path fill="#191a06" fill-opacity="0.957" d="
  M 83.08 68.65
  Q 82.00 68.38 81.28 67.78
  Q 82.31 67.38 83.08 68.65
  Z"
/>
<path fill="#191a06" fill-opacity="0.957" d="
  M 136.63 68.43
  L 135.69 67.79
  Q 136.65 67.64 136.63 68.43
  Z"
/>
<path fill="#191a06" fill-opacity="0.957" d="
  M 151.40 81.05
  Q 150.92 80.85 150.71 80.33
  Q 151.21 80.37 151.40 81.05
  Z"
/>
<path fill="#191a06" fill-opacity="0.957" d="
  M 63.74 84.71
  L 63.87 85.29
  L 63.58 87.00
  Q 63.41 85.35 62.76 84.56
  Q 63.28 84.53 63.74 84.71
  Z"
/>
<path fill="#e35b00" fill-opacity="0.859" d="
  M 64.76 85.24
  Q 64.31 85.36 63.87 85.29
  L 63.74 84.71
  Q 64.44 84.80 64.76 85.24
  Z"
/>
<path fill="#191a06" fill-opacity="0.957" d="
  M 158.68 91.31
  Q 157.98 90.38 157.64 89.38
  Q 158.49 89.62 158.68 91.31
  Z"
/>
<path fill="#1f2100" fill-opacity="0.553" d="
  M 119.50 89.68
  Q 119.33 90.03 119.43 90.55
  Q 119.21 89.98 119.50 89.68
  Z"
/>
<path fill="#343c07" fill-opacity="0.180" d="
  M 272.29 95.57
  Q 272.42 96.71 272.18 97.78
  L 272.15 108.77
  L 272.16 146.01
  L 272.15 150.25
  Q 272.16 150.37 272.17 150.50
  Q 272.05 150.89 272.18 151.30
  L 272.19 155.02
  Q 272.01 158.06 271.83 161.07
  C 271.78 161.91 271.18 162.60 271.48 163.44
  Q 271.60 163.77 272.09 163.81
  Q 272.46 163.85 272.84 163.81
  L 272.84 164.95
  A 0.67 0.65 8.3 0 0 273.32 165.58
  L 274.30 165.87
  L 272.26 165.88
  A 1.02 1.00 -17.2 0 1 271.43 165.45
  C 267.88 160.54 268.65 153.55 268.64 147.49
  Q 268.58 124.54 268.67 96.64
  Q 268.67 96.28 268.60 95.26
  Q 268.48 93.58 269.80 93.21
  A 0.49 0.49 0.0 0 1 270.42 93.71
  Q 270.42 93.74 270.38 93.88
  A 0.60 0.60 0.0 0 0 270.74 94.61
  Q 271.58 94.93 272.29 95.57
  Z"
/>
<path fill="#1f2100" fill-opacity="0.553" d="
  M 119.36 94.46
  Q 119.32 94.63 119.27 94.79
  Q 118.99 94.38 119.04 94.06
  A 0.16 0.16 0.0 0 1 119.35 94.06
  Q 119.38 94.25 119.36 94.46
  Z"
/>
<path fill="#191a06" fill-opacity="0.957" d="
  M 235.18 94.18
  L 205.58 94.33
  L 235.18 94.18
  Z"
/>
<path fill="#191a06" fill-opacity="0.957" d="
  M 296.29 94.11
  L 290.24 94.17
  L 296.29 94.11
  Z"
/>
<path fill="#191a06" fill-opacity="0.957" d="
  M 331.19 94.13
  L 296.47 94.11
  L 331.19 94.13
  Z"
/>
<path fill="#191a06" fill-opacity="0.957" d="
  M 287.95 94.16
  L 281.80 94.20
  L 287.95 94.16
  Z"
/>
<path fill="#ffffff" d="
  M 290.24 94.17
  L 296.29 94.11
  Q 296.38 94.11 296.47 94.11
  L 331.19 94.13
  L 333.78 94.09
  L 334.71 94.11
  Q 337.67 94.14 340.64 94.20
  Q 341.04 94.20 341.18 94.59
  L 341.16 95.98
  L 341.11 160.29
  L 341.05 162.43
  Q 340.82 162.90 340.43 162.97
  L 311.29 163.20
  L 310.53 163.16
  L 309.29 163.16
  L 308.53 163.15
  Q 308.41 163.15 308.29 163.15
  L 307.53 163.17
  Q 307.41 163.17 307.29 163.17
  Q 306.90 163.25 306.53 163.17
  L 303.29 163.19
  Q 302.91 163.26 302.53 163.18
  Q 302.41 163.18 302.30 163.18
  L 300.53 163.19
  L 272.49 163.21
  L 272.19 155.02
  L 272.18 151.30
  L 272.17 150.50
  Q 272.16 150.37 272.15 150.25
  L 272.16 146.01
  L 272.15 108.77
  L 272.18 97.78
  Q 272.42 96.71 272.29 95.57
  Q 272.21 94.99 272.47 94.66
  Q 272.70 94.39 273.32 94.38
  Q 277.57 94.34 281.80 94.20
  L 287.95 94.16
  L 290.24 94.17
  Z"
/>
<path fill="#191a06" fill-opacity="0.957" d="
  M 334.71 94.11
  L 333.78 94.09
  Q 334.27 94.23 334.71 94.11
  Z"
/>
<path fill="#191a06" fill-opacity="0.957" d="
  M 160.79 95.77
  Q 160.22 95.18 160.25 94.37
  Q 160.76 94.90 160.79 95.77
  Z"
/>
<path fill="#ffffff" d="
  M 235.18 94.18
  L 241.22 94.35
  L 246.40 94.43
  L 249.64 94.64
  A 0.57 0.56 -88.9 0 1 250.17 95.20
  Q 250.18 97.41 250.81 99.01
  Q 249.80 130.76 250.72 162.58
  Q 250.59 162.64 250.45 162.69
  L 248.96 163.28
  Q 245.48 163.12 242.00 163.12
  Q 219.75 163.13 197.50 163.16
  Q 195.88 163.16 192.96 162.66
  L 192.29 162.62
  Q 192.07 162.64 191.87 162.61
  A 0.55 0.54 -75.8 0 1 191.46 161.92
  L 193.30 155.99
  Q 195.13 151.79 196.83 147.58
  C 198.11 144.42 198.63 141.30 199.34 137.99
  L 199.59 137.03
  L 200.78 129.33
  L 201.14 125.56
  L 201.17 123.20
  C 201.63 119.98 203.20 116.73 201.76 113.46
  A 3.86 3.80 -60.1 0 1 201.46 112.31
  L 200.73 104.47
  L 200.60 103.46
  Q 200.60 102.91 200.37 102.49
  L 200.42 98.08
  L 200.69 95.49
  A 0.63 0.62 -1.3 0 1 201.23 94.94
  L 205.58 94.33
  L 235.18 94.18
  Z"
/>
<path fill="#191a06" fill-opacity="0.957" d="
  M 246.40 94.43
  L 241.22 94.35
  L 246.40 94.43
  Z"
/>
<path fill="#191a06" fill-opacity="0.957" d="
  M 341.16 95.98
  L 341.18 94.59
  Q 341.70 95.04 341.16 95.98
  Z"
/>
<path fill="#191a06" fill-opacity="0.957" d="
  M 272.18 97.78
  L 272.15 108.77
  L 272.18 97.78
  Z"
/>
<path fill="#191a06" fill-opacity="0.957" d="
  M 200.42 98.08
  L 200.37 102.49
  Q 199.96 100.26 200.42 98.08
  Z"
/>
<path fill="#191a06" fill-opacity="0.957" d="
  M 250.72 162.58
  Q 249.80 130.76 250.81 99.01
  Q 251.82 130.76 250.72 162.58
  Z"
/>
<path fill="#191a06" fill-opacity="0.957" d="
  M 200.73 104.47
  Q 200.55 104.04 200.60 103.46
  L 200.73 104.47
  Z"
/>
<path fill="#e35b00" fill-opacity="0.859" d="
  M 163.56 107.04
  L 163.40 107.71
  L 163.24 106.05
  Q 163.50 106.43 163.56 107.04
  Z"
/>
<path fill="#191a06" fill-opacity="0.957" d="
  M 163.68 108.79
  L 163.40 107.71
  L 163.56 107.04
  Q 163.81 107.81 163.68 108.79
  Z"
/>
<path fill="#e35b00" fill-opacity="0.859" d="
  M 92.53 109.67
  Q 91.87 109.66 91.65 108.86
  Q 92.31 108.59 92.53 109.67
  Z"
/>
<path fill="#191a06" fill-opacity="0.957" d="
  M 93.27 110.44
  Q 92.93 110.31 92.77 109.96
  Q 93.17 110.07 93.27 110.44
  Z"
/>
<path fill="#191a06" fill-opacity="0.957" d="
  M 57.21 110.21
  Q 57.23 110.90 57.00 111.32
  L 57.21 110.21
  Z"
/>
<path fill="#191a06" fill-opacity="0.957" d="
  M 163.85 112.31
  Q 163.55 111.53 163.74 110.68
  Q 164.27 111.11 163.85 112.31
  Z"
/>
<path fill="#191a06" fill-opacity="0.957" d="
  M 57.00 111.32
  L 56.78 119.45
  Q 56.08 115.37 57.00 111.32
  Z"
/>
<path fill="#191a06" fill-opacity="0.957" d="
  M 118.56 116.17
  Q 118.59 117.58 118.03 118.78
  Q 117.49 116.50 118.56 116.17
  Z"
/>
<path fill="#191a06" fill-opacity="0.957" d="
  M 100.95 117.80
  Q 100.14 117.39 99.55 116.52
  Q 100.38 116.91 100.95 117.80
  Z"
/>
<path fill="#191a06" fill-opacity="0.957" d="
  M 101.94 118.76
  Q 101.62 118.61 101.48 118.30
  Q 101.86 118.41 101.94 118.76
  Z"
/>
<path fill="#3f4717" fill-opacity="0.357" d="
  M 106.51 122.44
  Q 104.39 121.53 103.22 120.02
  Q 104.79 119.99 104.34 118.70
  Q 110.18 121.75 106.51 122.44
  Z"
/>
<path fill="#e35b00" fill-opacity="0.859" d="
  M 103.22 120.02
  Q 102.43 119.69 101.94 118.76
  Q 102.95 119.14 103.22 120.02
  Z"
/>
<path fill="#191a06" fill-opacity="0.957" d="
  M 163.99 119.18
  Q 164.48 120.52 163.62 122.05
  Q 163.54 120.54 163.99 119.18
  Z"
/>
<path fill="#191a06" fill-opacity="0.957" d="
  M 163.21 125.22
  Q 163.10 123.78 163.60 122.19
  Q 163.91 123.69 163.21 125.22
  Z"
/>
<path fill="#191a06" fill-opacity="0.957" d="
  M 201.17 123.20
  L 201.14 125.56
  Q 200.79 124.35 201.17 123.20
  Z"
/>
<path fill="#191a06" fill-opacity="0.957" d="
  M 200.78 129.33
  L 199.59 137.03
  L 200.78 129.33
  Z"
/>
<path fill="#e35b00" fill-opacity="0.859" d="
  M 160.74 136.00
  L 160.68 136.49
  Q 160.40 137.16 160.05 137.54
  Q 160.10 136.57 160.74 136.00
  Z"
/>
<path fill="#191a06" fill-opacity="0.957" d="
  M 160.68 136.49
  Q 160.79 137.71 159.86 138.04
  Q 159.92 137.76 160.05 137.54
  Q 160.40 137.16 160.68 136.49
  Z"
/>
<path fill="#191a06" fill-opacity="0.957" d="
  M 199.59 137.03
  L 199.34 137.99
  Q 199.31 137.28 199.59 137.03
  Z"
/>
<path fill="#191a06" fill-opacity="0.957" d="
  M 158.22 141.22
  Q 158.14 142.84 156.97 143.79
  Q 157.41 142.28 158.22 141.22
  Z"
/>
<path fill="#191a06" fill-opacity="0.957" d="
  M 272.15 150.25
  L 272.16 146.01
  L 272.15 150.25
  Z"
/>
<path fill="#191a06" fill-opacity="0.957" d="
  M 272.17 150.50
  L 272.18 151.30
  Q 272.05 150.89 272.17 150.50
  Z"
/>
<path fill="#191a06" fill-opacity="0.957" d="
  M 149.03 153.35
  Q 148.91 154.66 147.54 155.06
  L 149.03 153.35
  Z"
/>
<path fill="#454b18" fill-opacity="0.094" d="
  M 193.30 155.99
  L 191.46 161.92
  A 0.55 0.54 -75.8 0 0 191.87 162.61
  Q 192.07 162.64 192.29 162.62
  L 192.96 162.66
  Q 195.88 163.16 197.50 163.16
  Q 219.75 163.13 242.00 163.12
  Q 245.48 163.12 248.96 163.28
  Q 249.37 163.71 250.21 163.78
  Q 251.59 164.22 251.32 165.16
  A 0.78 0.77 7.6 0 1 250.59 165.71
  L 241.80 165.90
  A 1.55 1.45 -53.2 0 0 241.29 165.99
  Q 238.49 166.95 235.51 165.76
  A 0.85 0.82 55.2 0 0 235.20 165.70
  L 188.48 166.22
  A 0.85 0.84 -80.2 0 1 187.68 165.08
  L 191.65 154.53
  A 0.91 0.89 11.8 0 1 192.55 153.95
  Q 193.70 154.02 193.30 155.99
  Z"
/>
<path fill="#191a06" fill-opacity="0.957" d="
  M 147.54 155.06
  Q 147.12 155.89 146.25 156.24
  Q 146.74 155.46 147.54 155.06
  Z"
/>
<path fill="#191a06" fill-opacity="0.957" d="
  M 272.19 155.02
  L 272.49 163.21
  Q 272.66 163.51 272.84 163.81
  Q 272.46 163.85 272.09 163.81
  Q 271.60 163.77 271.48 163.44
  C 271.18 162.60 271.78 161.91 271.83 161.07
  Q 272.01 158.06 272.19 155.02
  Z"
/>
<path fill="#191a06" fill-opacity="0.957" d="
  M 145.96 156.46
  Q 145.72 157.47 144.85 157.46
  L 145.96 156.46
  Z"
/>
<path fill="#191a06" fill-opacity="0.957" d="
  M 341.11 160.29
  L 341.05 162.43
  L 341.11 160.29
  Z"
/>
<path fill="#191a06" fill-opacity="0.957" d="
  M 192.96 162.66
  L 192.29 162.62
  L 192.96 162.66
  Z"
/>
<path fill="#191a06" fill-opacity="0.957" d="
  M 250.45 162.69
  Q 250.49 163.26 250.21 163.78
  Q 249.37 163.71 248.96 163.28
  L 250.45 162.69
  Z"
/>
<path fill="#191a06" fill-opacity="0.957" d="
  M 302.30 163.18
  Q 301.42 163.00 300.53 163.19
  L 302.30 163.18
  Z"
/>
<path fill="#191a06" fill-opacity="0.957" d="
  M 303.29 163.19
  Q 302.86 162.98 302.53 163.18
  Q 302.91 163.26 303.29 163.19
  Z"
/>
<path fill="#191a06" fill-opacity="0.957" d="
  M 307.29 163.17
  Q 306.85 163.00 306.53 163.17
  Q 306.90 163.25 307.29 163.17
  Z"
/>
<path fill="#191a06" fill-opacity="0.957" d="
  M 308.29 163.15
  Q 307.86 163.03 307.53 163.17
  L 308.29 163.15
  Z"
/>
<path fill="#191a06" fill-opacity="0.957" d="
  M 309.29 163.16
  Q 308.91 163.03 308.53 163.15
  L 309.29 163.16
  Z"
/>
<path fill="#191a06" fill-opacity="0.957" d="
  M 311.29 163.20
  Q 310.98 163.00 310.53 163.16
  L 311.29 163.20
  Z"
/>
<path fill="#191a06" fill-opacity="0.957" d="
  M 137.45 163.21
  Q 136.96 164.67 134.24 164.64
  L 137.45 163.21
  Z"
/>
<path fill="#e35b00" fill-opacity="0.859" d="
  M 130.16 166.27
  Q 128.37 167.44 125.92 167.45
  Q 127.75 166.20 130.16 166.27
  Z"
/>
<path fill="#191a06" fill-opacity="0.957" d="
  M 117.22 168.77
  Q 116.64 169.05 116.19 168.75
  Q 116.56 168.99 117.22 168.77
  Z"
/>
<path fill="#e35b00" fill-opacity="0.859" d="
  M 342.65 248.47
  L 342.61 251.04
  L 342.61 254.64
  A 1.39 1.39 0.0 0 1 341.22 256.02
  L 271.48 256.02
  A 1.10 1.10 0.0 0 1 270.38 254.92
  L 270.38 183.64
  A 1.27 1.27 0.0 0 1 271.65 182.37
  L 341.37 182.37
  A 1.25 1.24 -90.0 0 1 342.61 183.62
  L 342.65 248.47
  Z"
/>
<path fill="#191a06" fill-opacity="0.957" d="
  M 178.75 184.11
  L 179.66 184.74
  Q 178.71 185.67 178.74 186.98
  Q 178.06 185.31 178.75 184.11
  Z"
/>
<path fill="#ffffff" d="
  M 248.44 184.63
  L 249.52 185.05
  A 0.82 0.81 9.1 0 1 250.04 185.76
  L 250.10 186.80
  L 250.13 187.95
  L 250.40 190.78
  L 250.51 214.97
  L 250.25 242.43
  L 250.17 250.53
  L 250.13 251.28
  Q 250.32 252.60 249.46 253.58
  A 0.85 0.83 19.9 0 1 248.82 253.87
  Q 216.35 254.07 183.88 254.06
  Q 181.50 254.06 179.25 253.54
  L 178.88 253.18
  L 178.55 249.02
  L 178.58 245.43
  L 178.64 239.84
  Q 178.56 239.53 178.65 239.24
  L 178.59 228.50
  L 178.63 218.50
  L 178.67 192.83
  L 178.74 186.98
  Q 178.71 185.67 179.66 184.74
  L 248.44 184.63
  Z"
/>
<path fill="#3f4717" fill-opacity="0.357" d="
  M 179.25 253.54
  Q 181.50 254.06 183.88 254.06
  Q 216.35 254.07 248.82 253.87
  A 0.85 0.83 19.9 0 0 249.46 253.58
  Q 250.32 252.60 250.13 251.28
  L 251.05 255.87
  A 0.97 0.96 82.9 0 1 250.15 257.03
  C 242.08 257.42 236.18 257.99 227.98 257.62
  Q 211.53 256.89 190.86 257.45
  C 188.69 257.51 186.77 257.23 183.96 256.96
  Q 176.33 256.22 176.31 247.85
  Q 176.23 205.29 176.22 200.50
  Q 176.19 192.74 177.10 185.62
  A 0.32 0.32 0.0 0 1 177.72 185.57
  Q 178.01 186.64 178.03 188.65
  Q 178.33 222.65 177.88 253.10
  A 0.41 0.40 85.2 0 0 178.35 253.50
  Q 178.83 253.42 179.25 253.54
  Z"
/>
<path fill="#191a06" fill-opacity="0.957" d="
  M 250.10 186.80
  L 250.13 187.95
  L 250.10 186.80
  Z"
/>
<path fill="#191a06" fill-opacity="0.957" d="
  M 250.17 250.53
  L 250.25 242.43
  Q 251.19 228.67 250.51 214.97
  L 250.40 190.78
  Q 251.10 195.10 251.07 196.75
  C 250.79 214.40 251.64 232.13 250.51 249.75
  Q 250.48 250.27 250.17 250.53
  Z"
/>
<path fill="#191a06" fill-opacity="0.957" d="
  M 178.67 192.83
  L 178.63 218.50
  L 178.67 192.83
  Z"
/>
<path fill="#ffffff" d="
  M 156.73 211.99
  L 156.66 251.55
  Q 156.54 251.51 156.44 251.94
  L 155.52 253.60
  L 88.88 254.55
  A 1.01 1.01 0.0 0 1 87.85 253.54
  L 87.85 206.23
  A 1.25 1.25 0.0 0 1 89.55 205.06
  L 92.28 206.09
  L 94.21 206.21
  Q 94.75 206.39 95.21 206.27
  L 104.16 206.73
  L 106.24 206.87
  L 110.92 206.93
  L 120.61 206.91
  L 127.53 206.00
  Q 127.84 206.07 128.21 206.00
  Q 128.66 206.04 128.97 205.83
  L 129.58 205.63
  L 136.85 203.72
  L 140.82 202.36
  L 145.79 200.67
  Q 146.37 200.64 146.78 200.25
  Q 147.56 200.15 148.27 199.72
  Q 148.89 199.65 149.31 199.24
  Q 149.97 199.21 150.50 198.83
  Q 153.52 197.56 155.66 195.26
  A 0.20 0.20 0.0 0 1 156.01 195.39
  L 156.73 211.99
  Z"
/>
<path fill="#191a06" fill-opacity="0.957" d="
  M 150.50 198.83
  Q 149.97 199.21 149.31 199.24
  Q 149.82 198.86 150.50 198.83
  Z"
/>
<path fill="#191a06" fill-opacity="0.957" d="
  M 149.31 199.24
  Q 148.89 199.65 148.27 199.72
  Q 148.60 199.28 149.31 199.24
  Z"
/>
<path fill="#191a06" fill-opacity="0.957" d="
  M 146.78 200.25
  Q 146.37 200.64 145.79 200.67
  Q 146.21 200.27 146.78 200.25
  Z"
/>
<path fill="#191a06" fill-opacity="0.957" d="
  M 140.82 202.36
  L 136.85 203.72
  Q 138.56 202.31 140.82 202.36
  Z"
/>
<path fill="#454b18" fill-opacity="0.094" d="
  M 99.51 206.25
  L 95.21 206.27
  Q 94.75 206.39 94.21 206.21
  L 92.28 206.09
  L 89.55 205.06
  A 1.25 1.25 0.0 0 0 87.85 206.23
  L 87.85 253.54
  A 1.01 1.01 0.0 0 0 88.88 254.55
  L 155.52 253.60
  L 156.22 253.55
  Q 158.30 254.26 156.69 256.41
  A 1.08 1.08 0.0 0 1 155.89 256.84
  C 150.33 257.20 144.90 257.68 138.99 257.47
  Q 120.10 256.82 104.50 257.26
  Q 96.08 257.50 88.00 256.94
  C 84.49 256.69 84.87 253.89 84.86 250.75
  Q 84.85 234.10 84.94 208.75
  Q 84.95 206.54 85.37 205.48
  A 1.04 1.04 0.0 0 1 86.02 204.87
  C 91.88 203.03 98.94 204.33 105.75 205.01
  A 0.12 0.12 0.0 0 1 105.76 205.25
  L 99.51 206.25
  Z"
/>
<path fill="#191a06" fill-opacity="0.957" d="
  M 129.58 205.63
  L 128.97 205.83
  Q 128.65 205.87 128.33 205.76
  Q 128.55 205.37 129.58 205.63
  Z"
/>
<path fill="#191a06" fill-opacity="0.957" d="
  M 127.53 206.00
  L 120.61 206.91
  Q 123.99 205.87 127.53 206.00
  Z"
/>
<path fill="#e35b00" fill-opacity="0.859" d="
  M 128.97 205.83
  Q 128.66 206.04 128.21 206.00
  Q 128.27 205.88 128.33 205.76
  Q 128.65 205.87 128.97 205.83
  Z"
/>
<path fill="#191a06" fill-opacity="0.957" d="
  M 94.21 206.21
  L 92.28 206.09
  L 94.21 206.21
  Z"
/>
<path fill="#191a06" fill-opacity="0.957" d="
  M 99.51 206.25
  L 104.16 206.73
  L 95.21 206.27
  L 99.51 206.25
  Z"
/>
<path fill="#191a06" fill-opacity="0.957" d="
  M 110.92 206.93
  L 106.24 206.87
  L 110.92 206.93
  Z"
/>
<path fill="#191a06" fill-opacity="0.957" d="
  M 156.66 251.55
  L 156.73 211.99
  Q 157.41 230.58 157.11 249.23
  Q 157.09 250.61 156.66 251.55
  Z"
/>
<path fill="#e35b00" fill-opacity="0.859" d="
  M 250.25 242.43
  L 250.51 214.97
  Q 251.19 228.67 250.25 242.43
  Z"
/>
<path fill="#191a06" fill-opacity="0.957" d="
  M 178.59 228.50
  L 178.65 239.24
  L 178.59 228.50
  Z"
/>
<path fill="#191a06" fill-opacity="0.957" d="
  M 178.64 239.84
  L 178.58 245.43
  L 178.64 239.84
  Z"
/>
<path fill="#191a06" fill-opacity="0.957" d="
  M 342.65 248.47
  L 342.61 251.04
  L 342.65 248.47
  Z"
/>
<path fill="#191a06" fill-opacity="0.957" d="
  M 178.88 253.18
  Q 178.27 251.10 178.55 249.02
  L 178.88 253.18
  Z"
/>
<path fill="#191a06" fill-opacity="0.957" d="
  M 156.44 251.94
  Q 156.68 252.62 156.22 253.55
  L 155.52 253.60
  L 156.44 251.94
  Z"
/>
<path fill="#191a06" fill-opacity="0.957" d="
  M 341.18 272.45
  L 275.04 272.44
  Q 278.57 271.96 280.00 271.95
  Q 295.47 271.84 334.98 272.03
  Q 336.42 272.03 341.18 272.45
  Z"
/>
<path fill="#191a06" fill-opacity="0.957" d="
  M 247.97 272.31
  L 182.10 272.36
  L 247.97 272.31
  Z"
/>
<path fill="#454b18" fill-opacity="0.094" d="
  M 272.03 280.05
  L 272.03 323.46
  L 272.00 324.30
  L 272.13 338.17
  Q 270.92 342.48 272.74 341.13
  L 340.03 341.03
  L 341.69 341.45
  A 1.34 1.34 0.0 0 1 341.42 344.08
  Q 331.08 344.52 320.48 344.21
  Q 313.31 344.00 307.52 344.11
  Q 299.54 344.26 294.53 343.96
  Q 292.04 343.82 276.72 344.40
  Q 276.48 344.41 271.99 344.02
  A 0.77 0.77 0.0 0 1 271.32 343.49
  Q 270.21 340.05 270.22 336.81
  Q 270.31 310.61 269.67 284.21
  C 269.58 280.53 269.90 276.07 270.30 272.53
  A 0.29 0.29 0.0 0 1 270.88 272.52
  L 272.03 280.05
  Z"
/>
<path fill="#191a06" fill-opacity="0.957" d="
  M 152.04 272.54
  Q 151.51 272.40 150.96 272.48
  Q 151.61 272.08 152.04 272.54
  Z"
/>
<path fill="#ffffff" d="
  M 341.18 272.45
  Q 341.48 306.21 341.19 339.75
  Q 341.18 341.06 340.03 341.03
  L 272.74 341.13
  Q 271.92 341.20 272.12 339.77
  Q 272.23 338.96 272.13 338.17
  L 272.00 324.30
  Q 272.11 323.93 272.03 323.46
  L 272.03 280.05
  L 272.29 273.45
  A 0.86 0.84 78.6 0 1 272.77 272.71
  Q 273.58 272.32 275.04 272.44
  L 341.18 272.45
  Z"
/>
<path fill="#e35b00" fill-opacity="0.859" d="
  M 150.96 272.48
  Q 151.51 272.40 152.04 272.54
  Q 154.31 272.17 156.05 272.88
  A 0.83 0.82 -81.4 0 1 156.56 273.58
  L 156.86 278.18
  L 156.79 289.82
  L 156.77 334.19
  L 156.80 338.32
  L 156.62 342.73
  A 0.97 0.97 0.0 0 1 155.65 343.67
  L 86.83 343.67
  A 1.23 1.23 0.0 0 1 85.60 342.44
  L 85.60 273.80
  A 1.20 1.20 0.0 0 1 86.80 272.60
  L 150.96 272.48
  Z"
/>
<path fill="#343c07" fill-opacity="0.180" d="
  M 178.67 276.56
  L 178.54 277.96
  Q 178.03 278.76 178.52 279.80
  Q 178.52 279.88 178.52 279.96
  Q 178.19 280.38 178.54 280.72
  L 178.60 288.01
  L 178.57 304.46
  L 178.57 306.77
  L 178.58 328.04
  L 178.38 331.72
  L 178.37 337.56
  Q 178.79 337.90 178.60 338.69
  Q 177.51 342.52 179.14 341.03
  L 249.01 340.91
  Q 249.65 341.77 249.75 341.82
  A 1.31 1.31 0.0 0 1 249.15 344.28
  Q 242.01 344.47 234.29 344.25
  Q 233.01 344.21 231.59 344.20
  Q 220.32 344.12 209.75 343.69
  C 206.35 343.56 202.52 343.86 199.74 344.17
  Q 197.43 344.43 195.74 344.27
  C 192.04 343.92 187.49 344.59 183.27 344.30
  Q 178.70 344.00 178.42 344.00
  A 2.49 2.48 -6.5 0 1 175.98 342.07
  Q 174.91 337.34 174.89 331.98
  Q 174.81 302.49 174.97 274.06
  A 1.37 1.37 0.0 0 1 176.34 272.70
  L 177.04 272.70
  A 1.39 1.39 0.0 0 1 178.42 273.96
  L 178.67 276.56
  Z"
/>
<path fill="#ffffff" d="
  M 182.10 272.36
  L 247.97 272.31
  L 249.50 272.76
  A 0.70 0.70 0.0 0 1 250.00 273.43
  Q 250.02 275.54 250.70 277.19
  L 250.63 339.04
  Q 250.34 339.68 250.39 340.61
  Q 249.89 341.36 249.01 340.91
  L 179.14 341.03
  Q 178.62 340.66 178.60 338.69
  Q 178.79 337.90 178.37 337.56
  L 178.38 331.72
  L 178.58 328.04
  L 178.57 306.77
  L 178.57 304.46
  L 178.60 288.01
  L 178.54 280.72
  L 178.52 279.96
  Q 178.52 279.88 178.52 279.80
  L 178.54 277.96
  L 178.67 276.56
  L 178.82 273.71
  Q 178.83 273.10 179.26 272.81
  L 182.10 272.36
  Z"
/>
<path fill="#191a06" fill-opacity="0.957" d="
  M 179.26 272.81
  Q 178.83 273.10 178.82 273.71
  Q 178.77 272.64 179.26 272.81
  Z"
/>
<path fill="#191a06" fill-opacity="0.957" d="
  M 250.63 339.04
  L 250.70 277.19
  Q 251.65 307.19 251.13 337.23
  Q 251.11 338.27 250.63 339.04
  Z"
/>
<path fill="#191a06" fill-opacity="0.957" d="
  M 178.54 277.96
  L 178.52 279.80
  Q 178.03 278.76 178.54 277.96
  Z"
/>
<path fill="#191a06" fill-opacity="0.957" d="
  M 156.79 289.82
  L 156.86 278.18
  L 156.79 289.82
  Z"
/>
<path fill="#191a06" fill-opacity="0.957" d="
  M 178.52 279.96
  L 178.54 280.72
  Q 178.19 280.38 178.52 279.96
  Z"
/>
<path fill="#191a06" fill-opacity="0.957" d="
  M 178.57 304.46
  L 178.60 288.01
  L 178.57 304.46
  Z"
/>
<path fill="#191a06" fill-opacity="0.957" d="
  M 178.58 328.04
  L 178.57 306.77
  L 178.58 328.04
  Z"
/>
<path fill="#191a06" fill-opacity="0.957" d="
  M 272.00 324.30
  L 272.03 323.46
  Q 272.11 323.93 272.00 324.30
  Z"
/>
<path fill="#191a06" fill-opacity="0.957" d="
  M 178.38 331.72
  L 178.37 337.56
  L 178.38 331.72
  Z"
/>
<path fill="#191a06" fill-opacity="0.957" d="
  M 156.80 338.32
  L 156.77 334.19
  Q 157.49 336.15 156.80 338.32
  Z"
/>
<path fill="#191a06" fill-opacity="0.957" d="
  M 272.74 341.13
  Q 270.92 342.48 272.13 338.17
  Q 272.23 338.96 272.12 339.77
  Q 271.92 341.20 272.74 341.13
  Z"
/>
<path fill="#191a06" fill-opacity="0.957" d="
  M 179.14 341.03
  Q 177.51 342.52 178.60 338.69
  Q 178.62 340.66 179.14 341.03
  Z"
/>
<path fill="#191a06" fill-opacity="0.957" d="
  M 250.63 339.04
  L 250.39 340.61
  Q 250.34 339.68 250.63 339.04
  Z"
/>
</svg>
