<?xml version="1.0" encoding="UTF-8" standalone="no"?>
<!DOCTYPE svg PUBLIC "-//W3C//DTD SVG 1.1//EN" "http://www.w3.org/Graphics/SVG/1.1/DTD/svg11.dtd">
<svg xmlns="http://www.w3.org/2000/svg" version="1.1" viewBox="0.00 0.00 509.00 44.00">
<path fill="#1778f0" d="
  M 267.07 35.81
  A 0.80 0.80 0.0 0 1 268.20 36.25
  L 269.13 38.85
  A 1.21 1.20 -21.6 0 1 268.47 40.37
  C 261.51 43.32 251.05 43.80 245.28 38.55
  C 238.05 31.99 238.02 19.12 241.14 10.93
  C 244.30 2.62 255.43 -0.27 263.32 2.24
  Q 266.24 3.17 269.36 5.89
  A 1.11 1.10 -47.2 0 1 269.42 7.50
  L 267.66 9.26
  A 1.26 1.25 44.2 0 1 265.91 9.28
  Q 261.90 5.43 256.19 5.93
  C 250.29 6.45 246.76 10.51 245.58 16.36
  C 243.83 25.00 245.51 37.55 256.79 37.89
  Q 262.78 38.08 267.07 35.81
  Z"
/>
<path fill="#1778f0" d="
  M 345.57 22.87
  A 0.60 0.60 0.0 0 1 346.17 22.27
  L 350.21 22.27
  A 0.72 0.72 0.0 0 1 350.93 22.99
  L 350.93 38.67
  A 0.97 0.96 -12.6 0 1 350.37 39.54
  C 343.56 42.60 331.84 44.40 325.45 39.30
  C 318.59 33.83 317.50 24.00 319.07 15.56
  C 320.62 7.21 326.02 2.38 334.25 1.51
  Q 343.22 0.56 349.68 5.56
  A 1.37 1.36 -48.8 0 1 349.81 7.60
  L 348.17 9.24
  A 1.39 1.39 0.0 0 1 346.15 9.18
  C 343.31 6.03 336.49 5.19 332.54 6.58
  C 326.96 8.54 324.78 13.77 324.45 19.51
  C 323.96 28.03 325.76 37.59 336.28 37.89
  Q 340.94 38.02 344.65 36.78
  A 1.36 1.35 80.8 0 0 345.57 35.49
  L 345.57 22.87
  Z"
/>
<rect fill="#1778f0" x="400.52" y="1.37" width="5.46" height="40.78" rx="0.54"/>
<path fill="#1778f0" d="
  M 1.47 1.78
  Q 10.15 1.24 17.52 2.15
  C 22.47 2.76 26.07 6.45 26.69 11.65
  C 28.22 24.50 16.70 25.90 7.24 25.32
  A 0.54 0.54 0.0 0 0 6.67 25.86
  L 6.67 41.54
  A 0.61 0.61 0.0 0 1 6.06 42.15
  L 1.65 42.15
  A 0.53 0.53 0.0 0 1 1.12 41.62
  L 1.12 2.15
  A 0.37 0.37 0.0 0 1 1.47 1.78
  Z
  M 6.63 6.58
  L 6.71 20.50
  A 0.39 0.39 0.0 0 0 7.10 20.89
  L 13.98 20.85
  A 7.33 6.92 -0.3 0 0 21.27 13.89
  L 21.27 13.03
  A 7.33 6.92 -0.3 0 0 13.90 6.15
  L 7.02 6.19
  A 0.39 0.39 0.0 0 0 6.63 6.58
  Z"
/>
<path fill="#1778f0" d="
  M 104.99 6.12
  L 94.01 6.12
  A 0.85 0.85 0.0 0 1 93.16 5.27
  L 93.16 2.50
  A 0.85 0.85 0.0 0 1 94.01 1.65
  L 122.29 1.65
  A 0.85 0.85 0.0 0 1 123.14 2.50
  L 123.14 5.26
  A 0.85 0.85 0.0 0 1 122.29 6.11
  L 112.16 6.11
  A 0.85 0.85 0.0 0 0 111.31 6.96
  L 111.31 41.30
  A 0.85 0.85 0.0 0 1 110.46 42.15
  L 106.69 42.15
  A 0.85 0.85 0.0 0 1 105.84 41.30
  L 105.84 6.97
  A 0.85 0.85 0.0 0 0 104.99 6.12
  Z"
/>
<path fill="#1778f0" d="
  M 202.20 41.38
  A 0.50 0.50 0.0 0 1 201.77 42.14
  L 197.55 42.14
  A 1.56 1.54 -15.4 0 1 196.22 41.39
  L 186.86 25.81
  A 0.96 0.94 74.1 0 0 186.05 25.35
  L 180.83 25.35
  A 0.65 0.64 -0.0 0 0 180.18 25.99
  L 180.18 41.61
  A 0.54 0.54 0.0 0 1 179.64 42.15
  L 175.21 42.15
  A 0.57 0.56 0.0 0 1 174.64 41.59
  L 174.64 2.41
  A 0.75 0.75 0.0 0 1 175.37 1.66
  Q 182.35 1.50 187.25 1.72
  C 193.17 1.98 198.17 3.91 199.87 9.67
  C 201.25 14.37 199.96 21.47 195.02 23.52
  Q 193.78 24.03 192.81 24.52
  A 0.59 0.58 61.4 0 0 192.57 25.35
  L 202.20 41.38
  Z
  M 180.17 6.68
  L 180.19 20.34
  A 0.53 0.53 0.0 0 0 180.72 20.87
  L 187.32 20.86
  A 7.37 6.42 -0.1 0 0 194.68 14.43
  L 194.68 12.55
  A 7.37 6.42 -0.1 0 0 187.30 6.14
  L 180.70 6.15
  A 0.53 0.53 0.0 0 0 180.17 6.68
  Z"
/>
<path fill="#1778f0" d="
  M 214.18 23.87
  L 214.18 36.61
  A 0.64 0.64 0.0 0 0 214.82 37.25
  L 232.81 37.25
  A 0.64 0.64 0.0 0 1 233.45 37.89
  L 233.45 41.53
  A 0.64 0.64 0.0 0 1 232.81 42.17
  L 209.44 42.17
  A 0.64 0.64 0.0 0 1 208.80 41.53
  L 208.80 2.27
  A 0.64 0.64 0.0 0 1 209.44 1.63
  L 232.28 1.63
  A 0.64 0.64 0.0 0 1 232.92 2.27
  L 232.92 5.48
  A 0.64 0.64 0.0 0 1 232.28 6.12
  L 214.78 6.12
  A 0.64 0.64 0.0 0 0 214.14 6.76
  L 214.14 17.83
  A 0.64 0.64 0.0 0 0 214.78 18.47
  L 230.33 18.47
  A 0.64 0.64 0.0 0 1 230.97 19.11
  L 230.97 22.59
  A 0.64 0.64 0.0 0 1 230.33 23.23
  L 214.82 23.23
  A 0.64 0.64 0.0 0 0 214.18 23.87
  Z"
/>
<path fill="#1778f0" d="
  M 312.4200 25.8758
  A 16.79 16.79 0.0 0 1 295.5423 42.5777
  L 292.5024 42.5618
  A 16.79 16.79 0.0 0 1 275.8005 25.6841
  L 275.8400 18.1442
  A 16.79 16.79 0.0 0 1 292.7177 1.4423
  L 295.7576 1.4582
  A 16.79 16.79 0.0 0 1 312.4595 18.3359
  L 312.4200 25.8758
  Z
  M 306.7549 17.6359
  A 11.66 11.66 0.0 0 0 295.0542 6.0167
  L 293.0943 6.0235
  A 11.66 11.66 0.0 0 0 281.4750 17.7241
  L 281.5051 26.3441
  A 11.66 11.66 0.0 0 0 293.2058 37.9633
  L 295.1657 37.9565
  A 11.66 11.66 0.0 0 0 306.7850 26.2559
  L 306.7549 17.6359
  Z"
/>
<path fill="#1778f0" d="
  M 433.49 6.69
  A 0.37 0.37 0.0 0 0 433.18 6.13
  L 415.28 6.13
  A 1.22 1.22 0.0 0 1 414.06 4.91
  L 414.06 2.82
  A 1.18 1.18 0.0 0 1 415.24 1.64
  L 439.92 1.64
  A 1.16 1.15 -84.4 0 1 441.05 3.02
  L 440.43 6.23
  A 1.12 1.12 0.0 0 1 440.30 6.55
  L 420.68 36.56
  A 0.41 0.41 0.0 0 0 421.02 37.20
  L 439.73 37.20
  A 0.76 0.75 90.0 0 1 440.48 37.96
  L 440.48 41.45
  A 0.72 0.72 0.0 0 1 439.76 42.17
  L 414.28 42.17
  A 0.90 0.89 87.2 0 1 413.39 41.36
  Q 413.11 38.37 414.77 35.80
  Q 426.50 17.77 433.49 6.69
  Z"
/>
<path fill="#1778f0" d="
  M 470.21 22.57
  A 0.70 0.69 0.5 0 1 469.51 23.24
  L 453.92 23.21
  A 0.47 0.46 0.1 0 0 453.45 23.67
  L 453.48 36.64
  A 0.60 0.59 0.1 0 0 454.08 37.23
  L 471.83 37.24
  A 0.84 0.83 89.0 0 1 472.66 38.05
  L 472.80 41.18
  A 0.93 0.92 -1.1 0 1 471.87 42.14
  L 448.63 42.16
  A 0.54 0.53 0.1 0 1 448.09 41.63
  L 448.11 2.31
  A 0.69 0.69 0.0 0 1 448.80 1.62
  L 471.48 1.66
  A 0.86 0.86 0.0 0 1 472.34 2.59
  L 472.13 5.35
  A 0.87 0.86 2.2 0 1 471.26 6.15
  L 454.12 6.12
  A 0.66 0.66 0.0 0 0 453.46 6.78
  L 453.45 17.85
  A 0.57 0.56 -89.9 0 0 454.01 18.42
  L 469.55 18.52
  A 0.75 0.75 0.0 0 1 470.29 19.29
  L 470.21 22.57
  Z"
/>
<path fill="#1778f0" d="
  M 508.04 41.38
  A 0.50 0.50 0.0 0 1 507.61 42.14
  L 503.39 42.14
  A 1.55 1.54 -15.5 0 1 502.06 41.39
  L 492.68 25.83
  A 0.96 0.94 74.0 0 0 491.87 25.37
  L 486.65 25.38
  A 0.65 0.64 -0.1 0 0 486.00 26.02
  L 486.02 41.64
  A 0.54 0.54 0.0 0 1 485.48 42.18
  L 481.05 42.18
  A 0.57 0.56 -0.1 0 1 480.48 41.62
  L 480.43 2.45
  A 0.75 0.75 0.0 0 1 481.16 1.70
  Q 488.14 1.53 493.03 1.74
  C 498.95 1.99 503.96 3.92 505.66 9.67
  C 507.05 14.37 505.77 21.47 500.83 23.53
  Q 499.59 24.04 498.63 24.53
  A 0.59 0.58 61.3 0 0 498.39 25.36
  L 508.04 41.38
  Z
  M 486.04 6.62
  L 486.04 20.40
  A 0.49 0.49 0.0 0 0 486.53 20.89
  L 492.97 20.89
  A 7.57 6.72 0.0 0 0 500.54 14.17
  L 500.54 12.85
  A 7.57 6.72 -0.0 0 0 492.97 6.13
  L 486.53 6.13
  A 0.49 0.49 0.0 0 0 486.04 6.62
  Z"
/>
<path fill="#1778f0" d="
  M 35.25 1.71
  L 39.33 1.71
  A 0.67 0.67 0.0 0 1 40.00 2.38
  L 40.00 36.55
  A 0.67 0.67 0.0 0 0 40.67 37.22
  L 57.88 37.22
  A 0.67 0.67 0.0 0 1 58.55 37.89
  L 58.55 41.49
  A 0.67 0.67 0.0 0 1 57.88 42.16
  L 35.25 42.16
  A 0.67 0.67 0.0 0 1 34.58 41.49
  L 34.58 2.38
  A 0.67 0.67 0.0 0 1 35.25 1.71
  Z"
/>
<path fill="#1778f0" d="
  M 78.17 1.64
  Q 79.58 1.63 80.79 1.66
  A 1.12 1.11 80.6 0 1 81.82 2.41
  L 95.72 41.27
  A 0.61 0.61 0.0 0 1 95.15 42.09
  L 91.53 42.09
  A 1.33 1.32 -9.6 0 1 90.28 41.21
  L 86.64 31.03
  A 1.41 1.39 -12.1 0 0 85.21 30.11
  Q 83.89 30.23 78.33 30.26
  Q 72.76 30.29 71.44 30.19
  A 1.41 1.39 11.5 0 0 70.02 31.12
  L 66.49 41.34
  A 1.33 1.32 9.0 0 1 65.25 42.23
  L 61.63 42.27
  A 0.61 0.61 0.0 0 1 61.05 41.46
  L 74.53 2.45
  A 1.12 1.11 -81.3 0 1 75.55 1.69
  Q 76.76 1.65 78.17 1.64
  Z
  M 72.11 25.27
  A 0.33 0.33 0.0 0 0 72.42 25.71
  L 84.30 25.71
  A 0.33 0.33 0.0 0 0 84.61 25.27
  L 78.67 8.04
  A 0.33 0.33 0.0 0 0 78.05 8.04
  L 72.11 25.27
  Z"
/>
<path fill="#1778f0" d="
  M 150.11 22.56
  A 0.70 0.69 0.5 0 1 149.41 23.24
  L 133.85 23.21
  A 0.47 0.46 0.0 0 0 133.38 23.66
  L 133.41 36.62
  A 0.60 0.59 0.0 0 0 134.01 37.21
  L 151.74 37.21
  A 0.84 0.83 89.0 0 1 152.57 38.02
  L 152.71 41.15
  A 0.93 0.92 -1.1 0 1 151.78 42.11
  L 128.57 42.13
  A 0.54 0.53 0.0 0 1 128.03 41.60
  L 128.03 2.34
  A 0.69 0.69 0.0 0 1 128.72 1.65
  L 151.38 1.68
  A 0.86 0.85 2.5 0 1 152.23 2.61
  L 152.02 5.37
  A 0.87 0.86 2.2 0 1 151.15 6.16
  L 134.04 6.14
  A 0.66 0.66 0.0 0 0 133.38 6.80
  L 133.37 17.86
  A 0.57 0.56 -90.0 0 0 133.93 18.43
  L 149.45 18.52
  A 0.75 0.75 0.0 0 1 150.20 19.29
  L 150.11 22.56
  Z"
/>
<path fill="#1778f0" d="
  M 365.31 9.45
  L 365.31 41.39
  A 0.74 0.73 -0.0 0 1 364.57 42.12
  L 360.77 42.12
  A 0.73 0.73 0.0 0 1 360.04 41.39
  L 360.04 2.50
  A 0.83 0.82 90.0 0 1 360.86 1.67
  L 365.79 1.67
  A 1.30 1.29 -15.9 0 1 366.89 2.28
  Q 375.99 17.06 381.09 25.14
  Q 382.75 27.79 384.77 31.99
  A 0.32 0.31 32.6 0 0 385.37 31.86
  L 385.37 2.22
  A 0.51 0.51 0.0 0 1 385.88 1.71
  L 390.27 1.71
  A 0.52 0.51 -90.0 0 1 390.78 2.23
  L 390.78 41.52
  A 0.63 0.63 0.0 0 1 390.15 42.15
  L 386.05 42.15
  A 1.61 1.58 -15.2 0 1 384.68 41.38
  L 365.47 9.40
  A 0.09 0.09 0.0 0 0 365.31 9.45
  Z"
/>
</svg>
