<?xml version="1.0" encoding="UTF-8" standalone="no"?>
<!DOCTYPE svg PUBLIC "-//W3C//DTD SVG 1.1//EN" "http://www.w3.org/Graphics/SVG/1.1/DTD/svg11.dtd">
<svg xmlns="http://www.w3.org/2000/svg" version="1.1" viewBox="0.00 0.00 400.00 400.00">
<g stroke-width="2.00" fill="none" stroke-linecap="butt">
<path stroke="#95dabf" vector-effect="non-scaling-stroke" d="
  M 10.00 0.00
  Q 11.19 0.38 12.43 0.25
  A 0.22 0.21 83.7 0 1 12.67 0.45
  L 12.67 0.46
  A 0.14 0.13 83.2 0 1 12.56 0.61
  Q 2.32 2.52 0.60 12.71
  A 0.11 0.11 0.0 0 1 0.38 12.70
  L 0.00 8.12"
/>
<path stroke="#25b181" vector-effect="non-scaling-stroke" d="
  M 168.27 0.00
  C 159.87 14.78 150.70 27.71 141.96 41.61
  C 133.64 54.85 126.84 64.37 118.80 75.50
  Q 108.31 89.99 104.82 106.98
  Q 103.00 115.85 101.55 124.77"
/>
<path stroke="#95dabf" vector-effect="non-scaling-stroke" d="
  M 101.55 124.77
  C 89.17 122.39 62.98 121.77 54.90 134.08
  Q 48.27 144.17 55.69 154.38
  Q 59.81 160.04 65.60 165.65
  Q 72.03 171.87 78.88 177.99"
/>
<path stroke="#25b181" vector-effect="non-scaling-stroke" d="
  M 78.88 177.99
  Q 65.55 182.30 57.13 191.60
  Q 49.92 199.56 45.63 206.40
  C 30.50 230.49 19.08 250.19 0.00 268.28"
/>
<path stroke="#1aab87" vector-effect="non-scaling-stroke" d="
  M 320.65 0.00
  Q 317.13 1.75 313.60 3.50
  C 302.63 8.94 293.97 16.52 287.02 26.69
  C 272.94 47.26 258.03 69.56 245.96 92.34"
/>
<path stroke="#8fd7c2" vector-effect="non-scaling-stroke" d="
  M 245.96 92.34
  Q 234.34 86.20 220.48 83.85
  Q 195.63 79.62 172.48 85.22
  C 159.72 88.31 143.06 95.48 137.75 108.66
  C 133.94 118.12 135.56 127.29 138.38 137.38
  Q 149.90 178.62 172.24 215.25"
/>
<path stroke="#1aab87" vector-effect="non-scaling-stroke" d="
  M 172.24 215.25
  C 160.14 223.55 150.73 232.46 143.80 243.25
  C 131.60 262.26 120.40 278.40 110.13 294.30
  Q 100.25 309.61 71.51 352.89
  Q 67.48 358.96 60.40 369.38
  C 53.15 380.06 47.63 388.40 42.84 400.00"
/>
<path stroke="#8fd7c2" vector-effect="non-scaling-stroke" d="
  M 13.03 400.00
  Q 2.81 397.46 0.00 387.06"
/>
<path stroke="#8fd7c2" vector-effect="non-scaling-stroke" d="
  M 78.88 177.99
  Q 97.74 194.10 104.18 198.33
  Q 112.97 204.09 121.90 209.89
  Q 125.68 212.35 128.72 212.93
  C 134.56 214.05 139.72 208.97 138.00 202.98
  Q 133.54 187.46 125.74 164.27
  Q 122.17 153.66 118.11 144.14
  C 114.46 135.60 110.79 127.81 101.55 124.77"
/>
<path stroke="#8ad3c5" vector-effect="non-scaling-stroke" d="
  M 385.87 0.00
  C 387.87 0.84 390.10 1.34 391.79 2.38
  Q 396.05 4.97 398.08 9.68"
/>
<path stroke="#10a48d" vector-effect="non-scaling-stroke" d="
  M 398.08 9.68
  Q 397.89 14.23 396.98 19.83
  C 396.07 25.53 391.72 23.69 387.82 25.58
  Q 382.63 28.09 378.82 32.32
  C 366.21 46.32 354.52 62.61 344.85 79.69
  Q 338.38 91.11 335.06 96.99
  Q 325.37 114.18 307.33 123.49"
/>
<path stroke="#8ad3c5" vector-effect="non-scaling-stroke" d="
  M 307.33 123.49
  Q 301.43 123.88 299.44 124.40
  C 289.93 126.90 285.72 134.52 282.10 142.86
  C 273.88 161.77 268.52 180.29 262.03 201.51
  Q 260.16 207.62 264.29 211.50"
/>
<path stroke="#10a48d" vector-effect="non-scaling-stroke" d="
  M 264.29 211.50
  Q 256.60 220.95 250.12 231.22
  C 245.73 238.18 241.86 246.43 237.99 254.18
  Q 233.19 263.79 224.46 270.14"
/>
<path stroke="#8ad3c5" vector-effect="non-scaling-stroke" d="
  M 224.46 270.14
  C 217.29 262.60 211.40 257.32 200.73 257.15
  C 189.82 256.97 184.82 260.77 177.56 267.80
  Q 164.93 280.04 155.94 292.67
  Q 152.49 297.52 152.19 300.04
  C 151.48 306.17 157.57 309.54 162.54 311.47
  Q 167.21 313.29 173.54 314.57
  Q 188.13 317.51 202.93 317.07"
/>
<path stroke="#10a48d" vector-effect="non-scaling-stroke" d="
  M 202.93 317.07
  L 204.30 317.34
  A 0.28 0.28 0.0 0 1 204.44 317.81
  Q 190.08 332.27 179.79 347.09
  Q 169.57 361.82 157.12 381.96
  Q 152.58 389.30 149.11 400.00"
/>
<path stroke="#8ad3c5" vector-effect="non-scaling-stroke" d="
  M 172.24 215.25
  Q 177.03 223.47 182.75 231.22
  C 189.05 239.77 200.20 242.90 209.79 237.49
  C 214.14 235.04 217.39 230.68 220.12 226.62
  Q 247.95 185.24 261.50 136.76
  C 264.99 124.27 266.10 112.74 257.92 101.85
  Q 254.45 97.23 245.96 92.34"
/>
<path stroke="#95dabf" vector-effect="non-scaling-stroke" d="
  M 387.91 0.00
  Q 389.21 0.47 390.51 0.00"
/>
<path stroke="#95dabf" vector-effect="non-scaling-stroke" d="
  M 400.00 12.39
  L 400.00 19.47"
/>
<path stroke="#95dabf" vector-effect="non-scaling-stroke" d="
  M 400.00 20.15
  L 400.00 31.97"
/>
<path stroke="#95dabf" vector-effect="non-scaling-stroke" d="
  M 400.00 32.12
  Q 399.61 32.91 400.00 33.01"
/>
<path stroke="#95dabf" vector-effect="non-scaling-stroke" d="
  M 400.00 34.12
  Q 399.61 34.91 400.00 35.01"
/>
<path stroke="#95dabf" vector-effect="non-scaling-stroke" d="
  M 400.00 36.12
  Q 399.62 36.89 400.00 37.01"
/>
<path stroke="#95dabf" vector-effect="non-scaling-stroke" d="
  M 400.00 37.11
  Q 399.61 38.58 400.00 40.03"
/>
<path stroke="#95dabf" vector-effect="non-scaling-stroke" d="
  M 400.00 40.16
  L 400.00 69.45"
/>
<path stroke="#95dabf" vector-effect="non-scaling-stroke" d="
  M 400.00 70.62
  Q 399.63 71.42 400.00 71.51"
/>
<path stroke="#95dabf" vector-effect="non-scaling-stroke" d="
  M 400.00 78.37
  Q 399.65 79.18 400.00 79.52"
/>
<path stroke="#95dabf" vector-effect="non-scaling-stroke" d="
  M 400.00 82.37
  Q 399.65 83.17 400.00 83.52"
/>
<path stroke="#95dabf" vector-effect="non-scaling-stroke" d="
  M 400.00 84.12
  Q 399.66 85.13 400.00 86.02"
/>
<path stroke="#95dabf" vector-effect="non-scaling-stroke" d="
  M 400.00 86.12
  Q 399.66 86.96 400.00 87.52"
/>
<path stroke="#95dabf" vector-effect="non-scaling-stroke" d="
  M 400.00 88.37
  Q 399.65 89.17 400.00 89.52"
/>
<path stroke="#95dabf" vector-effect="non-scaling-stroke" d="
  M 400.00 90.12
  Q 399.64 91.14 400.00 92.02"
/>
<path stroke="#95dabf" vector-effect="non-scaling-stroke" d="
  M 400.00 92.11
  Q 399.63 94.06 400.00 96.02"
/>
<path stroke="#95dabf" vector-effect="non-scaling-stroke" d="
  M 400.00 96.16
  L 400.00 143.45"
/>
<path stroke="#95dabf" vector-effect="non-scaling-stroke" d="
  M 400.00 150.37
  Q 399.62 151.24 400.00 151.52"
/>
<path stroke="#95dabf" vector-effect="non-scaling-stroke" d="
  M 400.00 152.16
  L 400.00 167.96"
/>
<path stroke="#95dabf" vector-effect="non-scaling-stroke" d="
  M 400.00 168.11
  Q 399.56 169.09 400.00 169.53"
/>
<path stroke="#95dabf" vector-effect="non-scaling-stroke" d="
  M 400.00 174.37
  Q 399.67 175.17 400.00 175.52"
/>
<path stroke="#95dabf" vector-effect="non-scaling-stroke" d="
  M 400.00 190.62
  Q 399.64 191.43 400.00 191.51"
/>
<path stroke="#95dabf" vector-effect="non-scaling-stroke" d="
  M 400.00 206.12
  Q 399.66 206.98 400.00 207.52"
/>
<path stroke="#95dabf" vector-effect="non-scaling-stroke" d="
  M 400.00 208.12
  Q 399.64 208.99 400.00 209.52"
/>
<path stroke="#95dabf" vector-effect="non-scaling-stroke" d="
  M 400.00 210.16
  L 400.00 223.97"
/>
<path stroke="#95dabf" vector-effect="non-scaling-stroke" d="
  M 400.00 224.12
  Q 399.63 225.00 400.00 225.52"
/>
<path stroke="#95dabf" vector-effect="non-scaling-stroke" d="
  M 400.00 226.12
  Q 399.61 227.15 400.00 228.03"
/>
<path stroke="#95dabf" vector-effect="non-scaling-stroke" d="
  M 400.00 228.12
  Q 399.65 228.99 400.00 229.52"
/>
<path stroke="#95dabf" vector-effect="non-scaling-stroke" d="
  M 400.00 230.62
  Q 399.62 231.45 400.00 231.51"
/>
<path stroke="#95dabf" vector-effect="non-scaling-stroke" d="
  M 400.00 264.15
  L 400.00 271.97"
/>
<path stroke="#95dabf" vector-effect="non-scaling-stroke" d="
  M 400.00 272.12
  Q 399.63 272.93 400.00 273.00"
/>
<path stroke="#95dabf" vector-effect="non-scaling-stroke" d="
  M 400.00 384.16
  Q 399.52 386.65 400.00 389.20"
/>
<path stroke="#95dabf" vector-effect="non-scaling-stroke" d="
  M 400.00 399.50
  Q 399.74 399.70 399.62 400.00"
/>
<path stroke="#80cdc9" vector-effect="non-scaling-stroke" d="
  M 389.51 400.00
  L 387.33 399.72
  A 0.15 0.15 0.0 0 1 387.31 399.42
  Q 398.99 396.05 399.02 383.00
  Q 399.19 318.52 398.98 254.04"
/>
<path stroke="#85d0c7" vector-effect="non-scaling-stroke" d="
  M 398.98 254.04
  Q 399.11 136.02 399.03 18.00
  Q 399.03 13.29 398.08 9.68"
/>
<path stroke="#069e91" vector-effect="non-scaling-stroke" d="
  M 398.98 254.04
  Q 398.76 234.33 398.51 214.63
  Q 398.40 205.04 397.42 195.05
  C 394.55 165.63 376.62 192.65 372.10 200.92
  Q 366.95 210.36 359.69 223.37
  C 357.63 227.07 354.53 231.72 352.56 234.37
  Q 338.63 253.08 325.31 275.52
  Q 323.28 278.94 311.48 294.92
  C 304.84 303.92 295.83 321.16 286.41 333.62
  Q 275.92 347.50 267.85 361.01
  C 261.60 371.48 258.11 376.59 250.31 388.43
  Q 247.40 392.86 246.07 400.00"
/>
<path stroke="#85d0c7" vector-effect="non-scaling-stroke" d="
  M 202.93 317.07
  Q 217.94 317.04 232.24 313.10
  C 239.98 310.97 252.17 305.89 245.63 295.63
  C 239.68 286.31 232.24 277.99 224.46 270.14"
/>
<path stroke="#85d0c7" vector-effect="non-scaling-stroke" d="
  M 264.29 211.50
  Q 268.64 214.58 273.17 212.44
  Q 278.40 209.97 295.11 198.33
  Q 314.68 184.71 335.72 163.98
  C 342.00 157.80 349.22 149.88 347.59 141.09
  C 345.82 131.49 339.02 127.44 329.51 125.25
  Q 318.83 122.79 307.33 123.49"
/>
</g>
<path fill="#ffffff" d="
  M 10.00 0.00
  Q 11.19 0.38 12.43 0.25
  A 0.22 0.21 83.7 0 1 12.67 0.45
  L 12.67 0.46
  A 0.14 0.13 83.2 0 1 12.56 0.61
  Q 2.32 2.52 0.60 12.71
  A 0.11 0.11 0.0 0 1 0.38 12.70
  L 0.00 8.12
  L 0.00 0.00
  L 10.00 0.00
  Z"
/>
<path fill="#2ab47e" d="
  M 168.27 0.00
  C 159.87 14.78 150.70 27.71 141.96 41.61
  C 133.64 54.85 126.84 64.37 118.80 75.50
  Q 108.31 89.99 104.82 106.98
  Q 103.00 115.85 101.55 124.77
  C 89.17 122.39 62.98 121.77 54.90 134.08
  Q 48.27 144.17 55.69 154.38
  Q 59.81 160.04 65.60 165.65
  Q 72.03 171.87 78.88 177.99
  Q 65.55 182.30 57.13 191.60
  Q 49.92 199.56 45.63 206.40
  C 30.50 230.49 19.08 250.19 0.00 268.28
  L 0.00 8.12
  L 0.38 12.70
  A 0.11 0.11 0.0 0 0 0.60 12.71
  Q 2.32 2.52 12.56 0.61
  A 0.14 0.13 83.2 0 0 12.67 0.46
  L 12.67 0.45
  A 0.22 0.21 83.7 0 0 12.43 0.25
  Q 11.19 0.38 10.00 0.00
  L 168.27 0.00
  Z"
/>
<path fill="#1fae84" d="
  M 320.65 0.00
  Q 317.13 1.75 313.60 3.50
  C 302.63 8.94 293.97 16.52 287.02 26.69
  C 272.94 47.26 258.03 69.56 245.96 92.34
  Q 234.34 86.20 220.48 83.85
  Q 195.63 79.62 172.48 85.22
  C 159.72 88.31 143.06 95.48 137.75 108.66
  C 133.94 118.12 135.56 127.29 138.38 137.38
  Q 149.90 178.62 172.24 215.25
  C 160.14 223.55 150.73 232.46 143.80 243.25
  C 131.60 262.26 120.40 278.40 110.13 294.30
  Q 100.25 309.61 71.51 352.89
  Q 67.48 358.96 60.40 369.38
  C 53.15 380.06 47.63 388.40 42.84 400.00
  L 13.03 400.00
  Q 2.81 397.46 0.00 387.06
  L 0.00 268.28
  C 19.08 250.19 30.50 230.49 45.63 206.40
  Q 49.92 199.56 57.13 191.60
  Q 65.55 182.30 78.88 177.99
  Q 97.74 194.10 104.18 198.33
  Q 112.97 204.09 121.90 209.89
  Q 125.68 212.35 128.72 212.93
  C 134.56 214.05 139.72 208.97 138.00 202.98
  Q 133.54 187.46 125.74 164.27
  Q 122.17 153.66 118.11 144.14
  C 114.46 135.60 110.79 127.81 101.55 124.77
  Q 103.00 115.85 104.82 106.98
  Q 108.31 89.99 118.80 75.50
  C 126.84 64.37 133.64 54.85 141.96 41.61
  C 150.70 27.71 159.87 14.78 168.27 0.00
  L 320.65 0.00
  Z"
/>
<path fill="#15a78a" d="
  M 385.87 0.00
  C 387.87 0.84 390.10 1.34 391.79 2.38
  Q 396.05 4.97 398.08 9.68
  Q 397.89 14.23 396.98 19.83
  C 396.07 25.53 391.72 23.69 387.82 25.58
  Q 382.63 28.09 378.82 32.32
  C 366.21 46.32 354.52 62.61 344.85 79.69
  Q 338.38 91.11 335.06 96.99
  Q 325.37 114.18 307.33 123.49
  Q 301.43 123.88 299.44 124.40
  C 289.93 126.90 285.72 134.52 282.10 142.86
  C 273.88 161.77 268.52 180.29 262.03 201.51
  Q 260.16 207.62 264.29 211.50
  Q 256.60 220.95 250.12 231.22
  C 245.73 238.18 241.86 246.43 237.99 254.18
  Q 233.19 263.79 224.46 270.14
  C 217.29 262.60 211.40 257.32 200.73 257.15
  C 189.82 256.97 184.82 260.77 177.56 267.80
  Q 164.93 280.04 155.94 292.67
  Q 152.49 297.52 152.19 300.04
  C 151.48 306.17 157.57 309.54 162.54 311.47
  Q 167.21 313.29 173.54 314.57
  Q 188.13 317.51 202.93 317.07
  L 204.30 317.34
  A 0.28 0.28 0.0 0 1 204.44 317.81
  Q 190.08 332.27 179.79 347.09
  Q 169.57 361.82 157.12 381.96
  Q 152.58 389.30 149.11 400.00
  L 42.84 400.00
  C 47.63 388.40 53.15 380.06 60.40 369.38
  Q 67.48 358.96 71.51 352.89
  Q 100.25 309.61 110.13 294.30
  C 120.40 278.40 131.60 262.26 143.80 243.25
  C 150.73 232.46 160.14 223.55 172.24 215.25
  Q 177.03 223.47 182.75 231.22
  C 189.05 239.77 200.20 242.90 209.79 237.49
  C 214.14 235.04 217.39 230.68 220.12 226.62
  Q 247.95 185.24 261.50 136.76
  C 264.99 124.27 266.10 112.74 257.92 101.85
  Q 254.45 97.23 245.96 92.34
  C 258.03 69.56 272.94 47.26 287.02 26.69
  C 293.97 16.52 302.63 8.94 313.60 3.50
  Q 317.13 1.75 320.65 0.00
  L 385.87 0.00
  Z"
/>
<path fill="#ffffff" d="
  M 387.91 0.00
  Q 389.21 0.47 390.51 0.00
  L 400.00 0.00
  L 400.00 12.39
  L 400.00 19.47
  L 400.00 20.15
  L 400.00 31.97
  Q 399.97 32.04 400.00 32.12
  Q 399.61 32.91 400.00 33.01
  L 400.00 34.12
  Q 399.61 34.91 400.00 35.01
  L 400.00 36.12
  Q 399.62 36.89 400.00 37.01
  Q 399.99 37.06 400.00 37.11
  Q 399.61 38.58 400.00 40.03
  Q 399.97 40.09 400.00 40.16
  L 400.00 69.45
  L 400.00 70.62
  Q 399.63 71.42 400.00 71.51
  L 400.00 78.37
  Q 399.65 79.18 400.00 79.52
  L 400.00 82.37
  Q 399.65 83.17 400.00 83.52
  L 400.00 84.12
  Q 399.66 85.13 400.00 86.02
  Q 399.99 86.07 400.00 86.12
  Q 399.66 86.96 400.00 87.52
  L 400.00 88.37
  Q 399.65 89.17 400.00 89.52
  L 400.00 90.12
  Q 399.64 91.14 400.00 92.02
  Q 399.99 92.07 400.00 92.11
  Q 399.63 94.06 400.00 96.02
  Q 399.97 96.09 400.00 96.16
  L 400.00 143.45
  L 400.00 150.37
  Q 399.62 151.24 400.00 151.52
  L 400.00 152.16
  L 400.00 167.96
  Q 399.97 168.04 400.00 168.11
  Q 399.56 169.09 400.00 169.53
  L 400.00 174.37
  Q 399.67 175.17 400.00 175.52
  L 400.00 190.62
  Q 399.64 191.43 400.00 191.51
  L 400.00 206.12
  Q 399.66 206.98 400.00 207.52
  L 400.00 208.12
  Q 399.64 208.99 400.00 209.52
  L 400.00 210.16
  L 400.00 223.97
  Q 400.00 224.04 400.00 224.12
  Q 399.63 225.00 400.00 225.52
  L 400.00 226.12
  Q 399.61 227.15 400.00 228.03
  Q 399.99 228.07 400.00 228.12
  Q 399.65 228.99 400.00 229.52
  L 400.00 230.62
  Q 399.62 231.45 400.00 231.51
  L 400.00 264.15
  L 400.00 271.97
  Q 399.98 272.04 400.00 272.12
  Q 399.63 272.93 400.00 273.00
  L 400.00 384.16
  Q 399.52 386.65 400.00 389.20
  L 400.00 399.50
  Q 399.74 399.70 399.62 400.00
  L 389.51 400.00
  L 387.33 399.72
  A 0.15 0.15 0.0 0 1 387.31 399.42
  Q 398.99 396.05 399.02 383.00
  Q 399.19 318.52 398.98 254.04
  Q 399.11 136.02 399.03 18.00
  Q 399.03 13.29 398.08 9.68
  Q 396.05 4.97 391.79 2.38
  C 390.10 1.34 387.87 0.84 385.87 0.00
  L 387.91 0.00
  Z"
/>
<path fill="#2ab47e" d="
  M 390.51 0.00
  Q 389.21 0.47 387.91 0.00
  L 390.51 0.00
  Z"
/>
<path fill="#0ba18f" d="
  M 398.98 254.04
  Q 398.76 234.33 398.51 214.63
  Q 398.40 205.04 397.42 195.05
  C 394.55 165.63 376.62 192.65 372.10 200.92
  Q 366.95 210.36 359.69 223.37
  C 357.63 227.07 354.53 231.72 352.56 234.37
  Q 338.63 253.08 325.31 275.52
  Q 323.28 278.94 311.48 294.92
  C 304.84 303.92 295.83 321.16 286.41 333.62
  Q 275.92 347.50 267.85 361.01
  C 261.60 371.48 258.11 376.59 250.31 388.43
  Q 247.40 392.86 246.07 400.00
  L 149.11 400.00
  Q 152.58 389.30 157.12 381.96
  Q 169.57 361.82 179.79 347.09
  Q 190.08 332.27 204.44 317.81
  A 0.28 0.28 0.0 0 0 204.30 317.34
  L 202.93 317.07
  Q 217.94 317.04 232.24 313.10
  C 239.98 310.97 252.17 305.89 245.63 295.63
  C 239.68 286.31 232.24 277.99 224.46 270.14
  Q 233.19 263.79 237.99 254.18
  C 241.86 246.43 245.73 238.18 250.12 231.22
  Q 256.60 220.95 264.29 211.50
  Q 268.64 214.58 273.17 212.44
  Q 278.40 209.97 295.11 198.33
  Q 314.68 184.71 335.72 163.98
  C 342.00 157.80 349.22 149.88 347.59 141.09
  C 345.82 131.49 339.02 127.44 329.51 125.25
  Q 318.83 122.79 307.33 123.49
  Q 325.37 114.18 335.06 96.99
  Q 338.38 91.11 344.85 79.69
  C 354.52 62.61 366.21 46.32 378.82 32.32
  Q 382.63 28.09 387.82 25.58
  C 391.72 23.69 396.07 25.53 396.98 19.83
  Q 397.89 14.23 398.08 9.68
  Q 399.03 13.29 399.03 18.00
  Q 399.11 136.02 398.98 254.04
  Z"
/>
<path fill="#2ab47e" d="
  M 400.00 12.39
  L 400.00 19.47
  L 400.00 12.39
  Z"
/>
<path fill="#2ab47e" d="
  M 400.00 20.15
  L 400.00 31.97
  L 400.00 20.15
  Z"
/>
<path fill="#2ab47e" d="
  M 400.00 32.12
  L 400.00 33.01
  Q 399.61 32.91 400.00 32.12
  Z"
/>
<path fill="#2ab47e" d="
  M 400.00 34.12
  L 400.00 35.01
  Q 399.61 34.91 400.00 34.12
  Z"
/>
<path fill="#2ab47e" d="
  M 400.00 36.12
  L 400.00 37.01
  Q 399.62 36.89 400.00 36.12
  Z"
/>
<path fill="#2ab47e" d="
  M 400.00 37.11
  L 400.00 40.03
  Q 399.61 38.58 400.00 37.11
  Z"
/>
<path fill="#2ab47e" d="
  M 400.00 40.16
  L 400.00 69.45
  L 400.00 40.16
  Z"
/>
<path fill="#2ab47e" d="
  M 400.00 70.62
  L 400.00 71.51
  Q 399.63 71.42 400.00 70.62
  Z"
/>
<path fill="#2ab47e" d="
  M 400.00 78.37
  L 400.00 79.52
  Q 399.65 79.18 400.00 78.37
  Z"
/>
<path fill="#ffffff" d="
  M 245.96 92.34
  Q 254.45 97.23 257.92 101.85
  C 266.10 112.74 264.99 124.27 261.50 136.76
  Q 247.95 185.24 220.12 226.62
  C 217.39 230.68 214.14 235.04 209.79 237.49
  C 200.20 242.90 189.05 239.77 182.75 231.22
  Q 177.03 223.47 172.24 215.25
  Q 149.90 178.62 138.38 137.38
  C 135.56 127.29 133.94 118.12 137.75 108.66
  C 143.06 95.48 159.72 88.31 172.48 85.22
  Q 195.63 79.62 220.48 83.85
  Q 234.34 86.20 245.96 92.34
  Z"
/>
<path fill="#2ab47e" d="
  M 400.00 82.37
  L 400.00 83.52
  Q 399.65 83.17 400.00 82.37
  Z"
/>
<path fill="#2ab47e" d="
  M 400.00 84.12
  L 400.00 86.02
  Q 399.66 85.13 400.00 84.12
  Z"
/>
<path fill="#2ab47e" d="
  M 400.00 86.12
  L 400.00 87.52
  Q 399.66 86.96 400.00 86.12
  Z"
/>
<path fill="#2ab47e" d="
  M 400.00 88.37
  L 400.00 89.52
  Q 399.65 89.17 400.00 88.37
  Z"
/>
<path fill="#2ab47e" d="
  M 400.00 90.12
  L 400.00 92.02
  Q 399.64 91.14 400.00 90.12
  Z"
/>
<path fill="#2ab47e" d="
  M 400.00 92.11
  L 400.00 96.02
  Q 399.63 94.06 400.00 92.11
  Z"
/>
<path fill="#2ab47e" d="
  M 400.00 96.16
  L 400.00 143.45
  L 400.00 96.16
  Z"
/>
<path fill="#ffffff" d="
  M 101.55 124.77
  C 110.79 127.81 114.46 135.60 118.11 144.14
  Q 122.17 153.66 125.74 164.27
  Q 133.54 187.46 138.00 202.98
  C 139.72 208.97 134.56 214.05 128.72 212.93
  Q 125.68 212.35 121.90 209.89
  Q 112.97 204.09 104.18 198.33
  Q 97.74 194.10 78.88 177.99
  Q 72.03 171.87 65.60 165.65
  Q 59.81 160.04 55.69 154.38
  Q 48.27 144.17 54.90 134.08
  C 62.98 121.77 89.17 122.39 101.55 124.77
  Z"
/>
<path fill="#ffffff" d="
  M 307.33 123.49
  Q 318.83 122.79 329.51 125.25
  C 339.02 127.44 345.82 131.49 347.59 141.09
  C 349.22 149.88 342.00 157.80 335.72 163.98
  Q 314.68 184.71 295.11 198.33
  Q 278.40 209.97 273.17 212.44
  Q 268.64 214.58 264.29 211.50
  Q 260.16 207.62 262.03 201.51
  C 268.52 180.29 273.88 161.77 282.10 142.86
  C 285.72 134.52 289.93 126.90 299.44 124.40
  Q 301.43 123.88 307.33 123.49
  Z"
/>
<path fill="#2ab47e" d="
  M 400.00 150.37
  L 400.00 151.52
  Q 399.62 151.24 400.00 150.37
  Z"
/>
<path fill="#2ab47e" d="
  M 400.00 152.16
  L 400.00 167.96
  L 400.00 152.16
  Z"
/>
<path fill="#2ab47e" d="
  M 400.00 168.11
  L 400.00 169.53
  Q 399.56 169.09 400.00 168.11
  Z"
/>
<path fill="#2ab47e" d="
  M 400.00 174.37
  L 400.00 175.52
  Q 399.67 175.17 400.00 174.37
  Z"
/>
<path fill="#019b93" d="
  M 398.98 254.04
  Q 399.19 318.52 399.02 383.00
  Q 398.99 396.05 387.31 399.42
  A 0.15 0.15 0.0 0 0 387.33 399.72
  L 389.51 400.00
  L 246.07 400.00
  Q 247.40 392.86 250.31 388.43
  C 258.11 376.59 261.60 371.48 267.85 361.01
  Q 275.92 347.50 286.41 333.62
  C 295.83 321.16 304.84 303.92 311.48 294.92
  Q 323.28 278.94 325.31 275.52
  Q 338.63 253.08 352.56 234.37
  C 354.53 231.72 357.63 227.07 359.69 223.37
  Q 366.95 210.36 372.10 200.92
  C 376.62 192.65 394.55 165.63 397.42 195.05
  Q 398.40 205.04 398.51 214.63
  Q 398.76 234.33 398.98 254.04
  Z"
/>
<path fill="#2ab47e" d="
  M 400.00 190.62
  L 400.00 191.51
  Q 399.64 191.43 400.00 190.62
  Z"
/>
<path fill="#2ab47e" d="
  M 400.00 206.12
  L 400.00 207.52
  Q 399.66 206.98 400.00 206.12
  Z"
/>
<path fill="#2ab47e" d="
  M 400.00 208.12
  L 400.00 209.52
  Q 399.64 208.99 400.00 208.12
  Z"
/>
<path fill="#2ab47e" d="
  M 400.00 210.16
  L 400.00 223.97
  L 400.00 210.16
  Z"
/>
<path fill="#2ab47e" d="
  M 400.00 224.12
  L 400.00 225.52
  Q 399.63 225.00 400.00 224.12
  Z"
/>
<path fill="#2ab47e" d="
  M 400.00 226.12
  L 400.00 228.03
  Q 399.61 227.15 400.00 226.12
  Z"
/>
<path fill="#2ab47e" d="
  M 400.00 228.12
  L 400.00 229.52
  Q 399.65 228.99 400.00 228.12
  Z"
/>
<path fill="#2ab47e" d="
  M 400.00 230.62
  L 400.00 231.51
  Q 399.62 231.45 400.00 230.62
  Z"
/>
<path fill="#ffffff" d="
  M 224.46 270.14
  C 232.24 277.99 239.68 286.31 245.63 295.63
  C 252.17 305.89 239.98 310.97 232.24 313.10
  Q 217.94 317.04 202.93 317.07
  Q 188.13 317.51 173.54 314.57
  Q 167.21 313.29 162.54 311.47
  C 157.57 309.54 151.48 306.17 152.19 300.04
  Q 152.49 297.52 155.94 292.67
  Q 164.93 280.04 177.56 267.80
  C 184.82 260.77 189.82 256.97 200.73 257.15
  C 211.40 257.32 217.29 262.60 224.46 270.14
  Z"
/>
<path fill="#2ab47e" d="
  M 400.00 264.15
  L 400.00 271.97
  L 400.00 264.15
  Z"
/>
<path fill="#2ab47e" d="
  M 400.00 272.12
  L 400.00 273.00
  Q 399.63 272.93 400.00 272.12
  Z"
/>
<path fill="#2ab47e" d="
  M 400.00 384.16
  L 400.00 389.20
  Q 399.52 386.65 400.00 384.16
  Z"
/>
<path fill="#ffffff" d="
  M 13.03 400.00
  L 0.00 400.00
  L 0.00 387.06
  Q 2.81 397.46 13.03 400.00
  Z"
/>
<path fill="#2ab47e" d="
  M 400.00 399.50
  L 400.00 400.00
  L 399.62 400.00
  Q 399.74 399.70 400.00 399.50
  Z"
/>
</svg>
