<?xml version="1.0" encoding="UTF-8" standalone="no"?>
<!DOCTYPE svg PUBLIC "-//W3C//DTD SVG 1.1//EN" "http://www.w3.org/Graphics/SVG/1.1/DTD/svg11.dtd">
<svg xmlns="http://www.w3.org/2000/svg" version="1.1" viewBox="0.00 0.00 480.00 480.00">
<path stroke="#8cafff" stroke-width="2.00" fill="none" stroke-linecap="butt" vector-effect="non-scaling-stroke" d="
  M 240.01 315.71
  Q 265.75 315.71 267.16 315.66
  A 1.40 1.39 11.3 0 0 268.38 314.85
  L 311.52 221.08
  A 0.27 0.27 0.0 0 1 312.03 221.20
  L 312.03 315.23
  A 0.48 0.47 0.0 0 0 312.51 315.70
  L 367.68 315.70
  A 0.28 0.28 0.0 0 0 367.96 315.42
  L 367.96 164.76
  A 0.46 0.46 0.0 0 0 367.50 164.30
  L 285.08 164.30
  A 1.68 1.68 0.0 0 0 283.55 165.28
  Q 256.58 223.89 240.55 258.85
  Q 240.35 259.29 240.01 259.29
  Q 239.66 259.29 239.46 258.85
  Q 223.43 223.89 196.45 165.28
  A 1.68 1.68 0.0 0 0 194.92 164.30
  L 112.50 164.31
  A 0.46 0.46 0.0 0 0 112.04 164.77
  L 112.06 315.43
  A 0.28 0.28 0.0 0 0 112.34 315.71
  L 167.51 315.71
  A 0.48 0.47 -0.0 0 0 167.99 315.24
  L 167.98 221.21
  A 0.27 0.27 0.0 0 1 168.49 221.09
  L 211.64 314.85
  A 1.40 1.39 -11.3 0 0 212.86 315.66
  Q 214.27 315.71 240.01 315.71"
/>
<path fill="#185efe" d="
  M 480.00 0.00
  L 480.00 480.00
  L 0.00 480.00
  L 0.00 0.00
  L 480.00 0.00
  Z
  M 240.01 315.71
  Q 265.75 315.71 267.16 315.66
  A 1.40 1.39 11.3 0 0 268.38 314.85
  L 311.52 221.08
  A 0.27 0.27 0.0 0 1 312.03 221.20
  L 312.03 315.23
  A 0.48 0.47 0.0 0 0 312.51 315.70
  L 367.68 315.70
  A 0.28 0.28 0.0 0 0 367.96 315.42
  L 367.96 164.76
  A 0.46 0.46 0.0 0 0 367.50 164.30
  L 285.08 164.30
  A 1.68 1.68 0.0 0 0 283.55 165.28
  Q 256.58 223.89 240.55 258.85
  Q 240.35 259.29 240.01 259.29
  Q 239.66 259.29 239.46 258.85
  Q 223.43 223.89 196.45 165.28
  A 1.68 1.68 0.0 0 0 194.92 164.30
  L 112.50 164.31
  A 0.46 0.46 0.0 0 0 112.04 164.77
  L 112.06 315.43
  A 0.28 0.28 0.0 0 0 112.34 315.71
  L 167.51 315.71
  A 0.48 0.47 -0.0 0 0 167.99 315.24
  L 167.98 221.21
  A 0.27 0.27 0.0 0 1 168.49 221.09
  L 211.64 314.85
  A 1.40 1.39 -11.3 0 0 212.86 315.66
  Q 214.27 315.71 240.01 315.71
  Z"
/>
<path fill="#ffffff" d="
  M 240.01 259.29
  Q 240.35 259.29 240.55 258.85
  Q 256.58 223.89 283.55 165.28
  A 1.68 1.68 0.0 0 1 285.08 164.30
  L 367.50 164.30
  A 0.46 0.46 0.0 0 1 367.96 164.76
  L 367.96 315.42
  A 0.28 0.28 0.0 0 1 367.68 315.70
  L 312.51 315.70
  A 0.48 0.47 0.0 0 1 312.03 315.23
  L 312.03 221.20
  A 0.27 0.27 0.0 0 0 311.52 221.08
  L 268.38 314.85
  A 1.40 1.39 11.3 0 1 267.16 315.66
  Q 265.75 315.71 240.01 315.71
  Q 214.27 315.71 212.86 315.66
  A 1.40 1.39 -11.3 0 1 211.64 314.85
  L 168.49 221.09
  A 0.27 0.27 0.0 0 0 167.98 221.21
  L 167.99 315.24
  A 0.48 0.47 -0.0 0 1 167.51 315.71
  L 112.34 315.71
  A 0.28 0.28 0.0 0 1 112.06 315.43
  L 112.04 164.77
  A 0.46 0.46 0.0 0 1 112.50 164.31
  L 194.92 164.30
  A 1.68 1.68 0.0 0 1 196.45 165.28
  Q 223.43 223.89 239.46 258.85
  Q 239.66 259.29 240.01 259.29
  Z"
/>
</svg>
