<?xml version="1.0" encoding="UTF-8" standalone="no"?>
<!DOCTYPE svg PUBLIC "-//W3C//DTD SVG 1.1//EN" "http://www.w3.org/Graphics/SVG/1.1/DTD/svg11.dtd">
<svg xmlns="http://www.w3.org/2000/svg" version="1.1" viewBox="0.00 0.00 400.00 400.00">
<path stroke="#92b4f2" stroke-width="2.00" fill="none" stroke-linecap="butt" vector-effect="non-scaling-stroke" d="
  M 166.00 271.58
  L 166.00 368.24
  A 0.65 0.64 4.8 0 0 166.54 368.87
  Q 193.77 372.99 220.25 369.99
  Q 256.95 365.83 289.35 346.05
  Q 329.88 321.31 352.59 279.37
  Q 366.71 253.29 371.23 224.21
  Q 374.41 203.79 372.59 180.22
  C 369.29 137.37 348.51 96.71 317.05 67.73
  Q 276.35 30.25 220.50 22.78
  Q 215.16 22.06 200.42 21.21
  C 195.61 20.93 191.48 21.63 186.66 21.88
  C 164.35 23.04 142.15 29.13 121.96 38.97
  Q 84.40 57.27 58.94 90.67
  C 39.30 116.43 25.91 149.34 23.94 182.60
  C 23.61 188.16 22.91 192.93 23.09 198.20
  C 23.93 222.75 28.64 246.30 38.89 268.64
  Q 60.04 314.74 102.37 342.96
  A 0.45 0.45 0.0 0 0 103.07 342.59
  L 103.07 167.59
  A 0.48 0.48 0.0 0 1 103.54 167.11
  C 118.37 166.71 135.46 171.25 145.56 182.21
  C 155.58 193.08 158.85 206.49 159.68 221.59
  A 0.48 0.47 -1.2 0 0 160.16 222.04
  L 244.47 222.04
  A 0.55 0.55 0.0 0 0 245.02 221.49
  L 245.02 143.63
  A 0.64 0.63 -90.0 0 0 244.39 142.99
  Q 186.93 142.79 157.83 143.01
  Q 140.30 143.15 134.35 141.63
  Q 112.60 136.08 105.41 113.74
  C 103.82 108.79 102.85 101.84 102.92 96.23
  A 0.66 0.66 0.0 0 1 103.59 95.58
  C 117.48 95.65 130.06 96.07 144.47 96.08
  Q 224.09 96.14 246.50 96.04
  C 259.82 95.98 271.69 98.02 281.91 107.25
  Q 294.06 118.22 294.03 136.99
  Q 293.96 205.41 294.04 240.00
  C 294.06 248.55 294.27 259.01 289.14 266.17
  C 286.50 269.87 283.43 271.02 278.75 270.99
  Q 261.63 270.88 166.63 270.95
  A 0.63 0.63 0.0 0 0 166.00 271.58"
/>
<path fill="#ffffff" d="
  M 400.00 0.00
  L 400.00 400.00
  L 0.00 400.00
  L 0.00 0.00
  L 400.00 0.00
  Z
  M 166.00 271.58
  L 166.00 368.24
  A 0.65 0.64 4.8 0 0 166.54 368.87
  Q 193.77 372.99 220.25 369.99
  Q 256.95 365.83 289.35 346.05
  Q 329.88 321.31 352.59 279.37
  Q 366.71 253.29 371.23 224.21
  Q 374.41 203.79 372.59 180.22
  C 369.29 137.37 348.51 96.71 317.05 67.73
  Q 276.35 30.25 220.50 22.78
  Q 215.16 22.06 200.42 21.21
  C 195.61 20.93 191.48 21.63 186.66 21.88
  C 164.35 23.04 142.15 29.13 121.96 38.97
  Q 84.40 57.27 58.94 90.67
  C 39.30 116.43 25.91 149.34 23.94 182.60
  C 23.61 188.16 22.91 192.93 23.09 198.20
  C 23.93 222.75 28.64 246.30 38.89 268.64
  Q 60.04 314.74 102.37 342.96
  A 0.45 0.45 0.0 0 0 103.07 342.59
  L 103.07 167.59
  A 0.48 0.48 0.0 0 1 103.54 167.11
  C 118.37 166.71 135.46 171.25 145.56 182.21
  C 155.58 193.08 158.85 206.49 159.68 221.59
  A 0.48 0.47 -1.2 0 0 160.16 222.04
  L 244.47 222.04
  A 0.55 0.55 0.0 0 0 245.02 221.49
  L 245.02 143.63
  A 0.64 0.63 -90.0 0 0 244.39 142.99
  Q 186.93 142.79 157.83 143.01
  Q 140.30 143.15 134.35 141.63
  Q 112.60 136.08 105.41 113.74
  C 103.82 108.79 102.85 101.84 102.92 96.23
  A 0.66 0.66 0.0 0 1 103.59 95.58
  C 117.48 95.65 130.06 96.07 144.47 96.08
  Q 224.09 96.14 246.50 96.04
  C 259.82 95.98 271.69 98.02 281.91 107.25
  Q 294.06 118.22 294.03 136.99
  Q 293.96 205.41 294.04 240.00
  C 294.06 248.55 294.27 259.01 289.14 266.17
  C 286.50 269.87 283.43 271.02 278.75 270.99
  Q 261.63 270.88 166.63 270.95
  A 0.63 0.63 0.0 0 0 166.00 271.58
  Z"
/>
<path fill="#2569e5" d="
  M 166.63 270.95
  Q 261.63 270.88 278.75 270.99
  C 283.43 271.02 286.50 269.87 289.14 266.17
  C 294.27 259.01 294.06 248.55 294.04 240.00
  Q 293.96 205.41 294.03 136.99
  Q 294.06 118.22 281.91 107.25
  C 271.69 98.02 259.82 95.98 246.50 96.04
  Q 224.09 96.14 144.47 96.08
  C 130.06 96.07 117.48 95.65 103.59 95.58
  A 0.66 0.66 0.0 0 0 102.92 96.23
  C 102.85 101.84 103.82 108.79 105.41 113.74
  Q 112.60 136.08 134.35 141.63
  Q 140.30 143.15 157.83 143.01
  Q 186.93 142.79 244.39 142.99
  A 0.64 0.63 90.0 0 1 245.02 143.63
  L 245.02 221.49
  A 0.55 0.55 0.0 0 1 244.47 222.04
  L 160.16 222.04
  A 0.48 0.47 -1.2 0 1 159.68 221.59
  C 158.85 206.49 155.58 193.08 145.56 182.21
  C 135.46 171.25 118.37 166.71 103.54 167.11
  A 0.48 0.48 0.0 0 0 103.07 167.59
  L 103.07 342.59
  A 0.45 0.45 0.0 0 1 102.37 342.96
  Q 60.04 314.74 38.89 268.64
  C 28.64 246.30 23.93 222.75 23.09 198.20
  C 22.91 192.93 23.61 188.16 23.94 182.60
  C 25.91 149.34 39.30 116.43 58.94 90.67
  Q 84.40 57.27 121.96 38.97
  C 142.15 29.13 164.35 23.04 186.66 21.88
  C 191.48 21.63 195.61 20.93 200.42 21.21
  Q 215.16 22.06 220.50 22.78
  Q 276.35 30.25 317.05 67.73
  C 348.51 96.71 369.29 137.37 372.59 180.22
  Q 374.41 203.79 371.23 224.21
  Q 366.71 253.29 352.59 279.37
  Q 329.88 321.31 289.35 346.05
  Q 256.95 365.83 220.25 369.99
  Q 193.77 372.99 166.54 368.87
  A 0.65 0.64 4.8 0 1 166.00 368.24
  L 166.00 271.58
  A 0.63 0.63 0.0 0 1 166.63 270.95
  Z"
/>
</svg>
