<svg width="128" height="128" viewBox="0 0 128 128" fill="none" xmlns="http://www.w3.org/2000/svg">
<g clip-path="url(#clip0_364_174)">
<path d="M34.0155 14.134C42.5096 28.297 35.5354 46.168 35.5354 46.168C51.3504 51.1533 52.2225 67.1208 52.2225 67.1208C52.7667 55.4614 62.3345 46.1512 74.1049 46.2175C86.1843 46.2548 95.9724 55.9337 96.0195 68.083C96.0284 76.4964 91.2587 83.799 84.2038 87.4982C104.366 89.817 120.419 74.0562 120.467 55.4316C120.502 37.5092 105.897 22.9836 88.0593 23.0182C82.2163 23.02 75.7891 25.1023 70.5299 28.01C70.2168 21.3391 74.1297 14.0388 74.1297 14.0388C67.1354 14.2264 63.0363 25.3617 63.0363 25.3617C54.9324 20.3554 45.5074 25.3673 45.5074 25.3673C41.7578 15.2787 36.9648 14.0136 34.9423 14.0472C34.3245 14.1051 34.0155 14.134 34.0155 14.134Z" fill="url(#paint0_radial_364_174)"/>
<path d="M15.9434 52.7035C6.30137 54.6672 3.25272 66.7946 3.25272 66.7946C21.0789 58.2553 22.4887 70.8377 31.5418 88.8641C38.0572 101.759 48.494 114.21 73.6187 114.531C103.745 114.926 129.173 88.1431 124.17 61.24C124.204 74.5686 104.629 93.6707 87.6986 93.5834C49.1118 93.6389 45.1896 52.066 21.0402 52.0264C19.3509 52.0586 17.7139 52.2098 15.9434 52.7035Z" fill="url(#paint1_linear_364_174)"/>
</g>
<defs>
<radialGradient id="paint0_radial_364_174" cx="0" cy="0" r="1" gradientUnits="userSpaceOnUse" gradientTransform="translate(29.1612 7.09769) rotate(39.6495) scale(109.7)">
<stop stop-color="#1F9ED7"/>
<stop offset="1" stop-color="#1D74AB"/>
</radialGradient>
<linearGradient id="paint1_linear_364_174" x1="9.75446" y1="101.313" x2="128.751" y2="49.0473" gradientUnits="userSpaceOnUse">
<stop stop-color="#505052"/>
<stop offset="1" stop-color="#231F20"/>
</linearGradient>
<clipPath id="clip0_364_174">
<rect width="128" height="128" fill="white"/>
</clipPath>
</defs>
</svg>
