<?xml version="1.0" encoding="UTF-8" standalone="no"?>
<!DOCTYPE svg PUBLIC "-//W3C//DTD SVG 1.1//EN" "http://www.w3.org/Graphics/SVG/1.1/DTD/svg11.dtd">
<svg xmlns="http://www.w3.org/2000/svg" version="1.1" viewBox="0.00 0.00 32.00 32.00">
<g stroke-width="2.00" fill="none" stroke-linecap="butt">
<path stroke="#869aa5" vector-effect="non-scaling-stroke" d="
  M 27.00 25.97
  A 1.62 1.62 0.0 0 0 28.00 23.73
  L 17.99 2.32
  A 1.62 1.62 0.0 0 0 15.14 2.16
  L 4.43 19.62
  A 1.62 1.62 0.0 0 0 4.41 21.27
  L 9.38 29.89
  A 1.62 1.62 0.0 0 0 11.25 30.64
  L 27.00 25.97"
/>
<path stroke="#869aa5" vector-effect="non-scaling-stroke" d="
  M 17.54 5.41
  A 0.50 0.50 0.0 0 0 16.60 5.52
  L 11.98 27.87
  A 0.50 0.50 0.0 0 0 12.61 28.45
  L 25.85 24.53
  A 0.50 0.50 0.0 0 0 26.16 23.83
  L 17.54 5.41"
/>
</g>
<path fill="#ffffff" d="
  M 17.21 0.00
  Q 18.60 0.53 19.20 1.79
  Q 26.93 18.13 29.28 23.25
  A 2.01 1.89 33.2 0 1 29.47 24.04
  Q 29.57 26.74 26.95 27.47
  Q 19.38 29.59 11.82 32.00
  L 9.94 32.00
  Q 7.05 28.71 3.45 22.79
  C 1.94 20.31 2.93 19.45 4.41 16.94
  Q 9.61 8.19 15.20 0.00
  L 17.21 0.00
  Z
  M 27.00 25.97
  A 1.62 1.62 0.0 0 0 28.00 23.73
  L 17.99 2.32
  A 1.62 1.62 0.0 0 0 15.14 2.16
  L 4.43 19.62
  A 1.62 1.62 0.0 0 0 4.41 21.27
  L 9.38 29.89
  A 1.62 1.62 0.0 0 0 11.25 30.64
  L 27.00 25.97
  Z"
/>
<path fill="#0c344b" d="
  M 27.00 25.97
  L 11.25 30.64
  A 1.62 1.62 0.0 0 1 9.38 29.89
  L 4.41 21.27
  A 1.62 1.62 0.0 0 1 4.43 19.62
  L 15.14 2.16
  A 1.62 1.62 0.0 0 1 17.99 2.32
  L 28.00 23.73
  A 1.62 1.62 0.0 0 1 27.00 25.97
  Z
  M 17.54 5.41
  A 0.50 0.50 0.0 0 0 16.60 5.52
  L 11.98 27.87
  A 0.50 0.50 0.0 0 0 12.61 28.45
  L 25.85 24.53
  A 0.50 0.50 0.0 0 0 26.16 23.83
  L 17.54 5.41
  Z"
/>
<path fill="#ffffff" d="
  M 17.54 5.41
  L 26.16 23.83
  A 0.50 0.50 0.0 0 1 25.85 24.53
  L 12.61 28.45
  A 0.50 0.50 0.0 0 1 11.98 27.87
  L 16.60 5.52
  A 0.50 0.50 0.0 0 1 17.54 5.41
  Z"
/>
</svg>
