<svg width="180" height="36" viewBox="0 0 180 36" fill="none" xmlns="http://www.w3.org/2000/svg">
<path d="M45.5616 7.08655H43.7542C42.8723 7.08655 42.1216 7.71814 41.9667 8.58807L38.6855 27.2816H41.0689L44.35 8.58807C44.4692 7.91278 44.9498 7.3805 45.5735 7.17791C45.6251 7.16202 45.6132 7.09052 45.5616 7.09052V7.08655Z" fill="#000000"/>
<path d="M59.0126 8.40137C57.9837 7.5235 56.4306 7.08655 54.3491 7.08655H48.5218C47.6399 7.08655 46.8892 7.71814 46.7342 8.58807L43.4531 27.2816H47.485L48.7998 19.7899H52.1167C54.4246 19.7899 56.3035 19.2179 57.7494 18.0739C59.1993 16.9299 60.093 15.3966 60.4386 13.47C60.5141 13.0331 60.5538 12.5643 60.5538 12.0678C60.5538 10.5027 60.0374 9.28322 59.0086 8.40535L59.0126 8.40137ZM56.3511 13.4621C55.9698 15.5197 54.6073 16.5525 52.2597 16.5525H49.3718L50.4602 10.3478H53.3481C54.4166 10.3478 55.1912 10.5464 55.6798 10.9476C56.1644 11.3488 56.4107 11.9288 56.4107 12.6914C56.4107 13.0172 56.3908 13.2714 56.3551 13.4621H56.3511Z" fill="#000000"/>
<path d="M72.2275 11.2217C70.0666 11.325 68.2036 12.0519 66.6703 13.3985L67.0238 11.4362H64.5133C63.6315 11.4362 62.8807 12.0678 62.7258 12.9337L60.1875 27.2816H64.2472L65.5898 19.6469C66.0665 16.9021 67.7825 15.5276 70.7379 15.5276H71.9097L72.6803 11.2098C72.5254 11.2098 72.3745 11.2138 72.2195 11.2257L72.2275 11.2217Z" fill="#000000"/>
<path d="M88.3402 17.8395C88.3402 16.4651 88.0502 15.2853 87.4663 14.2923C86.8863 13.2992 86.0681 12.5445 85.0194 12.0201C83.9707 11.4958 82.7591 11.2336 81.3887 11.2336C79.8435 11.2336 78.4055 11.5435 77.0708 12.1631C75.7362 12.7828 74.616 13.6845 73.7103 14.8643C72.8046 16.048 72.2088 17.4304 71.9228 19.0113C71.8076 19.6588 71.752 20.2706 71.752 20.8426C71.752 22.217 72.0459 23.4007 72.6378 24.4017C73.2296 25.4027 74.0519 26.1654 75.1125 26.6898C76.1691 27.2141 77.3966 27.4763 78.7869 27.4763C80.3122 27.4763 81.7383 27.1625 83.061 26.5309C84.3878 25.9033 85.4961 25.0015 86.3938 23.8297C87.2915 22.6579 87.8794 21.2795 88.1654 19.6985C88.2806 19.0312 88.3362 18.4115 88.3362 17.8395H88.3402ZM84.0779 19.3569C83.8118 20.8624 83.216 22.0104 82.2904 22.8049C81.3649 23.5954 80.34 23.9926 79.2159 23.9926C78.2625 23.9926 77.472 23.7026 76.8404 23.1187C76.2128 22.5387 75.895 21.6847 75.895 20.5605C75.895 20.1434 75.9348 19.7422 76.0102 19.3609C76.2764 17.8554 76.8722 16.7074 77.7978 15.913C78.7233 15.1225 79.7482 14.7252 80.8723 14.7252C81.8257 14.7252 82.6161 15.0152 83.2477 15.5992C83.8754 16.1791 84.1931 17.0331 84.1931 18.1573C84.1931 18.5784 84.1534 18.9756 84.0779 19.3569Z" fill="#000000"/>
<path d="M97.4406 8.25838L87.0332 27.2777H91.2955L93.4405 23.218H101.504L102.191 27.2777H106.481L102.593 7.31297H99.0335C98.3701 7.31297 97.7623 7.67445 97.4406 8.2544V8.25838ZM95.0413 20.1554L99.53 11.603L100.988 20.1554H95.0373H95.0413Z" fill="#000000"/>
<path d="M120.328 11.2336C120.157 11.2336 119.99 11.2376 119.827 11.2495C117.77 11.3568 115.986 12.032 114.497 13.2714L115.78 6.11732H113.269C112.387 6.11732 111.637 6.74891 111.482 7.61487L108.002 27.2816H112.034L112.383 25.3471C113.301 26.376 114.695 27.1744 116.407 27.4088C116.507 27.4246 116.606 27.4326 116.705 27.4445C116.765 27.4485 116.824 27.4564 116.884 27.4604C117.063 27.4723 117.245 27.4803 117.432 27.4803C118.767 27.4803 120.026 27.1545 121.206 26.507C122.39 25.8596 123.391 24.9181 124.209 23.6907C125.027 22.4593 125.591 21.0173 125.897 19.3569C126.012 18.6697 126.068 18.0143 126.068 17.3827C126.068 15.4562 125.548 13.9507 124.511 12.8623C123.47 11.7738 122.076 11.2336 120.32 11.2336H120.328ZM121.814 19.3569C121.567 20.7671 120.983 21.8833 120.07 22.7016C119.156 23.5199 118.068 23.933 116.808 23.933C115.76 23.933 114.918 23.6192 114.278 22.9876C113.639 22.36 113.321 21.49 113.321 20.3858C113.321 20.06 113.349 19.7184 113.408 19.3569C113.655 17.9468 114.25 16.8266 115.196 15.9964C116.141 15.1662 117.222 14.7531 118.441 14.7531C119.53 14.7531 120.376 15.0589 120.987 15.6667C121.599 16.2744 121.901 17.1364 121.901 18.2407C121.901 18.5823 121.873 18.9557 121.814 19.3569Z" fill="#000000"/>
<path d="M140.523 12.0201C139.475 11.4958 138.263 11.2336 136.893 11.2336C135.347 11.2336 133.909 11.5435 132.575 12.1631C131.24 12.7828 130.12 13.6845 129.214 14.8643C128.309 16.048 127.713 17.4304 127.427 19.0113C127.311 19.6588 127.256 20.2706 127.256 20.8426C127.256 22.217 127.55 23.4007 128.142 24.4017C128.734 25.4027 129.556 26.1654 130.616 26.6898C131.673 27.2141 132.9 27.4763 134.291 27.4763C135.816 27.4763 137.242 27.1625 138.565 26.5309C139.892 25.9033 141 25.0015 141.898 23.8297C142.795 22.6579 143.383 21.2795 143.669 19.6985C143.785 19.0312 143.84 18.4115 143.84 17.8395C143.84 16.4651 143.55 15.2853 142.966 14.2923C142.386 13.2992 141.568 12.5445 140.519 12.0201H140.523ZM139.578 19.3569C139.312 20.8624 138.716 22.0104 137.79 22.8049C136.865 23.5954 135.84 23.9926 134.716 23.9926C133.762 23.9926 132.972 23.7026 132.34 23.1187C131.713 22.5387 131.395 21.6847 131.395 20.5605C131.395 20.1434 131.435 19.7422 131.51 19.3609C131.776 17.8554 132.372 16.7074 133.298 15.913C134.223 15.1225 135.248 14.7252 136.372 14.7252C137.326 14.7252 138.116 15.0152 138.748 15.5992C139.375 16.1791 139.693 17.0331 139.693 18.1573C139.693 18.5784 139.653 18.9756 139.578 19.3569Z" fill="#000000"/>
<path d="M179.13 14.2962C178.55 13.3032 177.732 12.5484 176.683 12.0241C175.635 11.4998 174.423 11.2376 173.053 11.2376C171.508 11.2376 170.07 11.5474 168.735 12.1671C167.4 12.7868 166.28 13.6885 165.374 14.8683C164.469 16.052 163.873 17.4343 163.587 19.0153C163.472 19.6628 163.416 20.2745 163.416 20.8465C163.416 22.2209 163.71 23.4047 164.302 24.4057C164.894 25.4067 165.716 26.1694 166.777 26.6937C167.833 27.2181 169.061 27.4802 170.451 27.4802C171.976 27.4802 173.402 27.1664 174.725 26.5348C176.052 25.9072 177.16 25.0055 178.058 23.8337C178.956 22.6619 179.543 21.2835 179.829 19.7025C179.945 19.0352 180 18.4155 180 17.8435C180 16.4691 179.71 15.2893 179.126 14.2962H179.13ZM175.742 19.3569C175.476 20.8624 174.88 22.0104 173.954 22.8049C173.029 23.5954 172.004 23.9926 170.88 23.9926C169.927 23.9926 169.136 23.7026 168.505 23.1187C167.877 22.5387 167.559 21.6847 167.559 20.5605C167.559 20.1434 167.599 19.7422 167.674 19.3609C167.94 17.8554 168.536 16.7074 169.462 15.913C170.387 15.1225 171.412 14.7253 172.536 14.7253C173.49 14.7253 174.28 15.0152 174.912 15.5992C175.539 16.1791 175.857 17.0331 175.857 18.1573C175.857 18.5784 175.817 18.9756 175.742 19.3569Z" fill="#000000"/>
<path d="M160.912 24.219C160.618 24.219 160.396 23.9529 160.448 23.6629L161.437 18.0699C161.532 17.5376 161.58 16.9537 161.58 16.3261C161.58 14.6855 161.143 13.4223 160.265 12.5365C159.387 11.6507 158.167 11.2058 156.602 11.2058C156.126 11.2058 155.665 11.2495 155.216 11.3369C153.572 11.5633 152.118 12.183 150.866 13.1959L151.168 11.4362H148.654C147.776 11.4362 147.021 12.0678 146.87 12.9338L144.332 27.2816H148.392L149.877 18.7571V18.8723C150.108 17.482 150.632 16.4135 151.45 15.6707C152.269 14.9278 153.254 14.5544 154.398 14.5544C155.351 14.5544 156.094 14.8126 156.63 15.3251C157.166 15.8375 157.433 16.5724 157.433 17.5257C157.433 17.8514 157.405 18.1851 157.345 18.5267L156.197 24.9181C155.975 26.1495 156.92 27.2777 158.171 27.2777H161.552L162.092 24.219H160.912Z" fill="#000000"/>
<path d="M16.7591 23.6033L20.9379 21.1882V16.4095L16.7591 18.8604V23.6033ZM10.5941 21.1882L14.7729 23.6033V18.8564L10.5941 16.3817V21.1921V21.1882ZM15.766 12.2267L11.5713 14.6498L15.77 17.1364L19.9885 14.6657L15.77 12.2307L15.766 12.2267ZM23.9688 14.6299V22.936L16.7591 27.1029V35.83L31.528 27.2975V10.2008L23.9688 14.6339V14.6299ZM7.55925 14.5822L0 10.1055V27.3055L14.7729 35.8419V27.1148L7.55925 22.9439V14.5862V14.5822ZM15.762 8.72711L22.9955 12.898L30.4992 8.50068L15.766 0L1.12813 8.46493L8.58807 12.8861L15.766 8.73108L15.762 8.72711Z" fill="#000000"/>
</svg>
