<svg width="128" height="128" viewBox="0 0 128 128" fill="none" xmlns="http://www.w3.org/2000/svg">
<g clip-path="url(#clip0_240_6678)">
<path fill-rule="evenodd" clip-rule="evenodd" d="M88.8803 27.2C89.8174 26.6971 90.9146 26.0342 91.8974 25.5085L69.8632 2.83424C66.1832 -0.960046 60.1489 -0.960046 56.4689 2.83424L4.56029 56.2514C0.880293 60.0457 0.880293 66.24 4.56029 70.0342L21.8632 87.84C22.7546 86.6742 23.8974 85.2571 24.606 84.2742C25.3832 83.2228 26.2974 82.0342 27.0746 81.0057C37.9546 66.7428 49.9774 54.3542 63.9203 43.2457C71.9432 36.8914 79.9889 32.0457 88.8803 27.2Z" fill="#2C98E3"/>
<path fill-rule="evenodd" clip-rule="evenodd" d="M123.44 57.9657L98.0688 31.8628C97.3602 32.4799 96.5831 33.1885 95.8516 33.8514L96.4231 33.2342C94.4345 35.0171 92.4688 36.8914 90.5716 38.7656C77.8859 51.3828 67.2345 66.2399 58.9831 82.1942C54.6402 90.5599 50.3202 98.7428 47.8059 108.206L47.6916 108.32C47.4174 108.594 47.5316 108.823 47.3945 109.234C47.0745 110.194 46.4345 111.429 45.9316 112.571L58.1374 125.12C61.8174 128.914 67.8516 128.914 71.5316 125.12L123.44 71.7256C127.12 67.9542 127.12 61.7599 123.44 57.9657Z" fill="#2C98E3"/>
</g>
<defs>
<clipPath id="clip0_240_6678">
<rect width="124.411" height="128" fill="white" transform="translate(1.79443)"/>
</clipPath>
</defs>
</svg>
