<?xml version="1.0" encoding="UTF-8" standalone="no"?>
<!DOCTYPE svg PUBLIC "-//W3C//DTD SVG 1.1//EN" "http://www.w3.org/Graphics/SVG/1.1/DTD/svg11.dtd">
<svg xmlns="http://www.w3.org/2000/svg" version="1.1" viewBox="0.00 0.00 400.00 400.00">
<g stroke-width="2.00" fill="none" stroke-linecap="butt">
<path stroke="#90a8b7" vector-effect="non-scaling-stroke" d="
  M 273.61 203.52
  A 0.29 0.29 0.0 0 0 273.39 204.01
  L 307.09 242.36
  A 0.86 0.85 -44.8 0 0 308.38 242.36
  L 341.83 204.31
  A 0.49 0.49 0.0 0 0 341.46 203.49
  L 325.67 203.49
  A 0.62 0.61 -0.0 0 1 325.05 202.88
  Q 325.02 159.55 325.08 129.61
  Q 325.11 114.13 324.61 110.91
  C 321.07 88.43 302.02 72.74 279.49 72.72
  Q 236.65 72.68 128.19 72.65
  Q 112.58 72.64 106.96 74.08
  Q 88.74 78.74 78.88 95.17
  C 74.05 103.21 72.65 111.90 72.67 121.75
  Q 72.68 129.91 72.71 146.16
  A 0.37 0.37 0.0 0 0 73.08 146.53
  L 106.94 146.53
  A 0.71 0.70 -90.0 0 0 107.64 145.82
  Q 107.61 127.59 107.59 119.35
  C 107.58 114.28 108.75 111.15 112.72 108.71
  Q 114.57 107.57 121.85 107.57
  Q 261.96 107.59 278.74 107.57
  Q 290.39 107.56 290.43 119.04
  Q 290.48 135.25 290.42 203.00
  A 0.52 0.52 0.0 0 1 289.90 203.52
  L 273.61 203.52"
/>
<path stroke="#96d8ef" vector-effect="non-scaling-stroke" d="
  M 188.92 225.01
  C 211.02 243.98 236.87 227.37 242.67 202.70
  Q 247.73 181.17 239.75 162.56
  C 234.34 149.96 221.54 142.13 207.58 144.07
  C 199.69 145.16 192.67 149.10 186.88 154.28
  A 0.43 0.43 0.0 0 1 186.17 154.04
  L 184.94 147.00
  A 1.18 1.16 85.0 0 0 183.79 146.02
  L 164.28 146.02
  A 0.32 0.31 90.0 0 0 163.97 146.34
  L 163.97 261.92
  A 0.78 0.78 0.0 0 0 164.75 262.70
  L 188.81 262.70
  A 0.32 0.32 0.0 0 0 189.13 262.39
  Q 189.35 244.85 188.96 231.96
  C 188.88 229.46 188.21 227.30 188.36 225.24
  A 0.34 0.34 0.0 0 1 188.92 225.01"
/>
<path stroke="#90a8b7" vector-effect="non-scaling-stroke" d="
  M 56.81 196.46
  L 72.38 196.46
  A 0.32 0.32 0.0 0 1 72.70 196.78
  Q 72.67 248.61 72.70 281.25
  C 72.73 306.48 91.55 327.64 117.75 327.43
  Q 122.75 327.40 276.17 327.43
  Q 286.74 327.43 291.70 326.09
  C 311.27 320.78 324.96 303.39 325.04 283.00
  Q 325.07 275.74 325.05 253.76
  A 0.62 0.62 0.0 0 0 324.43 253.14
  L 291.05 253.14
  A 0.59 0.59 0.0 0 0 290.46 253.73
  Q 290.38 274.32 290.53 279.77
  Q 290.77 289.06 284.50 291.98
  Q 282.43 292.94 270.39 292.92
  Q 184.46 292.78 119.49 292.91
  Q 112.01 292.92 109.00 287.69
  Q 107.58 285.20 107.59 280.08
  Q 107.66 258.68 107.63 196.83
  A 0.37 0.37 0.0 0 1 108.00 196.46
  L 124.56 196.46
  A 0.41 0.40 -20.5 0 0 124.87 195.79
  L 91.14 157.41
  A 0.64 0.63 -44.7 0 0 90.19 157.41
  L 56.49 195.75
  A 0.43 0.43 0.0 0 0 56.81 196.46"
/>
<path stroke="#96d8ef" vector-effect="non-scaling-stroke" d="
  M 189.17 205.42
  A 3.54 3.54 0.0 0 0 190.64 208.29
  C 197.57 213.24 207.89 214.95 213.36 207.11
  C 218.75 199.38 219.36 188.92 217.94 179.78
  C 216.99 173.61 214.80 167.32 208.59 165.31
  C 201.87 163.13 196.36 165.78 191.11 170.34
  Q 189.13 172.05 189.15 173.26
  Q 189.24 179.07 189.17 205.42"
/>
</g>
<path fill="#ffffff" d="
  M 400.00 0.00
  L 400.00 400.00
  L 0.00 400.00
  L 0.00 0.00
  L 400.00 0.00
  Z
  M 273.61 203.52
  A 0.29 0.29 0.0 0 0 273.39 204.01
  L 307.09 242.36
  A 0.86 0.85 -44.8 0 0 308.38 242.36
  L 341.83 204.31
  A 0.49 0.49 0.0 0 0 341.46 203.49
  L 325.67 203.49
  A 0.62 0.61 -0.0 0 1 325.05 202.88
  Q 325.02 159.55 325.08 129.61
  Q 325.11 114.13 324.61 110.91
  C 321.07 88.43 302.02 72.74 279.49 72.72
  Q 236.65 72.68 128.19 72.65
  Q 112.58 72.64 106.96 74.08
  Q 88.74 78.74 78.88 95.17
  C 74.05 103.21 72.65 111.90 72.67 121.75
  Q 72.68 129.91 72.71 146.16
  A 0.37 0.37 0.0 0 0 73.08 146.53
  L 106.94 146.53
  A 0.71 0.70 -90.0 0 0 107.64 145.82
  Q 107.61 127.59 107.59 119.35
  C 107.58 114.28 108.75 111.15 112.72 108.71
  Q 114.57 107.57 121.85 107.57
  Q 261.96 107.59 278.74 107.57
  Q 290.39 107.56 290.43 119.04
  Q 290.48 135.25 290.42 203.00
  A 0.52 0.52 0.0 0 1 289.90 203.52
  L 273.61 203.52
  Z
  M 188.92 225.01
  C 211.02 243.98 236.87 227.37 242.67 202.70
  Q 247.73 181.17 239.75 162.56
  C 234.34 149.96 221.54 142.13 207.58 144.07
  C 199.69 145.16 192.67 149.10 186.88 154.28
  A 0.43 0.43 0.0 0 1 186.17 154.04
  L 184.94 147.00
  A 1.18 1.16 85.0 0 0 183.79 146.02
  L 164.28 146.02
  A 0.32 0.31 90.0 0 0 163.97 146.34
  L 163.97 261.92
  A 0.78 0.78 0.0 0 0 164.75 262.70
  L 188.81 262.70
  A 0.32 0.32 0.0 0 0 189.13 262.39
  Q 189.35 244.85 188.96 231.96
  C 188.88 229.46 188.21 227.30 188.36 225.24
  A 0.34 0.34 0.0 0 1 188.92 225.01
  Z
  M 56.81 196.46
  L 72.38 196.46
  A 0.32 0.32 0.0 0 1 72.70 196.78
  Q 72.67 248.61 72.70 281.25
  C 72.73 306.48 91.55 327.64 117.75 327.43
  Q 122.75 327.40 276.17 327.43
  Q 286.74 327.43 291.70 326.09
  C 311.27 320.78 324.96 303.39 325.04 283.00
  Q 325.07 275.74 325.05 253.76
  A 0.62 0.62 0.0 0 0 324.43 253.14
  L 291.05 253.14
  A 0.59 0.59 0.0 0 0 290.46 253.73
  Q 290.38 274.32 290.53 279.77
  Q 290.77 289.06 284.50 291.98
  Q 282.43 292.94 270.39 292.92
  Q 184.46 292.78 119.49 292.91
  Q 112.01 292.92 109.00 287.69
  Q 107.58 285.20 107.59 280.08
  Q 107.66 258.68 107.63 196.83
  A 0.37 0.37 0.0 0 1 108.00 196.46
  L 124.56 196.46
  A 0.41 0.40 -20.5 0 0 124.87 195.79
  L 91.14 157.41
  A 0.64 0.63 -44.7 0 0 90.19 157.41
  L 56.49 195.75
  A 0.43 0.43 0.0 0 0 56.81 196.46
  Z"
/>
<path fill="#20516e" d="
  M 273.61 203.52
  L 289.90 203.52
  A 0.52 0.52 0.0 0 0 290.42 203.00
  Q 290.48 135.25 290.43 119.04
  Q 290.39 107.56 278.74 107.57
  Q 261.96 107.59 121.85 107.57
  Q 114.57 107.57 112.72 108.71
  C 108.75 111.15 107.58 114.28 107.59 119.35
  Q 107.61 127.59 107.64 145.82
  A 0.71 0.70 90.0 0 1 106.94 146.53
  L 73.08 146.53
  A 0.37 0.37 0.0 0 1 72.71 146.16
  Q 72.68 129.91 72.67 121.75
  C 72.65 111.90 74.05 103.21 78.88 95.17
  Q 88.74 78.74 106.96 74.08
  Q 112.58 72.64 128.19 72.65
  Q 236.65 72.68 279.49 72.72
  C 302.02 72.74 321.07 88.43 324.61 110.91
  Q 325.11 114.13 325.08 129.61
  Q 325.02 159.55 325.05 202.88
  A 0.62 0.61 0.0 0 0 325.67 203.49
  L 341.46 203.49
  A 0.49 0.49 0.0 0 1 341.83 204.31
  L 308.38 242.36
  A 0.86 0.85 -44.8 0 1 307.09 242.36
  L 273.39 204.01
  A 0.29 0.29 0.0 0 1 273.61 203.52
  Z"
/>
<path fill="#2db0df" d="
  M 188.36 225.24
  C 188.21 227.30 188.88 229.46 188.96 231.96
  Q 189.35 244.85 189.13 262.39
  A 0.32 0.32 0.0 0 1 188.81 262.70
  L 164.75 262.70
  A 0.78 0.78 0.0 0 1 163.97 261.92
  L 163.97 146.34
  A 0.32 0.31 90.0 0 1 164.28 146.02
  L 183.79 146.02
  A 1.18 1.16 85.0 0 1 184.94 147.00
  L 186.17 154.04
  A 0.43 0.43 0.0 0 0 186.88 154.28
  C 192.67 149.10 199.69 145.16 207.58 144.07
  C 221.54 142.13 234.34 149.96 239.75 162.56
  Q 247.73 181.17 242.67 202.70
  C 236.87 227.37 211.02 243.98 188.92 225.01
  A 0.34 0.34 0.0 0 0 188.36 225.24
  Z
  M 189.17 205.42
  A 3.54 3.54 0.0 0 0 190.64 208.29
  C 197.57 213.24 207.89 214.95 213.36 207.11
  C 218.75 199.38 219.36 188.92 217.94 179.78
  C 216.99 173.61 214.80 167.32 208.59 165.31
  C 201.87 163.13 196.36 165.78 191.11 170.34
  Q 189.13 172.05 189.15 173.26
  Q 189.24 179.07 189.17 205.42
  Z"
/>
<path fill="#20516e" d="
  M 56.81 196.46
  A 0.43 0.43 0.0 0 1 56.49 195.75
  L 90.19 157.41
  A 0.64 0.63 -44.7 0 1 91.14 157.41
  L 124.87 195.79
  A 0.41 0.40 -20.5 0 1 124.56 196.46
  L 108.00 196.46
  A 0.37 0.37 0.0 0 0 107.63 196.83
  Q 107.66 258.68 107.59 280.08
  Q 107.58 285.20 109.00 287.69
  Q 112.01 292.92 119.49 292.91
  Q 184.46 292.78 270.39 292.92
  Q 282.43 292.94 284.50 291.98
  Q 290.77 289.06 290.53 279.77
  Q 290.38 274.32 290.46 253.73
  A 0.59 0.59 0.0 0 1 291.05 253.14
  L 324.43 253.14
  A 0.62 0.62 0.0 0 1 325.05 253.76
  Q 325.07 275.74 325.04 283.00
  C 324.96 303.39 311.27 320.78 291.70 326.09
  Q 286.74 327.43 276.17 327.43
  Q 122.75 327.40 117.75 327.43
  C 91.55 327.64 72.73 306.48 72.70 281.25
  Q 72.67 248.61 72.70 196.78
  A 0.32 0.32 0.0 0 0 72.38 196.46
  L 56.81 196.46
  Z"
/>
<path fill="#ffffff" d="
  M 189.17 205.42
  Q 189.24 179.07 189.15 173.26
  Q 189.13 172.05 191.11 170.34
  C 196.36 165.78 201.87 163.13 208.59 165.31
  C 214.80 167.32 216.99 173.61 217.94 179.78
  C 219.36 188.92 218.75 199.38 213.36 207.11
  C 207.89 214.95 197.57 213.24 190.64 208.29
  A 3.54 3.54 0.0 0 1 189.17 205.42
  Z"
/>
</svg>
