<?xml version="1.0" encoding="UTF-8" standalone="no"?>
<!DOCTYPE svg PUBLIC "-//W3C//DTD SVG 1.1//EN" "http://www.w3.org/Graphics/SVG/1.1/DTD/svg11.dtd">
<svg xmlns="http://www.w3.org/2000/svg" version="1.1" viewBox="0.00 0.00 24.00 24.00">
<rect fill="#008e03" x="-1.67" y="-9.67" transform="translate(12.00,12.01) rotate(16.1)" width="3.34" height="19.34" rx="0.55"/>
<path fill="#008e03" d="
  M 0.00 12.25
  L 0.00 11.76
  L 5.25 6.81
  A 0.81 0.81 0.0 0 1 6.39 6.83
  L 7.55 7.98
  A 0.79 0.78 45.3 0 1 7.55 9.09
  L 4.88 11.76
  A 0.35 0.34 45.6 0 0 4.88 12.25
  L 7.55 14.92
  A 0.78 0.78 0.0 0 1 7.55 16.02
  L 6.40 17.17
  A 0.84 0.83 44.0 0 1 5.24 17.19
  L 0.00 12.25
  Z"
/>
<path fill="#008e03" d="
  M 24.00 11.74
  L 24.00 12.25
  L 18.72 17.22
  A 0.76 0.76 0.0 0 1 17.66 17.21
  L 16.44 15.98
  A 0.73 0.73 0.0 0 1 16.44 14.94
  L 19.15 12.22
  A 0.32 0.31 45.6 0 0 19.15 11.77
  L 16.45 9.07
  A 0.76 0.76 0.0 0 1 16.45 7.99
  L 17.61 6.83
  A 0.84 0.83 44.0 0 1 18.77 6.81
  L 24.00 11.74
  Z"
/>
</svg>
