<?xml version="1.0" encoding="UTF-8" standalone="no"?>
<!DOCTYPE svg PUBLIC "-//W3C//DTD SVG 1.1//EN" "http://www.w3.org/Graphics/SVG/1.1/DTD/svg11.dtd">
<svg xmlns="http://www.w3.org/2000/svg" version="1.1" viewBox="0.00 0.00 400.00 400.00">
<g stroke-width="2.00" fill="none" stroke-linecap="butt">
<path stroke="#87860a" vector-effect="non-scaling-stroke" d="
  M 154.02 120.90
  Q 196.12 120.81 210.01 120.93
  C 244.03 121.24 261.79 150.86 255.02 182.06
  C 250.41 203.29 232.38 217.53 211.24 217.59
  Q 186.29 217.67 154.00 217.62
  A 0.38 0.37 90.0 0 0 153.63 218.00
  L 153.63 299.54
  A 0.47 0.46 -0.0 0 0 154.10 300.00
  L 176.73 300.00
  A 0.40 0.39 -0.0 0 0 177.13 299.61
  L 177.13 239.03
  A 0.42 0.41 -90.0 0 1 177.54 238.61
  Q 194.71 238.65 209.24 238.59
  C 238.97 238.46 265.10 221.10 275.53 193.36
  C 282.88 173.79 280.81 151.00 269.69 133.28
  Q 253.71 107.81 223.78 101.38
  Q 215.46 99.60 199.60 99.97
  Q 196.85 100.04 154.31 99.97
  A 0.69 0.69 0.0 0 0 153.62 100.66
  L 153.62 120.50
  A 0.40 0.40 0.0 0 0 154.02 120.90"
/>
<path stroke="#87860a" vector-effect="non-scaling-stroke" d="
  M 143.96 156.46
  Q 135.02 165.39 121.50 166.13
  A 0.57 0.57 0.0 0 0 120.97 166.67
  Q 120.92 167.68 120.92 169.42
  Q 120.92 171.15 120.96 172.16
  A 0.57 0.57 0.0 0 0 121.50 172.70
  Q 135.02 173.46 143.95 182.40
  Q 152.87 191.34 153.62 204.86
  A 0.57 0.57 0.0 0 0 154.16 205.40
  Q 155.17 205.44 156.90 205.44
  Q 158.64 205.44 159.65 205.40
  A 0.57 0.57 0.0 0 0 160.19 204.87
  Q 160.95 191.35 169.89 182.42
  Q 178.83 173.49 192.35 172.75
  A 0.57 0.57 0.0 0 0 192.88 172.21
  Q 192.93 171.20 192.93 169.46
  Q 192.93 167.73 192.89 166.72
  A 0.57 0.57 0.0 0 0 192.35 166.18
  Q 178.83 165.42 169.90 156.48
  Q 160.98 147.54 160.23 134.02
  A 0.57 0.57 0.0 0 0 159.69 133.48
  Q 158.68 133.44 156.95 133.44
  Q 155.21 133.43 154.20 133.48
  A 0.57 0.57 0.0 0 0 153.66 134.01
  Q 152.90 147.53 143.96 156.46"
/>
</g>
<path fill="#fff800" d="
  M 400.00 0.00
  L 400.00 400.00
  L 0.00 400.00
  L 0.00 0.00
  L 400.00 0.00
  Z
  M 154.02 120.90
  Q 196.12 120.81 210.01 120.93
  C 244.03 121.24 261.79 150.86 255.02 182.06
  C 250.41 203.29 232.38 217.53 211.24 217.59
  Q 186.29 217.67 154.00 217.62
  A 0.38 0.37 90.0 0 0 153.63 218.00
  L 153.63 299.54
  A 0.47 0.46 -0.0 0 0 154.10 300.00
  L 176.73 300.00
  A 0.40 0.39 -0.0 0 0 177.13 299.61
  L 177.13 239.03
  A 0.42 0.41 -90.0 0 1 177.54 238.61
  Q 194.71 238.65 209.24 238.59
  C 238.97 238.46 265.10 221.10 275.53 193.36
  C 282.88 173.79 280.81 151.00 269.69 133.28
  Q 253.71 107.81 223.78 101.38
  Q 215.46 99.60 199.60 99.97
  Q 196.85 100.04 154.31 99.97
  A 0.69 0.69 0.0 0 0 153.62 100.66
  L 153.62 120.50
  A 0.40 0.40 0.0 0 0 154.02 120.90
  Z
  M 143.96 156.46
  Q 135.02 165.39 121.50 166.13
  A 0.57 0.57 0.0 0 0 120.97 166.67
  Q 120.92 167.68 120.92 169.42
  Q 120.92 171.15 120.96 172.16
  A 0.57 0.57 0.0 0 0 121.50 172.70
  Q 135.02 173.46 143.95 182.40
  Q 152.87 191.34 153.62 204.86
  A 0.57 0.57 0.0 0 0 154.16 205.40
  Q 155.17 205.44 156.90 205.44
  Q 158.64 205.44 159.65 205.40
  A 0.57 0.57 0.0 0 0 160.19 204.87
  Q 160.95 191.35 169.89 182.42
  Q 178.83 173.49 192.35 172.75
  A 0.57 0.57 0.0 0 0 192.88 172.21
  Q 192.93 171.20 192.93 169.46
  Q 192.93 167.73 192.89 166.72
  A 0.57 0.57 0.0 0 0 192.35 166.18
  Q 178.83 165.42 169.90 156.48
  Q 160.98 147.54 160.23 134.02
  A 0.57 0.57 0.0 0 0 159.69 133.48
  Q 158.68 133.44 156.95 133.44
  Q 155.21 133.43 154.20 133.48
  A 0.57 0.57 0.0 0 0 153.66 134.01
  Q 152.90 147.53 143.96 156.46
  Z"
/>
<path fill="#0e1414" d="
  M 154.02 120.90
  A 0.40 0.40 0.0 0 1 153.62 120.50
  L 153.62 100.66
  A 0.69 0.69 0.0 0 1 154.31 99.97
  Q 196.85 100.04 199.60 99.97
  Q 215.46 99.60 223.78 101.38
  Q 253.71 107.81 269.69 133.28
  C 280.81 151.00 282.88 173.79 275.53 193.36
  C 265.10 221.10 238.97 238.46 209.24 238.59
  Q 194.71 238.65 177.54 238.61
  A 0.42 0.41 -90.0 0 0 177.13 239.03
  L 177.13 299.61
  A 0.40 0.39 -0.0 0 1 176.73 300.00
  L 154.10 300.00
  A 0.47 0.46 -0.0 0 1 153.63 299.54
  L 153.63 218.00
  A 0.38 0.37 -90.0 0 1 154.00 217.62
  Q 186.29 217.67 211.24 217.59
  C 232.38 217.53 250.41 203.29 255.02 182.06
  C 261.79 150.86 244.03 121.24 210.01 120.93
  Q 196.12 120.81 154.02 120.90
  Z"
/>
<path fill="#0e1414" d="
  M 156.95 133.44
  Q 158.68 133.44 159.69 133.48
  A 0.57 0.57 0.0 0 1 160.23 134.02
  Q 160.98 147.54 169.90 156.48
  Q 178.83 165.42 192.35 166.18
  A 0.57 0.57 0.0 0 1 192.89 166.72
  Q 192.93 167.73 192.93 169.46
  Q 192.93 171.20 192.88 172.21
  A 0.57 0.57 0.0 0 1 192.35 172.75
  Q 178.83 173.49 169.89 182.42
  Q 160.95 191.35 160.19 204.87
  A 0.57 0.57 0.0 0 1 159.65 205.40
  Q 158.64 205.44 156.90 205.44
  Q 155.17 205.44 154.16 205.40
  A 0.57 0.57 0.0 0 1 153.62 204.86
  Q 152.87 191.34 143.95 182.40
  Q 135.02 173.46 121.50 172.70
  A 0.57 0.57 0.0 0 1 120.96 172.16
  Q 120.92 171.15 120.92 169.42
  Q 120.92 167.68 120.97 166.67
  A 0.57 0.57 0.0 0 1 121.50 166.13
  Q 135.02 165.39 143.96 156.46
  Q 152.90 147.53 153.66 134.01
  A 0.57 0.57 0.0 0 1 154.20 133.48
  Q 155.21 133.43 156.95 133.44
  Z"
/>
</svg>
