<svg width="152" height="49" viewBox="0 0 152 49" fill="none" xmlns="http://www.w3.org/2000/svg" style="fill: none !important;">
                    <rect width="152" height="49" fill="#000000" style="fill: #000000 !important;"/>
                    <mask id="mask0_3929_1074" style="mask-type: luminance; fill: none !important;" maskUnits="userSpaceOnUse" x="60" y="1" width="23" height="27">
                    <path d="M60.626 1.48633H71.726C78.275 1.48633 82.493 4.82832 82.493 10.5203V10.5943C82.493 16.6533 77.793 19.8503 71.358 19.8503H67.8V27.1963H60.62V1.48633H60.626ZM71.208 14.2673C73.764 14.2673 75.315 12.9473 75.315 10.9253V10.8513C75.315 8.65132 73.764 7.47232 71.171 7.47232H67.806V14.2723L71.208 14.2673Z" fill="#000000" style="fill: #000000 !important;"/>
                    </mask>
                    <g mask="url(#mask0_3929_1074)" style="fill: none !important;">
                    <path d="M59.1479 0.00830078H83.972V28.6733H59.1479V0.00830078Z" fill="#03A5FB" style="fill: rgb(3, 165, 251) !important;"/>
                    </g>
                    <mask id="mask1_3929_1074" style="mask-type: luminance; fill: none !important;" maskUnits="userSpaceOnUse" x="82" y="6" width="14" height="22">
                    <path d="M82.494 7.14826H89.494V11.1892C90.637 8.44425 92.478 6.66625 95.794 6.81425V14.2253H95.2C91.554 14.2253 89.489 16.3373 89.489 20.9703V27.1963H82.489V7.14826" fill="#000000" style="fill: #000000 !important;"/>
                    </mask>
                    <g mask="url(#mask1_3929_1074)" style="fill: none !important;">
                    <path d="M81.016 5.32715H97.273V28.6732H81.016V5.32715Z" fill="#03A5FB" style="fill: rgb(3, 165, 251) !important;"/>
                    </g>
                    <mask id="mask2_3929_1074" style="mask-type: luminance; fill: none !important;" maskUnits="userSpaceOnUse" x="95" y="6" width="23" height="22">
                    <path d="M95.793 17.3731V17.2991C95.793 11.5911 100.463 6.80908 106.912 6.80908C113.325 6.80908 117.956 11.5161 117.956 17.2241V17.2991C117.956 23.0071 113.286 27.7911 106.839 27.7911C100.427 27.7911 95.793 23.0831 95.793 17.3731ZM111.1 17.3731V17.2991C111.124 16.7207 111.031 16.1434 110.829 15.6011C110.627 15.0588 110.318 14.5625 109.921 14.1411C109.524 13.7198 109.047 13.3821 108.518 13.1477C107.988 12.9133 107.418 12.7869 106.839 12.7761C106.267 12.7763 105.701 12.8936 105.175 13.1206C104.65 13.3476 104.176 13.6795 103.784 14.0961C103.392 14.5126 103.089 15.005 102.893 15.5429C102.698 16.0808 102.615 16.6529 102.649 17.2241V17.2991C102.625 17.8775 102.718 18.4548 102.92 18.9971C103.123 19.5394 103.432 20.0358 103.829 20.4571C104.226 20.8784 104.703 21.2163 105.233 21.4507C105.762 21.6851 106.333 21.8113 106.912 21.8221C107.484 21.8215 108.05 21.7041 108.575 21.4769C109.101 21.2497 109.574 20.9177 109.966 20.5011C110.358 20.0844 110.661 19.592 110.856 19.0541C111.051 18.5162 111.134 17.9442 111.1 17.3731Z" fill="#000000" style="fill: #000000 !important;"/>
                    </mask>
                    <g mask="url(#mask2_3929_1074)" style="fill: none !important;">
                    <path d="M94.314 5.32715H119.435V29.2652H94.314V5.32715Z" fill="#03A5FB" style="fill: rgb(3, 165, 251) !important;"/>
                    </g>
                    <mask id="mask3_3929_1074" style="mask-type: luminance; fill: none !important;" maskUnits="userSpaceOnUse" x="117" y="0" width="14" height="28">
                    <path d="M119.409 12.8472H117.069V7.3472H119.409V6.9042C119.409 4.6182 119.932 2.9222 121.116 1.7402C122.343 0.524203 123.977 0.00720168 126.353 0.00720168C127.908 -0.0401531 129.461 0.146238 130.96 0.56018V5.5022C130.108 5.22762 129.217 5.09056 128.322 5.09619C127.022 5.09619 126.316 5.68818 126.316 6.97818V7.4592H130.916V12.8462H126.424V27.1952H119.404V12.8472" fill="#000000" style="fill: #000000 !important;"/>
                    </mask>
                    <g mask="url(#mask3_3929_1074)" style="fill: none !important;">
                    <path d="M115.591 -1.46875H132.438V28.6732H115.591V-1.46875Z" fill="#03A5FB" style="fill: rgb(3, 165, 251) !important;"/>
                    </g>
                    <mask id="mask4_3929_1074" style="mask-type: luminance; fill: none !important;" maskUnits="userSpaceOnUse" x="130" y="6" width="18" height="22">
                    <path d="M130.073 24.5571L132.711 20.3401C134.757 21.7318 137.154 22.5201 139.627 22.6151C140.853 22.6151 141.41 22.2471 141.41 21.5501V21.4731C141.41 20.7031 140.295 20.3731 138.177 19.7851C134.198 18.7581 131.038 17.4381 131.038 13.4391V13.3731C131.038 9.15713 134.46 6.81011 139.104 6.81011C142.027 6.80288 144.895 7.60258 147.393 9.12111L144.979 13.5211C143.163 12.4628 141.129 11.8351 139.032 11.6861C137.952 11.6861 137.394 12.0861 137.394 12.6411V12.7121C137.394 13.4821 138.546 13.8501 140.667 14.4751C144.643 15.5751 147.805 16.9331 147.805 20.7831V20.8561C147.805 25.2191 144.496 27.4951 139.588 27.4951C136.189 27.5277 132.863 26.5019 130.073 24.5601" fill="#000000" style="fill: #000000 !important;"/>
                    </mask>
                    <g mask="url(#mask4_3929_1074)" style="fill: none !important;">
                    <path d="M128.6 5.32715H149.283V28.9732H128.6V5.32715Z" fill="#03A5FB" style="fill: rgb(3, 165, 251) !important;"/>
                    </g>
                    <mask id="mask5_3929_1074" style="mask-type: luminance; fill: none !important;" maskUnits="userSpaceOnUse" x="3" y="1" width="22" height="27">
                    <path d="M3 1.48633H14.1C20.65 1.48633 24.869 4.82832 24.869 10.5203V10.5943C24.869 16.6533 20.169 19.8503 13.731 19.8503H10.179V27.1963H3V1.48633ZM13.582 14.2673C16.136 14.2673 17.69 12.9473 17.69 10.9253V10.8513C17.69 8.65132 16.136 7.47232 13.545 7.47232H10.179V14.2723L13.582 14.2673Z" fill="#000000" style="fill: #000000 !important;"/>
                    </mask>
                    <g mask="url(#mask5_3929_1074)" style="fill: none !important;">
                    <path d="M1.52295 0.00830078H26.3459V28.6733H1.52295V0.00830078Z" fill="#170087" style="fill: rgb(23, 0, 135) !important;"/>
                    </g>
                    <mask id="mask6_3929_1074" style="mask-type: luminance; fill: none !important;" maskUnits="userSpaceOnUse" x="24" y="6" width="15" height="22">
                    <path d="M24.869 7.14826H31.869V11.1892C33.011 8.44425 34.853 6.66625 38.169 6.81425V14.2253H37.581C33.935 14.2253 31.871 16.3373 31.871 20.9703V27.1963H24.871V7.14826" fill="#000000" style="fill: #000000 !important;"/>
                    </mask>
                    <g mask="url(#mask6_3929_1074)" style="fill: none !important;">
                    <path d="M23.392 5.32715H39.645V28.6732H23.392V5.32715Z" fill="#170087" style="fill: rgb(23, 0, 135) !important;"/>
                    </g>
                    <mask id="mask7_3929_1074" style="mask-type: luminance; fill: none !important;" maskUnits="userSpaceOnUse" x="38" y="6" width="23" height="22">
                    <path d="M38.166 17.3731V17.2991C38.166 11.5911 42.836 6.80908 49.285 6.80908C55.698 6.80908 60.331 11.5161 60.331 17.2241V17.2991C60.331 23.0071 55.661 27.7911 49.212 27.7911C42.8 27.7911 38.166 23.0831 38.166 17.3731ZM53.475 17.3731V17.2991C53.4985 16.7206 53.4062 16.1433 53.2036 15.601C53.0009 15.0588 52.692 14.5624 52.295 14.1411C51.8979 13.7198 51.4206 13.382 50.8912 13.1476C50.3618 12.9132 49.7909 12.7869 49.212 12.7761C48.6399 12.7765 48.0739 12.8938 47.5487 13.1208C47.0236 13.3477 46.5503 13.6796 46.158 14.0961C45.7657 14.5126 45.4627 15.005 45.2675 15.5429C45.0723 16.0808 44.9891 16.6529 45.023 17.2241V17.2991C44.9995 17.8775 45.0918 18.4548 45.2944 18.9971C45.497 19.5394 45.8059 20.0358 46.203 20.4571C46.6 20.8783 47.0771 21.2161 47.6063 21.4505C48.1356 21.6849 48.7063 21.8112 49.285 21.8221C49.8573 21.8218 50.4235 21.7046 50.9488 21.4776C51.4742 21.2506 51.9476 20.9186 52.34 20.5021C52.7324 20.0854 53.0355 19.5929 53.2307 19.0548C53.4259 18.5167 53.509 17.9444 53.475 17.3731Z" fill="#000000" style="fill: #000000 !important;"/>
                    </mask>
                    <g mask="url(#mask7_3929_1074)" style="fill: none !important;">
                    <path d="M36.688 5.32715H61.807V29.2652H36.688V5.32715Z" fill="#170087" style="fill: rgb(23, 0, 135) !important;"/>
                    </g>
                    <path d="M99.0171 39.6919H95.9375V37.7495H99.0171C99.493 37.7495 99.8804 37.672 100.179 37.5171C100.478 37.3566 100.697 37.1353 100.835 36.853C100.973 36.5708 101.042 36.2526 101.042 35.8984C101.042 35.5387 100.973 35.2039 100.835 34.894C100.697 34.5841 100.478 34.3351 100.179 34.147C99.8804 33.9588 99.493 33.8647 99.0171 33.8647H96.8008V44H94.3105V31.9141H99.0171C99.9634 31.9141 100.774 32.0856 101.449 32.4287C102.13 32.7663 102.65 33.2339 103.01 33.8315C103.369 34.4292 103.549 35.1126 103.549 35.8818C103.549 36.6621 103.369 37.3372 103.01 37.9072C102.65 38.4772 102.13 38.9172 101.449 39.2271C100.774 39.5369 99.9634 39.6919 99.0171 39.6919ZM107.509 36.9775V44H105.118V35.0186H107.368L107.509 36.9775ZM110.215 34.9604L110.173 37.1768C110.057 37.1602 109.916 37.1463 109.75 37.1353C109.59 37.1187 109.443 37.1104 109.31 37.1104C108.972 37.1104 108.679 37.1546 108.43 37.2432C108.187 37.3262 107.982 37.4507 107.816 37.6167C107.655 37.7827 107.534 37.9847 107.451 38.2227C107.373 38.4606 107.329 38.7318 107.318 39.0361L106.836 38.8867C106.836 38.3057 106.895 37.7716 107.011 37.2847C107.127 36.7922 107.296 36.3633 107.517 35.998C107.744 35.6328 108.021 35.3506 108.347 35.1514C108.674 34.9521 109.047 34.8525 109.468 34.8525C109.601 34.8525 109.736 34.8636 109.875 34.8857C110.013 34.9023 110.126 34.9272 110.215 34.9604ZM110.713 39.6006V39.4263C110.713 38.7677 110.807 38.1618 110.995 37.6084C111.183 37.0495 111.457 36.5653 111.817 36.1558C112.177 35.7463 112.619 35.4281 113.145 35.2012C113.671 34.9688 114.274 34.8525 114.955 34.8525C115.635 34.8525 116.241 34.9688 116.772 35.2012C117.304 35.4281 117.749 35.7463 118.109 36.1558C118.474 36.5653 118.751 37.0495 118.939 37.6084C119.127 38.1618 119.221 38.7677 119.221 39.4263V39.6006C119.221 40.2536 119.127 40.8595 118.939 41.4185C118.751 41.9718 118.474 42.4561 118.109 42.8711C117.749 43.2806 117.306 43.5988 116.781 43.8257C116.255 44.0526 115.652 44.166 114.971 44.166C114.291 44.166 113.685 44.0526 113.153 43.8257C112.628 43.5988 112.182 43.2806 111.817 42.8711C111.457 42.4561 111.183 41.9718 110.995 41.4185C110.807 40.8595 110.713 40.2536 110.713 39.6006ZM113.104 39.4263V39.6006C113.104 39.9769 113.137 40.3283 113.203 40.6548C113.27 40.9813 113.375 41.269 113.519 41.5181C113.668 41.7616 113.862 41.9525 114.1 42.0908C114.338 42.2292 114.628 42.2983 114.971 42.2983C115.303 42.2983 115.588 42.2292 115.826 42.0908C116.064 41.9525 116.255 41.7616 116.399 41.5181C116.543 41.269 116.648 40.9813 116.714 40.6548C116.786 40.3283 116.822 39.9769 116.822 39.6006V39.4263C116.822 39.061 116.786 38.7179 116.714 38.397C116.648 38.0705 116.54 37.7827 116.391 37.5337C116.247 37.2791 116.056 37.0799 115.818 36.936C115.58 36.7922 115.292 36.7202 114.955 36.7202C114.617 36.7202 114.329 36.7922 114.091 36.936C113.859 37.0799 113.668 37.2791 113.519 37.5337C113.375 37.7827 113.27 38.0705 113.203 38.397C113.137 38.7179 113.104 39.061 113.104 39.4263ZM120.823 35.0186H123.222V44.5396C123.222 45.2036 123.1 45.7653 122.857 46.2246C122.613 46.6839 122.262 47.0326 121.803 47.2705C121.343 47.5085 120.787 47.6274 120.134 47.6274C119.93 47.6274 119.73 47.6164 119.537 47.5942C119.337 47.5721 119.133 47.5361 118.922 47.4863L118.931 45.6519C119.063 45.674 119.194 45.6906 119.321 45.7017C119.443 45.7183 119.567 45.7266 119.694 45.7266C119.943 45.7266 120.151 45.6851 120.317 45.6021C120.483 45.519 120.607 45.389 120.69 45.2119C120.779 45.0404 120.823 44.8162 120.823 44.5396V35.0186ZM120.632 32.6777C120.632 32.3291 120.754 32.0413 120.998 31.8145C121.247 31.5876 121.573 31.4741 121.977 31.4741C122.387 31.4741 122.713 31.5876 122.957 31.8145C123.2 32.0413 123.322 32.3291 123.322 32.6777C123.322 33.0264 123.2 33.3141 122.957 33.541C122.713 33.7679 122.387 33.8813 121.977 33.8813C121.573 33.8813 121.247 33.7679 120.998 33.541C120.754 33.3141 120.632 33.0264 120.632 32.6777ZM129.257 44.166C128.56 44.166 127.934 44.0553 127.381 43.834C126.827 43.6071 126.357 43.2944 125.97 42.896C125.588 42.4976 125.295 42.0355 125.09 41.5098C124.885 40.9785 124.783 40.4141 124.783 39.8164V39.4844C124.783 38.8037 124.88 38.1812 125.073 37.6167C125.267 37.0522 125.544 36.5625 125.903 36.1475C126.269 35.7324 126.711 35.4142 127.231 35.1929C127.752 34.966 128.338 34.8525 128.991 34.8525C129.628 34.8525 130.192 34.9577 130.685 35.168C131.177 35.3783 131.589 35.6771 131.921 36.0645C132.259 36.4518 132.514 36.9167 132.685 37.459C132.857 37.9958 132.942 38.5934 132.942 39.252V40.248H125.804V38.6543H130.593V38.4717C130.593 38.1396 130.532 37.8436 130.411 37.5835C130.294 37.3179 130.117 37.1076 129.879 36.9526C129.641 36.7977 129.337 36.7202 128.966 36.7202C128.651 36.7202 128.38 36.7894 128.153 36.9277C127.926 37.0661 127.741 37.2598 127.597 37.5088C127.458 37.7578 127.353 38.0511 127.281 38.3887C127.215 38.7207 127.182 39.0859 127.182 39.4844V39.8164C127.182 40.1761 127.231 40.5081 127.331 40.8125C127.436 41.1169 127.583 41.3797 127.771 41.6011C127.965 41.8224 128.197 41.994 128.468 42.1157C128.745 42.2375 129.058 42.2983 129.406 42.2983C129.838 42.2983 130.239 42.2153 130.61 42.0493C130.986 41.8778 131.31 41.6204 131.581 41.2773L132.743 42.5391C132.555 42.8102 132.298 43.0703 131.971 43.3193C131.65 43.5684 131.263 43.7731 130.809 43.9336C130.355 44.0885 129.838 44.166 129.257 44.166ZM138.014 42.2983C138.307 42.2983 138.568 42.243 138.794 42.1323C139.021 42.0161 139.198 41.8556 139.326 41.6509C139.458 41.4406 139.528 41.1943 139.533 40.9121H141.783C141.777 41.543 141.608 42.1047 141.276 42.5972C140.944 43.0841 140.499 43.4688 139.94 43.751C139.381 44.0277 138.756 44.166 138.064 44.166C137.367 44.166 136.758 44.0498 136.238 43.8174C135.723 43.585 135.294 43.264 134.951 42.8545C134.608 42.4395 134.351 41.958 134.179 41.4102C134.008 40.8568 133.922 40.2646 133.922 39.6338V39.3931C133.922 38.7567 134.008 38.1646 134.179 37.6167C134.351 37.0633 134.608 36.5819 134.951 36.1724C135.294 35.7573 135.723 35.4336 136.238 35.2012C136.752 34.9688 137.356 34.8525 138.047 34.8525C138.783 34.8525 139.428 34.9937 139.981 35.2759C140.54 35.5581 140.978 35.9621 141.293 36.4878C141.614 37.008 141.777 37.625 141.783 38.3389H139.533C139.528 38.04 139.464 37.7689 139.342 37.5254C139.226 37.2819 139.055 37.0882 138.828 36.9443C138.606 36.7949 138.332 36.7202 138.006 36.7202C137.657 36.7202 137.372 36.7949 137.151 36.9443C136.93 37.0882 136.758 37.2874 136.636 37.542C136.514 37.791 136.429 38.076 136.379 38.397C136.335 38.7124 136.312 39.0444 136.312 39.3931V39.6338C136.312 39.9824 136.335 40.3172 136.379 40.6382C136.423 40.9591 136.506 41.2441 136.628 41.4932C136.755 41.7422 136.93 41.9386 137.151 42.0825C137.372 42.2264 137.66 42.2983 138.014 42.2983ZM147.568 35.0186V36.7119H142.339V35.0186H147.568ZM143.634 32.8022H146.024V41.2939C146.024 41.554 146.058 41.7533 146.124 41.8916C146.196 42.0299 146.301 42.1268 146.439 42.1821C146.578 42.2319 146.752 42.2568 146.962 42.2568C147.112 42.2568 147.245 42.2513 147.361 42.2402C147.483 42.2236 147.585 42.207 147.668 42.1904L147.676 43.9502C147.472 44.0166 147.25 44.0692 147.012 44.1079C146.774 44.1466 146.511 44.166 146.224 44.166C145.698 44.166 145.239 44.0802 144.846 43.9087C144.458 43.7316 144.16 43.4494 143.949 43.062C143.739 42.6746 143.634 42.1655 143.634 41.5347V32.8022Z" fill="#170087" style="fill: rgb(23, 0, 135) !important;"/>
                    </svg>