<?xml version="1.0" encoding="UTF-8" standalone="no"?>
<!DOCTYPE svg PUBLIC "-//W3C//DTD SVG 1.1//EN" "http://www.w3.org/Graphics/SVG/1.1/DTD/svg11.dtd">
<svg xmlns="http://www.w3.org/2000/svg" version="1.1" viewBox="0.00 0.00 280.00 60.00">
<g stroke-width="2.00" fill="none" stroke-linecap="butt">
<path stroke="#9fd3b6" vector-effect="non-scaling-stroke" d="
  M 27.53 53.04
  A 22.68 22.62 -61.4 0 0 41.83 48.81
  A 22.58 22.57 -15.3 0 0 51.14 32.47"
/>
<path stroke="#b3dfbc" vector-effect="non-scaling-stroke" d="
  M 51.14 32.47
  A 22.63 22.58 32.0 0 0 47.96 18.78
  A 22.58 22.58 0.0 0 0 26.01 8.04
  A 22.61 22.60 19.7 0 0 12.97 14.21
  A 22.60 22.60 0.0 0 0 8.60 40.91
  A 22.61 22.61 0.0 0 0 27.53 53.04"
/>
<path stroke="#52b372" vector-effect="non-scaling-stroke" d="
  M 51.14 32.47
  L 42.28 25.04"
/>
<path stroke="#b3dfbc" vector-effect="non-scaling-stroke" d="
  M 42.28 25.04
  Q 40.04 20.24 35.76 19.43
  Q 33.29 18.97 26.71 19.44
  A 0.79 0.79 0.0 0 0 26.02 19.95
  Q 25.58 21.13 25.74 22.47"
/>
<path stroke="#52b372" vector-effect="non-scaling-stroke" d="
  M 25.74 22.47
  L 23.48 22.47"
/>
<path stroke="#b3dfbc" vector-effect="non-scaling-stroke" d="
  M 23.48 22.47
  Q 23.68 20.89 23.08 19.81
  A 0.95 0.93 75.3 0 0 22.26 19.32
  L 17.90 19.32
  A 1.17 1.17 0.0 0 0 16.73 20.49
  L 16.73 40.04
  A 1.16 1.15 3.7 0 0 17.74 41.18
  L 18.99 41.34"
/>
<path stroke="#52b372" vector-effect="non-scaling-stroke" d="
  M 18.99 41.34
  L 27.53 53.04"
/>
<path stroke="#9fd3b6" vector-effect="non-scaling-stroke" d="
  M 42.28 25.04
  C 44.81 31.95 42.21 41.19 33.75 41.31
  Q 30.51 41.35 27.03 41.32
  A 1.32 1.31 0.4 0 1 25.73 40.01
  L 25.74 22.47"
/>
<path stroke="#9fd3b6" vector-effect="non-scaling-stroke" d="
  M 23.48 22.47
  L 23.48 39.91
  A 1.36 1.36 0.0 0 1 22.16 41.27
  L 18.99 41.34"
/>
</g>
<path fill="#ffffff" d="
  M 54.90 30.48
  A 26.26 26.26 0.0 0 1 28.64 56.74
  A 26.26 26.26 0.0 0 1 2.38 30.48
  A 26.26 26.26 0.0 0 1 28.64 4.22
  A 26.26 26.26 0.0 0 1 54.90 30.48
  Z
  M 27.53 53.04
  A 22.68 22.62 -61.4 0 0 41.83 48.81
  A 22.58 22.57 -15.3 0 0 51.14 32.47
  A 22.63 22.58 32.0 0 0 47.96 18.78
  A 22.58 22.58 0.0 0 0 26.01 8.04
  A 22.61 22.60 19.7 0 0 12.97 14.21
  A 22.60 22.60 0.0 0 0 8.60 40.91
  A 22.61 22.61 0.0 0 0 27.53 53.04
  Z"
/>
<path fill="#66be78" d="
  M 51.14 32.47
  L 42.28 25.04
  Q 40.04 20.24 35.76 19.43
  Q 33.29 18.97 26.71 19.44
  A 0.79 0.79 0.0 0 0 26.02 19.95
  Q 25.58 21.13 25.74 22.47
  L 23.48 22.47
  Q 23.68 20.89 23.08 19.81
  A 0.95 0.93 75.3 0 0 22.26 19.32
  L 17.90 19.32
  A 1.17 1.17 0.0 0 0 16.73 20.49
  L 16.73 40.04
  A 1.16 1.15 3.7 0 0 17.74 41.18
  L 18.99 41.34
  L 27.53 53.04
  A 22.61 22.61 0.0 0 1 8.60 40.91
  A 22.60 22.60 0.0 0 1 12.97 14.21
  A 22.61 22.60 19.7 0 1 26.01 8.04
  A 22.58 22.58 0.0 0 1 47.96 18.78
  A 22.63 22.58 32.0 0 1 51.14 32.47
  Z"
/>
<path fill="#ffffff" d="
  M 76.25 35.76
  L 76.25 44.04
  A 1.77 1.77 0.0 0 1 74.48 45.81
  L 72.55 45.81
  A 1.81 1.80 90.0 0 1 70.75 44.00
  L 70.75 17.01
  A 1.68 1.68 0.0 0 1 72.36 15.33
  Q 76.35 15.15 82.98 15.31
  C 95.23 15.59 95.31 34.58 83.41 35.15
  Q 77.90 35.42 76.92 35.22
  A 0.56 0.55 5.9 0 0 76.25 35.76
  Z
  M 76.25 20.42
  L 76.25 30.08
  A 0.43 0.43 0.0 0 0 76.68 30.51
  L 81.82 30.51
  A 5.02 4.95 -90.0 0 0 86.77 25.49
  L 86.77 25.01
  A 5.02 4.95 90.0 0 0 81.82 19.99
  L 76.68 19.99
  A 0.43 0.43 0.0 0 0 76.25 20.42
  Z"
/>
<path fill="#ffffff" d="
  M 146.50 26.85
  C 150.77 21.49 160.24 21.72 161.12 29.90
  Q 161.35 32.12 161.24 43.90
  A 1.92 1.92 0.0 0 1 159.32 45.80
  L 157.51 45.80
  A 1.76 1.76 0.0 0 1 155.75 44.04
  L 155.75 31.64
  A 3.43 3.43 0.0 0 0 151.12 28.43
  L 150.59 28.60
  A 6.58 6.58 0.0 0 0 146.01 34.87
  L 146.01 43.91
  A 1.90 1.90 0.0 0 1 144.11 45.81
  L 142.48 45.81
  A 1.99 1.99 0.0 0 1 140.49 43.82
  L 140.49 17.38
  A 2.24 2.24 0.0 0 1 142.73 15.14
  L 143.90 15.14
  A 2.10 2.10 0.0 0 1 146.00 17.24
  L 146.00 26.68
  A 0.28 0.28 0.0 0 0 146.50 26.85
  Z"
/>
<path fill="#ffffff" d="
  M 172.26 26.11
  Q 175.74 22.25 180.73 23.58
  C 188.29 25.61 189.81 36.17 186.08 41.82
  C 182.79 46.78 176.17 47.86 171.79 43.36
  A 0.38 0.37 -61.0 0 0 171.15 43.55
  Q 171.12 43.72 171.27 44.28
  A 0.82 0.81 67.9 0 1 170.88 45.21
  Q 168.63 46.47 166.82 45.18
  A 1.34 1.33 17.7 0 1 166.25 44.09
  L 166.25 17.31
  A 2.15 2.15 0.0 0 1 168.40 15.16
  L 169.66 15.16
  A 2.08 2.07 0.0 0 1 171.74 17.23
  L 171.74 25.91
  A 0.30 0.30 0.0 0 0 172.26 26.11
  Z
  M 176.9937 27.8901
  A 6.94 5.54 -90.3 0 0 171.4901 34.8590
  A 6.94 5.54 -90.3 0 0 177.0663 41.7699
  A 6.94 5.54 -90.3 0 0 182.5699 34.8010
  A 6.94 5.54 -90.3 0 0 176.9937 27.8901
  Z"
/>
<path fill="#ffffff" d="
  M 223.50 17.35
  Q 223.49 17.68 223.50 39.48
  A 1.53 1.46 -88.8 0 0 224.90 41.01
  Q 226.04 41.05 226.40 42.20
  C 226.81 43.48 226.78 45.83 224.71 45.93
  C 219.55 46.18 217.95 42.94 217.98 38.24
  Q 218.07 20.87 217.95 17.37
  A 2.13 2.13 0.0 0 1 220.15 15.18
  L 221.54 15.23
  A 2.03 2.03 0.0 0 1 223.50 17.35
  Z"
/>
<path fill="#ffffff" d="
  M 233.54 15.23
  A 2.03 2.03 0.0 0 1 235.50 17.35
  Q 235.49 17.68 235.50 39.48
  A 1.53 1.46 -88.8 0 0 236.90 41.01
  Q 238.04 41.05 238.40 42.20
  C 238.81 43.48 238.78 45.83 236.71 45.93
  C 231.55 46.18 229.95 42.94 229.98 38.24
  Q 230.07 20.87 229.95 17.37
  A 2.13 2.13 0.0 0 1 232.15 15.18
  L 233.54 15.23
  Z"
/>
<path fill="#ffffff" d="
  M 272.53 24.26
  L 275.13 24.26
  A 1.84 1.84 0.0 0 1 276.97 26.09
  L 276.97 26.80
  A 1.70 1.70 0.0 0 1 275.27 28.50
  L 272.70 28.50
  A 0.68 0.68 0.0 0 0 272.02 29.17
  Q 271.90 37.28 272.13 38.26
  Q 272.74 40.80 275.42 41.04
  A 2.09 2.08 2.6 0 1 277.32 43.11
  L 277.32 44.12
  A 1.93 1.92 -88.7 0 1 275.32 46.04
  Q 268.68 45.80 266.76 40.38
  A 4.70 4.49 36.8 0 1 266.51 38.89
  L 266.51 29.03
  A 0.57 0.57 0.0 0 0 265.84 28.47
  Q 264.07 28.77 263.61 27.06
  A 2.34 2.01 72.4 0 1 264.76 24.36
  Q 265.03 24.26 266.21 24.24
  A 0.55 0.55 0.0 0 0 266.75 23.69
  L 266.75 19.45
  A 1.74 1.73 -0.0 0 1 268.49 17.72
  L 270.00 17.72
  A 2.00 2.00 0.0 0 1 272.00 19.72
  L 272.00 23.73
  A 0.53 0.53 0.0 0 0 272.53 24.26
  Z"
/>
<path fill="#ffffff" d="
  M 23.48 22.47
  L 23.48 39.91
  A 1.36 1.36 0.0 0 1 22.16 41.27
  L 18.99 41.34
  L 17.74 41.18
  A 1.16 1.15 3.7 0 1 16.73 40.04
  L 16.73 20.49
  A 1.17 1.17 0.0 0 1 17.90 19.32
  L 22.26 19.32
  A 0.95 0.93 75.3 0 1 23.08 19.81
  Q 23.68 20.89 23.48 22.47
  Z"
/>
<path fill="#ffffff" d="
  M 42.28 25.04
  C 44.81 31.95 42.21 41.19 33.75 41.31
  Q 30.51 41.35 27.03 41.32
  A 1.32 1.31 0.4 0 1 25.73 40.01
  L 25.74 22.47
  Q 25.58 21.13 26.02 19.95
  A 0.79 0.79 0.0 0 1 26.71 19.44
  Q 33.29 18.97 35.76 19.43
  Q 40.04 20.24 42.28 25.04
  Z"
/>
<path fill="#3ea76c" d="
  M 25.74 22.47
  L 25.73 40.01
  A 1.32 1.31 0.4 0 0 27.03 41.32
  Q 30.51 41.35 33.75 41.31
  C 42.21 41.19 44.81 31.95 42.28 25.04
  L 51.14 32.47
  A 22.58 22.57 -15.3 0 1 41.83 48.81
  A 22.68 22.62 -61.4 0 1 27.53 53.04
  L 18.99 41.34
  L 22.16 41.27
  A 1.36 1.36 0.0 0 0 23.48 39.91
  L 23.48 22.47
  L 25.74 22.47
  Z"
/>
<path fill="#ffffff" d="
  M 135.54 27.19
  L 135.13 28.05
  A 1.65 1.64 -63.0 0 1 132.88 28.79
  C 131.25 27.92 126.89 26.78 125.67 28.90
  A 2.08 1.75 27.2 0 0 126.76 31.51
  C 130.63 33.33 136.88 34.23 136.44 39.99
  Q 136.26 42.39 134.26 44.16
  C 130.71 47.33 124.74 46.61 120.82 44.14
  A 1.93 1.92 34.2 0 1 120.29 41.38
  L 120.70 40.80
  A 1.90 1.89 -54.7 0 1 123.31 40.35
  Q 125.73 42.02 129.17 41.73
  A 2.24 2.00 -7.9 0 0 131.23 39.30
  Q 130.99 38.17 129.62 37.66
  Q 124.58 35.77 123.30 35.01
  C 120.27 33.22 119.39 29.52 121.29 26.51
  C 123.89 22.40 130.65 22.72 134.67 24.67
  A 1.89 1.88 -64.2 0 1 135.54 27.19
  Z"
/>
<path fill="#ffffff" d="
  M 247.05 35.50
  A 0.84 0.83 -10.2 0 0 246.26 36.62
  C 248.34 42.20 252.98 42.55 257.80 40.04
  A 1.56 1.56 0.0 0 1 259.87 40.65
  L 260.45 41.64
  A 1.80 1.80 0.0 0 1 259.76 44.11
  Q 252.39 48.22 246.04 44.59
  C 236.77 39.29 239.80 23.86 250.83 23.30
  Q 260.23 22.83 261.55 33.08
  A 2.15 2.14 86.3 0 1 259.43 35.50
  L 247.05 35.50
  Z
  M 246.66 32.30
  L 255.94 32.22
  A 0.12 0.12 0.0 0 0 256.06 32.10
  L 256.06 32.03
  A 4.72 4.59 -0.5 0 0 251.30 27.48
  L 251.22 27.48
  A 4.72 4.59 -0.5 0 0 246.54 32.11
  L 246.54 32.18
  A 0.12 0.12 0.0 0 0 246.66 32.30
  Z"
/>
<path fill="#ffffff" d="
  M 110.84 42.74
  A 0.33 0.33 0.0 0 0 110.26 42.53
  Q 106.71 46.85 101.62 46.14
  C 96.54 45.44 95.48 41.57 95.49 36.72
  Q 95.49 26.82 95.49 25.81
  A 2.17 2.17 0.0 0 1 97.66 23.65
  L 98.88 23.65
  A 2.11 2.10 -0.0 0 1 100.99 25.75
  L 101.00 37.83
  A 3.54 3.54 0.0 0 0 105.71 41.17
  L 105.95 41.08
  A 6.78 6.78 0.0 0 0 110.49 34.67
  L 110.48 25.69
  A 2.06 2.06 0.0 0 1 112.54 23.63
  L 113.74 23.63
  A 2.25 2.25 0.0 0 1 115.99 25.88
  L 116.00 44.09
  A 1.61 1.60 83.1 0 1 114.78 45.65
  Q 113.65 45.93 111.51 45.56
  A 0.81 0.81 0.0 0 1 110.84 44.76
  L 110.84 42.74
  Z"
/>
<path fill="#ffffff" d="
  M 206.76 42.55
  Q 203.21 46.86 198.12 46.15
  C 193.04 45.45 191.98 41.58 191.99 36.73
  Q 192.00 26.83 192.00 25.82
  A 2.17 2.17 0.0 0 1 194.17 23.66
  L 195.39 23.66
  A 2.11 2.10 0.0 0 1 197.50 25.76
  L 197.50 37.84
  A 3.54 3.54 0.0 0 0 202.21 41.18
  L 202.45 41.09
  A 6.78 6.78 0.0 0 0 206.99 34.69
  L 206.99 25.71
  A 2.06 2.06 0.0 0 1 209.05 23.65
  L 210.25 23.65
  A 2.25 2.25 0.0 0 1 212.50 25.90
  L 212.50 44.11
  A 1.61 1.60 83.1 0 1 211.28 45.67
  Q 210.15 45.95 208.01 45.58
  A 0.81 0.81 0.0 0 1 207.34 44.78
  L 207.34 42.76
  A 0.33 0.33 0.0 0 0 206.76 42.55
  Z"
/>
</svg>
