<?xml version="1.0" encoding="UTF-8" standalone="no"?>
<!DOCTYPE svg PUBLIC "-//W3C//DTD SVG 1.1//EN" "http://www.w3.org/Graphics/SVG/1.1/DTD/svg11.dtd">
<svg xmlns="http://www.w3.org/2000/svg" version="1.1" viewBox="0.00 0.00 64.00 64.00">
<path stroke="#9bd2f9" stroke-width="2.00" fill="none" stroke-linecap="butt" vector-effect="non-scaling-stroke" d="
  M 32.17 33.07
  L 37.62 20.80
  A 0.35 0.35 0.0 0 0 37.30 20.31
  L 32.84 20.31
  A 1.90 1.89 12.0 0 0 31.11 21.43
  L 19.66 47.19
  A 0.14 0.14 0.0 0 0 19.79 47.39
  L 25.52 47.39
  A 0.45 0.45 0.0 0 0 25.93 47.13
  L 30.80 36.17
  A 0.87 0.87 0.0 0 1 31.49 35.66
  Q 41.15 34.57 44.93 26.76
  C 48.50 19.40 43.52 15.37 36.24 16.19
  C 30.20 16.88 20.60 21.48 20.48 28.66
  A 1.90 1.90 0.0 0 0 21.61 30.43
  L 22.96 31.02
  A 0.91 0.90 -74.3 0 0 24.23 30.30
  Q 25.42 20.27 34.71 18.38
  C 38.31 17.65 42.24 18.40 41.27 23.12
  Q 39.84 30.07 32.89 33.73
  A 0.52 0.51 -2.1 0 1 32.17 33.07"
/>
<path fill="#37a5f2" d="
  M 34.78 0.00
  Q 59.93 4.02 64.00 29.14
  L 64.00 34.78
  Q 60.00 59.92 34.85 64.00
  L 29.22 64.00
  Q 4.08 60.00 0.00 34.86
  L 0.00 29.27
  C 1.99 13.24 13.13 2.14 29.20 0.00
  L 34.78 0.00
  Z
  M 32.17 33.07
  L 37.62 20.80
  A 0.35 0.35 0.0 0 0 37.30 20.31
  L 32.84 20.31
  A 1.90 1.89 12.0 0 0 31.11 21.43
  L 19.66 47.19
  A 0.14 0.14 0.0 0 0 19.79 47.39
  L 25.52 47.39
  A 0.45 0.45 0.0 0 0 25.93 47.13
  L 30.80 36.17
  A 0.87 0.87 0.0 0 1 31.49 35.66
  Q 41.15 34.57 44.93 26.76
  C 48.50 19.40 43.52 15.37 36.24 16.19
  C 30.20 16.88 20.60 21.48 20.48 28.66
  A 1.90 1.90 0.0 0 0 21.61 30.43
  L 22.96 31.02
  A 0.91 0.90 -74.3 0 0 24.23 30.30
  Q 25.42 20.27 34.71 18.38
  C 38.31 17.65 42.24 18.40 41.27 23.12
  Q 39.84 30.07 32.89 33.73
  A 0.52 0.51 -2.1 0 1 32.17 33.07
  Z"
/>
<path fill="#ffffff" d="
  M 32.17 33.07
  A 0.52 0.51 -2.1 0 0 32.89 33.73
  Q 39.84 30.07 41.27 23.12
  C 42.24 18.40 38.31 17.65 34.71 18.38
  Q 25.42 20.27 24.23 30.30
  A 0.91 0.90 -74.3 0 1 22.96 31.02
  L 21.61 30.43
  A 1.90 1.90 0.0 0 1 20.48 28.66
  C 20.60 21.48 30.20 16.88 36.24 16.19
  C 43.52 15.37 48.50 19.40 44.93 26.76
  Q 41.15 34.57 31.49 35.66
  A 0.87 0.87 0.0 0 0 30.80 36.17
  L 25.93 47.13
  A 0.45 0.45 0.0 0 1 25.52 47.39
  L 19.79 47.39
  A 0.14 0.14 0.0 0 1 19.66 47.19
  L 31.11 21.43
  A 1.90 1.89 12.0 0 1 32.84 20.31
  L 37.30 20.31
  A 0.35 0.35 0.0 0 1 37.62 20.80
  L 32.17 33.07
  Z"
/>
</svg>
