<?xml version="1.0" encoding="UTF-8" standalone="no"?>
<!DOCTYPE svg PUBLIC "-//W3C//DTD SVG 1.1//EN" "http://www.w3.org/Graphics/SVG/1.1/DTD/svg11.dtd">
<svg xmlns="http://www.w3.org/2000/svg" version="1.1" viewBox="0.00 0.00 400.00 400.00">
<g stroke-width="2.00" fill="none" stroke-linecap="butt">
<path stroke="#807966" vector-effect="non-scaling-stroke" d="
  M 157.39 270.39
  A 1.52 1.52 0.0 0 1 157.53 272.68
  C 151.18 278.89 146.51 285.54 146.15 294.68
  C 145.95 299.71 148.07 308.66 154.52 308.19
  C 157.58 307.96 159.99 302.54 161.92 299.17
  C 167.99 288.58 177.06 288.90 186.63 295.13
  C 196.03 301.25 204.49 308.48 213.74 315.74
  C 227.10 326.23 243.66 336.82 260.54 334.50
  Q 280.17 331.80 288.85 313.58
  Q 292.77 305.36 292.60 296.26
  C 292.53 292.37 291.02 281.01 285.42 282.25
  C 283.54 282.67 281.77 285.81 280.08 287.84
  C 271.16 298.52 254.12 292.94 243.45 288.52
  Q 233.64 284.45 224.67 280.06
  A 1.74 1.73 -60.1 0 1 223.99 277.53
  Q 224.32 277.04 225.77 276.75
  Q 239.20 274.07 248.59 270.04
  C 297.02 249.30 311.16 199.78 302.48 151.02
  Q 299.10 132.05 289.59 115.40
  C 267.31 76.41 223.14 59.34 179.74 67.24
  C 119.79 78.16 92.20 132.46 98.27 189.24
  C 101.83 222.52 118.14 249.53 148.13 265.11
  Q 155.49 268.93 157.39 270.39"
/>
<path stroke="#807966" vector-effect="non-scaling-stroke" d="
  M 178.61 95.90
  C 161.10 106.02 155.76 129.83 155.00 148.55
  C 154.19 168.41 156.79 189.14 163.05 207.79
  C 167.92 222.29 175.48 234.91 187.48 242.91
  C 204.09 253.99 227.61 252.63 240.15 235.89
  C 249.73 223.10 251.98 206.28 251.34 190.23
  C 250.39 166.49 244.65 141.36 233.18 120.59
  Q 226.99 109.37 217.32 101.19
  C 206.37 91.94 191.42 88.49 178.61 95.90"
/>
</g>
<path fill="#f5e8c2" d="
  M 400.00 0.00
  L 400.00 400.00
  L 0.00 400.00
  L 0.00 0.00
  L 400.00 0.00
  Z
  M 157.39 270.39
  A 1.52 1.52 0.0 0 1 157.53 272.68
  C 151.18 278.89 146.51 285.54 146.15 294.68
  C 145.95 299.71 148.07 308.66 154.52 308.19
  C 157.58 307.96 159.99 302.54 161.92 299.17
  C 167.99 288.58 177.06 288.90 186.63 295.13
  C 196.03 301.25 204.49 308.48 213.74 315.74
  C 227.10 326.23 243.66 336.82 260.54 334.50
  Q 280.17 331.80 288.85 313.58
  Q 292.77 305.36 292.60 296.26
  C 292.53 292.37 291.02 281.01 285.42 282.25
  C 283.54 282.67 281.77 285.81 280.08 287.84
  C 271.16 298.52 254.12 292.94 243.45 288.52
  Q 233.64 284.45 224.67 280.06
  A 1.74 1.73 -60.1 0 1 223.99 277.53
  Q 224.32 277.04 225.77 276.75
  Q 239.20 274.07 248.59 270.04
  C 297.02 249.30 311.16 199.78 302.48 151.02
  Q 299.10 132.05 289.59 115.40
  C 267.31 76.41 223.14 59.34 179.74 67.24
  C 119.79 78.16 92.20 132.46 98.27 189.24
  C 101.83 222.52 118.14 249.53 148.13 265.11
  Q 155.49 268.93 157.39 270.39
  Z"
/>
<path fill="#0a0a0a" d="
  M 157.39 270.39
  Q 155.49 268.93 148.13 265.11
  C 118.14 249.53 101.83 222.52 98.27 189.24
  C 92.20 132.46 119.79 78.16 179.74 67.24
  C 223.14 59.34 267.31 76.41 289.59 115.40
  Q 299.10 132.05 302.48 151.02
  C 311.16 199.78 297.02 249.30 248.59 270.04
  Q 239.20 274.07 225.77 276.75
  Q 224.32 277.04 223.99 277.53
  A 1.74 1.73 -60.1 0 0 224.67 280.06
  Q 233.64 284.45 243.45 288.52
  C 254.12 292.94 271.16 298.52 280.08 287.84
  C 281.77 285.81 283.54 282.67 285.42 282.25
  C 291.02 281.01 292.53 292.37 292.60 296.26
  Q 292.77 305.36 288.85 313.58
  Q 280.17 331.80 260.54 334.50
  C 243.66 336.82 227.10 326.23 213.74 315.74
  C 204.49 308.48 196.03 301.25 186.63 295.13
  C 177.06 288.90 167.99 288.58 161.92 299.17
  C 159.99 302.54 157.58 307.96 154.52 308.19
  C 148.07 308.66 145.95 299.71 146.15 294.68
  C 146.51 285.54 151.18 278.89 157.53 272.68
  A 1.52 1.52 0.0 0 0 157.39 270.39
  Z
  M 178.61 95.90
  C 161.10 106.02 155.76 129.83 155.00 148.55
  C 154.19 168.41 156.79 189.14 163.05 207.79
  C 167.92 222.29 175.48 234.91 187.48 242.91
  C 204.09 253.99 227.61 252.63 240.15 235.89
  C 249.73 223.10 251.98 206.28 251.34 190.23
  C 250.39 166.49 244.65 141.36 233.18 120.59
  Q 226.99 109.37 217.32 101.19
  C 206.37 91.94 191.42 88.49 178.61 95.90
  Z"
/>
<path fill="#f5e8c2" d="
  M 155.00 148.55
  C 155.76 129.83 161.10 106.02 178.61 95.90
  C 191.42 88.49 206.37 91.94 217.32 101.19
  Q 226.99 109.37 233.18 120.59
  C 244.65 141.36 250.39 166.49 251.34 190.23
  C 251.98 206.28 249.73 223.10 240.15 235.89
  C 227.61 252.63 204.09 253.99 187.48 242.91
  C 175.48 234.91 167.92 222.29 163.05 207.79
  C 156.79 189.14 154.19 168.41 155.00 148.55
  Z"
/>
</svg>
