<svg width="128" height="128" viewBox="0 0 128 128" fill="none" xmlns="http://www.w3.org/2000/svg">
<g clip-path="url(#clip0_240_7036)">
<path d="M122.902 44.8481C122.489 43.1948 121.8 41.5414 120.698 40.1635C119.458 38.7857 117.942 37.6835 116.289 37.1323C115.875 37.5457 115.462 37.8212 115.186 38.3724C115.737 38.5101 116.151 38.7857 116.702 39.0613C119.182 40.5769 121.249 42.5058 122.902 44.8481Z" fill="#0095DE"/>
<path d="M116.289 60.142C111.053 60.4176 110.639 63.0355 106.093 64.4133C102.51 65.5156 96.1723 63.311 91.901 66.8934C87.7676 70.3379 90.1099 75.2981 92.8655 78.3293C95.6212 81.3605 97.8257 85.2185 95.2078 90.8675C98.7902 88.8008 100.581 84.6673 99.6169 80.6716C98.5146 76.5382 94.1056 73.5069 95.8967 70.8891C97.8257 67.9956 102.786 70.3379 107.608 68.8223C111.88 67.5823 112.982 64.1377 115.737 63.311C119.044 62.3466 122.627 62.7599 125.52 64.5511C123.453 61.5199 119.871 59.8665 116.289 60.142Z" fill="#0095DE"/>
<path d="M120.009 55.0441C122.351 56.6975 120.146 60.5554 128 61.9332C126.484 51.324 119.733 48.7061 117.666 48.2928C116.426 45.9505 114.635 43.8837 112.431 42.3681C109.95 40.7147 107.057 39.888 104.026 39.7502C104.026 39.7502 102.372 45.8127 111.328 50.3595C109.95 52.0129 108.159 52.9774 106.093 53.3907C101.959 53.6663 97.6878 51.5995 92.8654 48.4305C87.2164 44.7104 82.5318 40.4392 71.0958 40.4392C53.873 40.4392 45.8816 58.7642 25.4898 58.2131C3.99569 57.5242 0 41.2659 0 41.2659C0 41.2659 2.89343 65.24 26.7298 65.24C50.5662 65.24 57.5931 47.1905 72.0603 46.9149C86.803 46.6394 93.9677 57.662 104.99 57.7998C113.257 57.9375 115.462 52.0129 120.009 55.0441Z" fill="#0095DE"/>
</g>
<defs>
<clipPath id="clip0_240_7036">
<rect width="128" height="53.7352" fill="white" transform="translate(0 37.1323)"/>
</clipPath>
</defs>
</svg>
