<?xml version="1.0" encoding="UTF-8" standalone="no"?>
<!DOCTYPE svg PUBLIC "-//W3C//DTD SVG 1.1//EN" "http://www.w3.org/Graphics/SVG/1.1/DTD/svg11.dtd">
<svg xmlns="http://www.w3.org/2000/svg" version="1.1" viewBox="0.00 0.00 240.00 240.00">
<g stroke-width="2.00" fill="none" stroke-linecap="butt">
<path stroke="#81c8d9" vector-effect="non-scaling-stroke" d="
  M 193.7495 85.0114
  A 17.16 17.16 0.0 0 0 176.5596 67.8814
  L 63.4597 68.0788
  A 17.16 17.16 0.0 0 0 46.3297 85.2687
  L 46.4505 154.4886
  A 17.16 17.16 0.0 0 0 63.6404 171.6186
  L 176.7403 171.4212
  A 17.16 17.16 0.0 0 0 193.8703 154.2313
  L 193.7495 85.0114"
/>
<path stroke="#81c8d9" vector-effect="non-scaling-stroke" d="
  M 120.06 121.88
  Q 120.55 121.88 120.75 121.77
  Q 152.54 104.56 181.25 88.55
  A 2.84 2.83 69.7 0 0 182.65 85.50
  C 181.29 78.76 177.55 79.51 171.01 79.42
  Q 159.81 79.29 120.05 79.30
  Q 80.28 79.31 69.08 79.45
  C 62.54 79.54 58.80 78.79 57.45 85.54
  A 2.84 2.83 -69.7 0 0 58.85 88.58
  Q 87.57 104.58 119.37 121.77
  Q 119.57 121.88 120.06 121.88"
/>
<path stroke="#81c8d9" vector-effect="non-scaling-stroke" d="
  M 120.08 135.74
  Q 119.42 135.74 117.98 134.79
  Q 109.37 129.19 103.04 124.85
  A 0.55 0.55 0.0 0 0 102.40 124.85
  L 61.92 154.46
  A 0.33 0.32 53.0 0 1 61.46 154.39
  L 61.25 154.10
  A 0.30 0.29 48.3 0 1 61.27 153.72
  L 94.23 119.70
  A 0.80 0.80 0.0 0 0 94.15 118.51
  L 58.57 90.53
  A 0.60 0.59 -71.0 0 0 57.61 91.00
  Q 57.66 131.96 57.65 151.16
  C 57.65 155.89 58.41 159.85 63.75 159.91
  Q 77.53 160.06 120.08 160.07
  Q 162.62 160.07 176.40 159.93
  C 181.74 159.86 182.50 155.90 182.50 151.17
  Q 182.50 131.97 182.56 91.01
  A 0.60 0.59 71.0 0 0 181.60 90.54
  L 146.01 118.52
  A 0.80 0.80 0.0 0 0 145.93 119.71
  L 178.88 153.73
  A 0.30 0.29 -48.3 0 1 178.90 154.11
  L 178.69 154.40
  A 0.33 0.32 -53.0 0 1 178.23 154.47
  L 137.76 124.85
  A 0.55 0.55 0.0 0 0 137.12 124.85
  Q 130.79 129.19 122.18 134.79
  Q 120.74 135.74 120.08 135.74"
/>
</g>
<path fill="#ffffff" d="
  M 240.00 0.00
  L 240.00 240.00
  L 0.00 240.00
  L 0.00 0.00
  L 240.00 0.00
  Z
  M 193.7495 85.0114
  A 17.16 17.16 0.0 0 0 176.5596 67.8814
  L 63.4597 68.0788
  A 17.16 17.16 0.0 0 0 46.3297 85.2687
  L 46.4505 154.4886
  A 17.16 17.16 0.0 0 0 63.6404 171.6186
  L 176.7403 171.4212
  A 17.16 17.16 0.0 0 0 193.8703 154.2313
  L 193.7495 85.0114
  Z"
/>
<path fill="#0290b2" d="
  M 193.8703 154.2313
  A 17.16 17.16 0.0 0 1 176.7403 171.4212
  L 63.6404 171.6186
  A 17.16 17.16 0.0 0 1 46.4505 154.4886
  L 46.3297 85.2687
  A 17.16 17.16 0.0 0 1 63.4597 68.0788
  L 176.5596 67.8814
  A 17.16 17.16 0.0 0 1 193.7495 85.0114
  L 193.8703 154.2313
  Z
  M 120.06 121.88
  Q 120.55 121.88 120.75 121.77
  Q 152.54 104.56 181.25 88.55
  A 2.84 2.83 69.7 0 0 182.65 85.50
  C 181.29 78.76 177.55 79.51 171.01 79.42
  Q 159.81 79.29 120.05 79.30
  Q 80.28 79.31 69.08 79.45
  C 62.54 79.54 58.80 78.79 57.45 85.54
  A 2.84 2.83 -69.7 0 0 58.85 88.58
  Q 87.57 104.58 119.37 121.77
  Q 119.57 121.88 120.06 121.88
  Z
  M 120.08 135.74
  Q 119.42 135.74 117.98 134.79
  Q 109.37 129.19 103.04 124.85
  A 0.55 0.55 0.0 0 0 102.40 124.85
  L 61.92 154.46
  A 0.33 0.32 53.0 0 1 61.46 154.39
  L 61.25 154.10
  A 0.30 0.29 48.3 0 1 61.27 153.72
  L 94.23 119.70
  A 0.80 0.80 0.0 0 0 94.15 118.51
  L 58.57 90.53
  A 0.60 0.59 -71.0 0 0 57.61 91.00
  Q 57.66 131.96 57.65 151.16
  C 57.65 155.89 58.41 159.85 63.75 159.91
  Q 77.53 160.06 120.08 160.07
  Q 162.62 160.07 176.40 159.93
  C 181.74 159.86 182.50 155.90 182.50 151.17
  Q 182.50 131.97 182.56 91.01
  A 0.60 0.59 71.0 0 0 181.60 90.54
  L 146.01 118.52
  A 0.80 0.80 0.0 0 0 145.93 119.71
  L 178.88 153.73
  A 0.30 0.29 -48.3 0 1 178.90 154.11
  L 178.69 154.40
  A 0.33 0.32 -53.0 0 1 178.23 154.47
  L 137.76 124.85
  A 0.55 0.55 0.0 0 0 137.12 124.85
  Q 130.79 129.19 122.18 134.79
  Q 120.74 135.74 120.08 135.74
  Z"
/>
<path fill="#ffffff" d="
  M 120.05 79.30
  Q 159.81 79.29 171.01 79.42
  C 177.55 79.51 181.29 78.76 182.65 85.50
  A 2.84 2.83 69.7 0 1 181.25 88.55
  Q 152.54 104.56 120.75 121.77
  Q 120.55 121.88 120.06 121.88
  Q 119.57 121.88 119.37 121.77
  Q 87.57 104.58 58.85 88.58
  A 2.84 2.83 -69.7 0 1 57.45 85.54
  C 58.80 78.79 62.54 79.54 69.08 79.45
  Q 80.28 79.31 120.05 79.30
  Z"
/>
<path fill="#ffffff" d="
  M 120.08 160.07
  Q 77.53 160.06 63.75 159.91
  C 58.41 159.85 57.65 155.89 57.65 151.16
  Q 57.66 131.96 57.61 91.00
  A 0.60 0.59 -71.0 0 1 58.57 90.53
  L 94.15 118.51
  A 0.80 0.80 0.0 0 1 94.23 119.70
  L 61.27 153.72
  A 0.30 0.29 48.3 0 0 61.25 154.10
  L 61.46 154.39
  A 0.33 0.32 53.0 0 0 61.92 154.46
  L 102.40 124.85
  A 0.55 0.55 0.0 0 1 103.04 124.85
  Q 109.37 129.19 117.98 134.79
  Q 119.42 135.74 120.08 135.74
  Q 120.74 135.74 122.18 134.79
  Q 130.79 129.19 137.12 124.85
  A 0.55 0.55 0.0 0 1 137.76 124.85
  L 178.23 154.47
  A 0.33 0.32 -53.0 0 0 178.69 154.40
  L 178.90 154.11
  A 0.30 0.29 -48.3 0 0 178.88 153.73
  L 145.93 119.71
  A 0.80 0.80 0.0 0 1 146.01 118.52
  L 181.60 90.54
  A 0.60 0.59 71.0 0 1 182.56 91.01
  Q 182.50 131.97 182.50 151.17
  C 182.50 155.90 181.74 159.86 176.40 159.93
  Q 162.62 160.07 120.08 160.07
  Z"
/>
</svg>
