<svg width="128" height="128" viewBox="0 0 128 128" fill="none" xmlns="http://www.w3.org/2000/svg">
<g clip-path="url(#clip0_240_6916)">
<path d="M69.446 64.2906L100.325 95.1697L125.207 70.2883C128.796 66.6978 128.995 61.0348 125.405 57.445L100.848 32.8883L69.446 64.2906Z" fill="#ED2BA2"/>
<path d="M63.6882 70.0476L32.8091 100.926L57.3658 125.483C60.9556 129.073 66.7847 128.709 70.3752 125.118L94.5674 100.926L63.6882 70.0476Z" fill="#C30D82"/>
<path d="M32.8853 70.5399L35.9488 64.255L32.8853 57.5198H51.2291L27.053 33.3782L2.86085 57.5872C-0.729646 61.1777 -1.05438 67.0536 2.53534 70.6441L27.053 95.1327L51.6151 70.5407L32.8853 70.5399Z" fill="#8C0D82"/>
<path d="M57.6916 2.77327L32.7466 27.6548L57.3929 52.3647V33.0114L63.8869 36.075L70.4131 33.0114V51.6823L95.028 27.1317L70.5425 2.61397C66.9528 -0.975759 61.2814 -0.816454 57.6916 2.77327Z" fill="#AA0FBA"/>
</g>
<defs>
<clipPath id="clip0_240_6916">
<rect width="128" height="128" fill="white"/>
</clipPath>
</defs>
</svg>
