<?xml version="1.0" encoding="UTF-8" standalone="no"?>
<!DOCTYPE svg PUBLIC "-//W3C//DTD SVG 1.1//EN" "http://www.w3.org/Graphics/SVG/1.1/DTD/svg11.dtd">
<svg xmlns="http://www.w3.org/2000/svg" version="1.1" viewBox="0.00 0.00 400.00 400.00">
<g stroke-width="2.00" fill="none" stroke-linecap="butt">
<path stroke="#f28787" vector-effect="non-scaling-stroke" d="
  M 91.01 188.28
  Q 91.99 187.80 94.77 186.74
  C 105.16 182.78 106.94 168.62 105.07 159.17
  C 102.54 146.36 93.42 140.92 80.75 140.78
  Q 74.09 140.70 42.44 140.73
  A 1.01 1.01 0.0 0 0 41.43 141.74
  L 41.43 233.88
  A 0.92 0.91 -90.0 0 0 42.34 234.80
  L 65.42 234.80
  A 0.49 0.48 90.0 0 0 65.90 234.31
  L 65.90 197.66
  A 0.24 0.24 0.0 0 1 66.14 197.42
  L 74.72 197.42
  A 3.85 3.85 0.0 0 1 78.02 199.29
  Q 79.95 202.51 80.13 207.95
  C 80.37 215.47 79.85 224.61 81.88 233.31
  A 1.90 1.90 0.0 0 0 83.73 234.77
  L 108.32 234.77
  A 0.61 0.61 0.0 0 0 108.70 233.69
  Q 105.44 231.07 105.18 226.26
  Q 104.79 219.28 104.95 209.75
  C 105.08 201.42 102.98 191.01 93.38 189.20
  Q 91.85 188.92 91.05 188.71
  A 0.23 0.23 0.0 0 1 91.01 188.28"
/>
<path stroke="#f28787" vector-effect="non-scaling-stroke" d="
  M 264.0658 141.5392
  A 0.73 0.73 0.0 0 0 263.3346 140.8105
  L 240.9946 140.8495
  A 0.73 0.73 0.0 0 0 240.2659 141.5808
  L 240.2942 157.7808
  A 0.73 0.73 0.0 0 0 241.0254 158.5095
  L 263.3654 158.4705
  A 0.73 0.73 0.0 0 0 264.0941 157.7392
  L 264.0658 141.5392"
/>
<path stroke="#f28787" vector-effect="non-scaling-stroke" d="
  M 346.61 207.59
  Q 350.78 207.59 354.66 207.56
  A 0.94 0.93 -88.1 0 0 355.59 206.69
  C 356.67 191.07 358.28 177.36 358.15 162.27
  Q 358.06 151.10 358.13 141.29
  A 0.51 0.51 0.0 0 0 357.62 140.78
  Q 352.10 140.70 346.59 140.71
  Q 341.08 140.71 335.55 140.78
  A 0.51 0.51 0.0 0 0 335.04 141.30
  Q 335.12 151.11 335.04 162.28
  C 334.92 177.37 336.53 191.08 337.62 206.70
  A 0.94 0.93 88.1 0 0 338.55 207.57
  Q 342.44 207.59 346.61 207.59"
/>
<path stroke="#f28787" vector-effect="non-scaling-stroke" d="
  M 145.55 227.95
  A 0.16 0.16 0.0 0 1 145.84 228.01
  L 146.94 234.26
  A 0.64 0.63 85.1 0 0 147.56 234.79
  L 169.35 234.79
  A 0.58 0.57 -8.8 0 0 169.90 234.04
  Q 168.47 229.67 168.17 224.01
  Q 168.10 222.59 168.02 183.55
  C 167.98 163.94 152.02 161.06 136.51 161.88
  C 122.64 162.61 112.72 170.16 112.53 184.83
  A 0.89 0.88 -89.7 0 0 113.41 185.73
  L 132.52 185.73
  A 0.70 0.70 0.0 0 0 133.22 185.05
  C 133.35 180.77 134.01 176.47 139.54 176.45
  Q 145.26 176.44 145.80 181.72
  C 146.42 187.84 143.00 189.60 137.29 190.83
  Q 134.01 191.54 126.17 193.67
  C 119.03 195.62 112.98 199.13 110.79 206.72
  Q 108.82 213.59 110.53 223.00
  C 112.26 232.56 120.77 236.94 130.17 236.71
  Q 140.06 236.47 145.55 227.95"
/>
<path stroke="#f28787" vector-effect="non-scaling-stroke" d="
  M 210.72 223.64
  Q 210.76 228.57 210.65 235.29
  Q 210.56 240.49 209.13 242.23
  C 206.25 245.71 198.70 245.36 197.87 239.74
  A 1.01 1.01 0.0 0 0 196.87 238.88
  L 177.07 238.88
  A 0.67 0.66 89.6 0 0 176.41 239.56
  C 176.83 259.25 196.84 260.10 211.44 258.54
  C 224.77 257.12 233.75 249.06 233.75 234.99
  Q 233.76 221.99 233.77 164.25
  A 0.84 0.84 0.0 0 0 232.93 163.41
  L 211.95 163.41
  A 0.49 0.49 0.0 0 0 211.46 163.90
  L 211.46 171.98
  A 0.21 0.21 0.0 0 1 211.05 172.06
  C 207.66 163.45 200.26 160.79 191.42 162.04
  C 179.22 163.77 174.90 176.00 174.10 187.13
  Q 173.19 199.79 174.31 209.60
  C 175.87 223.26 183.07 235.56 199.12 232.37
  C 203.04 231.58 208.10 228.79 209.57 224.74
  Q 209.88 223.89 210.19 223.47
  A 0.29 0.29 0.0 0 1 210.72 223.64"
/>
<path stroke="#f28787" vector-effect="non-scaling-stroke" d="
  M 326.92 205.11
  L 306.99 205.11
  A 0.77 0.77 0.0 0 0 306.22 205.87
  C 306.15 211.55 306.88 222.80 297.76 221.04
  C 294.95 220.49 293.68 217.07 293.35 214.60
  Q 291.39 199.80 293.30 184.03
  C 293.65 181.15 294.87 177.92 297.89 177.37
  C 306.01 175.90 306.33 185.54 306.03 190.80
  A 0.66 0.66 0.0 0 0 306.69 191.50
  L 326.84 191.50
  A 0.55 0.55 0.0 0 0 327.39 190.97
  C 327.61 183.51 326.36 174.47 321.36 169.21
  C 313.60 161.06 302.13 160.96 291.29 162.35
  C 277.55 164.11 271.13 174.47 269.40 187.24
  C 267.62 200.45 266.95 224.63 280.37 232.75
  C 286.73 236.59 296.12 237.13 303.50 236.53
  C 322.83 234.96 327.53 223.16 327.54 205.74
  A 0.62 0.62 0.0 0 0 326.92 205.11"
/>
<path stroke="#f28787" vector-effect="non-scaling-stroke" d="
  M 264.06 164.06
  A 0.60 0.60 0.0 0 0 263.46 163.46
  L 240.90 163.46
  A 0.60 0.60 0.0 0 0 240.30 164.06
  L 240.30 234.20
  A 0.60 0.60 0.0 0 0 240.90 234.80
  L 263.46 234.80
  A 0.60 0.60 0.0 0 0 264.06 234.20
  L 264.06 164.06"
/>
<path stroke="#f28787" vector-effect="non-scaling-stroke" d="
  M 357.8470 214.6394
  A 0.67 0.67 0.0 0 0 357.1782 213.9682
  L 336.3582 213.9318
  A 0.67 0.67 0.0 0 0 335.6871 214.6007
  L 335.6530 234.1206
  A 0.67 0.67 0.0 0 0 336.3218 234.7918
  L 357.1418 234.8282
  A 0.67 0.67 0.0 0 0 357.8129 234.1593
  L 357.8470 214.6394"
/>
<path stroke="#f28787" vector-effect="non-scaling-stroke" d="
  M 66.00 159.12
  L 65.86 179.60
  A 0.85 0.85 0.0 0 0 66.70 180.45
  L 71.42 180.49
  A 9.58 9.43 -89.6 0 0 80.92 170.97
  L 80.94 167.95
  A 9.58 9.43 -89.6 0 0 71.58 158.31
  L 66.86 158.27
  A 0.85 0.85 0.0 0 0 66.00 159.12"
/>
<path stroke="#f28787" vector-effect="non-scaling-stroke" d="
  M 145.26 201.43
  C 139.93 202.92 133.86 203.91 133.12 210.05
  C 132.50 215.12 133.60 222.45 140.82 220.29
  C 147.08 218.42 146.00 206.82 145.87 201.89
  A 0.49 0.48 -7.9 0 0 145.26 201.43"
/>
<path stroke="#f28787" vector-effect="non-scaling-stroke" d="
  M 197.59 197.30
  C 197.59 202.92 196.98 215.08 204.12 215.08
  C 211.27 215.08 210.66 202.92 210.66 197.31
  C 210.67 191.69 211.28 179.53 204.13 179.53
  C 196.99 179.53 197.59 191.69 197.59 197.30"
/>
</g>
<path fill="#ffffff" d="
  M 400.00 0.00
  L 400.00 400.00
  L 0.00 400.00
  L 0.00 0.00
  L 400.00 0.00
  Z
  M 91.01 188.28
  Q 91.99 187.80 94.77 186.74
  C 105.16 182.78 106.94 168.62 105.07 159.17
  C 102.54 146.36 93.42 140.92 80.75 140.78
  Q 74.09 140.70 42.44 140.73
  A 1.01 1.01 0.0 0 0 41.43 141.74
  L 41.43 233.88
  A 0.92 0.91 -90.0 0 0 42.34 234.80
  L 65.42 234.80
  A 0.49 0.48 90.0 0 0 65.90 234.31
  L 65.90 197.66
  A 0.24 0.24 0.0 0 1 66.14 197.42
  L 74.72 197.42
  A 3.85 3.85 0.0 0 1 78.02 199.29
  Q 79.95 202.51 80.13 207.95
  C 80.37 215.47 79.85 224.61 81.88 233.31
  A 1.90 1.90 0.0 0 0 83.73 234.77
  L 108.32 234.77
  A 0.61 0.61 0.0 0 0 108.70 233.69
  Q 105.44 231.07 105.18 226.26
  Q 104.79 219.28 104.95 209.75
  C 105.08 201.42 102.98 191.01 93.38 189.20
  Q 91.85 188.92 91.05 188.71
  A 0.23 0.23 0.0 0 1 91.01 188.28
  Z
  M 264.0658 141.5392
  A 0.73 0.73 0.0 0 0 263.3346 140.8105
  L 240.9946 140.8495
  A 0.73 0.73 0.0 0 0 240.2659 141.5808
  L 240.2942 157.7808
  A 0.73 0.73 0.0 0 0 241.0254 158.5095
  L 263.3654 158.4705
  A 0.73 0.73 0.0 0 0 264.0941 157.7392
  L 264.0658 141.5392
  Z
  M 346.61 207.59
  Q 350.78 207.59 354.66 207.56
  A 0.94 0.93 -88.1 0 0 355.59 206.69
  C 356.67 191.07 358.28 177.36 358.15 162.27
  Q 358.06 151.10 358.13 141.29
  A 0.51 0.51 0.0 0 0 357.62 140.78
  Q 352.10 140.70 346.59 140.71
  Q 341.08 140.71 335.55 140.78
  A 0.51 0.51 0.0 0 0 335.04 141.30
  Q 335.12 151.11 335.04 162.28
  C 334.92 177.37 336.53 191.08 337.62 206.70
  A 0.94 0.93 88.1 0 0 338.55 207.57
  Q 342.44 207.59 346.61 207.59
  Z
  M 145.55 227.95
  A 0.16 0.16 0.0 0 1 145.84 228.01
  L 146.94 234.26
  A 0.64 0.63 85.1 0 0 147.56 234.79
  L 169.35 234.79
  A 0.58 0.57 -8.8 0 0 169.90 234.04
  Q 168.47 229.67 168.17 224.01
  Q 168.10 222.59 168.02 183.55
  C 167.98 163.94 152.02 161.06 136.51 161.88
  C 122.64 162.61 112.72 170.16 112.53 184.83
  A 0.89 0.88 -89.7 0 0 113.41 185.73
  L 132.52 185.73
  A 0.70 0.70 0.0 0 0 133.22 185.05
  C 133.35 180.77 134.01 176.47 139.54 176.45
  Q 145.26 176.44 145.80 181.72
  C 146.42 187.84 143.00 189.60 137.29 190.83
  Q 134.01 191.54 126.17 193.67
  C 119.03 195.62 112.98 199.13 110.79 206.72
  Q 108.82 213.59 110.53 223.00
  C 112.26 232.56 120.77 236.94 130.17 236.71
  Q 140.06 236.47 145.55 227.95
  Z
  M 210.72 223.64
  Q 210.76 228.57 210.65 235.29
  Q 210.56 240.49 209.13 242.23
  C 206.25 245.71 198.70 245.36 197.87 239.74
  A 1.01 1.01 0.0 0 0 196.87 238.88
  L 177.07 238.88
  A 0.67 0.66 89.6 0 0 176.41 239.56
  C 176.83 259.25 196.84 260.10 211.44 258.54
  C 224.77 257.12 233.75 249.06 233.75 234.99
  Q 233.76 221.99 233.77 164.25
  A 0.84 0.84 0.0 0 0 232.93 163.41
  L 211.95 163.41
  A 0.49 0.49 0.0 0 0 211.46 163.90
  L 211.46 171.98
  A 0.21 0.21 0.0 0 1 211.05 172.06
  C 207.66 163.45 200.26 160.79 191.42 162.04
  C 179.22 163.77 174.90 176.00 174.10 187.13
  Q 173.19 199.79 174.31 209.60
  C 175.87 223.26 183.07 235.56 199.12 232.37
  C 203.04 231.58 208.10 228.79 209.57 224.74
  Q 209.88 223.89 210.19 223.47
  A 0.29 0.29 0.0 0 1 210.72 223.64
  Z
  M 326.92 205.11
  L 306.99 205.11
  A 0.77 0.77 0.0 0 0 306.22 205.87
  C 306.15 211.55 306.88 222.80 297.76 221.04
  C 294.95 220.49 293.68 217.07 293.35 214.60
  Q 291.39 199.80 293.30 184.03
  C 293.65 181.15 294.87 177.92 297.89 177.37
  C 306.01 175.90 306.33 185.54 306.03 190.80
  A 0.66 0.66 0.0 0 0 306.69 191.50
  L 326.84 191.50
  A 0.55 0.55 0.0 0 0 327.39 190.97
  C 327.61 183.51 326.36 174.47 321.36 169.21
  C 313.60 161.06 302.13 160.96 291.29 162.35
  C 277.55 164.11 271.13 174.47 269.40 187.24
  C 267.62 200.45 266.95 224.63 280.37 232.75
  C 286.73 236.59 296.12 237.13 303.50 236.53
  C 322.83 234.96 327.53 223.16 327.54 205.74
  A 0.62 0.62 0.0 0 0 326.92 205.11
  Z
  M 264.06 164.06
  A 0.60 0.60 0.0 0 0 263.46 163.46
  L 240.90 163.46
  A 0.60 0.60 0.0 0 0 240.30 164.06
  L 240.30 234.20
  A 0.60 0.60 0.0 0 0 240.90 234.80
  L 263.46 234.80
  A 0.60 0.60 0.0 0 0 264.06 234.20
  L 264.06 164.06
  Z
  M 357.8470 214.6394
  A 0.67 0.67 0.0 0 0 357.1782 213.9682
  L 336.3582 213.9318
  A 0.67 0.67 0.0 0 0 335.6871 214.6007
  L 335.6530 234.1206
  A 0.67 0.67 0.0 0 0 336.3218 234.7918
  L 357.1418 234.8282
  A 0.67 0.67 0.0 0 0 357.8129 234.1593
  L 357.8470 214.6394
  Z"
/>
<path fill="#e50f0e" d="
  M 91.05 188.71
  Q 91.85 188.92 93.38 189.20
  C 102.98 191.01 105.08 201.42 104.95 209.75
  Q 104.79 219.28 105.18 226.26
  Q 105.44 231.07 108.70 233.69
  A 0.61 0.61 0.0 0 1 108.32 234.77
  L 83.73 234.77
  A 1.90 1.90 0.0 0 1 81.88 233.31
  C 79.85 224.61 80.37 215.47 80.13 207.95
  Q 79.95 202.51 78.02 199.29
  A 3.85 3.85 0.0 0 0 74.72 197.42
  L 66.14 197.42
  A 0.24 0.24 0.0 0 0 65.90 197.66
  L 65.90 234.31
  A 0.49 0.48 90.0 0 1 65.42 234.80
  L 42.34 234.80
  A 0.92 0.91 90.0 0 1 41.43 233.88
  L 41.43 141.74
  A 1.01 1.01 0.0 0 1 42.44 140.73
  Q 74.09 140.70 80.75 140.78
  C 93.42 140.92 102.54 146.36 105.07 159.17
  C 106.94 168.62 105.16 182.78 94.77 186.74
  Q 91.99 187.80 91.01 188.28
  A 0.23 0.23 0.0 0 0 91.05 188.71
  Z
  M 66.00 159.12
  L 65.86 179.60
  A 0.85 0.85 0.0 0 0 66.70 180.45
  L 71.42 180.49
  A 9.58 9.43 -89.6 0 0 80.92 170.97
  L 80.94 167.95
  A 9.58 9.43 -89.6 0 0 71.58 158.31
  L 66.86 158.27
  A 0.85 0.85 0.0 0 0 66.00 159.12
  Z"
/>
<rect fill="#e50f0e" x="-11.90" y="-8.83" transform="translate(252.18,149.66) rotate(-0.1)" width="23.80" height="17.66" rx="0.73"/>
<path fill="#e50f0e" d="
  M 346.59 140.71
  Q 352.10 140.70 357.62 140.78
  A 0.51 0.51 0.0 0 1 358.13 141.29
  Q 358.06 151.10 358.15 162.27
  C 358.28 177.36 356.67 191.07 355.59 206.69
  A 0.94 0.93 -88.1 0 1 354.66 207.56
  Q 350.78 207.59 346.61 207.59
  Q 342.44 207.59 338.55 207.57
  A 0.94 0.93 88.1 0 1 337.62 206.70
  C 336.53 191.08 334.92 177.37 335.04 162.28
  Q 335.12 151.11 335.04 141.30
  A 0.51 0.51 0.0 0 1 335.55 140.78
  Q 341.08 140.71 346.59 140.71
  Z"
/>
<path fill="#ffffff" d="
  M 66.00 159.12
  A 0.85 0.85 0.0 0 1 66.86 158.27
  L 71.58 158.31
  A 9.58 9.43 -89.6 0 1 80.94 167.95
  L 80.92 170.97
  A 9.58 9.43 -89.6 0 1 71.42 180.49
  L 66.70 180.45
  A 0.85 0.85 0.0 0 1 65.86 179.60
  L 66.00 159.12
  Z"
/>
<path fill="#e50f0e" d="
  M 145.55 227.95
  Q 140.06 236.47 130.17 236.71
  C 120.77 236.94 112.26 232.56 110.53 223.00
  Q 108.82 213.59 110.79 206.72
  C 112.98 199.13 119.03 195.62 126.17 193.67
  Q 134.01 191.54 137.29 190.83
  C 143.00 189.60 146.42 187.84 145.80 181.72
  Q 145.26 176.44 139.54 176.45
  C 134.01 176.47 133.35 180.77 133.22 185.05
  A 0.70 0.70 0.0 0 1 132.52 185.73
  L 113.41 185.73
  A 0.89 0.88 -89.7 0 1 112.53 184.83
  C 112.72 170.16 122.64 162.61 136.51 161.88
  C 152.02 161.06 167.98 163.94 168.02 183.55
  Q 168.10 222.59 168.17 224.01
  Q 168.47 229.67 169.90 234.04
  A 0.58 0.57 -8.8 0 1 169.35 234.79
  L 147.56 234.79
  A 0.64 0.63 85.1 0 1 146.94 234.26
  L 145.84 228.01
  A 0.16 0.16 0.0 0 0 145.55 227.95
  Z
  M 145.26 201.43
  C 139.93 202.92 133.86 203.91 133.12 210.05
  C 132.50 215.12 133.60 222.45 140.82 220.29
  C 147.08 218.42 146.00 206.82 145.87 201.89
  A 0.49 0.48 -7.9 0 0 145.26 201.43
  Z"
/>
<path fill="#e50f0e" d="
  M 210.19 223.47
  Q 209.88 223.89 209.57 224.74
  C 208.10 228.79 203.04 231.58 199.12 232.37
  C 183.07 235.56 175.87 223.26 174.31 209.60
  Q 173.19 199.79 174.10 187.13
  C 174.90 176.00 179.22 163.77 191.42 162.04
  C 200.26 160.79 207.66 163.45 211.05 172.06
  A 0.21 0.21 0.0 0 0 211.46 171.98
  L 211.46 163.90
  A 0.49 0.49 0.0 0 1 211.95 163.41
  L 232.93 163.41
  A 0.84 0.84 0.0 0 1 233.77 164.25
  Q 233.76 221.99 233.75 234.99
  C 233.75 249.06 224.77 257.12 211.44 258.54
  C 196.84 260.10 176.83 259.25 176.41 239.56
  A 0.67 0.66 89.6 0 1 177.07 238.88
  L 196.87 238.88
  A 1.01 1.01 0.0 0 1 197.87 239.74
  C 198.70 245.36 206.25 245.71 209.13 242.23
  Q 210.56 240.49 210.65 235.29
  Q 210.76 228.57 210.72 223.64
  A 0.29 0.29 0.0 0 0 210.19 223.47
  Z
  M 197.59 197.30
  C 197.59 202.92 196.98 215.08 204.12 215.08
  C 211.27 215.08 210.66 202.92 210.66 197.31
  C 210.67 191.69 211.28 179.53 204.13 179.53
  C 196.99 179.53 197.59 191.69 197.59 197.30
  Z"
/>
<path fill="#e50f0e" d="
  M 326.92 205.11
  A 0.62 0.62 0.0 0 1 327.54 205.74
  C 327.53 223.16 322.83 234.96 303.50 236.53
  C 296.12 237.13 286.73 236.59 280.37 232.75
  C 266.95 224.63 267.62 200.45 269.40 187.24
  C 271.13 174.47 277.55 164.11 291.29 162.35
  C 302.13 160.96 313.60 161.06 321.36 169.21
  C 326.36 174.47 327.61 183.51 327.39 190.97
  A 0.55 0.55 0.0 0 1 326.84 191.50
  L 306.69 191.50
  A 0.66 0.66 0.0 0 1 306.03 190.80
  C 306.33 185.54 306.01 175.90 297.89 177.37
  C 294.87 177.92 293.65 181.15 293.30 184.03
  Q 291.39 199.80 293.35 214.60
  C 293.68 217.07 294.95 220.49 297.76 221.04
  C 306.88 222.80 306.15 211.55 306.22 205.87
  A 0.77 0.77 0.0 0 1 306.99 205.11
  L 326.92 205.11
  Z"
/>
<rect fill="#e50f0e" x="240.30" y="163.46" width="23.76" height="71.34" rx="0.60"/>
<path fill="#ffffff" d="
  M 204.13 179.53
  C 211.28 179.53 210.67 191.69 210.66 197.31
  C 210.66 202.92 211.27 215.08 204.12 215.08
  C 196.98 215.08 197.59 202.92 197.59 197.30
  C 197.59 191.69 196.99 179.53 204.13 179.53
  Z"
/>
<path fill="#ffffff" d="
  M 145.87 201.89
  C 146.00 206.82 147.08 218.42 140.82 220.29
  C 133.60 222.45 132.50 215.12 133.12 210.05
  C 133.86 203.91 139.93 202.92 145.26 201.43
  A 0.49 0.48 -7.9 0 1 145.87 201.89
  Z"
/>
<rect fill="#e50f0e" x="-11.08" y="-10.43" transform="translate(346.75,224.38) rotate(0.1)" width="22.16" height="20.86" rx="0.67"/>
</svg>
