<svg width="110" height="24" viewBox="0 0 110 24" fill="none" xmlns="http://www.w3.org/2000/svg">
<path fill-rule="evenodd" clip-rule="evenodd" d="M3.33093 21.2179C4.86164 21.2179 6.12798 20.086 6.3386 18.6135L16.1976 18.6135C16.4082 20.086 17.6745 21.2179 19.2053 21.2179C20.8833 21.2179 22.2437 19.8575 22.2437 18.1794C22.2437 16.5013 20.8833 15.141 19.2053 15.141C18.9386 15.141 18.68 15.1753 18.4336 15.2398L12.9748 5.93547C13.7786 5.38877 14.3065 4.46667 14.3065 3.42126C14.3065 1.74317 12.9462 0.382812 11.2681 0.382812C9.59 0.382812 8.22964 1.74317 8.22964 3.42126C8.22964 4.46667 8.7576 5.38877 9.56143 5.93547L4.10263 15.2398C3.8562 15.1753 3.59758 15.141 3.33093 15.141C1.65284 15.141 0.29248 16.5013 0.29248 18.1794C0.29248 19.8575 1.65284 21.2179 3.33093 21.2179ZM11.801 5.52566C11.6305 5.56871 11.452 5.59158 11.2681 5.59158C11.0842 5.59158 10.9057 5.56871 10.7352 5.52566C10.4842 5.4623 10.2506 5.35524 10.0431 5.21303C9.47226 4.82203 9.09777 4.16538 9.09777 3.42126C9.09777 2.22262 10.0695 1.25094 11.2681 1.25094C12.4667 1.25094 13.4384 2.22262 13.4384 3.42126C13.4384 4.16538 13.0639 4.82203 12.4931 5.21303C12.2855 5.35524 12.052 5.4623 11.801 5.52566ZM12.1867 6.31838C11.8969 6.41018 11.5883 6.4597 11.2681 6.4597C10.9479 6.4597 10.6393 6.41018 10.3495 6.31838L4.91512 15.5861C5.67025 16.0484 6.20785 16.8313 6.3386 17.7454L16.1976 17.7454C16.3283 16.8313 16.8659 16.0484 17.6211 15.5861L12.1867 6.31838ZM3.33093 16.0091C4.52956 16.0091 5.50124 16.9808 5.50124 18.1794C5.50124 19.3781 4.52956 20.3497 3.33093 20.3497C2.13229 20.3497 1.16061 19.3781 1.16061 18.1794C1.16061 16.9808 2.13229 16.0091 3.33093 16.0091ZM19.2053 20.3497C18.0066 20.3497 17.0349 19.3781 17.0349 18.1794C17.0349 16.9808 18.0066 16.0091 19.2053 16.0091C20.4039 16.0091 21.3756 16.9808 21.3756 18.1794C21.3756 19.3781 20.4039 20.3497 19.2053 20.3497Z" fill="#000000"/>
<circle cx="11.2679" cy="3.42126" r="2.60438" stroke="#80BC36" stroke-width="0.868127"/>
<circle cx="3.33093" cy="18.1791" r="2.60438" stroke="#8FA6AB" stroke-width="0.868127"/>
<circle cx="19.2049" cy="18.1791" r="2.60438" stroke="#50CCFA" stroke-width="0.868127"/>
<path d="M34.9239 6.86312C35.3796 6.48491 35.8992 6.17369 36.4829 5.92949C37.0637 5.68529 37.7233 5.56318 38.4619 5.56318V8.50704C37.4761 8.50704 36.6408 8.85249 35.9558 9.54341C35.2679 10.2611 34.9239 11.0965 34.9239 12.0495V18.2142H31.9756V12.0495V5.90715H34.9239V6.86312ZM48.7051 5.90715H51.6534V18.2142H48.7051V12.0718C48.7051 11.089 48.3611 10.2537 47.6731 9.56575C46.9852 8.87781 46.1499 8.53384 45.1671 8.53384C44.6936 8.53384 44.2394 8.62318 43.8046 8.80187C43.3698 8.98353 42.9886 9.23816 42.661 9.56575C41.9731 10.2537 41.6291 11.089 41.6291 12.0718C41.6291 13.0367 41.9731 13.8631 42.661 14.5511C42.9886 14.8965 43.3698 15.1556 43.8046 15.3284C44.2394 15.5011 44.6936 15.5875 45.1671 15.5875C45.6585 15.5875 46.1007 15.5056 46.4938 15.3418L47.5525 17.9685C46.7991 18.3437 45.922 18.5313 44.9214 18.5313C44.022 18.5313 43.1911 18.3645 42.4287 18.031C41.6663 17.6945 41.0067 17.2314 40.4498 16.6417C39.8929 16.0521 39.4596 15.3641 39.1498 14.5779C38.8371 13.7917 38.6808 12.9563 38.6808 12.0718C38.6808 11.1724 38.8371 10.3296 39.1498 9.54341C39.4596 8.7572 39.8929 8.06776 40.4498 7.47512C41.0067 6.88546 41.6663 6.42385 42.4287 6.09031C43.1911 5.75378 44.022 5.58552 44.9214 5.58552C45.7255 5.58552 46.4387 5.70762 47.0612 5.95183C47.6836 6.19901 48.2315 6.51022 48.7051 6.88546V5.90715ZM65.9795 5.92949V16.9857C65.9795 17.8702 65.8113 18.7055 65.4747 19.4918C65.1382 20.278 64.6751 20.9659 64.0855 21.5556C63.4958 22.1452 62.8079 22.6128 62.0216 22.9583C61.2354 23.3007 60.3911 23.472 59.4888 23.472C58.7532 23.472 58.0578 23.3573 57.4026 23.128C56.7474 22.8987 56.1414 22.5711 55.5845 22.1452L57.7198 20.0323C58.2469 20.3599 58.8366 20.5237 59.4888 20.5237C60.4894 20.5237 61.3262 20.1723 61.9993 19.4694C62.6843 18.7785 63.0267 17.9506 63.0267 16.9857V12.0495C63.0267 11.0965 62.6843 10.2611 61.9993 9.54341C61.3114 8.85249 60.4745 8.50704 59.4888 8.50704C58.5417 8.50704 57.7064 8.85249 56.9827 9.54341C56.2977 10.2611 55.9552 11.0965 55.9552 12.0495C55.9552 13.0293 56.2977 13.8631 56.9827 14.5511C57.7064 15.242 58.5417 15.5875 59.4888 15.5875C59.9801 15.5875 60.4239 15.5056 60.82 15.3418L61.9234 18.0891C61.1878 18.3839 60.3941 18.5313 59.5424 18.5313H59.4888C58.6043 18.5313 57.7689 18.3645 56.9827 18.031C56.1965 17.6945 55.51 17.2314 54.9233 16.6417C54.3307 16.0521 53.8631 15.3641 53.5206 14.5779C53.1782 13.7917 53.0069 12.9489 53.0069 12.0495C53.0069 11.1471 53.1543 10.3028 53.4492 9.51661C53.741 8.73039 54.1535 8.04245 54.6866 7.45279C55.2197 6.86312 55.8585 6.40003 56.603 6.0635C57.3475 5.72996 58.1635 5.56318 59.051 5.56318C59.8997 5.56318 60.6517 5.68975 61.3069 5.94289C61.965 6.19603 62.5383 6.51022 63.0267 6.88546V5.92949H65.9795ZM70.402 18.2142H67.4492V5.92949H70.402V18.2142ZM67.4492 3.96394V1.01562H70.402V3.96394H67.4492ZM84.5539 13.546H81.4582H75.021C75.1848 13.9212 75.4216 14.2563 75.7313 14.5511C76.0768 14.8965 76.4624 15.1556 76.8883 15.3284C77.3142 15.5011 77.7639 15.5875 78.2374 15.5875C78.9104 15.5875 79.509 15.4311 80.0332 15.1184L83.1021 16.3469C82.5124 17.0348 81.7992 17.5709 80.9623 17.9551C80.1285 18.3392 79.2202 18.5313 78.2374 18.5313C77.338 18.5313 76.4952 18.3645 75.709 18.031C74.9228 17.6945 74.2333 17.2314 73.6407 16.6417C73.054 16.0521 72.5924 15.3641 72.2559 14.5779C71.9193 13.7917 71.7511 12.9563 71.7511 12.0718C71.7511 11.1724 71.9193 10.3296 72.2559 9.54341C72.5924 8.7572 73.054 8.06776 73.6407 7.47512C74.2333 6.88546 74.9228 6.42385 75.709 6.09031C76.4952 5.75378 77.338 5.58552 78.2374 5.58552C79.1398 5.58552 79.984 5.75378 80.7703 6.09031C81.5565 6.42385 82.2444 6.88546 82.8341 7.47512C83.4237 8.06776 83.8854 8.7572 84.2189 9.54341C84.5554 10.3296 84.7237 11.1724 84.7237 12.0718C84.7237 12.596 84.6671 13.0874 84.5539 13.546ZM78.2374 8.53384C77.2874 8.53384 76.452 8.87781 75.7313 9.56575C75.4216 9.87547 75.1848 10.2194 75.021 10.5977H81.4582C81.2944 10.2194 81.0562 9.87547 80.7435 9.56575C80.0555 8.87781 79.2202 8.53384 78.2374 8.53384ZM89.6376 18.2142H86.6892V15.2658H89.6376V18.2142ZM101.627 5.90715H104.576V18.2142H101.627V12.0718C101.627 11.089 101.283 10.2537 100.595 9.56575C99.9075 8.87781 99.0722 8.53384 98.0894 8.53384C97.6159 8.53384 97.1617 8.62318 96.7269 8.80187C96.2921 8.98353 95.9109 9.23816 95.5833 9.56575C94.8954 10.2537 94.5514 11.089 94.5514 12.0718C94.5514 13.0367 94.8954 13.8631 95.5833 14.5511C95.9109 14.8965 96.2921 15.1556 96.7269 15.3284C97.1617 15.5011 97.6159 15.5875 98.0894 15.5875C98.5808 15.5875 99.023 15.5056 99.4161 15.3418L100.475 17.9685C99.7214 18.3437 98.8444 18.5313 97.8437 18.5313C96.9413 18.5313 96.1105 18.3645 95.351 18.031C94.5886 17.6945 93.929 17.2314 93.3721 16.6417C92.8152 16.0521 92.3819 15.3641 92.0722 14.5779C91.7595 13.7917 91.6031 12.9563 91.6031 12.0718C91.6031 11.1724 91.7595 10.3296 92.0722 9.54341C92.3819 8.7572 92.8152 8.06776 93.3721 7.47512C93.929 6.88546 94.5886 6.42385 95.351 6.09031C96.1105 5.75378 96.9413 5.58552 97.8437 5.58552C98.6448 5.58552 99.3566 5.70762 99.979 5.95183C100.601 6.19901 101.151 6.51022 101.627 6.88546V5.90715ZM109.244 18.2142H106.296V5.92949H109.244V18.2142ZM106.296 3.96394V1.01562H109.244V3.96394H106.296Z" fill="#000000"/>
</svg>
