<?xml version="1.0" encoding="utf-8"?>
<svg xmlns="http://www.w3.org/2000/svg" width="640" height="640" viewBox="0 0 640 640" fill="none">
<path d="M320 0C143.568 0 0 143.55 0 320.04C0 496.531 143.568 640 320 640C496.432 640 640 496.45 640 320.04C640 143.631 496.432 0 320 0ZM338.087 68.4647C460.903 77.1036 560.949 175.602 571.284 298.322C576.21 356.856 560.949 411.757 531.799 456.728C530.83 458.181 528.811 458.342 527.6 457.051L324.845 227.032C322.665 224.61 318.87 224.61 316.77 227.032L113.046 458.019C111.915 459.311 109.816 459.15 108.928 457.777C83.0078 418.135 67.9081 370.824 67.9081 320.04C67.9081 175.037 190.779 58.1304 337.981 68.4647H338.087ZM160.202 507.027L318.789 327.145C319.838 326.015 321.615 326.015 322.665 327.145L484.562 510.741C440.313 548.929 382.821 572.1 320 572.1C257.179 572.1 204.29 550.786 160.929 515.342C158.345 513.243 158.102 509.449 160.283 506.946L160.202 507.027Z" fill="#6138D8"/>
</svg>