<?xml version="1.0" encoding="UTF-8" standalone="no"?>
<!DOCTYPE svg PUBLIC "-//W3C//DTD SVG 1.1//EN" "http://www.w3.org/Graphics/SVG/1.1/DTD/svg11.dtd">
<svg xmlns="http://www.w3.org/2000/svg" version="1.1" viewBox="0.00 0.00 360.00 360.00">
<g stroke-width="2.00" fill="none" stroke-linecap="butt">
<path stroke="#acacae" vector-effect="non-scaling-stroke" d="
  M 211.79 100.01
  L 212.58 100.25
  A 0.33 0.33 0.0 0 1 212.67 100.84
  L 208.23 103.73
  A 0.80 0.60 -79.6 0 0 208.10 103.85
  Q 199.95 113.10 197.87 125.13
  Q 197.58 126.84 198.23 128.87
  A 0.38 0.37 43.1 0 0 198.95 128.85
  L 200.03 124.25
  A 0.44 0.44 0.0 0 1 200.73 124.01
  Q 200.96 124.18 200.49 127.45
  C 200.11 130.11 200.23 132.62 201.05 135.19
  A 1.26 1.25 -8.9 0 0 202.25 136.06
  L 246.82 136.06
  A 0.35 0.35 0.0 0 0 247.10 135.51
  C 242.71 129.48 239.52 123.26 232.73 119.38
  A 1.35 1.32 7.1 0 1 232.10 118.59
  Q 231.12 115.17 233.88 112.43
  A 2.34 2.30 -77.2 0 1 234.77 111.86
  L 246.80 107.63
  A 0.65 0.64 -31.3 0 0 247.06 106.58
  Q 244.04 103.36 239.74 103.18
  Q 231.29 102.82 230.00 102.84
  A 1.57 1.56 -30.5 0 1 229.18 102.63
  Q 228.02 101.94 226.78 100.85
  C 223.57 98.02 218.87 97.18 214.71 97.94
  Q 213.56 98.15 211.71 99.56
  A 0.26 0.25 -55.4 0 0 211.79 100.01"
/>
<path stroke="#acacae" vector-effect="non-scaling-stroke" d="
  M 138.23 181.59
  Q 140.70 181.60 141.09 181.60
  A 0.62 0.62 0.0 0 1 141.70 182.22
  L 141.70 195.86
  A 0.52 0.52 0.0 0 0 142.22 196.38
  L 155.18 196.38
  A 0.44 0.44 0.0 0 0 155.62 195.94
  Q 155.75 181.40 155.56 157.55
  Q 155.46 144.94 143.60 140.42
  Q 141.38 139.57 138.24 139.57
  Q 135.10 139.57 132.87 140.42
  Q 121.01 144.93 120.91 157.54
  Q 120.70 181.39 120.82 195.93
  A 0.44 0.44 0.0 0 0 121.26 196.37
  L 134.22 196.38
  A 0.52 0.52 0.0 0 0 134.74 195.86
  L 134.75 182.22
  A 0.62 0.62 0.0 0 1 135.36 181.60
  Q 135.75 181.59 138.23 181.59"
/>
<path stroke="#acacae" vector-effect="non-scaling-stroke" d="
  M 116.70 195.68
  L 107.48 176.91
  A 1.23 1.23 0.0 0 1 107.67 175.54
  C 115.29 167.20 115.48 154.21 107.16 146.04
  C 102.42 141.38 96.68 139.72 89.73 139.94
  Q 88.43 139.98 77.92 139.92
  A 0.14 0.14 0.0 0 0 77.78 140.06
  L 77.39 195.96
  A 0.41 0.41 0.0 0 0 77.80 196.37
  L 90.63 196.37
  A 0.48 0.47 -90.0 0 0 91.10 195.89
  L 91.10 182.88
  A 0.74 0.73 86.5 0 1 91.74 182.15
  Q 93.32 181.93 93.94 182.25
  A 1.75 1.75 0.0 0 1 94.70 183.04
  L 100.58 195.35
  A 1.80 1.78 77.0 0 0 102.19 196.37
  L 116.27 196.37
  A 0.48 0.48 0.0 0 0 116.70 195.68"
/>
<path stroke="#acacae" vector-effect="non-scaling-stroke" d="
  M 202.29 146.57
  C 202.76 150.56 202.52 156.07 203.32 160.75
  C 205.46 173.14 209.57 185.42 216.79 195.65
  A 1.65 1.64 -17.4 0 0 218.14 196.35
  L 235.17 196.35
  A 0.51 0.51 0.0 0 0 235.68 195.84
  L 235.68 183.55
  A 0.60 0.59 -90.0 0 0 235.09 182.95
  L 216.62 182.95
  A 0.52 0.52 0.0 0 1 216.10 182.43
  L 216.10 175.18
  A 0.54 0.54 0.0 0 1 216.64 174.64
  L 235.21 174.64
  A 0.47 0.46 90.0 0 0 235.67 174.17
  L 235.67 161.86
  A 0.57 0.57 0.0 0 0 235.10 161.29
  L 216.77 161.29
  A 0.76 0.76 0.0 0 1 216.01 160.53
  L 216.01 153.92
  A 0.77 0.77 0.0 0 1 216.78 153.15
  L 235.20 153.15
  A 0.48 0.48 0.0 0 0 235.68 152.67
  L 235.68 140.36
  A 0.58 0.57 -0.0 0 0 235.10 139.79
  L 189.71 139.79
  A 0.76 0.75 10.9 0 0 189.01 140.26
  L 180.11 163.05
  A 0.58 0.58 0.0 0 1 179.03 163.05
  L 170.65 141.71
  A 2.24 2.22 79.1 0 0 168.58 140.30
  L 155.62 140.30
  A 0.35 0.34 -10.7 0 0 155.29 140.77
  L 177.26 196.67
  A 0.91 0.89 83.4 0 0 177.95 197.23
  Q 179.52 197.51 181.33 197.30
  A 0.67 0.66 -81.8 0 0 181.88 196.88
  L 201.58 146.48
  A 0.37 0.37 0.0 0 1 202.29 146.57"
/>
<path stroke="#acacae" vector-effect="non-scaling-stroke" d="
  M 253.14 170.81
  L 270.76 195.21
  A 2.11 2.10 72.2 0 0 272.47 196.09
  L 278.76 196.09
  A 0.60 0.59 -90.0 0 0 279.35 195.49
  L 279.35 140.42
  A 0.65 0.64 -90.0 0 0 278.71 139.77
  L 267.66 139.77
  A 0.58 0.58 0.0 0 0 267.08 140.35
  L 267.08 165.14
  A 0.23 0.22 25.5 0 1 266.68 165.28
  L 258.93 156.02
  A 0.24 0.24 0.0 0 1 259.22 155.66
  Q 260.57 156.38 262.95 158.05
  A 0.54 0.54 0.0 0 0 263.78 157.48
  Q 263.51 156.38 262.72 155.31
  Q 257.03 147.61 248.84 140.31
  A 2.15 2.13 65.6 0 0 247.42 139.77
  L 240.67 139.77
  A 0.62 0.62 0.0 0 0 240.05 140.39
  L 240.05 195.57
  A 0.51 0.51 0.0 0 0 240.56 196.08
  L 252.17 196.08
  A 0.53 0.52 90.0 0 0 252.69 195.55
  L 252.69 170.96
  A 0.25 0.25 0.0 0 1 253.14 170.81"
/>
<path stroke="#acacae" vector-effect="non-scaling-stroke" d="
  M 278.21 241.44
  C 280.01 237.49 278.97 235.31 278.62 231.64
  A 0.25 0.25 0.0 0 1 279.06 231.45
  Q 280.19 232.71 281.01 234.62
  A 0.46 0.46 0.0 0 0 281.87 234.57
  C 283.12 230.45 280.72 225.66 278.26 222.40
  A 0.36 0.36 0.0 0 1 278.73 221.88
  Q 280.07 222.71 281.21 224.65
  A 0.53 0.53 0.0 0 0 282.10 224.68
  C 284.05 221.81 282.44 216.31 281.07 213.43
  Q 278.06 207.10 274.56 200.22
  A 1.40 1.39 76.3 0 0 273.32 199.46
  L 240.21 199.46
  A 0.37 0.37 0.0 0 0 239.84 199.83
  L 239.84 200.52
  A 0.74 0.68 -31.6 0 1 239.74 200.88
  Q 237.46 204.62 233.96 206.75
  A 4.97 4.76 -65.4 0 1 232.45 207.35
  C 229.31 207.99 225.01 208.38 224.09 212.09
  A 0.30 0.30 0.0 0 0 224.57 212.39
  Q 227.31 210.14 230.55 209.68
  A 0.41 0.41 0.0 0 1 230.86 210.41
  Q 228.68 212.08 227.85 214.64
  A 0.42 0.42 0.0 0 0 228.57 215.03
  Q 231.16 211.85 235.36 210.51
  A 0.34 0.34 0.0 0 1 235.76 211.00
  L 234.08 214.03
  A 1.32 1.30 49.1 0 0 234.01 215.13
  L 234.45 216.25
  A 0.25 0.25 0.0 0 0 234.92 216.24
  Q 236.55 211.49 241.71 208.66
  A 2.70 2.69 -25.1 0 0 242.93 205.31
  L 242.42 204.01
  A 0.37 0.36 -80.9 0 1 242.99 203.59
  L 250.02 209.60
  Q 250.06 209.64 250.10 209.68
  Q 252.32 212.36 252.85 213.88
  Q 255.36 221.02 259.89 229.13
  A 0.77 0.76 -41.6 0 0 261.18 229.20
  Q 261.21 229.16 261.20 228.78
  A 0.21 0.21 0.0 0 1 261.59 228.66
  Q 261.68 228.81 261.64 229.74
  Q 261.58 230.98 262.84 233.23
  A 0.72 0.71 65.1 0 0 263.71 233.55
  Q 265.13 233.02 265.62 233.67
  A 1.16 1.16 0.0 0 1 265.86 234.28
  Q 266.25 238.71 269.05 241.26
  A 0.47 0.47 0.0 0 0 269.84 240.91
  L 269.84 239.34
  A 0.21 0.21 0.0 0 1 270.24 239.26
  C 271.43 242.29 272.06 244.85 274.68 247.08
  A 0.66 0.66 0.0 0 0 275.76 246.58
  L 275.76 238.63
  A 0.27 0.26 -69.3 0 1 276.20 238.43
  Q 277.14 239.25 277.53 241.35
  A 0.36 0.36 0.0 0 0 278.21 241.44"
/>
<path stroke="#acacae" vector-effect="non-scaling-stroke" d="
  M 222.51 209.42
  L 224.94 205.91
  A 5.03 4.69 -4.8 0 1 225.82 204.94
  L 231.05 200.57
  A 0.51 0.51 0.0 0 0 230.72 199.66
  L 224.16 199.66
  A 1.28 1.10 -49.2 0 0 223.82 199.71
  Q 221.38 200.49 217.47 201.21
  Q 213.58 201.93 211.94 205.12
  A 0.49 0.48 -7.6 0 0 212.70 205.70
  Q 215.06 203.52 218.50 202.75
  A 0.41 0.41 0.0 0 1 218.90 203.41
  L 215.81 207.02
  A 0.51 0.51 0.0 0 0 215.81 207.68
  L 216.04 207.96
  A 0.48 0.48 0.0 0 0 216.76 207.98
  Q 219.47 205.04 223.18 203.47
  A 0.37 0.37 0.0 0 1 223.61 204.05
  Q 221.87 206.23 221.81 209.19
  A 0.39 0.38 63.0 0 0 222.51 209.42"
/>
<path stroke="#acacae" vector-effect="non-scaling-stroke" d="
  M 140.86 219.00
  A 1.52 1.52 0.0 0 0 139.34 217.48
  A 1.52 1.52 0.0 0 0 137.82 219.00
  A 1.52 1.52 0.0 0 0 139.34 220.52
  A 1.52 1.52 0.0 0 0 140.86 219.00"
/>
<path stroke="#acacae" vector-effect="non-scaling-stroke" d="
  M 154.35 219.36
  A 0.97 0.97 0.0 0 0 153.38 218.39
  L 152.78 218.39
  A 0.97 0.97 0.0 0 0 151.81 219.36
  L 151.81 230.52
  A 0.97 0.97 0.0 0 0 152.78 231.49
  L 153.38 231.49
  A 0.97 0.97 0.0 0 0 154.35 230.52
  L 154.35 219.36"
/>
<path stroke="#acacae" vector-effect="non-scaling-stroke" d="
  M 135.61 231.68
  A 0.61 0.60 -16.2 0 0 136.09 230.81
  L 135.12 228.84
  A 1.42 1.33 34.3 0 1 134.99 228.26
  L 134.99 219.14
  A 0.75 0.75 0.0 0 0 134.24 218.39
  L 133.52 218.39
  A 1.12 1.12 0.0 0 0 132.40 219.51
  Q 132.44 228.23 132.45 229.02
  Q 132.48 232.01 135.61 231.68"
/>
<path stroke="#acacae" vector-effect="non-scaling-stroke" d="
  M 121.65 225.53
  C 121.70 230.36 125.06 232.79 129.81 231.03
  A 1.02 1.02 0.0 0 0 130.43 229.79
  L 130.35 229.54
  A 0.81 0.81 0.0 0 0 129.21 229.05
  C 125.75 230.82 124.59 228.43 124.56 225.50
  C 124.53 222.57 125.63 220.15 129.13 221.84
  A 0.81 0.81 0.0 0 0 130.26 221.33
  L 130.33 221.08
  A 1.02 1.02 0.0 0 0 129.69 219.85
  C 124.89 218.20 121.60 220.70 121.65 225.53"
/>
<path stroke="#acacae" vector-effect="non-scaling-stroke" d="
  M 82.03 228.43
  Q 83.08 228.43 83.44 228.45
  A 1.21 1.21 0.0 0 1 84.53 229.22
  L 85.34 231.27
  A 0.42 0.42 0.0 0 0 85.76 231.54
  L 86.07 231.52
  A 0.55 0.55 0.0 0 0 86.57 230.81
  Q 85.15 225.87 83.43 220.88
  Q 82.94 219.46 82.04 219.46
  Q 81.13 219.46 80.64 220.88
  Q 78.92 225.87 77.49 230.81
  A 0.55 0.55 0.0 0 0 77.99 231.52
  L 78.30 231.54
  A 0.42 0.42 0.0 0 0 78.72 231.27
  L 79.54 229.22
  A 1.21 1.21 0.0 0 1 80.63 228.44
  Q 80.98 228.43 82.03 228.43"
/>
<path stroke="#acacae" vector-effect="non-scaling-stroke" d="
  M 97.08 231.56
  Q 98.36 231.55 98.43 230.73
  A 0.19 0.01 -88.0 0 1 98.43 230.69
  L 98.43 222.36
  A 0.66 0.65 -1.4 0 1 99.06 221.71
  L 100.66 221.63
  A 1.09 1.09 0.0 0 0 101.70 220.64
  L 101.70 220.61
  A 0.95 0.95 0.0 0 0 100.81 219.60
  Q 98.98 219.49 97.04 219.54
  Q 95.10 219.50 93.28 219.62
  A 0.95 0.95 0.0 0 0 92.39 220.64
  L 92.39 220.67
  A 1.09 1.09 0.0 0 0 93.44 221.65
  L 95.04 221.72
  A 0.66 0.65 1.1 0 1 95.67 222.37
  L 95.72 230.70
  A 0.19 0.01 87.7 0 1 95.72 230.73
  Q 95.79 231.56 97.08 231.56"
/>
<path stroke="#acacae" vector-effect="non-scaling-stroke" d="
  M 159.78 230.54
  L 157.68 227.63
  A 1.77 1.76 43.7 0 1 157.63 225.62
  L 159.51 222.77
  A 0.42 0.42 0.0 0 0 159.17 222.12
  C 157.07 221.96 155.91 224.30 154.91 225.94
  A 0.88 0.85 -43.1 0 0 154.87 226.79
  L 156.55 230.21
  A 2.23 2.22 77.0 0 0 158.55 231.46
  L 159.31 231.46
  A 0.58 0.58 0.0 0 0 159.78 230.54"
/>
<path stroke="#acacae" vector-effect="non-scaling-stroke" d="
  M 187.9828 221.9811
  A 4.91 4.20 -88.8 0 0 183.6809 226.8020
  A 4.91 4.20 -88.8 0 0 187.7772 231.7989
  A 4.91 4.20 -88.8 0 0 192.0791 226.9780
  A 4.91 4.20 -88.8 0 0 187.9828 221.9811"
/>
<path stroke="#acacae" vector-effect="non-scaling-stroke" d="
  M 194.65 222.84
  L 194.62 230.49
  A 1.14 1.13 6.8 0 0 195.49 231.59
  L 195.52 231.59
  A 0.68 0.67 7.3 0 0 196.35 230.95
  L 196.49 225.21
  A 1.79 1.78 86.6 0 1 198.01 223.49
  L 198.06 223.48
  A 1.31 1.31 0.0 0 1 199.60 224.76
  L 199.66 230.70
  A 0.85 0.83 10.8 0 0 200.20 231.48
  L 200.44 231.57
  A 0.63 0.63 0.0 0 0 201.24 231.00
  L 201.47 225.40
  A 2.02 2.02 0.0 0 1 203.09 223.51
  L 203.14 223.50
  A 1.32 1.32 0.0 0 1 204.81 224.77
  L 204.86 231.12
  A 0.40 0.39 0.0 0 0 205.26 231.51
  L 205.69 231.51
  A 0.54 0.53 -87.0 0 0 206.22 231.03
  Q 206.49 228.31 206.31 224.75
  C 206.21 222.58 204.32 221.18 202.30 222.55
  Q 201.09 223.37 199.77 222.33
  A 1.57 1.57 0.0 0 0 198.07 222.17
  Q 196.60 222.92 195.39 222.37
  A 0.52 0.52 0.0 0 0 194.65 222.84"
/>
<path stroke="#acacae" vector-effect="non-scaling-stroke" d="
  M 212.08 231.53
  C 217.37 232.66 217.80 227.11 216.62 223.81
  Q 216.22 222.68 214.52 222.16
  C 213.10 221.73 211.96 222.83 210.53 222.51
  A 0.76 0.75 5.7 0 0 209.61 223.26
  L 209.84 234.43
  A 0.60 0.60 0.0 0 0 210.30 235.00
  Q 210.53 235.05 210.88 234.88
  A 0.64 0.64 0.0 0 0 211.22 234.19
  Q 210.96 232.78 211.28 231.96
  A 0.70 0.69 -72.9 0 1 212.08 231.53"
/>
<path stroke="#acacae" vector-effect="non-scaling-stroke" d="
  M 102.85 224.22
  Q 104.64 223.86 105.98 224.15
  A 0.77 0.77 0.0 0 1 105.96 225.66
  L 103.08 226.20
  A 1.42 1.38 -74.6 0 0 102.25 226.69
  Q 100.64 228.71 101.97 230.65
  A 2.42 2.31 -25.3 0 0 104.62 231.53
  Q 107.30 230.72 108.49 231.40
  A 0.74 0.74 0.0 0 0 109.60 230.69
  L 109.06 224.41
  A 2.27 2.26 2.5 0 0 107.19 222.38
  Q 105.23 222.03 103.00 222.44
  A 1.13 1.12 -2.1 0 0 102.08 223.42
  L 102.07 223.51
  A 0.65 0.65 0.0 0 0 102.85 224.22"
/>
<path stroke="#acacae" vector-effect="non-scaling-stroke" d="
  M 115.05 231.34
  C 115.96 231.51 116.56 231.87 117.71 231.50
  C 120.51 230.58 120.73 225.68 119.54 223.60
  C 118.24 221.33 116.13 222.61 114.25 222.56
  Q 113.62 222.54 112.31 222.35
  A 0.57 0.57 0.0 0 0 111.65 222.91
  L 111.65 234.24
  A 1.01 1.01 0.0 0 0 112.66 235.25
  L 113.01 235.25
  A 1.24 1.23 90.0 0 0 114.24 234.01
  L 114.24 232.01
  A 0.69 0.68 5.3 0 1 115.05 231.34"
/>
<path stroke="#acacae" vector-effect="non-scaling-stroke" d="
  M 140.6499 223.0667
  A 0.75 0.75 0.0 0 0 139.9039 222.3128
  L 138.8639 222.3073
  A 0.75 0.75 0.0 0 0 138.1100 223.0534
  L 138.0701 230.6733
  A 0.75 0.75 0.0 0 0 138.8161 231.4272
  L 139.8561 231.4327
  A 0.75 0.75 0.0 0 0 140.6100 230.6866
  L 140.6499 223.0667"
/>
<path stroke="#acacae" vector-effect="non-scaling-stroke" d="
  M 142.62 226.82
  C 142.57 230.68 145.43 232.50 149.16 231.13
  A 0.85 0.85 0.0 0 0 148.80 229.48
  L 146.85 229.65
  A 1.39 1.38 86.0 0 1 145.35 228.35
  Q 145.29 227.17 145.29 226.86
  Q 145.30 226.55 145.39 225.38
  A 1.39 1.38 -84.4 0 1 146.93 224.12
  L 148.87 224.34
  A 0.85 0.85 0.0 0 0 149.28 222.70
  C 145.59 221.23 142.68 222.96 142.62 226.82"
/>
<path stroke="#acacae" vector-effect="non-scaling-stroke" d="
  M 161.73 231.03
  C 164.32 231.86 169.94 231.92 168.51 227.67
  C 167.94 225.98 165.26 225.70 164.18 225.24
  A 0.66 0.66 0.0 0 1 164.28 224.00
  Q 165.60 223.68 166.95 224.39
  A 0.83 0.82 -64.0 0 0 168.09 223.99
  L 168.18 223.77
  A 0.84 0.84 0.0 0 0 167.68 222.64
  C 165.80 222.00 162.03 221.81 161.41 224.36
  C 160.87 226.57 163.89 227.63 166.01 228.46
  A 0.61 0.61 0.0 0 1 165.96 229.62
  Q 164.10 230.17 162.81 229.33
  A 0.87 0.87 0.0 0 0 161.50 229.81
  L 161.35 230.32
  A 0.58 0.57 17.0 0 0 161.73 231.03"
/>
<path stroke="#acacae" vector-effect="non-scaling-stroke" d="
  M 175.55 226.90
  C 175.54 230.75 178.29 232.69 182.01 231.01
  A 0.40 0.40 0.0 0 0 182.17 230.41
  L 181.92 230.07
  A 0.47 0.46 -32.4 0 0 181.32 229.94
  C 178.33 231.60 177.21 229.53 177.21 226.91
  C 177.22 224.29 178.36 222.23 181.34 223.91
  A 0.47 0.46 32.7 0 0 181.94 223.78
  L 182.19 223.44
  A 0.40 0.40 0.0 0 0 182.03 222.84
  C 178.33 221.14 175.56 223.06 175.55 226.90"
/>
<path stroke="#acacae" vector-effect="non-scaling-stroke" d="
  M 226.81 230.97
  Q 226.05 229.31 226.29 225.77
  C 226.55 221.83 222.93 221.49 220.29 222.75
  A 0.46 0.46 0.0 0 0 220.53 223.63
  L 223.07 223.41
  A 1.55 1.54 -4.8 0 1 224.74 224.81
  L 224.76 225.09
  A 0.52 0.52 0.0 0 1 224.28 225.66
  L 221.78 225.88
  A 0.78 0.71 29.1 0 0 221.57 225.93
  C 217.01 227.84 219.86 233.36 224.19 231.18
  C 224.99 230.78 225.86 231.47 226.46 231.49
  A 0.37 0.37 0.0 0 0 226.81 230.97"
/>
<path stroke="#acacae" vector-effect="non-scaling-stroke" d="
  M 229.70 222.92
  L 229.70 230.89
  A 0.56 0.56 0.0 0 0 230.26 231.45
  L 230.53 231.45
  A 0.57 0.57 0.0 0 0 231.10 230.88
  L 231.14 225.89
  A 2.62 2.62 0.0 0 1 233.00 223.41
  L 233.14 223.37
  A 1.52 1.51 -8.6 0 1 235.11 224.82
  L 235.08 231.03
  A 0.45 0.45 0.0 0 0 235.53 231.48
  L 235.94 231.48
  A 0.53 0.53 0.0 0 0 236.47 230.97
  Q 236.62 226.44 236.46 224.47
  C 236.24 221.73 233.85 221.88 231.80 222.80
  A 0.73 0.70 -46.1 0 1 231.26 222.82
  L 230.36 222.47
  A 0.48 0.48 0.0 0 0 229.70 222.92"
/>
<path stroke="#acacae" vector-effect="non-scaling-stroke" d="
  M 242.25 229.45
  L 240.38 223.03
  A 0.89 0.86 0.9 0 0 239.79 222.44
  L 239.36 222.32
  A 0.60 0.60 0.0 0 0 238.62 223.10
  L 241.67 231.71
  A 0.93 0.83 41.4 0 1 241.71 232.03
  Q 241.59 233.31 239.52 233.86
  A 0.62 0.62 0.0 0 0 239.07 234.59
  L 239.08 234.65
  A 0.54 0.54 0.0 0 0 239.72 235.07
  Q 242.64 234.44 243.57 231.55
  Q 243.90 230.50 246.31 223.10
  A 0.50 0.49 17.7 0 0 245.98 222.47
  L 245.55 222.34
  A 0.60 0.60 0.0 0 0 244.80 222.75
  L 242.82 229.45
  A 0.30 0.30 0.0 0 1 242.25 229.45"
/>
<path stroke="#acacae" vector-effect="non-scaling-stroke" d="
  M 135.61 168.20
  L 141.11 168.20
  A 0.67 0.67 0.0 0 0 141.78 167.53
  L 141.78 157.38
  A 3.88 3.15 90.0 0 0 138.63 153.50
  L 138.09 153.50
  A 3.88 3.15 90.0 0 0 134.94 157.38
  L 134.94 167.53
  A 0.67 0.67 0.0 0 0 135.61 168.20"
/>
<path stroke="#acacae" vector-effect="non-scaling-stroke" d="
  M 92.09 153.46
  L 91.77 168.70
  A 0.12 0.12 0.0 0 0 91.89 168.82
  L 91.96 168.82
  A 7.70 7.47 -88.8 0 0 99.59 161.28
  L 99.59 161.20
  A 7.70 7.47 -88.8 0 0 92.28 153.35
  L 92.21 153.34
  A 0.12 0.12 0.0 0 0 92.09 153.46"
/>
<path stroke="#acacae" vector-effect="non-scaling-stroke" d="
  M 81.99 227.13
  Q 82.91 227.12 83.36 226.99
  A 0.52 0.52 0.0 0 0 83.71 226.33
  Q 82.30 221.87 81.99 221.87
  Q 81.69 221.87 80.28 226.33
  A 0.52 0.52 0.0 0 0 80.63 226.99
  Q 81.08 227.13 81.99 227.13"
/>
<path stroke="#acacae" vector-effect="non-scaling-stroke" d="
  M 187.9079 223.3302
  A 3.62 2.43 -89.4 0 0 185.4401 226.9246
  A 3.62 2.43 -89.4 0 0 187.8321 230.5698
  A 3.62 2.43 -89.4 0 0 190.2999 226.9754
  A 3.62 2.43 -89.4 0 0 187.9079 223.3302"
/>
<path stroke="#acacae" vector-effect="non-scaling-stroke" d="
  M 215.4739 225.4883
  A 1.96 1.96 0.0 0 0 213.5871 223.4578
  L 213.2873 223.4468
  A 1.96 1.96 0.0 0 0 211.2567 225.3337
  L 211.1461 228.3517
  A 1.96 1.96 0.0 0 0 213.0329 230.3822
  L 213.3327 230.3932
  A 1.96 1.96 0.0 0 0 215.3633 228.5063
  L 215.4739 225.4883"
/>
<path stroke="#acacae" vector-effect="non-scaling-stroke" d="
  M 106.6483 227.7626
  A 1.57 1.12 -30.1 0 0 104.7283 227.5810
  A 1.57 1.12 -30.1 0 0 103.9317 229.3374
  A 1.57 1.12 -30.1 0 0 105.8517 229.5190
  A 1.57 1.12 -30.1 0 0 106.6483 227.7626"
/>
<path stroke="#acacae" vector-effect="non-scaling-stroke" d="
  M 115.9587 223.9649
  A 2.93 1.68 -86.7 0 0 114.1128 226.7933
  A 2.93 1.68 -86.7 0 0 115.6213 229.8151
  A 2.93 1.68 -86.7 0 0 117.4672 226.9867
  A 2.93 1.68 -86.7 0 0 115.9587 223.9649"
/>
<path stroke="#acacae" vector-effect="non-scaling-stroke" d="
  M 224.6955 227.5514
  A 2.12 1.71 -34.1 0 0 221.9813 227.3240
  A 2.12 1.71 -34.1 0 0 221.1845 229.9286
  A 2.12 1.71 -34.1 0 0 223.8987 230.1560
  A 2.12 1.71 -34.1 0 0 224.6955 227.5514"
/>
</g>
<path fill="#ffffff" d="
  M 360.00 0.00
  L 360.00 360.00
  L 0.00 360.00
  L 0.00 0.00
  L 360.00 0.00
  Z
  M 211.79 100.01
  L 212.58 100.25
  A 0.33 0.33 0.0 0 1 212.67 100.84
  L 208.23 103.73
  A 0.80 0.60 -79.6 0 0 208.10 103.85
  Q 199.95 113.10 197.87 125.13
  Q 197.58 126.84 198.23 128.87
  A 0.38 0.37 43.1 0 0 198.95 128.85
  L 200.03 124.25
  A 0.44 0.44 0.0 0 1 200.73 124.01
  Q 200.96 124.18 200.49 127.45
  C 200.11 130.11 200.23 132.62 201.05 135.19
  A 1.26 1.25 -8.9 0 0 202.25 136.06
  L 246.82 136.06
  A 0.35 0.35 0.0 0 0 247.10 135.51
  C 242.71 129.48 239.52 123.26 232.73 119.38
  A 1.35 1.32 7.1 0 1 232.10 118.59
  Q 231.12 115.17 233.88 112.43
  A 2.34 2.30 -77.2 0 1 234.77 111.86
  L 246.80 107.63
  A 0.65 0.64 -31.3 0 0 247.06 106.58
  Q 244.04 103.36 239.74 103.18
  Q 231.29 102.82 230.00 102.84
  A 1.57 1.56 -30.5 0 1 229.18 102.63
  Q 228.02 101.94 226.78 100.85
  C 223.57 98.02 218.87 97.18 214.71 97.94
  Q 213.56 98.15 211.71 99.56
  A 0.26 0.25 -55.4 0 0 211.79 100.01
  Z
  M 138.23 181.59
  Q 140.70 181.60 141.09 181.60
  A 0.62 0.62 0.0 0 1 141.70 182.22
  L 141.70 195.86
  A 0.52 0.52 0.0 0 0 142.22 196.38
  L 155.18 196.38
  A 0.44 0.44 0.0 0 0 155.62 195.94
  Q 155.75 181.40 155.56 157.55
  Q 155.46 144.94 143.60 140.42
  Q 141.38 139.57 138.24 139.57
  Q 135.10 139.57 132.87 140.42
  Q 121.01 144.93 120.91 157.54
  Q 120.70 181.39 120.82 195.93
  A 0.44 0.44 0.0 0 0 121.26 196.37
  L 134.22 196.38
  A 0.52 0.52 0.0 0 0 134.74 195.86
  L 134.75 182.22
  A 0.62 0.62 0.0 0 1 135.36 181.60
  Q 135.75 181.59 138.23 181.59
  Z
  M 116.70 195.68
  L 107.48 176.91
  A 1.23 1.23 0.0 0 1 107.67 175.54
  C 115.29 167.20 115.48 154.21 107.16 146.04
  C 102.42 141.38 96.68 139.72 89.73 139.94
  Q 88.43 139.98 77.92 139.92
  A 0.14 0.14 0.0 0 0 77.78 140.06
  L 77.39 195.96
  A 0.41 0.41 0.0 0 0 77.80 196.37
  L 90.63 196.37
  A 0.48 0.47 -90.0 0 0 91.10 195.89
  L 91.10 182.88
  A 0.74 0.73 86.5 0 1 91.74 182.15
  Q 93.32 181.93 93.94 182.25
  A 1.75 1.75 0.0 0 1 94.70 183.04
  L 100.58 195.35
  A 1.80 1.78 77.0 0 0 102.19 196.37
  L 116.27 196.37
  A 0.48 0.48 0.0 0 0 116.70 195.68
  Z
  M 202.29 146.57
  C 202.76 150.56 202.52 156.07 203.32 160.75
  C 205.46 173.14 209.57 185.42 216.79 195.65
  A 1.65 1.64 -17.4 0 0 218.14 196.35
  L 235.17 196.35
  A 0.51 0.51 0.0 0 0 235.68 195.84
  L 235.68 183.55
  A 0.60 0.59 -90.0 0 0 235.09 182.95
  L 216.62 182.95
  A 0.52 0.52 0.0 0 1 216.10 182.43
  L 216.10 175.18
  A 0.54 0.54 0.0 0 1 216.64 174.64
  L 235.21 174.64
  A 0.47 0.46 90.0 0 0 235.67 174.17
  L 235.67 161.86
  A 0.57 0.57 0.0 0 0 235.10 161.29
  L 216.77 161.29
  A 0.76 0.76 0.0 0 1 216.01 160.53
  L 216.01 153.92
  A 0.77 0.77 0.0 0 1 216.78 153.15
  L 235.20 153.15
  A 0.48 0.48 0.0 0 0 235.68 152.67
  L 235.68 140.36
  A 0.58 0.57 -0.0 0 0 235.10 139.79
  L 189.71 139.79
  A 0.76 0.75 10.9 0 0 189.01 140.26
  L 180.11 163.05
  A 0.58 0.58 0.0 0 1 179.03 163.05
  L 170.65 141.71
  A 2.24 2.22 79.1 0 0 168.58 140.30
  L 155.62 140.30
  A 0.35 0.34 -10.7 0 0 155.29 140.77
  L 177.26 196.67
  A 0.91 0.89 83.4 0 0 177.95 197.23
  Q 179.52 197.51 181.33 197.30
  A 0.67 0.66 -81.8 0 0 181.88 196.88
  L 201.58 146.48
  A 0.37 0.37 0.0 0 1 202.29 146.57
  Z
  M 253.14 170.81
  L 270.76 195.21
  A 2.11 2.10 72.2 0 0 272.47 196.09
  L 278.76 196.09
  A 0.60 0.59 -90.0 0 0 279.35 195.49
  L 279.35 140.42
  A 0.65 0.64 -90.0 0 0 278.71 139.77
  L 267.66 139.77
  A 0.58 0.58 0.0 0 0 267.08 140.35
  L 267.08 165.14
  A 0.23 0.22 25.5 0 1 266.68 165.28
  L 258.93 156.02
  A 0.24 0.24 0.0 0 1 259.22 155.66
  Q 260.57 156.38 262.95 158.05
  A 0.54 0.54 0.0 0 0 263.78 157.48
  Q 263.51 156.38 262.72 155.31
  Q 257.03 147.61 248.84 140.31
  A 2.15 2.13 65.6 0 0 247.42 139.77
  L 240.67 139.77
  A 0.62 0.62 0.0 0 0 240.05 140.39
  L 240.05 195.57
  A 0.51 0.51 0.0 0 0 240.56 196.08
  L 252.17 196.08
  A 0.53 0.52 90.0 0 0 252.69 195.55
  L 252.69 170.96
  A 0.25 0.25 0.0 0 1 253.14 170.81
  Z
  M 278.21 241.44
  C 280.01 237.49 278.97 235.31 278.62 231.64
  A 0.25 0.25 0.0 0 1 279.06 231.45
  Q 280.19 232.71 281.01 234.62
  A 0.46 0.46 0.0 0 0 281.87 234.57
  C 283.12 230.45 280.72 225.66 278.26 222.40
  A 0.36 0.36 0.0 0 1 278.73 221.88
  Q 280.07 222.71 281.21 224.65
  A 0.53 0.53 0.0 0 0 282.10 224.68
  C 284.05 221.81 282.44 216.31 281.07 213.43
  Q 278.06 207.10 274.56 200.22
  A 1.40 1.39 76.3 0 0 273.32 199.46
  L 240.21 199.46
  A 0.37 0.37 0.0 0 0 239.84 199.83
  L 239.84 200.52
  A 0.74 0.68 -31.6 0 1 239.74 200.88
  Q 237.46 204.62 233.96 206.75
  A 4.97 4.76 -65.4 0 1 232.45 207.35
  C 229.31 207.99 225.01 208.38 224.09 212.09
  A 0.30 0.30 0.0 0 0 224.57 212.39
  Q 227.31 210.14 230.55 209.68
  A 0.41 0.41 0.0 0 1 230.86 210.41
  Q 228.68 212.08 227.85 214.64
  A 0.42 0.42 0.0 0 0 228.57 215.03
  Q 231.16 211.85 235.36 210.51
  A 0.34 0.34 0.0 0 1 235.76 211.00
  L 234.08 214.03
  A 1.32 1.30 49.1 0 0 234.01 215.13
  L 234.45 216.25
  A 0.25 0.25 0.0 0 0 234.92 216.24
  Q 236.55 211.49 241.71 208.66
  A 2.70 2.69 -25.1 0 0 242.93 205.31
  L 242.42 204.01
  A 0.37 0.36 -80.9 0 1 242.99 203.59
  L 250.02 209.60
  Q 250.06 209.64 250.10 209.68
  Q 252.32 212.36 252.85 213.88
  Q 255.36 221.02 259.89 229.13
  A 0.77 0.76 -41.6 0 0 261.18 229.20
  Q 261.21 229.16 261.20 228.78
  A 0.21 0.21 0.0 0 1 261.59 228.66
  Q 261.68 228.81 261.64 229.74
  Q 261.58 230.98 262.84 233.23
  A 0.72 0.71 65.1 0 0 263.71 233.55
  Q 265.13 233.02 265.62 233.67
  A 1.16 1.16 0.0 0 1 265.86 234.28
  Q 266.25 238.71 269.05 241.26
  A 0.47 0.47 0.0 0 0 269.84 240.91
  L 269.84 239.34
  A 0.21 0.21 0.0 0 1 270.24 239.26
  C 271.43 242.29 272.06 244.85 274.68 247.08
  A 0.66 0.66 0.0 0 0 275.76 246.58
  L 275.76 238.63
  A 0.27 0.26 -69.3 0 1 276.20 238.43
  Q 277.14 239.25 277.53 241.35
  A 0.36 0.36 0.0 0 0 278.21 241.44
  Z
  M 222.51 209.42
  L 224.94 205.91
  A 5.03 4.69 -4.8 0 1 225.82 204.94
  L 231.05 200.57
  A 0.51 0.51 0.0 0 0 230.72 199.66
  L 224.16 199.66
  A 1.28 1.10 -49.2 0 0 223.82 199.71
  Q 221.38 200.49 217.47 201.21
  Q 213.58 201.93 211.94 205.12
  A 0.49 0.48 -7.6 0 0 212.70 205.70
  Q 215.06 203.52 218.50 202.75
  A 0.41 0.41 0.0 0 1 218.90 203.41
  L 215.81 207.02
  A 0.51 0.51 0.0 0 0 215.81 207.68
  L 216.04 207.96
  A 0.48 0.48 0.0 0 0 216.76 207.98
  Q 219.47 205.04 223.18 203.47
  A 0.37 0.37 0.0 0 1 223.61 204.05
  Q 221.87 206.23 221.81 209.19
  A 0.39 0.38 63.0 0 0 222.51 209.42
  Z
  M 140.86 219.00
  A 1.52 1.52 0.0 0 0 139.34 217.48
  A 1.52 1.52 0.0 0 0 137.82 219.00
  A 1.52 1.52 0.0 0 0 139.34 220.52
  A 1.52 1.52 0.0 0 0 140.86 219.00
  Z
  M 154.35 219.36
  A 0.97 0.97 0.0 0 0 153.38 218.39
  L 152.78 218.39
  A 0.97 0.97 0.0 0 0 151.81 219.36
  L 151.81 230.52
  A 0.97 0.97 0.0 0 0 152.78 231.49
  L 153.38 231.49
  A 0.97 0.97 0.0 0 0 154.35 230.52
  L 154.35 219.36
  Z
  M 135.61 231.68
  A 0.61 0.60 -16.2 0 0 136.09 230.81
  L 135.12 228.84
  A 1.42 1.33 34.3 0 1 134.99 228.26
  L 134.99 219.14
  A 0.75 0.75 0.0 0 0 134.24 218.39
  L 133.52 218.39
  A 1.12 1.12 0.0 0 0 132.40 219.51
  Q 132.44 228.23 132.45 229.02
  Q 132.48 232.01 135.61 231.68
  Z
  M 121.65 225.53
  C 121.70 230.36 125.06 232.79 129.81 231.03
  A 1.02 1.02 0.0 0 0 130.43 229.79
  L 130.35 229.54
  A 0.81 0.81 0.0 0 0 129.21 229.05
  C 125.75 230.82 124.59 228.43 124.56 225.50
  C 124.53 222.57 125.63 220.15 129.13 221.84
  A 0.81 0.81 0.0 0 0 130.26 221.33
  L 130.33 221.08
  A 1.02 1.02 0.0 0 0 129.69 219.85
  C 124.89 218.20 121.60 220.70 121.65 225.53
  Z
  M 82.03 228.43
  Q 83.08 228.43 83.44 228.45
  A 1.21 1.21 0.0 0 1 84.53 229.22
  L 85.34 231.27
  A 0.42 0.42 0.0 0 0 85.76 231.54
  L 86.07 231.52
  A 0.55 0.55 0.0 0 0 86.57 230.81
  Q 85.15 225.87 83.43 220.88
  Q 82.94 219.46 82.04 219.46
  Q 81.13 219.46 80.64 220.88
  Q 78.92 225.87 77.49 230.81
  A 0.55 0.55 0.0 0 0 77.99 231.52
  L 78.30 231.54
  A 0.42 0.42 0.0 0 0 78.72 231.27
  L 79.54 229.22
  A 1.21 1.21 0.0 0 1 80.63 228.44
  Q 80.98 228.43 82.03 228.43
  Z
  M 97.08 231.56
  Q 98.36 231.55 98.43 230.73
  A 0.19 0.01 -88.0 0 1 98.43 230.69
  L 98.43 222.36
  A 0.66 0.65 -1.4 0 1 99.06 221.71
  L 100.66 221.63
  A 1.09 1.09 0.0 0 0 101.70 220.64
  L 101.70 220.61
  A 0.95 0.95 0.0 0 0 100.81 219.60
  Q 98.98 219.49 97.04 219.54
  Q 95.10 219.50 93.28 219.62
  A 0.95 0.95 0.0 0 0 92.39 220.64
  L 92.39 220.67
  A 1.09 1.09 0.0 0 0 93.44 221.65
  L 95.04 221.72
  A 0.66 0.65 1.1 0 1 95.67 222.37
  L 95.72 230.70
  A 0.19 0.01 87.7 0 1 95.72 230.73
  Q 95.79 231.56 97.08 231.56
  Z
  M 159.78 230.54
  L 157.68 227.63
  A 1.77 1.76 43.7 0 1 157.63 225.62
  L 159.51 222.77
  A 0.42 0.42 0.0 0 0 159.17 222.12
  C 157.07 221.96 155.91 224.30 154.91 225.94
  A 0.88 0.85 -43.1 0 0 154.87 226.79
  L 156.55 230.21
  A 2.23 2.22 77.0 0 0 158.55 231.46
  L 159.31 231.46
  A 0.58 0.58 0.0 0 0 159.78 230.54
  Z
  M 187.9828 221.9811
  A 4.91 4.20 -88.8 0 0 183.6809 226.8020
  A 4.91 4.20 -88.8 0 0 187.7772 231.7989
  A 4.91 4.20 -88.8 0 0 192.0791 226.9780
  A 4.91 4.20 -88.8 0 0 187.9828 221.9811
  Z
  M 194.65 222.84
  L 194.62 230.49
  A 1.14 1.13 6.8 0 0 195.49 231.59
  L 195.52 231.59
  A 0.68 0.67 7.3 0 0 196.35 230.95
  L 196.49 225.21
  A 1.79 1.78 86.6 0 1 198.01 223.49
  L 198.06 223.48
  A 1.31 1.31 0.0 0 1 199.60 224.76
  L 199.66 230.70
  A 0.85 0.83 10.8 0 0 200.20 231.48
  L 200.44 231.57
  A 0.63 0.63 0.0 0 0 201.24 231.00
  L 201.47 225.40
  A 2.02 2.02 0.0 0 1 203.09 223.51
  L 203.14 223.50
  A 1.32 1.32 0.0 0 1 204.81 224.77
  L 204.86 231.12
  A 0.40 0.39 0.0 0 0 205.26 231.51
  L 205.69 231.51
  A 0.54 0.53 -87.0 0 0 206.22 231.03
  Q 206.49 228.31 206.31 224.75
  C 206.21 222.58 204.32 221.18 202.30 222.55
  Q 201.09 223.37 199.77 222.33
  A 1.57 1.57 0.0 0 0 198.07 222.17
  Q 196.60 222.92 195.39 222.37
  A 0.52 0.52 0.0 0 0 194.65 222.84
  Z
  M 212.08 231.53
  C 217.37 232.66 217.80 227.11 216.62 223.81
  Q 216.22 222.68 214.52 222.16
  C 213.10 221.73 211.96 222.83 210.53 222.51
  A 0.76 0.75 5.7 0 0 209.61 223.26
  L 209.84 234.43
  A 0.60 0.60 0.0 0 0 210.30 235.00
  Q 210.53 235.05 210.88 234.88
  A 0.64 0.64 0.0 0 0 211.22 234.19
  Q 210.96 232.78 211.28 231.96
  A 0.70 0.69 -72.9 0 1 212.08 231.53
  Z
  M 102.85 224.22
  Q 104.64 223.86 105.98 224.15
  A 0.77 0.77 0.0 0 1 105.96 225.66
  L 103.08 226.20
  A 1.42 1.38 -74.6 0 0 102.25 226.69
  Q 100.64 228.71 101.97 230.65
  A 2.42 2.31 -25.3 0 0 104.62 231.53
  Q 107.30 230.72 108.49 231.40
  A 0.74 0.74 0.0 0 0 109.60 230.69
  L 109.06 224.41
  A 2.27 2.26 2.5 0 0 107.19 222.38
  Q 105.23 222.03 103.00 222.44
  A 1.13 1.12 -2.1 0 0 102.08 223.42
  L 102.07 223.51
  A 0.65 0.65 0.0 0 0 102.85 224.22
  Z
  M 115.05 231.34
  C 115.96 231.51 116.56 231.87 117.71 231.50
  C 120.51 230.58 120.73 225.68 119.54 223.60
  C 118.24 221.33 116.13 222.61 114.25 222.56
  Q 113.62 222.54 112.31 222.35
  A 0.57 0.57 0.0 0 0 111.65 222.91
  L 111.65 234.24
  A 1.01 1.01 0.0 0 0 112.66 235.25
  L 113.01 235.25
  A 1.24 1.23 90.0 0 0 114.24 234.01
  L 114.24 232.01
  A 0.69 0.68 5.3 0 1 115.05 231.34
  Z
  M 140.6499 223.0667
  A 0.75 0.75 0.0 0 0 139.9039 222.3128
  L 138.8639 222.3073
  A 0.75 0.75 0.0 0 0 138.1100 223.0534
  L 138.0701 230.6733
  A 0.75 0.75 0.0 0 0 138.8161 231.4272
  L 139.8561 231.4327
  A 0.75 0.75 0.0 0 0 140.6100 230.6866
  L 140.6499 223.0667
  Z
  M 142.62 226.82
  C 142.57 230.68 145.43 232.50 149.16 231.13
  A 0.85 0.85 0.0 0 0 148.80 229.48
  L 146.85 229.65
  A 1.39 1.38 86.0 0 1 145.35 228.35
  Q 145.29 227.17 145.29 226.86
  Q 145.30 226.55 145.39 225.38
  A 1.39 1.38 -84.4 0 1 146.93 224.12
  L 148.87 224.34
  A 0.85 0.85 0.0 0 0 149.28 222.70
  C 145.59 221.23 142.68 222.96 142.62 226.82
  Z
  M 161.73 231.03
  C 164.32 231.86 169.94 231.92 168.51 227.67
  C 167.94 225.98 165.26 225.70 164.18 225.24
  A 0.66 0.66 0.0 0 1 164.28 224.00
  Q 165.60 223.68 166.95 224.39
  A 0.83 0.82 -64.0 0 0 168.09 223.99
  L 168.18 223.77
  A 0.84 0.84 0.0 0 0 167.68 222.64
  C 165.80 222.00 162.03 221.81 161.41 224.36
  C 160.87 226.57 163.89 227.63 166.01 228.46
  A 0.61 0.61 0.0 0 1 165.96 229.62
  Q 164.10 230.17 162.81 229.33
  A 0.87 0.87 0.0 0 0 161.50 229.81
  L 161.35 230.32
  A 0.58 0.57 17.0 0 0 161.73 231.03
  Z
  M 175.55 226.90
  C 175.54 230.75 178.29 232.69 182.01 231.01
  A 0.40 0.40 0.0 0 0 182.17 230.41
  L 181.92 230.07
  A 0.47 0.46 -32.4 0 0 181.32 229.94
  C 178.33 231.60 177.21 229.53 177.21 226.91
  C 177.22 224.29 178.36 222.23 181.34 223.91
  A 0.47 0.46 32.7 0 0 181.94 223.78
  L 182.19 223.44
  A 0.40 0.40 0.0 0 0 182.03 222.84
  C 178.33 221.14 175.56 223.06 175.55 226.90
  Z
  M 226.81 230.97
  Q 226.05 229.31 226.29 225.77
  C 226.55 221.83 222.93 221.49 220.29 222.75
  A 0.46 0.46 0.0 0 0 220.53 223.63
  L 223.07 223.41
  A 1.55 1.54 -4.8 0 1 224.74 224.81
  L 224.76 225.09
  A 0.52 0.52 0.0 0 1 224.28 225.66
  L 221.78 225.88
  A 0.78 0.71 29.1 0 0 221.57 225.93
  C 217.01 227.84 219.86 233.36 224.19 231.18
  C 224.99 230.78 225.86 231.47 226.46 231.49
  A 0.37 0.37 0.0 0 0 226.81 230.97
  Z
  M 229.70 222.92
  L 229.70 230.89
  A 0.56 0.56 0.0 0 0 230.26 231.45
  L 230.53 231.45
  A 0.57 0.57 0.0 0 0 231.10 230.88
  L 231.14 225.89
  A 2.62 2.62 0.0 0 1 233.00 223.41
  L 233.14 223.37
  A 1.52 1.51 -8.6 0 1 235.11 224.82
  L 235.08 231.03
  A 0.45 0.45 0.0 0 0 235.53 231.48
  L 235.94 231.48
  A 0.53 0.53 0.0 0 0 236.47 230.97
  Q 236.62 226.44 236.46 224.47
  C 236.24 221.73 233.85 221.88 231.80 222.80
  A 0.73 0.70 -46.1 0 1 231.26 222.82
  L 230.36 222.47
  A 0.48 0.48 0.0 0 0 229.70 222.92
  Z
  M 242.25 229.45
  L 240.38 223.03
  A 0.89 0.86 0.9 0 0 239.79 222.44
  L 239.36 222.32
  A 0.60 0.60 0.0 0 0 238.62 223.10
  L 241.67 231.71
  A 0.93 0.83 41.4 0 1 241.71 232.03
  Q 241.59 233.31 239.52 233.86
  A 0.62 0.62 0.0 0 0 239.07 234.59
  L 239.08 234.65
  A 0.54 0.54 0.0 0 0 239.72 235.07
  Q 242.64 234.44 243.57 231.55
  Q 243.90 230.50 246.31 223.10
  A 0.50 0.49 17.7 0 0 245.98 222.47
  L 245.55 222.34
  A 0.60 0.60 0.0 0 0 244.80 222.75
  L 242.82 229.45
  A 0.30 0.30 0.0 0 1 242.25 229.45
  Z"
/>
<path fill="#59595c" d="
  M 211.71 99.56
  Q 213.56 98.15 214.71 97.94
  C 218.87 97.18 223.57 98.02 226.78 100.85
  Q 228.02 101.94 229.18 102.63
  A 1.57 1.56 -30.5 0 0 230.00 102.84
  Q 231.29 102.82 239.74 103.18
  Q 244.04 103.36 247.06 106.58
  A 0.65 0.64 -31.3 0 1 246.80 107.63
  L 234.77 111.86
  A 2.34 2.30 -77.2 0 0 233.88 112.43
  Q 231.12 115.17 232.10 118.59
  A 1.35 1.32 7.1 0 0 232.73 119.38
  C 239.52 123.26 242.71 129.48 247.10 135.51
  A 0.35 0.35 0.0 0 1 246.82 136.06
  L 202.25 136.06
  A 1.26 1.25 -8.9 0 1 201.05 135.19
  C 200.23 132.62 200.11 130.11 200.49 127.45
  Q 200.96 124.18 200.73 124.01
  A 0.44 0.44 0.0 0 0 200.03 124.25
  L 198.95 128.85
  A 0.38 0.37 43.1 0 1 198.23 128.87
  Q 197.58 126.84 197.87 125.13
  Q 199.95 113.10 208.10 103.85
  A 0.80 0.60 -79.6 0 1 208.23 103.73
  L 212.67 100.84
  A 0.33 0.33 0.0 0 0 212.58 100.25
  L 211.79 100.01
  A 0.26 0.25 -55.4 0 1 211.71 99.56
  Z"
/>
<path fill="#59595c" d="
  M 138.24 139.57
  Q 141.38 139.57 143.60 140.42
  Q 155.46 144.94 155.56 157.55
  Q 155.75 181.40 155.62 195.94
  A 0.44 0.44 0.0 0 1 155.18 196.38
  L 142.22 196.38
  A 0.52 0.52 0.0 0 1 141.70 195.86
  L 141.70 182.22
  A 0.62 0.62 0.0 0 0 141.09 181.60
  Q 140.70 181.60 138.23 181.59
  Q 135.75 181.59 135.36 181.60
  A 0.62 0.62 0.0 0 0 134.75 182.22
  L 134.74 195.86
  A 0.52 0.52 0.0 0 1 134.22 196.38
  L 121.26 196.37
  A 0.44 0.44 0.0 0 1 120.82 195.93
  Q 120.70 181.39 120.91 157.54
  Q 121.01 144.93 132.87 140.42
  Q 135.10 139.57 138.24 139.57
  Z
  M 135.61 168.20
  L 141.11 168.20
  A 0.67 0.67 0.0 0 0 141.78 167.53
  L 141.78 157.38
  A 3.88 3.15 90.0 0 0 138.63 153.50
  L 138.09 153.50
  A 3.88 3.15 90.0 0 0 134.94 157.38
  L 134.94 167.53
  A 0.67 0.67 0.0 0 0 135.61 168.20
  Z"
/>
<path fill="#59595c" d="
  M 116.70 195.68
  A 0.48 0.48 0.0 0 1 116.27 196.37
  L 102.19 196.37
  A 1.80 1.78 77.0 0 1 100.58 195.35
  L 94.70 183.04
  A 1.75 1.75 0.0 0 0 93.94 182.25
  Q 93.32 181.93 91.74 182.15
  A 0.74 0.73 86.5 0 0 91.10 182.88
  L 91.10 195.89
  A 0.48 0.47 -90.0 0 1 90.63 196.37
  L 77.80 196.37
  A 0.41 0.41 0.0 0 1 77.39 195.96
  L 77.78 140.06
  A 0.14 0.14 0.0 0 1 77.92 139.92
  Q 88.43 139.98 89.73 139.94
  C 96.68 139.72 102.42 141.38 107.16 146.04
  C 115.48 154.21 115.29 167.20 107.67 175.54
  A 1.23 1.23 0.0 0 0 107.48 176.91
  L 116.70 195.68
  Z
  M 92.09 153.46
  L 91.77 168.70
  A 0.12 0.12 0.0 0 0 91.89 168.82
  L 91.96 168.82
  A 7.70 7.47 -88.8 0 0 99.59 161.28
  L 99.59 161.20
  A 7.70 7.47 -88.8 0 0 92.28 153.35
  L 92.21 153.34
  A 0.12 0.12 0.0 0 0 92.09 153.46
  Z"
/>
<path fill="#59595c" d="
  M 202.29 146.57
  A 0.37 0.37 0.0 0 0 201.58 146.48
  L 181.88 196.88
  A 0.67 0.66 -81.8 0 1 181.33 197.30
  Q 179.52 197.51 177.95 197.23
  A 0.91 0.89 83.4 0 1 177.26 196.67
  L 155.29 140.77
  A 0.35 0.34 -10.7 0 1 155.62 140.30
  L 168.58 140.30
  A 2.24 2.22 79.1 0 1 170.65 141.71
  L 179.03 163.05
  A 0.58 0.58 0.0 0 0 180.11 163.05
  L 189.01 140.26
  A 0.76 0.75 10.9 0 1 189.71 139.79
  L 235.10 139.79
  A 0.58 0.57 0.0 0 1 235.68 140.36
  L 235.68 152.67
  A 0.48 0.48 0.0 0 1 235.20 153.15
  L 216.78 153.15
  A 0.77 0.77 0.0 0 0 216.01 153.92
  L 216.01 160.53
  A 0.76 0.76 0.0 0 0 216.77 161.29
  L 235.10 161.29
  A 0.57 0.57 0.0 0 1 235.67 161.86
  L 235.67 174.17
  A 0.47 0.46 -90.0 0 1 235.21 174.64
  L 216.64 174.64
  A 0.54 0.54 0.0 0 0 216.10 175.18
  L 216.10 182.43
  A 0.52 0.52 0.0 0 0 216.62 182.95
  L 235.09 182.95
  A 0.60 0.59 90.0 0 1 235.68 183.55
  L 235.68 195.84
  A 0.51 0.51 0.0 0 1 235.17 196.35
  L 218.14 196.35
  A 1.65 1.64 -17.4 0 1 216.79 195.65
  C 209.57 185.42 205.46 173.14 203.32 160.75
  C 202.52 156.07 202.76 150.56 202.29 146.57
  Z"
/>
<path fill="#59595c" d="
  M 253.14 170.81
  A 0.25 0.25 0.0 0 0 252.69 170.96
  L 252.69 195.55
  A 0.53 0.52 -90.0 0 1 252.17 196.08
  L 240.56 196.08
  A 0.51 0.51 0.0 0 1 240.05 195.57
  L 240.05 140.39
  A 0.62 0.62 0.0 0 1 240.67 139.77
  L 247.42 139.77
  A 2.15 2.13 65.6 0 1 248.84 140.31
  Q 257.03 147.61 262.72 155.31
  Q 263.51 156.38 263.78 157.48
  A 0.54 0.54 0.0 0 1 262.95 158.05
  Q 260.57 156.38 259.22 155.66
  A 0.24 0.24 0.0 0 0 258.93 156.02
  L 266.68 165.28
  A 0.23 0.22 25.5 0 0 267.08 165.14
  L 267.08 140.35
  A 0.58 0.58 0.0 0 1 267.66 139.77
  L 278.71 139.77
  A 0.65 0.64 90.0 0 1 279.35 140.42
  L 279.35 195.49
  A 0.60 0.59 90.0 0 1 278.76 196.09
  L 272.47 196.09
  A 2.11 2.10 72.2 0 1 270.76 195.21
  L 253.14 170.81
  Z"
/>
<path fill="#ffffff" d="
  M 92.09 153.46
  A 0.12 0.12 0.0 0 1 92.21 153.34
  L 92.28 153.35
  A 7.70 7.47 -88.8 0 1 99.59 161.20
  L 99.59 161.28
  A 7.70 7.47 -88.8 0 1 91.96 168.82
  L 91.89 168.82
  A 0.12 0.12 0.0 0 1 91.77 168.70
  L 92.09 153.46
  Z"
/>
<path fill="#ffffff" d="
  M 135.61 168.20
  A 0.67 0.67 0.0 0 1 134.94 167.53
  L 134.94 157.38
  A 3.88 3.15 -90.0 0 1 138.09 153.50
  L 138.63 153.50
  A 3.88 3.15 -90.0 0 1 141.78 157.38
  L 141.78 167.53
  A 0.67 0.67 0.0 0 1 141.11 168.20
  L 135.61 168.20
  Z"
/>
<path fill="#59595c" d="
  M 278.21 241.44
  A 0.36 0.36 0.0 0 1 277.53 241.35
  Q 277.14 239.25 276.20 238.43
  A 0.27 0.26 -69.3 0 0 275.76 238.63
  L 275.76 246.58
  A 0.66 0.66 0.0 0 1 274.68 247.08
  C 272.06 244.85 271.43 242.29 270.24 239.26
  A 0.21 0.21 0.0 0 0 269.84 239.34
  L 269.84 240.91
  A 0.47 0.47 0.0 0 1 269.05 241.26
  Q 266.25 238.71 265.86 234.28
  A 1.16 1.16 0.0 0 0 265.62 233.67
  Q 265.13 233.02 263.71 233.55
  A 0.72 0.71 65.1 0 1 262.84 233.23
  Q 261.58 230.98 261.64 229.74
  Q 261.68 228.81 261.59 228.66
  A 0.21 0.21 0.0 0 0 261.20 228.78
  Q 261.21 229.16 261.18 229.20
  A 0.77 0.76 -41.6 0 1 259.89 229.13
  Q 255.36 221.02 252.85 213.88
  Q 252.32 212.36 250.10 209.68
  Q 250.06 209.64 250.02 209.60
  L 242.99 203.59
  A 0.37 0.36 -80.9 0 0 242.42 204.01
  L 242.93 205.31
  A 2.70 2.69 -25.1 0 1 241.71 208.66
  Q 236.55 211.49 234.92 216.24
  A 0.25 0.25 0.0 0 1 234.45 216.25
  L 234.01 215.13
  A 1.32 1.30 49.1 0 1 234.08 214.03
  L 235.76 211.00
  A 0.34 0.34 0.0 0 0 235.36 210.51
  Q 231.16 211.85 228.57 215.03
  A 0.42 0.42 0.0 0 1 227.85 214.64
  Q 228.68 212.08 230.86 210.41
  A 0.41 0.41 0.0 0 0 230.55 209.68
  Q 227.31 210.14 224.57 212.39
  A 0.30 0.30 0.0 0 1 224.09 212.09
  C 225.01 208.38 229.31 207.99 232.45 207.35
  A 4.97 4.76 -65.4 0 0 233.96 206.75
  Q 237.46 204.62 239.74 200.88
  A 0.74 0.68 -31.6 0 0 239.84 200.52
  L 239.84 199.83
  A 0.37 0.37 0.0 0 1 240.21 199.46
  L 273.32 199.46
  A 1.40 1.39 76.3 0 1 274.56 200.22
  Q 278.06 207.10 281.07 213.43
  C 282.44 216.31 284.05 221.81 282.10 224.68
  A 0.53 0.53 0.0 0 1 281.21 224.65
  Q 280.07 222.71 278.73 221.88
  A 0.36 0.36 0.0 0 0 278.26 222.40
  C 280.72 225.66 283.12 230.45 281.87 234.57
  A 0.46 0.46 0.0 0 1 281.01 234.62
  Q 280.19 232.71 279.06 231.45
  A 0.25 0.25 0.0 0 0 278.62 231.64
  C 278.97 235.31 280.01 237.49 278.21 241.44
  Z"
/>
<path fill="#59595c" d="
  M 222.51 209.42
  A 0.39 0.38 63.0 0 1 221.81 209.19
  Q 221.87 206.23 223.61 204.05
  A 0.37 0.37 0.0 0 0 223.18 203.47
  Q 219.47 205.04 216.76 207.98
  A 0.48 0.48 0.0 0 1 216.04 207.96
  L 215.81 207.68
  A 0.51 0.51 0.0 0 1 215.81 207.02
  L 218.90 203.41
  A 0.41 0.41 0.0 0 0 218.50 202.75
  Q 215.06 203.52 212.70 205.70
  A 0.49 0.48 -7.6 0 1 211.94 205.12
  Q 213.58 201.93 217.47 201.21
  Q 221.38 200.49 223.82 199.71
  A 1.28 1.10 -49.2 0 1 224.16 199.66
  L 230.72 199.66
  A 0.51 0.51 0.0 0 1 231.05 200.57
  L 225.82 204.94
  A 5.03 4.69 -4.8 0 0 224.94 205.91
  L 222.51 209.42
  Z"
/>
<circle fill="#59595c" cx="139.34" cy="219.00" r="1.52"/>
<rect fill="#59595c" x="151.81" y="218.39" width="2.54" height="13.10" rx="0.97"/>
<path fill="#59595c" d="
  M 135.61 231.68
  Q 132.48 232.01 132.45 229.02
  Q 132.44 228.23 132.40 219.51
  A 1.12 1.12 0.0 0 1 133.52 218.39
  L 134.24 218.39
  A 0.75 0.75 0.0 0 1 134.99 219.14
  L 134.99 228.26
  A 1.42 1.33 34.3 0 0 135.12 228.84
  L 136.09 230.81
  A 0.61 0.60 -16.2 0 1 135.61 231.68
  Z"
/>
<path fill="#59595c" d="
  M 124.56 225.50
  C 124.59 228.43 125.75 230.82 129.21 229.05
  A 0.81 0.81 0.0 0 1 130.35 229.54
  L 130.43 229.79
  A 1.02 1.02 0.0 0 1 129.81 231.03
  C 125.06 232.79 121.70 230.36 121.65 225.53
  C 121.60 220.70 124.89 218.20 129.69 219.85
  A 1.02 1.02 0.0 0 1 130.33 221.08
  L 130.26 221.33
  A 0.81 0.81 0.0 0 1 129.13 221.84
  C 125.63 220.15 124.53 222.57 124.56 225.50
  Z"
/>
<path fill="#59595c" d="
  M 82.04 219.46
  Q 82.94 219.46 83.43 220.88
  Q 85.15 225.87 86.57 230.81
  A 0.55 0.55 0.0 0 1 86.07 231.52
  L 85.76 231.54
  A 0.42 0.42 0.0 0 1 85.34 231.27
  L 84.53 229.22
  A 1.21 1.21 0.0 0 0 83.44 228.45
  Q 83.08 228.43 82.03 228.43
  Q 80.98 228.43 80.63 228.44
  A 1.21 1.21 0.0 0 0 79.54 229.22
  L 78.72 231.27
  A 0.42 0.42 0.0 0 1 78.30 231.54
  L 77.99 231.52
  A 0.55 0.55 0.0 0 1 77.49 230.81
  Q 78.92 225.87 80.64 220.88
  Q 81.13 219.46 82.04 219.46
  Z
  M 81.99 227.13
  Q 82.91 227.12 83.36 226.99
  A 0.52 0.52 0.0 0 0 83.71 226.33
  Q 82.30 221.87 81.99 221.87
  Q 81.69 221.87 80.28 226.33
  A 0.52 0.52 0.0 0 0 80.63 226.99
  Q 81.08 227.13 81.99 227.13
  Z"
/>
<path fill="#59595c" d="
  M 97.04 219.54
  Q 98.98 219.49 100.81 219.60
  A 0.95 0.95 0.0 0 1 101.70 220.61
  L 101.70 220.64
  A 1.09 1.09 0.0 0 1 100.66 221.63
  L 99.06 221.71
  A 0.66 0.65 -1.4 0 0 98.43 222.36
  L 98.43 230.69
  A 0.19 0.01 -88.0 0 0 98.43 230.73
  Q 98.36 231.55 97.08 231.56
  Q 95.79 231.56 95.72 230.73
  A 0.19 0.01 87.7 0 0 95.72 230.70
  L 95.67 222.37
  A 0.66 0.65 1.1 0 0 95.04 221.72
  L 93.44 221.65
  A 1.09 1.09 0.0 0 1 92.39 220.67
  L 92.39 220.64
  A 0.95 0.95 0.0 0 1 93.28 219.62
  Q 95.10 219.50 97.04 219.54
  Z"
/>
<path fill="#ffffff" d="
  M 81.99 221.87
  Q 82.30 221.87 83.71 226.33
  A 0.52 0.52 0.0 0 1 83.36 226.99
  Q 82.91 227.12 81.99 227.13
  Q 81.08 227.13 80.63 226.99
  A 0.52 0.52 0.0 0 1 80.28 226.33
  Q 81.69 221.87 81.99 221.87
  Z"
/>
<path fill="#59595c" d="
  M 159.78 230.54
  A 0.58 0.58 0.0 0 1 159.31 231.46
  L 158.55 231.46
  A 2.23 2.22 77.0 0 1 156.55 230.21
  L 154.87 226.79
  A 0.88 0.85 -43.1 0 1 154.91 225.94
  C 155.91 224.30 157.07 221.96 159.17 222.12
  A 0.42 0.42 0.0 0 1 159.51 222.77
  L 157.63 225.62
  A 1.77 1.76 43.7 0 0 157.68 227.63
  L 159.78 230.54
  Z"
/>
<path fill="#59595c" d="
  M 187.9828 221.9811
  A 4.91 4.20 -88.8 0 1 192.0791 226.9780
  A 4.91 4.20 -88.8 0 1 187.7772 231.7989
  A 4.91 4.20 -88.8 0 1 183.6809 226.8020
  A 4.91 4.20 -88.8 0 1 187.9828 221.9811
  Z
  M 187.9079 223.3302
  A 3.62 2.43 -89.4 0 0 185.4401 226.9246
  A 3.62 2.43 -89.4 0 0 187.8321 230.5698
  A 3.62 2.43 -89.4 0 0 190.2999 226.9754
  A 3.62 2.43 -89.4 0 0 187.9079 223.3302
  Z"
/>
<path fill="#59595c" d="
  M 195.39 222.37
  Q 196.60 222.92 198.07 222.17
  A 1.57 1.57 0.0 0 1 199.77 222.33
  Q 201.09 223.37 202.30 222.55
  C 204.32 221.18 206.21 222.58 206.31 224.75
  Q 206.49 228.31 206.22 231.03
  A 0.54 0.53 -87.0 0 1 205.69 231.51
  L 205.26 231.51
  A 0.40 0.39 0.0 0 1 204.86 231.12
  L 204.81 224.77
  A 1.32 1.32 0.0 0 0 203.14 223.50
  L 203.09 223.51
  A 2.02 2.02 0.0 0 0 201.47 225.40
  L 201.24 231.00
  A 0.63 0.63 0.0 0 1 200.44 231.57
  L 200.20 231.48
  A 0.85 0.83 10.8 0 1 199.66 230.70
  L 199.60 224.76
  A 1.31 1.31 0.0 0 0 198.06 223.48
  L 198.01 223.49
  A 1.79 1.78 86.6 0 0 196.49 225.21
  L 196.35 230.95
  A 0.68 0.67 7.3 0 1 195.52 231.59
  L 195.49 231.59
  A 1.14 1.13 6.8 0 1 194.62 230.49
  L 194.65 222.84
  A 0.52 0.52 0.0 0 1 195.39 222.37
  Z"
/>
<path fill="#59595c" d="
  M 211.28 231.96
  Q 210.96 232.78 211.22 234.19
  A 0.64 0.64 0.0 0 1 210.88 234.88
  Q 210.53 235.05 210.30 235.00
  A 0.60 0.60 0.0 0 1 209.84 234.43
  L 209.61 223.26
  A 0.76 0.75 5.7 0 1 210.53 222.51
  C 211.96 222.83 213.10 221.73 214.52 222.16
  Q 216.22 222.68 216.62 223.81
  C 217.80 227.11 217.37 232.66 212.08 231.53
  A 0.70 0.69 -72.9 0 0 211.28 231.96
  Z
  M 215.4739 225.4883
  A 1.96 1.96 0.0 0 0 213.5871 223.4578
  L 213.2873 223.4468
  A 1.96 1.96 0.0 0 0 211.2567 225.3337
  L 211.1461 228.3517
  A 1.96 1.96 0.0 0 0 213.0329 230.3822
  L 213.3327 230.3932
  A 1.96 1.96 0.0 0 0 215.3633 228.5063
  L 215.4739 225.4883
  Z"
/>
<path fill="#59595c" d="
  M 102.85 224.22
  A 0.65 0.65 0.0 0 1 102.07 223.51
  L 102.08 223.42
  A 1.13 1.12 -2.1 0 1 103.00 222.44
  Q 105.23 222.03 107.19 222.38
  A 2.27 2.26 2.5 0 1 109.06 224.41
  L 109.60 230.69
  A 0.74 0.74 0.0 0 1 108.49 231.40
  Q 107.30 230.72 104.62 231.53
  A 2.42 2.31 -25.3 0 1 101.97 230.65
  Q 100.64 228.71 102.25 226.69
  A 1.42 1.38 -74.6 0 1 103.08 226.20
  L 105.96 225.66
  A 0.77 0.77 0.0 0 0 105.98 224.15
  Q 104.64 223.86 102.85 224.22
  Z
  M 106.6483 227.7626
  A 1.57 1.12 -30.1 0 0 104.7283 227.5810
  A 1.57 1.12 -30.1 0 0 103.9317 229.3374
  A 1.57 1.12 -30.1 0 0 105.8517 229.5190
  A 1.57 1.12 -30.1 0 0 106.6483 227.7626
  Z"
/>
<path fill="#59595c" d="
  M 114.24 232.01
  L 114.24 234.01
  A 1.24 1.23 90.0 0 1 113.01 235.25
  L 112.66 235.25
  A 1.01 1.01 0.0 0 1 111.65 234.24
  L 111.65 222.91
  A 0.57 0.57 0.0 0 1 112.31 222.35
  Q 113.62 222.54 114.25 222.56
  C 116.13 222.61 118.24 221.33 119.54 223.60
  C 120.73 225.68 120.51 230.58 117.71 231.50
  C 116.56 231.87 115.96 231.51 115.05 231.34
  A 0.69 0.68 5.3 0 0 114.24 232.01
  Z
  M 115.9587 223.9649
  A 2.93 1.68 -86.7 0 0 114.1128 226.7933
  A 2.93 1.68 -86.7 0 0 115.6213 229.8151
  A 2.93 1.68 -86.7 0 0 117.4672 226.9867
  A 2.93 1.68 -86.7 0 0 115.9587 223.9649
  Z"
/>
<rect fill="#59595c" x="-1.27" y="-4.56" transform="translate(139.36,226.87) rotate(0.3)" width="2.54" height="9.12" rx="0.75"/>
<path fill="#59595c" d="
  M 145.29 226.86
  Q 145.29 227.17 145.35 228.35
  A 1.39 1.38 86.0 0 0 146.85 229.65
  L 148.80 229.48
  A 0.85 0.85 0.0 0 1 149.16 231.13
  C 145.43 232.50 142.57 230.68 142.62 226.82
  C 142.68 222.96 145.59 221.23 149.28 222.70
  A 0.85 0.85 0.0 0 1 148.87 224.34
  L 146.93 224.12
  A 1.39 1.38 -84.4 0 0 145.39 225.38
  Q 145.30 226.55 145.29 226.86
  Z"
/>
<path fill="#59595c" d="
  M 161.73 231.03
  A 0.58 0.57 17.0 0 1 161.35 230.32
  L 161.50 229.81
  A 0.87 0.87 0.0 0 1 162.81 229.33
  Q 164.10 230.17 165.96 229.62
  A 0.61 0.61 0.0 0 0 166.01 228.46
  C 163.89 227.63 160.87 226.57 161.41 224.36
  C 162.03 221.81 165.80 222.00 167.68 222.64
  A 0.84 0.84 0.0 0 1 168.18 223.77
  L 168.09 223.99
  A 0.83 0.82 -64.0 0 1 166.95 224.39
  Q 165.60 223.68 164.28 224.00
  A 0.66 0.66 0.0 0 0 164.18 225.24
  C 165.26 225.70 167.94 225.98 168.51 227.67
  C 169.94 231.92 164.32 231.86 161.73 231.03
  Z"
/>
<path fill="#59595c" d="
  M 177.21 226.91
  C 177.21 229.53 178.33 231.60 181.32 229.94
  A 0.47 0.46 -32.4 0 1 181.92 230.07
  L 182.17 230.41
  A 0.40 0.40 0.0 0 1 182.01 231.01
  C 178.29 232.69 175.54 230.75 175.55 226.90
  C 175.56 223.06 178.33 221.14 182.03 222.84
  A 0.40 0.40 0.0 0 1 182.19 223.44
  L 181.94 223.78
  A 0.47 0.46 32.7 0 1 181.34 223.91
  C 178.36 222.23 177.22 224.29 177.21 226.91
  Z"
/>
<path fill="#59595c" d="
  M 226.46 231.49
  C 225.86 231.47 224.99 230.78 224.19 231.18
  C 219.86 233.36 217.01 227.84 221.57 225.93
  A 0.78 0.71 29.1 0 1 221.78 225.88
  L 224.28 225.66
  A 0.52 0.52 0.0 0 0 224.76 225.09
  L 224.74 224.81
  A 1.55 1.54 -4.8 0 0 223.07 223.41
  L 220.53 223.63
  A 0.46 0.46 0.0 0 1 220.29 222.75
  C 222.93 221.49 226.55 221.83 226.29 225.77
  Q 226.05 229.31 226.81 230.97
  A 0.37 0.37 0.0 0 1 226.46 231.49
  Z
  M 224.6955 227.5514
  A 2.12 1.71 -34.1 0 0 221.9813 227.3240
  A 2.12 1.71 -34.1 0 0 221.1845 229.9286
  A 2.12 1.71 -34.1 0 0 223.8987 230.1560
  A 2.12 1.71 -34.1 0 0 224.6955 227.5514
  Z"
/>
<path fill="#59595c" d="
  M 230.36 222.47
  L 231.26 222.82
  A 0.73 0.70 -46.1 0 0 231.80 222.80
  C 233.85 221.88 236.24 221.73 236.46 224.47
  Q 236.62 226.44 236.47 230.97
  A 0.53 0.53 0.0 0 1 235.94 231.48
  L 235.53 231.48
  A 0.45 0.45 0.0 0 1 235.08 231.03
  L 235.11 224.82
  A 1.52 1.51 -8.6 0 0 233.14 223.37
  L 233.00 223.41
  A 2.62 2.62 0.0 0 0 231.14 225.89
  L 231.10 230.88
  A 0.57 0.57 0.0 0 1 230.53 231.45
  L 230.26 231.45
  A 0.56 0.56 0.0 0 1 229.70 230.89
  L 229.70 222.92
  A 0.48 0.48 0.0 0 1 230.36 222.47
  Z"
/>
<path fill="#59595c" d="
  M 242.25 229.45
  A 0.30 0.30 0.0 0 0 242.82 229.45
  L 244.80 222.75
  A 0.60 0.60 0.0 0 1 245.55 222.34
  L 245.98 222.47
  A 0.50 0.49 17.7 0 1 246.31 223.10
  Q 243.90 230.50 243.57 231.55
  Q 242.64 234.44 239.72 235.07
  A 0.54 0.54 0.0 0 1 239.08 234.65
  L 239.07 234.59
  A 0.62 0.62 0.0 0 1 239.52 233.86
  Q 241.59 233.31 241.71 232.03
  A 0.93 0.83 41.4 0 0 241.67 231.71
  L 238.62 223.10
  A 0.60 0.60 0.0 0 1 239.36 222.32
  L 239.79 222.44
  A 0.89 0.86 0.9 0 1 240.38 223.03
  L 242.25 229.45
  Z"
/>
<ellipse fill="#ffffff" cx="0.00" cy="0.00" transform="translate(187.87,226.95) rotate(-89.4)" rx="3.62" ry="2.43"/>
<rect fill="#ffffff" x="-2.11" y="-3.47" transform="translate(213.31,226.92) rotate(2.1)" width="4.22" height="6.94" rx="1.96"/>
<ellipse fill="#ffffff" cx="0.00" cy="0.00" transform="translate(115.79,226.89) rotate(-86.7)" rx="2.93" ry="1.68"/>
<ellipse fill="#ffffff" cx="0.00" cy="0.00" transform="translate(222.94,228.74) rotate(-34.1)" rx="2.12" ry="1.71"/>
<ellipse fill="#ffffff" cx="0.00" cy="0.00" transform="translate(105.29,228.55) rotate(-30.1)" rx="1.57" ry="1.12"/>
</svg>
