<?xml version="1.0" encoding="UTF-8" standalone="no"?>
<!DOCTYPE svg PUBLIC "-//W3C//DTD SVG 1.1//EN" "http://www.w3.org/Graphics/SVG/1.1/DTD/svg11.dtd">
<svg xmlns="http://www.w3.org/2000/svg" version="1.1" viewBox="0.00 0.00 400.00 400.00">
<g stroke-width="2.00" fill="none" stroke-linecap="butt">
<path stroke="#808080" vector-effect="non-scaling-stroke" d="
  M 302.99 316.90
  L 256.35 226.66
  A 0.28 0.28 0.0 0 1 256.49 226.27
  C 278.94 216.27 292.28 195.24 295.57 171.29
  C 296.38 165.43 296.23 158.56 295.98 153.04
  Q 295.13 134.27 285.68 118.52
  C 273.86 98.81 251.97 87.39 229.66 84.40
  Q 218.20 82.87 214.24 82.86
  Q 162.99 82.79 105.67 82.84
  A 0.54 0.54 0.0 0 0 105.13 83.38
  L 105.13 316.62
  A 0.55 0.55 0.0 0 0 105.68 317.17
  L 164.28 317.17
  A 0.57 0.57 0.0 0 0 164.85 316.60
  L 164.85 235.63
  A 0.49 0.49 0.0 0 1 165.34 235.14
  L 195.12 235.14
  A 0.98 0.97 76.6 0 1 195.99 235.68
  L 235.71 316.58
  A 1.06 1.06 0.0 0 0 236.66 317.17
  L 302.82 317.17
  A 0.19 0.18 -13.4 0 0 302.99 316.90"
/>
<path stroke="#808080" vector-effect="non-scaling-stroke" d="
  M 164.85 128.23
  L 164.85 192.73
  A 0.28 0.28 0.0 0 0 165.13 193.01
  L 203.50 193.01
  A 31.67 30.42 0.0 0 0 235.17 162.59
  L 235.17 158.37
  A 31.67 30.42 -0.0 0 0 203.50 127.95
  L 165.13 127.95
  A 0.28 0.28 0.0 0 0 164.85 128.23"
/>
</g>
<path fill="#000000" d="
  M 400.00 0.00
  L 400.00 400.00
  L 0.00 400.00
  L 0.00 0.00
  L 400.00 0.00
  Z
  M 302.99 316.90
  L 256.35 226.66
  A 0.28 0.28 0.0 0 1 256.49 226.27
  C 278.94 216.27 292.28 195.24 295.57 171.29
  C 296.38 165.43 296.23 158.56 295.98 153.04
  Q 295.13 134.27 285.68 118.52
  C 273.86 98.81 251.97 87.39 229.66 84.40
  Q 218.20 82.87 214.24 82.86
  Q 162.99 82.79 105.67 82.84
  A 0.54 0.54 0.0 0 0 105.13 83.38
  L 105.13 316.62
  A 0.55 0.55 0.0 0 0 105.68 317.17
  L 164.28 317.17
  A 0.57 0.57 0.0 0 0 164.85 316.60
  L 164.85 235.63
  A 0.49 0.49 0.0 0 1 165.34 235.14
  L 195.12 235.14
  A 0.98 0.97 76.6 0 1 195.99 235.68
  L 235.71 316.58
  A 1.06 1.06 0.0 0 0 236.66 317.17
  L 302.82 317.17
  A 0.19 0.18 -13.4 0 0 302.99 316.90
  Z"
/>
<path fill="#ffffff" d="
  M 302.99 316.90
  A 0.19 0.18 -13.4 0 1 302.82 317.17
  L 236.66 317.17
  A 1.06 1.06 0.0 0 1 235.71 316.58
  L 195.99 235.68
  A 0.98 0.97 76.6 0 0 195.12 235.14
  L 165.34 235.14
  A 0.49 0.49 0.0 0 0 164.85 235.63
  L 164.85 316.60
  A 0.57 0.57 0.0 0 1 164.28 317.17
  L 105.68 317.17
  A 0.55 0.55 0.0 0 1 105.13 316.62
  L 105.13 83.38
  A 0.54 0.54 0.0 0 1 105.67 82.84
  Q 162.99 82.79 214.24 82.86
  Q 218.20 82.87 229.66 84.40
  C 251.97 87.39 273.86 98.81 285.68 118.52
  Q 295.13 134.27 295.98 153.04
  C 296.23 158.56 296.38 165.43 295.57 171.29
  C 292.28 195.24 278.94 216.27 256.49 226.27
  A 0.28 0.28 0.0 0 0 256.35 226.66
  L 302.99 316.90
  Z
  M 164.85 128.23
  L 164.85 192.73
  A 0.28 0.28 0.0 0 0 165.13 193.01
  L 203.50 193.01
  A 31.67 30.42 0.0 0 0 235.17 162.59
  L 235.17 158.37
  A 31.67 30.42 -0.0 0 0 203.50 127.95
  L 165.13 127.95
  A 0.28 0.28 0.0 0 0 164.85 128.23
  Z"
/>
<path fill="#000000" d="
  M 164.85 128.23
  A 0.28 0.28 0.0 0 1 165.13 127.95
  L 203.50 127.95
  A 31.67 30.42 0.0 0 1 235.17 158.37
  L 235.17 162.59
  A 31.67 30.42 0.0 0 1 203.50 193.01
  L 165.13 193.01
  A 0.28 0.28 0.0 0 1 164.85 192.73
  L 164.85 128.23
  Z"
/>
</svg>
