<?xml version="1.0" encoding="UTF-8" standalone="no"?>
<!DOCTYPE svg PUBLIC "-//W3C//DTD SVG 1.1//EN" "http://www.w3.org/Graphics/SVG/1.1/DTD/svg11.dtd">
<svg xmlns="http://www.w3.org/2000/svg" version="1.1" viewBox="0.00 0.00 400.00 400.00">
<g stroke-width="2.00" fill="none" stroke-linecap="butt">
<path stroke="#6bc9e7" vector-effect="non-scaling-stroke" d="
  M 81.46 0.00
  Q 88.26 13.31 95.81 21.06
  C 104.56 30.03 114.36 40.15 123.52 51.69
  Q 128.22 57.61 139.12 70.74
  Q 146.80 79.99 154.48 93.26
  A 0.92 0.91 75.2 0 0 155.25 93.71
  L 161.29 93.89"
/>
<path stroke="#b6e6f3" vector-effect="non-scaling-stroke" d="
  M 161.29 93.89
  L 108.26 93.97
  A 0.16 0.15 0.0 0 0 108.10 94.12
  Q 107.90 115.34 111.93 134.30
  Q 114.98 148.64 122.18 159.35
  C 132.66 174.93 149.32 181.65 168.01 184.30
  C 185.10 186.72 200.72 186.54 219.74 186.73
  C 242.85 186.95 265.66 191.51 281.58 209.18
  C 290.67 219.27 296.63 234.24 299.56 247.74
  Q 302.99 263.57 303.77 282.37
  A 0.20 0.20 0.0 0 0 303.98 282.56
  L 303.99 282.56
  A 0.16 0.16 0.0 0 0 304.15 282.40
  L 303.79 198.29"
/>
<path stroke="#6bc9e7" vector-effect="non-scaling-stroke" d="
  M 303.79 198.29
  L 304.13 206.50
  A 1.23 1.18 -68.7 0 0 304.45 207.27
  Q 312.44 215.84 322.55 224.69
  C 327.94 229.42 333.95 235.78 337.95 239.74
  Q 341.85 243.59 353.49 256.54
  Q 360.88 264.75 370.08 273.52
  Q 371.11 274.51 386.65 290.45
  C 389.34 293.21 393.14 296.34 396.92 293.49
  Q 397.82 292.81 400.00 290.47"
/>
<path stroke="#70d2e6" vector-effect="non-scaling-stroke" d="
  M 308.24 400.00
  C 314.97 397.50 325.84 394.76 322.64 384.78
  C 319.85 376.06 311.95 367.40 305.16 361.19
  Q 304.68 360.75 278.84 337.61
  C 270.49 330.13 262.59 323.94 255.86 317.65
  C 252.40 314.41 246.31 307.63 252.54 304.32
  Q 256.92 302.00 264.78 300.71"
/>
<path stroke="#b6e6f3" vector-effect="non-scaling-stroke" d="
  M 264.78 300.71
  L 285.64 300.72
  A 0.68 0.68 0.0 0 0 286.32 300.04
  Q 286.38 278.49 282.28 259.77
  C 277.30 237.03 264.86 220.54 242.29 213.73
  C 222.48 207.76 199.30 207.84 177.18 207.76
  C 153.26 207.67 126.92 203.46 111.14 183.34
  C 95.48 163.35 91.77 137.36 90.61 112.49
  Q 90.60 112.38 90.40 112.29
  A 0.10 0.10 0.0 0 0 90.27 112.38
  L 90.04 184.51"
/>
<path stroke="#70d2e6" vector-effect="non-scaling-stroke" d="
  M 90.04 184.51
  C 82.02 177.91 73.00 169.36 67.28 164.03
  C 57.41 154.83 47.09 147.01 37.34 137.78
  Q 27.33 128.33 26.13 127.08
  Q 14.76 115.33 0.00 108.48"
/>
<path stroke="#66c1e8" vector-effect="non-scaling-stroke" d="
  M 212.89 0.00
  Q 216.13 16.44 227.31 28.54
  C 234.22 36.00 243.24 44.34 250.73 52.32
  Q 258.81 60.92 269.84 71.17
  Q 276.19 77.07 281.08 83.49
  C 286.15 90.13 291.85 100.20 297.60 107.51
  Q 302.46 113.67 314.31 125.53
  C 339.87 151.11 361.65 173.10 386.06 194.87
  Q 392.12 200.27 396.72 209.04
  Q 398.33 212.10 400.00 215.15"
/>
<path stroke="#b4e2f3" vector-effect="non-scaling-stroke" d="
  M 303.79 198.29
  C 304.25 178.09 303.87 159.01 295.37 141.07
  C 281.70 112.22 251.77 100.51 221.85 96.44
  Q 207.04 94.43 199.25 94.15
  Q 186.38 93.69 161.29 93.89"
/>
<path stroke="#69c6e7" vector-effect="non-scaling-stroke" d="
  M 400.00 11.58
  L 400.00 22.87"
/>
<path stroke="#69c6e7" vector-effect="non-scaling-stroke" d="
  M 400.00 69.57
  L 400.00 99.12"
/>
<path stroke="#b9ebf2" vector-effect="non-scaling-stroke" d="
  M 90.04 184.51
  Q 90.11 199.56 90.20 214.75
  C 90.36 244.66 102.59 270.84 129.57 284.94
  Q 143.97 292.47 159.34 295.67
  Q 182.19 300.44 206.75 300.50
  Q 235.68 300.57 264.78 300.71"
/>
<path stroke="#75dbe5" vector-effect="non-scaling-stroke" d="
  M 176.11 400.00
  C 170.91 384.44 161.87 372.54 151.34 361.67
  Q 131.37 341.07 99.98 310.05
  Q 62.75 273.25 19.42 229.34
  Q 11.20 221.01 0.00 212.58"
/>
</g>
<path fill="#6dcde6" d="
  M 81.46 0.00
  Q 88.26 13.31 95.81 21.06
  C 104.56 30.03 114.36 40.15 123.52 51.69
  Q 128.22 57.61 139.12 70.74
  Q 146.80 79.99 154.48 93.26
  A 0.92 0.91 75.2 0 0 155.25 93.71
  L 161.29 93.89
  L 108.26 93.97
  A 0.16 0.15 0.0 0 0 108.10 94.12
  Q 107.90 115.34 111.93 134.30
  Q 114.98 148.64 122.18 159.35
  C 132.66 174.93 149.32 181.65 168.01 184.30
  C 185.10 186.72 200.72 186.54 219.74 186.73
  C 242.85 186.95 265.66 191.51 281.58 209.18
  C 290.67 219.27 296.63 234.24 299.56 247.74
  Q 302.99 263.57 303.77 282.37
  A 0.20 0.20 0.0 0 0 303.98 282.56
  L 303.99 282.56
  A 0.16 0.16 0.0 0 0 304.15 282.40
  L 303.79 198.29
  L 304.13 206.50
  A 1.23 1.18 -68.7 0 0 304.45 207.27
  Q 312.44 215.84 322.55 224.69
  C 327.94 229.42 333.95 235.78 337.95 239.74
  Q 341.85 243.59 353.49 256.54
  Q 360.88 264.75 370.08 273.52
  Q 371.11 274.51 386.65 290.45
  C 389.34 293.21 393.14 296.34 396.92 293.49
  Q 397.82 292.81 400.00 290.47
  L 400.00 400.00
  L 308.24 400.00
  C 314.97 397.50 325.84 394.76 322.64 384.78
  C 319.85 376.06 311.95 367.40 305.16 361.19
  Q 304.68 360.75 278.84 337.61
  C 270.49 330.13 262.59 323.94 255.86 317.65
  C 252.40 314.41 246.31 307.63 252.54 304.32
  Q 256.92 302.00 264.78 300.71
  L 285.64 300.72
  A 0.68 0.68 0.0 0 0 286.32 300.04
  Q 286.38 278.49 282.28 259.77
  C 277.30 237.03 264.86 220.54 242.29 213.73
  C 222.48 207.76 199.30 207.84 177.18 207.76
  C 153.26 207.67 126.92 203.46 111.14 183.34
  C 95.48 163.35 91.77 137.36 90.61 112.49
  Q 90.60 112.38 90.40 112.29
  A 0.10 0.10 0.0 0 0 90.27 112.38
  L 90.04 184.51
  C 82.02 177.91 73.00 169.36 67.28 164.03
  C 57.41 154.83 47.09 147.01 37.34 137.78
  Q 27.33 128.33 26.13 127.08
  Q 14.76 115.33 0.00 108.48
  L 0.00 0.00
  L 81.46 0.00
  Z"
/>
<path fill="#68c4e7" d="
  M 212.89 0.00
  Q 216.13 16.44 227.31 28.54
  C 234.22 36.00 243.24 44.34 250.73 52.32
  Q 258.81 60.92 269.84 71.17
  Q 276.19 77.07 281.08 83.49
  C 286.15 90.13 291.85 100.20 297.60 107.51
  Q 302.46 113.67 314.31 125.53
  C 339.87 151.11 361.65 173.10 386.06 194.87
  Q 392.12 200.27 396.72 209.04
  Q 398.33 212.10 400.00 215.15
  L 400.00 290.47
  Q 397.82 292.81 396.92 293.49
  C 393.14 296.34 389.34 293.21 386.65 290.45
  Q 371.11 274.51 370.08 273.52
  Q 360.88 264.75 353.49 256.54
  Q 341.85 243.59 337.95 239.74
  C 333.95 235.78 327.94 229.42 322.55 224.69
  Q 312.44 215.84 304.45 207.27
  A 1.23 1.18 -68.7 0 1 304.13 206.50
  L 303.79 198.29
  C 304.25 178.09 303.87 159.01 295.37 141.07
  C 281.70 112.22 251.77 100.51 221.85 96.44
  Q 207.04 94.43 199.25 94.15
  Q 186.38 93.69 161.29 93.89
  L 155.25 93.71
  A 0.92 0.91 75.2 0 1 154.48 93.26
  Q 146.80 79.99 139.12 70.74
  Q 128.22 57.61 123.52 51.69
  C 114.36 40.15 104.56 30.03 95.81 21.06
  Q 88.26 13.31 81.46 0.00
  L 212.89 0.00
  Z"
/>
<path fill="#64bee8" d="
  M 400.00 0.00
  L 400.00 11.58
  L 400.00 22.87
  L 400.00 69.57
  L 400.00 99.12
  L 400.00 215.15
  Q 398.33 212.10 396.72 209.04
  Q 392.12 200.27 386.06 194.87
  C 361.65 173.10 339.87 151.11 314.31 125.53
  Q 302.46 113.67 297.60 107.51
  C 291.85 100.20 286.15 90.13 281.08 83.49
  Q 276.19 77.07 269.84 71.17
  Q 258.81 60.92 250.73 52.32
  C 243.24 44.34 234.22 36.00 227.31 28.54
  Q 216.13 16.44 212.89 0.00
  L 400.00 0.00
  Z"
/>
<path fill="#6dcde6" d="
  M 400.00 11.58
  L 400.00 22.87
  L 400.00 11.58
  Z"
/>
<path fill="#6dcde6" d="
  M 400.00 69.57
  L 400.00 99.12
  L 400.00 69.57
  Z"
/>
<path fill="#ffffff" d="
  M 161.29 93.89
  Q 186.38 93.69 199.25 94.15
  Q 207.04 94.43 221.85 96.44
  C 251.77 100.51 281.70 112.22 295.37 141.07
  C 303.87 159.01 304.25 178.09 303.79 198.29
  L 304.15 282.40
  A 0.16 0.16 0.0 0 1 303.99 282.56
  L 303.98 282.56
  A 0.20 0.20 0.0 0 1 303.77 282.37
  Q 302.99 263.57 299.56 247.74
  C 296.63 234.24 290.67 219.27 281.58 209.18
  C 265.66 191.51 242.85 186.95 219.74 186.73
  C 200.72 186.54 185.10 186.72 168.01 184.30
  C 149.32 181.65 132.66 174.93 122.18 159.35
  Q 114.98 148.64 111.93 134.30
  Q 107.90 115.34 108.10 94.12
  A 0.16 0.15 0.0 0 1 108.26 93.97
  L 161.29 93.89
  Z"
/>
<path fill="#73d7e5" d="
  M 90.04 184.51
  Q 90.11 199.56 90.20 214.75
  C 90.36 244.66 102.59 270.84 129.57 284.94
  Q 143.97 292.47 159.34 295.67
  Q 182.19 300.44 206.75 300.50
  Q 235.68 300.57 264.78 300.71
  Q 256.92 302.00 252.54 304.32
  C 246.31 307.63 252.40 314.41 255.86 317.65
  C 262.59 323.94 270.49 330.13 278.84 337.61
  Q 304.68 360.75 305.16 361.19
  C 311.95 367.40 319.85 376.06 322.64 384.78
  C 325.84 394.76 314.97 397.50 308.24 400.00
  L 176.11 400.00
  C 170.91 384.44 161.87 372.54 151.34 361.67
  Q 131.37 341.07 99.98 310.05
  Q 62.75 273.25 19.42 229.34
  Q 11.20 221.01 0.00 212.58
  L 0.00 108.48
  Q 14.76 115.33 26.13 127.08
  Q 27.33 128.33 37.34 137.78
  C 47.09 147.01 57.41 154.83 67.28 164.03
  C 73.00 169.36 82.02 177.91 90.04 184.51
  Z"
/>
<path fill="#ffffff" d="
  M 264.78 300.71
  Q 235.68 300.57 206.75 300.50
  Q 182.19 300.44 159.34 295.67
  Q 143.97 292.47 129.57 284.94
  C 102.59 270.84 90.36 244.66 90.20 214.75
  Q 90.11 199.56 90.04 184.51
  L 90.27 112.38
  A 0.10 0.10 0.0 0 1 90.40 112.29
  Q 90.60 112.38 90.61 112.49
  C 91.77 137.36 95.48 163.35 111.14 183.34
  C 126.92 203.46 153.26 207.67 177.18 207.76
  C 199.30 207.84 222.48 207.76 242.29 213.73
  C 264.86 220.54 277.30 237.03 282.28 259.77
  Q 286.38 278.49 286.32 300.04
  A 0.68 0.68 0.0 0 1 285.64 300.72
  L 264.78 300.71
  Z"
/>
<path fill="#77dee4" d="
  M 176.11 400.00
  L 0.00 400.00
  L 0.00 212.58
  Q 11.20 221.01 19.42 229.34
  Q 62.75 273.25 99.98 310.05
  Q 131.37 341.07 151.34 361.67
  C 161.87 372.54 170.91 384.44 176.11 400.00
  Z"
/>
</svg>
