<svg width="185" height="56" viewBox="0 0 185 56" fill="none" xmlns="http://www.w3.org/2000/svg">
<g clip-path="url(#clip0_852_930)">
<path d="M77.2195 32.3186V36.0418C76.8858 35.9872 76.5486 35.9568 76.2105 35.951C75.6401 35.9359 75.0723 36.0338 74.5398 36.239C74.0074 36.4442 73.5207 36.7527 73.1079 37.1467C72.2671 37.9438 71.8467 39.0285 71.8467 40.4007V47.9078H67.7148V32.4397H71.8618V35.1034H71.9223C72.2675 34.2718 72.8198 33.5423 73.5266 32.9845C74.1969 32.4784 75.0177 32.212 75.8574 32.2278C76.3132 32.2199 76.7688 32.2503 77.2195 32.3186Z" fill="#330066"/>
<path d="M92.6876 41.2785H81.2759C81.2548 42.3244 81.6379 43.3382 82.3454 44.1087C82.6977 44.4765 83.1241 44.7651 83.5964 44.9556C84.0686 45.146 84.576 45.234 85.0848 45.2136C86.0333 45.2136 86.7648 45.0118 87.2794 44.6082C87.7617 44.2489 88.1254 43.7534 88.3237 43.1855H92.5362C92.1481 44.7173 91.2383 46.066 89.9633 46.9996C88.692 47.9245 87.0271 48.3886 84.9688 48.392C83.4979 48.4284 82.0444 48.0676 80.7613 47.3477C79.5868 46.6685 78.639 45.6576 78.037 44.4417C77.3898 43.1065 77.0683 41.6369 77.0986 40.1534C77.0734 38.6915 77.395 37.2444 78.037 35.9307C78.6409 34.7132 79.5811 33.6943 80.7461 32.9945C82.0269 32.2518 83.4888 31.8798 84.9688 31.9199C87.4711 31.9199 89.3831 32.6565 90.7049 34.1297C92.0267 35.6028 92.6876 37.6931 92.6876 40.4006V41.2785ZM88.4801 38.5239C88.4801 37.4543 88.1622 36.6068 87.5266 35.9812C86.8909 35.3556 86.0282 35.0428 84.9385 35.0428C84.0032 35.0083 83.0911 35.3394 82.3958 35.966C81.7232 36.5815 81.3499 37.4342 81.2759 38.5239H88.4801Z" fill="#330066"/>
<path d="M97.2734 47.3475C96.1015 46.6604 95.1508 45.652 94.534 44.4415C93.8964 43.1064 93.5654 41.6455 93.5654 40.1658C93.5654 38.6862 93.8964 37.2253 94.534 35.8902C95.1447 34.6764 96.0901 33.6628 97.2583 32.9691C98.4995 32.2543 99.9128 31.8932 101.345 31.9248C103.423 31.9248 105.118 32.4999 106.43 33.6502C107.743 34.8023 108.557 36.4195 108.7 38.1604H104.493C104.418 37.3786 104.124 36.6337 103.645 36.0112C103.181 35.426 102.434 35.1334 101.405 35.1334C100.215 35.1334 99.3217 35.5875 98.7264 36.4956C98.1311 37.4037 97.8334 38.6246 97.8334 40.1583C97.8334 41.692 98.126 42.9129 98.7113 43.821C99.2965 44.7291 100.194 45.1831 101.405 45.1831C103.255 45.1831 104.284 44.154 104.493 42.0956H108.7C108.637 43.2519 108.278 44.3725 107.656 45.3496C107.031 46.3165 106.151 47.0918 105.113 47.5896C103.956 48.1403 102.687 48.4149 101.405 48.3918C99.9588 48.4245 98.5306 48.0635 97.2734 47.3475Z" fill="#330066"/>
<path d="M119.597 32.3186V36.0418C119.264 35.9872 118.927 35.9568 118.588 35.951C118.018 35.9359 117.45 36.0338 116.918 36.239C116.385 36.4442 115.899 36.7527 115.486 37.1467C114.645 37.9438 114.225 39.0285 114.225 40.4007V47.9078H110.093V32.4397H114.24V35.1034H114.3C114.645 34.2718 115.198 33.5423 115.905 32.9845C116.575 32.4784 117.396 32.212 118.235 32.2278C118.691 32.2199 119.147 32.2503 119.597 32.3186Z" fill="#330066"/>
<path d="M130.828 32.4395H134.974V47.9076H130.828V45.7886H130.777C130.299 46.5685 129.626 47.2102 128.825 47.6503C127.859 48.1539 126.78 48.3989 125.692 48.3616C124.178 48.3616 122.957 47.8924 122.029 46.9541C121.101 46.0157 120.637 44.6888 120.637 42.9735V32.4395H124.784V41.7022C124.784 42.8322 124.998 43.6596 125.434 44.1843C125.871 44.709 126.549 44.9714 127.478 44.9714C128.527 44.9714 129.347 44.6787 129.945 44.0935C130.542 43.5083 130.838 42.6708 130.838 41.571L130.828 32.4395Z" fill="#330066"/>
<path d="M141.51 30.2704H137.222V26.3555H141.51V30.2704ZM141.422 47.9281H137.272V32.4398H141.422V47.9281Z" fill="#330066"/>
<path d="M151.966 44.8508V47.8778C151.139 48.0715 150.293 48.173 149.443 48.1805C147.869 48.1805 146.714 47.792 145.977 47.0151C145.241 46.2381 144.872 44.9449 144.87 43.1354V35.6183H142.69V32.4399H144.87V27.8691H149.017V32.4399H151.792V35.6183H149.017V43.0951C149.017 43.8619 149.143 44.3664 149.395 44.6086C149.647 44.8508 150.068 44.9718 150.656 44.9718C151.095 44.9657 151.533 44.9252 151.966 44.8508Z" fill="#330066"/>
<path d="M168.109 41.2785H156.698C156.678 42.3251 157.063 43.3389 157.772 44.1087C158.125 44.4765 158.551 44.7651 159.023 44.9556C159.496 45.146 160.003 45.234 160.512 45.2136C161.46 45.2136 162.192 45.0118 162.706 44.6082C163.189 44.2489 163.552 43.7534 163.751 43.1855H167.958C167.57 44.7173 166.66 46.066 165.385 46.9996C164.114 47.9245 162.449 48.3886 160.391 48.392C158.92 48.4284 157.466 48.0676 156.183 47.3477C155.009 46.6685 154.061 45.6576 153.459 44.4417C152.812 43.1065 152.49 41.6369 152.521 40.1534C152.495 38.6915 152.817 37.2444 153.459 35.9307C154.063 34.7132 155.003 33.6943 156.168 32.9945C157.449 32.2518 158.911 31.8798 160.391 31.9199C162.893 31.9199 164.805 32.6565 166.127 34.1297C167.449 35.6028 168.109 37.6915 168.109 40.3956V41.2785ZM163.902 38.5239C163.902 37.4543 163.584 36.6068 162.948 35.9812C162.313 35.3556 161.45 35.0428 160.36 35.0428C159.425 35.0083 158.513 35.3394 157.818 35.966C157.145 36.5815 156.772 37.4342 156.698 38.5239H163.902Z" fill="#330066"/>
<path d="M184.614 41.2785H173.203C173.183 42.3251 173.568 43.3389 174.277 44.1087C174.629 44.4765 175.056 44.7651 175.528 44.9556C176 45.146 176.508 45.234 177.017 45.2136C177.965 45.2136 178.697 45.0118 179.211 44.6082C179.694 44.2489 180.057 43.7534 180.255 43.1855H184.463C184.075 44.7173 183.165 46.066 181.89 46.9996C180.619 47.9245 178.954 48.3886 176.896 48.392C175.425 48.4284 173.971 48.0676 172.688 47.3477C171.514 46.6685 170.566 45.6576 169.964 44.4417C169.317 43.1065 168.995 41.6369 169.025 40.1534C169 38.6915 169.322 37.2444 169.964 35.9307C170.568 34.7132 171.508 33.6943 172.673 32.9945C173.954 32.2518 175.416 31.8798 176.896 31.9199C179.398 31.9199 181.31 32.6565 182.632 34.1297C183.953 35.6028 184.614 37.6915 184.614 40.3956V41.2785ZM180.407 38.5239C180.407 37.4543 180.089 36.6068 179.453 35.9812C178.818 35.3556 177.955 35.0428 176.865 35.0428C175.93 35.0083 175.018 35.3394 174.323 35.966C173.65 36.5815 173.277 37.4342 173.203 38.5239H180.407Z" fill="#330066"/>
<path d="M40.0003 0H17.7369C8.42111 0 0.869141 7.55211 0.869141 16.8681V39.1319C0.869141 48.4479 8.42111 56 17.7369 56H40.0003C49.3162 56 56.8681 48.4479 56.8681 39.1319V16.8681C56.8681 7.55211 49.3162 0 40.0003 0Z" fill="#ECE0F5"/>
<path d="M20.5449 25.7676C22.1271 25.7676 23.6445 26.3961 24.7633 27.5149C25.8821 28.6337 26.5106 30.1511 26.5106 31.7333V39.533C26.5106 40.3134 26.3569 41.0863 26.0582 41.8073C25.7595 42.5283 25.3218 43.1835 24.7699 43.7354C24.2181 44.2872 23.5629 44.725 22.8419 45.0237C22.1209 45.3223 21.3481 45.476 20.5676 45.476H14.5742V31.7308C14.5745 30.9472 14.7293 30.1713 15.0295 29.4474C15.3298 28.7236 15.7697 28.066 16.3242 27.5122C16.8787 26.9585 17.5368 26.5194 18.261 26.22C18.9852 25.9207 19.7613 25.7669 20.5449 25.7676Z" fill="#5A1CB7"/>
<path d="M14.5667 16.671C14.5667 19.9658 17.2376 22.6367 20.5324 22.6367C23.8271 22.6367 26.498 19.9658 26.498 16.671C26.498 13.3762 23.8271 10.7052 20.5324 10.7052C17.2376 10.7052 14.5667 13.3762 14.5667 16.671Z" fill="#E23393"/>
<path d="M43.0352 45.4736H37.0468C35.4706 45.4736 33.959 44.8475 32.8445 43.733C31.73 42.6184 31.1038 41.1068 31.1038 39.5306V31.7309C31.1038 30.1487 31.7324 28.6313 32.8511 27.5125C33.9699 26.3937 35.4873 25.7652 37.0695 25.7652C38.6517 25.7652 40.1691 26.3937 41.2879 27.5125C42.4066 28.6313 43.0352 30.1487 43.0352 31.7309V45.4736Z" fill="#5A1CB7"/>
<path d="M43.0446 16.6718C43.0446 13.377 40.3737 10.7061 37.0789 10.7061C33.7842 10.7061 31.1133 13.377 31.1133 16.6718C31.1133 19.9666 33.7842 22.6376 37.0789 22.6376C40.3737 22.6376 43.0446 19.9666 43.0446 16.6718Z" fill="#5A1CB7"/>
<path d="M73.915 17.95C73.9434 18.311 73.8653 18.6723 73.6905 18.9893C73.6104 19.0965 73.5047 19.1817 73.3831 19.2373C73.2614 19.2928 73.1277 19.3168 72.9943 19.3072C72.8655 19.3174 72.7362 19.2945 72.6187 19.2407C72.5013 19.1868 72.3996 19.1037 72.3233 18.9994C72.1555 18.7294 72.077 18.4135 72.0988 18.0963V13.9392H76.1979L76.6721 11.2855H72.0963V8.72266L68.7641 10.0899V11.2956H67.0186C67.02 11.8387 67.1882 12.3683 67.5004 12.8126C67.8126 13.257 68.2537 13.5948 68.7641 13.7803V18.1619C68.7414 18.912 68.9062 19.6559 69.2434 20.3263C69.5562 20.9117 70.0463 21.3833 70.6434 21.6733C71.3605 22 72.1436 22.1563 72.9312 22.1299C73.7181 22.153 74.4984 21.9796 75.2015 21.6254C75.8339 21.3042 76.3596 20.8065 76.715 20.1926C77.082 19.535 77.2666 18.7912 77.2497 18.0383V15.425H73.915V17.9475V17.95Z" fill="#5A1CB7"/>
<path d="M90.442 18.9191C90.376 19.3016 90.3946 19.694 90.4966 20.0685C90.5986 20.443 90.7814 20.7907 91.0323 21.0869C91.2831 21.3832 91.5958 21.6209 91.9483 21.7833C92.3009 21.9457 92.6848 22.0288 93.0729 22.0269H93.252L95.714 7.95117H92.3591L90.442 18.9191Z" fill="#5A1CB7"/>
<path d="M95.9669 18.9193C95.9014 19.3018 95.9203 19.694 96.0225 20.0683C96.1247 20.4427 96.3075 20.7901 96.5582 21.0863C96.809 21.3824 97.1215 21.6201 97.4738 21.7827C97.8262 21.9452 98.2098 22.0286 98.5978 22.0271H98.7769L101.241 7.95898H97.8865L95.9669 18.9193Z" fill="#5A1CB7"/>
<path d="M108.647 18.5432C108.568 18.772 108.437 18.9792 108.264 19.1486C108.092 19.3116 107.888 19.4378 107.666 19.5194C107.412 19.6095 107.143 19.6531 106.874 19.6481C106.519 19.6585 106.165 19.5932 105.837 19.4564C105.551 19.3225 105.31 19.1087 105.143 18.8409C104.94 18.5484 104.801 18.2154 104.737 17.8647C104.66 17.431 104.624 16.9909 104.631 16.5504C104.631 16.2099 104.631 15.8996 104.662 15.6171C104.679 15.3594 104.73 15.105 104.813 14.8603C104.884 14.6466 104.989 14.4456 105.123 14.265C105.311 14.0056 105.555 13.7918 105.837 13.6394C106.138 13.4858 106.473 13.4096 106.811 13.4175C107.451 13.4175 107.932 13.5856 108.254 13.922C108.594 14.325 108.779 14.8371 108.773 15.3648H106.662C106.349 15.3638 106.045 15.4728 105.804 15.6729C105.563 15.873 105.399 16.1515 105.343 16.4596L105.174 17.4056H111.962V16.5353C111.992 15.5022 111.784 14.476 111.354 13.536C110.977 12.7321 110.36 12.0648 109.588 11.6265C108.737 11.1674 107.78 10.9403 106.813 10.9681C106.226 10.9677 105.643 11.0527 105.08 11.2203C104.556 11.376 104.059 11.6126 103.607 11.9216C103.167 12.2247 102.789 12.6101 102.495 13.0567C102.262 13.3616 102.072 13.6969 101.93 14.0531C101.774 14.4402 101.655 14.8415 101.577 15.2513C101.49 15.6883 101.447 16.1328 101.448 16.5782C101.438 17.241 101.523 17.9018 101.7 18.5407C101.857 19.0962 102.102 19.6226 102.427 20.0996C102.738 20.5366 103.125 20.9142 103.569 21.2146C104.033 21.5252 104.544 21.7578 105.083 21.9032C105.686 22.0649 106.308 22.1438 106.932 22.1378C107.756 22.1508 108.574 21.9955 109.336 21.6812C110.012 21.3995 110.616 20.9683 111.102 20.42C111.566 19.8935 111.87 19.2448 111.977 18.5508V18.5306H108.65V18.5508L108.647 18.5432Z" fill="#5A1CB7"/>
<path d="M122.215 11.4475C121.596 11.1147 120.9 10.9495 120.197 10.9682C119.662 10.9577 119.131 11.0744 118.649 11.3088C118.18 11.553 117.777 11.9059 117.473 12.338C117.107 12.8628 116.836 13.4476 116.671 14.0659H116.245L116.795 11.2911H113.689V21.8151H117.044V16.3135C117.034 15.8822 117.11 15.4533 117.269 15.0522C117.4 14.7218 117.631 14.4405 117.93 14.2475C118.233 14.0607 118.583 13.9644 118.939 13.97C119.164 13.9536 119.389 13.9869 119.6 14.0676C119.81 14.1483 120.001 14.2743 120.157 14.4367C120.453 14.8258 120.597 15.3089 120.563 15.7963V21.7999H123.842V15.085C123.865 14.3159 123.728 13.5505 123.439 12.8374C123.188 12.2509 122.752 11.7626 122.198 11.4475" fill="#5A1CB7"/>
<path d="M131.4 15.425V17.9475C131.428 18.3084 131.35 18.6698 131.175 18.9868C131.096 19.0941 130.991 19.1795 130.869 19.2351C130.748 19.2907 130.615 19.3146 130.482 19.3046C130.352 19.3153 130.223 19.2927 130.105 19.2388C129.987 19.1849 129.885 19.1016 129.808 18.9969C129.641 18.7276 129.562 18.4126 129.584 18.0963V13.9392H133.685L134.157 11.2881H129.584V8.72266L126.251 10.0899V11.2956H124.506C124.508 11.8386 124.676 12.368 124.988 12.8123C125.3 13.2566 125.741 13.5945 126.251 13.7803V18.1619C126.229 18.912 126.393 19.6559 126.731 20.3263C127.044 20.9117 127.534 21.3833 128.131 21.6733C128.848 22 129.631 22.1563 130.419 22.1299C131.205 22.153 131.986 21.9796 132.689 21.6254C133.321 21.3042 133.847 20.8065 134.202 20.1926C134.57 19.5354 134.755 18.7914 134.737 18.0383V15.425H131.402H131.4Z" fill="#5A1CB7"/>
<path d="M85.801 18.5426C85.7218 18.772 85.5896 18.9794 85.4151 19.148C85.2431 19.311 85.0397 19.4372 84.8173 19.5188C84.564 19.6088 84.2965 19.6524 84.0277 19.6475C83.6724 19.6579 83.319 19.5926 82.991 19.4558C82.7044 19.322 82.4626 19.1083 82.2948 18.8403C82.0917 18.5476 81.954 18.2147 81.8912 17.864C81.8128 17.4305 81.7764 16.9904 81.7827 16.5498C81.7827 16.2093 81.7827 15.899 81.8155 15.6165C81.8336 15.359 81.8835 15.1048 81.9643 14.8597C82.0353 14.646 82.1401 14.445 82.2746 14.2644C82.4642 14.0055 82.7089 13.7918 82.991 13.6388C83.292 13.485 83.6267 13.4087 83.9647 13.4168C84.6054 13.4168 85.0855 13.585 85.405 13.9213C85.7466 14.324 85.9319 14.8362 85.9272 15.3642H83.8133C83.5002 15.3628 83.1965 15.4717 82.9557 15.672C82.7149 15.8722 82.5523 16.1508 82.4966 16.459L82.325 17.3999H89.113V16.5296C89.1405 15.4991 88.9326 14.476 88.5051 13.5379C88.1276 12.7345 87.5108 12.0675 86.7394 11.6284C85.8881 11.1696 84.9313 10.9426 83.9647 10.97C83.3778 10.9696 82.7941 11.0546 82.2317 11.2222C81.7072 11.3779 81.2101 11.6145 80.7586 11.9235C80.318 12.2266 79.9403 12.612 79.6462 13.0586C79.4134 13.3635 79.2233 13.6988 79.0811 14.055C78.925 14.4421 78.8067 14.8434 78.728 15.2532C78.6418 15.6902 78.5988 16.1347 78.5994 16.5801C78.5898 17.2429 78.6747 17.9037 78.8516 18.5426C79.008 19.0981 79.2533 19.6245 79.5781 20.1015C79.8893 20.5385 80.2763 20.9161 80.7208 21.2165C81.1843 21.5271 81.6956 21.7597 82.2342 21.9051C82.8371 22.0668 83.4591 22.1457 84.0832 22.1397C84.9073 22.1527 85.7253 21.9974 86.4871 21.6831C87.163 21.4007 87.7665 20.9696 88.2529 20.4219C88.7174 19.8954 89.0212 19.2467 89.1282 18.5527V18.5325H85.8036V18.5527L85.801 18.5426Z" fill="#5A1CB7"/>
</g>
<defs>
<clipPath id="clip0_852_930">
<rect width="183.745" height="56" fill="#000000" transform="translate(0.869141)"/>
</clipPath>
</defs>
</svg>
