<?xml version="1.0" encoding="UTF-8" standalone="no"?>
<!DOCTYPE svg PUBLIC "-//W3C//DTD SVG 1.1//EN" "http://www.w3.org/Graphics/SVG/1.1/DTD/svg11.dtd">
<svg xmlns="http://www.w3.org/2000/svg" version="1.1" viewBox="0.00 0.00 400.00 400.00">
<g stroke-width="2.00" fill="none" stroke-linecap="butt">
<path stroke="#94b6d9" vector-effect="non-scaling-stroke" d="
  M 47.66 199.39
  C 47.62 222.37 48.77 246.34 52.37 268.26
  Q 53.91 277.67 55.79 283.99
  C 65.33 316.15 91.40 340.18 124.55 346.54
  Q 148.88 351.21 172.75 352.06
  Q 191.77 352.73 199.40 352.74
  Q 207.02 352.76 226.04 352.15
  Q 249.92 351.38 274.26 346.79
  C 307.43 340.54 333.58 316.59 343.23 284.47
  Q 345.13 278.15 346.70 268.75
  C 350.37 246.84 351.60 222.87 351.64 199.90
  C 351.68 176.93 350.53 152.95 346.93 131.03
  Q 345.39 121.62 343.51 115.30
  C 333.97 83.14 307.90 59.11 274.75 52.75
  Q 250.42 48.08 226.55 47.23
  Q 207.53 46.56 199.90 46.55
  Q 192.28 46.53 173.26 47.14
  Q 149.38 47.91 125.04 52.50
  C 91.87 58.75 65.72 82.70 56.07 114.82
  Q 54.17 121.14 52.60 130.54
  C 48.93 152.45 47.70 176.42 47.66 199.39"
/>
<path stroke="#94b6d9" vector-effect="non-scaling-stroke" d="
  M 247.5288 140.8829
  A 38.37 38.18 -89.3 0 0 208.8828 178.7836
  A 38.37 38.18 -89.3 0 0 246.5912 217.6171
  A 38.37 38.18 -89.3 0 0 285.2372 179.7164
  A 38.37 38.18 -89.3 0 0 247.5288 140.8829"
/>
<path stroke="#94b6d9" vector-effect="non-scaling-stroke" d="
  M 201.54 141.35
  L 126.85 141.35
  A 0.38 0.38 0.0 0 0 126.47 141.72
  Q 125.74 179.75 126.16 212.24
  Q 126.29 221.63 127.58 230.69
  C 132.07 262.23 153.79 283.54 183.78 292.11
  C 188.61 293.49 195.45 294.19 201.58 295.48
  A 0.50 0.50 0.0 0 0 202.18 294.99
  L 202.18 141.99
  A 0.64 0.64 0.0 0 0 201.54 141.35"
/>
</g>
<path fill="#ffffff" d="
  M 400.00 0.00
  L 400.00 400.00
  L 0.00 400.00
  L 0.00 0.00
  L 400.00 0.00
  Z
  M 47.66 199.39
  C 47.62 222.37 48.77 246.34 52.37 268.26
  Q 53.91 277.67 55.79 283.99
  C 65.33 316.15 91.40 340.18 124.55 346.54
  Q 148.88 351.21 172.75 352.06
  Q 191.77 352.73 199.40 352.74
  Q 207.02 352.76 226.04 352.15
  Q 249.92 351.38 274.26 346.79
  C 307.43 340.54 333.58 316.59 343.23 284.47
  Q 345.13 278.15 346.70 268.75
  C 350.37 246.84 351.60 222.87 351.64 199.90
  C 351.68 176.93 350.53 152.95 346.93 131.03
  Q 345.39 121.62 343.51 115.30
  C 333.97 83.14 307.90 59.11 274.75 52.75
  Q 250.42 48.08 226.55 47.23
  Q 207.53 46.56 199.90 46.55
  Q 192.28 46.53 173.26 47.14
  Q 149.38 47.91 125.04 52.50
  C 91.87 58.75 65.72 82.70 56.07 114.82
  Q 54.17 121.14 52.60 130.54
  C 48.93 152.45 47.70 176.42 47.66 199.39
  Z"
/>
<path fill="#286cb3" d="
  M 199.90 46.55
  Q 207.53 46.56 226.55 47.23
  Q 250.42 48.08 274.75 52.75
  C 307.90 59.11 333.97 83.14 343.51 115.30
  Q 345.39 121.62 346.93 131.03
  C 350.53 152.95 351.68 176.93 351.64 199.90
  C 351.60 222.87 350.37 246.84 346.70 268.75
  Q 345.13 278.15 343.23 284.47
  C 333.58 316.59 307.43 340.54 274.26 346.79
  Q 249.92 351.38 226.04 352.15
  Q 207.02 352.76 199.40 352.74
  Q 191.77 352.73 172.75 352.06
  Q 148.88 351.21 124.55 346.54
  C 91.40 340.18 65.33 316.15 55.79 283.99
  Q 53.91 277.67 52.37 268.26
  C 48.77 246.34 47.62 222.37 47.66 199.39
  C 47.70 176.42 48.93 152.45 52.60 130.54
  Q 54.17 121.14 56.07 114.82
  C 65.72 82.70 91.87 58.75 125.04 52.50
  Q 149.38 47.91 173.26 47.14
  Q 192.28 46.53 199.90 46.55
  Z
  M 247.5288 140.8829
  A 38.37 38.18 -89.3 0 0 208.8828 178.7836
  A 38.37 38.18 -89.3 0 0 246.5912 217.6171
  A 38.37 38.18 -89.3 0 0 285.2372 179.7164
  A 38.37 38.18 -89.3 0 0 247.5288 140.8829
  Z
  M 201.54 141.35
  L 126.85 141.35
  A 0.38 0.38 0.0 0 0 126.47 141.72
  Q 125.74 179.75 126.16 212.24
  Q 126.29 221.63 127.58 230.69
  C 132.07 262.23 153.79 283.54 183.78 292.11
  C 188.61 293.49 195.45 294.19 201.58 295.48
  A 0.50 0.50 0.0 0 0 202.18 294.99
  L 202.18 141.99
  A 0.64 0.64 0.0 0 0 201.54 141.35
  Z"
/>
<ellipse fill="#ffffff" cx="0.00" cy="0.00" transform="translate(247.06,179.25) rotate(-89.3)" rx="38.37" ry="38.18"/>
<path fill="#ffffff" d="
  M 201.54 141.35
  A 0.64 0.64 0.0 0 1 202.18 141.99
  L 202.18 294.99
  A 0.50 0.50 0.0 0 1 201.58 295.48
  C 195.45 294.19 188.61 293.49 183.78 292.11
  C 153.79 283.54 132.07 262.23 127.58 230.69
  Q 126.29 221.63 126.16 212.24
  Q 125.74 179.75 126.47 141.72
  A 0.38 0.38 0.0 0 1 126.85 141.35
  L 201.54 141.35
  Z"
/>
</svg>
