<svg xmlns="http://www.w3.org/2000/svg" width="192" height="35" viewBox="0 0 192 35" fill="none"><g clip-path="url(#clip0_1679_1183)"><path d="M57.5785 5.38721C55.0102 5.38721 53.0069 6.05532 52.2878 6.31231C52.2878 6.31231 52.2878 6.31231 52.2364 6.31231C52.031 6.36369 51.2091 6.72344 51.2091 6.72344L51.4659 7.49438L51.6714 8.1625C51.6714 8.21388 51.7741 8.41944 51.8255 8.57363C51.9282 8.882 52.031 9.19038 52.031 9.19038L52.6987 8.93338L53.0583 8.83063C53.8287 8.57363 55.4725 8.11106 57.373 8.11106C58.1949 8.11106 58.7085 8.26525 59.0681 8.625C59.6331 9.24175 59.7872 10.3724 59.7872 11.9656C59.2736 11.8114 57.9381 11.5031 56.6025 11.5031C52.6473 11.5031 50.1304 13.6102 50.1304 16.9509C50.1304 20.0859 52.1851 22.2959 55.1643 22.2959C57.4244 22.2959 59.0167 21.3194 59.9927 20.3943V20.4456V21.8847H61.02H62.664V18.8524V12.1713C62.7664 7.80275 61.9446 5.38721 57.5785 5.38721ZM59.7872 17.5676C59.1708 18.4413 57.5785 19.6747 55.6266 19.6747C54.1369 19.6747 53.0583 18.5955 53.0583 17.0536C53.0583 15.2034 54.4452 14.0728 56.6539 14.0728C58.1435 14.0728 59.2222 14.3298 59.7872 14.6381V17.5676Z" fill="#000000"></path><path d="M47.3582 6.87763L47.6664 6.15811L46.8959 5.79835C46.2281 5.43859 45.1495 5.38721 44.4303 5.38721C41.7593 5.38721 40.2697 6.72344 39.756 7.28881V7.23738V5.74697H38.7287H37.085V8.77919V21.9361H40.1669V10.4753C40.3724 10.2183 41.6565 8.36806 44.3276 8.36806C44.7899 8.36806 45.3036 8.47088 45.6118 8.57363L46.485 8.93338L46.7418 8.36806C46.7418 8.36806 46.7418 8.31669 46.7932 8.31669L46.8959 8.1625C47.05 7.64856 47.3582 6.92906 47.3582 6.87763Z" fill="#000000"></path><path d="M32.1565 19.778L31.1806 18.1334L30.3587 18.4932C30.3587 18.4932 28.5609 19.3669 27.5335 19.3669C26.4035 19.3669 26.4035 19.2641 26.4035 17.6194V8.52269H31.7456V5.79884H26.4549V2.45823V0.556641H23.3729V1.53314V5.74746H20.5991V8.47131H23.3729V17.8251C23.3729 20.035 23.6811 22.3477 27.174 22.3477C29.0745 22.3477 31.2319 21.3198 31.7969 20.9601C31.8483 20.9601 31.8483 20.9087 31.8997 20.9087L32.5674 20.5489L32.1565 19.8808C32.2079 19.778 32.2079 19.778 32.1565 19.778Z" fill="#000000"></path><path d="M125.9 19.8294C125.9 19.8294 125.9 19.778 125.849 19.778L124.872 18.1334L124.05 18.4932C124.05 18.4932 122.253 19.3669 121.226 19.3669C120.096 19.3669 120.096 19.2641 120.096 17.6194V8.52268H125.54V5.79884H120.198V2.45822V0.556641H117.116V1.53314V5.74746H114.343V8.47131H117.116V17.8251C117.116 20.035 117.425 22.3477 120.917 22.3477C122.818 22.3477 124.976 21.3198 125.54 20.9601C125.591 20.9601 125.591 20.9087 125.643 20.9087L126.311 20.5489L125.9 19.8294Z" fill="#000000"></path><path d="M69.2919 27.6408C69.2919 29.5938 68.6241 30.93 67.4941 31.4953C67.1343 31.6495 66.6721 31.7523 66.1586 31.7523C65.2341 31.7523 63.8467 31.0328 63.3845 30.6217C63.3845 30.6217 63.3845 30.6217 63.3333 30.6217C63.282 30.5702 63.179 30.5188 63.1277 30.4675C62.9735 30.3647 62.7686 30.2619 62.5631 30.0563L62.306 30.4675L61.4328 31.8037L61.0732 32.4204C61.4841 32.7288 61.8437 32.9858 62.2033 33.2427C62.4601 33.4483 62.8198 33.6539 63.2308 33.8595C64.001 34.2192 64.9767 34.5276 66.1586 34.5276C66.261 34.5276 66.4153 34.5276 66.5178 34.5276C70.2164 34.3734 72.374 31.8037 72.374 27.6408V5.79834H69.2919V27.6408Z" fill="#000000"></path><path d="M91.5366 19.3151C91.5366 19.2637 91.4854 19.2637 91.4854 19.2123C91.3829 19.0581 91.2799 18.9039 91.1774 18.7498C91.0743 18.647 91.0231 18.4928 90.9201 18.39L90.4578 17.7219L89.6364 18.2358L89.5333 18.2872C88.249 19.0581 87.0165 19.4693 85.681 19.4693C83.1124 19.4693 80.8012 17.2593 80.5444 14.6383H91.7421H92.7184L92.6666 12.6853C92.6666 8.41956 89.5845 5.33594 85.3212 5.33594C80.75 5.33594 77.4111 8.88213 77.4111 13.8159C77.4111 18.7498 80.75 22.2959 85.3212 22.2959C87.941 22.2959 90.0986 21.3194 91.1774 20.4458L91.9476 19.8804L91.5366 19.3151ZM85.4755 8.16263C87.6331 8.16263 89.4821 9.91 89.6876 12.1199H80.6987C81.1091 9.80719 83.0612 8.16263 85.4755 8.16263Z" fill="#000000"></path><path d="M109.616 16.7454L108.897 17.5163C108.845 17.5677 108.742 17.6705 108.691 17.7219C107.869 18.5442 106.945 19.4693 104.89 19.4693C102.065 19.4693 99.8559 17.0538 99.8559 13.9187C99.8559 10.8351 102.116 8.47094 104.941 8.47094C106.277 8.47094 107.561 9.08769 108.486 10.0642L109.153 10.8351L109.975 10.1156L110.489 9.653L110.591 9.55025L111.362 8.88213L110.643 8.00838C109.205 6.261 107.304 5.33594 104.992 5.33594C100.472 5.33594 96.6714 9.24188 96.6714 13.8673C96.6714 18.5956 100.318 22.2959 104.941 22.2959C107.407 22.2959 109.667 21.0625 111.054 19.0581L111.67 18.2358L109.616 16.7454Z" fill="#000000"></path><path d="M132.526 6.05482C132.526 5.79785 132.732 5.59229 132.937 5.59229H138.227C142.799 5.59229 146.497 9.29263 146.497 13.8667C146.497 18.4408 142.748 22.1411 138.227 22.1411H132.937C132.68 22.1411 132.526 21.9356 132.526 21.6786V6.05482ZM137.817 20.5479C141.669 20.5479 144.495 17.7726 144.495 13.8667C144.495 10.0121 141.669 7.23688 137.817 7.23688H134.273V20.5479H137.817Z" fill="#000000"></path><path d="M148.909 21.5768L156.101 5.64466C156.152 5.49048 156.306 5.3877 156.512 5.3877H156.768C156.974 5.3877 157.076 5.49048 157.179 5.64466L164.319 21.5768C164.473 21.8852 164.268 22.1936 163.908 22.1936H162.984C162.778 22.1936 162.624 22.0394 162.573 21.9366L160.826 18.0306H152.454L150.707 21.9366C150.655 22.0394 150.502 22.1936 150.296 22.1936H149.372C148.961 22.1936 148.755 21.8852 148.909 21.5768ZM160.107 16.5402C158.926 13.9705 157.796 11.3494 156.665 8.77968H156.46L153.018 16.5402H160.107Z" fill="#000000"></path><path d="M169.352 7.23775H165.243C164.986 7.23775 164.78 7.03219 164.78 6.77519V6.10709C164.78 5.85012 164.986 5.64453 165.243 5.64453H175.259C175.516 5.64453 175.721 5.85012 175.721 6.10709V6.77519C175.721 7.03219 175.516 7.23775 175.259 7.23775H171.15V21.7309C171.15 21.9878 170.944 22.1934 170.687 22.1934H169.814C169.557 22.1934 169.352 21.9878 169.352 21.7309V7.23775Z" fill="#000000"></path><path d="M176.233 21.5768L183.424 5.64466C183.476 5.49048 183.63 5.3877 183.835 5.3877H184.092C184.298 5.3877 184.4 5.49048 184.503 5.64466L191.643 21.5768C191.797 21.8852 191.591 22.1936 191.232 22.1936H190.256C190.051 22.1936 189.896 22.0394 189.845 21.9366L188.099 18.0306H179.726L177.979 21.9366C177.928 22.0394 177.774 22.1936 177.569 22.1936H176.644C176.285 22.1936 176.13 21.8852 176.233 21.5768ZM187.482 16.5402C186.301 13.9705 185.171 11.3494 184.041 8.77968H183.835L180.394 16.5402H187.482Z" fill="#000000"></path><path d="M15.4612 5.84961H0V8.93322H12.6361V22.0387H15.4612V5.84961Z" fill="#000000"></path></g><defs><clipPath id="clip0_1679_1183"><rect width="191.771" height="35" fill="#000000"></rect></clipPath></defs></svg>