<svg width="128" height="128" viewBox="0 0 128 128" fill="none" xmlns="http://www.w3.org/2000/svg">
<g clip-path="url(#clip0_240_6167)">
<g clip-path="url(#clip1_240_6167)">
<path d="M10.5011 56.4789V8.2306C10.5011 3.68958 14.1907 0 18.7317 0H119.769C124.31 0 128 3.68958 128 8.2306V109.268C128 113.809 124.31 117.499 119.769 117.499H71.5211C69.2506 117.499 67.5477 115.512 67.5477 113.526V75.4945C67.5477 67.2639 60.7361 60.4523 52.5055 60.4523H14.4745C12.204 60.4523 10.5011 58.7494 10.5011 56.4789Z" fill="#0138FF"/>
<path d="M50.5188 128H8.2306C3.68958 128 0 124.31 0 119.769V77.4811C0 72.9401 3.68958 69.2505 8.2306 69.2505H50.5188C55.0599 69.2505 58.7495 72.9401 58.7495 77.4811V119.769C58.7495 124.31 55.0599 128 50.5188 128Z" fill="#5A7FFF"/>
</g>
</g>
<defs>
<clipPath id="clip0_240_6167">
<rect width="128" height="128" fill="white"/>
</clipPath>
<clipPath id="clip1_240_6167">
<rect width="128" height="128" fill="white"/>
</clipPath>
</defs>
</svg>
