<?xml version="1.0" encoding="UTF-8" standalone="no"?>
<!DOCTYPE svg PUBLIC "-//W3C//DTD SVG 1.1//EN" "http://www.w3.org/Graphics/SVG/1.1/DTD/svg11.dtd">
<svg xmlns="http://www.w3.org/2000/svg" version="1.1" viewBox="0.00 0.00 400.00 400.00">
<g stroke-width="2.00" fill="none" stroke-linecap="butt">
<path stroke="#8ea6d0" vector-effect="non-scaling-stroke" d="
  M 347.30 312.31
  L 261.94 229.27
  A 0.31 0.31 0.0 0 1 262.08 228.75
  C 304.43 218.89 336.11 186.18 342.28 142.74
  Q 346.77 111.12 335.98 84.17
  C 322.09 49.46 291.68 26.58 255.20 20.54
  Q 244.96 18.84 221.18 18.89
  Q 159.63 19.03 53.72 18.94
  A 0.74 0.73 90.0 0 0 52.99 19.68
  L 52.99 89.34
  A 0.39 0.39 0.0 0 0 53.38 89.73
  Q 109.94 89.76 216.60 89.73
  Q 226.36 89.73 229.38 90.03
  C 246.59 91.73 258.17 103.83 259.95 121.23
  C 261.70 138.36 253.40 154.17 236.76 159.32
  Q 231.11 161.07 218.46 161.04
  Q 190.05 160.95 151.24 160.96
  A 0.36 0.35 -0.0 0 0 150.88 161.31
  L 150.88 210.63
  A 4.06 4.03 -68.1 0 0 152.11 213.54
  L 253.50 312.17
  A 3.05 3.01 -22.6 0 0 255.62 313.03
  L 347.01 313.03
  A 0.42 0.42 0.0 0 0 347.30 312.31"
/>
<path stroke="#80dbf8" vector-effect="non-scaling-stroke" d="
  M 151.33 245.90
  L 151.33 276.43
  A 0.45 0.44 -90.0 0 1 150.89 276.88
  L 125.90 276.88
  A 0.63 0.62 -90.0 0 1 125.28 276.25
  L 125.28 161.52
  A 0.58 0.57 -90.0 0 0 124.71 160.94
  L 53.53 160.94
  A 0.63 0.63 0.0 0 0 52.90 161.57
  Q 53.04 266.42 52.90 298.11
  Q 52.81 316.80 53.76 320.82
  C 57.77 337.95 72.49 349.10 90.00 349.08
  Q 116.33 349.05 150.77 349.07
  A 0.57 0.57 0.0 0 1 151.34 349.64
  L 151.34 380.09
  A 0.61 0.60 -22.2 0 0 152.37 380.52
  L 221.10 313.63
  A 0.95 0.95 0.0 0 0 221.10 312.27
  L 152.40 245.45
  A 0.63 0.63 0.0 0 0 151.33 245.90"
/>
</g>
<path fill="#ffffff" d="
  M 400.00 0.00
  L 400.00 400.00
  L 0.00 400.00
  L 0.00 0.00
  L 400.00 0.00
  Z
  M 347.30 312.31
  L 261.94 229.27
  A 0.31 0.31 0.0 0 1 262.08 228.75
  C 304.43 218.89 336.11 186.18 342.28 142.74
  Q 346.77 111.12 335.98 84.17
  C 322.09 49.46 291.68 26.58 255.20 20.54
  Q 244.96 18.84 221.18 18.89
  Q 159.63 19.03 53.72 18.94
  A 0.74 0.73 90.0 0 0 52.99 19.68
  L 52.99 89.34
  A 0.39 0.39 0.0 0 0 53.38 89.73
  Q 109.94 89.76 216.60 89.73
  Q 226.36 89.73 229.38 90.03
  C 246.59 91.73 258.17 103.83 259.95 121.23
  C 261.70 138.36 253.40 154.17 236.76 159.32
  Q 231.11 161.07 218.46 161.04
  Q 190.05 160.95 151.24 160.96
  A 0.36 0.35 -0.0 0 0 150.88 161.31
  L 150.88 210.63
  A 4.06 4.03 -68.1 0 0 152.11 213.54
  L 253.50 312.17
  A 3.05 3.01 -22.6 0 0 255.62 313.03
  L 347.01 313.03
  A 0.42 0.42 0.0 0 0 347.30 312.31
  Z
  M 151.33 245.90
  L 151.33 276.43
  A 0.45 0.44 -90.0 0 1 150.89 276.88
  L 125.90 276.88
  A 0.63 0.62 -90.0 0 1 125.28 276.25
  L 125.28 161.52
  A 0.58 0.57 -90.0 0 0 124.71 160.94
  L 53.53 160.94
  A 0.63 0.63 0.0 0 0 52.90 161.57
  Q 53.04 266.42 52.90 298.11
  Q 52.81 316.80 53.76 320.82
  C 57.77 337.95 72.49 349.10 90.00 349.08
  Q 116.33 349.05 150.77 349.07
  A 0.57 0.57 0.0 0 1 151.34 349.64
  L 151.34 380.09
  A 0.61 0.60 -22.2 0 0 152.37 380.52
  L 221.10 313.63
  A 0.95 0.95 0.0 0 0 221.10 312.27
  L 152.40 245.45
  A 0.63 0.63 0.0 0 0 151.33 245.90
  Z"
/>
<path fill="#1d4da1" d="
  M 347.30 312.31
  A 0.42 0.42 0.0 0 1 347.01 313.03
  L 255.62 313.03
  A 3.05 3.01 -22.6 0 1 253.50 312.17
  L 152.11 213.54
  A 4.06 4.03 -68.1 0 1 150.88 210.63
  L 150.88 161.31
  A 0.36 0.35 0.0 0 1 151.24 160.96
  Q 190.05 160.95 218.46 161.04
  Q 231.11 161.07 236.76 159.32
  C 253.40 154.17 261.70 138.36 259.95 121.23
  C 258.17 103.83 246.59 91.73 229.38 90.03
  Q 226.36 89.73 216.60 89.73
  Q 109.94 89.76 53.38 89.73
  A 0.39 0.39 0.0 0 1 52.99 89.34
  L 52.99 19.68
  A 0.74 0.73 90.0 0 1 53.72 18.94
  Q 159.63 19.03 221.18 18.89
  Q 244.96 18.84 255.20 20.54
  C 291.68 26.58 322.09 49.46 335.98 84.17
  Q 346.77 111.12 342.28 142.74
  C 336.11 186.18 304.43 218.89 262.08 228.75
  A 0.31 0.31 0.0 0 0 261.94 229.27
  L 347.30 312.31
  Z"
/>
<path fill="#00b7f1" d="
  M 151.33 245.90
  A 0.63 0.63 0.0 0 1 152.40 245.45
  L 221.10 312.27
  A 0.95 0.95 0.0 0 1 221.10 313.63
  L 152.37 380.52
  A 0.61 0.60 -22.2 0 1 151.34 380.09
  L 151.34 349.64
  A 0.57 0.57 0.0 0 0 150.77 349.07
  Q 116.33 349.05 90.00 349.08
  C 72.49 349.10 57.77 337.95 53.76 320.82
  Q 52.81 316.80 52.90 298.11
  Q 53.04 266.42 52.90 161.57
  A 0.63 0.63 0.0 0 1 53.53 160.94
  L 124.71 160.94
  A 0.58 0.57 -90.0 0 1 125.28 161.52
  L 125.28 276.25
  A 0.63 0.62 90.0 0 0 125.90 276.88
  L 150.89 276.88
  A 0.45 0.44 90.0 0 0 151.33 276.43
  L 151.33 245.90
  Z"
/>
</svg>
