<?xml version="1.0" encoding="UTF-8" standalone="no"?>
<!DOCTYPE svg PUBLIC "-//W3C//DTD SVG 1.1//EN" "http://www.w3.org/Graphics/SVG/1.1/DTD/svg11.dtd">
<svg xmlns="http://www.w3.org/2000/svg" version="1.1" viewBox="0.00 0.00 820.00 290.00">
<path fill="#000000" d="
  M 548.27 73.61
  Q 549.39 72.31 553.70 68.30
  C 561.66 60.90 572.44 56.62 583.48 58.34
  C 597.01 60.46 602.51 70.88 602.51 83.71
  Q 602.51 119.43 602.50 130.17
  A 0.56 0.55 0.0 0 0 603.06 130.72
  L 615.80 130.72
  A 0.49 0.48 90.0 0 1 616.28 131.21
  L 616.28 136.54
  A 0.46 0.45 -90.0 0 1 615.83 137.00
  L 582.45 137.00
  A 0.46 0.45 -90.0 0 1 582.00 136.54
  L 582.00 131.20
  A 0.48 0.48 0.0 0 1 582.48 130.72
  L 594.95 130.72
  A 0.53 0.53 0.0 0 0 595.48 130.19
  Q 595.52 91.41 595.44 86.75
  C 595.29 76.86 593.48 67.20 581.96 65.02
  Q 573.70 63.46 565.90 67.01
  Q 555.74 71.64 548.03 81.27
  A 1.19 1.15 65.2 0 0 547.77 82.01
  L 547.77 130.19
  A 0.53 0.53 0.0 0 0 548.30 130.72
  L 560.70 130.72
  A 0.59 0.59 0.0 0 1 561.29 131.31
  L 561.29 136.42
  A 0.58 0.58 0.0 0 1 560.71 137.00
  L 527.44 137.00
  A 0.44 0.44 0.0 0 1 527.00 136.56
  L 527.00 131.16
  A 0.44 0.44 0.0 0 1 527.44 130.72
  L 539.90 130.72
  A 0.59 0.59 0.0 0 0 540.49 130.13
  L 540.49 7.49
  A 0.49 0.49 0.0 0 0 540.00 7.00
  L 527.46 7.00
  A 0.46 0.46 0.0 0 1 527.00 6.54
  L 527.00 1.20
  A 0.48 0.47 -90.0 0 1 527.47 0.72
  L 547.30 0.72
  A 0.47 0.47 0.0 0 1 547.77 1.19
  L 547.77 73.43
  A 0.29 0.28 -24.9 0 0 548.27 73.61
  Z"
/>
<path fill="#000000" d="
  M 519.97 30.51
  A 2.30 2.29 35.2 0 0 519.47 27.62
  Q 509.15 18.83 494.98 19.30
  C 483.17 19.70 471.15 25.96 469.01 38.67
  C 466.31 54.73 479.28 62.75 491.89 67.86
  C 510.96 75.59 536.16 83.54 532.69 110.22
  C 528.43 142.90 482.69 146.41 462.75 127.55
  C 458.81 123.83 455.57 118.00 456.63 112.60
  C 457.68 107.22 462.27 104.16 467.23 107.21
  C 471.59 109.90 470.24 116.08 466.70 119.07
  A 1.28 1.28 0.0 0 0 466.58 120.92
  Q 472.44 127.32 480.46 129.78
  C 491.06 133.04 503.12 133.06 512.92 127.64
  C 519.94 123.75 524.23 116.93 525.11 109.02
  C 526.68 94.80 516.24 87.02 504.55 81.70
  C 490.64 75.37 465.29 69.01 461.62 49.80
  C 458.31 32.44 467.88 18.28 484.53 13.84
  Q 502.38 9.08 518.33 17.85
  C 524.44 21.21 530.53 27.51 530.73 34.74
  Q 530.90 40.63 526.23 42.60
  Q 523.45 43.78 520.60 42.28
  C 516.94 40.36 516.34 35.91 518.31 32.42
  C 518.87 31.44 519.72 30.94 519.97 30.51
  Z"
/>
<rect fill="#427db7" x="352.94" y="13.31" width="33.12" height="33.12" rx="0.43"/>
<path fill="#000000" d="
  M 73.61 85.52
  L 92.11 117.56
  A 0.88 0.87 -14.7 0 0 92.87 118.00
  L 105.42 118.00
  A 0.59 0.58 0.0 0 1 106.01 118.58
  L 106.01 136.39
  A 0.61 0.61 0.0 0 1 105.40 137.00
  L 77.85 137.00
  A 0.64 0.63 75.9 0 1 77.29 136.66
  L 53.27 91.16
  A 0.83 0.82 -13.7 0 0 52.54 90.72
  L 36.21 90.72
  A 0.71 0.70 90.0 0 0 35.51 91.43
  L 35.51 117.47
  A 0.53 0.53 0.0 0 0 36.04 118.00
  L 50.42 118.00
  A 0.58 0.58 0.0 0 1 51.00 118.58
  L 51.00 136.57
  A 0.43 0.43 0.0 0 1 50.57 137.00
  L 0.57 137.00
  A 0.35 0.34 -90.0 0 1 0.23 136.65
  L 0.23 118.62
  A 0.62 0.61 90.0 0 1 0.84 118.00
  L 13.81 118.00
  A 0.42 0.42 0.0 0 0 14.23 117.58
  L 14.23 33.86
  A 0.58 0.58 0.0 0 0 13.65 33.28
  L 0.82 33.28
  A 0.60 0.59 90.0 0 1 0.23 32.68
  L 0.23 14.35
  A 0.35 0.34 -90.0 0 1 0.57 14.00
  Q 31.29 14.00 46.50 14.00
  C 66.75 14.00 91.07 19.84 95.68 43.28
  C 99.23 61.32 90.67 77.30 73.90 84.61
  A 0.64 0.64 0.0 0 0 73.61 85.52
  Z
  M 35.76 33.32
  A 0.26 0.25 90.0 0 0 35.51 33.58
  L 35.51 71.70
  A 0.66 0.66 0.0 0 0 36.14 72.36
  Q 43.32 72.70 47.00 72.70
  C 56.99 72.71 69.37 69.28 73.17 58.72
  C 75.93 51.06 73.85 41.99 66.68 37.72
  C 57.70 32.35 46.30 33.09 35.76 33.32
  Z"
/>
<path fill="#000000" d="
  M 123.04 103.98
  Q 125.82 115.20 137.34 119.24
  C 150.91 123.99 166.57 119.38 178.71 112.83
  A 0.35 0.35 0.0 0 1 179.23 113.17
  L 177.60 130.59
  A 1.16 1.14 78.5 0 1 177.02 131.48
  Q 168.27 136.23 158.49 137.68
  C 144.13 139.81 128.27 138.56 116.43 129.25
  Q 102.83 118.56 101.35 100.21
  C 100.44 88.91 103.47 77.12 110.59 68.43
  C 121.20 55.47 137.32 51.35 153.50 54.74
  C 176.69 59.58 185.31 80.89 181.81 102.48
  A 0.94 0.94 0.0 0 1 180.88 103.28
  L 123.58 103.28
  A 0.56 0.56 0.0 0 0 123.04 103.98
  Z
  M 122.68 88.23
  A 0.43 0.43 0.0 0 0 123.10 88.73
  L 161.39 88.73
  A 0.61 0.60 87.0 0 0 161.99 88.06
  Q 160.53 73.25 146.53 70.64
  C 134.65 68.42 124.54 76.17 122.68 88.23
  Z"
/>
<path fill="#000000" d="
  M 212.30 63.69
  C 218.38 58.58 223.93 54.73 231.98 53.89
  C 249.12 52.11 263.82 61.48 270.04 77.33
  Q 276.33 93.38 271.21 110.17
  C 266.94 124.17 255.56 135.54 240.84 138.05
  C 230.61 139.80 221.56 137.12 213.02 131.44
  A 0.33 0.33 0.0 0 0 212.51 131.72
  L 212.51 173.20
  A 0.58 0.58 0.0 0 1 211.93 173.78
  L 180.44 173.78
  A 0.45 0.44 90.0 0 1 180.00 173.33
  L 180.00 157.13
  A 0.64 0.64 0.0 0 1 180.64 156.49
  L 191.47 156.49
  A 0.53 0.53 0.0 0 0 192.00 155.96
  L 192.00 73.09
  A 0.58 0.58 0.0 0 0 191.42 72.51
  L 180.47 72.51
  A 0.47 0.47 0.0 0 1 180.00 72.04
  L 180.00 55.88
  A 0.66 0.66 0.0 0 1 180.66 55.22
  L 211.21 55.22
  A 0.56 0.55 -90.0 0 1 211.76 55.78
  L 211.76 63.44
  A 0.33 0.33 0.0 0 0 212.30 63.69
  Z
  M 212.85 79.52
  A 1.16 1.13 -22.5 0 0 212.50 80.34
  L 212.50 113.42
  A 1.75 1.74 -72.6 0 0 213.24 114.85
  C 224.32 122.71 241.63 124.09 248.94 110.07
  Q 252.95 102.38 252.15 92.83
  C 250.28 70.48 227.92 65.04 212.85 79.52
  Z"
/>
<path fill="#000000" d="
  M 328.74 129.04
  Q 325.88 130.91 323.15 132.59
  Q 311.77 139.59 298.29 138.35
  C 282.85 136.94 272.68 125.89 276.12 109.78
  C 278.83 97.08 292.77 91.43 304.84 90.85
  Q 316.43 90.28 328.28 92.78
  A 0.47 0.47 0.0 0 0 328.85 92.37
  C 329.15 89.95 329.01 87.60 328.87 84.90
  Q 328.23 72.20 315.28 69.97
  Q 308.60 68.82 302.32 70.69
  A 0.36 0.36 0.0 0 0 302.08 71.15
  C 304.16 77.39 300.93 83.86 294.50 85.23
  C 286.18 87.01 279.92 81.68 280.74 72.97
  C 281.40 66.03 286.15 61.23 292.19 57.97
  Q 295.29 56.30 297.85 55.67
  Q 314.29 51.61 327.91 55.47
  Q 342.63 59.64 347.33 73.24
  Q 349.17 78.57 349.06 92.71
  Q 348.94 107.41 349.01 135.88
  A 1.12 1.11 -0.3 0 1 347.89 137.00
  L 329.76 137.00
  A 0.52 0.52 0.0 0 1 329.24 136.48
  L 329.24 129.31
  A 0.32 0.32 0.0 0 0 328.74 129.04
  Z
  M 328.32 103.56
  Q 320.21 101.74 311.28 101.84
  C 305.79 101.90 299.55 104.00 297.30 109.49
  C 294.32 116.77 299.66 123.33 307.07 123.52
  Q 318.62 123.83 328.51 116.54
  A 1.21 1.20 72.3 0 0 329.01 115.56
  L 329.01 104.42
  A 0.88 0.88 0.0 0 0 328.32 103.56
  Z"
/>
<path fill="#000000" d="
  M 422.31 72.29
  C 428.59 62.65 437.35 52.57 449.95 53.77
  C 463.29 55.04 467.44 70.12 456.94 78.23
  A 4.58 4.48 -74.3 0 1 456.02 78.76
  Q 447.47 82.25 440.82 76.20
  C 440.07 75.52 439.37 74.09 438.69 73.26
  A 0.78 0.77 -32.8 0 0 437.74 73.06
  Q 428.19 77.87 422.85 87.65
  A 2.86 2.82 59.5 0 0 422.51 89.00
  L 422.51 119.59
  A 0.41 0.40 -90.0 0 0 422.91 120.00
  L 436.22 120.00
  A 0.56 0.55 -0.0 0 1 436.78 120.55
  L 436.78 136.56
  A 0.45 0.44 0.0 0 1 436.33 137.00
  L 390.35 137.00
  A 0.63 0.63 0.0 0 1 389.72 136.37
  L 389.72 120.45
  A 0.45 0.45 0.0 0 1 390.17 120.00
  L 401.40 120.00
  A 0.60 0.60 0.0 0 0 402.00 119.40
  L 402.00 73.09
  A 0.58 0.58 0.0 0 0 401.42 72.51
  L 390.09 72.51
  A 0.37 0.37 0.0 0 1 389.72 72.14
  L 389.72 55.77
  A 0.55 0.55 0.0 0 1 390.27 55.22
  L 421.22 55.22
  A 0.54 0.54 0.0 0 1 421.76 55.76
  L 421.76 72.13
  A 0.30 0.30 0.0 0 0 422.31 72.29
  Z"
/>
<path fill="#000000" d="
  M 386.00 96.14
  Q 386.01 133.65 385.98 136.71
  A 0.32 0.32 0.0 0 1 385.66 137.03
  L 353.63 137.03
  A 0.60 0.60 0.0 0 1 353.03 136.43
  L 353.03 120.84
  A 0.95 0.94 -90.0 0 1 353.97 119.89
  L 364.79 119.89
  A 0.69 0.68 0.2 0 0 365.48 119.21
  Q 365.50 118.30 365.49 96.15
  Q 365.48 73.99 365.47 73.08
  A 0.69 0.68 -0.2 0 0 364.77 72.40
  L 353.95 72.41
  A 0.95 0.94 90.0 0 1 353.01 71.46
  L 353.00 55.87
  A 0.60 0.60 0.0 0 1 353.60 55.27
  L 385.63 55.25
  A 0.32 0.32 0.0 0 1 385.95 55.56
  Q 385.99 58.62 386.00 96.14
  Z"
/>
<path fill="#000000" d="
  M 689.80 99.71
  C 688.85 123.30 670.23 140.76 646.36 138.15
  C 624.46 135.76 610.38 118.27 611.25 96.58
  C 612.11 74.89 627.54 58.58 649.56 57.94
  C 673.56 57.24 690.74 76.12 689.80 99.71
  Z
  M 618.82 98.28
  C 618.88 116.57 631.24 132.10 650.66 132.04
  C 670.07 131.97 682.33 116.36 682.27 98.07
  C 682.21 79.78 669.85 64.25 650.43 64.31
  C 631.01 64.38 618.75 79.99 618.82 98.28
  Z"
/>
<path fill="#000000" d="
  M 704.59 127.98
  A 0.19 0.19 0.0 0 0 704.28 128.12
  L 704.28 166.71
  A 0.52 0.51 90.0 0 0 704.79 167.23
  L 718.62 167.23
  A 0.65 0.64 0.0 0 1 719.27 167.87
  L 719.27 173.12
  A 0.66 0.66 0.0 0 1 718.61 173.78
  L 697.60 173.78
  A 0.38 0.37 -90.0 0 1 697.23 173.40
  L 697.23 66.34
  A 0.57 0.57 0.0 0 0 696.66 65.77
  L 684.01 65.77
  A 0.53 0.52 -0.0 0 1 683.48 65.25
  L 683.48 59.77
  A 0.55 0.55 0.0 0 1 684.03 59.22
  L 703.82 59.22
  A 0.46 0.45 -90.0 0 1 704.27 59.68
  L 704.27 71.12
  A 0.26 0.26 0.0 0 0 704.73 71.29
  C 715.72 58.73 732.32 54.32 747.62 60.93
  C 766.64 69.17 773.63 91.16 768.41 110.10
  C 760.38 139.27 726.57 147.10 704.59 127.98
  Z
  M 704.76 121.13
  Q 716.22 131.52 730.77 131.95
  C 745.53 132.39 757.05 122.99 761.06 109.05
  C 765.96 91.97 759.62 70.78 740.97 65.50
  C 727.15 61.59 713.58 67.70 704.54 78.65
  A 1.16 1.10 66.3 0 0 704.28 79.38
  L 704.28 120.04
  A 1.48 1.48 0.0 0 0 704.76 121.13
  Z"
/>
<path fill="#000000" d="
  M 787.22 75.27
  C 792.02 68.64 797.40 61.33 805.63 58.69
  C 811.28 56.88 819.17 58.32 819.27 65.53
  C 819.38 73.64 808.33 73.88 806.44 66.23
  A 0.61 0.60 73.8 0 0 805.67 65.80
  C 797.72 68.43 791.97 75.37 787.62 83.05
  A 2.65 2.50 -31.7 0 0 787.28 84.32
  L 787.28 130.11
  A 0.61 0.61 0.0 0 0 787.89 130.72
  L 802.15 130.72
  A 0.37 0.37 0.0 0 1 802.52 131.09
  L 802.52 136.60
  A 0.40 0.39 -90.0 0 1 802.13 137.00
  L 766.83 137.00
  A 0.35 0.35 0.0 0 1 766.48 136.65
  L 766.48 131.03
  A 0.31 0.31 0.0 0 1 766.79 130.72
  L 779.58 130.72
  A 0.42 0.42 0.0 0 0 780.00 130.30
  L 780.00 66.36
  A 0.59 0.59 0.0 0 0 779.41 65.77
  L 766.97 65.77
  A 0.49 0.49 0.0 0 1 766.48 65.28
  L 766.48 59.74
  A 0.52 0.52 0.0 0 1 767.00 59.22
  L 786.21 59.22
  A 0.55 0.55 0.0 0 1 786.76 59.77
  L 786.76 75.12
  A 0.25 0.25 0.0 0 0 787.22 75.27
  Z"
/>
<path fill="#14222f" fill-opacity="0.835" d="
  M 408.11 260.99
  L 408.11 267.57
  A 0.30 0.30 0.0 0 1 407.81 267.87
  L 401.77 267.87
  A 0.23 0.23 0.0 0 1 401.54 267.64
  L 401.54 202.36
  A 0.25 0.25 0.0 0 1 401.79 202.11
  L 407.91 202.11
  A 0.27 0.26 0.0 0 1 408.18 202.37
  L 408.18 229.12
  A 0.27 0.27 0.0 0 0 408.67 229.27
  C 412.44 223.68 418.27 220.76 424.99 220.73
  C 447.18 220.65 453.79 250.87 438.48 263.87
  Q 432.36 269.06 424.07 268.72
  Q 414.89 268.33 408.77 260.76
  A 0.37 0.37 0.0 0 0 408.11 260.99
  Z
  M 424.1562 226.8107
  A 17.90 16.26 -89.5 0 0 407.7406 244.5681
  A 17.90 16.26 -89.5 0 0 423.8438 262.6093
  A 17.90 16.26 -89.5 0 0 440.2594 244.8519
  A 17.90 16.26 -89.5 0 0 424.1562 226.8107
  Z"
/>
<path fill="#14222f" fill-opacity="0.835" d="
  M 628.17 267.99
  A 0.35 0.34 -0.0 0 1 627.82 268.33
  L 622.35 268.33
  A 0.43 0.42 -0.0 0 1 621.92 267.91
  L 621.92 222.12
  A 0.77 0.76 0.0 0 1 622.69 221.36
  L 627.53 221.36
  A 0.56 0.56 0.0 0 1 628.09 221.92
  L 628.09 226.92
  A 0.24 0.24 0.0 0 0 628.51 227.08
  Q 633.07 221.81 640.54 220.82
  C 652.99 219.18 663.97 226.67 664.50 239.56
  Q 664.70 244.38 664.60 268.06
  A 0.29 0.28 90.0 0 1 664.32 268.35
  L 658.80 268.35
  A 0.29 0.29 0.0 0 1 658.51 268.06
  Q 658.55 244.63 658.48 241.74
  Q 658.22 231.49 651.05 228.27
  C 643.01 224.66 632.85 227.13 629.35 236.00
  Q 628.04 239.33 628.15 246.14
  Q 628.24 251.90 628.17 267.99
  Z"
/>
<path fill="#14222f" fill-opacity="0.835" d="
  M 778.2320 220.4445
  A 24.38 24.03 -91.1 0 1 802.7256 244.3587
  A 24.38 24.03 -91.1 0 1 779.1680 269.1955
  A 24.38 24.03 -91.1 0 1 754.6744 245.2813
  A 24.38 24.03 -91.1 0 1 778.2320 220.4445
  Z
  M 779.3271 226.4601
  A 18.31 17.86 -88.1 0 0 760.8698 244.1678
  A 18.31 17.86 -88.1 0 0 778.1129 263.0599
  A 18.31 17.86 -88.1 0 0 796.5702 245.3522
  A 18.31 17.86 -88.1 0 0 779.3271 226.4601
  Z"
/>
<path fill="#14222f" fill-opacity="0.835" d="
  M 524.32 259.36
  A 0.36 0.36 0.0 0 1 524.37 258.90
  L 527.96 255.31
  A 0.48 0.48 0.0 0 1 528.67 255.34
  Q 536.66 264.85 549.90 262.59
  C 553.43 261.99 556.80 260.48 557.94 257.04
  C 559.79 251.47 554.32 249.15 549.83 248.18
  C 545.71 247.29 539.02 246.55 533.34 244.39
  C 528.73 242.64 525.76 238.60 526.04 233.69
  Q 526.47 226.08 533.38 223.00
  C 542.81 218.81 554.77 220.07 562.56 227.22
  A 0.48 0.47 43.8 0 1 562.58 227.91
  L 559.31 231.18
  A 0.48 0.47 -47.8 0 1 558.67 231.22
  Q 549.44 223.98 537.04 227.82
  Q 534.12 228.72 532.85 231.09
  C 529.85 236.70 535.60 239.53 540.28 240.47
  Q 545.81 241.59 551.37 242.62
  C 557.50 243.76 564.40 247.29 564.44 254.63
  Q 564.50 264.23 554.95 267.42
  C 544.58 270.89 530.83 269.13 524.32 259.36
  Z"
/>
<path fill="#14222f" fill-opacity="0.835" d="
  M 678.19 244.85
  C 678.20 254.99 684.73 262.19 695.04 262.74
  Q 703.39 263.19 709.27 257.39
  A 0.64 0.64 0.0 0 1 710.17 257.39
  L 713.50 260.72
  A 0.58 0.58 0.0 0 1 713.49 261.55
  Q 704.24 270.14 692.32 268.43
  C 680.04 266.67 672.06 257.22 672.05 244.85
  C 672.04 232.49 680.00 223.02 692.28 221.24
  Q 704.19 219.51 713.46 228.08
  A 0.58 0.58 0.0 0 1 713.47 228.91
  L 710.15 232.25
  A 0.64 0.64 0.0 0 1 709.25 232.25
  Q 703.36 226.46 695.01 226.93
  C 684.70 227.49 678.18 234.71 678.19 244.85
  Z"
/>
<path fill="#14222f" fill-opacity="0.835" d="
  M 728.70 226.61
  Q 730.59 224.26 733.04 223.10
  Q 743.08 218.36 752.54 223.78
  A 0.68 0.68 0.0 0 1 752.79 224.71
  L 750.47 228.73
  A 0.61 0.61 0.0 0 1 749.63 228.95
  C 739.85 223.27 728.51 229.73 728.16 241.14
  Q 728.01 245.77 728.11 267.85
  A 0.48 0.48 0.0 0 1 727.63 268.33
  L 722.42 268.33
  A 0.50 0.49 0.0 0 1 721.92 267.84
  L 721.92 222.28
  A 0.91 0.91 0.0 0 1 722.83 221.37
  L 726.97 221.37
  A 0.94 0.94 0.0 0 1 727.91 222.31
  L 727.91 226.33
  A 0.44 0.44 0.0 0 0 728.70 226.61
  Z"
/>
<path fill="#14222f" fill-opacity="0.835" d="
  M 490.13 221.40
  L 496.43 221.40
  A 0.15 0.15 0.0 0 1 496.57 221.60
  Q 481.24 260.81 475.85 274.30
  Q 469.38 290.47 451.74 287.82
  Q 448.69 287.36 445.18 284.73
  A 0.37 0.36 -57.3 0 1 445.08 284.25
  L 447.61 279.86
  A 0.29 0.29 0.0 0 1 448.03 279.77
  Q 455.19 284.68 463.48 280.50
  C 467.89 278.29 470.71 271.74 471.89 267.25
  A 1.86 1.84 40.6 0 0 471.79 266.04
  L 452.06 221.56
  A 0.13 0.13 0.0 0 1 452.18 221.38
  L 458.30 221.38
  A 0.27 0.26 -12.2 0 1 458.54 221.53
  L 475.14 258.97
  A 0.23 0.23 0.0 0 0 475.56 258.96
  L 489.73 221.68
  A 0.44 0.42 -78.9 0 1 490.13 221.40
  Z"
/>
<path fill="#14222f" fill-opacity="0.835" d="
  M 608.13 221.38
  L 614.44 221.39
  A 0.15 0.15 0.0 0 1 614.58 221.59
  Q 599.24 260.81 593.85 274.30
  Q 587.38 290.47 569.73 287.82
  Q 566.68 287.36 563.17 284.73
  A 0.37 0.36 -57.3 0 1 563.07 284.25
  L 565.60 279.86
  A 0.29 0.29 0.0 0 1 566.02 279.77
  Q 573.18 284.68 581.47 280.50
  C 585.89 278.29 588.71 271.74 589.89 267.25
  A 1.86 1.84 40.6 0 0 589.79 266.04
  L 570.05 221.54
  A 0.13 0.13 0.0 0 1 570.17 221.36
  L 576.30 221.36
  A 0.27 0.26 -12.2 0 1 576.54 221.51
  L 593.14 258.96
  A 0.23 0.23 0.0 0 0 593.56 258.95
  L 607.73 221.66
  A 0.44 0.42 -78.9 0 1 608.13 221.38
  Z"
/>
</svg>
