<?xml version="1.0" encoding="UTF-8" standalone="no"?>
<!DOCTYPE svg PUBLIC "-//W3C//DTD SVG 1.1//EN" "http://www.w3.org/Graphics/SVG/1.1/DTD/svg11.dtd">
<svg xmlns="http://www.w3.org/2000/svg" version="1.1" viewBox="0.00 0.00 500.00 500.00">
<g stroke-width="2.00" fill="none" stroke-linecap="butt">
<path stroke="#88b2fb" vector-effect="non-scaling-stroke" d="
  M 276.60 192.72
  L 299.96 192.74"
/>
<path stroke="#88b2fb" vector-effect="non-scaling-stroke" d="
  M 428.08 192.47
  L 428.32 192.64
  A 0.65 0.62 -26.5 0 0 428.68 192.75
  L 451.46 192.76"
/>
<path stroke="#88b2fb" vector-effect="non-scaling-stroke" d="
  M 223.26 293.07
  L 200.08 293.08"
/>
<path stroke="#88b2fb" vector-effect="non-scaling-stroke" d="
  M 72.00 293.09
  L 48.83 293.18"
/>
<path stroke="#a97e88" vector-effect="non-scaling-stroke" d="
  M 125.91 192.70
  L 149.31 192.48"
/>
<path stroke="#a9b9ff" vector-effect="non-scaling-stroke" d="
  M 61.62 268.21
  A 0.78 0.78 0.0 0 0 62.40 268.99
  L 112.49 268.99
  A 0.78 0.78 0.0 0 0 113.27 268.21
  L 113.27 253.97
  A 0.78 0.78 0.0 0 0 112.49 253.19
  L 82.37 253.19
  A 0.78 0.78 0.0 0 1 81.59 252.41
  L 81.59 207.85
  A 0.78 0.78 0.0 0 0 80.81 207.07
  L 62.40 207.07
  A 0.78 0.78 0.0 0 0 61.62 207.85
  L 61.62 268.21"
/>
<path stroke="#a9b9ff" vector-effect="non-scaling-stroke" d="
  M 375.46 227.32
  L 374.72 222.63
  A 1.47 1.47 0.0 0 0 373.27 221.40
  L 359.80 221.40
  A 0.82 0.81 -10.5 0 1 359.04 220.88
  Q 353.83 207.39 339.97 207.28
  Q 324.37 207.15 305.82 207.24
  A 0.39 0.39 0.0 0 0 305.43 207.63
  L 305.43 267.93
  A 1.02 1.02 0.0 0 0 306.45 268.95
  L 324.86 268.95
  A 0.47 0.47 0.0 0 0 325.33 268.48
  L 325.33 249.75
  A 0.68 0.68 0.0 0 1 326.00 249.07
  Q 330.06 249.01 335.83 249.09
  Q 342.58 249.18 345.64 248.33
  Q 355.75 245.54 359.26 234.34
  A 0.16 0.16 0.0 0 1 359.58 234.39
  L 359.58 268.42
  A 0.55 0.55 0.0 0 0 360.13 268.97
  L 377.06 268.97
  A 0.49 0.49 0.0 0 0 377.55 268.48
  Q 377.62 261.70 377.52 251.83
  C 377.42 242.68 378.51 236.12 388.78 236.50
  A 0.47 0.46 7.2 0 1 389.22 237.06
  C 385.45 253.33 391.93 267.65 409.40 269.72
  Q 417.15 270.63 423.23 269.26
  C 438.09 265.91 443.85 253.46 441.06 238.92
  C 437.88 222.33 421.15 218.51 406.55 221.38
  Q 399.75 222.72 394.75 227.43
  A 0.55 0.55 0.0 0 1 393.83 227.03
  L 393.83 222.05
  A 1.02 1.02 0.0 0 0 393.09 221.07
  C 387.78 219.61 380.40 220.63 376.89 225.38
  C 376.25 226.26 376.24 226.62 375.88 227.38
  A 0.22 0.22 0.0 0 1 375.46 227.32"
/>
<path stroke="#a9b9ff" vector-effect="non-scaling-stroke" d="
  M 206.37 236.39
  Q 206.21 235.88 205.32 231.78
  C 203.84 225.03 199.08 221.31 192.12 220.64
  Q 180.95 219.56 173.04 228.15
  A 0.25 0.24 62.1 0 1 172.62 228.02
  L 171.69 222.16
  A 0.77 0.77 0.0 0 0 170.93 221.51
  L 143.69 221.51
  A 0.91 0.90 7.4 0 0 142.81 222.18
  L 134.84 252.50
  A 0.50 0.50 0.0 0 1 133.88 252.51
  L 125.25 222.20
  A 0.99 0.98 -7.7 0 0 124.30 221.48
  L 106.39 221.48
  A 0.52 0.52 0.0 0 0 105.91 222.19
  Q 115.92 247.42 123.82 266.99
  C 125.58 271.37 121.99 275.19 117.75 275.41
  Q 113.61 275.63 109.88 275.46
  A 0.47 0.46 -88.8 0 0 109.40 275.93
  L 109.40 285.82
  A 0.75 0.74 -82.4 0 0 109.94 286.54
  C 116.57 288.43 125.72 288.82 131.56 285.10
  C 137.77 281.16 141.12 274.65 143.77 267.53
  Q 148.62 254.51 156.45 232.95
  A 0.23 0.23 0.0 0 1 156.90 233.03
  L 156.90 268.31
  A 0.67 0.66 -0.0 0 0 157.57 268.97
  L 174.40 268.97
  A 0.42 0.42 0.0 0 0 174.82 268.55
  Q 174.95 250.00 174.81 244.08
  Q 174.68 238.94 176.03 236.98
  C 178.89 232.79 186.37 232.17 187.87 238.17
  Q 188.11 239.15 188.15 243.89
  Q 188.22 252.88 188.12 268.33
  A 0.63 0.62 0.0 0 0 188.75 268.95
  L 205.63 268.95
  A 0.53 0.53 0.0 0 0 206.16 268.42
  L 206.25 253.52
  A 0.02 0.02 0.0 0 1 206.27 253.50
  L 206.52 253.49
  A 0.22 0.21 -5.8 0 1 206.75 253.67
  Q 207.35 257.56 209.56 260.48
  C 215.43 268.24 224.23 270.35 234.06 270.05
  C 243.06 269.77 252.12 266.96 256.43 258.92
  A 0.19 0.19 0.0 0 1 256.77 258.93
  C 259.37 264.23 264.44 267.55 270.09 268.83
  C 282.99 271.77 306.76 271.00 304.58 251.25
  C 303.06 237.41 285.21 240.42 275.23 235.92
  A 1.97 1.73 -60.8 0 1 274.64 233.16
  Q 275.42 231.95 276.98 231.68
  C 280.84 231.02 285.57 230.75 287.16 235.06
  A 1.06 1.05 -9.7 0 0 288.16 235.76
  L 302.74 235.76
  A 0.87 0.87 0.0 0 0 303.61 234.86
  C 303.11 221.67 285.82 219.86 275.93 220.88
  C 268.14 221.68 259.62 224.09 257.43 232.25
  A 0.37 0.37 0.0 0 1 256.73 232.29
  C 253.77 224.52 243.23 221.00 235.51 220.53
  C 223.15 219.78 210.54 223.44 206.71 236.39
  A 0.18 0.18 0.0 0 1 206.37 236.39"
/>
<path stroke="#a97e88" vector-effect="non-scaling-stroke" d="
  M 374.14 293.47
  L 372.98 292.99
  A 0.76 0.70 55.4 0 0 372.67 292.92
  L 350.78 293.29"
/>
<path stroke="#a9b9ff" vector-effect="non-scaling-stroke" d="
  M 325.38 222.34
  L 325.32 233.96
  A 0.49 0.49 0.0 0 0 325.81 234.46
  L 334.01 234.50
  A 5.61 5.40 0.3 0 0 339.65 229.13
  L 339.65 227.33
  A 5.61 5.40 0.3 0 0 334.07 221.90
  L 325.87 221.86
  A 0.49 0.49 0.0 0 0 325.38 222.34"
/>
<path stroke="#a9b9ff" vector-effect="non-scaling-stroke" d="
  M 423.74 240.80
  A 8.12 8.12 0.0 0 0 415.62 232.68
  L 414.28 232.68
  A 8.12 8.12 0.0 0 0 406.16 240.80
  L 406.16 249.74
  A 8.12 8.12 0.0 0 0 414.28 257.86
  L 415.62 257.86
  A 8.12 8.12 0.0 0 0 423.74 249.74
  L 423.74 240.80"
/>
<path stroke="#a9b9ff" vector-effect="non-scaling-stroke" d="
  M 259.03 253.49
  L 271.63 253.49
  A 1.09 1.09 0.0 0 1 272.72 254.51
  C 273.14 260.24 281.88 259.88 285.73 258.46
  C 287.55 257.78 288.31 256.13 287.37 254.44
  A 1.57 1.52 85.4 0 0 286.60 253.76
  Q 283.17 252.44 280.72 252.08
  Q 274.46 251.16 268.05 249.48
  Q 260.53 247.50 257.83 241.34
  A 0.92 0.92 0.0 0 0 256.99 240.79
  L 241.70 240.79
  A 0.99 0.99 0.0 0 1 240.71 239.79
  C 240.76 233.99 235.08 232.10 230.28 232.94
  C 226.05 233.68 223.86 236.17 223.56 240.55
  Q 223.24 245.37 223.56 249.78
  C 224.10 257.14 230.51 259.33 236.77 257.22
  Q 241.51 255.63 241.56 250.50
  A 0.86 0.86 0.0 0 1 242.42 249.65
  L 257.62 249.65
  A 0.50 0.46 -23.0 0 1 257.93 249.76
  Q 258.77 250.41 258.16 252.29
  A 0.92 0.92 0.0 0 0 259.03 253.49"
/>
</g>
<path fill="#5372ff" d="
  M 276.60 192.72
  L 299.96 192.74
  L 428.08 192.47
  L 428.32 192.64
  A 0.65 0.62 -26.5 0 0 428.68 192.75
  L 451.46 192.76
  Q 451.90 193.15 451.90 193.63
  Q 451.80 242.88 451.89 292.14
  A 1.31 1.17 62.5 0 1 451.73 292.76
  L 451.53 293.09
  A 2.24 2.21 60.1 0 0 451.24 294.19
  L 451.24 441.57
  A 0.43 0.43 0.0 0 1 450.81 442.00
  L 276.94 442.00
  A 0.36 0.35 90.0 0 1 276.59 441.64
  L 276.59 293.40
  A 0.30 0.30 0.0 0 0 276.29 293.10
  L 223.26 293.07
  L 200.08 293.08
  L 72.00 293.09
  L 48.83 293.18
  Q 48.11 293.02 48.11 292.37
  Q 48.19 243.33 48.08 194.28
  A 3.17 2.69 54.4 0 1 48.12 193.79
  Q 48.55 191.56 48.55 191.50
  Q 48.75 73.43 48.51 45.34
  A 0.34 0.34 0.0 0 1 48.85 45.00
  L 222.90 45.00
  A 0.58 0.58 0.0 0 1 223.48 45.58
  L 223.48 192.34
  A 0.37 0.37 0.0 0 0 223.85 192.71
  L 276.60 192.72
  Z
  M 125.91 192.70
  L 149.31 192.48
  L 149.54 192.64
  A 0.55 0.54 63.9 0 0 149.88 192.76
  L 199.71 192.76
  A 0.37 0.37 0.0 0 0 200.08 192.39
  L 200.08 68.85
  A 0.61 0.60 -0.0 0 0 199.47 68.25
  L 72.63 68.25
  A 0.61 0.61 0.0 0 0 72.02 68.86
  L 72.02 192.44
  A 0.28 0.28 0.0 0 0 72.30 192.72
  L 125.91 192.70
  Z
  M 61.62 268.21
  A 0.78 0.78 0.0 0 0 62.40 268.99
  L 112.49 268.99
  A 0.78 0.78 0.0 0 0 113.27 268.21
  L 113.27 253.97
  A 0.78 0.78 0.0 0 0 112.49 253.19
  L 82.37 253.19
  A 0.78 0.78 0.0 0 1 81.59 252.41
  L 81.59 207.85
  A 0.78 0.78 0.0 0 0 80.81 207.07
  L 62.40 207.07
  A 0.78 0.78 0.0 0 0 61.62 207.85
  L 61.62 268.21
  Z
  M 375.46 227.32
  L 374.72 222.63
  A 1.47 1.47 0.0 0 0 373.27 221.40
  L 359.80 221.40
  A 0.82 0.81 -10.5 0 1 359.04 220.88
  Q 353.83 207.39 339.97 207.28
  Q 324.37 207.15 305.82 207.24
  A 0.39 0.39 0.0 0 0 305.43 207.63
  L 305.43 267.93
  A 1.02 1.02 0.0 0 0 306.45 268.95
  L 324.86 268.95
  A 0.47 0.47 0.0 0 0 325.33 268.48
  L 325.33 249.75
  A 0.68 0.68 0.0 0 1 326.00 249.07
  Q 330.06 249.01 335.83 249.09
  Q 342.58 249.18 345.64 248.33
  Q 355.75 245.54 359.26 234.34
  A 0.16 0.16 0.0 0 1 359.58 234.39
  L 359.58 268.42
  A 0.55 0.55 0.0 0 0 360.13 268.97
  L 377.06 268.97
  A 0.49 0.49 0.0 0 0 377.55 268.48
  Q 377.62 261.70 377.52 251.83
  C 377.42 242.68 378.51 236.12 388.78 236.50
  A 0.47 0.46 7.2 0 1 389.22 237.06
  C 385.45 253.33 391.93 267.65 409.40 269.72
  Q 417.15 270.63 423.23 269.26
  C 438.09 265.91 443.85 253.46 441.06 238.92
  C 437.88 222.33 421.15 218.51 406.55 221.38
  Q 399.75 222.72 394.75 227.43
  A 0.55 0.55 0.0 0 1 393.83 227.03
  L 393.83 222.05
  A 1.02 1.02 0.0 0 0 393.09 221.07
  C 387.78 219.61 380.40 220.63 376.89 225.38
  C 376.25 226.26 376.24 226.62 375.88 227.38
  A 0.22 0.22 0.0 0 1 375.46 227.32
  Z
  M 206.37 236.39
  Q 206.21 235.88 205.32 231.78
  C 203.84 225.03 199.08 221.31 192.12 220.64
  Q 180.95 219.56 173.04 228.15
  A 0.25 0.24 62.1 0 1 172.62 228.02
  L 171.69 222.16
  A 0.77 0.77 0.0 0 0 170.93 221.51
  L 143.69 221.51
  A 0.91 0.90 7.4 0 0 142.81 222.18
  L 134.84 252.50
  A 0.50 0.50 0.0 0 1 133.88 252.51
  L 125.25 222.20
  A 0.99 0.98 -7.7 0 0 124.30 221.48
  L 106.39 221.48
  A 0.52 0.52 0.0 0 0 105.91 222.19
  Q 115.92 247.42 123.82 266.99
  C 125.58 271.37 121.99 275.19 117.75 275.41
  Q 113.61 275.63 109.88 275.46
  A 0.47 0.46 -88.8 0 0 109.40 275.93
  L 109.40 285.82
  A 0.75 0.74 -82.4 0 0 109.94 286.54
  C 116.57 288.43 125.72 288.82 131.56 285.10
  C 137.77 281.16 141.12 274.65 143.77 267.53
  Q 148.62 254.51 156.45 232.95
  A 0.23 0.23 0.0 0 1 156.90 233.03
  L 156.90 268.31
  A 0.67 0.66 -0.0 0 0 157.57 268.97
  L 174.40 268.97
  A 0.42 0.42 0.0 0 0 174.82 268.55
  Q 174.95 250.00 174.81 244.08
  Q 174.68 238.94 176.03 236.98
  C 178.89 232.79 186.37 232.17 187.87 238.17
  Q 188.11 239.15 188.15 243.89
  Q 188.22 252.88 188.12 268.33
  A 0.63 0.62 0.0 0 0 188.75 268.95
  L 205.63 268.95
  A 0.53 0.53 0.0 0 0 206.16 268.42
  L 206.25 253.52
  A 0.02 0.02 0.0 0 1 206.27 253.50
  L 206.52 253.49
  A 0.22 0.21 -5.8 0 1 206.75 253.67
  Q 207.35 257.56 209.56 260.48
  C 215.43 268.24 224.23 270.35 234.06 270.05
  C 243.06 269.77 252.12 266.96 256.43 258.92
  A 0.19 0.19 0.0 0 1 256.77 258.93
  C 259.37 264.23 264.44 267.55 270.09 268.83
  C 282.99 271.77 306.76 271.00 304.58 251.25
  C 303.06 237.41 285.21 240.42 275.23 235.92
  A 1.97 1.73 -60.8 0 1 274.64 233.16
  Q 275.42 231.95 276.98 231.68
  C 280.84 231.02 285.57 230.75 287.16 235.06
  A 1.06 1.05 -9.7 0 0 288.16 235.76
  L 302.74 235.76
  A 0.87 0.87 0.0 0 0 303.61 234.86
  C 303.11 221.67 285.82 219.86 275.93 220.88
  C 268.14 221.68 259.62 224.09 257.43 232.25
  A 0.37 0.37 0.0 0 1 256.73 232.29
  C 253.77 224.52 243.23 221.00 235.51 220.53
  C 223.15 219.78 210.54 223.44 206.71 236.39
  A 0.18 0.18 0.0 0 1 206.37 236.39
  Z
  M 374.14 293.47
  L 372.98 292.99
  A 0.76 0.70 55.4 0 0 372.67 292.92
  L 350.78 293.29
  L 350.55 293.13
  A 0.30 0.30 0.0 0 0 350.37 293.07
  L 300.58 293.07
  A 0.57 0.57 0.0 0 0 300.01 293.64
  L 300.01 418.19
  A 0.32 0.31 90.0 0 0 300.32 418.51
  L 427.43 418.51
  A 0.64 0.64 0.0 0 0 428.07 417.87
  L 428.07 293.73
  A 0.66 0.66 0.0 0 0 427.41 293.07
  L 374.76 293.07
  A 0.81 0.77 23.5 0 0 374.24 293.26
  Q 373.96 293.49 374.14 293.47
  Z"
/>
<path fill="#bcf1f7" d="
  M 451.46 192.76
  L 428.68 192.75
  A 0.65 0.62 -26.5 0 1 428.32 192.64
  L 428.08 192.47
  L 428.08 68.57
  A 0.32 0.32 0.0 0 0 427.76 68.25
  L 300.53 68.25
  A 0.53 0.53 0.0 0 0 300.00 68.78
  L 300.00 104.42
  A 0.58 0.58 0.0 0 1 299.42 105.00
  L 277.14 105.00
  A 0.55 0.55 0.0 0 1 276.59 104.45
  L 276.59 45.64
  A 0.64 0.64 0.0 0 1 277.23 45.00
  L 450.65 45.00
  A 0.55 0.54 90.0 0 1 451.19 45.55
  L 451.46 192.76
  Z"
/>
<path fill="#ff8910" d="
  M 149.31 192.48
  L 125.91 192.70
  L 125.92 119.65
  A 0.42 0.41 90.0 0 1 126.33 119.23
  L 185.60 119.23
  A 0.43 0.43 0.0 0 1 186.03 119.66
  L 186.03 142.08
  A 0.43 0.42 0.0 0 1 185.60 142.50
  L 149.84 142.50
  A 0.54 0.54 0.0 0 0 149.30 143.04
  L 149.31 192.48
  Z"
/>
<path fill="#ff8910" d="
  M 373.78 182.53
  L 351.14 182.53
  A 0.38 0.38 0.0 0 1 350.76 182.15
  L 350.76 142.94
  A 0.38 0.38 0.0 0 0 350.38 142.56
  L 237.97 142.56
  A 0.38 0.38 0.0 0 1 237.59 142.18
  L 237.59 119.56
  A 0.38 0.38 0.0 0 1 237.97 119.18
  L 373.78 119.18
  A 0.38 0.38 0.0 0 1 374.16 119.56
  L 374.16 182.15
  A 0.38 0.38 0.0 0 1 373.78 182.53
  Z"
/>
<path fill="#bcf1f7" d="
  M 299.96 192.74
  L 276.60 192.72
  L 276.67 157.33
  A 0.57 0.57 0.0 0 1 277.24 156.76
  L 299.37 156.76
  A 0.59 0.59 0.0 0 1 299.96 157.35
  L 299.96 192.74
  Z"
/>
<path fill="#ffffff" d="
  M 61.62 268.21
  L 61.62 207.85
  A 0.78 0.78 0.0 0 1 62.40 207.07
  L 80.81 207.07
  A 0.78 0.78 0.0 0 1 81.59 207.85
  L 81.59 252.41
  A 0.78 0.78 0.0 0 0 82.37 253.19
  L 112.49 253.19
  A 0.78 0.78 0.0 0 1 113.27 253.97
  L 113.27 268.21
  A 0.78 0.78 0.0 0 1 112.49 268.99
  L 62.40 268.99
  A 0.78 0.78 0.0 0 1 61.62 268.21
  Z"
/>
<path fill="#ffffff" d="
  M 375.88 227.38
  C 376.24 226.62 376.25 226.26 376.89 225.38
  C 380.40 220.63 387.78 219.61 393.09 221.07
  A 1.02 1.02 0.0 0 1 393.83 222.05
  L 393.83 227.03
  A 0.55 0.55 0.0 0 0 394.75 227.43
  Q 399.75 222.72 406.55 221.38
  C 421.15 218.51 437.88 222.33 441.06 238.92
  C 443.85 253.46 438.09 265.91 423.23 269.26
  Q 417.15 270.63 409.40 269.72
  C 391.93 267.65 385.45 253.33 389.22 237.06
  A 0.47 0.46 7.2 0 0 388.78 236.50
  C 378.51 236.12 377.42 242.68 377.52 251.83
  Q 377.62 261.70 377.55 268.48
  A 0.49 0.49 0.0 0 1 377.06 268.97
  L 360.13 268.97
  A 0.55 0.55 0.0 0 1 359.58 268.42
  L 359.58 234.39
  A 0.16 0.16 0.0 0 0 359.26 234.34
  Q 355.75 245.54 345.64 248.33
  Q 342.58 249.18 335.83 249.09
  Q 330.06 249.01 326.00 249.07
  A 0.68 0.68 0.0 0 0 325.33 249.75
  L 325.33 268.48
  A 0.47 0.47 0.0 0 1 324.86 268.95
  L 306.45 268.95
  A 1.02 1.02 0.0 0 1 305.43 267.93
  L 305.43 207.63
  A 0.39 0.39 0.0 0 1 305.82 207.24
  Q 324.37 207.15 339.97 207.28
  Q 353.83 207.39 359.04 220.88
  A 0.82 0.81 -10.5 0 0 359.80 221.40
  L 373.27 221.40
  A 1.47 1.47 0.0 0 1 374.72 222.63
  L 375.46 227.32
  A 0.22 0.22 0.0 0 0 375.88 227.38
  Z
  M 325.38 222.34
  L 325.32 233.96
  A 0.49 0.49 0.0 0 0 325.81 234.46
  L 334.01 234.50
  A 5.61 5.40 0.3 0 0 339.65 229.13
  L 339.65 227.33
  A 5.61 5.40 0.3 0 0 334.07 221.90
  L 325.87 221.86
  A 0.49 0.49 0.0 0 0 325.38 222.34
  Z
  M 423.74 240.80
  A 8.12 8.12 0.0 0 0 415.62 232.68
  L 414.28 232.68
  A 8.12 8.12 0.0 0 0 406.16 240.80
  L 406.16 249.74
  A 8.12 8.12 0.0 0 0 414.28 257.86
  L 415.62 257.86
  A 8.12 8.12 0.0 0 0 423.74 249.74
  L 423.74 240.80
  Z"
/>
<path fill="#ffffff" d="
  M 206.71 236.39
  C 210.54 223.44 223.15 219.78 235.51 220.53
  C 243.23 221.00 253.77 224.52 256.73 232.29
  A 0.37 0.37 0.0 0 0 257.43 232.25
  C 259.62 224.09 268.14 221.68 275.93 220.88
  C 285.82 219.86 303.11 221.67 303.61 234.86
  A 0.87 0.87 0.0 0 1 302.74 235.76
  L 288.16 235.76
  A 1.06 1.05 -9.7 0 1 287.16 235.06
  C 285.57 230.75 280.84 231.02 276.98 231.68
  Q 275.42 231.95 274.64 233.16
  A 1.97 1.73 -60.8 0 0 275.23 235.92
  C 285.21 240.42 303.06 237.41 304.58 251.25
  C 306.76 271.00 282.99 271.77 270.09 268.83
  C 264.44 267.55 259.37 264.23 256.77 258.93
  A 0.19 0.19 0.0 0 0 256.43 258.92
  C 252.12 266.96 243.06 269.77 234.06 270.05
  C 224.23 270.35 215.43 268.24 209.56 260.48
  Q 207.35 257.56 206.75 253.67
  A 0.22 0.21 -5.8 0 0 206.52 253.49
  L 206.27 253.50
  A 0.02 0.02 0.0 0 0 206.25 253.52
  L 206.16 268.42
  A 0.53 0.53 0.0 0 1 205.63 268.95
  L 188.75 268.95
  A 0.63 0.62 -0.0 0 1 188.12 268.33
  Q 188.22 252.88 188.15 243.89
  Q 188.11 239.15 187.87 238.17
  C 186.37 232.17 178.89 232.79 176.03 236.98
  Q 174.68 238.94 174.81 244.08
  Q 174.95 250.00 174.82 268.55
  A 0.42 0.42 0.0 0 1 174.40 268.97
  L 157.57 268.97
  A 0.67 0.66 -0.0 0 1 156.90 268.31
  L 156.90 233.03
  A 0.23 0.23 0.0 0 0 156.45 232.95
  Q 148.62 254.51 143.77 267.53
  C 141.12 274.65 137.77 281.16 131.56 285.10
  C 125.72 288.82 116.57 288.43 109.94 286.54
  A 0.75 0.74 -82.4 0 1 109.40 285.82
  L 109.40 275.93
  A 0.47 0.46 -88.8 0 1 109.88 275.46
  Q 113.61 275.63 117.75 275.41
  C 121.99 275.19 125.58 271.37 123.82 266.99
  Q 115.92 247.42 105.91 222.19
  A 0.52 0.52 0.0 0 1 106.39 221.48
  L 124.30 221.48
  A 0.99 0.98 -7.7 0 1 125.25 222.20
  L 133.88 252.51
  A 0.50 0.50 0.0 0 0 134.84 252.50
  L 142.81 222.18
  A 0.91 0.90 7.4 0 1 143.69 221.51
  L 170.93 221.51
  A 0.77 0.77 0.0 0 1 171.69 222.16
  L 172.62 228.02
  A 0.25 0.24 62.1 0 0 173.04 228.15
  Q 180.95 219.56 192.12 220.64
  C 199.08 221.31 203.84 225.03 205.32 231.78
  Q 206.21 235.88 206.37 236.39
  A 0.18 0.18 0.0 0 0 206.71 236.39
  Z
  M 259.03 253.49
  L 271.63 253.49
  A 1.09 1.09 0.0 0 1 272.72 254.51
  C 273.14 260.24 281.88 259.88 285.73 258.46
  C 287.55 257.78 288.31 256.13 287.37 254.44
  A 1.57 1.52 85.4 0 0 286.60 253.76
  Q 283.17 252.44 280.72 252.08
  Q 274.46 251.16 268.05 249.48
  Q 260.53 247.50 257.83 241.34
  A 0.92 0.92 0.0 0 0 256.99 240.79
  L 241.70 240.79
  A 0.99 0.99 0.0 0 1 240.71 239.79
  C 240.76 233.99 235.08 232.10 230.28 232.94
  C 226.05 233.68 223.86 236.17 223.56 240.55
  Q 223.24 245.37 223.56 249.78
  C 224.10 257.14 230.51 259.33 236.77 257.22
  Q 241.51 255.63 241.56 250.50
  A 0.86 0.86 0.0 0 1 242.42 249.65
  L 257.62 249.65
  A 0.50 0.46 -23.0 0 1 257.93 249.76
  Q 258.77 250.41 258.16 252.29
  A 0.92 0.92 0.0 0 0 259.03 253.49
  Z"
/>
<path fill="#5372ff" d="
  M 325.38 222.34
  A 0.49 0.49 0.0 0 1 325.87 221.86
  L 334.07 221.90
  A 5.61 5.40 0.3 0 1 339.65 227.33
  L 339.65 229.13
  A 5.61 5.40 0.3 0 1 334.01 234.50
  L 325.81 234.46
  A 0.49 0.49 0.0 0 1 325.32 233.96
  L 325.38 222.34
  Z"
/>
<path fill="#5372ff" d="
  M 259.03 253.49
  A 0.92 0.92 0.0 0 1 258.16 252.29
  Q 258.77 250.41 257.93 249.76
  A 0.50 0.46 -23.0 0 0 257.62 249.65
  L 242.42 249.65
  A 0.86 0.86 0.0 0 0 241.56 250.50
  Q 241.51 255.63 236.77 257.22
  C 230.51 259.33 224.10 257.14 223.56 249.78
  Q 223.24 245.37 223.56 240.55
  C 223.86 236.17 226.05 233.68 230.28 232.94
  C 235.08 232.10 240.76 233.99 240.71 239.79
  A 0.99 0.99 0.0 0 0 241.70 240.79
  L 256.99 240.79
  A 0.92 0.92 0.0 0 1 257.83 241.34
  Q 260.53 247.50 268.05 249.48
  Q 274.46 251.16 280.72 252.08
  Q 283.17 252.44 286.60 253.76
  A 1.57 1.52 85.4 0 1 287.37 254.44
  C 288.31 256.13 287.55 257.78 285.73 258.46
  C 281.88 259.88 273.14 260.24 272.72 254.51
  A 1.09 1.09 0.0 0 0 271.63 253.49
  L 259.03 253.49
  Z"
/>
<rect fill="#5372ff" x="406.16" y="232.68" width="17.58" height="25.18" rx="8.12"/>
<path fill="#bcf1f7" d="
  M 72.00 293.09
  L 72.00 417.97
  A 0.54 0.53 -0.0 0 0 72.54 418.50
  L 199.48 418.50
  A 0.60 0.59 -0.0 0 0 200.08 417.91
  L 200.08 382.31
  A 0.56 0.56 0.0 0 1 200.64 381.75
  L 222.67 381.75
  A 0.61 0.61 0.0 0 1 223.28 382.36
  L 223.28 441.67
  A 0.34 0.33 0.0 0 1 222.94 442.00
  L 49.18 442.00
  A 0.37 0.36 90.0 0 1 48.82 441.63
  L 48.83 293.18
  L 72.00 293.09
  Z"
/>
<path fill="#bcf1f7" d="
  M 223.26 293.07
  L 223.26 329.65
  A 0.59 0.58 0.0 0 1 222.67 330.23
  L 200.67 330.23
  A 0.57 0.56 90.0 0 1 200.11 329.66
  L 200.08 293.08
  L 223.26 293.07
  Z"
/>
<path fill="#ff8910" d="
  M 374.14 293.47
  L 374.12 367.18
  A 0.57 0.57 0.0 0 1 373.55 367.75
  L 314.69 367.75
  A 0.63 0.63 0.0 0 1 314.06 367.12
  L 314.06 344.85
  A 0.61 0.61 0.0 0 1 314.67 344.24
  L 350.20 344.24
  A 0.58 0.58 0.0 0 0 350.78 343.66
  L 350.78 293.29
  L 372.67 292.92
  A 0.76 0.70 55.4 0 1 372.98 292.99
  L 374.14 293.47
  Z"
/>
<path fill="#ff8910" d="
  M 126.60 367.68
  A 0.72 0.72 0.0 0 1 125.88 366.96
  L 125.89 304.88
  A 0.62 0.61 0.0 0 1 126.51 304.27
  L 148.76 304.27
  A 0.56 0.56 0.0 0 1 149.32 304.83
  L 149.31 343.70
  A 0.60 0.59 0.0 0 0 149.91 344.29
  L 261.98 344.30
  A 0.59 0.59 0.0 0 1 262.57 344.89
  L 262.59 367.04
  A 0.67 0.67 0.0 0 1 261.92 367.71
  L 126.60 367.68
  Z"
/>
</svg>
