<svg width="158" height="24" viewBox="0 0 158 24" fill="none" xmlns="http://www.w3.org/2000/svg">
<path d="M39.1273 6.98985V10.7945H38.0796C37.0656 10.7945 36.2995 11.0378 35.8038 11.5244C35.2968 12.011 35.0489 12.7631 35.0489 13.8028V19.5097H30.6663V6.98985H34.6659V8.31704C35.477 7.29953 36.5473 6.79077 37.8768 6.79077C38.3049 6.79077 38.7218 6.85713 39.1273 6.98985Z" fill="#000000"/>
<path d="M52.7145 14.7429H44.5577C45.0309 15.694 45.9885 16.1696 47.4081 16.1696C48.5347 16.1696 49.6388 15.8488 50.7429 15.1963L52.3202 18.1272C50.8218 19.2442 49.1318 19.7972 47.2504 19.7972C45.1773 19.7972 43.4649 19.1779 42.1129 17.917C40.7609 16.6673 40.085 15.1078 40.085 13.2387C40.085 11.4028 40.7384 9.85437 42.0566 8.58248C43.3747 7.31059 44.9858 6.68018 46.8898 6.68018C48.6924 6.68018 50.1571 7.25529 51.2837 8.40552C52.4103 9.55575 52.9737 10.9604 52.9737 12.6083C52.9962 13.3382 52.9061 14.0461 52.7145 14.7429ZM44.4 11.9447H48.8389C48.8276 11.3917 48.6136 10.9382 48.208 10.5954C47.8024 10.2415 47.3067 10.0645 46.7321 10.0645C46.1688 10.0645 45.6843 10.2304 45.2787 10.5511C44.8619 10.8829 44.5802 11.3364 44.4 11.9447Z" fill="#000000"/>
<path d="M54.0665 17.3972L56.1057 14.8424C57.2098 15.882 58.3815 16.3908 59.6208 16.3908C60.3643 16.3908 60.7474 16.2028 60.7474 15.8378C60.7474 15.6166 60.4995 15.4064 60.0038 15.2184L58.573 14.6433C57.2661 14.1235 56.3197 13.5705 55.7451 12.9622C55.1706 12.365 54.8776 11.5797 54.8776 10.6064C54.8776 9.38985 55.3283 8.42764 56.2183 7.73087C57.1084 7.03409 58.3139 6.68018 59.8235 6.68018C61.829 6.68018 63.4288 7.28847 64.6117 8.50506L62.55 11.1373C61.705 10.4184 60.8037 10.0645 59.8461 10.0645C59.249 10.0645 58.956 10.2193 58.956 10.5401C58.956 10.7723 59.249 11.0046 59.8235 11.2147L61.0966 11.7124C62.4373 12.2322 63.395 12.7742 63.9583 13.3493C64.5216 13.9244 64.8145 14.6875 64.8145 15.6387C64.8145 16.9216 64.3188 17.9392 63.3386 18.6912C62.3359 19.4212 61.0741 19.7862 59.5419 19.7862C58.404 19.7862 57.3562 19.576 56.3986 19.1668C55.4297 18.7576 54.6523 18.1604 54.0665 17.3972Z" fill="#000000"/>
<path d="M78.875 8.52723C80.0242 9.75488 80.5988 11.3143 80.5988 13.2166C80.5988 15.1189 80.0242 16.6894 78.8637 17.9281C77.7033 19.1669 76.25 19.7973 74.4811 19.7973C73.1404 19.7973 72.0476 19.4102 71.2139 18.647V24H66.8313V6.9899H70.8308V8.29497C71.6082 7.22216 72.825 6.69128 74.4699 6.69128C76.2612 6.69128 77.7258 7.29958 78.875 8.52723ZM75.3824 15.1853C75.8669 14.7097 76.1148 14.0682 76.1148 13.2498C76.1148 12.4314 75.8782 11.7899 75.4163 11.3143C74.9431 10.8387 74.3459 10.6065 73.6136 10.6065C72.9039 10.6065 72.3067 10.8387 71.8448 11.3033C71.3716 11.7678 71.1463 12.4093 71.1463 13.2277C71.1463 14.0461 71.3829 14.6987 71.8561 15.1742C72.3293 15.6609 72.9151 15.9042 73.6136 15.9042C74.3009 15.8931 74.898 15.6609 75.3824 15.1853Z" fill="#000000"/>
<path d="M82.1648 13.2387C82.131 11.4581 82.807 9.90967 84.1815 8.59354C85.5559 7.28847 87.2008 6.647 89.1048 6.68018C91.0089 6.647 92.6537 7.28847 94.0395 8.59354C95.4253 9.89861 96.1012 11.447 96.0674 13.2387C96.1012 15.0193 95.4253 16.5677 94.0395 17.8839C92.6537 19.1889 91.0089 19.8304 89.1048 19.7972C87.2008 19.8304 85.5672 19.1889 84.1815 17.8839C82.807 16.5788 82.131 15.0304 82.1648 13.2387ZM90.8849 15.1078C91.3468 14.6212 91.5722 13.9908 91.5722 13.2498C91.5722 12.5088 91.3356 11.8783 90.8737 11.3917C90.4005 10.9051 89.8259 10.6507 89.1274 10.6507C88.3951 10.6507 87.7979 10.894 87.3473 11.3806C86.8854 11.8673 86.66 12.4866 86.66 13.2608C86.66 14.0461 86.8854 14.6765 87.3473 15.1521C87.8092 15.6276 88.3951 15.8599 89.1274 15.8599C89.8371 15.8378 90.423 15.5945 90.8849 15.1078Z" fill="#000000"/>
<path d="M110.736 11.7899V19.4987H106.354V12.4203C106.354 11.8673 106.185 11.4249 105.835 11.0821C105.486 10.7392 105.047 10.5733 104.495 10.5733C103.954 10.5733 103.503 10.7503 103.165 11.0821C102.827 11.4249 102.658 11.8673 102.658 12.4203V19.4987H98.2756V6.9899H102.275V8.01847C103.222 7.13368 104.427 6.69128 105.869 6.69128C107.345 6.69128 108.528 7.1558 109.407 8.08483C110.286 9.0028 110.736 10.2415 110.736 11.7899Z" fill="#000000"/>
<path d="M122.228 0.72998H126.61V19.4876H122.611V18.1825C121.833 19.2443 120.617 19.7862 118.972 19.7862C117.192 19.7862 115.727 19.1779 114.578 17.9503C113.429 16.7226 112.854 15.1632 112.854 13.2609C112.854 11.3586 113.429 9.78804 114.589 8.54934C115.738 7.31063 117.203 6.69127 118.972 6.69127C120.313 6.69127 121.405 7.07837 122.228 7.8415V0.72998ZM121.597 15.1963C122.059 14.7318 122.295 14.0903 122.295 13.2719C122.295 12.4535 122.059 11.8009 121.586 11.3254C121.112 10.8387 120.527 10.5954 119.828 10.5954C119.13 10.5954 118.544 10.8387 118.059 11.3033C117.575 11.7788 117.338 12.4203 117.338 13.2387C117.338 14.0572 117.575 14.6986 118.037 15.1742C118.499 15.6498 119.107 15.8821 119.828 15.8821C120.538 15.8931 121.135 15.6609 121.597 15.1963Z" fill="#000000"/>
<path d="M129.562 18.459C129.021 17.9281 128.751 17.2535 128.751 16.4572C128.751 15.6608 129.021 14.9862 129.562 14.4553C130.103 13.9244 130.801 13.659 131.658 13.659C132.469 13.659 133.145 13.9244 133.686 14.4553C134.226 14.9862 134.486 15.6608 134.486 16.4572C134.486 17.2535 134.215 17.9281 133.686 18.459C133.156 18.9899 132.469 19.2553 131.658 19.2553C130.801 19.2553 130.103 18.9899 129.562 18.459Z" fill="#000000"/>
<path d="M136.863 4.3576C136.345 3.87097 136.085 3.27373 136.085 2.55484C136.085 1.83594 136.345 1.23871 136.863 0.741014C137.381 0.243318 138.012 0 138.756 0C139.499 0 140.141 0.243318 140.671 0.741014C141.2 1.23871 141.459 1.83594 141.459 2.55484C141.459 3.25161 141.2 3.84885 140.671 4.34654C140.141 4.84424 139.51 5.08756 138.756 5.08756C138.012 5.08756 137.381 4.84424 136.863 4.3576ZM136.592 19.4986V6.98986H140.975V19.4986H136.592Z" fill="#000000"/>
<path d="M143.195 13.2387C143.161 11.4581 143.837 9.90967 145.211 8.59354C146.586 7.28847 148.231 6.647 150.135 6.68018C152.039 6.647 153.683 7.28847 155.069 8.59354C156.455 9.89861 157.131 11.447 157.097 13.2387C157.131 15.0193 156.455 16.5677 155.069 17.8839C153.683 19.1889 152.039 19.8304 150.135 19.7972C148.231 19.8304 146.597 19.1889 145.211 17.8839C143.837 16.5788 143.161 15.0304 143.195 13.2387ZM151.915 15.1078C152.377 14.6212 152.602 13.9908 152.602 13.2498C152.602 12.5088 152.365 11.8783 151.903 11.3917C151.441 10.9051 150.856 10.6507 150.157 10.6507C149.425 10.6507 148.828 10.894 148.377 11.3806C147.915 11.8673 147.69 12.4866 147.69 13.2608C147.69 14.0461 147.915 14.6765 148.377 15.1521C148.839 15.6276 149.425 15.8599 150.157 15.8599C150.867 15.8378 151.453 15.5945 151.915 15.1078Z" fill="#000000"/>
<path d="M9.37304 17.5189C9.86876 18.1161 9.7899 19.0119 9.18151 19.4986C8.92239 19.7087 8.60693 19.8193 8.28021 19.8193C8.23514 19.8193 8.17881 19.8193 8.13375 19.8083C7.75069 19.7751 7.4127 19.5871 7.16484 19.2995L1.27255 12.2765L1.18242 12.199V12.1659C0.731768 11.5465 0.833165 10.7059 1.41901 10.2414C1.926 9.83221 2.61325 9.82115 3.1315 10.164L3.17656 10.1198L3.43569 10.4294L9.37304 17.5189ZM20.3802 4.30226C19.7719 3.81562 18.8706 3.9041 18.3861 4.49028L13.3388 10.5179C13.305 10.5511 13.2825 10.5732 13.2712 10.5953C12.7755 11.1926 12.8656 12.0884 13.4853 12.5751C13.7444 12.7741 14.0598 12.8847 14.3866 12.8847C14.4316 12.8847 14.488 12.8847 14.5443 12.8737C14.9273 12.8405 15.2653 12.6525 15.5132 12.3649L20.6056 6.28198C21.09 5.68475 20.9886 4.79996 20.3802 4.30226Z" fill="#448AFF"/>
<path d="M26.4641 5.60737C26.419 5.22028 26.2275 4.87742 25.9233 4.64516C25.6191 4.40184 25.2361 4.29124 24.8417 4.32442C24.4474 4.3576 24.0982 4.54562 23.8503 4.8553L14.2739 16.3908L9.30547 10.4295C8.79848 9.83226 7.89717 9.74378 7.28879 10.2415C6.99587 10.4848 6.81561 10.8276 6.78181 11.2037C6.74801 11.5797 6.86067 11.9447 7.10853 12.2212L13.2036 19.4986C13.4515 19.7862 13.7895 19.9631 14.1725 20.0074C14.2176 20.0074 14.2627 20.0184 14.3077 20.0184C14.6344 20.0184 14.9612 19.9078 15.2203 19.6977C15.2992 19.6313 15.3668 19.565 15.4231 19.4876L26.0923 6.72442C26.1148 6.7023 26.1261 6.69124 26.1486 6.66912L25.9008 6.47005L26.1486 6.66912C26.3965 6.35945 26.5092 5.98341 26.4641 5.60737Z" fill="#448AFF"/>
</svg>
