<?xml version="1.0" encoding="UTF-8"?>
<svg width="145px" height="43px" viewBox="0 0 145 43" version="1.1" xmlns="http://www.w3.org/2000/svg" xmlns:xlink="http://www.w3.org/1999/xlink">
    <!-- Generator: Sketch 55.2 (78181) - https://sketchapp.com -->
    <title>Logo</title>
    <desc>Created with Sketch.</desc>
    <g id="Mobile-version" stroke="none" stroke-width="1" fill="none" fill-rule="evenodd">
        <g id="Index-Retently" transform="translate(-40.000000, -25.000000)" fill="#000000">
            <g id="Header">
                <g id="Nav" transform="translate(40.000000, 25.000000)">
                    <g id="Logo">
                        <path d="M39.8336291,5.27346513 C38.13233,5.43905797 36.4794284,6.14184658 35.0382194,7.17346648 C31.4106286,2.7770156 26.0872804,0 20.1513907,0 C9.2220681,0 0.362012876,9.41014712 0.362012876,21.0189121 C0.362012876,21.7217007 0.398588035,22.4150717 0.462871648,23.0998099 C-0.222081333,25.1379361 -0.150778245,27.0979746 0.703011582,27.5743484 C0.903620789,27.6861824 1.13119956,27.7069796 1.37281728,27.6496892 C3.98738699,36.0074192 11.4043859,42.0382166 20.1513907,42.0382166 C31.0807132,42.0382166 39.9407685,32.6280694 39.9407685,21.0193045 C39.9407685,20.5178171 39.9193406,20.0218234 39.8868293,19.5297536 C42.3159371,18.2089349 44.4797827,15.8988754 45.4200229,13.0535822 C46.9938631,8.2906296 44.1613202,4.8532046 39.8336291,5.27346513 Z M20.0106317,2.39364069 C25.2759769,2.39364069 29.9934335,4.87988781 33.1828613,8.80545855 C32.0741537,9.99403849 31.2078027,11.3799957 30.7157005,12.8040157 C30.3348017,13.9062676 30.1910871,14.9940007 30.2708875,15.9954058 L20.1499129,24.0297982 C19.8451199,23.6173856 19.4767822,23.2960099 19.0556137,23.0872531 C19.1963726,22.0599496 19.2946453,20.9702545 19.3116398,19.8652557 C19.3674261,16.2991235 18.5317392,12.9503809 16.0383478,11.6221066 C16.6205948,9.26692108 15.9559613,7.5925498 14.4744826,7.73656064 C13.0964489,7.87076148 11.4328333,9.55847437 10.4478901,11.6652706 C7.78529241,12.8385469 5.85530623,15.3907173 4.62726755,17.342123 C4.20720739,18.0095956 3.82520017,18.6821694 3.4860487,19.3233512 C3.22300311,19.3406168 2.94074632,19.461476 2.6525784,19.6702329 C3.23482538,10.0250381 10.7833471,2.39364069 20.0106317,2.39364069 Z M18.2121683,29.6760434 C17.6376797,31.3072507 16.3346435,32.2497957 15.3511781,31.7918648 C14.4113074,31.3539463 14.1131644,29.7867002 14.6481223,28.2853774 C15.1816024,26.7879785 16.3800854,25.8175731 17.358748,26.1291388 C18.3821135,26.4556157 18.7848097,28.0503297 18.2121683,29.6760434 Z M14.0854559,12.5222724 C13.625865,13.7893324 12.6475719,14.7781807 11.9297382,14.7252067 C11.2370269,14.674587 11.0452844,13.6657264 11.479014,12.4783236 C11.9123743,11.2936677 12.8293394,10.3114902 13.5475425,10.2840222 C14.2904985,10.2565542 14.543569,11.2587441 14.0854559,12.5222724 Z M1.52687628,25.3533637 C1.09240772,25.1508853 1.05878813,24.154189 1.4404259,23.1288475 C1.82058589,22.1050756 2.48965269,21.3889454 2.94370189,21.5341334 C3.41179004,21.6832455 3.47865977,22.6866126 3.0785497,23.7684597 C2.67696184,24.8530536 1.97501434,25.5621206 1.52687628,25.3533637 Z M20.0106317,39.3447822 C12.047961,39.3447822 5.33623453,33.6612589 3.27176998,25.9058631 C3.5839519,25.4082997 3.87175037,24.8232312 4.11189031,24.1722394 C4.72812632,22.5013997 4.8241823,20.9467105 4.47431689,20.0657722 C4.72147629,19.6168665 4.99043302,19.1565811 5.28266485,18.6990426 C6.60749839,16.6267776 8.0387324,15.1623404 9.64582273,14.4564126 C9.49804431,16.0071778 9.96391578,17.163581 10.9876508,17.3095538 C12.0860139,17.4665139 13.5091201,16.4360712 14.6104388,14.8080031 C15.9507891,15.8192182 16.718498,17.7922059 16.622442,20.9667229 C16.5999058,21.7075743 16.5311888,22.4437169 16.4373495,23.1512143 C14.9665848,23.8308513 13.5833788,25.4785394 12.8311866,27.575918 C11.7195234,30.6762713 12.2518952,34.0171658 14.180773,35.0935194 C16.3058267,36.2793525 19.2636118,34.3000863 20.559998,30.59269 C20.950133,29.4770965 21.1237727,28.3897558 21.1174921,27.3985531 L31.8580277,19.4383244 C32.5573891,20.0751898 33.4780487,20.5154627 34.6140953,20.6771316 C35.4996575,20.803092 36.4454394,20.7371688 37.400088,20.5048679 C37.4023046,20.626512 37.4059991,20.7469788 37.4059991,20.8690152 C37.4056297,31.0725954 29.6177069,39.3447822 20.0106317,39.3447822 Z M40.7971444,12.9747098 C40.0988914,15.0571772 37.9121402,16.638942 36.0290737,16.5004248 C34.2512993,16.3697555 33.4008345,14.7365863 34.0425622,12.8605213 C34.6824428,10.9915196 36.6179707,9.42348873 38.4507925,9.35481871 C40.3907538,9.28222469 41.4920724,10.9008752 40.7971444,12.9747098 Z" id="Shape"></path>
                        <g id="logo-(1)" transform="translate(55.000000, 15.000000)" fill-rule="nonzero">
                            <path d="M7.47318584,7.76548673 C8.81920354,7.35132743 9.56548673,6.12159292 9.56548673,4.37734513 C9.56548673,1.72035398 8.02035398,0.506548673 4.93168142,0.506548673 L0.364778761,0.506548673 L0.364778761,12.9631858 L3.17150442,12.9631858 L3.17150442,8.31504425 L4.93168142,8.31504425 L7.10761062,12.9663717 L10.379469,12.9663717 L7.47238938,7.76707965 L7.47318584,7.76548673 Z M4.89902655,6.22035398 L3.17230088,6.22035398 L3.17230088,2.83300885 L4.94840708,2.83300885 C6.17814159,2.83300885 6.64327434,3.23123894 6.64327434,4.49362832 C6.64327434,5.83964602 6.14548673,6.2219469 4.89902655,6.2219469 L4.89902655,6.22035398 Z M21.4088496,10.5228319 L21.3419469,12.9639823 L12.8707965,12.9639823 L12.8707965,0.507345133 L21.0926549,0.507345133 L21.1428319,2.98274336 L15.679115,2.98274336 L15.679115,5.45734513 L20.2786726,5.45734513 L20.2786726,7.68265487 L15.679115,7.68265487 L15.679115,10.5228319 L21.4088496,10.5228319 Z M29.8672566,3.03212389 L29.8672566,12.9639823 L27.0438053,12.9639823 L27.0438053,3.03212389 L23.7050442,3.03212389 L23.7719469,0.507345133 L33.1542478,0.507345133 L33.2219469,3.03212389 L29.8672566,3.03212389 Z M43.9884956,10.5228319 L43.9207965,12.9639823 L35.4504425,12.9639823 L35.4504425,0.507345133 L43.6715044,0.507345133 L43.7216814,2.98274336 L38.2579646,2.98274336 L38.2579646,5.45734513 L42.8583186,5.45734513 L42.8583186,7.68265487 L38.2579646,7.68265487 L38.2579646,10.5228319 L43.9884956,10.5228319 Z M54.3384956,12.9639823 L49.5055752,6.17017699 L48.7569027,5.05831858 L48.7250442,5.07584071 L48.7409735,6.42185841 L48.7409735,12.9647788 L46.249646,12.9647788 L46.249646,0.508141593 L48.6406195,0.508141593 L53.0753097,6.93557522 L53.8223894,8.04902655 L53.8558407,8.03309735 L53.8223894,6.70300885 L53.8223894,0.509734513 L56.2969912,0.509734513 L56.2969912,12.9663717 L54.3384956,12.9639823 Z M64.7330973,3.03212389 L64.7330973,12.9639823 L61.909646,12.9639823 L61.909646,3.03212389 L58.5724779,3.03212389 L58.6385841,0.507345133 L68.020885,0.507345133 L68.0885841,3.03212389 L64.7330973,3.03212389 Z M78.2721239,10.44 L78.2052212,12.9647788 L70.3170796,12.9647788 L70.3170796,0.508141593 L73.140531,0.508141593 L73.140531,10.44 L78.2721239,10.44 Z M81.0286726,0.508141593 L83.1217699,5.22477876 L83.6362832,6.45371681 L83.6864602,6.45371681 L84.1842478,5.2080531 L86.1937168,0.507345133 L89.2680531,0.507345133 L85.0324779,8.99362832 L85.0324779,12.9631858 L82.1755752,12.9631858 L82.1755752,8.99362832 L77.8746903,0.507345133 L81.0286726,0.508141593 Z" id="Shape"></path>
                        </g>
                    </g>
                </g>
            </g>
        </g>
    </g>
</svg>