<svg width="120" height="32" viewBox="0 0 120 32" fill="none" xmlns="http://www.w3.org/2000/svg">
<g clip-path="url(#clip0_1_7)">
<path d="M43.6067 29.3512V2.99298H51.1471V7.08812C51.1471 7.08812 54.1749 3.94965 57.1944 3.05174C59.7358 2.29649 63.9296 2.73285 65.5484 3.29509C64.7468 4.25415 63.9991 5.25711 63.3089 6.29931C62.5795 7.38378 61.9507 8.5326 61.4301 9.73149C59.6352 9.73988 57.6893 9.99164 56.1376 10.8308C54.2756 11.8378 52.0193 14.221 52.0193 14.221V29.3512H43.6067Z" fill="#000000"/>
<path d="M77.8277 29.8966C75.454 29.8966 73.3236 29.5358 71.4783 28.8141C69.6331 28.0924 68.1066 27.1106 66.882 25.8854C65.6655 24.68 64.7092 23.2376 64.0722 21.6476C63.426 20.0364 63.0984 18.3151 63.1076 16.579C63.1076 14.0447 63.6696 11.6783 64.7935 9.56359C65.9174 7.44889 67.553 5.76217 69.7086 4.48663C71.8642 3.2111 74.6069 2.55655 77.8277 2.55655C81.0485 2.55655 83.7912 3.19431 85.9552 4.46145C88.1192 5.7286 89.7715 7.40694 90.8786 9.4629C91.9858 11.5189 92.5561 13.8098 92.5561 16.2434C92.5561 16.7469 92.531 17.2671 92.4806 17.7874C92.4639 17.9972 92.4387 18.1986 92.4136 18.3916H72.0906L72.1745 19.4322C72.2584 20.5986 72.619 21.5721 73.2313 22.3357C73.8291 23.0708 74.6145 23.6304 75.5043 23.9553C76.3534 24.2663 77.2506 24.4253 78.1548 24.4252C79.3542 24.4252 80.5033 24.1735 82.1892 22.7889H91.1722C89.8721 24.7357 89.0753 25.6924 88.2953 26.3553C87.0288 27.4379 85.5023 28.3106 83.766 28.94C82.0298 29.5693 80.0336 29.8966 77.8277 29.8966ZM77.6683 7.96917C76.6451 7.96917 75.714 8.17898 74.9088 8.59017C74.1037 8.99328 73.4162 9.59735 72.9126 10.344C72.4094 11.0825 72.0822 11.9888 71.9564 13.0294L71.8222 14.1203H83.506L83.3718 13.0294C83.246 11.9888 82.9273 11.0825 82.424 10.344C81.9182 9.59935 81.2312 8.99578 80.4278 8.59017C79.5697 8.16875 78.6242 7.95597 77.6683 7.96917Z" fill="#000000"/>
<path d="M101.12 29.3595L92.1367 2.99292H100.658L106.521 23.1077L112.451 2.99292H120L111.009 29.3595H101.12Z" fill="#000000"/>
<path d="M17.0602 16.0084H20.6165C20.5967 14.5749 20.0135 13.2068 18.9932 12.2001C17.9729 11.1935 16.5976 10.6292 15.1646 10.6293C13.7172 10.6315 12.3296 11.2078 11.3061 12.2319C10.2826 13.2559 9.70658 14.6441 9.70436 16.0923C9.70658 17.5405 10.2826 18.9287 11.3061 19.9527C12.3296 20.9768 13.7172 21.5531 15.1646 21.5553H29.0711C28.795 22.2503 28.467 22.9236 28.0898 23.5693H15.1646C14.1831 23.5701 13.2111 23.3771 12.3043 23.0012C11.3975 22.6254 10.5739 22.0741 9.8805 21.379C9.18579 20.6853 8.63478 19.8613 8.25911 18.954C7.88345 18.0468 7.69051 17.0743 7.69136 16.0923C7.69136 14.1093 8.47871 12.2075 9.88022 10.8053C11.2817 9.40309 13.1826 8.61533 15.1646 8.61533C17.1467 8.61533 19.0475 9.40309 20.449 10.8053C21.8505 12.2075 22.6379 14.1093 22.6379 16.0923H26.1942C26.1942 13.1656 25.0321 10.3588 22.9637 8.28935C20.8953 6.21989 18.0899 5.05728 15.1646 5.05728C12.2394 5.05728 9.43397 6.21989 7.36552 8.28935C5.29708 10.3588 4.13506 13.1656 4.13506 16.0923C4.13506 19.019 5.29708 21.8258 7.36552 23.8952C9.43397 25.9647 12.2394 27.1273 15.1646 27.1273H25.2212C22.4499 29.6703 18.8244 31.078 15.064 31.0714C11.0688 31.0714 7.2372 29.4835 4.41216 26.6571C1.58712 23.8307 0 19.9972 0 16C0 12.0028 1.58712 8.16933 4.41216 5.34289C7.2372 2.51646 11.0688 0.928589 15.064 0.928589C19.0592 0.928589 22.8908 2.51646 25.7158 5.34289C28.5408 8.16933 30.1279 12.0028 30.1279 16C30.1297 16.6652 30.0849 17.3298 29.9937 17.9888H15.1646C14.6619 17.9888 14.1797 17.789 13.8242 17.4333C13.4688 17.0777 13.269 16.5953 13.269 16.0923C13.269 15.5893 13.4688 15.1069 13.8242 14.7513C14.1797 14.3956 14.6619 14.1958 15.1646 14.1958C15.6532 14.1953 16.123 14.3836 16.4762 14.7213C16.8294 15.059 17.0386 15.5201 17.0602 16.0084Z" fill="#000000"/>
</g>
<defs>
<clipPath id="clip0_1_7">
<rect width="120" height="32" fill="#000000"/>
</clipPath>
</defs>
</svg>
