<svg width="83" height="19" viewBox="0 0 83 19" fill="none" xmlns="http://www.w3.org/2000/svg">
<g clip-path="url(#clip0_3121_1068)">
<path d="M66.5427 14.0033C66.5232 13.209 66.7793 12.4324 67.2676 11.8051C67.7948 11.1566 68.4859 10.6606 69.2693 10.3684C70.2128 10.011 71.2162 9.83785 72.225 9.85821C72.8534 9.86189 73.4808 9.90826 74.1029 9.99701C74.702 10.0765 75.2911 10.2186 75.8605 10.4209V9.45683C75.8833 9.01726 75.8135 8.57781 75.6556 8.16686C75.4978 7.75591 75.2554 7.3826 74.9441 7.07104C74.2233 6.45313 73.2894 6.14085 72.3415 6.20076C71.6215 6.19875 70.9077 6.3337 70.2383 6.59839C69.4916 6.89942 68.778 7.27653 68.1088 7.72376L67.2939 6.14074C68.0939 5.57531 68.9685 5.12336 69.8928 4.7978C70.7626 4.49823 71.6768 4.34731 72.5968 4.3514C74.2944 4.3514 75.6364 4.8203 76.6229 5.75811C77.6094 6.69592 78.1026 8.00135 78.1026 9.6744V15.2825C78.0833 15.4936 78.1421 15.7045 78.2679 15.8752C78.3398 15.9465 78.4255 16.0026 78.5198 16.04C78.614 16.0774 78.7148 16.0953 78.8162 16.0928V17.8296C78.5946 17.8671 78.4031 17.8896 78.2416 17.9084C78.0801 17.9271 77.9487 17.9346 77.8473 17.9346C77.6298 17.9508 77.4114 17.9204 77.2067 17.8453C77.002 17.7703 76.8158 17.6524 76.6605 17.4995C76.4159 17.2484 76.2603 16.9243 76.2173 16.5767L76.1647 15.7326C75.5743 16.4951 74.7987 17.0943 73.9113 17.4732C73.0379 17.8691 72.0913 18.0787 71.1321 18.0884C70.3081 18.102 69.4932 17.914 68.7586 17.5407C68.0929 17.2039 67.53 16.6948 67.1286 16.0665C66.7387 15.4494 66.5352 14.733 66.5427 14.0033ZM75.207 14.9374C75.4006 14.7205 75.5636 14.4782 75.6915 14.2171C75.797 14.0255 75.8586 13.8128 75.8718 13.5944V11.9514C75.3351 11.7451 74.7807 11.5882 74.2155 11.4825C73.6525 11.3733 73.0803 11.318 72.5067 11.3174C71.54 11.2724 70.5806 11.5054 69.7425 11.9889C69.4171 12.1712 69.1469 12.4378 68.9605 12.7606C68.7741 13.0835 68.6784 13.4506 68.6835 13.8233C68.6856 14.257 68.805 14.6821 69.029 15.0537C69.2735 15.4639 69.6254 15.7998 70.0468 16.0252C70.5618 16.2932 71.1378 16.4224 71.718 16.4004C72.4023 16.4035 73.0795 16.2616 73.7048 15.984C74.2736 15.7513 74.7858 15.3995 75.207 14.9524V14.9374Z" fill="#000000"/>
<path d="M80.7542 18.1298V4.77539H83.0075V18.1298H80.7542Z" fill="#000000"/>
<path d="M22.4851 18.1297V4.48269H26.3722V6.60214C26.3722 6.60214 27.9308 4.97785 29.4856 4.51645C30.7964 4.14133 32.9596 4.34765 33.7971 4.64024C33.3829 5.1373 32.9967 5.65703 32.6404 6.197C32.265 6.75703 31.9407 7.3496 31.6714 7.96759C30.7287 7.93577 29.7921 8.13135 28.9411 8.53777C28.1646 9.02966 27.453 9.61694 26.8229 10.2858V18.1297H22.4851Z" fill="#000000"/>
<path d="M40.1254 18.3923C39.0094 18.4104 37.8999 18.2195 36.8542 17.8296C35.9669 17.5003 35.1583 16.9892 34.4806 16.3291C33.8534 15.7048 33.3601 14.9594 33.031 14.1384C32.6991 13.3028 32.5308 12.4114 32.5352 11.5125C32.524 10.2496 32.8218 9.00309 33.4028 7.88133C33.9875 6.78678 34.8668 5.87727 35.9416 5.25546C37.2204 4.55097 38.6657 4.20369 40.1254 4.25013C41.5854 4.20174 43.032 4.54224 44.3167 5.2367C45.3876 5.84508 46.2669 6.74029 46.8555 7.8213C47.4333 8.89977 47.7316 10.1056 47.7231 11.3287C47.7231 11.5913 47.7231 11.8576 47.6855 12.1277C47.6855 12.2365 47.6592 12.3378 47.648 12.4391H37.1735L37.2148 12.9793C37.2339 13.4951 37.4073 13.9933 37.7126 14.4099C38.0178 14.8264 38.4409 15.1421 38.9273 15.3163C39.365 15.4777 39.8279 15.5602 40.2944 15.5601C40.9103 15.5601 41.5 15.4288 42.3713 14.7161H47.0058C46.5965 15.3951 46.0976 16.0159 45.5223 16.5617C44.8316 17.1433 44.0415 17.5957 43.19 17.8971C42.2045 18.2367 41.1678 18.4042 40.1254 18.3923ZM40.0428 7.0598C39.5498 7.05229 39.062 7.16156 38.6194 7.37866C38.2037 7.58751 37.8492 7.90025 37.5903 8.28646C37.3179 8.70194 37.1492 9.17661 37.0983 9.67066L37.0307 10.2521H43.0398L42.9684 9.68567C42.919 9.1907 42.7516 8.71477 42.4802 8.29771C42.2188 7.91329 41.8632 7.60206 41.4474 7.39366C41.0119 7.17371 40.5307 7.05934 40.0428 7.0598Z" fill="#000000"/>
<path d="M52.1285 18.1297L47.509 4.48267H51.9031L54.9265 14.8848L57.9836 4.48267H61.8707L57.2287 18.1297H52.1285Z" fill="#000000"/>
<path d="M8.7995 11.2125H10.636C10.6247 10.6578 10.4525 10.1183 10.1403 9.65949C9.90632 9.31679 9.59903 9.03031 9.24062 8.8208C8.88222 8.61129 8.48166 8.48397 8.06795 8.44807C7.65423 8.41217 7.2377 8.46858 6.84848 8.61321C6.45927 8.75785 6.10712 8.9871 5.81751 9.28436C5.42904 9.68055 5.16754 10.1833 5.06638 10.7286C4.96035 11.2742 5.01782 11.8389 5.2316 12.352C5.44538 12.8651 5.80595 13.3039 6.26819 13.6133C6.72991 13.92 7.27227 14.0832 7.82678 14.0822H14.9926C14.8482 14.4431 14.6775 14.7929 14.4818 15.1288H7.81927C7.14854 15.1332 6.48817 14.9635 5.90285 14.6363C5.31754 14.3091 4.82736 13.8356 4.48033 13.2623C4.13331 12.689 3.94134 12.0354 3.92324 11.3657C3.90514 10.696 4.06152 10.0331 4.37707 9.44189C4.69262 8.8507 5.15652 8.35152 5.7233 7.99326C6.29009 7.635 6.94033 7.42994 7.61032 7.39818C8.28032 7.36641 8.94708 7.50903 9.5453 7.81206C10.1435 8.11509 10.6527 8.56813 11.0228 9.12681C11.4439 9.76363 11.6697 10.5094 11.6726 11.2725H13.5053C13.5126 10.1459 13.1838 9.0426 12.5608 8.10336C11.9378 7.16412 11.0489 6.43148 10.0074 5.99886C8.96584 5.56624 7.81892 5.45325 6.71284 5.67429C5.60677 5.89532 4.59167 6.44038 3.79696 7.23994C2.99274 8.03547 2.44344 9.05182 2.21885 10.1599C1.99425 11.2679 2.10451 12.4177 2.53561 13.463C2.96671 14.5083 3.69919 15.402 4.63998 16.0306C5.58077 16.6592 6.68741 16.9942 7.81927 16.9932H13.0021C12.0172 17.8916 10.817 18.5211 9.51742 18.8209C8.21784 19.1208 6.8628 19.0807 5.58322 18.7048C4.30364 18.3288 3.14277 17.6295 2.21276 16.6745C1.28276 15.7196 0.615053 14.5412 0.274158 13.2532C-0.200466 11.528 -0.0673633 9.69225 0.651186 8.05335C1.36974 6.41444 2.63012 5.07182 4.22135 4.25021C5.80722 3.43538 7.62597 3.19194 9.37068 3.56097C11.1154 3.93 12.6792 4.88891 13.7983 6.27588C14.4644 7.10055 14.9557 8.05186 15.2423 9.07202C15.529 10.0922 15.605 11.1599 15.4658 12.2103H7.82303C7.63092 12.21 7.44303 12.154 7.28221 12.049C7.11612 11.9449 6.98526 11.7933 6.90665 11.6139C6.83095 11.4374 6.80887 11.2426 6.84314 11.0537C6.87741 10.8648 6.96652 10.6902 7.0994 10.5515C7.23227 10.4127 7.40303 10.3161 7.59046 10.2736C7.77788 10.231 7.97369 10.2445 8.15352 10.3122C8.33206 10.3811 8.48714 10.4995 8.60045 10.6536C8.72307 10.8148 8.79262 11.0101 8.7995 11.2125Z" fill="#000000"/>
<path d="M83 0H80.7466V2.25074H83V0Z" fill="#000000"/>
</g>
<defs>
<clipPath id="clip0_3121_1068">
<rect width="83" height="19" fill="#000000"/>
</clipPath>
</defs>
</svg>
