<?xml version="1.0" encoding="UTF-8" standalone="no"?>
<!DOCTYPE svg PUBLIC "-//W3C//DTD SVG 1.1//EN" "http://www.w3.org/Graphics/SVG/1.1/DTD/svg11.dtd">
<svg xmlns="http://www.w3.org/2000/svg" version="1.1" viewBox="0.00 0.00 400.00 400.00">
<g stroke-width="2.00" fill="none" stroke-linecap="butt">
<path stroke="#85d2f5" vector-effect="non-scaling-stroke" d="
  M 400.00 0.63
  L 399.83 186.64
  A 0.47 0.47 0.0 0 1 399.16 187.06
  Q 321.76 151.38 244.26 115.72
  C 240.49 113.98 236.51 112.73 233.66 110.67
  A 3.12 2.50 29.0 0 1 232.39 107.57
  Q 232.93 105.94 235.01 105.26
  Q 256.53 98.22 317.92 78.23
  A 0.70 0.69 -31.9 0 1 318.62 78.39
  Q 330.80 90.05 347.02 87.86
  C 364.41 85.50 377.91 69.95 373.26 52.52
  C 371.44 45.71 366.65 39.84 360.75 36.78
  Q 342.79 27.45 325.63 38.18
  Q 314.66 45.04 312.33 58.35
  A 0.80 0.79 -89.0 0 1 311.66 59.00
  L 149.29 81.67
  A 1.47 1.47 0.0 0 1 147.80 80.93
  Q 141.09 68.89 128.49 63.19
  Q 106.91 53.44 85.12 63.02
  Q 75.39 67.29 68.40 75.17
  C 50.30 95.56 56.19 125.92 80.67 137.81
  C 102.92 148.62 130.21 142.75 144.97 122.40
  A 1.12 1.11 -60.2 0 1 146.33 122.03
  Q 249.05 167.27 296.21 188.04
  Q 298.10 188.88 299.67 190.45
  A 1.82 1.78 17.0 0 1 300.18 191.38
  C 301.27 196.66 294.85 198.63 290.64 199.66
  Q 231.11 214.21 172.77 229.81
  A 3.74 3.71 -36.8 0 1 169.89 229.41
  Q 143.89 213.92 112.91 216.22
  C 80.88 218.61 50.04 235.98 34.11 264.53
  C 17.62 294.10 23.44 330.29 48.80 352.96
  C 71.08 372.89 104.17 378.17 132.56 371.36
  C 164.94 363.59 193.49 339.92 202.13 306.96
  A 2.69 2.69 0.0 0 1 203.80 305.11
  L 399.33 232.57
  A 0.37 0.36 80.1 0 1 399.82 232.92
  L 399.82 399.25
  A 0.57 0.56 90.0 0 1 399.26 399.82
  L 0.00 399.61"
/>
<path stroke="#85d2f5" vector-effect="non-scaling-stroke" d="
  M 358.2066 57.8856
  A 15.15 11.88 -9.4 0 0 341.3197 48.6395
  A 15.15 11.88 -9.4 0 0 328.3134 62.8344
  A 15.15 11.88 -9.4 0 0 345.2003 72.0805
  A 15.15 11.88 -9.4 0 0 358.2066 57.8856"
/>
<path stroke="#85d2f5" vector-effect="non-scaling-stroke" d="
  M 127.9354 97.1632
  A 23.12 18.13 -9.0 0 0 102.2638 82.8732
  A 23.12 18.13 -9.0 0 0 82.2646 104.3968
  A 23.12 18.13 -9.0 0 0 107.9362 118.6868
  A 23.12 18.13 -9.0 0 0 127.9354 97.1632"
/>
<path stroke="#85d2f5" vector-effect="non-scaling-stroke" d="
  M 158.2494 284.0483
  A 45.16 33.61 -14.1 0 0 106.2621 262.4526
  A 45.16 33.61 -14.1 0 0 70.6506 306.0517
  A 45.16 33.61 -14.1 0 0 122.6379 327.6474
  A 45.16 33.61 -14.1 0 0 158.2494 284.0483"
/>
</g>
<path fill="#0ba5eb" d="
  M 400.00 0.00
  L 400.00 0.63
  L 399.83 186.64
  A 0.47 0.47 0.0 0 1 399.16 187.06
  Q 321.76 151.38 244.26 115.72
  C 240.49 113.98 236.51 112.73 233.66 110.67
  A 3.12 2.50 29.0 0 1 232.39 107.57
  Q 232.93 105.94 235.01 105.26
  Q 256.53 98.22 317.92 78.23
  A 0.70 0.69 -31.9 0 1 318.62 78.39
  Q 330.80 90.05 347.02 87.86
  C 364.41 85.50 377.91 69.95 373.26 52.52
  C 371.44 45.71 366.65 39.84 360.75 36.78
  Q 342.79 27.45 325.63 38.18
  Q 314.66 45.04 312.33 58.35
  A 0.80 0.79 -89.0 0 1 311.66 59.00
  L 149.29 81.67
  A 1.47 1.47 0.0 0 1 147.80 80.93
  Q 141.09 68.89 128.49 63.19
  Q 106.91 53.44 85.12 63.02
  Q 75.39 67.29 68.40 75.17
  C 50.30 95.56 56.19 125.92 80.67 137.81
  C 102.92 148.62 130.21 142.75 144.97 122.40
  A 1.12 1.11 -60.2 0 1 146.33 122.03
  Q 249.05 167.27 296.21 188.04
  Q 298.10 188.88 299.67 190.45
  A 1.82 1.78 17.0 0 1 300.18 191.38
  C 301.27 196.66 294.85 198.63 290.64 199.66
  Q 231.11 214.21 172.77 229.81
  A 3.74 3.71 -36.8 0 1 169.89 229.41
  Q 143.89 213.92 112.91 216.22
  C 80.88 218.61 50.04 235.98 34.11 264.53
  C 17.62 294.10 23.44 330.29 48.80 352.96
  C 71.08 372.89 104.17 378.17 132.56 371.36
  C 164.94 363.59 193.49 339.92 202.13 306.96
  A 2.69 2.69 0.0 0 1 203.80 305.11
  L 399.33 232.57
  A 0.37 0.36 80.1 0 1 399.82 232.92
  L 399.82 399.25
  A 0.57 0.56 90.0 0 1 399.26 399.82
  L 0.00 399.61
  L 0.00 0.00
  L 400.00 0.00
  Z"
/>
<path fill="#ffffff" d="
  M 400.00 0.63
  L 400.00 400.00
  L 0.00 400.00
  L 0.00 399.61
  L 399.26 399.82
  A 0.57 0.56 90.0 0 0 399.82 399.25
  L 399.82 232.92
  A 0.37 0.36 80.1 0 0 399.33 232.57
  L 203.80 305.11
  A 2.69 2.69 0.0 0 0 202.13 306.96
  C 193.49 339.92 164.94 363.59 132.56 371.36
  C 104.17 378.17 71.08 372.89 48.80 352.96
  C 23.44 330.29 17.62 294.10 34.11 264.53
  C 50.04 235.98 80.88 218.61 112.91 216.22
  Q 143.89 213.92 169.89 229.41
  A 3.74 3.71 -36.8 0 0 172.77 229.81
  Q 231.11 214.21 290.64 199.66
  C 294.85 198.63 301.27 196.66 300.18 191.38
  A 1.82 1.78 17.0 0 0 299.67 190.45
  Q 298.10 188.88 296.21 188.04
  Q 249.05 167.27 146.33 122.03
  A 1.12 1.11 -60.2 0 0 144.97 122.40
  C 130.21 142.75 102.92 148.62 80.67 137.81
  C 56.19 125.92 50.30 95.56 68.40 75.17
  Q 75.39 67.29 85.12 63.02
  Q 106.91 53.44 128.49 63.19
  Q 141.09 68.89 147.80 80.93
  A 1.47 1.47 0.0 0 0 149.29 81.67
  L 311.66 59.00
  A 0.80 0.79 -89.0 0 0 312.33 58.35
  Q 314.66 45.04 325.63 38.18
  Q 342.79 27.45 360.75 36.78
  C 366.65 39.84 371.44 45.71 373.26 52.52
  C 377.91 69.95 364.41 85.50 347.02 87.86
  Q 330.80 90.05 318.62 78.39
  A 0.70 0.69 -31.9 0 0 317.92 78.23
  Q 256.53 98.22 235.01 105.26
  Q 232.93 105.94 232.39 107.57
  A 3.12 2.50 29.0 0 0 233.66 110.67
  C 236.51 112.73 240.49 113.98 244.26 115.72
  Q 321.76 151.38 399.16 187.06
  A 0.47 0.47 0.0 0 0 399.83 186.64
  L 400.00 0.63
  Z
  M 358.2066 57.8856
  A 15.15 11.88 -9.4 0 0 341.3197 48.6395
  A 15.15 11.88 -9.4 0 0 328.3134 62.8344
  A 15.15 11.88 -9.4 0 0 345.2003 72.0805
  A 15.15 11.88 -9.4 0 0 358.2066 57.8856
  Z
  M 127.9354 97.1632
  A 23.12 18.13 -9.0 0 0 102.2638 82.8732
  A 23.12 18.13 -9.0 0 0 82.2646 104.3968
  A 23.12 18.13 -9.0 0 0 107.9362 118.6868
  A 23.12 18.13 -9.0 0 0 127.9354 97.1632
  Z
  M 158.2494 284.0483
  A 45.16 33.61 -14.1 0 0 106.2621 262.4526
  A 45.16 33.61 -14.1 0 0 70.6506 306.0517
  A 45.16 33.61 -14.1 0 0 122.6379 327.6474
  A 45.16 33.61 -14.1 0 0 158.2494 284.0483
  Z"
/>
<ellipse fill="#0ba5eb" cx="0.00" cy="0.00" transform="translate(343.26,60.36) rotate(-9.4)" rx="15.15" ry="11.88"/>
<ellipse fill="#0ba5eb" cx="0.00" cy="0.00" transform="translate(105.10,100.78) rotate(-9.0)" rx="23.12" ry="18.13"/>
<ellipse fill="#0ba5eb" cx="0.00" cy="0.00" transform="translate(114.45,295.05) rotate(-14.1)" rx="45.16" ry="33.61"/>
</svg>
