<svg width="128" height="128" viewBox="0 0 128 128" fill="none" xmlns="http://www.w3.org/2000/svg">
<path fill-rule="evenodd" clip-rule="evenodd" d="M104.053 11.0715L128 63.8347L104.053 116.598C98.7047 118.317 93.0016 119.245 87.0815 119.245C78.9128 119.245 71.157 117.478 64.1758 114.305L87.0815 63.8347L64.1758 13.3649C71.157 10.1914 78.9128 8.42383 87.0815 8.42383C93.0016 8.42383 98.7047 9.35225 104.053 11.0715Z" fill="#0F62FE"/>
<path fill-rule="evenodd" clip-rule="evenodd" d="M40.6288 11.5301L64.1747 63.4106L40.6288 115.292C34.562 117.574 27.9891 118.822 21.1247 118.822C13.6444 118.822 6.51024 117.339 0 114.653L23.2559 63.4106L1.68347e-07 12.1691C6.51024 9.48224 13.6444 8 21.1247 8C27.9891 8 34.562 9.24821 40.6288 11.5301Z" fill="white"/>
</svg>
