<?xml version="1.0" encoding="UTF-8" standalone="no"?>
<!DOCTYPE svg PUBLIC "-//W3C//DTD SVG 1.1//EN" "http://www.w3.org/Graphics/SVG/1.1/DTD/svg11.dtd">
<svg xmlns="http://www.w3.org/2000/svg" version="1.1" viewBox="0.00 0.00 400.00 400.00">
<g stroke-width="2.00" fill="none" stroke-linecap="butt">
<path stroke="#231c3d" vector-effect="non-scaling-stroke" d="
  M 1.30 0.00
  Q -0.69 4.36 0.45 9.48
  Q 8.51 45.74 10.95 63.10
  Q 15.02 92.13 18.07 111.66
  Q 27.15 169.70 45.19 225.27
  Q 53.89 252.11 64.91 271.82
  C 74.01 288.11 86.32 302.88 100.81 318.07
  Q 111.74 329.53 121.26 336.80
  Q 147.86 357.13 180.49 357.81
  C 202.65 358.27 220.94 352.02 235.68 336.15
  Q 255.18 315.16 269.07 288.65
  Q 272.52 282.07 272.75 278.59
  Q 272.94 275.79 270.64 268.87"
/>
<path stroke="#926745" vector-effect="non-scaling-stroke" d="
  M 270.64 268.87
  Q 296.61 265.46 322.82 267.79"
/>
<path stroke="#2a1e53" vector-effect="non-scaling-stroke" d="
  M 322.82 267.79
  Q 308.87 278.40 301.80 288.97
  C 293.12 301.97 283.34 317.79 272.55 331.61
  C 264.53 341.90 255.45 351.44 244.39 357.68
  C 232.43 364.42 218.93 367.90 205.27 369.19
  Q 164.35 373.07 127.53 357.41
  C 100.56 345.94 78.79 327.18 61.45 303.77
  C 30.06 261.38 13.66 209.44 3.07 158.30
  Q 1.63 151.32 0.00 144.35"
/>
<path stroke="#231c3d" vector-effect="non-scaling-stroke" d="
  M 400.00 3.12
  L 399.53 56.73
  A 2.41 2.34 59.4 0 1 399.29 57.73
  Q 390.51 76.00 384.87 85.04
  Q 369.86 109.10 343.95 150.63
  Q 325.44 180.32 312.97 206.49
  Q 306.21 220.71 296.19 244.81"
/>
<path stroke="#8d653b" vector-effect="non-scaling-stroke" d="
  M 296.19 244.81
  Q 274.98 245.08 254.12 249.09
  Q 240.98 251.61 227.87 257.04
  Q 211.40 263.85 200.48 277.50
  A 0.41 0.41 0.0 0 1 199.83 277.49
  C 186.01 259.00 161.11 251.08 139.01 247.70
  Q 107.12 242.82 73.81 245.72
  A 0.40 0.40 0.0 0 0 73.45 246.17
  L 75.61 267.15
  A 0.67 0.67 0.0 0 0 76.34 267.75
  Q 107.05 265.04 136.98 269.79
  C 157.26 273.01 187.18 281.94 187.29 307.36
  A 0.53 0.52 89.4 0 0 187.81 307.88
  L 212.66 307.88
  A 0.47 0.47 0.0 0 0 213.13 307.41
  C 213.07 288.81 229.62 278.90 245.28 274.08
  Q 257.80 270.22 270.64 268.87"
/>
<path stroke="#8d653b" vector-effect="non-scaling-stroke" d="
  M 201.52 146.21
  Q 207.98 145.79 212.28 140.68
  C 225.02 125.53 209.37 100.75 198.11 89.47
  C 198.00 89.36 197.91 89.36 197.76 89.37
  C 197.71 89.37 197.62 89.38 197.52 89.51
  C 187.83 102.16 175.53 128.76 190.14 142.13
  Q 195.06 146.64 201.52 146.21"
/>
<path stroke="#8d653b" vector-effect="non-scaling-stroke" d="
  M 162.14 161.32
  Q 165.01 155.52 162.75 149.24
  C 156.04 130.61 126.75 131.72 111.35 135.80
  C 111.19 135.84 111.15 135.91 111.13 135.97
  C 111.06 136.10 111.02 136.18 111.09 136.33
  C 117.16 151.06 134.01 175.04 152.90 169.11
  Q 159.27 167.11 162.14 161.32"
/>
<path stroke="#8d653b" vector-effect="non-scaling-stroke" d="
  M 236.05 161.25
  Q 238.91 167.05 245.28 169.06
  C 264.16 175.02 281.04 151.07 287.14 136.35
  C 287.21 136.20 287.17 136.12 287.10 135.99
  C 287.08 135.93 287.04 135.86 286.88 135.82
  C 271.48 131.71 242.20 130.56 235.46 149.17
  Q 233.19 155.45 236.05 161.25"
/>
<path stroke="#8d653b" vector-effect="non-scaling-stroke" d="
  M 200.34 229.74
  Q 206.81 229.51 211.25 224.53
  C 224.43 209.76 209.52 184.54 198.60 172.94
  C 198.49 172.83 198.41 172.82 198.26 172.83
  C 198.20 172.83 198.11 172.84 198.01 172.96
  C 187.95 185.32 174.89 211.54 189.09 225.32
  Q 193.88 229.97 200.34 229.74"
/>
<path stroke="#8d653b" vector-effect="non-scaling-stroke" d="
  M 141.88 206.66
  Q 143.64 200.43 140.25 194.66
  C 130.20 177.56 101.56 184.05 87.15 190.91
  C 87.00 190.98 86.97 191.07 86.96 191.12
  C 86.92 191.26 86.90 191.35 86.99 191.48
  C 95.69 204.87 116.71 225.37 134.21 216.05
  Q 140.12 212.90 141.88 206.66"
/>
<path stroke="#8d653b" vector-effect="non-scaling-stroke" d="
  M 256.27 206.67
  Q 258.03 212.91 263.93 216.05
  C 281.44 225.37 302.46 204.87 311.16 191.48
  C 311.25 191.34 311.23 191.26 311.19 191.12
  C 311.17 191.06 311.14 190.98 311.00 190.91
  C 296.58 184.05 267.94 177.56 257.89 194.66
  Q 254.51 200.43 256.27 206.67"
/>
<path stroke="#2a1e53" vector-effect="non-scaling-stroke" d="
  M 400.00 108.86
  C 385.83 131.21 369.39 155.41 357.45 175.93
  C 344.38 198.39 331.99 221.50 321.80 245.43"
/>
<path stroke="#926745" vector-effect="non-scaling-stroke" d="
  M 321.80 245.43
  L 296.19 244.81"
/>
<path stroke="#311e6d" vector-effect="non-scaling-stroke" d="
  M 400.00 157.44
  Q 390.01 172.37 387.51 176.73
  Q 367.34 211.86 342.48 257.96
  C 326.97 286.71 310.64 313.46 291.42 338.01
  Q 274.01 360.25 247.32 369.18
  Q 224.53 376.81 195.00 377.44
  C 162.53 378.14 128.51 370.68 100.12 354.97
  C 73.80 340.41 52.32 317.46 35.81 291.92
  C 21.53 269.81 10.71 245.18 0.00 220.78"
/>
<path stroke="#956751" vector-effect="non-scaling-stroke" d="
  M 322.82 267.79
  Q 324.78 268.26 324.89 267.24
  Q 326.02 256.87 326.98 246.35
  A 0.50 0.50 0.0 0 0 326.52 245.80
  L 321.80 245.43"
/>
<path stroke="#3b1e8f" vector-effect="non-scaling-stroke" d="
  M 400.00 245.93
  C 386.74 261.23 377.00 279.29 366.40 296.43
  Q 356.76 312.02 346.12 326.94
  Q 327.79 352.68 302.68 371.74"
/>
<path stroke="#412988" vector-effect="non-scaling-stroke" d="
  M 302.68 371.74
  L 297.20 372.33"
/>
<path stroke="#3b257c" vector-effect="non-scaling-stroke" d="
  M 297.20 372.33
  C 295.80 369.51 291.98 369.94 289.35 370.43
  C 277.48 372.64 261.58 376.41 247.30 377.75
  Q 235.10 378.91 208.11 380.75
  C 167.39 383.54 123.68 375.44 89.26 354.45
  C 58.68 335.80 35.05 307.87 17.83 276.51
  Q 9.00 260.44 0.00 244.22"
/>
<path stroke="#463089" vector-effect="non-scaling-stroke" d="
  M 297.20 372.33
  Q 276.85 380.29 252.44 384.34
  Q 221.26 389.51 196.23 389.45
  C 163.07 389.37 126.94 383.52 96.23 370.97
  C 73.52 361.69 53.31 347.19 35.99 329.73
  Q 30.54 324.24 17.80 308.62
  Q 9.02 297.87 0.00 287.20"
/>
<path stroke="#4520b1" vector-effect="non-scaling-stroke" d="
  M 400.00 287.47
  C 391.69 297.90 385.09 308.40 378.05 319.20
  Q 365.31 338.76 348.24 354.70
  Q 337.70 364.55 319.72 374.57"
/>
<path stroke="#4c2ca8" vector-effect="non-scaling-stroke" d="
  M 319.72 374.57
  L 298.19 378.56"
/>
<path stroke="#46299c" vector-effect="non-scaling-stroke" d="
  M 298.19 378.56
  C 300.03 377.19 303.72 374.53 302.68 371.74"
/>
<path stroke="#562dca" vector-effect="non-scaling-stroke" d="
  M 400.00 368.84
  Q 364.91 374.48 330.70 381.41"
/>
<path stroke="#512eb6" vector-effect="non-scaling-stroke" d="
  M 330.70 381.41
  Q 326.15 377.36 319.72 374.57"
/>
<path stroke="#5237a1" vector-effect="non-scaling-stroke" d="
  M 298.19 378.56
  Q 287.00 381.98 275.94 386.03
  Q 267.59 389.09 260.46 390.41
  Q 235.43 395.04 209.14 395.55
  Q 175.65 396.20 150.32 392.89
  Q 128.16 389.99 100.45 381.95
  Q 56.49 369.20 22.89 338.12
  Q 12.54 328.54 0.00 314.99"
/>
<path stroke="#5d39c1" vector-effect="non-scaling-stroke" d="
  M 330.70 381.41
  Q 326.08 384.90 322.04 388.39
  C 316.52 393.15 309.37 395.24 302.09 396.78
  Q 294.25 398.44 286.36 400.00"
/>
<path stroke="#5d39c1" vector-effect="non-scaling-stroke" d="
  M 146.90 400.00
  Q 121.88 396.21 97.04 391.65
  C 93.46 390.99 88.10 390.42 83.52 388.98
  Q 51.74 378.98 24.40 359.82
  Q 6.37 347.18 0.00 342.48"
/>
<path stroke="#6b43d8" vector-effect="non-scaling-stroke" d="
  M 96.51 400.00
  Q 91.98 398.59 90.62 398.26
  Q 65.75 392.21 57.86 389.68
  Q 44.40 385.36 36.73 381.09
  Q 18.43 370.88 0.00 360.81"
/>
</g>
<path fill="#271e47" d="
  M 1.30 0.00
  Q -0.69 4.36 0.45 9.48
  Q 8.51 45.74 10.95 63.10
  Q 15.02 92.13 18.07 111.66
  Q 27.15 169.70 45.19 225.27
  Q 53.89 252.11 64.91 271.82
  C 74.01 288.11 86.32 302.88 100.81 318.07
  Q 111.74 329.53 121.26 336.80
  Q 147.86 357.13 180.49 357.81
  C 202.65 358.27 220.94 352.02 235.68 336.15
  Q 255.18 315.16 269.07 288.65
  Q 272.52 282.07 272.75 278.59
  Q 272.94 275.79 270.64 268.87
  Q 296.61 265.46 322.82 267.79
  Q 308.87 278.40 301.80 288.97
  C 293.12 301.97 283.34 317.79 272.55 331.61
  C 264.53 341.90 255.45 351.44 244.39 357.68
  C 232.43 364.42 218.93 367.90 205.27 369.19
  Q 164.35 373.07 127.53 357.41
  C 100.56 345.94 78.79 327.18 61.45 303.77
  C 30.06 261.38 13.66 209.44 3.07 158.30
  Q 1.63 151.32 0.00 144.35
  L 0.00 0.00
  L 1.30 0.00
  Z"
/>
<path fill="#1e1a33" d="
  M 400.00 0.00
  L 400.00 3.12
  L 399.53 56.73
  A 2.41 2.34 59.4 0 1 399.29 57.73
  Q 390.51 76.00 384.87 85.04
  Q 369.86 109.10 343.95 150.63
  Q 325.44 180.32 312.97 206.49
  Q 306.21 220.71 296.19 244.81
  Q 274.98 245.08 254.12 249.09
  Q 240.98 251.61 227.87 257.04
  Q 211.40 263.85 200.48 277.50
  A 0.41 0.41 0.0 0 1 199.83 277.49
  C 186.01 259.00 161.11 251.08 139.01 247.70
  Q 107.12 242.82 73.81 245.72
  A 0.40 0.40 0.0 0 0 73.45 246.17
  L 75.61 267.15
  A 0.67 0.67 0.0 0 0 76.34 267.75
  Q 107.05 265.04 136.98 269.79
  C 157.26 273.01 187.18 281.94 187.29 307.36
  A 0.53 0.52 89.4 0 0 187.81 307.88
  L 212.66 307.88
  A 0.47 0.47 0.0 0 0 213.13 307.41
  C 213.07 288.81 229.62 278.90 245.28 274.08
  Q 257.80 270.22 270.64 268.87
  Q 272.94 275.79 272.75 278.59
  Q 272.52 282.07 269.07 288.65
  Q 255.18 315.16 235.68 336.15
  C 220.94 352.02 202.65 358.27 180.49 357.81
  Q 147.86 357.13 121.26 336.80
  Q 111.74 329.53 100.81 318.07
  C 86.32 302.88 74.01 288.11 64.91 271.82
  Q 53.89 252.11 45.19 225.27
  Q 27.15 169.70 18.07 111.66
  Q 15.02 92.13 10.95 63.10
  Q 8.51 45.74 0.45 9.48
  Q -0.69 4.36 1.30 0.00
  L 400.00 0.00
  Z
  M 201.52 146.21
  Q 207.98 145.79 212.28 140.68
  C 225.02 125.53 209.37 100.75 198.11 89.47
  C 198.00 89.36 197.91 89.36 197.76 89.37
  C 197.71 89.37 197.62 89.38 197.52 89.51
  C 187.83 102.16 175.53 128.76 190.14 142.13
  Q 195.06 146.64 201.52 146.21
  Z
  M 162.14 161.32
  Q 165.01 155.52 162.75 149.24
  C 156.04 130.61 126.75 131.72 111.35 135.80
  C 111.19 135.84 111.15 135.91 111.13 135.97
  C 111.06 136.10 111.02 136.18 111.09 136.33
  C 117.16 151.06 134.01 175.04 152.90 169.11
  Q 159.27 167.11 162.14 161.32
  Z
  M 236.05 161.25
  Q 238.91 167.05 245.28 169.06
  C 264.16 175.02 281.04 151.07 287.14 136.35
  C 287.21 136.20 287.17 136.12 287.10 135.99
  C 287.08 135.93 287.04 135.86 286.88 135.82
  C 271.48 131.71 242.20 130.56 235.46 149.17
  Q 233.19 155.45 236.05 161.25
  Z
  M 200.34 229.74
  Q 206.81 229.51 211.25 224.53
  C 224.43 209.76 209.52 184.54 198.60 172.94
  C 198.49 172.83 198.41 172.82 198.26 172.83
  C 198.20 172.83 198.11 172.84 198.01 172.96
  C 187.95 185.32 174.89 211.54 189.09 225.32
  Q 193.88 229.97 200.34 229.74
  Z
  M 141.88 206.66
  Q 143.64 200.43 140.25 194.66
  C 130.20 177.56 101.56 184.05 87.15 190.91
  C 87.00 190.98 86.97 191.07 86.96 191.12
  C 86.92 191.26 86.90 191.35 86.99 191.48
  C 95.69 204.87 116.71 225.37 134.21 216.05
  Q 140.12 212.90 141.88 206.66
  Z
  M 256.27 206.67
  Q 258.03 212.91 263.93 216.05
  C 281.44 225.37 302.46 204.87 311.16 191.48
  C 311.25 191.34 311.23 191.26 311.19 191.12
  C 311.17 191.06 311.14 190.98 311.00 190.91
  C 296.58 184.05 267.94 177.56 257.89 194.66
  Q 254.51 200.43 256.27 206.67
  Z"
/>
<path fill="#271e47" d="
  M 400.00 3.12
  L 400.00 108.86
  C 385.83 131.21 369.39 155.41 357.45 175.93
  C 344.38 198.39 331.99 221.50 321.80 245.43
  L 296.19 244.81
  Q 306.21 220.71 312.97 206.49
  Q 325.44 180.32 343.95 150.63
  Q 369.86 109.10 384.87 85.04
  Q 390.51 76.00 399.29 57.73
  A 2.41 2.34 59.4 0 0 399.53 56.73
  L 400.00 3.12
  Z"
/>
<path fill="#fcb043" d="
  M 201.52 146.21
  Q 195.06 146.64 190.14 142.13
  C 175.53 128.76 187.83 102.16 197.52 89.51
  C 197.62 89.38 197.71 89.37 197.76 89.37
  C 197.91 89.36 198.00 89.36 198.11 89.47
  C 209.37 100.75 225.02 125.53 212.28 140.68
  Q 207.98 145.79 201.52 146.21
  Z"
/>
<path fill="#2d1e5e" d="
  M 400.00 108.86
  L 400.00 157.44
  Q 390.01 172.37 387.51 176.73
  Q 367.34 211.86 342.48 257.96
  C 326.97 286.71 310.64 313.46 291.42 338.01
  Q 274.01 360.25 247.32 369.18
  Q 224.53 376.81 195.00 377.44
  C 162.53 378.14 128.51 370.68 100.12 354.97
  C 73.80 340.41 52.32 317.46 35.81 291.92
  C 21.53 269.81 10.71 245.18 0.00 220.78
  L 0.00 144.35
  Q 1.63 151.32 3.07 158.30
  C 13.66 209.44 30.06 261.38 61.45 303.77
  C 78.79 327.18 100.56 345.94 127.53 357.41
  Q 164.35 373.07 205.27 369.19
  C 218.93 367.90 232.43 364.42 244.39 357.68
  C 255.45 351.44 264.53 341.90 272.55 331.61
  C 283.34 317.79 293.12 301.97 301.80 288.97
  Q 308.87 278.40 322.82 267.79
  Q 324.78 268.26 324.89 267.24
  Q 326.02 256.87 326.98 246.35
  A 0.50 0.50 0.0 0 0 326.52 245.80
  L 321.80 245.43
  C 331.99 221.50 344.38 198.39 357.45 175.93
  C 369.39 155.41 385.83 131.21 400.00 108.86
  Z"
/>
<path fill="#fcb043" d="
  M 162.14 161.32
  Q 159.27 167.11 152.90 169.11
  C 134.01 175.04 117.16 151.06 111.09 136.33
  C 111.02 136.18 111.06 136.10 111.13 135.97
  C 111.15 135.91 111.19 135.84 111.35 135.80
  C 126.75 131.72 156.04 130.61 162.75 149.24
  Q 165.01 155.52 162.14 161.32
  Z"
/>
<path fill="#fcb043" d="
  M 236.05 161.25
  Q 233.19 155.45 235.46 149.17
  C 242.20 130.56 271.48 131.71 286.88 135.82
  C 287.04 135.86 287.08 135.93 287.10 135.99
  C 287.17 136.12 287.21 136.20 287.14 136.35
  C 281.04 151.07 264.16 175.02 245.28 169.06
  Q 238.91 167.05 236.05 161.25
  Z"
/>
<path fill="#351e7b" d="
  M 400.00 157.44
  L 400.00 245.93
  C 386.74 261.23 377.00 279.29 366.40 296.43
  Q 356.76 312.02 346.12 326.94
  Q 327.79 352.68 302.68 371.74
  L 297.20 372.33
  C 295.80 369.51 291.98 369.94 289.35 370.43
  C 277.48 372.64 261.58 376.41 247.30 377.75
  Q 235.10 378.91 208.11 380.75
  C 167.39 383.54 123.68 375.44 89.26 354.45
  C 58.68 335.80 35.05 307.87 17.83 276.51
  Q 9.00 260.44 0.00 244.22
  L 0.00 220.78
  C 10.71 245.18 21.53 269.81 35.81 291.92
  C 52.32 317.46 73.80 340.41 100.12 354.97
  C 128.51 370.68 162.53 378.14 195.00 377.44
  Q 224.53 376.81 247.32 369.18
  Q 274.01 360.25 291.42 338.01
  C 310.64 313.46 326.97 286.71 342.48 257.96
  Q 367.34 211.86 387.51 176.73
  Q 390.01 172.37 400.00 157.44
  Z"
/>
<path fill="#fcb043" d="
  M 200.34 229.74
  Q 193.88 229.97 189.09 225.32
  C 174.89 211.54 187.95 185.32 198.01 172.96
  C 198.11 172.84 198.20 172.83 198.26 172.83
  C 198.41 172.82 198.49 172.83 198.60 172.94
  C 209.52 184.54 224.43 209.76 211.25 224.53
  Q 206.81 229.51 200.34 229.74
  Z"
/>
<path fill="#fcb043" d="
  M 141.88 206.66
  Q 140.12 212.90 134.21 216.05
  C 116.71 225.37 95.69 204.87 86.99 191.48
  C 86.90 191.35 86.92 191.26 86.96 191.12
  C 86.97 191.07 87.00 190.98 87.15 190.91
  C 101.56 184.05 130.20 177.56 140.25 194.66
  Q 143.64 200.43 141.88 206.66
  Z"
/>
<path fill="#fcb043" d="
  M 256.27 206.67
  Q 254.51 200.43 257.89 194.66
  C 267.94 177.56 296.58 184.05 311.00 190.91
  C 311.14 190.98 311.17 191.06 311.19 191.12
  C 311.23 191.26 311.25 191.34 311.16 191.48
  C 302.46 204.87 281.44 225.37 263.93 216.05
  Q 258.03 212.91 256.27 206.67
  Z"
/>
<path fill="#402c7d" d="
  M 297.20 372.33
  Q 276.85 380.29 252.44 384.34
  Q 221.26 389.51 196.23 389.45
  C 163.07 389.37 126.94 383.52 96.23 370.97
  C 73.52 361.69 53.31 347.19 35.99 329.73
  Q 30.54 324.24 17.80 308.62
  Q 9.02 297.87 0.00 287.20
  L 0.00 244.22
  Q 9.00 260.44 17.83 276.51
  C 35.05 307.87 58.68 335.80 89.26 354.45
  C 123.68 375.44 167.39 383.54 208.11 380.75
  Q 235.10 378.91 247.30 377.75
  C 261.58 376.41 277.48 372.64 289.35 370.43
  C 291.98 369.94 295.80 369.51 297.20 372.33
  Z"
/>
<path fill="#401ea3" d="
  M 400.00 245.93
  L 400.00 287.47
  C 391.69 297.90 385.09 308.40 378.05 319.20
  Q 365.31 338.76 348.24 354.70
  Q 337.70 364.55 319.72 374.57
  L 298.19 378.56
  C 300.03 377.19 303.72 374.53 302.68 371.74
  Q 327.79 352.68 346.12 326.94
  Q 356.76 312.02 366.40 296.43
  C 377.00 279.29 386.74 261.23 400.00 245.93
  Z"
/>
<path fill="#fcb043" d="
  M 296.19 244.81
  L 321.80 245.43
  L 326.52 245.80
  A 0.50 0.50 0.0 0 1 326.98 246.35
  Q 326.02 256.87 324.89 267.24
  Q 324.78 268.26 322.82 267.79
  Q 296.61 265.46 270.64 268.87
  Q 257.80 270.22 245.28 274.08
  C 229.62 278.90 213.07 288.81 213.13 307.41
  A 0.47 0.47 0.0 0 1 212.66 307.88
  L 187.81 307.88
  A 0.53 0.52 89.4 0 1 187.29 307.36
  C 187.18 281.94 157.26 273.01 136.98 269.79
  Q 107.05 265.04 76.34 267.75
  A 0.67 0.67 0.0 0 1 75.61 267.15
  L 73.45 246.17
  A 0.40 0.40 0.0 0 1 73.81 245.72
  Q 107.12 242.82 139.01 247.70
  C 161.11 251.08 186.01 259.00 199.83 277.49
  A 0.41 0.41 0.0 0 0 200.48 277.50
  Q 211.40 263.85 227.87 257.04
  Q 240.98 251.61 254.12 249.09
  Q 274.98 245.08 296.19 244.81
  Z"
/>
<path fill="#4a21bf" d="
  M 400.00 287.47
  L 400.00 368.84
  Q 364.91 374.48 330.70 381.41
  Q 326.15 377.36 319.72 374.57
  Q 337.70 364.55 348.24 354.70
  Q 365.31 338.76 378.05 319.20
  C 385.09 308.40 391.69 297.90 400.00 287.47
  Z"
/>
<path fill="#4c3394" d="
  M 297.20 372.33
  L 302.68 371.74
  C 303.72 374.53 300.03 377.19 298.19 378.56
  Q 287.00 381.98 275.94 386.03
  Q 267.59 389.09 260.46 390.41
  Q 235.43 395.04 209.14 395.55
  Q 175.65 396.20 150.32 392.89
  Q 128.16 389.99 100.45 381.95
  Q 56.49 369.20 22.89 338.12
  Q 12.54 328.54 0.00 314.99
  L 0.00 287.20
  Q 9.02 297.87 17.80 308.62
  Q 30.54 324.24 35.99 329.73
  C 53.31 347.19 73.52 361.69 96.23 370.97
  C 126.94 383.52 163.07 389.37 196.23 389.45
  Q 221.26 389.51 252.44 384.34
  Q 276.85 380.29 297.20 372.33
  Z"
/>
<path fill="#583aad" d="
  M 298.19 378.56
  L 319.72 374.57
  Q 326.15 377.36 330.70 381.41
  Q 326.08 384.90 322.04 388.39
  C 316.52 393.15 309.37 395.24 302.09 396.78
  Q 294.25 398.44 286.36 400.00
  L 146.90 400.00
  Q 121.88 396.21 97.04 391.65
  C 93.46 390.99 88.10 390.42 83.52 388.98
  Q 51.74 378.98 24.40 359.82
  Q 6.37 347.18 0.00 342.48
  L 0.00 314.99
  Q 12.54 328.54 22.89 338.12
  Q 56.49 369.20 100.45 381.95
  Q 128.16 389.99 150.32 392.89
  Q 175.65 396.20 209.14 395.55
  Q 235.43 395.04 260.46 390.41
  Q 267.59 389.09 275.94 386.03
  Q 287.00 381.98 298.19 378.56
  Z"
/>
<path fill="#6238d5" d="
  M 146.90 400.00
  L 96.51 400.00
  Q 91.98 398.59 90.62 398.26
  Q 65.75 392.21 57.86 389.68
  Q 44.40 385.36 36.73 381.09
  Q 18.43 370.88 0.00 360.81
  L 0.00 342.48
  Q 6.37 347.18 24.40 359.82
  Q 51.74 378.98 83.52 388.98
  C 88.10 390.42 93.46 390.99 97.04 391.65
  Q 121.88 396.21 146.90 400.00
  Z"
/>
<path fill="#734ddb" d="
  M 96.51 400.00
  L 0.00 400.00
  L 0.00 360.81
  Q 18.43 370.88 36.73 381.09
  Q 44.40 385.36 57.86 389.68
  Q 65.75 392.21 90.62 398.26
  Q 91.98 398.59 96.51 400.00
  Z"
/>
<path fill="#6238d5" d="
  M 400.00 368.84
  L 400.00 400.00
  L 286.36 400.00
  Q 294.25 398.44 302.09 396.78
  C 309.37 395.24 316.52 393.15 322.04 388.39
  Q 326.08 384.90 330.70 381.41
  Q 364.91 374.48 400.00 368.84
  Z"
/>
</svg>
