<?xml version="1.0" encoding="UTF-8" standalone="no"?>
<!DOCTYPE svg PUBLIC "-//W3C//DTD SVG 1.1//EN" "http://www.w3.org/Graphics/SVG/1.1/DTD/svg11.dtd">
<svg xmlns="http://www.w3.org/2000/svg" version="1.1" viewBox="0.00 0.00 32.00 32.00">
<path fill="#002142" d="
  M 24.85 24.59
  L 24.85 5.99
  A 0.44 0.44 0.0 0 1 25.29 5.55
  L 26.59 5.55
  A 0.44 0.44 0.0 0 1 27.03 5.99
  L 27.03 26.72
  A 0.44 0.44 0.0 0 1 26.59 27.16
  L 5.86 27.16
  A 0.44 0.44 0.0 0 1 5.42 26.72
  L 5.42 5.99
  A 0.44 0.44 0.0 0 1 5.86 5.55
  L 22.33 5.55
  A 0.44 0.44 0.0 0 1 22.77 5.99
  L 22.77 7.22
  A 0.44 0.44 0.0 0 1 22.33 7.66
  L 7.99 7.66
  A 0.44 0.44 0.0 0 0 7.55 8.10
  L 7.55 24.59
  A 0.44 0.44 0.0 0 0 7.99 25.03
  L 24.41 25.03
  A 0.44 0.44 0.0 0 0 24.85 24.59
  Z"
/>
<path fill="#002142" d="
  M 12.21 20.73
  L 20.22 20.73
  A 0.39 0.39 0.0 0 0 20.61 20.34
  L 20.61 12.29
  A 0.39 0.39 0.0 0 0 20.22 11.90
  L 14.32 11.90
  A 0.39 0.39 0.0 0 1 13.93 11.51
  L 13.93 10.19
  A 0.39 0.39 0.0 0 1 14.32 9.80
  L 22.34 9.80
  A 0.39 0.39 0.0 0 1 22.73 10.19
  L 22.73 22.46
  A 0.39 0.39 0.0 0 1 22.34 22.85
  L 10.07 22.85
  A 0.39 0.39 0.0 0 1 9.68 22.46
  L 9.68 10.15
  A 0.39 0.39 0.0 0 1 10.07 9.76
  L 11.43 9.76
  A 0.39 0.39 0.0 0 1 11.82 10.15
  L 11.82 20.34
  A 0.39 0.39 0.0 0 0 12.21 20.73
  Z"
/>
<rect fill="#002142" x="-2.27" y="-2.27" transform="translate(16.21,16.35) rotate(0.3)" width="4.54" height="4.54" rx="0.44"/>
</svg>
