<?xml version="1.0" encoding="UTF-8" standalone="no"?>
<!DOCTYPE svg PUBLIC "-//W3C//DTD SVG 1.1//EN" "http://www.w3.org/Graphics/SVG/1.1/DTD/svg11.dtd">
<svg xmlns="http://www.w3.org/2000/svg" version="1.1" viewBox="0.00 0.00 400.00 400.00">
<g stroke-width="2.00" fill="none" stroke-linecap="butt">
<path stroke="#ae94f8" vector-effect="non-scaling-stroke" d="
  M 73.21 199.98
  Q 73.20 235.53 73.34 242.50
  Q 73.54 252.39 74.65 256.54
  Q 79.96 276.51 97.15 286.36
  Q 160.48 322.65 174.24 330.79
  Q 186.61 338.11 199.97 338.11
  Q 213.34 338.12 225.72 330.80
  Q 239.47 322.66 302.82 286.39
  Q 320.01 276.55 325.33 256.58
  Q 326.44 252.43 326.64 242.54
  Q 326.78 235.57 326.78 200.02
  Q 326.79 164.46 326.65 157.49
  Q 326.45 147.60 325.34 143.45
  Q 320.03 123.48 302.84 113.63
  Q 239.51 77.34 225.76 69.20
  Q 213.38 61.88 200.02 61.88
  Q 186.65 61.88 174.28 69.20
  Q 160.52 77.33 97.18 113.60
  Q 79.98 123.45 74.67 143.41
  Q 73.56 147.56 73.36 157.45
  Q 73.21 164.42 73.21 199.98"
/>
<path stroke="#ae94f8" vector-effect="non-scaling-stroke" d="
  M 101.29 189.13
  C 98.51 189.25 96.99 190.85 96.98 193.51
  Q 96.83 216.98 96.93 245.26
  Q 96.97 259.31 108.84 266.20
  Q 123.58 274.75 181.31 307.93
  C 189.00 312.35 193.91 315.40 201.70 315.03
  C 205.23 314.86 212.40 312.89 214.37 309.16
  Q 215.07 307.84 215.07 305.00
  Q 215.06 241.45 215.03 237.75
  Q 214.84 216.45 229.29 202.23
  Q 234.40 197.19 247.60 189.96
  Q 254.00 186.45 271.73 176.19
  Q 273.20 175.34 275.89 175.11
  A 2.15 2.10 -35.2 0 1 276.94 175.28
  C 282.15 177.51 280.91 183.30 281.02 189.34
  C 281.11 194.37 280.21 197.69 276.07 200.34
  Q 270.21 204.09 256.64 211.64
  Q 250.55 215.03 248.20 216.69
  C 239.68 222.70 238.42 230.79 238.43 240.75
  Q 238.49 275.83 238.47 282.00
  C 238.45 288.61 238.37 296.44 247.67 291.17
  Q 276.92 274.62 291.63 265.89
  Q 303.06 259.10 303.03 245.99
  Q 302.95 211.11 303.10 161.53
  Q 303.14 149.45 301.90 146.17
  Q 299.02 138.55 292.12 134.26
  Q 287.83 131.60 282.45 134.68
  Q 247.91 154.42 227.88 166.12
  Q 219.06 171.27 215.22 172.49
  Q 200.34 177.22 186.31 173.43
  Q 180.51 171.86 166.84 163.80
  Q 157.67 158.40 144.89 151.12
  C 141.41 149.14 139.02 147.02 140.21 142.88
  A 3.74 3.66 73.0 0 1 140.83 141.68
  Q 141.75 140.53 146.40 137.91
  C 151.78 134.88 157.02 131.29 161.59 133.92
  Q 178.84 143.82 186.67 148.35
  Q 194.86 153.10 203.22 151.82
  Q 207.13 151.23 215.57 146.35
  Q 252.13 125.28 256.51 122.76
  C 258.64 121.54 260.82 118.37 258.88 116.03
  Q 257.63 114.52 254.76 112.85
  Q 233.89 100.76 212.40 88.45
  Q 199.92 81.31 187.03 88.78
  Q 154.95 107.36 114.77 130.28
  Q 113.52 131.00 111.88 131.89
  C 103.31 136.56 97.17 143.07 96.88 153.33
  C 96.78 156.88 98.17 159.61 101.15 161.34
  Q 106.44 164.43 159.92 195.08
  Q 177.54 205.18 182.52 224.40
  C 183.75 229.16 183.93 235.11 183.97 240.00
  Q 184.04 249.66 183.90 273.47
  Q 183.88 275.71 181.50 277.91
  C 179.25 279.97 176.28 278.65 173.82 277.43
  Q 168.38 274.73 164.91 272.27
  Q 160.94 269.47 160.93 263.99
  Q 160.93 261.99 160.71 236.99
  Q 160.62 226.62 154.37 219.74
  Q 151.78 216.89 139.51 210.10
  Q 130.93 205.35 105.42 190.57
  Q 102.82 189.07 101.29 189.13"
/>
</g>
<path fill="#5d29f0" d="
  M 400.00 0.00
  L 400.00 400.00
  L 0.00 400.00
  L 0.00 0.00
  L 400.00 0.00
  Z
  M 73.21 199.98
  Q 73.20 235.53 73.34 242.50
  Q 73.54 252.39 74.65 256.54
  Q 79.96 276.51 97.15 286.36
  Q 160.48 322.65 174.24 330.79
  Q 186.61 338.11 199.97 338.11
  Q 213.34 338.12 225.72 330.80
  Q 239.47 322.66 302.82 286.39
  Q 320.01 276.55 325.33 256.58
  Q 326.44 252.43 326.64 242.54
  Q 326.78 235.57 326.78 200.02
  Q 326.79 164.46 326.65 157.49
  Q 326.45 147.60 325.34 143.45
  Q 320.03 123.48 302.84 113.63
  Q 239.51 77.34 225.76 69.20
  Q 213.38 61.88 200.02 61.88
  Q 186.65 61.88 174.28 69.20
  Q 160.52 77.33 97.18 113.60
  Q 79.98 123.45 74.67 143.41
  Q 73.56 147.56 73.36 157.45
  Q 73.21 164.42 73.21 199.98
  Z"
/>
<path fill="#ffffff" d="
  M 200.02 61.88
  Q 213.38 61.88 225.76 69.20
  Q 239.51 77.34 302.84 113.63
  Q 320.03 123.48 325.34 143.45
  Q 326.45 147.60 326.65 157.49
  Q 326.79 164.46 326.78 200.02
  Q 326.78 235.57 326.64 242.54
  Q 326.44 252.43 325.33 256.58
  Q 320.01 276.55 302.82 286.39
  Q 239.47 322.66 225.72 330.80
  Q 213.34 338.12 199.97 338.11
  Q 186.61 338.11 174.24 330.79
  Q 160.48 322.65 97.15 286.36
  Q 79.96 276.51 74.65 256.54
  Q 73.54 252.39 73.34 242.50
  Q 73.20 235.53 73.21 199.98
  Q 73.21 164.42 73.36 157.45
  Q 73.56 147.56 74.67 143.41
  Q 79.98 123.45 97.18 113.60
  Q 160.52 77.33 174.28 69.20
  Q 186.65 61.88 200.02 61.88
  Z
  M 101.29 189.13
  C 98.51 189.25 96.99 190.85 96.98 193.51
  Q 96.83 216.98 96.93 245.26
  Q 96.97 259.31 108.84 266.20
  Q 123.58 274.75 181.31 307.93
  C 189.00 312.35 193.91 315.40 201.70 315.03
  C 205.23 314.86 212.40 312.89 214.37 309.16
  Q 215.07 307.84 215.07 305.00
  Q 215.06 241.45 215.03 237.75
  Q 214.84 216.45 229.29 202.23
  Q 234.40 197.19 247.60 189.96
  Q 254.00 186.45 271.73 176.19
  Q 273.20 175.34 275.89 175.11
  A 2.15 2.10 -35.2 0 1 276.94 175.28
  C 282.15 177.51 280.91 183.30 281.02 189.34
  C 281.11 194.37 280.21 197.69 276.07 200.34
  Q 270.21 204.09 256.64 211.64
  Q 250.55 215.03 248.20 216.69
  C 239.68 222.70 238.42 230.79 238.43 240.75
  Q 238.49 275.83 238.47 282.00
  C 238.45 288.61 238.37 296.44 247.67 291.17
  Q 276.92 274.62 291.63 265.89
  Q 303.06 259.10 303.03 245.99
  Q 302.95 211.11 303.10 161.53
  Q 303.14 149.45 301.90 146.17
  Q 299.02 138.55 292.12 134.26
  Q 287.83 131.60 282.45 134.68
  Q 247.91 154.42 227.88 166.12
  Q 219.06 171.27 215.22 172.49
  Q 200.34 177.22 186.31 173.43
  Q 180.51 171.86 166.84 163.80
  Q 157.67 158.40 144.89 151.12
  C 141.41 149.14 139.02 147.02 140.21 142.88
  A 3.74 3.66 73.0 0 1 140.83 141.68
  Q 141.75 140.53 146.40 137.91
  C 151.78 134.88 157.02 131.29 161.59 133.92
  Q 178.84 143.82 186.67 148.35
  Q 194.86 153.10 203.22 151.82
  Q 207.13 151.23 215.57 146.35
  Q 252.13 125.28 256.51 122.76
  C 258.64 121.54 260.82 118.37 258.88 116.03
  Q 257.63 114.52 254.76 112.85
  Q 233.89 100.76 212.40 88.45
  Q 199.92 81.31 187.03 88.78
  Q 154.95 107.36 114.77 130.28
  Q 113.52 131.00 111.88 131.89
  C 103.31 136.56 97.17 143.07 96.88 153.33
  C 96.78 156.88 98.17 159.61 101.15 161.34
  Q 106.44 164.43 159.92 195.08
  Q 177.54 205.18 182.52 224.40
  C 183.75 229.16 183.93 235.11 183.97 240.00
  Q 184.04 249.66 183.90 273.47
  Q 183.88 275.71 181.50 277.91
  C 179.25 279.97 176.28 278.65 173.82 277.43
  Q 168.38 274.73 164.91 272.27
  Q 160.94 269.47 160.93 263.99
  Q 160.93 261.99 160.71 236.99
  Q 160.62 226.62 154.37 219.74
  Q 151.78 216.89 139.51 210.10
  Q 130.93 205.35 105.42 190.57
  Q 102.82 189.07 101.29 189.13
  Z"
/>
<path fill="#5d29f0" d="
  M 96.98 193.51
  C 96.99 190.85 98.51 189.25 101.29 189.13
  Q 102.82 189.07 105.42 190.57
  Q 130.93 205.35 139.51 210.10
  Q 151.78 216.89 154.37 219.74
  Q 160.62 226.62 160.71 236.99
  Q 160.93 261.99 160.93 263.99
  Q 160.94 269.47 164.91 272.27
  Q 168.38 274.73 173.82 277.43
  C 176.28 278.65 179.25 279.97 181.50 277.91
  Q 183.88 275.71 183.90 273.47
  Q 184.04 249.66 183.97 240.00
  C 183.93 235.11 183.75 229.16 182.52 224.40
  Q 177.54 205.18 159.92 195.08
  Q 106.44 164.43 101.15 161.34
  C 98.17 159.61 96.78 156.88 96.88 153.33
  C 97.17 143.07 103.31 136.56 111.88 131.89
  Q 113.52 131.00 114.77 130.28
  Q 154.95 107.36 187.03 88.78
  Q 199.92 81.31 212.40 88.45
  Q 233.89 100.76 254.76 112.85
  Q 257.63 114.52 258.88 116.03
  C 260.82 118.37 258.64 121.54 256.51 122.76
  Q 252.13 125.28 215.57 146.35
  Q 207.13 151.23 203.22 151.82
  Q 194.86 153.10 186.67 148.35
  Q 178.84 143.82 161.59 133.92
  C 157.02 131.29 151.78 134.88 146.40 137.91
  Q 141.75 140.53 140.83 141.68
  A 3.74 3.66 73.0 0 0 140.21 142.88
  C 139.02 147.02 141.41 149.14 144.89 151.12
  Q 157.67 158.40 166.84 163.80
  Q 180.51 171.86 186.31 173.43
  Q 200.34 177.22 215.22 172.49
  Q 219.06 171.27 227.88 166.12
  Q 247.91 154.42 282.45 134.68
  Q 287.83 131.60 292.12 134.26
  Q 299.02 138.55 301.90 146.17
  Q 303.14 149.45 303.10 161.53
  Q 302.95 211.11 303.03 245.99
  Q 303.06 259.10 291.63 265.89
  Q 276.92 274.62 247.67 291.17
  C 238.37 296.44 238.45 288.61 238.47 282.00
  Q 238.49 275.83 238.43 240.75
  C 238.42 230.79 239.68 222.70 248.20 216.69
  Q 250.55 215.03 256.64 211.64
  Q 270.21 204.09 276.07 200.34
  C 280.21 197.69 281.11 194.37 281.02 189.34
  C 280.91 183.30 282.15 177.51 276.94 175.28
  A 2.15 2.10 -35.2 0 0 275.89 175.11
  Q 273.20 175.34 271.73 176.19
  Q 254.00 186.45 247.60 189.96
  Q 234.40 197.19 229.29 202.23
  Q 214.84 216.45 215.03 237.75
  Q 215.06 241.45 215.07 305.00
  Q 215.07 307.84 214.37 309.16
  C 212.40 312.89 205.23 314.86 201.70 315.03
  C 193.91 315.40 189.00 312.35 181.31 307.93
  Q 123.58 274.75 108.84 266.20
  Q 96.97 259.31 96.93 245.26
  Q 96.83 216.98 96.98 193.51
  Z"
/>
</svg>
