<?xml version="1.0" encoding="UTF-8" standalone="no"?>
<!DOCTYPE svg PUBLIC "-//W3C//DTD SVG 1.1//EN" "http://www.w3.org/Graphics/SVG/1.1/DTD/svg11.dtd">
<svg xmlns="http://www.w3.org/2000/svg" version="1.1" viewBox="0.00 0.00 32.00 32.00">
<g stroke-width="2.00" fill="none" stroke-linecap="butt">
<path stroke="#939aa1" vector-effect="non-scaling-stroke" d="
  M 26.25 15.39
  Q 23.10 18.11 21.22 17.97
  C 14.30 17.47 19.52 7.52 23.93 12.22
  A 1.83 1.82 -36.4 0 0 26.16 12.55
  L 26.21 12.52
  A 1.34 1.34 0.0 0 0 26.66 10.61
  Q 24.43 7.25 20.23 8.20
  Q 16.68 9.00 16.97 11.22
  A 0.62 0.62 0.0 0 1 16.45 11.92
  Q 15.54 12.06 15.41 12.21
  Q 14.97 12.68 15.72 13.69
  Q 17.15 15.61 16.18 18.25
  A 0.96 0.95 -63.9 0 0 16.57 19.40
  Q 20.41 21.78 24.10 19.38
  Q 26.79 17.64 26.82 15.66
  A 0.35 0.34 70.1 0 0 26.25 15.39"
/>
<path stroke="#939aa1" vector-effect="non-scaling-stroke" d="
  M 10.87 11.30
  A 0.86 0.85 -63.7 0 1 12.03 10.90
  Q 15.71 12.77 16.08 10.83
  A 2.35 1.81 16.7 0 0 14.49 8.62
  C 11.38 7.49 6.98 8.83 7.43 12.90
  C 7.65 14.84 10.87 15.42 11.82 15.78
  A 0.99 0.99 0.0 0 1 11.92 17.57
  Q 10.78 18.18 10.38 17.69
  Q 8.94 15.92 6.63 17.18
  A 0.71 0.70 68.8 0 0 6.28 17.98
  C 7.14 21.40 12.30 20.86 14.29 19.38
  C 16.60 17.65 16.46 14.41 13.51 13.39
  Q 12.85 13.16 11.18 12.62
  A 0.75 0.75 0.0 0 1 10.73 11.58
  L 10.87 11.30"
/>
<path stroke="#85e6fe" vector-effect="non-scaling-stroke" d="
  M 11.78 23.51
  L 19.43 22.92"
/>
<path stroke="#fced8a" vector-effect="non-scaling-stroke" d="
  M 19.43 22.92
  Q 22.33 23.30 25.19 22.62
  A 0.55 0.54 68.1 0 0 25.53 21.81
  Q 25.34 21.48 24.74 21.47
  Q 22.13 21.41 19.52 21.63"
/>
<path stroke="#85e6fe" vector-effect="non-scaling-stroke" d="
  M 19.52 21.63
  L 11.56 21.61"
/>
<path stroke="#acacff" vector-effect="non-scaling-stroke" d="
  M 11.56 21.61
  L 7.71 21.61
  A 2.53 2.52 20.9 0 0 5.87 22.43
  L 5.26 23.11
  A 0.50 0.50 0.0 0 0 5.67 23.94
  L 11.78 23.51"
/>
<path stroke="#3293fe" vector-effect="non-scaling-stroke" d="
  M 11.56 21.61
  Q 12.04 22.22 11.78 23.51"
/>
<path stroke="#82d489" vector-effect="non-scaling-stroke" d="
  M 19.52 21.63
  Q 19.26 22.31 19.43 22.92"
/>
</g>
<path fill="#ffffff" d="
  M 27.00 0.00
  Q 30.96 1.00 32.00 4.93
  L 32.00 27.12
  Q 30.93 30.93 27.16 32.00
  L 4.88 32.00
  Q 1.03 30.93 0.00 27.10
  L 0.00 4.89
  Q 1.07 1.03 4.93 0.00
  L 27.00 0.00
  Z
  M 26.25 15.39
  Q 23.10 18.11 21.22 17.97
  C 14.30 17.47 19.52 7.52 23.93 12.22
  A 1.83 1.82 -36.4 0 0 26.16 12.55
  L 26.21 12.52
  A 1.34 1.34 0.0 0 0 26.66 10.61
  Q 24.43 7.25 20.23 8.20
  Q 16.68 9.00 16.97 11.22
  A 0.62 0.62 0.0 0 1 16.45 11.92
  Q 15.54 12.06 15.41 12.21
  Q 14.97 12.68 15.72 13.69
  Q 17.15 15.61 16.18 18.25
  A 0.96 0.95 -63.9 0 0 16.57 19.40
  Q 20.41 21.78 24.10 19.38
  Q 26.79 17.64 26.82 15.66
  A 0.35 0.34 70.1 0 0 26.25 15.39
  Z
  M 10.87 11.30
  A 0.86 0.85 -63.7 0 1 12.03 10.90
  Q 15.71 12.77 16.08 10.83
  A 2.35 1.81 16.7 0 0 14.49 8.62
  C 11.38 7.49 6.98 8.83 7.43 12.90
  C 7.65 14.84 10.87 15.42 11.82 15.78
  A 0.99 0.99 0.0 0 1 11.92 17.57
  Q 10.78 18.18 10.38 17.69
  Q 8.94 15.92 6.63 17.18
  A 0.71 0.70 68.8 0 0 6.28 17.98
  C 7.14 21.40 12.30 20.86 14.29 19.38
  C 16.60 17.65 16.46 14.41 13.51 13.39
  Q 12.85 13.16 11.18 12.62
  A 0.75 0.75 0.0 0 1 10.73 11.58
  L 10.87 11.30
  Z
  M 11.78 23.51
  L 19.43 22.92
  Q 22.33 23.30 25.19 22.62
  A 0.55 0.54 68.1 0 0 25.53 21.81
  Q 25.34 21.48 24.74 21.47
  Q 22.13 21.41 19.52 21.63
  L 11.56 21.61
  L 7.71 21.61
  A 2.53 2.52 20.9 0 0 5.87 22.43
  L 5.26 23.11
  A 0.50 0.50 0.0 0 0 5.67 23.94
  L 11.78 23.51
  Z"
/>
<path fill="#263542" d="
  M 26.82 15.66
  Q 26.79 17.64 24.10 19.38
  Q 20.41 21.78 16.57 19.40
  A 0.96 0.95 -63.9 0 1 16.18 18.25
  Q 17.15 15.61 15.72 13.69
  Q 14.97 12.68 15.41 12.21
  Q 15.54 12.06 16.45 11.92
  A 0.62 0.62 0.0 0 0 16.97 11.22
  Q 16.68 9.00 20.23 8.20
  Q 24.43 7.25 26.66 10.61
  A 1.34 1.34 0.0 0 1 26.21 12.52
  L 26.16 12.55
  A 1.83 1.82 -36.4 0 1 23.93 12.22
  C 19.52 7.52 14.30 17.47 21.22 17.97
  Q 23.10 18.11 26.25 15.39
  A 0.35 0.34 70.1 0 1 26.82 15.66
  Z"
/>
<path fill="#263542" d="
  M 10.87 11.30
  L 10.73 11.58
  A 0.75 0.75 0.0 0 0 11.18 12.62
  Q 12.85 13.16 13.51 13.39
  C 16.46 14.41 16.60 17.65 14.29 19.38
  C 12.30 20.86 7.14 21.40 6.28 17.98
  A 0.71 0.70 68.8 0 1 6.63 17.18
  Q 8.94 15.92 10.38 17.69
  Q 10.78 18.18 11.92 17.57
  A 0.99 0.99 0.0 0 0 11.82 15.78
  C 10.87 15.42 7.65 14.84 7.43 12.90
  C 6.98 8.83 11.38 7.49 14.49 8.62
  A 2.35 1.81 16.7 0 1 16.08 10.83
  Q 15.71 12.77 12.03 10.90
  A 0.86 0.85 -63.7 0 0 10.87 11.30
  Z"
/>
<path fill="#5959ff" d="
  M 11.56 21.61
  Q 12.04 22.22 11.78 23.51
  L 5.67 23.94
  A 0.50 0.50 0.0 0 1 5.26 23.11
  L 5.87 22.43
  A 2.53 2.52 20.9 0 1 7.71 21.61
  L 11.56 21.61
  Z"
/>
<path fill="#0bcdfd" d="
  M 19.52 21.63
  Q 19.26 22.31 19.43 22.92
  L 11.78 23.51
  Q 12.04 22.22 11.56 21.61
  L 19.52 21.63
  Z"
/>
<path fill="#f9da14" d="
  M 19.43 22.92
  Q 19.26 22.31 19.52 21.63
  Q 22.13 21.41 24.74 21.47
  Q 25.34 21.48 25.53 21.81
  A 0.55 0.54 68.1 0 1 25.19 22.62
  Q 22.33 23.30 19.43 22.92
  Z"
/>
</svg>
