<svg width="128" height="128" viewBox="0 0 128 128" fill="none" xmlns="http://www.w3.org/2000/svg">
<g clip-path="url(#clip0_291_5930)">
<mask id="mask0_291_5930" style="mask-type:luminance" maskUnits="userSpaceOnUse" x="0" y="19" width="128" height="90">
<path d="M0.0280762 19.458H127.608V108.749H0.0280762V19.458Z" fill="white"/>
</mask>
<g mask="url(#mask0_291_5930)">
<path fill-rule="evenodd" clip-rule="evenodd" d="M53.1027 29.1996C57.2179 24.9123 62.9479 22.252 69.2846 22.252C77.7077 22.252 85.0576 26.9491 88.9703 33.9229C92.4712 32.3586 96.2634 31.5523 100.098 31.5571C115.291 31.5571 127.608 43.9815 127.608 59.3087C127.608 74.6359 115.291 87.0608 100.098 87.0608C98.2426 87.0608 96.4309 86.8742 94.6783 86.5206C91.2326 92.667 84.6638 96.8206 77.1263 96.8206C74.0776 96.8249 71.0682 96.1322 68.3281 94.7956C64.835 103.014 56.6937 108.777 47.2081 108.777C37.3277 108.777 28.9069 102.526 25.6769 93.759C24.2373 94.0627 22.7699 94.2155 21.2986 94.2147C9.5353 94.2147 0 84.5795 0 72.6943C0 64.7283 4.28355 57.7736 10.6503 54.0532C9.30134 50.9471 8.6072 47.5962 8.61116 44.2098C8.61116 30.5401 19.7078 19.458 33.3958 19.458C41.4321 19.458 48.5744 23.2783 53.1027 29.1996Z" fill="#00A1E0"/>
</g>
<path fill-rule="evenodd" clip-rule="evenodd" d="M18.4826 65.7766C18.4024 65.9858 18.5112 66.0294 18.537 66.0664C18.7766 66.2399 19.0199 66.3655 19.2656 66.5067C20.5667 67.1954 21.7965 67.3975 23.0812 67.3975C25.6989 67.3975 27.3249 66.0059 27.3249 63.7647V63.7207C27.3249 61.6483 25.4893 60.8953 23.7691 60.3519L23.5445 60.2792C22.2471 59.8582 21.1275 59.4939 21.1275 58.6391V58.5955C21.1275 57.8636 21.782 57.3258 22.7962 57.3258C23.9238 57.3258 25.26 57.7005 26.1218 58.1764C26.1218 58.1764 26.3759 58.3405 26.4683 58.0952C26.5185 57.9625 26.9541 56.7895 27.0005 56.6624C27.0502 56.525 26.963 56.4214 26.8734 56.3679C25.8893 55.7683 24.53 55.3604 23.123 55.3604L22.8618 55.3613C20.4659 55.3613 18.793 56.8101 18.793 58.8834V58.9279C18.793 61.1129 20.6385 61.8232 22.3672 62.3169L22.6447 62.4032C23.9036 62.7895 24.9909 63.1233 24.9909 64.009V64.0531C24.9909 64.8642 24.2843 65.4667 23.1464 65.4667C22.7052 65.4667 21.2967 65.4592 19.7748 64.4966C19.5905 64.3893 19.4855 64.3119 19.3434 64.2252C19.2684 64.1797 19.0809 64.0976 18.9993 64.3433L18.4826 65.7766ZM56.8029 65.7766C56.7227 65.9858 56.8315 66.0294 56.8582 66.0664C57.0969 66.2399 57.3407 66.3655 57.5859 66.5067C58.8875 67.1954 60.1173 67.3975 61.4015 67.3975C64.0192 67.3975 65.6457 66.0059 65.6457 63.7647V63.7207C65.6457 61.6483 63.8105 60.8953 62.0898 60.3519L61.8652 60.2792C60.5679 59.8582 59.4478 59.4939 59.4478 58.6391V58.5955C59.4478 57.8636 60.1028 57.3258 61.1174 57.3258C62.2445 57.3258 63.5803 57.7005 64.4421 58.1764C64.4421 58.1764 64.6962 58.3405 64.7891 58.0952C64.8388 57.9625 65.2748 56.7895 65.3208 56.6624C65.3709 56.525 65.2833 56.4214 65.1942 56.3679C64.2096 55.7683 62.8508 55.3604 61.4437 55.3604L61.1821 55.3613C58.7867 55.3613 57.1138 56.8101 57.1138 58.8834V58.9279C57.1138 61.1129 58.9587 61.8232 60.6879 62.3169L60.965 62.4032C62.2244 62.7895 63.3117 63.1233 63.3117 64.009V64.0531C63.3117 64.8642 62.6046 65.4667 61.4676 65.4667C61.0255 65.4667 59.617 65.4592 58.0956 64.4966C57.9113 64.3893 57.8035 64.3152 57.6637 64.2252C57.6164 64.1952 57.3955 64.1089 57.3201 64.3433L56.8029 65.7766ZM82.9632 61.3862C82.9632 62.6521 82.7269 63.6518 82.2627 64.3565C81.8013 65.0551 81.1051 65.395 80.1341 65.395C79.163 65.395 78.4705 65.0555 78.0167 64.3574C77.5586 63.6522 77.326 62.6521 77.326 61.3862C77.326 60.1212 77.5586 59.1249 78.0167 58.4272C78.4705 57.7356 79.163 57.3999 80.1341 57.3999C81.1051 57.3999 81.8013 57.7361 82.2627 58.4277C82.7278 59.1249 82.9632 60.1212 82.9632 61.3862ZM85.149 59.0386C84.9338 58.3123 84.5995 57.6733 84.1546 57.1402C83.7087 56.6057 83.1446 56.1757 82.476 55.8644C81.8084 55.5526 81.0207 55.3946 80.1341 55.3946C79.2474 55.3946 78.4593 55.5526 77.7911 55.8644C77.1235 56.1757 76.559 56.6057 76.1131 57.1411C75.6686 57.6751 75.3334 58.3133 75.1191 59.0386C74.9058 59.7592 74.7975 60.5493 74.7975 61.3862C74.7975 62.2236 74.9058 63.0141 75.1191 63.7338C75.3334 64.4587 75.6677 65.0973 76.1136 65.6322C76.5594 66.1677 77.1254 66.5939 77.7921 66.8977C78.4607 67.2015 79.2484 67.3562 80.1341 67.3562C81.0202 67.3562 81.807 67.2015 82.4751 66.8977C83.1428 66.5939 83.7077 66.1677 84.1546 65.6322C84.5995 65.0991 84.9338 64.4596 85.149 63.7338C85.3619 63.0127 85.4702 62.2227 85.4702 61.3862C85.4702 60.5502 85.3619 59.7597 85.149 59.0386ZM103.091 65.056C103.019 64.8436 102.812 64.9238 102.812 64.9238C102.495 65.0452 102.157 65.1577 101.796 65.214C101.432 65.2712 101.029 65.2998 100.599 65.2998C99.5422 65.2998 98.7006 64.9852 98.1 64.3635C97.4966 63.7413 97.1576 62.7361 97.1613 61.3764C97.1646 60.1404 97.4638 59.2093 98.0001 58.4994C98.5318 57.7942 99.3439 57.4323 100.424 57.4323C101.325 57.4323 102.013 57.5368 102.734 57.7628C102.734 57.7628 102.905 57.8374 102.987 57.6118C103.179 57.0806 103.32 56.7027 103.525 56.119C103.583 55.9525 103.44 55.8822 103.388 55.862C103.105 55.7514 102.436 55.5699 101.931 55.4935C101.459 55.4213 100.907 55.3838 100.291 55.3838C99.3739 55.3838 98.5557 55.5409 97.8562 55.8522C97.1581 56.163 96.5659 56.5925 96.0966 57.1266C95.6272 57.6615 95.2699 58.3006 95.0336 59.0255C94.7969 59.7466 94.6773 60.538 94.6773 61.3773C94.6773 63.1895 95.1663 64.6537 96.1308 65.7265C97.0985 66.803 98.5501 67.3497 100.445 67.3497C101.564 67.3497 102.712 67.1232 103.539 66.7978C103.539 66.7978 103.697 66.7219 103.628 66.5381L103.091 65.056ZM106.914 60.1723C107.019 59.4685 107.211 58.8839 107.512 58.4272C107.965 57.7356 108.656 57.3544 109.627 57.3544C110.598 57.3544 111.238 57.7361 111.699 58.4277C112.004 58.8848 112.137 59.4939 112.189 60.1732L106.914 60.1723ZM114.27 58.6265C114.084 57.926 113.626 57.2185 113.324 56.8949C112.848 56.382 112.382 56.0229 111.919 55.8245C111.25 55.5399 110.529 55.3936 109.801 55.3946C108.878 55.3946 108.039 55.5507 107.359 55.8695C106.678 56.1893 106.105 56.6263 105.657 57.1692C105.207 57.7117 104.87 58.3573 104.655 59.0897C104.439 59.8178 104.33 60.6116 104.33 61.45C104.33 62.3024 104.443 63.0971 104.666 63.8116C104.89 64.5323 105.251 65.1648 105.737 65.6913C106.224 66.2197 106.849 66.6342 107.597 66.923C108.341 67.2114 109.245 67.3609 110.282 67.3577C112.419 67.3506 113.543 66.8743 114.007 66.6178C114.089 66.5718 114.167 66.4926 114.07 66.2643L113.586 64.9102C113.512 64.7081 113.308 64.7812 113.308 64.7812C112.777 64.9791 112.027 65.3322 110.271 65.3284C109.124 65.3265 108.275 64.9875 107.741 64.4582C107.195 63.9167 106.926 63.1215 106.881 61.9981L114.276 62.0037C114.276 62.0037 114.471 62.0018 114.491 61.8115C114.499 61.7327 114.745 60.2923 114.27 58.6265ZM47.6783 60.1723C47.7829 59.4685 47.9761 58.8839 48.2761 58.4272C48.73 57.7356 49.4192 57.3544 50.3912 57.3544C51.3627 57.3544 52.0027 57.7361 52.464 58.4277C52.7683 58.8848 52.9015 59.4939 52.9535 60.1732L47.6783 60.1723ZM55.0343 58.6265C54.8487 57.926 54.3897 57.2185 54.0886 56.8949C53.6127 56.382 53.1472 56.0229 52.6839 55.8245C52.0141 55.54 51.2938 55.3938 50.5661 55.3946C49.6429 55.3946 48.8041 55.5507 48.1238 55.8695C47.4425 56.1893 46.87 56.6263 46.4204 57.1692C45.9717 57.7117 45.6346 58.3573 45.4184 59.0897C45.2032 59.8178 45.0949 60.6116 45.0949 61.45C45.0949 62.3024 45.2069 63.0971 45.4306 63.8116C45.6547 64.5323 46.0157 65.1648 46.5015 65.6913C46.9882 66.2197 47.6136 66.6342 48.3615 66.923C49.106 67.2114 50.0091 67.3609 51.0467 67.3577C53.1833 67.3506 54.3076 66.8743 54.7718 66.6178C54.8534 66.5718 54.9312 66.4926 54.8341 66.2643L54.3507 64.9102C54.2762 64.7081 54.0718 64.7812 54.0718 64.7812C53.5419 64.9791 52.7913 65.3322 51.0354 65.3284C49.889 65.3265 49.039 64.9875 48.5049 64.4582C47.9592 63.9167 47.6905 63.1215 47.645 61.9981L55.0404 62.0037C55.0404 62.0037 55.2355 62.0018 55.2556 61.8115C55.2636 61.7327 55.5093 60.2923 55.0343 58.6265ZM31.6915 65.0157C31.4012 64.7841 31.3609 64.7273 31.2648 64.5768C31.118 64.3504 31.043 64.0278 31.043 63.6147C31.043 62.9653 31.2587 62.4974 31.7032 62.1833C31.6985 62.1842 32.3408 61.6291 33.8482 61.6488C34.5207 61.6607 35.1916 61.7179 35.8564 61.8199V65.1817H35.8573C35.8573 65.1817 34.9172 65.3837 33.859 65.4475C32.3549 65.538 31.6868 65.0143 31.6915 65.0157ZM34.6345 59.8178C34.3345 59.7958 33.9458 59.785 33.4797 59.785C32.8463 59.785 32.2335 59.8638 31.6582 60.0185C31.0805 60.1742 30.561 60.4152 30.1142 60.7345C29.6677 61.0535 29.3004 61.4709 29.041 61.9545C28.7789 62.4426 28.6452 63.016 28.6452 63.6588C28.6452 64.3147 28.7592 64.883 28.9842 65.3472C29.2044 65.8074 29.5359 66.2054 29.9487 66.5053C30.3599 66.8044 30.8672 67.0238 31.4556 67.1579C32.0365 67.2906 32.6948 67.3577 33.4141 67.3577C34.1736 67.3577 34.929 67.2939 35.6609 67.1706C36.2843 67.0632 36.9054 66.9425 37.5237 66.8086C37.7703 66.7519 38.0422 66.6773 38.0422 66.6773C38.2251 66.6309 38.211 66.4354 38.211 66.4354L38.2068 59.6716C38.2068 58.1881 37.8111 57.0891 37.0314 56.4064C36.2554 55.727 35.1128 55.3838 33.6344 55.3838C33.0793 55.3838 32.1875 55.4588 31.6521 55.5662C31.6521 55.5662 30.0373 55.8794 29.3725 56.4003C29.3725 56.4003 29.2262 56.4903 29.3059 56.6943L29.8296 58.1009C29.8948 58.2833 30.0725 58.2209 30.0725 58.2209C30.0725 58.2209 30.1283 58.1989 30.1939 58.1599C31.6164 57.3863 33.4164 57.4093 33.4164 57.4093C34.2154 57.4093 34.831 57.571 35.2445 57.8875C35.6482 58.1975 35.8531 58.664 35.8531 59.65V59.9627C35.2187 59.8708 34.6345 59.8178 34.6345 59.8178ZM94.2905 56.0074C94.3012 55.9827 94.3067 55.956 94.3069 55.9291C94.307 55.9022 94.3018 55.8755 94.2914 55.8507C94.281 55.8258 94.2658 55.8033 94.2465 55.7845C94.2273 55.7656 94.2044 55.7509 94.1794 55.7411C94.0532 55.6932 93.4245 55.5606 92.9397 55.5305C92.0099 55.4724 91.4946 55.629 91.0323 55.8372C90.5738 56.044 90.066 56.3783 89.7828 56.7594L89.7819 55.8574C89.7819 55.7336 89.6942 55.6337 89.5695 55.6337H87.6734C87.5506 55.6337 87.4615 55.7336 87.4615 55.8574V66.8907C87.4616 66.9502 87.4853 67.0072 87.5274 67.0493C87.5695 67.0914 87.6265 67.1151 87.6861 67.1153H89.6295C89.689 67.1151 89.746 67.0914 89.788 67.0493C89.83 67.0072 89.8536 66.9502 89.8536 66.8907V61.3792C89.8536 60.6388 89.9352 59.9013 90.0979 59.4376C90.2583 58.9786 90.4763 58.6129 90.7463 58.3498C91.0022 58.096 91.3155 57.9075 91.6597 57.8003C91.9823 57.7078 92.3162 57.6607 92.6518 57.6606C93.0386 57.6606 93.4643 57.76 93.4643 57.76C93.6069 57.7759 93.6861 57.6887 93.7344 57.5603C93.8615 57.2222 94.2216 56.209 94.2905 56.0074Z" fill="#FFFFFE"/>
<path fill-rule="evenodd" clip-rule="evenodd" d="M76.0502 50.8942C75.8102 50.8217 75.5661 50.7638 75.3192 50.7207C74.9871 50.6653 74.6507 50.6393 74.314 50.6429C72.9763 50.6429 71.9218 51.0208 71.1815 51.7673C70.4463 52.5081 69.946 53.6366 69.6952 55.1215L69.6047 55.6227H67.9257C67.9257 55.6227 67.7208 55.6143 67.6776 55.8379L67.402 57.3758C67.3827 57.523 67.446 57.6149 67.643 57.614H69.2774L67.619 66.8708C67.4892 67.6163 67.3405 68.2296 67.176 68.6942C67.0137 69.1527 66.8553 69.4964 66.6602 69.7459C66.4713 69.9873 66.2922 70.165 65.9832 70.2686C65.7281 70.3544 65.4346 70.3938 65.113 70.3938C64.9339 70.3938 64.6957 70.3638 64.5198 70.3287C64.344 70.294 64.2526 70.2546 64.1208 70.1993C64.1208 70.1993 63.9291 70.1261 63.8536 70.3183C63.7922 70.4754 63.3566 71.6734 63.305 71.8215C63.2525 71.9678 63.3261 72.0832 63.419 72.1164C63.6365 72.1943 63.7983 72.244 64.0946 72.3138C64.5062 72.4109 64.8532 72.417 65.1781 72.417C65.8589 72.417 66.4792 72.3213 66.9936 72.1357C67.5112 71.9486 67.9618 71.6227 68.3603 71.1815C68.7912 70.7056 69.0622 70.2072 69.3215 69.5274C69.578 68.8536 69.7964 68.0172 69.9713 67.0424L71.6377 57.614H74.0739C74.0739 57.614 74.2793 57.6215 74.3219 57.3988L74.5976 55.8609C74.6168 55.7137 74.554 55.6218 74.3562 55.6227H71.9917C72.0034 55.5693 72.1108 54.7375 72.3822 53.9545C72.498 53.6202 72.7161 53.3506 72.9008 53.1654C73.0733 52.989 73.2857 52.8568 73.5202 52.78C73.7771 52.7006 74.045 52.6619 74.314 52.6656C74.5367 52.6656 74.7552 52.6923 74.9216 52.727C75.1509 52.7758 75.24 52.8016 75.3 52.8194C75.541 52.893 75.5733 52.8217 75.6207 52.705L76.1861 51.1521C76.2443 50.9852 76.1027 50.9149 76.0502 50.8942ZM43.0074 66.8905C43.0074 67.0143 42.9193 67.1151 42.7955 67.1151H40.8342C40.71 67.1151 40.6218 67.0143 40.6218 66.8905V51.1047C40.6218 50.9814 40.71 50.8816 40.8342 50.8816H42.7955C42.9193 50.8816 43.0074 50.9814 43.0074 51.1047V66.8905Z" fill="#FFFFFE"/>
</g>
<defs>
<clipPath id="clip0_291_5930">
<rect width="128" height="89.5531" fill="white" transform="translate(0 19.2236)"/>
</clipPath>
</defs>
</svg>
