<svg width="443" height="112" viewBox="0 0 443 112" fill="none" xmlns="http://www.w3.org/2000/svg">
<rect y="28.5258" width="18" height="83.8762" rx="9" transform="rotate(-45 0 28.5258)" fill="#525F99"/>
<rect x="50.6279" y="27.377" width="18" height="48.6225" rx="9" transform="rotate(-45 50.6279 27.377)" fill="#525F99"/>
<rect x="110.535" y="16.0246" width="18" height="86.9151" rx="9" transform="rotate(45 110.535 16.0246)" fill="#525F99"/>
<path d="M165.206 17.2877C171.278 17.2877 177.565 18.7904 184.066 21.7957L179.006 32.5597C173.854 29.9224 169.285 28.6037 165.298 28.6037C160.821 28.6037 158.582 30.1677 158.582 33.2957C158.582 34.5224 158.95 35.6264 159.686 36.6077C160.422 37.5277 161.71 38.6317 163.55 39.9197L174.682 47.7397C178.423 50.3157 181.183 53.0144 182.962 55.8357C184.802 58.5957 185.722 61.9384 185.722 65.8637C185.722 71.8744 183.759 76.4744 179.834 79.6637C175.97 82.853 170.603 84.4477 163.734 84.4477C159.686 84.4477 155.73 83.8957 151.866 82.7917C148.063 81.6877 144.598 80.1544 141.47 78.1917L146.714 67.4277C153.093 71.169 158.889 73.0397 164.102 73.0397C167.046 73.0397 169.285 72.457 170.818 71.2917C172.413 70.065 173.21 68.4704 173.21 66.5077C173.21 64.9744 172.689 63.5944 171.646 62.3677C170.603 61.141 168.947 59.6997 166.678 58.0437L156.282 50.5917C152.847 48.1997 150.271 45.6544 148.554 42.9557C146.898 40.1957 146.07 37.0984 146.07 33.6637C146.07 28.573 147.726 24.5864 151.038 21.7037C154.411 18.7597 159.134 17.2877 165.206 17.2877ZM211.251 84.4477C207.509 84.4477 204.075 83.5584 200.947 81.7797C197.819 80.001 195.335 77.425 193.495 74.0517C191.716 70.617 190.827 66.5384 190.827 61.8157C190.827 57.093 191.716 53.045 193.495 49.6717C195.335 46.237 197.819 43.6304 200.947 41.8517C204.075 40.073 207.509 39.1837 211.251 39.1837C214.563 39.1837 217.384 39.8277 219.715 41.1157C222.107 42.4037 224.008 44.213 225.419 46.5437H225.603V40.5637H236.827V83.0677H225.603V77.0877H225.419C224.008 79.4184 222.107 81.2277 219.715 82.5157C217.384 83.8037 214.563 84.4477 211.251 84.4477ZM214.103 73.7757C217.537 73.7757 220.297 72.6717 222.383 70.4637C224.529 68.2557 225.603 65.373 225.603 61.8157C225.603 58.2584 224.529 55.3757 222.383 53.1677C220.297 50.9597 217.537 49.8557 214.103 49.8557C210.668 49.8557 207.877 50.9597 205.731 53.1677C203.645 55.3757 202.603 58.2584 202.603 61.8157C202.603 65.373 203.645 68.2557 205.731 70.4637C207.877 72.6717 210.668 73.7757 214.103 73.7757ZM246.59 40.5637H257.814V46.5437H257.998C259.409 44.213 261.279 42.4037 263.61 41.1157C266.002 39.8277 268.854 39.1837 272.166 39.1837C275.907 39.1837 279.342 40.073 282.47 41.8517C285.598 43.6304 288.051 46.237 289.83 49.6717C291.67 53.045 292.59 57.093 292.59 61.8157C292.59 66.5384 291.67 70.617 289.83 74.0517C288.051 77.425 285.598 80.001 282.47 81.7797C279.342 83.5584 275.907 84.4477 272.166 84.4477C268.854 84.4477 266.002 83.8037 263.61 82.5157C261.279 81.2277 259.409 79.4184 257.998 77.0877H257.814V101.468H246.59V40.5637ZM269.314 73.7757C272.749 73.7757 275.509 72.6717 277.594 70.4637C279.741 68.2557 280.814 65.373 280.814 61.8157C280.814 58.2584 279.741 55.3757 277.594 53.1677C275.509 50.9597 272.749 49.8557 269.314 49.8557C265.879 49.8557 263.089 50.9597 260.942 53.1677C258.857 55.3757 257.814 58.2584 257.814 61.8157C257.814 65.373 258.857 68.2557 260.942 70.4637C263.089 72.6717 265.879 73.7757 269.314 73.7757ZM311.457 83.0677H300.141V18.6677H311.457V83.0677ZM321.883 40.5637H333.199V83.0677H321.883V40.5637ZM327.587 18.0237C329.795 18.0237 331.605 18.7597 333.015 20.2317C334.487 21.6424 335.223 23.4517 335.223 25.6597C335.223 27.8064 334.487 29.6157 333.015 31.0877C331.605 32.4984 329.795 33.2037 327.587 33.2037C325.441 33.2037 323.631 32.4984 322.159 31.0877C320.749 29.6157 320.043 27.8064 320.043 25.6597C320.043 23.4517 320.749 21.6424 322.159 20.2317C323.631 18.7597 325.441 18.0237 327.587 18.0237ZM368.65 39.1837C373.556 39.1837 377.451 40.625 380.334 43.5077C383.216 46.3904 384.658 50.837 384.658 56.8477V83.0677H373.342V59.5157C373.342 52.953 370.428 49.6717 364.602 49.6717C361.535 49.6717 359.112 50.6837 357.334 52.7077C355.555 54.7317 354.666 57.921 354.666 62.2757V83.0677H343.442V40.5637H354.574V47.0037H354.758C356.23 44.489 358.131 42.557 360.462 41.2077C362.854 39.8584 365.583 39.1837 368.65 39.1837ZM416.194 102.848C411.594 102.848 405.828 102.173 398.898 100.824L400.922 90.0597C406.81 91.4704 411.747 92.1757 415.734 92.1757C419.598 92.1757 422.327 91.3477 423.922 89.6917C425.516 88.097 426.314 85.2144 426.314 81.0437V77.0877H426.13C422.94 81.8104 418.187 84.1717 411.87 84.1717C408.128 84.1717 404.694 83.313 401.566 81.5957C398.499 79.817 396.046 77.241 394.206 73.8677C392.427 70.4944 391.538 66.477 391.538 61.8157C391.538 57.093 392.427 53.045 394.206 49.6717C396.046 46.237 398.53 43.6304 401.658 41.8517C404.786 40.073 408.22 39.1837 411.962 39.1837C415.274 39.1837 418.095 39.8277 420.426 41.1157C422.818 42.4037 424.719 44.213 426.13 46.5437H426.314V40.5637H437.538V83.0677C437.476 90.2437 435.606 95.3344 431.926 98.3397C428.246 101.345 423.002 102.848 416.194 102.848ZM414.814 73.7757C418.248 73.7757 421.008 72.6717 423.094 70.4637C425.24 68.2557 426.314 65.373 426.314 61.8157C426.314 58.2584 425.24 55.3757 423.094 53.1677C421.008 50.9597 418.248 49.8557 414.814 49.8557C411.379 49.8557 408.588 50.9597 406.442 53.1677C404.356 55.3757 403.314 58.2584 403.314 61.8157C403.314 65.373 404.356 68.2557 406.442 70.4637C408.588 72.6717 411.379 73.7757 414.814 73.7757Z" fill="#323232"/>
</svg>
