<?xml version="1.0" encoding="UTF-8" standalone="no"?>
<!DOCTYPE svg PUBLIC "-//W3C//DTD SVG 1.1//EN" "http://www.w3.org/Graphics/SVG/1.1/DTD/svg11.dtd">
<svg xmlns="http://www.w3.org/2000/svg" version="1.1" viewBox="0.00 0.00 48.00 48.00">
<path fill="#5cbafc" fill-opacity="0.996" d="
  M 23.98 10.43
  Q 24.00 10.43 24.02 10.43
  A 0.12 0.07 -4.0 0 1 24.08 10.46
  L 29.12 16.04
  A 1.34 1.33 -39.3 0 0 30.91 16.21
  Q 33.62 14.19 34.04 12.61
  A 2.57 2.49 54.4 0 0 34.15 11.87
  L 34.15 6.41
  A 1.23 1.21 -68.6 0 0 33.77 5.52
  Q 31.24 3.14 33.28 0.96
  A 2.63 2.63 0.0 0 1 37.19 1.03
  Q 39.14 3.29 36.62 5.47
  A 1.21 1.19 -21.4 0 0 36.22 6.36
  L 36.22 12.94
  A 1.86 1.80 -29.2 0 1 35.92 13.94
  Q 33.51 17.61 30.06 18.73
  A 1.00 1.00 0.0 0 0 30.25 20.68
  Q 32.49 20.93 33.90 20.26
  A 1.38 1.27 7.5 0 0 34.27 20.00
  L 38.10 16.17
  A 1.59 1.57 -18.9 0 0 38.55 15.26
  L 38.79 13.41
  A 1.59 1.54 71.4 0 1 39.20 12.55
  C 41.11 10.48 44.16 11.57 44.25 14.47
  A 1.97 1.96 -30.0 0 1 43.95 15.58
  Q 42.82 17.33 41.17 17.04
  A 1.75 1.73 27.3 0 0 39.63 17.52
  L 35.35 21.82
  A 3.57 3.41 -78.6 0 1 34.33 22.53
  Q 33.46 22.91 30.33 22.76
  A 0.81 0.80 19.5 0 0 29.64 23.08
  Q 29.40 23.40 29.40 24.00
  Q 29.40 24.60 29.64 24.93
  A 0.81 0.80 -19.4 0 0 30.33 25.25
  Q 33.46 25.10 34.33 25.48
  A 3.57 3.41 78.6 0 1 35.35 26.19
  L 39.63 30.49
  A 1.75 1.73 -27.3 0 0 41.17 30.97
  Q 42.82 30.69 43.95 32.44
  A 1.97 1.96 30.0 0 1 44.25 33.55
  C 44.16 36.45 41.11 37.53 39.20 35.46
  A 1.59 1.54 -71.4 0 1 38.79 34.60
  L 38.55 32.75
  A 1.59 1.57 18.9 0 0 38.10 31.84
  L 34.27 28.01
  A 1.38 1.27 -7.5 0 0 33.90 27.75
  Q 32.49 27.08 30.25 27.33
  A 1.00 1.00 0.0 0 0 30.06 29.28
  Q 33.51 30.40 35.92 34.07
  A 1.86 1.80 29.2 0 1 36.22 35.07
  L 36.21 41.65
  A 1.21 1.19 21.4 0 0 36.61 42.54
  Q 39.13 44.72 37.18 46.98
  A 2.63 2.63 0.0 0 1 33.27 47.05
  Q 31.23 44.87 33.76 42.49
  A 1.23 1.21 68.6 0 0 34.14 41.60
  L 34.15 36.14
  A 2.57 2.49 -54.4 0 0 34.04 35.40
  Q 33.62 33.82 30.91 31.80
  A 1.34 1.33 39.3 0 0 29.12 31.97
  L 24.08 37.55
  A 0.12 0.07 4.0 0 1 24.02 37.58
  Q 24.00 37.58 23.98 37.58
  Q 23.96 37.58 23.94 37.58
  A 0.12 0.07 -4.0 0 1 23.88 37.55
  L 18.84 31.97
  A 1.34 1.33 -39.3 0 0 17.05 31.80
  Q 14.34 33.82 13.92 35.40
  A 2.57 2.49 54.4 0 0 13.81 36.14
  L 13.81 41.60
  A 1.23 1.21 -68.6 0 0 14.19 42.49
  Q 16.72 44.87 14.68 47.05
  A 2.63 2.63 0.0 0 1 10.77 46.98
  Q 8.82 44.72 11.34 42.54
  A 1.21 1.19 -21.4 0 0 11.74 41.65
  L 11.74 35.07
  A 1.86 1.80 -29.2 0 1 12.04 34.07
  Q 14.45 30.40 17.90 29.28
  A 1.00 1.00 0.0 0 0 17.71 27.33
  Q 15.47 27.08 14.06 27.75
  A 1.38 1.27 7.5 0 0 13.69 28.01
  L 9.86 31.84
  A 1.59 1.57 -18.9 0 0 9.41 32.75
  L 9.17 34.60
  A 1.59 1.54 71.4 0 1 8.76 35.46
  C 6.85 37.53 3.80 36.44 3.71 33.54
  A 1.97 1.96 -30.0 0 1 4.01 32.43
  Q 5.14 30.68 6.79 30.97
  A 1.75 1.73 27.3 0 0 8.33 30.49
  L 12.61 26.19
  A 3.57 3.41 -78.6 0 1 13.63 25.48
  Q 14.50 25.10 17.63 25.25
  A 0.81 0.80 19.5 0 0 18.31 24.92
  Q 18.56 24.60 18.56 24.00
  Q 18.56 23.40 18.31 23.08
  A 0.81 0.80 -19.4 0 0 17.63 22.76
  Q 14.50 22.90 13.63 22.52
  A 3.57 3.41 78.6 0 1 12.61 21.81
  L 8.33 17.51
  A 1.75 1.73 -27.3 0 0 6.79 17.03
  Q 5.14 17.32 4.01 15.57
  A 1.97 1.96 30.0 0 1 3.71 14.46
  C 3.80 11.56 6.85 10.47 8.76 12.54
  A 1.59 1.54 -71.4 0 1 9.17 13.40
  L 9.41 15.25
  A 1.59 1.57 18.9 0 0 9.86 16.16
  L 13.69 19.99
  A 1.38 1.27 -7.5 0 0 14.06 20.25
  Q 15.47 20.92 17.71 20.68
  A 1.00 1.00 0.0 0 0 17.90 18.73
  Q 14.45 17.60 12.04 13.93
  A 1.86 1.80 29.2 0 1 11.74 12.93
  L 11.74 6.35
  A 1.21 1.19 21.4 0 0 11.35 5.46
  Q 8.83 3.28 10.78 1.02
  A 2.63 2.63 0.0 0 1 14.69 0.95
  Q 16.73 3.14 14.20 5.51
  A 1.23 1.21 68.6 0 0 13.81 6.40
  L 13.81 11.86
  A 2.57 2.49 -54.4 0 0 13.92 12.60
  Q 14.34 14.18 17.05 16.21
  A 1.34 1.33 39.3 0 0 18.84 16.04
  L 23.88 10.46
  A 0.12 0.07 4.0 0 1 23.94 10.43
  Q 23.96 10.43 23.98 10.43
  Z
  M 12.13 2.63
  A 0.79 0.76 86.8 0 0 13.23 3.66
  Q 13.52 3.46 13.37 2.66
  A 0.49 0.47 4.4 0 0 13.04 2.29
  Q 12.39 2.10 12.13 2.63
  Z
  M 35.95 3.02
  A 0.75 0.75 0.0 0 0 35.20 2.27
  A 0.75 0.75 0.0 0 0 34.45 3.02
  A 0.75 0.75 0.0 0 0 35.20 3.77
  A 0.75 0.75 0.0 0 0 35.95 3.02
  Z
  M 20.47 23.97
  Q 20.47 29.64 20.47 29.66
  A 2.07 0.61 -89.8 0 0 20.84 30.90
  L 23.76 34.48
  A 0.17 0.15 -11.9 0 0 23.88 34.55
  Q 23.92 34.55 23.95 34.55
  Q 23.99 34.55 24.03 34.55
  A 0.17 0.15 11.9 0 0 24.15 34.48
  L 27.06 30.90
  A 2.07 0.61 89.8 0 0 27.43 29.65
  Q 27.43 29.64 27.43 23.96
  Q 27.42 18.29 27.42 18.28
  A 2.07 0.61 -89.8 0 0 27.06 17.03
  L 24.14 13.45
  A 0.17 0.15 -11.9 0 0 24.02 13.39
  Q 23.97 13.38 23.94 13.38
  Q 23.91 13.38 23.87 13.39
  A 0.17 0.15 11.9 0 0 23.75 13.45
  L 20.83 17.04
  A 2.07 0.61 89.8 0 0 20.47 18.28
  Q 20.47 18.29 20.47 23.97
  Z
  M 7.3162 14.0565
  A 0.80 0.69 -14.0 0 0 6.3731 13.5805
  A 0.80 0.69 -14.0 0 0 5.7638 14.4435
  A 0.80 0.69 -14.0 0 0 6.7069 14.9195
  A 0.80 0.69 -14.0 0 0 7.3162 14.0565
  Z
  M 42.16 14.30
  A 0.76 0.76 0.0 0 0 41.40 13.54
  A 0.76 0.76 0.0 0 0 40.64 14.30
  A 0.76 0.76 0.0 0 0 41.40 15.06
  A 0.76 0.76 0.0 0 0 42.16 14.30
  Z
  M 7.2078 33.2173
  A 0.81 0.71 -35.7 0 0 6.1357 33.1134
  A 0.81 0.71 -35.7 0 0 5.8922 34.1627
  A 0.81 0.71 -35.7 0 0 6.9643 34.2666
  A 0.81 0.71 -35.7 0 0 7.2078 33.2173
  Z
  M 42.12 33.69
  A 0.75 0.75 0.0 0 0 41.37 32.94
  A 0.75 0.75 0.0 0 0 40.62 33.69
  A 0.75 0.75 0.0 0 0 41.37 34.44
  A 0.75 0.75 0.0 0 0 42.12 33.69
  Z
  M 13.51 44.96
  A 0.74 0.74 0.0 0 0 12.77 44.22
  A 0.74 0.74 0.0 0 0 12.03 44.96
  A 0.74 0.74 0.0 0 0 12.77 45.70
  A 0.74 0.74 0.0 0 0 13.51 44.96
  Z
  M 35.95 44.96
  A 0.75 0.75 0.0 0 0 35.20 44.21
  A 0.75 0.75 0.0 0 0 34.45 44.96
  A 0.75 0.75 0.0 0 0 35.20 45.71
  A 0.75 0.75 0.0 0 0 35.95 44.96
  Z"
/>
</svg>
