<svg width="605.928125px" height="148.4px" xmlns="http://www.w3.org/2000/svg" viewBox="-52.96406250000001 0.7999999999999972 605.928125 148.4" style="background: rgba(0, 0, 0, 0);" preserveAspectRatio="xMidYMid"><defs><filter id="editing-hole" x="-100%" y="-100%" width="300%" height="300%"><feFlood flood-color="#000000" result="black"></feFlood><feMorphology operator="dilate" radius="2" in="SourceGraphic" result="erode"></feMorphology><feGaussianBlur in="erode" stdDeviation="4" result="blur"></feGaussianBlur><feOffset in="blur" dx="2" dy="2" result="offset"></feOffset><feComposite operator="atop" in="offset" in2="black" result="merge"></feComposite><feComposite operator="in" in="merge" in2="SourceGraphic" result="inner-shadow"></feComposite></filter></defs><g filter="url(#editing-hole)"><g transform="translate(36.849976539611816, 104.25)"><path d="M30.14-29.57L30.14-31.87L30.14-31.87Q30.14-34.05 29.28-35.71L29.28-35.71L29.28-35.71Q28.42-37.38 26.94-38.46L26.94-38.46L26.94-38.46Q25.47-39.55 23.55-40.13L23.55-40.13L23.55-40.13Q21.63-40.70 19.52-40.70L19.52-40.70L19.52-40.70Q17.66-40.70 16-40.22L16-40.22L16-40.22Q14.34-39.74 13.02-38.85L13.02-38.85L13.02-38.85Q11.71-37.95 10.94-36.64L10.94-36.64L10.94-36.64Q10.18-35.33 10.18-33.60L10.18-33.60L10.18-33.22L10.18-33.22Q10.18-31.36 10.94-30.05L10.94-30.05L10.94-30.05Q11.71-28.74 13.22-27.81L13.22-27.81L13.22-27.81Q14.72-26.88 16.96-26.27L16.96-26.27L16.96-26.27Q19.20-25.66 22.21-25.22L22.21-25.22L22.21-25.22Q29.25-24.13 32.58-21.09L32.58-21.09L32.58-21.09Q35.90-18.05 35.90-12.93L35.90-12.93L35.90-12.16L35.90-12.16Q35.90-9.28 34.91-6.88L34.91-6.88L34.91-6.88Q33.92-4.48 31.97-2.75L31.97-2.75L31.97-2.75Q30.02-1.02 27.14-0.06L27.14-0.06L27.14-0.06Q24.26 0.90 20.48 0.90L20.48 0.90L20.48 0.90Q16.19 0.90 12.90-0.35L12.90-0.35L12.90-0.35Q9.60-1.60 7.39-3.81L7.39-3.81L7.39-3.81Q5.18-6.02 4.03-8.99L4.03-8.99L4.03-8.99Q2.88-11.97 2.88-15.49L2.88-15.49L2.88-17.41L8.26-17.41L8.26-15.87L8.26-15.87Q8.26-9.98 11.49-7.04L11.49-7.04L11.49-7.04Q14.72-4.10 20.48-4.10L20.48-4.10L20.48-4.10Q25.47-4.10 28-6.30L28-6.30L28-6.30Q30.53-8.51 30.53-12.16L30.53-12.16L30.53-12.54L30.53-12.54Q30.53-16.06 27.94-17.92L27.94-17.92L27.94-17.92Q25.34-19.78 19.52-20.61L19.52-20.61L19.52-20.61Q16.13-21.06 13.41-21.98L13.41-21.98L13.41-21.98Q10.69-22.91 8.77-24.42L8.77-24.42L8.77-24.42Q6.85-25.92 5.82-28.03L5.82-28.03L5.82-28.03Q4.80-30.14 4.80-33.02L4.80-33.02L4.80-33.79L4.80-33.79Q4.80-36.42 5.89-38.59L5.89-38.59L5.89-38.59Q6.98-40.77 8.93-42.37L8.93-42.37L8.93-42.37Q10.88-43.97 13.60-44.83L13.60-44.83L13.60-44.83Q16.32-45.70 19.58-45.70L19.58-45.70L19.58-45.70Q23.36-45.70 26.34-44.61L26.34-44.61L26.34-44.61Q29.31-43.52 31.36-41.70L31.36-41.70L31.36-41.70Q33.41-39.87 34.46-37.41L34.46-37.41L34.46-37.41Q35.52-34.94 35.52-32.26L35.52-32.26L35.52-29.57L30.14-29.57ZM69.44-12.42L74.43-11.26L74.43-11.26Q73.92-8.64 72.67-6.40L72.67-6.40L72.67-6.40Q71.42-4.16 69.50-2.53L69.50-2.53L69.50-2.53Q67.58-0.90 65.02 0L65.02 0L65.02 0Q62.46 0.90 59.33 0.90L59.33 0.90L59.33 0.90Q56 0.90 53.02-0.19L53.02-0.19L53.02-0.19Q50.05-1.28 47.81-3.36L47.81-3.36L47.81-3.36Q45.57-5.44 44.26-8.45L44.26-8.45L44.26-8.45Q42.94-11.46 42.94-15.36L42.94-15.36L42.94-16.13L42.94-16.13Q42.94-19.97 44.26-23.04L44.26-23.04L44.26-23.04Q45.57-26.11 47.81-28.22L47.81-28.22L47.81-28.22Q50.05-30.34 53.02-31.49L53.02-31.49L53.02-31.49Q56-32.64 59.33-32.64L59.33-32.64L59.33-32.64Q62.34-32.64 64.90-31.74L64.90-31.74L64.90-31.74Q67.46-30.85 69.41-29.22L69.41-29.22L69.41-29.22Q71.36-27.58 72.61-25.34L72.61-25.34L72.61-25.34Q73.86-23.10 74.30-20.48L74.30-20.48L69.31-19.33L69.31-19.33Q69.12-20.99 68.38-22.56L68.38-22.56L68.38-22.56Q67.65-24.13 66.40-25.31L66.40-25.31L66.40-25.31Q65.15-26.50 63.36-27.20L63.36-27.20L63.36-27.20Q61.57-27.90 59.20-27.90L59.20-27.90L59.20-27.90Q56.90-27.90 54.88-27.04L54.88-27.04L54.88-27.04Q52.86-26.18 51.33-24.61L51.33-24.61L51.33-24.61Q49.79-23.04 48.93-20.86L48.93-20.86L48.93-20.86Q48.06-18.69 48.06-16.13L48.06-16.13L48.06-15.36L48.06-15.36Q48.06-12.67 48.93-10.53L48.93-10.53L48.93-10.53Q49.79-8.38 51.33-6.91L51.33-6.91L51.33-6.91Q52.86-5.44 54.91-4.64L54.91-4.64L54.91-4.64Q56.96-3.84 59.33-3.84L59.33-3.84L59.33-3.84Q61.70-3.84 63.46-4.58L63.46-4.58L63.46-4.58Q65.22-5.31 66.46-6.50L66.46-6.50L66.46-6.50Q67.71-7.68 68.45-9.22L68.45-9.22L68.45-9.22Q69.18-10.75 69.44-12.42L69.44-12.42ZM82.11-27.14L82.11-31.74L93.63-31.74L93.63-27.52L94.40-27.52L94.40-27.52Q95.62-30.14 97.86-31.39L97.86-31.39L97.86-31.39Q100.10-32.64 102.98-32.64L102.98-32.64L102.98-32.64Q107.78-32.64 110.72-29.50L110.72-29.50L110.72-29.50Q113.66-26.37 113.86-20.35L113.86-20.35L108.61-19.58L108.61-19.58Q108.61-24 106.50-25.95L106.50-25.95L106.50-25.95Q104.38-27.90 101.31-27.90L101.31-27.90L101.31-27.90Q99.33-27.90 97.89-27.14L97.89-27.14L97.89-27.14Q96.45-26.37 95.49-25.02L95.49-25.02L95.49-25.02Q94.53-23.68 94.08-21.89L94.08-21.89L94.08-21.89Q93.63-20.10 93.63-18.05L93.63-18.05L93.63-4.61L101.70-4.61L101.70 0L81.34 0L81.34-4.61L88.64-4.61L88.64-27.14L82.11-27.14ZM146.11-4.99L146.11-5.38L145.34-5.38L145.34-5.38Q143.81-2.18 141.09-0.64L141.09-0.64L141.09-0.64Q138.37 0.90 135.36 0.90L135.36 0.90L135.36 0.90Q132.22 0.90 129.54-0.16L129.54-0.16L129.54-0.16Q126.85-1.22 124.83-3.30L124.83-3.30L124.83-3.30Q122.82-5.38 121.66-8.38L121.66-8.38L121.66-8.38Q120.51-11.39 120.51-15.36L120.51-15.36L120.51-16.38L120.51-16.38Q120.51-20.29 121.66-23.30L121.66-23.30L121.66-23.30Q122.82-26.30 124.83-28.38L124.83-28.38L124.83-28.38Q126.85-30.46 129.54-31.55L129.54-31.55L129.54-31.55Q132.22-32.64 135.23-32.64L135.23-32.64L135.23-32.64Q138.50-32.64 141.15-31.20L141.15-31.20L141.15-31.20Q143.81-29.76 145.34-26.75L145.34-26.75L146.11-26.75L146.11-31.74L151.10-31.74L151.10-6.53L151.10-6.53Q151.10-4.61 152.83-4.61L152.83-4.61L154.43-4.61L154.43 0L151.04 0L151.04 0Q148.86 0 147.49-1.41L147.49-1.41L147.49-1.41Q146.11-2.82 146.11-4.99L146.11-4.99ZM135.87-3.84L135.87-3.84L135.87-3.84Q138.11-3.84 140-4.67L140-4.67L140-4.67Q141.89-5.50 143.23-7.04L143.23-7.04L143.23-7.04Q144.58-8.58 145.34-10.72L145.34-10.72L145.34-10.72Q146.11-12.86 146.11-15.49L146.11-15.49L146.11-16.26L146.11-16.26Q146.11-18.82 145.34-20.96L145.34-20.96L145.34-20.96Q144.58-23.10 143.20-24.64L143.20-24.64L143.20-24.64Q141.82-26.18 139.94-27.04L139.94-27.04L139.94-27.04Q138.05-27.90 135.87-27.90L135.87-27.90L135.87-27.90Q133.63-27.90 131.78-27.07L131.78-27.07L131.78-27.07Q129.92-26.24 128.54-24.74L128.54-24.74L128.54-24.74Q127.17-23.23 126.40-21.09L126.40-21.09L126.40-21.09Q125.63-18.94 125.63-16.38L125.63-16.38L125.63-15.36L125.63-15.36Q125.63-9.92 128.48-6.88L128.48-6.88L128.48-6.88Q131.33-3.84 135.87-3.84ZM166.08-4.86L166.08 12.80L161.09 12.80L161.09-31.74L166.08-31.74L166.08-26.75L166.85-26.75L166.85-26.75Q168.51-29.63 171.46-31.14L171.46-31.14L171.46-31.14Q174.40-32.64 177.86-32.64L177.86-32.64L177.86-32.64Q180.80-32.64 183.42-31.55L183.42-31.55L183.42-31.55Q186.05-30.46 188.06-28.42L188.06-28.42L188.06-28.42Q190.08-26.37 191.26-23.36L191.26-23.36L191.26-23.36Q192.45-20.35 192.45-16.51L192.45-16.51L192.45-15.23L192.45-15.23Q192.45-11.33 191.30-8.32L191.30-8.32L191.30-8.32Q190.14-5.31 188.13-3.26L188.13-3.26L188.13-3.26Q186.11-1.22 183.42-0.16L183.42-0.16L183.42-0.16Q180.74 0.90 177.73 0.90L177.73 0.90L177.73 0.90Q176.19 0.90 174.59 0.54L174.59 0.54L174.59 0.54Q172.99 0.19 171.55-0.54L171.55-0.54L171.55-0.54Q170.11-1.28 168.90-2.34L168.90-2.34L168.90-2.34Q167.68-3.39 166.85-4.86L166.85-4.86L166.08-4.86ZM176.70-3.84L176.70-3.84L176.70-3.84Q179.01-3.84 180.93-4.64L180.93-4.64L180.93-4.64Q182.85-5.44 184.29-6.91L184.29-6.91L184.29-6.91Q185.73-8.38 186.53-10.50L186.53-10.50L186.53-10.50Q187.33-12.61 187.33-15.23L187.33-15.23L187.33-16.51L187.33-16.51Q187.33-19.07 186.53-21.15L186.53-21.15L186.53-21.15Q185.73-23.23 184.29-24.74L184.29-24.74L184.29-24.74Q182.85-26.24 180.90-27.07L180.90-27.07L180.90-27.07Q178.94-27.90 176.70-27.90L176.70-27.90L176.70-27.90Q174.46-27.90 172.54-27.04L172.54-27.04L172.54-27.04Q170.62-26.18 169.18-24.64L169.18-24.64L169.18-24.64Q167.74-23.10 166.91-20.96L166.91-20.96L166.91-20.96Q166.08-18.82 166.08-16.26L166.08-16.26L166.08-15.49L166.08-15.49Q166.08-12.86 166.91-10.72L166.91-10.72L166.91-10.72Q167.74-8.58 169.18-7.04L169.18-7.04L169.18-7.04Q170.62-5.50 172.54-4.67L172.54-4.67L172.54-4.67Q174.46-3.84 176.70-3.84ZM211.26-41.22L211.26-41.22L211.26-41.22Q211.26-43.07 212.58-44.38L212.58-44.38L212.58-44.38Q213.89-45.70 215.74-45.70L215.74-45.70L215.74-45.70Q217.60-45.70 218.91-44.38L218.91-44.38L218.91-44.38Q220.22-43.07 220.22-41.22L220.22-41.22L220.22-41.22Q220.22-39.36 218.91-38.05L218.91-38.05L218.91-38.05Q217.60-36.74 215.74-36.74L215.74-36.74L215.74-36.74Q213.89-36.74 212.58-38.05L212.58-38.05L212.58-38.05Q211.26-39.36 211.26-41.22ZM202.18 0L202.18-4.61L213.31-4.61L213.31-27.14L203.33-27.14L203.33-31.74L218.30-31.74L218.30-4.61L228.67-4.61L228.67 0L202.18 0ZM245.57-16.51L245.57 0L240.58 0L240.58-31.74L245.57-31.74L245.57-26.37L246.34-26.37L246.34-26.37Q249.28-32.64 256.58-32.64L256.58-32.64L256.58-32.64Q262.08-32.64 265.34-29.22L265.34-29.22L265.34-29.22Q268.61-25.79 268.61-18.94L268.61-18.94L268.61 0L263.62 0L263.62-17.92L263.62-17.92Q263.62-22.91 261.38-25.41L261.38-25.41L261.38-25.41Q259.14-27.90 255.30-27.90L255.30-27.90L255.30-27.90Q250.75-27.90 248.16-24.80L248.16-24.80L248.16-24.80Q245.57-21.70 245.57-16.51L245.57-16.51ZM303.87 6.27L303.87-4.86L303.10-4.86L303.10-4.86Q301.57-1.98 298.91-0.54L298.91-0.54L298.91-0.54Q296.26 0.90 293.12 0.90L293.12 0.90L293.12 0.90Q289.92 0.90 287.10-0.19L287.10-0.19L287.10-0.19Q284.29-1.28 282.14-3.33L282.14-3.33L282.14-3.33Q280-5.38 278.75-8.42L278.75-8.42L278.75-8.42Q277.50-11.46 277.50-15.36L277.50-15.36L277.50-16.38L277.50-16.38Q277.50-20.22 278.78-23.26L278.78-23.26L278.78-23.26Q280.06-26.30 282.18-28.38L282.18-28.38L282.18-28.38Q284.29-30.46 287.10-31.55L287.10-31.55L287.10-31.55Q289.92-32.64 292.99-32.64L292.99-32.64L292.99-32.64Q296.45-32.64 299.04-31.14L299.04-31.14L299.04-31.14Q301.63-29.63 303.10-26.75L303.10-26.75L303.87-26.75L303.87-31.74L308.86-31.74L308.86 7.81L308.86 7.81Q308.86 9.98 307.49 11.39L307.49 11.39L307.49 11.39Q306.11 12.80 303.94 12.80L303.94 12.80L283.26 12.80L283.26 8.19L302.14 8.19L302.14 8.19Q303.87 8.19 303.87 6.27L303.87 6.27ZM293.25-3.84L293.25-3.84L293.25-3.84Q295.49-3.84 297.41-4.67L297.41-4.67L297.41-4.67Q299.33-5.50 300.77-7.04L300.77-7.04L300.77-7.04Q302.21-8.58 303.04-10.72L303.04-10.72L303.04-10.72Q303.87-12.86 303.87-15.49L303.87-15.49L303.87-16.26L303.87-16.26Q303.87-18.82 303.04-20.96L303.04-20.96L303.04-20.96Q302.21-23.10 300.77-24.64L300.77-24.64L300.77-24.64Q299.33-26.18 297.38-27.04L297.38-27.04L297.38-27.04Q295.42-27.90 293.25-27.90L293.25-27.90L293.25-27.90Q291.01-27.90 289.06-27.07L289.06-27.07L289.06-27.07Q287.10-26.24 285.66-24.70L285.66-24.70L285.66-24.70Q284.22-23.17 283.42-21.06L283.42-21.06L283.42-21.06Q282.62-18.94 282.62-16.38L282.62-16.38L282.62-15.36L282.62-15.36Q282.62-12.67 283.42-10.56L283.42-10.56L283.42-10.56Q284.22-8.45 285.66-6.94L285.66-6.94L285.66-6.94Q287.10-5.44 289.02-4.64L289.02-4.64L289.02-4.64Q290.94-3.84 293.25-3.84ZM345.79 0L342.53-11.14L323.33-11.14L320.06 0L314.30 0L327.87-44.80L337.98-44.80L351.55 0L345.79 0ZM333.31-42.50L332.54-42.50L324.80-16.13L341.06-16.13L333.31-42.50ZM363.07-16.51L363.07 0L358.08 0L358.08-31.74L363.07-31.74L363.07-26.37L363.84-26.37L363.84-26.37Q366.78-32.64 374.08-32.64L374.08-32.64L374.08-32.64Q379.58-32.64 382.85-29.22L382.85-29.22L382.85-29.22Q386.11-25.79 386.11-18.94L386.11-18.94L386.11 0L381.12 0L381.12-17.92L381.12-17.92Q381.12-22.91 378.88-25.41L378.88-25.41L378.88-25.41Q376.64-27.90 372.80-27.90L372.80-27.90L372.80-27.90Q368.26-27.90 365.66-24.80L365.66-24.80L365.66-24.80Q363.07-21.70 363.07-16.51L363.07-16.51ZM396.16-27.14L396.16-31.74L406.14-31.74L406.14-44.80L411.14-44.80L411.14-31.74L423.42-31.74L423.42-27.14L411.14-27.14L411.14-6.53L411.14-6.53Q411.14-4.61 412.86-4.61L412.86-4.61L421.89-4.61L421.89 0L411.07 0L411.07 0Q408.90 0 407.52-1.41L407.52-1.41L407.52-1.41Q406.14-2.82 406.14-4.99L406.14-4.99L406.14-27.14L396.16-27.14Z" fill="#000000"></path></g></g><style>text {
  font-size: 64px;
  font-family: Arial Black;
  dominant-baseline: central;
  text-anchor: middle;
}</style></svg>