<svg width="150" height="29" viewBox="0 0 150 29" fill="none" xmlns="http://www.w3.org/2000/svg">
<g clip-path="url(#clip0_18_7566)">
<g clip-path="url(#clip1_18_7566)">
<g clip-path="url(#clip2_18_7566)">
<path d="M36.8479 11.4747C36.8479 11.9081 37.0816 12.2548 37.549 12.5149C38.0336 12.7576 38.6135 12.9743 39.2885 13.165C39.9809 13.3384 40.6733 13.5465 41.3656 13.7892C42.058 14.0319 42.6379 14.448 43.1052 15.0375C43.5899 15.6096 43.8322 16.3378 43.8322 17.222C43.8322 18.4703 43.3475 19.4498 42.3782 20.1607C41.4262 20.8715 40.2232 21.2269 38.7693 21.2269C37.4884 21.2269 36.3892 20.9582 35.4719 20.4207C34.5545 19.8833 33.8881 19.1377 33.4727 18.1842L35.8873 16.7799C36.3373 18.0282 37.298 18.6523 38.7693 18.6523C40.2405 18.6523 40.9762 18.1669 40.9762 17.196C40.9762 16.7799 40.7338 16.4418 40.2492 16.1817C39.7818 15.9217 39.202 15.705 38.5096 15.5316C37.8346 15.3409 37.1509 15.1242 36.4585 14.8814C35.7661 14.6387 35.1776 14.24 34.693 13.6852C34.2256 13.113 33.9919 12.3935 33.9919 11.5267C33.9919 10.3304 34.442 9.36815 35.342 8.63998C36.2594 7.91182 37.3932 7.54773 38.7433 7.54773C39.8165 7.54773 40.7685 7.79046 41.5993 8.2759C42.4475 8.74401 43.0965 9.40283 43.5466 10.2523L41.1839 11.5787C40.7338 10.5905 39.9203 10.0963 38.7433 10.0963C38.2067 10.0963 37.7567 10.2177 37.3932 10.4604C37.0297 10.6858 36.8479 11.0239 36.8479 11.4747Z" fill="#0D004B"/>
<path d="M52.0951 21.2269C50.1392 21.2269 48.5035 20.5681 47.188 19.2504C45.8898 17.9328 45.2407 16.3118 45.2407 14.3873C45.2407 12.4455 45.8898 10.8245 47.188 9.52419C48.5035 8.20655 50.1392 7.54773 52.0951 7.54773C53.3587 7.54773 54.5098 7.85114 55.5483 8.45794C56.5869 9.06475 57.3658 9.8796 57.8851 10.9025L55.4704 12.3068C55.1762 11.6827 54.7261 11.1973 54.1203 10.8505C53.5318 10.4864 52.8481 10.3044 52.0692 10.3044C50.9268 10.3044 49.9661 10.6945 49.1872 11.4747C48.4256 12.2548 48.0448 13.2257 48.0448 14.3873C48.0448 15.5489 48.4256 16.5198 49.1872 17.3C49.9661 18.0802 50.9268 18.4703 52.0692 18.4703C52.8308 18.4703 53.5145 18.2882 54.1203 17.9241C54.7434 17.5601 55.2108 17.0746 55.5224 16.4678L57.937 17.8461C57.3831 18.8864 56.5869 19.7099 55.5483 20.3167C54.5098 20.9235 53.3587 21.2269 52.0951 21.2269Z" fill="#0D004B"/>
<path d="M62.8437 10.0704C63.5534 8.45804 64.8862 7.65186 66.8421 7.65186V10.6946C65.769 10.6252 64.8343 10.8853 64.0381 11.4748C63.2418 12.0469 62.8437 13.0004 62.8437 14.3354V20.8889H60.0396V7.88591H62.8437V10.0704Z" fill="#0D004B"/>
<path d="M78.5872 7.88581H81.3913V20.8888H78.5872V19.0164C77.5313 20.4901 76.0168 21.2269 74.0435 21.2269C72.2607 21.2269 70.7375 20.5681 69.4739 19.2504C68.2103 17.9155 67.5786 16.2944 67.5786 14.3873C67.5786 12.4629 68.2103 10.8418 69.4739 9.52419C70.7375 8.20655 72.2607 7.54773 74.0435 7.54773C76.0168 7.54773 77.5313 8.2759 78.5872 9.73223V7.88581ZM71.551 17.378C72.3299 18.1582 73.3079 18.5483 74.4849 18.5483C75.6619 18.5483 76.6399 18.1582 77.4188 17.378C78.1977 16.5805 78.5872 15.5836 78.5872 14.3873C78.5872 13.1911 78.1977 12.2028 77.4188 11.4226C76.6399 10.6251 75.6619 10.2263 74.4849 10.2263C73.3079 10.2263 72.3299 10.6251 71.551 11.4226C70.7721 12.2028 70.3826 13.1911 70.3826 14.3873C70.3826 15.5836 70.7721 16.5805 71.551 17.378Z" fill="#0D004B"/>
<path d="M92.0074 7.54773C93.7902 7.54773 95.3135 8.21522 96.577 9.55019C97.8406 10.8678 98.4724 12.4802 98.4724 14.3873C98.4724 16.3118 97.8406 17.9328 96.577 19.2504C95.3135 20.5681 93.7902 21.2269 92.0074 21.2269C90.0342 21.2269 88.5196 20.4987 87.4637 19.0424V26.09H84.6597V7.88581H87.4637V9.75824C88.5196 8.28457 90.0342 7.54773 92.0074 7.54773ZM88.6321 17.378C89.411 18.1582 90.389 18.5483 91.566 18.5483C92.743 18.5483 93.721 18.1582 94.4999 17.378C95.2788 16.5805 95.6683 15.5836 95.6683 14.3873C95.6683 13.1911 95.2788 12.2028 94.4999 11.4226C93.721 10.6251 92.743 10.2263 91.566 10.2263C90.389 10.2263 89.411 10.6251 88.6321 11.4226C87.8532 12.2028 87.4637 13.1911 87.4637 14.3873C87.4637 15.5836 87.8532 16.5805 88.6321 17.378Z" fill="#0D004B"/>
<path d="M103.221 15.5836C103.428 16.5718 103.904 17.3347 104.649 17.8721C105.393 18.3922 106.302 18.6523 107.375 18.6523C108.863 18.6523 109.98 18.1148 110.724 17.0399L113.035 18.3922C111.754 20.282 109.859 21.2269 107.349 21.2269C105.237 21.2269 103.532 20.5854 102.234 19.3025C100.936 18.0022 100.287 16.3638 100.287 14.3873C100.287 12.4455 100.927 10.8245 102.208 9.52419C103.489 8.20655 105.133 7.54773 107.141 7.54773C109.045 7.54773 110.603 8.21522 111.815 9.55019C113.044 10.8852 113.658 12.5062 113.658 14.4133C113.658 14.7081 113.623 15.0982 113.554 15.5836H103.221ZM103.195 13.2951H110.828C110.638 12.2375 110.196 11.44 109.504 10.9025C108.829 10.365 108.033 10.0963 107.115 10.0963C106.077 10.0963 105.211 10.3824 104.519 10.9545C103.826 11.5267 103.385 12.3068 103.195 13.2951Z" fill="#0D004B"/>
<path d="M118.15 20.6288C117.769 21.0102 117.31 21.2009 116.773 21.2009C116.237 21.2009 115.778 21.0102 115.397 20.6288C115.017 20.2473 114.826 19.7879 114.826 19.2504C114.826 18.713 115.008 18.2535 115.371 17.8721C115.752 17.4907 116.22 17.3 116.773 17.3C117.31 17.3 117.769 17.4907 118.15 17.8721C118.53 18.2535 118.721 18.713 118.721 19.2504C118.721 19.7879 118.53 20.2473 118.15 20.6288Z" fill="#F9D94A"/>
<path d="M130.946 2.68469H133.75V20.8889H130.946V19.0165C129.89 20.4902 128.375 21.227 126.402 21.227C124.619 21.227 123.096 20.5682 121.832 19.2505C120.569 17.9156 119.937 16.2945 119.937 14.3874C119.937 12.463 120.569 10.8419 121.832 9.52427C123.096 8.20663 124.619 7.54781 126.402 7.54781C128.375 7.54781 129.89 8.27598 130.946 9.73231V2.68469ZM123.909 17.3781C124.688 18.1583 125.666 18.5484 126.843 18.5484C128.02 18.5484 128.998 18.1583 129.777 17.3781C130.556 16.5806 130.946 15.5837 130.946 14.3874C130.946 13.1912 130.556 12.2029 129.777 11.4227C128.998 10.6252 128.02 10.2264 126.843 10.2264C125.666 10.2264 124.688 10.6252 123.909 11.4227C123.131 12.2029 122.741 13.1912 122.741 14.3874C122.741 15.5837 123.131 16.5806 123.909 17.3781Z" fill="#0D004B"/>
<path d="M143.146 21.2269C141.242 21.2269 139.623 20.5681 138.29 19.2504C136.957 17.9328 136.291 16.3118 136.291 14.3873C136.291 12.4629 136.957 10.8418 138.29 9.52419C139.623 8.20655 141.242 7.54773 143.146 7.54773C145.067 7.54773 146.685 8.20655 148.001 9.52419C149.334 10.8418 150 12.4629 150 14.3873C150 16.3118 149.334 17.9328 148.001 19.2504C146.685 20.5681 145.067 21.2269 143.146 21.2269ZM140.264 17.326C141.042 18.1062 142.003 18.4963 143.146 18.4963C144.288 18.4963 145.249 18.1062 146.027 17.326C146.806 16.5458 147.196 15.5663 147.196 14.3873C147.196 13.2084 146.806 12.2288 146.027 11.4487C145.249 10.6685 144.288 10.2784 143.146 10.2784C142.003 10.2784 141.042 10.6685 140.264 11.4487C139.485 12.2288 139.095 13.2084 139.095 14.3873C139.095 15.5663 139.485 16.5458 140.264 17.326Z" fill="#0D004B"/>
<path d="M14.348 14.7812L1.62207 7.81065L14.348 1.58887V14.7812Z" fill="#F9D94A"/>
<path fill-rule="evenodd" clip-rule="evenodd" d="M13.0207 3.05297L3.49965 7.67316L13.0207 12.8856V3.05297ZM13.0207 15.3957L2.19895 9.47113V13.5043L13.0207 19.0923V15.3957ZM13.0207 21.5703L0.765866 15.2423C0.295533 14.9994 0 14.5138 0 13.9838V6.924L13.1897 0.523558C14.1284 0.0680069 15.2196 0.752953 15.2196 1.79781V6.94138L27.2212 13.108C27.6929 13.3503 27.9896 13.8367 27.9896 14.3678V20.707C27.9896 21.2375 27.6935 21.7235 27.2226 21.9661L15.0809 28.2214C14.1401 28.7061 13.0207 28.0219 13.0207 26.9623V21.5703ZM15.2196 9.41681V25.6731L25.7906 20.227V14.8483L15.2196 9.41681Z" fill="#362490"/>
</g>
</g>
</g>
<defs>
<clipPath id="clip0_18_7566">
<rect width="150" height="28" fill="#000000" transform="translate(0 0.380127)"/>
</clipPath>
<clipPath id="clip1_18_7566">
<rect width="150" height="28" fill="#000000" transform="translate(0 0.380127)"/>
</clipPath>
<clipPath id="clip2_18_7566">
<rect width="150" height="28" fill="#000000" transform="translate(0 0.380127)"/>
</clipPath>
</defs>
</svg>
