<svg viewBox="0 0 155 41" width="155" height="41" xmlns="http://www.w3.org/2000/svg"><g fill="none" fill-rule="evenodd" style="fill: none !important;"><path d="M21.589 8.748c-1.798 0-2.724 1.417-2.78 2.697h5.53c-.026-1.226-.925-2.697-2.75-2.697m6.756 5.176h-9.562c.19 1.934 1.661 2.806 3.432 2.806 1.744 0 3.27-.763 4.033-1.28l1.716 2.26c-.436.328-2.207 2.18-6.375 2.18-4.141 0-7.165-2.56-7.165-7.001 0-4.44 3.27-6.974 7.247-6.974S28.4 8.557 28.4 12.48c0 .654-.055 1.444-.055 1.444M51.84 19.59l-.028-1.525c-.572.817-1.988 1.825-3.922 1.825-3.705 0-4.823-2.261-4.823-5.612V6.16h4.36v7.519c0 1.552.436 2.616 1.988 2.616 1.553 0 2.261-1.227 2.261-2.998V6.16h4.359v13.43H51.84Zm15.348-9.785s-.64-.035-1.587-.035c-2.153 0-3.125 2.624-3.125 4.394v5.426h-4.36V6.16h4.36l-.028 1.906h.055c.762-1.47 1.88-2.151 3.323-2.151.9 0 1.362.245 1.362.245v3.645Zm49.922 0s-1.019-.035-1.966-.035c-2.152 0-3.125 2.624-3.125 4.394v5.426h-4.36V6.16h4.36l-.028 1.906h.055c.464-1.197 1.927-2.099 3.045-2.099a11.1 11.1 0 0 1 2.018.193v3.645ZM68.72 19.59h4.36V6.16h-4.36zM79.451 9.483v4.822c0 1.172.082 1.99 1.416 1.99.682 0 1.308-.246 1.308-.246l.218 3.406c-.327.08-1.526.435-3.106.435-3.487 0-4.222-2.125-4.222-5.203V2.537h4.386v3.65h2.97v3.296h-2.97Z" fill="currentColor" style="fill: rgb(34, 37, 52) !important;"/><path fill="currentColor" d="M104.484 4.28v15.31h-4.414V4.28h-4.85V.791h14.113V4.28zm33.729 15.31h4.36V.793h-4.36zm11.066.3c-2.017 0-4.141-.626-5.667-2.07l1.635-2.589c1.09.927 2.887 1.635 3.977 1.635 1.09 0 1.853-.272 1.853-1.144 0-.872-1.962-1.308-2.452-1.47-2.234-.573-4.196-1.363-4.196-4.142 0-2.616 2.289-4.223 5.095-4.223 2.806 0 4.386 1.035 5.149 1.662l-1.417 2.56c-.762-.598-2.288-1.307-3.378-1.307-1.035 0-1.607.273-1.607.981 0 .709 1.035 1.035 1.962 1.307 2.315.682 4.74 1.39 4.74 4.36 0 3.214-2.915 4.44-5.694 4.44M68.72 4.24h4.36V.783h-4.36zm62.92 15.35h4.358V6.16h-4.358zm0-15.35h4.358V.783h-4.358zM41.104 14.788c-.615.406-2.169 1.506-3.845 1.506-2.043 0-3.378-1.335-3.378-3.46s1.471-3.405 3.324-3.405c1.765 0 3.493 1.075 3.78 1.455l.032-.01.142-3.69c-.236-.362-1.776-1.27-4.526-1.27-3.678 0-7.138 2.507-7.138 7.002 0 4.468 3.406 6.974 7.083 6.974 2.73 0 4.36-.823 4.925-1.271l-.386-3.825-.013-.006Zm84.105 1.098c-.273.463-1.063 1.226-2.234 1.226-1.199 0-2.044-.627-2.044-1.663 0-1.007.79-1.58 2.126-1.634l2.152-.136v2.207Zm-2.288-9.972c-1.403 0-3.03.056-4.653.41V9.78c1.13-.612 2.863-.815 4.162-.815 1.743 0 2.751.681 2.751 2.098v.3l-3.378.135c-2.478.11-5.23 1.118-5.23 4.114 0 2.997 2.506 4.278 4.876 4.278 2.18 0 3.269-1.145 3.842-1.717l.081 1.416h4.168v-7.573c0-4.359-2.424-6.103-6.62-6.103ZM9.594 8.72c-.6-.245-1.989-.735-2.806-1.062-.844-.327-1.907-.762-1.907-1.907 0-1.144 1.035-1.69 2.452-1.69 1.988 0 4.137 1.238 5.372 2.536l.073-.035V2.354c-1.37-1.02-3.472-1.78-5.336-1.78-2.18 0-3.896.6-4.958 1.5C1.394 2.971.522 4.388.522 6.186c0 1.771.654 2.86 1.472 3.623.817.79 1.77 1.145 2.233 1.362.627.273 2.043.764 2.86 1.063.818.3 2.208.79 2.208 2.07 0 1.254-1.09 1.934-2.507 1.934-2.015 0-4.567-1.55-5.96-3.006l-.027.014v4.77c1.371 1.014 3.507 1.9 5.578 1.9 3.651 0 7.301-1.988 7.301-6.048 0-2.724-1.688-4.276-4.086-5.148" style="fill: rgb(34, 37, 52) !important;"/><path fill="currentColor" d="m89.968 26.582 8.31-20.423h-4.494l-3.025 8.637-3.05-8.636h-4.55l5.312 13.023-3.026 7.399z" style="fill: rgb(34, 37, 52) !important;"/><path stroke="currentColor" stroke-width=".25" d="M93.186 24.43h61.703m-154.024 0h83.304" opacity="1" style="fill: none !important; stroke: rgb(34, 37, 52) !important; stroke-width: 0.25px !important; opacity: 1 !important;"/><path d="m5.927 34.895-1.515-4.257h-.058l-1.515 4.257h3.088ZM.857 38.17l3.108-8.546H4.8l3.109 8.546H7.09l-.914-2.574H2.588l-.913 2.574H.857Zm109.485-5.875c-.238-1.169-1.26-2.053-2.6-2.053-1.618 0-2.937 1.289-2.937 3.655 0 2.375 1.319 3.656 2.937 3.656 1.34 0 2.362-.88 2.6-2.053h.785c-.28 1.568-1.565 2.787-3.385 2.787-2.157 0-3.693-1.715-3.693-4.39s1.536-4.39 3.693-4.39c1.82 0 3.105 1.215 3.385 2.788h-.785Zm7.041 2.7c0-1.435-.743-2.646-2.075-2.646-1.33 0-2.073 1.21-2.073 2.646 0 1.435.743 2.629 2.073 2.629 1.332 0 2.075-1.194 2.075-2.63m-4.895 0c0-1.965 1.16-3.32 2.82-3.32 1.661 0 2.822 1.355 2.822 3.32 0 1.954-1.16 3.31-2.822 3.31-1.66 0-2.82-1.356-2.82-3.31m7.28-3.234h.722v.986h.067c.255-.664.88-1.068 1.719-1.068.884 0 1.447.438 1.732 1.164h.054c.288-.71.964-1.164 1.9-1.164 1.188 0 1.927.763 1.927 2.199v4.294h-.743v-4.294c0-1.01-.563-1.52-1.41-1.52-.977 0-1.528.672-1.528 1.595v4.219h-.76v-4.36c0-.87-.509-1.454-1.385-1.454-.89 0-1.552.71-1.552 1.707v4.107h-.743v-6.41Zm12.771 5.864c1.276 0 1.982-1.16 1.982-2.654 0-1.478-.692-2.621-1.982-2.621-1.252 0-1.958 1.085-1.958 2.62 0 1.548.718 2.655 1.958 2.655Zm-2.692-5.863h.722v1.222h.092c.259-.576.78-1.31 1.957-1.31 1.586 0 2.65 1.332 2.65 3.31 0 1.986-1.068 3.32-2.637 3.32-1.164 0-1.715-.733-1.97-1.322h-.067v3.593h-.747v-8.813Zm10.882 3.952v-.927c-.217.213-1.152.33-1.678.393-1.085.133-1.719.459-1.719 1.234 0 .776.626 1.223 1.465 1.223 1.186 0 1.932-.872 1.932-1.923m-4.14.667c0-1.268 1.015-1.674 2.462-1.853 1.078-.133 1.678-.141 1.678-.625v-.15c0-.877-.538-1.411-1.51-1.411-.926 0-1.507.472-1.74 1.022l-.706-.255c.434-1.047 1.444-1.435 2.425-1.435.98 0 2.274.425 2.274 2.145v4.352h-.743v-1.013h-.046c-.267.567-.918 1.16-1.987 1.16-1.163 0-2.107-.702-2.107-1.937m7.606 1.79h-.743v-6.41h.722v1.006h.067c.3-.655.947-1.089 1.887-1.089 1.292 0 2.173.822 2.173 2.342v4.152h-.743v-4.106c0-1.048-.634-1.707-1.619-1.707-1.01 0-1.744.688-1.744 1.807v4.006Zm5.64 2.27.2-.654c.756.238 1.256.067 1.611-.902l.234-.65-2.358-6.473h.805l1.903 5.429h.059l1.903-5.43h.806l-2.714 7.424c-.341.93-.93 1.39-1.731 1.39-.292 0-.568-.063-.718-.133M13.487 33.013c1.197 0 1.728-.335 1.728-1.251 0-.772-.538-1.253-1.74-1.253H12v2.5l1.486.004Zm-3.096-3.854h3.336c2.041 0 3.137 1.147 3.137 2.846 0 1.206-.65 1.921-1.697 2.343l2.022 3.708h-1.798l-1.994-3.708H12v3.708h-1.61V29.16Zm13.534 5.456c0-2.038 1.234-3.45 3.19-3.45 1.628 0 2.758.952 2.867 2.393h-1.505c-.12-.643-.585-1.13-1.342-1.13-.97 0-1.616.809-1.616 2.155 0 1.347.634 2.185 1.616 2.185.69 0 1.208-.412 1.342-1.128h1.504c-.113 1.415-1.182 2.411-2.86 2.411-1.993.005-3.196-1.416-3.196-3.436m11.251 0c0-1.222-.531-2.198-1.595-2.198-1.063 0-1.611.976-1.611 2.198s.53 2.187 1.613 2.187c1.081 0 1.593-.97 1.593-2.19v.003Zm-4.8 0c0-2.068 1.242-3.45 3.197-3.45s3.198 1.383 3.198 3.45-1.243 3.441-3.198 3.441c-1.955 0-3.198-1.378-3.198-3.44Zm6.847-3.232h1.525v1.112h.069a1.667 1.667 0 0 1 1.645-1.208c.19 0 .379.014.566.044v1.446a3.076 3.076 0 0 0-.73-.09c-.864 0-1.504.599-1.504 1.445v3.924h-1.57v-6.673Zm8.713 3.336c0-1.295-.557-2.127-1.569-2.127-1.047 0-1.585.892-1.585 2.127 0 1.235.547 2.164 1.585 2.164 1.004 0 1.569-.87 1.569-2.164Zm-4.757.01c0-2.226 1.212-3.433 2.754-3.433 1.178 0 1.668.709 1.907 1.197h.072V29.17h1.577v8.886h-1.553v-1.051h-.096c-.247.486-.76 1.051-1.907 1.051-1.573 0-2.754-1.13-2.754-3.328Zm18.496-.01c0-1.295-.557-2.127-1.568-2.127-1.048 0-1.586.892-1.586 2.127 0 1.235.546 2.164 1.586 2.164 1.004 0 1.568-.87 1.568-2.164m-4.757.01c0-2.226 1.211-3.433 2.754-3.433 1.178 0 1.668.709 1.908 1.197h.065V29.17h1.577v8.886h-1.547v-1.051h-.095c-.249.486-.766 1.045-1.911 1.045-1.574 0-2.75-1.123-2.75-3.322m9.867-5.569h5.7v1.35h-4.09v2.489h3.698v1.35h-3.697v3.709h-1.611zm10.318 2.224h1.573v6.673h-1.524V36.87h-.068c-.305.746-1.01 1.186-2.009 1.186-1.311 0-2.224-.821-2.224-2.424v-4.253h1.573v4.01c0 .847.504 1.38 1.26 1.38.695 0 1.42-.503 1.42-1.52v-3.866Zm5.91 1.216h-1.316v3.456c0 .634.316.772.713.772.154-.004.308-.026.458-.065l.266 1.236c-.3.097-.614.15-.93.155-1.182.035-2.094-.582-2.086-1.837V32.6h-.947v-1.216h.947v-1.595h1.574v1.595h1.316l.005 1.216Zm4.958-1.216h1.572v6.673H86.02V36.87h-.07c-.304.746-1.007 1.186-2.007 1.186-1.311 0-2.225-.821-2.225-2.424v-4.253h1.573v4.01c0 .847.505 1.38 1.26 1.38.695 0 1.42-.503 1.42-1.52v-3.866Zm2.575 0h1.526v1.112h.07a1.667 1.667 0 0 1 1.646-1.208c.19 0 .378.014.565.044v1.446a3.071 3.071 0 0 0-.73-.09c-.865 0-1.503.599-1.503 1.445v3.924h-1.574v-6.673Zm11.619-.886a.243.243 0 0 0 .243-.265.223.223 0 0 0-.238-.24h-.344v.5l.339.005Zm-.579-.688h.656a.419.419 0 0 1 .425.412v.016a.436.436 0 0 1-.235.398l.29.543h-.265l-.257-.49h-.374v.49h-.24v-1.37Zm1.706.7a1.204 1.204 0 1 0 0 .002v-.003Zm-2.684 0a1.48 1.48 0 1 1 2.96 0 1.48 1.48 0 0 1-2.96 0Zm-1.551 3.585c-.008-.908-.616-1.569-1.52-1.569-.939 0-1.57.718-1.617 1.569h3.137Zm-4.701.665c0-2.06 1.248-3.463 3.16-3.463 1.641 0 3.048 1.03 3.048 3.37v.483h-4.652c.013 1.143.686 1.682 1.703 1.682.678 0 1.196-.165 1.411-.73h1.534c-.277 1.159-1.293 1.955-2.967 1.955-2.008 0-3.237-1.204-3.237-3.297Zm-39.497-.665c-.007-.908-.616-1.569-1.52-1.569-.938 0-1.568.718-1.616 1.569h3.137Zm-4.699.665c0-2.06 1.247-3.463 3.158-3.463 1.643 0 3.05 1.03 3.05 3.37v.483h-4.651c.013 1.143.687 1.682 1.702 1.682.678 0 1.196-.165 1.413-.73h1.534c-.28 1.159-1.294 1.955-2.968 1.955-2.009 0-3.238-1.204-3.238-3.297Zm-26.167-.665c-.01-.908-.618-1.569-1.52-1.569-.94 0-1.57.718-1.617 1.569h3.137Zm-4.701.665c0-2.06 1.246-3.463 3.158-3.463 1.643 0 3.05 1.03 3.05 3.37v.483H18.85c.013 1.143.687 1.682 1.704 1.682.678 0 1.196-.165 1.412-.73h1.533c-.277 1.159-1.293 1.955-2.968 1.955-2.008 0-3.237-1.204-3.237-3.297Z" opacity=".5" fill="currentColor" style="fill: rgb(34, 37, 52) !important; opacity: 0.5 !important;"/></g></svg>