<svg width="589" height="151" viewBox="0 0 589 151" fill="none" xmlns="http://www.w3.org/2000/svg" style="fill: none !important;">
<g clip-path="url(#clip0_982_2534)" style="fill: none !important;">
<path d="M261.064 0.929688H250.459C250.115 0.929688 249.836 1.20854 249.836 1.55251V7.81446C249.836 8.15844 250.115 8.43729 250.459 8.43729H261.064C261.408 8.43729 261.687 8.15844 261.687 7.81446V1.55251C261.687 1.20854 261.408 0.929688 261.064 0.929688Z" fill="#000434" style="fill: rgb(0, 4, 52) !important;"/>
<path d="M261.017 10.3203H250.412C250.068 10.3203 249.789 10.5992 249.789 10.9431V38.3307C249.789 38.6747 250.068 38.9536 250.412 38.9536H261.017C261.361 38.9536 261.64 38.6747 261.64 38.3307V10.9431C261.64 10.5992 261.361 10.3203 261.017 10.3203Z" fill="#000434" style="fill: rgb(0, 4, 52) !important;"/>
<path d="M247.091 0.929688H236.486C236.142 0.929688 235.863 1.20854 235.863 1.55251V38.333C235.863 38.677 236.142 38.9559 236.486 38.9559H247.091C247.435 38.9559 247.714 38.677 247.714 38.333V1.55251C247.714 1.20854 247.435 0.929688 247.091 0.929688Z" fill="#000434" style="fill: rgb(0, 4, 52) !important;"/>
<path d="M233.154 0.929688H222.549C222.205 0.929688 221.926 1.20854 221.926 1.55251V7.81446C221.926 8.15844 222.205 8.43729 222.549 8.43729H233.154C233.497 8.43729 233.776 8.15844 233.776 7.81446V1.55251C233.776 1.20854 233.497 0.929688 233.154 0.929688Z" fill="#000434" style="fill: rgb(0, 4, 52) !important;"/>
<path d="M233.139 10.3231H211.693C211.323 10.3231 211.121 10.4746 211.02 10.8954L208.562 22.6786L206.054 10.8954C206.004 10.5251 205.734 10.3231 205.381 10.3231H195.365C194.995 10.3231 194.742 10.5251 194.692 10.8954L192.184 22.7965L189.844 10.8954C189.743 10.4746 189.524 10.3231 189.17 10.3231H172.001V1.40146C172.001 0.930135 171.681 0.728137 171.159 0.879636L160.874 4.21261C160.504 4.31361 160.302 4.63344 160.302 4.98693V8.89223C160.302 9.98639 159.729 10.4577 158.635 10.4577H156.396C156.026 10.4577 155.773 10.7102 155.773 11.0806V18.7565C155.773 19.1268 156.026 19.3793 156.396 19.3793H160.15V29.0247C160.15 35.758 162.608 39.3603 170.688 39.3603C173.819 39.3603 176.276 38.8385 177.623 38.2157C178.044 38.0137 178.145 37.7443 178.145 37.3235V29.8159C178.145 29.3951 177.774 29.1931 177.253 29.4456C176.579 29.7654 175.889 29.9169 175.115 29.9169C173.027 29.9169 171.984 29.1426 171.984 26.5334V19.3793H177.455C177.825 19.3793 178.077 19.11 178.077 18.7565V12.0737L185.013 38.4177C185.114 38.788 185.383 38.9395 185.787 38.9395H196.005C196.375 38.9395 196.527 38.788 196.628 38.4177L199.961 26.3651L203.193 38.4177C203.294 38.788 203.445 38.9395 203.815 38.9395H214.201C214.622 38.9395 214.875 38.788 214.976 38.4177L221.861 12.2757V38.2998C221.861 38.6702 222.113 38.9227 222.483 38.9227H233.071C233.442 38.9227 233.694 38.6702 233.694 38.2998V10.9122C233.694 10.5419 233.442 10.2894 233.071 10.2894L233.139 10.3231Z" fill="#000434" style="fill: rgb(0, 4, 52) !important;"/>
<path d="M279.115 9.84961C269.57 9.84961 263.258 15.7412 263.258 24.242V24.9153C263.258 33.4161 269.57 39.3582 279.115 39.3582C288.659 39.3582 294.972 33.4161 294.972 24.9153V24.242C294.972 15.7412 288.659 9.84961 279.115 9.84961ZM283.02 24.7807C283.02 28.6355 281.404 30.2009 279.115 30.2009C276.825 30.2009 275.209 28.6355 275.209 24.7807V24.4103C275.209 20.505 276.825 18.9395 279.115 18.9395C281.404 18.9395 283.02 20.505 283.02 24.4103V24.7807Z" fill="#000434" style="fill: rgb(0, 4, 52) !important;"/>
<path d="M65.2475 1.01562C29.679 1.01562 0.84375 29.6489 0.84375 65.0996C0.84375 100.55 29.679 129.503 65.2475 129.503C100.816 129.503 129.55 100.668 129.55 65.0996C129.55 29.5311 100.715 1.01562 65.2475 1.01562ZM65.2475 112.637C39.0719 112.637 17.7106 91.1742 17.7106 65.0996C17.7106 39.025 39.0719 17.7815 65.2475 17.7815C91.4232 17.7815 112.566 38.924 112.566 65.0996C112.566 91.2752 91.4232 112.637 65.2475 112.637Z" fill="#EF373C" style="fill: rgb(239, 55, 60) !important;"/>
<path d="M81.1534 35.7207C73.8983 35.7207 67.8047 41.9153 67.8047 49.2883C67.8047 56.6612 73.8983 62.536 81.1534 62.536C88.4085 62.536 94.5021 56.5602 94.5021 49.2883C94.5021 42.0163 88.6274 35.7207 81.1534 35.7207Z" fill="#EF373C" style="fill: rgb(239, 55, 60) !important;"/>
<path d="M81.1534 35.7207C73.8983 35.7207 67.8047 41.9153 67.8047 49.2883C67.8047 56.6612 73.8983 62.536 81.1534 62.536C88.4085 62.536 94.5021 56.5602 94.5021 49.2883C94.5021 42.0163 88.6274 35.7207 81.1534 35.7207Z" fill="#EF373C" style="fill: rgb(239, 55, 60) !important;"/>
<path d="M81.1534 35.7207C73.8983 35.7207 67.8047 41.9153 67.8047 49.2883C67.8047 56.6612 73.8983 62.536 81.1534 62.536C88.4085 62.536 94.5021 56.5602 94.5021 49.2883C94.5021 42.0163 88.6274 35.7207 81.1534 35.7207Z" fill="#EF373C" style="fill: rgb(239, 55, 60) !important;"/>
<path d="M81.1534 67.8789C73.8983 67.8789 67.8047 73.7537 67.8047 81.2276C67.8047 88.7016 73.8983 94.5764 81.1534 94.5764C88.4085 94.5764 94.5021 88.6006 94.5021 81.2276C94.5021 73.8547 88.6274 67.8789 81.1534 67.8789Z" fill="#EF373C" style="fill: rgb(239, 55, 60) !important;"/>
<path d="M81.1534 67.8789C73.8983 67.8789 67.8047 73.7537 67.8047 81.2276C67.8047 88.7016 73.8983 94.5764 81.1534 94.5764C88.4085 94.5764 94.5021 88.6006 94.5021 81.2276C94.5021 73.8547 88.6274 67.8789 81.1534 67.8789Z" fill="#EF373C" style="fill: rgb(239, 55, 60) !important;"/>
<path d="M81.1534 67.8789C73.8983 67.8789 67.8047 73.7537 67.8047 81.2276C67.8047 88.7016 73.8983 94.5764 81.1534 94.5764C88.4085 94.5764 94.5021 88.6006 94.5021 81.2276C94.5021 73.8547 88.6274 67.8789 81.1534 67.8789Z" fill="#EF373C" style="fill: rgb(239, 55, 60) !important;"/>
<path d="M49.1183 35.7207C41.6443 35.7207 35.7695 41.9153 35.7695 49.2883C35.7695 56.6612 41.6443 62.536 49.1183 62.536C56.5922 62.536 62.568 56.5602 62.568 49.2883C62.568 42.0163 56.4744 35.7207 49.1183 35.7207Z" fill="#EF373C" style="fill: rgb(239, 55, 60) !important;"/>
<path d="M49.1183 35.7207C41.6443 35.7207 35.7695 41.9153 35.7695 49.2883C35.7695 56.6612 41.6443 62.536 49.1183 62.536C56.5922 62.536 62.568 56.5602 62.568 49.2883C62.568 42.0163 56.4744 35.7207 49.1183 35.7207Z" fill="#EF373C" style="fill: rgb(239, 55, 60) !important;"/>
<path d="M49.1183 35.7207C41.6443 35.7207 35.7695 41.9153 35.7695 49.2883C35.7695 56.6612 41.6443 62.536 49.1183 62.536C56.5922 62.536 62.568 56.5602 62.568 49.2883C62.568 42.0163 56.4744 35.7207 49.1183 35.7207Z" fill="#EF373C" style="fill: rgb(239, 55, 60) !important;"/>
<path d="M49.1183 67.8789C41.6443 67.8789 35.7695 73.7537 35.7695 81.2276C35.7695 88.7016 41.6443 94.5764 49.1183 94.5764C56.5922 94.5764 62.568 88.6006 62.568 81.2276C62.568 73.8547 56.4744 67.8789 49.1183 67.8789Z" fill="#EF373C" style="fill: rgb(239, 55, 60) !important;"/>
<path d="M49.1183 67.8789C41.6443 67.8789 35.7695 73.7537 35.7695 81.2276C35.7695 88.7016 41.6443 94.5764 49.1183 94.5764C56.5922 94.5764 62.568 88.6006 62.568 81.2276C62.568 73.8547 56.4744 67.8789 49.1183 67.8789Z" fill="#EF373C" style="fill: rgb(239, 55, 60) !important;"/>
<path d="M49.1183 67.8789C41.6443 67.8789 35.7695 73.7537 35.7695 81.2276C35.7695 88.7016 41.6443 94.5764 49.1183 94.5764C56.5922 94.5764 62.568 88.6006 62.568 81.2276C62.568 73.8547 56.4744 67.8789 49.1183 67.8789Z" fill="#EF373C" style="fill: rgb(239, 55, 60) !important;"/>
<path d="M155.791 120.783V110.312C163.652 117.012 172.877 120.48 183.027 120.48C191.73 120.48 197.588 116.187 197.588 107.063C197.588 97.9399 190.046 96.9972 180.3 95.5327C166.783 93.3276 154.949 91.0214 154.949 74.6764C154.949 59.4929 165.638 51.2109 181.243 51.2109C192.454 51.2109 201.257 54.4597 206.492 58.2304V68.0778C199.574 62.8427 190.046 60.0147 181.041 60.0147C172.035 60.0147 165.857 64.728 165.857 73.3129C165.857 81.8979 172.877 83.6822 182.522 85.2645C196.039 87.5706 208.512 89.3549 208.512 105.801C208.512 121.102 198.042 129.586 183.263 129.586C171.008 129.586 162.406 125.917 155.808 120.783H155.791Z" fill="#000434" style="fill: rgb(0, 4, 52) !important;"/>
<path d="M216.661 99.8262V98.3617C216.661 80.6532 227.771 69.0215 242.955 69.0215C258.138 69.0215 267.262 78.2461 267.262 97.2002V102.015H227.35C227.973 114.909 236.356 120.986 248.611 120.986C254.906 120.986 260.444 119.302 265.579 116.373V124.857C261.808 127.062 255.731 129.57 246.507 129.57C228.074 129.57 216.645 119.201 216.645 99.8094L216.661 99.8262ZM227.35 94.6921H256.893C256.371 82.8584 251.018 76.9836 242.652 76.9836C233.747 76.9836 227.99 83.5822 227.35 94.6921Z" fill="#000434" style="fill: rgb(0, 4, 52) !important;"/>
<path d="M272.293 139.534C272.293 134.198 276.686 129.468 286.652 127.061C279.009 126.219 275.761 123.071 275.761 118.998C275.761 114.284 279.632 110.514 288.655 108.41C280.07 105.582 275.878 98.5621 275.878 90.701C275.878 77.8068 286.467 70.4844 299.041 70.4844H328.061V78.8673H317.052C319.981 81.3754 321.867 85.6847 321.867 90.2802C321.867 102.232 312.221 109.874 298.502 109.874H296.718C292.324 109.874 285.709 111.658 285.709 115.631C285.709 117.836 288.015 119.082 293.991 119.082H309.292C321.227 119.082 328.045 122.852 328.045 132.178C328.045 142.968 317.877 150.829 297.341 150.829H294.934C281.215 150.829 272.31 146.739 272.31 139.517L272.293 139.534ZM317.658 134.08C317.658 129.468 313.888 127.902 306.649 127.902H297.526C288.722 127.902 282.864 131.572 282.864 136.386C282.864 141.201 288.941 142.884 296.903 142.884H299.108C311.683 142.884 317.658 139.012 317.658 134.08ZM311.8 90.1792C311.8 83.0588 307.71 77.5038 299.024 77.5038C290.338 77.5038 286.029 83.1598 286.029 90.398C286.029 97.2155 290.018 102.972 298.923 102.972C307.828 102.972 311.817 96.6937 311.817 90.196L311.8 90.1792Z" fill="#000434" style="fill: rgb(0, 4, 52) !important;"/>
<path d="M337.474 70.4835H347.843V83.5797C351.934 74.9948 358.734 68.918 368.06 68.918C376.763 68.918 383.041 74.3719 384.405 84.3203C388.596 74.7928 395.414 68.918 404.941 68.918C415.412 68.918 422.431 75.6176 422.431 89.8753V128.12H411.742V92.4003C411.742 82.8727 407.651 77.7386 400.211 77.7386C393.932 77.7386 389.741 81.6102 387.536 86.0205C385.97 88.8485 385.331 92.2993 385.331 95.4471L385.129 128.137H374.658V92.8211C374.658 82.6539 370.568 77.7386 363.128 77.7386C356.31 77.7386 352.54 81.6102 350.351 86.0205C348.887 88.8485 348.146 92.1983 348.146 95.4471V128.137H337.457V70.5171L337.474 70.4835Z" fill="#000434" style="fill: rgb(0, 4, 52) !important;"/>
<path d="M433.337 99.8262V98.3617C433.337 80.6532 444.447 69.0215 459.631 69.0215C474.814 69.0215 483.938 78.2461 483.938 97.2002V102.015H444.026C444.649 114.909 453.032 120.986 465.287 120.986C471.582 120.986 477.12 119.302 482.254 116.373V124.857C478.484 127.062 472.407 129.57 463.182 129.57C444.75 129.57 433.32 119.201 433.32 99.8094L433.337 99.8262ZM444.026 94.6921H473.568C473.047 82.8584 467.694 76.9836 459.328 76.9836C450.423 76.9836 444.666 83.5822 444.026 94.6921Z" fill="#000434" style="fill: rgb(0, 4, 52) !important;"/>
<path d="M495.271 70.486H505.64V84.104C509.629 74.7784 516.649 69.0215 526.597 69.0215C537.606 69.0215 544.508 76.1419 544.508 90.1808V128.106H533.819V92.487C533.819 82.9594 529.307 77.8253 521.766 77.8253C515.37 77.8253 510.757 81.2761 508.249 86.3092C506.785 88.9352 505.943 92.0661 505.943 95.3149V128.106H495.254V70.486H495.271Z" fill="#000434" style="fill: rgb(0, 4, 52) !important;"/>
<path d="M562.955 113.34V78.9662H552.266V71.0041L556.979 70.9031C560.329 70.8021 563.157 69.8595 563.578 63.8837L564.52 52.252H573.745V70.4823H588.726V78.9662H573.644V111.858C573.644 117.935 576.994 120.763 582.65 120.763C584.434 120.763 587.043 120.342 588.406 119.921V127.564C586.622 128.405 582.852 129.348 578.98 129.348C568.291 129.348 562.955 124.315 562.955 113.323V113.34Z" fill="#000434" style="fill: rgb(0, 4, 52) !important;"/>
</g>
<defs style="fill: none !important;">
<clipPath id="clip0_982_2534" style="fill: none !important;">
<rect width="587.883" height="149.999" fill="#000000" transform="translate(0.84375 0.830078)" style="fill: #000000 !important;"/>
</clipPath>
</defs>
</svg>