<svg width="128" height="128" viewBox="0 0 128 128" fill="none" xmlns="http://www.w3.org/2000/svg">
<path fill-rule="evenodd" clip-rule="evenodd" d="M128 46.1539C123.538 48.9231 120.308 50.6154 116.615 52.7693C94.4615 66.1539 73.0768 81.077 56.6153 100.615L48.6153 110.308L24.3076 71.5385C29.6922 75.8462 43.3845 88 48.923 90.7693L66.7692 77.2308C79.2307 68.4616 114.461 49.3846 128 46.1539Z" fill="#F3D25E"/>
<path d="M35.6923 75.0769C36.3077 75.5384 36.7692 76 37.3846 76.4615C32.6154 63.0769 24.1538 49.6923 12.1538 38.1538C8.15385 38.1538 4.15385 38.1538 0 38.1538C15.3846 49.2307 27.3846 62.1538 35.6923 75.0769Z" fill="#638BC4"/>
<path d="M39.692 78.6154C40.1535 79.0769 40.7689 79.3846 41.2305 79.8461C40.4612 61.6923 33.692 43.0769 20.7689 27.0769C16.9228 27.0769 13.0766 27.0769 9.23047 27.0769C25.692 42.3077 35.8459 60.7692 39.692 78.6154Z" fill="#305CA5"/>
<path d="M42.9235 81.2308C44.7697 82.7692 46.6159 84.1539 48.1543 85.2308C52.1543 65.6923 48.7697 44.6154 38.1543 26.3077C56.1543 26 74.1543 25.8462 92.0005 25.5385C96.0005 34.4615 98.3082 44 98.9236 53.8462C100.462 53.0769 102 52.3077 103.693 51.5385C102.924 41.3846 100.154 30.6154 94.7697 18C70.1543 18 45.6928 18 21.0774 18C37.0774 36.9231 44.3082 59.8462 42.9235 81.2308Z" fill="#273D72"/>
</svg>
