<?xml version="1.0" encoding="UTF-8" standalone="no"?>
<!DOCTYPE svg PUBLIC "-//W3C//DTD SVG 1.1//EN" "http://www.w3.org/Graphics/SVG/1.1/DTD/svg11.dtd">
<svg xmlns="http://www.w3.org/2000/svg" version="1.1" viewBox="0.00 0.00 400.00 400.00">
<g stroke-width="2.00" fill="none" stroke-linecap="butt">
<path stroke="#c71412" vector-effect="non-scaling-stroke" d="
  M 333.51 400.00
  L 398.44 399.39
  A 0.97 0.97 0.0 0 0 399.40 398.42
  Q 399.80 191.71 399.41 5.41
  Q 399.41 5.09 399.14 1.72
  A 1.09 1.08 -2.0 0 0 398.07 0.73
  C 363.12 0.66 345.05 0.97 320.18 0.40
  Q 306.60 0.10 294.98 0.84
  A 0.29 0.29 0.0 0 0 294.76 1.29
  Q 304.84 16.91 310.65 27.53
  Q 320.36 45.28 327.93 67.22
  Q 344.86 116.23 350.74 168.56
  C 354.63 203.10 351.26 238.35 345.90 272.01
  Q 337.96 321.84 314.72 364.04
  Q 306.59 378.78 295.21 398.68
  A 0.30 0.30 0.0 0 0 295.46 399.13
  L 322.56 400.00"
/>
<path stroke="#c71412" vector-effect="non-scaling-stroke" d="
  M 73.02 400.00
  L 108.29 398.67
  A 0.36 0.36 0.0 0 0 108.61 398.16
  Q 103.02 385.60 99.48 380.02
  C 89.41 364.16 82.39 352.98 76.13 337.70
  C 61.78 302.71 55.26 268.23 51.55 229.21
  C 48.04 192.29 52.17 154.10 60.40 118.28
  C 64.71 99.54 71.96 78.21 78.09 60.12
  C 85.24 39.03 95.33 20.07 107.25 1.54
  A 0.33 0.33 0.0 0 0 107.00 1.04
  Q 93.48 0.14 79.23 0.44
  C 52.54 1.00 25.72 0.74 1.93 0.56
  A 1.35 1.35 0.0 0 0 0.57 1.90
  L 0.00 172.26"
/>
<path stroke="#e25415" vector-effect="non-scaling-stroke" d="
  M 87.04 131.15
  L 66.40 121.86
  A 0.31 0.31 0.0 0 0 65.97 122.20
  Q 68.74 138.16 72.20 153.88
  Q 74.92 166.29 83.25 176.74
  Q 84.44 178.24 85.40 182.47"
/>
<path stroke="#d32615" vector-effect="non-scaling-stroke" d="
  M 85.40 182.47
  Q 83.65 213.04 87.54 243.33
  Q 90.42 265.75 99.58 286.54"
/>
<path stroke="#db7d79" vector-effect="non-scaling-stroke" d="
  M 99.58 286.54
  C 92.81 285.98 84.65 287.95 84.83 296.51
  C 84.99 304.30 93.73 306.04 100.21 308.27
  Q 101.48 308.70 102.13 309.96
  A 1.54 1.53 60.9 0 1 101.56 311.98
  C 97.91 314.17 91.14 312.17 87.86 310.44
  A 1.13 1.13 0.0 0 0 86.29 311.01
  L 84.54 315.30
  A 1.48 1.47 28.8 0 0 85.06 317.07
  C 90.11 320.59 98.40 320.82 104.12 319.38
  Q 108.36 318.32 110.22 313.90"
/>
<path stroke="#d32615" vector-effect="non-scaling-stroke" d="
  M 110.22 313.90
  C 126.32 350.89 154.00 379.48 197.04 381.00
  Q 232.08 382.25 255.53 357.74
  C 265.74 347.06 273.30 334.66 277.20 320.20"
/>
<path stroke="#d9807e" vector-effect="non-scaling-stroke" d="
  M 277.20 320.20
  C 290.24 321.33 295.56 308.14 292.42 297.06"
/>
<path stroke="#d32615" vector-effect="non-scaling-stroke" d="
  M 292.42 297.06
  L 298.59 291.67"
/>
<path stroke="#db7d79" vector-effect="non-scaling-stroke" d="
  M 298.59 291.67
  L 298.68 330.34
  A 0.84 0.84 0.0 0 0 299.94 331.07
  L 306.34 327.38
  A 1.84 1.83 -15.0 0 0 307.26 325.79
  L 307.26 318.73
  A 0.41 0.41 0.0 0 1 307.88 318.38
  C 312.42 321.16 318.32 320.84 322.12 316.98
  C 326.49 312.54 326.53 306.83 326.22 300.00
  C 325.97 294.47 323.11 288.73 317.67 287.08
  Q 312.94 285.63 308.44 288.19
  A 0.86 0.86 0.0 0 1 307.50 288.13
  Q 307.07 287.79 306.72 287.18"
/>
<path stroke="#d32615" vector-effect="non-scaling-stroke" d="
  M 306.72 287.18
  L 301.82 286.87
  A 0.39 0.39 0.0 0 1 301.47 286.38
  Q 306.42 267.75 309.07 251.77
  Q 313.63 224.27 311.12 195.26"
/>
<path stroke="#e14719" vector-effect="non-scaling-stroke" d="
  M 311.12 195.26
  C 319.35 186.87 324.24 175.76 323.80 163.97
  Q 323.69 161.20 323.52 158.60
  A 5.04 4.88 -38.4 0 1 323.78 156.64
  Q 324.30 155.14 325.23 152.76
  C 328.41 144.67 328.30 137.20 327.05 128.63
  A 7.65 7.62 47.2 0 1 327.15 125.89
  C 329.06 117.11 329.86 110.19 328.26 101.24
  Q 326.93 93.83 321.36 69.68
  A 0.60 0.59 -30.6 0 0 320.34 69.42
  L 301.47 90.03"
/>
<path stroke="#d32615" vector-effect="non-scaling-stroke" d="
  M 301.47 90.03
  Q 295.55 79.43 287.28 66.04
  C 274.44 45.25 256.41 26.06 234.73 14.96
  C 204.68 -0.43 169.58 7.27 144.72 28.99
  C 115.14 54.83 98.53 94.50 87.04 131.15"
/>
<path stroke="#e8511a" vector-effect="non-scaling-stroke" d="
  M 301.47 90.03
  Q 296.77 95.93 292.75 98.51
  Q 284.83 103.60 266.24 113.63"
/>
<path stroke="#eb6814" vector-effect="non-scaling-stroke" d="
  M 266.24 113.63
  C 261.40 116.26 247.12 122.15 246.85 111.69
  Q 246.74 107.10 248.14 101.73
  Q 249.12 97.99 248.59 94.88
  A 1.65 1.65 0.0 0 0 246.33 93.63
  Q 243.19 94.93 240.53 98.28
  C 237.19 102.48 229.77 111.66 225.25 103.46
  C 221.99 97.53 224.54 91.69 220.87 86.31
  A 1.21 1.20 -30.7 0 0 219.31 85.92
  C 216.74 87.23 215.25 92.14 212.61 97.92
  C 210.60 102.30 206.52 106.96 201.97 102.49
  C 199.24 99.81 198.25 96.84 196.15 91.93
  Q 195.04 89.32 192.88 87.59
  A 1.51 1.51 0.0 0 0 190.85 87.73
  C 186.86 91.92 190.90 108.75 182.18 109.35
  C 177.86 109.65 172.50 102.60 170.72 100.48
  Q 168.83 98.23 166.33 97.38
  A 1.67 1.66 21.5 0 0 164.27 98.27
  Q 163.51 99.94 163.97 102.28
  Q 165.75 111.25 166.05 112.46
  C 168.03 120.63 161.70 123.69 155.14 119.83
  C 150.91 117.35 147.69 114.93 144.03 114.76
  A 1.57 1.56 89.5 0 0 142.39 116.43
  Q 142.58 119.25 144.31 121.95
  Q 147.79 127.38 150.07 132.68
  C 154.63 143.30 131.36 140.97 126.26 140.42
  Q 124.97 140.28 104.81 137.97
  Q 102.00 137.65 97.96 136.02"
/>
<path stroke="#e95e16" vector-effect="non-scaling-stroke" d="
  M 97.96 136.02
  L 87.04 131.15"
/>
<path stroke="#e8511a" vector-effect="non-scaling-stroke" d="
  M 311.12 195.26
  Q 303.24 203.48 292.49 207.11"
/>
<path stroke="#f77e1a" vector-effect="non-scaling-stroke" d="
  M 292.49 207.11
  L 292.18 199.52"
/>
<path stroke="#dc3e17" vector-effect="non-scaling-stroke" d="
  M 292.18 199.52
  C 305.72 193.88 316.36 181.63 317.15 166.59
  C 317.30 163.75 316.79 160.91 316.47 158.26
  A 2.75 2.72 -36.4 0 1 316.70 156.80
  Q 317.30 155.48 318.41 153.18
  C 321.53 146.76 322.16 139.90 320.81 132.86
  Q 320.03 128.83 320.46 127.49
  C 323.31 118.49 323.57 110.13 321.48 100.60
  Q 319.81 93.00 318.42 86.80
  A 0.34 0.33 -30.8 0 0 317.84 86.66
  Q 316.45 88.24 303.98 101.22
  Q 299.42 105.98 295.81 107.82
  Q 286.04 112.81 276.69 118.51"
/>
<path stroke="#e8511a" vector-effect="non-scaling-stroke" d="
  M 276.69 118.51
  L 271.74 121.79"
/>
<path stroke="#f98818" vector-effect="non-scaling-stroke" d="
  M 271.74 121.79
  L 266.24 113.63"
/>
<path stroke="#eb6814" vector-effect="non-scaling-stroke" d="
  M 271.74 121.79
  Q 263.15 127.69 256.81 135.73
  A 0.31 0.31 0.0 0 1 256.27 135.60
  L 255.51 131.88
  A 1.11 1.10 78.5 0 0 254.21 131.01
  L 152.66 151.64
  A 0.94 0.94 0.0 0 0 151.93 152.75
  L 152.72 156.67
  A 0.44 0.44 0.0 0 1 152.07 157.15
  Q 141.71 151.38 129.78 149.48"
/>
<path stroke="#df5511" vector-effect="non-scaling-stroke" d="
  M 129.78 149.48
  Q 117.56 147.53 105.12 146.61
  Q 102.95 146.45 98.03 144.95"
/>
<path stroke="#fa9514" vector-effect="non-scaling-stroke" d="
  M 98.03 144.95
  Q 97.23 140.25 97.96 136.02"
/>
<path stroke="#dd4b13" vector-effect="non-scaling-stroke" d="
  M 98.03 144.95
  L 77.14 136.05
  A 0.51 0.51 0.0 0 0 76.43 136.60
  Q 77.86 145.90 79.89 154.61
  C 81.71 162.48 85.20 168.19 90.21 174.33
  A 5.99 5.88 16.7 0 1 91.29 176.29
  Q 91.44 176.75 92.38 180.61
  C 93.98 187.16 97.90 194.07 103.52 198.25
  Q 104.87 199.25 105.51 200.13
  A 4.15 4.10 -70.5 0 1 106.22 201.64
  Q 108.43 210.82 113.17 216.09
  Q 125.43 229.70 144.26 229.59
  Q 148.27 229.56 160.06 227.75"
/>
<path stroke="#e95e16" vector-effect="non-scaling-stroke" d="
  M 292.49 207.11
  L 290.29 208.01
  A 0.37 0.37 0.0 0 0 290.20 208.64
  Q 292.64 210.61 293.50 213.81"
/>
<path stroke="#ec6417" vector-effect="non-scaling-stroke" d="
  M 293.50 213.81
  C 292.61 215.59 289.20 215.34 287.49 215.02
  C 283.38 214.26 278.98 212.93 274.82 213.43
  C 270.31 213.98 269.75 218.89 271.17 222.43
  Q 272.32 225.30 276.06 231.37
  C 277.00 232.89 277.95 235.42 278.01 236.98
  A 1.40 1.39 -0.6 0 1 276.58 238.43
  C 272.88 238.36 269.92 235.99 264.54 232.99
  C 262.30 231.73 257.15 230.72 255.39 233.39
  Q 253.36 236.46 254.09 240.22
  Q 254.91 244.45 255.87 249.77
  Q 257.14 256.84 253.26 255.77"
/>
<path stroke="#f16c17" vector-effect="non-scaling-stroke" d="
  M 253.26 255.77
  Q 251.30 254.05 244.17 246.60
  Q 241.75 244.06 237.01 243.79
  A 1.88 1.84 23.2 0 0 235.59 244.34
  C 229.98 250.02 233.14 257.97 229.61 265.12
  A 1.48 1.48 0.0 0 1 227.32 265.58
  C 225.53 264.02 224.05 261.34 223.26 258.97
  C 221.58 253.94 216.76 245.23 210.66 250.58
  Q 209.07 251.97 208.40 253.40
  Q 205.77 259.06 204.29 262.54
  Q 203.31 264.87 201.46 266.76
  A 1.48 1.48 0.0 0 1 199.26 266.67
  C 196.91 263.82 196.97 257.59 196.51 253.96
  C 196.15 251.07 194.15 246.21 190.72 246.47
  C 186.88 246.75 184.20 249.24 181.56 252.63
  Q 178.22 256.92 174.12 259.62
  A 1.53 1.53 0.0 0 1 171.79 258.72
  C 170.79 254.69 172.74 248.58 173.38 244.52
  C 174.30 238.74 170.33 235.20 164.63 237.46
  Q 160.05 239.28 154.97 242.73
  Q 153.18 243.94 149.79 244.32"
/>
<path stroke="#ec6417" vector-effect="non-scaling-stroke" d="
  M 149.79 244.32
  Q 146.72 243.53 149.62 238.08
  A 0.64 0.64 0.0 0 0 149.00 237.14
  Q 125.41 239.15 108.98 222.76
  Q 107.49 221.28 104.31 216.47"
/>
<path stroke="#e95e16" vector-effect="non-scaling-stroke" d="
  M 104.31 216.47
  C 101.69 212.05 101.12 209.60 99.64 205.54
  A 6.91 6.86 -78.0 0 0 98.03 203.04
  C 91.90 197.05 87.54 190.84 85.40 182.47"
/>
<path stroke="#e2877a" vector-effect="non-scaling-stroke" d="
  M 306.72 287.18
  L 299.26 287.26
  A 0.55 0.54 -88.9 0 0 298.72 287.79
  L 298.59 291.67"
/>
<path stroke="#e08a7f" vector-effect="non-scaling-stroke" d="
  M 292.42 297.06
  Q 287.83 284.49 274.59 286.98"
/>
<path stroke="#dd3617" vector-effect="non-scaling-stroke" d="
  M 274.59 286.98
  Q 286.81 267.15 290.39 242.99
  Q 292.77 226.90 293.50 213.81"
/>
<path stroke="#e95e16" vector-effect="non-scaling-stroke" d="
  M 265.48 210.01
  L 168.03 229.79
  A 0.42 0.42 0.0 0 1 167.53 229.29
  Q 167.99 227.24 165.77 227.36
  Q 162.87 227.53 160.06 227.75"
/>
<path stroke="#ce1e13" vector-effect="non-scaling-stroke" d="
  M 160.06 227.75
  L 156.53 220.02"
/>
<path stroke="#e08a7f" vector-effect="non-scaling-stroke" d="
  M 156.53 220.02
  L 164.88 218.91
  A 0.50 0.50 0.0 0 0 165.30 218.31
  L 155.71 171.07
  A 4.19 4.17 13.9 0 0 154.26 168.68
  C 146.95 162.69 139.30 160.33 130.27 157.89"
/>
<path stroke="#ce1e13" vector-effect="non-scaling-stroke" d="
  M 130.27 157.89
  L 129.78 149.48"
/>
<path stroke="#dd4b13" vector-effect="non-scaling-stroke" d="
  M 292.18 199.52
  Q 282.01 202.63 271.70 205.42
  Q 270.54 205.74 270.65 207.95
  A 1.11 1.11 0.0 0 1 269.78 209.08
  L 265.48 210.01"
/>
<path stroke="#ce1e13" vector-effect="non-scaling-stroke" d="
  M 265.48 210.01
  L 268.93 197.80"
/>
<path stroke="#d4777c" vector-effect="non-scaling-stroke" d="
  M 268.93 197.80
  Q 278.40 194.92 287.23 192.50
  Q 296.23 190.02 303.49 180.75
  Q 310.02 172.42 308.72 161.94
  A 0.56 0.55 -19.6 0 0 307.87 161.54
  Q 300.01 166.63 291.15 167.87
  A 0.30 0.30 0.0 0 1 290.99 167.29
  C 303.68 161.86 316.95 149.33 312.57 133.89
  A 0.45 0.45 0.0 0 0 311.86 133.66
  Q 307.97 136.72 302.49 138.06
  A 0.27 0.27 0.0 0 1 302.27 137.58
  C 313.29 130.11 316.75 116.67 313.79 104.12
  A 0.59 0.58 -31.0 0 0 312.78 103.87
  C 307.47 109.90 303.16 113.12 295.33 117.37
  Q 287.98 121.36 280.79 125.60"
/>
<path stroke="#ce1e13" vector-effect="non-scaling-stroke" d="
  M 280.79 125.60
  L 276.69 118.51"
/>
<path stroke="#d4777c" vector-effect="non-scaling-stroke" d="
  M 130.27 157.89
  Q 120.35 156.27 110.29 155.39
  Q 101.79 154.65 98.66 153.74
  Q 93.68 152.28 87.63 149.57
  A 0.19 0.18 -82.4 0 0 87.37 149.77
  C 89.34 162.66 97.94 174.25 111.21 176.66
  A 0.27 0.27 0.0 0 1 111.21 177.19
  Q 105.77 178.08 100.72 176.72
  A 0.61 0.61 0.0 0 0 99.97 177.45
  C 103.88 193.68 118.17 199.37 133.50 199.50
  A 0.27 0.27 0.0 0 1 133.58 200.03
  C 127.87 201.75 121.02 201.94 115.15 201.07
  A 0.43 0.43 0.0 0 0 114.68 201.62
  C 119.04 215.75 132.93 222.37 146.97 221.05
  Q 151.76 220.60 156.53 220.02"
/>
<path stroke="#dd3617" vector-effect="non-scaling-stroke" d="
  M 104.31 216.47
  C 106.59 241.66 111.03 266.01 121.40 289.26"
/>
<path stroke="#e2877a" vector-effect="non-scaling-stroke" d="
  M 121.40 289.26
  Q 116.67 293.44 115.67 299.58
  C 114.34 307.75 116.96 317.37 126.06 319.65
  Q 134.95 321.86 141.51 315.69
  A 0.61 0.60 -44.0 0 0 141.53 314.82
  L 137.13 310.42
  A 1.02 1.01 -40.0 0 0 135.83 310.31
  C 131.54 313.36 125.01 312.91 124.01 306.87
  A 0.70 0.70 0.0 0 1 124.70 306.06
  L 143.19 305.95"
/>
<path stroke="#dd3617" vector-effect="non-scaling-stroke" d="
  M 143.19 305.95
  Q 145.52 304.76 148.83 306.33"
/>
<path stroke="#ed988b" vector-effect="non-scaling-stroke" d="
  M 148.83 306.33
  L 148.85 318.96
  A 0.61 0.60 0.0 0 0 149.46 319.56
  L 153.75 319.49"
/>
<path stroke="#dd3617" vector-effect="non-scaling-stroke" d="
  M 153.75 319.49
  Q 166.10 328.68 178.16 333.07
  C 192.56 338.31 209.68 339.32 223.62 333.04
  Q 233.49 328.59 242.94 319.99"
/>
<path stroke="#ed988b" vector-effect="non-scaling-stroke" d="
  M 242.94 319.99
  C 253.96 321.84 261.12 312.88 260.38 302.47"
/>
<path stroke="#dd3617" vector-effect="non-scaling-stroke" d="
  M 260.38 302.47
  Q 263.32 301.32 264.70 298.22"
/>
<path stroke="#e08a7f" vector-effect="non-scaling-stroke" d="
  M 264.70 298.22
  C 262.42 307.77 266.46 318.74 277.20 320.20"
/>
<path stroke="#e2877a" vector-effect="non-scaling-stroke" d="
  M 110.22 313.90
  C 113.10 303.25 104.31 301.07 96.68 298.57
  Q 94.91 297.99 93.86 296.91
  A 1.60 1.59 60.4 0 1 94.59 294.25
  Q 99.39 292.99 106.73 296.21
  A 0.35 0.35 0.0 0 0 107.19 296.03
  L 109.63 290.04
  A 0.36 0.36 0.0 0 0 109.47 289.59
  Q 104.95 287.19 99.58 286.54"
/>
<path stroke="#f5a68c" vector-effect="non-scaling-stroke" d="
  M 225.67 294.60
  L 225.65 275.77
  A 0.53 0.52 -8.6 0 0 224.97 275.27
  Q 220.15 276.74 217.25 279.84"
/>
<path stroke="#f5a68c" vector-effect="non-scaling-stroke" d="
  M 209.74 278.72
  L 209.81 275.62
  A 0.71 0.71 0.0 0 0 208.75 274.99
  L 201.99 278.90
  A 1.50 1.49 -14.8 0 0 201.23 280.20
  L 201.23 288.03
  A 0.46 0.45 -76.5 0 1 200.57 288.44
  Q 191.60 283.82 185.25 290.84"
/>
<path stroke="#e3907f" vector-effect="non-scaling-stroke" d="
  M 274.59 286.98
  Q 266.82 289.82 264.70 298.22"
/>
<path stroke="#f09e8b" vector-effect="non-scaling-stroke" d="
  M 260.38 302.47
  Q 260.37 295.43 256.06 290.95
  C 249.70 284.34 239.05 285.29 234.10 293.08
  Q 230.35 299.00 231.43 306.49
  Q 233.00 317.22 242.94 319.99"
/>
<path stroke="#f09e8b" vector-effect="non-scaling-stroke" d="
  M 153.75 319.49
  L 156.72 319.53
  A 0.58 0.58 0.0 0 0 157.30 318.96
  Q 157.39 307.69 157.31 302.50
  C 157.26 299.43 157.80 295.60 161.30 294.81
  C 167.67 293.36 168.38 298.60 168.36 303.78
  Q 168.35 308.66 168.41 318.85
  A 0.66 0.66 0.0 0 0 169.07 319.51
  L 176.11 319.51
  A 0.70 0.70 0.0 0 0 176.81 318.82
  Q 176.88 308.98 176.75 300.51
  C 176.65 294.12 174.60 288.26 167.69 286.85
  Q 162.84 285.86 158.52 288.28
  A 0.75 0.74 -34.7 0 1 157.60 288.12
  C 156.54 286.92 154.80 287.29 153.16 287.26
  Q 150.74 287.23 149.41 287.27
  A 0.60 0.59 -1.0 0 0 148.83 287.86
  L 148.83 306.33"
/>
<path stroke="#e58d7b" vector-effect="non-scaling-stroke" d="
  M 143.19 305.95
  C 144.10 296.82 139.88 286.58 129.50 286.58
  Q 124.96 286.58 121.40 289.26"
/>
<path stroke="#e54418" vector-effect="non-scaling-stroke" d="
  M 149.79 244.32
  C 158.08 263.15 170.03 277.06 185.25 290.84"
/>
<path stroke="#f09e8b" vector-effect="non-scaling-stroke" d="
  M 185.25 290.84
  C 181.07 297.72 180.15 309.29 185.69 316.09
  Q 191.15 322.79 200.15 318.48
  A 0.92 0.91 -35.5 0 1 201.20 318.65
  L 201.51 318.97
  A 1.81 1.81 0.0 0 0 202.79 319.50
  L 209.14 319.50
  A 0.54 0.54 0.0 0 0 209.68 318.96
  L 209.74 278.72"
/>
<path stroke="#e54418" vector-effect="non-scaling-stroke" d="
  M 209.74 278.72
  Q 213.83 280.30 217.25 279.84"
/>
<path stroke="#f09e8b" vector-effect="non-scaling-stroke" d="
  M 217.25 279.84
  L 217.28 318.82
  A 0.72 0.72 0.0 0 0 218.00 319.54
  L 224.92 319.54
  A 0.75 0.75 0.0 0 0 225.67 318.79
  L 225.67 294.60"
/>
<path stroke="#e54418" vector-effect="non-scaling-stroke" d="
  M 225.67 294.60
  C 235.78 282.26 244.44 268.95 253.26 255.77"
/>
<path stroke="#e08a7f" vector-effect="non-scaling-stroke" d="
  M 268.93 197.80
  Q 264.03 174.79 259.20 151.85
  Q 258.55 148.79 259.76 146.53
  C 264.56 137.50 272.22 131.33 280.79 125.60"
/>
<path stroke="#c71412" vector-effect="non-scaling-stroke" d="
  M 11.63 400.00
  L 2.03 399.16
  A 1.41 1.40 -88.8 0 1 0.76 397.83
  Q 0.18 384.54 0.22 371.25
  Q 0.53 288.28 0.00 205.31"
/>
<path stroke="#ed988b" vector-effect="non-scaling-stroke" d="
  M 243.77 140.63
  L 166.08 156.39
  A 0.28 0.27 55.3 0 0 165.99 156.89
  L 172.74 161.28"
/>
<path stroke="#e23e17" vector-effect="non-scaling-stroke" d="
  M 172.74 161.28
  L 171.75 169.34"
/>
<path stroke="#ed988b" vector-effect="non-scaling-stroke" d="
  M 171.75 169.34
  L 162.23 163.03
  A 0.31 0.31 0.0 0 0 161.75 163.35
  L 172.33 215.39
  A 0.36 0.36 0.0 0 0 172.98 215.51
  L 193.02 185.17"
/>
<path stroke="#e23e17" vector-effect="non-scaling-stroke" d="
  M 193.02 185.17
  Q 195.60 188.00 199.13 189.09"
/>
<path stroke="#ed988b" vector-effect="non-scaling-stroke" d="
  M 199.13 189.09
  L 178.68 219.77
  A 0.31 0.30 -78.8 0 0 178.99 220.24
  L 256.29 204.54
  A 0.33 0.33 0.0 0 0 256.40 203.94
  L 248.86 199.07"
/>
<path stroke="#e23e17" vector-effect="non-scaling-stroke" d="
  M 248.86 199.07
  L 254.03 193.63"
/>
<path stroke="#ed988b" vector-effect="non-scaling-stroke" d="
  M 254.03 193.63
  L 260.54 197.89
  A 0.20 0.20 0.0 0 0 260.85 197.68
  L 250.13 144.79"
/>
<path stroke="#e23e17" vector-effect="non-scaling-stroke" d="
  M 250.13 144.79
  L 243.77 140.63"
/>
<path stroke="#f5a68c" vector-effect="non-scaling-stroke" d="
  M 250.13 144.79
  L 228.93 176.67
  A 0.25 0.25 0.0 0 0 229.00 177.01
  L 254.03 193.63"
/>
<path stroke="#f5a68c" vector-effect="non-scaling-stroke" d="
  M 248.86 199.07
  L 225.05 183.33
  A 0.53 0.52 33.8 0 0 224.33 183.47
  C 218.78 191.84 208.91 194.20 200.31 188.39
  A 0.60 0.59 -44.4 0 0 199.64 188.39
  Q 199.28 188.62 199.13 189.09"
/>
<path stroke="#f5a68c" vector-effect="non-scaling-stroke" d="
  M 193.02 185.17
  Q 193.49 184.73 193.58 184.30
  A 0.59 0.59 0.0 0 0 193.33 183.69
  L 171.75 169.34"
/>
<path stroke="#f5a68c" vector-effect="non-scaling-stroke" d="
  M 172.74 161.28
  Q 187.35 170.88 201.85 180.57
  Q 206.61 183.75 209.52 183.99
  Q 214.87 184.42 218.27 179.25
  Q 230.84 160.14 243.77 140.63"
/>
<path stroke="#f09e8b" vector-effect="non-scaling-stroke" d="
  M 201.2889 299.4363
  A 4.96 4.96 0.0 0 0 196.2516 294.5548
  L 195.4517 294.5674
  A 4.96 4.96 0.0 0 0 190.5702 299.6047
  L 190.6911 307.3037
  A 4.96 4.96 0.0 0 0 195.7284 312.1852
  L 196.5283 312.1726
  A 4.96 4.96 0.0 0 0 201.4098 307.1353
  L 201.2889 299.4363"
/>
<path stroke="#e2877a" vector-effect="non-scaling-stroke" d="
  M 124.65 299.84
  L 134.48 299.66
  A 0.41 0.41 0.0 0 0 134.89 299.24
  L 134.88 299.12
  A 5.17 5.16 88.9 0 0 129.63 294.05
  L 129.29 294.05
  A 5.17 5.16 88.9 0 0 124.23 299.32
  L 124.23 299.44
  A 0.41 0.41 0.0 0 0 124.65 299.84"
/>
<path stroke="#f09e8b" vector-effect="non-scaling-stroke" d="
  M 245.7733 294.5603
  A 8.79 6.10 -90.5 0 0 239.7502 303.4032
  A 8.79 6.10 -90.5 0 0 245.9267 312.1397
  A 8.79 6.10 -90.5 0 0 251.9498 303.2968
  A 8.79 6.10 -90.5 0 0 245.7733 294.5603"
/>
<path stroke="#e08a7f" vector-effect="non-scaling-stroke" d="
  M 278.6736 294.6103
  A 8.76 6.08 -90.5 0 0 272.6702 303.4231
  A 8.76 6.08 -90.5 0 0 278.8264 312.1297
  A 8.76 6.08 -90.5 0 0 284.8298 303.3169
  A 8.76 6.08 -90.5 0 0 278.6736 294.6103"
/>
<path stroke="#db7d79" vector-effect="non-scaling-stroke" d="
  M 317.6430 299.5483
  A 4.97 4.97 0.0 0 0 312.5871 294.6657
  L 311.9472 294.6769
  A 4.97 4.97 0.0 0 0 307.0647 299.7329
  L 307.1970 307.3117
  A 4.97 4.97 0.0 0 0 312.2529 312.1943
  L 312.8928 312.1831
  A 4.97 4.97 0.0 0 0 317.7753 307.1271
  L 317.6430 299.5483"
/>
</g>
<path fill="#cc1c14" d="
  M 400.00 0.00
  L 400.00 400.00
  L 333.51 400.00
  L 398.44 399.39
  A 0.97 0.97 0.0 0 0 399.40 398.42
  Q 399.80 191.71 399.41 5.41
  Q 399.41 5.09 399.14 1.72
  A 1.09 1.08 -2.0 0 0 398.07 0.73
  C 363.12 0.66 345.05 0.97 320.18 0.40
  Q 306.60 0.10 294.98 0.84
  A 0.29 0.29 0.0 0 0 294.76 1.29
  Q 304.84 16.91 310.65 27.53
  Q 320.36 45.28 327.93 67.22
  Q 344.86 116.23 350.74 168.56
  C 354.63 203.10 351.26 238.35 345.90 272.01
  Q 337.96 321.84 314.72 364.04
  Q 306.59 378.78 295.21 398.68
  A 0.30 0.30 0.0 0 0 295.46 399.13
  L 322.56 400.00
  L 73.02 400.00
  L 108.29 398.67
  A 0.36 0.36 0.0 0 0 108.61 398.16
  Q 103.02 385.60 99.48 380.02
  C 89.41 364.16 82.39 352.98 76.13 337.70
  C 61.78 302.71 55.26 268.23 51.55 229.21
  C 48.04 192.29 52.17 154.10 60.40 118.28
  C 64.71 99.54 71.96 78.21 78.09 60.12
  C 85.24 39.03 95.33 20.07 107.25 1.54
  A 0.33 0.33 0.0 0 0 107.00 1.04
  Q 93.48 0.14 79.23 0.44
  C 52.54 1.00 25.72 0.74 1.93 0.56
  A 1.35 1.35 0.0 0 0 0.57 1.90
  L 0.00 172.26
  L 0.00 0.00
  L 400.00 0.00
  Z
  M 87.04 131.15
  L 66.40 121.86
  A 0.31 0.31 0.0 0 0 65.97 122.20
  Q 68.74 138.16 72.20 153.88
  Q 74.92 166.29 83.25 176.74
  Q 84.44 178.24 85.40 182.47
  Q 83.65 213.04 87.54 243.33
  Q 90.42 265.75 99.58 286.54
  C 92.81 285.98 84.65 287.95 84.83 296.51
  C 84.99 304.30 93.73 306.04 100.21 308.27
  Q 101.48 308.70 102.13 309.96
  A 1.54 1.53 60.9 0 1 101.56 311.98
  C 97.91 314.17 91.14 312.17 87.86 310.44
  A 1.13 1.13 0.0 0 0 86.29 311.01
  L 84.54 315.30
  A 1.48 1.47 28.8 0 0 85.06 317.07
  C 90.11 320.59 98.40 320.82 104.12 319.38
  Q 108.36 318.32 110.22 313.90
  C 126.32 350.89 154.00 379.48 197.04 381.00
  Q 232.08 382.25 255.53 357.74
  C 265.74 347.06 273.30 334.66 277.20 320.20
  C 290.24 321.33 295.56 308.14 292.42 297.06
  L 298.59 291.67
  L 298.68 330.34
  A 0.84 0.84 0.0 0 0 299.94 331.07
  L 306.34 327.38
  A 1.84 1.83 -15.0 0 0 307.26 325.79
  L 307.26 318.73
  A 0.41 0.41 0.0 0 1 307.88 318.38
  C 312.42 321.16 318.32 320.84 322.12 316.98
  C 326.49 312.54 326.53 306.83 326.22 300.00
  C 325.97 294.47 323.11 288.73 317.67 287.08
  Q 312.94 285.63 308.44 288.19
  A 0.86 0.86 0.0 0 1 307.50 288.13
  Q 307.07 287.79 306.72 287.18
  L 301.82 286.87
  A 0.39 0.39 0.0 0 1 301.47 286.38
  Q 306.42 267.75 309.07 251.77
  Q 313.63 224.27 311.12 195.26
  C 319.35 186.87 324.24 175.76 323.80 163.97
  Q 323.69 161.20 323.52 158.60
  A 5.04 4.88 -38.4 0 1 323.78 156.64
  Q 324.30 155.14 325.23 152.76
  C 328.41 144.67 328.30 137.20 327.05 128.63
  A 7.65 7.62 47.2 0 1 327.15 125.89
  C 329.06 117.11 329.86 110.19 328.26 101.24
  Q 326.93 93.83 321.36 69.68
  A 0.60 0.59 -30.6 0 0 320.34 69.42
  L 301.47 90.03
  Q 295.55 79.43 287.28 66.04
  C 274.44 45.25 256.41 26.06 234.73 14.96
  C 204.68 -0.43 169.58 7.27 144.72 28.99
  C 115.14 54.83 98.53 94.50 87.04 131.15
  Z"
/>
<path fill="#c20b10" d="
  M 73.02 400.00
  L 11.63 400.00
  L 2.03 399.16
  A 1.41 1.40 -88.8 0 1 0.76 397.83
  Q 0.18 384.54 0.22 371.25
  Q 0.53 288.28 0.00 205.31
  L 0.00 172.26
  L 0.57 1.90
  A 1.35 1.35 0.0 0 1 1.93 0.56
  C 25.72 0.74 52.54 1.00 79.23 0.44
  Q 93.48 0.14 107.00 1.04
  A 0.33 0.33 0.0 0 1 107.25 1.54
  C 95.33 20.07 85.24 39.03 78.09 60.12
  C 71.96 78.21 64.71 99.54 60.40 118.28
  C 52.17 154.10 48.04 192.29 51.55 229.21
  C 55.26 268.23 61.78 302.71 76.13 337.70
  C 82.39 352.98 89.41 364.16 99.48 380.02
  Q 103.02 385.60 108.61 398.16
  A 0.36 0.36 0.0 0 1 108.29 398.67
  L 73.02 400.00
  Z"
/>
<path fill="#c20b10" d="
  M 333.51 400.00
  L 322.56 400.00
  L 295.46 399.13
  A 0.30 0.30 0.0 0 1 295.21 398.68
  Q 306.59 378.78 314.72 364.04
  Q 337.96 321.84 345.90 272.01
  C 351.26 238.35 354.63 203.10 350.74 168.56
  Q 344.86 116.23 327.93 67.22
  Q 320.36 45.28 310.65 27.53
  Q 304.84 16.91 294.76 1.29
  A 0.29 0.29 0.0 0 1 294.98 0.84
  Q 306.60 0.10 320.18 0.40
  C 345.05 0.97 363.12 0.66 398.07 0.73
  A 1.09 1.08 -2.0 0 1 399.14 1.72
  Q 399.41 5.09 399.41 5.41
  Q 399.80 191.71 399.40 398.42
  A 0.97 0.97 0.0 0 1 398.44 399.39
  L 333.51 400.00
  Z"
/>
<path fill="#da3016" d="
  M 301.47 90.03
  Q 296.77 95.93 292.75 98.51
  Q 284.83 103.60 266.24 113.63
  C 261.40 116.26 247.12 122.15 246.85 111.69
  Q 246.74 107.10 248.14 101.73
  Q 249.12 97.99 248.59 94.88
  A 1.65 1.65 0.0 0 0 246.33 93.63
  Q 243.19 94.93 240.53 98.28
  C 237.19 102.48 229.77 111.66 225.25 103.46
  C 221.99 97.53 224.54 91.69 220.87 86.31
  A 1.21 1.20 -30.7 0 0 219.31 85.92
  C 216.74 87.23 215.25 92.14 212.61 97.92
  C 210.60 102.30 206.52 106.96 201.97 102.49
  C 199.24 99.81 198.25 96.84 196.15 91.93
  Q 195.04 89.32 192.88 87.59
  A 1.51 1.51 0.0 0 0 190.85 87.73
  C 186.86 91.92 190.90 108.75 182.18 109.35
  C 177.86 109.65 172.50 102.60 170.72 100.48
  Q 168.83 98.23 166.33 97.38
  A 1.67 1.66 21.5 0 0 164.27 98.27
  Q 163.51 99.94 163.97 102.28
  Q 165.75 111.25 166.05 112.46
  C 168.03 120.63 161.70 123.69 155.14 119.83
  C 150.91 117.35 147.69 114.93 144.03 114.76
  A 1.57 1.56 89.5 0 0 142.39 116.43
  Q 142.58 119.25 144.31 121.95
  Q 147.79 127.38 150.07 132.68
  C 154.63 143.30 131.36 140.97 126.26 140.42
  Q 124.97 140.28 104.81 137.97
  Q 102.00 137.65 97.96 136.02
  L 87.04 131.15
  C 98.53 94.50 115.14 54.83 144.72 28.99
  C 169.58 7.27 204.68 -0.43 234.73 14.96
  C 256.41 26.06 274.44 45.25 287.28 66.04
  Q 295.55 79.43 301.47 90.03
  Z"
/>
<path fill="#f6711e" d="
  M 311.12 195.26
  Q 303.24 203.48 292.49 207.11
  L 292.18 199.52
  C 305.72 193.88 316.36 181.63 317.15 166.59
  C 317.30 163.75 316.79 160.91 316.47 158.26
  A 2.75 2.72 -36.4 0 1 316.70 156.80
  Q 317.30 155.48 318.41 153.18
  C 321.53 146.76 322.16 139.90 320.81 132.86
  Q 320.03 128.83 320.46 127.49
  C 323.31 118.49 323.57 110.13 321.48 100.60
  Q 319.81 93.00 318.42 86.80
  A 0.34 0.33 -30.8 0 0 317.84 86.66
  Q 316.45 88.24 303.98 101.22
  Q 299.42 105.98 295.81 107.82
  Q 286.04 112.81 276.69 118.51
  L 271.74 121.79
  L 266.24 113.63
  Q 284.83 103.60 292.75 98.51
  Q 296.77 95.93 301.47 90.03
  L 320.34 69.42
  A 0.60 0.59 -30.6 0 1 321.36 69.68
  Q 326.93 93.83 328.26 101.24
  C 329.86 110.19 329.06 117.11 327.15 125.89
  A 7.65 7.62 47.2 0 0 327.05 128.63
  C 328.30 137.20 328.41 144.67 325.23 152.76
  Q 324.30 155.14 323.78 156.64
  A 5.04 4.88 -38.4 0 0 323.52 158.60
  Q 323.69 161.20 323.80 163.97
  C 324.24 175.76 319.35 186.87 311.12 195.26
  Z"
/>
<path fill="#fb9f11" d="
  M 266.24 113.63
  L 271.74 121.79
  Q 263.15 127.69 256.81 135.73
  A 0.31 0.31 0.0 0 1 256.27 135.60
  L 255.51 131.88
  A 1.11 1.10 78.5 0 0 254.21 131.01
  L 152.66 151.64
  A 0.94 0.94 0.0 0 0 151.93 152.75
  L 152.72 156.67
  A 0.44 0.44 0.0 0 1 152.07 157.15
  Q 141.71 151.38 129.78 149.48
  Q 117.56 147.53 105.12 146.61
  Q 102.95 146.45 98.03 144.95
  Q 97.23 140.25 97.96 136.02
  Q 102.00 137.65 104.81 137.97
  Q 124.97 140.28 126.26 140.42
  C 131.36 140.97 154.63 143.30 150.07 132.68
  Q 147.79 127.38 144.31 121.95
  Q 142.58 119.25 142.39 116.43
  A 1.57 1.56 89.5 0 1 144.03 114.76
  C 147.69 114.93 150.91 117.35 155.14 119.83
  C 161.70 123.69 168.03 120.63 166.05 112.46
  Q 165.75 111.25 163.97 102.28
  Q 163.51 99.94 164.27 98.27
  A 1.67 1.66 21.5 0 1 166.33 97.38
  Q 168.83 98.23 170.72 100.48
  C 172.50 102.60 177.86 109.65 182.18 109.35
  C 190.90 108.75 186.86 91.92 190.85 87.73
  A 1.51 1.51 0.0 0 1 192.88 87.59
  Q 195.04 89.32 196.15 91.93
  C 198.25 96.84 199.24 99.81 201.97 102.49
  C 206.52 106.96 210.60 102.30 212.61 97.92
  C 215.25 92.14 216.74 87.23 219.31 85.92
  A 1.21 1.20 -30.7 0 1 220.87 86.31
  C 224.54 91.69 221.99 97.53 225.25 103.46
  C 229.77 111.66 237.19 102.48 240.53 98.28
  Q 243.19 94.93 246.33 93.63
  A 1.65 1.65 0.0 0 1 248.59 94.88
  Q 249.12 97.99 248.14 101.73
  Q 246.74 107.10 246.85 111.69
  C 247.12 122.15 261.40 116.26 266.24 113.63
  Z"
/>
<path fill="#c20b10" d="
  M 292.18 199.52
  Q 282.01 202.63 271.70 205.42
  Q 270.54 205.74 270.65 207.95
  A 1.11 1.11 0.0 0 1 269.78 209.08
  L 265.48 210.01
  L 268.93 197.80
  Q 278.40 194.92 287.23 192.50
  Q 296.23 190.02 303.49 180.75
  Q 310.02 172.42 308.72 161.94
  A 0.56 0.55 -19.6 0 0 307.87 161.54
  Q 300.01 166.63 291.15 167.87
  A 0.30 0.30 0.0 0 1 290.99 167.29
  C 303.68 161.86 316.95 149.33 312.57 133.89
  A 0.45 0.45 0.0 0 0 311.86 133.66
  Q 307.97 136.72 302.49 138.06
  A 0.27 0.27 0.0 0 1 302.27 137.58
  C 313.29 130.11 316.75 116.67 313.79 104.12
  A 0.59 0.58 -31.0 0 0 312.78 103.87
  C 307.47 109.90 303.16 113.12 295.33 117.37
  Q 287.98 121.36 280.79 125.60
  L 276.69 118.51
  Q 286.04 112.81 295.81 107.82
  Q 299.42 105.98 303.98 101.22
  Q 316.45 88.24 317.84 86.66
  A 0.34 0.33 -30.8 0 1 318.42 86.80
  Q 319.81 93.00 321.48 100.60
  C 323.57 110.13 323.31 118.49 320.46 127.49
  Q 320.03 128.83 320.81 132.86
  C 322.16 139.90 321.53 146.76 318.41 153.18
  Q 317.30 155.48 316.70 156.80
  A 2.75 2.72 -36.4 0 0 316.47 158.26
  C 316.79 160.91 317.30 163.75 317.15 166.59
  C 316.36 181.63 305.72 193.88 292.18 199.52
  Z"
/>
<path fill="#e5e3e7" d="
  M 268.93 197.80
  Q 264.03 174.79 259.20 151.85
  Q 258.55 148.79 259.76 146.53
  C 264.56 137.50 272.22 131.33 280.79 125.60
  Q 287.98 121.36 295.33 117.37
  C 303.16 113.12 307.47 109.90 312.78 103.87
  A 0.59 0.58 -31.0 0 1 313.79 104.12
  C 316.75 116.67 313.29 130.11 302.27 137.58
  A 0.27 0.27 0.0 0 0 302.49 138.06
  Q 307.97 136.72 311.86 133.66
  A 0.45 0.45 0.0 0 1 312.57 133.89
  C 316.95 149.33 303.68 161.86 290.99 167.29
  A 0.30 0.30 0.0 0 0 291.15 167.87
  Q 300.01 166.63 307.87 161.54
  A 0.56 0.55 -19.6 0 1 308.72 161.94
  Q 310.02 172.42 303.49 180.75
  Q 296.23 190.02 287.23 192.50
  Q 278.40 194.92 268.93 197.80
  Z"
/>
<path fill="#da3016" d="
  M 276.69 118.51
  L 280.79 125.60
  C 272.22 131.33 264.56 137.50 259.76 146.53
  Q 258.55 148.79 259.20 151.85
  Q 264.03 174.79 268.93 197.80
  L 265.48 210.01
  L 168.03 229.79
  A 0.42 0.42 0.0 0 1 167.53 229.29
  Q 167.99 227.24 165.77 227.36
  Q 162.87 227.53 160.06 227.75
  L 156.53 220.02
  L 164.88 218.91
  A 0.50 0.50 0.0 0 0 165.30 218.31
  L 155.71 171.07
  A 4.19 4.17 13.9 0 0 154.26 168.68
  C 146.95 162.69 139.30 160.33 130.27 157.89
  L 129.78 149.48
  Q 141.71 151.38 152.07 157.15
  A 0.44 0.44 0.0 0 0 152.72 156.67
  L 151.93 152.75
  A 0.94 0.94 0.0 0 1 152.66 151.64
  L 254.21 131.01
  A 1.11 1.10 78.5 0 1 255.51 131.88
  L 256.27 135.60
  A 0.31 0.31 0.0 0 0 256.81 135.73
  Q 263.15 127.69 271.74 121.79
  L 276.69 118.51
  Z
  M 243.77 140.63
  L 166.08 156.39
  A 0.28 0.27 55.3 0 0 165.99 156.89
  L 172.74 161.28
  L 171.75 169.34
  L 162.23 163.03
  A 0.31 0.31 0.0 0 0 161.75 163.35
  L 172.33 215.39
  A 0.36 0.36 0.0 0 0 172.98 215.51
  L 193.02 185.17
  Q 195.60 188.00 199.13 189.09
  L 178.68 219.77
  A 0.31 0.30 -78.8 0 0 178.99 220.24
  L 256.29 204.54
  A 0.33 0.33 0.0 0 0 256.40 203.94
  L 248.86 199.07
  L 254.03 193.63
  L 260.54 197.89
  A 0.20 0.20 0.0 0 0 260.85 197.68
  L 250.13 144.79
  L 243.77 140.63
  Z"
/>
<path fill="#f88b16" d="
  M 87.04 131.15
  L 97.96 136.02
  Q 97.23 140.25 98.03 144.95
  L 77.14 136.05
  A 0.51 0.51 0.0 0 0 76.43 136.60
  Q 77.86 145.90 79.89 154.61
  C 81.71 162.48 85.20 168.19 90.21 174.33
  A 5.99 5.88 16.7 0 1 91.29 176.29
  Q 91.44 176.75 92.38 180.61
  C 93.98 187.16 97.90 194.07 103.52 198.25
  Q 104.87 199.25 105.51 200.13
  A 4.15 4.10 -70.5 0 1 106.22 201.64
  Q 108.43 210.82 113.17 216.09
  Q 125.43 229.70 144.26 229.59
  Q 148.27 229.56 160.06 227.75
  Q 162.87 227.53 165.77 227.36
  Q 167.99 227.24 167.53 229.29
  A 0.42 0.42 0.0 0 0 168.03 229.79
  L 265.48 210.01
  L 269.78 209.08
  A 1.11 1.11 0.0 0 0 270.65 207.95
  Q 270.54 205.74 271.70 205.42
  Q 282.01 202.63 292.18 199.52
  L 292.49 207.11
  L 290.29 208.01
  A 0.37 0.37 0.0 0 0 290.20 208.64
  Q 292.64 210.61 293.50 213.81
  C 292.61 215.59 289.20 215.34 287.49 215.02
  C 283.38 214.26 278.98 212.93 274.82 213.43
  C 270.31 213.98 269.75 218.89 271.17 222.43
  Q 272.32 225.30 276.06 231.37
  C 277.00 232.89 277.95 235.42 278.01 236.98
  A 1.40 1.39 -0.6 0 1 276.58 238.43
  C 272.88 238.36 269.92 235.99 264.54 232.99
  C 262.30 231.73 257.15 230.72 255.39 233.39
  Q 253.36 236.46 254.09 240.22
  Q 254.91 244.45 255.87 249.77
  Q 257.14 256.84 253.26 255.77
  Q 251.30 254.05 244.17 246.60
  Q 241.75 244.06 237.01 243.79
  A 1.88 1.84 23.2 0 0 235.59 244.34
  C 229.98 250.02 233.14 257.97 229.61 265.12
  A 1.48 1.48 0.0 0 1 227.32 265.58
  C 225.53 264.02 224.05 261.34 223.26 258.97
  C 221.58 253.94 216.76 245.23 210.66 250.58
  Q 209.07 251.97 208.40 253.40
  Q 205.77 259.06 204.29 262.54
  Q 203.31 264.87 201.46 266.76
  A 1.48 1.48 0.0 0 1 199.26 266.67
  C 196.91 263.82 196.97 257.59 196.51 253.96
  C 196.15 251.07 194.15 246.21 190.72 246.47
  C 186.88 246.75 184.20 249.24 181.56 252.63
  Q 178.22 256.92 174.12 259.62
  A 1.53 1.53 0.0 0 1 171.79 258.72
  C 170.79 254.69 172.74 248.58 173.38 244.52
  C 174.30 238.74 170.33 235.20 164.63 237.46
  Q 160.05 239.28 154.97 242.73
  Q 153.18 243.94 149.79 244.32
  Q 146.72 243.53 149.62 238.08
  A 0.64 0.64 0.0 0 0 149.00 237.14
  Q 125.41 239.15 108.98 222.76
  Q 107.49 221.28 104.31 216.47
  C 101.69 212.05 101.12 209.60 99.64 205.54
  A 6.91 6.86 -78.0 0 0 98.03 203.04
  C 91.90 197.05 87.54 190.84 85.40 182.47
  Q 84.44 178.24 83.25 176.74
  Q 74.92 166.29 72.20 153.88
  Q 68.74 138.16 65.97 122.20
  A 0.31 0.31 0.0 0 1 66.40 121.86
  L 87.04 131.15
  Z"
/>
<path fill="#c20b10" d="
  M 98.03 144.95
  Q 102.95 146.45 105.12 146.61
  Q 117.56 147.53 129.78 149.48
  L 130.27 157.89
  Q 120.35 156.27 110.29 155.39
  Q 101.79 154.65 98.66 153.74
  Q 93.68 152.28 87.63 149.57
  A 0.19 0.18 -82.4 0 0 87.37 149.77
  C 89.34 162.66 97.94 174.25 111.21 176.66
  A 0.27 0.27 0.0 0 1 111.21 177.19
  Q 105.77 178.08 100.72 176.72
  A 0.61 0.61 0.0 0 0 99.97 177.45
  C 103.88 193.68 118.17 199.37 133.50 199.50
  A 0.27 0.27 0.0 0 1 133.58 200.03
  C 127.87 201.75 121.02 201.94 115.15 201.07
  A 0.43 0.43 0.0 0 0 114.68 201.62
  C 119.04 215.75 132.93 222.37 146.97 221.05
  Q 151.76 220.60 156.53 220.02
  L 160.06 227.75
  Q 148.27 229.56 144.26 229.59
  Q 125.43 229.70 113.17 216.09
  Q 108.43 210.82 106.22 201.64
  A 4.15 4.10 -70.5 0 0 105.51 200.13
  Q 104.87 199.25 103.52 198.25
  C 97.90 194.07 93.98 187.16 92.38 180.61
  Q 91.44 176.75 91.29 176.29
  A 5.99 5.88 16.7 0 0 90.21 174.33
  C 85.20 168.19 81.71 162.48 79.89 154.61
  Q 77.86 145.90 76.43 136.60
  A 0.51 0.51 0.0 0 1 77.14 136.05
  L 98.03 144.95
  Z"
/>
<path fill="#ea4c18" d="
  M 250.13 144.79
  L 228.93 176.67
  A 0.25 0.25 0.0 0 0 229.00 177.01
  L 254.03 193.63
  L 248.86 199.07
  L 225.05 183.33
  A 0.53 0.52 33.8 0 0 224.33 183.47
  C 218.78 191.84 208.91 194.20 200.31 188.39
  A 0.60 0.59 -44.4 0 0 199.64 188.39
  Q 199.28 188.62 199.13 189.09
  Q 195.60 188.00 193.02 185.17
  Q 193.49 184.73 193.58 184.30
  A 0.59 0.59 0.0 0 0 193.33 183.69
  L 171.75 169.34
  L 172.74 161.28
  Q 187.35 170.88 201.85 180.57
  Q 206.61 183.75 209.52 183.99
  Q 214.87 184.42 218.27 179.25
  Q 230.84 160.14 243.77 140.63
  L 250.13 144.79
  Z"
/>
<path fill="#ffffff" d="
  M 243.77 140.63
  Q 230.84 160.14 218.27 179.25
  Q 214.87 184.42 209.52 183.99
  Q 206.61 183.75 201.85 180.57
  Q 187.35 170.88 172.74 161.28
  L 165.99 156.89
  A 0.28 0.27 55.3 0 1 166.08 156.39
  L 243.77 140.63
  Z"
/>
<path fill="#ffffff" d="
  M 250.13 144.79
  L 260.85 197.68
  A 0.20 0.20 0.0 0 1 260.54 197.89
  L 254.03 193.63
  L 229.00 177.01
  A 0.25 0.25 0.0 0 1 228.93 176.67
  L 250.13 144.79
  Z"
/>
<path fill="#e5e3e7" d="
  M 130.27 157.89
  C 139.30 160.33 146.95 162.69 154.26 168.68
  A 4.19 4.17 13.9 0 1 155.71 171.07
  L 165.30 218.31
  A 0.50 0.50 0.0 0 1 164.88 218.91
  L 156.53 220.02
  Q 151.76 220.60 146.97 221.05
  C 132.93 222.37 119.04 215.75 114.68 201.62
  A 0.43 0.43 0.0 0 1 115.15 201.07
  C 121.02 201.94 127.87 201.75 133.58 200.03
  A 0.27 0.27 0.0 0 0 133.50 199.50
  C 118.17 199.37 103.88 193.68 99.97 177.45
  A 0.61 0.61 0.0 0 1 100.72 176.72
  Q 105.77 178.08 111.21 177.19
  A 0.27 0.27 0.0 0 0 111.21 176.66
  C 97.94 174.25 89.34 162.66 87.37 149.77
  A 0.19 0.18 -82.4 0 1 87.63 149.57
  Q 93.68 152.28 98.66 153.74
  Q 101.79 154.65 110.29 155.39
  Q 120.35 156.27 130.27 157.89
  Z"
/>
<path fill="#ffffff" d="
  M 171.75 169.34
  L 193.33 183.69
  A 0.59 0.59 0.0 0 1 193.58 184.30
  Q 193.49 184.73 193.02 185.17
  L 172.98 215.51
  A 0.36 0.36 0.0 0 1 172.33 215.39
  L 161.75 163.35
  A 0.31 0.31 0.0 0 1 162.23 163.03
  L 171.75 169.34
  Z"
/>
<path fill="#da3016" d="
  M 104.31 216.47
  C 106.59 241.66 111.03 266.01 121.40 289.26
  Q 116.67 293.44 115.67 299.58
  C 114.34 307.75 116.96 317.37 126.06 319.65
  Q 134.95 321.86 141.51 315.69
  A 0.61 0.60 -44.0 0 0 141.53 314.82
  L 137.13 310.42
  A 1.02 1.01 -40.0 0 0 135.83 310.31
  C 131.54 313.36 125.01 312.91 124.01 306.87
  A 0.70 0.70 0.0 0 1 124.70 306.06
  L 143.19 305.95
  Q 145.52 304.76 148.83 306.33
  L 148.85 318.96
  A 0.61 0.60 0.0 0 0 149.46 319.56
  L 153.75 319.49
  Q 166.10 328.68 178.16 333.07
  C 192.56 338.31 209.68 339.32 223.62 333.04
  Q 233.49 328.59 242.94 319.99
  C 253.96 321.84 261.12 312.88 260.38 302.47
  Q 263.32 301.32 264.70 298.22
  C 262.42 307.77 266.46 318.74 277.20 320.20
  C 273.30 334.66 265.74 347.06 255.53 357.74
  Q 232.08 382.25 197.04 381.00
  C 154.00 379.48 126.32 350.89 110.22 313.90
  C 113.10 303.25 104.31 301.07 96.68 298.57
  Q 94.91 297.99 93.86 296.91
  A 1.60 1.59 60.4 0 1 94.59 294.25
  Q 99.39 292.99 106.73 296.21
  A 0.35 0.35 0.0 0 0 107.19 296.03
  L 109.63 290.04
  A 0.36 0.36 0.0 0 0 109.47 289.59
  Q 104.95 287.19 99.58 286.54
  Q 90.42 265.75 87.54 243.33
  Q 83.65 213.04 85.40 182.47
  C 87.54 190.84 91.90 197.05 98.03 203.04
  A 6.91 6.86 -78.0 0 1 99.64 205.54
  C 101.12 209.60 101.69 212.05 104.31 216.47
  Z"
/>
<path fill="#ffffff" d="
  M 248.86 199.07
  L 256.40 203.94
  A 0.33 0.33 0.0 0 1 256.29 204.54
  L 178.99 220.24
  A 0.31 0.30 -78.8 0 1 178.68 219.77
  L 199.13 189.09
  Q 199.28 188.62 199.64 188.39
  A 0.60 0.59 -44.4 0 1 200.31 188.39
  C 208.91 194.20 218.78 191.84 224.33 183.47
  A 0.53 0.52 33.8 0 1 225.05 183.33
  L 248.86 199.07
  Z"
/>
<path fill="#da3016" d="
  M 311.12 195.26
  Q 313.63 224.27 309.07 251.77
  Q 306.42 267.75 301.47 286.38
  A 0.39 0.39 0.0 0 0 301.82 286.87
  L 306.72 287.18
  L 299.26 287.26
  A 0.55 0.54 -88.9 0 0 298.72 287.79
  L 298.59 291.67
  L 292.42 297.06
  Q 287.83 284.49 274.59 286.98
  Q 286.81 267.15 290.39 242.99
  Q 292.77 226.90 293.50 213.81
  Q 292.64 210.61 290.20 208.64
  A 0.37 0.37 0.0 0 1 290.29 208.01
  L 292.49 207.11
  Q 303.24 203.48 311.12 195.26
  Z"
/>
<path fill="#cc1c14" d="
  M 11.63 400.00
  L 0.00 400.00
  L 0.00 205.31
  Q 0.53 288.28 0.22 371.25
  Q 0.18 384.54 0.76 397.83
  A 1.41 1.40 -88.8 0 0 2.03 399.16
  L 11.63 400.00
  Z"
/>
<path fill="#e03c17" d="
  M 293.50 213.81
  Q 292.77 226.90 290.39 242.99
  Q 286.81 267.15 274.59 286.98
  Q 266.82 289.82 264.70 298.22
  Q 263.32 301.32 260.38 302.47
  Q 260.37 295.43 256.06 290.95
  C 249.70 284.34 239.05 285.29 234.10 293.08
  Q 230.35 299.00 231.43 306.49
  Q 233.00 317.22 242.94 319.99
  Q 233.49 328.59 223.62 333.04
  C 209.68 339.32 192.56 338.31 178.16 333.07
  Q 166.10 328.68 153.75 319.49
  L 156.72 319.53
  A 0.58 0.58 0.0 0 0 157.30 318.96
  Q 157.39 307.69 157.31 302.50
  C 157.26 299.43 157.80 295.60 161.30 294.81
  C 167.67 293.36 168.38 298.60 168.36 303.78
  Q 168.35 308.66 168.41 318.85
  A 0.66 0.66 0.0 0 0 169.07 319.51
  L 176.11 319.51
  A 0.70 0.70 0.0 0 0 176.81 318.82
  Q 176.88 308.98 176.75 300.51
  C 176.65 294.12 174.60 288.26 167.69 286.85
  Q 162.84 285.86 158.52 288.28
  A 0.75 0.74 -34.7 0 1 157.60 288.12
  C 156.54 286.92 154.80 287.29 153.16 287.26
  Q 150.74 287.23 149.41 287.27
  A 0.60 0.59 -1.0 0 0 148.83 287.86
  L 148.83 306.33
  Q 145.52 304.76 143.19 305.95
  C 144.10 296.82 139.88 286.58 129.50 286.58
  Q 124.96 286.58 121.40 289.26
  C 111.03 266.01 106.59 241.66 104.31 216.47
  Q 107.49 221.28 108.98 222.76
  Q 125.41 239.15 149.00 237.14
  A 0.64 0.64 0.0 0 1 149.62 238.08
  Q 146.72 243.53 149.79 244.32
  C 158.08 263.15 170.03 277.06 185.25 290.84
  C 181.07 297.72 180.15 309.29 185.69 316.09
  Q 191.15 322.79 200.15 318.48
  A 0.92 0.91 -35.5 0 1 201.20 318.65
  L 201.51 318.97
  A 1.81 1.81 0.0 0 0 202.79 319.50
  L 209.14 319.50
  A 0.54 0.54 0.0 0 0 209.68 318.96
  L 209.74 278.72
  Q 213.83 280.30 217.25 279.84
  L 217.28 318.82
  A 0.72 0.72 0.0 0 0 218.00 319.54
  L 224.92 319.54
  A 0.75 0.75 0.0 0 0 225.67 318.79
  L 225.67 294.60
  C 235.78 282.26 244.44 268.95 253.26 255.77
  Q 257.14 256.84 255.87 249.77
  Q 254.91 244.45 254.09 240.22
  Q 253.36 236.46 255.39 233.39
  C 257.15 230.72 262.30 231.73 264.54 232.99
  C 269.92 235.99 272.88 238.36 276.58 238.43
  A 1.40 1.39 -0.6 0 0 278.01 236.98
  C 277.95 235.42 277.00 232.89 276.06 231.37
  Q 272.32 225.30 271.17 222.43
  C 269.75 218.89 270.31 213.98 274.82 213.43
  C 278.98 212.93 283.38 214.26 287.49 215.02
  C 289.20 215.34 292.61 215.59 293.50 213.81
  Z"
/>
<path fill="#ea4c18" d="
  M 253.26 255.77
  C 244.44 268.95 235.78 282.26 225.67 294.60
  L 225.65 275.77
  A 0.53 0.52 -8.6 0 0 224.97 275.27
  Q 220.15 276.74 217.25 279.84
  Q 213.83 280.30 209.74 278.72
  L 209.81 275.62
  A 0.71 0.71 0.0 0 0 208.75 274.99
  L 201.99 278.90
  A 1.50 1.49 -14.8 0 0 201.23 280.20
  L 201.23 288.03
  A 0.46 0.45 -76.5 0 1 200.57 288.44
  Q 191.60 283.82 185.25 290.84
  C 170.03 277.06 158.08 263.15 149.79 244.32
  Q 153.18 243.94 154.97 242.73
  Q 160.05 239.28 164.63 237.46
  C 170.33 235.20 174.30 238.74 173.38 244.52
  C 172.74 248.58 170.79 254.69 171.79 258.72
  A 1.53 1.53 0.0 0 0 174.12 259.62
  Q 178.22 256.92 181.56 252.63
  C 184.20 249.24 186.88 246.75 190.72 246.47
  C 194.15 246.21 196.15 251.07 196.51 253.96
  C 196.97 257.59 196.91 263.82 199.26 266.67
  A 1.48 1.48 0.0 0 0 201.46 266.76
  Q 203.31 264.87 204.29 262.54
  Q 205.77 259.06 208.40 253.40
  Q 209.07 251.97 210.66 250.58
  C 216.76 245.23 221.58 253.94 223.26 258.97
  C 224.05 261.34 225.53 264.02 227.32 265.58
  A 1.48 1.48 0.0 0 0 229.61 265.12
  C 233.14 257.97 229.98 250.02 235.59 244.34
  A 1.88 1.84 23.2 0 1 237.01 243.79
  Q 241.75 244.06 244.17 246.60
  Q 251.30 254.05 253.26 255.77
  Z"
/>
<path fill="#ffffff" d="
  M 209.74 278.72
  L 209.68 318.96
  A 0.54 0.54 0.0 0 1 209.14 319.50
  L 202.79 319.50
  A 1.81 1.81 0.0 0 1 201.51 318.97
  L 201.20 318.65
  A 0.92 0.91 -35.5 0 0 200.15 318.48
  Q 191.15 322.79 185.69 316.09
  C 180.15 309.29 181.07 297.72 185.25 290.84
  Q 191.60 283.82 200.57 288.44
  A 0.46 0.45 -76.5 0 0 201.23 288.03
  L 201.23 280.20
  A 1.50 1.49 -14.8 0 1 201.99 278.90
  L 208.75 274.99
  A 0.71 0.71 0.0 0 1 209.81 275.62
  L 209.74 278.72
  Z
  M 201.2889 299.4363
  A 4.96 4.96 0.0 0 0 196.2516 294.5548
  L 195.4517 294.5674
  A 4.96 4.96 0.0 0 0 190.5702 299.6047
  L 190.6911 307.3037
  A 4.96 4.96 0.0 0 0 195.7284 312.1852
  L 196.5283 312.1726
  A 4.96 4.96 0.0 0 0 201.4098 307.1353
  L 201.2889 299.4363
  Z"
/>
<path fill="#ffffff" d="
  M 225.67 294.60
  L 225.67 318.79
  A 0.75 0.75 0.0 0 1 224.92 319.54
  L 218.00 319.54
  A 0.72 0.72 0.0 0 1 217.28 318.82
  L 217.25 279.84
  Q 220.15 276.74 224.97 275.27
  A 0.53 0.52 -8.6 0 1 225.65 275.77
  L 225.67 294.60
  Z"
/>
<path fill="#e9ddde" d="
  M 99.58 286.54
  Q 104.95 287.19 109.47 289.59
  A 0.36 0.36 0.0 0 1 109.63 290.04
  L 107.19 296.03
  A 0.35 0.35 0.0 0 1 106.73 296.21
  Q 99.39 292.99 94.59 294.25
  A 1.60 1.59 60.4 0 0 93.86 296.91
  Q 94.91 297.99 96.68 298.57
  C 104.31 301.07 113.10 303.25 110.22 313.90
  Q 108.36 318.32 104.12 319.38
  C 98.40 320.82 90.11 320.59 85.06 317.07
  A 1.48 1.47 28.8 0 1 84.54 315.30
  L 86.29 311.01
  A 1.13 1.13 0.0 0 1 87.86 310.44
  C 91.14 312.17 97.91 314.17 101.56 311.98
  A 1.54 1.53 60.9 0 0 102.13 309.96
  Q 101.48 308.70 100.21 308.27
  C 93.73 306.04 84.99 304.30 84.83 296.51
  C 84.65 287.95 92.81 285.98 99.58 286.54
  Z"
/>
<path fill="#e9ddde" d="
  M 143.19 305.95
  L 124.70 306.06
  A 0.70 0.70 0.0 0 0 124.01 306.87
  C 125.01 312.91 131.54 313.36 135.83 310.31
  A 1.02 1.01 -40.0 0 1 137.13 310.42
  L 141.53 314.82
  A 0.61 0.60 -44.0 0 1 141.51 315.69
  Q 134.95 321.86 126.06 319.65
  C 116.96 317.37 114.34 307.75 115.67 299.58
  Q 116.67 293.44 121.40 289.26
  Q 124.96 286.58 129.50 286.58
  C 139.88 286.58 144.10 296.82 143.19 305.95
  Z
  M 124.65 299.84
  L 134.48 299.66
  A 0.41 0.41 0.0 0 0 134.89 299.24
  L 134.88 299.12
  A 5.17 5.16 88.9 0 0 129.63 294.05
  L 129.29 294.05
  A 5.17 5.16 88.9 0 0 124.23 299.32
  L 124.23 299.44
  A 0.41 0.41 0.0 0 0 124.65 299.84
  Z"
/>
<path fill="#ffffff" d="
  M 153.75 319.49
  L 149.46 319.56
  A 0.61 0.60 0.0 0 1 148.85 318.96
  L 148.83 306.33
  L 148.83 287.86
  A 0.60 0.59 -1.0 0 1 149.41 287.27
  Q 150.74 287.23 153.16 287.26
  C 154.80 287.29 156.54 286.92 157.60 288.12
  A 0.75 0.74 -34.7 0 0 158.52 288.28
  Q 162.84 285.86 167.69 286.85
  C 174.60 288.26 176.65 294.12 176.75 300.51
  Q 176.88 308.98 176.81 318.82
  A 0.70 0.70 0.0 0 1 176.11 319.51
  L 169.07 319.51
  A 0.66 0.66 0.0 0 1 168.41 318.85
  Q 168.35 308.66 168.36 303.78
  C 168.38 298.60 167.67 293.36 161.30 294.81
  C 157.80 295.60 157.26 299.43 157.31 302.50
  Q 157.39 307.69 157.30 318.96
  A 0.58 0.58 0.0 0 1 156.72 319.53
  L 153.75 319.49
  Z"
/>
<path fill="#ffffff" d="
  M 260.38 302.47
  C 261.12 312.88 253.96 321.84 242.94 319.99
  Q 233.00 317.22 231.43 306.49
  Q 230.35 299.00 234.10 293.08
  C 239.05 285.29 249.70 284.34 256.06 290.95
  Q 260.37 295.43 260.38 302.47
  Z
  M 245.7733 294.5603
  A 8.79 6.10 -90.5 0 0 239.7502 303.4032
  A 8.79 6.10 -90.5 0 0 245.9267 312.1397
  A 8.79 6.10 -90.5 0 0 251.9498 303.2968
  A 8.79 6.10 -90.5 0 0 245.7733 294.5603
  Z"
/>
<path fill="#e5e3e7" d="
  M 292.42 297.06
  C 295.56 308.14 290.24 321.33 277.20 320.20
  C 266.46 318.74 262.42 307.77 264.70 298.22
  Q 266.82 289.82 274.59 286.98
  Q 287.83 284.49 292.42 297.06
  Z
  M 278.6736 294.6103
  A 8.76 6.08 -90.5 0 0 272.6702 303.4231
  A 8.76 6.08 -90.5 0 0 278.8264 312.1297
  A 8.76 6.08 -90.5 0 0 284.8298 303.3169
  A 8.76 6.08 -90.5 0 0 278.6736 294.6103
  Z"
/>
<path fill="#e9ddde" d="
  M 298.59 291.67
  L 298.72 287.79
  A 0.55 0.54 -88.9 0 1 299.26 287.26
  L 306.72 287.18
  Q 307.07 287.79 307.50 288.13
  A 0.86 0.86 0.0 0 0 308.44 288.19
  Q 312.94 285.63 317.67 287.08
  C 323.11 288.73 325.97 294.47 326.22 300.00
  C 326.53 306.83 326.49 312.54 322.12 316.98
  C 318.32 320.84 312.42 321.16 307.88 318.38
  A 0.41 0.41 0.0 0 0 307.26 318.73
  L 307.26 325.79
  A 1.84 1.83 -15.0 0 1 306.34 327.38
  L 299.94 331.07
  A 0.84 0.84 0.0 0 1 298.68 330.34
  L 298.59 291.67
  Z
  M 317.6430 299.5483
  A 4.97 4.97 0.0 0 0 312.5871 294.6657
  L 311.9472 294.6769
  A 4.97 4.97 0.0 0 0 307.0647 299.7329
  L 307.1970 307.3117
  A 4.97 4.97 0.0 0 0 312.2529 312.1943
  L 312.8928 312.1831
  A 4.97 4.97 0.0 0 0 317.7753 307.1271
  L 317.6430 299.5483
  Z"
/>
<path fill="#da3016" d="
  M 124.65 299.84
  A 0.41 0.41 0.0 0 1 124.23 299.44
  L 124.23 299.32
  A 5.17 5.16 88.9 0 1 129.29 294.05
  L 129.63 294.05
  A 5.17 5.16 88.9 0 1 134.88 299.12
  L 134.89 299.24
  A 0.41 0.41 0.0 0 1 134.48 299.66
  L 124.65 299.84
  Z"
/>
<rect fill="#e03c17" x="-5.36" y="-8.81" transform="translate(195.99,303.37) rotate(-0.9)" width="10.72" height="17.62" rx="4.96"/>
<rect fill="#cc1c14" x="-5.29" y="-8.76" transform="translate(312.42,303.43) rotate(-1.0)" width="10.58" height="17.52" rx="4.97"/>
<ellipse fill="#e03c17" cx="0.00" cy="0.00" transform="translate(245.85,303.35) rotate(-90.5)" rx="8.79" ry="6.10"/>
<ellipse fill="#da3016" cx="0.00" cy="0.00" transform="translate(278.75,303.37) rotate(-90.5)" rx="8.76" ry="6.08"/>
</svg>
