<?xml version="1.0" encoding="UTF-8" standalone="no"?>
<!DOCTYPE svg PUBLIC "-//W3C//DTD SVG 1.1//EN" "http://www.w3.org/Graphics/SVG/1.1/DTD/svg11.dtd">
<svg xmlns="http://www.w3.org/2000/svg" version="1.1" viewBox="0.00 0.00 400.00 400.00">
<g stroke-width="2.00" fill="none" stroke-linecap="butt">
<path stroke="#c2b0f2" vector-effect="non-scaling-stroke" d="
  M 338.72 180.31
  Q 338.83 180.17 338.83 180.00
  Q 338.81 154.01 338.86 123.77
  A 1.14 1.13 15.2 0 0 338.29 122.79
  L 200.57 43.30
  A 2.60 2.60 0.0 0 0 197.97 43.30
  L 61.13 122.32
  A 1.52 1.52 0.0 0 0 60.38 123.63
  L 60.39 181.26
  A 1.33 1.31 -75.0 0 0 61.04 182.40
  L 131.14 223.77
  A 0.33 0.33 0.0 0 0 131.64 223.48
  L 131.63 166.60
  A 1.32 1.31 -74.8 0 0 130.99 165.47
  L 110.99 153.67
  A 0.49 0.49 0.0 0 1 110.99 152.83
  L 197.72 101.25
  A 2.45 2.43 -45.2 0 1 200.20 101.23
  L 338.28 180.39
  A 0.35 0.34 -54.6 0 0 338.72 180.31"
/>
<path stroke="#c2b0f2" vector-effect="non-scaling-stroke" d="
  M 162.54 189.81
  A 0.31 0.31 0.0 0 0 162.72 190.37
  L 238.98 190.37
  A 0.31 0.31 0.0 0 0 239.16 189.81
  L 201.03 162.44
  A 0.31 0.31 0.0 0 0 200.67 162.44
  L 162.54 189.81"
/>
<path stroke="#c2b0f2" vector-effect="non-scaling-stroke" d="
  M 60.50 219.67
  Q 60.39 219.81 60.39 219.98
  Q 60.41 245.97 60.36 276.21
  A 1.14 1.13 15.3 0 0 60.93 277.19
  L 198.64 356.70
  A 2.60 2.60 0.0 0 0 201.24 356.70
  L 338.09 277.69
  A 1.52 1.52 0.0 0 0 338.84 276.38
  L 338.84 218.75
  A 1.33 1.31 -75.0 0 0 338.19 217.61
  L 268.09 176.23
  A 0.33 0.33 0.0 0 0 267.59 176.52
  L 267.59 233.40
  A 1.32 1.31 -74.8 0 0 268.23 234.53
  L 288.23 246.34
  A 0.49 0.49 0.0 0 1 288.23 247.18
  L 201.50 298.75
  A 2.45 2.43 -45.2 0 1 199.02 298.77
  L 60.94 219.59
  A 0.35 0.34 -54.6 0 0 60.50 219.67"
/>
<path stroke="#c2b0f2" vector-effect="non-scaling-stroke" d="
  M 200.85 217.29
  Q 205.43 217.29 208.93 217.40
  A 0.48 0.48 0.0 0 1 209.39 217.88
  L 209.39 239.81
  A 0.60 0.60 0.0 0 0 209.99 240.41
  L 232.18 240.41
  A 0.65 0.65 0.0 0 0 232.83 239.76
  L 232.83 196.72
  A 0.51 0.50 0.7 0 0 232.33 196.22
  Q 230.66 196.19 200.85 196.20
  Q 171.04 196.20 169.37 196.23
  A 0.51 0.50 -0.7 0 0 168.87 196.73
  L 168.88 239.77
  A 0.65 0.65 0.0 0 0 169.53 240.42
  L 191.72 240.41
  A 0.60 0.60 0.0 0 0 192.32 239.81
  L 192.32 217.88
  A 0.48 0.48 0.0 0 1 192.78 217.40
  Q 196.28 217.29 200.85 217.29"
/>
</g>
<path fill="#8460e4" d="
  M 400.00 0.00
  L 400.00 400.00
  L 0.00 400.00
  L 0.00 0.00
  L 400.00 0.00
  Z
  M 338.72 180.31
  Q 338.83 180.17 338.83 180.00
  Q 338.81 154.01 338.86 123.77
  A 1.14 1.13 15.2 0 0 338.29 122.79
  L 200.57 43.30
  A 2.60 2.60 0.0 0 0 197.97 43.30
  L 61.13 122.32
  A 1.52 1.52 0.0 0 0 60.38 123.63
  L 60.39 181.26
  A 1.33 1.31 -75.0 0 0 61.04 182.40
  L 131.14 223.77
  A 0.33 0.33 0.0 0 0 131.64 223.48
  L 131.63 166.60
  A 1.32 1.31 -74.8 0 0 130.99 165.47
  L 110.99 153.67
  A 0.49 0.49 0.0 0 1 110.99 152.83
  L 197.72 101.25
  A 2.45 2.43 -45.2 0 1 200.20 101.23
  L 338.28 180.39
  A 0.35 0.34 -54.6 0 0 338.72 180.31
  Z
  M 162.54 189.81
  A 0.31 0.31 0.0 0 0 162.72 190.37
  L 238.98 190.37
  A 0.31 0.31 0.0 0 0 239.16 189.81
  L 201.03 162.44
  A 0.31 0.31 0.0 0 0 200.67 162.44
  L 162.54 189.81
  Z
  M 60.50 219.67
  Q 60.39 219.81 60.39 219.98
  Q 60.41 245.97 60.36 276.21
  A 1.14 1.13 15.3 0 0 60.93 277.19
  L 198.64 356.70
  A 2.60 2.60 0.0 0 0 201.24 356.70
  L 338.09 277.69
  A 1.52 1.52 0.0 0 0 338.84 276.38
  L 338.84 218.75
  A 1.33 1.31 -75.0 0 0 338.19 217.61
  L 268.09 176.23
  A 0.33 0.33 0.0 0 0 267.59 176.52
  L 267.59 233.40
  A 1.32 1.31 -74.8 0 0 268.23 234.53
  L 288.23 246.34
  A 0.49 0.49 0.0 0 1 288.23 247.18
  L 201.50 298.75
  A 2.45 2.43 -45.2 0 1 199.02 298.77
  L 60.94 219.59
  A 0.35 0.34 -54.6 0 0 60.50 219.67
  Z
  M 200.85 217.29
  Q 205.43 217.29 208.93 217.40
  A 0.48 0.48 0.0 0 1 209.39 217.88
  L 209.39 239.81
  A 0.60 0.60 0.0 0 0 209.99 240.41
  L 232.18 240.41
  A 0.65 0.65 0.0 0 0 232.83 239.76
  L 232.83 196.72
  A 0.51 0.50 0.7 0 0 232.33 196.22
  Q 230.66 196.19 200.85 196.20
  Q 171.04 196.20 169.37 196.23
  A 0.51 0.50 -0.7 0 0 168.87 196.73
  L 168.88 239.77
  A 0.65 0.65 0.0 0 0 169.53 240.42
  L 191.72 240.41
  A 0.60 0.60 0.0 0 0 192.32 239.81
  L 192.32 217.88
  A 0.48 0.48 0.0 0 1 192.78 217.40
  Q 196.28 217.29 200.85 217.29
  Z"
/>
<path fill="#ffffff" d="
  M 338.72 180.31
  A 0.35 0.34 -54.6 0 1 338.28 180.39
  L 200.20 101.23
  A 2.45 2.43 -45.2 0 0 197.72 101.25
  L 110.99 152.83
  A 0.49 0.49 0.0 0 0 110.99 153.67
  L 130.99 165.47
  A 1.32 1.31 -74.8 0 1 131.63 166.60
  L 131.64 223.48
  A 0.33 0.33 0.0 0 1 131.14 223.77
  L 61.04 182.40
  A 1.33 1.31 -75.0 0 1 60.39 181.26
  L 60.38 123.63
  A 1.52 1.52 0.0 0 1 61.13 122.32
  L 197.97 43.30
  A 2.60 2.60 0.0 0 1 200.57 43.30
  L 338.29 122.79
  A 1.14 1.13 15.2 0 1 338.86 123.77
  Q 338.81 154.01 338.83 180.00
  Q 338.83 180.17 338.72 180.31
  Z"
/>
<path fill="#ffffff" d="
  M 162.54 189.81
  L 200.67 162.44
  A 0.31 0.31 0.0 0 1 201.03 162.44
  L 239.16 189.81
  A 0.31 0.31 0.0 0 1 238.98 190.37
  L 162.72 190.37
  A 0.31 0.31 0.0 0 1 162.54 189.81
  Z"
/>
<path fill="#ffffff" d="
  M 60.50 219.67
  A 0.35 0.34 -54.6 0 1 60.94 219.59
  L 199.02 298.77
  A 2.45 2.43 -45.2 0 0 201.50 298.75
  L 288.23 247.18
  A 0.49 0.49 0.0 0 0 288.23 246.34
  L 268.23 234.53
  A 1.32 1.31 -74.8 0 1 267.59 233.40
  L 267.59 176.52
  A 0.33 0.33 0.0 0 1 268.09 176.23
  L 338.19 217.61
  A 1.33 1.31 -75.0 0 1 338.84 218.75
  L 338.84 276.38
  A 1.52 1.52 0.0 0 1 338.09 277.69
  L 201.24 356.70
  A 2.60 2.60 0.0 0 1 198.64 356.70
  L 60.93 277.19
  A 1.14 1.13 15.3 0 1 60.36 276.21
  Q 60.41 245.97 60.39 219.98
  Q 60.39 219.81 60.50 219.67
  Z"
/>
<path fill="#ffffff" d="
  M 200.85 196.20
  Q 230.66 196.19 232.33 196.22
  A 0.51 0.50 0.7 0 1 232.83 196.72
  L 232.83 239.76
  A 0.65 0.65 0.0 0 1 232.18 240.41
  L 209.99 240.41
  A 0.60 0.60 0.0 0 1 209.39 239.81
  L 209.39 217.88
  A 0.48 0.48 0.0 0 0 208.93 217.40
  Q 205.43 217.29 200.85 217.29
  Q 196.28 217.29 192.78 217.40
  A 0.48 0.48 0.0 0 0 192.32 217.88
  L 192.32 239.81
  A 0.60 0.60 0.0 0 1 191.72 240.41
  L 169.53 240.42
  A 0.65 0.65 0.0 0 1 168.88 239.77
  L 168.87 196.73
  A 0.51 0.50 -0.7 0 1 169.37 196.23
  Q 171.04 196.20 200.85 196.20
  Z"
/>
</svg>
