<svg xmlns="http://www.w3.org/2000/svg" viewBox="0 0 276.24 85.63" class="w-auto h-10"><path fill="#231f20" d="M75.23 50.89c.23 1.32.86 2.43 1.89 3.35s2.41 1.37 4.12 1.37 3.08-.44 4.08-1.33c1-.89 1.5-1.88 1.5-2.96 0-.92-.5-1.63-1.5-2.15s-2.25-.99-3.74-1.42c-1.49-.43-3.11-.87-4.85-1.33-1.75-.46-3.37-1.13-4.85-2.02-1.49-.89-2.74-2.03-3.74-3.44-1-1.4-1.5-3.25-1.5-5.54 0-1.6.33-3.13.99-4.6.66-1.46 1.62-2.73 2.88-3.82 1.26-1.09 2.75-1.96 4.47-2.62 1.72-.66 3.66-.99 5.84-.99 4.75 0 8.4 1.15 10.95 3.44 2.55 2.29 4.05 5.15 4.51 8.59h-9.45c-.23-.86-.85-1.72-1.85-2.58-1-.86-2.25-1.29-3.74-1.29s-2.65.37-3.48 1.12c-.83.75-1.25 1.66-1.25 2.75 0 .92.5 1.63 1.5 2.15s2.25.99 3.74 1.42c1.49.43 3.11.89 4.85 1.37 1.75.49 3.36 1.19 4.85 2.1 1.49.92 2.73 2.11 3.74 3.57 1 1.46 1.5 3.37 1.5 5.71 0 1.6-.34 3.13-1.03 4.6a11.4 11.4 0 0 1-2.92 3.82c-1.26 1.09-2.79 1.96-4.6 2.62-1.8.66-3.82.99-6.06.99-5.15 0-9.06-1.17-11.73-3.52-2.66-2.35-4.2-5.47-4.6-9.36h9.45ZM139.23 51.32c-.52 1.49-1.3 2.98-2.36 4.47a18.725 18.725 0 0 1-3.87 3.99c-1.52 1.17-3.24 2.13-5.15 2.88-1.92.74-3.99 1.12-6.23 1.12-2.69 0-5.23-.53-7.6-1.59-2.38-1.06-4.47-2.5-6.27-4.34-1.8-1.83-3.24-3.96-4.29-6.4-1.06-2.43-1.59-5.05-1.59-7.86s.53-5.43 1.59-7.86c1.06-2.43 2.49-4.57 4.29-6.4 1.8-1.83 3.89-3.28 6.27-4.34 2.38-1.06 4.91-1.59 7.6-1.59s5.01.49 7.3 1.46 4.29 2.35 6.01 4.12c1.72 1.78 3.08 3.91 4.08 6.4s1.5 5.23 1.5 8.2c0 .46-.03.9-.09 1.33-.06.43-.12.85-.17 1.25-.06.46-.12.89-.17 1.29h-27.49c.46 1.95 1.43 3.58 2.92 4.9 1.49 1.32 3.52 1.98 6.1 1.98 1.32 0 2.42-.14 3.31-.43.89-.29 1.65-.63 2.28-1.03.69-.46 1.26-.97 1.72-1.55h10.31Zm-17.61-18.47c-2.58 0-4.68.75-6.31 2.23-1.63 1.49-2.68 3.32-3.14 5.5h18.9c-.46-2.18-1.5-4.01-3.14-5.5-1.63-1.49-3.74-2.23-6.31-2.23ZM166.28 23.4c.46 0 .86.03 1.2.09.34.06.66.12.94.17.29.06.57.12.86.17v10.31c-.29-.06-.6-.11-.95-.17-.29-.06-.64-.11-1.07-.17-.43-.06-.9-.09-1.42-.09-2.41 0-4.37.79-5.88 2.36-1.52 1.58-2.28 3.65-2.28 6.23v21.05h-9.88V23.83h7.3l1.72 4.29c.69-.86 1.52-1.63 2.49-2.32.8-.63 1.79-1.19 2.96-1.67 1.17-.49 2.5-.73 3.99-.73ZM195.92 23.4c2.46 0 4.81.5 7.04 1.5s4.19 2.41 5.88 4.21c1.69 1.8 3.04 3.94 4.04 6.4 1 2.46 1.5 5.15 1.5 8.08s-.5 5.61-1.5 8.08c-1 2.46-2.35 4.6-4.04 6.4a18.25 18.25 0 0 1-5.88 4.21c-2.23 1-4.58 1.5-7.04 1.5-1.66 0-3.11-.2-4.34-.6-1.23-.4-2.31-.83-3.22-1.29-1.03-.57-1.95-1.23-2.75-1.98v17.18h-9.88V23.83h7.3l1.72 3.87c.86-.8 1.86-1.52 3.01-2.15.97-.51 2.15-1 3.52-1.46 1.37-.46 2.92-.69 4.64-.69Zm-11.17 20.19c0 3.26.94 5.87 2.83 7.82 1.89 1.95 4.24 2.92 7.04 2.92s5.15-.97 7.04-2.92c1.89-1.95 2.83-4.55 2.83-7.82s-.94-5.87-2.83-7.82c-1.89-1.95-4.24-2.92-7.04-2.92s-5.15.97-7.04 2.92c-1.89 1.95-2.83 4.55-2.83 7.82ZM231.57 63.34h-9.88V9.22h9.88v54.12ZM236.72 23.83h10.31l9.88 25.77 9.02-25.77h10.31c-2.81 7.22-5.36 13.74-7.65 19.59-.97 2.52-1.93 4.98-2.88 7.39s-1.79 4.6-2.53 6.57c-.75 1.98-1.37 3.62-1.89 4.94-.52 1.32-.83 2.09-.95 2.32-.97 2.35-1.93 4.34-2.88 5.97-.94 1.63-1.96 2.96-3.05 3.99-1.09 1.03-2.26 1.77-3.52 2.23-1.26.46-2.69.69-4.29.69-.46 0-.9-.01-1.33-.04-.43-.03-.79-.07-1.07-.13-.4-.06-.75-.14-1.03-.26v-8.16c2.18 0 3.85-.49 5.03-1.46 1.17-.97 2.08-2.21 2.71-3.69l.86-2.15-15.03-37.8Z" style="fill: rgb(35, 31, 32) !important;"/><path fill="#f03e2f" d="M39.806 59.202 4.199 85.626C-1.927 77.37-.2 65.703 8.055 59.576l35.606-26.423c6.127 8.255 4.4 19.922-3.855 26.049ZM7.523 26.424 43.13 0c6.127 8.255 4.4 19.922-3.855 26.049L3.667 52.473C-2.459 44.218-.732 32.55 7.523 26.424Z" style="fill: rgb(240, 62, 47) !important;"/></svg>