<svg width="128" height="128" viewBox="0 0 128 128" fill="none" xmlns="http://www.w3.org/2000/svg">
<g clip-path="url(#clip0_0_319)">
<path d="M0.0455463 81.7727C7.52211 81.7727 17.8281 81.6978 24.7238 81.6978C26.2416 79.6741 27.8718 77.8002 29.2772 76.6385C33.943 72.7784 40.1641 71.2981 46.0105 73.0407C58.4714 76.7322 62.5563 92.3036 52.0067 100.605C50.339 101.916 48.7837 103.378 46.2728 104.053V128H84.3114V104.034C84.3114 104.034 76.6662 101.56 74.6238 98.0001C67.1847 88.9307 72.5251 74.5023 84.3114 72.7596V55.2581C82.1003 54.9396 80.0579 53.9464 78.2403 52.6722C66.9036 44.7085 70.0704 28.3125 83.2434 24.415C88.996 22.7098 95.8542 24.1526 100.239 28.3125C101.588 29.6617 104.68 33.9153 105.036 34.5524H127.972C127.803 30.6548 126.96 26.701 125.573 23.0658C124.393 19.9365 122.744 16.9946 120.739 14.315C119.071 12.0852 117.122 10.024 114.967 8.26259C103.574 -0.937888 90.2702 0.0177618 76.4976 0.0365H46.2728V23.7029C54.6113 28.5186 57.9842 33.4468 58.2466 39.0495C58.6963 57.6004 30.364 61.8727 24.5177 44.5398C22.2691 32.8472 29.0711 25.7829 36.8849 23.7029V0.0365C32.5939 0.0365 28.3403 0.561171 24.2554 1.98528C20.9574 3.12831 17.8656 4.72106 15.0174 6.74479C12.7501 8.33754 10.6701 10.2301 8.85252 12.3101C-0.947581 23.5717 0.026808 37.3444 0.026808 51.2856V81.6791M93.6806 127.981C97.7842 127.663 101.644 126.913 105.486 125.377C108.634 124.121 111.557 122.453 114.236 120.374C128.665 109.187 127.972 92.9407 127.972 76.5073V43.6966H105.036C101.607 49.8428 98.946 52.2787 93.6806 55.2769V72.7784C97.6156 75.0457 99.9392 76.0201 102.319 79.0182C109.065 87.7315 104.493 101.467 93.6806 104.034M0.0455463 91.0107C0.0455463 111.81 16.1042 127.981 36.9037 127.981C36.9037 119.961 36.9224 111.904 36.9037 104.034C35.5171 103.659 32.9312 102.572 31.7694 101.823C28.0967 99.4991 25.1173 95.5266 24.7238 91.0107H0.0455463Z" fill="#6361EC"/>
</g>
<defs>
<clipPath id="clip0_0_319">
<rect width="128" height="128" fill="white"/>
</clipPath>
</defs>
</svg>
