<?xml version="1.0" encoding="UTF-8" standalone="no"?>
<!DOCTYPE svg PUBLIC "-//W3C//DTD SVG 1.1//EN" "http://www.w3.org/Graphics/SVG/1.1/DTD/svg11.dtd">
<svg xmlns="http://www.w3.org/2000/svg" version="1.1" viewBox="0.00 0.00 400.00 400.00">
<g stroke-width="2.00" fill="none" stroke-linecap="butt">
<path stroke="#9593b9" vector-effect="non-scaling-stroke" d="
  M 48.37 120.16
  A 0.34 0.34 0.0 0 1 48.02 119.66
  Q 52.39 111.62 59.39 105.96
  Q 61.80 104.01 74.62 96.66
  Q 116.04 72.93 174.00 39.56
  Q 183.58 34.05 188.69 32.75
  Q 204.41 28.77 218.70 35.58
  Q 220.93 36.65 226.28 39.74
  Q 242.71 49.24 328.93 98.67
  Q 334.72 101.99 335.92 103.03
  C 341.19 107.63 342.81 114.67 338.08 120.37
  Q 336.26 122.56 332.30 125.03
  Q 262.97 168.21 248.05 177.22
  Q 233.09 186.24 228.07 191.19
  Q 213.02 206.03 208.46 226.38
  Q 207.27 231.72 207.28 241.59
  Q 207.34 335.90 207.27 352.76
  Q 207.26 356.41 207.70 359.21
  C 209.91 373.32 220.58 381.40 234.57 376.69
  Q 239.18 375.13 241.18 373.96
  Q 296.02 341.85 328.40 323.29
  Q 341.25 315.93 345.57 311.87
  C 357.77 300.37 366.82 283.35 366.84 266.26
  Q 366.94 182.83 366.82 142.49
  Q 366.71 109.26 337.90 92.80
  Q 250.56 42.91 236.40 34.54
  Q 221.21 25.58 215.22 24.01
  Q 199.56 19.91 184.86 23.96
  Q 179.54 25.42 164.81 33.88
  Q 117.15 61.25 63.88 91.86
  C 51.66 98.88 42.62 106.57 37.13 119.76
  C 33.46 128.57 33.11 139.49 33.12 149.99
  Q 33.19 245.51 33.09 258.14
  Q 33.00 269.79 34.05 275.36
  C 36.62 288.95 43.99 301.97 53.85 311.51
  Q 57.50 315.04 66.97 320.54
  Q 125.34 354.43 159.33 374.16
  C 172.83 382.01 188.73 377.90 191.88 361.21
  C 192.09 360.08 192.73 357.53 192.73 356.00
  Q 192.66 272.54 192.75 241.09
  Q 192.77 231.39 191.55 226.13
  C 187.96 210.70 178.30 193.71 164.44 185.08
  Q 93.01 140.64 65.37 123.65
  Q 57.30 118.69 48.37 120.16"
/>
<path stroke="#9593b9" vector-effect="non-scaling-stroke" d="
  M 223.59 141.42
  Q 229.00 144.73 237.71 150.06
  C 242.60 153.06 247.58 149.05 251.02 145.89
  A 1.45 1.44 50.1 0 0 251.19 143.95
  Q 250.75 143.38 249.88 142.85
  Q 238.99 136.37 229.81 130.74
  Q 224.40 127.43 215.69 122.10
  C 210.80 119.10 205.82 123.11 202.38 126.27
  A 1.45 1.44 50.1 0 0 202.21 128.21
  Q 202.65 128.78 203.52 129.30
  Q 214.41 135.79 223.59 141.42"
/>
<path stroke="#9593b9" vector-effect="non-scaling-stroke" d="
  M 231.81 159.46
  A 2.24 2.24 0.0 0 0 231.84 155.60
  L 194.46 133.17
  A 2.24 2.24 0.0 0 0 192.19 133.15
  L 184.43 137.63
  A 2.24 2.24 0.0 0 0 184.39 141.49
  L 221.77 163.93
  A 2.24 2.24 0.0 0 0 224.04 163.95
  L 231.81 159.46"
/>
<path stroke="#9593b9" vector-effect="non-scaling-stroke" d="
  M 186.48 166.37
  Q 191.89 169.68 200.59 175.01
  C 205.48 178.01 210.46 174.00 213.90 170.85
  A 1.45 1.44 50.1 0 0 214.07 168.91
  Q 213.63 168.34 212.75 167.81
  Q 201.88 161.32 192.70 155.70
  Q 187.30 152.38 178.59 147.05
  C 173.70 144.05 168.72 148.06 165.28 151.22
  A 1.45 1.44 50.1 0 0 165.11 153.16
  Q 165.55 153.73 166.43 154.25
  Q 177.31 160.74 186.48 166.37"
/>
<path stroke="#9593b9" vector-effect="non-scaling-stroke" d="
  M 43.01 186.38
  L 43.01 231.03
  A 2.50 2.49 -74.3 0 0 44.20 233.16
  Q 81.20 255.84 168.23 309.51
  Q 170.44 310.87 170.88 312.82
  C 171.33 314.84 169.79 317.11 167.67 317.44
  Q 165.73 317.75 163.74 316.52
  Q 90.61 271.43 43.69 242.55
  A 0.45 0.45 0.0 0 0 43.01 242.93
  Q 43.03 260.94 42.98 263.52
  Q 42.81 271.93 44.17 276.90
  C 47.90 290.59 56.32 303.46 68.71 310.53
  Q 74.21 313.67 163.76 365.75
  C 169.09 368.85 175.74 370.62 180.19 364.93
  Q 182.93 361.43 182.94 356.73
  Q 183.03 318.56 182.99 238.50
  Q 182.99 232.53 182.47 229.55
  C 180.12 216.18 170.93 200.29 159.24 193.03
  Q 85.14 147.03 62.67 133.06
  C 57.88 130.09 51.21 126.93 46.61 131.66
  Q 43.20 135.15 43.13 139.89
  Q 42.88 155.75 43.05 175.52
  A 1.03 1.02 15.9 0 0 43.54 176.39
  Q 116.98 221.65 167.04 252.46
  C 172.95 256.10 168.50 263.19 162.98 259.79
  Q 97.80 219.60 43.44 186.14
  A 0.28 0.28 0.0 0 0 43.01 186.38"
/>
<path stroke="#8edff7" vector-effect="non-scaling-stroke" d="
  M 64.28 171.34
  Q 69.59 174.82 75.59 178.79
  A 2.78 2.77 39.8 0 0 79.04 178.48
  Q 79.47 178.07 79.69 176.41
  Q 80.26 172.02 80.35 169.17
  C 80.52 164.08 76.46 162.11 72.30 159.38
  Q 66.99 155.91 60.99 151.94
  A 2.78 2.77 39.8 0 0 57.54 152.25
  Q 57.11 152.66 56.89 154.32
  Q 56.32 158.71 56.22 161.56
  C 56.06 166.65 60.12 168.62 64.28 171.34"
/>
<path stroke="#ea94c7" vector-effect="non-scaling-stroke" d="
  M 111.46 201.90
  Q 116.44 205.33 118.42 206.32
  A 1.53 1.53 0.0 0 0 120.63 205.08
  L 121.27 197.28
  A 4.13 4.12 -66.1 0 0 119.98 193.91
  Q 119.15 193.14 117.79 192.20
  Q 112.82 188.76 110.83 187.78
  A 1.53 1.53 0.0 0 0 108.62 189.02
  L 107.98 196.82
  A 4.13 4.12 -66.1 0 0 109.28 200.18
  Q 110.10 200.95 111.46 201.90"
/>
<path stroke="#ea94c7" vector-effect="non-scaling-stroke" d="
  M 137.94 205.56
  Q 132.92 202.17 130.91 201.20
  A 1.54 1.54 0.0 0 0 128.71 202.47
  L 128.15 210.30
  A 4.15 4.13 -66.7 0 0 129.49 213.67
  Q 130.32 214.43 131.71 215.36
  Q 136.73 218.76 138.73 219.73
  A 1.54 1.54 0.0 0 0 140.93 218.46
  L 141.49 210.62
  A 4.15 4.13 -66.7 0 0 140.16 207.26
  Q 139.33 206.50 137.94 205.56"
/>
<path stroke="#8edff7" vector-effect="non-scaling-stroke" d="
  M 64.29 229.92
  Q 69.60 233.40 75.61 237.38
  A 2.78 2.77 39.8 0 0 79.07 237.07
  Q 79.50 236.66 79.72 234.99
  Q 80.29 230.60 80.39 227.75
  C 80.55 222.64 76.48 220.67 72.32 217.94
  Q 67.00 214.46 61.00 210.49
  A 2.78 2.77 39.8 0 0 57.54 210.79
  Q 57.11 211.20 56.89 212.87
  Q 56.32 217.26 56.22 220.12
  C 56.05 225.22 60.13 227.19 64.29 229.92"
/>
<path stroke="#ea94c7" vector-effect="non-scaling-stroke" d="
  M 158.02 218.99
  Q 153.06 215.57 151.08 214.59
  A 1.53 1.52 15.6 0 0 148.89 215.83
  L 148.26 223.59
  A 4.11 4.10 -66.2 0 0 149.55 226.94
  Q 150.37 227.71 151.73 228.65
  Q 156.68 232.07 158.66 233.05
  A 1.53 1.52 15.6 0 0 160.86 231.81
  L 161.49 224.04
  A 4.11 4.10 -66.2 0 0 160.20 220.69
  Q 159.38 219.93 158.02 218.99"
/>
<path stroke="#ea94c7" vector-effect="non-scaling-stroke" d="
  M 111.51 260.57
  Q 116.49 263.97 118.48 264.95
  A 1.53 1.53 0.0 0 0 120.68 263.70
  L 121.28 255.90
  A 4.13 4.11 -66.4 0 0 119.97 252.55
  Q 119.14 251.78 117.77 250.85
  Q 112.79 247.44 110.80 246.47
  A 1.53 1.53 0.0 0 0 108.60 247.72
  L 108.00 255.51
  A 4.13 4.11 -66.4 0 0 109.32 258.87
  Q 110.14 259.63 111.51 260.57"
/>
<path stroke="#ea94c7" vector-effect="non-scaling-stroke" d="
  M 137.98 264.19
  Q 132.96 260.82 130.95 259.85
  A 1.53 1.53 0.0 0 0 128.76 261.12
  L 128.21 268.94
  A 4.14 4.13 -66.8 0 0 129.55 272.29
  Q 130.38 273.05 131.77 273.98
  Q 136.79 277.36 138.79 278.33
  A 1.53 1.53 0.0 0 0 140.98 277.06
  L 141.53 269.24
  A 4.14 4.13 -66.8 0 0 140.19 265.88
  Q 139.36 265.12 137.98 264.19"
/>
<path stroke="#8edff7" vector-effect="non-scaling-stroke" d="
  M 64.27 288.46
  Q 69.57 291.93 75.58 295.89
  A 2.78 2.76 39.7 0 0 79.03 295.58
  Q 79.46 295.17 79.67 293.50
  Q 80.24 289.12 80.33 286.28
  C 80.49 281.18 76.42 279.22 72.26 276.50
  Q 66.95 273.03 60.95 269.07
  A 2.78 2.76 39.7 0 0 57.50 269.39
  Q 57.07 269.80 56.85 271.46
  Q 56.29 275.85 56.20 278.69
  C 56.04 283.79 60.10 285.75 64.27 288.46"
/>
<path stroke="#ea94c7" vector-effect="non-scaling-stroke" d="
  M 158.07 277.61
  Q 153.10 274.17 151.12 273.18
  A 1.53 1.53 0.0 0 0 148.91 274.41
  L 148.25 282.21
  A 4.13 4.12 -66.0 0 0 149.53 285.58
  Q 150.35 286.35 151.72 287.30
  Q 156.68 290.75 158.66 291.74
  A 1.53 1.53 0.0 0 0 160.87 290.51
  L 161.53 282.71
  A 4.13 4.12 -66.0 0 0 160.25 279.34
  Q 159.43 278.57 158.07 277.61"
/>
<path stroke="#ea94c7" vector-effect="non-scaling-stroke" d="
  M 111.46 319.03
  Q 116.42 322.47 118.40 323.46
  A 1.53 1.53 0.0 0 0 120.61 322.23
  L 121.26 314.44
  A 4.13 4.11 -66.0 0 0 119.98 311.08
  Q 119.16 310.31 117.80 309.36
  Q 112.84 305.92 110.86 304.93
  A 1.53 1.53 0.0 0 0 108.66 306.16
  L 108.00 313.95
  A 4.13 4.11 -66.0 0 0 109.28 317.31
  Q 110.10 318.08 111.46 319.03"
/>
<path stroke="#ea94c7" vector-effect="non-scaling-stroke" d="
  M 131.69 332.49
  Q 136.69 335.89 138.69 336.87
  A 1.53 1.53 0.0 0 0 140.89 335.61
  L 141.47 327.80
  A 4.14 4.12 -66.5 0 0 140.16 324.43
  Q 139.33 323.67 137.95 322.73
  Q 132.95 319.33 130.95 318.35
  A 1.53 1.53 0.0 0 0 128.75 319.61
  L 128.17 327.42
  A 4.14 4.12 -66.5 0 0 129.49 330.79
  Q 130.31 331.55 131.69 332.49"
/>
<path stroke="#ea94c7" vector-effect="non-scaling-stroke" d="
  M 157.94 336.08
  Q 153.02 332.70 151.06 331.73
  A 1.51 1.51 0.0 0 0 148.88 332.96
  L 148.26 340.67
  A 4.08 4.07 -66.2 0 0 149.55 343.99
  Q 150.36 344.75 151.72 345.68
  Q 156.63 349.06 158.60 350.04
  A 1.51 1.51 0.0 0 0 160.77 348.81
  L 161.39 341.10
  A 4.08 4.07 -66.2 0 0 160.10 337.78
  Q 159.29 337.02 157.94 336.08"
/>
</g>
<path fill="#ffffff" d="
  M 400.00 0.00
  L 400.00 400.00
  L 0.00 400.00
  L 0.00 0.00
  L 400.00 0.00
  Z
  M 48.37 120.16
  A 0.34 0.34 0.0 0 1 48.02 119.66
  Q 52.39 111.62 59.39 105.96
  Q 61.80 104.01 74.62 96.66
  Q 116.04 72.93 174.00 39.56
  Q 183.58 34.05 188.69 32.75
  Q 204.41 28.77 218.70 35.58
  Q 220.93 36.65 226.28 39.74
  Q 242.71 49.24 328.93 98.67
  Q 334.72 101.99 335.92 103.03
  C 341.19 107.63 342.81 114.67 338.08 120.37
  Q 336.26 122.56 332.30 125.03
  Q 262.97 168.21 248.05 177.22
  Q 233.09 186.24 228.07 191.19
  Q 213.02 206.03 208.46 226.38
  Q 207.27 231.72 207.28 241.59
  Q 207.34 335.90 207.27 352.76
  Q 207.26 356.41 207.70 359.21
  C 209.91 373.32 220.58 381.40 234.57 376.69
  Q 239.18 375.13 241.18 373.96
  Q 296.02 341.85 328.40 323.29
  Q 341.25 315.93 345.57 311.87
  C 357.77 300.37 366.82 283.35 366.84 266.26
  Q 366.94 182.83 366.82 142.49
  Q 366.71 109.26 337.90 92.80
  Q 250.56 42.91 236.40 34.54
  Q 221.21 25.58 215.22 24.01
  Q 199.56 19.91 184.86 23.96
  Q 179.54 25.42 164.81 33.88
  Q 117.15 61.25 63.88 91.86
  C 51.66 98.88 42.62 106.57 37.13 119.76
  C 33.46 128.57 33.11 139.49 33.12 149.99
  Q 33.19 245.51 33.09 258.14
  Q 33.00 269.79 34.05 275.36
  C 36.62 288.95 43.99 301.97 53.85 311.51
  Q 57.50 315.04 66.97 320.54
  Q 125.34 354.43 159.33 374.16
  C 172.83 382.01 188.73 377.90 191.88 361.21
  C 192.09 360.08 192.73 357.53 192.73 356.00
  Q 192.66 272.54 192.75 241.09
  Q 192.77 231.39 191.55 226.13
  C 187.96 210.70 178.30 193.71 164.44 185.08
  Q 93.01 140.64 65.37 123.65
  Q 57.30 118.69 48.37 120.16
  Z
  M 223.59 141.42
  Q 229.00 144.73 237.71 150.06
  C 242.60 153.06 247.58 149.05 251.02 145.89
  A 1.45 1.44 50.1 0 0 251.19 143.95
  Q 250.75 143.38 249.88 142.85
  Q 238.99 136.37 229.81 130.74
  Q 224.40 127.43 215.69 122.10
  C 210.80 119.10 205.82 123.11 202.38 126.27
  A 1.45 1.44 50.1 0 0 202.21 128.21
  Q 202.65 128.78 203.52 129.30
  Q 214.41 135.79 223.59 141.42
  Z
  M 231.81 159.46
  A 2.24 2.24 0.0 0 0 231.84 155.60
  L 194.46 133.17
  A 2.24 2.24 0.0 0 0 192.19 133.15
  L 184.43 137.63
  A 2.24 2.24 0.0 0 0 184.39 141.49
  L 221.77 163.93
  A 2.24 2.24 0.0 0 0 224.04 163.95
  L 231.81 159.46
  Z
  M 186.48 166.37
  Q 191.89 169.68 200.59 175.01
  C 205.48 178.01 210.46 174.00 213.90 170.85
  A 1.45 1.44 50.1 0 0 214.07 168.91
  Q 213.63 168.34 212.75 167.81
  Q 201.88 161.32 192.70 155.70
  Q 187.30 152.38 178.59 147.05
  C 173.70 144.05 168.72 148.06 165.28 151.22
  A 1.45 1.44 50.1 0 0 165.11 153.16
  Q 165.55 153.73 166.43 154.25
  Q 177.31 160.74 186.48 166.37
  Z"
/>
<path fill="#2a2773" d="
  M 48.37 120.16
  Q 57.30 118.69 65.37 123.65
  Q 93.01 140.64 164.44 185.08
  C 178.30 193.71 187.96 210.70 191.55 226.13
  Q 192.77 231.39 192.75 241.09
  Q 192.66 272.54 192.73 356.00
  C 192.73 357.53 192.09 360.08 191.88 361.21
  C 188.73 377.90 172.83 382.01 159.33 374.16
  Q 125.34 354.43 66.97 320.54
  Q 57.50 315.04 53.85 311.51
  C 43.99 301.97 36.62 288.95 34.05 275.36
  Q 33.00 269.79 33.09 258.14
  Q 33.19 245.51 33.12 149.99
  C 33.11 139.49 33.46 128.57 37.13 119.76
  C 42.62 106.57 51.66 98.88 63.88 91.86
  Q 117.15 61.25 164.81 33.88
  Q 179.54 25.42 184.86 23.96
  Q 199.56 19.91 215.22 24.01
  Q 221.21 25.58 236.40 34.54
  Q 250.56 42.91 337.90 92.80
  Q 366.71 109.26 366.82 142.49
  Q 366.94 182.83 366.84 266.26
  C 366.82 283.35 357.77 300.37 345.57 311.87
  Q 341.25 315.93 328.40 323.29
  Q 296.02 341.85 241.18 373.96
  Q 239.18 375.13 234.57 376.69
  C 220.58 381.40 209.91 373.32 207.70 359.21
  Q 207.26 356.41 207.27 352.76
  Q 207.34 335.90 207.28 241.59
  Q 207.27 231.72 208.46 226.38
  Q 213.02 206.03 228.07 191.19
  Q 233.09 186.24 248.05 177.22
  Q 262.97 168.21 332.30 125.03
  Q 336.26 122.56 338.08 120.37
  C 342.81 114.67 341.19 107.63 335.92 103.03
  Q 334.72 101.99 328.93 98.67
  Q 242.71 49.24 226.28 39.74
  Q 220.93 36.65 218.70 35.58
  Q 204.41 28.77 188.69 32.75
  Q 183.58 34.05 174.00 39.56
  Q 116.04 72.93 74.62 96.66
  Q 61.80 104.01 59.39 105.96
  Q 52.39 111.62 48.02 119.66
  A 0.34 0.34 0.0 0 0 48.37 120.16
  Z
  M 43.01 186.38
  L 43.01 231.03
  A 2.50 2.49 -74.3 0 0 44.20 233.16
  Q 81.20 255.84 168.23 309.51
  Q 170.44 310.87 170.88 312.82
  C 171.33 314.84 169.79 317.11 167.67 317.44
  Q 165.73 317.75 163.74 316.52
  Q 90.61 271.43 43.69 242.55
  A 0.45 0.45 0.0 0 0 43.01 242.93
  Q 43.03 260.94 42.98 263.52
  Q 42.81 271.93 44.17 276.90
  C 47.90 290.59 56.32 303.46 68.71 310.53
  Q 74.21 313.67 163.76 365.75
  C 169.09 368.85 175.74 370.62 180.19 364.93
  Q 182.93 361.43 182.94 356.73
  Q 183.03 318.56 182.99 238.50
  Q 182.99 232.53 182.47 229.55
  C 180.12 216.18 170.93 200.29 159.24 193.03
  Q 85.14 147.03 62.67 133.06
  C 57.88 130.09 51.21 126.93 46.61 131.66
  Q 43.20 135.15 43.13 139.89
  Q 42.88 155.75 43.05 175.52
  A 1.03 1.02 15.9 0 0 43.54 176.39
  Q 116.98 221.65 167.04 252.46
  C 172.95 256.10 168.50 263.19 162.98 259.79
  Q 97.80 219.60 43.44 186.14
  A 0.28 0.28 0.0 0 0 43.01 186.38
  Z"
/>
<path fill="#2a2773" d="
  M 223.59 141.42
  Q 214.41 135.79 203.52 129.30
  Q 202.65 128.78 202.21 128.21
  A 1.45 1.44 50.1 0 1 202.38 126.27
  C 205.82 123.11 210.80 119.10 215.69 122.10
  Q 224.40 127.43 229.81 130.74
  Q 238.99 136.37 249.88 142.85
  Q 250.75 143.38 251.19 143.95
  A 1.45 1.44 50.1 0 1 251.02 145.89
  C 247.58 149.05 242.60 153.06 237.71 150.06
  Q 229.00 144.73 223.59 141.42
  Z"
/>
<path fill="#ffffff" d="
  M 43.01 186.38
  A 0.28 0.28 0.0 0 1 43.44 186.14
  Q 97.80 219.60 162.98 259.79
  C 168.50 263.19 172.95 256.10 167.04 252.46
  Q 116.98 221.65 43.54 176.39
  A 1.03 1.02 15.9 0 1 43.05 175.52
  Q 42.88 155.75 43.13 139.89
  Q 43.20 135.15 46.61 131.66
  C 51.21 126.93 57.88 130.09 62.67 133.06
  Q 85.14 147.03 159.24 193.03
  C 170.93 200.29 180.12 216.18 182.47 229.55
  Q 182.99 232.53 182.99 238.50
  Q 183.03 318.56 182.94 356.73
  Q 182.93 361.43 180.19 364.93
  C 175.74 370.62 169.09 368.85 163.76 365.75
  Q 74.21 313.67 68.71 310.53
  C 56.32 303.46 47.90 290.59 44.17 276.90
  Q 42.81 271.93 42.98 263.52
  Q 43.03 260.94 43.01 242.93
  A 0.45 0.45 0.0 0 1 43.69 242.55
  Q 90.61 271.43 163.74 316.52
  Q 165.73 317.75 167.67 317.44
  C 169.79 317.11 171.33 314.84 170.88 312.82
  Q 170.44 310.87 168.23 309.51
  Q 81.20 255.84 44.20 233.16
  A 2.50 2.49 -74.3 0 1 43.01 231.03
  L 43.01 186.38
  Z
  M 64.28 171.34
  Q 69.59 174.82 75.59 178.79
  A 2.78 2.77 39.8 0 0 79.04 178.48
  Q 79.47 178.07 79.69 176.41
  Q 80.26 172.02 80.35 169.17
  C 80.52 164.08 76.46 162.11 72.30 159.38
  Q 66.99 155.91 60.99 151.94
  A 2.78 2.77 39.8 0 0 57.54 152.25
  Q 57.11 152.66 56.89 154.32
  Q 56.32 158.71 56.22 161.56
  C 56.06 166.65 60.12 168.62 64.28 171.34
  Z
  M 111.46 201.90
  Q 116.44 205.33 118.42 206.32
  A 1.53 1.53 0.0 0 0 120.63 205.08
  L 121.27 197.28
  A 4.13 4.12 -66.1 0 0 119.98 193.91
  Q 119.15 193.14 117.79 192.20
  Q 112.82 188.76 110.83 187.78
  A 1.53 1.53 0.0 0 0 108.62 189.02
  L 107.98 196.82
  A 4.13 4.12 -66.1 0 0 109.28 200.18
  Q 110.10 200.95 111.46 201.90
  Z
  M 137.94 205.56
  Q 132.92 202.17 130.91 201.20
  A 1.54 1.54 0.0 0 0 128.71 202.47
  L 128.15 210.30
  A 4.15 4.13 -66.7 0 0 129.49 213.67
  Q 130.32 214.43 131.71 215.36
  Q 136.73 218.76 138.73 219.73
  A 1.54 1.54 0.0 0 0 140.93 218.46
  L 141.49 210.62
  A 4.15 4.13 -66.7 0 0 140.16 207.26
  Q 139.33 206.50 137.94 205.56
  Z
  M 64.29 229.92
  Q 69.60 233.40 75.61 237.38
  A 2.78 2.77 39.8 0 0 79.07 237.07
  Q 79.50 236.66 79.72 234.99
  Q 80.29 230.60 80.39 227.75
  C 80.55 222.64 76.48 220.67 72.32 217.94
  Q 67.00 214.46 61.00 210.49
  A 2.78 2.77 39.8 0 0 57.54 210.79
  Q 57.11 211.20 56.89 212.87
  Q 56.32 217.26 56.22 220.12
  C 56.05 225.22 60.13 227.19 64.29 229.92
  Z
  M 158.02 218.99
  Q 153.06 215.57 151.08 214.59
  A 1.53 1.52 15.6 0 0 148.89 215.83
  L 148.26 223.59
  A 4.11 4.10 -66.2 0 0 149.55 226.94
  Q 150.37 227.71 151.73 228.65
  Q 156.68 232.07 158.66 233.05
  A 1.53 1.52 15.6 0 0 160.86 231.81
  L 161.49 224.04
  A 4.11 4.10 -66.2 0 0 160.20 220.69
  Q 159.38 219.93 158.02 218.99
  Z
  M 111.51 260.57
  Q 116.49 263.97 118.48 264.95
  A 1.53 1.53 0.0 0 0 120.68 263.70
  L 121.28 255.90
  A 4.13 4.11 -66.4 0 0 119.97 252.55
  Q 119.14 251.78 117.77 250.85
  Q 112.79 247.44 110.80 246.47
  A 1.53 1.53 0.0 0 0 108.60 247.72
  L 108.00 255.51
  A 4.13 4.11 -66.4 0 0 109.32 258.87
  Q 110.14 259.63 111.51 260.57
  Z
  M 137.98 264.19
  Q 132.96 260.82 130.95 259.85
  A 1.53 1.53 0.0 0 0 128.76 261.12
  L 128.21 268.94
  A 4.14 4.13 -66.8 0 0 129.55 272.29
  Q 130.38 273.05 131.77 273.98
  Q 136.79 277.36 138.79 278.33
  A 1.53 1.53 0.0 0 0 140.98 277.06
  L 141.53 269.24
  A 4.14 4.13 -66.8 0 0 140.19 265.88
  Q 139.36 265.12 137.98 264.19
  Z
  M 64.27 288.46
  Q 69.57 291.93 75.58 295.89
  A 2.78 2.76 39.7 0 0 79.03 295.58
  Q 79.46 295.17 79.67 293.50
  Q 80.24 289.12 80.33 286.28
  C 80.49 281.18 76.42 279.22 72.26 276.50
  Q 66.95 273.03 60.95 269.07
  A 2.78 2.76 39.7 0 0 57.50 269.39
  Q 57.07 269.80 56.85 271.46
  Q 56.29 275.85 56.20 278.69
  C 56.04 283.79 60.10 285.75 64.27 288.46
  Z
  M 158.07 277.61
  Q 153.10 274.17 151.12 273.18
  A 1.53 1.53 0.0 0 0 148.91 274.41
  L 148.25 282.21
  A 4.13 4.12 -66.0 0 0 149.53 285.58
  Q 150.35 286.35 151.72 287.30
  Q 156.68 290.75 158.66 291.74
  A 1.53 1.53 0.0 0 0 160.87 290.51
  L 161.53 282.71
  A 4.13 4.12 -66.0 0 0 160.25 279.34
  Q 159.43 278.57 158.07 277.61
  Z
  M 111.46 319.03
  Q 116.42 322.47 118.40 323.46
  A 1.53 1.53 0.0 0 0 120.61 322.23
  L 121.26 314.44
  A 4.13 4.11 -66.0 0 0 119.98 311.08
  Q 119.16 310.31 117.80 309.36
  Q 112.84 305.92 110.86 304.93
  A 1.53 1.53 0.0 0 0 108.66 306.16
  L 108.00 313.95
  A 4.13 4.11 -66.0 0 0 109.28 317.31
  Q 110.10 318.08 111.46 319.03
  Z
  M 131.69 332.49
  Q 136.69 335.89 138.69 336.87
  A 1.53 1.53 0.0 0 0 140.89 335.61
  L 141.47 327.80
  A 4.14 4.12 -66.5 0 0 140.16 324.43
  Q 139.33 323.67 137.95 322.73
  Q 132.95 319.33 130.95 318.35
  A 1.53 1.53 0.0 0 0 128.75 319.61
  L 128.17 327.42
  A 4.14 4.12 -66.5 0 0 129.49 330.79
  Q 130.31 331.55 131.69 332.49
  Z
  M 157.94 336.08
  Q 153.02 332.70 151.06 331.73
  A 1.51 1.51 0.0 0 0 148.88 332.96
  L 148.26 340.67
  A 4.08 4.07 -66.2 0 0 149.55 343.99
  Q 150.36 344.75 151.72 345.68
  Q 156.63 349.06 158.60 350.04
  A 1.51 1.51 0.0 0 0 160.77 348.81
  L 161.39 341.10
  A 4.08 4.07 -66.2 0 0 160.10 337.78
  Q 159.29 337.02 157.94 336.08
  Z"
/>
<path fill="#2a2773" d="
  M 231.81 159.46
  L 224.04 163.95
  A 2.24 2.24 0.0 0 1 221.77 163.93
  L 184.39 141.49
  A 2.24 2.24 0.0 0 1 184.43 137.63
  L 192.19 133.15
  A 2.24 2.24 0.0 0 1 194.46 133.17
  L 231.84 155.60
  A 2.24 2.24 0.0 0 1 231.81 159.46
  Z"
/>
<path fill="#2a2773" d="
  M 186.48 166.37
  Q 177.31 160.74 166.43 154.25
  Q 165.55 153.73 165.11 153.16
  A 1.45 1.44 50.1 0 1 165.28 151.22
  C 168.72 148.06 173.70 144.05 178.59 147.05
  Q 187.30 152.38 192.70 155.70
  Q 201.88 161.32 212.75 167.81
  Q 213.63 168.34 214.07 168.91
  A 1.45 1.44 50.1 0 1 213.90 170.85
  C 210.46 174.00 205.48 178.01 200.59 175.01
  Q 191.89 169.68 186.48 166.37
  Z"
/>
<path fill="#1cbfee" d="
  M 64.28 171.34
  C 60.12 168.62 56.06 166.65 56.22 161.56
  Q 56.32 158.71 56.89 154.32
  Q 57.11 152.66 57.54 152.25
  A 2.78 2.77 39.8 0 1 60.99 151.94
  Q 66.99 155.91 72.30 159.38
  C 76.46 162.11 80.52 164.08 80.35 169.17
  Q 80.26 172.02 79.69 176.41
  Q 79.47 178.07 79.04 178.48
  A 2.78 2.77 39.8 0 1 75.59 178.79
  Q 69.59 174.82 64.28 171.34
  Z"
/>
<path fill="#d5298e" d="
  M 117.79 192.20
  Q 119.15 193.14 119.98 193.91
  A 4.13 4.12 -66.1 0 1 121.27 197.28
  L 120.63 205.08
  A 1.53 1.53 0.0 0 1 118.42 206.32
  Q 116.44 205.33 111.46 201.90
  Q 110.10 200.95 109.28 200.18
  A 4.13 4.12 -66.1 0 1 107.98 196.82
  L 108.62 189.02
  A 1.53 1.53 0.0 0 1 110.83 187.78
  Q 112.82 188.76 117.79 192.20
  Z"
/>
<path fill="#d5298e" d="
  M 137.94 205.56
  Q 139.33 206.50 140.16 207.26
  A 4.15 4.13 -66.7 0 1 141.49 210.62
  L 140.93 218.46
  A 1.54 1.54 0.0 0 1 138.73 219.73
  Q 136.73 218.76 131.71 215.36
  Q 130.32 214.43 129.49 213.67
  A 4.15 4.13 -66.7 0 1 128.15 210.30
  L 128.71 202.47
  A 1.54 1.54 0.0 0 1 130.91 201.20
  Q 132.92 202.17 137.94 205.56
  Z"
/>
<path fill="#1cbfee" d="
  M 72.32 217.94
  C 76.48 220.67 80.55 222.64 80.39 227.75
  Q 80.29 230.60 79.72 234.99
  Q 79.50 236.66 79.07 237.07
  A 2.78 2.77 39.8 0 1 75.61 237.38
  Q 69.60 233.40 64.29 229.92
  C 60.13 227.19 56.05 225.22 56.22 220.12
  Q 56.32 217.26 56.89 212.87
  Q 57.11 211.20 57.54 210.79
  A 2.78 2.77 39.8 0 1 61.00 210.49
  Q 67.00 214.46 72.32 217.94
  Z"
/>
<path fill="#d5298e" d="
  M 158.02 218.99
  Q 159.38 219.93 160.20 220.69
  A 4.11 4.10 -66.2 0 1 161.49 224.04
  L 160.86 231.81
  A 1.53 1.52 15.6 0 1 158.66 233.05
  Q 156.68 232.07 151.73 228.65
  Q 150.37 227.71 149.55 226.94
  A 4.11 4.10 -66.2 0 1 148.26 223.59
  L 148.89 215.83
  A 1.53 1.52 15.6 0 1 151.08 214.59
  Q 153.06 215.57 158.02 218.99
  Z"
/>
<path fill="#d5298e" d="
  M 111.51 260.57
  Q 110.14 259.63 109.32 258.87
  A 4.13 4.11 -66.4 0 1 108.00 255.51
  L 108.60 247.72
  A 1.53 1.53 0.0 0 1 110.80 246.47
  Q 112.79 247.44 117.77 250.85
  Q 119.14 251.78 119.97 252.55
  A 4.13 4.11 -66.4 0 1 121.28 255.90
  L 120.68 263.70
  A 1.53 1.53 0.0 0 1 118.48 264.95
  Q 116.49 263.97 111.51 260.57
  Z"
/>
<path fill="#d5298e" d="
  M 137.98 264.19
  Q 139.36 265.12 140.19 265.88
  A 4.14 4.13 -66.8 0 1 141.53 269.24
  L 140.98 277.06
  A 1.53 1.53 0.0 0 1 138.79 278.33
  Q 136.79 277.36 131.77 273.98
  Q 130.38 273.05 129.55 272.29
  A 4.14 4.13 -66.8 0 1 128.21 268.94
  L 128.76 261.12
  A 1.53 1.53 0.0 0 1 130.95 259.85
  Q 132.96 260.82 137.98 264.19
  Z"
/>
<path fill="#1cbfee" d="
  M 64.27 288.46
  C 60.10 285.75 56.04 283.79 56.20 278.69
  Q 56.29 275.85 56.85 271.46
  Q 57.07 269.80 57.50 269.39
  A 2.78 2.76 39.7 0 1 60.95 269.07
  Q 66.95 273.03 72.26 276.50
  C 76.42 279.22 80.49 281.18 80.33 286.28
  Q 80.24 289.12 79.67 293.50
  Q 79.46 295.17 79.03 295.58
  A 2.78 2.76 39.7 0 1 75.58 295.89
  Q 69.57 291.93 64.27 288.46
  Z"
/>
<path fill="#d5298e" d="
  M 158.07 277.61
  Q 159.43 278.57 160.25 279.34
  A 4.13 4.12 -66.0 0 1 161.53 282.71
  L 160.87 290.51
  A 1.53 1.53 0.0 0 1 158.66 291.74
  Q 156.68 290.75 151.72 287.30
  Q 150.35 286.35 149.53 285.58
  A 4.13 4.12 -66.0 0 1 148.25 282.21
  L 148.91 274.41
  A 1.53 1.53 0.0 0 1 151.12 273.18
  Q 153.10 274.17 158.07 277.61
  Z"
/>
<path fill="#d5298e" d="
  M 111.46 319.03
  Q 110.10 318.08 109.28 317.31
  A 4.13 4.11 -66.0 0 1 108.00 313.95
  L 108.66 306.16
  A 1.53 1.53 0.0 0 1 110.86 304.93
  Q 112.84 305.92 117.80 309.36
  Q 119.16 310.31 119.98 311.08
  A 4.13 4.11 -66.0 0 1 121.26 314.44
  L 120.61 322.23
  A 1.53 1.53 0.0 0 1 118.40 323.46
  Q 116.42 322.47 111.46 319.03
  Z"
/>
<path fill="#d5298e" d="
  M 131.69 332.49
  Q 130.31 331.55 129.49 330.79
  A 4.14 4.12 -66.5 0 1 128.17 327.42
  L 128.75 319.61
  A 1.53 1.53 0.0 0 1 130.95 318.35
  Q 132.95 319.33 137.95 322.73
  Q 139.33 323.67 140.16 324.43
  A 4.14 4.12 -66.5 0 1 141.47 327.80
  L 140.89 335.61
  A 1.53 1.53 0.0 0 1 138.69 336.87
  Q 136.69 335.89 131.69 332.49
  Z"
/>
<path fill="#d5298e" d="
  M 157.94 336.08
  Q 159.29 337.02 160.10 337.78
  A 4.08 4.07 -66.2 0 1 161.39 341.10
  L 160.77 348.81
  A 1.51 1.51 0.0 0 1 158.60 350.04
  Q 156.63 349.06 151.72 345.68
  Q 150.36 344.75 149.55 343.99
  A 4.08 4.07 -66.2 0 1 148.26 340.67
  L 148.88 332.96
  A 1.51 1.51 0.0 0 1 151.06 331.73
  Q 153.02 332.70 157.94 336.08
  Z"
/>
</svg>
