<?xml version="1.0" encoding="UTF-8" standalone="no"?>
<!DOCTYPE svg PUBLIC "-//W3C//DTD SVG 1.1//EN" "http://www.w3.org/Graphics/SVG/1.1/DTD/svg11.dtd">
<svg xmlns="http://www.w3.org/2000/svg" version="1.1" viewBox="0.00 0.00 196.00 196.00">
<g stroke-width="2.00" fill="none" stroke-linecap="butt">
<path stroke="#fda99d" vector-effect="non-scaling-stroke" d="
  M 143.72 60.50
  A 9.40 9.40 0.0 0 0 134.32 51.10
  L 133.88 51.10
  A 9.40 9.40 0.0 0 0 124.48 60.50
  L 124.48 130.58
  A 9.40 9.40 0.0 0 0 133.88 139.98
  L 134.32 139.98
  A 9.40 9.40 0.0 0 0 143.72 130.58
  L 143.72 60.50"
/>
<path stroke="#fda99d" vector-effect="non-scaling-stroke" d="
  M 107.2637 87.1266
  A 9.29 9.29 0.0 0 0 97.9413 77.8691
  L 97.3013 77.8713
  A 9.29 9.29 0.0 0 0 88.0438 87.1937
  L 88.1963 130.8934
  A 9.29 9.29 0.0 0 0 97.5187 140.1509
  L 98.1587 140.1487
  A 9.29 9.29 0.0 0 0 107.4162 130.8263
  L 107.2637 87.1266"
/>
<path stroke="#fda99d" vector-effect="non-scaling-stroke" d="
  M 71.0684 108.9332
  A 9.06 9.06 0.0 0 0 62.0401 99.8417
  L 61.1601 99.8386
  A 9.06 9.06 0.0 0 0 52.0686 108.8669
  L 51.9916 130.9268
  A 9.06 9.06 0.0 0 0 61.0199 140.0183
  L 61.8999 140.0214
  A 9.06 9.06 0.0 0 0 70.9914 130.9931
  L 71.0684 108.9332"
/>
</g>
<path fill="#fb523b" d="
  M 196.00 0.00
  L 196.00 196.00
  L 0.00 196.00
  L 0.00 0.00
  L 196.00 0.00
  Z
  M 143.72 60.50
  A 9.40 9.40 0.0 0 0 134.32 51.10
  L 133.88 51.10
  A 9.40 9.40 0.0 0 0 124.48 60.50
  L 124.48 130.58
  A 9.40 9.40 0.0 0 0 133.88 139.98
  L 134.32 139.98
  A 9.40 9.40 0.0 0 0 143.72 130.58
  L 143.72 60.50
  Z
  M 107.2637 87.1266
  A 9.29 9.29 0.0 0 0 97.9413 77.8691
  L 97.3013 77.8713
  A 9.29 9.29 0.0 0 0 88.0438 87.1937
  L 88.1963 130.8934
  A 9.29 9.29 0.0 0 0 97.5187 140.1509
  L 98.1587 140.1487
  A 9.29 9.29 0.0 0 0 107.4162 130.8263
  L 107.2637 87.1266
  Z
  M 71.0684 108.9332
  A 9.06 9.06 0.0 0 0 62.0401 99.8417
  L 61.1601 99.8386
  A 9.06 9.06 0.0 0 0 52.0686 108.8669
  L 51.9916 130.9268
  A 9.06 9.06 0.0 0 0 61.0199 140.0183
  L 61.8999 140.0214
  A 9.06 9.06 0.0 0 0 70.9914 130.9931
  L 71.0684 108.9332
  Z"
/>
<rect fill="#ffffff" x="124.48" y="51.10" width="19.24" height="88.88" rx="9.40"/>
<rect fill="#ffffff" x="-9.61" y="-31.14" transform="translate(97.73,109.01) rotate(-0.2)" width="19.22" height="62.28" rx="9.29"/>
<rect fill="#ffffff" x="-9.50" y="-20.09" transform="translate(61.53,119.93) rotate(0.2)" width="19.00" height="40.18" rx="9.06"/>
</svg>
