<?xml version="1.0" encoding="UTF-8" standalone="no"?>
<!DOCTYPE svg PUBLIC "-//W3C//DTD SVG 1.1//EN" "http://www.w3.org/Graphics/SVG/1.1/DTD/svg11.dtd">
<svg xmlns="http://www.w3.org/2000/svg" version="1.1" viewBox="0.00 0.00 400.00 400.00">
<g stroke-width="2.00" fill="none" stroke-linecap="butt">
<path stroke="#808080" vector-effect="non-scaling-stroke" d="
  M 215.94 249.53
  A 0.37 0.37 0.0 0 0 216.31 249.16
  L 216.31 221.42
  A 0.60 0.60 0.0 0 0 215.70 220.82
  Q 196.95 221.12 194.50 221.16
  Q 183.13 221.33 180.40 220.65
  Q 166.48 217.16 162.12 205.26
  Q 160.59 201.08 160.57 188.54
  Q 160.48 141.29 160.63 92.22
  C 160.66 81.26 165.93 72.52 176.10 68.34
  Q 180.58 66.49 191.67 66.60
  Q 205.87 66.73 210.27 66.61
  Q 221.10 66.32 226.50 68.43
  Q 236.05 72.16 240.12 81.88
  C 241.60 85.42 241.92 89.59 241.91 93.50
  Q 241.88 123.73 241.95 143.03
  A 0.77 0.76 90.0 0 0 242.71 143.80
  L 267.75 143.80
  A 0.64 0.63 -88.1 0 0 268.38 143.20
  Q 269.84 118.45 269.79 96.01
  Q 269.76 86.59 269.23 83.00
  C 266.12 61.86 252.31 46.69 232.01 40.59
  Q 225.07 38.51 214.19 38.51
  Q 208.01 38.51 191.58 38.44
  Q 177.85 38.38 170.61 40.60
  C 147.99 47.55 132.82 66.62 132.59 90.28
  Q 132.12 138.94 132.53 191.56
  Q 132.63 204.27 134.20 210.28
  C 138.85 228.09 153.45 243.61 171.74 247.30
  C 186.06 250.19 199.32 249.51 215.94 249.53"
/>
<path stroke="#808080" vector-effect="non-scaling-stroke" d="
  M 160.25 262.95
  L 133.19 262.95
  A 0.32 0.32 0.0 0 0 132.87 263.27
  Q 132.60 284.36 132.45 303.91
  Q 132.33 321.28 134.30 328.43
  C 139.14 345.91 152.10 358.95 169.64 364.66
  Q 176.92 367.03 188.91 367.12
  Q 202.01 367.23 215.14 367.07
  Q 225.77 366.94 232.73 364.70
  C 251.86 358.54 265.29 343.64 269.18 324.12
  Q 270.13 319.33 270.14 299.83
  Q 270.17 244.66 270.08 213.97
  Q 270.05 203.52 269.05 198.61
  C 264.79 177.84 249.59 162.53 229.14 157.79
  C 222.18 156.18 213.29 156.21 206.00 156.47
  Q 190.88 157.02 186.60 157.12
  A 0.53 0.53 0.0 0 0 186.08 157.65
  L 186.08 184.31
  A 0.32 0.32 0.0 0 0 186.40 184.63
  Q 203.60 184.39 216.49 184.43
  C 227.40 184.46 236.83 190.28 240.63 200.62
  Q 241.89 204.05 241.90 214.56
  Q 241.99 272.24 241.86 311.13
  Q 241.84 318.84 240.88 321.79
  C 237.57 331.88 228.87 338.44 218.25 338.78
  Q 203.56 339.25 187.99 338.86
  Q 179.61 338.65 174.07 335.95
  C 165.92 331.98 160.80 324.72 160.71 315.94
  Q 160.49 296.38 160.89 263.59
  A 0.64 0.64 0.0 0 0 160.25 262.95"
/>
</g>
<path fill="#ffffff" d="
  M 400.00 0.00
  L 400.00 400.00
  L 0.00 400.00
  L 0.00 0.00
  L 400.00 0.00
  Z
  M 215.94 249.53
  A 0.37 0.37 0.0 0 0 216.31 249.16
  L 216.31 221.42
  A 0.60 0.60 0.0 0 0 215.70 220.82
  Q 196.95 221.12 194.50 221.16
  Q 183.13 221.33 180.40 220.65
  Q 166.48 217.16 162.12 205.26
  Q 160.59 201.08 160.57 188.54
  Q 160.48 141.29 160.63 92.22
  C 160.66 81.26 165.93 72.52 176.10 68.34
  Q 180.58 66.49 191.67 66.60
  Q 205.87 66.73 210.27 66.61
  Q 221.10 66.32 226.50 68.43
  Q 236.05 72.16 240.12 81.88
  C 241.60 85.42 241.92 89.59 241.91 93.50
  Q 241.88 123.73 241.95 143.03
  A 0.77 0.76 90.0 0 0 242.71 143.80
  L 267.75 143.80
  A 0.64 0.63 -88.1 0 0 268.38 143.20
  Q 269.84 118.45 269.79 96.01
  Q 269.76 86.59 269.23 83.00
  C 266.12 61.86 252.31 46.69 232.01 40.59
  Q 225.07 38.51 214.19 38.51
  Q 208.01 38.51 191.58 38.44
  Q 177.85 38.38 170.61 40.60
  C 147.99 47.55 132.82 66.62 132.59 90.28
  Q 132.12 138.94 132.53 191.56
  Q 132.63 204.27 134.20 210.28
  C 138.85 228.09 153.45 243.61 171.74 247.30
  C 186.06 250.19 199.32 249.51 215.94 249.53
  Z
  M 160.25 262.95
  L 133.19 262.95
  A 0.32 0.32 0.0 0 0 132.87 263.27
  Q 132.60 284.36 132.45 303.91
  Q 132.33 321.28 134.30 328.43
  C 139.14 345.91 152.10 358.95 169.64 364.66
  Q 176.92 367.03 188.91 367.12
  Q 202.01 367.23 215.14 367.07
  Q 225.77 366.94 232.73 364.70
  C 251.86 358.54 265.29 343.64 269.18 324.12
  Q 270.13 319.33 270.14 299.83
  Q 270.17 244.66 270.08 213.97
  Q 270.05 203.52 269.05 198.61
  C 264.79 177.84 249.59 162.53 229.14 157.79
  C 222.18 156.18 213.29 156.21 206.00 156.47
  Q 190.88 157.02 186.60 157.12
  A 0.53 0.53 0.0 0 0 186.08 157.65
  L 186.08 184.31
  A 0.32 0.32 0.0 0 0 186.40 184.63
  Q 203.60 184.39 216.49 184.43
  C 227.40 184.46 236.83 190.28 240.63 200.62
  Q 241.89 204.05 241.90 214.56
  Q 241.99 272.24 241.86 311.13
  Q 241.84 318.84 240.88 321.79
  C 237.57 331.88 228.87 338.44 218.25 338.78
  Q 203.56 339.25 187.99 338.86
  Q 179.61 338.65 174.07 335.95
  C 165.92 331.98 160.80 324.72 160.71 315.94
  Q 160.49 296.38 160.89 263.59
  A 0.64 0.64 0.0 0 0 160.25 262.95
  Z"
/>
<path fill="#000000" d="
  M 215.94 249.53
  C 199.32 249.51 186.06 250.19 171.74 247.30
  C 153.45 243.61 138.85 228.09 134.20 210.28
  Q 132.63 204.27 132.53 191.56
  Q 132.12 138.94 132.59 90.28
  C 132.82 66.62 147.99 47.55 170.61 40.60
  Q 177.85 38.38 191.58 38.44
  Q 208.01 38.51 214.19 38.51
  Q 225.07 38.51 232.01 40.59
  C 252.31 46.69 266.12 61.86 269.23 83.00
  Q 269.76 86.59 269.79 96.01
  Q 269.84 118.45 268.38 143.20
  A 0.64 0.63 -88.1 0 1 267.75 143.80
  L 242.71 143.80
  A 0.77 0.76 90.0 0 1 241.95 143.03
  Q 241.88 123.73 241.91 93.50
  C 241.92 89.59 241.60 85.42 240.12 81.88
  Q 236.05 72.16 226.50 68.43
  Q 221.10 66.32 210.27 66.61
  Q 205.87 66.73 191.67 66.60
  Q 180.58 66.49 176.10 68.34
  C 165.93 72.52 160.66 81.26 160.63 92.22
  Q 160.48 141.29 160.57 188.54
  Q 160.59 201.08 162.12 205.26
  Q 166.48 217.16 180.40 220.65
  Q 183.13 221.33 194.50 221.16
  Q 196.95 221.12 215.70 220.82
  A 0.60 0.60 0.0 0 1 216.31 221.42
  L 216.31 249.16
  A 0.37 0.37 0.0 0 1 215.94 249.53
  Z"
/>
<path fill="#000000" d="
  M 160.25 262.95
  A 0.64 0.64 0.0 0 1 160.89 263.59
  Q 160.49 296.38 160.71 315.94
  C 160.80 324.72 165.92 331.98 174.07 335.95
  Q 179.61 338.65 187.99 338.86
  Q 203.56 339.25 218.25 338.78
  C 228.87 338.44 237.57 331.88 240.88 321.79
  Q 241.84 318.84 241.86 311.13
  Q 241.99 272.24 241.90 214.56
  Q 241.89 204.05 240.63 200.62
  C 236.83 190.28 227.40 184.46 216.49 184.43
  Q 203.60 184.39 186.40 184.63
  A 0.32 0.32 0.0 0 1 186.08 184.31
  L 186.08 157.65
  A 0.53 0.53 0.0 0 1 186.60 157.12
  Q 190.88 157.02 206.00 156.47
  C 213.29 156.21 222.18 156.18 229.14 157.79
  C 249.59 162.53 264.79 177.84 269.05 198.61
  Q 270.05 203.52 270.08 213.97
  Q 270.17 244.66 270.14 299.83
  Q 270.13 319.33 269.18 324.12
  C 265.29 343.64 251.86 358.54 232.73 364.70
  Q 225.77 366.94 215.14 367.07
  Q 202.01 367.23 188.91 367.12
  Q 176.92 367.03 169.64 364.66
  C 152.10 358.95 139.14 345.91 134.30 328.43
  Q 132.33 321.28 132.45 303.91
  Q 132.60 284.36 132.87 263.27
  A 0.32 0.32 0.0 0 1 133.19 262.95
  L 160.25 262.95
  Z"
/>
</svg>
