<svg width="126" height="25" fill="none" xmlns="http://www.w3.org/2000/svg">
  <path d="M17.9 18c0 .7-.3 1.3-1 1.7-.5.4-1.3.5-2.3.5-1.3 0-2.2-.3-3-.8a3 3 0 01-1.1-2.2l-6-.2c0 1.5.4 2.9 1.3 4 .9 1.3 2 2.2 3.6 3l2.6.7h.1H0V1.4h12c-.9.2-1.7.4-2.5.8a7.7 7.7 0 00-3.2 2.6A6.3 6.3 0 005 8.5c0 1.5.3 2.7 1 3.7.6.9 1.4 1.6 2.4 2 1 .5 2.3.9 4 1.2a60.3 60.3 0 015 1.5c.2.3.4.6.4 1.1z" fill="#1FB07E"/>
  <path d="M41.6 15.5v9.2h-5.8v-9a5 5 0 00-.6-2.8c-.5-.7-1.2-1-2.2-1-1 0-1.8.3-2.3 1-.6.7-.8 1.6-.8 2.9v9H16.8c1-.2 1.8-.5 2.6-.9a8 8 0 003.4-2.8 6.8 6.8 0 001.3-4 6 6 0 00-1-3.5 5.9 5.9 0 00-2.5-2 20 20 0 00-4-1.1l-3.3-.8-1.6-.6c-.3-.3-.5-.7-.5-1.1 0-.7.3-1.2.9-1.6.5-.4 1.2-.5 2-.5 1.1 0 1.9.2 2.5.7.6.5.9 1.2 1 2h6c0-1.4-.5-2.7-1.3-3.8A8 8 0 0019 2.1l-2.5-.8h13.4v8c.6-.7 1.2-1.2 2-1.5a7 7 0 012.8-.5c2 0 3.6.6 5 1.9 1.2 1.2 2 3.3 2 6.3zM61.2 11.5A8 8 0 0058 8.4c-1.4-.8-3.1-1.1-5-1.1s-3.6.3-5 1a7.7 7.7 0 00-3.2 3.2 9.3 9.3 0 00-1.2 4.6c0 1.8.4 3.3 1.2 4.7a8 8 0 003.2 3c1.4.8 3.1 1.1 5 1.1s3.6-.3 5-1a7.7 7.7 0 003.2-3.1 9 9 0 001.2-4.7c0-1.8-.4-3.3-1.2-4.6zm-5.6 7.7a3 3 0 01-2.6 1.1c-1.1 0-2-.4-2.6-1.1-.6-.8-1-1.8-1-3 0-1.4.3-2.4 1-3.2A3 3 0 0153 12c1 0 2 .4 2.6 1.1.6.8.9 1.8.9 3.1s-.3 2.3-1 3zM72.4 8.1a5 5 0 00-2 2V7.4h-5.7v17.2h5.8v-8.3c0-2.5 1.2-3.8 3.5-3.8h2.2V7.5h-.9a6 6 0 00-3 .6zM83.8 2.6H78v17c0 1.7.5 3 1.3 3.8 1 1 2.2 1.3 3.9 1.3h4.3V20h-2.1c-.6 0-1-.2-1.2-.4-.3-.2-.4-.6-.4-1.2v-6.1h3.7V7.5h-3.7V2.6zM92.8 18.4c-.9 0-1.7.3-2.3 1-.7.6-1 1.4-1 2.3 0 1 .3 1.7 1 2.4.6.6 1.4.9 2.3.9 1 0 1.8-.3 2.4-1 .6-.6 1-1.4 1-2.3 0-1-.4-1.7-1-2.4-.6-.6-1.4-.9-2.4-.9zM101.8 0c-1 0-1.7.3-2.3 1a3 3 0 00-1 2.2 3 3 0 001 2.2c.6.6 1.4 1 2.3 1 1 0 1.7-.4 2.3-1a3 3 0 001-2.2 3 3 0 00-1-2.3c-.6-.6-1.4-.9-2.3-.9zM104.6 7.5H99v17.2h5.7V7.5zM124.6 11.5a8 8 0 00-3.3-3.1c-1.4-.8-3-1.1-5-1.1-1.8 0-3.5.3-4.9 1a7.7 7.7 0 00-3.3 3.2A9 9 0 00107 16c0 1.8.4 3.3 1.1 4.7a8 8 0 003.3 3c1.4.8 3 1.1 5 1.1 1.9 0 3.5-.3 5-1a7.7 7.7 0 003.2-3.1 9.3 9.3 0 001.2-4.7c0-1.8-.4-3.3-1.2-4.6zm-5.7 7.7a3 3 0 01-2.6 1.1c-1 0-2-.4-2.5-1.1-.7-.8-1-1.8-1-3 0-1.4.3-2.4 1-3.2a3 3 0 012.5-1.1c1.2 0 2 .4 2.6 1.1.6.8 1 1.8 1 3.1s-.3 2.3-1 3z" fill="#383738"/>
</svg>
