<svg width="128" height="128" viewBox="0 0 128 128" fill="none" xmlns="http://www.w3.org/2000/svg">
<path d="M44.0419 5.9248L5.38068 44.586L44.0419 83.2475L82.7032 44.586L44.0419 5.9248Z" fill="url(#paint0_linear_58_8120)"/>
<path d="M82.7052 44.5859L44.0439 83.2474L82.7052 121.909L121.367 83.2474L82.7052 44.5859Z" fill="url(#paint1_linear_58_8120)"/>
<path d="M44.0427 5.92578L82.7032 44.5862L121.365 5.92578H44.0427Z" fill="url(#paint2_linear_58_8120)"/>
<path d="M44.0427 83.248L5.38068 121.909H82.7034L44.0427 83.248Z" fill="url(#paint3_linear_58_8120)"/>
<path d="M44.0427 83.248L5.38068 121.909H82.7034L44.0427 83.248Z" fill="url(#paint4_linear_58_8120)"/>
<defs>
<linearGradient id="paint0_linear_58_8120" x1="63.0941" y1="63.4488" x2="26.6086" y2="27.3274" gradientUnits="userSpaceOnUse">
<stop stop-color="#3B95C9"/>
<stop offset="1" stop-color="#59B1E3"/>
</linearGradient>
<linearGradient id="paint1_linear_58_8120" x1="66.1174" y1="65.8064" x2="101.508" y2="103.021" gradientUnits="userSpaceOnUse">
<stop stop-color="#59B1E3"/>
<stop offset="1" stop-color="#9BD0F0"/>
</linearGradient>
<linearGradient id="paint2_linear_58_8120" x1="114.84" y1="-2.26594" x2="42.4868" y2="36.425" gradientUnits="userSpaceOnUse">
<stop stop-color="#59B1E3"/>
<stop offset="1" stop-color="#9BD0F0"/>
</linearGradient>
<linearGradient id="paint3_linear_58_8120" x1="84.9806" y1="89.4624" x2="12.6388" y2="133.372" gradientUnits="userSpaceOnUse">
<stop stop-color="#59B1E3"/>
<stop offset="1" stop-color="#9BD0F0"/>
</linearGradient>
<linearGradient id="paint4_linear_58_8120" x1="63.1202" y1="102.502" x2="41.9587" y2="124.03" gradientUnits="userSpaceOnUse">
<stop stop-color="#3B95C9"/>
<stop offset="1" stop-color="#9BD0F0" stop-opacity="0"/>
</linearGradient>
</defs>
</svg>
