<?xml version="1.0" encoding="UTF-8" standalone="no"?>
<!DOCTYPE svg PUBLIC "-//W3C//DTD SVG 1.1//EN" "http://www.w3.org/Graphics/SVG/1.1/DTD/svg11.dtd">
<svg xmlns="http://www.w3.org/2000/svg" version="1.1" viewBox="0.00 0.00 400.00 400.00">
<g stroke-width="2.00" fill="none" stroke-linecap="butt">
<path stroke="#28292d" vector-effect="non-scaling-stroke" d="
  M 116.72 0.00
  Q 126.74 29.52 147.02 53.96
  Q 159.19 68.63 169.00 79.66
  C 177.95 89.72 184.90 99.79 179.75 113.54
  Q 176.93 121.08 173.91 125.80
  Q 171.67 129.32 164.38 138.56
  C 162.05 141.53 159.79 145.60 157.96 148.22
  C 152.41 156.19 140.52 170.78 131.44 182.74
  Q 124.76 191.53 122.92 193.42
  Q 117.53 198.96 115.75 203.04
  Q 113.97 207.11 111.66 216.50"
/>
<path stroke="#141517" vector-effect="non-scaling-stroke" d="
  M 111.66 216.50
  L 110.99 209.99"
/>
<path stroke="#1f1f24" vector-effect="non-scaling-stroke" d="
  M 110.99 209.99
  Q 112.79 204.82 115.13 201.65
  Q 119.55 195.68 129.71 183.45
  Q 131.21 181.64 133.27 178.03"
/>
<path stroke="#1f1f24" vector-effect="non-scaling-stroke" d="
  M 133.27 178.03
  C 138.50 172.78 143.76 165.55 146.20 162.42
  C 151.73 155.35 156.14 148.11 160.19 141.04
  C 164.69 133.18 166.72 124.82 162.34 116.47
  C 158.73 109.59 152.73 103.82 147.18 98.44
  C 137.74 89.31 131.73 82.74 120.79 71.02
  C 109.19 58.59 97.14 50.49 80.07 47.61
  Q 68.43 45.64 58.50 44.66
  C 37.55 42.60 20.11 41.32 0.00 36.47"
/>
<path stroke="#323337" vector-effect="non-scaling-stroke" d="
  M 187.81 0.00
  Q 190.08 15.13 194.64 29.68
  C 197.23 37.96 201.28 46.87 204.29 55.19
  C 208.64 67.25 207.53 76.34 203.40 88.38
  A 2.65 2.60 74.3 0 1 202.96 89.18
  L 194.88 98.99
  A 0.20 0.20 0.0 0 0 194.98 99.31
  L 195.91 99.59
  A 0.37 0.37 0.0 0 1 196.11 100.15
  C 189.48 109.85 182.06 118.56 176.14 126.82
  Q 167.58 138.75 155.58 152.82
  Q 153.98 154.70 147.61 164.65
  Q 145.67 167.67 135.16 180.21
  C 133.07 182.71 132.58 183.60 130.82 186.26
  A 22.23 22.09 84.3 0 1 128.04 189.68
  C 124.31 193.45 121.10 196.12 120.93 201.10"
/>
<path stroke="#888a8e" vector-effect="non-scaling-stroke" d="
  M 120.93 201.10
  C 116.52 206.14 110.85 211.85 113.62 219.23"
/>
<path stroke="#1a1a1c" vector-effect="non-scaling-stroke" d="
  M 113.62 219.23
  Q 112.24 218.80 111.66 216.50"
/>
<path stroke="#323337" vector-effect="non-scaling-stroke" d="
  M 325.07 0.00
  C 319.23 24.82 308.16 45.72 290.15 63.66
  C 277.24 76.51 261.08 83.42 244.93 90.58
  A 1.14 1.13 88.7 0 0 244.33 91.21
  L 233.38 119.32"
/>
<path stroke="#2c2d31" vector-effect="non-scaling-stroke" d="
  M 233.38 119.32
  L 231.78 122.96"
/>
<path stroke="#323337" vector-effect="non-scaling-stroke" d="
  M 231.78 122.96
  Q 229.07 127.85 224.89 131.00"
/>
<path stroke="#8c8e93" vector-effect="non-scaling-stroke" d="
  M 224.89 131.00
  Q 234.15 105.01 243.70 79.27
  Q 245.34 74.86 245.55 74.03
  C 246.67 69.67 245.57 64.49 241.07 62.68
  Q 237.56 61.26 234.69 62.44
  Q 230.58 64.13 229.38 65.63
  Q 175.28 133.45 120.93 201.10"
/>
<path stroke="#28292d" vector-effect="non-scaling-stroke" d="
  M 400.00 3.96
  Q 381.53 11.42 368.78 26.69
  C 361.90 34.93 354.73 44.47 348.81 51.08
  Q 330.67 71.34 308.10 87.82
  Q 293.47 98.51 276.22 103.56
  Q 272.40 104.68 255.50 109.46
  Q 245.77 112.21 233.38 119.32"
/>
<path stroke="#1f1f24" vector-effect="non-scaling-stroke" d="
  M 400.00 47.08
  C 395.06 52.32 390.03 57.75 384.89 62.46
  Q 360.47 84.83 333.31 103.52
  Q 307.78 121.08 277.44 126.69
  Q 269.11 128.23 245.87 131.69
  Q 242.14 132.25 228.00 135.55"
/>
<path stroke="#28292d" vector-effect="non-scaling-stroke" d="
  M 228.00 135.55
  L 231.78 122.96"
/>
<path stroke="#18181c" vector-effect="non-scaling-stroke" d="
  M 133.27 178.03
  Q 139.12 169.76 144.78 161.40
  C 152.05 150.66 157.15 139.03 146.26 128.43
  Q 135.49 117.95 123.50 109.31
  C 112.40 101.30 102.48 97.07 89.91 94.98
  Q 59.35 89.89 31.54 86.31
  Q 15.55 84.24 0.00 79.81"
/>
<path stroke="#18181c" vector-effect="non-scaling-stroke" d="
  M 400.00 123.28
  Q 385.25 129.03 370.23 134.11
  C 357.10 138.56 346.46 142.50 335.76 146.50
  C 321.60 151.78 307.81 155.98 295.09 160.12
  C 290.84 161.51 285.40 163.62 284.13 168.25
  A 0.80 0.77 -62.9 0 0 284.38 169.07
  L 288.50 172.46
  A 1.07 1.07 0.0 0 1 288.76 172.77
  Q 290.52 176.09 290.56 176.70
  Q 291.01 184.08 289.08 191.38"
/>
<path stroke="#111113" vector-effect="non-scaling-stroke" d="
  M 289.08 191.38
  C 283.68 197.02 278.38 203.96 273.79 209.04
  Q 267.21 216.34 262.07 223.02
  C 256.89 229.75 251.44 234.89 247.15 242.24
  A 7.45 7.43 83.6 0 1 245.80 243.94
  L 233.02 256.01"
/>
<path stroke="#7f8085" vector-effect="non-scaling-stroke" d="
  M 233.02 256.01
  L 261.13 220.73"
/>
<path stroke="#252529" vector-effect="non-scaling-stroke" d="
  M 261.13 220.73
  Q 263.50 218.95 264.20 218.11
  Q 270.84 210.02 282.83 196.08
  Q 287.76 190.35 288.62 183.21
  C 290.10 170.86 280.40 170.01 271.11 169.96
  C 259.27 169.91 249.84 170.86 239.03 170.07
  Q 230.78 169.47 216.51 169.17
  A 0.80 0.79 79.2 0 1 215.79 168.67
  Q 214.57 165.52 215.83 162.68
  Q 217.92 157.97 220.26 153.40
  C 222.43 149.14 224.83 141.33 228.00 135.55"
/>
<path stroke="#888a8e" vector-effect="non-scaling-stroke" d="
  M 224.89 131.00
  L 221.76 139.53"
/>
<path stroke="#8c8e93" vector-effect="non-scaling-stroke" d="
  M 221.76 139.53
  L 219.17 146.71"
/>
<path stroke="#888a8e" vector-effect="non-scaling-stroke" d="
  M 219.17 146.71
  L 213.91 160.72"
/>
<path stroke="#8c8e93" vector-effect="non-scaling-stroke" d="
  M 213.91 160.72
  L 208.82 175.74
  A 0.37 0.37 0.0 0 0 209.18 176.23
  Q 228.99 175.80 276.49 175.95
  Q 283.70 175.97 286.51 181.52"
/>
<path stroke="#888a8e" vector-effect="non-scaling-stroke" d="
  M 286.51 181.52
  C 287.73 186.38 286.13 189.34 282.99 193.24
  Q 271.99 206.93 261.13 220.73"
/>
<path stroke="#747678" vector-effect="non-scaling-stroke" d="
  M 233.02 256.01
  L 209.38 285.53"
/>
<path stroke="#c8cdd4" vector-effect="non-scaling-stroke" d="
  M 209.38 285.53
  Q 205.44 284.76 202.88 284.87
  Q 192.77 285.27 182.58 285.46
  Q 174.89 285.60 171.37 292.37
  Q 168.04 298.78 164.77 305.23
  Q 163.26 308.22 159.86 309.75"
/>
<path stroke="#888a8e" vector-effect="non-scaling-stroke" d="
  M 159.86 309.75
  L 167.49 288.99"
/>
<path stroke="#8c8e93" vector-effect="non-scaling-stroke" d="
  M 167.49 288.99
  L 171.61 277.81"
/>
<path stroke="#888a8e" vector-effect="non-scaling-stroke" d="
  M 171.61 277.81
  Q 181.39 251.46 191.09 225.07
  Q 191.27 224.59 191.18 224.30
  Q 191.02 223.74 190.45 223.75
  Q 184.60 223.81 178.72 223.67"
/>
<path stroke="#c8cdd4" vector-effect="non-scaling-stroke" d="
  M 178.72 223.67
  L 153.55 223.69"
/>
<path stroke="#747678" vector-effect="non-scaling-stroke" d="
  M 153.55 223.69
  Q 129.53 223.94 119.98 223.57
  Q 116.01 223.42 113.62 219.23"
/>
<path stroke="#18181c" vector-effect="non-scaling-stroke" d="
  M 133.27 178.03
  C 131.75 179.39 130.26 180.73 128.98 182.39
  Q 122.48 190.78 115.81 199.06
  Q 112.12 203.64 110.99 209.99"
/>
<path stroke="#0d0d0f" vector-effect="non-scaling-stroke" d="
  M 110.99 209.99
  Q 110.92 211.47 110.62 211.85
  A 1.12 1.12 0.0 0 1 108.66 210.85
  L 110.85 203.62
  A 4.61 4.42 -18.9 0 1 111.61 202.15
  Q 116.57 195.80 120.94 189.05
  C 126.97 179.72 125.49 172.84 113.49 171.47
  C 104.26 170.41 98.42 169.88 90.77 168.42
  Q 79.73 166.32 71.18 165.50
  Q 55.41 164.00 33.59 161.63
  Q 16.81 159.81 0.00 161.40"
/>
<path stroke="#323337" vector-effect="non-scaling-stroke" d="
  M 286.51 181.52
  Q 286.79 173.51 278.08 172.45
  Q 264.34 170.77 254.35 172.72
  C 251.16 173.35 248.03 173.22 244.87 172.68
  Q 242.76 172.32 237.74 172.11
  Q 225.90 171.61 214.21 171.87
  A 2.15 2.15 0.0 0 1 212.05 169.26
  L 213.91 160.72"
/>
<path stroke="#323337" vector-effect="non-scaling-stroke" d="
  M 219.17 146.71
  Q 221.46 143.53 221.76 139.53"
/>
<path stroke="#0d0d0f" vector-effect="non-scaling-stroke" d="
  M 400.00 174.72
  C 382.89 177.28 368.48 175.78 352.42 175.35
  Q 318.42 174.43 289.08 191.38"
/>
<path stroke="#5a5d62" vector-effect="non-scaling-stroke" d="
  M 153.55 223.69
  L 168.54 224.03"
/>
<path stroke="#1a1a1c" vector-effect="non-scaling-stroke" d="
  M 168.54 224.03
  Q 176.77 223.97 185.56 223.97
  A 1.09 1.09 0.0 0 1 186.65 225.05
  Q 186.65 225.70 186.10 226.47"
/>
<path stroke="#111113" vector-effect="non-scaling-stroke" d="
  M 186.10 226.47
  C 182.71 232.58 181.05 239.75 178.68 247.72"
/>
<path stroke="#111113" vector-effect="non-scaling-stroke" d="
  M 178.68 247.72
  C 176.06 253.66 173.70 261.55 172.11 265.96
  Q 167.08 279.84 162.40 293.85
  Q 160.64 299.13 159.30 304.55"
/>
<path stroke="#1a1a1c" vector-effect="non-scaling-stroke" d="
  M 159.30 304.55
  C 155.90 310.55 154.83 317.56 153.33 324.20
  Q 152.78 326.65 153.90 330.91"
/>
<path stroke="#5a5d62" vector-effect="non-scaling-stroke" d="
  M 153.90 330.91
  Q 154.87 336.58 159.48 337.73
  Q 165.90 339.34 170.36 333.89
  Q 190.02 309.84 209.38 285.53"
/>
<path stroke="#0d0d0f" vector-effect="non-scaling-stroke" d="
  M 170.10 265.76
  Q 168.93 268.00 168.47 269.48
  C 166.39 276.29 163.27 283.35 161.29 289.61
  Q 156.68 304.12 153.65 311.82
  Q 150.33 320.25 151.42 328.27
  A 0.31 0.31 0.0 0 0 151.74 328.54
  L 151.75 328.53
  A 0.33 0.33 0.0 0 0 152.07 328.20
  Q 152.11 321.34 153.52 315.01
  A 12.88 12.74 64.7 0 1 154.51 312.19
  C 155.76 309.64 157.23 307.07 158.17 303.87
  Q 160.97 294.40 165.55 282.02
  Q 168.28 274.66 170.10 265.76"
/>
<path stroke="#0d0d0f" vector-effect="non-scaling-stroke" d="
  M 170.10 265.76
  C 172.87 258.55 175.28 251.33 178.38 244.18
  Q 180.74 238.74 182.83 231.16
  A 0.27 0.27 0.0 0 0 182.65 230.83
  L 182.64 230.83
  A 0.28 0.27 -71.2 0 0 182.30 231.00
  Q 179.17 239.80 176.79 244.92
  Q 174.82 249.15 173.52 253.28
  C 172.65 256.02 170.53 261.12 170.10 265.76"
/>
<path stroke="#6e7178" vector-effect="non-scaling-stroke" d="
  M 178.72 223.67
  L 168.54 224.03"
/>
<path stroke="#323337" vector-effect="non-scaling-stroke" d="
  M 171.61 277.81
  Q 167.53 282.77 167.49 288.99"
/>
<path stroke="#6e7178" vector-effect="non-scaling-stroke" d="
  M 159.86 309.75
  Q 157.53 315.92 155.34 322.10
  Q 153.56 327.09 153.90 330.91"
/>
<path stroke="#252529" vector-effect="non-scaling-stroke" d="
  M 159.30 304.55
  L 161.52 299.30"
/>
<path stroke="#28292d" vector-effect="non-scaling-stroke" d="
  M 161.52 299.30
  L 164.38 292.27"
/>
<path stroke="#252529" vector-effect="non-scaling-stroke" d="
  M 164.38 292.27
  L 173.83 264.77"
/>
<path stroke="#28292d" vector-effect="non-scaling-stroke" d="
  M 173.83 264.77
  L 178.03 251.78"
/>
<path stroke="#252529" vector-effect="non-scaling-stroke" d="
  M 178.03 251.78
  Q 178.14 251.78 178.24 251.79"
/>
<path stroke="#28292d" vector-effect="non-scaling-stroke" d="
  M 178.24 251.79
  L 180.66 245.95"
/>
<path stroke="#252529" vector-effect="non-scaling-stroke" d="
  M 180.66 245.95
  L 186.10 226.47"
/>
<path stroke="#1f1f24" vector-effect="non-scaling-stroke" d="
  M 180.66 245.95
  Q 179.47 246.52 178.68 247.72"
/>
<path stroke="#1f1f24" vector-effect="non-scaling-stroke" d="
  M 178.24 251.79
  L 178.68 247.72"
/>
<path stroke="#1f1f24" vector-effect="non-scaling-stroke" d="
  M 178.03 251.78
  Q 175.27 258.03 173.83 264.77"
/>
<path stroke="#1f1f24" vector-effect="non-scaling-stroke" d="
  M 164.38 292.27
  L 161.52 299.30"
/>
</g>
<path fill="#222327" d="
  M 116.72 0.00
  Q 126.74 29.52 147.02 53.96
  Q 159.19 68.63 169.00 79.66
  C 177.95 89.72 184.90 99.79 179.75 113.54
  Q 176.93 121.08 173.91 125.80
  Q 171.67 129.32 164.38 138.56
  C 162.05 141.53 159.79 145.60 157.96 148.22
  C 152.41 156.19 140.52 170.78 131.44 182.74
  Q 124.76 191.53 122.92 193.42
  Q 117.53 198.96 115.75 203.04
  Q 113.97 207.11 111.66 216.50
  L 110.99 209.99
  Q 112.79 204.82 115.13 201.65
  Q 119.55 195.68 129.71 183.45
  Q 131.21 181.64 133.27 178.03
  C 138.50 172.78 143.76 165.55 146.20 162.42
  C 151.73 155.35 156.14 148.11 160.19 141.04
  C 164.69 133.18 166.72 124.82 162.34 116.47
  C 158.73 109.59 152.73 103.82 147.18 98.44
  C 137.74 89.31 131.73 82.74 120.79 71.02
  C 109.19 58.59 97.14 50.49 80.07 47.61
  Q 68.43 45.64 58.50 44.66
  C 37.55 42.60 20.11 41.32 0.00 36.47
  L 0.00 0.00
  L 116.72 0.00
  Z"
/>
<path fill="#2e2e32" d="
  M 187.81 0.00
  Q 190.08 15.13 194.64 29.68
  C 197.23 37.96 201.28 46.87 204.29 55.19
  C 208.64 67.25 207.53 76.34 203.40 88.38
  A 2.65 2.60 74.3 0 1 202.96 89.18
  L 194.88 98.99
  A 0.20 0.20 0.0 0 0 194.98 99.31
  L 195.91 99.59
  A 0.37 0.37 0.0 0 1 196.11 100.15
  C 189.48 109.85 182.06 118.56 176.14 126.82
  Q 167.58 138.75 155.58 152.82
  Q 153.98 154.70 147.61 164.65
  Q 145.67 167.67 135.16 180.21
  C 133.07 182.71 132.58 183.60 130.82 186.26
  A 22.23 22.09 84.3 0 1 128.04 189.68
  C 124.31 193.45 121.10 196.12 120.93 201.10
  C 116.52 206.14 110.85 211.85 113.62 219.23
  Q 112.24 218.80 111.66 216.50
  Q 113.97 207.11 115.75 203.04
  Q 117.53 198.96 122.92 193.42
  Q 124.76 191.53 131.44 182.74
  C 140.52 170.78 152.41 156.19 157.96 148.22
  C 159.79 145.60 162.05 141.53 164.38 138.56
  Q 171.67 129.32 173.91 125.80
  Q 176.93 121.08 179.75 113.54
  C 184.90 99.79 177.95 89.72 169.00 79.66
  Q 159.19 68.63 147.02 53.96
  Q 126.74 29.52 116.72 0.00
  L 187.81 0.00
  Z"
/>
<path fill="#36373b" d="
  M 325.07 0.00
  C 319.23 24.82 308.16 45.72 290.15 63.66
  C 277.24 76.51 261.08 83.42 244.93 90.58
  A 1.14 1.13 88.7 0 0 244.33 91.21
  L 233.38 119.32
  L 231.78 122.96
  Q 229.07 127.85 224.89 131.00
  Q 234.15 105.01 243.70 79.27
  Q 245.34 74.86 245.55 74.03
  C 246.67 69.67 245.57 64.49 241.07 62.68
  Q 237.56 61.26 234.69 62.44
  Q 230.58 64.13 229.38 65.63
  Q 175.28 133.45 120.93 201.10
  C 121.10 196.12 124.31 193.45 128.04 189.68
  A 22.23 22.09 84.3 0 0 130.82 186.26
  C 132.58 183.60 133.07 182.71 135.16 180.21
  Q 145.67 167.67 147.61 164.65
  Q 153.98 154.70 155.58 152.82
  Q 167.58 138.75 176.14 126.82
  C 182.06 118.56 189.48 109.85 196.11 100.15
  A 0.37 0.37 0.0 0 0 195.91 99.59
  L 194.98 99.31
  A 0.20 0.20 0.0 0 1 194.88 98.99
  L 202.96 89.18
  A 2.65 2.60 74.3 0 0 203.40 88.38
  C 207.53 76.34 208.64 67.25 204.29 55.19
  C 201.28 46.87 197.23 37.96 194.64 29.68
  Q 190.08 15.13 187.81 0.00
  L 325.07 0.00
  Z"
/>
<path fill="#2e2e32" d="
  M 400.00 0.00
  L 400.00 3.96
  Q 381.53 11.42 368.78 26.69
  C 361.90 34.93 354.73 44.47 348.81 51.08
  Q 330.67 71.34 308.10 87.82
  Q 293.47 98.51 276.22 103.56
  Q 272.40 104.68 255.50 109.46
  Q 245.77 112.21 233.38 119.32
  L 244.33 91.21
  A 1.14 1.13 88.7 0 1 244.93 90.58
  C 261.08 83.42 277.24 76.51 290.15 63.66
  C 308.16 45.72 319.23 24.82 325.07 0.00
  L 400.00 0.00
  Z"
/>
<path fill="#222327" d="
  M 400.00 3.96
  L 400.00 47.08
  C 395.06 52.32 390.03 57.75 384.89 62.46
  Q 360.47 84.83 333.31 103.52
  Q 307.78 121.08 277.44 126.69
  Q 269.11 128.23 245.87 131.69
  Q 242.14 132.25 228.00 135.55
  L 231.78 122.96
  L 233.38 119.32
  Q 245.77 112.21 255.50 109.46
  Q 272.40 104.68 276.22 103.56
  Q 293.47 98.51 308.10 87.82
  Q 330.67 71.34 348.81 51.08
  C 354.73 44.47 361.90 34.93 368.78 26.69
  Q 381.53 11.42 400.00 3.96
  Z"
/>
<path fill="#1c1b20" d="
  M 133.27 178.03
  Q 139.12 169.76 144.78 161.40
  C 152.05 150.66 157.15 139.03 146.26 128.43
  Q 135.49 117.95 123.50 109.31
  C 112.40 101.30 102.48 97.07 89.91 94.98
  Q 59.35 89.89 31.54 86.31
  Q 15.55 84.24 0.00 79.81
  L 0.00 36.47
  C 20.11 41.32 37.55 42.60 58.50 44.66
  Q 68.43 45.64 80.07 47.61
  C 97.14 50.49 109.19 58.59 120.79 71.02
  C 131.73 82.74 137.74 89.31 147.18 98.44
  C 152.73 103.82 158.73 109.59 162.34 116.47
  C 166.72 124.82 164.69 133.18 160.19 141.04
  C 156.14 148.11 151.73 155.35 146.20 162.42
  C 143.76 165.55 138.50 172.78 133.27 178.03
  Z"
/>
<path fill="#1c1b20" d="
  M 400.00 47.08
  L 400.00 123.28
  Q 385.25 129.03 370.23 134.11
  C 357.10 138.56 346.46 142.50 335.76 146.50
  C 321.60 151.78 307.81 155.98 295.09 160.12
  C 290.84 161.51 285.40 163.62 284.13 168.25
  A 0.80 0.77 -62.9 0 0 284.38 169.07
  L 288.50 172.46
  A 1.07 1.07 0.0 0 1 288.76 172.77
  Q 290.52 176.09 290.56 176.70
  Q 291.01 184.08 289.08 191.38
  C 283.68 197.02 278.38 203.96 273.79 209.04
  Q 267.21 216.34 262.07 223.02
  C 256.89 229.75 251.44 234.89 247.15 242.24
  A 7.45 7.43 83.6 0 1 245.80 243.94
  L 233.02 256.01
  L 261.13 220.73
  Q 263.50 218.95 264.20 218.11
  Q 270.84 210.02 282.83 196.08
  Q 287.76 190.35 288.62 183.21
  C 290.10 170.86 280.40 170.01 271.11 169.96
  C 259.27 169.91 249.84 170.86 239.03 170.07
  Q 230.78 169.47 216.51 169.17
  A 0.80 0.79 79.2 0 1 215.79 168.67
  Q 214.57 165.52 215.83 162.68
  Q 217.92 157.97 220.26 153.40
  C 222.43 149.14 224.83 141.33 228.00 135.55
  Q 242.14 132.25 245.87 131.69
  Q 269.11 128.23 277.44 126.69
  Q 307.78 121.08 333.31 103.52
  Q 360.47 84.83 384.89 62.46
  C 390.03 57.75 395.06 52.32 400.00 47.08
  Z"
/>
<path fill="#e2e5ea" d="
  M 224.89 131.00
  L 221.76 139.53
  L 219.17 146.71
  L 213.91 160.72
  L 208.82 175.74
  A 0.37 0.37 0.0 0 0 209.18 176.23
  Q 228.99 175.80 276.49 175.95
  Q 283.70 175.97 286.51 181.52
  C 287.73 186.38 286.13 189.34 282.99 193.24
  Q 271.99 206.93 261.13 220.73
  L 233.02 256.01
  L 209.38 285.53
  Q 205.44 284.76 202.88 284.87
  Q 192.77 285.27 182.58 285.46
  Q 174.89 285.60 171.37 292.37
  Q 168.04 298.78 164.77 305.23
  Q 163.26 308.22 159.86 309.75
  L 167.49 288.99
  L 171.61 277.81
  Q 181.39 251.46 191.09 225.07
  Q 191.27 224.59 191.18 224.30
  Q 191.02 223.74 190.45 223.75
  Q 184.60 223.81 178.72 223.67
  L 153.55 223.69
  Q 129.53 223.94 119.98 223.57
  Q 116.01 223.42 113.62 219.23
  C 110.85 211.85 116.52 206.14 120.93 201.10
  Q 175.28 133.45 229.38 65.63
  Q 230.58 64.13 234.69 62.44
  Q 237.56 61.26 241.07 62.68
  C 245.57 64.49 246.67 69.67 245.55 74.03
  Q 245.34 74.86 243.70 79.27
  Q 234.15 105.01 224.89 131.00
  Z"
/>
<path fill="#141417" d="
  M 133.27 178.03
  C 131.75 179.39 130.26 180.73 128.98 182.39
  Q 122.48 190.78 115.81 199.06
  Q 112.12 203.64 110.99 209.99
  Q 110.92 211.47 110.62 211.85
  A 1.12 1.12 0.0 0 1 108.66 210.85
  L 110.85 203.62
  A 4.61 4.42 -18.9 0 1 111.61 202.15
  Q 116.57 195.80 120.94 189.05
  C 126.97 179.72 125.49 172.84 113.49 171.47
  C 104.26 170.41 98.42 169.88 90.77 168.42
  Q 79.73 166.32 71.18 165.50
  Q 55.41 164.00 33.59 161.63
  Q 16.81 159.81 0.00 161.40
  L 0.00 79.81
  Q 15.55 84.24 31.54 86.31
  Q 59.35 89.89 89.91 94.98
  C 102.48 97.07 112.40 101.30 123.50 109.31
  Q 135.49 117.95 146.26 128.43
  C 157.15 139.03 152.05 150.66 144.78 161.40
  Q 139.12 169.76 133.27 178.03
  Z"
/>
<path fill="#2e2e32" d="
  M 231.78 122.96
  L 228.00 135.55
  C 224.83 141.33 222.43 149.14 220.26 153.40
  Q 217.92 157.97 215.83 162.68
  Q 214.57 165.52 215.79 168.67
  A 0.80 0.79 79.2 0 0 216.51 169.17
  Q 230.78 169.47 239.03 170.07
  C 249.84 170.86 259.27 169.91 271.11 169.96
  C 280.40 170.01 290.10 170.86 288.62 183.21
  Q 287.76 190.35 282.83 196.08
  Q 270.84 210.02 264.20 218.11
  Q 263.50 218.95 261.13 220.73
  Q 271.99 206.93 282.99 193.24
  C 286.13 189.34 287.73 186.38 286.51 181.52
  Q 286.79 173.51 278.08 172.45
  Q 264.34 170.77 254.35 172.72
  C 251.16 173.35 248.03 173.22 244.87 172.68
  Q 242.76 172.32 237.74 172.11
  Q 225.90 171.61 214.21 171.87
  A 2.15 2.15 0.0 0 1 212.05 169.26
  L 213.91 160.72
  L 219.17 146.71
  Q 221.46 143.53 221.76 139.53
  L 224.89 131.00
  Q 229.07 127.85 231.78 122.96
  Z"
/>
<path fill="#141417" d="
  M 400.00 123.28
  L 400.00 174.72
  C 382.89 177.28 368.48 175.78 352.42 175.35
  Q 318.42 174.43 289.08 191.38
  Q 291.01 184.08 290.56 176.70
  Q 290.52 176.09 288.76 172.77
  A 1.07 1.07 0.0 0 0 288.50 172.46
  L 284.38 169.07
  A 0.80 0.77 -62.9 0 1 284.13 168.25
  C 285.40 163.62 290.84 161.51 295.09 160.12
  C 307.81 155.98 321.60 151.78 335.76 146.50
  C 346.46 142.50 357.10 138.56 370.23 134.11
  Q 385.25 129.03 400.00 123.28
  Z"
/>
<path fill="#36373b" d="
  M 219.17 146.71
  L 221.76 139.53
  Q 221.46 143.53 219.17 146.71
  Z"
/>
<path fill="#060606" d="
  M 110.99 209.99
  L 111.66 216.50
  Q 112.24 218.80 113.62 219.23
  Q 116.01 223.42 119.98 223.57
  Q 129.53 223.94 153.55 223.69
  L 168.54 224.03
  Q 176.77 223.97 185.56 223.97
  A 1.09 1.09 0.0 0 1 186.65 225.05
  Q 186.65 225.70 186.10 226.47
  C 182.71 232.58 181.05 239.75 178.68 247.72
  C 176.06 253.66 173.70 261.55 172.11 265.96
  Q 167.08 279.84 162.40 293.85
  Q 160.64 299.13 159.30 304.55
  C 155.90 310.55 154.83 317.56 153.33 324.20
  Q 152.78 326.65 153.90 330.91
  Q 154.87 336.58 159.48 337.73
  Q 165.90 339.34 170.36 333.89
  Q 190.02 309.84 209.38 285.53
  L 233.02 256.01
  L 245.80 243.94
  A 7.45 7.43 83.6 0 0 247.15 242.24
  C 251.44 234.89 256.89 229.75 262.07 223.02
  Q 267.21 216.34 273.79 209.04
  C 278.38 203.96 283.68 197.02 289.08 191.38
  Q 318.42 174.43 352.42 175.35
  C 368.48 175.78 382.89 177.28 400.00 174.72
  L 400.00 400.00
  L 0.00 400.00
  L 0.00 161.40
  Q 16.81 159.81 33.59 161.63
  Q 55.41 164.00 71.18 165.50
  Q 79.73 166.32 90.77 168.42
  C 98.42 169.88 104.26 170.41 113.49 171.47
  C 125.49 172.84 126.97 179.72 120.94 189.05
  Q 116.57 195.80 111.61 202.15
  A 4.61 4.42 -18.9 0 0 110.85 203.62
  L 108.66 210.85
  A 1.12 1.12 0.0 0 0 110.62 211.85
  Q 110.92 211.47 110.99 209.99
  Z
  M 170.10 265.76
  Q 168.93 268.00 168.47 269.48
  C 166.39 276.29 163.27 283.35 161.29 289.61
  Q 156.68 304.12 153.65 311.82
  Q 150.33 320.25 151.42 328.27
  A 0.31 0.31 0.0 0 0 151.74 328.54
  L 151.75 328.53
  A 0.33 0.33 0.0 0 0 152.07 328.20
  Q 152.11 321.34 153.52 315.01
  A 12.88 12.74 64.7 0 1 154.51 312.19
  C 155.76 309.64 157.23 307.07 158.17 303.87
  Q 160.97 294.40 165.55 282.02
  Q 168.28 274.66 170.10 265.76
  C 172.87 258.55 175.28 251.33 178.38 244.18
  Q 180.74 238.74 182.83 231.16
  A 0.27 0.27 0.0 0 0 182.65 230.83
  L 182.64 230.83
  A 0.28 0.27 -71.2 0 0 182.30 231.00
  Q 179.17 239.80 176.79 244.92
  Q 174.82 249.15 173.52 253.28
  C 172.65 256.02 170.53 261.12 170.10 265.76
  Z"
/>
<path fill="#36373b" d="
  M 213.91 160.72
  L 212.05 169.26
  A 2.15 2.15 0.0 0 0 214.21 171.87
  Q 225.90 171.61 237.74 172.11
  Q 242.76 172.32 244.87 172.68
  C 248.03 173.22 251.16 173.35 254.35 172.72
  Q 264.34 170.77 278.08 172.45
  Q 286.79 173.51 286.51 181.52
  Q 283.70 175.97 276.49 175.95
  Q 228.99 175.80 209.18 176.23
  A 0.37 0.37 0.0 0 1 208.82 175.74
  L 213.91 160.72
  Z"
/>
<path fill="#1c1b20" d="
  M 133.27 178.03
  Q 131.21 181.64 129.71 183.45
  Q 119.55 195.68 115.13 201.65
  Q 112.79 204.82 110.99 209.99
  Q 112.12 203.64 115.81 199.06
  Q 122.48 190.78 128.98 182.39
  C 130.26 180.73 131.75 179.39 133.27 178.03
  Z"
/>
<path fill="#adb4be" d="
  M 178.72 223.67
  L 168.54 224.03
  L 153.55 223.69
  L 178.72 223.67
  Z"
/>
<path fill="#2e2e32" d="
  M 178.72 223.67
  Q 184.60 223.81 190.45 223.75
  Q 191.02 223.74 191.18 224.30
  Q 191.27 224.59 191.09 225.07
  Q 181.39 251.46 171.61 277.81
  Q 167.53 282.77 167.49 288.99
  L 159.86 309.75
  Q 157.53 315.92 155.34 322.10
  Q 153.56 327.09 153.90 330.91
  Q 152.78 326.65 153.33 324.20
  C 154.83 317.56 155.90 310.55 159.30 304.55
  L 161.52 299.30
  L 164.38 292.27
  L 173.83 264.77
  L 178.03 251.78
  Q 178.14 251.78 178.24 251.79
  L 180.66 245.95
  L 186.10 226.47
  Q 186.65 225.70 186.65 225.05
  A 1.09 1.09 0.0 0 0 185.56 223.97
  Q 176.77 223.97 168.54 224.03
  L 178.72 223.67
  Z"
/>
<path fill="#1c1b20" d="
  M 186.10 226.47
  L 180.66 245.95
  Q 179.47 246.52 178.68 247.72
  C 181.05 239.75 182.71 232.58 186.10 226.47
  Z"
/>
<path fill="#141417" d="
  M 170.10 265.76
  C 170.53 261.12 172.65 256.02 173.52 253.28
  Q 174.82 249.15 176.79 244.92
  Q 179.17 239.80 182.30 231.00
  A 0.28 0.27 -71.2 0 1 182.64 230.83
  L 182.65 230.83
  A 0.27 0.27 0.0 0 1 182.83 231.16
  Q 180.74 238.74 178.38 244.18
  C 175.28 251.33 172.87 258.55 170.10 265.76
  Z"
/>
<path fill="#222327" d="
  M 180.66 245.95
  L 178.24 251.79
  L 178.68 247.72
  Q 179.47 246.52 180.66 245.95
  Z"
/>
<path fill="#1c1b20" d="
  M 178.68 247.72
  L 178.24 251.79
  Q 178.14 251.78 178.03 251.78
  Q 175.27 258.03 173.83 264.77
  L 164.38 292.27
  L 161.52 299.30
  L 159.30 304.55
  Q 160.64 299.13 162.40 293.85
  Q 167.08 279.84 172.11 265.96
  C 173.70 261.55 176.06 253.66 178.68 247.72
  Z"
/>
<path fill="#222327" d="
  M 178.03 251.78
  L 173.83 264.77
  Q 175.27 258.03 178.03 251.78
  Z"
/>
<path fill="#141417" d="
  M 170.10 265.76
  Q 168.28 274.66 165.55 282.02
  Q 160.97 294.40 158.17 303.87
  C 157.23 307.07 155.76 309.64 154.51 312.19
  A 12.88 12.74 64.7 0 0 153.52 315.01
  Q 152.11 321.34 152.07 328.20
  A 0.33 0.33 0.0 0 1 151.75 328.53
  L 151.74 328.54
  A 0.31 0.31 0.0 0 1 151.42 328.27
  Q 150.33 320.25 153.65 311.82
  Q 156.68 304.12 161.29 289.61
  C 163.27 283.35 166.39 276.29 168.47 269.48
  Q 168.93 268.00 170.10 265.76
  Z"
/>
<path fill="#36373b" d="
  M 171.61 277.81
  L 167.49 288.99
  Q 167.53 282.77 171.61 277.81
  Z"
/>
<path fill="#adb4be" d="
  M 209.38 285.53
  Q 190.02 309.84 170.36 333.89
  Q 165.90 339.34 159.48 337.73
  Q 154.87 336.58 153.90 330.91
  Q 153.56 327.09 155.34 322.10
  Q 157.53 315.92 159.86 309.75
  Q 163.26 308.22 164.77 305.23
  Q 168.04 298.78 171.37 292.37
  Q 174.89 285.60 182.58 285.46
  Q 192.77 285.27 202.88 284.87
  Q 205.44 284.76 209.38 285.53
  Z"
/>
<path fill="#222327" d="
  M 164.38 292.27
  L 161.52 299.30
  L 164.38 292.27
  Z"
/>
</svg>
