<svg fill="none" height="36" viewBox="0 0 153 36" width="153" xmlns="http://www.w3.org/2000/svg" style="fill: none !important;"><g clip-path="url(#clip0_201_665)" style="fill: none !important;"><path d="M16.2733 34.4333L1.71029 26.1527L8.96497 22.0712M23.6464 13.9133L30.9068 26.1814L16.2676 34.415L1.69336 9.7848M16.3748 1.56689L1.73851 9.80046L16.3015 18.081L30.9406 9.84747L16.3748 1.56689Z" stroke="#25D3D0" stroke-linecap="round" stroke-linejoin="round" stroke-miterlimit="10" stroke-width="3.48179" style="fill: none !important; stroke: rgb(37, 211, 208) !important; stroke-width: 3.48179px !important; stroke-linecap: round !important; stroke-linejoin: round !important;"/><path d="M42.529 25.6824C41.5611 25.6824 40.6384 25.5962 39.7608 25.4291C38.8833 25.2593 38.1609 25.0217 37.5938 24.7109L38.3979 20.8227C39.0244 21.1621 39.7354 21.4389 40.5312 21.6557C41.3269 21.8724 42.0747 21.9795 42.7745 21.9795C43.3698 21.9795 43.8439 21.9168 44.1938 21.7941C44.5437 21.6713 44.7497 21.4389 44.8089 21.0995C44.8823 20.713 44.6961 20.4336 44.2502 20.256L42.2863 19.5039C41.3184 19.1331 40.582 18.6761 40.0741 18.1277C39.569 17.5794 39.315 16.8743 39.315 16.0099C39.315 15.6548 39.3602 15.284 39.4505 14.9001C39.7778 13.2968 40.5114 12.1321 41.6514 11.4061C42.7914 10.6802 44.4252 10.3198 46.5528 10.3198C47.0578 10.3198 47.5912 10.3538 48.1499 10.4243C48.7086 10.4948 49.239 10.5783 49.747 10.6776C50.252 10.7768 50.6781 10.8891 51.0196 11.0144L50.2154 14.9236C49.5297 14.6155 48.8835 14.3961 48.2712 14.263C47.6617 14.1324 47.0945 14.0671 46.5725 14.0671C46.2 14.0671 45.8417 14.0854 45.5002 14.1246C45.1588 14.1637 44.8795 14.2473 44.6622 14.3779C44.4449 14.5084 44.3377 14.7147 44.3377 14.9915C44.3377 15.2396 44.5126 15.4276 44.8625 15.5582C45.2124 15.6887 45.7683 15.8715 46.5274 16.1013C47.7915 16.4878 48.6662 17.0049 49.1516 17.6525C49.6341 18.3001 49.8768 19.0339 49.8768 19.8512C49.8756 20.2635 49.8302 20.6746 49.7413 21.0786C49.4591 22.4678 48.7311 23.5802 47.5629 24.4211C46.3976 25.2619 44.7186 25.6824 42.529 25.6824ZM49.0387 25.45L52.0749 10.5496H56.8775L55.8278 15.7566H60.0943L61.1439 10.5496H65.9465L62.9103 25.45H58.1077L59.1574 20.2429H54.891L53.8413 25.45H49.0387ZM70.419 25.6824C69.1831 25.6824 68.0995 25.4944 67.1683 25.1157C66.2372 24.7371 65.5148 24.1521 65.0012 23.3557C64.4877 22.5618 64.2309 21.5382 64.2309 20.2899C64.2309 19.9348 64.2507 19.5718 64.2873 19.2036C64.324 18.8328 64.3889 18.4411 64.4764 18.0233C64.863 16.1562 65.4414 14.6599 66.2061 13.5344C66.9736 12.4089 67.9641 11.5915 69.1774 11.0823C70.3908 10.5731 71.8609 10.3198 73.5878 10.3198C75.4925 10.3198 77.0021 10.7585 78.111 11.6386C79.22 12.5186 79.7758 13.8921 79.7758 15.7566C79.7758 16.0961 79.7561 16.4539 79.7194 16.8325C79.6827 17.2112 79.6178 17.6081 79.5303 18.0233C79.1579 19.8591 78.5879 21.3397 77.8232 22.4652C77.0557 23.5907 76.0653 24.408 74.8519 24.9172C73.6386 25.4265 72.1628 25.6824 70.419 25.6824ZM71.2909 21.4703C72.2136 21.4703 72.936 21.2013 73.458 20.6608C73.98 20.1202 74.3666 19.2428 74.6205 18.0233C74.7532 17.3757 74.8209 16.8351 74.8209 16.4043C74.8209 15.7253 74.6572 15.2474 74.3299 14.9706C74.0026 14.6938 73.4664 14.5554 72.7215 14.5554C71.7847 14.5554 71.0539 14.8139 70.5318 15.331C70.0098 15.848 69.6232 16.7463 69.3693 18.0259C69.2338 18.6422 69.1689 19.1671 69.1689 19.6005C69.1689 20.2638 69.3354 20.7417 69.6712 21.0342C70.007 21.324 70.5459 21.4703 71.2909 21.4703Z" fill="#000000" class="light-logo" style="fill: #000000 !important;"/><path d="M80.5914 25.4501L82.8912 14.1822H79.0508L79.7873 10.5498H92.2932L91.5567 14.1822H87.6938L85.394 25.4501H80.5914Z" fill="#000000" class="light-logo" style="fill: #000000 !important;"/><path d="M93.6051 25.6824C92.6373 25.6824 91.7146 25.5962 90.837 25.4291C89.9595 25.2593 89.2371 25.0217 88.6699 24.7109L89.4741 20.8227C90.1005 21.1621 90.8116 21.4389 91.6073 21.6557C92.4031 21.8724 93.1508 21.9795 93.8506 21.9795C94.446 21.9795 94.9201 21.9168 95.27 21.7941C95.6199 21.6713 95.8258 21.4389 95.8851 21.0995C95.9585 20.713 95.7722 20.4336 95.3264 20.256L93.3625 19.5039C92.3946 19.1331 91.6581 18.6761 91.1502 18.1277C90.6451 17.5794 90.3912 16.8743 90.3912 16.0099C90.3912 15.6548 90.4363 15.284 90.5238 14.9001C90.8511 13.2968 91.5848 12.1321 92.7248 11.4061C93.8647 10.6802 95.4985 10.3198 97.6261 10.3198C98.1312 10.3198 98.6645 10.3538 99.2232 10.4243C99.7819 10.4948 100.315 10.5783 100.82 10.6776C101.325 10.7768 101.751 10.8891 102.093 11.0144L101.289 14.9236C100.603 14.6155 99.9569 14.3961 99.3445 14.263C98.735 14.1324 98.1679 14.0671 97.6459 14.0671C97.2734 14.0671 96.915 14.0854 96.5736 14.1246C96.2322 14.1637 95.9528 14.2473 95.7355 14.3779C95.5183 14.5084 95.411 14.7147 95.411 14.9915C95.411 15.2396 95.586 15.4276 95.9359 15.5582C96.2858 15.6887 96.8417 15.8715 97.6007 16.1013C98.8648 16.4878 99.7424 17.0049 100.225 17.6525C100.707 18.3001 100.95 19.0339 100.95 19.8512C100.95 20.2534 100.905 20.6608 100.817 21.0786C100.535 22.4678 99.8073 23.5802 98.6391 24.4211C97.4709 25.2619 95.792 25.6824 93.6051 25.6824Z" fill="#000000" class="light-logo" style="fill: #000000 !important;"/><path d="M102.479 25.4501L104.779 14.1822H100.938L101.675 10.5498H114.181L113.444 14.1822H109.581L107.282 25.4501H102.479ZM108.334 25.4501L116.887 10.5498H121.912L124.415 25.4501H119.613L119.099 22.4889H115.191L113.492 25.4501H108.334ZM116.486 19.0184H119.189L118.563 15.4095L116.486 19.0184ZM131.041 25.6825C129.655 25.6825 128.445 25.4632 127.412 25.0219C126.376 24.5832 125.569 23.9329 124.988 23.079C124.407 22.2225 124.116 21.1701 124.116 19.9193C124.116 19.3344 124.184 18.7076 124.317 18.0444C124.839 15.514 125.871 13.5946 127.42 12.2837C128.97 10.9728 131.218 10.3174 134.164 10.3174C135.042 10.3174 135.829 10.3879 136.521 10.5263C137.215 10.6647 137.858 10.8658 138.453 11.1269L137.559 15.4539C136.964 15.1301 136.371 14.8951 135.784 14.7488C135.197 14.6026 134.478 14.5295 133.628 14.5295C132.421 14.5295 131.447 14.7958 130.702 15.3286C129.957 15.8613 129.458 16.7674 129.207 18.047C129.161 18.295 129.125 18.5248 129.094 18.7416C129.063 18.9583 129.049 19.1594 129.049 19.3422C129.049 20.1282 129.297 20.6818 129.796 20.9978C130.296 21.3138 131.111 21.473 132.243 21.473C132.968 21.4734 133.691 21.3998 134.399 21.2537C135.104 21.1075 135.824 20.8803 136.554 20.5721L135.66 24.9226C134.96 25.1707 134.241 25.3587 133.504 25.4893C132.773 25.6173 131.949 25.6825 131.041 25.6825ZM135.982 25.4501L139.021 10.5498H143.823L142.864 15.2711L147.576 10.5498H153.002L146.772 16.7047L150.367 25.4501H145.274L143.174 19.8514L141.611 21.3555L140.784 25.4501H135.982Z" fill="#000000" class="light-logo" style="fill: #000000 !important;"/></g><defs style="fill: none !important;"><clipPath id="clip0_201_665" style="fill: none !important;"><rect fill="#000000" height="36" width="153" style="fill: #000000 !important;"/></clipPath></defs></svg>