<?xml version="1.0" encoding="UTF-8" standalone="no"?>
<!DOCTYPE svg PUBLIC "-//W3C//DTD SVG 1.1//EN" "http://www.w3.org/Graphics/SVG/1.1/DTD/svg11.dtd">
<svg xmlns="http://www.w3.org/2000/svg" version="1.1" viewBox="0.00 0.00 100.00 100.00">
<path stroke="#e28989" stroke-width="2.00" fill="none" stroke-linecap="butt" vector-effect="non-scaling-stroke" d="
  M 75.88 33.41
  C 83.35 35.65 90.87 30.50 90.89 22.60
  C 90.91 14.34 82.46 8.53 74.98 12.04
  C 68.15 15.25 65.89 22.93 70.31 29.37
  A 0.81 0.80 44.7 0 1 70.32 30.27
  L 51.67 58.99
  A 0.86 0.84 -66.6 0 1 50.76 59.36
  Q 44.29 57.89 42.07 64.32
  Q 41.85 64.95 42.36 67.75
  A 0.70 0.70 0.0 0 1 42.03 68.48
  L 13.94 84.65
  A 1.28 1.25 -51.4 0 1 12.98 84.77
  C 12.29 84.57 11.85 83.96 10.94 84.05
  C 6.21 84.53 7.76 91.29 12.21 89.68
  C 13.49 89.22 13.88 88.00 13.97 86.84
  A 1.10 1.08 -11.7 0 1 14.55 85.97
  L 43.97 71.05
  A 1.33 1.31 -44.5 0 1 45.16 71.05
  Q 50.33 73.66 53.78 69.07
  Q 55.41 66.90 54.89 64.78
  Q 54.56 63.42 54.53 62.84
  A 1.42 1.40 -29.2 0 1 54.78 61.98
  L 75.37 33.58
  A 0.47 0.45 -62.5 0 1 75.88 33.41"
/>
<path fill="#c41212" d="
  M 100.00 0.00
  L 100.00 100.00
  L 0.00 100.00
  L 0.00 0.00
  L 100.00 0.00
  Z
  M 75.88 33.41
  C 83.35 35.65 90.87 30.50 90.89 22.60
  C 90.91 14.34 82.46 8.53 74.98 12.04
  C 68.15 15.25 65.89 22.93 70.31 29.37
  A 0.81 0.80 44.7 0 1 70.32 30.27
  L 51.67 58.99
  A 0.86 0.84 -66.6 0 1 50.76 59.36
  Q 44.29 57.89 42.07 64.32
  Q 41.85 64.95 42.36 67.75
  A 0.70 0.70 0.0 0 1 42.03 68.48
  L 13.94 84.65
  A 1.28 1.25 -51.4 0 1 12.98 84.77
  C 12.29 84.57 11.85 83.96 10.94 84.05
  C 6.21 84.53 7.76 91.29 12.21 89.68
  C 13.49 89.22 13.88 88.00 13.97 86.84
  A 1.10 1.08 -11.7 0 1 14.55 85.97
  L 43.97 71.05
  A 1.33 1.31 -44.5 0 1 45.16 71.05
  Q 50.33 73.66 53.78 69.07
  Q 55.41 66.90 54.89 64.78
  Q 54.56 63.42 54.53 62.84
  A 1.42 1.40 -29.2 0 1 54.78 61.98
  L 75.37 33.58
  A 0.47 0.45 -62.5 0 1 75.88 33.41
  Z"
/>
<path fill="#ffffff" d="
  M 75.88 33.41
  A 0.47 0.45 -62.5 0 0 75.37 33.58
  L 54.78 61.98
  A 1.42 1.40 -29.2 0 0 54.53 62.84
  Q 54.56 63.42 54.89 64.78
  Q 55.41 66.90 53.78 69.07
  Q 50.33 73.66 45.16 71.05
  A 1.33 1.31 -44.5 0 0 43.97 71.05
  L 14.55 85.97
  A 1.10 1.08 -11.7 0 0 13.97 86.84
  C 13.88 88.00 13.49 89.22 12.21 89.68
  C 7.76 91.29 6.21 84.53 10.94 84.05
  C 11.85 83.96 12.29 84.57 12.98 84.77
  A 1.28 1.25 -51.4 0 0 13.94 84.65
  L 42.03 68.48
  A 0.70 0.70 0.0 0 0 42.36 67.75
  Q 41.85 64.95 42.07 64.32
  Q 44.29 57.89 50.76 59.36
  A 0.86 0.84 -66.6 0 0 51.67 58.99
  L 70.32 30.27
  A 0.81 0.80 44.7 0 0 70.31 29.37
  C 65.89 22.93 68.15 15.25 74.98 12.04
  C 82.46 8.53 90.91 14.34 90.89 22.60
  C 90.87 30.50 83.35 35.65 75.88 33.41
  Z"
/>
</svg>
