<svg width="128" height="128" viewBox="0 0 128 128" fill="none" xmlns="http://www.w3.org/2000/svg">
<g clip-path="url(#clip0_364_187)">
<path d="M0 0H128V128H0V0Z" fill="#0094E6"/>
<path d="M66.7706 110.736C65.7046 110.216 64.4409 108.204 64.4409 107.027C64.4409 106.562 64.8321 105.686 65.3135 105.075L66.186 103.962L64.7762 103.73C60.0481 102.943 50.1365 102.612 39.5113 102.879L27.6912 103.18L26.2942 101.873C24.489 100.184 24.3471 97.7596 25.9504 96.0317C26.9691 94.9314 27.1711 94.8927 31.7788 94.8927C34.405 94.8927 37.8479 95.0818 39.4296 95.3096C41.0113 95.5417 44.7207 96.036 47.6779 96.4143C50.6351 96.7925 57.4133 97.8456 62.7431 98.7482L72.4399 100.394L76.9272 98.8643C81.1352 97.433 81.7713 97.3341 87.0066 97.3083C91.9237 97.2825 92.8994 97.3986 95.1517 98.2969C97.8381 99.3672 101.466 102.385 102.519 104.422C103.417 106.163 103.262 108.007 102.106 109.352C100.959 110.689 101.234 110.706 91.9495 108.66C85.7171 107.284 79.3686 106.072 78.4101 106.072C77.9373 106.072 75.9344 107.233 73.9572 108.651C70.2564 111.299 68.8036 111.72 66.7706 110.736ZM97.8811 104.173C96.583 102.978 95.1689 102.14 93.9267 101.826C91.4251 101.194 86.6111 101.207 84.4276 101.852L82.7084 102.354L84.6426 102.78C85.7085 103.012 89.2846 103.824 92.5943 104.581C95.9039 105.337 98.8997 105.974 99.2565 105.995C99.6132 106.016 98.99 105.196 97.8811 104.173ZM56.7041 91.0673C48.4559 88.815 41.583 82.1958 39.9454 74.9189C39.2835 71.9918 40.7792 69.9631 43.5989 69.9631C44.6304 69.9631 46.3841 71.4287 46.3927 72.3013C46.4056 73.5607 48.8212 77.7256 50.605 79.561C54.1123 83.1715 57.8002 84.6286 63.4137 84.6286C67.9956 84.6286 71.533 83.6142 75.0017 81.3146C78.8743 78.7443 80.7742 75.1467 80.7742 70.3886C80.7742 66.8425 79.9833 64.9513 77.4774 62.497C74.8985 59.9783 71.3482 58.5685 61.6901 56.2302C52.2168 53.935 48.6278 52.5381 45.6319 49.9677C41.3853 46.3271 39.7864 42.3771 40.0099 36.0974C40.1474 32.3751 40.3193 31.6101 41.6217 29.0096C45.3096 21.6468 53.5321 17.095 63.1601 17.095C73.983 17.095 81.9734 22.399 84.707 31.3951C85.4635 33.8795 85.5151 34.5114 85.0595 35.6074C83.5895 39.1577 79.3214 38.1476 78.0878 33.9569C76.3986 28.2274 71.8983 24.849 65.0513 24.1784C55.1181 23.2027 47.0417 29.0268 47.1492 37.0817C47.1922 40.2151 47.6306 41.453 49.4358 43.5075C51.8257 46.2326 55.1353 47.5908 64.0627 49.5207C73.9959 51.6655 78.8486 53.7631 82.8502 57.6315C88.7431 63.3266 89.7488 72.9202 85.2529 80.5882C80.2842 89.0729 67.1058 93.9084 56.7041 91.0673Z" fill="#F1FCFB"/>
</g>
<defs>
<clipPath id="clip0_364_187">
<rect width="128" height="128" fill="white"/>
</clipPath>
</defs>
</svg>
