<?xml version="1.0" encoding="UTF-8" standalone="no"?>
<!DOCTYPE svg PUBLIC "-//W3C//DTD SVG 1.1//EN" "http://www.w3.org/Graphics/SVG/1.1/DTD/svg11.dtd">
<svg xmlns="http://www.w3.org/2000/svg" version="1.1" viewBox="0.00 0.00 400.00 400.00">
<g stroke-width="2.00" fill="none" stroke-linecap="butt">
<path stroke="#80d8f2" vector-effect="non-scaling-stroke" d="
  M 8.06 199.01
  Q 8.06 200.16 8.71 201.27
  Q 77.44 320.22 102.81 364.28
  A 2.49 2.48 -14.7 0 0 104.95 365.53
  Q 111.17 365.59 200.33 365.61
  Q 289.49 365.64 295.71 365.58
  A 2.49 2.48 14.7 0 0 297.85 364.34
  Q 323.25 320.29 392.05 201.38
  Q 392.69 200.27 392.69 199.12
  Q 392.70 197.98 392.05 196.86
  Q 323.32 77.91 297.95 33.85
  A 2.49 2.48 -14.7 0 0 295.81 32.60
  Q 289.59 32.55 200.43 32.52
  Q 111.27 32.50 105.05 32.55
  A 2.49 2.48 14.7 0 0 102.91 33.80
  Q 77.51 77.84 8.71 196.75
  Q 8.06 197.87 8.06 199.01"
/>
<path stroke="#80d8f2" vector-effect="non-scaling-stroke" d="
  M 262.29 121.08
  Q 262.16 121.47 261.71 121.97
  Q 246.08 139.40 234.57 152.53
  Q 230.45 157.23 231.54 162.92
  Q 232.18 166.30 237.17 171.92
  Q 253.66 190.51 256.19 193.30
  Q 259.39 196.85 262.01 200.30
  A 0.49 0.49 0.0 0 1 261.61 201.09
  Q 230.76 200.91 194.67 201.02
  Q 188.40 201.05 186.86 201.44
  C 181.00 202.92 176.54 209.83 178.05 215.56
  Q 179.81 222.19 185.21 224.62
  Q 187.74 225.77 197.01 225.72
  Q 216.86 225.62 289.23 225.66
  C 297.90 225.67 304.26 218.21 301.81 209.67
  Q 301.02 206.94 298.23 203.77
  Q 274.17 176.42 261.15 161.52
  A 1.39 1.39 0.0 0 1 261.15 159.70
  Q 277.74 140.83 291.19 125.43
  C 297.15 118.60 306.70 111.18 300.31 101.26
  Q 296.89 95.96 289.50 95.96
  Q 163.48 95.98 143.68 95.97
  A 1.09 1.09 0.0 0 1 142.59 94.89
  Q 142.51 90.08 142.46 83.48
  C 142.40 75.19 135.26 69.90 127.11 71.82
  C 119.43 73.62 117.60 81.06 117.80 88.80
  Q 117.90 92.79 117.83 308.91
  Q 117.83 314.28 118.53 316.73
  C 120.37 323.11 126.27 326.86 132.86 325.57
  C 137.60 324.64 142.48 320.28 142.48 314.94
  Q 142.51 286.57 142.50 121.30
  A 0.80 0.80 0.0 0 1 143.30 120.50
  L 261.88 120.50
  A 0.44 0.43 -80.4 0 1 262.29 121.08"
/>
</g>
<path fill="#ffffff" d="
  M 400.00 0.00
  L 400.00 400.00
  L 0.00 400.00
  L 0.00 0.00
  L 400.00 0.00
  Z
  M 8.06 199.01
  Q 8.06 200.16 8.71 201.27
  Q 77.44 320.22 102.81 364.28
  A 2.49 2.48 -14.7 0 0 104.95 365.53
  Q 111.17 365.59 200.33 365.61
  Q 289.49 365.64 295.71 365.58
  A 2.49 2.48 14.7 0 0 297.85 364.34
  Q 323.25 320.29 392.05 201.38
  Q 392.69 200.27 392.69 199.12
  Q 392.70 197.98 392.05 196.86
  Q 323.32 77.91 297.95 33.85
  A 2.49 2.48 -14.7 0 0 295.81 32.60
  Q 289.59 32.55 200.43 32.52
  Q 111.27 32.50 105.05 32.55
  A 2.49 2.48 14.7 0 0 102.91 33.80
  Q 77.51 77.84 8.71 196.75
  Q 8.06 197.87 8.06 199.01
  Z"
/>
<path fill="#00b1e5" d="
  M 200.43 32.52
  Q 289.59 32.55 295.81 32.60
  A 2.49 2.48 -14.7 0 1 297.95 33.85
  Q 323.32 77.91 392.05 196.86
  Q 392.70 197.98 392.69 199.12
  Q 392.69 200.27 392.05 201.38
  Q 323.25 320.29 297.85 364.34
  A 2.49 2.48 14.7 0 1 295.71 365.58
  Q 289.49 365.64 200.33 365.61
  Q 111.17 365.59 104.95 365.53
  A 2.49 2.48 -14.7 0 1 102.81 364.28
  Q 77.44 320.22 8.71 201.27
  Q 8.06 200.16 8.06 199.01
  Q 8.06 197.87 8.71 196.75
  Q 77.51 77.84 102.91 33.80
  A 2.49 2.48 14.7 0 1 105.05 32.55
  Q 111.27 32.50 200.43 32.52
  Z
  M 262.29 121.08
  Q 262.16 121.47 261.71 121.97
  Q 246.08 139.40 234.57 152.53
  Q 230.45 157.23 231.54 162.92
  Q 232.18 166.30 237.17 171.92
  Q 253.66 190.51 256.19 193.30
  Q 259.39 196.85 262.01 200.30
  A 0.49 0.49 0.0 0 1 261.61 201.09
  Q 230.76 200.91 194.67 201.02
  Q 188.40 201.05 186.86 201.44
  C 181.00 202.92 176.54 209.83 178.05 215.56
  Q 179.81 222.19 185.21 224.62
  Q 187.74 225.77 197.01 225.72
  Q 216.86 225.62 289.23 225.66
  C 297.90 225.67 304.26 218.21 301.81 209.67
  Q 301.02 206.94 298.23 203.77
  Q 274.17 176.42 261.15 161.52
  A 1.39 1.39 0.0 0 1 261.15 159.70
  Q 277.74 140.83 291.19 125.43
  C 297.15 118.60 306.70 111.18 300.31 101.26
  Q 296.89 95.96 289.50 95.96
  Q 163.48 95.98 143.68 95.97
  A 1.09 1.09 0.0 0 1 142.59 94.89
  Q 142.51 90.08 142.46 83.48
  C 142.40 75.19 135.26 69.90 127.11 71.82
  C 119.43 73.62 117.60 81.06 117.80 88.80
  Q 117.90 92.79 117.83 308.91
  Q 117.83 314.28 118.53 316.73
  C 120.37 323.11 126.27 326.86 132.86 325.57
  C 137.60 324.64 142.48 320.28 142.48 314.94
  Q 142.51 286.57 142.50 121.30
  A 0.80 0.80 0.0 0 1 143.30 120.50
  L 261.88 120.50
  A 0.44 0.43 -80.4 0 1 262.29 121.08
  Z"
/>
<path fill="#ffffff" d="
  M 262.29 121.08
  A 0.44 0.43 -80.4 0 0 261.88 120.50
  L 143.30 120.50
  A 0.80 0.80 0.0 0 0 142.50 121.30
  Q 142.51 286.57 142.48 314.94
  C 142.48 320.28 137.60 324.64 132.86 325.57
  C 126.27 326.86 120.37 323.11 118.53 316.73
  Q 117.83 314.28 117.83 308.91
  Q 117.90 92.79 117.80 88.80
  C 117.60 81.06 119.43 73.62 127.11 71.82
  C 135.26 69.90 142.40 75.19 142.46 83.48
  Q 142.51 90.08 142.59 94.89
  A 1.09 1.09 0.0 0 0 143.68 95.97
  Q 163.48 95.98 289.50 95.96
  Q 296.89 95.96 300.31 101.26
  C 306.70 111.18 297.15 118.60 291.19 125.43
  Q 277.74 140.83 261.15 159.70
  A 1.39 1.39 0.0 0 0 261.15 161.52
  Q 274.17 176.42 298.23 203.77
  Q 301.02 206.94 301.81 209.67
  C 304.26 218.21 297.90 225.67 289.23 225.66
  Q 216.86 225.62 197.01 225.72
  Q 187.74 225.77 185.21 224.62
  Q 179.81 222.19 178.05 215.56
  C 176.54 209.83 181.00 202.92 186.86 201.44
  Q 188.40 201.05 194.67 201.02
  Q 230.76 200.91 261.61 201.09
  A 0.49 0.49 0.0 0 0 262.01 200.30
  Q 259.39 196.85 256.19 193.30
  Q 253.66 190.51 237.17 171.92
  Q 232.18 166.30 231.54 162.92
  Q 230.45 157.23 234.57 152.53
  Q 246.08 139.40 261.71 121.97
  Q 262.16 121.47 262.29 121.08
  Z"
/>
</svg>
