<svg width="128" height="128" viewBox="0 0 128 128" fill="none" xmlns="http://www.w3.org/2000/svg">
<g clip-path="url(#clip0_240_6881)">
<g clip-path="url(#clip1_240_6881)">
<path d="M63.957 16.7444C76.4721 16.8307 88.3831 21.8368 97.1869 30.7269C105.991 39.617 110.91 51.528 110.91 64.0432C110.91 76.5583 105.991 88.4693 97.1869 97.3594C88.3831 106.249 76.4721 111.256 63.957 111.342C57.2247 111.342 50.665 109.875 44.5369 107.113L40.8255 105.473C40.3076 105.214 39.7897 105.214 39.2719 105.214L35.2152 105.818L23.8221 107.544C21.8369 107.803 20.197 106.163 20.4559 104.178L22.1822 92.8712L22.7864 88.8146C22.8727 88.2967 22.7864 87.6925 22.5274 87.261L20.8012 83.5496C18.0392 77.4214 16.5719 70.7755 16.5719 64.0432C16.5719 51.528 21.578 39.4444 30.4681 30.6406C39.4445 21.7505 51.4418 16.7444 63.957 16.7444ZM63.957 0C53.2543 0 42.7243 2.67566 33.3164 7.76804C23.9084 12.8604 15.9677 20.2832 10.1849 29.2596C4.402 38.3223 0.949539 48.5934 0.172735 59.296C-0.604069 69.6534 1.20847 80.0971 5.35143 89.6777C5.61036 90.1955 5.61036 90.7134 5.61036 91.2313L1.29478 120.059C0.690604 123.943 4.05675 127.31 7.94077 126.705L36.8551 122.39C37.373 122.303 37.9772 122.39 38.4087 122.562C46.8673 126.274 56.1026 128.086 65.3379 127.827C74.9185 127.655 84.2402 125.238 92.785 121.009C101.33 116.693 108.753 110.565 114.536 102.97C120.405 95.3742 124.461 86.6568 126.446 77.3351C128.432 68.0135 128.345 58.3466 126.101 49.0249C123.857 39.7033 119.628 31.0722 113.672 23.6494C107.717 16.2266 100.121 10.2711 91.4903 6.12812C82.9455 2.15779 73.5375 0 63.957 0Z" fill="#43BE64"/>
<path d="M64.3883 84.2401C54.6351 84.2401 45.0545 81.3055 37.0275 75.7816C36.337 75.35 35.8192 74.7458 35.3876 74.0554C34.956 73.3649 34.6108 72.6744 34.5245 71.8976C34.3519 71.1208 34.3519 70.344 34.5245 69.5671C34.6971 68.7903 35.0424 68.0135 35.4739 67.4094C35.9055 66.7189 36.5097 66.201 37.2001 65.7694C37.8906 65.3379 38.5811 64.9926 39.4442 64.9063C40.221 64.7337 40.9979 64.7337 41.861 64.9063C42.6378 65.0789 43.4146 65.4242 44.0188 65.8558C50.0606 69.9124 57.2244 72.0702 64.5609 72.0702C71.8974 72.0702 78.9749 69.9124 85.103 65.8558C86.3977 64.9926 88.0376 64.6474 89.6776 64.9063C91.2312 65.1653 92.6985 66.1147 93.5616 67.4094C94.511 68.704 94.8562 70.344 94.511 71.9839C94.2521 73.5375 93.3026 74.9185 91.9217 75.8679C83.7221 81.3055 74.1415 84.2401 64.3883 84.2401Z" fill="#43BE64"/>
</g>
</g>
<defs>
<clipPath id="clip0_240_6881">
<rect width="128" height="128" fill="white"/>
</clipPath>
<clipPath id="clip1_240_6881">
<rect width="128" height="128" fill="white"/>
</clipPath>
</defs>
</svg>
