<svg viewBox="0 0 566 94" fill="none" xmlns="http://www.w3.org/2000/svg" class="w-auto h-4.5 text-primary" style="fill: none !important;">
                    <path d="M40.943 24.2616C40.67 21.5116 39.5 19.3752 37.432 17.8525C35.364 16.3297 32.557 15.5684 29.011 15.5684C26.602 15.5684 24.568 15.9093 22.909 16.5911C21.25 17.2502 19.977 18.1707 19.091 19.3525C18.227 20.5343 17.795 21.8752 17.795 23.3752C17.75 24.6252 18.011 25.7161 18.58 26.6479C19.17 27.5797 19.977 28.3866 21 29.0684C22.023 29.7275 23.205 30.307 24.545 30.807C25.886 31.2843 27.318 31.6934 28.841 32.0343L35.114 33.5343C38.159 34.2161 40.955 35.1252 43.5 36.2616C46.045 37.3979 48.25 38.7957 50.114 40.4547C51.977 42.1138 53.42 44.0684 54.443 46.3184C55.489 48.5684 56.023 51.1479 56.045 54.057C56.023 58.3297 54.932 62.0343 52.773 65.1707C50.636 68.2843 47.545 70.7047 43.5 72.432C39.477 74.1366 34.625 74.9888 28.943 74.9888C23.307 74.9888 18.398 74.1252 14.216 72.3979C10.057 70.6707 6.807 68.1138 4.466 64.7275C2.148 61.3184 0.931993 57.1025 0.817993 52.0797H15.102C15.261 54.4207 15.932 56.3752 17.114 57.9434C18.318 59.4888 19.92 60.6593 21.92 61.4547C23.943 62.2275 26.227 62.6138 28.773 62.6138C31.273 62.6138 33.443 62.2502 35.284 61.5229C37.148 60.7957 38.591 59.7843 39.614 58.4888C40.636 57.1934 41.148 55.7047 41.148 54.0229C41.148 52.4547 40.682 51.1366 39.75 50.0684C38.841 49.0002 37.5 48.0911 35.727 47.3411C33.977 46.5911 31.83 45.9093 29.284 45.2957L21.682 43.3866C15.795 41.9547 11.148 39.7161 7.739 36.6707C4.33 33.6252 2.636 29.5229 2.659 24.3638C2.636 20.1366 3.761 16.4434 6.034 13.2843C8.33 10.1252 11.477 7.65926 15.477 5.88656C19.477 4.11376 24.023 3.22746 29.114 3.22746C34.295 3.22746 38.818 4.11376 42.682 5.88656C46.568 7.65926 49.591 10.1252 51.75 13.2843C53.909 16.4434 55.023 20.1025 55.091 24.2616H40.943ZM65.702 74.0002V21.6366H80.224V74.0002H65.702ZM72.997 14.8866C70.838 14.8866 68.986 14.1707 67.44 12.7388C65.918 11.2843 65.156 9.54566 65.156 7.52286C65.156 5.52286 65.918 3.80696 67.44 2.37516C68.986 0.92066 70.838 0.193359 72.997 0.193359C75.156 0.193359 76.997 0.92066 78.52 2.37516C80.065 3.80696 80.838 5.52286 80.838 7.52286C80.838 9.54566 80.065 11.2843 78.52 12.7388C76.997 14.1707 75.156 14.8866 72.997 14.8866ZM119.71 21.6366V32.5457H88.176V21.6366H119.71ZM95.335 9.09106H109.858V57.9093C109.858 59.2502 110.063 60.2957 110.472 61.0457C110.881 61.7729 111.449 62.2843 112.176 62.5797C112.926 62.8752 113.79 63.0229 114.767 63.0229C115.449 63.0229 116.131 62.9661 116.812 62.8525C117.494 62.7161 118.017 62.6138 118.381 62.5457L120.665 73.3525C119.938 73.5797 118.915 73.8411 117.597 74.1366C116.278 74.4547 114.676 74.6479 112.79 74.7161C109.29 74.8525 106.222 74.3866 103.585 73.3184C100.972 72.2502 98.938 70.5911 97.483 68.3411C96.028 66.0911 95.313 63.2502 95.335 59.8184V9.09106ZM152.472 75.0229C147.085 75.0229 142.449 73.932 138.562 71.7502C134.699 69.5457 131.722 66.432 129.631 62.4093C127.54 58.3638 126.494 53.5797 126.494 48.057C126.494 42.6707 127.54 37.9434 129.631 33.8752C131.722 29.807 134.665 26.6366 138.46 24.3638C142.278 22.0911 146.756 20.9547 151.892 20.9547C155.347 20.9547 158.563 21.5116 161.54 22.6252C164.54 23.7161 167.153 25.3638 169.381 27.5684C171.631 29.7729 173.381 32.5457 174.631 35.8866C175.881 39.2047 176.506 43.0911 176.506 47.5457V51.5343H132.29V42.5343H162.835C162.835 40.4434 162.381 38.5911 161.472 36.9775C160.563 35.3638 159.301 34.1025 157.688 33.1934C156.097 32.2616 154.244 31.7957 152.131 31.7957C149.926 31.7957 147.972 32.307 146.267 33.3297C144.585 34.3297 143.267 35.682 142.312 37.3866C141.358 39.0684 140.869 40.9434 140.847 43.0116V51.5684C140.847 54.1593 141.324 56.3979 142.278 58.2843C143.256 60.1707 144.631 61.6252 146.403 62.6479C148.176 63.6707 150.278 64.182 152.71 64.182C154.324 64.182 155.801 63.9547 157.142 63.5002C158.483 63.0457 159.631 62.3638 160.585 61.4547C161.54 60.5457 162.267 59.432 162.767 58.1138L176.199 59.0002C175.517 62.2275 174.119 65.0457 172.006 67.4547C169.915 69.8411 167.21 71.7047 163.892 73.0457C160.597 74.3638 156.79 75.0229 152.472 75.0229ZM224.131 24.2616C223.858 21.5116 222.688 19.3752 220.619 17.8525C218.551 16.3297 215.744 15.5684 212.199 15.5684C209.79 15.5684 207.756 15.9093 206.097 16.5911C204.438 17.2502 203.165 18.1707 202.278 19.3525C201.415 20.5343 200.983 21.8752 200.983 23.3752C200.938 24.6252 201.199 25.7161 201.767 26.6479C202.358 27.5797 203.165 28.3866 204.188 29.0684C205.21 29.7275 206.392 30.307 207.733 30.807C209.074 31.2843 210.506 31.6934 212.028 32.0343L218.301 33.5343C221.347 34.2161 224.142 35.1252 226.688 36.2616C229.233 37.3979 231.438 38.7957 233.301 40.4547C235.165 42.1138 236.608 44.0684 237.631 46.3184C238.676 48.5684 239.21 51.1479 239.233 54.057C239.21 58.3297 238.119 62.0343 235.96 65.1707C233.824 68.2843 230.733 70.7047 226.688 72.432C222.665 74.1366 217.813 74.9888 212.131 74.9888C206.494 74.9888 201.585 74.1252 197.403 72.3979C193.244 70.6707 189.994 68.1138 187.653 64.7275C185.335 61.3184 184.119 57.1025 184.006 52.0797H198.29C198.449 54.4207 199.119 56.3752 200.301 57.9434C201.506 59.4888 203.108 60.6593 205.108 61.4547C207.131 62.2275 209.415 62.6138 211.96 62.6138C214.46 62.6138 216.631 62.2502 218.472 61.5229C220.335 60.7957 221.778 59.7843 222.801 58.4888C223.824 57.1934 224.335 55.7047 224.335 54.0229C224.335 52.4547 223.869 51.1366 222.938 50.0684C222.028 49.0002 220.688 48.0911 218.915 47.3411C217.165 46.5911 215.017 45.9093 212.472 45.2957L204.869 43.3866C198.983 41.9547 194.335 39.7161 190.926 36.6707C187.517 33.6252 185.824 29.5229 185.847 24.3638C185.824 20.1366 186.949 16.4434 189.222 13.2843C191.517 10.1252 194.665 7.65926 198.665 5.88656C202.665 4.11376 207.21 3.22746 212.301 3.22746C217.483 3.22746 222.006 4.11376 225.869 5.88656C229.756 7.65926 232.778 10.1252 234.938 13.2843C237.097 16.4434 238.21 20.1025 238.278 24.2616H224.131ZM248.889 93.6362V21.6366H263.207V30.432H263.855C264.491 29.0229 265.412 27.5911 266.616 26.1366C267.844 24.6593 269.435 23.432 271.389 22.4547C273.366 21.4547 275.821 20.9547 278.753 20.9547C282.571 20.9547 286.094 21.9547 289.321 23.9547C292.548 25.932 295.128 28.9207 297.06 32.9207C298.991 36.8979 299.957 41.8866 299.957 47.8866C299.957 53.7275 299.014 58.6593 297.128 62.682C295.264 66.682 292.719 69.7161 289.491 71.7843C286.287 73.8297 282.696 74.8525 278.719 74.8525C275.901 74.8525 273.503 74.3866 271.526 73.4547C269.571 72.5229 267.969 71.3525 266.719 69.9434C265.469 68.5116 264.514 67.0684 263.855 65.6138H263.412V93.6362H248.889ZM263.105 47.8184C263.105 50.932 263.537 53.6479 264.401 55.9661C265.264 58.2843 266.514 60.0911 268.151 61.3866C269.787 62.6593 271.776 63.2957 274.116 63.2957C276.48 63.2957 278.48 62.6479 280.116 61.3525C281.753 60.0343 282.991 58.2161 283.832 55.8979C284.696 53.557 285.128 50.8638 285.128 47.8184C285.128 44.7957 284.707 42.1366 283.866 39.8411C283.026 37.5457 281.787 35.7502 280.151 34.4547C278.514 33.1593 276.503 32.5116 274.116 32.5116C271.753 32.5116 269.753 33.1366 268.116 34.3866C266.503 35.6366 265.264 37.4093 264.401 39.7047C263.537 42.0002 263.105 44.7047 263.105 47.8184ZM333.503 75.0229C328.116 75.0229 323.48 73.932 319.594 71.7502C315.73 69.5457 312.753 66.432 310.662 62.4093C308.571 58.3638 307.526 53.5797 307.526 48.057C307.526 42.6707 308.571 37.9434 310.662 33.8752C312.753 29.807 315.696 26.6366 319.491 24.3638C323.31 22.0911 327.787 20.9547 332.923 20.9547C336.378 20.9547 339.594 21.5116 342.571 22.6252C345.571 23.7161 348.185 25.3638 350.412 27.5684C352.662 29.7729 354.412 32.5457 355.662 35.8866C356.912 39.2047 357.537 43.0911 357.537 47.5457V51.5343H313.321V42.5343H343.866C343.866 40.4434 343.412 38.5911 342.503 36.9775C341.594 35.3638 340.332 34.1025 338.719 33.1934C337.128 32.2616 335.276 31.7957 333.162 31.7957C330.957 31.7957 329.003 32.307 327.298 33.3297C325.616 34.3297 324.298 35.682 323.344 37.3866C322.389 39.0684 321.901 40.9434 321.878 43.0116V51.5684C321.878 54.1593 322.355 56.3979 323.31 58.2843C324.287 60.1707 325.662 61.6252 327.435 62.6479C329.207 63.6707 331.31 64.182 333.741 64.182C335.355 64.182 336.832 63.9547 338.173 63.5002C339.514 63.0457 340.662 62.3638 341.616 61.4547C342.571 60.5457 343.298 59.432 343.798 58.1138L357.23 59.0002C356.548 62.2275 355.151 65.0457 353.037 67.4547C350.946 69.8411 348.241 71.7047 344.923 73.0457C341.628 74.3638 337.821 75.0229 333.503 75.0229ZM381.946 74.9888C378.605 74.9888 375.628 74.4093 373.014 73.2502C370.401 72.0684 368.332 70.3297 366.81 68.0343C365.31 65.7161 364.56 62.8297 364.56 59.3752C364.56 56.4661 365.094 54.0229 366.162 52.0457C367.23 50.0684 368.685 48.4775 370.526 47.2729C372.366 46.0684 374.457 45.1593 376.798 44.5457C379.162 43.932 381.639 43.5002 384.23 43.2502C387.276 42.932 389.73 42.6366 391.594 42.3638C393.457 42.0684 394.81 41.6366 395.651 41.0684C396.491 40.5002 396.912 39.6593 396.912 38.5457V38.3411C396.912 36.182 396.23 34.5116 394.866 33.3297C393.526 32.1479 391.616 31.557 389.139 31.557C386.526 31.557 384.446 32.1366 382.901 33.2957C381.355 34.432 380.332 35.8638 379.832 37.5911L366.401 36.5002C367.082 33.3184 368.423 30.5684 370.423 28.2502C372.423 25.9093 375.003 24.1138 378.162 22.8638C381.344 21.5911 385.026 20.9547 389.207 20.9547C392.116 20.9547 394.901 21.2957 397.56 21.9775C400.241 22.6593 402.616 23.7161 404.685 25.1479C406.776 26.5797 408.423 28.4207 409.628 30.6707C410.832 32.8979 411.435 35.5684 411.435 38.682V74.0002H397.662V66.7388H397.253C396.412 68.3752 395.287 69.8184 393.878 71.0684C392.469 72.2957 390.776 73.2616 388.798 73.9661C386.821 74.6479 384.537 74.9888 381.946 74.9888ZM386.105 64.9661C388.241 64.9661 390.128 64.5457 391.764 63.7047C393.401 62.8411 394.685 61.682 395.616 60.2275C396.548 58.7729 397.014 57.1252 397.014 55.2843V49.7275C396.56 50.0229 395.935 50.2957 395.139 50.5457C394.366 50.7729 393.491 50.9888 392.514 51.1934C391.537 51.3752 390.56 51.5457 389.582 51.7047C388.605 51.8411 387.719 51.9661 386.923 52.0797C385.219 52.3297 383.73 52.7275 382.457 53.2729C381.185 53.8184 380.196 54.557 379.491 55.4888C378.787 56.3979 378.435 57.5343 378.435 58.8979C378.435 60.8752 379.151 62.3866 380.582 63.432C382.037 64.4547 383.878 64.9661 386.105 64.9661ZM435.861 58.932L435.895 41.5116H438.009L454.781 21.6366H471.452L448.918 47.9547H445.474L435.861 58.932ZM422.702 74.0002V4.18196H437.224V74.0002H422.702ZM455.429 74.0002L440.02 51.1934L449.702 40.932L472.44 74.0002H455.429ZM490.884 74.0002H475.065L499.168 4.18196H518.19L542.259 74.0002H526.44L508.952 20.1366H508.406L490.884 74.0002ZM489.895 46.557H527.259V58.0797H489.895V46.557ZM565.423 4.18196V74.0002H550.662V4.18196H565.423Z" fill="currentColor" style="fill: rgb(24, 24, 27) !important;"/>
                </svg>