<?xml version="1.0" encoding="UTF-8" standalone="no"?>
<!DOCTYPE svg PUBLIC "-//W3C//DTD SVG 1.1//EN" "http://www.w3.org/Graphics/SVG/1.1/DTD/svg11.dtd">
<svg xmlns="http://www.w3.org/2000/svg" version="1.1" viewBox="0.00 0.00 341.00 341.00">
<g stroke-width="2.00" fill="none" stroke-linecap="butt">
<path stroke="#99cce6" vector-effect="non-scaling-stroke" d="
  M 229.51 68.97
  Q 230.24 69.87 231.25 69.48"
/>
<path stroke="#99cce6" vector-effect="non-scaling-stroke" d="
  M 232.16 69.85
  Q 233.43 70.72 235.38 70.78"
/>
<path stroke="#999999" vector-effect="non-scaling-stroke" d="
  M 235.38 70.78
  Q 236.07 71.09 235.98 71.25"
/>
<path stroke="#99cce6" vector-effect="non-scaling-stroke" d="
  M 235.98 71.25
  Q 241.71 73.11 246.92 76.03
  C 251.46 78.59 253.72 81.43 253.83 86.51
  Q 254.10 98.42 253.84 103.44
  Q 253.66 107.12 252.54 109.82
  A 3.74 3.73 14.6 0 1 248.64 112.10
  Q 246.78 111.88 244.79 110.72
  Q 238.52 107.10 230.82 103.67
  Q 217.73 97.85 203.04 98.35
  C 190.77 98.77 179.99 104.63 178.62 117.78
  Q 177.51 128.39 185.42 135.61
  Q 191.88 141.51 200.91 145.58
  C 226.87 157.29 256.84 167.09 264.51 198.33
  C 266.09 204.75 266.16 213.80 265.53 220.26
  Q 263.63 239.80 250.44 254.44
  Q 238.72 267.44 218.59 273.21"
/>
<path stroke="#999999" vector-effect="non-scaling-stroke" d="
  M 162.09 273.23
  Q 152.76 270.71 144.38 266.38
  C 138.59 263.38 134.51 260.41 133.68 254.51
  C 132.97 249.43 132.97 243.03 133.32 236.68
  C 133.69 230.05 136.02 223.41 144.05 228.60
  C 155.19 235.80 168.54 241.62 181.52 242.94
  Q 190.47 243.85 198.38 242.87
  C 213.35 241.02 224.16 231.02 222.72 215.06
  C 222.09 208.11 217.22 202.32 211.81 198.67
  C 200.46 191.01 184.76 185.05 175.81 180.68
  C 165.51 175.66 155.47 169.37 148.10 160.17
  Q 136.79 146.04 136.51 127.76
  Q 136.35 116.97 138.13 108.93"
/>
<path stroke="#336680" vector-effect="non-scaling-stroke" d="
  M 237.22 71.05
  Q 236.66 71.01 235.98 71.25"
/>
<path stroke="#336680" vector-effect="non-scaling-stroke" d="
  M 235.47 70.63
  Q 235.42 70.70 235.38 70.78"
/>
</g>
<path fill="#ffffff" d="
  M 229.51 68.97
  Q 230.24 69.87 231.25 69.48
  L 232.16 69.85
  Q 233.43 70.72 235.38 70.78
  Q 236.07 71.09 235.98 71.25
  Q 241.71 73.11 246.92 76.03
  C 251.46 78.59 253.72 81.43 253.83 86.51
  Q 254.10 98.42 253.84 103.44
  Q 253.66 107.12 252.54 109.82
  A 3.74 3.73 14.6 0 1 248.64 112.10
  Q 246.78 111.88 244.79 110.72
  Q 238.52 107.10 230.82 103.67
  Q 217.73 97.85 203.04 98.35
  C 190.77 98.77 179.99 104.63 178.62 117.78
  Q 177.51 128.39 185.42 135.61
  Q 191.88 141.51 200.91 145.58
  C 226.87 157.29 256.84 167.09 264.51 198.33
  C 266.09 204.75 266.16 213.80 265.53 220.26
  Q 263.63 239.80 250.44 254.44
  Q 238.72 267.44 218.59 273.21
  Q 190.66 280.66 162.09 273.23
  Q 152.76 270.71 144.38 266.38
  C 138.59 263.38 134.51 260.41 133.68 254.51
  C 132.97 249.43 132.97 243.03 133.32 236.68
  C 133.69 230.05 136.02 223.41 144.05 228.60
  C 155.19 235.80 168.54 241.62 181.52 242.94
  Q 190.47 243.85 198.38 242.87
  C 213.35 241.02 224.16 231.02 222.72 215.06
  C 222.09 208.11 217.22 202.32 211.81 198.67
  C 200.46 191.01 184.76 185.05 175.81 180.68
  C 165.51 175.66 155.47 169.37 148.10 160.17
  Q 136.79 146.04 136.51 127.76
  Q 136.35 116.97 138.13 108.93
  Q 145.50 83.10 169.66 72.68
  Q 181.26 67.68 194.50 66.51
  Q 212.29 64.95 229.51 68.97
  Z"
/>
<path fill="#3399cc" d="
  M 231.25 69.48
  Q 230.24 69.87 229.51 68.97
  Q 230.68 68.93 231.25 69.48
  Z"
/>
<path fill="#3399cc" d="
  M 235.47 70.63
  Q 235.42 70.70 235.38 70.78
  Q 233.43 70.72 232.16 69.85
  Q 234.06 69.57 235.47 70.63
  Z"
/>
<path fill="#333333" d="
  M 237.22 71.05
  Q 236.66 71.01 235.98 71.25
  Q 236.07 71.09 235.38 70.78
  Q 235.42 70.70 235.47 70.63
  Q 236.53 70.68 237.22 71.05
  Z"
/>
<path fill="#3399cc" d="
  M 237.22 71.05
  Q 245.30 73.58 250.47 76.26
  Q 259.44 80.91 268.04 89.17
  Q 268.94 90.03 269.71 90.47
  C 270.61 90.97 270.85 92.03 271.57 92.75
  Q 275.28 96.48 277.74 99.61
  Q 278.81 100.97 282.48 106.76
  Q 285.09 110.88 286.45 114.13
  Q 290.63 124.15 291.20 127.30
  Q 291.62 129.67 292.49 132.04
  Q 292.84 132.99 292.69 133.49
  Q 292.46 134.22 292.97 134.70
  A 1.71 1.71 0.0 0 1 293.53 135.92
  L 293.89 148.28
  A 2.10 1.89 -58.7 0 0 294.01 148.91
  Q 294.04 148.98 294.15 149.22
  A 1.09 1.09 0.0 0 1 294.13 150.19
  Q 293.71 151.04 293.83 152.17
  A 1.04 1.03 -76.3 0 0 294.29 152.93
  C 295.73 153.90 297.62 154.27 298.72 154.79
  Q 320.45 165.19 329.53 184.74
  Q 330.59 187.01 331.72 189.95
  Q 333.66 194.99 334.47 200.19
  Q 335.16 204.61 335.02 209.33
  C 334.89 213.20 335.22 217.31 334.61 221.55
  Q 332.80 234.10 325.65 245.18
  Q 321.56 251.51 315.90 256.94
  Q 313.89 258.87 312.17 260.08
  C 310.22 261.46 308.64 263.03 306.96 263.96
  Q 300.65 267.49 297.26 269.01
  Q 295.35 269.86 290.92 271.07
  Q 287.82 271.92 287.24 272.09
  Q 284.76 272.80 283.52 272.69
  Q 282.30 272.58 281.73 273.08
  A 0.70 0.69 22.8 0 1 281.25 273.27
  L 218.59 273.21
  Q 238.72 267.44 250.44 254.44
  Q 263.63 239.80 265.53 220.26
  C 266.16 213.80 266.09 204.75 264.51 198.33
  C 256.84 167.09 226.87 157.29 200.91 145.58
  Q 191.88 141.51 185.42 135.61
  Q 177.51 128.39 178.62 117.78
  C 179.99 104.63 190.77 98.77 203.04 98.35
  Q 217.73 97.85 230.82 103.67
  Q 238.52 107.10 244.79 110.72
  Q 246.78 111.88 248.64 112.10
  A 3.74 3.73 14.6 0 0 252.54 109.82
  Q 253.66 107.12 253.84 103.44
  Q 254.10 98.42 253.83 86.51
  C 253.72 81.43 251.46 78.59 246.92 76.03
  Q 241.71 73.11 235.98 71.25
  Q 236.66 71.01 237.22 71.05
  Z"
/>
<path fill="#333333" d="
  M 138.13 108.93
  Q 136.35 116.97 136.51 127.76
  Q 136.79 146.04 148.10 160.17
  C 155.47 169.37 165.51 175.66 175.81 180.68
  C 184.76 185.05 200.46 191.01 211.81 198.67
  C 217.22 202.32 222.09 208.11 222.72 215.06
  C 224.16 231.02 213.35 241.02 198.38 242.87
  Q 190.47 243.85 181.52 242.94
  C 168.54 241.62 155.19 235.80 144.05 228.60
  C 136.02 223.41 133.69 230.05 133.32 236.68
  C 132.97 243.03 132.97 249.43 133.68 254.51
  C 134.51 260.41 138.59 263.38 144.38 266.38
  Q 152.76 270.71 162.09 273.23
  Q 87.04 273.44 64.75 273.28
  C 44.52 273.14 24.79 261.11 14.36 244.11
  C -1.36 218.49 3.28 185.34 25.60 165.34
  C 37.35 154.81 54.17 148.07 70.03 149.72
  A 0.82 0.81 -76.7 0 0 70.88 149.19
  Q 78.62 128.12 97.84 116.61
  Q 115.94 105.76 138.13 108.93
  Z"
/>
</svg>
