<svg width="128" height="128" viewBox="0 0 128 128" fill="none" xmlns="http://www.w3.org/2000/svg">
<g clip-path="url(#clip0_240_6554)">
<path d="M94.4 19.449H34.88V86.7912H94.4V19.449Z" fill="white" stroke="black"/>
<path d="M64.0356 126.898C73.1378 127.004 81.3156 124.871 84.1956 118.862C85.2622 116.516 85.2622 114.987 85.7956 112.32C87.8222 101.796 92.9778 92.0889 100.587 84.5511C108.622 76.7289 115.058 64.1778 115.058 50.7733C115.058 23.8578 92.6578 1.56443 64 1.45776C35.4133 1.52887 12.9778 23.8578 12.9778 50.7733C13.1556 63.5022 18.3467 75.6622 27.4489 84.5511C35.0933 92.0889 40.2489 101.796 42.24 112.32C42.7733 115.093 42.7733 116.622 43.84 118.862C46.7556 124.871 55.04 127.04 64.0356 126.898ZM85.9022 69.6533C85.9022 76.8355 79.4667 83.5911 63.8222 83.5911C48.1778 83.5911 41.8489 76.8355 41.8489 69.6533V66.7733C41.8489 65.3867 42.3822 64.7467 43.7689 64.7467H50.0978C51.5911 64.7467 52.0178 65.3867 52.0178 66.7733V69.2267C52.0178 73.4222 56.4267 75.3422 63.8222 75.3422C71.2178 75.3422 75.6267 73.4222 75.6267 69.2267V66.1333C75.6267 63.36 73.28 61.8311 69.5111 60.5511L52.1245 54.5422C47.8222 53.0489 43.1289 48.64 43.1289 42.8444V38.5422C43.1289 31.36 48.4978 24.2844 64.1422 24.2844C79.7867 24.2844 85.1556 31.36 85.1556 38.5422V41.3155C85.1556 42.8089 84.7289 43.3422 83.1289 43.3422H77.12C75.7333 43.3422 75.2 42.8089 75.2 41.3155V38.5422C75.2 34.3467 71.3244 32.4267 64.1422 32.4267C56.96 32.4267 53.2978 34.3467 53.2978 38.5422V40.4622C53.2978 43.4489 56.0711 45.0844 58.1333 45.8311L75.52 51.84C81.9556 54.08 85.9378 57.7422 85.9378 63.2178L85.9022 69.6533Z" fill="#00AE41"/>
</g>
<defs>
<clipPath id="clip0_240_6554">
<rect width="128" height="128" fill="white"/>
</clipPath>
</defs>
</svg>
