<?xml version="1.0" encoding="UTF-8" standalone="no"?>
<!DOCTYPE svg PUBLIC "-//W3C//DTD SVG 1.1//EN" "http://www.w3.org/Graphics/SVG/1.1/DTD/svg11.dtd">
<svg xmlns="http://www.w3.org/2000/svg" version="1.1" viewBox="0.00 0.00 16.00 16.00">
<path fill="#be2221" fill-opacity="0.992" d="
  M 0.00 7.71
  L 0.00 6.47
  Q 6.08 2.42 14.27 5.28
  Q 15.66 5.77 15.83 7.02
  A 1.03 0.98 -35.2 0 1 15.71 7.63
  Q 15.18 8.61 14.39 8.87
  A 0.22 0.21 -71.8 0 1 14.20 8.49
  Q 15.06 7.86 15.15 7.27
  Q 15.26 6.56 14.46 5.95
  C 11.83 3.96 3.74 4.24 1.50 6.78
  A 0.85 0.84 41.0 0 0 1.59 7.98
  Q 2.70 8.92 4.32 9.26
  A 0.14 0.14 0.0 0 1 4.43 9.42
  A 0.14 0.14 0.0 0 1 4.28 9.54
  Q 1.80 9.36 0.00 7.71
  Z"
/>
<path fill="#be2221" fill-opacity="0.992" d="
  M 10.25 10.77
  Q 10.12 10.45 10.55 10.31
  Q 11.03 10.14 11.68 10.74
  A 0.62 0.55 60.7 0 1 11.45 11.78
  Q 10.73 11.85 10.25 10.77
  Z"
/>
</svg>
