<?xml version="1.0" encoding="UTF-8" standalone="no"?>
<!DOCTYPE svg PUBLIC "-//W3C//DTD SVG 1.1//EN" "http://www.w3.org/Graphics/SVG/1.1/DTD/svg11.dtd">
<svg xmlns="http://www.w3.org/2000/svg" version="1.1" viewBox="0.00 0.00 400.00 400.00">
<g stroke-width="2.00" fill="none" stroke-linecap="butt">
<path stroke="#91959b" vector-effect="non-scaling-stroke" d="
  M 285.89 232.54
  Q 289.33 232.38 293.25 232.27
  Q 303.35 231.99 312.06 229.24
  A 0.62 0.62 0.0 0 0 312.49 228.65
  L 312.49 199.41
  A 0.44 0.44 0.0 0 0 312.05 198.97
  L 287.99 198.97
  A 0.61 0.61 0.0 0 0 287.38 199.58
  L 287.38 209.94
  A 0.88 0.87 -90.0 0 0 288.25 210.82
  L 297.33 210.82
  A 0.50 0.50 0.0 0 1 297.83 211.32
  L 297.83 218.56
  A 0.73 0.72 -4.7 0 1 297.22 219.27
  C 288.49 220.71 281.10 219.41 279.09 209.37
  C 276.38 195.74 283.23 185.31 297.89 188.19
  Q 302.01 189.00 305.87 190.58
  A 0.55 0.55 0.0 0 0 306.59 190.28
  L 310.99 179.54
  A 0.83 0.82 -68.4 0 0 310.52 178.45
  C 299.74 174.40 284.42 173.59 274.42 179.68
  C 263.80 186.15 261.13 198.41 262.76 209.95
  Q 263.90 217.96 269.11 224.69"
/>
<path stroke="#bfd8f8" vector-effect="non-scaling-stroke" d="
  M 269.11 224.69
  Q 268.00 224.97 266.82 225.18
  Q 265.46 225.42 264.59 225.82
  Q 254.06 230.59 244.65 237.24
  A 0.32 0.32 0.0 0 1 244.15 236.96
  Q 244.20 236.12 244.24 236.04
  Q 254.16 213.54 256.83 191.15
  Q 258.72 175.27 255.38 162.81
  C 250.93 146.21 237.03 128.44 217.49 132.78
  C 207.33 135.03 198.86 141.58 191.34 149.34
  C 188.55 152.21 186.18 155.47 187.56 159.29
  Q 188.50 161.90 191.21 162.98
  C 194.86 164.44 197.34 162.68 199.93 159.61
  C 204.93 153.70 211.44 148.35 219.22 145.89
  C 229.41 142.66 237.26 152.48 240.65 160.60
  C 247.01 175.85 244.61 193.33 239.99 209.02
  C 235.07 225.69 227.99 242.13 219.30 257.30
  C 217.24 260.88 216.26 264.68 219.68 267.33
  C 223.63 270.40 226.98 268.57 230.43 265.34
  C 241.52 254.97 253.84 245.97 267.18 239.14
  Q 274.53 235.38 285.89 232.54"
/>
<path stroke="#516e94" vector-effect="non-scaling-stroke" d="
  M 269.11 224.69
  Q 275.72 231.04 285.89 232.54"
/>
<path stroke="#91959b" vector-effect="non-scaling-stroke" d="
  M 25.93 215.64
  L 25.93 228.55
  A 0.91 0.91 0.0 0 0 26.52 229.40
  Q 36.46 233.29 46.96 232.31
  C 55.69 231.49 64.34 226.95 65.72 217.70
  Q 67.51 205.71 56.85 200.40
  Q 52.25 198.11 44.83 194.72
  Q 43.76 194.24 41.83 191.97
  A 1.30 1.28 -59.9 0 1 41.54 190.86
  C 42.94 184.04 56.68 189.17 60.76 190.90
  A 0.49 0.49 0.0 0 0 61.40 190.64
  L 65.91 179.65
  A 0.36 0.35 22.9 0 0 65.72 179.19
  Q 52.43 173.38 38.68 176.35
  C 28.28 178.60 23.94 188.32 27.13 197.96
  C 29.85 206.21 42.26 209.48 47.80 212.64
  C 53.12 215.68 48.98 220.10 44.75 220.05
  Q 34.77 219.94 26.28 215.43
  A 0.24 0.24 0.0 0 0 25.93 215.64"
/>
<path stroke="#91959b" vector-effect="non-scaling-stroke" d="
  M 374.1323 199.3917
  A 24.09 24.09 0.0 0 0 350.0003 175.3438
  L 342.8803 175.3563
  A 24.09 24.09 0.0 0 0 318.8324 199.4883
  L 318.8477 208.2483
  A 24.09 24.09 0.0 0 0 342.9797 232.2962
  L 350.0997 232.2837
  A 24.09 24.09 0.0 0 0 374.1476 208.1517
  L 374.1323 199.3917"
/>
<path stroke="#91959b" vector-effect="non-scaling-stroke" d="
  M 124.00 193.41
  L 124.00 231.12
  A 0.50 0.50 0.0 0 0 124.50 231.62
  L 137.85 231.62
  A 0.60 0.59 0.0 0 0 138.45 231.03
  L 138.45 176.57
  A 0.49 0.48 -0.0 0 0 137.96 176.09
  L 118.23 176.09
  A 1.12 1.12 0.0 0 0 117.15 176.91
  L 106.33 214.29
  A 0.50 0.49 44.7 0 1 105.38 214.29
  L 94.03 176.71
  A 0.86 0.85 81.8 0 0 93.21 176.09
  L 73.65 176.09
  A 0.56 0.55 -90.0 0 0 73.10 176.65
  L 73.10 231.08
  A 0.53 0.52 90.0 0 0 73.62 231.61
  L 86.53 231.61
  A 0.45 0.44 90.0 0 0 86.97 231.16
  C 86.99 217.17 87.55 205.52 86.16 193.27
  A 0.17 0.17 0.0 0 1 86.49 193.21
  L 97.75 230.50
  A 1.57 1.57 0.0 0 0 99.25 231.61
  L 112.30 231.61
  A 0.83 0.81 8.0 0 0 113.09 231.03
  L 123.98 193.40
  A 0.01 0.01 0.0 0 1 124.00 193.41"
/>
<path stroke="#91959b" vector-effect="non-scaling-stroke" d="
  M 164.98 231.64
  Q 171.03 231.63 172.30 231.56
  A 0.50 0.50 0.0 0 0 172.77 231.06
  L 172.77 189.03
  A 0.37 0.37 0.0 0 1 173.14 188.66
  L 186.20 188.66
  A 0.51 0.51 0.0 0 0 186.71 188.15
  L 186.71 176.54
  A 0.44 0.44 0.0 0 0 186.27 176.10
  Q 185.77 176.09 164.93 176.11
  Q 144.09 176.13 143.59 176.13
  A 0.44 0.44 0.0 0 0 143.15 176.58
  L 143.17 188.19
  A 0.51 0.51 0.0 0 0 143.68 188.70
  L 156.74 188.67
  A 0.37 0.37 0.0 0 1 157.11 189.04
  L 157.18 231.07
  A 0.50 0.50 0.0 0 0 157.65 231.57
  Q 158.93 231.64 164.98 231.64"
/>
<path stroke="#91959b" vector-effect="non-scaling-stroke" d="
  M 209.11 213.18
  C 218.06 214.15 228.66 211.99 232.78 203.36
  Q 236.63 195.31 233.47 186.51
  C 231.12 179.96 223.57 176.24 216.00 176.15
  Q 207.02 176.04 193.55 176.11
  A 0.55 0.55 0.0 0 0 193.00 176.66
  L 193.00 231.02
  A 0.59 0.59 0.0 0 0 193.59 231.61
  L 207.83 231.61
  A 0.83 0.83 0.0 0 0 208.66 230.78
  L 208.66 213.58
  A 0.41 0.40 3.2 0 1 209.11 213.18"
/>
<path stroke="#91959b" vector-effect="non-scaling-stroke" d="
  M 335.17 203.71
  C 335.16 211.42 336.98 219.71 346.50 219.72
  C 356.02 219.74 357.87 211.45 357.88 203.74
  C 357.89 196.03 356.06 187.74 346.54 187.73
  C 337.02 187.71 335.18 196.00 335.17 203.71"
/>
<path stroke="#91959b" vector-effect="non-scaling-stroke" d="
  M 208.67 188.73
  L 208.65 200.35
  A 0.48 0.48 0.0 0 0 209.13 200.83
  L 212.33 200.84
  A 6.58 5.84 0.1 0 0 218.92 195.01
  L 218.92 194.11
  A 6.58 5.84 0.1 0 0 212.35 188.26
  L 209.15 188.25
  A 0.48 0.48 0.0 0 0 208.67 188.73"
/>
</g>
<path fill="#ffffff" d="
  M 400.00 0.00
  L 400.00 400.00
  L 0.00 400.00
  L 0.00 0.00
  L 400.00 0.00
  Z
  M 285.89 232.54
  Q 289.33 232.38 293.25 232.27
  Q 303.35 231.99 312.06 229.24
  A 0.62 0.62 0.0 0 0 312.49 228.65
  L 312.49 199.41
  A 0.44 0.44 0.0 0 0 312.05 198.97
  L 287.99 198.97
  A 0.61 0.61 0.0 0 0 287.38 199.58
  L 287.38 209.94
  A 0.88 0.87 -90.0 0 0 288.25 210.82
  L 297.33 210.82
  A 0.50 0.50 0.0 0 1 297.83 211.32
  L 297.83 218.56
  A 0.73 0.72 -4.7 0 1 297.22 219.27
  C 288.49 220.71 281.10 219.41 279.09 209.37
  C 276.38 195.74 283.23 185.31 297.89 188.19
  Q 302.01 189.00 305.87 190.58
  A 0.55 0.55 0.0 0 0 306.59 190.28
  L 310.99 179.54
  A 0.83 0.82 -68.4 0 0 310.52 178.45
  C 299.74 174.40 284.42 173.59 274.42 179.68
  C 263.80 186.15 261.13 198.41 262.76 209.95
  Q 263.90 217.96 269.11 224.69
  Q 268.00 224.97 266.82 225.18
  Q 265.46 225.42 264.59 225.82
  Q 254.06 230.59 244.65 237.24
  A 0.32 0.32 0.0 0 1 244.15 236.96
  Q 244.20 236.12 244.24 236.04
  Q 254.16 213.54 256.83 191.15
  Q 258.72 175.27 255.38 162.81
  C 250.93 146.21 237.03 128.44 217.49 132.78
  C 207.33 135.03 198.86 141.58 191.34 149.34
  C 188.55 152.21 186.18 155.47 187.56 159.29
  Q 188.50 161.90 191.21 162.98
  C 194.86 164.44 197.34 162.68 199.93 159.61
  C 204.93 153.70 211.44 148.35 219.22 145.89
  C 229.41 142.66 237.26 152.48 240.65 160.60
  C 247.01 175.85 244.61 193.33 239.99 209.02
  C 235.07 225.69 227.99 242.13 219.30 257.30
  C 217.24 260.88 216.26 264.68 219.68 267.33
  C 223.63 270.40 226.98 268.57 230.43 265.34
  C 241.52 254.97 253.84 245.97 267.18 239.14
  Q 274.53 235.38 285.89 232.54
  Z
  M 25.93 215.64
  L 25.93 228.55
  A 0.91 0.91 0.0 0 0 26.52 229.40
  Q 36.46 233.29 46.96 232.31
  C 55.69 231.49 64.34 226.95 65.72 217.70
  Q 67.51 205.71 56.85 200.40
  Q 52.25 198.11 44.83 194.72
  Q 43.76 194.24 41.83 191.97
  A 1.30 1.28 -59.9 0 1 41.54 190.86
  C 42.94 184.04 56.68 189.17 60.76 190.90
  A 0.49 0.49 0.0 0 0 61.40 190.64
  L 65.91 179.65
  A 0.36 0.35 22.9 0 0 65.72 179.19
  Q 52.43 173.38 38.68 176.35
  C 28.28 178.60 23.94 188.32 27.13 197.96
  C 29.85 206.21 42.26 209.48 47.80 212.64
  C 53.12 215.68 48.98 220.10 44.75 220.05
  Q 34.77 219.94 26.28 215.43
  A 0.24 0.24 0.0 0 0 25.93 215.64
  Z
  M 374.1323 199.3917
  A 24.09 24.09 0.0 0 0 350.0003 175.3438
  L 342.8803 175.3563
  A 24.09 24.09 0.0 0 0 318.8324 199.4883
  L 318.8477 208.2483
  A 24.09 24.09 0.0 0 0 342.9797 232.2962
  L 350.0997 232.2837
  A 24.09 24.09 0.0 0 0 374.1476 208.1517
  L 374.1323 199.3917
  Z
  M 124.00 193.41
  L 124.00 231.12
  A 0.50 0.50 0.0 0 0 124.50 231.62
  L 137.85 231.62
  A 0.60 0.59 0.0 0 0 138.45 231.03
  L 138.45 176.57
  A 0.49 0.48 -0.0 0 0 137.96 176.09
  L 118.23 176.09
  A 1.12 1.12 0.0 0 0 117.15 176.91
  L 106.33 214.29
  A 0.50 0.49 44.7 0 1 105.38 214.29
  L 94.03 176.71
  A 0.86 0.85 81.8 0 0 93.21 176.09
  L 73.65 176.09
  A 0.56 0.55 -90.0 0 0 73.10 176.65
  L 73.10 231.08
  A 0.53 0.52 90.0 0 0 73.62 231.61
  L 86.53 231.61
  A 0.45 0.44 90.0 0 0 86.97 231.16
  C 86.99 217.17 87.55 205.52 86.16 193.27
  A 0.17 0.17 0.0 0 1 86.49 193.21
  L 97.75 230.50
  A 1.57 1.57 0.0 0 0 99.25 231.61
  L 112.30 231.61
  A 0.83 0.81 8.0 0 0 113.09 231.03
  L 123.98 193.40
  A 0.01 0.01 0.0 0 1 124.00 193.41
  Z
  M 164.98 231.64
  Q 171.03 231.63 172.30 231.56
  A 0.50 0.50 0.0 0 0 172.77 231.06
  L 172.77 189.03
  A 0.37 0.37 0.0 0 1 173.14 188.66
  L 186.20 188.66
  A 0.51 0.51 0.0 0 0 186.71 188.15
  L 186.71 176.54
  A 0.44 0.44 0.0 0 0 186.27 176.10
  Q 185.77 176.09 164.93 176.11
  Q 144.09 176.13 143.59 176.13
  A 0.44 0.44 0.0 0 0 143.15 176.58
  L 143.17 188.19
  A 0.51 0.51 0.0 0 0 143.68 188.70
  L 156.74 188.67
  A 0.37 0.37 0.0 0 1 157.11 189.04
  L 157.18 231.07
  A 0.50 0.50 0.0 0 0 157.65 231.57
  Q 158.93 231.64 164.98 231.64
  Z
  M 209.11 213.18
  C 218.06 214.15 228.66 211.99 232.78 203.36
  Q 236.63 195.31 233.47 186.51
  C 231.12 179.96 223.57 176.24 216.00 176.15
  Q 207.02 176.04 193.55 176.11
  A 0.55 0.55 0.0 0 0 193.00 176.66
  L 193.00 231.02
  A 0.59 0.59 0.0 0 0 193.59 231.61
  L 207.83 231.61
  A 0.83 0.83 0.0 0 0 208.66 230.78
  L 208.66 213.58
  A 0.41 0.40 3.2 0 1 209.11 213.18
  Z"
/>
<path fill="#7fb1f1" d="
  M 269.11 224.69
  Q 275.72 231.04 285.89 232.54
  Q 274.53 235.38 267.18 239.14
  C 253.84 245.97 241.52 254.97 230.43 265.34
  C 226.98 268.57 223.63 270.40 219.68 267.33
  C 216.26 264.68 217.24 260.88 219.30 257.30
  C 227.99 242.13 235.07 225.69 239.99 209.02
  C 244.61 193.33 247.01 175.85 240.65 160.60
  C 237.26 152.48 229.41 142.66 219.22 145.89
  C 211.44 148.35 204.93 153.70 199.93 159.61
  C 197.34 162.68 194.86 164.44 191.21 162.98
  Q 188.50 161.90 187.56 159.29
  C 186.18 155.47 188.55 152.21 191.34 149.34
  C 198.86 141.58 207.33 135.03 217.49 132.78
  C 237.03 128.44 250.93 146.21 255.38 162.81
  Q 258.72 175.27 256.83 191.15
  Q 254.16 213.54 244.24 236.04
  Q 244.20 236.12 244.15 236.96
  A 0.32 0.32 0.0 0 0 244.65 237.24
  Q 254.06 230.59 264.59 225.82
  Q 265.46 225.42 266.82 225.18
  Q 268.00 224.97 269.11 224.69
  Z"
/>
<path fill="#222a36" d="
  M 25.93 215.64
  A 0.24 0.24 0.0 0 1 26.28 215.43
  Q 34.77 219.94 44.75 220.05
  C 48.98 220.10 53.12 215.68 47.80 212.64
  C 42.26 209.48 29.85 206.21 27.13 197.96
  C 23.94 188.32 28.28 178.60 38.68 176.35
  Q 52.43 173.38 65.72 179.19
  A 0.36 0.35 22.9 0 1 65.91 179.65
  L 61.40 190.64
  A 0.49 0.49 0.0 0 1 60.76 190.90
  C 56.68 189.17 42.94 184.04 41.54 190.86
  A 1.30 1.28 -59.9 0 0 41.83 191.97
  Q 43.76 194.24 44.83 194.72
  Q 52.25 198.11 56.85 200.40
  Q 67.51 205.71 65.72 217.70
  C 64.34 226.95 55.69 231.49 46.96 232.31
  Q 36.46 233.29 26.52 229.40
  A 0.91 0.91 0.0 0 1 25.93 228.55
  L 25.93 215.64
  Z"
/>
<path fill="#222a36" d="
  M 285.89 232.54
  Q 275.72 231.04 269.11 224.69
  Q 263.90 217.96 262.76 209.95
  C 261.13 198.41 263.80 186.15 274.42 179.68
  C 284.42 173.59 299.74 174.40 310.52 178.45
  A 0.83 0.82 -68.4 0 1 310.99 179.54
  L 306.59 190.28
  A 0.55 0.55 0.0 0 1 305.87 190.58
  Q 302.01 189.00 297.89 188.19
  C 283.23 185.31 276.38 195.74 279.09 209.37
  C 281.10 219.41 288.49 220.71 297.22 219.27
  A 0.73 0.72 -4.7 0 0 297.83 218.56
  L 297.83 211.32
  A 0.50 0.50 0.0 0 0 297.33 210.82
  L 288.25 210.82
  A 0.88 0.87 90.0 0 1 287.38 209.94
  L 287.38 199.58
  A 0.61 0.61 0.0 0 1 287.99 198.97
  L 312.05 198.97
  A 0.44 0.44 0.0 0 1 312.49 199.41
  L 312.49 228.65
  A 0.62 0.62 0.0 0 1 312.06 229.24
  Q 303.35 231.99 293.25 232.27
  Q 289.33 232.38 285.89 232.54
  Z"
/>
<path fill="#222a36" d="
  M 374.1476 208.1517
  A 24.09 24.09 0.0 0 1 350.0997 232.2837
  L 342.9797 232.2962
  A 24.09 24.09 0.0 0 1 318.8477 208.2483
  L 318.8324 199.4883
  A 24.09 24.09 0.0 0 1 342.8803 175.3563
  L 350.0003 175.3438
  A 24.09 24.09 0.0 0 1 374.1323 199.3917
  L 374.1476 208.1517
  Z
  M 335.17 203.71
  C 335.16 211.42 336.98 219.71 346.50 219.72
  C 356.02 219.74 357.87 211.45 357.88 203.74
  C 357.89 196.03 356.06 187.74 346.54 187.73
  C 337.02 187.71 335.18 196.00 335.17 203.71
  Z"
/>
<path fill="#222a36" d="
  M 124.00 193.41
  A 0.01 0.01 0.0 0 0 123.98 193.40
  L 113.09 231.03
  A 0.83 0.81 8.0 0 1 112.30 231.61
  L 99.25 231.61
  A 1.57 1.57 0.0 0 1 97.75 230.50
  L 86.49 193.21
  A 0.17 0.17 0.0 0 0 86.16 193.27
  C 87.55 205.52 86.99 217.17 86.97 231.16
  A 0.45 0.44 -90.0 0 1 86.53 231.61
  L 73.62 231.61
  A 0.53 0.52 90.0 0 1 73.10 231.08
  L 73.10 176.65
  A 0.56 0.55 -90.0 0 1 73.65 176.09
  L 93.21 176.09
  A 0.86 0.85 81.8 0 1 94.03 176.71
  L 105.38 214.29
  A 0.50 0.49 44.7 0 0 106.33 214.29
  L 117.15 176.91
  A 1.12 1.12 0.0 0 1 118.23 176.09
  L 137.96 176.09
  A 0.49 0.48 0.0 0 1 138.45 176.57
  L 138.45 231.03
  A 0.60 0.59 0.0 0 1 137.85 231.62
  L 124.50 231.62
  A 0.50 0.50 0.0 0 1 124.00 231.12
  L 124.00 193.41
  Z"
/>
<path fill="#222a36" d="
  M 164.93 176.11
  Q 185.77 176.09 186.27 176.10
  A 0.44 0.44 0.0 0 1 186.71 176.54
  L 186.71 188.15
  A 0.51 0.51 0.0 0 1 186.20 188.66
  L 173.14 188.66
  A 0.37 0.37 0.0 0 0 172.77 189.03
  L 172.77 231.06
  A 0.50 0.50 0.0 0 1 172.30 231.56
  Q 171.03 231.63 164.98 231.64
  Q 158.93 231.64 157.65 231.57
  A 0.50 0.50 0.0 0 1 157.18 231.07
  L 157.11 189.04
  A 0.37 0.37 0.0 0 0 156.74 188.67
  L 143.68 188.70
  A 0.51 0.51 0.0 0 1 143.17 188.19
  L 143.15 176.58
  A 0.44 0.44 0.0 0 1 143.59 176.13
  Q 144.09 176.13 164.93 176.11
  Z"
/>
<path fill="#222a36" d="
  M 209.11 213.18
  A 0.41 0.40 3.2 0 0 208.66 213.58
  L 208.66 230.78
  A 0.83 0.83 0.0 0 1 207.83 231.61
  L 193.59 231.61
  A 0.59 0.59 0.0 0 1 193.00 231.02
  L 193.00 176.66
  A 0.55 0.55 0.0 0 1 193.55 176.11
  Q 207.02 176.04 216.00 176.15
  C 223.57 176.24 231.12 179.96 233.47 186.51
  Q 236.63 195.31 232.78 203.36
  C 228.66 211.99 218.06 214.15 209.11 213.18
  Z
  M 208.67 188.73
  L 208.65 200.35
  A 0.48 0.48 0.0 0 0 209.13 200.83
  L 212.33 200.84
  A 6.58 5.84 0.1 0 0 218.92 195.01
  L 218.92 194.11
  A 6.58 5.84 0.1 0 0 212.35 188.26
  L 209.15 188.25
  A 0.48 0.48 0.0 0 0 208.67 188.73
  Z"
/>
<path fill="#ffffff" d="
  M 346.54 187.73
  C 356.06 187.74 357.89 196.03 357.88 203.74
  C 357.87 211.45 356.02 219.74 346.50 219.72
  C 336.98 219.71 335.16 211.42 335.17 203.71
  C 335.18 196.00 337.02 187.71 346.54 187.73
  Z"
/>
<path fill="#ffffff" d="
  M 208.67 188.73
  A 0.48 0.48 0.0 0 1 209.15 188.25
  L 212.35 188.26
  A 6.58 5.84 0.1 0 1 218.92 194.11
  L 218.92 195.01
  A 6.58 5.84 0.1 0 1 212.33 200.84
  L 209.13 200.83
  A 0.48 0.48 0.0 0 1 208.65 200.35
  L 208.67 188.73
  Z"
/>
</svg>
