<svg width="128" height="128" viewBox="0 0 128 128" fill="none" xmlns="http://www.w3.org/2000/svg">
<g clip-path="url(#clip0_240_6700)">
<path d="M38.1943 25.5697C49.6315 25.3926 55.1383 18.3298 54.3928 11.9041C53.7828 6.59371 48.8182 1.61961 39.3804 1.5311C36.1048 1.46605 32.9192 2.65356 30.4229 4.87028C27.9266 7.08701 26.2915 10.1802 25.8252 13.5681C25.0628 19.6397 28.6549 25.729 38.2621 25.5697" fill="#6DB801"/>
<path d="M94.1946 24.1181C105.174 23.4631 109.969 17.7101 110.037 11.9395C110.037 5.44305 104.175 -1.03568 94.3132 -0.203709C86.4003 0.468942 81.7577 6.20421 81.063 11.9395C80.2836 18.312 84.3671 24.6845 94.1946 24.1004" fill="#6DB801"/>
<path d="M51.8344 113.35C13.7444 113.35 18.9462 66.4238 25.351 66.1583C69.6256 64.2996 80.9103 62.7419 96.7359 62.3879C113.019 62.0162 81.9269 113.226 51.8344 113.35ZM100.379 48.1205C73.3871 50.9528 72.0655 51.236 22.4366 52.4397C1.49391 52.5282 5.72991 127.724 50.445 127.724C93.0082 127.777 144.569 44.2793 100.379 48.1205Z" fill="#6DB801"/>
</g>
<defs>
<clipPath id="clip0_240_6700">
<rect width="128" height="128" fill="white"/>
</clipPath>
</defs>
</svg>
