<?xml version="1.0" encoding="UTF-8" standalone="no"?>
<!DOCTYPE svg PUBLIC "-//W3C//DTD SVG 1.1//EN" "http://www.w3.org/Graphics/SVG/1.1/DTD/svg11.dtd">
<svg xmlns="http://www.w3.org/2000/svg" version="1.1" viewBox="0.00 0.00 316.00 316.00">
<g stroke-width="2.00" fill="none" stroke-linecap="butt">
<path stroke="#80bcff" vector-effect="non-scaling-stroke" d="
  M 242.03 267.17
  Q 231.84 257.89 219.17 252.07"
/>
<path stroke="#7ab7f9" vector-effect="non-scaling-stroke" d="
  M 219.17 252.07
  L 219.15 242.94
  A 0.47 0.47 0.0 0 0 218.68 242.47
  L 183.31 242.47
  A 0.60 0.59 -1.5 0 1 182.71 241.91
  L 182.58 239.79"
/>
<path stroke="#80bcff" vector-effect="non-scaling-stroke" d="
  M 182.58 239.79
  L 182.58 212.32"
/>
<path stroke="#7ab7f9" vector-effect="non-scaling-stroke" d="
  M 182.58 212.32
  L 182.77 210.35"
/>
<path stroke="#80bcff" vector-effect="non-scaling-stroke" d="
  M 182.77 210.35
  L 228.04 210.34
  A 0.76 0.76 0.0 0 0 228.78 209.74
  Q 236.68 172.08 216.26 139.77"
/>
<path stroke="#7ab7f9" vector-effect="non-scaling-stroke" d="
  M 216.26 139.77
  L 236.55 96.72"
/>
<path stroke="#80bcff" vector-effect="non-scaling-stroke" d="
  M 236.55 96.72
  C 243.88 97.65 247.66 89.52 244.92 83.57
  C 242.23 77.72 234.29 76.55 230.87 82.38
  Q 227.78 87.66 231.02 94.31"
/>
<path stroke="#7ab7f9" vector-effect="non-scaling-stroke" d="
  M 231.02 94.31
  L 208.30 129.82"
/>
<path stroke="#80bcff" vector-effect="non-scaling-stroke" d="
  M 208.30 129.82
  Q 198.62 119.30 186.90 113.39"
/>
<path stroke="#7ab7f9" vector-effect="non-scaling-stroke" d="
  M 186.90 113.39
  C 165.15 102.03 139.22 103.42 118.46 116.15"
/>
<path stroke="#80bcff" vector-effect="non-scaling-stroke" d="
  M 118.46 116.15
  Q 109.44 121.55 101.92 129.92"
/>
<path stroke="#7ab7f9" vector-effect="non-scaling-stroke" d="
  M 101.92 129.92
  L 79.07 94.02"
/>
<path stroke="#80bcff" vector-effect="non-scaling-stroke" d="
  M 79.07 94.02
  Q 83.50 86.52 77.57 80.30
  A 3.36 3.34 -7.3 0 0 76.88 79.77
  Q 72.24 77.19 68.23 79.99
  Q 63.67 83.16 64.73 89.17
  Q 66.07 96.85 73.70 96.86"
/>
<path stroke="#7ab7f9" vector-effect="non-scaling-stroke" d="
  M 73.70 96.86
  Q 83.53 117.42 93.38 138.34
  Q 94.02 139.71 93.55 140.73"
/>
<path stroke="#80bcff" vector-effect="non-scaling-stroke" d="
  M 93.55 140.73
  C 80.03 160.79 76.55 186.30 81.49 209.81
  A 0.74 0.73 84.2 0 0 82.21 210.40
  L 127.55 210.42"
/>
<path stroke="#7ab7f9" vector-effect="non-scaling-stroke" d="
  M 127.55 210.42
  L 127.53 213.53"
/>
<path stroke="#80bcff" vector-effect="non-scaling-stroke" d="
  M 127.53 213.53
  L 127.55 224.18"
/>
<path stroke="#7ab7f9" vector-effect="non-scaling-stroke" d="
  M 127.55 224.18
  L 127.54 228.94"
/>
<path stroke="#80bcff" vector-effect="non-scaling-stroke" d="
  M 127.54 228.94
  L 127.53 239.46"
/>
<path stroke="#7ab7f9" vector-effect="non-scaling-stroke" d="
  M 127.53 239.46
  L 127.62 241.92
  A 0.54 0.53 -1.0 0 1 127.08 242.47
  L 91.90 242.47
  A 0.55 0.54 -87.7 0 0 91.36 242.98
  L 90.76 252.08"
/>
<path stroke="#80bcff" vector-effect="non-scaling-stroke" d="
  M 90.76 252.08
  Q 80.01 256.73 71.64 263.90"
/>
<path stroke="#80bcff" vector-effect="non-scaling-stroke" d="
  M 224.64 278.46
  L 219.17 274.36"
/>
<path stroke="#80bcff" vector-effect="non-scaling-stroke" d="
  M 91.08 274.06
  Q 89.85 274.54 88.53 275.82"
/>
<path stroke="#fafafa" vector-effect="non-scaling-stroke" d="
  M 216.26 139.77
  L 213.86 144.38
  A 0.88 0.88 0.0 0 1 212.60 144.71
  L 203.50 138.81
  A 0.71 0.70 32.5 0 1 203.28 137.85
  L 208.30 129.82"
/>
<path stroke="#fafafa" vector-effect="non-scaling-stroke" d="
  M 182.58 212.32
  Q 177.70 213.58 171.59 213.57
  Q 149.59 213.54 127.53 213.53"
/>
<path stroke="#fafafa" vector-effect="non-scaling-stroke" d="
  M 182.77 210.35
  L 127.55 210.42"
/>
<path stroke="#918f8e" vector-effect="non-scaling-stroke" d="
  M 119.23 183.68
  Q 118.04 182.89 116.91 182.36
  A 2.52 2.45 -61.6 0 0 113.74 183.36
  C 112.23 185.84 114.17 187.58 116.48 188.72
  C 140.87 200.70 168.23 199.52 192.60 187.74
  A 3.01 3.00 68.4 0 0 194.16 184.12
  L 194.12 184.01
  A 2.50 2.40 70.1 0 0 190.89 182.41
  L 186.06 184.39"
/>
<path stroke="#fafafa" vector-effect="non-scaling-stroke" d="
  M 219.17 252.07
  Q 217.07 263.54 219.17 274.36"
/>
<path stroke="#7ab7f9" vector-effect="non-scaling-stroke" d="
  M 219.17 274.36
  L 219.02 281.36"
/>
<path stroke="#7ab7f9" vector-effect="non-scaling-stroke" d="
  M 91.00 277.26
  Q 91.50 275.36 91.08 274.06"
/>
<path stroke="#fafafa" vector-effect="non-scaling-stroke" d="
  M 91.08 274.06
  Q 91.81 261.16 91.31 257.76
  Q 90.90 255.05 90.76 252.08"
/>
<path stroke="#fafafa" vector-effect="non-scaling-stroke" d="
  M 186.90 113.39
  L 186.82 127.27
  A 0.53 0.53 0.0 0 1 186.23 127.80
  C 164.85 125.24 155.68 150.72 167.83 165.79
  Q 174.36 173.88 186.29 172.99
  A 0.50 0.50 0.0 0 1 186.83 173.44
  Q 187.40 178.86 186.06 184.39"
/>
<path stroke="#8b8989" vector-effect="non-scaling-stroke" d="
  M 186.06 184.39
  C 164.57 193.48 140.38 193.86 119.23 183.68"
/>
<path stroke="#fafafa" vector-effect="non-scaling-stroke" d="
  M 119.23 183.68
  L 118.41 175.70
  A 0.67 0.67 0.0 0 1 119.17 174.97
  C 150.58 179.23 153.10 126.73 118.64 129.92
  A 0.48 0.48 0.0 0 1 118.12 129.43
  L 118.46 116.15"
/>
<path stroke="#fafafa" vector-effect="non-scaling-stroke" d="
  M 101.92 129.92
  L 106.66 137.62
  A 0.98 0.98 0.0 0 1 106.38 138.95
  L 97.59 144.88
  A 0.83 0.82 -35.3 0 1 96.46 144.69
  L 93.55 140.73"
/>
<path stroke="#fafafa" vector-effect="non-scaling-stroke" d="
  M 79.07 94.02
  Q 76.20 96.35 73.70 96.86"
/>
<path stroke="#fafafa" vector-effect="non-scaling-stroke" d="
  M 236.55 96.72
  Q 233.07 96.00 231.02 94.31"
/>
<path stroke="#fafafa" vector-effect="non-scaling-stroke" d="
  M 182.58 239.79
  Q 177.36 238.98 172.24 239.00
  Q 153.77 239.05 135.29 239.01
  Q 132.43 239.01 127.53 239.46"
/>
<path stroke="#fafafa" vector-effect="non-scaling-stroke" d="
  M 127.54 228.94
  L 179.82 228.73
  A 1.22 1.21 24.5 0 0 180.61 228.44
  Q 181.92 227.28 181.89 225.84
  A 0.76 0.76 0.0 0 0 181.32 225.13
  Q 177.56 224.18 175.39 224.14
  Q 155.37 223.81 127.55 224.18"
/>
<path stroke="#ef958a" vector-effect="non-scaling-stroke" d="
  M 154.32 155.64
  Q 153.34 154.48 152.91 152.73
  A 0.58 0.58 0.0 0 0 151.81 152.66
  L 143.12 175.19
  A 0.46 0.46 0.0 0 0 143.55 175.82
  L 162.54 175.82
  A 0.69 0.68 77.7 0 0 163.16 174.85
  L 154.39 155.74
  A 0.94 0.49 27.5 0 0 154.32 155.64"
/>
<path stroke="#918f8e" vector-effect="non-scaling-stroke" d="
  M 182.8539 135.3900
  A 14.96 13.54 -90.1 0 0 169.3400 150.3736
  A 14.96 13.54 -90.1 0 0 182.9061 165.3100
  A 14.96 13.54 -90.1 0 0 196.4200 150.3264
  A 14.96 13.54 -90.1 0 0 182.8539 135.3900"
/>
<path stroke="#918f8e" vector-effect="non-scaling-stroke" d="
  M 122.9310 137.5015
  A 14.97 13.54 -90.8 0 0 109.6013 152.6590
  A 14.97 13.54 -90.8 0 0 123.3490 167.4385
  A 14.97 13.54 -90.8 0 0 136.6787 152.2810
  A 14.97 13.54 -90.8 0 0 122.9310 137.5015"
/>
<path stroke="#918f8e" vector-effect="non-scaling-stroke" d="
  M 187.4637 145.5902
  A 3.47 3.11 -90.6 0 0 184.3902 149.0926
  A 3.47 3.11 -90.6 0 0 187.5363 152.5298
  A 3.47 3.11 -90.6 0 0 190.6098 149.0274
  A 3.47 3.11 -90.6 0 0 187.4637 145.5902"
/>
<path stroke="#918f8e" vector-effect="non-scaling-stroke" d="
  M 127.6707 147.6617
  A 3.48 3.12 -91.8 0 0 124.6615 151.2380
  A 3.48 3.12 -91.8 0 0 127.8893 154.6183
  A 3.48 3.12 -91.8 0 0 130.8985 151.0420
  A 3.48 3.12 -91.8 0 0 127.6707 147.6617"
/>
<path stroke="#7ab7f9" vector-effect="non-scaling-stroke" d="
  M 156.75 289.47
  Q 170.48 289.47 171.16 289.45
  C 173.06 289.40 174.49 288.72 174.57 286.74
  Q 174.71 283.42 174.59 265.42
  C 174.57 261.96 173.07 262.12 170.27 261.92
  A 0.79 0.79 0.0 0 1 169.55 261.27
  C 168.32 254.38 164.52 248.18 156.76 248.18
  C 149.00 248.18 145.20 254.38 143.97 261.26
  A 0.79 0.79 0.0 0 1 143.25 261.91
  C 140.45 262.11 138.95 261.95 138.92 265.41
  Q 138.79 283.41 138.93 286.73
  C 139.01 288.71 140.44 289.39 142.34 289.44
  Q 143.02 289.46 156.75 289.47"
/>
<path stroke="#7ab7f9" vector-effect="non-scaling-stroke" d="
  M 148.72 261.93
  L 164.76 261.91
  A 0.70 0.70 0.0 0 0 165.46 261.20
  L 165.46 260.41
  A 8.21 7.80 89.9 0 0 157.64 252.22
  L 155.80 252.22
  A 8.21 7.80 89.9 0 0 148.02 260.45
  L 148.02 261.24
  A 0.70 0.70 0.0 0 0 148.72 261.93"
/>
<path stroke="#7ab7f9" vector-effect="non-scaling-stroke" d="
  M 161.89 272.69
  C 160.71 266.47 149.01 268.88 152.50 274.79
  A 1.86 1.84 -0.4 0 0 153.22 275.49
  Q 155.37 276.70 158.54 277.24
  A 2.13 1.97 10.7 0 1 160.30 279.62
  Q 160.06 280.77 158.67 281.16
  Q 154.86 282.23 153.31 278.82
  A 1.02 1.02 0.0 0 0 151.37 279.34
  C 151.70 282.57 156.03 283.65 158.62 283.06
  C 162.11 282.26 163.82 279.27 161.17 276.28
  A 1.86 1.80 76.9 0 0 160.32 275.73
  Q 158.54 275.21 155.77 274.54
  Q 154.18 274.16 153.96 273.11
  A 1.68 1.66 77.1 0 1 155.17 271.15
  Q 159.15 270.14 160.08 273.08
  A 0.68 0.68 0.0 0 0 160.73 273.55
  L 161.18 273.55
  A 0.73 0.72 84.7 0 0 161.89 272.69"
/>
</g>
<path fill="#0079fe" d="
  M 171.37 3.82
  A 0.87 0.87 0.0 0 1 172.24 4.68
  L 172.25 6.33
  A 1.38 0.94 89.7 0 1 171.32 7.72
  L 144.54 7.86
  A 1.38 0.94 89.7 0 1 143.59 6.49
  L 143.58 4.84
  A 0.87 0.87 0.0 0 1 144.45 3.96
  L 171.37 3.82
  Z"
/>
<rect fill="#0079fe" x="-7.69" y="-1.96" transform="translate(194.68,9.90) rotate(13.4)" width="15.38" height="3.92" rx="0.66"/>
<rect fill="#0079fe" x="-7.66" y="-1.93" transform="translate(121.17,10.39) rotate(-14.4)" width="15.32" height="3.86" rx="0.59"/>
<rect fill="#0079fe" x="-7.70" y="-1.95" transform="translate(223.46,19.96) rotate(24.9)" width="15.40" height="3.90" rx="0.67"/>
<rect fill="#0079fe" x="-7.69" y="-1.95" transform="translate(92.50,20.85) rotate(-25.7)" width="15.38" height="3.90" rx="0.73"/>
<path fill="#0079fe" d="
  M 242.03 267.17
  Q 231.84 257.89 219.17 252.07
  L 219.15 242.94
  A 0.47 0.47 0.0 0 0 218.68 242.47
  L 183.31 242.47
  A 0.60 0.59 -1.5 0 1 182.71 241.91
  L 182.58 239.79
  L 182.58 212.32
  L 182.77 210.35
  L 228.04 210.34
  A 0.76 0.76 0.0 0 0 228.78 209.74
  Q 236.68 172.08 216.26 139.77
  L 236.55 96.72
  C 243.88 97.65 247.66 89.52 244.92 83.57
  C 242.23 77.72 234.29 76.55 230.87 82.38
  Q 227.78 87.66 231.02 94.31
  L 208.30 129.82
  Q 198.62 119.30 186.90 113.39
  C 165.15 102.03 139.22 103.42 118.46 116.15
  Q 109.44 121.55 101.92 129.92
  L 79.07 94.02
  Q 83.50 86.52 77.57 80.30
  A 3.36 3.34 -7.3 0 0 76.88 79.77
  Q 72.24 77.19 68.23 79.99
  Q 63.67 83.16 64.73 89.17
  Q 66.07 96.85 73.70 96.86
  Q 83.53 117.42 93.38 138.34
  Q 94.02 139.71 93.55 140.73
  C 80.03 160.79 76.55 186.30 81.49 209.81
  A 0.74 0.73 84.2 0 0 82.21 210.40
  L 127.55 210.42
  L 127.53 213.53
  L 127.55 224.18
  L 127.54 228.94
  L 127.53 239.46
  L 127.62 241.92
  A 0.54 0.53 -1.0 0 1 127.08 242.47
  L 91.90 242.47
  A 0.55 0.54 -87.7 0 0 91.36 242.98
  L 90.76 252.08
  Q 80.01 256.73 71.64 263.90
  A 137.13 137.12 -76.7 0 1 25.24 188.85
  A 137.17 137.13 48.5 0 1 29.96 111.37
  A 137.26 137.17 -11.1 0 1 67.15 56.16
  A 137.24 137.16 19.0 0 1 135.14 23.03
  A 137.24 137.22 50.2 0 1 206.87 29.62
  A 137.19 137.17 81.4 0 1 267.34 74.15
  A 137.17 137.07 23.2 0 1 295.28 143.76
  A 137.16 137.10 53.5 0 1 285.14 211.67
  A 137.19 137.16 -7.2 0 1 242.03 267.17
  Z"
/>
<path fill="#0079fe" d="
  M 250.83 33.88
  Q 253.66 35.96 256.37 38.24
  A 0.75 0.75 0.0 0 1 256.46 39.30
  L 255.00 41.06
  A 0.77 0.77 0.0 0 1 253.93 41.18
  Q 251.25 39.05 248.51 37.03
  Q 245.77 35.01 242.94 33.08
  A 0.77 0.77 0.0 0 1 242.73 32.03
  L 243.99 30.11
  A 0.75 0.75 0.0 0 1 245.03 29.88
  Q 248.01 31.80 250.83 33.88
  Z"
/>
<rect fill="#0079fe" x="-7.67" y="-1.94" transform="translate(66.57,36.73) rotate(-37.1)" width="15.34" height="3.88" rx="0.65"/>
<rect fill="#0079fe" x="-1.95" y="-7.69" transform="translate(272.19,55.93) rotate(-42.4)" width="3.90" height="15.38" rx="0.68"/>
<path fill="#0079fe" d="
  M 45.67 58.69
  Q 43.43 61.24 41.27 63.89
  A 0.77 0.77 0.0 0 1 40.21 64.00
  L 38.41 62.59
  A 0.75 0.75 0.0 0 1 38.28 61.54
  Q 40.43 58.74 42.74 56.12
  Q 45.04 53.49 47.54 50.99
  A 0.75 0.75 0.0 0 1 48.60 50.99
  L 50.23 52.59
  A 0.77 0.77 0.0 0 1 50.25 53.66
  Q 47.91 56.14 45.67 58.69
  Z"
/>
<rect fill="#0079fe" x="-1.95" y="-7.66" transform="translate(290.25,80.40) rotate(-30.7)" width="3.90" height="15.32" rx="0.60"/>
<rect fill="#0079fe" x="-1.94" y="-7.68" transform="translate(26.53,82.15) rotate(29.9)" width="3.88" height="15.36" rx="0.71"/>
<path fill="#ffffff" d="
  M 79.07 94.02
  Q 76.20 96.35 73.70 96.86
  Q 66.07 96.85 64.73 89.17
  Q 63.67 83.16 68.23 79.99
  Q 72.24 77.19 76.88 79.77
  A 3.36 3.34 -7.3 0 1 77.57 80.30
  Q 83.50 86.52 79.07 94.02
  Z"
/>
<path fill="#ffffff" d="
  M 236.55 96.72
  Q 233.07 96.00 231.02 94.31
  Q 227.78 87.66 230.87 82.38
  C 234.29 76.55 242.23 77.72 244.92 83.57
  C 247.66 89.52 243.88 97.65 236.55 96.72
  Z"
/>
<path fill="#f4f4f4" d="
  M 101.92 129.92
  L 106.66 137.62
  A 0.98 0.98 0.0 0 1 106.38 138.95
  L 97.59 144.88
  A 0.83 0.82 -35.3 0 1 96.46 144.69
  L 93.55 140.73
  Q 94.02 139.71 93.38 138.34
  Q 83.53 117.42 73.70 96.86
  Q 76.20 96.35 79.07 94.02
  L 101.92 129.92
  Z"
/>
<path fill="#f4f4f4" d="
  M 236.55 96.72
  L 216.26 139.77
  L 213.86 144.38
  A 0.88 0.88 0.0 0 1 212.60 144.71
  L 203.50 138.81
  A 0.71 0.70 32.5 0 1 203.28 137.85
  L 208.30 129.82
  L 231.02 94.31
  Q 233.07 96.00 236.55 96.72
  Z"
/>
<rect fill="#0079fe" x="-1.95" y="-7.67" transform="translate(303.10,108.01) rotate(-19.4)" width="3.90" height="15.34" rx="0.68"/>
<rect fill="#0079fe" x="-1.95" y="-7.66" transform="translate(14.01,109.94) rotate(18.5)" width="3.90" height="15.32" rx="0.75"/>
<path fill="#f4f4f4" d="
  M 186.90 113.39
  L 186.82 127.27
  A 0.53 0.53 0.0 0 1 186.23 127.80
  C 164.85 125.24 155.68 150.72 167.83 165.79
  Q 174.36 173.88 186.29 172.99
  A 0.50 0.50 0.0 0 1 186.83 173.44
  Q 187.40 178.86 186.06 184.39
  C 164.57 193.48 140.38 193.86 119.23 183.68
  L 118.41 175.70
  A 0.67 0.67 0.0 0 1 119.17 174.97
  C 150.58 179.23 153.10 126.73 118.64 129.92
  A 0.48 0.48 0.0 0 1 118.12 129.43
  L 118.46 116.15
  C 139.22 103.42 165.15 102.03 186.90 113.39
  Z
  M 154.32 155.64
  Q 153.34 154.48 152.91 152.73
  A 0.58 0.58 0.0 0 0 151.81 152.66
  L 143.12 175.19
  A 0.46 0.46 0.0 0 0 143.55 175.82
  L 162.54 175.82
  A 0.69 0.68 77.7 0 0 163.16 174.85
  L 154.39 155.74
  A 0.94 0.49 27.5 0 0 154.32 155.64
  Z"
/>
<path fill="#ffffff" d="
  M 186.90 113.39
  Q 198.62 119.30 208.30 129.82
  L 203.28 137.85
  A 0.71 0.70 32.5 0 0 203.50 138.81
  L 212.60 144.71
  A 0.88 0.88 0.0 0 0 213.86 144.38
  L 216.26 139.77
  Q 236.68 172.08 228.78 209.74
  A 0.76 0.76 0.0 0 1 228.04 210.34
  L 182.77 210.35
  L 127.55 210.42
  L 82.21 210.40
  A 0.74 0.73 84.2 0 1 81.49 209.81
  C 76.55 186.30 80.03 160.79 93.55 140.73
  L 96.46 144.69
  A 0.83 0.82 -35.3 0 0 97.59 144.88
  L 106.38 138.95
  A 0.98 0.98 0.0 0 0 106.66 137.62
  L 101.92 129.92
  Q 109.44 121.55 118.46 116.15
  L 118.12 129.43
  A 0.48 0.48 0.0 0 0 118.64 129.92
  C 153.10 126.73 150.58 179.23 119.17 174.97
  A 0.67 0.67 0.0 0 0 118.41 175.70
  L 119.23 183.68
  Q 118.04 182.89 116.91 182.36
  A 2.52 2.45 -61.6 0 0 113.74 183.36
  C 112.23 185.84 114.17 187.58 116.48 188.72
  C 140.87 200.70 168.23 199.52 192.60 187.74
  A 3.01 3.00 68.4 0 0 194.16 184.12
  L 194.12 184.01
  A 2.50 2.40 70.1 0 0 190.89 182.41
  L 186.06 184.39
  Q 187.40 178.86 186.83 173.44
  A 0.50 0.50 0.0 0 0 186.29 172.99
  Q 174.36 173.88 167.83 165.79
  C 155.68 150.72 164.85 125.24 186.23 127.80
  A 0.53 0.53 0.0 0 0 186.82 127.27
  L 186.90 113.39
  Z
  M 182.8539 135.3900
  A 14.96 13.54 -90.1 0 0 169.3400 150.3736
  A 14.96 13.54 -90.1 0 0 182.9061 165.3100
  A 14.96 13.54 -90.1 0 0 196.4200 150.3264
  A 14.96 13.54 -90.1 0 0 182.8539 135.3900
  Z
  M 122.9310 137.5015
  A 14.97 13.54 -90.8 0 0 109.6013 152.6590
  A 14.97 13.54 -90.8 0 0 123.3490 167.4385
  A 14.97 13.54 -90.8 0 0 136.6787 152.2810
  A 14.97 13.54 -90.8 0 0 122.9310 137.5015
  Z"
/>
<rect fill="#0079fe" x="-1.96" y="-7.65" transform="translate(310.18,137.58) rotate(-7.5)" width="3.92" height="15.30" rx="0.60"/>
<rect fill="#0079fe" x="-1.96" y="-7.64" transform="translate(7.35,139.60) rotate(7.1)" width="3.92" height="15.28" rx="0.82"/>
<path fill="#221e1d" d="
  M 182.8539 135.3900
  A 14.96 13.54 -90.1 0 1 196.4200 150.3264
  A 14.96 13.54 -90.1 0 1 182.9061 165.3100
  A 14.96 13.54 -90.1 0 1 169.3400 150.3736
  A 14.96 13.54 -90.1 0 1 182.8539 135.3900
  Z
  M 187.4637 145.5902
  A 3.47 3.11 -90.6 0 0 184.3902 149.0926
  A 3.47 3.11 -90.6 0 0 187.5363 152.5298
  A 3.47 3.11 -90.6 0 0 190.6098 149.0274
  A 3.47 3.11 -90.6 0 0 187.4637 145.5902
  Z"
/>
<path fill="#221e1d" d="
  M 122.9310 137.5015
  A 14.97 13.54 -90.8 0 1 136.6787 152.2810
  A 14.97 13.54 -90.8 0 1 123.3490 167.4385
  A 14.97 13.54 -90.8 0 1 109.6013 152.6590
  A 14.97 13.54 -90.8 0 1 122.9310 137.5015
  Z
  M 127.6707 147.6617
  A 3.48 3.12 -91.8 0 0 124.6615 151.2380
  A 3.48 3.12 -91.8 0 0 127.8893 154.6183
  A 3.48 3.12 -91.8 0 0 130.8985 151.0420
  A 3.48 3.12 -91.8 0 0 127.6707 147.6617
  Z"
/>
<ellipse fill="#ffffff" cx="0.00" cy="0.00" transform="translate(187.50,149.06) rotate(-90.6)" rx="3.47" ry="3.11"/>
<ellipse fill="#ffffff" cx="0.00" cy="0.00" transform="translate(127.78,151.14) rotate(-91.8)" rx="3.48" ry="3.12"/>
<path fill="#e93620" d="
  M 154.39 155.74
  L 163.16 174.85
  A 0.69 0.68 77.7 0 1 162.54 175.82
  L 143.55 175.82
  A 0.46 0.46 0.0 0 1 143.12 175.19
  L 151.81 152.66
  A 0.58 0.58 0.0 0 1 152.91 152.73
  Q 153.34 154.48 154.32 155.64
  A 0.94 0.49 27.5 0 1 154.39 155.74
  Z"
/>
<rect fill="#0079fe" x="-1.94" y="-7.65" transform="translate(311.23,167.96) rotate(3.6)" width="3.88" height="15.30" rx="0.48"/>
<rect fill="#0079fe" x="-1.96" y="-7.70" transform="translate(6.72,169.99) rotate(-4.2)" width="3.92" height="15.40" rx="0.96"/>
<path fill="#221e1d" d="
  M 119.23 183.68
  C 140.38 193.86 164.57 193.48 186.06 184.39
  L 190.89 182.41
  A 2.50 2.40 70.1 0 1 194.12 184.01
  L 194.16 184.12
  A 3.01 3.00 68.4 0 1 192.60 187.74
  C 168.23 199.52 140.87 200.70 116.48 188.72
  C 114.17 187.58 112.23 185.84 113.74 183.36
  A 2.52 2.45 -61.6 0 1 116.91 182.36
  Q 118.04 182.89 119.23 183.68
  Z"
/>
<rect fill="#0079fe" x="-1.93" y="-7.64" transform="translate(306.26,198.00) rotate(15.1)" width="3.86" height="15.28" rx="0.67"/>
<rect fill="#0079fe" x="-1.94" y="-7.65" transform="translate(12.09,199.91) rotate(-15.8)" width="3.88" height="15.30" rx="0.63"/>
<path fill="#f4f4f4" d="
  M 182.77 210.35
  L 182.58 212.32
  Q 177.70 213.58 171.59 213.57
  Q 149.59 213.54 127.53 213.53
  L 127.55 210.42
  L 182.77 210.35
  Z"
/>
<path fill="#ffffff" d="
  M 182.58 212.32
  L 182.58 239.79
  Q 177.36 238.98 172.24 239.00
  Q 153.77 239.05 135.29 239.01
  Q 132.43 239.01 127.53 239.46
  L 127.54 228.94
  L 179.82 228.73
  A 1.22 1.21 24.5 0 0 180.61 228.44
  Q 181.92 227.28 181.89 225.84
  A 0.76 0.76 0.0 0 0 181.32 225.13
  Q 177.56 224.18 175.39 224.14
  Q 155.37 223.81 127.55 224.18
  L 127.53 213.53
  Q 149.59 213.54 171.59 213.57
  Q 177.70 213.58 182.58 212.32
  Z"
/>
<rect fill="#0079fe" x="-1.94" y="-7.66" transform="translate(295.40,226.35) rotate(26.7)" width="3.88" height="15.32" rx="0.62"/>
<rect fill="#0079fe" x="-1.95" y="-7.66" transform="translate(23.33,228.18) rotate(-27.3)" width="3.90" height="15.32" rx="0.64"/>
<path fill="#f4f4f4" d="
  M 127.54 228.94
  L 127.55 224.18
  Q 155.37 223.81 175.39 224.14
  Q 177.56 224.18 181.32 225.13
  A 0.76 0.76 0.0 0 1 181.89 225.84
  Q 181.92 227.28 180.61 228.44
  A 1.22 1.21 24.5 0 1 179.82 228.73
  L 127.54 228.94
  Z"
/>
<path fill="#f4f4f4" d="
  M 182.58 239.79
  L 182.71 241.91
  A 0.60 0.59 -1.5 0 0 183.31 242.47
  L 218.68 242.47
  A 0.47 0.47 0.0 0 1 219.15 242.94
  L 219.17 252.07
  Q 217.07 263.54 219.17 274.36
  L 219.02 281.36
  A 137.16 137.15 38.1 0 1 129.92 292.15
  A 137.49 137.41 65.9 0 1 91.00 277.26
  Q 91.50 275.36 91.08 274.06
  Q 91.81 261.16 91.31 257.76
  Q 90.90 255.05 90.76 252.08
  L 91.36 242.98
  A 0.55 0.54 -87.7 0 1 91.90 242.47
  L 127.08 242.47
  A 0.54 0.53 -1.0 0 0 127.62 241.92
  L 127.53 239.46
  Q 132.43 239.01 135.29 239.01
  Q 153.77 239.05 172.24 239.00
  Q 177.36 238.98 182.58 239.79
  Z
  M 156.75 289.47
  Q 170.48 289.47 171.16 289.45
  C 173.06 289.40 174.49 288.72 174.57 286.74
  Q 174.71 283.42 174.59 265.42
  C 174.57 261.96 173.07 262.12 170.27 261.92
  A 0.79 0.79 0.0 0 1 169.55 261.27
  C 168.32 254.38 164.52 248.18 156.76 248.18
  C 149.00 248.18 145.20 254.38 143.97 261.26
  A 0.79 0.79 0.0 0 1 143.25 261.91
  C 140.45 262.11 138.95 261.95 138.92 265.41
  Q 138.79 283.41 138.93 286.73
  C 139.01 288.71 140.44 289.39 142.34 289.44
  Q 143.02 289.46 156.75 289.47
  Z"
/>
<path fill="#0079fe" d="
  M 282.58 245.03
  L 285.04 246.96
  A 0.38 0.38 0.0 0 1 285.11 247.49
  L 276.12 258.98
  A 0.38 0.38 0.0 0 1 275.59 259.05
  L 273.13 257.11
  A 0.38 0.38 0.0 0 1 273.06 256.58
  L 282.05 245.10
  A 0.38 0.38 0.0 0 1 282.58 245.03
  Z"
/>
<rect fill="#0079fe" x="-1.95" y="-7.63" transform="translate(40.00,253.64) rotate(-39.0)" width="3.90" height="15.26" rx="0.47"/>
<path fill="#0079fe" d="
  M 156.76 248.18
  C 164.52 248.18 168.32 254.38 169.55 261.27
  A 0.79 0.79 0.0 0 0 170.27 261.92
  C 173.07 262.12 174.57 261.96 174.59 265.42
  Q 174.71 283.42 174.57 286.74
  C 174.49 288.72 173.06 289.40 171.16 289.45
  Q 170.48 289.47 156.75 289.47
  Q 143.02 289.46 142.34 289.44
  C 140.44 289.39 139.01 288.71 138.93 286.73
  Q 138.79 283.41 138.92 265.41
  C 138.95 261.95 140.45 262.11 143.25 261.91
  A 0.79 0.79 0.0 0 0 143.97 261.26
  C 145.20 254.38 149.00 248.18 156.76 248.18
  Z
  M 148.72 261.93
  L 164.76 261.91
  A 0.70 0.70 0.0 0 0 165.46 261.20
  L 165.46 260.41
  A 8.21 7.80 89.9 0 0 157.64 252.22
  L 155.80 252.22
  A 8.21 7.80 89.9 0 0 148.02 260.45
  L 148.02 261.24
  A 0.70 0.70 0.0 0 0 148.72 261.93
  Z
  M 161.89 272.69
  C 160.71 266.47 149.01 268.88 152.50 274.79
  A 1.86 1.84 -0.4 0 0 153.22 275.49
  Q 155.37 276.70 158.54 277.24
  A 2.13 1.97 10.7 0 1 160.30 279.62
  Q 160.06 280.77 158.67 281.16
  Q 154.86 282.23 153.31 278.82
  A 1.02 1.02 0.0 0 0 151.37 279.34
  C 151.70 282.57 156.03 283.65 158.62 283.06
  C 162.11 282.26 163.82 279.27 161.17 276.28
  A 1.86 1.80 76.9 0 0 160.32 275.73
  Q 158.54 275.21 155.77 274.54
  Q 154.18 274.16 153.96 273.11
  A 1.68 1.66 77.1 0 1 155.17 271.15
  Q 159.15 270.14 160.08 273.08
  A 0.68 0.68 0.0 0 0 160.73 273.55
  L 161.18 273.55
  A 0.73 0.72 84.7 0 0 161.89 272.69
  Z"
/>
<path fill="#ffffff" d="
  M 90.76 252.08
  Q 90.90 255.05 91.31 257.76
  Q 91.81 261.16 91.08 274.06
  Q 89.85 274.54 88.53 275.82
  A 137.93 136.97 80.0 0 1 71.64 263.90
  Q 80.01 256.73 90.76 252.08
  Z"
/>
<path fill="#f4f4f4" d="
  M 148.72 261.93
  A 0.70 0.70 0.0 0 1 148.02 261.24
  L 148.02 260.45
  A 8.21 7.80 89.9 0 1 155.80 252.22
  L 157.64 252.22
  A 8.21 7.80 89.9 0 1 165.46 260.41
  L 165.46 261.20
  A 0.70 0.70 0.0 0 1 164.76 261.91
  L 148.72 261.93
  Z"
/>
<path fill="#ffffff" d="
  M 219.17 252.07
  Q 231.84 257.89 242.03 267.17
  A 138.05 138.01 -78.0 0 1 224.64 278.46
  L 219.17 274.36
  Q 217.07 263.54 219.17 252.07
  Z"
/>
<rect fill="#0079fe" x="-7.69" y="-1.95" transform="translate(257.96,274.01) rotate(-40.6)" width="15.38" height="3.90" rx="0.70"/>
<rect fill="#0079fe" x="-7.65" y="-1.94" transform="translate(61.39,275.32) rotate(39.8)" width="15.30" height="3.88" rx="0.42"/>
<path fill="#f4f4f4" d="
  M 161.89 272.69
  A 0.73 0.72 84.7 0 1 161.18 273.55
  L 160.73 273.55
  A 0.68 0.68 0.0 0 1 160.08 273.08
  Q 159.15 270.14 155.17 271.15
  A 1.68 1.66 77.1 0 0 153.96 273.11
  Q 154.18 274.16 155.77 274.54
  Q 158.54 275.21 160.32 275.73
  A 1.86 1.80 76.9 0 1 161.17 276.28
  C 163.82 279.27 162.11 282.26 158.62 283.06
  C 156.03 283.65 151.70 282.57 151.37 279.34
  A 1.02 1.02 0.0 0 1 153.31 278.82
  Q 154.86 282.23 158.67 281.16
  Q 160.06 280.77 160.30 279.62
  A 2.13 1.97 10.7 0 0 158.54 277.24
  Q 155.37 276.70 153.22 275.49
  A 1.86 1.84 -0.4 0 1 152.50 274.79
  C 149.01 268.88 160.71 266.47 161.89 272.69
  Z"
/>
<path fill="#0079fe" d="
  M 91.00 277.26
  A 20.22 2.23 30.3 0 1 88.53 275.82
  Q 89.85 274.54 91.08 274.06
  Q 91.50 275.36 91.00 277.26
  Z"
/>
<path fill="#0079fe" d="
  M 219.17 274.36
  L 224.64 278.46
  A 44.72 13.38 -27.4 0 1 219.02 281.36
  L 219.17 274.36
  Z"
/>
<rect fill="#0079fe" x="-7.69" y="-1.94" transform="translate(232.96,291.34) rotate(-29.0)" width="15.38" height="3.88" rx="0.65"/>
<rect fill="#0079fe" x="-7.65" y="-1.95" transform="translate(86.64,292.32) rotate(28.3)" width="15.30" height="3.90" rx="0.50"/>
<rect fill="#0079fe" x="-7.71" y="-1.95" transform="translate(204.98,303.38) rotate(-17.5)" width="15.42" height="3.90" rx="0.88"/>
<rect fill="#0079fe" x="-7.69" y="-1.95" transform="translate(114.75,303.96) rotate(16.7)" width="15.38" height="3.90" rx="0.57"/>
<rect fill="#0079fe" x="-7.69" y="-1.95" transform="translate(175.16,309.59) rotate(-6.0)" width="15.38" height="3.90" rx="0.80"/>
<rect fill="#0079fe" x="-7.68" y="-1.94" transform="translate(144.67,309.79) rotate(5.3)" width="15.36" height="3.88" rx="0.57"/>
</svg>
