<?xml version="1.0" encoding="UTF-8" standalone="no"?>
<!DOCTYPE svg PUBLIC "-//W3C//DTD SVG 1.1//EN" "http://www.w3.org/Graphics/SVG/1.1/DTD/svg11.dtd">
<svg xmlns="http://www.w3.org/2000/svg" version="1.1" viewBox="0.00 0.00 180.00 180.00">
<g stroke-width="2.00" fill="none" stroke-linecap="butt">
<path stroke="#94daf4" vector-effect="non-scaling-stroke" d="
  M 66.23 49.23
  Q 66.10 49.30 66.05 49.27
  Q 60.66 46.19 51.21 40.72
  C 45.52 37.43 38.75 40.15 38.07 46.72
  C 37.59 51.36 40.08 53.65 44.18 56.00
  Q 61.89 66.12 68.83 70.23
  C 72.33 72.29 75.40 73.27 78.98 71.20
  C 82.56 69.13 83.24 65.99 83.19 61.92
  Q 83.10 53.85 83.16 33.46
  C 83.17 28.73 82.42 25.43 78.16 23.53
  C 72.13 20.84 66.39 25.36 66.41 31.94
  Q 66.43 42.85 66.42 49.06
  Q 66.41 49.12 66.23 49.23"
/>
<path stroke="#94daf4" vector-effect="non-scaling-stroke" d="
  M 113.81 49.23
  Q 113.62 49.12 113.62 49.05
  Q 113.60 42.86 113.61 31.96
  C 113.62 25.39 107.88 20.89 101.86 23.58
  C 97.61 25.48 96.87 28.78 96.88 33.50
  Q 96.97 53.86 96.89 61.92
  C 96.85 65.98 97.53 69.12 101.11 71.18
  C 104.69 73.25 107.74 72.27 111.24 70.20
  Q 118.17 66.09 135.84 55.96
  C 139.93 53.61 142.41 51.31 141.93 46.68
  C 141.24 40.12 134.47 37.42 128.79 40.71
  Q 119.36 46.18 113.99 49.26
  Q 113.93 49.30 113.81 49.23"
/>
<path stroke="#94daf4" vector-effect="non-scaling-stroke" d="
  M 42.64 90.03
  Q 42.64 90.17 42.58 90.21
  Q 37.23 93.32 27.78 98.76
  C 22.09 102.03 21.05 109.25 26.39 113.12
  C 30.16 115.85 33.39 114.85 37.47 112.48
  Q 55.07 102.23 62.09 98.28
  C 65.63 96.28 68.01 94.13 68.01 89.99
  C 68.01 85.86 65.63 83.71 62.09 81.71
  Q 55.07 77.76 37.47 67.51
  C 33.39 65.14 30.16 64.14 26.39 66.87
  C 21.05 70.74 22.09 77.96 27.78 81.23
  Q 37.23 86.67 42.58 89.78
  Q 42.64 89.81 42.64 90.03"
/>
<path stroke="#94daf4" vector-effect="non-scaling-stroke" d="
  M 137.38 90.03
  Q 137.38 89.81 137.43 89.78
  Q 142.78 86.67 152.24 81.23
  C 157.93 77.96 158.97 70.73 153.63 66.86
  C 149.85 64.13 146.62 65.13 142.54 67.51
  Q 124.94 77.76 117.92 81.71
  C 114.38 83.70 112.00 85.86 112.00 89.99
  C 112.00 94.12 114.38 96.28 117.92 98.28
  Q 124.94 102.23 142.54 112.48
  C 146.62 114.85 149.86 115.85 153.63 113.12
  C 158.97 109.25 157.93 102.03 152.24 98.76
  Q 142.78 93.32 137.43 90.21
  Q 137.38 90.17 137.38 90.03"
/>
<path stroke="#94daf4" vector-effect="non-scaling-stroke" d="
  M 104.1635 94.0730
  A 5.83 5.83 0.0 0 0 104.1347 85.8282
  L 94.0730 75.8365
  A 5.83 5.83 0.0 0 0 85.8282 75.8653
  L 75.8365 85.9270
  A 5.83 5.83 0.0 0 0 75.8653 94.1718
  L 85.9270 104.1635
  A 5.83 5.83 0.0 0 0 94.1718 104.1347
  L 104.1635 94.0730"
/>
<path stroke="#94daf4" vector-effect="non-scaling-stroke" d="
  M 66.21 130.78
  Q 66.40 130.89 66.40 130.95
  Q 66.41 137.15 66.38 148.06
  C 66.36 154.62 72.09 159.14 78.12 156.46
  C 82.37 154.57 83.12 151.27 83.12 146.55
  Q 83.07 126.17 83.17 118.10
  C 83.21 114.04 82.54 110.90 78.96 108.83
  C 75.39 106.76 72.33 107.73 68.82 109.80
  Q 61.88 113.90 44.18 124.00
  C 40.08 126.34 37.60 128.64 38.07 133.27
  C 38.74 139.83 45.51 142.55 51.20 139.27
  Q 60.65 133.81 66.03 130.74
  Q 66.08 130.71 66.21 130.78"
/>
<path stroke="#94daf4" vector-effect="non-scaling-stroke" d="
  M 113.82 130.77
  Q 113.94 130.70 114.00 130.73
  Q 119.37 133.82 128.81 139.29
  C 134.49 142.58 141.26 139.87 141.95 133.31
  C 142.43 128.68 139.95 126.38 135.85 124.03
  Q 118.17 113.90 111.24 109.79
  C 107.74 107.72 104.68 106.74 101.10 108.81
  C 97.52 110.87 96.84 114.01 96.88 118.07
  Q 96.97 126.13 96.88 146.51
  C 96.87 151.23 97.62 154.53 101.87 156.43
  C 107.89 159.12 113.63 154.61 113.62 148.05
  Q 113.61 137.14 113.63 130.95
  Q 113.63 130.88 113.82 130.77"
/>
<path stroke="#94daf4" vector-effect="non-scaling-stroke" d="
  M 91.5806 85.0763
  A 2.15 2.15 0.0 0 0 88.5402 85.0391
  L 85.0763 88.4194
  A 2.15 2.15 0.0 0 0 85.0391 91.4598
  L 88.4194 94.9237
  A 2.15 2.15 0.0 0 0 91.4598 94.9609
  L 94.9237 91.5806
  A 2.15 2.15 0.0 0 0 94.9609 88.5402
  L 91.5806 85.0763"
/>
</g>
<path fill="#ffffff" d="
  M 180.00 0.00
  L 180.00 180.00
  L 0.00 180.00
  L 0.00 0.00
  L 180.00 0.00
  Z
  M 66.23 49.23
  Q 66.10 49.30 66.05 49.27
  Q 60.66 46.19 51.21 40.72
  C 45.52 37.43 38.75 40.15 38.07 46.72
  C 37.59 51.36 40.08 53.65 44.18 56.00
  Q 61.89 66.12 68.83 70.23
  C 72.33 72.29 75.40 73.27 78.98 71.20
  C 82.56 69.13 83.24 65.99 83.19 61.92
  Q 83.10 53.85 83.16 33.46
  C 83.17 28.73 82.42 25.43 78.16 23.53
  C 72.13 20.84 66.39 25.36 66.41 31.94
  Q 66.43 42.85 66.42 49.06
  Q 66.41 49.12 66.23 49.23
  Z
  M 113.81 49.23
  Q 113.62 49.12 113.62 49.05
  Q 113.60 42.86 113.61 31.96
  C 113.62 25.39 107.88 20.89 101.86 23.58
  C 97.61 25.48 96.87 28.78 96.88 33.50
  Q 96.97 53.86 96.89 61.92
  C 96.85 65.98 97.53 69.12 101.11 71.18
  C 104.69 73.25 107.74 72.27 111.24 70.20
  Q 118.17 66.09 135.84 55.96
  C 139.93 53.61 142.41 51.31 141.93 46.68
  C 141.24 40.12 134.47 37.42 128.79 40.71
  Q 119.36 46.18 113.99 49.26
  Q 113.93 49.30 113.81 49.23
  Z
  M 42.64 90.03
  Q 42.64 90.17 42.58 90.21
  Q 37.23 93.32 27.78 98.76
  C 22.09 102.03 21.05 109.25 26.39 113.12
  C 30.16 115.85 33.39 114.85 37.47 112.48
  Q 55.07 102.23 62.09 98.28
  C 65.63 96.28 68.01 94.13 68.01 89.99
  C 68.01 85.86 65.63 83.71 62.09 81.71
  Q 55.07 77.76 37.47 67.51
  C 33.39 65.14 30.16 64.14 26.39 66.87
  C 21.05 70.74 22.09 77.96 27.78 81.23
  Q 37.23 86.67 42.58 89.78
  Q 42.64 89.81 42.64 90.03
  Z
  M 137.38 90.03
  Q 137.38 89.81 137.43 89.78
  Q 142.78 86.67 152.24 81.23
  C 157.93 77.96 158.97 70.73 153.63 66.86
  C 149.85 64.13 146.62 65.13 142.54 67.51
  Q 124.94 77.76 117.92 81.71
  C 114.38 83.70 112.00 85.86 112.00 89.99
  C 112.00 94.12 114.38 96.28 117.92 98.28
  Q 124.94 102.23 142.54 112.48
  C 146.62 114.85 149.86 115.85 153.63 113.12
  C 158.97 109.25 157.93 102.03 152.24 98.76
  Q 142.78 93.32 137.43 90.21
  Q 137.38 90.17 137.38 90.03
  Z
  M 104.1635 94.0730
  A 5.83 5.83 0.0 0 0 104.1347 85.8282
  L 94.0730 75.8365
  A 5.83 5.83 0.0 0 0 85.8282 75.8653
  L 75.8365 85.9270
  A 5.83 5.83 0.0 0 0 75.8653 94.1718
  L 85.9270 104.1635
  A 5.83 5.83 0.0 0 0 94.1718 104.1347
  L 104.1635 94.0730
  Z
  M 66.21 130.78
  Q 66.40 130.89 66.40 130.95
  Q 66.41 137.15 66.38 148.06
  C 66.36 154.62 72.09 159.14 78.12 156.46
  C 82.37 154.57 83.12 151.27 83.12 146.55
  Q 83.07 126.17 83.17 118.10
  C 83.21 114.04 82.54 110.90 78.96 108.83
  C 75.39 106.76 72.33 107.73 68.82 109.80
  Q 61.88 113.90 44.18 124.00
  C 40.08 126.34 37.60 128.64 38.07 133.27
  C 38.74 139.83 45.51 142.55 51.20 139.27
  Q 60.65 133.81 66.03 130.74
  Q 66.08 130.71 66.21 130.78
  Z
  M 113.82 130.77
  Q 113.94 130.70 114.00 130.73
  Q 119.37 133.82 128.81 139.29
  C 134.49 142.58 141.26 139.87 141.95 133.31
  C 142.43 128.68 139.95 126.38 135.85 124.03
  Q 118.17 113.90 111.24 109.79
  C 107.74 107.72 104.68 106.74 101.10 108.81
  C 97.52 110.87 96.84 114.01 96.88 118.07
  Q 96.97 126.13 96.88 146.51
  C 96.87 151.23 97.62 154.53 101.87 156.43
  C 107.89 159.12 113.63 154.61 113.62 148.05
  Q 113.61 137.14 113.63 130.95
  Q 113.63 130.88 113.82 130.77
  Z"
/>
<path fill="#29b5e8" d="
  M 66.23 49.23
  Q 66.41 49.12 66.42 49.06
  Q 66.43 42.85 66.41 31.94
  C 66.39 25.36 72.13 20.84 78.16 23.53
  C 82.42 25.43 83.17 28.73 83.16 33.46
  Q 83.10 53.85 83.19 61.92
  C 83.24 65.99 82.56 69.13 78.98 71.20
  C 75.40 73.27 72.33 72.29 68.83 70.23
  Q 61.89 66.12 44.18 56.00
  C 40.08 53.65 37.59 51.36 38.07 46.72
  C 38.75 40.15 45.52 37.43 51.21 40.72
  Q 60.66 46.19 66.05 49.27
  Q 66.10 49.30 66.23 49.23
  Z"
/>
<path fill="#29b5e8" d="
  M 113.81 49.23
  Q 113.93 49.30 113.99 49.26
  Q 119.36 46.18 128.79 40.71
  C 134.47 37.42 141.24 40.12 141.93 46.68
  C 142.41 51.31 139.93 53.61 135.84 55.96
  Q 118.17 66.09 111.24 70.20
  C 107.74 72.27 104.69 73.25 101.11 71.18
  C 97.53 69.12 96.85 65.98 96.89 61.92
  Q 96.97 53.86 96.88 33.50
  C 96.87 28.78 97.61 25.48 101.86 23.58
  C 107.88 20.89 113.62 25.39 113.61 31.96
  Q 113.60 42.86 113.62 49.05
  Q 113.62 49.12 113.81 49.23
  Z"
/>
<path fill="#29b5e8" d="
  M 68.01 89.99
  C 68.01 94.13 65.63 96.28 62.09 98.28
  Q 55.07 102.23 37.47 112.48
  C 33.39 114.85 30.16 115.85 26.39 113.12
  C 21.05 109.25 22.09 102.03 27.78 98.76
  Q 37.23 93.32 42.58 90.21
  Q 42.64 90.17 42.64 90.03
  Q 42.64 89.81 42.58 89.78
  Q 37.23 86.67 27.78 81.23
  C 22.09 77.96 21.05 70.74 26.39 66.87
  C 30.16 64.14 33.39 65.14 37.47 67.51
  Q 55.07 77.76 62.09 81.71
  C 65.63 83.71 68.01 85.86 68.01 89.99
  Z"
/>
<path fill="#29b5e8" d="
  M 137.38 90.03
  Q 137.38 90.17 137.43 90.21
  Q 142.78 93.32 152.24 98.76
  C 157.93 102.03 158.97 109.25 153.63 113.12
  C 149.86 115.85 146.62 114.85 142.54 112.48
  Q 124.94 102.23 117.92 98.28
  C 114.38 96.28 112.00 94.12 112.00 89.99
  C 112.00 85.86 114.38 83.70 117.92 81.71
  Q 124.94 77.76 142.54 67.51
  C 146.62 65.13 149.85 64.13 153.63 66.86
  C 158.97 70.73 157.93 77.96 152.24 81.23
  Q 142.78 86.67 137.43 89.78
  Q 137.38 89.81 137.38 90.03
  Z"
/>
<path fill="#29b5e8" d="
  M 94.1718 104.1347
  A 5.83 5.83 0.0 0 1 85.9270 104.1635
  L 75.8653 94.1718
  A 5.83 5.83 0.0 0 1 75.8365 85.9270
  L 85.8282 75.8653
  A 5.83 5.83 0.0 0 1 94.0730 75.8365
  L 104.1347 85.8282
  A 5.83 5.83 0.0 0 1 104.1635 94.0730
  L 94.1718 104.1347
  Z
  M 91.5806 85.0763
  A 2.15 2.15 0.0 0 0 88.5402 85.0391
  L 85.0763 88.4194
  A 2.15 2.15 0.0 0 0 85.0391 91.4598
  L 88.4194 94.9237
  A 2.15 2.15 0.0 0 0 91.4598 94.9609
  L 94.9237 91.5806
  A 2.15 2.15 0.0 0 0 94.9609 88.5402
  L 91.5806 85.0763
  Z"
/>
<rect fill="#ffffff" x="-4.57" y="-4.57" transform="translate(90.00,90.00) rotate(-44.3)" width="9.14" height="9.14" rx="2.15"/>
<path fill="#29b5e8" d="
  M 66.21 130.78
  Q 66.08 130.71 66.03 130.74
  Q 60.65 133.81 51.20 139.27
  C 45.51 142.55 38.74 139.83 38.07 133.27
  C 37.60 128.64 40.08 126.34 44.18 124.00
  Q 61.88 113.90 68.82 109.80
  C 72.33 107.73 75.39 106.76 78.96 108.83
  C 82.54 110.90 83.21 114.04 83.17 118.10
  Q 83.07 126.17 83.12 146.55
  C 83.12 151.27 82.37 154.57 78.12 156.46
  C 72.09 159.14 66.36 154.62 66.38 148.06
  Q 66.41 137.15 66.40 130.95
  Q 66.40 130.89 66.21 130.78
  Z"
/>
<path fill="#29b5e8" d="
  M 113.82 130.77
  Q 113.63 130.88 113.63 130.95
  Q 113.61 137.14 113.62 148.05
  C 113.63 154.61 107.89 159.12 101.87 156.43
  C 97.62 154.53 96.87 151.23 96.88 146.51
  Q 96.97 126.13 96.88 118.07
  C 96.84 114.01 97.52 110.87 101.10 108.81
  C 104.68 106.74 107.74 107.72 111.24 109.79
  Q 118.17 113.90 135.85 124.03
  C 139.95 126.38 142.43 128.68 141.95 133.31
  C 141.26 139.87 134.49 142.58 128.81 139.29
  Q 119.37 133.82 114.00 130.73
  Q 113.94 130.70 113.82 130.77
  Z"
/>
</svg>
