<?xml version="1.0" encoding="UTF-8" standalone="no"?>
<!DOCTYPE svg PUBLIC "-//W3C//DTD SVG 1.1//EN" "http://www.w3.org/Graphics/SVG/1.1/DTD/svg11.dtd">
<svg xmlns="http://www.w3.org/2000/svg" version="1.1" viewBox="0.00 0.00 32.00 32.00">
<path fill="#ffb656" d="
  M 12.99 3.85
  Q 12.22 5.88 14.57 7.02
  A 0.81 0.81 0.0 0 0 15.31 7.02
  L 20.04 4.73
  A 0.13 0.13 0.0 0 1 20.17 4.96
  L 15.97 7.92
  A 1.64 1.60 -10.7 0 0 15.34 8.82
  Q 15.33 8.88 15.32 9.07
  A 0.67 0.67 0.0 0 1 14.82 9.68
  Q 11.33 10.55 9.12 13.28
  Q 8.58 13.93 7.97 13.41
  A 1.07 1.07 0.0 0 0 6.82 13.27
  Q 3.51 14.88 1.82 15.82
  A 0.15 0.08 -21.4 0 1 1.61 15.80
  Q 1.61 15.78 1.61 15.75
  A 0.13 0.08 75.1 0 1 1.64 15.64
  Q 3.39 14.22 5.57 12.94
  Q 7.44 11.84 6.44 9.59
  A 1.06 1.06 0.0 0 0 5.67 8.99
  L 4.83 8.85
  A 0.26 0.26 0.0 0 1 4.83 8.34
  Q 5.56 8.22 5.68 8.26
  A 1.82 1.82 0.0 0 0 7.90 5.75
  L 5.55 0.90
  A 0.14 0.13 62.4 0 1 5.60 0.73
  A 0.15 0.15 0.0 0 1 5.81 0.76
  L 8.82 5.14
  A 1.91 1.91 0.0 0 0 12.26 4.46
  Q 12.48 3.47 12.53 3.44
  A 0.33 0.33 0.0 0 1 12.99 3.85
  Z"
/>
<path fill="#0f1212" d="
  M 19.97 32.00
  L 16.39 32.00
  C 8.88 30.38 5.07 22.99 8.47 15.99
  C 10.73 11.34 16.53 9.04 21.52 10.76
  C 32.49 14.54 31.01 29.23 19.97 32.00
  Z
  M 15.27 14.67
  Q 18.24 17.36 21.03 22.43
  A 1.11 1.10 77.7 0 0 21.93 23.01
  C 23.84 23.15 25.27 24.83 24.02 26.52
  C 22.54 28.55 19.32 26.76 20.41 24.34
  A 1.20 1.18 -47.7 0 0 20.37 23.27
  Q 17.32 17.66 13.62 14.38
  A 0.32 0.31 28.2 0 0 13.11 14.53
  L 11.58 20.08
  A 1.56 1.53 -48.1 0 0 11.62 21.02
  Q 12.32 22.89 13.76 22.80
  A 2.03 1.91 -89.8 0 1 15.79 24.97
  C 15.55 28.23 10.70 27.12 11.64 24.36
  C 12.27 22.50 10.36 22.16 10.44 20.63
  A 0.87 0.53 -50.2 0 1 10.47 20.42
  L 12.28 13.84
  A 0.27 0.27 0.0 0 0 11.84 13.57
  C 7.12 18.02 7.11 25.22 12.48 29.05
  C 20.70 34.90 31.29 25.68 26.83 16.87
  C 24.43 12.13 18.48 9.60 13.58 12.67
  A 0.11 0.11 0.0 0 0 13.62 12.87
  L 20.29 14.00
  A 1.91 1.90 -8.3 0 1 21.69 15.04
  Q 22.58 16.82 23.88 16.82
  A 2.09 1.79 -77.8 0 1 25.40 19.64
  Q 24.87 21.02 23.36 20.94
  A 2.07 1.88 14.5 0 1 21.53 18.15
  Q 21.90 17.45 21.36 16.33
  Q 20.87 15.30 19.94 15.05
  Q 17.13 14.27 15.50 14.14
  A 0.31 0.30 68.6 0 0 15.27 14.67
  Z
  M 24.60 18.82
  A 1.13 1.13 0.0 0 0 23.47 17.69
  A 1.13 1.13 0.0 0 0 22.34 18.82
  A 1.13 1.13 0.0 0 0 23.47 19.95
  A 1.13 1.13 0.0 0 0 24.60 18.82
  Z
  M 14.80 24.86
  A 1.14 1.14 0.0 0 0 13.66 23.72
  A 1.14 1.14 0.0 0 0 12.52 24.86
  A 1.14 1.14 0.0 0 0 13.66 26.00
  A 1.14 1.14 0.0 0 0 14.80 24.86
  Z
  M 23.47 25.23
  A 1.14 1.14 0.0 0 0 22.33 24.09
  A 1.14 1.14 0.0 0 0 21.19 25.23
  A 1.14 1.14 0.0 0 0 22.33 26.37
  A 1.14 1.14 0.0 0 0 23.47 25.23
  Z"
/>
</svg>
