<?xml version="1.0" encoding="UTF-8" standalone="no"?>
<!DOCTYPE svg PUBLIC "-//W3C//DTD SVG 1.1//EN" "http://www.w3.org/Graphics/SVG/1.1/DTD/svg11.dtd">
<svg xmlns="http://www.w3.org/2000/svg" version="1.1" viewBox="0.00 0.00 361.00 360.00">
<g stroke-width="2.00" fill="none" stroke-linecap="butt">
<path stroke="#31035e" vector-effect="non-scaling-stroke" d="
  M 78.68 0.00
  Q 77.10 19.06 80.48 37.24
  Q 85.71 65.38 95.38 93.36"
/>
<path stroke="#9781ac" vector-effect="non-scaling-stroke" d="
  M 95.38 93.36
  C 61.32 131.46 52.63 181.97 71.38 229.48
  A 0.36 0.36 0.0 0 1 71.06 229.97
  Q 60.53 230.53 50.34 227.69
  C 46.71 226.67 42.36 226.28 41.99 230.92
  A 2.60 2.52 38.6 0 0 42.12 231.94
  Q 43.61 236.08 46.99 241.75
  C 60.70 264.75 86.68 282.89 114.02 280.97
  C 153.76 278.18 186.97 255.00 207.31 221.32
  Q 209.98 216.91 212.58 212.18"
/>
<path stroke="#31035e" vector-effect="non-scaling-stroke" d="
  M 212.58 212.18
  Q 218.40 216.84 225.09 213.27"
/>
<path stroke="#961b57" vector-effect="non-scaling-stroke" d="
  M 225.09 213.27
  C 205.98 253.54 170.72 283.92 126.77 291.51
  A 0.26 0.26 0.0 0 0 126.69 292.00
  C 147.33 303.09 169.32 302.69 189.67 291.66
  C 208.84 281.27 224.73 265.70 236.48 247.20"
/>
<path stroke="#31035e" vector-effect="non-scaling-stroke" d="
  M 236.48 247.20
  L 241.38 260.78"
/>
<path stroke="#961b57" vector-effect="non-scaling-stroke" d="
  M 241.38 260.78
  Q 218.64 292.74 182.47 308.19
  A 0.20 0.20 0.0 0 0 182.53 308.57
  Q 225.30 311.12 253.92 280.76
  C 256.81 277.69 259.71 273.62 262.49 270.01"
/>
<path stroke="#31035e" vector-effect="non-scaling-stroke" d="
  M 262.49 270.01
  Q 269.43 268.68 276.60 270.01"
/>
<path stroke="#961b57" vector-effect="non-scaling-stroke" d="
  M 276.60 270.01
  L 267.96 282.25
  A 0.25 0.24 -3.7 0 0 268.33 282.57
  L 281.66 270.83"
/>
<path stroke="#31035e" vector-effect="non-scaling-stroke" d="
  M 281.66 270.83
  Q 303.52 279.17 326.27 283.31
  C 330.52 284.08 336.22 284.64 340.43 284.26
  C 352.60 283.15 356.27 275.27 361.00 265.48"
/>
<path stroke="#981c5d" vector-effect="non-scaling-stroke" d="
  M 281.66 270.83
  C 318.25 233.78 329.35 178.72 309.29 130.47
  C 304.47 118.86 296.18 108.46 284.64 103.28
  A 0.23 0.23 0.0 0 0 284.34 103.59
  C 310.51 156.74 307.51 219.66 276.60 270.01"
/>
<path stroke="#981c5d" vector-effect="non-scaling-stroke" d="
  M 262.49 270.01
  C 297.06 219.90 299.60 152.26 268.68 99.60
  A 0.43 0.42 -16.8 0 0 268.30 99.40
  L 260.40 99.94
  A 0.17 0.17 0.0 0 0 260.26 100.17
  C 280.88 152.74 274.47 214.66 241.38 260.78"
/>
<path stroke="#981c5d" vector-effect="non-scaling-stroke" d="
  M 236.48 247.20
  C 263.15 204.30 267.32 150.83 249.03 103.83
  A 0.44 0.44 0.0 0 0 248.48 103.57
  C 242.30 105.59 239.54 109.22 240.30 115.86
  C 244.11 149.49 239.65 182.72 225.09 213.27"
/>
<path stroke="#9981b2" vector-effect="non-scaling-stroke" d="
  M 212.58 212.18
  Q 232.61 172.03 229.24 126.85
  Q 229.07 124.53 228.50 123.83
  C 227.42 122.51 224.94 122.32 223.87 123.80
  C 214.85 136.26 206.05 148.35 194.79 159.02
  C 185.22 168.10 171.92 175.53 158.20 171.29
  Q 140.91 165.94 134.58 148.73
  C 125.95 125.25 138.29 101.55 156.94 87.43
  C 165.72 80.79 178.17 74.56 189.14 75.87
  C 196.10 76.70 203.76 82.17 199.98 90.24
  Q 199.27 91.76 196.18 97.10
  C 190.64 106.68 188.65 117.44 190.67 128.25
  Q 191.09 130.54 192.38 132.14
  A 1.08 1.07 -19.8 0 0 193.24 132.54
  Q 194.91 132.51 196.11 131.09
  Q 197.64 129.30 204.41 121.17
  C 211.11 113.13 218.14 108.70 228.34 101.59
  C 232.34 98.81 236.85 93.60 236.80 88.43
  C 236.76 84.23 235.01 81.39 234.34 78.00
  A 0.96 0.96 0.0 0 1 236.07 77.27
  Q 240.34 83.51 243.18 86.51
  Q 246.00 89.50 250.89 91.12
  C 255.36 92.60 260.93 91.13 266.49 90.83
  Q 274.04 90.41 281.04 92.06
  A 1.35 1.34 -15.6 0 0 282.31 89.81
  C 238.36 45.18 170.07 38.71 118.10 73.58
  Q 106.34 81.47 95.38 93.36"
/>
<path stroke="#9981b2" vector-effect="non-scaling-stroke" d="
  M 197.8226 187.4065
  A 9.00 7.27 -51.5 0 0 186.5304 189.9243
  A 9.00 7.27 -51.5 0 0 186.6174 201.4935
  A 9.00 7.27 -51.5 0 0 197.9096 198.9757
  A 9.00 7.27 -51.5 0 0 197.8226 187.4065"
/>
</g>
<path fill="#2f0258" d="
  M 78.68 0.00
  Q 77.10 19.06 80.48 37.24
  Q 85.71 65.38 95.38 93.36
  C 61.32 131.46 52.63 181.97 71.38 229.48
  A 0.36 0.36 0.0 0 1 71.06 229.97
  Q 60.53 230.53 50.34 227.69
  C 46.71 226.67 42.36 226.28 41.99 230.92
  A 2.60 2.52 38.6 0 0 42.12 231.94
  Q 43.61 236.08 46.99 241.75
  C 60.70 264.75 86.68 282.89 114.02 280.97
  C 153.76 278.18 186.97 255.00 207.31 221.32
  Q 209.98 216.91 212.58 212.18
  Q 218.40 216.84 225.09 213.27
  C 205.98 253.54 170.72 283.92 126.77 291.51
  A 0.26 0.26 0.0 0 0 126.69 292.00
  C 147.33 303.09 169.32 302.69 189.67 291.66
  C 208.84 281.27 224.73 265.70 236.48 247.20
  L 241.38 260.78
  Q 218.64 292.74 182.47 308.19
  A 0.20 0.20 0.0 0 0 182.53 308.57
  Q 225.30 311.12 253.92 280.76
  C 256.81 277.69 259.71 273.62 262.49 270.01
  Q 269.43 268.68 276.60 270.01
  L 267.96 282.25
  A 0.25 0.24 -3.7 0 0 268.33 282.57
  L 281.66 270.83
  Q 303.52 279.17 326.27 283.31
  C 330.52 284.08 336.22 284.64 340.43 284.26
  C 352.60 283.15 356.27 275.27 361.00 265.48
  L 361.00 360.00
  L 0.00 360.00
  L 0.00 0.00
  L 78.68 0.00
  Z"
/>
<path fill="#320364" d="
  M 361.00 0.00
  L 361.00 265.48
  C 356.27 275.27 352.60 283.15 340.43 284.26
  C 336.22 284.64 330.52 284.08 326.27 283.31
  Q 303.52 279.17 281.66 270.83
  C 318.25 233.78 329.35 178.72 309.29 130.47
  C 304.47 118.86 296.18 108.46 284.64 103.28
  A 0.23 0.23 0.0 0 0 284.34 103.59
  C 310.51 156.74 307.51 219.66 276.60 270.01
  Q 269.43 268.68 262.49 270.01
  C 297.06 219.90 299.60 152.26 268.68 99.60
  A 0.43 0.42 -16.8 0 0 268.30 99.40
  L 260.40 99.94
  A 0.17 0.17 0.0 0 0 260.26 100.17
  C 280.88 152.74 274.47 214.66 241.38 260.78
  L 236.48 247.20
  C 263.15 204.30 267.32 150.83 249.03 103.83
  A 0.44 0.44 0.0 0 0 248.48 103.57
  C 242.30 105.59 239.54 109.22 240.30 115.86
  C 244.11 149.49 239.65 182.72 225.09 213.27
  Q 218.40 216.84 212.58 212.18
  Q 232.61 172.03 229.24 126.85
  Q 229.07 124.53 228.50 123.83
  C 227.42 122.51 224.94 122.32 223.87 123.80
  C 214.85 136.26 206.05 148.35 194.79 159.02
  C 185.22 168.10 171.92 175.53 158.20 171.29
  Q 140.91 165.94 134.58 148.73
  C 125.95 125.25 138.29 101.55 156.94 87.43
  C 165.72 80.79 178.17 74.56 189.14 75.87
  C 196.10 76.70 203.76 82.17 199.98 90.24
  Q 199.27 91.76 196.18 97.10
  C 190.64 106.68 188.65 117.44 190.67 128.25
  Q 191.09 130.54 192.38 132.14
  A 1.08 1.07 -19.8 0 0 193.24 132.54
  Q 194.91 132.51 196.11 131.09
  Q 197.64 129.30 204.41 121.17
  C 211.11 113.13 218.14 108.70 228.34 101.59
  C 232.34 98.81 236.85 93.60 236.80 88.43
  C 236.76 84.23 235.01 81.39 234.34 78.00
  A 0.96 0.96 0.0 0 1 236.07 77.27
  Q 240.34 83.51 243.18 86.51
  Q 246.00 89.50 250.89 91.12
  C 255.36 92.60 260.93 91.13 266.49 90.83
  Q 274.04 90.41 281.04 92.06
  A 1.35 1.34 -15.6 0 0 282.31 89.81
  C 238.36 45.18 170.07 38.71 118.10 73.58
  Q 106.34 81.47 95.38 93.36
  Q 85.71 65.38 80.48 37.24
  Q 77.10 19.06 78.68 0.00
  L 361.00 0.00
  Z"
/>
<path fill="#ffffff" d="
  M 212.58 212.18
  Q 209.98 216.91 207.31 221.32
  C 186.97 255.00 153.76 278.18 114.02 280.97
  C 86.68 282.89 60.70 264.75 46.99 241.75
  Q 43.61 236.08 42.12 231.94
  A 2.60 2.52 38.6 0 1 41.99 230.92
  C 42.36 226.28 46.71 226.67 50.34 227.69
  Q 60.53 230.53 71.06 229.97
  A 0.36 0.36 0.0 0 0 71.38 229.48
  C 52.63 181.97 61.32 131.46 95.38 93.36
  Q 106.34 81.47 118.10 73.58
  C 170.07 38.71 238.36 45.18 282.31 89.81
  A 1.35 1.34 -15.6 0 1 281.04 92.06
  Q 274.04 90.41 266.49 90.83
  C 260.93 91.13 255.36 92.60 250.89 91.12
  Q 246.00 89.50 243.18 86.51
  Q 240.34 83.51 236.07 77.27
  A 0.96 0.96 0.0 0 0 234.34 78.00
  C 235.01 81.39 236.76 84.23 236.80 88.43
  C 236.85 93.60 232.34 98.81 228.34 101.59
  C 218.14 108.70 211.11 113.13 204.41 121.17
  Q 197.64 129.30 196.11 131.09
  Q 194.91 132.51 193.24 132.54
  A 1.08 1.07 -19.8 0 1 192.38 132.14
  Q 191.09 130.54 190.67 128.25
  C 188.65 117.44 190.64 106.68 196.18 97.10
  Q 199.27 91.76 199.98 90.24
  C 203.76 82.17 196.10 76.70 189.14 75.87
  C 178.17 74.56 165.72 80.79 156.94 87.43
  C 138.29 101.55 125.95 125.25 134.58 148.73
  Q 140.91 165.94 158.20 171.29
  C 171.92 175.53 185.22 168.10 194.79 159.02
  C 206.05 148.35 214.85 136.26 223.87 123.80
  C 224.94 122.32 227.42 122.51 228.50 123.83
  Q 229.07 124.53 229.24 126.85
  Q 232.61 172.03 212.58 212.18
  Z
  M 197.8226 187.4065
  A 9.00 7.27 -51.5 0 0 186.5304 189.9243
  A 9.00 7.27 -51.5 0 0 186.6174 201.4935
  A 9.00 7.27 -51.5 0 0 197.9096 198.9757
  A 9.00 7.27 -51.5 0 0 197.8226 187.4065
  Z"
/>
<path fill="#fd3456" d="
  M 262.49 270.01
  C 259.71 273.62 256.81 277.69 253.92 280.76
  Q 225.30 311.12 182.53 308.57
  A 0.20 0.20 0.0 0 1 182.47 308.19
  Q 218.64 292.74 241.38 260.78
  C 274.47 214.66 280.88 152.74 260.26 100.17
  A 0.17 0.17 0.0 0 1 260.40 99.94
  L 268.30 99.40
  A 0.43 0.42 -16.8 0 1 268.68 99.60
  C 299.60 152.26 297.06 219.90 262.49 270.01
  Z"
/>
<path fill="#fd3456" d="
  M 281.66 270.83
  L 268.33 282.57
  A 0.25 0.24 -3.7 0 1 267.96 282.25
  L 276.60 270.01
  C 307.51 219.66 310.51 156.74 284.34 103.59
  A 0.23 0.23 0.0 0 1 284.64 103.28
  C 296.18 108.46 304.47 118.86 309.29 130.47
  C 329.35 178.72 318.25 233.78 281.66 270.83
  Z"
/>
<path fill="#fd3456" d="
  M 236.48 247.20
  C 224.73 265.70 208.84 281.27 189.67 291.66
  C 169.32 302.69 147.33 303.09 126.69 292.00
  A 0.26 0.26 0.0 0 1 126.77 291.51
  C 170.72 283.92 205.98 253.54 225.09 213.27
  C 239.65 182.72 244.11 149.49 240.30 115.86
  C 239.54 109.22 242.30 105.59 248.48 103.57
  A 0.44 0.44 0.0 0 1 249.03 103.83
  C 267.32 150.83 263.15 204.30 236.48 247.20
  Z"
/>
<ellipse fill="#320364" cx="0.00" cy="0.00" transform="translate(192.22,194.45) rotate(-51.5)" rx="9.00" ry="7.27"/>
</svg>
