<svg width="128" height="128" viewBox="0 0 128 128" fill="none" xmlns="http://www.w3.org/2000/svg">
<g clip-path="url(#clip0_364_192)">
<path d="M104.602 88.4083C103.579 88.6118 101.934 88.6323 84.4161 88.6605C83.6404 88.6618 82.8955 88.663 82.1787 88.6643C65.5873 88.6925 64.4993 88.695 63.7761 88.1818C63.6942 88.1229 63.6174 88.0576 63.5227 87.9859C63.2871 87.8067 62.9377 87.424 62.747 87.1347L62.4001 86.6112L62.3668 66.1914C62.3643 64.6464 62.3617 63.2141 62.3591 61.8855C62.3297 46.1543 62.3271 44.9677 62.9198 44.3802C63.0183 44.2829 63.1323 44.201 63.2667 44.073C64.7566 42.6432 68.5108 41.2903 71.9361 40.9498C73.5975 40.7847 76.4391 40.8755 78.3566 41.1546C85.6052 42.208 92.2062 46.7136 95.8631 53.1034C96.9217 54.9543 97.5911 56.6349 98.5115 59.7581C98.546 59.8733 98.6612 59.9053 98.8494 59.8502C99.0068 59.8042 99.7902 59.6723 100.59 59.5559C101.831 59.3741 102.266 59.3651 103.538 59.4931C107.296 59.8682 109.896 61.0419 112.471 63.5264C115.059 66.0224 116.483 69.0163 116.864 72.7629C117.255 76.6106 115.683 80.9933 112.862 83.9219C110.569 86.3002 107.902 87.7491 104.602 88.4083ZM57.3505 88.3367C56.5057 89.2352 55.419 88.6861 55.2539 87.2768C55.1105 86.0493 54.6638 80.5018 54.5243 78.208C54.2977 74.4768 54.2235 65.5591 54.386 61.568C54.6267 55.7095 55.1809 48.841 55.4548 48.3239C55.6737 47.913 55.9617 47.753 56.4891 47.7479C57.1137 47.7427 57.4017 47.9015 57.5796 48.3469C57.7243 48.7117 58.0891 52.7616 58.4308 57.792C59.1758 68.7795 59.0286 77.4925 57.9572 85.8176C57.7063 87.7671 57.6449 88.0243 57.3505 88.3367ZM42.2888 88.7091C42.1121 88.777 41.8996 88.832 41.8152 88.832C41.5272 88.8307 40.8257 88.3187 40.7182 88.032C40.6043 87.7248 40.146 83.2538 39.9348 80.384C39.3115 71.8938 39.4894 62.6253 40.443 53.9072C40.6491 52.0231 40.7028 51.7837 40.9832 51.5034C41.1534 51.3319 41.499 51.1591 41.7499 51.1181C42.4091 51.0106 42.9851 51.552 43.0631 52.352C43.0939 52.6695 43.2052 53.6768 43.3115 54.592C44.4494 64.4723 44.4059 76.6579 43.1963 86.3987C42.9863 88.0806 42.8187 88.5082 42.2888 88.7091ZM50.0187 88.3776C49.5655 88.6951 48.9294 88.6298 48.5223 88.2227C48.1153 87.8144 48.1179 87.8336 47.7518 83.776C46.9057 74.3872 46.9467 65.4694 47.8798 55.9386C48.1243 53.4426 48.1524 53.3005 48.4763 52.9626C49.0062 52.4083 50.0967 52.4941 50.4295 53.1149C50.5012 53.2506 50.674 54.3283 50.8123 55.5123C51.9387 65.1738 51.9387 75.8822 50.8123 85.5437C50.5486 87.8029 50.4782 88.0563 50.0187 88.3776ZM35.3627 88.2035C34.8558 88.8064 33.7972 88.6631 33.4107 87.9399C33.2699 87.6787 32.8603 84.2496 32.6465 81.536C32.2523 76.5555 32.1563 70.8928 32.3854 66.112C32.6312 60.9882 33.1534 55.8272 33.4772 55.3357C33.7268 54.953 34.514 54.7226 34.9697 54.8967C35.5176 55.1066 35.684 55.5136 35.8913 57.152C37.0254 66.1069 37.092 75.4855 36.0859 84.544C35.7364 87.6902 35.7185 87.7811 35.3627 88.2035ZM20.3073 87.305C19.8708 87.5712 19.666 87.5955 19.25 87.4266C18.6369 87.1783 18.4808 86.761 18.1902 84.5824C17.6948 80.8691 17.6526 80.256 17.5771 75.8131C17.499 71.1744 17.6052 68.8576 18.0584 65.2839C18.4219 62.4218 18.4385 62.3488 18.7816 61.9405C19.0465 61.6256 19.1886 61.568 19.7006 61.568C20.6875 61.568 20.8308 61.815 21.1931 64.1344C21.7588 67.7517 21.9355 70.1901 21.938 74.368C21.9406 78.4807 21.8216 80.2867 21.3019 83.968C20.9179 86.6816 20.827 86.9888 20.3073 87.305ZM27.9195 88.4954C27.556 88.8832 27.1425 88.9677 26.6446 88.759C26.0276 88.4992 25.8894 88.137 25.6718 86.208C24.5556 76.3226 24.5595 70.1504 25.6846 64.4122C25.8574 63.5315 25.956 63.2986 26.2683 63.0362C26.9928 62.4269 28.0283 62.7367 28.2408 63.6275C29.0779 67.1488 29.2494 68.9651 29.243 74.304C29.2379 78.569 29.202 79.3639 28.8846 82.304C28.274 87.9706 28.2459 88.1485 27.9195 88.4954ZM12.996 83.401C12.4174 83.7811 11.7889 83.7146 11.3524 83.2282C11.1156 82.9658 10.7764 81.5603 10.4193 79.36C10.1441 77.6691 10.0404 73.12 10.2337 71.2192C10.3924 69.6576 10.7892 67.3319 11.0235 66.5946C11.2859 65.7651 12.2792 65.4016 12.996 65.8701C13.4222 66.1491 13.9905 68.0794 14.2721 70.208C14.5678 72.4301 14.6126 73.2685 14.5512 75.328C14.4795 77.7152 14.2849 79.1975 13.7716 81.28C13.6065 81.9482 13.435 82.6534 13.3902 82.8467C13.3454 83.0387 13.1675 83.2883 12.996 83.401Z" fill="black"/>
<path d="M0 64V0H64H128V64V128H64H0V64ZM27.9194 88.4954C28.2458 88.1485 28.2739 87.9706 28.8845 82.304C29.2019 79.3638 29.2378 78.569 29.2429 74.304C29.2493 68.9651 29.0778 67.1488 28.2406 63.6275C28.0282 62.7366 26.9926 62.4269 26.2682 63.0362C25.9558 63.2986 25.8573 63.5315 25.6845 64.4122C24.5594 70.1504 24.5555 76.3226 25.6717 86.208C25.8893 88.137 26.0275 88.4992 26.6445 88.759C27.1424 88.9677 27.5558 88.8832 27.9194 88.4954ZM42.2886 88.7091C42.8186 88.5082 42.9862 88.0806 43.1962 86.3987C44.4058 76.6579 44.4493 64.4723 43.3114 54.592C43.2051 53.6768 43.0938 52.6694 43.063 52.352C42.985 51.552 42.409 51.0106 41.7498 51.1181C41.4989 51.159 41.1533 51.3318 40.983 51.5034C40.7027 51.7837 40.649 52.023 40.4429 53.9072C39.4893 62.6253 39.3114 71.8938 39.9347 80.384C40.1459 83.2538 40.6042 87.7248 40.7181 88.032C40.8256 88.3187 41.527 88.8307 41.815 88.832C41.8995 88.832 42.112 88.777 42.2886 88.7091ZM57.3504 88.3366C57.6448 88.0243 57.7062 87.767 57.9571 85.8176C59.0285 77.4925 59.1757 68.7795 58.4307 57.792C58.089 52.7616 57.7242 48.7117 57.5795 48.3469C57.4016 47.9014 57.1136 47.7427 56.489 47.7478C55.9616 47.753 55.6736 47.913 55.4547 48.3238C55.1808 48.841 54.6266 55.7094 54.3859 61.568C54.2234 65.559 54.2976 74.4768 54.5242 78.208C54.6637 80.5018 55.1104 86.0493 55.2538 87.2768C55.4189 88.6861 56.5056 89.2352 57.3504 88.3366ZM104.602 88.4083C107.901 87.7491 110.569 86.3002 112.861 83.9219C115.683 80.9933 117.254 76.6106 116.864 72.7629C116.483 69.0163 115.059 66.0224 112.471 63.5264C109.896 61.0419 107.296 59.8682 103.538 59.4931C102.266 59.3651 101.83 59.3741 100.59 59.5558C99.7901 59.6723 99.0067 59.8042 98.8493 59.8502C98.6611 59.9053 98.5459 59.8733 98.5114 59.7581C97.591 56.6349 96.9216 54.9542 95.863 53.1034C92.2061 46.7136 85.6051 42.208 78.3565 41.1546C76.439 40.8755 73.5974 40.7846 71.936 40.9498C68.5107 41.2902 64.7565 42.6432 63.2666 44.073C62.2592 45.0394 62.3283 43.3216 62.3667 66.1914L62.4 86.6112L62.7469 87.1347C62.9376 87.424 63.287 87.8067 63.5226 87.9859C64.4877 88.7219 63.6454 88.695 84.416 88.6605C101.934 88.6323 103.579 88.6118 104.602 88.4083ZM35.3626 88.2035C35.7184 87.7811 35.7363 87.6902 36.0858 84.544C37.0918 75.4854 37.0253 66.1069 35.8912 57.152C35.6838 55.5136 35.5174 55.1066 34.9696 54.8966C34.5139 54.7226 33.7267 54.953 33.4771 55.3357C33.1533 55.8272 32.631 60.9882 32.3853 66.112C32.1562 70.8928 32.2522 76.5555 32.6464 81.536C32.8602 84.2496 33.2698 87.6787 33.4106 87.9398C33.7971 88.663 34.8557 88.8064 35.3626 88.2035ZM50.0186 88.3776C50.4781 88.0563 50.5485 87.8029 50.8122 85.5437C51.9386 75.8822 51.9386 65.1738 50.8122 55.5123C50.6739 54.3283 50.5011 53.2506 50.4294 53.1149C50.0966 52.4941 49.0061 52.4083 48.4762 52.9626C48.1523 53.3005 48.1242 53.4426 47.8797 55.9386C46.9466 65.4694 46.9056 74.3872 47.7517 83.776C48.1178 87.8336 48.1152 87.8144 48.5222 88.2227C48.9293 88.6298 49.5654 88.695 50.0186 88.3776ZM20.3072 87.305C20.8269 86.9888 20.9178 86.6816 21.3018 83.968C21.8214 80.2867 21.9405 78.4806 21.9379 74.368C21.9354 70.1901 21.7587 67.7517 21.193 64.1344C20.8307 61.815 20.6874 61.568 19.7005 61.568C19.1885 61.568 19.0464 61.6256 18.7814 61.9405C18.4384 62.3488 18.4218 62.4218 18.0582 65.2838C17.6051 68.8576 17.4989 71.1744 17.577 75.8131C17.6525 80.256 17.6947 80.8691 18.1901 84.5824C18.4806 86.761 18.6368 87.1782 19.2499 87.4266C19.6659 87.5955 19.8707 87.5712 20.3072 87.305ZM12.9958 83.401C13.1674 83.2883 13.3453 83.0387 13.3901 82.8467C13.4349 82.6534 13.6064 81.9482 13.7715 81.28C14.2848 79.1974 14.4794 77.7152 14.551 75.328C14.6125 73.2685 14.5677 72.4301 14.272 70.208C13.9904 68.0794 13.4221 66.1491 12.9958 65.8701C12.279 65.4016 11.2858 65.7651 11.0234 66.5946C10.7891 67.3318 10.3923 69.6576 10.2336 71.2192C10.0403 73.12 10.144 77.6691 10.4192 79.36C10.7763 81.5603 11.1155 82.9658 11.3523 83.2282C11.7888 83.7146 12.4173 83.7811 12.9958 83.401Z" fill="#FEFFFE"/>
</g>
<defs>
<clipPath id="clip0_364_192">
<rect width="128" height="128" fill="white"/>
</clipPath>
</defs>
</svg>
