<svg width="128" height="128" viewBox="0 0 128 128" fill="none" xmlns="http://www.w3.org/2000/svg">
<g clip-path="url(#clip0_240_6144)">
<g clip-path="url(#clip1_240_6144)">
<path d="M51.5674 35.3447L67.0764 39.482L56.514 0L38.627 4.81448L44.994 28.7547C45.8445 31.9671 48.3632 34.4941 51.5674 35.3447Z" fill="#F34E3F"/>
<path d="M25.348 115.762L59.1814 81.9942L71.4944 128L89.3811 123.186L71.5602 56.386L4.76057 38.5815L0.00390625 56.5677L45.9685 68.856L12.2754 102.574L25.348 115.762Z" fill="#F34E3F"/>
<path d="M88.4312 60.853L92.585 76.4278C93.4443 79.6403 95.963 82.159 99.159 83.0097L123.239 89.4097L127.996 71.4239L88.4312 60.853Z" fill="#F34E3F"/>
<path d="M102.652 12.23L87.259 27.6065C85.5576 29.3077 84.5918 31.5622 84.5255 33.9735L84.2778 43.7263L93.2957 44.0402C93.1801 44.0402 93.4113 44.0402 93.2957 44.0402C95.7645 44.0402 98.0855 43.0739 99.8277 41.3315L115.724 25.4181L102.652 12.23Z" fill="#F34E3F"/>
</g>
</g>
<defs>
<clipPath id="clip0_240_6144">
<rect width="128" height="128" fill="white"/>
</clipPath>
<clipPath id="clip1_240_6144">
<rect width="127.992" height="128" fill="white" transform="translate(0.00390625)"/>
</clipPath>
</defs>
</svg>
