<svg xmlns="http://www.w3.org/2000/svg" viewBox="0 0 284 90" width="284" height="90" preserveAspectRatio="xMidYMid slice" style="width: 100%; height: 100%; transform: translate3d(0px, 0px, 0px);"><defs><clipPath id="__lottie_element_2"><rect width="284" height="90" x="0" y="0"/></clipPath><clipPath id="__lottie_element_4"><path d="M0,0 L1920,0 L1920,1080 L0,1080z"/></clipPath><mask id="__lottie_element_7" mask-type="alpha"><g transform="matrix(1,0,0,1,960,540)" opacity="1" style="display: block; opacity: 1 !important;"><g opacity="1" transform="matrix(1,0,0,1,2.5,0)" style="opacity: 1 !important;"><path fill="rgb(0,0,0)" fill-opacity="1" d="M0 0" style="fill: rgb(0, 0, 0) !important; fill-opacity: 1 !important;"/><path stroke-linecap="butt" stroke-linejoin="miter" fill-opacity="0" stroke-miterlimit="4" stroke="rgb(255,151,151)" stroke-opacity="1" stroke-width="116" d="M0 0" style="stroke: rgb(255, 151, 151) !important; stroke-width: 116px !important; stroke-linecap: butt !important; stroke-linejoin: miter !important; fill-opacity: 0 !important; stroke-opacity: 1 !important;"/></g></g></mask><clipPath id="__lottie_element_11"><path fill="#000000" clip-rule="nonzero" d=" M483.5849914550781,-102.36499786376953 C483.5849914550781,-102.36499786376953 429.2449951171875,103.36499786376953 429.2449951171875,103.36499786376953 C429.2449951171875,103.36499786376953 384.9949951171875,103.36499786376953 384.9949951171875,103.36499786376953 C384.9949951171875,103.36499786376953 439.3349914550781,-102.36499786376953 439.3349914550781,-102.36499786376953 C439.3349914550781,-102.36499786376953 483.5849914550781,-102.36499786376953 483.5849914550781,-102.36499786376953" fill-opacity="1" style="fill: #000000 !important; fill-opacity: 1 !important;"/></clipPath><mask id="__lottie_element_13" mask-type="alpha"><g transform="matrix(1,0,0,1,960,540)" opacity="1" style="display: block; opacity: 1 !important;"><g opacity="1" transform="matrix(1,0,0,1,2.5,0)" style="opacity: 1 !important;"><path fill="rgb(0,0,0)" fill-opacity="1" d=" M432.5,106.25 C432.5,106.25 432.5,-104 432.5,-104" style="fill: rgb(0, 0, 0) !important; fill-opacity: 1 !important;"/><path stroke-linecap="butt" stroke-linejoin="miter" fill-opacity="0" stroke-miterlimit="4" stroke="rgb(255,151,151)" stroke-opacity="1" stroke-width="116" d=" M432.5,106.25 C432.5,106.25 432.5,-104 432.5,-104" style="stroke: rgb(255, 151, 151) !important; stroke-width: 116px !important; stroke-linecap: butt !important; stroke-linejoin: miter !important; fill-opacity: 0 !important; stroke-opacity: 1 !important;"/></g></g></mask><clipPath id="__lottie_element_17"><path fill="#000000" clip-rule="nonzero" d=" M483.5849914550781,-102.36499786376953 C483.5849914550781,-102.36499786376953 429.2449951171875,103.36499786376953 429.2449951171875,103.36499786376953 C429.2449951171875,103.36499786376953 384.9949951171875,103.36499786376953 384.9949951171875,103.36499786376953 C384.9949951171875,103.36499786376953 439.3349914550781,-102.36499786376953 439.3349914550781,-102.36499786376953 C439.3349914550781,-102.36499786376953 483.5849914550781,-102.36499786376953 483.5849914550781,-102.36499786376953" fill-opacity="1" style="fill: #000000 !important; fill-opacity: 1 !important;"/></clipPath><mask id="__lottie_element_19" mask-type="alpha"><g transform="matrix(0.4747900068759918,0,0,0.4747900068759918,1323,544)" opacity="1" style="display: block; opacity: 1 !important;"><g opacity="1" transform="matrix(1,0,0,1,0,0)" style="opacity: 1 !important;"><path fill="rgb(0,0,0)" fill-opacity="1" d="M0 0" style="fill: rgb(0, 0, 0) !important; fill-opacity: 1 !important;"/><path stroke-linecap="butt" stroke-linejoin="miter" fill-opacity="0" stroke-miterlimit="4" stroke="rgb(255,151,151)" stroke-opacity="1" stroke-width="140" d="M0 0" style="stroke: rgb(255, 151, 151) !important; stroke-width: 140px !important; stroke-linecap: butt !important; stroke-linejoin: miter !important; fill-opacity: 0 !important; stroke-opacity: 1 !important;"/></g></g></mask><clipPath id="__lottie_element_23"><path fill="#000000" clip-rule="nonzero" d=" M452.5350036621094,-213.38499450683594 C480.875,-213.38499450683594 507.6549987792969,-197.85499572753906 524.7349853515625,-175.34500122070312 C524.7349853515625,-175.34500122070312 490.18499755859375,-154.38499450683594 490.18499755859375,-154.38499450683594 C481.2550048828125,-166.02499389648438 467.6650085449219,-175.34500122070312 451.7550048828125,-175.34500122070312 C433.5050048828125,-175.34500122070312 412.5450134277344,-162.53500366210938 404.7850036621094,-132.64500427246094 C404.7850036621094,-132.64500427246094 333.364990234375,137.13499450683594 333.364990234375,137.13499450683594 C319.7749938964844,187.98500061035156 280.57501220703125,214.38499450683594 242.14500427246094,214.38499450683594 C213.80499267578125,214.38499450683594 187.02499389648438,198.85499572753906 169.94500732421875,176.34500122070312 C169.94500732421875,176.34500122070312 204.4949951171875,155.38499450683594 204.4949951171875,155.38499450683594 C213.4250030517578,167.03500366210938 227.0050048828125,176.34500122070312 242.9250030517578,176.34500122070312 C261.17498779296875,176.34500122070312 282.135009765625,163.53500366210938 289.8949890136719,133.64500427246094 C289.8949890136719,133.64500427246094 361.31500244140625,-136.13499450683594 361.31500244140625,-136.13499450683594 C374.9049987792969,-186.98500061035156 414.1050109863281,-213.38499450683594 452.5350036621094,-213.38499450683594 C452.5350036621094,-213.38499450683594 452.5350036621094,-213.38499450683594 452.5350036621094,-213.38499450683594" fill-opacity="1" style="fill: #000000 !important; fill-opacity: 1 !important;"/></clipPath><mask id="__lottie_element_25" mask-type="alpha"><g transform="matrix(0.4747900068759918,0,0,0.4747900068759918,1323,544)" opacity="1" style="display: block; opacity: 1 !important;"><g opacity="1" transform="matrix(1,0,0,1,0,0)" style="opacity: 1 !important;"><path fill="rgb(0,0,0)" fill-opacity="1" d=" M-359.7879943847656,325.2569885253906 C-359.7879943847656,325.2569885253906 -305.7900085449219,434.85400390625 -197,396 C-141,376 -118.5,321.5 -118.5,321.5 C-118.5,321.5 53.5,-336 53.5,-336 C53.5,-336 79.5,-409.5 185.5,-422.5 C251.61500549316406,-430.6080017089844 297.2879943847656,-344.468994140625 297.2879943847656,-344.468994140625" style="fill: rgb(0, 0, 0) !important; fill-opacity: 1 !important;"/><path stroke-linecap="butt" stroke-linejoin="miter" fill-opacity="0" stroke-miterlimit="4" stroke="rgb(255,151,151)" stroke-opacity="1" stroke-width="140" d=" M-359.7879943847656,325.2569885253906 C-359.7879943847656,325.2569885253906 -305.7900085449219,434.85400390625 -197,396 C-141,376 -118.5,321.5 -118.5,321.5 C-118.5,321.5 53.5,-336 53.5,-336 C53.5,-336 79.5,-409.5 185.5,-422.5 C251.61500549316406,-430.6080017089844 297.2879943847656,-344.468994140625 297.2879943847656,-344.468994140625" style="stroke: rgb(255, 151, 151) !important; stroke-width: 140px !important; stroke-linecap: butt !important; stroke-linejoin: miter !important; fill-opacity: 0 !important; stroke-opacity: 1 !important;"/></g></g></mask><clipPath id="__lottie_element_29"><path fill="#000000" clip-rule="nonzero" d=" M452.5350036621094,-213.38499450683594 C480.875,-213.38499450683594 507.6549987792969,-197.85499572753906 524.7349853515625,-175.34500122070312 C524.7349853515625,-175.34500122070312 490.18499755859375,-154.38499450683594 490.18499755859375,-154.38499450683594 C481.2550048828125,-166.02499389648438 467.6650085449219,-175.34500122070312 451.7550048828125,-175.34500122070312 C433.5050048828125,-175.34500122070312 412.5450134277344,-162.53500366210938 404.7850036621094,-132.64500427246094 C404.7850036621094,-132.64500427246094 333.364990234375,137.13499450683594 333.364990234375,137.13499450683594 C319.7749938964844,187.98500061035156 280.57501220703125,214.38499450683594 242.14500427246094,214.38499450683594 C213.80499267578125,214.38499450683594 187.02499389648438,198.85499572753906 169.94500732421875,176.34500122070312 C169.94500732421875,176.34500122070312 204.4949951171875,155.38499450683594 204.4949951171875,155.38499450683594 C213.4250030517578,167.03500366210938 227.0050048828125,176.34500122070312 242.9250030517578,176.34500122070312 C261.17498779296875,176.34500122070312 282.135009765625,163.53500366210938 289.8949890136719,133.64500427246094 C289.8949890136719,133.64500427246094 361.31500244140625,-136.13499450683594 361.31500244140625,-136.13499450683594 C374.9049987792969,-186.98500061035156 414.1050109863281,-213.38499450683594 452.5350036621094,-213.38499450683594 C452.5350036621094,-213.38499450683594 452.5350036621094,-213.38499450683594 452.5350036621094,-213.38499450683594" fill-opacity="1" style="fill: #000000 !important; fill-opacity: 1 !important;"/></clipPath><mask id="__lottie_element_31" mask-type="alpha"><g transform="matrix(1,0,0,1,783,540)" opacity="1" style="display: block; opacity: 1 !important;"><g opacity="1" transform="matrix(1,0,0,1,2.5,0)" style="opacity: 1 !important;"><path fill="rgb(0,0,0)" fill-opacity="1" d="M0 0" style="fill: rgb(0, 0, 0) !important; fill-opacity: 1 !important;"/><path stroke-linecap="butt" stroke-linejoin="miter" fill-opacity="0" stroke-miterlimit="4" stroke="rgb(255,151,151)" stroke-opacity="1" stroke-width="116" d="M0 0" style="stroke: rgb(255, 151, 151) !important; stroke-width: 116px !important; stroke-linecap: butt !important; stroke-linejoin: miter !important; fill-opacity: 0 !important; stroke-opacity: 1 !important;"/></g></g></mask><clipPath id="__lottie_element_35"><path fill="#000000" clip-rule="nonzero" d=" M309.67498779296875,-102.36499786376953 C309.67498779296875,-102.36499786376953 255.3350067138672,103.36499786376953 255.3350067138672,103.36499786376953 C255.3350067138672,103.36499786376953 211.0850067138672,103.36499786376953 211.0850067138672,103.36499786376953 C211.0850067138672,103.36499786376953 265.42498779296875,-102.36499786376953 265.42498779296875,-102.36499786376953 C265.42498779296875,-102.36499786376953 309.67498779296875,-102.36499786376953 309.67498779296875,-102.36499786376953" fill-opacity="1" style="fill: #000000 !important; fill-opacity: 1 !important;"/></clipPath><mask id="__lottie_element_37" mask-type="alpha"><g transform="matrix(1,0,0,1,783,540)" opacity="1" style="display: block; opacity: 1 !important;"><g opacity="1" transform="matrix(1,0,0,1,2.5,0)" style="opacity: 1 !important;"><path fill="rgb(0,0,0)" fill-opacity="1" d=" M432.5,106.25 C432.5,106.25 432.5,-104 432.5,-104" style="fill: rgb(0, 0, 0) !important; fill-opacity: 1 !important;"/><path stroke-linecap="butt" stroke-linejoin="miter" fill-opacity="0" stroke-miterlimit="4" stroke="rgb(255,151,151)" stroke-opacity="1" stroke-width="116" d=" M432.5,106.25 C432.5,106.25 432.5,-104 432.5,-104" style="stroke: rgb(255, 151, 151) !important; stroke-width: 116px !important; stroke-linecap: butt !important; stroke-linejoin: miter !important; fill-opacity: 0 !important; stroke-opacity: 1 !important;"/></g></g></mask><clipPath id="__lottie_element_41"><path fill="#000000" clip-rule="nonzero" d=" M309.67498779296875,-102.36499786376953 C309.67498779296875,-102.36499786376953 255.3350067138672,103.36499786376953 255.3350067138672,103.36499786376953 C255.3350067138672,103.36499786376953 211.0850067138672,103.36499786376953 211.0850067138672,103.36499786376953 C211.0850067138672,103.36499786376953 265.42498779296875,-102.36499786376953 265.42498779296875,-102.36499786376953 C265.42498779296875,-102.36499786376953 309.67498779296875,-102.36499786376953 309.67498779296875,-102.36499786376953" fill-opacity="1" style="fill: #000000 !important; fill-opacity: 1 !important;"/></clipPath><clipPath id="__lottie_element_44"><path fill="#000000" clip-rule="nonzero" d=" M549.1849975585938,0.5049999952316284 C549.1849975585938,47.8650016784668 579.0750122070312,70.76499938964844 613.625,70.76499938964844 C634.5850219726562,70.76499938964844 653.9949951171875,62.224998474121094 665.64501953125,45.14500045776367 C665.64501953125,45.14500045776367 700.1950073242188,65.71499633789062 700.1950073242188,65.71499633789062 C679.625,94.43499755859375 646.2349853515625,109.57499694824219 613.625,109.57499694824219 C561.2249755859375,109.57499694824219 506.875,70.375 506.875,0.4950000047683716 C506.875,-69.38500213623047 561.2150268554688,-108.58499908447266 613.625,-108.58499908447266 C646.2349853515625,-108.58499908447266 679.614990234375,-93.44499969482422 700.1950073242188,-64.7249984741211 C700.1950073242188,-64.7249984741211 665.64501953125,-44.154998779296875 665.64501953125,-44.154998779296875 C653.9949951171875,-61.23500061035156 634.5850219726562,-69.7750015258789 613.625,-69.7750015258789 C578.6950073242188,-69.7750015258789 549.1849975585938,-44.154998779296875 549.1849975585938,0.48500001430511475 C549.1849975585938,0.48500001430511475 549.1849975585938,0.5049999952316284 549.1849975585938,0.5049999952316284" fill-opacity="1" style="fill: #000000 !important; fill-opacity: 1 !important;"/><path fill="#000000" clip-rule="nonzero" d=" M700.1849975585938,-64.70500183105469 C700.1849975585938,-64.70500183105469 665.635009765625,-44.1349983215332 665.635009765625,-44.1349983215332 C665.635009765625,-44.1349983215332 700.1849975585938,-64.70500183105469 700.1849975585938,-64.70500183105469" fill-opacity="1" style="fill: #000000 !important; fill-opacity: 1 !important;"/><path fill="#000000" clip-rule="nonzero" d=" M665.635009765625,45.14500045776367 C665.635009765625,45.14500045776367 700.1849975585938,65.71499633789062 700.1849975585938,65.71499633789062 C700.1849975585938,65.71499633789062 665.635009765625,45.14500045776367 665.635009765625,45.14500045776367" fill-opacity="1" style="fill: #000000 !important; fill-opacity: 1 !important;"/></clipPath><clipPath id="__lottie_element_47"><path fill="#000000" clip-rule="nonzero" d=" M48.435001373291016,0.5049999952316284 C48.435001373291016,47.8650016784668 78.32499694824219,70.76499938964844 112.875,70.76499938964844 C133.8350067138672,70.76499938964844 153.2449951171875,62.224998474121094 164.89500427246094,45.14500045776367 C164.89500427246094,45.14500045776367 199.44500732421875,65.71499633789062 199.44500732421875,65.71499633789062 C178.875,94.43499755859375 145.48500061035156,109.57499694824219 112.875,109.57499694824219 C60.474998474121094,109.57499694824219 6.125,70.375 6.125,0.4950000047683716 C6.125,-69.38500213623047 60.46500015258789,-108.58499908447266 112.875,-108.58499908447266 C145.48500061035156,-108.58499908447266 178.86500549316406,-93.44499969482422 199.44500732421875,-64.7249984741211 C199.44500732421875,-64.7249984741211 164.89500427246094,-44.154998779296875 164.89500427246094,-44.154998779296875 C153.2449951171875,-61.23500061035156 133.8350067138672,-69.7750015258789 112.875,-69.7750015258789 C77.94499969482422,-69.7750015258789 48.435001373291016,-44.154998779296875 48.435001373291016,0.48500001430511475 C48.435001373291016,0.48500001430511475 48.435001373291016,0.5049999952316284 48.435001373291016,0.5049999952316284" fill-opacity="1" style="fill: #000000 !important; fill-opacity: 1 !important;"/><path fill="#000000" clip-rule="nonzero" d=" M199.43499755859375,-64.70500183105469 C199.43499755859375,-64.70500183105469 164.88499450683594,-44.1349983215332 164.88499450683594,-44.1349983215332 C164.88499450683594,-44.1349983215332 199.43499755859375,-64.70500183105469 199.43499755859375,-64.70500183105469" fill-opacity="1" style="fill: #000000 !important; fill-opacity: 1 !important;"/><path fill="#000000" clip-rule="nonzero" d=" M164.88499450683594,45.14500045776367 C164.88499450683594,45.14500045776367 199.43499755859375,65.71499633789062 199.43499755859375,65.71499633789062 C199.43499755859375,65.71499633789062 164.88499450683594,45.14500045776367 164.88499450683594,45.14500045776367" fill-opacity="1" style="fill: #000000 !important; fill-opacity: 1 !important;"/></clipPath><mask id="__lottie_element_50"><path fill="#000000" clip-rule="nonzero" d=" M-186.80499267578125,19.905000686645508 C-179.81500244140625,54.064998626708984 -153.81500244140625,70.75499725341797 -124.30500030517578,70.75499725341797 C-103.34500122070312,70.75499725341797 -83.93499755859375,62.21500015258789 -72.28500366210938,45.1349983215332 C-72.28500366210938,45.1349983215332 -37.73500061035156,65.70500183105469 -37.73500061035156,65.70500183105469 C-58.30500030517578,94.42500305175781 -91.69499969482422,109.56500244140625 -124.29499816894531,109.56500244140625 C-176.69500732421875,109.56500244140625 -231.0449981689453,70.36499786376953 -231.0449981689453,0.48500001430511475 C-231.0449981689453,-69.3949966430664 -180.5850067138672,-108.59500122070312 -128.1750030517578,-108.59500122070312 C-75.76499938964844,-108.59500122070312 -17.934999465942383,-65.8949966430664 -25.69499969482422,19.895000457763672 C-25.69499969482422,19.895000457763672 -186.78500366210938,19.895000457763672 -186.78500366210938,19.895000457763672 C-186.78500366210938,19.895000457763672 -186.80499267578125,19.905000686645508 -186.80499267578125,19.905000686645508" fill-opacity="1" style="fill: #000000 !important; fill-opacity: 1 !important;"/><path fill="#000000" clip-rule="nonzero" d=" M-71.51499938964844,-14.645000457763672 C-74.61499786376953,-47.255001068115234 -97.91500091552734,-69.76499938964844 -128.18499755859375,-69.76499938964844 C-158.4550018310547,-69.76499938964844 -182.52499389648438,-49.96500015258789 -187.5749969482422,-14.645000457763672 C-187.5749969482422,-14.645000457763672 -71.51499938964844,-14.645000457763672 -71.51499938964844,-14.645000457763672" fill-opacity="1" style="fill: rgb(0, 0, 0) !important; fill-opacity: 1 !important;"/><path fill="#000000" clip-rule="nonzero" d=" M-72.29499816894531,45.1349983215332 C-72.29499816894531,45.1349983215332 -37.744998931884766,65.70500183105469 -37.744998931884766,65.70500183105469 C-37.744998931884766,65.70500183105469 -72.29499816894531,45.1349983215332 -72.29499816894531,45.1349983215332" fill-opacity="1" style="fill: #000000 !important; fill-opacity: 1 !important;"/></mask><mask id="__lottie_element_53"><path fill="#000000" clip-rule="nonzero" d=" M-429.0249938964844,-102.36499786376953 C-429.0249938964844,-102.36499786376953 -429.0249938964844,-82.56500244140625 -429.0249938964844,-82.56500244140625 C-409.2250061035156,-99.6449966430664 -385.1650085449219,-108.57499694824219 -364.9750061035156,-108.57499694824219 C-316.4549865722656,-108.57499694824219 -262.1050109863281,-69.75499725341797 -262.1050109863281,0.5049999952316284 C-262.1050109863281,70.76499938964844 -316.44500732421875,109.58499908447266 -364.9750061035156,109.58499908447266 C-385.1549987792969,109.58499908447266 -409.2250061035156,100.65499877929688 -429.0249938964844,83.57499694824219 C-429.0249938964844,83.57499694824219 -429.0249938964844,181.0050048828125 -429.0249938964844,181.0050048828125 C-429.0249938964844,181.0050048828125 -471.7250061035156,181.0050048828125 -471.7250061035156,181.0050048828125 C-471.7250061035156,181.0050048828125 -471.7250061035156,-102.36499786376953 -471.7250061035156,-102.36499786376953 C-471.7250061035156,-102.36499786376953 -429.0249938964844,-102.36499786376953 -429.0249938964844,-102.36499786376953 C-429.0249938964844,-102.36499786376953 -429.0249938964844,-102.36499786376953 -429.0249938964844,-102.36499786376953" fill-opacity="1" style="fill: #000000 !important; fill-opacity: 1 !important;"/><path fill="#000000" clip-rule="nonzero" d=" M-364.9750061035156,70.76499938964844 C-334.30499267578125,70.76499938964844 -304.4150085449219,47.8650016784668 -304.4150085449219,0.5049999952316284 C-304.4150085449219,-44.1349983215332 -333.9150085449219,-69.75499725341797 -364.9750061035156,-69.75499725341797 C-397.9649963378906,-69.75499725341797 -429.0249938964844,-43.35499954223633 -429.0249938964844,0.5049999952316284 C-429.0249938964844,44.3650016784668 -398.3550109863281,70.76499938964844 -364.9750061035156,70.76499938964844" fill-opacity="1" style="fill: rgb(0, 0, 0) !important; fill-opacity: 1 !important;"/></mask><clipPath id="__lottie_element_56"><path fill="#000000" clip-rule="nonzero" d=" M-684.8350219726562,-101.59500122070312 C-684.8350219726562,-139.63499450683594 -651.4550170898438,-174.5749969482422 -603.3150024414062,-174.5749969482422 C-555.1749877929688,-174.5749969482422 -525.2949829101562,-144.2949981689453 -509.7650146484375,-120.61499786376953 C-509.7650146484375,-120.61499786376953 -542.7550048828125,-100.43499755859375 -542.7550048828125,-100.43499755859375 C-556.7249755859375,-120.61499786376953 -577.6950073242188,-135.7550048828125 -603.3150024414062,-135.7550048828125 C-628.9349975585938,-135.7550048828125 -642.135009765625,-119.06500244140625 -642.135009765625,-101.59500122070312 C-642.135009765625,-44.14500045776367 -506.6650085449219,-62.3849983215332 -506.6650085449219,33.48500061035156 C-506.6650085449219,76.57499694824219 -543.9249877929688,109.56500244140625 -593.614990234375,109.56500244140625 C-651.4550170898438,109.56500244140625 -680.9550170898438,78.51499938964844 -699.1950073242188,43.185001373291016 C-699.1950073242188,43.185001373291016 -665.4249877929688,22.9950008392334 -665.4249877929688,22.9950008392334 C-650.2849731445312,49.39500045776367 -629.7150268554688,70.74500274658203 -593.614990234375,70.74500274658203 C-567.9949951171875,70.74500274658203 -549.364990234375,57.154998779296875 -549.364990234375,33.48500061035156 C-549.364990234375,-26.684999465942383 -684.8350219726562,-11.9350004196167 -684.8350219726562,-101.59500122070312" fill-opacity="1" style="fill: #000000 !important; fill-opacity: 1 !important;"/></clipPath></defs><g clip-path="url(#__lottie_element_2)"><g clip-path="url(#__lottie_element_4)" transform="matrix(0.20000000298023224,0,0,0.20000000298023224,-50,-63)" opacity="1" style="display: block; opacity: 1 !important;"><g clip-path="url(#__lottie_element_56)" transform="matrix(1,0,0,1,960,540)" opacity="1" style="display: block; opacity: 1 !important;"><g opacity="1" transform="matrix(1,0,0,1,0,0)" style="opacity: 1 !important;"><path fill="rgb(0,0,0)" fill-opacity="1" d=" M960,-540 C960,-540 960,540 960,540 C960,540 -960,540 -960,540 C-960,540 -960,-540 -960,-540 C-960,-540 960,-540 960,-540z" style="fill: rgb(0, 0, 0) !important; fill-opacity: 1 !important;"/></g></g><g mask="url(#__lottie_element_53)" transform="matrix(1,0,0,1,960,540)" opacity="1" style="display: block; opacity: 1 !important;"><g opacity="1" transform="matrix(1,0,0,1,0,0)" style="opacity: 1 !important;"><path fill="rgb(0,0,0)" fill-opacity="1" d=" M960,-540 C960,-540 960,540 960,540 C960,540 -960,540 -960,540 C-960,540 -960,-540 -960,-540 C-960,-540 960,-540 960,-540z" style="fill: rgb(0, 0, 0) !important; fill-opacity: 1 !important;"/></g></g><g mask="url(#__lottie_element_50)" transform="matrix(1,0,0,1,960,540)" opacity="1" style="display: block; opacity: 1 !important;"><g opacity="1" transform="matrix(1,0,0,1,0,0)" style="opacity: 1 !important;"><path fill="rgb(0,0,0)" fill-opacity="1" d=" M960,-540 C960,-540 960,540 960,540 C960,540 -960,540 -960,540 C-960,540 -960,-540 -960,-540 C-960,-540 960,-540 960,-540z" style="fill: rgb(0, 0, 0) !important; fill-opacity: 1 !important;"/></g></g><g clip-path="url(#__lottie_element_47)" transform="matrix(1,0,0,1,960,540)" opacity="1" style="display: block; opacity: 1 !important;"><g opacity="1" transform="matrix(1,0,0,1,0,0)" style="opacity: 1 !important;"><path fill="rgb(0,0,0)" fill-opacity="1" d=" M960,-540 C960,-540 960,540 960,540 C960,540 -960,540 -960,540 C-960,540 -960,-540 -960,-540 C-960,-540 960,-540 960,-540z" style="fill: rgb(0, 0, 0) !important; fill-opacity: 1 !important;"/></g></g><g clip-path="url(#__lottie_element_44)" transform="matrix(1,0,0,1,960,540)" opacity="1" style="display: block; opacity: 1 !important;"><g opacity="1" transform="matrix(1,0,0,1,0,0)" style="opacity: 1 !important;"><path fill="rgb(0,0,0)" fill-opacity="1" d=" M960,-540 C960,-540 960,540 960,540 C960,540 -960,540 -960,540 C-960,540 -960,-540 -960,-540 C-960,-540 960,-540 960,-540z" style="fill: rgb(0, 0, 0) !important; fill-opacity: 1 !important;"/></g></g><g mask="url(#__lottie_element_37)" style="display: block;"><g clip-path="url(#__lottie_element_41)" transform="matrix(1,0,0,1,960,540)" opacity="1" style="opacity: 1 !important;"><g opacity="1" transform="matrix(1,0,0,1,0,0)" style="opacity: 1 !important;"><path fill="rgb(0,0,0)" fill-opacity="1" d=" M960,-540 C960,-540 960,540 960,540 C960,540 -960,540 -960,540 C-960,540 -960,-540 -960,-540 C-960,-540 960,-540 960,-540z" style="fill: rgb(0, 0, 0) !important; fill-opacity: 1 !important;"/></g></g></g><g mask="url(#__lottie_element_31)" style="display: block;"><g clip-path="url(#__lottie_element_35)" transform="matrix(1,0,0,1,960,540)" opacity="1" style="opacity: 1 !important;"><g opacity="1" transform="matrix(1,0,0,1,0,0)" style="opacity: 1 !important;"><path fill="rgb(0,0,0)" fill-opacity="1" d=" M960,-540 C960,-540 960,540 960,540 C960,540 -960,540 -960,540 C-960,540 -960,-540 -960,-540 C-960,-540 960,-540 960,-540z" style="fill: rgb(0, 0, 0) !important; fill-opacity: 1 !important;"/></g></g></g><g mask="url(#__lottie_element_25)" style="display: block;"><g clip-path="url(#__lottie_element_29)" transform="matrix(1,0,0,1,960,540)" opacity="1" style="opacity: 1 !important;"><g opacity="1" transform="matrix(1,0,0,1,0,0)" style="opacity: 1 !important;"><path fill="rgb(0,0,0)" fill-opacity="1" d=" M960,-540 C960,-540 960,540 960,540 C960,540 -960,540 -960,540 C-960,540 -960,-540 -960,-540 C-960,-540 960,-540 960,-540z" style="fill: rgb(0, 0, 0) !important; fill-opacity: 1 !important;"/></g></g></g><g mask="url(#__lottie_element_19)" style="display: block;"><g clip-path="url(#__lottie_element_23)" transform="matrix(1,0,0,1,960,540)" opacity="1" style="opacity: 1 !important;"><g opacity="1" transform="matrix(1,0,0,1,0,0)" style="opacity: 1 !important;"><path fill="rgb(0,0,0)" fill-opacity="1" d=" M960,-540 C960,-540 960,540 960,540 C960,540 -960,540 -960,540 C-960,540 -960,-540 -960,-540 C-960,-540 960,-540 960,-540z" style="fill: rgb(0, 0, 0) !important; fill-opacity: 1 !important;"/></g></g></g><g mask="url(#__lottie_element_13)" style="display: block;"><g clip-path="url(#__lottie_element_17)" transform="matrix(1,0,0,1,960,540)" opacity="1" style="opacity: 1 !important;"><g opacity="1" transform="matrix(1,0,0,1,0,0)" style="opacity: 1 !important;"><path fill="rgb(0,0,0)" fill-opacity="1" d=" M960,-540 C960,-540 960,540 960,540 C960,540 -960,540 -960,540 C-960,540 -960,-540 -960,-540 C-960,-540 960,-540 960,-540z" style="fill: rgb(0, 0, 0) !important; fill-opacity: 1 !important;"/></g></g></g><g mask="url(#__lottie_element_7)" style="display: block;"><g clip-path="url(#__lottie_element_11)" transform="matrix(1,0,0,1,960,540)" opacity="1" style="opacity: 1 !important;"><g opacity="1" transform="matrix(1,0,0,1,0,0)" style="opacity: 1 !important;"><path fill="rgb(0,0,0)" fill-opacity="1" d=" M960,-540 C960,-540 960,540 960,540 C960,540 -960,540 -960,540 C-960,540 -960,-540 -960,-540 C-960,-540 960,-540 960,-540z" style="fill: rgb(0, 0, 0) !important; fill-opacity: 1 !important;"/></g></g></g></g></g></svg>