<?xml version="1.0" encoding="UTF-8" standalone="no"?>
<!DOCTYPE svg PUBLIC "-//W3C//DTD SVG 1.1//EN" "http://www.w3.org/Graphics/SVG/1.1/DTD/svg11.dtd">
<svg xmlns="http://www.w3.org/2000/svg" version="1.1" viewBox="0.00 0.00 121.00 88.00">
<path fill="#ffffff" d="
  M 60.50 0.68
  Q 64.22 0.69 64.49 0.70
  C 72.09 1.05 77.33 6.22 77.56 13.87
  Q 77.63 16.53 77.50 18.68
  A 2.18 2.17 1.7 0 1 75.34 20.71
  L 68.35 20.74
  A 2.34 2.33 -0.2 0 1 66.00 18.42
  L 66.00 18.37
  A 2.24 2.24 0.0 0 1 68.20 16.02
  L 72.24 15.95
  A 0.56 0.56 0.0 0 0 72.79 15.42
  Q 73.23 7.88 66.88 5.81
  A 4.81 4.67 55.8 0 0 65.78 5.58
  Q 64.06 5.44 60.49 5.43
  Q 56.92 5.42 55.20 5.56
  A 4.81 4.67 -55.6 0 0 54.10 5.78
  Q 47.74 7.83 48.15 15.37
  A 0.56 0.56 0.0 0 0 48.70 15.90
  L 52.74 15.99
  A 2.24 2.24 0.0 0 1 54.93 18.35
  L 54.93 18.40
  A 2.34 2.33 0.5 0 1 52.57 20.71
  L 45.58 20.65
  A 2.18 2.17 -1.5 0 1 43.43 18.61
  Q 43.30 16.46 43.39 13.80
  C 43.65 6.15 48.91 1.00 56.51 0.69
  Q 56.78 0.67 60.50 0.68
  Z"
/>
<rect fill="#ffffff" x="-5.75" y="-2.37" transform="translate(49.20,26.94) rotate(-0.3)" width="11.50" height="4.74" rx="2.26"/>
<rect fill="#ffffff" x="65.97" y="24.58" width="11.52" height="4.72" rx="2.26"/>
<path fill="#ffffff" d="
  M 48.66 38.13
  A 0.37 0.37 0.0 0 0 48.30 38.58
  C 49.25 42.86 52.33 44.26 56.87 45.50
  Q 62.35 46.98 67.17 51.55
  A 0.70 0.69 -44.7 0 0 68.12 51.55
  Q 73.70 46.39 72.75 38.68
  A 0.72 0.72 0.0 0 0 72.04 38.05
  L 68.27 38.07
  A 2.24 2.23 -0.8 0 1 66.02 35.89
  L 66.02 35.70
  A 2.19 2.19 0.0 0 1 68.10 33.42
  Q 70.34 33.31 73.81 33.39
  C 77.44 33.48 77.40 35.75 77.60 38.95
  Q 78.27 50.13 69.24 56.67
  C 67.94 57.61 65.73 56.77 64.60 55.61
  Q 60.62 51.52 56.09 50.23
  Q 51.28 48.86 49.71 47.90
  Q 43.79 44.26 43.43 37.16
  C 43.19 32.44 49.25 33.30 52.78 33.44
  A 2.23 2.22 -88.8 0 1 54.91 35.67
  L 54.91 36.01
  A 2.12 2.12 0.0 0 1 52.79 38.13
  L 48.66 38.13
  Z"
/>
<path fill="#dbeff7" d="
  M 72.25 70.79
  C 74.41 69.25 77.30 69.23 78.77 71.21
  C 80.17 73.07 79.67 78.56 79.67 81.89
  A 0.68 0.67 -90.0 0 1 79.00 82.57
  L 76.86 82.57
  A 0.64 0.63 -90.0 0 1 76.23 81.93
  L 76.23 74.53
  A 1.66 1.65 80.2 0 0 74.02 72.97
  L 73.71 73.08
  A 2.89 2.89 0.0 0 0 71.62 75.86
  L 71.63 81.94
  A 0.63 0.63 0.0 0 1 71.00 82.57
  L 68.82 82.57
  A 0.58 0.57 90.0 0 1 68.25 81.99
  L 68.25 65.83
  A 0.57 0.57 0.0 0 1 68.82 65.26
  L 71.02 65.26
  A 0.59 0.59 0.0 0 1 71.61 65.85
  L 71.61 70.45
  A 0.41 0.40 72.5 0 0 72.25 70.79
  Z"
/>
<path fill="#dbeff7" d="
  M 0.00 80.74
  L 0.00 80.37
  L 1.14 78.82
  A 0.62 0.60 -53.9 0 1 1.98 78.68
  Q 3.41 79.69 5.67 80.08
  A 1.62 1.61 -69.7 0 0 7.35 79.30
  L 7.51 79.02
  A 0.53 0.52 -66.0 0 0 7.22 78.26
  Q 3.87 77.19 2.42 76.65
  C 0.19 75.80 0.15 73.15 1.37 71.46
  C 3.28 68.83 7.74 69.47 10.12 71.11
  A 0.72 0.72 0.0 0 1 10.33 72.06
  L 9.61 73.31
  A 0.68 0.68 0.0 0 1 8.61 73.51
  Q 6.58 71.95 4.45 72.60
  A 0.85 0.85 0.0 0 0 4.41 74.22
  C 6.66 75.03 11.07 75.26 10.91 78.93
  Q 10.81 81.17 8.60 82.01
  Q 4.00 83.75 0.00 80.74
  Z"
/>
<path fill="#dbeff7" d="
  M 15.86 82.19
  L 15.86 86.79
  A 0.52 0.51 0.0 0 1 15.34 87.30
  L 13.09 87.30
  A 0.66 0.65 -0.0 0 1 12.43 86.65
  L 12.43 70.54
  A 0.62 0.62 0.0 0 1 12.94 69.93
  Q 14.81 69.57 15.51 70.38
  A 0.66 0.66 0.0 0 0 16.30 70.53
  Q 20.53 68.42 23.49 71.60
  C 27.92 76.38 23.35 85.73 16.55 81.79
  A 0.46 0.46 0.0 0 0 15.86 82.19
  Z
  M 18.4577 72.7307
  A 3.47 2.99 -94.5 0 0 15.7492 76.4246
  A 3.47 2.99 -94.5 0 0 19.0023 79.6493
  A 3.47 2.99 -94.5 0 0 21.7108 75.9554
  A 3.47 2.99 -94.5 0 0 18.4577 72.7307
  Z"
/>
<path fill="#dbeff7" d="
  M 30.60 77.50
  A 0.63 0.63 0.0 0 0 30.16 78.58
  Q 33.14 81.47 35.47 78.51
  A 0.97 0.96 33.8 0 1 36.71 78.27
  L 38.04 79.03
  A 0.59 0.58 32.5 0 1 38.23 79.86
  C 35.06 84.46 28.46 83.39 26.57 78.44
  C 25.35 75.26 27.08 71.03 30.55 70.05
  C 35.32 68.70 39.42 71.70 39.13 76.69
  A 0.85 0.84 -88.6 0 1 38.29 77.50
  L 30.60 77.50
  Z
  M 30.12 74.88
  L 35.36 74.86
  A 0.16 0.16 0.0 0 0 35.52 74.70
  L 35.51 74.62
  A 2.63 2.12 -0.3 0 0 32.87 72.51
  L 32.57 72.51
  A 2.63 2.12 -0.3 0 0 29.95 74.64
  L 29.96 74.72
  A 0.16 0.16 0.0 0 0 30.12 74.88
  Z"
/>
<path fill="#dbeff7" d="
  M 44.44 77.50
  A 0.63 0.63 0.0 0 0 44.00 78.58
  Q 46.99 81.47 49.31 78.50
  A 0.96 0.96 0.0 0 1 50.55 78.26
  L 51.88 79.02
  A 0.59 0.58 32.4 0 1 52.07 79.85
  C 48.91 84.45 42.31 83.39 40.41 78.45
  C 39.19 75.27 40.91 71.04 44.38 70.05
  C 49.15 68.70 53.25 71.69 52.97 76.68
  A 0.85 0.84 -88.7 0 1 52.13 77.49
  L 44.44 77.50
  Z
  M 43.92 74.87
  L 49.20 74.87
  A 0.15 0.15 0.0 0 0 49.35 74.72
  L 49.35 74.64
  A 2.64 2.11 -0.1 0 0 46.71 72.53
  L 46.41 72.53
  A 2.64 2.11 -0.1 0 0 43.77 74.64
  L 43.77 74.72
  A 0.15 0.15 0.0 0 0 43.92 74.87
  Z"
/>
<path fill="#dbeff7" d="
  M 54.05 76.29
  C 53.97 69.78 62.51 67.09 65.95 72.56
  A 0.46 0.45 58.2 0 1 65.80 73.19
  L 64.02 74.27
  A 0.85 0.84 53.6 0 1 62.95 74.11
  C 60.66 71.50 57.48 73.01 57.52 76.25
  C 57.56 79.48 60.78 80.91 63.00 78.26
  A 0.85 0.84 -55.0 0 1 64.07 78.07
  L 65.88 79.10
  A 0.46 0.45 -59.6 0 1 66.03 79.73
  C 62.73 85.29 54.13 82.80 54.05 76.29
  Z"
/>
<path fill="#ffffff" d="
  M 89.18 73.82
  L 88.98 73.47
  A 2.11 2.10 76.0 0 0 87.26 72.43
  Q 85.26 72.36 83.64 73.52
  A 0.61 0.61 0.0 0 1 82.75 73.33
  L 82.06 72.14
  A 0.74 0.74 0.0 0 1 82.29 71.16
  C 85.13 69.30 89.85 68.81 91.93 71.94
  C 92.96 73.50 92.69 76.18 92.67 78.36
  A 2.18 2.17 -59.5 0 0 92.94 79.41
  Q 93.52 80.45 93.29 82.03
  A 0.69 0.68 -89.4 0 1 92.71 82.60
  Q 90.95 82.85 89.97 81.84
  A 0.69 0.69 0.0 0 0 89.13 81.71
  C 80.42 86.58 77.37 72.80 88.61 74.65
  A 0.56 0.56 0.0 0 0 89.18 73.82
  Z
  M 89.3265 77.8206
  A 2.45 1.55 -12.0 0 0 86.6077 76.8139
  A 2.45 1.55 -12.0 0 0 84.5335 78.8394
  A 2.45 1.55 -12.0 0 0 87.2523 79.8461
  A 2.45 1.55 -12.0 0 0 89.3265 77.8206
  Z"
/>
<path fill="#ffffff" d="
  M 97.82 76.24
  C 97.85 79.48 101.07 80.92 103.29 78.26
  A 0.85 0.84 -54.9 0 1 104.36 78.07
  L 106.17 79.11
  A 0.46 0.45 -59.5 0 1 106.33 79.74
  C 103.01 85.29 94.42 82.79 94.35 76.28
  C 94.27 69.77 102.81 67.09 106.25 72.57
  A 0.46 0.45 58.2 0 1 106.10 73.19
  L 104.32 74.27
  A 0.85 0.84 53.7 0 1 103.25 74.11
  C 100.96 71.50 97.78 73.01 97.82 76.24
  Z"
/>
<path fill="#ffffff" d="
  M 112.17 77.51
  A 0.63 0.63 0.0 0 0 111.73 78.59
  Q 114.72 81.47 117.04 78.51
  A 0.96 0.95 33.6 0 1 118.28 78.26
  L 119.61 79.02
  A 0.59 0.58 32.4 0 1 119.80 79.85
  C 116.64 84.45 110.04 83.40 108.14 78.46
  C 106.92 75.28 108.64 71.05 112.10 70.07
  C 116.86 68.71 120.97 71.69 120.69 76.68
  A 0.85 0.84 -88.7 0 1 119.85 77.49
  L 112.17 77.51
  Z
  M 111.66 74.86
  L 116.90 74.88
  A 0.15 0.15 0.0 0 0 117.05 74.73
  L 117.06 74.65
  A 2.62 2.11 0.3 0 0 114.45 72.53
  L 114.15 72.53
  A 2.62 2.11 0.3 0 0 111.52 74.63
  L 111.51 74.71
  A 0.15 0.15 0.0 0 0 111.66 74.86
  Z"
/>
</svg>
