<?xml version="1.0" encoding="UTF-8" standalone="no"?>
<!DOCTYPE svg PUBLIC "-//W3C//DTD SVG 1.1//EN" "http://www.w3.org/Graphics/SVG/1.1/DTD/svg11.dtd">
<svg xmlns="http://www.w3.org/2000/svg" version="1.1" viewBox="0.00 0.00 400.00 400.00">
<path stroke="#919191" stroke-width="2.00" fill="none" stroke-linecap="butt" vector-effect="non-scaling-stroke" d="
  M 240.75 204.77
  Q 254.62 201.66 266.43 194.05
  C 283.11 183.30 290.96 163.88 284.24 144.52
  C 281.36 136.23 273.79 128.51 266.48 124.29
  C 249.56 114.52 227.94 112.98 208.17 113.70
  C 180.98 114.69 154.03 120.59 130.51 133.26
  C 122.05 137.82 115.75 142.52 117.22 152.86
  C 118.42 161.30 126.69 160.58 132.21 157.45
  Q 141.16 152.38 143.68 151.23
  Q 181.58 133.82 222.71 136.90
  C 238.12 138.05 257.72 144.27 256.95 162.97
  C 256.37 177.17 242.09 185.46 230.30 188.83
  Q 219.40 191.94 208.79 192.29
  Q 203.09 192.47 201.31 193.32
  C 196.34 195.67 195.10 201.87 195.44 207.02
  C 195.81 212.55 199.09 213.30 204.39 213.48
  C 214.90 213.85 226.62 216.11 232.64 225.55
  C 237.93 233.85 234.62 244.74 227.96 251.00
  C 220.56 257.96 210.80 261.02 201.02 262.32
  Q 183.86 264.60 166.21 262.82
  A 0.85 0.85 0.0 0 1 165.45 261.89
  Q 169.33 223.11 178.76 184.99
  Q 180.85 176.51 183.24 169.50
  Q 184.40 166.08 184.40 162.45
  A 3.24 3.09 36.9 0 0 184.23 161.43
  Q 182.95 157.91 178.32 156.99
  C 170.95 155.53 158.33 155.94 155.81 164.82
  Q 139.97 220.71 135.34 283.50
  C 134.92 289.19 136.77 294.38 142.70 295.49
  C 150.60 296.98 163.11 295.58 164.10 285.46
  A 0.59 0.59 0.0 0 1 164.72 284.93
  C 195.92 286.74 237.34 284.84 257.39 257.88
  C 265.23 247.33 267.97 229.30 260.21 218.50
  Q 253.05 208.54 240.74 205.44
  A 0.35 0.34 -44.3 0 1 240.75 204.77"
/>
<path fill="#ffffff" d="
  M 400.00 0.00
  L 400.00 400.00
  L 0.00 400.00
  L 0.00 0.00
  L 400.00 0.00
  Z
  M 240.75 204.77
  Q 254.62 201.66 266.43 194.05
  C 283.11 183.30 290.96 163.88 284.24 144.52
  C 281.36 136.23 273.79 128.51 266.48 124.29
  C 249.56 114.52 227.94 112.98 208.17 113.70
  C 180.98 114.69 154.03 120.59 130.51 133.26
  C 122.05 137.82 115.75 142.52 117.22 152.86
  C 118.42 161.30 126.69 160.58 132.21 157.45
  Q 141.16 152.38 143.68 151.23
  Q 181.58 133.82 222.71 136.90
  C 238.12 138.05 257.72 144.27 256.95 162.97
  C 256.37 177.17 242.09 185.46 230.30 188.83
  Q 219.40 191.94 208.79 192.29
  Q 203.09 192.47 201.31 193.32
  C 196.34 195.67 195.10 201.87 195.44 207.02
  C 195.81 212.55 199.09 213.30 204.39 213.48
  C 214.90 213.85 226.62 216.11 232.64 225.55
  C 237.93 233.85 234.62 244.74 227.96 251.00
  C 220.56 257.96 210.80 261.02 201.02 262.32
  Q 183.86 264.60 166.21 262.82
  A 0.85 0.85 0.0 0 1 165.45 261.89
  Q 169.33 223.11 178.76 184.99
  Q 180.85 176.51 183.24 169.50
  Q 184.40 166.08 184.40 162.45
  A 3.24 3.09 36.9 0 0 184.23 161.43
  Q 182.95 157.91 178.32 156.99
  C 170.95 155.53 158.33 155.94 155.81 164.82
  Q 139.97 220.71 135.34 283.50
  C 134.92 289.19 136.77 294.38 142.70 295.49
  C 150.60 296.98 163.11 295.58 164.10 285.46
  A 0.59 0.59 0.0 0 1 164.72 284.93
  C 195.92 286.74 237.34 284.84 257.39 257.88
  C 265.23 247.33 267.97 229.30 260.21 218.50
  Q 253.05 208.54 240.74 205.44
  A 0.35 0.34 -44.3 0 1 240.75 204.77
  Z"
/>
<path fill="#222222" d="
  M 240.75 204.77
  A 0.35 0.34 -44.3 0 0 240.74 205.44
  Q 253.05 208.54 260.21 218.50
  C 267.97 229.30 265.23 247.33 257.39 257.88
  C 237.34 284.84 195.92 286.74 164.72 284.93
  A 0.59 0.59 0.0 0 0 164.10 285.46
  C 163.11 295.58 150.60 296.98 142.70 295.49
  C 136.77 294.38 134.92 289.19 135.34 283.50
  Q 139.97 220.71 155.81 164.82
  C 158.33 155.94 170.95 155.53 178.32 156.99
  Q 182.95 157.91 184.23 161.43
  A 3.24 3.09 36.9 0 1 184.40 162.45
  Q 184.40 166.08 183.24 169.50
  Q 180.85 176.51 178.76 184.99
  Q 169.33 223.11 165.45 261.89
  A 0.85 0.85 0.0 0 0 166.21 262.82
  Q 183.86 264.60 201.02 262.32
  C 210.80 261.02 220.56 257.96 227.96 251.00
  C 234.62 244.74 237.93 233.85 232.64 225.55
  C 226.62 216.11 214.90 213.85 204.39 213.48
  C 199.09 213.30 195.81 212.55 195.44 207.02
  C 195.10 201.87 196.34 195.67 201.31 193.32
  Q 203.09 192.47 208.79 192.29
  Q 219.40 191.94 230.30 188.83
  C 242.09 185.46 256.37 177.17 256.95 162.97
  C 257.72 144.27 238.12 138.05 222.71 136.90
  Q 181.58 133.82 143.68 151.23
  Q 141.16 152.38 132.21 157.45
  C 126.69 160.58 118.42 161.30 117.22 152.86
  C 115.75 142.52 122.05 137.82 130.51 133.26
  C 154.03 120.59 180.98 114.69 208.17 113.70
  C 227.94 112.98 249.56 114.52 266.48 124.29
  C 273.79 128.51 281.36 136.23 284.24 144.52
  C 290.96 163.88 283.11 183.30 266.43 194.05
  Q 254.62 201.66 240.75 204.77
  Z"
/>
</svg>
