<?xml version="1.0" encoding="UTF-8" standalone="no"?>
<!DOCTYPE svg PUBLIC "-//W3C//DTD SVG 1.1//EN" "http://www.w3.org/Graphics/SVG/1.1/DTD/svg11.dtd">
<svg xmlns="http://www.w3.org/2000/svg" version="1.1" viewBox="0.00 0.00 400.00 400.00">
<g stroke-width="2.00" fill="none" stroke-linecap="butt">
<path stroke="#7fc19d" vector-effect="non-scaling-stroke" d="
  M 153.76 114.91
  A 0.81 0.81 0.0 0 0 154.79 113.78
  Q 148.70 102.30 145.58 90.68
  Q 140.24 70.78 139.39 50.44
  C 139.16 45.11 140.06 39.91 140.51 34.76
  Q 140.83 31.07 143.58 23.60
  Q 147.14 13.90 156.89 12.11
  C 163.71 10.87 171.46 16.45 174.96 21.78
  C 183.67 35.03 186.64 50.43 186.63 66.47
  Q 186.62 79.42 183.00 89.37
  Q 177.62 104.12 166.46 113.17
  Q 163.76 115.36 154.96 122.48
  Q 139.36 135.10 128.00 154.00
  Q 106.05 190.54 113.02 233.72
  A 1.83 1.83 0.0 0 0 115.26 235.21
  L 117.41 234.69
  A 2.24 2.24 0.0 0 0 119.11 232.21
  Q 117.41 219.60 117.61 214.00
  C 118.73 181.72 129.87 153.70 152.77 130.05
  Q 157.60 125.06 164.95 119.77
  Q 172.06 114.65 178.56 109.10
  Q 191.97 97.64 195.80 81.09
  Q 198.42 69.73 197.48 58.99
  C 196.67 49.87 195.99 42.29 192.97 33.52
  C 187.79 18.44 174.25 3.50 157.00 3.47
  C 146.75 3.45 139.20 10.32 135.48 19.52
  C 131.06 30.46 131.09 42.10 131.77 54.99
  Q 132.93 77.16 140.63 97.32
  Q 144.38 107.16 151.77 113.71
  Q 152.53 114.38 153.76 114.91"
/>
<path stroke="#7fc19d" vector-effect="non-scaling-stroke" d="
  M 367.53 234.00
  C 368.03 236.76 366.97 239.53 368.20 242.25
  A 2.18 2.18 0.0 0 0 369.10 243.24
  L 371.81 244.81
  A 1.11 1.11 0.0 0 1 371.51 246.85
  L 368.10 247.67
  A 2.47 2.36 17.4 0 0 367.17 248.13
  Q 365.32 249.62 364.68 251.45
  A 1.63 1.62 19.4 0 0 365.68 253.53
  L 376.07 257.17
  A 1.29 1.28 -63.0 0 0 377.55 256.68
  Q 378.52 255.27 378.97 252.73
  Q 381.40 238.95 381.85 227.62
  C 382.02 223.14 383.29 218.01 382.82 214.24
  Q 382.37 210.66 381.55 198.79
  C 378.96 161.41 362.91 125.04 338.51 96.92
  C 333.84 91.54 330.13 86.46 325.04 82.55
  C 320.76 79.27 317.29 75.69 312.90 72.30
  Q 267.87 37.45 210.77 33.75
  Q 206.97 33.51 206.07 33.73
  A 0.64 0.63 -8.5 0 0 205.59 34.37
  Q 205.72 37.51 206.67 43.79
  C 207.74 50.90 208.39 58.60 208.38 64.73
  A 1.39 1.38 5.3 0 0 209.52 66.09
  C 218.20 67.67 227.74 68.46 235.69 70.48
  Q 278.32 81.29 309.09 112.92
  Q 311.56 115.46 315.16 119.94
  Q 318.25 123.79 320.61 126.99
  Q 341.71 155.58 347.57 190.07
  Q 348.19 193.68 348.26 195.41
  C 348.46 200.01 349.32 204.13 349.46 208.79
  Q 350.03 228.05 346.78 246.69
  A 1.13 1.13 0.0 0 0 347.18 247.77
  Q 348.50 248.86 351.06 248.85
  A 1.28 1.27 22.7 0 0 351.95 248.49
  Q 357.12 243.26 354.28 237.35
  A 0.81 0.80 86.8 0 1 355.27 236.24
  L 359.52 237.72
  A 3.22 3.21 -54.8 0 0 362.62 237.18
  L 366.86 233.76
  A 0.42 0.41 -25.1 0 1 367.53 234.00"
/>
<path stroke="#7fc19d" vector-effect="non-scaling-stroke" d="
  M 120.09 52.35
  Q 101.58 61.23 85.30 74.49
  C 82.29 76.94 79.53 79.88 76.04 82.47
  C 74.52 83.60 72.67 85.46 71.14 86.90
  C 67.94 89.91 65.41 94.02 62.71 96.78
  Q 59.82 99.74 57.40 102.84
  Q 28.60 139.67 20.80 185.91
  C 19.50 193.62 19.50 202.80 18.67 209.43
  Q 18.00 214.71 18.61 221.58
  C 19.31 229.53 19.95 242.16 22.09 252.91
  Q 22.52 255.04 23.22 256.19
  A 1.86 1.85 -25.4 0 0 25.41 256.97
  L 35.77 253.35
  A 1.30 1.29 69.1 0 0 36.54 251.62
  Q 34.67 247.18 30.05 247.27
  A 1.25 1.25 0.0 0 1 29.24 245.04
  L 32.55 242.36
  A 2.80 2.79 68.9 0 0 33.58 240.03
  L 33.23 234.34
  A 0.70 0.69 -71.3 0 1 34.38 233.77
  L 38.48 237.31
  A 3.03 3.02 48.6 0 0 42.13 237.54
  Q 43.88 236.37 46.75 236.38
  A 0.43 0.43 0.0 0 1 47.11 237.05
  C 44.33 241.17 46.09 244.82 48.95 248.69
  A 0.87 0.87 0.0 0 0 49.76 249.05
  Q 52.10 248.78 53.56 247.99
  A 1.19 1.19 0.0 0 0 54.15 246.73
  Q 53.78 244.84 52.95 239.00
  Q 52.81 238.06 51.63 223.09
  Q 51.06 215.97 51.57 208.91
  Q 52.49 196.02 52.68 194.73
  C 58.92 151.70 83.20 112.99 120.21 89.97
  Q 123.04 88.21 124.88 86.24
  A 2.06 2.05 60.3 0 0 125.39 84.36
  Q 121.86 68.69 120.63 52.66
  A 0.38 0.38 0.0 0 0 120.09 52.35"
/>
<path stroke="#7fc19d" vector-effect="non-scaling-stroke" d="
  M 224.7334 77.6898
  A 0.78 0.33 -80.9 0 0 224.2842 78.4078
  A 0.78 0.33 -80.9 0 0 224.4866 79.2302
  A 0.78 0.33 -80.9 0 0 224.9358 78.5122
  A 0.78 0.33 -80.9 0 0 224.7334 77.6898"
/>
<path stroke="#7fc19d" vector-effect="non-scaling-stroke" d="
  M 223.46 84.94
  L 223.46 84.93
  A 0.34 0.33 9.8 0 0 223.07 85.19
  Q 217.00 115.21 216.55 117.70
  C 216.25 119.35 215.50 122.62 217.06 123.39
  A 0.92 0.89 -73.0 0 0 218.34 122.69
  Q 220.78 106.52 223.73 85.29
  A 0.32 0.32 0.0 0 0 223.46 84.94"
/>
<path stroke="#7fc19d" vector-effect="non-scaling-stroke" d="
  M 247.22 86.83
  A 0.39 0.38 20.9 0 0 246.74 87.04
  Q 237.33 110.78 230.37 128.98
  A 1.09 1.06 -77.5 0 0 231.28 130.47
  C 233.35 130.58 234.50 126.74 235.16 124.86
  Q 236.14 122.01 247.48 87.33
  A 0.40 0.39 19.7 0 0 247.24 86.83
  L 247.22 86.83"
/>
<path stroke="#7fc19d" vector-effect="non-scaling-stroke" d="
  M 247.21 132.96
  L 248.63 133.78
  A 0.28 0.28 0.0 0 0 249.01 133.68
  L 249.09 133.54
  A 44.40 1.08 -59.9 0 0 270.42 94.58
  L 270.39 94.56
  A 44.40 1.08 -59.9 0 0 247.19 132.43
  L 247.10 132.57
  A 0.28 0.28 0.0 0 0 247.21 132.96"
/>
<path stroke="#7fc19d" vector-effect="non-scaling-stroke" d="
  M 190.27 106.86
  Q 189.88 107.14 189.33 107.83
  C 178.33 121.59 167.24 133.87 161.65 149.37
  Q 157.99 159.54 155.46 171.23
  C 154.65 174.99 155.20 176.36 158.05 179.17
  Q 162.75 183.79 166.68 187.71
  Q 169.50 190.52 174.41 196.63
  Q 178.50 201.72 182.74 206.85
  Q 185.55 210.24 187.18 212.43
  C 188.70 214.49 192.26 219.29 195.13 219.36
  Q 213.39 219.83 229.39 210.38
  C 239.49 204.42 248.79 198.67 260.27 198.76
  C 273.42 198.87 286.63 203.11 299.43 208.85
  Q 316.21 216.38 332.41 225.30
  A 0.65 0.65 0.0 0 0 333.33 224.51
  Q 327.51 208.25 319.27 192.47
  Q 310.68 176.00 298.56 164.74
  Q 291.25 157.95 285.05 154.51
  C 272.41 147.51 257.29 145.11 242.54 143.18
  C 230.79 141.64 218.24 137.97 209.34 130.38
  C 201.48 123.68 195.89 116.03 191.40 107.15
  A 0.78 0.78 0.0 0 0 190.27 106.86"
/>
<path stroke="#7fc19d" vector-effect="non-scaling-stroke" d="
  M 266.22 136.16
  L 267.37 137.12
  A 0.22 0.22 0.0 0 0 267.68 137.09
  L 267.75 137.01
  A 35.05 0.92 -50.1 0 0 289.53 109.53
  L 289.45 109.47
  A 35.05 0.92 -50.1 0 0 266.26 135.77
  L 266.19 135.85
  A 0.22 0.22 0.0 0 0 266.22 136.16"
/>
<path stroke="#7fc19d" vector-effect="non-scaling-stroke" d="
  M 111.34 109.96
  L 129.58 132.52
  A 0.40 0.40 0.0 0 0 130.29 132.24
  L 130.22 131.02
  A 3.69 3.66 21.9 0 0 129.23 128.73
  L 119.66 118.63
  Q 119.63 118.60 119.59 118.56
  L 112.48 109.89
  A 0.27 0.27 0.0 0 0 112.25 109.79
  L 111.39 109.84
  A 0.07 0.07 0.0 0 0 111.34 109.96"
/>
<path stroke="#7fc19d" vector-effect="non-scaling-stroke" d="
  M 119.18 148.41
  L 120.03 147.41
  A 0.29 0.29 0.0 0 0 120.00 147.00
  L 119.83 146.85
  A 28.98 0.94 40.5 0 0 97.18 128.74
  L 97.17 128.76
  A 28.98 0.94 40.5 0 0 118.59 148.29
  L 118.77 148.44
  A 0.29 0.29 0.0 0 0 119.18 148.41"
/>
<path stroke="#7fc19d" vector-effect="non-scaling-stroke" d="
  M 303.2525 128.7813
  A 0.26 0.26 0.0 0 0 302.8862 128.7499
  L 286.0120 142.9592
  A 0.26 0.26 0.0 0 0 285.9806 143.3256
  L 286.5475 143.9987
  A 0.26 0.26 0.0 0 0 286.9138 144.0301
  L 303.7880 129.8208
  A 0.26 0.26 0.0 0 0 303.8194 129.4544
  L 303.2525 128.7813"
/>
<path stroke="#7fc19d" vector-effect="non-scaling-stroke" d="
  M 162.63 130.69
  A 0.27 0.27 0.0 0 0 162.19 130.41
  C 157.31 134.37 153.64 139.35 149.94 144.79
  C 138.67 161.39 135.48 180.86 136.36 200.74
  Q 137.21 219.94 141.74 235.27
  A 0.53 0.53 0.0 0 1 141.30 235.95
  Q 133.80 236.94 127.98 237.23
  C 124.62 237.40 121.93 238.29 118.70 238.55
  Q 112.74 239.03 111.84 239.66
  Q 111.80 239.69 99.43 241.50
  Q 79.48 244.43 50.40 252.72
  Q 33.81 257.45 25.61 260.13
  A 1.08 1.07 -15.8 0 0 24.90 261.39
  Q 29.36 281.33 36.07 308.69
  Q 37.86 316.01 39.92 325.58
  Q 40.45 328.04 42.91 327.19
  Q 66.13 319.14 85.47 314.54
  Q 125.05 305.12 167.76 302.13
  C 175.33 301.60 183.33 302.08 191.07 301.86
  Q 200.50 301.58 215.09 301.91
  C 219.28 302.01 225.97 302.03 229.75 301.83
  Q 232.47 301.68 240.69 302.77
  Q 246.10 303.48 251.40 303.47
  A 13.62 13.54 52.0 0 1 254.75 303.89
  Q 255.91 304.19 269.98 306.05
  Q 296.62 309.57 323.03 316.34
  C 335.11 319.43 343.26 322.28 359.34 327.34
  A 1.16 1.15 15.2 0 0 360.81 326.50
  L 376.11 261.85
  A 1.31 1.30 16.4 0 0 375.26 260.31
  Q 343.44 249.40 310.04 243.00
  Q 277.48 236.75 245.02 234.46
  Q 229.53 233.37 215.50 233.38
  C 186.61 233.40 176.35 232.91 156.37 234.57
  Q 152.25 234.91 149.93 234.77
  A 1.99 1.98 81.9 0 1 148.18 233.45
  C 147.59 231.81 146.86 228.70 146.70 226.32
  Q 146.32 220.76 145.16 210.52
  Q 144.99 209.00 145.14 198.55
  Q 145.22 192.98 146.09 186.65
  Q 149.14 164.35 157.27 143.91
  C 159.04 139.46 161.47 134.95 162.63 130.69"
/>
<path stroke="#7fc19d" vector-effect="non-scaling-stroke" d="
  M 321.1796 145.7835
  A 0.49 0.49 0.0 0 0 320.5081 145.6123
  L 305.1511 154.7306
  A 0.49 0.49 0.0 0 0 304.9800 155.4021
  L 305.0004 155.4365
  A 0.49 0.49 0.0 0 0 305.6719 155.6077
  L 321.0289 146.4894
  A 0.49 0.49 0.0 0 0 321.2000 145.8179
  L 321.1796 145.7835"
/>
<path stroke="#7fc19d" vector-effect="non-scaling-stroke" d="
  M 110.99 164.92
  L 111.74 163.64
  A 0.15 0.15 0.0 0 0 111.69 163.43
  L 111.53 163.34
  A 35.89 0.88 30.3 0 0 80.10 145.99
  L 80.09 146.01
  A 35.89 0.88 30.3 0 0 110.63 164.88
  L 110.79 164.97
  A 0.15 0.15 0.0 0 0 110.99 164.92"
/>
<path stroke="#7fc19d" vector-effect="non-scaling-stroke" d="
  M 320.01 171.71
  L 320.16 172.16
  A 0.15 0.15 0.0 0 0 320.36 172.25
  L 320.56 172.18
  A 9.53 0.29 -18.9 0 0 329.49 168.82
  L 329.42 168.63
  A 9.53 0.29 -18.9 0 0 320.31 171.44
  L 320.10 171.52
  A 0.15 0.15 0.0 0 0 320.01 171.71"
/>
<path stroke="#7fc19d" vector-effect="non-scaling-stroke" d="
  M 72.13 168.86
  A 0.29 0.29 0.0 0 0 72.29 169.23
  Q 90.36 176.45 104.21 181.79
  A 0.83 0.81 12.7 0 0 105.35 181.10
  C 105.44 179.52 102.52 178.64 101.09 178.14
  Q 98.91 177.38 72.50 168.67
  A 0.31 0.30 -70.2 0 0 72.13 168.86
  L 72.13 168.86"
/>
<path stroke="#7fc19d" vector-effect="non-scaling-stroke" d="
  M 64.9678 191.6437
  A 1.58 0.43 -171.4 0 0 66.4657 192.3052
  A 1.58 0.43 -171.4 0 0 68.0922 192.1163
  A 1.58 0.43 -171.4 0 0 66.5943 191.4548
  A 1.58 0.43 -171.4 0 0 64.9678 191.6437"
/>
<path stroke="#7fc19d" vector-effect="non-scaling-stroke" d="
  M 335.8744 191.7058
  A 1.17 0.58 -5.6 0 0 334.6534 191.2428
  A 1.17 0.58 -5.6 0 0 333.5456 191.9342
  A 1.17 0.58 -5.6 0 0 334.7666 192.3972
  A 1.17 0.58 -5.6 0 0 335.8744 191.7058"
/>
<path stroke="#7fc19d" vector-effect="non-scaling-stroke" d="
  M 101.8148 198.1500
  A 0.82 0.82 0.0 0 0 101.1464 197.2024
  L 73.2396 192.3821
  A 0.82 0.82 0.0 0 0 72.2920 193.0506
  L 72.2852 193.0900
  A 0.82 0.82 0.0 0 0 72.9536 194.0376
  L 100.8604 198.8579
  A 0.82 0.82 0.0 0 0 101.8080 198.1894
  L 101.8148 198.1500"
/>
<path stroke="#7fc19d" vector-effect="non-scaling-stroke" d="
  M 100.6200 215.4426
  A 0.75 0.75 0.0 0 0 99.8713 214.6912
  L 64.0714 214.6288
  A 0.75 0.75 0.0 0 0 63.3201 215.3774
  L 63.3200 215.4174
  A 0.75 0.75 0.0 0 0 64.0687 216.1688
  L 99.8686 216.2312
  A 0.75 0.75 0.0 0 0 100.6199 215.4826
  L 100.6200 215.4426"
/>
<path stroke="#7fc19d" vector-effect="non-scaling-stroke" d="
  M 102.43 233.69
  L 102.17 232.24
  A 0.44 0.44 0.0 0 0 101.66 231.88
  L 101.52 231.91
  A 28.03 1.08 -10.0 0 0 74.10 237.84
  L 74.13 238.03
  A 28.03 1.08 -10.0 0 0 101.93 234.23
  L 102.07 234.20
  A 0.44 0.44 0.0 0 0 102.43 233.69"
/>
<path stroke="#7fc19d" vector-effect="non-scaling-stroke" d="
  M 67.57 239.06
  Q 67.68 239.60 68.71 239.36
  Q 73.17 238.36 73.09 237.96
  Q 73.02 237.56 68.51 238.33
  Q 67.46 238.51 67.57 239.06"
/>
<path stroke="#7fc19d" vector-effect="non-scaling-stroke" d="
  M 47.92 249.25
  Q 45.57 248.64 42.52 249.17
  A 1.79 1.79 0.0 0 0 41.08 250.56
  L 40.97 251.04
  A 0.64 0.63 86.3 0 0 41.80 251.77
  L 47.94 249.63
  A 0.20 0.20 0.0 0 0 47.92 249.25"
/>
<path stroke="#7fc19d" vector-effect="non-scaling-stroke" d="
  M 353.18 249.33
  A 0.20 0.20 0.0 0 0 353.17 249.71
  L 359.29 251.72
  A 0.63 0.63 0.0 0 0 360.10 250.98
  L 359.98 250.51
  A 1.77 1.77 0.0 0 0 358.53 249.16
  Q 355.50 248.68 353.18 249.33"
/>
<path stroke="#7fc19d" vector-effect="non-scaling-stroke" d="
  M 24.62 362.59
  Q 28.53 361.34 32.02 359.77
  Q 50.73 351.34 64.87 345.20
  A 0.85 0.85 0.0 0 0 65.19 343.89
  L 53.30 329.19
  A 1.99 1.99 0.0 0 0 51.10 328.56
  L 38.97 332.80
  A 0.58 0.57 73.8 0 1 38.23 332.39
  L 27.80 289.17
  A 1.02 1.01 -16.2 0 0 26.48 288.45
  L 8.15 294.86
  A 0.66 0.65 68.4 0 0 7.77 295.75
  Q 9.15 298.72 11.12 300.72
  Q 17.53 307.21 28.01 319.49
  C 30.75 322.70 29.97 327.54 29.34 331.35
  Q 26.90 346.25 23.97 362.03
  A 0.50 0.50 0.0 0 0 24.62 362.59"
/>
<path stroke="#7fc19d" vector-effect="non-scaling-stroke" d="
  M 377.02 362.41
  Q 377.06 361.88 376.94 361.29
  Q 373.70 344.76 371.89 332.61
  C 370.94 326.19 370.09 322.89 373.67 318.67
  Q 381.18 309.84 389.31 301.32
  Q 391.54 298.97 393.06 295.95
  A 0.85 0.85 0.0 0 0 392.58 294.77
  L 375.05 288.64
  A 0.67 0.66 26.2 0 0 374.29 288.89
  Q 373.48 290.08 373.04 291.80
  Q 366.87 315.71 364.53 327.76
  Q 364.11 329.92 362.77 332.39
  A 0.66 0.65 23.3 0 1 361.98 332.70
  L 350.19 328.57
  A 2.07 2.06 -61.4 0 0 347.89 329.25
  Q 343.36 335.04 337.82 341.07
  Q 337.24 341.70 336.15 343.77
  A 1.12 1.11 -64.2 0 0 336.68 345.31
  L 376.31 362.83
  A 0.51 0.51 0.0 0 0 377.02 362.41"
/>
<path stroke="#7fc19d" vector-effect="non-scaling-stroke" d="
  M 223.56 346.92
  L 223.57 346.93
  A 0.37 0.36 -9.7 0 0 223.88 346.52
  Q 219.14 313.40 218.70 310.67
  C 218.41 308.87 217.98 305.23 216.10 305.00
  A 1.00 0.97 87.4 0 0 215.04 306.20
  Q 218.43 323.73 223.16 346.66
  A 0.35 0.35 0.0 0 0 223.56 346.92"
/>
<path stroke="#7fc19d" vector-effect="non-scaling-stroke" d="
  M 154.11 342.91
  A 0.33 0.33 0.0 0 0 154.53 342.73
  Q 162.80 322.26 168.92 306.57
  A 0.95 0.92 -77.1 0 0 168.14 305.28
  C 166.35 305.17 165.34 308.48 164.76 310.10
  Q 163.89 312.56 153.89 342.48
  A 0.35 0.33 20.1 0 0 154.10 342.91
  L 154.11 342.91"
/>
<path stroke="#7fc19d" vector-effect="non-scaling-stroke" d="
  M 177.34 346.63
  A 0.35 0.34 11.3 0 0 177.74 346.37
  Q 182.56 323.65 186.02 306.27
  A 1.00 0.96 -87.1 0 0 184.98 305.08
  C 183.11 305.29 182.67 308.91 182.36 310.69
  Q 181.91 313.40 177.03 346.23
  A 0.37 0.35 10.0 0 0 177.33 346.63
  L 177.34 346.63"
/>
<path stroke="#7fc19d" vector-effect="non-scaling-stroke" d="
  M 201.49 305.37
  L 199.73 305.35
  A 0.52 0.52 0.0 0 0 199.21 305.87
  L 199.15 311.19
  A 26.74 1.28 -89.4 0 0 200.15 337.94
  L 200.39 337.94
  A 26.74 1.28 -89.4 0 0 201.95 311.22
  L 202.01 305.90
  A 0.52 0.52 0.0 0 0 201.49 305.37"
/>
<path stroke="#7fc19d" vector-effect="non-scaling-stroke" d="
  M 246.94 343.25
  L 246.95 343.25
  A 0.35 0.34 -19.9 0 0 247.16 342.82
  Q 237.18 312.69 236.31 310.22
  C 235.73 308.59 234.72 305.25 232.92 305.36
  A 0.95 0.92 77.2 0 0 232.13 306.66
  Q 238.25 322.46 246.52 343.07
  A 0.33 0.33 0.0 0 0 246.94 343.25"
/>
<path stroke="#7fc19d" vector-effect="non-scaling-stroke" d="
  M 131.23 335.67
  Q 134.76 330.78 146.82 310.59
  Q 148.53 307.73 148.48 307.48
  A 0.44 0.44 0.0 0 0 147.80 307.21
  Q 146.03 308.44 145.41 309.43
  Q 138.84 319.84 134.69 328.59
  C 133.27 331.60 131.86 333.28 130.95 335.51
  A 0.16 0.16 0.0 0 0 131.23 335.67"
/>
<path stroke="#7fc19d" vector-effect="non-scaling-stroke" d="
  M 271.78 338.83
  C 271.36 337.15 269.48 334.94 268.49 332.98
  Q 262.59 321.27 257.21 312.04
  Q 255.57 309.22 253.25 307.37
  A 0.32 0.32 0.0 0 0 252.77 307.78
  L 271.41 338.96
  A 0.44 0.30 8.3 0 0 271.57 339.11
  Q 271.62 339.13 271.67 339.13
  A 0.24 0.14 79.8 0 0 271.78 338.83"
/>
<path stroke="#7fc19d" vector-effect="non-scaling-stroke" d="
  M 120.8539 311.4677
  A 5.23 0.54 -44.6 0 0 116.7508 314.7555
  A 5.23 0.54 -44.6 0 0 113.4061 318.8123
  A 5.23 0.54 -44.6 0 0 117.5092 315.5245
  A 5.23 0.54 -44.6 0 0 120.8539 311.4677"
/>
<path stroke="#7fc19d" vector-effect="non-scaling-stroke" d="
  M 280.2967 311.6253
  A 5.21 0.56 -135.3 0 0 283.6061 315.6880
  A 5.21 0.56 -135.3 0 0 287.7033 318.9547
  A 5.21 0.56 -135.3 0 0 284.3939 314.8920
  A 5.21 0.56 -135.3 0 0 280.2967 311.6253"
/>
<path stroke="#7fc19d" vector-effect="non-scaling-stroke" d="
  M 200.51 397.56
  C 216.42 397.56 232.31 395.74 247.43 391.62
  Q 295.47 378.56 330.20 343.54
  C 335.81 337.89 339.43 333.24 344.48 327.41
  A 0.88 0.88 0.0 0 0 344.09 325.99
  Q 330.79 321.77 313.03 317.47
  Q 309.72 316.66 307.57 319.07
  Q 302.17 325.08 296.01 330.25
  C 269.98 352.10 236.65 364.79 202.50 364.61
  Q 200.56 364.60 200.51 364.60
  Q 200.47 364.60 198.53 364.61
  C 164.38 364.79 131.05 352.10 105.02 330.25
  Q 98.86 325.08 93.46 319.07
  Q 91.31 316.66 88.00 317.47
  Q 70.24 321.77 56.94 326.00
  A 0.88 0.88 0.0 0 0 56.55 327.42
  C 61.60 333.24 65.22 337.89 70.83 343.54
  Q 105.56 378.56 153.59 391.63
  C 168.72 395.74 184.61 397.56 200.51 397.56"
/>
<path stroke="#7fc19d" vector-effect="non-scaling-stroke" d="
  M 130.1346 337.5249
  A 0.91 0.24 -63.6 0 0 129.5150 338.2333
  A 0.91 0.24 -63.6 0 0 129.3254 339.1551
  A 0.91 0.24 -63.6 0 0 129.9450 338.4467
  A 0.91 0.24 -63.6 0 0 130.1346 337.5249"
/>
<path stroke="#7fc19d" vector-effect="non-scaling-stroke" d="
  M 247.6204 345.1857
  A 1.04 0.29 -112.0 0 0 247.7411 346.2586
  A 1.04 0.29 -112.0 0 0 248.3996 347.1143
  A 1.04 0.29 -112.0 0 0 248.2789 346.0414
  A 1.04 0.29 -112.0 0 0 247.6204 345.1857"
/>
<path stroke="#7fc19d" vector-effect="non-scaling-stroke" d="
  M 152.99 345.68
  Q 152.30 346.43 152.29 346.78
  A 0.47 0.46 69.0 0 0 153.07 347.13
  Q 153.29 346.92 153.41 345.87
  A 0.24 0.24 0.0 0 0 152.99 345.68"
/>
<path stroke="#7fc19d" vector-effect="non-scaling-stroke" d="
  M 176.6962 351.5211
  A 0.99 0.34 -75.6 0 0 176.1207 352.3954
  A 0.99 0.34 -75.6 0 0 176.2038 353.4389
  A 0.99 0.34 -75.6 0 0 176.7793 352.5646
  A 0.99 0.34 -75.6 0 0 176.6962 351.5211"
/>
<path stroke="#7fc19d" vector-effect="non-scaling-stroke" d="
  M 224.3475 351.7462
  A 0.97 0.29 -105.7 0 0 224.3308 352.7585
  A 0.97 0.29 -105.7 0 0 224.8725 353.6138
  A 0.97 0.29 -105.7 0 0 224.8892 352.6015
  A 0.97 0.29 -105.7 0 0 224.3475 351.7462"
/>
<path stroke="#7fc19d" vector-effect="non-scaling-stroke" d="
  M 267.30 62.23
  A 0.38 0.38 0.0 0 0 267.30 61.57
  L 263.27 59.24
  A 3.69 3.66 13.4 0 1 261.44 56.29
  L 261.16 51.72
  A 0.47 0.47 0.0 0 0 260.39 51.38
  L 256.66 54.39
  A 2.73 2.70 23.3 0 1 255.15 54.98
  L 248.15 55.40
  A 0.52 0.52 0.0 0 0 247.74 56.19
  L 250.22 60.35
  A 1.26 1.25 37.9 0 1 250.35 61.34
  Q 249.45 64.40 247.54 66.71
  A 0.53 0.53 0.0 0 0 247.99 67.58
  C 250.77 67.39 254.33 67.42 256.32 69.45
  Q 257.96 71.12 258.76 71.88
  A 0.52 0.52 0.0 0 0 259.61 71.67
  L 261.28 66.91
  A 3.93 3.90 84.4 0 1 262.98 64.82
  L 267.30 62.23"
/>
<path stroke="#7fc19d" vector-effect="non-scaling-stroke" d="
  M 299.65 80.81
  A 0.34 0.34 0.0 0 0 299.35 81.33
  Q 301.24 84.52 300.53 86.83
  A 1.50 1.39 -16.3 0 1 300.19 87.40
  L 296.29 91.55
  A 1.45 1.45 0.0 0 0 296.95 93.93
  Q 299.10 94.54 301.17 94.26
  A 0.78 0.77 86.8 0 1 302.04 95.04
  Q 302.02 96.65 302.89 97.40
  C 303.85 98.24 303.61 99.03 303.67 99.83
  A 0.83 0.83 0.0 0 0 304.54 100.60
  L 306.12 100.54
  A 0.63 0.63 0.0 0 0 306.72 99.87
  L 306.64 98.56
  A 0.90 0.88 73.7 0 1 307.08 97.74
  Q 307.90 97.25 308.52 96.20
  A 0.98 0.98 0.0 0 1 309.38 95.72
  Q 310.75 95.75 311.58 94.88
  A 1.44 1.42 20.0 0 1 312.54 94.44
  L 315.73 94.25
  A 0.51 0.51 0.0 0 0 316.06 93.38
  L 311.40 88.72
  A 0.65 0.64 -50.8 0 1 311.32 87.91
  Q 313.51 84.60 313.04 82.51
  A 1.26 1.26 0.0 0 0 311.03 81.81
  C 308.45 83.88 306.07 83.84 303.11 82.29
  Q 300.28 80.82 299.65 80.81"
/>
<path stroke="#7fc19d" vector-effect="non-scaling-stroke" d="
  M 339.16 143.37
  L 342.88 140.36
  A 2.16 2.14 -57.5 0 1 344.74 139.94
  L 349.41 141.04
  A 0.85 0.84 -2.5 0 0 350.41 139.95
  C 349.62 137.61 347.92 134.68 349.56 132.27
  Q 350.45 130.96 352.03 129.10
  A 0.48 0.48 0.0 0 0 351.64 128.31
  L 346.77 128.60
  A 3.80 3.79 72.7 0 1 343.27 126.76
  L 340.95 122.87
  A 0.69 0.69 0.0 0 0 339.68 123.14
  Q 339.27 126.27 337.72 129.08
  A 1.93 1.89 87.3 0 1 337.16 129.71
  Q 334.53 131.62 331.67 131.81
  A 0.39 0.39 0.0 0 0 331.44 132.50
  L 336.93 137.25
  A 1.18 1.14 13.9 0 1 337.30 137.84
  L 338.58 143.18
  A 0.36 0.36 0.0 0 0 339.16 143.37"
/>
<path stroke="#7fc19d" vector-effect="non-scaling-stroke" d="
  M 361.05 192.94
  Q 361.24 192.97 361.28 193.02
  Q 362.91 194.90 365.21 195.90
  A 1.06 1.02 -10.6 0 1 365.56 196.13
  L 366.59 197.16
  A 0.62 0.61 20.8 0 0 367.64 196.69
  L 367.41 192.94
  A 4.99 4.95 -24.4 0 1 368.85 189.15
  L 372.07 185.93
  A 0.67 0.67 0.0 0 0 371.87 184.84
  L 366.88 182.64
  A 2.30 2.27 84.9 0 1 365.90 181.81
  Q 364.85 180.21 364.23 177.65
  Q 364.06 176.95 363.37 176.85
  Q 362.68 176.75 362.31 177.38
  Q 361.00 179.66 359.54 180.89
  A 2.30 2.27 -68.5 0 1 358.36 181.41
  L 352.96 182.11
  A 0.67 0.67 0.0 0 0 352.46 183.10
  L 354.64 187.10
  A 4.99 4.95 40.8 0 1 354.95 191.14
  L 353.67 194.68
  A 0.62 0.61 -4.4 0 0 354.54 195.42
  L 355.82 194.73
  A 1.06 1.02 27.0 0 1 356.22 194.61
  Q 358.71 194.30 360.81 192.95
  Q 360.85 192.92 361.05 192.94"
/>
<path stroke="#7fc19d" vector-effect="non-scaling-stroke" d="
  M 101.55 80.67
  C 98.57 81.75 96.51 83.94 92.82 83.05
  Q 90.91 82.59 89.38 81.69
  A 0.87 0.87 0.0 0 0 88.09 82.26
  Q 87.52 84.90 89.29 86.90
  A 1.61 1.60 -43.4 0 1 89.22 89.09
  L 84.95 93.36
  A 0.53 0.53 0.0 0 0 85.34 94.26
  Q 90.13 94.12 93.92 97.66
  A 0.96 0.93 16.2 0 1 94.21 98.17
  L 94.56 99.72
  A 1.28 1.28 0.0 0 0 96.98 99.96
  L 99.21 94.92
  A 0.45 0.44 -84.5 0 1 99.52 94.66
  L 104.06 93.65
  A 1.30 1.30 0.0 0 0 104.69 91.46
  L 101.07 87.85
  A 2.03 2.00 -72.6 0 1 100.53 86.80
  Q 99.99 83.70 101.89 81.13
  A 0.30 0.30 0.0 0 0 101.55 80.67"
/>
<path stroke="#7fc19d" vector-effect="non-scaling-stroke" d="
  M 48.72 128.97
  Q 51.09 131.64 51.25 131.84
  C 52.98 134.07 51.72 136.89 50.57 139.76
  A 1.14 1.13 -88.5 0 0 51.99 141.26
  L 56.15 139.80
  A 1.96 1.94 55.7 0 1 58.05 140.17
  L 61.58 143.22
  A 0.60 0.59 24.1 0 0 62.56 142.85
  Q 63.38 136.17 69.57 132.83
  A 0.43 0.43 0.0 0 0 69.42 132.03
  Q 66.71 131.66 64.33 130.16
  C 62.39 128.94 61.81 125.10 61.37 123.06
  A 0.67 0.67 0.0 0 0 60.14 122.85
  C 58.34 125.74 57.42 128.60 53.49 128.56
  Q 51.01 128.53 49.02 128.37
  A 0.36 0.36 0.0 0 0 48.72 128.97"
/>
<path stroke="#7fc19d" vector-effect="non-scaling-stroke" d="
  M 48.39 181.86
  L 42.96 181.65
  A 1.92 1.88 71.1 0 1 41.55 180.94
  L 38.69 177.40
  A 1.08 1.07 -54.8 0 0 36.84 177.72
  L 35.78 180.75
  A 2.14 2.10 -6.3 0 1 34.86 181.88
  L 29.29 185.21
  A 0.58 0.58 0.0 0 0 29.18 186.12
  L 32.13 189.08
  A 3.61 3.57 -69.6 0 1 33.17 191.38
  L 33.51 197.00
  A 0.55 0.55 0.0 0 0 34.40 197.40
  L 39.90 192.95
  A 0.60 0.59 -38.9 0 1 40.74 193.03
  Q 41.81 194.33 44.47 194.40
  C 45.35 194.43 45.89 195.26 46.34 195.44
  A 0.84 0.83 82.5 0 0 47.32 194.16
  C 44.27 190.18 46.36 186.55 48.87 182.79
  A 0.60 0.60 0.0 0 0 48.39 181.86"
/>
<path stroke="#7fc19d" vector-effect="non-scaling-stroke" d="
  M 311.0908 252.0580
  A 2.42 2.42 0.0 0 0 309.0985 249.2752
  L 306.3756 248.8245
  A 2.42 2.42 0.0 0 0 303.5928 250.8167
  L 297.0892 290.1020
  A 2.42 2.42 0.0 0 0 299.0815 292.8848
  L 301.8044 293.3355
  A 2.42 2.42 0.0 0 0 304.5872 291.3433
  L 311.0908 252.0580"
/>
<path stroke="#7fc19d" vector-effect="non-scaling-stroke" d="
  M 174.32 255.21
  L 173.75 252.69
  A 0.98 0.97 82.0 0 0 172.74 251.92
  L 167.19 252.26
  A 1.14 1.14 0.0 0 0 166.12 253.47
  L 167.87 282.24
  A 1.36 1.36 0.0 0 0 169.32 283.52
  L 173.63 283.26
  A 1.37 1.36 85.0 0 0 174.90 281.74
  Q 174.35 277.02 174.42 269.77
  C 174.46 264.64 175.37 258.82 181.40 258.04
  A 2.67 2.63 -38.3 0 1 182.68 258.18
  C 185.90 259.36 186.26 262.74 186.34 265.80
  Q 186.64 276.87 186.35 282.29
  A 1.17 1.17 0.0 0 0 187.58 283.51
  L 193.39 283.15
  A 1.01 1.00 88.2 0 0 194.34 282.13
  Q 194.13 263.51 194.15 262.78
  C 194.43 252.05 182.16 245.80 174.76 255.31
  A 0.25 0.25 0.0 0 1 174.32 255.21"
/>
<path stroke="#7fc19d" vector-effect="non-scaling-stroke" d="
  M 221.59 254.88
  Q 216.58 249.62 209.71 250.60
  C 198.51 252.20 195.66 264.61 198.36 273.64
  Q 199.68 278.06 204.37 281.61
  C 208.03 284.37 216.31 284.40 219.67 281.14
  A 0.39 0.39 0.0 0 1 220.31 281.29
  Q 220.91 283.14 221.77 283.24
  Q 225.10 283.59 227.82 283.29
  A 0.74 0.74 0.0 0 0 228.48 282.55
  Q 228.44 270.54 228.68 256.25
  Q 228.71 254.39 228.18 251.86
  A 0.75 0.75 0.0 0 0 227.40 251.26
  L 223.02 251.53
  A 0.73 0.73 0.0 0 0 222.33 252.30
  L 222.47 254.50
  A 0.51 0.51 0.0 0 1 221.59 254.88"
/>
<path stroke="#7fc19d" vector-effect="non-scaling-stroke" d="
  M 145.6316 253.3208
  A 16.75 16.16 -94.0 0 0 130.6794 271.1573
  A 16.75 16.16 -94.0 0 0 147.9684 286.7392
  A 16.75 16.16 -94.0 0 0 162.9206 268.9027
  A 16.75 16.16 -94.0 0 0 145.6316 253.3208"
/>
<path stroke="#7fc19d" vector-effect="non-scaling-stroke" d="
  M 264.25 260.69
  C 260.87 253.99 251.90 252.17 244.88 253.82
  Q 235.80 255.96 233.98 264.55
  C 232.89 269.69 233.11 275.64 236.22 280.27
  C 239.33 284.90 246.65 286.99 252.19 286.65
  Q 258.08 286.28 262.01 282.22
  A 1.48 1.47 52.6 0 0 262.24 280.49
  Q 261.00 278.24 258.94 277.45
  A 1.80 1.79 -42.4 0 0 257.76 277.40
  Q 255.34 278.10 252.89 278.82
  C 248.32 280.16 242.52 278.51 241.14 273.58
  C 239.26 266.85 242.63 260.55 250.03 260.22
  C 252.83 260.09 255.11 261.74 258.56 263.55
  A 2.18 2.16 -31.2 0 0 259.63 263.81
  Q 260.96 263.80 263.69 262.40
  A 1.28 1.27 -27.0 0 0 264.25 260.69"
/>
<path stroke="#7fc19d" vector-effect="non-scaling-stroke" d="
  M 276.05 256.39
  L 272.42 256.61
  A 2.62 2.61 -87.8 0 0 269.99 258.87
  Q 268.03 273.25 267.96 273.73
  Q 267.01 280.14 270.03 284.72
  C 275.46 292.97 288.84 293.25 292.78 283.27
  Q 295.25 277.01 296.05 266.76
  Q 296.22 264.52 297.09 262.13
  A 1.75 1.75 0.0 0 0 295.84 259.83
  L 291.69 258.85
  A 1.81 1.81 0.0 0 0 289.50 260.24
  Q 288.19 266.56 287.49 273.76
  C 287.14 277.48 285.13 284.56 280.25 283.32
  C 277.00 282.50 275.41 279.45 275.49 276.22
  Q 275.55 274.14 277.98 258.51
  A 1.84 1.84 0.0 0 0 276.05 256.39"
/>
<path stroke="#7fc19d" vector-effect="non-scaling-stroke" d="
  M 128.4763 273.0790
  A 14.17 14.17 0.0 0 0 115.0154 258.2337
  L 112.3986 258.1057
  A 14.17 14.17 0.0 0 0 97.5533 271.5666
  L 97.3237 276.2610
  A 14.17 14.17 0.0 0 0 110.7846 291.1063
  L 113.4014 291.2343
  A 14.17 14.17 0.0 0 0 128.2467 277.7734
  L 128.4763 273.0790"
/>
<path stroke="#7fc19d" vector-effect="non-scaling-stroke" d="
  M 73.77 295.91
  C 78.92 298.64 84.64 298.26 88.98 294.29
  C 95.25 288.54 95.66 280.19 92.26 272.78
  C 87.64 262.71 77.34 262.43 68.84 268.21
  A 0.88 0.87 -54.2 0 1 68.13 268.33
  Q 63.81 267.15 60.26 270.13
  A 1.24 1.22 -26.1 0 0 59.84 271.34
  L 68.27 309.18
  A 3.03 3.03 0.0 0 0 71.54 311.54
  L 73.04 311.39
  A 3.06 3.06 0.0 0 0 75.73 307.68
  L 73.20 296.34
  A 0.39 0.39 0.0 0 1 73.77 295.91"
/>
<path stroke="#7fc19d" vector-effect="non-scaling-stroke" d="
  M 329.80 297.20
  C 330.07 300.50 333.17 300.64 335.59 300.74
  Q 336.84 300.79 337.26 298.76
  Q 340.69 282.03 342.90 271.82
  A 2.01 2.00 -73.6 0 0 341.65 269.51
  Q 338.65 268.38 334.61 269.41
  A 0.32 0.31 51.0 0 1 334.36 269.38
  L 326.68 265.12
  A 2.87 2.78 60.5 0 0 325.49 264.77
  Q 316.96 264.19 312.37 270.95
  C 305.74 280.71 307.73 293.67 319.53 298.24
  Q 323.14 299.64 326.34 298.05
  Q 329.04 296.71 329.10 296.69
  A 0.57 0.57 0.0 0 1 329.80 297.20"
/>
<path stroke="#7fc19d" vector-effect="non-scaling-stroke" d="
  M 46.11 280.20
  A 2.63 2.62 24.4 0 1 48.84 279.18
  L 51.45 279.80
  A 2.07 2.03 38.5 0 0 52.81 279.66
  Q 55.63 278.31 56.09 275.50
  A 1.91 1.91 0.0 0 0 54.94 273.42
  Q 50.75 271.69 46.02 272.64
  C 37.19 274.43 35.02 284.94 42.77 289.58
  C 46.52 291.83 51.10 291.31 54.94 294.51
  A 1.68 1.27 39.6 0 1 55.42 296.56
  Q 53.10 299.38 47.27 297.35
  A 3.12 3.12 0.0 0 0 43.21 299.58
  L 42.96 300.60
  A 3.78 3.77 12.0 0 0 45.93 305.17
  Q 51.21 306.18 55.97 304.14
  C 61.22 301.89 62.25 298.03 61.44 292.74
  Q 60.62 287.41 55.48 285.85
  Q 47.75 283.50 46.43 282.90
  A 1.54 1.53 -60.0 0 1 45.82 280.61
  L 46.11 280.20"
/>
<path stroke="#7fc19d" vector-effect="non-scaling-stroke" d="
  M 352.53 276.58
  Q 352.70 275.87 353.23 275.00
  A 1.48 1.45 -63.7 0 0 352.52 272.85
  C 350.25 271.99 346.74 271.68 346.13 274.93
  Q 345.58 277.92 341.40 295.71
  Q 341.23 296.44 339.66 301.73
  A 1.16 1.16 0.0 0 0 340.50 303.19
  L 345.97 304.48
  A 1.03 1.02 12.5 0 0 347.22 303.69
  Q 348.52 297.41 350.23 290.50
  C 350.90 287.81 354.32 278.18 358.19 280.63
  A 1.02 1.02 0.0 0 0 359.51 280.43
  L 362.36 277.15
  A 1.32 1.32 0.0 0 0 362.06 275.18
  Q 356.52 271.69 353.08 276.82
  A 0.31 0.30 -21.4 0 1 352.53 276.58"
/>
<path stroke="#7fc19d" vector-effect="non-scaling-stroke" d="
  M 212.1265 257.8674
  A 9.55 8.61 -97.3 0 0 204.7998 268.4340
  A 9.55 8.61 -97.3 0 0 214.5535 276.8126
  A 9.55 8.61 -97.3 0 0 221.8802 266.2460
  A 9.55 8.61 -97.3 0 0 212.1265 257.8674"
/>
<path stroke="#7fc19d" vector-effect="non-scaling-stroke" d="
  M 146.0953 260.7095
  A 9.37 8.81 -93.7 0 0 137.9084 270.6285
  A 9.37 8.81 -93.7 0 0 147.3047 279.4105
  A 9.37 8.81 -93.7 0 0 155.4916 269.4915
  A 9.37 8.81 -93.7 0 0 146.0953 260.7095"
/>
<path stroke="#7fc19d" vector-effect="non-scaling-stroke" d="
  M 112.7855 265.1907
  A 9.37 8.42 -90.7 0 0 104.4806 274.6629
  A 9.37 8.42 -90.7 0 0 113.0145 283.9293
  A 9.37 8.42 -90.7 0 0 121.3194 274.4571
  A 9.37 8.42 -90.7 0 0 112.7855 265.1907"
/>
<path stroke="#7fc19d" vector-effect="non-scaling-stroke" d="
  M 77.6418 271.9930
  A 9.52 8.61 -93.0 0 0 69.5418 281.9506
  A 9.52 8.61 -93.0 0 0 78.6382 291.0070
  A 9.52 8.61 -93.0 0 0 86.7382 281.0494
  A 9.52 8.61 -93.0 0 0 77.6418 271.9930"
/>
<path stroke="#7fc19d" vector-effect="non-scaling-stroke" d="
  M 326.2374 272.5664
  A 9.54 8.63 -80.3 0 0 316.1234 280.5159
  A 9.54 8.63 -80.3 0 0 323.0226 291.3736
  A 9.54 8.63 -80.3 0 0 333.1366 283.4241
  A 9.54 8.63 -80.3 0 0 326.2374 272.5664"
/>
<path stroke="#7fc19d" vector-effect="non-scaling-stroke" d="
  M 295.04 338.66
  Q 295.23 338.81 298.92 341.71
  C 301.54 343.79 300.74 346.93 299.54 349.65
  A 0.62 0.62 0.0 0 0 299.94 350.50
  Q 300.59 350.69 301.08 350.32
  Q 302.67 349.12 306.32 347.28
  A 1.12 1.12 0.0 0 1 307.63 347.51
  Q 309.28 349.23 312.21 349.24
  A 0.72 0.71 -84.3 0 0 312.92 348.65
  Q 313.32 346.38 311.82 344.60
  A 1.63 1.62 38.6 0 1 311.62 342.83
  Q 313.15 339.81 316.08 337.46
  A 0.68 0.68 0.0 0 0 315.61 336.25
  L 309.58 336.62
  A 0.85 0.85 0.0 0 1 308.72 336.03
  Q 307.71 332.88 304.78 330.35
  A 0.75 0.74 18.6 0 0 303.55 330.96
  L 303.70 333.51
  A 1.43 1.40 -22.9 0 1 303.22 334.65
  Q 299.62 337.82 295.20 338.15
  A 0.29 0.29 0.0 0 0 295.04 338.66"
/>
<path stroke="#7fc19d" vector-effect="non-scaling-stroke" d="
  M 84.95 337.29
  C 86.51 338.91 88.66 340.69 89.48 343.33
  A 1.03 1.02 56.4 0 1 89.29 344.30
  Q 87.67 346.27 88.03 348.68
  A 0.67 0.66 -5.0 0 0 88.70 349.24
  Q 91.51 349.20 93.24 347.68
  A 1.68 1.68 0.0 0 1 95.19 347.48
  L 100.31 350.44
  A 0.82 0.82 0.0 0 0 101.41 349.29
  Q 100.08 347.26 100.46 343.92
  A 1.87 1.80 70.4 0 1 100.92 342.90
  Q 102.96 340.62 105.75 339.05
  A 0.41 0.41 0.0 0 0 105.59 338.28
  Q 101.57 337.88 98.09 334.75
  A 1.46 1.45 -75.2 0 1 97.65 333.99
  L 97.05 331.29
  A 0.82 0.82 0.0 0 0 95.68 330.88
  Q 93.59 332.91 92.36 335.40
  A 1.55 1.55 0.0 0 1 91.05 336.27
  L 85.21 336.63
  A 0.39 0.39 0.0 0 0 84.95 337.29"
/>
<path stroke="#7fc19d" vector-effect="non-scaling-stroke" d="
  M 153.33 376.09
  L 151.09 371.38
  A 3.31 3.31 0.0 0 1 151.21 368.30
  L 153.57 364.21
  A 0.70 0.70 0.0 0 0 153.16 363.19
  C 151.34 362.66 148.52 363.32 146.73 363.71
  A 1.12 1.10 64.3 0 1 145.64 363.32
  L 142.43 359.36
  A 0.53 0.52 -54.1 0 0 141.53 359.51
  L 139.57 364.76
  A 1.20 1.18 74.3 0 1 139.36 365.14
  Q 137.65 367.25 135.24 368.07
  A 1.29 1.28 -39.4 0 0 135.01 370.40
  L 138.87 372.63
  A 1.16 1.16 0.0 0 1 139.45 373.56
  L 139.78 378.99
  A 0.57 0.57 0.0 0 0 140.66 379.44
  Q 142.04 378.56 144.38 376.90
  Q 148.11 374.26 152.33 376.97
  A 0.69 0.69 0.0 0 0 153.33 376.09"
/>
<path stroke="#7fc19d" vector-effect="non-scaling-stroke" d="
  M 248.36 376.96
  C 250.59 376.04 252.08 374.80 255.09 376.21
  Q 256.66 376.94 260.31 379.60
  A 0.55 0.55 0.0 0 0 261.18 379.19
  L 261.50 374.21
  A 1.55 1.54 72.4 0 1 262.08 373.09
  L 266.15 369.80
  A 0.97 0.97 0.0 0 0 265.81 368.12
  C 261.80 366.95 260.52 363.39 259.54 359.54
  A 0.74 0.74 0.0 0 0 258.19 359.35
  L 255.99 363.16
  A 1.32 1.31 21.7 0 1 254.54 363.78
  Q 250.85 362.87 248.29 363.22
  A 0.93 0.93 0.0 0 0 247.62 364.62
  L 249.96 368.53
  A 1.61 1.58 34.4 0 1 250.17 369.60
  Q 249.72 372.46 247.60 376.09
  A 0.61 0.61 0.0 0 0 248.36 376.96"
/>
<path stroke="#7fc19d" vector-effect="non-scaling-stroke" d="
  M 200.50 389.66
  Q 200.95 389.66 201.31 389.40
  A 0.86 0.85 82.1 0 0 201.63 388.97
  Q 203.88 382.31 211.03 383.44
  A 0.54 0.54 0.0 0 0 211.49 382.53
  L 207.13 378.17
  A 0.88 0.85 -69.8 0 1 206.88 377.61
  L 206.52 371.66
  A 1.03 1.02 69.7 0 0 204.88 370.90
  Q 202.70 372.56 200.52 372.55
  Q 198.35 372.55 196.17 370.89
  A 1.03 1.02 -69.5 0 0 194.53 371.64
  L 194.16 377.59
  A 0.88 0.85 69.9 0 1 193.90 378.15
  L 189.53 382.50
  A 0.54 0.54 0.0 0 0 189.99 383.41
  Q 197.14 382.30 199.37 388.97
  A 0.86 0.85 -82.0 0 0 199.69 389.40
  Q 200.06 389.66 200.50 389.66"
/>
</g>
<path fill="#00843c" d="
  M 400.00 0.00
  L 400.00 400.00
  L 0.00 400.00
  L 0.00 0.00
  L 400.00 0.00
  Z
  M 153.76 114.91
  A 0.81 0.81 0.0 0 0 154.79 113.78
  Q 148.70 102.30 145.58 90.68
  Q 140.24 70.78 139.39 50.44
  C 139.16 45.11 140.06 39.91 140.51 34.76
  Q 140.83 31.07 143.58 23.60
  Q 147.14 13.90 156.89 12.11
  C 163.71 10.87 171.46 16.45 174.96 21.78
  C 183.67 35.03 186.64 50.43 186.63 66.47
  Q 186.62 79.42 183.00 89.37
  Q 177.62 104.12 166.46 113.17
  Q 163.76 115.36 154.96 122.48
  Q 139.36 135.10 128.00 154.00
  Q 106.05 190.54 113.02 233.72
  A 1.83 1.83 0.0 0 0 115.26 235.21
  L 117.41 234.69
  A 2.24 2.24 0.0 0 0 119.11 232.21
  Q 117.41 219.60 117.61 214.00
  C 118.73 181.72 129.87 153.70 152.77 130.05
  Q 157.60 125.06 164.95 119.77
  Q 172.06 114.65 178.56 109.10
  Q 191.97 97.64 195.80 81.09
  Q 198.42 69.73 197.48 58.99
  C 196.67 49.87 195.99 42.29 192.97 33.52
  C 187.79 18.44 174.25 3.50 157.00 3.47
  C 146.75 3.45 139.20 10.32 135.48 19.52
  C 131.06 30.46 131.09 42.10 131.77 54.99
  Q 132.93 77.16 140.63 97.32
  Q 144.38 107.16 151.77 113.71
  Q 152.53 114.38 153.76 114.91
  Z
  M 367.53 234.00
  C 368.03 236.76 366.97 239.53 368.20 242.25
  A 2.18 2.18 0.0 0 0 369.10 243.24
  L 371.81 244.81
  A 1.11 1.11 0.0 0 1 371.51 246.85
  L 368.10 247.67
  A 2.47 2.36 17.4 0 0 367.17 248.13
  Q 365.32 249.62 364.68 251.45
  A 1.63 1.62 19.4 0 0 365.68 253.53
  L 376.07 257.17
  A 1.29 1.28 -63.0 0 0 377.55 256.68
  Q 378.52 255.27 378.97 252.73
  Q 381.40 238.95 381.85 227.62
  C 382.02 223.14 383.29 218.01 382.82 214.24
  Q 382.37 210.66 381.55 198.79
  C 378.96 161.41 362.91 125.04 338.51 96.92
  C 333.84 91.54 330.13 86.46 325.04 82.55
  C 320.76 79.27 317.29 75.69 312.90 72.30
  Q 267.87 37.45 210.77 33.75
  Q 206.97 33.51 206.07 33.73
  A 0.64 0.63 -8.5 0 0 205.59 34.37
  Q 205.72 37.51 206.67 43.79
  C 207.74 50.90 208.39 58.60 208.38 64.73
  A 1.39 1.38 5.3 0 0 209.52 66.09
  C 218.20 67.67 227.74 68.46 235.69 70.48
  Q 278.32 81.29 309.09 112.92
  Q 311.56 115.46 315.16 119.94
  Q 318.25 123.79 320.61 126.99
  Q 341.71 155.58 347.57 190.07
  Q 348.19 193.68 348.26 195.41
  C 348.46 200.01 349.32 204.13 349.46 208.79
  Q 350.03 228.05 346.78 246.69
  A 1.13 1.13 0.0 0 0 347.18 247.77
  Q 348.50 248.86 351.06 248.85
  A 1.28 1.27 22.7 0 0 351.95 248.49
  Q 357.12 243.26 354.28 237.35
  A 0.81 0.80 86.8 0 1 355.27 236.24
  L 359.52 237.72
  A 3.22 3.21 -54.8 0 0 362.62 237.18
  L 366.86 233.76
  A 0.42 0.41 -25.1 0 1 367.53 234.00
  Z
  M 120.09 52.35
  Q 101.58 61.23 85.30 74.49
  C 82.29 76.94 79.53 79.88 76.04 82.47
  C 74.52 83.60 72.67 85.46 71.14 86.90
  C 67.94 89.91 65.41 94.02 62.71 96.78
  Q 59.82 99.74 57.40 102.84
  Q 28.60 139.67 20.80 185.91
  C 19.50 193.62 19.50 202.80 18.67 209.43
  Q 18.00 214.71 18.61 221.58
  C 19.31 229.53 19.95 242.16 22.09 252.91
  Q 22.52 255.04 23.22 256.19
  A 1.86 1.85 -25.4 0 0 25.41 256.97
  L 35.77 253.35
  A 1.30 1.29 69.1 0 0 36.54 251.62
  Q 34.67 247.18 30.05 247.27
  A 1.25 1.25 0.0 0 1 29.24 245.04
  L 32.55 242.36
  A 2.80 2.79 68.9 0 0 33.58 240.03
  L 33.23 234.34
  A 0.70 0.69 -71.3 0 1 34.38 233.77
  L 38.48 237.31
  A 3.03 3.02 48.6 0 0 42.13 237.54
  Q 43.88 236.37 46.75 236.38
  A 0.43 0.43 0.0 0 1 47.11 237.05
  C 44.33 241.17 46.09 244.82 48.95 248.69
  A 0.87 0.87 0.0 0 0 49.76 249.05
  Q 52.10 248.78 53.56 247.99
  A 1.19 1.19 0.0 0 0 54.15 246.73
  Q 53.78 244.84 52.95 239.00
  Q 52.81 238.06 51.63 223.09
  Q 51.06 215.97 51.57 208.91
  Q 52.49 196.02 52.68 194.73
  C 58.92 151.70 83.20 112.99 120.21 89.97
  Q 123.04 88.21 124.88 86.24
  A 2.06 2.05 60.3 0 0 125.39 84.36
  Q 121.86 68.69 120.63 52.66
  A 0.38 0.38 0.0 0 0 120.09 52.35
  Z
  M 224.7334 77.6898
  A 0.78 0.33 -80.9 0 0 224.2842 78.4078
  A 0.78 0.33 -80.9 0 0 224.4866 79.2302
  A 0.78 0.33 -80.9 0 0 224.9358 78.5122
  A 0.78 0.33 -80.9 0 0 224.7334 77.6898
  Z
  M 223.46 84.94
  L 223.46 84.93
  A 0.34 0.33 9.8 0 0 223.07 85.19
  Q 217.00 115.21 216.55 117.70
  C 216.25 119.35 215.50 122.62 217.06 123.39
  A 0.92 0.89 -73.0 0 0 218.34 122.69
  Q 220.78 106.52 223.73 85.29
  A 0.32 0.32 0.0 0 0 223.46 84.94
  Z
  M 247.22 86.83
  A 0.39 0.38 20.9 0 0 246.74 87.04
  Q 237.33 110.78 230.37 128.98
  A 1.09 1.06 -77.5 0 0 231.28 130.47
  C 233.35 130.58 234.50 126.74 235.16 124.86
  Q 236.14 122.01 247.48 87.33
  A 0.40 0.39 19.7 0 0 247.24 86.83
  L 247.22 86.83
  Z
  M 247.21 132.96
  L 248.63 133.78
  A 0.28 0.28 0.0 0 0 249.01 133.68
  L 249.09 133.54
  A 44.40 1.08 -59.9 0 0 270.42 94.58
  L 270.39 94.56
  A 44.40 1.08 -59.9 0 0 247.19 132.43
  L 247.10 132.57
  A 0.28 0.28 0.0 0 0 247.21 132.96
  Z
  M 190.27 106.86
  Q 189.88 107.14 189.33 107.83
  C 178.33 121.59 167.24 133.87 161.65 149.37
  Q 157.99 159.54 155.46 171.23
  C 154.65 174.99 155.20 176.36 158.05 179.17
  Q 162.75 183.79 166.68 187.71
  Q 169.50 190.52 174.41 196.63
  Q 178.50 201.72 182.74 206.85
  Q 185.55 210.24 187.18 212.43
  C 188.70 214.49 192.26 219.29 195.13 219.36
  Q 213.39 219.83 229.39 210.38
  C 239.49 204.42 248.79 198.67 260.27 198.76
  C 273.42 198.87 286.63 203.11 299.43 208.85
  Q 316.21 216.38 332.41 225.30
  A 0.65 0.65 0.0 0 0 333.33 224.51
  Q 327.51 208.25 319.27 192.47
  Q 310.68 176.00 298.56 164.74
  Q 291.25 157.95 285.05 154.51
  C 272.41 147.51 257.29 145.11 242.54 143.18
  C 230.79 141.64 218.24 137.97 209.34 130.38
  C 201.48 123.68 195.89 116.03 191.40 107.15
  A 0.78 0.78 0.0 0 0 190.27 106.86
  Z
  M 266.22 136.16
  L 267.37 137.12
  A 0.22 0.22 0.0 0 0 267.68 137.09
  L 267.75 137.01
  A 35.05 0.92 -50.1 0 0 289.53 109.53
  L 289.45 109.47
  A 35.05 0.92 -50.1 0 0 266.26 135.77
  L 266.19 135.85
  A 0.22 0.22 0.0 0 0 266.22 136.16
  Z
  M 111.34 109.96
  L 129.58 132.52
  A 0.40 0.40 0.0 0 0 130.29 132.24
  L 130.22 131.02
  A 3.69 3.66 21.9 0 0 129.23 128.73
  L 119.66 118.63
  Q 119.63 118.60 119.59 118.56
  L 112.48 109.89
  A 0.27 0.27 0.0 0 0 112.25 109.79
  L 111.39 109.84
  A 0.07 0.07 0.0 0 0 111.34 109.96
  Z
  M 119.18 148.41
  L 120.03 147.41
  A 0.29 0.29 0.0 0 0 120.00 147.00
  L 119.83 146.85
  A 28.98 0.94 40.5 0 0 97.18 128.74
  L 97.17 128.76
  A 28.98 0.94 40.5 0 0 118.59 148.29
  L 118.77 148.44
  A 0.29 0.29 0.0 0 0 119.18 148.41
  Z
  M 303.2525 128.7813
  A 0.26 0.26 0.0 0 0 302.8862 128.7499
  L 286.0120 142.9592
  A 0.26 0.26 0.0 0 0 285.9806 143.3256
  L 286.5475 143.9987
  A 0.26 0.26 0.0 0 0 286.9138 144.0301
  L 303.7880 129.8208
  A 0.26 0.26 0.0 0 0 303.8194 129.4544
  L 303.2525 128.7813
  Z
  M 162.63 130.69
  A 0.27 0.27 0.0 0 0 162.19 130.41
  C 157.31 134.37 153.64 139.35 149.94 144.79
  C 138.67 161.39 135.48 180.86 136.36 200.74
  Q 137.21 219.94 141.74 235.27
  A 0.53 0.53 0.0 0 1 141.30 235.95
  Q 133.80 236.94 127.98 237.23
  C 124.62 237.40 121.93 238.29 118.70 238.55
  Q 112.74 239.03 111.84 239.66
  Q 111.80 239.69 99.43 241.50
  Q 79.48 244.43 50.40 252.72
  Q 33.81 257.45 25.61 260.13
  A 1.08 1.07 -15.8 0 0 24.90 261.39
  Q 29.36 281.33 36.07 308.69
  Q 37.86 316.01 39.92 325.58
  Q 40.45 328.04 42.91 327.19
  Q 66.13 319.14 85.47 314.54
  Q 125.05 305.12 167.76 302.13
  C 175.33 301.60 183.33 302.08 191.07 301.86
  Q 200.50 301.58 215.09 301.91
  C 219.28 302.01 225.97 302.03 229.75 301.83
  Q 232.47 301.68 240.69 302.77
  Q 246.10 303.48 251.40 303.47
  A 13.62 13.54 52.0 0 1 254.75 303.89
  Q 255.91 304.19 269.98 306.05
  Q 296.62 309.57 323.03 316.34
  C 335.11 319.43 343.26 322.28 359.34 327.34
  A 1.16 1.15 15.2 0 0 360.81 326.50
  L 376.11 261.85
  A 1.31 1.30 16.4 0 0 375.26 260.31
  Q 343.44 249.40 310.04 243.00
  Q 277.48 236.75 245.02 234.46
  Q 229.53 233.37 215.50 233.38
  C 186.61 233.40 176.35 232.91 156.37 234.57
  Q 152.25 234.91 149.93 234.77
  A 1.99 1.98 81.9 0 1 148.18 233.45
  C 147.59 231.81 146.86 228.70 146.70 226.32
  Q 146.32 220.76 145.16 210.52
  Q 144.99 209.00 145.14 198.55
  Q 145.22 192.98 146.09 186.65
  Q 149.14 164.35 157.27 143.91
  C 159.04 139.46 161.47 134.95 162.63 130.69
  Z
  M 321.1796 145.7835
  A 0.49 0.49 0.0 0 0 320.5081 145.6123
  L 305.1511 154.7306
  A 0.49 0.49 0.0 0 0 304.9800 155.4021
  L 305.0004 155.4365
  A 0.49 0.49 0.0 0 0 305.6719 155.6077
  L 321.0289 146.4894
  A 0.49 0.49 0.0 0 0 321.2000 145.8179
  L 321.1796 145.7835
  Z
  M 110.99 164.92
  L 111.74 163.64
  A 0.15 0.15 0.0 0 0 111.69 163.43
  L 111.53 163.34
  A 35.89 0.88 30.3 0 0 80.10 145.99
  L 80.09 146.01
  A 35.89 0.88 30.3 0 0 110.63 164.88
  L 110.79 164.97
  A 0.15 0.15 0.0 0 0 110.99 164.92
  Z
  M 320.01 171.71
  L 320.16 172.16
  A 0.15 0.15 0.0 0 0 320.36 172.25
  L 320.56 172.18
  A 9.53 0.29 -18.9 0 0 329.49 168.82
  L 329.42 168.63
  A 9.53 0.29 -18.9 0 0 320.31 171.44
  L 320.10 171.52
  A 0.15 0.15 0.0 0 0 320.01 171.71
  Z
  M 72.13 168.86
  A 0.29 0.29 0.0 0 0 72.29 169.23
  Q 90.36 176.45 104.21 181.79
  A 0.83 0.81 12.7 0 0 105.35 181.10
  C 105.44 179.52 102.52 178.64 101.09 178.14
  Q 98.91 177.38 72.50 168.67
  A 0.31 0.30 -70.2 0 0 72.13 168.86
  L 72.13 168.86
  Z
  M 64.9678 191.6437
  A 1.58 0.43 -171.4 0 0 66.4657 192.3052
  A 1.58 0.43 -171.4 0 0 68.0922 192.1163
  A 1.58 0.43 -171.4 0 0 66.5943 191.4548
  A 1.58 0.43 -171.4 0 0 64.9678 191.6437
  Z
  M 335.8744 191.7058
  A 1.17 0.58 -5.6 0 0 334.6534 191.2428
  A 1.17 0.58 -5.6 0 0 333.5456 191.9342
  A 1.17 0.58 -5.6 0 0 334.7666 192.3972
  A 1.17 0.58 -5.6 0 0 335.8744 191.7058
  Z
  M 101.8148 198.1500
  A 0.82 0.82 0.0 0 0 101.1464 197.2024
  L 73.2396 192.3821
  A 0.82 0.82 0.0 0 0 72.2920 193.0506
  L 72.2852 193.0900
  A 0.82 0.82 0.0 0 0 72.9536 194.0376
  L 100.8604 198.8579
  A 0.82 0.82 0.0 0 0 101.8080 198.1894
  L 101.8148 198.1500
  Z
  M 100.6200 215.4426
  A 0.75 0.75 0.0 0 0 99.8713 214.6912
  L 64.0714 214.6288
  A 0.75 0.75 0.0 0 0 63.3201 215.3774
  L 63.3200 215.4174
  A 0.75 0.75 0.0 0 0 64.0687 216.1688
  L 99.8686 216.2312
  A 0.75 0.75 0.0 0 0 100.6199 215.4826
  L 100.6200 215.4426
  Z
  M 102.43 233.69
  L 102.17 232.24
  A 0.44 0.44 0.0 0 0 101.66 231.88
  L 101.52 231.91
  A 28.03 1.08 -10.0 0 0 74.10 237.84
  L 74.13 238.03
  A 28.03 1.08 -10.0 0 0 101.93 234.23
  L 102.07 234.20
  A 0.44 0.44 0.0 0 0 102.43 233.69
  Z
  M 67.57 239.06
  Q 67.68 239.60 68.71 239.36
  Q 73.17 238.36 73.09 237.96
  Q 73.02 237.56 68.51 238.33
  Q 67.46 238.51 67.57 239.06
  Z
  M 47.92 249.25
  Q 45.57 248.64 42.52 249.17
  A 1.79 1.79 0.0 0 0 41.08 250.56
  L 40.97 251.04
  A 0.64 0.63 86.3 0 0 41.80 251.77
  L 47.94 249.63
  A 0.20 0.20 0.0 0 0 47.92 249.25
  Z
  M 353.18 249.33
  A 0.20 0.20 0.0 0 0 353.17 249.71
  L 359.29 251.72
  A 0.63 0.63 0.0 0 0 360.10 250.98
  L 359.98 250.51
  A 1.77 1.77 0.0 0 0 358.53 249.16
  Q 355.50 248.68 353.18 249.33
  Z
  M 24.62 362.59
  Q 28.53 361.34 32.02 359.77
  Q 50.73 351.34 64.87 345.20
  A 0.85 0.85 0.0 0 0 65.19 343.89
  L 53.30 329.19
  A 1.99 1.99 0.0 0 0 51.10 328.56
  L 38.97 332.80
  A 0.58 0.57 73.8 0 1 38.23 332.39
  L 27.80 289.17
  A 1.02 1.01 -16.2 0 0 26.48 288.45
  L 8.15 294.86
  A 0.66 0.65 68.4 0 0 7.77 295.75
  Q 9.15 298.72 11.12 300.72
  Q 17.53 307.21 28.01 319.49
  C 30.75 322.70 29.97 327.54 29.34 331.35
  Q 26.90 346.25 23.97 362.03
  A 0.50 0.50 0.0 0 0 24.62 362.59
  Z
  M 377.02 362.41
  Q 377.06 361.88 376.94 361.29
  Q 373.70 344.76 371.89 332.61
  C 370.94 326.19 370.09 322.89 373.67 318.67
  Q 381.18 309.84 389.31 301.32
  Q 391.54 298.97 393.06 295.95
  A 0.85 0.85 0.0 0 0 392.58 294.77
  L 375.05 288.64
  A 0.67 0.66 26.2 0 0 374.29 288.89
  Q 373.48 290.08 373.04 291.80
  Q 366.87 315.71 364.53 327.76
  Q 364.11 329.92 362.77 332.39
  A 0.66 0.65 23.3 0 1 361.98 332.70
  L 350.19 328.57
  A 2.07 2.06 -61.4 0 0 347.89 329.25
  Q 343.36 335.04 337.82 341.07
  Q 337.24 341.70 336.15 343.77
  A 1.12 1.11 -64.2 0 0 336.68 345.31
  L 376.31 362.83
  A 0.51 0.51 0.0 0 0 377.02 362.41
  Z
  M 223.56 346.92
  L 223.57 346.93
  A 0.37 0.36 -9.7 0 0 223.88 346.52
  Q 219.14 313.40 218.70 310.67
  C 218.41 308.87 217.98 305.23 216.10 305.00
  A 1.00 0.97 87.4 0 0 215.04 306.20
  Q 218.43 323.73 223.16 346.66
  A 0.35 0.35 0.0 0 0 223.56 346.92
  Z
  M 154.11 342.91
  A 0.33 0.33 0.0 0 0 154.53 342.73
  Q 162.80 322.26 168.92 306.57
  A 0.95 0.92 -77.1 0 0 168.14 305.28
  C 166.35 305.17 165.34 308.48 164.76 310.10
  Q 163.89 312.56 153.89 342.48
  A 0.35 0.33 20.1 0 0 154.10 342.91
  L 154.11 342.91
  Z
  M 177.34 346.63
  A 0.35 0.34 11.3 0 0 177.74 346.37
  Q 182.56 323.65 186.02 306.27
  A 1.00 0.96 -87.1 0 0 184.98 305.08
  C 183.11 305.29 182.67 308.91 182.36 310.69
  Q 181.91 313.40 177.03 346.23
  A 0.37 0.35 10.0 0 0 177.33 346.63
  L 177.34 346.63
  Z
  M 201.49 305.37
  L 199.73 305.35
  A 0.52 0.52 0.0 0 0 199.21 305.87
  L 199.15 311.19
  A 26.74 1.28 -89.4 0 0 200.15 337.94
  L 200.39 337.94
  A 26.74 1.28 -89.4 0 0 201.95 311.22
  L 202.01 305.90
  A 0.52 0.52 0.0 0 0 201.49 305.37
  Z
  M 246.94 343.25
  L 246.95 343.25
  A 0.35 0.34 -19.9 0 0 247.16 342.82
  Q 237.18 312.69 236.31 310.22
  C 235.73 308.59 234.72 305.25 232.92 305.36
  A 0.95 0.92 77.2 0 0 232.13 306.66
  Q 238.25 322.46 246.52 343.07
  A 0.33 0.33 0.0 0 0 246.94 343.25
  Z
  M 131.23 335.67
  Q 134.76 330.78 146.82 310.59
  Q 148.53 307.73 148.48 307.48
  A 0.44 0.44 0.0 0 0 147.80 307.21
  Q 146.03 308.44 145.41 309.43
  Q 138.84 319.84 134.69 328.59
  C 133.27 331.60 131.86 333.28 130.95 335.51
  A 0.16 0.16 0.0 0 0 131.23 335.67
  Z
  M 271.78 338.83
  C 271.36 337.15 269.48 334.94 268.49 332.98
  Q 262.59 321.27 257.21 312.04
  Q 255.57 309.22 253.25 307.37
  A 0.32 0.32 0.0 0 0 252.77 307.78
  L 271.41 338.96
  A 0.44 0.30 8.3 0 0 271.57 339.11
  Q 271.62 339.13 271.67 339.13
  A 0.24 0.14 79.8 0 0 271.78 338.83
  Z
  M 120.8539 311.4677
  A 5.23 0.54 -44.6 0 0 116.7508 314.7555
  A 5.23 0.54 -44.6 0 0 113.4061 318.8123
  A 5.23 0.54 -44.6 0 0 117.5092 315.5245
  A 5.23 0.54 -44.6 0 0 120.8539 311.4677
  Z
  M 280.2967 311.6253
  A 5.21 0.56 -135.3 0 0 283.6061 315.6880
  A 5.21 0.56 -135.3 0 0 287.7033 318.9547
  A 5.21 0.56 -135.3 0 0 284.3939 314.8920
  A 5.21 0.56 -135.3 0 0 280.2967 311.6253
  Z
  M 200.51 397.56
  C 216.42 397.56 232.31 395.74 247.43 391.62
  Q 295.47 378.56 330.20 343.54
  C 335.81 337.89 339.43 333.24 344.48 327.41
  A 0.88 0.88 0.0 0 0 344.09 325.99
  Q 330.79 321.77 313.03 317.47
  Q 309.72 316.66 307.57 319.07
  Q 302.17 325.08 296.01 330.25
  C 269.98 352.10 236.65 364.79 202.50 364.61
  Q 200.56 364.60 200.51 364.60
  Q 200.47 364.60 198.53 364.61
  C 164.38 364.79 131.05 352.10 105.02 330.25
  Q 98.86 325.08 93.46 319.07
  Q 91.31 316.66 88.00 317.47
  Q 70.24 321.77 56.94 326.00
  A 0.88 0.88 0.0 0 0 56.55 327.42
  C 61.60 333.24 65.22 337.89 70.83 343.54
  Q 105.56 378.56 153.59 391.63
  C 168.72 395.74 184.61 397.56 200.51 397.56
  Z
  M 130.1346 337.5249
  A 0.91 0.24 -63.6 0 0 129.5150 338.2333
  A 0.91 0.24 -63.6 0 0 129.3254 339.1551
  A 0.91 0.24 -63.6 0 0 129.9450 338.4467
  A 0.91 0.24 -63.6 0 0 130.1346 337.5249
  Z
  M 247.6204 345.1857
  A 1.04 0.29 -112.0 0 0 247.7411 346.2586
  A 1.04 0.29 -112.0 0 0 248.3996 347.1143
  A 1.04 0.29 -112.0 0 0 248.2789 346.0414
  A 1.04 0.29 -112.0 0 0 247.6204 345.1857
  Z
  M 152.99 345.68
  Q 152.30 346.43 152.29 346.78
  A 0.47 0.46 69.0 0 0 153.07 347.13
  Q 153.29 346.92 153.41 345.87
  A 0.24 0.24 0.0 0 0 152.99 345.68
  Z
  M 176.6962 351.5211
  A 0.99 0.34 -75.6 0 0 176.1207 352.3954
  A 0.99 0.34 -75.6 0 0 176.2038 353.4389
  A 0.99 0.34 -75.6 0 0 176.7793 352.5646
  A 0.99 0.34 -75.6 0 0 176.6962 351.5211
  Z
  M 224.3475 351.7462
  A 0.97 0.29 -105.7 0 0 224.3308 352.7585
  A 0.97 0.29 -105.7 0 0 224.8725 353.6138
  A 0.97 0.29 -105.7 0 0 224.8892 352.6015
  A 0.97 0.29 -105.7 0 0 224.3475 351.7462
  Z"
/>
<path fill="#fdfdfd" d="
  M 153.76 114.91
  Q 152.53 114.38 151.77 113.71
  Q 144.38 107.16 140.63 97.32
  Q 132.93 77.16 131.77 54.99
  C 131.09 42.10 131.06 30.46 135.48 19.52
  C 139.20 10.32 146.75 3.45 157.00 3.47
  C 174.25 3.50 187.79 18.44 192.97 33.52
  C 195.99 42.29 196.67 49.87 197.48 58.99
  Q 198.42 69.73 195.80 81.09
  Q 191.97 97.64 178.56 109.10
  Q 172.06 114.65 164.95 119.77
  Q 157.60 125.06 152.77 130.05
  C 129.87 153.70 118.73 181.72 117.61 214.00
  Q 117.41 219.60 119.11 232.21
  A 2.24 2.24 0.0 0 1 117.41 234.69
  L 115.26 235.21
  A 1.83 1.83 0.0 0 1 113.02 233.72
  Q 106.05 190.54 128.00 154.00
  Q 139.36 135.10 154.96 122.48
  Q 163.76 115.36 166.46 113.17
  Q 177.62 104.12 183.00 89.37
  Q 186.62 79.42 186.63 66.47
  C 186.64 50.43 183.67 35.03 174.96 21.78
  C 171.46 16.45 163.71 10.87 156.89 12.11
  Q 147.14 13.90 143.58 23.60
  Q 140.83 31.07 140.51 34.76
  C 140.06 39.91 139.16 45.11 139.39 50.44
  Q 140.24 70.78 145.58 90.68
  Q 148.70 102.30 154.79 113.78
  A 0.81 0.81 0.0 0 1 153.76 114.91
  Z"
/>
<path fill="#fdfdfd" d="
  M 367.53 234.00
  A 0.42 0.41 -25.1 0 0 366.86 233.76
  L 362.62 237.18
  A 3.22 3.21 -54.8 0 1 359.52 237.72
  L 355.27 236.24
  A 0.81 0.80 86.8 0 0 354.28 237.35
  Q 357.12 243.26 351.95 248.49
  A 1.28 1.27 22.7 0 1 351.06 248.85
  Q 348.50 248.86 347.18 247.77
  A 1.13 1.13 0.0 0 1 346.78 246.69
  Q 350.03 228.05 349.46 208.79
  C 349.32 204.13 348.46 200.01 348.26 195.41
  Q 348.19 193.68 347.57 190.07
  Q 341.71 155.58 320.61 126.99
  Q 318.25 123.79 315.16 119.94
  Q 311.56 115.46 309.09 112.92
  Q 278.32 81.29 235.69 70.48
  C 227.74 68.46 218.20 67.67 209.52 66.09
  A 1.39 1.38 5.3 0 1 208.38 64.73
  C 208.39 58.60 207.74 50.90 206.67 43.79
  Q 205.72 37.51 205.59 34.37
  A 0.64 0.63 -8.5 0 1 206.07 33.73
  Q 206.97 33.51 210.77 33.75
  Q 267.87 37.45 312.90 72.30
  C 317.29 75.69 320.76 79.27 325.04 82.55
  C 330.13 86.46 333.84 91.54 338.51 96.92
  C 362.91 125.04 378.96 161.41 381.55 198.79
  Q 382.37 210.66 382.82 214.24
  C 383.29 218.01 382.02 223.14 381.85 227.62
  Q 381.40 238.95 378.97 252.73
  Q 378.52 255.27 377.55 256.68
  A 1.29 1.28 -63.0 0 1 376.07 257.17
  L 365.68 253.53
  A 1.63 1.62 19.4 0 1 364.68 251.45
  Q 365.32 249.62 367.17 248.13
  A 2.47 2.36 17.4 0 1 368.10 247.67
  L 371.51 246.85
  A 1.11 1.11 0.0 0 0 371.81 244.81
  L 369.10 243.24
  A 2.18 2.18 0.0 0 1 368.20 242.25
  C 366.97 239.53 368.03 236.76 367.53 234.00
  Z
  M 267.30 62.23
  A 0.38 0.38 0.0 0 0 267.30 61.57
  L 263.27 59.24
  A 3.69 3.66 13.4 0 1 261.44 56.29
  L 261.16 51.72
  A 0.47 0.47 0.0 0 0 260.39 51.38
  L 256.66 54.39
  A 2.73 2.70 23.3 0 1 255.15 54.98
  L 248.15 55.40
  A 0.52 0.52 0.0 0 0 247.74 56.19
  L 250.22 60.35
  A 1.26 1.25 37.9 0 1 250.35 61.34
  Q 249.45 64.40 247.54 66.71
  A 0.53 0.53 0.0 0 0 247.99 67.58
  C 250.77 67.39 254.33 67.42 256.32 69.45
  Q 257.96 71.12 258.76 71.88
  A 0.52 0.52 0.0 0 0 259.61 71.67
  L 261.28 66.91
  A 3.93 3.90 84.4 0 1 262.98 64.82
  L 267.30 62.23
  Z
  M 299.65 80.81
  A 0.34 0.34 0.0 0 0 299.35 81.33
  Q 301.24 84.52 300.53 86.83
  A 1.50 1.39 -16.3 0 1 300.19 87.40
  L 296.29 91.55
  A 1.45 1.45 0.0 0 0 296.95 93.93
  Q 299.10 94.54 301.17 94.26
  A 0.78 0.77 86.8 0 1 302.04 95.04
  Q 302.02 96.65 302.89 97.40
  C 303.85 98.24 303.61 99.03 303.67 99.83
  A 0.83 0.83 0.0 0 0 304.54 100.60
  L 306.12 100.54
  A 0.63 0.63 0.0 0 0 306.72 99.87
  L 306.64 98.56
  A 0.90 0.88 73.7 0 1 307.08 97.74
  Q 307.90 97.25 308.52 96.20
  A 0.98 0.98 0.0 0 1 309.38 95.72
  Q 310.75 95.75 311.58 94.88
  A 1.44 1.42 20.0 0 1 312.54 94.44
  L 315.73 94.25
  A 0.51 0.51 0.0 0 0 316.06 93.38
  L 311.40 88.72
  A 0.65 0.64 -50.8 0 1 311.32 87.91
  Q 313.51 84.60 313.04 82.51
  A 1.26 1.26 0.0 0 0 311.03 81.81
  C 308.45 83.88 306.07 83.84 303.11 82.29
  Q 300.28 80.82 299.65 80.81
  Z
  M 339.16 143.37
  L 342.88 140.36
  A 2.16 2.14 -57.5 0 1 344.74 139.94
  L 349.41 141.04
  A 0.85 0.84 -2.5 0 0 350.41 139.95
  C 349.62 137.61 347.92 134.68 349.56 132.27
  Q 350.45 130.96 352.03 129.10
  A 0.48 0.48 0.0 0 0 351.64 128.31
  L 346.77 128.60
  A 3.80 3.79 72.7 0 1 343.27 126.76
  L 340.95 122.87
  A 0.69 0.69 0.0 0 0 339.68 123.14
  Q 339.27 126.27 337.72 129.08
  A 1.93 1.89 87.3 0 1 337.16 129.71
  Q 334.53 131.62 331.67 131.81
  A 0.39 0.39 0.0 0 0 331.44 132.50
  L 336.93 137.25
  A 1.18 1.14 13.9 0 1 337.30 137.84
  L 338.58 143.18
  A 0.36 0.36 0.0 0 0 339.16 143.37
  Z
  M 361.05 192.94
  Q 361.24 192.97 361.28 193.02
  Q 362.91 194.90 365.21 195.90
  A 1.06 1.02 -10.6 0 1 365.56 196.13
  L 366.59 197.16
  A 0.62 0.61 20.8 0 0 367.64 196.69
  L 367.41 192.94
  A 4.99 4.95 -24.4 0 1 368.85 189.15
  L 372.07 185.93
  A 0.67 0.67 0.0 0 0 371.87 184.84
  L 366.88 182.64
  A 2.30 2.27 84.9 0 1 365.90 181.81
  Q 364.85 180.21 364.23 177.65
  Q 364.06 176.95 363.37 176.85
  Q 362.68 176.75 362.31 177.38
  Q 361.00 179.66 359.54 180.89
  A 2.30 2.27 -68.5 0 1 358.36 181.41
  L 352.96 182.11
  A 0.67 0.67 0.0 0 0 352.46 183.10
  L 354.64 187.10
  A 4.99 4.95 40.8 0 1 354.95 191.14
  L 353.67 194.68
  A 0.62 0.61 -4.4 0 0 354.54 195.42
  L 355.82 194.73
  A 1.06 1.02 27.0 0 1 356.22 194.61
  Q 358.71 194.30 360.81 192.95
  Q 360.85 192.92 361.05 192.94
  Z"
/>
<path fill="#00843c" d="
  M 267.30 62.23
  L 262.98 64.82
  A 3.93 3.90 84.4 0 0 261.28 66.91
  L 259.61 71.67
  A 0.52 0.52 0.0 0 1 258.76 71.88
  Q 257.96 71.12 256.32 69.45
  C 254.33 67.42 250.77 67.39 247.99 67.58
  A 0.53 0.53 0.0 0 1 247.54 66.71
  Q 249.45 64.40 250.35 61.34
  A 1.26 1.25 37.9 0 0 250.22 60.35
  L 247.74 56.19
  A 0.52 0.52 0.0 0 1 248.15 55.40
  L 255.15 54.98
  A 2.73 2.70 23.3 0 0 256.66 54.39
  L 260.39 51.38
  A 0.47 0.47 0.0 0 1 261.16 51.72
  L 261.44 56.29
  A 3.69 3.66 13.4 0 0 263.27 59.24
  L 267.30 61.57
  A 0.38 0.38 0.0 0 1 267.30 62.23
  Z"
/>
<path fill="#fdfdfd" d="
  M 120.09 52.35
  A 0.38 0.38 0.0 0 1 120.63 52.66
  Q 121.86 68.69 125.39 84.36
  A 2.06 2.05 60.3 0 1 124.88 86.24
  Q 123.04 88.21 120.21 89.97
  C 83.20 112.99 58.92 151.70 52.68 194.73
  Q 52.49 196.02 51.57 208.91
  Q 51.06 215.97 51.63 223.09
  Q 52.81 238.06 52.95 239.00
  Q 53.78 244.84 54.15 246.73
  A 1.19 1.19 0.0 0 1 53.56 247.99
  Q 52.10 248.78 49.76 249.05
  A 0.87 0.87 0.0 0 1 48.95 248.69
  C 46.09 244.82 44.33 241.17 47.11 237.05
  A 0.43 0.43 0.0 0 0 46.75 236.38
  Q 43.88 236.37 42.13 237.54
  A 3.03 3.02 48.6 0 1 38.48 237.31
  L 34.38 233.77
  A 0.70 0.69 -71.3 0 0 33.23 234.34
  L 33.58 240.03
  A 2.80 2.79 68.9 0 1 32.55 242.36
  L 29.24 245.04
  A 1.25 1.25 0.0 0 0 30.05 247.27
  Q 34.67 247.18 36.54 251.62
  A 1.30 1.29 69.1 0 1 35.77 253.35
  L 25.41 256.97
  A 1.86 1.85 -25.4 0 1 23.22 256.19
  Q 22.52 255.04 22.09 252.91
  C 19.95 242.16 19.31 229.53 18.61 221.58
  Q 18.00 214.71 18.67 209.43
  C 19.50 202.80 19.50 193.62 20.80 185.91
  Q 28.60 139.67 57.40 102.84
  Q 59.82 99.74 62.71 96.78
  C 65.41 94.02 67.94 89.91 71.14 86.90
  C 72.67 85.46 74.52 83.60 76.04 82.47
  C 79.53 79.88 82.29 76.94 85.30 74.49
  Q 101.58 61.23 120.09 52.35
  Z
  M 101.55 80.67
  C 98.57 81.75 96.51 83.94 92.82 83.05
  Q 90.91 82.59 89.38 81.69
  A 0.87 0.87 0.0 0 0 88.09 82.26
  Q 87.52 84.90 89.29 86.90
  A 1.61 1.60 -43.4 0 1 89.22 89.09
  L 84.95 93.36
  A 0.53 0.53 0.0 0 0 85.34 94.26
  Q 90.13 94.12 93.92 97.66
  A 0.96 0.93 16.2 0 1 94.21 98.17
  L 94.56 99.72
  A 1.28 1.28 0.0 0 0 96.98 99.96
  L 99.21 94.92
  A 0.45 0.44 -84.5 0 1 99.52 94.66
  L 104.06 93.65
  A 1.30 1.30 0.0 0 0 104.69 91.46
  L 101.07 87.85
  A 2.03 2.00 -72.6 0 1 100.53 86.80
  Q 99.99 83.70 101.89 81.13
  A 0.30 0.30 0.0 0 0 101.55 80.67
  Z
  M 48.72 128.97
  Q 51.09 131.64 51.25 131.84
  C 52.98 134.07 51.72 136.89 50.57 139.76
  A 1.14 1.13 -88.5 0 0 51.99 141.26
  L 56.15 139.80
  A 1.96 1.94 55.7 0 1 58.05 140.17
  L 61.58 143.22
  A 0.60 0.59 24.1 0 0 62.56 142.85
  Q 63.38 136.17 69.57 132.83
  A 0.43 0.43 0.0 0 0 69.42 132.03
  Q 66.71 131.66 64.33 130.16
  C 62.39 128.94 61.81 125.10 61.37 123.06
  A 0.67 0.67 0.0 0 0 60.14 122.85
  C 58.34 125.74 57.42 128.60 53.49 128.56
  Q 51.01 128.53 49.02 128.37
  A 0.36 0.36 0.0 0 0 48.72 128.97
  Z
  M 48.39 181.86
  L 42.96 181.65
  A 1.92 1.88 71.1 0 1 41.55 180.94
  L 38.69 177.40
  A 1.08 1.07 -54.8 0 0 36.84 177.72
  L 35.78 180.75
  A 2.14 2.10 -6.3 0 1 34.86 181.88
  L 29.29 185.21
  A 0.58 0.58 0.0 0 0 29.18 186.12
  L 32.13 189.08
  A 3.61 3.57 -69.6 0 1 33.17 191.38
  L 33.51 197.00
  A 0.55 0.55 0.0 0 0 34.40 197.40
  L 39.90 192.95
  A 0.60 0.59 -38.9 0 1 40.74 193.03
  Q 41.81 194.33 44.47 194.40
  C 45.35 194.43 45.89 195.26 46.34 195.44
  A 0.84 0.83 82.5 0 0 47.32 194.16
  C 44.27 190.18 46.36 186.55 48.87 182.79
  A 0.60 0.60 0.0 0 0 48.39 181.86
  Z"
/>
<ellipse fill="#fdfdfd" cx="0.00" cy="0.00" transform="translate(224.61,78.46) rotate(-80.9)" rx="0.78" ry="0.33"/>
<path fill="#00843c" d="
  M 101.55 80.67
  A 0.30 0.30 0.0 0 1 101.89 81.13
  Q 99.99 83.70 100.53 86.80
  A 2.03 2.00 -72.6 0 0 101.07 87.85
  L 104.69 91.46
  A 1.30 1.30 0.0 0 1 104.06 93.65
  L 99.52 94.66
  A 0.45 0.44 -84.5 0 0 99.21 94.92
  L 96.98 99.96
  A 1.28 1.28 0.0 0 1 94.56 99.72
  L 94.21 98.17
  A 0.96 0.93 16.2 0 0 93.92 97.66
  Q 90.13 94.12 85.34 94.26
  A 0.53 0.53 0.0 0 1 84.95 93.36
  L 89.22 89.09
  A 1.61 1.60 -43.4 0 0 89.29 86.90
  Q 87.52 84.90 88.09 82.26
  A 0.87 0.87 0.0 0 1 89.38 81.69
  Q 90.91 82.59 92.82 83.05
  C 96.51 83.94 98.57 81.75 101.55 80.67
  Z"
/>
<path fill="#00843c" d="
  M 299.65 80.81
  Q 300.28 80.82 303.11 82.29
  C 306.07 83.84 308.45 83.88 311.03 81.81
  A 1.26 1.26 0.0 0 1 313.04 82.51
  Q 313.51 84.60 311.32 87.91
  A 0.65 0.64 -50.8 0 0 311.40 88.72
  L 316.06 93.38
  A 0.51 0.51 0.0 0 1 315.73 94.25
  L 312.54 94.44
  A 1.44 1.42 20.0 0 0 311.58 94.88
  Q 310.75 95.75 309.38 95.72
  A 0.98 0.98 0.0 0 0 308.52 96.20
  Q 307.90 97.25 307.08 97.74
  A 0.90 0.88 73.7 0 0 306.64 98.56
  L 306.72 99.87
  A 0.63 0.63 0.0 0 1 306.12 100.54
  L 304.54 100.60
  A 0.83 0.83 0.0 0 1 303.67 99.83
  C 303.61 99.03 303.85 98.24 302.89 97.40
  Q 302.02 96.65 302.04 95.04
  A 0.78 0.77 86.8 0 0 301.17 94.26
  Q 299.10 94.54 296.95 93.93
  A 1.45 1.45 0.0 0 1 296.29 91.55
  L 300.19 87.40
  A 1.50 1.39 -16.3 0 0 300.53 86.83
  Q 301.24 84.52 299.35 81.33
  A 0.34 0.34 0.0 0 1 299.65 80.81
  Z"
/>
<path fill="#fdfdfd" d="
  M 223.46 84.94
  A 0.32 0.32 0.0 0 1 223.73 85.29
  Q 220.78 106.52 218.34 122.69
  A 0.92 0.89 -73.0 0 1 217.06 123.39
  C 215.50 122.62 216.25 119.35 216.55 117.70
  Q 217.00 115.21 223.07 85.19
  A 0.34 0.33 9.8 0 1 223.46 84.93
  L 223.46 84.94
  Z"
/>
<path fill="#fdfdfd" d="
  M 247.22 86.83
  L 247.24 86.83
  A 0.40 0.39 19.7 0 1 247.48 87.33
  Q 236.14 122.01 235.16 124.86
  C 234.50 126.74 233.35 130.58 231.28 130.47
  A 1.09 1.06 -77.5 0 1 230.37 128.98
  Q 237.33 110.78 246.74 87.04
  A 0.39 0.38 20.9 0 1 247.22 86.83
  Z"
/>
<path fill="#fdfdfd" d="
  M 247.21 132.96
  A 0.28 0.28 0.0 0 1 247.10 132.57
  L 247.19 132.43
  A 44.40 1.08 -59.9 0 1 270.39 94.56
  L 270.42 94.58
  A 44.40 1.08 -59.9 0 1 249.09 133.54
  L 249.01 133.68
  A 0.28 0.28 0.0 0 1 248.63 133.78
  L 247.21 132.96
  Z"
/>
<path fill="#fdfdfd" d="
  M 190.27 106.86
  A 0.78 0.78 0.0 0 1 191.40 107.15
  C 195.89 116.03 201.48 123.68 209.34 130.38
  C 218.24 137.97 230.79 141.64 242.54 143.18
  C 257.29 145.11 272.41 147.51 285.05 154.51
  Q 291.25 157.95 298.56 164.74
  Q 310.68 176.00 319.27 192.47
  Q 327.51 208.25 333.33 224.51
  A 0.65 0.65 0.0 0 1 332.41 225.30
  Q 316.21 216.38 299.43 208.85
  C 286.63 203.11 273.42 198.87 260.27 198.76
  C 248.79 198.67 239.49 204.42 229.39 210.38
  Q 213.39 219.83 195.13 219.36
  C 192.26 219.29 188.70 214.49 187.18 212.43
  Q 185.55 210.24 182.74 206.85
  Q 178.50 201.72 174.41 196.63
  Q 169.50 190.52 166.68 187.71
  Q 162.75 183.79 158.05 179.17
  C 155.20 176.36 154.65 174.99 155.46 171.23
  Q 157.99 159.54 161.65 149.37
  C 167.24 133.87 178.33 121.59 189.33 107.83
  Q 189.88 107.14 190.27 106.86
  Z"
/>
<path fill="#fdfdfd" d="
  M 266.22 136.16
  A 0.22 0.22 0.0 0 1 266.19 135.85
  L 266.26 135.77
  A 35.05 0.92 -50.1 0 1 289.45 109.47
  L 289.53 109.53
  A 35.05 0.92 -50.1 0 1 267.75 137.01
  L 267.68 137.09
  A 0.22 0.22 0.0 0 1 267.37 137.12
  L 266.22 136.16
  Z"
/>
<path fill="#fdfdfd" d="
  M 111.34 109.96
  A 0.07 0.07 0.0 0 1 111.39 109.84
  L 112.25 109.79
  A 0.27 0.27 0.0 0 1 112.48 109.89
  L 119.59 118.56
  Q 119.63 118.60 119.66 118.63
  L 129.23 128.73
  A 3.69 3.66 21.9 0 1 130.22 131.02
  L 130.29 132.24
  A 0.40 0.40 0.0 0 1 129.58 132.52
  L 111.34 109.96
  Z"
/>
<path fill="#00843c" d="
  M 48.72 128.97
  A 0.36 0.36 0.0 0 1 49.02 128.37
  Q 51.01 128.53 53.49 128.56
  C 57.42 128.60 58.34 125.74 60.14 122.85
  A 0.67 0.67 0.0 0 1 61.37 123.06
  C 61.81 125.10 62.39 128.94 64.33 130.16
  Q 66.71 131.66 69.42 132.03
  A 0.43 0.43 0.0 0 1 69.57 132.83
  Q 63.38 136.17 62.56 142.85
  A 0.60 0.59 24.1 0 1 61.58 143.22
  L 58.05 140.17
  A 1.96 1.94 55.7 0 0 56.15 139.80
  L 51.99 141.26
  A 1.14 1.13 -88.5 0 1 50.57 139.76
  C 51.72 136.89 52.98 134.07 51.25 131.84
  Q 51.09 131.64 48.72 128.97
  Z"
/>
<path fill="#00843c" d="
  M 339.16 143.37
  A 0.36 0.36 0.0 0 1 338.58 143.18
  L 337.30 137.84
  A 1.18 1.14 13.9 0 0 336.93 137.25
  L 331.44 132.50
  A 0.39 0.39 0.0 0 1 331.67 131.81
  Q 334.53 131.62 337.16 129.71
  A 1.93 1.89 87.3 0 0 337.72 129.08
  Q 339.27 126.27 339.68 123.14
  A 0.69 0.69 0.0 0 1 340.95 122.87
  L 343.27 126.76
  A 3.80 3.79 72.7 0 0 346.77 128.60
  L 351.64 128.31
  A 0.48 0.48 0.0 0 1 352.03 129.10
  Q 350.45 130.96 349.56 132.27
  C 347.92 134.68 349.62 137.61 350.41 139.95
  A 0.85 0.84 -2.5 0 1 349.41 141.04
  L 344.74 139.94
  A 2.16 2.14 -57.5 0 0 342.88 140.36
  L 339.16 143.37
  Z"
/>
<path fill="#fdfdfd" d="
  M 119.18 148.41
  A 0.29 0.29 0.0 0 1 118.77 148.44
  L 118.59 148.29
  A 28.98 0.94 40.5 0 1 97.17 128.76
  L 97.18 128.74
  A 28.98 0.94 40.5 0 1 119.83 146.85
  L 120.00 147.00
  A 0.29 0.29 0.0 0 1 120.03 147.41
  L 119.18 148.41
  Z"
/>
<rect fill="#fdfdfd" x="-11.29" y="-0.70" transform="translate(294.90,136.39) rotate(-40.1)" width="22.58" height="1.40" rx="0.26"/>
<path fill="#fdfdfd" d="
  M 162.63 130.69
  C 161.47 134.95 159.04 139.46 157.27 143.91
  Q 149.14 164.35 146.09 186.65
  Q 145.22 192.98 145.14 198.55
  Q 144.99 209.00 145.16 210.52
  Q 146.32 220.76 146.70 226.32
  C 146.86 228.70 147.59 231.81 148.18 233.45
  A 1.99 1.98 81.9 0 0 149.93 234.77
  Q 152.25 234.91 156.37 234.57
  C 176.35 232.91 186.61 233.40 215.50 233.38
  Q 229.53 233.37 245.02 234.46
  Q 277.48 236.75 310.04 243.00
  Q 343.44 249.40 375.26 260.31
  A 1.31 1.30 16.4 0 1 376.11 261.85
  L 360.81 326.50
  A 1.16 1.15 15.2 0 1 359.34 327.34
  C 343.26 322.28 335.11 319.43 323.03 316.34
  Q 296.62 309.57 269.98 306.05
  Q 255.91 304.19 254.75 303.89
  A 13.62 13.54 52.0 0 0 251.40 303.47
  Q 246.10 303.48 240.69 302.77
  Q 232.47 301.68 229.75 301.83
  C 225.97 302.03 219.28 302.01 215.09 301.91
  Q 200.50 301.58 191.07 301.86
  C 183.33 302.08 175.33 301.60 167.76 302.13
  Q 125.05 305.12 85.47 314.54
  Q 66.13 319.14 42.91 327.19
  Q 40.45 328.04 39.92 325.58
  Q 37.86 316.01 36.07 308.69
  Q 29.36 281.33 24.90 261.39
  A 1.08 1.07 -15.8 0 1 25.61 260.13
  Q 33.81 257.45 50.40 252.72
  Q 79.48 244.43 99.43 241.50
  Q 111.80 239.69 111.84 239.66
  Q 112.74 239.03 118.70 238.55
  C 121.93 238.29 124.62 237.40 127.98 237.23
  Q 133.80 236.94 141.30 235.95
  A 0.53 0.53 0.0 0 0 141.74 235.27
  Q 137.21 219.94 136.36 200.74
  C 135.48 180.86 138.67 161.39 149.94 144.79
  C 153.64 139.35 157.31 134.37 162.19 130.41
  A 0.27 0.27 0.0 0 1 162.63 130.69
  Z
  M 311.0908 252.0580
  A 2.42 2.42 0.0 0 0 309.0985 249.2752
  L 306.3756 248.8245
  A 2.42 2.42 0.0 0 0 303.5928 250.8167
  L 297.0892 290.1020
  A 2.42 2.42 0.0 0 0 299.0815 292.8848
  L 301.8044 293.3355
  A 2.42 2.42 0.0 0 0 304.5872 291.3433
  L 311.0908 252.0580
  Z
  M 174.32 255.21
  L 173.75 252.69
  A 0.98 0.97 82.0 0 0 172.74 251.92
  L 167.19 252.26
  A 1.14 1.14 0.0 0 0 166.12 253.47
  L 167.87 282.24
  A 1.36 1.36 0.0 0 0 169.32 283.52
  L 173.63 283.26
  A 1.37 1.36 85.0 0 0 174.90 281.74
  Q 174.35 277.02 174.42 269.77
  C 174.46 264.64 175.37 258.82 181.40 258.04
  A 2.67 2.63 -38.3 0 1 182.68 258.18
  C 185.90 259.36 186.26 262.74 186.34 265.80
  Q 186.64 276.87 186.35 282.29
  A 1.17 1.17 0.0 0 0 187.58 283.51
  L 193.39 283.15
  A 1.01 1.00 88.2 0 0 194.34 282.13
  Q 194.13 263.51 194.15 262.78
  C 194.43 252.05 182.16 245.80 174.76 255.31
  A 0.25 0.25 0.0 0 1 174.32 255.21
  Z
  M 221.59 254.88
  Q 216.58 249.62 209.71 250.60
  C 198.51 252.20 195.66 264.61 198.36 273.64
  Q 199.68 278.06 204.37 281.61
  C 208.03 284.37 216.31 284.40 219.67 281.14
  A 0.39 0.39 0.0 0 1 220.31 281.29
  Q 220.91 283.14 221.77 283.24
  Q 225.10 283.59 227.82 283.29
  A 0.74 0.74 0.0 0 0 228.48 282.55
  Q 228.44 270.54 228.68 256.25
  Q 228.71 254.39 228.18 251.86
  A 0.75 0.75 0.0 0 0 227.40 251.26
  L 223.02 251.53
  A 0.73 0.73 0.0 0 0 222.33 252.30
  L 222.47 254.50
  A 0.51 0.51 0.0 0 1 221.59 254.88
  Z
  M 145.6316 253.3208
  A 16.75 16.16 -94.0 0 0 130.6794 271.1573
  A 16.75 16.16 -94.0 0 0 147.9684 286.7392
  A 16.75 16.16 -94.0 0 0 162.9206 268.9027
  A 16.75 16.16 -94.0 0 0 145.6316 253.3208
  Z
  M 264.25 260.69
  C 260.87 253.99 251.90 252.17 244.88 253.82
  Q 235.80 255.96 233.98 264.55
  C 232.89 269.69 233.11 275.64 236.22 280.27
  C 239.33 284.90 246.65 286.99 252.19 286.65
  Q 258.08 286.28 262.01 282.22
  A 1.48 1.47 52.6 0 0 262.24 280.49
  Q 261.00 278.24 258.94 277.45
  A 1.80 1.79 -42.4 0 0 257.76 277.40
  Q 255.34 278.10 252.89 278.82
  C 248.32 280.16 242.52 278.51 241.14 273.58
  C 239.26 266.85 242.63 260.55 250.03 260.22
  C 252.83 260.09 255.11 261.74 258.56 263.55
  A 2.18 2.16 -31.2 0 0 259.63 263.81
  Q 260.96 263.80 263.69 262.40
  A 1.28 1.27 -27.0 0 0 264.25 260.69
  Z
  M 276.05 256.39
  L 272.42 256.61
  A 2.62 2.61 -87.8 0 0 269.99 258.87
  Q 268.03 273.25 267.96 273.73
  Q 267.01 280.14 270.03 284.72
  C 275.46 292.97 288.84 293.25 292.78 283.27
  Q 295.25 277.01 296.05 266.76
  Q 296.22 264.52 297.09 262.13
  A 1.75 1.75 0.0 0 0 295.84 259.83
  L 291.69 258.85
  A 1.81 1.81 0.0 0 0 289.50 260.24
  Q 288.19 266.56 287.49 273.76
  C 287.14 277.48 285.13 284.56 280.25 283.32
  C 277.00 282.50 275.41 279.45 275.49 276.22
  Q 275.55 274.14 277.98 258.51
  A 1.84 1.84 0.0 0 0 276.05 256.39
  Z
  M 128.4763 273.0790
  A 14.17 14.17 0.0 0 0 115.0154 258.2337
  L 112.3986 258.1057
  A 14.17 14.17 0.0 0 0 97.5533 271.5666
  L 97.3237 276.2610
  A 14.17 14.17 0.0 0 0 110.7846 291.1063
  L 113.4014 291.2343
  A 14.17 14.17 0.0 0 0 128.2467 277.7734
  L 128.4763 273.0790
  Z
  M 73.77 295.91
  C 78.92 298.64 84.64 298.26 88.98 294.29
  C 95.25 288.54 95.66 280.19 92.26 272.78
  C 87.64 262.71 77.34 262.43 68.84 268.21
  A 0.88 0.87 -54.2 0 1 68.13 268.33
  Q 63.81 267.15 60.26 270.13
  A 1.24 1.22 -26.1 0 0 59.84 271.34
  L 68.27 309.18
  A 3.03 3.03 0.0 0 0 71.54 311.54
  L 73.04 311.39
  A 3.06 3.06 0.0 0 0 75.73 307.68
  L 73.20 296.34
  A 0.39 0.39 0.0 0 1 73.77 295.91
  Z
  M 329.80 297.20
  C 330.07 300.50 333.17 300.64 335.59 300.74
  Q 336.84 300.79 337.26 298.76
  Q 340.69 282.03 342.90 271.82
  A 2.01 2.00 -73.6 0 0 341.65 269.51
  Q 338.65 268.38 334.61 269.41
  A 0.32 0.31 51.0 0 1 334.36 269.38
  L 326.68 265.12
  A 2.87 2.78 60.5 0 0 325.49 264.77
  Q 316.96 264.19 312.37 270.95
  C 305.74 280.71 307.73 293.67 319.53 298.24
  Q 323.14 299.64 326.34 298.05
  Q 329.04 296.71 329.10 296.69
  A 0.57 0.57 0.0 0 1 329.80 297.20
  Z
  M 46.11 280.20
  A 2.63 2.62 24.4 0 1 48.84 279.18
  L 51.45 279.80
  A 2.07 2.03 38.5 0 0 52.81 279.66
  Q 55.63 278.31 56.09 275.50
  A 1.91 1.91 0.0 0 0 54.94 273.42
  Q 50.75 271.69 46.02 272.64
  C 37.19 274.43 35.02 284.94 42.77 289.58
  C 46.52 291.83 51.10 291.31 54.94 294.51
  A 1.68 1.27 39.6 0 1 55.42 296.56
  Q 53.10 299.38 47.27 297.35
  A 3.12 3.12 0.0 0 0 43.21 299.58
  L 42.96 300.60
  A 3.78 3.77 12.0 0 0 45.93 305.17
  Q 51.21 306.18 55.97 304.14
  C 61.22 301.89 62.25 298.03 61.44 292.74
  Q 60.62 287.41 55.48 285.85
  Q 47.75 283.50 46.43 282.90
  A 1.54 1.53 -60.0 0 1 45.82 280.61
  L 46.11 280.20
  Z
  M 352.53 276.58
  Q 352.70 275.87 353.23 275.00
  A 1.48 1.45 -63.7 0 0 352.52 272.85
  C 350.25 271.99 346.74 271.68 346.13 274.93
  Q 345.58 277.92 341.40 295.71
  Q 341.23 296.44 339.66 301.73
  A 1.16 1.16 0.0 0 0 340.50 303.19
  L 345.97 304.48
  A 1.03 1.02 12.5 0 0 347.22 303.69
  Q 348.52 297.41 350.23 290.50
  C 350.90 287.81 354.32 278.18 358.19 280.63
  A 1.02 1.02 0.0 0 0 359.51 280.43
  L 362.36 277.15
  A 1.32 1.32 0.0 0 0 362.06 275.18
  Q 356.52 271.69 353.08 276.82
  A 0.31 0.30 -21.4 0 1 352.53 276.58
  Z"
/>
<rect fill="#fdfdfd" x="-9.42" y="-0.51" transform="translate(313.09,150.61) rotate(-30.7)" width="18.84" height="1.02" rx="0.49"/>
<path fill="#fdfdfd" d="
  M 110.99 164.92
  A 0.15 0.15 0.0 0 1 110.79 164.97
  L 110.63 164.88
  A 35.89 0.88 30.3 0 1 80.09 146.01
  L 80.10 145.99
  A 35.89 0.88 30.3 0 1 111.53 163.34
  L 111.69 163.43
  A 0.15 0.15 0.0 0 1 111.74 163.64
  L 110.99 164.92
  Z"
/>
<path fill="#fdfdfd" d="
  M 320.01 171.71
  A 0.15 0.15 0.0 0 1 320.10 171.52
  L 320.31 171.44
  A 9.53 0.29 -18.9 0 1 329.42 168.63
  L 329.49 168.82
  A 9.53 0.29 -18.9 0 1 320.56 172.18
  L 320.36 172.25
  A 0.15 0.15 0.0 0 1 320.16 172.16
  L 320.01 171.71
  Z"
/>
<path fill="#fdfdfd" d="
  M 72.13 168.86
  L 72.13 168.86
  A 0.31 0.30 -70.2 0 1 72.50 168.67
  Q 98.91 177.38 101.09 178.14
  C 102.52 178.64 105.44 179.52 105.35 181.10
  A 0.83 0.81 12.7 0 1 104.21 181.79
  Q 90.36 176.45 72.29 169.23
  A 0.29 0.29 0.0 0 1 72.13 168.86
  Z"
/>
<path fill="#00843c" d="
  M 48.39 181.86
  A 0.60 0.60 0.0 0 1 48.87 182.79
  C 46.36 186.55 44.27 190.18 47.32 194.16
  A 0.84 0.83 82.5 0 1 46.34 195.44
  C 45.89 195.26 45.35 194.43 44.47 194.40
  Q 41.81 194.33 40.74 193.03
  A 0.60 0.59 -38.9 0 0 39.90 192.95
  L 34.40 197.40
  A 0.55 0.55 0.0 0 1 33.51 197.00
  L 33.17 191.38
  A 3.61 3.57 -69.6 0 0 32.13 189.08
  L 29.18 186.12
  A 0.58 0.58 0.0 0 1 29.29 185.21
  L 34.86 181.88
  A 2.14 2.10 -6.3 0 0 35.78 180.75
  L 36.84 177.72
  A 1.08 1.07 -54.8 0 1 38.69 177.40
  L 41.55 180.94
  A 1.92 1.88 71.1 0 0 42.96 181.65
  L 48.39 181.86
  Z"
/>
<path fill="#00843c" d="
  M 363.37 176.85
  Q 364.06 176.95 364.23 177.65
  Q 364.85 180.21 365.90 181.81
  A 2.30 2.27 84.9 0 0 366.88 182.64
  L 371.87 184.84
  A 0.67 0.67 0.0 0 1 372.07 185.93
  L 368.85 189.15
  A 4.99 4.95 -24.4 0 0 367.41 192.94
  L 367.64 196.69
  A 0.62 0.61 20.8 0 1 366.59 197.16
  L 365.56 196.13
  A 1.06 1.02 -10.6 0 0 365.21 195.90
  Q 362.91 194.90 361.28 193.02
  Q 361.24 192.97 361.05 192.94
  Q 360.85 192.92 360.81 192.95
  Q 358.71 194.30 356.22 194.61
  A 1.06 1.02 27.0 0 0 355.82 194.73
  L 354.54 195.42
  A 0.62 0.61 -4.4 0 1 353.67 194.68
  L 354.95 191.14
  A 4.99 4.95 40.8 0 0 354.64 187.10
  L 352.46 183.10
  A 0.67 0.67 0.0 0 1 352.96 182.11
  L 358.36 181.41
  A 2.30 2.27 -68.5 0 0 359.54 180.89
  Q 361.00 179.66 362.31 177.38
  Q 362.68 176.75 363.37 176.85
  Z"
/>
<ellipse fill="#fdfdfd" cx="0.00" cy="0.00" transform="translate(66.53,191.88) rotate(-171.4)" rx="1.58" ry="0.43"/>
<ellipse fill="#fdfdfd" cx="0.00" cy="0.00" transform="translate(334.71,191.82) rotate(-5.6)" rx="1.17" ry="0.58"/>
<rect fill="#fdfdfd" x="-14.98" y="-0.84" transform="translate(87.05,195.62) rotate(9.8)" width="29.96" height="1.68" rx="0.82"/>
<rect fill="#fdfdfd" x="-18.65" y="-0.77" transform="translate(81.97,215.43) rotate(0.1)" width="37.30" height="1.54" rx="0.75"/>
<path fill="#fdfdfd" d="
  M 102.43 233.69
  A 0.44 0.44 0.0 0 1 102.07 234.20
  L 101.93 234.23
  A 28.03 1.08 -10.0 0 1 74.13 238.03
  L 74.10 237.84
  A 28.03 1.08 -10.0 0 1 101.52 231.91
  L 101.66 231.88
  A 0.44 0.44 0.0 0 1 102.17 232.24
  L 102.43 233.69
  Z"
/>
<path fill="#fdfdfd" d="
  M 73.09 237.96
  Q 73.17 238.36 68.71 239.36
  Q 67.68 239.60 67.57 239.06
  Q 67.46 238.51 68.51 238.33
  Q 73.02 237.56 73.09 237.96
  Z"
/>
<rect fill="#00843c" x="-3.80" y="-22.33" transform="translate(304.09,271.08) rotate(9.4)" width="7.60" height="44.66" rx="2.42"/>
<path fill="#fdfdfd" d="
  M 47.92 249.25
  A 0.20 0.20 0.0 0 1 47.94 249.63
  L 41.80 251.77
  A 0.64 0.63 86.3 0 1 40.97 251.04
  L 41.08 250.56
  A 1.79 1.79 0.0 0 1 42.52 249.17
  Q 45.57 248.64 47.92 249.25
  Z"
/>
<path fill="#fdfdfd" d="
  M 353.18 249.33
  Q 355.50 248.68 358.53 249.16
  A 1.77 1.77 0.0 0 1 359.98 250.51
  L 360.10 250.98
  A 0.63 0.63 0.0 0 1 359.29 251.72
  L 353.17 249.71
  A 0.20 0.20 0.0 0 1 353.18 249.33
  Z"
/>
<path fill="#00843c" d="
  M 174.32 255.21
  A 0.25 0.25 0.0 0 0 174.76 255.31
  C 182.16 245.80 194.43 252.05 194.15 262.78
  Q 194.13 263.51 194.34 282.13
  A 1.01 1.00 88.2 0 1 193.39 283.15
  L 187.58 283.51
  A 1.17 1.17 0.0 0 1 186.35 282.29
  Q 186.64 276.87 186.34 265.80
  C 186.26 262.74 185.90 259.36 182.68 258.18
  A 2.67 2.63 -38.3 0 0 181.40 258.04
  C 175.37 258.82 174.46 264.64 174.42 269.77
  Q 174.35 277.02 174.90 281.74
  A 1.37 1.36 85.0 0 1 173.63 283.26
  L 169.32 283.52
  A 1.36 1.36 0.0 0 1 167.87 282.24
  L 166.12 253.47
  A 1.14 1.14 0.0 0 1 167.19 252.26
  L 172.74 251.92
  A 0.98 0.97 82.0 0 1 173.75 252.69
  L 174.32 255.21
  Z"
/>
<path fill="#00843c" d="
  M 221.59 254.88
  A 0.51 0.51 0.0 0 0 222.47 254.50
  L 222.33 252.30
  A 0.73 0.73 0.0 0 1 223.02 251.53
  L 227.40 251.26
  A 0.75 0.75 0.0 0 1 228.18 251.86
  Q 228.71 254.39 228.68 256.25
  Q 228.44 270.54 228.48 282.55
  A 0.74 0.74 0.0 0 1 227.82 283.29
  Q 225.10 283.59 221.77 283.24
  Q 220.91 283.14 220.31 281.29
  A 0.39 0.39 0.0 0 0 219.67 281.14
  C 216.31 284.40 208.03 284.37 204.37 281.61
  Q 199.68 278.06 198.36 273.64
  C 195.66 264.61 198.51 252.20 209.71 250.60
  Q 216.58 249.62 221.59 254.88
  Z
  M 212.1265 257.8674
  A 9.55 8.61 -97.3 0 0 204.7998 268.4340
  A 9.55 8.61 -97.3 0 0 214.5535 276.8126
  A 9.55 8.61 -97.3 0 0 221.8802 266.2460
  A 9.55 8.61 -97.3 0 0 212.1265 257.8674
  Z"
/>
<path fill="#00843c" d="
  M 145.6316 253.3208
  A 16.75 16.16 -94.0 0 1 162.9206 268.9027
  A 16.75 16.16 -94.0 0 1 147.9684 286.7392
  A 16.75 16.16 -94.0 0 1 130.6794 271.1573
  A 16.75 16.16 -94.0 0 1 145.6316 253.3208
  Z
  M 146.0953 260.7095
  A 9.37 8.81 -93.7 0 0 137.9084 270.6285
  A 9.37 8.81 -93.7 0 0 147.3047 279.4105
  A 9.37 8.81 -93.7 0 0 155.4916 269.4915
  A 9.37 8.81 -93.7 0 0 146.0953 260.7095
  Z"
/>
<path fill="#00843c" d="
  M 264.25 260.69
  A 1.28 1.27 -27.0 0 1 263.69 262.40
  Q 260.96 263.80 259.63 263.81
  A 2.18 2.16 -31.2 0 1 258.56 263.55
  C 255.11 261.74 252.83 260.09 250.03 260.22
  C 242.63 260.55 239.26 266.85 241.14 273.58
  C 242.52 278.51 248.32 280.16 252.89 278.82
  Q 255.34 278.10 257.76 277.40
  A 1.80 1.79 -42.4 0 1 258.94 277.45
  Q 261.00 278.24 262.24 280.49
  A 1.48 1.47 52.6 0 1 262.01 282.22
  Q 258.08 286.28 252.19 286.65
  C 246.65 286.99 239.33 284.90 236.22 280.27
  C 233.11 275.64 232.89 269.69 233.98 264.55
  Q 235.80 255.96 244.88 253.82
  C 251.90 252.17 260.87 253.99 264.25 260.69
  Z"
/>
<path fill="#00843c" d="
  M 276.05 256.39
  A 1.84 1.84 0.0 0 1 277.98 258.51
  Q 275.55 274.14 275.49 276.22
  C 275.41 279.45 277.00 282.50 280.25 283.32
  C 285.13 284.56 287.14 277.48 287.49 273.76
  Q 288.19 266.56 289.50 260.24
  A 1.81 1.81 0.0 0 1 291.69 258.85
  L 295.84 259.83
  A 1.75 1.75 0.0 0 1 297.09 262.13
  Q 296.22 264.52 296.05 266.76
  Q 295.25 277.01 292.78 283.27
  C 288.84 293.25 275.46 292.97 270.03 284.72
  Q 267.01 280.14 267.96 273.73
  Q 268.03 273.25 269.99 258.87
  A 2.62 2.61 -87.8 0 1 272.42 256.61
  L 276.05 256.39
  Z"
/>
<path fill="#00843c" d="
  M 128.2467 277.7734
  A 14.17 14.17 0.0 0 1 113.4014 291.2343
  L 110.7846 291.1063
  A 14.17 14.17 0.0 0 1 97.3237 276.2610
  L 97.5533 271.5666
  A 14.17 14.17 0.0 0 1 112.3986 258.1057
  L 115.0154 258.2337
  A 14.17 14.17 0.0 0 1 128.4763 273.0790
  L 128.2467 277.7734
  Z
  M 112.7855 265.1907
  A 9.37 8.42 -90.7 0 0 104.4806 274.6629
  A 9.37 8.42 -90.7 0 0 113.0145 283.9293
  A 9.37 8.42 -90.7 0 0 121.3194 274.4571
  A 9.37 8.42 -90.7 0 0 112.7855 265.1907
  Z"
/>
<ellipse fill="#fdfdfd" cx="0.00" cy="0.00" transform="translate(213.34,267.34) rotate(-97.3)" rx="9.55" ry="8.61"/>
<ellipse fill="#fdfdfd" cx="0.00" cy="0.00" transform="translate(146.70,270.06) rotate(-93.7)" rx="9.37" ry="8.81"/>
<path fill="#00843c" d="
  M 73.77 295.91
  A 0.39 0.39 0.0 0 0 73.20 296.34
  L 75.73 307.68
  A 3.06 3.06 0.0 0 1 73.04 311.39
  L 71.54 311.54
  A 3.03 3.03 0.0 0 1 68.27 309.18
  L 59.84 271.34
  A 1.24 1.22 -26.1 0 1 60.26 270.13
  Q 63.81 267.15 68.13 268.33
  A 0.88 0.87 -54.2 0 0 68.84 268.21
  C 77.34 262.43 87.64 262.71 92.26 272.78
  C 95.66 280.19 95.25 288.54 88.98 294.29
  C 84.64 298.26 78.92 298.64 73.77 295.91
  Z
  M 77.6418 271.9930
  A 9.52 8.61 -93.0 0 0 69.5418 281.9506
  A 9.52 8.61 -93.0 0 0 78.6382 291.0070
  A 9.52 8.61 -93.0 0 0 86.7382 281.0494
  A 9.52 8.61 -93.0 0 0 77.6418 271.9930
  Z"
/>
<path fill="#00843c" d="
  M 329.10 296.69
  Q 329.04 296.71 326.34 298.05
  Q 323.14 299.64 319.53 298.24
  C 307.73 293.67 305.74 280.71 312.37 270.95
  Q 316.96 264.19 325.49 264.77
  A 2.87 2.78 60.5 0 1 326.68 265.12
  L 334.36 269.38
  A 0.32 0.31 51.0 0 0 334.61 269.41
  Q 338.65 268.38 341.65 269.51
  A 2.01 2.00 -73.6 0 1 342.90 271.82
  Q 340.69 282.03 337.26 298.76
  Q 336.84 300.79 335.59 300.74
  C 333.17 300.64 330.07 300.50 329.80 297.20
  A 0.57 0.57 0.0 0 0 329.10 296.69
  Z
  M 326.2374 272.5664
  A 9.54 8.63 -80.3 0 0 316.1234 280.5159
  A 9.54 8.63 -80.3 0 0 323.0226 291.3736
  A 9.54 8.63 -80.3 0 0 333.1366 283.4241
  A 9.54 8.63 -80.3 0 0 326.2374 272.5664
  Z"
/>
<ellipse fill="#fdfdfd" cx="0.00" cy="0.00" transform="translate(112.90,274.56) rotate(-90.7)" rx="9.37" ry="8.42"/>
<path fill="#00843c" d="
  M 46.11 280.20
  L 45.82 280.61
  A 1.54 1.53 -60.0 0 0 46.43 282.90
  Q 47.75 283.50 55.48 285.85
  Q 60.62 287.41 61.44 292.74
  C 62.25 298.03 61.22 301.89 55.97 304.14
  Q 51.21 306.18 45.93 305.17
  A 3.78 3.77 12.0 0 1 42.96 300.60
  L 43.21 299.58
  A 3.12 3.12 0.0 0 1 47.27 297.35
  Q 53.10 299.38 55.42 296.56
  A 1.68 1.27 39.6 0 0 54.94 294.51
  C 51.10 291.31 46.52 291.83 42.77 289.58
  C 35.02 284.94 37.19 274.43 46.02 272.64
  Q 50.75 271.69 54.94 273.42
  A 1.91 1.91 0.0 0 1 56.09 275.50
  Q 55.63 278.31 52.81 279.66
  A 2.07 2.03 38.5 0 1 51.45 279.80
  L 48.84 279.18
  A 2.63 2.62 24.4 0 0 46.11 280.20
  Z"
/>
<ellipse fill="#fdfdfd" cx="0.00" cy="0.00" transform="translate(78.14,281.50) rotate(-93.0)" rx="9.52" ry="8.61"/>
<ellipse fill="#fdfdfd" cx="0.00" cy="0.00" transform="translate(324.63,281.97) rotate(-80.3)" rx="9.54" ry="8.63"/>
<path fill="#00843c" d="
  M 352.53 276.58
  A 0.31 0.30 -21.4 0 0 353.08 276.82
  Q 356.52 271.69 362.06 275.18
  A 1.32 1.32 0.0 0 1 362.36 277.15
  L 359.51 280.43
  A 1.02 1.02 0.0 0 1 358.19 280.63
  C 354.32 278.18 350.90 287.81 350.23 290.50
  Q 348.52 297.41 347.22 303.69
  A 1.03 1.02 12.5 0 1 345.97 304.48
  L 340.50 303.19
  A 1.16 1.16 0.0 0 1 339.66 301.73
  Q 341.23 296.44 341.40 295.71
  Q 345.58 277.92 346.13 274.93
  C 346.74 271.68 350.25 271.99 352.52 272.85
  A 1.48 1.45 -63.7 0 1 353.23 275.00
  Q 352.70 275.87 352.53 276.58
  Z"
/>
<path fill="#fdfdfd" d="
  M 24.62 362.59
  A 0.50 0.50 0.0 0 1 23.97 362.03
  Q 26.90 346.25 29.34 331.35
  C 29.97 327.54 30.75 322.70 28.01 319.49
  Q 17.53 307.21 11.12 300.72
  Q 9.15 298.72 7.77 295.75
  A 0.66 0.65 68.4 0 1 8.15 294.86
  L 26.48 288.45
  A 1.02 1.01 -16.2 0 1 27.80 289.17
  L 38.23 332.39
  A 0.58 0.57 73.8 0 0 38.97 332.80
  L 51.10 328.56
  A 1.99 1.99 0.0 0 1 53.30 329.19
  L 65.19 343.89
  A 0.85 0.85 0.0 0 1 64.87 345.20
  Q 50.73 351.34 32.02 359.77
  Q 28.53 361.34 24.62 362.59
  Z"
/>
<path fill="#fdfdfd" d="
  M 377.02 362.41
  A 0.51 0.51 0.0 0 1 376.31 362.83
  L 336.68 345.31
  A 1.12 1.11 -64.2 0 1 336.15 343.77
  Q 337.24 341.70 337.82 341.07
  Q 343.36 335.04 347.89 329.25
  A 2.07 2.06 -61.4 0 1 350.19 328.57
  L 361.98 332.70
  A 0.66 0.65 23.3 0 0 362.77 332.39
  Q 364.11 329.92 364.53 327.76
  Q 366.87 315.71 373.04 291.80
  Q 373.48 290.08 374.29 288.89
  A 0.67 0.66 26.2 0 1 375.05 288.64
  L 392.58 294.77
  A 0.85 0.85 0.0 0 1 393.06 295.95
  Q 391.54 298.97 389.31 301.32
  Q 381.18 309.84 373.67 318.67
  C 370.09 322.89 370.94 326.19 371.89 332.61
  Q 373.70 344.76 376.94 361.29
  Q 377.06 361.88 377.02 362.41
  Z"
/>
<path fill="#fdfdfd" d="
  M 223.56 346.92
  A 0.35 0.35 0.0 0 1 223.16 346.66
  Q 218.43 323.73 215.04 306.20
  A 1.00 0.97 87.4 0 1 216.10 305.00
  C 217.98 305.23 218.41 308.87 218.70 310.67
  Q 219.14 313.40 223.88 346.52
  A 0.37 0.36 -9.7 0 1 223.57 346.93
  L 223.56 346.92
  Z"
/>
<path fill="#fdfdfd" d="
  M 154.11 342.91
  L 154.10 342.91
  A 0.35 0.33 20.1 0 1 153.89 342.48
  Q 163.89 312.56 164.76 310.10
  C 165.34 308.48 166.35 305.17 168.14 305.28
  A 0.95 0.92 -77.1 0 1 168.92 306.57
  Q 162.80 322.26 154.53 342.73
  A 0.33 0.33 0.0 0 1 154.11 342.91
  Z"
/>
<path fill="#fdfdfd" d="
  M 177.34 346.63
  L 177.33 346.63
  A 0.37 0.35 10.0 0 1 177.03 346.23
  Q 181.91 313.40 182.36 310.69
  C 182.67 308.91 183.11 305.29 184.98 305.08
  A 1.00 0.96 -87.1 0 1 186.02 306.27
  Q 182.56 323.65 177.74 346.37
  A 0.35 0.34 11.3 0 1 177.34 346.63
  Z"
/>
<path fill="#fdfdfd" d="
  M 201.49 305.37
  A 0.52 0.52 0.0 0 1 202.01 305.90
  L 201.95 311.22
  A 26.74 1.28 -89.4 0 1 200.39 337.94
  L 200.15 337.94
  A 26.74 1.28 -89.4 0 1 199.15 311.19
  L 199.21 305.87
  A 0.52 0.52 0.0 0 1 199.73 305.35
  L 201.49 305.37
  Z"
/>
<path fill="#fdfdfd" d="
  M 246.94 343.25
  A 0.33 0.33 0.0 0 1 246.52 343.07
  Q 238.25 322.46 232.13 306.66
  A 0.95 0.92 77.2 0 1 232.92 305.36
  C 234.72 305.25 235.73 308.59 236.31 310.22
  Q 237.18 312.69 247.16 342.82
  A 0.35 0.34 -19.9 0 1 246.95 343.25
  L 246.94 343.25
  Z"
/>
<path fill="#fdfdfd" d="
  M 130.95 335.51
  C 131.86 333.28 133.27 331.60 134.69 328.59
  Q 138.84 319.84 145.41 309.43
  Q 146.03 308.44 147.80 307.21
  A 0.44 0.44 0.0 0 1 148.48 307.48
  Q 148.53 307.73 146.82 310.59
  Q 134.76 330.78 131.23 335.67
  A 0.16 0.16 0.0 0 1 130.95 335.51
  Z"
/>
<path fill="#fdfdfd" d="
  M 271.67 339.13
  Q 271.62 339.13 271.57 339.11
  A 0.44 0.30 8.3 0 1 271.41 338.96
  L 252.77 307.78
  A 0.32 0.32 0.0 0 1 253.25 307.37
  Q 255.57 309.22 257.21 312.04
  Q 262.59 321.27 268.49 332.98
  C 269.48 334.94 271.36 337.15 271.78 338.83
  A 0.24 0.14 79.8 0 1 271.67 339.13
  Z"
/>
<ellipse fill="#fdfdfd" cx="0.00" cy="0.00" transform="translate(117.13,315.14) rotate(-44.6)" rx="5.23" ry="0.54"/>
<ellipse fill="#fdfdfd" cx="0.00" cy="0.00" transform="translate(284.00,315.29) rotate(-135.3)" rx="5.21" ry="0.56"/>
<path fill="#fdfdfd" d="
  M 200.51 364.60
  Q 200.56 364.60 202.50 364.61
  C 236.65 364.79 269.98 352.10 296.01 330.25
  Q 302.17 325.08 307.57 319.07
  Q 309.72 316.66 313.03 317.47
  Q 330.79 321.77 344.09 325.99
  A 0.88 0.88 0.0 0 1 344.48 327.41
  C 339.43 333.24 335.81 337.89 330.20 343.54
  Q 295.47 378.56 247.43 391.62
  C 232.31 395.74 216.42 397.56 200.51 397.56
  C 184.61 397.56 168.72 395.74 153.59 391.63
  Q 105.56 378.56 70.83 343.54
  C 65.22 337.89 61.60 333.24 56.55 327.42
  A 0.88 0.88 0.0 0 1 56.94 326.00
  Q 70.24 321.77 88.00 317.47
  Q 91.31 316.66 93.46 319.07
  Q 98.86 325.08 105.02 330.25
  C 131.05 352.10 164.38 364.79 198.53 364.61
  Q 200.47 364.60 200.51 364.60
  Z
  M 295.04 338.66
  Q 295.23 338.81 298.92 341.71
  C 301.54 343.79 300.74 346.93 299.54 349.65
  A 0.62 0.62 0.0 0 0 299.94 350.50
  Q 300.59 350.69 301.08 350.32
  Q 302.67 349.12 306.32 347.28
  A 1.12 1.12 0.0 0 1 307.63 347.51
  Q 309.28 349.23 312.21 349.24
  A 0.72 0.71 -84.3 0 0 312.92 348.65
  Q 313.32 346.38 311.82 344.60
  A 1.63 1.62 38.6 0 1 311.62 342.83
  Q 313.15 339.81 316.08 337.46
  A 0.68 0.68 0.0 0 0 315.61 336.25
  L 309.58 336.62
  A 0.85 0.85 0.0 0 1 308.72 336.03
  Q 307.71 332.88 304.78 330.35
  A 0.75 0.74 18.6 0 0 303.55 330.96
  L 303.70 333.51
  A 1.43 1.40 -22.9 0 1 303.22 334.65
  Q 299.62 337.82 295.20 338.15
  A 0.29 0.29 0.0 0 0 295.04 338.66
  Z
  M 84.95 337.29
  C 86.51 338.91 88.66 340.69 89.48 343.33
  A 1.03 1.02 56.4 0 1 89.29 344.30
  Q 87.67 346.27 88.03 348.68
  A 0.67 0.66 -5.0 0 0 88.70 349.24
  Q 91.51 349.20 93.24 347.68
  A 1.68 1.68 0.0 0 1 95.19 347.48
  L 100.31 350.44
  A 0.82 0.82 0.0 0 0 101.41 349.29
  Q 100.08 347.26 100.46 343.92
  A 1.87 1.80 70.4 0 1 100.92 342.90
  Q 102.96 340.62 105.75 339.05
  A 0.41 0.41 0.0 0 0 105.59 338.28
  Q 101.57 337.88 98.09 334.75
  A 1.46 1.45 -75.2 0 1 97.65 333.99
  L 97.05 331.29
  A 0.82 0.82 0.0 0 0 95.68 330.88
  Q 93.59 332.91 92.36 335.40
  A 1.55 1.55 0.0 0 1 91.05 336.27
  L 85.21 336.63
  A 0.39 0.39 0.0 0 0 84.95 337.29
  Z
  M 153.33 376.09
  L 151.09 371.38
  A 3.31 3.31 0.0 0 1 151.21 368.30
  L 153.57 364.21
  A 0.70 0.70 0.0 0 0 153.16 363.19
  C 151.34 362.66 148.52 363.32 146.73 363.71
  A 1.12 1.10 64.3 0 1 145.64 363.32
  L 142.43 359.36
  A 0.53 0.52 -54.1 0 0 141.53 359.51
  L 139.57 364.76
  A 1.20 1.18 74.3 0 1 139.36 365.14
  Q 137.65 367.25 135.24 368.07
  A 1.29 1.28 -39.4 0 0 135.01 370.40
  L 138.87 372.63
  A 1.16 1.16 0.0 0 1 139.45 373.56
  L 139.78 378.99
  A 0.57 0.57 0.0 0 0 140.66 379.44
  Q 142.04 378.56 144.38 376.90
  Q 148.11 374.26 152.33 376.97
  A 0.69 0.69 0.0 0 0 153.33 376.09
  Z
  M 248.36 376.96
  C 250.59 376.04 252.08 374.80 255.09 376.21
  Q 256.66 376.94 260.31 379.60
  A 0.55 0.55 0.0 0 0 261.18 379.19
  L 261.50 374.21
  A 1.55 1.54 72.4 0 1 262.08 373.09
  L 266.15 369.80
  A 0.97 0.97 0.0 0 0 265.81 368.12
  C 261.80 366.95 260.52 363.39 259.54 359.54
  A 0.74 0.74 0.0 0 0 258.19 359.35
  L 255.99 363.16
  A 1.32 1.31 21.7 0 1 254.54 363.78
  Q 250.85 362.87 248.29 363.22
  A 0.93 0.93 0.0 0 0 247.62 364.62
  L 249.96 368.53
  A 1.61 1.58 34.4 0 1 250.17 369.60
  Q 249.72 372.46 247.60 376.09
  A 0.61 0.61 0.0 0 0 248.36 376.96
  Z
  M 200.50 389.66
  Q 200.95 389.66 201.31 389.40
  A 0.86 0.85 82.1 0 0 201.63 388.97
  Q 203.88 382.31 211.03 383.44
  A 0.54 0.54 0.0 0 0 211.49 382.53
  L 207.13 378.17
  A 0.88 0.85 -69.8 0 1 206.88 377.61
  L 206.52 371.66
  A 1.03 1.02 69.7 0 0 204.88 370.90
  Q 202.70 372.56 200.52 372.55
  Q 198.35 372.55 196.17 370.89
  A 1.03 1.02 -69.5 0 0 194.53 371.64
  L 194.16 377.59
  A 0.88 0.85 69.9 0 1 193.90 378.15
  L 189.53 382.50
  A 0.54 0.54 0.0 0 0 189.99 383.41
  Q 197.14 382.30 199.37 388.97
  A 0.86 0.85 -82.0 0 0 199.69 389.40
  Q 200.06 389.66 200.50 389.66
  Z"
/>
<path fill="#00843c" d="
  M 295.04 338.66
  A 0.29 0.29 0.0 0 1 295.20 338.15
  Q 299.62 337.82 303.22 334.65
  A 1.43 1.40 -22.9 0 0 303.70 333.51
  L 303.55 330.96
  A 0.75 0.74 18.6 0 1 304.78 330.35
  Q 307.71 332.88 308.72 336.03
  A 0.85 0.85 0.0 0 0 309.58 336.62
  L 315.61 336.25
  A 0.68 0.68 0.0 0 1 316.08 337.46
  Q 313.15 339.81 311.62 342.83
  A 1.63 1.62 38.6 0 0 311.82 344.60
  Q 313.32 346.38 312.92 348.65
  A 0.72 0.71 -84.3 0 1 312.21 349.24
  Q 309.28 349.23 307.63 347.51
  A 1.12 1.12 0.0 0 0 306.32 347.28
  Q 302.67 349.12 301.08 350.32
  Q 300.59 350.69 299.94 350.50
  A 0.62 0.62 0.0 0 1 299.54 349.65
  C 300.74 346.93 301.54 343.79 298.92 341.71
  Q 295.23 338.81 295.04 338.66
  Z"
/>
<path fill="#00843c" d="
  M 85.21 336.63
  L 91.05 336.27
  A 1.55 1.55 0.0 0 0 92.36 335.40
  Q 93.59 332.91 95.68 330.88
  A 0.82 0.82 0.0 0 1 97.05 331.29
  L 97.65 333.99
  A 1.46 1.45 -75.2 0 0 98.09 334.75
  Q 101.57 337.88 105.59 338.28
  A 0.41 0.41 0.0 0 1 105.75 339.05
  Q 102.96 340.62 100.92 342.90
  A 1.87 1.80 70.4 0 0 100.46 343.92
  Q 100.08 347.26 101.41 349.29
  A 0.82 0.82 0.0 0 1 100.31 350.44
  L 95.19 347.48
  A 1.68 1.68 0.0 0 0 93.24 347.68
  Q 91.51 349.20 88.70 349.24
  A 0.67 0.66 -5.0 0 1 88.03 348.68
  Q 87.67 346.27 89.29 344.30
  A 1.03 1.02 56.4 0 0 89.48 343.33
  C 88.66 340.69 86.51 338.91 84.95 337.29
  A 0.39 0.39 0.0 0 1 85.21 336.63
  Z"
/>
<ellipse fill="#fdfdfd" cx="0.00" cy="0.00" transform="translate(129.73,338.34) rotate(-63.6)" rx="0.91" ry="0.24"/>
<ellipse fill="#fdfdfd" cx="0.00" cy="0.00" transform="translate(248.01,346.15) rotate(-112.0)" rx="1.04" ry="0.29"/>
<path fill="#fdfdfd" d="
  M 153.41 345.87
  Q 153.29 346.92 153.07 347.13
  A 0.47 0.46 69.0 0 1 152.29 346.78
  Q 152.30 346.43 152.99 345.68
  A 0.24 0.24 0.0 0 1 153.41 345.87
  Z"
/>
<ellipse fill="#fdfdfd" cx="0.00" cy="0.00" transform="translate(176.45,352.48) rotate(-75.6)" rx="0.99" ry="0.34"/>
<ellipse fill="#fdfdfd" cx="0.00" cy="0.00" transform="translate(224.61,352.68) rotate(-105.7)" rx="0.97" ry="0.29"/>
<path fill="#00843c" d="
  M 153.33 376.09
  A 0.69 0.69 0.0 0 1 152.33 376.97
  Q 148.11 374.26 144.38 376.90
  Q 142.04 378.56 140.66 379.44
  A 0.57 0.57 0.0 0 1 139.78 378.99
  L 139.45 373.56
  A 1.16 1.16 0.0 0 0 138.87 372.63
  L 135.01 370.40
  A 1.29 1.28 -39.4 0 1 135.24 368.07
  Q 137.65 367.25 139.36 365.14
  A 1.20 1.18 74.3 0 0 139.57 364.76
  L 141.53 359.51
  A 0.53 0.52 -54.1 0 1 142.43 359.36
  L 145.64 363.32
  A 1.12 1.10 64.3 0 0 146.73 363.71
  C 148.52 363.32 151.34 362.66 153.16 363.19
  A 0.70 0.70 0.0 0 1 153.57 364.21
  L 151.21 368.30
  A 3.31 3.31 0.0 0 0 151.09 371.38
  L 153.33 376.09
  Z"
/>
<path fill="#00843c" d="
  M 248.36 376.96
  A 0.61 0.61 0.0 0 1 247.60 376.09
  Q 249.72 372.46 250.17 369.60
  A 1.61 1.58 34.4 0 0 249.96 368.53
  L 247.62 364.62
  A 0.93 0.93 0.0 0 1 248.29 363.22
  Q 250.85 362.87 254.54 363.78
  A 1.32 1.31 21.7 0 0 255.99 363.16
  L 258.19 359.35
  A 0.74 0.74 0.0 0 1 259.54 359.54
  C 260.52 363.39 261.80 366.95 265.81 368.12
  A 0.97 0.97 0.0 0 1 266.15 369.80
  L 262.08 373.09
  A 1.55 1.54 72.4 0 0 261.50 374.21
  L 261.18 379.19
  A 0.55 0.55 0.0 0 1 260.31 379.60
  Q 256.66 376.94 255.09 376.21
  C 252.08 374.80 250.59 376.04 248.36 376.96
  Z"
/>
<path fill="#00843c" d="
  M 200.52 372.55
  Q 202.70 372.56 204.88 370.90
  A 1.03 1.02 69.7 0 1 206.52 371.66
  L 206.88 377.61
  A 0.88 0.85 -69.8 0 0 207.13 378.17
  L 211.49 382.53
  A 0.54 0.54 0.0 0 1 211.03 383.44
  Q 203.88 382.31 201.63 388.97
  A 0.86 0.85 82.1 0 1 201.31 389.40
  Q 200.95 389.66 200.50 389.66
  Q 200.06 389.66 199.69 389.40
  A 0.86 0.85 -82.0 0 1 199.37 388.97
  Q 197.14 382.30 189.99 383.41
  A 0.54 0.54 0.0 0 1 189.53 382.50
  L 193.90 378.15
  A 0.88 0.85 69.9 0 0 194.16 377.59
  L 194.53 371.64
  A 1.03 1.02 -69.5 0 1 196.17 370.89
  Q 198.35 372.55 200.52 372.55
  Z"
/>
</svg>
