<svg width="128" height="128" viewBox="0 0 128 128" fill="none" xmlns="http://www.w3.org/2000/svg">
<g clip-path="url(#clip0_392_415)">
<path d="M64 0C28.671 0 0 28.671 0 64C0 99.329 28.671 128 64 128C99.329 128 128 99.329 128 64C128 28.671 99.329 0 64 0Z" fill="#1ED760"/>
<path d="M103.161 58.1806C101.819 58.1806 100.994 57.8452 99.8323 57.1742C81.4581 46.2065 48.6065 43.5742 27.3419 49.5097C26.4129 49.7677 25.2516 50.1806 24.0129 50.1806C20.6065 50.1806 18 47.5226 18 44.0903C18 40.5806 20.1677 38.5936 22.4903 37.9226C31.5742 35.2645 41.7419 34 52.8129 34C71.6516 34 91.3935 37.9226 105.819 46.3355C107.832 47.4968 109.148 49.0968 109.148 52.1677C109.148 55.6774 106.31 58.1806 103.161 58.1806ZM95.1613 77.8452C93.8194 77.8452 92.9161 77.2516 91.9871 76.7613C75.8581 67.2129 51.8065 63.3677 30.4129 69.1742C29.1742 69.5097 28.5032 69.8452 27.3419 69.8452C24.5806 69.8452 22.3355 67.6 22.3355 64.8387C22.3355 62.0774 23.6774 60.2452 26.3355 59.4968C33.5097 57.4839 40.8387 55.9871 51.5742 55.9871C68.3226 55.9871 84.5032 60.1419 97.2516 67.729C99.3419 68.9677 100.168 70.5677 100.168 72.8129C100.142 75.6 97.9742 77.8452 95.1613 77.8452ZM88.2194 94.7742C87.1355 94.7742 86.4645 94.4387 85.4581 93.8452C69.3548 84.1419 50.6194 83.729 32.1161 87.5226C31.1097 87.7806 29.7935 88.1935 29.0452 88.1935C26.5419 88.1935 24.9677 86.2065 24.9677 84.1161C24.9677 81.4581 26.5419 80.1935 28.4774 79.7806C49.6129 75.1097 71.2129 75.5226 89.6387 86.5419C91.2129 87.5484 92.1419 88.4516 92.1419 90.8C92.1419 93.1484 90.3097 94.7742 88.2194 94.7742Z" fill="black"/>
</g>
<defs>
<clipPath id="clip0_392_415">
<rect width="128" height="128" fill="white"/>
</clipPath>
</defs>
</svg>
