<svg width="21" height="21" viewBox="0 0 21 21" fill="none" xmlns="http://www.w3.org/2000/svg" style="fill: none !important;">
  <path fill-rule="evenodd" clip-rule="evenodd" d="M12.6031 0.875C10.8281 0.875 9.12302 2.03909 8.51231 3.77349C7.3747 3.40667 6.15026 3.77097 5.35086 4.5299C4.78552 5.06662 4.3975 5.8231 4.37595 6.69855C4.36635 7.08822 4.42962 7.48302 4.56709 7.875H3.5V13.125C3.5 15.2157 4.41657 17.0923 5.86981 18.375H2.625V20.125H18.375V18.375H15.1302C15.9382 17.6619 16.5803 16.7651 16.9912 15.75H18.375C19.8247 15.75 21 14.5747 21 13.125V10.5C21 9.05025 19.8247 7.875 18.375 7.875H16.3882C16.7564 6.88055 16.6893 5.87922 16.2424 5.09697C15.9102 4.51543 15.3609 4.06352 14.6631 3.92377C14.2184 3.83469 13.7628 3.88196 13.3231 4.05095C13.229 3.87774 13.1831 3.71278 13.1644 3.54618C13.1243 3.1885 13.1986 2.7242 13.4324 2.02901L13.8207 0.875H12.6031ZM14.4266 7.875C15.006 7.04609 14.9263 6.32108 14.7229 5.96502C14.6067 5.76173 14.4561 5.66706 14.3194 5.63969C14.1894 5.61365 13.9522 5.62505 13.6182 5.87318L13.0147 6.32167L12.4805 5.79243C11.8715 5.18907 11.513 4.52327 11.4253 3.74121C11.3948 3.46945 11.3986 3.1956 11.4285 2.91977C10.6206 3.34266 10.0255 4.18069 10.0255 5.17085V7.26954L8.53462 5.79243C7.94014 5.20342 7.09981 5.28253 6.55576 5.79904C6.29442 6.04715 6.13445 6.37482 6.12542 6.74163C6.11809 7.0393 6.2092 7.42634 6.52314 7.875H14.4266ZM5.25 9.625V13.125C5.25 16.0245 7.60051 18.375 10.5 18.375C13.3995 18.375 15.75 16.0245 15.75 13.125V9.625H5.25ZM17.5 9.625V14H18.375C18.8582 14 19.25 13.6082 19.25 13.125V10.5C19.25 10.0168 18.8582 9.625 18.375 9.625H17.5Z" fill="#000" style="fill: rgb(0, 0, 0) !important;"/>
</svg>