<svg width="323" height="70.131" version="1.1" xmlns="http://www.w3.org/2000/svg">
 <path d="m32.851 20.669c-6.7092 0-12.121 5.4114-12.121 12.121 0 5.111 3.1499 9.5051 7.6094 11.306l-7.229 26.035h24.622l-6.9572-26.688c3.7282-2.0722 6.2506-6.0859 6.2506-10.653 0-6.7094-5.4649-12.121-12.175-12.121z" fill="#142442"/>
 <g stroke="#c46">
  <path d="m3.8891 32.904a29.015 29.015 0 0 1 29.015-29.015 29.015 29.015 0 0 1 29.015 29.015" fill="none" stroke-width="7.7781"/>
  <rect x="2.7636" y="34.913" width="2.2691" height="6.1685" fill="#465b6c" stroke-width="5.5195"/>
  <path d="m57.432 32.763h8.3531l-4.1765 7.234z" fill="#465b6c" stroke-width="5.402"/>
 </g>
 <g>
  <path d="m120.38 26.693v6.6667q-2.1094-1.3542-4.401-2.0312-2.2656-0.70312-4.5573-0.70312-2.5521 0-3.8542 0.75521-1.3021 0.72916-1.3021 2.1875 0 2.0833 5.5729 3.3854l0.28646 0.0781 2.1875 0.52083q4.1667 0.98959 6.0938 3.2031 1.9531 2.1875 1.9531 5.9375 0 4.5052-2.9688 6.7708-2.9427 2.2396-8.8802 2.2396-2.6302 0-5.3906-0.46875-2.7604-0.4427-5.599-1.3542v-6.6667q2.526 1.4323 5.1302 2.1875 2.6302 0.75521 5.0781 0.75521 2.6823 0 4.0625-0.78125t1.3802-2.2656q0-1.4583-0.98958-2.2396-0.96354-0.78125-4.6354-1.6667l-2.1094-0.46875q-4.375-0.98958-6.3802-3.099-2.0052-2.1094-2.0052-5.651 0-4.2188 3.0469-6.5625 3.0469-2.3438 8.5677-2.3438 2.474 0 4.9219 0.41667 2.474 0.39063 4.7917 1.1979z"/>
  <path d="m153.47 26.693v6.6667q-2.1094-1.3542-4.401-2.0312-2.2656-0.70312-4.5573-0.70312-2.5521 0-3.8542 0.75521-1.3021 0.72916-1.3021 2.1875 0 2.0833 5.5729 3.3854l0.28646 0.0781 2.1875 0.52083q4.1667 0.98959 6.0938 3.2031 1.9531 2.1875 1.9531 5.9375 0 4.5052-2.9688 6.7708-2.9427 2.2396-8.8802 2.2396-2.6302 0-5.3906-0.46875-2.7604-0.4427-5.599-1.3542v-6.6667q2.526 1.4323 5.1302 2.1875 2.6302 0.75521 5.0781 0.75521 2.6823 0 4.0625-0.78125 1.3802-0.78125 1.3802-2.2656 0-1.4583-0.98958-2.2396-0.96354-0.78125-4.6354-1.6667l-2.1094-0.46875q-4.375-0.98958-6.3802-3.099-2.0052-2.1094-2.0052-5.651 0-4.2188 3.0469-6.5625 3.0469-2.3438 8.5677-2.3438 2.474 0 4.9219 0.41667 2.474 0.39063 4.7917 1.1979z"/>
  <path d="m170.82 42.787v-22.5h-7.7344v-5.8594h15.365v28.359q0 3.4375 1.0677 4.8698t3.6198 1.4323h6.0938v5.8594h-8.2292q-5.4427 0-7.8125-2.8125t-2.3698-9.349z"/>
  <path d="m211.8 28.698q0.85938-1.849 2.1875-2.7344 1.3281-0.88542 3.2552-0.88542 3.776 0 5.2083 2.6042 1.4583 2.6042 1.4583 10.833v16.432h-6.25v-18.724q0-3.2552-0.49479-4.349-0.4948-1.0938-1.7969-1.0938t-1.8229 1.1198q-0.52083 1.1198-0.52083 4.3229v18.724h-6.1719v-18.724q0-3.2031-0.52084-4.3229-0.52083-1.1198-1.8229-1.1198-1.3021 0-1.7969 1.0938t-0.49479 4.349v18.724h-6.25v-29.167h5.5469v3.0208q0.65105-1.7188 2.0833-2.7083 1.4323-1.0156 3.2031-1.0156 1.7708 0 3.2292 1.0677 1.4583 1.0417 1.7708 2.5521z"/>
  <path d="m245.14 41.25q-4.2708 0-5.9635 1.0938-1.6927 1.0938-1.6927 3.75 0 1.9792 1.1719 3.151 1.1719 1.1719 3.1771 1.1719 3.0208 0 4.6875-2.2656 1.6667-2.2917 1.6667-6.3802v-0.52083zm10.625-2.9427v16.641h-7.5781v-3.2552q-1.3802 1.9271-3.5417 2.9688-2.1615 1.0417-4.7656 1.0417-4.974 0-7.7604-2.6302-2.7604-2.6302-2.7604-7.3438 0-5.1042 3.3073-7.526 3.3073-2.4479 10.234-2.4479h5.2865v-1.276q0-1.849-1.3542-2.7865-1.3281-0.96354-3.9323-0.96354-2.7344 0-5.3125 0.70312-2.5521 0.67708-5.3385 2.1875v-6.5104q2.526-1.0417 5.1302-1.5364 2.6042-0.4948 5.5208-0.4948 7.1094 0 9.974 2.8906 2.8906 2.8906 2.8906 10.339z"/>
  <path d="m277.96 17.5v8.2812h9.974v5.8594h-9.974v13.802q0 1.9531 0.9375 2.8125 0.96354 0.83333 3.1771 0.83333h5.8594v5.8594h-6.4062q-6.5625 0-8.8802-2.0833-2.3177-2.1094-2.3177-7.7865v-13.438h-7.4479v-5.8594h7.4479v-8.2812z"/>
  <path d="m321.77 53.516q-2.6562 1.0938-5.4167 1.6406-2.7604 0.54687-5.8333 0.54687-7.3177 0-11.198-3.9062-3.8542-3.9323-3.8542-11.302 0-7.1354 3.724-11.276 3.724-4.1406 10.156-4.1406 6.4844 0 10.052 3.8542 3.5938 3.8281 3.5938 10.807v3.099h-19.766q0.026 3.4375 2.0312 5.1302 2.0052 1.6927 5.9896 1.6927 2.6302 0 5.1823-0.75521 2.5521-0.75521 5.3385-2.3958zm-6.4583-16.406q-0.0521-3.0208-1.5625-4.5573-1.4844-1.5625-4.401-1.5625-2.6302 0-4.1927 1.6146-1.5625 1.5885-1.849 4.5312z"/>
 </g>
</svg>
