<?xml version="1.0" encoding="UTF-8" standalone="no"?>
<!DOCTYPE svg PUBLIC "-//W3C//DTD SVG 1.1//EN" "http://www.w3.org/Graphics/SVG/1.1/DTD/svg11.dtd">
<svg xmlns="http://www.w3.org/2000/svg" version="1.1" viewBox="0.00 0.00 32.00 32.00">
<g stroke-width="2.00" fill="none" stroke-linecap="butt">
<path stroke="#4279bc" vector-effect="non-scaling-stroke" d="
  M 19.86 14.05
  C 18.83 15.56 16.62 17.11 16.45 18.95"
/>
<path stroke="#2561a7" vector-effect="non-scaling-stroke" d="
  M 13.53 20.34
  L 9.22 25.68"
/>
</g>
<path fill="#8fd8f6" d="
  M 4.10 7.02
  A 0.66 0.66 0.0 0 1 3.44 6.36
  L 3.44 5.80
  A 3.80 3.58 89.9 0 1 7.02 2.00
  L 25.26 1.96
  A 3.80 3.58 89.9 0 1 28.84 5.76
  L 28.84 6.32
  A 0.66 0.66 0.0 0 1 28.18 6.98
  L 4.10 7.02
  Z"
/>
<rect fill="#62b0df" x="3.49" y="8.00" width="25.26" height="4.76" rx="0.48"/>
<path fill="#5184c1" d="
  M 19.86 14.05
  C 18.83 15.56 16.62 17.11 16.45 18.95
  L 3.95 18.98
  A 0.46 0.45 0.0 0 1 3.49 18.53
  L 3.49 14.48
  A 0.45 0.44 -89.4 0 1 3.94 14.03
  L 19.86 14.05
  Z"
/>
<path fill="#326eb6" d="
  M 16.45 18.95
  C 16.62 17.11 18.83 15.56 19.86 14.05
  L 28.25 14.03
  A 0.53 0.52 90.0 0 1 28.77 14.56
  L 28.77 18.45
  A 0.52 0.52 0.0 0 1 28.25 18.97
  L 16.45 18.95
  Z"
/>
<path fill="#326eb6" d="
  M 13.53 20.34
  L 9.22 25.68
  Q 3.16 26.53 3.58 20.84
  A 0.55 0.55 0.0 0 1 4.13 20.33
  L 13.53 20.34
  Z"
/>
<path fill="#185397" d="
  M 9.22 25.68
  L 13.53 20.34
  L 28.22 20.37
  A 0.55 0.54 -1.7 0 1 28.77 20.88
  Q 29.13 25.85 24.47 25.76
  A 1.47 1.43 22.4 0 0 23.42 26.18
  L 18.74 30.86
  A 0.29 0.29 0.0 0 1 18.25 30.66
  L 18.25 26.33
  A 0.58 0.58 0.0 0 0 17.67 25.75
  L 9.22 25.68
  Z"
/>
</svg>
