<?xml version="1.0" encoding="UTF-8" standalone="no"?>
<!DOCTYPE svg PUBLIC "-//W3C//DTD SVG 1.1//EN" "http://www.w3.org/Graphics/SVG/1.1/DTD/svg11.dtd">
<svg xmlns="http://www.w3.org/2000/svg" version="1.1" viewBox="0.00 0.00 512.00 512.00">
<g stroke-width="2.00" fill="none" stroke-linecap="butt">
<path stroke="#8e8e8e" vector-effect="non-scaling-stroke" d="
  M 352.61 221.63
  A 5.41 5.39 23.5 0 1 351.15 217.94
  Q 351.11 182.17 351.17 136.21
  Q 351.18 129.05 349.99 125.91
  Q 348.08 120.87 343.41 118.08
  Q 323.24 106.01 277.43 78.45
  Q 268.15 72.87 264.59 72.07
  Q 257.43 70.45 250.17 71.67
  Q 246.34 72.32 234.65 79.35
  Q 172.36 116.81 171.83 117.08
  C 168.33 118.81 165.32 122.38 163.74 126.04
  Q 162.66 128.56 162.66 135.08
  Q 162.72 199.28 162.66 217.24
  Q 162.65 219.87 160.83 222.00
  A 1.43 1.29 -81.6 0 1 160.49 222.28
  Q 94.21 262.08 89.23 265.00
  C 82.83 268.76 79.64 271.96 77.03 277.96
  Q 75.63 281.19 75.65 289.22
  Q 75.75 334.87 75.64 363.95
  Q 75.61 373.73 76.90 377.92
  Q 78.91 384.45 83.57 390.28
  Q 86.52 393.98 95.05 398.85
  Q 98.26 400.68 151.54 433.22
  Q 161.83 439.50 165.91 440.20
  Q 174.26 441.62 181.39 437.36
  Q 207.71 421.63 253.27 394.01
  C 257.23 391.62 259.25 393.02 262.78 395.15
  Q 269.40 399.15 330.36 436.25
  Q 337.92 440.86 341.41 441.35
  Q 347.36 442.19 353.17 438.63
  Q 356.47 436.61 418.85 398.73
  Q 427.49 393.49 429.80 390.72
  Q 434.22 385.43 436.54 378.83
  Q 438.10 374.40 438.05 362.94
  Q 437.94 336.73 438.03 289.66
  Q 438.04 282.87 437.34 280.39
  C 435.01 272.09 430.77 268.66 422.27 263.64
  Q 410.99 256.99 353.41 222.38
  A 1.51 1.41 80.8 0 1 353.05 222.10
  L 352.61 221.63"
/>
<path stroke="#8e8e8e" vector-effect="non-scaling-stroke" d="
  M 261.17 205.25
  Q 261.16 255.24 261.18 257.85
  Q 261.21 262.08 261.82 263.52
  C 263.41 267.24 267.60 269.53 271.29 267.28
  Q 300.37 249.57 327.30 233.30
  C 337.70 227.01 335.86 217.46 335.86 205.42
  Q 335.86 155.43 335.84 152.82
  Q 335.81 148.59 335.20 147.15
  C 333.61 143.43 329.42 141.14 325.73 143.39
  Q 296.65 161.10 269.73 177.37
  C 259.32 183.66 261.17 193.21 261.17 205.25"
/>
<path stroke="#8e8e8e" vector-effect="non-scaling-stroke" d="
  M 248.99 355.86
  Q 248.97 305.87 248.96 303.26
  Q 248.93 299.03 248.32 297.59
  C 246.72 293.87 242.53 291.58 238.84 293.83
  Q 209.77 311.55 182.84 327.84
  C 172.44 334.13 174.29 343.67 174.29 355.72
  Q 174.31 405.71 174.32 408.32
  Q 174.36 412.55 174.97 413.99
  C 176.56 417.71 180.75 420.00 184.44 417.75
  Q 213.51 400.03 240.44 383.74
  C 250.84 377.45 248.99 367.91 248.99 355.86"
/>
<path stroke="#8e8e8e" vector-effect="non-scaling-stroke" d="
  M 422.72 355.90
  Q 422.73 305.89 422.71 303.28
  Q 422.68 299.05 422.07 297.61
  C 420.48 293.89 416.29 291.59 412.60 293.85
  Q 383.50 311.56 356.57 327.84
  C 346.16 334.13 348.00 343.68 348.00 355.73
  Q 348.00 405.73 348.01 408.35
  Q 348.04 412.58 348.65 414.02
  C 350.24 417.74 354.44 420.03 358.13 417.78
  Q 387.22 400.07 414.16 383.79
  C 424.56 377.50 422.72 367.95 422.72 355.90"
/>
</g>
<path fill="#ffffff" d="
  M 475.74 0.00
  Q 484.53 1.14 490.88 4.62
  C 495.71 7.26 501.21 11.88 504.18 16.24
  Q 507.15 20.60 507.51 21.35
  C 509.52 25.48 510.92 29.48 511.44 33.75
  Q 511.60 35.06 512.00 36.18
  L 512.00 475.75
  Q 510.80 484.88 507.39 490.88
  Q 506.96 491.65 503.68 496.46
  C 502.41 498.32 500.40 499.99 499.44 501.12
  C 497.64 503.27 492.71 506.37 490.88 507.37
  Q 484.53 510.83 475.81 512.00
  L 36.26 512.00
  Q 27.47 510.85 21.12 507.38
  C 16.49 504.85 10.88 500.35 7.87 495.83
  Q 4.81 491.24 4.54 490.74
  Q 2.07 486.26 0.94 479.71
  Q 0.58 477.62 0.00 475.81
  L 0.00 36.19
  Q 1.09 28.06 4.14 22.11
  C 9.65 11.34 20.37 2.55 32.72 0.70
  Q 34.49 0.43 36.17 0.00
  L 475.74 0.00
  Z
  M 352.61 221.63
  A 5.41 5.39 23.5 0 1 351.15 217.94
  Q 351.11 182.17 351.17 136.21
  Q 351.18 129.05 349.99 125.91
  Q 348.08 120.87 343.41 118.08
  Q 323.24 106.01 277.43 78.45
  Q 268.15 72.87 264.59 72.07
  Q 257.43 70.45 250.17 71.67
  Q 246.34 72.32 234.65 79.35
  Q 172.36 116.81 171.83 117.08
  C 168.33 118.81 165.32 122.38 163.74 126.04
  Q 162.66 128.56 162.66 135.08
  Q 162.72 199.28 162.66 217.24
  Q 162.65 219.87 160.83 222.00
  A 1.43 1.29 -81.6 0 1 160.49 222.28
  Q 94.21 262.08 89.23 265.00
  C 82.83 268.76 79.64 271.96 77.03 277.96
  Q 75.63 281.19 75.65 289.22
  Q 75.75 334.87 75.64 363.95
  Q 75.61 373.73 76.90 377.92
  Q 78.91 384.45 83.57 390.28
  Q 86.52 393.98 95.05 398.85
  Q 98.26 400.68 151.54 433.22
  Q 161.83 439.50 165.91 440.20
  Q 174.26 441.62 181.39 437.36
  Q 207.71 421.63 253.27 394.01
  C 257.23 391.62 259.25 393.02 262.78 395.15
  Q 269.40 399.15 330.36 436.25
  Q 337.92 440.86 341.41 441.35
  Q 347.36 442.19 353.17 438.63
  Q 356.47 436.61 418.85 398.73
  Q 427.49 393.49 429.80 390.72
  Q 434.22 385.43 436.54 378.83
  Q 438.10 374.40 438.05 362.94
  Q 437.94 336.73 438.03 289.66
  Q 438.04 282.87 437.34 280.39
  C 435.01 272.09 430.77 268.66 422.27 263.64
  Q 410.99 256.99 353.41 222.38
  A 1.51 1.41 80.8 0 1 353.05 222.10
  L 352.61 221.63
  Z"
/>
<path fill="#1d1d1d" d="
  M 352.61 221.63
  L 353.05 222.10
  A 1.51 1.41 80.8 0 0 353.41 222.38
  Q 410.99 256.99 422.27 263.64
  C 430.77 268.66 435.01 272.09 437.34 280.39
  Q 438.04 282.87 438.03 289.66
  Q 437.94 336.73 438.05 362.94
  Q 438.10 374.40 436.54 378.83
  Q 434.22 385.43 429.80 390.72
  Q 427.49 393.49 418.85 398.73
  Q 356.47 436.61 353.17 438.63
  Q 347.36 442.19 341.41 441.35
  Q 337.92 440.86 330.36 436.25
  Q 269.40 399.15 262.78 395.15
  C 259.25 393.02 257.23 391.62 253.27 394.01
  Q 207.71 421.63 181.39 437.36
  Q 174.26 441.62 165.91 440.20
  Q 161.83 439.50 151.54 433.22
  Q 98.26 400.68 95.05 398.85
  Q 86.52 393.98 83.57 390.28
  Q 78.91 384.45 76.90 377.92
  Q 75.61 373.73 75.64 363.95
  Q 75.75 334.87 75.65 289.22
  Q 75.63 281.19 77.03 277.96
  C 79.64 271.96 82.83 268.76 89.23 265.00
  Q 94.21 262.08 160.49 222.28
  A 1.43 1.29 -81.6 0 0 160.83 222.00
  Q 162.65 219.87 162.66 217.24
  Q 162.72 199.28 162.66 135.08
  Q 162.66 128.56 163.74 126.04
  C 165.32 122.38 168.33 118.81 171.83 117.08
  Q 172.36 116.81 234.65 79.35
  Q 246.34 72.32 250.17 71.67
  Q 257.43 70.45 264.59 72.07
  Q 268.15 72.87 277.43 78.45
  Q 323.24 106.01 343.41 118.08
  Q 348.08 120.87 349.99 125.91
  Q 351.18 129.05 351.17 136.21
  Q 351.11 182.17 351.15 217.94
  A 5.41 5.39 23.5 0 0 352.61 221.63
  Z
  M 261.17 205.25
  Q 261.16 255.24 261.18 257.85
  Q 261.21 262.08 261.82 263.52
  C 263.41 267.24 267.60 269.53 271.29 267.28
  Q 300.37 249.57 327.30 233.30
  C 337.70 227.01 335.86 217.46 335.86 205.42
  Q 335.86 155.43 335.84 152.82
  Q 335.81 148.59 335.20 147.15
  C 333.61 143.43 329.42 141.14 325.73 143.39
  Q 296.65 161.10 269.73 177.37
  C 259.32 183.66 261.17 193.21 261.17 205.25
  Z
  M 248.99 355.86
  Q 248.97 305.87 248.96 303.26
  Q 248.93 299.03 248.32 297.59
  C 246.72 293.87 242.53 291.58 238.84 293.83
  Q 209.77 311.55 182.84 327.84
  C 172.44 334.13 174.29 343.67 174.29 355.72
  Q 174.31 405.71 174.32 408.32
  Q 174.36 412.55 174.97 413.99
  C 176.56 417.71 180.75 420.00 184.44 417.75
  Q 213.51 400.03 240.44 383.74
  C 250.84 377.45 248.99 367.91 248.99 355.86
  Z
  M 422.72 355.90
  Q 422.73 305.89 422.71 303.28
  Q 422.68 299.05 422.07 297.61
  C 420.48 293.89 416.29 291.59 412.60 293.85
  Q 383.50 311.56 356.57 327.84
  C 346.16 334.13 348.00 343.68 348.00 355.73
  Q 348.00 405.73 348.01 408.35
  Q 348.04 412.58 348.65 414.02
  C 350.24 417.74 354.44 420.03 358.13 417.78
  Q 387.22 400.07 414.16 383.79
  C 424.56 377.50 422.72 367.95 422.72 355.90
  Z"
/>
<path fill="#ffffff" d="
  M 261.17 205.25
  C 261.17 193.21 259.32 183.66 269.73 177.37
  Q 296.65 161.10 325.73 143.39
  C 329.42 141.14 333.61 143.43 335.20 147.15
  Q 335.81 148.59 335.84 152.82
  Q 335.86 155.43 335.86 205.42
  C 335.86 217.46 337.70 227.01 327.30 233.30
  Q 300.37 249.57 271.29 267.28
  C 267.60 269.53 263.41 267.24 261.82 263.52
  Q 261.21 262.08 261.18 257.85
  Q 261.16 255.24 261.17 205.25
  Z"
/>
<path fill="#ffffff" d="
  M 248.99 355.86
  C 248.99 367.91 250.84 377.45 240.44 383.74
  Q 213.51 400.03 184.44 417.75
  C 180.75 420.00 176.56 417.71 174.97 413.99
  Q 174.36 412.55 174.32 408.32
  Q 174.31 405.71 174.29 355.72
  C 174.29 343.67 172.44 334.13 182.84 327.84
  Q 209.77 311.55 238.84 293.83
  C 242.53 291.58 246.72 293.87 248.32 297.59
  Q 248.93 299.03 248.96 303.26
  Q 248.97 305.87 248.99 355.86
  Z"
/>
<path fill="#ffffff" d="
  M 422.72 355.90
  C 422.72 367.95 424.56 377.50 414.16 383.79
  Q 387.22 400.07 358.13 417.78
  C 354.44 420.03 350.24 417.74 348.65 414.02
  Q 348.04 412.58 348.01 408.35
  Q 348.00 405.73 348.00 355.73
  C 348.00 343.68 346.16 334.13 356.57 327.84
  Q 383.50 311.56 412.60 293.85
  C 416.29 291.59 420.48 293.89 422.07 297.61
  Q 422.68 299.05 422.71 303.28
  Q 422.73 305.89 422.72 355.90
  Z"
/>
</svg>
