<svg width="209" height="50" viewBox="0 0 209 50" fill="none" xmlns="http://www.w3.org/2000/svg">
<g clip-path="url(#clip0_1868_1332)">
<path d="M204.762 34.4277H185.522C183.184 34.4277 181.284 36.308 181.284 38.6221V42.4308C181.284 44.745 183.184 46.6252 185.522 46.6252H204.762C207.1 46.6252 209 44.745 209 42.4308V38.6221C209 36.308 207.1 34.4277 204.762 34.4277Z" fill="#FFBB1B"/>
<path d="M187.373 40.5029C187.373 40.069 187.47 39.6833 187.665 39.3458C187.86 39.0083 188.103 38.7673 188.444 38.5744C188.785 38.3816 189.126 38.2852 189.565 38.2852C190.101 38.2852 190.539 38.4298 190.88 38.6708C191.221 38.9601 191.464 39.2976 191.611 39.7797H190.442C190.393 39.5869 190.247 39.4422 190.101 39.3458C189.954 39.2494 189.76 39.2012 189.565 39.2012C189.272 39.2012 188.98 39.2976 188.834 39.5387C188.639 39.7797 188.542 40.069 188.542 40.5029C188.542 40.9368 188.639 41.226 188.834 41.4671C189.029 41.7082 189.272 41.8046 189.565 41.8046C190.003 41.8046 190.295 41.6117 190.442 41.226H191.611C191.513 41.7082 191.27 42.0456 190.88 42.3349C190.539 42.6242 190.052 42.7688 189.516 42.7688C189.078 42.7688 188.737 42.6724 188.396 42.4795C188.055 42.2867 187.811 42.0456 187.616 41.7082C187.47 41.3225 187.373 40.9368 187.373 40.5029Z" fill="#2C2D3F"/>
<path d="M194.338 42.7206C193.9 42.7206 193.559 42.6242 193.218 42.4313C192.877 42.2385 192.633 41.9974 192.439 41.66C192.244 41.3225 192.146 40.9368 192.146 40.5029C192.146 40.069 192.244 39.6833 192.439 39.3458C192.633 39.0083 192.926 38.7673 193.267 38.5744C193.608 38.3816 193.997 38.2852 194.387 38.2852C194.825 38.2852 195.166 38.3816 195.507 38.5744C195.848 38.7673 196.092 39.0083 196.335 39.3458C196.53 39.6833 196.628 40.069 196.628 40.5029C196.628 40.9368 196.53 41.3225 196.335 41.66C196.14 41.9974 195.848 42.2385 195.507 42.4313C195.166 42.6242 194.777 42.7206 194.338 42.7206ZM194.338 41.7564C194.533 41.7564 194.728 41.7082 194.874 41.6117C195.069 41.5153 195.215 41.3707 195.312 41.1778C195.41 40.985 195.459 40.7439 195.459 40.4547C195.459 40.0208 195.361 39.7315 195.118 39.4904C194.923 39.2494 194.63 39.153 194.338 39.153C194.046 39.153 193.754 39.2494 193.559 39.4904C193.364 39.7315 193.267 40.0208 193.267 40.4547C193.267 40.8886 193.364 41.1778 193.559 41.4189C193.754 41.66 194.046 41.7564 194.338 41.7564Z" fill="#2C2D3F"/>
<path d="M202.862 38.2852C203.398 38.2852 203.836 38.4298 204.177 38.7673C204.518 39.1047 204.665 39.5386 204.665 40.1172V42.6724H203.544V40.2618C203.544 39.9243 203.447 39.6833 203.301 39.4904C203.106 39.2976 202.911 39.2012 202.57 39.2012C202.278 39.2012 202.034 39.2976 201.839 39.4904C201.645 39.6833 201.596 39.9243 201.596 40.2618V42.6724H200.475V40.2618C200.475 39.9243 200.378 39.6833 200.232 39.4904C200.037 39.2976 199.842 39.2012 199.501 39.2012C199.209 39.2012 198.965 39.2976 198.771 39.4904C198.576 39.6833 198.527 39.9243 198.527 40.2618V42.6724H197.407V38.3334H198.527V38.8637C198.673 38.6708 198.868 38.5262 199.063 38.4298C199.306 38.3334 199.55 38.2852 199.794 38.2852C200.135 38.2852 200.427 38.3816 200.719 38.5262C200.963 38.6708 201.206 38.8637 201.352 39.153C201.498 38.9119 201.693 38.7191 201.985 38.5744C202.229 38.3334 202.521 38.2852 202.862 38.2852Z" fill="#2C2D3F"/>
<path d="M180.7 48.7943C182.989 48.7943 184.889 46.9623 184.889 44.6481C184.889 42.334 183.038 40.502 180.7 40.502C178.361 40.502 176.51 42.334 176.51 44.6481C176.51 46.9623 178.41 48.7943 180.7 48.7943Z" fill="#000000" stroke="#2C2E3E" stroke-width="1.95772"/>
<path d="M69.933 37.5126C68.2768 37.5126 66.7668 37.2234 65.4516 36.6448C64.1365 36.0663 63.0648 35.2467 62.3342 34.1861C61.6035 33.1254 61.2139 31.8719 61.2139 30.4738H65.5491C65.6465 31.5344 66.0849 32.4022 66.8155 33.0772C67.5949 33.7522 68.6178 34.0896 69.9817 34.0896C71.3455 34.0896 72.4659 33.7522 73.2452 33.1254C74.0246 32.4505 74.4143 31.5827 74.4143 30.522C74.4143 29.7024 74.1707 29.0275 73.6836 28.4971C73.1965 27.9668 72.612 27.5811 71.8814 27.2918C71.1507 27.0026 70.1765 26.7133 68.91 26.3758C67.3026 25.9419 65.9874 25.508 64.9645 25.1223C63.9903 24.6884 63.1136 24.0135 62.3829 23.0975C61.6523 22.1814 61.3113 20.9762 61.3113 19.4334C61.3113 18.0353 61.6523 16.7818 62.3829 15.7211C63.1136 14.6605 64.0878 13.8409 65.3542 13.2623C66.6207 12.6838 68.1307 12.3945 69.7868 12.3945C72.1736 12.3945 74.122 12.9731 75.6807 14.1784C77.2395 15.3354 78.0675 16.9746 78.2624 19.0477H73.781C73.7323 18.1317 73.2939 17.4085 72.5146 16.7336C71.7352 16.1068 70.7123 15.7693 69.3971 15.7693C68.2281 15.7693 67.3026 16.0586 66.5233 16.6371C65.7926 17.2157 65.4029 18.0835 65.4029 19.1923C65.4029 19.9637 65.6465 20.5905 66.0849 21.0726C66.572 21.5547 67.1565 21.9404 67.8871 22.1814C68.6178 22.4707 69.592 22.76 70.8097 23.0975C72.4659 23.5314 73.7811 24.0135 74.804 24.4474C75.8269 24.8813 76.7036 25.6044 77.4343 26.5205C78.1649 27.4365 78.5546 28.69 78.5546 30.2327C78.5546 31.4862 78.2137 32.6433 77.5317 33.7522C76.8498 34.861 75.8756 35.7288 74.5604 36.452C73.1965 37.1752 71.6865 37.5126 69.933 37.5126Z" fill="#000000"/>
<path d="M86.9324 21.121V31.8721C86.9324 32.5953 87.0785 33.1256 87.4195 33.4631C87.7605 33.7524 88.345 33.9452 89.2218 33.9452H91.706V37.32H88.4911C86.6401 37.32 85.2763 36.8861 84.3021 36.0665C83.3279 35.1987 82.8408 33.8488 82.8408 31.9203V21.121H80.5027V17.8426H82.8408V13.0215H86.9324V17.8426H91.706V21.121H86.9324Z" fill="#000000"/>
<path d="M93.0212 27.4862C93.0212 25.5096 93.4109 23.8222 94.239 22.2794C95.0671 20.7848 96.1874 19.6278 97.6 18.8082C99.0126 17.9404 100.571 17.5547 102.325 17.5547C103.884 17.5547 105.199 17.844 106.368 18.4707C107.537 19.0492 108.462 19.8206 109.144 20.6884V17.844H113.236V37.2731H109.144V34.3805C108.462 35.2965 107.537 36.0679 106.319 36.6946C105.15 37.3213 103.786 37.6106 102.276 37.6106C100.571 37.6106 99.0613 37.1767 97.6487 36.3571C96.2361 35.4893 95.1158 34.284 94.2877 32.7413C93.4109 31.1503 93.0212 29.4147 93.0212 27.4862ZM109.096 27.5344C109.096 26.1845 108.803 25.0274 108.219 24.0632C107.683 23.099 106.952 22.3276 106.027 21.7973C105.101 21.267 104.127 21.0259 103.104 21.0259C102.081 21.0259 101.107 21.267 100.182 21.7973C99.2561 22.2794 98.5255 23.0508 97.9897 24.015C97.4538 24.9792 97.1616 26.1363 97.1616 27.4862C97.1616 28.8361 97.4538 29.9932 97.9897 31.0057C98.5742 32.0181 99.3048 32.7895 100.182 33.3198C101.107 33.8501 102.081 34.0912 103.104 34.0912C104.127 34.0912 105.101 33.8501 106.027 33.3198C106.952 32.7895 107.634 32.0663 108.219 31.0539C108.803 30.0414 109.096 28.8844 109.096 27.5344Z" fill="#000000"/>
<path d="M127.362 17.5059C128.921 17.5059 130.285 17.8433 131.502 18.4701C132.72 19.0968 133.694 20.0611 134.376 21.3146C135.058 22.5681 135.399 24.0626 135.399 25.8464V37.3207H131.356V26.425C131.356 24.6894 130.918 23.3394 130.041 22.4234C129.164 21.4592 127.947 21.0253 126.437 21.0253C124.927 21.0253 123.709 21.5074 122.783 22.4234C121.907 23.3394 121.468 24.6894 121.468 26.425V37.2725H117.425V17.8433H121.468V20.0611C122.15 19.2415 122.978 18.6147 124.001 18.1808C125.121 17.7469 126.193 17.5059 127.362 17.5059Z" fill="#000000"/>
<path d="M149.427 17.5059C150.986 17.5059 152.35 17.8433 153.568 18.4701C154.786 19.0968 155.76 20.0611 156.442 21.3146C157.124 22.5681 157.465 24.0626 157.465 25.8464V37.3207H153.47V26.425C153.47 24.6894 153.032 23.3394 152.155 22.4234C151.278 21.4592 150.061 21.0253 148.551 21.0253C147.041 21.0253 145.823 21.5074 144.897 22.4234C144.021 23.3394 143.582 24.6894 143.582 26.425V37.2725H139.539V17.8433H143.582V20.0611C144.264 19.2415 145.092 18.6147 146.115 18.1808C147.187 17.7469 148.258 17.5059 149.427 17.5059Z" fill="#000000"/>
<path d="M165.648 20.6878C166.33 19.7718 167.256 19.0486 168.473 18.4219C169.642 17.7951 171.006 17.5059 172.516 17.5059C174.221 17.5059 175.78 17.9398 177.193 18.7594C178.605 19.5789 179.725 20.736 180.554 22.2306C181.382 23.7251 181.771 25.4607 181.771 27.4374C181.771 29.4141 181.382 31.1497 180.554 32.6924C179.725 34.2352 178.605 35.4405 177.193 36.3083C175.78 37.1761 174.221 37.5618 172.516 37.5618C171.006 37.5618 169.691 37.2725 168.522 36.694C167.353 36.0672 166.428 35.3441 165.697 34.428V46.4809H161.654V17.8433H165.697L165.648 20.6878ZM177.582 27.4856C177.582 26.1357 177.29 24.9786 176.705 24.0144C176.17 23.0502 175.439 22.2788 174.513 21.7967C173.588 21.2663 172.614 21.0253 171.591 21.0253C170.568 21.0253 169.594 21.2663 168.668 21.7967C167.743 22.327 167.012 23.0502 166.476 24.0626C165.941 25.0268 165.648 26.2321 165.648 27.5338C165.648 28.8355 165.941 30.0408 166.476 31.0533C167.061 32.0175 167.792 32.7889 168.668 33.3192C169.594 33.8495 170.568 34.0906 171.591 34.0906C172.614 34.0906 173.588 33.8495 174.513 33.3192C175.439 32.7889 176.17 32.0175 176.705 31.005C177.339 29.9926 177.582 28.7873 177.582 27.4856Z" fill="#000000"/>
<path d="M33.6927 11.9127C32.9133 7.09156 27.8475 7.52546 25.5581 7.86294C20.3948 8.68253 15.7674 12.9733 16.4493 17.5052C17.4722 23.9173 27.1655 24.2066 28.432 32.3543C28.9191 35.5363 28.0423 38.7182 24.6326 39.2485C22.5868 39.586 20.1026 38.67 19.6642 35.7773C19.1771 32.7882 20.541 31.1008 23.9994 30.233C23.4149 28.7385 22.0997 28.2563 20.1026 28.5938C16.7416 29.1242 14.0625 31.7276 14.6958 35.8255C15.67 42.0448 21.9536 41.8037 25.412 41.2734C32.4262 40.1646 36.323 35.5363 35.3488 29.4616C33.8388 19.8194 23.9507 20.9764 22.8791 14.2268C22.4894 11.8645 23.9507 10.2253 26.3375 9.83961C28.6268 9.50213 29.7472 10.7074 29.9907 12.2502C30.2343 13.6965 29.6985 15.3839 28.6268 16.2517C29.3088 16.8303 30.0394 16.9749 30.7214 16.8303C33.0594 16.4928 34.0824 14.3715 33.6927 11.9127Z" fill="#000000"/>
<path d="M1.53914 4.39121C1.43198 4.40567 1.33456 4.42496 1.23714 4.44907C1.23714 4.46353 1.24201 4.47317 1.23714 4.49246C1.25662 4.6612 1.21766 4.83476 1.18843 4.99385C1.13972 5.15777 1.06178 5.30723 0.949752 5.4374C0.84259 5.56757 0.711073 5.67845 0.560072 5.76041C0.413942 5.84237 0.248328 5.89059 0.0778429 5.90987L0.0242619 5.91951C-0.0195771 6.02076 -0.00496407 6.122 0.00477793 6.22324L0.0145199 6.34377C0.0681009 6.33413 0.0681009 6.33413 0.0827139 6.32931C0.423684 6.29556 0.769525 6.39198 1.03743 6.60893C1.30534 6.82589 1.47582 7.13444 1.51479 7.47674C1.53427 7.64548 1.4953 7.81904 1.46608 7.97814C1.41737 8.14205 1.33943 8.29151 1.2274 8.42168C1.12511 8.55185 0.98872 8.66274 0.837719 8.7447C0.686718 8.82666 0.525975 8.87487 0.35549 8.89415C0.301909 8.9038 0.301909 8.90379 0.287296 8.90862L0.331135 9.32805C0.384716 9.31841 0.384716 9.31841 0.4042 9.31359C0.74517 9.27984 1.09101 9.37627 1.35892 9.59322C1.62682 9.81017 1.80218 10.1187 1.83627 10.461C1.85576 10.6298 1.81679 10.8033 1.78756 10.9624C1.73885 11.1263 1.66092 11.2758 1.54888 11.406C1.44172 11.5361 1.31021 11.647 1.1592 11.729C1.01307 11.8109 0.847461 11.8591 0.676976 11.8784C0.623395 11.8881 0.623395 11.8881 0.603911 11.8929L0.64775 12.3123C0.701331 12.3027 0.701331 12.3027 0.715944 12.2979C1.05691 12.2641 1.40276 12.3605 1.67066 12.5775C1.93857 12.7945 2.11392 13.103 2.14802 13.4453C2.1675 13.614 2.12853 13.7876 2.09931 13.9467C2.0506 14.1106 1.97266 14.2601 1.86063 14.3902C1.75834 14.5204 1.62195 14.6313 1.47095 14.7133C1.31995 14.7952 1.1592 14.8434 0.98872 14.8627C0.935139 14.8724 0.935139 14.8724 0.915655 14.8772L0.959494 15.2966C1.01307 15.287 1.01307 15.287 1.03256 15.2822C1.37353 15.2484 1.71937 15.3448 1.98727 15.5618C2.25518 15.7787 2.43054 16.0873 2.46463 16.4296C2.48412 16.5983 2.44515 16.7719 2.41592 16.931C2.36721 17.0949 2.28928 17.2444 2.17724 17.3745C2.07495 17.5047 1.93857 17.6156 1.78756 17.6975C1.63656 17.7795 1.47582 17.8277 1.30533 17.847C1.25175 17.8566 1.25175 17.8566 1.23227 17.8615L1.27611 18.2809C1.32969 18.2713 1.32969 18.2713 1.34917 18.2664C1.69014 18.2327 2.03598 18.3291 2.30389 18.5461C2.57179 18.763 2.74228 19.0716 2.78125 19.4139C2.80073 19.5826 2.76176 19.7562 2.73254 19.9153C2.68383 20.0792 2.60589 20.2286 2.49386 20.3588C2.3867 20.489 2.25518 20.5999 2.10418 20.6818C1.95805 20.7638 1.79243 20.812 1.62195 20.8313C1.56837 20.8409 1.56837 20.8409 1.54888 20.8506L1.59272 21.27C1.6463 21.2604 1.6463 21.2604 1.66092 21.2555C2.00189 21.2218 2.34773 21.3182 2.61563 21.5352C2.88354 21.7521 3.05889 22.0607 3.09299 22.403C3.11248 22.5717 3.07351 22.7453 3.04428 22.9044C2.99557 23.0683 2.91764 23.2177 2.8056 23.3479C2.70331 23.4781 2.56692 23.589 2.41592 23.6709C2.26492 23.7529 2.10418 23.8011 1.93369 23.8204C1.88011 23.83 1.88011 23.83 1.86063 23.8349L1.90447 24.2543C1.95805 24.2446 1.95805 24.2446 1.97753 24.235C2.3185 24.2013 2.66434 24.2977 2.93225 24.5146C3.20015 24.7316 3.37064 25.0401 3.40961 25.3824C3.42909 25.5512 3.39012 25.7247 3.3609 25.8838C3.31219 26.0478 3.23425 26.1972 3.12222 26.3274C3.01993 26.4576 2.88354 26.5684 2.73254 26.6504C2.58154 26.7324 2.42079 26.7806 2.25031 26.7999C2.19673 26.8095 2.19673 26.8095 2.18211 26.8095L2.22595 27.2289C2.27954 27.2193 2.27953 27.2193 2.29902 27.2145C2.63999 27.1807 2.98583 27.2771 3.25373 27.4941C3.52164 27.711 3.697 28.0196 3.73109 28.3619C3.75058 28.5306 3.71161 28.7042 3.68238 28.8633C3.63367 29.0272 3.55574 29.1767 3.4437 29.3068C3.33167 29.437 3.20502 29.5479 3.05402 29.6299C2.90789 29.7118 2.74228 29.76 2.57179 29.7793C2.51821 29.7841 2.51821 29.7793 2.49873 29.7841L2.54257 30.2036C2.59615 30.1988 2.59615 30.1939 2.61076 30.1939C2.95173 30.1602 3.29757 30.2566 3.56548 30.4736C3.83338 30.6905 4.00874 30.9991 4.04284 31.3414C4.06232 31.5101 4.02335 31.6837 3.99413 31.8428C3.94542 32.0067 3.86748 32.1561 3.75545 32.2863C3.65316 32.4165 3.51677 32.5274 3.36577 32.6093C3.21477 32.6913 3.05402 32.7395 2.88354 32.7588C2.82996 32.7636 2.82996 32.7588 2.81047 32.7636L2.85431 33.183C2.90789 33.1734 2.90789 33.1734 2.92738 33.1734C3.26835 33.1396 3.61419 33.2361 3.88209 33.453C4.15 33.67 4.32048 33.9785 4.35945 34.3208C4.37894 34.4896 4.33997 34.6631 4.31074 34.8222C4.26203 34.9861 4.1841 35.1356 4.07206 35.2658C3.96977 35.3959 3.83338 35.5068 3.68238 35.5888C3.53625 35.6707 3.37064 35.719 3.20015 35.7382C3.14657 35.7431 3.14657 35.7382 3.13196 35.7382L3.1758 36.1577C3.22938 36.148 3.22938 36.148 3.24886 36.148C3.58983 36.1143 3.93568 36.2107 4.20358 36.4277C4.47149 36.6446 4.64684 36.9532 4.68094 37.2955C4.70042 37.4642 4.66145 37.6378 4.63223 37.7969C4.58352 37.9608 4.50558 38.1102 4.39355 38.2404C4.28152 38.3706 4.15487 38.4815 4.00387 38.5634C3.85287 38.6454 3.69213 38.6936 3.52164 38.7129C3.46806 38.7177 3.46806 38.7129 3.44858 38.7177L3.49241 39.1371C3.54599 39.1323 3.54599 39.1275 3.56061 39.1275C3.90158 39.0938 4.24742 39.1902 4.51532 39.4071C4.78323 39.6241 4.95859 39.9326 4.99268 40.2749C5.01217 40.4437 4.9732 40.6172 4.94397 40.7763C4.89526 40.9402 4.81733 41.0897 4.70529 41.2199C4.59813 41.35 4.46661 41.4609 4.31561 41.5429C4.16948 41.6248 4.00387 41.6731 3.83338 41.6923C3.7798 41.6972 3.7798 41.6923 3.76032 41.6972L3.80416 42.1166C3.85774 42.1118 3.85774 42.107 3.87722 42.107C4.21819 42.0732 4.56403 42.1696 4.83194 42.3866C5.09984 42.6035 5.2752 42.9121 5.3093 43.2544C5.32878 43.4231 5.28981 43.5967 5.26059 43.7558C5.21188 43.9197 5.13394 44.0692 5.02191 44.1993C4.91962 44.3295 4.78323 44.4404 4.63223 44.5223C4.48123 44.6043 4.32048 44.6525 4.15 44.6718C4.09642 44.6766 4.09642 44.6718 4.07693 44.6766L4.12077 45.0961C4.17435 45.0864 4.17435 45.0864 4.19384 45.0864C4.53481 45.0527 4.88065 45.1491 5.14855 45.366C5.41646 45.583 5.59182 45.8915 5.62591 46.2338C5.6454 46.4026 5.60643 46.5762 5.5772 46.7352C5.52849 46.8992 5.45056 47.0486 5.33852 47.1788C5.22649 47.309 5.09984 47.4198 4.94884 47.5018C4.79784 47.5838 4.6371 47.632 4.46661 47.6513C4.41303 47.6561 4.41303 47.6513 4.39355 47.6561L4.40329 47.7766C4.41303 47.8827 4.42278 47.9791 4.4861 48.0707L4.53968 48.0659C4.88065 48.0321 5.22649 48.1286 5.4944 48.3455C5.7623 48.5625 5.93766 48.871 5.97175 49.2133C5.97175 49.2278 5.97662 49.2374 5.98149 49.2567C6.08379 49.2615 6.18121 49.2615 6.28837 49.2519L6.41014 49.2374C6.41014 49.2374 6.4004 49.1892 6.4004 49.1651C6.36143 48.8228 6.46372 48.4853 6.68292 48.2202C6.90211 47.955 7.21386 47.7863 7.5597 47.7477C7.90067 47.7139 8.24651 47.8104 8.51441 48.0273C8.78232 48.2443 8.95768 48.5528 8.99177 48.8951C8.99664 48.9144 9.00152 48.9433 9.00152 48.9674L9.42529 48.924C9.42529 48.924 9.41555 48.8758 9.41555 48.8517C9.38145 48.5094 9.47887 48.1719 9.69807 47.9068C9.91726 47.6416 10.229 47.4729 10.5748 47.4343C10.9158 47.4006 11.2617 47.497 11.5296 47.7139C11.7975 47.9309 11.9728 48.2394 12.0069 48.5817C12.0118 48.601 12.0167 48.63 12.0167 48.6541L12.4404 48.6107C12.4404 48.6107 12.4307 48.5625 12.4307 48.5384C12.3966 48.1961 12.494 47.8586 12.7132 47.5934C12.9324 47.3282 13.2442 47.1595 13.59 47.1209C13.931 47.0872 14.2768 47.1836 14.5447 47.4006C14.8126 47.6175 14.988 47.9261 15.0221 48.2684C15.0269 48.2877 15.0318 48.3166 15.0318 48.3407L15.4556 48.2973C15.4556 48.2973 15.4458 48.2491 15.4458 48.225C15.4118 47.8827 15.5092 47.5452 15.7284 47.28C15.9476 47.0149 16.2593 46.8461 16.6051 46.8076C16.9461 46.7738 17.292 46.8702 17.5599 47.0872C17.8278 47.3041 18.0031 47.6127 18.0372 47.955C18.0421 47.9743 18.047 48.0032 18.047 48.0273L18.4707 47.9839C18.4707 47.9839 18.4659 47.9357 18.461 47.9116C18.4269 47.5693 18.5243 47.2318 18.7435 46.9667C18.9627 46.7015 19.2745 46.5328 19.6203 46.4942C19.9613 46.4604 20.3071 46.5569 20.575 46.7738C20.8429 46.9908 21.0183 47.2993 21.0524 47.6416C21.0572 47.6609 21.0621 47.6898 21.0621 47.7139L21.4859 47.6705C21.4859 47.6705 21.4761 47.6223 21.4761 47.5982C21.4372 47.2559 21.5395 46.9184 21.7587 46.6533C21.9779 46.3881 22.2896 46.2194 22.6354 46.1808C22.9764 46.1471 23.3223 46.2435 23.5902 46.4604C23.8581 46.6774 24.0286 46.9859 24.0675 47.3282C24.0724 47.3475 24.0724 47.3765 24.0773 47.4006L24.501 47.3572C24.501 47.3572 24.4913 47.309 24.4913 47.2849C24.4572 46.9426 24.5595 46.6051 24.7738 46.3399C24.993 46.0748 25.3048 45.906 25.6506 45.8674C25.9916 45.8337 26.3374 45.9301 26.6053 46.1471C26.8732 46.364 27.0486 46.6726 27.0827 47.0149C27.0875 47.0342 27.0924 47.0631 27.0924 47.0872L27.5162 47.0438C27.5162 47.0438 27.5113 46.9956 27.5064 46.9715C27.4723 46.6292 27.5698 46.2917 27.789 46.0265C28.0082 45.7614 28.3199 45.5926 28.6657 45.5541C29.0067 45.5203 29.3526 45.6216 29.6205 45.8337C29.8884 46.0506 30.0637 46.3592 30.0978 46.7015C30.1027 46.7208 30.1076 46.7497 30.1076 46.7738L30.5313 46.7304C30.5313 46.7304 30.5216 46.6822 30.5216 46.6581C30.4875 46.3158 30.5849 45.9783 30.8041 45.7132C31.0233 45.448 31.3351 45.2793 31.6809 45.2407C32.0219 45.2069 32.3677 45.3034 32.6356 45.5203C32.9035 45.7373 33.074 46.0458 33.113 46.3881C33.1178 46.4074 33.1227 46.4363 33.1227 46.4604L33.5465 46.4171C33.5465 46.4171 33.5367 46.3688 33.5367 46.3447C33.4978 46.0024 33.6001 45.665 33.8193 45.3998C34.0385 45.1346 34.3502 44.9659 34.696 44.9273C35.037 44.8936 35.3829 44.99 35.6508 45.2069C35.9187 45.4239 36.0891 45.7325 36.1281 46.0748C36.133 46.094 36.1379 46.123 36.1379 46.1471L36.5616 46.1037C36.5616 46.1037 36.5519 46.0555 36.5519 46.0314C36.5178 45.6891 36.6152 45.3516 36.8344 45.0864C37.0536 44.8213 37.3653 44.6525 37.7112 44.6139C38.0522 44.5802 38.398 44.6766 38.6659 44.8936C38.9338 45.1105 39.1092 45.4191 39.1433 45.7614C39.1481 45.7807 39.153 45.8096 39.153 45.8337L39.5768 45.7903C39.5768 45.7903 39.567 45.7421 39.567 45.718C39.5329 45.3757 39.6304 45.0382 39.8496 44.773C40.0688 44.5079 40.3805 44.3391 40.7263 44.3006C41.0673 44.2668 41.4132 44.3633 41.6811 44.5802C41.949 44.7971 42.1243 45.1057 42.1584 45.448C42.1633 45.4673 42.1682 45.4962 42.1682 45.5203L42.5919 45.4769C42.5919 45.4769 42.5822 45.4287 42.5822 45.4046C42.5481 45.0623 42.6455 44.7248 42.8647 44.4597C43.0839 44.1945 43.3956 44.0258 43.7415 43.9872C44.0825 43.9534 44.4283 44.0499 44.6962 44.2668C44.9641 44.4838 45.1346 44.7923 45.1736 45.1346C45.1784 45.1539 45.1784 45.1828 45.1833 45.2069L45.6071 45.1636C45.6071 45.1636 45.5973 45.1153 45.5973 45.0912C45.5632 44.7489 45.6607 44.4115 45.8799 44.1463C46.0991 43.8811 46.4108 43.7124 46.7566 43.6738C47.0976 43.6401 47.4434 43.7365 47.7113 43.9534C47.9793 44.1704 48.1497 44.479 48.1887 44.8213C48.1936 44.8405 48.1936 44.8695 48.1985 44.8936L48.3154 44.8791C48.4176 44.8695 48.5199 44.8454 48.6174 44.8213C48.6174 44.8068 48.6125 44.7971 48.6174 44.7779C48.5833 44.4356 48.6807 44.0981 48.8999 43.8329C49.1191 43.5678 49.4308 43.399 49.7767 43.3605H49.8302C49.8741 43.2592 49.8643 43.158 49.8497 43.0519L49.84 42.9314C49.7864 42.941 49.7864 42.941 49.7669 42.941C49.4259 42.9748 49.0801 42.8783 48.8122 42.6614C48.5443 42.4444 48.3738 42.1359 48.3348 41.7936C48.3007 41.4513 48.3982 41.1138 48.6174 40.8486C48.8366 40.5835 49.1483 40.4147 49.4941 40.3762C49.5477 40.3713 49.5477 40.3762 49.5672 40.3713L49.5234 39.9519C49.4698 39.9616 49.4698 39.9616 49.4552 39.9616C49.1142 39.9953 48.7684 39.8989 48.5005 39.6819C48.2325 39.465 48.0572 39.1564 48.0231 38.8141C47.989 38.4718 48.0864 38.1343 48.3056 37.8692C48.5248 37.604 48.8366 37.4353 49.1824 37.3967C49.236 37.3919 49.236 37.3967 49.2506 37.3919L49.2067 36.9725C49.1532 36.9821 49.1532 36.9821 49.1386 36.9821C48.7976 37.0158 48.4517 36.9146 48.1838 36.7025C47.9159 36.4855 47.7454 36.177 47.7065 35.8347C47.6724 35.4924 47.7698 35.1549 47.989 34.8897C48.2082 34.6246 48.5199 34.4558 48.8658 34.4172C48.9194 34.4124 48.9194 34.4172 48.934 34.4124L48.8901 33.993C48.8366 34.0026 48.8366 34.0026 48.8171 34.0026C48.4761 34.0364 48.1303 33.94 47.8624 33.723C47.5944 33.5061 47.4191 33.1975 47.385 32.8552C47.346 32.5129 47.4483 32.1754 47.6675 31.9103C47.8867 31.6451 48.1985 31.4764 48.5443 31.4378C48.5979 31.433 48.5979 31.4378 48.6174 31.433L48.5735 31.0135C48.5199 31.0232 48.5199 31.0232 48.5005 31.0232C48.1595 31.0569 47.8136 30.9557 47.5457 30.7435C47.2778 30.5266 47.1073 30.218 47.0732 29.8757C47.0392 29.5334 47.1366 29.196 47.3558 28.9308C47.575 28.6656 47.8867 28.4969 48.2325 28.4583C48.2861 28.4535 48.2861 28.4583 48.3056 28.4535L48.2618 28.0341C48.2082 28.0437 48.2082 28.0437 48.1887 28.0437C47.8477 28.0775 47.5019 27.981 47.234 27.7641C46.9661 27.5471 46.7907 27.2386 46.7566 26.8963C46.7225 26.554 46.82 26.2165 47.0392 25.9513C47.2584 25.6862 47.5701 25.5174 47.9159 25.4789C47.9695 25.474 47.9695 25.474 47.989 25.474L47.9452 25.0546C47.8916 25.0642 47.8916 25.0642 47.877 25.0642C47.536 25.098 47.1902 24.9967 46.9223 24.7846C46.6543 24.5677 46.4839 24.2591 46.4498 23.9168C46.4108 23.5745 46.5131 23.237 46.7323 22.9719C46.9515 22.7067 47.2632 22.538 47.6091 22.4994C47.6626 22.4898 47.6626 22.4898 47.6821 22.4849L47.6383 22.0655C47.5847 22.0751 47.5847 22.0751 47.5701 22.08C47.2291 22.1137 46.8833 22.0125 46.6154 21.8003C46.3475 21.5834 46.1721 21.2748 46.138 20.9325C46.1039 20.5902 46.2013 20.2527 46.4205 19.9876C46.6397 19.7224 46.9515 19.5537 47.2973 19.5151C47.3509 19.5055 47.3509 19.5055 47.3655 19.5007L47.3217 19.0812C47.2681 19.0909 47.2681 19.0909 47.2535 19.0957C46.9125 19.1294 46.5667 19.033 46.2988 18.816C46.0309 18.5991 45.8604 18.2905 45.8214 17.9482C45.7873 17.6059 45.8847 17.2685 46.1039 17.0033C46.3231 16.7381 46.6349 16.5694 46.9807 16.5308C47.0343 16.5212 47.0343 16.5212 47.0489 16.5164L47.0051 16.0969C46.9515 16.1066 46.9515 16.1066 46.932 16.1114C46.591 16.1451 46.2452 16.0487 45.9773 15.8318C45.7094 15.6148 45.5389 15.3063 45.4999 14.964C45.461 14.6217 45.5632 14.2842 45.7824 14.019C46.0016 13.7539 46.3134 13.5851 46.6592 13.5465C46.7128 13.5369 46.7128 13.5369 46.7274 13.5321L46.6836 13.1126C46.63 13.1223 46.63 13.1223 46.6154 13.1271C46.2744 13.1609 45.9286 13.0644 45.6607 12.8475C45.3928 12.6305 45.2223 12.322 45.1882 11.9797C45.1541 11.6374 45.2515 11.2999 45.4707 11.0347C45.6899 10.7696 46.0016 10.6008 46.3475 10.5623C46.4011 10.5526 46.4011 10.5526 46.4205 10.5478L46.3767 10.1284C46.3231 10.138 46.3231 10.138 46.3085 10.1428C45.9675 10.1766 45.6217 10.0753 45.3538 9.8632C45.0859 9.64625 44.9105 9.3377 44.8764 8.9954C44.8375 8.6531 44.9398 8.31562 45.1589 8.05045C45.3781 7.78529 45.6899 7.61655 46.0357 7.57798C46.0893 7.56834 46.0893 7.56834 46.1088 7.56352L46.065 7.14408C46.0114 7.15372 46.0114 7.15372 45.9968 7.15854C45.6558 7.19229 45.31 7.09105 45.042 6.87892C44.7741 6.66197 44.6037 6.35341 44.5696 6.01111C44.5355 5.66881 44.6329 5.33133 44.8521 5.06617C45.0713 4.80101 45.383 4.63227 45.7289 4.5937C45.7824 4.58406 45.7824 4.58406 45.8019 4.57924L45.7581 4.1598C45.7045 4.16944 45.7045 4.16944 45.6899 4.17426C45.3489 4.20801 45.0031 4.11159 44.7352 3.89463C44.4673 3.67768 44.2968 3.36913 44.2627 3.02683C44.2286 2.68453 44.326 2.34705 44.5452 2.08189C44.7644 1.81673 45.0761 1.64799 45.422 1.60942C45.4756 1.59977 45.4756 1.59977 45.4902 1.59495L45.4756 1.47442C45.4658 1.37318 45.4561 1.27194 45.3928 1.18034L45.3392 1.18998C44.9982 1.22373 44.6524 1.1273 44.3845 0.910352C44.1166 0.693401 43.9461 0.384848 43.912 0.0425473C43.912 0.0280839 43.9071 0.0184416 43.9022 -0.000842895C43.7999 -0.0104852 43.7025 -0.00566403 43.5954 0.00879938L43.4736 0.0184416C43.4736 0.0184416 43.4833 0.066653 43.4833 0.0907587C43.5174 0.433059 43.4151 0.770539 43.2008 1.0357C42.9816 1.30086 42.6699 1.4696 42.324 1.50817C42.1535 1.52746 41.9879 1.50817 41.8174 1.45996C41.6518 1.41175 41.5008 1.33461 41.3693 1.22373C41.2378 1.11766 41.1306 0.98749 41.043 0.838035C40.965 0.688579 40.9066 0.524661 40.892 0.355921C40.8871 0.336637 40.8822 0.30771 40.8822 0.283604L40.4584 0.326994C40.4584 0.326994 40.4633 0.375206 40.4682 0.399311C40.5023 0.741612 40.4049 1.07909 40.1857 1.34425C39.9665 1.60942 39.6547 1.77816 39.3089 1.81673C39.1384 1.83601 38.9679 1.81673 38.8072 1.76851C38.6415 1.7203 38.4906 1.64316 38.359 1.53228C38.2275 1.42621 38.1204 1.29604 38.0327 1.14659C37.9547 0.997132 37.8963 0.833214 37.8817 0.664474C37.8768 0.645189 37.8768 0.616262 37.8719 0.592157L37.4482 0.635547C37.4482 0.635547 37.4579 0.683758 37.4579 0.707864C37.492 1.05016 37.3946 1.38764 37.1754 1.65281C36.9562 1.91797 36.6444 2.08671 36.2986 2.12528C36.1281 2.14456 35.9528 2.12528 35.792 2.07707C35.6264 2.02886 35.4705 1.95172 35.3439 1.84083C35.2124 1.73477 35.1052 1.6046 35.0175 1.45514C34.9396 1.30568 34.8811 1.14177 34.8665 0.973027C34.8617 0.953742 34.8617 0.924815 34.8568 0.90071L34.433 0.9441C34.433 0.9441 34.4427 0.992311 34.4427 1.01642C34.4768 1.35872 34.3794 1.6962 34.1602 1.96136C33.941 2.22652 33.6293 2.39526 33.2835 2.43383C33.113 2.45312 32.9474 2.43383 32.7769 2.38562C32.6113 2.33741 32.4554 2.26027 32.3287 2.14938C32.1972 2.04332 32.0901 1.91315 32.0024 1.76369C31.9244 1.61424 31.866 1.45032 31.8514 1.28158C31.8465 1.26229 31.8416 1.23337 31.8416 1.20926L31.4179 1.25265C31.4179 1.25265 31.4227 1.30086 31.4276 1.32497C31.4666 1.66727 31.3643 2.00475 31.1451 2.26991C30.9259 2.53507 30.6141 2.70381 30.2683 2.74238C30.0978 2.76167 29.9225 2.74238 29.7617 2.69417C29.5961 2.64596 29.4451 2.56882 29.3136 2.45794C29.1821 2.35187 29.0749 2.2217 28.9872 2.07225C28.9093 1.92279 28.8508 1.75887 28.8362 1.59013C28.8314 1.57085 28.8265 1.54192 28.8265 1.51781L28.4027 1.56121C28.4027 1.56121 28.4125 1.60942 28.4125 1.63352C28.4465 1.97582 28.3491 2.3133 28.1299 2.57846C27.9107 2.84363 27.599 3.01237 27.2532 3.05094C27.0827 3.07022 26.9122 3.05094 26.7514 3.00272C26.5858 2.95451 26.4348 2.87737 26.3033 2.76649C26.1718 2.66042 26.0646 2.53025 25.977 2.3808C25.899 2.23134 25.8406 2.06742 25.8259 1.89868C25.8211 1.8794 25.8162 1.85047 25.8162 1.82637L25.3924 1.86976C25.3924 1.86976 25.4022 1.91797 25.4022 1.94207C25.4363 2.28438 25.3389 2.62185 25.1197 2.88702C24.9005 3.15218 24.5887 3.32092 24.2429 3.35949C24.0724 3.37877 23.9068 3.35949 23.7363 3.31128C23.5707 3.26307 23.4148 3.18593 23.2882 3.07504C23.1518 2.96898 23.0495 2.83881 22.9618 2.68935C22.8839 2.5399 22.8254 2.37598 22.8108 2.20724C22.8108 2.18795 22.8011 2.15903 22.8011 2.13492L22.3773 2.17831C22.3773 2.17831 22.387 2.22652 22.387 2.25063C22.4065 2.41937 22.3675 2.59293 22.3383 2.75203C22.2896 2.91594 22.2117 3.0654 22.0996 3.19557C21.9973 3.32574 21.861 3.43663 21.71 3.51859C21.559 3.60055 21.3982 3.64876 21.2277 3.66804C20.8868 3.70179 20.5409 3.60055 20.273 3.38842C20.0051 3.17146 19.8346 2.86291 19.7957 2.52061C19.7908 2.50133 19.7859 2.4724 19.7859 2.44829L19.3621 2.49168C19.3621 2.49168 19.3719 2.5399 19.3719 2.564C19.3914 2.73274 19.3524 2.9063 19.3232 3.0654C19.2745 3.22932 19.1965 3.37877 19.0845 3.50894C18.9822 3.63911 18.8458 3.75 18.6948 3.83196C18.5487 3.91392 18.3831 3.96213 18.2126 3.98142C17.8716 4.01516 17.5258 3.91392 17.2579 3.70179C16.99 3.48484 16.8195 3.17629 16.7854 2.83398C16.7805 2.8147 16.7756 2.78577 16.7756 2.76167L16.3519 2.80506C16.3519 2.80506 16.3616 2.85327 16.3616 2.87737C16.3811 3.04611 16.3421 3.21968 16.3129 3.37877C16.2642 3.54269 16.1862 3.69215 16.0742 3.82232C15.9719 3.95249 15.8355 4.06337 15.6845 4.14533C15.5335 4.22729 15.3728 4.2755 15.2023 4.29479C14.8613 4.32854 14.5155 4.23211 14.2476 4.01516C13.9797 3.79821 13.8043 3.48966 13.7702 3.14736C13.7654 3.12807 13.7605 3.09915 13.7605 3.07504L13.3367 3.11843C13.3367 3.11843 13.3464 3.16664 13.3464 3.19075C13.3659 3.35949 13.327 3.53305 13.2977 3.69215C13.249 3.85607 13.1711 4.00552 13.0591 4.13569C12.9568 4.26586 12.8204 4.37675 12.6694 4.45871C12.5184 4.54067 12.3576 4.58888 12.1871 4.60816C11.8462 4.64191 11.5003 4.54549 11.2324 4.32854C10.9645 4.11159 10.794 3.80303 10.7551 3.46073C10.7502 3.44145 10.7453 3.41252 10.7453 3.38842L10.3216 3.43181C10.3216 3.43181 10.3313 3.48002 10.3313 3.50412C10.3508 3.67286 10.3118 3.84642 10.2826 4.00552C10.2339 4.16944 10.1559 4.31889 10.0439 4.44907C9.94162 4.57924 9.80523 4.69012 9.65423 4.77208C9.5081 4.85404 9.34249 4.90225 9.172 4.92154C8.83103 4.95528 8.48519 4.85886 8.21728 4.64191C7.94938 4.42496 7.77889 4.11641 7.7448 3.77411C7.73993 3.75482 7.73506 3.72589 7.73506 3.70179L7.31128 3.74518C7.31128 3.74518 7.31615 3.79339 7.32102 3.8175C7.3405 3.98624 7.30154 4.1598 7.27231 4.31889C7.2236 4.48281 7.14566 4.63227 7.03363 4.76244C6.93134 4.89261 6.79495 5.0035 6.64395 5.08546C6.49295 5.16741 6.33221 5.21563 6.16172 5.23491C5.82075 5.26866 5.47491 5.17224 5.20701 4.95528C4.9391 4.73833 4.76375 4.42978 4.72965 4.08748C4.72478 4.0682 4.71991 4.03927 4.71991 4.01516L4.29613 4.05855C4.29613 4.05855 4.30587 4.10676 4.30587 4.13087C4.32536 4.29961 4.28639 4.47317 4.25716 4.63227C4.20845 4.79619 4.13052 4.94564 4.01848 5.07581C3.91619 5.20598 3.7798 5.31687 3.6288 5.39883C3.4778 5.48079 3.31706 5.529 3.14657 5.54828C2.8056 5.58203 2.45976 5.48079 2.19186 5.26866C1.92395 5.05171 1.7486 4.74316 1.7145 4.40085C1.70963 4.38157 1.70963 4.35264 1.70476 4.32854L1.61708 4.30443L1.53914 4.39121Z" fill="#000000"/>
<path d="M3.70703 7.70491L41.9931 3.72266L46.0214 41.6409L7.73535 45.6231L3.70703 7.70491Z" fill="#FCB91D"/>
<path d="M33.8729 11.4695C33.1033 6.63868 28.0375 7.0774 25.7335 7.43899C20.5508 8.24894 15.9282 12.5542 16.6491 17.0813C17.672 23.5078 27.3604 23.8067 28.6561 31.9159C29.1627 35.1075 28.2908 38.2943 24.847 38.8342C22.8012 39.1524 20.3364 38.2557 19.8737 35.3678C19.4012 32.3932 20.731 30.6817 24.2138 29.8283C23.6195 28.329 22.2946 27.8758 20.3364 28.1795C16.9852 28.705 14.2769 31.3374 14.9248 35.3919C15.9136 41.6016 22.1728 41.375 25.6556 40.8302C32.6649 39.7358 36.5715 35.1027 35.6021 29.0184C34.0678 19.4002 24.2089 20.5428 23.1275 13.7691C22.7525 11.3971 24.1845 9.75796 26.5811 9.38191C28.8899 9.02032 29.981 10.2642 30.2197 11.7732C30.4438 13.1954 29.9177 14.9166 28.8509 15.7892C29.5183 16.3484 30.2587 16.4979 30.9552 16.387C33.2202 16.0351 34.2675 13.9234 33.8729 11.4646V11.4695Z" fill="#000000"/>
</g>
<defs>
<clipPath id="clip0_1868_1332">
<rect width="209" height="50" fill="#000000"/>
</clipPath>
</defs>
</svg>
