<?xml version="1.0" encoding="UTF-8" standalone="no"?>
<!DOCTYPE svg PUBLIC "-//W3C//DTD SVG 1.1//EN" "http://www.w3.org/Graphics/SVG/1.1/DTD/svg11.dtd">
<svg xmlns="http://www.w3.org/2000/svg" version="1.1" viewBox="0.00 0.00 32.00 32.00">
<path fill="#146ef6" d="
  M 28.97 0.00
  Q 31.28 0.67 32.00 2.96
  L 32.00 29.09
  Q 31.27 31.21 29.15 32.00
  L 3.03 32.00
  Q 0.82 31.36 0.00 29.13
  L 0.00 3.53
  Q 0.32 0.88 2.96 0.00
  L 28.97 0.00
  Z
  M 29.9685 3.6856
  A 1.71 1.71 0.0 0 0 28.2555 1.9786
  L 3.6756 2.0215
  A 1.71 1.71 0.0 0 0 1.9686 3.7345
  L 2.0115 28.3144
  A 1.71 1.71 0.0 0 0 3.7245 30.0214
  L 28.3044 29.9785
  A 1.71 1.71 0.0 0 0 30.0114 28.2655
  L 29.9685 3.6856
  Z"
/>
<path fill="#146ef6" d="
  M 18.98 13.57
  L 20.94 10.16
  A 0.82 0.81 -74.3 0 1 21.64 9.76
  L 26.35 9.76
  A 0.33 0.32 -75.0 0 1 26.63 10.25
  L 20.12 21.53
  A 1.22 1.21 15.0 0 1 19.07 22.13
  L 14.94 22.13
  A 0.43 0.43 0.0 0 1 14.56 21.49
  L 16.69 17.70
  A 0.20 0.19 38.4 0 0 16.66 17.46
  L 16.65 17.46
  A 0.16 0.14 -47.9 0 0 16.45 17.48
  Q 12.73 21.53 7.32 22.12
  A 0.52 0.51 -3.5 0 1 6.74 21.61
  L 6.74 17.74
  A 0.53 0.53 0.0 0 1 7.23 17.21
  Q 9.31 17.03 11.57 15.35
  A 0.27 0.27 0.0 0 0 11.41 14.87
  L 7.29 14.87
  A 0.54 0.53 0.0 0 1 6.75 14.34
  L 6.75 10.41
  A 0.67 0.67 0.0 0 1 7.42 9.74
  L 11.25 9.74
  A 0.66 0.66 0.0 0 1 11.91 10.40
  L 11.91 13.49
  A 0.25 0.25 0.0 0 0 12.38 13.61
  L 14.43 10.08
  A 0.66 0.65 -75.0 0 1 15.00 9.74
  L 18.06 9.74
  A 0.67 0.67 0.0 0 1 18.72 10.49
  Q 18.44 12.91 18.54 13.50
  A 0.24 0.24 0.0 0 0 18.98 13.57
  Z"
/>
</svg>
