<svg width="32" height="33" viewBox="0 0 32 33" fill="none" xmlns="http://www.w3.org/2000/svg" style="fill: none !important;"> <path d="M10.9946 15.1348C10.6339 14.738 10.0928 14.7741 9.84022 15.2431L3.99589 26.9678C3.77944 27.4368 4.10411 27.978 4.60917 27.978H12.7624C13.0149 27.978 13.2675 27.8337 13.3757 27.5811C15.1434 23.9374 14.0611 18.4178 10.9946 15.1348Z" fill="#000000" style="fill: #000000 !important;"/> <path d="M15.289 4.44981C12.0061 9.64478 12.2225 15.3809 14.3871 19.71C16.5517 24.0392 18.2112 27.3221 18.3194 27.5747C18.4277 27.8272 18.6802 27.9715 18.9327 27.9715H27.086C27.591 27.9715 27.9518 27.4303 27.6992 26.9614C27.6992 26.9614 16.7321 5.02703 16.4435 4.48588C16.227 3.98082 15.6137 3.94474 15.289 4.44981Z" fill="#000000" style="fill: #000000 !important;"/> </svg>