<?xml version="1.0" encoding="UTF-8" standalone="no"?>
<!DOCTYPE svg PUBLIC "-//W3C//DTD SVG 1.1//EN" "http://www.w3.org/Graphics/SVG/1.1/DTD/svg11.dtd">
<svg xmlns="http://www.w3.org/2000/svg" version="1.1" viewBox="0.00 0.00 400.00 400.00">
<g stroke-width="2.00" fill="none" stroke-linecap="butt">
<path stroke="#b8fbed" vector-effect="non-scaling-stroke" d="
  M 213.20 61.35
  L 169.16 96.95"
/>
<path stroke="#aef8e5" vector-effect="non-scaling-stroke" d="
  M 169.16 96.95
  Q 130.13 128.69 91.10 160.38
  Q 85.62 164.83 84.95 171.53
  Q 83.96 181.43 90.39 187.02
  Q 93.43 189.66 103.54 192.97
  Q 121.14 198.73 138.71 204.59"
/>
<path stroke="#b8fbed" vector-effect="non-scaling-stroke" d="
  M 138.71 204.59
  L 151.96 208.82
  A 1.22 1.22 0.0 0 0 153.47 208.11
  Q 155.79 202.28 156.20 200.94
  Q 161.04 185.23 164.91 173.44
  C 168.06 163.82 174.45 157.60 185.43 158.99"
/>
<path stroke="#c4fdf8" vector-effect="non-scaling-stroke" d="
  M 185.43 158.99
  Q 203.65 164.83 221.76 170.69
  C 226.48 172.21 227.57 166.88 228.82 163.61
  Q 237.69 140.46 241.99 129.54
  Q 255.58 95.01 264.25 72.44
  C 268.18 62.22 275.49 50.39 267.19 40.32
  Q 262.42 34.53 255.73 33.89
  Q 248.54 33.20 244.07 36.55
  Q 236.76 42.02 213.20 61.35"
/>
<path stroke="#7df9e6" vector-effect="non-scaling-stroke" d="
  M 185.43 158.99
  Q 194.38 129.23 203.37 99.38
  Q 209.01 80.66 213.20 61.35"
/>
<path stroke="#67f4d3" vector-effect="non-scaling-stroke" d="
  M 138.71 204.59
  Q 144.19 191.27 146.61 183.79
  Q 152.62 165.23 164.02 126.77
  Q 167.84 113.90 169.16 96.95"
/>
<path stroke="#998ca4" vector-effect="non-scaling-stroke" d="
  M 187.24 220.75
  Q 183.85 219.00 181.86 218.36
  Q 167.90 213.87 153.97 209.16
  A 0.58 0.57 -67.0 0 0 153.27 209.45
  Q 151.94 212.02 151.66 214.74"
/>
<path stroke="#ff99c0" vector-effect="non-scaling-stroke" d="
  M 151.66 214.74
  Q 151.07 216.13 149.61 220.57
  Q 120.64 309.20 114.11 329.12
  C 109.11 344.39 121.63 357.50 136.96 352.44
  C 140.38 351.31 145.04 346.81 148.07 344.07
  Q 199.72 297.34 251.48 250.75"
/>
<path stroke="#ffb9cf" vector-effect="non-scaling-stroke" d="
  M 251.48 250.75
  Q 268.99 234.98 286.42 219.16
  Q 291.69 214.37 291.64 207.49
  Q 291.57 198.85 286.12 193.68
  Q 283.52 191.23 274.21 188.10
  Q 261.99 183.99 249.74 180.04"
/>
<path stroke="#ff99c0" vector-effect="non-scaling-stroke" d="
  M 249.74 180.04
  L 225.71 172.11
  A 0.41 0.41 0.0 0 0 225.20 172.35
  Q 218.64 189.14 212.22 206.09
  Q 209.55 213.12 206.69 216.25
  Q 199.42 224.17 187.24 220.75"
/>
<path stroke="#ff5290" vector-effect="non-scaling-stroke" d="
  M 249.74 180.04
  L 251.48 250.75"
/>
<path stroke="#992665" vector-effect="non-scaling-stroke" d="
  M 151.66 214.74
  L 187.24 220.75"
/>
</g>
<path fill="#ffffff" d="
  M 400.00 0.00
  L 400.00 400.00
  L 0.00 400.00
  L 0.00 0.00
  L 400.00 0.00
  Z
  M 213.20 61.35
  L 169.16 96.95
  Q 130.13 128.69 91.10 160.38
  Q 85.62 164.83 84.95 171.53
  Q 83.96 181.43 90.39 187.02
  Q 93.43 189.66 103.54 192.97
  Q 121.14 198.73 138.71 204.59
  L 151.96 208.82
  A 1.22 1.22 0.0 0 0 153.47 208.11
  Q 155.79 202.28 156.20 200.94
  Q 161.04 185.23 164.91 173.44
  C 168.06 163.82 174.45 157.60 185.43 158.99
  Q 203.65 164.83 221.76 170.69
  C 226.48 172.21 227.57 166.88 228.82 163.61
  Q 237.69 140.46 241.99 129.54
  Q 255.58 95.01 264.25 72.44
  C 268.18 62.22 275.49 50.39 267.19 40.32
  Q 262.42 34.53 255.73 33.89
  Q 248.54 33.20 244.07 36.55
  Q 236.76 42.02 213.20 61.35
  Z
  M 187.24 220.75
  Q 183.85 219.00 181.86 218.36
  Q 167.90 213.87 153.97 209.16
  A 0.58 0.57 -67.0 0 0 153.27 209.45
  Q 151.94 212.02 151.66 214.74
  Q 151.07 216.13 149.61 220.57
  Q 120.64 309.20 114.11 329.12
  C 109.11 344.39 121.63 357.50 136.96 352.44
  C 140.38 351.31 145.04 346.81 148.07 344.07
  Q 199.72 297.34 251.48 250.75
  Q 268.99 234.98 286.42 219.16
  Q 291.69 214.37 291.64 207.49
  Q 291.57 198.85 286.12 193.68
  Q 283.52 191.23 274.21 188.10
  Q 261.99 183.99 249.74 180.04
  L 225.71 172.11
  A 0.41 0.41 0.0 0 0 225.20 172.35
  Q 218.64 189.14 212.22 206.09
  Q 209.55 213.12 206.69 216.25
  Q 199.42 224.17 187.24 220.75
  Z"
/>
<path fill="#89fbf1" d="
  M 185.43 158.99
  Q 194.38 129.23 203.37 99.38
  Q 209.01 80.66 213.20 61.35
  Q 236.76 42.02 244.07 36.55
  Q 248.54 33.20 255.73 33.89
  Q 262.42 34.53 267.19 40.32
  C 275.49 50.39 268.18 62.22 264.25 72.44
  Q 255.58 95.01 241.99 129.54
  Q 237.69 140.46 228.82 163.61
  C 227.57 166.88 226.48 172.21 221.76 170.69
  Q 203.65 164.83 185.43 158.99
  Z"
/>
<path fill="#70f6db" d="
  M 213.20 61.35
  Q 209.01 80.66 203.37 99.38
  Q 194.38 129.23 185.43 158.99
  C 174.45 157.60 168.06 163.82 164.91 173.44
  Q 161.04 185.23 156.20 200.94
  Q 155.79 202.28 153.47 208.11
  A 1.22 1.22 0.0 0 1 151.96 208.82
  L 138.71 204.59
  Q 144.19 191.27 146.61 183.79
  Q 152.62 165.23 164.02 126.77
  Q 167.84 113.90 169.16 96.95
  L 213.20 61.35
  Z"
/>
<path fill="#5df1ca" d="
  M 169.16 96.95
  Q 167.84 113.90 164.02 126.77
  Q 152.62 165.23 146.61 183.79
  Q 144.19 191.27 138.71 204.59
  Q 121.14 198.73 103.54 192.97
  Q 93.43 189.66 90.39 187.02
  Q 83.96 181.43 84.95 171.53
  Q 85.62 164.83 91.10 160.38
  Q 130.13 128.69 169.16 96.95
  Z"
/>
<path fill="#ff3281" d="
  M 249.74 180.04
  L 251.48 250.75
  Q 199.72 297.34 148.07 344.07
  C 145.04 346.81 140.38 351.31 136.96 352.44
  C 121.63 357.50 109.11 344.39 114.11 329.12
  Q 120.64 309.20 149.61 220.57
  Q 151.07 216.13 151.66 214.74
  L 187.24 220.75
  Q 199.42 224.17 206.69 216.25
  Q 209.55 213.12 212.22 206.09
  Q 218.64 189.14 225.20 172.35
  A 0.41 0.41 0.0 0 1 225.71 172.11
  L 249.74 180.04
  Z"
/>
<path fill="#fe729e" d="
  M 251.48 250.75
  L 249.74 180.04
  Q 261.99 183.99 274.21 188.10
  Q 283.52 191.23 286.12 193.68
  Q 291.57 198.85 291.64 207.49
  Q 291.69 214.37 286.42 219.16
  Q 268.99 234.98 251.48 250.75
  Z"
/>
<path fill="#331948" d="
  M 187.24 220.75
  L 151.66 214.74
  Q 151.94 212.02 153.27 209.45
  A 0.58 0.57 -67.0 0 1 153.97 209.16
  Q 167.90 213.87 181.86 218.36
  Q 183.85 219.00 187.24 220.75
  Z"
/>
</svg>
