<?xml version="1.0" encoding="UTF-8" standalone="no"?>
<!DOCTYPE svg PUBLIC "-//W3C//DTD SVG 1.1//EN" "http://www.w3.org/Graphics/SVG/1.1/DTD/svg11.dtd">
<svg xmlns="http://www.w3.org/2000/svg" version="1.1" viewBox="0.00 0.00 256.00 256.00">
<g stroke-width="2.00" fill="none" stroke-linecap="butt">
<path stroke="#0a1a35" vector-effect="non-scaling-stroke" d="
  M 205.27 25.92
  Q 183.58 27.17 161.97 27.17
  Q 130.86 27.18 99.76 27.08
  Q 71.25 26.99 52.04 24.99"
/>
<path stroke="#081a3e" vector-effect="non-scaling-stroke" d="
  M 242.28 70.23
  L 210.37 68.77"
/>
<path stroke="#838c9c" vector-effect="non-scaling-stroke" d="
  M 210.37 68.77
  C 190.14 39.22 147.20 40.36 128.36 70.81"
/>
<path stroke="#081a3e" vector-effect="non-scaling-stroke" d="
  M 128.36 70.81
  Q 114.47 70.30 100.74 70.23
  Q 57.38 70.01 13.88 70.01"
/>
<path stroke="#848da1" vector-effect="non-scaling-stroke" d="
  M 210.37 68.77
  Q 220.08 83.60 218.36 101.22"
/>
<path stroke="#8792aa" vector-effect="non-scaling-stroke" d="
  M 218.36 101.22
  Q 216.25 118.74 203.61 131.17"
/>
<path stroke="#899ab4" vector-effect="non-scaling-stroke" d="
  M 203.61 131.17
  Q 189.22 144.60 169.42 144.70
  A 1.83 1.78 26.4 0 0 168.36 145.04
  L 147.37 160.08"
/>
<path stroke="#8a9fb8" vector-effect="non-scaling-stroke" d="
  M 147.37 160.08
  L 128.94 173.26"
/>
<path stroke="#8aa6bf" vector-effect="non-scaling-stroke" d="
  M 128.94 173.26
  L 124.74 176.22
  A 1.45 1.44 72.5 0 0 124.13 177.40
  Q 124.02 190.91 115.18 201.22"
/>
<path stroke="#89afc9" vector-effect="non-scaling-stroke" d="
  M 115.18 201.22
  C 103.83 213.38 86.76 216.73 71.82 208.96"
/>
<path stroke="#8aa6bf" vector-effect="non-scaling-stroke" d="
  M 71.82 208.96
  Q 58.00 201.10 54.05 185.69
  A 0.86 0.85 -86.5 0 0 53.55 185.12
  L 5.51 165.27"
/>
<path stroke="#8792aa" vector-effect="non-scaling-stroke" d="
  M 0.39 119.67
  Q 24.14 129.19 47.68 139.17
  Q 49.14 139.79 50.82 140.18
  A 2.15 2.12 -27.1 0 1 51.17 140.29
  L 68.40 147.67
  A 1.27 1.26 -49.5 0 0 69.61 147.57
  Q 78.55 141.87 89.32 142.10
  A 1.29 1.29 0.0 0 0 90.40 141.54
  L 113.92 107.37"
/>
<path stroke="#848da1" vector-effect="non-scaling-stroke" d="
  M 113.92 107.37
  L 120.92 97.07
  A 2.12 2.08 -28.0 0 0 121.28 95.93
  Q 121.60 82.41 128.36 70.81"
/>
<path stroke="#8792aa" vector-effect="non-scaling-stroke" d="
  M 139.32 106.28
  A 32.43 32.42 86.9 0 0 163.13 127.62
  A 32.41 32.36 -49.0 0 0 181.34 126.33
  A 32.42 32.40 88.6 0 0 200.94 105.77"
/>
<path stroke="#848da1" vector-effect="non-scaling-stroke" d="
  M 200.94 105.77
  A 32.41 32.25 54.5 0 0 202.46 96.50"
/>
<path stroke="#89afc9" vector-effect="non-scaling-stroke" d="
  M 202.46 96.50
  A 11.17 2.99 89.6 0 0 202.45 94.92"
/>
<path stroke="#848da1" vector-effect="non-scaling-stroke" d="
  M 202.45 94.92
  A 32.51 32.42 27.2 0 0 196.92 77.82
  A 32.46 32.42 -7.6 0 0 180.49 65.26
  A 32.42 32.41 -58.8 0 0 146.58 73.58
  A 32.41 32.41 0.0 0 0 139.32 106.28"
/>
<path stroke="#0e3d6b" vector-effect="non-scaling-stroke" d="
  M 202.45 94.92
  Q 201.75 96.24 202.46 96.50"
/>
<path stroke="#0b1f4c" vector-effect="non-scaling-stroke" d="
  M 200.94 105.77
  L 194.87 105.45
  A 0.47 0.47 0.0 0 1 194.42 104.91
  Q 195.63 96.43 193.34 88.58"
/>
<path stroke="#848da1" vector-effect="non-scaling-stroke" d="
  M 193.34 88.58
  Q 189.05 76.94 178.47 73.08
  C 170.68 70.25 161.79 71.34 155.29 76.52
  Q 143.34 86.04 146.43 101.75"
/>
<path stroke="#0b1f4c" vector-effect="non-scaling-stroke" d="
  M 146.43 101.75
  L 139.32 106.28"
/>
<path stroke="#8792aa" vector-effect="non-scaling-stroke" d="
  M 193.34 88.58
  C 196.94 101.92 190.38 114.78 177.28 119.09
  C 163.65 123.57 150.06 115.06 146.43 101.75"
/>
<path stroke="#8aa6bf" vector-effect="non-scaling-stroke" d="
  M 97.96 160.06
  C 118.99 174.34 102.58 205.30 79.34 195.82
  Q 67.74 191.09 64.82 189.73
  A 0.29 0.29 0.0 0 0 64.41 190.03
  Q 64.50 190.74 64.99 191.51
  Q 71.79 202.13 82.94 204.33
  C 105.46 208.79 123.33 186.26 113.12 165.47"
/>
<path stroke="#899ab4" vector-effect="non-scaling-stroke" d="
  M 113.12 165.47
  C 106.35 152.55 93.71 147.85 79.75 151.52
  A 0.44 0.43 -41.0 0 0 79.69 152.34
  L 97.96 160.06"
/>
<path stroke="#144174" vector-effect="non-scaling-stroke" d="
  M 113.12 165.47
  Q 105.15 163.47 97.96 160.06"
/>
<path stroke="#0b1f4c" vector-effect="non-scaling-stroke" d="
  M 254.12 106.02
  Q 250.20 106.81 247.22 106.83
  Q 236.26 106.89 223.36 106.95
  Q 221.01 106.96 218.77 106.50
  A 0.43 0.43 0.0 0 1 218.45 105.94
  Q 219.14 103.84 218.36 101.22"
/>
<path stroke="#0b1f4c" vector-effect="non-scaling-stroke" d="
  M 113.92 107.37
  Q 70.77 106.29 32.30 107.13
  Q 18.11 107.44 1.33 109.24"
/>
<path stroke="#112d5e" vector-effect="non-scaling-stroke" d="
  M 256.00 131.90
  Q 229.85 134.17 203.61 131.17"
/>
<path stroke="#143a6d" vector-effect="non-scaling-stroke" d="
  M 250.79 164.27
  Q 212.97 163.51 194.54 163.69
  Q 169.48 163.93 147.37 160.08"
/>
<path stroke="#144578" vector-effect="non-scaling-stroke" d="
  M 245.65 178.50
  C 218.78 176.56 194.32 176.86 168.62 176.90
  Q 148.64 176.93 128.94 173.26"
/>
<path stroke="#145689" vector-effect="non-scaling-stroke" d="
  M 71.82 208.96
  L 31.92 212.52"
/>
<path stroke="#145689" vector-effect="non-scaling-stroke" d="
  M 230.03 205.23
  C 202.39 202.95 176.36 203.52 149.54 203.47
  Q 135.05 203.45 115.18 201.22"
/>
<path stroke="#136699" vector-effect="non-scaling-stroke" d="
  M 206.14 229.33
  Q 185.28 227.77 170.65 227.56
  Q 141.52 227.15 94.66 227.42
  Q 72.08 227.55 49.45 229.02"
/>
<path stroke="#1372a5" vector-effect="non-scaling-stroke" d="
  M 192.07 238.82
  Q 176.44 237.36 162.79 237.13
  Q 114.30 236.30 62.10 237.69"
/>
</g>
<path fill="#0d1b31" d="
  M 133.82 0.00
  Q 173.69 2.26 205.27 25.92
  Q 183.58 27.17 161.97 27.17
  Q 130.86 27.18 99.76 27.08
  Q 71.25 26.99 52.04 24.99
  Q 83.20 2.22 122.11 0.00
  L 133.82 0.00
  Z"
/>
<path fill="#071938" d="
  M 52.04 24.99
  Q 71.25 26.99 99.76 27.08
  Q 130.86 27.18 161.97 27.17
  Q 183.58 27.17 205.27 25.92
  Q 228.78 43.88 242.28 70.23
  L 210.37 68.77
  C 190.14 39.22 147.20 40.36 128.36 70.81
  Q 114.47 70.30 100.74 70.23
  Q 57.38 70.01 13.88 70.01
  Q 27.77 42.99 52.04 24.99
  Z"
/>
<path fill="#ffffff" d="
  M 210.37 68.77
  Q 220.08 83.60 218.36 101.22
  Q 216.25 118.74 203.61 131.17
  Q 189.22 144.60 169.42 144.70
  A 1.83 1.78 26.4 0 0 168.36 145.04
  L 147.37 160.08
  L 128.94 173.26
  L 124.74 176.22
  A 1.45 1.44 72.5 0 0 124.13 177.40
  Q 124.02 190.91 115.18 201.22
  C 103.83 213.38 86.76 216.73 71.82 208.96
  Q 58.00 201.10 54.05 185.69
  A 0.86 0.85 -86.5 0 0 53.55 185.12
  L 5.51 165.27
  Q 4.15 161.28 3.22 157.07
  Q -0.82 138.72 0.39 119.67
  Q 24.14 129.19 47.68 139.17
  Q 49.14 139.79 50.82 140.18
  A 2.15 2.12 -27.1 0 1 51.17 140.29
  L 68.40 147.67
  A 1.27 1.26 -49.5 0 0 69.61 147.57
  Q 78.55 141.87 89.32 142.10
  A 1.29 1.29 0.0 0 0 90.40 141.54
  L 113.92 107.37
  L 120.92 97.07
  A 2.12 2.08 -28.0 0 0 121.28 95.93
  Q 121.60 82.41 128.36 70.81
  C 147.20 40.36 190.14 39.22 210.37 68.77
  Z
  M 139.32 106.28
  A 32.43 32.42 86.9 0 0 163.13 127.62
  A 32.41 32.36 -49.0 0 0 181.34 126.33
  A 32.42 32.40 88.6 0 0 200.94 105.77
  A 32.41 32.25 54.5 0 0 202.46 96.50
  A 11.17 2.99 89.6 0 0 202.45 94.92
  A 32.51 32.42 27.2 0 0 196.92 77.82
  A 32.46 32.42 -7.6 0 0 180.49 65.26
  A 32.42 32.41 -58.8 0 0 146.58 73.58
  A 32.41 32.41 0.0 0 0 139.32 106.28
  Z
  M 97.96 160.06
  C 118.99 174.34 102.58 205.30 79.34 195.82
  Q 67.74 191.09 64.82 189.73
  A 0.29 0.29 0.0 0 0 64.41 190.03
  Q 64.50 190.74 64.99 191.51
  Q 71.79 202.13 82.94 204.33
  C 105.46 208.79 123.33 186.26 113.12 165.47
  C 106.35 152.55 93.71 147.85 79.75 151.52
  A 0.44 0.43 -41.0 0 0 79.69 152.34
  L 97.96 160.06
  Z"
/>
<path fill="#081a43" d="
  M 202.45 94.92
  Q 201.75 96.24 202.46 96.50
  A 32.41 32.25 54.5 0 1 200.94 105.77
  L 194.87 105.45
  A 0.47 0.47 0.0 0 1 194.42 104.91
  Q 195.63 96.43 193.34 88.58
  Q 189.05 76.94 178.47 73.08
  C 170.68 70.25 161.79 71.34 155.29 76.52
  Q 143.34 86.04 146.43 101.75
  L 139.32 106.28
  A 32.41 32.41 0.0 0 1 146.58 73.58
  A 32.42 32.41 -58.8 0 1 180.49 65.26
  A 32.46 32.42 -7.6 0 1 196.92 77.82
  A 32.51 32.42 27.2 0 1 202.45 94.92
  Z"
/>
<path fill="#081a43" d="
  M 242.28 70.23
  Q 250.85 87.23 254.12 106.02
  Q 250.20 106.81 247.22 106.83
  Q 236.26 106.89 223.36 106.95
  Q 221.01 106.96 218.77 106.50
  A 0.43 0.43 0.0 0 1 218.45 105.94
  Q 219.14 103.84 218.36 101.22
  Q 220.08 83.60 210.37 68.77
  L 242.28 70.23
  Z"
/>
<path fill="#081a43" d="
  M 128.36 70.81
  Q 121.60 82.41 121.28 95.93
  A 2.12 2.08 -28.0 0 1 120.92 97.07
  L 113.92 107.37
  Q 70.77 106.29 32.30 107.13
  Q 18.11 107.44 1.33 109.24
  Q 4.38 88.54 13.88 70.01
  Q 57.38 70.01 100.74 70.23
  Q 114.47 70.30 128.36 70.81
  Z"
/>
<path fill="#ffffff" d="
  M 193.34 88.58
  C 196.94 101.92 190.38 114.78 177.28 119.09
  C 163.65 123.57 150.06 115.06 146.43 101.75
  Q 143.34 86.04 155.29 76.52
  C 161.79 71.34 170.68 70.25 178.47 73.08
  Q 189.05 76.94 193.34 88.58
  Z"
/>
<path fill="#0e2454" d="
  M 200.94 105.77
  A 32.42 32.40 88.6 0 1 181.34 126.33
  A 32.41 32.36 -49.0 0 1 163.13 127.62
  A 32.43 32.42 86.9 0 1 139.32 106.28
  L 146.43 101.75
  C 150.06 115.06 163.65 123.57 177.28 119.09
  C 190.38 114.78 196.94 101.92 193.34 88.58
  Q 195.63 96.43 194.42 104.91
  A 0.47 0.47 0.0 0 0 194.87 105.45
  L 200.94 105.77
  Z"
/>
<path fill="#135f92" d="
  M 202.45 94.92
  A 11.17 2.99 89.6 0 1 202.46 96.50
  Q 201.75 96.24 202.45 94.92
  Z"
/>
<path fill="#0e2454" d="
  M 218.36 101.22
  Q 219.14 103.84 218.45 105.94
  A 0.43 0.43 0.0 0 0 218.77 106.50
  Q 221.01 106.96 223.36 106.95
  Q 236.26 106.89 247.22 106.83
  Q 250.20 106.81 254.12 106.02
  L 256.00 122.06
  L 256.00 131.90
  Q 229.85 134.17 203.61 131.17
  Q 216.25 118.74 218.36 101.22
  Z"
/>
<path fill="#0e2454" d="
  M 113.92 107.37
  L 90.40 141.54
  A 1.29 1.29 0.0 0 1 89.32 142.10
  Q 78.55 141.87 69.61 147.57
  A 1.27 1.26 -49.5 0 1 68.40 147.67
  L 51.17 140.29
  A 2.15 2.12 -27.1 0 0 50.82 140.18
  Q 49.14 139.79 47.68 139.17
  Q 24.14 129.19 0.39 119.67
  L 1.33 109.24
  Q 18.11 107.44 32.30 107.13
  Q 70.77 106.29 113.92 107.37
  Z"
/>
<path fill="#133568" d="
  M 203.61 131.17
  Q 229.85 134.17 256.00 131.90
  L 256.00 133.85
  Q 255.08 149.42 250.79 164.27
  Q 212.97 163.51 194.54 163.69
  Q 169.48 163.93 147.37 160.08
  L 168.36 145.04
  A 1.83 1.78 26.4 0 1 169.42 144.70
  Q 189.22 144.60 203.61 131.17
  Z"
/>
<path fill="#133568" d="
  M 113.12 165.47
  Q 105.15 163.47 97.96 160.06
  L 79.69 152.34
  A 0.44 0.43 -41.0 0 1 79.75 151.52
  C 93.71 147.85 106.35 152.55 113.12 165.47
  Z"
/>
<path fill="#144c7f" d="
  M 113.12 165.47
  C 123.33 186.26 105.46 208.79 82.94 204.33
  Q 71.79 202.13 64.99 191.51
  Q 64.50 190.74 64.41 190.03
  A 0.29 0.29 0.0 0 1 64.82 189.73
  Q 67.74 191.09 79.34 195.82
  C 102.58 205.30 118.99 174.34 97.96 160.06
  Q 105.15 163.47 113.12 165.47
  Z"
/>
<path fill="#143e71" d="
  M 147.37 160.08
  Q 169.48 163.93 194.54 163.69
  Q 212.97 163.51 250.79 164.27
  L 245.65 178.50
  C 218.78 176.56 194.32 176.86 168.62 176.90
  Q 148.64 176.93 128.94 173.26
  L 147.37 160.08
  Z"
/>
<path fill="#144c7f" d="
  M 71.82 208.96
  L 31.92 212.52
  Q 13.70 191.84 5.51 165.27
  L 53.55 185.12
  A 0.86 0.85 -86.5 0 1 54.05 185.69
  Q 58.00 201.10 71.82 208.96
  Z"
/>
<path fill="#144c7f" d="
  M 128.94 173.26
  Q 148.64 176.93 168.62 176.90
  C 194.32 176.86 218.78 176.56 245.65 178.50
  Q 239.46 192.81 230.03 205.23
  C 202.39 202.95 176.36 203.52 149.54 203.47
  Q 135.05 203.45 115.18 201.22
  Q 124.02 190.91 124.13 177.40
  A 1.45 1.44 72.5 0 1 124.74 176.22
  L 128.94 173.26
  Z"
/>
<path fill="#135f92" d="
  M 115.18 201.22
  Q 135.05 203.45 149.54 203.47
  C 176.36 203.52 202.39 202.95 230.03 205.23
  Q 219.65 218.93 206.14 229.33
  Q 185.28 227.77 170.65 227.56
  Q 141.52 227.15 94.66 227.42
  Q 72.08 227.55 49.45 229.02
  Q 39.97 221.69 31.92 212.52
  L 71.82 208.96
  C 86.76 216.73 103.83 213.38 115.18 201.22
  Z"
/>
<path fill="#136da0" d="
  M 206.14 229.33
  L 192.07 238.82
  Q 176.44 237.36 162.79 237.13
  Q 114.30 236.30 62.10 237.69
  L 49.45 229.02
  Q 72.08 227.55 94.66 227.42
  Q 141.52 227.15 170.65 227.56
  Q 185.28 227.77 206.14 229.33
  Z"
/>
<path fill="#1377a9" d="
  M 192.07 238.82
  Q 165.18 254.27 133.92 256.00
  L 122.16 256.00
  Q 89.81 254.26 62.10 237.69
  Q 114.30 236.30 162.79 237.13
  Q 176.44 237.36 192.07 238.82
  Z"
/>
</svg>
