<svg width="502" height="90" viewBox="0 0 502 90" fill="none" xmlns="http://www.w3.org/2000/svg">
<path fill-rule="evenodd" clip-rule="evenodd" d="M61.715 60.9581C62.8566 61.982 64.3593 62.601 66.0099 62.601C69.5546 62.601 72.4376 59.7104 72.4376 56.1533C72.4376 52.5828 69.5546 49.6897 66.0099 49.6897C64.1945 49.6897 62.5427 50.4595 61.3685 51.6805L48.9239 44.4605C49.0099 44.041 49.0548 43.5874 49.0548 43.1362C49.0548 39.5803 46.1718 36.6884 42.6271 36.6884C40.9777 36.6884 39.475 37.3038 38.3347 38.3302L26.0052 31.1893C26.0949 30.7685 26.1397 30.3161 26.1397 29.8625C26.1397 29.4101 26.0949 28.9601 26.0052 28.5369L38.3347 21.3972C39.475 22.4188 40.9777 23.0378 42.6271 23.0378C44.2813 23.0378 45.7828 22.4188 46.9219 21.3972L59.3289 28.5832C58.7654 31.7158 60.279 35.2498 63.8431 36.1193C64.1945 36.1753 66.3165 36.4708 68.1003 35.7812C70.3774 34.7816 71.9868 32.5075 71.9868 29.8625C71.9868 26.292 69.105 23.4135 65.5482 23.4135C63.6831 23.4135 62.2289 24.0325 61.1915 25.0127L48.9239 17.9168C49.0099 17.479 49.0548 17.0412 49.0548 16.5912C49.0548 13.0208 46.1718 10.1265 42.6271 10.1265C39.0691 10.1265 36.186 13.0208 36.186 16.5912C36.186 17.0412 36.2466 17.479 36.3218 17.9168L23.9935 25.0577C22.8532 24.0325 21.3468 23.4135 19.6975 23.4135C16.1528 23.4135 13.2698 26.292 13.2698 29.8625C13.2698 33.4184 16.1528 36.3127 19.6975 36.3127C21.3468 36.3127 22.8532 35.6949 23.9935 34.6722L36.3218 41.8106C36.2466 42.2484 36.186 42.6838 36.186 43.1362C36.186 46.7042 39.0691 49.5973 42.6271 49.5973C44.2813 49.5973 45.7828 48.9649 46.9219 47.941L59.627 55.3081C59.5979 55.5805 59.5701 55.8663 59.5701 56.1533C59.5701 56.6069 59.627 57.0422 59.7191 57.4764L47.3751 64.6185C46.2336 63.5946 44.7321 62.9768 43.0803 62.9768C41.2625 62.9768 39.6265 63.7308 38.4546 64.9517L26.0052 57.733C26.0949 57.311 26.1397 56.8769 26.1397 56.4099C26.1397 53.5496 24.2795 51.1211 21.7104 50.2771C19.7254 49.77 18.0894 50.1664 17.641 50.3002C15.1058 51.1612 13.2698 53.5679 13.2698 56.4099C13.2698 59.9779 16.1528 62.871 19.6975 62.871C21.3468 62.871 22.8532 62.2386 23.9935 61.2147L36.7108 68.5818C36.6659 68.8542 36.6538 69.1375 36.6538 69.4233C36.6538 72.995 39.5356 75.8747 43.0803 75.8747C46.6383 75.8747 49.5213 72.995 49.5213 69.4233C49.5213 68.9734 49.4777 68.5222 49.388 68.099L61.715 60.9581ZM4.8644 0H80.8419C83.5298 0 85.7038 2.18411 85.7038 4.88019V81.1221C85.7038 83.8158 83.5298 86.0011 80.8419 86.0011H4.8644C2.1765 86.0011 0 83.8158 0 81.1221V4.88019C0 2.18411 2.1765 0 4.8644 0ZM44.9552 16.5903C44.9552 17.872 43.907 18.9106 42.6273 18.9106C41.3366 18.9106 40.3005 17.872 40.3005 16.5903C40.3005 15.2951 41.3366 14.2554 42.6273 14.2554C43.907 14.2554 44.9552 15.2951 44.9552 16.5903ZM17.3831 29.8625C17.3831 28.5649 18.4192 27.5288 19.6977 27.5288C20.9884 27.5288 22.0257 28.5649 22.0257 29.8625C22.0257 31.1455 20.9884 32.1974 19.6977 32.1974C18.4192 32.1974 17.3831 31.1455 17.3831 29.8625ZM17.3831 56.4099C17.3831 55.1269 18.4192 54.0896 19.6977 54.0896C20.9884 54.0896 22.0257 55.1269 22.0257 56.4099C22.0257 57.7038 20.9884 58.7436 19.6977 58.7436C18.4192 58.7436 17.3831 57.7038 17.3831 56.4099ZM65.5484 32.1981C66.8378 32.1981 67.874 31.1449 67.874 29.8631C67.874 28.5656 66.8378 27.5295 65.5484 27.5295C64.2699 27.5295 63.2192 28.5656 63.2192 29.8631C63.2192 31.1449 64.2699 32.1981 65.5484 32.1981ZM42.6273 40.8022C41.3366 40.8022 40.3005 41.8541 40.3005 43.1358C40.3005 44.431 41.3366 45.4707 42.6273 45.4707C43.907 45.4707 44.9552 44.431 44.9552 43.1358C44.9552 41.8541 43.907 40.8022 42.6273 40.8022ZM43.0805 67.0901C41.8044 67.0901 40.7671 68.1299 40.7671 69.4238C40.7671 70.708 41.8044 71.7587 43.0805 71.7587C44.3711 71.7587 45.4085 70.708 45.4085 69.4238C45.4085 68.1299 44.3711 67.0901 43.0805 67.0901ZM63.6832 56.1536C63.6832 54.856 64.7193 53.8162 66.01 53.8162C67.2885 53.8162 68.3379 54.856 68.3379 56.1536C68.3379 57.4341 67.2885 58.4727 66.01 58.4727C64.7193 58.4727 63.6832 57.4341 63.6832 56.1536ZM94.7058 53.4351L106.262 52.3065C106.959 56.198 108.37 59.0595 110.496 60.8824C112.626 62.7114 115.494 63.6223 119.104 63.6223C122.93 63.6223 125.812 62.8112 127.753 61.1852C129.693 59.5618 130.663 57.6634 130.663 55.4878C130.663 54.0893 130.253 52.9036 129.438 51.9235C128.622 50.9421 127.198 50.092 125.163 49.3648C123.775 48.8808 120.603 48.0247 115.653 46.7879C109.287 45.2045 104.819 43.2588 102.25 40.9506C98.6395 37.7012 96.8326 33.7416 96.8326 29.0681C96.8326 26.0644 97.6821 23.2516 99.3812 20.6333C101.08 18.0151 103.528 16.0231 106.725 14.6525C109.922 13.2832 113.779 12.5998 118.302 12.5998C125.686 12.5998 131.245 14.2233 134.975 17.4715C138.708 20.7221 140.668 25.0562 140.855 30.48L128.977 31.003C128.469 27.9688 127.379 25.7883 125.708 24.4591C124.033 23.1312 121.527 22.4672 118.181 22.4672C114.729 22.4672 112.029 23.1762 110.076 24.599C108.818 25.5135 108.189 26.7332 108.189 28.2643C108.189 29.6604 108.777 30.8558 109.955 31.8481C111.454 33.1129 115.093 34.4263 120.87 35.7944C126.649 37.1649 130.923 38.5817 133.691 40.0422C136.462 41.5064 138.628 43.5056 140.194 46.0448C141.759 48.5816 142.541 51.7143 142.541 55.4477C142.541 58.8272 141.605 61.9988 139.731 64.9515C137.858 67.903 135.21 70.0992 131.785 71.5342C128.362 72.9729 124.095 73.6891 118.985 73.6891C111.548 73.6891 105.836 71.9659 101.85 68.5134C97.8615 65.0646 95.4814 60.0373 94.7058 53.4351ZM211.834 72.6409H223.111V59.4353C223.111 52.1582 223.423 47.3801 224.052 45.0975C224.68 42.8173 225.544 41.2364 226.64 40.3669C227.735 39.495 229.073 39.0584 230.653 39.0584C232.284 39.0584 234.051 39.6762 235.95 40.9105L239.442 31.0431C237.059 29.6215 234.586 28.9076 232.018 28.9076C230.199 28.9076 228.572 29.3661 227.144 30.277C225.711 31.1915 224.098 33.0837 222.306 35.9561V29.8756H211.834V72.6409ZM265.848 47.5934C265.768 44.3209 264.93 41.8279 263.323 40.1241C261.718 38.4192 259.763 37.5667 257.465 37.5667C255.001 37.5667 252.97 38.4678 251.363 40.2676C249.761 42.0638 248.969 44.5069 248.996 47.5934H265.848ZM265.21 59.032L276.445 60.923C275.001 65.059 272.719 68.2062 269.603 70.3672C266.484 72.5282 262.585 73.6118 257.902 73.6118C250.492 73.6118 245.01 71.1808 241.45 66.32C238.641 62.4273 237.237 57.5143 237.237 51.5822C237.237 44.4948 239.081 38.9433 242.774 34.929C246.468 30.9146 251.135 28.9081 256.781 28.9081C263.119 28.9081 268.123 31.0095 271.789 35.2123C275.453 39.4127 277.209 45.8495 277.048 54.5215H248.795C248.875 57.8767 249.784 60.4889 251.524 62.3531C253.263 64.2186 255.429 65.1514 258.023 65.1514C259.789 65.1514 261.276 64.6698 262.48 63.703C263.683 62.7362 264.591 61.1796 265.21 59.032ZM293.21 60.3394C291.456 58.2331 290.58 54.9095 290.58 50.3723C290.58 46.0503 291.456 42.8361 293.21 40.7286C294.961 38.6224 297.188 37.5668 299.889 37.5668C302.673 37.5668 304.976 38.6406 306.791 40.7894C308.611 42.9359 309.522 46.2266 309.522 50.6556C309.522 54.8974 308.574 58.0981 306.672 60.2591C304.772 62.4202 302.448 63.5 299.691 63.5C297.121 63.5 294.961 62.4506 293.21 60.3394ZM293.389 77.034L280.508 75.4616C280.483 75.9954 280.468 76.4551 280.468 76.8309C280.468 80.6433 281.978 83.7894 285.001 86.2739C288.024 88.7559 293.15 90 300.372 90C304.196 90 307.364 89.5975 309.863 88.7924C312.366 87.9873 314.365 86.8722 315.863 85.4481C317.362 84.0277 318.524 82.0662 319.354 79.5707C320.183 77.0717 320.598 73.3005 320.598 68.2513V29.8762H310.045V35.8752C306.62 31.2297 302.272 28.9082 297.002 28.9082C291.894 28.9082 287.619 30.8004 284.18 34.5873C280.743 38.373 279.022 43.8516 279.022 51.018C279.022 56.7361 280.334 61.5154 282.956 65.3534C286.298 70.2129 290.836 72.6414 296.562 72.6414C301.698 72.6414 305.954 70.3345 309.321 65.7145V71.958C309.321 74.4802 309.148 76.2119 308.8 77.1519C308.291 78.469 307.544 79.4212 306.552 80.0098C305.082 80.8963 302.875 81.3426 299.932 81.3426C297.628 81.3426 295.944 80.9401 294.876 80.135C294.099 79.5707 293.605 78.5346 293.389 77.034ZM403.202 72.6409H391.926V50.8156C391.926 46.1993 391.685 43.2126 391.203 41.8554C390.719 40.4995 389.936 39.4463 388.854 38.6948C387.771 37.9444 386.468 37.5675 384.945 37.5675C382.989 37.5675 381.237 38.1062 379.685 39.1751C378.134 40.2526 377.07 41.6742 376.494 43.4461C375.919 45.2203 375.633 48.4929 375.633 53.2733V72.6409H364.356V29.8756H374.83V36.1592C378.548 31.3252 383.232 28.9076 388.876 28.9076C391.363 28.9076 393.635 29.36 395.697 30.2587C397.756 31.1586 399.316 32.3054 400.374 33.7003C401.432 35.0976 402.166 36.6821 402.579 38.4516C402.994 40.2234 403.202 42.7602 403.202 46.0643V72.6409ZM417.575 72.6415H406.299V29.8762H417.575V72.6415ZM417.575 24.0755H406.299V13.6049H417.575V24.0755ZM420.476 60.4431L431.79 58.7077C432.27 60.9125 433.248 62.5822 434.72 63.7217C436.19 64.8648 438.251 65.434 440.898 65.434C443.816 65.434 446.007 64.8965 447.482 63.8239C448.47 63.0735 448.967 62.0666 448.967 60.8043C448.967 59.9433 448.699 59.2331 448.167 58.6676C447.601 58.1337 446.344 57.6351 444.388 57.1791C435.297 55.1665 429.532 53.3265 427.094 51.6605C423.724 49.3511 422.04 46.1443 422.04 42.0363C422.04 38.3333 423.496 35.2176 426.409 32.6942C429.328 30.1708 433.851 28.9073 439.975 28.9073C445.811 28.9073 450.145 29.8619 452.978 31.7676C455.816 33.6744 457.768 36.4945 458.838 40.2243L448.204 42.1992C447.75 40.5344 446.888 39.2599 445.617 38.3734C444.343 37.4881 442.533 37.0442 440.178 37.0442C437.208 37.0442 435.082 37.4613 433.797 38.2907C432.937 38.8829 432.514 39.6479 432.514 40.5855C432.514 41.3917 432.888 42.0764 433.635 42.6419C434.653 43.3922 438.164 44.4527 444.171 45.8208C450.176 47.1913 454.37 48.8695 456.752 50.8554C459.106 52.868 460.285 55.6748 460.285 59.2732C460.285 63.1927 458.652 66.5601 455.388 69.3814C452.124 72.1979 447.293 73.611 440.898 73.611C435.092 73.611 430.499 72.4277 427.116 70.0649C423.731 67.7044 421.517 64.4939 420.476 60.4431ZM488.264 40.1241C489.871 41.8279 490.712 44.3209 490.792 47.5934H473.938C473.909 44.5069 474.7 42.0638 476.304 40.2676C477.911 38.4678 479.942 37.5667 482.406 37.5667C484.705 37.5667 486.66 38.4192 488.264 40.1241ZM501.389 60.923L490.151 59.032C489.536 61.1796 488.624 62.7362 487.422 63.703C486.218 64.6698 484.733 65.1514 482.97 65.1514C480.37 65.1514 478.205 64.2186 476.466 62.3531C474.726 60.4889 473.817 57.8767 473.737 54.5215H501.99C502.151 45.8495 500.395 39.4127 496.733 35.2123C493.067 31.0095 488.066 28.9081 481.723 28.9081C476.077 28.9081 471.41 30.9146 467.717 34.929C464.025 38.9433 462.182 44.4948 462.182 51.5822C462.182 57.5143 463.585 62.4273 466.392 66.32C469.952 71.1808 475.436 73.6118 482.844 73.6118C487.529 73.6118 491.426 72.5282 494.544 70.3672C497.661 68.2062 499.943 65.059 501.389 60.923ZM348.45 52.1993L348.446 52.2037C348.446 52.2037 348.565 52.1928 348.756 52.1636L348.756 53.093V54.359C348.756 57.0733 348.612 58.9108 348.316 59.8752C347.887 61.3527 346.99 62.6029 345.627 63.622C343.783 64.9645 341.842 65.6334 339.807 65.6334C337.986 65.6334 336.491 65.0594 335.312 63.9065C334.136 62.7488 333.549 61.3795 333.549 59.7973C333.549 58.1848 334.283 56.858 335.754 55.8098C336.72 55.1665 338.766 54.5049 341.897 53.8348C343.849 53.4165 345.438 53.0383 346.732 52.6929C347.383 52.519 347.966 52.3561 348.45 52.1993ZM359.713 58.5899C359.713 62.3464 359.892 65.1191 360.254 66.9031C360.614 68.6895 361.292 70.6012 362.281 72.6406H351.125C350.83 71.8927 350.47 70.7776 350.042 69.3C349.852 68.6263 349.72 68.1873 349.641 67.9708C347.715 69.8509 345.653 71.2579 343.459 72.198C341.265 73.138 338.927 73.6111 336.439 73.6111C332.053 73.6111 328.592 72.4144 326.064 70.0272C323.535 67.6364 322.271 64.6168 322.271 60.9649C322.271 58.5461 322.846 56.3936 323.998 54.5001C325.147 52.6067 326.761 51.1583 328.832 50.1514C330.906 49.1432 333.897 48.2652 337.802 47.5149C341.473 46.8229 344.346 46.1638 346.442 45.5387C346.447 45.5378 346.448 45.5389 346.451 45.5386L346.452 45.5382L346.454 45.5375L346.488 45.5269L346.489 45.5265C346.543 45.5097 346.618 45.4864 346.712 45.456C346.806 45.428 346.908 45.3976 347 45.3697C347.279 45.2809 347.535 45.1946 347.783 45.107C348.619 44.8297 349.531 44.5245 349.531 44.5245H349.528C351.647 43.835 356.42 42.1422 359.554 39.9507C360.068 39.592 360.546 39.2223 360.951 38.838L361.627 38.1157C361.407 40.3971 360.847 42.2905 360.093 43.8982C359.956 44.8054 359.859 45.7856 359.822 46.801L359.807 48.3564L359.795 49.3974L359.713 58.5899ZM348.56 52.1661L348.559 52.1665L348.557 52.1671C348.529 52.1755 348.5 52.1838 348.474 52.192L348.522 52.1778C348.566 52.1648 348.612 52.1512 348.655 52.1376C348.624 52.1471 348.592 52.1567 348.56 52.1661ZM195.412 61.0049C193.417 63.2595 190.948 64.3893 188.006 64.3893C185.064 64.3893 182.59 63.2595 180.582 61.0049C178.577 58.749 177.573 55.4996 177.573 51.2579C177.573 47.0173 178.577 43.7679 180.582 41.5133C182.59 39.2599 185.064 38.1301 188.006 38.1301C190.948 38.1301 193.417 39.2599 195.412 41.5133C197.404 43.7679 198.403 46.9906 198.403 51.1776C198.403 55.4753 197.404 58.749 195.412 61.0049ZM203.819 35.2126C199.697 31.0098 194.413 28.9071 187.966 28.9071C185.167 28.9071 182.548 29.3352 180.104 30.1707V38.8974H180.104V30.1699C179.568 30.3523 179.043 30.5567 178.523 30.7768V38.8974H173.112H171.532H171.19H171.113H169.266L169.208 38.9968L169.207 38.9976L169.207 38.998L169.207 38.9983L169.207 38.9984L169.206 38.9986C169.063 39.243 168.919 39.4871 168.784 39.7426C166.938 43.2583 166.017 46.8956 166.017 50.6558C166.017 55.5664 166.938 59.7352 168.784 63.1573C170.631 66.583 173.326 69.1818 176.87 70.9512C180.415 72.7231 184.142 73.6108 188.047 73.6108C194.359 73.6108 199.598 71.479 203.757 67.2276C207.918 62.9712 209.999 57.6095 209.999 51.1374C209.999 44.7213 207.936 39.413 203.819 35.2126ZM167.312 29.8762H169.191V36.2303V38.8972H167.312H164.121H159.607V56.1305C159.607 59.6207 159.68 61.6552 159.828 62.2341C159.975 62.8117 160.308 63.2872 160.833 63.663C161.352 64.0376 161.987 64.2273 162.739 64.2273C163.781 64.2273 165.291 63.8649 167.272 63.1389L168.235 71.9179C165.613 73.044 162.644 73.6107 159.327 73.6107C157.293 73.6107 155.459 73.2653 153.829 72.5819C152.194 71.896 150.999 71.0131 150.235 69.9235C149.474 68.8363 148.945 67.366 148.652 65.5127C148.41 64.1993 148.289 61.5421 148.289 57.5424V38.8972H143.115V29.8762H148.289V21.3769L159.607 14.7759V29.8762H164.121H167.312ZM358.325 35.2509C358.742 36.0097 359.062 37.0532 359.303 38.3361C355.996 40.7343 350.065 42.7323 348.727 43.164C348.655 41.2353 348.143 39.8149 347.154 38.9551C346.082 38.0309 344.063 37.5676 341.093 37.5676C339.085 37.5676 337.522 37.9628 336.397 38.7545C335.274 39.5486 334.366 40.9374 333.67 42.922L323.435 41.0723C324.586 36.9364 326.566 33.8755 329.376 31.8896C332.183 29.9025 336.358 28.9077 341.897 28.9077C346.927 28.9077 350.671 29.5061 353.132 30.7003C355.594 31.8981 357.324 33.4134 358.325 35.2509Z" fill="#4188EF"/>
</svg>
