<?xml version="1.0" encoding="UTF-8"?>
<svg width="967px" height="199px" viewBox="0 0 967 199" version="1.1" xmlns="http://www.w3.org/2000/svg" xmlns:xlink="http://www.w3.org/1999/xlink">
    <!-- Generator: Sketch 64 (93537) - https://sketch.com -->
    <title>logo-for-white-bg</title>
    <desc>Created with Sketch.</desc>
    <defs>
        <linearGradient x1="69.5528777%" y1="32.7074676%" x2="0%" y2="98.7667811%" id="linearGradient-1">
            <stop stop-color="#8A24FF" offset="0%"></stop>
            <stop stop-color="#5129FF" offset="100%"></stop>
        </linearGradient>
    </defs>
    <g id="Press-Pack" stroke="none" stroke-width="1" fill="none" fill-rule="evenodd">
        <g id="logo-for-white-bg" transform="translate(-120.000000, -28.000000)">
            <g transform="translate(120.000000, 28.000000)">
                <g id="logo-mark">
                    <path d="M3.06877784,196.023681 C3.06877784,196.023681 -16.9818863,86.435848 45.4206912,24.7674187 C79.9978566,-9.40295703 137.285469,-7.98761599 173.499423,27.5981007 C209.713378,63.1838175 210.94097,119.999649 176.363805,154.170025 C114.165825,215.636263 3.06877784,196.023681 3.06877784,196.023681 Z" id="Shape-path" fill="url(#linearGradient-1)"></path>
                    <path d="M54.8852875,149.921007 C47.9779174,139.002262 45.8342508,130.952677 48.3748927,115.96929 C49.8833988,106.724222 55.1234727,96.8415628 58.6962504,91.42204 C55.7586332,112.781336 74.8928425,129.518097 87.6754471,128.880506 C67.8266822,105.289642 69.4145834,79.7860058 84.1026694,58.4267101 C91.6452001,47.4282668 99.1083356,39.697477 108.000582,34.8358462 C101.648978,41.5305508 100.458052,53.0071873 101.410792,61.9334602 C102.681113,73.5694944 109.509088,82.4957672 116.098878,90.0671593 C129.278458,104.811449 141.584692,127.047432 131.8191,147.848836 C126.102656,159.883365 111.73215,173.432172 93.9476568,172.15699 C75.7661882,171.120905 62.2690281,161.477342 54.8852875,149.921007 Z" id="Shape" fill="#000000" fill-rule="nonzero" transform="translate(91.339588, 103.538227) scale(1, -1) rotate(-49.000000) translate(-91.339588, -103.538227) "></path>
                </g>
                <path d="M244,134.811009 L254.712941,125.781651 C256.259616,128.316221 258.670572,130.409472 261.945882,132.061468 C265.221193,133.713464 269.019586,134.53945 273.341176,134.53945 C277.753748,134.53945 280.949402,133.792668 282.928235,132.299083 C284.907069,130.805497 285.896471,128.995118 285.896471,126.86789 C285.896471,126.053207 285.748629,125.306425 285.452941,124.627523 C285.157253,123.94862 284.656866,123.326303 283.951765,122.76055 C283.246663,122.194798 282.518827,121.696944 281.768235,121.266972 C281.017643,120.837001 280.005497,120.373091 278.731765,119.875229 C277.458033,119.377368 276.298044,118.958717 275.251765,118.619266 C274.205485,118.279815 272.806675,117.82722 271.055294,117.261468 C269.303913,116.695716 267.814124,116.186547 266.585882,115.733945 C260.94507,113.697238 256.646289,111.162706 253.689412,108.130275 C250.732534,105.097844 249.254118,101.04712 249.254118,95.9779817 C249.254118,91.6330058 250.402734,87.8425238 252.7,84.606422 C254.997266,81.3703202 258.010962,78.9602526 261.741176,77.3761468 C265.471391,75.792041 269.610958,75 274.16,75 C284.031422,75 291.628209,78.439721 296.950588,85.3192661 L287.602353,95.1633028 C284.509004,91.2709286 279.937285,89.3247706 273.887059,89.3247706 C271.248614,89.3247706 269.167459,89.8905142 267.643529,91.0220183 C266.1196,92.1535225 265.357647,93.6697153 265.357647,95.5706422 C265.357647,96.340065 265.459999,97.0076424 265.664706,97.5733945 C265.869413,98.1391466 266.256076,98.6822604 266.824706,99.2027523 C267.393336,99.7232442 267.97333,100.153209 268.564706,100.492661 C269.156081,100.832112 270.031759,101.239447 271.191765,101.714679 C272.351771,102.189911 273.398035,102.585931 274.330588,102.902752 C275.263142,103.219573 276.616462,103.672168 278.390588,104.26055 C280.164715,104.848933 281.734111,105.392046 283.098824,105.889908 C289.649445,108.243437 294.43724,111.049525 297.462353,114.308257 C300.487466,117.566989 302,121.708232 302,126.73211 C302,133.204314 299.566299,138.533618 294.698824,142.720183 C289.831348,146.906749 282.621224,149 273.068235,149 C265.971729,149 259.910221,147.72142 254.883529,145.16422 C249.856838,142.607021 246.229031,139.155985 244,134.811009 Z M308,89.5753329 L308,80.5732306 C308,78.9163763 309.343146,77.5732306 311,77.5732306 L316.837209,77.5732306 L316.837209,77.5732306 L316.837209,54 C316.837209,52.3431458 318.180355,51 319.837209,51 L330.182724,51 C331.839579,51 333.182724,52.3431458 333.182724,54 L333.182724,77.5732306 L333.182724,77.5732306 L345,77.5732306 C346.656854,77.5732306 348,78.9163763 348,80.5732306 L348,89.5753329 C348,91.2321871 346.656854,92.5753329 345,92.5753329 L333.182724,92.5753329 L333.182724,92.5753329 L333.182724,144 C333.182724,145.656854 331.839579,147 330.182724,147 L319.837209,147 C318.180355,147 316.837209,145.656854 316.837209,144 L316.837209,92.5753329 L316.837209,92.5753329 L311,92.5753329 C309.343146,92.5753329 308,91.2321871 308,89.5753329 Z M359.057675,130.804388 C355.685875,125.122458 354,118.854391 354,112 C354,105.145609 355.697114,98.8775421 359.091393,93.1956124 C362.485672,87.5136827 367.09373,83.0606499 372.915705,79.8363803 C378.737681,76.6121106 385.110288,75 392.033718,75 C398.957148,75 405.318516,76.6121106 411.118012,79.8363803 C416.917509,83.0606499 421.514328,87.5136827 424.908607,93.1956124 C428.302886,98.8775421 430,105.145609 430,112 C430,118.854391 428.302886,125.122458 424.908607,130.804388 C421.514328,136.486317 416.917509,140.93935 411.118012,144.16362 C405.318516,147.387889 398.957148,149 392.033718,149 C385.110288,149 378.737681,147.387889 372.915705,144.16362 C367.09373,140.93935 362.474433,136.486317 359.057675,130.804388 Z M377.046948,97.2472952 C373.015629,101.367872 371,106.463133 371,112.53323 C371,118.603328 373.015629,123.698588 377.046948,127.819165 C381.078267,131.939742 386.073523,134 392.032864,134 C397.948386,134 402.921733,131.939742 406.953052,127.819165 C410.984371,123.698588 413,118.603328 413,112.53323 C413,106.463133 410.984371,101.356796 406.953052,97.2140649 C402.921733,93.0713343 397.948386,91 392.032864,91 C386.073523,91 381.078267,93.0824109 377.046948,97.2472952 Z M441,144 L441,80.4159544 C441,78.7591002 442.343146,77.4159544 444,77.4159544 L453.966346,77.4159544 C455.6232,77.4159544 456.966346,78.7591002 456.966346,80.4159544 L456.966346,87.7321937 L456.966346,87.7321937 C458.587081,84.0911499 461.160506,81.2255565 464.686699,79.1353276 C468.212892,77.0450988 472.363224,76 477.137821,76 C479.065181,76 480.685891,76.1348515 482,76.4045584 L482,92.4520418 C479.897425,92.0025302 477.663473,91.7777778 475.298077,91.7777778 C469.691211,91.7777778 465.234258,93.4521833 461.927083,96.8010446 C458.619909,100.149906 456.966346,104.678667 456.966346,110.387464 L456.966346,144 C456.966346,145.656854 455.6232,147 453.966346,147 L444,147 C442.343146,147 441,145.656854 441,144 Z M491,112.172192 L491,111.634438 C491,100.655255 494.396731,91.8048218 501.190295,85.0828729 C507.983859,78.360924 516.597791,75 527.03235,75 C532.049819,75 536.689798,75.9074495 540.952426,77.7223757 C545.215055,79.5373019 548.800493,82.0243857 551.708849,85.1837017 C554.617205,88.3430176 556.892792,92.0512372 558.53568,96.3084715 C560.178568,100.565706 561,105.114156 561,109.953959 C561,111.970544 560.911197,113.897474 560.733587,115.734807 L507.251189,115.734807 C507.517604,121.246805 509.526781,125.660818 513.278782,128.97698 C517.030783,132.293141 521.926072,133.951197 527.964795,133.951197 C531.96101,133.951197 535.368841,133.312621 538.188392,132.035451 C541.007943,130.758281 543.794151,128.730523 546.547098,125.952118 L556.337774,135.564457 C552.119548,140.045756 547.634975,143.238634 542.88392,145.143186 C538.132866,147.047738 532.982267,148 527.43197,148 C516.553387,148 507.761848,144.739904 501.057088,138.219613 C494.352329,131.699323 491,123.016936 491,112.172192 Z M508,105 L546,105 C546,101.183685 544.241397,97.8963101 540.724138,95.1377778 C537.206879,92.3792455 532.98853,91 528.068966,91 C522.781583,91 518.206916,92.3585049 514.344828,95.0755556 C510.482739,97.7926062 508.367818,101.100721 508,105 Z M573,144 L573,80.4159544 C573,78.7591002 574.343146,77.4159544 576,77.4159544 L585.966346,77.4159544 C587.6232,77.4159544 588.966346,78.7591002 588.966346,80.4159544 L588.966346,87.7321937 L588.966346,87.7321937 C590.587081,84.0911499 593.160506,81.2255565 596.686699,79.1353276 C600.212892,77.0450988 604.363224,76 609.137821,76 C611.065181,76 612.685891,76.1348515 614,76.4045584 L614,92.4520418 C611.897425,92.0025302 609.663473,91.7777778 607.298077,91.7777778 C601.691211,91.7777778 597.234258,93.4521833 593.927083,96.8010446 C590.619909,100.149906 588.966346,104.678667 588.966346,110.387464 L588.966346,144 C588.966346,145.656854 587.6232,147 585.966346,147 L576,147 C574.343146,147 573,145.656854 573,144 Z M628.057675,130.804388 C624.685875,125.122458 623,118.854391 623,112 C623,105.145609 624.697114,98.8775421 628.091393,93.1956124 C631.485672,87.5136827 636.09373,83.0606499 641.915705,79.8363803 C647.737681,76.6121106 654.110288,75 661.033718,75 C667.957148,75 674.318516,76.6121106 680.118012,79.8363803 C685.917509,83.0606499 690.514328,87.5136827 693.908607,93.1956124 C697.302886,98.8775421 699,105.145609 699,112 C699,118.854391 697.302886,125.122458 693.908607,130.804388 C690.514328,136.486317 685.917509,140.93935 680.118012,144.16362 C674.318516,147.387889 667.957148,149 661.033718,149 C654.110288,149 647.737681,147.387889 641.915705,144.16362 C636.09373,140.93935 631.474433,136.486317 628.057675,130.804388 Z M646.046948,97.2472952 C642.015629,101.367872 640,106.463133 640,112.53323 C640,118.603328 642.015629,123.698588 646.046948,127.819165 C650.078267,131.939742 655.073523,134 661.032864,134 C666.948386,134 671.921733,131.939742 675.953052,127.819165 C679.984371,123.698588 682,118.603328 682,112.53323 C682,106.463133 679.984371,101.356796 675.953052,97.2140649 C671.921733,93.0713343 666.948386,91 661.032864,91 C655.073523,91 650.078267,93.0824109 646.046948,97.2472952 Z M713,130.939671 C709.66665,125.257741 708,118.944581 708,112 C708,105.055419 709.677761,98.7422588 713.033333,93.0603291 C716.388906,87.3783994 720.922194,82.9479135 726.633333,79.7687386 C732.344473,76.5895636 738.622188,75 745.466667,75 C756.400055,75 765.577741,79.0133663 773,87.0402194 L762.933333,97.7276051 C758.04442,92.6319063 752.222256,90.0840951 745.466667,90.0840951 C739.466637,90.0840951 734.433354,92.1696927 730.366667,96.3409506 C726.29998,100.512209 724.266667,105.731839 724.266667,112 C724.266667,118.268161 726.288869,123.476518 730.333333,127.625229 C734.377798,131.773939 739.422192,133.848263 745.466667,133.848263 C752.266701,133.848263 758.088865,131.322999 762.933333,126.272395 L773,136.892139 C765.533296,144.964087 756.35561,149 745.466667,149 C738.622188,149 732.344473,147.410436 726.633333,144.231261 C720.922194,141.052086 716.377795,136.621601 713,130.939671 Z M783,144 L783,54 C783,52.3431458 784.343146,51 786,51 L796.370526,51 C798.027381,51 799.370526,52.3431458 799.370526,54 L799.370526,107.039243 L799.370526,107.039243 L824.141107,78.6027389 C824.710851,77.9486754 825.535807,77.5732306 826.403221,77.5732306 L837.478984,77.5732306 C839.135838,77.5732306 840.478984,78.9163763 840.478984,80.5732306 C840.478984,81.301411 840.214133,82.0047347 839.733822,82.5520444 L816.886316,108.586545 L816.886316,108.586545 L843.197231,142.149133 C844.219437,143.453073 843.991046,145.338788 842.687105,146.360993 C842.158982,146.775008 841.507298,147 840.836238,147 L829.666186,147 C828.743407,147 827.871969,146.575326 827.30337,145.848541 L806.309474,119.014015 L806.309474,119.014015 L799.370526,126.750526 L799.370526,144 C799.370526,145.656854 798.027381,147 796.370526,147 L786,147 C784.343146,147 783,145.656854 783,144 Z M851,112.172192 L851,111.634438 C851,100.655255 854.396731,91.8048218 861.190295,85.0828729 C867.983859,78.360924 876.597791,75 887.03235,75 C892.049819,75 896.689798,75.9074495 900.952426,77.7223757 C905.215055,79.5373019 908.800493,82.0243857 911.708849,85.1837017 C914.617205,88.3430176 916.892792,92.0512372 918.53568,96.3084715 C920.178568,100.565706 921,105.114156 921,109.953959 C921,111.970544 920.911197,113.897474 920.733587,115.734807 L867.251189,115.734807 C867.517604,121.246805 869.526781,125.660818 873.278782,128.97698 C877.030783,132.293141 881.926072,133.951197 887.964795,133.951197 C891.96101,133.951197 895.368841,133.312621 898.188392,132.035451 C901.007943,130.758281 903.794151,128.730523 906.547098,125.952118 L916.337774,135.564457 C912.119548,140.045756 907.634975,143.238634 902.88392,145.143186 C898.132866,147.047738 892.982267,148 887.43197,148 C876.553387,148 867.761848,144.739904 861.057088,138.219613 C854.352329,131.699323 851,123.016936 851,112.172192 Z M867,105 L905,105 C905,101.183685 903.241397,97.8963101 899.724138,95.1377778 C896.206879,92.3792455 891.98853,91 887.068966,91 C881.781583,91 877.206916,92.3585049 873.344828,95.0755556 C869.482739,97.7926062 867.367818,101.100721 867,105 Z M927,90.5753329 L927,79.5732306 C927,78.4686611 927.895431,77.5732306 929,77.5732306 L935.837209,77.5732306 L935.837209,77.5732306 L935.837209,53 C935.837209,51.8954305 936.73264,51 937.837209,51 L950.182724,51 C951.287294,51 952.182724,51.8954305 952.182724,53 L952.182724,77.5732306 L952.182724,77.5732306 L965,77.5732306 C966.104569,77.5732306 967,78.4686611 967,79.5732306 L967,90.5753329 C967,91.6799024 966.104569,92.5753329 965,92.5753329 L952.182724,92.5753329 L952.182724,92.5753329 L952.182724,145 C952.182724,146.104569 951.287294,147 950.182724,147 L937.837209,147 C936.73264,147 935.837209,146.104569 935.837209,145 L935.837209,92.5753329 L935.837209,92.5753329 L929,92.5753329 C927.895431,92.5753329 927,91.6799024 927,90.5753329 Z" id="logo-text" fill="#110E16"></path>
            </g>
        </g>
    </g>
</svg>