<svg width="69" height="24" viewBox="0 0 69 24" fill="none" xmlns="http://www.w3.org/2000/svg">
<path d="M39.0244 23.0522H57.6743V17.1829H53.3777V18.7805H46.6727L52.7268 15.2595C54.6795 14.1185 57.1205 11.8683 57.1205 8.1839C57.1205 3.48835 53.1498 0 48.2023 0C42.9298 0 39.0563 4.01027 39.0889 9.06437H43.8731V8.86833C43.8731 6.29227 45.7286 4.46684 48.2341 4.46684C50.7397 4.46684 52.4654 6.16243 52.4654 8.34727C52.4654 9.42293 52.0097 10.5321 50.382 11.5424L39.0227 18.7478V23.0513L39.0244 23.0522ZM60.0173 23.0522H69V18.7487H66.9493V0.227856H60.0165V4.53133H62.0998V18.747H60.0165V23.0504L60.0173 23.0522ZM27.9584 23.0522H36.6487V18.7487H34.6634V4.53219H36.6487V0.227856H27.9584V4.53133H29.9437V18.747H27.9584V23.0504V23.0522ZM11.6516 18.6498C7.81074 18.6498 4.65428 15.4873 4.65428 11.6069C4.65428 7.72647 7.8116 4.59667 11.6516 4.59667C15.4916 4.59667 18.5845 7.72647 18.5845 11.6069C18.5845 15.4873 15.4925 18.6498 11.6516 18.6498ZM11.6516 23.28C14.1254 23.28 16.3386 22.4976 18.0307 20.998L18.2259 20.8346V23.0522H25.2559V18.7487H23.1725V4.53219H25.2559V0.227856H18.2259V2.38002L18.0307 2.21665C16.3059 0.782449 14.1254 0 11.6516 0C5.2725 0 0 5.21662 0 11.6396C0 18.0625 5.2725 23.2792 11.6516 23.2792V23.28Z" fill="#212121"/>
</svg>
