<?xml version="1.0" encoding="UTF-8" standalone="no"?>
<!DOCTYPE svg PUBLIC "-//W3C//DTD SVG 1.1//EN" "http://www.w3.org/Graphics/SVG/1.1/DTD/svg11.dtd">
<svg xmlns="http://www.w3.org/2000/svg" version="1.1" viewBox="0.00 0.00 256.00 256.00">
<g stroke-width="2.00" fill="none" stroke-linecap="butt">
<path stroke="#808080" vector-effect="non-scaling-stroke" d="
  M 94.58 0.00
  L 81.97 47.54
  A 0.65 0.64 -82.3 0 1 81.35 48.02
  L 0.00 47.99"
/>
<path stroke="#808080" vector-effect="non-scaling-stroke" d="
  M 129.76 0.00
  L 116.98 47.37
  A 0.48 0.48 0.0 0 0 117.44 47.97
  L 184.57 47.97
  A 0.71 0.69 7.5 0 0 185.25 47.46
  L 198.02 0.00"
/>
<path stroke="#808080" vector-effect="non-scaling-stroke" d="
  M 231.58 7.03
  L 220.63 47.38
  A 0.50 0.49 7.6 0 0 221.11 48.00
  L 256.00 47.97"
/>
<path stroke="#808080" vector-effect="non-scaling-stroke" d="
  M 256.00 81.45
  L 211.65 81.44
  A 0.58 0.57 -81.9 0 0 211.10 81.86
  L 184.95 179.57
  A 0.47 0.47 0.0 0 0 185.40 180.16
  L 256.00 180.15"
/>
<path stroke="#808080" vector-effect="non-scaling-stroke" d="
  M 255.49 213.71
  L 176.16 213.72
  A 0.79 0.79 0.0 0 0 175.40 214.30
  L 164.07 256.00"
/>
<path stroke="#808080" vector-effect="non-scaling-stroke" d="
  M 128.94 256.00
  L 140.24 214.06
  A 0.28 0.28 0.0 0 0 139.97 213.71
  L 73.94 213.71
  A 0.39 0.38 -82.0 0 0 73.57 213.99
  L 62.27 256.00"
/>
<path stroke="#808080" vector-effect="non-scaling-stroke" d="
  M 28.26 251.10
  L 38.03 214.23
  A 0.40 0.40 0.0 0 0 37.64 213.73
  L 0.49 213.73"
/>
<path stroke="#808080" vector-effect="non-scaling-stroke" d="
  M 0.00 180.16
  L 46.68 180.13
  A 0.50 0.49 7.6 0 0 47.16 179.77
  L 73.37 81.82
  A 0.28 0.28 0.0 0 0 73.10 81.46
  L 0.00 81.46"
/>
<path stroke="#808080" vector-effect="non-scaling-stroke" d="
  M 149.27 180.16
  A 0.43 0.43 0.0 0 0 149.69 179.84
  L 176.60 81.98
  A 0.43 0.43 0.0 0 0 176.19 81.44
  L 108.39 81.44
  A 0.43 0.43 0.0 0 0 107.98 81.76
  L 82.51 179.62
  A 0.43 0.43 0.0 0 0 82.93 180.16
  L 149.27 180.16"
/>
</g>
<path fill="#000000" d="
  M 94.58 0.00
  L 81.97 47.54
  A 0.65 0.64 -82.3 0 1 81.35 48.02
  L 0.00 47.99
  L 0.00 46.35
  C 2.25 21.20 21.01 2.70 46.14 0.00
  L 94.58 0.00
  Z"
/>
<path fill="#ffffff" d="
  M 129.76 0.00
  L 116.98 47.37
  A 0.48 0.48 0.0 0 0 117.44 47.97
  L 184.57 47.97
  A 0.71 0.69 7.5 0 0 185.25 47.46
  L 198.02 0.00
  L 209.79 0.00
  Q 221.60 1.14 231.58 7.03
  L 220.63 47.38
  A 0.50 0.49 7.6 0 0 221.11 48.00
  L 256.00 47.97
  L 256.00 81.45
  L 211.65 81.44
  A 0.58 0.57 -81.9 0 0 211.10 81.86
  L 184.95 179.57
  A 0.47 0.47 0.0 0 0 185.40 180.16
  L 256.00 180.15
  L 256.00 209.76
  L 255.49 213.71
  L 176.16 213.72
  A 0.79 0.79 0.0 0 0 175.40 214.30
  L 164.07 256.00
  L 128.94 256.00
  L 140.24 214.06
  A 0.28 0.28 0.0 0 0 139.97 213.71
  L 73.94 213.71
  A 0.39 0.38 -82.0 0 0 73.57 213.99
  L 62.27 256.00
  L 46.19 256.00
  Q 36.75 255.02 28.26 251.10
  L 38.03 214.23
  A 0.40 0.40 0.0 0 0 37.64 213.73
  L 0.49 213.73
  L 0.00 209.90
  L 0.00 180.16
  L 46.68 180.13
  A 0.50 0.49 7.6 0 0 47.16 179.77
  L 73.37 81.82
  A 0.28 0.28 0.0 0 0 73.10 81.46
  L 0.00 81.46
  L 0.00 47.99
  L 81.35 48.02
  A 0.65 0.64 -82.3 0 0 81.97 47.54
  L 94.58 0.00
  L 129.76 0.00
  Z
  M 149.27 180.16
  A 0.43 0.43 0.0 0 0 149.69 179.84
  L 176.60 81.98
  A 0.43 0.43 0.0 0 0 176.19 81.44
  L 108.39 81.44
  A 0.43 0.43 0.0 0 0 107.98 81.76
  L 82.51 179.62
  A 0.43 0.43 0.0 0 0 82.93 180.16
  L 149.27 180.16
  Z"
/>
<path fill="#000000" d="
  M 198.02 0.00
  L 185.25 47.46
  A 0.71 0.69 7.5 0 1 184.57 47.97
  L 117.44 47.97
  A 0.48 0.48 0.0 0 1 116.98 47.37
  L 129.76 0.00
  L 198.02 0.00
  Z"
/>
<path fill="#000000" d="
  M 256.00 46.13
  L 256.00 47.97
  L 221.11 48.00
  A 0.50 0.49 7.6 0 1 220.63 47.38
  L 231.58 7.03
  C 245.81 15.63 254.25 29.59 256.00 46.13
  Z"
/>
<path fill="#000000" d="
  M 0.00 180.16
  L 0.00 81.46
  L 73.10 81.46
  A 0.28 0.28 0.0 0 1 73.37 81.82
  L 47.16 179.77
  A 0.50 0.49 7.6 0 1 46.68 180.13
  L 0.00 180.16
  Z"
/>
<path fill="#000000" d="
  M 149.27 180.16
  L 82.93 180.16
  A 0.43 0.43 0.0 0 1 82.51 179.62
  L 107.98 81.76
  A 0.43 0.43 0.0 0 1 108.39 81.44
  L 176.19 81.44
  A 0.43 0.43 0.0 0 1 176.60 81.98
  L 149.69 179.84
  A 0.43 0.43 0.0 0 1 149.27 180.16
  Z"
/>
<path fill="#000000" d="
  M 256.00 81.45
  L 256.00 180.15
  L 185.40 180.16
  A 0.47 0.47 0.0 0 1 184.95 179.57
  L 211.10 81.86
  A 0.58 0.57 -81.9 0 1 211.65 81.44
  L 256.00 81.45
  Z"
/>
<path fill="#000000" d="
  M 28.26 251.10
  Q 5.29 239.27 0.49 213.73
  L 37.64 213.73
  A 0.40 0.40 0.0 0 1 38.03 214.23
  L 28.26 251.10
  Z"
/>
<path fill="#000000" d="
  M 128.94 256.00
  L 62.27 256.00
  L 73.57 213.99
  A 0.39 0.38 -82.0 0 1 73.94 213.71
  L 139.97 213.71
  A 0.28 0.28 0.0 0 1 140.24 214.06
  L 128.94 256.00
  Z"
/>
<path fill="#000000" d="
  M 255.49 213.71
  C 251.33 237.01 233.35 253.76 209.82 256.00
  L 164.07 256.00
  L 175.40 214.30
  A 0.79 0.79 0.0 0 1 176.16 213.72
  L 255.49 213.71
  Z"
/>
</svg>
