<svg width="145" height="40" viewBox="0 0 145 40" fill="none" xmlns="http://www.w3.org/2000/svg" class="w-36" style="color: rgb(26, 26, 26) !important; fill: none !important;"><path d="M17.8828 16.031L30.534 23.1935C31.1349 23.5346 31.1349 24.4027 30.534 24.7438L17.8828 31.8753L12.253 35.069C11.6521 35.41 10.893 34.9759 10.893 34.2938V27.9375L5.2632 24.7438C4.66227 24.4027 4.66227 23.5346 5.2632 23.1935L17.8828 16.031Z" fill="url(#paint0_linear_1319_5760)" style="fill: url(&quot;#paint0_linear_1319_5760&quot;) !important;"/><path d="M5.2632 20.7756L17.1237 27.5039C17.5981 27.783 18.1674 27.783 18.6419 27.5039L30.534 20.7756C31.1349 20.4345 31.1349 19.5663 30.534 19.2252L17.8828 12.0627L5.2632 19.2252C4.66227 19.5663 4.66227 20.4345 5.2632 20.7756Z" fill="url(#paint1_linear_1319_5760)" style="fill: url(&quot;#paint1_linear_1319_5760&quot;) !important;"/><path d="M17.1237 23.5348L5.2632 16.8064C4.66227 16.4653 4.66227 15.5971 5.2632 15.2561L17.8828 8.12458L23.5126 4.93092C24.1135 4.58985 24.8726 5.02394 24.8726 5.70608V12.0624L30.534 15.2561C31.1349 15.5971 31.1349 16.4653 30.534 16.8064L18.6419 23.5348C18.1991 23.8138 17.5981 23.8138 17.1237 23.5348Z" fill="#85E3FF" style="fill: rgb(133, 227, 255) !important;"/><path fill-rule="evenodd" clip-rule="evenodd" d="M42.8335 26.265C45.851 26.265 48.0109 24.3778 48.0109 22.0575C48.0109 19.7372 46.7404 18.5306 43.0241 17.4168C40.1653 16.4887 39.7842 15.7462 39.7842 15.0656C39.7842 14.2921 40.2924 13.2712 42.5794 13.2712C44.7393 13.2712 45.9145 15.0656 45.9145 15.0656L48.0109 13.859C47.0263 12.374 45.3746 10.8271 42.3888 10.8271C39.3713 10.8271 37.2431 12.7143 37.2431 15.0346C37.2431 17.355 38.6089 18.4687 42.2935 19.6134C45.1204 20.5415 45.4381 21.4078 45.4381 22.0575C45.4381 22.8309 44.9299 23.8518 42.6429 23.8518C40.3559 23.8518 38.8948 21.9956 38.8948 21.9956L36.7031 23.2331C37.7196 24.7181 39.8477 26.265 42.8335 26.265ZM110.013 16.4577C110.934 15.5605 112.205 14.9727 113.539 14.9727C116.08 14.9727 117.668 16.6433 117.668 19.3658V25.9246H115.286V19.5824C115.286 17.9737 114.46 17.1074 112.936 17.1074C111.252 17.1074 110.013 18.4687 110.013 20.1702V25.9865H107.631V12.0646H110.013V16.4577ZM90.8917 16.6124V15.2512H88.5094V25.9865H90.8917V20.5724C90.8917 19.4896 91.2411 18.7162 91.9081 18.2212C92.5434 17.7262 93.8139 17.5096 94.735 17.5715V15.0346C93.0833 15.0346 91.6222 15.6534 90.8917 16.6124ZM57.1588 21.2841C57.1588 22.9547 56.0471 24.0685 54.5224 24.0685C52.9978 24.0685 51.8861 22.9547 51.8861 21.2841V15.2513H49.5038V21.3769C49.5038 24.4088 51.9814 26.265 54.5224 26.265C57.0635 26.265 59.5411 24.4088 59.5411 21.3769V15.2513H57.1588V21.2841ZM140.189 17.4786V15.2511H137.33V12.2811L134.948 13.2093V15.2511H133.137V17.4786H134.948V21.9646C134.948 24.7799 136.536 26.3268 140.189 25.9864V23.9136C138.092 24.1302 137.33 23.2949 137.33 21.9027V17.4786H140.189ZM125.069 14.9727C126.53 14.9727 127.928 15.5605 128.944 16.5196V15.2511H131.327V25.9555H128.944V24.6871C127.928 25.6461 126.562 26.234 125.069 26.234C121.988 26.234 119.606 23.6971 119.606 20.6033C119.606 17.5096 121.988 14.9727 125.069 14.9727ZM121.988 20.6033C121.988 22.4905 123.481 24.0374 125.419 24.0374C127.324 24.0374 128.944 22.6452 128.944 20.6033C128.944 18.5615 127.324 17.1693 125.419 17.1693C123.513 17.1693 121.988 18.7161 121.988 20.6033ZM100.961 17.1693C102.549 17.1693 103.502 17.788 103.978 18.7161L105.948 17.6024C104.963 16.0246 103.184 14.9727 100.834 14.9727C97.7208 14.9727 95.1162 17.5096 95.1162 20.6033C95.1162 23.728 97.7208 26.234 100.834 26.234C103.184 26.234 104.963 25.1821 105.948 23.6043L103.978 22.4905C103.502 23.4186 102.549 24.0374 100.961 24.0374C99.0549 24.0374 97.5303 22.4905 97.5303 20.6033C97.5303 18.7161 99.0549 17.1693 100.961 17.1693ZM64.1785 16.5196C65.1949 15.5605 66.5608 14.9727 68.0536 14.9727C71.1029 14.9727 73.517 17.5096 73.517 20.6033C73.517 23.6971 71.1347 26.234 68.0536 26.234C66.5925 26.234 65.1949 25.6461 64.1785 24.6871V29.173H61.7962V15.2511H64.1785V16.5196ZM64.1467 20.6033C64.1467 22.6452 65.7349 24.0374 67.6725 24.0374C69.6101 24.0374 71.1029 22.4905 71.1029 20.6033C71.1029 18.7161 69.6101 17.1693 67.6725 17.1693C65.7349 17.1693 64.1467 18.5615 64.1467 20.6033ZM80.8544 14.9727C77.7415 14.9727 75.0416 17.5096 75.0416 20.6033C75.0416 23.728 77.8368 26.234 80.9179 26.234C83.2684 26.234 84.9836 25.1202 85.9683 23.6043L83.9989 22.4905C83.5225 23.4186 82.4743 24.1921 80.9179 24.1611C79.298 24.0993 77.7415 23.1402 77.4874 21.5624H86.5718C86.6353 21.253 86.6671 20.9436 86.6671 20.6343C86.6671 20.3249 86.6353 19.9846 86.5718 19.6752C86.0953 16.9836 83.6178 14.9727 80.8544 14.9727ZM77.4874 19.6752C77.8368 18.1283 79.2344 17.2311 80.8544 17.2002C82.5061 17.1693 83.8401 18.1283 84.1578 19.6752H77.4874Z" fill="currentColor" style="fill: rgb(26, 26, 26) !important;"/><defs style="fill: none !important;"><linearGradient id="paint0_linear_1319_5760" x1="17.892" y1="16.0571" x2="17.892" y2="31.6311" gradientUnits="userSpaceOnUse" style="fill: none !important;"><stop offset="0.0377575" stop-color="#145FD9" style="fill: none !important; stop-color: rgb(20, 95, 217) !important;"/><stop offset="0.2541" stop-color="#0C77DA" style="fill: none !important; stop-color: rgb(12, 119, 218) !important;"/><stop offset="0.5354" stop-color="#0391DB" style="fill: none !important; stop-color: rgb(3, 145, 219) !important;"/><stop offset="0.7047" stop-color="#009ADB" style="fill: none !important; stop-color: rgb(0, 154, 219) !important;"/></linearGradient><linearGradient id="paint1_linear_1319_5760" x1="17.8919" y1="12.1361" x2="17.8919" y2="26.5509" gradientUnits="userSpaceOnUse" style="fill: none !important;"><stop offset="0.00861019" stop-color="#0F7ADD" style="fill: none !important; stop-color: rgb(15, 122, 221) !important;"/><stop offset="0.3487" stop-color="#1CA1EA" style="fill: none !important; stop-color: rgb(28, 161, 234) !important;"/><stop offset="0.6484" stop-color="#25BDF4" style="fill: none !important; stop-color: rgb(37, 189, 244) !important;"/><stop offset="0.8225" stop-color="#28C7F7" style="fill: none !important; stop-color: rgb(40, 199, 247) !important;"/></linearGradient></defs></svg>