<svg xmlns="http://www.w3.org/2000/svg" width="172" height="36" viewBox="0 0 5443 1024"><g fill="none" style="fill: none !important;"><path d="M1613 336h-132v-8c-8-44-40-72-84-74-18 0-36 2-53 10a65 65 0 0 0-38 50c-4 22 4 40 21 53s37 21 58 27l87 27c25 8 49 18 71 32 47 29 73 71 78 126 5 41-3 79-26 114-16 22-35 40-59 55-46 28-97 40-152 36-36-3-71-11-104-29-63-34-99-87-111-158l-1-15v-5h130l3 13c10 45 46 77 92 81 23 2 45-1 65-12 8-4 14-9 20-15 25-24 24-61-2-84-13-13-30-21-47-27l-88-29c-30-9-59-20-86-37-39-24-65-57-73-103a178 178 0 0 1 110-205c68-25 136-26 202 3 64 27 101 78 115 146l4 28Zm2297 0h-132l-1-8c-7-44-39-72-83-74-19 0-36 2-53 10a65 65 0 0 0-39 50c-4 22 4 40 22 53 17 13 37 21 57 27l88 27c24 8 48 18 70 32 47 29 73 71 79 126 4 41-3 79-27 114-15 22-35 40-58 55-47 28-98 40-152 36-37-3-72-11-104-29-63-34-100-87-111-158l-2-15v-5h130l3 13c10 45 46 77 92 81 23 2 45-1 66-12 7-4 14-9 20-15 24-24 23-61-2-84-14-13-30-21-47-27l-89-29c-30-9-59-20-85-37-39-24-65-57-74-103a178 178 0 0 1 111-205c67-25 135-26 202 3 63 27 101 78 114 146l4 28h1Zm1524 0h-132l-1-8c-7-44-39-72-83-74-19 0-36 2-53 10a65 65 0 0 0-39 50c-4 22 4 40 22 53 17 13 37 21 57 27l87 27c25 8 49 18 71 32 47 29 73 71 79 126 4 41-3 79-27 114-15 22-35 40-58 55-47 28-98 40-152 36-37-3-72-11-104-29-63-34-100-87-111-158l-2-15v-5h130l3 13c10 45 46 77 92 81 23 2 45-1 66-12 7-4 14-9 20-15 24-24 23-61-2-84-14-13-30-21-47-27l-89-29c-30-9-59-20-85-37-39-24-65-57-74-103a178 178 0 0 1 111-205c67-25 135-26 202 3 63 27 101 78 114 146l4 28h1ZM3109 600h-321l2 11c15 46 50 71 99 72 15 0 30-2 45-4a71 71 0 0 0 50-34h113l-4 14c-19 52-54 88-105 108-58 23-117 24-176 4-70-25-114-75-133-147-14-53-11-105 10-156 27-67 77-110 148-127 48-11 96-8 142 11 57 23 95 65 117 123a270 270 0 0 1 13 125Zm-321-84h207v-6c-8-28-25-48-51-61s-53-15-81-9c-38 9-63 33-75 71v5Zm-696-171v240c0 35-8 69-25 100-29 50-71 80-126 93-49 12-98 8-144-10-55-22-89-62-105-118-6-18-8-38-8-57l-1-248h126v226c0 15 0 30 4 44 5 19 14 36 30 47 25 17 65 18 90 1 17-11 24-28 29-46 3-14 4-29 4-44V345h126Zm1205 429h-126V529c0-32 5-62 18-92 24-54 66-86 123-98 34-6 68-6 101 2l6 2v112h-13c-18 0-37-1-55 4-31 8-50 29-53 61l-1 28v226Zm-695-322a187 187 0 0 0-181-117c-54 2-97 26-125 73l-5 7-4-70h-119v608h126V712l2 1 5 7c16 25 38 43 65 53a187 187 0 0 0 236-108c13-28 18-57 20-88 3-43-3-85-20-125Zm-120 175a98 98 0 0 1-90 48c-45 0-80-27-92-70-10-35-10-70 6-103 17-36 46-57 86-58 51-1 86 30 100 72 5 14 7 29 7 38 0 30-4 53-17 73Zm1939-282h-113l-4 63h-2l-5-7c-15-24-35-42-61-52a189 189 0 0 0-241 89 279 279 0 0 0-11 220 192 192 0 0 0 223 122c40-8 71-29 92-65l3-4 3 64h116V345Zm-121 213c0 31-6 57-23 79a93 93 0 0 1-70 38c-26 1-50-4-71-19-23-16-36-39-42-66-6-33-4-65 13-94 18-31 44-47 79-51 48-6 95 26 109 76 4 13 6 26 6 37h-1Zm634-213h-112l-5 63h-2l-4-7c-15-24-35-42-61-52-31-13-62-17-95-13-66 9-115 44-146 102a279 279 0 0 0-11 220 192 192 0 0 0 222 122c40-8 72-29 92-65l4-4 3 64h115V345Zm-120 213c0 31-6 57-23 79a93 93 0 0 1-71 38c-25 1-49-4-70-19-23-16-37-39-42-66-7-33-4-65 13-94 17-31 44-47 78-51 48-6 96 26 110 76 3 13 6 26 5 37Z" fill="#000344" style="fill: #000000 !important;"/><path d="M321 95H95c-52 0-95 43-95 96v392c0 53 43 96 95 96h226c53 0 96-43 96-96V191c0-53-43-96-96-96Z" fill="#7D7DFF" style="fill: #000000 !important;"/><path d="M95 774h322v155c0 52-43 95-96 95H95c-52 0-95-43-95-95v-60c0-52 43-95 95-95Z" fill="#1F4FFF" style="fill: #000000 !important;"/><path d="M607 0h226c53 0 96 43 96 95v60c0 52-43 95-96 95H512V95c0-52 43-95 95-95Z" fill="#25F278" style="fill: #000000 !important;"/><path d="M833 345H607c-52 0-95 43-95 96v392c0 53 43 96 95 96h226c53 0 96-43 96-96V441c0-53-43-96-96-96Z" fill="#7D7DFF" style="fill: #000000 !important;"/></g></svg>