<svg width="128" height="128" viewBox="0 0 128 128" fill="none" xmlns="http://www.w3.org/2000/svg">
<g clip-path="url(#clip0_240_6778)">
<path d="M112.982 70.184C111.804 70.184 110.626 70.3803 109.448 70.5767C104.933 52.8098 90.5031 39.4601 72.6381 36.319C71.8528 36.1227 71.0675 36.1227 70.2823 35.9263C70.4786 31.6073 70.6749 26.503 77.1534 21.9877L75.9755 19.4355C75.9755 19.4355 63.4111 23.3619 62.0369 34.1595C61.4479 31.2147 55.5583 27.4846 52.6136 26.8957L51.043 29.2515C53.5951 30.8221 55.362 33.5705 55.7547 36.5153C37.5951 39.6564 23.2639 53.1043 18.7485 70.773C10.6994 68.8098 2.35588 73.7178 0.392694 81.7668C-1.5705 89.8159 3.33748 98.1595 11.3866 100.123C14.5277 100.908 17.6688 100.712 20.6136 99.5337C21.9878 102.675 23.5583 105.816 25.5215 108.564L38.0859 100.123V99.9264C34.5522 95.0184 32.589 89.1288 32.3927 83.1411C32.0001 76.2699 33.7669 69.3987 38.0859 65.3742C47.1166 57.7178 57.0307 61.2515 63.3129 68.5153H64.8835C70.9694 61.0552 80.8835 57.7178 90.1105 65.3742C94.4295 69.3006 96.1964 76.1717 95.8037 83.1411C95.6074 89.227 93.6442 94.9202 90.1105 99.9264L89.9142 100.123L102.479 108.564C104.442 105.816 106.012 102.675 107.387 99.5337C115.043 102.478 123.976 98.7484 126.92 91.092C129.865 83.4356 126.135 74.503 118.479 71.5582C116.614 70.5767 114.65 70.184 112.982 70.184ZM14.8221 89.9141C12.4663 89.7178 10.5031 87.7546 10.6994 85.2024C10.8958 82.8466 12.6626 81.0797 14.8221 80.8834C15.8037 80.8834 16.589 81.0797 17.3743 81.6687C17.3743 84.0245 17.5706 86.3803 17.7669 88.7362C16.9817 89.5214 16.0001 89.9141 14.8221 89.9141ZM113.178 89.9141C112 89.9141 111.018 89.5214 110.233 88.7362C110.43 86.3803 110.626 84.0245 110.626 81.6687C112.589 80.2944 115.337 80.8834 116.712 82.8466C117.301 83.6319 117.497 84.4171 117.497 85.3987C117.693 87.9509 115.534 89.9141 113.178 89.9141Z" fill="#008323"/>
</g>
<defs>
<clipPath id="clip0_240_6778">
<rect width="128" height="89.1288" fill="white" transform="translate(0 19.4355)"/>
</clipPath>
</defs>
</svg>
