<svg width="148" height="36" viewBox="0 0 148 36" fill="none" xmlns="http://www.w3.org/2000/svg">
<path d="M30.0995 10.6855L35.261 4.99533H26.381L21.312 10.723L21.9965 11.2864C24.42 13.2958 27.972 13.0329 30.0995 10.6855Z" fill="#53C7E6"/>
<path d="M4.9765 5.0141L26.677 30.5728H34.632L13.32 5.0141H4.9765Z" fill="#422FF0"/>
<path d="M10.064 23.7183L3.996 30.5728H12.3395L18.759 23.5118L18.3335 23.1362C15.873 21.0329 12.21 21.2958 10.064 23.7183Z" fill="#53C7E6"/>
<path d="M45.7875 25.9155V19.8686H57.9975V15.324H45.7875V9.7465H58.275V5.05167H40.1635V30.5728H58.275V25.9155H45.7875Z" fill="#422FF0"/>
<path d="M77.9405 17.3334C80.4565 16.5446 82.0475 14.3662 82.0475 12.4883V11.8122C82.0475 7.68077 78.4955 5.05167 73.001 5.05167H63.6955V30.554H73.8335C79.3835 30.554 82.954 28.3005 82.954 24.1315V22.9672C82.9725 20.2066 81.0855 18.2911 77.9405 17.3334ZM69.116 9.44603H72.187C74.851 9.44603 76.479 10.0845 76.479 12.1503V12.7136C76.479 14.5165 75.036 15.4554 72.89 15.4554H69.116V9.44603ZM77.3115 23.5118C77.3115 25.6526 75.4985 26.216 73.0195 26.216H69.0975V19.6808H73.075C75.332 19.6808 77.33 20.6197 77.33 22.4977V23.5118H77.3115Z" fill="#422FF0"/>
<path d="M99.8815 4.60095C92.685 4.60095 86.8575 10.5164 86.8575 17.8216C86.8575 25.1268 92.685 31.0423 99.8815 31.0423C107.078 31.0423 112.905 25.1268 112.905 17.8216C112.905 10.5164 107.078 4.60095 99.8815 4.60095ZM99.8815 25.8404C95.5155 25.8404 91.9635 22.2348 91.9635 17.8028C91.9635 13.3709 95.5155 9.76527 99.8815 9.76527C104.248 9.76527 107.799 13.3709 107.799 17.8028C107.799 22.2535 104.248 25.8404 99.8815 25.8404Z" fill="#422FF0"/>
<path d="M118.03 30.5728C119.522 30.5728 120.731 29.3452 120.731 27.831C120.731 26.3167 119.522 25.0892 118.03 25.0892C116.538 25.0892 115.329 26.3167 115.329 27.831C115.329 29.3452 116.538 30.5728 118.03 30.5728Z" fill="#422FF0"/>
<path d="M128.594 30.4789C127.669 30.4789 126.836 30.3099 126.096 29.9718C125.356 29.6338 124.783 29.1268 124.357 28.4695C123.932 27.8122 123.71 26.9859 123.71 26.0282C123.71 25.2019 123.858 24.5071 124.172 23.9625C124.468 23.4179 124.894 22.9859 125.412 22.6479C125.93 22.3099 126.522 22.0657 127.188 21.8967C127.854 21.7277 128.538 21.5963 129.241 21.5211C130.092 21.4272 130.795 21.3521 131.313 21.277C131.85 21.2019 132.238 21.0892 132.479 20.939C132.719 20.7887 132.849 20.5446 132.849 20.2066V20.1503C132.849 19.4179 132.645 18.8545 132.22 18.4601C131.794 18.0657 131.184 17.8592 130.388 17.8592C129.556 17.8592 128.89 18.047 128.39 18.4226C127.891 18.7981 127.576 19.2301 127.391 19.7371L124.191 19.2676C124.45 18.3662 124.857 17.615 125.449 17.0141C126.022 16.4132 126.744 15.9437 127.576 15.6432C128.409 15.3427 129.352 15.1925 130.37 15.1925C131.073 15.1925 131.776 15.2676 132.46 15.4366C133.163 15.6056 133.792 15.8873 134.366 16.2629C134.939 16.6385 135.402 17.1643 135.753 17.8216C136.105 18.4789 136.271 19.2864 136.271 20.2817V30.1784H132.96V28.1503H132.849C132.645 28.5634 132.349 28.939 131.979 29.2958C131.609 29.6526 131.128 29.9343 130.573 30.1596C130 30.3662 129.352 30.4789 128.594 30.4789ZM129.482 27.9249C130.166 27.9249 130.777 27.7934 131.276 27.5118C131.776 27.2301 132.164 26.8545 132.442 26.4038C132.719 25.9343 132.849 25.446 132.849 24.8826V23.1362C132.738 23.2301 132.553 23.3052 132.312 23.3803C132.053 23.4554 131.776 23.5305 131.461 23.5869C131.147 23.6432 130.832 23.6995 130.518 23.7371C130.203 23.7747 129.944 23.8122 129.704 23.8498C129.186 23.9249 128.723 24.0376 128.335 24.1878C127.928 24.3568 127.613 24.5634 127.373 24.8639C127.132 25.1456 127.021 25.5211 127.021 25.9718C127.021 26.6103 127.243 27.0986 127.706 27.4179C128.168 27.7559 128.76 27.9249 129.482 27.9249Z" fill="#422FF0"/>
<path d="M141.47 13.277C140.933 13.277 140.452 13.0892 140.064 12.7324C139.675 12.3568 139.472 11.9249 139.472 11.3991C139.472 10.8732 139.675 10.4225 140.064 10.047C140.452 9.67136 140.933 9.50235 141.47 9.50235C142.025 9.50235 142.487 9.69014 142.876 10.047C143.264 10.4225 143.468 10.8732 143.468 11.3991C143.468 11.9249 143.264 12.3568 142.876 12.7324C142.487 13.108 142.025 13.277 141.47 13.277ZM139.749 30.1784V15.3803H143.19V30.1784H139.749Z" fill="#422FF0"/>
</svg>
