<svg width="210" height="45" viewBox="0 0 210 45" fill="none" xmlns="http://www.w3.org/2000/svg" style="fill: none !important;">
                            <path d="M155.885 22.0605C156.19 22.0605 156.508 22.079 156.84 22.1159C157.172 22.1436 157.467 22.1851 157.725 22.2404L157.435 24.3709C157.186 24.3064 156.909 24.2556 156.605 24.2187C156.3 24.1819 156.014 24.1634 155.747 24.1634C155.138 24.1634 154.562 24.2879 154.018 24.5369C153.483 24.7767 153.012 25.1272 152.606 25.5884C152.201 26.0403 151.882 26.5891 151.652 27.2347C151.421 27.8711 151.306 28.5813 151.306 29.3652V37.5H148.996V22.3372H150.905L151.154 25.1318H151.251C151.564 24.5692 151.942 24.0573 152.385 23.5962C152.828 23.1258 153.34 22.7523 153.921 22.4756C154.511 22.1989 155.166 22.0605 155.885 22.0605Z" fill="#173647" style="fill: rgb(23, 54, 71) !important;"/>
                            <path d="M139.208 22.0605C140.499 22.0605 141.606 22.3465 142.528 22.9183C143.45 23.4901 144.156 24.2925 144.645 25.3255C145.133 26.3493 145.378 27.5483 145.378 28.9225V30.3475H134.905C134.933 32.1276 135.375 33.4833 136.233 34.4149C137.091 35.3464 138.299 35.8122 139.858 35.8122C140.817 35.8122 141.665 35.7246 142.403 35.5493C143.141 35.3741 143.907 35.1158 144.7 34.7746V36.7944C143.934 37.1357 143.173 37.3847 142.417 37.5415C141.67 37.6983 140.785 37.7767 139.761 37.7767C138.304 37.7767 137.031 37.4816 135.943 36.8913C134.863 36.2918 134.024 35.4156 133.425 34.2627C132.825 33.1098 132.525 31.6987 132.525 30.0293C132.525 28.3968 132.797 26.9857 133.342 25.7959C133.895 24.5969 134.67 23.6746 135.666 23.029C136.671 22.3834 137.852 22.0605 139.208 22.0605ZM139.18 23.9421C137.953 23.9421 136.976 24.3433 136.247 25.1457C135.518 25.9481 135.085 27.0687 134.946 28.5075H142.971C142.961 27.6036 142.818 26.8104 142.542 26.1279C142.274 25.4362 141.864 24.9013 141.31 24.5231C140.757 24.1357 140.047 23.9421 139.18 23.9421Z" fill="#173647" style="fill: rgb(23, 54, 71) !important;"/>
                            <path d="M122.502 44.3065C120.51 44.3065 118.974 43.9329 117.895 43.1859C116.816 42.448 116.276 41.4104 116.276 40.0731C116.276 39.1231 116.576 38.3115 117.176 37.6382C117.784 36.9649 118.624 36.5176 119.694 36.2962C119.297 36.1118 118.956 35.8351 118.67 35.4661C118.393 35.0972 118.255 34.673 118.255 34.1934C118.255 33.64 118.407 33.1558 118.711 32.7407C119.025 32.3165 119.5 31.9106 120.136 31.5233C119.343 31.2005 118.697 30.6563 118.199 29.8908C117.711 29.116 117.466 28.2168 117.466 27.193C117.466 26.1047 117.692 25.1778 118.144 24.4123C118.596 23.6375 119.251 23.0473 120.109 22.6414C120.966 22.2356 122.004 22.0327 123.221 22.0327C123.489 22.0327 123.756 22.0465 124.024 22.0742C124.3 22.0927 124.563 22.1249 124.812 22.1711C125.061 22.208 125.278 22.2541 125.463 22.3094H130.664V23.7897L127.87 24.1356C128.146 24.4953 128.377 24.9288 128.562 25.436C128.746 25.9433 128.838 26.5059 128.838 27.1239C128.838 28.6364 128.326 29.8401 127.303 30.7347C126.279 31.6201 124.872 32.0628 123.083 32.0628C122.659 32.0628 122.225 32.0259 121.783 31.9521C121.331 32.2012 120.985 32.4779 120.745 32.7822C120.514 33.0866 120.399 33.4371 120.399 33.8337C120.399 34.1288 120.487 34.364 120.662 34.5392C120.846 34.7145 121.109 34.8436 121.451 34.9266C121.792 35.0004 122.202 35.0373 122.682 35.0373H125.352C127.003 35.0373 128.266 35.3831 129.143 36.0749C130.028 36.7666 130.471 37.7765 130.471 39.1047C130.471 40.7833 129.788 42.0699 128.423 42.9645C127.058 43.8592 125.084 44.3065 122.502 44.3065ZM122.571 42.508C123.825 42.508 124.863 42.3789 125.684 42.1206C126.514 41.8716 127.132 41.5073 127.538 41.0277C127.953 40.5573 128.16 39.9947 128.16 39.3398C128.16 38.7311 128.022 38.27 127.745 37.9564C127.469 37.652 127.063 37.4491 126.528 37.3477C125.993 37.237 125.338 37.1816 124.563 37.1816H121.935C121.252 37.1816 120.657 37.2877 120.15 37.4998C119.643 37.712 119.251 38.0256 118.974 38.4406C118.707 38.8556 118.573 39.3721 118.573 39.9901C118.573 40.8109 118.919 41.4335 119.611 41.8577C120.302 42.2912 121.289 42.508 122.571 42.508ZM123.166 30.3888C124.264 30.3888 125.089 30.1121 125.642 29.5588C126.196 29.0054 126.472 28.1984 126.472 27.1377C126.472 26.0033 126.191 25.1547 125.629 24.5921C125.066 24.0203 124.236 23.7344 123.138 23.7344C122.087 23.7344 121.275 24.0295 120.703 24.6198C120.141 25.2008 119.86 26.054 119.86 27.1792C119.86 28.2122 120.145 29.0054 120.717 29.5588C121.289 30.1121 122.105 30.3888 123.166 30.3888Z" fill="#173647" style="fill: rgb(23, 54, 71) !important;"/>
                            <path d="M107.401 44.3065C105.409 44.3065 103.874 43.9329 102.794 43.1859C101.715 42.448 101.176 41.4104 101.176 40.0731C101.176 39.1231 101.476 38.3115 102.075 37.6382C102.684 36.9649 103.523 36.5176 104.593 36.2962C104.196 36.1118 103.855 35.8351 103.569 35.4661C103.292 35.0972 103.154 34.673 103.154 34.1934C103.154 33.64 103.306 33.1558 103.611 32.7407C103.924 32.3165 104.399 31.9106 105.036 31.5233C104.242 31.2005 103.597 30.6563 103.099 29.8908C102.61 29.116 102.366 28.2168 102.366 27.193C102.366 26.1047 102.592 25.1778 103.043 24.4123C103.495 23.6375 104.15 23.0473 105.008 22.6414C105.866 22.2356 106.903 22.0327 108.121 22.0327C108.388 22.0327 108.656 22.0465 108.923 22.0742C109.2 22.0927 109.463 22.1249 109.712 22.1711C109.961 22.208 110.178 22.2541 110.362 22.3094H115.564V23.7897L112.769 24.1356C113.046 24.4953 113.276 24.9288 113.461 25.436C113.645 25.9433 113.738 26.5059 113.738 27.1239C113.738 28.6364 113.226 29.8401 112.202 30.7347C111.178 31.6201 109.772 32.0628 107.982 32.0628C107.558 32.0628 107.125 32.0259 106.682 31.9521C106.23 32.2012 105.884 32.4779 105.644 32.7822C105.414 33.0866 105.298 33.4371 105.298 33.8337C105.298 34.1288 105.386 34.364 105.561 34.5392C105.746 34.7145 106.009 34.8436 106.35 34.9266C106.691 35.0004 107.102 35.0373 107.581 35.0373H110.251C111.902 35.0373 113.166 35.3831 114.042 36.0749C114.927 36.7666 115.37 37.7765 115.37 39.1047C115.37 40.7833 114.688 42.0699 113.323 42.9645C111.958 43.8592 109.984 44.3065 107.401 44.3065ZM107.471 42.508C108.725 42.508 109.762 42.3789 110.583 42.1206C111.413 41.8716 112.031 41.5073 112.437 41.0277C112.852 40.5573 113.06 39.9947 113.06 39.3398C113.06 38.7311 112.921 38.27 112.645 37.9564C112.368 37.652 111.962 37.4491 111.427 37.3477C110.892 37.237 110.237 37.1816 109.463 37.1816H106.834C106.152 37.1816 105.557 37.2877 105.049 37.4998C104.542 37.712 104.15 38.0256 103.874 38.4406C103.606 38.8556 103.472 39.3721 103.472 39.9901C103.472 40.8109 103.818 41.4335 104.51 41.8577C105.202 42.2912 106.189 42.508 107.471 42.508ZM108.065 30.3888C109.163 30.3888 109.988 30.1121 110.542 29.5588C111.095 29.0054 111.372 28.1984 111.372 27.1377C111.372 26.0033 111.091 25.1547 110.528 24.5921C109.965 24.0203 109.135 23.7344 108.038 23.7344C106.986 23.7344 106.175 24.0295 105.603 24.6198C105.04 25.2008 104.759 26.054 104.759 27.1792C104.759 28.2122 105.045 29.0054 105.617 29.5588C106.189 30.1121 107.005 30.3888 108.065 30.3888Z" fill="#173647" style="fill: rgb(23, 54, 71) !important;"/>
                            <path d="M93.3792 22.0884C95.187 22.0884 96.5289 22.4942 97.4051 23.3058C98.2813 24.1175 98.7194 25.4133 98.7194 27.1934V37.5002H97.0454L96.6027 35.259H96.492C96.0678 35.8123 95.6251 36.2781 95.1639 36.6562C94.7027 37.0252 94.1678 37.3065 93.5591 37.5002C92.9596 37.6846 92.2217 37.7769 91.3455 37.7769C90.4232 37.7769 89.6024 37.6155 88.883 37.2926C88.1728 36.9698 87.6102 36.481 87.1951 35.8262C86.7893 35.1713 86.5864 34.3413 86.5864 33.3359C86.5864 31.8234 87.1859 30.6612 88.3849 29.8496C89.5839 29.038 91.4101 28.5953 93.8634 28.5215L96.4782 28.4108V27.4839C96.4782 26.1742 96.1969 25.2565 95.6343 24.7308C95.0717 24.2051 94.2785 23.9422 93.2547 23.9422C92.4615 23.9422 91.7052 24.0575 90.9858 24.2881C90.2664 24.5187 89.5839 24.7907 88.9383 25.1043L88.2327 23.3612C88.9153 23.0107 89.6992 22.7109 90.5846 22.4619C91.4701 22.2129 92.4016 22.0884 93.3792 22.0884ZM96.4505 30.0295L94.1401 30.1263C92.2494 30.2001 90.9167 30.5091 90.1419 31.0532C89.3672 31.5974 88.9798 32.3675 88.9798 33.3636C88.9798 34.2306 89.2427 34.8716 89.7684 35.2866C90.2941 35.7017 90.9905 35.9092 91.8574 35.9092C93.204 35.9092 94.3062 35.5356 95.1639 34.7886C96.0216 34.0415 96.4505 32.9209 96.4505 31.4268V30.0295Z" fill="#173647" style="fill: rgb(23, 54, 71) !important;"/>
                            <path d="M78.3617 37.4723L75.6639 28.6458C75.544 28.2677 75.4287 27.8988 75.318 27.5391C75.2166 27.1701 75.1197 26.8197 75.0275 26.4876C74.9445 26.1464 74.8661 25.8328 74.7923 25.5469C74.7278 25.2517 74.6724 24.9981 74.6263 24.786H74.5295C74.4926 24.9981 74.4418 25.2517 74.3773 25.5469C74.3127 25.8328 74.2343 26.1464 74.1421 26.4876C74.0591 26.8289 73.9669 27.1886 73.8654 27.5667C73.7639 27.9357 73.6487 28.3092 73.5195 28.6873L70.6973 37.4723H68.1102L63.9321 22.3096H66.3117L68.4976 30.6795C68.6451 31.2329 68.7835 31.7817 68.9126 32.3258C69.0509 32.8608 69.1662 33.3681 69.2585 33.8477C69.3599 34.318 69.4337 34.7285 69.4798 35.0789H69.5905C69.6458 34.8484 69.7058 34.5717 69.7703 34.2489C69.8441 33.9261 69.9225 33.5848 70.0055 33.2251C70.0978 32.8562 70.1946 32.4919 70.2961 32.1322C70.3975 31.7632 70.499 31.4174 70.6004 31.0946L73.395 22.3096H75.8714L78.5692 31.0807C78.7075 31.5234 78.8413 31.9846 78.9704 32.4642C79.1087 32.9438 79.2332 33.4096 79.3439 33.8615C79.4546 34.3042 79.533 34.7008 79.5791 35.0513H79.6898C79.7267 34.7377 79.7958 34.3503 79.8973 33.8892C79.9988 33.428 80.114 32.9207 80.2432 32.3674C80.3815 31.814 80.5245 31.2514 80.672 30.6795L82.8856 22.3096H85.2236L81.0317 37.4723H78.3617Z" fill="#173647" style="fill: rgb(23, 54, 71) !important;"/>
                            <path d="M62.514 32.1185C62.514 33.3175 62.2142 34.3413 61.6147 35.1898C61.0245 36.0291 60.1944 36.6701 59.1245 37.1128C58.0546 37.5555 56.7957 37.7769 55.3477 37.7769C54.5821 37.7769 53.8581 37.74 53.1756 37.6662C52.4931 37.5924 51.8659 37.4863 51.2941 37.348C50.7223 37.2096 50.2196 37.039 49.7861 36.8361V34.5811C50.4779 34.867 51.3218 35.1344 52.3179 35.3835C53.314 35.6233 54.3562 35.7432 55.4445 35.7432C56.459 35.7432 57.3168 35.6094 58.0177 35.342C58.7187 35.0653 59.249 34.6733 59.6087 34.166C59.9776 33.6495 60.1621 33.0316 60.1621 32.3122C60.1621 31.6204 60.0099 31.044 59.7056 30.5828C59.4012 30.1125 58.8939 29.6882 58.1838 29.3101C57.4828 28.9227 56.5236 28.5123 55.3062 28.0788C54.4484 27.7744 53.6921 27.4424 53.0373 27.0827C52.3824 26.7138 51.8337 26.2987 51.391 25.8376C50.9482 25.3764 50.6116 24.8415 50.381 24.2327C50.1597 23.624 50.049 22.9277 50.049 22.1437C50.049 21.0646 50.3211 20.1423 50.8652 19.3768C51.4186 18.6021 52.1795 18.0118 53.1479 17.606C54.1256 17.1909 55.2462 16.9834 56.5098 16.9834C57.5889 16.9834 58.585 17.0849 59.498 17.2878C60.4204 17.4907 61.2643 17.7627 62.0298 18.104L61.2965 20.1239C60.5679 19.8195 59.7932 19.5659 58.9723 19.363C58.1607 19.16 57.3214 19.0586 56.4544 19.0586C55.5875 19.0586 54.8542 19.1877 54.2547 19.446C53.6644 19.695 53.2125 20.0501 52.8989 20.5112C52.5853 20.9724 52.4285 21.5212 52.4285 22.1576C52.4285 22.8677 52.5761 23.458 52.8713 23.9284C53.1756 24.3988 53.6552 24.8184 54.3101 25.1873C54.9741 25.547 55.8503 25.9252 56.9386 26.3218C58.1284 26.7553 59.1383 27.2164 59.9684 27.7052C60.7985 28.1848 61.4303 28.7751 61.8638 29.4761C62.2973 30.1678 62.514 31.0486 62.514 32.1185Z" fill="#173647" style="fill: rgb(23, 54, 71) !important;"/>
                            <path d="M56.2835 3.41647C56.2835 3.41647 54.4543 3.20814 53.696 3.20814C52.596 3.20814 52.0293 3.5998 52.0293 4.37064C52.0293 5.20397 52.5001 5.40397 54.0293 5.82481C55.9126 6.34564 56.596 6.84564 56.596 8.37481C56.596 10.3373 55.346 11.1873 53.6001 11.1873C52.6202 11.1449 51.6451 11.0265 50.6835 10.8331L50.8251 9.67064C50.8251 9.67064 52.5918 9.90397 53.521 9.90397C54.6335 9.90397 55.1418 9.40814 55.1418 8.46647C55.1418 7.70814 54.7251 7.44564 53.3626 7.11647C51.4293 6.62064 50.5918 6.03314 50.5918 4.4748C50.5918 2.67064 51.7793 1.9248 53.571 1.9248C54.5246 1.96159 55.4743 2.06743 56.4126 2.24147L56.2835 3.41647Z" fill="#173647" style="fill: rgb(23, 54, 71) !important;"/>
                            <path d="M60.0791 2.08301H62.6041L64.6041 9.07884L66.6083 2.08301H69.1666V11.0413H67.6999V3.29967H67.6249L65.3874 10.6747H63.8666L61.6291 3.29967H61.5541V11.0413H60.0999L60.0791 2.08301Z" fill="#173647" style="fill: rgb(23, 54, 71) !important;"/>
                            <path d="M91.6292 2.08301H98.1667V3.37884H95.6667V11.0413H94.1667V3.37884H91.6167L91.6292 2.08301Z" fill="#173647" style="fill: rgb(23, 54, 71) !important;"/>
                            <path d="M104.488 2.08301C106.263 2.08301 107.221 2.74967 107.221 4.41217C107.221 5.49551 106.879 6.03301 106.158 6.42467C106.933 6.72467 107.442 7.25801 107.442 8.50801C107.442 10.3413 106.329 11.0455 104.592 11.0455H101.083V2.08301H104.488ZM102.538 3.33301V5.89967H104.458C105.35 5.89967 105.742 5.45384 105.742 4.57467C105.742 3.69551 105.296 3.32467 104.408 3.32467L102.538 3.33301ZM102.538 7.12884V9.78301H104.513C105.413 9.78301 105.95 9.49551 105.95 8.42051C105.95 7.34551 105.192 7.12884 104.488 7.12884H102.538Z" fill="#173647" style="fill: rgb(23, 54, 71) !important;"/>
                            <path d="M111.042 2.08301H116.692V3.33301H112.5V5.87051H115.913V7.12051H112.5V9.74967H116.7V11.0413H111.042V2.08301Z" fill="#173647" style="fill: rgb(23, 54, 71) !important;"/>
                            <path d="M121.896 2.08301H124.787L127.008 11.0413H125.546L124.883 8.41218H121.8L121.138 11.0413H119.688L121.896 2.08301ZM122.083 7.13301H124.583L123.654 3.29967H123L122.083 7.13301Z" fill="#173647" style="fill: rgb(23, 54, 71) !important;"/>
                            <path d="M131.692 8.38717V11.0413H130.242V2.08301H133.642C135.617 2.08301 136.675 3.21634 136.675 5.20384C136.675 6.45384 136.167 7.61634 135.213 8.05801L136.688 11.0413H135.092L133.8 8.38717H131.692ZM133.642 3.33301H131.692V7.12884H133.667C134.767 7.12884 135.183 6.14134 135.183 5.21217C135.183 4.19551 134.688 3.33301 133.642 3.33301Z" fill="#173647" style="fill: rgb(23, 54, 71) !important;"/>
                            <path d="M74.5209 2.08301H77.4126L79.6334 11.0413H78.1709L77.5001 8.41218H74.4167L73.7501 11.0413H72.2959L74.5209 2.08301ZM74.7126 7.13301H77.2126L76.2876 3.29967H75.6334L74.7126 7.13301Z" fill="#173647" style="fill: rgb(23, 54, 71) !important;"/>
                            <path d="M84.3167 8.38717V11.0413H82.8667V2.08301H86.25C88.225 2.08301 89.2834 3.21634 89.2834 5.20384C89.2834 6.45384 88.775 7.61634 87.8209 8.05801L89.2959 11.0413H87.7L86.4042 8.38717H84.3167ZM86.25 3.33301H84.3V7.12884H86.275C87.375 7.12884 87.7917 6.14134 87.7917 5.21217C87.8084 4.19551 87.3125 3.33301 86.25 3.33301Z" fill="#173647" style="fill: rgb(23, 54, 71) !important;"/>
                            <path d="M38.579 1.0415H1.0415V38.5832H38.579V1.0415Z" fill="#85EA2D" style="fill: rgb(133, 234, 45) !important;"/>
                            <path d="M37.5375 2.08333V37.5417H2.08333V2.08333H37.5375ZM39.6208 0H0V39.625H39.6208V0Z" fill="#173647" style="fill: rgb(23, 54, 71) !important;"/>
                            <path d="M11.7165 12.75C11.6499 13.4958 11.7415 14.2708 11.6915 15.025C11.6372 15.7818 11.5371 16.5346 11.3915 17.2792C11.1416 18.3301 10.4932 19.2429 9.5832 19.825C11.3665 20.9833 11.5665 22.7792 11.6665 24.6042C11.7249 25.5875 11.6999 26.5792 11.804 27.5542C11.879 28.3125 12.1707 28.5042 12.954 28.5292C13.2707 28.5292 13.5999 28.5292 13.9707 28.5292V30.8667C11.6582 31.2583 9.74987 30.6042 9.2832 28.6458C9.12653 27.9274 9.03036 27.197 8.9957 26.4625C8.9457 25.6792 9.02904 24.9 8.9707 24.1167C8.79987 21.975 8.52487 21.25 6.4707 21.15V18.4875C6.61777 18.4541 6.76662 18.429 6.91654 18.4125C8.04154 18.3542 8.5207 17.9958 8.76237 16.9C8.89436 16.274 8.97794 15.6388 9.01237 15C9.03594 13.7728 9.12216 12.5476 9.2707 11.3292C9.5832 9.58334 10.6415 8.75001 12.4332 8.65418C12.9374 8.62918 13.4499 8.65418 14.029 8.65418V11.0417C13.7832 11.0417 13.5749 11.0917 13.3582 11.0917C11.904 11.0417 11.8249 11.5375 11.7165 12.75Z" fill="#173647" style="fill: rgb(23, 54, 71) !important;"/>
                            <path d="M16.0288 19.8418V19.9251C16.0041 20.3246 15.8225 20.6981 15.5236 20.9643C15.2246 21.2304 14.8326 21.3676 14.433 21.3459H14.3288C13.9221 21.3255 13.5402 21.1444 13.2671 20.8423C12.994 20.5403 12.8521 20.1422 12.8725 19.7355C12.893 19.3289 13.0741 18.947 13.3762 18.6739C13.6782 18.4008 14.0763 18.2588 14.483 18.2793H14.5163C14.7182 18.2825 14.9175 18.3255 15.1028 18.4058C15.2881 18.4861 15.4558 18.6021 15.5962 18.7472C15.7367 18.8923 15.8472 19.0637 15.9214 19.2515C15.9956 19.4393 16.0321 19.6399 16.0288 19.8418Z" fill="#173647" style="fill: rgb(23, 54, 71) !important;"/>
                            <path d="M21.3373 19.7918C21.3563 19.9964 21.3309 20.2026 21.2627 20.3964C21.1945 20.5902 21.0853 20.7669 20.9424 20.9145C20.7995 21.0622 20.6265 21.1771 20.435 21.2516C20.2435 21.3261 20.0382 21.3583 19.8332 21.346C19.6287 21.3627 19.423 21.3358 19.2298 21.2669C19.0366 21.198 18.8602 21.0889 18.7124 20.9466C18.5646 20.8043 18.4488 20.6322 18.3726 20.4417C18.2965 20.2513 18.2617 20.0467 18.2707 19.8418C18.2665 19.7933 18.2665 19.7445 18.2707 19.696C18.2848 19.3065 18.4529 18.9386 18.738 18.673C19.0232 18.4074 19.4021 18.2658 19.7915 18.2793C19.9955 18.2642 20.2004 18.2928 20.3925 18.363C20.5847 18.4332 20.7596 18.5435 20.9059 18.6866C21.0521 18.8297 21.1662 19.0022 21.2406 19.1928C21.315 19.3833 21.348 19.5875 21.3373 19.7918Z" fill="#173647" style="fill: rgb(23, 54, 71) !important;"/>
                            <path d="M26.7501 19.8335C26.7001 20.7293 25.9168 21.4793 25.1459 21.346C24.9428 21.3465 24.7415 21.3069 24.5537 21.2294C24.3659 21.1519 24.1953 21.0381 24.0516 20.8944C23.908 20.7508 23.7941 20.5802 23.7167 20.3924C23.6392 20.2046 23.5996 20.0033 23.6001 19.8002C23.6045 19.3802 23.7756 18.9793 24.0756 18.6854C24.3757 18.3916 24.7802 18.2291 25.2001 18.2335C25.62 18.2379 26.021 18.409 26.3148 18.709C26.6086 19.0091 26.7712 19.4136 26.7668 19.8335H26.7501Z" fill="#173647" style="fill: rgb(23, 54, 71) !important;"/>
                            <path d="M33.1124 18.4625V21.125C32.9948 21.1655 32.8733 21.1935 32.7499 21.2084C31.4499 21.2959 30.8499 21.8334 30.7249 23.1334C30.6415 23.9667 30.6499 24.8 30.5915 25.6334C30.5672 26.5519 30.4823 27.4677 30.3374 28.375C30.004 30.0209 28.979 30.8459 27.279 30.9459C26.7332 30.9792 26.1874 30.9459 25.6124 30.9459V28.5875C25.9332 28.5875 26.2082 28.5459 26.4957 28.5375C27.5124 28.5125 27.8624 28.1834 27.9165 27.175C27.9749 26.0667 27.9999 24.9584 28.0415 23.8417C28.1165 22.2334 28.554 20.8084 30.0415 19.8084C29.2082 19.2 28.5124 18.4625 28.3249 17.4709C28.1165 16.2709 28.0499 15.0334 27.9332 13.8167C27.8707 13.2 27.8707 12.5667 27.8124 11.9834C27.754 11.4 27.279 11.1084 26.6665 11.1C26.3207 11.1 25.979 11.1 25.5332 11.1V8.77505C28.3374 8.31255 30.2707 9.24588 30.4499 11.9167C30.5249 13.0417 30.5165 14.175 30.5832 15.3042C30.6158 15.9134 30.7093 16.5178 30.8624 17.1084C31.104 18.0334 31.5915 18.3584 32.5665 18.4042C32.7415 18.4125 32.9165 18.4375 33.1124 18.4625Z" fill="#173647" style="fill: rgb(23, 54, 71) !important;"/>
                            </svg>