<svg xmlns="http://www.w3.org/2000/svg" width="136.648" height="32" viewBox="0 0 136.648 32"><defs><style>.a{fill:#000000;}.b{fill:#02a1ff;}.c{fill:#00a0ff;}</style></defs><g transform="translate(-16 -5717)"><circle class="a" cx="15" cy="15" r="15" transform="translate(17.5 5718)"/><g transform="translate(16 5717)"><path class="b" d="M16,0A16,16,0,1,0,32,16,16,16,0,0,0,16,0Zm4.731,23.767a9.5,9.5,0,0,1-5.407,1.308,15.64,15.64,0,0,1-3.812-.391,16.191,16.191,0,0,1-2.1-.651l.817-3.963a16,16,0,0,0,2.547.77,12.41,12.41,0,0,0,2.58.277,4.817,4.817,0,0,0,1.894-.26,1,1,0,0,0,.567-1.014,1.237,1.237,0,0,0-.714-1.025,13.739,13.739,0,0,0-2.19-1,19.82,19.82,0,0,1-2.076-.878,6.153,6.153,0,0,1-1.6-1.1,4.54,4.54,0,0,1-1.01-1.518A5.626,5.626,0,0,1,9.866,12.2,4.585,4.585,0,0,1,11.66,8.383a7.821,7.821,0,0,1,4.936-1.4,15.833,15.833,0,0,1,3.007.277,13.876,13.876,0,0,1,2.27.6l-.845,3.782a19.2,19.2,0,0,0-1.849-.521,10.04,10.04,0,0,0-2.236-.227q-2.269,0-2.27,1.274a1.252,1.252,0,0,0,.1.521,1.067,1.067,0,0,0,.391.441,5.736,5.736,0,0,0,.8.452c.335.164.767.346,1.287.566A19.559,19.559,0,0,1,19.9,15.284a6.187,6.187,0,0,1,1.65,1.239,3.82,3.82,0,0,1,.85,1.483,6.693,6.693,0,0,1,.244,1.89,4.347,4.347,0,0,1-1.914,3.872Z" transform="translate(0 0)"/></g><path class="c" d="M136.648,15.056a9.42,9.42,0,0,1-.1,1.434h-9.179a3.237,3.237,0,0,0,1.105,1.98,3.391,3.391,0,0,0,2.171.673,3.852,3.852,0,0,0,1.65-.368,2.409,2.409,0,0,0,1.13-.94l2.856,1.752a4.638,4.638,0,0,1-2.209,1.968,8.271,8.271,0,0,1-3.5.7,6.612,6.612,0,0,1-6.715-6.7,6.3,6.3,0,0,1,1.917-4.672,6.465,6.465,0,0,1,4.722-1.9,5.956,5.956,0,0,1,4.367,1.765A5.826,5.826,0,0,1,136.648,15.056Zm-9.229-.9h5.56a2.353,2.353,0,0,0-.888-1.587,2.741,2.741,0,0,0-1.79-.635,2.76,2.76,0,0,0-2.882,2.222Z" transform="translate(16 5717)"/><path class="c" d="M116.6,8.975a5.183,5.183,0,0,1,3.757,1.4,4.874,4.874,0,0,1,1.46,3.694V22h-3.694V14.929a2.569,2.569,0,0,0-.6-1.79,2.033,2.033,0,0,0-1.587-.66,2.291,2.291,0,0,0-1.65.648,2.384,2.384,0,0,0-.66,1.8V22h-3.669V14.929a2.569,2.569,0,0,0-.6-1.79,2.065,2.065,0,0,0-1.612-.66,2.21,2.21,0,0,0-1.612.635,2.427,2.427,0,0,0-.648,1.815V22h-3.669V9.229h3.669v1.536a4.137,4.137,0,0,1,3.644-1.79,3.859,3.859,0,0,1,3.618,1.866A4.042,4.042,0,0,1,114.367,9.5,4.929,4.929,0,0,1,116.6,8.975Z" transform="translate(16 5717)"/><path class="c" d="M99.781,15.056a9.457,9.457,0,0,1-.1,1.434H90.5a3.237,3.237,0,0,0,1.1,1.98,3.392,3.392,0,0,0,2.171.673,3.851,3.851,0,0,0,1.65-.368,2.408,2.408,0,0,0,1.13-.94l2.856,1.752A4.64,4.64,0,0,1,97.2,21.556a8.272,8.272,0,0,1-3.5.7,6.613,6.613,0,0,1-6.716-6.7A6.3,6.3,0,0,1,88.9,10.879a6.467,6.467,0,0,1,4.723-1.9,5.959,5.959,0,0,1,4.367,1.765A5.829,5.829,0,0,1,99.781,15.056Zm-9.229-.9h5.56a2.354,2.354,0,0,0-.889-1.587,2.741,2.741,0,0,0-1.79-.635,2.759,2.759,0,0,0-2.882,2.222Z" transform="translate(16 5717)"/><path class="c" d="M85.866,18.6l.19,3.25a4.326,4.326,0,0,1-1.879.355,5.072,5.072,0,0,1-3.694-1.371,5.137,5.137,0,0,1-1.4-3.821V12.72H76.713V9.229h2.374V5.877h3.669V9.229h3.136V12.72H82.756v4.1a1.878,1.878,0,0,0,.571,1.422,1.971,1.971,0,0,0,1.4.533A3.447,3.447,0,0,0,85.866,18.6Z" transform="translate(16 5717)"/><path class="c" d="M71.026,22.254a9.637,9.637,0,0,1-5.726-1.6L66.393,18.1a7.011,7.011,0,0,0,4.316,1.346,2.719,2.719,0,0,0,1.358-.292.857.857,0,0,0,.521-.749.751.751,0,0,0-.394-.647,2.981,2.981,0,0,0-.99-.419q-.609-.152-1.346-.3a13.711,13.711,0,0,1-1.473-.419,7.076,7.076,0,0,1-1.346-.648,3.054,3.054,0,0,1-1-1.092,3.573,3.573,0,0,1-.394-1.663,3.723,3.723,0,0,1,1.422-3.021A5.538,5.538,0,0,1,70.76,8.975a7.566,7.566,0,0,1,4.862,1.46l-1.041,2.653a6.766,6.766,0,0,0-1.866-.952,6.386,6.386,0,0,0-2.107-.381,1.981,1.981,0,0,0-1.13.292.855.855,0,0,0-.432.724.747.747,0,0,0,.3.584,2.443,2.443,0,0,0,.787.394l1.117.343q.635.178,1.282.355a6.678,6.678,0,0,1,1.27.5,6.012,6.012,0,0,1,1.13.724,2.854,2.854,0,0,1,.8,1.041,3.425,3.425,0,0,1,.33,1.473,3.618,3.618,0,0,1-1.422,2.933A5.561,5.561,0,0,1,71.026,22.254Z" transform="translate(16 5717)"/><path class="c" d="M61.479,9.229h3.948L58.33,26.24H54.407l2.361-5.281L51.855,9.229h3.961l2.831,7.465Z" transform="translate(16 5717)"/><path class="c" d="M46.347,22.254a9.637,9.637,0,0,1-5.726-1.6L41.713,18.1a7.011,7.011,0,0,0,4.316,1.346,2.719,2.719,0,0,0,1.358-.292.857.857,0,0,0,.521-.749.751.751,0,0,0-.394-.647,2.981,2.981,0,0,0-.99-.419q-.609-.152-1.346-.3a13.7,13.7,0,0,1-1.473-.419,7.07,7.07,0,0,1-1.346-.648,3.053,3.053,0,0,1-1-1.092,3.573,3.573,0,0,1-.393-1.663,3.723,3.723,0,0,1,1.422-3.021A5.538,5.538,0,0,1,46.08,8.975a7.566,7.566,0,0,1,4.862,1.46L49.9,13.088a6.766,6.766,0,0,0-1.866-.952,6.387,6.387,0,0,0-2.107-.381,1.98,1.98,0,0,0-1.13.292.855.855,0,0,0-.432.724.747.747,0,0,0,.3.584,2.443,2.443,0,0,0,.787.394l1.117.343q.635.178,1.282.355a6.681,6.681,0,0,1,1.27.5,6.011,6.011,0,0,1,1.13.724,2.854,2.854,0,0,1,.8,1.041,3.424,3.424,0,0,1,.33,1.473,3.618,3.618,0,0,1-1.422,2.933A5.561,5.561,0,0,1,46.347,22.254Z" transform="translate(16 5717)"/></g></svg>