<svg xmlns="http://www.w3.org/2000/svg" viewBox="0 0 324 67" fill="#000000"><path d="M17 1zm50 20A21 21 0 0045 0c-4 0-8 1-12 4a21 21 0 00-16-3C9 2 2 8 1 16v1a21 21 0 001 13l11 27a16 16 0 0014 10h37l-7-18 8-19 2-9zM7 21v-3A14 14 0 0121 7l7 2-3 4-11 28-6-14-1-6zm52 6l-9 22 4 11H27l-3-1a9 9 0 01-5-11l13-32a14 14 0 0119-8c6 2 9 8 9 13l-1 6zm49-6H95v35l-4 1-4-1V21H74v-7h34v7z"/><path d="M130 37v17c-4 2-9 3-14 3-10 0-14-4-14-10s5-10 13-10l8 1v-1c0-4-3-6-8-6l-8 2c-2 0-4-2-4-4 2-2 7-5 13-5 8 0 14 4 14 13zm-14 14l7-1v-6l-7-2c-4 0-7 2-7 5s3 4 7 4zm51-11c0 11-8 17-17 17l-6-1v10l-4 1-4-1V29c3-3 8-5 14-5 10 0 17 6 17 16zm-8 0c0-5-3-9-9-9l-6 1v17l6 2c6 0 9-4 9-10zm40 16h-8V31h-11v25a22 22 0 01-7 0V31h-5v-5h5c0-10 6-14 13-14 6 0 9 2 11 4 0 2-2 4-4 5-2-2-3-2-6-2-4 0-7 1-7 6v1h19v30zm8 0V13h8v43h-8zm15-40c0-3 2-5 5-5a5 5 0 110 9c-3 0-5-2-5-5zm1 40V25h8v31h-8zm42-19v17c-3 2-9 3-14 3-9 0-14-4-14-10s6-10 13-10l8 1v-1c0-4-2-6-7-6l-9 2c-2 0-3-2-4-4 2-2 7-5 13-5 8 0 14 4 14 13zm-13 14l6-1v-6l-7-2c-4 0-6 2-6 5s2 4 7 4zm42 3c-2 1-6 3-10 3-7 0-12-3-12-10V31h-5a16 16 0 010-6h5v-8h8v8h12v6h-12v14c0 4 2 6 5 6l5-2 4 5zm30-11h-23c1 5 4 8 9 8s8-2 10-3c1 1 3 3 3 5-3 2-7 4-13 4-10 0-16-6-16-16s7-17 15-17c9 0 15 6 15 14v5zm-8-5c0-4-1-8-7-8-4 0-7 3-8 8h15z"/></svg>