<svg width="128" height="128" viewBox="0 0 128 128" fill="none" xmlns="http://www.w3.org/2000/svg">
<rect width="128" height="128" fill="black"/>
<path d="M61.1854 114.258C60.6731 114.15 59.5297 113.703 58.6464 113.269C57.1901 112.552 56.9428 112.502 56.0468 112.749C55.5042 112.9 54.0732 112.976 52.8693 112.918C50.9764 112.827 50.4237 112.688 48.821 111.896C47.7988 111.391 46.4612 110.513 45.8454 109.945C45.2295 109.377 44.5733 108.973 44.3815 109.044C43.695 109.309 40.1414 108.375 38.6296 107.535C36.9513 106.603 34.97 104.65 34.3214 103.287C34.0387 102.696 33.6829 102.371 33.2185 102.277C32.0045 102.035 29.7254 100.824 28.5771 99.8141C27.1082 98.5194 26.0482 96.8865 25.3819 94.8825C24.9276 93.5171 24.6777 93.1511 23.8297 92.6161C21.2074 90.9604 19.3524 88.1312 18.835 84.9991C18.6659 83.9845 18.5851 82.9421 18.6532 82.6847C18.7315 82.3843 18.5069 81.9578 18.0349 81.506C16.8537 80.3728 15.8189 78.5683 15.2889 76.7107C14.6857 74.6033 14.663 72.9602 15.2082 71.0194C15.5691 69.7297 15.5741 69.4924 15.2536 69.1088C14.0724 67.698 13.3531 64.1141 13.7797 61.7644C14.0699 60.1592 14.7236 58.4303 15.3495 57.6076C15.6549 57.2088 15.6524 56.8883 15.3394 55.3361C14.6681 52.0197 15.7256 48.3753 18.1056 45.7984C18.9208 44.915 19.0848 44.5592 19.0848 43.6708C19.0848 42.3533 19.9429 39.4963 20.7607 38.0981C21.5153 36.8084 23.547 34.8776 24.7534 34.3022C25.4576 33.9665 25.7125 33.6485 25.927 32.8535C26.8861 29.2923 29.5563 26.5388 33.1958 25.3551C34.7277 24.8554 34.9296 24.7039 35.7423 23.4269C36.6181 22.0514 38.3369 20.5598 40.0329 19.6991C40.9793 19.2171 43.9525 18.5735 45.227 18.5735C45.7343 18.5735 46.2113 18.3488 46.6151 17.9198C48.874 15.5019 53.841 14.1819 57.0437 15.1461C58.1921 15.4918 58.2855 15.4792 59.6711 14.8003C62.8259 13.2557 66.5158 13.2607 69.6833 14.8205C71.1673 15.5499 71.2253 15.5575 73.045 15.2647C76.3917 14.7246 79.6096 15.6635 82.0931 17.9046C83.2263 18.9293 83.5342 19.0782 84.5084 19.0782C88.0141 19.0782 92.2466 21.6147 93.7962 24.6408C94.1698 25.3753 94.5029 25.6125 95.6563 25.976C98.9601 27.0183 101.797 29.8854 102.822 33.2169C103.223 34.5293 103.435 34.8221 104.432 35.4531C107.584 37.452 109.416 40.7936 109.434 44.5693C109.439 45.8438 109.517 46.0331 110.411 46.8988C111.698 48.1481 112.584 49.9123 113.109 52.2721C113.51 54.0767 113.51 54.3417 113.121 56.3002C112.718 58.3344 112.72 58.4202 113.207 59.2481C114.111 60.7801 114.565 63.1525 114.404 65.4845C114.282 67.2033 114.093 67.9201 113.384 69.341C112.604 70.9008 112.541 71.1859 112.771 72.0188C112.912 72.5312 112.983 73.99 112.927 75.262C112.836 77.3088 112.718 77.7909 111.892 79.4642C111.377 80.5041 110.524 81.7938 109.994 82.3339C109.174 83.1667 109.028 83.4873 108.99 84.5195C108.849 88.3381 106.514 92.182 103.354 93.7972C102.615 94.1758 102.382 94.4888 102.107 95.4756C101.698 96.9395 101.492 97.3483 100.358 98.9182C99.0232 100.768 96.2494 102.623 94.2556 102.997C93.5666 103.125 93.2334 103.383 92.8347 104.092C91.9235 105.707 89.9903 107.426 88.0166 108.373C86.4947 109.104 85.7805 109.289 84.1223 109.385C82.1688 109.498 82.0477 109.541 81.0659 110.485C79.7686 111.732 77.4719 112.83 75.3645 113.208C73.9839 113.458 73.4312 113.438 71.874 113.085L70.0265 112.663L68.2346 113.466C66.7808 114.114 66.0337 114.283 64.2797 114.362C63.0909 114.412 61.6977 114.367 61.1854 114.258ZM65.3296 108.764C66.4855 108.32 68.2068 106.846 68.4415 106.101C68.6434 105.465 69.3703 105.536 70.0467 106.258C70.3622 106.593 71.1976 107.116 71.9043 107.419C74.7663 108.65 78.1281 106.977 79.1402 103.817C79.4935 102.719 79.7812 102.664 81.0886 103.433C84.1829 105.261 88.5693 102.686 88.9403 98.8223L89.0615 97.5553L90.861 97.7193C92.928 97.9061 93.9224 97.6007 95.361 96.3363C96.6356 95.2182 97.1303 93.825 97.0293 91.6469L96.9486 89.8726L98.3342 89.7237C100.537 89.484 101.994 88.4744 103.018 86.4654C103.614 85.2969 103.619 82.8412 103.029 81.7105C102.488 80.6757 102.617 80.2719 103.548 80.0851C104.644 79.8655 106.337 78.5102 106.903 77.4073C108.031 75.1938 107.794 72.8997 106.249 71.0951C105.58 70.3152 105.459 70.0351 105.711 69.8332C107.491 68.3971 108.089 67.7383 108.594 66.6556C109.699 64.2807 109.169 62.1783 106.968 60.2172L105.555 58.9578L106.206 58.2638C107.132 57.2744 107.678 56.0857 107.842 54.7026C108.114 52.4033 106.441 49.8189 104.225 49.1097C103.692 48.9381 103.157 48.7084 103.034 48.5948C102.912 48.4813 103.079 47.8553 103.412 47.1739C104.737 44.4835 103.748 41.1444 101.237 39.837C100.82 39.62 99.8535 39.3752 99.0913 39.2919L97.7032 39.143L97.7915 37.2374C97.9177 34.4511 97.1807 32.9343 95.0607 31.6244C94.3338 31.1751 93.7836 31.0742 92.027 31.0716L89.8792 31.0666L89.7303 29.6785C89.647 28.9137 89.3971 27.937 89.175 27.508C88.6248 26.4479 87.2216 25.2567 86.0783 24.8781C84.9022 24.4894 82.4161 24.6913 81.6363 25.2365C80.7756 25.8397 80.5232 25.7387 80.2052 24.6711C79.7636 23.2022 78.5698 21.7308 77.328 21.1301C75.2484 20.1231 72.3535 20.5547 70.9755 22.0791C70.3268 22.7959 69.9003 22.7479 69.4637 21.9176C68.1816 19.4619 64.7011 18.3287 62.2631 19.5729C61.3293 20.0499 59.7241 21.4608 59.714 21.8116C59.714 21.905 59.6105 22.1397 59.4868 22.3366C59.3051 22.6192 59.0452 22.5057 58.182 21.7662C55.8752 19.7925 52.5816 19.848 50.4615 21.8999C49.7043 22.6318 49.4974 22.9978 48.8816 24.6913L48.6292 25.3829L47.448 24.7544C43.8263 22.8287 39.2757 25.4182 39.2757 29.4034C39.2757 29.9536 39.1849 30.4634 39.0738 30.5315C38.9603 30.5997 38.3646 30.5416 37.7488 30.4003C36.0805 30.0167 34.1801 30.5063 32.9232 31.6395C31.4063 33.01 31.1009 33.7722 31.0858 36.2405L31.0732 38.3858L29.5311 38.5347C27.3303 38.7442 25.5611 40.1399 24.8796 42.2019C24.4985 43.3578 24.7055 45.5662 25.2759 46.4369C25.8614 47.3329 25.662 47.6534 24.2032 48.1784C21.9595 48.986 20.5991 50.9597 20.5991 53.4053C20.5991 54.7783 21.1948 56.2321 22.0857 57.0372C22.8731 57.7514 22.7268 58.2436 21.4926 59.026C20.7253 59.5131 20.1852 60.1289 19.7335 61.0324C18.3706 63.7683 19.1833 66.431 21.9923 68.44L22.7293 68.9675L21.7904 70.0654C19.3347 72.9325 20.0994 76.953 23.4284 78.6642C23.9433 78.9292 24.5339 79.1462 24.7383 79.1462C25.3869 79.1462 25.3894 79.5273 24.7509 80.7867C22.9463 84.3504 25.2986 88.4214 29.4453 88.911C30.1318 88.9918 30.6921 89.1281 30.6896 89.2139C30.6845 89.2997 30.5735 89.8222 30.4397 90.3774C30.0586 91.9649 30.5533 93.878 31.6638 95.1122C33.0065 96.6013 34.3794 97.1363 36.5929 97.0278L38.3924 96.9395L38.458 97.8228C38.6448 100.347 39.3262 101.5 41.4109 102.82C42.6552 103.61 44.9771 103.714 46.2668 103.04C47.4581 102.416 47.7458 102.51 48.0815 103.633C48.6771 105.622 50.7189 107.262 52.9828 107.572C54.1943 107.739 56.3043 106.997 57.0892 106.129C57.7201 105.432 58.2779 105.533 58.9644 106.467C59.8099 107.613 60.6251 108.226 61.9678 108.728C63.4342 109.274 63.9919 109.281 65.3296 108.764ZM58.8357 99.0898C51.5468 98.3049 44.6087 95.8138 40.101 92.3586C37.8548 90.6399 36.502 89.1382 35.2477 86.9702C33.3144 83.6336 32.9711 81.3167 32.9686 71.5494L32.9661 64.8334L31.1691 64.682C29.0591 64.5053 27.2091 63.6875 26.664 62.6906C26.3233 62.0698 26.3384 61.9133 26.8306 60.8987L27.3707 59.7882L29.3948 59.6494C30.952 59.5408 31.7142 59.349 32.7061 58.8089C33.9226 58.1451 35.7423 56.4441 36.0755 55.6566C36.1916 55.3815 36.3329 55.4446 36.6711 55.9267C37.4838 57.0851 39.1369 58.5035 40.2853 59.026C42.0242 59.8159 44.8181 59.7604 46.4788 58.8998C47.6676 58.2865 49.611 56.4718 49.9567 55.6566C50.0728 55.3815 50.2142 55.4446 50.5524 55.9267C51.3524 57.0624 52.6876 58.2082 54.0075 58.8897C55.8449 59.8387 58.5353 59.8437 60.3601 58.8998C61.5539 58.284 63.5048 56.4592 63.8304 55.6566C63.9389 55.3891 64.1282 55.4926 64.5548 56.0529C65.5164 57.3148 66.5638 58.2057 67.9065 58.8998C69.7236 59.8387 72.4267 59.8412 74.2313 58.9023C75.7077 58.1376 76.2655 57.6656 77.2574 56.3431L77.9868 55.3739L78.5067 56.0857C79.3724 57.2744 80.4753 58.2158 81.8028 58.9048C82.8402 59.4424 83.403 59.556 84.9577 59.5509C87.7642 59.5383 89.3643 58.6524 91.4592 55.962L91.9235 55.3664L92.6428 56.3406C94.2102 58.4556 96.1056 59.4601 98.897 59.6494C100.757 59.7781 100.906 59.8311 101.249 60.4949C101.683 61.3353 101.719 62.3272 101.34 63.0339C100.924 63.8112 99.008 64.533 96.946 64.6895L95.0935 64.8309L94.9875 73.566C94.8866 81.7483 94.8462 82.4045 94.3263 83.9416C91.8352 91.2911 84.1273 96.523 72.7346 98.5926C69.5394 99.1731 62.094 99.4381 58.8357 99.0898ZM44.8181 85.8395C46.0473 85.2035 46.5949 84.2772 46.5949 82.8361C46.5924 80.3652 45.1008 78.9973 42.635 79.2017C38.0466 79.5828 38.4025 86.208 43.0111 86.213C43.6067 86.213 44.4219 86.0439 44.8181 85.8395ZM87.1534 85.7184C89.3442 84.3832 89.2533 80.7009 86.9995 79.5374C86.5856 79.3229 85.7552 79.1462 85.1596 79.1462C81.5404 79.1513 80.1623 83.6336 83.1657 85.6401C84.2611 86.372 86.0253 86.4074 87.1534 85.7184Z" fill="#FDFDFD"/>
</svg>
