<?xml version="1.0" encoding="UTF-8" standalone="no"?>
<!-- Created with Inkscape (http://www.inkscape.org/) -->

<svg
   xmlns:dc="http://purl.org/dc/elements/1.1/"
   xmlns:cc="http://creativecommons.org/ns#"
   xmlns:rdf="http://www.w3.org/1999/02/22-rdf-syntax-ns#"
   xmlns:svg="http://www.w3.org/2000/svg"
   xmlns="http://www.w3.org/2000/svg"
   xmlns:inkscape="http://www.inkscape.org/namespaces/inkscape"
   version="1.1"
   width="100%"
   height="100%"
   viewBox="0 0 506 202"
   preserveAspectRatio="xMinYMin slice"
   id="svg2"
   xml:space="preserve"><metadata
     id="metadata8"><rdf:RDF><cc:Work
         rdf:about=""><dc:format>image/svg+xml</dc:format><dc:type
           rdf:resource="http://purl.org/dc/dcmitype/StillImage" /></cc:Work></rdf:RDF></metadata><defs
     id="defs6" /><g
     transform="matrix(1.25,0,0,-1.25,0,201.95)"
     id="g10"><g
       transform="scale(0.1,0.1)"
       id="g12"><path
         d="m 137.5,1425 255,0 0,-375 152.5,0 0,-220 -152.5,0 0,-800 -255,0 0,800 -132.5,0 0,220 132.5,0 0,375"
         inkscape:connector-curvature="0"
         id="path14"
         style="fill:#000000;fill-opacity:1;fill-rule:nonzero;stroke:none" /><path
         d="m 137.5,1425 255,0 0,-375 152.5,0 0,-220 -152.5,0 0,-800 -255,0 0,800 -132.5,0 0,220 132.5,0 0,375 z"
         inkscape:connector-curvature="0"
         id="path16"
         style="fill:none;stroke:none;stroke-width:10;stroke-linecap:butt;stroke-linejoin:miter;stroke-miterlimit:4;stroke-opacity:1;stroke-dasharray:none" /><path
         d="m 1433.12,1050 255,0 0,-1020 -255,0 0,108.789 C 1383.01,91.3672 1332.73,57.2266 1282.3,36.3281 1231.84,15.4688 1177.19,5 1118.32,5 986.133,5 871.797,55.9766 775.312,157.93 678.828,259.883 630.625,386.602 630.625,538.125 c 0,157.109 46.641,285.898 140,386.289 C 863.984,1024.8 977.383,1075 1110.82,1075 c 61.37,0 118.98,-11.48 172.89,-34.38 53.87,-22.92 103.67,-57.3 149.41,-103.12 l 0,112.5 z M 1163.28,840 c -79.69,0 -145.9,-27.891 -198.592,-83.672 -52.735,-55.781 -79.063,-127.266 -79.063,-214.453 0,-87.891 26.797,-160.156 80.469,-216.836 C 1019.73,268.32 1085.78,240 1164.22,240 c 80.94,0 148.05,27.852 201.4,83.633 53.33,55.781 80,128.828 80,219.179 0,88.438 -26.67,160.079 -80,214.922 C 1312.27,812.578 1244.84,840 1163.28,840"
         inkscape:connector-curvature="0"
         id="path18"
         style="fill:#000000;fill-opacity:1;fill-rule:nonzero;stroke:none" /><path
         d="m 1433.12,1050 255,0 0,-1020 -255,0 0,108.789 C 1383.01,91.3672 1332.73,57.2266 1282.3,36.3281 1231.84,15.4688 1177.19,5 1118.32,5 986.133,5 871.797,55.9766 775.312,157.93 678.828,259.883 630.625,386.602 630.625,538.125 c 0,157.109 46.641,285.898 140,386.289 C 863.984,1024.8 977.383,1075 1110.82,1075 c 61.37,0 118.98,-11.48 172.89,-34.38 53.87,-22.92 103.67,-57.3 149.41,-103.12 l 0,112.5 z M 1163.28,840 c -79.69,0 -145.9,-27.891 -198.592,-83.672 -52.735,-55.781 -79.063,-127.266 -79.063,-214.453 0,-87.891 26.797,-160.156 80.469,-216.836 C 1019.73,268.32 1085.78,240 1164.22,240 c 80.94,0 148.05,27.852 201.4,83.633 53.33,55.781 80,128.828 80,219.179 0,88.438 -26.67,160.079 -80,214.922 C 1312.27,812.578 1244.84,840 1163.28,840 z"
         inkscape:connector-curvature="0"
         id="path20"
         style="fill:none;stroke:none;stroke-width:10;stroke-linecap:butt;stroke-linejoin:miter;stroke-miterlimit:4;stroke-opacity:1;stroke-dasharray:none" /><path
         d="m 1835.62,1050 261.53,0 255.97,-601.875 258.64,601.875 258.86,0 -438.24,-1020 -162.97,0 -433.79,1020"
         inkscape:connector-curvature="0"
         id="path22"
         style="fill:#000000;fill-opacity:1;fill-rule:nonzero;stroke:none" /><path
         d="m 1835.62,1050 261.53,0 255.97,-601.875 258.64,601.875 258.86,0 -438.24,-1020 -162.97,0 -433.79,1020 z"
         inkscape:connector-curvature="0"
         id="path24"
         style="fill:none;stroke:none;stroke-width:10;stroke-linecap:butt;stroke-linejoin:miter;stroke-miterlimit:4;stroke-opacity:1;stroke-dasharray:none" /><path
         d="m 4042.5,467.5 -821.56,0 c 11.83,-72.617 43.47,-130.352 94.88,-173.203 51.41,-42.891 116.99,-64.297 196.76,-64.297 95.35,0 177.3,33.477 245.86,100.43 l 215,-101.289 C 3919.8,152.852 3855.59,96.4062 3780.74,59.8438 3705.9,23.3203 3617.03,5 3514.14,5 c -159.69,0 -289.73,50.3516 -390.12,151.055 -100.39,100.703 -150.58,226.797 -150.58,378.32 0,155.234 50.11,284.18 150.39,386.758 100.23,102.577 225.94,153.867 377.11,153.867 160.54,0 291.09,-51.17 391.64,-153.516 100.54,-102.343 150.86,-237.5 150.86,-405.468 L 4042.5,467.5 z m -254.06,200 c -16.92,56.211 -50.28,101.914 -100.04,137.148 -49.77,35.235 -107.54,52.852 -173.24,52.852 -71.37,0 -133.99,-19.805 -187.82,-59.336 -33.82,-24.726 -65.11,-68.281 -93.9,-130.664 l 555,0"
         inkscape:connector-curvature="0"
         id="path26"
         style="fill:#000000;fill-opacity:1;fill-rule:nonzero;stroke:none" /><path
         d="m 4042.5,467.5 -821.56,0 c 11.83,-72.617 43.47,-130.352 94.88,-173.203 51.41,-42.891 116.99,-64.297 196.76,-64.297 95.35,0 177.3,33.477 245.86,100.43 l 215,-101.289 C 3919.8,152.852 3855.59,96.4062 3780.74,59.8438 3705.9,23.3203 3617.03,5 3514.14,5 c -159.69,0 -289.73,50.3516 -390.12,151.055 -100.39,100.703 -150.58,226.797 -150.58,378.32 0,155.234 50.11,284.18 150.39,386.758 100.23,102.577 225.94,153.867 377.11,153.867 160.54,0 291.09,-51.17 391.64,-153.516 100.54,-102.343 150.86,-237.5 150.86,-405.468 L 4042.5,467.5 z m -254.06,200 c -16.92,56.211 -50.28,101.914 -100.04,137.148 -49.77,35.235 -107.54,52.852 -173.24,52.852 -71.37,0 -133.99,-19.805 -187.82,-59.336 -33.82,-24.726 -65.11,-68.281 -93.9,-130.664 l 555,0 z"
         inkscape:connector-curvature="0"
         id="path28"
         style="fill:none;stroke:none;stroke-width:10;stroke-linecap:butt;stroke-linejoin:miter;stroke-miterlimit:4;stroke-opacity:1;stroke-dasharray:none" /><path
         d="m 1038.75,1190.62 c 0,239.41 83.4,420 442.37,420 -2.19,-294 -159.73,-424.19 -442.37,-420"
         inkscape:connector-curvature="0"
         id="path30"
         style="fill:#000000;fill-opacity:1;fill-rule:nonzero;stroke:none" /><path
         d="m 1038.75,1190.62 c 0,239.41 83.4,420 442.37,420 -2.19,-294 -159.73,-424.19 -442.37,-420 z"
         inkscape:connector-curvature="0"
         id="path32"
         style="fill:none;stroke:none;stroke-width:10;stroke-linecap:butt;stroke-linejoin:miter;stroke-miterlimit:4;stroke-opacity:1;stroke-dasharray:none" /></g></g></svg>