<svg width="120" height="30" viewBox="0 0 120 30" fill="none" xmlns="http://www.w3.org/2000/svg" style="fill: none !important;"><path d="M28 20C28 20.7072 27.719 21.3855 27.219 21.8856C26.7189 22.3857 26.0406 22.6667 25.3333 22.6667H9.33333L4 28V6.66667C4 5.95942 4.28095 5.28115 4.78105 4.78105C5.28115 4.28095 5.95942 4 6.66667 4H25.3333C26.0406 4 26.7189 4.28095 27.219 4.78105C27.719 5.28115 28 5.95942 28 6.66667V20Z" stroke-width="2" stroke-linecap="round" stroke-linejoin="round" style="fill: none !important; stroke: rgb(235, 88, 51) !important; stroke-width: 2px !important; stroke-linecap: round !important; stroke-linejoin: round !important;"/><path d="M19.7333 10C19.2734 9.54079 18.65 9.28287 18 9.28287C17.35 9.28287 16.7266 9.54079 16.2667 10L16 10.4L15.6 10C15.3549 9.78988 15.0708 9.63011 14.7639 9.5298C14.457 9.42948 14.1334 9.3906 13.8114 9.41536C13.4895 9.44012 13.1757 9.52805 12.8877 9.67411C12.5998 9.82018 12.3435 10.0215 12.1333 10.2667C11.9232 10.5118 11.7634 10.7959 11.6631 11.1028C11.5628 11.4097 11.5239 11.7333 11.5487 12.0552C11.5735 12.3771 11.6614 12.691 11.8075 12.9789C11.9535 13.2669 12.1549 13.5232 12.4 13.7333L16 17.3333L19.6 13.7333C20.8 12.5333 20.6667 10.9333 19.7333 10Z" stroke-width="2" stroke-linecap="round" stroke-linejoin="round" style="fill: none !important; stroke: rgb(235, 88, 51) !important; stroke-width: 2px !important; stroke-linecap: round !important; stroke-linejoin: round !important;"/><path class="hidden md:block" d="M44.64 10.972L44.464 11.02L43.024 10.828H41.552V18.3L41.712 20.7H39.088L39.248 18.3V10.828H37.776L36.336 11.02L36.16 10.972L36.512 8.7H44.288L44.64 10.972ZM49.3958 20.892C47.9664 20.892 46.9211 20.4707 46.2598 19.628C45.5984 18.7853 45.2678 17.5373 45.2678 15.884C45.2678 14.2733 45.6144 13.0307 46.3078 12.156C47.0118 11.2813 48.0411 10.844 49.3958 10.844C50.7291 10.844 51.7158 11.18 52.3558 11.852C53.0064 12.524 53.3851 13.5853 53.4918 15.036L53.0598 16.716H47.6038C47.6464 17.2387 47.7478 17.6387 47.9078 17.916C48.0678 18.1933 48.2971 18.3853 48.5958 18.492C48.9051 18.5987 49.3318 18.652 49.8758 18.652C50.5904 18.652 51.2251 18.588 51.7798 18.46C52.3451 18.332 52.7291 18.1667 52.9318 17.964L53.2038 18.108L52.7078 20.06C52.3024 20.3693 51.8438 20.5827 51.3318 20.7C50.8198 20.828 50.1744 20.892 49.3958 20.892ZM51.2198 15.036C51.2198 14.364 51.0758 13.868 50.7878 13.548C50.4998 13.2173 50.0571 13.052 49.4598 13.052C48.8304 13.052 48.3718 13.2013 48.0838 13.5C47.8064 13.788 47.6411 14.3 47.5878 15.036H51.2198ZM55.2843 18.028C55.2843 17.42 55.4283 16.8707 55.7163 16.38C56.0149 15.8787 56.4043 15.484 56.8843 15.196C57.3749 14.908 57.9029 14.764 58.4683 14.764C59.4496 14.764 60.2123 14.908 60.7563 15.196V14.348C60.7563 13.9427 60.5909 13.628 60.2603 13.404C59.9403 13.18 59.4869 13.068 58.9003 13.068C58.2709 13.068 57.7109 13.1693 57.2203 13.372C56.7403 13.5747 56.3723 13.8787 56.1163 14.284L55.9403 14.252L56.2283 11.884C56.5909 11.564 57.0389 11.3187 57.5723 11.148C58.1163 10.9667 58.6656 10.876 59.2203 10.876C60.3723 10.876 61.2896 11.148 61.9723 11.692C62.6549 12.236 62.9963 12.9773 62.9963 13.916V18.316L63.1563 20.7H60.8043L60.7563 19.82C60.5429 20.1613 60.2069 20.4387 59.7483 20.652C59.3003 20.8547 58.8043 20.956 58.2603 20.956C57.3536 20.956 56.6283 20.6947 56.0843 20.172C55.5509 19.6493 55.2843 18.9347 55.2843 18.028ZM57.5883 17.884C57.5883 18.2467 57.6789 18.5293 57.8603 18.732C58.0523 18.924 58.3296 19.02 58.6923 19.02C59.0869 19.02 59.4603 18.9453 59.8123 18.796C60.1749 18.636 60.4896 18.412 60.7563 18.124V17.036C60.1589 16.748 59.4869 16.604 58.7403 16.604C58.3456 16.604 58.0523 16.7107 57.8603 16.924C57.6789 17.1373 57.5883 17.4573 57.5883 17.884ZM75.2081 18.3V14.188C75.2081 13.836 75.1068 13.5587 74.9041 13.356C74.7121 13.1427 74.4508 13.036 74.1201 13.036C73.5868 13.036 73.1228 13.26 72.7281 13.708V13.756V18.3L72.8881 20.7H70.3281L70.4881 18.3V14.188C70.4881 13.836 70.3868 13.5587 70.1841 13.356C69.9921 13.1427 69.7308 13.036 69.4001 13.036C68.8668 13.036 68.4028 13.26 68.0081 13.708V18.3L68.1681 20.7H65.6081L65.7681 18.3V13.42L65.6081 11.1H67.6881L67.9441 12.06C68.5308 11.3453 69.3201 10.988 70.3121 10.988C70.8241 10.988 71.2668 11.1 71.6401 11.324C72.0135 11.548 72.2908 11.8787 72.4721 12.316C73.0695 11.4307 73.9228 10.988 75.0321 10.988C75.7788 10.988 76.3655 11.2227 76.7921 11.692C77.2295 12.1613 77.4481 12.8493 77.4481 13.756V18.3L77.6081 20.7H75.0481L75.2081 18.3ZM87.7479 20.876C87.0332 20.876 86.3452 20.748 85.6839 20.492C85.0332 20.2253 84.4679 19.8467 83.9879 19.356L83.6519 17.1L83.8759 17.036C84.4732 17.548 85.0759 17.9427 85.6839 18.22C86.2919 18.4867 86.8785 18.62 87.4439 18.62C88.1159 18.62 88.6332 18.5187 88.9959 18.316C89.3692 18.1027 89.5559 17.804 89.5559 17.42C89.5559 17.0573 89.3799 16.764 89.0279 16.54C88.6865 16.3053 88.0679 16.0547 87.1719 15.788C86.3292 15.5427 85.6679 15.2707 85.1879 14.972C84.7079 14.6733 84.3612 14.3 84.1479 13.852C83.9345 13.404 83.8279 12.8227 83.8279 12.108C83.8279 10.988 84.1905 10.1133 84.9159 9.484C85.6519 8.85466 86.6172 8.54 87.8119 8.54C88.5372 8.54 89.2359 8.652 89.9079 8.876C90.5799 9.1 91.1239 9.39866 91.5399 9.772L91.1879 11.932L90.9479 11.996C90.7239 11.644 90.3345 11.356 89.7799 11.132C89.2359 10.908 88.6492 10.796 88.0199 10.796C87.4439 10.796 87.0012 10.8973 86.6919 11.1C86.3825 11.3027 86.2279 11.6013 86.2279 11.996C86.2279 12.4013 86.3772 12.716 86.6759 12.94C86.9852 13.1533 87.5399 13.372 88.3399 13.596C89.2572 13.852 89.9719 14.1293 90.4839 14.428C90.9959 14.716 91.3692 15.0787 91.6039 15.516C91.8385 15.9533 91.9559 16.5133 91.9559 17.196C91.9559 18.3587 91.5719 19.2653 90.8039 19.916C90.0359 20.556 89.0172 20.876 87.7479 20.876ZM103.797 18.3V10.588L101.493 20.7H98.6775L96.3575 10.46V18.3L96.5175 20.7H94.1975L94.3575 18.3V11.02L94.2615 8.7H98.2775L100.293 18.124L102.309 8.7H106.229L106.134 11.02V18.3L106.309 20.7H103.637L103.797 18.3ZM112.645 20.876C111.93 20.876 111.242 20.748 110.581 20.492C109.93 20.2253 109.365 19.8467 108.885 19.356L108.549 17.1L108.773 17.036C109.37 17.548 109.973 17.9427 110.581 18.22C111.189 18.4867 111.775 18.62 112.341 18.62C113.013 18.62 113.53 18.5187 113.893 18.316C114.266 18.1027 114.453 17.804 114.453 17.42C114.453 17.0573 114.277 16.764 113.925 16.54C113.583 16.3053 112.965 16.0547 112.069 15.788C111.226 15.5427 110.565 15.2707 110.085 14.972C109.605 14.6733 109.258 14.3 109.045 13.852C108.831 13.404 108.725 12.8227 108.725 12.108C108.725 10.988 109.087 10.1133 109.813 9.484C110.549 8.85466 111.514 8.54 112.709 8.54C113.434 8.54 114.133 8.652 114.805 8.876C115.477 9.1 116.021 9.39866 116.437 9.772L116.085 11.932L115.845 11.996C115.621 11.644 115.231 11.356 114.677 11.132C114.133 10.908 113.546 10.796 112.917 10.796C112.341 10.796 111.898 10.8973 111.589 11.1C111.279 11.3027 111.125 11.6013 111.125 11.996C111.125 12.4013 111.274 12.716 111.573 12.94C111.882 13.1533 112.437 13.372 113.237 13.596C114.154 13.852 114.869 14.1293 115.381 14.428C115.893 14.716 116.266 15.0787 116.501 15.516C116.735 15.9533 116.853 16.5133 116.853 17.196C116.853 18.3587 116.469 19.2653 115.701 19.916C114.933 20.556 113.914 20.876 112.645 20.876Z" fill="black" style="fill: rgb(0, 0, 0) !important;"/></svg>