<?xml version="1.0" encoding="UTF-8" standalone="no"?>
<!DOCTYPE svg PUBLIC "-//W3C//DTD SVG 1.1//EN" "http://www.w3.org/Graphics/SVG/1.1/DTD/svg11.dtd">
<svg xmlns="http://www.w3.org/2000/svg" version="1.1" viewBox="0.00 0.00 400.00 400.00">
<g stroke-width="2.00" fill="none" stroke-linecap="butt">
<path stroke="#86d180" vector-effect="non-scaling-stroke" d="
  M 138.94 96.21
  Q 138.90 96.22 138.83 96.22
  A 0.29 0.17 -59.5 0 0 138.65 96.32
  L 97.86 139.42
  A 3.32 3.28 67.0 0 0 96.96 141.69
  L 96.96 303.83
  A 0.86 0.85 90.0 0 0 97.81 304.69
  Q 156.81 304.72 250.13 304.69
  Q 252.50 304.69 253.82 303.32
  Q 270.88 285.54 301.36 254.62
  Q 303.02 252.94 303.02 251.50
  Q 303.07 162.72 303.03 95.77
  A 0.47 0.46 89.4 0 0 302.57 95.31
  L 184.15 95.31
  A 0.36 0.35 0.0 0 0 183.79 95.66
  L 183.79 139.44
  A 0.70 0.70 0.0 0 1 183.09 140.14
  L 139.76 140.14
  A 0.57 0.56 0.0 0 1 139.19 139.58
  L 139.25 96.44
  A 0.24 0.24 0.0 0 0 138.94 96.21"
/>
<path stroke="#86d180" vector-effect="non-scaling-stroke" d="
  M 183.15 185.06
  L 139.89 185.06
  A 0.63 0.63 0.0 0 0 139.26 185.69
  L 139.26 258.69
  A 0.98 0.98 0.0 0 0 140.24 259.67
  L 232.81 259.67
  A 3.05 3.04 21.7 0 0 235.02 258.72
  Q 244.57 248.72 256.42 236.42
  Q 258.35 234.41 258.35 233.22
  Q 258.32 188.06 258.34 141.20
  A 1.01 1.01 0.0 0 0 257.33 140.19
  L 184.41 140.19
  A 0.55 0.54 -0.0 0 0 183.86 140.73
  L 183.86 184.35
  A 0.71 0.71 0.0 0 1 183.15 185.06"
/>
</g>
<path fill="#0ca300" d="
  M 400.00 0.00
  L 400.00 400.00
  L 0.00 400.00
  L 0.00 0.00
  L 400.00 0.00
  Z
  M 138.94 96.21
  Q 138.90 96.22 138.83 96.22
  A 0.29 0.17 -59.5 0 0 138.65 96.32
  L 97.86 139.42
  A 3.32 3.28 67.0 0 0 96.96 141.69
  L 96.96 303.83
  A 0.86 0.85 90.0 0 0 97.81 304.69
  Q 156.81 304.72 250.13 304.69
  Q 252.50 304.69 253.82 303.32
  Q 270.88 285.54 301.36 254.62
  Q 303.02 252.94 303.02 251.50
  Q 303.07 162.72 303.03 95.77
  A 0.47 0.46 89.4 0 0 302.57 95.31
  L 184.15 95.31
  A 0.36 0.35 0.0 0 0 183.79 95.66
  L 183.79 139.44
  A 0.70 0.70 0.0 0 1 183.09 140.14
  L 139.76 140.14
  A 0.57 0.56 0.0 0 1 139.19 139.58
  L 139.25 96.44
  A 0.24 0.24 0.0 0 0 138.94 96.21
  Z"
/>
<path fill="#ffffff" d="
  M 138.94 96.21
  A 0.24 0.24 0.0 0 1 139.25 96.44
  L 139.19 139.58
  A 0.57 0.56 0.0 0 0 139.76 140.14
  L 183.09 140.14
  A 0.70 0.70 0.0 0 0 183.79 139.44
  L 183.79 95.66
  A 0.36 0.35 -0.0 0 1 184.15 95.31
  L 302.57 95.31
  A 0.47 0.46 89.4 0 1 303.03 95.77
  Q 303.07 162.72 303.02 251.50
  Q 303.02 252.94 301.36 254.62
  Q 270.88 285.54 253.82 303.32
  Q 252.50 304.69 250.13 304.69
  Q 156.81 304.72 97.81 304.69
  A 0.86 0.85 -90.0 0 1 96.96 303.83
  L 96.96 141.69
  A 3.32 3.28 67.0 0 1 97.86 139.42
  L 138.65 96.32
  A 0.29 0.17 -59.5 0 1 138.83 96.22
  Q 138.90 96.22 138.94 96.21
  Z
  M 183.15 185.06
  L 139.89 185.06
  A 0.63 0.63 0.0 0 0 139.26 185.69
  L 139.26 258.69
  A 0.98 0.98 0.0 0 0 140.24 259.67
  L 232.81 259.67
  A 3.05 3.04 21.7 0 0 235.02 258.72
  Q 244.57 248.72 256.42 236.42
  Q 258.35 234.41 258.35 233.22
  Q 258.32 188.06 258.34 141.20
  A 1.01 1.01 0.0 0 0 257.33 140.19
  L 184.41 140.19
  A 0.55 0.54 -0.0 0 0 183.86 140.73
  L 183.86 184.35
  A 0.71 0.71 0.0 0 1 183.15 185.06
  Z"
/>
<path fill="#0ca300" d="
  M 183.15 185.06
  A 0.71 0.71 0.0 0 0 183.86 184.35
  L 183.86 140.73
  A 0.55 0.54 -0.0 0 1 184.41 140.19
  L 257.33 140.19
  A 1.01 1.01 0.0 0 1 258.34 141.20
  Q 258.32 188.06 258.35 233.22
  Q 258.35 234.41 256.42 236.42
  Q 244.57 248.72 235.02 258.72
  A 3.05 3.04 21.7 0 1 232.81 259.67
  L 140.24 259.67
  A 0.98 0.98 0.0 0 1 139.26 258.69
  L 139.26 185.69
  A 0.63 0.63 0.0 0 1 139.89 185.06
  L 183.15 185.06
  Z"
/>
</svg>
