<?xml version="1.0" encoding="UTF-8" standalone="no"?>
<!DOCTYPE svg PUBLIC "-//W3C//DTD SVG 1.1//EN" "http://www.w3.org/Graphics/SVG/1.1/DTD/svg11.dtd">
<svg xmlns="http://www.w3.org/2000/svg" version="1.1" viewBox="0.00 0.00 400.00 400.00">
<g stroke-width="2.00" fill="none" stroke-linecap="butt">
<path stroke="#80d9d9" vector-effect="non-scaling-stroke" d="
  M 50.98 195.19
  A 0.34 0.34 0.0 0 0 51.17 195.81
  L 195.51 195.81
  A 0.34 0.34 0.0 0 0 195.85 195.47
  L 195.85 100.64
  A 0.34 0.34 0.0 0 0 195.32 100.36
  L 50.98 195.19"
/>
<path stroke="#80d9d9" vector-effect="non-scaling-stroke" d="
  M 200.68 101.54
  A 0.33 0.33 0.0 0 0 200.07 101.72
  L 200.07 295.18
  A 0.33 0.33 0.0 0 0 200.58 295.45
  L 289.36 237.12
  A 0.33 0.33 0.0 0 0 289.46 236.66
  L 200.68 101.54"
/>
<path stroke="#80d9d9" vector-effect="non-scaling-stroke" d="
  M 195.28 294.61
  A 0.31 0.31 0.0 0 0 195.85 294.44
  L 195.85 200.40
  A 0.31 0.31 0.0 0 0 195.54 200.09
  L 133.74 200.09
  A 0.31 0.31 0.0 0 0 133.49 200.57
  L 195.28 294.61"
/>
<path stroke="#80d9d9" vector-effect="non-scaling-stroke" d="
  M 344.85 200.67
  A 0.33 0.33 0.0 0 0 344.67 200.06
  L 270.73 200.06
  A 0.33 0.33 0.0 0 0 270.46 200.57
  L 292.75 234.50
  A 0.33 0.33 0.0 0 0 293.21 234.60
  L 344.85 200.67"
/>
</g>
<path fill="#00b2b2" d="
  M 400.00 0.00
  L 400.00 400.00
  L 0.00 400.00
  L 0.00 0.00
  L 400.00 0.00
  Z
  M 50.98 195.19
  A 0.34 0.34 0.0 0 0 51.17 195.81
  L 195.51 195.81
  A 0.34 0.34 0.0 0 0 195.85 195.47
  L 195.85 100.64
  A 0.34 0.34 0.0 0 0 195.32 100.36
  L 50.98 195.19
  Z
  M 200.68 101.54
  A 0.33 0.33 0.0 0 0 200.07 101.72
  L 200.07 295.18
  A 0.33 0.33 0.0 0 0 200.58 295.45
  L 289.36 237.12
  A 0.33 0.33 0.0 0 0 289.46 236.66
  L 200.68 101.54
  Z
  M 195.28 294.61
  A 0.31 0.31 0.0 0 0 195.85 294.44
  L 195.85 200.40
  A 0.31 0.31 0.0 0 0 195.54 200.09
  L 133.74 200.09
  A 0.31 0.31 0.0 0 0 133.49 200.57
  L 195.28 294.61
  Z
  M 344.85 200.67
  A 0.33 0.33 0.0 0 0 344.67 200.06
  L 270.73 200.06
  A 0.33 0.33 0.0 0 0 270.46 200.57
  L 292.75 234.50
  A 0.33 0.33 0.0 0 0 293.21 234.60
  L 344.85 200.67
  Z"
/>
<path fill="#ffffff" d="
  M 50.98 195.19
  L 195.32 100.36
  A 0.34 0.34 0.0 0 1 195.85 100.64
  L 195.85 195.47
  A 0.34 0.34 0.0 0 1 195.51 195.81
  L 51.17 195.81
  A 0.34 0.34 0.0 0 1 50.98 195.19
  Z"
/>
<path fill="#ffffff" d="
  M 200.68 101.54
  L 289.46 236.66
  A 0.33 0.33 0.0 0 1 289.36 237.12
  L 200.58 295.45
  A 0.33 0.33 0.0 0 1 200.07 295.18
  L 200.07 101.72
  A 0.33 0.33 0.0 0 1 200.68 101.54
  Z"
/>
<path fill="#ffffff" d="
  M 195.28 294.61
  L 133.49 200.57
  A 0.31 0.31 0.0 0 1 133.74 200.09
  L 195.54 200.09
  A 0.31 0.31 0.0 0 1 195.85 200.40
  L 195.85 294.44
  A 0.31 0.31 0.0 0 1 195.28 294.61
  Z"
/>
<path fill="#ffffff" d="
  M 344.85 200.67
  L 293.21 234.60
  A 0.33 0.33 0.0 0 1 292.75 234.50
  L 270.46 200.57
  A 0.33 0.33 0.0 0 1 270.73 200.06
  L 344.67 200.06
  A 0.33 0.33 0.0 0 1 344.85 200.67
  Z"
/>
</svg>
