<svg width="175" height="51" viewBox="0 0 175 51" fill="none" xmlns="http://www.w3.org/2000/svg">
<path d="M36.0643 51C34.0467 51 32.0291 50.1673 30.6 48.7517L20.7643 38.9256C19.6714 37.8431 19.7555 36.1777 20.7643 35.0952C21.8572 34.0126 23.5385 34.0959 24.6313 35.0952L34.467 44.9212C35.0555 45.5874 36.0643 45.7539 36.989 45.4208C37.7456 45.171 38.3341 44.5048 38.3341 43.7554V17.6082C38.3341 16.8587 37.8297 16.1926 36.989 15.9427C36.1484 15.6097 35.1396 15.8595 34.5511 16.4424L21.605 29.6825C21.5209 29.7658 21.4368 29.9323 21.3528 30.0156L13.0302 38.3428C11.6011 39.7584 9.58352 40.5911 7.56593 40.5911C6.64121 40.5911 5.7165 40.4245 4.87584 40.0914C1.93353 39.0089 0 36.3442 0 33.3465V7.19924C0 4.20147 1.93353 1.5368 4.87584 0.454267C7.73408 -0.54499 10.9286 0.121179 13.0302 2.28624L22.4456 12.029C23.4544 13.1115 23.4544 14.7769 22.3615 15.7762C21.2687 16.7755 19.5874 16.7755 18.5786 15.6929L9.16321 5.95017C8.57475 5.36727 7.56593 5.11747 6.72528 5.45055C5.96868 5.70037 5.38024 6.36654 5.38024 7.11598V33.2632C5.38024 34.0126 5.88462 34.6788 6.72528 34.9286C7.56593 35.2617 8.57475 35.0119 9.16321 34.429L17.1495 26.4349C17.2335 26.3517 17.3176 26.2684 17.4017 26.1851L30.6 12.6119C32.0291 11.113 34.0467 10.2803 36.1484 10.2803C37.0731 10.2803 37.9978 10.4468 38.8385 10.7799C41.7808 11.8624 43.7143 14.5271 43.7143 17.5249V43.6721C43.7143 46.6699 41.7808 49.3346 38.8385 50.4171C37.8297 50.8335 36.905 51 36.0643 51Z" fill="url(#paint0_linear)"/>
<path d="M36.0643 51C34.0467 51 32.0291 50.1673 30.6 48.7517L20.7643 38.9256C19.6714 37.8431 19.7555 36.1777 20.7643 35.0952C21.8572 34.0126 23.5385 34.0959 24.6313 35.0952L34.467 44.9212C35.0555 45.5874 36.0643 45.7539 36.989 45.4208C37.7456 45.171 38.3341 44.5048 38.3341 43.7554V17.6082C38.3341 16.8587 37.8297 16.1926 36.989 15.9427C36.1484 15.6097 35.1396 15.8595 34.5511 16.4424L21.605 29.6825C21.5209 29.7658 21.4368 29.9323 21.3528 30.0156L13.0302 38.3428C11.6011 39.7584 9.58352 40.5911 7.56593 40.5911C6.64121 40.5911 5.7165 40.4245 4.87584 40.0914C1.93353 39.0089 0 36.3442 0 33.3465V7.19924C0 4.20147 1.93353 1.5368 4.87584 0.454267C7.73408 -0.54499 10.9286 0.121179 13.0302 2.28624L22.4456 12.029C23.4544 13.1115 23.4544 14.7769 22.3615 15.7762C21.2687 16.7755 19.5874 16.7755 18.5786 15.6929L9.16321 5.95017C8.57475 5.36727 7.56593 5.11747 6.72528 5.45055C5.96868 5.70037 5.38024 6.36654 5.38024 7.11598V33.2632C5.38024 34.0126 5.88462 34.6788 6.72528 34.9286C7.56593 35.2617 8.57475 35.0119 9.16321 34.429L17.1495 26.4349C17.2335 26.3517 17.3176 26.2684 17.4017 26.1851L30.6 12.6119C32.0291 11.113 34.0467 10.2803 36.1484 10.2803C37.0731 10.2803 37.9978 10.4468 38.8385 10.7799C41.7808 11.8624 43.7143 14.5271 43.7143 17.5249V43.6721C43.7143 46.6699 41.7808 49.3346 38.8385 50.4171C37.8297 50.8335 36.905 51 36.0643 51Z" fill="#DF5239"/>
<path d="M116.169 37.0439C113.748 36.6265 112.496 34.7899 112.496 31.5341V9.91221C112.496 9.4948 112.162 9.07739 111.661 9.07739H108.405C107.988 9.07739 107.571 9.41132 107.571 9.91221V31.868C107.571 39.8823 112.83 41.385 116.002 41.6354C116.002 41.6354 116.002 41.6354 116.086 41.6354C116.253 41.6354 116.503 41.5519 116.67 41.385C116.837 41.218 116.921 41.051 116.921 40.8006V37.7952C116.837 37.4613 116.503 37.1274 116.169 37.0439Z" fill="black"/>
<path d="M174.106 37.0439C171.685 36.6265 170.433 34.7899 170.433 31.5341V9.91221C170.433 9.4948 170.099 9.07739 169.598 9.07739H166.342C165.925 9.07739 165.507 9.41132 165.507 9.91221V31.868C165.507 39.8823 170.767 41.385 173.939 41.6354C173.939 41.6354 173.939 41.6354 174.022 41.6354C174.189 41.6354 174.44 41.5519 174.607 41.385C174.774 41.218 174.857 41.051 174.857 40.8006V37.7952C174.774 37.4613 174.523 37.1274 174.106 37.0439Z" fill="black"/>
<path d="M90.8741 15.1716C83.5277 15.1716 78.1848 20.8484 78.1848 28.6122C78.1848 36.3761 83.8616 42.0528 91.6255 42.0528C97.3857 42.0528 100.975 38.5466 101.142 38.3796C101.393 38.1292 101.476 37.7118 101.226 37.3778L99.6397 34.9569C99.4728 34.7899 99.3058 34.6229 99.0554 34.6229C98.8049 34.6229 98.5545 34.7064 98.3875 34.8734C98.3875 34.8734 95.7161 37.6283 91.7089 37.6283C87.0339 37.6283 83.6946 34.456 83.1938 29.781C83.1103 29.1966 83.0268 28.5287 83.1103 28.0278C83.1103 27.1095 83.2773 26.2747 83.5277 25.5234C83.5277 25.5234 83.9451 24.2711 84.1956 23.7703C85.4478 21.2658 87.8688 19.7631 90.7906 19.7631C93.3786 19.7631 96.217 21.3493 96.7179 25.6069H95.4656H86.6165H86.533C86.1991 25.6903 85.9487 25.9408 85.9487 26.2747V29.1131C85.9487 29.5305 86.2826 29.781 86.6165 29.781H87.0339H100.892C101.309 29.781 101.643 29.447 101.727 29.0296C101.727 28.9461 101.81 27.9444 101.81 27.36C101.727 21.1823 98.3875 15.1716 90.8741 15.1716Z" fill="black"/>
<path d="M149.228 15.1716C141.882 15.1716 136.539 20.8484 136.539 28.6122C136.539 36.3761 142.216 42.0528 149.979 42.0528C155.74 42.0528 159.329 38.5466 159.496 38.3796C159.747 38.1292 159.83 37.7118 159.58 37.3778L157.994 34.9569C157.827 34.7899 157.66 34.6229 157.409 34.6229C157.159 34.6229 156.908 34.7064 156.742 34.8734C156.742 34.8734 154.07 37.6283 150.063 37.6283C145.388 37.6283 142.049 34.456 141.548 29.781C141.464 29.1966 141.381 28.5287 141.464 28.0278C141.464 27.1095 141.631 26.2747 141.882 25.5234C141.882 25.5234 142.299 24.2711 142.55 23.7703C143.802 21.2658 146.223 19.7631 149.145 19.7631C151.733 19.7631 154.571 21.3493 155.072 25.6069H153.736H144.887H144.804C144.47 25.6903 144.219 25.9408 144.219 26.2747V29.1131C144.219 29.5305 144.553 29.781 144.887 29.781H145.305H159.163C159.58 29.781 159.914 29.447 159.997 29.0296C159.997 28.9461 160.081 27.9444 160.081 27.36C160.081 21.1823 156.742 15.1716 149.228 15.1716Z" fill="black"/>
<path d="M74.4282 19.3457V16.5908C74.4282 16.1734 74.0942 15.756 73.5933 15.756H68.334V9.91221C68.334 9.4948 68.0001 9.07739 67.4992 9.07739H64.3268C63.9094 9.07739 63.492 9.41132 63.492 9.91221V15.756H61.071C60.6536 15.756 60.2362 16.0899 60.2362 16.5908V19.3457C60.2362 19.7631 60.5701 20.1805 61.071 20.1805H73.5099C74.0943 20.097 74.4282 19.7631 74.4282 19.3457Z" fill="black"/>
<path d="M73.9273 37.0439C73.9273 37.0439 73.5933 37.1274 73.009 37.1274C70.9219 37.1274 68.4174 36.1256 68.4174 31.5341V28.3618V23.0189C68.4174 22.6015 68.0835 22.1841 67.5826 22.1841H64.3268C63.9094 22.1841 63.492 22.518 63.492 23.0189V24.6886V28.4453V31.9515C63.492 40.8006 69.9201 41.7189 72.675 41.7189C73.5099 41.7189 74.1777 41.6354 74.1777 41.6354C74.5951 41.5519 74.8455 41.218 74.8455 40.8006V37.8787C74.8455 37.6283 74.7621 37.3778 74.5116 37.2944C74.4281 37.0439 74.1777 37.0439 73.9273 37.0439Z" fill="black"/>
<path d="M132.866 19.3457V16.5908C132.866 16.1734 132.532 15.756 132.031 15.756H126.771V9.91221C126.771 9.4948 126.438 9.07739 125.937 9.07739H122.764C122.347 9.07739 121.929 9.41132 121.929 9.91221V15.756H119.508C119.091 15.756 118.674 16.0899 118.674 16.5908V19.3457C118.674 19.7631 119.008 20.1805 119.508 20.1805H131.947C132.532 20.097 132.866 19.7631 132.866 19.3457Z" fill="black"/>
<path d="M132.365 37.0439C132.365 37.0439 132.031 37.1274 131.446 37.1274C129.359 37.1274 126.855 36.1256 126.855 31.5341V28.3618V23.0189C126.855 22.6015 126.521 22.1841 126.02 22.1841H122.764C122.347 22.1841 121.93 22.518 121.93 23.0189V24.6886V28.4453V31.9515C121.93 40.8006 128.358 41.7189 131.113 41.7189C131.947 41.7189 132.615 41.6354 132.615 41.6354C133.033 41.5519 133.283 41.218 133.283 40.8006V37.8787C133.283 37.6283 133.2 37.3778 132.949 37.2944C132.866 37.0439 132.615 37.0439 132.365 37.0439Z" fill="black"/>
<defs>
<linearGradient id="paint0_linear" x1="-1.36077" y1="6.32257" x2="44.5279" y2="45.1952" gradientUnits="userSpaceOnUse">
<stop offset="0.4031" stop-color="#4AC4D6"/>
<stop offset="0.6276" stop-color="#009CBC"/>
<stop offset="0.6675" stop-color="#009FBE"/>
<stop offset="0.7237" stop-color="#00AAC5"/>
<stop offset="0.7894" stop-color="#3FBDD1"/>
<stop offset="0.8061" stop-color="#4AC4D6"/>
</linearGradient>
</defs>
</svg>
