<svg class="w-44" viewBox="0 0 242 56" height="56" width="242" xmlns="http://www.w3.org/2000/svg" fill="none" style="fill: none !important;"><title id="catTitle" style="fill: none !important;">Templated.io</title><g clippath="url(#clip0_5_25)" style="fill: none !important;"><mask fill="black" height="51" id="path-1-outside-1_5_25" maskUnits="userSpaceOnUse" width="241" x="0" y="6" style="fill: rgb(0, 0, 0) !important;"><rect height="51" width="241" y="6" fill="#000000" style="fill: #000000 !important;"/><path d="M4.58144 44C4.42144 44 4.27744 43.952 4.14944 43.856C4.05344 43.728 4.00544 43.584 4.00544 43.424V39.44C4.00544 39.28 4.05344 39.152 4.14944 39.056C4.27744 38.928 4.42144 38.864 4.58144 38.864H26.7094C26.8694 38.864 26.9974 38.928 27.0934 39.056C27.2214 39.152 27.2854 39.28 27.2854 39.44V43.424C27.2854 43.584 27.2214 43.728 27.0934 43.856C26.9974 43.952 26.8694 44 26.7094 44H4.58144Z"/><path d="M43.9144 24.176C43.9144 24.336 43.8504 24.48 43.7224 24.608C43.6264 24.704 43.4984 24.752 43.3384 24.752H38.7304C38.5704 24.752 38.4904 24.832 38.4904 24.992V35.168C38.4904 36.224 38.6984 37.008 39.1144 37.52C39.5624 38.032 40.2664 38.288 41.2264 38.288H42.8104C42.9704 38.288 43.0984 38.352 43.1944 38.48C43.3224 38.576 43.3864 38.704 43.3864 38.864V43.424C43.3864 43.776 43.1944 43.984 42.8104 44.048C41.4664 44.112 40.5064 44.144 39.9304 44.144C37.2744 44.144 35.2904 43.712 33.9784 42.848C32.6664 41.952 31.9944 40.288 31.9624 37.856V24.992C31.9624 24.832 31.8824 24.752 31.7224 24.752H28.9864C28.8264 24.752 28.6824 24.704 28.5544 24.608C28.4584 24.48 28.4104 24.336 28.4104 24.176V19.904C28.4104 19.744 28.4584 19.616 28.5544 19.52C28.6824 19.392 28.8264 19.328 28.9864 19.328H31.7224C31.8824 19.328 31.9624 19.248 31.9624 19.088V13.376C31.9624 13.216 32.0104 13.088 32.1064 12.992C32.2344 12.864 32.3784 12.8 32.5384 12.8H37.9144C38.0744 12.8 38.2024 12.864 38.2984 12.992C38.4264 13.088 38.4904 13.216 38.4904 13.376V19.088C38.4904 19.248 38.5704 19.328 38.7304 19.328H43.3384C43.4984 19.328 43.6264 19.392 43.7224 19.52C43.8504 19.616 43.9144 19.744 43.9144 19.904V24.176ZM68.5407 29.12C68.7327 30.336 68.7967 31.696 68.7327 33.2C68.7007 33.584 68.4927 33.776 68.1087 33.776H53.2767C53.0847 33.776 53.0207 33.856 53.0847 34.016C53.1807 34.656 53.3567 35.296 53.6127 35.936C54.4447 37.728 56.1407 38.624 58.7007 38.624C60.7487 38.592 62.3647 37.76 63.5487 36.128C63.6767 35.936 63.8207 35.84 63.9807 35.84C64.0767 35.84 64.1887 35.904 64.3167 36.032L67.7727 39.44C67.9327 39.6 68.0127 39.744 68.0127 39.872C68.0127 39.936 67.9487 40.064 67.8207 40.256C66.7647 41.568 65.4047 42.592 63.7407 43.328C62.0767 44.032 60.2527 44.384 58.2687 44.384C55.5167 44.384 53.1807 43.76 51.2607 42.512C49.3727 41.264 48.0127 39.52 47.1807 37.28C46.5087 35.68 46.1727 33.584 46.1727 30.992C46.1727 29.232 46.4127 27.68 46.8927 26.336C47.6287 24.064 48.9087 22.256 50.7327 20.912C52.5887 19.568 54.7807 18.896 57.3087 18.896C60.5087 18.896 63.0687 19.824 64.9887 21.68C66.9407 23.536 68.1247 26.016 68.5407 29.12ZM57.3567 24.752C55.3407 24.752 54.0127 25.696 53.3727 27.584C53.2447 28 53.1327 28.512 53.0367 29.12C53.0367 29.28 53.1167 29.36 53.2767 29.36H61.5807C61.7727 29.36 61.8367 29.28 61.7727 29.12C61.6127 28.192 61.5327 27.744 61.5327 27.776C61.2447 26.816 60.7327 26.08 59.9967 25.568C59.2927 25.024 58.4127 24.752 57.3567 24.752ZM99.3038 18.944C101.8 18.944 103.752 19.696 105.16 21.2C106.568 22.704 107.272 24.816 107.272 27.536V43.424C107.272 43.584 107.208 43.728 107.08 43.856C106.984 43.952 106.856 44 106.696 44H101.08C100.92 44 100.776 43.952 100.648 43.856C100.552 43.728 100.504 43.584 100.504 43.424V29.024C100.504 27.712 100.168 26.672 99.4958 25.904C98.8238 25.136 97.9278 24.752 96.8078 24.752C95.6878 24.752 94.7758 25.136 94.0718 25.904C93.3678 26.672 93.0158 27.696 93.0158 28.976V43.424C93.0158 43.584 92.9518 43.728 92.8238 43.856C92.7278 43.952 92.5998 44 92.4398 44H86.8718C86.7118 44 86.5678 43.952 86.4398 43.856C86.3438 43.728 86.2958 43.584 86.2958 43.424V29.024C86.2958 27.744 85.9438 26.72 85.2398 25.952C84.5358 25.152 83.6238 24.752 82.5038 24.752C81.4798 24.752 80.6158 25.056 79.9118 25.664C79.2398 26.272 78.8398 27.12 78.7118 28.208V43.424C78.7118 43.584 78.6478 43.728 78.5198 43.856C78.4238 43.952 78.2958 44 78.1358 44H72.5198C72.3598 44 72.2158 43.952 72.0878 43.856C71.9918 43.728 71.9438 43.584 71.9438 43.424V19.904C71.9438 19.744 71.9918 19.616 72.0878 19.52C72.2158 19.392 72.3598 19.328 72.5198 19.328H78.1358C78.2958 19.328 78.4238 19.392 78.5198 19.52C78.6478 19.616 78.7118 19.744 78.7118 19.904V21.776C78.7118 21.872 78.7438 21.936 78.8078 21.968C78.8718 22 78.9358 21.968 78.9998 21.872C80.3118 19.92 82.3438 18.944 85.0958 18.944C86.6958 18.944 88.0878 19.28 89.2718 19.952C90.4878 20.624 91.4158 21.584 92.0558 22.832C92.1518 23.024 92.2638 23.024 92.3918 22.832C93.0958 21.52 94.0398 20.544 95.2238 19.904C96.4398 19.264 97.7998 18.944 99.3038 18.944ZM133.094 25.952C133.67 27.584 133.958 29.504 133.958 31.712C133.958 33.92 133.654 35.92 133.046 37.712C132.31 39.76 131.142 41.392 129.542 42.608C127.974 43.792 126.022 44.384 123.686 44.384C121.382 44.384 119.59 43.584 118.31 41.984C118.246 41.888 118.182 41.856 118.118 41.888C118.054 41.92 118.022 41.984 118.022 42.08V52.352C118.022 52.512 117.958 52.64 117.83 52.736C117.734 52.864 117.606 52.928 117.446 52.928H111.83C111.67 52.928 111.526 52.864 111.398 52.736C111.302 52.64 111.254 52.512 111.254 52.352V19.904C111.254 19.744 111.302 19.616 111.398 19.52C111.526 19.392 111.67 19.328 111.83 19.328H117.446C117.606 19.328 117.734 19.392 117.83 19.52C117.958 19.616 118.022 19.744 118.022 19.904V21.488C118.022 21.584 118.054 21.648 118.118 21.68C118.182 21.68 118.246 21.648 118.31 21.584C119.654 19.824 121.51 18.944 123.878 18.944C126.086 18.944 127.99 19.568 129.59 20.816C131.222 22.032 132.39 23.744 133.094 25.952ZM125.75 36.704C126.55 35.456 126.95 33.76 126.95 31.616C126.95 29.6 126.614 28 125.942 26.816C125.206 25.44 124.022 24.752 122.39 24.752C120.918 24.752 119.814 25.44 119.078 26.816C118.406 27.968 118.07 29.584 118.07 31.664C118.07 33.808 118.422 35.472 119.126 36.656C119.862 37.936 120.95 38.576 122.39 38.576C123.83 38.576 124.95 37.952 125.75 36.704ZM137.959 44C137.799 44 137.655 43.952 137.527 43.856C137.431 43.728 137.383 43.584 137.383 43.424V10.976C137.383 10.816 137.431 10.688 137.527 10.592C137.655 10.464 137.799 10.4 137.959 10.4H143.575C143.735 10.4 143.863 10.464 143.959 10.592C144.087 10.688 144.151 10.816 144.151 10.976V43.424C144.151 43.584 144.087 43.728 143.959 43.856C143.863 43.952 143.735 44 143.575 44H137.959ZM157.982 18.944C160.062 18.944 161.918 19.312 163.55 20.048C165.182 20.752 166.446 21.728 167.342 22.976C168.27 24.224 168.734 25.616 168.734 27.152V43.424C168.734 43.584 168.67 43.728 168.542 43.856C168.446 43.952 168.318 44 168.158 44H162.542C162.382 44 162.238 43.952 162.11 43.856C162.014 43.728 161.966 43.584 161.966 43.424V41.84C161.966 41.744 161.934 41.68 161.87 41.648C161.806 41.616 161.742 41.648 161.678 41.744C160.334 43.504 158.174 44.384 155.198 44.384C152.702 44.384 150.686 43.776 149.15 42.56C147.614 41.344 146.846 39.552 146.846 37.184C146.846 34.72 147.71 32.816 149.438 31.472C151.166 30.096 153.63 29.408 156.83 29.408H161.726C161.886 29.408 161.966 29.328 161.966 29.168V28.112C161.966 27.056 161.646 26.24 161.006 25.664C160.366 25.056 159.406 24.752 158.126 24.752C157.134 24.752 156.302 24.928 155.63 25.28C154.99 25.632 154.574 26.128 154.382 26.768C154.286 27.12 154.078 27.28 153.758 27.248L147.95 26.48C147.566 26.416 147.39 26.272 147.422 26.048C147.55 24.704 148.078 23.488 149.006 22.4C149.966 21.312 151.214 20.464 152.75 19.856C154.318 19.248 156.062 18.944 157.982 18.944ZM157.022 39.344C158.398 39.344 159.566 38.976 160.526 38.24C161.486 37.504 161.966 36.56 161.966 35.408V33.68C161.966 33.52 161.886 33.44 161.726 33.44H158.27C156.83 33.44 155.694 33.712 154.862 34.256C154.062 34.8 153.662 35.568 153.662 36.56C153.662 37.424 153.966 38.112 154.574 38.624C155.182 39.104 155.998 39.344 157.022 39.344ZM186.186 24.176C186.186 24.336 186.122 24.48 185.994 24.608C185.898 24.704 185.77 24.752 185.61 24.752H181.002C180.842 24.752 180.762 24.832 180.762 24.992V35.168C180.762 36.224 180.97 37.008 181.386 37.52C181.834 38.032 182.538 38.288 183.498 38.288H185.082C185.242 38.288 185.37 38.352 185.466 38.48C185.594 38.576 185.658 38.704 185.658 38.864V43.424C185.658 43.776 185.466 43.984 185.082 44.048C183.738 44.112 182.778 44.144 182.202 44.144C179.546 44.144 177.562 43.712 176.25 42.848C174.938 41.952 174.266 40.288 174.234 37.856V24.992C174.234 24.832 174.154 24.752 173.994 24.752H171.258C171.098 24.752 170.954 24.704 170.826 24.608C170.73 24.48 170.682 24.336 170.682 24.176V19.904C170.682 19.744 170.73 19.616 170.826 19.52C170.954 19.392 171.098 19.328 171.258 19.328H173.994C174.154 19.328 174.234 19.248 174.234 19.088V13.376C174.234 13.216 174.282 13.088 174.378 12.992C174.506 12.864 174.65 12.8 174.81 12.8H180.186C180.346 12.8 180.474 12.864 180.57 12.992C180.698 13.088 180.762 13.216 180.762 13.376V19.088C180.762 19.248 180.842 19.328 181.002 19.328H185.61C185.77 19.328 185.898 19.392 185.994 19.52C186.122 19.616 186.186 19.744 186.186 19.904V24.176ZM210.812 29.12C211.004 30.336 211.068 31.696 211.004 33.2C210.972 33.584 210.764 33.776 210.38 33.776H195.548C195.356 33.776 195.292 33.856 195.356 34.016C195.452 34.656 195.628 35.296 195.884 35.936C196.716 37.728 198.412 38.624 200.972 38.624C203.02 38.592 204.636 37.76 205.82 36.128C205.948 35.936 206.092 35.84 206.252 35.84C206.348 35.84 206.46 35.904 206.588 36.032L210.044 39.44C210.204 39.6 210.284 39.744 210.284 39.872C210.284 39.936 210.22 40.064 210.092 40.256C209.036 41.568 207.676 42.592 206.012 43.328C204.348 44.032 202.524 44.384 200.54 44.384C197.788 44.384 195.452 43.76 193.532 42.512C191.644 41.264 190.284 39.52 189.452 37.28C188.78 35.68 188.444 33.584 188.444 30.992C188.444 29.232 188.684 27.68 189.164 26.336C189.9 24.064 191.18 22.256 193.004 20.912C194.86 19.568 197.052 18.896 199.58 18.896C202.78 18.896 205.34 19.824 207.26 21.68C209.212 23.536 210.396 26.016 210.812 29.12ZM199.628 24.752C197.612 24.752 196.284 25.696 195.644 27.584C195.516 28 195.404 28.512 195.308 29.12C195.308 29.28 195.388 29.36 195.548 29.36H203.852C204.044 29.36 204.108 29.28 204.044 29.12C203.884 28.192 203.804 27.744 203.804 27.776C203.516 26.816 203.004 26.08 202.268 25.568C201.564 25.024 200.684 24.752 199.628 24.752ZM229.527 10.976C229.527 10.816 229.575 10.688 229.671 10.592C229.799 10.464 229.943 10.4 230.103 10.4H235.719C235.879 10.4 236.007 10.464 236.103 10.592C236.231 10.688 236.295 10.816 236.295 10.976V43.424C236.295 43.584 236.231 43.728 236.103 43.856C236.007 43.952 235.879 44 235.719 44H230.103C229.943 44 229.799 43.952 229.671 43.856C229.575 43.728 229.527 43.584 229.527 43.424V41.84C229.527 41.744 229.495 41.696 229.431 41.696C229.367 41.664 229.303 41.68 229.239 41.744C227.895 43.504 226.055 44.384 223.719 44.384C221.479 44.384 219.543 43.76 217.911 42.512C216.311 41.264 215.159 39.552 214.455 37.376C213.911 35.712 213.639 33.776 213.639 31.568C213.639 29.296 213.927 27.312 214.503 25.616C215.239 23.568 216.391 21.952 217.959 20.768C219.559 19.552 221.527 18.944 223.863 18.944C226.167 18.944 227.959 19.744 229.239 21.344C229.303 21.44 229.367 21.472 229.431 21.44C229.495 21.408 229.527 21.344 229.527 21.248V10.976ZM228.519 36.512C229.159 35.328 229.479 33.712 229.479 31.664C229.479 29.52 229.127 27.84 228.423 26.624C227.687 25.376 226.615 24.752 225.207 24.752C223.703 24.752 222.567 25.376 221.799 26.624C220.999 27.872 220.599 29.568 220.599 31.712C220.599 33.632 220.935 35.232 221.607 36.512C222.407 37.888 223.591 38.576 225.159 38.576C226.599 38.576 227.719 37.888 228.519 36.512Z"/></mask><path d="M4.58144 44C4.42144 44 4.27744 43.952 4.14944 43.856C4.05344 43.728 4.00544 43.584 4.00544 43.424V39.44C4.00544 39.28 4.05344 39.152 4.14944 39.056C4.27744 38.928 4.42144 38.864 4.58144 38.864H26.7094C26.8694 38.864 26.9974 38.928 27.0934 39.056C27.2214 39.152 27.2854 39.28 27.2854 39.44V43.424C27.2854 43.584 27.2214 43.728 27.0934 43.856C26.9974 43.952 26.8694 44 26.7094 44H4.58144Z" fill="#1477FF" style="fill: rgb(20, 119, 255) !important;"/><path d="M43.9144 24.176C43.9144 24.336 43.8504 24.48 43.7224 24.608C43.6264 24.704 43.4984 24.752 43.3384 24.752H38.7304C38.5704 24.752 38.4904 24.832 38.4904 24.992V35.168C38.4904 36.224 38.6984 37.008 39.1144 37.52C39.5624 38.032 40.2664 38.288 41.2264 38.288H42.8104C42.9704 38.288 43.0984 38.352 43.1944 38.48C43.3224 38.576 43.3864 38.704 43.3864 38.864V43.424C43.3864 43.776 43.1944 43.984 42.8104 44.048C41.4664 44.112 40.5064 44.144 39.9304 44.144C37.2744 44.144 35.2904 43.712 33.9784 42.848C32.6664 41.952 31.9944 40.288 31.9624 37.856V24.992C31.9624 24.832 31.8824 24.752 31.7224 24.752H28.9864C28.8264 24.752 28.6824 24.704 28.5544 24.608C28.4584 24.48 28.4104 24.336 28.4104 24.176V19.904C28.4104 19.744 28.4584 19.616 28.5544 19.52C28.6824 19.392 28.8264 19.328 28.9864 19.328H31.7224C31.8824 19.328 31.9624 19.248 31.9624 19.088V13.376C31.9624 13.216 32.0104 13.088 32.1064 12.992C32.2344 12.864 32.3784 12.8 32.5384 12.8H37.9144C38.0744 12.8 38.2024 12.864 38.2984 12.992C38.4264 13.088 38.4904 13.216 38.4904 13.376V19.088C38.4904 19.248 38.5704 19.328 38.7304 19.328H43.3384C43.4984 19.328 43.6264 19.392 43.7224 19.52C43.8504 19.616 43.9144 19.744 43.9144 19.904V24.176ZM68.5407 29.12C68.7327 30.336 68.7967 31.696 68.7327 33.2C68.7007 33.584 68.4927 33.776 68.1087 33.776H53.2767C53.0847 33.776 53.0207 33.856 53.0847 34.016C53.1807 34.656 53.3567 35.296 53.6127 35.936C54.4447 37.728 56.1407 38.624 58.7007 38.624C60.7487 38.592 62.3647 37.76 63.5487 36.128C63.6767 35.936 63.8207 35.84 63.9807 35.84C64.0767 35.84 64.1887 35.904 64.3167 36.032L67.7727 39.44C67.9327 39.6 68.0127 39.744 68.0127 39.872C68.0127 39.936 67.9487 40.064 67.8207 40.256C66.7647 41.568 65.4047 42.592 63.7407 43.328C62.0767 44.032 60.2527 44.384 58.2687 44.384C55.5167 44.384 53.1807 43.76 51.2607 42.512C49.3727 41.264 48.0127 39.52 47.1807 37.28C46.5087 35.68 46.1727 33.584 46.1727 30.992C46.1727 29.232 46.4127 27.68 46.8927 26.336C47.6287 24.064 48.9087 22.256 50.7327 20.912C52.5887 19.568 54.7807 18.896 57.3087 18.896C60.5087 18.896 63.0687 19.824 64.9887 21.68C66.9407 23.536 68.1247 26.016 68.5407 29.12ZM57.3567 24.752C55.3407 24.752 54.0127 25.696 53.3727 27.584C53.2447 28 53.1327 28.512 53.0367 29.12C53.0367 29.28 53.1167 29.36 53.2767 29.36H61.5807C61.7727 29.36 61.8367 29.28 61.7727 29.12C61.6127 28.192 61.5327 27.744 61.5327 27.776C61.2447 26.816 60.7327 26.08 59.9967 25.568C59.2927 25.024 58.4127 24.752 57.3567 24.752ZM99.3038 18.944C101.8 18.944 103.752 19.696 105.16 21.2C106.568 22.704 107.272 24.816 107.272 27.536V43.424C107.272 43.584 107.208 43.728 107.08 43.856C106.984 43.952 106.856 44 106.696 44H101.08C100.92 44 100.776 43.952 100.648 43.856C100.552 43.728 100.504 43.584 100.504 43.424V29.024C100.504 27.712 100.168 26.672 99.4958 25.904C98.8238 25.136 97.9278 24.752 96.8078 24.752C95.6878 24.752 94.7758 25.136 94.0718 25.904C93.3678 26.672 93.0158 27.696 93.0158 28.976V43.424C93.0158 43.584 92.9518 43.728 92.8238 43.856C92.7278 43.952 92.5998 44 92.4398 44H86.8718C86.7118 44 86.5678 43.952 86.4398 43.856C86.3438 43.728 86.2958 43.584 86.2958 43.424V29.024C86.2958 27.744 85.9438 26.72 85.2398 25.952C84.5358 25.152 83.6238 24.752 82.5038 24.752C81.4798 24.752 80.6158 25.056 79.9118 25.664C79.2398 26.272 78.8398 27.12 78.7118 28.208V43.424C78.7118 43.584 78.6478 43.728 78.5198 43.856C78.4238 43.952 78.2958 44 78.1358 44H72.5198C72.3598 44 72.2158 43.952 72.0878 43.856C71.9918 43.728 71.9438 43.584 71.9438 43.424V19.904C71.9438 19.744 71.9918 19.616 72.0878 19.52C72.2158 19.392 72.3598 19.328 72.5198 19.328H78.1358C78.2958 19.328 78.4238 19.392 78.5198 19.52C78.6478 19.616 78.7118 19.744 78.7118 19.904V21.776C78.7118 21.872 78.7438 21.936 78.8078 21.968C78.8718 22 78.9358 21.968 78.9998 21.872C80.3118 19.92 82.3438 18.944 85.0958 18.944C86.6958 18.944 88.0878 19.28 89.2718 19.952C90.4878 20.624 91.4158 21.584 92.0558 22.832C92.1518 23.024 92.2638 23.024 92.3918 22.832C93.0958 21.52 94.0398 20.544 95.2238 19.904C96.4398 19.264 97.7998 18.944 99.3038 18.944ZM133.094 25.952C133.67 27.584 133.958 29.504 133.958 31.712C133.958 33.92 133.654 35.92 133.046 37.712C132.31 39.76 131.142 41.392 129.542 42.608C127.974 43.792 126.022 44.384 123.686 44.384C121.382 44.384 119.59 43.584 118.31 41.984C118.246 41.888 118.182 41.856 118.118 41.888C118.054 41.92 118.022 41.984 118.022 42.08V52.352C118.022 52.512 117.958 52.64 117.83 52.736C117.734 52.864 117.606 52.928 117.446 52.928H111.83C111.67 52.928 111.526 52.864 111.398 52.736C111.302 52.64 111.254 52.512 111.254 52.352V19.904C111.254 19.744 111.302 19.616 111.398 19.52C111.526 19.392 111.67 19.328 111.83 19.328H117.446C117.606 19.328 117.734 19.392 117.83 19.52C117.958 19.616 118.022 19.744 118.022 19.904V21.488C118.022 21.584 118.054 21.648 118.118 21.68C118.182 21.68 118.246 21.648 118.31 21.584C119.654 19.824 121.51 18.944 123.878 18.944C126.086 18.944 127.99 19.568 129.59 20.816C131.222 22.032 132.39 23.744 133.094 25.952ZM125.75 36.704C126.55 35.456 126.95 33.76 126.95 31.616C126.95 29.6 126.614 28 125.942 26.816C125.206 25.44 124.022 24.752 122.39 24.752C120.918 24.752 119.814 25.44 119.078 26.816C118.406 27.968 118.07 29.584 118.07 31.664C118.07 33.808 118.422 35.472 119.126 36.656C119.862 37.936 120.95 38.576 122.39 38.576C123.83 38.576 124.95 37.952 125.75 36.704ZM137.959 44C137.799 44 137.655 43.952 137.527 43.856C137.431 43.728 137.383 43.584 137.383 43.424V10.976C137.383 10.816 137.431 10.688 137.527 10.592C137.655 10.464 137.799 10.4 137.959 10.4H143.575C143.735 10.4 143.863 10.464 143.959 10.592C144.087 10.688 144.151 10.816 144.151 10.976V43.424C144.151 43.584 144.087 43.728 143.959 43.856C143.863 43.952 143.735 44 143.575 44H137.959ZM157.982 18.944C160.062 18.944 161.918 19.312 163.55 20.048C165.182 20.752 166.446 21.728 167.342 22.976C168.27 24.224 168.734 25.616 168.734 27.152V43.424C168.734 43.584 168.67 43.728 168.542 43.856C168.446 43.952 168.318 44 168.158 44H162.542C162.382 44 162.238 43.952 162.11 43.856C162.014 43.728 161.966 43.584 161.966 43.424V41.84C161.966 41.744 161.934 41.68 161.87 41.648C161.806 41.616 161.742 41.648 161.678 41.744C160.334 43.504 158.174 44.384 155.198 44.384C152.702 44.384 150.686 43.776 149.15 42.56C147.614 41.344 146.846 39.552 146.846 37.184C146.846 34.72 147.71 32.816 149.438 31.472C151.166 30.096 153.63 29.408 156.83 29.408H161.726C161.886 29.408 161.966 29.328 161.966 29.168V28.112C161.966 27.056 161.646 26.24 161.006 25.664C160.366 25.056 159.406 24.752 158.126 24.752C157.134 24.752 156.302 24.928 155.63 25.28C154.99 25.632 154.574 26.128 154.382 26.768C154.286 27.12 154.078 27.28 153.758 27.248L147.95 26.48C147.566 26.416 147.39 26.272 147.422 26.048C147.55 24.704 148.078 23.488 149.006 22.4C149.966 21.312 151.214 20.464 152.75 19.856C154.318 19.248 156.062 18.944 157.982 18.944ZM157.022 39.344C158.398 39.344 159.566 38.976 160.526 38.24C161.486 37.504 161.966 36.56 161.966 35.408V33.68C161.966 33.52 161.886 33.44 161.726 33.44H158.27C156.83 33.44 155.694 33.712 154.862 34.256C154.062 34.8 153.662 35.568 153.662 36.56C153.662 37.424 153.966 38.112 154.574 38.624C155.182 39.104 155.998 39.344 157.022 39.344ZM186.186 24.176C186.186 24.336 186.122 24.48 185.994 24.608C185.898 24.704 185.77 24.752 185.61 24.752H181.002C180.842 24.752 180.762 24.832 180.762 24.992V35.168C180.762 36.224 180.97 37.008 181.386 37.52C181.834 38.032 182.538 38.288 183.498 38.288H185.082C185.242 38.288 185.37 38.352 185.466 38.48C185.594 38.576 185.658 38.704 185.658 38.864V43.424C185.658 43.776 185.466 43.984 185.082 44.048C183.738 44.112 182.778 44.144 182.202 44.144C179.546 44.144 177.562 43.712 176.25 42.848C174.938 41.952 174.266 40.288 174.234 37.856V24.992C174.234 24.832 174.154 24.752 173.994 24.752H171.258C171.098 24.752 170.954 24.704 170.826 24.608C170.73 24.48 170.682 24.336 170.682 24.176V19.904C170.682 19.744 170.73 19.616 170.826 19.52C170.954 19.392 171.098 19.328 171.258 19.328H173.994C174.154 19.328 174.234 19.248 174.234 19.088V13.376C174.234 13.216 174.282 13.088 174.378 12.992C174.506 12.864 174.65 12.8 174.81 12.8H180.186C180.346 12.8 180.474 12.864 180.57 12.992C180.698 13.088 180.762 13.216 180.762 13.376V19.088C180.762 19.248 180.842 19.328 181.002 19.328H185.61C185.77 19.328 185.898 19.392 185.994 19.52C186.122 19.616 186.186 19.744 186.186 19.904V24.176ZM210.812 29.12C211.004 30.336 211.068 31.696 211.004 33.2C210.972 33.584 210.764 33.776 210.38 33.776H195.548C195.356 33.776 195.292 33.856 195.356 34.016C195.452 34.656 195.628 35.296 195.884 35.936C196.716 37.728 198.412 38.624 200.972 38.624C203.02 38.592 204.636 37.76 205.82 36.128C205.948 35.936 206.092 35.84 206.252 35.84C206.348 35.84 206.46 35.904 206.588 36.032L210.044 39.44C210.204 39.6 210.284 39.744 210.284 39.872C210.284 39.936 210.22 40.064 210.092 40.256C209.036 41.568 207.676 42.592 206.012 43.328C204.348 44.032 202.524 44.384 200.54 44.384C197.788 44.384 195.452 43.76 193.532 42.512C191.644 41.264 190.284 39.52 189.452 37.28C188.78 35.68 188.444 33.584 188.444 30.992C188.444 29.232 188.684 27.68 189.164 26.336C189.9 24.064 191.18 22.256 193.004 20.912C194.86 19.568 197.052 18.896 199.58 18.896C202.78 18.896 205.34 19.824 207.26 21.68C209.212 23.536 210.396 26.016 210.812 29.12ZM199.628 24.752C197.612 24.752 196.284 25.696 195.644 27.584C195.516 28 195.404 28.512 195.308 29.12C195.308 29.28 195.388 29.36 195.548 29.36H203.852C204.044 29.36 204.108 29.28 204.044 29.12C203.884 28.192 203.804 27.744 203.804 27.776C203.516 26.816 203.004 26.08 202.268 25.568C201.564 25.024 200.684 24.752 199.628 24.752ZM229.527 10.976C229.527 10.816 229.575 10.688 229.671 10.592C229.799 10.464 229.943 10.4 230.103 10.4H235.719C235.879 10.4 236.007 10.464 236.103 10.592C236.231 10.688 236.295 10.816 236.295 10.976V43.424C236.295 43.584 236.231 43.728 236.103 43.856C236.007 43.952 235.879 44 235.719 44H230.103C229.943 44 229.799 43.952 229.671 43.856C229.575 43.728 229.527 43.584 229.527 43.424V41.84C229.527 41.744 229.495 41.696 229.431 41.696C229.367 41.664 229.303 41.68 229.239 41.744C227.895 43.504 226.055 44.384 223.719 44.384C221.479 44.384 219.543 43.76 217.911 42.512C216.311 41.264 215.159 39.552 214.455 37.376C213.911 35.712 213.639 33.776 213.639 31.568C213.639 29.296 213.927 27.312 214.503 25.616C215.239 23.568 216.391 21.952 217.959 20.768C219.559 19.552 221.527 18.944 223.863 18.944C226.167 18.944 227.959 19.744 229.239 21.344C229.303 21.44 229.367 21.472 229.431 21.44C229.495 21.408 229.527 21.344 229.527 21.248V10.976ZM228.519 36.512C229.159 35.328 229.479 33.712 229.479 31.664C229.479 29.52 229.127 27.84 228.423 26.624C227.687 25.376 226.615 24.752 225.207 24.752C223.703 24.752 222.567 25.376 221.799 26.624C220.999 27.872 220.599 29.568 220.599 31.712C220.599 33.632 220.935 35.232 221.607 36.512C222.407 37.888 223.591 38.576 225.159 38.576C226.599 38.576 227.719 37.888 228.519 36.512Z" fill="#000000" style="fill: #000000 !important;"/><path d="M4.14944 43.856L0.949437 46.256L1.29229 46.7131L1.74944 47.056L4.14944 43.856ZM4.14944 39.056L1.32101 36.2276L1.32101 36.2276L4.14944 39.056ZM27.0934 39.056L23.8934 41.456L24.2363 41.9131L24.6934 42.256L27.0934 39.056ZM27.0934 43.856L24.265 41.0276L24.265 41.0276L27.0934 43.856ZM4.58144 40C5.28692 40 5.98505 40.2327 6.54944 40.656L1.74944 47.056C2.56982 47.6713 3.55596 48 4.58144 48V40ZM7.34944 41.456C7.77273 42.0204 8.00544 42.7185 8.00544 43.424H0.00543725C0.00543725 44.4495 0.334149 45.4356 0.949437 46.256L7.34944 41.456ZM8.00544 43.424V39.44H0.00543725V43.424H8.00544ZM8.00544 39.44C8.00544 40.137 7.76481 41.0975 6.97787 41.8844L1.32101 36.2276C0.342069 37.2065 0.00543725 38.423 0.00543725 39.44H8.00544ZM6.97787 41.8844C6.74571 42.1166 6.41612 42.3725 5.97799 42.5672C5.53053 42.7661 5.05227 42.864 4.58144 42.864V34.864C3.21778 34.864 2.09176 35.4568 1.32101 36.2276L6.97787 41.8844ZM4.58144 42.864H26.7094V34.864H4.58144V42.864ZM26.7094 42.864C26.2426 42.864 25.6907 42.7668 25.1366 42.4897C24.5825 42.2127 24.1736 41.8295 23.8934 41.456L30.2934 36.656C29.442 35.5208 28.1285 34.864 26.7094 34.864V42.864ZM24.6934 42.256C24.3199 41.9759 23.9368 41.567 23.6597 41.0129C23.3827 40.4588 23.2854 39.9069 23.2854 39.44H31.2854C31.2854 38.021 30.6287 36.7074 29.4934 35.856L24.6934 42.256ZM23.2854 39.44V43.424H31.2854V39.44H23.2854ZM23.2854 43.424C23.2854 42.9532 23.3833 42.4749 23.5822 42.0274C23.7769 41.5893 24.0329 41.2597 24.265 41.0276L29.9219 46.6844C30.6926 45.9137 31.2854 44.7877 31.2854 43.424H23.2854ZM24.265 41.0276C25.0519 40.2406 26.0124 40 26.7094 40V48C27.7265 48 28.9429 47.6634 29.9219 46.6844L24.265 41.0276ZM26.7094 40H4.58144V48H26.7094V40ZM43.7224 24.608L46.5509 27.4364L46.5509 27.4364L43.7224 24.608ZM39.1144 37.52L36.01 40.0424L36.056 40.0991L36.1041 40.154L39.1144 37.52ZM43.1944 38.48L39.9944 40.88L40.3373 41.3371L40.7944 41.68L43.1944 38.48ZM42.8104 44.048L43.0007 48.0435L43.2358 48.0323L43.468 47.9936L42.8104 44.048ZM33.9784 42.848L31.7226 46.1512L31.7504 46.1702L31.7785 46.1887L33.9784 42.848ZM31.9624 37.856H27.9624V37.8823L27.9628 37.9086L31.9624 37.856ZM28.5544 24.608L25.3544 27.008L25.6973 27.4651L26.1544 27.808L28.5544 24.608ZM28.5544 19.52L25.726 16.6916L25.726 16.6916L28.5544 19.52ZM32.1064 12.992L29.278 10.1636L29.278 10.1636L32.1064 12.992ZM38.2984 12.992L35.0984 15.392L35.4413 15.8491L35.8984 16.192L38.2984 12.992ZM43.7224 19.52L40.5225 21.92L40.8653 22.3771L41.3224 22.72L43.7224 19.52ZM39.9144 24.176C39.9144 23.7052 40.0123 23.2269 40.2112 22.7795C40.4059 22.3413 40.6619 22.0117 40.894 21.7796L46.5509 27.4364C47.3216 26.6657 47.9144 25.5397 47.9144 24.176H39.9144ZM40.894 21.7796C41.681 20.9926 42.6414 20.752 43.3384 20.752V28.752C44.3555 28.752 45.5719 28.4154 46.5509 27.4364L40.894 21.7796ZM43.3384 20.752H38.7304V28.752H43.3384V20.752ZM38.7304 20.752C38.0339 20.752 36.7767 20.9289 35.722 21.9836C34.6673 23.0383 34.4904 24.2954 34.4904 24.992H42.4904C42.4904 25.5286 42.3536 26.6657 41.3789 27.6404C40.4041 28.6151 39.267 28.752 38.7304 28.752V20.752ZM34.4904 24.992V35.168H42.4904V24.992H34.4904ZM34.4904 35.168C34.4904 36.6268 34.7566 38.4997 36.01 40.0424L42.2189 34.9976C42.44 35.2697 42.504 35.4896 42.5127 35.5223C42.5173 35.5398 42.5111 35.5218 42.5041 35.4597C42.4971 35.3979 42.4904 35.3023 42.4904 35.168H34.4904ZM36.1041 40.154C37.5838 41.8451 39.6032 42.288 41.2264 42.288V34.288C41.0877 34.288 41.1555 34.2678 41.3454 34.3368C41.5618 34.4155 41.8608 34.5844 42.1247 34.886L36.1041 40.154ZM41.2264 42.288H42.8104V34.288H41.2264V42.288ZM42.8104 42.288C42.3436 42.288 41.7917 42.1908 41.2376 41.9137C40.6835 41.6367 40.2746 41.2535 39.9944 40.88L46.3944 36.08C45.543 34.9448 44.2295 34.288 42.8104 34.288V42.288ZM40.7944 41.68C40.4209 41.3999 40.0378 40.991 39.7607 40.4369C39.4837 39.8828 39.3864 39.3309 39.3864 38.864H47.3864C47.3864 37.445 46.7297 36.1314 45.5944 35.28L40.7944 41.68ZM39.3864 38.864V43.424H47.3864V38.864H39.3864ZM39.3864 43.424C39.3864 42.8504 39.5614 41.9345 40.3032 41.1309C41.0002 40.3758 41.7929 40.1624 42.1528 40.1024L43.468 47.9936C44.212 47.8696 45.2927 47.5202 46.1817 46.5571C47.1155 45.5455 47.3864 44.3496 47.3864 43.424H39.3864ZM42.6202 40.0525C41.2786 40.1164 40.4023 40.144 39.9304 40.144V48.144C40.6105 48.144 41.6543 48.1076 43.0007 48.0435L42.6202 40.0525ZM39.9304 40.144C37.5746 40.144 36.5263 39.7364 36.1784 39.5073L31.7785 46.1887C34.0545 47.6876 36.9742 48.144 39.9304 48.144V40.144ZM36.2343 39.5448C36.3123 39.5981 36.2794 39.6282 36.1994 39.4301C36.1021 39.1892 35.9737 38.6887 35.9621 37.8034L27.9628 37.9086C28.0025 40.9242 28.853 44.1915 31.7226 46.1512L36.2343 39.5448ZM35.9624 37.856V24.992H27.9624V37.856H35.9624ZM35.9624 24.992C35.9624 24.2954 35.7856 23.0383 34.7309 21.9836C33.6761 20.9289 32.419 20.752 31.7224 20.752V28.752C31.1859 28.752 30.0487 28.6151 29.074 27.6404C28.0993 26.6657 27.9624 25.5286 27.9624 24.992H35.9624ZM31.7224 20.752H28.9864V28.752H31.7224V20.752ZM28.9864 20.752C29.6919 20.752 30.39 20.9847 30.9544 21.408L26.1544 27.808C26.9748 28.4233 27.961 28.752 28.9864 28.752V20.752ZM31.7544 22.208C32.1777 22.7724 32.4104 23.4705 32.4104 24.176H24.4104C24.4104 25.2015 24.7392 26.1876 25.3544 27.008L31.7544 22.208ZM32.4104 24.176V19.904H24.4104V24.176H32.4104ZM32.4104 19.904C32.4104 20.601 32.1698 21.5615 31.3829 22.3484L25.726 16.6916C24.7471 17.6705 24.4104 18.887 24.4104 19.904H32.4104ZM31.3828 22.3484C31.1507 22.5806 30.8211 22.8365 30.383 23.0313C29.9355 23.2301 29.4573 23.328 28.9864 23.328V15.328C27.6228 15.328 26.4968 15.9208 25.726 16.6916L31.3828 22.3484ZM28.9864 23.328H31.7224V15.328H28.9864V23.328ZM31.7224 23.328C32.419 23.328 33.6762 23.1511 34.7309 22.0964C35.7856 21.0417 35.9624 19.7846 35.9624 19.088H27.9624C27.9624 18.5514 28.0993 17.4143 29.074 16.4396C30.0487 15.4649 31.1858 15.328 31.7224 15.328V23.328ZM35.9624 19.088V13.376H27.9624V19.088H35.9624ZM35.9624 13.376C35.9624 14.073 35.7218 15.0335 34.9349 15.8204L29.278 10.1636C28.2991 11.1425 27.9624 12.359 27.9624 13.376H35.9624ZM34.9349 15.8204C34.7027 16.0526 34.3731 16.3085 33.935 16.5032C33.4875 16.7021 33.0093 16.8 32.5384 16.8V8.8C31.1748 8.8 30.0488 9.39282 29.278 10.1636L34.9349 15.8204ZM32.5384 16.8H37.9144V8.8H32.5384V16.8ZM37.9144 16.8C37.4476 16.8 36.8957 16.7028 36.3416 16.4257C35.7875 16.1487 35.3786 15.7655 35.0984 15.392L41.4984 10.592C40.647 9.45678 39.3335 8.8 37.9144 8.8V16.8ZM35.8984 16.192C35.5249 15.9119 35.1418 15.503 34.8647 14.9489C34.5877 14.3948 34.4904 13.8429 34.4904 13.376H42.4904C42.4904 11.957 41.8337 10.6434 40.6984 9.792L35.8984 16.192ZM34.4904 13.376V19.088H42.4904V13.376H34.4904ZM34.4904 19.088C34.4904 19.7846 34.6673 21.0417 35.722 22.0964C36.7767 23.1511 38.0338 23.328 38.7304 23.328V15.328C39.267 15.328 40.4042 15.4649 41.3789 16.4396C42.3536 17.4143 42.4904 18.5514 42.4904 19.088H34.4904ZM38.7304 23.328H43.3384V15.328H38.7304V23.328ZM43.3384 23.328C42.8716 23.328 42.3197 23.2308 41.7656 22.9537C41.2115 22.6767 40.8026 22.2935 40.5225 21.92L46.9224 17.12C46.071 15.9848 44.7574 15.328 43.3384 15.328V23.328ZM41.3224 22.72C40.9489 22.4399 40.5658 22.0309 40.2887 21.4768C40.0117 20.9227 39.9144 20.3709 39.9144 19.904H47.9144C47.9144 18.485 47.2577 17.1714 46.1225 16.32L41.3224 22.72ZM39.9144 19.904V24.176H47.9144V19.904H39.9144ZM68.5407 29.12L64.5761 29.6513L64.5823 29.6977L64.5896 29.7438L68.5407 29.12ZM68.7327 33.2L72.7189 33.5322L72.7256 33.4512L72.7291 33.3701L68.7327 33.2ZM53.0847 34.016L57.0404 33.4226L56.9714 32.9625L56.7986 32.5304L53.0847 34.016ZM53.6127 35.936L49.8988 37.4216L49.939 37.5222L49.9847 37.6204L53.6127 35.936ZM58.7007 38.624V42.624H58.7319L58.7632 42.6235L58.7007 38.624ZM63.5487 36.128L66.7864 38.4769L66.8329 38.4127L66.8769 38.3468L63.5487 36.128ZM64.3167 36.032L61.4883 38.8604L61.4982 38.8703L61.5081 38.8801L64.3167 36.032ZM67.7727 39.44L70.6011 36.6116L70.5912 36.6017L70.5813 36.5919L67.7727 39.44ZM67.8207 40.256L70.9367 42.764L71.0493 42.6242L71.1489 42.4748L67.8207 40.256ZM63.7407 43.328L65.2992 47.0119L65.3291 46.9992L65.3587 46.9861L63.7407 43.328ZM51.2607 42.512L49.055 45.8489L49.0678 45.8574L49.0807 45.8658L51.2607 42.512ZM47.1807 37.28L50.9304 35.8873L50.9011 35.8085L50.8686 35.7311L47.1807 37.28ZM46.8927 26.336L50.6597 27.6813L50.6797 27.6253L50.698 27.5687L46.8927 26.336ZM50.7327 20.912L48.3867 17.6722L48.3732 17.6819L48.3599 17.6918L50.7327 20.912ZM64.9887 21.68L62.2086 24.556L62.2205 24.5674L62.2324 24.5788L64.9887 21.68ZM53.3727 27.584L49.5844 26.2998L49.5662 26.3535L49.5496 26.4077L53.3727 27.584ZM53.0367 29.12L49.0856 28.4962L49.0367 28.8062V29.12H53.0367ZM61.7727 29.12L57.8308 29.7996L57.9024 30.2146L58.0588 30.6056L61.7727 29.12ZM61.5327 27.776L57.7014 28.9254L65.5327 27.776H61.5327ZM59.9967 25.568L57.5509 28.7331L57.6302 28.7944L57.7124 28.8516L59.9967 25.568ZM64.5896 29.7438C64.7322 30.647 64.7914 31.7351 64.7363 33.0299L72.7291 33.3701C72.802 31.6569 72.7331 30.025 72.4917 28.4962L64.5896 29.7438ZM64.7465 32.8678C64.7832 32.427 64.9771 31.4889 65.8396 30.6928C66.7042 29.8947 67.6589 29.776 68.1087 29.776V37.776C68.9425 37.776 70.1932 37.5613 71.2658 36.5712C72.3363 35.5831 72.6501 34.357 72.7189 33.5322L64.7465 32.8678ZM68.1087 29.776H53.2767V37.776H68.1087V29.776ZM53.2767 29.776C52.9509 29.776 51.2061 29.7811 49.9612 31.3372C48.5355 33.1193 49.1823 35.0304 49.3708 35.5016L56.7986 32.5304C56.9231 32.8416 57.5699 34.6327 56.2082 36.3348C55.0273 37.8109 53.4105 37.776 53.2767 37.776V29.776ZM49.1289 34.6094C49.2737 35.5743 49.5354 36.5131 49.8988 37.4216L57.3266 34.4504C57.178 34.0789 57.0877 33.7377 57.0404 33.4226L49.1289 34.6094ZM49.9847 37.6204C51.6766 41.2646 55.1355 42.624 58.7007 42.624V34.624C57.8628 34.624 57.4892 34.4744 57.3772 34.4152C57.3275 34.389 57.3145 34.3737 57.3125 34.3716C57.3096 34.3685 57.2814 34.3392 57.2407 34.2516L49.9847 37.6204ZM58.7632 42.6235C62.0468 42.5722 64.8491 41.1472 66.7864 38.4769L60.311 33.7791C59.8803 34.3728 59.4505 34.6118 58.6382 34.6245L58.7632 42.6235ZM66.8769 38.3468C66.6159 38.7383 65.6889 39.84 63.9807 39.84V31.84C61.9525 31.84 60.7375 33.1337 60.2205 33.9092L66.8769 38.3468ZM63.9807 39.84C63.1336 39.84 62.5004 39.56 62.1521 39.361C61.8033 39.1616 61.583 38.9552 61.4883 38.8604L67.1451 33.2036C66.8604 32.9189 65.7543 31.84 63.9807 31.84V39.84ZM61.5081 38.8801L64.9641 42.2881L70.5813 36.5919L67.1253 33.1839L61.5081 38.8801ZM64.9443 42.2684C64.852 42.1761 64.6497 41.9591 64.4561 41.6106C64.2583 41.2547 64.0127 40.6556 64.0127 39.872H72.0127C72.0127 38.1153 70.9809 36.9913 70.6011 36.6116L64.9443 42.2684ZM64.0127 39.872C64.0127 39.283 64.1474 38.8427 64.206 38.6671C64.2767 38.455 64.35 38.3011 64.387 38.2271C64.4599 38.0812 64.5128 38.0067 64.4925 38.0372L71.1489 42.4748C71.2566 42.3133 71.4054 42.0788 71.5424 41.8049C71.5901 41.7095 72.0127 40.9233 72.0127 39.872H64.0127ZM64.7046 37.748C64.0807 38.5232 63.2507 39.1709 62.1227 39.6699L65.3587 46.9861C67.5587 46.0131 69.4487 44.6128 70.9367 42.764L64.7046 37.748ZM62.1821 39.6441C61.0577 40.1199 59.7701 40.384 58.2687 40.384V48.384C60.7353 48.384 63.0957 47.9441 65.2992 47.0119L62.1821 39.6441ZM58.2687 40.384C56.1326 40.384 54.5909 39.9059 53.4406 39.1582L49.0807 45.8658C51.7704 47.6141 54.9008 48.384 58.2687 48.384V40.384ZM53.4664 39.1751C52.3272 38.4221 51.4845 37.3791 50.9304 35.8873L43.431 38.6727C44.5409 41.6609 46.4182 44.1059 49.055 45.8489L53.4664 39.1751ZM50.8686 35.7311C50.4782 34.8016 50.1727 33.2903 50.1727 30.992H42.1727C42.1727 33.8777 42.5391 36.5584 43.4928 38.8289L50.8686 35.7311ZM50.1727 30.992C50.1727 29.5875 50.3651 28.5062 50.6597 27.6813L43.1257 24.9907C42.4603 26.8538 42.1727 28.8765 42.1727 30.992H50.1727ZM50.698 27.5687C51.191 26.047 51.9928 24.9521 53.1055 24.1322L48.3599 17.6918C45.8246 19.5599 44.0664 22.081 43.0874 25.1033L50.698 27.5687ZM53.0787 24.1518C54.1819 23.3529 55.5319 22.896 57.3087 22.896V14.896C54.0294 14.896 50.9955 15.7831 48.3867 17.6722L53.0787 24.1518ZM57.3087 22.896C59.6904 22.896 61.1784 23.5601 62.2086 24.556L67.7688 18.804C64.9589 16.0879 61.3269 14.896 57.3087 14.896V22.896ZM62.2324 24.5788C63.4191 25.7071 64.2606 27.2971 64.5761 29.6513L72.5052 28.5887C71.9888 24.7349 70.4623 21.3649 67.7449 18.7812L62.2324 24.5788ZM57.3567 20.752C55.7176 20.752 54.0184 21.1426 52.5312 22.1998C51.0402 23.2596 50.1131 24.7401 49.5844 26.2998L57.161 28.8682C57.219 28.6969 57.2645 28.6304 57.2664 28.6276C57.2673 28.6265 57.2591 28.6382 57.2403 28.6575C57.2212 28.677 57.1961 28.699 57.1662 28.7202C57.1006 28.7669 57.054 28.7804 57.0604 28.7786C57.0735 28.7748 57.1627 28.752 57.3567 28.752V20.752ZM49.5496 26.4077C49.3484 27.0615 49.2001 27.7711 49.0856 28.4962L56.9877 29.7438C57.0653 29.2529 57.141 28.9385 57.1958 28.7603L49.5496 26.4077ZM49.0367 29.12C49.0367 29.8166 49.2135 31.0737 50.2683 32.1284C51.323 33.1831 52.5801 33.36 53.2767 33.36V25.36C53.8133 25.36 54.9504 25.4969 55.9251 26.4716C56.8998 27.4463 57.0367 28.5834 57.0367 29.12H49.0367ZM53.2767 33.36H61.5807V25.36H53.2767V33.36ZM61.5807 33.36C61.9065 33.36 63.6513 33.3549 64.8962 31.7988C66.3219 30.0167 65.6751 28.1056 65.4866 27.6344L58.0588 30.6056C57.9343 30.2944 57.2875 28.5033 58.6492 26.8012C59.8301 25.3251 61.4469 25.36 61.5807 25.36V33.36ZM65.7145 28.4404C65.6343 27.9749 65.5726 27.6212 65.5304 27.3848C65.51 27.2704 65.4911 27.1664 65.4757 27.0866C65.4704 27.0592 65.4557 26.9826 65.437 26.9C65.4315 26.8759 65.4213 26.832 65.4074 26.7781C65.4005 26.7517 65.3639 26.6075 65.3006 26.4303C65.2819 26.378 65.1847 26.0995 64.998 25.7758C64.9255 25.6502 64.6661 25.2033 64.1757 24.7717C63.7234 24.3737 62.1262 23.2291 60.0476 24.0604C58.4215 24.7107 57.8909 26.1066 57.8122 26.3058C57.649 26.7194 57.5941 27.0649 57.5753 27.1929C57.5324 27.4848 57.5327 27.7163 57.5327 27.776H65.5327C65.5327 27.8347 65.533 28.0654 65.4902 28.3568C65.4714 28.4846 65.4166 28.8298 65.2534 29.2433C65.1748 29.4423 64.6442 30.8382 63.0182 31.4884C60.9397 32.3196 59.3426 31.1752 58.8904 30.7772C58.4001 30.3457 58.1408 29.8989 58.0684 29.7735C57.8819 29.4502 57.785 29.1724 57.7667 29.121C57.704 28.9455 57.6681 28.804 57.6622 28.7812C57.6492 28.7309 57.6401 28.6916 57.6359 28.673C57.6221 28.6124 57.6149 28.5728 57.6197 28.5974C57.6243 28.6216 57.6354 28.6816 57.655 28.7912C57.6928 29.0028 57.7511 29.3371 57.8308 29.7996L65.7145 28.4404ZM65.364 26.6266C64.8487 24.9088 63.8465 23.3735 62.2809 22.2844L57.7124 28.8516C57.705 28.8465 57.6925 28.8366 57.6783 28.8224C57.6641 28.8082 57.6542 28.7957 57.6491 28.7883C57.6441 28.7812 57.6477 28.7849 57.657 28.8045C57.6664 28.8245 57.6827 28.8632 57.7014 28.9254L65.364 26.6266ZM62.4425 22.4029C60.9136 21.2214 59.1265 20.752 57.3567 20.752V28.752C57.5417 28.752 57.6214 28.7757 57.6275 28.7776C57.6308 28.7786 57.6214 28.776 57.6039 28.7669C57.5861 28.7577 57.5675 28.746 57.5509 28.7331L62.4425 22.4029ZM105.16 21.2L102.24 23.9337L102.24 23.9337L105.16 21.2ZM107.08 43.856L109.908 46.6844L109.908 46.6844L107.08 43.856ZM100.648 43.856L97.4478 46.256L97.7907 46.7131L98.2478 47.056L100.648 43.856ZM99.4958 25.904L102.506 23.27L102.506 23.27L99.4958 25.904ZM94.0718 25.904L91.1232 23.2011L91.1232 23.2011L94.0718 25.904ZM92.8238 43.856L89.9954 41.0276L89.9954 41.0276L92.8238 43.856ZM86.4398 43.856L83.2398 46.256L83.5827 46.7131L84.0398 47.056L86.4398 43.856ZM85.2398 25.952L82.237 28.5945L82.2638 28.625L82.2912 28.6549L85.2398 25.952ZM79.9118 25.664L77.2973 22.6367L77.2624 22.6669L77.2282 22.6979L79.9118 25.664ZM78.7118 28.208L74.7392 27.7406L74.7118 27.9735V28.208H78.7118ZM78.5198 43.856L81.3482 46.6844L81.3482 46.6844L78.5198 43.856ZM72.0878 43.856L68.8878 46.256L69.2307 46.7131L69.6878 47.056L72.0878 43.856ZM72.0878 19.52L69.2594 16.6916L69.2594 16.6916L72.0878 19.52ZM78.5198 19.52L75.3198 21.92L75.6627 22.3771L76.1198 22.72L78.5198 19.52ZM78.9998 21.872L75.68 19.6407L75.6758 19.6469L75.6716 19.6532L78.9998 21.872ZM89.2718 19.952L87.2974 23.4307L87.3172 23.442L87.3371 23.453L89.2718 19.952ZM92.0558 22.832L95.6335 21.0431L95.6244 21.0249L95.6151 21.0067L92.0558 22.832ZM92.3918 22.832L95.72 25.0508L95.8261 24.8917L95.9165 24.7233L92.3918 22.832ZM95.2238 19.904L93.3608 16.3643L93.3412 16.3746L93.3217 16.3852L95.2238 19.904ZM99.3038 22.944C100.946 22.944 101.745 23.405 102.24 23.9337L108.08 18.4663C105.759 15.987 102.654 14.944 99.3038 14.944V22.944ZM102.24 23.9337C102.755 24.4843 103.272 25.4975 103.272 27.536H111.272C111.272 24.1345 110.38 20.9237 108.08 18.4663L102.24 23.9337ZM103.272 27.536V43.424H111.272V27.536H103.272ZM103.272 43.424C103.272 42.9532 103.37 42.4749 103.569 42.0274C103.763 41.5893 104.019 41.2597 104.251 41.0276L109.908 46.6844C110.679 45.9137 111.272 44.7877 111.272 43.424H103.272ZM104.251 41.0276C105.038 40.2406 105.999 40 106.696 40V48C107.713 48 108.929 47.6634 109.908 46.6844L104.251 41.0276ZM106.696 40H101.08V48H106.696V40ZM101.08 40C101.785 40 102.483 40.2327 103.048 40.656L98.2478 47.056C99.0682 47.6713 100.054 48 101.08 48V40ZM103.848 41.456C104.271 42.0204 104.504 42.7185 104.504 43.424H96.5038C96.5038 44.4495 96.8325 45.4356 97.4478 46.256L103.848 41.456ZM104.504 43.424V29.024H96.5038V43.424H104.504ZM104.504 29.024C104.504 27.027 103.981 24.9557 102.506 23.27L96.4855 28.538C96.4386 28.4844 96.4326 28.4498 96.4455 28.4897C96.4624 28.5421 96.5038 28.7045 96.5038 29.024H104.504ZM102.506 23.27C100.995 21.5431 98.9549 20.752 96.8078 20.752V28.752C96.9062 28.752 96.8628 28.7674 96.7441 28.7166C96.6881 28.6926 96.6321 28.6607 96.5815 28.6235C96.5315 28.5868 96.5 28.5546 96.4855 28.538L102.506 23.27ZM96.8078 20.752C94.6609 20.752 92.6463 21.5395 91.1232 23.2011L97.0204 28.6069C97.0169 28.6108 96.9975 28.6309 96.9607 28.6571C96.9234 28.6837 96.8804 28.7079 96.836 28.7265C96.74 28.767 96.7109 28.752 96.8078 28.752V20.752ZM91.1232 23.2011C89.5967 24.8664 89.0158 26.9351 89.0158 28.976H97.0158C97.0158 28.6999 97.0539 28.5736 97.0626 28.5483C97.0668 28.5361 97.0659 28.5419 97.056 28.5588C97.0458 28.576 97.033 28.5932 97.0204 28.6069L91.1232 23.2011ZM89.0158 28.976V43.424H97.0158V28.976H89.0158ZM89.0158 43.424C89.0158 42.9532 89.1137 42.4749 89.3126 42.0274C89.5073 41.5893 89.7632 41.2597 89.9954 41.0276L95.6522 46.6844C96.423 45.9137 97.0158 44.7877 97.0158 43.424H89.0158ZM89.9954 41.0276C90.7823 40.2406 91.7428 40 92.4398 40V48C93.4568 48 94.6733 47.6634 95.6522 46.6844L89.9954 41.0276ZM92.4398 40H86.8718V48H92.4398V40ZM86.8718 40C87.5773 40 88.2754 40.2327 88.8398 40.656L84.0398 47.056C84.8602 47.6713 85.8463 48 86.8718 48V40ZM89.6398 41.456C90.0631 42.0204 90.2958 42.7185 90.2958 43.424H82.2958C82.2958 44.4495 82.6245 45.4356 83.2398 46.256L89.6398 41.456ZM90.2958 43.424V29.024H82.2958V43.424H90.2958ZM90.2958 29.024C90.2958 26.9831 89.7149 24.9144 88.1884 23.2491L82.2912 28.6549C82.2787 28.6412 82.2658 28.624 82.2557 28.6068C82.2457 28.5899 82.2449 28.5841 82.2491 28.5963C82.2577 28.6216 82.2958 28.7479 82.2958 29.024H90.2958ZM88.2427 23.3095C86.7364 21.5978 84.7067 20.752 82.5038 20.752V28.752C82.5797 28.752 82.5313 28.7634 82.4212 28.7152C82.3707 28.693 82.3251 28.6659 82.2881 28.6384C82.2518 28.6115 82.2356 28.593 82.237 28.5945L88.2427 23.3095ZM82.5038 20.752C80.6239 20.752 78.8029 21.3364 77.2973 22.6367L82.5263 28.6913C82.5197 28.697 82.5043 28.709 82.4809 28.7227C82.4574 28.7364 82.4343 28.7466 82.4154 28.7532C82.3969 28.7598 82.3908 28.7599 82.4017 28.7581C82.4132 28.7563 82.4459 28.752 82.5038 28.752V20.752ZM77.2282 22.6979C75.6955 24.0845 74.9556 25.9014 74.7392 27.7406L82.6844 28.6754C82.7062 28.4902 82.7381 28.4358 82.7255 28.4625C82.7192 28.4758 82.7049 28.5027 82.6799 28.5366C82.6547 28.5708 82.6256 28.6029 82.5955 28.6301L77.2282 22.6979ZM74.7118 28.208V43.424H82.7118V28.208H74.7118ZM74.7118 43.424C74.7118 42.9532 74.8097 42.4749 75.0086 42.0274C75.2033 41.5893 75.4592 41.2597 75.6914 41.0276L81.3482 46.6844C82.119 45.9137 82.7118 44.7877 82.7118 43.424H74.7118ZM75.6914 41.0276C76.4783 40.2406 77.4388 40 78.1358 40V48C79.1528 48 80.3693 47.6634 81.3482 46.6844L75.6914 41.0276ZM78.1358 40H72.5198V48H78.1358V40ZM72.5198 40C73.2253 40 73.9234 40.2327 74.4878 40.656L69.6878 47.056C70.5082 47.6713 71.4943 48 72.5198 48V40ZM75.2878 41.456C75.7111 42.0204 75.9438 42.7185 75.9438 43.424H67.9438C67.9438 44.4495 68.2725 45.4356 68.8878 46.256L75.2878 41.456ZM75.9438 43.424V19.904H67.9438V43.424H75.9438ZM75.9438 19.904C75.9438 20.601 75.7032 21.5615 74.9163 22.3484L69.2594 16.6916C68.2804 17.6705 67.9438 18.887 67.9438 19.904H75.9438ZM74.9162 22.3484C74.6841 22.5806 74.3545 22.8365 73.9164 23.0313C73.4689 23.2301 72.9906 23.328 72.5198 23.328V15.328C71.1562 15.328 70.0302 15.9208 69.2594 16.6916L74.9162 22.3484ZM72.5198 23.328H78.1358V15.328H72.5198V23.328ZM78.1358 23.328C77.6689 23.328 77.1171 23.2308 76.563 22.9537C76.0089 22.6767 75.6 22.2935 75.3198 21.92L81.7198 17.12C80.8684 15.9848 79.5548 15.328 78.1358 15.328V23.328ZM76.1198 22.72C75.7463 22.4399 75.3632 22.0309 75.0861 21.4768C74.8091 20.9227 74.7118 20.3709 74.7118 19.904H82.7118C82.7118 18.485 82.055 17.1714 80.9198 16.32L76.1198 22.72ZM74.7118 19.904V21.776H82.7118V19.904H74.7118ZM74.7118 21.776C74.7118 22.783 75.1329 24.6027 77.019 25.5457L80.5966 18.3903C81.3388 18.7613 81.9425 19.365 82.3135 20.1071C82.6534 20.787 82.7118 21.4054 82.7118 21.776H74.7118ZM77.019 25.5457C78.1771 26.1248 79.5346 26.1248 80.6927 25.5457C81.6181 25.083 82.1224 24.3993 82.328 24.0908L75.6716 19.6532C75.8133 19.4407 76.2536 18.821 77.115 18.3903C77.5881 18.1537 78.1807 17.98 78.8558 17.98C79.5309 17.98 80.1235 18.1537 80.5966 18.3903L77.019 25.5457ZM82.3196 24.1033C82.7534 23.4579 83.4139 22.944 85.0958 22.944V14.944C81.2738 14.944 77.8702 16.382 75.68 19.6407L82.3196 24.1033ZM85.0958 22.944C86.1257 22.944 86.8133 23.156 87.2974 23.4307L91.2462 16.4733C89.3624 15.404 87.2659 14.944 85.0958 14.944V22.944ZM87.3371 23.453C87.85 23.7364 88.2158 24.1097 88.4965 24.6573L95.6151 21.0067C94.6159 19.0583 93.1256 17.5116 91.2066 16.451L87.3371 23.453ZM88.4781 24.6209C88.5858 24.8363 89.6314 26.976 92.2118 26.976C93.4343 26.976 94.3198 26.4457 94.7976 26.0635C95.267 25.688 95.5622 25.2875 95.72 25.0508L89.0636 20.6132C89.1574 20.4725 89.3907 20.144 89.8 19.8165C90.2178 19.4823 91.0453 18.976 92.2118 18.976C93.4348 18.976 94.3336 19.5297 94.8439 20.0008C95.3074 20.4286 95.5415 20.8592 95.6335 21.0431L88.4781 24.6209ZM95.9165 24.7233C96.2913 24.0247 96.7026 23.6517 97.1259 23.4228L93.3217 16.3852C91.3771 17.4363 89.9003 19.0153 88.8672 20.9407L95.9165 24.7233ZM97.0868 23.4437C97.6754 23.1339 98.3863 22.944 99.3038 22.944V14.944C97.2133 14.944 95.2042 15.3941 93.3608 16.3643L97.0868 23.4437ZM133.094 25.952L129.283 27.1671L129.302 27.2255L129.322 27.2833L133.094 25.952ZM133.046 37.712L136.81 39.0648L136.822 39.0311L136.834 38.9972L133.046 37.712ZM129.542 42.608L131.952 45.8002L131.962 45.7926L129.542 42.608ZM118.31 41.984L114.982 44.2028L115.078 44.3472L115.186 44.4828L118.31 41.984ZM118.118 41.888L119.907 45.4657L119.907 45.4657L118.118 41.888ZM117.83 52.736L115.43 49.536L114.973 49.8789L114.63 50.336L117.83 52.736ZM111.398 52.736L108.57 55.5644L108.57 55.5644L111.398 52.736ZM111.398 19.52L108.57 16.6916L108.57 16.6916L111.398 19.52ZM117.83 19.52L114.63 21.92L114.973 22.3771L115.43 22.72L117.83 19.52ZM118.118 21.68L116.329 25.2577L117.174 25.68H118.118V21.68ZM118.31 21.584L121.138 24.4124L121.327 24.2237L121.489 24.0117L118.31 21.584ZM129.59 20.816L127.13 23.97L127.165 23.9972L127.2 24.0235L129.59 20.816ZM125.942 26.816L122.415 28.7026L122.438 28.7468L122.463 28.7904L125.942 26.816ZM119.078 26.816L122.533 28.8315L122.57 28.7677L122.605 28.7026L119.078 26.816ZM119.126 36.656L122.594 34.6621L122.579 34.6368L122.564 34.6117L119.126 36.656ZM129.322 27.2833C129.712 28.3882 129.958 29.8384 129.958 31.712H137.958C137.958 29.1696 137.628 26.7798 136.866 24.6207L129.322 27.2833ZM129.958 31.712C129.958 33.5542 129.704 35.1113 129.258 36.4268L136.834 38.9972C137.604 36.7287 137.958 34.2858 137.958 31.712H129.958ZM129.282 36.3592C128.785 37.7424 128.055 38.7141 127.122 39.4234L131.962 45.7926C134.229 44.0699 135.835 41.7776 136.81 39.0648L129.282 36.3592ZM127.132 39.4158C126.382 39.9818 125.322 40.384 123.686 40.384V48.384C126.722 48.384 129.566 47.6022 131.952 45.8002L127.132 39.4158ZM123.686 40.384C122.426 40.384 121.853 40.0101 121.433 39.4852L115.186 44.4828C117.327 47.1579 120.338 48.384 123.686 48.384V40.384ZM121.638 39.7652C121.432 39.4567 120.928 38.773 120.003 38.3103C118.845 37.7312 117.487 37.7312 116.329 38.3103L119.907 45.4657C119.434 45.7023 118.841 45.876 118.166 45.876C117.491 45.876 116.898 45.7023 116.425 45.4657C115.564 45.035 115.123 44.4153 114.982 44.2028L121.638 39.7652ZM116.329 38.3103C114.443 39.2533 114.022 41.073 114.022 42.08H122.022C122.022 42.4506 121.964 43.069 121.624 43.7489C121.253 44.491 120.649 45.0947 119.907 45.4657L116.329 38.3103ZM114.022 42.08V52.352H122.022V42.08H114.022ZM114.022 52.352C114.022 51.8851 114.119 51.3332 114.396 50.7791C114.673 50.225 115.056 49.8161 115.43 49.536L120.23 55.936C121.365 55.0846 122.022 53.771 122.022 52.352H114.022ZM114.63 50.336C114.91 49.9625 115.319 49.5793 115.873 49.3023C116.427 49.0252 116.979 48.928 117.446 48.928V56.928C118.865 56.928 120.179 56.2712 121.03 55.136L114.63 50.336ZM117.446 48.928H111.83V56.928H117.446V48.928ZM111.83 48.928C112.301 48.928 112.779 49.0259 113.226 49.2248C113.665 49.4195 113.994 49.6754 114.226 49.9076L108.57 55.5644C109.34 56.3352 110.466 56.928 111.83 56.928V48.928ZM114.226 49.9076C115.013 50.6945 115.254 51.655 115.254 52.352H107.254C107.254 53.369 107.591 54.5855 108.57 55.5644L114.226 49.9076ZM115.254 52.352V19.904H107.254V52.352H115.254ZM115.254 19.904C115.254 20.601 115.013 21.5615 114.226 22.3484L108.57 16.6916C107.591 17.6705 107.254 18.887 107.254 19.904H115.254ZM114.226 22.3484C113.994 22.5806 113.665 22.8365 113.226 23.0313C112.779 23.2301 112.301 23.328 111.83 23.328V15.328C110.466 15.328 109.34 15.9208 108.57 16.6916L114.226 22.3484ZM111.83 23.328H117.446V15.328H111.83V23.328ZM117.446 23.328C116.979 23.328 116.427 23.2308 115.873 22.9537C115.319 22.6767 114.91 22.2935 114.63 21.92L121.03 17.12C120.179 15.9848 118.865 15.328 117.446 15.328V23.328ZM115.43 22.72C115.056 22.4399 114.673 22.031 114.396 21.4769C114.119 20.9228 114.022 20.3709 114.022 19.904H122.022C122.022 18.485 121.365 17.1714 120.23 16.32L115.43 22.72ZM114.022 19.904V21.488H122.022V19.904H114.022ZM114.022 21.488C114.022 22.495 114.443 24.3147 116.329 25.2577L119.907 18.1023C120.649 18.4733 121.253 19.077 121.624 19.8191C121.964 20.499 122.022 21.1174 122.022 21.488H114.022ZM118.118 25.68C119.617 25.68 120.638 24.9124 121.138 24.4124L115.482 18.7556C115.854 18.3836 116.747 17.68 118.118 17.68V25.68ZM121.489 24.0117C122.017 23.3196 122.657 22.944 123.878 22.944V14.944C120.363 14.944 117.29 16.3284 115.131 19.1563L121.489 24.0117ZM123.878 22.944C125.278 22.944 126.296 23.3195 127.13 23.97L132.05 17.662C129.684 15.8165 126.894 14.944 123.878 14.944V22.944ZM127.2 24.0235C128.071 24.6727 128.796 25.6406 129.283 27.1671L136.905 24.7369C135.984 21.8474 134.373 19.3913 131.98 17.6085L127.2 24.0235ZM129.117 38.8627C130.476 36.7434 130.95 34.2015 130.95 31.616H122.95C122.95 33.3185 122.624 34.1686 122.382 34.5453L129.117 38.8627ZM130.95 31.616C130.95 29.217 130.56 26.8489 129.421 24.8416L122.463 28.7904C122.668 29.1511 122.95 29.983 122.95 31.616H130.95ZM129.469 24.9294C128.801 23.6802 127.831 22.5764 126.512 21.8095C125.202 21.0483 123.776 20.752 122.39 20.752V28.752C122.518 28.752 122.575 28.7655 122.581 28.7667C122.583 28.7673 122.574 28.7654 122.557 28.7585C122.54 28.7516 122.518 28.7412 122.492 28.7265C122.467 28.7118 122.443 28.6953 122.422 28.6783C122.401 28.6614 122.386 28.6468 122.377 28.6374C122.359 28.6178 122.376 28.6304 122.415 28.7026L129.469 24.9294ZM122.39 20.752C121.007 20.752 119.61 21.0835 118.342 21.8732C117.087 22.6553 116.183 23.7471 115.551 24.9294L122.605 28.7026C122.659 28.6024 122.69 28.5687 122.685 28.5748C122.677 28.5834 122.641 28.6209 122.574 28.6628C122.505 28.7053 122.438 28.732 122.387 28.7455C122.339 28.7583 122.335 28.752 122.39 28.752V20.752ZM115.623 24.8005C114.448 26.8151 114.07 29.2374 114.07 31.664H122.07C122.07 29.9306 122.364 29.1209 122.533 28.8315L115.623 24.8005ZM114.07 31.664C114.07 34.1613 114.466 36.6448 115.688 38.7003L122.564 34.6117C122.378 34.2992 122.07 33.4546 122.07 31.664H114.07ZM115.658 38.6499C117.086 41.132 119.474 42.576 122.39 42.576V34.576C122.327 34.576 122.321 34.5691 122.358 34.5783C122.397 34.5883 122.457 34.6098 122.522 34.6483C122.587 34.6865 122.628 34.7238 122.644 34.741C122.658 34.7559 122.637 34.7379 122.594 34.6621L115.658 38.6499ZM122.39 42.576C125.241 42.576 127.608 41.2172 129.117 38.8627L122.382 34.5453C122.33 34.6277 122.298 34.6585 122.298 34.659C122.297 34.6594 122.303 34.6539 122.315 34.6447C122.327 34.6356 122.343 34.6247 122.363 34.6137C122.383 34.6027 122.403 34.5935 122.422 34.5861C122.44 34.5788 122.455 34.5748 122.463 34.5728C122.471 34.5708 122.47 34.5716 122.459 34.5728C122.448 34.5741 122.425 34.576 122.39 34.576V42.576ZM137.527 43.856L134.327 46.256L134.67 46.7131L135.127 47.056L137.527 43.856ZM137.527 10.592L134.699 7.76357L134.699 7.76358L137.527 10.592ZM143.959 10.592L140.759 12.992L141.102 13.4491L141.559 13.792L143.959 10.592ZM143.959 43.856L146.788 46.6844L146.788 46.6844L143.959 43.856ZM137.959 40C138.665 40 139.363 40.2327 139.927 40.656L135.127 47.056C135.948 47.6713 136.934 48 137.959 48V40ZM140.727 41.456C141.15 42.0204 141.383 42.7185 141.383 43.424H133.383C133.383 44.4495 133.712 45.4356 134.327 46.256L140.727 41.456ZM141.383 43.424V10.976H133.383V43.424H141.383ZM141.383 10.976C141.383 11.673 141.143 12.6335 140.356 13.4204L134.699 7.76358C133.72 8.74252 133.383 9.95897 133.383 10.976H141.383ZM140.356 13.4204C140.123 13.6526 139.794 13.9085 139.356 14.1032C138.908 14.3021 138.43 14.4 137.959 14.4V6.4C136.596 6.4 135.469 6.99282 134.699 7.76357L140.356 13.4204ZM137.959 14.4H143.575V6.4H137.959V14.4ZM143.575 14.4C143.108 14.4 142.556 14.3028 142.002 14.0257C141.448 13.7487 141.039 13.3655 140.759 12.992L147.159 8.192C146.308 7.05678 144.994 6.4 143.575 6.4V14.4ZM141.559 13.792C141.186 13.5119 140.803 13.1029 140.525 12.5488C140.248 11.9948 140.151 11.4429 140.151 10.976H148.151C148.151 9.55697 147.494 8.24342 146.359 7.39201L141.559 13.792ZM140.151 10.976V43.424H148.151V10.976H140.151ZM140.151 43.424C140.151 42.9532 140.249 42.4749 140.448 42.0274C140.643 41.5893 140.899 41.2597 141.131 41.0276L146.788 46.6844C147.558 45.9137 148.151 44.7877 148.151 43.424H140.151ZM141.131 41.0276C141.918 40.2406 142.878 40 143.575 40V48C144.592 48 145.809 47.6634 146.788 46.6844L141.131 41.0276ZM143.575 40H137.959V48H143.575V40ZM163.55 20.048L161.906 23.6943L161.935 23.7078L161.966 23.7208L163.55 20.048ZM167.342 22.976L164.093 25.3088L164.112 25.336L164.132 25.3628L167.342 22.976ZM168.542 43.856L165.714 41.0276L165.714 41.0276L168.542 43.856ZM162.11 43.856L158.91 46.256L159.253 46.7131L159.71 47.056L162.11 43.856ZM161.87 41.648L163.659 38.0703L163.659 38.0703L161.87 41.648ZM161.678 41.744L164.857 44.1717L164.935 44.0696L165.006 43.9628L161.678 41.744ZM149.15 42.56L151.633 39.4238L151.633 39.4238L149.15 42.56ZM149.438 31.472L151.894 34.6294L151.912 34.6154L151.93 34.6011L149.438 31.472ZM161.006 25.664L158.251 28.564L158.29 28.6011L158.33 28.6372L161.006 25.664ZM155.63 25.28L153.774 21.7367L153.738 21.7555L153.702 21.7751L155.63 25.28ZM154.382 26.768L150.551 25.6186L150.536 25.6669L150.523 25.7155L154.382 26.768ZM153.758 27.248L153.234 31.2135L153.297 31.2218L153.36 31.2281L153.758 27.248ZM147.95 26.48L147.292 30.4256L147.359 30.4367L147.426 30.4455L147.95 26.48ZM147.422 26.048L151.382 26.6137L151.395 26.5207L151.404 26.4272L147.422 26.048ZM149.006 22.4L146.007 19.7535L145.984 19.7787L145.963 19.8042L149.006 22.4ZM152.75 19.856L151.304 16.1266L151.291 16.1316L151.278 16.1368L152.75 19.856ZM154.862 34.256L152.673 30.9081L152.643 30.9279L152.613 30.9483L154.862 34.256ZM154.574 38.624L151.997 41.6836L152.046 41.7244L152.095 41.7635L154.574 38.624ZM157.982 22.944C159.586 22.944 160.867 23.2262 161.906 23.6943L165.194 16.4017C162.968 15.3978 160.538 14.944 157.982 14.944V22.944ZM161.966 23.7208C163.038 24.1832 163.683 24.7376 164.093 25.3088L170.591 20.6432C169.209 18.7184 167.326 17.3207 165.134 16.3752L161.966 23.7208ZM164.132 25.3628C164.554 25.9301 164.734 26.4874 164.734 27.152H172.734C172.734 24.7446 171.986 22.5179 170.552 20.5892L164.132 25.3628ZM164.734 27.152V43.424H172.734V27.152H164.734ZM164.734 43.424C164.734 42.9532 164.832 42.4749 165.031 42.0274C165.225 41.5893 165.481 41.2597 165.714 41.0276L171.37 46.6844C172.141 45.9137 172.734 44.7877 172.734 43.424H164.734ZM165.714 41.0276C166.5 40.2406 167.461 40 168.158 40V48C169.175 48 170.391 47.6634 171.37 46.6844L165.714 41.0276ZM168.158 40H162.542V48H168.158V40ZM162.542 40C163.247 40 163.946 40.2327 164.51 40.656L159.71 47.056C160.53 47.6713 161.516 48 162.542 48V40ZM165.31 41.456C165.733 42.0204 165.966 42.7185 165.966 43.424H157.966C157.966 44.4495 158.295 45.4356 158.91 46.256L165.31 41.456ZM165.966 43.424V41.84H157.966V43.424H165.966ZM165.966 41.84C165.966 40.833 165.545 39.0134 163.659 38.0703L160.081 45.2257C159.339 44.8546 158.735 44.2509 158.364 43.5088C158.024 42.829 157.966 42.2106 157.966 41.84H165.966ZM163.659 38.0703C162.501 37.4912 161.143 37.4912 159.985 38.0703C159.06 38.533 158.555 39.2167 158.35 39.5252L165.006 43.9628C164.864 44.1753 164.424 44.795 163.563 45.2257C163.09 45.4623 162.497 45.636 161.822 45.636C161.147 45.636 160.554 45.4623 160.081 45.2257L163.659 38.0703ZM158.499 39.3163C158.154 39.7682 157.389 40.384 155.198 40.384V48.384C158.959 48.384 162.514 47.2398 164.857 44.1717L158.499 39.3163ZM155.198 40.384C153.352 40.384 152.288 39.9424 151.633 39.4238L146.667 45.6962C149.084 47.6096 152.051 48.384 155.198 48.384V40.384ZM151.633 39.4238C151.257 39.1265 150.846 38.6131 150.846 37.184H142.846C142.846 40.4909 143.971 43.5615 146.667 45.6962L151.633 39.4238ZM150.846 37.184C150.846 35.7778 151.271 35.1134 151.894 34.6294L146.982 28.3146C144.148 30.5186 142.846 33.6622 142.846 37.184H150.846ZM151.93 34.6011C152.693 33.9933 154.141 33.408 156.83 33.408V25.408C153.119 25.408 149.639 26.1987 146.946 28.3429L151.93 34.6011ZM156.83 33.408H161.726V25.408H156.83V33.408ZM161.726 33.408C162.423 33.408 163.68 33.2311 164.734 32.1764C165.789 31.1217 165.966 29.8646 165.966 29.168H157.966C157.966 28.6314 158.103 27.4943 159.078 26.5196C160.052 25.5449 161.189 25.408 161.726 25.408V33.408ZM165.966 29.168V28.112H157.966V29.168H165.966ZM165.966 28.112C165.966 26.1997 165.351 24.1931 163.682 22.6908L158.33 28.6372C158.262 28.5759 158.194 28.5 158.133 28.4119C158.072 28.3241 158.03 28.2397 158.002 28.1683C157.946 28.0265 157.966 27.984 157.966 28.112H165.966ZM163.761 22.764C162.101 21.187 159.973 20.752 158.126 20.752V28.752C158.289 28.752 158.408 28.7618 158.488 28.7727C158.568 28.7835 158.601 28.7944 158.598 28.7934C158.594 28.792 158.552 28.7781 158.485 28.7401C158.417 28.7012 158.335 28.6436 158.251 28.564L163.761 22.764ZM158.126 20.752C156.68 20.752 155.167 21.0067 153.774 21.7367L157.486 28.8233C157.436 28.8493 157.588 28.752 158.126 28.752V20.752ZM153.702 21.7751C152.237 22.5808 151.073 23.8761 150.551 25.6186L158.213 27.9174C158.158 28.1011 158.055 28.3043 157.903 28.4864C157.755 28.6631 157.616 28.7528 157.558 28.7849L153.702 21.7751ZM150.523 25.7155C150.617 25.3715 150.903 24.6064 151.715 23.9815C152.592 23.3066 153.543 23.2065 154.156 23.2679L153.36 31.2281C154.293 31.3215 155.507 31.1574 156.593 30.3225C157.613 29.5376 158.051 28.5165 158.241 27.8205L150.523 25.7155ZM154.282 23.2825L148.474 22.5145L147.426 30.4455L153.234 31.2135L154.282 23.2825ZM148.608 22.5344C148.675 22.5456 149.352 22.6463 150.063 23.2282C150.469 23.5605 150.894 24.0591 151.162 24.7434C151.43 25.4287 151.457 26.0869 151.382 26.6137L143.462 25.4823C143.247 26.9889 143.832 28.4666 144.997 29.4198C145.884 30.1457 146.841 30.3504 147.292 30.4256L148.608 22.5344ZM151.404 26.4272C151.449 25.9507 151.621 25.498 152.049 24.9958L145.963 19.8042C144.535 21.478 143.651 23.4573 143.44 25.6688L151.404 26.4272ZM152.005 25.0465C152.493 24.4933 153.191 23.9834 154.222 23.5752L151.278 16.1368C149.237 16.9446 147.438 18.1307 146.007 19.7535L152.005 25.0465ZM154.196 23.5854C155.242 23.1797 156.487 22.944 157.982 22.944V14.944C155.637 14.944 153.394 15.3163 151.304 16.1266L154.196 23.5854ZM157.022 43.344C159.151 43.344 161.207 42.7582 162.96 41.4144L158.092 35.0656C157.925 35.1938 157.645 35.344 157.022 35.344V43.344ZM162.96 41.4144C164.849 39.9656 165.966 37.8749 165.966 35.408H157.966C157.966 35.4168 157.965 35.391 157.977 35.3401C157.989 35.2878 158.01 35.2273 158.04 35.167C158.071 35.1072 158.101 35.0665 158.119 35.0458C158.136 35.0264 158.132 35.035 158.092 35.0656L162.96 41.4144ZM165.966 35.408V33.68H157.966V35.408H165.966ZM165.966 33.68C165.966 32.9834 165.789 31.7263 164.734 30.6716C163.68 29.6169 162.423 29.44 161.726 29.44V37.44C161.189 37.44 160.052 37.3031 159.078 36.3284C158.103 35.3537 157.966 34.2166 157.966 33.68H165.966ZM161.726 29.44H158.27V37.44H161.726V29.44ZM158.27 29.44C156.383 29.44 154.386 29.7878 152.673 30.9081L157.051 37.6039C157.002 37.6362 157.276 37.44 158.27 37.44V29.44ZM152.613 30.9483C150.685 32.2594 149.662 34.2839 149.662 36.56H157.662C157.662 36.613 157.647 36.823 157.51 37.0877C157.37 37.3564 157.193 37.5082 157.111 37.5637L152.613 30.9483ZM149.662 36.56C149.662 38.4875 150.401 40.3397 151.997 41.6836L157.15 35.5644C157.285 35.6779 157.441 35.8627 157.549 36.1073C157.653 36.3429 157.662 36.5176 157.662 36.56H149.662ZM152.095 41.7635C153.608 42.9574 155.389 43.344 157.022 43.344V35.344C156.817 35.344 156.746 35.3194 156.771 35.3265C156.784 35.3306 156.821 35.3428 156.874 35.3693C156.927 35.3963 156.989 35.4341 157.053 35.4845L152.095 41.7635ZM185.994 24.608L188.822 27.4364L188.822 27.4364L185.994 24.608ZM181.386 37.52L178.281 40.0424L178.327 40.0991L178.375 40.154L181.386 37.52ZM185.466 38.48L182.266 40.88L182.609 41.3371L183.066 41.68L185.466 38.48ZM185.082 44.048L185.272 48.0435L185.507 48.0323L185.739 47.9936L185.082 44.048ZM176.25 42.848L173.994 46.1512L174.022 46.1702L174.05 46.1887L176.25 42.848ZM174.234 37.856H170.234V37.8823L170.234 37.9086L174.234 37.856ZM170.826 24.608L167.626 27.008L167.969 27.4651L168.426 27.808L170.826 24.608ZM170.826 19.52L167.997 16.6916L167.997 16.6916L170.826 19.52ZM174.378 12.992L171.549 10.1636L171.549 10.1636L174.378 12.992ZM180.57 12.992L177.37 15.392L177.713 15.8491L178.17 16.192L180.57 12.992ZM185.994 19.52L182.794 21.92L183.137 22.3771L183.594 22.72L185.994 19.52ZM182.186 24.176C182.186 23.7052 182.284 23.2269 182.482 22.7795C182.677 22.3413 182.933 22.0117 183.165 21.7796L188.822 27.4364C189.593 26.6657 190.186 25.5397 190.186 24.176H182.186ZM183.165 21.7796C183.952 20.9926 184.913 20.752 185.61 20.752V28.752C186.627 28.752 187.843 28.4154 188.822 27.4364L183.165 21.7796ZM185.61 20.752H181.002V28.752H185.61V20.752ZM181.002 20.752C180.305 20.752 179.048 20.9289 177.993 21.9836C176.939 23.0383 176.762 24.2954 176.762 24.992H184.762C184.762 25.5286 184.625 26.6657 183.65 27.6404C182.675 28.6151 181.538 28.752 181.002 28.752V20.752ZM176.762 24.992V35.168H184.762V24.992H176.762ZM176.762 35.168C176.762 36.6268 177.028 38.4997 178.281 40.0424L184.49 34.9976C184.711 35.2697 184.775 35.4896 184.784 35.5223C184.789 35.5398 184.782 35.5218 184.775 35.4597C184.768 35.3979 184.762 35.3023 184.762 35.168H176.762ZM178.375 40.154C179.855 41.8451 181.874 42.288 183.498 42.288V34.288C183.359 34.288 183.427 34.2678 183.617 34.3368C183.833 34.4155 184.132 34.5844 184.396 34.886L178.375 40.154ZM183.498 42.288H185.082V34.288H183.498V42.288ZM185.082 42.288C184.615 42.288 184.063 42.1908 183.509 41.9137C182.955 41.6367 182.546 41.2535 182.266 40.88L188.666 36.08C187.814 34.9448 186.501 34.288 185.082 34.288V42.288ZM183.066 41.68C182.692 41.3999 182.309 40.991 182.032 40.4369C181.755 39.8828 181.658 39.3309 181.658 38.864H189.658C189.658 37.445 189.001 36.1314 187.866 35.28L183.066 41.68ZM181.658 38.864V43.424H189.658V38.864H181.658ZM181.658 43.424C181.658 42.8504 181.833 41.9345 182.574 41.1309C183.271 40.3758 184.064 40.1624 184.424 40.1024L185.739 47.9936C186.483 47.8696 187.564 47.5202 188.453 46.5571C189.387 45.5455 189.658 44.3496 189.658 43.424H181.658ZM184.891 40.0525C183.55 40.1164 182.674 40.144 182.202 40.144V48.144C182.882 48.144 183.926 48.1076 185.272 48.0435L184.891 40.0525ZM182.202 40.144C179.846 40.144 178.798 39.7364 178.45 39.5073L174.05 46.1887C176.326 47.6876 179.245 48.144 182.202 48.144V40.144ZM178.506 39.5448C178.584 39.5981 178.551 39.6282 178.471 39.4301C178.373 39.1892 178.245 38.6887 178.233 37.8034L170.234 37.9086C170.274 40.9242 171.124 44.1915 173.994 46.1512L178.506 39.5448ZM178.234 37.856V24.992H170.234V37.856H178.234ZM178.234 24.992C178.234 24.2954 178.057 23.0383 177.002 21.9836C175.947 20.9289 174.69 20.752 173.994 20.752V28.752C173.457 28.752 172.32 28.6151 171.345 27.6404C170.371 26.6657 170.234 25.5286 170.234 24.992H178.234ZM173.994 20.752H171.258V28.752H173.994V20.752ZM171.258 20.752C171.963 20.752 172.661 20.9847 173.226 21.408L168.426 27.808C169.246 28.4233 170.232 28.752 171.258 28.752V20.752ZM174.026 22.208C174.449 22.7724 174.682 23.4705 174.682 24.176H166.682C166.682 25.2015 167.01 26.1876 167.626 27.008L174.026 22.208ZM174.682 24.176V19.904H166.682V24.176H174.682ZM174.682 19.904C174.682 20.601 174.441 21.5615 173.654 22.3484L167.997 16.6916C167.018 17.6705 166.682 18.887 166.682 19.904H174.682ZM173.654 22.3484C173.422 22.5806 173.092 22.8365 172.654 23.0313C172.207 23.2301 171.729 23.328 171.258 23.328V15.328C169.894 15.328 168.768 15.9208 167.997 16.6916L173.654 22.3484ZM171.258 23.328H173.994V15.328H171.258V23.328ZM173.994 23.328C174.69 23.328 175.947 23.1511 177.002 22.0964C178.057 21.0417 178.234 19.7846 178.234 19.088H170.234C170.234 18.5514 170.371 17.4143 171.345 16.4396C172.32 15.4649 173.457 15.328 173.994 15.328V23.328ZM178.234 19.088V13.376H170.234V19.088H178.234ZM178.234 13.376C178.234 14.073 177.993 15.0335 177.206 15.8204L171.549 10.1636C170.57 11.1425 170.234 12.359 170.234 13.376H178.234ZM177.206 15.8204C176.974 16.0526 176.644 16.3085 176.206 16.5032C175.759 16.7021 175.281 16.8 174.81 16.8V8.8C173.446 8.8 172.32 9.39282 171.549 10.1636L177.206 15.8204ZM174.81 16.8H180.186V8.8H174.81V16.8ZM180.186 16.8C179.719 16.8 179.167 16.7028 178.613 16.4257C178.059 16.1487 177.65 15.7655 177.37 15.392L183.77 10.592C182.918 9.45678 181.605 8.8 180.186 8.8V16.8ZM178.17 16.192C177.796 15.9119 177.413 15.503 177.136 14.9489C176.859 14.3948 176.762 13.8429 176.762 13.376H184.762C184.762 11.957 184.105 10.6434 182.97 9.792L178.17 16.192ZM176.762 13.376V19.088H184.762V13.376H176.762ZM176.762 19.088C176.762 19.7846 176.939 21.0417 177.993 22.0964C179.048 23.1511 180.305 23.328 181.002 23.328V15.328C181.538 15.328 182.675 15.4649 183.65 16.4396C184.625 17.4143 184.762 18.5514 184.762 19.088H176.762ZM181.002 23.328H185.61V15.328H181.002V23.328ZM185.61 23.328C185.143 23.328 184.591 23.2308 184.037 22.9537C183.483 22.6767 183.074 22.2935 182.794 21.92L189.194 17.12C188.342 15.9848 187.029 15.328 185.61 15.328V23.328ZM183.594 22.72C183.22 22.4399 182.837 22.0309 182.56 21.4768C182.283 20.9227 182.186 20.3709 182.186 19.904H190.186C190.186 18.485 189.529 17.1714 188.394 16.32L183.594 22.72ZM182.186 19.904V24.176H190.186V19.904H182.186ZM210.812 29.12L206.847 29.6513L206.854 29.6977L206.861 29.7438L210.812 29.12ZM211.004 33.2L214.99 33.5322L214.997 33.4512L215 33.3701L211.004 33.2ZM195.356 34.016L199.312 33.4226L199.243 32.9625L199.07 32.5304L195.356 34.016ZM195.884 35.936L192.17 37.4216L192.21 37.5222L192.256 37.6204L195.884 35.936ZM200.972 38.624V42.624H201.003L201.034 42.6235L200.972 38.624ZM205.82 36.128L209.058 38.4769L209.104 38.4127L209.148 38.3468L205.82 36.128ZM206.588 36.032L203.76 38.8604L203.769 38.8703L203.779 38.8801L206.588 36.032ZM210.044 39.44L212.872 36.6116L212.862 36.6017L212.853 36.5919L210.044 39.44ZM210.092 40.256L213.208 42.764L213.321 42.6242L213.42 42.4748L210.092 40.256ZM206.012 43.328L207.571 47.0119L207.6 46.9992L207.63 46.9861L206.012 43.328ZM193.532 42.512L191.326 45.8489L191.339 45.8574L191.352 45.8658L193.532 42.512ZM189.452 37.28L193.202 35.8873L193.172 35.8085L193.14 35.7311L189.452 37.28ZM189.164 26.336L192.931 27.6813L192.951 27.6253L192.969 27.5687L189.164 26.336ZM193.004 20.912L190.658 17.6722L190.644 17.6819L190.631 17.6918L193.004 20.912ZM207.26 21.68L204.48 24.556L204.492 24.5674L204.504 24.5788L207.26 21.68ZM195.644 27.584L191.856 26.2998L191.838 26.3535L191.821 26.4077L195.644 27.584ZM195.308 29.12L191.357 28.4962L191.308 28.8062V29.12H195.308ZM204.044 29.12L200.102 29.7996L200.174 30.2146L200.33 30.6056L204.044 29.12ZM203.804 27.776L199.973 28.9254L207.804 27.776H203.804ZM202.268 25.568L199.822 28.7331L199.901 28.7944L199.984 28.8516L202.268 25.568ZM206.861 29.7438C207.004 30.647 207.063 31.7351 207.008 33.0299L215 33.3701C215.073 31.6569 215.004 30.025 214.763 28.4962L206.861 29.7438ZM207.018 32.8678C207.055 32.427 207.248 31.4889 208.111 30.6928C208.975 29.8947 209.93 29.776 210.38 29.776V37.776C211.214 37.776 212.464 37.5613 213.537 36.5712C214.608 35.5831 214.921 34.357 214.99 33.5322L207.018 32.8678ZM210.38 29.776H195.548V37.776H210.38V29.776ZM195.548 29.776C195.222 29.776 193.477 29.7811 192.232 31.3372C190.807 33.1193 191.454 35.0304 191.642 35.5016L199.07 32.5304C199.194 32.8416 199.841 34.6327 198.479 36.3348C197.299 37.8109 195.682 37.776 195.548 37.776V29.776ZM191.4 34.6094C191.545 35.5743 191.807 36.5131 192.17 37.4216L199.598 34.4504C199.449 34.0789 199.359 33.7377 199.312 33.4226L191.4 34.6094ZM192.256 37.6204C193.948 41.2646 197.407 42.624 200.972 42.624V34.624C200.134 34.624 199.76 34.4744 199.648 34.4152C199.599 34.389 199.586 34.3737 199.584 34.3716C199.581 34.3685 199.553 34.3392 199.512 34.2516L192.256 37.6204ZM201.034 42.6235C204.318 42.5722 207.12 41.1472 209.058 38.4769L202.582 33.7791C202.152 34.3728 201.722 34.6118 200.909 34.6245L201.034 42.6235ZM209.148 38.3468C208.887 38.7383 207.96 39.84 206.252 39.84V31.84C204.224 31.84 203.009 33.1337 202.492 33.9092L209.148 38.3468ZM206.252 39.84C205.405 39.84 204.772 39.56 204.423 39.361C204.075 39.1616 203.854 38.9552 203.76 38.8604L209.416 33.2036C209.132 32.9189 208.026 31.84 206.252 31.84V39.84ZM203.779 38.8801L207.235 42.2881L212.853 36.5919L209.397 33.1839L203.779 38.8801ZM207.216 42.2684C207.123 42.1761 206.921 41.9591 206.727 41.6106C206.53 41.2547 206.284 40.6556 206.284 39.872H214.284C214.284 38.1153 213.252 36.9913 212.872 36.6116L207.216 42.2684ZM206.284 39.872C206.284 39.283 206.419 38.8427 206.477 38.6671C206.548 38.455 206.621 38.3011 206.658 38.2271C206.731 38.0812 206.784 38.0067 206.764 38.0372L213.42 42.4748C213.528 42.3133 213.677 42.0788 213.814 41.8049C213.861 41.7095 214.284 40.9233 214.284 39.872H206.284ZM206.976 37.748C206.352 38.5232 205.522 39.1709 204.394 39.6699L207.63 46.9861C209.83 46.0131 211.72 44.6128 213.208 42.764L206.976 37.748ZM204.453 39.6441C203.329 40.1199 202.041 40.384 200.54 40.384V48.384C203.007 48.384 205.367 47.9441 207.571 47.0119L204.453 39.6441ZM200.54 40.384C198.404 40.384 196.862 39.9059 195.712 39.1582L191.352 45.8658C194.042 47.6141 197.172 48.384 200.54 48.384V40.384ZM195.738 39.1751C194.598 38.4221 193.756 37.3791 193.202 35.8873L185.702 38.6727C186.812 41.6609 188.689 44.1059 191.326 45.8489L195.738 39.1751ZM193.14 35.7311C192.75 34.8016 192.444 33.2903 192.444 30.992H184.444C184.444 33.8777 184.81 36.5584 185.764 38.8289L193.14 35.7311ZM192.444 30.992C192.444 29.5875 192.636 28.5062 192.931 27.6813L185.397 24.9907C184.732 26.8538 184.444 28.8765 184.444 30.992H192.444ZM192.969 27.5687C193.462 26.047 194.264 24.9521 195.377 24.1322L190.631 17.6918C188.096 19.5599 186.338 22.081 185.359 25.1033L192.969 27.5687ZM195.35 24.1518C196.453 23.3529 197.803 22.896 199.58 22.896V14.896C196.301 14.896 193.267 15.7831 190.658 17.6722L195.35 24.1518ZM199.58 22.896C201.962 22.896 203.45 23.5601 204.48 24.556L210.04 18.804C207.23 16.0879 203.598 14.896 199.58 14.896V22.896ZM204.504 24.5788C205.69 25.7071 206.532 27.2971 206.847 29.6513L214.777 28.5887C214.26 24.7349 212.734 21.3649 210.016 18.7812L204.504 24.5788ZM199.628 20.752C197.989 20.752 196.29 21.1426 194.802 22.1998C193.311 23.2596 192.384 24.7401 191.856 26.2998L199.432 28.8682C199.49 28.6969 199.536 28.6304 199.538 28.6276C199.539 28.6265 199.53 28.6382 199.512 28.6575C199.492 28.677 199.467 28.699 199.437 28.7202C199.372 28.7669 199.325 28.7804 199.332 28.7786C199.345 28.7748 199.434 28.752 199.628 28.752V20.752ZM191.821 26.4077C191.62 27.0615 191.471 27.7711 191.357 28.4962L199.259 29.7438C199.337 29.2529 199.412 28.9385 199.467 28.7603L191.821 26.4077ZM191.308 29.12C191.308 29.8166 191.485 31.0737 192.54 32.1284C193.594 33.1831 194.851 33.36 195.548 33.36V25.36C196.085 25.36 197.222 25.4969 198.196 26.4716C199.171 27.4463 199.308 28.5834 199.308 29.12H191.308ZM195.548 33.36H203.852V25.36H195.548V33.36ZM203.852 33.36C204.178 33.36 205.923 33.3549 207.167 31.7988C208.593 30.0167 207.946 28.1056 207.758 27.6344L200.33 30.6056C200.206 30.2944 199.559 28.5033 200.92 26.8012C202.101 25.3251 203.718 25.36 203.852 25.36V33.36ZM207.986 28.4404C207.906 27.9749 207.844 27.6212 207.802 27.3848C207.781 27.2704 207.762 27.1664 207.747 27.0866C207.742 27.0592 207.727 26.9826 207.708 26.9C207.703 26.8759 207.693 26.832 207.679 26.7781C207.672 26.7517 207.635 26.6075 207.572 26.4303C207.553 26.378 207.456 26.0995 207.269 25.7758C207.197 25.6502 206.937 25.2033 206.447 24.7717C205.995 24.3737 204.397 23.2291 202.319 24.0604C200.693 24.7107 200.162 26.1066 200.083 26.3058C199.92 26.7194 199.865 27.0649 199.847 27.1929C199.804 27.4848 199.804 27.7163 199.804 27.776H207.804C207.804 27.8347 207.804 28.0654 207.761 28.3568C207.743 28.4846 207.688 28.8298 207.525 29.2433C207.446 29.4423 206.915 30.8382 205.289 31.4884C203.211 32.3196 201.614 31.1752 201.162 30.7772C200.671 30.3457 200.412 29.8989 200.34 29.7735C200.153 29.4502 200.056 29.1724 200.038 29.121C199.975 28.9455 199.939 28.804 199.933 28.7812C199.92 28.7309 199.911 28.6916 199.907 28.673C199.893 28.6124 199.886 28.5728 199.891 28.5974C199.896 28.6216 199.907 28.6816 199.926 28.7912C199.964 29.0028 200.022 29.3371 200.102 29.7996L207.986 28.4404ZM207.635 26.6266C207.12 24.9088 206.118 23.3735 204.552 22.2844L199.984 28.8516C199.976 28.8465 199.964 28.8366 199.95 28.8224C199.935 28.8082 199.925 28.7957 199.92 28.7883C199.915 28.7812 199.919 28.7849 199.928 28.8045C199.938 28.8245 199.954 28.8632 199.973 28.9254L207.635 26.6266ZM204.714 22.4029C203.185 21.2214 201.398 20.752 199.628 20.752V28.752C199.813 28.752 199.893 28.7757 199.899 28.7776C199.902 28.7786 199.893 28.776 199.875 28.7669C199.857 28.7577 199.839 28.746 199.822 28.7331L204.714 22.4029ZM229.671 10.592L226.843 7.76357L226.843 7.76359L229.671 10.592ZM236.103 10.592L232.903 12.992L233.246 13.4491L233.703 13.792L236.103 10.592ZM236.103 43.856L238.931 46.6844L238.931 46.6844L236.103 43.856ZM229.671 43.856L226.471 46.256L226.814 46.7131L227.271 47.056L229.671 43.856ZM229.431 41.696L227.642 45.2737L228.487 45.696H229.431V41.696ZM229.239 41.744L226.411 38.9156L226.222 39.1043L226.06 39.3163L229.239 41.744ZM217.911 42.512L215.451 45.666L215.466 45.6778L215.481 45.6894L217.911 42.512ZM214.455 37.376L218.261 36.1447L218.257 36.133L214.455 37.376ZM214.503 25.616L210.739 24.2632L210.727 24.2963L210.716 24.3297L214.503 25.616ZM217.959 20.768L220.369 23.9602L220.379 23.9526L217.959 20.768ZM229.239 21.344L232.567 19.1252L232.471 18.9808L232.363 18.8452L229.239 21.344ZM229.431 21.44L227.642 17.8623L227.642 17.8623L229.431 21.44ZM228.519 36.512L231.977 38.5225L232.008 38.4687L232.038 38.4141L228.519 36.512ZM228.423 26.624L231.885 24.6199L231.877 24.6059L231.869 24.5921L228.423 26.624ZM221.799 26.624L225.167 28.7827L225.186 28.7517L225.206 28.7204L221.799 26.624ZM221.607 36.512L218.065 38.3713L218.106 38.4478L218.149 38.5225L221.607 36.512ZM233.527 10.976C233.527 11.673 233.286 12.6335 232.499 13.4204L226.843 7.76359C225.864 8.74252 225.527 9.95898 225.527 10.976H233.527ZM232.499 13.4204C232.267 13.6526 231.938 13.9085 231.5 14.1032C231.052 14.3021 230.574 14.4 230.103 14.4V6.4C228.739 6.4 227.613 6.99282 226.843 7.76357L232.499 13.4204ZM230.103 14.4H235.719V6.4H230.103V14.4ZM235.719 14.4C235.252 14.4 234.7 14.3028 234.146 14.0257C233.592 13.7487 233.183 13.3655 232.903 12.992L239.303 8.19199C238.452 7.05678 237.138 6.4 235.719 6.4V14.4ZM233.703 13.792C233.33 13.5119 232.946 13.103 232.669 12.5489C232.392 11.9948 232.295 11.4429 232.295 10.976H240.295C240.295 9.55697 239.638 8.24342 238.503 7.392L233.703 13.792ZM232.295 10.976V43.424H240.295V10.976H232.295ZM232.295 43.424C232.295 42.9532 232.393 42.4749 232.592 42.0274C232.787 41.5893 233.042 41.2597 233.275 41.0276L238.931 46.6844C239.702 45.9137 240.295 44.7877 240.295 43.424H232.295ZM233.275 41.0276C234.062 40.2406 235.022 40 235.719 40V48C236.736 48 237.953 47.6634 238.931 46.6844L233.275 41.0276ZM235.719 40H230.103V48H235.719V40ZM230.103 40C230.809 40 231.507 40.2327 232.071 40.656L227.271 47.056C228.091 47.6713 229.078 48 230.103 48V40ZM232.871 41.456C233.294 42.0204 233.527 42.7185 233.527 43.424H225.527C225.527 44.4495 225.856 45.4356 226.471 46.256L232.871 41.456ZM233.527 43.424V41.84H225.527V43.424H233.527ZM233.527 41.84C233.527 41.4739 233.489 40.4998 232.831 39.5132C231.983 38.2404 230.628 37.696 229.431 37.696V45.696C228.945 45.696 228.325 45.603 227.684 45.2827C227.027 44.9542 226.523 44.4732 226.175 43.9508C225.549 43.0122 225.527 42.1101 225.527 41.84H233.527ZM231.22 38.1183C230.412 37.7142 229.404 37.5436 228.365 37.8034C227.415 38.0409 226.772 38.5541 226.411 38.9156L232.067 44.5724C231.77 44.8699 231.191 45.3431 230.305 45.5646C229.33 45.8084 228.386 45.6458 227.642 45.2737L231.22 38.1183ZM226.06 39.3163C225.52 40.0238 224.888 40.384 223.719 40.384V48.384C227.222 48.384 230.27 46.9842 232.418 44.1717L226.06 39.3163ZM223.719 40.384C222.273 40.384 221.211 40.0001 220.341 39.3346L215.481 45.6894C217.875 47.5199 220.685 48.384 223.719 48.384V40.384ZM220.371 39.358C219.48 38.663 218.751 37.6599 218.261 36.1447L210.649 38.6073C211.567 41.4441 213.142 43.865 215.451 45.666L220.371 39.358ZM218.257 36.133C217.873 34.9593 217.639 33.4589 217.639 31.568H209.639C209.639 34.0931 209.949 36.4647 210.653 38.619L218.257 36.133ZM217.639 31.568C217.639 29.6216 217.887 28.0899 218.291 26.9023L210.716 24.3297C209.967 26.5341 209.639 28.9704 209.639 31.568H217.639ZM218.267 26.9688C218.77 25.5708 219.488 24.626 220.369 23.9602L215.549 17.5758C213.294 19.278 211.708 21.5652 210.739 24.2632L218.267 26.9688ZM220.379 23.9526C221.174 23.3485 222.254 22.944 223.863 22.944V14.944C220.801 14.944 217.944 15.7555 215.539 17.5833L220.379 23.9526ZM223.863 22.944C225.123 22.944 225.696 23.3179 226.116 23.8428L232.363 18.8452C230.222 16.1701 227.211 14.944 223.863 14.944V22.944ZM225.911 23.5628C226.117 23.8713 226.621 24.555 227.546 25.0177C228.704 25.5968 230.062 25.5968 231.22 25.0177L227.642 17.8623C228.115 17.6257 228.708 17.452 229.383 17.452C230.058 17.452 230.651 17.6257 231.124 17.8623C231.985 18.293 232.426 18.9127 232.567 19.1252L225.911 23.5628ZM231.22 25.0177C233.106 24.0747 233.527 22.255 233.527 21.248H225.527C225.527 20.8774 225.585 20.259 225.925 19.5791C226.296 18.837 226.9 18.2333 227.642 17.8623L231.22 25.0177ZM233.527 21.248V10.976H225.527V21.248H233.527ZM232.038 38.4141C233.116 36.419 233.479 34.0589 233.479 31.664H225.479C225.479 33.3651 225.202 34.237 225 34.6099L232.038 38.4141ZM233.479 31.664C233.479 29.1566 233.08 26.684 231.885 24.6199L224.961 28.6281C225.174 28.996 225.479 29.8834 225.479 31.664H233.479ZM231.869 24.5921C230.439 22.168 228.081 20.752 225.207 20.752V28.752C225.263 28.752 225.263 28.758 225.224 28.7481C225.182 28.7375 225.121 28.7153 225.055 28.677C224.989 28.6389 224.948 28.6016 224.931 28.5838C224.916 28.5682 224.935 28.5842 224.978 28.6559L231.869 24.5921ZM225.207 20.752C222.359 20.752 219.912 22.059 218.392 24.5276L225.206 28.7204C225.225 28.6885 225.24 28.6693 225.247 28.6601C225.254 28.651 225.255 28.651 225.248 28.6573C225.242 28.6637 225.23 28.6746 225.212 28.6877C225.195 28.7008 225.175 28.7139 225.153 28.7259C225.131 28.7379 225.111 28.7468 225.095 28.753C225.079 28.7592 225.069 28.7615 225.068 28.7617C225.066 28.7622 225.108 28.752 225.207 28.752V20.752ZM218.432 24.4653C217.073 26.5846 216.599 29.1265 216.599 31.712H224.599C224.599 30.0095 224.925 29.1594 225.167 28.7827L218.432 24.4653ZM216.599 31.712C216.599 34.0756 217.01 36.3608 218.065 38.3713L225.149 34.6527C224.86 34.1032 224.599 33.1884 224.599 31.712H216.599ZM218.149 38.5225C219.652 41.1072 222.14 42.576 225.159 42.576V34.576C225.06 34.576 225.021 34.5653 225.025 34.5664C225.027 34.5669 225.037 34.5695 225.053 34.5759C225.068 34.5822 225.086 34.5908 225.105 34.6015C225.123 34.6122 225.138 34.6228 225.15 34.6317C225.161 34.6405 225.165 34.6452 225.163 34.643C225.159 34.639 225.122 34.6 225.065 34.5015L218.149 38.5225ZM225.159 42.576C228.196 42.576 230.552 40.9733 231.977 38.5225L225.061 34.5015C224.992 34.6211 224.944 34.676 224.93 34.6906C224.919 34.703 224.936 34.682 224.985 34.6517C225.009 34.6373 225.035 34.6233 225.064 34.6111C225.092 34.5988 225.119 34.59 225.141 34.5841C225.187 34.5716 225.199 34.576 225.159 34.576V42.576Z" fill="black" mask="url(#path-1-outside-1_5_25)" style="fill: rgb(0, 0, 0) !important;"/></g><defs style="fill: none !important;"><clipPath id="clip0_5_25" style="fill: none !important;"><rect height="56" width="242" fill="#000000" style="fill: #000000 !important;"/></clipPath></defs></svg>