<?xml version="1.0" encoding="UTF-8" standalone="no"?>
<!DOCTYPE svg PUBLIC "-//W3C//DTD SVG 1.1//EN" "http://www.w3.org/Graphics/SVG/1.1/DTD/svg11.dtd">
<svg xmlns="http://www.w3.org/2000/svg" version="1.1" viewBox="0.00 0.00 180.00 180.00">
<g stroke-width="2.00" fill="none" stroke-linecap="butt">
<path stroke="#131b40" vector-effect="non-scaling-stroke" d="
  M 180.00 66.65
  Q 159.26 66.20 138.54 67.27"
/>
<path stroke="#7a7f98" vector-effect="non-scaling-stroke" d="
  M 138.54 67.27
  L 136.87 62.50"
/>
<path stroke="#858ba4" vector-effect="non-scaling-stroke" d="
  M 136.87 62.50
  C 131.10 49.21 116.95 42.29 102.96 45.43
  C 100.88 45.89 98.82 46.87 96.74 47.52
  A 1.01 0.98 55.5 0 1 95.79 47.33
  Q 83.85 37.07 68.37 40.95
  C 56.51 43.92 47.38 55.30 46.86 67.52
  A 0.95 0.93 -13.9 0 1 46.38 68.30
  Q 38.84 72.62 34.61 80.51"
/>
<path stroke="#131b40" vector-effect="non-scaling-stroke" d="
  M 34.61 80.51
  Q 17.27 78.11 0.00 78.81"
/>
<path stroke="#e7e9ee" vector-effect="non-scaling-stroke" d="
  M 136.87 62.50
  L 128.56 63.55"
/>
<path stroke="#83889c" vector-effect="non-scaling-stroke" d="
  M 128.56 63.55
  Q 123.95 55.86 116.14 53.58
  Q 105.11 50.36 95.51 57.89
  A 0.69 0.69 0.0 0 1 94.55 57.79
  C 92.84 55.71 90.66 53.29 88.87 52.00
  C 82.81 47.62 74.74 46.54 67.85 49.66
  Q 54.26 55.81 54.79 71.94
  A 1.44 1.43 75.8 0 1 54.00 73.27
  Q 41.65 79.45 39.41 90.94"
/>
<path stroke="#d7d9dd" vector-effect="non-scaling-stroke" d="
  M 39.41 90.94
  Q 35.37 90.76 31.71 88.97"
/>
<path stroke="#808596" vector-effect="non-scaling-stroke" d="
  M 31.71 88.97
  Q 32.50 84.48 34.61 80.51"
/>
<path stroke="#777c91" vector-effect="non-scaling-stroke" d="
  M 128.56 63.55
  Q 131.72 69.65 131.20 76.73
  A 1.03 1.03 0.0 0 0 131.57 77.60
  Q 138.65 83.40 140.58 92.24"
/>
<path stroke="#111739" vector-effect="non-scaling-stroke" d="
  M 140.58 92.24
  Q 123.81 93.05 107.70 96.82"
/>
<path stroke="#676c80" vector-effect="non-scaling-stroke" d="
  M 107.70 96.82
  Q 107.27 94.57 105.50 95.15
  Q 97.98 97.65 90.20 95.06"
/>
<path stroke="#111739" vector-effect="non-scaling-stroke" d="
  M 90.20 95.06
  L 74.94 92.47"
/>
<path stroke="#777c91" vector-effect="non-scaling-stroke" d="
  M 74.94 92.47
  L 86.96 88.38
  A 1.56 1.55 89.7 0 0 87.95 87.37
  Q 88.55 85.40 87.94 83.30
  A 1.55 1.54 -89.3 0 0 86.93 82.26
  L 73.33 77.89
  A 1.48 1.48 0.0 0 0 71.40 79.33
  L 71.52 81.42
  A 2.08 2.08 0.0 0 0 72.95 83.28
  L 79.42 85.36
  A 0.14 0.14 0.0 0 1 79.42 85.63
  L 72.68 87.36
  A 1.03 1.01 -86.3 0 0 71.99 87.98
  Q 70.51 91.83 72.74 93.04"
/>
<path stroke="#111739" vector-effect="non-scaling-stroke" d="
  M 72.74 93.04
  L 39.45 91.53"
/>
<path stroke="#676c80" vector-effect="non-scaling-stroke" d="
  M 39.45 91.53
  Q 39.70 91.71 39.41 90.94"
/>
<path stroke="#75798a" vector-effect="non-scaling-stroke" d="
  M 138.54 67.27
  L 139.67 73.56
  A 2.76 2.75 -71.4 0 0 140.35 74.94
  C 146.08 81.23 149.09 88.96 148.82 97.53"
/>
<path stroke="#cbcdd2" vector-effect="non-scaling-stroke" d="
  M 148.82 97.53
  L 140.91 96.97"
/>
<path stroke="#75798a" vector-effect="non-scaling-stroke" d="
  M 140.91 96.97
  L 140.58 92.24"
/>
<path stroke="#0c102a" vector-effect="non-scaling-stroke" d="
  M 180.00 120.56
  Q 158.64 121.71 137.18 119.97"
/>
<path stroke="#65697a" vector-effect="non-scaling-stroke" d="
  M 137.18 119.97
  Q 147.76 111.28 148.82 97.53"
/>
<path stroke="#65697a" vector-effect="non-scaling-stroke" d="
  M 31.71 88.97
  C 28.98 103.90 36.95 117.74 50.98 123.23"
/>
<path stroke="#0c102a" vector-effect="non-scaling-stroke" d="
  M 50.98 123.23
  Q 25.49 121.65 0.00 122.12"
/>
<path stroke="#75798a" vector-effect="non-scaling-stroke" d="
  M 74.94 92.47
  L 72.74 93.04"
/>
<path stroke="#65697a" vector-effect="non-scaling-stroke" d="
  M 39.45 91.53
  Q 38.12 101.38 43.89 108.38
  Q 53.11 119.59 67.99 116.40
  A 0.82 0.82 0.0 0 1 68.92 116.89
  C 73.53 128.19 84.54 134.54 96.54 131.76
  Q 107.04 129.33 112.52 118.41
  A 0.94 0.94 0.0 0 1 113.53 117.91
  C 127.51 120.56 139.60 111.22 140.91 96.97"
/>
<path stroke="#626572" vector-effect="non-scaling-stroke" d="
  M 137.18 119.97
  Q 128.67 126.38 117.87 126.36
  A 1.05 1.03 17.9 0 0 117.03 126.78
  Q 109.64 136.99 98.47 139.48
  Q 79.92 143.62 66.51 128.64
  C 65.50 127.52 65.20 126.43 64.24 125.47
  A 1.27 1.26 66.4 0 0 63.30 125.10
  Q 56.91 125.28 50.98 123.23"
/>
<path stroke="#65697a" vector-effect="non-scaling-stroke" d="
  M 90.20 95.06
  Q 88.72 97.25 89.35 99.28
  A 1.27 1.25 -86.9 0 0 90.03 100.05
  Q 98.53 103.85 107.00 100.02
  A 1.26 1.25 87.9 0 0 107.69 99.27
  Q 108.10 98.06 107.70 96.82"
/>
</g>
<path fill="#18214e" d="
  M 142.44 0.00
  Q 150.11 1.07 154.47 3.01
  Q 177.22 13.17 180.00 38.24
  L 180.00 66.65
  Q 159.26 66.20 138.54 67.27
  L 136.87 62.50
  C 131.10 49.21 116.95 42.29 102.96 45.43
  C 100.88 45.89 98.82 46.87 96.74 47.52
  A 1.01 0.98 55.5 0 1 95.79 47.33
  Q 83.85 37.07 68.37 40.95
  C 56.51 43.92 47.38 55.30 46.86 67.52
  A 0.95 0.93 -13.9 0 1 46.38 68.30
  Q 38.84 72.62 34.61 80.51
  Q 17.27 78.11 0.00 78.81
  L 0.00 37.74
  Q 5.01 4.99 37.75 0.00
  L 142.44 0.00
  Z"
/>
<path fill="#f2f5f9" d="
  M 136.87 62.50
  L 128.56 63.55
  Q 123.95 55.86 116.14 53.58
  Q 105.11 50.36 95.51 57.89
  A 0.69 0.69 0.0 0 1 94.55 57.79
  C 92.84 55.71 90.66 53.29 88.87 52.00
  C 82.81 47.62 74.74 46.54 67.85 49.66
  Q 54.26 55.81 54.79 71.94
  A 1.44 1.43 75.8 0 1 54.00 73.27
  Q 41.65 79.45 39.41 90.94
  Q 35.37 90.76 31.71 88.97
  Q 32.50 84.48 34.61 80.51
  Q 38.84 72.62 46.38 68.30
  A 0.95 0.93 -13.9 0 0 46.86 67.52
  C 47.38 55.30 56.51 43.92 68.37 40.95
  Q 83.85 37.07 95.79 47.33
  A 1.01 0.98 55.5 0 0 96.74 47.52
  C 98.82 46.87 100.88 45.89 102.96 45.43
  C 116.95 42.29 131.10 49.21 136.87 62.50
  Z"
/>
<path fill="#131a3f" d="
  M 128.56 63.55
  Q 131.72 69.65 131.20 76.73
  A 1.03 1.03 0.0 0 0 131.57 77.60
  Q 138.65 83.40 140.58 92.24
  Q 123.81 93.05 107.70 96.82
  Q 107.27 94.57 105.50 95.15
  Q 97.98 97.65 90.20 95.06
  L 74.94 92.47
  L 86.96 88.38
  A 1.56 1.55 89.7 0 0 87.95 87.37
  Q 88.55 85.40 87.94 83.30
  A 1.55 1.54 -89.3 0 0 86.93 82.26
  L 73.33 77.89
  A 1.48 1.48 0.0 0 0 71.40 79.33
  L 71.52 81.42
  A 2.08 2.08 0.0 0 0 72.95 83.28
  L 79.42 85.36
  A 0.14 0.14 0.0 0 1 79.42 85.63
  L 72.68 87.36
  A 1.03 1.01 -86.3 0 0 71.99 87.98
  Q 70.51 91.83 72.74 93.04
  L 39.45 91.53
  Q 39.70 91.71 39.41 90.94
  Q 41.65 79.45 54.00 73.27
  A 1.44 1.43 75.8 0 0 54.79 71.94
  Q 54.26 55.81 67.85 49.66
  C 74.74 46.54 82.81 47.62 88.87 52.00
  C 90.66 53.29 92.84 55.71 94.55 57.79
  A 0.69 0.69 0.0 0 0 95.51 57.89
  Q 105.11 50.36 116.14 53.58
  Q 123.95 55.86 128.56 63.55
  Z"
/>
<path fill="#dbdde2" d="
  M 138.54 67.27
  L 139.67 73.56
  A 2.76 2.75 -71.4 0 0 140.35 74.94
  C 146.08 81.23 149.09 88.96 148.82 97.53
  L 140.91 96.97
  L 140.58 92.24
  Q 138.65 83.40 131.57 77.60
  A 1.03 1.03 0.0 0 1 131.20 76.73
  Q 131.72 69.65 128.56 63.55
  L 136.87 62.50
  L 138.54 67.27
  Z"
/>
<path fill="#0e1432" d="
  M 180.00 66.65
  L 180.00 120.56
  Q 158.64 121.71 137.18 119.97
  Q 147.76 111.28 148.82 97.53
  C 149.09 88.96 146.08 81.23 140.35 74.94
  A 2.76 2.75 -71.4 0 1 139.67 73.56
  L 138.54 67.27
  Q 159.26 66.20 180.00 66.65
  Z"
/>
<path fill="#0e1432" d="
  M 34.61 80.51
  Q 32.50 84.48 31.71 88.97
  C 28.98 103.90 36.95 117.74 50.98 123.23
  Q 25.49 121.65 0.00 122.12
  L 0.00 78.81
  Q 17.27 78.11 34.61 80.51
  Z"
/>
<path fill="#dbdde2" d="
  M 74.94 92.47
  L 72.74 93.04
  Q 70.51 91.83 71.99 87.98
  A 1.03 1.01 -86.3 0 1 72.68 87.36
  L 79.42 85.63
  A 0.14 0.14 0.0 0 0 79.42 85.36
  L 72.95 83.28
  A 2.08 2.08 0.0 0 1 71.52 81.42
  L 71.40 79.33
  A 1.48 1.48 0.0 0 1 73.33 77.89
  L 86.93 82.26
  A 1.55 1.54 -89.3 0 1 87.94 83.30
  Q 88.55 85.40 87.95 87.37
  A 1.56 1.55 89.7 0 1 86.96 88.38
  L 74.94 92.47
  Z"
/>
<path fill="#bbbdc1" d="
  M 31.71 88.97
  Q 35.37 90.76 39.41 90.94
  Q 39.70 91.71 39.45 91.53
  Q 38.12 101.38 43.89 108.38
  Q 53.11 119.59 67.99 116.40
  A 0.82 0.82 0.0 0 1 68.92 116.89
  C 73.53 128.19 84.54 134.54 96.54 131.76
  Q 107.04 129.33 112.52 118.41
  A 0.94 0.94 0.0 0 1 113.53 117.91
  C 127.51 120.56 139.60 111.22 140.91 96.97
  L 148.82 97.53
  Q 147.76 111.28 137.18 119.97
  Q 128.67 126.38 117.87 126.36
  A 1.05 1.03 17.9 0 0 117.03 126.78
  Q 109.64 136.99 98.47 139.48
  Q 79.92 143.62 66.51 128.64
  C 65.50 127.52 65.20 126.43 64.24 125.47
  A 1.27 1.26 66.4 0 0 63.30 125.10
  Q 56.91 125.28 50.98 123.23
  C 36.95 117.74 28.98 103.90 31.71 88.97
  Z"
/>
<path fill="#0e1432" d="
  M 140.58 92.24
  L 140.91 96.97
  C 139.60 111.22 127.51 120.56 113.53 117.91
  A 0.94 0.94 0.0 0 0 112.52 118.41
  Q 107.04 129.33 96.54 131.76
  C 84.54 134.54 73.53 128.19 68.92 116.89
  A 0.82 0.82 0.0 0 0 67.99 116.40
  Q 53.11 119.59 43.89 108.38
  Q 38.12 101.38 39.45 91.53
  L 72.74 93.04
  L 74.94 92.47
  L 90.20 95.06
  Q 88.72 97.25 89.35 99.28
  A 1.27 1.25 -86.9 0 0 90.03 100.05
  Q 98.53 103.85 107.00 100.02
  A 1.26 1.25 87.9 0 0 107.69 99.27
  Q 108.10 98.06 107.70 96.82
  Q 123.81 93.05 140.58 92.24
  Z"
/>
<path fill="#bbbdc1" d="
  M 107.70 96.82
  Q 108.10 98.06 107.69 99.27
  A 1.26 1.25 87.9 0 1 107.00 100.02
  Q 98.53 103.85 90.03 100.05
  A 1.27 1.25 -86.9 0 1 89.35 99.28
  Q 88.72 97.25 90.20 95.06
  Q 97.98 97.65 105.50 95.15
  Q 107.27 94.57 107.70 96.82
  Z"
/>
<path fill="#090c22" d="
  M 137.18 119.97
  Q 158.64 121.71 180.00 120.56
  L 180.00 141.37
  Q 178.56 158.44 166.61 169.36
  Q 156.30 178.77 141.45 180.00
  L 38.76 180.00
  Q 37.85 179.62 36.98 180.00
  Q 36.96 179.97 36.93 180.00
  Q 21.07 177.74 10.17 166.15
  A 3.44 3.18 -84.0 0 1 9.67 165.48
  Q 8.99 164.30 8.04 163.22
  Q 7.11 162.19 6.15 160.60
  Q 0.79 151.77 0.00 141.35
  L 0.00 122.12
  Q 25.49 121.65 50.98 123.23
  Q 56.91 125.28 63.30 125.10
  A 1.27 1.26 66.4 0 1 64.24 125.47
  C 65.20 126.43 65.50 127.52 66.51 128.64
  Q 79.92 143.62 98.47 139.48
  Q 109.64 136.99 117.03 126.78
  A 1.05 1.03 17.9 0 1 117.87 126.36
  Q 128.67 126.38 137.18 119.97
  Z"
/>
</svg>
