<svg width="128" height="128" viewBox="0 0 128 128" fill="none" xmlns="http://www.w3.org/2000/svg">
<path d="M64.0006 40.853C74.4534 40.853 82.927 32.3793 82.927 21.9265C82.927 11.4737 74.4534 3 64.0006 3C53.5479 3 45.0742 11.4737 45.0742 21.9265C45.0742 32.3793 53.5479 40.853 64.0006 40.853Z" fill="#212B46"/>
<path d="M109.07 46.9256H18.9295C8.56336 46.9256 0 55.0423 0 64.8679C0 74.6935 8.56336 82.81 18.9295 82.81H45.0703V107.587C45.0703 117.413 53.6335 125.53 63.9998 125.53C74.366 125.53 82.9293 117.413 82.9293 107.587V82.81H109.07C119.436 82.81 128 74.6935 128 64.8679C128 55.0423 119.436 46.9256 109.07 46.9256Z" fill="url(#paint0_linear_364_238)"/>
<defs>
<linearGradient id="paint0_linear_364_238" x1="63.9998" y1="46.9256" x2="63.9998" y2="125.53" gradientUnits="userSpaceOnUse">
<stop stop-color="#66E09F"/>
<stop offset="0.21" stop-color="#68CD93"/>
<stop offset="0.68" stop-color="#6BAD7F"/>
</linearGradient>
</defs>
</svg>
