<svg width="136" height="34" viewBox="0 0 136 34" fill="none" xmlns="http://www.w3.org/2000/svg">
<path d="M16.405 13.1537C16.405 10.5187 17.425 8.05375 19.295 6.205C21.165 4.335 23.63 3.315 26.2438 3.315H38.5263L38.4625 3.80375C38.165 6.14125 36.9963 8.30875 35.2113 9.9025C33.405 11.4962 31.0888 12.3675 28.6875 12.3675H26.2225C24.4163 12.3675 22.695 12.7712 21.08 13.5787C19.55 14.3437 18.19 15.47 17.1488 16.8512L16.3838 17.85V13.1537H16.405Z" fill="#F8BFD9"/>
<path d="M16.405 30.685V23.8C16.405 21.165 17.425 18.7 19.295 16.8513C20.825 15.3213 22.8437 14.3225 24.9687 14.0463L25.4575 13.9825V30.7063H16.405V30.685Z" fill="#F62888"/>
<path d="M13.1537 12.3462C10.7525 12.3462 8.43624 11.475 6.62999 9.88125C4.84499 8.2875 3.69749 6.14125 3.39999 3.7825L3.33624 3.315H15.6187C16.6387 3.315 17.6587 3.46375 18.615 3.7825L19.3375 4.01625L18.7637 4.505C18.53 4.69625 18.3387 4.8875 18.1687 5.0575C16.2987 6.90625 15.13 9.37125 14.875 11.9637L14.8325 12.3462H13.1537Z" fill="#F62888"/>
<path d="M40.2262 1.63625C40.0137 1.42375 39.695 1.275 39.355 1.275H26.2437C24.3312 1.275 22.525 1.7425 20.91 2.55C19.3162 1.7425 17.51 1.275 15.5762 1.275H2.50749C2.16749 1.275 1.86999 1.4025 1.63624 1.63625C1.40249 1.84875 1.27499 2.1675 1.27499 2.5075C1.27499 5.78 2.61374 8.755 4.75999 10.9012C6.90624 13.0475 9.88124 14.3862 13.1537 14.3862H14.3862V31.5137C14.3862 31.8537 14.5137 32.1512 14.7475 32.385C14.96 32.5975 15.2787 32.7463 15.6187 32.7463H26.265C26.605 32.7463 26.9025 32.6187 27.1362 32.385C27.3487 32.1725 27.4975 31.8537 27.4975 31.5137V14.3862H28.73C32.0025 14.3862 34.9775 13.0475 37.1237 10.9012C39.2487 8.755 40.5875 5.78 40.5875 2.5075C40.5875 2.1675 40.46 1.84875 40.2262 1.63625ZM34.9562 9.5625C33.2987 11.0287 31.11 11.9212 28.73 11.9212H26.265C24.3525 11.9212 22.5462 12.3675 20.9312 13.1962C19.3375 14.0037 17.935 15.1725 16.8512 16.575V13.1537C16.8512 10.5612 17.9137 8.2025 19.6137 6.5025C21.3137 4.8025 23.6725 3.74 26.265 3.74H38.0587C37.74 6.035 36.6137 8.09625 34.9562 9.5625ZM25.0325 30.26H16.83V23.8C16.83 21.2075 17.8925 18.8487 19.5925 17.1487C21.0162 15.725 22.9075 14.7475 25.0112 14.4712V30.26H25.0325ZM3.80374 3.74H15.5975C16.5962 3.74 17.5737 3.88875 18.4662 4.18625C18.2537 4.3775 18.0412 4.56875 17.85 4.76C15.98 6.63 14.7262 9.1375 14.45 11.9212H13.1537C10.7737 11.9212 8.58499 11.0287 6.92749 9.5625C5.24874 8.09625 4.12249 6.035 3.80374 3.74Z" fill="#171627"/>
<path d="M64.1877 6.05625H48.1652C47.9952 6.05625 47.8677 6.12 47.7614 6.22625C47.6552 6.3325 47.5914 6.48125 47.5914 6.63V9.9025C47.5914 10.0725 47.6552 10.2 47.7614 10.3062C47.8677 10.4125 48.0164 10.4762 48.1652 10.4762H53.1164C53.2864 10.4762 53.4139 10.54 53.5202 10.6462C53.6264 10.7525 53.6902 10.9012 53.6902 11.05V27.3275C53.6902 27.4975 53.7539 27.625 53.8602 27.7313C53.9664 27.8375 54.1152 27.9013 54.2639 27.9013H58.0464C58.2164 27.9013 58.3439 27.8375 58.4502 27.7313C58.5564 27.625 58.6202 27.4762 58.6202 27.3275V11.0712C58.6202 10.9012 58.6839 10.7737 58.7902 10.6675C58.8964 10.5612 59.0452 10.4975 59.1939 10.4975H64.1452C64.3152 10.4975 64.4427 10.4337 64.5489 10.3275C64.6552 10.2212 64.7189 10.0725 64.7189 9.92375V6.63C64.7189 6.46 64.6552 6.3325 64.5489 6.22625C64.4427 6.12 64.3577 6.05625 64.1877 6.05625Z" fill="#171627"/>
<path d="M70.6902 16.0012C71.4127 16.0012 72.0714 16.2775 72.5389 16.745C73.0064 17.2125 73.3252 17.85 73.3464 18.5937H67.6089C67.7152 17.7012 68.1402 17.0637 68.7139 16.6387C69.2877 16.2137 70.0314 16.0012 70.6902 16.0012ZM71.1152 12.4737C69.9677 12.4737 68.8839 12.665 67.8852 13.0262C66.8864 13.3875 65.9939 13.94 65.2502 14.62C64.4639 15.3425 63.8477 16.2137 63.4439 17.1912C63.0402 18.1687 62.8277 19.2312 62.8277 20.4C62.8277 21.5475 63.0402 22.6312 63.4439 23.5875C63.8477 24.565 64.4639 25.415 65.2502 26.1375C66.0152 26.8387 66.9077 27.37 67.9064 27.7312C68.9052 28.0925 69.9889 28.2837 71.1152 28.2837C72.2202 28.2837 73.3252 28.05 74.3452 27.625C75.3439 27.2 76.2577 26.5837 76.9802 25.7975C77.1077 25.67 77.1502 25.5 77.1289 25.3512C77.1077 25.2025 77.0439 25.0325 76.8952 24.9475L75.6839 24.055L74.4727 23.1625C74.3452 23.0775 74.1964 23.035 74.0689 23.0562C73.9414 23.0775 73.7927 23.1412 73.6864 23.2475C73.3039 23.715 72.8789 24.0337 72.4114 24.2675C71.9439 24.48 71.4339 24.5862 70.8814 24.5862C70.0527 24.5862 69.3514 24.3312 68.7777 23.885C68.2039 23.4387 67.8002 22.7587 67.6089 21.9512H77.5539C77.7239 21.9512 77.8514 21.8875 77.9577 21.7812C78.0639 21.675 78.1277 21.5262 78.1277 21.3775V20.8887V20.4C78.1277 19.21 77.9577 18.1262 77.6389 17.1487C77.3202 16.1712 76.8527 15.3212 76.2364 14.62C75.6202 13.9187 74.8552 13.3662 74.0052 13.005C73.1339 12.665 72.1777 12.4737 71.1152 12.4737Z" fill="#171627"/>
<path d="M91.1539 24.6713C91.1539 24.48 91.0689 24.31 90.9202 24.2038C90.7927 24.0975 90.6014 24.055 90.4314 24.0975C90.2827 24.14 90.1339 24.1613 89.9427 24.1825C89.7727 24.2038 89.5814 24.225 89.3902 24.225C88.4552 24.2038 87.9452 23.9275 87.6689 23.4813C87.3927 23.0138 87.3502 22.3763 87.3502 21.59V17.3188C87.3502 17.1488 87.4139 17.0213 87.5202 16.915C87.6264 16.8088 87.7752 16.745 87.9239 16.745H90.7502C90.9202 16.745 91.0477 16.6813 91.1539 16.575C91.2602 16.4688 91.3239 16.32 91.3239 16.1713V13.43C91.3239 13.26 91.2602 13.1325 91.1539 13.0263C91.0477 12.92 90.8989 12.8563 90.7502 12.8563H87.9239C87.7539 12.8563 87.6264 12.7925 87.5202 12.6863C87.4139 12.58 87.3502 12.4313 87.3502 12.2825V10.6675V9.0525C87.3502 8.8825 87.2864 8.755 87.1802 8.64875C87.0739 8.5425 86.9252 8.47875 86.7764 8.47875H83.1639C82.9939 8.47875 82.8664 8.5425 82.7602 8.64875C82.6539 8.755 82.5902 8.90375 82.5902 9.0525V10.6675V12.2825C82.5902 12.4525 82.5264 12.58 82.4202 12.6863C82.3139 12.7925 82.1652 12.8563 82.0164 12.8563H80.2739C80.1039 12.8563 79.9764 12.92 79.8702 13.0263C79.7639 13.1325 79.7002 13.2813 79.7002 13.43V16.15C79.7002 16.32 79.7639 16.4475 79.8702 16.5538C79.9764 16.66 80.1252 16.7238 80.2739 16.7238H82.0164C82.1864 16.7238 82.3139 16.7875 82.4202 16.8938C82.5264 17 82.5902 17.1488 82.5902 17.2975V23.6938C82.5902 25.1813 83.1002 26.3288 84.0564 27.115C85.0127 27.9013 86.3939 28.305 88.1577 28.305C88.7102 28.305 89.2202 28.2625 89.6664 28.1988C90.1127 28.135 90.4739 28.05 90.7289 27.9863C90.8564 27.965 90.9627 27.88 91.0477 27.7738C91.1327 27.6675 91.1752 27.54 91.1752 27.4125L91.1539 24.6713Z" fill="#171627"/>
<path d="M119.395 16.2987C119.395 16.4687 119.31 16.6387 119.183 16.745C119.055 16.8512 118.885 16.8937 118.715 16.8725C118.503 16.83 118.29 16.7875 118.078 16.7662C117.865 16.745 117.674 16.7237 117.483 16.7237C116.696 16.7237 116.059 16.83 115.528 17.0425C115.018 17.255 114.635 17.595 114.338 18.0412C114.061 18.4875 113.913 19.04 113.828 19.6562C113.743 20.2725 113.721 20.9312 113.721 21.59V27.3275C113.721 27.4975 113.658 27.625 113.551 27.7312C113.445 27.8375 113.296 27.9012 113.148 27.9012H109.535C109.365 27.9012 109.238 27.8375 109.131 27.7312C109.025 27.625 108.961 27.4762 108.961 27.3275V13.43C108.961 13.26 109.025 13.1325 109.131 13.0262C109.238 12.92 109.386 12.8562 109.535 12.8562H113.148C113.318 12.8562 113.445 12.92 113.551 13.0262C113.658 13.1325 113.721 13.2812 113.721 13.43V14.2162V15.0025C114.231 14.1312 114.805 13.4937 115.485 13.09C116.165 12.665 116.951 12.4737 117.886 12.4737C118.078 12.4737 118.269 12.4737 118.439 12.495C118.609 12.5162 118.779 12.5162 118.906 12.5375C119.055 12.5587 119.183 12.6225 119.268 12.7287C119.353 12.835 119.416 12.9625 119.416 13.1112L119.395 16.2987Z" fill="#171627"/>
<path d="M126.981 24.6287C126.238 24.6287 125.728 24.4162 125.409 24.1187C125.09 23.8212 124.963 23.4387 124.963 23.1412C124.963 22.4612 125.324 21.9512 126.068 21.6112C126.79 21.2712 127.895 21.1012 129.34 21.1012H130.339V21.9512C130.339 22.61 130.084 23.29 129.531 23.7787C128.979 24.2675 128.129 24.6287 126.981 24.6287ZM123.518 17.1487C123.624 17.255 123.773 17.3187 123.921 17.3187C124.07 17.3187 124.219 17.2762 124.325 17.17C124.793 16.7237 125.281 16.3837 125.813 16.1712C126.344 15.9587 126.918 15.8312 127.534 15.8312C128.32 15.8312 129 16.0862 129.489 16.5112C129.978 16.9362 130.275 17.5525 130.318 18.2537C128.554 18.2537 126.068 18.275 124.006 18.955C121.966 19.635 120.351 20.9737 120.351 23.6087C120.351 24.3312 120.5 24.99 120.776 25.585C121.053 26.18 121.456 26.69 121.988 27.115C122.476 27.4975 123.029 27.795 123.666 27.9862C124.304 28.1775 124.984 28.2837 125.706 28.2837C126.726 28.2837 127.64 28.0925 128.405 27.7525C129.191 27.4125 129.829 26.8812 130.296 26.2225V26.775V27.3275C130.296 27.4975 130.36 27.625 130.466 27.7312C130.573 27.8375 130.721 27.9012 130.87 27.9012H134.121C134.291 27.9012 134.419 27.8375 134.525 27.7312C134.631 27.625 134.695 27.4762 134.695 27.3275V20.2937C134.695 18.9337 134.589 17.7862 134.355 16.83C134.121 15.8737 133.781 15.1087 133.293 14.5137C132.761 13.8337 132.039 13.3237 131.146 12.9837C130.254 12.6437 129.149 12.4737 127.853 12.4737C126.684 12.4737 125.558 12.665 124.516 13.005C123.475 13.345 122.54 13.855 121.754 14.4925C121.626 14.5987 121.563 14.7475 121.541 14.8962C121.541 15.045 121.584 15.215 121.711 15.3212L123.518 17.1487Z" fill="#171627"/>
<path d="M105.136 24.6713C105.136 24.48 105.051 24.31 104.903 24.2038C104.775 24.0975 104.584 24.055 104.414 24.0975C104.265 24.14 104.116 24.1613 103.925 24.1825C103.755 24.2038 103.564 24.225 103.373 24.225C102.438 24.2038 101.928 23.9275 101.651 23.4813C101.375 23.0138 101.333 22.3763 101.333 21.59V17.3188C101.333 17.1488 101.396 17.0213 101.503 16.915C101.609 16.8088 101.758 16.745 101.906 16.745H104.754C104.924 16.745 105.051 16.6813 105.158 16.575C105.264 16.4688 105.328 16.32 105.328 16.1713V13.43C105.328 13.26 105.264 13.1325 105.158 13.0263C105.051 12.92 104.903 12.8563 104.754 12.8563H101.928C101.758 12.8563 101.63 12.7925 101.524 12.6863C101.418 12.58 101.354 12.4313 101.354 12.2825V9.03125C101.354 8.86125 101.29 8.73375 101.184 8.6275C101.078 8.52125 100.929 8.4575 100.78 8.4575H97.1677C96.9977 8.4575 96.8702 8.52125 96.7639 8.6275C96.6577 8.73375 96.5939 8.8825 96.5939 9.03125V12.2613C96.5939 12.4313 96.5302 12.5588 96.4239 12.665C96.3177 12.7713 96.1689 12.835 96.0202 12.835H94.2777C94.1077 12.835 93.9802 12.8988 93.8739 13.005C93.7677 13.1113 93.7039 13.26 93.7039 13.4088V16.15C93.7039 16.32 93.7677 16.4475 93.8739 16.5538C93.9802 16.66 94.1289 16.7238 94.2777 16.7238H96.0202C96.1902 16.7238 96.3177 16.7875 96.4239 16.8938C96.5302 17 96.5939 17.1488 96.5939 17.2975V23.6938C96.5939 25.1813 97.1039 26.3288 98.0602 27.115C99.0164 27.9013 100.398 28.305 102.161 28.305C102.714 28.305 103.224 28.2625 103.67 28.1988C104.116 28.135 104.478 28.05 104.733 27.9863C104.86 27.965 104.966 27.88 105.051 27.7738C105.136 27.6675 105.179 27.54 105.179 27.4125L105.136 24.6713Z" fill="#171627"/>
</svg>
