<?xml version="1.0" encoding="UTF-8" standalone="no"?>
<!DOCTYPE svg PUBLIC "-//W3C//DTD SVG 1.1//EN" "http://www.w3.org/Graphics/SVG/1.1/DTD/svg11.dtd">
<svg xmlns="http://www.w3.org/2000/svg" version="1.1" viewBox="0.00 0.00 512.00 512.00">
<path fill="#3e93de" d="
  M 123.82 393.19
  A 2.24 2.23 24.3 0 0 122.35 393.74
  Q 56.32 451.71 56.26 451.76
  C 52.21 455.31 46.21 454.47 43.61 449.65
  Q 42.63 447.84 42.63 444.12
  Q 42.65 390.20 42.64 81.00
  C 42.64 71.69 48.22 63.62 56.47 60.34
  Q 60.01 58.94 70.75 58.94
  Q 274.40 58.91 376.51 58.95
  C 388.34 58.95 397.99 68.63 398.02 80.50
  Q 398.38 212.03 398.05 364.63
  Q 398.02 375.82 396.97 378.74
  Q 394.62 385.22 388.24 389.79
  C 383.31 393.31 377.98 393.19 371.02 393.19
  Q 201.93 393.18 123.82 393.19
  Z"
/>
<path fill="#3e93de" d="
  M 408.31 103.22
  A 1.12 1.12 0.0 0 1 409.43 102.10
  L 415.17 102.10
  A 21.16 20.78 90.0 0 1 435.95 123.26
  L 435.95 328.86
  A 21.16 20.78 90.0 0 1 415.17 350.02
  L 409.43 350.02
  A 1.12 1.12 0.0 0 1 408.31 348.90
  L 408.31 103.22
  Z"
/>
<path fill="#3e93de" d="
  M 446.17 147.22
  A 0.97 0.97 0.0 0 1 447.14 146.25
  L 454.38 146.25
  A 15.79 15.27 90.0 0 1 469.65 162.04
  L 469.65 290.22
  A 15.79 15.27 -90.0 0 1 454.38 306.01
  L 447.14 306.01
  A 0.97 0.97 0.0 0 1 446.17 305.04
  L 446.17 147.22
  Z"
/>
</svg>
