<?xml version="1.0" encoding="UTF-8" standalone="no"?>
<!DOCTYPE svg PUBLIC "-//W3C//DTD SVG 1.1//EN" "http://www.w3.org/Graphics/SVG/1.1/DTD/svg11.dtd">
<svg xmlns="http://www.w3.org/2000/svg" version="1.1" viewBox="0.00 0.00 400.00 400.00">
<g stroke-width="2.00" fill="none" stroke-linecap="butt">
<path stroke="#808080" vector-effect="non-scaling-stroke" d="
  M 11.9786 159.1354
  A 192.06 191.92 -167.7 0 0 158.7452 387.5646
  A 192.06 191.92 -167.7 0 0 387.2814 240.9646
  A 192.06 191.92 -167.7 0 0 240.5148 12.5354
  A 192.06 191.92 -167.7 0 0 11.9786 159.1354"
/>
<path stroke="#808080" vector-effect="non-scaling-stroke" d="
  M 19.3467 164.6718
  A 183.71 183.58 -168.9 0 0 164.2768 380.1857
  A 183.71 183.58 -168.9 0 0 379.8933 235.4082
  A 183.71 183.58 -168.9 0 0 234.9632 19.8943
  A 183.71 183.58 -168.9 0 0 19.3467 164.6718"
/>
<path stroke="#808080" vector-effect="non-scaling-stroke" d="
  M 178.83 102.11
  Q 183.24 102.12 183.79 102.06
  A 1.60 1.59 -41.8 0 0 183.97 98.92
  Q 183.26 98.75 181.14 98.82
  A 0.54 0.54 0.0 0 1 180.58 98.28
  L 180.58 85.62
  A 0.44 0.44 0.0 0 1 181.02 85.18
  L 184.02 85.18
  A 0.43 0.42 -86.9 0 1 184.44 85.66
  Q 184.26 87.55 184.58 89.25
  Q 184.84 90.64 185.48 90.89
  A 1.89 1.71 -77.2 0 0 187.81 89.25
  Q 188.13 86.52 187.92 82.36
  A 0.66 0.66 0.0 0 0 187.33 81.74
  Q 187.29 81.73 178.88 81.71
  Q 170.47 81.69 170.42 81.70
  A 0.66 0.66 0.0 0 0 169.83 82.32
  Q 169.60 86.48 169.91 89.21
  A 1.89 1.71 77.5 0 0 172.23 90.86
  Q 172.87 90.61 173.14 89.22
  Q 173.46 87.52 173.29 85.63
  A 0.43 0.42 87.2 0 1 173.72 85.15
  L 176.72 85.17
  A 0.44 0.44 0.0 0 1 177.15 85.61
  L 177.09 98.27
  A 0.54 0.54 0.0 0 1 176.53 98.81
  Q 174.41 98.73 173.70 98.90
  A 1.60 1.59 42.1 0 0 173.86 102.03
  Q 174.42 102.10 178.83 102.11"
/>
<path stroke="#808080" vector-effect="non-scaling-stroke" d="
  M 199.83 93.83
  Q 202.43 93.83 202.89 93.84
  A 0.70 0.69 0.1 0 1 203.59 94.53
  L 203.59 98.23
  A 0.67 0.66 0.0 0 1 202.92 98.89
  L 202.12 98.89
  A 1.56 1.56 0.0 0 0 201.96 102.00
  Q 204.72 102.27 208.40 102.01
  A 1.55 1.40 75.4 0 0 209.51 99.88
  Q 209.04 98.77 207.68 98.84
  A 0.62 0.62 0.0 0 1 207.02 98.22
  L 207.02 85.84
  A 0.80 0.78 -11.1 0 1 207.52 85.11
  Q 208.26 84.81 208.49 84.52
  A 1.68 1.53 -66.0 0 0 207.62 81.89
  Q 204.84 81.51 202.07 81.86
  A 1.65 1.59 57.8 0 0 201.45 84.83
  Q 202.11 85.27 202.90 85.19
  A 0.63 0.62 -3.3 0 1 203.60 85.81
  L 203.60 89.45
  A 0.73 0.73 0.0 0 1 202.80 90.17
  Q 201.68 90.07 199.84 90.12
  Q 198.00 90.06 196.88 90.17
  A 0.73 0.73 0.0 0 1 196.08 89.44
  L 196.09 85.80
  A 0.63 0.62 3.4 0 1 196.79 85.18
  Q 197.58 85.26 198.24 84.83
  A 1.65 1.59 -57.7 0 0 197.62 81.85
  Q 194.86 81.50 192.07 81.87
  A 1.68 1.53 66.1 0 0 191.20 84.50
  Q 191.43 84.79 192.17 85.09
  A 0.80 0.78 11.2 0 1 192.67 85.82
  L 192.64 98.20
  A 0.62 0.62 0.0 0 1 191.98 98.82
  Q 190.62 98.75 190.14 99.86
  A 1.55 1.40 -75.3 0 0 191.25 101.99
  Q 194.93 102.26 197.69 102.00
  A 1.56 1.56 0.0 0 0 197.54 98.88
  L 196.74 98.88
  A 0.67 0.66 0.1 0 1 196.07 98.22
  L 196.08 94.52
  A 0.70 0.69 -0.0 0 1 196.77 93.83
  Q 197.24 93.83 199.83 93.83"
/>
<path stroke="#808080" vector-effect="non-scaling-stroke" d="
  M 220.03 94.22
  Q 220.13 95.40 220.80 95.92
  A 1.72 1.68 -68.4 0 0 223.51 94.71
  Q 223.86 91.54 223.47 89.23
  A 1.85 1.60 82.8 0 0 221.74 87.68
  Q 220.12 87.79 220.12 89.47
  A 0.54 0.54 0.0 0 1 219.58 90.02
  L 217.46 90.02
  A 0.44 0.43 90.0 0 1 217.03 89.58
  L 217.03 86.02
  A 0.83 0.83 0.0 0 1 217.86 85.19
  L 224.35 85.19
  A 0.75 0.75 0.0 0 1 225.09 86.07
  Q 224.95 86.95 225.14 87.92
  A 1.74 1.74 0.0 0 0 228.59 87.58
  L 228.59 82.22
  A 0.51 0.50 0.0 0 0 228.08 81.72
  L 212.17 81.72
  A 1.33 1.32 -87.9 0 0 210.85 82.95
  Q 210.67 85.37 212.98 85.17
  A 0.54 0.54 0.0 0 1 213.57 85.71
  L 213.57 98.13
  A 0.78 0.77 -0.0 0 1 212.79 98.90
  L 211.61 98.90
  A 0.70 0.69 -90.0 0 0 210.92 99.60
  L 210.92 101.36
  A 0.75 0.75 0.0 0 0 211.67 102.11
  L 228.69 102.11
  A 0.65 0.65 0.0 0 0 229.34 101.51
  Q 229.57 98.64 229.21 95.97
  A 1.61 1.61 0.0 0 0 226.01 96.00
  Q 225.95 96.55 226.05 98.28
  A 0.50 0.50 0.0 0 1 225.55 98.82
  L 217.68 98.82
  A 0.61 0.61 0.0 0 1 217.07 98.21
  L 217.07 94.30
  A 0.63 0.63 0.0 0 1 217.70 93.67
  L 219.44 93.67
  A 0.59 0.59 0.0 0 1 220.03 94.22"
/>
<path stroke="#808080" vector-effect="non-scaling-stroke" d="
  M 124.1410 128.6702
  A 26.07 23.66 -89.8 0 0 100.3901 154.6574
  A 26.07 23.66 -89.8 0 0 123.9590 180.8098
  A 26.07 23.66 -89.8 0 0 147.7099 154.8226
  A 26.07 23.66 -89.8 0 0 124.1410 128.6702"
/>
<path stroke="#808080" vector-effect="non-scaling-stroke" d="
  M 285.67 131.08
  Q 279.19 127.77 271.00 129.05
  C 255.81 131.42 251.23 150.73 266.89 156.94
  Q 268.33 157.51 280.13 160.04
  Q 284.29 160.94 285.89 162.64
  C 288.92 165.86 286.51 169.46 282.98 170.96
  Q 275.17 174.26 267.24 170.27
  C 263.71 168.50 264.25 165.59 262.22 163.59
  A 1.89 1.88 74.7 0 0 261.37 163.10
  C 254.01 161.17 255.38 169.72 255.49 174.64
  C 255.56 178.11 257.45 180.04 260.93 179.29
  C 261.70 179.13 262.38 178.21 263.02 177.85
  A 0.99 0.98 -45.3 0 1 263.96 177.84
  C 271.59 181.87 282.45 182.12 289.83 177.02
  C 297.92 171.42 297.61 159.60 289.32 154.42
  C 284.71 151.54 279.89 151.24 271.65 149.38
  C 266.12 148.13 262.53 142.61 268.73 138.81
  C 273.27 136.02 280.87 136.17 284.46 140.91
  C 286.04 142.99 285.24 147.08 289.30 147.43
  C 292.48 147.71 293.79 145.20 293.83 142.18
  C 293.91 137.20 295.12 126.50 286.74 131.06
  A 1.15 1.15 0.0 0 1 285.67 131.08"
/>
<path stroke="#808080" vector-effect="non-scaling-stroke" d="
  M 155.66 138.82
  L 155.66 170.53
  A 0.73 0.73 0.0 0 1 154.97 171.26
  C 148.81 171.67 149.13 179.44 154.77 179.53
  Q 162.69 179.65 174.76 179.53
  C 185.24 179.42 193.98 172.11 195.41 161.84
  C 195.89 158.35 196.04 150.88 195.08 147.46
  C 192.68 138.90 186.20 130.97 176.77 130.16
  Q 173.87 129.91 156.94 130.06
  Q 155.41 130.07 155.11 130.06
  C 148.98 129.74 148.83 138.27 154.88 138.06
  A 0.76 0.75 88.9 0 1 155.66 138.82"
/>
<path stroke="#808080" vector-effect="non-scaling-stroke" d="
  M 206.16 138.81
  L 206.12 170.51
  A 0.73 0.73 0.0 0 1 205.43 171.24
  C 199.27 171.64 199.59 179.41 205.22 179.50
  Q 213.14 179.63 225.21 179.53
  C 235.68 179.43 244.43 172.13 245.87 161.86
  C 246.35 158.37 246.51 150.91 245.56 147.49
  C 243.17 138.93 236.70 130.99 227.27 130.17
  Q 224.37 129.92 207.45 130.05
  Q 205.92 130.06 205.62 130.05
  C 199.49 129.72 199.33 138.25 205.38 138.05
  A 0.76 0.75 89.0 0 1 206.16 138.81"
/>
<path stroke="#808080" vector-effect="non-scaling-stroke" d="
  M 138.87 267.68
  A 0.87 0.86 -78.9 0 1 139.67 267.14
  L 158.73 267.14
  A 1.24 1.24 0.0 0 1 159.88 267.92
  L 161.15 271.04
  A 0.66 0.66 0.0 0 1 160.49 271.95
  C 157.25 271.73 153.37 273.33 153.95 277.01
  C 154.33 279.37 155.96 280.50 158.13 280.60
  Q 164.37 280.89 172.36 280.57
  Q 176.08 280.42 176.39 276.56
  Q 176.69 272.87 171.65 272.14
  A 1.97 1.95 -6.8 0 1 170.11 270.94
  L 154.06 231.43
  A 0.84 0.84 0.0 0 0 153.28 230.90
  L 134.24 230.90
  A 4.11 4.10 3.1 0 0 130.16 234.55
  L 130.12 234.98
  A 3.82 3.82 0.0 0 0 133.92 239.22
  L 140.28 239.22
  A 0.65 0.65 0.0 0 1 140.88 240.11
  L 128.46 271.03
  A 1.39 1.37 -87.9 0 1 127.64 271.80
  L 123.69 273.13
  A 1.10 1.06 6.4 0 0 123.14 273.55
  Q 121.37 276.18 122.60 278.41
  C 123.89 280.72 126.23 280.73 129.00 280.70
  Q 129.81 280.68 138.45 280.70
  C 141.98 280.70 145.12 279.78 144.63 275.78
  C 144.23 272.64 140.11 271.80 137.66 272.00
  A 0.33 0.33 0.0 0 1 137.32 271.55
  L 138.87 267.68"
/>
<path stroke="#808080" vector-effect="non-scaling-stroke" d="
  M 245.95 255.75
  Q 245.95 271.70 245.94 271.77
  A 0.39 0.38 -85.9 0 1 245.56 272.10
  L 236.06 272.20
  A 4.22 4.21 -89.4 0 0 231.89 276.29
  L 231.88 276.64
  A 3.99 3.99 0.0 0 0 235.87 280.50
  Q 244.46 280.78 250.20 280.65
  Q 255.94 280.78 264.53 280.50
  A 3.99 3.99 0.0 0 0 268.52 276.65
  L 268.51 276.30
  A 4.22 4.21 89.5 0 0 264.34 272.21
  L 254.84 272.10
  A 0.39 0.38 85.9 0 1 254.46 271.77
  Q 254.45 271.70 254.46 255.75
  Q 254.46 239.81 254.47 239.74
  A 0.39 0.38 -85.9 0 1 254.85 239.41
  L 264.35 239.31
  A 4.22 4.21 -89.4 0 0 268.52 235.22
  L 268.53 234.87
  A 3.99 3.99 0.0 0 0 264.54 231.01
  Q 255.95 230.73 250.21 230.85
  Q 244.47 230.72 235.88 231.00
  A 3.99 3.99 0.0 0 0 231.89 234.86
  L 231.90 235.21
  A 4.22 4.21 89.5 0 0 236.07 239.30
  L 245.57 239.40
  A 0.39 0.38 85.9 0 1 245.94 239.73
  Q 245.95 239.80 245.95 255.75"
/>
<path stroke="#808080" vector-effect="non-scaling-stroke" d="
  M 194.84 271.50
  L 194.84 264.14
  A 0.59 0.59 0.0 0 1 195.45 263.55
  Q 203.68 263.90 208.75 263.00
  C 213.58 262.14 220.78 257.18 222.32 251.62
  C 225.47 240.18 217.25 231.29 205.73 231.03
  Q 195.31 230.79 184.76 230.89
  C 179.74 230.93 177.16 235.90 181.87 238.94
  A 1.74 1.72 60.5 0 0 182.78 239.20
  L 185.84 239.20
  A 0.62 0.62 0.0 0 1 186.46 239.82
  L 186.46 271.32
  A 0.61 0.60 86.2 0 1 185.94 271.92
  Q 181.74 272.53 180.86 273.39
  C 178.97 275.24 178.95 278.93 181.69 280.07
  Q 183.02 280.62 184.50 280.65
  Q 196.48 280.84 204.54 280.55
  Q 209.38 280.38 208.92 275.69
  C 208.50 271.41 200.99 271.77 195.44 272.07
  A 0.57 0.57 0.0 0 1 194.84 271.50"
/>
<path stroke="#808080" vector-effect="non-scaling-stroke" d="
  M 124.0192 137.0800
  A 17.66 15.17 -90.1 0 0 108.8800 154.7665
  A 17.66 15.17 -90.1 0 0 124.0808 172.4000
  A 17.66 15.17 -90.1 0 0 139.2200 154.7135
  A 17.66 15.17 -90.1 0 0 124.0192 137.0800"
/>
<path stroke="#808080" vector-effect="non-scaling-stroke" d="
  M 164.13 138.60
  L 163.97 171.00
  A 0.29 0.29 0.0 0 0 164.25 171.29
  L 173.83 171.34
  A 13.36 13.23 -89.7 0 0 187.13 158.05
  L 187.17 151.79
  A 13.36 13.23 -89.7 0 0 174.01 138.36
  L 164.43 138.31
  A 0.29 0.29 0.0 0 0 164.13 138.60"
/>
<path stroke="#808080" vector-effect="non-scaling-stroke" d="
  M 214.64 138.50
  L 214.46 171.08
  A 0.24 0.24 0.0 0 0 214.70 171.32
  L 223.94 171.37
  A 14.11 13.88 -89.7 0 0 237.90 157.33
  L 237.92 152.49
  A 14.11 13.88 -89.7 0 0 224.12 138.31
  L 214.88 138.26
  A 0.24 0.24 0.0 0 0 214.64 138.50"
/>
<path stroke="#808080" vector-effect="non-scaling-stroke" d="
  M 142.55 258.39
  A 0.32 0.32 0.0 0 0 142.84 258.83
  L 155.66 258.88
  A 0.32 0.32 0.0 0 0 155.95 258.44
  L 149.60 242.88
  A 0.32 0.32 0.0 0 0 149.01 242.87
  L 142.55 258.39"
/>
<path stroke="#808080" vector-effect="non-scaling-stroke" d="
  M 194.73 239.74
  L 194.99 254.76
  A 0.47 0.47 0.0 0 0 195.47 255.22
  L 204.00 255.07
  A 10.74 7.81 -1.0 0 0 214.60 247.08
  L 214.60 246.74
  A 10.74 7.81 -1.0 0 0 203.72 239.12
  L 195.19 239.27
  A 0.47 0.47 0.0 0 0 194.73 239.74"
/>
</g>
<path fill="#ffffff" d="
  M 400.00 0.00
  L 400.00 400.00
  L 0.00 400.00
  L 0.00 0.00
  L 400.00 0.00
  Z
  M 11.9786 159.1354
  A 192.06 191.92 -167.7 0 0 158.7452 387.5646
  A 192.06 191.92 -167.7 0 0 387.2814 240.9646
  A 192.06 191.92 -167.7 0 0 240.5148 12.5354
  A 192.06 191.92 -167.7 0 0 11.9786 159.1354
  Z"
/>
<path fill="#010101" d="
  M 11.9786 159.1354
  A 192.06 191.92 -167.7 0 1 240.5148 12.5354
  A 192.06 191.92 -167.7 0 1 387.2814 240.9646
  A 192.06 191.92 -167.7 0 1 158.7452 387.5646
  A 192.06 191.92 -167.7 0 1 11.9786 159.1354
  Z
  M 19.3467 164.6718
  A 183.71 183.58 -168.9 0 0 164.2768 380.1857
  A 183.71 183.58 -168.9 0 0 379.8933 235.4082
  A 183.71 183.58 -168.9 0 0 234.9632 19.8943
  A 183.71 183.58 -168.9 0 0 19.3467 164.6718
  Z"
/>
<path fill="#ffffff" d="
  M 19.3467 164.6718
  A 183.71 183.58 -168.9 0 1 234.9632 19.8943
  A 183.71 183.58 -168.9 0 1 379.8933 235.4082
  A 183.71 183.58 -168.9 0 1 164.2768 380.1857
  A 183.71 183.58 -168.9 0 1 19.3467 164.6718
  Z
  M 178.83 102.11
  Q 183.24 102.12 183.79 102.06
  A 1.60 1.59 -41.8 0 0 183.97 98.92
  Q 183.26 98.75 181.14 98.82
  A 0.54 0.54 0.0 0 1 180.58 98.28
  L 180.58 85.62
  A 0.44 0.44 0.0 0 1 181.02 85.18
  L 184.02 85.18
  A 0.43 0.42 -86.9 0 1 184.44 85.66
  Q 184.26 87.55 184.58 89.25
  Q 184.84 90.64 185.48 90.89
  A 1.89 1.71 -77.2 0 0 187.81 89.25
  Q 188.13 86.52 187.92 82.36
  A 0.66 0.66 0.0 0 0 187.33 81.74
  Q 187.29 81.73 178.88 81.71
  Q 170.47 81.69 170.42 81.70
  A 0.66 0.66 0.0 0 0 169.83 82.32
  Q 169.60 86.48 169.91 89.21
  A 1.89 1.71 77.5 0 0 172.23 90.86
  Q 172.87 90.61 173.14 89.22
  Q 173.46 87.52 173.29 85.63
  A 0.43 0.42 87.2 0 1 173.72 85.15
  L 176.72 85.17
  A 0.44 0.44 0.0 0 1 177.15 85.61
  L 177.09 98.27
  A 0.54 0.54 0.0 0 1 176.53 98.81
  Q 174.41 98.73 173.70 98.90
  A 1.60 1.59 42.1 0 0 173.86 102.03
  Q 174.42 102.10 178.83 102.11
  Z
  M 199.83 93.83
  Q 202.43 93.83 202.89 93.84
  A 0.70 0.69 0.1 0 1 203.59 94.53
  L 203.59 98.23
  A 0.67 0.66 0.0 0 1 202.92 98.89
  L 202.12 98.89
  A 1.56 1.56 0.0 0 0 201.96 102.00
  Q 204.72 102.27 208.40 102.01
  A 1.55 1.40 75.4 0 0 209.51 99.88
  Q 209.04 98.77 207.68 98.84
  A 0.62 0.62 0.0 0 1 207.02 98.22
  L 207.02 85.84
  A 0.80 0.78 -11.1 0 1 207.52 85.11
  Q 208.26 84.81 208.49 84.52
  A 1.68 1.53 -66.0 0 0 207.62 81.89
  Q 204.84 81.51 202.07 81.86
  A 1.65 1.59 57.8 0 0 201.45 84.83
  Q 202.11 85.27 202.90 85.19
  A 0.63 0.62 -3.3 0 1 203.60 85.81
  L 203.60 89.45
  A 0.73 0.73 0.0 0 1 202.80 90.17
  Q 201.68 90.07 199.84 90.12
  Q 198.00 90.06 196.88 90.17
  A 0.73 0.73 0.0 0 1 196.08 89.44
  L 196.09 85.80
  A 0.63 0.62 3.4 0 1 196.79 85.18
  Q 197.58 85.26 198.24 84.83
  A 1.65 1.59 -57.7 0 0 197.62 81.85
  Q 194.86 81.50 192.07 81.87
  A 1.68 1.53 66.1 0 0 191.20 84.50
  Q 191.43 84.79 192.17 85.09
  A 0.80 0.78 11.2 0 1 192.67 85.82
  L 192.64 98.20
  A 0.62 0.62 0.0 0 1 191.98 98.82
  Q 190.62 98.75 190.14 99.86
  A 1.55 1.40 -75.3 0 0 191.25 101.99
  Q 194.93 102.26 197.69 102.00
  A 1.56 1.56 0.0 0 0 197.54 98.88
  L 196.74 98.88
  A 0.67 0.66 0.1 0 1 196.07 98.22
  L 196.08 94.52
  A 0.70 0.69 -0.0 0 1 196.77 93.83
  Q 197.24 93.83 199.83 93.83
  Z
  M 220.03 94.22
  Q 220.13 95.40 220.80 95.92
  A 1.72 1.68 -68.4 0 0 223.51 94.71
  Q 223.86 91.54 223.47 89.23
  A 1.85 1.60 82.8 0 0 221.74 87.68
  Q 220.12 87.79 220.12 89.47
  A 0.54 0.54 0.0 0 1 219.58 90.02
  L 217.46 90.02
  A 0.44 0.43 90.0 0 1 217.03 89.58
  L 217.03 86.02
  A 0.83 0.83 0.0 0 1 217.86 85.19
  L 224.35 85.19
  A 0.75 0.75 0.0 0 1 225.09 86.07
  Q 224.95 86.95 225.14 87.92
  A 1.74 1.74 0.0 0 0 228.59 87.58
  L 228.59 82.22
  A 0.51 0.50 0.0 0 0 228.08 81.72
  L 212.17 81.72
  A 1.33 1.32 -87.9 0 0 210.85 82.95
  Q 210.67 85.37 212.98 85.17
  A 0.54 0.54 0.0 0 1 213.57 85.71
  L 213.57 98.13
  A 0.78 0.77 -0.0 0 1 212.79 98.90
  L 211.61 98.90
  A 0.70 0.69 -90.0 0 0 210.92 99.60
  L 210.92 101.36
  A 0.75 0.75 0.0 0 0 211.67 102.11
  L 228.69 102.11
  A 0.65 0.65 0.0 0 0 229.34 101.51
  Q 229.57 98.64 229.21 95.97
  A 1.61 1.61 0.0 0 0 226.01 96.00
  Q 225.95 96.55 226.05 98.28
  A 0.50 0.50 0.0 0 1 225.55 98.82
  L 217.68 98.82
  A 0.61 0.61 0.0 0 1 217.07 98.21
  L 217.07 94.30
  A 0.63 0.63 0.0 0 1 217.70 93.67
  L 219.44 93.67
  A 0.59 0.59 0.0 0 1 220.03 94.22
  Z
  M 124.1410 128.6702
  A 26.07 23.66 -89.8 0 0 100.3901 154.6574
  A 26.07 23.66 -89.8 0 0 123.9590 180.8098
  A 26.07 23.66 -89.8 0 0 147.7099 154.8226
  A 26.07 23.66 -89.8 0 0 124.1410 128.6702
  Z
  M 285.67 131.08
  Q 279.19 127.77 271.00 129.05
  C 255.81 131.42 251.23 150.73 266.89 156.94
  Q 268.33 157.51 280.13 160.04
  Q 284.29 160.94 285.89 162.64
  C 288.92 165.86 286.51 169.46 282.98 170.96
  Q 275.17 174.26 267.24 170.27
  C 263.71 168.50 264.25 165.59 262.22 163.59
  A 1.89 1.88 74.7 0 0 261.37 163.10
  C 254.01 161.17 255.38 169.72 255.49 174.64
  C 255.56 178.11 257.45 180.04 260.93 179.29
  C 261.70 179.13 262.38 178.21 263.02 177.85
  A 0.99 0.98 -45.3 0 1 263.96 177.84
  C 271.59 181.87 282.45 182.12 289.83 177.02
  C 297.92 171.42 297.61 159.60 289.32 154.42
  C 284.71 151.54 279.89 151.24 271.65 149.38
  C 266.12 148.13 262.53 142.61 268.73 138.81
  C 273.27 136.02 280.87 136.17 284.46 140.91
  C 286.04 142.99 285.24 147.08 289.30 147.43
  C 292.48 147.71 293.79 145.20 293.83 142.18
  C 293.91 137.20 295.12 126.50 286.74 131.06
  A 1.15 1.15 0.0 0 1 285.67 131.08
  Z
  M 155.66 138.82
  L 155.66 170.53
  A 0.73 0.73 0.0 0 1 154.97 171.26
  C 148.81 171.67 149.13 179.44 154.77 179.53
  Q 162.69 179.65 174.76 179.53
  C 185.24 179.42 193.98 172.11 195.41 161.84
  C 195.89 158.35 196.04 150.88 195.08 147.46
  C 192.68 138.90 186.20 130.97 176.77 130.16
  Q 173.87 129.91 156.94 130.06
  Q 155.41 130.07 155.11 130.06
  C 148.98 129.74 148.83 138.27 154.88 138.06
  A 0.76 0.75 88.9 0 1 155.66 138.82
  Z
  M 206.16 138.81
  L 206.12 170.51
  A 0.73 0.73 0.0 0 1 205.43 171.24
  C 199.27 171.64 199.59 179.41 205.22 179.50
  Q 213.14 179.63 225.21 179.53
  C 235.68 179.43 244.43 172.13 245.87 161.86
  C 246.35 158.37 246.51 150.91 245.56 147.49
  C 243.17 138.93 236.70 130.99 227.27 130.17
  Q 224.37 129.92 207.45 130.05
  Q 205.92 130.06 205.62 130.05
  C 199.49 129.72 199.33 138.25 205.38 138.05
  A 0.76 0.75 89.0 0 1 206.16 138.81
  Z
  M 138.87 267.68
  A 0.87 0.86 -78.9 0 1 139.67 267.14
  L 158.73 267.14
  A 1.24 1.24 0.0 0 1 159.88 267.92
  L 161.15 271.04
  A 0.66 0.66 0.0 0 1 160.49 271.95
  C 157.25 271.73 153.37 273.33 153.95 277.01
  C 154.33 279.37 155.96 280.50 158.13 280.60
  Q 164.37 280.89 172.36 280.57
  Q 176.08 280.42 176.39 276.56
  Q 176.69 272.87 171.65 272.14
  A 1.97 1.95 -6.8 0 1 170.11 270.94
  L 154.06 231.43
  A 0.84 0.84 0.0 0 0 153.28 230.90
  L 134.24 230.90
  A 4.11 4.10 3.1 0 0 130.16 234.55
  L 130.12 234.98
  A 3.82 3.82 0.0 0 0 133.92 239.22
  L 140.28 239.22
  A 0.65 0.65 0.0 0 1 140.88 240.11
  L 128.46 271.03
  A 1.39 1.37 -87.9 0 1 127.64 271.80
  L 123.69 273.13
  A 1.10 1.06 6.4 0 0 123.14 273.55
  Q 121.37 276.18 122.60 278.41
  C 123.89 280.72 126.23 280.73 129.00 280.70
  Q 129.81 280.68 138.45 280.70
  C 141.98 280.70 145.12 279.78 144.63 275.78
  C 144.23 272.64 140.11 271.80 137.66 272.00
  A 0.33 0.33 0.0 0 1 137.32 271.55
  L 138.87 267.68
  Z
  M 245.95 255.75
  Q 245.95 271.70 245.94 271.77
  A 0.39 0.38 -85.9 0 1 245.56 272.10
  L 236.06 272.20
  A 4.22 4.21 -89.4 0 0 231.89 276.29
  L 231.88 276.64
  A 3.99 3.99 0.0 0 0 235.87 280.50
  Q 244.46 280.78 250.20 280.65
  Q 255.94 280.78 264.53 280.50
  A 3.99 3.99 0.0 0 0 268.52 276.65
  L 268.51 276.30
  A 4.22 4.21 89.5 0 0 264.34 272.21
  L 254.84 272.10
  A 0.39 0.38 85.9 0 1 254.46 271.77
  Q 254.45 271.70 254.46 255.75
  Q 254.46 239.81 254.47 239.74
  A 0.39 0.38 -85.9 0 1 254.85 239.41
  L 264.35 239.31
  A 4.22 4.21 -89.4 0 0 268.52 235.22
  L 268.53 234.87
  A 3.99 3.99 0.0 0 0 264.54 231.01
  Q 255.95 230.73 250.21 230.85
  Q 244.47 230.72 235.88 231.00
  A 3.99 3.99 0.0 0 0 231.89 234.86
  L 231.90 235.21
  A 4.22 4.21 89.5 0 0 236.07 239.30
  L 245.57 239.40
  A 0.39 0.38 85.9 0 1 245.94 239.73
  Q 245.95 239.80 245.95 255.75
  Z
  M 194.84 271.50
  L 194.84 264.14
  A 0.59 0.59 0.0 0 1 195.45 263.55
  Q 203.68 263.90 208.75 263.00
  C 213.58 262.14 220.78 257.18 222.32 251.62
  C 225.47 240.18 217.25 231.29 205.73 231.03
  Q 195.31 230.79 184.76 230.89
  C 179.74 230.93 177.16 235.90 181.87 238.94
  A 1.74 1.72 60.5 0 0 182.78 239.20
  L 185.84 239.20
  A 0.62 0.62 0.0 0 1 186.46 239.82
  L 186.46 271.32
  A 0.61 0.60 86.2 0 1 185.94 271.92
  Q 181.74 272.53 180.86 273.39
  C 178.97 275.24 178.95 278.93 181.69 280.07
  Q 183.02 280.62 184.50 280.65
  Q 196.48 280.84 204.54 280.55
  Q 209.38 280.38 208.92 275.69
  C 208.50 271.41 200.99 271.77 195.44 272.07
  A 0.57 0.57 0.0 0 1 194.84 271.50
  Z"
/>
<path fill="#010101" d="
  M 178.88 81.71
  Q 187.29 81.73 187.33 81.74
  A 0.66 0.66 0.0 0 1 187.92 82.36
  Q 188.13 86.52 187.81 89.25
  A 1.89 1.71 -77.2 0 1 185.48 90.89
  Q 184.84 90.64 184.58 89.25
  Q 184.26 87.55 184.44 85.66
  A 0.43 0.42 -86.9 0 0 184.02 85.18
  L 181.02 85.18
  A 0.44 0.44 0.0 0 0 180.58 85.62
  L 180.58 98.28
  A 0.54 0.54 0.0 0 0 181.14 98.82
  Q 183.26 98.75 183.97 98.92
  A 1.60 1.59 -41.8 0 1 183.79 102.06
  Q 183.24 102.12 178.83 102.11
  Q 174.42 102.10 173.86 102.03
  A 1.60 1.59 42.1 0 1 173.70 98.90
  Q 174.41 98.73 176.53 98.81
  A 0.54 0.54 0.0 0 0 177.09 98.27
  L 177.15 85.61
  A 0.44 0.44 0.0 0 0 176.72 85.17
  L 173.72 85.15
  A 0.43 0.42 87.2 0 0 173.29 85.63
  Q 173.46 87.52 173.14 89.22
  Q 172.87 90.61 172.23 90.86
  A 1.89 1.71 77.5 0 1 169.91 89.21
  Q 169.60 86.48 169.83 82.32
  A 0.66 0.66 0.0 0 1 170.42 81.70
  Q 170.47 81.69 178.88 81.71
  Z"
/>
<path fill="#010101" d="
  M 199.84 90.12
  Q 201.68 90.07 202.80 90.17
  A 0.73 0.73 0.0 0 0 203.60 89.45
  L 203.60 85.81
  A 0.63 0.62 -3.3 0 0 202.90 85.19
  Q 202.11 85.27 201.45 84.83
  A 1.65 1.59 57.8 0 1 202.07 81.86
  Q 204.84 81.51 207.62 81.89
  A 1.68 1.53 -66.0 0 1 208.49 84.52
  Q 208.26 84.81 207.52 85.11
  A 0.80 0.78 -11.1 0 0 207.02 85.84
  L 207.02 98.22
  A 0.62 0.62 0.0 0 0 207.68 98.84
  Q 209.04 98.77 209.51 99.88
  A 1.55 1.40 75.4 0 1 208.40 102.01
  Q 204.72 102.27 201.96 102.00
  A 1.56 1.56 0.0 0 1 202.12 98.89
  L 202.92 98.89
  A 0.67 0.66 0.0 0 0 203.59 98.23
  L 203.59 94.53
  A 0.70 0.69 0.1 0 0 202.89 93.84
  Q 202.43 93.83 199.83 93.83
  Q 197.24 93.83 196.77 93.83
  A 0.70 0.69 -0.0 0 0 196.08 94.52
  L 196.07 98.22
  A 0.67 0.66 0.1 0 0 196.74 98.88
  L 197.54 98.88
  A 1.56 1.56 0.0 0 1 197.69 102.00
  Q 194.93 102.26 191.25 101.99
  A 1.55 1.40 -75.3 0 1 190.14 99.86
  Q 190.62 98.75 191.98 98.82
  A 0.62 0.62 0.0 0 0 192.64 98.20
  L 192.67 85.82
  A 0.80 0.78 11.2 0 0 192.17 85.09
  Q 191.43 84.79 191.20 84.50
  A 1.68 1.53 66.1 0 1 192.07 81.87
  Q 194.86 81.50 197.62 81.85
  A 1.65 1.59 -57.7 0 1 198.24 84.83
  Q 197.58 85.26 196.79 85.18
  A 0.63 0.62 3.4 0 0 196.09 85.80
  L 196.08 89.44
  A 0.73 0.73 0.0 0 0 196.88 90.17
  Q 198.00 90.06 199.84 90.12
  Z"
/>
<path fill="#010101" d="
  M 219.44 93.67
  L 217.70 93.67
  A 0.63 0.63 0.0 0 0 217.07 94.30
  L 217.07 98.21
  A 0.61 0.61 0.0 0 0 217.68 98.82
  L 225.55 98.82
  A 0.50 0.50 0.0 0 0 226.05 98.28
  Q 225.95 96.55 226.01 96.00
  A 1.61 1.61 0.0 0 1 229.21 95.97
  Q 229.57 98.64 229.34 101.51
  A 0.65 0.65 0.0 0 1 228.69 102.11
  L 211.67 102.11
  A 0.75 0.75 0.0 0 1 210.92 101.36
  L 210.92 99.60
  A 0.70 0.69 -90.0 0 1 211.61 98.90
  L 212.79 98.90
  A 0.78 0.77 -0.0 0 0 213.57 98.13
  L 213.57 85.71
  A 0.54 0.54 0.0 0 0 212.98 85.17
  Q 210.67 85.37 210.85 82.95
  A 1.33 1.32 -87.9 0 1 212.17 81.72
  L 228.08 81.72
  A 0.51 0.50 0.0 0 1 228.59 82.22
  L 228.59 87.58
  A 1.74 1.74 0.0 0 1 225.14 87.92
  Q 224.95 86.95 225.09 86.07
  A 0.75 0.75 0.0 0 0 224.35 85.19
  L 217.86 85.19
  A 0.83 0.83 0.0 0 0 217.03 86.02
  L 217.03 89.58
  A 0.44 0.43 90.0 0 0 217.46 90.02
  L 219.58 90.02
  A 0.54 0.54 0.0 0 0 220.12 89.47
  Q 220.12 87.79 221.74 87.68
  A 1.85 1.60 82.8 0 1 223.47 89.23
  Q 223.86 91.54 223.51 94.71
  A 1.72 1.68 -68.4 0 1 220.80 95.92
  Q 220.13 95.40 220.03 94.22
  A 0.59 0.59 0.0 0 0 219.44 93.67
  Z"
/>
<path fill="#010101" d="
  M 124.1410 128.6702
  A 26.07 23.66 -89.8 0 1 147.7099 154.8226
  A 26.07 23.66 -89.8 0 1 123.9590 180.8098
  A 26.07 23.66 -89.8 0 1 100.3901 154.6574
  A 26.07 23.66 -89.8 0 1 124.1410 128.6702
  Z
  M 124.0192 137.0800
  A 17.66 15.17 -90.1 0 0 108.8800 154.7665
  A 17.66 15.17 -90.1 0 0 124.0808 172.4000
  A 17.66 15.17 -90.1 0 0 139.2200 154.7135
  A 17.66 15.17 -90.1 0 0 124.0192 137.0800
  Z"
/>
<path fill="#010101" d="
  M 286.74 131.06
  C 295.12 126.50 293.91 137.20 293.83 142.18
  C 293.79 145.20 292.48 147.71 289.30 147.43
  C 285.24 147.08 286.04 142.99 284.46 140.91
  C 280.87 136.17 273.27 136.02 268.73 138.81
  C 262.53 142.61 266.12 148.13 271.65 149.38
  C 279.89 151.24 284.71 151.54 289.32 154.42
  C 297.61 159.60 297.92 171.42 289.83 177.02
  C 282.45 182.12 271.59 181.87 263.96 177.84
  A 0.99 0.98 -45.3 0 0 263.02 177.85
  C 262.38 178.21 261.70 179.13 260.93 179.29
  C 257.45 180.04 255.56 178.11 255.49 174.64
  C 255.38 169.72 254.01 161.17 261.37 163.10
  A 1.89 1.88 74.7 0 1 262.22 163.59
  C 264.25 165.59 263.71 168.50 267.24 170.27
  Q 275.17 174.26 282.98 170.96
  C 286.51 169.46 288.92 165.86 285.89 162.64
  Q 284.29 160.94 280.13 160.04
  Q 268.33 157.51 266.89 156.94
  C 251.23 150.73 255.81 131.42 271.00 129.05
  Q 279.19 127.77 285.67 131.08
  A 1.15 1.15 0.0 0 0 286.74 131.06
  Z"
/>
<path fill="#010101" d="
  M 154.88 138.06
  C 148.83 138.27 148.98 129.74 155.11 130.06
  Q 155.41 130.07 156.94 130.06
  Q 173.87 129.91 176.77 130.16
  C 186.20 130.97 192.68 138.90 195.08 147.46
  C 196.04 150.88 195.89 158.35 195.41 161.84
  C 193.98 172.11 185.24 179.42 174.76 179.53
  Q 162.69 179.65 154.77 179.53
  C 149.13 179.44 148.81 171.67 154.97 171.26
  A 0.73 0.73 0.0 0 0 155.66 170.53
  L 155.66 138.82
  A 0.76 0.75 88.9 0 0 154.88 138.06
  Z
  M 164.13 138.60
  L 163.97 171.00
  A 0.29 0.29 0.0 0 0 164.25 171.29
  L 173.83 171.34
  A 13.36 13.23 -89.7 0 0 187.13 158.05
  L 187.17 151.79
  A 13.36 13.23 -89.7 0 0 174.01 138.36
  L 164.43 138.31
  A 0.29 0.29 0.0 0 0 164.13 138.60
  Z"
/>
<path fill="#010101" d="
  M 206.16 138.81
  A 0.76 0.75 89.0 0 0 205.38 138.05
  C 199.33 138.25 199.49 129.72 205.62 130.05
  Q 205.92 130.06 207.45 130.05
  Q 224.37 129.92 227.27 130.17
  C 236.70 130.99 243.17 138.93 245.56 147.49
  C 246.51 150.91 246.35 158.37 245.87 161.86
  C 244.43 172.13 235.68 179.43 225.21 179.53
  Q 213.14 179.63 205.22 179.50
  C 199.59 179.41 199.27 171.64 205.43 171.24
  A 0.73 0.73 0.0 0 0 206.12 170.51
  L 206.16 138.81
  Z
  M 214.64 138.50
  L 214.46 171.08
  A 0.24 0.24 0.0 0 0 214.70 171.32
  L 223.94 171.37
  A 14.11 13.88 -89.7 0 0 237.90 157.33
  L 237.92 152.49
  A 14.11 13.88 -89.7 0 0 224.12 138.31
  L 214.88 138.26
  A 0.24 0.24 0.0 0 0 214.64 138.50
  Z"
/>
<ellipse fill="#ffffff" cx="0.00" cy="0.00" transform="translate(124.05,154.74) rotate(-90.1)" rx="17.66" ry="15.17"/>
<path fill="#ffffff" d="
  M 214.64 138.50
  A 0.24 0.24 0.0 0 1 214.88 138.26
  L 224.12 138.31
  A 14.11 13.88 -89.7 0 1 237.92 152.49
  L 237.90 157.33
  A 14.11 13.88 -89.7 0 1 223.94 171.37
  L 214.70 171.32
  A 0.24 0.24 0.0 0 1 214.46 171.08
  L 214.64 138.50
  Z"
/>
<path fill="#ffffff" d="
  M 164.13 138.60
  A 0.29 0.29 0.0 0 1 164.43 138.31
  L 174.01 138.36
  A 13.36 13.23 -89.7 0 1 187.17 151.79
  L 187.13 158.05
  A 13.36 13.23 -89.7 0 1 173.83 171.34
  L 164.25 171.29
  A 0.29 0.29 0.0 0 1 163.97 171.00
  L 164.13 138.60
  Z"
/>
<path fill="#010101" d="
  M 137.66 272.00
  C 140.11 271.80 144.23 272.64 144.63 275.78
  C 145.12 279.78 141.98 280.70 138.45 280.70
  Q 129.81 280.68 129.00 280.70
  C 126.23 280.73 123.89 280.72 122.60 278.41
  Q 121.37 276.18 123.14 273.55
  A 1.10 1.06 6.4 0 1 123.69 273.13
  L 127.64 271.80
  A 1.39 1.37 -87.9 0 0 128.46 271.03
  L 140.88 240.11
  A 0.65 0.65 0.0 0 0 140.28 239.22
  L 133.92 239.22
  A 3.82 3.82 0.0 0 1 130.12 234.98
  L 130.16 234.55
  A 4.11 4.10 3.1 0 1 134.24 230.90
  L 153.28 230.90
  A 0.84 0.84 0.0 0 1 154.06 231.43
  L 170.11 270.94
  A 1.97 1.95 -6.8 0 0 171.65 272.14
  Q 176.69 272.87 176.39 276.56
  Q 176.08 280.42 172.36 280.57
  Q 164.37 280.89 158.13 280.60
  C 155.96 280.50 154.33 279.37 153.95 277.01
  C 153.37 273.33 157.25 271.73 160.49 271.95
  A 0.66 0.66 0.0 0 0 161.15 271.04
  L 159.88 267.92
  A 1.24 1.24 0.0 0 0 158.73 267.14
  L 139.67 267.14
  A 0.87 0.86 -78.9 0 0 138.87 267.68
  L 137.32 271.55
  A 0.33 0.33 0.0 0 0 137.66 272.00
  Z
  M 142.55 258.39
  A 0.32 0.32 0.0 0 0 142.84 258.83
  L 155.66 258.88
  A 0.32 0.32 0.0 0 0 155.95 258.44
  L 149.60 242.88
  A 0.32 0.32 0.0 0 0 149.01 242.87
  L 142.55 258.39
  Z"
/>
<path fill="#010101" d="
  M 250.21 230.85
  Q 255.95 230.73 264.54 231.01
  A 3.99 3.99 0.0 0 1 268.53 234.87
  L 268.52 235.22
  A 4.22 4.21 -89.4 0 1 264.35 239.31
  L 254.85 239.41
  A 0.39 0.38 -85.9 0 0 254.47 239.74
  Q 254.46 239.81 254.46 255.75
  Q 254.45 271.70 254.46 271.77
  A 0.39 0.38 85.9 0 0 254.84 272.10
  L 264.34 272.21
  A 4.22 4.21 89.5 0 1 268.51 276.30
  L 268.52 276.65
  A 3.99 3.99 0.0 0 1 264.53 280.50
  Q 255.94 280.78 250.20 280.65
  Q 244.46 280.78 235.87 280.50
  A 3.99 3.99 0.0 0 1 231.88 276.64
  L 231.89 276.29
  A 4.22 4.21 -89.4 0 1 236.06 272.20
  L 245.56 272.10
  A 0.39 0.38 -85.9 0 0 245.94 271.77
  Q 245.95 271.70 245.95 255.75
  Q 245.95 239.80 245.94 239.73
  A 0.39 0.38 85.9 0 0 245.57 239.40
  L 236.07 239.30
  A 4.22 4.21 89.5 0 1 231.90 235.21
  L 231.89 234.86
  A 3.99 3.99 0.0 0 1 235.88 231.00
  Q 244.47 230.72 250.21 230.85
  Z"
/>
<path fill="#010101" d="
  M 194.84 271.50
  A 0.57 0.57 0.0 0 0 195.44 272.07
  C 200.99 271.77 208.50 271.41 208.92 275.69
  Q 209.38 280.38 204.54 280.55
  Q 196.48 280.84 184.50 280.65
  Q 183.02 280.62 181.69 280.07
  C 178.95 278.93 178.97 275.24 180.86 273.39
  Q 181.74 272.53 185.94 271.92
  A 0.61 0.60 86.2 0 0 186.46 271.32
  L 186.46 239.82
  A 0.62 0.62 0.0 0 0 185.84 239.20
  L 182.78 239.20
  A 1.74 1.72 60.5 0 1 181.87 238.94
  C 177.16 235.90 179.74 230.93 184.76 230.89
  Q 195.31 230.79 205.73 231.03
  C 217.25 231.29 225.47 240.18 222.32 251.62
  C 220.78 257.18 213.58 262.14 208.75 263.00
  Q 203.68 263.90 195.45 263.55
  A 0.59 0.59 0.0 0 0 194.84 264.14
  L 194.84 271.50
  Z
  M 194.73 239.74
  L 194.99 254.76
  A 0.47 0.47 0.0 0 0 195.47 255.22
  L 204.00 255.07
  A 10.74 7.81 -1.0 0 0 214.60 247.08
  L 214.60 246.74
  A 10.74 7.81 -1.0 0 0 203.72 239.12
  L 195.19 239.27
  A 0.47 0.47 0.0 0 0 194.73 239.74
  Z"
/>
<path fill="#ffffff" d="
  M 194.73 239.74
  A 0.47 0.47 0.0 0 1 195.19 239.27
  L 203.72 239.12
  A 10.74 7.81 -1.0 0 1 214.60 246.74
  L 214.60 247.08
  A 10.74 7.81 -1.0 0 1 204.00 255.07
  L 195.47 255.22
  A 0.47 0.47 0.0 0 1 194.99 254.76
  L 194.73 239.74
  Z"
/>
<path fill="#ffffff" d="
  M 142.55 258.39
  L 149.01 242.87
  A 0.32 0.32 0.0 0 1 149.60 242.88
  L 155.95 258.44
  A 0.32 0.32 0.0 0 1 155.66 258.88
  L 142.84 258.83
  A 0.32 0.32 0.0 0 1 142.55 258.39
  Z"
/>
</svg>
