<svg width="133" height="31" viewBox="0 0 133 31" fill="none" xmlns="http://www.w3.org/2000/svg">
<g id="Group 10">
<path id="Vector" d="M24.0824 12.4628C24.0478 13.06 23.7792 13.6226 23.3201 14.0207L17.3167 19.2483C16.9009 19.6118 16.3724 19.8109 15.818 19.8023C15.792 19.8023 15.766 19.8023 15.74 19.8023L15.5148 19.7849C15.073 19.7244 14.6572 19.5253 14.328 19.2224L10.8541 16.0719C9.99651 15.3016 9.79726 14.0813 10.3604 13.1638C11.0274 12.0993 12.4221 11.779 13.4877 12.4455C13.6003 12.5147 13.7042 12.6013 13.8082 12.6878L14.969 13.7351C15.4801 14.2024 16.2598 14.2111 16.7796 13.7524L20.2881 10.6972C20.9811 10.0913 21.9254 9.92685 22.705 10.2644C23.5886 10.6279 24.1344 11.5107 24.0824 12.4628Z" fill="#25CF60"/>
<path id="Vector_2" d="M11.522 30.4559C3.21428 28.2143 -1.70627 19.689 0.546093 11.4408C2.79845 3.19254 11.4007 -1.69756 19.7085 0.544094C20.9386 0.872986 21.6663 2.13662 21.3458 3.36564C21.0166 4.59465 19.7518 5.32168 18.5217 5.00144C18.513 5.00144 18.5043 4.99278 18.4957 4.99278C12.6569 3.41757 6.61881 6.85362 5.03349 12.6525C3.44817 18.4514 6.90468 24.4407 12.7435 26.0159C18.5823 27.5824 24.6204 24.1464 26.2057 18.3562C26.5435 17.1185 27.8257 16.4001 29.0558 16.7377C30.2773 17.0752 31.0049 18.3389 30.6844 19.5592C28.4321 27.8075 19.8384 32.6976 11.522 30.4559Z" fill="#25CF60"/>
<g id="Group">
<path id="Vector_3" d="M40.0324 10.7836H36.0215V8.44678H46.8848V10.7836H42.8739V22.5372H40.0324V10.7836Z" fill="black"/>
<path id="Vector_4" d="M49.0948 7.74512C50.0304 7.74512 50.6975 8.42886 50.6975 9.33764C50.6975 10.2464 50.0304 10.9302 49.0948 10.9302C48.1592 10.9302 47.4922 10.2464 47.4922 9.33764C47.4922 8.42886 48.1679 7.74512 49.0948 7.74512ZM47.7174 12.064H50.4722V22.5279H47.7174V12.064Z" fill="black"/>
<path id="Vector_5" d="M52.2391 12.0636H54.8727V13.31C55.4011 12.3406 56.4147 11.8213 57.9134 11.8213C59.2734 11.8213 60.3217 12.3666 60.954 13.31C61.725 12.3233 62.9032 11.8213 64.4365 11.8213C66.6456 11.8213 68.2049 13.31 68.2049 15.8286V22.5276H65.4501V16.27C65.4501 15.0669 64.9043 14.2014 63.5616 14.2014C62.3488 14.2014 61.5951 14.9284 61.5951 16.3306V22.5276H58.8403V16.27C58.8403 15.0669 58.2945 14.2014 56.9518 14.2014C55.713 14.2014 54.9853 14.9284 54.9853 16.3306V22.5276H52.2305V12.0636H52.2391Z" fill="black"/>
<path id="Vector_6" d="M69.3477 18.1055V16.6774C69.3477 13.8385 71.0543 11.8306 74.2162 11.8306C77.3349 11.8306 78.9202 13.8991 78.9202 16.4177V18.2526H72.0245V18.5123C72.0245 19.7413 72.6569 20.8058 74.2509 20.8058C75.429 20.8058 76.1567 20.2 76.4166 19.4816H78.8249C78.4611 21.3944 76.5725 22.7792 74.2422 22.7792C71.2708 22.7705 69.3477 21.0395 69.3477 18.1055ZM72.0245 16.3139H76.382V16.0542C76.382 14.7473 75.6889 13.7606 74.2162 13.7606C72.6309 13.7606 72.0245 14.8079 72.0245 16.2187V16.3139Z" fill="black"/>
<path id="Vector_7" d="M79.9258 16.4961V14.4881C79.9258 10.8876 81.8489 8.16992 86.1284 8.16992C89.7149 8.16992 91.9239 10.5847 92.0712 13.4582H89.4377C89.2558 11.8656 88.2422 10.4808 86.1371 10.4808C83.7635 10.4808 82.7499 12.0907 82.7499 14.341V16.6346C82.7499 18.8849 83.7635 20.4947 86.1371 20.4947C88.2422 20.4947 89.2558 19.1099 89.4377 17.5174H92.0712C91.9326 20.3908 89.7236 22.8056 86.1284 22.8056C81.8489 22.8142 79.9258 20.0966 79.9258 16.4961Z" fill="black"/>
<path id="Vector_8" d="M92.9629 19.5162C92.9629 17.24 94.6868 16.1927 97.2164 16.1927C98.4725 16.1927 99.4081 16.6774 99.8932 17.0755V15.6474C99.8932 14.6781 99.2002 13.9597 98.0654 13.9597C97.1124 13.9597 96.5234 14.3838 96.2375 14.9464H93.6906C94.297 12.9124 95.9429 11.8306 98.2126 11.8306C100.846 11.8306 102.648 13.4231 102.648 15.8552V22.5368H99.9885V21.5675C99.5034 22.2685 98.1606 22.7705 96.9478 22.7705C94.5829 22.7705 92.9629 21.5415 92.9629 19.5162ZM99.8932 19.4124C99.8932 18.4863 98.9836 17.941 97.7448 17.941C96.4454 17.941 95.6397 18.4603 95.6397 19.4297C95.6397 20.3991 96.5147 20.9616 97.6669 20.9616C98.8797 20.9616 99.8932 20.2952 99.8932 19.4124Z" fill="black"/>
<path id="Vector_9" d="M104.251 12.0636H106.884V13.31C107.413 12.3406 108.426 11.8213 109.925 11.8213C111.285 11.8213 112.333 12.3666 112.966 13.31C113.737 12.3233 114.915 11.8213 116.448 11.8213C118.657 11.8213 120.217 13.31 120.217 15.8286V22.5276H117.462V16.27C117.462 15.0669 116.916 14.2014 115.573 14.2014C114.36 14.2014 113.607 14.9284 113.607 16.3306V22.5276H110.852V16.27C110.852 15.0669 110.306 14.2014 108.963 14.2014C107.725 14.2014 106.997 14.9284 106.997 16.3306V22.5276H104.242V12.0636H104.251Z" fill="black"/>
<path id="Vector_10" d="M132.024 16.4344V18.1654C132.024 20.684 130.439 22.7699 127.606 22.7699C126.212 22.7699 125.137 22.2073 124.583 21.4024V26.0329H121.828V12.0636H124.462V13.31C124.99 12.505 126.064 11.8213 127.58 11.8213C130.482 11.8213 132.024 13.9591 132.024 16.4344ZM124.583 16.5556V18.0875C124.583 19.6801 125.64 20.5629 126.896 20.5629C128.455 20.5629 129.27 19.5156 129.27 18.0443V16.5556C129.27 15.1708 128.516 14.037 126.922 14.037C125.519 14.037 124.583 15.0842 124.583 16.5556Z" fill="black"/>
</g>
</g>
</svg>
