<?xml version="1.0" encoding="UTF-8" standalone="no"?>
<!DOCTYPE svg PUBLIC "-//W3C//DTD SVG 1.1//EN" "http://www.w3.org/Graphics/SVG/1.1/DTD/svg11.dtd">
<svg xmlns="http://www.w3.org/2000/svg" version="1.1" viewBox="0.00 0.00 400.00 400.00">
<g stroke-width="2.00" fill="none" stroke-linecap="butt">
<path stroke="#f7c481" vector-effect="non-scaling-stroke" d="
  M 244.88 192.89
  L 254.10 192.89
  A 0.49 0.49 0.0 0 0 254.59 192.42
  C 256.25 160.00 238.35 130.84 208.65 117.64
  C 190.83 109.72 167.01 109.39 148.91 117.51
  Q 115.47 132.49 105.03 168.20
  A 0.71 0.71 0.0 0 0 105.71 169.11
  L 114.58 169.11
  A 1.27 1.26 8.8 0 0 115.79 168.23
  C 122.39 148.07 137.49 132.20 157.29 125.38
  C 171.38 120.53 188.40 120.65 202.46 126.34
  C 229.67 137.35 245.79 163.24 244.41 192.39
  A 0.48 0.47 -88.8 0 0 244.88 192.89"
/>
<path stroke="#f7c481" vector-effect="non-scaling-stroke" d="
  M 179.38 169.37
  A 0.37 0.37 0.0 0 0 179.75 168.98
  L 177.88 128.99
  A 0.37 0.37 0.0 0 0 177.51 128.64
  L 173.25 128.64
  A 0.37 0.37 0.0 0 0 172.88 128.99
  L 171.00 168.98
  A 0.37 0.37 0.0 0 0 171.37 169.37
  L 179.38 169.37"
/>
<path stroke="#f7c481" vector-effect="non-scaling-stroke" d="
  M 191.55 179.69
  A 0.39 0.39 0.0 0 0 192.13 179.78
  L 212.25 162.90
  A 0.39 0.39 0.0 0 0 212.33 162.39
  L 210.11 158.85
  A 0.39 0.39 0.0 0 0 209.57 158.73
  L 187.53 172.52
  A 0.39 0.39 0.0 0 0 187.41 173.06
  L 191.55 179.69"
/>
<path stroke="#929395" vector-effect="non-scaling-stroke" d="
  M 147.12 216.66
  A 0.21 0.20 39.8 0 1 147.08 216.27
  Q 160.41 211.25 160.55 198.26
  C 160.62 191.81 157.96 185.82 152.70 182.24
  C 145.11 177.06 137.75 177.32 127.41 177.35
  Q 126.49 177.35 103.81 177.36
  A 0.61 0.61 0.0 0 0 103.20 177.97
  L 103.20 259.75
  A 0.62 0.62 0.0 0 0 103.81 260.37
  Q 113.39 260.41 133.25 260.39
  C 146.05 260.37 160.41 256.23 163.44 242.32
  C 166.13 229.91 159.83 219.23 147.12 216.66"
/>
<path stroke="#f7c481" vector-effect="non-scaling-stroke" d="
  M 184.37 186.68
  A 8.89 8.89 0.0 0 0 175.48 177.79
  A 8.89 8.89 0.0 0 0 166.59 186.68
  A 8.89 8.89 0.0 0 0 175.48 195.57
  A 8.89 8.89 0.0 0 0 184.37 186.68"
/>
<path stroke="#929395" vector-effect="non-scaling-stroke" d="
  M 279.99 187.22
  L 267.23 187.22
  A 0.65 0.65 0.0 0 0 266.58 187.87
  Q 266.56 220.27 266.57 240.00
  C 266.57 246.73 266.64 254.31 272.28 258.68
  C 277.67 262.85 288.46 262.27 294.97 260.40
  A 1.52 1.51 -8.2 0 0 296.06 258.95
  L 296.06 248.83
  A 0.47 0.47 0.0 0 0 295.42 248.39
  Q 291.19 250.09 286.46 249.57
  C 281.87 249.07 280.67 245.04 280.62 240.70
  Q 280.52 230.82 280.63 216.60
  A 0.45 0.45 0.0 0 1 281.08 216.15
  L 295.52 216.15
  A 0.50 0.50 0.0 0 0 296.02 215.65
  L 296.02 204.58
  A 0.45 0.45 0.0 0 0 295.57 204.13
  L 281.41 204.13
  A 0.81 0.80 -0.0 0 1 280.60 203.33
  L 280.60 187.83
  A 0.61 0.61 0.0 0 0 279.99 187.22"
/>
<path stroke="#929395" vector-effect="non-scaling-stroke" d="
  M 207.10 188.01
  A 0.47 0.47 0.0 0 0 206.63 187.54
  L 193.61 187.54
  A 0.47 0.47 0.0 0 0 193.14 188.01
  L 193.14 259.89
  A 0.47 0.47 0.0 0 0 193.61 260.36
  L 206.63 260.36
  A 0.47 0.47 0.0 0 0 207.10 259.89
  L 207.10 188.01"
/>
<path stroke="#929395" vector-effect="non-scaling-stroke" d="
  M 231.57 188.05
  A 0.53 0.53 0.0 0 0 231.04 187.52
  L 218.10 187.52
  A 0.53 0.53 0.0 0 0 217.57 188.05
  L 217.57 259.83
  A 0.53 0.53 0.0 0 0 218.10 260.36
  L 231.04 260.36
  A 0.53 0.53 0.0 0 0 231.57 259.83
  L 231.57 188.05"
/>
<path stroke="#929395" vector-effect="non-scaling-stroke" d="
  M 84.67 243.36
  C 83.46 244.45 81.92 246.44 80.74 247.18
  C 70.70 253.48 58.20 250.76 55.30 238.33
  A 0.91 0.91 0.0 0 1 56.19 237.21
  L 97.18 237.21
  A 0.42 0.42 0.0 0 0 97.60 236.80
  C 98.29 222.43 93.77 206.37 77.45 203.31
  C 60.32 200.10 43.98 210.12 41.60 227.79
  C 39.23 245.46 50.23 259.54 67.98 261.56
  C 77.79 262.68 88.84 259.11 94.83 250.87
  A 0.52 0.51 -53.6 0 0 94.73 250.16
  L 85.80 243.31
  A 0.90 0.88 -47.2 0 0 84.67 243.36"
/>
<path stroke="#929395" vector-effect="non-scaling-stroke" d="
  M 182.72 204.60
  A 0.52 0.52 0.0 0 0 182.20 204.08
  L 169.22 204.08
  A 0.52 0.52 0.0 0 0 168.70 204.60
  L 168.70 259.86
  A 0.52 0.52 0.0 0 0 169.22 260.38
  L 182.20 260.38
  A 0.52 0.52 0.0 0 0 182.72 259.86
  L 182.72 204.60"
/>
<path stroke="#929395" vector-effect="non-scaling-stroke" d="
  M 300.50 204.39
  L 324.00 260.28
  A 1.24 1.23 -46.4 0 1 324.02 261.19
  C 322.31 266.05 319.65 273.71 316.07 274.87
  Q 309.94 276.85 304.16 274.52
  A 0.56 0.55 -75.1 0 0 303.41 274.96
  L 301.80 286.61
  A 0.57 0.57 0.0 0 0 302.25 287.24
  Q 309.70 288.70 317.28 287.96
  C 326.91 287.03 330.86 279.85 334.06 271.57
  Q 359.51 205.59 359.79 204.87
  A 0.57 0.57 0.0 0 0 359.26 204.10
  L 346.48 204.10
  A 1.43 1.42 9.9 0 0 345.14 205.04
  L 331.74 242.50
  A 0.33 0.33 0.0 0 1 331.12 242.51
  L 316.08 204.71
  A 0.95 0.94 79.0 0 0 315.20 204.11
  L 300.68 204.11
  A 0.20 0.20 0.0 0 0 300.50 204.39"
/>
<path stroke="#929395" vector-effect="non-scaling-stroke" d="
  M 255.95 204.68
  A 0.57 0.57 0.0 0 0 255.38 204.11
  L 242.52 204.11
  A 0.57 0.57 0.0 0 0 241.95 204.68
  L 241.95 259.82
  A 0.57 0.57 0.0 0 0 242.52 260.39
  L 255.38 260.39
  A 0.57 0.57 0.0 0 0 255.95 259.82
  L 255.95 204.68"
/>
<path stroke="#929395" vector-effect="non-scaling-stroke" d="
  M 117.84 190.47
  L 117.92 210.79
  A 0.34 0.34 0.0 0 0 118.26 211.13
  L 133.09 211.08
  A 12.81 9.74 -0.2 0 0 145.86 201.29
  L 145.86 199.77
  A 12.81 9.74 -0.2 0 0 133.01 190.08
  L 118.18 190.13
  A 0.34 0.34 0.0 0 0 117.84 190.47"
/>
<path stroke="#929395" vector-effect="non-scaling-stroke" d="
  M 117.77 224.34
  L 117.97 247.26
  A 0.42 0.42 0.0 0 0 118.39 247.67
  L 135.86 247.52
  A 13.51 10.61 -0.5 0 0 149.28 236.79
  L 149.26 234.25
  A 13.51 10.61 -0.5 0 0 135.66 223.76
  L 118.19 223.91
  A 0.42 0.42 0.0 0 0 117.77 224.34"
/>
<path stroke="#929395" vector-effect="non-scaling-stroke" d="
  M 55.74 226.67
  L 83.64 226.57
  A 0.17 0.17 0.0 0 0 83.81 226.40
  L 83.81 226.27
  A 13.48 13.00 -0.2 0 0 70.29 213.32
  L 69.01 213.32
  A 13.48 13.00 -0.2 0 0 55.57 226.37
  L 55.57 226.50
  A 0.17 0.17 0.0 0 0 55.74 226.67"
/>
</g>
<path fill="#ffffff" d="
  M 400.00 0.00
  L 400.00 400.00
  L 0.00 400.00
  L 0.00 0.00
  L 400.00 0.00
  Z
  M 244.88 192.89
  L 254.10 192.89
  A 0.49 0.49 0.0 0 0 254.59 192.42
  C 256.25 160.00 238.35 130.84 208.65 117.64
  C 190.83 109.72 167.01 109.39 148.91 117.51
  Q 115.47 132.49 105.03 168.20
  A 0.71 0.71 0.0 0 0 105.71 169.11
  L 114.58 169.11
  A 1.27 1.26 8.8 0 0 115.79 168.23
  C 122.39 148.07 137.49 132.20 157.29 125.38
  C 171.38 120.53 188.40 120.65 202.46 126.34
  C 229.67 137.35 245.79 163.24 244.41 192.39
  A 0.48 0.47 -88.8 0 0 244.88 192.89
  Z
  M 179.38 169.37
  A 0.37 0.37 0.0 0 0 179.75 168.98
  L 177.88 128.99
  A 0.37 0.37 0.0 0 0 177.51 128.64
  L 173.25 128.64
  A 0.37 0.37 0.0 0 0 172.88 128.99
  L 171.00 168.98
  A 0.37 0.37 0.0 0 0 171.37 169.37
  L 179.38 169.37
  Z
  M 191.55 179.69
  A 0.39 0.39 0.0 0 0 192.13 179.78
  L 212.25 162.90
  A 0.39 0.39 0.0 0 0 212.33 162.39
  L 210.11 158.85
  A 0.39 0.39 0.0 0 0 209.57 158.73
  L 187.53 172.52
  A 0.39 0.39 0.0 0 0 187.41 173.06
  L 191.55 179.69
  Z
  M 147.12 216.66
  A 0.21 0.20 39.8 0 1 147.08 216.27
  Q 160.41 211.25 160.55 198.26
  C 160.62 191.81 157.96 185.82 152.70 182.24
  C 145.11 177.06 137.75 177.32 127.41 177.35
  Q 126.49 177.35 103.81 177.36
  A 0.61 0.61 0.0 0 0 103.20 177.97
  L 103.20 259.75
  A 0.62 0.62 0.0 0 0 103.81 260.37
  Q 113.39 260.41 133.25 260.39
  C 146.05 260.37 160.41 256.23 163.44 242.32
  C 166.13 229.91 159.83 219.23 147.12 216.66
  Z
  M 184.37 186.68
  A 8.89 8.89 0.0 0 0 175.48 177.79
  A 8.89 8.89 0.0 0 0 166.59 186.68
  A 8.89 8.89 0.0 0 0 175.48 195.57
  A 8.89 8.89 0.0 0 0 184.37 186.68
  Z
  M 279.99 187.22
  L 267.23 187.22
  A 0.65 0.65 0.0 0 0 266.58 187.87
  Q 266.56 220.27 266.57 240.00
  C 266.57 246.73 266.64 254.31 272.28 258.68
  C 277.67 262.85 288.46 262.27 294.97 260.40
  A 1.52 1.51 -8.2 0 0 296.06 258.95
  L 296.06 248.83
  A 0.47 0.47 0.0 0 0 295.42 248.39
  Q 291.19 250.09 286.46 249.57
  C 281.87 249.07 280.67 245.04 280.62 240.70
  Q 280.52 230.82 280.63 216.60
  A 0.45 0.45 0.0 0 1 281.08 216.15
  L 295.52 216.15
  A 0.50 0.50 0.0 0 0 296.02 215.65
  L 296.02 204.58
  A 0.45 0.45 0.0 0 0 295.57 204.13
  L 281.41 204.13
  A 0.81 0.80 -0.0 0 1 280.60 203.33
  L 280.60 187.83
  A 0.61 0.61 0.0 0 0 279.99 187.22
  Z
  M 207.10 188.01
  A 0.47 0.47 0.0 0 0 206.63 187.54
  L 193.61 187.54
  A 0.47 0.47 0.0 0 0 193.14 188.01
  L 193.14 259.89
  A 0.47 0.47 0.0 0 0 193.61 260.36
  L 206.63 260.36
  A 0.47 0.47 0.0 0 0 207.10 259.89
  L 207.10 188.01
  Z
  M 231.57 188.05
  A 0.53 0.53 0.0 0 0 231.04 187.52
  L 218.10 187.52
  A 0.53 0.53 0.0 0 0 217.57 188.05
  L 217.57 259.83
  A 0.53 0.53 0.0 0 0 218.10 260.36
  L 231.04 260.36
  A 0.53 0.53 0.0 0 0 231.57 259.83
  L 231.57 188.05
  Z
  M 84.67 243.36
  C 83.46 244.45 81.92 246.44 80.74 247.18
  C 70.70 253.48 58.20 250.76 55.30 238.33
  A 0.91 0.91 0.0 0 1 56.19 237.21
  L 97.18 237.21
  A 0.42 0.42 0.0 0 0 97.60 236.80
  C 98.29 222.43 93.77 206.37 77.45 203.31
  C 60.32 200.10 43.98 210.12 41.60 227.79
  C 39.23 245.46 50.23 259.54 67.98 261.56
  C 77.79 262.68 88.84 259.11 94.83 250.87
  A 0.52 0.51 -53.6 0 0 94.73 250.16
  L 85.80 243.31
  A 0.90 0.88 -47.2 0 0 84.67 243.36
  Z
  M 182.72 204.60
  A 0.52 0.52 0.0 0 0 182.20 204.08
  L 169.22 204.08
  A 0.52 0.52 0.0 0 0 168.70 204.60
  L 168.70 259.86
  A 0.52 0.52 0.0 0 0 169.22 260.38
  L 182.20 260.38
  A 0.52 0.52 0.0 0 0 182.72 259.86
  L 182.72 204.60
  Z
  M 300.50 204.39
  L 324.00 260.28
  A 1.24 1.23 -46.4 0 1 324.02 261.19
  C 322.31 266.05 319.65 273.71 316.07 274.87
  Q 309.94 276.85 304.16 274.52
  A 0.56 0.55 -75.1 0 0 303.41 274.96
  L 301.80 286.61
  A 0.57 0.57 0.0 0 0 302.25 287.24
  Q 309.70 288.70 317.28 287.96
  C 326.91 287.03 330.86 279.85 334.06 271.57
  Q 359.51 205.59 359.79 204.87
  A 0.57 0.57 0.0 0 0 359.26 204.10
  L 346.48 204.10
  A 1.43 1.42 9.9 0 0 345.14 205.04
  L 331.74 242.50
  A 0.33 0.33 0.0 0 1 331.12 242.51
  L 316.08 204.71
  A 0.95 0.94 79.0 0 0 315.20 204.11
  L 300.68 204.11
  A 0.20 0.20 0.0 0 0 300.50 204.39
  Z
  M 255.95 204.68
  A 0.57 0.57 0.0 0 0 255.38 204.11
  L 242.52 204.11
  A 0.57 0.57 0.0 0 0 241.95 204.68
  L 241.95 259.82
  A 0.57 0.57 0.0 0 0 242.52 260.39
  L 255.38 260.39
  A 0.57 0.57 0.0 0 0 255.95 259.82
  L 255.95 204.68
  Z"
/>
<path fill="#ef8903" d="
  M 244.88 192.89
  A 0.48 0.47 -88.8 0 1 244.41 192.39
  C 245.79 163.24 229.67 137.35 202.46 126.34
  C 188.40 120.65 171.38 120.53 157.29 125.38
  C 137.49 132.20 122.39 148.07 115.79 168.23
  A 1.27 1.26 8.8 0 1 114.58 169.11
  L 105.71 169.11
  A 0.71 0.71 0.0 0 1 105.03 168.20
  Q 115.47 132.49 148.91 117.51
  C 167.01 109.39 190.83 109.72 208.65 117.64
  C 238.35 130.84 256.25 160.00 254.59 192.42
  A 0.49 0.49 0.0 0 1 254.10 192.89
  L 244.88 192.89
  Z"
/>
<path fill="#ef8903" d="
  M 179.38 169.37
  L 171.37 169.37
  A 0.37 0.37 0.0 0 1 171.00 168.98
  L 172.88 128.99
  A 0.37 0.37 0.0 0 1 173.25 128.64
  L 177.51 128.64
  A 0.37 0.37 0.0 0 1 177.88 128.99
  L 179.75 168.98
  A 0.37 0.37 0.0 0 1 179.38 169.37
  Z"
/>
<path fill="#ef8903" d="
  M 191.55 179.69
  L 187.41 173.06
  A 0.39 0.39 0.0 0 1 187.53 172.52
  L 209.57 158.73
  A 0.39 0.39 0.0 0 1 210.11 158.85
  L 212.33 162.39
  A 0.39 0.39 0.0 0 1 212.25 162.90
  L 192.13 179.78
  A 0.39 0.39 0.0 0 1 191.55 179.69
  Z"
/>
<path fill="#24272a" d="
  M 147.12 216.66
  C 159.83 219.23 166.13 229.91 163.44 242.32
  C 160.41 256.23 146.05 260.37 133.25 260.39
  Q 113.39 260.41 103.81 260.37
  A 0.62 0.62 0.0 0 1 103.20 259.75
  L 103.20 177.97
  A 0.61 0.61 0.0 0 1 103.81 177.36
  Q 126.49 177.35 127.41 177.35
  C 137.75 177.32 145.11 177.06 152.70 182.24
  C 157.96 185.82 160.62 191.81 160.55 198.26
  Q 160.41 211.25 147.08 216.27
  A 0.21 0.20 39.8 0 0 147.12 216.66
  Z
  M 117.84 190.47
  L 117.92 210.79
  A 0.34 0.34 0.0 0 0 118.26 211.13
  L 133.09 211.08
  A 12.81 9.74 -0.2 0 0 145.86 201.29
  L 145.86 199.77
  A 12.81 9.74 -0.2 0 0 133.01 190.08
  L 118.18 190.13
  A 0.34 0.34 0.0 0 0 117.84 190.47
  Z
  M 117.77 224.34
  L 117.97 247.26
  A 0.42 0.42 0.0 0 0 118.39 247.67
  L 135.86 247.52
  A 13.51 10.61 -0.5 0 0 149.28 236.79
  L 149.26 234.25
  A 13.51 10.61 -0.5 0 0 135.66 223.76
  L 118.19 223.91
  A 0.42 0.42 0.0 0 0 117.77 224.34
  Z"
/>
<circle fill="#ef8903" cx="175.48" cy="186.68" r="8.89"/>
<path fill="#24272a" d="
  M 280.60 187.83
  L 280.60 203.33
  A 0.81 0.80 0.0 0 0 281.41 204.13
  L 295.57 204.13
  A 0.45 0.45 0.0 0 1 296.02 204.58
  L 296.02 215.65
  A 0.50 0.50 0.0 0 1 295.52 216.15
  L 281.08 216.15
  A 0.45 0.45 0.0 0 0 280.63 216.60
  Q 280.52 230.82 280.62 240.70
  C 280.67 245.04 281.87 249.07 286.46 249.57
  Q 291.19 250.09 295.42 248.39
  A 0.47 0.47 0.0 0 1 296.06 248.83
  L 296.06 258.95
  A 1.52 1.51 -8.2 0 1 294.97 260.40
  C 288.46 262.27 277.67 262.85 272.28 258.68
  C 266.64 254.31 266.57 246.73 266.57 240.00
  Q 266.56 220.27 266.58 187.87
  A 0.65 0.65 0.0 0 1 267.23 187.22
  L 279.99 187.22
  A 0.61 0.61 0.0 0 1 280.60 187.83
  Z"
/>
<rect fill="#24272a" x="193.14" y="187.54" width="13.96" height="72.82" rx="0.47"/>
<rect fill="#24272a" x="217.57" y="187.52" width="14.00" height="72.84" rx="0.53"/>
<path fill="#ffffff" d="
  M 117.84 190.47
  A 0.34 0.34 0.0 0 1 118.18 190.13
  L 133.01 190.08
  A 12.81 9.74 -0.2 0 1 145.86 199.77
  L 145.86 201.29
  A 12.81 9.74 -0.2 0 1 133.09 211.08
  L 118.26 211.13
  A 0.34 0.34 0.0 0 1 117.92 210.79
  L 117.84 190.47
  Z"
/>
<path fill="#24272a" d="
  M 85.80 243.31
  L 94.73 250.16
  A 0.52 0.51 -53.6 0 1 94.83 250.87
  C 88.84 259.11 77.79 262.68 67.98 261.56
  C 50.23 259.54 39.23 245.46 41.60 227.79
  C 43.98 210.12 60.32 200.10 77.45 203.31
  C 93.77 206.37 98.29 222.43 97.60 236.80
  A 0.42 0.42 0.0 0 1 97.18 237.21
  L 56.19 237.21
  A 0.91 0.91 0.0 0 0 55.30 238.33
  C 58.20 250.76 70.70 253.48 80.74 247.18
  C 81.92 246.44 83.46 244.45 84.67 243.36
  A 0.90 0.88 -47.2 0 1 85.80 243.31
  Z
  M 55.74 226.67
  L 83.64 226.57
  A 0.17 0.17 0.0 0 0 83.81 226.40
  L 83.81 226.27
  A 13.48 13.00 -0.2 0 0 70.29 213.32
  L 69.01 213.32
  A 13.48 13.00 -0.2 0 0 55.57 226.37
  L 55.57 226.50
  A 0.17 0.17 0.0 0 0 55.74 226.67
  Z"
/>
<rect fill="#24272a" x="168.70" y="204.08" width="14.02" height="56.30" rx="0.52"/>
<path fill="#24272a" d="
  M 300.50 204.39
  A 0.20 0.20 0.0 0 1 300.68 204.11
  L 315.20 204.11
  A 0.95 0.94 79.0 0 1 316.08 204.71
  L 331.12 242.51
  A 0.33 0.33 0.0 0 0 331.74 242.50
  L 345.14 205.04
  A 1.43 1.42 9.9 0 1 346.48 204.10
  L 359.26 204.10
  A 0.57 0.57 0.0 0 1 359.79 204.87
  Q 359.51 205.59 334.06 271.57
  C 330.86 279.85 326.91 287.03 317.28 287.96
  Q 309.70 288.70 302.25 287.24
  A 0.57 0.57 0.0 0 1 301.80 286.61
  L 303.41 274.96
  A 0.56 0.55 -75.1 0 1 304.16 274.52
  Q 309.94 276.85 316.07 274.87
  C 319.65 273.71 322.31 266.05 324.02 261.19
  A 1.24 1.23 -46.4 0 0 324.00 260.28
  L 300.50 204.39
  Z"
/>
<rect fill="#24272a" x="241.95" y="204.11" width="14.00" height="56.28" rx="0.57"/>
<path fill="#ffffff" d="
  M 55.74 226.67
  A 0.17 0.17 0.0 0 1 55.57 226.50
  L 55.57 226.37
  A 13.48 13.00 -0.2 0 1 69.01 213.32
  L 70.29 213.32
  A 13.48 13.00 -0.2 0 1 83.81 226.27
  L 83.81 226.40
  A 0.17 0.17 0.0 0 1 83.64 226.57
  L 55.74 226.67
  Z"
/>
<path fill="#ffffff" d="
  M 117.77 224.34
  A 0.42 0.42 0.0 0 1 118.19 223.91
  L 135.66 223.76
  A 13.51 10.61 -0.5 0 1 149.26 234.25
  L 149.28 236.79
  A 13.51 10.61 -0.5 0 1 135.86 247.52
  L 118.39 247.67
  A 0.42 0.42 0.0 0 1 117.97 247.26
  L 117.77 224.34
  Z"
/>
</svg>
