<?xml version="1.0" encoding="UTF-8"?>
<svg width="279px" height="68px" viewBox="0 0 279 68" version="1.1" xmlns="http://www.w3.org/2000/svg" xmlns:xlink="http://www.w3.org/1999/xlink">
    <!-- Generator: Sketch 49.1 (51147) - http://www.bohemiancoding.com/sketch -->
    <title>Fill 1 Copy</title>
    <desc>Created with Sketch.</desc>
    <defs></defs>
    <g id="Page-1" stroke="none" stroke-width="1" fill="none" fill-rule="evenodd">
        <path d="M164.145,39 C163.875,34.68 161.085,30.271 154.246,30.271 C148.036,30.271 144.616,35.04 144.346,39 L164.145,39 Z M175.716,47 L144,47 L144,47.45 C144.27,53.21 149.22,57.53 155.16,57.53 C160.83,57.53 163.799,54.74 165.239,50.78 L174.868,54.864 C172.351,62.083 165.345,67.789 155.07,67.789 C142.831,67.789 132.211,59.06 132.211,44.12 C132.211,29.991 142.65,20.812 153.99,20.812 C167.759,20.812 175.859,29.451 175.859,43.761 C175.859,44.972 175.769,46.317 175.716,47 Z M208.516,39.115 L225,23.003 L225,22 L209.998,22 L194.998,37 L195,37 L195,7.584 L183,12.526 L183,66 L195,66 L195,51.944 L200.313,46.874 L212.589,66 L226,66 L226,66.024 L208.516,39.115 Z M124.004,32.036 C123.339,29.847 122.357,27.972 121.059,26.412 C119.76,24.852 118.113,23.637 116.12,22.767 C114.126,21.896 111.77,21.462 109.051,21.462 C105.426,21.462 102.344,22.257 99.807,23.847 C97.3,25.418 95.358,27.299 93.971,29.485 C93,27.239 91.383,25.344 89.113,23.802 C86.818,22.242 83.978,21.462 80.595,21.462 C77.695,21.462 75.051,22.122 72.665,23.441 C70.278,24.762 68.39,26.502 67,28.661 L67,28.747 L67,23 L55,23 L55,67 L67,67 L67,41.156 C67,36.894 70.023,33.082 74.243,32.478 C79.496,31.724 84,35.781 84,40.892 L84,67 L96,67 L96,41.156 C96,36.894 99.023,33.082 103.243,32.478 C108.496,31.724 113,35.781 113,40.892 L113,67 L125,67 L125,39.191 C125,36.611 124.668,34.227 124.004,32.036 Z M237.5,0 C233.358,0 230,3.357 230,7.5 C230,11.643 233.358,15 237.5,15 C241.643,15 245,11.643 245,7.5 C245,3.357 241.643,0 237.5,0 Z M38.5,0 C34.358,0 31,3.357 31,7.5 C31,11.643 34.358,15 38.5,15 C42.643,15 46,11.643 46,7.5 C46,3.357 42.643,0 38.5,0 Z M232,67 L244,67 L244,23 L232,23 L232,67 Z M33,67 L45,67 L45,23 L33,23 L33,67 Z M275.435,55.489 C274.885,55.849 274.305,56.134 273.695,56.344 C273.083,56.554 272.259,56.659 271.222,56.659 C269.633,56.659 268.412,56.179 267.557,55.219 C266.947,54.619 266.534,53.884 266.32,53.015 C266.107,52.145 266,51.199 266,50.18 L266,37.36 L266,33 L276,33 L276,23 L266,23 L266,8 L254,13 L254,52.43 C254,60.822 260.838,67.633 269.337,67.81 C270.092,67.801 270.823,67.769 271.525,67.709 C274.125,67.407 276.529,66.484 278.579,65.09 L275.435,55.489 Z M24.579,65.01 C22.529,66.404 20.125,67.327 17.525,67.629 C16.823,67.688 16.092,67.721 15.337,67.729 C6.838,67.553 0,60.742 0,52.35 L0,12.92 L12,7.92 L12,23 L22,23 L22,33 L12,33 L12,37.396 L12,50.1 C12,51.119 12.107,52.064 12.32,52.935 C12.534,53.804 12.947,54.539 13.557,55.139 C14.412,56.099 15.633,56.579 17.222,56.579 C18.259,56.579 19.083,56.474 19.695,56.264 C20.305,56.054 20.885,55.769 21.435,55.409 L24.579,65.01 Z" id="Fill-1-Copy" fill="#000000"></path>
    </g>
</svg>