<?xml version="1.0" encoding="UTF-8" standalone="no"?>
<!DOCTYPE svg PUBLIC "-//W3C//DTD SVG 1.1//EN" "http://www.w3.org/Graphics/SVG/1.1/DTD/svg11.dtd">
<svg xmlns="http://www.w3.org/2000/svg" version="1.1" viewBox="0.00 0.00 1540.00 601.00">
<g stroke-width="2.00" fill="none" stroke-linecap="butt">
<path stroke="#283342" vector-effect="non-scaling-stroke" d="
  M 509.52 514.79
  Q 507.95 507.00 504.00 502.43
  Q 488.36 484.30 472.89 464.16
  Q 447.55 431.16 425.85 404.19
  C 416.49 392.55 409.62 383.07 399.31 370.02
  Q 381.21 347.11 367.92 329.55
  C 360.40 319.59 351.82 306.58 346.29 299.15
  C 342.13 293.56 337.59 289.63 333.67 284.29
  Q 327.67 276.12 321.57 268.61
  C 316.46 262.32 313.37 257.32 307.74 249.18
  Q 297.04 233.67 287.34 222.80
  C 278.22 212.58 269.05 201.94 260.70 190.56
  Q 248.33 173.69 237.39 160.81
  C 229.27 151.23 222.45 141.47 213.88 131.42
  C 204.87 120.85 197.78 109.22 188.97 98.28
  Q 174.31 80.09 166.81 69.84
  Q 157.19 56.70 150.51 39.83"
/>
<path stroke="#969ca4" vector-effect="non-scaling-stroke" d="
  M 351.72 196.94
  Q 343.22 205.47 332.23 208.52
  Q 299.31 217.65 292.86 219.42
  A 0.15 0.07 -80.9 0 0 292.79 219.53
  Q 292.78 219.56 292.78 219.59
  Q 292.78 219.62 292.79 219.65
  A 0.15 0.07 80.7 0 0 292.86 219.76
  Q 299.32 221.50 332.27 230.52
  Q 343.27 233.53 351.80 242.03
  Q 360.32 250.53 363.37 261.52
  Q 372.50 294.43 374.27 300.88
  A 0.15 0.07 9.1 0 0 374.38 300.96
  Q 374.41 300.96 374.44 300.96
  Q 374.47 300.96 374.50 300.96
  A 0.15 0.07 -9.3 0 0 374.61 300.88
  Q 376.36 294.42 385.37 261.48
  Q 388.38 250.48 396.88 241.95
  Q 405.38 233.42 416.37 230.37
  Q 449.28 221.24 455.73 219.47
  A 0.15 0.07 -80.9 0 0 455.81 219.36
  Q 455.81 219.33 455.81 219.30
  Q 455.81 219.27 455.81 219.24
  A 0.15 0.07 80.7 0 0 455.73 219.13
  Q 449.28 217.39 416.33 208.37
  Q 405.33 205.36 396.80 196.86
  Q 388.27 188.37 385.22 177.38
  Q 376.09 144.46 374.32 138.01
  A 0.15 0.07 9.1 0 0 374.21 137.93
  Q 374.18 137.93 374.15 137.93
  Q 374.12 137.93 374.09 137.93
  A 0.15 0.07 -9.3 0 0 373.99 138.01
  Q 372.24 144.47 363.22 177.41
  Q 360.22 188.41 351.72 196.94"
/>
<path stroke="#91969d" vector-effect="non-scaling-stroke" d="
  M 1147.03 167.62
  L 1146.26 167.63"
/>
<path stroke="#786c21" vector-effect="non-scaling-stroke" d="
  M 338.74 597.54
  L 340.36 587.60"
/>
<path stroke="#847622" vector-effect="non-scaling-stroke" d="
  M 340.36 587.60
  Q 348.36 535.84 338.83 485.43
  Q 324.78 411.11 276.89 352.09
  Q 246.93 315.16 209.11 290.41
  Q 126.84 236.56 26.67 241.43"
/>
<path stroke="#786c21" vector-effect="non-scaling-stroke" d="
  M 26.67 241.43
  L 5.41 243.34"
/>
<path stroke="#d8b509" vector-effect="non-scaling-stroke" d="
  M 340.36 587.60
  C 324.94 570.73 310.10 553.36 294.54 536.68
  Q 265.76 505.81 226.93 463.98
  C 216.22 452.45 206.99 441.10 195.84 429.27
  Q 174.64 406.80 166.99 398.42
  Q 102.55 327.80 47.00 266.89
  Q 36.09 254.93 26.67 241.43"
/>
<path stroke="#c1a208" vector-effect="non-scaling-stroke" d="
  M 255.55 596.75
  C 249.92 591.23 244.23 585.68 238.99 579.96
  Q 213.49 552.21 181.13 517.24
  C 165.81 500.69 152.07 484.66 137.10 469.08
  C 124.46 455.92 115.14 444.48 103.69 432.12
  Q 93.26 420.86 78.83 403.81
  C 51.70 371.74 29.83 344.75 0.44 316.09"
/>
</g>
<path fill="#2c3849" d="
  M 290.43 0.00
  Q 291.85 0.30 293.26 0.00
  L 306.66 0.00
  Q 385.34 2.38 451.01 40.71
  C 493.04 65.24 528.48 99.57 554.29 140.67
  C 604.71 220.97 613.93 320.82 579.48 409.32
  Q 556.33 468.80 509.52 514.79
  Q 507.95 507.00 504.00 502.43
  Q 488.36 484.30 472.89 464.16
  Q 447.55 431.16 425.85 404.19
  C 416.49 392.55 409.62 383.07 399.31 370.02
  Q 381.21 347.11 367.92 329.55
  C 360.40 319.59 351.82 306.58 346.29 299.15
  C 342.13 293.56 337.59 289.63 333.67 284.29
  Q 327.67 276.12 321.57 268.61
  C 316.46 262.32 313.37 257.32 307.74 249.18
  Q 297.04 233.67 287.34 222.80
  C 278.22 212.58 269.05 201.94 260.70 190.56
  Q 248.33 173.69 237.39 160.81
  C 229.27 151.23 222.45 141.47 213.88 131.42
  C 204.87 120.85 197.78 109.22 188.97 98.28
  Q 174.31 80.09 166.81 69.84
  Q 157.19 56.70 150.51 39.83
  Q 209.02 6.36 276.62 1.05
  Q 283.13 0.54 289.64 0.00
  L 290.43 0.00
  Z
  M 351.72 196.94
  Q 343.22 205.47 332.23 208.52
  Q 299.31 217.65 292.86 219.42
  A 0.15 0.07 -80.9 0 0 292.79 219.53
  Q 292.78 219.56 292.78 219.59
  Q 292.78 219.62 292.79 219.65
  A 0.15 0.07 80.7 0 0 292.86 219.76
  Q 299.32 221.50 332.27 230.52
  Q 343.27 233.53 351.80 242.03
  Q 360.32 250.53 363.37 261.52
  Q 372.50 294.43 374.27 300.88
  A 0.15 0.07 9.1 0 0 374.38 300.96
  Q 374.41 300.96 374.44 300.96
  Q 374.47 300.96 374.50 300.96
  A 0.15 0.07 -9.3 0 0 374.61 300.88
  Q 376.36 294.42 385.37 261.48
  Q 388.38 250.48 396.88 241.95
  Q 405.38 233.42 416.37 230.37
  Q 449.28 221.24 455.73 219.47
  A 0.15 0.07 -80.9 0 0 455.81 219.36
  Q 455.81 219.33 455.81 219.30
  Q 455.81 219.27 455.81 219.24
  A 0.15 0.07 80.7 0 0 455.73 219.13
  Q 449.28 217.39 416.33 208.37
  Q 405.33 205.36 396.80 196.86
  Q 388.27 188.37 385.22 177.38
  Q 376.09 144.46 374.32 138.01
  A 0.15 0.07 9.1 0 0 374.21 137.93
  Q 374.18 137.93 374.15 137.93
  Q 374.12 137.93 374.09 137.93
  A 0.15 0.07 -9.3 0 0 373.99 138.01
  Q 372.24 144.47 363.22 177.41
  Q 360.22 188.41 351.72 196.94
  Z"
/>
<path fill="#232d3a" d="
  M 150.51 39.83
  Q 157.19 56.70 166.81 69.84
  Q 174.31 80.09 188.97 98.28
  C 197.78 109.22 204.87 120.85 213.88 131.42
  C 222.45 141.47 229.27 151.23 237.39 160.81
  Q 248.33 173.69 260.70 190.56
  C 269.05 201.94 278.22 212.58 287.34 222.80
  Q 297.04 233.67 307.74 249.18
  C 313.37 257.32 316.46 262.32 321.57 268.61
  Q 327.67 276.12 333.67 284.29
  C 337.59 289.63 342.13 293.56 346.29 299.15
  C 351.82 306.58 360.40 319.59 367.92 329.55
  Q 381.21 347.11 399.31 370.02
  C 409.62 383.07 416.49 392.55 425.85 404.19
  Q 447.55 431.16 472.89 464.16
  Q 488.36 484.30 504.00 502.43
  Q 507.95 507.00 509.52 514.79
  C 462.87 560.19 403.37 589.05 338.74 597.54
  L 340.36 587.60
  Q 348.36 535.84 338.83 485.43
  Q 324.78 411.11 276.89 352.09
  Q 246.93 315.16 209.11 290.41
  Q 126.84 236.56 26.67 241.43
  L 5.41 243.34
  C 21.97 158.65 72.80 86.56 146.35 42.38
  Q 148.35 41.18 150.51 39.83
  Z"
/>
<path fill="#ffffff" d="
  M 374.15 137.93
  Q 374.18 137.93 374.21 137.93
  A 0.15 0.07 9.1 0 1 374.32 138.01
  Q 376.09 144.46 385.22 177.38
  Q 388.27 188.37 396.80 196.86
  Q 405.33 205.36 416.33 208.37
  Q 449.28 217.39 455.73 219.13
  A 0.15 0.07 80.7 0 1 455.81 219.24
  Q 455.81 219.27 455.81 219.30
  Q 455.81 219.33 455.81 219.36
  A 0.15 0.07 -80.9 0 1 455.73 219.47
  Q 449.28 221.24 416.37 230.37
  Q 405.38 233.42 396.88 241.95
  Q 388.38 250.48 385.37 261.48
  Q 376.36 294.42 374.61 300.88
  A 0.15 0.07 -9.3 0 1 374.50 300.96
  Q 374.47 300.96 374.44 300.96
  Q 374.41 300.96 374.38 300.96
  A 0.15 0.07 9.1 0 1 374.27 300.88
  Q 372.50 294.43 363.37 261.52
  Q 360.32 250.53 351.80 242.03
  Q 343.27 233.53 332.27 230.52
  Q 299.32 221.50 292.86 219.76
  A 0.15 0.07 80.7 0 1 292.79 219.65
  Q 292.78 219.62 292.78 219.59
  Q 292.78 219.56 292.79 219.53
  A 0.15 0.07 -80.9 0 1 292.86 219.42
  Q 299.31 217.65 332.23 208.52
  Q 343.22 205.47 351.72 196.94
  Q 360.22 188.41 363.22 177.41
  Q 372.24 144.47 373.99 138.01
  A 0.15 0.07 -9.3 0 1 374.09 137.93
  Q 374.12 137.93 374.15 137.93
  Z"
/>
<path fill="#ffffff" d="
  M 904.66 147.27
  C 945.25 147.25 969.66 171.03 969.67 211.94
  C 969.69 252.84 945.29 276.63 904.70 276.65
  C 864.11 276.66 839.69 252.88 839.68 211.98
  C 839.67 171.08 864.06 147.28 904.66 147.27
  Z
  M 864.82 212.58
  C 865.17 238.96 876.80 257.50 905.30 257.12
  C 933.79 256.75 944.94 237.92 944.59 211.54
  C 944.25 185.16 932.62 166.63 904.12 167.00
  C 875.62 167.37 864.48 186.20 864.82 212.58
  Z"
/>
<path fill="#ffffff" d="
  M 777.88 148.86
  Q 833.60 148.86 835.41 148.92
  A 0.37 0.37 0.0 0 1 835.77 149.29
  L 835.77 168.09
  A 0.29 0.28 90.0 0 1 835.49 168.38
  L 790.52 168.38
  A 0.39 0.39 0.0 0 0 790.13 168.77
  L 790.13 274.66
  A 0.27 0.26 -1.8 0 1 789.88 274.92
  Q 788.48 274.98 777.88 274.98
  Q 767.27 274.98 765.87 274.92
  A 0.27 0.26 1.8 0 1 765.62 274.66
  L 765.62 168.77
  A 0.39 0.39 0.0 0 0 765.23 168.38
  L 720.26 168.38
  A 0.29 0.28 90.0 0 1 719.98 168.09
  L 719.98 149.29
  A 0.37 0.37 0.0 0 1 720.34 148.92
  Q 722.15 148.86 777.88 148.86
  Z"
/>
<path fill="#ffffff" d="
  M 1077.20 274.86
  L 1036.29 221.14
  A 0.35 0.35 0.0 0 0 1036.01 221.00
  L 1019.09 221.00
  A 0.35 0.35 0.0 0 0 1018.74 221.35
  L 1018.74 274.65
  A 0.35 0.35 0.0 0 1 1018.39 275.00
  L 994.60 275.00
  A 0.35 0.35 0.0 0 1 994.25 274.65
  L 994.25 149.22
  A 0.35 0.35 0.0 0 1 994.60 148.87
  L 1018.39 148.87
  A 0.35 0.35 0.0 0 1 1018.74 149.22
  L 1018.74 199.52
  A 0.35 0.35 0.0 0 0 1019.09 199.87
  L 1036.07 199.87
  A 0.35 0.35 0.0 0 0 1036.35 199.73
  L 1074.28 149.01
  A 0.35 0.35 0.0 0 1 1074.56 148.87
  L 1099.97 148.87
  A 0.35 0.35 0.0 0 1 1100.25 149.43
  L 1055.19 209.71
  A 0.35 0.35 0.0 0 0 1055.19 210.13
  L 1104.17 274.44
  A 0.35 0.35 0.0 0 1 1103.89 275.00
  L 1077.48 275.00
  A 0.35 0.35 0.0 0 1 1077.20 274.86
  Z"
/>
<path fill="#ffffff" d="
  M 1147.03 167.62
  L 1146.26 167.63
  Q 1146.15 167.70 1146.03 167.77
  A 0.08 0.07 75.1 0 0 1146.00 167.83
  L 1146.00 200.94
  A 0.32 0.32 0.0 0 0 1146.32 201.26
  L 1208.06 201.26
  A 0.57 0.56 -0.0 0 1 1208.63 201.82
  L 1208.63 219.29
  A 0.59 0.59 0.0 0 1 1208.04 219.88
  L 1146.59 219.88
  A 0.59 0.59 0.0 0 0 1146.00 220.47
  L 1146.00 255.76
  A 0.61 0.61 0.0 0 0 1146.61 256.37
  L 1217.67 256.37
  A 0.70 0.70 0.0 0 1 1218.37 257.07
  L 1218.37 274.41
  A 0.59 0.59 0.0 0 1 1217.78 275.00
  L 1122.19 275.00
  A 0.44 0.44 0.0 0 1 1121.75 274.56
  L 1121.75 149.45
  A 0.58 0.58 0.0 0 1 1122.33 148.87
  L 1216.82 148.87
  A 0.68 0.68 0.0 0 1 1217.50 149.55
  L 1217.50 166.96
  A 0.67 0.66 0.0 0 1 1216.83 167.62
  L 1147.03 167.62
  Z"
/>
<path fill="#ffffff" d="
  M 1308.95 205.54
  Q 1319.58 219.59 1335.26 240.85
  A 0.25 0.25 0.0 0 0 1335.71 240.70
  L 1335.71 149.48
  A 0.61 0.60 -0.0 0 1 1336.32 148.88
  L 1358.11 148.88
  A 0.66 0.66 0.0 0 1 1358.77 149.54
  L 1358.77 274.38
  A 0.62 0.62 0.0 0 1 1358.15 275.00
  L 1334.84 275.00
  A 1.50 1.48 -18.1 0 1 1333.65 274.41
  Q 1297.35 225.79 1291.72 218.35
  Q 1281.10 204.28 1265.42 183.03
  A 0.25 0.25 0.0 0 0 1264.97 183.18
  L 1264.97 274.40
  A 0.61 0.60 -0.0 0 1 1264.36 275.00
  L 1242.57 275.00
  A 0.66 0.66 0.0 0 1 1241.91 274.34
  L 1241.91 149.50
  A 0.62 0.62 0.0 0 1 1242.53 148.88
  L 1265.84 148.88
  A 1.50 1.48 -18.1 0 1 1267.03 149.47
  Q 1303.32 198.09 1308.95 205.54
  Z"
/>
<path fill="#232d3a" d="
  M 1147.03 167.62
  L 1146.26 167.63
  L 1147.03 167.62
  Z"
/>
<path fill="#e4bf09" d="
  M 340.36 587.60
  C 324.94 570.73 310.10 553.36 294.54 536.68
  Q 265.76 505.81 226.93 463.98
  C 216.22 452.45 206.99 441.10 195.84 429.27
  Q 174.64 406.80 166.99 398.42
  Q 102.55 327.80 47.00 266.89
  Q 36.09 254.93 26.67 241.43
  Q 126.84 236.56 209.11 290.41
  Q 246.93 315.16 276.89 352.09
  Q 324.78 411.11 338.83 485.43
  Q 348.36 535.84 340.36 587.60
  Z"
/>
<path fill="#ccab08" d="
  M 26.67 241.43
  Q 36.09 254.93 47.00 266.89
  Q 102.55 327.80 166.99 398.42
  Q 174.64 406.80 195.84 429.27
  C 206.99 441.10 216.22 452.45 226.93 463.98
  Q 265.76 505.81 294.54 536.68
  C 310.10 553.36 324.94 570.73 340.36 587.60
  L 338.74 597.54
  Q 297.13 602.94 255.55 596.75
  C 249.92 591.23 244.23 585.68 238.99 579.96
  Q 213.49 552.21 181.13 517.24
  C 165.81 500.69 152.07 484.66 137.10 469.08
  C 124.46 455.92 115.14 444.48 103.69 432.12
  Q 93.26 420.86 78.83 403.81
  C 51.70 371.74 29.83 344.75 0.44 316.09
  L 0.00 306.85
  L 0.00 293.27
  Q 0.68 267.85 5.41 243.34
  L 26.67 241.43
  Z"
/>
<path fill="#b59807" d="
  M 255.55 596.75
  Q 179.25 585.09 119.51 539.73
  C 48.64 485.93 5.39 405.14 0.44 316.09
  C 29.83 344.75 51.70 371.74 78.83 403.81
  Q 93.26 420.86 103.69 432.12
  C 115.14 444.48 124.46 455.92 137.10 469.08
  C 152.07 484.66 165.81 500.69 181.13 517.24
  Q 213.49 552.21 238.99 579.96
  C 244.23 585.68 249.92 591.23 255.55 596.75
  Z"
/>
<path fill="#ffffff" d="
  M 1428.38 332.92
  L 1428.38 351.78
  A 0.43 0.43 0.0 0 1 1427.86 352.20
  Q 1410.77 348.31 1393.33 349.13
  C 1378.74 349.81 1363.84 354.51 1356.35 367.39
  C 1349.31 379.52 1348.94 398.66 1353.03 412.27
  C 1358.03 428.88 1372.07 436.15 1388.60 437.65
  Q 1407.90 439.39 1427.72 433.97
  A 0.52 0.52 0.0 0 1 1428.38 434.47
  L 1428.38 453.19
  A 0.71 0.71 0.0 0 1 1427.87 453.87
  Q 1411.07 458.82 1390.01 458.05
  Q 1373.40 457.44 1360.18 452.43
  C 1336.21 443.35 1326.08 423.47 1324.98 398.74
  C 1324.42 386.29 1325.80 373.87 1330.60 363.30
  C 1341.75 338.78 1366.55 329.56 1392.28 328.89
  Q 1412.58 328.36 1427.94 332.36
  A 0.58 0.58 0.0 0 1 1428.38 332.92
  Z"
/>
<path fill="#ffffff" d="
  M 1448.16 433.08
  Q 1468.55 439.33 1490.14 438.83
  C 1500.35 438.60 1514.06 436.00 1515.31 423.26
  C 1516.56 410.51 1506.37 406.89 1496.24 404.85
  C 1477.65 401.09 1455.01 398.47 1447.13 379.49
  C 1444.32 372.73 1444.16 363.12 1446.10 356.09
  C 1455.24 322.95 1508.24 326.57 1532.52 332.75
  A 0.82 0.82 0.0 0 1 1533.13 333.54
  L 1533.13 351.91
  A 0.45 0.45 0.0 0 1 1532.56 352.34
  Q 1510.88 346.38 1488.93 348.63
  C 1479.11 349.64 1469.21 354.12 1469.06 365.49
  C 1468.92 375.52 1476.28 379.01 1484.88 381.11
  C 1497.74 384.24 1514.52 385.34 1527.98 395.28
  C 1537.52 402.32 1540.46 413.08 1539.27 424.54
  C 1536.94 447.07 1515.09 456.10 1495.48 457.58
  Q 1471.45 459.39 1448.12 452.56
  A 0.87 0.86 -82.0 0 1 1447.50 451.73
  L 1447.50 433.57
  A 0.51 0.51 0.0 0 1 1448.16 433.08
  Z"
/>
<path fill="#ffffff" d="
  M 1256.46 456.19
  A 0.27 0.27 0.0 0 1 1256.25 456.62
  L 1230.09 456.62
  A 1.17 1.16 70.2 0 1 1229.19 456.19
  L 1191.86 408.85
  A 0.92 0.92 0.0 0 0 1191.18 408.50
  L 1171.36 407.83
  A 0.35 0.35 0.0 0 0 1171.00 408.18
  L 1171.00 455.91
  A 0.60 0.60 0.0 0 1 1170.40 456.51
  L 1147.53 456.51
  A 0.67 0.66 -90.0 0 1 1146.87 455.84
  L 1146.87 333.99
  A 0.44 0.43 -6.8 0 1 1147.21 333.57
  Q 1169.04 328.84 1191.25 329.02
  C 1204.48 329.12 1218.67 330.86 1230.32 337.62
  C 1242.28 344.56 1246.52 357.53 1245.83 371.01
  C 1244.91 389.08 1233.55 400.17 1216.77 405.00
  A 0.39 0.39 0.0 0 0 1216.57 405.61
  L 1256.46 456.19
  Z
  M 1171.45 389.71
  Q 1188.46 391.64 1201.70 389.98
  C 1212.59 388.61 1221.86 383.39 1222.85 371.26
  C 1224.28 353.63 1213.20 347.69 1197.74 346.71
  Q 1184.56 345.87 1171.51 348.25
  A 0.78 0.78 0.0 0 0 1170.87 349.02
  L 1170.87 389.06
  A 0.66 0.65 3.5 0 0 1171.45 389.71
  Z"
/>
<path fill="#ffffff" d="
  M 850.75 362.49
  A 0.28 0.28 0.0 0 0 850.22 362.36
  L 812.87 437.96
  A 0.99 0.98 13.1 0 1 811.99 438.50
  L 791.83 438.50
  A 0.65 0.64 -13.7 0 1 791.26 438.16
  L 753.51 364.27
  A 0.20 0.20 0.0 0 0 753.13 364.37
  L 753.13 455.67
  A 0.71 0.71 0.0 0 1 752.42 456.38
  L 730.63 456.38
  A 0.63 0.63 0.0 0 1 730.00 455.75
  L 730.00 330.84
  A 0.58 0.58 0.0 0 1 730.58 330.26
  L 759.08 330.26
  A 0.79 0.77 -12.7 0 1 759.78 330.69
  L 801.95 414.80
  A 0.34 0.34 0.0 0 0 802.55 414.80
  L 844.01 330.91
  A 0.95 0.95 0.0 0 1 844.86 330.38
  L 873.49 330.38
  A 0.39 0.38 0.0 0 1 873.88 330.76
  L 873.88 455.88
  A 0.63 0.62 -0.0 0 1 873.25 456.50
  L 851.11 456.50
  A 0.36 0.35 0.0 0 1 850.75 456.15
  L 850.75 362.49
  Z"
/>
<path fill="#ffffff" d="
  M 995.87 349.13
  L 925.25 349.13
  A 0.38 0.38 0.0 0 0 924.87 349.51
  L 924.87 382.37
  A 0.38 0.38 0.0 0 0 925.25 382.75
  L 987.11 382.75
  A 0.38 0.38 0.0 0 1 987.49 383.13
  L 987.49 401.00
  A 0.38 0.38 0.0 0 1 987.11 401.38
  L 925.26 401.38
  A 0.38 0.38 0.0 0 0 924.88 401.76
  L 924.88 437.49
  A 0.38 0.38 0.0 0 0 925.26 437.87
  L 996.75 437.87
  A 0.38 0.38 0.0 0 1 997.13 438.25
  L 997.13 456.12
  A 0.38 0.38 0.0 0 1 996.75 456.50
  L 900.88 456.50
  A 0.38 0.38 0.0 0 1 900.50 456.12
  L 900.50 330.88
  A 0.38 0.38 0.0 0 1 900.88 330.50
  L 995.87 330.50
  A 0.38 0.38 0.0 0 1 996.25 330.88
  L 996.25 348.75
  A 0.38 0.38 0.0 0 1 995.87 349.13
  Z"
/>
<path fill="#ffffff" d="
  M 1068.50 456.50
  Q 1057.91 456.50 1056.51 456.44
  A 0.27 0.25 1.8 0 1 1056.26 456.18
  L 1056.25 350.38
  A 0.39 0.39 0.0 0 0 1055.86 349.99
  L 1010.93 350.00
  A 0.29 0.28 90.0 0 1 1010.65 349.71
  L 1010.65 330.92
  A 0.37 0.37 0.0 0 1 1011.00 330.55
  Q 1012.82 330.49 1068.49 330.49
  Q 1124.17 330.48 1125.98 330.54
  A 0.37 0.37 0.0 0 1 1126.34 330.91
  L 1126.34 349.70
  A 0.29 0.28 90.0 0 1 1126.06 349.99
  L 1081.13 349.99
  A 0.39 0.39 0.0 0 0 1080.74 350.38
  L 1080.75 456.18
  A 0.27 0.25 -1.8 0 1 1080.50 456.44
  Q 1079.10 456.50 1068.50 456.50
  Z"
/>
<rect fill="#ffffff" x="1279.00" y="330.52" width="24.50" height="125.98" rx="0.50"/>
</svg>
