<svg width="124" height="31" viewBox="0 0 124 31" fill="none" xmlns="http://www.w3.org/2000/svg" style="fill: none !important;"><path d="M39.7153 27.2237C39.5902 26.9438 39.3459 26.7651 38.9706 26.6639C39.2625 26.5745 39.4651 26.4137 39.5723 26.1814C39.6319 26.0504 39.6617 25.9075 39.6617 25.7347C39.6617 25.562 39.6319 25.4191 39.5664 25.2821C39.3936 24.8949 38.9765 24.6924 38.3867 24.6924H36.6528V28.8974H38.3747C39.0421 28.8974 39.5187 28.677 39.7153 28.2422C39.7809 28.0993 39.8107 27.9325 39.8107 27.724C39.8107 27.5215 39.7809 27.3607 39.7153 27.2237ZM37.5346 25.3059H38.0173C38.3509 25.3059 38.5892 25.3833 38.6786 25.5858C38.7144 25.6633 38.7322 25.7407 38.7322 25.8479C38.7322 25.9611 38.7144 26.0504 38.6786 26.1278C38.5892 26.3303 38.3569 26.4256 38.0351 26.4256H37.5346V25.3059ZM38.8037 27.9623C38.7024 28.1886 38.4343 28.278 38.0411 28.278H37.5346V27.051H38.059C38.4343 27.051 38.6965 27.1404 38.8037 27.3786C38.8454 27.4679 38.8633 27.5513 38.8633 27.6704C38.8633 27.7836 38.8454 27.8789 38.8037 27.9623Z" fill="#000000" fill-opacity="0.8" style="fill: #000000 !important; fill-opacity: 0.8 !important;"/><path d="M42.2854 25.9492L41.5645 27.9921L40.8614 25.9492H39.9558L41.1176 28.8736L40.6112 30.1005H41.4513L41.9458 28.8974L43.1672 25.9492H42.2854Z" fill="#000000" fill-opacity="0.8" style="fill: #000000 !important; fill-opacity: 0.8 !important;"/><path d="M44.5602 28.8974H47.2533V28.1648H45.442V27.1225H47.2355V26.4018H45.442V25.425H47.2533V24.6924H44.5602V28.8974Z" fill="#000000" fill-opacity="0.8" style="fill: #000000 !important; fill-opacity: 0.8 !important;"/><path d="M48.5705 28.8974H49.494L50.6201 25.9492H49.7323L49.0352 27.9623L48.3321 25.9492H47.4384L48.5705 28.8974Z" fill="#000000" fill-opacity="0.8" style="fill: #000000 !important; fill-opacity: 0.8 !important;"/><path d="M52.7218 28.1946C52.6086 28.3018 52.4239 28.3494 52.2094 28.3494C51.8757 28.3494 51.6493 28.2303 51.5421 27.998C51.5003 27.8968 51.4765 27.7777 51.4646 27.6347H53.7287C53.7287 27.2237 53.6989 26.9557 53.5798 26.6698C53.3533 26.1695 52.8588 25.8658 52.1736 25.8658C51.4884 25.8658 50.9939 26.1636 50.7734 26.6698C50.6781 26.8783 50.6305 27.1046 50.6305 27.4143C50.6305 27.7121 50.6722 27.9623 50.7734 28.1767C50.9999 28.6889 51.5182 28.9748 52.2272 28.9748C52.6801 28.9748 53.0912 28.8497 53.3653 28.6055C53.5619 28.4209 53.687 28.1886 53.7108 27.8908H52.8826C52.8648 27.998 52.8111 28.1171 52.7218 28.1946ZM52.1855 26.4852C52.4954 26.4852 52.7099 26.6043 52.8171 26.8306C52.8529 26.914 52.8767 26.9915 52.8886 27.1106H51.4706C51.4825 27.0034 51.5063 26.9259 51.5421 26.8426C51.6493 26.6043 51.8698 26.4852 52.1855 26.4852Z" fill="#000000" fill-opacity="0.8" style="fill: #000000 !important; fill-opacity: 0.8 !important;"/><path d="M55.8877 25.8658C55.4766 25.8658 55.1787 26.0206 54.9761 26.3065V25.9492H54.1539V28.8974H54.9761V27.2416C54.9761 26.783 55.1966 26.5507 55.5898 26.5507C55.9652 26.5507 56.1558 26.7473 56.1558 27.2118V28.8974H56.9781V27.0391C56.9781 26.2708 56.5789 25.8658 55.8877 25.8658Z" fill="#000000" fill-opacity="0.8" style="fill: #000000 !important; fill-opacity: 0.8 !important;"/><path d="M58.6155 28.951C58.8122 28.951 59.0267 28.9212 59.2173 28.8855V28.2303C59.0981 28.2601 58.979 28.272 58.8837 28.272C58.6096 28.272 58.4725 28.1469 58.4725 27.8193V26.6103H59.2352V25.9492H58.4725V25.2464H57.6503V25.9492H57.2273V26.6103H57.6503V27.9623C57.6503 28.6711 57.9423 28.951 58.6155 28.951Z" fill="#000000" fill-opacity="0.8" style="fill: #000000 !important; fill-opacity: 0.8 !important;"/><path d="M62.5371 26.5924C62.3346 26.1398 61.9294 25.8658 61.3634 25.8658C60.9642 25.8658 60.6484 26.0028 60.4339 26.2827V24.6924H59.6117V28.8974H60.416V28.54C60.6305 28.8319 60.9523 28.9748 61.3634 28.9748C61.9294 28.9748 62.3346 28.7068 62.5371 28.2541C62.6384 28.0218 62.698 27.7479 62.698 27.4262C62.698 27.0987 62.6384 26.8187 62.5371 26.5924ZM61.7328 27.9385C61.6255 28.1707 61.4051 28.2958 61.1131 28.2958C60.6841 28.2958 60.4279 28.0159 60.4279 27.5037V27.3429C60.4279 26.8306 60.6841 26.5507 61.1131 26.5507C61.4051 26.5507 61.6255 26.6758 61.7328 26.914C61.7864 27.0391 61.8162 27.1999 61.8162 27.4262C61.8162 27.6466 61.7864 27.8074 61.7328 27.9385Z" fill="#000000" fill-opacity="0.8" style="fill: #000000 !important; fill-opacity: 0.8 !important;"/><path d="M63.1202 28.8974H63.9425V26.914C63.9425 26.7294 63.9604 26.6817 64.0318 26.652C64.1033 26.789 64.2583 26.8783 64.437 26.8783C64.7349 26.8783 64.9315 26.6698 64.9315 26.378C64.9315 26.0802 64.7349 25.8777 64.4251 25.8777C64.2166 25.8777 64.0736 25.967 63.9365 26.1814V25.9492H63.1202V28.8974Z" fill="#000000" fill-opacity="0.8" style="fill: #000000 !important; fill-opacity: 0.8 !important;"/><path d="M65.6844 25.5799C65.9465 25.5799 66.1372 25.3953 66.1372 25.1451C66.1372 24.8949 65.9465 24.7103 65.6844 24.7103C65.4103 24.7103 65.2196 24.8949 65.2196 25.1451C65.2196 25.3953 65.4103 25.5799 65.6844 25.5799ZM65.2673 28.8974H66.0895V25.9492H65.2673V28.8974Z" fill="#000000" fill-opacity="0.8" style="fill: #000000 !important; fill-opacity: 0.8 !important;"/><path d="M67.8379 28.951C68.0345 28.951 68.249 28.9212 68.4397 28.8855V28.2303C68.3205 28.2601 68.2014 28.272 68.106 28.272C67.832 28.272 67.6949 28.1469 67.6949 27.8193V26.6103H68.4576V25.9492H67.6949V25.2464H66.8727V25.9492H66.4497V26.6103H66.8727V27.9623C66.8727 28.6711 67.1646 28.951 67.8379 28.951Z" fill="#000000" fill-opacity="0.8" style="fill: #000000 !important; fill-opacity: 0.8 !important;"/><path d="M70.7592 28.1946C70.646 28.3018 70.4613 28.3494 70.2468 28.3494C69.9132 28.3494 69.6868 28.2303 69.5795 27.998C69.5378 27.8968 69.514 27.7777 69.5021 27.6347H71.7662C71.7662 27.2237 71.7364 26.9557 71.6172 26.6698C71.3908 26.1695 70.8963 25.8658 70.2111 25.8658C69.5259 25.8658 69.0314 26.1636 68.8109 26.6698C68.7156 26.8783 68.6679 27.1046 68.6679 27.4143C68.6679 27.7121 68.7096 27.9623 68.8109 28.1767C69.0373 28.6889 69.5557 28.9748 70.2647 28.9748C70.7175 28.9748 71.1287 28.8497 71.4027 28.6055C71.5993 28.4209 71.7245 28.1886 71.7483 27.8908H70.9201C70.9022 27.998 70.8486 28.1171 70.7592 28.1946ZM70.223 26.4852C70.5328 26.4852 70.7473 26.6043 70.8546 26.8306C70.8903 26.914 70.9142 26.9915 70.9261 27.1106H69.508C69.5199 27.0034 69.5438 26.9259 69.5795 26.8426C69.6868 26.6043 69.9072 26.4852 70.223 26.4852Z" fill="#000000" fill-opacity="0.8" style="fill: #000000 !important; fill-opacity: 0.8 !important;"/><path fill-rule="evenodd" clip-rule="evenodd" d="M14.5189 29.0271C22.5374 29.0271 29.0378 22.5292 29.0378 14.5136C29.0378 6.49795 22.5374 0 14.5189 0C6.50033 0 0 6.49795 0 14.5136C0 22.5292 6.50033 29.0271 14.5189 29.0271Z" fill="#6064FF" style="fill: rgb(96, 100, 255) !important;"/><path fill-rule="evenodd" clip-rule="evenodd" d="M21.8416 19.0952L21.8351 19.1075L21.8345 19.1071C21.6203 19.4626 21.246 19.6559 20.7935 19.6559C20.108 19.6559 19.5523 19.1005 19.5523 18.4154C19.5523 18.2357 19.6302 18.0794 19.7152 17.9089L19.7152 17.9089L19.7152 17.9089C19.7431 17.8527 19.7719 17.7951 19.7988 17.7345L19.7951 17.732C20.1471 16.9847 20.3439 16.15 20.3439 15.2693C20.3439 12.0721 17.7505 9.48032 14.5514 9.48032C11.3524 9.48032 8.75899 12.0721 8.75899 15.2693C8.75899 16.1505 8.95604 16.9858 9.3085 17.7335C9.31356 17.7424 9.3182 17.7513 9.32241 17.7602C9.43941 18.0066 9.55043 18.2446 9.55043 18.4873C9.55043 19.1724 8.99471 19.7278 8.30919 19.7278C7.82629 19.7278 7.43931 19.5097 7.25555 19.156C7.24808 19.1416 7.24051 19.1263 7.23292 19.1101C6.62225 17.9586 6.27637 16.6453 6.27637 15.2513C6.27637 10.6939 9.97313 6.99933 14.5333 6.99933C19.0935 6.99933 22.7903 10.6939 22.7903 15.2513C22.7903 16.5944 22.4692 17.8625 21.8996 18.9833C21.8917 19.0006 21.8836 19.0173 21.8755 19.0333C21.8647 19.0544 21.8534 19.0751 21.8416 19.0952ZM16.6742 16.9592C16.6742 18.0911 15.7561 19.0087 14.6235 19.0087C13.4909 19.0087 12.5727 18.0911 12.5727 16.9592C12.5727 15.8273 13.4909 14.9097 14.6235 14.9097C15.7561 14.9097 16.6742 15.8273 16.6742 16.9592Z" fill="#000000" style="fill: #000000 !important;"/><path d="M36.6751 10.8297H33.0918V8.94379H42.26V10.8297H38.6766V20.524H36.6751V10.8297Z" fill="#000000" style="fill: #000000 !important;"/><path d="M50.7559 20.7225C49.8842 20.7225 49.0879 20.5681 48.367 20.2593C47.646 19.9394 47.0273 19.5093 46.5107 18.9689C45.9942 18.4285 45.5907 17.7999 45.3002 17.083C45.0096 16.3551 44.8643 15.5831 44.8643 14.767V14.7339C44.8643 13.9177 45.0096 13.1512 45.3002 12.4344C45.5907 11.7065 45.9996 11.0723 46.5269 10.5319C47.0542 9.98049 47.6783 9.54485 48.3993 9.22502C49.1202 8.90519 49.9165 8.74527 50.7881 8.74527C51.6598 8.74527 52.4561 8.90519 53.177 9.22502C53.898 9.53382 54.5167 9.95843 55.0333 10.4988C55.5498 11.0392 55.9533 11.6734 56.2438 12.4013C56.5344 13.1182 56.6797 13.8847 56.6797 14.7008V14.7339C56.6797 15.55 56.5344 16.322 56.2438 17.0499C55.9533 17.7668 55.5444 18.4009 55.0171 18.9524C54.4898 19.4928 53.8657 19.9229 53.1447 20.2427C52.4238 20.5626 51.6275 20.7225 50.7559 20.7225ZM50.7881 18.8366C51.3477 18.8366 51.8588 18.7318 52.3215 18.5222C52.795 18.3017 53.1986 18.0094 53.5321 17.6455C53.8657 17.2815 54.124 16.8514 54.3069 16.3551C54.5006 15.8588 54.5974 15.3294 54.5974 14.767V14.7339C54.5974 14.1714 54.5006 13.642 54.3069 13.1457C54.124 12.6384 53.8603 12.2028 53.516 11.8388C53.1824 11.4639 52.7789 11.1661 52.3054 10.9455C51.8319 10.7249 51.3154 10.6146 50.7559 10.6146C50.1963 10.6146 49.6798 10.7249 49.2063 10.9455C48.7436 11.155 48.3455 11.4473 48.0119 11.8223C47.6783 12.1862 47.4146 12.6164 47.221 13.1126C47.038 13.6089 46.9466 14.1383 46.9466 14.7008V14.7339C46.9466 15.2963 47.038 15.8257 47.221 16.322C47.4146 16.8183 47.6783 17.2539 48.0119 17.6289C48.3562 18.0039 48.7651 18.3017 49.2386 18.5222C49.7121 18.7318 50.2286 18.8366 50.7881 18.8366Z" fill="#000000" style="fill: #000000 !important;"/><path d="M60.6925 8.94379H62.5326L68.5855 16.9506V8.94379H70.5386V20.524H68.876L62.6456 12.2855V20.524H60.6925V8.94379Z" fill="#000000" style="fill: #000000 !important;"/><path d="M75.0587 8.94379H83.436V10.7635H77.0441V13.7744H82.7096V15.5941H77.0441V18.7042H83.5167V20.524H75.0587V8.94379Z" fill="#000000" style="fill: #000000 !important;"/><path d="M87.4861 8.94379H91.699C92.5813 8.94379 93.3884 9.09267 94.1201 9.39045C94.8626 9.6772 95.4975 10.0797 96.0248 10.5981C96.5628 11.1164 96.9771 11.7285 97.2676 12.4344C97.5582 13.1292 97.7035 13.8847 97.7035 14.7008V14.7339C97.7035 15.55 97.5582 16.311 97.2676 17.0168C96.9771 17.7227 96.5628 18.3348 96.0248 18.8531C95.4975 19.3715 94.8626 19.7795 94.1201 20.0773C93.3884 20.3751 92.5813 20.524 91.699 20.524H87.4861V8.94379ZM89.4715 10.7966V18.6711H91.699C92.2908 18.6711 92.8288 18.5774 93.3131 18.3899C93.7973 18.1914 94.2062 17.9212 94.5398 17.5793C94.8841 17.2264 95.1478 16.8128 95.3307 16.3386C95.5244 15.8533 95.6212 15.3294 95.6212 14.767V14.7339C95.6212 14.1714 95.5244 13.6475 95.3307 13.1623C95.1478 12.677 94.8841 12.2634 94.5398 11.9215C94.2062 11.5686 93.7973 11.2929 93.3131 11.0944C92.8288 10.8959 92.2908 10.7966 91.699 10.7966H89.4715Z" fill="#000000" style="fill: #000000 !important;"/><path d="M101.726 8.94379H110.103V10.7635H103.712V13.7744H109.377V15.5941H103.712V18.7042H110.184V20.524H101.726V8.94379Z" fill="#000000" style="fill: #000000 !important;"/><path d="M114.154 8.94379H115.994L122.047 16.9506V8.94379H124V20.524H122.337L116.107 12.2855V20.524H114.154V8.94379Z" fill="#000000" style="fill: #000000 !important;"/></svg>