<?xml version="1.0" encoding="UTF-8"?> <svg xmlns="http://www.w3.org/2000/svg" width="895" height="227" viewBox="0 0 895 227" fill="none"><path d="M450.613 76.6367C469.221 76.6369 479.675 87.8577 483.322 93.3418V78.9502H499.199V173.276H483.856V159.146C480.688 163.58 470.834 175.589 451.681 175.589C437.838 175.589 426.075 170.472 417.775 161.718C409.48 152.968 404.695 140.638 404.695 126.291C404.695 97.393 423.894 76.6367 450.613 76.6367ZM675.142 76.6367C692.554 76.6368 707.307 86.8356 708.781 104.155L708.866 105.145H693.562L693.451 104.361C692.858 100.208 691.006 96.7875 687.884 94.3936C684.75 91.9908 680.249 90.5576 674.252 90.5576C668.61 90.5576 664.055 91.9473 660.937 94.2285C657.838 96.4957 656.129 99.6561 656.129 103.343C656.129 106.08 656.932 108.129 658.298 109.737C659.682 111.367 661.699 112.608 664.227 113.611C669.33 115.637 676.114 116.561 683.15 117.993C690.094 119.406 697.213 121.309 702.595 125.354C708.045 129.45 711.631 135.678 711.631 145.503C711.631 154.493 707.906 162.047 701.399 167.335C694.909 172.61 685.706 175.589 674.785 175.589C663.681 175.589 654.872 172.562 648.624 167.256C642.37 161.945 638.764 154.419 637.944 145.587L637.852 144.592H653.338L653.451 145.372C654.223 150.688 656.476 154.678 660.096 157.356C663.735 160.049 668.859 161.491 675.497 161.491C682.297 161.491 687.459 159.834 690.899 157.128C694.319 154.438 696.11 150.659 696.11 146.215C696.11 143.142 695.296 140.808 693.915 138.966C692.523 137.11 690.507 135.689 687.998 134.541C682.933 132.223 676.171 131.136 669.174 129.674C662.266 128.23 655.173 126.423 649.812 122.591C644.375 118.704 640.786 112.784 640.786 103.343C640.786 95.2122 644.448 88.5016 650.599 83.8486C656.729 79.2105 665.297 76.6367 675.142 76.6367ZM310.348 52.0879V78.9502H338.81V92.6914H310.348V144.258C310.348 149.154 311.271 152.854 313.337 155.325C315.374 157.762 318.673 159.179 323.845 159.179H337.564V173.276H322.955C314.258 173.276 307.106 170.919 302.128 166.057C297.145 161.19 294.471 153.943 294.471 144.436V92.6914H277.037V78.9502H291.824C292.875 78.9502 293.745 78.6144 294.347 78.0293C294.942 77.4501 295.36 76.5445 295.36 75.2363V52.0879H310.348ZM368.652 78.9502V95.0332C372.104 87.3248 381.113 78.9503 394.068 78.9502H402.808V94.8262H394.246C386.057 94.8263 379.74 98.0046 375.452 103.273C371.147 108.564 368.83 116.037 368.83 124.689V173.276H352.954V78.9502H368.652ZM524.781 78.9502L525.002 79.5439L552.608 153.924L580.039 79.5459L580.259 78.9502H597.71L597.219 80.1963L560.751 172.699L560.523 173.276H544.694L544.467 172.697L508.178 80.1943L507.689 78.9502H524.781ZM623.749 78.9502V173.276H607.872V78.9502H623.749ZM452.214 91.2686C442.95 91.2686 435.15 94.8981 429.657 101.059C424.157 107.227 420.928 115.985 420.928 126.291C420.928 136.959 424.161 145.664 429.693 151.691C435.22 157.712 443.106 161.135 452.569 161.135C462.351 161.135 470.147 157.162 475.512 150.85C480.889 144.523 483.856 135.803 483.856 126.291C483.856 115.099 480.362 106.354 474.702 100.414C469.043 94.4749 461.151 91.2686 452.214 91.2686Z" fill="black" stroke="black" style="fill:black;fill-opacity:1;stroke:black;stroke-opacity:1;" stroke-width="1.8234"></path><path d="M784.018 77.1829C790.666 77.1829 796.706 78.504 802.119 81.1614L802.634 81.4055C807.912 83.9713 812.207 87.6644 815.505 92.4768H815.504C819.006 97.3681 821.019 103.208 821.566 109.964L821.646 110.948H804.282L804.187 110.145C803.491 104.324 801.332 99.7441 797.752 96.3342L797.743 96.3264C794.177 92.8452 789.584 91.0824 783.884 91.0823C778.973 91.0823 774.647 92.5001 770.873 95.3303L770.87 95.3323C767.186 98.0738 764.28 102.082 762.181 107.417C760.085 112.744 759.023 119.113 759.023 126.546C759.023 133.974 760.083 140.339 762.176 145.663H762.177C764.364 150.999 767.314 155.059 771.004 157.895H771.005C774.694 160.64 778.843 162.01 783.48 162.01C787.554 162.01 791.062 161.189 794.035 159.579L794.59 159.251C797.327 157.572 799.535 155.332 801.223 152.52L801.228 152.511L801.232 152.503C803.113 149.511 804.239 145.986 804.586 141.905L804.657 141.072H822.196L822.103 142.068C821.464 148.817 819.499 154.775 816.19 159.922L815.872 160.4C812.594 165.234 808.237 169.031 802.818 171.784L802.812 171.786C797.294 174.546 790.841 175.909 783.48 175.909C775.09 175.909 767.749 173.809 761.496 169.579L761.489 169.574L761.483 169.571C755.344 165.264 750.591 159.405 747.219 152.024L747.214 152.011C743.934 144.539 742.305 136 742.305 126.412C742.305 116.466 744.023 107.783 747.491 100.39L747.82 99.7024C751.261 92.648 756.001 87.1476 762.048 83.2346L762.054 83.2317L762.65 82.8586C768.849 79.0675 775.981 77.1829 784.018 77.1829ZM893.832 78.7942V92.6936H870.478V160.4H893.832V174.299H830.942V160.4H854.431V92.6936H830.942V78.7942H893.832Z" fill="black" stroke="black" style="fill:black;fill-opacity:1;stroke:black;stroke-opacity:1;" stroke-width="1.81961"></path><path d="M225.721 75.7242C225.519 74.7322 224.776 73.5146 223.943 73.0411C220.115 70.8315 216.243 68.7121 212.236 66.8858C210.232 65.9839 208.971 64.9016 208.161 62.8047C203.726 51.1929 197.489 40.6409 189.249 31.3289C173.467 13.449 153.88 2.94206 130.106 0.461871C119.435 -0.642939 108.943 0.2364 98.6321 3.07734C80.0359 8.21809 64.6591 18.4545 52.3441 33.2229C44.757 42.3094 38.926 52.4781 34.7835 63.5713C34.2657 64.9918 33.4777 65.7359 32.0819 66.3897C27.7818 68.3964 23.6393 70.7413 19.4067 72.9059C18.2585 73.4921 17.6957 74.4391 17.5381 75.6115C17.1103 78.7681 16.57 81.9473 16.4124 85.1264C15.9847 93.6718 17.2004 101.969 20.3523 109.996C21.568 113.107 23.2115 115.475 26.5435 116.354C26.6336 116.377 26.6786 116.602 26.5886 116.444C21.6131 122.194 16.57 127.695 11.9097 133.513C7.31692 139.262 3.71474 145.711 0 152.114C10.784 142.238 22.3335 133.513 35.0537 126.23C35.2113 127.989 35.2338 128.011 34.0856 128.688C32.4646 129.657 30.8211 130.559 29.2001 131.528C26.8812 132.926 25.7105 135.001 25.8906 137.706C26.1158 141.066 26.2058 144.47 26.9263 147.717C28.1645 153.219 29.5829 158.72 31.429 164.041C33.0049 168.573 34.8285 169.34 39.6014 168.844C42.1905 168.573 44.7796 168.19 47.5938 167.807C50.3854 176.442 54.4604 184.559 59.571 192.158C59.4134 192.316 59.2558 192.473 59.0757 192.631C50.9933 188.933 42.9109 185.258 34.8511 181.561C34.6709 181.718 34.5134 181.876 34.3332 182.034C40.3894 190.805 46.333 199.688 52.5693 208.324C55.9913 213.081 60.1789 217.185 65.447 220.003C73.3493 224.242 81.7469 224.535 90.3696 223.25C94.5796 222.619 98.6321 222.416 102.91 223.814C112.14 226.835 121.731 227.624 131.389 226.384C140.733 225.167 149.603 222.348 157.843 217.681C159.396 216.802 161.085 216.08 162.796 215.607C169.685 213.758 176.619 212.112 183.486 210.241C189.587 208.595 194.09 204.942 196.994 199.26C201.519 190.422 206.157 181.628 210.75 172.812C210.907 172.497 210.952 172.136 211.11 171.572C204.694 174.458 198.547 177.231 192.154 180.095C194.135 175.044 195.981 170.355 197.692 166.003C200.956 166.003 203.996 166.003 207.013 166.003C210.052 166.003 211.943 164.447 212.821 161.651C215.613 152.881 217.842 143.974 217.887 134.685C217.887 131.528 216.783 129.116 213.879 127.605C212.191 126.726 210.592 125.689 208.949 124.719C208.881 124.539 210.48 116.129 210.48 116.129C212.416 116.557 213.969 116.895 216.401 116.467C219.53 115.926 221.579 113.694 222.772 110.56C227.162 99.2184 228.018 87.584 225.721 75.7017V75.7242ZM37.5302 164.605C36.0218 164.56 35.639 163.365 35.3013 162.328C34.1081 158.743 32.8248 155.18 31.9918 151.528C31.1138 147.695 30.7311 143.749 30.1457 139.871C29.718 137.12 30.4609 135.023 33.2976 134.009C34.1306 133.716 34.8736 133.174 35.9992 132.566C36.9223 140.029 37.8229 147.109 38.6333 154.211C38.8134 155.812 39.2862 157.029 40.7271 157.864C41.8528 158.517 42.9785 159.261 43.9466 160.141C44.8471 160.975 45.5 162.035 46.4906 163.275C43.2036 164.357 40.4119 164.695 37.5527 164.628L37.5302 164.605ZM108.133 221.469C111.307 220.184 114.999 218.876 118.489 217.163C120.268 216.283 121.799 214.795 123.262 213.375C124.14 212.518 124.883 211.954 126.166 211.909C128.373 211.819 130.579 211.526 132.763 211.21C134.001 211.03 134.744 211.661 135.554 212.382C138.886 215.336 142.714 217.253 147.149 217.839C140.507 221.83 121.078 225.505 108.133 221.469ZM125.851 209.519C126.617 207.76 127.224 206.317 127.99 204.514C129.386 206.047 130.556 207.309 132.132 209.046C129.723 209.226 127.967 209.361 125.851 209.519ZM194.9 161.358C192.514 167.559 190.082 173.737 187.696 179.937C187.201 181.222 186.39 181.673 185.062 181.538C179.996 181.087 174.908 180.501 169.843 180.388C165.34 180.275 161.918 178.336 158.721 175.428C156.109 173.06 153.138 171.076 150.481 168.731C147.847 166.409 145.01 166.048 141.768 166.973C139.269 167.694 136.748 168.303 134.316 168.934C135.284 167.266 136.252 165.552 137.243 163.861C137.108 163.703 136.95 163.545 136.815 163.388C127.9 169.678 118.669 171.369 108.651 165.597C109.259 166.882 109.866 168.145 110.339 169.16C107.75 169.16 105.048 169.227 102.347 169.16C99.9154 169.069 97.8666 169.904 95.953 171.279C91.3377 174.571 87.7805 178.877 84.6061 183.522C83.8857 184.559 83.1653 185.394 81.8595 185.777C76.4337 187.355 71.0304 189.024 65.6272 190.692C64.7491 190.963 64.0737 191.256 63.2632 190.286C59.571 185.89 52.1865 171.279 50.7457 165.011C53.2672 166.792 55.6761 168.348 57.8825 170.129C59.4584 171.392 61.0119 171.64 62.903 171.211C77.4243 167.92 91.9455 164.65 106.489 161.403C109.821 160.652 111.998 158.615 113.018 155.293C114.909 149.093 116.801 142.892 118.692 136.692C118.737 136.534 118.849 136.421 118.984 136.128C119.525 136.038 120.178 135.903 120.808 135.835C124.725 135.384 125.243 135.7 126.369 139.397C128.328 145.846 130.309 152.272 132.177 158.72C132.695 160.502 133.551 161.178 135.442 161.358C141.881 161.967 148.297 162.846 154.736 163.59C160.027 164.199 165.34 164.763 170.631 165.372C174.21 165.778 177.812 166.161 181.37 166.702C183.351 166.995 184.994 166.747 186.66 165.462C189.317 163.41 192.176 161.606 195.215 159.509C195.125 160.299 195.148 160.907 194.945 161.426L194.9 161.358ZM195.553 126.951C194.765 132.633 193.977 138.338 193.054 143.997C192.919 144.854 192.289 145.823 191.591 146.342C188.754 148.461 185.737 150.288 182.946 152.452C181.437 153.625 179.906 153.895 178.128 153.67C173.985 153.151 169.82 152.7 165.678 152.204C158.181 151.325 150.684 150.468 143.029 149.566C141.34 144.02 139.652 138.45 137.986 132.904C137.446 131.1 136.838 129.319 136.365 127.492C135.96 125.959 135.082 125.148 133.483 124.877C132.605 124.719 131.727 124.561 130.827 124.358C129.768 124.358 128.688 124.358 127.652 124.358C122.564 124.268 117.521 124.494 112.455 124.539C112.253 124.539 112.073 124.584 111.87 124.584C109.146 124.764 107.998 126.365 107.277 128.868C105.319 135.812 103.157 142.689 101.041 149.701C95.4802 150.942 89.9643 152.159 84.4485 153.377C77.8971 154.82 71.3231 156.24 64.7716 157.751C63.6009 158.021 62.7679 157.909 61.8223 157.232C58.693 154.977 55.4735 152.813 52.3666 150.536C51.7813 150.107 51.2184 149.296 51.1284 148.597C50.0703 140.615 49.1022 132.611 48.1566 124.629C48.044 123.75 48.1566 122.825 48.1566 121.427C82.6024 112.386 141.903 105.825 196.184 121.472C195.981 123.411 195.823 125.17 195.576 126.929L195.553 126.951ZM212.551 131.979C213.114 132.453 213.406 133.535 213.451 134.347C213.857 139.397 212.844 144.335 211.763 149.205C211.02 152.542 209.872 155.789 208.904 159.081C208.453 160.614 207.508 161.358 205.819 161.133C203.726 160.862 201.609 160.727 199.358 160.524C199.29 157.503 199.943 155.18 202.667 153.985C204.761 153.084 205.257 151.302 205.527 149.228C206.382 142.734 207.328 136.241 208.318 129.319C209.872 130.266 211.335 130.942 212.551 131.957V131.979ZM218.607 107.967C217.797 110.154 215.388 112.566 213.857 112.138C209.467 111.078 172.387 98.0459 122.947 98.4067C73.4844 98.7674 42.4607 107.628 30.8887 112.859C27.2865 112.296 25.3728 110.402 24.3372 107.2C21.8157 99.534 20.5549 91.7327 20.8026 83.6834C20.8701 81.7218 21.0727 79.7376 21.1628 77.776C21.2303 76.4908 21.9282 75.7468 22.9188 75.0027C29.9881 69.7718 38.0255 66.4574 46.1079 63.2106C47.8414 62.5116 49.5975 61.8352 51.3535 61.1588C51.286 61.0235 51.241 60.8657 51.1734 60.7304C47.166 61.745 43.1361 62.7822 38.7009 63.9095C39.6239 61.6323 40.3669 59.6256 41.2674 57.6865C48.2917 42.828 58.2427 30.3143 71.5933 20.6867C82.5349 12.7952 94.6247 7.47403 108.02 5.37715C132.763 1.49904 154.894 7.69951 174.593 22.9188C187.944 33.2454 198.728 48.0589 204.536 63.8644C200.213 62.7822 196.071 61.745 191.928 60.7078C191.928 60.7755 191.928 60.8431 191.906 60.9108C197.602 63.3684 203.365 65.6682 208.949 68.3513C212.709 70.1551 216.221 72.4775 219.845 74.5969C221.466 75.5439 222.209 76.9418 222.344 78.8358C222.997 88.8016 222.142 98.542 218.607 107.967ZM189.925 73.3793C189.767 71.9138 188.889 71.057 187.583 70.9217C185.377 70.6962 185.084 69.366 185.039 67.5171C184.814 59.6481 183.351 52.0046 180.537 44.6768C179.298 41.4526 177.7 38.3636 176.282 35.2296C176.056 35.3198 175.854 35.41 175.629 35.5001C178.263 40.7085 180.109 46.1649 181.28 51.8694C182.45 57.5963 182.968 63.3459 182.855 69.4336C181.73 69.163 180.942 69.0052 180.176 68.8023C174.886 67.3142 169.595 65.826 164.327 64.2703C162.616 63.7743 160.995 63.2782 159.351 65.2398C159.216 50.9449 157.325 37.4617 150.774 25.0834C154.286 38.9499 156.154 52.884 155.006 67.1563C154.894 68.5993 154.623 69.7042 153.295 70.4031C151.877 71.1472 151.607 72.3647 151.472 73.8754C151.089 78.475 150.098 82.9393 148.004 86.6596H96.8085C94.6922 82.7139 93.7241 78.227 93.2964 73.6274C93.1613 72.1618 92.756 71.057 91.4953 70.3806C90.1445 69.6591 89.8518 68.5092 89.7617 67.0887C89.0188 55.0936 89.8968 43.2564 92.666 31.5544C92.9361 30.427 93.1838 29.3222 93.454 28.1949C93.7016 27.1802 93.9268 26.1431 94.1744 25.1285C87.4654 37.4617 85.6192 50.8547 85.4616 65.1045C83.7056 63.3459 82.1521 63.7517 80.5312 64.2703C77.8745 65.1045 75.1954 65.826 72.5163 66.5927C69.1393 67.5396 65.7397 68.4641 62.07 69.5012C61.5747 57.7542 63.8486 46.8414 68.3513 36.3569C62.2051 46.7512 59.9312 58.16 59.5035 70.1777C58.783 70.4257 58.1301 70.7413 57.4097 70.8541C55.6311 71.1472 54.9107 72.2971 54.7981 73.9205C54.4379 78.6779 54.0552 83.4354 53.83 88.1928C53.74 90.0642 54.0777 91.9357 54.2128 93.8522C51.4661 94.9344 48.8545 95.949 45.8377 97.1215C52.1865 96.0167 58.0176 94.6638 63.9161 94.0325C73.0566 93.063 82.2422 92.364 91.4277 91.9356C101.942 91.4622 112.478 91.2367 122.992 91.2367C139.202 91.2367 155.389 91.4171 171.554 92.9954C177.43 93.559 183.283 94.4384 189.137 95.2952C191.951 95.701 194.72 96.3774 197.512 96.9411L197.624 96.5804C195.26 95.6559 192.874 94.7089 190.533 93.7845C191.591 86.7723 190.713 80.0758 189.992 73.3568L189.925 73.3793ZM57.162 92.7699C56.8694 86.5018 56.7793 80.2111 57.95 73.9205C65.6947 71.7109 73.3043 69.5463 81.2291 67.2916C81.1841 74.3714 81.2966 81.2934 83.2553 88.0575C74.5876 89.6358 66.0324 91.169 57.1395 92.7924L57.162 92.7699ZM93.1613 87.3811C91 87.584 88.8162 87.8095 86.4747 88.035C84.7637 81.7894 84.1333 75.5213 84.336 68.7346C86.2946 70.2678 87.9381 71.5756 89.5816 72.9059C89.8743 73.1313 90.1445 73.5597 90.167 73.9205C90.3921 78.475 91.833 82.7589 93.2513 87.0204C93.2513 87.088 93.2288 87.1782 93.1838 87.3586L93.1613 87.3811ZM158.226 88.0124C156.019 87.8095 153.835 87.6066 151.449 87.4037C151.584 86.7949 151.697 86.2763 151.832 85.7803C152.687 82.1276 153.543 78.4525 154.443 74.7998C154.623 74.0558 154.894 73.199 155.434 72.7029C156.875 71.3952 158.473 70.2678 160.229 68.8699C160.635 75.4762 159.914 81.6767 158.226 88.0124ZM187.426 92.7699C178.736 91.1916 170.158 89.6358 161.963 88.1477C162.571 81.3836 163.224 74.4616 163.854 67.4269C169.055 68.8925 174.548 70.4482 180.041 72.004C181.932 72.5451 183.846 73.0411 185.692 73.695C186.188 73.8754 186.863 74.4391 186.908 74.9125C187.651 80.865 188.214 86.8174 187.426 92.7924V92.7699ZM157.258 142.486C162.053 142.486 165.948 137.481 165.948 131.303C165.948 125.125 162.053 120.12 157.258 120.12C152.462 120.12 148.567 125.125 148.567 131.303C148.567 137.481 152.462 142.486 157.258 142.486ZM155.907 125.103C157.28 125.103 158.383 126.207 158.383 127.583C158.383 128.958 157.28 130.063 155.907 130.063C154.533 130.063 153.43 128.958 153.43 127.583C153.43 126.207 154.533 125.103 155.907 125.103ZM85.9794 122.149C81.1841 122.149 77.2892 127.154 77.2892 133.332C77.2892 139.51 81.1841 144.516 85.9794 144.516C90.7748 144.516 94.6697 139.51 94.6697 133.332C94.6697 127.154 90.7748 122.149 85.9794 122.149ZM86.925 132.566C85.5517 132.566 84.4485 131.461 84.4485 130.085C84.4485 128.71 85.5517 127.605 86.925 127.605C88.2983 127.605 89.4015 128.71 89.4015 130.085C89.4015 131.461 88.2983 132.566 86.925 132.566Z" fill="black" style="fill:black;fill-opacity:1;"></path><path d="M141 27.4473V35.8955H126.804V78.1582H117.049V35.8955H102.771V27.4473H141Z" fill="black" stroke="black" style="fill:black;fill-opacity:1;stroke:black;stroke-opacity:1;" stroke-width="1.10609"></path></svg> 