<?xml version="1.0" encoding="UTF-8" standalone="no"?><!DOCTYPE svg PUBLIC "-//W3C//DTD SVG 1.1//EN" "http://www.w3.org/Graphics/SVG/1.1/DTD/svg11.dtd"><svg width="100%" height="100%" viewBox="0 0 4986 788" version="1.1" xmlns="http://www.w3.org/2000/svg" xmlns:xlink="http://www.w3.org/1999/xlink" xml:space="preserve" xmlns:serif="http://www.serif.com/" style="fill-rule:evenodd;clip-rule:evenodd;stroke-linejoin:round;stroke-miterlimit:2;"><g transform="matrix(3.125,0,0,3.125,0,0)"><g transform="matrix(0.774211,0,0,0.850539,16.3623,20.3371)"><rect id="Guardrails-Wordmark" serif:id="Guardrails Wordmark" x="-21.134" y="-23.911" width="2060.54" height="296.279" style="fill:none;"/><g id="Guardrails-Wordmark1" serif:id="Guardrails Wordmark"><g transform="matrix(0.815089,0,0,0.741942,-67.2297,-577.669)"><g transform="matrix(300,0,0,300,1839.57,1050.03)"><path d="M0.138,-0L0.093,-0C0.084,-0 0.079,-0.005 0.079,-0.014L0.079,-0.629C0.079,-0.638 0.084,-0.643 0.093,-0.643L0.327,-0.643C0.373,-0.643 0.409,-0.63 0.435,-0.604C0.461,-0.577 0.474,-0.541 0.474,-0.495L0.474,-0.384C0.474,-0.337 0.461,-0.301 0.435,-0.275C0.409,-0.249 0.373,-0.236 0.327,-0.236L0.162,-0.236C0.155,-0.236 0.152,-0.233 0.152,-0.227L0.152,-0.014C0.152,-0.005 0.147,-0 0.138,-0ZM0.162,-0.301L0.317,-0.301C0.373,-0.301 0.401,-0.33 0.401,-0.387L0.401,-0.492C0.401,-0.55 0.373,-0.579 0.317,-0.579L0.162,-0.579C0.155,-0.579 0.152,-0.576 0.152,-0.57L0.152,-0.31C0.152,-0.304 0.155,-0.301 0.162,-0.301Z" style="fill:#222017;fill-rule:nonzero;"/></g><g transform="matrix(300,0,0,300,2015.07,1050.03)"><path d="M0.157,-0.629L0.157,-0.014C0.157,-0.005 0.152,-0 0.143,-0L0.098,-0C0.089,-0 0.084,-0.005 0.084,-0.014L0.084,-0.629C0.084,-0.638 0.089,-0.643 0.098,-0.643L0.143,-0.643C0.152,-0.643 0.157,-0.638 0.157,-0.629Z" style="fill:#222017;fill-rule:nonzero;"/></g><g transform="matrix(300,0,0,300,2105.07,1050.03)"><path d="M0.138,-0L0.093,-0C0.084,-0 0.079,-0.005 0.079,-0.014L0.079,-0.629C0.079,-0.638 0.084,-0.643 0.093,-0.643L0.327,-0.643C0.373,-0.643 0.409,-0.63 0.435,-0.604C0.461,-0.577 0.474,-0.541 0.474,-0.495L0.474,-0.384C0.474,-0.337 0.461,-0.301 0.435,-0.275C0.409,-0.249 0.373,-0.236 0.327,-0.236L0.162,-0.236C0.155,-0.236 0.152,-0.233 0.152,-0.227L0.152,-0.014C0.152,-0.005 0.147,-0 0.138,-0ZM0.162,-0.301L0.317,-0.301C0.373,-0.301 0.401,-0.33 0.401,-0.387L0.401,-0.492C0.401,-0.55 0.373,-0.579 0.317,-0.579L0.162,-0.579C0.155,-0.579 0.152,-0.576 0.152,-0.57L0.152,-0.31C0.152,-0.304 0.155,-0.301 0.162,-0.301Z" style="fill:#222017;fill-rule:nonzero;"/></g><g transform="matrix(300,0,0,300,2279.37,1050.03)"><path d="M0.407,-0L0.093,-0C0.084,-0 0.079,-0.005 0.079,-0.014L0.079,-0.629C0.079,-0.638 0.084,-0.643 0.093,-0.643L0.407,-0.643C0.416,-0.643 0.421,-0.638 0.421,-0.629L0.421,-0.593C0.421,-0.584 0.416,-0.579 0.407,-0.579L0.162,-0.579C0.155,-0.579 0.152,-0.576 0.152,-0.57L0.152,-0.368C0.152,-0.362 0.155,-0.359 0.162,-0.359L0.376,-0.359C0.385,-0.359 0.39,-0.354 0.39,-0.345L0.39,-0.309C0.39,-0.3 0.385,-0.295 0.376,-0.295L0.162,-0.295C0.155,-0.295 0.152,-0.292 0.152,-0.286L0.152,-0.073C0.152,-0.067 0.155,-0.064 0.162,-0.064L0.407,-0.064C0.416,-0.064 0.421,-0.059 0.421,-0.05L0.421,-0.014C0.421,-0.005 0.416,-0 0.407,-0Z" style="fill:#222017;fill-rule:nonzero;"/></g><g transform="matrix(300,0,0,300,2438.07,1050.03)"><path d="M0.072,-0.148L0.072,-0.18C0.072,-0.189 0.077,-0.194 0.086,-0.194L0.131,-0.194C0.14,-0.194 0.145,-0.189 0.145,-0.18L0.145,-0.154C0.145,-0.094 0.175,-0.064 0.234,-0.064L0.322,-0.064C0.381,-0.064 0.411,-0.095 0.411,-0.156L0.411,-0.19C0.411,-0.238 0.371,-0.269 0.292,-0.284C0.259,-0.29 0.225,-0.297 0.192,-0.305C0.159,-0.313 0.13,-0.329 0.107,-0.352C0.084,-0.375 0.072,-0.406 0.072,-0.446L0.072,-0.495C0.072,-0.541 0.085,-0.577 0.112,-0.604C0.138,-0.63 0.174,-0.643 0.22,-0.643L0.331,-0.643C0.376,-0.643 0.412,-0.63 0.439,-0.604C0.466,-0.577 0.479,-0.541 0.479,-0.495L0.479,-0.47C0.479,-0.46 0.475,-0.455 0.466,-0.455L0.42,-0.455C0.411,-0.455 0.407,-0.46 0.407,-0.47L0.407,-0.488C0.407,-0.549 0.377,-0.579 0.318,-0.579L0.233,-0.579C0.174,-0.579 0.144,-0.547 0.144,-0.484L0.144,-0.444C0.144,-0.41 0.166,-0.387 0.211,-0.374C0.231,-0.369 0.253,-0.364 0.277,-0.36C0.301,-0.355 0.325,-0.349 0.35,-0.343C0.374,-0.335 0.396,-0.327 0.416,-0.317C0.436,-0.306 0.452,-0.291 0.465,-0.27C0.477,-0.249 0.483,-0.223 0.483,-0.193L0.483,-0.148C0.483,-0.102 0.47,-0.066 0.443,-0.04C0.416,-0.013 0.38,-0 0.335,-0L0.22,-0C0.175,-0 0.139,-0.013 0.112,-0.04C0.085,-0.066 0.072,-0.102 0.072,-0.148Z" style="fill:#222017;fill-rule:nonzero;"/></g></g><g transform="matrix(1.1164,-9.3892e-33,2.78026e-32,-1.01621,-12.9625,269.314)"><g id="path18" transform="matrix(1,0,0,1,1094.84,169.652)"><path d="M0,0L51.628,0L51.628,-102.841L90.318,-102.841L90.318,0L141.946,0L141.946,38.015L0,38.015L0,0Z" style="fill:#222017;fill-rule:nonzero;"/></g><g id="path42" transform="matrix(1,0,0,1,954.303,115.929)"><path d="M0,0C-0.757,3.381 -1.144,7.854 -1.144,13.308L-1.144,29.312C-1.144,34.76 -0.757,39.284 0.003,42.759C0.691,45.907 1.929,48.376 3.679,50.098C5.423,51.807 7.936,53.007 11.15,53.654C14.706,54.371 19.369,54.729 25.005,54.729L55.923,54.729C61.562,54.729 66.262,54.371 69.891,53.654C73.177,53.001 75.725,51.807 77.465,50.098C79.215,48.376 80.453,45.907 81.144,42.759C81.905,39.271 82.291,34.748 82.291,29.312L82.291,13.308C82.291,7.867 81.905,3.393 81.148,0C80.456,-3.073 79.219,-5.504 77.469,-7.226C75.709,-8.954 73.142,-10.198 69.84,-10.921C66.246,-11.712 61.562,-12.108 55.923,-12.108L25.005,-12.108C19.369,-12.108 14.725,-11.712 11.203,-10.921C7.971,-10.204 5.438,-8.96 3.679,-7.226C1.926,-5.504 0.688,-3.073 0,0M107.349,77.651C102.662,82.652 96.366,86.303 88.64,88.508C81.135,90.651 71.603,91.738 60.308,91.738L20.622,91.738C9.469,91.738 0.009,90.651 -7.493,88.508C-15.206,86.309 -21.496,82.703 -26.186,77.795C-30.87,72.888 -34.219,66.391 -36.145,58.474C-38.011,50.808 -38.957,41.339 -38.957,30.324L-38.957,12.045C-38.957,1.031 -38.011,-8.401 -36.145,-15.985C-34.219,-23.814 -30.87,-30.273 -26.186,-35.175C-21.505,-40.082 -15.212,-43.683 -7.493,-45.888C0.009,-48.03 9.469,-49.118 20.622,-49.118L60.308,-49.118C71.603,-49.118 81.135,-48.03 88.64,-45.888C96.363,-43.683 102.653,-40.076 107.334,-35.175C112.012,-30.273 115.364,-23.821 117.293,-15.985C119.159,-8.388 120.105,1.043 120.105,12.045L120.105,30.073C120.105,41.075 119.159,50.544 117.293,58.222C115.364,66.146 112.021,72.68 107.349,77.651" style="fill:#222017;fill-rule:nonzero;"/></g><g id="path38" transform="matrix(1,0,0,1,772.731,115.879)"><path d="M0,0C-0.691,3.374 -1.043,7.785 -1.043,13.113L-1.043,54.779L61.282,54.779C66.174,54.779 70.268,54.421 73.438,53.717C76.275,53.082 78.493,51.939 80.026,50.33C81.575,48.703 82.68,46.271 83.315,43.104C84.013,39.604 84.365,34.986 84.365,29.362L84.365,13.358C84.365,7.898 84.013,3.405 83.321,0C82.68,-3.11 81.562,-5.555 79.988,-7.276C78.446,-8.973 76.224,-10.186 73.381,-10.883C70.243,-11.668 66.171,-12.058 61.282,-12.058L21.816,-12.058C16.931,-12.058 12.9,-11.668 9.837,-10.889C7.059,-10.186 4.873,-8.973 3.327,-7.276C1.753,-5.555 0.635,-3.104 0,0M109.407,77.845C104.717,82.753 98.427,86.353 90.714,88.559C83.208,90.701 73.673,91.788 62.379,91.788L-1.043,91.788L-1.043,135.936L-38.86,135.936L-38.86,12.202C-38.86,1.162 -37.911,-8.282 -36.045,-15.878C-34.119,-23.72 -30.77,-30.186 -26.089,-35.099C-21.401,-40.019 -15.109,-43.626 -7.396,-45.832C0.104,-47.974 9.56,-49.067 20.72,-49.067L62.379,-49.067C73.673,-49.067 83.208,-47.98 90.714,-45.838C98.436,-43.632 104.726,-40.026 109.41,-35.125C114.082,-30.223 117.431,-23.77 119.366,-15.935C121.233,-8.338 122.178,1.093 122.178,12.095L122.178,30.374C122.178,41.376 121.233,50.845 119.366,58.524C117.434,66.447 114.085,72.944 109.407,77.845" style="fill:#222017;fill-rule:nonzero;"/></g><g id="path34" transform="matrix(1,0,0,1,625.321,204.538)"><path d="M0,0C-7.402,-2.293 -13.56,-5.932 -18.3,-10.826C-23.035,-15.709 -26.529,-22.023 -28.684,-29.595C-30.786,-36.965 -31.851,-45.982 -31.851,-56.388L-31.851,-137.727L5.963,-137.727L5.963,-56.639C5.963,-51.505 6.346,-47.226 7.107,-43.915C7.804,-40.861 8.926,-38.467 10.449,-36.796C11.948,-35.143 13.949,-34 16.563,-33.283C19.406,-32.51 23.016,-32.121 27.289,-32.121L88.114,-32.121L88.114,3.381L26.412,3.381C16.114,3.381 7.229,2.243 0,0" style="fill:#222017;fill-rule:nonzero;"/></g><g id="path30" transform="matrix(1,0,0,1,535.216,129.087)"><path d="M0,0C0,-5.624 -0.386,-10.204 -1.147,-13.604C-1.844,-16.708 -3.019,-19.114 -4.643,-20.767C-6.258,-22.407 -8.596,-23.557 -11.596,-24.191C-14.92,-24.908 -19.177,-25.266 -24.245,-25.266L-58.53,-25.266C-63.306,-25.266 -67.374,-24.908 -70.626,-24.198C-73.566,-23.557 -75.92,-22.394 -77.616,-20.735C-79.319,-19.07 -80.604,-16.632 -81.433,-13.509C-82.322,-10.154 -82.775,-5.605 -82.775,0L-82.775,78.832L-120.592,78.832L-120.592,-1.005C-120.592,-12.039 -119.643,-21.483 -117.774,-29.086C-115.845,-36.934 -112.489,-43.4 -107.802,-48.307C-103.105,-53.227 -96.809,-56.834 -89.083,-59.039C-81.578,-61.182 -72.106,-62.275 -60.93,-62.275L-22.284,-62.275C-10.968,-62.275 -1.389,-61.182 6.189,-59.039C13.99,-56.84 20.33,-53.227 25.027,-48.307C29.714,-43.4 33.07,-36.934 34.999,-29.086C36.868,-21.471 37.817,-12.02 37.817,-1.005L37.817,78.832L0,78.832L0,0Z" style="fill:#222017;fill-rule:nonzero;"/></g><g id="path14" transform="matrix(1,0,0,1,252.242,169.652)"><path d="M0,0L51.628,0L51.628,-102.841L90.318,-102.841L90.318,0L141.945,0L141.945,38.015L0,38.015L0,0Z" style="fill:#222017;fill-rule:nonzero;"/></g></g><g transform="matrix(1.11652,1.15933e-32,-1.12901e-32,-1.01632,-12.9699,270.897)"><g id="path46" transform="matrix(1,0,0,1,87.9191,48.3525)"><path d="M0,0C0.61,-3.768 0.989,-7.536 1.283,-11.304C1.444,-13.188 1.524,-15.072 1.648,-16.956C1.748,-18.84 1.794,-20.724 1.869,-22.608L1.954,-24.717L-0.395,-24.436C-0.669,-24.403 -1.117,-24.363 -1.5,-24.349C-1.897,-24.319 -2.302,-24.32 -2.706,-24.322C-3.516,-24.336 -4.325,-24.416 -5.123,-24.547C-5.921,-24.683 -6.698,-24.894 -7.465,-25.129C-8.22,-25.396 -8.976,-25.662 -9.686,-26.033C-10.059,-26.185 -10.393,-26.407 -10.736,-26.615C-11.073,-26.83 -11.437,-27.007 -11.742,-27.272C-12.393,-27.748 -13.016,-28.258 -13.601,-28.83C-14.236,-29.344 -14.721,-30.024 -15.282,-30.633C-15.569,-30.933 -15.769,-31.31 -16.019,-31.644L-16.745,-32.677L-17.765,-34.129L-19.005,-33.321C-19.18,-33.207 -19.496,-33.042 -19.764,-32.916C-20.049,-32.785 -20.338,-32.661 -20.637,-32.555C-21.23,-32.33 -21.844,-32.178 -22.464,-32.053C-23.085,-31.958 -23.708,-31.882 -24.339,-31.88C-24.654,-31.875 -24.96,-31.926 -25.278,-31.943C-25.6,-31.946 -25.891,-32.066 -26.206,-32.12C-26.525,-32.168 -26.817,-32.292 -27.119,-32.402C-27.42,-32.515 -27.742,-32.599 -28.018,-32.778L-28.892,-33.255L-29.698,-33.869C-30.286,-34.24 -30.706,-34.804 -31.236,-35.279C-31.707,-35.805 -32.146,-36.374 -32.614,-36.938C-32.343,-36.273 -32.103,-35.571 -31.785,-34.9C-31.385,-34.285 -31.086,-33.571 -30.571,-33.007L-29.826,-32.126L-28.944,-31.357C-28.658,-31.079 -28.309,-30.89 -27.973,-30.674C-27.638,-30.453 -27.289,-30.251 -26.91,-30.114C-26.534,-29.975 -26.168,-29.772 -25.773,-29.69C-25.382,-29.595 -24.988,-29.468 -24.589,-29.404C-23.787,-29.272 -22.973,-29.207 -22.163,-29.251C-21.359,-29.307 -20.556,-29.408 -19.773,-29.599C-19.38,-29.686 -18.991,-29.797 -18.604,-29.922C-18.204,-30.057 -17.859,-30.175 -17.396,-30.392L-19.656,-31.035L-18.92,-29.768C-18.659,-29.354 -18.451,-28.907 -18.141,-28.519C-17.534,-27.738 -17.001,-26.896 -16.276,-26.194C-15.926,-25.836 -15.602,-25.449 -15.223,-25.117L-14.045,-24.163C-13.665,-23.828 -13.218,-23.58 -12.796,-23.3C-12.368,-23.026 -11.946,-22.742 -11.483,-22.531C-10.588,-22.043 -9.644,-21.666 -8.686,-21.325C-7.71,-21.046 -6.727,-20.809 -5.728,-20.664C-4.729,-20.524 -3.725,-20.451 -2.718,-20.458C-2.214,-20.467 -1.71,-20.48 -1.203,-20.529C-0.68,-20.578 -0.224,-20.65 0.394,-20.781L-1.87,-22.608C-1.794,-20.724 -1.748,-18.84 -1.648,-16.956C-1.524,-15.072 -1.444,-13.188 -1.283,-11.304C-0.989,-7.536 -0.61,-3.768 0,0" style="fill:#232118;fill-rule:nonzero;"/></g><g id="path50" transform="matrix(1,0,0,1,75.2254,48.3525)"><path d="M0,0C0.444,-2.643 0.792,-5.287 1.086,-7.93C1.391,-10.573 1.64,-13.216 1.845,-15.86L2.018,-18.078L-0.632,-17.594C-0.872,-17.55 -1.259,-17.475 -1.592,-17.434C-1.939,-17.386 -2.289,-17.354 -2.642,-17.333C-3.342,-17.267 -4.045,-17.264 -4.739,-17.284C-5.433,-17.327 -6.115,-17.404 -6.78,-17.535C-7.116,-17.582 -7.434,-17.699 -7.759,-17.774C-8.088,-17.842 -8.394,-17.971 -8.703,-18.085C-9.33,-18.291 -9.905,-18.599 -10.489,-18.872L-11.313,-19.379C-11.6,-19.525 -11.832,-19.765 -12.09,-19.956C-12.335,-20.169 -12.617,-20.324 -12.831,-20.58L-13.517,-21.277C-13.973,-21.742 -14.337,-22.319 -14.759,-22.82L-15.982,-24.277L-17.898,-23.83C-18.383,-23.717 -19.047,-23.554 -19.644,-23.437C-20.264,-23.337 -20.879,-23.199 -21.506,-23.139C-22.752,-22.979 -24.01,-22.869 -25.24,-22.892C-25.858,-22.887 -26.474,-22.89 -27.072,-22.965C-27.674,-23.028 -28.288,-23.029 -28.861,-23.158C-29.432,-23.281 -30.053,-23.296 -30.587,-23.496C-31.129,-23.673 -31.705,-23.793 -32.227,-24L-33.762,-24.668L-35.141,-25.557C-35.632,-25.819 -35.95,-26.281 -36.384,-26.618C-36.584,-26.804 -36.803,-26.974 -36.997,-27.171L-37.492,-27.848C-37.801,-28.317 -38.227,-28.702 -38.467,-29.237L-39.244,-30.814C-39.56,-31.312 -39.645,-31.944 -39.855,-32.515L-40.439,-34.271L-41.268,-36.76L-43.253,-36.192C-43.448,-36.136 -43.921,-36.05 -44.293,-36.027C-44.69,-35.979 -45.096,-35.991 -45.505,-35.983C-46.315,-36.026 -47.135,-36.124 -47.924,-36.339C-48.325,-36.432 -48.728,-36.535 -49.104,-36.705C-49.495,-36.847 -49.885,-36.999 -50.241,-37.223C-50.606,-37.428 -50.997,-37.607 -51.322,-37.887C-51.653,-38.156 -52.037,-38.373 -52.341,-38.688L-53.307,-39.602C-53.616,-39.926 -53.876,-40.301 -54.17,-40.652C-54.469,-41.001 -54.745,-41.373 -54.967,-41.785L-55.712,-42.987C-55.958,-43.394 -56.135,-43.84 -56.352,-44.27L-56.973,-45.587L-58.032,-48.353C-58.007,-47.362 -57.93,-46.365 -57.876,-45.35L-57.607,-43.858C-57.503,-43.36 -57.44,-42.846 -57.298,-42.352C-56.967,-41.38 -56.724,-40.353 -56.208,-39.423C-55.966,-38.952 -55.755,-38.457 -55.477,-37.996L-54.558,-36.645C-54.244,-36.195 -53.823,-35.825 -53.451,-35.41C-53.085,-34.984 -52.631,-34.651 -52.19,-34.295C-51.76,-33.921 -51.28,-33.62 -50.785,-33.333C-50.303,-33.016 -49.786,-32.774 -49.257,-32.547C-48.208,-32.065 -47.079,-31.808 -45.945,-31.601C-45.372,-31.533 -44.799,-31.453 -44.212,-31.443C-43.602,-31.421 -43.094,-31.423 -42.319,-31.52L-45.131,-33.44L-44.695,-31.19C-44.523,-30.439 -44.428,-29.681 -44.087,-28.952L-43.193,-26.746C-42.903,-26.006 -42.374,-25.351 -41.961,-24.651L-41.291,-23.621C-41.03,-23.303 -40.735,-23.008 -40.455,-22.702C-39.863,-22.126 -39.361,-21.425 -38.657,-20.98C-37.981,-20.5 -37.307,-20.001 -36.608,-19.558L-34.394,-18.484C-33.643,-18.172 -32.865,-17.983 -32.098,-17.736C-31.329,-17.465 -30.552,-17.412 -29.778,-17.247C-29,-17.081 -28.232,-17.041 -27.46,-16.995C-26.685,-16.926 -25.923,-16.937 -25.163,-16.961C-23.637,-16.975 -22.141,-17.142 -20.661,-17.37C-19.917,-17.465 -19.187,-17.64 -18.451,-17.781C-17.702,-17.962 -17.021,-18.104 -16.185,-18.387L-19.324,-19.397C-18.691,-18.712 -18.122,-17.987 -17.423,-17.361L-16.362,-16.437C-16.024,-16.115 -15.598,-15.883 -15.217,-15.608C-14.819,-15.353 -14.451,-15.058 -14.018,-14.858L-12.756,-14.214C-11.88,-13.87 -11.011,-13.488 -10.09,-13.316C-9.636,-13.209 -9.184,-13.095 -8.724,-13.049C-8.266,-12.997 -7.811,-12.907 -7.354,-12.893C-6.44,-12.83 -5.535,-12.84 -4.638,-12.899C-3.744,-12.981 -2.86,-13.096 -1.993,-13.291C-1.56,-13.392 -1.13,-13.509 -0.703,-13.645C-0.262,-13.784 0.119,-13.917 0.631,-14.126L-1.845,-15.86C-1.64,-13.216 -1.391,-10.573 -1.085,-7.93C-0.792,-5.287 -0.444,-2.643 0,0" style="fill:#232118;fill-rule:nonzero;"/></g><g id="path54" transform="matrix(1,0,0,1,158.645,0)"><path d="M0,0C-0.377,0.924 -0.706,1.859 -1.061,2.788L-1.681,4.099C-1.898,4.526 -2.07,4.962 -2.315,5.368L-3.061,6.57C-3.282,6.982 -3.558,7.354 -3.857,7.703C-4.15,8.055 -4.41,8.43 -4.72,8.755L-5.686,9.669C-5.99,9.984 -6.375,10.201 -6.705,10.471C-7.03,10.752 -7.421,10.931 -7.787,11.137C-8.142,11.36 -8.533,11.513 -8.924,11.655C-9.301,11.826 -9.703,11.929 -10.104,12.023C-10.896,12.234 -11.715,12.336 -12.527,12.378C-12.935,12.37 -13.342,12.382 -13.739,12.335C-14.112,12.312 -14.585,12.225 -14.781,12.17L-16.76,11.606L-17.583,14.083L-18.168,15.84C-18.385,16.409 -18.464,17.044 -18.782,17.541L-19.558,19.119C-19.799,19.655 -20.225,20.039 -20.534,20.509L-21.029,21.186C-21.223,21.383 -21.442,21.554 -21.643,21.74C-22.074,22.081 -22.4,22.534 -22.886,22.802L-24.259,23.703L-25.792,24.385C-26.316,24.592 -26.895,24.706 -27.439,24.88C-27.975,25.077 -28.598,25.087 -29.17,25.206C-29.743,25.333 -30.359,25.328 -30.96,25.382C-31.558,25.452 -32.174,25.451 -32.792,25.442C-34.022,25.462 -35.275,25.328 -36.522,25.186C-37.149,25.13 -37.765,24.996 -38.385,24.901C-38.982,24.785 -39.649,24.637 -40.132,24.514L-42.026,24.034L-43.28,25.527C-43.701,26.028 -44.065,26.605 -44.52,27.07L-45.206,27.767C-45.42,28.022 -45.702,28.178 -45.946,28.391C-46.204,28.582 -46.436,28.821 -46.722,28.967L-47.546,29.475C-48.129,29.751 -48.706,30.051 -49.332,30.258C-49.64,30.373 -49.947,30.501 -50.275,30.57C-50.6,30.644 -50.917,30.761 -51.253,30.809C-51.918,30.94 -52.6,31.017 -53.293,31.06C-53.987,31.081 -54.689,31.079 -55.389,31.011C-55.741,30.987 -56.092,30.958 -56.438,30.909C-56.77,30.869 -57.157,30.794 -57.397,30.751L-60.062,30.267L-59.886,32.493C-59.678,35.136 -59.432,37.779 -59.123,40.423C-58.829,43.066 -58.478,45.709 -58.032,48.353C-57.586,45.709 -57.235,43.066 -56.941,40.423C-56.633,37.779 -56.387,35.136 -56.178,32.493L-58.666,34.235C-58.153,34.444 -57.773,34.578 -57.331,34.717C-56.904,34.852 -56.474,34.972 -56.041,35.07C-55.172,35.263 -54.289,35.38 -53.394,35.461C-52.497,35.521 -51.591,35.532 -50.677,35.468C-50.22,35.455 -49.765,35.365 -49.306,35.313C-48.846,35.267 -48.394,35.153 -47.939,35.046C-47.018,34.875 -46.151,34.486 -45.274,34.145L-44.011,33.5C-43.578,33.3 -43.209,33.005 -42.811,32.751C-42.43,32.475 -42.003,32.244 -41.665,31.921L-40.603,30.997C-39.904,30.371 -39.335,29.646 -38.702,28.961L-41.849,29.974C-41.011,30.248 -40.333,30.403 -39.584,30.586C-38.849,30.731 -38.119,30.911 -37.376,31.011C-35.896,31.255 -34.396,31.399 -32.87,31.409C-32.109,31.429 -31.347,31.436 -30.572,31.363C-29.8,31.309 -29.033,31.262 -28.256,31.093C-27.483,30.924 -26.707,30.867 -25.94,30.594C-25.175,30.343 -24.4,30.149 -23.651,29.836L-21.434,28.776C-20.735,28.337 -20.059,27.842 -19.381,27.366C-18.672,26.927 -18.178,26.217 -17.583,25.645C-17.303,25.339 -17.008,25.044 -16.747,24.727L-16.077,23.697C-15.664,22.997 -15.135,22.342 -14.845,21.603L-13.951,19.398C-13.612,18.669 -13.511,17.913 -13.347,17.16L-12.91,14.911L-15.712,16.824C-14.938,16.92 -14.429,16.923 -13.82,16.901C-13.234,16.891 -12.66,16.811 -12.088,16.743C-10.955,16.536 -9.825,16.283 -8.778,15.797C-8.249,15.57 -7.732,15.328 -7.251,15.012C-6.756,14.725 -6.276,14.424 -5.846,14.051C-5.406,13.695 -4.952,13.363 -4.586,12.937C-4.214,12.523 -3.793,12.153 -3.478,11.704L-2.561,10.352C-2.283,9.891 -2.071,9.397 -1.829,8.926C-1.312,7.997 -1.07,6.97 -0.739,5.998C-0.596,5.503 -0.528,4.979 -0.424,4.479C-0.333,3.974 -0.226,3.475 -0.154,2.981C-0.104,1.987 -0.028,0.999 0,0" style="fill:#232118;fill-rule:nonzero;"/></g><g id="path58" transform="matrix(1,0,0,1,100.613,24.1763)"><path d="M0,0C1.389,-0.016 2.764,-0.364 4.092,-0.844C5.415,-1.351 6.663,-2.088 7.786,-3.011C8.88,-3.961 9.858,-5.089 10.558,-6.385C11.279,-7.668 11.749,-9.079 11.997,-10.508L10.503,-9.881C10.856,-9.666 11.136,-9.52 11.454,-9.374C11.762,-9.222 12.079,-9.107 12.395,-8.989C13.033,-8.774 13.677,-8.584 14.331,-8.458C15.636,-8.183 16.973,-8.118 18.284,-8.206C19.59,-8.34 20.888,-8.547 22.098,-9.016C23.317,-9.445 24.471,-10.009 25.539,-10.689C24.311,-10.355 23.123,-9.986 21.894,-9.833C20.678,-9.633 19.458,-9.591 18.26,-9.623C17.058,-9.661 15.88,-9.88 14.739,-10.174C14.168,-10.321 13.615,-10.525 13.075,-10.745C12.812,-10.868 12.541,-10.978 12.288,-11.108C12.035,-11.226 11.764,-11.383 11.583,-11.497L10.388,-12.247L10.088,-10.87C9.817,-9.626 9.406,-8.429 8.843,-7.308C8.249,-6.205 7.535,-5.157 6.633,-4.251C4.853,-2.426 2.569,-0.975 0,0" style="fill:#232118;fill-rule:nonzero;"/></g><g id="path62" transform="matrix(1,0,0,1,99.5018,62.1478)"><path d="M0,0L0,24.53C0,26.344 -1.472,27.837 -3.285,27.837L-19.859,27.837C-21.672,27.837 -23.165,26.344 -23.165,24.53L-23.165,0C-23.165,-1.813 -21.672,-3.306 -19.859,-3.306L-3.285,-3.306C-1.472,-3.306 0,-1.813 0,0M6.613,24.53L6.613,0C6.613,-5.461 2.176,-9.919 -3.285,-9.919L-19.859,-9.919C-25.32,-9.919 -29.778,-5.461 -29.778,0L-29.778,24.53C-29.778,29.991 -25.32,34.449 -19.859,34.449L-3.285,34.449C2.176,34.449 6.613,29.991 6.613,24.53" style="fill:#232118;fill-rule:nonzero;"/></g><g id="path66" transform="matrix(1,0,0,1,99.5018,86.6783)"><path d="M0,0L0,-24.53C0,-26.344 -1.472,-27.837 -3.285,-27.837L-19.859,-27.837C-21.672,-27.837 -23.165,-26.344 -23.165,-24.53L-23.165,0C-23.165,1.813 -21.672,3.306 -19.859,3.306L-3.285,3.306C-1.472,3.306 0,1.813 0,0" style="fill:#fcc119;fill-rule:nonzero;"/></g><g id="path70" transform="matrix(1,0,0,1,96.2168,89.9846)"><path d="M0,0L-5.155,0C-3.342,0 -1.87,-1.493 -1.87,-3.306L-1.87,-27.837C-1.87,-29.65 -3.342,-31.143 -5.155,-31.143L0,-31.143C1.813,-31.143 3.285,-29.65 3.285,-27.837L3.285,-3.306C3.285,-1.493 1.813,0 0,0" style="fill:#e9a722;fill-rule:nonzero;"/></g><g id="path74" transform="matrix(1,0,0,1,155.202,128.949)"><path d="M0,0C2.536,0.828 8.537,-4.662 11.855,-14.821C15.172,-24.98 13.573,-32.974 11.037,-33.802C8.523,-34.623 2.493,-29.12 -0.824,-18.961C-4.141,-8.802 -2.515,-0.821 0,0" style="fill:#fcc119;fill-rule:nonzero;"/></g><g id="path78" transform="matrix(1,0,0,1,153.215,135.032)"><path d="M0,0C7.227,2.36 15.903,-5.735 20.18,-18.834C24.457,-31.933 22.237,-43.609 15.01,-45.968C7.784,-48.328 -0.899,-40.213 -5.177,-27.114C-9.454,-14.015 -7.227,-2.36 0,0M13.024,-39.885C15.559,-39.057 17.158,-31.063 13.841,-20.904C10.524,-10.745 4.522,-5.255 1.986,-6.083C-0.528,-6.904 -2.155,-14.885 1.163,-25.044C4.48,-35.203 10.509,-40.706 13.024,-39.885" style="fill:#232118;fill-rule:nonzero;"/></g><g id="path82" transform="matrix(1,0,0,1,167.056,114.128)"><path d="M0,0C-3.317,10.159 -9.319,15.649 -11.855,14.821C-12.238,14.696 -12.597,14.385 -12.925,13.944C-9.984,12.714 -5.541,7.553 -2.855,-0.671C-0.045,-9.278 -0.768,-16.313 -2.595,-18.77C-1.904,-19.061 -1.296,-19.137 -0.817,-18.981C1.718,-18.153 3.317,-10.159 0,0" style="fill:#e9a722;fill-rule:nonzero;"/></g><g id="path86" transform="matrix(1,0,0,1,9.6041,95.148)"><path d="M0,0C2.536,-0.828 8.537,4.662 11.855,14.821C15.172,24.98 13.573,32.974 11.037,33.802C8.523,34.623 2.493,29.12 -0.824,18.961C-4.141,8.802 -2.515,0.821 0,0" style="fill:#fcc119;fill-rule:nonzero;"/></g><g id="path90" transform="matrix(1,0,0,1,2.4412,116.179)"><path d="M0,0C4.277,13.099 12.96,21.214 20.187,18.855C27.413,16.495 29.634,4.819 25.357,-8.28C21.079,-21.379 12.403,-29.474 5.177,-27.114C-2.05,-24.754 -4.277,-13.099 0,0M6.339,-2.07C3.022,-12.229 4.648,-20.21 7.163,-21.031C9.699,-21.859 15.7,-16.369 19.017,-6.21C22.335,3.949 20.736,11.943 18.2,12.771C15.686,13.592 9.656,8.089 6.339,-2.07" style="fill:#232118;fill-rule:nonzero;"/></g><g id="path94" transform="matrix(1,0,0,1,21.4588,109.969)"><path d="M0,0C-3.317,-10.159 -9.319,-15.649 -11.855,-14.821C-12.238,-14.696 -12.597,-14.385 -12.925,-13.944C-9.984,-12.714 -5.541,-7.553 -2.855,0.671C-0.045,9.278 -0.768,16.313 -2.595,18.77C-1.904,19.061 -1.296,19.138 -0.817,18.981C1.718,18.153 3.317,10.159 0,0" style="fill:#e9a722;fill-rule:nonzero;"/></g><g id="path98" transform="matrix(1,0,0,1,137.449,108.841)"><path d="M0,0C1.857,-9.258 0.217,-17.918 -4.622,-24.381C-9.462,-30.866 -16.948,-34.428 -25.718,-34.428L-73.342,-34.428C-82.112,-34.428 -89.598,-30.866 -94.438,-24.381C-99.277,-17.918 -100.917,-9.258 -99.06,0L-93.351,28.37C-89.342,48.357 -70.656,64.611 -51.732,64.611L-47.328,64.611C-28.385,64.611 -9.718,48.357 -5.708,28.37L0,0Z" style="fill:#fcc119;fill-rule:nonzero;"/></g><g id="path102" transform="matrix(1,0,0,1,132.827,84.4599)"><path d="M0,0C4.839,6.463 6.479,15.124 4.622,24.381L-1.086,52.751C-5.096,72.738 -23.763,88.992 -42.705,88.992L-47.11,88.992C-66.033,88.992 -84.72,72.738 -88.729,52.751L-94.438,24.381C-96.295,15.124 -94.655,6.463 -89.816,0C-84.976,-6.485 -77.49,-10.047 -68.72,-10.047L-21.096,-10.047C-12.326,-10.047 -4.839,-6.485 0,0M12.346,26.194C14.716,14.377 12.523,3.157 6.163,-5.354C-0.217,-13.886 -9.896,-18.579 -21.096,-18.579L-68.72,-18.579C-79.919,-18.579 -89.598,-13.886 -95.959,-5.375C-102.339,3.157 -104.531,14.377 -102.161,26.194L-96.453,54.564C-91.692,78.263 -69.549,97.525 -47.11,97.525L-42.705,97.525C-20.247,97.525 1.877,78.263 6.637,54.564L12.346,26.194Z" style="fill:#232118;fill-rule:nonzero;"/></g><g id="path106" transform="matrix(1,0,0,1,132.71,84.4599)"><path d="M0,0C-4.84,-6.485 -12.326,-10.047 -21.096,-10.047L-27.527,-10.047C-18.757,-10.047 -11.271,-6.485 -6.431,0C-1.592,6.463 0.048,15.123 -1.809,24.381L-7.518,52.751C-11.456,72.381 -29.552,88.372 -48.124,88.939C-47.786,88.949 -47.449,88.992 -47.11,88.992L-42.705,88.992C-23.782,88.992 -5.096,72.738 -1.086,52.751L4.622,24.381C6.479,15.123 4.839,6.463 0,0" style="fill:#e9a722;fill-rule:nonzero;"/></g><g id="path110" transform="matrix(1,0,0,1,46.6654,102.418)"><path d="M0,0C0,-1.622 -1.314,-2.936 -2.936,-2.936C-4.557,-2.936 -5.872,-1.622 -5.872,0C-5.872,1.622 -4.557,2.936 -2.936,2.936C-1.314,2.936 0,1.622 0,0" style="fill:#232118;fill-rule:nonzero;"/></g><g id="path114" transform="matrix(1,0,0,1,49.6015,90.4169)"><path d="M0,0C0,-1.622 -1.315,-2.936 -2.936,-2.936C-4.558,-2.936 -5.872,-1.622 -5.872,0C-5.872,1.622 -4.558,2.936 -2.936,2.936C-1.315,2.936 0,1.622 0,0" style="fill:#232118;fill-rule:nonzero;"/></g><g id="path118" transform="matrix(1,0,0,1,56.5807,83.5466)"><path d="M0,0C0,-1.622 -1.314,-2.936 -2.936,-2.936C-4.557,-2.936 -5.872,-1.622 -5.872,0C-5.872,1.622 -4.557,2.936 -2.936,2.936C-1.314,2.936 0,1.622 0,0" style="fill:#232118;fill-rule:nonzero;"/></g><g id="path122" transform="matrix(1,0,0,1,46.513,250.945)"><path d="M0,0L-12.17,22.649L-7.196,25.322L4.975,2.673L0,0Z" style="fill:#232118;fill-rule:nonzero;"/></g><g id="path126" transform="matrix(1,0,0,1,44.2946,274.93)"><path d="M0,0C0,-4.123 -3.342,-7.465 -7.465,-7.465C-11.587,-7.465 -14.929,-4.123 -14.929,0C-14.929,4.122 -11.587,7.465 -7.465,7.465C-3.342,7.465 0,4.122 0,0" style="fill:#232118;fill-rule:nonzero;"/></g><g id="path130" transform="matrix(1,0,0,1,129.325,250.945)"><path d="M0,0L12.17,22.649L7.196,25.322L-4.974,2.673L0,0Z" style="fill:#232118;fill-rule:nonzero;"/></g><g id="path134" transform="matrix(1,0,0,1,131.543,274.93)"><path d="M0,0C0,-4.123 3.342,-7.465 7.465,-7.465C11.587,-7.465 14.929,-4.123 14.929,0C14.929,4.122 11.587,7.465 7.465,7.465C3.342,7.465 0,4.122 0,0" style="fill:#232118;fill-rule:nonzero;"/></g><g id="path138" transform="matrix(1,0,0,1,87.9191,259.483)"><path d="M0,0C49.018,0 78.305,-36.668 78.305,-72.098C78.305,-106.868 46.843,-130.225 0,-130.225C-46.843,-130.225 -78.306,-106.868 -78.306,-72.098C-78.306,-36.668 -49.018,0 0,0" style="fill:#c3dfef;fill-rule:nonzero;"/></g><g id="path142" transform="matrix(1,0,0,1,166.225,187.385)"><path d="M0,0C0,35.43 -29.287,72.098 -78.305,72.098C-127.324,72.098 -156.611,35.43 -156.611,0C-156.611,-34.769 -125.148,-58.127 -78.305,-58.127C-31.463,-58.127 0,-34.769 0,0M-78.305,80.631C-23.955,80.631 8.532,39.633 8.532,0C8.532,-39.249 -27.175,-66.659 -78.305,-66.659C-129.436,-66.659 -165.143,-39.249 -165.143,0C-165.143,39.633 -132.656,80.631 -78.305,80.631" style="fill:#232118;fill-rule:nonzero;"/></g><g id="path146" transform="matrix(1,0,0,1,84.3196,259.399)"><path d="M0,0C-46.843,-1.75 -74.706,-37.462 -74.706,-72.014C-74.706,-105.883 -44.844,-128.914 0,-130.084C44.844,-128.914 74.706,-105.883 74.706,-72.014C74.706,-37.462 46.843,-1.75 0,0" style="fill:#fcc119;fill-rule:nonzero;"/></g><g id="path150" transform="matrix(1,0,0,1,25.1702,168.28)"><path d="M0,0C0,-2.233 -1.81,-4.043 -4.043,-4.043C-6.276,-4.043 -8.087,-2.233 -8.087,0C-8.087,2.233 -6.276,4.043 -4.043,4.043C-1.81,4.043 0,2.233 0,0" style="fill:#232118;fill-rule:nonzero;"/></g><g id="path154" transform="matrix(1,0,0,1,34.7691,156.281)"><path d="M0,0C0,-2.233 -1.81,-4.043 -4.043,-4.043C-6.276,-4.043 -8.087,-2.233 -8.087,0C-8.087,2.233 -6.276,4.043 -4.043,4.043C-1.81,4.043 0,2.233 0,0" style="fill:#232118;fill-rule:nonzero;"/></g><g id="path158" transform="matrix(1,0,0,1,47.1676,148.194)"><path d="M0,0C0,-2.233 -1.81,-4.043 -4.043,-4.043C-6.276,-4.043 -8.087,-2.233 -8.087,0C-8.087,2.233 -6.276,4.043 -4.043,4.043C-1.81,4.043 0,2.233 0,0" style="fill:#232118;fill-rule:nonzero;"/></g><g id="path162" transform="matrix(1,0,0,1,63.8954,190.057)"><path d="M0,0C0,-7.466 -3.541,-13.518 -7.908,-13.518C-12.276,-13.518 -15.816,-7.466 -15.816,0C-15.816,7.466 -12.276,13.518 -7.908,13.518C-3.541,13.518 0,7.466 0,0" style="fill:#232118;fill-rule:nonzero;"/></g><g id="path166" transform="matrix(1,0,0,1,127.759,190.057)"><path d="M0,0C0,-7.466 -3.541,-13.518 -7.908,-13.518C-12.276,-13.518 -15.816,-7.466 -15.816,0C-15.816,7.466 -12.276,13.518 -7.908,13.518C-3.541,13.518 0,7.466 0,0" style="fill:#232118;fill-rule:nonzero;"/></g><g id="path170" transform="matrix(1,0,0,1,87.9631,259.483)"><path d="M0,0C-3.36,0 -6.617,-0.188 -9.789,-0.52C33.309,-5.036 58.728,-39.096 58.728,-72.098C58.728,-104.384 31.591,-126.816 -9.789,-129.858C-6.605,-130.092 -3.347,-130.225 -0,-130.225C46.843,-130.225 78.306,-106.868 78.306,-72.098C78.306,-36.668 49.018,0 0,0" style="fill:#e9a722;fill-rule:nonzero;"/></g><g id="path174" transform="matrix(1,0,0,1,90.071,165.747)"><path d="M0,0C-6.093,0 -10.669,1.789 -10.955,1.903C-11.793,2.238 -12.2,3.188 -11.867,4.026C-11.532,4.865 -10.581,5.275 -9.743,4.941C-9.65,4.904 -0.201,1.244 9.042,4.94C9.879,5.275 10.832,4.869 11.167,4.029C11.503,3.19 11.095,2.238 10.256,1.903C6.689,0.476 3.142,0 0,0" style="fill:#232118;fill-rule:nonzero;"/></g></g></g></g></g></svg>