<svg width="24" height="24" viewBox="0 0 24 24" fill="none" xmlns="http://www.w3.org/2000/svg" style="fill: none !important;">
    <g clip-path="url(#clip0_sparkles)" style="fill: none !important;">
        <path d="M9.937 15.5C10.2103 15.5 10.4721 15.3907 10.6633 15.1964C10.8546 15.0022 10.9603 14.738 10.957 14.464L10.88 10.5H14.844C15.1173 10.4967 15.3791 10.3874 15.5704 10.1932C15.7616 9.99889 15.8673 9.73469 15.864 9.461C15.8673 9.18733 15.7616 8.92313 15.5704 8.72884C15.3791 8.53456 15.1173 8.4253 14.844 8.422H10.88L10.957 4.536C10.9603 4.26233 10.8546 3.99813 10.6633 3.80384C10.4721 3.60956 10.2103 3.5003 9.937 3.497C9.66371 3.5003 9.40186 3.60956 9.21064 3.80384C9.01942 3.99813 8.91371 4.26233 8.917 4.536L8.994 8.5H5.03C4.75671 8.5033 4.49486 8.61256 4.30364 8.80684C4.11242 9.00113 4.00671 9.26533 4.01 9.539C4.00671 9.81267 4.11242 10.0769 4.30364 10.2712C4.49486 10.4654 4.75671 10.5747 5.03 10.578H8.994L8.917 14.464C8.91371 14.738 9.01942 15.0022 9.21064 15.1964C9.40186 15.3907 9.66371 15.5 9.937 15.5Z" fill="#000000" style="fill: #000000 !important;"/>
        <path d="M17.5 20.5C17.6326 20.5 17.7598 20.4473 17.8536 20.3536C17.9473 20.2598 18 20.1326 18 20V18H20C20.1326 18 20.2598 17.9473 20.3536 17.8536C20.4473 17.7598 20.5 17.6326 20.5 17.5C20.5 17.3674 20.4473 17.2402 20.3536 17.1464C20.2598 17.0527 20.1326 17 20 17H18V15C18 14.8674 17.9473 14.7402 17.8536 14.6464C17.7598 14.5527 17.6326 14.5 17.5 14.5C17.3674 14.5 17.2402 14.5527 17.1464 14.6464C17.0527 14.7402 17 14.8674 17 15V17H15C14.8674 17 14.7402 17.0527 14.6464 17.1464C14.5527 17.2402 14.5 17.3674 14.5 17.5C14.5 17.6326 14.5527 17.7598 14.6464 17.8536C14.7402 17.9473 14.8674 18 15 18H17V20C17 20.1326 17.0527 20.2598 17.1464 20.3536C17.2402 20.4473 17.3674 20.5 17.5 20.5Z" fill="#000000" style="fill: #000000 !important;"/>
    </g>
    <defs style="fill: none !important;">
        <clipPath id="clip0_sparkles" style="fill: none !important;">
            <rect width="24" height="24" fill="currentColor" style="fill: #000000 !important;"/>
        </clipPath>
    </defs>
</svg>