<?xml version="1.0" encoding="UTF-8" standalone="no"?>
<!DOCTYPE svg PUBLIC "-//W3C//DTD SVG 1.1//EN" "http://www.w3.org/Graphics/SVG/1.1/DTD/svg11.dtd">
<svg xmlns="http://www.w3.org/2000/svg" version="1.1" viewBox="0.00 0.00 400.00 400.00">
<g stroke-width="2.00" fill="none" stroke-linecap="butt">
<path stroke="#808080" vector-effect="non-scaling-stroke" d="
  M 198.93 111.54
  C 198.75 109.56 196.70 109.17 194.95 109.17
  Q 155.55 109.22 120.75 109.16
  C 101.96 109.12 86.26 120.91 81.35 138.91
  Q 79.81 144.52 80.01 157.74
  Q 80.17 168.26 80.05 176.76
  C 79.99 180.37 80.55 183.23 83.39 185.18
  Q 85.04 186.32 90.30 186.29
  Q 97.88 186.26 98.41 186.27
  C 103.41 186.33 106.78 185.38 108.08 180.56
  A 3.97 3.62 56.4 0 0 108.20 179.78
  Q 108.24 179.06 108.19 152.11
  C 108.18 145.52 109.29 142.17 114.39 138.78
  Q 116.74 137.23 125.38 137.34
  Q 133.08 137.45 167.62 137.41
  C 173.77 137.40 177.80 136.48 181.72 132.21
  Q 189.75 123.46 198.02 114.52
  Q 199.09 113.36 198.93 111.54"
/>
<path stroke="#808080" vector-effect="non-scaling-stroke" d="
  M 119.09 261.93
  Q 157.77 219.97 228.64 142.89
  C 232.76 138.42 236.67 137.33 243.00 137.35
  Q 271.92 137.46 274.14 137.38
  Q 280.02 137.17 282.68 138.60
  C 290.13 142.62 289.25 148.57 289.24 158.10
  Q 289.17 196.23 289.23 248.09
  C 289.24 254.51 288.20 257.93 283.22 261.17
  Q 280.80 262.75 273.51 262.66
  Q 262.99 262.55 248.84 262.68
  Q 242.76 262.73 239.94 261.20
  Q 234.00 257.98 233.82 250.20
  Q 233.81 249.70 233.82 169.00
  Q 233.82 165.51 233.47 164.21
  A 1.69 1.63 12.5 0 0 232.88 163.32
  Q 230.46 161.43 228.38 163.64
  Q 223.73 168.56 210.01 183.53
  Q 205.40 188.56 205.43 195.74
  Q 205.54 228.94 205.40 243.39
  Q 205.29 255.45 206.94 261.45
  C 211.47 277.99 227.05 290.78 244.56 290.77
  Q 259.48 290.77 270.75 290.89
  Q 282.83 291.01 288.14 289.44
  C 301.78 285.41 311.32 275.96 315.72 262.57
  C 317.58 256.91 317.30 251.55 317.31 244.01
  Q 317.37 174.09 317.27 148.50
  C 317.20 130.28 305.10 115.38 287.77 110.49
  Q 282.41 108.98 272.10 109.12
  Q 257.68 109.32 248.30 109.15
  Q 235.62 108.92 229.79 110.47
  Q 216.99 113.86 207.11 124.60
  Q 111.85 228.14 84.30 258.04
  Q 80.05 262.65 80.04 268.74
  C 80.04 272.39 79.53 277.72 81.10 281.28
  Q 83.82 287.47 89.49 289.82
  Q 92.14 290.92 101.62 290.87
  Q 131.03 290.73 184.01 290.83
  Q 191.67 290.84 191.81 283.24
  Q 191.98 274.59 191.97 271.97
  Q 191.96 268.42 191.42 267.18
  C 189.47 262.68 186.40 262.59 181.19 262.59
  Q 131.63 262.64 119.38 262.60
  A 0.40 0.40 0.0 0 1 119.09 261.93"
/>
</g>
<path fill="#000000" d="
  M 400.00 0.00
  L 400.00 400.00
  L 0.00 400.00
  L 0.00 0.00
  L 400.00 0.00
  Z
  M 198.93 111.54
  C 198.75 109.56 196.70 109.17 194.95 109.17
  Q 155.55 109.22 120.75 109.16
  C 101.96 109.12 86.26 120.91 81.35 138.91
  Q 79.81 144.52 80.01 157.74
  Q 80.17 168.26 80.05 176.76
  C 79.99 180.37 80.55 183.23 83.39 185.18
  Q 85.04 186.32 90.30 186.29
  Q 97.88 186.26 98.41 186.27
  C 103.41 186.33 106.78 185.38 108.08 180.56
  A 3.97 3.62 56.4 0 0 108.20 179.78
  Q 108.24 179.06 108.19 152.11
  C 108.18 145.52 109.29 142.17 114.39 138.78
  Q 116.74 137.23 125.38 137.34
  Q 133.08 137.45 167.62 137.41
  C 173.77 137.40 177.80 136.48 181.72 132.21
  Q 189.75 123.46 198.02 114.52
  Q 199.09 113.36 198.93 111.54
  Z
  M 119.09 261.93
  Q 157.77 219.97 228.64 142.89
  C 232.76 138.42 236.67 137.33 243.00 137.35
  Q 271.92 137.46 274.14 137.38
  Q 280.02 137.17 282.68 138.60
  C 290.13 142.62 289.25 148.57 289.24 158.10
  Q 289.17 196.23 289.23 248.09
  C 289.24 254.51 288.20 257.93 283.22 261.17
  Q 280.80 262.75 273.51 262.66
  Q 262.99 262.55 248.84 262.68
  Q 242.76 262.73 239.94 261.20
  Q 234.00 257.98 233.82 250.20
  Q 233.81 249.70 233.82 169.00
  Q 233.82 165.51 233.47 164.21
  A 1.69 1.63 12.5 0 0 232.88 163.32
  Q 230.46 161.43 228.38 163.64
  Q 223.73 168.56 210.01 183.53
  Q 205.40 188.56 205.43 195.74
  Q 205.54 228.94 205.40 243.39
  Q 205.29 255.45 206.94 261.45
  C 211.47 277.99 227.05 290.78 244.56 290.77
  Q 259.48 290.77 270.75 290.89
  Q 282.83 291.01 288.14 289.44
  C 301.78 285.41 311.32 275.96 315.72 262.57
  C 317.58 256.91 317.30 251.55 317.31 244.01
  Q 317.37 174.09 317.27 148.50
  C 317.20 130.28 305.10 115.38 287.77 110.49
  Q 282.41 108.98 272.10 109.12
  Q 257.68 109.32 248.30 109.15
  Q 235.62 108.92 229.79 110.47
  Q 216.99 113.86 207.11 124.60
  Q 111.85 228.14 84.30 258.04
  Q 80.05 262.65 80.04 268.74
  C 80.04 272.39 79.53 277.72 81.10 281.28
  Q 83.82 287.47 89.49 289.82
  Q 92.14 290.92 101.62 290.87
  Q 131.03 290.73 184.01 290.83
  Q 191.67 290.84 191.81 283.24
  Q 191.98 274.59 191.97 271.97
  Q 191.96 268.42 191.42 267.18
  C 189.47 262.68 186.40 262.59 181.19 262.59
  Q 131.63 262.64 119.38 262.60
  A 0.40 0.40 0.0 0 1 119.09 261.93
  Z"
/>
<path fill="#ffffff" d="
  M 198.93 111.54
  Q 199.09 113.36 198.02 114.52
  Q 189.75 123.46 181.72 132.21
  C 177.80 136.48 173.77 137.40 167.62 137.41
  Q 133.08 137.45 125.38 137.34
  Q 116.74 137.23 114.39 138.78
  C 109.29 142.17 108.18 145.52 108.19 152.11
  Q 108.24 179.06 108.20 179.78
  A 3.97 3.62 56.4 0 1 108.08 180.56
  C 106.78 185.38 103.41 186.33 98.41 186.27
  Q 97.88 186.26 90.30 186.29
  Q 85.04 186.32 83.39 185.18
  C 80.55 183.23 79.99 180.37 80.05 176.76
  Q 80.17 168.26 80.01 157.74
  Q 79.81 144.52 81.35 138.91
  C 86.26 120.91 101.96 109.12 120.75 109.16
  Q 155.55 109.22 194.95 109.17
  C 196.70 109.17 198.75 109.56 198.93 111.54
  Z"
/>
<path fill="#ffffff" d="
  M 119.09 261.93
  A 0.40 0.40 0.0 0 0 119.38 262.60
  Q 131.63 262.64 181.19 262.59
  C 186.40 262.59 189.47 262.68 191.42 267.18
  Q 191.96 268.42 191.97 271.97
  Q 191.98 274.59 191.81 283.24
  Q 191.67 290.84 184.01 290.83
  Q 131.03 290.73 101.62 290.87
  Q 92.14 290.92 89.49 289.82
  Q 83.82 287.47 81.10 281.28
  C 79.53 277.72 80.04 272.39 80.04 268.74
  Q 80.05 262.65 84.30 258.04
  Q 111.85 228.14 207.11 124.60
  Q 216.99 113.86 229.79 110.47
  Q 235.62 108.92 248.30 109.15
  Q 257.68 109.32 272.10 109.12
  Q 282.41 108.98 287.77 110.49
  C 305.10 115.38 317.20 130.28 317.27 148.50
  Q 317.37 174.09 317.31 244.01
  C 317.30 251.55 317.58 256.91 315.72 262.57
  C 311.32 275.96 301.78 285.41 288.14 289.44
  Q 282.83 291.01 270.75 290.89
  Q 259.48 290.77 244.56 290.77
  C 227.05 290.78 211.47 277.99 206.94 261.45
  Q 205.29 255.45 205.40 243.39
  Q 205.54 228.94 205.43 195.74
  Q 205.40 188.56 210.01 183.53
  Q 223.73 168.56 228.38 163.64
  Q 230.46 161.43 232.88 163.32
  A 1.69 1.63 12.5 0 1 233.47 164.21
  Q 233.82 165.51 233.82 169.00
  Q 233.81 249.70 233.82 250.20
  Q 234.00 257.98 239.94 261.20
  Q 242.76 262.73 248.84 262.68
  Q 262.99 262.55 273.51 262.66
  Q 280.80 262.75 283.22 261.17
  C 288.20 257.93 289.24 254.51 289.23 248.09
  Q 289.17 196.23 289.24 158.10
  C 289.25 148.57 290.13 142.62 282.68 138.60
  Q 280.02 137.17 274.14 137.38
  Q 271.92 137.46 243.00 137.35
  C 236.67 137.33 232.76 138.42 228.64 142.89
  Q 157.77 219.97 119.09 261.93
  Z"
/>
</svg>
