<svg xmlns="http://www.w3.org/2000/svg" width="100%" height="100%" viewBox="0 0 250 55" fill="none" preserveAspectRatio="xMidYMid meet" aria-hidden="true" role="img" style="fill: none !important;">
<path d="M206.788 42.5346C206.662 42.5346 206.561 42.433 206.561 42.3076V12.5393C206.561 12.4139 206.662 12.3122 206.788 12.3122H213.315C213.441 12.3122 213.542 12.4139 213.542 12.5393V16.2089C213.542 16.4683 213.967 16.5461 214.078 16.3114C214.619 15.1646 215.396 14.0309 216.409 13.2204C217.828 12.0852 219.54 11.5176 221.545 11.5176C225.574 11.5176 228.317 13.2424 229.776 16.6921C229.854 16.8772 230.121 16.8894 230.213 16.7109C231.075 15.0419 232.102 13.7838 233.295 12.9366C234.619 11.9906 236.322 11.5176 238.403 11.5176C242.055 11.5176 244.817 12.6339 246.69 14.8664C248.563 17.0801 249.5 20.0505 249.5 23.7778V42.1451C249.5 42.2683 249.401 42.3691 249.278 42.372L242.722 42.5291C242.595 42.5321 242.49 42.4296 242.49 42.3021V25.3954C242.49 20.2492 240.816 17.6761 237.467 17.6761C235.669 17.6761 234.231 18.5842 233.153 20.4005C232.093 22.198 231.564 24.7143 231.564 27.9496V42.3076C231.564 42.433 231.462 42.5346 231.337 42.5346H224.866C224.741 42.5346 224.639 42.433 224.639 42.3076V25.3954C224.639 24.4116 224.601 23.5602 224.525 22.8412C224.45 22.1033 224.298 21.4033 224.071 20.7411C223.863 20.06 223.57 19.5113 223.192 19.0951C222.832 18.6599 222.35 18.3193 221.744 18.0734C221.158 17.8085 220.458 17.6761 219.644 17.6761C215.69 17.6761 213.713 21.3371 213.713 28.6592V42.3076C213.713 42.433 213.611 42.5346 213.486 42.5346H206.788Z" fill="currentColor" style="fill: rgb(42, 34, 43) !important;"/>
<path d="M193.051 12.3122C193.176 12.3122 193.278 12.4139 193.278 12.5393V16.5857C193.278 16.8367 193.659 16.9157 193.775 16.6933C195.365 13.6553 198.14 12.0829 202.1 11.9762C202.227 11.9728 202.331 12.0751 202.331 12.2016V18.4707C202.331 18.5961 202.229 18.6976 202.104 18.6987C200.724 18.7107 199.693 18.8334 199.011 19.0667C198.387 19.1991 197.828 19.3694 197.336 19.5775C196.863 19.7667 196.372 20.0884 195.861 20.5425C195.35 20.9965 194.924 21.5547 194.584 22.2169C194.262 22.8791 193.988 23.7683 193.761 24.8846C193.552 25.982 193.448 27.2591 193.448 28.7159V42.3076C193.448 42.433 193.347 42.5347 193.221 42.5347H186.524C186.398 42.5347 186.297 42.433 186.297 42.3076V12.5393C186.297 12.4139 186.398 12.3122 186.524 12.3122H193.051Z" fill="currentColor" style="fill: rgb(42, 34, 43) !important;"/>
<path d="M127.7 34.1634C128.004 34.1634 128.222 34.4571 128.123 34.7449C127.168 37.5157 125.51 39.7152 123.149 41.3435C120.645 43.0653 117.587 43.9261 113.974 43.9261C109.387 43.9261 105.659 42.4598 102.792 39.5272C99.944 36.5757 98.52 32.716 98.52 27.9481C98.52 24.9209 99.179 22.2059 100.498 19.8031C101.836 17.3813 103.681 15.4988 106.032 14.1554C108.383 12.7932 111.031 12.1121 113.974 12.1121C115.981 12.1121 117.807 12.4053 119.451 12.9918C121.095 13.5784 122.48 14.3825 123.608 15.4042C124.736 16.4258 125.692 17.6462 126.475 19.0652C127.259 20.4653 127.833 21.9694 128.196 23.5776C128.559 25.1669 128.75 26.8508 128.769 28.6293C128.769 28.9821 128.761 29.2919 128.746 29.5587C128.732 29.7895 128.537 29.9631 128.306 29.9631H105.91C105.639 29.9631 105.427 30.1995 105.468 30.4676C105.814 32.7477 106.7 34.5756 108.125 35.9513C109.673 37.4271 111.604 38.165 113.917 38.165C115.676 38.165 117.186 37.8339 118.447 37.1717C119.634 36.5578 120.493 35.6512 121.023 34.4518C121.099 34.28 121.266 34.1634 121.454 34.1634H127.7ZM105.553 24.5582C105.497 24.8318 105.711 25.0818 105.99 25.0818H121.265C121.536 25.0818 121.747 24.8455 121.706 24.5777C121.4 22.6103 120.639 20.9809 119.422 19.6895C118.103 18.2895 116.268 17.5894 113.917 17.5894C111.623 17.5894 109.731 18.2705 108.24 19.6328C106.864 20.872 105.969 22.5139 105.553 24.5582Z" fill="currentColor" style="fill: rgb(42, 34, 43) !important;"/>
<path d="M0.895012 7.8269C0.644212 7.8269 0.440918 7.6236 0.440918 7.3729V2.009C0.440918 1.75823 0.644212 1.55493 0.895012 1.55493H31.829C32.08 1.55493 32.283 1.75823 32.283 2.009V7.3729C32.283 7.6236 32.08 7.8269 31.829 7.8269H20.534C20.283 7.8269 20.08 8.0302 20.08 8.281V42.5925C20.08 42.8433 19.877 43.0466 19.626 43.0466H13.098C12.848 43.0466 12.644 42.8433 12.644 42.5925V8.281C12.644 8.0302 12.441 7.8269 12.19 7.8269H0.895012Z" fill="currentColor" style="fill: rgb(42, 34, 43) !important;"/>
<path d="M35.553 12.2585C35.747 12.2585 35.92 12.3812 35.983 12.5646C36.87 15.1443 38.159 18.8169 39.851 23.5822C41.617 28.4871 42.945 31.0541 43.834 33.6285C43.845 33.6598 43.875 33.6808 43.908 33.6808C43.942 33.6808 43.972 33.6582 43.982 33.6252C44.778 30.9166 46.05 28.01 47.797 22.5605C49.453 17.4537 50.526 14.1252 51.018 12.575C51.078 12.3861 51.252 12.2585 51.451 12.2585H57.907C58.222 12.2585 58.441 12.571 58.334 12.8669C55.693 20.203 53.581 25.9979 51.997 30.2515C50.37 34.6031 48.176 39.4041 45.413 47.0478C44.013 50.8508 41.525 52.7467 37.447 53.6529C34.572 54.2918 33.158 54.3272 32.574 54.2925C32.37 54.2803 32.231 54.1087 32.231 53.9036V48.4141C32.231 48.1801 32.409 47.9844 32.642 47.9621L34.729 47.7627C34.729 47.7627 37.113 47.3931 37.9 46.8565C39.158 45.9992 39.787 44.7822 40.166 43.6848C40.544 42.5874 40.248 41.7691 40.248 41.7691C38.791 37.9473 36.757 33.8936 34.146 27.2149C31.711 20.9392 29.868 16.1587 28.619 12.8732C28.506 12.5762 28.725 12.2585 29.043 12.2585H35.553Z" fill="currentColor" style="fill: rgb(42, 34, 43) !important;"/>
<path d="M148.139 6.0243C148.139 6.3087 147.88 6.525 147.597 6.4956C146.901 6.4232 145.984 6.4079 145.193 6.4976C142.937 6.7532 142.101 9.1325 142.101 12.0903V13.0581C142.101 13.3089 142.304 13.5122 142.555 13.5122H147.685C147.936 13.5122 148.139 13.7155 148.139 13.9663V18.9742C148.139 19.2249 147.936 19.4282 147.685 19.4282H142.555C142.304 19.4282 142.101 19.6315 142.101 19.8823V42.5247C142.101 42.7736 141.9 42.9762 141.651 42.9787L135.69 43.0397C135.438 43.0423 135.232 42.8383 135.232 42.5857V19.8823C135.232 19.6315 135.028 19.4282 134.778 19.4282H131.731C131.48 19.4282 131.277 19.2249 131.277 18.9742V13.9663C131.277 13.7155 131.48 13.5122 131.731 13.5122H135.021C135.272 13.5122 135.476 13.3088 135.48 13.0577C135.489 12.5443 135.514 11.6907 135.59 11.0015C135.707 9.9399 135.591 0.0688477 145.281 0.0688477H147.685C147.936 0.0688477 148.139 0.272138 148.139 0.522918V6.0243Z" fill="currentColor" style="fill: rgb(42, 34, 43) !important;"/>
<path d="M79.5421 11.8708C87.8661 11.8709 94.6141 18.9837 94.6141 27.7576C94.6141 36.5316 87.8661 43.6442 79.5421 43.6443C75.6811 43.6442 72.1581 42.1128 69.4921 39.5949C69.2681 39.3836 68.8871 39.5379 68.8871 39.8457V54.668C68.8871 54.8561 68.7351 55.0085 68.5471 55.0085H62.1901C62.0021 55.0085 61.8491 54.8561 61.8491 54.668V12.6743C61.8491 12.4862 62.0021 12.3337 62.1901 12.3337H68.5471C68.7351 12.3337 68.8871 12.4862 68.8871 12.6743V15.6686C68.8871 15.9763 69.2681 16.1306 69.4921 15.9194C72.1581 13.4018 75.6811 11.871 79.5421 11.8708ZM78.2101 17.9099C73.0871 17.9099 68.9341 22.2952 68.9341 27.7039C68.9341 33.1124 73.0871 37.4968 78.2101 37.4968C83.3331 37.4967 87.4871 33.1123 87.4871 27.7039C87.4871 22.2953 83.3331 17.91 78.2101 17.9099Z" fill="currentColor" style="fill: rgb(42, 34, 43) !important;"/>
<path d="M165.985 12.1121C174.77 12.1121 181.891 19.1581 181.891 27.8494C181.891 36.5406 174.77 43.5866 165.985 43.5867C157.2 43.5867 150.078 36.5406 150.078 27.8494C150.078 19.1581 157.2 12.1121 165.985 12.1121ZM165.985 17.8298C161.018 17.8299 156.992 22.3411 156.992 27.906C156.992 33.4707 161.019 37.9821 165.985 37.9822C170.952 37.9822 174.978 33.4707 174.978 27.906C174.978 22.3411 170.952 17.8298 165.985 17.8298Z" fill="currentColor" style="fill: rgb(42, 34, 43) !important;"/>
</svg>