<svg xmlns="http://www.w3.org/2000/svg" id="e0a86a1b-7b61-4939-a3bf-c325272c8c3a" viewBox="0 0 208.09 40.71"><defs><style>      .cls-1 {        fill: #25a599;      }      .cls-2 {        fill: #000000;      }      .cls-3 {        fill: #555;      }    </style></defs><g><g><path class="cls-1" d="M36.6,0H3.9C1.7,0,0,1.7,0,3.8v33c0,2.1,1.8,3.8,3.9,3.8h32.8c2.1,0,3.9-1.6,3.9-3.7V3.8c-.1-2.1-1.8-3.8-4-3.8q.1,0,0,0Z"></path><path class="cls-2" d="M31,35.4H9.5c-2.4,0-4.4-2-4.4-4.4V9.5c0-2.4,2-4.4,4.4-4.4h21.5c2.4,0,4.4,2,4.4,4.4v21.5c0,2.4-2,4.4-4.4,4.4ZM9.5,6.8c-1.5,0-2.7,1.2-2.7,2.7v21.5c0,1.5,1.2,2.7,2.7,2.7h21.5c1.5,0,2.7-1.2,2.7-2.7h0V9.5c0-1.5-1.2-2.7-2.7-2.7H9.5Z"></path><path id="cdcfb58c-88b7-4efa-819a-96e5da58be1e" class="cls-2" d="M25.4,27.7c-1.1.2-2.2.3-3.3.3-1.8,0-3.1-.3-3.8-1-.7-.7-1-1.9-1-3.8v-6h-3.1v-1.7h3.1v-2.7h2.2v2.7h5.5v1.7h-5.5v6.4c0,.5,0,1,.1,1.5.1.3.3.5.6.7.7.4,1.5.6,2.3.5.9,0,1.9-.1,2.8-.3l.1,1.7Z"></path></g><g><path class="cls-3" d="M73.39,32.49c-2,.4-4,.5-6,.5-3.4,0-5.7-.6-6.9-1.8-1.2-1.2-1.8-3.5-1.8-6.9v-11h-5.7v-3.1h5.7v-4.9h4.2v4.9h10.1v3.1h-10.1v11.6c0,.9,0,1.8.2,2.7.2.5.5,1,1,1.3,1.3.7,2.7,1.1,4.2,1,1.7,0,3.5-.2,5.1-.6v3.2Z"></path><path id="aca7dd97-ccaa-4a8a-8131-e2d341750fcc" class="cls-3" d="M76.99,40.59v-3h1.6c1.2.1,2.3-.2,3.3-.7,1-.9,1.7-2,2.2-3.2l1-2.1-9.4-21.3h4.2l7.3,16.6,7.4-16.6h3.6l-11.2,25.1c-.6,1.6-1.7,3.1-3.1,4.1-1.6.9-3.4,1.3-5.2,1.2h-1.7v-.1Z"></path><path id="e6eae98d-6b14-4e4f-bd9b-a228acb8d189" class="cls-3" d="M101.19,40.59V10.19h4v4.2c2-3.1,4.4-4.7,7.3-4.7,2.4-.1,4.6,1,6,2.9,1.5,1.9,2.2,4.6,2.2,8,.1,3.2-.8,6.4-2.6,9-1.6,2.2-4.1,3.5-6.8,3.4-2.4,0-4.6-1.1-6.1-3v10.6h-4ZM105.19,26.99c1.9,2,3.7,3,5.6,3,1.7,0,3.3-.9,4.1-2.3,1.1-2,1.6-4.3,1.5-6.6,0-5.3-1.6-7.9-4.7-7.9-2.3,0-4.4,1.4-6.5,4.3v9.5Z"></path><path class="cls-3" d="M126.39,32.49V3.09h-8.6V.09h12.6v32.4h-4Z"></path><path class="cls-3" d="M155.79,31.59v-3.6c2.5,1.2,5.3,1.9,8.1,2,1.4.1,2.8-.3,4.1-1,1-.5,1.6-1.4,1.6-2.5,0-1.3-1.3-2.4-3.8-3.2l-4.3-1.4c-3.4-1.1-5.1-3-5.1-5.8-.1-1.9.8-3.6,2.3-4.7,1.9-1.2,4.2-1.8,6.5-1.7,2.5.1,4.9.4,7.3,1v3.3c-2.4-.8-4.8-1.2-7.3-1.2-1.2-.1-2.5.2-3.5.8-.8.4-1.3,1.2-1.3,2.2,0,1.1,1,2,3,2.7l5.1,1.8c1.5.5,2.9,1.3,4,2.4.8,1,1.3,2.2,1.2,3.5,0,2-.9,3.9-2.6,5-2.1,1.3-4.5,2-7,1.9-2.9-.1-5.6-.6-8.3-1.5Z"></path><path id="e0ac6170-d915-4930-bfa1-be576aec1126" class="cls-3" d="M152.99,27.99c-2.1,1-4.3,1.7-6.5,2h-.7c-.5,0-1,0-1.5-.1-.8-.1-1.6-.3-2.4-.6l-.2-.1c-.2-.1-.5-.2-.7-.3-2-1.2-3.1-3.3-3.3-6.4h15.2v-1.4c0-3.9-.7-6.8-2.2-8.6s-3.7-2.8-6.8-2.8c-2.9-.1-5.7,1.2-7.5,3.3-2,2.4-3.1,5.4-3,8.5,0,3.7,1,6.5,3.1,8.5.4.4.9.8,1.4,1.1h0c.1,0,.1.1.2.1l.3.2c.6.3,1.1.6,1.8.8h.1c.7.2,1.4.4,2.1.5h.2c.8.1,1.7.2,2.5.2h.1c2.6,0,5.2-.5,7.7-1.4h0l.1-3.5ZM139.49,14.49c1-1.2,2.5-1.8,4-1.7,3.3,0,5,2,5,6v.6h-10.8c.1-1.8.7-3.5,1.8-4.9Z"></path><path id="f5713aae-8c9f-4803-a766-a6c14d3a7288" class="cls-3" d="M176.49,31.59v-3.6c2.5,1.2,5.3,1.9,8.1,2,1.4.1,2.8-.3,4.1-1,1-.5,1.6-1.4,1.6-2.5,0-1.3-1.3-2.4-3.8-3.2l-4.3-1.4c-3.4-1.1-5.1-3-5.1-5.8-.1-1.9.8-3.6,2.3-4.7,1.9-1.2,4.2-1.8,6.5-1.7,2.5.1,4.9.4,7.3,1v3.3c-2.4-.8-4.8-1.2-7.3-1.2-1.2-.1-2.5.2-3.5.8-.8.4-1.3,1.2-1.3,2.2,0,1.1,1,2,3,2.7l5.1,1.8c1.5.4,2.9,1.3,4,2.4.8,1,1.3,2.2,1.2,3.5,0,2-.9,3.9-2.6,5-2.1,1.3-4.5,2-7,1.9-2.9-.1-5.7-.6-8.3-1.5Z"></path></g></g><path class="cls-3" d="M208.09,6.11c0,3.35-2.63,5.98-6.05,5.98s-6.08-2.63-6.08-5.98,2.7-5.9,6.08-5.9,6.05,2.63,6.05,5.9ZM197.48,6.11c0,2.63,1.94,4.72,4.61,4.72s4.5-2.09,4.5-4.68-1.91-4.75-4.54-4.75-4.57,2.12-4.57,4.72ZM201.11,9.21h-1.37V3.3c.54-.11,1.3-.18,2.27-.18,1.12,0,1.62.18,2.05.43.32.25.58.72.58,1.3,0,.65-.5,1.15-1.22,1.37v.07c.58.22.9.65,1.08,1.44.18.9.29,1.26.43,1.48h-1.48c-.18-.22-.29-.76-.47-1.44-.11-.65-.47-.94-1.22-.94h-.65v2.38ZM201.15,5.86h.65c.76,0,1.37-.25,1.37-.86,0-.54-.4-.9-1.26-.9-.36,0-.61.04-.76.07v1.69Z"></path></svg>