<?xml version="1.0" encoding="UTF-8" standalone="no"?>
<!DOCTYPE svg PUBLIC "-//W3C//DTD SVG 1.1//EN" "http://www.w3.org/Graphics/SVG/1.1/DTD/svg11.dtd">
<svg width="100%" height="100%" viewBox="0 0 89 31" version="1.1" xmlns="http://www.w3.org/2000/svg" xmlns:xlink="http://www.w3.org/1999/xlink" xml:space="preserve" xmlns:serif="http://www.serif.com/" style="fill-rule:evenodd;clip-rule:evenodd;stroke-linejoin:round;stroke-miterlimit:2;">
    <g transform="matrix(1,0,0,1,0,-0.3)">
        <g opacity="0.54">
            <path d="M9.6,5.5C4.079,6.92 0,11.932 0,17.896C0,24.965 5.731,30.696 12.8,30.696C17.891,30.696 22.288,27.724 24.35,23.42C22.791,24.717 20.786,25.496 18.6,25.496C13.629,25.496 9.6,21.467 9.6,16.496L9.6,5.5Z" style="fill:rgb(193,94,249);"/>
            <path d="M0.003,5.702C0.001,4.818 0.718,4.1 1.603,4.1L8,4.1C8.884,4.1 9.6,4.816 9.6,5.7L9.6,18.7L0.025,18.7L0.003,5.702Z" style="fill:rgb(193,94,249);fill-rule:nonzero;"/>
        </g>
        <path d="M16.002,3.652C22.792,4.645 28,10.377 28,17.3C28,24.921 21.687,31.1 13.9,31.1C7.966,31.1 2.888,27.512 0.807,22.432C2.417,23.816 4.512,24.653 6.802,24.653C11.883,24.653 16.002,20.534 16.002,15.453L16.002,3.652Z" style="fill:rgb(193,94,249);"/>
        <path d="M27.997,1.903C27.999,1.018 27.282,0.3 26.397,0.3L17.6,0.3C16.716,0.3 16,1.016 16,1.9L16,17.5L27.969,17.5L27.997,1.903Z" style="fill:rgb(193,94,249);fill-rule:nonzero;"/>
        <g transform="matrix(1.02864,0,0,1.02864,33.5348,28.8087)">
            <g>
                <path d="M6.891,-20.408C6.328,-19.658 6.059,-18.656 6.082,-17.402L1.406,-17.402C1.453,-18.668 1.67,-19.869 2.057,-21.006C2.467,-22.002 3.111,-22.922 3.99,-23.766C4.646,-24.363 5.426,-24.82 6.328,-25.137C7.23,-25.453 8.338,-25.611 9.65,-25.611C12.088,-25.611 14.054,-24.981 15.548,-23.722C17.042,-22.462 17.789,-20.771 17.789,-18.65C17.789,-17.15 17.344,-15.885 16.453,-14.854C15.891,-14.209 15.305,-13.77 14.695,-13.535C15.152,-13.535 15.809,-13.143 16.664,-12.357C17.941,-11.174 18.58,-9.557 18.58,-7.506C18.58,-5.35 17.833,-3.454 16.339,-1.819C14.845,-0.185 12.633,0.633 9.703,0.633C6.094,0.633 3.586,-0.545 2.18,-2.9C1.441,-4.154 1.031,-5.795 0.949,-7.822L5.871,-7.822C5.871,-6.803 6.035,-5.959 6.363,-5.291C6.973,-4.061 8.08,-3.445 9.686,-3.445C10.67,-3.445 11.528,-3.782 12.261,-4.456C12.993,-5.13 13.359,-6.1 13.359,-7.365C13.359,-9.041 12.68,-10.16 11.32,-10.723C10.547,-11.039 9.328,-11.197 7.664,-11.197L7.664,-14.783C9.293,-14.807 10.43,-14.965 11.074,-15.258C12.188,-15.75 12.744,-16.746 12.744,-18.246C12.744,-19.219 12.46,-20.01 11.892,-20.619C11.323,-21.229 10.523,-21.533 9.492,-21.533C8.309,-21.533 7.441,-21.158 6.891,-20.408Z" style="fill:rgb(64,64,64);fill-rule:nonzero;"/>
                <path d="M29.936,0.633C26.689,0.633 24.413,-0.504 23.106,-2.777C21.8,-5.051 21.146,-8.291 21.146,-12.498C21.146,-16.705 21.8,-19.951 23.106,-22.236C24.413,-24.521 26.689,-25.664 29.936,-25.664C33.182,-25.664 35.461,-24.521 36.773,-22.236C38.074,-19.951 38.725,-16.705 38.725,-12.498C38.725,-8.291 38.071,-5.051 36.765,-2.777C35.458,-0.504 33.182,0.633 29.936,0.633ZM32.871,-5.783C33.328,-7.33 33.557,-9.568 33.557,-12.498C33.557,-15.568 33.325,-17.842 32.862,-19.318C32.399,-20.795 31.424,-21.533 29.936,-21.533C28.447,-21.533 27.463,-20.795 26.982,-19.318C26.502,-17.842 26.262,-15.568 26.262,-12.498C26.262,-9.568 26.502,-7.327 26.982,-5.774C27.463,-4.222 28.447,-3.445 29.936,-3.445C31.424,-3.445 32.402,-4.225 32.871,-5.783Z" style="fill:rgb(64,64,64);fill-rule:nonzero;"/>
                <path d="M53.666,0L48.533,0L48.533,-17.578L42.539,-17.578L42.539,-20.988C44.121,-21.059 45.229,-21.164 45.861,-21.305C46.869,-21.527 47.689,-21.973 48.322,-22.641C48.756,-23.098 49.084,-23.707 49.307,-24.469C49.436,-24.926 49.5,-25.266 49.5,-25.488L53.666,-25.488L53.666,0Z" style="fill:rgb(64,64,64);fill-rule:nonzero;"/>
            </g>
        </g>
    </g>
</svg>
