<?xml version="1.0" encoding="UTF-8" standalone="no"?>
<!DOCTYPE svg PUBLIC "-//W3C//DTD SVG 1.1//EN" "http://www.w3.org/Graphics/SVG/1.1/DTD/svg11.dtd">
<svg xmlns="http://www.w3.org/2000/svg" version="1.1" viewBox="0.00 0.00 256.00 256.00">
<g stroke-width="2.00" fill="none" stroke-linecap="butt">
<path stroke="#b3b3b3" vector-effect="non-scaling-stroke" d="
  M 14.72 0.00
  Q 1.59 2.11 0.00 15.25"
/>
<path stroke="#b3b3b3" vector-effect="non-scaling-stroke" d="
  M 241.38 0.00
  Q 253.92 2.03 256.00 14.58"
/>
<path stroke="#5c5c5c" vector-effect="non-scaling-stroke" d="
  M 256.00 179.56
  Q 248.38 171.74 242.38 162.85
  Q 241.38 161.36 239.80 159.77
  C 205.27 125.17 170.18 90.67 135.75 55.61
  Q 134.69 54.53 133.78 53.33
  A 1.05 1.01 -10.5 0 0 133.19 52.94
  Q 132.52 52.76 131.88 53.11"
/>
<path stroke="#b3b3b3" vector-effect="non-scaling-stroke" d="
  M 131.88 53.11
  L 128.44 48.56
  A 0.52 0.51 44.7 0 0 127.61 48.56
  Q 103.91 80.18 80.42 111.45
  Q 80.28 111.64 80.47 112.01"
/>
<path stroke="#5c5c5c" vector-effect="non-scaling-stroke" d="
  M 80.47 112.01
  Q 80.43 112.50 80.70 112.77
  Q 95.89 127.56 111.43 143.92"
/>
<path stroke="#b3b3b3" vector-effect="non-scaling-stroke" d="
  M 111.43 143.92
  L 80.56 144.01
  A 0.23 0.23 0.0 0 0 80.37 144.38
  L 127.98 208.05"
/>
<path stroke="#5c5c5c" vector-effect="non-scaling-stroke" d="
  M 127.98 208.05
  L 175.54 256.00"
/>
<path stroke="#b3b3b3" vector-effect="non-scaling-stroke" d="
  M 15.33 256.00
  Q 1.70 254.34 0.00 240.72"
/>
<path stroke="#a9a9a9" vector-effect="non-scaling-stroke" d="
  M 131.88 53.11
  L 175.75 111.56
  A 0.27 0.27 0.0 0 1 175.54 111.99
  L 80.47 112.01"
/>
<path stroke="#a9a9a9" vector-effect="non-scaling-stroke" d="
  M 256.00 241.50
  Q 253.90 253.85 241.56 256.00"
/>
<path stroke="#a9a9a9" vector-effect="non-scaling-stroke" d="
  M 127.98 208.05
  L 175.71 144.40
  A 0.25 0.25 0.0 0 0 175.51 144.00
  L 111.43 143.92"
/>
</g>
<path fill="#ffffff" d="
  M 14.72 0.00
  Q 1.59 2.11 0.00 15.25
  L 0.00 0.00
  L 14.72 0.00
  Z"
/>
<path fill="#666666" d="
  M 241.38 0.00
  Q 253.92 2.03 256.00 14.58
  L 256.00 179.56
  Q 248.38 171.74 242.38 162.85
  Q 241.38 161.36 239.80 159.77
  C 205.27 125.17 170.18 90.67 135.75 55.61
  Q 134.69 54.53 133.78 53.33
  A 1.05 1.01 -10.5 0 0 133.19 52.94
  Q 132.52 52.76 131.88 53.11
  L 128.44 48.56
  A 0.52 0.51 44.7 0 0 127.61 48.56
  Q 103.91 80.18 80.42 111.45
  Q 80.28 111.64 80.47 112.01
  Q 80.43 112.50 80.70 112.77
  Q 95.89 127.56 111.43 143.92
  L 80.56 144.01
  A 0.23 0.23 0.0 0 0 80.37 144.38
  L 127.98 208.05
  L 175.54 256.00
  L 15.33 256.00
  Q 1.70 254.34 0.00 240.72
  L 0.00 15.25
  Q 1.59 2.11 14.72 0.00
  L 241.38 0.00
  Z"
/>
<path fill="#ffffff" d="
  M 256.00 0.00
  L 256.00 14.58
  Q 253.92 2.03 241.38 0.00
  L 256.00 0.00
  Z"
/>
<path fill="#ffffff" d="
  M 131.88 53.11
  L 175.75 111.56
  A 0.27 0.27 0.0 0 1 175.54 111.99
  L 80.47 112.01
  Q 80.28 111.64 80.42 111.45
  Q 103.91 80.18 127.61 48.56
  A 0.52 0.51 44.7 0 1 128.44 48.56
  L 131.88 53.11
  Z"
/>
<path fill="#525252" d="
  M 256.00 179.56
  L 256.00 241.50
  Q 253.90 253.85 241.56 256.00
  L 175.54 256.00
  L 127.98 208.05
  L 175.71 144.40
  A 0.25 0.25 0.0 0 0 175.51 144.00
  L 111.43 143.92
  Q 95.89 127.56 80.70 112.77
  Q 80.43 112.50 80.47 112.01
  L 175.54 111.99
  A 0.27 0.27 0.0 0 0 175.75 111.56
  L 131.88 53.11
  Q 132.52 52.76 133.19 52.94
  A 1.05 1.01 -10.5 0 1 133.78 53.33
  Q 134.69 54.53 135.75 55.61
  C 170.18 90.67 205.27 125.17 239.80 159.77
  Q 241.38 161.36 242.38 162.85
  Q 248.38 171.74 256.00 179.56
  Z"
/>
<path fill="#ffffff" d="
  M 111.43 143.92
  L 175.51 144.00
  A 0.25 0.25 0.0 0 1 175.71 144.40
  L 127.98 208.05
  L 80.37 144.38
  A 0.23 0.23 0.0 0 1 80.56 144.01
  L 111.43 143.92
  Z"
/>
<path fill="#ffffff" d="
  M 15.33 256.00
  L 0.00 256.00
  L 0.00 240.72
  Q 1.70 254.34 15.33 256.00
  Z"
/>
<path fill="#ffffff" d="
  M 256.00 241.50
  L 256.00 256.00
  L 241.56 256.00
  Q 253.90 253.85 256.00 241.50
  Z"
/>
</svg>
