<svg xmlns="http://www.w3.org/2000/svg" fill="none" viewBox="0 0 89 16" class="Navbarstyles__LogoText-sc-1b19ce9-3 GPrfj" style="fill: none !important;"><path fill="currentColor" d="M1.483 8.177V.455H0v7.722c0 2.872 1.483 4.646 4.72 4.646 3.151 0 4.719-1.774 4.719-4.646V.455H7.955v7.722c0 2.365-1.095 3.328-3.236 3.328s-3.236-.963-3.236-3.328" style="fill: rgb(0, 0, 0) !important;"/><path fill="currentColor" fill-rule="evenodd" d="M13.366 5.355V4.172H12.05V16h1.35v-4.478h.17c.505.727 1.398 1.301 2.78 1.301 2.023 0 3.927-1.588 3.927-4.427s-1.904-4.427-3.927-4.427c-1.433 0-2.326.625-2.815 1.386h-.168zm5.528 3.041c0 2.028-1.13 3.21-2.78 3.21-1.653 0-2.782-1.182-2.782-3.21s1.13-3.21 2.781-3.21 2.781 1.183 2.781 3.21" clip-rule="evenodd" style="fill: rgb(0, 0, 0) !important;"/><path fill="currentColor" d="M23.563.455V12.62h-1.348V.455z" style="fill: rgb(0, 0, 0) !important;"/><path fill="currentColor" fill-rule="evenodd" d="M33.828 8.396c0-2.619-1.635-4.427-4.164-4.427s-4.163 1.808-4.163 4.427c0 2.62 1.635 4.427 4.163 4.427s4.163-1.808 4.163-4.427zm-1.383 0c0 2.028-1.095 3.21-2.78 3.21-1.686 0-2.782-1.182-2.782-3.21s1.096-3.21 2.781-3.21 2.781 1.183 2.781 3.21m6.658-4.426c1.382 0 2.275.574 2.781 1.3h.169l.337-1.098h1.01v8.449h-1.315v-1.183h-.168c-.489.76-1.382 1.385-2.815 1.385-2.023 0-3.927-1.588-3.927-4.427s1.904-4.427 3.927-4.427zm.236 7.637c1.652 0 2.781-1.183 2.781-3.21s-1.13-3.211-2.781-3.211-2.781 1.183-2.781 3.21 1.13 3.21 2.781 3.21zM52.047 5.27c-.505-.726-1.398-1.3-2.78-1.3-2.023 0-3.928 1.588-3.928 4.426s1.905 4.427 3.928 4.427c1.432 0 2.325-.625 2.814-1.385h.169v1.183h1.314V.455h-1.348V5.27zm.236 3.126c0 2.028-1.129 3.21-2.78 3.21-1.652 0-2.782-1.182-2.782-3.21s1.13-3.21 2.781-3.21 2.781 1.183 2.781 3.21" clip-rule="evenodd" style="fill: rgb(0, 0, 0) !important;"/><path fill="currentColor" d="M59.767 3.97c2.393 0 3.438 1.368 3.725 2.737v.253H62.11c-.186-.879-.674-1.74-2.36-1.74-1.77 0-2.865 1.149-2.865 3.176s1.095 3.177 2.865 3.177c1.686 0 2.259-.879 2.46-1.825h1.383v.254c-.303 1.385-1.315 2.821-3.843 2.821-2.612 0-4.247-1.808-4.247-4.427s1.635-4.427 4.264-4.427z" style="fill: rgb(0, 0, 0) !important;"/><path fill="currentColor" fill-rule="evenodd" d="M71.397 5.27c-.506-.726-1.4-1.3-2.781-1.3-2.023 0-3.927 1.588-3.927 4.426s1.904 4.427 3.927 4.427c1.432 0 2.326-.625 2.814-1.385h.169v1.183h1.315V4.17h-1.012l-.337 1.1zm.236 3.126c0 2.028-1.13 3.21-2.781 3.21s-2.781-1.182-2.781-3.21 1.129-3.21 2.78-3.21c1.652 0 2.782 1.183 2.782 3.21" clip-rule="evenodd" style="fill: rgb(0, 0, 0) !important;"/><path fill="currentColor" d="M76.757 4.172v1.267h.168c.27-.76.927-1.3 2.225-1.3h.758v1.25h-.741c-2.023 0-2.377 1.165-2.377 2.686v4.546h-1.348V4.172z" style="fill: rgb(0, 0, 0) !important;"/><path fill="currentColor" fill-rule="evenodd" d="M88.757 8.058c0-2.28-1.348-4.089-3.96-4.089-2.563 0-4.13 1.808-4.13 4.427 0 2.602 1.567 4.427 4.197 4.427 2.174 0 3.455-1.25 3.809-2.737v-.253h-1.349c-.236.963-.977 1.774-2.494 1.774-1.686 0-2.68-1.2-2.714-2.839h6.641zm-3.96-2.906c1.651 0 2.51 1.098 2.544 2.467h-5.225c.068-1.42.995-2.467 2.68-2.467z" clip-rule="evenodd" style="fill: rgb(0, 0, 0) !important;"/></svg>