<?xml version="1.0" encoding="UTF-8" standalone="no"?>
<!DOCTYPE svg PUBLIC "-//W3C//DTD SVG 1.1//EN" "http://www.w3.org/Graphics/SVG/1.1/DTD/svg11.dtd">
<svg xmlns="http://www.w3.org/2000/svg" version="1.1" viewBox="0.00 0.00 400.00 400.00">
<g stroke-width="2.00" fill="none" stroke-linecap="butt">
<path stroke="#808080" vector-effect="non-scaling-stroke" d="
  M 293.2529 177.7444
  A 71.40 71.40 0.0 0 0 221.6041 106.5940
  L 177.7444 106.7471
  A 71.40 71.40 0.0 0 0 106.5940 178.3959
  L 106.7471 222.2556
  A 71.40 71.40 0.0 0 0 178.3959 293.4060
  L 222.2556 293.2529
  A 71.40 71.40 0.0 0 0 293.4060 221.6041
  L 293.2529 177.7444"
/>
<path stroke="#808080" vector-effect="non-scaling-stroke" d="
  M 118.31 189.12
  A 0.28 0.28 0.0 0 0 118.80 189.31
  Q 131.33 175.34 150.01 172.60
  A 0.85 0.85 0.0 0 0 150.72 171.91
  Q 150.91 170.81 151.17 168.62
  C 153.63 148.01 165.12 130.48 182.07 118.76
  A 0.24 0.24 0.0 0 0 181.94 118.32
  C 146.81 116.85 117.98 143.69 118.31 179.20
  Q 118.33 182.14 118.31 189.12"
/>
<path stroke="#808080" vector-effect="non-scaling-stroke" d="
  M 250.04 215.53
  Q 268.91 211.85 277.59 195.14
  C 287.12 176.77 279.17 152.66 266.35 138.18
  C 246.97 116.29 213.48 111.83 189.09 128.13
  C 173.69 138.43 162.38 156.38 162.22 175.27
  Q 162.10 189.69 162.13 216.69
  C 162.13 223.44 161.92 227.32 165.57 231.88
  C 173.82 242.18 190.64 238.65 193.69 225.62
  Q 194.11 223.80 194.11 214.34
  Q 194.10 185.34 194.07 184.03
  Q 193.86 174.52 195.33 170.08
  C 199.24 158.26 209.28 150.58 221.73 150.49
  C 236.92 150.38 249.45 162.47 249.52 177.76
  Q 249.61 200.67 249.54 215.12
  A 0.42 0.42 0.0 0 0 250.04 215.53"
/>
<path stroke="#808080" vector-effect="non-scaling-stroke" d="
  M 149.96 184.47
  Q 131.09 188.16 122.41 204.87
  C 112.88 223.24 120.83 247.34 133.65 261.82
  C 153.04 283.71 186.52 288.17 210.91 271.86
  C 226.31 261.56 237.62 243.61 237.78 224.72
  Q 237.89 210.31 237.86 183.31
  C 237.86 176.56 238.07 172.68 234.42 168.12
  C 226.17 157.82 209.35 161.35 206.30 174.38
  Q 205.88 176.20 205.88 185.66
  Q 205.90 214.66 205.93 215.97
  Q 206.14 225.48 204.67 229.92
  C 200.76 241.74 190.72 249.42 178.27 249.51
  C 163.08 249.62 150.55 237.53 150.48 222.24
  Q 150.39 199.33 150.46 184.88
  A 0.42 0.42 0.0 0 0 149.96 184.47"
/>
<path stroke="#808080" vector-effect="non-scaling-stroke" d="
  M 281.69 210.87
  A 0.28 0.28 0.0 0 0 281.20 210.68
  Q 268.67 224.66 249.99 227.40
  A 0.85 0.85 0.0 0 0 249.28 228.09
  Q 249.09 229.19 248.83 231.38
  C 246.38 251.99 234.89 269.52 217.94 281.24
  A 0.24 0.24 0.0 0 0 218.07 281.68
  C 253.20 283.14 282.03 256.30 281.69 220.79
  Q 281.67 217.85 281.69 210.87"
/>
</g>
<path fill="#000000" d="
  M 400.00 0.00
  L 400.00 400.00
  L 0.00 400.00
  L 0.00 0.00
  L 400.00 0.00
  Z
  M 293.2529 177.7444
  A 71.40 71.40 0.0 0 0 221.6041 106.5940
  L 177.7444 106.7471
  A 71.40 71.40 0.0 0 0 106.5940 178.3959
  L 106.7471 222.2556
  A 71.40 71.40 0.0 0 0 178.3959 293.4060
  L 222.2556 293.2529
  A 71.40 71.40 0.0 0 0 293.4060 221.6041
  L 293.2529 177.7444
  Z"
/>
<path fill="#ffffff" d="
  M 293.4060 221.6041
  A 71.40 71.40 0.0 0 1 222.2556 293.2529
  L 178.3959 293.4060
  A 71.40 71.40 0.0 0 1 106.7471 222.2556
  L 106.5940 178.3959
  A 71.40 71.40 0.0 0 1 177.7444 106.7471
  L 221.6041 106.5940
  A 71.40 71.40 0.0 0 1 293.2529 177.7444
  L 293.4060 221.6041
  Z
  M 118.31 189.12
  A 0.28 0.28 0.0 0 0 118.80 189.31
  Q 131.33 175.34 150.01 172.60
  A 0.85 0.85 0.0 0 0 150.72 171.91
  Q 150.91 170.81 151.17 168.62
  C 153.63 148.01 165.12 130.48 182.07 118.76
  A 0.24 0.24 0.0 0 0 181.94 118.32
  C 146.81 116.85 117.98 143.69 118.31 179.20
  Q 118.33 182.14 118.31 189.12
  Z
  M 250.04 215.53
  Q 268.91 211.85 277.59 195.14
  C 287.12 176.77 279.17 152.66 266.35 138.18
  C 246.97 116.29 213.48 111.83 189.09 128.13
  C 173.69 138.43 162.38 156.38 162.22 175.27
  Q 162.10 189.69 162.13 216.69
  C 162.13 223.44 161.92 227.32 165.57 231.88
  C 173.82 242.18 190.64 238.65 193.69 225.62
  Q 194.11 223.80 194.11 214.34
  Q 194.10 185.34 194.07 184.03
  Q 193.86 174.52 195.33 170.08
  C 199.24 158.26 209.28 150.58 221.73 150.49
  C 236.92 150.38 249.45 162.47 249.52 177.76
  Q 249.61 200.67 249.54 215.12
  A 0.42 0.42 0.0 0 0 250.04 215.53
  Z
  M 149.96 184.47
  Q 131.09 188.16 122.41 204.87
  C 112.88 223.24 120.83 247.34 133.65 261.82
  C 153.04 283.71 186.52 288.17 210.91 271.86
  C 226.31 261.56 237.62 243.61 237.78 224.72
  Q 237.89 210.31 237.86 183.31
  C 237.86 176.56 238.07 172.68 234.42 168.12
  C 226.17 157.82 209.35 161.35 206.30 174.38
  Q 205.88 176.20 205.88 185.66
  Q 205.90 214.66 205.93 215.97
  Q 206.14 225.48 204.67 229.92
  C 200.76 241.74 190.72 249.42 178.27 249.51
  C 163.08 249.62 150.55 237.53 150.48 222.24
  Q 150.39 199.33 150.46 184.88
  A 0.42 0.42 0.0 0 0 149.96 184.47
  Z
  M 281.69 210.87
  A 0.28 0.28 0.0 0 0 281.20 210.68
  Q 268.67 224.66 249.99 227.40
  A 0.85 0.85 0.0 0 0 249.28 228.09
  Q 249.09 229.19 248.83 231.38
  C 246.38 251.99 234.89 269.52 217.94 281.24
  A 0.24 0.24 0.0 0 0 218.07 281.68
  C 253.20 283.14 282.03 256.30 281.69 220.79
  Q 281.67 217.85 281.69 210.87
  Z"
/>
<path fill="#000000" d="
  M 118.31 189.12
  Q 118.33 182.14 118.31 179.20
  C 117.98 143.69 146.81 116.85 181.94 118.32
  A 0.24 0.24 0.0 0 1 182.07 118.76
  C 165.12 130.48 153.63 148.01 151.17 168.62
  Q 150.91 170.81 150.72 171.91
  A 0.85 0.85 0.0 0 1 150.01 172.60
  Q 131.33 175.34 118.80 189.31
  A 0.28 0.28 0.0 0 1 118.31 189.12
  Z"
/>
<path fill="#000000" d="
  M 250.04 215.53
  A 0.42 0.42 0.0 0 1 249.54 215.12
  Q 249.61 200.67 249.52 177.76
  C 249.45 162.47 236.92 150.38 221.73 150.49
  C 209.28 150.58 199.24 158.26 195.33 170.08
  Q 193.86 174.52 194.07 184.03
  Q 194.10 185.34 194.11 214.34
  Q 194.11 223.80 193.69 225.62
  C 190.64 238.65 173.82 242.18 165.57 231.88
  C 161.92 227.32 162.13 223.44 162.13 216.69
  Q 162.10 189.69 162.22 175.27
  C 162.38 156.38 173.69 138.43 189.09 128.13
  C 213.48 111.83 246.97 116.29 266.35 138.18
  C 279.17 152.66 287.12 176.77 277.59 195.14
  Q 268.91 211.85 250.04 215.53
  Z"
/>
<path fill="#000000" d="
  M 149.96 184.47
  A 0.42 0.42 0.0 0 1 150.46 184.88
  Q 150.39 199.33 150.48 222.24
  C 150.55 237.53 163.08 249.62 178.27 249.51
  C 190.72 249.42 200.76 241.74 204.67 229.92
  Q 206.14 225.48 205.93 215.97
  Q 205.90 214.66 205.88 185.66
  Q 205.88 176.20 206.30 174.38
  C 209.35 161.35 226.17 157.82 234.42 168.12
  C 238.07 172.68 237.86 176.56 237.86 183.31
  Q 237.89 210.31 237.78 224.72
  C 237.62 243.61 226.31 261.56 210.91 271.86
  C 186.52 288.17 153.04 283.71 133.65 261.82
  C 120.83 247.34 112.88 223.24 122.41 204.87
  Q 131.09 188.16 149.96 184.47
  Z"
/>
<path fill="#000000" d="
  M 281.69 210.87
  Q 281.67 217.85 281.69 220.79
  C 282.03 256.30 253.20 283.14 218.07 281.68
  A 0.24 0.24 0.0 0 1 217.94 281.24
  C 234.89 269.52 246.38 251.99 248.83 231.38
  Q 249.09 229.19 249.28 228.09
  A 0.85 0.85 0.0 0 1 249.99 227.40
  Q 268.67 224.66 281.20 210.68
  A 0.28 0.28 0.0 0 1 281.69 210.87
  Z"
/>
</svg>
