<?xml version="1.0" encoding="UTF-8" standalone="no"?>
<!DOCTYPE svg PUBLIC "-//W3C//DTD SVG 1.1//EN" "http://www.w3.org/Graphics/SVG/1.1/DTD/svg11.dtd">
<svg xmlns="http://www.w3.org/2000/svg" version="1.1" viewBox="0.00 0.00 512.00 512.00">
<g stroke-width="2.00" fill="none" stroke-linecap="butt">
<path stroke="#b1b3f8" vector-effect="non-scaling-stroke" d="
  M 420.77 178.72
  L 430.16 154.77
  A 0.85 0.85 0.0 0 0 429.80 153.72
  Q 424.38 150.55 418.94 148.61
  Q 384.65 136.44 348.00 142.23
  Q 335.25 144.25 324.32 150.28
  C 305.94 160.42 296.38 176.81 295.18 197.41
  Q 294.59 207.57 296.02 214.51
  C 300.21 234.91 314.28 247.81 332.51 256.36
  Q 342.42 261.01 347.48 262.76
  Q 362.48 267.96 376.28 273.76
  C 390.22 279.61 404.31 289.70 406.60 305.84
  C 408.30 317.79 405.11 330.14 394.55 337.04
  C 388.54 340.96 381.03 343.22 373.55 344.14
  Q 352.55 346.74 332.81 342.92
  Q 317.41 339.94 299.59 330.99
  A 0.49 0.48 22.8 0 0 298.92 331.26
  L 290.04 355.93
  A 0.61 0.61 0.0 0 0 290.33 356.68
  Q 301.17 362.29 313.24 365.75
  Q 342.67 374.17 373.62 371.36
  C 402.66 368.73 432.92 356.10 438.49 324.05
  C 442.09 303.31 438.03 281.92 422.45 267.04
  Q 413.02 258.03 401.11 252.39
  Q 384.15 244.36 361.51 235.55
  Q 350.15 231.13 340.64 224.48
  Q 328.03 215.67 327.08 201.40
  C 325.43 176.47 347.57 167.69 368.27 167.24
  Q 395.81 166.64 420.08 178.98
  A 0.50 0.50 0.0 0 0 420.77 178.72"
/>
<path stroke="#b1b3f8" vector-effect="non-scaling-stroke" d="
  M 275.44 145.42
  L 243.42 145.42
  A 0.79 0.79 0.0 0 0 242.67 145.96
  Q 227.03 192.75 209.31 242.80
  Q 193.95 286.21 175.37 329.66
  A 0.36 0.36 0.0 0 1 174.71 329.66
  Q 158.53 292.04 144.11 251.92
  Q 126.11 201.88 107.05 145.94
  A 0.77 0.77 0.0 0 0 106.32 145.42
  L 73.10 145.42
  A 0.36 0.36 0.0 0 0 72.76 145.89
  C 98.26 221.04 127.31 294.75 159.78 366.85
  A 0.63 0.61 77.1 0 0 160.34 367.21
  L 188.56 367.21
  A 0.81 0.80 11.7 0 0 189.30 366.73
  Q 213.93 312.08 231.17 267.94
  Q 254.72 207.64 275.94 146.12
  A 0.53 0.53 0.0 0 0 275.44 145.42"
/>
</g>
<path fill="#6366f1" d="
  M 462.96 0.00
  Q 466.26 0.34 469.55 0.83
  C 473.29 1.39 477.63 2.83 480.96 4.20
  C 487.72 6.98 495.13 12.29 499.99 18.22
  Q 503.22 22.15 506.53 28.28
  C 508.06 31.11 508.95 34.44 509.92 37.10
  Q 510.60 38.98 511.15 42.49
  Q 511.58 45.23 512.00 47.97
  L 512.00 463.98
  Q 511.56 467.29 510.97 470.55
  C 510.32 474.20 508.83 478.49 507.79 481.02
  C 505.77 485.91 502.12 491.73 498.05 495.83
  Q 494.23 499.68 493.79 500.02
  Q 486.68 505.49 480.92 507.83
  C 478.08 508.99 474.01 510.36 470.58 510.99
  Q 467.35 511.57 464.07 512.00
  L 49.07 512.00
  Q 45.74 511.68 42.44 511.18
  C 38.71 510.62 34.35 509.18 31.06 507.83
  C 26.17 505.81 20.36 502.21 16.26 498.17
  Q 12.45 494.42 11.99 493.83
  Q 6.58 486.83 4.16 480.93
  C 2.81 477.63 1.37 473.31 0.80 469.57
  Q 0.32 466.30 0.00 463.01
  L 0.00 49.04
  Q 0.59 42.66 1.26 39.99
  Q 7.67 14.34 31.24 4.06
  Q 38.90 0.73 48.94 0.00
  L 462.96 0.00
  Z
  M 420.77 178.72
  L 430.16 154.77
  A 0.85 0.85 0.0 0 0 429.80 153.72
  Q 424.38 150.55 418.94 148.61
  Q 384.65 136.44 348.00 142.23
  Q 335.25 144.25 324.32 150.28
  C 305.94 160.42 296.38 176.81 295.18 197.41
  Q 294.59 207.57 296.02 214.51
  C 300.21 234.91 314.28 247.81 332.51 256.36
  Q 342.42 261.01 347.48 262.76
  Q 362.48 267.96 376.28 273.76
  C 390.22 279.61 404.31 289.70 406.60 305.84
  C 408.30 317.79 405.11 330.14 394.55 337.04
  C 388.54 340.96 381.03 343.22 373.55 344.14
  Q 352.55 346.74 332.81 342.92
  Q 317.41 339.94 299.59 330.99
  A 0.49 0.48 22.8 0 0 298.92 331.26
  L 290.04 355.93
  A 0.61 0.61 0.0 0 0 290.33 356.68
  Q 301.17 362.29 313.24 365.75
  Q 342.67 374.17 373.62 371.36
  C 402.66 368.73 432.92 356.10 438.49 324.05
  C 442.09 303.31 438.03 281.92 422.45 267.04
  Q 413.02 258.03 401.11 252.39
  Q 384.15 244.36 361.51 235.55
  Q 350.15 231.13 340.64 224.48
  Q 328.03 215.67 327.08 201.40
  C 325.43 176.47 347.57 167.69 368.27 167.24
  Q 395.81 166.64 420.08 178.98
  A 0.50 0.50 0.0 0 0 420.77 178.72
  Z
  M 275.44 145.42
  L 243.42 145.42
  A 0.79 0.79 0.0 0 0 242.67 145.96
  Q 227.03 192.75 209.31 242.80
  Q 193.95 286.21 175.37 329.66
  A 0.36 0.36 0.0 0 1 174.71 329.66
  Q 158.53 292.04 144.11 251.92
  Q 126.11 201.88 107.05 145.94
  A 0.77 0.77 0.0 0 0 106.32 145.42
  L 73.10 145.42
  A 0.36 0.36 0.0 0 0 72.76 145.89
  C 98.26 221.04 127.31 294.75 159.78 366.85
  A 0.63 0.61 77.1 0 0 160.34 367.21
  L 188.56 367.21
  A 0.81 0.80 11.7 0 0 189.30 366.73
  Q 213.93 312.08 231.17 267.94
  Q 254.72 207.64 275.94 146.12
  A 0.53 0.53 0.0 0 0 275.44 145.42
  Z"
/>
<path fill="#ffffff" d="
  M 420.08 178.98
  Q 395.81 166.64 368.27 167.24
  C 347.57 167.69 325.43 176.47 327.08 201.40
  Q 328.03 215.67 340.64 224.48
  Q 350.15 231.13 361.51 235.55
  Q 384.15 244.36 401.11 252.39
  Q 413.02 258.03 422.45 267.04
  C 438.03 281.92 442.09 303.31 438.49 324.05
  C 432.92 356.10 402.66 368.73 373.62 371.36
  Q 342.67 374.17 313.24 365.75
  Q 301.17 362.29 290.33 356.68
  A 0.61 0.61 0.0 0 1 290.04 355.93
  L 298.92 331.26
  A 0.49 0.48 22.8 0 1 299.59 330.99
  Q 317.41 339.94 332.81 342.92
  Q 352.55 346.74 373.55 344.14
  C 381.03 343.22 388.54 340.96 394.55 337.04
  C 405.11 330.14 408.30 317.79 406.60 305.84
  C 404.31 289.70 390.22 279.61 376.28 273.76
  Q 362.48 267.96 347.48 262.76
  Q 342.42 261.01 332.51 256.36
  C 314.28 247.81 300.21 234.91 296.02 214.51
  Q 294.59 207.57 295.18 197.41
  C 296.38 176.81 305.94 160.42 324.32 150.28
  Q 335.25 144.25 348.00 142.23
  Q 384.65 136.44 418.94 148.61
  Q 424.38 150.55 429.80 153.72
  A 0.85 0.85 0.0 0 1 430.16 154.77
  L 420.77 178.72
  A 0.50 0.50 0.0 0 1 420.08 178.98
  Z"
/>
<path fill="#ffffff" d="
  M 275.44 145.42
  A 0.53 0.53 0.0 0 1 275.94 146.12
  Q 254.72 207.64 231.17 267.94
  Q 213.93 312.08 189.30 366.73
  A 0.81 0.80 11.7 0 1 188.56 367.21
  L 160.34 367.21
  A 0.63 0.61 77.1 0 1 159.78 366.85
  C 127.31 294.75 98.26 221.04 72.76 145.89
  A 0.36 0.36 0.0 0 1 73.10 145.42
  L 106.32 145.42
  A 0.77 0.77 0.0 0 1 107.05 145.94
  Q 126.11 201.88 144.11 251.92
  Q 158.53 292.04 174.71 329.66
  A 0.36 0.36 0.0 0 0 175.37 329.66
  Q 193.95 286.21 209.31 242.80
  Q 227.03 192.75 242.67 145.96
  A 0.79 0.79 0.0 0 1 243.42 145.42
  L 275.44 145.42
  Z"
/>
</svg>
