<?xml version="1.0" encoding="utf-8"?>
<!-- Generator: Adobe Illustrator 27.7.0, SVG Export Plug-In . SVG Version: 6.00 Build 0)  -->
<svg version="1.1" id="Layer_1" xmlns="http://www.w3.org/2000/svg" xmlns:xlink="http://www.w3.org/1999/xlink" x="0px" y="0px"
	 viewBox="0 0 1486 392.2" style="enable-background:new 0 0 1486 392.2;" xml:space="preserve">
<style type="text/css">
	.st0{fill:#8438FD;}
	.st1{fill:#000000;}
	.st2{fill:#30374F;}
	.st3{fill-rule:evenodd;clip-rule:evenodd;fill:#30374F;}
</style>
<g>
	<path class="st0" d="M60.8,0h270.6c33.6,0,60.8,27.2,60.8,60.8v270.6c0,33.6-27.2,60.8-60.8,60.8H60.8C27.2,392.2,0,365,0,331.4
		V60.8C0,27.2,27.2,0,60.8,0z"/>
	<path class="st1" d="M283.7,169.5l29.1-11.1c1.4-0.5,2.8,1.1,2,2.4l-86.3,142.8c-0.9,1.4-2.4,2.3-4,2.3H168c-1.6,0-3.2-0.9-4-2.3
		L77.8,160.8c-0.8-1.3,0.5-3,2-2.4l29,11.1c1.2,0.5,2.4-0.8,1.9-2L78.2,88.7c-0.5-1.2,0.7-2.4,1.9-2l61.7,21.6
		c1.2,0.4,2.2,1.3,2.6,2.5l42,105.5c0.5,1.3-0.8,2.6-2.1,2.2l-26.1-9.6c-1.5-0.5-2.8,1.1-2,2.4l38.4,65.2c0.8,1.4,2.9,1.4,3.7,0
		l38.4-65.2c0.8-1.3-0.6-2.9-2-2.4l-26.1,9.6c-1.3,0.5-2.6-0.8-2.1-2.2l41.9-105.6c0.5-1.2,1.4-2.1,2.6-2.5l61.7-21.6
		c1.2-0.4,2.4,0.8,1.9,2l-32.5,78.8C281.3,168.7,282.5,170,283.7,169.5z"/>
	<path class="st2" d="M1237.9,0.6h-54.7v304.1h54.7V0.6z"/>
	<path class="st3" d="M844.2,97.4c12.4,5.3,23.3,12.7,32.6,22.4c9.3,9.6,16.7,21.2,22.3,34.7c5.5,13.5,8.2,28.4,8.2,44.6
		c0,2.5-0.1,4.9-0.4,7.2c-0.1,0.9-0.2,1.7-0.3,2.6l0,0v0c-0.2,1.4-0.4,2.8-0.6,4.2l-0.1,0.4l-0.1,0.5c-0.1,0.5-0.1,1-0.2,1.4v0l0,0
		v0v0c-0.2,1.6-0.4,3.1-0.6,4.6H755.7c2.5,10.6,7.8,19.4,15.9,26.6c8.1,7.2,19.1,10.8,33.1,10.8c7.2,0,13.1-0.8,18-2.3
		c4.8-1.6,8.9-3.4,12.3-5.6c3.7-2.5,6.8-5.3,9.3-8.4h55.9c-2.8,8.1-7.1,16.2-12.8,24.3c-5.8,8.1-12.8,15.3-21,21.7
		c-8.3,6.3-17.6,11.6-28,15.6c-10.5,4-21.7,6.1-33.8,6.1c-14.6,0-28.4-2.9-41.3-8.7c-12.9-5.7-24.2-13.6-34.1-23.5
		c-9.8-9.9-17.6-21.5-23.3-34.7c-5.8-13.2-8.7-27.5-8.7-42.7c0-15.2,2.9-29.4,8.7-42.7c5.7-13.2,13.5-24.8,23.3-34.7
		c9.8-9.9,21.2-17.8,34.1-23.5c12.9-5.8,26.7-8.7,41.3-8.7C818.6,89.5,831.8,92.1,844.2,97.4z M770.3,152.9
		c-8.9,8.1-14.5,18.1-17,29.9h102.6c-2.5-11.9-8.2-21.8-17-29.9c-8.9-8.1-20.3-12.1-34.3-12.1C790.6,140.8,779.2,144.8,770.3,152.9z
		"/>
	<path class="st2" d="M585,264.7h-7.8L527.2,89.2h-58.1l68.6,215.4h86.8L693,89.2h-58.1L585,264.7z"/>
	<path class="st2" d="M1001.6,117.5c6.9-14.8,24.3-31.7,62.9-31.7c50.3,0,83.8,36.9,83.7,90.3v128.6h-54.7V180.5
		c0-32.6-16.5-48.6-46-48.6c-33.5,0-53,23.4-53,63.4v109.5H940V89.2h53.8v28.2H1001.6z"/>
	<path class="st2" d="M1431.3,198.7V89.3h54.7v253.7c0,29.5-19.1,48.6-47.7,48.6h-135.5v-47.8H1420c7.8,0,12.2-4.3,12.2-13v-54.3
		h-7.8c-6.9,14.8-24.3,31.7-62.9,31.7c-50.3,0-83.8-36.9-83.8-90.3V89.3h54.7v124.2c0,32.6,16.5,48.6,46,48.6
		C1411.8,262.1,1431.3,238.7,1431.3,198.7z"/>
</g>
</svg>
