<?xml version="1.0" encoding="UTF-8" standalone="no"?>
<!DOCTYPE svg PUBLIC "-//W3C//DTD SVG 1.1//EN" "http://www.w3.org/Graphics/SVG/1.1/DTD/svg11.dtd">
<svg xmlns="http://www.w3.org/2000/svg" version="1.1" viewBox="0.00 0.00 400.00 100.00">
<path fill="#137ed9" d="
  M 188.25 38.04
  C 195.99 30.56 207.72 34.01 208.05 45.68
  Q 208.27 53.41 208.14 65.68
  A 1.71 1.71 0.0 0 1 206.43 67.38
  L 201.28 67.38
  A 1.74 1.73 0.2 0 1 199.54 65.64
  Q 199.59 57.65 199.55 47.51
  C 199.53 43.20 196.19 40.09 191.88 42.39
  Q 190.22 43.27 188.03 45.87
  A 1.48 1.47 -25.3 0 0 187.69 46.81
  L 187.69 65.64
  A 1.76 1.76 0.0 0 1 185.93 67.40
  L 181.15 67.40
  A 1.96 1.95 90.0 0 1 179.20 65.44
  L 179.20 22.88
  A 2.82 2.82 0.0 0 1 182.02 20.06
  L 185.05 20.06
  A 2.63 2.63 0.0 0 1 187.68 22.69
  L 187.68 37.80
  A 0.34 0.34 0.0 0 0 188.25 38.04
  Z"
/>
<rect fill="#137ed9" x="-4.86" y="-4.34" transform="translate(129.18,26.04) rotate(-0.6)" width="9.72" height="8.68" rx="3.31"/>
<path fill="#137ed9" d="
  M 354.99 24.70
  Q 355.43 24.70 355.83 24.93
  Q 361.10 27.95 366.37 30.99
  Q 371.64 34.02 376.91 37.07
  Q 377.30 37.30 377.52 37.67
  Q 377.74 38.05 377.74 38.51
  Q 377.76 44.59 377.76 50.67
  Q 377.77 56.76 377.76 62.84
  Q 377.76 63.30 377.55 63.66
  Q 377.33 64.04 376.93 64.28
  Q 371.67 67.33 366.41 70.38
  Q 361.14 73.42 355.87 76.46
  Q 355.47 76.69 355.05 76.69
  Q 354.61 76.69 354.21 76.46
  Q 348.94 73.43 343.67 70.40
  Q 338.40 67.36 333.13 64.31
  Q 332.73 64.08 332.52 63.72
  Q 332.30 63.34 332.30 62.88
  Q 332.28 56.79 332.28 50.71
  Q 332.27 44.63 332.28 38.55
  Q 332.28 38.09 332.49 37.72
  Q 332.71 37.34 333.11 37.11
  Q 338.37 34.05 343.63 31.01
  Q 348.90 27.96 354.17 24.93
  Q 354.57 24.70 354.99 24.70
  Z
  M 364.65 67.28
  Q 369.09 64.69 373.52 62.08
  Q 373.86 61.89 374.04 61.56
  Q 374.22 61.26 374.22 60.87
  Q 374.20 55.73 374.17 50.59
  Q 374.15 45.45 374.11 40.31
  Q 374.11 39.92 373.92 39.60
  Q 373.74 39.29 373.40 39.10
  Q 368.94 36.54 364.48 33.99
  Q 360.01 31.45 355.54 28.91
  Q 355.21 28.72 354.83 28.72
  Q 354.48 28.72 354.14 28.92
  Q 349.70 31.50 345.26 34.09
  Q 340.82 36.69 336.39 39.29
  Q 336.06 39.49 335.87 39.81
  Q 335.70 40.12 335.70 40.51
  Q 335.71 45.65 335.74 50.79
  Q 335.76 55.93 335.80 61.07
  Q 335.81 61.45 335.99 61.78
  Q 336.17 62.08 336.51 62.28
  Q 340.97 64.83 345.43 67.38
  Q 349.90 69.93 354.37 72.46
  Q 354.71 72.66 355.08 72.65
  Q 355.43 72.65 355.77 72.46
  Q 360.21 69.87 364.65 67.28
  Z"
/>
<path fill="#137ed9" d="
  M 74.79 53.06
  A 2.30 2.30 0.0 0 0 72.47 56.43
  L 73.28 57.95
  A 6.99 6.98 77.6 0 0 79.00 61.62
  Q 84.71 61.98 89.78 59.76
  A 1.49 1.49 0.0 0 1 91.87 61.13
  L 91.87 63.70
  A 2.78 2.77 80.6 0 1 89.99 66.33
  Q 81.92 69.11 74.07 67.38
  C 65.14 65.42 62.62 56.44 63.77 48.31
  Q 65.82 33.85 80.31 34.19
  C 90.09 34.43 94.46 42.93 93.02 51.71
  Q 92.77 53.21 90.56 53.20
  C 82.81 53.11 77.03 53.33 74.79 53.06
  Z
  M 72.91 47.76
  L 84.63 47.72
  A 0.47 0.47 0.0 0 0 85.10 47.25
  L 85.10 46.86
  A 6.60 5.89 89.8 0 0 79.19 40.28
  L 78.31 40.28
  A 6.60 5.89 89.8 0 0 72.44 46.90
  L 72.44 47.29
  A 0.47 0.47 0.0 0 0 72.91 47.76
  Z"
/>
<path fill="#137ed9" d="
  M 108.00 39.26
  C 110.96 35.51 113.31 33.12 118.53 34.67
  A 1.54 1.53 8.6 0 1 119.63 36.15
  L 119.56 41.68
  A 1.12 1.12 0.0 0 1 118.26 42.78
  C 117.36 42.64 115.93 42.05 114.87 42.13
  C 112.39 42.33 110.07 45.11 108.91 47.21
  A 1.90 1.88 -30.7 0 0 108.67 48.13
  L 108.67 65.68
  A 1.71 1.71 0.0 0 1 106.96 67.39
  L 102.12 67.39
  A 1.94 1.94 0.0 0 1 100.18 65.45
  L 100.18 36.42
  A 1.57 1.56 90.0 0 1 101.74 34.85
  L 105.90 34.85
  A 1.54 1.53 -90.0 0 1 107.43 36.39
  L 107.43 39.07
  A 0.32 0.32 0.0 0 0 108.00 39.26
  Z"
/>
<path fill="#137ed9" d="
  M 150.89 64.30
  A 0.24 0.24 0.0 0 0 150.48 64.48
  L 150.48 77.21
  A 2.58 2.58 0.0 0 1 147.90 79.79
  L 144.70 79.79
  A 2.83 2.83 0.0 0 1 141.87 76.96
  L 141.87 36.47
  A 1.61 1.61 0.0 0 1 143.48 34.86
  L 147.60 34.86
  A 1.50 1.50 0.0 0 1 149.10 36.36
  L 149.10 39.09
  A 0.32 0.32 0.0 0 0 149.67 39.30
  C 156.94 30.94 169.13 32.76 171.76 44.28
  C 173.54 52.07 172.51 64.96 162.87 67.61
  Q 156.34 69.40 150.89 64.30
  Z
  M 150.47 51.00
  Q 150.40 54.91 150.43 55.51
  A 1.63 1.61 -66.0 0 0 150.78 56.45
  C 157.59 64.87 163.43 59.95 163.57 51.22
  C 163.72 42.49 158.05 37.38 150.96 45.57
  A 1.63 1.61 67.9 0 0 150.58 46.50
  Q 150.53 47.09 150.47 51.00
  Z"
/>
<path fill="#137ed9" d="
  M 247.11 51.00
  C 246.98 63.64 238.08 70.12 225.94 67.61
  C 217.46 65.85 214.71 59.13 214.79 51.22
  C 214.91 38.58 223.82 32.10 235.95 34.62
  C 244.44 36.38 247.18 43.09 247.11 51.00
  Z
  M 238.2577 47.9423
  A 6.71 6.71 0.0 0 0 231.6897 41.0933
  L 230.6300 41.0711
  A 6.71 6.71 0.0 0 0 223.7809 47.6391
  L 223.6423 54.2577
  A 6.71 6.71 0.0 0 0 230.2103 61.1067
  L 231.2700 61.1289
  A 6.71 6.71 0.0 0 0 238.1191 54.5609
  L 238.2577 47.9423
  Z"
/>
<path fill="#137ed9" d="
  M 261.45 39.22
  Q 262.09 38.74 264.01 37.02
  C 269.25 32.32 278.56 33.33 281.66 40.19
  Q 282.91 42.95 282.83 50.04
  Q 282.74 58.35 282.84 65.32
  A 2.05 2.05 0.0 0 1 280.79 67.40
  L 276.20 67.40
  A 1.98 1.98 0.0 0 1 274.22 65.42
  L 274.22 46.51
  A 1.14 0.99 75.1 0 0 274.21 46.35
  Q 272.74 40.31 267.18 42.05
  Q 265.53 42.56 262.68 45.91
  A 1.30 1.28 65.7 0 0 262.37 46.75
  L 262.37 65.64
  A 1.75 1.75 0.0 0 1 260.62 67.39
  L 255.70 67.39
  A 1.88 1.87 -90.0 0 1 253.83 65.51
  L 253.83 36.69
  A 1.85 1.84 -90.0 0 1 255.67 34.84
  L 259.40 34.84
  A 1.70 1.70 0.0 0 1 261.10 36.54
  L 261.10 39.04
  A 0.22 0.22 0.0 0 0 261.45 39.22
  Z"
/>
<path fill="#137ed9" d="
  M 300.70 53.06
  A 2.30 2.30 0.0 0 0 298.38 56.43
  L 299.19 57.95
  A 6.99 6.98 77.6 0 0 304.91 61.62
  Q 310.62 61.98 315.69 59.77
  A 1.49 1.49 0.0 0 1 317.78 61.14
  L 317.78 63.71
  A 2.78 2.77 80.6 0 1 315.90 66.34
  Q 307.82 69.11 299.97 67.38
  C 291.04 65.42 288.53 56.43 289.68 48.30
  Q 291.74 33.84 306.23 34.19
  C 316.01 34.43 320.38 42.94 318.93 51.72
  Q 318.68 53.22 316.47 53.20
  C 308.72 53.11 302.94 53.33 300.70 53.06
  Z
  M 298.77 47.74
  L 310.65 47.72
  A 0.44 0.44 0.0 0 0 311.09 47.28
  L 311.09 47.04
  A 6.78 5.95 89.9 0 0 305.12 40.27
  L 304.26 40.27
  A 6.78 5.95 89.9 0 0 298.33 47.06
  L 298.33 47.30
  A 0.44 0.44 0.0 0 0 298.77 47.74
  Z"
/>
<path fill="#137ed9" d="
  M 45.40 58.18
  A 0.12 0.12 0.0 0 0 45.62 58.18
  L 52.20 36.90
  A 3.00 3.00 0.0 0 1 55.07 34.78
  L 59.02 34.78
  A 1.91 1.90 -80.7 0 1 60.82 37.29
  L 51.16 66.00
  A 1.98 1.97 9.2 0 1 49.28 67.35
  L 41.11 67.35
  A 2.12 2.11 -9.1 0 1 39.10 65.90
  L 29.32 36.93
  A 1.58 1.58 0.0 0 1 30.82 34.85
  L 35.69 34.85
  A 2.57 2.56 80.6 0 1 38.12 36.60
  L 45.40 58.18
  Z"
/>
<rect fill="#137ed9" x="124.82" y="34.88" width="8.54" height="32.54" rx="1.73"/>
<path fill="#137ed9" d="
  M 353.10 52.89
  Q 355.08 54.86 358.43 56.59
  A 0.69 0.69 0.0 0 0 359.31 56.37
  Q 360.75 54.24 361.89 53.50
  A 1.09 1.09 0.0 0 1 363.01 53.47
  L 368.43 56.61
  A 1.00 0.99 -77.5 0 1 368.93 57.40
  C 369.21 61.38 364.60 63.96 361.31 63.21
  C 356.48 62.12 353.01 60.08 349.46 56.56
  C 345.91 53.03 343.85 49.57 342.73 44.75
  C 341.95 41.46 344.50 36.84 348.49 37.09
  A 1.00 0.99 -12.8 0 1 349.28 37.58
  L 352.45 42.98
  A 1.09 1.09 0.0 0 1 352.43 44.10
  Q 351.70 45.25 349.58 46.70
  A 0.69 0.69 0.0 0 0 349.36 47.59
  Q 351.12 50.93 353.10 52.89
  Z"
/>
</svg>
