<?xml version="1.0" encoding="UTF-8" standalone="no"?>
<!DOCTYPE svg PUBLIC "-//W3C//DTD SVG 1.1//EN" "http://www.w3.org/Graphics/SVG/1.1/DTD/svg11.dtd">
<svg xmlns="http://www.w3.org/2000/svg" version="1.1" viewBox="0.00 0.00 400.00 400.00">
<g stroke-width="2.00" fill="none" stroke-linecap="butt">
<path stroke="#b6b6b8" vector-effect="non-scaling-stroke" d="
  M 2.08 75.82
  Q 1.43 78.64 2.17 81.40
  A 0.43 0.42 10.5 0 0 2.34 81.64
  C 95.50 145.02 131.76 169.16 194.45 213.56
  A 1.35 1.33 44.7 0 0 196.00 213.56
  Q 243.43 180.14 286.29 150.87
  Q 304.81 138.22 324.23 126.42
  Q 350.49 110.47 398.00 81.17
  A 1.09 1.08 78.9 0 0 398.50 80.42
  Q 399.19 76.49 397.84 75.40"
/>
<path stroke="#dedfe0" vector-effect="non-scaling-stroke" d="
  M 397.84 75.40
  Q 392.38 75.06 387.56 75.15
  Q 379.50 75.29 379.43 75.29
  Q 295.41 75.07 210.84 75.05
  Q 182.02 75.04 153.00 75.22
  C 141.67 75.29 129.10 75.00 119.00 75.02
  Q 33.65 75.16 2.75 75.21
  Q 1.91 75.21 2.08 75.82"
/>
<path stroke="#949698" vector-effect="non-scaling-stroke" d="
  M 397.84 75.40
  Q 395.83 76.78 394.91 77.35
  Q 366.57 94.75 326.90 119.21
  Q 302.90 134.01 283.94 146.94
  Q 238.46 177.93 196.04 207.82
  A 1.62 1.62 0.0 0 1 194.18 207.82
  C 170.90 191.40 146.83 174.54 123.26 158.47
  Q 62.66 117.15 2.08 75.82"
/>
<path stroke="#b3d398" vector-effect="non-scaling-stroke" d="
  M 359.98 128.51
  L 315.71 158.64"
/>
<path stroke="#bdd998" vector-effect="non-scaling-stroke" d="
  M 315.71 158.64
  L 257.95 197.89"
/>
<path stroke="#d1e5a8" vector-effect="non-scaling-stroke" d="
  M 257.95 197.89
  L 195.96 239.36
  A 1.28 1.27 -45.2 0 1 194.54 239.37
  L 183.80 232.30"
/>
<path stroke="#bdd998" vector-effect="non-scaling-stroke" d="
  M 183.80 232.30
  L 113.47 185.02"
/>
<path stroke="#b3d398" vector-effect="non-scaling-stroke" d="
  M 113.47 185.02
  L 91.29 169.87"
/>
<path stroke="#a9cd98" vector-effect="non-scaling-stroke" d="
  M 91.29 169.87
  L 68.56 154.59
  A 0.74 0.72 -44.8 0 0 67.73 154.60
  Q 54.82 163.32 41.90 172.15
  C 29.51 180.61 29.45 195.10 41.89 203.61
  Q 66.37 220.35 91.03 236.80"
/>
<path stroke="#b3d398" vector-effect="non-scaling-stroke" d="
  M 91.03 236.80
  L 108.98 249.16"
/>
<path stroke="#bdd998" vector-effect="non-scaling-stroke" d="
  M 108.98 249.16
  L 176.87 293.44"
/>
<path stroke="#edf5e4" vector-effect="non-scaling-stroke" d="
  M 176.87 293.44
  L 180.04 296.14
  A 0.28 0.28 0.0 0 1 179.87 296.64
  Q 175.60 296.92 172.03 297.66
  C 168.21 298.45 166.19 300.56 163.47 303.29
  C 158.52 308.27 151.03 308.28 147.19 311.21
  A 0.26 0.26 0.0 0 0 147.31 311.68
  Q 163.81 313.86 180.26 313.63
  C 183.11 313.59 186.14 314.00 189.12 314.13"
/>
<path stroke="#dedfe0" vector-effect="non-scaling-stroke" d="
  M 189.12 314.13
  L 209.73 313.60"
/>
<path stroke="#b6b6b8" vector-effect="non-scaling-stroke" d="
  M 209.73 313.60
  L 219.05 313.08"
/>
<path stroke="#909290" vector-effect="non-scaling-stroke" d="
  M 219.05 313.08
  L 225.78 312.02"
/>
<path stroke="#b6b6b8" vector-effect="non-scaling-stroke" d="
  M 225.78 312.02
  L 236.09 311.36
  A 0.53 0.48 -47.9 0 0 236.19 311.35
  L 241.34 310.33
  A 1.93 1.90 22.8 0 0 241.99 310.07
  L 244.39 308.52
  A 0.51 0.50 34.7 0 0 244.22 307.60
  C 240.31 306.77 237.09 306.91 232.80 306.68
  Q 224.19 306.20 215.52 306.73"
/>
<path stroke="#bdd998" vector-effect="non-scaling-stroke" d="
  M 215.52 306.73
  L 206.49 307.04
  A 0.72 0.72 0.0 0 1 206.09 305.71
  C 209.40 303.73 212.23 301.64 215.84 299.31
  Q 227.39 291.84 261.69 270.29
  Q 272.67 263.38 287.49 252.69
  Q 304.99 240.06 322.58 227.65"
/>
<path stroke="#b3d398" vector-effect="non-scaling-stroke" d="
  M 322.58 227.65
  L 365.06 197.08"
/>
<path stroke="#a9cd98" vector-effect="non-scaling-stroke" d="
  M 365.06 197.08
  C 377.69 186.71 386.99 170.86 392.10 155.76
  C 397.59 139.53 400.06 120.90 398.74 103.24
  A 0.66 0.65 70.7 0 0 397.72 102.75
  L 359.98 128.51"
/>
<path stroke="#5da130" vector-effect="non-scaling-stroke" d="
  M 365.06 197.08
  C 367.49 174.46 364.88 150.46 359.98 128.51"
/>
<path stroke="#71ad30" vector-effect="non-scaling-stroke" d="
  M 322.58 227.65
  C 319.31 204.68 317.71 183.83 315.71 158.64"
/>
<path stroke="#739050" vector-effect="non-scaling-stroke" d="
  M 215.52 306.73
  Q 217.70 306.92 219.86 306.90
  Q 219.86 306.91 219.87 306.91
  Q 212.77 306.95 205.67 307.22
  A 3.59 3.15 -48.8 0 0 204.99 307.31
  Q 199.17 308.65 195.38 305.35"
/>
<path stroke="#9bb978" vector-effect="non-scaling-stroke" d="
  M 195.38 305.35
  L 193.43 303.57"
/>
<path stroke="#7ab330" vector-effect="non-scaling-stroke" d="
  M 193.43 303.57
  Q 195.70 304.59 197.27 303.41"
/>
<path stroke="#bdd998" vector-effect="non-scaling-stroke" d="
  M 197.27 303.41
  Q 199.02 304.97 201.07 305.08
  A 1.47 1.46 -58.2 0 0 201.91 304.88
  L 207.22 301.82"
/>
<path stroke="#abcf7c" vector-effect="non-scaling-stroke" d="
  M 207.22 301.82
  L 222.25 292.36"
/>
<path stroke="#a3ca6d" vector-effect="non-scaling-stroke" d="
  M 222.25 292.36
  L 243.28 279.02"
/>
<path stroke="#98c455" vector-effect="non-scaling-stroke" d="
  M 243.28 279.02
  L 263.44 266.32"
/>
<path stroke="#8fbf40" vector-effect="non-scaling-stroke" d="
  M 263.44 266.32
  L 295.81 244.99
  A 0.26 0.25 38.9 0 0 295.76 244.54
  C 283.59 239.79 272.25 234.95 267.46 221.50
  Q 263.22 209.60 257.95 197.89"
/>
<path stroke="#8fbf40" vector-effect="non-scaling-stroke" d="
  M 183.80 232.30
  C 176.67 231.87 171.35 230.04 163.51 231.96
  C 156.97 233.56 151.10 239.04 144.40 240.88
  C 133.96 243.75 126.45 245.90 118.13 251.54
  A 0.39 0.39 0.0 0 0 118.13 252.19
  L 145.63 270.21"
/>
<path stroke="#98c455" vector-effect="non-scaling-stroke" d="
  M 145.63 270.21
  L 162.69 281.10"
/>
<path stroke="#a3ca6d" vector-effect="non-scaling-stroke" d="
  M 162.69 281.10
  L 179.72 292.19"
/>
<path stroke="#abcf7c" vector-effect="non-scaling-stroke" d="
  M 179.72 292.19
  L 195.44 302.30"
/>
<path stroke="#bdd998" vector-effect="non-scaling-stroke" d="
  M 195.44 302.30
  L 197.27 303.41"
/>
<path stroke="#9bb978" vector-effect="non-scaling-stroke" d="
  M 193.43 303.57
  L 192.21 303.58"
/>
<path stroke="#a5c281" vector-effect="non-scaling-stroke" d="
  M 192.21 303.58
  L 187.35 300.15"
/>
<path stroke="#abcf7c" vector-effect="non-scaling-stroke" d="
  M 187.35 300.15
  L 176.87 293.44"
/>
<path stroke="#acd065" vector-effect="non-scaling-stroke" d="
  M 263.44 266.32
  C 223.35 264.57 184.67 264.74 145.63 270.21"
/>
<path stroke="#949698" vector-effect="non-scaling-stroke" d="
  M 195.38 305.35
  Q 196.26 305.93 196.21 306.06
  A 1.27 1.26 -78.2 0 1 195.01 306.85
  Q 185.38 306.70 178.51 307.45
  Q 171.61 308.20 165.07 311.08
  A 0.27 0.27 0.0 0 0 165.12 311.59
  L 168.07 312.17
  A 1.93 1.53 -33.2 0 0 168.40 312.20
  Q 173.04 312.18 177.53 311.85
  C 181.15 311.58 183.53 312.15 187.36 312.69
  A 12.10 12.06 47.6 0 0 189.71 312.80
  Q 194.29 312.56 198.73 313.36
  A 2.52 2.33 47.3 0 0 199.11 313.39
  L 209.73 313.60"
/>
<path stroke="#d4e6b9" vector-effect="non-scaling-stroke" d="
  M 222.25 292.36
  Q 201.01 290.06 179.72 292.19"
/>
<path stroke="#474948" vector-effect="non-scaling-stroke" d="
  M 225.78 312.02
  L 232.08 310.21
  A 0.33 0.33 0.0 0 0 232.06 309.57
  Q 231.13 309.38 231.08 309.00
  A 0.83 0.83 0.0 0 0 230.29 308.28
  Q 228.80 308.21 227.58 307.83
  C 222.99 306.40 216.78 307.00 212.22 308.05
  Q 209.89 308.59 207.38 308.39
  Q 198.56 307.71 193.99 307.96
  C 188.05 308.28 183.11 306.58 177.14 309.45
  A 0.43 0.43 0.0 0 0 177.24 310.25
  Q 183.53 311.62 190.22 311.81
  Q 205.38 312.22 214.85 312.95
  Q 216.93 313.11 219.05 313.08"
/>
<path stroke="#edf5e4" vector-effect="non-scaling-stroke" d="
  M 207.22 301.82
  Q 200.93 299.01 195.44 302.30"
/>
<path stroke="#c1db92" vector-effect="non-scaling-stroke" d="
  M 243.28 279.02
  Q 202.94 276.76 162.69 281.10"
/>
<path stroke="#c6c7c9" vector-effect="non-scaling-stroke" d="
  M 192.21 303.58
  L 194.89 305.91
  A 0.34 0.34 0.0 0 1 194.55 306.48
  L 193.79 306.18
  A 3.34 3.32 -35.8 0 0 192.40 305.96
  Q 188.92 306.16 177.48 306.59
  Q 174.41 306.71 162.96 310.41
  Q 161.96 310.73 158.38 311.12
  A 0.28 0.28 0.0 0 0 158.13 311.35
  L 158.06 311.70
  A 0.12 0.11 -83.1 0 0 158.16 311.84
  L 169.20 312.78"
/>
<path stroke="#71ad30" vector-effect="non-scaling-stroke" d="
  M 113.47 185.02
  Q 109.74 201.06 106.85 210.36
  Q 103.05 222.62 94.49 235.56
  A 0.71 0.71 0.0 0 0 94.69 236.54
  L 108.51 245.85
  A 1.54 1.21 78.3 0 1 108.70 246.01
  Q 110.55 248.05 108.98 249.16"
/>
<path stroke="#d5ddcd" vector-effect="non-scaling-stroke" d="
  M 187.35 300.15
  Q 184.49 303.12 180.64 303.16
  C 175.98 303.22 172.35 303.74 167.88 305.95
  Q 163.91 307.92 158.47 309.76
  A 0.05 0.05 0.0 0 0 158.48 309.86
  Q 159.54 309.85 160.36 309.87
  Q 156.09 309.70 151.79 310.87
  A 0.38 0.37 -46.9 0 0 151.81 311.60
  Q 160.27 313.18 169.20 312.78"
/>
<path stroke="#ccd4c4" vector-effect="non-scaling-stroke" d="
  M 169.20 312.78
  C 171.86 313.04 174.10 313.23 176.98 313.01
  Q 183.00 312.54 189.12 314.13"
/>
<path stroke="#5da130" vector-effect="non-scaling-stroke" d="
  M 91.29 169.87
  C 90.56 190.37 87.86 208.07 80.54 226.60
  A 1.51 1.51 0.0 0 0 81.14 228.44
  L 91.68 235.04
  A 1.36 1.35 34.7 0 1 92.04 237.01
  Q 91.98 237.10 91.03 236.80"
/>
<path stroke="#c6c7c9" vector-effect="non-scaling-stroke" d="
  M 201.36 127.49
  C 229.92 127.49 258.83 127.14 289.00 126.00
  Q 290.84 125.93 291.76 124.93
  A 0.34 0.34 0.0 0 0 291.70 124.42
  Q 266.64 107.66 225.82 80.67
  Q 223.09 78.87 219.50 78.89
  Q 212.46 78.94 201.38 78.94
  Q 190.29 78.94 183.25 78.88
  Q 179.66 78.86 176.93 80.66
  Q 136.10 107.63 111.03 124.38
  A 0.34 0.34 0.0 0 0 110.97 124.89
  Q 111.89 125.89 113.73 125.96
  C 143.90 127.12 172.81 127.48 201.36 127.49"
/>
</g>
<path fill="#ffffff" d="
  M 400.00 0.00
  L 400.00 400.00
  L 0.00 400.00
  L 0.00 0.00
  L 400.00 0.00
  Z
  M 2.08 75.82
  Q 1.43 78.64 2.17 81.40
  A 0.43 0.42 10.5 0 0 2.34 81.64
  C 95.50 145.02 131.76 169.16 194.45 213.56
  A 1.35 1.33 44.7 0 0 196.00 213.56
  Q 243.43 180.14 286.29 150.87
  Q 304.81 138.22 324.23 126.42
  Q 350.49 110.47 398.00 81.17
  A 1.09 1.08 78.9 0 0 398.50 80.42
  Q 399.19 76.49 397.84 75.40
  Q 392.38 75.06 387.56 75.15
  Q 379.50 75.29 379.43 75.29
  Q 295.41 75.07 210.84 75.05
  Q 182.02 75.04 153.00 75.22
  C 141.67 75.29 129.10 75.00 119.00 75.02
  Q 33.65 75.16 2.75 75.21
  Q 1.91 75.21 2.08 75.82
  Z
  M 359.98 128.51
  L 315.71 158.64
  L 257.95 197.89
  L 195.96 239.36
  A 1.28 1.27 -45.2 0 1 194.54 239.37
  L 183.80 232.30
  L 113.47 185.02
  L 91.29 169.87
  L 68.56 154.59
  A 0.74 0.72 -44.8 0 0 67.73 154.60
  Q 54.82 163.32 41.90 172.15
  C 29.51 180.61 29.45 195.10 41.89 203.61
  Q 66.37 220.35 91.03 236.80
  L 108.98 249.16
  L 176.87 293.44
  L 180.04 296.14
  A 0.28 0.28 0.0 0 1 179.87 296.64
  Q 175.60 296.92 172.03 297.66
  C 168.21 298.45 166.19 300.56 163.47 303.29
  C 158.52 308.27 151.03 308.28 147.19 311.21
  A 0.26 0.26 0.0 0 0 147.31 311.68
  Q 163.81 313.86 180.26 313.63
  C 183.11 313.59 186.14 314.00 189.12 314.13
  L 209.73 313.60
  L 219.05 313.08
  L 225.78 312.02
  L 236.09 311.36
  A 0.53 0.48 -47.9 0 0 236.19 311.35
  L 241.34 310.33
  A 1.93 1.90 22.8 0 0 241.99 310.07
  L 244.39 308.52
  A 0.51 0.50 34.7 0 0 244.22 307.60
  C 240.31 306.77 237.09 306.91 232.80 306.68
  Q 224.19 306.20 215.52 306.73
  L 206.49 307.04
  A 0.72 0.72 0.0 0 1 206.09 305.71
  C 209.40 303.73 212.23 301.64 215.84 299.31
  Q 227.39 291.84 261.69 270.29
  Q 272.67 263.38 287.49 252.69
  Q 304.99 240.06 322.58 227.65
  L 365.06 197.08
  C 377.69 186.71 386.99 170.86 392.10 155.76
  C 397.59 139.53 400.06 120.90 398.74 103.24
  A 0.66 0.65 70.7 0 0 397.72 102.75
  L 359.98 128.51
  Z"
/>
<path fill="#bcbec0" d="
  M 397.84 75.40
  Q 395.83 76.78 394.91 77.35
  Q 366.57 94.75 326.90 119.21
  Q 302.90 134.01 283.94 146.94
  Q 238.46 177.93 196.04 207.82
  A 1.62 1.62 0.0 0 1 194.18 207.82
  C 170.90 191.40 146.83 174.54 123.26 158.47
  Q 62.66 117.15 2.08 75.82
  Q 1.91 75.21 2.75 75.21
  Q 33.65 75.16 119.00 75.02
  C 129.10 75.00 141.67 75.29 153.00 75.22
  Q 182.02 75.04 210.84 75.05
  Q 295.41 75.07 379.43 75.29
  Q 379.50 75.29 387.56 75.15
  Q 392.38 75.06 397.84 75.40
  Z
  M 201.36 127.49
  C 229.92 127.49 258.83 127.14 289.00 126.00
  Q 290.84 125.93 291.76 124.93
  A 0.34 0.34 0.0 0 0 291.70 124.42
  Q 266.64 107.66 225.82 80.67
  Q 223.09 78.87 219.50 78.89
  Q 212.46 78.94 201.38 78.94
  Q 190.29 78.94 183.25 78.88
  Q 179.66 78.86 176.93 80.66
  Q 136.10 107.63 111.03 124.38
  A 0.34 0.34 0.0 0 0 110.97 124.89
  Q 111.89 125.89 113.73 125.96
  C 143.90 127.12 172.81 127.48 201.36 127.49
  Z"
/>
<path fill="#6c6d70" d="
  M 2.08 75.82
  Q 62.66 117.15 123.26 158.47
  C 146.83 174.54 170.90 191.40 194.18 207.82
  A 1.62 1.62 0.0 0 0 196.04 207.82
  Q 238.46 177.93 283.94 146.94
  Q 302.90 134.01 326.90 119.21
  Q 366.57 94.75 394.91 77.35
  Q 395.83 76.78 397.84 75.40
  Q 399.19 76.49 398.50 80.42
  A 1.09 1.08 78.9 0 1 398.00 81.17
  Q 350.49 110.47 324.23 126.42
  Q 304.81 138.22 286.29 150.87
  Q 243.43 180.14 196.00 213.56
  A 1.35 1.33 44.7 0 1 194.45 213.56
  C 131.76 169.16 95.50 145.02 2.34 81.64
  A 0.43 0.42 10.5 0 1 2.17 81.40
  Q 1.43 78.64 2.08 75.82
  Z"
/>
<path fill="#cfd0d1" d="
  M 201.38 78.94
  Q 212.46 78.94 219.50 78.89
  Q 223.09 78.87 225.82 80.67
  Q 266.64 107.66 291.70 124.42
  A 0.34 0.34 0.0 0 1 291.76 124.93
  Q 290.84 125.93 289.00 126.00
  C 258.83 127.14 229.92 127.49 201.36 127.49
  C 172.81 127.48 143.90 127.12 113.73 125.96
  Q 111.89 125.89 110.97 124.89
  A 0.34 0.34 0.0 0 1 111.03 124.38
  Q 136.10 107.63 176.93 80.66
  Q 179.66 78.86 183.25 78.88
  Q 190.29 78.94 201.38 78.94
  Z"
/>
<path fill="#529a30" d="
  M 365.06 197.08
  C 367.49 174.46 364.88 150.46 359.98 128.51
  L 397.72 102.75
  A 0.66 0.65 70.7 0 1 398.74 103.24
  C 400.06 120.90 397.59 139.53 392.10 155.76
  C 386.99 170.86 377.69 186.71 365.06 197.08
  Z"
/>
<path fill="#67a730" d="
  M 359.98 128.51
  C 364.88 150.46 367.49 174.46 365.06 197.08
  L 322.58 227.65
  C 319.31 204.68 317.71 183.83 315.71 158.64
  L 359.98 128.51
  Z"
/>
<path fill="#529a30" d="
  M 91.29 169.87
  C 90.56 190.37 87.86 208.07 80.54 226.60
  A 1.51 1.51 0.0 0 0 81.14 228.44
  L 91.68 235.04
  A 1.36 1.35 34.7 0 1 92.04 237.01
  Q 91.98 237.10 91.03 236.80
  Q 66.37 220.35 41.89 203.61
  C 29.45 195.10 29.51 180.61 41.90 172.15
  Q 54.82 163.32 67.73 154.60
  A 0.74 0.72 -44.8 0 1 68.56 154.59
  L 91.29 169.87
  Z"
/>
<path fill="#7ab330" d="
  M 315.71 158.64
  C 317.71 183.83 319.31 204.68 322.58 227.65
  Q 304.99 240.06 287.49 252.69
  Q 272.67 263.38 261.69 270.29
  Q 227.39 291.84 215.84 299.31
  C 212.23 301.64 209.40 303.73 206.09 305.71
  A 0.72 0.72 0.0 0 0 206.49 307.04
  L 215.52 306.73
  Q 217.70 306.92 219.86 306.90
  Q 219.86 306.91 219.87 306.91
  Q 212.77 306.95 205.67 307.22
  A 3.59 3.15 -48.8 0 0 204.99 307.31
  Q 199.17 308.65 195.38 305.35
  L 193.43 303.57
  Q 195.70 304.59 197.27 303.41
  Q 199.02 304.97 201.07 305.08
  A 1.47 1.46 -58.2 0 0 201.91 304.88
  L 207.22 301.82
  L 222.25 292.36
  L 243.28 279.02
  L 263.44 266.32
  L 295.81 244.99
  A 0.26 0.25 38.9 0 0 295.76 244.54
  C 283.59 239.79 272.25 234.95 267.46 221.50
  Q 263.22 209.60 257.95 197.89
  L 315.71 158.64
  Z"
/>
<path fill="#67a730" d="
  M 113.47 185.02
  Q 109.74 201.06 106.85 210.36
  Q 103.05 222.62 94.49 235.56
  A 0.71 0.71 0.0 0 0 94.69 236.54
  L 108.51 245.85
  A 1.54 1.21 78.3 0 1 108.70 246.01
  Q 110.55 248.05 108.98 249.16
  L 91.03 236.80
  Q 91.98 237.10 92.04 237.01
  A 1.36 1.35 34.7 0 0 91.68 235.04
  L 81.14 228.44
  A 1.51 1.51 0.0 0 1 80.54 226.60
  C 87.86 208.07 90.56 190.37 91.29 169.87
  L 113.47 185.02
  Z"
/>
<path fill="#7ab330" d="
  M 183.80 232.30
  C 176.67 231.87 171.35 230.04 163.51 231.96
  C 156.97 233.56 151.10 239.04 144.40 240.88
  C 133.96 243.75 126.45 245.90 118.13 251.54
  A 0.39 0.39 0.0 0 0 118.13 252.19
  L 145.63 270.21
  L 162.69 281.10
  L 179.72 292.19
  L 195.44 302.30
  L 197.27 303.41
  Q 195.70 304.59 193.43 303.57
  L 192.21 303.58
  L 187.35 300.15
  L 176.87 293.44
  L 108.98 249.16
  Q 110.55 248.05 108.70 246.01
  A 1.54 1.21 78.3 0 0 108.51 245.85
  L 94.69 236.54
  A 0.71 0.71 0.0 0 1 94.49 235.56
  Q 103.05 222.62 106.85 210.36
  Q 109.74 201.06 113.47 185.02
  L 183.80 232.30
  Z"
/>
<path fill="#a3cb50" d="
  M 263.44 266.32
  C 223.35 264.57 184.67 264.74 145.63 270.21
  L 118.13 252.19
  A 0.39 0.39 0.0 0 1 118.13 251.54
  C 126.45 245.90 133.96 243.75 144.40 240.88
  C 151.10 239.04 156.97 233.56 163.51 231.96
  C 171.35 230.04 176.67 231.87 183.80 232.30
  L 194.54 239.37
  A 1.28 1.27 -45.2 0 0 195.96 239.36
  L 257.95 197.89
  Q 263.22 209.60 267.46 221.50
  C 272.25 234.95 283.59 239.79 295.76 244.54
  A 0.26 0.25 38.9 0 1 295.81 244.99
  L 263.44 266.32
  Z"
/>
<path fill="#b5d47a" d="
  M 263.44 266.32
  L 243.28 279.02
  Q 202.94 276.76 162.69 281.10
  L 145.63 270.21
  C 184.67 264.74 223.35 264.57 263.44 266.32
  Z"
/>
<path fill="#cce1a9" d="
  M 243.28 279.02
  L 222.25 292.36
  Q 201.01 290.06 179.72 292.19
  L 162.69 281.10
  Q 202.94 276.76 243.28 279.02
  Z"
/>
<path fill="#dbeac8" d="
  M 222.25 292.36
  L 207.22 301.82
  Q 200.93 299.01 195.44 302.30
  L 179.72 292.19
  Q 201.01 290.06 222.25 292.36
  Z"
/>
<path fill="#dbeac8" d="
  M 187.35 300.15
  Q 184.49 303.12 180.64 303.16
  C 175.98 303.22 172.35 303.74 167.88 305.95
  Q 163.91 307.92 158.47 309.76
  A 0.05 0.05 0.0 0 0 158.48 309.86
  Q 159.54 309.85 160.36 309.87
  Q 156.09 309.70 151.79 310.87
  A 0.38 0.37 -46.9 0 0 151.81 311.60
  Q 160.27 313.18 169.20 312.78
  C 171.86 313.04 174.10 313.23 176.98 313.01
  Q 183.00 312.54 189.12 314.13
  C 186.14 314.00 183.11 313.59 180.26 313.63
  Q 163.81 313.86 147.31 311.68
  A 0.26 0.26 0.0 0 1 147.19 311.21
  C 151.03 308.28 158.52 308.27 163.47 303.29
  C 166.19 300.56 168.21 298.45 172.03 297.66
  Q 175.60 296.92 179.87 296.64
  A 0.28 0.28 0.0 0 0 180.04 296.14
  L 176.87 293.44
  L 187.35 300.15
  Z"
/>
<path fill="#ffffff" d="
  M 207.22 301.82
  L 201.91 304.88
  A 1.47 1.46 -58.2 0 1 201.07 305.08
  Q 199.02 304.97 197.27 303.41
  L 195.44 302.30
  Q 200.93 299.01 207.22 301.82
  Z"
/>
<path fill="#cfd0d1" d="
  M 192.21 303.58
  L 194.89 305.91
  A 0.34 0.34 0.0 0 1 194.55 306.48
  L 193.79 306.18
  A 3.34 3.32 -35.8 0 0 192.40 305.96
  Q 188.92 306.16 177.48 306.59
  Q 174.41 306.71 162.96 310.41
  Q 161.96 310.73 158.38 311.12
  A 0.28 0.28 0.0 0 0 158.13 311.35
  L 158.06 311.70
  A 0.12 0.11 -83.1 0 0 158.16 311.84
  L 169.20 312.78
  Q 160.27 313.18 151.81 311.60
  A 0.38 0.37 -46.9 0 1 151.79 310.87
  Q 156.09 309.70 160.36 309.87
  Q 159.54 309.85 158.48 309.86
  A 0.05 0.05 0.0 0 1 158.47 309.76
  Q 163.91 307.92 167.88 305.95
  C 172.35 303.74 175.98 303.22 180.64 303.16
  Q 184.49 303.12 187.35 300.15
  L 192.21 303.58
  Z"
/>
<path fill="#bcbec0" d="
  M 193.43 303.57
  L 195.38 305.35
  Q 196.26 305.93 196.21 306.06
  A 1.27 1.26 -78.2 0 1 195.01 306.85
  Q 185.38 306.70 178.51 307.45
  Q 171.61 308.20 165.07 311.08
  A 0.27 0.27 0.0 0 0 165.12 311.59
  L 168.07 312.17
  A 1.93 1.53 -33.2 0 0 168.40 312.20
  Q 173.04 312.18 177.53 311.85
  C 181.15 311.58 183.53 312.15 187.36 312.69
  A 12.10 12.06 47.6 0 0 189.71 312.80
  Q 194.29 312.56 198.73 313.36
  A 2.52 2.33 47.3 0 0 199.11 313.39
  L 209.73 313.60
  L 189.12 314.13
  Q 183.00 312.54 176.98 313.01
  C 174.10 313.23 171.86 313.04 169.20 312.78
  L 158.16 311.84
  A 0.12 0.11 -83.1 0 1 158.06 311.70
  L 158.13 311.35
  A 0.28 0.28 0.0 0 1 158.38 311.12
  Q 161.96 310.73 162.96 310.41
  Q 174.41 306.71 177.48 306.59
  Q 188.92 306.16 192.40 305.96
  A 3.34 3.32 -35.8 0 1 193.79 306.18
  L 194.55 306.48
  A 0.34 0.34 0.0 0 0 194.89 305.91
  L 192.21 303.58
  L 193.43 303.57
  Z"
/>
<path fill="#6c6d70" d="
  M 215.52 306.73
  Q 224.19 306.20 232.80 306.68
  C 237.09 306.91 240.31 306.77 244.22 307.60
  A 0.51 0.50 34.7 0 1 244.39 308.52
  L 241.99 310.07
  A 1.93 1.90 22.8 0 1 241.34 310.33
  L 236.19 311.35
  A 0.53 0.48 -47.9 0 1 236.09 311.36
  L 225.78 312.02
  L 232.08 310.21
  A 0.33 0.33 0.0 0 0 232.06 309.57
  Q 231.13 309.38 231.08 309.00
  A 0.83 0.83 0.0 0 0 230.29 308.28
  Q 228.80 308.21 227.58 307.83
  C 222.99 306.40 216.78 307.00 212.22 308.05
  Q 209.89 308.59 207.38 308.39
  Q 198.56 307.71 193.99 307.96
  C 188.05 308.28 183.11 306.58 177.14 309.45
  A 0.43 0.43 0.0 0 0 177.24 310.25
  Q 183.53 311.62 190.22 311.81
  Q 205.38 312.22 214.85 312.95
  Q 216.93 313.11 219.05 313.08
  L 209.73 313.60
  L 199.11 313.39
  A 2.52 2.33 47.3 0 1 198.73 313.36
  Q 194.29 312.56 189.71 312.80
  A 12.10 12.06 47.6 0 1 187.36 312.69
  C 183.53 312.15 181.15 311.58 177.53 311.85
  Q 173.04 312.18 168.40 312.20
  A 1.93 1.53 -33.2 0 1 168.07 312.17
  L 165.12 311.59
  A 0.27 0.27 0.0 0 1 165.07 311.08
  Q 171.61 308.20 178.51 307.45
  Q 185.38 306.70 195.01 306.85
  A 1.27 1.26 -78.2 0 0 196.21 306.06
  Q 196.26 305.93 195.38 305.35
  Q 199.17 308.65 204.99 307.31
  A 3.59 3.15 -48.8 0 1 205.67 307.22
  Q 212.77 306.95 219.87 306.91
  Q 219.86 306.91 219.86 306.90
  Q 217.70 306.92 215.52 306.73
  Z"
/>
<path fill="#212520" d="
  M 225.78 312.02
  L 219.05 313.08
  Q 216.93 313.11 214.85 312.95
  Q 205.38 312.22 190.22 311.81
  Q 183.53 311.62 177.24 310.25
  A 0.43 0.43 0.0 0 1 177.14 309.45
  C 183.11 306.58 188.05 308.28 193.99 307.96
  Q 198.56 307.71 207.38 308.39
  Q 209.89 308.59 212.22 308.05
  C 216.78 307.00 222.99 306.40 227.58 307.83
  Q 228.80 308.21 230.29 308.28
  A 0.83 0.83 0.0 0 1 231.08 309.00
  Q 231.13 309.38 232.06 309.57
  A 0.33 0.33 0.0 0 1 232.08 310.21
  L 225.78 312.02
  Z"
/>
</svg>
