<?xml version="1.0" encoding="UTF-8" standalone="no"?>
<!DOCTYPE svg PUBLIC "-//W3C//DTD SVG 1.1//EN" "http://www.w3.org/Graphics/SVG/1.1/DTD/svg11.dtd">
<svg xmlns="http://www.w3.org/2000/svg" version="1.1" viewBox="0.00 0.00 64.00 64.00">
<g stroke-width="2.00" fill="none" stroke-linecap="butt">
<path stroke="#7f824a" vector-effect="non-scaling-stroke" d="
  M 33.26 4.91
  A 0.32 0.32 0.0 0 1 32.96 4.68
  L 32.29 2.50
  A 0.32 0.32 0.0 0 0 31.67 2.50
  L 30.98 4.67
  A 0.32 0.32 0.0 0 1 30.67 4.89
  L 28.39 4.86
  A 0.32 0.32 0.0 0 0 28.20 5.44
  L 30.05 6.77
  A 0.32 0.32 0.0 0 1 30.17 7.13
  L 29.43 9.29
  A 0.32 0.32 0.0 0 0 29.92 9.65
  L 31.76 8.30
  A 0.32 0.32 0.0 0 1 32.14 8.30
  L 33.97 9.68
  A 0.32 0.32 0.0 0 0 34.46 9.32
  L 33.74 7.15
  A 0.32 0.32 0.0 0 1 33.86 6.79
  L 35.73 5.48
  A 0.32 0.32 0.0 0 0 35.55 4.89
  L 33.26 4.91"
/>
<path stroke="#7f824a" vector-effect="non-scaling-stroke" d="
  M 47.14 8.18
  A 0.32 0.32 0.0 0 1 46.82 7.95
  L 46.14 5.71
  A 0.32 0.32 0.0 0 0 45.52 5.71
  L 44.86 7.96
  A 0.32 0.32 0.0 0 1 44.55 8.19
  L 42.20 8.15
  A 0.32 0.32 0.0 0 0 42.01 8.74
  L 43.95 10.06
  A 0.32 0.32 0.0 0 1 44.07 10.43
  L 43.31 12.65
  A 0.32 0.32 0.0 0 0 43.81 13.01
  L 45.67 11.58
  A 0.32 0.32 0.0 0 1 46.05 11.58
  L 47.93 12.99
  A 0.32 0.32 0.0 0 0 48.42 12.63
  L 47.64 10.41
  A 0.32 0.32 0.0 0 1 47.75 10.04
  L 49.68 8.70
  A 0.32 0.32 0.0 0 0 49.48 8.12
  L 47.14 8.18"
/>
<path stroke="#7f824a" vector-effect="non-scaling-stroke" d="
  M 19.21 8.39
  A 0.32 0.32 0.0 0 1 18.90 8.17
  L 18.22 5.95
  A 0.32 0.32 0.0 0 0 17.61 5.95
  L 16.93 8.16
  A 0.32 0.32 0.0 0 1 16.61 8.39
  L 14.30 8.35
  A 0.32 0.32 0.0 0 0 14.11 8.93
  L 16.00 10.26
  A 0.32 0.32 0.0 0 1 16.12 10.63
  L 15.37 12.82
  A 0.32 0.32 0.0 0 0 15.86 13.18
  L 17.71 11.79
  A 0.32 0.32 0.0 0 1 18.10 11.79
  L 19.95 13.19
  A 0.32 0.32 0.0 0 0 20.44 12.83
  L 19.70 10.64
  A 0.32 0.32 0.0 0 1 19.82 10.27
  L 21.71 8.94
  A 0.32 0.32 0.0 0 0 21.52 8.36
  L 19.21 8.39"
/>
<path stroke="#7f824a" vector-effect="non-scaling-stroke" d="
  M 55.91 18.09
  A 0.32 0.32 0.0 0 1 55.60 17.87
  L 54.92 15.73
  A 0.32 0.32 0.0 0 0 54.31 15.73
  L 53.63 17.87
  A 0.32 0.32 0.0 0 1 53.32 18.09
  L 51.07 18.07
  A 0.32 0.32 0.0 0 0 50.88 18.65
  L 52.71 19.97
  A 0.32 0.32 0.0 0 1 52.82 20.33
  L 52.11 22.46
  A 0.32 0.32 0.0 0 0 52.60 22.82
  L 54.42 21.49
  A 0.32 0.32 0.0 0 1 54.80 21.49
  L 56.60 22.82
  A 0.32 0.32 0.0 0 0 57.10 22.47
  L 56.39 20.33
  A 0.32 0.32 0.0 0 1 56.51 19.97
  L 58.34 18.67
  A 0.32 0.32 0.0 0 0 58.15 18.09
  L 55.91 18.09"
/>
<path stroke="#7f824a" vector-effect="non-scaling-stroke" d="
  M 10.75 18.35
  A 0.32 0.32 0.0 0 1 10.44 18.12
  L 9.78 15.90
  A 0.32 0.32 0.0 0 0 9.17 15.90
  L 8.48 18.10
  A 0.32 0.32 0.0 0 1 8.17 18.33
  L 5.86 18.27
  A 0.32 0.32 0.0 0 0 5.66 18.85
  L 7.55 20.19
  A 0.32 0.32 0.0 0 1 7.66 20.56
  L 6.90 22.74
  A 0.32 0.32 0.0 0 0 7.39 23.10
  L 9.24 21.72
  A 0.32 0.32 0.0 0 1 9.63 21.73
  L 11.46 23.13
  A 0.32 0.32 0.0 0 0 11.96 22.77
  L 11.23 20.58
  A 0.32 0.32 0.0 0 1 11.35 20.22
  L 13.25 18.91
  A 0.32 0.32 0.0 0 0 13.06 18.32
  L 10.75 18.35"
/>
<path stroke="#8097c9" vector-effect="non-scaling-stroke" d="
  M 21.37 31.29
  Q 22.17 31.28 22.22 31.28
  A 0.89 0.89 0.0 0 0 22.99 30.70
  L 25.95 22.60
  A 0.43 0.43 0.0 0 0 25.54 22.02
  L 24.42 22.02
  A 0.89 0.88 -80.1 0 0 23.59 22.61
  Q 22.60 25.32 21.58 28.22
  Q 21.53 28.37 21.36 28.37
  Q 21.18 28.37 21.13 28.22
  Q 20.09 25.33 19.08 22.63
  A 0.89 0.88 79.6 0 0 18.24 22.04
  L 17.12 22.05
  A 0.43 0.43 0.0 0 0 16.72 22.64
  L 19.74 30.71
  A 0.89 0.89 0.0 0 0 20.52 31.29
  Q 20.56 31.29 21.37 31.29"
/>
<path stroke="#8097c9" vector-effect="non-scaling-stroke" d="
  M 29.7973 22.4621
  A 0.40 0.40 0.0 0 0 29.3980 22.0614
  L 27.7980 22.0586
  A 0.40 0.40 0.0 0 0 27.3973 22.4579
  L 27.3827 30.8579
  A 0.40 0.40 0.0 0 0 27.7820 31.2586
  L 29.3820 31.2614
  A 0.40 0.40 0.0 0 0 29.7827 30.8621
  L 29.7973 22.4621"
/>
<path stroke="#8097c9" vector-effect="non-scaling-stroke" d="
  M 34.43 24.49
  A 0.61 0.60 89.5 0 1 35.02 23.88
  L 37.91 23.85
  A 0.79 0.78 88.2 0 0 38.68 23.02
  L 38.68 22.97
  A 0.85 0.84 90.0 0 0 37.85 22.13
  L 33.14 22.02
  A 1.05 1.05 0.0 0 0 32.07 23.07
  L 32.07 30.59
  A 0.71 0.71 0.0 0 0 32.78 31.30
  L 38.09 31.30
  A 0.57 0.56 -90.0 0 0 38.65 30.73
  L 38.65 29.99
  A 0.54 0.54 0.0 0 0 38.11 29.45
  L 35.04 29.45
  A 0.60 0.60 0.0 0 1 34.44 28.85
  L 34.44 27.89
  A 0.55 0.55 0.0 0 1 34.99 27.34
  L 37.76 27.34
  A 0.51 0.51 0.0 0 0 38.27 26.83
  L 38.27 26.17
  A 0.63 0.63 0.0 0 0 37.64 25.54
  L 35.14 25.54
  A 0.72 0.71 -90.0 0 1 34.43 24.82
  L 34.43 24.49"
/>
<path stroke="#8097c9" vector-effect="non-scaling-stroke" d="
  M 40.49 29.83
  A 1.24 1.23 9.2 0 0 41.34 31.00
  C 43.95 31.84 48.54 31.74 47.64 27.63
  C 47.31 26.12 45.02 25.75 43.26 25.26
  A 0.75 0.75 0.0 0 1 43.25 23.82
  Q 44.75 23.38 46.63 24.11
  A 0.42 0.42 0.0 0 0 47.21 23.72
  L 47.21 23.11
  A 0.90 0.90 0.0 0 0 46.55 22.24
  C 44.55 21.69 41.33 21.44 40.60 24.04
  A 2.51 2.28 -71.4 0 0 41.87 26.95
  Q 42.90 27.37 44.78 27.91
  A 0.87 0.87 0.0 0 1 44.66 29.61
  Q 42.85 29.88 41.13 29.04
  A 0.45 0.44 13.1 0 0 40.49 29.43
  L 40.49 29.83"
/>
<path stroke="#7f824a" vector-effect="non-scaling-stroke" d="
  M 7.68 30.13
  A 0.32 0.32 0.0 0 1 7.37 29.90
  L 6.71 27.69
  A 0.32 0.32 0.0 0 0 6.10 27.69
  L 5.40 29.89
  A 0.32 0.32 0.0 0 1 5.09 30.11
  L 2.78 30.06
  A 0.32 0.32 0.0 0 0 2.58 30.64
  L 4.46 31.98
  A 0.32 0.32 0.0 0 1 4.57 32.35
  L 3.81 34.53
  A 0.32 0.32 0.0 0 0 4.30 34.89
  L 6.16 33.52
  A 0.32 0.32 0.0 0 1 6.54 33.53
  L 8.38 34.92
  A 0.32 0.32 0.0 0 0 8.88 34.57
  L 8.15 32.38
  A 0.32 0.32 0.0 0 1 8.27 32.01
  L 10.17 30.70
  A 0.32 0.32 0.0 0 0 9.99 30.12
  L 7.68 30.13"
/>
<path stroke="#7f824a" vector-effect="non-scaling-stroke" d="
  M 59.12 30.10
  A 0.32 0.32 0.0 0 1 58.81 29.88
  L 58.13 27.71
  A 0.32 0.32 0.0 0 0 57.52 27.71
  L 56.84 29.88
  A 0.32 0.32 0.0 0 1 56.53 30.10
  L 54.26 30.09
  A 0.32 0.32 0.0 0 0 54.07 30.67
  L 55.93 31.98
  A 0.32 0.32 0.0 0 1 56.04 32.34
  L 55.33 34.50
  A 0.32 0.32 0.0 0 0 55.82 34.86
  L 57.64 33.50
  A 0.32 0.32 0.0 0 1 58.02 33.50
  L 59.85 34.85
  A 0.32 0.32 0.0 0 0 60.34 34.49
  L 59.62 32.34
  A 0.32 0.32 0.0 0 1 59.74 31.98
  L 61.58 30.65
  A 0.32 0.32 0.0 0 0 61.39 30.07
  L 59.12 30.10"
/>
<path stroke="#8097c9" vector-effect="non-scaling-stroke" d="
  M 25.84 42.77
  Q 27.20 42.77 27.26 42.78
  A 0.90 0.88 -89.3 0 1 27.94 43.49
  Q 28.18 44.87 29.97 44.50
  A 0.56 0.56 0.0 0 0 30.39 43.76
  L 27.49 35.82
  A 0.81 0.81 0.0 0 0 26.79 35.29
  Q 26.67 35.28 25.85 35.28
  Q 25.02 35.28 24.90 35.29
  A 0.81 0.81 0.0 0 0 24.20 35.82
  L 21.29 43.76
  A 0.56 0.56 0.0 0 0 21.71 44.50
  Q 23.50 44.87 23.74 43.49
  A 0.90 0.88 89.3 0 1 24.42 42.78
  Q 24.49 42.77 25.84 42.77"
/>
<path stroke="#8097c9" vector-effect="non-scaling-stroke" d="
  M 35.13 41.23
  Q 39.38 41.59 39.42 38.10
  A 2.58 2.41 -84.5 0 0 37.46 35.56
  Q 35.42 35.16 32.48 35.28
  A 0.63 0.63 0.0 0 0 31.88 35.91
  L 31.88 43.72
  A 0.78 0.77 0.0 0 0 32.66 44.49
  L 33.61 44.49
  A 0.68 0.67 -0.0 0 0 34.29 43.82
  L 34.29 42.01
  A 0.78 0.78 0.0 0 1 35.13 41.23"
/>
<path stroke="#8097c9" vector-effect="non-scaling-stroke" d="
  M 43.55 35.70
  A 0.40 0.40 0.0 0 0 43.15 35.30
  L 41.55 35.30
  A 0.40 0.40 0.0 0 0 41.15 35.70
  L 41.15 44.06
  A 0.40 0.40 0.0 0 0 41.55 44.46
  L 43.15 44.46
  A 0.40 0.40 0.0 0 0 43.55 44.06
  L 43.55 35.70"
/>
<path stroke="#7f824a" vector-effect="non-scaling-stroke" d="
  M 56.06 43.55
  A 0.32 0.32 0.0 0 1 55.75 43.32
  L 55.08 41.08
  A 0.32 0.32 0.0 0 0 54.46 41.08
  L 53.79 43.32
  A 0.32 0.32 0.0 0 1 53.48 43.55
  L 51.14 43.50
  A 0.32 0.32 0.0 0 0 50.95 44.08
  L 52.87 45.41
  A 0.32 0.32 0.0 0 1 52.99 45.78
  L 52.22 47.99
  A 0.32 0.32 0.0 0 0 52.72 48.35
  L 54.58 46.94
  A 0.32 0.32 0.0 0 1 54.96 46.94
  L 56.82 48.35
  A 0.32 0.32 0.0 0 0 57.32 47.99
  L 56.55 45.78
  A 0.32 0.32 0.0 0 1 56.67 45.41
  L 58.59 44.08
  A 0.32 0.32 0.0 0 0 58.40 43.50
  L 56.06 43.55"
/>
<path stroke="#7f824a" vector-effect="non-scaling-stroke" d="
  M 11.09 43.68
  A 0.32 0.32 0.0 0 1 10.78 43.45
  L 10.11 41.24
  A 0.32 0.32 0.0 0 0 9.50 41.24
  L 8.80 43.44
  A 0.32 0.32 0.0 0 1 8.49 43.66
  L 6.18 43.61
  A 0.32 0.32 0.0 0 0 5.99 44.19
  L 7.87 45.53
  A 0.32 0.32 0.0 0 1 7.99 45.90
  L 7.23 48.08
  A 0.32 0.32 0.0 0 0 7.72 48.44
  L 9.57 47.07
  A 0.32 0.32 0.0 0 1 9.96 47.07
  L 11.80 48.47
  A 0.32 0.32 0.0 0 0 12.29 48.12
  L 11.56 45.93
  A 0.32 0.32 0.0 0 1 11.68 45.56
  L 13.58 44.25
  A 0.32 0.32 0.0 0 0 13.40 43.66
  L 11.09 43.68"
/>
<path stroke="#7f824a" vector-effect="non-scaling-stroke" d="
  M 46.85 52.46
  A 0.32 0.32 0.0 0 1 46.54 52.24
  L 45.86 50.08
  A 0.32 0.32 0.0 0 0 45.25 50.08
  L 44.57 52.24
  A 0.32 0.32 0.0 0 1 44.26 52.46
  L 41.99 52.44
  A 0.32 0.32 0.0 0 0 41.80 53.02
  L 43.64 54.34
  A 0.32 0.32 0.0 0 1 43.76 54.70
  L 43.04 56.85
  A 0.32 0.32 0.0 0 0 43.53 57.20
  L 45.36 55.86
  A 0.32 0.32 0.0 0 1 45.74 55.86
  L 47.56 57.21
  A 0.32 0.32 0.0 0 0 48.05 56.85
  L 47.34 54.70
  A 0.32 0.32 0.0 0 1 47.45 54.34
  L 49.30 53.03
  A 0.32 0.32 0.0 0 0 49.11 52.45
  L 46.85 52.46"
/>
<path stroke="#7f824a" vector-effect="non-scaling-stroke" d="
  M 20.86 52.88
  A 0.32 0.32 0.0 0 1 20.54 52.65
  L 19.91 50.41
  A 0.32 0.32 0.0 0 0 19.29 50.41
  L 18.64 52.64
  A 0.32 0.32 0.0 0 1 18.32 52.87
  L 15.99 52.78
  A 0.32 0.32 0.0 0 0 15.80 53.36
  L 17.72 54.68
  A 0.32 0.32 0.0 0 1 17.84 55.05
  L 17.04 57.23
  A 0.32 0.32 0.0 0 0 17.53 57.60
  L 19.37 56.18
  A 0.32 0.32 0.0 0 1 19.77 56.18
  L 21.59 57.62
  A 0.32 0.32 0.0 0 0 22.09 57.26
  L 21.32 55.07
  A 0.32 0.32 0.0 0 1 21.44 54.70
  L 23.37 53.40
  A 0.32 0.32 0.0 0 0 23.18 52.82
  L 20.86 52.88"
/>
<path stroke="#7f824a" vector-effect="non-scaling-stroke" d="
  M 33.39 56.89
  A 0.32 0.32 0.0 0 1 33.08 56.66
  L 32.41 54.49
  A 0.32 0.32 0.0 0 0 31.80 54.48
  L 31.10 56.65
  A 0.32 0.32 0.0 0 1 30.79 56.87
  L 28.52 56.83
  A 0.32 0.32 0.0 0 0 28.32 57.41
  L 30.17 58.75
  A 0.32 0.32 0.0 0 1 30.29 59.11
  L 29.55 61.26
  A 0.32 0.32 0.0 0 0 30.04 61.63
  L 31.88 60.28
  A 0.32 0.32 0.0 0 1 32.26 60.28
  L 34.08 61.65
  A 0.32 0.32 0.0 0 0 34.57 61.30
  L 33.86 59.13
  A 0.32 0.32 0.0 0 1 33.98 58.77
  L 35.85 57.47
  A 0.32 0.32 0.0 0 0 35.66 56.88
  L 33.39 56.89"
/>
<path stroke="#8097c9" vector-effect="non-scaling-stroke" d="
  M 25.82 41.18
  Q 26.34 41.18 26.45 41.14
  A 0.65 0.64 -19.5 0 0 26.84 40.34
  Q 26.09 38.05 25.83 38.05
  Q 25.57 38.05 24.81 40.33
  A 0.65 0.64 19.9 0 0 25.19 41.13
  Q 25.30 41.17 25.82 41.18"
/>
<path stroke="#8097c9" vector-effect="non-scaling-stroke" d="
  M 34.23 37.53
  L 34.33 39.19
  A 0.49 0.49 0.0 0 0 34.85 39.65
  L 35.36 39.62
  A 1.72 1.20 -3.4 0 0 37.00 38.32
  L 36.99 38.08
  A 1.72 1.20 -3.4 0 0 35.20 36.98
  L 34.69 37.01
  A 0.49 0.49 0.0 0 0 34.23 37.53"
/>
</g>
<path fill="#002e93" d="
  M 34.12 0.00
  C 50.40 1.45 62.49 13.61 64.00 29.85
  L 64.00 34.18
  C 62.10 50.69 50.89 62.13 34.30 64.00
  L 29.82 64.00
  C 13.65 62.51 1.57 50.45 0.00 34.29
  L 0.00 29.81
  C 1.53 13.65 13.54 1.54 29.71 0.00
  L 34.12 0.00
  Z
  M 33.26 4.91
  A 0.32 0.32 0.0 0 1 32.96 4.68
  L 32.29 2.50
  A 0.32 0.32 0.0 0 0 31.67 2.50
  L 30.98 4.67
  A 0.32 0.32 0.0 0 1 30.67 4.89
  L 28.39 4.86
  A 0.32 0.32 0.0 0 0 28.20 5.44
  L 30.05 6.77
  A 0.32 0.32 0.0 0 1 30.17 7.13
  L 29.43 9.29
  A 0.32 0.32 0.0 0 0 29.92 9.65
  L 31.76 8.30
  A 0.32 0.32 0.0 0 1 32.14 8.30
  L 33.97 9.68
  A 0.32 0.32 0.0 0 0 34.46 9.32
  L 33.74 7.15
  A 0.32 0.32 0.0 0 1 33.86 6.79
  L 35.73 5.48
  A 0.32 0.32 0.0 0 0 35.55 4.89
  L 33.26 4.91
  Z
  M 47.14 8.18
  A 0.32 0.32 0.0 0 1 46.82 7.95
  L 46.14 5.71
  A 0.32 0.32 0.0 0 0 45.52 5.71
  L 44.86 7.96
  A 0.32 0.32 0.0 0 1 44.55 8.19
  L 42.20 8.15
  A 0.32 0.32 0.0 0 0 42.01 8.74
  L 43.95 10.06
  A 0.32 0.32 0.0 0 1 44.07 10.43
  L 43.31 12.65
  A 0.32 0.32 0.0 0 0 43.81 13.01
  L 45.67 11.58
  A 0.32 0.32 0.0 0 1 46.05 11.58
  L 47.93 12.99
  A 0.32 0.32 0.0 0 0 48.42 12.63
  L 47.64 10.41
  A 0.32 0.32 0.0 0 1 47.75 10.04
  L 49.68 8.70
  A 0.32 0.32 0.0 0 0 49.48 8.12
  L 47.14 8.18
  Z
  M 19.21 8.39
  A 0.32 0.32 0.0 0 1 18.90 8.17
  L 18.22 5.95
  A 0.32 0.32 0.0 0 0 17.61 5.95
  L 16.93 8.16
  A 0.32 0.32 0.0 0 1 16.61 8.39
  L 14.30 8.35
  A 0.32 0.32 0.0 0 0 14.11 8.93
  L 16.00 10.26
  A 0.32 0.32 0.0 0 1 16.12 10.63
  L 15.37 12.82
  A 0.32 0.32 0.0 0 0 15.86 13.18
  L 17.71 11.79
  A 0.32 0.32 0.0 0 1 18.10 11.79
  L 19.95 13.19
  A 0.32 0.32 0.0 0 0 20.44 12.83
  L 19.70 10.64
  A 0.32 0.32 0.0 0 1 19.82 10.27
  L 21.71 8.94
  A 0.32 0.32 0.0 0 0 21.52 8.36
  L 19.21 8.39
  Z
  M 55.91 18.09
  A 0.32 0.32 0.0 0 1 55.60 17.87
  L 54.92 15.73
  A 0.32 0.32 0.0 0 0 54.31 15.73
  L 53.63 17.87
  A 0.32 0.32 0.0 0 1 53.32 18.09
  L 51.07 18.07
  A 0.32 0.32 0.0 0 0 50.88 18.65
  L 52.71 19.97
  A 0.32 0.32 0.0 0 1 52.82 20.33
  L 52.11 22.46
  A 0.32 0.32 0.0 0 0 52.60 22.82
  L 54.42 21.49
  A 0.32 0.32 0.0 0 1 54.80 21.49
  L 56.60 22.82
  A 0.32 0.32 0.0 0 0 57.10 22.47
  L 56.39 20.33
  A 0.32 0.32 0.0 0 1 56.51 19.97
  L 58.34 18.67
  A 0.32 0.32 0.0 0 0 58.15 18.09
  L 55.91 18.09
  Z
  M 10.75 18.35
  A 0.32 0.32 0.0 0 1 10.44 18.12
  L 9.78 15.90
  A 0.32 0.32 0.0 0 0 9.17 15.90
  L 8.48 18.10
  A 0.32 0.32 0.0 0 1 8.17 18.33
  L 5.86 18.27
  A 0.32 0.32 0.0 0 0 5.66 18.85
  L 7.55 20.19
  A 0.32 0.32 0.0 0 1 7.66 20.56
  L 6.90 22.74
  A 0.32 0.32 0.0 0 0 7.39 23.10
  L 9.24 21.72
  A 0.32 0.32 0.0 0 1 9.63 21.73
  L 11.46 23.13
  A 0.32 0.32 0.0 0 0 11.96 22.77
  L 11.23 20.58
  A 0.32 0.32 0.0 0 1 11.35 20.22
  L 13.25 18.91
  A 0.32 0.32 0.0 0 0 13.06 18.32
  L 10.75 18.35
  Z
  M 21.37 31.29
  Q 22.17 31.28 22.22 31.28
  A 0.89 0.89 0.0 0 0 22.99 30.70
  L 25.95 22.60
  A 0.43 0.43 0.0 0 0 25.54 22.02
  L 24.42 22.02
  A 0.89 0.88 -80.1 0 0 23.59 22.61
  Q 22.60 25.32 21.58 28.22
  Q 21.53 28.37 21.36 28.37
  Q 21.18 28.37 21.13 28.22
  Q 20.09 25.33 19.08 22.63
  A 0.89 0.88 79.6 0 0 18.24 22.04
  L 17.12 22.05
  A 0.43 0.43 0.0 0 0 16.72 22.64
  L 19.74 30.71
  A 0.89 0.89 0.0 0 0 20.52 31.29
  Q 20.56 31.29 21.37 31.29
  Z
  M 29.7973 22.4621
  A 0.40 0.40 0.0 0 0 29.3980 22.0614
  L 27.7980 22.0586
  A 0.40 0.40 0.0 0 0 27.3973 22.4579
  L 27.3827 30.8579
  A 0.40 0.40 0.0 0 0 27.7820 31.2586
  L 29.3820 31.2614
  A 0.40 0.40 0.0 0 0 29.7827 30.8621
  L 29.7973 22.4621
  Z
  M 34.43 24.49
  A 0.61 0.60 89.5 0 1 35.02 23.88
  L 37.91 23.85
  A 0.79 0.78 88.2 0 0 38.68 23.02
  L 38.68 22.97
  A 0.85 0.84 90.0 0 0 37.85 22.13
  L 33.14 22.02
  A 1.05 1.05 0.0 0 0 32.07 23.07
  L 32.07 30.59
  A 0.71 0.71 0.0 0 0 32.78 31.30
  L 38.09 31.30
  A 0.57 0.56 -90.0 0 0 38.65 30.73
  L 38.65 29.99
  A 0.54 0.54 0.0 0 0 38.11 29.45
  L 35.04 29.45
  A 0.60 0.60 0.0 0 1 34.44 28.85
  L 34.44 27.89
  A 0.55 0.55 0.0 0 1 34.99 27.34
  L 37.76 27.34
  A 0.51 0.51 0.0 0 0 38.27 26.83
  L 38.27 26.17
  A 0.63 0.63 0.0 0 0 37.64 25.54
  L 35.14 25.54
  A 0.72 0.71 -90.0 0 1 34.43 24.82
  L 34.43 24.49
  Z
  M 40.49 29.83
  A 1.24 1.23 9.2 0 0 41.34 31.00
  C 43.95 31.84 48.54 31.74 47.64 27.63
  C 47.31 26.12 45.02 25.75 43.26 25.26
  A 0.75 0.75 0.0 0 1 43.25 23.82
  Q 44.75 23.38 46.63 24.11
  A 0.42 0.42 0.0 0 0 47.21 23.72
  L 47.21 23.11
  A 0.90 0.90 0.0 0 0 46.55 22.24
  C 44.55 21.69 41.33 21.44 40.60 24.04
  A 2.51 2.28 -71.4 0 0 41.87 26.95
  Q 42.90 27.37 44.78 27.91
  A 0.87 0.87 0.0 0 1 44.66 29.61
  Q 42.85 29.88 41.13 29.04
  A 0.45 0.44 13.1 0 0 40.49 29.43
  L 40.49 29.83
  Z
  M 7.68 30.13
  A 0.32 0.32 0.0 0 1 7.37 29.90
  L 6.71 27.69
  A 0.32 0.32 0.0 0 0 6.10 27.69
  L 5.40 29.89
  A 0.32 0.32 0.0 0 1 5.09 30.11
  L 2.78 30.06
  A 0.32 0.32 0.0 0 0 2.58 30.64
  L 4.46 31.98
  A 0.32 0.32 0.0 0 1 4.57 32.35
  L 3.81 34.53
  A 0.32 0.32 0.0 0 0 4.30 34.89
  L 6.16 33.52
  A 0.32 0.32 0.0 0 1 6.54 33.53
  L 8.38 34.92
  A 0.32 0.32 0.0 0 0 8.88 34.57
  L 8.15 32.38
  A 0.32 0.32 0.0 0 1 8.27 32.01
  L 10.17 30.70
  A 0.32 0.32 0.0 0 0 9.99 30.12
  L 7.68 30.13
  Z
  M 59.12 30.10
  A 0.32 0.32 0.0 0 1 58.81 29.88
  L 58.13 27.71
  A 0.32 0.32 0.0 0 0 57.52 27.71
  L 56.84 29.88
  A 0.32 0.32 0.0 0 1 56.53 30.10
  L 54.26 30.09
  A 0.32 0.32 0.0 0 0 54.07 30.67
  L 55.93 31.98
  A 0.32 0.32 0.0 0 1 56.04 32.34
  L 55.33 34.50
  A 0.32 0.32 0.0 0 0 55.82 34.86
  L 57.64 33.50
  A 0.32 0.32 0.0 0 1 58.02 33.50
  L 59.85 34.85
  A 0.32 0.32 0.0 0 0 60.34 34.49
  L 59.62 32.34
  A 0.32 0.32 0.0 0 1 59.74 31.98
  L 61.58 30.65
  A 0.32 0.32 0.0 0 0 61.39 30.07
  L 59.12 30.10
  Z
  M 25.84 42.77
  Q 27.20 42.77 27.26 42.78
  A 0.90 0.88 -89.3 0 1 27.94 43.49
  Q 28.18 44.87 29.97 44.50
  A 0.56 0.56 0.0 0 0 30.39 43.76
  L 27.49 35.82
  A 0.81 0.81 0.0 0 0 26.79 35.29
  Q 26.67 35.28 25.85 35.28
  Q 25.02 35.28 24.90 35.29
  A 0.81 0.81 0.0 0 0 24.20 35.82
  L 21.29 43.76
  A 0.56 0.56 0.0 0 0 21.71 44.50
  Q 23.50 44.87 23.74 43.49
  A 0.90 0.88 89.3 0 1 24.42 42.78
  Q 24.49 42.77 25.84 42.77
  Z
  M 35.13 41.23
  Q 39.38 41.59 39.42 38.10
  A 2.58 2.41 -84.5 0 0 37.46 35.56
  Q 35.42 35.16 32.48 35.28
  A 0.63 0.63 0.0 0 0 31.88 35.91
  L 31.88 43.72
  A 0.78 0.77 0.0 0 0 32.66 44.49
  L 33.61 44.49
  A 0.68 0.67 -0.0 0 0 34.29 43.82
  L 34.29 42.01
  A 0.78 0.78 0.0 0 1 35.13 41.23
  Z
  M 43.55 35.70
  A 0.40 0.40 0.0 0 0 43.15 35.30
  L 41.55 35.30
  A 0.40 0.40 0.0 0 0 41.15 35.70
  L 41.15 44.06
  A 0.40 0.40 0.0 0 0 41.55 44.46
  L 43.15 44.46
  A 0.40 0.40 0.0 0 0 43.55 44.06
  L 43.55 35.70
  Z
  M 56.06 43.55
  A 0.32 0.32 0.0 0 1 55.75 43.32
  L 55.08 41.08
  A 0.32 0.32 0.0 0 0 54.46 41.08
  L 53.79 43.32
  A 0.32 0.32 0.0 0 1 53.48 43.55
  L 51.14 43.50
  A 0.32 0.32 0.0 0 0 50.95 44.08
  L 52.87 45.41
  A 0.32 0.32 0.0 0 1 52.99 45.78
  L 52.22 47.99
  A 0.32 0.32 0.0 0 0 52.72 48.35
  L 54.58 46.94
  A 0.32 0.32 0.0 0 1 54.96 46.94
  L 56.82 48.35
  A 0.32 0.32 0.0 0 0 57.32 47.99
  L 56.55 45.78
  A 0.32 0.32 0.0 0 1 56.67 45.41
  L 58.59 44.08
  A 0.32 0.32 0.0 0 0 58.40 43.50
  L 56.06 43.55
  Z
  M 11.09 43.68
  A 0.32 0.32 0.0 0 1 10.78 43.45
  L 10.11 41.24
  A 0.32 0.32 0.0 0 0 9.50 41.24
  L 8.80 43.44
  A 0.32 0.32 0.0 0 1 8.49 43.66
  L 6.18 43.61
  A 0.32 0.32 0.0 0 0 5.99 44.19
  L 7.87 45.53
  A 0.32 0.32 0.0 0 1 7.99 45.90
  L 7.23 48.08
  A 0.32 0.32 0.0 0 0 7.72 48.44
  L 9.57 47.07
  A 0.32 0.32 0.0 0 1 9.96 47.07
  L 11.80 48.47
  A 0.32 0.32 0.0 0 0 12.29 48.12
  L 11.56 45.93
  A 0.32 0.32 0.0 0 1 11.68 45.56
  L 13.58 44.25
  A 0.32 0.32 0.0 0 0 13.40 43.66
  L 11.09 43.68
  Z
  M 46.85 52.46
  A 0.32 0.32 0.0 0 1 46.54 52.24
  L 45.86 50.08
  A 0.32 0.32 0.0 0 0 45.25 50.08
  L 44.57 52.24
  A 0.32 0.32 0.0 0 1 44.26 52.46
  L 41.99 52.44
  A 0.32 0.32 0.0 0 0 41.80 53.02
  L 43.64 54.34
  A 0.32 0.32 0.0 0 1 43.76 54.70
  L 43.04 56.85
  A 0.32 0.32 0.0 0 0 43.53 57.20
  L 45.36 55.86
  A 0.32 0.32 0.0 0 1 45.74 55.86
  L 47.56 57.21
  A 0.32 0.32 0.0 0 0 48.05 56.85
  L 47.34 54.70
  A 0.32 0.32 0.0 0 1 47.45 54.34
  L 49.30 53.03
  A 0.32 0.32 0.0 0 0 49.11 52.45
  L 46.85 52.46
  Z
  M 20.86 52.88
  A 0.32 0.32 0.0 0 1 20.54 52.65
  L 19.91 50.41
  A 0.32 0.32 0.0 0 0 19.29 50.41
  L 18.64 52.64
  A 0.32 0.32 0.0 0 1 18.32 52.87
  L 15.99 52.78
  A 0.32 0.32 0.0 0 0 15.80 53.36
  L 17.72 54.68
  A 0.32 0.32 0.0 0 1 17.84 55.05
  L 17.04 57.23
  A 0.32 0.32 0.0 0 0 17.53 57.60
  L 19.37 56.18
  A 0.32 0.32 0.0 0 1 19.77 56.18
  L 21.59 57.62
  A 0.32 0.32 0.0 0 0 22.09 57.26
  L 21.32 55.07
  A 0.32 0.32 0.0 0 1 21.44 54.70
  L 23.37 53.40
  A 0.32 0.32 0.0 0 0 23.18 52.82
  L 20.86 52.88
  Z
  M 33.39 56.89
  A 0.32 0.32 0.0 0 1 33.08 56.66
  L 32.41 54.49
  A 0.32 0.32 0.0 0 0 31.80 54.48
  L 31.10 56.65
  A 0.32 0.32 0.0 0 1 30.79 56.87
  L 28.52 56.83
  A 0.32 0.32 0.0 0 0 28.32 57.41
  L 30.17 58.75
  A 0.32 0.32 0.0 0 1 30.29 59.11
  L 29.55 61.26
  A 0.32 0.32 0.0 0 0 30.04 61.63
  L 31.88 60.28
  A 0.32 0.32 0.0 0 1 32.26 60.28
  L 34.08 61.65
  A 0.32 0.32 0.0 0 0 34.57 61.30
  L 33.86 59.13
  A 0.32 0.32 0.0 0 1 33.98 58.77
  L 35.85 57.47
  A 0.32 0.32 0.0 0 0 35.66 56.88
  L 33.39 56.89
  Z"
/>
<path fill="#fed601" d="
  M 33.26 4.91
  L 35.55 4.89
  A 0.32 0.32 0.0 0 1 35.73 5.48
  L 33.86 6.79
  A 0.32 0.32 0.0 0 0 33.74 7.15
  L 34.46 9.32
  A 0.32 0.32 0.0 0 1 33.97 9.68
  L 32.14 8.30
  A 0.32 0.32 0.0 0 0 31.76 8.30
  L 29.92 9.65
  A 0.32 0.32 0.0 0 1 29.43 9.29
  L 30.17 7.13
  A 0.32 0.32 0.0 0 0 30.05 6.77
  L 28.20 5.44
  A 0.32 0.32 0.0 0 1 28.39 4.86
  L 30.67 4.89
  A 0.32 0.32 0.0 0 0 30.98 4.67
  L 31.67 2.50
  A 0.32 0.32 0.0 0 1 32.29 2.50
  L 32.96 4.68
  A 0.32 0.32 0.0 0 0 33.26 4.91
  Z"
/>
<path fill="#fed601" d="
  M 47.14 8.18
  L 49.48 8.12
  A 0.32 0.32 0.0 0 1 49.68 8.70
  L 47.75 10.04
  A 0.32 0.32 0.0 0 0 47.64 10.41
  L 48.42 12.63
  A 0.32 0.32 0.0 0 1 47.93 12.99
  L 46.05 11.58
  A 0.32 0.32 0.0 0 0 45.67 11.58
  L 43.81 13.01
  A 0.32 0.32 0.0 0 1 43.31 12.65
  L 44.07 10.43
  A 0.32 0.32 0.0 0 0 43.95 10.06
  L 42.01 8.74
  A 0.32 0.32 0.0 0 1 42.20 8.15
  L 44.55 8.19
  A 0.32 0.32 0.0 0 0 44.86 7.96
  L 45.52 5.71
  A 0.32 0.32 0.0 0 1 46.14 5.71
  L 46.82 7.95
  A 0.32 0.32 0.0 0 0 47.14 8.18
  Z"
/>
<path fill="#fed601" d="
  M 19.21 8.39
  L 21.52 8.36
  A 0.32 0.32 0.0 0 1 21.71 8.94
  L 19.82 10.27
  A 0.32 0.32 0.0 0 0 19.70 10.64
  L 20.44 12.83
  A 0.32 0.32 0.0 0 1 19.95 13.19
  L 18.10 11.79
  A 0.32 0.32 0.0 0 0 17.71 11.79
  L 15.86 13.18
  A 0.32 0.32 0.0 0 1 15.37 12.82
  L 16.12 10.63
  A 0.32 0.32 0.0 0 0 16.00 10.26
  L 14.11 8.93
  A 0.32 0.32 0.0 0 1 14.30 8.35
  L 16.61 8.39
  A 0.32 0.32 0.0 0 0 16.93 8.16
  L 17.61 5.95
  A 0.32 0.32 0.0 0 1 18.22 5.95
  L 18.90 8.17
  A 0.32 0.32 0.0 0 0 19.21 8.39
  Z"
/>
<path fill="#fed601" d="
  M 55.91 18.09
  L 58.15 18.09
  A 0.32 0.32 0.0 0 1 58.34 18.67
  L 56.51 19.97
  A 0.32 0.32 0.0 0 0 56.39 20.33
  L 57.10 22.47
  A 0.32 0.32 0.0 0 1 56.60 22.82
  L 54.80 21.49
  A 0.32 0.32 0.0 0 0 54.42 21.49
  L 52.60 22.82
  A 0.32 0.32 0.0 0 1 52.11 22.46
  L 52.82 20.33
  A 0.32 0.32 0.0 0 0 52.71 19.97
  L 50.88 18.65
  A 0.32 0.32 0.0 0 1 51.07 18.07
  L 53.32 18.09
  A 0.32 0.32 0.0 0 0 53.63 17.87
  L 54.31 15.73
  A 0.32 0.32 0.0 0 1 54.92 15.73
  L 55.60 17.87
  A 0.32 0.32 0.0 0 0 55.91 18.09
  Z"
/>
<path fill="#fed601" d="
  M 10.75 18.35
  L 13.06 18.32
  A 0.32 0.32 0.0 0 1 13.25 18.91
  L 11.35 20.22
  A 0.32 0.32 0.0 0 0 11.23 20.58
  L 11.96 22.77
  A 0.32 0.32 0.0 0 1 11.46 23.13
  L 9.63 21.73
  A 0.32 0.32 0.0 0 0 9.24 21.72
  L 7.39 23.10
  A 0.32 0.32 0.0 0 1 6.90 22.74
  L 7.66 20.56
  A 0.32 0.32 0.0 0 0 7.55 20.19
  L 5.66 18.85
  A 0.32 0.32 0.0 0 1 5.86 18.27
  L 8.17 18.33
  A 0.32 0.32 0.0 0 0 8.48 18.10
  L 9.17 15.90
  A 0.32 0.32 0.0 0 1 9.78 15.90
  L 10.44 18.12
  A 0.32 0.32 0.0 0 0 10.75 18.35
  Z"
/>
<path fill="#ffffff" d="
  M 21.36 28.37
  Q 21.53 28.37 21.58 28.22
  Q 22.60 25.32 23.59 22.61
  A 0.89 0.88 -80.1 0 1 24.42 22.02
  L 25.54 22.02
  A 0.43 0.43 0.0 0 1 25.95 22.60
  L 22.99 30.70
  A 0.89 0.89 0.0 0 1 22.22 31.28
  Q 22.17 31.28 21.37 31.29
  Q 20.56 31.29 20.52 31.29
  A 0.89 0.89 0.0 0 1 19.74 30.71
  L 16.72 22.64
  A 0.43 0.43 0.0 0 1 17.12 22.05
  L 18.24 22.04
  A 0.89 0.88 79.6 0 1 19.08 22.63
  Q 20.09 25.33 21.13 28.22
  Q 21.18 28.37 21.36 28.37
  Z"
/>
<rect fill="#ffffff" x="-1.20" y="-4.60" transform="translate(28.59,26.66) rotate(0.1)" width="2.40" height="9.20" rx="0.40"/>
<path fill="#ffffff" d="
  M 35.14 25.54
  L 37.64 25.54
  A 0.63 0.63 0.0 0 1 38.27 26.17
  L 38.27 26.83
  A 0.51 0.51 0.0 0 1 37.76 27.34
  L 34.99 27.34
  A 0.55 0.55 0.0 0 0 34.44 27.89
  L 34.44 28.85
  A 0.60 0.60 0.0 0 0 35.04 29.45
  L 38.11 29.45
  A 0.54 0.54 0.0 0 1 38.65 29.99
  L 38.65 30.73
  A 0.57 0.56 -90.0 0 1 38.09 31.30
  L 32.78 31.30
  A 0.71 0.71 0.0 0 1 32.07 30.59
  L 32.07 23.07
  A 1.05 1.05 0.0 0 1 33.14 22.02
  L 37.85 22.13
  A 0.85 0.84 90.0 0 1 38.68 22.97
  L 38.68 23.02
  A 0.79 0.78 88.2 0 1 37.91 23.85
  L 35.02 23.88
  A 0.61 0.60 89.5 0 0 34.43 24.49
  L 34.43 24.82
  A 0.72 0.71 90.0 0 0 35.14 25.54
  Z"
/>
<path fill="#ffffff" d="
  M 41.13 29.04
  Q 42.85 29.88 44.66 29.61
  A 0.87 0.87 0.0 0 0 44.78 27.91
  Q 42.90 27.37 41.87 26.95
  A 2.51 2.28 -71.4 0 1 40.60 24.04
  C 41.33 21.44 44.55 21.69 46.55 22.24
  A 0.90 0.90 0.0 0 1 47.21 23.11
  L 47.21 23.72
  A 0.42 0.42 0.0 0 1 46.63 24.11
  Q 44.75 23.38 43.25 23.82
  A 0.75 0.75 0.0 0 0 43.26 25.26
  C 45.02 25.75 47.31 26.12 47.64 27.63
  C 48.54 31.74 43.95 31.84 41.34 31.00
  A 1.24 1.23 9.2 0 1 40.49 29.83
  L 40.49 29.43
  A 0.45 0.44 13.1 0 1 41.13 29.04
  Z"
/>
<path fill="#fed601" d="
  M 7.68 30.13
  L 9.99 30.12
  A 0.32 0.32 0.0 0 1 10.17 30.70
  L 8.27 32.01
  A 0.32 0.32 0.0 0 0 8.15 32.38
  L 8.88 34.57
  A 0.32 0.32 0.0 0 1 8.38 34.92
  L 6.54 33.53
  A 0.32 0.32 0.0 0 0 6.16 33.52
  L 4.30 34.89
  A 0.32 0.32 0.0 0 1 3.81 34.53
  L 4.57 32.35
  A 0.32 0.32 0.0 0 0 4.46 31.98
  L 2.58 30.64
  A 0.32 0.32 0.0 0 1 2.78 30.06
  L 5.09 30.11
  A 0.32 0.32 0.0 0 0 5.40 29.89
  L 6.10 27.69
  A 0.32 0.32 0.0 0 1 6.71 27.69
  L 7.37 29.90
  A 0.32 0.32 0.0 0 0 7.68 30.13
  Z"
/>
<path fill="#fed601" d="
  M 59.12 30.10
  L 61.39 30.07
  A 0.32 0.32 0.0 0 1 61.58 30.65
  L 59.74 31.98
  A 0.32 0.32 0.0 0 0 59.62 32.34
  L 60.34 34.49
  A 0.32 0.32 0.0 0 1 59.85 34.85
  L 58.02 33.50
  A 0.32 0.32 0.0 0 0 57.64 33.50
  L 55.82 34.86
  A 0.32 0.32 0.0 0 1 55.33 34.50
  L 56.04 32.34
  A 0.32 0.32 0.0 0 0 55.93 31.98
  L 54.07 30.67
  A 0.32 0.32 0.0 0 1 54.26 30.09
  L 56.53 30.10
  A 0.32 0.32 0.0 0 0 56.84 29.88
  L 57.52 27.71
  A 0.32 0.32 0.0 0 1 58.13 27.71
  L 58.81 29.88
  A 0.32 0.32 0.0 0 0 59.12 30.10
  Z"
/>
<path fill="#ffffff" d="
  M 25.85 35.28
  Q 26.67 35.28 26.79 35.29
  A 0.81 0.81 0.0 0 1 27.49 35.82
  L 30.39 43.76
  A 0.56 0.56 0.0 0 1 29.97 44.50
  Q 28.18 44.87 27.94 43.49
  A 0.90 0.88 -89.3 0 0 27.26 42.78
  Q 27.20 42.77 25.84 42.77
  Q 24.49 42.77 24.42 42.78
  A 0.90 0.88 89.3 0 0 23.74 43.49
  Q 23.50 44.87 21.71 44.50
  A 0.56 0.56 0.0 0 1 21.29 43.76
  L 24.20 35.82
  A 0.81 0.81 0.0 0 1 24.90 35.29
  Q 25.02 35.28 25.85 35.28
  Z
  M 25.82 41.18
  Q 26.34 41.18 26.45 41.14
  A 0.65 0.64 -19.5 0 0 26.84 40.34
  Q 26.09 38.05 25.83 38.05
  Q 25.57 38.05 24.81 40.33
  A 0.65 0.64 19.9 0 0 25.19 41.13
  Q 25.30 41.17 25.82 41.18
  Z"
/>
<path fill="#ffffff" d="
  M 34.29 42.01
  L 34.29 43.82
  A 0.68 0.67 -0.0 0 1 33.61 44.49
  L 32.66 44.49
  A 0.78 0.77 0.0 0 1 31.88 43.72
  L 31.88 35.91
  A 0.63 0.63 0.0 0 1 32.48 35.28
  Q 35.42 35.16 37.46 35.56
  A 2.58 2.41 -84.5 0 1 39.42 38.10
  Q 39.38 41.59 35.13 41.23
  A 0.78 0.78 0.0 0 0 34.29 42.01
  Z
  M 34.23 37.53
  L 34.33 39.19
  A 0.49 0.49 0.0 0 0 34.85 39.65
  L 35.36 39.62
  A 1.72 1.20 -3.4 0 0 37.00 38.32
  L 36.99 38.08
  A 1.72 1.20 -3.4 0 0 35.20 36.98
  L 34.69 37.01
  A 0.49 0.49 0.0 0 0 34.23 37.53
  Z"
/>
<rect fill="#ffffff" x="41.15" y="35.30" width="2.40" height="9.16" rx="0.40"/>
<path fill="#002e93" d="
  M 34.23 37.53
  A 0.49 0.49 0.0 0 1 34.69 37.01
  L 35.20 36.98
  A 1.72 1.20 -3.4 0 1 36.99 38.08
  L 37.00 38.32
  A 1.72 1.20 -3.4 0 1 35.36 39.62
  L 34.85 39.65
  A 0.49 0.49 0.0 0 1 34.33 39.19
  L 34.23 37.53
  Z"
/>
<path fill="#002e93" d="
  M 25.83 38.05
  Q 26.09 38.05 26.84 40.34
  A 0.65 0.64 -19.5 0 1 26.45 41.14
  Q 26.34 41.18 25.82 41.18
  Q 25.30 41.17 25.19 41.13
  A 0.65 0.64 19.9 0 1 24.81 40.33
  Q 25.57 38.05 25.83 38.05
  Z"
/>
<path fill="#fed601" d="
  M 56.06 43.55
  L 58.40 43.50
  A 0.32 0.32 0.0 0 1 58.59 44.08
  L 56.67 45.41
  A 0.32 0.32 0.0 0 0 56.55 45.78
  L 57.32 47.99
  A 0.32 0.32 0.0 0 1 56.82 48.35
  L 54.96 46.94
  A 0.32 0.32 0.0 0 0 54.58 46.94
  L 52.72 48.35
  A 0.32 0.32 0.0 0 1 52.22 47.99
  L 52.99 45.78
  A 0.32 0.32 0.0 0 0 52.87 45.41
  L 50.95 44.08
  A 0.32 0.32 0.0 0 1 51.14 43.50
  L 53.48 43.55
  A 0.32 0.32 0.0 0 0 53.79 43.32
  L 54.46 41.08
  A 0.32 0.32 0.0 0 1 55.08 41.08
  L 55.75 43.32
  A 0.32 0.32 0.0 0 0 56.06 43.55
  Z"
/>
<path fill="#fed601" d="
  M 11.09 43.68
  L 13.40 43.66
  A 0.32 0.32 0.0 0 1 13.58 44.25
  L 11.68 45.56
  A 0.32 0.32 0.0 0 0 11.56 45.93
  L 12.29 48.12
  A 0.32 0.32 0.0 0 1 11.80 48.47
  L 9.96 47.07
  A 0.32 0.32 0.0 0 0 9.57 47.07
  L 7.72 48.44
  A 0.32 0.32 0.0 0 1 7.23 48.08
  L 7.99 45.90
  A 0.32 0.32 0.0 0 0 7.87 45.53
  L 5.99 44.19
  A 0.32 0.32 0.0 0 1 6.18 43.61
  L 8.49 43.66
  A 0.32 0.32 0.0 0 0 8.80 43.44
  L 9.50 41.24
  A 0.32 0.32 0.0 0 1 10.11 41.24
  L 10.78 43.45
  A 0.32 0.32 0.0 0 0 11.09 43.68
  Z"
/>
<path fill="#fed601" d="
  M 46.85 52.46
  L 49.11 52.45
  A 0.32 0.32 0.0 0 1 49.30 53.03
  L 47.45 54.34
  A 0.32 0.32 0.0 0 0 47.34 54.70
  L 48.05 56.85
  A 0.32 0.32 0.0 0 1 47.56 57.21
  L 45.74 55.86
  A 0.32 0.32 0.0 0 0 45.36 55.86
  L 43.53 57.20
  A 0.32 0.32 0.0 0 1 43.04 56.85
  L 43.76 54.70
  A 0.32 0.32 0.0 0 0 43.64 54.34
  L 41.80 53.02
  A 0.32 0.32 0.0 0 1 41.99 52.44
  L 44.26 52.46
  A 0.32 0.32 0.0 0 0 44.57 52.24
  L 45.25 50.08
  A 0.32 0.32 0.0 0 1 45.86 50.08
  L 46.54 52.24
  A 0.32 0.32 0.0 0 0 46.85 52.46
  Z"
/>
<path fill="#fed601" d="
  M 20.86 52.88
  L 23.18 52.82
  A 0.32 0.32 0.0 0 1 23.37 53.40
  L 21.44 54.70
  A 0.32 0.32 0.0 0 0 21.32 55.07
  L 22.09 57.26
  A 0.32 0.32 0.0 0 1 21.59 57.62
  L 19.77 56.18
  A 0.32 0.32 0.0 0 0 19.37 56.18
  L 17.53 57.60
  A 0.32 0.32 0.0 0 1 17.04 57.23
  L 17.84 55.05
  A 0.32 0.32 0.0 0 0 17.72 54.68
  L 15.80 53.36
  A 0.32 0.32 0.0 0 1 15.99 52.78
  L 18.32 52.87
  A 0.32 0.32 0.0 0 0 18.64 52.64
  L 19.29 50.41
  A 0.32 0.32 0.0 0 1 19.91 50.41
  L 20.54 52.65
  A 0.32 0.32 0.0 0 0 20.86 52.88
  Z"
/>
<path fill="#fed601" d="
  M 33.39 56.89
  L 35.66 56.88
  A 0.32 0.32 0.0 0 1 35.85 57.47
  L 33.98 58.77
  A 0.32 0.32 0.0 0 0 33.86 59.13
  L 34.57 61.30
  A 0.32 0.32 0.0 0 1 34.08 61.65
  L 32.26 60.28
  A 0.32 0.32 0.0 0 0 31.88 60.28
  L 30.04 61.63
  A 0.32 0.32 0.0 0 1 29.55 61.26
  L 30.29 59.11
  A 0.32 0.32 0.0 0 0 30.17 58.75
  L 28.32 57.41
  A 0.32 0.32 0.0 0 1 28.52 56.83
  L 30.79 56.87
  A 0.32 0.32 0.0 0 0 31.10 56.65
  L 31.80 54.48
  A 0.32 0.32 0.0 0 1 32.41 54.49
  L 33.08 56.66
  A 0.32 0.32 0.0 0 0 33.39 56.89
  Z"
/>
</svg>
