<svg width="128" height="128" viewBox="0 0 128 128" fill="none" xmlns="http://www.w3.org/2000/svg">
<g clip-path="url(#clip0_240_6710)">
<path d="M107.222 77.754C107.288 77.754 107.288 77.754 107.353 77.754L128 67.169C121.858 63.118 89.5154 47.5672 76.9702 60.7657C76.1208 61.6151 75.2714 62.5299 74.4873 63.4447C87.6859 65.4048 99.251 70.5013 107.222 77.754Z" fill="#F05E4E"/>
<path d="M97.4866 70.8934L115.455 61.0271C99.2508 54.4278 90.1032 56.388 79.7143 62.7913C79.0609 63.1833 78.4728 63.5754 77.8848 64.0327C85.1374 65.4049 91.7367 67.7571 97.4866 70.8934Z" fill="#B23232"/>
<path d="M58.4788 62.726C71.5467 62.0072 83.6998 64.4248 93.6968 68.9985H93.7621C93.7621 68.9985 99.7733 64.2941 108.594 58.1522C117.415 52.0756 123.165 47.6979 123.165 47.6979C118.591 44.5616 107.418 41.6866 100.427 40.7065C79.6488 37.7663 62.6605 47.9592 55.8652 62.922C56.78 62.8566 57.6294 62.7913 58.4788 62.726Z" fill="#6CC294"/>
<path d="M58.4787 62.726C68.4756 62.2032 77.9498 63.4447 86.3133 66.1236L94.4807 40.3145C74.4868 39.6611 57.1719 49.4621 51.2913 63.0527C51.226 63.1833 51.1606 63.314 51.1606 63.4447C53.5129 63.118 55.9958 62.8566 58.4787 62.726Z" fill="#4B9F71"/>
<path d="M58.4787 62.7259C66.3848 62.3339 74.0295 63.1833 81.0208 64.7514L92.5206 22.5421C83.5691 21.8234 73.9642 22.8035 64.5553 25.6131C38.6155 33.3885 23.3261 52.7943 27.6385 70.7627C36.4593 66.2542 47.0443 63.3793 58.4787 62.7259Z" fill="#F3DE3C"/>
<path d="M58.479 62.726C61.942 62.5299 65.3396 62.5953 68.672 62.7913L54.5586 29.4028C34.8261 38.681 23.9144 55.2119 27.6388 70.7627C36.4596 66.2543 47.0446 63.3794 58.479 62.726Z" fill="#CDAF31"/>
<path d="M58.4789 62.7259C59.7857 62.6605 61.1578 62.6605 62.4646 62.5952C61.3538 59.9163 57.9562 51.9449 52.5983 42.6013C45.9337 31.1016 41.752 23.7836 41.752 23.7836C31.8857 27.4426 19.8633 33.7805 12.872 40.7065C-2.48282 55.9959 -3.78961 74.6177 7.3181 88.4696C16.0736 74.3563 35.4794 63.9673 58.4789 62.7259Z" fill="#19ABD6"/>
<path d="M75.1406 82.197L62.3341 91.1485L66.9732 77.4926C65.4704 77.1006 63.9676 76.9045 62.3341 76.9045C53.1866 76.9045 45.8032 83.3731 45.8032 91.2792C45.8032 99.2506 53.1866 105.654 62.3341 105.654C71.4816 105.654 78.865 99.1853 78.865 91.2792C78.865 87.8816 77.4275 84.6799 75.1406 82.197Z" fill="black"/>
</g>
<defs>
<clipPath id="clip0_240_6710">
<rect width="128" height="83.3078" fill="white" transform="translate(0 22.3461)"/>
</clipPath>
</defs>
</svg>
