<?xml version="1.0" encoding="UTF-8" standalone="no"?>
<!DOCTYPE svg PUBLIC "-//W3C//DTD SVG 1.1//EN" "http://www.w3.org/Graphics/SVG/1.1/DTD/svg11.dtd">
<svg xmlns="http://www.w3.org/2000/svg" version="1.1" viewBox="0.00 0.00 57.00 57.00">
<g stroke-width="2.00" fill="none" stroke-linecap="butt">
<path stroke="#80aed4" vector-effect="non-scaling-stroke" d="
  M 23.6116 28.3764
  A 0.98 0.98 0.0 0 0 22.6282 27.3999
  L 22.5282 27.4002
  A 0.98 0.98 0.0 0 0 21.5516 28.3836
  L 21.5884 38.9236
  A 0.98 0.98 0.0 0 0 22.5718 39.9001
  L 22.6718 39.8998
  A 0.98 0.98 0.0 0 0 23.6484 38.9164
  L 23.6116 28.3764"
/>
<path stroke="#80aed4" vector-effect="non-scaling-stroke" d="
  M 14.42 32.90
  Q 15.09 32.91 15.65 32.45
  A 0.62 0.62 0.0 0 0 15.26 31.34
  L 14.05 31.34
  A 0.62 0.61 -85.5 0 1 13.45 30.63
  Q 13.67 29.25 15.18 29.04
  A 0.73 0.73 0.0 0 0 15.15 27.59
  C 11.75 27.25 12.26 29.77 10.79 31.50
  A 0.74 0.73 -41.3 0 0 10.73 32.38
  C 11.81 34.05 11.57 36.40 11.58 38.83
  A 1.10 1.09 -87.4 0 0 12.57 39.92
  L 12.61 39.92
  A 0.89 0.88 1.6 0 0 13.54 39.05
  L 13.59 33.70
  A 0.81 0.81 0.0 0 1 14.42 32.90"
/>
<path stroke="#80aed4" vector-effect="non-scaling-stroke" d="
  M 19.42 28.77
  A 1.22 1.22 0.0 0 0 18.20 27.55
  A 1.22 1.22 0.0 0 0 16.98 28.77
  A 1.22 1.22 0.0 0 0 18.20 29.99
  A 1.22 1.22 0.0 0 0 19.42 28.77"
/>
<path stroke="#80aed4" vector-effect="non-scaling-stroke" d="
  M 19.1917 32.1426
  A 0.93 0.93 0.0 0 0 18.2731 31.2013
  L 18.1131 31.1993
  A 0.93 0.93 0.0 0 0 17.1719 32.1179
  L 17.0883 38.9574
  A 0.93 0.93 0.0 0 0 18.0069 39.8987
  L 18.1669 39.9007
  A 0.93 0.93 0.0 0 0 19.1081 38.9821
  L 19.1917 32.1426"
/>
<path stroke="#80aed4" vector-effect="non-scaling-stroke" d="
  M 32.19 37.83
  Q 30.60 38.25 29.54 38.22
  A 1.90 1.90 0.0 0 1 27.95 37.27
  L 27.62 36.70
  A 0.60 0.60 0.0 0 1 28.14 35.80
  L 32.41 35.80
  A 0.83 0.83 0.0 0 0 33.23 34.86
  C 32.38 28.78 24.50 30.48 25.57 36.70
  C 26.15 40.10 30.27 40.62 32.68 38.88
  A 0.59 0.59 0.0 0 0 32.19 37.83"
/>
<path stroke="#80aed4" vector-effect="non-scaling-stroke" d="
  M 28.15 34.65
  L 30.77 34.59
  A 0.40 0.40 0.0 0 0 31.16 34.18
  L 31.16 34.06
  A 1.55 1.48 -1.2 0 0 29.58 32.62
  L 29.26 32.62
  A 1.55 1.48 -1.2 0 0 27.74 34.14
  L 27.74 34.26
  A 0.40 0.40 0.0 0 0 28.15 34.65"
/>
</g>
<path fill="#f2871b" fill-opacity="0.996" d="
  M 12.46 14.56
  Q 13.49 14.56 14.07 18.30
  A 0.79 0.78 -30.9 0 0 15.47 18.65
  C 16.14 17.76 16.01 15.73 16.83 14.62
  A 0.84 0.84 0.0 0 1 18.28 15.43
  L 15.64 22.01
  A 0.83 0.82 50.6 0 1 14.06 21.85
  Q 13.36 18.14 12.46 18.14
  Q 11.56 18.14 10.84 21.85
  A 0.83 0.82 -50.5 0 1 9.26 22.00
  L 6.64 15.41
  A 0.84 0.84 0.0 0 1 8.10 14.61
  C 8.91 15.72 8.78 17.75 9.44 18.64
  A 0.79 0.78 31.1 0 0 10.85 18.30
  Q 11.44 14.56 12.46 14.56
  Z"
/>
<path fill="#f2871b" fill-opacity="0.996" d="
  M 21.59 14.48
  Q 22.21 14.48 22.57 14.93
  A 0.49 0.41 21.8 0 1 22.62 15.03
  L 25.40 22.10
  A 0.27 0.26 49.5 0 1 25.39 22.31
  Q 25.17 22.80 24.43 22.58
  Q 24.24 22.53 24.01 22.13
  Q 22.96 20.29 21.60 20.29
  Q 20.25 20.30 19.21 22.14
  Q 18.98 22.55 18.79 22.60
  Q 18.05 22.82 17.83 22.33
  A 0.27 0.26 -49.9 0 1 17.82 22.12
  L 20.56 15.04
  A 0.49 0.41 -22.1 0 1 20.61 14.94
  Q 20.96 14.48 21.59 14.48
  Z
  M 21.74 19.82
  Q 22.74 19.77 22.62 18.96
  Q 22.25 16.60 21.57 16.64
  Q 20.89 16.67 20.77 19.06
  Q 20.73 19.88 21.74 19.82
  Z"
/>
<rect fill="#f2871b" fill-opacity="0.996" x="-0.78" y="-4.01" transform="translate(27.40,18.57) rotate(-0.6)" width="1.56" height="8.02" rx="0.47"/>
<path fill="#f2871b" fill-opacity="0.996" d="
  M 33.08 20.19
  Q 33.24 20.19 33.28 20.09
  Q 34.41 17.49 35.07 15.25
  A 0.96 0.95 8.1 0 1 35.99 14.57
  L 36.47 14.57
  A 0.38 0.38 0.0 0 1 36.83 15.09
  L 34.03 22.09
  A 0.79 0.76 -88.5 0 1 33.59 22.52
  Q 33.44 22.58 33.08 22.58
  Q 32.71 22.58 32.56 22.52
  A 0.79 0.76 88.6 0 1 32.13 22.09
  L 29.34 15.08
  A 0.38 0.38 0.0 0 1 29.70 14.56
  L 30.18 14.56
  A 0.96 0.95 -7.9 0 1 31.10 15.25
  Q 31.76 17.49 32.88 20.09
  Q 32.92 20.19 33.08 20.19
  Z"
/>
<path fill="#f2871b" fill-opacity="0.996" d="
  M 42.19 18.54
  Q 42.35 19.41 40.27 19.15
  A 0.85 0.84 3.7 0 0 39.32 19.99
  L 39.32 20.54
  A 0.88 0.87 -1.3 0 0 40.24 21.41
  Q 41.86 21.32 42.70 21.48
  A 0.56 0.56 0.0 0 1 42.60 22.60
  L 38.57 22.60
  A 0.69 0.68 89.4 0 1 37.89 21.92
  Q 37.86 20.23 37.85 18.55
  Q 37.85 16.86 37.88 15.17
  A 0.69 0.68 -89.5 0 1 38.56 14.49
  L 42.59 14.48
  A 0.56 0.56 0.0 0 1 42.69 15.60
  Q 41.85 15.76 40.23 15.68
  A 0.88 0.87 1.1 0 0 39.31 16.55
  L 39.32 17.10
  A 0.85 0.84 -3.8 0 0 40.27 17.94
  Q 42.35 17.67 42.19 18.54
  Z"
/>
<path fill="#f2871b" fill-opacity="0.996" d="
  M 44.35 21.99
  L 44.35 15.16
  A 0.62 0.61 -90.0 0 1 44.96 14.54
  L 48.23 14.54
  A 1.14 1.14 0.0 0 1 49.08 14.92
  Q 51.02 17.13 48.93 18.74
  A 0.59 0.59 0.0 0 0 48.78 19.51
  L 50.25 22.07
  A 0.36 0.35 -15.0 0 1 49.94 22.60
  L 49.42 22.60
  A 1.16 1.14 -14.8 0 1 48.42 22.03
  L 47.03 19.63
  A 0.56 0.56 0.0 0 0 45.98 19.91
  L 45.98 21.97
  A 0.62 0.62 0.0 0 1 45.36 22.59
  L 44.95 22.59
  A 0.60 0.60 0.0 0 1 44.35 21.99
  Z
  M 48.39 17.02
  A 1.35 1.35 0.0 0 0 47.04 15.67
  A 1.35 1.35 0.0 0 0 45.69 17.02
  A 1.35 1.35 0.0 0 0 47.04 18.37
  A 1.35 1.35 0.0 0 0 48.39 17.02
  Z"
/>
<path fill="#005eaa" d="
  M 46.03 29.31
  L 42.64 29.27
  A 1.02 1.01 -89.4 0 0 41.61 30.29
  L 41.61 32.63
  A 1.09 1.09 0.0 0 0 42.80 33.72
  Q 46.37 33.41 46.12 34.97
  Q 45.87 36.56 46.07 37.49
  A 0.94 0.94 0.0 0 0 46.99 38.23
  L 49.49 38.23
  A 0.78 0.78 0.0 0 1 50.27 39.01
  L 50.27 41.62
  A 0.70 0.69 90.0 0 1 49.58 42.32
  L 46.69 42.32
  A 0.52 0.52 0.0 0 1 46.17 41.80
  L 46.17 38.85
  A 0.85 0.84 0.0 0 0 45.32 38.01
  L 42.56 38.01
  A 0.92 0.91 0.0 0 0 41.64 38.92
  L 41.64 41.62
  A 0.78 0.78 0.0 0 1 40.88 42.40
  Q 31.79 42.63 9.77 42.48
  Q 6.54 42.46 6.42 39.57
  Q 6.26 35.58 6.27 28.75
  Q 6.28 24.88 10.26 24.88
  Q 35.69 24.93 36.55 24.86
  A 0.59 0.59 0.0 0 1 37.25 25.44
  L 37.24 28.31
  A 1.00 1.00 0.0 0 0 38.24 29.31
  L 40.61 29.31
  A 1.08 1.08 0.0 0 0 41.69 28.23
  L 41.69 25.55
  A 0.66 0.66 0.0 0 1 42.35 24.89
  L 45.40 24.89
  A 0.71 0.71 0.0 0 1 46.11 25.61
  L 46.03 29.31
  Z
  M 23.6116 28.3764
  A 0.98 0.98 0.0 0 0 22.6282 27.3999
  L 22.5282 27.4002
  A 0.98 0.98 0.0 0 0 21.5516 28.3836
  L 21.5884 38.9236
  A 0.98 0.98 0.0 0 0 22.5718 39.9001
  L 22.6718 39.8998
  A 0.98 0.98 0.0 0 0 23.6484 38.9164
  L 23.6116 28.3764
  Z
  M 14.42 32.90
  Q 15.09 32.91 15.65 32.45
  A 0.62 0.62 0.0 0 0 15.26 31.34
  L 14.05 31.34
  A 0.62 0.61 -85.5 0 1 13.45 30.63
  Q 13.67 29.25 15.18 29.04
  A 0.73 0.73 0.0 0 0 15.15 27.59
  C 11.75 27.25 12.26 29.77 10.79 31.50
  A 0.74 0.73 -41.3 0 0 10.73 32.38
  C 11.81 34.05 11.57 36.40 11.58 38.83
  A 1.10 1.09 -87.4 0 0 12.57 39.92
  L 12.61 39.92
  A 0.89 0.88 1.6 0 0 13.54 39.05
  L 13.59 33.70
  A 0.81 0.81 0.0 0 1 14.42 32.90
  Z
  M 19.42 28.77
  A 1.22 1.22 0.0 0 0 18.20 27.55
  A 1.22 1.22 0.0 0 0 16.98 28.77
  A 1.22 1.22 0.0 0 0 18.20 29.99
  A 1.22 1.22 0.0 0 0 19.42 28.77
  Z
  M 19.1917 32.1426
  A 0.93 0.93 0.0 0 0 18.2731 31.2013
  L 18.1131 31.1993
  A 0.93 0.93 0.0 0 0 17.1719 32.1179
  L 17.0883 38.9574
  A 0.93 0.93 0.0 0 0 18.0069 39.8987
  L 18.1669 39.9007
  A 0.93 0.93 0.0 0 0 19.1081 38.9821
  L 19.1917 32.1426
  Z
  M 32.19 37.83
  Q 30.60 38.25 29.54 38.22
  A 1.90 1.90 0.0 0 1 27.95 37.27
  L 27.62 36.70
  A 0.60 0.60 0.0 0 1 28.14 35.80
  L 32.41 35.80
  A 0.83 0.83 0.0 0 0 33.23 34.86
  C 32.38 28.78 24.50 30.48 25.57 36.70
  C 26.15 40.10 30.27 40.62 32.68 38.88
  A 0.59 0.59 0.0 0 0 32.19 37.83
  Z
  M 41.7037 34.7083
  A 1.04 1.04 0.0 0 0 40.6583 33.6737
  L 38.2583 33.6863
  A 1.04 1.04 0.0 0 0 37.2237 34.7317
  L 37.2363 37.1317
  A 1.04 1.04 0.0 0 0 38.2817 38.1663
  L 40.6817 38.1537
  A 1.04 1.04 0.0 0 0 41.7163 37.1083
  L 41.7037 34.7083
  Z"
/>
<rect fill="#fffefe" x="-1.03" y="-6.25" transform="translate(22.60,33.65) rotate(-0.2)" width="2.06" height="12.50" rx="0.98"/>
<path fill="#fffefe" d="
  M 13.59 33.70
  L 13.54 39.05
  A 0.89 0.88 1.6 0 1 12.61 39.92
  L 12.57 39.92
  A 1.10 1.09 -87.4 0 1 11.58 38.83
  C 11.57 36.40 11.81 34.05 10.73 32.38
  A 0.74 0.73 -41.3 0 1 10.79 31.50
  C 12.26 29.77 11.75 27.25 15.15 27.59
  A 0.73 0.73 0.0 0 1 15.18 29.04
  Q 13.67 29.25 13.45 30.63
  A 0.62 0.61 -85.5 0 0 14.05 31.34
  L 15.26 31.34
  A 0.62 0.62 0.0 0 1 15.65 32.45
  Q 15.09 32.91 14.42 32.90
  A 0.81 0.81 0.0 0 0 13.59 33.70
  Z"
/>
<circle fill="#fffefe" cx="18.20" cy="28.77" r="1.22"/>
<path fill="#005eaa" d="
  M 46.03 29.31
  L 49.56 29.18
  A 0.74 0.74 0.0 0 1 50.33 29.92
  L 50.33 32.84
  A 0.80 0.79 -90.0 0 1 49.54 33.64
  L 47.02 33.64
  A 0.71 0.71 0.0 0 1 46.31 32.98
  L 46.03 29.31
  Z"
/>
<rect fill="#fffefe" x="-1.01" y="-4.35" transform="translate(18.14,35.55) rotate(0.7)" width="2.02" height="8.70" rx="0.93"/>
<path fill="#fffefe" d="
  M 32.19 37.83
  A 0.59 0.59 0.0 0 1 32.68 38.88
  C 30.27 40.62 26.15 40.10 25.57 36.70
  C 24.50 30.48 32.38 28.78 33.23 34.86
  A 0.83 0.83 0.0 0 1 32.41 35.80
  L 28.14 35.80
  A 0.60 0.60 0.0 0 0 27.62 36.70
  L 27.95 37.27
  A 1.90 1.90 0.0 0 0 29.54 38.22
  Q 30.60 38.25 32.19 37.83
  Z
  M 28.15 34.65
  L 30.77 34.59
  A 0.40 0.40 0.0 0 0 31.16 34.18
  L 31.16 34.06
  A 1.55 1.48 -1.2 0 0 29.58 32.62
  L 29.26 32.62
  A 1.55 1.48 -1.2 0 0 27.74 34.14
  L 27.74 34.26
  A 0.40 0.40 0.0 0 0 28.15 34.65
  Z"
/>
<path fill="#005eaa" d="
  M 28.15 34.65
  A 0.40 0.40 0.0 0 1 27.74 34.26
  L 27.74 34.14
  A 1.55 1.48 -1.2 0 1 29.26 32.62
  L 29.58 32.62
  A 1.55 1.48 -1.2 0 1 31.16 34.06
  L 31.16 34.18
  A 0.40 0.40 0.0 0 1 30.77 34.59
  L 28.15 34.65
  Z"
/>
</svg>
