<svg width="128" height="128" viewBox="0 0 128 128" fill="none" xmlns="http://www.w3.org/2000/svg">
<g clip-path="url(#clip0_240_7037)">
<path fill-rule="evenodd" clip-rule="evenodd" d="M10.6011 96.3928C18.0613 98.7487 26.1103 95.0186 28.2698 87.9511L36.7116 60.6628C39.0674 53.5953 34.7484 45.9389 27.2882 43.583L26.6993 43.3867C19.2392 41.0309 11.1901 44.7609 9.03058 51.8284L0.588861 79.1168C-1.76697 86.1843 2.55205 93.8407 10.0122 96.1965L10.6011 96.3928Z" fill="#084F99"/>
<path fill-rule="evenodd" clip-rule="evenodd" d="M99.9264 18.6504C101.497 14.724 104.442 11.7792 107.975 10.2087C108.172 10.2087 108.368 10.0124 108.564 10.0124C108.761 10.0124 108.761 10.0124 108.957 9.81605C111.902 8.63814 115.043 8.44182 117.988 9.42342L118.577 9.61973C126.037 11.9756 129.963 20.4173 127.411 28.4664L106.994 97.5707C101.301 113.865 84.4171 122.111 69.6932 117.988C69.6932 117.988 65.7668 116.81 64.1963 115.632C78.7239 112.491 96.9816 25.7179 99.9264 18.6504Z" fill="#5EB7FF"/>
<path fill-rule="evenodd" clip-rule="evenodd" d="M12.9569 105.62C16.098 106.601 19.4354 106.601 22.3802 106.012C22.7729 105.816 23.3618 105.816 23.7544 105.62C29.8403 103.657 34.9446 98.7486 37.1041 92.0738L53.006 39.4603C55.5581 31.4112 63.8035 26.8958 71.2637 29.2517L71.8526 29.448C79.3127 31.8038 83.2391 40.2455 80.687 48.2946C80.687 48.2946 65.5704 98.1597 63.4109 102.282C47.9017 130.356 18.8465 116.614 10.6011 104.834C10.9937 105.031 11.5827 105.227 11.9753 105.423L12.9569 105.62Z" fill="#1479FB"/>
</g>
<defs>
<clipPath id="clip0_240_7037">
<rect width="128" height="109.939" fill="white" transform="translate(0 9.03076)"/>
</clipPath>
</defs>
</svg>
