<?xml version="1.0" encoding="UTF-8" standalone="no"?>
<!DOCTYPE svg PUBLIC "-//W3C//DTD SVG 1.1//EN" "http://www.w3.org/Graphics/SVG/1.1/DTD/svg11.dtd">
<svg xmlns="http://www.w3.org/2000/svg" version="1.1" viewBox="0.00 0.00 400.00 400.00">
<g stroke-width="2.00" fill="none" stroke-linecap="butt">
<path stroke="#985b4a" vector-effect="non-scaling-stroke" d="
  M 53.08 161.07
  C 46.25 160.03 45.74 169.01 52.29 168.92
  Q 59.49 168.82 66.24 168.99
  A 1.88 1.85 62.1 0 1 67.25 169.31
  Q 70.11 171.21 68.54 174.62
  A 1.90 1.89 -82.9 0 1 67.17 175.69
  L 63.28 176.42
  A 2.78 2.76 2.9 0 0 61.12 178.36
  C 59.95 182.36 62.27 184.12 65.75 184.06
  Q 77.88 183.88 88.12 184.09
  A 3.37 3.37 0.0 0 1 91.42 187.46
  L 91.42 188.06
  A 3.16 3.16 0.0 0 1 88.26 191.22
  L 72.20 191.22
  A 3.78 3.78 0.0 0 0 68.42 195.00
  L 68.42 195.61
  A 3.48 3.48 0.0 0 0 71.90 199.09
  L 138.45 199.09
  A 3.39 3.39 0.0 0 0 141.84 195.70
  L 141.84 195.13
  A 3.88 3.88 0.0 0 0 137.96 191.25
  L 112.98 191.25
  A 3.27 3.26 -1.0 0 1 109.71 188.10
  L 109.70 187.71
  A 3.47 3.46 85.0 0 1 112.71 184.12
  C 114.58 183.87 120.59 184.77 121.14 181.78
  C 121.98 177.19 120.40 176.42 115.86 176.00
  A 3.43 3.43 0.0 0 1 112.75 172.29
  L 112.76 172.20
  A 3.71 3.70 -87.4 0 1 116.46 168.82
  L 154.53 168.90
  A 3.67 3.67 0.0 0 0 158.21 165.31
  L 158.23 164.98
  A 3.69 3.68 1.8 0 0 154.55 161.07
  L 144.40 161.07
  A 0.58 0.57 -87.3 0 1 143.83 160.44
  Q 146.05 140.55 134.59 125.82
  C 115.84 101.75 78.30 103.21 61.38 128.42
  Q 51.85 142.61 53.98 160.19
  A 0.79 0.79 0.0 0 1 53.08 161.07"
/>
<path stroke="#985b4a" vector-effect="non-scaling-stroke" d="
  M 142.2377 179.6299
  A 3.51 3.51 0.0 0 0 138.7094 176.1383
  L 130.4095 176.1818
  A 3.51 3.51 0.0 0 0 126.9179 179.7101
  L 126.9223 180.5501
  A 3.51 3.51 0.0 0 0 130.4506 184.0417
  L 138.7505 183.9982
  A 3.51 3.51 0.0 0 0 142.2421 180.4699
  L 142.2377 179.6299"
/>
<path stroke="#985b4a" vector-effect="non-scaling-stroke" d="
  M 163.9612 179.9205
  A 3.67 3.67 0.0 0 0 160.3104 176.2313
  L 152.1905 176.1888
  A 3.67 3.67 0.0 0 0 148.5014 179.8395
  L 148.4988 180.3195
  A 3.67 3.67 0.0 0 0 152.1496 184.0087
  L 160.2695 184.0512
  A 3.67 3.67 0.0 0 0 163.9586 180.4005
  L 163.9612 179.9205"
/>
<path stroke="#9c9d9e" vector-effect="non-scaling-stroke" d="
  M 58.78 220.21
  A 14.70 14.70 0.0 0 0 44.08 205.51
  L 41.30 205.51
  A 14.70 14.70 0.0 0 0 26.60 220.21
  L 26.60 231.57
  A 14.70 14.70 0.0 0 0 41.30 246.27
  L 44.08 246.27
  A 14.70 14.70 0.0 0 0 58.78 231.57
  L 58.78 220.21"
/>
<path stroke="#9c9d9e" vector-effect="non-scaling-stroke" d="
  M 182.37 213.64
  Q 182.65 213.64 182.78 214.33
  Q 186.59 234.88 188.49 244.94
  A 0.60 0.59 84.7 0 0 189.07 245.43
  L 200.16 245.43
  A 0.71 0.70 4.2 0 0 200.86 244.83
  L 206.87 206.55
  A 0.17 0.17 0.0 0 0 206.70 206.35
  L 199.68 206.35
  A 0.20 0.20 0.0 0 0 199.48 206.53
  L 194.57 237.77
  A 0.24 0.24 0.0 0 1 194.09 237.78
  L 188.32 206.81
  A 0.52 0.51 84.9 0 0 187.83 206.39
  Q 185.73 206.38 182.36 206.38
  Q 179.00 206.38 176.90 206.40
  A 0.52 0.51 -85.0 0 0 176.41 206.82
  L 170.68 237.79
  A 0.24 0.24 0.0 0 1 170.20 237.78
  L 165.25 206.55
  A 0.20 0.20 0.0 0 0 165.05 206.37
  L 158.03 206.38
  A 0.17 0.17 0.0 0 0 157.86 206.58
  L 163.91 244.85
  A 0.71 0.70 -4.3 0 0 164.61 245.45
  L 175.70 245.44
  A 0.60 0.59 -84.8 0 0 176.28 244.95
  Q 178.17 234.88 181.96 214.33
  Q 182.09 213.64 182.37 213.64"
/>
<path stroke="#9c9d9e" vector-effect="non-scaling-stroke" d="
  M 301.15 221.69
  A 0.21 0.21 0.0 0 1 300.77 221.56
  L 300.77 206.66
  A 0.31 0.30 90.0 0 0 300.47 206.35
  L 293.80 206.35
  A 0.38 0.38 0.0 0 0 293.42 206.73
  L 293.42 244.91
  A 0.50 0.50 0.0 0 0 293.92 245.41
  L 300.29 245.41
  A 0.53 0.53 0.0 0 0 300.82 244.87
  C 300.73 240.47 300.79 235.66 300.78 230.63
  C 300.77 225.44 304.38 222.73 309.31 223.68
  Q 313.47 224.48 313.66 229.99
  Q 313.67 230.16 313.59 244.91
  A 0.52 0.52 0.0 0 0 314.11 245.44
  L 320.34 245.44
  A 0.53 0.52 -90.0 0 0 320.86 244.91
  Q 320.87 235.71 320.85 228.54
  C 320.82 217.52 307.80 212.83 301.15 221.69"
/>
<path stroke="#9c9d9e" vector-effect="non-scaling-stroke" d="
  M 273.74 217.63
  L 267.59 217.63
  A 0.46 0.46 0.0 0 0 267.13 218.09
  L 267.13 223.16
  A 0.47 0.46 -90.0 0 0 267.59 223.63
  L 273.42 223.63
  A 0.79 0.79 0.0 0 1 274.21 224.42
  Q 274.16 233.15 274.23 239.75
  C 274.27 244.32 276.84 245.48 281.06 245.43
  Q 286.17 245.38 286.44 245.46
  A 0.66 0.66 0.0 0 0 287.28 244.82
  L 287.25 240.01
  A 0.79 0.79 0.0 0 0 286.46 239.22
  L 282.39 239.22
  A 1.14 1.14 0.0 0 1 281.25 238.08
  L 281.25 224.40
  A 0.76 0.76 0.0 0 1 282.01 223.64
  L 288.39 223.64
  A 0.63 0.63 0.0 0 0 289.02 223.01
  L 289.02 218.22
  A 0.59 0.59 0.0 0 0 288.43 217.63
  L 281.85 217.63
  A 0.61 0.61 0.0 0 1 281.24 217.02
  L 281.24 209.37
  A 0.35 0.35 0.0 0 0 280.89 209.02
  L 274.58 209.02
  A 0.36 0.36 0.0 0 0 274.22 209.38
  L 274.22 217.15
  A 0.48 0.48 0.0 0 1 273.74 217.63"
/>
<path stroke="#9c9d9e" vector-effect="non-scaling-stroke" d="
  M 71.40 242.15
  Q 75.25 246.79 80.89 246.24
  C 90.93 245.26 94.97 234.12 91.84 225.73
  C 88.50 216.79 77.91 213.36 71.38 221.06
  A 0.44 0.44 0.0 0 1 70.61 220.78
  L 70.61 218.20
  A 0.60 0.59 0.0 0 0 70.01 217.61
  L 64.24 217.61
  A 0.80 0.80 0.0 0 0 63.44 218.41
  L 63.44 256.22
  A 0.53 0.53 0.0 0 0 63.97 256.75
  L 70.21 256.75
  A 0.55 0.54 -0.0 0 0 70.76 256.21
  L 70.76 242.38
  A 0.36 0.36 0.0 0 1 71.40 242.15"
/>
<path stroke="#9c9d9e" vector-effect="non-scaling-stroke" d="
  M 117.48 236.36
  A 0.99 0.98 -58.7 0 0 116.15 236.69
  Q 113.62 240.73 107.96 239.85
  A 3.12 3.06 -17.4 0 1 106.24 238.97
  L 103.32 236.05
  A 1.42 1.42 0.0 0 1 104.32 233.63
  L 122.32 233.63
  A 0.76 0.75 -87.5 0 0 123.07 232.94
  C 123.74 224.09 118.97 216.91 109.72 216.86
  C 91.35 216.74 90.73 244.51 108.64 246.22
  Q 116.98 247.01 122.15 240.20
  A 0.89 0.88 -56.5 0 0 121.89 238.90
  L 117.48 236.36"
/>
<path stroke="#9c9d9e" vector-effect="non-scaling-stroke" d="
  M 229.76 236.35
  A 0.99 0.98 -58.7 0 0 228.43 236.68
  Q 225.90 240.72 220.25 239.84
  A 3.12 3.06 -17.4 0 1 218.53 238.96
  L 215.61 236.04
  A 1.42 1.42 0.0 0 1 216.61 233.62
  L 234.60 233.62
  A 0.76 0.75 -87.5 0 0 235.35 232.93
  C 236.02 224.08 231.26 216.91 222.01 216.85
  C 203.64 216.73 203.02 244.49 220.92 246.20
  Q 229.26 247.00 234.43 240.19
  A 0.89 0.88 -56.5 0 0 234.17 238.89
  L 229.76 236.35"
/>
<path stroke="#9c9d9e" vector-effect="non-scaling-stroke" d="
  M 257.79 241.83
  L 257.79 244.71
  A 0.74 0.74 0.0 0 0 258.53 245.45
  L 263.91 245.45
  A 0.97 0.96 90.0 0 0 264.87 244.48
  Q 264.83 230.95 264.88 229.74
  C 265.09 224.66 263.22 219.87 258.70 218.17
  Q 247.02 213.78 238.96 223.76
  A 0.89 0.88 34.5 0 0 239.21 225.08
  L 243.69 227.66
  A 0.84 0.84 0.0 0 0 244.89 227.27
  Q 246.75 223.02 252.09 222.71
  A 5.63 5.62 -17.9 0 1 257.13 225.28
  L 257.34 225.60
  A 1.97 1.96 -18.6 0 1 255.84 228.62
  Q 247.81 229.25 246.50 229.47
  C 240.70 230.44 236.28 234.27 238.48 240.64
  Q 239.94 244.88 245.49 246.01
  Q 253.29 247.60 257.42 241.71
  A 0.20 0.20 0.0 0 1 257.79 241.83"
/>
<path stroke="#9c9d9e" vector-effect="non-scaling-stroke" d="
  M 346.83 236.35
  A 0.99 0.98 -58.8 0 0 345.50 236.68
  Q 342.97 240.72 337.31 239.85
  A 3.12 3.06 -17.4 0 1 335.59 238.97
  L 332.66 236.05
  A 1.42 1.42 0.0 0 1 333.66 233.63
  L 351.66 233.61
  A 0.76 0.75 -87.6 0 0 352.41 232.92
  C 353.07 224.07 348.29 216.89 339.04 216.85
  C 320.67 216.76 320.08 244.53 338.00 246.22
  Q 346.34 247.00 351.50 240.18
  A 0.89 0.88 -56.5 0 0 351.24 238.88
  L 346.83 236.35"
/>
<path stroke="#9c9d9e" vector-effect="non-scaling-stroke" d="
  M 134.38 221.75
  L 134.38 218.36
  A 0.76 0.76 0.0 0 0 133.62 217.60
  L 128.14 217.60
  A 0.90 0.89 90.0 0 0 127.25 218.50
  L 127.25 244.71
  A 0.73 0.72 -90.0 0 0 127.97 245.44
  L 133.90 245.44
  A 0.71 0.71 0.0 0 0 134.61 244.72
  Q 134.53 234.92 134.63 230.31
  Q 134.75 224.47 139.99 223.65
  C 146.79 222.58 147.52 227.18 147.49 232.88
  Q 147.42 244.73 147.41 244.78
  A 0.54 0.54 0.0 0 0 147.94 245.41
  L 154.06 245.45
  A 0.71 0.70 -0.0 0 0 154.77 244.75
  Q 154.81 232.12 154.70 228.28
  C 154.41 217.23 141.28 212.95 134.80 221.89
  A 0.23 0.23 0.0 0 1 134.38 221.75"
/>
<path stroke="#9c9d9e" vector-effect="non-scaling-stroke" d="
  M 363.74 221.35
  Q 363.41 220.24 363.66 218.70
  A 0.96 0.95 -85.4 0 0 362.72 217.59
  L 357.72 217.59
  A 0.99 0.99 0.0 0 0 356.73 218.58
  L 356.73 244.94
  A 0.48 0.48 0.0 0 0 357.21 245.42
  L 363.36 245.42
  A 0.48 0.47 -90.0 0 0 363.83 244.94
  Q 363.75 232.34 363.85 229.51
  Q 364.03 224.46 368.92 223.93
  Q 372.48 223.55 373.11 223.94
  A 0.54 0.54 0.0 0 0 373.94 223.49
  L 374.05 218.43
  A 1.11 1.10 88.6 0 0 372.87 217.30
  C 369.04 217.57 365.60 217.90 364.48 221.36
  A 0.39 0.39 0.0 0 1 363.74 221.35"
/>
<path stroke="#9c9d9e" vector-effect="non-scaling-stroke" d="
  M 51.26 220.33
  A 7.94 7.94 0.0 0 0 43.32 212.39
  L 42.00 212.39
  A 7.94 7.94 0.0 0 0 34.06 220.33
  L 34.06 231.51
  A 7.94 7.94 0.0 0 0 42.00 239.45
  L 43.32 239.45
  A 7.94 7.94 0.0 0 0 51.26 231.51
  L 51.26 220.33"
/>
<path stroke="#9c9d9e" vector-effect="non-scaling-stroke" d="
  M 78.0476 223.1906
  A 8.38 7.56 -90.7 0 0 70.5906 231.6624
  A 8.38 7.56 -90.7 0 0 78.2524 239.9494
  A 8.38 7.56 -90.7 0 0 85.7094 231.4776
  A 8.38 7.56 -90.7 0 0 78.0476 223.1906"
/>
<path stroke="#9c9d9e" vector-effect="non-scaling-stroke" d="
  M 103.30 228.85
  L 115.48 228.85
  A 0.15 0.15 0.0 0 0 115.63 228.70
  L 115.63 228.62
  A 6.09 5.55 -0.0 0 0 109.54 223.07
  L 109.24 223.07
  A 6.09 5.55 0.0 0 0 103.15 228.62
  L 103.15 228.70
  A 0.15 0.15 0.0 0 0 103.30 228.85"
/>
<path stroke="#9c9d9e" vector-effect="non-scaling-stroke" d="
  M 215.56 228.87
  L 227.76 228.89
  A 0.13 0.13 0.0 0 0 227.90 228.76
  L 227.90 228.67
  A 6.12 5.62 0.1 0 0 221.79 223.04
  L 221.57 223.04
  A 6.12 5.62 0.1 0 0 215.44 228.65
  L 215.44 228.74
  A 0.13 0.13 0.0 0 0 215.56 228.87"
/>
<path stroke="#9c9d9e" vector-effect="non-scaling-stroke" d="
  M 256.81 233.21
  Q 250.31 233.76 247.42 234.68
  Q 244.91 235.47 245.63 238.13
  A 1.64 1.63 -78.5 0 0 246.18 238.97
  C 250.20 242.23 257.78 239.41 257.55 233.87
  A 0.69 0.68 86.4 0 0 256.81 233.21"
/>
<path stroke="#9c9d9e" vector-effect="non-scaling-stroke" d="
  M 332.66 228.84
  L 344.90 228.88
  A 0.14 0.14 0.0 0 0 345.04 228.74
  L 345.04 228.66
  A 6.11 5.56 0.2 0 0 338.95 223.08
  L 338.65 223.08
  A 6.11 5.56 0.2 0 0 332.52 228.62
  L 332.52 228.70
  A 0.14 0.14 0.0 0 0 332.66 228.84"
/>
</g>
<path fill="#48484a" d="
  M 400.00 0.00
  L 400.00 400.00
  L 0.00 400.00
  L 0.00 0.00
  L 400.00 0.00
  Z
  M 53.08 161.07
  C 46.25 160.03 45.74 169.01 52.29 168.92
  Q 59.49 168.82 66.24 168.99
  A 1.88 1.85 62.1 0 1 67.25 169.31
  Q 70.11 171.21 68.54 174.62
  A 1.90 1.89 -82.9 0 1 67.17 175.69
  L 63.28 176.42
  A 2.78 2.76 2.9 0 0 61.12 178.36
  C 59.95 182.36 62.27 184.12 65.75 184.06
  Q 77.88 183.88 88.12 184.09
  A 3.37 3.37 0.0 0 1 91.42 187.46
  L 91.42 188.06
  A 3.16 3.16 0.0 0 1 88.26 191.22
  L 72.20 191.22
  A 3.78 3.78 0.0 0 0 68.42 195.00
  L 68.42 195.61
  A 3.48 3.48 0.0 0 0 71.90 199.09
  L 138.45 199.09
  A 3.39 3.39 0.0 0 0 141.84 195.70
  L 141.84 195.13
  A 3.88 3.88 0.0 0 0 137.96 191.25
  L 112.98 191.25
  A 3.27 3.26 -1.0 0 1 109.71 188.10
  L 109.70 187.71
  A 3.47 3.46 85.0 0 1 112.71 184.12
  C 114.58 183.87 120.59 184.77 121.14 181.78
  C 121.98 177.19 120.40 176.42 115.86 176.00
  A 3.43 3.43 0.0 0 1 112.75 172.29
  L 112.76 172.20
  A 3.71 3.70 -87.4 0 1 116.46 168.82
  L 154.53 168.90
  A 3.67 3.67 0.0 0 0 158.21 165.31
  L 158.23 164.98
  A 3.69 3.68 1.8 0 0 154.55 161.07
  L 144.40 161.07
  A 0.58 0.57 -87.3 0 1 143.83 160.44
  Q 146.05 140.55 134.59 125.82
  C 115.84 101.75 78.30 103.21 61.38 128.42
  Q 51.85 142.61 53.98 160.19
  A 0.79 0.79 0.0 0 1 53.08 161.07
  Z
  M 142.2377 179.6299
  A 3.51 3.51 0.0 0 0 138.7094 176.1383
  L 130.4095 176.1818
  A 3.51 3.51 0.0 0 0 126.9179 179.7101
  L 126.9223 180.5501
  A 3.51 3.51 0.0 0 0 130.4506 184.0417
  L 138.7505 183.9982
  A 3.51 3.51 0.0 0 0 142.2421 180.4699
  L 142.2377 179.6299
  Z
  M 163.9612 179.9205
  A 3.67 3.67 0.0 0 0 160.3104 176.2313
  L 152.1905 176.1888
  A 3.67 3.67 0.0 0 0 148.5014 179.8395
  L 148.4988 180.3195
  A 3.67 3.67 0.0 0 0 152.1496 184.0087
  L 160.2695 184.0512
  A 3.67 3.67 0.0 0 0 163.9586 180.4005
  L 163.9612 179.9205
  Z
  M 58.78 220.21
  A 14.70 14.70 0.0 0 0 44.08 205.51
  L 41.30 205.51
  A 14.70 14.70 0.0 0 0 26.60 220.21
  L 26.60 231.57
  A 14.70 14.70 0.0 0 0 41.30 246.27
  L 44.08 246.27
  A 14.70 14.70 0.0 0 0 58.78 231.57
  L 58.78 220.21
  Z
  M 182.37 213.64
  Q 182.65 213.64 182.78 214.33
  Q 186.59 234.88 188.49 244.94
  A 0.60 0.59 84.7 0 0 189.07 245.43
  L 200.16 245.43
  A 0.71 0.70 4.2 0 0 200.86 244.83
  L 206.87 206.55
  A 0.17 0.17 0.0 0 0 206.70 206.35
  L 199.68 206.35
  A 0.20 0.20 0.0 0 0 199.48 206.53
  L 194.57 237.77
  A 0.24 0.24 0.0 0 1 194.09 237.78
  L 188.32 206.81
  A 0.52 0.51 84.9 0 0 187.83 206.39
  Q 185.73 206.38 182.36 206.38
  Q 179.00 206.38 176.90 206.40
  A 0.52 0.51 -85.0 0 0 176.41 206.82
  L 170.68 237.79
  A 0.24 0.24 0.0 0 1 170.20 237.78
  L 165.25 206.55
  A 0.20 0.20 0.0 0 0 165.05 206.37
  L 158.03 206.38
  A 0.17 0.17 0.0 0 0 157.86 206.58
  L 163.91 244.85
  A 0.71 0.70 -4.3 0 0 164.61 245.45
  L 175.70 245.44
  A 0.60 0.59 -84.8 0 0 176.28 244.95
  Q 178.17 234.88 181.96 214.33
  Q 182.09 213.64 182.37 213.64
  Z
  M 301.15 221.69
  A 0.21 0.21 0.0 0 1 300.77 221.56
  L 300.77 206.66
  A 0.31 0.30 90.0 0 0 300.47 206.35
  L 293.80 206.35
  A 0.38 0.38 0.0 0 0 293.42 206.73
  L 293.42 244.91
  A 0.50 0.50 0.0 0 0 293.92 245.41
  L 300.29 245.41
  A 0.53 0.53 0.0 0 0 300.82 244.87
  C 300.73 240.47 300.79 235.66 300.78 230.63
  C 300.77 225.44 304.38 222.73 309.31 223.68
  Q 313.47 224.48 313.66 229.99
  Q 313.67 230.16 313.59 244.91
  A 0.52 0.52 0.0 0 0 314.11 245.44
  L 320.34 245.44
  A 0.53 0.52 -90.0 0 0 320.86 244.91
  Q 320.87 235.71 320.85 228.54
  C 320.82 217.52 307.80 212.83 301.15 221.69
  Z
  M 273.74 217.63
  L 267.59 217.63
  A 0.46 0.46 0.0 0 0 267.13 218.09
  L 267.13 223.16
  A 0.47 0.46 -90.0 0 0 267.59 223.63
  L 273.42 223.63
  A 0.79 0.79 0.0 0 1 274.21 224.42
  Q 274.16 233.15 274.23 239.75
  C 274.27 244.32 276.84 245.48 281.06 245.43
  Q 286.17 245.38 286.44 245.46
  A 0.66 0.66 0.0 0 0 287.28 244.82
  L 287.25 240.01
  A 0.79 0.79 0.0 0 0 286.46 239.22
  L 282.39 239.22
  A 1.14 1.14 0.0 0 1 281.25 238.08
  L 281.25 224.40
  A 0.76 0.76 0.0 0 1 282.01 223.64
  L 288.39 223.64
  A 0.63 0.63 0.0 0 0 289.02 223.01
  L 289.02 218.22
  A 0.59 0.59 0.0 0 0 288.43 217.63
  L 281.85 217.63
  A 0.61 0.61 0.0 0 1 281.24 217.02
  L 281.24 209.37
  A 0.35 0.35 0.0 0 0 280.89 209.02
  L 274.58 209.02
  A 0.36 0.36 0.0 0 0 274.22 209.38
  L 274.22 217.15
  A 0.48 0.48 0.0 0 1 273.74 217.63
  Z
  M 71.40 242.15
  Q 75.25 246.79 80.89 246.24
  C 90.93 245.26 94.97 234.12 91.84 225.73
  C 88.50 216.79 77.91 213.36 71.38 221.06
  A 0.44 0.44 0.0 0 1 70.61 220.78
  L 70.61 218.20
  A 0.60 0.59 0.0 0 0 70.01 217.61
  L 64.24 217.61
  A 0.80 0.80 0.0 0 0 63.44 218.41
  L 63.44 256.22
  A 0.53 0.53 0.0 0 0 63.97 256.75
  L 70.21 256.75
  A 0.55 0.54 -0.0 0 0 70.76 256.21
  L 70.76 242.38
  A 0.36 0.36 0.0 0 1 71.40 242.15
  Z
  M 117.48 236.36
  A 0.99 0.98 -58.7 0 0 116.15 236.69
  Q 113.62 240.73 107.96 239.85
  A 3.12 3.06 -17.4 0 1 106.24 238.97
  L 103.32 236.05
  A 1.42 1.42 0.0 0 1 104.32 233.63
  L 122.32 233.63
  A 0.76 0.75 -87.5 0 0 123.07 232.94
  C 123.74 224.09 118.97 216.91 109.72 216.86
  C 91.35 216.74 90.73 244.51 108.64 246.22
  Q 116.98 247.01 122.15 240.20
  A 0.89 0.88 -56.5 0 0 121.89 238.90
  L 117.48 236.36
  Z
  M 229.76 236.35
  A 0.99 0.98 -58.7 0 0 228.43 236.68
  Q 225.90 240.72 220.25 239.84
  A 3.12 3.06 -17.4 0 1 218.53 238.96
  L 215.61 236.04
  A 1.42 1.42 0.0 0 1 216.61 233.62
  L 234.60 233.62
  A 0.76 0.75 -87.5 0 0 235.35 232.93
  C 236.02 224.08 231.26 216.91 222.01 216.85
  C 203.64 216.73 203.02 244.49 220.92 246.20
  Q 229.26 247.00 234.43 240.19
  A 0.89 0.88 -56.5 0 0 234.17 238.89
  L 229.76 236.35
  Z
  M 257.79 241.83
  L 257.79 244.71
  A 0.74 0.74 0.0 0 0 258.53 245.45
  L 263.91 245.45
  A 0.97 0.96 90.0 0 0 264.87 244.48
  Q 264.83 230.95 264.88 229.74
  C 265.09 224.66 263.22 219.87 258.70 218.17
  Q 247.02 213.78 238.96 223.76
  A 0.89 0.88 34.5 0 0 239.21 225.08
  L 243.69 227.66
  A 0.84 0.84 0.0 0 0 244.89 227.27
  Q 246.75 223.02 252.09 222.71
  A 5.63 5.62 -17.9 0 1 257.13 225.28
  L 257.34 225.60
  A 1.97 1.96 -18.6 0 1 255.84 228.62
  Q 247.81 229.25 246.50 229.47
  C 240.70 230.44 236.28 234.27 238.48 240.64
  Q 239.94 244.88 245.49 246.01
  Q 253.29 247.60 257.42 241.71
  A 0.20 0.20 0.0 0 1 257.79 241.83
  Z
  M 346.83 236.35
  A 0.99 0.98 -58.8 0 0 345.50 236.68
  Q 342.97 240.72 337.31 239.85
  A 3.12 3.06 -17.4 0 1 335.59 238.97
  L 332.66 236.05
  A 1.42 1.42 0.0 0 1 333.66 233.63
  L 351.66 233.61
  A 0.76 0.75 -87.6 0 0 352.41 232.92
  C 353.07 224.07 348.29 216.89 339.04 216.85
  C 320.67 216.76 320.08 244.53 338.00 246.22
  Q 346.34 247.00 351.50 240.18
  A 0.89 0.88 -56.5 0 0 351.24 238.88
  L 346.83 236.35
  Z
  M 134.38 221.75
  L 134.38 218.36
  A 0.76 0.76 0.0 0 0 133.62 217.60
  L 128.14 217.60
  A 0.90 0.89 90.0 0 0 127.25 218.50
  L 127.25 244.71
  A 0.73 0.72 -90.0 0 0 127.97 245.44
  L 133.90 245.44
  A 0.71 0.71 0.0 0 0 134.61 244.72
  Q 134.53 234.92 134.63 230.31
  Q 134.75 224.47 139.99 223.65
  C 146.79 222.58 147.52 227.18 147.49 232.88
  Q 147.42 244.73 147.41 244.78
  A 0.54 0.54 0.0 0 0 147.94 245.41
  L 154.06 245.45
  A 0.71 0.70 -0.0 0 0 154.77 244.75
  Q 154.81 232.12 154.70 228.28
  C 154.41 217.23 141.28 212.95 134.80 221.89
  A 0.23 0.23 0.0 0 1 134.38 221.75
  Z
  M 363.74 221.35
  Q 363.41 220.24 363.66 218.70
  A 0.96 0.95 -85.4 0 0 362.72 217.59
  L 357.72 217.59
  A 0.99 0.99 0.0 0 0 356.73 218.58
  L 356.73 244.94
  A 0.48 0.48 0.0 0 0 357.21 245.42
  L 363.36 245.42
  A 0.48 0.47 -90.0 0 0 363.83 244.94
  Q 363.75 232.34 363.85 229.51
  Q 364.03 224.46 368.92 223.93
  Q 372.48 223.55 373.11 223.94
  A 0.54 0.54 0.0 0 0 373.94 223.49
  L 374.05 218.43
  A 1.11 1.10 88.6 0 0 372.87 217.30
  C 369.04 217.57 365.60 217.90 364.48 221.36
  A 0.39 0.39 0.0 0 1 363.74 221.35
  Z"
/>
<path fill="#e86d4a" d="
  M 53.08 161.07
  A 0.79 0.79 0.0 0 0 53.98 160.19
  Q 51.85 142.61 61.38 128.42
  C 78.30 103.21 115.84 101.75 134.59 125.82
  Q 146.05 140.55 143.83 160.44
  A 0.58 0.57 -87.3 0 0 144.40 161.07
  L 154.55 161.07
  A 3.69 3.68 1.8 0 1 158.23 164.98
  L 158.21 165.31
  A 3.67 3.67 0.0 0 1 154.53 168.90
  L 116.46 168.82
  A 3.71 3.70 -87.4 0 0 112.76 172.20
  L 112.75 172.29
  A 3.43 3.43 0.0 0 0 115.86 176.00
  C 120.40 176.42 121.98 177.19 121.14 181.78
  C 120.59 184.77 114.58 183.87 112.71 184.12
  A 3.47 3.46 85.0 0 0 109.70 187.71
  L 109.71 188.10
  A 3.27 3.26 -1.0 0 0 112.98 191.25
  L 137.96 191.25
  A 3.88 3.88 0.0 0 1 141.84 195.13
  L 141.84 195.70
  A 3.39 3.39 0.0 0 1 138.45 199.09
  L 71.90 199.09
  A 3.48 3.48 0.0 0 1 68.42 195.61
  L 68.42 195.00
  A 3.78 3.78 0.0 0 1 72.20 191.22
  L 88.26 191.22
  A 3.16 3.16 0.0 0 0 91.42 188.06
  L 91.42 187.46
  A 3.37 3.37 0.0 0 0 88.12 184.09
  Q 77.88 183.88 65.75 184.06
  C 62.27 184.12 59.95 182.36 61.12 178.36
  A 2.78 2.76 2.9 0 1 63.28 176.42
  L 67.17 175.69
  A 1.90 1.89 -82.9 0 0 68.54 174.62
  Q 70.11 171.21 67.25 169.31
  A 1.88 1.85 62.1 0 0 66.24 168.99
  Q 59.49 168.82 52.29 168.92
  C 45.74 169.01 46.25 160.03 53.08 161.07
  Z"
/>
<rect fill="#e86d4a" x="-7.66" y="-3.93" transform="translate(134.58,180.09) rotate(-0.3)" width="15.32" height="7.86" rx="3.51"/>
<rect fill="#e86d4a" x="-7.73" y="-3.91" transform="translate(156.23,180.12) rotate(0.3)" width="15.46" height="7.82" rx="3.67"/>
<path fill="#f0f1f2" d="
  M 58.78 231.57
  A 14.70 14.70 0.0 0 1 44.08 246.27
  L 41.30 246.27
  A 14.70 14.70 0.0 0 1 26.60 231.57
  L 26.60 220.21
  A 14.70 14.70 0.0 0 1 41.30 205.51
  L 44.08 205.51
  A 14.70 14.70 0.0 0 1 58.78 220.21
  L 58.78 231.57
  Z
  M 51.26 220.33
  A 7.94 7.94 0.0 0 0 43.32 212.39
  L 42.00 212.39
  A 7.94 7.94 0.0 0 0 34.06 220.33
  L 34.06 231.51
  A 7.94 7.94 0.0 0 0 42.00 239.45
  L 43.32 239.45
  A 7.94 7.94 0.0 0 0 51.26 231.51
  L 51.26 220.33
  Z"
/>
<path fill="#f0f1f2" d="
  M 182.36 206.38
  Q 185.73 206.38 187.83 206.39
  A 0.52 0.51 84.9 0 1 188.32 206.81
  L 194.09 237.78
  A 0.24 0.24 0.0 0 0 194.57 237.77
  L 199.48 206.53
  A 0.20 0.20 0.0 0 1 199.68 206.35
  L 206.70 206.35
  A 0.17 0.17 0.0 0 1 206.87 206.55
  L 200.86 244.83
  A 0.71 0.70 4.2 0 1 200.16 245.43
  L 189.07 245.43
  A 0.60 0.59 84.7 0 1 188.49 244.94
  Q 186.59 234.88 182.78 214.33
  Q 182.65 213.64 182.37 213.64
  Q 182.09 213.64 181.96 214.33
  Q 178.17 234.88 176.28 244.95
  A 0.60 0.59 -84.8 0 1 175.70 245.44
  L 164.61 245.45
  A 0.71 0.70 -4.3 0 1 163.91 244.85
  L 157.86 206.58
  A 0.17 0.17 0.0 0 1 158.03 206.38
  L 165.05 206.37
  A 0.20 0.20 0.0 0 1 165.25 206.55
  L 170.20 237.78
  A 0.24 0.24 0.0 0 0 170.68 237.79
  L 176.41 206.82
  A 0.52 0.51 -85.0 0 1 176.90 206.40
  Q 179.00 206.38 182.36 206.38
  Z"
/>
<path fill="#f0f1f2" d="
  M 301.15 221.69
  C 307.80 212.83 320.82 217.52 320.85 228.54
  Q 320.87 235.71 320.86 244.91
  A 0.53 0.52 -90.0 0 1 320.34 245.44
  L 314.11 245.44
  A 0.52 0.52 0.0 0 1 313.59 244.91
  Q 313.67 230.16 313.66 229.99
  Q 313.47 224.48 309.31 223.68
  C 304.38 222.73 300.77 225.44 300.78 230.63
  C 300.79 235.66 300.73 240.47 300.82 244.87
  A 0.53 0.53 0.0 0 1 300.29 245.41
  L 293.92 245.41
  A 0.50 0.50 0.0 0 1 293.42 244.91
  L 293.42 206.73
  A 0.38 0.38 0.0 0 1 293.80 206.35
  L 300.47 206.35
  A 0.31 0.30 90.0 0 1 300.77 206.66
  L 300.77 221.56
  A 0.21 0.21 0.0 0 0 301.15 221.69
  Z"
/>
<path fill="#f0f1f2" d="
  M 274.22 217.15
  L 274.22 209.38
  A 0.36 0.36 0.0 0 1 274.58 209.02
  L 280.89 209.02
  A 0.35 0.35 0.0 0 1 281.24 209.37
  L 281.24 217.02
  A 0.61 0.61 0.0 0 0 281.85 217.63
  L 288.43 217.63
  A 0.59 0.59 0.0 0 1 289.02 218.22
  L 289.02 223.01
  A 0.63 0.63 0.0 0 1 288.39 223.64
  L 282.01 223.64
  A 0.76 0.76 0.0 0 0 281.25 224.40
  L 281.25 238.08
  A 1.14 1.14 0.0 0 0 282.39 239.22
  L 286.46 239.22
  A 0.79 0.79 0.0 0 1 287.25 240.01
  L 287.28 244.82
  A 0.66 0.66 0.0 0 1 286.44 245.46
  Q 286.17 245.38 281.06 245.43
  C 276.84 245.48 274.27 244.32 274.23 239.75
  Q 274.16 233.15 274.21 224.42
  A 0.79 0.79 0.0 0 0 273.42 223.63
  L 267.59 223.63
  A 0.47 0.46 90.0 0 1 267.13 223.16
  L 267.13 218.09
  A 0.46 0.46 0.0 0 1 267.59 217.63
  L 273.74 217.63
  A 0.48 0.48 0.0 0 0 274.22 217.15
  Z"
/>
<rect fill="#48484a" x="34.06" y="212.39" width="17.20" height="27.06" rx="7.94"/>
<path fill="#f0f1f2" d="
  M 71.40 242.15
  A 0.36 0.36 0.0 0 0 70.76 242.38
  L 70.76 256.21
  A 0.55 0.54 0.0 0 1 70.21 256.75
  L 63.97 256.75
  A 0.53 0.53 0.0 0 1 63.44 256.22
  L 63.44 218.41
  A 0.80 0.80 0.0 0 1 64.24 217.61
  L 70.01 217.61
  A 0.60 0.59 0.0 0 1 70.61 218.20
  L 70.61 220.78
  A 0.44 0.44 0.0 0 0 71.38 221.06
  C 77.91 213.36 88.50 216.79 91.84 225.73
  C 94.97 234.12 90.93 245.26 80.89 246.24
  Q 75.25 246.79 71.40 242.15
  Z
  M 78.0476 223.1906
  A 8.38 7.56 -90.7 0 0 70.5906 231.6624
  A 8.38 7.56 -90.7 0 0 78.2524 239.9494
  A 8.38 7.56 -90.7 0 0 85.7094 231.4776
  A 8.38 7.56 -90.7 0 0 78.0476 223.1906
  Z"
/>
<path fill="#f0f1f2" d="
  M 117.48 236.36
  L 121.89 238.90
  A 0.89 0.88 -56.5 0 1 122.15 240.20
  Q 116.98 247.01 108.64 246.22
  C 90.73 244.51 91.35 216.74 109.72 216.86
  C 118.97 216.91 123.74 224.09 123.07 232.94
  A 0.76 0.75 -87.5 0 1 122.32 233.63
  L 104.32 233.63
  A 1.42 1.42 0.0 0 0 103.32 236.05
  L 106.24 238.97
  A 3.12 3.06 -17.4 0 0 107.96 239.85
  Q 113.62 240.73 116.15 236.69
  A 0.99 0.98 -58.7 0 1 117.48 236.36
  Z
  M 103.30 228.85
  L 115.48 228.85
  A 0.15 0.15 0.0 0 0 115.63 228.70
  L 115.63 228.62
  A 6.09 5.55 -0.0 0 0 109.54 223.07
  L 109.24 223.07
  A 6.09 5.55 0.0 0 0 103.15 228.62
  L 103.15 228.70
  A 0.15 0.15 0.0 0 0 103.30 228.85
  Z"
/>
<path fill="#f0f1f2" d="
  M 229.76 236.35
  L 234.17 238.89
  A 0.89 0.88 -56.5 0 1 234.43 240.19
  Q 229.26 247.00 220.92 246.20
  C 203.02 244.49 203.64 216.73 222.01 216.85
  C 231.26 216.91 236.02 224.08 235.35 232.93
  A 0.76 0.75 -87.5 0 1 234.60 233.62
  L 216.61 233.62
  A 1.42 1.42 0.0 0 0 215.61 236.04
  L 218.53 238.96
  A 3.12 3.06 -17.4 0 0 220.25 239.84
  Q 225.90 240.72 228.43 236.68
  A 0.99 0.98 -58.7 0 1 229.76 236.35
  Z
  M 215.56 228.87
  L 227.76 228.89
  A 0.13 0.13 0.0 0 0 227.90 228.76
  L 227.90 228.67
  A 6.12 5.62 0.1 0 0 221.79 223.04
  L 221.57 223.04
  A 6.12 5.62 0.1 0 0 215.44 228.65
  L 215.44 228.74
  A 0.13 0.13 0.0 0 0 215.56 228.87
  Z"
/>
<path fill="#f0f1f2" d="
  M 257.79 241.83
  A 0.20 0.20 0.0 0 0 257.42 241.71
  Q 253.29 247.60 245.49 246.01
  Q 239.94 244.88 238.48 240.64
  C 236.28 234.27 240.70 230.44 246.50 229.47
  Q 247.81 229.25 255.84 228.62
  A 1.97 1.96 -18.6 0 0 257.34 225.60
  L 257.13 225.28
  A 5.63 5.62 -17.9 0 0 252.09 222.71
  Q 246.75 223.02 244.89 227.27
  A 0.84 0.84 0.0 0 1 243.69 227.66
  L 239.21 225.08
  A 0.89 0.88 34.5 0 1 238.96 223.76
  Q 247.02 213.78 258.70 218.17
  C 263.22 219.87 265.09 224.66 264.88 229.74
  Q 264.83 230.95 264.87 244.48
  A 0.97 0.96 90.0 0 1 263.91 245.45
  L 258.53 245.45
  A 0.74 0.74 0.0 0 1 257.79 244.71
  L 257.79 241.83
  Z
  M 256.81 233.21
  Q 250.31 233.76 247.42 234.68
  Q 244.91 235.47 245.63 238.13
  A 1.64 1.63 -78.5 0 0 246.18 238.97
  C 250.20 242.23 257.78 239.41 257.55 233.87
  A 0.69 0.68 86.4 0 0 256.81 233.21
  Z"
/>
<path fill="#f0f1f2" d="
  M 346.83 236.35
  L 351.24 238.88
  A 0.89 0.88 -56.5 0 1 351.50 240.18
  Q 346.34 247.00 338.00 246.22
  C 320.08 244.53 320.67 216.76 339.04 216.85
  C 348.29 216.89 353.07 224.07 352.41 232.92
  A 0.76 0.75 -87.6 0 1 351.66 233.61
  L 333.66 233.63
  A 1.42 1.42 0.0 0 0 332.66 236.05
  L 335.59 238.97
  A 3.12 3.06 -17.4 0 0 337.31 239.85
  Q 342.97 240.72 345.50 236.68
  A 0.99 0.98 -58.8 0 1 346.83 236.35
  Z
  M 332.66 228.84
  L 344.90 228.88
  A 0.14 0.14 0.0 0 0 345.04 228.74
  L 345.04 228.66
  A 6.11 5.56 0.2 0 0 338.95 223.08
  L 338.65 223.08
  A 6.11 5.56 0.2 0 0 332.52 228.62
  L 332.52 228.70
  A 0.14 0.14 0.0 0 0 332.66 228.84
  Z"
/>
<path fill="#f0f1f2" d="
  M 134.38 221.75
  A 0.23 0.23 0.0 0 0 134.80 221.89
  C 141.28 212.95 154.41 217.23 154.70 228.28
  Q 154.81 232.12 154.77 244.75
  A 0.71 0.70 -0.0 0 1 154.06 245.45
  L 147.94 245.41
  A 0.54 0.54 0.0 0 1 147.41 244.78
  Q 147.42 244.73 147.49 232.88
  C 147.52 227.18 146.79 222.58 139.99 223.65
  Q 134.75 224.47 134.63 230.31
  Q 134.53 234.92 134.61 244.72
  A 0.71 0.71 0.0 0 1 133.90 245.44
  L 127.97 245.44
  A 0.73 0.72 -90.0 0 1 127.25 244.71
  L 127.25 218.50
  A 0.90 0.89 -90.0 0 1 128.14 217.60
  L 133.62 217.60
  A 0.76 0.76 0.0 0 1 134.38 218.36
  L 134.38 221.75
  Z"
/>
<path fill="#f0f1f2" d="
  M 363.74 221.35
  A 0.39 0.39 0.0 0 0 364.48 221.36
  C 365.60 217.90 369.04 217.57 372.87 217.30
  A 1.11 1.10 88.6 0 1 374.05 218.43
  L 373.94 223.49
  A 0.54 0.54 0.0 0 1 373.11 223.94
  Q 372.48 223.55 368.92 223.93
  Q 364.03 224.46 363.85 229.51
  Q 363.75 232.34 363.83 244.94
  A 0.48 0.47 -90.0 0 1 363.36 245.42
  L 357.21 245.42
  A 0.48 0.48 0.0 0 1 356.73 244.94
  L 356.73 218.58
  A 0.99 0.99 0.0 0 1 357.72 217.59
  L 362.72 217.59
  A 0.96 0.95 -85.4 0 1 363.66 218.70
  Q 363.41 220.24 363.74 221.35
  Z"
/>
<path fill="#48484a" d="
  M 103.30 228.85
  A 0.15 0.15 0.0 0 1 103.15 228.70
  L 103.15 228.62
  A 6.09 5.55 -0.0 0 1 109.24 223.07
  L 109.54 223.07
  A 6.09 5.55 -0.0 0 1 115.63 228.62
  L 115.63 228.70
  A 0.15 0.15 0.0 0 1 115.48 228.85
  L 103.30 228.85
  Z"
/>
<path fill="#48484a" d="
  M 215.56 228.87
  A 0.13 0.13 0.0 0 1 215.44 228.74
  L 215.44 228.65
  A 6.12 5.62 0.1 0 1 221.57 223.04
  L 221.79 223.04
  A 6.12 5.62 0.1 0 1 227.90 228.67
  L 227.90 228.76
  A 0.13 0.13 0.0 0 1 227.76 228.89
  L 215.56 228.87
  Z"
/>
<path fill="#48484a" d="
  M 332.66 228.84
  A 0.14 0.14 0.0 0 1 332.52 228.70
  L 332.52 228.62
  A 6.11 5.56 0.2 0 1 338.65 223.08
  L 338.95 223.08
  A 6.11 5.56 0.2 0 1 345.04 228.66
  L 345.04 228.74
  A 0.14 0.14 0.0 0 1 344.90 228.88
  L 332.66 228.84
  Z"
/>
<ellipse fill="#48484a" cx="0.00" cy="0.00" transform="translate(78.15,231.57) rotate(-90.7)" rx="8.38" ry="7.56"/>
<path fill="#48484a" d="
  M 257.55 233.87
  C 257.78 239.41 250.20 242.23 246.18 238.97
  A 1.64 1.63 -78.5 0 1 245.63 238.13
  Q 244.91 235.47 247.42 234.68
  Q 250.31 233.76 256.81 233.21
  A 0.69 0.68 86.4 0 1 257.55 233.87
  Z"
/>
</svg>
