<svg width="48" height="48" viewBox="0 0 48 48" fill="none" xmlns="http://www.w3.org/2000/svg">
<g clip-path="url(#clip0_319_23)">
<path d="M18.4324 6.91188L22.6084 17.4719L18.0004 29.0879C17.0884 31.3439 14.9284 32.8319 12.4804 32.8319H9.26441C9.07241 32.8319 8.88041 32.6879 8.78441 32.4959L0.0484099 10.5599C-0.0475901 10.3199 0.14441 10.0319 0.43241 10.0319H8.40041C8.59241 10.0319 8.73641 10.1279 8.83241 10.3199L12.7204 21.5519C12.8164 21.7439 13.1044 21.7439 13.1524 21.5519L18.2884 6.91188C18.2884 6.91188 18.3844 6.67188 18.6244 6.67188C18.8644 6.67188 18.5764 6.86388 18.5764 6.86388L18.4324 6.95988" fill="#28293D"/>
<path d="M42.2888 3.40771C40.6568 3.40771 39.2168 4.41571 38.6408 5.95171L32.8808 21.5517C32.7848 21.7437 32.4968 21.7437 32.4488 21.5517L28.2728 9.55171C27.6488 7.82371 26.0168 6.67171 24.1928 6.67171H18.5768C18.4328 6.67171 18.3848 6.71971 18.3848 6.71971L18.4328 6.86371L22.6088 17.4717L28.5608 32.5437C28.6088 32.7357 28.8008 32.8317 28.9928 32.8317H32.2568C34.6568 32.8317 36.8648 31.3437 37.7768 29.1357L48.0008 3.83971C48.0968 3.64771 47.9528 3.40771 47.7128 3.40771H42.2888Z" fill="url(#paint0_linear_319_23)"/>
<path d="M9.98083 44.5018L11.6941 38.0883H13.4258L11.5842 44.5018H9.98083ZM6.16021 44.5018L4.31861 38.0883H6.05026L7.76358 44.5018H6.16021ZM6.40758 44.5018L8.02929 38.0883H9.53188L7.91934 44.5018H6.40758ZM9.82507 44.5018L8.21253 38.0883H9.71512L11.4284 44.5018H9.82507Z" fill="#28293D"/>
<path d="M15.8159 44.6117C15.3211 44.6117 14.8814 44.5109 14.4966 44.3094C14.1117 44.1078 13.8094 43.8268 13.5895 43.4664C13.3757 43.1061 13.2688 42.6877 13.2688 42.2112C13.2688 41.7348 13.3757 41.3164 13.5895 40.956C13.8033 40.5956 14.0995 40.3147 14.4782 40.1131C14.8569 39.9115 15.2937 39.8107 15.7884 39.8107C16.2587 39.8107 16.671 39.9146 17.0253 40.1223C17.3857 40.3238 17.6667 40.6323 17.8682 41.0476C18.0759 41.463 18.1797 41.9883 18.1797 42.6235H14.7531L14.9547 42.3853C14.9547 42.5808 14.9852 42.7518 15.0463 42.8984C15.1074 43.045 15.199 43.158 15.3211 43.2374C15.4433 43.3168 15.593 43.3565 15.7701 43.3565C15.9717 43.3565 16.1457 43.3107 16.2923 43.2191C16.445 43.1213 16.5397 43.0022 16.5764 42.8617L18.024 43.3107C17.914 43.6283 17.7369 43.8848 17.4926 44.0803C17.2544 44.2697 16.9856 44.4071 16.6863 44.4926C16.3931 44.572 16.103 44.6117 15.8159 44.6117ZM14.9638 41.8814L14.7897 41.6157H16.6863L16.5214 41.8814C16.5214 41.6432 16.4817 41.4569 16.4023 41.3225C16.3229 41.1881 16.2221 41.0934 16.0999 41.0385C15.9839 40.9774 15.8648 40.9468 15.7426 40.9468C15.6143 40.9468 15.4891 40.9774 15.367 41.0385C15.2509 41.0934 15.1532 41.1881 15.0738 41.3225C15.0005 41.4569 14.9638 41.6432 14.9638 41.8814Z" fill="#28293D"/>
<path d="M18.6874 44.5018V38.0883H20.3366V43.6497L20.2541 44.5018H18.6874ZM21.5643 44.6117C21.1856 44.6117 20.871 44.517 20.6206 44.3277C20.3763 44.1383 20.193 43.8635 20.0709 43.5031C19.9548 43.1427 19.8968 42.7121 19.8968 42.2112C19.8968 41.7043 19.9548 41.2736 20.0709 40.9194C20.193 40.559 20.3763 40.2841 20.6206 40.0948C20.871 39.9054 21.1856 39.8107 21.5643 39.8107C21.998 39.8107 22.3675 39.9054 22.6729 40.0948C22.9844 40.2841 23.2227 40.559 23.3876 40.9194C23.5525 41.2736 23.6349 41.7043 23.6349 42.2112C23.6349 42.7121 23.5525 43.1427 23.3876 43.5031C23.2227 43.8635 22.9844 44.1383 22.6729 44.3277C22.3675 44.517 21.998 44.6117 21.5643 44.6117ZM21.1245 43.0908C21.2772 43.0908 21.4116 43.0541 21.5277 42.9808C21.6437 42.9014 21.7353 42.7976 21.8025 42.6693C21.8758 42.535 21.9125 42.3822 21.9125 42.2112C21.9125 42.0402 21.8789 41.8905 21.8117 41.7623C21.7445 41.6279 21.6529 41.5241 21.5368 41.4508C21.4208 41.3775 21.2864 41.3408 21.1337 41.3408C20.981 41.3408 20.8435 41.3775 20.7214 41.4508C20.5992 41.5241 20.5045 41.6279 20.4374 41.7623C20.3702 41.8905 20.3366 42.0402 20.3366 42.2112C20.3366 42.3822 20.3702 42.535 20.4374 42.6693C20.5045 42.7976 20.5962 42.9014 20.7122 42.9808C20.8344 43.0541 20.9718 43.0908 21.1245 43.0908Z" fill="#28293D"/>
<path d="M25.5972 44.5018L27.2098 39.9207H28.9139L27.0723 44.5018H25.5972ZM25.4415 44.5018L23.5999 39.9207H25.304L26.9166 44.5018H25.4415Z" fill="#28293D"/>
<path d="M29.4622 44.5018V39.9207H31.1114V44.5018H29.4622ZM30.2868 39.4809C30.0425 39.4809 29.8287 39.3893 29.6455 39.206C29.4622 39.0228 29.3706 38.809 29.3706 38.5647C29.3706 38.3143 29.4622 38.1005 29.6455 37.9233C29.8287 37.7401 30.0425 37.6485 30.2868 37.6485C30.5373 37.6485 30.751 37.7401 30.9282 37.9233C31.1114 38.1005 31.203 38.3143 31.203 38.5647C31.203 38.809 31.1114 39.0228 30.9282 39.206C30.751 39.3893 30.5373 39.4809 30.2868 39.4809Z" fill="#28293D"/>
<path d="M31.7989 44.5018V43.3565L33.6497 41.2492H31.7989V39.9207H35.6837V41.066L33.8329 43.1824H35.6837V44.5018H31.7989Z" fill="#28293D"/>
<path d="M36.3696 44.5018V39.9207H38.0188V44.5018H36.3696ZM37.1942 39.4809C36.9499 39.4809 36.7361 39.3893 36.5529 39.206C36.3696 39.0228 36.278 38.809 36.278 38.5647C36.278 38.3143 36.3696 38.1005 36.5529 37.9233C36.7361 37.7401 36.9499 37.6485 37.1942 37.6485C37.4447 37.6485 37.6584 37.7401 37.8356 37.9233C38.0188 38.1005 38.1104 38.3143 38.1104 38.5647C38.1104 38.809 38.0188 39.0228 37.8356 39.206C37.6584 39.3893 37.4447 39.4809 37.1942 39.4809Z" fill="#28293D"/>
<path d="M41.2076 44.6117C40.719 44.6117 40.2853 44.5109 39.9066 44.3094C39.534 44.1017 39.2408 43.8177 39.027 43.4573C38.8132 43.0969 38.7063 42.6815 38.7063 42.2112C38.7063 41.7409 38.8102 41.3255 39.0179 40.9652C39.2316 40.6048 39.5248 40.3238 39.8974 40.1223C40.2761 39.9146 40.7067 39.8107 41.1893 39.8107C41.6779 39.8107 42.1086 39.9146 42.4811 40.1223C42.8599 40.3238 43.153 40.6048 43.3607 40.9652C43.5745 41.3255 43.6814 41.7409 43.6814 42.2112C43.6814 42.6815 43.5745 43.0969 43.3607 43.4573C43.153 43.8177 42.8629 44.1017 42.4903 44.3094C42.1177 44.5109 41.6902 44.6117 41.2076 44.6117ZM41.2076 43.0908C41.3603 43.0908 41.4947 43.0541 41.6107 42.9808C41.7268 42.9014 41.8184 42.7976 41.8856 42.6693C41.9528 42.535 41.9864 42.3822 41.9864 42.2112C41.9864 42.0402 41.9528 41.8905 41.8856 41.7623C41.8184 41.6279 41.7237 41.5241 41.6016 41.4508C41.4855 41.3714 41.3481 41.3317 41.1893 41.3317C41.0366 41.3317 40.8992 41.3714 40.777 41.4508C40.6609 41.5241 40.5693 41.6279 40.5021 41.7623C40.4349 41.8905 40.4013 42.0402 40.4013 42.2112C40.4013 42.3822 40.4349 42.535 40.5021 42.6693C40.5693 42.7976 40.664 42.9014 40.7862 42.9808C40.9083 43.0541 41.0488 43.0908 41.2076 43.0908Z" fill="#28293D"/>
</g>
<defs>
<linearGradient id="paint0_linear_319_23" x1="26.5739" y1="1.08447" x2="43.8556" y2="26.1357" gradientUnits="userSpaceOnUse">
<stop stop-color="#00FABB"/>
<stop offset="0.1513" stop-color="#11E3C7"/>
<stop offset="0.4671" stop-color="#3CA8E4"/>
<stop offset="0.587" stop-color="#4D90F0"/>
<stop offset="0.6764" stop-color="#568AF0"/>
<stop offset="0.8214" stop-color="#6E79F0"/>
<stop offset="1" stop-color="#945FF0"/>
</linearGradient>
<clipPath id="clip0_319_23">
<rect width="48" height="48" fill="#000000"/>
</clipPath>
</defs>
</svg>
