<svg class="aspect-[2/1] w-[36px]" fill="none" viewBox="0 0 36 18" xmlns="http://www.w3.org/2000/svg" style="fill: none !important;"><path clip-rule="evenodd" d="M5.73835 0.0180664C3.37553 0.0180664 1.75344 1.02402 0.515773 2.16716C0.515773 2.16716 0.0188309 2.62441 0.0282072 2.6427L5.20391 7.69078L10.3796 2.6427C9.3951 1.32581 7.54797 0.0180664 5.73835 0.0180664ZM18.5182 0.0180664C16.1554 0.0180664 14.5333 1.03317 13.2956 2.16716C13.2956 2.16716 12.8455 2.61527 12.8174 2.6427L6.42279 8.87964L11.5891 13.9186L23.15 2.6427C22.1655 1.32581 20.3184 0.0180664 18.5182 0.0180664ZM26.1036 2.16716C27.3413 1.03317 28.9634 0.0180664 31.3262 0.0180664C33.1358 0.0180664 34.9829 1.32581 35.9581 2.6427H35.9393L21.7905 16.4335C19.6902 18.4728 16.2585 18.4728 14.1676 16.4335L12.8174 15.1166L25.616 2.6427C25.6348 2.61527 26.1036 2.16716 26.1036 2.16716Z" fill="#FA4616" fill-rule="evenodd" style="fill: rgb(250, 70, 22) !important;"/></svg>