<svg width="165" height="26" viewBox="0 0 165 26" fill="none" xmlns="http://www.w3.org/2000/svg">
<g clip-path="url(#clip0_8228_545)">
<path d="M155.934 19.2059C154.656 19.2059 153.537 18.9963 152.579 18.5769C151.62 18.1576 150.871 17.5885 150.332 16.8696C149.793 16.1507 149.464 15.3619 149.344 14.5033L152.01 13.5747H152.129C152.289 14.5731 152.699 15.3519 153.358 15.9111C154.036 16.4502 154.895 16.7198 155.934 16.7198C156.792 16.7198 157.481 16.5201 158 16.1207C158.519 15.7014 158.779 15.1522 158.779 14.4733C158.779 13.4349 158.09 12.736 156.712 12.3766L153.747 11.6876C152.589 11.4081 151.65 10.9687 150.931 10.3697C150.212 9.77061 149.853 8.84205 149.853 7.58401C149.853 6.74531 150.093 5.98649 150.572 5.30754C151.051 4.60863 151.72 4.05948 152.579 3.66011C153.437 3.26073 154.406 3.06104 155.484 3.06104C157.082 3.06104 158.4 3.44045 159.438 4.19927C160.496 4.93812 161.165 5.9166 161.445 7.13471L158.749 7.94345H158.629C158.49 7.14469 158.13 6.52565 157.551 6.08633C156.992 5.62705 156.303 5.3974 155.484 5.3974C154.705 5.3974 154.066 5.5971 153.567 5.99647C153.088 6.37588 152.848 6.83517 152.848 7.37433C152.848 7.85359 153.018 8.24298 153.358 8.54252C153.697 8.82208 154.176 9.04174 154.795 9.20149L157.461 9.86047C158.859 10.1999 159.927 10.6892 160.666 11.3282C161.425 11.9672 161.804 13.0056 161.804 14.4433C161.804 15.342 161.555 16.1507 161.056 16.8696C160.556 17.5885 159.857 18.1576 158.959 18.5769C158.08 18.9963 157.072 19.2059 155.934 19.2059Z" fill="#000000"/>
<path d="M133.211 3.36057H136.086V5.60708C136.546 4.86823 137.235 4.25917 138.153 3.77992C139.092 3.30066 140.09 3.06104 141.149 3.06104C142.506 3.06104 143.735 3.41049 144.833 4.10941C145.931 4.80832 146.79 5.77682 147.409 7.01489C148.048 8.233 148.367 9.61086 148.367 11.1485C148.367 12.6861 148.048 14.0739 147.409 15.312C146.79 16.5301 145.921 17.4886 144.803 18.1875C143.705 18.8665 142.457 19.2059 141.059 19.2059C140.04 19.2059 139.072 18.9663 138.153 18.4871C137.235 18.0078 136.546 17.3988 136.086 16.6599V24.5077H133.211V3.36057ZM140.639 16.6599C142.037 16.6599 143.175 16.1607 144.054 15.1622C144.933 14.1438 145.372 12.8159 145.372 11.1784C145.372 10.0801 145.172 9.11163 144.773 8.27294C144.374 7.43424 143.824 6.78525 143.126 6.32596C142.427 5.84671 141.628 5.60708 140.729 5.60708C139.451 5.60708 138.383 6.03641 137.524 6.89508C136.666 7.73377 136.186 8.82208 136.086 10.16V12.1669C136.186 13.4848 136.656 14.5632 137.494 15.4019C138.353 16.2406 139.401 16.6599 140.639 16.6599Z" fill="#000000"/>
<path d="M123.415 19.2059C121.938 19.2059 120.61 18.8565 119.432 18.1576C118.254 17.4587 117.335 16.5002 116.676 15.282C116.017 14.044 115.688 12.6561 115.688 11.1185C115.688 9.60087 116.017 8.233 116.676 7.01489C117.335 5.77682 118.254 4.80832 119.432 4.10941C120.61 3.41049 121.938 3.06104 123.415 3.06104C124.873 3.06104 126.191 3.41049 127.369 4.10941C128.567 4.80832 129.496 5.77682 130.155 7.01489C130.834 8.233 131.173 9.60087 131.173 11.1185C131.173 12.6362 130.834 14.014 130.155 15.2521C129.496 16.4902 128.567 17.4587 127.369 18.1576C126.191 18.8565 124.873 19.2059 123.415 19.2059ZM123.415 16.6599C124.334 16.6599 125.153 16.4203 125.872 15.941C126.591 15.4618 127.15 14.8028 127.549 13.9641C127.968 13.1254 128.178 12.1769 128.178 11.1185C128.178 10.0602 127.968 9.11163 127.549 8.27294C127.15 7.43424 126.581 6.78525 125.842 6.32596C125.123 5.84671 124.314 5.60708 123.415 5.60708C122.497 5.60708 121.678 5.84671 120.959 6.32596C120.24 6.78525 119.681 7.43424 119.282 8.27294C118.883 9.11163 118.683 10.0602 118.683 11.1185C118.683 12.1769 118.883 13.1254 119.282 13.9641C119.681 14.8028 120.24 15.4618 120.959 15.941C121.678 16.4203 122.497 16.6599 123.415 16.6599Z" fill="#000000"/>
<path d="M99.3047 3.36057H102.18V5.60708C102.64 4.86823 103.328 4.25917 104.247 3.77992C105.186 3.30066 106.184 3.06104 107.242 3.06104C108.6 3.06104 109.828 3.41049 110.927 4.10941C112.025 4.80832 112.884 5.77682 113.503 7.01489C114.142 8.233 114.461 9.61086 114.461 11.1485C114.461 12.6861 114.142 14.0739 113.503 15.312C112.884 16.5301 112.015 17.4886 110.897 18.1875C109.798 18.8665 108.55 19.2059 107.152 19.2059C106.134 19.2059 105.166 18.9663 104.247 18.4871C103.328 18.0078 102.64 17.3988 102.18 16.6599V24.5077H99.3047V3.36057ZM106.733 16.6599C108.131 16.6599 109.269 16.1607 110.148 15.1622C111.026 14.1438 111.466 12.8159 111.466 11.1784C111.466 10.0801 111.266 9.11163 110.867 8.27294C110.467 7.43424 109.918 6.78525 109.219 6.32596C108.52 5.84671 107.722 5.60708 106.823 5.60708C105.545 5.60708 104.477 6.03641 103.618 6.89508C102.759 7.73377 102.28 8.82208 102.18 10.16V12.1669C102.28 13.4848 102.749 14.5632 103.588 15.4019C104.447 16.2406 105.495 16.6599 106.733 16.6599Z" fill="#000000"/>
<path d="M82.5703 11.1185C82.5703 9.56094 82.8898 8.17309 83.5288 6.95498C84.1678 5.73688 85.0564 4.78835 86.1947 4.10941C87.3329 3.41049 88.6309 3.06104 90.0886 3.06104C91.8259 3.06104 93.2238 3.43046 94.2821 4.16931C95.3604 4.90817 96.1193 5.84671 96.5586 6.98494C97.0179 8.1032 97.2475 9.27139 97.2475 10.4895C97.2475 10.7291 97.2275 11.0886 97.1876 11.5678H85.4758C85.5557 13.1653 86.0249 14.4234 86.8836 15.342C87.7622 16.2406 88.8905 16.6899 90.2683 16.6899C91.3467 16.6899 92.2153 16.4602 92.8743 16.0009C93.5532 15.5217 94.0325 14.7828 94.3121 13.7844L97.1876 14.6231C96.7683 16.0409 95.9495 17.1591 94.7314 17.9779C93.5333 18.7966 92.0256 19.2059 90.2084 19.2059C88.7307 19.2059 87.4128 18.8665 86.2546 18.1875C85.0964 17.4886 84.1878 16.5301 83.5288 15.312C82.8898 14.0739 82.5703 12.6761 82.5703 11.1185ZM94.1623 9.38121C94.0824 8.16311 93.6731 7.19461 92.9342 6.47573C92.2153 5.73688 91.2668 5.36745 90.0886 5.36745C88.8705 5.36745 87.8721 5.72689 87.0933 6.44578C86.3345 7.14469 85.8452 8.12317 85.6256 9.38121H94.1623Z" fill="#000000"/>
<path d="M75.5976 19.2059C74.3196 19.2059 73.2013 18.9963 72.2428 18.5769C71.2843 18.1576 70.5354 17.5885 69.9963 16.8696C69.4571 16.1507 69.1276 15.3619 69.0078 14.5033L71.6737 13.5747H71.7935C71.9532 14.5731 72.3626 15.3519 73.0216 15.9111C73.7005 16.4502 74.5592 16.7198 75.5976 16.7198C76.4562 16.7198 77.1452 16.5201 77.6644 16.1207C78.1836 15.7014 78.4431 15.1522 78.4431 14.4733C78.4431 13.4349 77.7542 12.736 76.3764 12.3766L73.411 11.6876C72.2528 11.4081 71.3142 10.9687 70.5953 10.3697C69.8765 9.77061 69.517 8.84205 69.517 7.58401C69.517 6.74531 69.7566 5.98649 70.2359 5.30754C70.7152 4.60863 71.3841 4.05948 72.2428 3.66011C73.1015 3.26073 74.0699 3.06104 75.1483 3.06104C76.7458 3.06104 78.0637 3.44045 79.1021 4.19927C80.1605 4.93812 80.8294 5.9166 81.109 7.13471L78.4132 7.94345H78.2934C78.1536 7.14469 77.7942 6.52565 77.2151 6.08633C76.6559 5.62705 75.967 5.3974 75.1483 5.3974C74.3695 5.3974 73.7305 5.5971 73.2312 5.99647C72.752 6.37588 72.5124 6.83517 72.5124 7.37433C72.5124 7.85359 72.6821 8.24298 73.0216 8.54252C73.361 8.82208 73.8403 9.04174 74.4593 9.20149L77.1252 9.86047C78.523 10.1999 79.5914 10.6892 80.3302 11.3282C81.089 11.9672 81.4684 13.0056 81.4684 14.4433C81.4684 15.342 81.2188 16.1507 80.7196 16.8696C80.2204 17.5885 79.5215 18.1576 78.6229 18.5769C77.7442 18.9963 76.7358 19.2059 75.5976 19.2059Z" fill="#000000"/>
<path d="M64.3359 18.9062V3.36035H67.2115V18.9062H64.3359Z" fill="#000000"/>
<path d="M41.366 5.27737L40.7969 3.48017V3.36035H43.7323L43.7623 3.48017L44.2415 5.27737L46.9673 14.8325L49.7829 5.60686L49.8728 5.27737L50.4119 3.48017L50.4718 3.36035H53.2276L53.2875 3.51012L53.8266 5.27737L56.7621 14.8325L59.4279 5.27737L59.9072 3.48017L59.9371 3.36035H62.9325V3.48017L62.3933 5.27737L58.1699 18.9062H55.3842L51.8497 7.49393L48.2852 18.9062H45.5894L41.366 5.27737Z" fill="#000000"/>
<path d="M19.8419 7.06479C20.0509 6.36474 19.5266 5.66092 18.796 5.66092H13.3218C12.8393 5.66092 12.414 5.97773 12.2759 6.44006L9.10365 17.0615C8.89457 17.7616 9.4189 18.4654 10.1495 18.4654H15.6237C16.1062 18.4654 16.5315 18.1486 16.6696 17.6863L19.8419 7.06479Z" fill="#000000" stroke="#000000" stroke-width="0.914606"/>
<path d="M2.08385 13.5813C1.77873 12.8615 2.30703 12.0637 3.08879 12.0637H8.51251C8.95071 12.0637 9.34642 12.3258 9.51745 12.7293L11.306 16.9485C11.6111 17.6682 11.0829 18.466 10.3011 18.466H4.87738C4.43918 18.466 4.04346 18.2039 3.87243 17.8005L2.08385 13.5813Z" fill="#000000" stroke="#000000" stroke-width="0.914606"/>
<path d="M31.7389 3.40104C31.9432 2.70232 31.4193 2.0032 30.6913 2.0032H25.2807C24.7958 2.0032 24.3691 2.32303 24.233 2.78838L20.0576 17.0683C19.8533 17.767 20.3773 18.4661 21.1053 18.4661H26.5159C27.0007 18.4661 27.4274 18.1463 27.5635 17.6809L31.7389 3.40104Z" fill="#000000" stroke="#000000" stroke-width="0.914606"/>
</g>
<defs>
<clipPath id="clip0_8228_545">
<rect width="164.057" height="25.0088" fill="#000000" transform="translate(0.75 0.730957)"/>
</clipPath>
</defs>
</svg>
