<svg width="128" height="128" viewBox="0 0 128 128" fill="none" xmlns="http://www.w3.org/2000/svg">
<g clip-path="url(#clip0_411_6254)">
<path d="M0 0H128V128H0V0Z" fill="white"/>
<path d="M13.7655 44.1486C14.7319 44.3402 15.9664 44.2134 17.0013 44.3544C21.9903 45.034 21.4059 50.9375 22.3999 53.8141C23.3892 56.6767 25.5047 69.5518 26.6887 71.011L26.8719 71.0008C27.2768 67.7271 27.9468 65.0167 28.7215 61.8332C29.5799 58.3063 30.553 51.3241 31.9578 48.2305C32.6998 46.5794 34.0728 45.2944 35.7696 44.6636C37.5207 44.0206 39.7566 44.1391 41.4349 44.9386C44.9031 46.5908 45.2093 49.2381 45.9944 52.5668C47.4102 58.5702 48.4311 64.5784 49.8973 70.5654C49.9644 70.8391 50.0195 70.9085 50.2581 71.017C50.5455 70.5829 50.9884 68.0463 51.1458 67.3765L54.2991 53.6679C54.8366 51.311 55.1496 47.5517 56.9054 45.6682C58.4063 44.0581 61.0444 44.2672 63.1094 44.2736C62.62 45.4323 62.216 48.3872 61.8828 49.7664C61.1793 52.678 60.3906 55.6996 59.8426 58.6374C59.665 59.5881 59.3678 60.578 59.1481 61.5311C57.4814 68.7614 55.9164 75.9634 54.4654 83.239C51.7433 83.2724 48.7177 83.4857 46.5996 81.484C44.5552 79.5517 44.2243 75.6177 43.6635 73.0417L40.6319 59.0363C40.2962 57.4627 39.4795 51.4939 38.3859 50.6796C37.1261 50.8 36.4596 56.8326 36.1853 58.1274L32.892 73.237C32.5178 74.9294 32.3225 77.1412 31.7589 78.7038C31.3874 79.7203 30.7899 80.6392 30.0115 81.391C27.8019 83.559 25.1327 83.2737 22.3004 83.2374C21.4977 78.1294 19.8671 72.8907 18.8638 67.8092C17.3099 59.9388 15.0281 52.0583 13.7655 44.1486Z" fill="black"/>
<path d="M79.6745 44.1322C83.0429 44.4965 86.6665 43.3059 88.8586 46.3367C91.5842 50.1053 93.8368 53.9776 96.7708 57.6113L101.611 50.3613C106.899 42.4318 105.117 44.9089 113.765 44.1937C112.686 45.5848 111.409 47.8246 110.328 49.3478C107.01 54.021 103.875 58.9934 100.563 63.6461C101.125 64.6671 104.062 68.9425 104.802 70.0058C107.657 74.1051 110.698 79.0859 113.697 83.0084C112.141 83.3816 107.098 83.5549 105.819 82.3591C102.134 78.9151 99.7958 73.9067 96.6861 69.8637C95.1478 71.7341 93.1533 74.6445 91.831 76.7131C87.6317 83.2824 87.2475 83.6806 79.4893 83.0624C81.2555 80.9277 83.0351 78.1001 84.597 75.7503C87.2391 71.733 89.9142 67.7375 92.6221 63.7644C88.7231 57.3278 83.7599 50.7078 79.6745 44.1322Z" fill="black"/>
<path d="M71.1524 44.3193C72.2584 44.2421 73.5709 44.2572 74.6937 44.2427L74.6927 67.3006C74.6941 71.094 74.7338 74.8907 74.6514 78.6825C74.5982 81.138 73.8371 82.3207 71.4338 83.0695C70.0583 83.2227 69.4709 83.2458 68.0541 83.2432C67.8128 76.81 68.0179 69.0351 68.0166 62.514L68.0155 53.6099C68.0154 50.3975 67.1369 45.089 71.1524 44.3193Z" fill="black"/>
</g>
<defs>
<clipPath id="clip0_411_6254">
<rect width="128" height="128" fill="white"/>
</clipPath>
</defs>
</svg>
