<svg xmlns="http://www.w3.org/2000/svg" width="100%" viewBox="0 0 45 16" fill="none" class="nav_logo_text" style="fill: none !important;"><path d="M3.97952 15.7616L0 5.17056H2.50623L5.00253 12.7008L7.61388 5.17056H9.53577L12.1471 12.7008L14.6327 5.17056H17.1497L13.1494 15.7616H11.1233L8.57483 8.39853L6.00569 15.7616H3.97952ZM18.4615 15.7616V5.17056H20.7277V15.7616H18.4615ZM18.5766 2.38208C18.3117 2.11722 18.1801 1.78698 18.1801 1.38969C18.1801 0.992396 18.3126 0.654701 18.5766 0.397291C18.8414 0.132431 19.1791 0 19.5897 0C20.0002 0 20.3172 0.132431 20.5821 0.397291C20.8469 0.654701 20.9785 0.985775 20.9785 1.38969C20.9785 1.7936 20.8461 2.11722 20.5821 2.38208C20.3172 2.64694 19.987 2.77937 19.5897 2.77937C19.1924 2.77937 18.8414 2.64694 18.5766 2.38208ZM32.1291 15.7616H22.6869V14.3513L28.8076 6.96663H22.8019V5.17056H32.0141V6.55941L25.9041 13.944H32.1291V15.7616ZM37.159 9.4737H40.6684V8.82645C40.6684 8.29755 40.4316 7.85474 39.9582 7.49966C39.4848 7.14459 38.8996 6.96663 38.2035 6.96663C37.5074 6.96663 36.9471 7.13714 36.4803 7.47815C36.0209 7.81253 35.7668 8.21975 35.718 8.69981H33.6711C33.7547 7.59981 34.2348 6.69764 35.1121 5.99493C35.9894 5.2914 37.0687 4.93963 38.35 4.93963C39.6313 4.93963 40.7486 5.30547 41.6194 6.03632C42.4967 6.76054 42.9354 7.67596 42.9354 8.7834V13.2537C42.9354 13.5111 43.0049 13.7206 43.144 13.8803C43.2896 14.0334 43.4817 14.1104 43.7184 14.1104C43.9344 14.1104 44.1223 14.0616 44.282 13.9639V15.5199C43.8856 15.7914 43.4154 15.9272 42.8725 15.9272C42.3709 15.9272 41.9322 15.8055 41.5565 15.5613C41.1873 15.3105 40.9332 14.9695 40.7942 14.5375C39.868 15.505 38.6778 15.9926 37.2219 16C36.0524 16 35.0914 15.6904 34.339 15.0705C33.5941 14.444 33.2217 13.6187 33.2217 12.5949C33.2217 11.6273 33.5701 10.8642 34.2662 10.3072C34.9697 9.75014 35.934 9.47121 37.159 9.47121V9.4737ZM35.4879 12.513C35.4879 12.9376 35.6758 13.2827 36.0515 13.5467C36.4347 13.8116 36.9256 13.9432 37.524 13.9432C38.3666 13.9432 39.1007 13.7065 39.7281 13.233C40.3547 12.753 40.6684 12.1471 40.6684 11.4154V11.1647H37.4934C36.8668 11.1647 36.376 11.2863 36.0209 11.5305C35.6658 11.7738 35.4879 12.1016 35.4879 12.5121V12.513Z" fill="currentColor" style="fill: rgb(38, 17, 74) !important;"/></svg>