<?xml version="1.0" encoding="UTF-8" standalone="no"?>
<!DOCTYPE svg PUBLIC "-//W3C//DTD SVG 1.1//EN" "http://www.w3.org/Graphics/SVG/1.1/DTD/svg11.dtd">
<svg xmlns="http://www.w3.org/2000/svg" version="1.1" viewBox="0.00 0.00 60.00 60.00">
<g stroke-width="2.00" fill="none" stroke-linecap="butt">
<path stroke="#b1b3fa" vector-effect="non-scaling-stroke" d="
  M 12.15 32.52
  Q 12.80 35.05 14.32 37.32
  A 1.49 1.49 0.0 0 1 14.56 38.13
  L 14.56 45.72
  A 1.92 1.90 -62.6 0 0 14.90 46.81
  Q 16.21 48.70 18.56 48.10
  A 1.43 1.43 0.0 0 0 19.45 47.42
  L 22.14 42.76
  A 0.99 0.98 15.5 0 1 23.01 42.27
  C 33.24 42.45 44.20 44.45 47.43 31.80"
/>
<path stroke="#c0aff7" vector-effect="non-scaling-stroke" d="
  M 47.43 31.80
  Q 48.81 18.45 36.33 15.73
  A 5.91 5.67 49.1 0 0 34.82 15.59
  C 29.83 15.78 23.78 14.91 19.65 16.69
  C 13.35 19.40 10.60 25.84 12.15 32.52"
/>
<path stroke="#7266f4" vector-effect="non-scaling-stroke" d="
  M 47.43 31.80
  L 45.73 27.21"
/>
<path stroke="#7257f1" vector-effect="non-scaling-stroke" d="
  M 45.73 27.21
  C 42.31 17.63 34.15 18.20 25.76 18.50
  Q 15.21 18.88 13.76 28.94"
/>
<path stroke="#7266f4" vector-effect="non-scaling-stroke" d="
  M 13.76 28.94
  L 12.15 32.52"
/>
<path stroke="#8b8bf8" vector-effect="non-scaling-stroke" d="
  M 29.51 30.55
  Q 30.78 32.21 33.21 30.48"
/>
<path stroke="#8b8bf8" vector-effect="non-scaling-stroke" d="
  M 35.98 30.21
  Q 37.54 31.90 39.19 31.10"
/>
<path stroke="#645bf4" vector-effect="non-scaling-stroke" d="
  M 45.73 27.21
  Q 43.45 30.32 39.19 31.10"
/>
<path stroke="#8c7cf5" vector-effect="non-scaling-stroke" d="
  M 39.19 31.10
  C 41.71 29.83 39.89 26.40 37.20 27.04
  A 1.38 1.34 10.4 0 0 36.42 27.56
  Q 35.48 28.87 35.98 30.21"
/>
<path stroke="#645bf4" vector-effect="non-scaling-stroke" d="
  M 35.98 30.21
  Q 34.63 30.64 33.21 30.48"
/>
<path stroke="#8c7cf5" vector-effect="non-scaling-stroke" d="
  M 33.21 30.48
  Q 33.88 29.01 33.32 27.97
  A 2.12 2.12 0.0 0 0 30.65 27.01
  Q 28.13 28.04 29.51 30.55"
/>
<path stroke="#645bf4" vector-effect="non-scaling-stroke" d="
  M 29.51 30.55
  Q 27.67 30.59 25.92 30.05"
/>
<path stroke="#8c7cf5" vector-effect="non-scaling-stroke" d="
  M 25.92 30.05
  Q 26.85 29.73 26.88 29.10
  A 0.66 0.65 -84.5 0 0 26.33 28.43
  Q 24.13 28.09 23.62 25.59
  A 0.62 0.62 0.0 0 0 22.41 25.60
  Q 21.97 27.99 19.47 28.49
  A 0.53 0.53 0.0 0 0 19.06 29.14
  Q 19.23 29.82 20.63 30.18"
/>
<path stroke="#645bf4" vector-effect="non-scaling-stroke" d="
  M 20.63 30.18
  Q 16.84 30.45 13.76 28.94"
/>
<path stroke="#8b8bf8" vector-effect="non-scaling-stroke" d="
  M 25.92 30.05
  Q 24.00 29.94 23.97 31.97
  Q 23.96 32.88 23.10 32.96
  A 0.63 0.63 0.0 0 1 22.43 32.50
  Q 21.89 30.53 20.63 30.18"
/>
</g>
<path fill="#fffcfd" d="
  M 32.71 0.00
  Q 56.14 3.81 60.00 27.17
  L 60.00 32.69
  Q 56.21 56.14 32.81 60.00
  L 27.39 60.00
  Q 3.81 56.25 0.00 32.72
  L 0.00 27.37
  Q 3.71 3.89 27.21 0.00
  L 32.71 0.00
  Z
  M 12.15 32.52
  Q 12.80 35.05 14.32 37.32
  A 1.49 1.49 0.0 0 1 14.56 38.13
  L 14.56 45.72
  A 1.92 1.90 -62.6 0 0 14.90 46.81
  Q 16.21 48.70 18.56 48.10
  A 1.43 1.43 0.0 0 0 19.45 47.42
  L 22.14 42.76
  A 0.99 0.98 15.5 0 1 23.01 42.27
  C 33.24 42.45 44.20 44.45 47.43 31.80
  Q 48.81 18.45 36.33 15.73
  A 5.91 5.67 49.1 0 0 34.82 15.59
  C 29.83 15.78 23.78 14.91 19.65 16.69
  C 13.35 19.40 10.60 25.84 12.15 32.52
  Z"
/>
<path fill="#8061f1" d="
  M 47.43 31.80
  L 45.73 27.21
  C 42.31 17.63 34.15 18.20 25.76 18.50
  Q 15.21 18.88 13.76 28.94
  L 12.15 32.52
  C 10.60 25.84 13.35 19.40 19.65 16.69
  C 23.78 14.91 29.83 15.78 34.82 15.59
  A 5.91 5.67 49.1 0 1 36.33 15.73
  Q 48.81 18.45 47.43 31.80
  Z"
/>
<path fill="#644cf0" d="
  M 45.73 27.21
  Q 43.45 30.32 39.19 31.10
  C 41.71 29.83 39.89 26.40 37.20 27.04
  A 1.38 1.34 10.4 0 0 36.42 27.56
  Q 35.48 28.87 35.98 30.21
  Q 34.63 30.64 33.21 30.48
  Q 33.88 29.01 33.32 27.97
  A 2.12 2.12 0.0 0 0 30.65 27.01
  Q 28.13 28.04 29.51 30.55
  Q 27.67 30.59 25.92 30.05
  Q 26.85 29.73 26.88 29.10
  A 0.66 0.65 -84.5 0 0 26.33 28.43
  Q 24.13 28.09 23.62 25.59
  A 0.62 0.62 0.0 0 0 22.41 25.60
  Q 21.97 27.99 19.47 28.49
  A 0.53 0.53 0.0 0 0 19.06 29.14
  Q 19.23 29.82 20.63 30.18
  Q 16.84 30.45 13.76 28.94
  Q 15.21 18.88 25.76 18.50
  C 34.15 18.20 42.31 17.63 45.73 27.21
  Z"
/>
<path fill="#b3acf9" d="
  M 25.92 30.05
  Q 24.00 29.94 23.97 31.97
  Q 23.96 32.88 23.10 32.96
  A 0.63 0.63 0.0 0 1 22.43 32.50
  Q 21.89 30.53 20.63 30.18
  Q 19.23 29.82 19.06 29.14
  A 0.53 0.53 0.0 0 1 19.47 28.49
  Q 21.97 27.99 22.41 25.60
  A 0.62 0.62 0.0 0 1 23.62 25.59
  Q 24.13 28.09 26.33 28.43
  A 0.66 0.65 -84.5 0 1 26.88 29.10
  Q 26.85 29.73 25.92 30.05
  Z"
/>
<path fill="#636af7" d="
  M 47.43 31.80
  C 44.20 44.45 33.24 42.45 23.01 42.27
  A 0.99 0.98 15.5 0 0 22.14 42.76
  L 19.45 47.42
  A 1.43 1.43 0.0 0 1 18.56 48.10
  Q 16.21 48.70 14.90 46.81
  A 1.92 1.90 -62.6 0 1 14.56 45.72
  L 14.56 38.13
  A 1.49 1.49 0.0 0 0 14.32 37.32
  Q 12.80 35.05 12.15 32.52
  L 13.76 28.94
  Q 16.84 30.45 20.63 30.18
  Q 21.89 30.53 22.43 32.50
  A 0.63 0.63 0.0 0 0 23.10 32.96
  Q 23.96 32.88 23.97 31.97
  Q 24.00 29.94 25.92 30.05
  Q 27.67 30.59 29.51 30.55
  Q 30.78 32.21 33.21 30.48
  Q 34.63 30.64 35.98 30.21
  Q 37.54 31.90 39.19 31.10
  Q 43.45 30.32 45.73 27.21
  L 47.43 31.80
  Z"
/>
<path fill="#b3acf9" d="
  M 33.21 30.48
  Q 30.78 32.21 29.51 30.55
  Q 28.13 28.04 30.65 27.01
  A 2.12 2.12 0.0 0 1 33.32 27.97
  Q 33.88 29.01 33.21 30.48
  Z"
/>
<path fill="#b3acf9" d="
  M 39.19 31.10
  Q 37.54 31.90 35.98 30.21
  Q 35.48 28.87 36.42 27.56
  A 1.38 1.34 10.4 0 1 37.20 27.04
  C 39.89 26.40 41.71 29.83 39.19 31.10
  Z"
/>
</svg>
