<svg width="71" height="20" viewBox="0 0 71 20" fill="none" xmlns="http://www.w3.org/2000/svg">
<g id="Symbols">
<g id="Artboard">
<g id="pw-paddle-logo-dark">
<g id="Group">
<path id="Path" d="M13.4307 9.35296H17.7543L13.4307 5.02344V9.35296Z" fill="#C0C1C6"/>
<path id="Shape" d="M8.65405 9.36215H5.22111C4.97267 9.36215 4.77116 9.16114 4.77073 8.9129V5.48187C4.77073 5.23333 4.97237 5.03185 5.22111 5.03185H8.65483C8.90283 5.03228 9.10365 5.23329 9.10365 5.48109V8.91135C9.10365 9.15989 8.90201 9.36137 8.65328 9.36137M13.4296 5.02254L9.73495 1.3308C9.55329 1.1493 9.34086 1.0014 9.10754 0.89397V0.898625C8.82452 0.767557 8.51639 0.699518 8.20445 0.699219H5.66837C5.10369 0.699732 4.56172 0.921475 4.15884 1.31684L1.04659 4.42665V4.4313C0.658771 4.83316 0.442188 5.36975 0.44241 5.92801V12.7885C0.439475 13.3779 0.677965 13.9428 1.1025 14.352L3.84824 17.0956C3.99252 17.2361 4.20275 17.2853 4.3945 17.2235C4.58625 17.1617 4.72806 16.999 4.76296 16.8007H4.77228V14.1409C4.77228 13.8928 4.97357 13.6917 5.22188 13.6917H8.20213C8.77781 13.6926 9.32997 13.4635 9.73573 13.0554H9.74039L12.7688 10.0294V10.0224C12.8006 9.99218 12.8293 9.95882 12.8596 9.927L13.4319 9.35206L13.4296 5.02254Z" fill="#565A67"/>
<path id="Path_2" d="M17.7558 16.0973C17.7562 16.0931 17.7562 16.089 17.7558 16.0849V9.35547H13.4314V16.0849C13.4314 16.1143 13.4268 16.1438 13.4268 16.1733C13.4289 16.7702 13.9126 17.2536 14.51 17.2557H16.6765C17.2457 17.2554 17.7174 16.8145 17.7558 16.247V16.0973Z" fill="#565A67"/>
</g>
<path id="Shape_2" d="M23.6699 1.36328H26.5113C27.6693 1.36328 28.7021 1.36328 29.3235 2.25903C29.5931 2.66196 29.7233 3.23581 29.7233 3.71921C29.7273 4.10265 29.6453 4.48206 29.4834 4.82919C28.873 6.09789 27.5728 6.12786 26.6122 6.14784H25.4405V8.4738H23.6699V1.36328ZM25.4405 2.67195V4.82697H26.5008C27.1625 4.82697 27.9615 4.80643 27.9615 3.70922C27.9615 2.67195 27.071 2.67195 26.5609 2.67195H25.4405Z" fill="#565A67"/>
<path id="Path_3" d="M31.8422 3.76063C32.1824 3.46871 32.5524 3.23672 33.353 3.15625V4.52596L32.8424 4.60921C32.103 4.73686 31.8824 4.84786 31.8824 5.51218V8.47249H30.3418V3.20675H31.8422V3.76063Z" fill="#565A67"/>
<path id="Shape_3" d="M39.3647 5.83242C39.3647 7.16161 38.6049 8.62124 36.5641 8.62124C35.0935 8.62124 33.752 7.77543 33.752 5.83242C33.752 4.22295 34.7621 2.94259 36.7626 3.05359C38.8949 3.17402 39.3647 4.87561 39.3647 5.83242ZM35.5639 4.79514C35.3736 5.09706 35.3036 5.46113 35.3036 5.82243C35.3036 6.65824 35.7034 7.39304 36.5641 7.39304C37.394 7.39304 37.8042 6.71873 37.8042 5.89457C37.8042 5.31073 37.6642 4.8573 37.3741 4.57537C37.1318 4.34864 36.802 4.24173 36.4737 4.28344C36.0337 4.31175 35.7734 4.46326 35.5639 4.79514Z" fill="#565A67"/>
<path id="Path_4" d="M40.6146 2.69193C40.6146 2.42997 40.635 2.07755 40.8352 1.79562C41.0254 1.53366 41.4555 1.26172 42.1756 1.26172C42.4861 1.26172 42.796 1.31222 43.0965 1.35274V2.51044H42.7259C42.1459 2.51044 42.1161 2.63143 42.126 3.33627H43.156V4.27975H42.1359V8.46825H40.6047V4.28252H39.7842V3.33904H40.6146V2.69193Z" fill="#565A67"/>
<path id="Shape_4" d="M43.9248 1.35156H45.4467V2.54978H43.9248V1.35156ZM43.9248 3.20412H45.4467V8.46985H43.9248V3.20412Z" fill="#565A67"/>
<path id="Path_5" d="M47.0162 1.69531H48.5464V3.33642H49.5566V4.2799H48.5348V6.64582C48.5249 6.96826 48.5249 7.24021 48.9351 7.24021L49.4865 7.21967V8.42844C49.219 8.47754 48.9479 8.50446 48.676 8.50891C48.1455 8.50891 47.5654 8.47839 47.2357 7.99499C47.0256 7.68309 47.0151 7.31069 47.0151 6.80732V4.2749H46.2559V3.32587H47.0162V1.69531Z" fill="#565A67"/>
<path id="Path_6" d="M55.3384 1.36328C55.5485 2.12861 55.7586 2.89339 55.9886 3.65872C56.3789 5.02843 56.449 5.24987 56.669 6.62902C56.8791 5.21935 56.9293 4.97793 57.2491 3.52774C57.399 2.80292 57.5595 2.07811 57.7095 1.36328H59.4602L57.6692 8.47158H55.8496C55.629 7.68627 55.4201 6.90096 55.1879 6.12564C54.808 4.81698 54.7881 4.76647 54.5775 3.76971C54.3977 4.64549 54.3773 4.71597 53.9776 6.07514L53.2971 8.47158H51.4775L49.6865 1.36328H51.4472C52.2076 4.73595 52.2875 5.1089 52.4948 6.649C52.7551 5.23988 52.8257 4.96794 53.1951 3.55826L53.7752 1.36328H55.3384Z" fill="#565A67"/>
<path id="Shape_5" d="M64.6319 7.13157C64.4516 7.40352 64.2713 7.66547 64.0016 7.91688C63.5511 8.33978 62.8707 8.66223 62.0309 8.66223C60.4803 8.66223 59.3896 7.66325 59.3896 5.94279C59.3896 4.67408 60.01 3.04297 62.0706 3.04297C62.381 3.04297 63.2837 3.07294 63.9514 3.79775C64.6319 4.53311 64.6716 5.55984 64.6914 6.15368H60.9606C60.9501 6.80857 61.3201 7.4629 62.1505 7.4629C62.9909 7.4629 63.2809 6.90791 63.4712 6.53663L64.6319 7.13157ZM63.1012 5.18911C63.0708 4.96712 63.0311 4.67575 62.8111 4.44376C62.6073 4.25346 62.3387 4.14899 62.0607 4.15184C61.7645 4.15122 61.4815 4.2754 61.2804 4.49427C61.0703 4.7257 61.0202 4.96767 60.9705 5.18911H63.1012Z" fill="#565A67"/>
<path id="Path_7" d="M67.1217 1.36328V8.47158H65.5811V1.36328H67.1217Z" fill="#565A67"/>
<path id="Path_8" d="M70.0426 1.36328V8.47158H68.502V1.36328H70.0426Z" fill="#565A67"/>
<g id="PAD_logo_-Primary-Logo_-black">
<path id="Shape_6" d="M33.085 15.217V15.0001C33.6405 14.9999 34.0908 14.5514 34.0909 13.9981H34.2923C34.2919 14.2641 34.3978 14.5192 34.5865 14.7075C34.7751 14.8957 35.0312 15.0014 35.2982 15.0015V15.2184C34.7427 15.2186 34.2924 15.6671 34.2923 16.2204H34.0909C34.0912 15.9544 33.9854 15.6992 33.7967 15.511C33.608 15.3228 33.352 15.217 33.085 15.217ZM34.0909 13.6218H35.8212C36.6662 13.6218 37.27 14.223 37.27 15.1049C37.27 15.9868 36.6664 16.5877 35.8212 16.5877H34.0909V19.1127H34.8152V17.2291H35.8212C37.0365 17.2291 37.9943 16.2751 37.9943 15.1049C37.9943 13.9347 37.0365 12.9805 35.8212 12.9805H34.0909V13.6218Z" fill="#565A67"/>
<path id="Shape_7" d="M40.5938 12.9727C41.2295 12.9727 41.7928 13.2932 42.1469 13.7984V13.1009H42.8712V17.109H42.1469V16.4114C41.7839 16.9176 41.2215 17.2372 40.5938 17.2372C39.4024 17.2372 38.3965 16.2993 38.3965 15.105C38.3965 13.9107 39.4024 12.9727 40.5938 12.9727ZM40.5938 16.5958C41.5271 16.5958 42.1469 15.9547 42.1469 15.105C42.1469 14.2472 41.5354 13.614 40.5938 13.614C39.7567 13.614 39.1208 14.2152 39.1208 15.105C39.1208 15.9949 39.7567 16.5958 40.5938 16.5958Z" fill="#565A67"/>
<path id="Shape_8" d="M45.5515 12.9733C46.1875 12.9733 46.7509 13.2939 47.1049 13.7991V11.0977H47.8292V17.1097H47.1049V16.4121C46.7509 16.9183 46.1875 17.2379 45.5515 17.2379C44.3605 17.2379 43.3545 16.3 43.3545 15.1057C43.3545 13.9114 44.3605 12.9733 45.5515 12.9733ZM45.5515 16.5965C46.4931 16.5965 47.1049 15.9633 47.1049 15.1057C47.1049 14.2482 46.4931 13.6147 45.5515 13.6147C44.7147 13.6147 44.0788 14.2159 44.0788 15.1057C44.0788 15.9956 44.7147 16.5965 45.5515 16.5965Z" fill="#565A67"/>
<path id="Shape_9" d="M50.5887 12.9733C51.2244 12.9733 51.7877 13.2939 52.142 13.7991V11.0977H52.8663V17.1097H52.142V16.4121C51.7877 16.9183 51.2244 17.2379 50.5887 17.2379C49.3976 17.2379 48.3916 16.3 48.3916 15.1057C48.3916 13.9114 49.3976 12.9733 50.5887 12.9733ZM50.5887 16.5965C51.5302 16.5965 52.142 15.9633 52.142 15.1057C52.142 14.2482 51.5302 13.6147 50.5887 13.6147C49.7516 13.6147 49.1159 14.2159 49.1159 15.1057C49.1159 15.9956 49.7516 16.5965 50.5887 16.5965Z" fill="#565A67"/>
<path id="Path_9" d="M53.5908 17.1097V11.0977H54.3153V17.1097H53.5908Z" fill="#565A67"/>
<path id="Shape_10" d="M56.9948 12.9805C58.387 12.9805 59.0549 14.0627 59.0549 15.3855H55.5784C55.6909 16.1628 56.2705 16.668 56.9948 16.668C57.4938 16.668 57.88 16.4433 58.1696 16.0025H58.9503C58.6766 16.6198 57.9606 17.2291 56.9948 17.2291C55.7795 17.2291 54.8379 16.259 54.8379 15.1049C54.8379 13.9509 55.7795 12.9805 56.9948 12.9805ZM58.3306 14.8243C58.3306 14.1668 57.7672 13.5416 56.9948 13.5416C56.2705 13.5416 55.6909 14.0477 55.5784 14.8243H58.3306Z" fill="#565A67"/>
</g>
<g id="by">
<path id="Shape_11" d="M23.5752 11.5117H24.2854V13.6748C24.445 13.4665 24.6358 13.3075 24.8576 13.198C25.0795 13.0884 25.3203 13.0336 25.58 13.0336C26.1211 13.0336 26.5601 13.2196 26.897 13.5916C27.2338 13.9636 27.4022 14.5122 27.4022 15.2373C27.4022 15.9245 27.2358 16.4954 26.9031 16.9499C26.5703 17.4045 26.109 17.6317 25.5192 17.6317C25.1891 17.6317 24.9104 17.5519 24.6831 17.3923C24.5479 17.2976 24.4031 17.1461 24.2489 16.9378V17.4938H23.5752V11.5117ZM25.4745 16.9865C25.8695 16.9865 26.1651 16.8295 26.3613 16.5157C26.5574 16.2018 26.6555 15.7879 26.6555 15.2738C26.6555 14.8166 26.5574 14.4378 26.3613 14.1375C26.1651 13.8372 25.8763 13.687 25.4948 13.687C25.162 13.687 24.8705 13.8101 24.6202 14.0563C24.37 14.3025 24.2448 14.7084 24.2448 15.2738C24.2448 15.6824 24.2962 16.0138 24.399 16.2681C24.5911 16.747 24.9496 16.9865 25.4745 16.9865Z" fill="#565A67"/>
<path id="Path_10" d="M30.7622 13.1484H31.5698C31.467 13.4271 31.2384 14.0629 30.884 15.0559C30.6188 15.8026 30.397 16.4114 30.2184 16.8821C29.7963 17.9914 29.4987 18.6678 29.3255 18.9113C29.1524 19.1548 28.8548 19.2766 28.4327 19.2766C28.3299 19.2766 28.2508 19.2725 28.1953 19.2644C28.1398 19.2563 28.0715 19.2414 27.9903 19.2198V18.5542C28.1175 18.5894 28.2095 18.611 28.2663 18.6191C28.3231 18.6272 28.3732 18.6313 28.4165 18.6313C28.5517 18.6313 28.6512 18.609 28.7148 18.5643C28.7783 18.5197 28.8318 18.4649 28.8751 18.4C28.8886 18.3783 28.9373 18.2674 29.0212 18.0672C29.105 17.867 29.1659 17.7182 29.2038 17.6208L27.5967 13.1484H28.4246L29.5893 16.6873L30.7622 13.1484Z" fill="#565A67"/>
</g>
</g>
</g>
</g>
</svg>
