<svg width="128" height="128" viewBox="0 0 128 128" fill="none" xmlns="http://www.w3.org/2000/svg">
<g clip-path="url(#clip0_397_5891)">
<path d="M0 0H128V128H0V0ZM42.6304 105.44C43.456 106.733 44.064 106.88 48.576 106.88C51.8336 106.88 53.824 106.598 54.2336 106.08C54.5856 105.638 56.832 98.2976 59.2256 89.76C61.6256 81.2224 63.8144 74.24 64.0896 74.24C64.608 74.24 65.088 75.7696 70.4 94.4C72.2048 100.736 73.9072 106.15 74.1824 106.426C74.4576 106.707 77.1008 106.848 80.0576 106.746L85.44 106.56L88.1152 98.56C91.1424 89.4976 96.576 68.0704 96.8064 64.2752L96.96 61.76L92.48 61.5936C90.016 61.504 87.6224 61.6768 87.1552 61.9776C86.6944 62.2848 85.6448 65.9584 84.8256 70.144C83.2576 78.1568 80.1472 90.944 79.6544 91.4432C79.1104 91.9872 78.8608 91.2192 74.8736 76.8C72.6848 68.8768 70.5728 62.1888 70.1696 61.9328C68.9152 61.12 59.2128 61.3696 58.1056 62.24C57.504 62.7072 55.5648 68.6144 53.4208 76.48C53.1328 77.5488 52.8576 78.5472 52.6016 79.4816C50.1248 88.6016 49.3184 91.5776 48.7552 91.5328C48.4288 91.5072 48.1856 90.4384 47.744 88.96C47.1616 87.0272 45.6704 80.544 44.4288 74.56C43.1808 68.576 41.9392 63.2448 41.6576 62.72C41.2928 62.0352 39.84 61.7088 36.5632 61.5744C31.0656 61.344 30.7776 61.7152 31.9296 67.4624C34.3808 79.6608 40.864 102.682 42.6304 105.44ZM31.4368 47.1296C31.9104 47.7056 33.6192 48 36.4992 48H40.8384L42.8288 44.4672C45.5808 39.5904 49.056 36.32 53.952 33.984C57.6832 32.1984 58.7072 32 64.1472 32C69.6512 32 70.56 32.1792 74.24 34.0224C79.072 36.4352 82.4704 39.68 85.1712 44.4672L87.1616 48H91.5008C97.1776 48 97.76 47.3472 96.0064 42.8992C92.8704 34.9376 86.7712 28.3904 79.04 24.6784C66.0544 18.4384 51.5648 20.512 40.7424 30.1568C35.2064 35.0848 29.728 45.0752 31.4368 47.1296Z" fill="#0F2D64"/>
<path d="M54.2336 106.08C54.0992 106.253 53.7792 106.4 53.2992 106.522C53.7792 106.4 54.0928 106.253 54.2336 106.08C54.9568 105.158 63.36 75.6544 63.36 74.0352C63.36 72.4096 63.7056 72.5248 64.5376 74.7392C64.3392 74.3296 64.2176 74.24 64.0896 74.24C63.8144 74.24 61.6256 81.2224 59.2256 89.76C56.832 98.2976 54.5856 105.638 54.2336 106.08ZM66.6752 81.4144C67.2576 83.3984 67.936 85.7408 68.7104 88.48C68.8512 88.9664 68.9856 89.4464 69.12 89.92C68.096 86.3296 67.296 83.5584 66.6752 81.4144ZM78.8288 106.778C79.1424 106.765 79.4752 106.758 79.8272 106.746L85.44 106.56L80.0576 106.746C79.6416 106.765 79.2256 106.771 78.8288 106.778ZM74.0928 106.272C74.1952 106.381 74.3168 106.477 74.4768 106.547C74.3232 106.515 74.2208 106.47 74.1824 106.426C74.1568 106.406 74.1312 106.355 74.0928 106.272Z" fill="#A1B0C4"/>
<path d="M31.4368 47.1296C29.728 45.0752 35.2064 35.0848 40.7424 30.1568C51.5648 20.512 66.0544 18.4384 79.04 24.6784C86.7712 28.3904 92.8704 34.9376 96.0064 42.8992C97.76 47.3472 97.1776 48 91.5008 48H87.1616L85.1712 44.4672C82.4704 39.68 79.072 36.4352 74.24 34.0224C70.56 32.1792 69.6512 32 64.1472 32C58.7072 32 57.6832 32.1984 53.952 33.984C49.056 36.32 45.5808 39.5904 42.8288 44.4672L40.8384 48H36.4992C33.6192 48 31.9104 47.7056 31.4368 47.1296Z" fill="#EC5C12"/>
<path d="M42.6304 105.44C40.864 102.682 34.3808 79.6608 31.9296 67.4624C30.7776 61.7152 31.0656 61.344 36.5632 61.5744C39.84 61.7088 41.2928 62.0352 41.6576 62.72C41.9392 63.2448 43.1808 68.576 44.4288 74.56C45.6704 80.544 47.1616 87.0272 47.744 88.96C49.0176 93.216 48.6272 94.0736 53.4208 76.48C55.5648 68.6144 57.504 62.7072 58.1056 62.24C59.2128 61.3696 68.9152 61.12 70.1696 61.9328C70.5728 62.1888 72.6848 68.8768 74.8736 76.8C78.8608 91.2192 79.1104 91.9872 79.6544 91.4432C80.1472 90.944 83.2576 78.1568 84.8256 70.144C85.6448 65.9584 86.6944 62.2848 87.1552 61.9776C87.6224 61.6768 90.016 61.504 92.48 61.5936L96.96 61.76L96.8064 64.2752C96.576 68.0704 91.1424 89.4976 88.1152 98.56L85.44 106.56L79.8272 106.746C74.4896 106.918 74.1888 106.861 73.664 105.466C73.3568 104.659 71.1296 97.0176 68.7104 88.48C64.7744 74.5728 63.36 70.752 63.36 74.0352C63.36 75.6544 54.9568 105.158 54.2336 106.08C53.824 106.598 51.8336 106.88 48.576 106.88C44.064 106.88 43.456 106.733 42.6304 105.44Z" fill="#F9FCFC"/>
</g>
<defs>
<clipPath id="clip0_397_5891">
<rect width="128" height="128" fill="white"/>
</clipPath>
</defs>
</svg>
