<svg width="128" height="128" viewBox="0 0 128 128" fill="none" xmlns="http://www.w3.org/2000/svg">
<g clip-path="url(#clip0_0_541)">
<path d="M30.0308 53.1692C36.2667 53.1692 39.1385 54.3179 43.6513 58.8308L67.6923 82.8718C68.4308 83.6102 68.5128 83.8564 68.6769 84.2667C68.759 84.4308 68.759 84.5949 68.759 84.759C68.759 84.9231 68.759 85.0872 68.6769 85.2513C68.5128 85.6615 68.4308 85.9897 67.6923 86.6461L51.282 103.22C50.5436 103.959 50.2974 104.041 49.8872 104.205C49.7231 104.287 49.559 104.287 49.3949 104.287C49.2308 104.287 49.0667 104.287 48.9026 104.205C48.4923 104.041 48.1641 103.959 47.5077 103.22L0.738451 56.6154C-0.57437 55.3026 -0.0820624 53.1692 2.13332 53.1692H30.0308Z" fill="#08CF65"/>
<path d="M97.9692 23.7128C91.7333 23.7128 88.8615 24.9436 84.3487 29.3744L60.3077 53.4974C59.5692 54.2359 59.4872 54.482 59.3231 54.8923C59.241 55.0564 59.241 55.2205 59.241 55.3846C59.241 55.5487 59.241 55.7128 59.3231 55.8769C59.4872 56.2872 59.5692 56.6154 60.3077 57.2718L76.8 73.682C77.5385 74.4205 77.7846 74.5026 78.1949 74.6667C78.359 74.7487 78.5231 74.7487 78.6872 74.7487C78.8513 74.7487 79.0154 74.7487 79.1795 74.6667C79.5897 74.5026 79.918 74.4205 80.5744 73.682L127.262 27.0769C128.574 25.7641 128.082 23.6308 125.867 23.6308H97.9692V23.7128Z" fill="#08CF65"/>
</g>
<defs>
<clipPath id="clip0_0_541">
<rect width="128" height="80.5744" fill="white" transform="translate(0 23.7128)"/>
</clipPath>
</defs>
</svg>
