<?xml version="1.0" encoding="UTF-8" standalone="no"?>
<!DOCTYPE svg PUBLIC "-//W3C//DTD SVG 1.1//EN" "http://www.w3.org/Graphics/SVG/1.1/DTD/svg11.dtd">
<svg xmlns="http://www.w3.org/2000/svg" version="1.1" viewBox="0.00 0.00 180.00 180.00">
<g stroke-width="2.00" fill="none" stroke-linecap="butt">
<path stroke="#808080" vector-effect="non-scaling-stroke" d="
  M 151.51 90.00
  A 61.51 61.51 0.0 0 0 90.00 28.49
  A 61.51 61.51 0.0 0 0 28.49 90.00
  A 61.51 61.51 0.0 0 0 90.00 151.51
  A 61.51 61.51 0.0 0 0 151.51 90.00"
/>
<path stroke="#808080" vector-effect="non-scaling-stroke" d="
  M 41.02 78.05
  Q 36.19 102.74 50.45 121.02
  C 70.63 146.87 110.15 146.59 129.94 120.47
  C 147.74 96.98 141.89 63.43 116.93 47.58
  C 91.84 31.65 58.73 40.78 45.12 67.32
  C 43.11 71.24 42.42 74.08 40.68 79.44
  A 0.04 0.04 0.0 0 1 40.60 79.43
  Q 40.49 78.61 40.82 77.98
  A 0.11 0.11 0.0 0 1 41.02 78.05"
/>
<path stroke="#808080" vector-effect="non-scaling-stroke" d="
  M 98.71 90.00
  A 8.71 8.71 0.0 0 0 90.00 81.29
  A 8.71 8.71 0.0 0 0 81.29 90.00
  A 8.71 8.71 0.0 0 0 90.00 98.71
  A 8.71 8.71 0.0 0 0 98.71 90.00"
/>
</g>
<path fill="#ffffff" d="
  M 180.00 0.00
  L 180.00 180.00
  L 0.00 180.00
  L 0.00 0.00
  L 180.00 0.00
  Z
  M 151.51 90.00
  A 61.51 61.51 0.0 0 0 90.00 28.49
  A 61.51 61.51 0.0 0 0 28.49 90.00
  A 61.51 61.51 0.0 0 0 90.00 151.51
  A 61.51 61.51 0.0 0 0 151.51 90.00
  Z"
/>
<path fill="#000000" d="
  M 151.51 90.00
  A 61.51 61.51 0.0 0 1 90.00 151.51
  A 61.51 61.51 0.0 0 1 28.49 90.00
  A 61.51 61.51 0.0 0 1 90.00 28.49
  A 61.51 61.51 0.0 0 1 151.51 90.00
  Z
  M 41.02 78.05
  Q 36.19 102.74 50.45 121.02
  C 70.63 146.87 110.15 146.59 129.94 120.47
  C 147.74 96.98 141.89 63.43 116.93 47.58
  C 91.84 31.65 58.73 40.78 45.12 67.32
  C 43.11 71.24 42.42 74.08 40.68 79.44
  A 0.04 0.04 0.0 0 1 40.60 79.43
  Q 40.49 78.61 40.82 77.98
  A 0.11 0.11 0.0 0 1 41.02 78.05
  Z"
/>
<path fill="#ffffff" d="
  M 40.82 77.98
  Q 40.49 78.61 40.60 79.43
  A 0.04 0.04 0.0 0 0 40.68 79.44
  C 42.42 74.08 43.11 71.24 45.12 67.32
  C 58.73 40.78 91.84 31.65 116.93 47.58
  C 141.89 63.43 147.74 96.98 129.94 120.47
  C 110.15 146.59 70.63 146.87 50.45 121.02
  Q 36.19 102.74 41.02 78.05
  A 0.11 0.11 0.0 0 0 40.82 77.98
  Z
  M 98.71 90.00
  A 8.71 8.71 0.0 0 0 90.00 81.29
  A 8.71 8.71 0.0 0 0 81.29 90.00
  A 8.71 8.71 0.0 0 0 90.00 98.71
  A 8.71 8.71 0.0 0 0 98.71 90.00
  Z"
/>
<circle fill="#000000" cx="90.00" cy="90.00" r="8.71"/>
</svg>
