<?xml version="1.0" encoding="UTF-8" standalone="no"?>
<!DOCTYPE svg PUBLIC "-//W3C//DTD SVG 1.1//EN" "http://www.w3.org/Graphics/SVG/1.1/DTD/svg11.dtd">
<svg xmlns="http://www.w3.org/2000/svg" version="1.1" viewBox="0.00 0.00 400.00 400.00">
<g stroke-width="2.00" fill="none" stroke-linecap="butt">
<path stroke="#fcaa8e" vector-effect="non-scaling-stroke" d="
  M 293.80 186.19
  L 293.80 225.16
  A 0.84 0.84 0.0 0 0 294.64 226.00
  L 309.55 226.00
  A 0.69 0.68 0.0 0 0 310.24 225.32
  L 310.24 186.31
  A 0.89 0.89 0.0 0 1 311.13 185.42
  L 321.79 185.42
  A 0.86 0.86 0.0 0 0 322.65 184.56
  L 322.65 174.75
  A 0.95 0.95 0.0 0 0 321.70 173.80
  L 310.70 173.80
  A 0.87 0.86 -1.0 0 1 309.83 172.97
  C 309.39 163.56 318.74 164.53 324.78 166.34
  A 0.99 0.99 0.0 0 0 326.06 165.39
  L 326.06 154.92
  A 0.77 0.76 4.4 0 0 325.41 154.17
  C 317.52 153.02 306.67 152.27 300.43 156.74
  C 294.99 160.64 293.93 166.62 293.67 173.02
  A 0.83 0.82 1.1 0 1 292.84 173.81
  L 288.18 173.81
  A 0.87 0.86 -90.0 0 0 287.32 174.68
  L 287.32 184.23
  A 1.26 1.26 0.0 0 0 288.58 185.49
  L 293.10 185.49
  A 0.70 0.70 0.0 0 1 293.80 186.19"
/>
<path stroke="#95a6b4" vector-effect="non-scaling-stroke" d="
  M 97.20 225.65
  Q 97.10 225.18 96.87 224.89
  Q 82.24 205.79 69.38 189.13
  A 0.50 0.50 0.0 0 1 69.39 188.51
  L 96.12 154.40
  A 0.53 0.53 0.0 0 0 95.71 153.54
  L 72.93 153.54
  A 1.77 1.75 -71.5 0 0 71.52 154.25
  L 56.17 174.75
  A 0.09 0.09 0.0 0 1 56.03 174.75
  L 40.29 154.14
  A 1.54 1.50 70.8 0 0 39.09 153.54
  L 15.13 153.54
  A 0.29 0.29 0.0 0 0 14.90 154.01
  L 41.73 189.14
  A 0.54 0.53 45.6 0 1 41.73 189.79
  Q 34.15 199.38 14.10 224.97
  Q 13.76 225.41 14.15 225.81
  C 14.43 226.10 27.60 225.93 37.14 225.96
  A 1.91 1.88 -70.9 0 0 38.67 225.20
  L 54.83 203.61
  A 0.26 0.26 0.0 0 1 55.25 203.61
  L 71.89 225.39
  A 1.44 1.43 -18.6 0 0 73.03 225.95
  L 96.95 225.95
  A 0.25 0.24 -6.3 0 0 97.20 225.65"
/>
<path stroke="#fcaa8e" vector-effect="non-scaling-stroke" d="
  M 278.5896 154.8553
  A 1.03 1.03 0.0 0 0 277.5614 153.8235
  L 262.1014 153.7965
  A 1.03 1.03 0.0 0 0 261.0696 154.8247
  L 261.0504 165.8047
  A 1.03 1.03 0.0 0 0 262.0786 166.8365
  L 277.5386 166.8635
  A 1.03 1.03 0.0 0 0 278.5704 165.8353
  L 278.5896 154.8553"
/>
<path stroke="#fcaa8e" vector-effect="non-scaling-stroke" d="
  M 173.26 203.16
  L 207.09 203.16
  A 0.75 0.74 -88.8 0 0 207.83 202.44
  C 208.23 189.64 206.19 176.28 191.51 172.98
  C 184.61 171.43 175.54 171.88 169.15 175.26
  Q 158.48 180.91 156.26 194.03
  C 155.05 201.19 155.85 210.44 160.26 216.42
  C 167.20 225.84 178.28 227.87 189.24 227.30
  Q 198.08 226.84 205.95 223.43
  A 1.55 1.54 -11.5 0 0 206.89 222.01
  L 206.89 210.20
  A 1.00 1.00 0.0 0 0 205.39 209.33
  Q 200.59 212.04 199.03 212.76
  C 189.87 216.98 174.12 217.24 172.47 204.06
  A 0.80 0.79 -3.8 0 1 173.26 203.16"
/>
<path stroke="#fcaa8e" vector-effect="non-scaling-stroke" d="
  M 123.82 226.02
  Q 130.74 226.02 132.05 225.88
  A 1.31 1.30 6.4 0 0 133.14 225.02
  L 151.23 174.68
  A 0.64 0.64 0.0 0 0 150.62 173.83
  L 134.90 173.83
  A 0.92 0.91 8.0 0 0 134.02 174.49
  Q 131.29 183.68 124.15 206.58
  Q 124.07 206.83 123.84 206.83
  Q 123.61 206.83 123.53 206.58
  Q 116.44 183.67 113.72 174.47
  A 0.92 0.91 -7.9 0 0 112.84 173.81
  L 97.12 173.78
  A 0.64 0.64 0.0 0 0 96.51 174.62
  L 114.50 225.00
  A 1.31 1.30 -6.3 0 0 115.59 225.86
  Q 116.90 226.01 123.82 226.02"
/>
<path stroke="#fcaa8e" vector-effect="non-scaling-stroke" d="
  M 234.74 180.09
  L 234.74 174.91
  A 1.11 1.10 -90.0 0 0 233.64 173.80
  L 218.77 173.80
  A 0.60 0.60 0.0 0 0 218.17 174.40
  L 218.17 225.17
  A 0.85 0.84 -0.0 0 0 219.02 226.01
  L 233.67 226.01
  A 1.05 1.05 0.0 0 0 234.72 224.96
  L 234.72 192.01
  A 1.09 1.08 78.6 0 1 235.38 191.01
  Q 243.43 187.70 252.18 189.48
  A 0.98 0.98 0.0 0 0 253.36 188.52
  L 253.36 174.61
  A 0.92 0.91 4.0 0 0 252.57 173.71
  C 245.85 172.78 240.27 176.16 235.27 180.34
  A 0.32 0.32 0.0 0 1 234.74 180.09"
/>
<path stroke="#fcaa8e" vector-effect="non-scaling-stroke" d="
  M 278.10 174.52
  A 0.72 0.72 0.0 0 0 277.38 173.80
  L 262.28 173.80
  A 0.72 0.72 0.0 0 0 261.56 174.52
  L 261.56 225.30
  A 0.72 0.72 0.0 0 0 262.28 226.02
  L 277.38 226.02
  A 0.72 0.72 0.0 0 0 278.10 225.30
  L 278.10 174.52"
/>
<path stroke="#fcaa8e" vector-effect="non-scaling-stroke" d="
  M 357.94 204.78
  A 0.40 0.40 0.0 0 1 357.17 204.79
  L 347.19 174.94
  A 1.68 1.67 -9.2 0 0 345.60 173.80
  L 330.42 173.80
  A 0.70 0.70 0.0 0 0 329.76 174.75
  Q 337.91 196.57 346.70 219.66
  C 347.29 221.22 348.72 224.17 348.12 225.65
  Q 342.38 239.84 341.00 244.11
  A 0.77 0.77 0.0 0 0 341.73 245.11
  L 356.73 245.11
  A 2.24 2.24 0.0 0 0 358.83 243.65
  L 384.40 174.59
  A 0.58 0.58 0.0 0 0 383.86 173.81
  L 368.37 173.81
  A 1.02 1.01 -81.5 0 0 367.40 174.53
  L 357.94 204.78"
/>
<path stroke="#fcaa8e" vector-effect="non-scaling-stroke" d="
  M 173.05 193.02
  L 191.19 193.02
  A 0.45 0.45 0.0 0 0 191.64 192.57
  L 191.64 192.17
  A 9.21 9.12 90.0 0 0 182.52 182.96
  L 181.72 182.96
  A 9.21 9.12 -90.0 0 0 172.60 192.17
  L 172.60 192.57
  A 0.45 0.45 0.0 0 0 173.05 193.02"
/>
</g>
<path fill="#ffffff" d="
  M 400.00 0.00
  L 400.00 400.00
  L 0.00 400.00
  L 0.00 0.00
  L 400.00 0.00
  Z
  M 293.80 186.19
  L 293.80 225.16
  A 0.84 0.84 0.0 0 0 294.64 226.00
  L 309.55 226.00
  A 0.69 0.68 0.0 0 0 310.24 225.32
  L 310.24 186.31
  A 0.89 0.89 0.0 0 1 311.13 185.42
  L 321.79 185.42
  A 0.86 0.86 0.0 0 0 322.65 184.56
  L 322.65 174.75
  A 0.95 0.95 0.0 0 0 321.70 173.80
  L 310.70 173.80
  A 0.87 0.86 -1.0 0 1 309.83 172.97
  C 309.39 163.56 318.74 164.53 324.78 166.34
  A 0.99 0.99 0.0 0 0 326.06 165.39
  L 326.06 154.92
  A 0.77 0.76 4.4 0 0 325.41 154.17
  C 317.52 153.02 306.67 152.27 300.43 156.74
  C 294.99 160.64 293.93 166.62 293.67 173.02
  A 0.83 0.82 1.1 0 1 292.84 173.81
  L 288.18 173.81
  A 0.87 0.86 -90.0 0 0 287.32 174.68
  L 287.32 184.23
  A 1.26 1.26 0.0 0 0 288.58 185.49
  L 293.10 185.49
  A 0.70 0.70 0.0 0 1 293.80 186.19
  Z
  M 97.20 225.65
  Q 97.10 225.18 96.87 224.89
  Q 82.24 205.79 69.38 189.13
  A 0.50 0.50 0.0 0 1 69.39 188.51
  L 96.12 154.40
  A 0.53 0.53 0.0 0 0 95.71 153.54
  L 72.93 153.54
  A 1.77 1.75 -71.5 0 0 71.52 154.25
  L 56.17 174.75
  A 0.09 0.09 0.0 0 1 56.03 174.75
  L 40.29 154.14
  A 1.54 1.50 70.8 0 0 39.09 153.54
  L 15.13 153.54
  A 0.29 0.29 0.0 0 0 14.90 154.01
  L 41.73 189.14
  A 0.54 0.53 45.6 0 1 41.73 189.79
  Q 34.15 199.38 14.10 224.97
  Q 13.76 225.41 14.15 225.81
  C 14.43 226.10 27.60 225.93 37.14 225.96
  A 1.91 1.88 -70.9 0 0 38.67 225.20
  L 54.83 203.61
  A 0.26 0.26 0.0 0 1 55.25 203.61
  L 71.89 225.39
  A 1.44 1.43 -18.6 0 0 73.03 225.95
  L 96.95 225.95
  A 0.25 0.24 -6.3 0 0 97.20 225.65
  Z
  M 278.5896 154.8553
  A 1.03 1.03 0.0 0 0 277.5614 153.8235
  L 262.1014 153.7965
  A 1.03 1.03 0.0 0 0 261.0696 154.8247
  L 261.0504 165.8047
  A 1.03 1.03 0.0 0 0 262.0786 166.8365
  L 277.5386 166.8635
  A 1.03 1.03 0.0 0 0 278.5704 165.8353
  L 278.5896 154.8553
  Z
  M 173.26 203.16
  L 207.09 203.16
  A 0.75 0.74 -88.8 0 0 207.83 202.44
  C 208.23 189.64 206.19 176.28 191.51 172.98
  C 184.61 171.43 175.54 171.88 169.15 175.26
  Q 158.48 180.91 156.26 194.03
  C 155.05 201.19 155.85 210.44 160.26 216.42
  C 167.20 225.84 178.28 227.87 189.24 227.30
  Q 198.08 226.84 205.95 223.43
  A 1.55 1.54 -11.5 0 0 206.89 222.01
  L 206.89 210.20
  A 1.00 1.00 0.0 0 0 205.39 209.33
  Q 200.59 212.04 199.03 212.76
  C 189.87 216.98 174.12 217.24 172.47 204.06
  A 0.80 0.79 -3.8 0 1 173.26 203.16
  Z
  M 123.82 226.02
  Q 130.74 226.02 132.05 225.88
  A 1.31 1.30 6.4 0 0 133.14 225.02
  L 151.23 174.68
  A 0.64 0.64 0.0 0 0 150.62 173.83
  L 134.90 173.83
  A 0.92 0.91 8.0 0 0 134.02 174.49
  Q 131.29 183.68 124.15 206.58
  Q 124.07 206.83 123.84 206.83
  Q 123.61 206.83 123.53 206.58
  Q 116.44 183.67 113.72 174.47
  A 0.92 0.91 -7.9 0 0 112.84 173.81
  L 97.12 173.78
  A 0.64 0.64 0.0 0 0 96.51 174.62
  L 114.50 225.00
  A 1.31 1.30 -6.3 0 0 115.59 225.86
  Q 116.90 226.01 123.82 226.02
  Z
  M 234.74 180.09
  L 234.74 174.91
  A 1.11 1.10 -90.0 0 0 233.64 173.80
  L 218.77 173.80
  A 0.60 0.60 0.0 0 0 218.17 174.40
  L 218.17 225.17
  A 0.85 0.84 -0.0 0 0 219.02 226.01
  L 233.67 226.01
  A 1.05 1.05 0.0 0 0 234.72 224.96
  L 234.72 192.01
  A 1.09 1.08 78.6 0 1 235.38 191.01
  Q 243.43 187.70 252.18 189.48
  A 0.98 0.98 0.0 0 0 253.36 188.52
  L 253.36 174.61
  A 0.92 0.91 4.0 0 0 252.57 173.71
  C 245.85 172.78 240.27 176.16 235.27 180.34
  A 0.32 0.32 0.0 0 1 234.74 180.09
  Z
  M 278.10 174.52
  A 0.72 0.72 0.0 0 0 277.38 173.80
  L 262.28 173.80
  A 0.72 0.72 0.0 0 0 261.56 174.52
  L 261.56 225.30
  A 0.72 0.72 0.0 0 0 262.28 226.02
  L 277.38 226.02
  A 0.72 0.72 0.0 0 0 278.10 225.30
  L 278.10 174.52
  Z
  M 357.94 204.78
  A 0.40 0.40 0.0 0 1 357.17 204.79
  L 347.19 174.94
  A 1.68 1.67 -9.2 0 0 345.60 173.80
  L 330.42 173.80
  A 0.70 0.70 0.0 0 0 329.76 174.75
  Q 337.91 196.57 346.70 219.66
  C 347.29 221.22 348.72 224.17 348.12 225.65
  Q 342.38 239.84 341.00 244.11
  A 0.77 0.77 0.0 0 0 341.73 245.11
  L 356.73 245.11
  A 2.24 2.24 0.0 0 0 358.83 243.65
  L 384.40 174.59
  A 0.58 0.58 0.0 0 0 383.86 173.81
  L 368.37 173.81
  A 1.02 1.01 -81.5 0 0 367.40 174.53
  L 357.94 204.78
  Z"
/>
<path fill="#f8551c" d="
  M 293.10 185.49
  L 288.58 185.49
  A 1.26 1.26 0.0 0 1 287.32 184.23
  L 287.32 174.68
  A 0.87 0.86 90.0 0 1 288.18 173.81
  L 292.84 173.81
  A 0.83 0.82 1.1 0 0 293.67 173.02
  C 293.93 166.62 294.99 160.64 300.43 156.74
  C 306.67 152.27 317.52 153.02 325.41 154.17
  A 0.77 0.76 4.4 0 1 326.06 154.92
  L 326.06 165.39
  A 0.99 0.99 0.0 0 1 324.78 166.34
  C 318.74 164.53 309.39 163.56 309.83 172.97
  A 0.87 0.86 -1.0 0 0 310.70 173.80
  L 321.70 173.80
  A 0.95 0.95 0.0 0 1 322.65 174.75
  L 322.65 184.56
  A 0.86 0.86 0.0 0 1 321.79 185.42
  L 311.13 185.42
  A 0.89 0.89 0.0 0 0 310.24 186.31
  L 310.24 225.32
  A 0.69 0.68 0.0 0 1 309.55 226.00
  L 294.64 226.00
  A 0.84 0.84 0.0 0 1 293.80 225.16
  L 293.80 186.19
  A 0.70 0.70 0.0 0 0 293.10 185.49
  Z"
/>
<path fill="#2b4c68" d="
  M 97.20 225.65
  A 0.25 0.24 -6.3 0 1 96.95 225.95
  L 73.03 225.95
  A 1.44 1.43 -18.6 0 1 71.89 225.39
  L 55.25 203.61
  A 0.26 0.26 0.0 0 0 54.83 203.61
  L 38.67 225.20
  A 1.91 1.88 -70.9 0 1 37.14 225.96
  C 27.60 225.93 14.43 226.10 14.15 225.81
  Q 13.76 225.41 14.10 224.97
  Q 34.15 199.38 41.73 189.79
  A 0.54 0.53 45.6 0 0 41.73 189.14
  L 14.90 154.01
  A 0.29 0.29 0.0 0 1 15.13 153.54
  L 39.09 153.54
  A 1.54 1.50 70.8 0 1 40.29 154.14
  L 56.03 174.75
  A 0.09 0.09 0.0 0 0 56.17 174.75
  L 71.52 154.25
  A 1.77 1.75 -71.5 0 1 72.93 153.54
  L 95.71 153.54
  A 0.53 0.53 0.0 0 1 96.12 154.40
  L 69.39 188.51
  A 0.50 0.50 0.0 0 0 69.38 189.13
  Q 82.24 205.79 96.87 224.89
  Q 97.10 225.18 97.20 225.65
  Z"
/>
<rect fill="#f8551c" x="-8.76" y="-6.52" transform="translate(269.82,160.33) rotate(0.1)" width="17.52" height="13.04" rx="1.03"/>
<path fill="#f8551c" d="
  M 173.26 203.16
  A 0.80 0.79 -3.8 0 0 172.47 204.06
  C 174.12 217.24 189.87 216.98 199.03 212.76
  Q 200.59 212.04 205.39 209.33
  A 1.00 1.00 0.0 0 1 206.89 210.20
  L 206.89 222.01
  A 1.55 1.54 -11.5 0 1 205.95 223.43
  Q 198.08 226.84 189.24 227.30
  C 178.28 227.87 167.20 225.84 160.26 216.42
  C 155.85 210.44 155.05 201.19 156.26 194.03
  Q 158.48 180.91 169.15 175.26
  C 175.54 171.88 184.61 171.43 191.51 172.98
  C 206.19 176.28 208.23 189.64 207.83 202.44
  A 0.75 0.74 -88.8 0 1 207.09 203.16
  L 173.26 203.16
  Z
  M 173.05 193.02
  L 191.19 193.02
  A 0.45 0.45 0.0 0 0 191.64 192.57
  L 191.64 192.17
  A 9.21 9.12 90.0 0 0 182.52 182.96
  L 181.72 182.96
  A 9.21 9.12 -90.0 0 0 172.60 192.17
  L 172.60 192.57
  A 0.45 0.45 0.0 0 0 173.05 193.02
  Z"
/>
<path fill="#f8551c" d="
  M 123.84 206.83
  Q 124.07 206.83 124.15 206.58
  Q 131.29 183.68 134.02 174.49
  A 0.92 0.91 8.0 0 1 134.90 173.83
  L 150.62 173.83
  A 0.64 0.64 0.0 0 1 151.23 174.68
  L 133.14 225.02
  A 1.31 1.30 6.4 0 1 132.05 225.88
  Q 130.74 226.02 123.82 226.02
  Q 116.90 226.01 115.59 225.86
  A 1.31 1.30 -6.3 0 1 114.50 225.00
  L 96.51 174.62
  A 0.64 0.64 0.0 0 1 97.12 173.78
  L 112.84 173.81
  A 0.92 0.91 -7.9 0 1 113.72 174.47
  Q 116.44 183.67 123.53 206.58
  Q 123.61 206.83 123.84 206.83
  Z"
/>
<path fill="#f8551c" d="
  M 234.74 180.09
  A 0.32 0.32 0.0 0 0 235.27 180.34
  C 240.27 176.16 245.85 172.78 252.57 173.71
  A 0.92 0.91 4.0 0 1 253.36 174.61
  L 253.36 188.52
  A 0.98 0.98 0.0 0 1 252.18 189.48
  Q 243.43 187.70 235.38 191.01
  A 1.09 1.08 78.6 0 0 234.72 192.01
  L 234.72 224.96
  A 1.05 1.05 0.0 0 1 233.67 226.01
  L 219.02 226.01
  A 0.85 0.84 -0.0 0 1 218.17 225.17
  L 218.17 174.40
  A 0.60 0.60 0.0 0 1 218.77 173.80
  L 233.64 173.80
  A 1.11 1.10 -90.0 0 1 234.74 174.91
  L 234.74 180.09
  Z"
/>
<rect fill="#f8551c" x="261.56" y="173.80" width="16.54" height="52.22" rx="0.72"/>
<path fill="#f8551c" d="
  M 357.94 204.78
  L 367.40 174.53
  A 1.02 1.01 -81.5 0 1 368.37 173.81
  L 383.86 173.81
  A 0.58 0.58 0.0 0 1 384.40 174.59
  L 358.83 243.65
  A 2.24 2.24 0.0 0 1 356.73 245.11
  L 341.73 245.11
  A 0.77 0.77 0.0 0 1 341.00 244.11
  Q 342.38 239.84 348.12 225.65
  C 348.72 224.17 347.29 221.22 346.70 219.66
  Q 337.91 196.57 329.76 174.75
  A 0.70 0.70 0.0 0 1 330.42 173.80
  L 345.60 173.80
  A 1.68 1.67 -9.2 0 1 347.19 174.94
  L 357.17 204.79
  A 0.40 0.40 0.0 0 0 357.94 204.78
  Z"
/>
<path fill="#ffffff" d="
  M 173.05 193.02
  A 0.45 0.45 0.0 0 1 172.60 192.57
  L 172.60 192.17
  A 9.21 9.12 90.0 0 1 181.72 182.96
  L 182.52 182.96
  A 9.21 9.12 90.0 0 1 191.64 192.17
  L 191.64 192.57
  A 0.45 0.45 0.0 0 1 191.19 193.02
  L 173.05 193.02
  Z"
/>
</svg>
