<?xml version="1.0" encoding="UTF-8" standalone="no"?>
<!DOCTYPE svg PUBLIC "-//W3C//DTD SVG 1.1//EN" "http://www.w3.org/Graphics/SVG/1.1/DTD/svg11.dtd">
<svg xmlns="http://www.w3.org/2000/svg" version="1.1" viewBox="0.00 0.00 76.00 76.00">
<g stroke-width="2.00" fill="none" stroke-linecap="butt">
<path stroke="#fcb0a5" vector-effect="non-scaling-stroke" d="
  M 27.41 16.70
  A 0.34 0.34 0.0 0 0 27.10 16.50
  L 19.63 16.50
  A 0.34 0.34 0.0 0 0 19.32 16.98
  L 33.96 48.79
  A 0.34 0.34 0.0 0 1 33.99 48.93
  L 33.99 61.79
  A 0.34 0.34 0.0 0 0 34.33 62.13
  L 41.58 62.13
  A 0.34 0.34 0.0 0 0 41.92 61.79
  L 41.92 48.30
  A 0.34 0.34 0.0 0 0 41.89 48.16
  L 27.41 16.70"
/>
<path stroke="#fcb0a5" vector-effect="non-scaling-stroke" d="
  M 49.03 16.49
  A 0.33 0.33 0.0 0 0 48.72 16.69
  L 39.32 38.02
  A 0.33 0.33 0.0 0 0 39.63 38.48
  L 46.97 38.48
  A 0.33 0.33 0.0 0 0 47.28 38.28
  L 56.68 16.95
  A 0.33 0.33 0.0 0 0 56.37 16.49
  L 49.03 16.49"
/>
</g>
<path fill="#f8604a" d="
  M 76.00 0.00
  L 76.00 76.00
  L 0.00 76.00
  L 0.00 0.00
  L 76.00 0.00
  Z
  M 27.41 16.70
  A 0.34 0.34 0.0 0 0 27.10 16.50
  L 19.63 16.50
  A 0.34 0.34 0.0 0 0 19.32 16.98
  L 33.96 48.79
  A 0.34 0.34 0.0 0 1 33.99 48.93
  L 33.99 61.79
  A 0.34 0.34 0.0 0 0 34.33 62.13
  L 41.58 62.13
  A 0.34 0.34 0.0 0 0 41.92 61.79
  L 41.92 48.30
  A 0.34 0.34 0.0 0 0 41.89 48.16
  L 27.41 16.70
  Z
  M 49.03 16.49
  A 0.33 0.33 0.0 0 0 48.72 16.69
  L 39.32 38.02
  A 0.33 0.33 0.0 0 0 39.63 38.48
  L 46.97 38.48
  A 0.33 0.33 0.0 0 0 47.28 38.28
  L 56.68 16.95
  A 0.33 0.33 0.0 0 0 56.37 16.49
  L 49.03 16.49
  Z"
/>
<path fill="#ffffff" d="
  M 27.41 16.70
  L 41.89 48.16
  A 0.34 0.34 0.0 0 1 41.92 48.30
  L 41.92 61.79
  A 0.34 0.34 0.0 0 1 41.58 62.13
  L 34.33 62.13
  A 0.34 0.34 0.0 0 1 33.99 61.79
  L 33.99 48.93
  A 0.34 0.34 0.0 0 0 33.96 48.79
  L 19.32 16.98
  A 0.34 0.34 0.0 0 1 19.63 16.50
  L 27.10 16.50
  A 0.34 0.34 0.0 0 1 27.41 16.70
  Z"
/>
<path fill="#ffffff" d="
  M 49.03 16.49
  L 56.37 16.49
  A 0.33 0.33 0.0 0 1 56.68 16.95
  L 47.28 38.28
  A 0.33 0.33 0.0 0 1 46.97 38.48
  L 39.63 38.48
  A 0.33 0.33 0.0 0 1 39.32 38.02
  L 48.72 16.69
  A 0.33 0.33 0.0 0 1 49.03 16.49
  Z"
/>
</svg>
