<svg width="255" height="62" viewBox="0 0 255 62" fill="none" xmlns="http://www.w3.org/2000/svg">
<path d="M234.282 51.2046C234.282 45.6335 238.775 41.1402 244.346 41.1402C249.917 41.1402 254.411 45.6335 254.411 51.2046C254.411 56.7757 249.917 61.269 244.346 61.269C238.775 61.269 234.282 56.7757 234.282 51.2046Z" fill="#545BFE"/>
<path d="M40.025 38.9821V60.9971H21.5128V38.9821L0.216309 0.16394H21.423L31.1281 18.7634C34.3615 12.7432 37.5974 6.00449 40.6511 0.16394H60.9596L40.0224 38.9821H40.025Z" fill="#1C1F58"/>
<path d="M97.9094 60.997L80.5674 32.6026V60.997H63.0457V0.163929H78.8609L96.2055 28.1093V0.163929H113.637V60.997H97.9119H97.9094Z" fill="#1C1F58"/>
<path d="M157.667 50.2141H139.786L136.191 60.997H116.424L138.709 0.163929H160.005L181.751 60.997H161.175L157.67 50.2141H157.667ZM148.77 22.3586L144.097 36.2876H153.443L148.77 22.3586Z" fill="#1C1F58"/>
<path d="M209.254 60.997H184.452V0.163929H207.994C221.92 0.163929 230.009 6.09429 230.009 16.8772C230.009 22.2687 227.222 26.6722 222.641 29.9979C227.404 32.6924 230.368 38.0864 230.368 43.5677C230.368 54.7998 222.462 60.9996 209.254 60.9996V60.997ZM206.649 14.3599H202.156V24.2447H206.919C209.254 24.2447 211.319 22.356 211.319 19.0328C211.319 16.4282 209.613 14.3599 206.649 14.3599ZM206.29 36.7341H202.156V46.8883H206.02C209.885 46.8883 211.951 45.0022 211.951 41.9459C211.951 38.7126 210.334 36.7341 206.29 36.7341Z" fill="#1C1F58"/>
</svg>
