<svg width="91" height="40" viewBox="0 0 91 40" fill="none" xmlns="http://www.w3.org/2000/svg">
<g clip-path="url(#clip0_416_244)">
<path d="M81.5805 5.31531V10.4685H78.7546V14.7567H81.5805V24.054C81.5805 29.3333 85.3483 32.4685 89.3378 33.1171L91 28.7567C88.6728 28.4504 87.1768 26.7748 87.1583 24.5946V14.7387H90.7784V10.4504H87.1583V5.31531H81.5805Z" fill="#000000"/>
<path d="M61.8548 15.2253C61.8548 18.3424 63.868 20.0181 66.8231 21.0811C68.8548 21.8199 71.81 22.2162 71.81 23.8018C71.81 25.3874 67.2479 26.1982 63.0738 23.4054L61.3931 27.6036C67.0633 30.3424 77.591 30.4325 77.5355 23.5316C77.4617 16.7208 67.5804 17.9099 67.5804 15.2793C67.5804 12.6487 70.5725 12.5946 75.3007 14.7027L76.9445 10.8289C74.6543 10.1622 72.0501 9.69373 69.6675 9.69373C65.4379 9.69373 61.8917 11.1171 61.8548 15.2613" fill="#000000"/>
<path d="M49.0553 21.2974C50.2743 20.901 51.9181 20.8829 53.3772 20.8829V22.991C51.9366 24.5586 50.5514 25.1352 49.4616 25.1352C47.1899 25.1352 46.2664 22.6307 49.0738 21.2974M43.0342 11.1712L44.9735 15.0091C49.3693 12.973 51.992 13.4956 52.9155 14.5046C52.9155 14.5046 52.9709 14.5586 52.9893 14.5766C53.4511 15.2073 53.3587 16.1802 53.3587 16.955C47.6147 16.955 41.5012 17.6937 41.5012 23.8379C41.5012 29.982 47.5039 31.5136 53.7835 27.0631L54.7255 29.2433H60.1002C59.6015 26.6847 59.0289 24.4865 59.0289 23.0271V15.6217C59.0289 15.3514 59.0289 15.0992 58.992 14.8469C58.6965 11.1532 55.2611 9.7478 51.087 9.7478C46.9128 9.7478 45.62 10.2883 43.0527 11.1712" fill="#000000"/>
<path d="M26.3193 19.6937C26.3193 16.3063 27.8153 13.8919 30.5489 13.8919C33.2824 13.8919 34.7415 16.3063 34.7415 19.6937C34.7415 23.0811 33.3932 25.1351 30.5489 25.1351C27.7045 25.1351 26.3193 23.0811 26.3193 19.6937ZM20.7969 19.7117C20.7969 24.991 23.5304 29.3333 30.5489 29.3333C37.5673 29.3333 40.3193 24.4685 40.3008 19.7117C40.3008 13.9099 37.2718 9.81982 30.5489 9.81982C23.8259 9.81982 20.7969 14.6306 20.7969 19.7117Z" fill="#000000"/>
<path d="M18.4511 0.48645L10.3614 22.3783L6.48275 10.5405H0.720215L7.16612 26.7027C7.70174 28.072 7.70174 29.6036 7.16612 30.991C6.44581 32.7928 5.24528 34.3423 2.32708 34.7207V39.5135C8.01573 39.5135 11.1002 36.0901 13.8521 28.6126L24.62 0.48645H18.4511Z" fill="url(#paint0_linear_416_244)"/>
<path d="M2.32718 40H1.8285V34.3063L2.2533 34.2523C5.09762 33.8739 6.09499 32.3063 6.70448 30.8288C7.20317 29.5676 7.20317 28.1622 6.70448 26.9009L0 10.0541H6.85224L10.3984 20.8649L18.1003 0H25.3219L14.314 28.7748C11.839 35.5135 8.86543 40 2.32718 40ZM2.82586 35.1351V39.027C7.75726 38.8468 10.6385 35.9279 13.372 28.4504L23.8997 0.972973H18.8021L10.343 23.8919L6.13193 11.027H1.4591L7.64644 26.5405C8.23747 28.036 8.23747 29.6757 7.64644 31.1712C7.01847 32.7387 5.89182 34.5946 2.84433 35.1532H2.82586V35.1351Z" fill="#000000"/>
</g>
<defs>
<linearGradient id="paint0_linear_416_244" x1="12.6701" y1="0.180144" x2="12.6701" y2="30.3603" gradientUnits="userSpaceOnUse">
<stop stop-color="#77B227"/>
<stop offset="0.4" stop-color="#74B027"/>
<stop offset="0.6" stop-color="#6DA927"/>
<stop offset="0.7" stop-color="#609E27"/>
<stop offset="0.8" stop-color="#4E8F27"/>
<stop offset="0.9" stop-color="#377B28"/>
<stop offset="1" stop-color="#246B29"/>
</linearGradient>
<clipPath id="clip0_416_244">
<rect width="91" height="40" fill="#000000"/>
</clipPath>
</defs>
</svg>
