<svg xmlns="http://www.w3.org/2000/svg" height="1762" viewBox="0 0 4837 1762" width="4837">
                    <g fill="#004349" class="text" fill-rule="evenodd" style="fill: #000000 !important;">
                        <g fill-rule="nonzero" style="fill: #000000 !important;">
                            <path d="m4570.49862 656.06383v133.890577h-386.42699v80.334347h333.12672v120.50152h-333.12672v80.334346h333.12672c0 51.07202 20.32746 97.3735 53.29636 131.18151l.00391 2.70907h-572.97796v-548.95137z" style="fill: #000000 !important;"/>
                            <path d="m3397.89256 656.06383 133.25069 334.726444 133.25069-334.726444h279.82645v548.95137h-186.55097v-334.726446l-133.25069 334.726446h-186.55096l-133.25069-334.726446v334.726446h-186.55096v-548.95137z" style="fill: #000000 !important;"/>
                            <path d="m2211.96143 1205.0152v-548.95137h196.13804v242.559906l264.42902-242.559906h242.98883l-241.40066 224.208335 247.75331 324.743035h-239.01842l-153.25766-206.65466-121.49442 98.93891v107.71575z" style="fill: #000000 !important;"/>
                            <path d="m1805.54683 1218.40426c-75.04423 0-139.97612-11.59006-194.79567-34.77018-54.81954-23.18012-97.13172-56.19832-126.93652-99.05459-29.8048-42.85626-44.7072-94.202923-44.7072-154.039976s14.9024-111.318482 44.7072-154.444286 72.11698-76.143998 126.93652-99.054581c54.81955-22.910583 119.75144-34.365875 194.79567-34.365875 75.57646 0 140.64141 11.455292 195.19484 34.365875s96.73255 55.928777 126.53735 99.054581 44.70721 94.607233 44.70721 154.444286-14.90241 111.183716-44.70721 154.039976c-29.8048 42.85627-71.98392 75.87447-126.53735 99.05459s-119.61838 34.77018-195.19484 34.77018zm0-138.27211c25.01475 0 47.63446-3.36921 67.85915-10.10761 20.22469-6.73841 37.52212-16.44172 51.89229-29.10992 14.37017-12.66821 25.28086-27.62747 32.73206-44.877792 7.4512-17.250321 11.1768-36.11786 11.1768-56.602617v-19.406612c0-20.484757-3.7256-39.217528-11.1768-56.198313-7.4512-16.980786-18.36189-31.670513-32.73206-44.069181-14.37017-12.398669-31.6676-21.967207-51.89229-28.705614-20.22469-6.738406-42.8444-10.10761-67.85915-10.10761-25.01474 0-47.63446 3.369204-67.85915 10.10761-20.22468 6.738407-37.52211 16.306945-51.89228 28.705614-14.37018 12.398668-25.28086 27.088395-32.73206 44.069181-7.4512 16.980785-11.1768 35.713556-11.1768 56.198313v19.406612c0 20.484757 3.7256 39.352296 11.1768 56.602617 7.4512 17.250322 18.36188 32.209582 32.73206 44.877792 14.37017 12.6682 31.6676 22.37151 51.89228 29.10992 20.22469 6.7384 42.84441 10.10761 67.85915 10.10761z" style="fill: #000000 !important;"/>
                            <path d="m1032.69284 1218.40426c-75.044236 0-139.976125-11.59006-194.795672-34.77018-54.819546-23.18012-97.13172-56.19832-126.936522-99.05459-29.804802-42.85626-44.707202-94.202923-44.707202-154.039976s14.9024-111.318482 44.707202-154.444286 72.116976-76.143998 126.936522-99.054581c54.819547-22.910583 119.751436-34.365875 194.795672-34.365875 75.57646 0 140.64141 11.455292 195.19484 34.365875s96.73255 55.928777 126.53735 99.054581 44.7072 94.607233 44.7072 154.444286-14.9024 111.183716-44.7072 154.039976c-29.8048 42.85627-71.98392 75.87447-126.53735 99.05459s-119.61838 34.77018-195.19484 34.77018zm0-138.27211c25.01474 0 47.63446-3.36921 67.85914-10.10761 20.22469-6.73841 37.52212-16.44172 51.89229-29.10992 14.37018-12.66821 25.28086-27.62747 32.73206-44.877792 7.4512-17.250321 11.1768-36.11786 11.1768-56.602617v-19.406612c0-20.484757-3.7256-39.217528-11.1768-56.198313-7.4512-16.980786-18.36188-31.670513-32.73206-44.069181-14.37017-12.398669-31.6676-21.967207-51.89229-28.705614-20.22468-6.738406-42.8444-10.10761-67.85914-10.10761-25.01475 0-47.634463 3.369204-67.85915 10.10761-20.224687 6.738407-37.522116 16.306945-51.892288 28.705614-14.370173 12.398668-25.280859 27.088395-32.73206 44.069181-7.4512 16.980785-11.1768 35.713556-11.1768 56.198313v19.406612c0 20.484757 3.7256 39.352296 11.1768 56.602617 7.451201 17.250322 18.361887 32.209582 32.73206 44.877792 14.370172 12.6682 31.667601 22.37151 51.892288 29.10992 20.224687 6.7384 42.8444 10.10761 67.85915 10.10761z" style="fill: #000000 !important;"/>
                        </g>
                        <path d="m0 1205.0152v-548.95137h493.027548c80.951556 0 146.575758 65.939339 146.575758 147.279635 0 54.243417-29.184121 101.637785-72.635941 127.195051 43.45182 25.559262 72.635941 72.953634 72.635941 127.197044 0 81.3403-65.624202 147.27964-146.575758 147.27964zm386.426997-214.224926h-199.876033v80.334346h199.876033c22.077697 0 39.975207-17.98346 39.975207-40.16717 0-22.18372-17.89751-40.167176-39.975207-40.167176zm0-200.835867h-199.876033v80.334347h199.876033c22.077697 0 39.975207-17.983456 39.975207-40.167173 0-22.183718-17.89751-40.167174-39.975207-40.167174z" style="fill: #000000 !important;"/>
                        <path d="m4383.94766 281.170213v-267.7811552h186.55096v548.9513682h-186.55096l-306.47659-267.781155v267.781155h-186.55096v-548.9513682h186.55096z" fill-rule="nonzero" style="fill: #000000 !important;"/>
                        <path d="m3571.11846 13.3890578 266.50137 548.9513682h-199.87603l-34.64518-80.334347h-277.16143l-34.64518 80.334347h-199.87603l266.50138-548.9513682zm-106.60055 147.2796352-80.8432 187.446809h161.68639z" style="fill: #000000 !important;"/>
                        <path d="m2778.27686 0c75.57646 0 140.64141 11.4552917 195.19484 34.3658751 54.55343 22.9105833 96.73255 55.928777 126.53735 99.0545809 19.55747 28.29851 32.69828 60.194775 39.42242 95.688796l-205.50469-.015404c-.96778-2.687683-2.02326-5.334128-3.16643-7.939334-7.4512-16.980786-18.36188-31.670513-32.73205-44.069181-14.37018-12.398669-31.66761-21.967207-51.89229-28.705614-20.22469-6.738407-42.84441-10.10761-67.85915-10.10761s-47.63446 3.369203-67.85915 10.10761c-20.22468 6.738407-37.52211 16.306945-51.89229 28.705614-14.37017 12.398668-25.28086 27.088395-32.73206 44.069181-7.4512 16.980785-11.1768 35.713556-11.1768 56.198313v19.406612c0 20.484757 3.7256 39.352296 11.1768 56.602617 7.4512 17.250322 18.36189 32.209585 32.73206 44.87779 14.37018 12.668205 31.66761 22.371511 51.89229 29.109918 20.22469 6.738407 42.84441 10.10761 67.85915 10.10761s47.63446-3.369203 67.85915-10.10761c20.22468-6.738407 37.52211-16.441713 51.89229-29.109918 14.37017-12.668205 25.28085-27.627468 32.73205-44.87779l1.19453-2.970415 206.72197.010328c-6.92828 33.89709-19.81754 64.398008-38.6678 91.502754-29.8048 42.856267-71.98392 75.874461-126.53735 99.054581-54.55343 23.180119-119.61838 34.770179-195.19484 34.770179-75.04423 0-139.97612-11.59006-194.79567-34.770179-54.81955-23.18012-97.13172-56.198314-126.93652-99.054581-29.8048-42.856268-44.7072-94.202928-44.7072-154.039981s14.9024-111.318482 44.7072-154.444286c29.8048-43.1258039 72.11697-76.1439976 126.93652-99.0545809 54.81955-22.9105834 119.75144-34.3658751 194.79567-34.3658751z" fill-rule="nonzero" style="fill: #000000 !important;"/>
                        <path d="m1638.98347 13.3890578v269.5783442h-.29315l.08237 3.976938c.78743 20.528365 7.30515 50.208309 14.29065 66.38301 7.4512 17.253014 18.36188 32.214612 32.73206 44.884794 14.37017 12.670182 31.6676 22.375002 51.89228 29.114461 20.22469 6.739459 42.84441 10.109188 67.85915 10.109188 25.01475 0 47.63446-3.369729 67.85915-10.109188s37.52212-16.444279 51.89229-29.114461 25.28086-27.63178 32.73206-44.884794c7.4512-17.253015 14.07986-49.871994 14.07986-70.359948v-269.5783442h199.87604v269.5783442 4.85241c0 59.846392-14.90241 111.201067-44.70721 154.064023-29.8048 42.862957-71.98392 75.886304-126.53735 99.070042-54.55343 23.183737-119.61838 34.775606-195.19484 34.775606-75.04423 0-139.97612-11.591869-194.79567-34.775606-54.81954-23.183738-97.13172-56.207085-126.93652-99.070042-29.8048-42.862956-44.7072-94.217631-44.7072-154.064023l.03997-4.85241-.03997-269.5783442z" fill-rule="nonzero" style="fill: #000000 !important;"/>
                        <path d="m1032.69284 575.729483c-75.044236 0-139.976125-11.59006-194.795672-34.770179-54.819546-23.18012-97.13172-56.198314-126.936522-99.054581-29.804802-42.856268-44.707202-94.202928-44.707202-154.039981s14.9024-111.318482 44.707202-154.444286c29.804802-43.1258039 72.116976-76.1439976 126.936522-99.0545809 54.819547-22.9105834 119.751436-34.3658751 194.795672-34.3658751 75.57646 0 140.64141 11.4552917 195.19484 34.3658751 54.55343 22.9105833 96.73255 55.928777 126.53735 99.0545809 29.8048 43.125804 44.7072 94.607233 44.7072 154.444286s-14.9024 111.183713-44.7072 154.039981c-29.8048 42.856267-71.98392 75.874461-126.53735 99.054581-54.55343 23.180119-119.61838 34.770179-195.19484 34.770179zm0-138.272109c25.01474 0 47.63446-3.369203 67.85914-10.10761 20.22469-6.738407 37.52212-16.441713 51.89229-29.109918 14.37018-12.668205 25.28086-27.627468 32.73206-44.87779 7.4512-17.250321 11.1768-36.11786 11.1768-56.602617v-19.406612c0-20.484757-3.7256-39.217528-11.1768-56.198313-7.4512-16.980786-18.36188-31.670513-32.73206-44.069181-14.37017-12.398669-31.6676-21.967207-51.89229-28.705614-20.22468-6.738407-42.8444-10.10761-67.85914-10.10761-25.01475 0-47.634463 3.369203-67.85915 10.10761s-37.522116 16.306945-51.892288 28.705614c-14.370173 12.398668-25.280859 27.088395-32.73206 44.069181-7.4512 16.980785-11.1768 35.713556-11.1768 56.198313v19.406612c0 20.484757 3.7256 39.352296 11.1768 56.602617 7.451201 17.250322 18.361887 32.209585 32.73206 44.87779 14.370172 12.668205 31.667601 22.371511 51.892288 29.109918s42.8444 10.10761 67.85915 10.10761z" fill-rule="nonzero" style="fill: #000000 !important;"/>
                        <path d="m213.201102 13.3890578 159.874176 191.2760792 159.889101-191.2760792h213.201102l-279.788071 334.7264442-.038375 214.224924h-186.550965v-214.224924l-279.78807-334.7264442z" style="fill: #000000 !important;"/>
                        <ellipse cx="4703.74931" cy="1071.12462" rx="133.250689" ry="133.890578" fill="#44FF87" style="fill: rgb(68, 255, 135) !important;"/>
                        <path d="m800.225201 304.980433c-43.113434 0-78.256318-33.886714-78.256318-75.459076 0-41.572361 35.052309-75.459076 78.256318-75.459076 24.545674 0 47.27986 10.829775 62.224643 29.694544l51.083985-37.642202c-27.262907-34.323399-68.474278-54.0615368-113.308628-54.0615368-78.618616 0-142.564172 61.6598468-142.564172 137.4682708s63.945556 137.468271 142.564172 137.468271c47.461008 0 91.570762-22.620255 118.199648-60.611804l-53.257772-34.672747c-14.582485 20.786181-38.856436 33.275356-64.941876 33.275356zm1175.293969 0c-43.11343 0-78.25632-33.886714-78.25632-75.459076 0-41.572361 35.05231-75.459076 78.25632-75.459076 24.54567 0 47.27986 10.829775 62.22464 29.694544l51.08399-37.642202c-27.26291-34.323399-68.47428-54.0615368-113.30863-54.0615368-78.61862 0-142.56417 61.6598468-142.56417 137.4682708s63.94555 137.468271 142.56417 137.468271c47.46101 0 91.57076-22.620255 118.19965-60.611804l-53.25777-34.672747c-14.58249 20.786181-38.85644 33.275356-64.94188 33.275356zm-830.20534-187.2503c-23.36821-16.157325-51.89916-25.6770468-82.78504-25.6770468-78.618619 0-142.564175 61.6598468-142.564175 137.4682708s63.945556 137.468271 142.564175 137.468271c30.61416 0 58.96396-9.432384 82.24159-25.327699l3.98528 19.825475h56.24673v-263.4954091h-56.24673zm-82.78504 187.2503c-43.11344 0-78.256321-33.886714-78.256321-75.459076 0-41.572361 35.052311-75.459076 78.256321-75.459076 43.11343 0 78.25632 33.886715 78.25632 75.459076 0 41.572362-35.05231 75.459076-78.25632 75.459076zm1043.23643-206.9884381h64.30785v263.4954091h-64.30785zm-350.34195 18.7774321c-23.09648-15.545967-51.17456-24.7163408-81.42642-24.7163408-78.61862 0-142.56417 61.6598468-142.56417 137.4682708s63.94555 137.468271 142.56417 137.468271c30.61416 0 58.96396-9.432384 82.24159-25.327699l3.98528 19.825475h56.24673v-263.4954091h-56.24673zm-81.42642 188.211006c-43.11343 0-78.25632-33.886714-78.25632-75.459076 0-41.572361 35.14289-75.459076 78.25632-75.459076 43.11344 0 78.25632 33.886715 78.25632 75.459076 0 41.572362-35.14288 75.459076-78.25632 75.459076zm-296.81245-212.9273468c-30.25186 0-58.32994 9.1703738-81.42642 24.7163408l-4.89102-18.7774321h-56.24673v351.8803451h64.30785v-105.590304c22.46246 14.32325 49.36307 22.620255 78.25632 22.620255 78.61862 0 142.56417-61.659847 142.56417-137.468271s-63.94555-137.3809338-142.56417-137.3809338zm0 212.9273468c-43.11343 0-78.25632-33.886714-78.25632-75.459076 0-41.572361 35.14289-75.459076 78.25632-75.459076 43.11344 0 78.25632 33.886715 78.25632 75.459076 0 41.572362-35.14288 75.459076-78.25632 75.459076zm893.60745-206.9884381v-88.38493657h-64.30785v351.88034567h64.30785v-201.486214h66.48164l-25.27027-62.0091951zm213.30282 184.0188351-74.81449-184.0188351h-69.1083l109.32335 268.9976331-33.69369 82.882712h69.1083l143.01704-351.8803451h-69.01772zm-346.17552-282.01083c-21.01327 0-38.13184 16.4193361-38.13184 36.7688323 0 20.2621594 17.02799 36.7688324 38.13184 36.7688324 21.01327 0 38.13184-16.4193361 38.13184-36.7688324-.09058-20.2621594-17.11857-36.7688323-38.13184-36.7688323zm-2137.91915 360.17735v-350.57029167h32.8785227v146.28929767c13.7673153-16.332 29.1649706-28.559165 46.2835402-36.594159 17.0279953-8.122331 35.7769051-12.139828 56.1561541-12.139828 36.139203 0 67.025088 12.663849 92.657655 37.991549 25.632568 25.327699 38.403564 56.070286 38.403564 92.140423 0 35.720789-12.952145 66.114028-38.765861 91.354391-25.813717 25.240362-56.971325 37.904212-93.291676 37.904212-20.832122 0-39.6716064-4.279508-56.6090271-12.925861-16.9374208-8.646352-31.8822039-21.572212-44.8343492-38.777581v45.327848zm131.69524-24.192319c18.296037 0 35.233458-4.366845 50.631113-13.013197 15.48823-8.646353 27.806354-20.873518 36.954373-36.594159s13.767315-32.314651 13.767315-49.869366c0-17.554716-4.619296-34.236063-13.85789-50.131377-9.238593-15.895315-21.647291-28.209817-37.226096-37.030843-15.578804-8.821027-32.153927-13.275208-49.815943-13.275208-18.024314 0-35.0523094 4.454181-51.2651347 13.275208-16.2128252 8.821026-28.6215239 20.78618-37.3166704 35.720789s-13.0427197 31.79063-13.0427197 50.568062c0 28.559164 9.6914654 52.489473 29.1649706 71.616253 19.5640796 19.126779 43.5663072 28.733838 72.0066822 28.733838zm155.15402-222.447069h34.780586l87.947784 189.957744 85.411699-189.957744h35.05231l-152.88966 336.334378h-34.780586l49.544221-108.385085z" fill-rule="nonzero" transform="translate(2171.577 1312.1277)" style="fill: #000000 !important;"/>
                    </g>
                </svg>