<svg width="128" height="128" viewBox="0 0 128 128" fill="none" xmlns="http://www.w3.org/2000/svg">
<g clip-path="url(#clip0_240_7038)">
<path fill-rule="evenodd" clip-rule="evenodd" d="M74.0981 2.78817C67.922 -0.431177 60.5649 -0.431181 54.3888 2.78817L11.7224 25.0289C4.66821 28.7061 0.243652 36.0053 0.243652 43.9657V84.7817C0.243652 92.7417 4.66822 100.041 11.7224 103.718L54.3888 125.959C56.3038 126.957 58.3321 127.646 60.4035 128.025V98.9334C60.4035 81.9676 46.6498 68.2134 29.6836 68.2134H15.6036V60.5335H29.6836C46.6498 60.5335 60.4035 46.7798 60.4035 29.8136V15.7336H68.0838V29.8136C68.0838 46.7798 81.8375 60.5335 98.8038 60.5335H128.244V43.9657C128.244 36.0053 123.819 28.7061 116.765 25.0289L74.0981 2.78817ZM128.244 68.2134H98.8038C81.8375 68.2134 68.0838 81.9676 68.0838 98.9334V128.025C70.1552 127.646 72.1835 126.957 74.0981 125.959L116.765 103.718C123.819 100.041 128.244 92.7417 128.244 84.7817V68.2134Z" fill="url(#paint0_linear_240_7038)"/>
</g>
<defs>
<linearGradient id="paint0_linear_240_7038" x1="128.244" y1="0.373661" x2="0.592641" y2="128.373" gradientUnits="userSpaceOnUse">
<stop offset="0.15" stop-color="#A0A4EE"/>
<stop offset="0.8" stop-color="#596CED"/>
</linearGradient>
<clipPath id="clip0_240_7038">
<rect width="128" height="128" fill="white"/>
</clipPath>
</defs>
</svg>
