<?xml version="1.0" encoding="utf-8"?>
<!-- Generator: Adobe Illustrator 25.0.0, SVG Export Plug-In . SVG Version: 6.00 Build 0)  -->
<svg version="1.1" id="Ebene_1" xmlns="http://www.w3.org/2000/svg" xmlns:xlink="http://www.w3.org/1999/xlink" x="0px" y="0px"
	 viewBox="0 0 885 188" style="enable-background:new 0 0 885 188;" xml:space="preserve">
<style type="text/css">
	.st0{fill:#000000;}
</style>
<g>
	<path class="st0" d="M67.2,65.8l-41.2,60.1h41.2v15.3H4.4v-15.3l41.2-60.1H4.3V50.5h62.9L67.2,65.8L67.2,65.8z"/>
	<path class="st0" d="M167.6,77.5h-20.3c-3.4-7.1-9.9-12.7-21.4-12.7c-13.8,0-24.5,9-25.9,24.1h69.3c0.5,3.2,0.6,6.1,0.6,9.2
		c0,26.7-18.3,44.6-44.1,44.6c-26.9,0-45.3-18.3-45.3-46.8S99.8,49,125.9,49C148.2,49.1,162.6,61.8,167.6,77.5z M125.2,126.9
		c14,0,25.1-8.9,25.3-22.9h-50.2C102.3,118.4,112.5,126.9,125.2,126.9z"/>
	<path class="st0" d="M252.9,90.5c0-16.6-9-25.1-22.7-25.1c-13.8,0-22.9,8.6-22.9,25.1v50.7h-18.8V50.5h18.7v10.4
		c6.1-7.4,16.1-11.8,27-11.8c21.3,0,37.2,13.3,37.2,38.7v53.5h-18.6V90.5H252.9z"/>
	<path class="st0" d="M328.3,142.7c-21.7,0-37.1-12.8-37.9-29.3h19.4c0.6,7.4,7.8,13.5,18.1,13.5c10.9,0,16.6-4.6,16.6-10.9
		c0-17.8-52.6-7.6-52.6-40.8c0-14.5,13.5-26.1,34.9-26.1c20.6,0,34.1,11,35.1,29.1h-18.7c-0.6-7.9-6.8-13.3-16.9-13.3
		c-10,0-15.3,4.1-15.3,10.2c0,18.3,51.2,8,52.2,40.8C363,131.2,349.7,142.7,328.3,142.7z"/>
	<path class="st0" d="M422.3,142.7c-26,0-45.3-18.5-45.3-46.9S395.5,49,422.3,49c25.9,0,44.1,17.9,44.1,44.6c0,3.2-0.2,6.1-0.6,9.2
		h-69.3c1.4,15,12,24.1,25.9,24.1c11.5,0,17.9-5.6,21.4-12.7h20.3C458.9,130,444.5,142.7,422.3,142.7z M396.6,87.7h50.2
		c-0.4-14-11.4-22.9-25.3-22.9C408.8,64.8,398.5,73.4,396.6,87.7z"/>
	<path class="st0" d="M503.6,141.2h-18.7V50.5h18.7v13.2c5.2-9,14.3-14.7,27.1-14.7v19.4H526c-13.8,0-22.4,5.8-22.4,25.1
		L503.6,141.2L503.6,141.2z"/>
	<path class="st0" d="M598.4,49.1c23.9,0,42.6,18.4,42.6,46.4s-18.7,47.2-42.6,47.2c-15,0-25.7-7.6-31.6-14.7v56.3h-18.7V50.4h18.7
		v13.3C572.5,56.3,583.6,49.1,598.4,49.1z M594.2,65.4c-14,0-27.5,11-27.5,30.5c0,19.6,13.5,30.7,27.5,30.7
		c14.2,0,27.7-11.4,27.7-30.9C621.9,75.9,608.4,65.4,594.2,65.4z"/>
</g>
</svg>
