<?xml version="1.0" encoding="utf-8"?>
<!-- Generator: Adobe Illustrator 25.0.0, SVG Export Plug-In . SVG Version: 6.00 Build 0)  -->
<svg version="1.1" id="Ebene_1" xmlns="http://www.w3.org/2000/svg" xmlns:xlink="http://www.w3.org/1999/xlink" x="0px" y="0px"
	 viewBox="0 0 885 188" style="enable-background:new 0 0 885 188;" xml:space="preserve">
<style type="text/css">
	.st0{fill:#000000;}
</style>
<g>
	<path class="st0" d="M65.6,67.4l-40.1,58.5h40.1v14.9H4.3v-14.9l40.3-58.5H4.3V52.5h61.3C65.6,52.5,65.6,67.4,65.6,67.4z"/>
	<path class="st0" d="M161.4,78.8h-19.7c-3.4-6.9-9.7-12.3-20.9-12.3c-13.4,0-23.9,8.8-25.2,23.4h67.5c0.5,3,0.6,5.9,0.6,9
		c0,25.9-17.8,43.4-42.9,43.4c-26.1,0-44.1-17.8-44.1-45.5s18.8-45.7,44.1-45.7C142.5,51.1,156.4,63.4,161.4,78.8z M120.1,126.9
		c13.6,0,24.4-8.6,24.7-22.3H95.8C97.7,118.6,107.7,126.9,120.1,126.9z"/>
	<path class="st0" d="M242.5,91.4c0-16.2-8.8-24.6-22.2-24.6c-13.4,0-22.3,8.4-22.3,24.6v49.4h-18.3V52.5h18.3v10.1
		C204,55.3,213.7,51,224.4,51c20.7,0,36.2,13,36.2,37.7v52.1h-18.1L242.5,91.4L242.5,91.4z"/>
	<path class="st0" d="M314.1,142.3c-21.2,0-36.1-12.5-36.9-28.5h18.9c0.6,7.2,7.5,13.2,17.7,13.2c10.6,0,16.2-4.5,16.2-10.6
		c0-17.3-51.3-7.4-51.3-39.7c0-14.1,13.2-25.5,34-25.5c20.1,0,33.2,10.8,34.1,28.4h-18.3c-0.6-7.7-6.6-13-16.5-13
		c-9.7,0-14.9,4.1-14.9,9.9c0,17.8,49.8,7.8,50.9,39.7C347.9,131.1,334.9,142.3,314.1,142.3z"/>
	<path class="st0" d="M402.9,51.1c21.6,0,35.8,10.8,40.7,29.3h-19.7c-3-8.5-10.1-14-21-14c-14.7,0-24.6,10.9-24.6,30.2
		c0,19.4,9.7,30.3,24.6,30.3c10.9,0,17.7-4.8,21-14h19.7c-5,17.3-19,29.3-40.7,29.3c-25.3,0-43.3-17.9-43.3-45.7
		C359.6,69,377.5,51.1,402.9,51.1z"/>
	<path class="st0" d="M478.2,140.8h-18.3V52.5h18.3v12.8c5.2-8.8,14-14.3,26.5-14.3v18.9H500c-13.4,0-21.8,5.6-21.8,24.4V140.8z"/>
	<path class="st0" d="M555.2,51.1c14.9,0,25.2,7.1,30.6,14.3V52.5h18.4v88.3h-18.4v-13.2c-5.6,7.5-16.2,14.6-30.9,14.6
		c-22.9,0-41.4-18.8-41.4-46C513.4,69,531.9,51.1,555.2,51.1z M559,67c-13.6,0-26.8,10.3-26.8,29.3s13.2,30.2,26.8,30.2
		c13.8,0,26.8-10.8,26.8-29.8C585.8,77.6,572.8,67,559,67z"/>
	<path class="st0" d="M675.4,51.1c23.3,0,41.5,17.9,41.5,45.3c0,27.2-18.3,46-41.5,46c-14.6,0-25-7.4-30.8-14.3v54.8h-18.3V52.5
		h18.3v13C650.2,58.1,661,51.1,675.4,51.1z M671.4,67c-13.6,0-26.8,10.8-26.8,29.7c0,19,13.2,29.8,26.8,29.8
		c13.8,0,26.9-11,26.9-30.2C698.3,77.2,685.1,67,671.4,67z"/>
	<path class="st0" d="M771.1,142.3c-25.3,0-44.1-17.9-44.1-45.7s17.9-45.5,44.1-45.5c25.2,0,42.9,17.5,42.9,43.4c0,3-0.2,5.9-0.6,9
		h-67.5c1.3,14.6,11.7,23.4,25.2,23.4c11.2,0,17.5-5.4,20.9-12.3h19.7C806.7,130,792.7,142.3,771.1,142.3z M746.1,88.8H795
		c-0.3-13.6-11-22.3-24.7-22.3C758,66.4,748.1,74.8,746.1,88.8z"/>
</g>
</svg>
