<?xml version="1.0" encoding="UTF-8" standalone="no"?>
<!DOCTYPE svg PUBLIC "-//W3C//DTD SVG 1.1//EN" "http://www.w3.org/Graphics/SVG/1.1/DTD/svg11.dtd">
<svg xmlns="http://www.w3.org/2000/svg" version="1.1" viewBox="0.00 0.00 400.00 400.00">
<g stroke-width="2.00" fill="none" stroke-linecap="butt">
<path stroke="#8c8f92" vector-effect="non-scaling-stroke" d="
  M 247.91 159.03
  L 209.08 164.51
  A 1.41 1.40 -9.6 0 1 207.51 163.40
  L 203.21 142.25
  A 1.03 1.02 5.5 0 1 204.61 141.10
  L 224.97 149.55
  A 2.33 2.32 33.8 0 0 227.51 149.05
  L 243.51 133.05
  A 0.92 0.92 0.0 0 1 245.07 133.52
  L 247.88 147.34
  A 0.19 0.19 0.0 0 0 248.25 147.29
  L 246.71 128.20
  A 1.16 1.16 0.0 0 0 245.32 127.16
  L 200.72 136.23
  A 1.38 1.37 78.6 0 0 199.65 137.85
  L 205.52 166.73
  A 1.10 1.10 0.0 0 0 206.82 167.59
  L 247.94 159.23
  A 0.10 0.10 0.0 0 0 247.91 159.03"
/>
<path stroke="#fbefa9" vector-effect="non-scaling-stroke" d="
  M 152.61 180.57
  A 0.58 0.58 0.0 0 1 151.56 180.56
  C 140.23 155.56 117.94 144.91 91.25 144.53
  Q 69.50 144.23 48.54 150.03
  A 0.74 0.74 0.0 0 0 48.00 150.74
  L 48.00 151.10
  A 0.85 0.85 0.0 0 0 48.97 151.94
  Q 65.82 149.48 82.69 150.15
  Q 97.60 150.73 113.41 156.30
  Q 138.83 165.25 152.84 187.11
  A 0.53 0.52 41.1 0 0 153.76 187.05
  C 156.01 182.13 158.92 177.50 163.20 173.58
  Q 172.02 165.50 183.43 158.77
  A 1.08 1.08 0.0 0 0 183.04 156.77
  C 182.07 156.63 180.62 157.39 179.91 157.65
  Q 169.53 161.42 161.59 168.07
  C 156.88 172.02 155.17 175.14 152.61 180.57"
/>
<path stroke="#8c8f92" vector-effect="non-scaling-stroke" d="
  M 198.94 214.82
  Q 202.72 224.37 212.02 226.37
  C 225.25 229.23 236.76 221.17 234.83 206.87
  Q 233.42 196.37 223.20 193.52
  C 213.31 190.77 202.01 194.07 198.87 204.72
  A 0.29 0.28 47.0 0 1 198.32 204.70
  Q 195.95 194.35 185.65 192.43
  C 181.47 191.65 177.88 193.10 174.41 195.35
  A 0.82 0.81 73.8 0 1 173.16 194.66
  L 173.16 180.90
  A 0.86 0.86 0.0 0 0 172.30 180.04
  L 163.11 180.04
  A 0.97 0.97 0.0 0 0 162.14 181.01
  L 162.14 225.91
  A 0.58 0.58 0.0 0 0 162.72 226.49
  L 172.35 226.49
  A 0.77 0.77 0.0 0 0 173.12 225.72
  L 173.12 224.79
  A 1.04 1.04 0.0 0 1 174.75 223.93
  C 182.93 229.56 193.63 226.81 197.49 217.54
  Q 198.19 215.83 198.39 214.87
  A 0.29 0.29 0.0 0 1 198.94 214.82"
/>
<path stroke="#8c8f92" vector-effect="non-scaling-stroke" d="
  M 275.77 193.72
  L 275.77 218.25
  A 1.20 1.16 -72.5 0 0 276.25 219.21
  C 278.80 221.10 283.75 225.44 286.05 225.38
  A 0.79 0.79 0.0 0 0 286.83 224.60
  Q 286.92 217.13 286.81 210.36
  Q 286.75 206.60 287.93 204.90
  C 290.31 201.49 295.29 200.89 298.10 204.21
  Q 299.30 205.63 299.17 210.01
  Q 299.14 210.82 299.13 225.61
  A 1.06 1.05 90.0 0 0 300.18 226.67
  L 309.37 226.67
  A 0.62 0.61 -89.5 0 0 309.98 226.06
  Q 310.03 217.55 309.99 204.74
  C 309.95 192.21 296.70 189.15 288.11 196.10
  A 0.80 0.80 0.0 0 1 286.83 195.33
  Q 287.03 194.26 286.71 193.50
  A 0.84 0.82 -11.0 0 0 285.94 192.99
  L 276.49 192.99
  A 0.73 0.72 90.0 0 0 275.77 193.72"
/>
<path stroke="#8c8f92" vector-effect="non-scaling-stroke" d="
  M 312.02 209.87
  Q 312.05 213.76 313.02 216.47
  C 317.47 228.84 335.73 230.54 343.56 220.74
  A 1.70 1.70 0.0 0 0 343.08 218.20
  L 338.31 215.44
  A 2.46 2.46 0.0 0 0 335.41 215.77
  C 329.57 221.18 322.88 217.06 322.83 209.79
  C 322.77 202.52 329.40 198.29 335.32 203.61
  A 2.46 2.46 0.0 0 0 338.22 203.90
  L 342.95 201.06
  A 1.70 1.70 0.0 0 0 343.39 198.52
  C 335.41 188.84 317.18 190.82 312.92 203.26
  Q 311.99 205.98 312.02 209.87"
/>
<path stroke="#8c8f92" vector-effect="non-scaling-stroke" d="
  M 90.17 193.92
  L 90.17 225.92
  A 0.77 0.77 0.0 0 0 90.94 226.69
  L 100.52 226.69
  A 0.55 0.54 -89.5 0 0 101.06 226.15
  Q 101.12 216.54 101.03 212.28
  C 100.89 205.65 104.30 202.30 110.78 202.16
  A 1.26 1.26 0.0 0 0 112.01 200.90
  L 112.01 193.44
  A 1.08 1.08 0.0 0 0 110.62 192.41
  Q 106.69 193.57 105.22 194.97
  Q 103.46 196.65 102.48 197.30
  A 0.88 0.88 0.0 0 1 101.11 196.57
  L 101.11 193.67
  A 0.68 0.68 0.0 0 0 100.43 192.99
  L 91.11 192.99
  A 0.94 0.93 -0.0 0 0 90.17 193.92"
/>
<path stroke="#8c8f92" vector-effect="non-scaling-stroke" d="
  M 147.7122 208.2048
  A 15.45 15.45 0.0 0 0 132.1815 192.8359
  L 126.7015 192.8646
  A 15.45 15.45 0.0 0 0 111.3327 208.3953
  L 111.3478 211.2952
  A 15.45 15.45 0.0 0 0 126.8785 226.6641
  L 132.3585 226.6354
  A 15.45 15.45 0.0 0 0 147.7273 211.1047
  L 147.7122 208.2048"
/>
<path stroke="#8c8f92" vector-effect="non-scaling-stroke" d="
  M 236.83 193.28
  Q 236.70 206.64 236.89 215.14
  C 237.15 226.81 250.36 230.37 258.20 223.12
  A 0.75 0.74 -31.7 0 1 259.40 223.40
  Q 259.79 224.40 260.59 225.23
  A 0.66 0.66 0.0 0 0 261.44 225.31
  L 269.65 219.40
  A 2.28 2.27 72.2 0 0 270.60 217.55
  L 270.60 194.02
  A 1.46 1.46 0.0 0 0 269.14 192.56
  L 260.52 192.56
  A 0.81 0.81 0.0 0 0 259.71 193.38
  Q 259.89 204.95 259.64 208.96
  C 259.31 214.57 255.44 219.65 249.71 215.88
  A 2.33 2.30 -0.4 0 1 249.03 215.22
  Q 247.89 213.58 247.83 211.68
  Q 247.68 206.22 247.75 193.79
  A 1.21 1.21 0.0 0 0 246.54 192.57
  L 237.55 192.57
  A 0.72 0.72 0.0 0 0 236.83 193.28"
/>
<path stroke="#8c8f92" vector-effect="non-scaling-stroke" d="
  M 53.51 224.54
  L 49.96 219.61
  A 3.08 3.07 72.2 0 0 47.46 218.32
  L 38.92 218.32
  A 0.93 0.92 81.4 0 1 38.04 217.66
  Q 37.77 216.93 39.47 214.96
  Q 46.18 207.13 51.76 200.86
  A 4.14 3.99 -17.4 0 0 52.64 199.25
  Q 53.14 197.47 52.88 193.58
  A 0.85 0.85 0.0 0 0 52.03 192.79
  L 24.55 192.79
  A 1.12 1.12 0.0 0 0 23.43 193.91
  L 23.43 200.17
  A 1.05 1.05 0.0 0 0 24.48 201.22
  L 37.31 201.22
  A 0.81 0.80 20.4 0 1 37.92 202.55
  L 23.64 219.13
  A 2.60 2.54 -25.1 0 0 23.01 220.81
  L 23.01 226.05
  A 0.73 0.72 0.0 0 0 23.74 226.77
  L 52.36 226.77
  A 1.41 1.41 0.0 0 0 53.51 224.54"
/>
<path stroke="#8c8f92" vector-effect="non-scaling-stroke" d="
  M 65.56 212.81
  L 86.86 212.81
  A 0.84 0.84 0.0 0 0 87.70 212.02
  Q 88.04 206.75 86.35 202.34
  C 84.53 197.60 79.77 193.51 75.00 193.20
  Q 68.22 192.76 66.73 193.13
  Q 54.10 196.31 53.31 208.77
  Q 52.54 221.00 63.25 225.89
  C 66.51 227.37 73.34 227.38 76.58 226.61
  Q 79.45 225.93 83.25 223.53
  C 87.21 221.03 83.09 218.30 81.20 216.51
  A 1.53 1.52 -38.6 0 0 79.36 216.31
  C 73.82 219.64 68.33 220.30 64.75 214.23
  A 0.94 0.94 0.0 0 1 65.56 212.81"
/>
<path stroke="#8c8f92" vector-effect="non-scaling-stroke" d="
  M 354.98 212.83
  L 376.27 212.74
  A 0.84 0.84 0.0 0 0 377.10 211.95
  Q 377.42 206.68 375.71 202.28
  C 373.87 197.55 369.10 193.49 364.33 193.20
  Q 357.55 192.79 356.07 193.16
  Q 343.46 196.39 342.72 208.85
  Q 342.01 221.07 352.73 225.91
  C 355.99 227.38 362.82 227.36 366.05 226.57
  Q 368.92 225.88 372.70 223.47
  C 376.65 220.95 372.52 218.24 370.63 216.46
  A 1.53 1.52 -38.9 0 0 368.79 216.27
  C 363.26 219.62 357.78 220.30 354.18 214.25
  A 0.94 0.94 0.0 0 1 354.98 212.83"
/>
<path stroke="#8c8f92" vector-effect="non-scaling-stroke" d="
  M 238.88 134.01
  A 1.08 1.08 0.0 0 0 237.88 132.20
  L 209.40 138.10
  A 1.08 1.08 0.0 0 0 209.21 140.16
  L 225.45 146.87
  A 1.08 1.08 0.0 0 0 226.64 146.62
  L 238.88 134.01"
/>
<path stroke="#8c8f92" vector-effect="non-scaling-stroke" d="
  M 180.5963 200.8106
  A 8.70 7.44 -89.3 0 0 173.0506 209.4191
  A 8.70 7.44 -89.3 0 0 180.3837 218.2094
  A 8.70 7.44 -89.3 0 0 187.9294 209.6009
  A 8.70 7.44 -89.3 0 0 180.5963 200.8106"
/>
<path stroke="#8c8f92" vector-effect="non-scaling-stroke" d="
  M 216.7092 201.2305
  A 8.67 7.51 -90.6 0 0 209.2904 209.9786
  A 8.67 7.51 -90.6 0 0 216.8908 218.5695
  A 8.67 7.51 -90.6 0 0 224.3096 209.8214
  A 8.67 7.51 -90.6 0 0 216.7092 201.2305"
/>
<path stroke="#8c8f92" vector-effect="non-scaling-stroke" d="
  M 129.3590 201.2005
  A 8.69 7.53 -90.6 0 0 121.9204 209.9689
  A 8.69 7.53 -90.6 0 0 129.5410 218.5795
  A 8.69 7.53 -90.6 0 0 136.9796 209.8111
  A 8.69 7.53 -90.6 0 0 129.3590 201.2005"
/>
<path stroke="#8c8f92" vector-effect="non-scaling-stroke" d="
  M 65.15 206.72
  L 76.83 206.66
  A 0.46 0.46 0.0 0 0 77.28 206.20
  L 77.28 206.05
  A 6.12 6.03 -0.3 0 0 71.13 200.05
  L 70.77 200.05
  A 6.12 6.03 -0.3 0 0 64.68 206.11
  L 64.69 206.26
  A 0.46 0.46 0.0 0 0 65.15 206.72"
/>
<path stroke="#8c8f92" vector-effect="non-scaling-stroke" d="
  M 354.16 206.73
  L 366.60 206.65
  A 0.20 0.20 0.0 0 0 366.80 206.45
  L 366.80 206.35
  A 6.32 6.32 0.0 0 0 360.44 200.07
  L 360.24 200.07
  A 6.32 6.32 0.0 0 0 353.96 206.43
  L 353.96 206.53
  A 0.20 0.20 0.0 0 0 354.16 206.73"
/>
</g>
<path fill="#ffffff" d="
  M 400.00 0.00
  L 400.00 400.00
  L 0.00 400.00
  L 0.00 0.00
  L 400.00 0.00
  Z
  M 247.91 159.03
  L 209.08 164.51
  A 1.41 1.40 -9.6 0 1 207.51 163.40
  L 203.21 142.25
  A 1.03 1.02 5.5 0 1 204.61 141.10
  L 224.97 149.55
  A 2.33 2.32 33.8 0 0 227.51 149.05
  L 243.51 133.05
  A 0.92 0.92 0.0 0 1 245.07 133.52
  L 247.88 147.34
  A 0.19 0.19 0.0 0 0 248.25 147.29
  L 246.71 128.20
  A 1.16 1.16 0.0 0 0 245.32 127.16
  L 200.72 136.23
  A 1.38 1.37 78.6 0 0 199.65 137.85
  L 205.52 166.73
  A 1.10 1.10 0.0 0 0 206.82 167.59
  L 247.94 159.23
  A 0.10 0.10 0.0 0 0 247.91 159.03
  Z
  M 152.61 180.57
  A 0.58 0.58 0.0 0 1 151.56 180.56
  C 140.23 155.56 117.94 144.91 91.25 144.53
  Q 69.50 144.23 48.54 150.03
  A 0.74 0.74 0.0 0 0 48.00 150.74
  L 48.00 151.10
  A 0.85 0.85 0.0 0 0 48.97 151.94
  Q 65.82 149.48 82.69 150.15
  Q 97.60 150.73 113.41 156.30
  Q 138.83 165.25 152.84 187.11
  A 0.53 0.52 41.1 0 0 153.76 187.05
  C 156.01 182.13 158.92 177.50 163.20 173.58
  Q 172.02 165.50 183.43 158.77
  A 1.08 1.08 0.0 0 0 183.04 156.77
  C 182.07 156.63 180.62 157.39 179.91 157.65
  Q 169.53 161.42 161.59 168.07
  C 156.88 172.02 155.17 175.14 152.61 180.57
  Z
  M 198.94 214.82
  Q 202.72 224.37 212.02 226.37
  C 225.25 229.23 236.76 221.17 234.83 206.87
  Q 233.42 196.37 223.20 193.52
  C 213.31 190.77 202.01 194.07 198.87 204.72
  A 0.29 0.28 47.0 0 1 198.32 204.70
  Q 195.95 194.35 185.65 192.43
  C 181.47 191.65 177.88 193.10 174.41 195.35
  A 0.82 0.81 73.8 0 1 173.16 194.66
  L 173.16 180.90
  A 0.86 0.86 0.0 0 0 172.30 180.04
  L 163.11 180.04
  A 0.97 0.97 0.0 0 0 162.14 181.01
  L 162.14 225.91
  A 0.58 0.58 0.0 0 0 162.72 226.49
  L 172.35 226.49
  A 0.77 0.77 0.0 0 0 173.12 225.72
  L 173.12 224.79
  A 1.04 1.04 0.0 0 1 174.75 223.93
  C 182.93 229.56 193.63 226.81 197.49 217.54
  Q 198.19 215.83 198.39 214.87
  A 0.29 0.29 0.0 0 1 198.94 214.82
  Z
  M 275.77 193.72
  L 275.77 218.25
  A 1.20 1.16 -72.5 0 0 276.25 219.21
  C 278.80 221.10 283.75 225.44 286.05 225.38
  A 0.79 0.79 0.0 0 0 286.83 224.60
  Q 286.92 217.13 286.81 210.36
  Q 286.75 206.60 287.93 204.90
  C 290.31 201.49 295.29 200.89 298.10 204.21
  Q 299.30 205.63 299.17 210.01
  Q 299.14 210.82 299.13 225.61
  A 1.06 1.05 90.0 0 0 300.18 226.67
  L 309.37 226.67
  A 0.62 0.61 -89.5 0 0 309.98 226.06
  Q 310.03 217.55 309.99 204.74
  C 309.95 192.21 296.70 189.15 288.11 196.10
  A 0.80 0.80 0.0 0 1 286.83 195.33
  Q 287.03 194.26 286.71 193.50
  A 0.84 0.82 -11.0 0 0 285.94 192.99
  L 276.49 192.99
  A 0.73 0.72 90.0 0 0 275.77 193.72
  Z
  M 312.02 209.87
  Q 312.05 213.76 313.02 216.47
  C 317.47 228.84 335.73 230.54 343.56 220.74
  A 1.70 1.70 0.0 0 0 343.08 218.20
  L 338.31 215.44
  A 2.46 2.46 0.0 0 0 335.41 215.77
  C 329.57 221.18 322.88 217.06 322.83 209.79
  C 322.77 202.52 329.40 198.29 335.32 203.61
  A 2.46 2.46 0.0 0 0 338.22 203.90
  L 342.95 201.06
  A 1.70 1.70 0.0 0 0 343.39 198.52
  C 335.41 188.84 317.18 190.82 312.92 203.26
  Q 311.99 205.98 312.02 209.87
  Z
  M 90.17 193.92
  L 90.17 225.92
  A 0.77 0.77 0.0 0 0 90.94 226.69
  L 100.52 226.69
  A 0.55 0.54 -89.5 0 0 101.06 226.15
  Q 101.12 216.54 101.03 212.28
  C 100.89 205.65 104.30 202.30 110.78 202.16
  A 1.26 1.26 0.0 0 0 112.01 200.90
  L 112.01 193.44
  A 1.08 1.08 0.0 0 0 110.62 192.41
  Q 106.69 193.57 105.22 194.97
  Q 103.46 196.65 102.48 197.30
  A 0.88 0.88 0.0 0 1 101.11 196.57
  L 101.11 193.67
  A 0.68 0.68 0.0 0 0 100.43 192.99
  L 91.11 192.99
  A 0.94 0.93 -0.0 0 0 90.17 193.92
  Z
  M 147.7122 208.2048
  A 15.45 15.45 0.0 0 0 132.1815 192.8359
  L 126.7015 192.8646
  A 15.45 15.45 0.0 0 0 111.3327 208.3953
  L 111.3478 211.2952
  A 15.45 15.45 0.0 0 0 126.8785 226.6641
  L 132.3585 226.6354
  A 15.45 15.45 0.0 0 0 147.7273 211.1047
  L 147.7122 208.2048
  Z
  M 236.83 193.28
  Q 236.70 206.64 236.89 215.14
  C 237.15 226.81 250.36 230.37 258.20 223.12
  A 0.75 0.74 -31.7 0 1 259.40 223.40
  Q 259.79 224.40 260.59 225.23
  A 0.66 0.66 0.0 0 0 261.44 225.31
  L 269.65 219.40
  A 2.28 2.27 72.2 0 0 270.60 217.55
  L 270.60 194.02
  A 1.46 1.46 0.0 0 0 269.14 192.56
  L 260.52 192.56
  A 0.81 0.81 0.0 0 0 259.71 193.38
  Q 259.89 204.95 259.64 208.96
  C 259.31 214.57 255.44 219.65 249.71 215.88
  A 2.33 2.30 -0.4 0 1 249.03 215.22
  Q 247.89 213.58 247.83 211.68
  Q 247.68 206.22 247.75 193.79
  A 1.21 1.21 0.0 0 0 246.54 192.57
  L 237.55 192.57
  A 0.72 0.72 0.0 0 0 236.83 193.28
  Z
  M 53.51 224.54
  L 49.96 219.61
  A 3.08 3.07 72.2 0 0 47.46 218.32
  L 38.92 218.32
  A 0.93 0.92 81.4 0 1 38.04 217.66
  Q 37.77 216.93 39.47 214.96
  Q 46.18 207.13 51.76 200.86
  A 4.14 3.99 -17.4 0 0 52.64 199.25
  Q 53.14 197.47 52.88 193.58
  A 0.85 0.85 0.0 0 0 52.03 192.79
  L 24.55 192.79
  A 1.12 1.12 0.0 0 0 23.43 193.91
  L 23.43 200.17
  A 1.05 1.05 0.0 0 0 24.48 201.22
  L 37.31 201.22
  A 0.81 0.80 20.4 0 1 37.92 202.55
  L 23.64 219.13
  A 2.60 2.54 -25.1 0 0 23.01 220.81
  L 23.01 226.05
  A 0.73 0.72 0.0 0 0 23.74 226.77
  L 52.36 226.77
  A 1.41 1.41 0.0 0 0 53.51 224.54
  Z
  M 65.56 212.81
  L 86.86 212.81
  A 0.84 0.84 0.0 0 0 87.70 212.02
  Q 88.04 206.75 86.35 202.34
  C 84.53 197.60 79.77 193.51 75.00 193.20
  Q 68.22 192.76 66.73 193.13
  Q 54.10 196.31 53.31 208.77
  Q 52.54 221.00 63.25 225.89
  C 66.51 227.37 73.34 227.38 76.58 226.61
  Q 79.45 225.93 83.25 223.53
  C 87.21 221.03 83.09 218.30 81.20 216.51
  A 1.53 1.52 -38.6 0 0 79.36 216.31
  C 73.82 219.64 68.33 220.30 64.75 214.23
  A 0.94 0.94 0.0 0 1 65.56 212.81
  Z
  M 354.98 212.83
  L 376.27 212.74
  A 0.84 0.84 0.0 0 0 377.10 211.95
  Q 377.42 206.68 375.71 202.28
  C 373.87 197.55 369.10 193.49 364.33 193.20
  Q 357.55 192.79 356.07 193.16
  Q 343.46 196.39 342.72 208.85
  Q 342.01 221.07 352.73 225.91
  C 355.99 227.38 362.82 227.36 366.05 226.57
  Q 368.92 225.88 372.70 223.47
  C 376.65 220.95 372.52 218.24 370.63 216.46
  A 1.53 1.52 -38.9 0 0 368.79 216.27
  C 363.26 219.62 357.78 220.30 354.18 214.25
  A 0.94 0.94 0.0 0 1 354.98 212.83
  Z"
/>
<path fill="#181e25" d="
  M 247.94 159.23
  L 206.82 167.59
  A 1.10 1.10 0.0 0 1 205.52 166.73
  L 199.65 137.85
  A 1.38 1.37 78.6 0 1 200.72 136.23
  L 245.32 127.16
  A 1.16 1.16 0.0 0 1 246.71 128.20
  L 248.25 147.29
  A 0.19 0.19 0.0 0 1 247.88 147.34
  L 245.07 133.52
  A 0.92 0.92 0.0 0 0 243.51 133.05
  L 227.51 149.05
  A 2.33 2.32 33.8 0 1 224.97 149.55
  L 204.61 141.10
  A 1.03 1.02 5.5 0 0 203.21 142.25
  L 207.51 163.40
  A 1.41 1.40 -9.6 0 0 209.08 164.51
  L 247.91 159.03
  A 0.10 0.10 0.0 0 1 247.94 159.23
  Z
  M 238.88 134.01
  A 1.08 1.08 0.0 0 0 237.88 132.20
  L 209.40 138.10
  A 1.08 1.08 0.0 0 0 209.21 140.16
  L 225.45 146.87
  A 1.08 1.08 0.0 0 0 226.64 146.62
  L 238.88 134.01
  Z"
/>
<path fill="#ffffff" d="
  M 238.88 134.01
  L 226.64 146.62
  A 1.08 1.08 0.0 0 1 225.45 146.87
  L 209.21 140.16
  A 1.08 1.08 0.0 0 1 209.40 138.10
  L 237.88 132.20
  A 1.08 1.08 0.0 0 1 238.88 134.01
  Z"
/>
<path fill="#f7de53" d="
  M 152.61 180.57
  C 155.17 175.14 156.88 172.02 161.59 168.07
  Q 169.53 161.42 179.91 157.65
  C 180.62 157.39 182.07 156.63 183.04 156.77
  A 1.08 1.08 0.0 0 1 183.43 158.77
  Q 172.02 165.50 163.20 173.58
  C 158.92 177.50 156.01 182.13 153.76 187.05
  A 0.53 0.52 41.1 0 1 152.84 187.11
  Q 138.83 165.25 113.41 156.30
  Q 97.60 150.73 82.69 150.15
  Q 65.82 149.48 48.97 151.94
  A 0.85 0.85 0.0 0 1 48.00 151.10
  L 48.00 150.74
  A 0.74 0.74 0.0 0 1 48.54 150.03
  Q 69.50 144.23 91.25 144.53
  C 117.94 144.91 140.23 155.56 151.56 180.56
  A 0.58 0.58 0.0 0 0 152.61 180.57
  Z"
/>
<path fill="#181e25" d="
  M 198.39 214.87
  Q 198.19 215.83 197.49 217.54
  C 193.63 226.81 182.93 229.56 174.75 223.93
  A 1.04 1.04 0.0 0 0 173.12 224.79
  L 173.12 225.72
  A 0.77 0.77 0.0 0 1 172.35 226.49
  L 162.72 226.49
  A 0.58 0.58 0.0 0 1 162.14 225.91
  L 162.14 181.01
  A 0.97 0.97 0.0 0 1 163.11 180.04
  L 172.30 180.04
  A 0.86 0.86 0.0 0 1 173.16 180.90
  L 173.16 194.66
  A 0.82 0.81 73.8 0 0 174.41 195.35
  C 177.88 193.10 181.47 191.65 185.65 192.43
  Q 195.95 194.35 198.32 204.70
  A 0.29 0.28 47.0 0 0 198.87 204.72
  C 202.01 194.07 213.31 190.77 223.20 193.52
  Q 233.42 196.37 234.83 206.87
  C 236.76 221.17 225.25 229.23 212.02 226.37
  Q 202.72 224.37 198.94 214.82
  A 0.29 0.29 0.0 0 0 198.39 214.87
  Z
  M 180.5963 200.8106
  A 8.70 7.44 -89.3 0 0 173.0506 209.4191
  A 8.70 7.44 -89.3 0 0 180.3837 218.2094
  A 8.70 7.44 -89.3 0 0 187.9294 209.6009
  A 8.70 7.44 -89.3 0 0 180.5963 200.8106
  Z
  M 216.7092 201.2305
  A 8.67 7.51 -90.6 0 0 209.2904 209.9786
  A 8.67 7.51 -90.6 0 0 216.8908 218.5695
  A 8.67 7.51 -90.6 0 0 224.3096 209.8214
  A 8.67 7.51 -90.6 0 0 216.7092 201.2305
  Z"
/>
<path fill="#181e25" d="
  M 276.49 192.99
  L 285.94 192.99
  A 0.84 0.82 -11.0 0 1 286.71 193.50
  Q 287.03 194.26 286.83 195.33
  A 0.80 0.80 0.0 0 0 288.11 196.10
  C 296.70 189.15 309.95 192.21 309.99 204.74
  Q 310.03 217.55 309.98 226.06
  A 0.62 0.61 -89.5 0 1 309.37 226.67
  L 300.18 226.67
  A 1.06 1.05 -90.0 0 1 299.13 225.61
  Q 299.14 210.82 299.17 210.01
  Q 299.30 205.63 298.10 204.21
  C 295.29 200.89 290.31 201.49 287.93 204.90
  Q 286.75 206.60 286.81 210.36
  Q 286.92 217.13 286.83 224.60
  A 0.79 0.79 0.0 0 1 286.05 225.38
  C 283.75 225.44 278.80 221.10 276.25 219.21
  A 1.20 1.16 -72.5 0 1 275.77 218.25
  L 275.77 193.72
  A 0.73 0.72 -90.0 0 1 276.49 192.99
  Z"
/>
<path fill="#181e25" d="
  M 322.83 209.79
  C 322.88 217.06 329.57 221.18 335.41 215.77
  A 2.46 2.46 0.0 0 1 338.31 215.44
  L 343.08 218.20
  A 1.70 1.70 0.0 0 1 343.56 220.74
  C 335.73 230.54 317.47 228.84 313.02 216.47
  Q 312.05 213.76 312.02 209.87
  Q 311.99 205.98 312.92 203.26
  C 317.18 190.82 335.41 188.84 343.39 198.52
  A 1.70 1.70 0.0 0 1 342.95 201.06
  L 338.22 203.90
  A 2.46 2.46 0.0 0 1 335.32 203.61
  C 329.40 198.29 322.77 202.52 322.83 209.79
  Z"
/>
<path fill="#181e25" d="
  M 91.11 192.99
  L 100.43 192.99
  A 0.68 0.68 0.0 0 1 101.11 193.67
  L 101.11 196.57
  A 0.88 0.88 0.0 0 0 102.48 197.30
  Q 103.46 196.65 105.22 194.97
  Q 106.69 193.57 110.62 192.41
  A 1.08 1.08 0.0 0 1 112.01 193.44
  L 112.01 200.90
  A 1.26 1.26 0.0 0 1 110.78 202.16
  C 104.30 202.30 100.89 205.65 101.03 212.28
  Q 101.12 216.54 101.06 226.15
  A 0.55 0.54 -89.5 0 1 100.52 226.69
  L 90.94 226.69
  A 0.77 0.77 0.0 0 1 90.17 225.92
  L 90.17 193.92
  A 0.94 0.93 0.0 0 1 91.11 192.99
  Z"
/>
<path fill="#181e25" d="
  M 147.7273 211.1047
  A 15.45 15.45 0.0 0 1 132.3585 226.6354
  L 126.8785 226.6641
  A 15.45 15.45 0.0 0 1 111.3478 211.2952
  L 111.3327 208.3953
  A 15.45 15.45 0.0 0 1 126.7015 192.8646
  L 132.1815 192.8359
  A 15.45 15.45 0.0 0 1 147.7122 208.2048
  L 147.7273 211.1047
  Z
  M 129.3590 201.2005
  A 8.69 7.53 -90.6 0 0 121.9204 209.9689
  A 8.69 7.53 -90.6 0 0 129.5410 218.5795
  A 8.69 7.53 -90.6 0 0 136.9796 209.8111
  A 8.69 7.53 -90.6 0 0 129.3590 201.2005
  Z"
/>
<path fill="#181e25" d="
  M 236.83 193.28
  A 0.72 0.72 0.0 0 1 237.55 192.57
  L 246.54 192.57
  A 1.21 1.21 0.0 0 1 247.75 193.79
  Q 247.68 206.22 247.83 211.68
  Q 247.89 213.58 249.03 215.22
  A 2.33 2.30 -0.4 0 0 249.71 215.88
  C 255.44 219.65 259.31 214.57 259.64 208.96
  Q 259.89 204.95 259.71 193.38
  A 0.81 0.81 0.0 0 1 260.52 192.56
  L 269.14 192.56
  A 1.46 1.46 0.0 0 1 270.60 194.02
  L 270.60 217.55
  A 2.28 2.27 72.2 0 1 269.65 219.40
  L 261.44 225.31
  A 0.66 0.66 0.0 0 1 260.59 225.23
  Q 259.79 224.40 259.40 223.40
  A 0.75 0.74 -31.7 0 0 258.20 223.12
  C 250.36 230.37 237.15 226.81 236.89 215.14
  Q 236.70 206.64 236.83 193.28
  Z"
/>
<path fill="#181e25" d="
  M 53.51 224.54
  A 1.41 1.41 0.0 0 1 52.36 226.77
  L 23.74 226.77
  A 0.73 0.72 0.0 0 1 23.01 226.05
  L 23.01 220.81
  A 2.60 2.54 -25.1 0 1 23.64 219.13
  L 37.92 202.55
  A 0.81 0.80 20.4 0 0 37.31 201.22
  L 24.48 201.22
  A 1.05 1.05 0.0 0 1 23.43 200.17
  L 23.43 193.91
  A 1.12 1.12 0.0 0 1 24.55 192.79
  L 52.03 192.79
  A 0.85 0.85 0.0 0 1 52.88 193.58
  Q 53.14 197.47 52.64 199.25
  A 4.14 3.99 -17.4 0 1 51.76 200.86
  Q 46.18 207.13 39.47 214.96
  Q 37.77 216.93 38.04 217.66
  A 0.93 0.92 81.4 0 0 38.92 218.32
  L 47.46 218.32
  A 3.08 3.07 72.2 0 1 49.96 219.61
  L 53.51 224.54
  Z"
/>
<path fill="#181e25" d="
  M 65.56 212.81
  A 0.94 0.94 0.0 0 0 64.75 214.23
  C 68.33 220.30 73.82 219.64 79.36 216.31
  A 1.53 1.52 -38.6 0 1 81.20 216.51
  C 83.09 218.30 87.21 221.03 83.25 223.53
  Q 79.45 225.93 76.58 226.61
  C 73.34 227.38 66.51 227.37 63.25 225.89
  Q 52.54 221.00 53.31 208.77
  Q 54.10 196.31 66.73 193.13
  Q 68.22 192.76 75.00 193.20
  C 79.77 193.51 84.53 197.60 86.35 202.34
  Q 88.04 206.75 87.70 212.02
  A 0.84 0.84 0.0 0 1 86.86 212.81
  L 65.56 212.81
  Z
  M 65.15 206.72
  L 76.83 206.66
  A 0.46 0.46 0.0 0 0 77.28 206.20
  L 77.28 206.05
  A 6.12 6.03 -0.3 0 0 71.13 200.05
  L 70.77 200.05
  A 6.12 6.03 -0.3 0 0 64.68 206.11
  L 64.69 206.26
  A 0.46 0.46 0.0 0 0 65.15 206.72
  Z"
/>
<path fill="#181e25" d="
  M 354.98 212.83
  A 0.94 0.94 0.0 0 0 354.18 214.25
  C 357.78 220.30 363.26 219.62 368.79 216.27
  A 1.53 1.52 -38.9 0 1 370.63 216.46
  C 372.52 218.24 376.65 220.95 372.70 223.47
  Q 368.92 225.88 366.05 226.57
  C 362.82 227.36 355.99 227.38 352.73 225.91
  Q 342.01 221.07 342.72 208.85
  Q 343.46 196.39 356.07 193.16
  Q 357.55 192.79 364.33 193.20
  C 369.10 193.49 373.87 197.55 375.71 202.28
  Q 377.42 206.68 377.10 211.95
  A 0.84 0.84 0.0 0 1 376.27 212.74
  L 354.98 212.83
  Z
  M 354.16 206.73
  L 366.60 206.65
  A 0.20 0.20 0.0 0 0 366.80 206.45
  L 366.80 206.35
  A 6.32 6.32 0.0 0 0 360.44 200.07
  L 360.24 200.07
  A 6.32 6.32 0.0 0 0 353.96 206.43
  L 353.96 206.53
  A 0.20 0.20 0.0 0 0 354.16 206.73
  Z"
/>
<path fill="#ffffff" d="
  M 65.15 206.72
  A 0.46 0.46 0.0 0 1 64.69 206.26
  L 64.68 206.11
  A 6.12 6.03 -0.3 0 1 70.77 200.05
  L 71.13 200.05
  A 6.12 6.03 -0.3 0 1 77.28 206.05
  L 77.28 206.20
  A 0.46 0.46 0.0 0 1 76.83 206.66
  L 65.15 206.72
  Z"
/>
<path fill="#ffffff" d="
  M 354.16 206.73
  A 0.20 0.20 0.0 0 1 353.96 206.53
  L 353.96 206.43
  A 6.32 6.32 0.0 0 1 360.24 200.07
  L 360.44 200.07
  A 6.32 6.32 0.0 0 1 366.80 206.35
  L 366.80 206.45
  A 0.20 0.20 0.0 0 1 366.60 206.65
  L 354.16 206.73
  Z"
/>
<ellipse fill="#ffffff" cx="0.00" cy="0.00" transform="translate(180.49,209.51) rotate(-89.3)" rx="8.70" ry="7.44"/>
<ellipse fill="#ffffff" cx="0.00" cy="0.00" transform="translate(129.45,209.89) rotate(-90.6)" rx="8.69" ry="7.53"/>
<ellipse fill="#ffffff" cx="0.00" cy="0.00" transform="translate(216.80,209.90) rotate(-90.6)" rx="8.67" ry="7.51"/>
</svg>
