<?xml version="1.0" encoding="UTF-8" standalone="no"?>
<!DOCTYPE svg PUBLIC "-//W3C//DTD SVG 1.1//EN" "http://www.w3.org/Graphics/SVG/1.1/DTD/svg11.dtd">
<svg xmlns="http://www.w3.org/2000/svg" version="1.1" viewBox="0.00 0.00 48.00 48.00">
<g stroke-width="2.00" fill="none" stroke-linecap="butt">
<path stroke="#23b074" stroke-opacity="0.898" vector-effect="non-scaling-stroke" d="
  M 47.20 1.36
  A 0.60 0.60 0.0 0 0 46.60 0.76
  L 1.28 0.76
  A 0.60 0.60 0.0 0 0 0.68 1.36
  L 0.68 46.68
  A 0.60 0.60 0.0 0 0 1.28 47.28
  L 46.60 47.28
  A 0.60 0.60 0.0 0 0 47.20 46.68
  L 47.20 1.36"
/>
<path stroke="#91d7b9" vector-effect="non-scaling-stroke" d="
  M 35.12 12.70
  A 0.34 0.34 0.0 0 1 34.86 12.16
  Q 36.08 10.52 36.32 9.03
  A 2.44 2.44 0.0 0 0 33.91 6.20
  Q 21.97 6.18 10.51 6.23
  C 7.29 6.24 7.63 9.14 8.83 11.23
  Q 15.74 23.27 20.33 31.15
  A 3.56 3.52 30.4 0 1 20.80 32.91
  L 20.80 39.68
  A 1.37 1.23 34.2 0 0 20.95 40.28
  C 22.65 43.48 27.45 40.71 29.64 39.67
  A 2.26 2.25 -12.6 0 0 30.94 37.63
  L 30.94 32.65
  A 2.46 2.45 60.1 0 1 31.27 31.42
  Q 35.27 24.55 39.32 17.55
  C 40.21 16.03 40.45 14.72 39.26 13.48
  C 38.28 12.44 36.79 12.74 35.12 12.70"
/>
<path stroke="#91d7b9" vector-effect="non-scaling-stroke" d="
  M 27.88 37.52
  A 0.94 0.93 79.5 0 0 28.47 36.65
  L 28.47 31.60
  A 1.47 1.41 61.2 0 1 28.66 30.88
  L 37.32 15.88
  A 0.37 0.37 0.0 0 0 37.00 15.33
  L 22.28 15.33
  A 0.29 0.29 0.0 0 0 22.03 15.76
  L 25.62 21.99
  A 0.32 0.32 0.0 0 0 26.17 21.99
  L 28.95 17.17
  A 1.11 1.10 27.8 0 1 30.39 16.73
  L 30.66 16.87
  A 1.21 1.20 -62.2 0 1 31.18 18.56
  L 27.52 24.90
  A 1.28 1.27 -85.1 0 1 26.86 25.46
  Q 24.91 26.19 24.14 24.85
  Q 20.49 18.51 18.95 15.65
  A 2.07 2.06 -14.1 0 1 20.77 12.61
  L 30.78 12.61
  A 1.42 1.42 0.0 0 0 32.01 11.90
  L 33.44 9.43
  A 0.44 0.43 14.8 0 0 33.06 8.78
  L 11.07 8.78
  A 0.34 0.34 0.0 0 0 10.78 9.29
  L 23.11 30.66
  A 2.81 2.73 -60.7 0 1 23.48 32.05
  L 23.48 38.56
  A 0.47 0.47 0.0 0 0 24.13 38.99
  L 27.88 37.52"
/>
</g>
<path fill="#24b276" fill-opacity="0.792" d="
  M 48.00 0.00
  L 48.00 48.00
  L 0.00 48.00
  L 0.00 0.00
  L 48.00 0.00
  Z
  M 47.20 1.36
  A 0.60 0.60 0.0 0 0 46.60 0.76
  L 1.28 0.76
  A 0.60 0.60 0.0 0 0 0.68 1.36
  L 0.68 46.68
  A 0.60 0.60 0.0 0 0 1.28 47.28
  L 46.60 47.28
  A 0.60 0.60 0.0 0 0 47.20 46.68
  L 47.20 1.36
  Z"
/>
<path fill="#23ae73" d="
  M 47.20 46.68
  A 0.60 0.60 0.0 0 1 46.60 47.28
  L 1.28 47.28
  A 0.60 0.60 0.0 0 1 0.68 46.68
  L 0.68 1.36
  A 0.60 0.60 0.0 0 1 1.28 0.76
  L 46.60 0.76
  A 0.60 0.60 0.0 0 1 47.20 1.36
  L 47.20 46.68
  Z
  M 35.12 12.70
  A 0.34 0.34 0.0 0 1 34.86 12.16
  Q 36.08 10.52 36.32 9.03
  A 2.44 2.44 0.0 0 0 33.91 6.20
  Q 21.97 6.18 10.51 6.23
  C 7.29 6.24 7.63 9.14 8.83 11.23
  Q 15.74 23.27 20.33 31.15
  A 3.56 3.52 30.4 0 1 20.80 32.91
  L 20.80 39.68
  A 1.37 1.23 34.2 0 0 20.95 40.28
  C 22.65 43.48 27.45 40.71 29.64 39.67
  A 2.26 2.25 -12.6 0 0 30.94 37.63
  L 30.94 32.65
  A 2.46 2.45 60.1 0 1 31.27 31.42
  Q 35.27 24.55 39.32 17.55
  C 40.21 16.03 40.45 14.72 39.26 13.48
  C 38.28 12.44 36.79 12.74 35.12 12.70
  Z"
/>
<path fill="#feffff" d="
  M 35.12 12.70
  C 36.79 12.74 38.28 12.44 39.26 13.48
  C 40.45 14.72 40.21 16.03 39.32 17.55
  Q 35.27 24.55 31.27 31.42
  A 2.46 2.45 60.1 0 0 30.94 32.65
  L 30.94 37.63
  A 2.26 2.25 -12.6 0 1 29.64 39.67
  C 27.45 40.71 22.65 43.48 20.95 40.28
  A 1.37 1.23 34.2 0 1 20.80 39.68
  L 20.80 32.91
  A 3.56 3.52 30.4 0 0 20.33 31.15
  Q 15.74 23.27 8.83 11.23
  C 7.63 9.14 7.29 6.24 10.51 6.23
  Q 21.97 6.18 33.91 6.20
  A 2.44 2.44 0.0 0 1 36.32 9.03
  Q 36.08 10.52 34.86 12.16
  A 0.34 0.34 0.0 0 0 35.12 12.70
  Z
  M 27.88 37.52
  A 0.94 0.93 79.5 0 0 28.47 36.65
  L 28.47 31.60
  A 1.47 1.41 61.2 0 1 28.66 30.88
  L 37.32 15.88
  A 0.37 0.37 0.0 0 0 37.00 15.33
  L 22.28 15.33
  A 0.29 0.29 0.0 0 0 22.03 15.76
  L 25.62 21.99
  A 0.32 0.32 0.0 0 0 26.17 21.99
  L 28.95 17.17
  A 1.11 1.10 27.8 0 1 30.39 16.73
  L 30.66 16.87
  A 1.21 1.20 -62.2 0 1 31.18 18.56
  L 27.52 24.90
  A 1.28 1.27 -85.1 0 1 26.86 25.46
  Q 24.91 26.19 24.14 24.85
  Q 20.49 18.51 18.95 15.65
  A 2.07 2.06 -14.1 0 1 20.77 12.61
  L 30.78 12.61
  A 1.42 1.42 0.0 0 0 32.01 11.90
  L 33.44 9.43
  A 0.44 0.43 14.8 0 0 33.06 8.78
  L 11.07 8.78
  A 0.34 0.34 0.0 0 0 10.78 9.29
  L 23.11 30.66
  A 2.81 2.73 -60.7 0 1 23.48 32.05
  L 23.48 38.56
  A 0.47 0.47 0.0 0 0 24.13 38.99
  L 27.88 37.52
  Z"
/>
<path fill="#23ae73" d="
  M 23.48 38.56
  L 23.48 32.05
  A 2.81 2.73 -60.7 0 0 23.11 30.66
  L 10.78 9.29
  A 0.34 0.34 0.0 0 1 11.07 8.78
  L 33.06 8.78
  A 0.44 0.43 14.8 0 1 33.44 9.43
  L 32.01 11.90
  A 1.42 1.42 0.0 0 1 30.78 12.61
  L 20.77 12.61
  A 2.07 2.06 -14.1 0 0 18.95 15.65
  Q 20.49 18.51 24.14 24.85
  Q 24.91 26.19 26.86 25.46
  A 1.28 1.27 -85.1 0 0 27.52 24.90
  L 31.18 18.56
  A 1.21 1.20 -62.2 0 0 30.66 16.87
  L 30.39 16.73
  A 1.11 1.10 27.8 0 0 28.95 17.17
  L 26.17 21.99
  A 0.32 0.32 0.0 0 1 25.62 21.99
  L 22.03 15.76
  A 0.29 0.29 0.0 0 1 22.28 15.33
  L 37.00 15.33
  A 0.37 0.37 0.0 0 1 37.32 15.88
  L 28.66 30.88
  A 1.47 1.41 61.2 0 0 28.47 31.60
  L 28.47 36.65
  A 0.94 0.93 79.5 0 1 27.88 37.52
  L 24.13 38.99
  A 0.47 0.47 0.0 0 1 23.48 38.56
  Z"
/>
</svg>
