<svg width="128" height="128" viewBox="0 0 128 128" fill="none" xmlns="http://www.w3.org/2000/svg">
<g clip-path="url(#clip0_240_6569)">
<g clip-path="url(#clip1_240_6569)">
<path d="M114.036 0H13.9636C6.10909 0 0 6.10909 0 13.9636V114.036C0 121.891 6.10909 128 13.9636 128H114.036C121.891 128 128 121.891 128 114.036V13.9636C128 6.10909 121.891 0 114.036 0ZM34.9091 36.0727C34.9091 35.4909 35.4909 34.9091 35.7818 34.9091H68.0727C68.6545 34.9091 68.9455 35.4909 68.9455 36.0727V39.8545C68.9455 40.4364 68.3636 41.0182 68.0727 41.0182H41.0182V50.0364C41.0182 50.6182 40.4364 51.2 40.1455 51.2H36.0727C35.4909 51.2 35.2 50.6182 35.2 50.0364V36.0727H34.9091ZM93.0909 91.9273C93.0909 92.5091 92.5091 93.0909 92.2182 93.0909H62.5455C61.9636 93.0909 61.6727 92.5091 61.6727 91.9273V87.8546C61.6727 87.2727 62.2545 86.6909 62.5455 86.6909H86.9818V77.3818C86.9818 76.8 87.5636 76.2182 88.1455 76.2182H92.2182C92.8 76.2182 93.0909 76.8 93.0909 77.3818V91.9273ZM93.0909 49.7455C93.0909 50.3273 92.5091 50.9091 92.2182 50.9091H88.1455C87.5636 50.9091 86.9818 50.3273 86.9818 49.7455V45.3818L43.9273 86.9818H52.6545C53.2364 86.9818 53.8182 87.5636 53.8182 88.1455V92.2182C53.8182 92.8 53.2364 93.3818 52.9455 93.3818H36.0727C35.4909 93.3818 34.9091 92.8 35.2 92.2182V87.2727L82.9091 41.3091H77.9636C77.3818 41.3091 76.8 40.7273 77.0909 40.1455V36.0727C77.0909 35.4909 77.6727 34.9091 77.9636 34.9091H92.2182C92.8 34.9091 93.0909 35.4909 93.0909 36.0727V49.7455Z" fill="#F44238"/>
<path d="M92.218 76.509H88.1453C87.5635 76.509 86.9817 77.0909 86.9817 77.6727V86.9818H62.5453C61.9635 86.9818 61.3817 87.5636 61.6726 88.1454V92.2181C61.6726 92.7999 62.2544 93.3818 62.5453 93.3818H92.218C92.7999 93.3818 93.0908 92.7999 93.0908 92.2181V77.9636C93.0908 77.0909 92.509 76.509 92.218 76.509Z" fill="white"/>
<path d="M35.7816 50.9091H39.8544C40.4362 50.9091 40.7271 50.3273 40.7271 49.7454V40.7273H67.7816C68.3635 40.7273 68.6544 40.1454 68.6544 39.5636V35.7818C68.6544 35.2 68.0726 34.6182 67.7816 34.6182H35.7816C35.1998 34.6182 34.618 35.2 34.9089 35.7818V49.7454C34.9089 50.3273 35.4907 50.9091 35.7816 50.9091Z" fill="white"/>
<path d="M92.2183 34.9092H77.9637C77.3819 34.9092 77.091 35.491 77.091 36.0728V40.1455C77.091 40.7274 77.6728 41.3092 77.9637 41.3092H82.9092L34.9092 86.9819V91.9274C34.9092 92.5092 35.491 93.091 35.7819 93.091H52.6546C53.2365 93.091 53.8183 92.5092 53.5274 91.9274V87.8546C53.5274 87.2728 52.9455 86.691 52.3637 86.691H43.6365L86.691 45.091V49.4546C86.691 50.0365 87.2728 50.6183 87.8546 50.6183H91.9274C92.5092 50.6183 92.8001 50.0365 92.8001 49.4546V35.7819C93.091 35.491 92.5092 34.9092 92.2183 34.9092Z" fill="white"/>
</g>
</g>
<defs>
<clipPath id="clip0_240_6569">
<rect width="128" height="128" fill="white"/>
</clipPath>
<clipPath id="clip1_240_6569">
<rect width="128" height="128" fill="white"/>
</clipPath>
</defs>
</svg>
